<svg xmlns="http://www.w3.org/2000/svg" viewBox="0 0 505 640"><path stroke="#000" d="m244.5 0 10 1q1.3-2.3 6-1l6 4h7l5.5 4.5.5 1.5h5l3.5 2.5 5.5 10.5 3.5 2.5 2 6v3l4 6v11q3.2 2.3 2 9l-4 8q2.3 1.3 1 6l-4.5 6.5-2.5 1.5q0 7.5-4.5 10.5l-4 1-1.5 1.5-4 5v2l17 31-1.5-.5-11-6h-2l-3-2-7-1-1-1-11-1-1-1h-17l-1 1h-6l-1 1h-4l-4 2h-3l-16 7-.5-.5 2-2 7-15 2-2 5-10v-2l-5.5-6.5q-5-1-7.5-4.5l-3-6v-2q-4.2-2.8-6-8v-4l1-2q-4.5-2.5-3-11l1-3-1-1v-7l3-4v-8l3.5-3.5 1.5-.5v-5l1-3 2.5-2.5 4.5-2.5q.9-4.6 4.5-6.5l5-1 6-5 5-1 2 1zm.5 4q-5 2-6 8l2-1 3 2 6-4q3 1 4-1l9 5 4-1-1-2-5-6h-6l-1 3h-2l-1-1q-1-3-6-2Zm-9 3-3 1-4 4v4l3 1 2-3 3 1q2-2 1-6zm33 1-2 2 1 4 2 1 2-1 1 3 3 1 1-2-1-4-3-4zm-46 5-4 5v8l-3-4q-3 0-4 2-1 6 2 9v1l-5-2-2 3q-1 5 1 8l2 2-4-1-3 4 1 4 6 5h1v-5l-1-3-2-2 1-1 3 1v-6l1-2 2-1q1-5 4-8v-2l5-7 2 1 1-2-2-6zm58 1-2 6h3l4 8 2-3q1-5-1-7l-3-4zm-35 1-13 5q-3 1-1 2l8-4 7-1 1-1h9q0 2 5 1l6 2 7 4 10 12 4 9v3h1l-1-7-5-9q-7-9-17-14l-6-1-1-1zm-16 7-3 3h1l3-2zm17 1-12 5-9 9-5 11v6l-1 1 1 10 2 6 5 8 6 4 1-2-7-8-4-10V50l4-10 9-9 9-4h13l11 5 7 8 4 9v14q-2 0-1 4l-5 9-4 4q-1 3 2 3l7-8 4-9q-1-5 1-6v-6l-1-1-1-8-5-9q-5-7-13-11l-6-1-1-1zm44 2-2 1-3 4 1 1 2-1 1 2v7l1 3q1 2 3 0l1 3q1 4-2 5l1 7 2-1v5l-2 1-2 2q1 3-1 5h3l7-8v-8l-2 1h-3l4-6q1-8-2-10l-2 1h-2q-1-4 1-4l-1-7zm-67 3-3 4h1l2-2zm-3 4-2 3q1 1 2-1zm30 1q-2 2-5 1l-6 3-8 9-2 6v9l2 6q1 2 2 1l-3-8v-6q2-1 1-4l3-6 6-6 7-3h11l6 3 5 6 4 12-2 10-5 7 1 1 4-5 3-8v-8l-4-10-8-8-7-1-1-1zm-34 6-1 3h1zm33 2-5 2-6 6-2 5v5l2 5 5 3q5 1 6-2v-7l-1-1 1-3 7 1q-4 2-2 11l3 1q4 1 6-1l3-4V52l-2-4q-4-8-15-7Zm-34 1-1 3h1zm-1 3-1 5h1zm76 2-1 16h1zm-77 4-1 8h1zm-7 5-4 3 2 6 5 3-2 1 5 2h1l-1-1-1-6-2-3-3-2 2-1zm8 5-1 4h1zm75 4-1 3h1zm-55 3-1 2 3 2zm54 0-1 3h1zm-82 1-2 2 3 6 4 2 5 1-3 1 4 1h2l-1-1-3-5zm44 0-6 3-6 7-15 31-9 15 1 1 3-3 8-16 5-7 10-21h1l-7 21q-5 12-14 22h2l11-16 7-15 3-10h1l-4 20-8 17h4l3-6 3-9v-3l2-4v-4l1-1 2-10h1l-1 3v14l-1 1-1 17h2l1-4v-7l1-1v-9l1-1 1-13 1 3 1 19 1 1v9l2 3h1v-6l-1-1V98l-1-1V86l-1-1 1-5 11 38h3l-5-10-3-9-1-8-1-1v-4l-1-1 1-4 4 14 7 14q1 2 2 1l-6-13-5-15 1-3 8 19 2 2 14 26 3 2-1-4-9-14-16-33q-4-7-14-8Zm44 0v2l-2 3q0 3-4 2l-4 5 1 1 10-4 3-5-1-3zm-8 4-2 4q1 1 2-1zm2 9-1 2-4 2h-3l-1 2 5 3h2l4-4 1-3q0-2-3-2Zm-76 1-1 2 6 5h3l4-2v-1l-7-4zm13 5-3 3q-1 4 1 6h3l1-1 1-5zm51 1-1 4 4 5 2-3-1-5zm-2 21-1 2q1 2 2 1zm2 3v4l5 5h1z" opacity=".933"/><path stroke="#000" d="m248.5 124 15 1 1 1h4l1 1 8 1 14 6 7.5 6.5-6.5.5-5-3h-2l-.5 4.5 3.5 3.5 3 1 11-7 3-1h5l7 3 7-6 6-3q4 1 5-1l6 2h7l6 4 4 1 5.5 4.5 2 5q4.8 3.2 7 9v9l2 4v3l-4 9 1 2-2 5-4.5 4.5-3.5 2.5q-.6 3.9-3.5 5.5l-3 2-5 1-6 4-14 1-5-3h-5l-12-7-12.5 14.5-1 5-1.5 1.5-3.5 2.5-2.5 3.5-5.5 2.5.5 194.5 6.5-11.5 3-9v-3l1-1 1-10 1-1v-9l1-1v-20l-1-1v-3l-3-9-4-9-1-11 1-1v-5l2-6 6-12 4-12 1-9 1.5-2.5 2.5 13.5 5 10 8 11 3 6q-.7 3.3 1 4v13l-1 2 .5.5 2-2 9-4h8l1 1 6 1 9.5 8.5 3 6 1 9-3 8-6.5 6.5-7 2-5-2-4.5-4.5q-1.8-2.2-1-7l1.5-2.5 1.5-.5-2.5-1.5q-6.1 1.9-9.5 6.5l-4 6-5 11-5 17-7 15-2 7-3 5v2l-6 9 2.5.5 8.5-7.5 12-24q4.9-8.6 12.5-14.5l11-6q4 1 5-1h9l12 4 12.5 11.5 5 11 1 11-1 1-1 8-4 8-12.5 13.5-6 4-18 8-8 1-1 1h-6l-1 1-7.5.5 13.5 6.5 9 3h5l12-7 23-23 6-3 14.5-.5-6-10v-12l2-5 3.5-4.5 7-4h2l.5.5-2 2-2 5v4l3.5 4.5q2.2 1.8 7 1l6.5-4.5 3-6 1-11-2-2-3-7v-8l2-5 4.5-4.5q2.5-2 8-1v1l-4 1-4.5 4.5q-2.3 3.2-1 10l5.5 6.5 4 2h10l8-3 6-4 6.5-6.5 5-9 2-6 1.5-10.5.5 14.5 6.5 8.5 5.5 4.5 2 4v5l-4.5 6.5q-2.5 2-8 1l-4.5-3.5q-1.7-1.8-1-6l3.5-4.5h6l4 4 .5-1.5-4.5-6.5h-5l-6.5 5.5q-2 2.5-1 8l3.5 5.5 6 3h5l5-2 3.5-3.5 3-7v-4l-3-8-7-9-5-9-2-6-.5-5.5-1 5-1-18-.5 8.5-1 1v5l-1 1-1 9-4 12q-3.7 7.8-9.5 13.5l-9 5q-3.2-.7-4 1h-6l-6.5-3.5-2-4q1-1.5 2 1l.5 1.5 4 2h8l9-4 7.5-7.5 6-10 4-12 1-10 1-1v-8l1-1v-23l-1-1-1-12-1-1-2-11-2.5-6.5-.5 3.5 1 1v3l3 9 1 13 1 1v28l-1 1v6l-1 1-1 7-3 6v2q-4.3 9.2-11.5 15.5l-6 4-6 2h-4l-3-1-3.5-3.5-1-3 2.5-4.5.5 1.5-1 1 2.5 2.5q3.3-.7 2.5-5.5l-2.5-5.5-3-2-8-1-6 2-6.5 6.5-1 3v11q1.8.8 1 4l6 10-.5.5-5.5-5.5-3-4-4-9q1-4-1-5v-8l1-1v-4l2-6 3-6 21-22q6.6-7.9 11-18v-2l4-9 1-8 1-1v-7l1-1v-16l-1-1v-6l-1-1v-4l-1-1v-3l-2-6-7-13 1.5-.5q17.7 12.3 31.5 28.5l13 19 9 18 1 5 3 6v3l4 12 1 10 1 1v6l1 1v9l1 1v20l-1 1-1 13-1 1v3l-2 6-3 6-4.5 4.5-4 2-7.5.5-3 16-10 25-14 23q-9.5 13.5-21.5 24.5l-20 15-21 11h-2l-8 4-6 2h-3l-4 2-18.5 3.5v12l-1 3-5.5 5.5-1.5-6.5-5.5-5.5-7-3h-15l-14 5-8 5-10.5 9.5q-6.2 6.3-10 15 1 1.5 2-1 4.9-8.6 12.5-14.5l8-6 11-6 12-4h11l6.5 2.5-8.5.5-1 1h-3l-4 2h-3l-7.5 2.5 5.5.5 1-1 9-1-.5 1.5-8.5 9.5-22 11q-10.5 6.5-18.5 15.5l-9 12-7 14-5.5 19.5-5.5-19.5-7-14-9-12-7.5-7.5-11-8-19-10-10.5-9.5.5-1.5q3.2-.7 4 1h10v-1h-3l-8-3-10-1-4.5-1.5 2.5-1.5 10-1 1 1 9 1 15 7q11.3 7.2 19.5 17.5l2.5 3.5.5-1.5q-6-10-14.5-17.5l-17-11-9-3h-15l-7 3-5.5 4.5-2.5 6.5-3.5-3.5-2-5-.5-10.5-7-1-1-1h-4l-12-4h-3l-26-11-25-17L59 487.5l-15-21-9-17v-2l-3-5v-2l-2-3-3-9v-3l-2-5v-4l-1.5-2.5-7-1-7.5-6.5-4-7-2-6v-3l-1-1v-5l-1-1v-8l-1-1v-24l1-1v-8q2.2-1.2 1-6l1-1v-4l4-12v-3l2-3 3-10 8-16 16-23L55.5 244l11-8 .5 1.5-6 10-3 9v4l-2 6v11q-2 1-1 5l1 1v10l1 1 1 10 3 9 2 3v2l9 15L83.5 346l7.5 6.5 6 10 1 3v5l1 1v5q-2.2 1.2-1 6l-4 9-7.5 7.5-5 3h-3l-3.5 1.5 4 11 4.5 5.5 6 3h4l3.5-2.5v-3l-2-4 7.5-.5 5.5 3.5 2 4 1 6q-1.7.8-1 4l-5 9 4.5 4.5h4l6.5 4.5 1.5 2.5.5-1.5-4-6 .5-1.5q-1.8-1.7-6-1l-2.5-1.5 4.5-1.5 8 3 5.5 4.5q6.6 6.9 11 16l3.5 3.5 7 3h5l1.5 1.5-6.5.5-1-1h-4l-5-2-8.5-7.5-2.5-4.5-.5 2.5 5 8 6.5 6.5 5.5 2.5-2.5.5q-8.1-2.9-12.5-9.5l-6.5-12.5-.5 2.5q3.1 3.4 4 9l8 9-1.5-.5-6.5-5.5-2.5-4.5-.5 2.5 6.5 8.5 5 2h8q.8 1.8 4 1l1-1h9l1-1 8-1 9-4h2l9.5-5.5-15.5-.5-1-1h-3l-9-3q-16.9-7.1-27.5-20.5l-4-6-4-10q.7-3.2-1-4v-9l5-13 7.5-8.5 10-5q3.2.8 4-1h9l12 4q10.2 5.8 17.5 14.5l15 25 7.5 7.5 4 1 .5-.5-4-4-5-9v-2l-7-15-11-35-6-11-5.5-5.5-6-3h-7l-6 4-.5-.5 3.5-3.5 4-2h8q8.1 2.9 12.5 9.5l4 7 4 12 1 7 7 21 2 3v2l6 13 7.5 10.5 2 1 .5-1.5-9-12v-2l-5-10-6-18v-3l-2-5v-4l-1-1v-4l-3-9-8-12-6.5-6.5-7-3h-6l-6.5 3.5 1.5.5q2-3 8-2v1q-9.2-.2-12.5 5.5l-1 5h1l.5-1.5.5 1.5q-2 1 0 2l1 2-1.5.5-2-3-.5 1.5 3.5 4.5q2.5 2 8 1 3.3-.7 2.5-5.5l-2.5-.5-1.5 1.5-.5 3.5-1.5-.5-1-5 3.5-3.5h3q3.3 1.8 3.5 6.5l-4.5 5.5-6 1-7.5-4.5-3-7v-3l3-7 5.5-5.5 4-2 9-1 9 3 7.5 7.5 6 13 3 9v3l5 13v3l9.5 24.5.5-2.5-3-6-4-12v-3l-3-7v-3l-2-5v-4l-1-1v-4l-2-5v-4l-1-1v-3l-6-18-.5-7.5-.5 9.5 1 1v4l2 4v3l2 4q-1 1.5-2-1-3.6-8.4-10.5-13.5l-8-3h-8l-6 2-8.5 7.5-2 4v10q2 5.5 6.5 8.5l2 1h9l4.5-3.5q2-2.5 1-8l-3-4 1.5.5 3.5 2.5q1.8 2.2 1 7l-4.5 6.5-7 3h-3l-6-2-6.5-6.5-2-4-1-8 4-10 4.5-4.5 11-5h10q.7 1.8 4 1l5 3 .5-15.5 1-3 16-27 2.5-12.5 1.5 2.5 1 9 3 9 8 15 2 6v14l-8 23v21l1 1v6l1 1v4l1 1v4l1 1 1 7 5 15 2.5 3.5.5-30.5-1-1-.5-161.5q-4.6-.9-6.5-4.5l-5-6-1-4-13.5-13.5-9 5h-5l-4 3-7 1-4-2-1 1h-6l-5-4h-4l-7.5-4.5-1.5-5.5-6.5-5.5-2-5q1.8-.8 1-4l-3-5v-7q3.3-1.2 2-7l-1-2 3.5-6.5 3.5-2.5q.5-5.5 4.5-7.5l3.5-1.5 2.5-3.5 4-2h7q2.3-3.2 9-2l7 4h4l4.5 3.5 2.5 4.5.5-4.5 2.5-2.5 4 3h5l12-8 9-4h3l8-3 9-1 1-1h6zm1.5 6-1 1h-5l-6 2-10 6-6 7q-4 6-11 9h-7l-8-5-2 1 8 7 5 2q7 1 9-3l1 1-2 5v9l-2-1h-5l-4 2h9l2 1 1 4v3l-2-2h-9l-10 5q-3 1-1 2l10-4 8 1 4 2q4 4 7 11l1 3 1 8 1-2 4-3 5 1q4 3 6 9l8-5h8l4 2 2 4h2l1-5q3-4 8-6l5 1v2h2l2-10 4-7 7-5h11l5 3h1l-7-6-6-2-6 1-2 1 1-5 2-2h6q-2-3-6-2l-2-1-1-11v-2l8 3 7-2 9-10v-2q-5 6-12 9h-6l-4-2-8-8-5-6-8-5-9-3h-4l-1-1zm84 6-2 1-3 3-2 5 1 2 3-2 6-1-4-1 5-6zm-169 1q-2 1 2 2v2q4 4 11 7v-2q-3-5-9-6l3-1-3-2zm182 0-8 5v1q3 1 4-1 3-1 5 1l5-1-3-4zm-132 1-3 5-3-2h-3l-5 2-1 2 8 2h6l3-1 4-4v-2l-5-1zm-60 1-4 3 7 3h6v-1l-7-3 2-1zm26 2-1 2 2 3 1 7 1 1v9l-2 5-5 4h-6l-4-4v-4l5-4v5h1l2-2-1-4-2-3-3-1h-4l-4 2-5 6v8l2 4 3 2 7 3h6l8-3 4-4 3-7v-11q-2-1-1-4-2-7-7-10Zm124 1-6 4 1 1 5-1 6-3zm39 1v1h2zm14 0-1 6-2 1 4 3q1-3 3 1l1-2-1-5zm-211 2-2 1-3 5 3 6 1-2 2-1 3-6h-1l-2-1v-1zm175 0-3 4-1 6-1 1v11l3 7q3 4 9 6h11l2-1 6-7v-8l-2-4-2-3-3-1-5 2q-3 1-2 6l4 2h2v4l-3 2h-5l-4-2-5-5-1-3zm-158 3-8 3-7 8-3 8v8q2 0 1 4l4 7 7 5 12 4h8l8-3v-1l-3 1q-3 1-4-1l1-2v-4l-6 2h-6l-7-3-6-6-2-6 1-9 3-5 8-5q6-1 9 1l4 6q1 4-1 7l-3 2h3l3-4q1-7-1-10-3-4-7-6zm172 0-4 2-5 5-2 6q2 0 1 4l3 3h1l-1-2q-1-6 1-8l6-5q6-1 10 1l5 6 2 6v5l-3 7-6 6-10 4h-5l-4-2-5-5-4-10v-17l1-1v-3l-3 5-1 7-1 1v8q2 0 1 4l5 10 6 4 3 4-2-1-3 1 10 3h7l10-5 6-7 3-7v-13l-4-9q-3-5-8-7zm31 5-2 5v6h-2l1 13v-6l2-1 4-6q0-7-3-11Zm-227 1-4 5v6l3 5h2l1 1q1-5-1-5h2q-2-2-1-6l-2-2zm51 0q-2 3 0 4v11q-2 0-1 4l-7 14h2l6-8v-2l2-3v-5l1-1-1-9zm171 3-1 3 1 3h1q1-5-1-6Zm9 12-7 10-1-1h-1q-1 3 1 4l-1 2 1 1 5-4 3-4zm-236 1-1 5 1 3 5 4h4zm3 1-1 2 3 2zm64 2v1h2zm-24 8-1 1-13 1 5 1 9-1 2-1zm-40 4v4l6 4q5 1 7-1zm4 0-1 1 4 2h2zm225 1-7 3-1-2-4 5 3 1q4 1 6-1l4-5zm-164 4-10 4-5 4-1-2-3 6 1 1q5-2 9-6l7-3h8l7 3 5 7q1 2 2 1v-4l-2-4q-5-8-18-7Zm92 0-7 3-4 5-2 5 1 2v-1l7-7 7-3h7q0 2 4 1 6 2 10 7l3 1 1 1-3-8-1 2-11-7q-5 1-5-1zm-146 6v1h5zm176 1-1 1 3 3h-1l-1 2 6 4h3l-5-6 1-2q0 2 4 1l1 3 5 3h5l1-2q-4-1-6-4h-4l-1-1zm23 0-3 1-1 2 6 2h3l5-3-4-1-1-1zm-201 1q-2 1 1 2l4 2h4l4-3zm33 1-2 2-2-1-5 6 1 1 5-1 4-4v-2zm-16 1-6 5 4 1h3l4-2 1-2 1-2-6 2v-1zm47 10-1 1 3 2 4 2 6 2h4l1 1h4l1 1h5l1 1h27q1-2 6-1l1-1h5l1-1h3l1-1h3l6-2 3-3v-1l-6 2h-3l-1 1h-3l-1 1h-4l-1 1q-5-1-6 1h-11l-1 1h-9l-1-1h-11l-1-1h-6l-1-1h-4l-1-1h-3l-1-1h-3zm3 6-1 2 2 1 6 2h3l1 1 11 1 1 1h7l1 1h17l1-1h6l1-1h5l6-2h4l6-2 1-1v-2l-1 1h-4l-5 2h-3l-1 1h-5l-6 2h-8l-1 1h-11l-1-1h-7l-1-1h-5l-1-1-8-1-1-1h-4zm5 7v1l11 6 7 1 1 1h8l1 1h12l1-1h7l1-1h4l6-2 6-3 2-2v-1l-11 4-10 1-1 1h-22l-1-1h-5l-1-1-7-1zm24 11-1 137-1 1 1 31 2-3q-1-5 1-5V235zm17 1-1 123-1 1v20l1 1v6l1 1v4l2 5 1 7h1v-30l-1-1V238l-1-2zm17 3-1 28-1 1v156l2 2h1V324l-1-1zm-48 13-1 44-1 1v129h1l2-2v-89l-1-1zm-180 6-10 10-6 8-7 11-9 18v2l-2 3-4 12-1 7-1 1-1 10-1 1v11l-1 1v12l1 1v13l1 3h1q1-4-1-4v-19l1-1v-9l1-1v-6l1-1v-4l1-1v-4l2-5v-3l4-12h1l-2 6v3l-1 1q1 3-1 5v8l-1 1 1 23 1 1v7l2 3v-12l1-1v-16l1-1v-8l1-1 1-12 3-9v-3l3-9 2-3v-2l9-18 10-15zm408 0-1 2 9 13 8 16v2l3 5 5 15 1 7 1 1v4l1 1v5l1 1v7l1 1v25l1 1 1 5 1-1 1-9 1-1v-25l-1-1-1-10-1-1 1-5 2 8v3l1 1 1 8 1 1 1 10 1 1 1 17 1 1v9q1 2 2 1v-14l-1-1v-11l-1-1v-6l-1-1v-5l-1-1v-4l-3-9v-3l-4-12-11-23-14-19zm-405 1-8 13h2l-7 20-1 9-1 1v8l-1 1v15l1 1v8l1 1 1 8 7 18 8 12 7 6-13-27-3-9v-3l-1-1v-3l-1-1v-5l-1-1v-23l1-1v-6l1-1q-1-5 1-6h1q1 3-1 5v21q2 1 1 6l1 1 1 7 2 3v2l7 11q1 2 2 1l-4-7v-2l-4-9-1-8-1-1v-7l-1-1 1-4 1 3 1 6 5 10 7 9 13 10h1l-12-13-8-15v-2l-3-6-2-11-1-1v-6l-1-1v-25q2-2 1-6l1-1zm402 0-1 3 2 6v8l1 1-1 19-1 1-1 10-1 1v3l-2 6-8 16-11 14h2l12-12 6-9 7-17q-1-4 1-4v-8l1-3h1v14l-1 1v5l-1 1-1 8-4 9v2l-8 15 1 1 7-9 6-12 3-9 1-9h1v17l-1 1-1 10-1 1-2 10-8 14-8 7-2-4-4-5-6-1-1-1-7 1-7 4q-5 4-8 10l1 6 2-7 9-8 6-2h4l6 2q6 3 7 12h2l3-2 7-7 7-12 3-9v-3l1-1q-1-5 1-5v-7l1-1v-18l-1-1v-9l-1-1v-6l-1-1-1-8-4-12-2-3 1-2-1-3zm7 11v4h1q1-3-1-4Zm-417 2-2 3 1 2 1-2zm420 4q-2 3 0 5h1zm-422 1-2 3 1 2 1-2zm424 4-1 3h1zm-426 1-1 3h1zm427 2-1 3h1zm-428 1-3 6v3l-4 12-1 10-1 1v8l-1 1v13l1 1v8l1 1v4l2 5v3l8 19 7 10 8 6 7 3h8l4-2 3-3 2-5v-5l-2-4-4-4-6 1 3 6v5l-3 2h-6l-3-1-9-6-9-10-5-10-2-6v-3l-1-1q1-5-1-5v-7l-1-1v-13l1-1v-9l1-1v-5l1-1v-4l1-1v-4l2-5v-3l2-4zm264 3-2 11-6 16-1 7-1 1v5l-1 1v9q2 1 1 5l4 9 2 6v4l1 1v13l-1 1v7l-1 1v5l-2 6v4l-3 9 1 3 2-5 2-11 1-1 1-9 2-5v-5l1-1v-4l1-1v-4l1-1v-6l1-1v-37l-1-1 1-9 8 14 1 7 1 1-1 11-3 9v3l-1 1 1 2 5-16v-13q-2-2-1-5l-4-9v-2l-8-15zm-100 1-2 3v4l-1 1-1 6-7 13-3 9 1 4q3-10 9-17 1-3 2-1 1 3-1 4v14l-1 1v22l1 1v8l1 1 1 10 1 1 2 14 1 1 2 10h1l-1-9-1-1v-6l-1-1v-21l6-18v-3l1-1v-13l-1-1-2-10-6-14zm131 49-9 4-8 9 1 1 2-3 7-6 8-3 8 1 4 2q5 3 7 10v8l-2 4-4 3h-6l-1-1-2 1 5 2 6-1q5-3 7-9v-7l-4-8-3-4-7-3zm1 9-8 4q-10 7-15 20l-2 10-1 1v3l-1 1v3l-7 21-8 18-5 7h2l8-13 5-16 2-3 1-5 7-16 3-10 5-10 4-5 9-5h3l4 2 2 3 1 3-3 4 1 1q4 1 6-1l1-2q1-7-1-9l-6-6zm-178 1q-3 1-1 2l2-1zm-128 2-1 8-1 1-1 7-2 3v2l-9 13-4 8v9l2 4q3 3 8 5h9l4-2 4-6v-7l-1-3q-3-7-8-11l-1 2-2 1-5 5v3l7-4q5 1 7 5 1 6-1 9l-3 3-3 1h-4l-5-2-4-6 2-8 11-11 3-11 1 8 9 17 8 25 7 13 8 11 15 14 19 13 22 9 8 1 1 1h4l1 1h10l1 1q3 1 5-1h10l1-1 8-1 12-4 23-13 2-2v-1l-14 9-10 5h-2l-9 4-7 1-1 1h-4l-1 1h-22q-1-2-4-1l-8-5-8-2-11-5-2-2-10-5-12-9-17-16-5-7-6-12-4-14-13-25-1-6-4-11v-3l-1-1v-4zm288 2-5 9-1-2-1 7-4 12v4l-3 9v3l-1 1v3l-2 4 1 3 7-22 3-15 3-9 3-5zm-241 7-1 1q-5-1-6 1l-6 6-2 5 1 1 1-2q3-6 10-8h8l6 3 3 5q1 2 2 1l-2-5-6-6zm2 9-5 2-3 3 6 1 3 2 4 7v9l-4 7v1h3l5-3 3-3 3-7v-6l-4-8-5-4zm397 6-2 9-1 1 1 2 6-2zm-128 13-1 1-7 1-9 5-10 11-8 15 1 1 6-9 13-12 10-4 6 1 6 6h1l-1-2 2-1 4 6h1l-1-6 2-1v-1l-4-3-6-1-2-1 4-2 6 1 6 3 8 10 3 9v10q-2 0-1 4l-6 12-8 8-10 6-15 5q-5-1-5 1h-8l-1 1q-4 1-4-1l-13 1h8l1 1h13l1-1h6l5-2h3l12-5 8-5 11-11 3-5 3-9v-13l-4-9-3-4q-5-6-12-9l-7-1-1-1zm-200 1-10 5-8 9-3 7v6l-1 1 1 2v6l1 3 6 11q7 9 18 15l10 5 9 3h4l1 1h13l-11-1-1-1h-4l-1-1h-3l-6-2-10-5-8-6-11-12-4-10v-14l4-8 7-7 10-4 7 1h-4l-7 3-6 7 1 1 5-5 8-3 4 1-6 1-7 5 1 1 9-5h9q0 2 4 1l8 4 5 4v-1q-4-5-9-8l-3-2 1-1 5 3 11 12 9 16q1 2 2 1-5-14-13-23l-5-6-10-7-9-3zm105 2-5 15-6 12-8 11q-7 8-17 14l-15 6h-13l-9-4-9-8-4-8-1-7-1-1v-4l2-6q2-2 0-3h-6l-3 1-4 4q-1 4 1 6h2q2 1 1 2h-6q-1-2-4-1l-10-8-5 8v6q2 0 1 4l3 6h1l-1-3 2-5 3-3v1l-1 2v5l3 4 1-10 5-5 1 1-2 2-2 5v4l3 7 8 7 8 4 7 1 1 1h15l1-1 10-1 15-5 14-8 4-4 1 1q2 0 1-3l4-4 7-11q1-3 2-1l-13 21-8 10q-13 14-29 24l-22 10-7 1-1 1h-4l-1 1h-7l-1 1h-10l-1-1h-8q-1-2-5-1l-1-1h-3l-1-1h-3l-6-2-8-4-3 1 7 3 9 3 11 2 1 1h6l1 1h18l1-1 11-1 4-2h3l6-2 18-9 21-16q14-12 24-28l4-8 3-13 3 16 5 9 8 10q16 19 38 32l12 6h2l9 4 7 1 1 1h5l1 1h8l1 1 17-1 1-1 9-1 12-4 3-2h2l10-5q2-1 1-2l-12 6h-2l-3 2-9 3-8 1-1 1h-6l-1 1h-18l-1-1-11-1-1-1h-3l-9-3-14-7-15-11-21-21 2-1-6-6-11-16 1-2 10 15 13 11 10 5 15 5q3-1 4 1h7l1 1 14-1 5-2h3l8-4q6-4 9-12 1-5-1-7l-6-6 1-2 6 3 4 6 1 5 1-1 2-6 1 6 5-10 1 3 1-3v-10l-1-2-2 5-2 2h-1l1-1v-6l-1-1-1 4-3 5-1-2-5 3-3-1q-4-2-5-7l-3-4q-6-1-7 2t1 4v8q-2 0-1 5l-3 8-4 6-9 7-6 1-1 1h-7l-1-1-8-1-14-7-8-6-13-14-9-17v-2l-4-7v-2zm-223 4-1 4h2v-3zm435 0-3 2-2 2-1 5-5 10v2l-5 9-9 13-7 8-10 9-9 6-9 4-8 1-5 7q-5 4-11 7l-7 1-1 1h-8l-1 1-16-1-1-1h-4l-1-1h-3l-9-3-13-6-17-11v-1h13l1 1q3 1 4-1h13l1-1h4l1-1 10-2 12-6 9-8v-2l-6 6-10 6-15 5q-5-1-5 1h-8l-1 1h-16l-1-1h-9l-11-10-2 1 15 13 17 11 8 4h2l3 2 9 3 7 1 1 1h5l1 1h17l1-1h6l1-1 7-1 9-3 19-9 18-13 9-9 10-13 9-16v-2l2-3v-2l2-3 3-9zm-254 4-1 4h1zm133 0-8 3-7 5q-10 9-16 22l1 1 8-13q8-9 20-14h8l2 2h1l-4-5zm-186 1-6 2-5 4 1 1 2-2 7-3h8l8 3h1l-3-3-6-2zm2 3q-1 2-5 1l-7 5 1 1 5-4 3-1h11zm-14 1-2 3q1 1 2-1zm23 1v1h2zm282 0-2 2-1 7-1 1 1 2 2-4 2-7zm-389 1-1 2h2q1-1-1-2Zm239 0-1 3h1zm132 0-1 4h1zm3 0-3 14-4 8-5 6v-3l-5 4h-2l3-2v-1l-3 1q-5 1-6-1l2-1v-1l-3 1-3-1-3-2q4-2 1-4l-1 2h-1l-2-2-1 1 1 8 3 5 8 4h11l6-3q4-4 7-10l1-6 1-1v-6l1-1v-7l-2 5-1 9-5 12q-3 4-8 6h-10q-6-2-9-6l1-2 7 6h10l4-2 6-7 2-6v-3l1-1v-4l1-1zm-289 1-3 4 1 1 2-3zm295 1-1 8-1 1-1 8-5 11 1 1 4-7v-3l2-4v-5l1-1zm-370 1-1 3h1zm112 0-1 2q1 2 2 1zm116 0-2 3 1 2 1-2zm-237 1q-2 1 1 2v-1zm5 0v5q2 3 3 0l-1-1zm104 0-1 2 5 7 5 4 8 5h2l-3-5q-6-9-16-13Zm299 0-6 7-2 5 2 2 4-2 7-7v-2zm-257 1-1 3h1zm231 0-1 6-2 5 1 3 2-7zm-409 1-4 3 2 4 6 4 3 1h2l-1-3zm302 0-1 11q-2 0-1 4l-5 10-5 4-7 3-13 1 4 1h9l9-4 6-7 4-10zm94 0-1 5h1zm-366 1-1 2 2 3h1zm82 0-2 2 4 3h1zm146 0-1 3h1zm-231 1q-2 2 0 4l3 2zm11 0-1 3h-3l1 3 4 4-3-2-1 2 7 5q2 1 1 2l-4-3-2 1 4 2q2 1 1 2l-6-5-2 1 7 6-1-1-2 1 7 4 6 1 1 1h8l8-4 4-6q1-7-1-9l-4-4h-2l2 5v5l-3 5-7 4h-8l1-2 2 1h3l6-2q2-1 1-2l-6 2h-4l4-1-3-2h-4v-1l-6-4v2l-3-2h2l-6-7 3-1zm224 0-2 3 1 2 1-2zm34 0-3 2-2 3v1l6-5zm-144 1-1 2q1 2 2 1zm25 1q-2 3 0 5h1zm80 0-1 3h1zm-77 1-1 3h1zm116 0-3 4-5 3q-2 1 1 2l3-2 1 1-5 4-3 1q-3 1-1 2l8-4q4-2 5-7l-3 1 3-4zm99 0-3 6 1 2 2-4zm-362 1-1 2 3 2zm-37 1-1 2 4 7 7 6 9 4h2l-9-10q-8-3-12-9Zm370 1-1 3q1 2 2 1 1-3-1-4Zm74 0-4 4-12 7-6 7 1 2 6-1 3-2q8-6 12-15zm-408 1-1 2 3 2zm104 0-1 5q2 0 1 4l3 6 7 6 9 4h8l4-1-12-1-9-4-6-5-3-6zm2 0q-1 3 3 6l-1-1-1 2 7 6 11 5h2l-3-3-4-1-3-2 1-1 3 2h2v-1l-5-3zm120 2-5 7v-4l-4 7h3l6-8zm39 1q-5 7-15 10l5 1-10 4 1 1q1-2 6-1l6-3 7-8zm-270 1-1 2q1 2 2 1zm154 0-1 2q1 2 2 1zm105 1v1h2zm-102 1-2 2 3 3h1zm205 0-1 4h1zm-360 1-1 2 3 2zm134 0-1 2q1 2 2 1zm224 0q-3 1-1 2h1zm-335 1v1h2zm163 0-7 12 1 1 1 10h2v-4l1-1v-5l1-1v-5l1-1zm167 0-2 2h3v-1zm-327 1v1h6zm86 0-1 2 2 3 5 4 6 3q3-1 5 1 4 1 5-1-15-2-22-12Zm80 0-1 6q2 1 1 6l2 6v4l2 1 1-8 1-1v-3zm56 0-2 3q1 1 2-1zm-112 1-1 2 5 3zm-165 1-1 3 4 6 12 10 6 2h6l1 1v-1l-5-6-15-8-7-5zm292 3-5 4-6 2-8 1 1 1h7q0-2 4-1 4-2 7-5zm-256 1-1 1 4 3 9 4h7l-5-1-6-2zm161 0-5 6h1l4-4zm237 0-6 5-13 5-6 7v1h5l3-1 9-6 9-10zm-263 1q-2 1 1 2h1zm72 5-1 1 4 3h1zm-37 1-5 9 1 15 1 1v8l-3 7 1 2 2-4 4-12 1-7 1-1v-6l-1-1v-3zm184 0-3 4h2l1-2zm-159 1-4 7v13l7 20h1l-2-6v-3l-1-1 1-13 1-1v-9zm-146 1-1 1 5 4v-1zm103 0-3 3-10 5-6 2h-3l-1 1h-3l-1 1h-7l-1 1h-10l-1-1h-6q-1-2-4-1l-9-3-8-5-2 1 13 7 9 3h4l1 1h15q1-2 5-1l1-1h3l12-4 3-2 2 1 8-7zm185 1-1 2-3 2-5 6-2 5 1 1 3-3 8-12zm7 0-5 6 1 1 4-5zm3 0-2 3q1 1 2-1zm-28 1-9 5-11 13-10 8-13 5 5 1h9l1-1q4 1 6-1v-1l-3 1h-2l8-4h3l6-7v-2l-3 4-2 1-3 3h-1l6-8 10-10 6-3v-1l-4 1-6 4-5 6-9 9h-1l7-9 10-10 7-3zm-280 1-1 3 5 6h1l-1-5zm-10 1-1 4 6 13h1l-4-8zm5 0-1 3h1zm294 0-4 2-8 8q-3 10-10 16h2q7-5 10-14 1-3 2-1l-4 8-4 5-2 1 1 1 2-1 5-5 7-15 4-4zm17 0-2 3q1 1 2-1zm3 0-2 3q1 1 2-1zm-376 1v3l4 5 7 5 10 4h11l1-1-9-6-14-4zm82 0q-2 2 0 4 1 2 2 1zm338 0-10 6-17 5-4 4v2l3 1 10-2 8-4 10-10zm-376 2-1 3h1zm4 0q-2 3 0 5 1 2 2 1zm15 0q-2 3 0 5h1zm-10 1q-2 3 0 5h1zm314 0-2 3q1 1 2-1zm-197 1-3 3h1l3-2zm-108 1-1 4 5 9h1l-4-7q1-5-1-6Zm126 1-4 7v17l-1 1v4l-2 6q-6 13-16 22h2l17-18 4-7 2-6v-3l1-1v-15l-2-6zm43 0-3 7v13l1 1v4l2 6q6 12 17 21h1l-8-12-4-10q1-4-1-4v-6l-1-1v-12l-2-5zm-166 1-1 3 4 8 4 3v-3l4 4h3l2 2-5-11-1-2h-3l-4-2-1 1 8 8-6-6-1 1zm101 0-3 3h1l3-2zm44 4-2 3-1 7-4 9v2q-4 10-11 18-9 10-20 18l-14 7-8 3 3 1h4l3-2h2l20-12 11-11 6-9 7-13 1-6 3-6 1 3v3l2 6 4 8 13 18 11 9 9 6 13 6h5v-1q-17-6-28-16l-12-11-9-13-4-9-4-12v-3zm169 1q-3 1-1 2l2-1zm-370 4-1 1 11 9 7 3q4-1 6 1l13-1 4-1-5-4-7-1-1-1h-6l-1-1h-6zm168 0-4 7-1 8-1 1v4l-3 9-5 10-7 9-4 3-4 4h1l5-2 12-9 7-9 4-8 2-6v-4l1-1v-8l-1-1q1-5-1-6zm65 0-2 3v15l1 1 1 6 5 10 7 9 8 6 8 5h1l-3-3q-10-9-16-22l-4-12-1-8-3-8zm168 0-8 4q-4-1-4 1h-6l-1 1h-7l-9 4-2 3 4 1h11l1-1h3l6-2q8-4 13-10zm-38 1q-3 1-1 2l2-1zm-3 2q-3 1-1 2l2-1zm-312 4-1 1 4 2h2zm153 2-1 5-1 1v12l-1 1-1 12-4 12-2 11-1 1v4l-1 1v5l-1 1v6l-1 1v10h-1l-10-13-13-13-4-2h-3l-1 2 9 5q15 12 23 32v2l-10-13-18-15-17-7h-13q-1 2-4 1-9 3-14 11l1 1 6-6 11-4h11l1 1 6 1 7 3 11 7 14 15 4 6 7 14 4 12h1q1-5-1-5v-7l-1-1v-13l-1-1 1-27 1-1 1-14 1-1v-5l1-1v-5l2-6v-5l1-1 1-6 1 3v6l1 1 1 12 1 1v6l1 1 1 16 1 1v13l1 1v17l-1 1v10q-2 1-1 6l-1 1 1 4 3-10 2-3v-2l12-20 18-17 12-6 6-1 1-1h14l10 4 6 6-1-3-6-7-7-3q-5 1-6-1l-11 1-12 4-9 5-9 7q-9 8-15 19-1 2-2 1l5-12 11-15 9-8 9-5v-2h-4l-7 4q-12 10-20 24h-1zm-45 1-4 4-5 11-1 5-5 10-5 7q-7 8-17 13v1l8-2 12-7q7-6 12-14l4-8 1-6 1-1v-11zm90 0-2 2v9q2 0 1 4l5 12 4 6 13 11 15 7h1l-8-6q-9-7-15-16l-7-14v-2l-4-9zm-237 4q-2 1 1 2l7 5 6 3 7 1 1 1h12q0-2 5-1l8-4-7-3H78l-1-1-11-1zm383 0-7 3q-5-1-6 1h-14l-1-1h-7l-1 1q-5-1-6 1l-2 3 8 3q4-1 6 1h7l1-1h6l3-1 8-4 6-5zm-252 4-6 7-6 12-9 12-10 8-10 5h-3v1l11-1 6-2 11-6 12-13 5-11 1-10zm121 0-2 2v4l1 1 1 7 6 11 15 13 14 6 9 1 1 1h1l-1-2h-3l-8-4-7-5-12-12-11-19zm-79 3-3 4 1 1 2-3zm39 1-1 2q1 2 2 1zm-97 2-12 13q-7 8-16 14l-8 4-9 3-5 1 3 1h10l1-1 9-1 14-7 10-11 3-6 1-9zm99 1-1 2q1 2 2 1zm54 0-1 5 1 3 5 9q6 8 16 13l14 5h16l-12-3q-10-4-17-11l-11-12-7-8zm-212 1-1 1-10 1-1 1h-6l-1 1H82l-6-2-3 1 5 3 12 5h16l12-5 4-5zm114 0-2 3q1 1 2-1zm16 1-2 2q-1 4 2 6l1-3zm12 0v8l1-3q1-4-1-5Zm128 0-3 2 5 4 12 4h14l1-1h3l6-2 7-4 2-2v-1l-6 2h-24l-1-1h-7l-1-1zm-110 1-1 2q1 2 2 1zm-120 1q-12 6-20 14l-12 6-7 1-1 1-12 1 8 2h18l1-1 6-1 11-6 7-7 3-6v-3zm190 0-1 4 3 5q6 7 15 12l11 4q4-1 6 1h9l1-1h4l3-1-5-1-1-1h-5l-9-4h-2l-11-7-11-9-4-2zm-211 1-11 5h-2l-5 3-10 2-1 1-19 1 17 5h12q1-2 5-1l13-7q4-3 6-8zm231 1v3l11 9 12 4h13l5-2h3l8-4v-1l-3 1h-16q-1-2-5-1l-22-9zm-124 3-1 4 3 7 1-2v-4zm20 1-4 5 1 7 2 1v-7l1-1zm-23 7-1 2 3 7h1v-3zm29 0-6 10 1 5 6-12zm-33 4-1 2 2 2 3 7q1 2 2 1l-1-5zm-6 3-1 3q6 5 10 14h1v-4l-7-10zm44 0-9 12 1 6 6-12 4-5zm-50 5-2 2q10 7 15 19h1q1-5-1-6l-8-10zm57 0-2 1-12 15-1 5h2l4-8 10-10v-2zm-64 5-2 2 5 3q10 8 16 21h1v-5l-4-6-11-12zm71 0-10 8-10 13 1 5 7-11 14-13zm-107 4-1 1-7 1-6 3-8 9 1 11 3-9 10-9 9-3h11l8 3h2l-12-6zm138 0-1 1-8 1-7 3v1l6-1 1-1h17q0 2 4 1l7 4 4 5 3 6v6q1 1 2-1v-10l-2-4q-4-7-12-10-4 1-4-1zm-113 8q-2 1 1 2h1zm27 43-1 2q1 2 2 1z" opacity=".933"/><path stroke="#000" d="m251.5 133 9 1 10 4 11.5 10.5 4 7 2 6v6q1.8.8 1 4l-1 1v6l-4 9-8.5 9.5-9 5-6 1-1 1h-13l-13-5-9.5-8.5-4-7-2-6q1.2-6.2-1-9l1-1v-6q1.8-.7 1-4l3-6 11.5-12.5 8-4 3-1h6zm-4.5 7q-1 2-4 1l-7 4-8 8-4 9q1 4-1 6l1 9 4 9 11 9 9 3h12l10-4 4-3 6-8v-2l2-3v-4l1-1-1-11-5-10q-4-7-11-10l-6-2z" opacity=".933"/><path stroke="#000" d="m250.5 142 10 1q9 3.5 14.5 10.5l5 10v12l-4 9-5.5 5.5-10 5h-14l-8-3-5.5-4.5-5-7-2-6v-10l3-8 8.5-9.5 8-4q4 1 5-1Zm-1.5 2-10 4-7 7-4 8v6l-1 1q2 1 1 6l3 7 8 7 11 4h7q0-2 5-1l8-4 6-7 3-8v-8l-2-6-4-6-9-8-6-2z" opacity=".933"/><path stroke="#000" d="M248.5 147h9l3 1 10.5 7.5 5 9v9l-3 7-4.5 5.5-7 4q-3.3-.7-4 1h-9q-.7-1.7-4-1l-5-3-6.5-6.5-3-8v-6l3-8 6.5-7.5zm1.5 1-7 3h5l2 2h2l3-3h5l-3-2zm11 2-1 1 2 2v2l3 2 4-1q-3-5-8-6Zm-19 1-5 5 4 1 1-1 1-4zm30 9-1 3h-1v2l-1 2 5 2v4h1v-7l-1-3zm-38 1-2 3q1 4-1 6l1 1 5-4-1-4zm17 3q-4 1-3 7 2 3 8 2 3-1 2-6-1-4-7-3Zm-18 10-1 2 5 8h2l-1-1q2-2 1-6l-2-1-1-1h-1zm41 0-7 4q-1 3 1 4l-2 3h2q4-3 6-9zm-13 8-2 1-2 3-3 3h7l4-2-1-1zm-17 1q-2 3-3 1l-2 1 3 2 8 3h2l-2-4q-1-4-6-3Zm58.5 125 .5 54.5h-1q-1.7-1.8-1-6l-7-18v-12l7-13zm-99 1 7.5 15.5 1 3v7l-1 1-1 6-4 8-1 8-1 1-.5 8.5z" opacity=".933"/><path stroke="#000" d="M.5 0 244 .5 237.5 4l-2-1q-.7 1.8-4 1l-6 5-5 1-3.5 3.5-2.5 4.5q-3.9.6-5.5 3.5l-1.5 8.5-4.5 3.5v8q-4.5 2.5-3 11l1 3-1 1v7l3 5q-2 1-1 5 1.8 5.2 6 8 .9 7.1 5.5 10.5l6.5 3.5 4 5v2l-5 10-2 2-7 15-2 2 1.5.5 7-4 15-5 11-1 1-1h17l1 1h6l1 1h4l1 1 7 1 16 8 .5-1.5-3-4-7-15-2-2-4-8v-2l5.5-6.5q4.8-.2 6.5-3.5l2-5v-3l1.5-1.5 3.5-2.5 2-4v-5l-1-2 4-7v-6l-2-3v-11l-4-6-1-7-3.5-4.5-2.5-1.5q-.9-6.1-4.5-9.5l-3-2-5.5-.5-3.5-4.5q-2.8-2.2-9-1L261 .5 504.5 0l.5 355.5h-1v-9l-1-1v-6l-1-1-1-10-1-1-1-7-6-18-9-18-7-11q-10.4-15.1-24.5-26.5l-11-9-3-1 .5 1.5 6 12 2 6v3l1 1 1 11 1 1v16l-1 1v7q-2 1-1 5l-5 15q-4.4 10.1-11 18l-21 22-5 12q1 4-1 5v8l1 1 1 7 3 6 7.5 8.5.5-1.5-5-8q.8-3.2-1-4v-11l1-3 6.5-6.5 6-2h4q.8 1.8 4 1l3.5 2.5 2 5v3q-2.5 5-5 0l1-2q-1-1.5-2 1l-1 4 4.5 5.5 7 1 6-2 10.5-8.5 7-11v-2l3-6 1-7 1-1v-6l1-1v-28l-1-1-1-13-1-1-3-15-5.5-13.5-.5 2.5 4 10 1 8 1 1v6l1 1v9l1 1v18l-1 1v7q-2 1-1 5l-1 1v3l-3 9-7 12-7.5 7.5-3 2h-2q-.5-9-7-12l-6-2h-4l-6 2-8.5 7.5-2.5 7.5-.5-6.5q2.7-5.8 7.5-9.5l7-4 7-1 1 1 6 1 4.5 4.5 1.5 4.5 8.5-7.5 8-14 2-10 1-1 1-10 1-1v-17h-1l-1 9-3 9-6 12-9.5 12.5.5-1.5 9-18v-2l4-9 1-8 1-1v-5l1-1v-14h-1l-1 3v8q-1.7.8-1 4l-7 17-6 9-12.5 12.5-2 1-.5-.5 4-4 11-16 7-17 1-8 1-1v-5l1-1 1-19-1-1v-8q-2-1-1-5l-2-4q1-1.5 2 1l8 12v2l3 5 5 15 2 11 1 1 1 12 1 1v23l1 1 .5 17.5 1-5 .5 5.5 2 6 14 22 1 8-3 7-3.5 3.5-5 2h-5l-7.5-4.5-2-4v-6l5.5-6.5q2.2-1.8 7-1 3.5 2.5 4.5 7.5l-.5.5-4-4q-7-1.5-8.5 2.5-1.7 1.8-1 6l3.5 4.5q2.5 2 8 1l4.5-3.5 2-4v-5q-2-5.5-6.5-8.5l-4.5-3.5-3-5-.5-14.5-1.5 10.5-2 6q-3.8 9.7-11.5 15.5l-6 4-8 3h-10q-5.5-2-8.5-6.5-2.3-3.2-1-10l5.5-6.5 4.5-1.5-6.5-.5-6.5 5.5-2 5v8l3 7 2 2v6q-2 1-1 5l-3 6-2.5 2.5-4 2h-5l-4.5-3.5q-1.7-1.8-1-6l2-5 2-2-2.5-.5-7.5 4.5-5 9v12l6 10-14.5.5-6 3-23 23-12 7h-5l-9-3-3-2h-2l-8.5-4.5 7.5-.5 1-1h6l1-1h4l1-1h3l6-2 18-10 10.5-10.5 6-11 1-8 1-1v-5l-1-1v-5l-1-3-4-8-9.5-9.5-10-5q-4 1-5-1h-9l-1 1h-4l-3 2h-2q-8.6 4.9-14.5 12.5l-4 6-10 21-8.5 9.5-4 1-.5-.5 2-2q.8-4.7 4-7v-2l3-5 2-7 3-5v-2l4-8 8-24 6-10 3.5-3.5 7-3q2.5 1 1 2l-1.5.5q-1.8 2.2-1 7l5.5 6.5 6 2 6-2 6.5-6.5 3-8v-5l-1-1-1-6-8.5-9.5-3-2-6-1-1-1h-8l-9 4-2 2-.5-1.5 1-1v-13l-4-10q-8-9-13-21l-2.5-13.5-1.5 2.5-1 9-4 12-3 5v2l-5 11-1 11q2.2 1.3 1 6l4 9 3 9v3l1 1v20l-1 1v9l-1 1v5l-1 1-1 8-3 9-6.5 11.5-.5-194.5q5.2-1.3 8-5l2.5-3.5 2.5-1.5 1-5 12.5-14.5 12 7h5l5 3h6l1-1h7l6-4 5-1 5.5-4.5q.6-3.9 3.5-5.5l5.5-4.5 2-6-1-2q3.7-3.8 4-11l-2-4v-9L361.5 141l-13-7h-7l-6-2q-1 2-5 1l-6 3-7 6-7-3h-5l-7 3-7 5-3-1-3.5-3.5.5-4.5h2l5 3h6l.5-.5-4.5-4.5-11-6-6-2-8-1-1-1h-4l-1-1-15-1-1 1h-6l-1 1h-4l-1 1h-4l-8 3h-3l-9 4-12 8h-5l-4-3-2.5 2.5-.5 4.5-5-7q-1.8-1.7-6-1l-7-4h-6q-2.6 3.4-10 2l-6.5 4.5-.5 1.5q-4.6.9-6.5 4.5l-1 4-2.5 2.5-2.5 1.5-2 6q2.2 1.3 1 6l-2 2v7l3 5v3q-2 1 0 2l1 4 5.5 5.5 1.5.5q-.6 4.1 1.5 5.5l7 4h4l5 4h6l2-1q1.7 2.8 7 2l7-4h5l9-5 13.5 13.5 1 4 8.5 9.5 3.5 1.5v161l1 1v30q-1 1.5-2-1l-6-17v-3l-2-5v-4l-1-1v-4l-1-1v-6l-1-1v-21l8-23v-14l-2-6-8-15-3-9-1-9-1.5-2.5-2.5 12.5-16 27-1 3-.5 15.5-5-3q-3.3.8-4-1h-10l-8 3-7.5 6.5-3 6-1 8 3 8 6.5 6.5 6 2h3l7-3 2.5-2.5 2-4v-5l-3.5-4.5-2-1-.5 1.5q4.5 1.5 3 9l-2.5 3.5-3 2h-9l-6.5-5.5-2-4v-10q2.3-6.2 7.5-9.5l9-4h8l8 3 6.5 6.5 4.5 7.5.5-2.5-1-1v-3l-3-9v-9l1-1v-4l3-9 7-13 1-6 1-1v-4l1.5-2.5 1.5 10.5 6 14 2 10 1 1v13l-1 1v3l-6 18v21l1 1v6l1 1v5l1 1 1 7h-1v-3l-4-12v-4l-1-1v-4l-2-6-1-10-1-1v-8l-1-1v-22l1-1v-14q1.8-.7 1-4-1-1.5-2 1l-9 15-1 3v7l6 18 1 8 1 1 1 8 1 1v4l5 15v3l4 12 2 3 1 5 2 3v2l4.5 7.5q1.3-2.2 2.5.5l1 3-1.5.5-4.5-5.5-10-23-4-12v-3l-10-30-4-8-7.5-7.5-9-3h-4l-9 3-5.5 5.5-3 7v3l4.5 8.5q3 3 9 3l3-1 3.5-3.5 1-4-3.5-4.5h-3l-3.5 3.5q-.6 4.1 1.5 5.5l1.5-.5q-.7-3.7 1.5-4.5l2.5.5q.8 4.8-2.5 5.5h-6l-4.5-3.5-2-5h1l2.5 4.5 1.5-.5-3-4v-3l3-4-2-1 6.5-4.5 3-1h6l7 3 6.5 6.5 8 12v2l2 3 4 21 6 18 2 3v2l3 5v2l9 13-1.5-.5-2.5-1.5-6-9-8-18-7-21-1-7-4-12q-3.6-8.4-10.5-13.5l-6-3h-8l-5.5 3.5 1.5.5q2.6-3.4 10-2 7.4 2.6 11.5 8.5l8 16 9 30 7 15v2l5 9 4 4-2.5.5-9.5-8.5-12-21-10.5-11.5-12-8-6-2h-3l-1-1h-9l-11 4-8.5 7.5-6 12q.7 3.3-1 4v9l5 14q5.7 9.8 14.5 16.5l7 5 15 7h3l5 2 15.5.5-9.5 5.5h-2l-9 4-8 1-1 1h-9q-.8 1.8-4 1l-1-1h-8l-3-1-5.5-4.5-6-13h1q3.1 9.9 10.5 15.5l1.5-.5-7-8-5-13-4.5-5.5-4-2h-4l-4.5-4.5 5-9 1-6q-1.7-.8-1-4l-3.5-5.5-4-2h-7l-.5 1.5q2.6 1.4 2 6l-3.5 2.5h-4l-3-1-5.5-4.5-4-7-1-6-1-1 8.5-2.5 10.5-9.5 4-9 1-11q-2.2-1.2-1-6l-4-9-9.5-10.5-7.5-6.5-11-15-5-11-3-9v-4l-1-1-2-21 1-1v-11l1-1 1-9 3-9 6-11-1.5.5-10 7L36 263.5l-13 18-11 21-3 10-2 3v3l-4 12-1 10-1 1-.5 8.5zM204 309v58-8l1-1 1-8 4-8 1-6 1-1v-7l-1-3zm271 32-1 9h1zm-312 4-2 1v1l7-1zm311 5-1 6h1zm-1 6-1 5h1zm-1 5-4 12-6 10-7 7-9 4h-8l-4-2-1 2 7 3h6q0-2 4-1l9-5 7-9 6-16zm-40 28-1 2q1 2 2 1zm-319 49-3 2 11 3 5 7 5 10 9 7 5 2h4l1 1h6l-1-2h-5l-7-3-4-3q-4-10-11-16l-9-7zm6 5-1 2 3 3 9 18q4 6 13 9h2l-5-3-7-6-9-17z" opacity=".012"/><path stroke="#000" d="m250.5 0 4.5.5-4.5.5zm-6 4q5.3-1.2 6.5 1.5l.5 1.5 2.5-.5.5-2.5h6l5.5 5.5.5 1.5 2-3h4l3.5 3.5 1 4-1.5 2.5-2.5-1.5-1.5-2.5-2 1-2-4-5 2-9-5q-.7 1.8-4 1l-6 4-3-2-1.5.5q1.1-5.4 5.5-7.5Zm-9 3 2.5 1.5q.8 4.8-1.5 6.5l-3-1-2 3-2.5-1.5v-4l3.5-3.5zm-13 6 2.5.5 2 6-1.5 2.5-2-1-4.5 6.5v2q-3.4 3.1-4.5 8.5l-1.5.5-1 2-.5 6.5-3-1-.5.5 2 2 1 3v5l-2 1 2 1-2 1 3 4 1 6 1 1-1.5.5-4.5-2.5 2-1-5-3-2-6 3.5-2.5 2 1 .5-.5-5-5-1-4 2.5-3.5 4 1 .5-.5-2-2q-2-2.5-1-8l1.5-2.5 5 2 .5-1.5q-3.2-2.3-2-9 .5-2 3.5-1.5l3 4 .5-8.5zm58 1h3l3.5 3.5q1.8 2.2 1 7l-1 2 1.5-.5 3-1 2.5 2.5 1 7q-1.7.8-1 4l1.5.5 2-1q3.8 2.3 2.5 9.5l-4 6 2.5.5 2-1 .5 7.5-7 8 4 1 1 3-3.5 5.5-10 4-.5-1.5 3.5-4.5q4 .5 4.5-2.5l2-3-4-2q2-1 1-5l1.5-1.5 2.5-1.5-.5-4.5-2 1-.5-7.5q2.7-.7 2-5l-1.5-2.5q-1.2 2.3-2.5-.5l-1-3v-7l-1.5-1.5-2 1-.5-1.5 1-2-1.5.5-1.5-1.5-1-5-1.5-1.5-2.5-.5z" opacity=".012"/><path stroke="#000" d="M245.5 15h14l1 1 6 1q11 4.5 17.5 13.5l6 12q-1 4 1 5v15h-1v-15l-1-1-1-6q-4.5-11-13.5-17.5l-7-4-6-2q-4 1-5-1h-9l-1 1-7 1-8 4-7.5 6.5-7 11-2.5 10.5-.5-4.5 5-12L229.5 22l9-5 6-1z" opacity=".012"/><path stroke="#000" d="M246.5 23h11l1 1 6 1q8.4 3.6 13.5 10.5l5 9 1 8 1 1v6q-2.2 1.3-1 6l-4 9-7.5 8.5q-2-.5-1.5-3.5l4-4 5-9q-.7-3.2 1-4v-14l-4-9-7.5-7.5-11-5h-13l-9 4-8.5 8.5-4 10v13l4 10 7 8-1.5 2.5-5.5-4.5-5-8-2-6-1-10 1-1v-6l5-11 8.5-8.5z" opacity=".012"/><path stroke="#000" d="M250.5 33h4l1 1 7 1 8.5 7.5 4 10v8l-3 8-4.5 5.5-.5-1.5 5-7 2-10-4-12-5.5-5.5-6-3h-11l-7 3-5.5 5.5-3 6q.8 3.3-1 4v6l3 8 4 5-.5.5-3.5-3.5-3-5q.8-3.2-1-4v-9l2-6 7.5-8.5 6-3q4 1 5-1Z" opacity=".012"/><path stroke="#000" d="M249.5 41q11.7-.7 15.5 6.5l2 4v10l-3.5 4.5q-1.8 1.7-6 1l-2.5-1.5q-1.6-8.1 2-11l-7.5-.5-.5 2.5 1 1v7q-1 3.5-6.5 2.5l-4.5-3.5-2-5v-5l2-5 5.5-5.5zm-36 10 .5 7.5h-1zm1 10 .5 3.5h-1zm75 4 .5 2.5-3 6v2l-3.5 4.5.5-1.5 4-8zm-83 4 9.5 6.5 2.5 5.5 1.5.5-2.5.5-3.5-1.5 3-1-5.5-.5-3.5-2.5-3-6zm44 0q10.2.8 14.5 7.5l16 33 9 14 1 4-.5.5-2.5-2.5-14-26-2-2-8.5-18.5-.5 2.5 5 15 2 3v2q4.9 11.6 13 20l-1.5.5-9.5-13.5-7-14-4.5-13.5-.5 3.5 1 1v4l1 1 1 8 3 9 5 10-3.5.5-11-38-.5 4.5 1 1v11l1 1v11l1 1v6l-1.5.5-1.5-3.5v-9l-1-1-1-19-1.5-2.5-.5 12.5-1 1v9l-1 1v7l-1.5 4.5-1.5-.5 1-17 1-1v-14l1-3h-1l-2 10-1 1v4l-2 4v3l-3 9-3.5 6.5-3.5-.5 8-17 4-20h-1l-3 10-7 15-11.5 16.5-1.5-.5q8.7-9.3 14-22l6-19h-1l-9 19-5 7-8 16-4.5 4.5.5-1.5 3-7 6-9 15-31 5.5-6.5zm32 12 .5.5-5.5 5.5-.5-.5zm6 1q3-.5 3.5 1.5l-1 3-4.5 4.5h-2l-3-2-.5 1.5q1.8.8 1 4l-2.5 3.5-3.5-5.5v-3l5-1-1-2 6.5-1.5 1.5-1.5zm-76 1h5l7.5 3.5.5 1.5 3.5 2.5-1 5-1.5 1.5-2.5-.5q-1.7-1.8-1-6l2-2-.5-.5-4 2h-3l-5.5-5.5zm37 47h7l1 1h4l9 3 8 5 5.5 5.5 7.5 8.5 4 2h6q9.3-4.2 15-12l.5.5-3 3q-3.4 7.1-9.5 11.5l-7 2-8-3 .5 1.5 1 11 1.5 1.5h4l4.5 2.5-1.5.5-1-1h-6l-1.5 1.5-1 5 1.5-.5 6-1 6 2 12.5 8.5-1.5-.5-10-5h-11l-6.5 4.5-4 7-2.5 10.5-1.5-.5-.5-1.5-5-1q-4.8 1.7-7.5 5.5l-1.5 5.5-1.5-.5-2.5-3.5-4-2h-8l-8 5q-1.1-6.4-6-9l-5-1-3.5 2.5-1.5 2.5-.5-8.5-1-3q-2.5-6.5-7.5-10.5l-4-2-8-1q-.7 1.8-4 1l-7 4-.5-.5 2.5-2.5 10-5h9l2 2 .5-.5v-3l-1.5-3.5q-3.2-2.3-10-1l-4 2q-1.5-1 1-2l6-2h5l2 1 .5-9.5 2-5-1.5-.5q-1.9 4.1-9 3l-5-2-7.5-7.5 1.5-.5 8 5h7q7.5-3 11.5-9.5l5.5-6.5 10-6 6-2h5zm2.5 3-1 1h-6l-3 1-8 4-12 13-3 6q1 3-1 4v6l-1 1q2 2 1 9l2 6 4 7 10 8 13 5h13l1-1 6-1 9-5 8-9 4-9v-6l1-1q1-4-1-4v-6l-2-6-4-7-11-11-10-4zm81.5 3 4.5.5-5 6 4 1-6.5 1.5-4 3 .5-1.5q.4-6.6 4.5-9.5zm-169 1h4l5.5 2.5-1.5.5-3-1v1q5.8 1.3 8.5 5.5l-.5 2.5q-6.5-2.5-10.5-7.5l-.5-1.5q-3.8-.7-2-2Zm182 0 3 1 3.5 3.5-5.5 1.5q-1-2-5-1-.7 1.8-4 1v-1z" opacity=".012"/><path stroke="#000" d="m214.5 138 1 1 5.5.5v2l-4.5 4.5-3 1h-6l-7.5-2.5.5-1.5 5-2h3l3 2zm-60 1q4.8-.7 6.5 1.5l-2 1 5 2-.5 1.5h-6l-6.5-3.5zm92 1h13l6 2q7.1 3.4 11.5 9.5l5 10 1 11-1 1v4l-2 3v2l-6.5 8.5-4 3-10 4h-12l-9-3-10.5-9.5-4-9-1-9q2.2-1.2 1-6l4-9 7.5-7.5 7-4q3.3.8 4-1Zm4.5 2q-2 2-5 1l-8 4-9 10-3 8v10l2 6 5 7 6 4 8 3h14l10-5 5-5 4-9v-12l-5-10q-5-8-14-11zm-70.5-1q5.2 3.3 7.5 9.5-.7 3.3 1 4v11l-3 7-4.5 4.5-8 3h-6l-7-3-2.5-2.5-2-4v-8l4.5-5.5 4-2h4l3 1 2.5 2.5 1 4-2.5 2.5-.5-.5-.5-4.5-4.5 3.5v4l3.5 4.5h6l5.5-4.5 2-5v-9l-1-1-1-7-2-3zm124 1 6.5.5-6.5 3.5-5 1-.5-1.5zm39 1 2.5.5-2.5.5zm14 0 4.5 3.5 1 5-1.5 2.5-1.5-.5 3 6v3l1.5 1.5.5-6.5 1.5-4.5q3.3 3.8 3.5 10.5l-4.5 6.5-1.5.5.5 6.5 6-8 .5 7.5-3.5 4.5-5 4-1-2-2.5 5.5 1.5.5 7-3 .5.5-2 2-2.5 3.5q-1.8 1.7-6 1l-2-1-4 3v-1l5.5-4.5 5-9q-.8-3.2 1-4v-13l-4-10-6.5-6.5-2.5-1.5 1.5.5 5 3z" opacity=".012"/><path stroke="#000" d="M248.5 144h9l6 2 9.5 7.5 4 6 2 6v8l-3 8-6.5 7.5-8 4q-4-1-5 1h-7l-11-4-7.5-7.5-3-7q1.3-4.7-1-6l1-1v-6l4-8 6.5-6.5zm.5 3-5 2v1l6-2h7l8 4h1l-8-5zm6 3-3 3q-4 0-4-2h-4l-3 6-3-1h-1l4-4-1-1-7 8-3 8v6l3 8 4 3-5-9h2l2-1v2l3 1q1 4-1 6l4 2q1-3 6-2 2 2 3 6l1 1-6-1-3-2-2 1 4 2q3-1 4 1h9q0-2 4-1l9-6v-2q-4 5-10 7h-7l3-4 4-3 3 4 4-3-1-5 4-3h3l-1 2 1 2 2-5v-9l-1-2h-1l1 3v7l-1-3-4-3-1-1q2-1 0-2l2-1v-2l3 1-3-6-3-3-1 1 3 3-1-1q-4-1-4 1-3 0-3-4-1-4-7-3Zm18 29-2 3q1 1 2-1zm-35 5-1 1 3 2h1zm-91.5-39 1.5.5-.5 1.5 2 1 1.5-.5-3.5 6.5-1.5.5-1.5 2.5-2.5-6.5 2.5-4.5zm175 0 .5 16.5 1 3 4.5 5.5 4 2h5l3.5-2.5-.5-3.5h-2l-3.5-2.5q-1-4.5 1.5-5.5l5-2 3 1 2.5 2.5 2 4v8l-6.5 7.5-2 1h-11q-5.5-2-8.5-6.5l-3-7v-11l1-1 1-6zm-158 3 8 1q4.8 1.7 7.5 5.5 2.3 3.2 1 10l-3.5 4.5-2.5-.5 3-2q1.8-2.2 1-7l-4.5-5.5q-2.8-2.2-9-1l-7.5 4.5-3 5-1 9 2 6 5.5 6.5 7 3h6l6-2 .5 3.5-1 2q.5 2 3.5 1.5l7-4q1.5 1-1 2l-7 4q-3.2-.7-4 1h-8l-12-4-6.5-5.5-4-7q.8-3.2-1-4v-8l3-8 6.5-7.5z" opacity=".012"/><path stroke="#000" d="M335.5 148h10q5.5 2 8.5 6.5l4 9v13l-3 7-6.5 7.5-10 5h-7l-1-1-6-1-7.5-4.5 1.5.5 8 3 .5-.5-3.5-3.5-5.5-4.5-5-10q.8-3.2-1-4v-8l1-1 1-7 2.5-4.5.5 2.5-1 1v17l4 10 4.5 5.5 4 2h5l10-4 6.5-6.5 3-7v-5l-2-6-5.5-5.5q-3.2-2.3-10-1l-5.5 4.5q-2 2.5-1 8l2 3-1.5-.5-1.5-.5-3-7 2-6 4.5-4.5zm-196 6 .5 3.5 2 2q-.7 4.2 1 6l-1 1-.5 4.5-2.5-1.5-3-5v-6zm51 0 2.5 4.5 1 9-1 1v5l-2 3v2l-6.5 8.5-1.5-.5 7-14q-.7-3.2 1-4v-11q-1.9-.9-.5-3.5Zm43 7 2.5 1.5 1 4-5.5 4.5-.5-1.5q2.3-1.3 1-6zm17 3q6.3-1.2 7.5 2.5 1 5.5-2.5 6.5-5.8.8-7.5-2.5-1-5.5 2.5-6.5Zm-116 6 2 3 1-2 5 6 2.5 1.5-1.5-.5-1.5.5 2 3-4.5.5-4.5-4.5-1-3zm64 5 .5.5-2.5 2.5-.5-.5zm-41 2 7 5h12l6-3q1.5 1-1 2l-4 2-9 1q-.7-1.7-4-1l-5-3-2.5-2.5zm-20 8 4 2v-2l7.5 3.5-2 1 4 2q-2.1 2.4-7.5 1.5l-5.5-4.5zm7.5 3v1h2zm57.5 2q13.5-1 18.5 6.5l2 4v4q-1 1.5-2-1l-5.5-6.5-7-3h-8l-7 3q-3.2 4.3-9 6l-.5-1.5 3.5-7.5.5 1.5-1 2 .5.5 2-2 7-4zm92 0h7q1 2 5 1l11 7 .5-1.5-.5-1.5 4.5 8.5-1.5-.5-3-1q-3.8-4.7-10-7-3.2.8-4-1h-7l-7 3-6.5 6.5-.5 1.5-.5-2.5 2-5 3.5-4.5zm-146 6 5.5.5-5.5.5zm175 0 4 2h3l5 2h4q2 3 6.5 3.5l-1.5 2.5h-5l-4.5-3.5-1.5-2.5q-3.2.7-4-1l-.5 1.5 5 6-3.5.5-5.5-4.5.5-1.5 1.5-.5-4-4zm-145 1 .5.5-3 3 .5.5 4-2 .5 2.5q-2.2 5.3-9.5 5.5l-.5-1.5zm169 0h5l1 1 4.5.5-5.5 3.5h-3l-5.5-2.5.5-1.5zm-201 1 13.5.5-4.5 3.5h-4l-4-2q-2.5-1-1-2Zm21 0 1.5.5-4 2 2.5.5 4-2 .5.5-2 2-1.5 2.5-4 2h-3l-3.5-1.5 3.5-3.5zm42 11 7 3h3l5 2h4l1 1h6l1 1h11l1 1h9l1-1h11l1-1 10-1 15-5 .5.5-4.5 4.5-6 2h-3l-1 1h-3l-1 1h-5l-1 1q-4.7-1.2-6 1h-27l-1-1h-5l-1-1h-4l-1-1h-4l-6-2-4-2-3.5-3.5z" opacity=".012"/><path stroke="#000" d="m213.5 216 5 2h4l1 1 8 1 1 1h5l1 1h7l1 1h11l1-1h8l6-2h5l1-1h3l5-2h4l1-1 .5 1.5-1.5 1.5-6 2h-4l-6 2h-5l-1 1h-6l-1 1h-17l-1-1h-7l-1-1-11-1-1-1h-3l-6-2-1.5-1.5z" opacity=".012"/><path stroke="#000" d="m218.5 223 9 3 7 1 1 1h5l1 1h22l1-1 10-1 11-4 .5.5-2.5 2.5-6 3-6 2h-4l-1 1h-7l-1 1h-12l-1-1h-8l-1-1-7-1-11-6zm24 11 2.5.5v160q-2 1-1 5l-2.5 3.5-.5-31.5 1-1zm17 1 2.5.5 1 2v134l1 1v30h-1l-1-7-2-5v-4l-1-1v-6l-1-1v-20l1-1zm17 3 .5 84.5 1 1v101l-1.5.5-1.5-2.5v-156l1-1zm-48 13 .5 81.5 1 1v89l-2.5 2.5-.5-.5v-129l1-1zm-179 5-.5 1.5-10 16-9 18v2l-2 3-3 9v3l-3 9-1 12-1 1v8l-1 1v16l-1 1-.5 12.5-1.5-3.5v-7l-1-1-1-23 1-1v-8l1-1v-4l1-1 1-7h-1l-1 6-3 8v3l-1 1v4l-2 6v6l-1 1v9l-1 1v19q1.8.8 1 4H8l-1-3v-13l-1-1v-12l1-1v-11l1-1 1-10 1-1 1-7 4-12 2-3v-2l9-18 7-11 6-8zm407 1 7.5 7.5 14 19 11 23 4 12v3l3 9v4l1 1v5l1 1v6l1 1v11l1 1v14q-1 1.5-2-1v-9l-1-1-1-17-1-1-1-10-1-1-1-8-1-1v-3l-2.5-7.5-.5 4.5 1 1 1 10 1 1v25l-1 1-1 9-1.5 1.5-.5-5.5-1-1v-25l-1-1v-7l-1-1v-5l-1-1v-4l-1-1-1-7-5-15-3-5v-2l-8-16-9-13z" opacity=".012"/><path stroke="#000" d="m51.5 258 .5 2.5-1 1q1.3 4.7-1 6v25l1 1v6l1 1 2 11 9 20q6.8 10.2 16 18l-.5.5-2-2L63 337.5l-7-9-5-10-1-6-1.5-2.5-.5 3.5 1 1v7l1 1 1 8 4 9v2l5 8-.5.5-2.5-2.5-7-11v-2l-2-3-1-7-1-1q1.3-4.7-1-6v-21q2-1 1-5h-1q-1.7 1.8-1 6l-1 1v6l-1 1v23l1 1v5l1 1v3l1 1v3l3 9 13 27-.5.5-6.5-6.5-8-12-7-18-1-8-1-1v-8l-1-1v-15l1-1v-8l1-1 1-9 2-4v-3l3-9h-1l-4 10v3l-4 12-1 9-1 1q1.3 4.8-1 6v9l-1 1v13l1 1v7q2 1 1 5l1 1v3l2 6 5 10 8.5 10.5 9 6 3 1h6l3.5-2.5v-5l-3-6 5.5-.5 4.5 3.5 2 4v5l-2 5-3.5 3.5-4 2h-8l-7-3-7.5-6.5-7-10-8-19v-3l-2-5v-4l-1-1v-8l-1-1v-13l1-1v-8l1-1 1-10 1-1v-3l1-1v-3l2-4 1-6 2-3 1-5 4-9zM45 271l-1 3h1zm257.5 16 1.5 10.5 8 15v2l4 9q-1 4 1 5v13l-1 1v3l-1 1v3l-2 6h1q3.5-9 10.5-14.5l9-4h9l7 3 3.5 3.5 4 8v7q-2.3 6.2-7.5 9.5l-6 1-3-1-3.5-3.5.5-1.5 2 3q2.5 2 8 1l4.5-3.5 2-4v-8q-2.3-6.2-7.5-9.5l-4-2-8-1-8 3-6.5 5.5-6 10-3 9-3 15-2 4v3l-7 21-2 3v2l-5 10-5.5 6.5-2.5-.5 5.5-10.5.5 1.5-2 3v2h1l6-10v-2l4-8 1-6 2-4v-3l1-1v-3l3-9v-4l4-12v-6l2-4v-3l3-9 1-11-1-1-1-7-8.5-13.5-.5 8.5 1 1v37l-1 1v6l-1 1v4l-1 1v4l-1 1v5l-2 5-1 9-1 1-2 11-5.5 13.5-.5-1.5 3-7v-3l3-9v-4l1-1v-4l1-1 1-13 1-1v-13l-1-1v-4l-2-6-4-9q1-4-1-5v-9l1-1v-5l1-1 1-7 6-16zm.5 21-2 6-7 13v12l7 18q-1 4 1 6h1z" opacity=".012"/><path stroke="#000" d="M334.5 346h7l6.5 5.5q2.2 2.8 1 9l-1.5 2.5q-1.8 1.7-6 1l-.5-1.5 3-4-1-3-2.5-2.5-4-2h-3l-8.5 4.5-4 5-5 10-3 10-7 16-1 5-2 3-5 16-8.5 13.5-1.5-.5 5-7 8-18 7-21v-3l1-1v-3l1-1 2-10q4.8-12.2 14.5-19.5z" opacity=".012"/><path stroke="#000" d="m28.5 349 1.5 1.5v4l1 1v3l4 11 1 6 13 25 4 14 6 12 5 7L80.5 450l12 9 10 5 2 2 11 5 8 2 .5-.5-2.5-2.5q-5.3.7-6-3l-1 2-3.5-3.5-4.5-10.5-.5 3.5 4 7-1.5.5-3.5-6.5-1-6-1-1h2l-2-7h1l4.5 11.5q1-2 2 0l4 2h3l1.5 1.5 3 6v2l3 4-.5 1.5 7 4q3.3-.7 4 1h22l1-1h4l1-1 7-1 9-4h2q18.8-8.7 33.5-21.5l-1.5-.5-3 2-12 4h-3l-1 1q-4-1-5 1h-15l-1-1h-4l-9-3-8-4-12.5-10.5.5-.5 4 4 9 6 13 5q3.3-.7 4 1h6l1 1h10l1-1h7l1-1h3l1-1h3l6-2 10-5 7.5-6.5 1-2-1.5-.5-5 4-8 4-15 5-10 1-1 1h-15l-1-1-7-1-8-4-7.5-7.5-3-7v-4l2-5 2-2-1.5-.5-4.5 4.5-1.5 10.5-2.5-4.5v-5l1-2-.5-.5-2.5 2.5-2 5 2 5 2 2-.5.5-2.5-2.5-4-8q.8-3.2-1-4v-6l4.5-7.5 10 8q3.3-.8 4 1h6q1.5-1-1-2l-1.5-.5q-1.7-1.8-1-6l3.5-3.5 3-1h6q2.8 1.3.5 2.5l-2 6v4l1 1 1 7 4 8 8.5 8.5 9 4h13l15-6q10.2-5.8 17.5-14.5l8-11 6-12 4.5-14.5 1.5 1.5v2l4 7v2l9 17 12.5 14.5 8 6 14 7 8 1 1 1h7l1-1 6-1 9.5-7.5 4-6 3-8q-1-4 1-5v-8q-1.7-.7-1-4 1.3-2.7 6.5-1.5l3.5 3.5q1 5 4.5 7.5l3 1 5-3 1 2 3.5-5.5.5-3.5 1.5.5.5 6.5 3-6 1.5 1.5v10l-1.5 3.5-1-3-5 10-1-6-1.5 5.5-1.5 1.5-.5-5.5-4.5-5.5-6-3-.5 1.5 6 6q1.8 2.2 1 7-2.9 8.1-9.5 12.5l-8 4h-3l-5 2-14 1-1-1h-7q-.7-1.7-4-1l-15-5-10-5-12.5-11.5-10.5-14.5-.5 1.5 11 16 8.5 8.5 18 15h9l1 1h16l1-1h8q1-2 5-1l15-5 10-6 7-7-.5 1.5-5.5 6.5-4 3-15 7h-3l-5 2h-4l-1 1h-13q-.7 1.8-4 1l-1-1h-13v1l17 11 13 6 9 3h3l1 1h4l1 1 16 1 1-1h8l1-1 7-1q6.9-2.6 11.5-7.5l4.5-6.5 8-1 9-4 9-6 10.5-9.5 7-8 9-13 5-9v-2l5-10 1-5 1.5-1.5 3-2 .5 3.5-3 9-2 3v2l-2 3v2l-9 16-10 13-9.5 9.5-7.5 5.5 1.5.5 1.5-.5-17.5 12.5-20 9h-3l-8 3h-5l-1 1-17 1-1-1h-8l-1-1h-5l-1-1-7-1-9-4h-2l-12-6q-21.6-13.4-37.5-32.5l-8-10-5-9-3.5-15.5-2.5 12.5-4 8q-10.2 16.3-24.5 28.5l-21 16-18 9-6 2h-3l-4 2-11 1-1 1h-18l-1-1h-6l-1-1h-3l-1-1h-3l-1-1h-3l-9-3q-4.2-3.8-11-5l-8.5-5.5 1.5.5 12 6h2l14 6h3l5 2h4l1 1 19 1 1-1h7l1-1h4l1-1 7-1 22-10q16.6-10.4 29.5-24.5l8-10 9-15-.5-.5-2.5 2.5q-1.8 5.2-6 8v2l-2 3-12.5 12.5q-16.7 15.8-39 26l-12 4-8 1-1 1h-10q-1 2-5 1l-1-1h-10l-1-1h-4l-1-1-8-1-22-9-19-13L64 440.5l-8-11-7-13-8-25-9-17-1.5-7.5-2.5 10.5-11 11-2 8 3.5 6.5 5 2h4l3-1 3.5-3.5q2.2-2.8 1-9-2.5-3.5-7.5-4.5l-7 4 .5-1.5v-2l4.5-4.5 2.5-1.5.5-1.5q5.4 4.1 8.5 10.5l1 3v7l-4.5 6.5-4 2h-9q-4.8-1.7-7.5-5.5l-2-4v-9l4-8 9-13v-2l2-3 1-7 1-1zM245 417l-2 3q1 1 2-1zm29 21-1 1 3 4q14 16 33 28l14 7 9 3 8 1 1 1h6l1 1h18l1-1 11-1 18-6 14-7q2-1 1-2l-19 9-9 3h-3l-1 1h-3l-1 1h-6l-1 1h-17q-2-2-6-1l-1-1-7-1-9-3-3-2h-2l-25-15-16-15zm-164 19-1 2 2 2 1-1zm309 4q-3 1-1 2l2-1zm-3 2q-3 1-1 2l2-1zm-3 2q-3 1-1 2l2-1z" opacity=".012"/><path stroke="#000" d="m75.5 358 8 2 6.5 5.5 3 6-.5.5-2.5-2.5-3.5-4.5-6-3h-8q-6.2 2.3-9.5 7.5l-1.5 2.5-.5-1.5 2-5 5.5-5.5q1.8-1.7 6-1z" opacity=".012"/><path stroke="#000" d="m77.5 367 6 1 5.5 3.5 4 8v6l-3 7-3.5 3.5-5 3q-3.2-.7-4 1l-.5-.5 2-2 4-7v-9l-4.5-6.5-3-2-5.5-1.5 2.5-2.5zm397 6 4.5 9.5-6.5 2.5-.5-2.5 1-1z" opacity=".012"/><path stroke="#000" d="M.5 375 2 389.5l1 1v3l2 6q2.9 7.1 8.5 11.5l3 2 7.5 1.5 2 10 1 1v3l3 9 5 10v2l9 17 15 21L77.5 506l15 11 18 10h2l5 3h2l9 4h3l4 2h3l5 2h4l1 1h4l3.5 1.5v10l2 5 3.5 3.5q.9-6.1 5-9l10-5h15l9 3 9 5 14.5 12.5 7 9 5 9q-1 1.5-2-1-6.6-12.4-17.5-20.5l-7-5-15-7-9-1-1-1h-5l-7.5 2.5 4.5 1.5 10 1 1 1h3l7.5 2.5-10.5.5q-.8-1.7-4-1l-.5 1.5 10.5 9.5 25 14 12.5 11.5 9 12 7 14 5.5 19.5 5.5-19.5 7-14 9-12 6.5-6.5 12-9 22-11 8.5-8.5 1-2-3.5-.5-1 1-11 1v-1l10-2 8-3 8.5-.5-6.5-2.5h-11l-12 4-11 6q-9.4 6.1-16.5 14.5l-7.5 10.5.5-1.5 6-11 10.5-11.5 8-6 12-6 6-1 1-1h15l7 3 5.5 5.5 1.5 6.5 5.5-5.5 1-3 .5-12.5 10-1 12-4h3l14-6h2l16-8 19-13 15.5-14.5 12-15 15-25v-2l4-7v-2l2-3 3-9 1-8 1-1v-4l1.5-3.5h7q5.5-2 8.5-6.5l5-12 2.5-17.5.5 262.5L.5 640z" opacity=".012"/><path stroke="#000" d="M346.5 386h6l1 1 7 1q7.6 2.9 12.5 8.5l3 4 4 9v13l-3 9-3 5-11.5 11.5-8 5-12 5h-3l-5 2h-6l-1 1h-13l-1-1-7.5-.5 12.5-.5q.8 1.8 4 1l1-1h8q1-2 5-1l15-5 10-6 8.5-8.5 6-12q-.7-3.2 1-4v-10l-3-9-8.5-9.5-6-3-6-1-3.5 1.5 1.5 1.5 6 1 4.5 2.5-.5 1.5-1.5.5 1 6h-1l-4.5-5.5-1.5.5 1 2-1.5.5-6-6-6-1-10 4-12.5 11.5q-6.6 7.9-11 18l-4.5 4.5-.5-.5 4-4 11-22q4.7-7.8 11.5-13.5l9-5 7-1zm-200 1h13l9 3 10 7 5.5 5.5q8.2 9.8 13 23l8.5 9.5 2.5 1.5-1.5.5-7.5-6.5-7-11-2-5-8.5-10.5-.5 1.5 8 11-.5.5-2.5-2.5q-.6-3.9-3.5-5.5l-1 1-4-4-10-5q-3.2.7-4-1h-8l-7 3-2.5 2.5-2.5 4.5-.5-1.5 4.5-6.5 5-3 11.5-1.5-9.5-.5-5 2-4.5 3.5-1.5 2.5-.5-1.5 4.5-5.5 10.5-3.5-4.5-.5-8 3-6 6 .5-1.5q1.1-5.4 5.5-7.5l7-3 4.5-.5-7.5-.5-10 4-6.5 6.5-4 8v14l4 10 10.5 12.5 8 6 10 5 6 2h3l1 1h4l1 1 11.5.5-13.5.5-1-1h-4l-9-3-10-5q-10.4-6.1-17.5-15.5l-6-11-1-3v-6l-1-2 1-1v-6l3-7 7.5-8.5zm24.5 8q-2 1 1 2h1zm3 2-1 1 3 2h1zm-9 1v1l3 1h2q-1-3-5-2Zm8 3-1 1 5 3h1q-2-3-5-4Zm6 4-1 1 4 3v-1zM28.5 393l1.5.5-.5 3.5-1.5-.5z" opacity=".012"/><path stroke="#000" d="m342.5 397 5 1 4.5 4.5-1.5.5-2-2h-8q-11.3 5.2-19.5 13.5l-9 15-8.5 8.5-.5-.5 7-7q6.3-15.2 17.5-25.5l7-5zm-288 2 1.5 2.5h-1zm104 2 3 1h5l3.5 1.5-2.5.5-1-1h-11l-3 1-5 4-.5-1.5 6.5-4.5q4 1 5-1Zm291 2 1.5.5-2 7-2.5 4.5-.5-2.5 1-1 1-7zm-389 1q2.5 1 1 2l-1.5-.5zm371 0 .5 3.5h-1z" opacity=".012"/><path stroke="#000" d="m434.5 404 .5 7.5-1 1v4l-1 1v3l-2 6-6.5 7.5-4 2h-10l-7-6-.5 1.5q3 4.5 8.5 6.5h10q5.5-2 8.5-6.5l5-12 1-9 1.5-4.5.5 6.5-1 1v6l-1 1-1 6q-2.5 6.5-7.5 10.5l-6 3h-11l-7.5-4.5-3-5-1-8 .5-.5 2 2 1.5-.5.5-1.5 1.5 1.5q-3.7 1.8-.5 3.5l2-1 5.5 2.5-2 1q1 2.5 5.5 1.5l3-1q1.5 2.5 3-1l1.5-.5q-.7-3.7 1.5-4.5l-.5 1.5-1 5 .5.5 2.5-2.5 6-11zM418 431q-3 1-1 2l2-1zM69.5 405l4.5 10.5-3 1 6.5 7.5 6 3q1.5-1-1-2l-1.5-.5 1.5-.5 4 3 9.5 1.5-6.5.5-5-2q-2.5 1-1 2h4l4 2h3l2-1v2l2.5-1.5 3-5v-5l-2-5 1.5.5 4.5 3.5q2.2 2.8 1 9l-4.5 6.5-8 4h-8l-9-3-5.5-4.5 1-1-7-7 .5-.5 4 3 .5-.5-4.5-4.5q-1.2 2.2-2.5-.5l-1-2q2.5-1.5-1-3l-3-6q1-1.5 2 1l3.5 5.5.5-2.5-4-5 1.5-.5 7 10 .5-1.5-3-4-1-4q1-1.5 2 1l.5 2.5 1.5.5q-2.2 1.2.5 2.5l1.5-.5v-2l-3-6zM66 416l-1 2 8 8h1l-7-9zm5 2-1 2 4 2zm17 13v1h3zm7 1-5 2q-4 1-4-1l-2 1 1 1h7l4-2z" opacity=".012"/><path stroke="#000" d="m440.5 406 .5 8.5-1 1v5l-2 4v3l-4.5 7.5-.5-1.5 5-11 1-8 1-1zm-270 2q10.3 4.2 16.5 12.5l3 5-2.5.5-8-5-4.5-4.5-5-7zm299 0 5.5 2.5v2l-7.5 7.5-4 2-1.5-2.5 2-5zm-257 1 .5 2.5h-1zm231 0 .5 6.5-3.5 9.5-.5-1.5 3-9zm-409 1 8.5 8.5 1 3-2.5.5-3-1-5.5-4.5-2-4zm302 0 .5 12.5-4 10-6.5 7.5-9 4h-9l-3.5-1.5 12.5-.5 7-3 5.5-4.5 5-10q-.7-3.2 1-4zm94 0 .5 4.5-4.5 10.5-.5-1.5 3-6zm-284 1 3.5 4.5-1.5.5-3.5-3.5z" opacity=".012"/><path stroke="#000" d="m330.5 412 1.5.5-2 2 .5.5 1.5.5 1 2-2 4q1.8.8 1 4l-6 7 1 2q-2.7 3.8-7.5 5.5-3.2-.8-4 1h-7l-.5-1.5 7.5-.5 3.5-1.5-5.5-.5-1.5.5.5-1.5 9.5-3.5-5-1 3-1-2-1 7-5-1.5-.5-3 1v-1l2.5-.5-.5-1.5 5.5-3.5-.5-1.5-3 2-.5-.5 2-2 1.5-2.5zm-3.5 10q-3 1-1 2l2-1zm-1 4q-3 1-1 2l2-1zm-2 8-4 2v1h2l3-2zm-110.5-21 2.5 6.5h-1l-2-5zm-183 4q4.6 5.9 12 9l9.5 9.5-2.5.5-9-4-6.5-6.5-4-7zm27 0 8.5 12.5 4.5 4.5 8 5 6 2 5.5.5-7.5.5-9-4L63 427.5l-6-10zm343 1q2 .5 1.5 3.5-1 1.5-2-1zm74 0 .5 1.5q-4.3 9.7-12.5 15.5l-3 2-6 1-.5-2.5 5.5-6.5 12-7zm-304 1 1.5 7.5 3 6 5.5 5.5 9 4 12.5.5-4.5 1.5h-8l-9-4-6.5-6.5-3-6q.8-3.2-1-4z" opacity=".012"/><path stroke="#000" d="m172.5 419 12 9 5.5 2.5-.5 1.5-4-1q-1.5 1 1 2l4 1 3.5 2.5-2.5.5-9-4q-1.5 1 1 2l10 4 4.5.5q-1.4 2.1-5.5 1.5-1-2-5-1l-6-3-4.5-4.5-3-5q2-1 0-2l-1-2q2-1 0-2zm249 7 .5 1.5-1.5.5q-1.5-1 1-2Zm-172 1 .5 5.5-1 1v5l-1 1v5l-1 1-.5 4.5-1.5-.5-1-10-1-1zm5 0 6.5 9.5 1 5-1 1-1.5 8.5-1.5-1.5v-4l-2-6v-5l-1-1v-5zm162 0 1.5.5-.5 1.5-2.5-.5zm-382 3 1 2 7 5 15 8 5.5 5.5-.5 1.5-1-1h-6l-6-2L38 438.5l-4-6zm434 4 1.5.5-9.5 10.5-9 6-3 1h-5l.5-1.5 5.5-6.5 13-5zm-39 3 .5 1.5-2.5 2.5-.5-.5zm-189 4 2.5 7.5v3l1 1v6l-1 1-1 7-4 12-5 10-4.5 5.5.5-1.5 8-15q-.7-3.2 1-4v-8l-1-1-1-15zm184 0 .5 1.5-1.5 2.5-1.5-.5zm-159 1 3.5 6.5v9l-1 1-1 13 1 1v3l2 6 9 14-.5.5-2.5-2.5-9-16-3-9v-3l-2-4v-13zm142 2 1.5.5-8 12-3.5 3.5-.5-1.5 2-5 4.5-5.5 3.5-2.5zm7 0 .5 1.5-6.5 8.5-.5-1.5zm3 0 .5 1.5-7.5 9.5-.5-.5 3-3zm-352 1 4.5 4.5-.5.5-4.5-4.5zm324 0 2.5.5-7.5 3.5-9.5 9.5-7 9 .5.5 9.5-9.5 4.5-5.5 6-4 6-2v1q-11.3 4.2-17.5 13.5l-6 8 .5.5 3-3 2.5-1.5 2.5-3.5.5 1.5-6.5 7.5h-3l-5.5 2.5 3 1-7.5 2.5h-9l-4.5-1.5 12.5-4.5 10.5-8.5 10.5-12.5zm-305 1 2.5 4.5v2h-1v-2l-2-3zm25 0 4.5 3.5 1 5-1.5.5-4.5-6.5zm-10 1 2.5 8.5 4 8-1.5.5-5.5-13.5zm194 0 3.5 1.5-1.5.5-2.5-1.5zm105 0 1.5.5-4 4-7 15-5.5 5.5-2 1-1-2-4 3-.5-.5 5-5 6-12 7.5-7.5zM388 462l-4 5 1 1 3-4zm-5 7q-3 1-1 2h1zm35.5-22 .5 1.5-2.5 2.5-.5-.5zm-376 1 10 6 14 4 9.5 5.5-1.5 1.5h-11l-10-4-6.5-5.5-4-5zm47 0 3.5 7.5q-1 1.5-2-1l-2-5zm373 0 .5 1.5-10.5 10.5-8 4-10 2-2.5-1.5v-2l3.5-3.5 17-5zm-368 2 3.5 6.5q-1 1.5-2-1l-2-5z" opacity=".012"/><path stroke="#000" d="m230.5 454 1.5.5 2 6v15l-1 1v3l-2 6-4 7-17.5 18.5-1.5-.5q10.3-8.7 16-22l2-6v-4l1-1v-17zm43 0 2.5 1.5 2 5v12l1 1v6l1 1v3l2 6 7 12 8 9-.5.5-5-5-7.5-6.5-10-15-2-6v-4l-1-1v-13z" opacity=".012"/><path stroke="#000" d="m252.5 459 1.5 2.5v3l4 12 4 9 9 13 11.5 11.5q11.6 10.4 28.5 15.5l-.5 1.5h-5l-13-6-9-6-10.5-9.5-13-18-4-8-2-6v-3l-1.5-2.5-2.5 5.5-1 6-7 13-6 9-11.5 11.5-20 12h-2l-3 2h-4l-2.5-1.5 7.5-2.5 14-7q11.9-7.6 20.5-18.5 6.6-7.9 11-18v-2l4-9 1-7zm-170 1 4.5 3.5-1.5.5-3.5-3.5zm-32 3 11 5q3.3-.8 4 1h6l1 1h6l1 1 7 1 5.5 3.5-4.5 1.5-13 1q-1.2-2.2-6-1l-7-3L50 463.5zm404 0 .5.5-7.5 7.5-7 4-6 2q-3.2-.7-4 1h-11l-3.5-1.5 1.5-2.5 9-4h7l1-1h6q.8-1.8 4-1zm-235 1 1.5.5q1.7 1.8 1 6l1 1v8l-1 1v4l-2 6-4 8-7.5 9.5q-8.4 8.1-20 13-1.5-1 1-2l9.5-7.5 7-9 5-10 3-9v-4l1-1 1-8zm65 0 2.5 1.5 3 8 1 8 4 12q5.8 13.2 15.5 22.5l4.5 3.5-1.5-.5-9-5-7.5-6.5-7-9-5-10-1-6-1-1v-15z" opacity=".012"/><path stroke="#000" d="m252.5 473 14 83 1.5-.5q7.6-13.9 19.5-23.5l7-4h4l.5 1.5-9.5 5.5-8.5 7.5-11 15-4 9v2h1q5.8-10.7 14.5-18.5l9-7 9-5 12-4 11-1q1.3 2.3 6 1l7 3 6.5 6.5 2 5h-1l-6.5-7.5-10-4h-14l-1 1-6 1-12 6-17.5 16.5-12 20v2l-2 3-3.5 10.5-.5-4.5 1-1q-1.2-4.7 1-6v-10l1-1v-17l-1-1v-13l-1-1-1-16-1-1v-6l-1-1-1-12-1-1v-6l-1.5-2.5-.5 5.5-1 1v5l-2 6v5l-1 1v5l-1 1-1 14-1 1-1 27 1 1v13l1 1v7l1 1q-.7 4.2 1 6h-1l-3-9-2-3v-2l-7-14-4-6-14.5-14.5-11-7-7-3-6-1-1-1h-11l-11 4-6 6-.5-1.5q4.8-7.2 13.5-10.5 3.2.8 4-1h13l17 7 18.5 14.5 9.5 13.5.5-2.5q-8-19.5-23.5-31.5l-8.5-5.5.5-1.5h3l4 2 13.5 12.5 9.5 13.5 1.5-.5v-10l1-1v-6l1-1v-5l1-1v-4l1-1 2-11 4-12 1-12 1-1v-12l1-1zm-45 1 1.5 1.5v11l-1 1-1 6-4 8q-4.9 8.6-12.5 14.5l-12 7-9 3q-1.5-1 1-2 11-4.5 17.5-13.5l5-7 5-10 1-5 5-11zm90 0 3.5 3.5 4 9v2l7 14q5.7 9.8 14.5 16.5l10.5 6.5-1.5.5-17-8-12.5-11.5-4-6-5-12q.8-3.2-1-4v-9zm-237 4 5 2 11 1 1 1h23l7.5 2.5-8.5 4.5q-4-1-5 1h-12l-1-1-7-1-6-3-7-5q-2.5-1-1-2Zm383 0 1.5.5-6.5 5.5-8 4-3 1h-6l-1 1h-7q-1.2-2.3-6-1l-7.5-3.5 1.5-2.5q1.8-1.7 6-1l1-1h7l1 1h14q1.3-2.3 6-1z" opacity=".012"/><path stroke="#000" d="m191.5 482 2.5 1.5-1 10-5 11-12.5 13.5-11 6-6 2-11 1v-1h3l10-5 10.5-8.5 9-12 6-12zm121 0 4.5 3.5 11 19 11.5 12.5 7 5 8 4h3l1.5 1.5-1.5.5-1-1-9-1-14-6-14.5-13.5-6-11-1-7-1-1v-4z" opacity=".012"/><path stroke="#000" d="m175.5 488 1.5.5-1 9-3 6-10.5 11.5-14 7-9 1-1 1h-10l-2.5-1.5 4.5-.5 9-3 8-4q9.5-6 16.5-14.5zm153 1 4 1 7.5 7.5 10.5 12.5q7 7 17 11l12.5 2.5-16.5.5-14-5q-9.2-5.3-15.5-13.5l-5-9-1-3zm-212 1 5.5.5-4.5 5.5-12 5h-16l-12-5-5.5-4.5 1.5.5 7 1 1 1h16l1-1h6l1-1 10-1zm130 1 1.5 4.5-1.5 3.5q-2.2-1.7-1.5-6.5zm12 0q2.3.8 1.5 4.5l-1.5 3.5zm128 0h8l1 1h7l1 1h24l6-2 .5.5-2.5 2.5-7 4-6 2h-3l-1 1h-14l-12-4-4.5-4.5z" opacity=".012"/><path stroke="#000" d="m156.5 493 2.5.5v3l-3 6-7.5 7.5-11 6-6 1-1 1h-18l-7.5-2.5 11.5-.5 1-1 7-1 12-6q8.8-8.2 20-14Zm190 0h3l4 2 11 9 11 7h2l9 4h5l1 1 5.5.5-3.5 1.5h-4l-1 1h-9q-1.3-2.2-6-1l-11-4q-8.6-4.9-14.5-12.5l-3-5z" opacity=".012"/><path stroke="#000" d="m135.5 494 5.5.5q-2 5.5-6.5 8.5l-13 7q-4-1-5 1h-12L88 505.5l18.5-.5 1-1 10-2 5-3h2zm231 1h6l22 9q4-1 5 1h16l3-1v1l-8 4h-3l-5 2h-13l-12-4-10.5-9.5zm-124 3 3.5 4.5v4l-1.5 2.5-2.5-7.5zm20 1 .5 4.5-1 1-.5 7.5-1.5-1.5-1-7zm-23 7 3.5 5.5v3h-1l-3-7zm29 0 1.5 2.5-6.5 12.5-.5-5.5zm-34 3 6.5 7.5 1 5q-1 1.5-2-1-1.9-6.6-6-11zm-5 4 3.5 2.5 7 10v4l-1.5.5q-3.3-8.8-9.5-14.5zm44 0 2.5.5-4 5-6.5 12.5-.5-6.5zm-50 5 5.5 4.5 8 10q1.7 1.8 1 6h-1q-5.4-11.6-15-19zm57 0 1.5.5v2l-10 10-4.5 8.5-1.5-.5 1-5 11.5-14.5zm-64 5 5 3 11.5 11.5 4 6v5h-1q-6.2-12.3-16.5-20.5l-4.5-3.5zm71 0 2.5 1.5-14 13-7.5 11.5-.5-5.5 9.5-12.5zm-107 4h5l1 1h4l6 2 10 5 2.5 2.5-1.5-.5-5-3-6-2h-3l-1-1h-11l-9 3-9.5 8.5-3.5 9.5-.5-11.5 7.5-8.5 6-3 7-1zm138 0h10q.8 1.7 4 1 8.1 2.9 12.5 9.5l2 4v10q-1 2.5-2 1v-6l-3-6-4.5-4.5-7-4q-3.2.8-4-1h-17l-1 1-6 1-3 2q-1.5-1 1-2l6-3 6-1 1-1h4z" opacity=".012"/></svg>