<svg xmlns="http://www.w3.org/2000/svg" viewBox="0 0 640 640"><path fill="#0a0a00" stroke="#0a0a00" d="m346.5 498 .5.5-2.5 2.5-.5-.5z"/><path fill="#3f2f0a" stroke="#3f2f0a" d="m318.5 151 2.5.5-2.5.5zm28 6 1.5.5-.5 2.5-1.5-.5 1-1zm-43 9 .5 2.5h-1zm57 2 3.5.5-3.5.5zm-55 5 3.5 3.5-.5.5-3.5-3.5zm-31 49 11.5.5-11.5.5zm55 26 2.5.5-1.5 1.5q-2.5-1-1-2Zm-72 38 3.5 2.5-1.5.5-2.5-2.5zm4 5 1.5.5 1 2-.5.5-2.5-2.5zm68 50 .5 5.5h-1zm-20 15 .5 5.5h-1zm21 0 .5 4.5h-1zm-94 6 2.5 2.5-.5.5-2.5-2.5zm97 3 2.5 5.5q-1 1.5-2-1zm-25 2 .5 4.5h-1zm-83 6 .5 2.5h-1zm82 3 .5 4.5h-1zm-1 7 .5 4.5h-1zm-1 6 .5 3.5h-1zm29 2 .5 3.5h-1zm-30 4 .5 2.5h-1zm-68 2 3.5 3.5-.5.5-3.5-3.5zm67 2 .5 2.5h-1zm96 1 .5.5-8.5 8.5-.5-.5zm-157 3 3.5 3.5-.5.5-3.5-3.5zm58 6 .5.5-2.5 2.5-.5-.5zm72 4 .5 2.5-2.5 2.5-.5-.5 1-1-.5-1.5 1.5-.5zm7 34 1.5 2.5h-1z" opacity=".949"/><path fill="#846d39" stroke="#846d39" d="m310.5 139 2.5.5-3.5 1.5q-1.5-1 1-2Zm15 0q3-.5 3.5 1.5l-1.5-.5q-3 .5-2-1Zm-23 4 .5 1.5q-1 2.5-2 1zm8 8 .5.5-2.5 2.5-.5-.5zm32 0 .5 1.5-1.5.5q-1.5-1 1-2Zm-36 5-.5 1.5-.5 2.5-.5-2.5zm43 1-.5 1.5-.5 1.5-.5-1.5zm-46 5 .5 2.5-1.5 2.5-.5-2.5zm30 3 1.5 2.5q-1 1.5-2-1zm13 0 .5 2.5h-1zm-1 5 .5 1.5-1.5 2.5-.5-1.5zm-40 4 2.5 2.5-.5.5-2.5-2.5zm82 0 1.5.5-.5 1.5q-2.5-1-1-2Zm-75 4 3.5 1.5-2.5.5q-2.5-1-1-2Zm10 1 2.5.5-2.5.5zm63 1 1.5.5.5 1.5 1-2 .5 1.5-1.5 1.5-2.5-2.5zm-1 3 2.5 2.5-.5.5-2.5-2.5zm-83 1 2.5 2.5-.5.5-2.5-2.5zm90 1 2.5 1.5 1 2-.5.5-3.5-3.5zm3 12 2.5 2.5-.5.5-2.5-2.5zm-85 4 1.5 2.5q-1 1.5-2-1zm19 2 2.5 1.5-2.5.5zm39 1q3-.5 3.5 1.5l-1.5-.5q-3 .5-2-1Zm-100 1 2.5.5-3.5 1.5q-1.5-1 1-2Zm134 0 .5 1.5-1.5.5q-1.5-1 1-2Zm-138 2 .5.5-2 2-.5 1.5-.5-1.5zm112 0 1.5 1.5-1 1 .5 1.5-1.5-1.5 1-1zm26 2 2.5 1.5-1.5.5q-2.5-1-1-2Zm-8 2 1.5 2.5h-1zm0 10 1 4 1-2 .5 3.5-.5.5-2.5-2.5zm5 0 2.5 2.5-.5.5-2.5-1.5zm-7 8 1 1 1.5-.5-1.5 5.5-1.5-4.5zm-7 7 .5 1.5-2.5 1.5-.5-.5zm-16 10 1.5.5-2.5 1.5q-1.5-1 1-2Zm-34 1 2.5.5-2.5 1.5zm15 0 2.5.5-2.5 1.5zm-63 2 .5.5-2.5 2.5-.5-.5zm5 1 1.5.5-2.5 1.5q-1.5-1 1-2Zm-20 4 .5.5-2.5 2.5-1.5-.5zm56 5 .5 10.5-1.5 2.5-.5-10.5zm-63 7 1.5.5-1.5 2.5zm4 0 .5 2.5-1.5 3.5-.5-2.5zm43 1 .5 2.5h-1zm-51 4 .5 1.5q-1 2.5-2 1zm3 6 .5 1.5q-1 2.5-2 1zm-1 5 1.5.5-.5 1.5q-2.5-1-1-2Zm66 14 .5 9.5-1.5 3.5-.5-9.5zm-59 4 2.5.5-2.5.5zm-6 5 2.5 2.5-.5.5-2.5-2.5zm2 5 2.5 3.5-.5.5-2.5-2.5zm14 10 6.5 1.5-3.5.5-3-1zm31 0 1.5 3.5v8h-1l-1-2zm19 9 .5 5.5-1.5 3.5-.5-5.5zm-119 2 3.5 2.5-.5.5-2-2q-2.4-.1-1-1Zm99 6 1.5 2.5q-1 2.5-2 1 2-1 0-2zm-8 4 2.5 1.5-1.5.5q-2.5-1-1-2Zm-3 3 1 1 1.5-.5-1.5 1.5q-2.5-1-1-2Zm32 5 .5 3.5-1.5 3.5-.5-3.5zm70 15 .5.5-3.5 3.5-.5-.5zm13 6 1.5 2.5q-1 1.5-2-1zm22 0 6.5 4.5-.5.5-2-2-4-2zm-5 2 .5 2.5-4.5 10.5-.5-1.5 2-3zm-221 1 .5 2.5h-1zm234 2 3.5 2.5-1.5-.5q-3.8-.7-2-2Zm-110 1 .5 2.5h-1zm-123 1 5.5 13.5h-1l-5-12zm139 9 2.5 1.5-1.5-.5q-2.4-.1-1-1Zm76 0 .5 1.5-2.5 4.5-.5-1.5zm-91 1 .5 2.5-1.5 2.5-.5-1.5zm7 0 2.5 2.5-.5.5-2.5-2.5zm15 10 4 1 1.5 1.5-1.5-.5-4-1zm-118 3 4.5 4.5-.5.5-4.5-4.5zm126 0 2.5.5-.5 1.5-2.5-1.5zm-6 2q2.5 1 1 2l-1.5-.5zm-2 2 3.5 2.5-1.5-.5q-3.8-.7-2-2Zm12 4 2.5 1.5-.5 1.5-2.5-2.5zm-27 1 3.5 3.5-.5.5-3.5-3.5zm-110 6 2.5 2.5-.5.5-2.5-2.5zm133 0 .5 1.5-2.5 2.5-.5-.5zm-101 1 3.5 1.5-2.5.5q-2.5-1-1-2Zm24 0q1.5 1-1 2l-2.5-.5zm66 1 4.5 1.5-3.5.5q-2.5-1-1-2Zm-85 1 3.5.5-3.5.5zm12 0 2.5.5-2.5.5zm-40 6 5.5 5.5-.5.5-5.5-5.5zm155 3 .5.5-5.5 5.5-.5-.5zm-147 4 2.5 2.5-.5.5-2.5-2.5zm140 2 .5.5-4.5 4.5-.5-.5zm-136 1 2.5 2.5-.5.5-2.5-2.5zm10 7 3.5 2.5-1.5-.5q-3.8-.7-2-2Zm5 3 3.5 2.5-1.5-.5q-3.8-.7-2-2Zm115 4 .5.5-2.5 2.5-.5-.5zm-102 3 2.5 2.5-.5.5-2.5-2.5zm5 5 2.5 2.5-.5.5-2.5-2.5zm90 0 1 2 1.5.5q-1 2.5-2 1zm-82 5 5.5 3.5-1.5-.5q-4-.5-4-3Zm86 0-.5 1.5-.5 1.5-1.5-.5zm-92 1 1.5 2.5q-1 1.5-2-1zm43 2q1.5 1-1 2l-4 2q-1.5-1 1-2zm45 0-.5 1.5-.5 2.5-.5-2.5zm-64 1 5.5 3.5-1.5-.5q-4-.5-4-3Zm-20 3 2.5 2.5-.5.5-2.5-2.5zm78 0 1 2 1.5-.5q-1.5 3-3 0zm6 4 2.5 1.5q-1 2.5-2 1l.5-1.5q-2.4-.1-1-1Zm4 0 .5 2.5h-1zm-10 2 1.5 3.5-1.5.5-1.5-2.5zm-66 1 2.5.5-2.5.5zm-2 6 4.5 2.5-1.5.5-3.5-2.5zm71 0 .5 2.5-1.5 2.5-.5-1.5zm-5 2 1.5 4.5-.5.5-2.5-2.5zm-55 3 2.5.5-2.5.5zm51 4-.5 1.5-1.5 2.5.5-1.5zm-16 8 .5.5-2.5 2.5-.5-.5z" opacity=".996"/><path fill="#ad9357" stroke="#ad9357" d="m314.5 138 10.5.5-.5 1.5-1-1h-8l-2 1q-1.5-1 1-2Zm26 10q2.5 1 1 2l-1-1-1.5.5zm-25 1h8l1.5 1.5-1.5-.5h-8zm-20 1 .5.5-2 2-1 4-1.5 1.5-.5-2.5zm31 0 1.5 2.5q-1 1.5-2-1zm3 3 1.5 2.5q-1 1.5-2-1zm-22 1 .5 1.5-1.5.5q-1.5-1 1-2Zm25 3 1 3 1.5.5-1 1-1.5 8.5zm18 0 1.5.5-2 1 .5 1.5-1.5-.5zm9 0 4 1 1.5-.5-.5 1.5-5-1zm-69 2 .5 6.5h-1zm69 0 1.5.5-2.5 1.5q-1.5-1 1-2Zm-56 1 2.5.5-3 2-.5 1.5-.5-1.5zm48 1 1.5.5-.5 1.5-2.5-.5zm-3 1 .5.5-2.5 2.5-.5-.5zm6 2 2.5.5-2.5.5zm4 0 3.5 2.5-1.5.5-2.5-1.5zm16 1 3.5.5-3.5 1.5zm-82 1 .5 1.5q-1 2.5-2 1zm13 0 .5 2.5-1.5.5-.5-1.5zm58 0 5.5.5-5.5.5zm-18 1 .5 2.5h-1zm23 1 3.5.5-3.5 1.5zm5 1 1 1 1.5-.5-1 1 .5 1.5-2.5-1.5zm-80 7 1.5.5 6 8-.5.5-5.5-5.5-2-3zm49 0 1.5.5-5.5 6.5-.5-.5 3-3zm37 2 3.5 2.5 1 3-.5.5-3.5-3.5zm12 0 1.5.5-.5 1.5-1.5-.5zm-75 1 5.5.5-4.5 1.5q-2.5-1-1-2Zm20 4 .5 1.5q-1 2.5-2 1zm-6 4 .5 1.5-2.5 1.5-.5-.5zm67 3q2.5 1 1 2-1.5-2.5-3 1l-1.5-1.5zm-88 1 2.5 1.5-.5 8.5-1-9q-2.4-.1-1-1Zm77 0 5.5 4.5h-2l3 4-.5.5-3.5-3.5-3-5zm-58 1 .5 7.5-1.5.5-.5-1.5 1-1zm-19 6 .5 2.5h-1zm43 5h12l2.5 1.5-2.5.5-1-1h-9l-1 1h-22v-1h20zm44 0 4.5 5.5h-1l-1.5-2.5-2.5-1.5zm4 0 2.5 2.5q-.7 3.2 1 4l-1.5.5-1-5-1.5-.5zm-130 1 36.5.5-6.5 1.5-1-1h-28l-1.5.5zm120 0 2 3 1.5-.5-1.5 2.5-2.5-3.5zm-14 3 2.5 1.5q.8 3.8-1.5 4.5l-2.5-2.5.5-.5 2 2 .5-.5v-2l-2-2zm-116 1 1.5.5q-1 2.5-2 1zm1 3 1.5.5-2.5 1.5q-1.5-1 1-2Zm0 3 2 3 4 2 5.5.5-5.5.5-6.5-4.5zm115 0 1.5.5-2.5 2.5-.5-.5zm-4 3 1.5.5-4.5 1.5v-1zm29 0 1.5.5-.5 1.5q-2.5-1-1-2Zm-108 2 5.5.5-5.5.5zm8 0 6.5.5-6.5.5zm31 0 7.5.5-7.5.5zm9 0 9.5.5-9.5.5zm11 0 15.5.5-15.5.5zm42 0q1.5 1-1 2l-1.5-.5zm6 0 2.5 1.5-1 3 .5 1.5-1.5-2.5 1-1-2-2zm-125 1 10.5.5-10.5.5zm53 2 .5 17.5h-1l-1-2v-14zm-19 1 .5 17.5 1 3q-1 1.5-2-1zm83 1 .5 1.5-1.5.5q-1.5-1 1-2Zm4 0 1.5 1.5v6l-2.5 4.5-.5-1.5 1-2-1-2h2l-1-3zm-5 11 1.5.5-2.5 2.5-.5-.5zm-14 2 .5 1.5-2 1-1.5 3.5-1.5-.5zm17 0 1.5.5-4.5 3.5v-1l2.5-1.5zm-8 1 .5 1.5q-2 1 0 2l-1.5 1.5-2 1-.5-.5 2-2zm-25 3 2.5.5-1.5 1.5q-2.5-1-1-2Zm27 0 1.5.5q-1 2.5-2 1zm-45 2 1.5.5-5.5 2.5v-1zm29 1q1.5 1-1 2l-1.5-.5zm6 0-.5 1.5-.5 1.5-3 2-1-1-1.5.5 4-2-.5-1.5zm-27 1 .5 1.5-3.5 1.5q-1.5-1 1-2zm-63 1 .5.5-3.5 3.5-3 1q-1.5-1 1-2h2zm11 0 2.5.5-3 1 .5 1.5q-3-1.5 0-3Zm36 0 2.5.5-.5 1.5-2.5-1.5zm30 0 1.5 2.5h-1zm-37 1-.5 1.5-.5 1.5-.5-1.5zm28 0 .5 1.5q-1 2.5-2 1zm-16 1 1.5.5q-1 2.5-2 1zm20 0 3 1 1.5-.5-.5 1.5-3-1-1.5.5zm-54 1q1.5 1-1 2l-1.5-.5zm38 0 .5 1.5-3.5 2.5q-1.5-1 1-2l1.5-.5zm9 0q1.5 1-1 2l-4 1v-1zm-57 1 .5.5-2.5 2.5-.5-1.5zm39 0 .5 1.5-3.5 1.5q-1.5-1 1-2zm23 0q1.5 1-1 2l-1.5-.5zm-67 1 1.5 2.5h-1zm-8 1 .5.5-8 8-.5 1.5-1-1-2 2-.5-.5.5-1.5 3-1zm18 0v2l7-2v1l-8 2q-1-2-2 0l-1.5-1.5 1.5.5 1-1zm-13 2 1.5.5-.5 1.5q-1-2-2 0l-1.5-.5zm21 1 .5 7.5h-1zm17 0 2.5.5-1.5 3.5zm-14 1 .5 44.5h-1zm-45 1q2.5 1 1 2-1.2-2.2-2.5.5l-1.5 3.5-.5-2.5zm-4 7 1.5.5-.5 1.5q-2.5-1-1-2Zm-6 3 2.5 1.5-3 1 .5 3.5 1.5-.5 1 2h-2l-.5 2.5-1.5-3.5v-5zm9 4 .5 5.5-1.5.5-1.5-3.5zm60 1 .5 9.5h-1zm-65 3 3.5 5.5 1 8h-1l-.5-1.5-1.5.5 1-2q-2-1 0-2l-3-8zm68 0 .5 17.5-1 2 .5 1.5-1.5-.5v-11l1-1zm-20 7 .5 7.5h-1zm-55 3 3.5 2.5-1.5-.5-1 1-1.5-1.5zm1 4 1.5.5 1 3q-1 1.5-2-1zm7 0 2.5 2.5-.5.5-2.5-2.5zm47 3 .5 8.5 1 3-1 2 1 1v13l-1.5 2.5-.5-2.5q2-1 0-2zm-50 2 2.5 1.5-1.5.5q-2.5-1-1-2Zm8 0 2.5 2.5-.5.5-2.5-2.5zm-10 4 3.5 3.5-.5 1.5 2.5 1.5-.5 1.5-4.5-4.5zm6 3 3.5 3.5-.5.5-2.5-1.5zm2 5 2.5 2.5-.5.5-1.5-.5zm4 2 4.5 1.5-.5 1.5-3-1q-2.5-1-1-2Zm7 1 2 1 1.5-.5-3.5 2.5zm51 0 .5 8.5h-1zm3 1 .5 17.5q-1 2.5-2 1v-9l1-1zm-64 1 4.5 3.5-.5 2.5-4.5-5.5zm7 3q2.5 1 1 2l-1.5-.5zm2 4 3.5 1.5-.5 1.5-3.5-1.5zm8 0 4.5 3.5-2.5 1.5.5-1.5-1.5-2.5q-2.4-.1-1-1Zm7 3 .5 2.5q-1 1.5-2-1zm-14 1 4.5 5.5-.5.5-3-3-2.5-1.5zm7 3q2.5 1 1 2l-1.5-.5zm3 4 2 2 1.5-.5-.5 1.5q-3 .5-3.5-1.5zm9 0 4.5 2.5.5 1.5 1-2 1.5 2.5-1.5-.5-1 1-1-1-1 1-1-1q-5.2 1.3-6.5-1.5l1.5-.5q1 2 5 1v-1q-3.8-.7-2-2Zm133 0 3.5 2.5 5 16 2 3 1 5 2 3v2l2 3 3 9h-1L429.5 330q-2.4-.1-1-1Zm-218 1 1.5.5-2 1-16 43 .5 1.5-1.5-.5-1 2 2 1-.5 1.5-2.5-3.5 6-13 1-5 4-8 6.5-19.5zm4 0 2.5 2.5-.5.5-2.5-2.5zm209 1 .5.5-2.5 2.5-.5-.5zm-115 1 1.5 3.5q-1 1.5-2-1zm3 0 .5 4.5h-1zm-24 1q1.2 3.3 5.5 3.5l-2.5 1.5-3.5-2.5 1-1zm-68 3 2.5 2.5-.5.5-2.5-2.5zm112 1 .5 10.5q-1 2.5-2 1v-5l1-1zm87 0 .5.5-2.5 2.5-.5-.5zm-90 1 .5 5.5h-1zm-28 3 1 1 1.5-.5-1.5 1.5q-2.5-1-1-2Zm-76 1 2.5 2.5-.5.5-2.5-2.5zm193 0 1 1 1.5-.5-1.5 1.5q-2.5-1-1-2Zm-119 1 5 4 2.5.5-1 1 3 3-.5.5-7.5-5.5-2-3zm10 1q2 .5 1.5 3.5h-1zm-80 3 2.5 2.5-.5.5-2.5-2.5zm4 5 3.5 3.5-.5.5-3.5-3.5zm177 0q2.5 1 1 2l-1-1-1.5.5zm-101 1 2.5 1.5-.5 4.5-1-5-1.5.5 1 7q-1 2.5-2 1v-8zm24 1 .5 6.5h-1l-1-2zm-3 2 .5 2.5h-1zm-98 1 1 1 1.5-.5-1.5 1.5q-2.5-1-1-2Zm174 0 1 1 1.5-.5-1.5 1.5q-2.5-1-1-2Zm-168 1 2.5 2.5-.5.5-2.5-2.5zm165 3q2.5 1 1 2l-1-1-1.5.5zm-165 1q2.5 1 1 2l-1-1-1.5.5zm4 1 2.5 2.5-.5.5-2.5-2.5zm-12 3 11 3 1.5 1.5-1.5-.5-6-2h-3l-2.5-1.5zm77 0q2.1 1.4 1.5 5.5-1 2.5-2 1zm102 0q1.5 1-1 2l-11 2-1.5-.5-.5 1.5-1.5-.5.5-1.5 3-1 3 1zm-99 1 .5 2.5h-1zm-84 1 1.5.5v3l2 5v4h-1l-2-6v-4l-1-1zm187 0 1.5.5-3.5 10.5-.5-3.5zm-166 1 .5 1.5q-1 2.5-2 1zm185 1 .5 1.5-1.5.5q-1.5-1 1-2Zm-92 4q2.5 1 1 2l-1.5-.5zm3 0 .5 2.5h-1z" opacity=".996"/><path fill="#ad9357" stroke="#ad9357" d="m345.5 374 2.5 3.5-2.5.5q-2.7-1.3-.5-2.5zm-135 1 .5 1.5-1.5.5q-1.5-1 1-2Zm95 0 1.5 4.5-2 4 1 2-1 1-1 10-2 4v3l-1.5 1.5-.5-2.5 3-9zm31 2 5.5 3.5-1.5.5-1-1-4.5-.5zm113 0q2.5 1 1 2l-2.5-.5zm-109 6 3 2 2-1 .5 1.5-1.5-.5-1 1-1-1q-3.8-.7-2-2Zm-6 1 1.5.5-.5 3.5q-2.5-1-1-4Zm21 1-.5 1.5-.5 1.5-.5-1.5zm-14 1 2.5 2.5-1.5 1.5.5-1.5-2-2zm10 0 1.5.5-.5 1.5-1-1-1.5.5zm5 2 1.5.5-.5 1.5q-2.5-1-1-2Zm-20 2 1.5 10.5h-1l-2-8zm8 0 2.5 1.5-.5 1.5-2.5-2.5zm78 1 .5 1.5-3 7-6 9-17.5 19.5-.5-1.5q10.2-8.8 18-20zm-188 2q2.5 1 1 2l-1-1-1.5.5zm3 0 2.5 2.5-.5.5-2.5-2.5zm112 0 1.5 2.5q-1 1.5-2-1zm10 2 1.5.5-.5 1.5q-2.5-1-1-2Zm42 1 1 1 1.5-.5-1.5 1.5q-2.5-1-1-2Zm-166 1 1 1 1.5-.5-1 1 .5 1.5-2.5-2.5zm126 1 1.5.5-.5 1.5-1-1-1.5.5zm-141 1 10.5 15.5-.5.5-2.5-2.5-7-10zm132 1 4.5 2.5q-1.2 2.8-2.5.5l-2.5-1.5zm46 0 1 1 1.5-.5-3.5 3.5-.5-.5 2-2zm-38 3 7.5 4.5-1.5.5-6.5-3.5zm-117 2q1 2 2 0l1.5 1.5-1.5-.5-1 1q-2.5-1-1-2Zm115 1 3.5 1.5-.5 1.5-3.5-2.5zm36 0 .5.5-2.5 2.5q-2.5-1-1-2 1.5 2.5 3-1Zm-29 3 3.5 2.5-1.5-.5q-3.8-.7-2-2Zm-5 1 1.5 3.5q-1 1.5-2-1zm-93 7 1.5.5q-1 2.5-2 1zm16 0q2.5 1 1 2l-1.5-.5zm-49 1 6.5 7.5-.5.5-6.5-6.5zm38 0 7.5.5-7.5.5zm-26 11 1.5 2.5q-1 1.5-2-1zm144 2-.5 1.5-1.5 2.5.5-1.5zm-139 2 1.5 2.5q-1 1.5-2-1zm132 5 1.5 3.5-1.5.5zm-4 5 1.5.5 1 3h-1l-.5-1.5-1.5-.5zm4 1 1.5.5 1 2-.5.5-2.5-2.5zm-8 2 2.5 3.5-1.5.5-1.5-1.5 1-1zm6 2q4.8 2.2 3.5 10.5l-2 1q3.5 1.5 1 3l-.5 1.5-2.5-3.5 1-1-.5-1.5 1.5-.5-1-2 1-3-2-4zm-98 6 1.5 2.5q-1 1.5-2-1zm91 0 .5 1.5-1 2 2 1 1 2-2 1 1 2q-1 2.5-2 1l-1-9zm3 2 2.5 1.5q-1.7.8-1 4l2 2v8l-1.5.5-1.5-3.5 2-3-2-4zm-90 3 3.5.5-.5 1.5-3-1zm15 2 1.5.5-.5 1.5q-2.5-1-1-2Zm-2 1 2.5 4.5-1.5.5.5-1.5-1.5-1.5q-1.2 2.3-2.5-.5zm-12 3 3.5 1.5-1.5 1.5-2.5-2.5zm5 2 2.5 1.5-1.5-.5q-2.4-.1-1-1Zm24 1q.8 1.8 4 1l1.5-.5-.5 1.5q-5.5 1-5-2Zm-24 1 4.5 4.5-.5.5-3.5-2.5zm6 1 4.5 2.5-1.5-.5-3-1zm69 0 1.5.5q.8 3.8-1.5 4.5zm-69 3 4.5 1.5q-1.2 2.8-2.5.5-3.8-.7-2-2Zm79 0 .5 2.5q-1 1.5-2-1zm-84 1 3.5 1.5q-2.3 1.2.5 2.5l1.5.5.5 1.5 1.5-.5-1.5 2.5-4-5-2.5-1.5zm12 0 1.5.5-1.5 2.5-1.5-.5zm65 1 2.5 1.5-1 1 .5 1.5-1.5-.5.5 1.5 1.5.5-1.5.5-2.5-1.5zm-4 3 1.5 5.5q-1 1.5-2-1zm4 4 1.5 2.5q-1 1.5-2-1zm-59 1 4.5 2.5-.5 2.5-2.5-.5 1-2-3-2zm-7 1 2.5 1.5-1.5.5q-2.5-1-1-2Z" opacity=".996"/><path fill="#ad9357" stroke="#ad9357" d="m310.5 485 2.5.5-1.5 1.5q-2.5-1-1-2Zm52 0 2.5 1.5q-1 2.5-2 1zm8 0 1.5 1.5-3.5 3.5-.5-1.5zm-62 3 3.5.5-4 1 1.5 1.5 1.5-.5-1.5 2.5-4.5-3.5zm58 0 .5 3.5-1.5.5.5-1.5zm-54 2q2.5 1 1 2l-1.5-.5zm13 2q1.1 2.4 4.5 2.5l-1.5 1.5q-1-2-2 0l-5 1q-1.5-1 1-2l4.5-.5-2-2zm36 0q3.3 1.8-.5 3.5l-2.5 3.5-2 1-2.5-3.5.5-.5 2 2 3.5-2.5.5-1.5 1.5-.5zm-44 2 2.5 1.5-2.5.5zm35 0 .5 1.5q-1 2.5-2 1zm-9 1 .5 1.5-3.5.5v-1zm-24 3 5.5 3.5-1.5.5-4.5-1.5zm31 0 1.5.5-4.5 4.5-.5-.5 1.5-2.5 1.5-.5zm3 1q2.5 1 1 2l-2 1 .5-1.5zm-18 1 1.5.5 2 3-3.5 2.5-.5-2.5 2-1-2-2zm-9 2 3.5.5-3.5.5z" opacity=".996"/><path fill="#e8b419" stroke="#e8b419" d="m300.5 140 .5.5-6 6-1.5 2.5.5-1.5zm37 0 4.5 4.5-.5.5-4.5-4.5zm5 6 3.5 5.5q-1 1.5-2-1l-2-4zm-51 6 .5 2.5-1.5 4.5-.5-3.5zm17 2 1.5.5q-4.3 3.2-4 11l2 5 2 2-.5.5-2.5-2.5-2-5v-4q1.8-.7 1-4zm45 0q1.5 1-1 2l-2.5-.5zm-24 1 2.5 3.5v9q-1 2.5-2 1l1-1v-8l-2-3zm39 1 1.5 1.5-3.5 3.5h-7l-1 1q-1.5-1 1-2l7-1 2.5-1.5zm-79 4 .5 5.5 1 1v5l4 8q-1 1.5-2-1l-3-7q1.3-4.7-1-6zm67 1-.5 1.5-.5 1.5-2.5 1.5 6 2-2.5.5-4.5-2.5-1-2zm-9 3 2.5.5-2 1v3l-1.5 3.5-.5-2.5 1-1zm35 1 1.5.5-.5 3.5-6.5-1.5 3.5-1.5 2 1zm-17 2 5.5.5-4 1-.5 1.5-1.5-.5zm-36 3 .5.5-3.5 3.5-.5-.5zm39 0 2.5 1.5-1.5.5q-2.5-1-1-2Zm21 2q4.1 1.9 4.5 7.5h-1l-1-4-3-3zm-44 1 .5 1.5q-2.9 8.1-9.5 12.5l-.5-.5 6-6zm32 1 7 2 1.5 1.5-3.5.5-1-1-5.5-.5 3-1-2-1zm0 4 2.5 2.5-.5.5-2.5-2.5zm12 1 4.5 2.5q4.4 4.6 6 12h-1q-1.2-7.8-6.5-11.5l-3.5-1.5zm-94 2 4.5 4.5-.5.5-4.5-4.5zm90 5 7 4 7 6 1.5-.5-.5 1.5-1.5.5q4.9 3.1 5 11h-1l-1-6-4.5-6.5-11.5-7.5-.5-1.5q-2.7 1.3-.5 2.5l3 6h-1l-4-8zm-55 3 1.5.5-2 1v9l1 1-1.5.5-.5-10.5zm-23 1 1.5 4.5h-1q-1.7-1.7-.5-4.5Zm1 6 .5 3.5q-1 2.5-2 1z" opacity=".965"/><path fill="#e8b419" stroke="#e8b419" d="m388.5 197 3.5 2.5 11.5 12.5 1.5-.5-.5 1.5-2-1-.5 1.5 2 4v9l-1.5 2.5-.5-1.5 1-1v-9l-5-10-3.5-3.5-5-3-.5 1.5 6.5 14.5 1.5.5 1 4-1.5.5q.1-5.6-4-7l-1.5.5.5-1.5 1.5-.5-3-5-2-7 2-2-2-2zm-102 3 4.5.5-4.5.5zm53 0 3.5.5-3.5.5zm37 3 2.5 4.5h-1l-2-4zm-115 1-.5 1.5q-2.2 2.8-1 9l4 5-.5.5-3.5-3.5q-2.2-2.8-1-9zm117 8 .5 2.5-3.5 4.5-.5-.5 2-2zm13 5 .5 7.5-1.5 3.5-.5-2.5 1-1zm-84 3 1.5 1.5v22l-2.5 2.5-1-1-1.5.5 1.5-1.5 1.5.5 1-3v-19l-9-1 7.5-.5zm22 0 1.5.5-1 1v18l.5 1.5-1.5-1.5zm-60 1 3.5.5-3.5.5zm84 0 9.5.5-9.5.5z" opacity=".965"/><path fill="#e8b419" stroke="#e8b419" d="M398.5 224q2.3.8 1.5 4.5l2 2-1.5.5-1-2-1.5 3.5v3q-1.7 4.8-5.5 7.5l-.5-.5 3-3 3-8zm-13 6 .5.5-2 2-.5 1.5-.5-1.5zm5 0 .5 5.5q-1 2.5-2 1-1.2-5.2 1.5-6.5Zm-9 4 .5 1.5-5 8-5 5 4 1-5.5.5.5-1.5-1-1 5-5 3.5-5.5 1.5-.5zm-28 5 .5 2.5-3.5 2.5-.5-1.5 3-2zm35 0 .5 1.5-1 2 3 1-2.5 1.5-1-2-1.5.5zm-56 1 4.5.5-4.5.5zm6 1 .5 1.5-5.5 3.5-.5-.5 2.5-2.5zm27 0 .5 1.5-10 9-.5 1.5-.5-2.5 7-6 1.5-2.5zm-17 3 .5.5-8.5 8.5-2.5-1.5h2l2.5-3.5zm-59 2 .5 1.5-5.5 7.5-1.5.5 1 2-2 2 .5 1.5-1.5-.5 1-3h-2zm41 0 1.5.5-.5 1.5-1.5-.5zm-28 1 1.5.5-7 6-1 2 2 1-3.5.5-1.5-2.5zm-26 3-.5 1.5-2.5 3.5.5-1.5zm81 2 2.5.5-2.5.5zm-90 1 .5.5-2.5 2.5-.5-.5zm40 0 1.5.5-.5 3.5-1.5-2.5zm23 0 .5 1.5-1 1-.5 15.5-.5-16.5zm12 0 6.5.5-6.5.5zm-70 3 .5 3.5-1.5 2.5-.5-2.5zm-9 5 .5.5-2 2 1 1q.5 3-1.5 3.5l-.5-4.5zm8 2-.5 1.5.5 1.5 2-2 .5.5-4 4-2.5 7.5-.5-2.5 1-1 1-6zm38 0 .5 2.5h-1zm-53 2 .5 2.5h-1zm53 2 .5 11.5h-1zm-54 2 .5 4.5 1 1v5l2.5 4.5 1.5.5 2.5 4.5 2 1 .5-5.5-4-12v-3h1v3l2.5 4.5 1.5.5-2 1 2 6v8l3 3-.5.5-9.5-9.5-5-7q2-1 1-5-2.4-1.4-.5-5.5Zm75 8 .5 28.5h-1zm-77 4 .5 4.5h-1zm1 6 1.5 4.5h-1q-1.7-1.7-.5-4.5Z" opacity=".965"/><path fill="#e8b419" stroke="#e8b419" d="m256.5 293 2.5 1.5.5 1.5 7 4 5 1-.5-1.5-1-2q1-1.5 2 1l1 2q-2 1 0 2l-.5 1.5-16-8 .5 1.5 1 4h-1l-2-6 2-1zm52 5 .5 33.5h-1zm-50 5 3.5 3.5-.5.5-3.5-3.5zm19 3q4.9 2.1 5.5 8.5l-1.5.5-1-1-10-2-3-2-1 1-1.5-.5 5 7-.5.5-3.5-3.5-2-3v-3l1.5-.5 9 4 7 1-.5-1.5-4-5zm53 1 .5 2.5h-1zm1 6 .5 23.5h-1zm-56 7 18.5 4.5q-1.2 2.8-2.5.5h-4l-4-2-8-1-1.5.5zm151 7 .5.5-5.5 5.5-.5-.5zm5 0 7.5 20.5h-1l-7-18zm-223 1 .5 2.5-2.5 5.5-.5-1.5zm5 0 3.5 3.5-.5.5-3.5-3.5zm72 3 5.5 1.5-.5 1.5-5.5-1.5zm7 2 3.5.5-3.5.5zm-74 1 3.5 3.5-.5.5-3.5-3.5zm68 0 1.5 2.5q-1 1.5-2-1zm11 0 7.5.5-4.5 1.5-3-1zm123 0 .5.5-4.5 4.5-.5-.5zm-215 3 .5 1.5-2.5 5.5-.5-1.5zm18 3 2.5 2.5-.5.5-2.5-2.5zm109 0 .5 13.5h-1zm83 0 .5.5-3.5 3.5-.5-.5zm-118 2h3l3.5 1.5-2.5 1.5-3-2-2 1q-1.5-1 1-2Zm-70 3 3.5 3.5-.5.5-3.5-3.5zm184 0 .5.5-3.5 3.5-.5-.5zm-110 3 3.5 3.5-.5.5-3.5-3.5zm138 1 2.5 6.5h-1l-2-5zm-208 1 3.5 3.5-.5.5-3.5-3.5zm176 0 .5.5-3.5 3.5-.5-.5zm-4 5 .5.5-2.5 2.5-.5-.5zm-167 1 3.5 3.5-.5.5-3.5-3.5zm97 0 .5 4.5 2 3h-1l-2-3zm-27 1 .5 8.5h-1zm94 2 .5.5-2.5 2.5-.5-.5zm43 0 1.5 3.5h-1zm-203 2 3.5 3.5-.5.5-3.5-3.5zm157 2 .5.5-2.5 2.5-.5-.5zm-170 4 1.5.5q-1.7.8-1 4l3 8q-1 1.5-2-1l-1-6-1-1zm18 0 2.5 2.5-.5.5-2.5-2.5zm165 0 1.5.5q.8 4.8-1.5 6.5l-.5-2.5 1-3h-2zm-105 1 .5 6.5h-1zm87 2v2l2.5.5-4.5.5-.5-.5zm40 0 1.5.5-2 2v3l-2 3-1 5-3.5 7.5-1.5-.5 4-7zm-89 1 3.5 3.5-.5.5-3.5-3.5zm-137 1 2.5 1.5v3l6 15h-1l-4-9-2-8-1.5-1.5-1.5.5zm43 0q2.5 1 1 2l-2.5-.5zm-58 2 .5 1.5q-1 2.5-2 1zm144 1 12.5 3.5-4.5.5-6-3h-2zm115 1 1.5 3.5h-1zm-146 1 .5 4.5h-1zm-114 1-.5 1.5-.5 1.5-.5-1.5zm146 5 1.5.5-1 1-.5 5.5zm-33 1 .5 4.5h-1zm36 0 18 6 1-2 .5 2.5-3.5.5-3-2h-3l-9-3 1 3-2.5-2.5 1-1zm-106 2 5.5 7.5-.5.5-2.5-2.5-3-5zm170 2-.5 1.5-2.5 3.5-.5-.5 2-2zm-101 2 .5 3.5h-1zm35 1 .5 4.5 2 4q-1 1.5-2-1l-1-3zm62 3 .5.5-2.5 2.5-.5-.5zm-98 1 .5 2.5h-1zm-61 1 5.5 5.5-.5.5-5.5-5.5zm110 0 9 3 3 2q1.5-2.5 3 1l2.5.5 1 2-.5.5-2-2-5-1-8-4-4.5-.5zm46 2 .5.5-5.5 5.5-.5-.5zm-96 1 .5 2.5-1.5 2.5-.5-1.5zm50 0 1.5 2.5h-1zm-9 4 5.5 6.5-.5.5-5.5-5.5zm18 5 8.5 4.5-1.5.5-7-3 .5 1.5 1 3h-1l-2-5zm13 0 2.5 2.5-.5.5-2.5-2.5zm38 6 .5.5-2.5 2.5-.5-.5zm-8 9 .5.5-4.5 4.5-.5-.5zm-11 10 .5.5-2.5 2.5-.5-.5zm-6 5-.5 1.5 1 1-.5 5.5-.5-5.5-1-1zm-5 4 4.5 6.5v3h-1v-2l-4-7zm-7 4 1.5.5 1 3-1.5.5-1-1-1.5.5 2-2zm3 5 2.5 2.5 1 3-1.5.5-1.5-2.5 1-1-2-2zm-4 1 .5 2.5h-1zm13 1 .5 8.5q-1 2.5-2 1l1-1zm-13 3 .5 2.5h-1zm-87 4h3l7.5 4.5-1.5.5-7-4h-2zm95 0 2.5 3.5-1.5.5q-2.5-1-1-4Zm-7 1 .5 5.5h-1q.5-3.5-2-4h2zm-87 1 1.5 3.5h-1zm15 0 2.5 1.5q-2 1 0 2l-.5 3.5-.5-3.5-2-3zm-4 3 4.5 2.5-1.5-.5-3-1zm84 0 .5 4.5h-1zm-13 2 .5 2.5h-1zm6 2 .5 3.5h-1l-1-2zm-82 2 2 2 7.5 2.5-1.5.5-6-2-2.5-2.5zm15 0 3.5 3.5-.5.5-3.5-3.5zm12 0 2.5.5-2.5.5zm48 1 .5 2.5q-2 1 0 2l-1.5 7.5-.5-5.5 1-2-1-2zm13 0 .5 2.5h-1zm-6 2 1.5.5-2.5 9.5-.5-2.5 1-1zm-71 2 4 1 1.5 1.5-1.5.5-4-2zm8 0q2 .5 1.5 3.5l-1.5.5q-2.5-1-1-2l1.5.5zm-7 9 7.5 2.5-3.5.5-1-1-4.5-.5zm53 0 .5 2.5-1.5 2.5-.5-1.5zm-44 2 1 1h6l2.5 1.5-2.5.5-1-1-6.5-.5zm52 0 .5 3.5-2.5 3.5.5-1.5q-.6-4.1 1.5-5.5Zm-61 1 1.5 2.5q-1 1.5-2-1zm45 2 .5.5-4 4-5.5 6.5-2 1q-1.5-1 1-2l5.5-4.5zm21 0q1.5 1-1 2l-2 1q-1.5-1 1-2zm-40 4 3.5.5-1.5 1.5-7 1v-1q4.3.8 5-2Zm-13 2 4.5 1.5-3.5.5q-2.5-1-1-2Zm35 1 1.5.5-2.5 4.5-3 2-.5-.5 2-2 1.5-2.5 1.5-.5zm8 1 .5.5-2.5 2.5-.5-.5zm-42 2 2.5 2.5-.5.5-2.5-2.5zm38 1q1.5 1-1 2l-2.5-.5zm-24 2 2.5.5-2.5.5z" opacity=".965"/><path fill="#d3b676" stroke="#d3b676" d="m315.5 139 8.5.5.5 1.5 3-1v2l2-1 1 2 1.5-.5.5 1.5 1-1 5.5 5.5-.5 1.5 1.5.5-.5 1.5 1.5.5-.5 1.5 2.5 1.5.5 1.5 2-1-.5 1.5.5 2.5 2.5.5-4 1q-1.2 15.3-11.5 21.5l-6.5 3.5-.5 10.5-1-2-.5 5.5h1l.5-1.5 1 5 1.5.5-.5 1.5 3-1h12l1 1h10l1-2 9.5.5-.5 1.5q4 1 5-1l1 2 2-1 1 2q1.2-2.2 2.5.5-1.7.8-1 4l-2.5 2.5-3 1h-5l-1 1h-14l-1-1h-19l-2.5 1.5.5 3.5 1.5.5-.5 1.5-1.5-.5.5 21.5 1.5.5-1 2q2 1 0 2l-1 5q2 1 0 2l-1 3v22l2 2v14l-1 1v17l2 4v12l-1 1v9l2 4v6q-2.2 1.2-1 6 2.8 1.7 2 7l3 5q-2 1 0 2l.5 8.5 1.5.5-2 1 1 3-1 1q.8 4.8-1 7l2 3 1 7 3 6 7.5 7.5 4 3 1.5-.5.5 1.5q1.5-2.5 3 1l2-1 7.5-.5.5-1.5q2.8 2.2 9 1 1-2 2 0l3-1 1.5.5.5-1.5q12.6-5.4 20.5-15.5l5-7 7-14 3-11-1-1-.5-4.5h-6l-7 3-.5-.5 3-3q11.1-16.4 24.5-30.5l5.5 16.5 10 23-.5.5-3-3-5-3h-5l-2.5 3.5-5 16-9 16-10 13-13.5 13.5-8.5 6.5-1 2 .5 1.5-4.5.5-.5 4.5q-1.3-2.2-6-1l-20 10h-2l-9 5h-2l-16 9h-3l-14-8h-5q-1.5 3.5-3 1-8-2.5-12.5-8.5l-.5-1.5-11-5-16-10q-12.4-9.1-22.5-20.5l-12-17-6-12-5.5-16.5h-7l-6 4-.5-1.5 9-21 4-13 2-2-.5-1.5 25.5 31.5-2.5.5-4-2h-5l-1.5 1.5q.8 3.3-1 4l1 1v5l1 1 1 6 5 10q5.3 9.2 13.5 15.5l15 10 1.5-.5.5 1.5 1-1q1.5 3.5 3 1l4 2 1-1h11l2 1 2-2 1 1 2-2q1.5 2.5 3-1 5.9-1.6 9.5-5.5l3-6v-3l2-5v-4l2-3-1-3 2-4-1-3 2-3v-2q-1.8-.7-1-4 2.6-1.4 2-6-2-1-1-5 2-1 1-5l-2-6 1-3q-2-1 0-2l1-6 2-2v-13l-1-1v-20l1-1v-6l1-1v-37l-2.5-1.5-1 46-.5-46.5 2-1q.8-4.2-2-5l2-2v-29l-40.5-.5q-.8-1.7-4-1l-3.5-2.5q.8-3.3-1-4l1.5-1.5q1 2 2 0l4.5-1.5.5-1.5q3.3-.7 4 1h9l1-1h14l1 2 2.5-.5.5-1.5q4.2-.7 6 1l2-5 1.5.5-.5-9.5-1.5-.5-.5-5.5q-8.1-2.9-12.5-9.5l-3-5-.5-4.5-2 4-.5-2.5 1-1 .5-5.5 1 2 .5-5.5-.5-1.5 1.5-.5-1-2 2-1-.5-1.5 1.5-.5q-2.3-1.2.5-2.5l4.5-3.5 1.5-2.5 1.5.5.5-1.5 1.5.5.5-1.5 2 1 1-2 3 1zm.5 7-8 3-4 4-2 7h1l2-2v2h-1l-1 2h-1l-1 7 2 1-1 2h2l3 6q1 2 3 0v2l2-1 1 2 4-1v2h4v-2l3 1 4-1 5-7 2-1-1-2h2q1-4-1-4-1-5 1-5l-3-1 2-1v-3l-3-5-8-5zm-16.5-1 .5.5-7.5 7.5.5-1.5q-.5-3 1.5-3.5l1 1zm40 1 2 2 1.5-.5-1.5 1.5-2.5-2.5z" opacity=".996"/><path fill="#d3b676" stroke="#d3b676" d="m313.5 149 1.5.5-.5 1.5q-2.5-1-1-2Zm-4 2q2.5 1 1 2l-1-1-2 2-.5-.5zm51 5 3.5 1.5-1.5.5-2.5-1.5zm-8 1 3 1 3-1v1l-6 1-1 1q-2.5-1-1-2l1.5.5zm-61 1 .5 8.5h-1zm63 2 1.5.5-2.5 1.5q-1.5-1 1-2Zm-50 1 .5 5.5h-1zm57 1 12.5 1.5-10.5.5-2.5-1.5zm-16 3 .5 1.5-1.5 4.5-.5-4.5zm10 0 4 1 1-1h13v1h-10l-1 1-2-1-3 1-2.5-1.5zm21 1 2.5.5-2.5.5zm-71 3 1.5.5q-1 2.5-2 1zm64 0q4-.5 4.5 2.5l-.5.5-2-2-1 1q-2.5-1-1-2Zm11 1 4.5 2.5-2.5.5-2.5-1.5zm11 6q2.5 1 1 2l-1-1-2 2-.5-.5zm-12 1 2.5 2.5-.5.5-2.5-2.5zm-39 2-.5 1.5 1 1-2.5 2.5-1.5-1.5zm52 3q2.5 1 1 2l-1-1-1.5.5zm-7 1 6.5 5.5-1.5.5-4-4q-1.2 2.3-2.5-.5zm-58 8 .5 6.5h-1zm70 0 1.5 2.5q-1 1.5-2-1zm-88 1 .5 5.5h-1zm84 3 1 1 1.5-.5-1 1 2.5 2.5 1.5-.5-1 1 .5 1.5-1-1-3 1-4.5-4.5 1.5.5zm-4 6 1.5 2.5q-1 1.5-2-1zm-43 2 5.5.5-5.5.5zm31 6 .5 2.5-1.5 2.5-1.5-2.5h2zm-117 1 1 2 1.5.5q-1 2.5-2 1zm135 3 1.5 2.5q-1 1.5-2-1zm4 0 2.5 1.5-.5 2.5-2.5-3.5zm-7 3 .5 2.5h-1zm-26 2q3-.5 3.5 1.5l-1.5.5-2.5-1.5zm-93 1h19q1.3 2.2 6 1l2-1 3.5 1.5-17.5.5-1-1h-10q-.7 1.8-4 1v-1zm119 2 .5 2.5h-1zm-82 1 .5 18.5h-1zm89 2 2.5 1.5-.5 2.5-1.5-.5 1-1-2-2zm-5 4 1.5 5.5h-1q-1.9-2-.5-5.5Zm2 0 .5 2.5h-1zm-11 3 1 1 1.5-.5-1.5 1.5q-2.5-1-1-2Zm5 5 1 1 1.5-.5-2.5 2.5-.5-.5 1-1zm3 2 1.5 1.5-2.5 2.5-3 1v-3l3 1-.5-1.5zm-20 1 1.5.5q-1 2.5-2 1zm-14 2-.5 1.5-.5 1.5-.5-1.5zm25 0-.5 1.5 1 1-1.5 1.5-1.5-1.5zm-56 1 2.5.5-2.5.5zm33 0 .5 2.5-1.5.5.5-1.5zm-16 1 2.5 1.5-3.5 1.5v-1l1.5-.5zm20 0q2.5 1 1 2l-1-1-1.5.5zm3 1 2.5 2.5-.5.5-2.5-2.5zm-32 1q3-.5 3.5 1.5l-1.5-.5q-3 .5-2-1Zm22 0q2.5 1 1 2l-2 1-.5-1.5zm-61 1 1 2 1.5-.5-4.5 3.5-.5-.5 2-2zm45 0q2.5 1 1 2l-2.5-.5zm33 0 2.5 1.5-1.5.5q-2.5-1-1-2Zm-72 2-.5 1.5 3 3-.5.5-3.5-3.5zm43 1 .5 1.5-1.5 2.5-2.5-.5 3-2zm13 0q1 2 2 0l1.5 1.5-4.5 1.5q-2.5-1-1-2l1.5.5zm-75 1 .5.5-6 6 1 1-3.5 3.5q-2.8-1.2-.5-2.5l-2-2 2-2q-2.3-1.2.5-2.5l-.5 1.5 2.5 2.5zm65 0 2.5 1.5-1.5.5q-2.5-1-1-2Zm-62 2-.5 1.5 2 2-.5 1.5-2 1-1.5-2.5 1.5.5 1.5-.5q-3.7-1.7-.5-3.5Zm2 0 1.5.5 1 2-1.5-.5-1.5-.5zm9 1 2.5 2.5-.5.5-3.5-.5 2-1zm-26 1 .5 1.5q-1 2.5-2 1zm-6 1-.5 1.5 1 1-2.5 2.5.5-1.5q-.5-3 1.5-3.5Zm62 2 .5 26.5h-1zm-54 4 .5 1.5-2.5 2.5-.5-.5zm-17 3 .5 2.5h-1zm0 5 .5 3.5h-1zm4 3 .5 2.5h-1zm-3 2 .5 3.5h-1zm0 5q2.5 1 1 2l-1.5-.5zm0 13 2.5 2.5-.5.5-2.5-2.5zm7 0 1.5 1.5-1 1 .5 1.5-1.5-1.5 1-1zm-2 4 2.5 1.5 1 2-.5.5-3.5-3.5zm66 0 .5 22.5h-1zm-64 6 5.5 3.5-.5 1.5-2-2-1.5.5-.5-1.5-3 3-.5-.5 3-3zm2 5 1.5.5 1 2-.5.5-2.5-2.5zm7 1 1.5.5-.5 1.5q-2.5-1-1-2Zm5 2 1.5.5-.5 2.5zm-7 5 .5 1.5q-1 2.5-2 1zm3 0 6 2 1.5 1.5-1.5-.5-6-1-2 2-.5-.5zm34 7 .5 2.5h-1zm-25 3 10.5 4.5-2.5.5-6-2-2.5-2.5zm-2 1 .5 1.5q-1 2.5-2 1zm27 0 .5 7.5h-1zm121 1 1.5 3.5q-1 1.5-2-1zm-100 1 .5 14.5h-1zm95 1 1 1 1.5-.5-2.5 3.5.5-1.5-.5-1.5-1.5.5zm-124 1-.5 1.5-1.5 2.5.5-1.5zm-89 1 4 4q1.3-2.2 2.5.5h-2l4.5 5.5q1.3-2.2 2.5.5h-2l4 5-.5.5-4.5-4.5-9-11zm84 5 10.5 4.5-1.5.5-4-2h-3l-2.5-2.5zm125 1 .5.5-5 5-4.5 5.5-.5-.5 4-4zm-123 3 1.5.5-.5 1.5-1-1-1.5.5zm139 6 1.5 3.5h-1zm-211 2 4 4 1.5-.5-1 2 3.5 3.5q1.3-2.2 2.5.5h-2l4.5 5.5 1.5-.5-1 2 .5 1.5-14.5-17.5zm105 0 .5 9.5h-1zm80 1 .5.5-3.5 3.5-.5-.5zm-103 5 .5 2.5h-1zm99 0 .5.5-3 3-3.5 4.5q-2.5-1-1-2l1 1 2.5-2.5-1-2 1.5.5zm33 0 3.5 8.5h-1l-3-7zm-133 9 .5 4.5h-1zm93 0 .5.5-3.5 3.5v-3q1.5 2.5 3-1Zm-65 1q2.5 1 1 2l-1.5-.5zm109 0 4.5 10.5q-1 2.5-2 1 2-1 0-2v-2l-3-6zm-213 2 1.5.5-2.5 1.5q-1.5-1 1-2Zm13 1 2 4 1.5-.5-1.5 1.5-1-1-1.5.5-1.5-2.5-2 2-.5-.5 2.5-2.5 2 2 .5-.5zm150 1 3.5 2.5-3.5 1.5.5-1.5zm5 0 2.5 1.5-1.5.5q-2.5-1-1-2Zm-63 1 .5 1.5q-1 2.5-2 1zm2 2 1.5.5-.5 1.5q-2.5-1-1-2Zm5 1q2 .5 1.5 3.5-1 2.5-2 1l1-3zm-37 1 .5 3.5h-1zm-113 3 2.5 2.5-.5.5-2.5-2.5z" opacity=".996"/><path fill="#d3b676" stroke="#d3b676" d="m449.5 376 .5.5-2.5 2.5-.5-1.5zm-40 1 .5 2.5-2.5 5.5-1.5.5.5 1.5-2 1 .5-1.5zm-218 1 1.5 2.5q-1 2.5-2 1zm38 1 4.5 8.5-1.5-.5-1.5-.5.5-1.5-1.5-.5-1-3zm113 1 3.5 2.5-1.5-.5-2.5-.5zm0 3 2.5 2.5-.5.5-2.5-2.5zm13 3 1.5.5-.5 1.5-1.5-.5zm-11 1 .5 2.5-1 1 .5 1.5q-2.7-1.2-.5-2.5zm-9 1 .5 3.5h-1zm16 3q4-.5 4.5 2.5l-1.5-.5-1 1-1-1-1.5-.5zm-117 1 1 1 1.5-.5-1.5 1.5q-2.5-1-1-2Zm117 2 2.5 1.5-1.5.5q-2.5-1-1-2Zm-115 1 3.5 4.5q-1 1.5-2-1l-2-3zm163 0 1 1 1.5-.5-3.5 4.5-.5-.5 2-2zm-47 3 1.5 2.5q-1 1.5-2-1zm-14 1 2.5 4.5q-1 2.5-2 1l.5-1.5-1.5-.5zm59 2 .5.5-5.5 5.5-.5-.5zm-43 2q1 2 2 0l1.5 1.5-1.5-.5-1 1q-2.5-1-1-2Zm-55 1q2.5 1 1 2l-2 1 .5-1.5zm42 1q2.5 1 1 2l-1-1-1.5.5zm72 1q2.5 1 1 2l-1-1-1.5.5zm-182 8 2.5 2.5-1 1 .5 1.5-2.5-2.5 1-1zm136 0 .5 2.5h-1zm39 1 1.5 1.5-3.5 3.5.5-1.5-1-1zm-165 11q1 2 2 0l2.5 2.5-1.5-.5-1 1-2.5-2.5zm152 2 1 1 1.5-.5-3.5 3.5-1.5-1.5zm-145 4 1 1 1.5-.5-1.5 1.5q-2.5-1-1-2Zm138 2 1.5 1.5-2.5 2.5-1.5-1.5zm-105 17 2.5 2.5-1.5 1.5-2.5-2.5zm5 5 2.5 2.5-.5.5q-1-2-2 0l-1.5-1.5zm89 5 1.5.5-.5 1.5q-2.5-1-1-2Zm-86 1 1.5 1.5-.5 1.5 1.5.5-1.5.5-2.5-2.5zm80 3 2 1 1.5-.5q-.5 2-3.5 1.5zm-80 2 2 2 1.5-.5-1.5 1.5-2.5-2.5zm6 0 4 1 1.5-.5q-2.5 1.5 1 3l-1.5 1.5v-2l-2 1-1-2-1.5.5-.5-1.5-1.5.5zm81 1 .5 2.5h-1zm-4 2 .5 4.5h-1zm-64 5 2.5 1.5-.5 1.5-1-2-1.5.5zm69 0 1 1 1.5-.5-1.5 2.5-2.5.5.5 1.5-1.5-2.5 2-1zm-9 2 .5 4.5h-1zm5 0-.5 1.5-1.5 3.5q-2.5-1-1-2l1.5-.5zm-11 1 .5 1.5-1 2 2 2-.5.5q-1.2-2.2-2.5.5l-.5 1.5-1.5-.5-.5 1.5-.5-1.5zm-58 1 7.5 3.5-.5 1.5-6-2-2 2-.5-.5 2-3-.5-.5-3 3-.5-.5z" opacity=".996"/><path fill="#d3b676" stroke="#d3b676" d="m306.5 483 3.5 1.5 1 2-1.5.5-3.5-3.5zm11 2 3.5 1.5-2.5 1.5zm47 2 .5 1.5-2.5 1.5-.5-1.5zm3 1 1 2 2-2 .5.5-5.5 4.5v-1l1.5-.5zm-58 2 2.5 1.5-1.5 2.5.5-1.5-2-2zm4 0q1.8 1.7 6 1l1 1h4l1 1q1.3-2.2 2.5.5l-1.5-.5-1 1-1-1h-7l-3-1q-2.5-1-1-2Zm37 0 .5.5-2.5 2.5-.5-.5zm-4 4 .5 1.5q-2 1 0 2l-2.5 2.5 1.5-4.5zm-11 3 1.5.5-1.5 1.5-6 1q-2.5-1-1-2h6zm3 0 1 1 1-1 1 1 1.5-.5-1.5 1.5-1.5-.5-.5 1.5z" opacity=".996"/><path fill="#d3b676" stroke="#d3b676" d="m324.5 499 2 2q4.8-.7 6.5 1.5l-2.5.5q-.7-1.7-4-1l-2 1 .5-1.5-1-1zm31 0 1 1 1.5-.5-5.5 3.5q-1.5-1 1-2l1.5-.5zm-21 1 .5 2.5h-1zm7 1q2.5 1 1 2l-1-1-1.5.5zm-4 3q3-.5 3.5 1.5l-4.5.5q-1.5-1 1-2Z" opacity=".996"/><path fill="#fbc81b" stroke="#fbc81b" d="m313.5 134 2.5.5-2.5.5zm10 0 2.5.5-2.5.5zm-24 6 .5.5-4.5 4.5-.5-.5zm46 10 3.5 1.5-2.5.5q-2.5-1-1-2Zm-56 7 .5 2.5h-1zm81 0v2l2.5.5-4.5.5-.5-.5zm-64 4 .5 4.5h-1zm75 1 2.5 2.5-.5.5-2.5-2.5zm-92 4 .5 3.5h-1zm95 0 .5 2.5h-1zm-76 4 3.5 3.5-.5.5-3.5-3.5zm80 0 4.5 4.5-.5.5-4.5-4.5zm-73 5 6.5.5-6.5.5zm79 4 .5 3.5h-1zm-87 14 .5 6.5-1.5 1.5h-15v-1l15.5-.5zm41 6 18.5.5-18.5.5zm-79 1 2.5.5-2.5.5zm62 0 7.5.5-7.5.5zm73 7 .5 3.5h-1zm-146 2 .5 4.5h-1zm121 2 .5 2.5h-1zm11 8 .5 5.5-2.5 1.5v-1l1.5-.5zm14 0 .5 5.5h-1zm-27 14 1.5.5-2.5 1.5q-1.5-1 1-2Zm-11 7 1.5.5q-1 2.5-2 1zm-61 1 2.5.5-2.5.5zm-19 3 2.5.5-2.5.5zm20 0 .5.5-2.5 2.5-1.5-.5zm-23 1 1.5.5-4.5 2.5q-1.5-1 1-2zm8 0 1 1 1.5-.5-1.5 1.5-1.5-.5-1.5 2.5.5-1.5zm-13 3q1.5 1-1 2l-1.5-.5zm-7 1 1.5.5q-5.1 1.4-7.5 5.5l-.5-.5 4.5-4.5zm68 4 2.5.5-2.5.5zm-31 4 .5 40.5h-1zm22 1 .5 18.5h-1zm-70 1 2.5 2.5-1.5 1.5-1-3-3 3-.5-.5zm7 17 .5 1.5-2.5 2.5-.5-.5zm-14 10 .5 2.5h-1zm14 2 .5 2.5h-1zm64 5 .5 19.5h-1zm-58 8 .5 2.5h-1zm15 16 4.5 4.5-.5.5-4.5-4.5zm19 4 .5 14.5q-1 2.5-2 1l1-1zm122 2q2.5 1 1 2l-1-1-5 5-.5-.5zm-220 1 4.5 3.5-.5.5-3-3q-2.4-.1-1-1Zm123 3 .5 12.5h-1zm-31 2 3.5 3.5-.5.5-3.5-3.5zm-75 14 2.5 2.5-.5.5-2.5-2.5zm107 5 .5 7.5h-1zm-28 15 .5 4.5h-1zm37 6 3.5 3.5-.5.5-3.5-3.5zm-94 1 2.5 2.5-.5.5-2.5-2.5zm56 3 .5 3.5h-1zm86 0 2.5.5-2.5.5zm-42 5 .5 1.5-1.5.5q-1.5-1 1-2Zm-45 3 .5 2.5h-1zm49 0 2.5 2.5-.5.5-2.5-2.5zm-50 6 .5 2.5h-1zm35 1 .5 2.5h-1zm24 4 5.5 5.5-.5.5-5.5-5.5zm-122 2 8.5 8.5-.5.5-8.5-8.5zm157 3 .5.5-8.5 8.5-.5-.5zm-56 3 1.5 2.5q-1 1.5-2-1zm29 4 4.5 4.5-.5.5-4.5-4.5zm-21 6 4.5 2.5-1.5.5-3.5-2.5zm-66 3 2.5.5-2.5.5zm-10 1 6.5.5-6.5.5zm114 30 .5 3.5q-1 2.5-2 1zm-14 15 .5 3.5h-1zm9 11 .5 3.5h-1zm-28 15 .5.5-4.5 4.5-.5-.5zm-30 4 2.5.5-2.5.5z" opacity=".702"/><path fill="#f0d589" stroke="#f0d589" d="m318.5 134 2.5.5-2.5.5zm-7 1 2.5.5-2.5.5zm14 0 2.5.5-2.5.5zm-8 1q4.8-.7 6.5 1.5l-10.5.5-2 1-.5-1.5 5.5-.5zm-12 1 1.5.5-2 1 2 2-.5.5-1.5-.5-.5 1.5-.5-1.5q2-1 0-2zm21 0 1.5.5q-1 2.5-2 1zm3 1 1.5.5q-1 2.5-2 1zm5 0 3.5 3.5-1 1 3 3-.5.5-2.5-1.5-2-3 1-1-2-2zm-32 1-.5 1.5 1 1-1 1-1.5 2.5-4 3-.5-.5 2-2-1-1zm30 0 1.5 2.5h-1zm-20 1 2.5.5-2.5.5zm12 0 4.5 1.5-1.5.5-3-1zm-22 5 .5.5-3.5 3.5-.5-.5zm13 1 8.5.5-8.5.5zm1 2 2.5.5-2.5.5zm-9 1 .5.5-3 3-1.5 3.5-.5-1.5zm8 1 7.5.5-7.5.5-6 3v-1zm9 1 4.5 3.5-.5.5-3-3q-2.4-.1-1-1Zm4 0 2.5 2.5-.5.5-2.5-2.5zm17 1 5.5.5-2 1 1 3q-1 1.5-2-1 2.3-1.2-.5-2.5l-1.5.5-.5 1.5q-3-1.5 0-3Z" opacity=".996"/><path fill="#f0d589" stroke="#f0d589" d="M353.5 153v2l1.5.5-1.5.5q-3-1.5 0-3Zm3 1q6.5-1.5 8 2l1.5-.5-1 1 .5 1.5-3-3h-6zm-22 1 .5 3.5-1.5.5.5-1.5zm-30 2 .5.5-2.5 2.5-.5-1.5zm49 0q3-.5 3.5 1.5l-1.5-.5q-3 .5-2-1Zm-59 1 .5 5.5h-1zm73 2 7.5.5-7 1 6 1-8.5.5v-1l1.5-.5zm-10 1 .5 1.5-1.5.5q-1.5-1 1-2Zm-56 1 .5 6.5h-1zm76 1 2 1 1.5-.5-.5 1.5q-3.8.5-3-2Zm-34 2 1.5.5-1 1-.5 4.5-1.5-.5zm-8 1 .5 3.5h-1zm-41 1 .5 3.5-1.5 2.5-.5-4.5zm65 0 5.5.5-5.5.5zm12 0 5.5.5-4.5 1.5q-2.5-1-1-2Zm-40 2 .5.5-2.5 2.5-.5-.5zm51 0 2.5.5-2.5.5zm-76 1q2.9 4.1 8.5 5.5l-3.5 2.5 1-3-2 1v-2l-1.5.5-.5 1.5-1.5-2.5 1-1-2-2zm65 1 5.5 2.5-1.5.5-4-2zm14 1 .5.5-2.5 2.5-.5-.5zm-58 1 1 1 1.5-.5-.5 1.5-1.5.5-.5 1.5-1-2-1.5.5.5 1.5-1.5.5-.5 1.5q-1-2-2 0-4.7 1.3-6-1l-1.5.5.5-1.5q1.8-1.7 6-1v1l-4.5.5 5.5.5 2.5-1.5-.5-1.5zm12 3 .5.5-6.5 6.5-.5-.5zm-41 1 4.5 4.5-.5.5-4.5-4.5zm30 1q1.5 1-1 2l-4 1v-1h2zm-33 2q4.6 5.9 11.5 9.5l-1.5-.5-4-2-6.5-6.5zm17 0 2.5.5-2.5.5zm5 1 3.5.5-3.5.5zm63 0 4.5 4.5-.5.5-4.5-4.5zm-43 3 .5.5-2.5 2.5-.5-.5zm-4 3q1.5 1-1 2l-1.5-.5zm63 1-.5 1.5-.5 1.5-.5-1.5zm-70 1q2.5 1 1 2l-1.5-.5zm-14 3 .5 9.5h-1zm12 3 .5 5.5h-1zm64 1 2.5 2.5-.5.5-2.5-2.5zm8 0 1.5.5-.5 1.5q-2.5-1-1-2Zm-123 4 12.5.5-12.5.5zm35 0 .5 2.5-1.5.5-2.5-1.5 1.5-.5 1.5.5zm35 0 9.5.5-9.5.5zm22 0 3.5.5-3.5.5zm-98 1 2.5.5-2.5.5zm33 0 3.5.5-3.5.5zm30 0q1.5 3.5 8 2l3-1 27.5.5-.5 1.5-2-1h-20l-1 1h-14l-3.5-1.5zm-57 1h15l1 1q1-2 2 0l14.5.5-34.5.5v-1zm-6 1 2.5.5-1.5 1.5q-2.5-1-1-2Zm104 0 1.5.5q-1 2.5-2 1zm24 0-.5 1.5 2.5 2.5 1.5-.5-2.5 2.5-.5-.5 1-1-2.5-2.5-1.5-.5zm-120 2 9.5.5-9.5.5zm52 0 2.5.5-2.5.5zm16 0 10.5.5-10.5.5zm20 0 4.5.5-4.5.5zm10 0 2 1 1.5-.5q-1.2 2.8-2.5.5-2.4-.1-1-1Zm-105 1 2.5.5q-4.9.6-7 4l-.5 2.5-.5-2.5zm32 0 2.5.5-2.5.5z" opacity=".996"/><path fill="#f0d589" stroke="#f0d589" d="M372.5 207q3.3.8 2.5 5.5l-2.5 2.5-.5-.5q2.8-.7 2-5l-2-2zm26 4 1.5.5-.5 1.5q-2.5-1-1-2Zm-6 4 2.5 2.5-.5.5-1.5-.5-.5-1.5-1.5.5zm-64 1 19.5.5-19.5.5zm35 0 3.5.5-3.5.5zm-88 1 6.5.5-6.5.5zm100 0q1.5 1-1 2l-4 1v-1h2zm-112 1 2.5 1.5-1.5.5q-2.5-1-1-2Zm68 0 17.5.5-17.5.5zm-64 2 3.5.5-3.5.5zm64 0 37.5.5-37.5.5zm-58 1 16.5.5-16.5.5zm19 0 2.5.5-2.5.5zm95 7 .5 1.5q-1 2.5-2 1zm3 0 1.5.5q-1 2.5-2 1zm4 4 .5 1.5q-1 2.5-2 1zm-15 1 1.5.5-.5 1.5q-1-2-2 0l-1.5-.5zm-4 2 .5.5-2.5 2.5-3 2-.5-.5 2.5-2.5zm-15 3 2.5.5-.5 1.5-2.5-1.5zm-13 1 5.5.5-.5 1.5-3-1v1l1.5.5-1.5.5-2.5-1.5zm21 1 .5.5-2.5 2.5-.5-.5zm-37 1 2.5 1.5-1.5-.5q-2.4-.1-1-1Zm23 0 1.5 1.5-3.5 3.5-.5-.5 2-2-1-1zm18 0 1.5.5-3.5 3.5-.5-.5zm-69 1 1.5.5-.5 1.5q-2.5-1-1-2Zm36 0v2l2.5 1.5-1.5-.5-2.5-1.5zm-43 2 1.5.5-5 3 2 3h-1l-1.5-2.5-5 4-.5-.5 3.5-3.5zm12 0-1 3 1.5.5-2.5 1.5-1-1-1.5.5 1.5-2.5zm20 0v2l1.5.5-2.5.5-.5-1.5zm21 0 .5.5-2.5 2.5-.5-.5zm10 0 2 2 1.5-.5-1.5 1.5-2.5-2.5zm-78 3 .5.5-2.5 2.5-.5-.5zm88 0q1.5 1-1 2l-5 2v-1zm9 0 1.5.5-4.5 1.5v-1zm-104 2 1.5.5.5 1.5 1.5-.5-.5 1.5-3.5-2.5zm35 0 2.5 1.5-1.5-.5q-2.4-.1-1-1Zm18 1 2.5.5-3 1 1 3q-1 1.5-2-1-.5-3 1.5-3.5Zm9 1 1.5.5-3.5 1.5v-1zm23 0 2.5.5-2.5.5zm-13 1 4.5.5-4.5.5zm-73 1q2.8 1.3.5 2.5l-.5 1.5-.5-1.5 1-1zm20 0 .5.5-2.5 2.5-2 1q-1.5-1 1-2zm-8 1 1.5.5-2.5 1.5q-1.5-1 1-2Zm19 0 2.5.5-5.5 1.5v-1zm-34 2 .5 4.5-1.5-.5-1.5-.5zm43 0 .5 37.5h-1zm-26 1q1.5 1-1 2l-1.5-.5zm-13 1-.5 1.5-.5 1.5-1.5-.5zm5 0 .5.5-5.5 5.5-.5-.5zm46 0 .5 22.5h-1zm-66 6 1.5.5-2.5 1.5q-1.5-1 1-2Zm4 2 .5 2.5-3.5 1.5-.5-.5zm-4 9 1.5 3.5q-1 2.5-2 1zm-6 5q1 2 2 0l1.5 1.5-1.5 1.5-2.5-2.5zm73 17 .5 17.5h-1zm-68 5 6.5 5.5-1.5.5-5.5-5.5zm17 3 3.5 4.5h-1l-3-4zm-7 10 2.5 2.5-.5.5-2.5-2.5zm12 0 3.5.5-4.5 1.5q-1.5-1 1-2Zm-8 3 2.5 1.5-1.5.5q-2.5-1-1-2Zm15 0 2.5 1.5q-2 1 0 2l-1.5 1.5v-4q-2.4-.1-1-1Zm25 4 .5 13.5h-1zm117 2 1.5 2.5-2.5 2.5-1-1-1.5.5zm.5 1-2 3q1 1 2-1zm-138.5 0 3.5 1.5-4.5 1.5.5-1.5zm-82 1 2 3 .5-1.5-.5-1.5 1.5 2.5-1 1 2 2-.5.5-3-3-1.5.5q2-1 0-2zm87 1 2.5 1.5-1.5-.5q-2.4-.1-1-1Zm31 4 .5 9.5h-1zm98 0-.5 1.5-5.5 6.5-.5-.5 2-2-1-1 1.5-1.5q1.3 2.2 2.5-.5zm-125 5q4.8-.8 7 1l1.5-.5q-.5 2-3.5 1.5-1-2-5-1zm-10 2 4.5 2.5-1.5.5-3.5-2.5zm12 0 1.5.5-3.5 2.5-.5-.5zm7 3 .5 2.5h-1zm-5 2 .5 1.5-2.5 1.5-.5-.5zm-2 5 3.5 3.5-.5.5-3.5-3.5zm26 3 .5 5.5h-1zm-103 12 5.5.5-5.5.5zm183 0 6.5.5-6.5.5zm-98 1 .5 3.5h-1zm25 2q2.5 1 1 2l-1.5-.5zm95 0 5.5.5-5.5.5-1 1q-1.5-1 1-2Zm-21 1q1.5 1-1 2l-6 1v-1l6-1zm-206 1 1.5.5-2.5 1.5q-1.5-1 1-2Zm28 0 9 3h3l2.5 1.5-1.5.5-1-1h-3l-9-3zm107 0 2.5 1.5-1.5-.5-1.5.5-.5 1.5-.5-1.5zm90 1 1.5 2.5-1.5 3.5-1.5.5-.5 1.5-.5-1.5zm-223 1 2.5.5-2.5.5zm193 0 2.5.5-5.5 1.5v-1zm-187 1 1.5 4.5q-1 2.5-2 1l1-2-2-1zm223 0q3.9.6 5.5 3.5l-.5.5-2-2-3-1zm-229 1q1.5 1-1 2l-12 8-.5-.5 2.5-2.5zm104 2 .5 2.5h-1zm132 1 7.5 4.5-1.5.5-4-2-2.5-2.5zm-228 2 .5 1.5q-1 2.5-2 1zm133 2 .5 1.5-3.5 3.5-.5-.5zm-8 1q1.5 1-1 2l-1.5-.5zm10 0 2.5 1.5-1.5-.5q-2.4-.1-1-1Zm-116 7q2.5 1 1 2l-1.5-.5zm173 0 .5 1.5-3.5 3.5-.5-.5zm-54 2 1.5.5-2.5 1.5q-1.5-1 1-2Zm5 2q4.8.3 6.5 3.5l-.5.5-2-2-4-1 .5 1.5-2.5 2.5-.5-.5 2-2-1-1zm-11 1 4.5 3.5-1.5-.5-3.5-2.5zm-106 4 5.5 5.5q-2.3 1.3.5 2.5l1.5-.5-.5-1.5 2.5 2.5q-2.2 1.3.5 2.5l1.5-.5-.5-1.5 1.5 1.5q-2.2 1.2.5 2.5l3 1v-2l1.5 1.5-1 1 .5 1.5-6-4-2.5-.5-1.5-2.5q-4.6-.9-6.5-4.5l-1-2 1-1zm124 3q1.5 1-1 2l-1.5-.5zm33 0 1.5 1.5-6.5 6.5-2.5 1.5-.5 1.5-.5-1.5q2-1 0-2l2.5-2.5v2l2.5-1.5-1-1zm-177 1 2.5 3.5q-1 1.5-2-1zm133 2 6.5 5.5-.5.5-2-2-4.5-3.5zm12 1h2l4.5 3.5 1 2q-1 1.5-2-1l-.5-1.5-3-2h-2l-1.5.5z" opacity=".996"/><path fill="#f0d589" stroke="#f0d589" d="m366.5 406 .5.5-2.5 2.5-.5-.5zm44 0 .5.5-2.5 2.5-.5-.5zm-113 1v2l1.5.5-2 1-.5 1.5-.5-1.5q2-1 0-2zm44 0 4 4 1-1 2.5 1.5-.5 1.5 2-1v2l3-1v1l-1.5.5 2 1q-1 2.5-2 1l-.5-1.5-4-2-1.5.5-1.5-2.5-2.5-1.5zm45 0-.5 1.5 1 1-1.5 1.5v-2l-2 1q-1.5-1 1-2zm-162 1 2.5 2.5-.5.5-2.5-2.5zm190 0 .5.5-2.5 2.5-.5-.5zm-183 2 2.5 2.5-.5.5-2.5-2.5zm150 0v2l2-1-.5 1.5-.5 1.5-1.5-.5-.5 1.5-3-2 1 3-3-2-1.5.5zm25 1 .5.5-2.5 2.5-.5-.5zm-179 1 16 17 19 14 17.5 9.5-1.5-.5q-29.2-12.8-48.5-35.5l-3-4zm35 0 1.5.5-2 1 2 1q-1 2.5-2 1l-.5-1.5-1.5-.5zm149 0 .5.5-3.5 3.5-.5-.5zm-126 1 3.5 1.5-1.5.5-2.5-1.5zm-16 1 2.5.5-2.5.5zm10 0 3.5.5-3.5.5zm76 0 4.5 1.5-2 1-.5 1.5-2.5-1.5 3-1-2.5-.5zm-90 1 1.5.5q-1 2.5-2 1zm19 0 1.5.5-.5 1.5q-2.5-1-1-2Zm-16 1 10 1q.8-1.7 4-1 1.5 1-1 2h-11l-2.5-1.5z" opacity=".996"/><path fill="#f0d589" stroke="#f0d589" d="m234.5 417 8.5 8.5-.5.5-8.5-8.5zm173 0 .5.5-15.5 15.5-6 5-.5-.5 5.5-5.5zm-169 1 3.5 3.5-.5.5-3.5-3.5zm165 0 .5.5-9.5 9.5-.5-.5zm-4 1 .5.5-4.5 4.5-.5-.5zm-152 7 2.5 2.5-.5.5-2.5-2.5zm142 2 .5.5-3.5 3.5-.5-.5zm-6 9q1.5 1-1 2l-1.5-.5zm-6 4 2.5 1.5-1.5.5q-2.5-1-1-2Zm5 2 1.5.5q-1 2.5-2 1zm-7 2 1 1 1.5-.5-1.5 1.5q-2.5-1-1-2Zm-4 1 1.5.5-23.5 11.5h-2l-25 13q-1.5-1 1-2zm2 3 2.5 1.5-3.5 1.5-.5-1.5zm-92 5 5.5 5.5-.5.5-5.5-5.5zm18 4 5.5.5-5.5.5-1 1q-1.5-1 1-2Zm71 4 2.5 2.5-.5.5-2.5-2.5zm-66 1 15.5 7.5-2.5.5-13-7zm72 0 1.5 5.5q-1 1.5-2-1zm-80 1 .5.5-2.5 2.5-.5-.5zm6 3 1 2 3.5 2.5-.5.5-2-2-3.5-1.5zm-13 1 5.5 4.5-.5.5-2-2-3.5-2.5zm76 6 .5.5-2.5 2.5-.5-.5zm2 1-.5 1.5-.5 1.5-.5-1.5zm-58 3 2 2 4 1 6.5 5.5-.5.5-2-2-1.5.5-2.5-3.5-5-1-1.5.5 1-2zm54 0 .5 1.5q-1 2.5-2 1zm-67 1 8.5 5.5-1.5.5-6-4q-2.5-1-1-2Zm58 6 2.5.5-3 1 3 1-2.5.5-1.5-.5-1.5 2.5.5-1.5zm8 1 .5 1.5q-1 2.5-2 1zm-41 4 1.5.5-2.5 1.5q-1.5-1 1-2Zm4 0 2.5.5-2.5.5zm-19 1 4 3 5 1 1.5 1.5 1 3q-1 1.5-2-1l-.5-2.5-5-1-4.5-3.5zm24 0 2 2 1.5-.5-.5 1.5-2-1-1.5.5 1-1zm13 1 2.5.5-.5 1.5-2.5-1.5zm12 1 .5 2.5h-1zm-20 1 1.5.5-3 2 .5 1.5-2.5-1.5zm26 2 .5.5-4.5 4.5-.5-.5zm-39 1 4.5.5-4.5.5-1 1q-1.5-1 1-2Zm22 0 .5.5-2.5 2.5-.5-.5zm-7 3 2.5 1.5h-3zm-17 1 4 2 7.5.5-7.5.5-3-1q-2.5-1-1-2Zm29 0 .5.5-3.5 3.5-6 2h-3v-1l7-1zm2 1q2.5 1 1 2l-1.5-.5z" opacity=".996"/><path fill="#faf3de" stroke="#faf3de" d="M314.5 135h10l1 1 6 1 9.5 8.5 1 2q-1 1.5-2-1l-2.5-3.5-1 1-2.5-2.5-.5-1.5q-1 2-2 0l-1.5-.5.5-1.5-3 1v-2l-3 1q-1.7-2.8-7-2l-1 1-5.5.5-.5 1.5-2-1-1 2-2 1-1.5-.5-1.5 2.5-1-1-5.5 5.5-.5 1.5-.5-1.5 8.5-8.5 6-3q4 1 5-1Z" opacity=".996"/><path fill="#faf3de" stroke="#faf3de" d="M313.5 147h12q4.8 1.7 7.5 5.5l1 5h-1l-4.5-6.5-6-3h-6l-7 3-3.5 3.5-2.5 3.5-.5-1.5q1.7-4.8 5.5-7.5zm30 3 1.5 2.5q-1 1.5-2-1zm3 3 2 1q.8-1.7 4-1 1.5 1-1 2l-2-1-2 1q-2.5-1-1-2Zm9 2h7l1 1q1.3-2.2 2.5.5l-1.5-.5-1 1-4-1-1 1h-8v-1q4 1 5-1Zm2 3 3.5.5-7.5 2.5h-3l-4.5 2.5-.5 1.5-1.5-.5 1.5-3.5h3zm4 3 5.5.5-5.5.5-2.5 1.5 18 1-17.5.5-2.5-1.5z" opacity=".996"/><path fill="#faf3de" stroke="#faf3de" d="M368.5 161h8l3.5 1.5-.5 1.5-6-2h-5zm5 7h6q1.4 2.6 6 2l3.5 2.5 2 3-.5.5-3-3-9-4h-5zm-79 3q2.6 6.9 8 11l8.5 5.5-.5 2.5-12.5-9.5-4-6zm12 0q4.1 5.9 14 6l3-1 2 1v-2l5-4 .5.5-3 3 .5 1.5-1.5-.5-1.5 2.5-3-1v2q-1.2-2.2-6-1l-1.5.5.5-1.5-3 1-3.5-2.5-3-4zm36 0 1.5.5q-2.5 8-8.5 12.5-5.2 1.8-8 6-2.7-1.2-.5-2.5l.5-1.5q8.1-2.9 12.5-9.5z" opacity=".996"/><path fill="#faf3de" stroke="#faf3de" d="m377.5 171 10 4 2.5 2.5-1.5-.5q-4.2-3.8-11-5zm3 6 7.5 2.5-1.5.5-3-1-1 1-2.5-2.5zm3 4 4 2 7.5 6.5-1.5-.5-10-7zm8 1 4.5 5.5-.5.5-3.5-3.5zm-5 7q2.5 1 1 2l-1.5-.5zm2 3q7.9 2.1 11.5 8.5l-.5 1.5-6-7-5-2zm3 4 8.5 9.5-.5.5-4.5-4.5-4-5zm-38 4h11q1.3 2.2 6 1l3 1 2.5 2.5 1 2-.5.5-2-2-2.5-.5.5-1.5-3 1-1-2h-27l-1 1q-1-2-2 0-6 1.5-7.5-1.5l21.5-.5zm-83 1h27l1 1q1-2 2 0 3.3.8 4-1l2 1 1.5-.5-1 1 .5 1.5-2-1h-14l-1-1q-1 2-2 0h-15l-3 2-3-1v2l-5 2-.5-1.5 2.5-2.5zm120 1 7.5 6.5 1 2q-1 1.5-2-1l-2.5-3.5-2.5-.5-2-3zm4 7 6.5 11.5v2q-1 1.5-2-1l-5-11zm-19 3 .5 2.5-6.5 3.5q-4.7-1.2-6 1h-14l-1-1h-17l-4 3q-2.7-1.2-.5-2.5l.5-1.5h39l6-2zm-113 1 7 4 12 1 1-1h28l1.5 3.5-1.5.5-2-2h-38l-6-2-2.5-2.5zm131 5 2.5.5-2.5.5zm-4 8 .5 1.5q-2 1 0 2l-1.5 1.5-3.5 2.5-7.5 11.5-1.5-.5 7-10 5-5q-.5-3 1.5-3.5Zm-10 8 .5 1.5-4 1 .5 1.5q-8.6 3.4-14 10h-2v-1l4-2 12-10zm8 0 .5 1.5q-2.7 5.8-7.5 9.5l-1.5-.5q5.6-3.9 8.5-10.5Zm7 0 .5 1.5-2.5 3.5-1.5-.5zm-31 4 3.5.5-4.5 2.5h-3l-4 3q-1-2-2 0-5.7 1.3-8 6l-.5-1.5 10.5-7.5 6-2 1.5.5zm-35 2 4 2q1-2 5-1 1.5 1-1 2l-4 1-2 2h-2v-1l3.5-1.5-4-3zm17 0 3 1 3-1 .5 1.5-1.5-.5q-1.8 1.7-6 1l-11 5v-1zm-40 2 1.5.5q-1 2.5-2 1zm66 0 .5.5-3.5 3.5-3 2-.5-.5 2.5-2.5zm-71 1 3.5.5q-1.2 2.7-2.5.5l-1.5.5.5 1.5q-8.2.8-11.5 6.5l-.5 1.5-1.5-.5q4.8-7.2 13.5-10.5Zm59 0 1.5.5-5.5 4.5-8 3q-1.5-1 1-2l4-1zm-50 1 .5.5-5.5 5.5-5 3v-1q6.1-2.9 10-8Zm35 0 2.5 1.5-1.5-.5-9 5-5 1-4 3-.5-2.5 3.5-1.5h3zm-57 1 3.5.5-10.5 4.5-6 6-.5-.5 4-4 .5-1.5zm-15 5 2.5.5-.5 1.5-1.5.5-.5 1.5-2-1-4 4-.5-.5 4.5-5.5z" opacity=".996"/><path fill="#faf3de" stroke="#faf3de" d="m293.5 250 .5.5-2.5 2.5-.5-.5zm14 0q3.8-.7 4.5 1.5l-.5 2.5-1.5-.5-.5-1.5q-4.2-.7-6 1v-1zm-25 1 .5.5-8.5 8.5-.5-.5 5-5 1.5-2.5zm-14 9 2.5 1.5-4 5-1.5 5.5-1.5-.5zm-9 1 1.5.5-1 1 .5 1.5-2 1-.5-1.5zm-1 5 2.5 1.5-.5 1.5-2.5-1.5zm-4 13 1.5 2.5q-1 1.5-2-1zm6 0 2.5 7.5h-1l-2-5zm-5 4q3-.5 3.5 1.5l-2.5.5q-2.5-1-1-2Zm2 5 7 8 1.5.5-1.5.5-5.5-4.5-2-3zm7 4 4.5 4.5-.5.5-1.5-.5-3-4zm-5 7h3l6 4 6 2 3.5 3.5-1.5.5-3-3h-2l-2-2-8-4h-2zm2 3 4 3 8.5 3.5-1.5.5-9-4-2.5-2.5zm8 10 1 1 7 1 3 2h4l2.5 1.5.5 1.5 1.5.5-2.5.5-2-2-7-3-8.5-1.5zm4 4 10 3 1.5 1.5-1.5-.5-6-1-4-2zm6 7q1.8 1.7 6 1l6 3h4l5.5 3.5-2.5.5-2-2-12-4h-4q-2.5-1-1-2Zm-69 2 1.5 3.5 33 40-.5.5-3.5-3.5-29.5-36.5-1.5.5q2-1 0-2zm219 0 .5 1.5-1 1 .5 1.5-1-1-4.5 4.5-18 22-9 13 1.5.5 2-2 6-2h8l.5 2.5-1.5.5-1-1h-6l-9 3-1.5-2.5q15.7-21.8 33.5-41.5Z" opacity=".996"/><path fill="#faf3de" stroke="#faf3de" d="m283.5 327 5 2 7 1 1.5 1.5-1.5.5-1-1h-3l-6-2-2.5-1.5zm7 7h4l6 3h4l3.5 2.5-1.5-.5-6-1-3-2q-4 1-5-1l-1 1q-2.5-1-1-2Zm5 4 13.5 3.5-.5 2.5-5-3-8-2zm8 7 2.5.5-2.5.5zm2 3 4.5 1.5-.5 2.5-1.5-.5-.5-1.5q-3.8-.7-2-2Zm-81 16h8l6 2 3.5 2.5-1.5.5-12-4-4 2zm206 3h6l10.5 8.5-1.5.5-8-6q-1.8-1.7-6-1l-2 2-.5-.5q-.5-3 1.5-3.5Zm-225 1q4.5-1 5.5 1.5l-.5 3.5-3-3h-2l-12 8-.5-.5 3-3 .5-1.5zm131 0 5.5 2.5 2 3-.5.5-3-3-2.5-.5-.5-1.5q-2.4-.1-1-1Zm-2 3 6.5 2.5-6.5 1.5-1.5-2.5zm93 4 .5 2.5-3 6v2l-11 20q-11.1 15.4-25.5 27.5l-6 5-.5-2.5 18-16 11-13 6-9 6-11v-2zm-215 1 2.5 7.5 7 14q8.3 13.8 19.5 24.5l13 11 12 8 16 8 3.5 3.5.5 1.5q4.6 4.4 12 6l1-1h6l15 8 6-4 23-11h2l11-6h2l7-4h4l3.5 5.5v2l4 8-1.5.5q-3-3.5-3.5-9.5l-2.5-3.5-4-1-11 6h-2l-9 5h-2l-27 14q-8.6-2.9-15-8h-4l-3 2q-11.6-3.9-18-13l-13-6-11-7q-14.3-10.2-25.5-23.5l-8-11-7-13v-2l-4-9zm124 0 10 5q1-2 2 0 4.6.9 6.5 4.5l-1.5.5-5-4-10-3-2.5-2.5zm-2 4h3l3.5 1.5-2.5.5-2-1-3 2-.5-1.5z" opacity=".996"/><path fill="#faf3de" stroke="#faf3de" d="m342.5 382 7 2 1.5 1.5-1.5-.5-7-2zm3 6 1 1h4l6 3h2l5.5 4.5-.5 1.5-4-4h-2l-4-3-8.5-1.5zm58 3 .5.5-2 2q-3.8 7.7-10.5 12.5l-1.5.5q2.2 1.2-.5 2.5l-1.5-.5-2.5 3.5-2 1-2-1v2l-2-1v2l-4 1-.5-.5 2.5-2.5q11.7-4.8 19.5-13.5zm-168 1 9 10 18 11 6 1 1 1h13q.7-1.7 4-1l10-5 2-2 .5 1.5-2 1 .5 1.5-1.5-.5-1.5 2.5-6 3h-2l-2-1v2l-5-1q-1.3 2.3-6 1-1-2-5-1l-2 1v-2l-3 1v-2l-3 1-7.5-4.5.5-1.5-2 1-1.5-1.5.5-1.5-2-1q-1.2 2.3-2.5-.5l.5-1.5-9.5-8.5-2-3z" opacity=".996"/><path fill="#faf3de" stroke="#faf3de" d="m349.5 392 6 3h2l3.5 2.5-1.5-.5-9-3q-2.5-1-1-2Zm5 8 5 1 10.5 5.5 5 7-.5.5-2.5-2.5-3.5-4.5-9-5h-4q-2.5-1-1-2Z" opacity=".996"/><path fill="#faf3de" stroke="#faf3de" d="m357.5 403 11 6 2.5 2.5-.5 1.5-4-4-8-4q-2.5-1-1-2Zm-17 2 6 6 13 5 1.5-.5-1 1 .5 1.5-2.5-.5-.5-1.5-4 1v-2l-3 1-3.5-2.5.5-1.5-2 1q-2.7-1.2-.5-2.5l-5-5zm22 7 5 1 1.5 1.5-1.5-.5-4-1-1.5.5zm16 26q3-.5 3.5 1.5l-.5 2.5q-3.7.8-4.5-1.5zm-4 13 2.5 1.5q-1 2.5-2 1zm-4 12 1.5 2.5-1.5.5zm-80 1 9 3 8.5 6.5-1.5.5-7-6-9-3zm2 3 2 2 6 3h2l1.5 1.5-1.5.5-8-4-2.5-2.5zm78 0q3-.5 3.5 1.5l-3.5.5zm7 2 .5 3.5h-1zm-12 6 .5 2.5-2.5.5-.5-.5zm-67 1 5 1 7 4h3l4.5 3.5-1.5.5-2-2q-5.6-.9-9-4l-6-1q-2.5-1-1-2Zm66 3 1.5.5-3.5 2.5-.5-.5zm-63 1 6 3 6 1 1.5 1.5-1.5-.5-6-1-6-3zm69 2 .5 1.5-2.5 3.5.5-1.5zm-16 4 2.5.5-3 1 1 2q-3.8.2-5 3l-7.5 8.5-4 2v-1q6.2-2.3 9.5-7.5zm5 0 .5 1.5-3.5 6.5-.5-2.5zm-51 3h8l6 2 2-1q1 2 5 1l1.5 1.5-3.5.5-1-1h-5l-6-2h-7zm53 0 .5 1.5q-1.7 4.8-5.5 7.5l-.5-.5 3-3zm-49 3q3.3-.7 4 1h6l3.5 1.5-4.5.5-1-1-8-1zm29 1 3.5.5-.5 1.5-2-1-1 2-2-1-6 3h-5l-5 2q-2.5-1-1-2l11-1 2-2zm11 0-.5 1.5-4.5 6.5-4 2v-1l6.5-5.5zm-13 4q2.5 1 1 2-1-2-2 0l-5 2h-6v-1h5z" opacity=".996"/><path fill="#f5d36a" stroke="#f5d36a" d="m338.5 138 5.5 5.5-.5.5-5.5-5.5zm-44 5 .5.5-2.5 2.5-.5-.5zm54 6 2.5.5-2.5.5zm9 2 4.5.5-4.5.5zm14 6 3.5.5-3.5.5zm-54 16 3.5.5-3.5.5zm82 13 2.5 3.5q-1 1.5-2-1zm-124 11 7.5.5-7.5.5zm69 0 9.5.5-9.5.5zm20 0 3.5.5-3.5.5zm-66 1 5.5.5-5.5.5zm88 27 .5.5-2.5 2.5-.5-.5zm-3 4 .5.5-2 2 .5 1.5-2.5-2.5.5-.5q1.5 2.5 3-1Zm-35 7 4.5.5-4.5.5zm-84 17 .5.5-2.5 2.5-.5-.5zm-8 8 .5.5-2 2-.5 1.5-.5-1.5zm18 38 1.5 2.5h-1zm4 5 3.5 3.5-.5.5-3.5-3.5zm15 16 3.5 4.5-1.5-.5-1.5-.5 1-1-2-2zm-73 13 3.5 3.5-1.5 1.5.5-1.5-3-3zm4 5 2.5 2.5-.5.5-2.5-2.5zm189 1 .5.5-3.5 3.5-.5-.5zm-5 6 .5.5-2 2 .5 1.5-1.5-1.5zm-175 4 3.5 3.5-1.5 1.5.5-1.5-3-3zm171 1 .5.5-2 2 .5 1.5-1.5-1.5zm-3 4 .5.5-2.5 2.5-.5-.5zm-3 4 .5.5-2.5 2.5-.5-.5zm-59 6 1.5 2.5q-1 1.5-2-1zm53 2 .5.5-2.5 2.5-.5-.5zm57 2 1.5 2.5h-1zm-100 6 2.5 3.5-.5.5-2.5-2.5zm55 6 .5 1.5-4 7 .5 1.5q-2.7-1.2-.5-2.5zm-166 9 .5 1.5-1.5.5q-1.5-1 1-2Zm159 4 .5.5-2 2 .5 1.5-1.5-1.5zm-155 2 2.5 2.5-.5.5-2.5-2.5zm125 1 2.5 2.5-.5.5-2.5-2.5zm26 2 .5.5-2.5 2.5-.5-.5zm-18 10 1.5 2.5-1.5.5zm-107 3 2.5.5-2.5.5zm91 67-.5 1.5-1.5 3.5-.5-1.5zm-5 4 1.5.5-2.5 1.5q-1.5-1 1-2Zm-31 3 1.5 2.5h-1zm12 6 2.5.5-2.5.5z" opacity=".012"/><path fill="#a37b07" stroke="#a37b07" d="m367.5 168 .5 1.5q-1 2.5-2 1zm11 9 1.5 2.5q-1 1.5-2-1zm-37 5 .5.5-2.5 2.5-.5-.5zm40 1 2.5 2.5-.5.5-2.5-2.5zm-74 6 1.5 2.5h-1l-.5-1.5-1.5.5zm22 0 1.5 2.5h-1zm1 32 22.5.5-22.5.5zm33 0 3.5.5-3.5.5zm32 19 .5.5-2.5 2.5-.5-.5zm-10 4 1.5.5-2.5 1.5q-1.5-1 1-2Zm-83 2 .5.5-2.5 2.5-.5-.5zm29 8 1.5.5-2 1-.5 1.5-.5-1.5zm-53 6 .5.5-7.5 7.5-.5-.5zm155 111-.5 1.5-.5 1.5-.5-1.5zm-202 47 11.5 11.5-.5.5-11.5-11.5zm176 0 .5.5-4.5 4.5-.5-.5zm-10 10 .5.5-4.5 4.5-.5-.5zm-116 27 4.5 4.5-.5.5-4.5-4.5zm45 49 2.5.5-2.5.5z" opacity=".792"/><path fill="#e3c70d" stroke="#e3c70d" d="m316.5 133 2.5.5-2.5.5zm5 0 2.5.5-2.5.5zm9 0 7.5 4.5q-1 2.5-2 1l.5-1.5-5-2q-2.5-1-1-2Zm-27 2q1.5 1-1 2l-1.5.5.5 1.5q-3-1.5 0-3zm-7 5 1.5.5-3.5 2.5-.5-.5zm48 4q2.5 1 1 2l-1.5-.5zm0 3 2.5.5-2.5.5zm10 3 2.5 1.5-1.5.5q-2.5-1-1-2Zm26 9 2.5 2.5-.5.5-2.5-2.5zm-54 10 .5 1.5q-1 2.5-2 1zm-15 1q2.5 1 1 2l-1.5-.5zm79 1 3.5 1.5-1.5 1.5-2.5-2.5zm3 4 2.5.5-2.5.5zm-110 22 2.5.5-2.5.5zm5 0 3.5.5-3.5.5zm50 0 2.5.5-2.5.5zm-53 2 5.5.5-5.5.5zm53 0 4.5.5-4.5.5zm65 3 2.5.5-2.5.5zm-24 1q2.5 1 1 2l-1.5-.5zm-9 32 1.5.5-2.5 1.5q-1.5-1 1-2Zm-37 2 4.5.5-4.5.5zm0 2 4.5.5-4.5.5zm-74 18-.5 1.5 1 1-2.5 2.5.5-1.5-1-1zm-8 21 1.5 2.5h-1zm174 46 1 1 1.5-.5-1.5 1.5-1-1-2 2-.5-.5zm-123 3 1.5 1.5-1 1 .5 1.5-1.5-1.5 1-1zm-56 37q2.5 1 1 2l-1.5-.5zm97 4 4.5 3.5-.5.5-2-2q-3.8-.7-2-2Zm-94 2 3.5 1.5-2.5.5q-2.5-1-1-2Zm-13 16 1.5 2.5h-1zm6 8 2.5 2.5-.5.5-2.5-2.5zm150 4 .5.5-3.5 3.5-.5-.5zm-24 63q2.5 1 1 2l-2.5-.5zm-55 16 2.5 1.5-1.5-.5q-2.4-.1-1-1Zm9 9 1.5 2.5h-1z" opacity=".059"/><path fill="#0c0800" stroke="#0c0800" d="M314.5 152h9l6.5 5.5-1.5-.5-5-3h-8l-5 2-2 2 .5-1.5 1.5-2.5zm35 13 2.5 1.5-3.5 1.5.5-1.5zm7 3 8 1 1.5 1.5-6.5.5-3.5-1.5zm13 4 7.5 3.5q-1.2 2.8-2.5.5-4.6-.7-5-4Zm-75 9q5 6.5 12.5 10.5l-.5 1.5-9.5-7.5-3-4zm86 2 2.5 3.5h-1l-2-3zm-40 1 .5.5-5.5 5.5-4 2-.5-1.5 3.5-1.5zm36 34 .5 1.5-8.5 4.5h-37q-2.5-1-1-2h37q1-2 5-1zm-115 1 6 3h6l1 1h11l1-1h21l.5 2.5-1.5-.5h-7l-1 1h-26l-9-3-2.5-2.5zm133 23 .5.5-3.5 3.5-1.5-.5.5-1.5zm-9 3 1.5.5-5.5 4.5-5 2-2.5-1.5 3.5-.5zm-16 4q2.5 1 1 2l-6 3-5 1q-1.2-2.3-6-1-2.3 3.2-9 2-2.5-1-1-2h7l4-2 1 1h6zm-31 3 .5 1.5-3.5 2.5-4 1-.5-1.5zm-44 2-.5 1.5-1.5 2.5-5 3h-2v-1l3-1zm13 1 .5 2.5-4.5 1.5h-5q-1.5-1 1-2h4zm-29 6 .5.5-6.5 6.5-.5-.5zm-20 43 4.5 4.5-.5.5-2.5-1.5-2-3zm10 13 5.5 3.5-.5 1.5q-3.9-.6-5.5-3.5zm10 11 6.5 4.5-.5 1.5-6.5-4.5zm11 11 2 2 4.5 1.5-.5 1.5-6.5-3.5zm12 10 4.5 4.5-.5.5-3.5-2.5zm-73 20 16.5 4.5-.5 1.5h-3l-4-2-6-1-3.5-2.5zm180 0 2.5.5-2.5 2.5h-3l-1 1h-3l-6 2-.5-1.5zm25 3 15.5 9.5-3.5.5-8-6-5.5-1.5zm-227 1 1.5 3.5-1.5-.5-5 2-8 6h-2v-1zm138 20 4.5 3.5-.5 1.5-4.5-3.5zm9 12 4.5 3.5-.5 1.5-4.5-4.5zm-126 9 2.5 2.5-.5.5-2.5-2.5zm184 0 .5.5-2.5 2.5-.5-.5zm-180 5 12 12 13 10 24.5 13.5 4 5-.5.5-4-4-9-4-19-12-21.5-20.5zm176 0 .5.5-6 6-5.5 6.5-10 8-.5-.5 5.5-5.5zm-36 29 .5 2.5-7.5 2.5-22 11h-2l-18 10h-4l-12-6-2.5-2.5 1.5-.5 16 8 7-5zm-81 23 3.5 2.5-1.5.5-2.5-2.5zm7 10 5.5 4.5-.5 1.5-4.5-3.5zm11 13 3 2h2l2.5 2.5-1.5.5-6.5-3.5zm53 4 .5.5-3 3-.5 1.5-4 1v-1q5-1 7-5Zm-42 4 2 2 8 1 2-1 1.5 2.5-7.5.5-3-1-3.5-3.5zm30 1q2.5 1 1 2l-7 4h-6q-2.5-1-1-2h7l3-1z" opacity=".49"/><path fill="#da7a22" stroke="#da7a22" d="m388.5 219 .5 2.5h-1zm-119 69 .5 2.5h-1zm66 60 .5 2.5h-1z" opacity=".016"/><path fill="#291e04" stroke="#291e04" d="m328.5 161 .5 2.5h-1zm-20 1 .5 2.5h-1zm-21 8 1 2 1.5-.5-1.5 2.5-1.5-2.5zm88 7-.5 1.5 2 2-.5.5-2.5-2.5zm5 10 1.5 2.5q-1 1.5-2-1zm-75 8 .5 2.5h-1zm81 5 1.5 2.5-1.5.5q-3-1.5 0-3Zm0 5 1.5 2.5h-1zm20 8-.5 1.5-1.5 2.5-.5-1.5zm-150 1 1.5 2.5h-1zm150 11 .5 1.5-1.5 2.5-.5-1.5zm-100 37 .5 23.5h-1zm26 7 .5 3.5h-1zm-82 17 1 1 1.5-.5-1 3 1 2h-1l-2-5zm57 10 .5 2.5h-1zm-45 16 1.5 2.5h-1zm10 12 2.5 2.5-.5.5-2.5-2.5zm158 56 1.5 2.5h-1zm-90 13 1.5 3.5q-1 1.5-2-1zm29 64 1.5 2.5q-1 2.5-2 1 2-1 0-2zm-85 7 1.5 2.5q-1 1.5-2-1zm27 8 2.5 2.5-.5.5-1.5-.5zm72 2-.5 1.5-.5 1.5-.5-1.5zm-92 2 2.5 3.5h-1l-2-3zm82 10 1.5 2.5h-1z" opacity=".059"/><path fill="#6b5b0b" stroke="#6b5b0b" d="m288.5 160 .5 4.5h-1zm-2 2 .5 3.5h-1zm44 30 .5 6.5 1 1-1.5.5zm76 29 .5 3.5h-1zm-99 4 .5 12.5h-1zm25 3 .5 8.5q-1 2.5-2 1l1-1zm-27 1 .5 8.5h-1zm27 31 .5 8.5h-1zm-80 11 .5 2.5h-1zm81 5 .5 4.5h-1zm-2 1 .5 3.5h-1zm2 18 .5 10.5h-1zm-28 1 .5 9.5h-1zm2 3 .5 6.5h-1zm27 13 .5 4.5h-1zm-2 1 .5 3.5h-1zm-27 9 .5 9.5q-1 1.5-2-1l1-1zm29 7 .5 7.5h-1zm1 11 .5 2.5h-1zm0 11 .5 2.5h-1z" opacity=".078"/><path fill="#ffffbe" stroke="#ffffbe" d="m354.5 197 2.5.5-2.5.5zm7 0 2.5.5-2.5.5zm-66 1 2.5.5-2.5.5zm69 194 2.5 2.5-.5.5-2.5-2.5zm-90 20 3.5.5-3.5.5z" opacity=".008"/><path fill="#0f0800" stroke="#0f0800" d="M315.5 154h8l6.5 4.5-1.5 2.5.5-1.5-2.5-2.5-5-2h-4q-.7 1.8-4 1l-3.5 2.5-.5 2.5-1.5-.5-.5 1.5-.5-1.5 3.5-4.5zm34 13q4.8-.7 6.5 1.5l.5 1.5 3 1h8q2.4 4 7.5 5.5l-.5 1.5-10-6h-8l-4-3h-2l-2 1-.5-1.5zm-58 10 9 12 6.5 4.5-.5 1.5-1.5-.5-1.5-2.5q-4.8-1.7-7.5-5.5l-5-7zm54 0 1.5.5q-3.6 8.4-10.5 13.5l-5 3-.5-1.5q6.3-2.7 10-8zm32 4 2.5 1.5 2 4-.5.5-4.5-4.5zm6 12 2.5 1.5 3 5-1.5.5-3.5-4.5zm7 17 1.5 2.5-1.5.5zm-132 7 2.5 1.5 2.5 3.5 9 3h26l1-1h7l.5 1.5q-1.2 2.8-2.5.5h-34l-8-3-2.5-2.5-2-3zm120 0 1.5.5-3.5 4.5-6 3-17 1-1-1h-19q-1.2 2.2-2.5-.5l37.5-.5 8.5-4.5zm25 14 .5.5-2.5 2.5-2.5-1.5 1.5-.5q1.5 2.5 3-1Zm-6 7 1.5.5q-2 5.5-6.5 8.5-2.2 1.8-7 1l-7 5h-6q-1-2-2 0h-2l-5 3h-11l-5 2h-4q-1.4-2.6-6-2-1.4 2.6-6 2v-1l7-3h4q1.5 3.5 8 2 2-3 8-2l3 1 8-4h6q1 2 2 0h2l8-6h2l2 1zm-104 19 1.5 2.5-1.5-.5-1 1-5 3q-4-1-5 1l-.5-1.5q1-2.5 5.5-1.5zm3 1q2.2 1.8 7 1 .8-1.7 4-1l.5 1.5-1.5.5q-1-2-2 0l-7 1q-2.4-.9-1-3Zm-17 2 1.5 3.5-1.5-.5-7.5 7.5-.5 1.5-1.5-2.5 9-8zm-26 32 2.5 1.5-1.5.5q-2.5-1-1-2Zm2 10 2.5 1.5 3.5 5.5 1.5.5 1 2-1.5-.5-4.5-3.5-3-5zm9 13 3.5 2.5 2.5 3.5 3.5 2.5-1.5-.5q-4.6-.9-6.5-4.5l-2-3zm11 12 2.5 1.5 2.5 3.5 4.5 2.5-1 1 .5 1.5-2-3q-4.6-.9-6.5-4.5zm11 11 2.5 1.5 1.5 2.5q7.9 2.1 11.5 8.5l2.5 3.5 1.5.5-.5 2.5-11-12q-5-1-7.5-4.5zm-57 33 12 4h3l3-1 1.5 2.5-5.5.5-11-4q-1 2-2 0l-1.5-.5zm180 0q1.5 1-1 2l-6 1-4 2h-7v-1l3-2 1 2 6-2h3l1-1h3zm23 4 5 1 8 6 5.5.5-.5 2.5-4-1-8-6-5-2-1.5.5zm-227 1 2.5 1.5q-1.3 2.8-2.5.5l-3 1-8 6-5 2 .5-1.5.5-1.5h3zm133 11 1.5 2.5q-1 1.5-2-1zm89 1 1.5.5-2 2-3 9-7 11-17.5 20.5-11.5 9.5.5 1.5-2.5-1.5 16-14 19-25zm-215 1 3.5 8.5 8 13q10.2 14.3 23.5 25.5l17 12 16 8 4.5 4.5-.5 1.5-1.5-.5-3.5-4.5-9-4-16-10Q240 433 229 419.5l-11-15-6-11q2-1 0-2zm128 2 3.5 2.5 2.5 3.5 2.5 1.5-1 1 .5 1.5-2-3-4.5-3.5-.5-1.5-1.5-.5zm9 11 3.5 2.5 5 6-2.5.5-5.5-6.5zm20 49 1.5.5-16.5 8.5h-2l-9 5h-2l-18 10-4 1-7-4h-2l-3-3q-3 .5-3.5-1.5l1.5-.5 13 7h4l18-10h2zm13 15 2.5.5-.5 1.5q-3.8-.7-2-2Zm-95 1 5.5 7.5q-1 2.5-2 1l-5-7zm93 10 1.5.5-6.5 7.5-1.5-.5 2.5-3.5 2.5-1.5zm-86 3 3.5 2.5 2.5 3.5 2.5 1.5-1.5.5-6.5-5.5zm78 9 1.5.5-5.5 6.5-4.5 1.5-7.5 8.5-3 1q-1-2-2 0h-2l-8 4h-4l-6-3h-8l-5.5-3.5-3.5-4.5q-6.6-.9-9.5-5.5l-1-2 1.5-.5 4 5 6 2 7 7 3 1h10q1.5 3.5 8 2l6-4 7-1 2.5-1.5 5.5-8.5q1 2 2 0l4.5-2.5z" opacity=".208"/><path fill="#981e00" stroke="#981e00" d="m333.5 281 .5 2.5h-1zm-28 12 .5 2.5h-1z" opacity=".012"/><path fill="#504225" stroke="#504225" d="m334.5 143 4.5 3.5 3 5h-1l-4.5-6.5q-3.8-.7-2-2Zm-36 4-.5 1.5-4.5 7.5.5-1.5zm-6 11 1.5.5q-1 2.5-2 1zm0 3 .5 2.5h-1zm11 8q2 .5 1.5 3.5h-1zm30 1-.5 1.5-.5 1.5-.5-1.5zm-3 4 .5 1.5-2.5 1.5-.5-.5zm59 7 1.5 3.5-.5.5-2.5-2.5zm-63 14 .5 3.5h-1zm0 6 1.5.5-.5 1.5q-2.5-1-1-2Zm-61 5 .5.5-2.5 2.5-.5-.5zm132 6 1.5 2.5h-1zm-3 10 .5 2.5q-1 2.5-2 1zm-83 2 .5 17.5h-1zm15 0 .5 15.5 1 2q-1 1.5-2-1zm66 4 1.5.5q-1 2.5-2 1zm-7 6 1.5.5q-1 2.5-2 1zm-2 4 .5.5-2.5 2.5-.5-.5zm-73 6 1.5.5q-1 2.5-2 1zm-42 13-.5 1.5-.5 1.5-.5-1.5zm43 0 .5 9.5h-1zm15 0 .5 3.5h-1zm-15 13 .5 5.5h-1zm16 0 .5 28.5h-1zm-68 1 1.5 2.5q-1 1.5-2-1zm52 6 .5 45.5h-1zm-52 12 1 1 1.5-.5-1.5 1.5q-2.5-1-1-2Zm69 17 .5 25.5h-1zm-18 24 .5 5.5h-1zm117 1-.5 1.5-2.5 3.5-.5-.5 2-2zm-217 1 .5 1.5q-1 2.5-2 1zm119 3 .5 5.5h-1zm-113 2 2.5 3.5q-1 1.5-2-1zm205 1-.5 1.5-1.5 2.5.5-1.5zm11 3 1.5.5 1 3q-1 1.5-2-1zm-211 2 1.5 2.5q-1 1.5-2-1zm195 1-.5 1.5-.5 1.5-.5-1.5zm-211 3-.5 1.5-.5 2.5-1.5-.5zm124 0 .5 4.5h-1zm-104 1 2.5 3.5q-1 1.5-2-1zm187 1-.5 1.5-1.5 2.5.5-1.5zm-82 4 .5 2.5h-1zm-100 1 1.5 2.5q-1 1.5-2-1zm178 0-.5 1.5-.5 1.5-.5-1.5zm29 0 1.5.5 1 3q-1 1.5-2-1zm-203 5 1.5 2.5h-1zm205 0 2.5 3.5q-1 1.5-2-1zm-109 2 1.5.5 1 3q-1 1.5-2-1zm-21 1 .5 2.5-1.5 2.5-.5-2.5zm92 1 .5 1.5q-1 2.5-2 1zm40 1 2.5 3.5q-1 1.5-2-1zm-244 4-.5 1.5-1.5 2.5.5-1.5zm111 4 .5 2.5q-1 2.5-2 1zm104 5-.5 1.5v2l-8.5 15.5-.5-1.5 2-2 5-10v-2zm-186 2 1.5.5 1 5 4 7q-1 1.5-2-1l-4-8zm81 2 .5 1.5-1.5.5q-1.5-1 1-2Zm26 6 1.5 3.5q-1 1.5-2-1zm-100 6 2.5 3.5h-1l-2-3zm71 0 1.5.5q-1 2.5-2 1zm30 2 1.5.5-.5 1.5q-2.5-1-1-2Zm67 2-.5 1.5-.5 1.5-.5-1.5zm-66 2 1.5.5 2 7h-1l-3-7zm5 9 1.5 2.5q-1 1.5-2-1zm-86 4 6.5 3.5-1.5.5-4-2q-2.5-1-1-2Zm89 0 2.5 1.5-1.5.5q-2.5-1-1-2Zm-49 1 1.5.5-2.5 1.5q-1.5-1 1-2Zm69 1 .5 2.5-1.5.5.5-1.5zm-16 1 3.5 1.5-1.5.5-2.5-1.5zm22 0 2 2 2-2 .5.5-.5 1.5-2 1q-1-2-2 0l-2.5-.5 3-1zm6 40 1.5.5-.5 2.5zm2 4 .5 3.5h-1zm1 5 .5 2.5h-1zm-3 1 .5 4.5h-1zm-5 6 1.5.5-1.5 5.5zm-1 7 .5 3.5h-1zm-4 3 .5 2.5h-1z"/><path fill="#af8815" stroke="#af8815" d="m330.5 159 .5 2.5h-1zm0 4 .5 2.5h-1zm0 62 .5 14.5h-1zm-36 32 3.5.5-3.5.5zm37 24 .5 5.5h-1zm-24 25 .5 7.5h-1zm25 11 .5 4.5h-1zm-58 7 2.5 2.5-.5.5-2.5-2.5zm59 18 .5 2.5h-1zm-36 3 2.5 2.5-.5.5-2.5-2.5zm74 110 .5 2.5h-1zm-67 35 2.5 2.5-.5.5-2.5-2.5zm12 9 2.5 2.5-.5.5-2.5-2.5z" opacity=".42"/><path fill="#f9d227" stroke="#f9d227" d="m349.5 151 2.5.5-2.5.5zm7 2 6.5.5-6.5.5zm39 30 2.5 2.5-.5.5-2.5-2.5zm-121 16 10.5.5-10.5.5zm69 0 4.5.5-4.5.5zm-82 4 .5.5-2.5 2.5-.5-.5zm129 12 .5 3.5h-1zm-3 11 .5.5-2.5 2.5-.5-.5zm-21 10 3 2 1.5-.5-2.5 2.5-.5-.5q2.3-1.3-.5-2.5-2.4-.1-1-1Zm-19 2 5.5.5-5.5.5zm-57 5 2.5 1.5-1.5-.5q-2.4-.1-1-1Zm-16 5 2.5.5-2.5.5zm-22 33 .5 2.5h-1zm15 4 .5 2.5h-1zm64 2 .5 5.5h-1zm1 35 .5 4.5h-1zm-118 6 2.5 2.5-.5.5-2.5-2.5zm209 1 .5.5-2.5 2.5-.5-.5zm-204 5 2.5 2.5-.5.5-2.5-2.5zm199 1 .5.5-2.5 2.5-.5-.5zm-194 5 2.5 2.5-.5.5-2.5-2.5zm189 1 .5.5-2.5 2.5-.5-.5zm-80 4 .5 2.5h-1zm-96 11 2.5 2.5-.5.5-2.5-2.5zm68 4 .5 2.5h-1zm-59 7 2.5 2.5-.5.5-2.5-2.5zm58 3 .5 2.5h-1zm86 1-.5 1.5-.5 1.5-.5-1.5zm-87 7 .5 2.5h-1zm51 4 3.5 3.5-.5.5-3.5-3.5zm5 6 .5 2.5h-1zm-16 17 4.5 4.5-.5.5-4.5-4.5zm43 49 .5 2.5h-1zm-78 17 3.5 3.5-.5.5-3.5-3.5zm10 11 3.5 3.5-.5.5-3.5-3.5zm25 9 2.5.5-2.5.5z" opacity=".208"/></svg>