<svg xmlns="http://www.w3.org/2000/svg" viewBox="0 0 640 613"><path stroke="#000" d="m316.5 0 .5 25.5-1 1v63l1 1v25l1 1v15l1 1 1 22 1.5 3.5 24-15 20-10h2l5-3h2l3-2h2l3-2 12-4h3l4-2 8-1 5-2q4 1 5-1h7l1-1h6l1-1h34l1 1 14 1 1 1h4l1 1h4l1 1 7 1 4 2h3l9 3 8 4h2l16 8 11 7q14.5 10 25.5 23.5l15 21 11 21v2l4 7 5 15 2 3 10 30v3l2 4v3l1 1v3l3 9v4l2 6v5l1 1v6l1 1 1 17 1 1 1 36-1 1v16l-1 1v10l-1 1v7l-1 1v5l-1 1-1 11-1 1-1 8-4 12v3l-4 12-2 3v2l-3 5v2l-18 36-12 19q-15.1 20.9-34.5 37.5l-23 18-12 8-26 13-12 4h-3l-9 3h-4l-1 1h-6l-1 1h-9l-1 1h-31l-1-1h-11l-1-1h-8l-1-1h-6l-1-1h-6l-1-1-12-1-1-1-10-1-1-1h-4l-1-1h-4l-1-1h-4l-1-1h-4l-1-1h-4l-1-1h-4l-1-1h-4l-5-2h-4l-1-1-8-1-1 1h-5l-1 1h-4l-1 1h-4l-1 1h-4l-1 1h-4l-6 2-11 1-1 1h-9l-1 1h-28l-1-1h-7l-1-1h-5l-1-1-11-2-12-4-3-2h-2l-16-8-17-11-21-16L94 525.5l-26-31-15-22-9-15-5-11-2-2-15-34-1-5-2-3-4-12v-3l-3-7v-3l-2-4v-3l-3-9v-4l-2-5-1-10-1-1-1-14-1-1v-9l-1-1v-29l1-1 1-16 1-1v-4l1-1v-4l1-1 1-8 8-24 3-5v-2l6-11v-2l9-15q8.6-11.9 19.5-21.5l14-11 15-9 17-8 5-1 3-2 12-4h3l1-1h3l9-3h4l1-1 12-1 1-1h7l1-1h13l1-1h37l1 1h17l1 1h8l1 1 13 1 1 1h4l1 1 11 2 13 5 .5-2.5-3-9-2-3-3-11-2-3-2-8-2-3v-2l-2-3-4-12-4-7v-2l-14-27q-6.2-9.8-15-17 2.3-6.7 7.5-10.5l11-6 12-4h4l1-1 9-1 1-1h5l1-1h6l1-1h6l1-1h6l1-1h6zM437 132l-1 1h-8q-2 2-6 1l-1 1h-4l-9 3h-3l-1 1h-3l-12 4-3 2h-2l-3 2h-2l-30 15-25 17 3 17 1 1h-10l-1-1h-6l-12-4-9-28-12-7-15-5-7-1-1-1-10-1-1-1h-6l-1-1h-9l-1-1h-17l-1-1h-34l-1 1h-13l-1 1h-7l-1 1-11 1-5 2-8 1-24 8-20 10-17 12-16 16-6 8-11 21v2l-3 5-7 21-1 7-1 1v4l-1 1v4l-1 1v6l-1 1v9l-1 1v25l1 1v10l1 1v7q2 1 1 6l1 1v5l1 1v4l3 9v4l2 4v3l1 1v3l10 30 8 17v2l18 34 16 24 22 27q28 30 63 53l10 6 15 7 12 4 7 1 1 1 12 1 1 1h27l1-1h7l1-1h6l6-2h4l1-1h4l1-1h4l1-1h4l1-1h4l1-1h6l1-1h6l1 1 8 1 1 1 14 2 1 1h4l1 1h4l1 1h4l1 1h4l1 1h4l1 1h5l6 2 11 1 1 1 14 1 1 1h7l1 1h11l1 1h29l1-1h9l1-1h5l1-1h4l5-2h3l12-4 15-7 19-12 26-21 19-20 13-18 5-10 2-2 18-37 7-21 2-11 1-1v-4l1-1v-4l1-1v-4l1-1 1-14 1-1v-9l1-1v-19l1-1v-10l-1-1v-20l-1-1-1-17-1-1v-5l-1-1v-5l-2-6v-4l-3-9v-3l-2-4v-3l-9-27-5-11-1-5-9-18v-2l-14-23-8-10q-11-13-25-22l-17-9-7-2-3-2-9-3h-3l-1-1h-3l-1-1h-3l-1-1h-3l-1-1-10-1-1-1h-7l-1-1z" opacity=".996"/><path stroke="#000" d="m414.5 242 2 3 1.5.5q-1 4 1 5v189l-1 1v8l-4 9-9.5 10.5q-7.4 5.6-17 9l-8 1-1 1h-12l-1-1h-4l-6-2-9.5-6.5-6-10v-5l-1-3q2.3-1.2 1-6l3-7 12.5-13.5 9-5h2l3-2 7-1 1-1h15l1 1 7 1 7 4 .5-152.5-1.5-.5-1 1h-5l-1 1q-4.7-1.2-6 1h-6l-1 1h-5l-1 1h-5l-1 1q-4.7-1.2-6 1h-6l-1 1h-5l-1 1h-5l-1 1q-4.7-1.2-6 1h-6l-1 1h-5l-1 1h-5l-1 1-11 1-1 1h-6l-1 1h-5l-1 1h-5l-1 1q-4.8-1.3-6 1h-6l-2.5 1.5v174l-5 12-5.5 6.5-11 8-7 3-6 1-1 1h-5l-1 1h-9l-1-1h-5l-6-2-10.5-7.5-5-9q.8-3.2-1-4v-7l3-9 4-6 6.5-6.5 4-3 16-7q3.2.8 4-1h17l1 1 6 1 8 4 1-172 1.5-.5.5-2.5 10-1 1-1h5l1-1h5l1-1h6l1-1h5l1-1h5l1-1q4.8 1.3 6-1h6l1-1h5l1-1h5l1-1q4.8 1.2 6-1h6l1-1h5l1-1h5l1-1h5l1-1q4.7 1.2 6-1h6l1-1h5l1-1h5l1-1q4.8 1.3 6-1h6l1-1q4.7 1.2 6-1Z" opacity=".996"/><path fill="#750000" stroke="#750000" d="m430.5 114 3.5.5-3.5.5zm-7 1 3.5.5-3.5.5zm-257 12 6.5.5-6.5.5zm45 0 8.5.5-8.5.5zm-56 1 3.5.5-3.5.5zm-7 1 2.5.5-2.5.5zm288 3 4.5.5-4.5.5zm26 0 5.5.5-5.5.5zm-35 1 3.5.5-3.5.5zm46 0 2.5.5-2.5.5zm-52 1 2.5.5-2.5.5zm58 0 2.5.5-2.5.5zm-305 11 34.5.5-34.5.5zm-14 1 4.5.5-4.5.5zm61 0 5.5.5-5.5.5zm-69 1 2.5.5-2.5.5zm81 0 3.5.5-3.5.5zm8 1 2.5.5-2.5.5zm-101 1 2.5.5-2.5.5zm107 0 2.5.5-2.5.5zm73 1 .5 4.5h-1zm228 12 2.5 2.5-.5.5-2.5-2.5zm-493 5 .5.5-3.5 3.5-.5-.5zm499 0 9.5 9.5-.5.5-9.5-9.5zm26 1 2.5 2.5-.5.5-2.5-2.5zm-14 12 2.5 2.5-.5.5-2.5-2.5zm-500 2 .5.5-2.5 2.5-.5-.5zm-27 1 .5.5-2.5 2.5-.5-.5zm14 12 .5.5-2.5 2.5-.5-.5zm254 0 2.5.5-2.5.5zm6 1 3.5.5-3.5.5zm10 1 4.5.5-4.5.5zm88 45 2.5.5-2.5.5zm-6 1 2.5.5-2.5.5zm-13 2 2.5.5-2.5.5zm-6 1 2.5.5-2.5.5zm-6 1 2.5.5-2.5.5zm38 0 .5 2.5h-1zm-51 2 2.5.5-2.5.5zm-6 1 2.5.5-2.5.5zm-6 1 2.5.5-2.5.5zm-6 1 2.5.5-2.5.5zm-13 2 2.5.5-2.5.5zm-6 1 2.5.5-2.5.5zm-6 1 2.5.5-2.5.5zm-13 2 2.5.5-2.5.5zm-6 1 2.5.5-2.5.5zm-6 1 2.5.5-2.5.5zm-296 2 .5 2.5H3zm283 0 2.5.5-2.5.5zm-6 1 2.5.5-2.5.5zm-6 1 2.5.5-2.5.5zm-3 1 .5 2.5-2 1-.5 171.5-.5-171.5zm148 0 .5 2.5h-1zm-19 5 2.5.5-2.5.5zm-380 2 .5 2.5h-1zm367 0 2.5.5-2.5.5zm-6 1 2.5.5-2.5.5zm-6 1 2.5.5-2.5.5zm-374 1 .5 2.5H1zm361 1 2.5.5-2.5.5zm-6 1 2.5.5-2.5.5zm-6 1 2.5.5-2.5.5zm-331 1 .5 3.5h-1zm325 0 2.5.5-2.5.5zm-7 1 2.5.5-2.5.5zm-6 1 2.5.5-2.5.5zm-6 1 2.5.5-2.5.5zm-6 1 2.5.5-2.5.5zm-13 2 2.5.5-2.5.5zm-6 1 2.5.5-2.5.5zm-6 1 2.5.5-2.5.5zm-276 2 .5 25.5h-1zm263 0 2.5.5-2.5.5zm-2 1 .5 167.5h-1zm337 11 .5 2.5h-1zm2 12 .5 2.5h-1zm1 8 .5 3.5h-1zm-600 1 .5 3.5h-1zm1 8 .5 3.5h-1zm600 1 .5 5.5h-1zm-599 6 .5 2.5h-1zm1 6 .5 2.5h-1zm1 5 .5 2.5h-1zm598 4 .5 10.5h-1zm-1 25 .5 5.5h-1zm-1 12 .5 3.5h-1zm-1 9 .5 2.5h-1zm-1 7 .5 2.5h-1zm-235 10 6.5.5-6.5.5zm11 1 2.5.5-2.5.5zm-40 10 .5.5-7.5 7.5-.5-.5zm-112 7 9.5.5-9.5.5zm177 7 .5 5.5h-1zm-79 8 .5 2.5h-1zm0 6 .5 2.5h-1zm4 12 2.5 2.5-.5.5-2.5-2.5zm4 4 2.5 2.5-.5.5-2.5-2.5zm-75 8 .5.5-2.5 2.5-.5-.5zm91 0 2.5.5-2.5.5zm-96 5 .5.5-2.5 2.5-.5-.5zm-176 11 2.5 2.5-.5.5-2.5-2.5zm134 2 2.5.5-2.5.5zm13 0 2.5.5-2.5.5zm-142 4 2.5 2.5-.5.5-2.5-2.5zm7 8 6.5 6.5-.5.5-6.5-6.5zm463 14 .5.5-2.5 2.5-.5-.5zm-447 2 7.5 7.5-.5.5-7.5-7.5zm441 5 .5.5-13.5 13.5-.5-.5zm20 5 .5.5-2.5 2.5-.5-.5zm-449 1 2.5 2.5-.5.5-2.5-2.5zm443 6 .5.5-16.5 16.5-.5-.5zm-33 6 .5.5-2.5 2.5-.5-.5zm-6 5 .5.5-2.5 2.5-.5-.5zm18 9 .5.5-2.5 2.5-.5-.5zm-6 5 .5.5-2.5 2.5-.5-.5zm-247 7 2.5.5-2.5.5zm-37 7 2.5.5-2.5.5zm-7 1 2.5.5-2.5.5zm-33 1 4.5.5-4.5.5zm22 0 5.5.5-5.5.5zm125 3 2.5.5-2.5.5zm6 1 2.5.5-2.5.5zm6 1 2.5.5-2.5.5zm7 1 2.5.5-2.5.5zm8 1 2.5.5-2.5.5zm63 0 2.5.5-2.5.5zm-55 1 4.5.5-4.5.5zm48 0 3.5.5-3.5.5zm-149 1 3.5.5-3.5.5zm113 0 8.5.5-8.5.5zm22 0 7.5.5-7.5.5zm-124 2 2.5.5-2.5.5zm-37 3 2.5.5-2.5.5zm-11 2 2.5.5-2.5.5zm-6 1 2.5.5-2.5.5zm-10 1 4.5.5-4.5.5zm207 8 2.5.5-2.5.5zm-10 1 4.5.5-4.5.5zm-17 1 2.5.5-2.5.5z" opacity=".996"/><path fill="#e60000" stroke="#e60000" d="m413.5 115 9.5.5-10.5 1.5-1 1-15 3-15 5-8 4h-2l-25 12-25 15-1.5-10.5 22.5-12.5h2l5-3 10-3 3-2 6-2h3l4-2 11-2 1-1 10-1 1-1h5l1-1h8zm-275 9h54l1 1h11l1 1 8.5.5-47.5.5-1 1h-10l-1 1h-6l-1 1h-5l-1 1-10 1-12 4h-3l-15 5-3 2h-2l-5 3h-2l-20 11-14 10L37 185.5l-10 14-15 32-5 15-3 15-1 1v5l-1 1-.5 6.5-1.5-4.5 1-1v-15l1-1v-7l1-1 1-11 1-1 3-15 5-15 9-19q6.7-10.8 15.5-19.5l13-11 9-6 22-11 18-6 11-2 1-1 10-1 1-1h6l1-1h8z" opacity=".996"/><path fill="#e60000" stroke="#e60000" d="M441.5 132h20l1 1h10l1 1h5l1 1h5l1 1h4l1 1 7 1 18 6 19 9 12 8 19.5 18.5 11 15 11 20v2l4 7v2l6 13 13 39v3l1 1v3l3 9v4l1 1v5l1 1 1 11 1 1v8l1 1v11l1 1v39l-1 1v11l-1 1v8l-1 1v6l-1 1v5l-1 1-2 14-12 36-16 32-14 22-8 10-21.5 21.5-29 22-10 6-20 9-6 2h-3l-1 1h-3l-1 1h-3l-1 1-12 1-1 1-26 1-1-1h-15l-1-1h-9l-1-1-14-1-1-1h-5l-1-1h-5l-1-1-11-1-1-1h-4l-1-1h-4l-1-1h-4l-1-1h-4l-1-1h-4l-1-1-14-2-1-1-8-1-1-1h-11l-1 1h-5l-1 1h-4l-1 1h-4l-1 1h-4l-1 1h-4l-6 2h-5l-1 1h-6l-1 1h-10l-1 1h-16l-1-1h-9q-1.3-2.3-6-1l-1-1-11-2-9-3-17-8-32-22-32.5-29.5-21-24-16-22-1-3-13-20-18-38-1-5-2-3-8-24-1-7-4-12-2-14-1-1-1-12-1-1v-7l-1-1v-38l1-1v-7l1-1v-5l1-1v-4l1-1 2-11 5-15 4-8v-2l9-18 6-9L63.5 185l10-8 20-12h2l17-8 6-2h3l4-2 7-1 1-1h4l1-1h4l6-2h6l1-1h9l1-1h55l1 1h11l1 1h7l1 1 11 1 5 2 7 1 12 4 5 3h2l6.5 4.5 3 9v3l2 4v3l2 4v3l2.5 2.5 8 3 20 2 .5-3.5-1-1-3-15 32.5-20.5 28-13 21-7h3l1-1h4l1-1 9-1 1-1h6l1-1h9zM412 242q-2 2-6 1l-1 1h-5l-1 1h-6q-2 2-6 1l-1 1h-5l-1 1h-5l-1 1h-6q-2 2-6 1l-1 1h-5l-1 1h-5l-1 1h-5l-1 1h-6l-1 1h-5l-1 1-11 1-1 1h-6l-1 1h-5l-1 1h-5l-1 1-12 1-1 1h-5l-1 1h-5l-3 1-3 4v171l-6-4-6-2h-5l-1-1h-9l-1 1-9 1-16 8-11 11-5 11v11l4 9 10 8 12 4h15q1-2 5-1l16-7 4-3 9-10 4-9v-6q2-1 0-2l1-1V291l5-2h5l1-1h6q1-2 6-1l1-1h5l1-1h5l1-1h6q1-2 6-1l1-1h5l1-1h5l1-1h6q1-2 6-1l1-1h5l1-1h5l1-1h5l1-1h6q1-2 6-1l1-1h5l1-1h5l1-1h6l1-1 4 1v151l-6-4-6-2h-6l-1-1h-6l-1 1h-6q-1 2-4 1l-12 5-6 4q-7 6-12 14l-3 9v8l4 10 10 8 11 4h17q0-2 5-1l14-6 9-7 6-8 4-11V269l1-1-1-3v-17l-1-3h-1l-1-2zm142 184-4 11-7 14-17 23-13 13-24 19-35 22-5 2-25 15q-3 1-1 2l11-2 7-3h3l14-6h2l5-3h2l22-12 20-15 15-15 14-19 11-22 3-9v-3l1-1v-3l1-1zm29.5-255 12.5 13.5 8 12 9 18v2l2 3 5 15v3l1 1v3l3 9 1 8h-1l-7-23-2-3-5-15-4-7v-2l-13-24-10-13z" opacity=".996"/><path fill="#e60000" stroke="#e60000" d="m632.5 427 .5 6.5-1 1v7l-1 1v6l-2 6v5l-1 1-3 15-4 10v3l-5 15-2 3-4 12q-13.7 28.3-36.5 47.5l-27 22-16 10-13 6-12 4-7 1-1 1-12 1-1 1h-9l-1 1h-21l-1-1h-11l-1-1-6.5-.5 18.5-.5 1-1 13-1 1-1h4l1-1 7-1 15-5 3-2h2l14-7 20-13 25-20 16.5-16.5 13-16 14-22 18-36v-2l4-8 5-15v-3l2-4v-4zm-332 165h10l6.5 2.5-4.5 1.5h-4l-1 1h-4l-1 1h-4l-1 1h-4l-1 1h-6l-1 1h-9l-1 1h-21v-1l2-1 13-1 6-2h5l1-1 8-1 1-1h4l1-1h4z" opacity=".996"/><path fill="#f38282" stroke="#f38282" d="m529.5 469 .5.5-3.5 3.5-.5-.5zm-18 18 .5.5-3.5 3.5-.5-.5zm12 3 .5.5-4.5 4.5-.5-.5zm-19 3 .5.5-2.5 2.5-.5-.5zm8 8 .5.5-4.5 4.5-.5-.5zm-89 44 2.5 1.5-1.5.5-1-1-1.5.5z"/><path fill="#fefcfc" stroke="#fefcfc" d="m553.5 427 .5 3.5-1 1v4l-2 4v3l-2 6-8 17-11 17-16.5 18.5-17 14-19 12-24 11-18 6-11 2-1 1q-1.5-1 1-2l35-21 5-2 26-17 18-14 21.5-21.5 14-20 6-12z"/><path fill="#f30000" stroke="#f30000" d="m413.5 112 15.5.5-16 1 5 1-4.5.5-1-1h-8v1l3.5.5-3.5.5q-1.2-2.2-6-1v1l2.5.5-2.5.5q-1.2-2.2-6-1v1l2.5.5-2.5.5-4.5-1.5 4.5-1.5h5l1-1h5l1-1h8zm-30 5 3.5.5-4 1 2 1-1.5.5q-.8-1.7-4-1v1l1.5.5-1.5.5q-.7-1.7-4-1v1l1.5.5-1.5.5-3-1v2l-3.5-1.5 6.5-2.5 7-1zm-245 4 53.5.5-54 1 6 1-5.5.5-1-1h-8v1l3.5.5-3.5.5-1-1h-6v1l2.5.5-2.5.5q-1.2-2.3-6-1v1l2.5.5-2.5.5q-1-2-5-1v1l1.5.5-1.5.5q-.7-1.8-4-1v1l1.5.5-1.5.5q-.7-1.7-4-1v1l1.5.5-1.5.5q-.7-1.7-4-1v1l1.5.5-1.5.5-3-1v2l-3-1v2l-3.5-1.5 9.5-3.5 11-2 1-1 10-1 1-1h6l1-1h8zm55 1h11l1 1h8l1 1 5.5.5-5.5.5-1-1h-8q-1 2-5 1v-1l4.5-.5-11.5-.5zm172 0 2.5.5-3 1 2 1-1.5.5-3-1v1l1.5.5-1.5.5-2-1v2l-3-1v2l-3-1v2l-2-1v2l-3-1v2l-2-1v2l-2-1v2l-2.5-1.5 6.5-3.5h2zm-182 1 8.5.5-8.5.5z" opacity=".063"/><path fill="#f30000" stroke="#f30000" d="m210.5 125 2.5.5-2.5.5zm-123 7 1.5.5-2 1 .5 1.5-3-1v2l-2.5-1.5zm253 0 2.5 1.5-1.5-.5-1.5.5.5 1.5-2-1v2l-2-1v2l-2-1v2l-2-1v2l-2-1v2q-3-1.5 0-3zm-261 3 1.5.5-2 1 .5 1.5-2-1v2l-2.5-1.5zm-9 4 2.5 1.5-1.5-.5-1.5.5.5 1.5-2-1v2q-3-1.5 0-3zm257 0q1.5 1-1 2l-1.5.5.5 1.5-2-1v2q-3-1.5 0-3zm-262 3q1.5 1-1 2l-1.5.5.5 1.5-2-1v2l-2-1 .5 1.5-1.5 1.5-2-1v2q-1-2-2 0l-1.5.5.5 1.5q-1-2-2 0l-1.5.5q2.3 1.3-.5 2.5-1-2-2 0l-1.5.5 1 1-2.5 2.5-1-1-3.5 3.5-6.5 7.5-4.5 3.5q2.3 1.3-.5 2.5l-2.5 1.5q2.3 1.3-.5 2.5l-2.5 1.5.5 1.5-1.5-.5-1 2 .5 1.5-1.5.5.5 1.5-1.5.5.5 1.5-1.5-.5-1 2 .5 1.5-1.5.5 1 2h-2l1 2h-2l1 2h-2l1 3h-2l1 3h-1l-.5-1.5-.5 2.5.5 1.5-1.5-.5 1 3H9l1 3H8l1 4H8l-.5-1.5-.5 3.5.5 1.5-1.5-.5 1 4H6l-.5-1.5-.5 3.5 1 2H5l-.5-1.5-.5 3.5 1 2H4l-.5-1.5-.5 3.5 1 3H3l-.5-1.5-.5 4.5 1 3H2l-.5-2.5-.5 5.5q1.7.7 1 4H1l-1-9 1-1v-4l1-1v-4l1-1 1-7 8-24q10.2-23.8 28.5-39.5 11-10 25-17Zm517 25 6.5 5.5 7 8 11 16 9 18v2l2 3 5 15v3l1 1v3l3 9v4l1 1v4h-1v-4l-1-1-.5-4.5-1 3-.5-2.5q1.8-.7 1-4h-1l-.5 1.5-.5-1.5q1.8-.7 1-4h-1l-.5 1.5-.5-1.5q1.8-.7 1-4h-1l-.5 1.5-.5-1.5q1.7-.7 1-4h-1l-.5 1.5-.5-1.5 1-3h-2l1-3h-2l1-3h-2l1-3h-2l1-3h-1l-.5 1.5-.5-1.5 1-2h-2l1-2-2-1 1-2h-2l1-2h-2l1-2h-2l1-2h-2l1-2h-2l1-2h-2l.5-1.5-1.5-.5.5-1.5-1.5-.5.5-1.5-2.5-1.5.5-1.5-1.5-.5q2-1 0-2l-.5-1.5-1.5.5q2.3-1.2-.5-2.5l-1.5-.5q2.3-1.2-.5-2.5l-2.5-1.5 1-1-2.5-2.5-3.5-2.5 1-1-9-9zM.5 254l.5 5.5H0zm628 7 .5 2.5h-1zm6 157 .5 4.5h-1zm2 1 .5 3.5h-1zm-1 5 .5 8.5h-1zm-2 5 .5 3.5h-1zm1 5 .5 6.5h-1zm-2 4 1.5 4.5v5l-1 1v5l-1 1-1 9-1 1-2 11-5 13v3l-4 12-10 23-8 13-7 9-21.5 21.5-26 21-9 6-12 6q-2.5-1-1-2l2 1v-2l2 1v-2l2 1v-2q1 2 2 0l1.5-.5-.5-1.5 2 1v-2l2 1-.5-1.5 1.5-1.5 2 1v-2q1 2 2 0l1.5-.5-.5-1.5q1 2 2 0l1.5-.5q-2.2-1.2.5-2.5 1 2 2 0l1.5-.5q-2.2-1.2.5-2.5 1.5 2.5 3-1l1.5-.5q-2.3-1.2.5-2.5 1.5 2.5 3-1l1.5-.5q-2.2-1.2.5-2.5 1.5 2.5 3-1l1.5-.5-1-1 3.5-3.5 1 1 2.5-2.5 6.5-7.5 1 1 7.5-7.5-1-1 4.5-4.5 1.5.5 2-3-1-1 2.5-2.5 2.5-1.5q-2.2-1.2.5-2.5l1.5-.5q-2.3-1.2.5-2.5l1.5-.5q-2.2-1.2.5-2.5l1.5-.5-.5-1.5 1.5-.5q-2.2-1.2.5-2.5l1.5-.5-.5-1.5 1.5.5-1-2 2-1-.5-1.5 1.5-.5-.5-1.5 1.5-.5-.5-1.5 1.5-.5-1-2h2l-1-2h2l-1-3h2l-1-2h2l-1-3h2l-1-3h2l-1-3h1l.5 1.5.5-2.5-1-2h1l.5 1.5.5-2.5-1-2h1l.5 1.5.5-2.5-1-2h1l.5 1.5.5-3.5-.5-1.5 1.5.5-1-3h2l-1-3h2l-1-4h1l.5 1.5.5-2.5-1-2h2l-1-4h1l.5 1.5.5-3.5-1-2h1l.5 1.5.5-3.5-1-2h1l.5 1.5.5-4.5-1-2h1l.5 1.5.5-4.5-1-2h1l.5 1.5.5-5.5-1-3h1l.5 2.5.5-5.5q-2.1-1.1-.5-4.5Zm-321 158 5.5 1.5-4.5 1.5h-4l-1 1h-4l-1 1h-4l-1 1h-4l-1 1h-6l-1 1h-9l-1 1h-20v-1l20.5-.5-20-1 19.5-.5 1 1h9v-1l-3.5-.5 3.5-.5 1 1h6v-1l-2.5-.5 2.5-.5q1 2 5 1v-1l-1.5-.5 1.5-.5q1 2 5 1v-1l-1.5-.5 1.5-.5q1 2 5 1v-1l-1.5-.5 1.5-.5q1 2 5 1v-1q-2.4-.1-1-1Zm210 6 2.5 1.5-6.5 3.5-12 4-7 1v-1l3.5-.5-2-1 1.5-.5q.8 1.8 4 1v-1l-1.5-.5 1.5-.5 3 1v-2l3 1v-2l3 1v-2l3 1v-1l-1.5-.5 1.5-.5 2 1v-2l2 1zm-274 1 6.5.5-6.5.5zm185 8 2.5.5-2.5.5zm57 0 7.5 1.5-4.5.5-3-1zm-48 1 4.5.5-4.5.5zm40 0 3.5.5-3.5.5z" opacity=".063"/><path stroke="#000" d="m317.5 0 .5 9.5h-1zm-12 2 2.5.5-2.5.5zm-7 1 2.5.5-2.5.5zm-8 1 3.5.5-3.5.5zm-7 1 3.5.5-3.5.5zm-6 1 2.5.5-2.5.5zm-6 1 2.5.5-2.5.5zm-10 2 2.5.5-2.5.5zm55 17 .5 63.5h-1zm1 79 .5 10.5h-1zm123 8 22.5.5-22.5.5zm29 1 4.5.5-4.5.5zm8 1 3.5.5-3.5.5zm7 1 2.5.5-2.5.5zm5 1 2.5.5-2.5.5zm-171 7 .5 7.5h-1zm-89 4 4.5.5-4.5.5zm9 1 4.5.5-4.5.5zm8 1 2.5.5-2.5.5zm6 1 2.5.5-2.5.5zm9 2 2.5.5-2.5.5zm20 4 .5 2.5h-1zm38 1 .5 5.5h-1zm240 9 2.5 2.5-.5.5-2.5-2.5zm6 5 13.5 13.5-.5.5-13.5-13.5zm65 126 .5 2.5h-1zm-630 4 .5 4.5H0zm633 9 .5 2.5h-1zm1 5 .5 2.5h-1zm1 6 .5 2.5h-1zm1 6 .5 3.5h-1zm1 7 .5 4.5h-1zm-637 2 .5 5.5H0zm638 7 .5 5.5h-1zm-637 3 .5 4.5H1zm1 8 .5 3.5H2zm637 1 .5 11.5h-1zm-636 6 .5 2.5H3zm1 5 .5 2.5H4zm2 10 .5 2.5H6zm633 10 .5 10.5h-1zm-1 17 .5 5.5h-1zm-1 11 .5 3.5h-1zm-1 8 .5 2.5h-1zm-1 6 .5 3.5h-1zm-1 6 .5 2.5h-1zm-565 81 2.5 2.5-.5.5-2.5-2.5zm3 4 2.5 2.5-.5.5-2.5-2.5zm4 5 2.5 2.5-.5.5-2.5-2.5zm5 6 3.5 3.5-.5.5-3.5-3.5zm6 7 6.5 6.5-.5.5-6.5-6.5zm22 22 6.5 6.5-.5.5-6.5-6.5zm10 9 3.5 3.5-.5.5-3.5-3.5zm7 6 2.5 2.5-.5.5-2.5-2.5zm5 4 2.5 2.5-.5.5-2.5-2.5zm4 3 2.5 2.5-.5.5-2.5-2.5zm4 3 2.5 2.5-.5.5-2.5-2.5zm185 30 2.5.5-2.5.5zm5 1 2.5.5-2.5.5zm-128 1 2.5.5-2.5.5zm133 0 2.5.5-2.5.5zm5 1 2.5.5-2.5.5zm-128 1 2.5.5-2.5.5zm133 0 2.5.5-2.5.5zm-127 1 4.5.5-4.5.5zm132 0 2.5.5-2.5.5zm-121 1 17.5.5-17.5.5zm126 0 2.5.5-2.5.5zm6 1 2.5.5-2.5.5zm5 1 2.5.5-2.5.5zm6 1 2.5.5-2.5.5zm6 1 3.5.5-3.5.5zm7 1 3.5.5-3.5.5zm7 1 3.5.5-3.5.5zm8 1 4.5.5-4.5.5zm10 1 6.5.5-6.5.5zm16 1 2.5.5-2.5.5z" opacity=".4"/><path fill="#f30000" stroke="#f30000" d="m418.5 114 10.5.5-10.5.5zm-10 1 4.5.5-4.5.5zm-7 1 2.5.5-2.5.5zm-6 1 2.5.5-2.5.5zm-251 6 38.5.5-38.5.5zm-11 1 4.5.5-4.5.5zm60 0 6.5.5-6.5.5zm-68 1 3.5.5-3.5.5zm80 0 4.5.5-4.5.5zm-86 1 2.5.5-2.5.5zm95 0 3.5.5-3.5.5zm-101 1 2.5.5-2.5.5zm108 0 2.5.5-2.5.5zm-173 28 .5.5-2.5 2.5-.5-.5zm-5 4 .5.5-5.5 5.5-.5-.5zm536 7 10.5 10.5-.5.5-10.5-10.5zm-544 1 .5.5-5.5 5.5-.5-.5zm557 13 2.5 2.5-.5.5-2.5-2.5zm-589 57 .5 2.5H3zm-1 6 .5 2.5H2zm-1 7 .5 3.5H1zm-1 10 .5 9.5H0zm0 12 .5 9.5H0zm633 152 .5 4.5h-1zm-1 10 .5 3.5h-1zm-1 8 .5 2.5h-1zm-1 7 .5 2.5h-1zm-1 5 .5 2.5h-1zm-33 87 .5.5-2.5 2.5-.5-.5zm-4 5 .5.5-2.5 2.5-.5-.5zm-7 8 .5.5-6.5 6.5-.5-.5zm-13 12 .5.5-3.5 3.5-.5-.5zm-7 6 .5.5-3.5 3.5-.5-.5zm-6 5 .5.5-2.5 2.5-.5-.5zm-5 4 .5.5-2.5 2.5-.5-.5zm-237 13 2.5.5-2.5.5zm-9 2 2.5.5-2.5.5zm-5 1 2.5.5-2.5.5zm-5 1 2.5.5-2.5.5zm-5 1 2.5.5-2.5.5zm-7 1 3.5.5-3.5.5zm-37 1 4.5.5-4.5.5zm27 0 5.5.5-5.5.5zm152 9 2.5.5-2.5.5zm64 0 2.5.5-2.5.5zm-57 1 5.5.5-5.5.5zm50 0 3.5.5-3.5.5zm-39 1 6.5.5-6.5.5zm29 0 5.5.5-5.5.5z" opacity=".506"/></svg>