<svg xmlns="http://www.w3.org/2000/svg" viewBox="0 0 383 640"><path fill="#0b1236" stroke="#0b1236" d="m178.5 506 3.5 1.5-1.5.5-2.5-1.5zm6 2 3.5.5-3.5.5zm6 1 5.5.5-5.5.5zm8 1 4.5.5-4.5.5zm8 1 4.5.5-4.5.5zm104 0 5.5.5-5.5.5zm-96 1 4.5.5-4.5.5zm85 0 7.5.5-7.5.5zm-78 1 5.5.5-5.5.5zm65 0 8.5.5-8.5.5zm-55 1 7.5.5-7.5.5zm42 0 9.5.5-9.5.5zm-108 42 1.5 4.5h-1q-1.7-1.7-.5-4.5Zm1 11q2 .5 1.5 3.5-1 1.5-2-1zm-11 5 .5 8.5h-1zm12 11 .5 5.5h-1zm-12 3 .5 4.5h-1zm11 4 .5 5.5h-1zm-11 12 .5 5.5h-1zm129 2 .5 2.5h-1zm-118 13 1.5 2.5q-1 1.5-2-1zm1 9 1.5.5-.5 2.5q-2.4-.9-1-3Zm12 10 2.5.5-2.5.5zm28 1 2.5.5-2.5.5zm50 2 5.5.5-5.5.5z" opacity=".412"/><path fill="#053c7b" stroke="#053c7b" d="m157.5 510 .5 2.5h-1zm164 2 .5 3.5h-1zm-2 4 .5 4.5h-1zm-161 3 .5 3.5h-1zm-2 3 .5 2.5h-1zm0 4 .5 3.5h-1zm-2 15 .5 2.5h-1zm161 4 .5.5-4.5 4.5-.5-.5zm-161 3 .5 2.5h-1zm1 7 .5 2.5h-1zm-2 4 .5 10.5h-1zm147 9 1 1 1.5-.5-2.5 2.5-1.5-1.5zm-147 26 .5 3.5h-1zm133 6 .5 2.5h-1zm-133 13 .5 6.5h-1zm126 7 1.5.5-.5 1.5-1-1-1.5.5zm-127 10 .5 3.5h-1zm15 6 2.5.5-2.5.5zm25 1 4.5.5-4.5.5zm-22 1 5.5.5-5.5.5zm50 0 4.5.5-4.5.5zm-23 1 5.5.5-5.5.5zm50 0 4.5.5-4.5.5z" opacity=".012"/><path fill="#9f3b09" stroke="#9f3b09" d="M248.5 0h10l1 1 12.5.5.5 1.5 2-1 1 2 2-1 1 2 1.5-.5.5 1.5 3 2 1.5-.5 3.5 4.5 10.5 8.5q-2.2 1.3.5 2.5l1.5.5-.5 1.5 1.5.5-.5 1.5 1.5.5-.5 1.5 1.5.5-1 2 2 1-.5 1.5 1.5.5-1 2 2 1-1 2 2 1-1 1 2 2-1 1q3.5 1.5 1 3l.5 1.5 1.5.5q1 4-1 5v9q2.5.5 2 4l-1 3 2 1q.8 4.3-2 5v4q1.8.8 1 4-2.7.8-2 5 2.5.5 2 4l-1 3q2.5.5 2 4-2 1 0 2l-1.5 1.5-1.5-1.5q2-1 0-2l-.5-1.5-1.5-.5 1-2-2-1 1-5-2-1 1-3-2-1 1-3-2-1 1-4-2-1 1-6-2-1 1-2-2-1 1-1-3.5-3.5q-3.5.5-4-2h-4l-1 2-1.5-.5-5.5 6.5-4.5 3.5.5 1.5-3.5 2.5.5 1.5-2.5 1.5.5 1.5-2.5 1.5.5 1.5-1.5.5 1 2-2 1q-.7 3.3 1 4l-1.5-.5-1.5.5-.5 1.5-1.5-.5-.5 1.5-1-1-1.5.5 1-4-2-1 1-3-2-1 1-2-2-1 1-2-2-1 .5-1.5-1.5-.5 1-1-2.5-2.5-1.5-.5-1.5-2.5-1.5.5-.5-1.5-7 1-2-2-3.5-.5 1-4-2-1 1-4-2-1 1-4-2-1 .5-1.5-3.5-2.5-.5-1.5-2-1-3 1-2-1-1 2-2-1-1 2-1.5-.5-.5 1.5-1.5-.5-.5 1.5-1.5-.5-.5 1.5q-1.3-2.2-2.5.5l-1.5 2.5-1-1-4.5 4.5-1.5 2.5-1-1-4.5 4.5-1.5 2.5q-1.2-2.2-2.5.5l-.5 1.5-1.5-.5-.5 1.5-3-3q-4.2.8-5-2l-2 2-.5-.5q2-1 0-2l.5-2.5 1.5-.5-1-5 2-1-1-2 2-1 1-2-1-1 4-4-.5-1.5 1.5-.5-.5-1.5 2.5-1.5-.5-1.5 1.5-.5 2-3-.5-1.5 5.5-4.5-1-1 2.5-2.5 11.5-9.5.5-1.5 1 1 4.5-4.5.5-1.5q1.5 2.5 3-1l2.5-1.5.5-1.5 2 1 1-2 1.5.5.5-1.5 2 1 1-2 2 1 1-2q4-1 5 1l1-1q4.7 1.3 6-1Z" opacity=".996"/><path fill="#aa4309" stroke="#aa4309" d="m280.5 5 3.5 2.5-.5.5-2-2q-2.4-.1-1-1Zm-56 1q1.5 1-1 2l-3 2-.5-.5 2.5-2.5zm61 2L297 18.5l-.5.5-7-7-4.5-3.5zm-67 2 .5.5-4.5 4.5-.5-.5zm-6 5 .5.5-3.5 3.5-7 6-.5-.5 6.5-6.5zm-12 12 .5.5-5.5 5.5-.5-.5zm-15 22-.5 1.5-.5 1.5-.5-1.5zm51 3 .5 2.5h-1zm-27 1 .5.5-4.5 4.5-.5-.5zm101 1 .5 9.5h-1zm-73 3 .5 2.5h-1zm-55 1 .5 2.5h-1zm20 1 .5.5-4.5 4.5-.5-.5zm88 1 4.5.5-4.5.5zm-52 2 .5 2.5h-1zm60 0 3.5 3.5-.5.5-3.5-3.5zm-117 2 1 1 1.5-.5-1.5 1.5q-2.5-1-1-2Zm58 3 2.5.5-2.5.5zm9 1 2.5.5-2.5.5zm33 0 .5.5-3.5 3.5-.5-.5zm30 0 .5 2.5h-1zm-8 2 .5 3.5h-1zm-48 2 2.5 2.5-.5.5-2.5-2.5zm22 1 .5.5-2.5 2.5-.5-.5zm34 3 .5 4.5h-1zm-7 1 .5 2.5h-1zm-43 7 .5 2.5h-1zm50 1-.5 1.5q-.7 3.3 1 4-1 1.5-2-1-.7-3.7 1.5-4.5Zm-42 1 .5 3.5-2.5 1.5v-1l1.5-.5zm-7 2 .5 2.5h-1zm45 2 .5 3.5h-1zm4 4 .5 2.5h-1zm-2 5 1.5 2.5q-1 1.5-2-1zm3 4q2.5 1 1 2l-1.5-.5z" opacity=".996"/><path fill="#8b695f" stroke="#8b695f" d="M233.5 227v2l1.5.5q-2 1 0 2l-.5 2.5-1.5.5 1 3-2 1 .5 1.5-1.5.5.5 1.5-2.5 1.5.5 1.5-1.5-.5-.5-1.5-1.5.5-.5-1.5-2 1q-2.5-1-1-2l1.5.5-1-2 3-2 2.5-3.5 3.5-2.5-.5-1.5 1.5-.5q-2.2-1.2.5-2.5Zm-232 74L15 313.5l9.5 10.5 2.5 1.5q1 5.5-2.5 6.5l-6.5-4.5 1-7-18-19zm27 24q3.3-.7 4 1h8l1 1h7l1 1h7l1 1 8 1L180 368.5l-.5 1.5h-8l-1-1h-8l-1-1h-6q-.7-1.7-4-1l-6-6h-3l-20-7-11-1-15-8-9-3-7-1-3 2-6-3-41-13-2.5-1.5z" opacity=".984"/><path fill="#8b695f" stroke="#8b695f" d="m29.5 328 28.5 9.5-4.5.5-1 1-1-1h-3l-1-1h-3l-1-1h-3l-1-1-12.5-2.5zm125 41 20.5 2.5-.5 2.5-4-2q-4.2.7-6-1l-1 1h-6l-3.5-2.5z" opacity=".984"/><path fill="#95c7ba" stroke="#95c7ba" d="m336.5 169 4.5.5-4.5.5zm10 0q1.5 1-1 2l-1.5-.5zm-16 1 2.5.5-2.5.5zm4 1 2.5.5-2.5.5zm-39 9 2.5.5-2.5.5zm-6 1 2.5.5-2.5.5zm-6 1 2.5.5-2.5.5zm4 1 2.5.5-2.5.5zm-24 10 .5.5-2.5 2.5-.5-.5zm-8 1 2.5 1.5-1.5.5-1-1-1.5.5zm2 3 3.5.5-3.5.5zm1 7 1.5 2.5q-1 1.5-2-1zm-5 6 2.5 1.5-1.5.5q-1.5-2.5-3 1l-1.5-.5zm-18 12-.5 1.5 1 1-1.5 1.5.5-1.5-1-1zm-4 9 .5.5-2.5 2.5-.5-.5zm2 3 .5 2.5h-1zm-25 2 3.5 3.5-.5.5q-1-2-2 0l-1.5-1.5 1-1zm16 3-.5 1.5.5 1.5 1.5.5-1.5.5-1.5-2.5zm2 8-.5 1.5 1.5 1.5 1.5-.5-1 1 .5 1.5-2-2-1.5.5q2-1 0-2zm155 0 .5 4.5h-1zm-111 4 .5 4.5h-1zm-48 1 2 2 1.5-.5-1.5 1.5-1-1-1.5.5 1-1z" opacity=".941"/><path fill="#95c7ba" stroke="#95c7ba" d="m220.5 255 2 2q1.3-2.2 2.5.5l-1.5-.5-1 1-2.5-2.5zm52 0 .5 3.5h-1zm-52 3 2.5 2.5-.5.5-2.5-2.5zm54 0 .5 2.5h-1zm-3 3 .5 3.5h-1zm-55 1 2.5 2.5-.5.5-2.5-2.5zm57 2 .5 3.5h-1zm109 0 .5 5.5h-1zm-167 3 2.5 2.5-.5.5-2.5-2.5zm57 3 .5 2.5h-1zm2 2 .5 2.5h-1zm-3 3 .5 2.5h-1zm111 1 .5 5.5h-1zm-109 2 .5 3.5h-1zm2 2 .5 3.5h-1zm-1 6 .5 5.5h-1zm3 5 .5 4.5h-1zm-5 1 .5 2.5h-1zm3 4 .5 3.5h-1zm105 1 .5 2.5h-1zm-107 2 .5 2.5h-1zm3 3 .5 2.5h-1zm-2 3 .5 2.5h-1zm-2 2 .5 2.5h-1zm3 3 .5 2.5h-1zm-2 3 .5 2.5h-1zm-107 1 .5 2.5h-1zm105 1 .5 3.5h-1zm-2 4 .5 3.5h-1zm-102 1 .5 2.5h-1zm107 0 .5 4.5h-1zm-5 7 .5 3.5h-1zm5 0 .5 3.5h-1zm-3 3 .5 11.5h-1zm-86 3q2.5 1 1 2l-1-1-1.5.5zm-11 3 4.5 1.5-1.5.5-3-1zm-5 1 2.5.5-2.5.5zm104 0 .5 7.5h-1zm2 8 .5 3.5h-1zm-5 1 .5 2.5h-1zm-91 1 2.5 1.5-1.5-.5q-2.4-.1-1-1Zm93 2 .5 3.5h-1zm2 3 .5 2.5h-1zm-1 5 .5 2.5h-1zm-94 2 1.5 2.5h-1zm96 0 .5 2.5h-1zm-97 3 .5 3.5h-1zm96 1 .5 3.5h-1zm-134 3q2.5 1 1 2l-1-1-1.5.5zm40 0 1.5 2.5h-1zm96 0 .5 3.5h-1zm-140 3q2.5 1 1 2l-1-1-1.5.5zm137 0 .5 3.5h-1zm5 2 .5 2.5h-1zm-100 2 3.5.5-4.5 1.5q-1.5-1 1-2Zm97 0 .5 5.5 1 1-1.5-.5-7.5-.5 7-1zm-146 1 1 1 1.5-.5-1.5 1.5q-2.5-1-1-2Zm62 2q1.5 1-1 2l-1.5-.5zm-66 1 1.5 2.5h-1zm128 0 7.5.5-7.5.5zm-22 1 5.5.5-5.5.5zm-107 1 .5 9.5h-1zm81 0 4.5.5-4.5.5zm8 0 7.5.5-7.5.5zm29 0 10.5.5-10.5.5zm-18 1 7.5.5-7.5.5zm35 0 9.5.5-9.5.5zm-49 1 4.5.5-4.5.5zm26 0 7.5.5-7.5.5zm-34 1 2.5.5-2.5.5zm19 0 6.5.5-6.5.5zm32 0 6.5.5-6.5.5zm-21 1 4.5.5-4.5.5zm-28 1 4.5.5-4.5.5zm10 0 6.5.5-6.5.5zm-89 6 .5 6.5h-1zm38 26 2.5 2.5-.5.5-2.5-2.5zm53 18 2.5.5-2.5.5zm6 1 2.5.5-2.5.5zm-4 1 2.5.5-2.5.5zm6 1 2.5.5-2.5.5zm11 0 2.5.5-2.5.5zm12 0 2.5.5-2.5.5zm-5 1 2.5.5-2.5.5zm13 0 2.5.5-2.5.5zm-6 1 2.5.5-2.5.5zm14 0 2.5.5-2.5.5zm-19 1 2.5.5-2.5.5zm13 0 2.5.5-2.5.5zm-6 1 2.5.5-2.5.5zm14 0 2.5.5-2.5.5zm14 0 6.5.5-6.5.5zm19 0 3.5.5-3.5.5zm14 0 2.5.5-2.5.5zm-52 1 2.5.5-2.5.5zm13 0 3.5.5-3.5.5zm13 1 11.5.5-11.5.5zm14 0 12.5.5-12.5.5zm-25 1 3.5.5-3.5.5zm40 1q1.5 1-1 2l-18.5-.5 18.5-.5zm-37 1 6.5.5-6.5.5zm-118 6 .5 3.5h-1zm160 5 .5 3.5h-1zm-2 18 .5 4.5h-1zm-157 8 .5 2.5h-1zm74 28 3.5.5-3.5.5z" opacity=".941"/><path fill="#b3d9cc" stroke="#b3d9cc" d="M343.5 169q4-.5 4.5 2.5l-.5.5-2-2q-3 .5-2-1Zm-10 1 5.5.5-5.5.5zm-5 1 2.5.5-2.5.5zm-7 2 2.5.5-2.5.5zm27 0 6.5 8.5-.5.5-2.5-2.5-4-6zm-34 2 2.5.5-2.5.5zm-16 5 2.5.5-2.5.5zm-5 1 3.5.5-3.5.5zm-6 1 3.5.5-3.5.5zm-5 1 2.5.5-2.5.5zm77 6 4.5 5.5-.5.5-2.5-2.5-2-3zm-93 1 .5.5-2.5 2.5-.5-.5zm-9 6 4.5.5-4.5.5-1 1q-1.5-1 1-2Zm107 0q3 .5 2.5 4.5h-1l-2-4zm-123 14 2.5.5-3 1-.5 2.5-.5-2.5zm6 2 3.5 1.5-2.5.5q-2.5-1-1-2Zm-9 5 .5 1.5-1.5 2.5-.5-1.5zm-2 5 .5.5-2.5 2.5-.5-.5zm-34 1 .5 1.5q-2.4 1.1-2.5 4.5l-.5-2.5zm34 5q2 .5 1.5 3.5h-1zm-37 2-.5 1.5-4.5 9.5-.5-2.5 3-4v-2zm5 2 2.5 2.5-.5.5-2.5-2.5zm4 5 2.5 2.5-.5.5-2.5-2.5zm-15 5-.5 1.5-4.5 8.5.5-1.5 2-6zm187 0 1.5 4.5-1.5.5zm-162 1 4.5 1.5-1.5.5-3-1zm9 3 .5 1.5-2.5 2.5-.5-.5zm1 4 .5.5-2.5 2.5-.5-.5zm41 0 .5 2.5h-1zm3 0 .5 2.5h-1zm-51 5-.5 1.5-1.5 2.5.5-1.5zm49 2 .5 5.5h-1zm3 0 .5 4.5h-1zm-89 1 1.5.5-2.5 3.5-.5-1.5zm197 4 .5 3.5h-1zm-163 4-.5 1.5-1.5 2.5.5-1.5zm53 0 .5 4.5h-1zm3 0 .5 3.5h-1zm-97 7-.5 1.5-4.5 9.5-1.5-.5zm95 1 .5 5.5h-1zm3 0 .5 3.5h-1zm106 6 .5 4.5h-1zm-105 2 .5 5.5h-1zm-3 1 .5 13.5h-1zm-103 4 .5 1.5-1.5.5q-1.5-1 1-2Zm210 3 1.5.5-1.5 4.5zm-211 1 .5 3.5q-1 2.5-2 1zm107 0 .5 6.5h-1zm-108 9 .5 4.5-1.5.5-.5-1.5zm211 0 1.5.5-1.5 3.5zm-107 1 .5 4.5h-1zm3 1 .5 4.5h-1zm-108 6 .5 4.5q-1 2.5-2 1zm104 1 .5 4.5h-1zm3 1 .5 3.5h-1zm-4 7 .5 16.5h-1zm-104 1 .5 4.5h-1zm107 0 .5 13.5h-1zm98 4-.5 1.5-1.5 2.5.5-1.5zm-201 2 2.5 1.5-1.5.5q-2.5-1-1-2Zm195 9-.5 1.5-1.5 2.5.5-1.5zm-193 4 2.5.5-2.5.5zm-4 1 2.5.5-2.5 1.5zm0 3 1.5.5 4.5 5.5 2.5.5-.5 1.5-8.5-7.5zm106 1 .5 7.5h-1zm-3 1 .5 7.5h-1zm88 1 .5 1.5-2.5 4.5-.5-1.5zm-181 4 1 1 1.5-.5-.5 1.5q-3.8-.7-2-2Zm94 6 .5 4.5h-1zm3 0 .5 3.5h-1zm-94 1 .5 1.5-1.5.5q-1.5-1 1-2Zm173 1 1.5.5q-1 2.5-2 1zm-175 4 .5 6.5h-1zm97 0 .5 3.5h-1zm-3 1 .5 2.5h-1zm-131 4 .5.5-3.5 3.5-.5-.5zm132 3 .5 7.5h-1zm3 0 .5 7.5h-1zm-126 1 3.5 3.5-.5.5-3.5-3.5zm26 2q3-.5 3.5 1.5l-1.5.5-1.5-.5-.5 1.5zm-46 2 .5.5-2.5 2.5-.5-.5zm27 0q1 2 2 0l1.5.5-.5 1.5-3.5-.5zm190 0 1.5.5q-1 2.5-2 1zm-169 1 2.5.5-2.5.5zm-4 1q2.5 1 1 2l-1.5-.5zm-48 1 .5.5-2 2-.5 2.5-.5-2.5zm60 0 2.5.5-2.5.5zm4 1 2.5.5-2.5.5zm58 1 13.5.5-13.5.5zm-50 1 2.5.5-2.5.5zm30 0 8.5.5-8.5.5zm-25 1 17.5.5-17.5.5zm48 1 11.5.5-11.5.5zm-22 1 9.5.5-9.5.5zm-27 1 20.5.5-20.5.5zm141 1 1.5.5q-1 2.5-2 1zm-1 3 1.5.5q-1 2.5-2 1zm-1 3 1.5.5q-1 2.5-2 1zm-1 3 1.5.5q-1 2.5-2 1zm-1 3 1.5.5q-1 2.5-2 1zm-214 2 3 2h2l4.5 4.5-.5.5-3-3-5-2q-2.5-1-1-2Zm10 8 3.5 1.5-.5 1.5-3.5-2.5zm5 2 3.5 1.5-.5 1.5-3.5-2.5zm195 0 1.5.5q-1 2.5-2 1zm-179 5 2.5 1.5-1.5.5q-2.5-1-1-2Zm4 2 5.5 4.5-2.5.5q-3.2-1.9-3-5Zm3 9 .5 3.5-1.5.5.5-1.5zm29 5 2.5.5-2.5.5zm136 0 .5 1.5-1.5 2.5-.5-1.5zm-131 1 2.5.5-2.5.5zm-35 1 .5 3.5-1.5.5-.5-1.5zm25 0 2.5.5-2.5.5zm15 0 2.5.5-2.5.5zm-11 1 2.5.5-2.5.5zm17 0 2.5.5-2.5.5zm-12 1 2.5.5-2.5.5zm17 0 2.5.5-2.5.5zm-11 1 2.5.5-2.5.5zm17 0 3.5.5-3.5.5zm-12 1 2.5.5-2.5.5zm18 0 3.5.5-3.5.5zm-12 1 2.5.5-2.5.5zm18 0 3.5.5-3.5.5zm94 0q1.5 1-1 2l-3 1v-1zm-107 1 3.5.5-3.5.5zm20 0 3.5.5-3.5.5zm-77 1 .5 4.5-1.5.5-.5-1.5zm64 0 2.5.5-2.5.5zm20 0 4.5.5-4.5.5zm-14 1 3.5.5-3.5.5zm22 0 4.5.5-4.5.5zm66 0q1.5 1-1 2l-3 1v-1zm-82 1 3.5.5-3.5.5zm24 0 4.5.5-4.5.5zm-17 1 4.5.5-4.5.5zm25 0 3.5.5-3.5.5zm-17 1 4.5.5-4.5.5zm25 0 36.5.5-36.5.5zm-16 1 3.5.5-3.5.5zm7 1 3.5.5-3.5.5zm8 1 9.5.5-9.5.5zm17 0 20.5.5-20.5.5zm-133 2 .5 4.5-1.5.5-.5-1.5zm154 0 2.5 2.5-.5.5-1.5-.5zm4 13q2 .5 1.5 3.5l-1.5 4.5zm-1 11 1.5.5q-1 2.5-2 1zm-158 1q2.4 2.1 1.5 7.5h-1zm1 14 1.5 1.5v9l1.5 1.5 2.5 1.5-1.5.5-3.5-3.5v-8q-1.7-.7-.5-2.5Zm158 0 1.5 2.5q-1 1.5-2-1zm1 5 .5 11.5h-1zm-150 10 3.5 1.5-.5 1.5-3.5-2.5zm11 4 1.5.5-.5 1.5q-2.5-1-1-2Zm4 1 2.5 1.5-1.5.5q-2.5-1-1-2Zm134 0 .5 1.5-1.5 2.5-1.5-.5zm-128 1q4.1-.6 5.5 1.5l-2.5.5-3-1zm8 1q3.8-.7 4.5 1.5l-1.5.5-3-1zm7 1q4.5-1 5.5 1.5l-2.5.5-3-1zm105 0 3.5.5-3.5 1.5h-3v-1zm-96 1q3.8-.7 4.5 1.5l-1.5.5-3-1zm84 0 6.5.5-4.5.5-1 1h-4v-1zm-77 1 6.5 1.5-4.5.5-2.5-1.5zm65 0 6.5.5-8.5 1.5v-1zm-54 1h9l3.5 1.5-6.5.5q-1.2-2.2-6-1zm42 0 6.5.5-4.5.5-1 1h-10v-1h8z" opacity=".973"/><path fill="#fff550" stroke="#fff550" d="m194.5 99 1.5.5q-1 2.5-2 1zm123 11 1.5 2.5h-1zm-106 22 2.5.5-2.5.5zm13 26 .5 1.5q-1 2.5-2 1zm33 1 1.5.5-2.5 1.5q-1.5-1 1-2Zm85 2 3.5 3.5-.5.5-3.5-3.5zm-98 10 11.5.5-11.5.5zm-153 198 2.5 1.5-1.5.5q-2.5-1-1-2Zm13 9 1 1 1.5-.5-1.5 1.5q-2.5-1-1-2Z" opacity=".004"/><path fill="#fec8a9" stroke="#fec8a9" d="M224.5 48q7-1.5 8.5 2.5l2 6v4l1 1v5l2.5 3.5h7q1 2 5 1l4.5 3.5 4 9v4l2.5 7.5h3l3-2h2l2.5-2.5v-5l2-4 8-11 6.5-6.5q2.2-1.8 7-1l4.5 4.5 1 3v5l1 1v4l3 9 1 9q2.8 7.2 9 11 .9 5.6 4 9v2l3 5v2l10 21 12 18-2.5 1.5h-9l-1 1-7 1-27 9h-5l-1 1-10 1-19 9 .5-1.5 1-2v-10l-1-1v-5l-1-1v-6q-1.7-.7-1-4l-2.5-2.5h-2l-3 2h-5l-1-1h-7l-1-1h-6l-4.5-1.5v-4l-6-7q.8-3.7-1.5-4.5l-2.5-1.5-2.5-8.5q-7 1.5-8.5-2.5l-1-3v-10l-1-3-9-11-3-6-1-9-1-1v-6l-1-1v-6l4.5-2.5 18-16z" opacity=".996"/><path fill="#fec8a9" stroke="#fec8a9" d="M228.5 158h5l1 1h7l1 1h7q.8 1.8 4 1l4.5 4.5-2.5 3.5h-24l-1.5 1.5-3.5 4.5-7.5 2.5.5 1.5 17-6h5l15.5 9.5 5 10q-.7 2.3-4.5 1.5l-15-11-5-1-1 1h-3l-1 1h-3l-7.5 2.5.5 1.5 3-1h5l1-1h9l7 5 6.5 6.5 3 8-1.5 2.5-1.5-.5q-2-5.5-6.5-8.5l-6-4-6-1-1 1-8 1-3.5 1.5.5 1.5h21l5.5 4.5 3 5q-.5 3-4.5 2.5-1.9-4.1-9-3l-1.5 1.5-1 7-5 7v2l-3 6-8.5 9.5-7-2-6.5-6.5-2-4v-9l1-1v-21l-1-1v-9l4-5 2-4v-3z" opacity=".996"/><path fill="#fec8a9" stroke="#fec8a9" d="m233.5 170 6.5.5-8.5 2.5-.5-.5zm1 26 5.5.5-5.5.5zm-179 144 7 1 6 3 6 2h3q.8-3.7 6-3l1 1 10 2 17 9 12 1 18.5 6.5-1.5 2.5-16.5 11.5-2 6q1.7.8 1 4l-1.5.5-31-21-20-10L55 340.5z" opacity=".996"/><path fill="#dcdcdc" stroke="#dcdcdc" d="m23.5 293 2.5 2.5-.5.5-2.5-2.5zm5 2 1.5 2.5h-1zm-23 6 2.5 2.5-.5.5-2.5-2.5zm33 1 .5.5-2.5 2.5-.5-.5zm-5 2-.5 1.5-.5 1.5-.5-1.5zm-19 6 2.5 2.5-.5.5-1.5-.5zm6 7 3.5 3.5-.5.5-3.5-3.5zm41 1 .5 4.5h-1zm3 0 .5 4.5h-1zm-29 5q3-.5 3.5 1.5l-1.5.5-2.5-1.5zm9 1 2.5 1.5-1.5-.5q-2.4-.1-1-1Zm7 1q3-.5 3.5 1.5l-1.5.5-2.5-1.5zm12 1 1.5 2.5q-1 1.5-2-1zm113 32 .5 7.5h-1z" opacity=".976"/><path fill="#f6f2ea" stroke="#f6f2ea" d="m213.5 52 .5.5-2.5 2.5-.5-.5zm-5 4 .5.5-3.5 3.5-.5-.5zm-7 6 .5.5-3.5 3.5-.5-.5zm82 6 .5.5-2.5 2.5-.5-.5zm-94 2-.5 1.5-.5 2.5-.5-2.5zm63 1 3.5 3.5-.5.5-3.5-3.5zm-61 12 .5 1.5q-1.5 3-3 0h2z" opacity=".125"/><path fill="#f6f2ea" stroke="#f6f2ea" d="m190.5 87 .5 3.5h-1zm2 4-.5 1.5-.5 2.5-.5-2.5zm14 26 .5 2.5h-1zm-2 3 .5 3.5h-1zm2 1 .5 3.5h-1zm-1 6 3 4 2-1v3l-4.5-3.5zm14 14 2.5 1.5q-1 2.5-2 1zm5 7 3.5 2.5-1.5 3.5-.5-3.5-2-2zm-1 11-.5 1.5-.5 1.5-.5-1.5zm22 13 2.5 2.5-.5.5-2.5-2.5zm-37 6 .5 1.5q-2 1 0 2l-1.5 1.5.5-1.5-1-1 1-1zm53 2 .5 4.5 1 1-1.5 2.5-.5-1.5.5-1.5-1.5-.5zm-16 7 1 1 1.5-.5-1.5 1.5-1-1-1.5.5zm3 2 4 3 1.5-.5q-1.2 2.7-2.5.5l-3.5-2.5zm-44 2 .5 2.5h-1zm1 16 .5 4.5h-1zm-2 2 .5 3.5h-1zm-139 77 4.5.5-4.5.5zm-5 1v2l1.5.5-1.5.5-3.5-1.5zm12 0q3-.5 3.5 1.5l-1.5-.5q-3 .5-2-1Zm-22 3v2l1.5.5-1.5.5-2.5-1.5z" opacity=".125"/><path fill="#f6f2ea" stroke="#f6f2ea" d="m51.5 290 2.5 1.5-1.5.5q-2.5-1-1-2Zm-27 1q3.8-.7 4.5 1.5l-1.5-.5-1.5.5-.5 1.5-1.5-2.5zm58 0q3-.5 3.5 1.5l-1.5-.5q-3 .5-2-1Zm6 2q1.5 1-1 2l-1.5-.5zm3 1 2.5 1.5-1.5-.5q-2.4-.1-1-1Zm-57 1 1.5.5-2.5 1.5q-1.5-1 1-2Zm7 1 .5.5-2.5 2.5-.5-.5zm55 0 3.5 1.5-2.5 1.5v-2l-3 1v-1zm-92 1q2.5 1 1 2l-1-1-1.5.5zm97 1 2.5.5-2.5.5zm7 2 3.5 1.5-3.5 1.5zm-102 3 7.5 7.5-.5.5-7.5-7.5zm120 4 4.5 1.5-3.5 1.5v-2l-3 1v-1zm13 5q3-.5 3.5 1.5l-2.5 1.5v-1l1.5-.5-2.5-.5-1.5.5zm-123 2 3.5 3.5-.5.5-3.5-3.5zm129 0 4.5 1.5-3.5 1.5v-2q-2.4-.1-1-1Zm14 5 2.5 1.5-1.5-.5q-2.4-.1-1-1Zm4 2 1.5.5-2.5 1.5q-1.5-1 1-2Zm-110 21 7.5 7.5-.5.5-7.5-7.5zm100 1-.5 1.5 1 1-1.5 1.5.5-1.5-1-1zm11 6 3.5 2.5q-1 2.5-2 1l.5-1.5q-3.8-.7-2-2Zm6 3 2.5 1.5-1.5-.5q-2.4-.1-1-1Zm-104 3 1.5.5-.5 1.5q-2.5-1-1-2Zm8 5 3.5 2.5-1.5-.5q-3.8-.7-2-2Zm43 25q1.5 1-1 2l-1.5-.5zm5 6 .5 4.5h-1zm207 44 1.5.5-2.5 2.5-.5-.5zm-13 9 2.5 1.5-.5 1.5-1-2q-2.4-.1-1-1Zm-84 69 2.5.5-2.5.5z" opacity=".125"/><path fill="#ad2305" stroke="#ad2305" d="m237.5 0 3.5.5-3.5.5zm30 0 4.5.5-4.5.5zm-45 4 2.5 1.5-1.5-.5q-2.4-.1-1-1Zm59 0q1 2 2 0l1.5.5-2.5 1.5q-2.5-1-1-2Zm7 3q2.8 1.3.5 2.5l10 10-.5.5L288 9.5l1-1zm-79 9 .5.5-3.5 3.5-.5-.5zm-8 8 .5.5-3.5 3.5-.5-.5zm-6 4 1.5.5-2.5 1.5q-1.5-1 1-2Zm114 11q2.5 1 1 2l-1-1-1.5.5zm0 3 1.5.5q-1 2.5-2 1zm-124 1 2.5.5-2.5.5zm40 3 4.5.5-4.5.5zm6 1 2.5 2.5-.5.5-2.5-2.5zm80 3 .5 9.5h-1zm-76 3 .5 2.5h-1zm-29 4 .5.5-3.5 3.5-.5-.5zm82 5 .5.5-6.5 6.5-.5-.5zm-110 3 4.5 1.5-2 1 .5 1.5-3.5-3.5zm8 2q1.5 1-1 2l-1.5-.5zm60 2 3.5.5-3.5.5zm68 1-.5 1.5-.5 1.5-.5-1.5zm-12 3 .5 2.5h-1zm10 7 .5 3.5h-1zm0 11 .5 3.5h-1zm-6 1 .5 2.5h-1zm5 12 2.5 2.5-.5.5-2.5-2.5zm-292 214 2.5 2.5-.5.5-2.5-2.5z" opacity=".196"/><path fill="#9b3606" stroke="#9b3606" d="m241.5 0 6.5.5-6.5.5zm18 0 7.5.5-7.5.5zm27 8 2.5 2.5-.5.5-2.5-2.5zm-70 3 .5.5-2.5 2.5-.5-.5zm-11 9 .5.5-3.5 3.5-.5-.5zm-7 8 .5.5-3.5 3.5-.5-.5zm11 26 .5.5-2.5 2.5-.5-.5zm-7 6 .5.5-2.5 2.5-.5-.5zm109 0 .5 4.5h-1zm-14 2 3.5 3.5-.5.5-3.5-3.5zm-111 4 1.5.5.5 1.5 1-1 2.5 2.5-.5.5-2-2-1 1-1.5-.5zm52 1 4.5 1.5-3.5.5q-2.5-1-1-2Zm74 1 .5 2.5h-1zm-31 1 .5.5-2.5 2.5-.5-.5zm21 1 .5 2.5h-1zm10 5 .5 4.5h-1zm-42 11 .5 3.5h-1zm41 0 .5 3.5h-1zm1 9 .5 2.5h-1zm1 6 .5 2.5h-1z" opacity=".655"/><path fill="#283c5a" stroke="#283c5a" d="m161.5 499 6.5 4.5-1.5-.5-3-2-1 3q-2.7-1.2-1-5Zm8 5 3.5 1.5-1.5.5-2.5-1.5zm-8 1 .5 4.5-1.5.5-.5-2.5zm19 3 6.5 1.5-3.5.5-3-1zm8 2 6.5.5-6.5.5zm9 1 5.5.5-5.5.5zm121 0q1.5 1-1 2l-6.5-.5 6.5-.5zm-158 1 .5 6.5q-1 2.5-2 1-.9-5.4 1.5-7.5Zm44 0 6.5.5-6.5.5zm8 1 6.5.5-6.5.5zm87 0 9.5.5-9.5.5zm-79 1 5.5.5-5.5.5zm67 0 9.5.5-9.5.5zm-59 1 13.5.5-13.5.5zm47 0 9.5.5-9.5.5zm-29 1 21.5.5-21.5.5zm71 5q2.8 1.3 1.5 6.5-1.7.7-1 4l-1.5 1.5-.5-1.5 1-1zm-158 5 .5 9.5-1.5.5-.5-2.5 1-1zm156 8q2.8 1.3.5 2.5.5 3-1.5 3.5l-.5-1.5zm-157 3 .5 2.5-1.5.5-.5-1.5zm155 4 1.5.5q-1 2.5-2 1zm-156 1 .5 13.5q-1 1.5-2-1v-8zm155 2 1.5.5q-4.7 2.8-6.5 8.5l-1.5-.5zm-145 9 .5 8.5h-1zm139 1 .5 2.5q-1 2.5-2 1-.5-3 1.5-3.5Zm-142 1 .5 7.5h-1zm140 5 1.5.5-1 3-6.5 6.5-5.5 4.5-3.5 6.5-.5-1.5 2-4 10.5-10.5 1.5-.5zm-148 3 .5 63.5h-1l-1-2v-16l1-1v-21q-2-1-1-5l1-1zm12 1 .5 8.5h-1zm-3 1 .5 9.5h-1zm0 13 .5 18.5h-1zm3 3 .5 18.5h-1zm120 1 1.5.5-2.5 3.5-.5-1.5zm-2 5 1.5.5-4.5 8.5-.5-1.5zm-3 15 .5 6.5h-1zm-119 1 .5 9.5h-1zm118 8 1.5.5q-1 2.5-2 1zm-114 3 .5 6.5h-1zm113 0-.5 1.5-3.5 4.5-.5-.5 2-2zm-116 2 .5 5.5h-1zm4 7 .5 8.5h-1zm107 0 1.5.5v5l-1.5 3.5zm-110 2 .5 7.5h-1zm-11 8 1 1 10.5.5q-1.5 3-7.5 1.5l-1-1-4.5-.5zm19 2 18.5.5-.5 1.5h-10l-1-1h-7zm28 1 19.5.5-1.5 1.5h-10l-1-1h-7zm28 1 17.5.5q-3 3-10.5 1.5l-1-1h-6zm44 0 1.5.5q-1 2.5-2 1zm-17 1 12.5.5-12.5.5z" opacity=".996"/><path fill="#d2c8cc" stroke="#d2c8cc" d="M13.5 289q4.1-.6 5.5 1.5l.5 1.5q1-2 2 0l1.5.5.5 1.5 1.5-.5q-2.3 1.3.5 2.5l1.5.5-.5 1.5 1.5.5-1 1 2 2-.5 1.5 1.5.5-1 4h2l-1 3 3.5 1.5v-2l2.5-1.5 1.5-2.5 1.5.5.5-1.5 2 1 1-2 2.5.5-.5 1.5 2-1 1 2 1.5-.5.5 1.5 1.5-.5.5 1.5 1.5-.5.5 1.5q3-1.5 0-3l-1.5-.5 1.5-.5 2.5 1.5-1 2 5 5 2 11q-1.7 2.3-6.5 1.5-.5-2.5-4-2-.7 1.7-4 1l-3-2q-1 2-5 1-.5-2.5-4-2-.7 1.8-4 1l-3-2-2 1-2.5-1.5-3.5-4.5-4.5-3.5 1-1-2.5-2.5-6.5-5.5-2.5-3.5-1.5-.5 4-3q-.5-4 2.5-4.5l1.5-.5-1-1z" opacity=".976"/><path fill="#d2c8cc" stroke="#d2c8cc" d="M63.5 289h8l3 2 8 2 3 2 5 1 3 2 5 1 3 2 13.5 4.5.5 1.5 2-1 3 2 13.5 4.5.5 1.5 2-1 24.5 9.5.5 1.5 1.5-.5.5 1.5 2-1 5.5 3.5.5 1.5 2-1 3.5 2.5-.5 4.5-4-1v2l-5-1-1 2-7 1-7 3-2 2-1.5-.5-.5 1.5-1-2-2 1-1-2-1.5.5-.5-1.5-2 1-2.5-1.5-.5-1.5-1.5.5-.5-1.5-2 1-1-2-1.5.5-.5-1.5-2 1-2.5-1.5-.5-1.5-1.5.5-.5-1.5-2 1-1-2-2 1-2.5-1.5-.5-1.5-2 1-2.5-1.5-.5-1.5-1.5.5-.5-1.5-2 1-1-2-1.5.5-.5-1.5-1.5.5-.5-1.5-2 1-1-2-1.5.5-.5-1.5-2 1-2.5-1.5-.5-1.5-1.5.5-.5-1.5-2 1-1-2-1.5.5-.5-1.5-2 1-1-2-1.5.5-.5-1.5-2 1-2.5-1.5-.5-1.5-2 1-2.5-1.5-.5-1.5-1.5.5-.5-1.5-2 1-1-2-2 1-2.5-1.5-.5-1.5-2 1-1-2-1.5.5-.5-1.5-2 1-1-2-3 1q-1.5-3.5-3-1l-5-1-1 2-2 1-.5-.5 2-2 .5-1.5 1.5-.5 2.5-3.5 2.5-.5 1.5-2.5 1.5.5.5-1.5 9-3h4zm-34 6 2 2 4 1 2.5 2.5-5 4 .5 1.5-2.5-1.5 1-2-2-1 1-2-2-1 2-1-1.5-1.5-1.5.5z" opacity=".976"/><path fill="#d2c8cc" stroke="#d2c8cc" d="m57.5 308 1.5.5.5 1.5 1.5-.5.5 1.5 2-1 1 2 1.5-.5.5 1.5 2-1 1 2 1.5-.5.5 1.5 2-1 1 2 1.5-.5.5 1.5 2-1 1 2 1.5-.5.5 1.5 2-1 2.5 1.5.5 1.5 2-1 2.5 1.5.5 1.5 1.5-.5.5 1.5 2-1 1 2 1.5-.5.5 1.5 1.5-.5.5 1.5 2-1 1 2 1.5-.5.5 1.5 2-1 2.5 1.5.5 1.5 1.5-.5.5 1.5 2-1 1 2 1.5-.5.5 1.5 2-1 1 2 1.5-.5.5 1.5 2-1 1 2 1.5-.5.5 1.5 2-1 1 2 1.5-.5.5 1.5 2-1 2.5 1.5.5 1.5 1.5-.5.5 1.5 2-1 1 2 1.5-.5.5 1.5 1.5-.5.5 1.5 2-1 1 2q1-2 2 0l9 3 11.5 5.5.5 1.5q1-2 2 0l1.5.5-1 2q2 1 1 5l-2.5.5-1-2-2 1-1-2-2 1-1-2-2 1-1-2-1 1-2-2-1 1q-1.5-3.5-3-1l-1.5-.5-.5-1.5-2 1-1-2-2 1-1-2-2 1-1-2-1 1q-1.5-3.5-3-1l-1.5-.5-.5-1.5-1 1-2-2-1 1-2-2-1 1-2-2-1 1-2-2-1 1-2-2-1 1-2-2-1 1-2-2-1 1q-1.5-3.5-3-1l-1.5-.5-.5-1.5-2 1-1-2-1 1-2-2-1 1-2-2-1 1-2-2-1 1-2-2-1 1-2-2-1 1q-1.5-3.5-3-1l-1.5-.5-.5-1.5-2 1-1-2-1 1q-1.5-3.5-3-1l-1.5-.5-.5-1.5-1 1-2-2-1 1-2-2-1 1q-1.5-3.5-3-1l-1.5-.5-.5-1.5-2 1-1.5-1.5.5-1.5-1.5-.5.5-2.5 1.5-.5-.5-4.5-1.5-.5.5-1.5-1.5-.5q2.3-1.3-.5-2.5l-4.5-3.5zm121 23 1 2 1.5-.5-.5 1.5-2.5-.5z" opacity=".976"/><path fill="#534d56" stroke="#534d56" d="m235.5 229 .5 2.5h-1zm-6 3 .5.5-5.5 5.5-.5-.5zm-227 71 2.5 2.5-.5.5-2.5-2.5zm14 15q2.5 1 1 2l-1-1-1.5.5zm11 7 2 2 5.5 1.5-2.5.5q-.7-1.7-4-1l-1.5-1.5zm10 0 2.5.5-2.5.5zm16 2 2.5.5-2.5.5zm-26 2-.5 1.5-.5 1.5-.5-1.5zm9 0 15.5 5.5-1.5.5-12-4-2.5-1.5zm20 7 13.5 4.5-1.5.5-12-4zm98 32 4.5.5-4.5.5zm7 1 5.5.5-5.5.5zm9 1 6.5.5-6.5.5zm-10 2 2.5.5-2.5.5zm-1 138 .5 2.5h-1zm160 1 .5 4.5h-1zm-23 1 2.5.5-2.5.5zm-53 2 3.5.5-3.5.5zm23 0 6.5.5-6.5.5zm-108 9 .5 7.5h-1zm162 3 .5 2.5h-1zm-164 4 .5 3.5h-1zm160 6 1.5 2.5q-1 1.5-2-1zm-160 5 .5 3.5h-1zm-2 3 .5 3.5h-1zm11 7 .5 4.5h-1zm-10 7 .5 13.5h-1zm11 3 .5 5.5h-1zm138 3-.5 1.5 1 1-1.5 1.5-1-1-1.5.5zm-151 6 .5 23.5h-1zm14 1 .5 11.5h-1zm129 0q3 1.5 0 3-1.2-2.2-2.5.5l.5 1.5-1.5-1.5zm-141 20 .5 10.5h-1zm11 5 .5 20.5h-1zm-13 2 .5 14.5h-1zm131 2 .5 3.5h-1zm2 3 .5 4.5h-1zm-2 4 .5 2.5h-1zm-3 9 .5.5-2 2 .5 1.5-1.5-1.5zm-114 4 .5 5.5h-1zm112 7 .5 3.5h-1zm-125 1 .5 5.5h-1zm14 1 .5 6.5h-1zm109 1 .5 2.5h-1zm-122 5 2.5.5-2.5.5zm15 1 8.5.5-8.5.5zm-14 1 6.5.5-6.5.5zm41 0 9.5.5-9.5.5zm-21 1 9.5.5-9.5.5zm49 0 9.5.5-9.5.5zm-22 1 12.5.5-12.5.5zm49 0 4.5.5-4.5.5z" opacity=".2"/><path fill="#273250" stroke="#273250" d="m164.5 500 1.5 1.5-.5 1.5 2-1 2.5 1.5-.5 1.5 2-1v2l3-1v2l3-1v2l2-1 1 2 3-1v2l6-1v1l-1.5.5 6.5.5 3-1v2h5l3-1v1l-1.5.5 6.5.5 3-1v1l-1.5.5 6.5.5 2-1v2l10-1v1l-2.5.5 13.5.5 1-1h32l1 1h9v-1l-1.5-.5 3.5-.5 1 1h9v-1l-1.5-.5 3.5-.5 1 1h9v-1l-1.5-.5 3.5-.5 1 1h6v-1l-1.5-.5 1.5-.5 1.5 1.5v9h-2v9l-1 2 1 2h-2l-1 5 .5 1.5-1.5.5 1 2-2 1-6 8q2.5 1.5-1 3l1 4-2 1-1.5 4.5-11.5 10.5-2 5 .5 1.5-1.5.5-1 3 .5 1.5-1.5.5-3 8q2.3 1.3 1 6l-1 1v6l1 2-2 1 1 2-2 1 .5 1.5q-1.2-2.2-2.5.5l-2 3 1 3-2 1q-1.3 6.8 1 10h-2l1 3-2 1 1 2-11.5.5v-1l6.5-.5-12.5-.5-1 1h-10v-1l1.5-.5-17.5-.5-1 1h-8v-2h-19l-1 1h-8l-1-2h-18q-1 2-5 1l-.5-3.5 1-1v-8h-1l-.5 2.5-.5-4.5 1-1v-6h-1l-.5 3.5-.5-27.5-1-1-.5-11.5-.5 18.5 1 1v18q-2.2 1.3-1 6h1l.5-2.5.5 5.5-1 1v7h1l.5-4.5.5 7.5-1.5.5v-2h-10l-1.5-1.5.5-7.5 1 2 .5-63.5-1-1v-7h2v-13l-1-2 2-1-1-3 2-1v-9q-2.2-1.3-1-6 3.5-1.5 2-8l-1-2 2-1q.7-4.2-1-6h2q-.5-3 1.5-3.5Zm82.5 16v1h21zm-81 34-1 5-1 1 1 7v-3h1q1 4-1 6l1 9 1-5 1 30h1v-18l-1-1v-7l1-1v-9l-1 4h-1q-1-5 1-6v-9l-1 5zm-1 53-1 10h1z" opacity=".992"/><path fill="#d8b2a1" stroke="#d8b2a1" d="m242.5 69 2.5.5-2.5.5zm-45 34 3.5 2.5-.5.5-2-2-1.5.5zm5 6 1.5 2.5q-1 1.5-2-1zm14 22 .5 2.5h-1zm115 11 1.5 2.5h-1l-.5-1.5-1.5.5zm8 16 2.5.5-2.5.5zm-118 3-.5 1.5 1 1-7.5 7.5-.5-.5 6-6-1-1zm36 7q2.5 1 1 2l-1-1-1.5.5zm-25 1 .5.5-2.5 2.5-.5-.5zm-21 2q2.5 1 1 2l-2 1 .5-1.5zm18 2q2.5 1 1 2l-1-1-2 2-.5-.5zm60 7 2.5.5-2.5.5zm-83 2 .5.5-2.5 2.5-.5-.5zm18 4 2.5.5-2.5.5zm9 9 2.5.5-2.5.5zm8 1 2.5 1.5-1.5.5q-2.5-1-1-2Zm5 3 5.5 5.5-.5.5-5.5-5.5zm6 7 3 2 1.5-.5-2.5 1.5-2.5-2.5zm-43 30 2.5 2.5-.5.5-2.5-2.5zm-172 65 .5.5-2.5 2.5-.5-.5zm-23 16 1.5.5q-1 2.5-2 1zm38 23 1.5.5 8.5 9.5 2.5 1.5-1.5 1.5-2.5-2.5-9-10zm89 24 .5.5-2.5 2.5-.5-.5zm-4 3 .5.5-2.5 2.5-.5-.5zm-11 8 .5.5-2.5 2.5-.5-.5zm-3 4 .5 2.5h-1zm0 5 .5 2.5h-1zm-1 12 .5 2.5h-1zm125 118 2.5.5-2.5.5zm14 0 4.5.5-4.5.5z" opacity=".075"/><path fill="#bee2d3" stroke="#bee2d3" d="m216.5 166 .5.5-2.5 2.5-.5-.5zm132 3 2.5 2.5-1.5 1.5.5-1.5-2-2zm3 4 2.5 3.5h-1l-.5-1.5-1.5.5 1-1zm-96 5 2.5 2.5-.5.5-2.5-2.5zm113 19 1.5 3.5q-1 2.5-2 1l1-2h-2zm5 14 .5 1.5q-1 2.5-2 1zm1 3 .5 1.5q-1 2.5-2 1zm1 3 .5 1.5q-1 2.5-2 1zm1 3 .5 1.5-1.5 2.5-.5-1.5zm1 3 .5 1.5q-1 2.5-2 1zm-179 2 .5 1.5q-1 2.5-2 1zm180 1 .5 1.5q-1 2.5-2 1zm-182 3 .5 1.5-4.5 8.5-.5-1.5zm183 0 .5 1.5q-1 2.5-2 1zm1 3 .5 1.5q-1 2.5-2 1zm1 3 .5 1.5q-1 2.5-2 1zm1 3 .5 1.5-1.5 2.5-.5-1.5zm-191 2-.5 1.5 1 2h-2l-1 3 .5 1.5-1.5-.5-2.5 4.5.5-1.5zm-9 17 .5 1.5-1.5 2.5-.5-1.5zm-2 5 1.5.5-2 1 .5 1.5q-3-1.5 0-3Zm-8 14 1.5 2.5h-2l1 2h-2l-1 3 .5 1.5-1.5-.5 1 2q-1 1.5-2-1zm-5 11 1.5 3.5h-1zm-141 6 1.5.5q-1 2.5-2 1zm355 2 .5 4.5h-1zm-214 1 .5 2.5h-1zm-2 5 .5 2.5h-1zm217 0 .5 3.5h-1zm-270 1 1.5.5-2.5 1.5q-1.5-1 1-2Zm-78 3q2.5 1 1 2l-1.5-.5zm132 0 .5 2.5h-1zm214 0 1.5 3.5h-1zm-216 2 .5 2.5h-1zm-33 2 1.5.5-2.5 1.5q-1.5-1 1-2Zm248 0 1.5 2.5q-1.5 3-3 0h2zm-214 5 .5 3.5h-1zm-15 2 1.5.5-2.5 1.5q-1.5-1 1-2Zm13 0 .5 4.5h-1zm210 5q2.8 1.3.5 2.5l-.5 1.5-.5-1.5 1-1zm-5 9q2.8 1.3.5 2.5l-1.5 3.5-.5-1.5 2-3zm-213 10 2.5 1.5-1.5.5q-2.5-1-1-2Zm17 8 1 1 1.5-.5-1.5 1.5q-2.5-1-1-2Zm9 2 .5 1.5-2 2 .5 1.5-2.5-3.5 1.5-.5 1.5.5zm177 0 1.5 2.5h-1zm-180 5 1.5 2.5h-3zm178 0 1.5 2.5h-1zm-1 3 1.5 2.5h-1zm-1 3 1.5 2.5h-1zm-1 3 1.5 2.5h-1zm-1 2 1.5 3.5h-1zm-2 6 1.5 2.5h-1zm-1 3 1.5 2.5h-1zm-1 2 1.5 3.5h-1zm-2 6 1.5 2.5h-1zm-1 3 1.5 2.5h-1zm-1 3 1.5 2.5h-1zm-220 1 .5 8.5 1 1q-1 1.5-2-1zm219 2 1.5 2.5h-1zm-1 3q2 .5 1.5 3.5h-1zm-1 3 1.5 3.5h-1zm-214 2q1.5 1-1 2l-1.5-.5zm213 2 1.5 2.5h-1zm-208 2 2.5 1.5-1.5.5q-2.5-1-1-2Zm8 5v2l2-1q1.5 1-1 2l-3.5-1.5zm197 1 1.5 3.5h-1zm-190 2 1.5.5-3.5 1.5v-1zm8 2 1.5.5-4.5 1.5v-1zm180 3 1.5 2.5h-1zm-173 3q2 .5 1.5 3.5h-1zm172 0 1.5 2.5h-1zm-173 3 .5 3.5h-1zm1 5 .5 2.5h-1zm169 0 1.5 2.5h-1zm-172 9 .5 2.5h-1zm166 1 1 1 1.5-.5-1.5 1.5q-2.5-1-1-2Zm-6 10 1.5 3.5q-1 2.5-2 1l1-2h-2zm-160 6 .5 3.5h-1zm163 1 .5 1.5-1.5 2.5-.5-1.5zm-165 4 .5 9.5h-1zm165 6 .5 4.5h-1zm-163 3 .5 3.5h-1zm161 1 1.5 4.5h-1zm-162 9 .5 4.5h-1zm163 2 .5 2.5h-1zm-161 2 .5 2.5h-1zm162 3 .5 2.5h-1zm1 5 .5 10.5h-1zm-164 3 1.5 4.5q-1 1.5-2-1zm162 11 1.5 3.5h-1z" opacity=".039"/><path fill="#faceb0" stroke="#faceb0" d="m226.5 47 2.5.5-2.5.5zm-23 14 .5.5-2.5 2.5-.5-.5zm43 9 2.5.5-2.5.5zm-47 33 2.5 2.5-.5.5-2.5-2.5zm22 37 1.5 2.5h-1zm24 18 2.5.5-2.5.5zm5 2 2.5.5-2.5.5zm-27 2 .5.5-11.5 11.5-.5-.5zm120 3 1.5 2.5-2.5.5v-1l1.5-.5zm-113 5 1 1 1.5-.5-1.5 1.5q-2.5-1-1-2Zm10 0q1.5 1-1 2l-2.5-.5zm-4 15 2.5.5-2.5.5zm-14 1 2.5 1.5-2.5.5zm32 5 2.5 2.5-.5.5-2.5-2.5zm-49 6 .5 2.5h-1zm33 0 3.5.5-3.5.5zm7 2 1 1 1.5-.5-1.5 1.5q-2.5-1-1-2Zm-6 9-.5 1.5-.5 1.5-.5-1.5zm-35 15 .5 3.5h-1zm6 13 2.5 2.5-.5.5-2.5-2.5zm-148 112 5.5 5.5-.5.5-5.5-5.5z" opacity=".745"/><path fill="#a9cec2" stroke="#a9cec2" d="m340.5 168 5.5.5-5.5.5zm-8 1 3.5.5-3.5.5zm-12 3 2.5.5-2.5.5zm-23 7 2.5.5-2.5.5zm-5 1 2.5.5-2.5.5zm-7 1 3.5.5-3.5.5zm-16 6 1.5.5-2.5 1.5q-1.5-1 1-2Zm-6 4 .5 1.5q-1 2.5-2 1zm-9 2 2.5 1.5-1.5-.5-2 1q-1.5-1 1-2Zm4 2 2.5.5-2.5.5zm-18 14-.5 1.5-.5 1.5-.5-1.5zm3 0 4.5 2.5-1.5-.5-3-1zm-40 12 .5 6.5h-1q1-4-1-5zm32 11 .5 4.5h-1zm-29 1 2.5 2.5-.5.5-2.5-2.5zm175 9 .5 2.5h-1zm-154 3 2 1 1.5-.5-2.5 3.5-1.5-.5 2-2-.5-.5q-2.4-.1-1-1Zm43 5 1.5.5 1 17 1 1 1 15 1 1v11l-1 1v8l-1 1v7l-1 1v12l-1 1 1 1v17l1 1v9l1 1 1 14 1 1v8l-1.5 1.5h-16l-1 1h-22l-1 1h-14l-1 1h-15l-1-1h-5l-8-3-8-1-7.5-2.5.5-4.5 1 4h3l1 1h3l1 1 15 3 1 1h6l1 1q1-2 2 0 4 1 5-1h16l1-1h20l1-1 22.5-.5q1.3-4.8-1-6v-9l-1-1-1-13-1-1v-18l-1-1v-10l1-1v-8l1-1v-7l1-1v-9q2.3-1.2 1-6l-1-1v-7l-1-1v-7l-1-1-1-18zm-44 1q1.5 1-1 2l-1.5-.5zm156 0 .5 12.5h-1zm-161 6 .5 1.5-4 6-20 42v2l-3 5-4 14-2 3-6.5 19.5-2 1-.5-.5 2-2 6-19 2-3v-3l2-3 1-5 5-10v-2l5-9v-2l11-23zm161 25 .5 5.5h-1zm-1 10 .5 2.5h-1zm-353 2q1.5 1-1 2l-1.5-.5zm13 4 .5.5-3.5 3.5v-3q1.5 2.5 3-1Zm126 1 .5 3.5h-1zm-138 3 1.5.5-.5 1.5q-2.5-1-1-2Zm351 0 .5 2.5h-1zm-339 1 2.5.5-5.5 1.5v-1zm4 0 1.5.5q-1 2.5-2 1zm5 1 1.5 2.5-1.5.5q-3-1.5 0-3Zm-20 1 3.5 4.5h-3zm23 0 4.5 2.5-1.5-.5-2.5.5-.5 1.5-.5-1.5 1-1zm113 3 .5 3.5h-1zm-110 1 4.5 4.5-.5.5-4.5-3.5zm25 7 3.5 2.5-1.5-.5q-3.8-.7-2-2Zm-19 2q2 .5 1.5 3.5l-1.5 2.5-.5-2.5 1-2zm103 0 .5 3.5h-1zm-72 3 3.5 2.5-1.5-.5q-3.8-.7-2-2Zm72 2 2.5 1.5-1.5-.5q-2.4-.1-1-1Zm8 4 4.5 2.5-1.5-.5q-3.8.5-3-2Zm5 7 2.5.5-4.5 1.5v-1zm-51 1 3.5 2.5-1.5-.5q-3.8-.7-2-2Zm47 0q1.5 1-1 2l-2.5-.5zm-6 1 1.5.5-2.5 1.5q-1.5-1 1-2Zm-36 1 3.5 2.5-1.5-.5q-3.8-.7-2-2Zm39 8 2.5 2.5-.5.5-2.5-2.5zm-26 17 2.5 2.5-.5.5-2.5-2.5zm-2 1 .5.5-2.5 2.5-.5-.5zm7 4 4.5 4.5-.5.5-4.5-4.5zm14 5 2.5.5-2.5.5zm-36 2 .5.5-2.5 2.5-.5-.5zm4 28 2.5 2.5-.5.5-2.5-2.5zm33 18 25 10h4l1 1h4l6 2h5l6 2h5l1 1 12 1 1 1h6l1 1h6l1 1h7l1 1h7l1 1h7l1 1h10l1 1q1-2 2 0h11l2-1 1 1h12l4-2-.5 1.5-.5 1.5h-36l-1-1h-8l-1-1h-6l-1-1h-8l-1-1h-6l-1-1h-7l-1-1h-5l-1-1h-5l-1-1-12-1-1-1h-4l-6-2-10-1-1-1h-3l-9-3-3-2h-2l-10.5-4.5zm-2 4 .5 2.5h-1zm-2 13 .5 3.5h-1zm-1 9 .5 3.5h-1zm-1 15 .5 4.5h-1zm161 3 .5 4.5h-1zm-160 11 .5 6.5h-1zm1 13 .5 8.5 1 1q-1 1.5-2-1zm160 3 .5 12.5h-1zm-130 17 2.5.5-2.5.5zm110 3 6.5.5-6.5.5zm-12 1 6.5.5-6.5.5zm-54 1 3.5.5-3.5.5zm42 0 3.5.5-3.5.5zm-27 1 10.5.5-10.5.5z" opacity=".341"/><path fill="#a66314" stroke="#a66314" d="m285.5 5 2.5 2.5-.5.5-2.5-2.5zm-67 2q2.5 1 1 2l-1-1-3 3-.5-.5zm72 2 9.5 9.5-.5.5-9.5-9.5zm-78 3q2.5 1 1 2l-1-1-2 2-.5-.5zm-4 3 .5.5L198.5 26l-.5-.5zm91 5 3.5 2.5q-1 2.5-2 1 2.3-1.2-.5-2.5-2.4-.1-1-1Zm-104 9 .5.5-3 3-2 3 .5 1.5-1.5.5.5 1.5q-2.7-1.2-.5-2.5 1.7-4.8 5.5-7.5Zm-7 10v3l-2 1 .5-1.5zm124 7 .5 2.5q-1 2.5-2 1zm1 5 .5 12.5h-1zm-133 1 1.5 4.5h-1q-1.7-1.7-.5-4.5Zm-1 5 .5 2.5h-1zm4 10 1.5.5-2.5 1.5q-1.5-1 1-2Zm131 0 .5 2.5h-1zm0 10 .5 5.5h-1zm0 16 .5 3.5h-1zm1 7 .5 3.5h-1zM1.5 304l2.5 2.5-.5.5-2.5-2.5zm5 5 7.5 7.5-.5.5-7.5-7.5zm10 13 1.5 2.5h-1z" opacity=".012"/><path fill="#a3c8be" stroke="#a3c8be" d="m341.5 169 6.5 3.5 4 6-.5 1.5 3.5 2.5 2 3-.5 1.5 2.5 1.5 2.5 5.5 2.5 1.5q.8 4.7 4 7l-1 1 2 2-1 1 2 2-1 1 2 2-1 1 2 2-1 1 2 2-1 1 2 2-1 1 2 2-1 1 2 2q-2 1 0 2l3 11 2 2q-2 1-1 5l2 6q-2 1 0 2 1 4-1 5l1 2q-1.7.8-1 4l2 5v5l-2 5v4l1 3-3 6 2 3-2 4v3l1 2-3 5 .5 1.5-1.5.5q-2.3 7.7-7 13l.5 1.5-1.5.5-5 9 .5 1.5-1.5.5-6 13 1 1-2 2 .5 1.5-1.5.5-2 6 1 1-2 2 1 1-2 2 .5 1.5-1.5.5 1 2-2 1-1 3 1 1-2 2 1 1-2 2 .5 1.5-1.5.5 1 2-2 1-1 4 .5 1.5-1.5.5 1 2-2 1 1 2-2 2 1 1-2 2 1 1-2 2 .5 1.5-1.5.5 1 2-2 2 1 1-2 2 1 1-2 2 1 1-2 2 1 1-2 2 .5 1.5-1.5.5-2.5 7.5-1.5.5q2.3 1.3-.5 2.5l-1.5-.5-.5 1.5-7.5 3.5-.5 1.5-1-2-3 1h-9q-.7-1.7-4-1l-1 1h-11l-1-1h-6q-1.5 3.5-3 1h-2l-3-2-3 2-3-3h-2l-3 2-3-3h-2l-3 2-3-3h-2q-1.5 3.5-3 1l-4-2q-1.5 3.5-3 1l-4-2-2 2-3-3-3 2-4-3q-1.5 3.5-3 1l-3-2-2 2-3-3-2 2-2.5-1.5-.5-1.5-3 2-3-3q-2 4-4 0l-3 1-3-2-1 1-2-2-1 1-2-2-1.5.5-1.5-2.5-1 1-1-1-1.5.5.5-1.5-2-1-1 1-1-1-1.5.5-.5-1.5-3-1-1.5.5.5-1.5-10-6q-1.5 2.5-3-1l-2 1-3-2-1 1-2-2-1.5.5-.5-1.5-3-1-1.5.5-1.5-2.5-2.5-.5.5-1.5-6-5q-1 2-2 0l-3.5-1.5 1-1v-6l-1-3v-6l2-2 1.5-4.5 2 1 2-3 5.5-2.5.5-2.5q1 2 2 0l1.5-.5 1.5-3.5h3l4.5 4.5 2.5 4.5h2l6 3 2-3q4.6-.6 6 2l1-1 2 2q1.5-2.5 3 1l2-1 3 2q1.5-2.5 3 1l2-1 3 2q1.5-2.5 3 1l2-1 2 3q2-4 4 0l2-1q1 4 7 3l3-1 3 1h6l9-3q1.7 2.8 7 2l8-3h7q1.5 3.5 8 2l2-1q1.5 2.5 3-1 4 1 5-1 1 2 2 0l5 1 .5-4.5 2-3v-2l-3-7 2-3-3-3 2-2-3-6q2.8-.7 2-5l-2-4-1-9q2.8-.7 2-5l-1-2q2-1 1-5l-2-4 3-4v-2l-2-1 3-5v-2l-2-1 3-6v-4l-2-1 2-6-3-6 2-3-3-5q3.5-1.5 1-3l-2-5q2.5-.5 2-4l-3-5q4.3-2.2-.5-4.5l-2.5 1.5 2 6-2 4 3 5-2 4 3 4q-2.5.5-2 4l3 5-2 3q2.3 1.3 1 6l-1 3 2 4-3 5 1 1-.5 1.5 1.5.5-3 5 2 3-3 5v3q1.7.8 1 4-1.7.8-1 4l2 4v7l1 1-2 6 3 5-2 3 3 4q-4 2 0 4l1 3q-2.8.8-2 5l2 4-1.5 1.5-10 1q-2.6-3.4-10-2l-5 2h-6q-.7 1.8-4 1-1.2-3.2-7-2l-3 2q-4.2-.7-6 1l-2-2h-7l-3 1q-1-2-5-1-2 4-4 0l-3 1-3-2-1.5.5-.5-1.5-2-1q-1 2-2 0l-3 1-3-2-1.5.5-1-4q1.8-.8 1-4l-2-2q2-1 0-2l1-3-1-1 1-1-.5-1.5 1.5-.5 1.5-6.5 1.5-.5-2-1 3-2-1-3 1.5-1.5 1.5-.5-2-1 2-1-1-2 3-2-2-1 2-1 2-8 2-2q-2-1 0-2l1-3q-2.2-1.2.5-2.5l1.5-.5-2-1 2-1v-2l2-3-.5-1.5 1.5-.5-.5-1.5 2.5-1.5-.5-1.5 1.5-.5-1-1 1-1-.5-1.5 1.5-.5-.5-1.5 1.5-.5.5-2.5 1.5-.5-1-1 1-1-.5-1.5 1.5-.5-.5-1.5 1.5-.5.5-2.5 1.5-.5-.5-1.5 1.5-.5q-2-1 0-2l2.5-5.5 1.5-.5-.5-1.5 1.5-.5-.5-1.5 1.5-.5 1-3-.5-1.5 1.5-.5-.5-1.5 1.5-.5.5-1.5 1.5-.5-1-2 3-1q-2.5-1.5 1-3l1.5-2.5 1.5-.5q-.5-3 1.5-3.5l1.5-.5q-2.5-1.5 1-3l.5-1.5 1.5-.5-1-2 2-1 1-4-1-2q2.8-.7 2-5l-2-1 .5-1.5-1.5-.5 2-3-.5-1.5 2.5-1.5 1-2-1-1 1-1-.5-1.5 1.5-.5.5-1.5 3-2 1 2 3 2h2l2.5-1.5.5-1.5 2 1-.5-1.5 1.5-1.5 1.5-.5.5-1.5 1.5-.5-1-1 .5-1.5-1.5-.5q2-1 0-2l-.5-2.5-1.5-.5 4.5-.5 1.5-1.5.5-1.5 1.5-.5.5-1.5 2.5-1.5.5-1.5 1.5.5.5-1.5 4-2q1 2 2 0l1.5-.5-.5-1.5q1 2 2 0l2.5-.5.5-1.5 3 1 2-2 .5.5.5 1.5h2l3-3q1.5 3.5 3 1l10-3 1.5.5.5-1.5 9.5-2.5.5-1.5 2 1 4.5-1.5.5-1.5 2 1 2-1q1.5 2.5 3-1l5 1zm-139 56 .5 1.5-1.5.5q-1.5-1 1-2Z" opacity=".996"/><path fill="#a3c8be" stroke="#a3c8be" d="m199.5 229 4.5.5-.5 1.5 1.5.5-1 1 2.5 2.5 1.5.5q-.7 3.8 1.5 4.5l3.5.5.5 1.5 3 1 1.5-.5.5 1.5q3.5-.5 4 2l3-1 1.5 1.5-2 2-.5 3.5-2.5.5-.5 2.5-1.5.5-1 3 .5 1.5-2.5.5.5 1.5-1.5.5 1 1-2 2 .5 1.5-1.5.5.5 1.5-1.5.5-.5 1.5-1.5.5.5 1.5-1.5.5.5 1.5-1.5.5.5 1.5-1.5.5.5 1.5-1.5.5q2 1 0 2l-1 2 .5 1.5-1.5.5.5 1.5-1.5.5-.5 2.5-1.5.5 1 1-1 1 .5 1.5-1.5.5.5 1.5-1.5.5-.5 2.5-1.5.5.5 1.5-1.5.5 1 1-1 1 .5 1.5-1.5.5.5 1.5-2.5 1.5.5 1.5-1.5.5 2 1-3 2 1 1-1 1 .5 1.5-1.5.5 1 2-2 1-1 5-2 2q2 1 0 2 .5 3.5-2 4l1 3-1.5 1.5-1.5.5 2 1-3 1 2 2-.5.5-1.5.5-1 3 .5 1.5-2-1v2l-1-1-1.5.5-1.5-2.5-1 1-2.5-2.5-2.5-3.5-1.5-.5 4.5-2.5q1.5 2.5 3-1l3 1 1-2 2.5-.5 1-5-1.5-.5-1.5.5-.5-2.5-2 1v-2l-2 1-1-2-1.5.5.5-1.5-3-1-1.5.5-.5-1.5-1.5.5 1-3-2-3 3-7-2-3 3-5-2-4 3-6q-4-2 0-4l1-3-.5-1.5 1.5-.5 3-7-.5-1.5 1.5.5 1-2-.5-1.5 1.5-.5q2.3-7.7 7-13-2.5-1.5 1-3l7-13-.5-1.5 1.5-.5 5-10zm-35 193 1 2 1-2 1 2 3 1 1.5-.5 1.5 2.5 1-1 1 1 1.5-.5.5 1.5 3 1 1.5-.5.5 1.5 4 1 1.5-.5.5 1.5 6 1q1.3-2.2 2.5.5l.5 1.5 4-2q.5 2.5 4 2l1-1 3 3q1.5-3.5 3-1l1.5.5.5 1.5 3-2 4 3q1.5-3.5 3-1l3 2 3-2 4 3 2-2 3 3 4-2 2 3q1-2 2 0l3-2 6 3 3-2 5 3 3-2 4 3 3-2 4 3h6q2.3-3.2 9-2l3 2h18q1.3-2.2 2.5.5l-1 2 2 1q-2 1 0 2l2 3q-2 1 0 2l-1 3v7q2 1 0 2l-.5 1.5-1.5.5 2 3q-2 1-1 5 2 1 0 2l.5 1.5 1.5.5-1 3 2 4-2 3q2 1 1 5-2 1 0 2l1 4-4.5 5.5-5-1-5 2-1-2q-1 2-2 0l-2 1q-1.5-2.5-3 1l-4 1-4-2-8 3-4-2q-1 2-2 0l-2 2h-9l-1 1h-16l-3-1-10-2q-1.4 2.6-6 2l-1-1-6-1q-1 2-2 0l-4-2-3 2q-1.7-2.8-7-2-1 2-2 0l-5-1-2 1-5-3q-.5 2.5-4 2l-3-2q-1.5 2.5-3-1l-2 1-2-2-1 1-2-2-1.5.5-1.5-2.5-1 1-1-1-1.5.5-.5-1.5-1.5.5-.5-2.5q-3 .5-3.5-1.5 2-1 0-2l1-3-1-3-2-8 2-4-3-7v-13l3-7-2-4 3-6q-3.5-1.5-1-3l1-5-1-2 3-4q-3-1-1.5-3.5Z" opacity=".996"/><path fill="#7d524a" stroke="#7d524a" d="m5.5 306 9 9 1-1 2.5 2.5-1.5 1.5L5 306.5zm4 1 2.5 2.5-.5.5-2.5-2.5zm23 18 4.5.5-4.5.5zm9 1 4.5.5-4.5.5zm-14 1 1.5 2.5q-1 2.5-2 1 2-1 0-2zm22 0 3.5.5-3.5.5zm-14 1 .5 1.5-1.5.5q-1.5-1 1-2Zm17 6 1.5.5q-1 2.5-2 1zm3 1 1.5.5q-1 2.5-2 1z" opacity=".62"/><path fill="#7d524a" stroke="#7d524a" d="m59.5 336-.5 1.5-.5 1.5-5.5-.5 4.5-.5zm3 1-.5 1.5-.5 1.5-.5-1.5zm3 1-.5 1.5-.5 1.5-.5-1.5zm3 1-.5 1.5-.5 1.5-.5-1.5zm2 1 1.5.5-1.5 2.5-1.5-.5zm3 1 .5 2.5-1.5.5.5-1.5zm7 0 2.5.5-2.5.5zm-4 1 .5 2.5-1.5.5.5-1.5zm37 11 3.5.5-3.5.5zm30 8h2l5.5 5.5-.5.5-5-5q-3 .5-2-1Zm9 6 2.5.5-1.5 2.5zm7 1 2.5.5q-.5 2-3.5 1.5-1.5-1 1-2Zm8 1 3.5.5-1.5 1.5-5 1v-1zm13 0q1.5 1-1 2l-2.5-.5zm-5 2 .5 2.5h-1z" opacity=".62"/><path fill="#f4ceb3" stroke="#f4ceb3" d="m190.5 70 .5 4.5h-1zm1 10 .5 2.5h-1zm80 6 .5 4.5q-1 2.5-2 1l1-1zm-75 14 2.5 2.5-.5.5-2.5-2.5zm5 6 2.5 2.5-.5.5-2.5-2.5zm5 8 .5 2.5h-1zm5 16 4.5.5-4.5.5zm7 8 2.5 2.5-.5.5-2.5-2.5zm5 7 4.5 4.5-.5.5-4.5-4.5zm5 7 .5 2.5h-1zm1 4 2 1h6l1 1h6l1 1 5.5.5-6.5.5-1-1-15-1-4 4-.5-.5zm30 2 1.5 2.5h-1zm-7 1 5.5 5.5-.5.5-5.5-5.5zm9 6 .5 2.5h-1zm73 3 5.5.5-5.5.5zm-101 1 6.5.5-6.5.5zm8 0 14.5.5-14.5.5zm-1 2q2.5 1 1 2l-4.5-.5zm-11 1 2.5 1.5-.5 1.5-1-2q-2.4-.1-1-1Zm33 0 .5 2.5h-1zm-37 3 1.5.5-2.5 1.5q-1.5-1 1-2Zm-3 1 .5 1.5-3.5 1.5q-1.5-1 1-2zm41 2 .5 7.5h-1zm-8 2 2.5 2.5-.5.5-2.5-2.5zm-29 5 2.5 1.5-1.5.5q-2.5-1-1-2Zm7 0 2.5.5-2.5.5zm-29 3 .5 2.5h-1zm57 2 2.5.5-2.5.5zm-13 1 5.5 5.5-.5.5-5.5-5.5zm-11 3 1.5.5-2.5 1.5q-1.5-1 1-2Zm20 0 3.5.5-3.5.5z" opacity=".502"/><path fill="#f4ceb3" stroke="#f4ceb3" d="m232.5 195 1 2 10 1q1.3-2.2 2.5.5l-22.5.5-.5-1.5 1.5-.5q.8 1.8 4 1v-2q3.2.8 4-1Zm-27 5 .5 6.5h-1zm43 0 2.5 2.5-.5.5-2.5-2.5zm-8 8 3.5.5-3.5.5zm-35 6 .5 3.5h-1zm-1 6 .5 2.5h-1zm24 12 .5.5-2.5 2.5-.5-.5zm-163 56 2.5.5-2.5.5zm-2 30-.5 1.5-.5 1.5-.5-1.5zm-42 1 2.5 2.5-.5.5-2.5-2.5zm33 20 3.5.5-3 1 7 7-.5.5-7.5-7.5zm26 3 2.5.5q-4.2.2-5.5 3.5l-.5-.5zm96 15 1.5 1.5v7h-1q.6-6.7-.5-8.5Z" opacity=".502"/></svg>