<svg xmlns="http://www.w3.org/2000/svg" viewBox="0 0 640 427"><path fill="#292525" stroke="#292525" d="m254.5 93 2.5.5-2.5.5zm124 3 18.5.5-3 1 5.5.5q1-2 2 0l3 1 2-1q1 2 2 0 4.8-.8 7 1l2-1q1 2 2 0l3-1q1.5 1-1 2l-4 1-1.5-.5 1.5 2.5 1.5.5-1 2 3 2-1.5-.5-1.5.5 1 2h-2l1 2-1.5-.5-2.5 1.5 1 2-2 1q-.5 3.5 2 4h-2l.5 1.5 2.5-.5q-.5-3 1.5-3.5l2.5 1.5-1 2q2.3 1.3-.5 2.5l-1-3q-2.7 1.3-.5 2.5l-3 4 .5 1.5-1.5-.5-.5 14.5-1-27-2 3-2-1h-32l-1-1-36.5-.5 9-1-17.5-.5-1 1h-29l-1-1h-38l-.5 5.5-1 1v8l-1 1v9l-1 1-1 18-1 1v10l-1 1-1 19-1 1v8l-1 1v9l-1 1v8l-1 1v10l-1 1v8l-1 1v10l-1 1v8l-1 1v10l-1 1v9l-1 1-1 19-1 1v10l-1 1q2.3 1.2-.5 2.5l-1.5.5.5 1.5 3 1h13l1 1h14l1 1h15l1 1h11l1 1 32 1 2 1q1-2 2 0h15l1 1h12l1 1h16l1 1 24 1 2.5-1.5v-6l1-1 .5-26.5.5 23.5 1 1q-2 1-1 5h1l.5-1.5 3-1 .5 3.5-1 1 .5 1.5-2-1-1.5 2.5 1.5.5q1.3-2.2 2.5.5l-3 1 2 1 1 4-1.5 2.5-1-3-1.5.5 1 2-1 3-1 2 .5 1.5-2-1-.5 1.5 6 2 .5 1.5 1-2 2 1v-2l1.5 1.5q-2.2 1.3.5 2.5l2-1-.5 1.5.5 1.5 1.5-.5-.5 1.5 1.5.5.5 2.5 1.5-.5q-2 1 0 2l-.5 3.5-1.5.5q.8 3.8-1.5 4.5-1-2-2 0l-1.5.5q.8 4.8-1.5 6.5-3.2 2.3-10 1-1-2-2 0l-2-1q-.8 1.8-4 1l-2.5-1.5-.5-1.5-1 1h-6l-1 1h-8l-1-1-27-1-1-1h-9l-2-1-2 1-1-2h-10l-1 1-5-2q-1 2-2 0l-2 1q-1-2-2 0h-7l-3-2-3 1q-1-2-2 0l-2-1-2 1-6-2h-10l-1-1-1 1h-12l-1-1h-15l-2-2-1 1h-10l-1-1h-12q-.7-1.7-4-1l-2.5-2.5q2-1 0-2l-1-4 1-1 .5-10.5 1.5-.5-1-1v-6q2.2-1.3 1-6l2-3-1-2q2-1 0-2l.5-3.5 3 2 1.5-.5.5 2.5 1.5-3.5q-1.2-2.7-2.5-.5l-2.5-1.5q-.5-4 2.5-4.5l2.5-.5-1-2 2-1-1-2 1.5-.5 2 2 .5-.5-1-3h1l.5 1.5 1-1 1.5.5-.5-2.5q-1.2 2.3-2.5-.5l.5-1.5 1 2 1.5-2.5-.5-1.5 1.5-.5-1-2 3-2v-7l1-3q-2-1 0-2l-1.5-3.5-1.5-.5 2-2-.5-1.5q1 2 2 0l2.5-1.5-1-2 1-2-3 1-.5-1.5-2.5-1.5 3-1 .5-1.5q1.7 3.8 3.5.5-1.6-8.1 2-11-1.8-.7-1-4l1-3-.5-1.5 1.5-.5v-6l1-1q-2-1 0-2v-9l1-1q-2-1 0-2v-8l1-1q-2-1 0-2-1.2-4.7 1-6-2-1 0-2l-1-2 1-1 .5-12.5 1.5-.5-2-2 1-3v-5l1-1 .5-5.5 1.5-.5q-3.5-1.5-1-3-1-4 1-5v-9l1-1v-8l1-1v-7l1-1q-2-1 0-2l1-18 1.5-1.5h52l1 1h42l1 1 2-1 1 1h16l1 1 1-1 9.5-.5-4.5-.5-1-1-1 1h-9l-.5-1.5 3-1-4-1-.5-1.5-2 4-3-4-1.5.5-1-3 1.5.5 1.5.5.5 1.5 5.5-1.5-.5-2.5-1 2-1.5-.5-.5-1.5-1.5.5q.8-3.2-1-4l1.5.5 1-1h12zM366 98q-2 1 1 1l1 2 1-2zm5 1-1 2 2-1 3 2v-2zm1 4q-3 1-1 2h1zm5 1-1 3q1 2 2 1zm39 0-1 2q1 1 2-1zm-42 2-1 2v1h1zm34 0q-2 1 1 2v-1zm-9 3v3h7l-3-2-3 1zm-138 2v1h28zm55 1v1h10zm64 2v1h28zm35 7-1 2h2v-1zM226 317v3q3-1 0-3Zm185 2q-3 1-1 2l3-1zm-1 9-3 2 2 2 1-2zm-67 15q-2 1 1 2v-1z" opacity=".996"/><path fill="#292525" stroke="#292525" d="M349.5 100q1 2 2 0l2.5.5-4 2 .5 1.5 3-1 3.5 1.5-1.5 2.5-3-1-1.5.5-.5-1.5-1.5.5q2.3-1.2-.5-2.5l-2.5 4.5.5 1.5-1.5-.5 1.5-5.5 1.5-.5zm10 6 .5 2.5-1.5.5.5-1.5zm-19 1q2.5 1 1 2l-1.5-.5zm21 1 1.5.5-.5 1.5q-2.5-1-1-2Zm60 1 .5 1.5q-1 2.5-2 1zm1 4 1.5.5-1.5 3.5zm-5 11 2.5 1.5-1.5-.5q-2.4-.1-1-1Zm-1 2 2.5 1.5-3.5 1.5.5-1.5zm-2 9 2.5 1.5-1.5-.5q-2.4-.1-1-1Zm-5 3 .5 23.5h-1zm3 4 .5 4.5h-1zm-1 15 .5 24.5h-1zm-3 13 .5 44.5h-1zm3 14 1.5.5-1.5 4.5zm-1 29 .5 2.5h-1zm-3 3 .5 38.5q-1 2.5-2 1l1-1zm3 5 .5 2.5h-1zm0 5 .5 3.5h-1zm-1 14 .5 19.5h-1zm-172 10 2 1 1.5-.5-.5 1.5q-3.8.5-3-2Zm179 6 .5 2.5h-1zm-3 1 1.5 2.5q-1 1.5-2-1zm-7 1 .5 39.5-1 1-.5 22.5-.5-23.5 1-1zm3 3 .5 8.5h-1zm0 10 .5 2.5h-1zm0 7 .5 2.5h-1zm-174 4 .5 1.5q-1 2.5-2 1zm-13 10 1.5 3.5v3l-.5 1.5 1.5.5-1 1 .5 1.5-2-1-.5 1.5.5 1.5q-2.2-.7-1.5-4.5l2-3q-2.4-1.4-.5-5.5Z" opacity=".996"/><path fill="#292525" stroke="#292525" d="m225.5 295 3 1 1.5-.5q-.5 2-3.5 1.5-2.5-1-1-2Zm189 10-.5 1.5-1.5 3.5-.5-1.5zm1 6 .5 2.5h-1zm-4 1 2.5 1.5-.5 1.5-2.5-2.5zm-145 1 4.5.5-4.5.5zm30 2 6.5.5-6.5.5zm14 1 7.5.5-7.5.5zm15 1 8.5.5-8.5.5zm21 1 3.5.5-3.5.5zm11 1 9.5.5-9.5.5zm19 1 5.5.5-5.5.5zm13 1 10.5.5-10.5.5zm22 17 3.5.5-3.5.5z" opacity=".996"/><path fill="#860001" stroke="#860001" d="m429.5 217 .5 3.5h-1zm-1 62 .5 3.5h-1zm-1 62 .5 3.5h-1zm-200 17 2.5.5-2.5.5zm170 12 2.5.5-2.5.5z" opacity=".008"/><path fill="#717175" stroke="#717175" d="m281.5 113 9.5.5-9.5.5zm38 1 10.5.5-10.5.5zm38 1 8.5.5-8.5.5zm54 0 .5 5.5-1.5-.5-1.5-.5zm-16 1 8.5.5-8.5.5zm-137 15 .5 2.5h-1zm152 7 .5 30.5-1.5.5.5-1.5zm-154 12 .5 2.5h-1zm152 0 .5 14.5h-1zm-154 20 .5 2.5h-1zm156 0 .5 2.5h-1zm-1 6 .5 3.5h-1zm-156 5 .5 2.5h-1zm156 0 .5 15.5h-1zm-157 9 .5 2.5h-1zm155 3 .5 12.5h-1zm-156 7 .5 2.5h-1zm-1 10 .5 2.5h-1zm-1 10 .5 2.5h-1zm-1 10 .5 2.5h-1zm160 4 .5 9.5h-1zm-2 3 .5 9.5h-1zm-160 12 .5 3.5h-1zm-1 10 .5 2.5h-1zm-1 11 .5 2.5h-1zm161 8 .5 11.5h-1zm-162 2 .5 2.5h-1zm-1 10 .5 2.5h-1zm-1 10 .5 2.5h-1zm0 11q1 2 2 0l1.5.5q-.7 2.3-4.5 1.5-1.5-1 1-2Zm19 1 3.5.5-3.5.5zm-11 1 6.5.5-6.5.5zm28 0 3.5.5-3.5.5zm-13 1 10.5.5-10.5.5zm28 0 4.5.5-4.5.5zm-13 1 10.5.5-10.5.5zm28 0 4.5.5-4.5.5zm16 1 4.5.5-4.5.5zm16 1 4.5.5-4.5.5zm16 1 4.5.5-4.5.5zm-11 1 4.5.5-4.5.5zm28 0 4.5.5-4.5.5zm17 1 4.5.5-4.5.5z"/><path fill="#ac9d05" stroke="#ac9d05" d="m429.5 214 .5 2.5h-1zm-1 62 .5 2.5h-1z" opacity=".008"/><path fill="#ececec" stroke="#ececec" d="m261.5 113 .5 4.5h-1zm2 1 36.5.5-36.5.5zm43 1 32.5.5-32.5.5zm39 1 33.5.5-33.5.5zm36 1h26l1.5 1.5-.5 3.5-1-4h-26zm-121 2 .5 7.5h-1zm-1 10 .5 7.5h-1zm148 6 .5 35.5h-1zm-149 3 .5 8.5h-1zm-1 11 .5 7.5h-1zm-1 9 .5 8.5h-1zm-1 10 .5 8.5h-1zm151 10 .5 38.5h-1zm-152 1 .5 7.5h-1zm-1 10 .5 7.5h-1zm-1 9 .5 8.5h-1zm-1 10 .5 7.5h-1zm-1 10 .5 8.5h-1zm155 2 .5 37.5h-1zm-156 8 .5 7.5h-1zm-1 11 .5 7.5h-1zm-1 10 .5 6.5h-1zm-1 9 .5 8.5h-1zm158 5 .5 34.5h-1zm-159 5 .5 8.5h-1zm-1 10 .5 8.5h-1zm-1 10 .5 8.5h-1zm-1 11 .5 9.5h-1zm161 6 .5 15.5h-1zm-161 5 11.5.5-11.5.5zm14 1 15.5.5-15.5.5zm18 1 11.5.5-11.5.5zm15 1 12.5.5-12.5.5zm16 1 12.5.5-12.5.5zm16 1 12.5.5-12.5.5zm15 1 13.5.5-13.5.5zm16 1 13.5.5-13.5.5zm16 1 14.5.5-14.5.5zm17 1 14.5.5-14.5.5z"/><path fill="#5b5453" stroke="#5b5453" d="m287.5 93 2.5.5-2.5.5zm44 1 5.5.5-5.5.5zm7 0 2.5.5-2.5.5zm78 2 5.5.5-5.5.5zm12 28 .5 10.5h-1zm-189 5 .5 2.5h-1zm189 8 .5 15.5h-1zm-191 10 .5 3.5h-1zm-1 9 .5 3.5h-1zm-1 9 .5 2.5h-1zm-2 18 .5 3.5h-1zm-1 9 .5 3.5h-1zm195 16 .5 13.5h-1zm-198 12 .5 4.5h-1zm-1 10 .5 2.5h-1zm-1 8 .5 2.5h-1zm-1 10 .5 2.5h-1zm-3 28 .5 3.5h-1zm203 0 .5 4.5h-1zm-158 83 3.5.5-3.5.5zm14 1 4.5.5-4.5.5zm29 2 3.5.5-3.5.5zm15 1 2.5.5-2.5.5z" opacity=".255"/><path fill="#4a4649" stroke="#4a4649" d="m258.5 93 15.5.5-15.5.5zm46 1 16.5.5-16.5.5zm48 1 9.5.5-9.5.5zm45 1 11.5.5-11.5.5zm31 5 .5 19.5h-1zm-186 6 .5 2.5h-1zm124 8 3.5.5-3.5.5zm-126 8 .5 3.5h-1zm-1 9 .5 3.5h-1zm-2 19 .5 2.5h-1zm-1 9 .5 3.5h-1zm-1 9 .5 3.5h-1zm192 1 .5 21.5h-1zm-18 3 1.5.5-1.5 2.5zm-175 5 .5 3.5h-1zm-1 9 .5 3.5h-1zm-1 10 .5 2.5h-1zm-1 9 .5 3.5h-1zm-1 9 .5 3.5h-1zm-1 10 .5 3.5h-1zm-1 9 .5 3.5h-1zm198 0 .5 17.5h-1zm-199 9 .5 3.5h-1zm181 1 .5 8.5h-1zm-182 8 .5 3.5h-1zm-1 10 .5 2.5h-1zm-1 9 .5 3.5h-1zm183 1 .5 10.5h-1zm-184 8 .5 3.5h-1zm184 4 .5 9.5h-1zm18 13 .5 14.5h-1zm-179 16 2.5.5-2.5.5zm16 45 2.5.5-2.5.5zm14 1 4.5.5-4.5.5zm15 1 2.5.5-2.5.5zm28 2 3.5.5-3.5.5zm15 1 2.5.5-2.5.5zm14 1 2.5.5-2.5.5zm43 3 4.5.5-4.5.5z" opacity=".78"/><path fill="#fbe2cf" stroke="#fbe2cf" d="m245.5 91 1.5.5-2 1 1 1-2.5 2.5-1.5-.5zm8 1 4.5.5-4.5.5z" opacity=".02"/><path fill="#736864" stroke="#736864" d="m280.5 91 6.5.5-6.5.5zm35 1 5.5.5-5.5.5zm12 0 8.5.5-8.5.5zm-29 1 3.5.5-3.5.5zm47 1 4.5.5-4.5.5zm70 0 6.5.5-6.5.5zm15 43 .5 10.5h-1zm-2 18 .5 6.5h-1zm0 10 .5 2.5h-1zm1 22 .5 2.5h-1zm0 12 .5 13.5h-1zm-2 27 .5 4.5h-1zm-199 1 .5 2.5h-1zm200 18 .5 9.5h-1zm0 18 .5 9.5h-1zm-1 46 .5 7.5h-1zm0 19 .5 6.5h-1zm-156 33 2.5.5-2.5.5zm28 2 2.5.5-2.5.5zm14 1 3.5.5-3.5.5z" opacity=".031"/><path fill="#0096bd" stroke="#0096bd" d="m289.5 91 2.5.5-2.5.5zm47 1 3.5.5-3.5.5z" opacity=".004"/><path fill="#5a6e78" stroke="#5a6e78" d="m242.5 103 .5 3.5h-1zm-1 9 .5 3.5h-1z" opacity=".588"/><path fill="#aca8a9" stroke="#aca8a9" d="m271.5 113 9.5.5-9.5.5zm-11 1 .5 2.5h-1zm48 0 10.5.5-10.5.5zm39 1 9.5.5-9.5.5zm39 1 8.5.5-8.5.5zm-127 7 .5 2.5h-1zm149 15 .5 11.5h-1zm-151 5 .5 2.5h-1zm-1 10 .5 2.5h-1zm-1 10 .5 2.5h-1zm-1 10 .5 2.5h-1zm153 9 .5 10.5h-1zm-155 11 .5 2.5h-1zm-1 10 .5 2.5h-1zm-1 10 .5 2.5h-1zm-1 10 .5 2.5h-1zm157 2 .5 11.5h-1zm-158 8 .5 2.5h-1zm-1 9 .5 2.5h-1zm-1 11 .5 2.5h-1zm-1 9 .5 3.5h-1zm160 4 .5 11.5h-1zm-161 7 .5 2.5h-1zm-1 10 .5 2.5h-1zm-1 10 .5 2.5h-1zm-1 10 .5 3.5h-1zm163 5 .5 8.5h-1zm-159 3 6.5.5-6.5.5zm19 1 6.5.5-6.5.5zm17 1 3.5.5-3.5.5zm16 1 3.5.5-3.5.5zm15 1 4.5.5-4.5.5zm16 1 4.5.5-4.5.5zm16 1 3.5.5-3.5.5zm16 1 4.5.5-4.5.5zm17 1 3.5.5-3.5.5zm17 1 3.5.5-3.5.5zm10 1 1.5.5-.5 1.5q-2.5-1-1-2Z" opacity=".996"/><path fill="#435150" stroke="#435150" d="m273.5 91 6.5.5-6.5.5zm48 1 5.5.5-5.5.5zm-31 1 7.5.5-7.5.5zm76 0 6.5.5-6.5.5zm9 0 3.5.5-3.5.5zm-34 1 3.5.5-3.5.5zm69 0 4.5.5-4.5.5zm-26 1 7.5.5-7.5.5zm-146 26 .5 2.5h-1zm192 1 .5 14.5h-1zm-1 61 .5 3.5h-1zm0 7 .5 8.5h-1zm-1 65 .5 7.5h-1zm-1 62 .5 10.5h-1zm-2 32 .5 5.5h-1zm-138 13 2.5.5-2.5.5zm43 3 2.5.5-2.5.5zm73 5 6.5.5-6.5.5z" opacity=".027"/><path fill="#4b3d37" stroke="#4b3d37" d="m274.5 93 12.5.5-12.5.5zm47 1 2.5.5-2.5.5zm41 1 21.5.5-21.5.5zm47 1 6.5.5-6.5.5zm-171 43 .5 2.5h-1zm189 53 .5 15.5h-1zm-1 60 .5 23.5h-1zm-201 7 .5 2.5h-1zm201 22 .5 4.5h-1zm-204 6 .5 2.5h-1zm-1 8 .5 3.5h-1zm-1 8 .5 5.5h-1zm-1 9 .5 4.5h-1zm206 0 .5 29.5h-1zm-207 9 .5 4.5h-1zm-1 9 .5 4.5h-1zm-1 10 .5 5.5h-1zm209 4 .5 4.5h-1zm-198 12 6.5.5-6.5.5zm13 1 7.5.5-7.5.5zm14 1 7.5.5-7.5.5zm18 1 3.5.5-3.5.5zm15 1 3.5.5-3.5.5zm136 0 .5 1.5q-1 2.5-2 1zm-122 1 3.5.5-3.5.5zm14 1 3.5.5-3.5.5zm14 1 4.5.5-4.5.5zm13 1 5.5.5-5.5.5zm12 1 8.5.5-8.5.5zm14 1 8.5.5-8.5.5zm15 1 7.5.5-7.5.5zm16 1 13.5.5-13.5.5z" opacity=".333"/><path fill="#a3adb2" stroke="#a3adb2" d="m249.5 92 3.5.5-3.5.5zm53 1 2.5.5-2.5.5zm-60 7 .5 2.5h-1zm188 48 .5 6.5h-1z" opacity=".031"/><path fill="#dbdbdb" stroke="#dbdbdb" d="m262.5 113 8.5.5-8 1 36.5.5 1-1h7v1l-1.5.5 32.5.5 1-1h7v1l-1.5.5 33.5.5 1-1h6v1l-4.5.5 26.5.5 1.5-.5q-1.7.8-1 4l1 3-.5 13.5-1-3-.5 35.5 1 1v10h-1l-.5-3.5-.5 38.5 1 1v7h-1l-.5-4.5-.5 37.5 1 1v7h-1l-.5-2.5-.5 34.5 1 1v9h-1l-.5-2.5-1 16-4.5-.5 2-1-14.5-.5q-.8 1.8-4 1v-1l1.5-.5-14.5-.5-3 1v-2h-13q-.7 1.8-4 1v-1l1.5-.5-13.5-.5-3 1v-2h-12q-.8 1.8-4 1v-2h-12q-.7 1.8-4 1v-2h-12q-.7 1.8-4 1v-2h-11l-3 1v-2h-15l-2 1-1-2h-11l-1 1 .5-1.5-1-1 .5-1.5 1 2 .5-9.5-1-3h2q1.3-6.8-1-10h2q1.3-6.8-1-10h2q1.3-6.8-1-10h2q1.3-6.8-1-10l2-1v-6q-1.8-.7-1-4h1l.5 1.5.5-7.5-1-3 2-1q1.2-6.2-1-9h2q1.3-6.8-1-10l2-1q1.2-6.2-1-9h2q1.3-6.8-1-10h2v-7l-1-3h2v-7l-1-3h2q1.3-6.8-1-10h2q1.3-6.8-1-10h2v-7l-1-3h2q1.3-6.8-1-10h2v-7l-1-3h2q1.2-6.2-1-9h2z"/><path fill="#313339" stroke="#313339" d="m249.5 93 7 1q1-2 2 0h45l1 1h23l2 1 1-1h18q1 2 2 0l2 1 25.5.5-13 1 4 1-1 2 1 3-6 2 2.5 3.5 2-4 1 2q3.3-.7 4 1l1-2 .5 2.5-1.5.5-3-1-.5 1.5 9.5.5q1-2 2 0l4.5.5-9.5.5-1 1-1-1h-16l-2-1q-1 2-2 0h-42l-1-1h-52l-1.5 1.5v9l-1 1v8l-1 1q2 1 0 2l-1 16-1 1v9l-2 6 2 2-.5.5-1.5.5v5l-1 1q1.2 4.8-1 6l1.5 4.5-1.5.5v12l-1 1 1 2-1 3q1.3 4.8-1 6 2 1 0 2v8l-1 1q2 1 0 2v9l-1 1q2 1 0 2l-.5 6.5-1.5.5 1 3q-1.8.8-1 4 2 1 0 2-2.3 3.2-1 10l-1.5 1.5-2-2-.5.5-.5 1.5-2.5.5 3 2 .5 1.5 2-2 .5.5-1 3q2.3 1.3-.5 2.5l-4.5 3.5 1.5.5 1.5-.5-1 2 1 2q-2 1 0 2l-1 3v7l-1.5 1.5-1.5.5 2 3-1.5-.5-1.5.5 1 2q-2 1 0 2l-.5 2.5q-1.2-2.2-2.5.5l-.5 1.5-3-2 .5 1.5-.5 1.5-1.5.5 1 2q-3.8.2-5 3-.5 3 1.5 3.5l1.5-.5-.5-1.5 2.5 2.5-1 1-.5 2.5-1-3q-1 2-2 0l-2.5-1.5q2.3-1.2 1-6l1.5-2.5 2.5-1.5-3-2 .5-1.5 1 2 .5-3.5-1-1v-10l1-1 1-18 1-1v-8l1-1v-8l1-1v-8l1-1v-8l1-1v-9l1-1v-8l1-1v-9l1-1v-8l1-1v-8l1-1v-8l1-1v-8l1-1 1-19 1-1 1-16 1-1v-8l1-1v-7l1-1v-9q1.8-.7 1-4l2.5-2.5zM365 98l-1 4 2-1 1 2h1l-1-3zm-13 2v1h2zm-3 1-1 2q1 2 2 1zm-2 2-2 6h2l-1-1 2-4zm5 0-2 2 1 2 2-1 3 1 1-2zm10 0v3l1-2zm-2 3-1 2v1h1zm-19 1-1 2h2q1-1-1-2Zm21 1q-2 1 1 2v-1zM241 250l-2 1v1h2zm-14 46v1h2zM394.5 97l5.5.5-5.5.5zm7 0h20l1 1q1-2 2 0l3.5 2.5v60l-1 2 1 1-1 1 1 3-1 3v59l-1 2 1 2-1 1v62l-1 1v51l-1 1 .5 1.5-2-4-2.5-1.5-.5-1.5-5-3-1 2-1-2-5.5-1.5.5-1.5 2.5-1.5 1-2-1-3-.5-1.5-1 2-1.5-2.5 2.5-1.5 1 2 1.5-.5 1-3-2-1 3-1q-1.2-2.7-2.5-.5l-2 1 .5-1.5 1-2-1.5-.5-1.5.5q3.5-1.5 1-3-1-4 1-5l-1-1v-23l-2-6 1-1v-10l-1-2 1-2-1-1v-9l-1-2q2-1 0-2l.5-7.5 1 8 1-2 1 7 .5-19.5-1-1v-9l-1-1v-13l-1-1v-9h1l.5 8.5 2 1 .5-2.5h-2l2-3h-2l1-4-1-2 1-2q-2-1 0-2l-1-3 1-1v-15q-2-1 0-2l.5-4.5 1 7 .5-24.5-1-2q2-1 0-2l-.5-19.5-1 4-.5-7.5 1-2-1-1v-7l1.5-.5q2.8 1.3.5 2.5l1 2 .5 16.5.5-14.5 3-3-1.5-.5-1.5.5 1.5-2.5 1.5-.5-3-1 1-2-1-3 2-1-1-2 3-2 1.5-3.5 1.5-.5-2-1 1-2-2.5-1.5-1 2-.5-1.5 1-2q-2.1-2.4-7.5-1.5-1 2-2 0l-2 1-3-1zm15.5 1q-2 1 1 2h1zm3 0v1h2zm3 15v4l1-3zm-5 3q-2 1-2 4l2-1 1 3q2-1 0-2l1-2zm-1 10v2h2zm-4 16-1 5h1zm-1 42v5l1-4zm-1 37-1 3h1zm0 5-1 4h1zm6 30-1 3h1zm-7 5-1 9h1zm0 10-1 3h1zm0 7-1 3h1zm6 33-1 3h1zm-3 2q-2 1 1 2v-1zm0 3v2l-2-1-1 2 4 1v-3zm-1 4q-2 1 1 2h1zm2 8-2 3 1 2 1-2zm-2 10v1h3z" opacity=".996"/><path fill="#313339" stroke="#313339" d="m370.5 99 4.5.5-.5 2.5-3-2-1.5.5zm2 3-.5 1.5-.5 1.5-1.5-.5zm4 2 1.5 3.5q-1 2.5-2 1 2-1 0-2zm39 0 1.5.5q-1 2.5-2 1zm-8 2 1.5.5 1 2-2.5 1.5v-1l1.5-.5-2-2zm-9 3 1 2 3-1 3.5 1.5-7.5.5zm-138 2 28.5.5-28.5.5zm55 1 10.5.5-10.5.5zm-24 1 7.5.5-7.5.5zm38 0 17.5.5-8.5.5-1 1h-6l-2.5-1.5zm50 1h28l1.5 1.5q-.7 2.3-4.5 1.5v-1l3.5-.5-28.5-.5zm-9 1 4.5.5-4.5.5zm-112 13 .5 2.5h-1zm-3 29 .5 2.5h-1zm154 5 .5 5.5-1.5.5-.5-2.5zm-1 7q2 .5 1.5 3.5h-1zm-155 9 .5 2.5h-1zm-2 19 .5 2.5h-1zm-2 19 .5 2.5h-1zm-2 20 .5 2.5h-1zm-4 41 .5 2.5h-1zm-1 10 .5 2.5h-1zm163 4 .5 5.5h-1zm2 3 .5 21.5-1.5 4.5-.5-21.5zm-166 3 .5 2.5h-1zm-1 13 .5 1.5-2.5 1.5-.5-1.5zm4 2h15l1 1 5.5.5-3.5 1.5h-7v-2h-9q-1 2-5 1v-1zm27 1 11.5 1.5-4.5.5-1 1h-7v-1l4.5-.5-3.5-.5zm14 1h5l1 1 4.5.5-1.5 1.5h-8v-1l3.5-.5-4.5-.5zm18 1h3l8 3 4-2h3l4 2h8q.8-1.7 4-1 1 2 5 1l1.5 1.5-1.5.5q-1-2-2 0h-6l-1-1-2 1-1-1-32-1-1.5-1.5 2.5-.5q1 2 2 0zm-84 3 1.5.5-1.5 2.5zm131 0h3l7.5 2.5-10.5.5q-3-1.5 0-3Zm17 1 8.5 1.5-.5 1.5h-12l-1.5-1.5 1.5-.5 2 1zm15 1q5.8-1.2 7 2h10l3-1 2.5 2.5-.5.5-24-1-1.5-1.5zm41 35 .5 4.5-5.5 6.5-1.5-.5 1-1 .5-4.5 2-1q1.3 2.2 2.5-.5zm-142 4 8.5.5-8.5.5zm45 3 10.5.5-10.5.5zm69 3 1 2 1.5.5-1.5.5-1-1-7.5-.5 6.5-.5z" opacity=".996"/><path fill="#665f08" stroke="#665f08" d="m428.5 273 .5 2.5h-1zm-1 62 .5 3.5h-1zm-70 32 3.5.5-3.5.5z" opacity=".02"/></svg>