<svg xmlns="http://www.w3.org/2000/svg" viewBox="0 0 640 457"><path stroke="#000" d="M16.5 2h4l1 1h4l5 2L41 6.5l-7.5.5-2-1-1 1h-8q-.7 1.7-4 1L8 13.5q4.5 16 16.5 24.5 4.2 3.8 11 5l3.5-6.5 3.5-3.5 10-5h2l5.5-4.5q1.8-2.2 1-7L52.5 11 42 7.5l2.5-.5 7 3 11 2 4 2h3l7 3h3l18 6 3 2 5 1 3 2 12 4 5 3h2l7 4h2l38 21 16 11 4 4q4.8-.7 5.5 2.5l3.5 4.5q16 11.5 28.5 26.5l21 26 16 25 18 35v2l4 7v2l7 16h-1l-16-31-26-41-21-27L211.5 99l-19-16-16-11-30-16h-2l-5-3h-2l-3-2-5-1-3-2-12-4h-3l-4-2h-3l-4-2-11-2-8-3-8-1v1l6 1 4 2h3l24 8 3 2 12 4 5 3h2l22 11 20 12 18 13q18.7 14.3 34.5 31.5l18 21-.5.5-7.5-7.5-10.5-11.5-28-23-19-12-20-10h-2l-13-6-15-5h-3l-7-3-7.5-1.5q4.8-2.2 5-9-.5-2-3.5-1.5l-7 3-6 5-5-2-9-1v1l11 2 2.5 1.5q-1.7.8-1 4 .5 2 3.5 1.5l6-3h4l1 1h3l18 6 15 7h2l30 16 22 15 15 12 33.5 32.5 8 9 10 15-.5.5-2.5-2.5-11-15-14.5-15.5q-14.9-14.6-32-27l-18-12-16-8-2-2-4-1-16-8h-2l-3-2-5-1-9-4h-3l-7-3-7-1-4-2h-4l-5-2h-4l-10 11q-4.7 1.2-6-1h-15l-1-1h-26v1h11l1 1h14l1 1 18 1 1.5 1.5-4 11v8l3 8 7.5 7.5 9 3h5l1 1 8 1 9.5 3.5-2.5.5-5-2h-8q-1-2-5-1-1.2 2.3-6 1l-2.5 2.5v16l1 1 1 8 3 8 5.5 6.5 2 1h6l1 1h5l1 1h4l1 1h4l1 1 7 1 9 3 3 2h2l8.5 4.5-1.5.5-7-4-15-5-8-1-1-1h-6l-1-1h-8l-4.5 2.5 3 9 2 3v2l2 3v2l2 3v3l2 4v5l1 1v7l-1 1v3l-2 6 9.5 7.5 13 7h2l3 2 12 4h3l9 3h5l1 1q4.8-1.3 6 1h8l1 1h41l1-1 15-1 1-1 9-1 12-4h3l16-7 7.5-5.5-4-12-3-5v-2l-7-12q1-1.5 2 1l7 13 6 7 2 8 1.5 1.5 5.5-16.5v-13l-4-7v-5l4-7q-2.9-8.6-8-15L288.5 159q-13.4-10.1-24.5-22.5l-10-14-4-8-4-12-1-8-1-1v-6l-1-1v-33l3.5-7.5 5-1 2.5 2.5 3 7v12l-4.5 8.5q-4 1-5-1l-.5 9.5 1 1v7l1 1v4l1 1 1 7 8 18q8.7 13.3 20.5 23.5 11.8 8.7 21.5 19.5l8 11 3 6v2l1.5 1.5 5-2h4q1 2 5 1l1.5-1.5 2-6 7-10 14.5-14.5q11.3-8.2 20.5-18.5l9-12 6-12 3-9v-3l1-1v-4l1-1q-1.2-4.7 1-6v-11l-4.5-.5-3.5-3.5-1-6-1-1v-8l1-1 1-6 3.5-4.5q5.5-1 6.5 2.5l2 5v7l1 1v18l-1 1v10q-2.2 1.3-1 6l-1 1v3l-1 1v3l-3 9-11 19-16.5 17.5q-12.4 9.1-22.5 20.5l-7 10-3 6v3l4 5v6l-5 9v12l5.5 16.5 4.5-11.5 3-3 11.5-19.5-.5 1.5-7 13v2l-3 5-4 12 2.5 2.5 13 7 15 5h3l5 2h4l1 1h4l1 1 15 1 1 1h41l1-1h8l1-1 11-1 1-1 11-2 12-4 13-6 14.5-10.5-2-6v-3l-1-1v-7l1-1v-5l2-4v-3l2-3v-2l2-3v-2l2-3 3-9-4.5-2.5h-8l-1 1h-6l-1 1-8 1-15 5-8 4v-1l8-4h2l3-2 9-3h3l5-2h4l1-1h4l1-1 12-1 5.5-4.5 3-5 2-6v-3l1-1v-4l1-1v-16l-2.5-2.5-10-1-1 1h-8l-9 3v-1l15-5 10-1 1-1 6-1 9.5-8.5 3-8v-8l-4-11 4.5-.5 1-1h8l1-1h11l1-1 18.5-.5-3.5-1.5h-7l-1 1h-22l-1 1h-12l-10-11h-4l-1 1h-3l-1 1-15 3-7 3h-3l-6 2-3 2-5 1-10 5h-2l-24 12-15 9-18 13-25.5 22.5-18 20-12.5 17.5.5-1.5 13-20 32.5-33.5 27-22 26-17 11-5 4-3h2l21-10 21-7 7-1 3 2 5 1q2.3-.7 1.5-4.5l-.5-1.5 10.5-2.5-4.5-.5-1 1-6 1q-5.1-6.4-15-8-2.2.8-1.5 4.5l4.5 5.5 1.5.5-32.5 9.5-32 14-2 2-15 8-14 10-30.5 27.5-7.5 8.5-.5-.5 4-4q12.8-17.2 28.5-31.5l31-25 33-20 36-16 8-2 9-4h3l7-3h3l1-1h3l7.5-2.5-4.5-.5-1 1h-3l-1 1-15 3-4 2-7 1-4 2h-3l-12 4-3 2-15 5-19 9-20 12-15 11q-15.8 12.7-29.5 27.5l-17 20-22 31-18 30-13.5 25.5.5-1.5 6-14v-2l4-7v-2l14-28 2-2 8-15 10-15 14-18L427.5 89 440 78.5l2.5-3.5h3l11-9 24-15 32-16h2l12-6 5-1 3-2 5-1 3-2 18-6h3l7-3h3l4-2h3l1-1h3l1-1h3l9-3v1l-10 3-8.5 5.5v5l3.5 4.5 15 7 3.5 3.5 3.5 6.5Q618 39 625 28.5l5-8 2-7L621.5 8q-3.2.7-4-1h-8l-1-1-1 1h-8V6h5l1-1 8-1 1-1 9-1 3.5 2.5 5 6 5 10q-.7 3.2 1 4v20l-1 1v4l-2 4v3l-2 6-7 15v2l-28 55v2l-8 17-4 12v3l-2 5v4l-1 1v5l-1 1v20l1 1v5l1 1v3l2 6 5 9q-5.8 11.7-15.5 19.5l-9 6-12 6-15 5-7 1-1 1-11 1-1 1h-6l-4 2h-10l-1 1h-31l-1-1h-13l-1-1h-9l-1-1h-7l-1-1q-4.7 1.2-6-1h-6l-1-1h-4l-1-1h-4l-1-1-8-1-2-2-3 1-1-2-3 1-1-2-2 1q-1.5-3.5-3-1l-8.5-2.5-.5-1.5-2 1-1-2-2 1-3.5-1.5-.5-1.5-2 1-1-2q-1 2-2 0l-2.5-.5-.5-1.5q-1 2-2 0l-2.5-.5-.5-1.5-1.5.5-.5-1.5-1.5.5-.5-1.5q-1 2-2 0l-3.5-1.5-.5-1.5-1.5.5-.5-1.5q-1 2-2 0l-2.5-1.5-1.5-2.5-2-1-.5 2.5 8 24v4l2 6 1 13h-1l-1-9-1-3-2.5-2.5q-4-.5-4.5 2.5l-4 8-2 6v3l-1 1v3l-1 1v3l-1 1v4l-2 6v5l-1 1v5l-1 1v5l-1 1-1 14-1 1v7l-1 1-.5 4.5-.5-9.5-1-1v-7l-1-1v-7l-1-1-1-12-1-1v-5l-1-1-2-14-1-1v-3l-1-1v-3l-3-9-4.5-7.5-2-1-3.5 2.5-2 5-.5 6.5-.5-11.5 1-1 1-10 1-1v-3l1-1v-3l4-11q-.7-4.2 1-6l-1.5.5-2.5 1.5-1.5 2.5-1.5-.5-.5 1.5-1.5-.5-.5 1.5-1.5-.5-.5 1.5-6 3-1.5-.5-.5 1.5-2-1v2l-3 1-1.5-.5-.5 1.5-3 1-1.5-.5-.5 1.5-2-1-1 2-7 2-1.5-.5-.5 1.5-2-1-2 2-4 1q-1.5-2.5-3 1l-2-1-1 2-3-1-1 2h-4l-1 1-8 1-1 1h-4l-1 1h-4l-1 1h-6l-1 1q-4.8-1.2-6 1h-7l-1 1h-9l-1 1h-13l-1 1h-31l-1-1h-10l-4-2-13-1-1-1h-4l-1-1h-3l-1-1h-3l-4-2-6-1-17-8-9-6-8.5-8.5-7-11 5-9 2-6v-3l1-1q-1.3-4.8 1-6v-20l-1-1v-5l-1-1v-4l-1-1-1-7-4-12-4-8v-2l-32-64v-2l-7-15-2-6v-3l-1-1v-3l-1-1v-3l-1-1v-9l-1-2 1-1v-8q1.7-.8 1-4l5-10L13.5 4zM66 15q-3 1-2 5 0 2 4 1 2-1 1-4 0-2-3-2Zm507 0q-3 1-2 5 1 2 4 1 2-1 1-4 0-2-3-2ZM84 23l-3 4 1 4 3 1q3-1 2-7 0-2-3-2Zm471 0-2 2q-1 6 3 7l2-1 1-2-1-4q0-2-3-2ZM53 29v1h2zm3 1v1h2zm528 0v1h3zM71 33v1h2zm-21 2-9 8v3l6 10q4 6 13 9h7q0-2 4-1l5-4-1-4-7-11v-2l-3-4-8-4zm534 0-8 4-4 4v2l-7 11-1 4 4 3 6 2h7l6-3 9-10 3-6v-3l-8-8zm-470 2-3 3 1 3h3q2-1 1-4zm11 0-3 4 1 3q1 2 4 1t2-6q-1-3-4-2Zm388 0q-3 1-2 6 1 2 5 2l2-3-1-3q-1-3-4-2Zm13 0q-3 1-2 5 1 2 4 1l1-3zM11 40l-2 1-2 3v3l4 3h5l3-3-1-5q-2-3-7-2Zm614 0-2 1-2 3v3l4 3h5l3-3-1-5q-2-3-7-2ZM34 49l-2 2q-1 4 3 5l3-1 1-3q-1-4-5-3Zm570 0-3 3 1 3 4 1q3-1 2-5-1-3-4-2Zm-439 8q-3 1-2 6l3 1q2-1 1-6zm309 0-1 6 3 1q2-1 1-5 0-2-3-2Zm78 2v1h3zM195 76q-3 1-2 5l5 1q2-1 1-4t-4-2Zm248 0-2 2q-1 3 2 4l4-1v-3q-1-3-4-2ZM22 78q-4 1-3 6 1 2 6 1 3-1 2-5-1-3-5-2Zm593 0q-3 1-2 5 1 3 7 2 2-1 1-4-1-4-6-3ZM68 89l-2 1-3 3-2 5 2 7 5 3q4 1 7-1l2-2 2-6-2-6-4-4zm500 0-2 1-3 3-2 5 2 7 5 3q4 1 7-1l2-2 2-5-2-7-4-4zM52 99q-3 1-3 5 1 3 5 2 3 0 2-4 0-3-4-3Zm535 0q-4 1-3 5 1 3 5 2 3 0 2-4 0-3-4-3ZM61 137l-3 4q1 2 5 1 2-1 1-3 0-2-3-2Zm517 0q-2 1-2 4 1 2 5 1l1-2q-1-3-4-3ZM66 147q-4 1-3 6 1 2 5 1l3-4q-1-4-5-3Zm506 0-3 3 1 2q1 3 6 2 2-1 1-4-1-4-5-3Zm-484 8-2 2q-1 3 2 4 4 1 4-2l-1-3zm462 0-2 4q0 3 5 2 2-1 1-4t-4-2ZM73 177l-1 2 4 3h2l1-2q-1-4-6-3Zm491 0-3 4q1 2 4 1l3-4zM69 192l-4 4 2 1 4-1q2 0 1-3zm500 0-1 3 4 2q3 1 3-1l-3-4zM82 213q-3 0-3 5 1 2 5 1 2-1 1-4 0-2-3-2Zm475 0q-3 1-2 5 1 2 5 1 2 0 1-3 0-3-4-3ZM86 234l-3 3 1 3q1 2 6 1 2-1 1-4l-3-3zm467 0-2 1q-3 1-2 5 1 2 6 1l2-4q-1-3-4-3ZM81 246q-2 1-2 4 1 2 5 1l1-2q0-3-4-3Zm477 0-3 4q1 2 5 1 2 0 1-3 0-3-3-2Z" opacity=".996"/><path stroke="#000" d="m284.5 229 2.5 1.5-1.5-.5q-2.4-.1-1-1Zm70 0 1.5.5-2.5 1.5q-1.5-1 1-2Zm-260 36 1 1h3l4 2h4l5 2h5l1 1h6l1 1 4.5.5-14 12-6 10v8l1 1v3l6 18 3.5 6.5q4.8-12.7 15-20l13-9q1.5 1-1 2-9.6 4.9-15.5 13.5l-7 13-1 8-1 1v6l1 1 1 7 6 11 23.5 24.5 4.5 3.5 2.5 3.5.5-13.5 1-1v-7q2-1 1-5l6-13 6.5-7.5 1.5.5-5 6-5 12q1 4-1 5v8l-1 1v18l-1 1 8.5 7.5 10 5 8 1 1 1h7l1-1h5l1-1h3l1-1 15-3 1.5-1.5v-12l1-1v-8q2.3-1.2 1-6l1-1v-4l1-1 2-11 2.5-6.5.5 2.5-3 9v5l-1 1q1.2 4.7-1 6v20l1 1 .5 4.5 16.5-15.5 15-19 11-16 12-20 8.5-17.5 1.5 3.5v8l1 1v6l1 1 1 13-4 8v2l-13 24Q270 403 254.5 418l-23 18-21 11h-2l-3 2-9 3-7 1-1 1-10 1-1 1h-7l-1 1h-9l-4-2h-3l-6-2-15-7-18-13-12.5-12.5-15-20-5-10-2-2-9-19v-2l-4-8-4-12v-3l-2-4v-3l-3-9v-4l-1-1v-4l-1-1v-6l-1-1v-6l-1-3q1.8-.7 1-4l4-7L69.5 281l11-8 12-6zM86 294l-3 3q-1 3 2 4h3l3-3-1-2q-1-3-4-2Zm16 18-2 1-3 5 1 3 4 2 3-1 2-4-1-3zm-27 15-3 3 1 3h4q2-1 1-4 0-2-3-2Zm17 26-3 5 1 4 4 2 2-1 2-3-1-5q-1-3-5-2Zm17 3q-4 1-3 6l4 2q3-1 5-3l-1-3q-1-3-5-2Zm7 25q-3 0-3 5 1 2 5 1 2-1 1-4zm17 0q-3 0-3 5 1 2 5 1 2-1 1-4zm-24 9q-3 1-3 5 1 2 5 1 2-1 1-4zm14 7-3 3 3 3q4 1 4-2l-1-2q0-2-3-2Zm-16 5-2 1-1 4q1 2 5 1 1-1 1-3zm39 2-3 4q1 2 5 2 2-1 1-4 0-2-3-2Zm32 16-2 1-2 4q1 3 6 2 3-1 2-5-1-3-4-2Zm-15 2-2 1-3 4q-1 4 1 7 1 2 7 1l2-2 1-3-1-4-3-4zm37 6-3 4q1 2 5 2 2-1 1-4 0-2-3-2Zm-61 1q-3 0-3 5 1 2 5 1 2 0 1-3zm406.5-164 20 12 15.5 14.5 4 7 1 6-1 1-1 13-1 1v4l-1 1v4l-1 1-2 11-2 4v3l-4 12-7 15v2l-6 12-11 18q-10.2 14.8-23.5 26.5l-18 13-10 5-18 6h-9l-1-1h-7l-1-1-10-1-1-1-7-1-9-3-3-2h-2l-16-8-11-7-16-13-7.5-7.5-17-21-11-18-9-19v-9l1-1v-6l1-1v-6l1-1v-7l1.5-2.5 11.5 22.5 14 22 20 26 15.5 15.5 1.5-.5q-1-4 1-5v-20l-1-1v-5l-1-1v-4l-1-1v-4l-1-1-1-6h1l2 6v3l1 1v3l1 1v3l1 1v4l1 1q-1.2 4.8 1 6v8l1 1v12l1.5 1.5h3l1 1h3l1 1h3l9 3 13 1 1-1h4l9-3 9-6 4.5-4.5v-19l-1-1-1-7-3-6v-2l-4-6 .5-.5 2.5 2.5 7 17 1 8 1 1 .5 8.5 6-7 21.5-20.5 9-15 1-7 1-1v-6l-1-1-1-8-3-7q-5.7-9.8-14.5-16.5l-6.5-4.5 1.5.5q12.7 6.8 21.5 17.5l4 6 1.5 4.5 3.5-6.5 6-18q-.7-3.2 1-4v-8q-4.4-10.1-12.5-16.5l-7.5-5.5 4.5-.5 1-1 12-1 1-1 8-1zm6.5 29-3 4 4 3h3q2-1 1-4-1-4-5-3Zm-14 18-2 1-3 5 1 3 4 2 3-1 2-4-1-3zm26 15q-3 1-2 5 1 2 5 1l1-3q0-3-4-3Zm-19 26-3 5 1 4 4 2 2-1 2-3-1-5q-1-3-5-2Zm-16 3-2 1-2 4 5 3 3-1q2-1 1-4-1-4-5-3Zm-22 25-2 1-1 4q1 2 5 1 1 0 1-3zm17 0-2 1-1 4q1 2 5 1 2 0 1-3zm7 9-2 1-1 4q1 2 5 1 2 0 1-3zm-15 7-3 4q0 3 5 2l2-3q0-4-4-3Zm17 5q-4 0-3 5 1 2 5 1 2-1 1-4zm-40 2q-3 1-2 5 1 2 4 1l2-3q0-3-4-3Zm-33 16-2 2q-1 4 3 5t5-2l-1-3q-1-3-5-2Zm16 2-5 6 1 5q1 3 8 2l2-3q1-5-1-7l-3-3zm-37 6q-3 1-2 5 1 2 4 1l2-3q-1-3-4-3Zm62 1q-4 0-3 5 1 2 5 1 1 0 1-3zM216.5 291l2.5.5-2.5.5zm208 0 2.5.5-2.5.5z" opacity=".996"/><path stroke="#000" d="M206.5 304h8l6 3 2.5 2.5 3 5q-.7 3.3 1 4v6l-3 7-5.5 5.5-5 2h-6l-5-2-4.5-3.5-4-7v-10q2.3-6.7 7.5-10.5zm2.5 9-6 3-3 4v7l5 4 6 2 5-1 3-2 3-5q1-5-1-6-3-6-12-6Zm218.5-9h9q6.8 2.7 10.5 8.5l2 6v5l-3 8-4.5 4.5-6 3h-6l-7-3-3.5-3.5-3-6v-10l2-5 5.5-5.5zm3.5 9-5 2-3 3-2 5 1 4 5 4 6 2 8-3 3-5v-3l-2-4q-3-5-11-5Z" opacity=".996"/><path fill="#611c01" stroke="#611c01" d="M52.5 29q3-.5 3.5 1.5l-1.5-.5q-3 .5-2-1Zm531 1 3.5.5-3.5.5zm-513 3 6 1 1.5 1.5-1.5.5-6-2zm494 1 4.5.5-5.5 1.5q-1.5-1 1-2Zm-4 1 1.5.5q-1 2.5-2 1zm-476 1 1.5.5-2.5 1.5q-1.5-1 1-2Zm2 23 8 1 1.5 1.5-1.5.5-1-1-7-1zm465 0 3.5.5-9.5 2.5q-1.5-1 1-2 4 1 5-1Zm-453 2 1.5.5-.5 1.5-1.5-.5zm444 0 1.5.5q-1 2.5-2 1zm-17 4 2.5 1.5-1.5-.5q-2.4-.1-1-1Zm-482 18 5.5.5-5.5.5zm20 0 5.5.5-5.5.5zm522 0q4.8-1.3 6 1 1-2 2 0l1.5.5-6.5.5-3-1zm-531 1 3.5.5-3.5.5zm27 0 3.5.5-3.5.5zm467 0 4.5 1.5-3.5.5q-2.5-1-1-2Zm14 0 3.5.5-3.5.5zm-493 1 2.5.5-2.5.5zm505 0 2.5.5-2.5.5zm-495 1 2.5.5-2.5.5zm483 0 2.5.5-2.5.5zm-9 1 2.5.5-2.5.5zm1 12 .5 3.5h-1zm-469 1 .5 2.5h-1zm127 0 13.5 13.5-.5.5-13.5-13.5zm215 0 .5.5-13.5 13.5-.5-.5zm-342 4 .5 2.5h-1zm123 0 2.5 2.5-.5.5-2.5-2.5zm223 0 .5.5-2.5 2.5-.5-.5zm123 0 .5 3.5h-1zm-398 11q3-.5 3.5 1.5l-1.5-.5q-3 .5-2-1Zm325 0 2.5.5-3.5 1.5q-1.5-1 1-2Zm-320 1q2.5 1 1 2l-1.5-.5zm55 0 2.5 2.5-.5.5-2.5-2.5zm262 0 .5 1.5-1.5.5q-1.5-1 1-2Zm-312 2 18 6 20 10 17 12 14.5 14.5 11 15 19 33 6 8 10.5 10.5 2.5 1.5q-1.2 2.8-2.5.5l-5-2-16-10q-11.9-8.6-21.5-19.5l-9-11-22-33-18.5-19.5-13-9-11.5-5.5zm306 0 1.5.5-.5 1.5-16 8-8 6-14.5 14.5-30 43-16.5 17.5-19 14-13 7q-3-1.5 0-3l11.5-10.5 8-11 21-36q9.3-13.2 21.5-23.5l17-12 20-10h2l3-2zm-65 3 .5.5-2.5 2.5-.5-.5zm-180 2 3.5 3.5-.5.5-3.5-3.5zm185 0 .5.5-3.5 3.5-.5-.5zm-185 3 7 7q1.3-2.2 2.5.5l-1 1 .5 1.5-9.5-9.5zm185 0 .5.5-9.5 9.5q-3-1.5 0-3l1 1zm-189 1 2.5 2.5-.5.5-2.5-2.5zm193 0 .5.5-3.5 3.5-.5-.5zm-309 2 3.5.5-3.5.5zm422 0 3.5.5-3.5.5zm-399 3 5.5 2.5-1.5.5-3-1q-2.5-1-1-2Zm379 0q1.5 1-1 2l-1.5-.5zm31 0 .5 2.5h-1zm-312 3 2.5 2.5-.5.5-2.5-2.5zm183 0 .5.5-2.5 2.5-.5-.5zm-10 6 .5.5-3.5 3.5-.5-.5zm-158 2 2.5 1.5-.5 1.5-2.5-2.5zm151 1 1.5.5-2.5 1.5q-1.5-1 1-2Zm146 2 .5 2.5h-1zm-287 11 2.5 2.5-.5.5-2.5-2.5zm133 0 .5.5-2.5 2.5-.5-.5zm-239 11q4.1-.6 5.5 1.5l-1.5.5q-.7-1.7-4-1zm342 0 3.5.5-5.5 1.5v-1zm-335 1 2.5.5-.5 1.5q-3.8-.7-2-2Zm329 0 2.5.5-2.5 1.5zm-324 1 8 1 1 1h3l1 1h3l1 1h3l1 1h3l9 3 28 13 14 9 30 23 17.5 8.5q-.7 2.3-4.5 1.5l-1-1h-4l-1-1h-3l-1-1h-3l-9-3-15-7-16-10-33-24-19-10-13.5-4.5zm318 0 3.5.5-.5 1.5-13 4-19 10-33 24-16 10-10 5h-2l-3 2-9 3-16 3q-2.5-1-1-2h2l15-8 30-23 23-14h2l9-5 5-1 3-2 9-3h3l1-1h3l9-3h4zm-360 6 6.5.5-6.5.5zm399 0 6.5.5-6.5.5zm-243 10 1.5.5 4 7q-1 1.5-2-1l-4-6zm-107 3 4.5 2.5-1.5-.5-3-1zm306 0 1.5.5-4.5 2.5q-1.5-1 1-2zm-191 9 2.5 4.5h-1l-2-4zm15 24 1.5.5 1 2-.5.5-2.5-2.5zm47 0 .5.5-2.5 2.5-.5-.5zm-60 10 2.5 1.5-1.5.5q-2.5-1-1-2Zm72 0 1.5.5q-.7 2.3-4.5 1.5v-1zm-162 24 2.5.5-2.5.5zm251 0 2.5.5-2.5.5zm-104 16 .5.5-2.5 2.5-.5-.5zm2 0 2.5 2.5-.5.5-2.5-2.5zm176 6 5.5 5.5-.5.5-5.5-5.5zm-398 1 .5.5-5.5 5.5-.5-.5zm173 2 .5 2.5h-1zm1 4 .5 2.5-1.5 3.5-.5-2.5zm53 3 .5 2.5h-1zm-167 1h28l1 1 7.5.5-2.5 2.5-9 1-1 1h-3l-12 4q-8.1 2.9-12.5 9.5l-2 6v4l1 1v4l2 3v2l6 9-.5.5-2-2q-8.1-2.9-12.5-9.5l-6-12v-12l1-3 6.5-6.5zm255 0h27l9 3 6.5 5.5 3 8v6l-5 13-9.5 9.5-5 3-.5-2.5 6-10q-.7-3.2 1-4v-8l-2-5-3.5-3.5-11-6-6-2h-3l-1-1h-3l-1-1h-3l-1-1h-5l-1.5-1.5.5-1.5h7zm53 11 1.5.5-.5 1.5q-2.5-1-1-2Z" opacity=".996"/><path fill="#611c01" stroke="#611c01" d="M208.5 301h4l1 1 7 1q7.4 2.6 11.5 8.5l3 6v10q-2.6 7.4-8.5 11.5l-8 4q-4-1-5 1h-7l-11-4-7.5-7.5-2-4q.7-4.2-1-6 2.3-1.2 1-6l2-4 6.5-6.5 8-4q4.8 1.3 6-1Zm-2.5 2v2l-2-1-1 2-1-1-5 7-3 2 1 2h-2l1 2v8l-1 1h2l1 4q3 1 1 3h2v2l2-1 4 3h2v2l2-1q4-1 6 1v-2l2 1v-1h2l5-6 2-6h2l-1-2q-1-5 1-6h-2l1-3-1-1v-1l-1-1q-3-1-1-2l-1-1-2-2h-1l-4-2v-2l-2 1q-6 1-8-1Zm224.5-2h4l1 1 7 1q6.5 2.5 10.5 7.5l4 8v8l-3 7-5.5 5.5-8 4q-4-1-5 1h-7l-11-4-5.5-4.5-4-7-1-8 3-8 7.5-7.5 7-3q4.8 1.3 6-1Zm-2.5 2-1 2h-1q-1 2-2 0l-1 2-5 4v2h-1v2l-1 2v9l-1 2 2-1 1 4q2 1 0 2h2l2 4 2-1 3 2h2v2l2-1 5 1 1-2 2 1v-1l8-6-1-1 1-2h2l-1-4h2l-1-2 1-5h-1l-2-3 1-2-7-7-3-1v-2l-2 1h-7zm-13 16-1 4h1zm-274.5-13q2.5 1 1 2l-1-1-1.5.5zm359 0q2.5 1 1 2l-1-1-1.5.5zm-205 11 1.5.5-.5 3.5zm51 2 1.5.5-1.5 2.5zm-49 8 .5 2.5h-1zm48 0 .5 2.5h-1zm-27 3 .5 2.5h-1zm1 8 .5 2.5h-1zm-196 1 .5 6.5h-1zm395 0 .5 6.5h-1zm-198 7 .5 2.5h-1zm-142 1 .5 1.5-1.5.5q-1.5-1 1-2Zm-4 4q2.5 1 1 2l-1-1-2 2-.5-.5zm62 3 .5 2.5-1.5.5.5-1.5zm169 0 1.5 2.5-1.5.5zm61 2 3.5 3.5-.5.5-3.5-3.5zm-235 24 .5 2.5h-1zm179 0 .5 2.5h-1zm-244 1 .5 5.5h-1zm310 0 .5 2.5h-1zm-326 3 3.5 3.5-.5.5-3.5-3.5zm341 0 .5.5-3.5 3.5-.5-.5zm-243 6 .5.5-2.5 2.5-.5-.5zm145 0 2.5 2.5-.5.5-2.5-2.5zm-166 1 .5 3.5h-1zm187 0 .5 3.5h-1z" opacity=".996"/><path fill="#984d10" stroke="#984d10" d="m49.5 83 2.5.5-2.5.5zm11 0 2.5.5-4.5 1.5v-1zm89 30q3-.5 3.5 1.5l-1.5-.5q-3 .5-2-1Zm339 0 2.5.5-3.5 1.5q-1.5-1 1-2Zm-254 24 10.5 10.5-.5.5-10.5-10.5zm171 0 .5.5-3.5 3.5-.5-.5zm-8 8 .5.5-3.5 3.5-.5-.5zm-160 49 2.5 2.5-.5.5-2.5-2.5zm165 0 .5.5-2.5 2.5-.5-.5zm-150 15 2.5 2.5-.5.5-2.5-2.5zm135 0 .5.5-2.5 2.5-.5-.5zm-115 7 2.5 2.5-.5.5-2.5-2.5zm95 0 .5.5-2.5 2.5-.5-.5zm-87 8 2.5 2.5-.5.5-2.5-2.5zm79 0 .5.5-2.5 2.5-.5-.5zm-70 7 1.5 3.5-1.5.5q-2.7-1.3-.5-2.5zm61 0 1.5 2.5-2.5 1.5-.5-1.5zm-69 2 2.5.5-2.5.5zm11 0 2.5 1.5-2.5.5zm55 0 .5 1.5-2.5.5v-1zm9 0 2.5.5-2.5.5zm-160 23 2.5.5-2.5.5zm33 0 2.5.5-2.5.5zm179 0 2.5.5-2.5.5zm33 0 2.5.5-2.5.5zm-18 12 2.5.5-2.5.5zm-231 3 2.5.5-2.5.5zm253 0 2.5.5-2.5.5zm-316 1 3.5.5-3.5.5zm52 0 3.5.5-3.5.5zm274 0 3.5.5-3.5.5zm52 0 3.5.5-3.5.5zm-363 1 25.5.5-25.5.5zm326 0 25.5.5-25.5.5zm-177 4 .5 3.5h-1zm-108 11 15.5.5-15.5.5zm258 0 14.5.5-14.5.5zm-11 1 2.5.5-2.5.5zm-8 1 2.5.5-2.5.5zm-131 1 .5 2.5h-1zm54 0 .5 2.5h-1zm-179 3 .5.5-2.5 2.5-.5-.5zm305 33 .5.5-4.5 4.5-.5-.5z" opacity=".996"/><path fill="#828282" stroke="#828282" d="m7.5 43 .5 2.5H7zm11 0 .5 2.5h-1zm603 0 .5 2.5h-1zm11 0 .5 2.5h-1zm-469 16 .5 2.5h-1zm313 0 .5 2.5h-1zm-427 42 .5 2.5h-1zm541 0 .5 2.5h-1zm-512 79q1.5 1-1 2l-1.5-.5zm483 0 2.5 1.5-1.5.5q-2.5-1-1-2Zm-481 66-.5 1.5-.5 1.5-.5-1.5zm479 0 1.5 2.5h-1z"/><path fill="#c79f13" stroke="#c79f13" d="m276.5 220 3.5 3.5-.5.5-3.5-3.5zm87 0 .5.5-3.5 3.5-.5-.5zm-74 13q1.5 1-1 2l-1.5-.5zm61 0 2.5 1.5-1.5.5q-2.5-1-1-2Zm-55 1q2.5 1 1 2l-1.5-.5zm49 0 .5 1.5-1.5.5q-1.5-1 1-2Zm-145 22 3.5.5-3.5.5zm27 0 2.5.5-2.5.5zm185 0 2.5.5-2.5.5zm26 0 3.5.5-3.5.5zm-252 16 2.5.5-2.5.5zm267 0 2.5.5-2.5.5zm-282 1 2.5.5-2.5.5zm297 0 2.5.5-2.5.5z"/><path fill="#c73d10" stroke="#c73d10" d="m18.5 31 4.5 4.5-.5.5-4.5-4.5zm603 0 .5.5-4.5 4.5-.5-.5zm-540 5 2.5.5-2.5.5zm472 1 3.5.5-3.5.5zm-509 2 .5.5-2.5 2.5-.5-.5zm551 0 2.5 2.5-.5.5-2.5-2.5zm-68 26 1.5.5-2.5 1.5q-1.5-1 1-2Zm-427 9 .5.5-5.5 5.5-.5-.5zm439 0 5.5 5.5-.5.5-5.5-5.5zm-487 9q6.8-1.3 9.5 1.5l-1.5.5-1-1h-7zm25 1 2.5.5-2.5.5zm491 0 4.5 1.5-1.5.5-3-1zm15 0 2.5.5-2.5.5zm-441 27q3.8-.7 4.5 1.5l-1.5.5-3-1zm352 0 3.5.5-4.5 1.5q-1.5-1 1-2Zm-346 1 1.5.5q-1 2.5-2 1zm69 0 4.5 4.5-.5.5-4.5-4.5zm273 0 1.5.5-.5 1.5q-2.5-1-1-2Zm-338 1 1.5.5-2.5 1.5q-1.5-1 1-2Zm269 0 .5.5-4.5 4.5-.5-.5zm65 0 2.5 1.5-1.5-.5q-2.4-.1-1-1Zm-67 7 .5.5-2.5 2.5-.5-.5zm-190 12 4.5 4.5-.5.5-4.5-4.5zm180 1 .5.5-3.5 3.5-.5-.5zm-271 2 3.5 2.5-1.5.5-2.5-1.5zm53 0 2.5 2.5-.5.5-2.5-2.5zm257 0 .5.5-2.5 2.5-.5-.5zm53 0 .5 1.5-3.5 1.5v-1zm-402 1 .5 8.5h-1zm441 0 .5 8.5h-1zm-308 3 2.5 2.5-.5.5-2.5-2.5zm175 0 .5.5-2.5 2.5-.5-.5zm-11 2 1 1 1.5-.5-1.5 1.5q-2.5-1-1-2Zm-196 3 3.5 3.5-.5.5-3.5-3.5zm239 0 .5.5-3.5 3.5-.5-.5zm-215 4 8.5 8.5-.5.5-8.5-8.5zm21 0q1 2 2 0l1.5 1.5-1 1 .5 1.5-3.5-3.5zm147 0 1.5 1.5-3.5 3.5-.5-.5 2-2-1-1zm23 0 .5.5-8.5 8.5-.5-.5zm-165 2 2.5 3.5-.5.5-2.5-2.5zm139 0-.5 1.5-1.5 2.5.5-1.5zm-140 6 2.5 2.5-.5.5-2.5-2.5zm141 0 .5.5-2.5 2.5-.5-.5zm-251 11 3.5.5-3.5.5zm6 0 1.5.5-2.5 1.5q-1.5-1 1-2Zm348 0 2.5 1.5-1.5.5q-2.5-1-1-2Zm4 0 3.5.5-3.5.5zm-203 122 .5 6.5h-1zm-89 12 2.5.5-2.5.5zm8 0 2.5.5-2.5.5zm214 0 2.5.5-2.5.5zm8 0 2.5.5-2.5.5zm-273 3 .5 2.5h-1zm31 2 .5.5-4.5 4.5-.5-.5zm222 0 .5.5-5.5 5.5-.5-.5zm27 0 4.5 4.5-.5.5-4.5-4.5zm-280 3 .5 2.5h-1zm-30 3 .5.5-2.5 2.5-.5-.5zm375 0 2.5 2.5-.5.5-2.5-2.5zm-58 5 .5 2.5h-1zm-264 1 .5 3.5h-1zm282 0 .5 2.5h-1zm-53 1 .5 3.5h-1zm-179 1 .5 5.5h-1zm222 1 .5 2.5h-1zm-272 3 .5 2.5h-1zm222 1 .5 2.5h-1zm-237 3 3.5 3.5-.5.5-3.5-3.5zm18 5 6.5 6.5-.5.5-6.5-6.5zm35 0 .5.5-3.5 3.5-.5-.5zm8 1 .5.5-4.5 4.5-.5-.5zm221 1 .5.5-2.5 2.5-.5-.5zm-238 8 2.5.5-2.5.5zm211 0 2.5.5-2.5.5zm11 0 2.5.5-2.5.5zm-200 8 .5 2.5q-1 1.5-2-1zm228 4 2.5 1.5-1.5-.5q-2.4-.1-1-1Zm-328 16 10.5 10.5-.5.5-10.5-10.5zm367 0 .5.5-10.5 10.5-.5-.5zm-273 12 .5 2.5h-1zm179 0 .5 2.5h-1zm-183 5 .5 2.5h-1zm187 0 .5 2.5h-1zm-253 1 .5 5.5h-1zm5 0 .5 4.5h-1zm314 2 .5 3.5h-1zm-236 3 .5.5-9.5 9.5-.5-.5zm153 0 3.5 3.5-.5.5-3.5-3.5zm5 5 4.5 4.5-.5.5-4.5-4.5zm-176 3 .5 5.5h-1zm189 0 .5 5.5h-1zm-221 12 2.5.5-2.5.5zm251 0 2.5.5-2.5.5z" opacity=".996"/><path fill="#f95e14" stroke="#f95e14" d="M26.5 7h11q1 2 5 1l16 7 2.5 2.5q-.1 6.4-4.5 8.5l-13 6-4.5 3.5-3.5 6.5q-6.5-.5-10-4L15 27.5l-6-11v-3L17.5 9l8-1zM23 13q-3 0-3 5 1 2 5 1 2 0 1-3zm579.5-6h11q1 2 5 1 .8 1.8 4 1l8.5 4.5v3l-6 11L614.5 38q-3.5 3.5-10 4l-5-8-16-8-3.5-3.5-1-5 2.5-2.5 10-5 6-2h4zm15.5 6-4 3q0 3 2 3 3 1 4-1 1-5-2-5ZM52.5 35q9.4 1.6 14.5 7.5l1 4 7 11v3L71.5 63l-10 2-7-3-8.5-8.5q-3.8-4.2-5-11l6.5-5.5zm534 0 6 2 6.5 5.5q-3.7 12.8-13.5 19.5l-8 3-1-1h-5l-3-1-3.5-2.5v-3l2-4 5-7 1-4 2.5-2.5 7-4q3.3.8 4-1Zm-36 3 2.5.5-2.5.5zm-458 1 6 1 4 2h3l4 2h3l15 5 3 2 5 1 12 6h2l21 11q33.3 20.2 58.5 48.5l24 30 16 24 27 48q-1 1.5-2-1l-10-18-22-34q-15.1-18.4-32.5-34.5l-32-26-25-16-31-15-19.5-6.5 2.5-.5 21 7 15 7h2l26 14q29 18.5 51.5 43.5l10.5 12.5.5-1.5-17-21-16.5-17.5-24-21-18-13-3-1-15-10-28-14h-2l-15-7-20-6zm454 0 2.5.5-20.5 6.5-3 2-12 4-34 17-29 19-16 13-17.5 16.5-17 19-12 16 .5.5 4.5-4.5q10-14.5 23.5-25.5l22-18 20-13 29-14 28-9v1l-11 3-17 8h-2l-31 17-29 21-16 14-19.5 19.5-13 15-31.5 50.5.5-1.5 14-27 12-20 17-25 22-27L431.5 97l20-16 20-13 34-16 5-1 3-2 12-4h3l4-2 10-2zm-431 27 2.5.5-2.5.5zm405 1 2.5.5-2.5.5z" opacity=".996"/><path fill="#f95e14" stroke="#f95e14" d="m101.5 74 1 1h4l1 1 15 3 7 3h3l9 3 3 2 5 1 10 5h2l22 11 15 9 17 12q18 14 33.5 30.5l19 23 6 9 .5 2.5 1.5.5.5 2.5 1.5.5q-2 1 0 2l2 3-.5.5-2-2-9 1-4.5 2.5 1 2h-1l-.5-1.5-1.5.5.5-1.5-1.5-.5.5-1.5-2.5-1.5-6-12-11-17-17.5-19.5-10-8-20-12h-2l-7-4h-2l-3-2h-2l-3-2-12-4h-3l-7-3-11-2v1l15 4 21 10q12 7.5 21.5 17.5l10 12 23 34 16 17-2 2 .5 1.5-4-5-1.5.5-1.5-2.5q-1.2 2.3-2.5-.5l-.5-1.5h-2l-16-11-23-11-15-5-11-2-1-1h-4l-6-2h-5l-1-1h-6l-1-1h-7v1l14 2 7 3h3l8 4h2l22 12 22.5 16.5 1.5 2.5 1.5-.5-.5 2.5h-5l-1 1h-4l-4.5 1.5.5 1.5q-.7-1.7-4-1l-1 1h-4l-5 2h-4l-5 2h-4l-1 1-12.5 2.5.5 1.5q-.7-1.8-4-1l-1 1h-4l-1 1-8 1-5 2h-4l-8 3-5.5.5.5 1.5-4-1-1.5-1.5h2l-1-2 2-1-1-2q3.5-1.5 1-3v-12q-1.8-.8-1-4l-4-12-5-10-1-5 1.5-1.5h13l1 1h5l1 1h4l4 2 6 1 3 2 12 4 9 5q1.5-1-1-2l-15-8h-2l-3-2-12-4h-3l-5-2h-4l-1-1h-4l-1-1-11-1-4.5-4.5-3-6-2-6v-4l-1-1v-18l4.5-2.5h12l1 1 9 1 13 5q1.5-1-1-2l-18-7-21-4-8.5-5.5-3-4-2-6v-11l4-10-4.5-.5-1-1h-9l-1-1-12.5-.5 14.5-.5 1 1h11l2 1zm437 0 11 12h6l1-1h14l1-1h11v1h-11l-1 1h-10l-1 1-9.5.5 4 10v11l-2 6-4.5 5.5-7 4-8 1-1 1h-4l-1 1h-3l-1 1h-3l-6 2-3 2-7 2-3.5 2.5 1.5.5 6-3 6-2h3l1-1q4.8 1.3 6-1h12l4.5 2.5v18q-2 1-1 5l-5 12-4.5 4.5-11 1-1 1h-4l-1 1h-4l-1 1-7 1-12 4-3 2h-2l-12 6-4.5 3.5 1.5.5 4-3q6.8-1.2 11-5l18-6 10-1 1-1h13q2 .5 1.5 3.5l-6 13-4 12q.8 3.2-1 4v12l-1 1 2 3-.5 1.5 1.5.5-1 2h2l-2.5 2.5-1-1-1.5.5-.5-1.5h-5l-8-3h-4l-5-2h-4l-1-1h-4l-1-1-7-1-1.5.5.5-1.5-8-1-5-2h-4l-5-2h-4l-5-2-8-1-1.5.5.5-1.5-14.5-2.5.5-2.5q1.3 2.3 2.5-.5l1.5-2.5 21-15 22-12h2l8-4h3l7-3h4l1-1h4l1-1 4.5-.5-7.5-.5-1 1h-6l-1 1h-5l-1 1-9 1-1 1-11 2-15 5-23 11-16 11-2.5.5-1.5 2.5q-1.2-2.2-2.5.5l-1.5 2.5v-2l-2.5 1.5-.5 1.5-2.5-1.5 16-17 23-34 15.5-17.5 16-12 16-8 20.5-6.5-3.5-.5-1 1-7 1-7 3h-3l-12 4-21 9-22 14-14.5 13.5-15 20-12.5 21.5-1.5.5.5 1.5-1.5.5.5 1.5-1.5-.5-.5 1.5-.5-1.5q2.3-1.2-.5-2.5l-7-1-1-1h-4l-2 2-.5-.5 3-4-.5-1.5 1.5-.5.5-2.5 1.5-.5 1-4 11-15 26.5-28.5 24-20 28-18 34-16 27-9h3l1-1h3l9-3h4zm-239 198q4-.5 4.5 2.5l4 9v3l3 8 2 14 1 1v5l1 1q-1.3 4.8 1 6v6l1 1v6l1 1v7l1 1v8l1 1 .5 6.5 1.5-2.5 1-16 1-1v-6l1-1v-6l1-1v-5l1-1v-5l1-1 1-10 1-1v-3l1-1v-3l1-1v-3l1-1v-3l2-6 3-6 2.5-2.5q3-.5 3.5 1.5l2 4q-1.2 4.8 1 6v10q1.7.8 1 4l-1 1v11h1l.5-3.5 3 1 4-2h3l4-2h3l4-2 10-2 7-3h3l4-2h3l4-2h3l4-2h3l4-2h3l7-3h3l4-2h3l4-2h3l4-2h3l13.5-4.5 1.5-2.5q1 2 2 0 1.8 1.7 6 1l1 1h6l1-1h18l1-1h12q8.6 4.9 14.5 12.5l5 8 1 6-1 1-1 7-6 18-2.5 4.5-3.5-7.5-9.5-10.5-12-9-8-4-.5 1.5q11.2 5.3 19 14l9 15 1 6 1 1v11l-1 1-1 6-8 13-26.5 26.5-1.5-3.5-1-11-3-9q-3.6-8.9-9.5-15.5l-1.5.5 4 5 6 15q-.8 3.3 1 4v7l1 1v8q-2 1-1 5l-4.5 4.5-4 3-11 5q-4-1-5 1h-12l-1-1h-4l-1-1-15-3-2.5-1.5q1.3-4.7-1-6v-13l-1-1-1-11-6-18v-3l-2.5-4.5-.5 2.5 1 1v3l2 5v4l1 1v4l1 1 1 13 1 1v9l-1 1v6l-1.5 2.5-7.5-6.5-14-16-12-16-16-25-12.5-23.5-.5 6.5-1 1v7l-1 1v6l-1 1q1.3 4.8-1 6v7l-1 1v5l-1 1-1 10-1 1-1 9-2 5v4l-1 1v3l-4 12-6 12-2.5 2.5-8.5-15.5-3-9-3-15-1-1v-4l-1-1v-4l-2-6v-5l-2-6v-6l-1-1v-6l-1-1v-6l-1-1v-7l-1-1-.5-8.5-1.5.5v2l-12 23-16 25-17 22-16.5 16.5-1.5-2.5v-6l-1-1v-9l1-1 1-13 1-1v-4l1-1v-4l1-1 2-10q-1-1.5-2 1l-1 6-6 18v5l-1 1q1.2 4.7-1 6v13l-1 1-.5 5.5-6 2h-3l-1 1h-3l-1 1h-3l-1 1h-4l-1 1h-12l-1-1-7-1-8-4-8.5-7.5v-6l1-1v-17l1-1 1-9 3-6v-2l8-12-.5-.5-9.5 9.5-4 7-3 9q1 4-1 5v12l-1 1-.5 4.5-26.5-26.5-5-7-5-13v-11l1-1 1-6 4-8 9.5-11.5 14.5-9.5-.5-1.5-11 6-15.5 13.5-5 7-1.5 4.5-2.5-4.5-6-18-2-11 3-7 11.5-12.5 6-4h12l1 1h18l1 1h6l3-1 4-1q1 2 2 0l1.5 1.5.5 1.5 6 1 14 5h3l4 2h3l4 2h3l4 2h3l7 3h3l18 6h3l7 3h3l18 6h3l7 3 1-1 1.5.5 1-27q1.8-.7 1-4zM185 288l-1 1-8 1-6 3-7 8q1 3-1 4v7l1 1 1 6 6 10q5 6 14 9h1l-6-8v-2l-3-6v-10l2-4 4-4 9-5 9-3h3l1-1h3l1-1h4l1-1h5l1-1h4l-3-2-17-1-1-1zm257 0-1 1-17 1-4 2h6l1 1h5l1 1h4l5 2h3l16 7 5 6 2 6-2 11-4 8-3 3 1 1 9-5 8-9 4-10v-11l-1-3-7-8-8-3q-5 1-6-1zm-236 13-1 1-6 1-5 3q-6 4-9 13v8l3 7 7 6 10 4h12l11-5 4-4 4-9-1-9-5-8-10-7q-4 1-4-1zm222 0-1 1-6 1-5 3-6 6-3 7v9l3 6 7 6 9 4h13l8-3 4-3 4-5 3-9-1-7-2-4q-5-8-13-11-4 1-4-1z" opacity=".996"/><path fill="#efb214" stroke="#efb214" d="m277.5 194 6.5 9.5 9 18 5 15-9.5 6.5h-2l-5 3-12 4-11 2-1 1-11 1-1 1h-6l-1 1h-12l-1 1h-22l-1-1h-12l-1-1h-7l-1-1h-5l-1-1h-4l-1-1-11-2-9-3-3-2h-2l-12-6-10.5-7.5 1.5-.5 2 1v-2h5l8-3h4l1-1 8-1 5-2h4l9-3h4l5-2h4l1-1 8-1 5-2h4l9-3 10.5-1.5.5-1.5 16 11 19 9 6 2h3l4 2h4l6 2h7l1 1h7l2 1q1.5-1-1-2l-11-6-13.5-13.5-9-14 1.5.5 2-2 12.5-2.5zm85 0-.5 1.5.5 1.5 9 1 5 3 1.5-.5-9 14-13.5 13.5-12.5 7.5 1.5.5 1-1h7l1-1h7l1-1 9-1 4-2h3l6-2 19-9 16-11 1 2 10 1 9 3h4l5 2h4l5 2h4l1 1 8 1 1 1h3l9 3 9 1 1 1 8 1 8 3 5.5.5.5 1.5 1.5-.5-9.5 7.5-12 6h-2l-3 2-9 3h-3l-9 3h-4l-1 1-13 1-1 1h-12l-1 1h-22l-1-1h-12l-1-1h-6l-1-1-11-1-1-1-11-2-12-4-12-6-4.5-3.5 5-15 9-18z" opacity=".996"/><path fill="#efb214" stroke="#efb214" d="m243.5 202 6.5 5.5.5 1.5 19 14 19.5 9.5-2.5.5-6-3h-2l-13-7-18.5-14.5 1-1-5-5zm153 0-1 3 1.5.5-22.5 17.5-13 7-10 3v-1h2l17-9 19.5-14.5.5-1.5zm-2.5 4q-3 1-1 2h1zm-150.5-1 2.5 2.5-.5.5-2.5-2.5zm56 36 1.5.5v3l-3 7-1 7-2 5v4l-1 1v6l-1 1v20l1 1v12l-1.5-.5-1 1-1-1-6-2h-3l-4-2h-3l-4-2h-3l-4-2h-3l-7-3h-3l-4-2h-3l-4-2h-3l-14-5h-3l-4-2h-3l-4-2h-3l-4-2h-3l-4-2h-3l-13.5-4.5-1-2 10.5-.5 1-1h8l1-1h7l1-1h6l1-1h5l1-1h4l1-1h4l1-1h4l5-2 8-1 36-12 16-8zm40 0 19 10 36 12 8 1 1 1 8 1 1 1h4l1 1h4l1 1h5l1 1h6l1 1h7l1 1h8l1 1 10.5.5-1.5 2.5-6 1-7 3h-3l-4 2h-3l-21 7h-3l-4 2h-3l-4 2h-3l-4 2h-3l-14 5h-3l-4 2h-3l-4 2h-3l-4 2h-3l-6 2-1.5-.5-.5 3.5-.5-11.5 1-1v-23l-1-1v-5l-1-1-2-11-5-13zm-178 33 6.5.5-6.5.5zm311 0 6.5.5-6.5.5z" opacity=".996"/><path fill="#f2f3f3" stroke="#f2f3f3" d="m22.5 14 2.5 1.5q.5 3-1.5 3.5L21 17.5q-.5-3 1.5-3.5Zm594 0 2.5 1.5q.5 3-1.5 3.5l-2.5-1.5q-.5-3 1.5-3.5Zm-551 2 2.5.5-.5 3.5-2.5-.5zm507 0 2.5.5-.5 3.5-2.5-.5zm-489 8 2.5.5 1 4-3.5 2.5q-2.1-1.4-1.5-5.5zm471 0q3-.5 3.5 1.5.6 4.1-1.5 5.5l-3.5-2.5zm-429 13 2.5 1.5q1 4.5-1.5 5.5-3 .5-3.5-1.5-.7-4.7 2.5-5.5Zm388 0 3.5 2.5q.8 3.8-1.5 4.5-3 .5-3.5-1.5-1-4.5 1.5-5.5Zm-400 1 1.5.5-.5 3.5-2.5-.5q-.5-3 1.5-3.5Zm412 0 2.5 1.5-.5 2.5-2.5-.5zm-514 2h3l3.5 2.5q1 5.5-2.5 6.5-6.2 1.3-7.5-2.5Q7 42 9.5 41zm614 0h3l3.5 2.5q1 5.5-2.5 6.5-6.2 1.3-7.5-2.5-1-4.5 1.5-5.5zm-592 10q3.8-.7 4.5 1.5.5 3-1.5 3.5-3 .5-3.5-1.5zm570 0 3.5.5q.8 3.8-1.5 4.5-3 .5-3.5-1.5-.5-3 1.5-3.5Zm-491 5q3.8-.7 4.5 1.5-1.1 5.4-5.5 7.5-3.8 3.7-11 4L99 65.5l5.5-6.5zm412 0h3l5 2 7.5 6.5 1 3q-.7 2.3-4.5 1.5-8-2.5-12.5-8.5l-1-3zm-359 2 1.5 3.5-1.5 2.5-1.5-.5q-1-4.5 1.5-5.5Zm309 0q2.5 1 1.5 5.5l-1.5.5-1.5-2.5zm-280 20 3.5.5-.5 3.5-3.5-.5zm248 0 3.5.5-.5 3.5-3.5-.5zm-421 2 4.5.5q.8 3.8-1.5 4.5l-4.5-.5q-.7-3.7 1.5-4.5Zm593 0q4.5-1 5.5 1.5l-.5 3.5q-4.5 1-5.5-1.5zm-548 11q8.8-1.7 10.5 3.5l1 7-3.5 5.5q-2.5 2-8 1l-3.5-3.5-1-7 1-3zm500 0q8.8-1.7 10.5 3.5l1 7-1 3-3.5 3.5q-7.2 1.3-9.5-2.5l-2-4v-4l1-3zm-515 10q3-.5 3.5 1.5.5 3-1.5 3.5-3 .5-3.5-1.5-.5-3 1.5-3.5Zm535 0q3-.5 3.5 1.5.5 3-1.5 3.5-3 .5-3.5-1.5-.5-3 1.5-3.5Zm-526 38 2.5.5-.5 2.5-3.5-.5zm517 0q3-.5 3.5 1.5l-.5 1.5-3.5-.5zm-510 9 2.5 3.5q-.7 3.3-5.5 2.5l-1.5-2.5zm505 0 4.5 3.5-1.5 2.5q-4.7.8-5.5-2.5zm-485 9 3.5.5q.5 3-1.5 3.5-3 .5-3.5-1.5zm462 0q3.8-.7 4.5 1.5l-1.5 2.5q-3 .5-3.5-1.5zm-476 21 4.5 2.5-.5 1.5q-4 .5-4.5-2.5zm492 0 1.5.5-2.5 3.5-2.5-.5 1.5-2.5zm-495 15 1.5 1.5-2.5 2.5-3.5-.5zm499 0 4.5 3.5-3.5.5-2.5-2.5zm-489 22 3.5.5-.5 3.5-3.5-.5zm476 0 3.5.5-.5 3.5-3.5-.5zm-471 21q3.8-.7 4.5 1.5l1 2-3.5 2.5-3.5-2.5q-.5-3 1.5-3.5Zm466 0q3.8-.7 4.5 1.5.5 3-1.5 3.5l-3 1-2.5-2.5 1-1zm-471 12q3-.5 3.5 1.5l-.5 1.5-3.5-.5zm477 0 2.5.5-.5 2.5-3.5-.5zm-472 48q3.8-.7 4.5 1.5l-1.5 3.5q-4.5 1-5.5-1.5zm466 0q4.8-.7 5.5 2.5l-1.5 2.5-4.5-.5-1-3zm-451 18q3.8-.7 4.5 1.5l1 4-2.5 3.5-4.5-1.5-1-4zm436 0q3.8-.7 4.5 1.5l1 4-1.5 2.5-4 1-2.5-3.5v-2zm-329 1h6l3 1 3.5 3.5q1.8 2.2 1 7l-3.5 4.5-5 2h-4l-3-1-4.5-4.5-1-5 3.5-5.5zm222 0h6l6.5 4.5q1.8 2.2 1 7l-3.5 4.5-5 2h-4l-6.5-3.5-2-4v-3l1-3 2.5-2.5zm-355 14q3-.5 3.5 1.5l-2.5 3.5-2.5-1.5q-.5-3 1.5-3.5Zm489 0q3-.5 3.5 1.5l-.5 2.5-2 1-2.5-3.5zm-470 25 2.5 1.5q1.7 1.8 1 6-.5 3-4.5 2.5l-2.5-3.5v-3l1.5-2.5zm453 0 2.5 1.5 1 5-2.5 3.5q-4 .5-4.5-2.5-.7-4.7 1.5-6.5zm-438 4q4.5-1 5.5 1.5.5 4-2.5 4.5-4.7.8-5.5-2.5zm419 0q5.5-1 6.5 2.5l-2.5 3.5q-4.7.8-5.5-2.5-.5-3 1.5-3.5Zm-412 25 2.5.5q.8 3.8-1.5 4.5l-2.5-1.5q-.5-3 1.5-3.5Zm17 0 2.5.5q.8 3.8-1.5 4.5l-2.5-1.5q-.5-3 1.5-3.5Zm373 0q3-.5 3.5 1.5.5 3-1.5 3.5l-2.5-1.5zm17 0q3-.5 3.5 1.5.5 3-1.5 3.5l-2.5-1.5zm-415 9 3.5.5-.5 3.5-3.5-.5zm422 0 3.5.5-.5 3.5-3.5-.5zm-407 7q3-.5 3.5 1.5l-2.5 3.5-2.5-3.5zm393 0q3-.5 3.5 1.5l-2.5 3.5-2.5-3.5zm-410 5q3-.5 3.5 1.5.5 3-1.5 3.5l-2.5-1.5zm427 0 2.5.5q.8 3.8-1.5 4.5l-2.5-1.5q-.5-3 1.5-3.5Zm-388 2q3.8-.7 4.5 1.5l-1.5 2.5q-3 .5-3.5-1.5zm348 0 3.5.5q.5 3-1.5 3.5-3 .5-3.5-1.5zm-316 16 4.5.5q.8 3.8-1.5 4.5-3.7.8-4.5-1.5-.5-3 1.5-3.5Zm283 0q4.5-1 5.5 1.5.5 3-1.5 3.5-3.7.8-4.5-1.5zm-298 2h3l3.5 3.5q.8 5.8-2.5 7.5l-3 1-2.5-1.5q-2-2.5-1-8zm314 0q4.8-.7 5.5 2.5v7l-1.5 1.5-3 1-3.5-2.5q-1.7-1.8-1-6zm-276 6q3-.5 3.5 1.5l-1.5 2.5q-3 .5-3.5-1.5zm239 0q3-.5 3.5 1.5l-1.5 2.5q-3 .5-3.5-1.5zm-300 1 2.5 1.5q.5 3-1.5 3.5l-2.5-1.5q-.5-3 1.5-3.5Zm362 0 2.5 1.5q.5 3-1.5 3.5l-2.5-1.5q-.5-3 1.5-3.5Z" opacity=".996"/><path fill="#281e24" stroke="#281e24" d="M16.5 0q1.8 1.7 6 1l1 1h4l9 3h4l1 1 15 3 8 3h3l7 3h3l24 8 3 2 15 5 14 7h2l32 17L197 74.5l-2.5.5-4-4-16-11-38-21h-2l-7-4h-2l-5-3h-2l-13-6-5-1-3-2-18-6h-3l-7-3h-3l-4-2h-3l-1-1h-3l-1-1h-3l-9-3-1.5.5-.5-1.5h-5l-1-1-8-1-1-1-9-1L13 4.5l-5 6-5 10q.7 3.2-1 4v8l-1 2 1 1v9l1 1 2 11 6 14v2l31 62v2l8 17 4 12v3l2 5v4l1 1v5l1 1v20l-1 1v5l-1 1v3l-2 6-5 9q5.8 11.7 15.5 19.5l9 6 17 8 6 1 8 3h3l1 1 11 1 1 1h6l3.5 1.5-5.5.5-1-1h-6l-1-1h-5l-5-2h-4l-4-2h-3l-6-2-8-4h-2l-17-11-7.5-7.5-5-7-2-6 6-12v-3l2-5v-6l1-1v-13l-1-1v-7l-1-1-1-9-2-4v-3l-2-6-5-11v-2l-33-66v-2l-5-10-4-12-1-7-1-1v-6l-1-1v-11l1-1v-4l3-9 3-5zm606 0L633 9.5l3 5 3 9q-1 4 1 5v11l-1 1v6l-1 1-1 7-4 12-2 3v2l-32 64v2l-4 7-3 10-2 3-1 6-3 8v3l-1 1v4l-1 1v7l-1 1v13l1 1v6l1 1 1 7 6 12v2q-5.4 11.1-14.5 18.5l-10 7-17 8-6 2h-3l-4 2-8 1-1 1-18 2v-1l21-3 1-1 7-1 15-5 12-6 9-6 8.5-8.5 7-11-5-9-2-6v-3l-1-1q1.3-4.8-1-6v-20l1-1v-5l1-1v-4l1-1 1-7 4-12 4-8v-2l32-64v-2l7-15 2-6v-3l2-4v-4l1-1v-20l-6-14-5.5-6.5-3-2h-4l-1 1h-4l-5 2L599 6.5l-.5 1.5-3-1-7 3-11 2-4 2h-3l-7 3h-3l-18 6-3 2-5 1-3 2-12 4-5 3h-2l-7 4h-2l-23 12-24 15-11 9h-2v-1l29-20 5-2 11-7 32-15h2l8-4 5-1 3-2 24-8h3l4-2h3l4-2h3l4-2h3l1-1h3l9-3h4l5-2h4l5-2h4z" opacity=".965"/><path fill="#281e24" stroke="#281e24" d="m81.5 26 .5 2.5h-1zm477 0 .5 2.5h-1zm-445 11 2.5 1.5-1.5-.5q-2.4-.1-1-1Zm412 0 1.5.5-2.5 1.5q-1.5-1 1-2Zm-412 17 2.5.5-2.5.5zm411 0 2.5.5-2.5.5zm-421 5 .5.5-2.5 2.5-.5-.5zm433 0 2.5 2.5-.5.5-2.5-2.5zm-421 1 .5.5-3.5 3.5-.5-.5zm409 0 3.5 3.5-.5.5-3.5-3.5zm-424 8 2.5.5-2.5.5zm437 0 2.5.5-2.5.5zm-337 9Q218 91 233 107.5l23 29 18 29 15 30v2l3 5 4 12 3 5 5 16q-1 1.5-2-1l-2-8-2-3v-3l-3-5v-2l-8-17v-2l-14-28-2-2-8-15-10-15-14-18L212.5 89 200 78.5zm239 0 .5 1.5q-17.3 13.7-32 30l-21 26-16 25-18 35v2l-4 7-2 7-5 10 .5 1.5-1.5.5q2 1 0 2l-4 12 4 3-.5 1.5-3.5-2.5-1-5 6-14v-2l2-3v-2l2-3v-2l2-3v-2l3-5v-2l15-30 2-2 8-15 20-28 11-13L425.5 89zm-413 5 .5.5-2.5 2.5-.5-.5zm587 0 2.5 2.5-.5.5-2.5-2.5zm-552 15 .5 2.5h-1zm517 0 .5 2.5h-1zm-502 7 .5.5-2.5 2.5-.5-.5zm487 0 2.5 2.5-.5.5-2.5-2.5zm-261 133 .5 1.5-3.5 2.5-.5-1.5zm-5 3-.5 1.5-.5 1.5-.5-1.5zm47 1 1.5 2.5h-1l-.5-1.5-1.5.5zm-260 7 .5 1.5q-1 2.5-2 1zm197 0 1.5.5-.5 1.5q-2.5-1-1-2Zm274 0 1.5 2.5q-1 1.5-2-1zm-298 9 .5 1.5-1.5.5q-1.5-1 1-2Zm-7 2 .5 1.5-1.5.5q-1.5-1 1-2Zm139 0q2.5 1 1 2l-1.5-.5zm12 3q2.5 1 1 2l-1.5-.5zm-190 6 2.5.5-2.5.5zm215 0 2.5.5-2.5.5zm-229 2 2.5.5-2.5.5zm243 0 2.5.5-2.5.5zm-253 1 3.5.5-3.5.5zm262 0 3.5.5-3.5.5zm-314 1 5.5.5-5.5.5zm38 0 6.5.5-6.5.5zm287 0 6.5.5-6.5.5zm39 0 5.5.5-5.5.5zm-206 12 .5 3.5h-1zm132 31 .5.5-2.5 2.5-.5-.5zm18 6 .5 3.5h-1zm-354 36 .5 2.5h-1zm8 0 .5 2.5h-1zm445 0 .5 2.5h-1zm8 0 .5 2.5h-1zm-388 65 2.5.5-2.5.5zm313 0 2.5.5-2.5.5zm-307 5 .5 2.5h-1zm303 0 .5 2.5h-1z" opacity=".965"/><path fill="#160e15" stroke="#160e15" d="m15.5 0 .5.5L8.5 8 8 7.5zm609 0 7.5 7.5-.5.5L624 .5zM.5 25l.5 2.5H0zm639 0 .5 2.5h-1zM.5 40l.5 3.5H0zm639 0 .5 3.5h-1zm-241 16 .5 3.5h-1zm-156 5 .5 17.5h-1zm-49 10 2.5 2.5-.5.5-2.5-2.5zm253 0 .5.5-2.5 2.5-.5-.5zm-243 8 2.5 2.5-.5.5-2.5-2.5zm195 0 .5 3.5h-1zm38 0 .5.5-2.5 2.5-.5-.5zm-189 2 .5 2.5h-1zm-38 3 4.5 4.5-.5.5-4.5-4.5zm184 0 .5 2.5h-1zm37 0 .5.5-4.5 4.5-.5-.5zm-187 3 .5 2.5h-1zm-21 9 2.5 2.5-.5.5-2.5-2.5zm195 0 .5.5-2.5 2.5-.5-.5zm-184 12 3.5 3.5-.5.5-3.5-3.5zm173 0 .5.5-3.5 3.5-.5-.5zm-167 7 2.5 2.5-.5.5-2.5-2.5zm161 0 .5.5-2.5 2.5-.5-.5zm-132 19 3.5 3.5-.5.5-3.5-3.5zm104 0 .5.5-10.5 10.5-.5-.5zm-97 7 4.5 4.5-.5.5-4.5-4.5zm88 8 .5.5-2.5 2.5-.5-.5zm-85 1 3.5 3.5-.5.5-3.5-3.5zm77 0 .5.5-2.5 2.5-.5-.5zm-69 1 3.5 3.5-.5.5-3.5-3.5zm68 6 .5.5-2.5 2.5-.5-.5zm-66 2 8.5 8.5-.5.5-8.5-8.5zm-233 21 .5 2.5h-1zm529 0 .5 2.5h-1zm-528 8 .5 13.5h-1zm527 0 .5 13.5h-1zm-247 7 .5 2.5h-1zm-273 54 2.5 2.5-.5.5-2.5-2.5zm513 0 .5.5-2.5 2.5-.5-.5zm-511 35 .5.5-2.5 2.5-.5-.5zm509 0 2.5 2.5-.5.5-2.5-2.5zm-310 123 .5.5-3.5 3.5-.5-.5zm111 0 3.5 3.5-.5.5-3.5-3.5zm-122 11 .5.5-3.5 3.5-.5-.5zm134 1 2.5 2.5-.5.5-2.5-2.5zm-217 37 2.5.5-2.5.5zm297 0 2.5.5-2.5.5z" opacity=".388"/><path fill="#bdbdbd" stroke="#bdbdbd" d="m128.5 39 .5 2.5h-1zm383 0 .5 2.5h-1zm-443 50 3.5.5-3.5.5zm500 0 3.5.5-3.5.5zm-500 18 2.5.5-2.5.5zm501 0 2.5.5-2.5.5zm-411 320 .5 3.5h-1zm323 0 .5 3.5h-1z" opacity=".996"/><path fill="#ff5b16" stroke="#ff5b16" d="m300.5 354 .5 2.5h-1zm40 0 .5 3.5h-1zm-39 5 .5 3.5h-1zm38 1 .5 2.5h-1zm-37 5 .5 2.5h-1zm36 0 .5 3.5h-1zm-35 5 .5 2.5h-1zm34 1 .5 2.5h-1zm-33 4 .5 2.5h-1zm32 1 .5 2.5h-1zm-31 4 .5 2.5h-1zm30 1 .5 2.5h-1zm-29 3 .5 2.5h-1zm28 1 .5 2.5h-1zm-27 3 .5 2.5h-1zm1 4 .5 2.5h-1zm6 17 2.5 4.5q-1 1.5-2-1z" opacity=".373"/><path fill="#fd4804" stroke="#fd4804" d="m298.5 357 1 2 1-2 .5 1.5q-2 1-1 5h2q-2 1-1 5h2l-1 5h2q-2 1-1 5h2q-2 1-1 5h2q-1.7.8-1 4h2q-1.7.8-1 4h2l-1 3 2 1-1 3h2l-1 3h2l-1 2 2 1-1 2h2l-.5 1.5 1.5.5q-2 1 0 2l1.5 3.5 1.5.5-.5 1.5 1.5.5q-2 1 0 2l.5 1.5q1-2 2 0 3 .5 3.5-1.5l-.5-1.5 1.5-.5-.5-1.5 1.5-.5-.5-1.5 1.5-.5-.5-1.5 1.5-.5-.5-1.5 1.5-.5-.5-1.5 1.5-.5-.5-1.5 1.5-.5-1-2h2l-1-3h2l-1-3h2q.8-3.2-1-4h2q.8-3.2-1-4h2q.8-3.2-1-4h2q1-4-1-5h2q1-4-1-5h2q1-4-1-5h2q.7-4.2-1-6h1l.5 1.5.5-5.5-.5-1.5q2.8 1.3 1.5 6.5l-1 1v4l-1 1-2 14-1 1v3l-1 1v3l-1 1v3l-2 6-7 15-3.5 3.5-2.5.5 2 1-1.5.5-5.5-6.5-7-15-1-6-3-8v-3l-1-1-1-8-1-1-1-10-1-1v-4q-1.7-.7-.5-2.5Z" opacity=".02"/><path fill="#251725" stroke="#251725" d="m206.5 81 2.5 2.5-.5.5-2.5-2.5zm227 0 .5.5-2.5 2.5-.5-.5zm-219 7 7.5 7.5-.5.5-7.5-7.5zm211 0 .5.5-7.5 7.5-.5-.5zm-200 11 6.5 6.5-.5.5-6.5-6.5zm189 0 .5.5-7.5 7.5-.5-.5zm-177 13 2.5 2.5-.5.5-2.5-2.5zm165 0 .5.5-2.5 2.5-.5-.5zm-347 130 7.5 7.5-.5.5-7.5-7.5zm529 0 .5.5-7.5 7.5-.5-.5z" opacity=".059"/></svg>