<svg xmlns="http://www.w3.org/2000/svg" viewBox="0 0 640 633"><path stroke="#000" d="m306.5 232 .5 2.5h-1zm-1 17 .5 2.5h-1zm-3 26 .5 2.5h-1zm-23 316h117l1 1h42l1 1h25l4.5 1.5-2 1 1 3v10l1 1v9l1 1 .5 9.5 4.5.5-6.5.5-1 1h-26l-1 1h-38l-1 1h-127l-1-1h-41l-1-1h-29l-1-1h-22l-1-1h-18l-1-1h-14l-1-1h-13l-1-1h-12l-1-1-19-1-1-1h-7l-1-1-13-1-1-1h-4l-1-1-4.5-.5 4.5-.5 1 1h11l1 1h15l1 1h25l1 1h83l1-1h20l1-1h13l1-1 17-1 1-1 9-1 3.5-2.5z" opacity=".624"/><path fill="#1d871d" stroke="#1d871d" d="m225.5 25 2.5 2.5-.5.5-2.5-2.5zm4 3q13.9 9.6 24.5 22.5l8.5 11.5 1.5.5 16 28v2l8 17 7 21v3l1 1 3 15 1 1v4l2 6v5l1 1v5l1 1v7l1 1v8l1 1v14l1 1v27l-1 3 1 1-1 3-1 20-1 1v7l-1 1q2 1 0 2l-1 13-1 1v6l-1 1v6l-1 1v6l-2.5 6.5h-16l-1 1h-23l-1 1h-36l-1 1h-113l-1-1h-28l-1-1h-17l-1-1-4.5-.5 8.5-.5 5-2h4l1-1 15-3 4-2 7-1 11-4 3 1 1.5-.5-2 3 3-1 .5 2.5 1-3 2 2 .5-.5-1-2 1.5.5 1.5-.5-2-2 .5-.5 2.5-.5-3-1 2-2-.5-.5-2 1-1-3-1.5.5-.5 2.5-2-3-.5 2.5.5 1.5-3-1q-1.5 1 1 2l1.5.5-2.5.5-1.5-2.5 3-2 8-13 31-61-2-1 1.5-2.5 2 3 .5-3.5 1.5-1.5 3 1 .5-1.5-3-1 3-2-1-3 3-4 25-50 2-2 12-25 2-2 12-25 2-2 5-10 .5-3.5 1.5-.5-1-2 3-2 19-37-10.5-8.5-2.5-2.5zM249 70l-1 3-2-2-2 1 1 2 1 1-3-2-1 2 2 1h-2l-1 2h3v1l-2 2h2l2-2v1l-1 3h2l1-3 2 3v-4l3 2v-1l-3-2 4-1-3-1h-1l3-3v-1l-3 2-1-1q2-2 0-3Zm-23 7-1 3-2-2-2 1 1 2 2 1-4 1h3v1l-3 3h1l2-1 1 1-1 2h2l1-2v3h2l1-4 1 2h1l-1-2 3-1v-1l-3-1 2-1v-1l-1-1-2 1 1-2v-2l-2 3zm40 28-1 3 1 1-3-2-1 2 3 2-4 1h4l1 2-1 3h2l1-3v2q1 2 2 1l-1-2 1-2 2 1-1-1 2-2-2-1-2-1v-4l-1 3zm6 2q-3 1-1 2h1zm-8 6q-3 1-1 2l2-1zm-19 9q-2 2 0 3l-4 1-1 2 3 1h-1q-3 1-1 2l2-1 1 1-1 2h1l2-2 1 3v-3l2-2h3l-2-1h-1l2-2-1-1-2 1 1-2v-2l-2 3-1-2zm-27 10-1 3-1-1-1-1-1 2 1 1-2-1-2 1 3 2-3 2 3 1-1 2h1l2-2 1 4 1-2 3 1-2-3h4l-3-2 3-1-3-1 2-3v-1l-3 3h-1l1-3zm61 5q-2 3 0 4h-1v2l-4 1h4l1 2-1 2 1 1 2-3v2q1 2 2 1l-1-2 1-2 2 1-2-2 3-1-2-1v-1l-1-1-1-3-1 3zm-3 2-1 2h2q1-1-1-2Zm1 6q-3 1-1 2l2-1zm-20 15-1 2 1 1-3-2-1 1 2 2-3 1 4 3-1 2 1 1 2-3 1 4v-3l3 1-1-2 3-1-2-1-2-2 1-2v-2l-2 3-1-2zm-71 5-2 3-1-1-1-1-1 2 2 2-3-2-2 1 3 2-3 2h4l-1 3 2-1 1 3 2-3v2q1 2 2 1l-1-2 1-2 2 1v-1l-2-1 3-2-3-1 1-2v-1l-2 2zm101 7-1 2 1 1-2-1-2 1 3 2-4 1h4v1l-2 2h3l-1 2h2l1-3v2q1 2 2 1l-1-3 4-2v-2l-2 1-2-5-1 2zm6 1q-3 1-1 2h1zm-1 6q-2 1 1 2h1zm-67 1-1 4-1-1q-1-3-2-1l1 2-3 1 2 1-3 2h4l-2 3h1l2-2 1 3v-2l1-1 2 2v-3l2 1-2-2 3-1-3-1-2-1zm38 14-1 3-1 1-4 1 3 2-2 1 1 1 2-1h1l-1 2 2-1 2 2v-2l4-2-1-1-1-1 2-1v-1l-3 1v-4l-1 2h-1zm28 17q-2 2 0 3h-1v2l-3 1h3l-1 3 2-1 1 3 1-3 1 3h1l-1-3 4-2-2-1 1-3-2 1-1-3-1 3zm-137 1q-2 2 1 3h1l-1-2zm37 2-2 2h-2l1 2-1-1-3 1 3 2-4 1h4l-1 3 2-1 1 3 2-3 1 2h1l-1-2h3l-3-2 3-1v-1l-1-1-2 1 2-3v-1l-2 2zm35 7-1 2-1-1-1 2-2 1 2 1-3 1 1 1 2-1-1 3 2-1 1 3v-2l3-2 2 1v-1l-2-1 2-1v-1h-1l-1-1h-1zm38 9-2 4-2-1-1 2 2 1-2 1 1 1 2-1-1 2 1 1 2-3 1 3v-2l4-2-3-1 3-2-1-1-2 1 1-2-1-1-1 2zm-115 13-1 3-2-2-1 2 2 2-3-1-1 2 4 1-3 2h3l-1 2 1 1 2-3 2 4v-3l2-2h3l-3-2 2-1v-1l-1-1-2 1 1-2v-2l-2 3-1-2zm4 9-1 2h2q1-1-1-2Zm35 2-1 3 1 1-2-1v2l-2 2h3l1 3h2l2-3 2 1-1-1 2-2-2-1q-2 0-2-3v-1l-2 2zm105 0-1 2-1-1-2 4-2 1 6 2 2-1-1-1 3-1-2-1zm-71 2-1 2-3 2-1 2 2-1v2l2-1-1 2 1 1 4-3-1-1 2-1-2-1 1-2v-1l-2 2zm-35 6q-3 1-1 2h1zm72 6-1 3-2-1-1 1 2 2-3 1 3 1h-1q-3 1-1 2l3-1 3 3-1-2 3 1-1-2 3-1-3-1 2-1q2-1 1-2l-2 1-3-1zm-106 9-1 4-1 1-4 1h4l-1 2h2l2 4 1-3 2 1-1-1 3-1-2-1h-1l2-2-1-1-2 1 2-3-1-1-1 2zm-3 2q-2 1 1 2v-1zm36 9-1 3-2-2-1 2 1 1-2-1-1 1 3 3-1 1h2l1 2 3-4zm-62 2v1h2zm89 0-1 2q-1 2-2 0l-2 1 4 6v-1l3 1-1-2 2-1-1-1 2-1-2-1zm67 9q-1 3-3 5h2l-1 2 2 3v-2h2v-1l4-2-2-1-2-4-1 2zM215.5 32l1.5 2.5-1.5.5q-3-1.5 0-3Zm3 0 .5 2.5h-1zm3 0 .5 1.5q-1 2.5-2 1zm3 2 .5.5-2.5 2.5-1.5-.5zm-11 2 2.5.5-2.5.5z" opacity=".996"/><path fill="#1d871d" stroke="#1d871d" d="m222.5 38 2.5.5-1.5 1.5q-2.5-1-1-2Zm-9 1 1.5.5q-1 2.5-2 1zm3 1 .5 1.5-2.5 1.5-.5-.5zm5 0q2.5 1 1 2l-1.5-.5zm-3 2 1.5.5q-1 2.5-2 1zm-39 38 2.5.5-2.5.5zm-1 2 2.5 1.5-1.5.5q-2.5-1-1-2Zm15 19 1.5 3.5-1.5-.5-1.5-.5zm3 0 .5 2.5h-1zm3 0 .5 2.5h-1zm2 0 2 3 1.5.5-1.5 4.5-3.5-1.5 4-1-.5-1.5-3 1-.5-.5 2-2zm-10 4 3.5 1.5-3.5.5zm3 3 .5.5-2.5 2.5q-2.5-1-1-2zm6 1 3.5 1.5-2 1-1.5 2.5-1-1-2 2-.5-.5 1.5-4.5 2 3 .5-1.5q-1.7-.7-.5-2.5Zm-5 1 .5 2.5h-3zm-21 15 1.5.5-.5 1.5q-2.5-1-1-2Zm7 0q2.5 1 1 2l-2 1-.5-1.5zm-9 2 2.5 1.5-1.5.5q-2.5-1-1-2Zm8 2q4-.5 4.5 2.5l-.5.5-2-2q-3 .5-2-1Zm-9 1 2.5.5-2.5.5zm3 2-.5 1.5-.5 1.5q-2.5-1-1-2zm6 0 2.5.5-1 1 .5 1.5-2.5-2.5zm-4 1 .5 2.5-1.5.5.5-1.5zm2 0 2.5 2.5-.5.5-1.5-.5zm-23 23 .5 2.5h-1zm5 2 1.5.5-2.5 1.5q-1.5-1 1-2Zm2 2q2.5 1 1 2l-2.5-.5zm-2 3 1.5.5 1 2-.5.5-2.5-2.5zm-7 1 1.5.5q-1 2.5-2 1zm5 0 2.5 2.5-.5.5-1.5-.5zm-8 38 4.5 2.5-.5 2.5-1.5-.5 1-2q-1-1.5-2 1l-.5 1.5zm-4 1 1 1 1.5-.5 1 3-.5.5-3.5-3.5zm-1 2 2.5 2.5-.5.5-2.5-.5 1-1zm-2 3 3.5 2.5-2.5 1.5.5-1.5-2-2zm5 3-.5 1.5-1.5 3.5-1.5-2.5zm-41 6 1.5.5-.5 1.5q-2.5-1-1-2Zm7 4 2.5.5-2.5.5zm-1 2 2.5 1.5-1.5.5q-2.5-1-1-2Zm-41 9 .5 1.5q-1 2.5-2 1zm38 18 .5 2.5h-1zm3 1 1.5.5-2.5 2.5-.5-.5zm-7 1 2.5 1.5-1.5.5q-2.5-1-1-2Zm9 1 .5 1.5-1.5.5q-1.5-1 1-2Zm-10 2 2.5.5-2.5.5zm11 1 1.5 3.5q-1 2.5-2 1l1-2-2-1zm-11 2 2.5.5-2.5.5zm8 0 1.5 2.5h-1zm-4 1-.5 1.5-.5 1.5-.5-1.5zm2 0 1.5 2.5-1.5.5zm-38 15q2.5 1 1 2l-2 1 .5-1.5zm0 4 2.5.5-2.5.5zm0 2 2.5 1.5-1.5.5q-2.5-1-1-2Zm-1 2q2.5 1 1 2l-1.5-.5zm-25 17 1.5.5-.5 1.5q-2.5-1-1-2Zm1 7-.5 1.5-.5 1.5-.5-1.5zm2 1 1.5 2.5-2.5.5.5-1.5zm-12 1 7.5.5-7.5.5z" opacity=".996"/><path fill="#927344" stroke="#927344" d="m12.5 306 2.5.5-2.5.5zm305 1 3.5.5-3.5.5zm-9 1 4.5.5-4.5.5zm-11 1 4.5.5-4.5.5zm-17 1 5.5.5-5.5.5zm-24 1 7.5.5-7.5.5zm-37 1 9.5.5-9.5.5zm109 0 .5 2.5h-1zm-88 8 4.5.5-4.5.5zm-226 28 3.5.5-2 1 5.5.5 1-1h8v1l-1.5.5 5.5.5 1-1h15l1 1h22l1 1h25l1 1 124.5.5-24.5.5-1 1-8 1-3 2h-4l-3 2q-1-2-2 0l-6 1-3 2q-1-2-2 0l-6 1-3 2q-1-2-2 0l-6 1-3 2-8 1-3 2h-4l-3 2q-1-2-2 0l-6 1-3 2q-1-2-2 0l-6 1-3 2q-1-2-2 0l-6 1-3 2-8 1-3 2h-4l-3 2q-1-2-2 0-1.8 1.7-6 1l-3 2q-1-2-2 0l-6 1-3 2q-1-2-2 0l-6 1-3 2-8 1-3 2-8 1-3.5 2.5-1.5 2.5.5-1.5-.5-5.5-1.5-.5 1-5-2-1 1-3-2-4v-6l-1-1v-6l-1-1v-6l-1-1v-6l-1-1v-7q-1.7-.7-.5-2.5Zm284 97 1.5 3.5h-2v6l1 1h-2v6l1 1h-2v6l1 1h-2q-.8 4.8 1 7h-2q-.8 4.8 1 7h-2q-1.2 4.7 1 6l-2 1 1 7-2 1 1 6-2 1 1 6-2 1 1 6-2 1 1 6-1 1q1.2 4.7-1 6v6l-1 1v6l-1 1v6l-1 1v6l-1 1q1.3 4.8-1 6v6l-1 1v6l-1 1v6l-1 1v6l-1 1v6l-1 1v6l-1 1-.5 5.5-5 2h-4l-1 1h-6l-1 1h-9l-1 1h-11l-1 1h-17l-1 1h-13l-2-1-1 1h-13l-1 1h-36l-1-2h-24l-1 1h-13v-1l2.5-.5-15.5-.5-1 1h-7v-1l3.5-.5-12.5-.5q-1 2-5 1v-1l2.5-.5-9.5-.5q-.7 1.8-4 1v-1l3.5-.5-7.5-.5-2 1v-2h-5l-3.5-1.5.5-1.5 1 1h8l1 1h14l1 1h17l5-4 3-1 5-4 40-24 5-4 3-1 5-4 32-19 5-4 3-1 5-4 32-19 44.5-28.5 1-10 1-1v-5l2-6v-6l2-5q-2-1 0-2l.5-3.5 7.5-4.5v-6z" opacity=".996"/><path fill="#927344" stroke="#927344" d="m290.5 451 .5 2.5h-1z" opacity=".996"/><path fill="#a58353" stroke="#a58353" d="m326.5 306 2.5 3.5-1 3 1 3-1 1v11l1 3-.5 14.5-1.5-.5-.5 1.5q-1.5-2.5-3 1l-4-1-2 2q-3.7-.7-4.5 1.5l1 5-2 1 1 6-2 3 1 3-1 1v6l-1 1v6l-1 1v6l-1 1-1 13-1 1q1.3 4.7-1 6v6l-1 1-1 13-2 6q2 1 0 2l-1 10-1 1q2 1 0 2 1 4-1 5 2 1 0 2 1 4-1 5 2 1 0 2 1 4-1 5 2 1 0 2l-.5 3.5-.5-5.5 1-1 1-13-1.5.5-6.5 3.5q.8 3.3-1 4 2 1 0 2 .8 3.3-1 4v6l-1 1-1 10-1 1v5q-2 1-1 5l-1.5 1.5-30 18-5 4-3 1-5 4-8 4-37 24-8 4-37 24-8 4-45 29h-17l-1-1h-14l-1-1h-8l-1-1-.5 1.5 3.5 1.5 5.5.5-5.5.5-3-1-2.5-2.5v-8l-1-1v-6l-1-1q1.2-4.7-1-6v-6l-1-1v-6l-1-1v-6l-1-1v-6l-1-1-1-14-1-1v-6l-1-1v-6l-1-1v-6q-1.7-.7-1-4l1-2q-2.5-.5-2-4l1-3q-2.5-.5-2-4l1-3q-2.5-.5-2-4 1.8-.7 1-4l-2-3q1.8-.7 1-4-2.5-.5-2-4l1-3-2-3q2-1 1-5l-2-1q1.7-1.8 1-6l-2-1 1-7h-2l1-7-2-1q1.7-1.8 1-6l-2-1q1.7-1.8 1-6l-2-1q1.8-2.2 1-7h-2q1.8-.8 1-4-2.5-.5-2-4l1-2-2-3v-6l-1-1v-6l-1-1q2-1 0-2 1-4-1-5l1.5-.5 1 6 2-3 6-2h4l7-3h4l3-2h3l4-2q1 2 2 0l9-3q1 2 2 0 1.8-1.7 6-1l3-2q1 2 2 0 1.8-1.7 6-1l7-3h4l3-2h3l4-2q1 2 2 0l9-3q1 2 2 0l9-3q1 2 2 0 1.8-1.7 6-1l7-3h4l3-2h3l4-2q1 2 2 0l9-3q1 2 2 0l9-3q1 2 2 0 1.8-1.7 6-1l7-3h4l1-1 24.5-.5-30-1 19-1v-28l-1.5-1.5-5 1-1-1-7.5-.5 6-6-.5-1.5h22l3-2h34l1-1h21l1-1h15l1-1h10l1-1h7zM241 320v1h4zm-23 2v1h5zm10 0v1h4zm-12 29v1h11zm83 94-1 3h1zm-1 3-1 7h1zm-7 3-1 3h1zM136.5 313l45.5.5-45.5.5zm-118 35 2.5.5-2.5.5zm13 1 5.5.5-5.5.5zm20 1 7.5.5-7.5.5zm23 1 7.5.5-7.5.5zm26 1 19.5.5-19.5.5zm-79 41 .5 3.5h-1z" opacity=".996"/><path fill="#a58353" stroke="#a58353" d="M294.5 476q2.7 1.3.5 2.5l-.5 3.5zm-1 7 .5 5.5h-1zm-1 7 1.5.5-1.5 4.5zm-1 8 .5 3.5h-1zm-1 7 .5 3.5h-1zm-1 7 .5 2.5h-1zm-1 7 .5 2.5h-1zm-225 97h7l1 1 9.5.5-9.5.5-1-1h-7zm20 2 12.5.5-12.5.5zm17 1 15.5.5-15.5.5zm27 1 24.5.5-24.5.5z" opacity=".996"/><path fill="#71c371" stroke="#71c371" d="M156.5 0h16l1 1h6l1 1h4l1 1h3l12 4 16 8 9 6L246 39.5l7 8-.5.5-14-14-18-13-19-9-6-2h-3l-1-1-9-1-1-1h-24l-1 1h-5l-1 1-7 1-9 3-3 2h-2l-8 4-14 9L88 45.5l-14 17-11 17-10 19v2l-3 5-5 15-2 3-2 6v3l-3 7-3 15-1 1-2 14-1 1v5l-1 1-1 14-1 1v10l-1 1v23l-1 2 1 1v25l1 1v10l1 1v7l1 1v6l1 1v6l1 1 2 14 2 5-1.5.5-2.5-5.5v-3l-3-9v-4l-2-6v-5l-1-1v-6l-1-1-1-17-1-1v-16l-1-1v-22l1-1v-16l1-1v-9l1-1v-7l1-1v-5l1-1q-1.3-4.7 1-6v-5l1-1v-4l1-1v-3l1-1 3-15 8-24 5-10v-2l16-30 13-18L91.5 31l21-16 16-8 12-4 8-1 1-1h6z" opacity=".996"/><path fill="#71c371" stroke="#71c371" d="M160.5 13h6l1 1h9q1 2 5 1l1.5 1.5.5 1.5 1-3 2 1 1-2 1 4 1-2 1 2q6.1.9 9.5 4.5l-1.5-.5q-4-.5-4.5 2.5-1.2 5.8-5.5 8.5l-6 5q-1.2-2.2-2.5.5l3 2-4 1 2 2-.5.5-1.5-.5-1-4-1.5-1.5-2.5.5q-.5 4 2.5 4.5l1.5.5-.5 2.5-1.5-.5-.5-2.5-1.5.5 1 2-2 1-2 4-8.5 8.5-3.5 2.5-6.5 7.5-5.5 4.5-4.5 5.5-8.5 7.5-2.5 3.5-9 8h-3l-1-2q-1.2 2.3-2.5-.5l-.5-1.5-3.5 1.5 1 2-1 1 .5 1.5-1.5-.5.5 3.5 1-2 1.5.5.5 1.5 1-2 1.5.5v2l-3.5 3.5-2.5 1.5q-1.5 6.5-6.5 9.5l-7.5 6.5 1 2-2 1 2.5 3.5 1.5.5-2.5.5-2-3-2.5 1.5-.5 1.5-1-2-3 2-1-2-.5 2.5 2.5 1.5 3-1 1.5.5-2 1 2 1q-1 2.5-2 1l-.5-1.5-2 1-1-2L73 147.5l-7.5 8.5-5.5 4.5-5.5 6.5-6.5 5.5 1 2-2.5.5-3-3-3 3q-1.2-2.3-2.5.5l3 1q-.5 3 1.5 3.5l3-2 2.5 3.5q-1 1.5-2-1l-.5-1.5-1 5-3-4-3.5 1.5 1 2-4 3-.5 1.5-.5-8.5 1-1 1-12 1-1v-3l1-1 3-15 6-18 6-13v-2l9-19 2-2 9-17 8-11L105.5 39l1.5-.5.5-1.5 2.5 1.5-2 2 .5.5 2-1 .5 1.5-.5 1.5 1.5-.5.5-2.5 1 3 1.5-.5-1-2 1.5.5 1.5-.5-2-2 .5-.5 2 1 .5-1.5-2-1 .5-1.5-2 1 .5-1.5-.5-1.5-1.5.5 1.5-1.5 1.5.5 1.5-2.5 15-9h2l5-3 7-2 .5 2.5h-1l-.5-1.5-1.5.5.5 1.5-1.5.5.5 1.5-1.5.5 2 1-1 2 .5.5 2-2 2 2 .5-.5 1.5-2.5 1.5-.5-2-1 2-2-.5-.5-2 1-.5-3.5 4.5-1.5h7zm25.5 4-3 3 4 2q2 0 1-3zm4 2v3l2-1zm0 4-1 2q1 1 2-1zm-17 14q-3 1-1 2h1zm0 6-1 3h1zm-29 10-3 2v2l-1-1-1 2 2 1-2 1 2 2v-1h2l2-1 2 1 1-2-1-1v-1zm1 8-1 2q1 1 2-1zM83 71q-2 2 0 4l-1 1-4 1 4 1h-1q-3 1-1 2l2-1 1 3v-1l2-1 1 2v-2l3-2v-1l-3-2 1-2v-2l-2 3zm6 2q-3 1-1 2h1zm25 19q-3 1-1 2h1zm3 1-1 1 2 2 1-2zm-54 13v3l-4 2h3l-1 2 3 1 2-1-1 2 1 1 2-3 2-1-4-1 2-1q2-1 1-2l-2 1-1-3-1 3-1-2zm-2 1-1 2h2q1-1-1-2Zm34 18-1 2-3 1 2 2 3-4zm-5 3-2 2h3q1-1-1-2Zm-39 10-1 3q-1 2-2 0l-2 2h3l-1 2 3 1 2-1 2 1 1-2-3-1q1-3 3-1v-1q-1-3-2-1zm-2 8q-2 1 1 2v-1zm4 0-1 2q1 1 2-1zm-6 25v3h1zm-9 7-1 1 3 1v-1z" opacity=".996"/><path fill="#71c371" stroke="#71c371" d="m111.5 32 .5 2.5h-1zm-3 2 1.5.5-.5 2.5-1.5-2.5zm109 1 2.5.5-3 1-.5 1.5-2.5-.5zm0 4 3.5 2.5-.5 1.5-1-2-1.5.5-.5 1.5zm5 0q2.5 1 1 2l-1.5-.5zm-24 15 1 2 1-2 .5 1.5-.5 1.5 2-1 .5.5-2 2 1 3h-2l-.5 1.5-1-2-2 2-.5-.5 1-2-1.5.5-1.5-.5 2-1-.5-1.5-1.5-.5 2-1-.5-1.5 2 1zm-1.5 3v3h3v-2zm-30.5 2 .5.5-7.5 7.5-.5-.5zm79 13 2 2 .5-.5.5-1.5 1 2 2-1 .5.5-2 2-.5 3.5-1.5-.5q1.8-.7 1-4l-1.5.5-2-1-2 1v-1l1.5-.5zm-69 3 1 3 2-2 .5.5-2 2 .5.5 2.5.5-2.5.5q-3.7-1.2-2-5Z" opacity=".996"/><path fill="#71c371" stroke="#71c371" d="m174.5 76 .5 2.5-2.5.5q-2.5-1-1-2l2 1zm69 0 2.5.5 1 2-3.5 1.5.5-1.5-1-1zm-18 2 .5 3.5q-.7 2.3-4.5 1.5v-1l3.5-.5zm3 1-.5 1.5 1.5 2.5 1.5.5-.5 1.5-2.5-1.5-1-3zm-57 1 3.5.5 1 4h-1q.5-3-1.5-3.5-3 .5-2-1Zm6 1 2.5.5-2 1 1 2q-1 1.5-2-1zm-36 3 .5.5-8.5 8.5-.5-.5zm82 0 3.5 1.5 1 2-.5.5-3-3-2 1q-1.5-1 1-2Zm-105 15q1 2 2 0l1.5.5-2 1-1.5 2.5.5-1.5zm28 1 1 2 2-2 .5.5-1.5 2.5-1.5.5 1 6h-1l-.5-2.5-2 2-.5-.5 2-2-.5-.5-2.5-.5 3-1-2-2 .5-.5 2 1-.5-1.5zm49 3 1 1 1.5-.5-2 4q1.5 3 3 0l.5-1.5 2.5.5-2 1 2 1-1.5.5-1.5-.5 1 2-1.5-.5-2-1-2 2-.5-.5 1-2-2-1 2-1-.5-1.5 1.5.5zm-45 1 2.5.5-2 1 2 1-1.5.5-1.5-.5 1 2q-1 1.5-2-1zm115 2 1.5 2.5-1.5 3.5-3.5-.5 3-1-2-2 .5-.5 2 1-.5-1.5zm3 3 3.5 1.5-2 1 .5 1.5 1.5.5-1.5.5-1.5-.5-.5 1.5-.5-2.5 1-2zm-23 14 2 3 2-1q1.5 1-1 2l-3.5-1.5zm-66 3-.5 1.5.5 1.5 1.5-.5-1 1 .5 1.5-1.5-.5-1-3zm-5 1 2.5 1.5q-.5 2-3.5 1.5v-1l1.5-.5zm68 0 1.5.5 1 2-.5.5-2.5-2.5zm5 1 3.5.5-4 1-.5 1.5-.5-1.5zm-73 3 3.5 1.5-.5 2.5-1-2-1.5.5zm-79 2 3.5 1.5-1.5.5-2.5-1.5zm120 1 1 2 1-2 1 2 2-1v2l1.5.5-2 1 .5 1.5-1.5.5.5 1.5-2.5-1.5 3-3-.5-.5-3.5.5-.5 1.5-1-2-1.5-.5 2-1zm-120 1q2.5 1 1 2l-1.5-.5zm183 3 1 2 1.5-.5.5-1.5.5 1.5-.5 1.5 3.5 1.5-2 1 .5 1.5 1.5.5-1.5.5-1.5-.5-.5 1.5-.5-2.5 1-2-2.5-1.5-2 1q-2.5-1-1-2l2 1-.5-1.5z" opacity=".996"/><path fill="#71c371" stroke="#71c371" d="m275.5 143 3.5.5-3.5.5zm-149 1q2 .5 1.5 3.5l-1.5 2.5-2.5-.5 2-1-2-2 .5-.5 2 1-.5-1.5zm3 0 1 3 2-2 .5.5-2 2 .5.5 2.5.5-2.5.5-2.5-1.5zm1 6q3-.5 3.5 1.5l-1.5.5-1.5-.5 1 2-3-1-.5 1.5-.5-2.5zm26 7 1 2 1.5-.5.5-1.5.5 1.5-.5 1.5 2-1-1 3 1.5.5-2 1 .5 1.5-2-1-1 2-1-2-1 2-.5-1.5.5-1.5-2 1-.5-.5 2-2-1-3h2zm.5 3v3h3l-1-2zm-76.5-2 1 2 2.5.5-4 2 1 3-1.5.5-.5-3.5zm5 2 1.5.5-2 2 .5.5 2.5.5-2.5.5q-2.7-1.2-.5-2.5zm-8 2 .5 1.5-1.5.5q-1.5-1 1-2Zm180 1 3 1 1.5-.5-2.5 1.5-2.5-1.5zm-2 2 1.5 3.5q-1 2.5-2 1l1-2-1.5.5-1.5-.5 2-1zm4 1 .5 1.5-1.5 3.5-.5-3.5zm-177 1 1.5.5-.5 1.5q-2.5-1-1-2Zm100 0 1 2 1.5.5-2 1-1 2 3.5.5 1-2 1.5.5-.5 1.5 1.5.5-2 1-.5 1.5-1-2q-3.3-.7-4 1v-2l-1.5-.5 2-1-2-2 .5-.5 2 1-.5-1.5zm104 5 1.5 3.5-1 3 2.5.5 1-2 1.5.5q-.5 3-4.5 2.5-4.7-2.2-.5-4.5z" opacity=".996"/><path fill="#71c371" stroke="#71c371" d="m289.5 172 .5 3.5h-1zm-246 2 2.5 2.5-.5.5-2.5-2.5zm5 3 1.5.5q-1 2.5-2 1zm-8 5 1.5.5q-1 2.5-2 1zm74 0q2 .5 1.5 3.5l-1 2q2.5.5 2 4h-1q.5-3-1.5-3.5l-2.5-.5 2-1-2-2 .5-.5 2 1 .5-1.5z" opacity=".996"/><path fill="#71c371" stroke="#71c371" d="m117.5 182 1 3 2-2 .5.5-2 2 .5.5 2.5.5-3.5.5q-2.4-1.8-1-5Zm107 0 1 2 1.5-.5-.5 1.5 1.5.5-2.5.5-2-1q-3.2 1.8.5 3.5l-.5 2.5-1-3-1.5.5q2-1 0-2l-1-2 1.5.5 1.5-.5-.5-1.5 1.5.5z" opacity=".996"/><path fill="#71c371" stroke="#71c371" d="m225.5 187 1.5.5-1.5 2.5zm-107 1q3-.5 3.5 1.5l-1.5-.5-1.5.5-.5 1.5zm-46 4 1 3 2-3 2 5 1.5.5-.5 1.5-1.5.5 1 2h-1l-1-4-1.5-1.5-2.5.5 1 3h-2l-.5 1.5-1.5-.5q2.8-.7 2-5l-2-1 1.5-.5 1.5.5zm190 2 1 3 1.5-.5.5-1.5 1 2 1.5.5-2 1-.5 1.5-1-2-2.5.5.5 2.5 1.5.5 1 2-3-1-.5 1.5-1-2-1.5-.5 2-1v-3zm-112 11 1 2 1.5-.5-.5 1.5 2-1q1.5 1-1 2l-3.5-1.5z" opacity=".996"/><path fill="#71c371" stroke="#71c371" d="m147.5 206 1.5 1.5q-2 1 0 2l.5 1.5 5-1v1l-1.5.5.5 1.5-1.5-.5-.5 1.5-1-2-2 2-.5-.5 1-2-1.5.5-1.5-.5 2-1-.5-1.5-1.5-.5 2-1zm-110 5 3.5 2.5.5 1.5 1-2 1.5.5q-2.2 4.8-4.5.5l-2.5 1.5 1 3-1.5.5-.5-3.5zm256 1 1 2 2-1-1 3 1.5.5-2 1 2 1-1.5.5q-1-2-2 0l-1.5.5-.5 1.5-1.5-2.5 1.5.5 1-1 1.5-.5-.5-3.5q-1.2 2.3-2.5-.5h2zm-260 3 1.5.5-.5 1.5-1.5-.5z" opacity=".996"/><path fill="#71c371" stroke="#71c371" d="m290.5 215 .5 1.5-2.5.5v-1zm-103 1 1.5 2.5-2 2 .5.5 3.5-.5.5-1.5 1.5.5-1 1 .5 1.5q-1-2-2 0-3.2-.8-4 1v-2l-1.5-.5 2-1-.5-1.5 1.5-.5z" opacity=".996"/><path fill="#71c371" stroke="#71c371" d="m190.5 216 1 1 1.5-.5-1.5 1.5q-2.5-1-1-2Zm-81 1 1 1 1.5-.5.5 1.5 2-2 .5.5-2 2 .5.5 2.5.5-2 1 .5 1.5-1.5.5.5 1.5-1.5-2.5 1-2-2.5-1.5-.5 3.5 1 3h-1l-.5-2.5-1.5.5.5-1.5-2.5-.5 3-1-2-1 3-1zm-70 3 1.5.5-.5 1.5q-2.5-1-1-2Zm184 2 .5 1.5q-2 1 0 2l1 2-2.5 1.5v-2l-1.5-.5 2-1-2-1 2-1z" opacity=".996"/><path fill="#71c371" stroke="#71c371" d="m225.5 222 1 2 1.5-.5-.5 1.5 1.5.5-1.5.5q-3.6-1.1-2-4Zm1 5 1.5 2.5q-1 1.5-2-1zm-155 4 .5 1.5-3.5 2.5v-1l2.5-1.5zm1 3 1.5.5-1 1 2 2-.5.5-3.5.5-.5 1.5-3 2-.5-1.5 4-3zm188 0 1.5.5 1 3q-1 2.5-2 1l1-2-2-2zm5 1 3.5.5-4 2-.5 1.5-.5-2.5zm-201 1 3.5.5-3.5.5zm82 10 5 2 2-1v1l-1.5.5.5 1.5-1.5-.5-.5-1.5-2.5.5.5 2.5 1.5.5-.5 1.5-1-1-1.5.5.5-1.5-1.5-.5.5-1.5-1.5-.5 2-1zm-35 6 1 2 1.5-.5-.5 1.5 2.5.5-3.5.5q-2.5-1-1-4Zm-73 1 3 4 1.5-.5.5 1.5 2.5 1.5-3 1 2 2-.5.5-2.5-1.5q.8-3.7-1.5-4.5l-2-1-.5 3.5 4 5q-1 1.5-2-1l-.5-1.5-1.5-.5-.5-1.5-1 2-1.5-.5q2.5-.5 2-4l-2-2 .5-.5 2 1zm69 1 3 4 3-1q2.5 1 1 2l-1.5-.5-.5 1.5-1.5-.5-.5 1.5-1-3-2 2-.5-.5 2-2-.5-.5-1.5-.5 1-1zm187 2q1.5 1-1 2l-1.5-.5zm-106 1 1.5.5-2 1-.5 1.5-.5-1.5zm32 1 2.5.5-3 1-.5 1.5-.5-1.5zm-29 1 .5 1.5-2.5 1.5v-1l1.5-.5zm102 0q2.5 1 1 2-1-2-2 0l-1.5-.5zm-32 11-.5 1.5.5 1.5 1.5-.5-.5 1.5 1.5.5-1.5.5-2.5-3.5zm-5 1 2.5 4.5-.5.5-2-2-1.5-.5 2-1zm-184 3 .5 1.5-1.5.5q-1.5-1 1-2Zm-6 2 3.5 1.5-1.5 2.5-3.5-.5.5-1.5 1.5-.5zm5 1 1.5.5q-.7 4.3 2 5l-1.5.5-1.5-.5-.5 2.5-1-3-2 3-.5-1.5 1.5-2.5 2.5-.5zm-5 4 .5 1.5-1.5.5q-1.5-1 1-2Zm88 0q2.5 1 1 2l-1.5-.5zm-3 2 2.5 3.5h-3q2-1 0-2zm-38 8 1 2q1-2 2 0l2-1q1.5 1-1 2l-3.5.5-.5 1.5-1-2-1.5-.5 2-1zm70 0 .5 1.5-1.5.5q-1.5-1 1-2Zm27 0 1 1 1-1 1 1 1.5-.5-1.5 2.5-2-1-1 2-.5-1.5 1-1zm-24 2 .5 1.5-2.5 1.5v-1l1.5-.5zm-70 3 1.5.5q-1 2.5-2 1zm-67 2 1 2 1.5-.5.5-1.5 2 5 1.5.5-.5 1.5-1.5.5.5 1.5-3.5-1.5 3-1-1.5-3.5-2 1q-2.5-1-1-4Z" opacity=".996"/><path fill="#71c371" stroke="#71c371" d="m46.5 300 1.5.5 2 5-3.5 1.5v-1l1.5-.5v-3l-2-2zm237 1v5q-1-2-2 0l-1.5-.5 2-1q-.5-3 1.5-3.5Zm-242 8 3.5.5-3.5.5zm12 1 2.5.5-2.5.5zm15 1 3.5.5-3.5.5z" opacity=".996"/><path fill="#c19b64" stroke="#c19b64" d="m87.5 312 7.5.5-7.5.5zm31 1 17.5.5-17.5.5z" opacity=".996"/><path fill="#c19b64" stroke="#c19b64" d="m182.5 313 44.5.5-23 1 1 1-6 6 .5.5h7q.8 1.7 4 1l2-1 1.5 1.5v28l-18.5.5-1 1h-74l-1-1h-37l-1-1h-22l-1-1h-21l-1-1h-15l-1-1h-8q-1.3-2.3-6-1L4 344.5l1-2 .5-27.5h6l1 1h9l1 1h9l1 1h10l1 1h10l1 1h15l1 1h30l1 1h21v-1l-4.5-.5 4-4-.5-.5-6.5-.5 32.5-.5 1-1h33z" opacity=".996"/><path fill="#c19b64" stroke="#c19b64" d="m117.5 318 .5.5-2.5 2.5-.5-.5zm100 4 5.5.5-5.5.5zm10 0 4.5.5-4.5.5zm86 27 .5 2.5h-1zm-98 2 11.5.5-11.5.5zm97 4 .5 3.5h-1zm-286 74 1.5 4.5v5h-1q.8-3.2-1-4 2-1 0-2zm2 12 .5 4.5h-1zm0 7 1.5.5-.5 4.5zm1 7 1.5.5-.5 4.5zm2 7 .5 4.5h-1l-1-3zm0 8 1.5.5-.5 4.5zm2 7 .5 4.5h-1zm1 8 .5 2.5h-1zm1 7 .5 3.5h-1zm1 7 .5 3.5h-1zm1 8 .5 2.5h-1zm1 7 .5 2.5h-1z" opacity=".996"/><path fill="#e8f1e3" stroke="#e8f1e3" d="M186.5 18q3 1.5 0 3l-1.5-.5zm-40 2 1.5.5-.5 2.5-2.5-1.5zm-35 16q3-.5 3.5 1.5-.5 2-3.5 1.5zm107 0 1.5 2.5-1.5.5q-3-1.5 0-3Zm-43 3 1.5.5-.5 1.5-2.5-.5zm-32 17 1.5 2.5q-1.5 3-3 0zm-60 19 2.5 1.5-.5 1.5-2.5-.5zm164 0 1.5 2.5-2.5.5-.5-1.5zm-72 4 1.5.5-.5 1.5-1.5-.5zm50 3 2.5 1.5q-1.5 3-3 0zm-112 14 2.5.5-1.5 2.5q-2.4-.9-1-3Zm34 8 2.5.5-2.5 1.5zm49 2 2.5.5-.5 1.5-2.5-.5zm-132 3 1.5 2.5-2.5 1.5-.5-2.5zm202 1 2.5.5-1.5 2.5q-2.4-.9-1-3Zm-21 16 1.5 2.5-1.5.5q-3-1.5 0-3Zm-69 3 1.5.5-.5 1.5-1.5-.5zm-82 1 1.5.5-.5 2.5-2.5-.5zm-43 11 1.5 2.5q-1.5 3-3 0zm228 1 2.5.5-1.5 2.5q-2.4-.9-1-3Zm-151 6 1.5.5-.5 1.5-1.5-.5zm-47 14 1.5.5-.5 2.5-2.5-1.5zm176 2 1.5.5-.5 2.5-2.5-1.5zm-215 12 2.5.5-1.5 2.5-1.5-.5zm245 0 2.5.5-1.5 2.5q-2.4-.9-1-3Zm-64 9 1.5.5-.5 1.5-1.5-.5zm-107 1 1.5.5-.5 1.5-1.5-.5zm-43 10 1.5 2.5-2.5.5-.5-1.5zm189 2 2.5 1.5-.5 1.5-2.5-1.5zm-112 10 1.5 2.5-1.5.5zm-112 7 1.5.5-.5 2.5-2.5-1.5zm254 0 1.5.5-1.5 2.5q-3-1.5 0-3Zm-104 4 2.5.5-.5 1.5q-3.8-.7-2-2Zm-78 1 2.5 1.5-2.5.5zm114 5 1.5.5-.5 1.5-1.5-.5zm38 9 2.5.5-.5 1.5q-3.8-.7-2-2Zm-193 1 1.5 2.5-2.5.5-.5-1.5zm79 13 2.5 1.5-2.5.5zm-38 7 1.5.5-.5 1.5-1.5-.5zm-71 2 1.5 2.5-2.5.5.5-1.5zm252 1 1.5.5-.5 1.5-1.5-.5zm-70 1q2.5 1 1 2l-2.5-.5zm37 14 2.5.5-.5 1.5-2.5-.5zm-189 5 2.5 1.5q-1.5 3-3 0zm142 15 1.5.5-.5 1.5-1.5-.5zm-161 9 1.5.5-.5 2.5-2.5-1.5zm-49 4 5.5.5-5.5.5zm7 1 8.5.5-8.5.5zm10 1 7.5.5-7.5.5zm11 1 4.5.5-4.5.5zm-28 9 .5 15.5H1z" opacity=".996"/><path fill="#72d772" stroke="#72d772" d="m150.5 0 5.5.5-5.5.5zm23 0 4.5.5-4.5.5zm-28 1 3.5.5-3.5.5zm35 0 3.5.5-3.5.5zm5 1 2.5.5-2.5.5zm-48 1 2.5.5-7.5 2.5V5zm52 0L200 6.5l-1.5.5-9-3zm-63 4 1.5.5-14.5 7.5q-1.5-1 1-2zm75 0 12.5 6.5-1.5-.5-11-5zm-90 8q1.5 1-1 2-10.6 5.4-18 14l-.5-.5 6.5-6.5zm116 7 2.5 2.5-.5.5-2.5-2.5zm4 3 4.5 4.5-.5.5-4.5-4.5zm-141 6 .5.5-6.5 6.5-.5-.5zm-8 8 .5 1.5-6.5 6.5-.5-.5zm165 2 4.5 4.5-.5.5-4.5-4.5zm-172 7 .5.5-3.5 3.5-.5-.5zm178 0 3.5 3.5-.5.5-3.5-3.5zm-182 5 .5.5-2 2-2.5 3.5-.5-.5 2-2zm-9 13-.5 1.5-1.5 2.5.5-1.5zm-3 5-.5 1.5-1.5 2.5.5-1.5zm-4 7-.5 1.5L47.5 95l-.5-1.5zm-9 18 .5 1.5-2.5 4.5-.5-1.5zm-7 18 .5 1.5-1.5 2.5-.5-1.5zm-3 8 .5 2.5h-1zm-3 10 .5 2.5h-1zm-1 4 .5 2.5h-1zm-1 4 .5 2.5h-1zm-1 4 .5 2.5h-1zm-1 4 .5 2.5h-1zm-1 4 .5 3.5h-1zm-1 6 .5 3.5h-1zm-1 5 .5 4.5h-1zm-1 6 .5 4.5h-1zm-1 6 .5 6.5h-1zm-1 10 .5 6.5h-1zm-1 11 .5 12.5h-1zm0 36 .5 13.5h-1zm1 17 .5 7.5h-1zm1 10 .5 6.5h-1zm1 8 .5 4.5h-1zm1 7 .5 3.5h-1zm1 6 .5 2.5h-1zm1 5 .5 3.5h-1zm1 5 .5 2.5h-1zm1 4 .5 2.5h-1z" opacity=".424"/><path fill="#735f39" stroke="#735f39" d="m14.5 350 .5 5.5h-1zm1 8 .5 4.5h-1z" opacity=".392"/><path fill="#442d23" stroke="#442d23" d="m28.5 300 2 1 1.5-.5v3l2 4-9.5.5-1-1h-8l-1-1h-9L3 304.5l7.5-2.5 17-1zm271 0 3 1 17 1q1.3 2.2 6 1l2.5 1.5-.5 1.5q-3.2-.7-4 1h-6l-1 1h-8l-1 1h-10l.5-1.5zm-283 49 5.5.5-5.5.5zm13 1 5.5.5-5.5.5zm249 244 .5 3.5h-1zm-1 7 .5 2.5h-1zm-1 7 .5 2.5h-1zm-10 8 2.5.5-2.5.5zm-202 1 2.5.5-2.5.5zm195 0 3.5.5-3.5.5zm-187 1 5.5.5-5.5.5zm177 0 5.5.5-5.5.5zm-165 1 7.5.5-7.5.5zm153 0 7.5.5-7.5.5zm-137 1 12.5.5-12.5.5zm119 0 11.5.5-11.5.5zm-93 1 25.5.5-25.5.5zm63 0 20.5.5-20.5.5z" opacity=".973"/><path fill="#3ea63e" stroke="#3ea63e" d="M157.5 7h24l1 1h4l1 1 8 1 9 4h2l14 7 4.5 3.5.5 1.5q1.5-2.5 3 1l3.5 2.5-.5 1.5 2-1 3.5 3.5-1 1 3.5 3.5 1.5-.5-3-3 .5-.5L256 51.5l7 10h-1q-6.8-11.2-16.5-19.5-1.2 2.3-2.5-.5 2.3-1.2-.5-2.5L223 76.5l1.5 4.5-1-1-1.5.5.5-1.5-1.5.5-.5 1.5-1.5.5v3l-5 10-2 2-12 25-2 2-12 25-2 2-28 55 1 2-3.5 2.5v-2l-1.5-.5 1.5-.5 1.5.5-.5-3.5-1 2-1.5-.5 2-2-.5-.5-2.5.5-2 3q2.5 1.5-1 3l-.5 1.5-2-1 1 3-1.5.5 1.5 2.5 1-2 1.5.5-.5 1.5 1.5.5-31 61-7 11 2 2-3.5 3.5-1.5-.5.5 1.5h2l3.5-3.5.5-2.5 1.5.5.5 2.5 2-1v1l-3 1-1-1-2.5 2.5 1.5 2.5 3 1 .5-1.5-1-2 3.5-.5v1l-2.5.5 2 2-.5.5-1.5.5-.5 1.5-2-2-.5.5-.5 2.5-1-4-2 3-.5-1.5.5-1.5-3-1-11 4-7 1-4 2h-3l-1 1h-3l-9 3h-4l-5 2h-8l-1 1q-3-1.5 0-3l1 1 2.5-2.5v-3l-3.5-4.5-1.5.5-.5 1.5-1-2-3.5 2.5 1 2-2 1 2 2q-2 1 0 2l.5 1.5 1.5-.5-.5-1.5q3 1.5 0 3l-3.5-.5.5-1.5q-6.2-1.2-9 1l-3.5-2.5.5-1.5 1 2 1.5-.5-2-5-2-14-1-1-1-13-1-1v-7l-1-1v-10l-1-1v-25l-1-2 1-1v-23l1-1v-10l1-1v-7l1-1 1-12 1-1v-4l1-1v-4l1-1v-4l1-1 3-15 9-27 3-5 3-9 13-24Q78.6 54 95.5 38l12-10 14-9 13-6 9-3 7-1 1-1h5zm3.5 6-1 1h-7l-5 2h-3l-10 5h-2l-9 5-11 8-1-2-1 2-3 1 1 2h-1l-1 2h-1L81 65l-8 11-9 17-2 2-9 19v2l-6 13-6 18-3 15-1 1v3l-1 1-1 12-1 1 1 8v-1q2-1 0-2h2l2-1-1-2 2-1h1l-1 2 1 1 2-3 2 3v-3l3 1-2-3 2-1q1 2 2 0l-4-1 3-2v-2l-2 1-2 1 2-4 1 2 7-6 5-6 6-5 7-8 16-14-2-1q-1-4 3-5l2 3-3-1-1 2 4 1-3 2 1 1 2-1h1l-1 2 2-1 3 1-1-1h2l1-2-2-1 3-1v-1q-2-1 0-2l-1-1-2 1 1-2-1-2 8-7q4-3 6-9l3-2-1-1h2q3 0 2-4v-2l3 2v-1l-3-2 6-1 9-8 2-3 9-8 4-5 6-5 6-7 4-3-1-1h2l9-10-1-4q1-3 2-1l-1 3h2l1-3v3h2v-4l3 2-2-2 4-1-3-2q1-3 3-1l6-5q4-3 5-8 1-3 5-3l-8-4-3-4-1 2-2-1-1 2-2-2q-5 1-5-1h-9l-1-1zm55 19-3 5 4 2-2 3 4 2 4-2 2-3-3-4-1 1v-1q-2-5-4-1v-1zm-2 7-1 2q1 1 2-1zm-14 14-2 3h-1q-2-2-3 1l1 1 2-1-1 2 1 3 2-1 1 2 2-1-1-3 3-1-1-2zm-6 6-1 1 3 3h1l-1-2zm9 0-1 2h2q1-1-1-2Zm-27 16-5 6q1 2 3 0 2 1 0 3l2 1 6-4-2-3-1 1q-2 0-2-3zm-29 25q-3 1-1 2l2-1zm3 0v3q1 1 2-1zm-1 1-3 2v2l-3 1 3 2 1-1-1 2 2 1v-2h2l2-3-1 2 1 1q2-1 1-3l-2-1zm45 0-2 3 2 1v1l-2-1-1 2h2l2 3-1 1 2 2 1-4 1 2 1 3q2-1 0-2l2-1 1 2v-1l2-1-3-1q1-3 3-1v-1l-1-1q-2-4-3-1l-3-5-1 2h-1zm6 0-1 4q1 1 2-1zm3 1-2 3h3l1 2v-2l-1-1zm-11 7q-2 1 1 2l1-1zm-17 16q-2 1 1 2h1zm7 0-2 1v3l-1-1h-1l-3-1-3 1 1 2-2 1h3q1-2 2 1l-1-1-1 2q3 1 1 3h2l2-2-1-1 5-3-1-1-1-1 2-1q1-1-1-2Zm-2 7q-2 1 1 2l2-1zm-7 1q-2 1 1 2v-1zm7 1-1 2h2q1-1-1-2Zm-53 10q-3 1-1 3l-2 3h3q2 1 0 3l3 1q1-4 3-1 2-1 0-2l1-2q-1-3-2-1v-1l-1-1-1-1-1-1q-1 2-2 0Zm-2 7q-2 1 1 2l1-1zm31 5-1 2q-2 1 0 2l-1 3h2q2 1 1 2l-3-2-1 3 2-1 2 2 2-2v2h2l-1-1 2-1v-2l2-1-1-2-3 3h-1l2-2-1-1h2v-1l-1-1-2-2-1 1 1 2h-1zm-75 2q-2 3-3 1l-2 5 6 5q1-2 2 0l1-1-2-1 2-1-1-1 4-1-2-2 1-1-2-1-1-2-1 2h-1zm72 1q-2 1 1 2v-1zm-36 23-5 6q1 2 3 0 2 0 1 4h2l4-5q-1-3-2-1-3-1-1-2zm-44 10-1 2-3 1 1 2-2 1 2 1-1 2q1 2 3 0l-1 2h5v-2l2 1 1-2v-3l-3-5-2 3zm76 11-2 2q1 2 2 1zm-2 3q-3 2 0 3l2-1zm-109 5q-3 1-1 3l-1 2-1-1q2-2 0-3l-2 4 1 4 2-1q0 2 4 2 1 2 2 0l-2-1 2-1-1-1 4-1-2-1 1-2-2-1-1-2-1 2zm73 5-3 1v2l-2 3h2v2l2-1-1 2 2 1v-2l1-1 2 2h2l-2-1 3-2-2-3-1 1zm3 0v3q3-1 0-3Zm-42 15-1 2 1 1-3-2q-3 1-1 3l-1-1-3 3h3l-1 2 1 1-1 1q2 3 4-1l-1 2h2q2-1 0-2 1-3 3-1l1-1q-2-1 0-2zm39 19-1 3q2 1 0 2h-2l2-1-2-2-2 1 1 2-2 1 4 1q2 1 0 3l4 2-1-1 2-2v2h1q1-4-2-4l3-1v-2l-3 1 1-2 1-2-3 1zm-72 3-1 2-3 1 1 2-2 1 3 1h-1l-1 2q1 2 3 0l-1 2 5 1v-3l3 1-1-1 2-2q-2-1-1-4h-1l-3-2 1 3zm78 3q-3 1-1 2h1zm-11 2q-2 1 1 1 1 2 2 0zm-36 16-1 2-1-1q-4 1-3 6 2 1 0 2h2l2 2-1-3v-2l1 3 2-1-1 2 1 1q3-1 5-3l-2-1 2-1v-1l-3-2h2l-1-3-2 1zm42 15-1 2h-1v1h2z" opacity=".996"/><path fill="#3ea63e" stroke="#3ea63e" d="m189.5 20 2.5.5-2.5.5zm-1 2 2.5 1.5q-1 2.5-2 1zm-8 13q1.5 1-1 2l-1.5-.5zm41 3-.5 1.5-1.5 2.5-1.5-.5 2-1zm-22 17 2.5 1.5-1.5.5q-2.5-1-1-2Zm49 15q2.5 1 1 2l-1.5-.5zm-4 1 4.5 3.5-.5.5-3-3q-2.4-.1-1-1Zm7 1 1.5.5-2.5 1.5q-1.5-1 1-2Zm-9 1 1.5.5q-1 2.5-2 1zm-1 3 1.5.5-.5 1.5-1.5-.5zm-16 1q2 .5 1.5 3.5h-1z" opacity=".996"/><path fill="#3ea63e" stroke="#3ea63e" d="m229.5 77 .5 1.5-1.5.5q-1.5-1 1-2Zm22 1 1.5 2.5h-1l-.5-1.5-2.5 2.5.5 1.5-1.5-1.5zm-23 2 1.5 2.5q-1 1.5-2-1z" opacity=".996"/><path fill="#3ea63e" stroke="#3ea63e" d="m230.5 80 1.5.5-.5 1.5q-2.5-1-1-2Zm15 0 1.5 2.5-1.5.5zm-22 3v2l3 2 2-3 1.5.5 1 3-1.5.5.5-1.5-1.5-1.5-1.5 2.5 1 2-1.5.5-2-4-2-1-1 2-1.5-.5zm8 0 1.5.5-.5 1.5-1.5-.5z" opacity=".996"/><path fill="#3ea63e" stroke="#3ea63e" d="M223.5 87q2.5 1 1 2l-1.5-.5zm-106 6 1.5.5q-1 2.5-2 1zm-6 7 1.5.5-1.5 2.5zm3 0 .5 2.5h-1zm152 7 2.5 1.5-1.5.5q-2.5-1-1-2Zm6 3 .5.5-2.5 2.5-.5-1.5zm-7 5q2.5 1 1 2l-1.5-.5z" opacity=".996"/><path fill="#3ea63e" stroke="#3ea63e" d="m268.5 115 1.5.5-.5 1.5q-2.5-1-1-2Zm-24 7 1.5.5q-1 2.5-2 1zm-151 2 2.5 1.5-1.5 2.5zm151 1q1.5 1-1 2l-3 1-.5-1.5zm6 0 .5.5-2.5 2.5-.5-.5zm-160 1 2.5 1.5-.5 1.5-2.5-2.5zm155 4 .5.5-2.5 2.5-.5-.5zm-28 2 1.5.5-.5 2.5q-2.4-.9-1-3Zm-3 1 1.5.5q-1 2.5-2 1zm7 0 .5 1.5-1.5.5q-1.5-1 1-2Zm-10 2 1.5.5-.5 1.5q-2.5-1-1-2Zm5 0 .5.5-2 2 2.5 3.5 3.5 1.5-.5 1.5-2-2-.5.5-1.5 2.5-1-5-2 3-.5-1.5.5-1.5-2.5-.5zm5 4q2.5 1 1 2l-2.5-.5zm55 6 .5 1.5-1.5.5q-1.5-1 1-2Zm2 2 1.5.5q-1 2.5-2 1zm3 0 1.5.5-.5 1.5q-2.5-1-1-2Zm-25 13 1.5.5q-3.5 1.5-1 3l-2.5 2.5-2.5-1.5 1.5.5 1-1 1.5-.5-3-2 1.5-.5 1.5.5zm-71 5 .5 1.5q-2 1 0 2l.5 1.5 2-3 .5 1.5-.5 1.5 2.5.5-6 5-1.5 2.5-1-3-2 1v-1l5-1 2.5-2.5-5-3zm75 0 1.5 4.5h-1q-1.7-1.7-.5-4.5Zm-79 1 1.5.5q-1 2.5-2 1zm-3 2 1.5.5-.5 1.5q-2.5-1-1-2Z" opacity=".996"/><path fill="#3ea63e" stroke="#3ea63e" d="m180.5 171 2.5 1.5-1.5-.5-3 1v-1zm-140 1 1.5 2.5q-1 1.5-2-1zm149 1 .5 1.5-1.5.5q-1.5-1 1-2Zm-3 3 1.5.5-.5 1.5q-2.5-1-1-2Zm106 0 1.5.5-.5 1.5-1.5-.5zm-255 2 2.5.5-2.5.5zm255 1q2.5 1 1 2l-1.5-.5zm-71 2q2.5 1 1 2l-1.5-.5zm68 0 1.5.5-.5 1.5q-2.5-1-1-2Zm-70 5 1.5.5-.5 1.5-2.5-.5zm7 0 2.5 2.5-.5.5-1.5.5-.5 1.5-.5-1.5 1-2zm-4 2 .5.5-2.5 2.5-.5-1.5zm35 10 2 1 1.5-.5-.5 2.5-3.5-2.5zm9 0 .5 2.5-2 1-1 2 .5 1.5-2.5-2.5.5-.5 1.5.5zm-111 12 1.5.5-.5 1.5q-2.5-1-1-2Zm135 1q2.5 1 1 2l-1.5-.5zm-140 1 1.5 3.5q-1 1.5-2-1zm4 0 1.5 2.5-2.5 1.5.5-1.5-1-1zm32 2 2 2 2-2 .5.5-1 2q1.5 3 3 0l.5-1.5.5 1.5-.5 1.5 1.5.5-.5 1.5-1.5-.5-.5-1.5q-1 2-2 0l-4.5-3.5zm-2 3 2.5.5-1.5 1.5q-2.5-1-1-2Zm106 0q2.5 1 1 2l-1.5-.5-.5 1.5-1.5-.5zm-99 4 .5 1.5-2 1-1.5 2.5-1-3-2 1v-1zm2 0q2.5 1 1 2l-1.5-.5zm30 7 2.5.5-4.5 1.5v-1zm41 4 1.5.5-.5 1.5q-2.5-1-1-2Zm3 0 1.5.5q-1 2.5-2 1zm-119 11 1.5.5.5 2.5 1.5.5 1.5 2.5 2.5 1.5-5 1-.5 4.5-1.5-2.5 2.5-3.5 1.5-.5-2.5-2.5q-4.1.6-5.5-1.5l.5-1.5 2 2 .5-.5z" opacity=".996"/><path fill="#3ea63e" stroke="#3ea63e" d="m152.5 243 .5 1.5-1.5.5q-1.5-1 1-2Zm1 3 1.5.5-.5 1.5q-2.5-1-1-2Zm-10 1 1.5.5-.5 1.5-1.5-.5zm2 3 .5 1.5-1.5.5q-1.5-1 1-2Zm1 3 1.5.5q-1 2.5-2 1zm44 1 1 4 3.5.5-2 2 .5 1.5-1.5.5-.5 1.5-.5-1.5 1-3q-.5-3-4.5-2.5l-.5 2.5 3 4-1.5.5-1-3-3.5-.5 3.5-4.5zm29 2 .5 1.5-2.5 1.5v-1l1.5-.5zm5 0 .5 1.5q-1.7.7-1 4l-3.5 3.5-.5-1.5 3-2q-1-4.5 1.5-5.5Zm66 0 2.5.5-3 2 1 2-1.5-.5-2.5-.5 3-2zm3 2 3.5.5-3.5.5zm-76 2 2.5 1.5h-3zm76 0-.5 1.5 1 1-.5 1.5-1.5-2.5zm-35 8 1.5 3.5-2.5.5-2.5-1.5 1.5-.5 1.5.5zm5 3 1.5.5q-1 2.5-2 1zm-2 3 1.5 3.5h-1zm-6 1 .5 1.5-1.5.5q-1.5-1 1-2Zm2 0 3.5 2.5-.5 1.5-3.5-3.5zm-105 2 2 3 1-2 1.5.5-1 2 2 1-2 2 .5.5 2.5.5-4 1 2 1-1.5.5-2.5-1.5 2-1 1-3-1.5-.5q-1.7 2.8-7 2v-1l4.5-.5 1-2q-1.7-.7-.5-2.5Z" opacity=".996"/><path fill="#3ea63e" stroke="#3ea63e" d="M150.5 284q1.5 1-1 2l-1.5-.5zm35 4 1 3 1.5-.5-1 2h2q-1.7 3.3-3.5-.5l-3-1-.5 1.5 1 1-.5 1.5 2.5 1.5-.5 1.5-1-2-2 1v-2l-1.5-.5 2-1-2-2 .5-.5 1.5-.5.5-1.5 2 2 .5-.5zm-62 2 2.5.5-4.5 1.5v-1zm85 2 1.5.5q-.5 3 1.5 3.5l2.5-1.5.5-1.5 2.5 3.5-.5.5-2-2-1.5 1.5 2 1-.5 1.5-2-2-.5.5-.5 1.5-1-2-1.5.5 1-2-1.5.5-1.5-.5 2-1z" opacity=".996"/><path fill="#3ea63e" stroke="#3ea63e" d="m187.5 295 1.5.5-2 1-.5 1.5-.5-1.5zm92 6 2.5.5-3 1-.5 1.5-1.5-.5zm0 4 .5 3.5h-1zm-207 6 3.5.5-3.5.5zm27 1 5.5.5-5.5.5z" opacity=".996"/><path fill="#d2c09b" stroke="#d2c09b" d="m.5 311 .5 24.5H0z" opacity=".639"/><path fill="#9f9357" stroke="#9f9357" d="m328.5 316 .5 11.5h-1zm-17 52 .5 2.5h-1zm-1 7 .5 2.5h-1zm-5 34 .5 2.5h-1zm-281 12 .5 2.5h-1zm1 7 .5 2.5h-1zm2 13 .5 2.5h-1zm273 2 .5 2.5h-1zm-1 7 .5 2.5h-1zm-267 27 .5 2.5h-1zm1 7 .5 2.5h-1zm261 0 .5 2.5h-1zm-260 7 .5 2.5h-1zm1 7 .5 2.5h-1zm5 36 .5 2.5h-1zm1 7 .5 2.5h-1zm1 7 .5 2.5h-1zm8 57 .5 2.5h-1z" opacity=".71"/><path fill="#af8c57" stroke="#af8c57" d="m320.5 347 2.5.5-2.5.5zm-6 3 .5 2.5h-1zm-1 7 .5 2.5h-1zm-1 7 .5 2.5h-1zm-1 7 .5 2.5h-1zm-293 10 .5 2.5h-1zm291 3 .5 2.5h-1zm-290 4 .5 2.5h-1zm289 3 .5 2.5h-1zm-288 4 .5 3.5h-1zm287 3 .5 2.5h-1zm-286 4 .5 3.5h-1zm285 3 .5 2.5h-1zm-284 4 .5 3.5h-1zm283 3 .5 2.5h-1zm-282 4 .5 3.5h-1zm281 2 .5 2.5h-1zm-1 7 .5 2.5h-1zm-1 7 .5 2.5h-1zm-276 5 .5 2.5h-1zm275 2 .5 2.5h-1zm-274 5 .5 2.5h-1zm273 2 .5 2.5h-1zm-272 5 .5 2.5h-1zm271 2 .5 2.5h-1zm-270 5 .5 2.5h-1zm269 1 .5 3.5h-1zm-268 6 .5 2.5h-1zm267 1 .5 2.5h-1zm-266 7 .5 2.5h-1zm265 0 .5 2.5h-1zm-264 7 .5 2.5h-1zm263 0 .5 2.5h-1zm-262 7 .5 2.5h-1zm261 0 .5 2.5h-1zm-1 6 .5 3.5h-1zm-259 1 .5 2.5h-1zm258 6 .5 2.5h-1zm-257 1 .5 2.5h-1zm256 6 .5 2.5h-1zm-255 1 .5 2.5h-1zm254 6 .5 2.5h-1zm-253 1 .5 3.5h-1zm252 6 .5 2.5h-1zm-251 1 .5 3.5h-1zm250 6 .5 2.5h-1zm-249 1 .5 3.5h-1zm248 5 .5 3.5h-1zm-247 3 .5 2.5h-1zm246 4 .5 2.5h-1zm-245 3 .5 2.5h-1zm244 4 .5 2.5h-1zm-243 3 .5 2.5h-1zm242 4 .5 2.5h-1zm-241 3 .5 2.5h-1zm240 4 .5 2.5h-1zm-239 3 .5 3.5h-1zm238 3 .5 2.5h-1zm-237 4 .5 3.5h-1zm236 3 .5 2.5h-1zm-235 4 .5 3.5h-1zm234 3 .5 2.5h-1zm-233 4 .5 3.5h-1zm1 7 .5 3.5h-1zm1 7 .5 3.5h-1zm1 8 .5 2.5h-1zm6 8 2.5.5-2.5.5z" opacity=".314"/><path fill="#cccaa7" stroke="#cccaa7" d="m147.5 16 1 3 2-1-1 3 1.5.5-2 1 2 1-1.5.5-1.5-.5 1 2-3-1-.5 1.5-1-2-1.5.5 1-2-2-1 2-1-2-2 .5-.5 2 1v-2l1.5.5.5 1.5zm-.5 4-2 2 3 1v-2zm36.5-3q1 2 2 0l2 1 1.5-.5-1.5 1.5q-1.2-2.2-2.5.5l-1.5 2.5zm4 3v3l-1-1-1.5.5zm-72 12-.5 1.5.5 1.5 2-1-1 3 1.5.5-.5 1.5-1.5.5.5 1.5-1.5.5-.5 1.5-1.5-.5-.5-2.5-1 3-1.5-.5 1-2-1.5.5-1.5-.5 2-2-.5-.5-1.5-.5 2-1 .5-1.5zm-3.5 4v3q2 1 3-1-1-2-3-2Zm109.5-1-.5 1.5 1 3-1.5-.5-1 1-2-1-2 2-.5-.5 2.5-2.5 1 1 1.5-.5-1-2zm-47 3 3 1 1.5-.5-1 3 .5 1.5q-1-2-2 0l-1.5-1.5 2-1-.5-1.5-2 1zm-32 16 .5 2.5-1 2q1.5 3 3 0l-1-4h1l.5 1.5 2-1-1 3 1.5.5-2 1 .5 1.5-2-1 .5 1.5-.5 1.5-1-2-2-1-2 1 1-3-1.5-.5 2-1-.5-1.5 1.5.5zm-60 17 2 3 2-3 .5 1.5-1 2 3-1-.5 1.5-1.5.5 2 1-.5 1.5-1.5.5 2 2-.5.5-2-2-.5.5-.5 2.5-1-2-1.5.5-.5 1.5-1-3-2 1q-1.5-1 1-2l1.5-.5-4-1 3.5-.5 1.5-1.5q-1.7-1.5-.5-3.5Zm1.5 4-1 3h3v-1zm91.5 3 2.5 1.5-1.5 2.5-1.5-.5 2-1-.5-1.5-2 1q-1.5-1 1-2Zm72 0q2.5 1 1 2l-1-1-1.5.5zm-131 15-.5 1.5.5 1.5 2-2 .5.5-2 2 .5.5 1.5.5-2 1 2 2-.5.5-2-2-.5.5-.5 1.5-.5-2.5 1-2-3.5-.5-1.5-1.5 1.5.5q3.5.5 4-2Z" opacity=".996"/><path fill="#cccaa7" stroke="#cccaa7" d="m112.5 98 1.5.5-.5 2.5-1-2-1.5.5zm35 5 2.5.5-2.5.5zm-85 3 1.5.5-1 6 1.5.5q.7-2.7 5-2v1l-2.5.5 2 2-.5.5-2-1-1 2-1-2-1.5.5-.5 1.5-.5-1.5.5-1.5-2 1 1-3-2.5-.5 3-1-2-1 .5-1.5 2 2 .5-.5z" opacity=".996"/><path fill="#cccaa7" stroke="#cccaa7" d="m65.5 106 1 3 2-1q1.5 1-1 2l-2.5-.5zm200 6 1.5.5-2.5 1.5q-1.5-1 1-2Zm-172 15 1 2 2 1 2-1v1l-1.5.5 1 3q-1 1.5-2-1l-.5-2.5-2 1-2.5-2.5.5-.5 1.5.5zm84 1q2 .5 1.5 3.5l-2.5.5q-2.5-1-1-2l2 1 .5-1.5zm-87 3 2.5 1.5q-1 2.5-2 1l.5-1.5q-2.4-.1-1-1Z" opacity=".996"/><path fill="#cccaa7" stroke="#cccaa7" d="M94.5 133q2.5 1 1 2l-1-1-1.5.5zm-44 5 .5 3.5-1 2q1.8 3.3 3.5-.5l2.5.5-2 1 .5 1.5-2-1 .5 1.5-.5 1.5-1-2-1.5.5-.5 1.5-.5-1.5.5-1.5-2 1 1-3-2.5-.5 3-1-2-2 .5-.5 2 2 .5-.5z" opacity=".996"/><path fill="#cccaa7" stroke="#cccaa7" d="m52.5 139 1 2 2-1v1l-3 1zm227 2 1.5.5-2.5 1.5q-1.5-1 1-2Zm-1 3 1.5.5-2.5 1.5q-1.5-1 1-2Zm-150 3-.5 1.5.5 1.5 1.5-.5.5-1.5.5 1.5q-.5 2-3.5 1.5l-.5-2.5zm-50 13q1.5 3.5 3 1l2 1 1.5-.5-1 1 1 1-1 1 .5 1.5-2-4-2 1-2.5-2.5zm2 4 2.5 2.5-.5.5-1-1-1.5.5 1-1zm-38 9 1 2 1-2 1 2 1.5.5-1.5.5q-1-2-2 0l-1.5.5.5 2.5 3-2h2v1l-2.5.5.5 1.5q-1-2-2 0l-1.5.5-.5 1.5-.5-1.5q2-1 0-2 .5-3.5-2-4l1.5.5 1.5-.5zm74 12 1.5.5-2 1 .5 1.5 2-1q1.5 1-1 2l-2.5-1.5zm106 1 2 1 1.5-.5-2.5 1.5q-2.5-1-1-2Zm-148 10 2.5 4.5h-2l-.5 1.5-1-2-1 2-1.5-2.5 1.5.5 1-1 1.5-.5zm75 12 .5 2.5h-1zm-114 5q1.5 3.5 3 1l2 1 1.5-.5-.5 1.5 1.5.5-2 1 .5 1.5-2-4-2 1-2.5-2.5zm2 4 2.5 2.5-.5.5-1-1-1.5.5 1-1zm73 2 2.5 1.5-1.5-.5q-2.4-.1-1-1Zm114 5 2.5 1.5-1.5 2.5.5-1.5-.5-1.5q-2.4-.1-1-1Zm37 8 4.5 2.5-1.5-.5q-3.7.5-3-2Zm-195 2 2.5 1.5-1.5.5q-2.5-1-1-2Zm4 0q2.5 1 1 2l-1.5-.5zm-3 3 2.5 1.5q-1 2.5-2 1l-.5-1.5-1.5.5zm81 13 2.5.5-2.5.5zm-38 4-.5 1.5.5 1.5 2-1q1.5 1-1 2l-2.5-1.5zm-70 3q2 .5 1.5 3.5-1.5 3-3 0l2-1zm251 0-.5 1.5-.5 1.5-.5-1.5zm-222 18 1 2 1.5-.5-1 1 .5 1.5q-3.6-1.1-2-4Zm-1 5 1.5.5-2.5 1.5q-1.5-1 1-2Zm145 14q1.5 1-1 2l-1.5-.5zm-161 8 .5 2.5h-1zm-3 2 2.5 2.5-.5.5-1-1-1.5.5 1-1zm-42 2 2.5.5-2 1 8.5.5 3-1v1l-1.5.5 7.5.5 3-1 1 2 11-1 1 1h10l1 1h13l1 1h20l1 1h30l1 1 29.5.5-33 1 7 1-4 4 .5.5 4.5.5-21.5.5-1-1h-30l-1-1h-15l-1-1h-10l-1-1h-10l-1-1h-9l-1-1h-9l-1-1h-6L5 342.5l-1 2 .5 1.5-1.5-.5-.5-1.5-2.5-.5q-1.4-7.4 2-10v-15l-1-1v-10l5.5-.5z" opacity=".996"/><path fill="#000a00" stroke="#000a00" d="m.5 4 128.5.5L.5 5zm200 0 439.5.5-439.5.5zm0 2 2.5.5-2.5.5zM.5 26l93.5.5L.5 27zm0 3L4 32.5v2l3 4-6.5.5zm0 13 77.5.5-1.5 1.5H.5zm0 5q.1 3.4 2.5 4.5l1 7 3 3 1 5 3 4v3l6 9L.5 83zm278 38 2.5 5.5h-1l-2-4zM.5 86q.1 3.4 2.5 4.5v13l1 1v4l3 9v4l2 6v5l2 3v4l1 1 1 7 2 2v13q2.3 1.2 1 6l1 1 .5 96.5 1.5-.5.5-37.5 1.5 2.5-1 1v34h1l.5-7.5.5 7.5 1 1v16l1 1v4l1 1 1.5 8.5 1-4 1.5.5-1.5 4.5-2.5.5-.5 1.5-3 1h-9l-1 1h-6l-2-1-3 1zM16 299v1h4zm-7 1v1h2zM282.5 93l2.5.5.5 6.5 1.5.5-1.5 2.5-1.5-3.5-.5-5.5-1 2zm7 17 350.5.5-.5 5.5-347.5-.5-.5-1.5-1 2-.5-1.5 1-3h-1l-.5 1.5zm9 28 1.5 2.5q-1 1.5-2-1zm1 4 1.5.5-.5 1.5-1.5-.5zm2 5 338.5.5-.5 8.5-336.5-.5-1-3 1-3-2-2zm2 14 3.5 1.5-4.5.5q-1.5-1 1-2Zm1 6q2.5 1 1 2l-2.5-.5z" opacity=".016"/><path fill="#000a00" stroke="#000a00" d="m21.5 192 .5 19.5h-1zm287 20 1.5 2.5v34l-2.5.5.5-1.5 1-4q-2.2-1.2-1-6 1.8-.8 1-4l-1-1 1-3-1-3zm-1 39 .5 3.5h-1zm0 5 1 9 331.5.5-.5 6.5-333.5-.5v-6l1-1q-2-1 0-2 .8-3.2-1-4zm-284 2 .5 5.5h-1zm282 15 334.5.5-.5 1.5-335.5-.5zm-1 8 335.5.5-.5 12.5-337.5-.5 7-1-2-1-.5-3.5-3.5-1.5 1-2-1-2zm-2 14 337.5.5-.5 6.5h-312l-2-1-1 1h-7l-1-1h-8l-3.5-1.5-.5-1.5-2.5-.5zm8.5 4v1h4zm9 1v1h2zm8.5 4 311.5.5-.5 7.5-308.5-.5-.5-6.5q-3 .5-2-1Zm2 13 309.5.5-.5 29.5-305.5-.5-.5-1.5-1.5-.5-.5-13.5-1 14zM.5 348l.5 4.5H0zm2 0 .5 4.5H2zm325 0 .5 4.5h-1zm-321 1 .5 3.5H6zm5 1 .5 2.5h-1zm-11 6 13.5.5-1.5 5.5-12.5-.5zm315 5 324.5.5-324.5.5zm-1 7 325.5.5-325.5.5zm-314 3 15.5.5-1.5 4.5-14.5-.5zm313 4 326.5.5-326.5.5zm-313 3 16.5.5q-2.2 1.3-1 6l2 1q-2.3 1.2-1 6l2 1q-2.2 1.3-1 6l2 1-1 1-.5 6.5-18.5-.5zm310 17 329.5.5-329.5.5zm-1 7 330.5.5-.5 4.5-330.5-.5zm-1 7 331.5.5-.5 4.5-331.5-.5zm-2 7 333.5.5-333.5.5zm-2 7 1 6 334.5.5-335.5.5zm-281 11 1 7 1.5.5-1 1-.5 19.5-.5-7.5-1-1zm281 2 335.5.5-.5 1.5-335.5-.5z" opacity=".016"/><path fill="#000a00" stroke="#000a00" d="m.5 441 .5 12.5 1 1v7l1 1 .5 5.5 1.5.5v6l1 1v42l1 1v7l1 1 .5 19.5 1.5.5v58l2 2q-1 5 2 6l.5 19.5 37.5-.5.5-14.5 1 15 11.5-.5.5-11.5 6-1 6 2h6l1 1h6l1 1h7l1 1h9l1 1h9l1 1h12l1 1h13l1 1h14l1 1h18l1 1h22l1 1h29l1 1 41.5.5L.5 633zm303 2 336.5.5-.5 5.5-336.5-.5zm-2 7 338.5.5-338.5.5zm-2 7 .5 4.5h-1zm0 13 340.5.5-.5 1.5-340.5-.5z" opacity=".016"/><path fill="#000a00" stroke="#000a00" d="m29.5 477 1.5.5q-2.2 1.3-1 6l2 1q-2.3 1.3-1 6l2 1q-2.3 1.3-1 6l2 1q-2.2 1.3-1 6l2 1-1 1-.5 98.5-.5-58.5-1-1-.5-19.5-1.5-.5v-7l-1-1zm269 0 341.5.5-341.5.5zm-4 14 1 6 344.5.5-345.5.5zm0 13 345.5.5-.5 1.5-345.5-.5zm-1 7 346.5.5-346.5.5zm-3 20 349.5.5-349.5.5zm-1 7 350.5.5-350.5.5zm-251 3 1.5.5-1.5 4.5zm250 4 351.5.5-.5 4.5-348.5-.5-.5-3.5q-3 .5-2-1Zm-249 3 1.5.5q-2.2 1.3-1 6l2 1q-2.3 1.3-1 6l2 1q-2.2 1.2-1 6l2 1-1 1-.5 40.5-1.5-.5q1-5-2-6zm247 4 353.5.5-353.5.5zm-1 13 354.5.5-.5 1.5-354.5-.5zm-1 7 355.5.5-355.5.5zm-1 7 356.5.5-.5 4.5-356.5-.5zm-1 7 357.5.5-.5 46.5-236.5-.5 38.5-.5 1-1h26l1-1 6.5-.5-5-1v-9l-1-1v-9l-1-1v-10l-1-3 2-1-4.5-1.5h-25l-1-1h-42l-1-1-114.5-.5zm-236 12 1.5.5q-2.3 1.3-1 6l.5 1.5-1.5-1.5z" opacity=".016"/></svg>