<svg xmlns="http://www.w3.org/2000/svg" viewBox="0 0 640 459"><path fill="#30fefe" stroke="#30fefe" d="m406.5 31 .5 2.5h-1zm58 17 .5 20.5h-1z" opacity=".004"/><path fill="#820d13" stroke="#820d13" d="m378.5 23 .5 3.5h-1zm-163 1 .5 3.5h-1zm26 0 .5.5-2.5 2.5-.5-.5zm-3 5 1.5 4.5h-1q-1.7-1.7-.5-4.5Zm56 3 .5 4.5h-1zm54 0 1.5.5q1 4.5-1.5 5.5l.5-1.5v-3zm50 3 1.5 4.5-1.5.5zm-140 24h3l8 5 5-3v1l-5 3q-3.7-3.8-10-5l-1 9zm54 0h2l9 5q1.8-3.2 6-4v1l-7 4-2-2-6-3h-2zm54 2 5 1 7 4 1.5-.5-2.5 1.5-2-2-8-3-.5 10.5 3.5 1.5 11.5.5-11.5.5-4.5-1.5zm-161 1q6.3 1.2 10 5l5-4 .5 1.5-6.5 3.5-8-5-.5 7.5 3 2-1 2 8.5.5q1.3-2.2 6-1l1 1 7 1 6 3 3 3q2.8-4.2 8-6h3l5-2h6l.5 5.5-1 1v7l-1.5 1.5-9 3-15 1-1-1h-7l-6-2-3.5-2.5v-7l-1.5-4.5-8.5.5q-1.8 2.2-1 7l-1.5 1.5-6 2h-5l-1 1h-10q-1.2-2.2-6-1l-7.5-3.5.5-4.5.5 3.5 1.5 1.5 5 2h5l1 1h9q1.2-2.3 6-1l6-2 1.5-1.5q-1.2-6.2 1-9l-5.5-.5q-1 2-5 1l-9 5-7-5-8.5-1.5 4.5-.5q.8 1.8 4 1l8 5 8-5 8.5-1.5zM219 75q-2 3 0 5v7l6 3q3-1 4 1h21l9-3 1-1v-9l1-1v-2q-3 2-9 1l-6 2-6 5-3-3-6-3-7-1-1-1zm197.5-11 8 4q2.3-3.2 7-4v1l-7 4h-2l-3-3h-2q-2.5-1-1-2Zm0 3 .5 5.5h-1zm-158 3 5 2h10l1.5-.5-.5 1.5h-11q-.7-1.7-4-1-2.5-1-1-2Zm55 1 2.5.5-2.5.5zm15 0 .5 1.5-11.5.5v-1h10zm-159 1 .5 4.5h-1zm260 0 2.5.5-2 1-.5 8.5-1-5-8.5.5-1 2v9l-1.5 1.5-8 3q-4.7-1.3-6 1h-9q-1.2-2.3-6-1l-8.5-3.5.5-2.5 2 3 6 2h5l1 1h8l1-1 9-1 4.5-2.5 1-10-3.5-.5q-1.3 2.3-6 1l-10 6-5.5-4.5 1.5-.5 5 4 1-2 5-3 10-2 1-1 12.5-.5-1-2zm33 0 .5 1.5-9.5 1.5-4 3-4 1-4.5-3.5 1.5-.5 5 3 6-4 3-1h5zm-29 1 3.5.5-3.5.5zm31 0 1.5.5-1 1v8l-2.5 2.5-6 1-1 1h-17v-1h17l6-2 1.5-1.5v-4l1-1zm-192 4 3 1h5l6 2 7 5 7-5 6-1 1-1h5l1-1 3.5 1.5-1 1v8l-1.5 4.5-8 3h-4l-1 1h-16l-1-1-7-1-5.5-3.5v-9l-1-3zm.5 2v11l5 3 7 1 1 1h15l1-1h4l8-3v-8l1-1v-3l-11 1-6 3-3 3-3-1-5-4-6-2zm106.5-2h6l6.5 2.5-1.5.5-5-2h-5l-1 8zm-53 1h8l10 4 3 3 5-4 5-2q3.3.8 4-1h8l.5 2.5-1 1v9l-1.5 1.5-8 3q-4.8-1.3-6 1h-12l-1-1-8-1-5.5-3.5q.8-3.2-1-4zm1.5 1-1 7q2 0 1 5l5 2 9 1 1 1h10q1-2 6-1l8-3 1-3v-7l1-2-11 1-6 3-3 3-8-5-6-2zm102.5 4 6.5 2.5-2.5.5-3-1q-2.5-1-1-2Zm-276 84q11.5-1 15.5 5.5l3 6v7l-4.5 7.5-5 3-6 1-1-1q-4.2.7-6-1l-5.5-5.5-2-4v-8q1.7-4.8 5.5-7.5zm2.5 1-6 2-5 5v2l-2 3v4l2 5 6 5 3 1h7l3-1 5-5 2-5v-3l-2-6q-3-4-7-6-5 1-6-1Zm307.5-1q1 2 2 0l6 1q4.8 1.7 7.5 5.5l2 4 1 6-2 6-5.5 5.5-5 2h-7l-8.5-5.5-3-7v-4q1.8-.8 1-4l5.5-6.5zm-1.5 2-2 1-6 6-1 3q-1 6 1 10l8 6h10l2-1q4-3 6-8v-7l-2-4q-3-4-7-6zm-36.5 6 9 2 6.5 6.5 2 4v8l-3 6-2.5 2.5-5 3-7 1-1-1-6-1-4.5-3.5-4-8v-6l2-5 5.5-5.5zm-2.5 2-6 3-5 7v10l1 2q3 5 10 7h8l4-2 6-7v-10l-1-2q-3-6-9-8zm-228.5 1h7l3 1 7.5 6.5 2 4v10l-4.5 6.5-7 4h-8l-5-2-4.5-3.5-3-5-1-7 2-6 3.5-4.5zm3.5 1-9 3-4 4-2 5v7l2 4 6 5q1 2 6 1l1 1 8-2 5-5 2-5v-6l-2-4-5-6zm48.5 3q13.7-.7 18.5 7.5l3 8v5l-2 5-6.5 6.5-4 2h-10l-5-2-5.5-5.5-3-8 1-1v-5l1-3 4.5-5.5zm-1.5 2-4 2-5 5-2 6v5l3 7 4 3 8 3h4l7-3 4-4 2-5v-7l-3-6-5-5-3-1zm123.5-2h9l3 1 8.5 7.5 2 5v7l-2 5-5.5 5.5-7 3h-7l-5-2-4.5-3.5-4-6v-10q1.9-6.1 6.5-9.5zm2.5 1-7 3-4 4-3 8v3l2 6q3 5 10 7h9l6-3 4-5 1-3v-8l-2-4-7-7zm-62.5 2h10l6 3 4.5 4.5 2 3 2 9-1 1-1 6-5.5 6.5-5 3q-3.2-.7-4 1h-7l-7-3-5.5-5.5-3-7v-6l2-6 4.5-5.5zm1.5 1-8 4-3 3-3 7v8l4 7 9 5h9l5-2 5-5 3-8-1-7-3-5-7-6q-4 1-4-1z" opacity=".996"/><path fill="#a4295e" stroke="#a4295e" d="m323.5 21-.5 1.5 1 2q-1 1.5-2-1zm-48 40 .5 4.5h-1zm52 1 1.5.5-2.5 1.5q-1.5-1 1-2Zm-123 2 .5 2.5h-1zm178 0 .5 3.5h-1zm-109 4 .5 1.5q-1 2.5-2 1zm56 0 .5 2.5h-1zm99 3 3.5.5-4.5 1.5q-1.5-1 1-2Zm-210 1q1.5 1-1 2l-1.5-.5zm-17 1 5.5.5-1 1-.5 8.5-8 3h-8l-1 1-1-1-8-1-1.5.5.5-1.5-1.5-.5 1-1v-6l-.5-1.5 2-1 1 2 2-1 1 2 6 2 3-3zm1.5 1v8l-1 1h2l1-1v-7zm173.5-1 3.5.5-3.5.5zm-206 1 .5 2.5h-1zm287 0 6.5.5-4 1q2.2 1.2 1 6l-.5 1.5 1.5-.5.5-6.5.5 6.5-1.5 1.5-6 1-1 1h-11l-3-1-2 1v-2l-2.5-.5 2-1q1.2-4.7-1-6l2.5-.5 4.5 1.5.5 1.5 3 1 3-3zm-238 1 2.5.5-2.5.5zm33 1 7.5.5-.5 8.5-1-8-3.5.5 2 1v7l-1 1 1.5.5 1.5-.5-.5 1.5-6 2h-3l-1 1h-13q-1-2-5-1l-1.5.5.5-1.5-2.5-.5 1-1v-8l-.5-1.5 3-1v2l2-1 1 2 1.5-.5 1.5 2.5 3 1 3-3zm178 1 .5 3.5h-1zm-15 1 2.5.5-1.5 10.5-8 3h-15l-3-1-2 1v-1l1.5-.5-3-1 2-1v-6l-1-1 3.5-1.5 1 2 1.5-.5.5 1.5 1.5-.5.5 1.5 3 1 7-5 3-1h5zm1.5 1-2 2 1 7v-5l1-1zm-108.5 0 6.5.5-5 1 1 1 .5 8.5 1.5-.5.5-8.5.5 9.5-8.5 3.5q-4.7-1.2-6 1h-12l-2-2-5.5-1.5 2-1-.5-8.5-1.5-.5 3.5-1.5v2l2-1 1 2 3.5.5.5 1.5 4 1 2.5-2.5-.5-1.5 2 1 3-2 6-1zm55 0 4.5.5v6l-1 1-.5 4.5-9 3h-15q-.7-1.7-4-1l-2 1v-1l1.5-.5-3-1 2-1 .5-8.5h3l3.5 1.5.5 1.5 4 1 7-5 7-1zm1.5 1v2l1 8 1-4v-5zm-37.5 1 .5 2.5h-1zm53 0 .5 3.5h-1zm-107 6 .5 2.5h-1zm-46 206 9.5.5-9.5.5zm-25 1 5 5 1-1h41l1 1 2-2 7-3v1l-5 2-11 9-6 3-3 1h-11l-11-5-10.5-10.5zm239 0 3.5.5-3.5.5zm-144 1 6 4 1-1 11.5-.5-.5-1.5-1.5-.5 1.5-.5 3 3 9 4q4.8-1.2 6 1h10l1-1h4l1-1h3l9-3 5-3q1.5 1-1 2l-1.5.5 27.5.5 1-1q4.8 1.3 6-1h10l5 2h55l4-3 .5.5-5.5 5.5-12 7-15 3-1-1h-6l-6-2-9-7-6-3q-3.2.7-4-1h-10l-1 1h-4l-9 3-28 15-9 3h-5l-1 1h-11l-12-4-7.5-6.5q-3.1-6.4-8.5-10.5-4.6-1.2-5-4Z" opacity=".996"/><path fill="#b75a32" stroke="#b75a32" d="m258.5 72 3 1 13.5.5-.5 3.5-3.5.5q-1 4 1 5l-2 1-.5 1.5-5 3q-3.3-.7-4 1l.5-1.5q-.7-3.2 1-4v-7l1-1-1.5-1.5-3.5-.5zm54 0 2 1 14.5.5-.5 3.5q-3-.5-3.5 1.5 1.8 2.2 1 7l-1.5 2.5-3 2-5 1-.5-10.5 1-2-5-3q2-1 0-2z" opacity=".996"/><path fill="#b75a32" stroke="#b75a32" d="m166.5 73 2.5.5-.5 2.5-8 2-4.5 3.5 2.5 2.5 10 4h4l1 1h4l6 2 13 1 1 1 18 1 1 1h12l1 1h15l1 1h20l1 1h97l1-1h20l1-1h15l1-1h12l1-1h9l1-1h8l1-1 13-1 1-1h4l1-1h4l1-1 10-2 6.5-4.5q-.5-3-4.5-2.5l-2 3-3 2 .5-1.5.5-5.5 3 1 .5-.5-3-3 .5-.5 7 3 3.5 3.5-1 9-1 1v6l-1 1v6l-1 1v6l-1 1q1.2 4.7-1 6v6l-1 1v6l-1 1q1.3 4.7-1 6l-1 13-1 1q1.3 4.7-1 6v6l-1.5 4.5-2.5-.5 1-3v-6l1-1v-5l1-1 1-12 1-1v-5l1-1-1.5-.5-6 5h-11l-1-1-11-2-12-4h-16l-31 18-6 2h-3l-1 1h-12l-12-5-13-9q-5.6-.9-9-4l-3-1h-11l-9 3-22 12-3 1h-14l-12-5-22-14-3-1h-5l-21 7q-4-1-5 1h-9l-12-4-7-6-.5 6.5 1 1q-1.2 4.8 1 6v6l1 1q-1.2 4.8 1 6v6l1 1 1 11-.5.5-2.5-2.5-1-10-1-1v-6l-1-1v-6l-1-1q1.3-4.7-1-6v-6q-2.2-1.3-1-6l-1-1v-6l-1-1v-6l-1-1q1.2-4.7-1-6v-6l-1-1q1.3-4.8-1-6l-1-11 1.5-2.5zM158 87l-1 6 1 1v6l1 1 1 12 1 1v5l1 3 11 8 9 3h11l1-1 10-2 6-3 8-1 1-1 10 2 18 12 10 5 7 1 1 1h4l1-1 7-1 22-12 9-3h11l6 2 10 5 15 10h2l3 2h13l1-1 6-1 12-6 15-10 8-3h15l1 1 7 1 4 2 15 3 1 1h3l5-2 7-7 1-13q2-2 1-6l1-1 1-13 1-1v-5l-15 5-10 1-1 1h-5l-1 1-15 1-1 1h-10l-1 1h-11l-1 1h-15l-1 1h-20l-1 1h-99l-1-1h-20l-1-1h-15l-1-1h-11l-1-1h-10l-1-1h-7l-1-1-14-1-1-1h-4l-1-1h-4l-5-2h-3z" opacity=".996"/><path fill="#b75a32" stroke="#b75a32" d="m366.5 74 3 1 12.5.5-.5 1.5-3.5.5q2 2.5 1 8l-5.5 4.5h-4l-.5-5.5q2.3-1.3 1-6l-4-2zm-157 2 7.5.5 1 7h-1l-.5-3.5-3 3q-1.8 1.7-6 1l-1 1 .5-1.5 1-6zm219 1-.5 1.5 1 1q-.7 3.3 1 4l-3.5 3.5-5 1-3 2 .5-1.5v-8l2.5-2.5h6zm13 10 4.5.5-4.5.5zm9 0 2.5.5-2.5.5zm-301 84 .5.5-2.5 2.5-.5-.5zm334 9 1 1 11 2 12 4 9 5 3.5 3.5 1 7-1 1v9l-1 1-1 16-1 1v8l-1 1v7l-1 1v9l-1 1v7l-1 1v9l-1 1v7l-1 1v8l-1 1v8l-1 1v10l-1 1-1 17-1 1v7l-1 1v8l-1 1v8l-1 1-1 17-1 1v6l-5.5 6.5-5 3h-2l-3 2-12 4h-3l-9 3h-4l-1 1h-4l-1 1h-5l-1 1q-4.7-1.3-6 1h-6l-1 1h-7l-1 1h-7l-1 1h-9l-1 1h-10l-1 1h-13l-1 1-74 2-1-1h-37l-1-1h-18l-1-1-24-1-1-1h-8l-1-1h-8l-1-1-13-1-1-1-11-1-1-1h-4l-1-1h-4l-1-1h-4l-8-3h-3l-17-7-5.5-4.5-2-4-1-14-1-1v-8l-1-1v-8l-1-1-1-17-1-1v-7l-1-1v-10l-1-1-1-17-1-1v-7l-1-1-1-18-1-1v-7l-1-1v-8l-1-1v-8l-1-1v-8l-1-1v-8l-1-1v-7l-1-1-1-15 4.5-5.5 9-5 12-4 6-1 .5 2.5-2.5 1.5h-3l-12 4q-6.9 2.6-11.5 7.5v4l3.5 3.5 10 5 9 3 11 2 1 1h4l6 2h5l1 1h5l1 1h5l1 1h7l1 1h7l1 1h8l1 1 21 1 1 1h12l1 1h17l1 1h26l1 1h69l1-1h26l1-1h17l1-1 24-1 1-1h9l1-1h8l1-1 15-1 1-1h5l1-1 11-1 1-1h4l1-1h4l1-1 11-2 9-3 10-5 3.5-3.5v-3l-2.5-3.5-9-5-21-6q-1.5 1 1 2l2.5 1.5 1 3-4.5 5.5-5 2q-6.2-1.2-9 1l-1-1-5.5-.5 9.5-1.5 4.5-3.5 3-5zM115 207v2l1 16 1 1v8l1 1v7l1 1v7l1 1v7l1 1 1 19 1 1v7l1 1 1 17 1 1v8l1 1v6l1 1v9l1 1v8l1 1v8l1 1v8l1 1v8l1 1v8l1 1q-1 4 1 6l8 5h2l11 5h3l8 3 8 1 1 1h4l1 1 11 1 1 1 13 1 1 1h8l1 1h8l1 1h10l1 1h12l1 1h17l1 1h30l1 1h38l1-1h29l1-1h17l1-1h12l1-1 20-1 1-1 15-1 1-1h6l1-1h5l6-2h4l1-1h4l1-1 11-2 12-4 9-5 3-4q-1-5 1-5l1-17 1-1v-8l1-1v-8l1-1v-9l1-1v-8l1-1v-6l1-1 1-17 1-1v-8l1-1v-10l1-1 1-14 1-1 1-17 1-1v-8l1-1v-8l1-1v-8l1-1v-8l-8 5-15 5-8 1-5 2h-4l-1 1-10 1-1 1-13 1-1 1h-7l-1 1h-7l-1 1h-9l-1 1h-10l-1 1h-12l-1 1h-15l-1 1h-22l-1 1h-91l-1-1h-22l-1-1h-15l-1-1h-12l-1-1-20-1-1-1-15-1-1-1-13-1-6-2h-5l-6-2h-4l-1-1-7-1-15-5z" opacity=".996"/><path fill="#b75a32" stroke="#b75a32" d="m173.5 181 3.5 3.5q-1.2 5.3 1.5 6.5l3 1 1.5-.5-1.5 3.5-7-2q-4 4-12 4v-1q6.1-1.4 9-6 .5 2.5 4 2 2.5-1 1-2l-4.5-2.5 2-1q-1.9-2-.5-5.5Zm199 0 3.5.5-3.5.5zm-60 3 4.5.5-4.5.5zm-1 2 4.5.5-4.5.5zm52 1 .5.5-2.5 2.5-.5-.5zm50 0 .5 2.5h-1zm32 0 4 4h3q1.3-2.2 2.5.5l-.5 1.5-4.5 2.5v3l-3.5 4.5q-3.8 3.7-11 4-1.5-1 1-2l5.5-4.5 2.5-4.5 5.5-1.5-.5-2.5-5 1-.5-4.5zm-248 3q1.5 1-1 2l-1.5-.5zm69 0 7.5 6.5 2.5 5.5 3 1 15.5.5-.5 2.5h-17l-1-1q-2 .5-1.5 3.5l-6.5 6.5-5 2h-9v-1l5-1 6.5-5.5 2.5-4.5 7.5-.5-.5-2.5q-4.7-1.2-6 1l.5-1.5-1-2q1.7-.7 1-4l-2-1 1-1-3-3zm124 1 5.5 4.5 2.5 4.5q3.2.7 4-1h10l.5 1.5-1.5 1.5h-8l-1 1-4.5.5q-.6 5.9-4.5 8.5l-9 4h-5v-1l4-1 4.5-3.5 4.5-7.5 5.5-.5-.5-2.5-5.5-.5 1-5-2-1zm-173 1 3.5 3.5q-.5 3 1.5 3.5h6l4.5 1.5-.5 2.5-11-1-5 6-7 3h-11v-1h5l3-1 6.5-5.5 1.5-2.5q4.8-1.3 6 1l1.5-2.5-7-2 .5-1.5 1.5.5zm200 0 3.5.5-3.5.5zm-86 2 7.5 6.5 1 2-5.5.5.5-1.5-.5-1.5-1.5.5 1-3-2-1zm-94 1q1.1 2.4 4.5 2.5l-2.5.5-2.5-2.5zm119 2 .5 3.5h-1zm15 0 1.5.5-2.5 1.5q-1.5-1 1-2Zm-9 2 2.5.5-2.5.5zm4 0 2.5.5-2.5.5zm-15 3 5.5.5-.5 2.5q-3.2-.7-4 1l-11.5.5-1 5-6.5 6.5-10 3q-1.5-1 1-2l6.5-5.5 2.5-7.5 7.5-.5.5-2.5h9zm-50 1 5.5.5-5.5.5zm-64 7 2.5 2.5-.5.5-2.5-2.5zm62 5 2.5 2.5-.5.5-2.5-2.5z" opacity=".996"/><path fill="#da819d" stroke="#da819d" d="m217.5 41 4.5.5-1 21 .5 1.5q-1-2-2 0l-4 3-3-3-7-3-1.5.5q2.3-1.2 1-6l3-6 5.5-6.5zm54 1q3.8-.7 4.5 1.5l-.5 16.5-5 3q-1-2-2 0l-2-2-8.5-3.5 2-6 4.5-5.5zm159 0 2.5.5q-2 1 0 2v6l-1 1v11l-1.5 1.5-7 4-7.5-5.5 1-5 3-6 5.5-6.5zm-103 2 2.5.5v14l-1.5 1.5-5 3-5-3-6.5-1.5 3-2q2.7-6.8 8.5-10.5zm52 0 3.5.5-.5 18.5-4 3-2-2-6-3h-3l-1.5-1.5q2.4-9.1 9.5-13.5zm-104 22 .5 6.5h-1zm-71 1 .5 2.5h-1zm178 1 .5 6.5h-1zm-53 8 2.5 1.5-1.5.5q-2.5-1-1-2Zm-108 57 2.5 2.5-.5.5-2.5-2.5zm201 3 4.5 4.5-.5.5-4.5-4.5zm-251 2 2.5 1.5h-3zm140 1 .5.5-4.5 4.5-.5-.5zm83 6 3.5 2.5-.5.5-2-2q-2.4-.1-1-1Zm-86 3 .5.5-3.5 3.5-.5-.5zm-27 2 4.5 4.5-.5.5-4.5-4.5zm149 1 .5.5-5.5 5.5-.5-.5zm-187 1 2.5.5-1.5 1.5q-2.5-1-1-2Zm2 3 4.5 4.5-.5.5-4.5-4.5zm-51 4 .5.5-5.5 5.5-.5-.5zm173 0 1 1 1.5-.5-1.5 1.5q-2.5-1-1-2Zm81 1 .5.5-3.5 3.5-.5-.5zm-22 1 .5.5-3.5 3.5-.5-.5zm-51 1 2.5 2.5-.5.5-2.5-2.5zm-153 2 .5.5-5.5 5.5-.5-.5zm122 1 .5 2.5h-1zm-3 2 .5.5-4.5 4.5-.5-.5zm40 1 1.5 2.5-1.5.5zm-226 1 1.5.5.5 1.5 1.5.5v4l-3.5 3.5-7 1q-2.5-1-1.5-5.5l3.5-3.5zm-2.5 4-2 2 1 1q3 1 3-1zm37.5-4 .5.5-2.5 2.5-.5-.5zm215 0 .5 3.5h-1l-.5-1.5-2 2-.5-.5zm37 0q2.5 1 1 2l-1.5-.5zm-173 1 .5.5-2.5 2.5-.5-.5zm193 0h2l3.5 2.5v2l-2.5 3.5-5 3h-3q-2.5-1-1.5-5.5zm-.5 4-2 3h2l1-2zm-276.5-3 .5 2.5h-1zm55 2 1.5.5-.5 1.5q-2.5-1-1-2Zm68 3 1.5 3.5-1.5.5zm30 0 .5.5-2.5 2.5-.5-.5zm20 1 .5.5-3.5 3.5-.5-.5zm64 1h2l3.5 2.5v4l-2.5 3.5-6 3h-4q-2.5-1-1.5-5.5l4.5-5.5zm-1.5 5q-2 1-2 4h2l2-3zm-227.5-2h2l3.5 2.5v3l-3.5 3.5q-2.5 2-8 1-2-.5-1.5-3.5l4.5-5.5zm-1.5 4-1 3h2l1-2zm45.5-4 .5.5-6.5 6.5-1.5-.5zm11 3 1.5.5-.5 1.5 2.5.5q.8 5.8-2.5 7.5l-4 2h-7l-1.5-3.5 5.5-6.5zm-3.5 5-3 3h4l1-2zm125.5-5 1 2q3-.5 3.5 1.5v4l-3.5 4.5-4 2h-4q-1-2-2 0l-1.5-1.5q-.1-8.1 5.5-10.5zm-3.5 6-2 2 2 2 2-1v-2zm-10.5-5 .5.5-4.5 4.5-.5-.5zm-69 2 .5.5-6.5 6.5-.5-.5zm22 0 3.5.5-.5 1.5q3-.5 3.5 1.5v3l-2.5 4.5-7 4h-6q-2.7-1.2-1.5-6.5l4.5-5.5zm-2.5 6-3 4h4q2 0 1-3zm-90.5-2 .5 5.5h-1zm53 4 .5 3.5h-1zm-84 69 3.5.5-3.5.5zm-62 7 4.5 4.5-.5.5-4.5-4.5zm351 4 .5.5-6.5 6.5-.5-.5zm-2 21 .5.5-2.5 2.5-.5-.5zm37 12h4l5 2 9 1 1 1 15 3 4 2h3l15 5 19 9 6 4 6.5 6.5 2 4v9q-2.9 6.1-8 10l25.5 10.5 11 7 8.5 8.5 4 9v6l-3 7-4.5 5.5-12 9-24 11-9 3h-3l-4 2h-3l-4 2-8 1-1 1-8 1-1 1h-4l-1 1h-5l-1 1-11 1-1 1h-6l-1 1h-7l-1 1-19 1-1 1h-13l-1 1h-17l-1 1h-42l-1-1h-17l-1-1h-12l-1-1h-11l-1-1h-8l-1-1h-6l-1-1h-7l-1-1-11-1-1-1h-4l-1-1h-4l-1-1h-4l-6-2h-7l-1 1h-4l-1 1h-4l-1 1-9 1-1 1h-5l-1 1h-6l-1 1-13 1-1 1-19 1-1 1h-13l-1 1h-17l-1 1h-42l-1-1h-17l-1-1h-13l-1-1-19-1-1-1h-7l-1-1h-6l-1-1h-5l-1-1h-5l-1-1h-5l-1-1-9-1-1-1h-3l-1-1h-3l-9-3h-3l-4-2h-3l-9-4-5-1-3-2h-2l-14-7L7 417.5l-4-5-3-7v-6l4-9 8.5-8.5 11-7 13-6h2l3-2 12-4 10-2 2.5-1.5-3-5-1-5 3-8 6.5-6.5 4-3 16-8h2l3-2 15-5h3l9-3 .5 8.5 1 1v7l1 1v8l1 1v8l1 1v8l1 1v8l1 1v7l1 1v5l5.5 6.5 15 7h3l11 4h4l1 1h4l1 1h4l6 2h5l1 1 13 1 1 1h8l1 1h8l1 1h10l1 1h12l1 1h16l1 1h27l1 1h47l1-1h27l1-1h16l1-1h12l1-1 20-1 1-1h7l1-1h7l1-1h5l1-1 11-1 1-1h4l1-1h4l1-1 11-2 12-4q8.4-3.1 13.5-9.5 1.7-1.8 1-6l1-1v-8l1-1v-8l1-1v-8l1-1v-8l1-1v-7l1-1v-8l1-1v-8l1-1z" opacity=".996"/><path fill="#da819d" stroke="#da819d" d="m268.5 373 5.5.5-5.5.5zm31 34 6.5.5-6.5.5zm27 0 6.5.5-6.5.5z" opacity=".996"/><path fill="#88bbdf" stroke="#88bbdf" d="m260.5 21 3.5.5-3.5.5zm9 0 2.5.5-2.5.5zm45 0 7.5.5-7.5.5zm10 0 5.5.5-5.5.5zm-68 3 5.5 1.5-3.5.5-2.5-1.5zm24 0 1.5.5-2.5 1.5-10 1v-1h5zm29 0 6 2h13l1-1 6-1q2.5 1 1 2l-2-1-5 2h-15q-.7-1.7-4-1-2.5-1-1-2Zm-46 2 4.5.5-4.5.5zm102 0 4 2h16l5-2 .5 1.5-4.5 1.5h-18l-3.5-1.5zm-163 1 5 2h15l5-2 1 2 1-1h7l.5 1.5-1.5-.5-1 1q-6.8-1.3-9.5 1.5l6.5 2.5h7l1 1 1-1h9q.8-1.8 4-1l1.5-1.5-2-1 1.5-1.5 4 4 3.5.5-4 1v13l-1 1v6l1 1v15l-1.5 2.5-1-22-6 5h-2l-4-5-4.5-2.5-1-5-1.5-1.5-4.5 3.5-2 6-3.5 5.5-3.5.5-.5 15.5q-2.6-2.4-1.5-8.5l1-1v-22l-3-1 3-1q-1.7-8.2 3-10l-1.5-.5-1 1h-16l-2-1v2l-4.5-2.5zm22.5 6-2 2v20l3 1 2-2 2-7 2-3 4-3 3 1 1 6 9 7 5-4 2-2v-6l1-1v-9l-5 2h-11l-1 1-1-1h-9z" opacity=".992"/><path fill="#88bbdf" stroke="#88bbdf" d="M240.5 28h10l1.5 1.5-5.5.5q-.7-1.7-4-1l-1 1q-2.5-1-1-2Zm123 0 .5 6.5 2 2v4l4.5 4.5 2.5-1.5 1.5-2.5-.5 1.5-2.5 3.5-5-4-.5 5.5-1 1v10l1 2q-2 1 0 2l-.5 13.5-1.5-.5-.5-27.5q-.7 1.7-4 1-.7-1.7-4-1l-5-3h-2l-3.5 2.5q-2.3 3.2-1 10 2 1 1 5l-2.5.5q-2.5-1-1.5-5.5 2-1 0-2v-2l-5.5-5.5-1.5-.5-.5-1.5-1.5.5-.5 29.5-1.5-.5 1-1v-9q-2.2-1.2-1-6l1-1v-20l-.5-.5-4 4-9-8q-1.8-1.7-6-1l-.5 1.5 1 1v24l-1 1v6q2 1 0 2l1 8q-1 1.5-2-1v-25l-1.5-2.5-7 1q-1.3-2.2-6-1l-4 4h-4l-9-8-1 25-.5-19.5q-2.2-1.2-1-6l1-2-2-5 6.5-5.5 2.5 1.5-.5 1.5-4.5.5 4.5 2.5h8l1 1 2-1q1 2 2 0h8l4.5-1.5-.5-1.5-3.5-.5 3.5-1.5 2 1q1-2 5-1l6.5 4.5 3.5 4.5 5.5-4.5 2.5-4.5 3 2 3.5.5-6 1 .5 1.5 3 1h9l1 1 2-1q1 2 2 0h8l3.5-1.5-1.5-1.5-4.5-.5 4.5-.5 1.5.5zM334 33l-1 2q1 1 2-1zm-55 3q-3 1-2 5l12 10h2l4-4h7l1 1q1-2 6-1 1 2 2 0V36l-4 2h-8l-1 1-15-1zm85 1-3 2h-7l-1 1h-9l-1-1h-6q-1-2-4-1l-1 6 7 5 2 4h2q0-6 5-9h3l3 2 6 1 1 1 3-1 1-2q1-7-1-8Zm-21 20v3h1zm68.5-29 3 2h18l3-2q2.5 1 1 2-3.2-.7-4 1h-18q-.7-1.7-4-1l-.5 5.5q3.4.1 4.5 2.5h9l3 3h2l6-6 .5.5-.5 1.5 2.5-1.5q-2.2-1.2.5-2.5l1 2 1.5.5-4 2 .5 1.5q3.3-.7 4 1l13.5.5-13.5.5-6-2-1 2-1-3-4 4h-3q-1.5-4.5-9-3l-.5 7.5-1 1v13l1 3q-2 1 0 2l-.5 11.5-1.5-.5q2-1 0-2v-30l1-3-1.5-.5q-2.2 4.3-10 3v-1q6.1 1.1 8.5-1.5l-4.5-.5-1 1h-6v-1l10-1 2.5-1.5-4-2q-1.5-7 2.5-8.5Z" opacity=".992"/><path fill="#88bbdf" stroke="#88bbdf" d="m391.5 30 1 5 2.5.5q-2.1 2.4-7.5 1.5l-1.5 1.5 2.5 1.5 9 1 1.5-.5-.5 1.5h-7l-1-1-6-1 .5 1.5 7.5 11.5 3.5-2.5q.9-4.6 4.5-6.5l1.5.5-4 3q-.9 4.6-4.5 6.5-3 .5-3.5-1.5-.6-5.9-4.5-8.5l-1 21-.5-6.5-1-1v-13l1-2-1-3 1-2q-.5-3-4.5-2.5l-2 6-1.5-.5 2-2q-.7-3.7 1.5-4.5h2l3 3h2l4.5-1.5zm-185 1 4.5.5-4.5.5zm59 0 1.5.5-3.5 1.5v-1zm4 0 3.5 2.5-.5 3.5-2-5q-2.4-.1-1-1Zm-91 1q2.5 1 1 2l-2.5-.5zm21 0 4.5 2.5 1 3-1 1-.5 23.5-.5-15.5-1.5-1.5-1.5-.5 1.5-.5 1.5.5v-6l1-1q-1.2-2.7-2.5-.5-4-1-5 1h-7l-.5-1.5 1.5.5 10-1 1.5-1.5-4-1zm14 0 2.5 1.5 3 5q-1 1.5-2-1l-4-5zm-38 2 2 2 10.5 1.5-6.5.5-6.5-2.5zm227 1 3.5.5-3.5.5zm48 0 5.5.5-5.5.5z" opacity=".992"/><path fill="#88bbdf" stroke="#88bbdf" d="m173.5 36 .5 5.5q5.9 4.6 9.5 11.5h2l3.5-3.5 1.5-2.5 6-3v1l-3 1-8 8h-2l-9-11-.5 1.5 1 1v7l-1 1-.5 6.5zm100 2 1.5.5-2.5 3.5-.5-2.5zm186 0 1.5.5q-1.4 2.1-5.5 1.5v-1q3.3.8 4-1Zm2 3 .5 29.5h-1v-19l-1.5-2.5-7.5-.5 7.5-.5 1.5.5zm-28 1 1 2 8 7h2l5-4q1.5 1-1 2l-4 3h-2l-8-7-1 26-1.5-.5v-7l1-1zm-260 21 .5 6.5h-1zm30 0 .5 6.5 1 1q-1 1.5-2-1zm180 6 .5 7.5h-1zm-107 1 .5 6.5h-1z" opacity=".992"/><path fill="#a9cee7" stroke="#a9cee7" d="m264.5 21 2.5.5-.5 1.5-8.5.5 1 1-.5 1.5 8-1v1l-8 1-2-1-.5 3.5 3 3-.5.5q-5-1.5-3.5-9.5l2.5-1.5h6zm8 0 4 1q1-2 2 0 3-.5 3.5 1.5l-2 1 .5 1.5-2.5-1.5 2-1-11-1zm41 0 1 1 7.5.5-11 1 2 1-1.5.5-2-1 .5 1.5-1 1 .5 5.5 1.5.5-1.5.5-1.5-1.5v-7l2.5-2.5zm17 0 4.5 2.5-2.5 1.5v-2l-8.5-.5 5.5-.5zm-114 3 1 1h7l4.5 2.5-.5 1.5-1-2-1.5.5.5 1.5q-1.5-4.5-9-3-2.5-1-1-2Zm150 0 10.5.5-6.5.5-4 2-1.5-.5v8l1 1q-1 1.5-2-1 1-5.5-1-8zm13 0h9l1.5 1.5q-1.2 2.8-2.5.5l-3-1h-5zm-176 1 11.5.5-11 1-.5 1.5-1-1-1.5.5.5-1.5zm66 0h5l4.5 1.5-3.5.5q-1.3-2.2-6-1v1l1.5.5-3.5.5-.5-.5z" opacity=".996"/><path fill="#a9cee7" stroke="#a9cee7" d="m315.5 25 5.5.5-5.5.5zm9 0 4.5.5-4.5.5zm10 0 1.5.5.5 7.5 11.5.5-.5 1.5h-7l-5-2q-2.7 1.3-.5 2.5l-.5 1.5-1.5-3.5 2-1q-2-1 0-2v-4zm-23 1 2.5.5-2.5.5zm19 0 2.5.5-2.5.5zm84 0 7.5.5-2.5 1.5q-1-2-2 0-6-1.5-7.5 1.5l2 6-1.5.5-1.5-7.5zm10 0h8l4.5 2.5-1.5-.5-1 1-1-1q-4.2.7-6-1-1 2-2 0-2.4-.1-1-1Zm-107 1 9.5.5-9.5.5zm52 0 3.5.5-3.5.5zm13 0 3.5.5-3.5.5zm-175 1 4.5.5-4.5.5z" opacity=".996"/><path fill="#a9cee7" stroke="#a9cee7" d="M217.5 28q5.4-.9 7.5 1.5l-3.5 4.5-.5-1.5.5-1.5-8.5.5-.5 1.5-1.5-.5-.5-1.5q-4-1-5 1l-1-2-1.5.5 2.5-1.5 1 1h15l1 1 .5-1.5-5.5-.5zm-17 1 1.5.5-.5 3.5-1.5-1.5 1-1zm42 0 3.5.5-3.5.5zm10 0 1.5.5q-.5 2-3.5 1.5v-1zm118 0 14.5.5-14.5.5zm44 0 2.5.5-4.5 1.5v-1zm16 0 4.5 1.5-1.5.5-3-1zm-203 1 3.5.5-3.5.5zm39 0 3.5.5-2.5 1.5q-2.5-1-1-2Zm15 0 3 2 9.5.5-1.5 1.5h-8l-1-2-2-1-2 2-.5-.5zm109 0 .5 5.5-2.5.5v-1l1.5-.5z" opacity=".996"/><path fill="#a9cee7" stroke="#a9cee7" d="M254.5 31q1.5 1-1 2l-2.5-.5zm162 0 14.5.5-14.5.5zm-237 1 7.5.5q-1.2 2.8-6.5 1.5-2.5-1-1-2Zm10 0 9.5.5-1.5 1.5h-7q-2.5-1-1-2Zm72 0 2.5 1.5-1.5.5q-2.5-1-1-2Zm35 0 10.5.5q-2.7 2.8-9.5 1.5-2.5-1-1-2Zm-121 1 1.5.5.5 1.5 1.5.5-2 1 4 1-3.5.5-2-1-.5 4.5 5 5-.5.5-1-1-1.5.5q2.3-1.2-.5-2.5l-2 1-.5-1.5q2-1 0-2 1.3-4.7-1-6zm.5 1-1 2h2q1-1-1-2Zm48.5-1 4.5 1.5-2.5.5-2-1-.5 20.5 1.5.5 2-3 1.5 2.5-1.5 1.5q-1-2-2 0l-2.5-1.5v-20zm7 0 6.5.5-6.5.5zm12 0 6.5.5-6.5.5zm12 0 1.5.5-.5 8.5-.5-7.5zm22 0 .5.5-2.5 2.5-.5-.5zm41 0 2.5 2.5-.5.5-2-2-1.5.5zm32 0 10.5.5-4.5 1.5q-1-2-2 0l-4.5-.5zm86 0-.5 1.5 1 1-1 1 1 1-1.5 2.5-1.5-.5 2-1-.5-1.5-5 4-1-1-1.5.5 5.5-5.5 1.5.5zm-235 1q1.5 1-1 2l-1.5-.5zm38 0 1 1 9.5.5-9.5.5q-1-2-2 0l-8.5-.5 8.5-.5zm34 0 1 3 1.5.5-3.5 1.5-.5-1.5zm6 0 1.5.5-.5 1.5q-2.5-1-1-2Zm29 0 1 2 1.5.5v10l-2.5 2.5-.5-.5 2-2-.5-9.5-2 1v-1l1.5-.5-2-1zm3 0q2.8 1.3 1.5 6.5h-1v-5zm20 0-.5 1.5-1 2q1.8.8 1 4h-1l-.5-1.5q-1.5 3.5-3 1l-2-1-1.5.5 1-1-2-2 .5-.5 4 3zm31 0-.5 1.5 3 3-.5 6.5-1-7-2 1v-1l1.5-.5q-3.7-1.8-.5-3.5Zm20 0 2.5 2.5-.5.5-2.5-2.5zm-193 1 1 1 5.5.5-5.5.5q-2.5-1-1-2Zm212 0 1 1h6l4.5 2.5-1.5-.5-10-1-1.5.5zm44 0q2.5 1 1 2l-8.5-.5 6.5-.5z" opacity=".996"/><path fill="#a9cee7" stroke="#a9cee7" d="M182.5 36h5l2 2 5.5.5-11.5.5v-1l4.5-.5-5.5-.5zm20 0 2.5 2.5v10h-1v-10l-2-2zm76 0-.5 1.5q-.7 4.3 2 5l-3-1-.5 1.5-.5-1.5q1.8-.7 1-4zm5 0 3.5.5-3.5.5zm19 0 2.5.5-2.5.5zm75 0 1.5 3.5q-1 1.5-2-1zm9 0 1 1 4.5.5-4.5.5-1 1zm7 0 3.5.5-.5 1.5-3-1zm56 0h9l3.5 2.5-1 3v7l-1.5 1.5.5-1.5v-8l-2.5-3.5h-8zm-252 1 3.5.5-3.5.5zm21 0v2l1.5.5-1.5.5q-3-1.5 0-3Zm119 0 3.5.5-3.5.5zm20 0 2.5.5-2.5.5zm9 0 .5 2.5h-1zm53 0 3.5.5-3.5.5zm-136 1 5.5.5-5.5.5zm15 0 6.5.5-6.5.5zm-24 1 .5 2.5-1.5.5.5-1.5zm64 0 4.5.5-4.5.5zm15 0 6.5.5-6.5.5zm35 0 2.5.5-2.5.5zm52 0 5.5.5-8.5 1.5v-1z" opacity=".996"/><path fill="#a9cee7" stroke="#a9cee7" d="M449.5 39h5l3.5 1.5-3.5.5q-1-2-5-1zm-74 1 .5 1.5q-1 2.5-2 1zm19 0 3.5.5-3.5.5zm6 0 4.5.5-5 1 6.5.5q1-2 5-1 1 2 2 0l1.5.5-.5 2.5-1-2q-1 2-2 0l-1.5.5.5 1.5-1-1h-6v2l-3-2-6.5-.5 4.5-.5zm-166 1 2 1 1.5-.5-2.5 1.5q-2.5-1-1-2Zm133 0 3.5 3.5-1.5 1.5-1.5-1.5q2.3-1.2-.5-2.5l-1.5.5zm21 0 2.5.5-2.5.5zm55 0 7.5.5-7.5.5zm-111 1 5.5 6.5q-1.5 3-3 0 2.3-1.2-.5-2.5l-1.5 1.5-.5 16.5-.5-17.5 2-1q-3-1-1.5-3.5Zm53 0 3.5 3.5-1.5 1.5.5-1.5-1.5-1.5-1.5.5 1-1zm-189 1 4.5.5q-.5 2-3.5 1.5-2.5-1-1-2Zm85 0 3.5 3.5-.5.5-3.5-3.5zm-50 1q2.5 1 1 2l-1-1-1.5.5zm115 0-.5 1.5 1 1-1.5 1.5-1.5-.5 1 3h-1l-1-3zm5 0 3.5 1.5-2.5 1.5v-2l-4 1v-1z" opacity=".996"/><path fill="#a9cee7" stroke="#a9cee7" d="M399.5 44q2.5 1 1 2-1.2-2.2-2.5.5l.5 1.5-1.5-1.5zm37 0 6 6h2l4-3q1 2 2 0l2.5.5q-.5 2-3.5 1.5l-2-1 .5 1.5-2.5 2.5-3-1-1 1-3.5-3.5q2.3-1.2-.5-2.5l-1 1-1.5-.5-.5 12.5-.5-13.5zm-244 1q2.5 1 1 2l-1-1-1.5.5zm86 0 .5 2.5h-1zm-40 1 1.5 3.5q-1 1.5-2-1zm57 0 4.5.5-4.5.5zm-93 1 .5 14.5 1 1-1 1-.5 4.5zm27 0 1.5 3.5h-1zm64 0 .5.5-3.5 3.5q-3 .5-3.5-1.5l1.5.5h2zm122 0 .5 13.5h-1zm41 0 2.5.5-2.5.5zm-199 1 .5 6.5h-1zm108 0 .5 10.5h-1zm-177 1 .5.5-2 2 1 1-1.5 1.5-4-2-1.5.5q1.2-2.7 2.5-.5h2zm54 0 3.5 2.5h-3l.5-1.5-2 1q-1.5-1 1-2Zm34 0 .5 19.5 1 1v6h-1q1.2-4.7-1-6zm177 0 2.5.5-2.5.5zm-111 1 .5 2.5-2.5 1.5-.5-.5 2-2zm53 0 1.5 1.5-2.5 2.5-3.5-2.5 1.5.5zm65 1 .5 19.5 1 1q-1 1.5-2-1zm-172 1 2.5.5-2.5.5zm75 0 .5 19.5h-1zm-189 1 .5 16.5q-1 2.5-2 1l1-1v-6l-1-3 1-1zm81 0 .5 11.5h-1zm89 1 .5 3.5-1.5 2.5-1.5-.5-1-3 3 1zm-121 3 2.5.5-2 1-.5 11.5zm160 1 .5 6.5 1 1v10h-1v-6l-1-1zm-72 2 .5 6.5h-1zm30 2 2.5 1.5-1.5.5q-2.5-1-1-2Zm-11 3 .5 9.5h-1zm-19 3 .5 4.5h-1zm-90 3 1.5 2.5-1.5.5zm36 0 .5 2.5-1.5.5.5-1.5z" opacity=".996"/><path fill="#be2730" stroke="#be2730" d="M269.5 12q2.8 1.3 1.5 6.5l-2.5 1.5v-1l1.5-.5v-5zm52 0-.5 1.5v4l2 3h-1l-.5-1.5-1.5-.5q-1.2-5.2 1.5-6.5Zm55 2 .5 1.5q-1.7.8-1 4l3 3-.5.5-1.5-.5-2-3v-3zm-163 1 .5 1.5q-1.7.8-1 4l3 3-.5.5-3.5-3.5v-3zm28 2q2.8 1.3 1.5 6.5l-1.5.5.5-1.5zm183 0 1.5.5q1.3 6.3-2.5 7.5l-.5-.5 2-2v-4zm-132 3 .5 1.5q-2.3 1.3-1 6l2 1 1 3h-1l-3-4v-5zm-103 2 1.5.5 1 4-2.5 3.5-.5-1.5 2-3-2-3zm157 0 1.5.5-2 3v2l3 4-.5.5-2.5-2.5-1-4zm54 3q2.8 1.3 1.5 6.5l-2.5 3.5-1.5-.5q4.3-1.3 3-8zm-160 1q1.5 1-1 2l-1.5-.5zm206 0-.5 1.5-1 3 3 4-.5.5-2.5-2.5-1-3zm-286 143q6.6.9 9.5 5.5l2 6v3l-2 5-4.5 4.5-2 1-3-1-4-1-5.5-4.5-3-5 3.5-1.5h4l5.5-4.5 1-4-2-3zm308 0q7.5.5 10.5 5.5l2 4v7q-1.7 4.8-5.5 7.5l-4 1-6-2-5.5-4.5-2-3 1-1-.5-1.5q8.1.1 10.5-5.5l1-5-2-2zm-40 8q9 1 12.5 7.5l1 2v10l-5.5 6.5-5 2-2-2-6-2-4.5-4.5-1-2 10-6 2-3 1-5-3-3zm-230 2 8 2 5.5 5.5 2 4v6l-2 5-4.5 4.5-6 2v-1l1.5-.5q-9.1-1.4-13-8l-2-4 1.5-1.5 7-1 4.5-4.5-.5-5.5-2.5-1.5zm174 4 8 1 7.5 6.5 2 4v8l-4.5 7.5-5 3h-2l-7-3-7.5-7.5 1-1-.5-1.5q1 2 2 0 6.6-.9 9.5-5.5l2-4v-3l-3.5-3.5h-2zm-119 1 5 1 5.5 4.5 3 6v7l-1 3-4.5 5.5-3 2-5 1v-1l2.5-.5q-9.5-1.5-14-8l-2-6 8.5-1.5 5.5-4.5q1.7-1.8 1-6l-2-2zm65 3 4 1 5.5 4.5 3 5 1 7-3 8-4.5 4.5-6 2v-2h-4l-4-2-6.5-6.5-1-4 6.5-1.5q4.8-1.7 7.5-5.5l2-4v-4q-1.7-.7-.5-2.5Z" opacity=".996"/><path fill="#cf3d71" stroke="#cf3d71" d="M170.5 73h5l3.5 1.5-2 1 1 1v6l-.5 1.5 5.5 1.5-3.5.5-1-1-6-1-1.5-1.5v-8zm260 1h5l6.5 2.5-1.5.5-3-1 .5 1.5-.5 5.5-1.5.5 3 1-3.5.5-4.5-2.5v-5q-1.9-.9-.5-3.5Zm-212 1 1 1h7l5.5 2.5-1.5.5-3-1 .5 1.5v8l-1 1 8 2-4.5.5-1-1h-3l-6-2-1.5-1.5v-9q-1.7-.7-.5-2.5Zm162 3 8 1 2.5 1.5-3 1 1 1v6l-2 1 6 2-2.5.5-9.5-3.5v-7q-1.9-.9-.5-3.5Zm-107 1h5l6.5 2.5-1.5.5-3-1v1l1.5.5-.5 8.5-1.5.5 6 2-3.5.5-8.5-3.5q.8-3.2-1-4zm54 0h5l7.5 2.5-3 1-.5 8.5-1.5.5 7 2-3.5.5-10.5-3.5v-9q-1.7-.7-.5-2.5Zm113 6 2.5.5-2.5.5zm-283 84q3-.5 3.5 1.5l1 4-4.5 5.5-2 1q-1-2-2 0l-4.5-.5 6.5-1.5 3.5-3.5-.5-4.5-1.5-.5zm307 0q4.8-.7 5.5 2.5-.2 7.3-5.5 9.5l-6 1v-1l4-1 4.5-3.5 1-4-4-3zm-38 8 4.5 3.5-1 5-2.5 3.5-6 3h-5v-1l6-1 4.5-3.5q1.7-1.8 1-6l-3-2zm-231 3h2l3.5 2.5q1.3 6.3-2.5 7.5l-6 3h-2l-4.5-2.5 1.5.5h6l5.5-4.5-.5-3.5-3.5-2.5zm55 4q4-.5 4.5 2.5v4l-4.5 5.5h-3l-3 2h-2l-3.5-1.5 6.5-.5 5.5-3.5q1.7-1.8 1-6l-3-1zm121 0h3l3.5 3.5v3l-4.5 6.5h-2l-2 2q-3.2-.7-4 1l-4.5-1.5q1.3-2.7 2.5-.5h4l6.5-4.5q1.7-1.8 1-6l-4-2zm-58 3 4.5.5q1.7 1.8 1 6l-3.5 5.5-1.5.5-.5 1.5h-2l-3 2h-8q-2.5-1-1-2l1 1h6l7.5-4.5 2-4v-3l-4-2zm-15 10 .5 2.5h-1zm-178 54q7.7 3.8 12.5 10.5 3 7.5 9.5 11.5l6 3h10l17-9 6-2h11l6.5 4.5 3 6 8.5 9.5 6 4 6.5 2.5.5 1.5q.8-1.7 4-1v2l9.5-.5-.5-1.5 3 1 1-2 5-2 6-6 11-6 6-2h5l1-1h10l1 1h5l3 1 8 4 7.5 6.5q1.8 5.2 6 8l-.5 1.5 1.5.5-.5 1.5h-11l-1.5 1.5 2 2-.5.5-2.5-2.5q2.3-1.2-.5-2.5l-2 1v-2l-2 1-4.5-2.5.5-1.5-3 1-1-2-3 1-1-1h-16q-.7 1.8-4 1l-1.5-.5-.5 1.5-2-1-1 2-2-1v2l-2-1v2l-2-1v2l-2-1q-1.5 3.5-3 1h-41l-1.5 1.5 3 3-.5.5-6.5-6.5q2.3-1.2-.5-2.5l-3.5-2.5-5.5-7.5-5-2h-8l-6 2-15 8-4 1-1.5-.5-.5 1.5-6.5-.5-.5-1.5-2 1-11.5-10.5-9.5-11.5-1.5-.5q.8-3.2-1-4v-8l-1-1zm380 13 10.5.5-1 3v7l-1 1-.5 4.5q-3.2-.7-4 1h-6l-1 1h-4l-6 2-13.5 8.5q2.3 1.3-.5 2.5l-5 3h-55l-2 1v-1l1.5-.5-3.5-.5-1 1h-10q-1.2-2.2-6-1l-1 1h-27q-2.5-1-1-2l2 1v-2l1.5.5 1.5-2.5 1.5.5.5-1.5 1.5.5 1.5-2.5 18-8h3l5-2h11l9 3q5.8 7.3 16.5 9.5l.5 1.5 2-1h10l2 1v-2l3 1 1-2h2l7-4 18-17 10-4 8-1zM442 294v1h3zm-43 2v1h10zm-65.5 6 10.5.5-10.5.5zm-105 8 3.5.5-3.5.5zm208 0 3.5.5-3.5.5zm6 0 2.5.5-2.5.5zm8 19 2.5.5-2.5.5zm-232 9 2.5.5-2.5.5zm236 2 2.5.5-2.5.5zm-305 1 3.5 3.5-.5.5-3.5-3.5zm29 6 2.5.5-2.5.5zm-19 4 6 4 6 2h6l3 1 1-1h6l5-2v1l-5 2h-4l-1 1h-6l-1-1h-4l-6-2-5-3q-2.5-1-1-2Zm44 0 2.5.5-2.5.5zm27 0 3 1 8 6h13q1.5-1-1-2l-5.5-3.5 1.5.5 6 4 10 4h11l1-1h4l4-2h3l13-6v1l-10.5 4.5 20.5.5 3-2 8-2v1l-10 3-15 8h-2l-10 5h-3l-5 2h-13l-11-5-17-13-6-3zm183 0q1.5 1-1 2l-5.5 3.5 8.5.5 1 1 9-7 .5.5-3.5 3.5-16 13-9 5h-2l-3 2h-4l-1 1h-8q-.7-1.7-4-1l-8-5-4-1-16-10-8.5-3.5 1.5-.5 6 3h16q1.5-1-1-2l-4.5-2.5 1.5.5 11 5 4 3 7 1 1 1h4l1-1h5l6-2q9.2-3.8 16-10Zm-89 2 9.5.5-9.5.5zm11 1 2.5.5-2.5.5zm-101 53 2.5.5-2.5.5zm13 1 2.5.5-2.5.5zm135 0 2.5.5-2.5.5zm-118 1 4.5.5-4.5.5zm100 0 3.5.5-3.5.5zm-72 1 14.5.5-14.5.5zm33 0 14.5.5-14.5.5z" opacity=".996"/><path fill="#ef7c26" stroke="#ef7c26" d="m381.5 2-.5 1.5 1 2q-5.1.4-6.5 4.5l-4 1v-1l7.5-4.5zm-56 1 1.5.5-.5 3.5zm-88 1 5 5 6.5 3.5q-2 1 0 2 1 4.5-1.5 5.5l.5-1.5q1-5.5-2.5-6.5l-10-6-3.5 5.5v5l4.5 5.5 2.5 1.5.5 1.5 1-1 1 1 1.5-.5-1.5 1.5-1-1-2 2-.5-.5.5-1.5q-5.5-2-8.5-6.5l1-2-1-3 5.5-8.5zm-23 2 .5.5-5 5-.5 1.5-.5-1.5zm103 1 .5.5-2 2-.5 1.5-.5-1.5zm-52 1 .5.5-2.5 2.5-.5-.5zm118 0 2.5 3.5v2l-1.5 2.5-1.5-.5q2.3-1.3 1-6zm45 0 1.5.5-.5 2.5zm-142 1 9 4 2.5 2.5-1.5-.5-7-3-2-2-.5 1.5q1.8.8 1 4h-1l-1-3zm62 1 1.5.5 1 4 4 5-.5.5-3.5-3.5-3-6zm74 1 .5.5-3.5 3.5.5-1.5.5-1.5zm-94 1 .5 2.5-2.5 2.5-.5-.5q2.4-1.1 2.5-4.5Zm42 0 1.5 4.5q-1 1.5-2-1zm-93 1 .5 2.5h-1zm120 1q5.4 1.1 7.5 5.5l1 3h-1q-.9-4.6-4.5-6.5l-3-1zm-204 2 3.5 3.5v2h-1v-2l-3-3z" opacity=".996"/><path fill="#ef7c26" stroke="#ef7c26" d="m240.5 16 1.5.5q-1 2.5-2 1zm59 1 .5 4.5h-1zm81 1 1.5.5-2.5 2.5-3 1q-3-1.5 0-3l2 1zm61 1 .5 4.5h-1zm-86 2 1.5 2.5h-1zm94 0 2.5 2.5-.5.5-2.5-2.5zm-166 2-.5 1.5q-.5 4 2.5 4.5l4.5.5-4.5.5-4.5-3.5zm-101 1 3.5 3.5-.5.5-3.5-2.5zm9 0-.5 1.5 1 2q-1 1.5-2-1zm155 1 .5 2.5q-1 2.5-2 1zm46 0 .5 4.5 2 2-.5.5-3.5-3.5zm-54 1 4.5 3.5-1.5.5-2.5-1.5zm106 2 1.5 2.5h-1zm-7 2 1.5 2.5q-1 1.5-2-1zm-167 53 1.5.5-.5 2.5zm-53 1 .5 2.5h-1zm44 4 2.5.5-2.5.5zm108 2 1.5.5-2.5 1.5q-1.5-1 1-2Zm-172 2 2.5.5-2.5.5zm233 0 2.5.5-2.5.5zm-224 1 2.5.5-2.5.5zm215 0 2.5.5-2.5.5zm-205 1 3.5.5-3.5.5zm194 0 3.5.5-3.5.5zm-181 1 3.5.5-3.5.5zm167 0 4.5.5-4.5.5zm-151 1 4.5.5-4.5.5zm44 0 9.5.5-9.5.5zm91 0 4.5.5-4.5.5zm-114 1 9.5.5-9.5.5zm87 0 10.5.5-10.5.5zm-112 2 2.5.5-2.5.5zm145 0 2.5.5-2.5.5zm-125 1 3.5.5-3.5.5zm104 0 3.5.5-3.5.5zm-64 1 27.5.5-27.5.5zm-139 20 2.5 2.5-.5.5-2.5-2.5zm290 13 3.5.5-3.5.5zm1 3 2.5.5-2.5.5zm-189 8 4.5.5-4.5.5zm0 3 4.5.5-4.5.5zm221 36 1.5.5-.5 1.5q-2.5-1-1-2Zm-369 11 .5.5-2.5 2.5-.5-.5zm357 3 3.5.5-3.5.5zm44 3 .5.5-3.5 3.5-.5-.5zm-293 1 3.5.5-3.5.5zm55 0 2.5.5-2.5.5zm69 0 2.5.5-2.5.5zm55 0 2.5.5-2.5.5zm-184 3 .5.5-2.5 2.5-.5-.5zm134 0 4.5.5-4.5.5zm-80 5 .5.5-3.5 3.5-.5-.5zm65 3 .5.5-3.5 3.5-.5-.5zm-83 4 4.5.5-4.5.5zm-79 3 2.5.5-2.5.5zm277 0 2.5.5-2.5.5zm-16 2 2.5.5-2.5.5zm-236 1 2.5.5-2.5.5zm227 0 2.5.5-2.5.5zm-217 1 2.5.5-2.5.5zm207 0 2.5.5-2.5.5zm-195 1 3.5.5-3.5.5zm182 0 3.5.5-3.5.5zm-169 1 5.5.5-5.5.5zm155 0 4.5.5-4.5.5zm-137 1 6.5.5-6.5.5zm117 0 6.5.5-6.5.5zm-90 1 14.5.5-14.5.5zm55 0 14.5.5-14.5.5zm-70 3 3.5.5-3.5.5zm96 0 3.5.5-3.5.5zm-29 176 2.5.5-2.5.5z" opacity=".996"/><path fill="#f7976c" stroke="#f7976c" d="m167.5 76 1.5 1.5q-.9 5.4 1.5 7.5l9 3h18l8-3 7-1q.5-2.5 4-2l.5 4.5 1.5 2.5 11 4h19l11-4h4l7-5q2.4 2.1 1.5 7.5l1.5 1.5 9 3h6l1 1h9l1-1h6l6-2 4-3h4l6-4 .5 3.5 2.5 2.5 9 3 16.5.5-1.5 1.5h-76l-1-1h-25l-1-1h-16l-1-1h-12l-1-1h-10l-1-1-16-1-1-1h-6l-1-1h-4l-1-1h-5l-1-1-7-1-8-3-2.5-2.5 5.5-3.5zm302 3 4.5 2.5-4.5 3.5-8 2q-1.5-1 1-2l6.5-4.5zm-40 5 10 4 11.5.5-1.5 1.5-11 1-1 1-16 1-1 1h-9q-1.5-1 1-2l5-1 5-3h3zm-51 2-.5 1.5 3.5 3.5 9 3h17l2-1 .5 1.5-13.5.5-1 1h-15l-1 1h-23v-1l8-2 7-4h2zm81 0 .5 1.5-1.5.5q-1.5-1 1-2Zm-4 1 .5 1.5-2.5.5v-1zm-298 2 .5 2.5h-1zm291 4 2.5.5-2.5.5zm-263 1 2.5.5-2.5.5zm257 0 2.5.5-2.5.5zm-250 1 2.5.5-2.5.5zm243 0 2.5.5-2.5.5zm36 0 .5 2.5h-1zm-313 1 .5 2.5h-1zm42 0 3.5.5-3.5.5zm226 0 3.5.5-3.5.5zm-217 1 4.5.5-4.5.5zm207 0 4.5.5-4.5.5zm-196 1 5.5.5-5.5.5zm184 0 5.5.5-5.5.5zm-170 1 6.5.5-6.5.5zm155 0 7.5.5-7.5.5zm-138 1 9.5.5-9.5.5zm118 0 9.5.5-9.5.5zm-92 1 23.5.5-23.5.5zm52 0 23.5.5-23.5.5zm-170 1 .5 2.5h-1zm310 6 .5 2.5h-1zm-309 1 .5 2.5h-1zm1 6 .5 2.5h-1zm307 0 .5 2.5h-1zm-254 10 2.5.5-2.5.5zm197 1 3.5.5-3.5.5zm6 0 4.5.5-4.5.5zm48 1 .5.5-5.5 5.5-.5-.5zm-247 1 3.5.5-3.5.5zm92 0 6.5.5-6.5.5zm-147 1 .5 2.5h-1zm19 3 8.5.5-8.5.5zm38 0 3.5 2.5-.5 1.5 1.5.5 2 6-1 2h2l-.5 7.5-3.5-2.5-4-10zm245 0 .5.5-2.5 2.5-.5-.5zm-43 3h3l6 3 8.5 7.5-.5 1.5-1-2-1 2q-10.1-2.4-15.5-9.5l1-1zm43 0 .5 2.5h-1zm-294 2 3.5 2.5 3 6-1 2h2l1 5-.5 1.5 1.5.5-2 1 .5 1.5q-7.4-5.1-8.5-16.5l2-2-.5-.5q-2.4-.1-1-1Zm142 0q2 .5 1.5 3.5l-2.5 3.5-1.5.5q2.5 1.5-1 3l-4.5 5.5-2 1-1-1-1.5.5 1-4 8.5-10.5 1.5.5zm137 0 2.5.5-2.5.5zm-250 3q1 2 2 0l1.5 1.5 4 7-.5 1.5 1.5.5 1 4-.5 1.5 1.5.5-1.5 2.5q-5.9-4.1-8.5-11.5l-1-3zm129 0 2.5 2.5 2 5q-.8 3.3 1 4v8l-1.5 1.5-2.5-2.5-3-9v-8zm-164 2 .5 2.5h-1zm228 2h2l3.5 3.5 2 3-.5 1.5 2.5 1.5 2 5v3l-1.5.5-7.5-8.5.5-1.5-1.5-.5.5-1.5-1.5-.5q-1.9-2-.5-5.5Zm-29 3 2.5.5-2.5.5zm-95 1 2.5.5-2.5.5zm11 1 6.5 5.5 4 8-1 2h2l-.5 3.5-6.5-5.5.5-1.5-2.5-1.5-3-6zm151 1 1.5.5q-2 1 0 2l-2 5-7.5 8.5-3 1v-1l1.5-.5-2-1q2.8-8.7 9.5-13.5l1.5.5zm-188 1h2l3.5 2.5.5 1.5 1-1 3 3 3.5 2.5 2 4-2.5 1.5-1-2q-1 2-2 0l-3.5-2.5-.5-1.5-1 1-3.5-3.5.5-1.5-2.5-1.5 1.5.5 1.5-1.5-2.5-.5zm114 0 6.5.5-6.5.5zm96 4 1.5.5q-3.1 10.9-11.5 16.5l-2.5-.5v-2l3.5-5.5 1.5-.5-1-1 6.5-6.5zM443 169l-1 2h2q1-1-1-2Zm19.5-14 .5 2.5h-1zm-266 2 1.5.5v3l-2.5 3.5-1.5.5 1 1-3 3-2.5 3.5-1.5-.5-1.5 2.5-1-3-1 3-.5-2.5 4.5-6.5 1.5-.5-1-1 5.5-5.5zm171 1 4.5 1.5.5 1.5q1.2-2.3 2.5.5l.5 1.5 1-1 6.5 6.5-3.5 2.5q-7.7-3.8-12.5-10.5l1-1zm-54 2 1.5 1.5v7l-1 1-1 6-3.5 5.5-1.5-.5 2-1-1.5-3.5-1 3-.5-2.5 1-1v-5l1.5-3.5 1.5.5-1-3zm-91 3 1.5.5.5 1.5 1-2 .5 1.5-1.5 2.5-1.5.5q2 1 0 2l-5.5 7.5-1.5-.5-1.5 2.5-2.5-1.5.5-1.5 1.5.5-1-2q3.4-7.1 9.5-11.5Zm51 2 2.5 1.5q-2.7 9.8-10.5 14.5l-2 1q-2.5-1-1-2l1.5.5-1-3q3.8-7.7 10.5-12.5Zm70 0 1.5 4.5-8.5 10.5-4 2v-1l1.5-.5-2-1q1-5 4.5-7.5l1.5-.5-1-1 4.5-4.5zm61 4-.5 1.5 1 1 .5 1.5 1-4 .5 3.5-1.5 2.5-1.5.5 1 2-2.5 3.5-1.5.5 1 1-5.5 5.5-1.5-2.5 2-1-1-2 2-1-1-2q2.5-6.5 7.5-10.5Zm-164 3 2.5.5q-2.7 10.3-10.5 15.5l-2-1v2l-1.5-.5.5-2.5 1.5-.5q-2-1 0-2l1-3zm.5 1q-2 1 1 2v-1zm119.5 2 1.5.5-2 1 2 1-.5 1.5-1.5.5q2 1 0 2l-2.5 3.5-1.5.5 1 1-4.5 4.5-3 1q-2.7-1.2-.5-2.5l.5-1.5 1.5-.5q-2-1 0-2l6.5-8.5 1.5.5zm-164 2 4.5.5-4.5.5zm94 1 2.5 1.5-2.5 4.5-1.5.5q2.3 1.3-.5 2.5l-1.5.5 1 1-5.5 5.5-1.5-.5-.5 1.5-1.5-.5q2-1 0-2l2.5-4.5 1.5-.5-1-1 3.5-3.5 1.5-.5zm-116 3 2.5 2.5-.5.5-2.5-2.5z" opacity=".996"/><path fill="#f7976c" stroke="#f7976c" d="M142.5 185q1.9 6.6 7 10l5 2h13l8-4 6.5 2.5q1 9 7.5 12.5l8 3h13l7-3 2.5-2.5 1.5-3.5 3 1h8l1.5 1.5q1.5 6.5 6.5 9.5l7 3h7q1 2 5 1 1-2 5-1l6-3 3.5-3.5 2.5-4.5 18.5.5 1 5 6.5 7.5 6 3q4.2-.7 6 1l1-1h5l1-1h5l3-1 6-3 3.5-3.5 2.5-7.5 16.5.5 6.5 7.5 4 2q4.2-.7 6 1l1-1h10l3-1q5.5-2 8.5-6.5l1.5-5.5h7l1-1h6l1-1q4.5 8.5 19 7l1-1h6l6-3 3.5-3.5 2.5-6.5 5-1 3 3 5 2q4-1 5 1h7q1-2 5-1l6.5-3.5 2-3v-2l-3-4 2.5-.5 1 1h3l12 4 8 4 4.5 4.5v2l-5.5 5.5-9 4-6 2h-3l-4 2h-3l-1 1h-4l-1 1h-4l-6 2h-5l-1 1h-5l-1 1h-6l-1 1h-6l-1 1h-8l-1 1h-8l-1 1h-9l-1 1h-12l-1 1h-13l-1 1h-19l-1 1h-34l-1 1h-39l-1-1h-34l-1-1h-18l-1-1h-14l-1-1h-12l-1-1-19-1-1-1h-7l-1-1h-6l-1-1-13-1-1-1h-4l-1-1h-4l-1-1h-4l-1-1h-4l-1-1-7-1-12-4-10.5-6.5-1-4 4.5-4.5 8-4 12-4h3z" opacity=".996"/><path fill="#f7976c" stroke="#f7976c" d="m177.5 185 .5 3.5h-1zm185 0 .5.5-2.5 2.5-.5-.5zm83 1 3.5 3.5-.5.5-3.5-3.5zm-35 4 .5 2.5h-1zm-193 1 3.5 3.5-.5.5-3.5-3.5zm54 2 2.5 2.5-.5.5-2.5-2.5zm-50 3 1 2 1.5.5-1.5.5q-2.4-.9-1-3Zm114 0 3.5 3.5-.5.5-3.5-3.5zm62 2 2.5 1.5-1.5.5q-2.5-1-1-2Zm10 0 2.5.5-2.5.5zm-68 3 1 1 7.5.5-7.5.5q-2.5-1-1-2Zm-57 1 12.5.5-12.5.5zm234 9 .5 2.5h-1zm-401 1 .5 2.5h-1zm391 6 2.5.5-1 5-8.5 10.5-3 1-.5-2.5q3.5-9 10.5-14.5Zm-381 1 8.5 7.5 4 7v2l-2.5.5-8.5-9.5-2-4zm-9 1 .5 3.5h-1zm399 0 .5 2.5h-1zm-351 2 2.5.5-2.5.5zm13 2 2.5.5-2.5.5zm275 0 2.5.5-2.5.5zm-267 1 2.5.5-2.5.5zm259 0 2.5.5-2.5.5zm-251 1 2.5.5-2.5.5zm243 0 2.5.5-2.5.5zm42 0 3.5 2.5 3 8v9l-1.5.5-4.5-7.5-1-9-1-1zm-312 1 1.5.5v3l-3 5-7.5 7.5-2 1q-2.7-1.2-.5-2.5l1-4 8.5-9.5zm36 0 3.5.5-3.5.5zm224 0 3.5.5-3.5.5zm-213 1 3.5.5-3.5.5zm202 0 3.5.5-3.5.5zm-298 1 .5 2.5h-1zm108 0 4.5.5-4.5.5zm177 0 4.5.5-4.5.5zm48 0 1.5.5 4 11v8l-1.5 1.5-2.5-2.5-2-5v-4l-1-1v-6zm64 0 .5 2.5h-1zm-275 1 5.5.5-5.5.5zm148 0 5.5.5-5.5.5zm-129 1 7.5.5-7.5.5zm108 0 7.5.5-7.5.5zm-165 1 1.5.5v8q-1.7.8-1 4l-4.5 7.5-2.5-1.5 1-3v-5l2-6zm87 0 55.5.5-55.5.5zm135 3 2.5.5q-3.1 10.9-11.5 16.5l-1.5-.5v-3l3-6zm-196 1 2.5.5-2 7-7.5 9.5-2 1-.5-4.5q3.1-8.4 9.5-13.5Zm16 0 4.5 3.5 4 7 1 3v5l-1.5.5-3.5-3.5-4-8-1-3zm38 0 4 1 9.5 9.5 1 4-2.5.5-11.5-10.5q-1.7-1.7-.5-4.5Zm49 0 1.5.5-1 5-8.5 10.5-4 1-.5-1.5 3-6 7.5-8.5zm49 0q2.3.8 1.5 4.5l-1 1-1 6-3 6-2.5 2.5-1.5-.5v-6q1.8-.7 1-4l3-6zm134 1 .5 3.5h-1zm-395 1 .5 2.5h-1zm227 1 5.5 3.5 5 7 2 6q-1.7 3.3-3.5-.5l-3.5-2.5-6-10zm-172 1 3.5 2.5 5 9 1 7-2.5.5-6.5-10.5-1-3zm-30 3 2.5.5q-.6 3.9-3.5 5.5l-8 5-6 1-.5-1.5q5.6-7.4 15.5-10.5Zm353 0q7.7 6.3 9.5 18.5l-2.5.5q-4.9-4.6-7.5-11.5l-1-6zm-63 3 3.5 2.5 3 8v9l-1.5.5-3.5-5.5-2-6zm79 0 .5 2.5h-1zm-393 1 1.5 3.5q-1 1.5-2-1zm274 0q3-.5 3.5 1.5l4 6 3 10-1.5 1.5-4.5-4.5-5-11zm78 2 2.5.5v6q-1.7.8-1 4l-2 3v2l-3.5 4.5q-3-1.5-1.5-7.5l3-9zm-198 1 2.5 1.5-5 12-5.5 5.5q-2-.5-1.5-3.5l4-9zm-120 1 3.5 2.5 5 10v6l-1.5.5-5.5-7.5-3-10zm184 2q2.8 1.3 1.5 6.5l-1 1-1 6-4.5 6.5-1.5-.5v-7q1.8-.7 1-4l3-6zm174 2 .5 2.5h-1zm-208 1 2.5.5v3l-3 6-6.5 7.5-2.5-.5 2-7zm112 4 4.5 3.5 4 7 1 6 1 1-2.5 1.5q-4.9-4.6-7.5-11.5l-1-3zm-206 3q7.2 1.8 10.5 7.5l4 8-2.5.5-8.5-7.5-4-7zm172 0 1.5.5v4l-7.5 12.5-3 1-.5-3.5 3-7zm124 0 2.5.5-2.5.5zm-260 1 2.5.5v2l-3 5-8.5 8.5-2.5-.5 2-6 7.5-8.5zm206 6 3.5.5v2l-7.5 8.5-7 4q-2.8-1.2-.5-2.5l1-3 7.5-7.5zm-103 2q4-.5 4.5 2.5l4 7 2 8-1.5 1.5-4.5-4.5-5-11zm-226 1 .5 2.5h-1zm198 2 5.5 4.5 4 8 1 5q-1.2 2.8-2.5.5l-2.5-1.5-5-9-1-3zm-114 5 2.5 2.5-.5.5-2.5-2.5zm-83 2 .5 2.5h-1zm344 0 .5.5-3.5 3.5-.5-.5zm41 0 .5 2.5h-1zm-259 2 .5.5-3.5 3.5-.5-.5zm-112 3 2.5 2.5-.5.5-2.5-2.5zm340 3 .5.5-2.5 2.5-.5-.5zm8 0 6 2 9.5 9.5-.5 2.5-6-2-5.5-4.5-4-5zm-361 1 .5 2.5h-1zm383 0 .5 2.5h-1zm-377 1 2.5 1.5 4 7 2 6v4l-2.5.5-4.5-6.5-3-11zm98 0 6.5.5-6.5.5zm-44 1q3-.5 3.5 1.5l4 7 2 6v4l-1.5.5-5.5-6.5-3-9zm-11 3 1.5.5v10q-1.7.8-1 4l-3.5 5.5-1.5-.5v-11l2-6zm-21 3 1.5.5 1 3v8q-2 1-1 5l-2.5 4.5-2.5-3.5v-10q1.8-.7 1-4zm-27 1 .5 2.5h-1zm381 0 .5 2.5h-1zm-223 3 1.5.5v6l-1 3-2 3v2l-4.5 5.5q-2.5-1-1.5-5.5l5-12zm-28 1 4.5 3.5 4 8 1 7-1.5 1.5-3.5-3.5-5-12zm140 1h2l3 2 8.5 8.5 1 4-2.5.5-11.5-10.5q-1.7-1.7-.5-4.5Zm76 0 2.5 1.5-5 13-4.5 4.5-1.5-.5 1-7q2.6-6.9 7.5-11.5Zm34 3 .5 3.5h-1zm-379 1 .5 2.5h-1zm184 0 3.5 3.5-.5.5-3.5-3.5zm72 0q2.3.8 1.5 4.5l-4 9-4.5 5.5-2.5-.5q1.8-12.2 9.5-18.5Zm110 2 3.5.5q.5 4-2.5 4.5l-11 6h-4l-.5-2.5 5.5-4.5zm-61 2 8 2 9.5 6.5-.5 1.5h-5l-6-2-7.5-5.5z" opacity=".996"/><path fill="#f7976c" stroke="#f7976c" d="M127.5 314h3l8 5 16.5 15.5 2.5 3.5 12 7q3.2-.7 4 1h13l19-7q3.2.8 4-1h6l1-1h6l12 4 15.5 11.5-.5 1.5 2-1 1.5 1.5-.5 1.5 2-1 6.5 3.5-1.5.5-4-2-1 1-13.5.5.5 1.5-1.5-1.5q2.3-1.2-.5-2.5l-2-1-1.5.5.5-1.5-2 1-1.5-1.5.5-1.5-2 1v-2l-3 1-1-1-11-1-1 1h-6l-3 1-3-1v1l1.5.5-2.5.5-2-1v2l-3-1v2l-3-1-1 2-2-1v2l-3-1v1l1.5.5-1.5.5-1-1h-6l-3 1-1-1h-6l-1.5.5.5-1.5-4 1v-1l1.5-.5-2.5-.5-1.5.5.5-1.5-2 1-1.5-1.5.5-1.5-2 1-19-19-11-7-1 2-.5-10.5q-2.1-1.1-.5-4.5Zm91.5 24v1h2zm-40 9v1h2zm29.5-33 5.5 4.5v2l3 5 1 7-2.5.5-5.5-8.5-1-6-1-1zm31 0q2 .5 1.5 3.5l-5 12-4.5 4.5q-2-.5-1.5-3.5l5-12zm58 5 3.5 2.5 5 11v5l-1.5.5-3.5-3.5-3-6-2-8zm205 0 1.5.5v7q-2 1-1 5l-2.5 2.5-9 7-6 3q-3.3-.7-4 1h-8l-1-1-5.5-.5.5-1.5q-1.8 1.7-6 1l-1-1-11-1-1 1-7 1-10 5-7 6q-1-2-2 0l-1.5.5q2.2 1.3-.5 2.5-1-2-2 0l-2 1-1-1h-8q-1 2-2 0l-2 1q-1.5-1 1-2l2-1 2 1-.5-1.5 2.5-2.5 2 1-.5-1.5 3.5-3.5 18-14 11-5 10-1 1 1h6l1 1 10 1 1 1h9l8-3zM451 329v1h2zm4 11v1h2z" opacity=".996"/><path fill="#f7976c" stroke="#f7976c" d="m195.5 320 2.5.5-2 6-8.5 9.5-2 1-1.5-2.5q3.6-9.4 11.5-14.5Zm-32 1 3.5 2.5 5 11v6l-1.5-.5-1.5-.5-6-12zm190 3 2.5 1.5 5 10 1 7-2.5.5-5.5-8.5-2-9zm68 0 2.5 1.5q-3.2 8.3-9.5 13.5l-4 2-.5-3.5 2-4 6.5-7.5zm-97 1 6 1 10.5 8.5 1 2-2.5 1.5-8-4-7.5-7.5zm73 2 1.5.5v13l-2 6-1.5 1.5-1.5-.5-1-3v-6l1-1 1-7zm-134 4 1.5 2.5-4 9-5.5 6.5-2.5-.5v-3l4-8 4.5-5.5zm14 1 3.5 2.5 5 11v5l-1.5.5-3.5-3.5-4-9zm97 6 4.5 4.5 3 6 1 3v6l-1.5.5-4.5-5.5v-2l-2-3-1-3zm-46 3q2.5 2 8 1l6 2 18.5 10.5-.5 1.5 2-1v3h-16l-1 1v-2l-3 1v-1l1.5-.5-2.5-.5-1.5.5.5-1.5-2 1-1-2-7 1v-1l3.5-.5-9.5-.5v1l3.5.5-4.5.5-3-1v1l1.5.5-1.5.5-3-1v1l1.5.5-1.5.5-3-1-2.5 1.5.5 1.5-1-1h-20l-2-1-2 1v-1l3-1 3 1v-1l-1.5-.5 5.5-2.5 2 1v-2l2 1v-2l15-7 6-2h5zm-145 17 2.5.5-2.5.5zm187 1 4.5 2.5-1.5.5-3.5-2.5zm-105 1 2.5.5-2.5.5zm9 0 2.5.5-2.5.5zm-142 2 .5 2.5h-1zm244 0 2.5.5-2.5.5zm13 0 2.5.5-2.5.5zm-8 1 4.5.5-4.5.5zm115 18 .5.5-2.5 2.5-.5-.5zm-82 21 2.5.5-2.5.5zm-10 1 2.5.5-2.5.5zm-167 1 2.5.5-2.5.5zm155 0 3.5.5-3.5.5zm-142 1 4.5.5-4.5.5zm128 0 3.5.5-3.5.5zm-109 1 5.5.5-5.5.5zm88 0 6.5.5-6.5.5zm-51 1 19.5.5-19.5.5z" opacity=".996"/><path fill="#cebfc9" stroke="#cebfc9" d="m258.5 23 7.5.5-.5 1.5h-6q-2.5-1-1-2Zm12 0 9.5.5q-2.7 2.8-9.5 1.5zm41 0 9.5.5 1 2-1.5-.5h-7l-2.5-1.5zm14 0 7.5.5q-1.5 3-7.5 1.5zm45 2 7.5.5-2 1-.5 1.5-8.5-1.5zm9 0h5l3.5 1.5-7.5 1.5zm-175 1h9l1.5 1.5h-2l-.5 1.5-1-1-7.5-.5zm12 0q1 2 2 0 5.3-1.2 6.5 1.5l-8.5.5zm202 1 1 1 1.5-.5-.5 2.5-8.5-1.5 5.5-.5zm7 0q1 2 2 0l6.5 1.5-4.5 1.5h-4zm-194 3 5.5.5-.5 2.5h-7l-3.5-1.5 4.5-.5zm10 0h8l4.5 1.5-3.5 1.5h-7l-1 1-2.5-1.5zm-64 4 8.5.5-.5 1.5q-7.3 1.2-8-2Zm13 0 10.5.5q-3 3-10.5 1.5zm91 0 11.5.5-1.5 2.5-10.5-1.5zm16 0 10.5.5-1.5 1.5-9 1zm38 1 11.5.5-.5 2.5h-5l-1-1-5.5-.5zm15 0h10l1.5 1.5-4.5.5-1 1h-5zm42 2q3.3-.7 4 1l1.5-.5-1.5 2.5h-5l-4.5-1.5 4.5-.5zm9 0h5l1 1 4.5.5-3.5 1.5h-7zm36 0 8.5.5 1 2-1.5-.5-8.5-.5zm13 0 7.5.5-.5 1.5-7.5-.5zm-120 7 .5 13.5h-1zm-9 3 .5.5-3.5 3.5-.5-.5zm52 0 .5.5-2.5 2.5-.5-.5zm59 4 .5 10.5h-1zm-211 2 .5 9.5h-1zm-17 3 .5 4.5h-1zm71 17 .5 2.5h-1zm145 110 2.5.5-2.5 3.5-1.5-.5zm-229 2q2.5 1 1 2l-1.5-.5zm55 4 .5 1.5-2.5 1.5-.5-1.5zm120 1 2.5 2.5-.5.5-2 1-1.5-2.5zm-60 3q2 .5 1.5 3.5h-3q2-1 0-2z" opacity=".996"/><path fill="#fecb01" stroke="#fecb01" d="m269.5 4 3 4 4.5 3.5q.6 4.1-1.5 5.5l-1.5-.5q2-1 0-2l-1.5-2.5-1.5-.5-1.5-2.5-1.5.5v2l-3 4 2 3-1.5.5-2.5-1.5v-5zm54 1 2.5.5v3l2 3v2l-5.5 4.5-.5-.5 2-2-1.5-6.5-6 4-.5-2.5q2.7-3.8 7.5-5.5Zm-87 1 5 5q3.9.6 5.5 3.5l1 2-3.5 5.5.5-1.5 1-3-6.5-4.5q-3.3 1.7-2.5 7.5l4 3-1.5-.5-4.5-2.5-2-3-1-5zm144 0q3.3 1.8 3.5 6.5l-1 3-2.5 2.5-.5-4.5-1.5-1.5h-2l-3.5 2.5 1 3q-1 1.5-2-1-1-4.5 1.5-5.5 5-1 7-5Zm-165 1 .5 2.5 4 5v4l-3.5 2.5.5-1.5-2.5-7.5-3.5 3.5v3l.5 1.5q-3-1.5-1.5-7.5l3.5-4.5zm212 3 .5 3.5 4 6v2l-3.5 2.5h-2l-.5-.5 3-3-1-1-1.5-5.5-4.5 2.5-1.5 2.5-.5-4.5zm-139 1q2.3 3.2 7 4l3.5 3.5q.8 3.8-1.5 4.5l-3-4-4-2-1.5 2.5 1 2-2 3v2l3 2-3.5.5-4.5-3.5 5-8zm59 1 1.5.5q1.8 5.8 6 9l1 5-2.5 3.5-3.5-.5 2-1 1-3-4.5-7.5-2.5 1.5-.5 1.5-3.5 2.5q-1 4 1 5l-1.5-.5-2.5-1.5v-6l4.5-4.5 3.5-2.5zm-162 2 7 3 2.5 2.5-.5 5.5-2-4-4-2-1.5 6.5 3 2-1.5.5-4.5-2.5-1-5q2.5-2 2.5-6.5Zm213 2 5.5 4.5q2 2.5 1 8-1 2.5-2 1 1.8-.7 1-4l-4.5-3.5-.5 3.5-2 2v3l2 1-1.5.5-4.5-3.5v-3l4-5zm44 3 6 3 2.5 2.5-.5 3.5q-1.7-3.2-6-4-2.8 1.3-.5 2.5l-2 4 3 2-3.5.5-2.5-1.5v-3q3.5-2.5 4-8zm7 10 .5.5-2.5 2.5-.5-.5z" opacity=".992"/><path fill="#fabe7f" stroke="#fabe7f" d="m268.5 9 2.5 1.5.5 1.5 2.5 1.5 1 2-1.5 2.5-2 1 .5-1.5q.6-4.1-1.5-5.5l-1.5.5 1 5-2.5 1.5-2.5-3.5 3-4zm54 0 1.5 6.5-2.5 1.5-.5-2.5 1-3q-1-1.5-2 1l-1.5 4.5q-2-.5-1.5-3.5zm-108 3 2.5 7.5-2.5 1.5-.5-4.5.5-1.5-2.5 1.5-.5 2.5-.5-3.5zm162 0q3-.5 3.5 1.5 1 4.5-1.5 5.5l-2.5-.5 2-4-1.5-.5-1.5 1.5-.5 3.5-1.5-4.5zm-137 1 6.5 4.5-2.5 4.5-2-6-1.5.5 2 6-1.5.5-3.5-2.5q-.8-5.8 2.5-7.5Zm186 1 1.5.5q-.6 4.6 2 6l-2.5 2.5-.5-.5 1-3-2.5-3.5-.5 1.5q1.8.8 1 4l-1.5.5-2.5-3.5 1.5-2.5zm-135 3 6.5 4.5-1.5 4.5-3 1-.5-3.5 2-3-1.5-.5-2.5 3.5v3l.5 1.5-2.5-1.5 2-6q-2-1 0-2zm57 1 1.5.5 4 8-1.5 2.5-3 1q-2.5-1-1.5-5.5l1-3q-1-1.5-2 1-1.7 1.8-1 6l.5 1.5-3.5-2.5q-1-5.5 2.5-6.5l1.5-.5zm-159 1 5.5 3.5q.8 3.8-1.5 4.5l-2-6-1.5.5 1 5-1.5.5q-2-.5-1.5-3.5zm211 3 4.5 3.5-.5 3.5-3-5-.5 2.5q1.7.8 1 4-1.2 2.8-2.5.5l-1.5-.5v-3l2-2zm45 2q3.9.6 5.5 3.5l-3.5 4.5-.5-3.5 1-2-1.5-.5-2 6-1.5-2.5 2-3q-2.3-1.2.5-2.5Zm-287 63 5 3h3l9 3h4l1 1 12 1 1 1h7l1 1h8l1 1h10l1 1h13l1 1h16l1 1h25l1 1h75l1-1h25l1-1h17l1-1h12l1-1 19-1 1-1h7l1-1h6l1-1h5l1-1 9-1 4-2h3l5-3 .5 1.5-1 1-1 12-1 1v5l-1 1v6l-1 1v6l-1 1-.5 4.5-9 7h-7l-1-1-7-1-15-5q-4.8 1.2-6-1h-10q-1 2-5 1l-6 3-10 7-15 8-6 2-12 1-14-6-8-6-12-6-6-1-1-1h-6l-1 1h-4l-6 2-22 12-6 2h-9l-1-1-6-1-8-4-11-8-9-5-3-1h-10l-20 7h-15l-6-2-6-4-5.5-5.5-1-11-1-1v-6l-1-1q1.2-4.7-1-6v-6q-1.7-.7-.5-2.5Z" opacity=".996"/><path fill="#fabe7f" stroke="#fabe7f" d="m163.5 127 6 5 10 4h15l20-7h10l8 4 11 8 9 5 6 2h3l1 1h9q.8-1.7 4-1l27-14 7-1 1-1h6l13 5 21 13 6 1 1 1h6l1-1h5l9-3 29-17q3.3.8 4-1h10l1 1h4l1 1 7 1 4 2h3l9 3h7l3-1 5-4 .5 1.5-1 1v6l-1 1v6l-1 1q1.3 4.7-1 6l-1 12-2.5 2.5-3.5 2.5-3 5v9l2 3-4.5 1.5-4-5-3.5-2.5-5.5-6.5-5-2h-8l-5 2-5.5 5.5-2 4-1 6 2 5-4.5.5-1 1h-8l-6-7-2.5-1.5-5.5-6.5-7-3h-7l-5 2-5.5 4.5-4 8-.5 6.5h-15l-1.5-1.5-3.5-4.5q-3.9-.6-5.5-3.5l-3.5-4.5-8-4h-8l-7 3-6.5 6.5-2 4-.5 4.5-18.5-.5q-.6-5.9-4.5-8.5l-6.5-4.5-1.5-2.5-7-4q-4.2.7-6-1l-9 3-6.5 6.5-2 5-.5 4.5-1-1h-7l-2.5-1.5q-.9-4.6-4.5-6.5l-2.5-1.5-1-4-5.5-5.5-4-2-8-1-7 3-5.5 5.5-2.5 6.5-4.5-2.5q1.8-.7 1-4l-5-6v-3l-3-4q.8-3.2-1-4v-6l-1-1v-5l-1-1v-6l-1-1v-6l-1-1q1.3-4.7-1-6v-6q-1.7-.7-.5-2.5Zm57.5 5-1 8 4 10 3 2h1v-7l-4-10zm202 3-1 3 8 6 6 3h4v-1l-8-8-6-3zm-251 2-1 7 1 3 3 6 5 4 1-2-1-1v-4l-2-3v-2l-3-5zm142 0-3 2-5 5-5 8 1 2 4-1 4-4 5-8q1-3-1-4Zm-113 3-1 5 4 9 6 5 1-1-1-5-6-11q0-2-3-2Zm129 0-2 2v8l3 9 3 2 1-1v-8q-2-1-1-4l-2-5zm64 4-1 4 4 8 7 6h1l-1-6-5-8-3-4zm-113 5-1 5 3 6 8 8h1l-1-6-4-7zm151 1-2 1q-7 5-10 13l1 3 3-1 7-8 2-4v-3zm-188 1-1 3 2 3 8 6 4 2h2v-2l-2-3-9-8zm210 4-2 1q-8 5-11 16h3q8-6 11-16zm-257 2-2 1q-7 5-11 14l1 2h2l3-2 7-9 1-5zm171 1-1 3q5 7 15 10 1 2 2 0l-1-2q-5-8-15-11Zm-54 2-4 5-2 6v5l-1 1 1 4h2l3-5 1-6 1-1v-7zm-91 3q-7 5-11 14l1 3 5-3 5-6 3-7zm51 2q-8 5-11 15-2 1 1 2l2-1 7-7 3-5v-3zm70 0-2 1q-7 5-10 13l1 3 4-2 8-10 1-4zm61 4-6 7-4 10 2 2 7-8 3-7v-3zm-164 3q-8 5-12 15l1 2 3-1q7-5 10-15zm120 3-3 2-7 8-2 5q-2 1 1 2l3-1 7-8 2-4v-3zm-70 3q-8 5-12 14l1 3 3-1q7-5 10-14zm170.5-4 1.5.5-1.5 2.5-1.5-.5 2-1z" opacity=".996"/><path fill="#fabe7f" stroke="#fabe7f" d="m192.5 185 1.5.5-1.5 2.5-1.5-.5 2-1zm52 4 1.5.5-2 1-.5 1.5-.5-1.5zm123 1 1.5.5-.5 1.5q-2.5-1-1-2Zm-60 3 1.5.5-.5 2.5zm-2 2q2.5 1 1 2l-1-1-1.5.5zm-190 12 7 5 18 6h4l1 1 8 1 1 1h4l1 1h4l1 1h6l1 1 13 1 1 1h7l1 1 19 1 1 1h11l1 1h13l1 1h18l1 1h29l1 1h55l1-1h29l1-1h18l1-1h13l1-1h11l1-1h10l1-1h8l1-1 15-1 1-1h5l1-1 11-1 1-1h4l1-1h4l1-1 15-3 9-4h2l7-5 .5 3.5-1 1v8l-1 1v8l-1 1v7l-1 1v8l-1 1v8l-1 1-.5 7.5-12 1-1 1h-4l-9 3-9 6-17 16-6 2h-3l-1 1h-10l-1-1-6-1q-7.2-2.8-12-8l-7-3h-15l-1 1h-3l-6 2-5 3h-2l-13 8-17 7q-4-1-5 1h-15l-12-5-5.5-4.5q-3.4-7.1-9.5-11.5l-9-5-6-1-1-1h-16l-1 1h-3l-6 2-6 3-11 9-6 3h-13q-.7-1.7-4-1l-9-5-9.5-9.5-3-6-4.5-4.5-5-2h-6l-1 1h-3l-6 2-17 9h-8l-5-2-7.5-6.5q-4.9-9.6-13.5-15.5l-3.5-2.5-1-3v-8l-1-1v-8l-1-1v-8l-1-1v-7l-1-1zM507 218q-8 5-11 15l1 2 3-1 8-10 1-5zm-381 1-1 4 2 4 9 9h2v-2l-4-7zm353 7-2 3 1 1 1 9 5 7h1v-9l-3-8zm-312 1-2 1-9 10-1 4q-2 1 1 2l2-1 7-7 3-5v-3zm284 2-2 3v6l1 1v4l2 5 3 2 1-1v-8l-4-11zm-249 3-4 5-2 6v5l-1 3 3 1 4-7q-1-4 1-4v-8zm222 3-8 8-3 6v3h2q8-6 11-16zm-196 1q-7 5-10 14l1 4 2-1 7-9 2-7zm16 0-1 5 1 3 4 8 4 3h1v-5l-1-3-4-7zm38 0q-2 3 0 5l12 10h2l-1-4-9-10zm49 0-2 1-8 9-3 6 1 1 4-1 8-10 1-5zm49 0-4 4-3 6q1 3-1 4v6h2l2-2 3-6 1-6 1-1q1-4-1-5Zm-34 3-1 4 6 10 4 2q1 4 3 1l-2-6-5-7zm-172 1-1 6 1 3 7 10h2l-1-7-5-9zm-30 3q-10 3-16 11l1 1 6-1 8-5q2-2 3-5zm353 0-2 2 1 6q3 6 8 11h2q-2-13-9-19Zm-63 3-1 9 2 6 4 5h1v-9l-3-8zm-40 1-1 4 5 11 5 4 1-1-3-10-4-6q0-2-3-2Zm78 2-3 4-3 9q-2 5 2 7l3-4v-2l2-3q-1-4 1-4v-6zm-198 1-6 7-4 9q0 3 2 3l5-5 5-12zm-120 1-2 2 3 10 6 7h1v-6l-5-10zm184 2-3 3-3 6q1 3-1 4v7h2l4-6 1-6 1-1q1-6-1-7Zm-34 3-8 10-2 7h3l6-7 3-6v-3zm112 4-1 5 1 3q3 6 8 11l2-1-1-1-1-6-4-7zm-206 3-1 2 4 7 9 7h2l-4-8q-3-6-10-8Zm172 0-7 8-3 7 1 3 3-1 7-12v-4zm-136 1-2 1-8 9-2 6h3l8-8 3-5v-2zm206 6-3 2-8 8-1 3q-2 1 1 2l7-4 7-8v-2zm-103 2-1 4 5 11 5 4 1-1-2-8-4-7q-1-3-4-3Zm-28 3-1 5 1 3 5 9 3 1q1 2 2 0l-1-5-4-8z" opacity=".996"/><path fill="#fabe7f" stroke="#fabe7f" d="m122.5 271 17 19 7 4h8l6-3h2l13-7 11-2 6 2 5.5 5.5q4.9 9.6 13.5 15.5l5 3 9 3h8l6-2 16-12 7-3h3l5-2h13l15 5 10.5 9.5q.9 4.6 4.5 6.5l4 3 10 4h18l1-1h3l9-3 13-8 15-7 6-2h4l1-1h12l10 4q3.2 4.8 9 7l6 2h13l1-1 6-1 10-5 9.5-8.5 6.5-7.5 11-5 8-1 1-1h7l1-1 .5 1.5-1 1-1 17-1 1v7l-1 1v8l-1.5 2.5-15 11-6 2h-9l-1-1h-5l-6-2-12-1-1 1-7 1-8 4q-12.1 7.9-22 18l-9 6-14 5h-9q-.7-1.8-4-1l-14-7-2-2-17-9-6-2q-5.5 1-8-1-1.3 2.3-6 1l-9 4h-2l-13 7h-2l-10 5h-3l-4 2-11 1q-1-2-5-1l-10-5-16-12-7-4-7-1-1-1h-6l-1 1h-6l-8 3h-3l-3 2-9 3h-13l-12-5-6.5-5.5-5.5-6.5-11-10-8-5-3.5-.5q1-4-1-5v-8l-1-1v-8l-1-1v-8l-1-1v-8q-1.7-.7-.5-2.5ZM486 290l-1 3 4 5 6 4 6 2v-2l-9-10zm-355 2-2 2 3 11 5 6h2v-4l-2-6-4-7zm54 1-1 4 3 9 6 6h1v-4l-2-6-4-7q0-2-3-2Zm-11 3-3 3-2 6v11h2l3-5q-1-4 1-4v-10zm-21 3-3 4q1 3-1 4v10l3 3 2-4q-1-5 1-5v-8l-1-3zm131 4-3 3-5 12q-1 4 2 5l4-5v-2l2-3 1-3v-6zm-28 1-1 5 5 12 4 3 1-1-1-7-4-8zm140 1q-2 3 0 5l12 10h2l-1-4-8-9-3-2zm76 0q-5 5-8 12l-1 7h2l4-4 5-13zm-89 4q-8 6-10 19h3l4-5 4-9q1-4-1-5Zm110 2-9 4-6 5 1 2h4l11-6q2 0 2-4zm-61 2-2 3 8 5 6 2h5v-1l-9-7zm-223 1-1 4 1 1 1 6 6 8h2l-1-7-3-5v-2zm31 0-5 5-5 12q0 3 2 3l4-4 5-12q1-4-1-4Zm58 5-2 2 2 8 3 6 4 3h1v-5l-5-11zm-102 1q-8 5-12 15l2 2 2-1 8-9 2-6zm-32 1-1 7 6 12h2l1 1v-6l-5-11zm190 3-2 2 2 9 6 8h2l-1-7-5-10zm68 0-3 2-7 8-2 4 1 3 4-2q6-5 9-13zm-97 1-1 2 8 7 8 4 2-1-1-2-10-9zm73 2-3 4-1 7-1 1v6l1 3h2l1-1 2-6v-13zm-134 4-2 1-5 6-4 8v3h3l5-6 4-9zm14 1-1 7 4 9 4 3h1v-5l-5-11zm97 6-1 7 1 3 2 3v2l5 5h1v-6l-1-3-3-6z" opacity=".996"/><path fill="#fabe7f" stroke="#fabe7f" d="m129.5 327 11 7 22 21 10 4h13l16-6h3l5-2 12-1 1 1h5l5 2 16 12 12 7 6 1 1 1h7l1-1h4l12-4 22-11 9-3q4.8.8 7-1l1 1h5l9 3 30 17 3 1h12l13-5 10-7 19-16 13-6 9-1 1 1h6l1 1h5l1 1q4.8-1.2 6 1h8l10-4 11-9 .5 3.5-1 1v8l-1 1v8l-1 1v8l-1 1-1 16-5.5 5.5-8 4-12 4-7 1-1 1h-4l-1 1h-4l-6 2h-5l-1 1h-5l-1 1h-6l-1 1-16 1-1 1-21 1-1 1h-13l-1 1h-20l-1 1h-81l-1-1h-19l-1-1h-14l-1-1h-11l-1-1h-9l-1-1h-8l-1-1h-6l-1-1h-6l-1-1-12-1-1-1-9-1-1-1h-3l-1-1h-3l-1-1h-3l-4-2-6-1-9-4-6.5-5.5q-2.2-2.8-1-9l-1-1-1-16-1-1-1-17-1-1z" opacity=".996"/><path fill="#eaeef6" stroke="#eaeef6" d="m214.5 26-.5 1.5-.5 1.5-.5-1.5zm42 0 2 1h8q.8 1.8 4 1l1-1q6.2 1.2 9-1l1.5 3.5-7 6-.5 1.5-3-6-5-1-7 3-3.5-3.5zm53 0q2.2 1.8 7 1l1 1h9l1-1q4.8.8 7-1l.5 4.5-8.5 9.5-8-7-5-2q-.7 1.8-4 1zm112 1 .5 2.5h-1zm-56 1 5 2h14l5-2q2.7 1.3.5 2.5l-.5 4.5-4 2-5-4-2.5 1.5-1.5 5.5-6 4-4.5-3.5 1-3q-3.6-2.8-1.5-9.5Zm-163 2 3 2h5l3 1 2.5 2.5 3 5q-7.1 1.4-10 7l-4.5 8.5-.5-6.5 1-1v-13l-3-3z" opacity=".996"/><path fill="#eaeef6" stroke="#eaeef6" d="m222.5 30 .5.5-2 2q1.7 1.8 1 6-1.5 3-3 0-.9-4.6-4.5-6.5l-1.5-.5 8.5-.5zm15 0 .5 2.5h-1zm174 0 5 2h14l5-2 1.5 2.5-9.5 8.5-5-4h-3q-.7 1.8-4 1l-4.5-3.5zm-145 2q4.8-.7 5.5 2.5l-.5 7.5q-7.2 1.8-10.5 7.5l-2.5 4.5-.5-18.5q1.4-2.1 5.5-1.5zm-80 1 .5 2.5h-1zm107 0 .5 2.5q-1 2.5-2 1zm3 0 .5 3.5h-1zm15 0q8.3.8 11.5 6.5l.5 1.5 4 1 2-2 .5.5 1 3-6.5 1.5-6.5 5.5-4.5 7.5-1.5-.5v-16q2.3-1.2 1-6l-2-2zm-87 1 6 2h19l6-2 .5 14.5-6 4-.5 1.5-3.5-1.5-2.5-3.5-2.5-.5-1-5-2.5-2.5h-3l-4.5 4.5q-.9 6.1-4.5 9.5l-1.5-.5zm123 1 .5 2.5h-1zm33 0 3.5 2.5-1 1-.5 5.5h-4l-7.5 5.5-4.5 7.5-.5-13.5 1.5-.5 2 3 3.5-.5 3.5-4.5 2.5-1.5q-.7-3.7 1.5-4.5Zm-205 2q2.2 1.8 7 1l1 1h11l1-1q4.8.8 7-1l.5 6.5-1.5.5q-1-2-5-1-7.2 2.8-11 9h-2q-2.9-1.6-3.5-5.5l-5-5z" opacity=".996"/><path fill="#eaeef6" stroke="#eaeef6" d="m278.5 37 5 2h21l5-2 .5 9.5-1.5.5q-1-2-2 0l-11-1-5 4h-2l-3.5-2.5-3.5-4.5-3.5-2.5zm-3 1 .5 3.5h-1zm58 0 5 2h21l4-2 .5 7.5q-1 2.5-5.5 1.5l-6-3h-6l-3.5 3.5-1.5 4.5-2-3-6.5-5.5-1-4zm85 1h4l4 4 6-4 .5 1.5-1.5 1.5-4 1-6.5 6.5-4.5 9.5-.5-18.5zm-33 1 3 2h5l1 1 6.5.5-4 3q-.6 3.9-3.5 5.5l-2.5-1.5q-1.4-6.1-6-9zm49 0 3 1h5l1 1h7l1-1q5.5 1 8-1l.5 7.5-1.5-.5-5 1q-1.3-2.3-6-1l-3 3h-2l-8.5-7.5z" opacity=".996"/><path fill="#eaeef6" stroke="#eaeef6" d="m413.5 42 .5 34.5-7.5 1.5-8 5q-4.6-5.9-14.5-6.5l1-1 .5-30.5 1.5.5 4.5 8.5q4.8.8 5.5-2.5l2.5-5.5 5-2h6zm-179 1 3.5.5q-1.2 5.3 1.5 6.5 3.9.6 5.5 3.5l1.5 2.5 4.5-.5 3.5-4.5 1.5.5-1 2v11l1 1v8l-7.5 1.5-6 3-3 3-7-5-9.5-2.5q-.7-3.2 1-4l.5-11.5 4.5-3.5 2-6zm44 1 10 9h2q2.2-4.8 9-5l1 1h6l1-1 2.5 2.5-.5 26.5-8 2-8 5-8-5-6-1-2.5-1.5 1-1v-27l1-3zm-103 1 1.5.5 4.5 7.5 5 1 6-7 3-2h5l2.5 1.5-1 1v20l1 3-1.5 1.5-7 1-5 4h-2l-6-4-6-1-1.5-1.5 1-1zm172 1h4l6 3 6.5.5-1 3v19q2 1 1 5l-1.5 1.5-7 1-8 5q-5.4-5.6-15.5-6.5v-13l1-1 .5-16.5 6.5 5.5q2.3 3.2 1 10l1.5 1.5 2.5-1.5v-8l-1-3 1-3zm88 0 2.5 1.5 3.5 4.5h4q1-4 7-3l3 1 3-1 1.5 1.5v20l1 1-3.5 1.5h-3l-8 5-3-3-9.5-3.5v-12l1-1z" opacity=".996"/><path fill="#e1dfec" stroke="#e1dfec" d="m257.5 19 1.5.5-2 1 .5 1.5q-3-1.5 0-3Zm21 0q1.5 1-1 2l-2.5-.5zm54 0 2.5 1.5q-1 2.5-2 1l.5-1.5q-2.4-.1-1-1Zm-72 1 3.5.5-3.5.5zm53 0 7.5.5-7.5.5zm13 0 4.5.5-4.5.5zm40 1 5.5.5-6 1 .5 1.5-2.5-1.5zm16 0 5.5.5-5.5.5zm-159 1 2.5.5-2.5.5zm85 0q1.5 1-1 2l-1.5.5q-1 4 1 5l-8.5.5v-1l6.5-.5q-1-4.5 1.5-5.5zm81 0 1.5.5-2.5 1.5q-1.5-1 1-2Zm-162 1q1.5 1-1 2l-1.5-.5zm186 0 7.5.5-7.5.5zm-49 1 .5.5-2.5 2.5-1.5.5-.5 1.5-.5-1.5zm46 0 3.5 1.5-1.5.5-2-1 .5 1.5-2.5 2.5-.5-.5 2-2-1-1zm25 0q1.5 1-1 2l-1.5-.5zm-236 1 1 1 1.5-.5-4 3 2 1-2.5.5-.5-1.5 3-2zm30 0 2.5.5-2.5.5zm0 2 8.5.5-8.5.5zm12 0 10.5.5-10.5.5zm121 1 .5 3.5h-1zm-184 1 6.5.5-6.5.5zm-2 1 3.5 1.5-2.5.5q-2.5-1-1-2Zm180 0 4.5.5-4.5.5zm52 0 .5 4.5h-1zm-16 3q2.5 1 1 2l-1.5-.5zm10 1 4.5.5-4.5.5zm47 0 6.5.5-6.5.5zm-279 1 .5 19.5h-1zm2 0 .5 28.5h-1zm292 3 .5 4.5h-1zm-2 3 .5 30.5h-1zm2 4 .5 2.5h-1zm-294 12 .5 11.5h-1zm-58 257 2.5.5-2.5.5zm442 2 2.5.5-2.5.5zm-455 2 1.5.5-2.5 1.5q-1.5-1 1-2Zm484 10 2.5 1.5-1.5-.5q-2.4-.1-1-1Zm-510 3q1.5 1-1 2l-1.5-.5zm517 1 3.5 3.5-.5.5-3.5-3.5zm-524 5 .5.5-2.5 2.5-.5-.5zm535 14 .5 2.5h-1zm-554 11 1.5.5-2.5 1.5q-1.5-1 1-2Zm-25 11q1.5 1-1 2l-4 2q-1.5-1 1-2zm598 2 2.5 1.5-1.5-.5q-2.4-.1-1-1Zm13 42 1.5 1.5-2.5 2.5-1.5-.5zm-628 1 4.5 3.5-1.5-.5-3.5-2.5zm610 13q1.5 1-1 2l-1.5-.5zm-581 5 6.5 2.5-2.5.5-4-2zm570 0 1.5.5-4.5 2.5h-2v-1h2zm-27 9q1.5 1-1 2l-1.5-.5zm-239 6 2.5 1.5-1.5.5q-2.5-1-1-2Zm27 5 2.5.5-2.5.5zm16 0q1.5 1-1 2l-1.5-.5z" opacity=".047"/><path fill="#fca403" stroke="#fca403" d="M239.5 0q.2 4.3 3.5 5.5L241.5 7 238 3.5zm85 0q1 2 2 0l2 1q1.3-2.3 2.5.5l-1 1-.5 5.5-.5-4.5-1.5-2.5-3 2-2-1 .5 1.5-1.5 1.5-6.5 3.5-.5 1.5-1.5-.5-.5 3.5-.5-3.5 3.5-4.5 2 1-.5-1.5 1.5-1.5zm55 0 .5 2.5-4 2 1 1-2.5 2.5.5-1.5-1-1 3-3 .5-1.5 1 2zm-114 1 1 2 1-2 1.5.5-7.5 11.5-1-1-1.5.5 4.5-6.5 1.5.5-1-2h2zm5 0 4 5 1.5.5-2.5 1.5-2.5-2.5.5-1.5-1.5-.5 1-1zm111 0q3-.5 3.5 1.5l1 5-1 1 .5 1.5-1.5-1.5.5-1.5-2.5-1.5v-3zm2.5 1-1 4h1zM215.5 2l-.5 1.5 1 1-1.5 1.5-2.5-1.5zm17 1 1.5 3.5q-.5 3-4.5 2.5l-.5-.5 3-3z" opacity=".129"/><path fill="#fca403" stroke="#fca403" d="m327.5 4 .5 3.5h-1zm101 0 1.5.5-2 1 1 1-2.5 2.5q-5.7 1.3-8.5 5.5l-1 3 6 5-1.5-.5-1 1-1.5-1.5q2.3-1.2-.5-2.5l-1.5.5-1-2 1-2h-2l2.5-3.5 1 1 3-3 1.5-.5-.5-1.5 2 1V7l2 1-.5-1.5zm-216 2 .5.5-3.5 3.5-1.5-.5.5-1.5 1 1zm73 0 2 1 1-1 2.5 2.5q-1.7 3.3-3.5-.5l-3 2-1.5-1.5zm147 0 .5 3.5h-1zm-62 1-.5 1.5 1 1-1.5 1.5-1.5-.5 1 3q-1 2.5-2 1l1-2h-2zm-123 1 5.5 4.5-.5 2.5-1-3-1 2-2.5-3.5.5-1.5-2 1q-1.5-1 1-2Zm28 0q1 2 2 0l2.5 2.5 1 2h-2l1 5-1.5 1.5-1-1-1.5.5 2-2q-.7-4.2 1-6l-1.5.5-2.5-2.5zm71 0q1 2 2 0l2.5 1.5-.5 1.5-1-2-2.5 1.5-1.5 2.5-1.5-.5 1 2q-1.2 2.8-2.5.5l-2 1q-1.5-1 1-2l1.5-.5 1.5-2.5 1.5.5-1-2zm-165 1 3.5.5-2 1-1 6 1 2h-1l-1-5 1-3h-1l-.5 1.5-.5-1.5zm5 0 3.5 2.5-.5 1.5 2-1v2l2-1v2l2-1 3.5 3.5-1 1 .5 4.5 1-4 .5 3.5-2.5 3.5q-2.5-1-1-2l1.5.5q-1.7-1.8-1-6l-2.5-2.5-8.5-4.5 1-1zm32 0 3.5 2.5-.5.5-2-2-1.5.5zm75 0 4.5 2.5-2.5 1.5v-2l-2 1zm37 0 1.5 4.5h-1l-.5-2.5-.5 3.5 1 2-2.5.5v-1l1.5-.5q-1.7-.7-1-4zm57 0q2.1 1.4 1.5 5.5h-1l-.5-3.5-.5 4.5-1 1 1 2-2.5 2.5-1.5-1.5 3-4q-.7-4.7 1.5-6.5Zm43 0 .5 2.5h-1zm-200 1-.5 1.5-.5 1.5-.5-1.5zm-3 1 .5 2.5h-1zm56 0 1 3 1-3 .5 2.5-1 2 1 3-2.5 3.5-1.5-2.5 2-5q-1.9-.9-.5-3.5Zm1.5 5-1 3h1zm29.5-5q.5 4.5 3.5 6.5h-3l.5-1.5-2.5-1.5zm85 0 6.5 5.5 1 2q-2 1 0 2l.5 1.5 1-2 .5 1.5-1 1-.5 4.5-.5-4.5-2-3 .5-1.5-3.5-2.5.5-1.5-2 1q-1.1-2.4-4.5-2.5zm-46 1 2.5 4.5-1 1 .5 1.5-2.5-2.5 1-1-.5-1.5-1.5.5zm-56 1 1 1 1.5-.5q-2.2 1.3.5 2.5 1.3-2.2 2.5.5l-1 3 1 2-1.5 2.5q-1.2-2.3-2.5.5 2.3 1.3-.5 2.5l-1-1-2 2-.5-.5 5-5 1-5-4-4zm97 0 .5 2.5h-1zm38 0q.5 4.5 3.5 6.5l-1.5-.5-1 1-1.5-1.5 1-2h-2zm9 0-.5 1.5 1 1-2.5 2.5-1-1-1.5.5 4-2q-2.2-1.2.5-2.5Zm-234 1 .5 1.5-1 2h2l1 2-1 1 .5 1.5q-2.9-1.6-3.5-5.5zm16 1q2 .5 1.5 3.5l-2.5 3.5-1-1-1.5.5 1.5-1.5 1.5.5-1-4zm.5 1-1 3h1zm145.5-1 5.5 5.5-.5.5-2-2-1.5.5 1-1-2.5-2.5-1.5.5zm75 0 1.5 1.5-.5 1.5 2-1v2l2-1v2l2-1 3.5 4.5-1 2 .5 1.5-1.5-2.5.5-1.5-9.5-5.5 1-1zm-194 1 .5 1.5q-2 1 0 2l-.5 1.5-1-1-1.5.5zm9 0 1 1 1.5-.5-.5 1.5q-3.8-.7-2-2Zm-30 1 .5 2.5 5 5h-3q2.3-1.2-.5-2.5l-1.5.5q2.3-1.2-.5-2.5l-1.5-.5zm97 0q1.5 1-1 2l-1.5-.5zm68 0 1.5 2.5h-1zm-58 2q2.5 1 1 2l-1-1-1.5.5zm57 0 .5 1.5q-2 1 0 2l-1.5 1.5.5-1.5-1-1 1-1zm45 0 .5 4.5h-1zm2 0 .5 4.5h-1zm-261 1 1.5 3.5h-1zm177 0 1.5 2.5h-1zm25 0 .5.5-2.5 2.5-.5-.5zm-135 1q3 1.5 0 3l-1-1-1.5.5zm-30 1 2.5.5-2.5.5zm-35 3 2.5 2.5-.5.5-2-2-1.5.5zm176 1 1.5 2.5q-1.3 2.8-2.5.5l-2 2-1.5-.5 4-3zm-20 1 2.5 2.5-.5.5-1-1-1.5.5 1-1zm69 1 .5.5-2.5 2.5-.5-.5zm46 1 .5 1.5-2.5 1.5-.5-.5zm-167 1 3.5.5-3.5.5zm154 4 4.5.5-4.5.5zm32 39 2.5 1.5-1.5.5q-2.5-1-1-2Z" opacity=".129"/><path fill="#992d3a" stroke="#992d3a" d="m322.5 21 1.5 2.5h-1zm-55 1 1.5.5q-1 2.5-2 1zm156 4v3l-1.5-.5zm-161 33v2l2-1-.5 1.5.5 1.5 2-2 .5.5q-2 1 0 2l.5 1.5q1-2 2 0l2-2 1.5-.5-.5-1.5 2.5 1.5v8l-1.5 1.5h-10l-2 1v-1l1.5-.5-3.5-.5-1.5.5 1-3 .5-8.5zm53 0v2l2-1v2l2-1v2l4 3 1.5-2.5h-2l1.5-1.5 3 1 1.5-.5-2-2 .5-.5 2.5 1.5v6l-1 3 .5 1.5q-1-2-2 0h-10l-3 1v-1l1.5-.5-2.5-.5-1.5.5q2-1 0-2v-8l1.5-1.5zm54 2v2l3-1-.5 1.5.5 1.5 2-2 .5.5-.5 1.5 4 2 3-4 1.5.5-2 1 1 1v8l-1.5.5q-.7-1.7-4-1l-1 1q-4.7-1.2-6 1v-2l-2.5-.5.5-10.5zm-162 1-.5 1.5.5 1.5h3l3 2v-2l1.5 1.5-.5 1.5 4-1 2-2 .5 6.5-1.5 2.5-3-1v2l-3-1q-1 2-5 1l-.5-1.5q2.2-1.2-.5-2.5l-1.5-.5v-7zm209 3 3 1 3 3h2l1-1 1.5.5 1.5-2.5 2 1v-2l1.5.5-.5 5.5-3.5.5 1 3-.5 1.5-1-2-1 2q-5.5 1-8-1l-2 1-.5-2.5q2.3-1.2 1-6-1.7-.7-.5-2.5Zm-214 9 2.5.5v7l-1 1 .5 1.5-2.5-1.5 1-1v-6zm263 0 3.5 3.5-.5.5-3.5-1.5zm-206 1 1.5.5-.5 1.5q-2.5-1-1-2Zm201 0 3.5.5-.5 2.5-1-2-1 7-1.5-.5q2.2-1.2 1-6zm-291 2 1.5.5-.5 1.5q-2.5-1-1-2Zm86 0 3.5.5q-1.2 6.2 1 9l-1.5-.5-1 1-1.5-.5 1-1v-7l-2-1zm71 0 3.5.5-4 1-.5 1.5-.5-1.5zm40 0 2.5.5-2.5.5zm54 0 7.5.5-7.5.5zm28 1q1.5 1-1 2l-1.5-.5zm-32 1 1.5 4.5h-1l-.5-1.5-.5 5.5-1.5 1.5-1.5-.5 2-1v-7zm-180 1 2 2 2-2 .5.5-2.5 2.5-2.5-2.5zm25 0 .5 2.5h-1zm49 0 4.5.5-.5 1.5-1.5-.5-.5 8.5-1.5.5.5 1.5-2.5-1.5 2-1v-8zm54 0 2.5.5q-.8 4.8 1 7h-1l-.5-1.5-1 4-.5-8.5zm66 1 1.5 2.5-1.5-.5-1.5-.5zm-33 1 2.5 1.5-1.5.5q-2.5-1-1-2Zm-214 4 4.5.5-4.5.5-1 1q-1.5-1 1-2Zm6 0 3.5.5-3.5.5zm257 1 2.5.5-2.5.5zm-131 1 .5 2.5h-1zm79 4 8.5.5-8.5.5-1 1q-1.5-1 1-2Zm-109 2 1.5.5-2.5 1.5q-1.5-1 1-2Zm57 0 10.5.5-10.5.5zm-197 83 3 4 1.5.5-2 1 5.5 7.5 8 4 1.5-.5-1.5 1.5h-7l-3-1-5.5-5.5-2-5v-4zm309 1 4.5 5.5q-2.5 1.5 1 3l1.5 2.5 6 4q4.1-.6 5.5 1.5l-2.5.5q-1-2-2 0h-6l-7.5-6.5-1-2zm-38 1 1.5 1.5-2.5 2.5.5-1.5-1-1zm-231 8q-.1 5.1 3.5 6.5-2 1 0 2l1 3 5.5 5.5 4 2h3l1.5 1.5-1.5-.5-4 2-1-1q-4.2.7-6-1l-5.5-5.5-2-4v-7zm-13 1 4.5 2.5q-.5 2-3.5 1.5l-2-2-2 2-.5-.5zm130 2 .5.5-2.5 2.5-.5-.5zm111 0 5.5 3.5q-2 1 0 2l4.5 5.5 7 3 2-1q2.5 1 1 2l-2-1v2h-8q-6.2-2.3-9.5-7.5-2.3-2.9-.5-8.5Zm-198 1 .5 4.5h-1zm232 1 2.5.5-.5 2.5-6 2 .5-1.5.5-2.5zm-211 1q.2 4.2 3.5 5.5l2 6 4.5 4.5 6 3h3l1.5 1.5-1.5-.5-2.5.5.5 1.5-8-1q-4.8-1.7-7.5-5.5l-3-7v-5zm123 3 3 4 2 1 1.5-.5-2 2 7.5 7.5 4 1 3.5 2.5-9.5.5q-6.2-2.3-9.5-7.5l-2-6v-3zm-144 2 6.5 1.5-1.5 2.5-1-1-5.5-.5zm82 1 4 5 1.5.5 1 4 6.5 6.5 4 2 4.5.5-1 1 .5 1.5h-9l-8.5-5.5-4-7zm95 1 5.5.5-.5 2.5q-4.8-1.2-6 1l.5-1.5zm-59 1 1 2 6.5.5-.5 2.5-7.5-.5 1-2q-1.7-.7-.5-2.5Zm-63 1 5.5.5-.5 2.5-7.5-.5.5-1.5zm-6 8 .5.5-2.5 2.5-.5-.5zm-13 6 2.5.5-2.5.5z" opacity=".996"/><path fill="#b84f2f" stroke="#b84f2f" d="m475.5 94 .5 2.5h-1zm-321 1 .5 2.5h-1zm2 13 .5 2.5h-1zm316 6 .5 2.5h-1zm-312 21 .5 2.5h-1zm2 13 .5 2.5h-1zm304 6 .5 2.5h-1zm51 36-.5 1.5 2.5 2.5 1.5-.5-1.5 1.5-3.5-3.5zm-407 4 1 1 1.5-.5-1.5 1.5q-2.5-1-1-2Zm411 4 .5 4.5h-1zm-411 2 .5 3.5h-1zm410 8 .5 2.5h-1zm-409 1 .5 2.5h-1zm408 8 .5 3.5h-1zm-407 1 .5 2.5h-1zm406 8 .5 2.5h-1zm-405 1 .5 2.5h-1zm404 8 .5 2.5h-1zm-403 1 .5 2.5h-1zm1 8 .5 3.5h-1zm401 0 .5 2.5h-1zm-400 9 .5 2.5h-1zm1 9 .5 2.5h-1zm397 0 .5 2.5h-1zm-396 9 .5 2.5h-1zm395 0 .5 2.5h-1zm-1 8 .5 2.5h-1zm-393 1 .5 2.5h-1zm1 8 .5 2.5h-1zm391 0 .5 3.5h-1zm-390 9 .5 2.5h-1zm389 0 .5 2.5h-1zm-388 9 .5 2.5h-1z" opacity=".075"/><path fill="#c8612e" stroke="#c8612e" d="m427.5 24 3.5.5-3.5.5zm-269 51 1.5.5-4.5 2.5q-1.5-1 1-2zm316 2 2.5 2.5-.5.5-2.5-2.5zm2 7 .5 3.5h-1zm-323 1 .5 3.5h-1zm322 5 .5 3.5h-1zm-321 2 .5 2.5h-1zm320 5 .5 3.5h-1zm-319 1 .5 3.5h-1zm318 6 .5 3.5h-1zm-317 1 .5 2.5h-1zm1 6 .5 3.5h-1zm315 0 .5 2.5h-1zm-1 6 .5 3.5h-1zm-313 1 .5 3.5h-1zm312 6 .5 3.5h-1zm-311 1 .5 3.5h-1zm1 6 .5 3.5h-1zm309 0 .5 3.5h-1zm-1 6 .5 3.5h-1zm-307 1 .5 3.5h-1zm1 6 .5 3.5h-1zm305 0 .5 3.5h-1zm-304 7 .5 3.5h-1zm303 0 .5 2.5h-1zm-1 6 .5 3.5h-1zm-301 1 .5 2.5h-1zm1 6 .5 2.5h-1zm299 0 .5 2.5h-1zm56 39 .5 4.5h-1zm-409 1 .5 4.5h-1zm1 9 .5 4.5h-1zm407 0 .5 3.5h-1zm-406 8 .5 5.5h-1zm405 0 .5 4.5h-1zm-404 9 .5 5.5h-1zm403 0 .5 4.5h-1zm-402 9 .5 4.5h-1zm401 0 .5 4.5h-1zm-1 8 .5 5.5h-1zm-399 1 .5 4.5h-1zm1 9 .5 4.5h-1zm397 0 .5 4.5h-1zm-396 8 .5 5.5h-1zm395 0 .5 5.5h-1zm-394 10 .5 4.5h-1zm393 0 .5 3.5h-1zm-1 8 .5 4.5h-1zm-391 1 .5 3.5h-1zm1 8 .5 4.5h-1zm389 0 .5 4.5h-1zm-388 9 .5 4.5h-1zm387 0 .5 4.5h-1zm-386 9 .5 3.5h-1z" opacity=".533"/><path fill="#9ad2f3" stroke="#9ad2f3" d="m309.5 22 .5.5-2 2-.5 7.5-11.5-.5 11-1q-1.5-7 2.5-8.5Zm58 1 9.5.5-9.5.5zm12 0 8.5.5-8.5.5zm-175 1 6.5.5-6.5.5zm13 0 7.5.5-7.5.5zm37 0 .5 4.5-3.5.5v-1l2.5-.5zm-28 1 2.5 1.5-1.5-.5q-2.4-.1-1-1Zm188 0 7.5.5-7.5.5zm10 0 8.5.5-8.5.5zm-88 1 1 6 10.5.5-11.5.5zm75 0 1.5.5-2.5 1.5q-1.5-1 1-2Zm23 0 3.5 2.5-.5.5-2-2q-2.4-.1-1-1Zm-151 4 1 1 9.5.5-9.5.5q-2.5-1-1-2Zm-103 1 6.5.5-6.5.5zm9 0 9.5.5-9.5.5zm161 1 9.5.5-9.5.5zm45 3 2.5.5-2.5.5zm11 0 2.5.5-2.5.5zm34 0 4.5.5-4.5.5zm16 0h2l3.5 2.5-1.5-.5-4-1zm-284 29 .5 6.5h-1z" opacity=".682"/><path fill="#e24bd9" stroke="#e24bd9" d="m599.5 356 .5 1.5q-1 2.5-2 1zm-539 2 1.5.5-2 1 .5 1.5q-3-1.5 0-3Zm-10 3 1.5.5-2.5 1.5q-1.5-1 1-2Zm-49 29 1.5.5L.5 393l-.5-.5zm636 0 1.5.5 1 3h-1l-2-3zm-56 54q1.5 1-1 2l-1.5-.5zm-444 14 2.5.5-2.5.5zm112 0 4.5.5-4.5.5zm137 0 4.5.5-4.5.5zm114 0 2.5.5-2.5.5z" opacity=".008"/><path fill="#fb1700" stroke="#fb1700" d="m211.5 5 .5.5-2.5 2.5-.5-.5zm79 2 2.5 2.5-.5.5-2.5-2.5zm131 1 .5.5-3.5 3.5-.5-.5zm-192 1-.5 1.5-.5 1.5-.5-1.5zm53 0 1.5.5-.5 1.5q-2.5-1-1-2Zm-62 2 2.5 1.5 1 2-.5.5-3.5-3.5zm60 2 .5 2.5h-1zm107 2 .5 2.5h-1zm-48 1 .5.5-2.5 2.5-1.5-.5zm17 1 2.5 4.5h-1l-2-3zm-107 3 .5 1.5-1.5.5q-1.5-1 1-2Zm-71 2 1.5.5q-2 1 0 2l-.5 1.5-1.5-2.5zm181 1 .5 2.5h-1zm80 0-.5 1.5-1.5 2.5.5-1.5zm15 4-.5 1.5-.5 1.5-.5-1.5zm-300 48 .5.5-3.5 3.5-.5-.5zm322 1 2.5 2.5-.5.5-2.5-2.5zm-7 73q1.5 1-1 2l-1.5-.5zm4 17 3.5 2.5-.5.5-2-2q-2.4-.1-1-1Zm-331 8 .5 1.5-1.5 2.5-.5-1.5zm375 80 .5 1.5q-1 2.5-2 1zm-1 9 .5 1.5q-1 2.5-2 1zm-400 9 1.5 2.5q-1 1.5-2-1z" opacity=".016"/><path fill="#de7973" stroke="#de7973" d="m151.5 85 .5 3.5h-1zm327 0 .5 2.5h-1zm-1 6 .5 3.5h-1zm-325 1 .5 2.5h-1zm324 6 .5 2.5h-1zm-323 1 .5 2.5h-1zm322 5 .5 3.5h-1zm-321 1 .5 2.5h-1zm320 6 .5 2.5h-1zm-319 1 .5 2.5h-1zm1 6 .5 3.5h-1zm317 0 .5 2.5h-1zm-315 6-.5 1.5-.5 3.5-.5-3.5zm314 0 .5 3.5h-1zm-1 7 .5 3.5h-1zm-313 1 .5 2.5h-1zm1 6 .5 3.5h-1zm311 0 .5 3.5h-1zm-2 5q2.3.8 1.5 4.5h-1v-3zm-308 2 .5 3.5h-1zm1 6 .5 3.5h-1zm307 0 .5 3.5h-1zm-306 7 .5 3.5h-1zm305 0 .5 2.5h-1zm21 21 2.5.5-2.5.5zm-354 2 2.5 1.5-1.5-.5q-2.4-.1-1-1Zm362 0 1.5.5-2.5 1.5q-1.5-1 1-2Zm26 23 .5 4.5h-1zm-413 1 .5 3.5h-1zm412 8 .5 3.5h-1zm-411 1 .5 3.5h-1zm410 8 .5 3.5h-1zm-409 1 .5 3.5h-1zm408 7 .5 4.5h-1zm-407 1 .5 4.5h-1zm406 8 .5 4.5h-1zm-405 1 .5 3.5h-1zm404 8 .5 4.5h-1zm-403 1 .5 3.5h-1zm402 8 .5 4.5h-1zm-401 1 .5 3.5h-1zm1 8 .5 4.5h-1zm399 0 .5 4.5h-1zm-398 9 .5 4.5h-1zm397 0 .5 4.5h-1zm-396 9 .5 3.5h-1zm395 0 .5 3.5h-1zm-394 9 .5 3.5h-1zm393 0 .5 3.5h-1zm-391 7-.5 1.5-.5 4.5-.5-4.5zm390 1 .5 2.5h-1zm17 8 2.5.5-2.5.5zm-409 3 2.5.5-2.5.5zm428 2 2.5.5-2.5.5zm-453 6 2.5 1.5-1.5-.5-2 1q-1.5-1 1-2Zm-25 14 .5.5-2.5 2.5-.5-.5zm525 2 2.5 2.5-.5.5-2.5-2.5zm6 7 .5 1.5q-1 2.5-2 1zm38 67 1.5.5-.5 1.5q-2.5-1-1-2Zm-635 5 5.5 4.5-1.5-.5-4.5-3.5zm633 0 .5.5-2.5 2.5-.5-.5zm-561 32q1.5 1-1 2l-1.5-.5zm246 1 2.5.5-2.5.5zm8 0q1.5 1-1 2l-1.5-.5zm-40 4 3.5 1.5-2.5.5q-2.5-1-1-2Zm8 0 2.5.5-2.5.5zm235 1 3.5 1.5-2.5.5q-2.5-1-1-2Zm-179 1 2.5.5-2.5.5zm171 0 5.5 1.5-3.5.5-2.5-1.5zm-414 1 2.5.5-2.5.5zm250 0 2.5.5-2.5.5zm-242 1 3.5.5-3.5.5zm152 0 2.5.5-2.5.5zm249 0 2.5.5-2.5.5zm-392 1 2.5.5-2.5.5zm134 0 2.5.5-2.5.5zm115 0 2.5.5-2.5.5zm133 0 4.5.5-4.5.5zm-375 1 2.5.5-2.5.5zm23 0 5.5.5-5.5.5zm71 0 4.5.5-4.5.5zm179 0 4.5.5-4.5.5zm70 0 5.5.5-5.5.5zm26 0 2.5.5-2.5.5z" opacity=".031"/><path fill="#890104" stroke="#890104" d="m401.5 32 1 1 1.5-.5-1.5 1.5-1-1-1.5.5zm-232 39 2.5.5-2.5.5zm294 1 2.5.5-2.5.5zm-307 92 3.5.5-3.5.5zm-4 1 2.5.5-3 1 2 1-1.5.5-2-1 .5 1.5-1.5 1.5-4 3-1.5-.5 1 2-1.5 2.5-.5-1.5q2-1 0-2l4.5-5.5 2 1-.5-1.5 1.5-1.5zm4 1 3.5.5-3.5.5zm8 0q1.5 1-1 2l-1.5-.5zm305 1h3l3.5 2.5-1.5-.5-5-1zm8 1 5.5 6.5-1.5 2.5-1.5-2.5 1-2-1.5.5-2.5-2.5 1-1zm-335 10 .5 2.5h-1z" opacity=".149"/><path fill="#fea702" stroke="#fea702" d="M236.5 0q1.3 4.7 5 7l6 3 2.5 2.5 1 3-1.5 2.5-1-4-1 2-2.5-3.5.5-.5 2 2 1.5-1.5-6.5-3.5-5-5-2.5 1.5.5 1.5-1.5-1.5q2-1 0-2l.5-2.5zm90 1 1.5.5-.5 1.5-2.5.5.5 1.5-2-1-1 2-.5-1.5zm54 0 1.5 3.5h-1l-.5-1.5-1.5 2.5 1 1-3.5 3.5 1-3-6.5 3.5 2 1-1.5 4.5-1-4-1 3-.5-3.5q1.6-2.9 5.5-3.5l5.5-5.5zm-112 1 1.5.5-3.5 5.5-1.5.5 1 1-2.5 2.5-1.5-.5 3-2q-2.2-1.2.5-2.5l1.5-.5-.5-1.5 1.5-.5q-2.2-1.2.5-2.5Zm-52 2q2.8 1.3.5 2.5l1 3-1.5.5-1-3q-1 2-2 0L211 9.5q2.3 1.3-.5 2.5l-1.5-1.5 4.5-4.5 1.5.5zm54 1 2.5 2.5-.5.5-2.5-2.5zm48 1 .5 1.5-2.5 2.5-1.5-1.5 1.5-1.5 1.5.5zm63 0 2.5 1.5-1.5.5q-2.5-1-1-2Zm48 0 1.5 2.5-1.5-.5-1.5.5 2 3v2l-1.5.5-1-4-5 3q-2.5-1-1-2l1.5.5.5-1.5 1.5.5.5-1.5 1.5.5zm-196 1v3l-1.5-.5 1 2h-2l-1 4 1 2q-1 1.5-2-1v-3zm93 0 2.5 4.5q-1 1.5-2-1zm-52 1 3.5 4.5h-1l-3-4zm12 0 2.5 1.5-1.5 2.5-.5-1.5.5-1.5-1.5.5-.5 1.5-.5-1.5zm62 1 1.5.5-2 1 .5 1.5-1.5.5-2.5 3.5-.5-.5 2-2zm-165 1 3.5 2.5.5 1.5 1.5-.5.5 1.5 1.5-.5.5 1.5 1.5-.5.5 1.5 1-1 2.5 2.5-1 3q2 1 0 2l-2.5 4.5.5-1.5q1.8-2.2 1-7l-2.5-2.5-7-3-1 4-1.5-.5zm35 1 3.5 5.5q-2 1 0 2l-2.5 3.5-4.5-.5q3.8-.2 5-3v-4l-2-3zm132 0 2.5 4.5h-3l1-2h-2zm-142 1 1.5 1.5q-1.2 4.7 1 6-1 1.5-2-1-2-2.3-.5-6.5Zm53 1 1.5.5.5 4.5 4.5 1.5-2.5.5-3.5-2.5q-1.7-1.7-.5-4.5Zm25 0 1.5 4.5q-1 1.5-2-1zm10 0 4.5 4.5v3h-1l-.5-3.5-1 1-2.5-2.5 1-1zm19 0 1.5.5q-.5 3.5 2 4l-.5.5-2.5-2.5zm81 0q3-.5 3.5 1.5-2.4 1.1-2.5 4.5l-1.5-.5zm23 0-.5 1.5 1 1v3l4 4-.5.5-4.5-4.5-1-4zm-92 1q3 1.5 0 3l-1.5-.5-.5 1.5-.5-1.5zm58 0 .5 1.5-3.5 4.5-4 2v-1l3.5-2.5q-2.2-1.2.5-2.5l2.5-.5zm-109 1 1.5 1.5-2.5 2.5-2.5-.5 3-2zm125 0 3.5 3.5-1.5 1.5-3.5-3.5zm28 0 1.5.5 3 5v2l-1.5 1.5q-1-2-2 0l-1.5-.5 3-2v-2l-3-4zm-87 1 .5.5-4 4q1.3 4.8-1 6l.5 1.5q-2.7-1.2-1.5-6.5zm99 0 3.5 2.5.5 1.5 1.5-.5.5 1.5 1.5-.5.5 1.5q1.3-2.2 2.5.5l-.5 1.5 1.5.5-.5 2.5-1.5-.5q.5-4-2.5-4.5l-4.5-2.5-.5-1.5-3 1-.5-1.5zm-194 1 1.5 2.5h-2l-5.5 7.5-.5-.5 2-2zm74 0 1 1 1.5-.5-.5 1.5q-3.8-.7-2-2Zm32 0 3.5 4.5q-1 2.5-2 1l.5-1.5-3.5-2.5zm19 0 2.5 2.5-.5.5-2.5-2.5zm-190 2 1.5.5q-1.7.8-1 4l.5 1.5-1-1-1.5.5zm48 0q2.8 4.2 8 6l1-2 .5 1.5-2.5 1.5-7.5-6.5zm165 1 1.5.5-3.5 4.5-1.5-.5z" opacity=".937"/><path fill="#fea702" stroke="#fea702" d="m442.5 20 .5 2.5h-1zm-158 1 1.5.5-2.5 1.5q-1.5-1 1-2Zm14 1 1.5.5-5.5 5.5-.5-.5zm108 0 .5 1.5q-2 1 0 2-.6 3.9-3.5 5.5l-.5-.5 2-2q-1.2-5.2 1.5-6.5Zm-49 1 .5 2.5-1.5.5-.5-1.5zm84 1-.5 1.5-2.5 5.5-.5-2.5zm-258 2 3 1 2.5 1.5-2.5.5-1-2-1 1q-2.5-1-1-2Zm100 0 3.5 2.5-2.5 1.5.5-1.5-2-2zm72 1 1.5.5-2.5 2.5-.5-.5zm95 1 .5 1.5q-1 2.5-2 1zm-107 1 2.5 1.5-3.5.5q-1.5-1 1-2Zm50 0 3.5 2.5-.5 1.5-1.5-.5-.5-1.5q-1.2 2.3-2.5-.5zm-44 1 3.5.5-3.5.5zm90 2 1.5.5q-1 2.5-2 1zm3 1 2.5.5-2.5.5z" opacity=".937"/><path fill="#ef88b0" stroke="#ef88b0" d="m509.5 307 2.5.5-2.5.5zm5 1 2.5.5-2.5.5zm4 1 3.5.5-3.5.5zm5 1 3.5.5-3.5.5zm5 1 2.5.5-2.5.5zm4 1 2.5.5-2.5.5zm4 1 2.5.5-2.5.5zm-417 1 2.5.5-2.5.5zm421 0 2.5.5-2.5.5zm-425 1 2.5.5-5.5 1.5v-1zm429 0 5.5 1.5-2.5.5-3-1zm-439 3 2.5.5-10.5 3.5v-1zm449 0 7.5 2.5-1.5.5-6-2zm-460 4 1.5.5-3.5 1.5v-1zm472 0 3.5 1.5-1.5.5-2.5-1.5zm-477 2 1.5.5-14.5 7.5q-1.5-1 1-2zm482 0 13 6 5.5 4.5-.5.5-2-2-16-8zm-497 8 .5.5-2.5 2.5-7 6-.5-.5 6.5-6.5zm518 4 4.5 4.5-.5.5-4.5-4.5zm-528 6-.5 1.5-1.5 5.5-.5-3.5zm533 0 1.5 2.5h-1zm2 4 .5 7.5h-1zm-537 5 .5 2.5h-1zm1 4 2.5 4.5-4.5 1.5v-1q3 .5 3.5-1.5-3-1-1.5-3.5Zm532 5 .5.5-2.5 2.5-.5-.5zm-538 1 2.5.5-5.5 1.5v-1zm-10 3 2.5.5-4.5 1.5v-1zm549 2 6.5 2.5-1.5.5-5-2zm-557 1 1.5.5-3.5 1.5v-1zm-5 2 1.5.5-5.5 2.5v-1zm570 0 5.5 2.5-1.5.5-4-2zm-582 6q1.5 1-1 2l-3 1-5 4-.5-.5 2.5-2.5zm595 0 3.5 2.5-1.5-.5q-3.8-.7-2-2Zm5 3 4.5 3.5-.5.5-2-2q-3.8-.7-2-2Zm-612 5 .5.5-6.5 6.5-.5-.5zm619 0 6.5 6.5-.5.5-6.5-6.5zm-626 8-.5 1.5-1.5 3.5-.5-1.5zm633 0 2.5 4.5h-1l-2-4zm0 22 .5.5-3.5 3.5-.5-.5zm-632 1 2.5 2.5-.5.5-2.5-2.5zm627 4 .5.5-4.5 4.5-.5-.5zm-622 1 3.5 3.5-.5.5-3.5-3.5zm11 8 12.5 6.5-1.5.5-10-5q-2.5-1-1-2Zm599 0q1.5 1-1 2l-11 5v-1zm-585 7 11.5 4.5-1.5.5-10-4zm570 0 1.5.5-8.5 3.5v-1zm-551 7 5.5 1.5-2.5.5-3-1zm531 0 2.5.5-5.5 1.5v-1zm-524 2 14.5 3.5-3.5.5-1-1-10-2zm517 0 2.5.5-5.5 1.5v-1zm-7 2 2.5.5-2.5.5zm-254 1 2.5.5-2.5.5zm5 0 2.5.5-2.5.5zm244 0 3.5.5-3.5.5zm-489 1 2.5.5-2.5.5zm235 0 3.5.5-12.5 2.5v-1l8-1zm14 0 3.5.5-3.5.5zm236 0 2.5.5-2.5.5zm-481 1 3.5.5-3.5.5zm250 0 3.5.5-3.5.5zm226 0 3.5.5-3.5.5zm-471 1 3.5.5-3.5.5zm250 0 8.5 1.5-4.5.5q-.7-1.7-4-1zm216 0 3.5.5-3.5.5zm-461 1 4.5.5-4.5.5zm206 0 4.5.5-4.5.5zm249 0 4.5.5-4.5.5zm-449 1 4.5.5-4.5.5zm194 0 4.5.5-4.5.5zm55 0 4.5.5-4.5.5zm195 0 3.5.5-3.5.5zm-438 1 4.5.5-4.5.5zm181 0 5.5.5-5.5.5zm68 0 4.5.5-4.5.5zm182 0 5.5.5-5.5.5zm-424 1 4.5.5-4.5.5zm168 0 4.5.5-4.5.5zm81 0 5.5.5-5.5.5zm168 0 5.5.5-5.5.5zm-410 1 5.5.5-5.5.5zm153 0 5.5.5-5.5.5zm96 0 5.5.5-5.5.5zm153 0 5.5.5-5.5.5zm-394 1 6.5.5-6.5.5zm135 0 7.5.5-7.5.5zm114 0 6.5.5-6.5.5zm136 0 7.5.5-7.5.5zm-376 1 8.5.5-8.5.5zm116 0 7.5.5-7.5.5zm133 0 9.5.5-9.5.5zm116 0 8.5.5-8.5.5zm-354 1 11.5.5-11.5.5zm91 0 10.5.5-10.5.5zm159 0 10.5.5-10.5.5zm90 0 11.5.5-11.5.5zm-321 1 10.5.5-10.5.5zm54 0 10.5.5-10.5.5zm195 0 10.5.5-10.5.5zm54 0 10.5.5-10.5.5z" opacity=".431"/></svg>