<svg xmlns="http://www.w3.org/2000/svg" viewBox="0 0 640 307"><path fill="#17191c" stroke="#17191c" d="m408.5 1 2.5.5-2.5.5zm-13 1 8.5.5-8.5.5zm17 0 .5 7.5h-1zm-28 1 7.5.5-7.5.5zm-11 1 7.5.5-7.5.5zm-15 1 11.5.5-11.5.5zm-8 1 4.5.5-4.5.5zm-279 1 4.5.5-4.5.5zm271 0 4.5.5-4.5.5zm-265 1 17.5.5-17.5.5zm258 0 4.5.5-4.5.5zm-236 1 8.5.5-8.5.5zm226 0 6.5.5-6.5.5zm-211 1 6.5.5-6.5.5zm189 0 17.5.5-17.5.5zm-175 1 6.5.5-6.5.5zm151 0 15.5.5-15.5.5zm-138 1 7.5.5-7.5.5zm116 0 6.5.5-6.5.5zm156 0 .5 4.5h-1zm-345 1 .5 3.5h-1zm87 0 8.5.5-8.5.5zm59 0 10.5.5-10.5.5zm31 0 5.5.5-5.5.5zm-113 1 4.5.5-4.5.5zm36 0 38.5.5-38.5.5zm70 0 4.5.5-4.5.5zm-97 1 11.5.5-11.5.5zm89 0 4.5.5-4.5.5zm-76 1 12.5.5-12.5.5zm66 0 6.5.5-6.5.5zm-50 1 13.5.5-13.5.5zm35 0 13.5.5-13.5.5zm-17 1 15.5.5-15.5.5zm203 0 7.5.5-7.5.5zm23 1 .5 10.5h-1zm-347 3 .5 16.5h-1zm16 5q3 .5 2.5 4.5h-1v-2l-2-2zm4 1 12.5.5-12.5.5zm140 0 1.5 2.5-5.5.5v-1q3.5.5 4-2Zm-10 3 4.5.5-4.5.5zm-10 1 5.5.5-5.5.5zm-11 1 4.5.5-4.5.5zm217 3 .5 6.5h-1zm-347 7 .5 21.5h-1zm346 4 .5 9.5h-1zm12 6 23.5.5-23.5.5zm27 1 29.5.5-29.5.5zm32 1 3.5.5-3.5.5zm-61 2 .5 5.5h-1zm68 0 3.5 5.5q-1 1.5-2-1l-2-3zm-41 5 .5 2.5-2 1q2.3 1.3-.5 2.5l-1.5-.5zm9 0 .5 1.5-2.5 6.5-.5-1.5 1-2-.5-.5-3 3-.5-.5zm-47 1 .5 42.5h-1zm83 1 2.5 2.5 5 10v2h-1v-2l-5-10-2-2zm-73 2 .5 39.5h-1zm19 2 .5 1.5-3.5 5.5.5-1.5zm25 0 .5 2.5-3.5 5.5.5-1.5 1-2-1-2zm-400 1 .5 8.5h-1zm406 4 .5.5-2 2 1 1-1.5 4.5-.5-2.5 1-2-1-1zm-36 7 .5 1.5-6.5 9.5.5-1.5 3-7zm43 1 .5 1.5-2 1 1 2h-1l-.5-1.5-6 7-.5-.5 4-4zm-414 1 .5 13.5h-1zm400 0 .5.5-7.5 7.5-.5-.5zm39 0 6.5 13.5h-1l-6-12zm-61 2 .5.5-2.5 2.5-.5-.5zm40 5 .5 2.5h-1zm-208 1 .5 6.5-2 6-6 7-.5 4.5-1.5-.5 2-6q4.2-2.8 6-8v-8zm182 1 .5.5-2.5 2.5-.5-.5zm13 1 .5.5-4.5 4.5-.5-.5zm11 0 1.5 2.5h-1l-.5-1.5-3 3-.5-.5zm-37 2 1.5.5-3 3-5.5 9.5-.5-1.5zm-12 3 2.5.5-4.5 5.5.5-1.5zm18 1 1.5 1.5-3 3q-2 7-6.5 11.5l.5-1.5zm-386 1 .5 7.5h-1zm400 0 .5.5-5.5 5.5-.5-.5zm48 0 3.5 6.5q-1 1.5-2-1l-2-4zm-37 1 .5.5-2.5 2.5-.5-.5zm8 2 .5 1.5-5.5 6.5-.5-.5 2-2zm1 3 .5 2.5-1 1-.5 4.5-.5-4.5zm-26 1 .5.5-3.5 3.5-1.5-.5 1.5-2.5q1.5 2.5 3-1Zm-37 3 .5 6.5h-1zm47 0 .5.5-4.5 4.5-.5-.5 2-2-.5-1.5q1.5 2.5 3-1Zm49 0 5.5 9.5h-1l-5-9zm-29 1 1.5.5-6.5 4.5v-1zm-425 1 .5 11.5h-1zm348 0 .5 19.5h-1zm42 0 1.5.5-3.5 3.5-.5-.5zm24 0 .5.5-5.5 5.5-.5-2.5 1.5-2.5 1 2zm13 1 1 4h2l3-3 .5.5-3.5 3.5q-3 .5-3.5-1.5zm-70 8 .5 6.5h-1zm103 0 2.5 5.5h-1l-2-4zm-461 6 .5 8.5h-1zm459 0 2.5.5-2.5.5zm-372 1 .5 15.5h-1zm329 0 40.5.5-40.5.5zm-13 1 9.5.5-9.5.5zm-15 1 10.5.5-10.5.5zm-15 1 9.5.5-9.5.5zm-13 1 9.5.5-9.5.5zm-267 6 .5 3.5h-1zm255 1 .5 5.5h-1zm-349 1 .5 8.5h-1zm81 5 .5 4.5h-1zm12 0 .5 3.5h-1zm-6 7 .5 4.5h-1zm14 0 .5 5.5h-1zm249 3 .5 4.5h-1zm-351 2 .5 14.5h-1zm321 2 .5 1.5-2.5 5.5-.5-2.5zm52 0 14.5.5-14.5.5zm-263 2 .5 5.5h-1zm284 2 .5 6.5h-1zm-44 1 .5 15.5q-.7 2.3-4.5 1.5v-1l3.5-.5zm20 0 .5 3.5h-1zm-4 1 .5 6.5h-1zm-48 4 .5 2.5h-1zm75 2 .5.5-2.5 2.5-.5-.5zm154 1q7.3-1.2 9.5 2.5l-.5 4.5-1-5q-2.5-2-8-1l-7 4q-1.5-1 1-2zm-239 2 .5 3.5h-1zm59 0 2.5 1.5-1.5.5q-2.5-1-1-2Zm20 0 2.5.5-2.5.5zm-10 1 8.5.5-8.5.5zm161 2 .5.5-3 3-.5 2.5-.5-2.5zm11 3 1.5.5-3.5 1.5v-1zm-213 1 5.5.5-5.5.5zm-204 1 .5 1.5q-1 2.5-2 1zm218 0 .5 8.5h-1zm194 0 1.5.5-6.5 2.5v-1zm-425 1 3 5q4.7 1.2 6-1 1.5 1-1 2-6.2 1.3-7.5-2.5zm431 1 1.5 2.5-6.5 4.5-.5-.5 2.5-2.5 3.5-1.5q-1.7-.7-.5-2.5Zm-551 1 .5 31.5h-1zm535 0 .5 5.5h-1zm10 2 1.5.5-5.5 2.5v-1zm12 0 .5 16.5h-1zm-530 3 .5 19.5h-1zm517 1 .5 1.5-2.5 1.5-.5-1.5zm-196 1 1.5.5q-1.7 2.3-6.5 1.5v-1q4 1 5-1Zm186 1 .5 8.5h-1zm-183 1 .5 7.5h-1zm-339 3 .5 11.5 1 1v8h-1v-8l-1-1zm336 7 2.5.5-3.5 1.5h-5l-1 1h-10v-1l3-1h13zm189 0 2.5.5-2.5.5zm-218 2h4l1 1 4.5.5-8.5.5q-2.5-1-1-2Zm-8 1 5.5 1.5-15.5.5-1 1h-11l-1 1q-4.7-1.2-6 1h-10v-1h10l6-2h12l1-1h9zm-283 4 .5 4.5h-1zm231 0 10.5 1.5-19.5.5-1 1h-27l-1 1h-15l-1 1h-12l-1-1-19.5-.5 23.5-.5 1 1h7l1-1h14l1-1h25l1-1h12zm61 0 8.5.5-8.5.5zm32 1 .5 6.5h-1zm-285 1 24.5.5-24.5.5zm-10 1 6.5.5-6.5.5zm41 0h7l1 1h40l1 1 40.5.5-58.5.5-1-1-47.5-.5 16.5-.5z" opacity=".996"/><path fill="#17191c" stroke="#17191c" d="M107.5 214q3.3-.7 4 1l23.5.5-35.5.5-1 1h-10l-1 1h-9l-1 1h-10l-1 1-6 1-2 2-.5-.5 2.5-2.5 6-2h6l1-1h14l1-1h7l1-1h10zm289 2 7.5.5-7.5.5zm-89 1 3.5.5-3.5.5zm-163 3 4.5.5-4.5.5zm267 0 .5 8.5h-1zm178 0 10.5.5-10.5.5zm-449 1 2.5.5-2.5.5zm439 0 2.5.5-2.5.5zm6 0 2.5.5-3.5 1.5q-1.5-1 1-2Zm18 0 6.5.5-6.5.5zm-467 1 2.5.5-5.5 1.5v-1zm376 0 7.5.5-7.5.5zm100 0 3.5.5-3.5.5zm-539 1 5.5.5-5.5.5zm449 0q3-.5 3.5 1.5l-1.5-.5q-3 .5-2-1Zm60 0 .5 1.5-2.5 4.5-.5-1.5zm35 0 2.5.5-2.5.5zm-552 1 2.5.5-2.5.5zm499 0 2.5.5-5.5 2.5q-1.5-1 1-2zm7 0 .5.5-2 2-1.5 2.5.5-1.5zm-512 1 3.5.5-4.5 1.5q-1.5-1 1-2Zm169 0 3.5.5-4 1 1.5 2.5 3.5.5-3.5.5-3.5-2.5.5-1.5zm18 0 3.5 1.5-2.5.5q-2.5-1-1-2Zm378 0 4.5 2.5-1.5-.5-3-1zm-500 1 1.5.5-3.5 1.5v-1zm37 0 2.5 2.5-.5.5-2.5-2.5zm72 0 1.5.5-.5 1.5-1.5-.5zm277 1 4.5.5-4.5.5-5 3h-2l-8 6-.5-.5 3.5-3.5zm6 0 2.5.5-2.5.5zm-460 1 1 4 4.5.5-4.5.5q-2.7-1.2-1-5Zm64 0q1.5 1-1 2l-9.5 8.5-3.5 4.5-6.5-.5 6.5-.5 2.5-2.5 9.5-10.5zm45 1 6.5 6.5 1 3h-1l-1-3-6-6zm368 0 8.5 8.5-.5.5-8.5-8.5zm46 1 .5 3.5h-1zm54 0 .5 3.5h-1l-1-2zm-244 2 21.5.5-13.5.5-1 1h-30l-1 1-31 1-1 1q-4.2-.7-6 1l-4.5-1.5 7.5-.5 1-1h13l1-1h17l1-1h25zm237 0 .5 3.5h-1zm11 0 .5 2.5h-1zm-517 1 .5.5-4.5 4.5-.5-.5zm370 0 .5.5-3.5 3.5-.5-.5zm-331 1q4.6 3.9 6.5 10.5h-1l-6-10zm243 0 5.5.5-5.5.5zm154 0 .5 3.5h-1zm78 1 .5 5.5h-1zm-317 2q4.8-.7 6.5 1.5l-21.5.5-1 1h-22l-1 1h-19v-1l39-1 1-1h17zm94 2q2.5 1 1 2l-7.5-.5 5.5-.5zm-238 1 .5 2.5h-1zm465 0 .5 7.5h-1zm-571 1 30.5.5-30.5.5zm46 0 .5.5-2.5 2.5-.5-.5zm122 0 22.5.5-19.5.5-1 1h-23l-1 1h-12l-1 1h-6l-1 1-7 1-4.5-1.5 8.5-.5 1-1h9l1-1h12l1-1h20zm248 0 .5.5-2.5 2.5-.5-.5zm-426 1 6.5.5-6.5.5zm496 0 .5 3.5h-1zm80 0 .5 3.5h-1zm-219 1 .5 4.5 1 1v5h-1q1.3-4.8-1-6zm-240 1 1 2 3.5.5-3.5.5q-2.4-.9-1-3Zm-17 1 .5 1.5-1.5 2.5-.5-1.5zm323 0-.5 1.5-2.5 5.5-.5-1.5zm-405 1 .5 1.5-2 1 .5 1.5-1.5-1.5zm105 1 3.5.5-3.5.5zm209 0 3.5.5-6.5 7.5-2 1-.5-1.5 7-6-2-1zm6 0 3.5.5-3.5.5zm-339 1 .5 15.5h-1zm88 1 4.5 4.5-.5.5-4.5-4.5zm31 0 .5 7.5h-1zm377 0 .5 9.5h-1zm-425 1 .5.5-2.5 2.5-.5-.5zm-59 1 2.5.5-2.5.5zm5 0-.5 1.5-1.5 2.5.5-1.5zm452 0 3.5 3.5-.5.5-3.5-3.5zm-448 1 1.5 1.5-2.5 2.5.5-1.5-1-1zm6 0 .5 2.5q-1 1.5-2-1zm19 0 .5 2.5h-1zm520 0q4.1-.6 5.5 1.5l-1.5.5q-.7-1.8-4-1-3 1.5 0 3l2.5 1.5-1.5-.5-3.5-2.5.5-1.5zm-555 1 1 1 1.5-.5-6.5 7.5.5-1.5 2.5-4.5 1.5-.5zm92 0 1.5 4.5-2.5 1.5v-1l1.5-.5q-2.1-1.1-.5-4.5Zm78 0 2.5.5-2.5.5zm400 0 .5 3.5h-1zm-563 1 .5.5-5.5 5.5-.5-1.5 2-1-.5-1.5 1 1zm6 0 .5.5-3.5 3.5-2 1-.5-1.5q4.2-.3 5.5-3.5Zm154 0 1.5.5-1 2 2 2-.5.5q-3.7-1.2-2-5Zm158 0 8.5.5-6.5.5-1 1-1.5-.5-1.5 2.5.5-1.5zm-301 1 .5 2.5h-1zm314 0-.5 1.5-2.5 3.5-1.5-.5 2-1zm-323 1 .5 1.5-1.5.5q-1.5-1 1-2Zm334 0 .5 3.5h-1zm-315 1 .5 3.5h-1zm280 0 .5.5-4.5 4.5-.5-.5zm148 0 .5 4.5h-1zm-221 1h13l2.5 1.5-1.5.5-1-1h-13zm283 0 .5.5-2.5 2.5-.5-.5zm10 0 1.5.5-5.5 3.5q-1.5-1 1-2zm-425 1 .5 5.5h-1zm99 1 8.5.5-8.5.5zm199 0 .5 3.5h-1zm-313 1 .5 2.5h-1zm256 1 .5 2.5h-1zm133 0 .5 2.5h-1zm85 0 .5.5-4.5 4.5-1.5-.5zm-581 2q.1 3.4 2.5 4.5l-.5.5-2.5-2.5zm498 1 .5 3.5h-1zm-456 1 2.5.5-3.5 1.5h-9v-1h9zm322 0 2.5 4.5q-1 1.5-2-1zm-243 1 .5 2.5h-1zm-96 1 5.5.5-5.5.5zm134 0 2.5.5-2.5.5zm260 0 .5 9.5h-1zm144 0 6.5.5-6.5.5zm-559 1 2.5.5-2.5.5zm275 0 10.5.5-10.5.5zm36 0 10.5.5-10.5.5zm175 0 .5 2.5h-1zm-398 1 .5.5-4.5 4.5-.5-.5zm115 0 4.5.5-4.5.5zm52 0 13.5.5-13.5.5zm88 0 8.5.5-8.5.5zm153 0 8.5.5-8.5.5zm-383 1 .5 3.5h-1zm85 0 2.5.5-2.5.5zm35 0 12.5.5-12.5.5zm123 0 4.5 1.5-1.5.5-3-1zm152 0 8.5.5-8.5.5zm39 0 10.5.5-10.5.5zm-355 1 3.5.5-3.5.5zm23 0 11.5.5-11.5.5zm226 0 3.5 3.5-.5.5-3.5-3.5zm26 0 .5.5-2.5 2.5-.5-.5zm60 0 13.5.5-13.5.5zm-341 1 3.5.5-3.5.5zm-5 1 2.5.5-2.5.5zm-8 1 6.5.5-6.5.5zm-98 1 2.5.5-2.5.5zm83 0 8.5.5-8.5.5zm-15 1 8.5.5-8.5.5zm-19 1 12.5.5-12.5.5zm-64 4 .5 2.5h-1zm50 0 .5 2.5h-1zm-44 7 .5 2.5h-1zm40 1 .5.5-3.5 3.5-.5-.5zm-54 1 3.5 3.5-.5.5-3.5-3.5zm18 0 2.5 2.5-.5.5-2-1-1 2-.5-1.5zm411 1 .5.5-7.5 7.5-.5-.5zm-414 2 1.5 2.5-1.5.5zm10 1 1.5.5-4.5 2.5q-1.5-1 1-2zm22 1 .5.5-2.5 2.5-.5-.5zm-28 5 2.5.5-2.5.5zm10 1 3.5.5-3.5.5zm362 1 4.5.5-4.5.5zm20 0 4.5.5-4.5.5zm-8 1 2.5.5-2.5.5z" opacity=".996"/><path fill="#4f5253" stroke="#4f5253" d="m275.5 12 2.5.5-2.5.5zm82 7 8.5.5-8.5.5zm-289 3 .5 2.5h-1zm17 2 1.5 2.5q-1 1.5-2-1zm17 13 2.5.5-2.5.5zm9 0 2.5.5-2.5.5zm-44 14 .5 3.5h-1zm357 3 2.5.5-2.5.5zm14 0 7.5.5-7.5.5zm19 1 22.5.5-22.5.5zm-34 2 .5 2.5h-1zm-1 8 .5 6.5h-1zm22 3 .5 1.5-3.5 4.5-3.5 1.5 2 1-1.5.5-2.5-1.5 2-1-.5-1.5 2 1-1-3 2 2 3.5-3.5zm7 4q1.5 1-1 2l-1.5-.5zm11 0 2.5 1.5-1.5-.5-1.5.5.5 1.5-1-1-4 4-1.5-.5zm-40 1 .5 28.5h-1zm21 1 .5 1.5q-1 2.5-2 1zm10 0 1.5.5-2.5 3.5-.5-1.5zm14 3 .5 1.5-1.5.5q-1.5-1 1-2Zm-7 1 1.5.5-3.5 4.5.5-1.5zm-7 3 .5 1.5-2.5 2.5-.5-.5zm10 1 .5.5-2.5 2.5-.5-.5zm-398 1 .5 2.5h-1zm410 2 2.5 1.5-1.5.5q-2.5-1-1-2Zm-28 1 1 2 2-2 .5.5-2.5 3.5-1.5-2.5zm14 0 .5.5-3.5 3.5-.5-.5zm-25 1-.5 1.5-2.5 5.5-.5-1.5zm46 1 1.5 2.5h-1zm-37 1 1.5.5q-2 1 0 2l-1.5 2.5-1-2-1.5.5zm6 5-.5 1.5.5 2.5 1.5-.5-2.5 1.5q-2.7-1.3-.5-2.5zm10 0 .5 1.5-1.5 2.5-.5-1.5zm12 0-.5 1.5-4.5 8.5-.5-1.5 3-6zm-41 1 .5 1.5-1.5.5q-1.5-1 1-2Zm-2 7q1.5 1-1 2l-1.5-.5zm31 0 .5.5-2.5 2.5-.5-.5zm10 1 1.5.5-2.5 1.5q-1.5-1 1-2Zm-1 3q1.5 1-1 2l-1.5-.5zm-49 3 .5 2.5h-1zm32 3 .5.5-2.5 2.5-.5-.5zm22 1 .5.5-3.5 3.5-.5-.5zm19 0q2.5 1 1 2l-1-1-1.5.5zm-74 7 .5 7.5h-1zm63 6 3.5.5-3.5.5zm13 0 19.5.5-19.5.5zm-26 1 4.5.5-4.5.5zm-15 1 4.5.5-4.5.5zm-16 1 5.5.5-5.5.5zm-16 1 5.5.5-5.5.5zm-276 15 1.5 3.5h-1zm219 37 1.5 2.5h-1zm-295 3 .5 3.5h-1zm305 0 .5 3.5h-1zm-317 1 .5 3.5h-1zm329 7 3.5.5-3.5.5zm-337 2 .5 15.5 1.5 1.5 1.5-2.5v-9l1.5-4.5.5 19.5-1 1-.5 4.5h-41q-1.3-2.3-6-1L3 215.5v-8q1.8-.8 1-4l3.5-4.5 3-1h6l1-1 33-1zm-1.5 6-2 2q1 3-1 4h2l1-1 1-4zm-41 1-3 4 1 2 3-5zm24 2v2l2-1zm6 6-1 2-7 3 1 1 5-1 4-3zm-17 3-1 2h2v-1zm385.5-7 1.5 2.5h-1zm-45 2 4.5.5-4.5.5zm-28 1 3.5.5-3.5.5zm58 1 9.5.5-9.5.5zm-132 2 4.5.5-4.5.5zm52 0 2.5.5-2.5.5zm-138 1 2.5.5-2.5.5zm35 0 4.5.5-4.5.5zm-70 2 2.5.5-2.5.5zm41 0 3.5.5-3.5.5zm70 0 2.5.5-2.5.5zm-144 1 4.5.5-4.5.5zm90 0 10.5.5-10.5.5zm394 5 7.5.5-7.5.5zm-509 2 2.5 1.5-1.5.5q-2.5-1-1-2Zm207 1 2.5.5-2.5.5zm245 6 8.5 8.5-.5.5-8.5-8.5zm-154 2 3.5.5-3.5.5zm-258 1 .5.5-5.5 5.5-.5-.5zm235 0 2.5.5-2.5.5zm-1 2 2.5.5-2.5.5zm142 0 .5.5-2.5 2.5-.5-.5zm136 0 .5 4.5h-1zm-294 1 2.5.5-2.5.5zm-48 2 2.5.5-2.5.5zm346 0 .5 4.5h-1zm-365 1 2.5.5-2.5.5zm40 0 4.5.5-4.5.5zm-60 1 2.5.5-2.5.5zm-193 1 2.5.5-2.5.5zm41 0 4.5.5-4.5.5zm126 0 3.5.5-3.5.5zm37 0 5.5.5-5.5.5zm106 0 2.5.5-2.5.5zm-298 1 4.5.5-4.5.5zm155 1 4.5.5-4.5.5zm411 2 .5 4.5h-1zm-126 5h6l3 1 7.5 6.5v7l-1 3-5.5 6.5-6 3h-6l-7.5-4.5-3-5v-8l1.5-2.5.5 5.5 1.5 2.5 4 1 .5-.5-3-3-1-3 2-5 2.5-2.5zm5.5 4-2 2h5l1 1v-1zm-384.5-3h10l3.5 2.5 2 4v7l-1 3-5.5 5.5-4 2h-7l-5.5-4.5-1-2 1.5-.5 2 1 .5-1.5-3-4v-5l3.5-5.5zm9.5 9-1 2h3v-1zm1 3-2 2 1 1h2zm-6 6q-3 1-1 2t3-1zm103.5-17q1 2 2 0l1.5.5-2.5 1.5q-2.5-1-1-2Zm120 0 5.5.5-5.5.5zm261 0 4.5 1.5-3.5.5q-2.5-1-1-2Zm-232 2 2.5.5-2.5.5zm-156 1 1 2 1.5-.5q-1.5 3-3 0zm-143 1 1.5 2.5q-1 1.5-2-1zm460 0 .5 2.5h-1zm-239 1 6.5.5-6.5.5zm-151 1 2.5 3.5h-1l-2-3zm220 1 .5.5-2.5 2.5-.5-.5zm150 0 .5 5.5h-1zm-410 2 .5 3.5h-1zm-65 5 2.5 2.5-.5.5-2.5-2.5zm47 1 .5 3.5h-1zm-40 1 11.5.5-11.5.5zm281 0 3.5.5-3.5.5zm24 0 3.5.5-3.5.5zm-159 1 2.5.5-2.5.5zm117 0 2.5.5-2.5.5zm58 0 8.5.5-8.5.5zm-82 1 2.5.5-2.5.5zm-155 1 .5.5-3.5 3.5-.5-.5zm137 0 3.5.5-3.5.5zm298 0 4.5.5-4.5.5zm18 0 2.5.5-2.5.5zm-375 4 2.5.5-2.5.5zm-15 1 2.5.5-2.5.5zm-79 1 4.5.5-4.5.5zm51 0 2.5.5-2.5.5zm358 3 1.5.5q-1 2.5-2 1zm-415 6q2.8 1.3 1.5 6.5h-1v-5zm40 3 .5.5-3.5 3.5-.5-.5zm-54 1 3.5 3.5-.5.5-3.5-3.5zm422 0 .5 1.5-2.5 2.5-.5-.5zm-396 11 8.5.5-8.5.5zm374 2 7.5.5-7.5.5z" opacity=".996"/><path fill="#9f1e27" stroke="#9f1e27" d="M417.5 46h19l3 1 1-1h14v1l-4.5.5 6.5.5 1-1h9v1l-4.5.5 7.5.5 1-1h18v1l-4.5.5 6.5.5q1-2 5-1v1l-1.5.5 2.5 1.5 1.5-.5 4 5-.5 1.5 2.5 1.5-.5 1.5 2.5 1.5-.5 1.5 2.5 1.5-.5 1.5 2.5 1.5-.5 1.5 2.5 1.5 1 2-.5 1.5 2.5 1.5-.5 1.5 2.5 1.5-.5 1.5 3.5 2.5-.5 1.5 4.5 3.5-.5 1.5 3.5 2.5 2 3-.5 1.5 3.5 2.5-.5 1.5 4.5 3.5-.5 1.5 5.5 4.5-.5 1.5 3.5 2.5-.5 1.5 2.5 1.5-.5 1.5 2.5 1.5-.5 1.5 2.5 1.5 1 2-.5 1.5 2.5 1.5-.5 1.5 5.5 2.5-.5 1.5 2-1v2l2-1 5.5 3.5.5 1.5 1.5-.5.5 1.5 1.5-.5-.5 1.5 2-1 7.5 4.5.5 1.5 1.5-.5-.5 1.5 2-1v2l2-1 5.5 3.5.5 1.5 1.5-.5.5 1.5 1.5-.5-.5 1.5 2-1 3 4 1-1 2.5 2.5.5 1.5q1.5-2.5 3 1l7.5 4.5-1.5 4.5-3-1h-8v1l3.5.5-5.5.5-1.5-.5-2.5 3.5-1.5-.5 1 2h-2l1 3h-2l1 3-1.5 2.5-1.5-.5q2 2.5 1 8h-1l-.5-4.5-.5 5.5q1.8.8 1 4h-2l1 5-1 2h2l.5 2.5 1.5-.5-.5 1.5 2-1h12v1l-8.5.5 15.5.5v-1l-2.5-.5 3.5-.5.5 3.5h-2l1 3v7h-1l-.5-3.5-1 4-9.5-.5 7-1-10.5-.5-1 1h-11l-1-1h-6v1l3.5.5-6.5.5-3-1v1l1.5.5-6.5 1.5-2-1v2l-3-1v2l-7.5 4.5 1 2h-2l1 4q-3.4 2.1-3.5 7.5l-1-2-.5 2.5 1 2-1 1 .5 1.5-1.5-1.5.5-1.5-2.5-1.5-5-7 .5-1.5-11.5-9.5-.5-1.5-2 1-4-2-4.5-.5 3-1-11.5-.5v1l2.5.5-9.5 1.5-2-1v2l-2-1v2l-2-1v2l-1.5-.5-1.5 2.5-1.5-.5-2.5 3.5-1.5-.5-6.5 7.5-1.5.5 1 1-2.5 2.5-1.5.5q2 1 0 2l-2.5 5.5-1.5-.5 1 2h-2l1 3h-2l1 4h-1l-.5-1.5-.5 2.5q2 1 1 5h-1l-.5-1.5-1 2-6.5.5 8 1-12.5.5q-1.3-2.3-6-1v1l2.5.5-11.5.5q-.7-1.7-4-1v1l1.5.5-3.5.5-2-1v2l-4-1v2l-4-1v1l1.5.5-5.5.5-3.5-2.5 1-4h-2q-.7-4.2 1-6h-2l1-4h-2l1-4h-1l-.5 1.5-.5-3.5q2-1 1-5h-1l-.5 2.5-.5-5.5q2-1 1-5h-1l-.5 2.5-.5-7.5 1-1v-16h-1l-.5 9.5-.5-17.5 1-1v-8h-1l-.5 5.5-.5-12.5 1-1v-9h-1l-.5 6.5-.5-13.5 1-1v-20l-1-1v-33h1l.5 18.5.5-21.5-1-1v-23h1l.5 17.5.5-22.5-1-1v-25h1l.5 3.5.5-6.5-1-1v-9l1.5.5 2.5-.5-2-1zm4.5 1v1h4zm-1 4-1 8-1-5h-1v10l1 1v33l-1-17h-1v22l1 1v29l-1 1 1 19 1-1 1-6v8h1v-11l-1-1 1-8 1 5v-3l4-1-1-1v-1q4-1 6 1h20l-18-1v-1h28l1 1h6l-3-1v-1h7l1 1h3l-2-1v-1q3-1 5 1h5l-4-1 7-1q1 2 2 0l3 1h7l1-1q4-1 6 1 4 1 6-1l2 1h9l1-1q3-1 4 1v-1h1l-2 3 1 1q3-1 2-6l1-2-3 1-5-7 1-2h-1l-1-1q-2-1 0-2l-1-1q-3-1-1-2l-1-1-3-3 1-2h-2l1-2h-2l1-2h-1l-3-4 1-2-2-1 1-2h-1l-3-4 1-2-2-1 1-2h-2l1-2h-1l-3-4 1-2-1-1v-1l-1-1v-1l-1-1v-1l-1-1-3-4q-2-1 0-2l-1-1q-3-1-1-2l-1-1q-3-1-1-2l-1-1-1-1-1-1-3 1h-6l4-1-25-1-3 1h-9l6-1v-1h-27l-1 1q-1-2-4-1Zm96 83v1h5q1 2 2 0zm-11 1v1l2 1h-2q-3 1-1 2h11l-5-1v-1h9l1 1h2l-1-2h-10q-2-2-6-1Zm18 6q-2 1 1 2h1zm-3 1v2l-2-1-3 1h2v1q-5 1-5-1l-3 1 2 1-2 1h5l7 4-1-1 2-1 2-4zm-6 7v2l-2-1-1 2-2 1 4 1v-2l3 1-1-1h3zm-35 5v2l-4-1v2l-2 1 3 1h2l-2-1 6-1q1-2 2 0v-1zm44 0v2l-3-1v2l-3 1 5 1v-2l3 1-1-1h3q0-3-4-3Zm-85 1v1h10zm-9 1q-1 2 2 1v1q-5 1-5-1l-1 3h-2l1 2v3l-1-2-1 4q2 1 0 2 2 1 1 6l4 1v2l2-1q4-1 6 1h3l-3-1 5-1q1 2 2 0l3 1h6l-3-1 7-2q2-1 0-2h2l-3-5q-1-5 1-7h-1l-4-3h-15q-1-2-2 0-1-2-4-1Zm99 4q-3 2 0 3 3-1 0-3Zm-4 1q-2 1 1 2h1zm-68 1-1 5h1zm15 0-1 3h2v-2zm7 5v2l-2 1 3 1h2l-2-1 3-1zm-10 1v3-1h2v-1zm121 3-1 2h-2l1 3h-2l2 3v-1h2l-1-2 2-4zm-4 7q-2 2 0 3l-2 1 1 3h-2l1 2v2l-1-1h-1q-1 3 1 4v5l-1-3-1 5h2l1-1 1 1q1-4-1-4l1-5v2h1l-1-5h2l-1-4h2zm-165 5-1 12h1zm2 0v12l1-9 1 8v-6l1-1v-4l-1 2zm157 1-2 1v6l-1-3h-1l1 8 1-4 1 4h1l-1-3 1-7v2h1q1-3-1-4Zm-152 1-1 3h1zm84 18v2l-1-1-1 2-4 3 4 5 1-1h7l-6-1-2-1v-1l-1-1 2-2 1 1h6l-1-1 3-1-1-1v-2l-2 1zm-34 7-3 3 2 1v-1h2v-1l2-1zm34 0v1h4zm-39 3-1 2 3 1zm40 1v1h3zm-42 3q-2 1 1 2h1zm18 1-2 1q-3 1-1 2 2-2 7-1v-1h-1zm-5 2-2 3-5 4q-3 2 0 3l3-2 4-5q2-2 0-3Zm-8 10-3 2q-2 1 1 2l2-1q3-1 0-3Zm-3 4-2 1q-2 1 1 2l2-1q1-1-1-2Zm-3 5-3 2 1 2h2l-1-1 2-1q1-1-1-2Z" opacity=".996"/><path fill="#9f1e27" stroke="#9f1e27" d="m426.5 52 12.5.5-12.5.5zm39 1 3.5.5-3.5.5zm52 75 3.5.5-3.5.5zm-99 7 .5 9.5h-1zm98 11q4.5-1 5.5 1.5l-1.5-.5h-4zm-105 12 .5 9.5h-1z" opacity=".996"/><path fill="#72613f" stroke="#72613f" d="m396.5 3 2.5.5-2.5.5zm-11 1 2.5.5-2.5.5zm-27 2 2.5.5-2.5.5zm-278 3 5.5.5-5.5.5zm11 0 2.5.5-2.5.5zm13 1 3.5.5-3.5.5zm221 0 2.5.5-2.5.5zm-207 1 2.5.5-2.5.5zm184 0 3.5.5-3.5.5zm8 0 7.5.5-7.5.5zm-178 1 3.5.5-3.5.5zm146 0 8.5.5-8.5.5zm-131 1 2.5.5-2.5.5zm109 0 2.5.5-2.5.5zm-114 1 2.5.5-2.5.5zm19 0 2.5.5-2.5.5zm53 0 4.5.5-4.5.5zm-58 1 2.5.5-2.5.5zm32 0 11.5.5-11.5.5zm-18 1 2.5.5-2.5.5zm45 0 2.5.5-2.5.5zm-52 1 2.5.5-2.5.5zm230 0 2.5.5-2.5.5zm-216 1 3.5.5-3.5.5zm33 0 3.5.5-3.5.5zm135 1 11.5.5-11.5.5zm48 0 2.5.5-2.5.5zm20 2 .5 9.5h-1zm-345 4 .5 10.5h-1zm122 8 3.5 1.5-7.5.5v-1q3.3.8 4-1Zm-85 4h5l3 1 2-1 .5 1.5-6.5.5q-.7-1.7-4-1zm-20 3 .5 11.5h-1zm326 11 .5 3.5h-1zm-344 4 .5 4.5h-1zm-1 15 .5 2.5h-1zm344 0 .5 33.5h-1zm-345 16 .5 4.5h-1zm210 6 .5 2.5h-1zm-212 21 .5 4.5h-1zm346 4 .5 12.5h-1zm-347 11 .5 2.5h-1zm91 9 .5 2.5h-1zm-92 3 .5 2.5h-1zm86 0 .5 4.5h-1zm-5 5 .5 2.5h-1zm10 2 1.5 3.5h-1zm-74 2 .5 1.5q-1 2.5-2 1zm70 0 .5 3.5h-1zm12 3 .5 4.5h-1zm-9 1 1.5 4.5q-1 2.5-2 1l1-3q-1.7-.7-.5-2.5Zm-91 7 .5 2.5h-1zm108 2 .5 3.5h-1zm258 4 .5 3.5h-1zm-353 3 1.5.5q-1 2.5-2 1zm303 2 1.5 3.5h-1zm-303 2 .5 1.5-1 1v6l-1.5 3.5-.5-2.5 1-1v-6zm109 0q1.5 1-1 2l-1.5-.5zm226 1 .5 2.5h-1zm-41 5 .5 3.5-1.5 3.5-.5-2.5zm21 1 2.5.5-.5 1.5-6.5-.5zm-303 4q2.1 1.4 1.5 5.5h-1zm-14 5 .5 4.5h-1l-1-3zm-12 1 .5 11.5h-1zm335 2q3.8-.7 4.5 1.5l-6.5.5v-1zm-23 1 2.5.5-2.5.5zm243 5 .5 3.5h-1zm-543 3 .5 2.5h-1zm325 2 3.5.5-3.5.5zm-16 1 3.5.5-3.5.5zm-294 1 .5 2.5h-1zm234 4 2.5.5-2.5.5zm-13 1 2.5.5-2.5.5zm-13 1 2.5.5-2.5.5zm-222 1 .5 2.5h-1zm83 0 3.5.5-3.5.5zm91 0 13.5.5-13.5.5zm-69 1 4.5.5-4.5.5zm19 0 12.5.5-12.5.5zm-96 1 2.5.5-2.5.5zm-25 2 2.5.5-2.5.5zm36 0 3.5.5-3.5.5zm96 0 2.5.5-2.5.5zm307 7 2.5.5-2.5.5zm-400 9 .5.5-2.5 2.5-.5-.5zm400 4q2.5 1 1 2l-1-1-1.5.5zm-142 5 2.5.5-2.5.5zm-296 1 3.5.5-3.5.5zm97 7 .5 2.5h-1zm184 2 2.5 1.5-1.5-.5q-2.4-.1-1-1Zm-184 3 .5 2.5h-1zm37 14 2.5 1.5-1.5.5q-2.5-1-1-2Zm402 2 3.5.5-3.5.5zm-26 1 2.5.5-2.5.5zm-50 23 .5.5-2.5 2.5-.5-.5z" opacity=".992"/><path fill="#a5936e" stroke="#a5936e" d="m411.5 5 .5 2.5h-1zm-50 1 3.5.5-3.5.5zm-290 2 3.5.5-3.5.5zm15 1 4.5.5-4.5.5zm220 2 3.5.5-3.5.5zm-177 1 2.5.5-2.5.5zm158 0 3.5.5-3.5.5zm-142 1 2.5 1.5-2.5.5zm114 0 2.5.5-2.5.5zm-101 1 2.5.5-.5 1.5q-3.8-.7-2-2Zm61 0 2.5.5-2.5.5zm-34 1 2.5.5-2.5.5zm15 0 2.5.5-2.5.5zm185 0h3l4.5 2.5-1.5.5-1-1h-7v1l2.5.5-5.5.5-.5-.5 2.5-2.5zm-173 1 2.5.5-2.5.5zm-52 1 2.5.5-2.5.5zm182 2 2.5.5-2.5.5zm36 1q3.3-.7 4 1l13.5.5q.8 4.8-2.5 5.5l-6.5 3.5-2 7 4.5 5.5 4.5 2.5-1 12-1 1-1 40-1.5 4.5-1.5-.5-5-14v-3l-3-9v-4l-1-1v-4l-1-1-1-12-1-1v-8l-1-1v-14zm1.5 1v1h2zm0 5-2 1v2l-1 1q1 2 5 1l-1-1 1-2zm-252.5-2h28q1.2 2.2 6 1l6 2 5.5 5.5 5 9 6.5 7.5 13 8 3.5 3.5-.5 2.5-9 3-11 1-1 1h-9l-1 1h-24l-1-1h-6q-.7-1.7-4-1l-8.5-4.5v-2l3.5-3.5 9-3 3-2h2l7.5-4.5-2.5-3.5-7-1-1-1h-7l-1-1h-21q-1.2 2.3-6 1l-9 4-6.5 6.5q-2.7 6.8-8.5 10.5l-4 1-1.5-1.5v-7l2-6 6.5-9.5.5 4.5-1 1v7q1 1.5 2-1L87.5 37l9-6h3l5-3h4l3 1 1-3q4.8 1.3 6-1h8zM96 36v4h21l-1-3zm-8 11-1 6h1zm-.5-18 11.5.5-11.5.5zm138 2 2.5.5-2.5.5zm-158 29 .5 2.5h-1zm343 6 .5 3.5h-1zm-344 7 .5 2.5h-1zm22 5 4 1 9 7h8l1-1 9-1 5-2h4l6-2h7l1-1h24l2.5 1.5v2l-7 8 3 2-2.5 1.5h-8l-1 1-16 1-1 1h-6l-1 1-11 1-1 1h-4l-1 1-11 2-15 6h-6l-2.5-2.5-1-3v-10l3-9 5.5-5.5zm-23 13 .5 2.5h-1zm207 0 .5 3.5h-1zm137 22 .5 3.5h-1zm-346 5 .5 2.5h-1zm79 19q3-.5 3.5 1.5v13l-1 1-.5 5.5q-5.7-1.2-8.5-5.5-.7-11.7 6.5-15.5Zm-1.5 3q-3 1-1 3l-1 3q-1 3 1 5l-1-1-1 3 2-1 2 1 1-2-1-2h2v-7h-1zm8.5 1q2.9 1.6 3.5 5.5h-1l-.5-1.5-.5 5.5 1 2q-1 1.5-2-1v-9zm-88 2 .5 2.5h-1z" opacity=".996"/><path fill="#a5936e" stroke="#a5936e" d="m154.5 145 4.5 6.5.5 9.5 2 1 1.5-4.5q-2-1-1-5h1v3l4 4 .5 7.5 1-1 2 2 .5-.5 1-4h-1l-.5 1.5-.5-3.5 1.5.5 2.5.5.5 3.5 1-3 1 3 1-1 1.5.5.5-2.5h3l4.5 2.5q1.7 1.8 1 6l-2 1 1 2-3.5 3.5-3 1-.5-1.5q2.2-1.2-.5-2.5l-1 1-1.5-.5-.5 1.5-3-1-14-12-10.5-4.5-1-6h1l1 5 1.5 1.5 1.5-.5-.5-1.5 1.5.5v-6l-1-1h2v-4q-1.7-.7-.5-2.5Zm27.5 27q-2 1 1 2h3zm-2 1-1 1 3 2h3zm-33.5-20 .5 5.5h-1z" opacity=".996"/><path fill="#a5936e" stroke="#a5936e" d="m168.5 158 1.5.5q-1 2.5-2 1zm266 1 9.5.5-9.5.5zm-26 8 .5 6.5h-1zm-8 3 2.5.5-2.5.5zm-33 2 1.5 2.5h-1l-.5-1.5-1.5.5zm241 0 2.5.5-2.5.5zm-201 8 1.5 1.5v7h-1v-7zm-26 1 2.5.5-2.5.5zm10 0 2.5.5-2.5.5zm-25 5 1.5 3.5q-1 1.5-2-1zm-280 4 .5 2.5h-1zm302 2 5.5.5-5.5.5zm226 0 .5 5.5h-1zm-249 1 5.5.5-5.5.5zm34 0 2.5.5-2.5.5zm-328 1 .5 6.5h-1zm522 0 .5 2.5h-1zm-534 8 .5 7.5h-1zm334 1 2.5.5-2.5.5zm-42 4 2.5.5-2.5.5zm-34 2 2.5.5-2.5.5zm-190 2 19.5.5-19.5.5zm162 0 4.5.5-4.5.5zm-130 1 3.5.5-3.5.5zm78 0 8.5.5-8.5.5zm-55 1 2.5.5-2.5.5zm5 0 8.5.5-8.5.5zm100 0 2.5.5-2.5.5zm-172 3 4.5.5-4.5.5zm95 0 2.5.5-2.5.5zm185 1 2.5.5-2.5.5zm124 9 .5 1.5q-1.2 2.8-6.5 1.5v-1l5.5-.5zm-376 5 2.5.5-2.5.5zm264 0 2.5.5-2.5.5zm-33 1 2.5.5-2.5.5zm124 0 .5.5-3.5 3.5-.5-.5zm-333 1 2.5 2.5-.5.5-2.5-2.5zm209 1 2.5.5-2.5.5zm19 0 2.5.5-2.5.5zm164 1 .5 3.5h-1zm-399 1 3.5 3.5-.5.5-3.5-3.5zm128 2 2.5.5-2.5.5zm-39 2 2.5.5-2.5.5zm148 0 3.5.5-3.5.5zm-173 1 2.5.5-2.5.5zm49 0 2.5.5-2.5.5zm94 0 1.5.5-3.5 1.5v-1zm10 0 2.5.5-2.5.5zm-295 1 14.5.5-14.5.5zm165 0 2.5.5-2.5.5zm259 6 .5.5-3.5 3.5-.5-.5zm-347 3 .5.5-2.5 2.5-1.5-.5zm210 1 1 1 6.5.5-7.5.5zm11 2 2.5.5-2.5.5zm-304 1 .5.5-2.5 2.5-.5-.5zm205 4 2.5.5-2.5.5zm-217 1q2.5 1 1 2l-1.5-.5zm482 6 2.5 1.5-.5 1.5-1-2q-2.4-.1-1-1Zm-206 2 2.5.5-2.5.5zm35 0 2.5.5-2.5.5zm-53 1 2.5.5-2.5.5zm-24 1 2.5.5-2.5.5zm271 0 2.5.5-2.5.5zm-93 1 .5 4.5h-1zm115 0 3.5.5-3.5.5zm-466 2 2.5 2.5-.5.5-2.5-2.5zm97 2 2.5.5-2.5.5zm-15 1 2.5.5-2.5.5zm-19 1 6.5.5-6.5.5zm-69 5 .5 2.5h-1zm410 12q2.5 1 1 2l-1.5-.5zm-25 8 4.5.5-4.5.5z" opacity=".996"/><path fill="#75bddb" stroke="#75bddb" d="m447.5 55 5.5.5-2 1 29.5.5 3-1v2q4 1 5-1l1.5 1.5q-2 1 0 2l.5 1.5 1.5-.5-.5 1.5 1.5.5q-2.2 1.3.5 2.5l1.5.5-.5 1.5 1.5.5-.5 1.5 1.5.5q-2 1 0 2l2.5 6.5 1.5-.5-1 2 2 1-1 2h2l-1 2h2l-1 2h2l-1 2 2.5 4.5 1.5.5-.5 1.5 1.5.5-.5 1.5 1.5.5-1 2h2l-1 2h2l-1 2h2l-.5 1.5 1.5.5-.5 1.5 1.5.5-.5 1.5 1.5.5q-2 1 0 2l1.5 3.5 1.5-.5-.5 1.5 1.5.5-.5 1.5 1.5.5-1 2h2l-1 3 2 1-5.5.5-1-1h-38v1l1.5.5-3.5.5-1-1h-10v1l1.5.5-4.5.5-1-1h-11v2q-4 1-5-1h-11v1l1.5.5-4.5.5-1-1-9.5-.5 1-1v-9q-1.7-.7-1-4h2v-6q-1.7-.7-1-4h1l.5 1.5.5-41.5-1-2h2l.5-6.5h21zM433 59l-2 2 1 5 6 4-1 2 1 1h-1v2h-1v2h-1v2h-1v2h-1v2l-1-1-4 7 1 2h-2l2 3v-1h2v-1q3-2 1-3l4-2 2 3-3-2 1 3-2-1-4 6 1 2h-2l1 2-1-1-2 5 3 1 3-3-1-1 2-1q2-1 0-2l2-1q2-1 0-2l2-1q2-1 0-2h2v-1q2-1 0-2h2v-1q2-1 0-2h2v-1q3-2 1-3h2v-1q2-1 0-2h2v-1q3-2 1-3l3-2 1 1h-1v2l-2 1 3 1 1-2q2-1 0-2l5-2v1l-6 6 2 1 4-3 1 1h-1v2l-2 1 3 1 1-2q2-1 0-2l2-1 1-2 1-1v-2l3 1v1l-2 2 1 1h-1q-3 1-1 3l-1-1-6 7-2-1-2 1 3 2 1-1v1l-2 2v-1l-1-2-2 1 1 3-2-1v2l-1 1 1 1-1-1-2 1 3 1v1l-3-1v2h-2l1 2-1-1-1 2q-2 1 0 2h-1v2l-1-1-2 4q-2 1 0 2h-1v2l-2 1 1 2-2 1 3 1 3-3-1-1h2l-1-2h2l-1-2h2l1-3q2-1 0-2h2v-1q2-1 0-2l3-2q2-1 0-2l2-1q2-1 0-2h2v-1l6-6-1-1 3-3-1 2 1 1-1 1 1 1h-1v2l-1-1-2 4q-2 1 0 2h-1l-1 1 3 2v-1q2-1 0-2l2-1-1-1h2v-1q2-1 0-2l2-1-1-1h2l-1-2h2l1-2-1-2h2l-1-2 2-1-1-3 1-2 9 3q2 3 7 4 1 4 3 1v-3l-3-6-6-7-11-4h-6l-1-1h-16l-1-1zm18 19-1 1 2 3q-2 1 1 2l3-2q-1-3-2-1v-1zm28 1-5 5 1 1q-1 2-2 0l-1 2q-4 1-1 3-1 2-2 0l-1 2-3 3 1 1-4 3h-2l2-1-2-3-2 4q-2 1 0 2h-1v2l-1-1-2 4q-2 1 0 2l-1-1-1 2q-2 1 0 2l-3 2 3 3 4-4-1-1h2v-1q2-1 0-2 1-3 3-1v-1l4-4-1-1q1-3 3-1v-1l3-3-1-1q1-3 3-1v-1q1-3 2-1l-1 2q-2 1 0 2h-1v2h-1l1 3-2-1-1 1 2 2-2-2-2 4q-2 1 0 2l-1-1-1 2q-2 1 0 2l-2 1 2 5v-1h2l3-4-2-2v-1l3 2v-1q3-2 1-3h2v-1q2-3 3 0h-2l1 2-1-1-4 7 1 2h-1l-1 3 3 1 6-6-1-1 3-2 1 3-1 3 2-1v2h2l-1-1h2l2-3-1 2 3 1q2 1 0 3h3v-1h2v-1l2-2 1 1-1-3-3 1-1-1h-2l1-3-3-2v2l-1-1-1 1-2-2h2l-1-8-1-1v2l-4 3q-3-1-1-2l2 1-1-1 3-5-1-2h2l-1-2 2-1v-3l-2-2-3 3 1 1-1-1-1 2q-4 1-1 3l-2 1-2 2 1 1-2-1q2-1 0-2l2-1-1-1h2l-1-2h2l-1-2h2l-1-2h2l-1-2h2l-1-3h2v-1l-1-1zm-29 1q-2 1 1 2v-1zm8 1-2 3 3 1 1-1zm-8 1q-2 2 0 3l-1-1-2 1v2h-1v2h-1l-2 3q-2 1 0 2h-1q-3 1-1 3h-1v2l-1-1-1 2q-2 1 0 2h-1v2h-2l1 2h-2l2 3v-1q1-3 3-1v-1q2-1 0-2l2-1q2-1 0-2l2-1q2-1 0-2h2v-1q2-1 0-2h2l1-2-1-2-2 1q2-4 4 0v-1l2-2-2-2 1-1 2 1 1-1zm55 33-1 2-2 1h2l1 2v-1l2-1-1-1z" opacity=".996"/><path fill="#75bddb" stroke="#75bddb" d="m446.5 71 3.5 1.5-3 2 .5 1.5-1.5-.5-2 3 .5 1.5-2.5 1.5.5 1.5-3-2q-1.2 2.2-2.5-.5l1.5.5 1-1 1 1 1.5-.5-3-3 .5-.5 3 3 .5-.5 1-2-.5-1.5 2.5-1.5 1-2zm22 7 .5 1.5-1.5.5q-1.5-1 1-2Z" opacity=".996"/><path fill="#75bddb" stroke="#75bddb" d="M437.5 83q1 2 2 0l1.5.5-1 1 .5 1.5q-1.5-2.5-3 1l-1.5-1.5h2zm22 17 1 1 1.5-.5-1.5 1.5q-2.5-1-1-2Zm22 6v3l-1-1-1.5.5z" opacity=".996"/><path fill="#83d5f5" stroke="#83d5f5" d="m424.5 55 22.5.5-22 1-.5 6.5zm27 1 29.5.5-29.5.5zm32 1h4l3.5 3.5 1 2q-1 1.5-2-1l-2.5-3.5h-4z" opacity=".996"/><path fill="#83d5f5" stroke="#83d5f5" d="m432.5 59 1.5.5-2 1-.5 3.5-.5-3.5zm7 0 8.5.5-8.5.5zm16 1 9.5.5-9.5.5zm13 1 3.5.5-3.5.5zm5 1 2.5.5-2.5.5zm4 1q7.9 2.1 11.5 8.5l-.5.5-6-6-5-2zm-54 1 .5 41.5h-1zm12 4 2.5 1.5-1.5.5q-2.5-1-1-2Zm8 3 1.5.5-4 5-5.5 10.5-1.5.5.5 1.5q-3.2-1.7.5-3.5zm4 0 2.5.5-4 2 .5 1.5 2-2 .5.5-4.5 5.5-1.5-.5 1 2-9.5 13.5.5-1.5q1.4-6.1 6-9l-.5-1.5 1.5-.5q-2-1 0-2l1.5-2.5q1.3 2.3 2.5-.5l-.5-1.5-1.5.5zm49 0q3.6 3.4 4.5 9.5h-1q-.9-5.6-4-9zm-44 1 1.5.5-2 1 .5 1.5q-3-1.5 0-3Zm8 0 .5.5-8 8-4.5 7.5-.5-1.5 4-5 .5-2.5 1.5-.5q-2-1 0-2l1.5-2.5-.5 1.5.5 1.5zm6 0 3.5.5-2.5 3.5 1-3q-3-.5-3.5 1.5l-1.5 2.5.5-1.5zm-4 1-.5 1.5-1.5 2.5-1.5.5.5 1.5-1-1-1.5.5zm-12 2q2.5 1 1 2-1.2-2.2-2.5.5L437.5 94l-.5-.5 2-2 4-7zm22 0 .5 2.5h-1zm10 1 3.5 2.5-1.5-.5q-3.8-.7-2-2Zm-16 1 .5.5-2 2-9 10-3.5 5.5.5-1.5 4.5-7.5 1.5-.5q-2.2-1.2.5-2.5l1 1 3.5-3.5zm25 0 .5 3.5q-1.5 3-3 0h2z" opacity=".996"/><path fill="#83d5f5" stroke="#83d5f5" d="m462.5 78-.5 1.5-1.5 2.5.5-1.5zm9 1 .5 1.5-4.5 7.5.5-1.5zm7 0 .5.5-6 6-8.5 10.5-1.5-.5 1 2-4.5 5.5-.5-1.5 1.5-2.5 1.5-.5q-2-1 0-2l1.5-2.5 1 1 3.5-3.5q4.1-7.4 10.5-12.5Zm-22 1 1 1 1.5-.5-2.5 3.5.5-1.5-.5-1.5-2 2-.5-.5zm11 0 .5 2.5-2.5 3.5-1-1-6.5 6.5-2.5 3.5-.5-.5 2-2zm-35 1-.5 1.5-4.5 9.5-.5-1.5zm48 0 .5 1.5-5 11 .5.5 2.5-2.5 3.5-4.5.5.5-3 3-3.5 4.5-1-1-1.5.5zm21 1 5.5 11.5h-1l-5-10zm-48 2 .5.5-2.5 2.5-.5-.5zm11 3-.5 1.5-2.5 4.5.5-1.5zm-14 1 .5.5-2 2-6.5 9.5-.5-.5 2-2zm24 0-.5 1.5v2l-2.5 3.5-1-1-4.5 4.5-9 12-5.5 5.5-.5-.5 5-5 3-5zm10 0 .5 3.5h-1zm-52 1q2.8 1.3.5 2.5l-5.5 12.5-.5-1.5 4-9-1-2zm12 0-.5 1.5-1.5 2.5.5-1.5z" opacity=".996"/><path fill="#83d5f5" stroke="#83d5f5" d="m466.5 89-.5 1.5-1.5 2.5.5-1.5zm17 4 .5 1.5-3 6 .5.5 2-2 1.5.5-6 4q2.5 1.5-1 3l-3.5 5.5.5-1.5zm-23 1-.5 1.5-2.5 4.5.5-1.5zm-11 1-.5 1.5-2.5 4.5.5-1.5zm30 0-.5 1.5-8.5 17.5-.5-1.5 3-6-.5-.5-2.5 2.5-4.5 6.5-.5-1.5zm-6 1 1 1 1.5-.5-8.5 11.5.5-1.5zm-34 1-.5 1.5-1.5 2.5.5-1.5zm13 2 .5.5-2 2-5 10-4.5 4.5-.5-.5 4-4q2.3-7.7 7.5-12.5Zm57 0 3.5 6.5q-1 1.5-2-1l-2-4zm-41 1-.5 1.5-4.5 7.5.5-1.5zm-36 1 .5.5-3.5 3.5-.5-.5zm24 0-.5 1.5-4.5 7.5.5-1.5zm-20 1-.5 1.5-1.5 3.5-.5-1.5zm9 0-.5 1.5-2.5 4.5.5-1.5zm-6 2-.5 1.5-1.5 2.5.5-1.5zm46 0 .5 3.5h-1zm-4 3-.5 1.5-.5 3.5-1-2-1.5.5zm-59 1 .5 6.5h-1zm65 0 1.5.5-4.5 3.5-.5-2.5 1.5.5zm28 3 3.5 5.5q-1 1.5-2-1l-2-4zm-38 1 .5.5-6.5 6.5-2.5-1.5.5-2.5 1 3zm14 0 1 2 1.5-.5-2.5 1.5zm-4 1 .5 2.5q-1 1.5-2-1zm9 1 .5 1.5q-1 2.5-2 1zm-12 1q1.5 1-1 2l-1.5-.5zm4 2 3.5 1.5-2.5.5q-2.5-1-1-2Zm-67 1 .5 9.5h-1zm99 2 2.5 4.5-1.5.5-1.5-3.5zm-42 5 38.5.5-38.5.5zm-13 1 10.5.5-10.5.5zm-15 1 11.5.5-11.5.5zm-16 1 11.5.5-11.5.5zm-13 1 9.5.5-9.5.5z" opacity=".996"/><path fill="#b41e1e" stroke="#b41e1e" d="m437.5 46 2.5.5-2.5.5zm-21 1 2.5.5-2.5.5zm5 0 4.5.5-4.5.5zm29 0 6.5.5-6.5.5zm12 1 7.5.5-7.5.5zm22 1 6.5.5-6.5.5zm10 1 2.5.5-.5 1.5-2.5-1.5zm-69 1 27.5.5-27.5.5zm33 1 25.5.5-25.5.5zm-40 1 .5 10.5h-1zm79 0 4.5 4.5-.5.5-4.5-4.5zm-82 4 .5 6.5h-1zm2 23 .5 22.5h-1zm88 0 1.5 3.5h-1zm12 2 2.5 2.5-.5.5-2.5-2.5zm-103 4 .5 22.5h-1zm107 1 2.5 2.5-.5.5-2.5-2.5zm8 11 2.5 2.5-.5.5-2.5-2.5zm-15 2 3.5 6.5q-1 1.5-2-1l-2-4zm18 2 3.5 3.5-.5.5-3.5-3.5zm5 6 3.5 3.5-.5.5-3.5-3.5zm-124 7 .5 21.5h-1zm110 1 1.5 2.5q-1 1.5-2-1zm4 8 3.5 1.5-2.5.5q-2.5-1-1-2Zm2 4 1.5 4.5h-1q-1.7-1.7-.5-4.5Zm-38 1 7.5.5-7.5.5zm14 0 5.5.5-5.5.5zm8 0 9.5.5-9.5.5zm-35 1 5.5.5-5.5.5zm47 0 2.5 1.5-.5 1.5-1-2q-2.4-.1-1-1Zm-53 1 3.5.5-3.5.5zm-11 1 6.5.5-6.5.5zm-44 1 .5 19.5h-1zm13 0 20.5.5-20.5.5zm127 0 4.5 2.5-1.5-.5-3-1zm-136 1 4.5.5-4 1-.5 3.5zm95 0 7.5.5-7.5.5zm-11 1 5.5.5-5.5.5zm15 2 2.5.5-2.5.5zm-16 1 11.5.5-11.5.5zm65 1 3.5 2.5-1.5-.5q-3.8-.7-2-2Zm-149 3 .5 11.5h-1zm96 1 2.5.5-2.5.5zm-6 1 2.5.5-2.5.5zm70 1 5.5 3.5-1.5-.5q-4-.5-4-3Zm-65 2 5.5.5-3.5 1.5-2.5-1.5zm2 4 1.5.5-3.5 1.5v-1zm-105 1 .5 20.5h-1zm181 0 4.5 3.5-.5.5-2-2q-3.8-.7-2-2Zm-70 2 2.5.5-2.5.5zm-85 1 10.5.5-10.5.5zm-9 1 3.5.5-3.5.5zm97 0 1.5.5-3.5 1.5v-1zm73 0 2.5 2.5-.5.5-2.5-2.5zm-146 1 2.5 3.5h-1l-2-3zm23 1 2.5.5-2.5.5zm51 1 .5.5-2.5 2.5-1.5-.5zm76 0 2.5 2.5-.5.5-2.5-2.5zm-73 1 .5.5-3.5 3.5-.5-.5zm-74 2 .5 4.5h-1zm-33 1 .5 3.5h-1zm47 2 2 1 1.5-.5-2.5 1.5q-2.5-1-1-2Zm131 4 8.5.5-8.5.5zm-122 1 2.5.5-2.5.5zm117 1 .5.5-2 2-1.5 3.5-.5-1.5zm-6 4-.5 1.5-.5 1.5-.5-1.5zm-145 1 6.5.5-6.5.5zm-10 1 3.5.5-3.5.5zm-22 3 .5 9.5h-1zm7 3 .5 11.5h-1zm161 1-.5 1.5-.5 2.5-.5-2.5zm5 0 .5 2.5h-1zm-162 1 .5 8.5h-1zm3 0 .5 2.5h-1zm149 2 .5 8.5h-1zm6 0 .5 3.5h-1zm7 0 .5 5.5h-1zm-4 1 .5 3.5h-1zm-6 5 .5 2.5h-1zm2 1 .5 4.5h-1zm3 1 .5 3.5h-1zm4 1 .5 2.5h-1zm-174 1 .5 8.5h-1zm97 6 1.5.5-2.5 1.5q-1.5-1 1-2Zm79 2 2.5 1.5-1.5.5q-2.5-1-1-2Zm-79 2 6.5.5-6.5.5-2 2-.5-.5zm86 0 15.5.5-15.5.5zm-121 2 .5.5-4 4-1.5 2.5.5-1.5zm136 0 .5 2.5h-1zm-101 1 4.5.5-4.5.5zm-35 3 .5.5-2.5 2.5-.5-.5zm-61 1 .5 16.5h-1zm97 0 3.5.5-3.5.5zm99 2 .5 3.5h-1zm-120 1 1.5 2.5h-1zm-6 1 .5.5-3.5 3.5-.5-.5zm93 0 6.5.5-6.5.5zm19 0 10.5.5-10.5.5zm-25 1 2.5.5-2.5.5zm-61 1 11.5.5-11.5.5zm-9 2 1.5.5-6.5 3.5q-1.5-1 1-2zm-19 1 .5.5-4.5 4.5-.5-.5zm51 2 6.5 6.5-.5.5-6.5-6.5zm-58 2 .5.5-3.5 3.5-.5-.5zm16 1 .5.5-2.5 2.5-.5-.5zm-14 1 .5.5-3.5 3.5-.5-.5zm64 5 2.5 2.5-.5.5-2.5-2.5zm-126 2 .5 4.5h-1zm66 2 .5.5-2.5 2.5-.5-.5zm68 2 .5 2.5h-1zm-133 4 .5 4.5h-1zm58 5 .5 1.5-1.5 2.5-.5-1.5zm-57 2 .5 2.5h-1zm54 6 .5 2.5h-1zm-1 6 .5 2.5-7.5.5v-1l6.5-.5zm-18 3 5.5.5-5.5.5zm-13 1 3.5.5-3.5.5zm-12 3 2.5.5-2.5.5z" opacity=".996"/><path fill="#efbd50" stroke="#efbd50" d="M401.5 3h5l4.5 1.5q-2 1 0 2l1 5-1 3q2.8.8 2 5l-1 1v11q2.2 1.2 1 6-2.7.8-2 5 2.2 1.3 1 6-3.5 1.5-2 8l1 1v8l-2 3v36l1 1v7l-2 3v15l1 1v35l-2 5v6l.5 1.5-8-1q-.7 2.8-5 2l-1-1h-6l-2 2-4.5.5 4.5 1.5h7l2-2h8l1 1 4.5.5q-2 1 0 2-1 4 1 5l-1.5-.5-2 2-1-1-1.5.5-.5 1.5-3-1h-8l-4 2h-8l-2.5-1.5v-14q3-1 2-6l-1-2q2.5-.5 2-4l-.5-1.5 1.5-.5-.5-1.5 1.5-.5q-2-1 0-2l-.5-1.5-4.5 1.5q2 1 1 5l-2 1 1 4q-3.5 1.5-2 8l1 1v12l-1 1 .5 1.5-10.5.5 6.5.5 2 1 1-1h11l1 1h14q1.2-3.2 7-2l1.5 1.5v7q-1.5 3-7.5 1.5-1.2-2.2-6-1-2.6 3.4-10 2-1.3-2.2-6-1-1 3-6 2l-3-1q-.8 2.8-5 2l-3-1q-.7 2.8-5 2-.7-1.7-4-1-2.3 3.2-9 2l-2-1q-.7 2.7-5 2l-2-1-1 1h-10q-1-2-5-1-2 3-8 2-1-2-5-1-1.5 3.5-8 2l-1-1h-6l-3 2h-25l-1-1h-19l-1 1q-4.8-1.3-6 1h-24l-1-1h-19l-1 1q-4.2-.7-6 1-2.3-3.2-9-2l-1 1h-12q-2.3-3.2-9-2l-1 1h-6l-1-1h-19q-1 2-5 1-.7-1.7-4-1-.7 2.8-5 2-.7-1.7-4-1-1 3-6 2-.7-1.7-4-1l-2 2h-8l-1-3-1.5-.5 1-7-2-2v-9l2-2v-8l-1-1-.5-4.5-.5 4.5-2 2v3l1 1v8l-1 2 1 1v14l-1 1 .5 1.5h-5l-1-1-5.5-.5 1-3q-3-1-2-6l1-1v-16q-2-1-1-5l2-3q-1.7-.8-1-4l2-1-1-4 2-3-1-2 2-3-1-2 2-1-1-4 2-1-1-3q3.8-1.7.5-3.5l-2.5 1.5 1 3-2 1 1 3-2 1 1 4-2 1 1 4-2 3 1 3-2 3q1.8.8 1 4l-2 3q2 1 1 5l-2 1q-1.2 4.8 1 6v20l-5.5 2.5-1-1-2 2-1-1-1.5.5v-8l2-6v-17l-1-1v-21q3.3-1.2 2-7l-1-1v-11q2.8-1.7 2-7-2.3-1.2-1-6 3-1 2-6-2.3-1.3-1-6 3.2-2.3 2-9l-1-1v-7q2.8-.7 2-5-2-1-1-5 3.4-2.6 2-10l-1-1v-7q2.8-1.7 2-7-2.2-1.3-1-6 3.6-2.9 2-11l-1-1v-13l2-2v-13l-1-1v-6q2.5-.5 2-4l-1-2L73.5 9l2 1 2-1 2 2h8q1-2 2 0l12-1q1.2 3.3 7 2l1-1h6q1.3 3.3 7 2 1.2-2.2 6-1l5 5h4l1-1h10l1 2 3-1h7q2 3 8 2l1-1h6q1.5 3.5 8 2l1-1h25q1.3 2.3 6 1 1-3 6-2 .7 1.8 4 1 .7-2.8 5-2l3 1q.8-2.7 5-2l3 1q.8-2.7 5-2l3 1q1.2-3.2 7-2 .8 1.8 4 1l3-2h13l1 1h11l4-2h8l1 1h18l1-2 9 1q.8-2.7 5-2l3 1q.8-2.7 5-2l3 1q.5-2.5 4-2l3 1q.8-2.7 5-2 1.3 2.2 6 1 2.9-3.6 11-2l3 1q1.3-3.3 7-2 1 2 5 1 1.3-3.3 7-2 .8 1.8 4 1zM386 15l-3 1-3 3-38 1 36 1-2 5v4l-1 1v14l1 1v8l1 1 1 12 1 1v4l1 1v4l3 9v3l5 14h2l1-4 1-40 1-1 1-12-4-3-5-5 2-7 9-6v-4h-13l-1 1h-3l4-2h14l1 1v-1l2-1v-1l-4-2-2 1-5-2zM87 19q-3 1-2 5l-3 4 3 4q2 8-2 11l2 3v7l-1-7-1-3-5 7-2 6v7l2 1 4-1q5-4 8-10l7-7 9-4q4 1 6-1h21l1 1h7l1 1 7 1 2 4-7 4h-2l-3 2-9 3-4 4v2l9 4q3-1 4 1h6l1 1h24l1-1h9l1-1 11-1 9-3v-2l-3-4-13-8-7-7-5-9-7-7-9-1-1-1h-28l-1 1h-8q-2 2-6 1l-1 3h-3l2-1v-3l-3 3h-3l-5 3h-3l5-2-2-3-1 1H89q-3-1-1-2l-1-1zm140 8-1 2-1-1-1 2-2-1-3 2-3-1q-5-1-5 2-4 1-4-1-6-1-7 2-5 1-5-1h-5l-3 2q-2 1 1 2h7l2-2q3-1 5 1 6 2 8-2 3-1 5 1 4 1 5-2 3-1 4 1l6-2v-3h-1zm-10 14-1 2q1 1 2-1zM89 78l-3 1-6 6-3 9v10l1 3 3 2h6l15-6 11-2 1-1h4l1-1 11-1 1-1h6l1-1 16-1 1-1h8l2-1-3-2 7-8v-2l-2-2h-24l-1 1h-7l-6 2h-4l-5 2-9 1-1 1h-8l-9-7zm186 11q-4 1-3 6 3 1-1 3l1 3h-1q-3 1-1 3l-3 2q-3 1-1 3l-2 1q-1 4 2 5l3-2-1-3 2-1q2-1 0-2l4-3-1-1 2-1-1-1 2-1-1-3 2-1v-4l-1-1zM99 113l-2 1q-5 3-7 9l-1 6-1 1v4l-1 1v19l2 1 20-28 2-4v-6q-3-6-12-4Zm50 13-3 3 2 4q1 4-1 6v14l-1 1q-1 5 2 6l1-3 1 3h1l-2-4v-13q2-1 0-2-1-5 2-5l-1-3q-1-5 1-5zm-6 11-2 2 3 3v7l-3 5-3-1 1-3q1-5-1-7l-2 4v6q3 4 9 5v-5l1-1v-13q0-2-3-2Zm10 0-1 6 1 1q-2 2-1 7h-1q-1-5 1-7-1-3-2-1v9l1 1v6h2l1-11 2-2-1-8zm108 0v3q3-1 0-3Zm-119 3-2 2h-2l2 4-1 7h2l2-4v-7zm14 7-1 5-1 1v6l-3 2 9 3 14 12 3 1v-1l3-3 5-2 2 1h1q1-5-1-6l-4-3h-3l-2 4v-1q1-3-1-4l-2 4-1-3-2-1q-3-1-1-2v-2l-3 1v8l2 1 1-4h1v2l-2 3q-5-2-3-9l-4-4 1-1-2-4-2-1v11l-1-9zm249 20-1 2-2-1-2 1 1 3 5-2zm-220 5-5 2-4 5v4l2 1-1 2 3 1v2l2-1v2h3q1-4 3-1v-1l5-4-1-2 2-1v-2l-4 1 1 2h-1v2l-2 2-2-1-1 2h-1l-1-1h-1q-3-1-1-2l-1-1v-1l-1-3 3-4q3-1 4 1l1-2zm183 0-3 3 1 1q1 3-1 4-1 6 1 9t3 0v-10l-1-3 2-1zm-186 4-2 2 1 1 4-2zm17 6q-2 1 1 2l1-1zm163 4-2 3q2 3 3 0z" opacity=".996"/><path fill="#efbd50" stroke="#efbd50" d="m138.5 13 6.5.5-6.5.5zm10 1 9.5.5-9.5.5zm74 0 3.5.5-4.5 1.5q-1.5-1 1-2Zm-61 1 23.5.5q-2.7 2.8-9.5 1.5l-1-1h-13zm42 0q6.1-1.1 8.5 1.5l-7.5.5q-2.5-1-1-2Zm180 2 7.5.5-7.5.5zm-4 9 3.5 2.5-1.5-.5-4.5-.5zm-2 3 4.5 1.5-3.5.5q-2.5-1-1-2Zm-289 1 1 1 6.5.5-9 6-.5 8.5-.5-13.5zm7 6 20.5.5-21 1 .5 1.5 21.5.5-21.5.5-1.5-2.5zm-8 11 .5 5.5h-1zm75 110 .5 2.5-1.5 2.5-.5-1.5z" opacity=".996"/><path fill="#fbdc7a" stroke="#fbdc7a" d="m407.5 3 3.5.5-3.5.5zm-11 1 3.5.5-3.5.5zm-12 1 4.5.5-4.5.5zm-10 1 2.5.5-2.5.5zm-17 1 5.5.5-5.5.5zm-8 1 2.5.5-2.5.5zm-7 1 2.5.5-2.5.5zm-263 1 8.5.5-8.5.5zm10 0 5.5.5-5.5.5zm245 0 2.5.5-2.5.5zm-231 1 5.5.5-5.5.5zm221 0 4.5.5-4.5.5zm-254 1 .5 2.5h-1zm47 0 5.5.5-5.5.5zm183 0 18.5.5-18.5.5zm111 0 .5 2.5h-1zm-281 1 7.5.5-7.5.5zm146 0 11.5.5-11.5.5zm-20 1 3.5.5-3.5.5zm-46 1 10.5.5-10.5.5zm36 0 2.5.5-2.5.5zm-113 1 4.5.5-4.5.5zm50 0 20.5.5-20.5.5zm55 0 2.5.5-2.5.5zm-89 1 2.5.5-2.5.5zm81 0 2.5.5-2.5.5zm-68 1 5.5.5-5.5.5zm59 0 3.5.5-3.5.5zm-45 1 6.5.5-6.5.5zm33 0 5.5.5-5.5.5zm203 1 .5 11.5h-1zm-343 3 .5 13.5h-1zm15 1 .5 1.5-1.5.5q-1.5-1 1-2Zm5 6 7.5.5-7.5.5zm123 0 3.5.5-3.5.5zm-11 1 5.5.5-5.5.5zm-12 1 5.5.5-5.5.5zm34 0 2.5.5-2.5.5zm-9 1 3.5.5-3.5.5zm-13 1 6.5.5-6.5.5zm-14 1 7.5.5-7.5.5zm224 4 .5 3.5h-1zm-1 11 .5 6.5h-1zm-342 2 .5 8.5h-1zm341 16 .5 36.5h-1zm-342 1 .5 4.5h-1zm-1 15 .5 7.5h-1zm210 7 .5 4.5h-1zm-211 8 .5 3.5h-1zm199 10 .5 3.5h-1zm4 1 .5 2.5h-1zm-204 2 .5 6.5h-1zm34 1q9.8-1.7 12.5 3.5v6l-2 4L88.5 155l-1.5-1.5v-19l1-1v-4l1-1 1-6q2-5.5 6.5-8.5zm310 2 .5 15.5h-1zm-345 12 .5 4.5h-1zm87 6 .5 2.5h-1zm2 4 .5 5.5h-1zm-90 2 .5 4.5h-1zm93 3 .5 3.5h-1zm-94 16 .5 5.5h-1zm13 0 .5 2.5h-1zm3 0 .5 2.5h-1zm-4 5 .5 2.5h-1zm303 2 .5 2.5h-1zm3 0 .5 2.5h-1zm-4 6 .5 6.5h-1zm3 0 .5 4.5h-1zm29 0 .5 6.5h-1zm-333 2 .5 2.5h-1zm532 0 7.5.5 1 2v15l-1 1-.5 11.5h-16l-3.5-1.5-1-3 1-1 1-16 3.5-4.5zm3.5 5-3 2-9 3v1h4l3-2h2q1-2 2 0v-1l3-2zm0 4-11 7h2v2l-2 1 1 1q4 1 6-1l-2-1 8-5-1-3zm-433.5-4 .5 4.5h-1zm192 0 .5 10.5h-1zm31 0 4.5.5-4.5.5zm-220 1 .5 2.5h-1zm186 0 .5 7.5h-1zm22 0 6.5.5-6.5.5zm16 2 4.5.5-4.5.5zm-18 1 7.5.5-7.5.5zm-298 1 .5 8.5h-1zm-3 1 .5 3.5h-1zm-24 3 .5 17.5h-1zm12 1 .5 16.5h-1zm-3 1 .5 5.5h-1zm113 0 2.5.5-2.5.5zm209 2 8.5.5-8.5.5zm-5 3 14.5.5-14.5.5zm9 8 5.5.5-5.5.5zm-16 1 5.5.5-5.5.5zm-292 1 .5 3.5h-1zm283 0 2.5.5-2.5.5zm-8 1 2.5.5-2.5.5zm-9 1 3.5.5-3.5.5zm-34 2 4.5.5-4.5.5zm-13 1 4.5.5-4.5.5zm-15 1 6.5.5-6.5.5zm-218 1 .5 2.5h-1zm45 0 3.5.5-3.5.5zm36 0 6.5.5-6.5.5zm89 0 19.5.5-19.5.5zm-155 1 .5 2.5h-1zm21 0 3.5.5-3.5.5zm67 0 6.5.5-6.5.5zm16 0 19.5.5-19.5.5zm-93 1 3.5.5-3.5.5zm-26 2 5.5.5-5.5.5zm-6 1 2.5.5-2.5.5z" opacity=".996"/><path fill="#f9fbfb" stroke="#f9fbfb" d="m432.5 60 .5 3.5h-1zm9 0h6l1 1 2-1v1l-3.5 2.5q-1.7 4.8-5.5 7.5l.5-1.5-.5-2.5-2.5 1.5-.5 1.5-.5-1.5 3.5-2.5 2 1 4.5-5.5-6.5-.5zm11 1-.5 1.5v3l-3.5 5.5-1.5-.5 2-2 2-6zm5 0-.5 1.5-6.5 8.5.5-1.5zm3 0 .5 3.5-3.5 7.5-.5-1.5 3-6zm2 0 2.5.5-2.5.5zm7 1 2.5.5-2.5.5zm-36 3 3.5 3.5-.5.5-3.5-3.5zm32 1 2.5 1.5q-.8 3.3 1 4l-2.5.5.5-1.5-.5-3.5-4.5 3.5-.5 1.5-1.5-.5zm17 0 5.5 5.5-.5.5-5.5-5.5zm-27 2-.5 1.5-1.5 2.5-.5-1.5zm16 3 3.5 1.5-2.5.5-1-1-1.5.5zm-39 89 14.5.5-14.5.5zm-1 2 .5 2.5h-1zm-4 2 1.5 4.5q-1 2.5-2 1 2-1 0-2zm12 8 3.5.5-3.5.5zm-41 34h8l1.5 1.5-1.5 1.5q-3.2-.7-4 1l-28.5.5.5 1.5 34-1 .5 4.5 1 1v10q1.8.8 1 4l-18.5.5-1 1h-26l-1 1h-18l-1 1h-13l-1 1h-7l-1 1q-4.7-1.3-6 1h-14l-1 1h-22l-1 1h-17l-1 1h-24l-1 1h-20l-1 1h-13l-1 1h-9l-1 1-15 1-1.5-1.5-3-9-6.5-6.5-14-9h-7l-24 8-11.5 10.5-2.5 3.5h-12l-1-1h-20l-1 1h-15l-.5-6.5 3.5-1.5 5.5-.5-.5-1.5-7 1-.5-3.5 3.5-2.5q4 1 5-1h20l5 2 .5-1.5-7.5-2.5h-17l-1 1h-7q-1.5-1 1-2 1.8-1.7 6-1l1-1 18-1 1-1h10l1-1h33l1-1h56l1 1h35l1-1h6l1 1h9l1-1h20l1-1h14l1-1h27l1-1h19l1-1h15l5-2h10l1-1h16l1-1h12l1-1h11zm3.5 9-1 1h-9q-3 1-1 2h12l2-1v-1zm-94 1-1 1h-8v1h13q-1-3-4-2Zm-21 7-1 2h11l1 1v-1l-3-2zm-57 1-3 1-2 3q3 3 9 3 0-3 2-4l-1-2zm17 0-2 3q1 2 6 1v-1zm69 2-2 2h6v-1zm-126 3q-1 2-5 1-3 1-1 2 3 1 4-1h7l1-1zm111 2v1l7 2v-1l-3-2zm-238 3-2 2h3v-1zm529.5-12 2.5.5-2.5.5zm-7 1 1.5.5-3.5 2.5-.5-.5zm21 0 2.5.5-2.5.5z" opacity=".996"/><path fill="#f9fbfb" stroke="#f9fbfb" d="m229.5 227 2.5.5-2.5.5zm333 0 .5.5-2.5 2.5-.5-.5zm73 4 .5 3.5h-1zm-58 1 .5 2.5h-1zm47 1 .5 4.5h-1zm-66 1 .5 5.5h-1zm-187 1 6.5.5-6.5.5zm21 0 5.5.5-5.5.5zm240 0 .5 3.5h-1zm-275 1 4.5.5-4.5.5zm48 0 3.5.5-3.5.5zm-65 1 6.5.5-6.5.5zm296 0 .5 6.5q-1 2.5-2 1l1-1zm-240 2 7.5.5-7.5.5zm-81 1 5.5.5-5.5.5zm50 0 4.5.5-4.5.5zm-82 1 5.5.5-5.5.5zm-16 1 7.5.5-7.5.5zm-194 1 24.5.5-24.5.5zm169 0 6.5.5-6.5.5zm-13 1 5.5.5-5.5.5zm-25 1 3.5.5-3.5.5zm-133 3q1.5 1-1 2l-1.5-.5zm317 0 .5 1.5-3.5 3.5-.5-.5zm5 0 .5.5-2.5 2.5-.5-.5zm-317 1 .5 1.5-2.5 2.5-.5-.5zm103 0 2.5.5-2.5.5zm375 0 .5 4.5h-1zm-199 1 4.5.5-4.5.5zm58 0 .5 2.5h-1zm-175 1 6.5.5-6.5.5zm127 0 2.5.5-2.5.5zm-7 2 3.5.5-3.5.5zm31 0 2.5.5-2.5.5zm-212 1 .5 2.5h-1zm63 0 3.5.5-3.5.5zm383 0 2.5 2.5-.5.5-2.5-2.5zm-554 1-.5 1.5-2.5 3.5-.5-.5 2-2zm167 0 1.5.5-.5 1.5 2.5.5-2.5.5q-2.4-.9-1-3Zm-162 1 .5.5-2.5 2.5-.5-.5zm234 0 5.5.5-5.5.5zm8 0 4.5.5-4.5.5zm69 0 2.5.5-3.5 1.5q-1.5-1 1-2Zm-6 1 .5.5-3.5 3.5-.5-.5zm211 0 .5.5-2.5 2.5-.5-.5zm-311 1 4.5.5-4.5.5zm-180 1 .5 2.5h-1zm-41 2 .5 3.5h-1zm29 4 3.5.5-3.5.5zm-5 1 2.5.5-2.5.5zm538 0 3.5.5-3.5.5zm-555 1 4.5.5-4.5.5zm144 0 2.5.5-2.5.5zm128 0 7.5.5-7.5.5zm32 0 6.5.5-6.5.5zm-106 1 2.5.5-2.5.5zm56 0 7.5.5-7.5.5zm82 0 4.5.5-4.5.5zm155 0 4.5.5-4.5.5zm-260 1 6.5.5-6.5.5zm269 0 4.5.5-4.5.5zm45 0 2.5.5-2.5.5zm-402 1 5.5.5-5.5.5zm43 0 2.5.5-2.5.5zm27 0 6.5.5-6.5.5zm305 0 16.5.5-16.5.5zm-348 3 2.5.5-2.5.5zm-15 1 5.5.5-5.5.5zm-15 1 5.5.5-5.5.5zm-23 1 13.5.5-13.5.5z" opacity=".996"/><path fill="#313131" stroke="#313131" d="M403.5 0h12l1.5 1.5-1 1v27l-1 1v13l17.5.5 1-1h17l1 1h9l1 1h25l1 1h6l3 1 3.5 3.5 12 17 3 6 13 15 14 21 16.5 20.5 6 4 17 8 2 2 21 10 5 3 9.5 8.5q-3.2 1.3-2 7 2 1 0 2v5l-1 1-.5 5.5-.5-7.5q2-1 1-5-2.2-3.7-9.5-2.5v2l-2-1-5.5 3.5-.5 1.5-1-1-3.5 3.5 1 3q-3.3 1.3-2 7l1 2-2 1 .5 8.5 2.5 1.5.5 1.5 3-1h14q1 2 2 0l1.5.5q.8 3.2-1 4v13l14.5 3.5 6 3 2.5 2.5q1.8 2.2 1 7l1 1v10l-1 1-.5 7.5-1.5-5.5q3.4-2.6 2-10l-2-3v-2l1-3-2-1 .5-1.5-5 1-4-5-3-1-1.5.5-.5-1.5-2 1-1-2-3 1-1-2-5 1-1-2-11 1v-1l1.5-.5-10.5-.5v2l-4-1-2 3-2-3q-3.5-.5-4 2l-2-1-1 2-1.5-.5-.5 1.5-1-1-1.5.5-.5-1.5-1.5.5-.5 1.5-3-1-3.5 2.5-.5 1.5-2.5 1.5.5 1.5-1.5.5 1 2-2 1q-.7 3.3 1 4l-3 1 1 2-2 1 1 5-2 2v9q2.2 1.3 1 6-1.7.8-1 4l2 1 .5 1.5h8l1-1 2.5 1.5-11.5 1.5-2-1-1.5 6.5-3 6-7 10-5.5 5.5-4 3-7 3q-4-1-5 1h-10l-1-1-10-1-13-6-8.5-8.5-5-10-.5-11.5q-2.2-1.8-7-1l-1 1h-8l-1 1h-7l-1 1h-8l-8 3-11 1-3-2h-11l-1-1q-4.8 1.3-6-1h-36l-1-1-17.5-.5 3.5-1.5h19l3 2h10l3-1 1 1h8l1-1h7l2 2h8l3-1 2 2 4 1 1.5-1.5q-2-1 0-2l-1.5-3.5-1.5-.5 1-3-2-1 1-5-2-1q1.8-2.2 1-7h-2q2-1 1-5l-2-1-1-3 1-3-1.5-1.5-2 1q-1.2-3.3-7-2l-3 1-2.5-1.5 14-1 1-2q-2-1 0-2l-.5-8.5-1.5-.5q2-2.5 1-8l-5-1 .5-1.5 2 1 .5-3.5-1.5-1.5-1.5.5-.5-1.5-3.5-.5 3.5-.5 3 1 1.5-3.5v-7l-3.5-.5-1.5-1.5 1.5.5 1.5-.5.5-1.5 1.5-.5q1.3-6.8-1-10l1-1v-15l-1-1v-18q2.2-1.3 1-6l-1-3q-.7-4.2 2-5v-19q-2-1-1-5l2-1v-42q-2.2-1.2-1-6l2-1v-9q-1.8-.7-1-4l2-1v-6l-1-3 2-4v-10l-2-1q1.7-1.8 1-6l-2-1q2.2-2.8 1-9L408.5 1q-.5 2.5-4 2l-1-1h-8l-1 2-3-1h-7l-1 2-3-1h-7l-1 2-3-1h-11l-3 2q-1-2-5-1l-3 2q-1-2-5-1l-1 2q-1.8-1.7-6-1l-3 2-1-1h-6q-.5 2.5-4 2l-1-1-16.5-.5 18.5-.5 1-1h9l1-1 15-1 1-1h6l1-1h9l1-1h12l1-1h10l1-1h12zM418 46l-2 1-1 13-1 1v30l-1 1v26l-1 1v39l-1-3h-1q-1 3 1 5v8l1 1v18l1 1v15l1 1v20l1 1v14l1 1 1 13 2 4 1 9 3 6h7l4-2 8-1 1-1 29-1 1-2v-5l1-1 1-6 8-14q6-8 15-13l6-3 8-1q2 1 1 2l-2-1-1 2-2-1-1 2-2-1-1 2-2-1-1 2-1-1-1 2-1-1-1 2h-2l-2 3-2 2-1-1-3 3 1 1-4 3-3 3 1 1h-1v2l-1-1-2 3 1 2h-2l1 3-2 1 1 2-2 1 1 3h-2q-1 3 1 4 1 3-2 4v9l2 2-1 2 2 1-1 2h2l-1 2h2l-1 2 3 1 5 7q1 2 3 0v2l2-1v2l2-1v2l2-1 1 2 2-1v2l2-1 3 2q3 1 5-1h3l4 2h2l3-2 7 1v-1h2l2-1v-1q1-3 3-1l7-7-1-1 3-2q2-1 0-2l3-2-1-1 2-1v-1q2-1 0-2l2-1v-1q-2-2 1-3l-1-2 2-3-1-2q0-4 2-4l-1-3 1-5q-2-1 0-2l-2-3q-2-1 0-2l-2-1 1-2-1-1v-1l-1-1-1-2-2-2-1-2-8-9-1 1-3-3-3-2q-1-2-2 0v-2l-5 1v-1l-5-1v-1l10 1 9 4 8 9 9 12 1-8 3-4 1-6q3-4 8-6l10-2 1-1h7l1-1h18l1 1h11v-9l1-1v-4q-4-1-4 1-4 1-4-1h-13l-2-1-2-2v-5l2-6v-7l2-3 2-7 4-4 16-1q-2-1-1-4-10-6-17-13l-29-15-2-2-8-4h-2l-5-5-7-12-27-34-5-9-14-20-2-3h-6l-1-1h-21l-1-1h-11l-1-1zM67.5 6h12l1 1h20l1 1h7l1 1 7.5.5-3.5 1.5h-4l-2-2h-8q-.7 1.8-4 1l-1-2h-17l-1 1-1-2-4.5.5-.5 1.5-1.5.5 1 2q-2.7.8-2 5 2 1 1 5l-2 1v16l1 1v11h-1l-.5-7.5-.5 21.5q1.8.8 1 4l-2 1v8q2 1 1 5h-2v13l1 3-2 1v7q1.8.8 1 4l-2 1v11q1.7.8 1 4h-2v8q1.8.7 1 4l-2 1 1 18h-1l-.5-1.5-.5 14.5 1 1v14h-1l-.5-1.5-.5 31.5 2 5q-3.5 1.5-1 3l-1.5 4.5-1.5.5q-.7 3.2 1 4v15l-1 1v14q-2.5.5-2 4 1.8 3.3 6.5 3.5l1-2 1 1h11q1-2 5-1 1.2 2.2 6 1l1-2 1 1h9l5.5-2.5-1-2q2.6-1.4 2-6l-1-2 2-1-1-3 2-1-1-2 2-1-2-4q4.7.2 6-3l-.5-1.5 1.5.5 8.5-9.5 2.5-1.5.5-1.5 2 1 2.5-1.5.5-1.5 2 1 1-2 2 1 1-2 3 1 3.5-1.5.5-1.5 3 1 1-2q1 2 5 1l1-2 1 2 2-1 1 2 1.5-.5 1.5 2.5 1.5-.5 1.5 2.5 1.5-.5 2.5 3.5 1.5-.5 6 7 2.5 7.5 1.5.5-1 2q.8 2.3 4.5 1.5l3-2 4.5 1.5q-1.2 2.7-2.5.5h-3l-2 2-3.5.5v7l2 2q-2.2 1.3-1 6l1 2-2 1 1 3-2 3 1 1-2 2 .5.5h7l2 2 9.5.5-11.5.5-1 1h-6l-2.5 1.5-3 6-5.5 6.5-13 9-12 3-1-1h-3l-1-1h-3l-6-2-6-3-10.5-8.5-6-10-1-3v-7l-1.5-1.5-4 1q-1.2-3.2-7-2l-1 1-29 1-4.5-3.5v-11l1-1v-16l1-1v-15l-7.5-.5-1 1h-21l-1-1h-13q-.7-1.8-4-1l-3-1-3.5-3.5-1-3v-9l2-5 4.5-4.5q2.2-1.8 7-1l1-1h34l1-1 7.5-.5v-32l1-1v-23l1-1 1-16 1-1v-11l1-1v-15l1-1v-24l1-1v-17l1-1v-35q2-1 1-5zM52 195l-1 1-33 1-1 1h-6l-3 1-4 5q1 3-1 4v8l6 4q4-1 6 1h41v-4l1-1v-20l-2 5v9l-1 2-2-1zm97 27-1 1h-7q-1 2-4 1l-6 3h-2l-1 2h-2l-1 2q0 2-4 2l-5 5v2l-2 1-3 3 1 1h-1q-3 1-1 3h-1l-1 3h-1v2h-1v2l-2 2 1 1-2 1 1 2q-2 1-1 6l-1 1q-1 3 1 4l-1 3 2 3-1 2h2l-1 2q2 0 2 4h2l-1 2h2q1 1 1 4l4 3 1-1 1 3h3v2l2-1 2 2 1-1 2 2 1-1 3 2 3-1h3l4 2h3l3-2h2q1 3 3-1l1 1v-1h2v-1h2l2-3 3-3 1 1 3-3v-2l3-2-1-1 2-1-1-3 2-1-1-2 2-1-1-2 2-1-1-5 2-1-1-2 2-3-1-2 1-3v-10l-1-1v-4l-2-3v-2l-1-1v-1l-2-2-2-2q-1-3-2-1l-1-1q-1-3-2-1l-1-1q-1-3-2-1l-1-1h-1l-1-1h-1l-1-1h-1l-1-1h-1zM121.5 10l7.5.5q-1 2.5-5.5 1.5l-2.5-1.5zm153 0 28.5.5-3.5 1.5h-4l-1-1h-15l-5 2h-10q-2.5-1-1-2h10zm-139 1 8.5.5-3.5 1.5h-3l-2.5-1.5zm14 1h19l1 1 17.5.5-18.5.5-3 1-2-2h-8q-.7 1.8-4 1l-2.5-1.5zm80 0 27.5.5q-1.4 2.1-5.5 1.5-1.3-2.2-6-1v2l-7-1-1 2-7-1-3 2-2.5-1.5 2-1-2-1zm-29 1 13.5.5q-1.7 2.3-6.5 1.5l-1-1h-6zm-63 1 3.5.5-.5 1.5-3.5-.5zm16 1 1.5.5-2.5 1.5q-1.5-1 1-2Zm14 1 2.5 1.5-2.5.5zm52 0q2.5 1 1 2l-1.5-.5zm-35 1h20l4.5 1.5-4.5.5-1-1h-15q-1.2 2.3-6 1v-1z" opacity=".984"/><path fill="#313131" stroke="#313131" d="m396.5 17 2.5.5-2.5.5zm-7 1 1.5.5-.5 1.5-24.5-.5 22.5-.5zm-303 3 .5 4.5h-1l-1-3zm-2 5 2.5 1.5-.5 2.5q-3.6-1.1-2-4Zm5 1 9.5.5-9.5.5zm139 1q2.5 1 1 2l-1-1-1.5.5zm-13 3 1.5.5-3.5 1.5v-1zm-130 1 .5 2.5h-1zm108 1 2.5.5-2.5.5zm8 0 2.5.5-2.5.5zm-103 4 8.5 1.5-9.5.5q-1.5-1 1-2Zm322 14q4.1-.6 5.5 1.5l-2 1-.5 3.5-1.5.5q-.8 4.8 1 7l-2 2v39l1 3-2 1v6q1.8.8 1 4l-2 1v6l2 2 .5 3.5 9.5-.5-2-1 4.5-.5 1 1h9q.7-2.7 5-2l1 1h10l1-2q3.2-.7 4 1h9l3-2 1 1 39.5.5-36.5.5-1 1-15 1-1 1h-31l-1 1h-7l-4.5 1.5v11l-1 1-.5 5.5-.5-6.5 1-1v-9l-1-1v-36l1-1v-38l1-1zm20 1 6.5.5-6.5.5zm8 1 15.5.5-12.5.5q-1 2-5 1v-1zm22 0 9.5.5-9.5.5zm11 1h8l1.5 1.5 6 10q-1 2.5-2 1 2.3-1.2-.5-2.5l-1.5-.5q2-1 0-2l-.5-1.5-1.5.5q2-1 0-2l-.5-1.5-3.5-.5-.5-1.5-6 1q-1.5-1 1-2Zm-33 11 1.5.5-2.5 1.5q-1.5-1 1-2Z" opacity=".984"/><path fill="#313131" stroke="#313131" d="m445.5 67 2.5 1.5-2.5.5zm52 0 4.5 8.5q-1 2.5-2 1l1-2-1.5-2.5-1.5.5 1-2h-2l1-2h-2zm-35 4 .5.5-3.5 3.5-.5-.5zm9 3 .5 1.5-2 1 1 2-1.5-.5-1.5-.5.5-1.5zm31 3 14.5 31.5 4 5 6.5 12.5 2.5.5-.5 1.5-1.5.5 1 3h-1l-1.5-2.5h-5l-5.5-2.5 3.5-.5 3 1 2.5-1.5-2.5-5.5-1.5-.5 1-2h-2q2-1 0-2l-1.5-3.5-1.5.5 1-2h-2l.5-1.5-1.5-.5.5-1.5-1.5-.5q2-1 0-2l-2.5-5.5-1.5-.5.5-1.5-1.5-.5 1-2h-2l1-2h-2l1-2-4.5-8.5-1.5-.5.5-1.5-1.5-.5zm-67 1 1.5 2.5h-3zm21 0 .5.5-2.5 2.5-.5-.5zm21 5 1.5.5-2.5 1.5q-1.5-1 1-2Zm-31 5 1.5 2.5h-1zm35 2 1.5 2.5-1.5.5q-3-1.5 0-3Zm2 11q2 .5 1.5 3.5l-3.5 1.5v-3l1.5.5zm-213 2 1.5 1.5-2.5 2.5-.5-.5 2-2zm185 2 .5 2.5h-1zm9 4 1.5.5-2 3 .5 1.5-1.5-2.5 2-1zm-12 1 2.5.5-2.5.5zm37 0 .5 1.5q-1 2.5-2 1zm-8 2 2.5 1.5-2.5.5zm-332 16 .5 3.5h-1zm373 7q1.5 1-1 2h-11q-1 2-5 1v-1l3-1h13zm-368 6 .5 1.5q-1 2.5-2 1zm370 1 1.5.5-4 2 2 1q.5 3-1.5 3.5l-11 4q-1.5-1 1-2 6-.5 9.5-3.5-1-2.5-5.5-1.5-1.2 2.3-6 1v-1q2.2-1.8 7-1zm-376 1 .5 3.5-1.5 4.5-.5-3.5zm5 5-.5 1.5-.5 1.5-.5-1.5zm327 7 3.5.5-1.5 1.5h-5l-3 1v-1zm44 0 2.5.5-5.5 2.5h-3v-1zm-377 1 .5 2.5h-1zm14 1-.5 1.5-.5 1.5-.5-1.5zm271 0h18l4.5 3.5v6q2.5.5 2 4-2 1 0 2l-1.5 1.5q-1.8 1.7-6 1l-1 1h-12l-1 1h-7l-4.5-2.5.5-9.5 1 6 1.5.5-1 2 2.5 1.5 1-1h6l1 1h8v-1l-1.5-.5 2.5-.5 3 1 1-2 1 1 2.5-2.5-.5-1.5 1.5-.5-.5-6.5-2.5-1.5-.5-1.5-3 1-1-2-14.5.5-.5 1.5-1.5.5 1 2-1.5.5-1-3-1 2-1.5.5 1 2q-1 1.5-2-1-.6-4.1 1.5-5.5 4.8 1.3 6-1Zm97 2-.5 1.5-.5 1.5-4 2q-1.5-1 1-2zm-58 4 1.5.5-.5 1.5-1.5-.5zm-397 2 .5 2.5h-1zm394 3 1.5.5q-1 2.5-2 1zm11 0 3.5.5-4.5 1.5q-1.5-1 1-2Zm110 3 1.5.5-5 11v3l-2 5v7l-1.5 1.5-.5-1.5 1-1v-7l1-1 1-7zm-410 4-.5 1.5-.5 1.5-.5-1.5zm187 0 1.5 2.5-1.5 4.5zm10 0 .5 9.5h-1zm-199 4 .5 2.5h-1zm226 0 1.5.5q-.5 2-3.5 1.5v-1zm-11 1 2.5.5-2.5.5zm-306 2 .5 2.5h-1zm523 0-.5 1.5 1 2-4.5 1.5-.5-1.5 1.5.5 1.5-1.5zm-187 1 1.5 2.5-1 1-.5 8.5zm3 0 .5 3.5h-1zm155 0-.5 1.5-1 2-.5 9.5-1.5-4.5q2.2-1.2 1-6zm-391 1 1.5.5-2 1-.5 1.5-.5-1.5zm178 1 .5 2.5h-1zm9 4 .5 3.5-2.5 1.5v-1l1.5-.5zm-306 4 .5 2.5h-1zm308 0 9.5.5-9.5.5zm-329 8 1.5.5-1 4-1.5 1.5-1.5-.5q1.8-.7 1-4zm-41 1 1.5.5-3.5 5.5-.5-2.5zm24 2 2.5.5-2.5 1.5zm353 0 6.5.5-3 1 .5 1.5-7.5-1.5zm127 0q5.3-1.2 6.5 1.5l-4.5 1.5-2-1-3.5 2.5.5 2.5 7.5 1.5-7.5.5q-3-.5-2.5-4.5zm-441 1 .5 2.5-1 1-.5 7.5-.5-7.5zm302 0q3.8-.7 4.5 1.5l-2.5 1.5-3.5-1.5zm-7 1 2.5.5-2.5.5zm-9 1 4.5 1.5-2.5.5-2.5-1.5zm-271 1 .5 1.5q-2 1-1 5l2 1 .5 1.5 1.5.5-1.5.5-1-1-7.5-.5 5-1q-1.5-6 1.5-7.5Zm239 1 8.5.5-4 1 7 1-8.5.5-1-1-5.5-.5zm13 0q3-.5 3.5 1.5l-1.5-.5q-3 .5-2-1Zm-300 1 2.5 1.5-4.5 3.5-5 1-.5-1.5 7-3zm274 0 4.5.5-4.5.5zm75 0 4.5.5-4.5.5zm15 0 2.5.5-2.5.5zm75 0 2.5.5-6 4-2.5 4.5-.5-1.5zm-178 1 4.5.5-4.5.5zm-177 1 3 1h24l3-1 3.5 1.5-17 1-.5 1.5q-3.3.8-4-1l-23.5-.5 3.5-1.5 1 1h6zm143 0 12.5.5-12.5.5zm43 0 3.5.5-3.5.5zm-287 1 1.5.5-.5 1.5-1.5-.5zm143 0 9.5.5-9.5.5zm50 0h14l1 1q1-2 2 0l19.5.5q-.7 2.3-4.5 1.5l-1-1-40.5-.5 8.5-.5zm41 0 7.5.5-7.5.5zm25 0 2.5.5-2.5.5zm-176 1 2.5.5-2.5.5zm160 0 2.5.5-2.5.5zm-174 1 5.5.5-5.5.5zm85 0 4.5.5-4.5.5zm9 0 2.5.5-2.5.5zm-85 1 6.5.5-6.5.5zm-29 1 2.5.5-2.5.5zm418 1q3-.5 3.5 1.5l-6.5 1.5-9.5 9.5-8.5 13.5.5-1.5v-2l5-8 10.5-11.5zm-404 6 2.5.5-2.5.5zm207 0 2.5.5-2.5.5zm222 2 5.5.5-3.5 1.5-2.5-1.5zm-371 2q5-1 6 2l2-1 5.5 2.5.5 1.5 2.5.5 2.5 4.5 1.5-.5-1.5 1.5-3.5-3.5-.5-1.5-12-4q-.7 1.8-4 1-2.5-1-1-2l1.5.5zm241 4 5.5.5-5.5.5zm-24 1 3.5.5-3.5.5zm275 0 .5 1.5-1.5.5q-1.5-1 1-2Zm-293 1 3.5.5-3.5.5zm25 0 3.5.5-3.5.5zm-16 1 4.5.5-4.5.5zm-16 1 4.5.5-4.5.5zm-12 1 4.5.5-2.5 1.5-2.5-1.5zm-28 1 4.5.5-4.5.5zm-19 1 2.5.5-2.5.5zm27 0 9.5.5-9.5.5zm-47 1 7.5 1.5-4.5.5-3-1zm24 0 2.5.5-2.5.5zm354 0 1.5 2.5q-1 1.5-2-1zm-571 1h4l4.5 1.5-6.5.5-2.5-1.5zm36 0 1.5.5-.5 1.5-1.5-.5zm132 0 4.5.5-4.5.5zm-19 1 3 1 11.5.5-11.5.5-3-1zm27 0 2.5.5-2.5.5zm-39 1 3.5 1.5-1.5.5-2.5-1.5zm311 3q5-1 6 2l1.5-.5.5 1.5 1-1 2 2 1.5-.5.5 1.5 1.5-.5 1.5 2.5 1.5-.5-1 1 3 3-1 1q-.7 4.2 1 6l-1 2 .5 1.5-1.5.5.5 1.5-1.5.5q2.3 1.2-.5 2.5l-3.5 2.5-1.5 2.5-1.5-.5-.5 1.5-1.5-.5-.5 1.5-2-1q-.7 2.8-5 2l-2-2q-1.5 2.5-3-1l-2.5-.5-1.5-2.5-1.5.5q2.3-1.2-.5-2.5l-1.5-.5.5-1.5-1.5-.5 1-2q-2.7-.7-2-5l2-3-.5-1.5 1.5-.5q-2.2-1.2.5-2.5l2.5-1.5q-2.2-1.3.5-2.5l1.5-.5 1.5-2.5 1.5.5.5-1.5q1.5 2.5 3-1Zm1.5 4-4 2-3 3-2 5 1 3 3 3-4-1-2-2v-6l-2 3v8l3 5 8 4h6l6-3 5-6 1-3v-7l-7-7-3-1zm-377.5-3q5.8-1.2 7 2l1-1 3 3q1.3-2.3 2.5.5l-1 1 3 3-1 1 2 3v2l-2 3 .5 1.5-1.5.5.5 1.5-1.5.5.5 1.5-7 6-2-1-1 2-4-1-2 1-2-1-1.5.5-.5-1.5-1.5.5-1.5-2.5-1.5-.5.5-1.5-1.5-.5.5-1.5-1.5-.5 1-3-1-3 1-2-1-1 2-2-.5-1.5 1.5-.5.5-2.5 3.5-2.5.5-1.5 1.5.5.5-1.5 2 1zm-1.5 4-4 2-4 6v5l3 4v1l-2-1-2 1 1 2 6 4h7l4-2 5-5 1-3v-7l-2-4-3-3zm-58.5-3 1.5.5-2 1 .5 1.5-2.5 1.5 1 3-3.5 2.5v-1l1.5-.5-.5-1.5 1.5-.5-2.5-1.5-3 2v-1l1.5-.5-.5-1.5 3.5-.5 1.5-2.5zm5 1 1.5.5-.5 1.5-1.5-.5q.5 3.5-2 4l1 2-1.5.5.5-1.5-2-2zm76 0 2.5.5-1.5 2.5q-2.4-.9-1-3Zm233 3-.5 1.5-.5 1.5-.5-1.5zm-307 1 2.5 2.5-.5.5-2 1zm301 1 1.5.5q.5 4-2.5 4.5l.5-1.5 1-2z" opacity=".984"/><path fill="#313131" stroke="#313131" d="m516.5 254 4.5 1.5 1 2-.5.5-2-2-4.5-.5zm-355 3 1.5 2.5q-1 2.5-2 1 2-1 0-2zm476 0 .5 2.5q-1 1.5-2-1zm-315 1q1.5 1-1 2l-10.5-.5 10.5-.5zm67 0 1.5.5-2.5 1.5q-1.5-1 1-2Zm-105 1 1.5.5-.5 1.5-1.5-.5zm-143 1 2.5.5-.5 1.5-2.5-.5zm494 1 1.5.5q-1.2 5.8-5.5 8.5-2.2 1.8-7 1l-1 1h-7v-1l3-2h4l3-2 2 1 3-1 4.5-4.5zm-493 2 1.5 2.5-2.5.5-.5-1.5zm402 5 1.5.5-.5 1.5q-2.5-1-1-2Zm-408 1 2.5.5q-.5 2-3.5 1.5-1.5-1 1-2Zm131 0 3.5.5.5 1.5 1.5.5.5 1.5h11q1.4-2.6 6-2l1 1h12l1-2h8l1 1h13q1-3 6-2l1 1 4.5.5-8.5.5-1 1h-8l-1 1h-14l-1 1h-46l-1 1h-6l-1 1h-12l-.5-1.5 1.5.5 2.5-.5.5-1.5 5 1 1-2 5 1 1-2 4 1q1.5-3.5 3-1 5 1 6-2Zm308 2h5l4.5 1.5-11.5.5v-1zm27 0 3 1 8.5.5-14.5.5v-1zm-10 2 3.5.5-3.5.5zm-365 2 8.5 1.5-10.5.5v-1zm-15 1 8.5 1.5-10.5.5v-1zm-15 1 8.5 1.5-10.5.5v-1zm334 14 .5.5-3.5 3.5-.5-.5zm-407 1 3.5 3.5-.5.5-1.5-.5-.5-1.5-1.5-.5zm7 4 2.5 1.5-1.5-.5q-2.4-.1-1-1Z" opacity=".984"/><path fill="#414140" stroke="#414140" d="m375.5 0 3.5.5-3.5.5zm17 0 2.5.5-2.5.5zm-31 1 2.5.5-2.5.5zm20 0 2.5.5-2.5.5zm-28 1 2.5.5-2.5.5zm17 0 3.5.5-3.5.5zm-25 1 2.5.5-2.5.5zm-261 1 8.5.5-8.5.5zm253 0 2.5.5-2.5.5zm13 0 2.5.5-2.5.5zm-281 1 2.5.5-2.5.5zm33 0 2.5.5-2.5.5zm227 0 2.5.5-2.5.5zm13 0 2.5.5-2.5.5zm-278 1L66 8.5h-1zm31 0 3.5.5-3.5.5zm14 0 2.5.5-2.5.5zm207 0 5.5.5-5.5.5zm18 0 2.5.5-2.5.5zm-229 1 2.5.5-2.5.5zm13 0 3.5.5-3.5.5zm170 0 11.5.5-11.5.5zm37 0 2.5.5-2.5.5zm-213 1 2.5.5-2.5.5zm18 0 4.5.5-4.5.5zm138 0 3.5.5-3.5.5zm41 0 4.5.5-4.5.5zm-246 1 .5 2.5h-1zm59 0 4.5.5-4.5.5zm24 0 5.5.5-5.5.5zm93 0 6.5.5-6.5.5zm18 0 3.5.5-3.5.5zm19 0 7.5.5-7.5.5zm-140 1 4.5.5-4.5.5zm35 0 8.5.5-8.5.5zm46 0 9.5.5-9.5.5zm47 0 2.5.5-2.5.5zm154 0 .5 7.5h-1zm-265 1 6.5.5-6.5.5zm11 0 2.5.5-2.5.5zm25 0 8.5.5-8.5.5zm44 0 5.5.5-5.5.5zm19 0 4.5.5-4.5.5zm-71 1 3.5.5-3.5.5zm23 0 12.5.5-12.5.5zm-140 2 .5 12.5h-1zm352 8 .5 5.5h-1zm-354 8 .5 7.5h-1zm355 2 .5 6.5h-1zm-1 9 3.5.5-4.5 1.5q-1.5-1 1-2Zm10 0 5.5.5-5.5.5zm-364 1 .5 4.5h-1zm374 0 13.5.5-13.5.5zm28 0 5.5.5-5.5.5zm-44 1 3.5.5-3.5.5zm35 0 2.5.5-2.5.5zm33 0 2.5.5-2.5.5zm-16 1 3.5.5-3.5.5zm5 0 4.5.5-4.5.5zm-414 11 .5 4.5h-1zm442 0 1.5 1.5-1 1 .5 1.5-1.5-1.5 1-1zm-444 7 .5 2.5h-1zm1 6 .5 5.5h-1zm455 5 1.5 1.5-1 1 .5 1.5-1.5-1.5 1-1zm3 4 3.5 3.5-1 1 .5 1.5-1.5-1.5 1-1-3-3zm-460 4 .5 8.5h-1zm1 13 .5 4.5h-1zm-2 7 .5 4.5h-1zm1 8 .5 3.5h-1zm484 0 1.5 1.5-1 1 .5 1.5-1.5-1.5 1-1zm3 4 1.5 1.5-1 1 2 2-.5.5-2.5-2.5 1-1zm-489 1 .5 3.5h-1zm1 6 .5 2.5h-1zm-2 4 .5 2.5h-1zm499 1 2.5 2.5-.5.5q-1-2-2 0l-1.5-1.5zm-500 7 .5 2.5h-1zm1 6 .5 2.5h-1zm-2 5 .5 14.5h-1zm555 14q1 2 2 0l5.5 5.5-.5.5-5-5-1 1q-2.5-1-1-2Zm-554 6 .5 7.5h-1zm561 7 .5 2.5h-1zm2 3 .5 1.5-2 1-.5 1.5-.5-1.5zm-565 7 .5 10.5h-1zm564 2 .5 7.5h-1zm-2 8 .5 7.5h-1zm-577 1 7.5.5-7.5.5zm12 1 3.5.5-3.5.5zm-44 1 2.5 1.5-1.5.5q-2.5-1-1-2Zm11 0 14.5.5-14.5.5zm599 16 .5 5.5h-1zm-2 8q2.5 1 1 2l-1.5-.5zm12 4q1.5 1-1 2l-1.5-.5zm-615 2 4.5.5-4.5.5zm14 1 2.5.5-2.5.5zm12 0 5.5.5-5.5.5zm-20 1 5.5.5-5.5.5zm31 0q4.5-1 5.5 1.5l-.5 2.5-1-3h-4zm-18 1 3.5.5-3.5.5zm21 6 .5 5.5h-1zm1 16 .5 3.5h-1zm-2 5 .5 2.5h-1zm1 4 .5 3.5h-1zm-2 5 .5 2.5h-1zm409 7 2.5.5-2.5.5zm11 0q2 .5 1.5 3.5h-1l-.5-2.5q-1 2-5 1v-1q4 1 5-1Zm-394 1 7.5.5-7.5.5zm17 0q2.5 1 1 2-1-2-2 0l-3.5-.5zm253 0 9.5.5-9.5.5zm105 0 2.5.5-2.5.5zm-394 1 12.5.5-12.5.5zm276 0 3.5.5-3.5.5zm32 0 11.5.5-11.5.5zm75 0 2.5.5-2.5.5zm-367 1 2.5.5-2.5.5zm252 0 2.5.5-2.5.5zm15 0 5.5.5-5.5.5zm16 0 3.5.5-3.5.5zm204 0 4.5.5-4.5.5zm60 0 2.5.5-2.5.5zm-306 1 3.5.5-3.5.5zm16 0 2.5.5-2.5.5zm50 0 13.5.5-13.5.5zm28 0 6.5.5-6.5.5zm147 0 3.5.5-3.5.5zm21 0 6.5.5-6.5.5zm32 0 4.5.5-4.5.5zm-509 1 .5 3.5h-1zm169 0 2.5.5-2.5.5zm4 0 27.5.5-27.5.5zm49 0 2.5.5-2.5.5zm96 0q2.5 1 1 2l-1-1-1.5.5zm52 0 .5 3.5h-1zm96 0 5.5.5-5.5.5zm51 0 2.5.5-2.5.5zm-309 1 5.5.5-5.5.5zm277 0 5.5.5-5.5.5zm16 0 6.5.5-6.5.5zm-355 1 3.5.5-3.5.5zm14 0 7.5.5-7.5.5zm-31 1 5.5.5-5.5.5zm24 0 2.5.5-2.5.5zm-39 1 5.5.5-5.5.5zm25 0 4.5.5-4.5.5zm233 0 .5 2.5-1.5 2.5-.5-1.5zm-273 1 5.5.5-5.5.5zm25 0 4.5.5-4.5.5zm-37 1 3.5.5-3.5.5zm22 0 4.5.5-4.5.5zm-32 1 2.5.5-2.5.5zm17 0 4.5.5-4.5.5zm-12 1 3.5.5-3.5.5zm-10 1q1 2 2 0l1.5.5-2.5 1.5q-2.5-1-1-2Zm-64 9 3.5 3.5-.5.5-3.5-3.5zm369 0 2.5 2.5-.5.5-2.5-2.5zm-312 1 .5.5-3.5 3.5-.5-.5zm377 1 .5.5-2 2 1 1-2.5 2.5-1-1-2 2-.5-.5 2.5-2.5q1.3 2.3 2.5-.5l-1-1zm-384 5q2.5 1 1 2l-1-1-1.5.5z" opacity=".086"/><path fill="#6c6c6c" stroke="#6c6c6c" d="m81.5 4 2.5.5-2.5.5zm337 0 .5 5.5h-1zm-134 3 3.5.5-3.5.5zm16 0 2.5.5-2.5.5zm-148 2 2.5.5-2.5.5zm61 1 3.5.5-3.5.5zm205 8 .5 2.5h-1zm-356 9 .5 2.5h-1zm0 11 .5 3.5h-1zm358 3 2.5.5-2.5.5zm-360 32 .5 7.5h-1zm-6 96 .5 10.5h-1zm564 21 .5 2.5h-1zm-584 1 4.5.5-4.5.5zm-32 6 .5.5L.5 200l-.5-.5zm614 1 .5 3.5h-1zm-581 28 2.5.5-2.5.5zm17 3 .5 2.5h-1zm584 38 .5.5-4.5 4.5-.5-.5zm-290 5 3.5.5-3.5.5zm7 0 2.5.5-2.5.5zm22 1 4.5.5-4.5.5zm19 0 2.5.5-2.5.5zm187 2 2.5.5-2.5.5zm-314 1 4.5.5-4.5.5zm280 11 .5 1.5q-1 2.5-2 1zm-444 2 2.5 2.5-.5.5-2.5-2.5zm376 6 2.5 2.5-.5.5-2.5-2.5z" opacity=".012"/><path fill="#c9c9c9" stroke="#c9c9c9" d="M434.5 59q5.3-.8 7 2h6q1.2-2.3 2.5.5l-2.5 2.5-1.5-.5-1 2 .5 1.5q-1-2-2 0l-3-1-3 3-2-2q-1.2 2.3-2.5-.5l.5-1.5-1.5-.5q1.8-.7 1-4zm17 1q4.6-.6 6 2l1.5-.5-1.5 1.5q-1.2-2.3-2.5.5l-2 3 .5 1.5q-1.2-2.3-2.5.5l-1 2 .5 1.5-2.5-3.5h2l2-3v-3q-1.7-.7-.5-2.5Zm10 1 3 1 3-1q.5 2.5 4 2 1.5-2.5 3 1l2-1 1 2 4 1 7.5 6.5-.5 1.5 1.5.5-.5 1.5 1.5.5-1 2 .5 1.5-2.5-.5-.5-1.5-1.5.5-1.5-2.5-1.5.5-.5-1.5-1.5.5-.5-1.5-2 1-1-2-2 1-1-2-3 1-3.5-2.5-.5-3.5-1.5.5.5-1.5-4.5 3.5.5 1.5q-1.5-2.5-3 1l-1.5-.5-1-2h2l1-4-.5-1.5 1.5.5zm-14 99 4.5 3.5 1 3-2 2 .5 1.5-1.5.5-.5 1.5q-1-2-2 0l-4 1q-.7-1.8-4-1-2.9 3.6-11 2-2-.5-1.5-3.5l1-3 .5-1.5.5 1.5-.5 1.5 2 1 1.5-3.5q-2-1 0-2l-1-3 15.5-.5zm-10.5 4v2h2zm-55.5 47 10.5.5-10.5.5zm-60 1 3.5.5-3.5.5zm-26 1 9.5.5-9.5.5zm-21 1 2.5.5-2.5.5zm-126 1 22.5.5-22.5.5zm111 0 2.5.5-2.5.5zm-133 1 4.5.5-4.5.5zm92 0 5.5.5-5.5.5zm13 0 9.5.5-9.5.5zm169 1 2.5.5-2.5.5zm188 5 6 1 1-1h7l6 2 3-1 3 2 2-1 3 2 1-1 2 2q1.5-2.5 3 1l3 2q1.3-2.2 2.5.5-.5 3.5 2 4-1.7.7-1 4l1 1v6l-.5 1.5 2.5-.5 1-2-1-1v-8q1-2.5 2-1l-1 3v6l1 3-1 2q2 1 1 5l-2 3 1 2-2 2q2.3 1.3-.5 2.5l-4 3q-1.5-2.5-3 1l-6-1-3 2-2-1-2 3-3-1-4 2h-6l-1-1h-16l-1 1h-8l-5-2h-4l-2 1q-1.7-2.8-7-2l-1 1-2.5-2.5v-8l2-5v-4q-1.7-.7-1-4l2-3q-2-1 0-2l.5-1.5 1 3q2.4-2.1 1.5-7.5l-1-2 2-1-.5-1.5 3.5-2.5.5-1.5 2 1 1-2 2.5 1.5-2 1-.5 2.5-1.5.5 1 2q-2 1-1 5l.5.5 2.5-2.5-1-2 2-2-.5-1.5 2.5-1.5-1-1 2.5-2.5 1.5.5.5-1.5q1.5 2.5 3-1 3-.5 3.5 1.5l-2 2 .5 1.5-1.5.5 1 2q-2.5.5-2 4 .5 2 3.5 1.5l.5-1.5-1-2 2-3-.5-1.5 1.5-.5-.5-1.5zm37.5 10-2 2q-1 4 2 5l2-1-1-5zm-4 19-1 2-2 1 1 3h2l1 2 2-1 1 2 1-2-2-3-1 1q-2-1 1-2l3 1 1-2-5-2q-1 2-2 0Zm-28 5q-2 3-3 1l-3 4-2 1-1 2h3v-1l3-1 1-2 2-1zm8 1q-1 2-4 2l-1 2q-1 2-2 0-2 1-2 4h3v-1h2l1-2h2v-1l3-2zm-24 2-1 2-1-1-1 2h-1l-1 2h3v-1h2l2-2 1 1v-2l-1-1q-1 2-2 0Zm-348.5-35 2.5.5-2.5.5zm-45 6 2.5 1.5-1.5.5-1-1-1.5.5zm-122 1 3.5.5-.5 1.5-3-1zm330 0 6.5.5-6.5.5zm-27 1 4.5.5-4.5.5zm-19 1 2.5.5-2.5.5zm19 2 12 1 1-1h13q1.2 2.2 6 1 1-2 5-1 1.4 2.6 6 2l2-1 1.5 2.5-1.5.5-2-1q-.5 2.5-4 2l-1-1h-7l-1 1h-7l-1 1h-17q-1-2-5-1l-4.5 2.5 8.5.5 1-1h41q2.7 1.3.5 2.5l2 3v2l-1 3q2.5.5 2 4l-1 2 2 3-1 2 2 2q-2.5 1.5 1 3l-.5 1.5-2-1q-1.2 2.3-6 1l-4-2h-4l-1 1h-12q-1-2-2 0h-7l-4-2h-6l-1 1h-23l-1-1h-7l-4 2h-6l-1-1h-7l-5 2h-11l-1-1h-6l-5 2h-6l-1-1h-6q-.7 1.8-4 1l-2-2h-6l-3-1q-.5 2.5-4 2l-2-1-3 2-3-1-3 2-2-1-3 2h-2l-2-1-1 2-3-1-4 2h-5q-1.2-2.3-6-1l-4 2h-5q-1.2-2.2-6-1l-4 2h-5l-1-1h-13l-1 1h-6l.5-1.5-1-1 2-2-1-1 2-4-1-2 2-4-2-4 1-3-1-3 1-1-.5-1.5 4 1q.5-2.5 4-2l2 1 3-2 2 1q.5-2.5 4-2l2 1q.8-2.7 5-2 .8 1.8 4 1l4-2h17q1.2 2.3 6 1 1.7-2.8 7-2l1 1h6l5-2h13l1 1h7l4-2h4q1.3 2.2 6 1l6-2h20q1.3 2.3 6 1l6-2 1 1 2-2q1 2 2 0 2.5-2 8-1l1 1h6l4-2h6q1 2 5 1zm23.5 11-1 4-3 4q-5 1-6-1h-8l-3-2-3 1h-2l-3-2q-5-1-7 2l6 2q3 1 4-1l6 2 2-1q3-1 4 1h6l1 1h1q-1 2-3 1l-4 4q2 1 0 2h3v-1l5-5 1 1 4-2v3q-4 1 0 3l2-1v-2l3-2q1-2 2 0l6-2-1-3-3 2-8-1-2 1 7-6 3 1 2-1-2-1q-1-2-2 0zm-150 5q-2 3-3 1l-3 3v2l2 3 3 1 3-1-1-2-3-1 2-3 5 1 1-1 2 2q1-2 2 0v-2q-3-1-4-3zm167 2-1 2h-1q-3 1-1 3l-3 3h1l4-2v-1l2-1q1-4-1-4Zm-97 3-1 2q-2 1 1 2h16l-1-2h-1l-2-2q-5-1-5 1-3-2-7-1Zm-8 1-2 3q2 3 3 0zm-21 1-5 2h-2l1 2 2-1h9q1 2 2 0-2-4-7-3Zm-51 2-2 5-2 2 3 1q4-2 0-4l2-1zm-19 7-4 3 3 1h5l3-2v-2l-2 1z" opacity=".996"/><path fill="#c9c9c9" stroke="#c9c9c9" d="m303.5 237 3.5.5-3.5.5zm-23 1 2.5.5-2.5.5zm-18 1 3.5.5-3.5.5zm-189 1 4.5.5-4.5.5zm17 0 3.5.5-3.5.5zm147 0 4.5.5-4.5.5zm-21 1 2.5.5-2.5.5zm-158 2h14l1 1h24l3-1 3.5 2.5-.5 1.5-1.5.5.5 1.5-1.5.5 1 2-2 3 1 2-2 3v2q1.8.8 1 4l-1.5.5-3-1-4 1q-.7-1.7-4-1-1.5 3.5-3 1h-2l-3 2h-9q-1-2-5-1l-1 1q-4.7-1.2-6 1l-2.5-3.5 1.5.5 1.5-1.5q.8-3.3-1-4v-9l-1-1v-6zm17.5 2-4 3v2l-1-1-4 2v2h-1v2h-1l-1 3h-1v2l-1 2h3v-1l3-2 1 2 5-3 3 2 2-1 2-3 1 3 3-2-1-2q4-2 1-4l-4 3h-2l3-2-1-3-6 5h-2l2-1q2-1 0-2h2zm15 10-2 2 2 2 3-1-1-2z" opacity=".996"/><path fill="#a4a5a6" stroke="#a4a5a6" d="m428.5 54 8.5.5-8.5.5zm25 1 2.5.5-2.5.5zm-2 23 .5 1.5-2.5 4.5-.5-1.5zm3 10 1.5.5-2 3 2 2-.5.5-2.5-3.5zm35 38 5.5.5-5.5.5zm-38 2 2.5.5-2.5.5zm-75 83 4.5.5-4.5.5zm-58 1 2.5.5-2.5.5zm-28 1 4.5.5-4.5.5zm-145 2 2.5.5-2.5.5zm-25 1 5.5.5-5.5.5zm93 0 4.5.5-4.5.5zm390 6 2.5.5-2.5.5zm-459 1h3l8 4 8 5 5.5 5.5 4 9v15l-1 1v4l-2 5v5q-3 3-3 9l-7.5 8.5-9 6q-3.2-.7-4 1h-13l-1-1h-6l-3-1q-8.4-3.1-13.5-9.5l-6-12q.8-3.2-1-4v-9l4-12 3-5q5.5-9 13.5-15.5l9-6 6-1 1-1h4zm-.5 4-2 1-2 3 4 1h6l7 3q7 5 9 15 1 2 2 1v-3l-2-6-3-5q-4-5-10-8zm15 14-5 10 1 3 3-2 1 1q-2 2-1 7l3 1-2 6h2q3-2 2-9l-3-2 1-1v-6l-3-1 2-6zm-27 6-4 2-5 5-3 7v7l3 6 7 4h7l6-2q5-4 8-11v-8l-1-3-7-7zm-12 33-3 3 1 7 2-6zm33 4-1 2h3v-1zm-28 2-1 11 3 1 3-4 3 5 5-3v-2l-5 1-2-3-1-1q-2-2-3 1l-1-5zm20 5-1 2h3v-1zm142.5-68 5.5.5-5.5.5zm-213 1 5.5.5-5.5.5zm437 0h9l8 3 13.5 12.5 3 4 2 7 3 5v6l-1 1v5l-1 1v5l-1 1-1 6q-5.4 11.1-14.5 18.5l-5 3q-4.7-1.2-6 1h-13l-1-1h-7l-6-2-9-5-3.5-3.5-3-4-3-8v-15l1-1v-4l3-9 3-6 10.5-11.5 8-5 8-2zm4.5 1-1 1-7 1-9 5q-5 4-8 11h2l1-3 6-6q6-1 11-5h8l1-2zm-6 11-3 3 1 1 2-2h6q-1-3-6-2Zm27 6q-3 2 0 3h1zm-28 4-4 2-7 8-2 4v9l2 4q3 5 10 7h9l6-3q5-4 8-11v-9l-1-2-4-5-6-3-3-1zm-22 4-2 3h3v-2zm58 16-2 3-1 7-3 5 1 2 6-11 1-4zm-11 23-7 6 1 1 6-5zm-214.5-63q1.5 1-1 2l-1.5-.5zm80 5 7.5.5-7.5.5zm-29 1 3.5.5-3.5.5zm-21 1 2.5.5-2.5.5zm-15 1 2.5.5-2.5.5zm43 0 15.5.5-15.5.5zm-15 1 2.5.5-2.5.5zm-16 1 3.5.5-3.5.5zm219 0 1.5.5q-1 2.5-2 1zm-258 1 2.5.5-2.5.5zm-24 1 2.5.5-2.5.5zm-17 1 2.5.5-2.5.5zm55 0 2.5.5-2.5.5zm-243 1 11.5.5-11.5.5zm164 0 4.5.5-4.5.5zm46 0 5.5.5-5.5.5zm100 0h6l1 1 17.5.5-34.5.5v-1h9zm-169 1 2.5.5-2.5.5zm55 0 3.5.5-3.5.5zm89 0 6.5 1.5-4.5.5-2-1-2 1v-1zm-115 1 4.5.5-4.5.5zm-41 2 3.5.5-3.5.5zm181 2 2.5.5-2.5 1.5zm11 1q1.5 1-1 2l-1.5-.5zm-223 3 .5 3.5h-1zm-119 1 .5 10.5h-1zm566 0 2.5.5-2.5.5zm-268 1 2.5.5-2.5.5zm20 1 3.5.5q-.7 2.3-4.5 1.5-1.5-1 1-2Zm178 0 .5 4.5h-1zm-173 4 .5.5-2.5 2.5-.5-.5zm-104 2 2.5.5-2.5.5zm-49 5 1.5.5-2.5 1.5q-1.5-1 1-2Zm-136 2 2.5.5-2.5.5zm243 2 3.5.5-3.5.5zm42 0 2.5.5-2.5.5zm238 0 3.5 1.5-3.5.5zm-299 1 4.5.5-4.5.5zm91 0 2.5.5-2.5.5zm-114 1 3.5.5-3.5.5zm278 0 3.5.5-3.5.5zm37 0 2.5.5-2.5.5zm-333 1 4.5.5-4.5.5zm-42 3 2.5.5-2.5.5zm-15 1 2.5.5-2.5.5zm-15 1 2.5.5-2.5.5z" opacity=".996"/><path fill="#343433" stroke="#343433" d="m395.5 0 7.5.5-7.5.5zm-11 1 5.5.5-5.5.5zm-10 1 4.5.5-4.5.5zm-14 1 5.5.5-5.5.5zm-7 1 2.5.5-2.5.5zm-286 1 1.5.5L66.5 7q-1.5-1 1-2Zm278 0 3.5.5-3.5.5zm71 0 .5 16.5h-1zm-336 1 14.5.5-14.5.5zm257 0 3.5.5-3.5.5zm-236 1 3.5.5-3.5.5zm227 0 4.5.5-4.5.5zm-219 1 2.5.5-2.5.5zm205 0 8.5.5-8.5.5zm-249 1 .5 2.5h-1zm52 0 4.5.5-4.5.5zm167 0 19.5.5-19.5.5zm-155 1 6.5.5-6.5.5zm138 0 6.5.5-6.5.5zm-123 1 8.5.5-8.5.5zm16 0 3.5.5-3.5.5zm79 0 6.5.5-6.5.5zm18 0 5.5.5-5.5.5zm-88 1 11.5.5-11.5.5zm48 0 11.5.5-11.5.5zm-30 1 12.5.5-12.5.5zm-123 17 .5 17.5h-1zm351 0 .5 11.5h-1zm0 13 4.5.5-4.5.5zm9 0 8.5.5-8.5.5zm27 0 3.5.5-3.5.5zm10 1 10.5.5-10.5.5zm26 1 4.5.5-4.5.5zm10 2 2.5 2.5-.5.5-2.5-2.5zm3 4 2.5 2.5-.5.5-2.5-2.5zm-437 9 .5 5.5h-1zm-1 14 .5 16.5h-1zm456 3 3.5 3.5-.5.5-3.5-3.5zm5 6 3.5 3.5-.5.5-3.5-3.5zm-462 16 .5 7.5h-1zm-1 14 .5 5.5h-1zm489 5 2.5 2.5-.5.5-2.5-2.5zm-490 5 .5 4.5h-1zm-1 8 .5 4.5h-1zm505 1 3.5 2.5-1.5-.5q-3.8-.7-2-2Zm-506 9 .5 18.5h-1zm555 18 5.5 5.5-.5.5-5.5-5.5zm6 7-.5 1.5-.5 2.5-.5-2.5zm-562 5 .5 5.5h-1zm0 7 .5 14.5-1.5.5.5-1.5zm560 2 .5 9.5h-1zm-583 13 15.5.5-15.5.5zm-23 1 3.5.5-3.5.5zm-5 2 .5.5-3.5 3.5-.5-.5zm610 11 .5 9.5h-1zm4 14 2.5.5-2.5.5zm-611 1 2.5.5-2.5.5zm9 1 7.5.5-7.5.5zm30 0 7.5.5-7.5.5zm-18 1 8.5.5-8.5.5zm25 5 .5 9.5h-1zm585 4 .5 3.5h-1zm0 15 .5 4.5h-1zm-586 4 .5 3.5h-1zm-1 9 .5 4.5h-1zm582 6 .5.5-2.5 2.5-.5-.5zm-170 1 5.5.5-5.5.5zm-410 1 2.5 1.5-1.5.5q-2.5-1-1-2Zm33 0 5.5.5-5.5.5zm368 0 3.5.5-3.5.5zm-383 1 3.5.5-3.5.5zm266 0 7.5.5-7.5.5zm18 0 5.5.5-5.5.5zm91 0 3.5.5-3.5.5zm-348 1 .5 2.5h-1zm230 0 3.5.5-3.5.5zm51 0 18.5.5-18.5.5zm244 0 2.5.5-2.5.5zm-304 1 4.5.5-4.5.5zm245 0 7.5.5-7.5.5zm49 0 5.5.5-5.5.5zm-309 1 8.5.5-8.5.5zm166 0 .5 4.5h-1zm112 0 8.5.5-8.5.5zm13 0 11.5.5-11.5.5zm-338 1 9.5.5-9.5.5zm160 0 4.5 1.5-3.5.5q-2.5-1-1-2Zm8 0 2.5.5-2.5.5zm-175 1 3.5.5-3.5.5zm-15 1 8.5.5-8.5.5zm-15 1 6.5.5-6.5.5zm-15 1 6.5.5-6.5.5zm-14 1 5.5.5-5.5.5zm-12 1 5.5.5-5.5.5zm-7 1 2.5.5-2.5.5zm-7 9 .5.5-3.5 3.5-.5-.5zm311 1 6.5 6.5-.5.5-6.5-6.5zm66 0 .5.5-2.5 2.5-.5-.5zm-382 4 .5.5-3.5 3.5-.5-.5zm327 5 2.5 1.5-1.5.5q-2.5-1-1-2Zm46 0 .5.5-2.5 2.5-.5-.5zm-34 5 2.5.5-2.5.5zm-366 1 2.5.5-2.5.5zm5 0 2.5.5-2.5.5zm366 0 3.5.5-3.5.5zm15 0 2.5.5-2.5.5z" opacity=".498"/></svg>