<svg xmlns="http://www.w3.org/2000/svg" viewBox="0 0 640 320"><path fill="#100f10" stroke="#100f10" d="m371.5 67 2.5.5-2.5.5zm-74 1 2.5.5-2.5.5zm-22 6q2.8 1.3.5 2.5l.5 1.5 1.5.5 2 3-.5.5-5.5-5.5zm33 0h44l1 1h14l1 1h8l1 1 13 1 1 1h4l5 2h4l1 1h4l1 1h4l1 1 10 2-.5-1.5 1.5-3.5.5 1.5-1 1 2.5 2.5 15 3 4 2h3l1 1h3l1 1h3l1 1h3l9 3h3l33 11h3l4 2 7.5 1.5-1 2 1.5.5 1-1h7l6-2q1.5 1-1 2l-12.5 1.5 4 3 .5 2.5h17l1-1 5.5-.5-13-7 1.5-.5 14.5 8.5-1.5-.5-1 1h-6l-1 1h-52v-1h32l1.5-1.5-1.5-2.5-12-4-3-2-5-1-3-2-6-2h-3l-4-2h-3l-4-2-7-1-4-2-7-1-4-2h-3l-1-1h-3l-1-1h-3l-1-1h-3l-1-1h-3l-9-3h-4l-9-3h-4l-5-2h-4l-1-1h-4l-1-1h-4l-6-2-13-1-1-1h-7l-1-1h-15l-1-1h-41l-1 1h-10l-1 1-8 1-7 4-.5-1.5 7.5-3.5 8-1 1-1h8zM519 112v1h2z" opacity=".984"/><path fill="#100f10" stroke="#100f10" d="m279.5 78 2.5 1.5-1.5.5q-2.5-1-1-2Zm33 3h23l1 1h27l1 1h8l1 1h11l1 1 12 1 8.5 3.5 2 3v4l-1 1v4l-7 21-2.5 4.5-.5-1.5 7-19v-3l3-7v-3l-2.5-3.5-3-2q-4 1-5-1h-6l-1-1h-6l-1-1h-9l-1-1h-12l-1-1h-58l-1 1h-4l-6 2v-1l5-2h4l1-1h11zm116 11 1 1 4.5.5-2 1 .5 1.5 3-1v1l-5.5 3.5 1 5h-1l-.5-1.5-.5 2.5 1 2-3 6v2l-2.5 3.5-5.5-.5 1.5-3.5 1 3 1.5-.5 1-2-1-2 2-2q-2-1 0-2l2-4-1-2h2l-1-2 2-1-1-3 1-2q-1.9-.9-.5-3.5Zm13 3 4.5 1.5-2 1 .5 1.5 1.5.5-3 2-1 6-4.5 11.5-1.5-2.5 1.5-3.5 1.5-.5-1-3h2l-1-3 2-3 1-6-2-1zm14 4 7.5 2.5-1.5.5q-.7-1.7-4-1l-.5 1.5 1 2h-2l1 3-4.5 10.5-1.5-.5 1-1v-4l2-3 1-6q-2-1 0-2zm11 3 8.5 2.5-5 1 2 1-3 1-3.5 10.5-2.5-.5 2-1q-2-1 0-2l2-10q-1.7-.7-.5-2.5Zm13 4h3l7.5 2.5-7 1q2 1 0 2l-2.5 5.5-2 1-.5-1.5 2-1-1-3h1l.5 2.5 2.5-4.5q-1-2.5-2-1l-.5 1.5-1-2-3 7-.5-1.5zm-225 5 .5.5-2.5 2.5-.5-.5zm4 2 .5.5-6.5 6.5-.5-.5zm-10 3 .5.5-3.5 3.5-.5-.5zm-92 2 10.5.5-10.5.5zm63 0q3.8-.7 4.5 1.5l-1.5-.5q-4 .8-3-1Zm58 0 2.5.5-2.5.5zm-93 2q3.3-.7 4 1l1.5-.5q-2 1 0 2l1.5 4.5 8.5.5-14.5.5-2-4-2 5-.5-3.5 1.5-2.5 2.5-.5-.5-1.5-2 1v-1zm2.5 1-1 4h1zm49.5-1 .5.5-2.5 2.5-.5-.5zm44 0 1.5 8.5h-1l-.5-2.5-4 3-.5-1.5 4-2zm-182 1 2.5.5-2.5.5zm144 0 .5.5-3.5 3.5-.5-.5zm211 0 20.5.5-20.5.5zm-13 1 9.5.5-9.5.5zm149 0 4.5.5-4.5.5zm-158 1 5.5.5-5.5.5-10 4v-1zm178 0 6.5.5-6.5.5zm-400 1 .5.5-2.5 2.5-.5-.5zm63 0 2.5 2.5-1.5 1.5-3.5-.5zm-180 1 4.5.5-.5 1.5q-4-1-5 1h-9v-1l3-1h6zm535 3 5.5 10.5 3 9v3l1 1v5l-10.5.5q-.7-1.7-4-1l-1 1h-5l-1 1h-5l-1 1h-5l-1 1h-5l-1 1h-5l-1 1h-5l-1 1h-5l-6 2h-5l-1 1h-5l-1 1h-4l-1 1h-5l-1 1h-5l-3 1-1.5-.5 4 12-2.5.5q-5.3-6.7-13-11l-1 1-1.5-.5 9 11 2 6h-1l-3-7-6.5-7.5q-6.8-6.2-16-10l-6-1-1-1h-9l-2-1-1 1-11 1-9 4q-8 4.5-13.5 11.5l-3 4-6 14-1 13 1 1v5l2 6 4 8 10.5 11.5 10 6 6 1 1 1 23.5.5-23.5.5-13-5-11.5-9.5-7.5-12.5-1 3h-11l-1 1h-29l-2.5-3.5 3.5-.5 1 1h8l1-1 29.5-.5-.5-3.5-7.5-.5q2-1 0-2l1-12 4-11 1-6 7-11 4.5-4.5 5.5-4.5-1.5-.5-16 14-.5-1.5 5-11 3-3-2.5-1.5h-13l-1-1-3.5 5.5v2l-8.5 17.5-10 2-1 1h-8l-1 1h-29l-1 1-58 1-1 1h-30v-1h25l1-1h23l1-1h21l1-1h22l1-1h20l1-1h16l3.5-3.5 1-6 1-1v-4l1-1v-4l-3.5-.5-1 1h-7l-1 1h-11l-1-1h-5l-3-1-2 6-1-2h-49l-1 1h-85l-1 1h-25l-9-4h-7l-9 3h-7l-1 1-49.5.5 10 14 3 6 2 8-1.5.5-11-12-.5 1.5q2.9 6.1 8 10v4l9.5 18.5 6 2v-2h6l3-1 1 1h6l1-1h7l1 2 1-1h6l6-2 2 1q1.2-2.3 6-1l2 1q.8-1.7 4-1l1 1h13l1 1h8v-1l-1.5-.5.5-1.5 3 2q1.3-2.3 6-1l1 1h6q1-2 2 0l6-1q1 2 2 0l7-1 1 1 4.5.5-.5 1.5-3-1h-7l-4.5 1.5-.5 1.5h-2l-3 3h-3q-1.7-4.7-10-3l-10 5q-3.2-.7-4 1h-8l-5-2-2 1-2-2-3.5-.5-.5-1.5-9 1-3-1-1.5 1.5-1.5 5.5-3-6q-4-1-5 1l-12.5.5-.5 1.5h-14l-3 1q-.5-2.5-4-2l-7 5-6 2h-4l-10 9-8 4-6 2h-23l-14-6-10.5-9.5-4-6-3.5-8.5-3 1-2-2h-11l-4-2-7-1-3-2q-1 3-6 2l-2.5-2.5.5-.5 3 2 2-2 .5.5-.5 1.5 1.5-.5.5-1.5h8l3 2 1-2 3 1h5l7.5-17.5 2-7q-1-1.5-2 1l-4.5 7.5-1.5-7.5 2-2 7-14 7.5-7.5 2.5-1.5-8.5-.5-1-1-11.5-.5-.5-1.5h-13l-2 1-1-1-9.5-.5 36.5-.5 1-1h21l1-1 11-1 1-1h16l1 1h7l1 1h44l1-1h48l1-1 6 2h17l1-1 70-1 1 1h56l1 1h24l1 1h10l1-1h11l1 1h11l2 1 6.5-5.5-1.5-2.5-3-1h-89l-2 1q-1-2-2 0h-121l-1 1-1-1h-17l-1 1h-33l-1 1-67 1-1 1h-23l-1 1h-19l-1 1h-21q-1.3 2.3-6 1l-2.5 1.5-.5 1.5h-6l-1.5-1.5-.5-1.5-1.5.5-2.5-3.5q-2 .5-1.5 3.5l1 3H9v-2l-2-3q2-1 0-2l-3-7 1.5.5 3-3 .5.5-.5 1.5h4l2-2h2l5-3q1.5 1-1 2l-6.5 3.5q-1.5 6 1.5 7.5l3 1h6l5-2 53-1 1-1h16l1-1h16l1-1h21l1-1h24l1-1h23l1-1h28l1-1h30l1-1h73l1-1q4.7 1.3 6-1h16l1-1h18l1-1h12q.8 1.8 4 1l2-1 5 2 6-3h3l2 2h11l1-1h6l1-1q4.7 1.2 6-1h8l1-1h12l1-1h16l1-1q4.8 1.3 6-1h14l1-1 24-1 1-1h59l1 1h15l1 1h35l1 1q5.4-4.1 7.5-11.5zM488 153q-2 2-6 1l-13 5-4 4 2 1 12-4 10-1 1-1h12l1 1h6l5 2h3l13 7q4 1 5-1l-2-3-12-8-6-2h-3l-1-1zm-387 10-1 1h-9l-1 1-6 1-10 6-7 7-1 3v1l17-10 9-3h4l1-1h19q1 2 5 1l12 5 15 10 7 7-4-8-8-9-14-8h-2l-6-3h-6l-1-1zm428 6q-2 1 1 2v-1zm-428 3-1 1h-3l-6 2-10 6q-7 6-12 14l-4 11v16l2 6 5 9 10 9 9 5 6 2h23l8-3 8-5 6-6 4-6 4-9q-1-4 1-4v-6l1-1-1-1v-7q-2-1-1-4l-5-10q-7-11-19-16l-6-2h-3l-1-1zm46 15-1 2q1 2 2 1zm-82 3-2 3q1 1 2-1zm383 27v1h2zm-215 9-2 2-13 1h6l8 3h4l1 1 9-3q2-1 1-2h-8l-1 1h-5l3-1q0-2-3-2Zm28 1v1h6zm-77.5-98 6.5.5q-1 2.5-5.5 1.5-2.5-1-1-2Zm87 0 2.5.5-.5 1.5-2.5-.5zm-51 2 3.5.5q-1.2 2.8-2.5.5-2.4-.1-1-1Zm31 0 4.5.5-4.5.5zm-119 2 22.5.5-19.5.5-1 1h-9l-1 1h-16l-1 1h-15v-1h15l1-1h11l1-1h11zm-71 4 4.5.5-4.5.5zm13 0 16.5.5-16.5.5z" opacity=".984"/><path fill="#100f10" stroke="#100f10" d="m372.5 137 4 2 10.5.5-11.5.5-3.5-2.5zm-306 1 5.5.5-5.5.5zm-26 3 2.5.5-2.5.5zm-9 1 7.5.5-11.5 1.5v-1q3.2.8 4-1Zm-9 2 3.5.5-3.5.5zm-4 1 2.5.5-2.5.5zm-4 1 2.5.5-4.5 1.5v-1zm-7 3 .5.5-2.5 2.5-.5-.5zm387 9 .5 2.5h-1zm232 0 1.5.5q-2 1-1 5l3 9 .5 7.5 1.5.5-4.5 1.5.5-1.5q-1-5.5 1-8l-3-9zm-616 11 .5 2.5h-1zm1 4 1.5 2.5q-1 1.5-2-1zm4 5 3.5 1.5-1.5.5-2.5-1.5zm9 0 9.5 3.5-6.5 1.5-1.5-.5-.5 1.5-3-2-6.5 2.5 2 1-.5 1.5-2 1 .5-1.5-.5-1.5-3.5-.5 4.5-2.5 5.5-.5-2-1 .5-1.5 1.5.5.5 1.5 3 1q3-1.5 0-3-2.4-.1-1-1Zm367 1 .5 2.5h-1zm100 5 1.5.5-.5 2.5-3.5-.5.5-1.5zm4 0 4.5.5-1.5 2.5-3.5-1.5zm-453 1 2.5 1.5-2.5.5zm348 0 .5 2.5h-1zm112 0 3.5 1.5-2.5 6.5-.5-1.5 1-3-3-1zm-476 1q1 2 2 0l6.5.5-10.5 1.5v-1zm460 0 .5 2.5-3.5 1.5-.5-1.5zm138 0 .5.5-2.5 2.5-.5-.5zm-117 1 4.5 3.5-1.5.5-2-2-1.5.5zm-506 1-.5 1.5q-.7 3.8 1.5 4.5l1.5.5-.5 1.5-3.5-3.5v-3zm620 2 .5.5-9.5 9.5-.5-.5zm-572 1 .5.5-2 2-1.5 2.5-3 1h-15l-1 1-17.5.5 11 12-.5.5L5 195.5l1.5-.5 2 2q1-2 2 0l3-1h5q.7 1.7 4 1l1-1h15q1.3-2.3 6-1zm431 0 1.5.5-1.5 2.5-2.5-.5zm62 0 5.5 6.5 1 3-6 1 .5 2.5q1-2 2 0 4.7 1.3 6-1l4 5 2 1 9.5.5-9.5.5-3-2-2 1q-1-2-2 0l-2-1q-1 2-2 0l-3.5.5-.5 1.5-.5-10.5-2-6h1l1.5 2.5.5-2.5q-1.7-.7-.5-2.5Zm-29 1q2 .5 1.5 3.5-1 2.5-2 1l1-2q-1.7-.7-.5-2.5Zm-411 1 2.5.5-.5 1.5-3 1-.5-1.5zm5 0 3.5.5-.5 1.5-3.5-.5zm6 1 3.5.5-1.5 6.5-.5-3.5-2-2zm-15 1 .5 1.5q-.5 2-3.5 1.5-1.5-1 1-2zm166 0 21.5.5-21.5.5zm213 0 1.5 2.5-1.5 2.5-2.5-.5zm-358 1 3.5 2.5-1.5.5-2-2-1.5.5zm87 1 14.5.5-14.5.5zm309 1 1.5.5 1 3-1.5.5zm-422 1 .5 1.5-2.5 1.5-.5-1.5zm31 2 1.5 2.5-1.5.5zm370 0q4.8-.7 5.5 2.5l-1.5-.5-1 1-5.5-.5zm112 0 2.5.5-2.5.5zm-132 2 2.5.5-.5 2.5-2.5-.5zm-385 1 1.5.5-.5 2.5-2 1-.5-1.5zm504 0 7.5.5-7.5.5zm-76 1 .5 2.5-3.5.5v-1zm-391 1 1.5.5 1 3-1.5.5zm373 0 .5 1.5q-.5 3-4.5 2.5l-3.5-2.5 6.5-.5zm-113 1 2.5.5-2.5.5zm192 1 2.5.5-2.5.5zm-473 1 5.5.5 1 2-1.5-.5-6.5-.5zm370 0 2.5.5q.5 3-1.5 3.5l-1.5-.5zm-388 1 2.5.5-.5 2.5-2.5-.5zm426 1 3.5.5-1.5 3.5-2.5-1.5zm28 0 .5 4.5-5 12q-4.9 8.6-12.5 14.5l-10 6-5 1v-1l9-3 12.5-10.5 8-13zm-520 1 3.5 3.5-.5.5-3.5-3.5zm106 0 1.5.5-.5 2.5-3.5-.5 2-1zm-16 1-.5 1.5-.5 1.5-3 1-3.5-2.5 6.5-.5zm367 1 2.5 3.5-2.5.5-2.5-2.5.5-.5zm33 1q5 2.5 0 5l-2.5-1.5zm-423 1 2.5 1.5-.5 1.5-2 1zm36 2 3.5.5-1.5 2.5-2.5-1.5zm316 0 1.5.5-.5 1.5q-2.5-1-1-2Zm-31 1q2.5 2 8 1l3-1q1 2 2 0l2 1 1-1h11l.5 1.5-18.5.5-1 1h-11l-2.5 2.5q-.5 3.5 2 4l-1.5.5-1-2-1.5.5-1.5-4.5-5.5-1.5 5.5-.5 1-1h5q1.5 2.5 3-1Zm73 0 2.5 1.5-.5 2.5-4.5-2.5zm24 1 2.5 1.5-.5 1.5-3 2-.5-3.5zm-416 1 3.5 2.5-2.5 1.5-2.5-2.5zm261 0q5-1 6 2 1-2 2 0 4 1 5-1l3 1 1-2 6 2 1-1h10q1.2 2.2 6 1l2-1q2.5 1 1 2h-38l-2-1-1 1h-6l-1 1h-13l-.5-1.5q.5-2 3.5-1.5 1 2 2 0l6 1q1-2 5-1 .8 1.8 4 1v-1q-3 .5-2-1Zm-229 1 1.5 2.5q-1.2 2.7-2.5.5l-1.5-.5zm200 0 1.5.5-.5 1.5-3.5-.5zm165 0 3.5 1.5-1.5 2.5-2.5-1.5zm14 0q2 .5 1.5 3.5l-3.5.5-.5-2.5zm-213 1 5.5.5-1.5 2.5-4.5-1.5zm9 0 1.5.5-2.5 1.5q-1.5-1 1-2Zm4 0 12.5.5-5.5.5-1 1q-1.2-2.3-6-1zm193 0 2.5 1.5 1 2-1.5.5-2-1-1.5.5q-.5-3 1.5-3.5Zm-399 2q2 .5 1.5 3.5l-.5.5-2-2-1.5-.5zm22 1 3.5 1.5-3.5 2.5-1.5-2.5zm205 0 3.5.5-3.5.5zm-43 1 5.5.5-5.5.5zm-179 1 2.5 1.5q-.5 2-3.5 1.5l-.5-1.5zm12 0 1.5.5-.5 3.5-2.5-.5q-.5-3 1.5-3.5Zm-6 1 2.5 1.5-.5 1.5-3.5-.5z" opacity=".984"/><path fill="#474747" stroke="#474747" d="m329.5 66 25.5.5-7 1 14.5.5q1-2 5-1v1l-4.5.5 8.5.5 1 1h9l1 1h10l1 1h8l1 1 12 1 2-1v1l-1.5.5 4.5.5 2-1v1l-1.5.5 3.5.5 2-1 1 2 1.5-.5-1.5 2.5-13-1-1-1h-8l-1-1h-8l-1-1h-8l-1-1h-7l-1-1h-8l-1-1h-8l-1-1h-8l-1-1h-7l-1-1h-6l-1-1-19.5-.5 12.5-.5z" opacity=".996"/><path fill="#474747" stroke="#474747" d="m375.5 68 2.5.5-2.5.5zm10 1 3.5.5-3.5.5zm11 1 3.5.5-3.5.5zm8 1 2.5.5-2.5.5zm-88 4 3.5.5-3.5.5zm29 0 2.5.5-2.5.5zm0 10 8.5.5-8.5.5zm31 2 3.5.5-3.5.5zm10 1 2.5.5-2.5.5zm8 1 2.5.5-2.5.5zm32 2q2.8 1.3.5 2.5l1 4h-1l-.5-1.5-.5 2.5 1 3-3.5 9.5q-.1-3.4-2.5-4.5l3 1q.5-3.5-2-4l3 1-.5-2.5-1.5-.5 2-7 2-2zm-.5 8-1 3h1zm-148.5-2 1 2 1.5-.5-2.5 2.5-.5-.5.5-1.5-1.5-.5zm175 0 3.5 1.5-2.5.5q-2.5-1-1-2Zm-180 4 .5 1.5-6.5 4.5v-1l1.5-.5.5-1.5zm181 0 1.5 2.5h-3zm17 4 2.5 1.5-1.5-.5q-2.4-.1-1-1Zm-33 1q2.5 1 1 2l-1-1-1.5.5zm-17 2 1.5 2.5q-1 1.5-2-1zm-158 1 1.5.5-2.5 1.5q-1.5-1 1-2Zm4 0 .5.5-2.5 2.5-.5-.5zm170 0q2.5 1 1 2l-1.5-.5 1 4-1.5 2.5-1.5-.5q1.7-1.8 1-6zm55 1 .5 6.5-2.5 2.5-.5-.5 2-2zm32 1 1.5.5-.5 1.5q-2.5-1-1-2Zm-263 1 1.5.5-2.5 3.5-1-1-3 3-.5-.5 3.5-3.5q1.3 2.3 2.5-.5zm162 0 .5 2.5-1.5 3.5-.5-2.5zm-148 4 1.5.5-2 1 .5 1.5 1.5-.5-3 4 .5 1.5q-2.8-1.2-.5-2.5l1-2-1-2zm179 0 .5 1.5q-.5 2-3.5 1.5v-1l2.5-.5zm28 0 1 1 5.5.5-5.5.5q-2.5-1-1-2Zm-19 1q2.5 1 1 2l-8.5-.5 6.5-.5zm-281 1 4.5.5-4.5.5zm248 0 3 1 1.5-.5.5 1.5h7l2-2 1.5 2.5-12.5.5q-.7-1.7-4-1v1l2.5.5-11.5.5-2.5-1.5 1.5-.5 1 1h7v-1l-6.5-.5 8.5-.5zm-293 1 8.5.5-8.5.5zm84 0v2l2-1 .5.5-2 2-2.5 3.5-1.5-.5 3-2-.5-2.5-2.5 1.5-1.5 2.5h-2l-3 2q-3-1.5 0-3l2 1 2.5-1.5.5-1.5 1.5-.5-.5-1.5q1 2 2 0zm18 0 .5.5-2 2 .5 1.5-1.5-1.5zm284 0 2.5.5-2.5.5zm40 0 5.5.5-5.5.5zm-447 1h5l1 1 5.5.5-7.5.5q-.7-1.7-4-1zm345 0 3.5.5-3.5.5zm-356 1 3.5 1.5-3.5.5zm145 0-.5 1.5-1.5 2.5-.5-1.5zm198 0 2.5.5-2.5.5zm35 0 4.5.5-4.5.5zm12 0 35.5.5-35.5.5zm40 0 10.5.5-10.5.5zm-440 1 2.5.5-1 1 .5 1.5-3.5-1.5zm86 0 1.5.5-1.5 2.5zm278 0 9.5.5-9.5.5zm95 0 27.5.5-27.5.5zm-466 1 2.5.5-1.5 1.5h-6l-9 3v-1l9-3h4zm28 0 2.5.5-2.5.5zm484 0 2.5.5-2.5.5zm-354 3 2.5 1.5-.5 1.5-1-1-1.5.5 1-1zm-29 1q.8 1.8 4 1l1.5 1.5-1.5.5-3-1q-2.5-1-1-2Zm-126 1 3.5.5-3.5.5zm76 0 14.5.5.5 3.5 1.5.5q-3 3-10.5 1.5v-1l8.5-.5-1.5-2.5h-31l-1 1h-23v-1h21l1-1h19zm21 0 2.5.5-2.5.5zm6 0h9l1.5 1.5-3 1-.5 1.5-2-1q-1 2-5 1v-2l-1.5-.5zm20 0 1.5 2.5-1.5.5-3.5-1.5zm36 0 4.5.5-4.5.5zm157 0 10.5.5-10.5.5zm-324 1 4.5.5-4.5.5zm31 0 2.5.5-2.5.5zm168 0 2.5 2.5-.5.5-6.5-.5 5-1zm114 0 2.5.5-2.5.5zm-332 1 1.5.5-4 2 .5 1.5-3-1-5.5 2.5 3 2-2.5.5-3.5-2.5zm38 0 2.5.5-2.5.5zm-12 1 2.5.5-2.5.5zm21 0 6.5.5-6.5.5zm113 0 1 2 1.5.5-2.5.5zm7 0q.7 1.8 4 1l1.5-.5-.5 1.5q-5.5 1-5-2Zm39 0 2.5 1.5-5.5.5v-1zm129 0 .5 3.5h-1zm-320 1 2.5.5-2.5.5zm21 0 5.5.5-5.5.5zm147 0 8.5.5-8.5.5zm-181 1 4.5.5-4.5.5zm23 0 4.5.5-4.5.5zm36 0 3.5.5-3.5.5zm-47 1 4.5.5-4.5.5zm36 0 2.5.5-2.5.5zm23 0 3.5.5-3.5.5zm-72 1 5.5.5-5.5.5zm35 0 4.5.5-4.5.5zm28 0 2.5.5-2.5.5zm267 0 .5 2.5-2.5.5-.5-.5zm-312 1 4.5.5-4.5.5zm30 0 6.5.5-6.5.5zm-18 1 5.5.5-5.5.5zm126 0 .5 2.5h-1zm177 0 .5 5.5-1.5 3.5-.5-3.5 1-1zm117 0 2.5.5-2.5.5zm42 0 3.5.5-3.5.5zm-495 1 2.5.5-2.5.5zm15 0 5.5.5-5.5.5zm301 0 7.5.5-7.5.5zm112 1 2.5.5-2.5.5zm101 0 5.5.5-5.5.5zm-547 1 6.5.5-5.5 1.5q-2.5-1-1-2Zm433 0 3.5.5-3.5.5zm-23 2 6.5.5-6.5.5zm-420 1 2.5.5-2.5.5zm186 0 .5 3.5h-1zm216 0 3.5.5-3.5.5zm-9 1 2.5.5-2.5.5zm-88 4 4.5.5-4.5.5zm-18 1 2.5.5-2.5.5zm-15 1 5.5.5-5.5.5zm-84 1 2.5.5-2.5.5zm-19 1 7.5.5-7.5.5zm-27 1 6.5.5-6.5.5zm-27 1 7.5.5-7.5.5zm-134 1 .5 4.5h-1zm109 0 6.5.5-6.5.5zm-17 1 4.5.5-4.5.5zm-16 1 4.5.5-4.5.5zm166 0 2 1 1-1h134l.5 3.5-1.5 1.5h-21l-1-1h-50l-1-1h-47l-1 1h-34l-1 1h-13q-.7-1.8-4-1l-1.5-1.5.5-1.5h37zm140 0 39.5.5v2l-3.5 3.5-3 1-1-1h-32l-1.5.5q-.7-4.7 1.5-6.5Zm235 0q3 1.5 0 3l-1.5-.5zm-563 1 6.5.5-6.5.5zm113 0 35.5.5-.5 2.5q-1-2-2 0h-51q-.7 1.8-4 1l-2-1-3 1h-34l-1-1-7.5-.5 34.5-.5 1-1h33zm-141 1 6.5.5-6.5.5zm42 2 11.5.5-4.5.5-1 1h-4l-1 1h-44v-1l42-1zm543 0 1.5 7.5 1 1v11l-9 12-5.5 5.5-13 6h-11l-9 4h-13l-1 1h-8l-5.5-4.5-1-3-8-9-.5-2.5-3 2 .5-1.5-1-1 .5-1.5 1.5-.5-3-2-8-12 .5-.5 2 2 1-1 6 6 3 2h3l-.5-1.5-2-6h1l1.5 2.5 4-2 11-1 1-1 10-1 1-1h5l6-2h5l1-1h5l1-1h5l1-1h5l1-1q4.8 1.3 6-1h6l.5 5.5q-3.5 2.5-4 8l2.5.5 1-2 .5 1.5-5 7q2.5 1.5-1 3l-4.5 5.5q-.8-1.8-4-1l-6 5-5 2h-16l-5 2h-10l-6 2-2.5 2.5q1.3 2.8 6.5 1.5 1-2 5-1l1 1h11v-1l-9.5-.5 4.5-1.5h9q1 2 2 0 3.3.8 4-1h7l2-2h3l7-4 1 2 3.5-2.5.5-1.5 3.5-2.5 10-13v-10l-2-4zm-616 1 5.5 3.5.5 1.5q4.5-1 5.5 1.5l1 5 2 3-2.5.5-2-1-2 3-5.5-4.5-1-7-2-4zm4.5 9-1 3h1zm474.5-9 7 1 2-1 3 1 3-1 1 1 4.5.5.5 1.5 2-1 3.5 1.5.5 1.5q1-2 2 0l1.5.5.5 1.5q3-.5 3.5 1.5l.5 1.5 1-1 3.5 3.5 1.5 2.5 4.5 3.5-.5 1.5 2.5 1.5-.5 1.5 1.5.5q-2.5 1.5 1 3l1 2q-2 1 0 2l1 2-.5 1.5 1.5.5-1 3 2 4v4l-2 3v2q2.5 1.5-1 3l1 2-2 1 1 2-2 1q2 1 0 2-4.9 11.6-14.5 18.5l-12 6h-29q-12.7-4.3-20.5-13.5 2.2-1.2-.5-2.5l-2.5-1.5.5-1.5-2.5-1.5-1-2 .5-1.5-1.5-.5-1-3q2.5-1.5-1-3l-1-7 1-3-1-3q1.8-.7 1-4l-1-3 2-1-1-2 2-6 3.5-5.5 1.5-.5q-2.2-1.2.5-2.5l1.5-.5.5-1.5 1.5-.5-1-1 3.5-3.5 3.5-1.5.5-1.5 1.5.5 1.5-2.5 1.5.5.5-1.5 2-1 1.5.5.5-1.5q1.5 2.5 3-1 1.8-1.7 6-1zm-.5 3-9 3v1l6-2h3l1-1 13 1h-10l-5 4h-4l-6 2-7 4-5 5-3 6-2 11-1 1 2 14 2 3h2q2 2 3 6l2-1-1 2 2 3 2-1 3 5 4 2q1 2 2 0v2l2-1v2l4 1 2-1v2h13v-1h2l4-1v-1h2v-1h2l2-1 2-3 4-4 1 1v-1q3-2 1-3h2l2-5h2l2-4v-6l1-1v-4l-3-9v-1l-2 2h-1l2-2-1-3 1-4-13-13-4 1-1-3-3-3h-2v-1h3l4 2h2l-8-4zm-13 5-2 1q-3 1-1 2l4-2zm44 1q-2 1 1 2h1zm-51 2-1 3-6 7-4 3 2 2q4-9 12-14l-1-1q-1 2-2 0Zm54 0-1 1 4 3h1zm6 5-1 2 4 3zm4 5-1 2q1 2 2 1zm-74 5-3 5-1 8-1 1v8q2 1 1 5h1v-6l-1-1q-1-4 1-4v-6l3-7zm77 0q-2 3 0 5h1zm2 5-1 3h1zm1 3-1 7 1 1-1 11-3 8-4 6-9 9-3 1q-1 2-2 0-5-1-6 1l-1 2q-1 3-5 2l-3-1-2 1q-1-2-2 0l-6-2-3 2q-1-2-2 0-1-2-4-1l-1-1q-1-3-2-1l-7-3-2-2-2 1 10 7 6 2h3l1 1h18l7-3 2 1 14-11 5-7v-2l4-9v-4l1-1v-9l-1-1zm-82 19-1 4h1zm1 4-1 3q1 2 2 1zm4 8-1 2 3 2zm4 5-1 2 3 1zm-361.5-69 7.5.5-7.5.5zm-74 1 6.5.5-6.5.5z" opacity=".996"/><path fill="#474747" stroke="#474747" d="m23.5 166 2 1 12.5.5-2 1q-.5 3 1.5 3.5l5 1 1.5-.5-.5 1.5 2-1v2l6.5-2.5-.5-1.5 2 1v-2l2 1 1-2h12l3 1 1.5-.5-8 7-10 18v8l1.5.5 4-7 .5 2.5-7.5 18.5h-20l-3.5-2.5-2-16 9.5-.5 1-1h7l4.5-4.5v-3l-3.5-3.5q-3.5.5-4-2l-15.5-.5 8-1-.5-1.5-9.5-3.5-3-9zM37 182v1h5zm17 14-1 6h1zm-24 3v1h4zm5 16v1h18zm604.5-49 .5 4.5h-1zm-539 2 3.5.5-3.5.5zm5 0 5.5.5-5.5.5zm332 0 1 2q3.3-.7 4 1h6l1 1 2-3-.5 1.5-1 5-3 6 1.5.5 14-13 .5.5-9 9-5 8-5.5 19.5h-41l-1 1h-12l.5-1.5.5-8.5h22l1-1h7l3-1 4.5-4.5v-3zm-4.5 13-3 6 8 2h3l1 1h4l1 1 1-5-8-1-6-2zm13 11-1 3h1zm-3 10-1 3h1zm-18 2v1h16z" opacity=".996"/><path fill="#474747" stroke="#474747" d="M395.5 170h4l1 1h5l3 1 1-1h9l1-1h6l1.5 2.5-1 1-2 11-2.5 3.5h-6l-1 1h-21l-2 1-.5-3.5 1-1 1-11 1.5-1.5-.5 1.5.5 4.5 1-4 3-1h8l6 3h2l7.5 5.5.5 1.5 1.5-6.5-8-4 2-1-7.5-.5q-1 2-5 1l-1-1-9-1zm27.5 1v1h2zm-4 15v1h2zm-22 1v1h11zm-293.5-15h9l4 2 2-1 1 2 2-1 6 3h2l1.5 1.5.5 1.5q1.3-2.2 2.5.5l.5 1.5 1-1 3.5 3.5.5 1.5 4.5 3.5-.5 1.5 2.5 1.5-.5 1.5 1.5.5-1 1 3 3-1 2 2 2q-2.5 1.5 1 3l-1 7 1 2q-2 1 0 2l-1.5 6.5-1.5.5 1 2q-5.1 12.9-15.5 20.5l-12 6h-27l-6-2-10.5-7.5-.5-1.5-4.5-3.5-2-3 .5-1.5-1.5-.5-.5-2.5-1.5-.5-1-3q2.5-1.5-1-3l-1-6 1-3-1-1 1-3-1-3 2-3-1-2 1.5-3.5 1.5-.5-.5-1.5 1.5-.5q-2-1 0-2l2.5-4.5 2.5-1.5v-2l3.5-3.5 3.5-1.5 1.5-2.5 2-1 1.5.5.5-1.5 2-1 1.5.5.5-1.5 1 1q1.5-3.5 3-1l1.5-.5.5-1.5 3 1zm-3.5 3-6 2v1l6-1 1-1 13 1h-9l-6 4h-5l-6 2-6 4-7 11-1 7-1 1v7l1 1 1 7 5 4h1l-1 2 2-1-1 2 1 2 2-1-1 2 7 6 1-1v2l6 3 2-1 1 2 3-1v2h10q1-4 3-1l4-1 1-2 2 1 1-2h2l1-2h2l4-4-1-1 2-1q2-2 3-5h2l-2-3 1-1 2 2 1-2q-1-5 1-6v-5l-3-9h-1v-1l-1-2 2-3-9-10-4-2h-5l1-2-5-3v-1q3-1 4 1h2l-6-3zm-9 3-4 2q-3 1-1 2l7-3zm33 0v1l6 3h1l-5-4zm-40 4-3 3h1l3-2zm48 0-1 1 3 2h1zm-52 3-3 4h1l3-3zm-3 4-5 4v2l-3 6-1 7-1 1v9l2 5v3l5 9q6 8 16 13l6 2h3l1 1h18l1-1 6-1 8-5 10-10 5-12q-1-5 1-6l-1-11-4-10q-1-3-2-1l5 12v14q-2 0-1 4l-7 12-8 7-10 2-1 2q-2 3-8 2-1-2-2 0l-2-1q-5-1-5 1l-7-1-4-3-5-1-3-2-9-8-4-7-2-6v-15q2-1 1-4l4-8 3-3zm63 0-1 2 3 2zm-40 58v1h2zm113.5-75 4.5.5 1 24-19.5.5-1 1h-14l-1 1-4.5.5q1.3 2.8 2.5.5h11l1-1h13q1.2-2.3 6-1l7.5 2.5 1 6 1 1v5l2 4 1 6-1.5-.5-2 2q-3.2.8-4-1h-20q-.7 1.8-4 1l-3-1-5 2-1-1h-6l-1 1-9 1-2.5-2.5-8-18 1-1-4-4-4-6q1-1.5 2 1l6.5 7.5 4 2 .5-2.5-6-14-9-12 1.5.5 14-1q1 2 2 0h14l2-1 1 1h14l1-1h8zm-8.5 23v1h10zm-15 1v1h3zm6 4v1h19zm-10 1v1h6z" opacity=".996"/><path fill="#474747" stroke="#474747" d="M219.5 172h2l9 4h20l2-1q.8 1.8 4 1l1-1h78l3-1 2 1 1-1h49l.5 6.5-1 1v5l-1.5 3.5h-16l-1 1h-21l-1 1h-21l-1 1h-22l-1 1h-25l-1 1h-29l-1 1h-26l-1 1-.5-7.5-1-1v-15zm164.5 3-12 6-12 8h-8v1h14l3-1 5-4 14-7 2 1v-3zm-10 13v1h12zm-44 2v1h12zm-22 1v1h12zm-22 1v1h12zm-22 1v1h8zM71.5 174l.5.5-2.5 2.5-.5-.5zm422 0 6.5.5-6.5.5zm13 0q3-.5 3.5 1.5-1 2.5-2 1l-.5-1.5q-2.4-.1-1-1Zm-496 11q4.5-1 5.5 1.5l-4.5 3.5-1-2-1 4-2-1-1 2-4.5-4.5 1.5-1.5-.5 1.5 1.5 1.5 2-1 2 2 .5-.5q-.5-3 1.5-3.5l4.5-.5-4.5-.5zm14 0q2.5 1 1 2l-1.5-.5zm6 0 3.5.5-3.5.5zm-6 6 7.5.5-6.5.5-1 1zm12 0 5.5.5-5.5.5zm-16 1 2.5.5-2.5.5zm366 0 2.5.5-2.5.5zm-30 1 2.5.5-2.5.5zm-258 1 1.5.5-.5 1.5q-2.5-1-1-2Zm228 0 2.5.5-2.5.5zm-298 1 9.5.5-9.5.5zm266 0 3.5.5-3.5.5zm99 0 13.5.5-13.5.5zm-134 1 4.5.5-4.5.5zm90 0 14.5.5-14.5.5zm-124 1 4.5.5-4.5.5zm77 0 18.5.5-18.5.5zm68 0 16.5.5-1 1-.5 7.5h-14l-1 1q-.7-1.7-4-1l-1 1h-24v-1l9.5-6.5-6.5-.5-10 7q-2.2 1.8-7 1l-1 1h-31l-1 1h-46l-1 1h-23l-1.5-2.5-1-7 54.5-.5 1-1h49l1-1h42zm-350 1 6.5.5q-2 1 0 2v6l1 1v5l2 6-.5.5-3-3-1.5.5 1-1-6.5-6.5q-1.2 2.3-2.5-.5 2.2-1.2-.5-2.5l-1 1-2.5-2.5 1-2-3-3 .5-.5h8zm233 0 15.5.5-15.5.5zm290 3 2.5.5-1.5 1.5q-2.5-1-1-2Zm5 1 2.5.5q-.7 2.3-4.5 1.5v-1zm-20 1 .5 5.5h-1zm-28 1 .5 2.5h-1zm9 0 3 2 1-2 1 1 1.5-.5q-.5 3-4.5 2.5l-2.5-2.5zm15 2 1.5.5 1 4-1.5.5v-2l-1.5.5-.5 2.5-1.5-.5q1.8-.7 1-4zm-109 1h12l1 1 14.5.5q1.1 6.1-1.5 8.5l-2 1h-21l-1 1-65 1-1 1h-37l-1 1h-49l-1 1h-36l-1.5-2.5-1-6 27.5-.5 1-1 48.5-.5-49.5-.5-1 1h-27v-1h10l1-1h42l1-1h50l1-1h41l1-1h24v1l-2.5.5 35.5.5v-1l-26.5-.5 12.5-.5zm26.5 2-1 3h1zm-96 1v1h38zm-43 1v1h41zm20 2-10 6h-2q-3 1-1 2l10-1 10-6zm151.5-4 .5 2.5h-1zm-353 2 1 2 3-2 .5 1.5-3.5 1.5q-2.4-.9-1-3Zm-34 4 .5 3.5h-1zm37 2 2.5.5-2.5.5zm324 2 2.5.5-.5 1.5q-1-2-2 0l-6.5-.5 5.5-.5zm-10 1 2.5.5-2.5.5zm-9 1 7.5.5-7.5.5zm14 1 6.5.5-6.5.5zm-38 1q3-.5 3.5 1.5l-1.5-.5q-3 .5-2-1Zm0 4 2.5 1.5-1.5.5q-2.5-1-1-2Zm-177 1 3.5.5-.5 1.5 5-1 3.5 1.5-4.5 1.5-1-1-8.5-1.5zm12 0 5.5.5-4.5 1.5q-2.5-1-1-2Z" opacity=".996"/><path fill="#808181" stroke="#808181" d="m355.5 67 3.5.5-3.5.5zm11 1 5.5.5-5.5.5zm10 1 6.5.5-6.5.5zm10 1 6.5.5-6.5.5zm11 1 4.5.5-4.5.5zm8 1 3.5.5-3.5.5zm6 1 2.5.5-2.5.5zm-90 2 6.5.5-6.5.5zm18 0 4.5.5-4.5.5zm19 1 3.5.5-3.5.5zm70 0 3 2h3l1 1 15 3 4 2 7 1 34 12h3l35.5 13.5-7.5 2.5-5-3-11-2-36-12h-3l-1-1h-3l-1-1h-3l-1-1h-3l-1-1h-3l-1-1h-3l-1-1h-3l-1-1h-3l-9-3h-4l-3.5-2.5zm-111 1 4.5.5-4.5.5zm13 0 5.5.5-5.5.5zm40 0 2.5.5-2.5.5zm-8 1 2.5.5-2.5.5zm-88 1q3 .5 2.5 4.5l-4.5 5.5q-4-.5-4.5 2.5l-1.5 2.5-3.5 1.5-3.5 4.5-17 14q-4-.5-4.5 2.5l-.5 1.5-2-1-3 4-2.5.5-3.5 4.5-1.5-.5-.5 1.5-5.5-.5-.5-1.5-4.5 1.5 2 1-4.5 1.5-.5-1.5 2.5-2.5 4.5-1.5 2.5-3.5.5.5-2 2 1.5 1.5 3-4 1 1 2.5-2.5 2.5-3.5 1 1 2.5-2.5 1.5-2.5 1 1 2.5-2.5 1.5-2.5 1 1 2.5-2.5 1.5-2.5 1 1 2.5-2.5 1.5-2.5 1 1 2.5-2.5 1.5-2.5 1 1 2.5-2.5 2.5-3.5q1.3 2.3 2.5-.5l2.5-3.5 1 1 2.5-2.5 1.5-2.5 1 1 2.5-2.5zm40 5h21l1 1 8 1 1 1h6l1-1q4.2.7 6-1l3 2h9l2-1q1.6 2.9 6 3l4-2q1.5 3.5 8 2l1.5-.5.5 1.5 3 1 3-2 4.5 3.5q-1.2 4.8 1 6l-2 1 1 3-3 2 1 2q-3.5 1.5-1 3l-.5 1.5-1.5.5 1 2-2 1 2 2-.5.5-2.5.5 2 2-.5.5-2.5.5 1 2-2.5 3.5-6.5.5 5 1-24.5.5-1-1h-25v1l6.5.5-18.5.5-1-1h-16v1l4.5.5-9.5.5-3-1-22.5-.5 2-1-.5-1.5-1.5-.5 1-4-2-1 1-4q-2.5-.5-2-4l2-4-.5-1.5 1.5-.5-.5-1.5 1.5-.5-.5-1.5 1.5-.5-.5-1.5 1.5-.5-1-2 2-1-.5-1.5 1.5-.5-.5-1.5 1.5-.5-.5-1.5 1.5-.5-.5-1.5 2-1q1 2 2 0l1.5-.5.5-2.5 2 1 1-1h8l1-1h6zm112 6 3 1 1.5-.5-.5 1.5-4-1zm7 1 4.5 1.5-5.5.5q-1.5-1 1-2Zm7 2 4.5 1.5-2.5.5-2.5-1.5zm6 2 2.5.5-2.5.5zm-166 3 1.5.5-.5 1.5q-2.5-1-1-2Zm171 5 1 1 1.5-.5-.5 1.5q-3.8-.7-2-2Zm-30 1 1.5 2.5h-1zm61 1 2.5.5-2.5.5zm-228 1-.5 1.5-2.5 3.5.5-1.5zm16 0 .5.5-2.5 2.5-.5-.5zm180 0 2.5 2.5-.5.5-2.5-2.5zm-41 1q2.5 2 8 1l1.5-.5 1.5 2.5.5-1.5-.5-1.5 1.5 2.5-2.5 4.5-1.5-.5.5 2.5 1.5.5-1.5.5-1.5-.5q-1 4.5 1.5 5.5h10l1.5 1.5-1.5-.5-3 1-1.5-.5 1 2-1.5-.5h-3l-4 2h-15l-.5-1.5 2-3 2-8 2-2-.5-1.5 1.5-.5-1-2h2zm9.5 3-1 2q1 2 2 1zm18.5-3 .5 2.5h-1zm53 0 2.5 1.5-1.5-.5q-2.4-.1-1-1Zm4 3 5 2h4l4-2v2l3-1v2l4 1 1.5-.5.5 1.5 2-1v2l2-1 1 2 2-1 .5 2.5-6.5.5-1 1h-27q-2-.5-1.5-3.5h1l.5 2.5 1.5-.5-1-4h1l.5 2.5 1-6 1 2zm-246 1 .5 1.5-3.5 3.5-.5-.5zm15 1 .5.5-2.5 2.5-.5-.5zm185 1 2.5 1.5-1.5.5q-2.5-1-1-2Zm-189 1 .5.5-2 2-3.5 4.5-8.5 6.5.5 1.5-2.5-1.5-1-2 1.5.5 1-1 1 1 5.5-5.5-1-1 2.5-2.5v2zm289 1 2.5 1.5-1.5-.5q-2.4-.1-1-1Zm-306 1 .5 1.5-3.5 3.5-.5-.5zm219 0 2.5.5-2.5.5zm-7 1 2.5.5-2.5.5zm11 1 3 1 1-1h8l1 1 6.5.5-22.5.5v-1zm93 0v2l3-1v2h10q.8-1.7 4-1 1.5 1-1 2h-16l-4.5-1.5q3.4-.1 4.5-2.5Zm-410 1h22l1 1 11.5.5-20.5.5-1-1h-13zm70 0 .5.5-2.5 2.5-2 1q-1.5-1 1-2z" opacity=".996"/><path fill="#808181" stroke="#808181" d="M419.5 119q2.5 1 1 2l-1.5-.5zm25 0 14.5.5-.5 1.5-6-1-1 1q-4.2-.7-6 1v-2q-2.4-.1-1-1Zm-322 1 8.5.5-8.5.5zm301 0 2.5.5-2.5.5zm127 0 2.5.5-5.5 1.5v-1zm-443 1 8.5.5-8.5.5zm324 0 5.5.5-2.5 1.5-3-1zm-331 1 2.5.5-2.5.5zm370 0 74.5.5-74.5.5zm113 0 1.5.5-.5 1.5-10.5-.5 8.5-.5zm-349 1 .5 1.5-2.5 1.5-.5-.5zm357 0 6.5.5-6.5.5zm-25 2h20l1 1h4l1 1q4.8-.8 7 1 1.3-2.2 2.5.5l-.5 1.5-6 2h-8l-1 1-1-1h-13q-.7 1.8-4 1l-1-1h-23l-1 1h-28l-1 1-19 1-1 1h-7l-1 1h-10l-.5-3.5q2.7-2.8 9.5-1.5.7 1.8 4 1l2-1 1 1 3-1h6l1-1q4.7 1.3 6-1h6l1-1q4.8 1.3 6-1h9l1-1q5.5 1 8-1 1 2 2 0 4.8-1.3 6 1h13zm-325 1 .5.5-4.5 4.5.5-1.5 1.5-2.5zm10 1 2.5.5-2.5.5zm-60 1 2 4 7.5-.5.5-1.5 3.5-.5-.5-1.5 3.5.5q-2.2 1.3.5 2.5l1.5.5.5 1.5 6.5-.5-2-1 1.5-.5 2 2 4.5.5q-1.8.8-1 4l1.5-.5q2.2 1.8 7 1 1-2 2 0h8l3 1q1-2 2 0l9 2q1.3-2.2 2.5.5-1.2 2.8-2.5.5l-2 2-7 3-2 2h-16q-1.2 2.3-6 1l-.5-4.5-2.5-5.5-.5 4.5 2 5h-1l-1.5-3.5-1 4-11 1q-1-2-2 0l-47 1-1 1h-24l-1 1h-19l-1 1h-15l-1 1h-18l-1 1h-28l-1 1h-10v-1h3l2-2h3l6.5-3.5-1.5-2.5h-6l-1 1-2-1-1 1h-9l-2 1q-3-1.5 0-3l8-2q1 2 2 0 3.3.8 4-1h8l1-1h13l1-1h10l1-1q1 2 5 1l1-1h15l1-1q1 2 5 1l1-1h15q1-2 5-1l2 1 1-1h14q.8-1.7 4-1 1 2 5 1l1-1h20l1-1h15l1-1 1 1h6l1-1h22l3 6 .5-4.5-2-3 .5-1.5-29-1v1l7.5.5-8.5.5-2-1-3 1-3.5-1.5q1.4-2.1 5.5-1.5l3.5-2.5zm15.5 2-1 2h2q1-1-1-2Z" opacity=".996"/><path fill="#808181" stroke="#808181" d="m229.5 128 .5 3.5-5.5 1.5-.5-1.5q4.2-.3 5.5-3.5Zm-81 2h30l1.5 1.5-.5 1.5h-11q-.7-1.7-4-1l-1 1h-26q-1-2-5-1-1 2-2 0l-6.5.5-.5 1.5-10-1-1 2q-4 1-5-1h-8l-1 2-16.5-1.5 11.5-.5 1-1h10l1-1h11l1-1h30zm3.5 1v1h5zm204.5-1 14.5.5-14.5.5zm-48 1 10.5.5-10.5.5zm-50 1 7.5.5-7.5.5zm16 0 10.5.5-10.5.5zm-39 1 3.5.5-3.5.5zm228 0h6l1.5 1.5q.5 4-2.5 4.5-2.2 1.8-7 1l-1 1h-18l-1 1h-11l-1 1h-7l-1 1q-4.7-1.2-6 1h-7q-1 2-5 1l-4.5-1.5.5-4.5h10l1 1q5.5-1 8 1l1-1 1 1 3-1h2l5-3h3l3-2q4 1 5-1h10l1-1h10z" opacity=".996"/><path fill="#808181" stroke="#808181" d="m140.5 134 39.5.5-2.5 1.5h-15l-1-1h-9v1l3.5.5-11.5.5q-1-2-2 0l-5 1-2-1-3 1-2-1-1 1h-22l-1 1h-20l-1 1h-28l-1 1h-6l-3 1v-1l2.5-.5-6.5-.5-1 1h-7l-1 1-10 1-12 4q-1.5-1 1-2l9-4h4l1-1h4l1-1h4l1-1h4l1-1 8-1 3 2h7l1 1h21l1-1 35-1 1-1h10l1-1h9zm257 0 1.5 3.5h-1z" opacity=".996"/><path fill="#808181" stroke="#808181" d="M70.5 135h7l4.5 1.5-6.5.5q-1-2-5-1zm-16 1 6.5.5-6.5.5zm260 1h13l1 1h8q1 2 5 1l1-1h12l3-1 2 1q1.3-2.3 6-1l10 7q1-2 5-1l2.5 1.5-31.5.5-1 1h-6l-1 1-17.5.5 10 1-10.5.5-1-1h-10l-3 1h-10l-1-1-1 1h-12v-1l1.5-.5q-.7-3.7 1.5-4.5l1 3h2l6-4h13l1.5-1.5-1-2zm63 0h8l1.5 1.5-1.5-.5h-8zm111 0 2.5.5-2.5.5zm23 0 2.5.5-2.5.5zm49 0 2.5.5-2.5.5zm-166 1 .5 2.5q-2 1 0 2l-.5 1.5-1-2-7.5 2.5-.5 1.5-2 1-.5-.5 3.5-3.5 2.5-.5-1-1 2.5-2.5 1.5.5.5 1.5 1.5-.5zm-3.5 2-2 2h3q1-1-1-2Zm108.5-2 2.5.5-2.5.5zm75 0 4.5.5-4.5.5zm-89 1 2.5.5-2.5.5zm113 0 7.5.5-7.5.5zm-128 1 4.5.5-4.5.5zm-400 1 4.5.5-4.5.5zm-27 1 3.5 1.5-10.5.5v-1h6zm12 0 5.5.5-5.5.5zm390 0 6.5.5-6.5.5zm-13 1 2.5.5-2.5.5zm-399 1 1.5.5-3.5 1.5v-1zm-10 1 2.5.5-2.5.5zm-13 2q1.5 1-1 2l-1.5-.5zm305 2 3.5.5-3.5.5zm-48 1 18.5.5-18.5.5zm20 0 11.5.5-11.5.5zm-95 2 8.5.5-8.5.5zm-174 1 1.5.5q-1 6 2 8l-1.5.5-1.5-3.5v-4zm147 0 7.5.5-7.5.5zm326 0 2.5.5-2.5.5zm13 0 3.5.5-3.5.5zm-365 1 7.5.5-7.5.5zm-23 1 4.5.5-4.5.5zm-15 1 3.5.5-3.5.5zm-17 1 5.5.5-5.5.5zm-27 1 8.5.5-8.5.5zm572 0 1.5.5-.5 1.5 4-2 2.5 1.5q-2.5 1.5 1 3l-.5 1.5-3-4-2.5.5q2.3 1.2-.5 2.5l-1.5-.5q2.3-1.2-.5-2.5l-1.5.5zm-599 1 7.5.5-7.5.5zm63 5 2.5.5-2.5.5zm544 1 1.5.5-.5 2.5-1.5-2.5zm-593 1 4.5.5-4.5.5zm2 2 2.5 1.5-2.5.5zm65 0 2.5.5-2.5.5zm-88 14 3.5 3.5-.5.5-2-2-.5.5-.5 2.5-1.5-.5.5-1.5-1.5.5-1.5 2.5-.5-1.5.5-1.5-2.5-.5 3.5-1.5 3 1zm125 3 4.5 4.5-.5.5-4.5-4.5zm-142 1 2 1q1.3-2.3 6-1v1h-5L3 189.5l2 2-.5.5q-5-2.5 0-5zm-5 5 1.5 2.5q-1 1.5-2-1zm423 0 .5.5-2.5 2.5-.5-.5zm-33 1 6.5.5-6.5.5zm-30 1 6.5.5-6.5.5zm-30 1 6.5.5-6.5.5zm-308 1 3.5.5-3.5.5zm277 0 5.5.5-5.5.5zm75 0 11.5.5-11.5.5zm120 0 2.5.5-3.5 1.5q-1.5-1 1-2Zm-228 1 5.5.5-5.5.5zm64 0 13.5.5-13.5.5zm-100 1 17.5 1.5-13.5.5q-.7-1.7-4-1zm53 0 12.5.5-12.5.5zm215 0 .5.5-3.5 3.5-.5-1.5zm-284 1 4.5.5-4.5.5zm331 3q2.5 1 1 2l-2.5-.5zm-439 2q3-.5 3.5 1.5l-1.5-.5q-3 .5-2-1Zm387 1 2.5 2.5-.5.5-3.5-.5 2-1zm29 1 2.5.5-2.5.5zm-442 1 .5 2.5h-1zm21 0-.5 1.5 1 3q-1 2.5-2 1l1-2-1-2zm11 0 3.5 3.5-.5.5-3.5-3.5zm7 0 1.5.5q-1 2.5-2 1zm402 2 .5 2.5h-1zm-444 1 .5 7.5h-1zm412 0 2.5 1.5-1.5-.5q-2.4-.1-1-1Zm34 0 .5 2.5h-1zm-25 1 2.5.5-3 1 1.5 2.5 1.5-.5.5-1.5.5 1.5q-.5 2-3.5 1.5l-1.5-3.5zm-392 1 2.5.5-2 1 .5 1.5q-1-2-2 0l-1.5-.5 2-1zm19 0 2.5.5-2.5 1.5zm12 0 .5 3.5h-1zm354 1 .5 1.5-2.5.5v-1zm-357 1 1.5.5q.6 4.1-1.5 5.5-2-.5-1.5-3.5zm-20 3q1.5 1-1 2l-1.5-.5zm-5 1 1.5.5-1 2 1.5.5 1.5-.5-.5 1.5-3.5-.5zm-4 3 2.5.5-2.5.5zm333 1 11.5.5-15.5 1.5v-1q3.3.7 4-1Zm-34 4 3.5.5-.5 2.5q-3 .5-3.5-1.5zm-274 6 .5.5-2.5 2.5-.5-.5z" opacity=".996"/><path fill="#8f91a1" stroke="#8f91a1" d="m273.5 80 .5.5-3.5 3.5-.5-.5zm3 0 2.5 3.5q-1 1.5-2-1zm-8 4 .5.5-4.5 4.5-.5-.5zm43 0 2.5.5-2.5.5zm34 2 6.5.5-6.5.5zm-52 2 1.5.5-2.5 1.5q-1.5-1 1-2Zm83 0 2.5.5-2.5.5zm-114 1 .5.5-3.5 3.5-.5-.5zm-5 4 .5.5-3.5 3.5-.5-.5zm-5 4 .5.5-3.5 3.5-.5-.5zm181 0 2.5 1.5-1 1-3 15-1.5 2.5-2.5-.5 3-6 3-12zm15 3 .5 3.5-1 1-2.5 12.5-5.5-.5 1-2-.5-1.5 1.5.5-1-3h2l1-6-.5-1.5 1.5.5.5-2.5zm-201 1 .5.5-3.5 3.5-.5-.5zm12 1-.5 1.5-.5 1.5-.5-1.5zm151 1 9.5.5 1 3-1.5 2.5-1-2-1 1h-6l-3.5-2.5 2-1zm50 0 2.5 1.5-3.5 11.5-3.5-.5 1-4-.5-1.5 1.5.5-1-3h2l-1-3h2zm-218 2 .5.5-3.5 3.5-.5-.5zm232 1 1.5.5-1 6-2.5 3.5-3.5-.5 1-4-1-2h2l.5-1.5 3.5-.5zm19 1 10 3 1.5-.5-1.5 2.5-8-1-1.5-1.5zm-256 2 .5.5-3.5 3.5-.5-.5zm14 0 .5.5-2.5 2.5-.5-.5zm235 2 2.5.5-1 1-.5 4.5-3.5-.5 3-1-3-1-1-2 1.5.5zm-254 2 .5.5-4.5 4.5-.5-.5zm284 1 3.5 1.5-1.5.5-2.5-1.5zm-235 2 .5 2.5h-1zm-55 2 .5.5-2.5 2.5-.5-.5zm252 0 9.5.5-9.5.5zm78 0 2.5 1.5-1.5-.5q-2.4-.1-1-1Zm-385 1 12.5.5-12.5.5zm288 0 2.5.5-2.5.5zm-328 1 30.5.5-30.5.5zm107 0 .5.5-3.5 3.5-.5-.5zm204 1 2.5.5-2.5.5zm114 2 1 1h9l1-1h6l1 1 8.5.5-16.5.5-6 2h-13q-1.2-2.3-6-1-1 2-2 0-2.5 2-8 1l-1 1h-9l-1 1q-4.7-1.2-6 1h-6l-1 1q-4.7-1.3-6 1h-6l-1 1-3-1-5 1-1-1h-7l-2.5 1.5.5 3.5h10l1-1 17-1 1-1h9l1-1h28l1-1h23q.8 1.8 4 1l1-1h13q1 2 2 0h8l6.5-2.5-1.5-2.5-2 1-1-1h-5l-1-1-4.5-.5 22.5-.5 1 1h9q.8 1.7 4 1l2.5 2.5-2.5 4.5q-4.7 1.3-6-1h-11l-1 1h-6l-1 1h-35l-1 1h-53l-1 1h-11q-1.3 2.3-6 1l-3-1-3.5 1.5-.5 1.5-1-1h-14v2l-2.5-1.5 4-3q.5-3-1.5-3.5h-6l-1 1h-10l-1 1h-10q-1 2-5 1l-3 2h-3l-8 4-1-1-3 1q-2.5-2-8-1l-1-1-11.5-.5.5-1.5q1 2 2 0h6l1 1h10l3 1 14-5 9-1 1-1h10l1-1 18-1 4-2h20l1-1h8l1-1h6l1-1h5l4-2h3q1 2 2 0h27z"/><path fill="#8f91a1" stroke="#8f91a1" d="m585.5 123 5.5.5-5.5.5zm-198 3 6.5.5-6.5.5zm-46 1 25.5.5-25.5.5zm-71 1 3.5.5-3.5.5zm42 0 16.5.5-16.5.5zm-29 1 10.5.5-10.5.5zm16 0 5.5.5-5.5.5zm72 1 2.5.5-2.5.5zm-220 1 5.5.5-5.5.5zm168 0 2.5.5-2.5.5zm-195 1 6.5.5-6.5.5zm8 0 4.5.5-4.5.5zm-19 1 5.5.5-5.5.5zm-14 1 8.5.5-8.5.5zm104 0 2 1 13.5.5 1 3h-1l-.5-1.5h-22l-1 1h-6q-1-2-2 0h-15l-1 1h-20q-1 2-5 1-.7-1.7-4-1l-1 1h-14l-2 1q-1-2-5-1l-1 1h-15q-1 2-5 1-1-2-2 0h-15q-1 2-5 1-1-2-2 0l-2.5-.5 2-1 .5-1.5q1 2 2 0l6 1q1-2 2 0l2.5-.5-2-1 5.5-.5 1 2 3-2 1 1h9q1.5-3.5 8-2 1 2 2 0l5 1 3-1 3 1 2-1q1 2 5 1l3-2v2l3.5-.5-.5-1.5 2 1 3-1 1 1h15v-1l-1.5-.5 2.5-.5 1 1h20v-1l-4.5-.5 5.5-.5 1 1h20v-1q-2.4-.1-1-1Zm62 0 4.5.5-4.5.5z"/><path fill="#8f91a1" stroke="#8f91a1" d="M372.5 134h20l1.5 1.5-1.5-.5h-19l-3.5 2.5.5 1.5 1.5-.5-.5 1.5 2-1v2l5 1q1-2 5-1l2 1q1.3-2.2 2.5.5h-2l-.5 1.5-1.5.5-1.5 2.5q-1-2-2 0h-7l-1-1h-15q-1 2-2 0l-4.5-.5 30.5-.5 1.5.5-.5-1.5q-1.8-1.7-6-1-1 2-2 0l-9-6h-5l-2 1-3-1-1 1h-12q-1 2-5 1l-1-1h-8l-1-1h-13q-2.7 1.3-.5 2.5l-1.5 2.5h-13l-6 4-2.5.5-.5 1.5-.5-1.5 1-3q-1-1.5-2 1l-.5 3.5-3 1q-1-2-2 0h-35l-1 1h-20v-1h16l2-2 7-3 2.5-2.5q-2.1-2.4-7.5-1.5l-3-2-3 1-1-1h-8l-1-1q-1.2 2.3-6 1l-2-1-1.5 1.5-.5 4.5-.5-4.5 2.5-3.5h15l1 1h36l2 1 2-1 1 1h12l1-1h23l1-1 3 1h15l2 1 3-1 25-1 4 2 2.5-1.5zM272 147v1h2zM78.5 135l13.5.5-13.5.5zm-17 1 13.5.5-13.5.5zm157 4 .5 4.5h-1zm176 1 1.5.5-2 1 1 2q-1 1.5-2-1zm48 0 4.5.5-2.5 1.5-1-1-1.5.5zm-381 1 3.5.5-.5 1.5-7.5-.5zm337 0 1 3 3.5.5-3.5.5-1-1-1.5.5zm32 0 2.5.5-1.5 1.5q-2.5-1-1-2Zm-383 1q3-.5 3.5 1.5l-4.5.5q-1.5-1 1-2Zm342 0 .5 2.5h-1zm33 0 1.5.5-.5 1.5q-2.5-1-1-2Zm-387 1 1 1 5.5.5-4.5 1.5-2.5-2.5zm-2 1q2.5 1 1 2l-2.5-.5zm187 0 .5 4.5h-1zm188 0q3-.5 3.5 1.5l-1.5-.5q-3 .5-2-1Zm-191 1 .5 3.5q-1.5 3-7.5 1.5v-1l6.5-.5z"/><path fill="#8f91a1" stroke="#8f91a1" d="m344.5 146 2.5.5-2.5.5zm-319 1 2.5 1.5q-2.2 1.3.5 2.5l2-1h9l2-1q1 2 2 0 6-1.5 7.5 1.5l-.5 1.5-6 3h-3l-2 2-9 1v-1l5-1 6.5-3.5-12.5-.5-1 1h-7l-.5-1.5 5-3zm301 0 4.5.5-4.5.5zm-12 1 5.5.5-4.5.5-1 1zm8 0 2.5.5-2.5.5zm-61 2 5.5.5-5.5.5zm-80 1 10.5.5-.5 1.5q-3.2-2.3-10-1zm-25 1 8.5.5-.5 1.5-1-1h-7zm-25 1 8.5.5-2.5 1.5q-1.3-2.2-6-1zm-20 1 5.5.5q-1.2 2.7-2.5.5-4 .8-3-1Zm-16 1 5.5.5-.5 1.5-5-1zm-19 1 7.5.5-.5 1.5q-2.2-1.8-7-1zm-56 1 .5 1.5q-1 2.5-2 1zm27 0 10.5.5q-.5 2-3.5 1.5l-1-1h-6zm-2 10 1.5.5-1.5 2.5q-3-1.5 0-3Zm-29 24 3.5.5-3.5.5zm108 0 1.5.5-.5 1.5q-2.5-1-1-2Zm-40 4 1 1 1.5-.5-1 1 .5 1.5-2.5-2.5zm286 0 4.5.5-4.5.5zm-44 1 4.5.5-4.5.5zm-46 1 3.5.5-3.5.5zm-59 1 3.5.5-3.5.5zm6 0 7.5.5-7.5.5zm261 6-.5 1.5-.5 1.5-.5-1.5zm7 0 2.5 1.5-1.5.5q-2.5-1-1-2Zm-396 6q2.8 1.3.5 2.5l-.5 1.5-.5-1.5 1-1zm423 9 2.5 1.5-1.5-.5q-2.4-.1-1-1Z"/><path fill="#96a096" stroke="#96a096" d="m329.5 75 8.5.5-8.5.5zm-25 1 3.5.5-3.5.5zm49 0 3.5.5-3.5.5zm-40 1 2.5.5-2.5.5zm24 0 7.5.5-7.5.5zm73 7v2q3.3.8 4-1l1 2q3.3.8 4-1v2q3.2.7 4-1v2l5.5.5-4 1 .5 1.5-1.5.5 1 2-2 1 1 2-2 1 1 2-2.5 5.5-1-3-9.5.5-.5 1.5-.5-2.5q2.5-.5 2-4l-1-2h2l-.5-6.5-1.5.5q2-1 0-2l-2-3zm-139 8q2.5 1 1 2l-1-1-1.5.5zm173 0q1.5 1-1 2l-1.5-.5zm-180 6 1.5.5-6.5 5.5-.5-.5zm169 0 .5 2.5-1 1v3l-2 6-3 6 2.5.5 1-2 .5 1.5q-1 2.5-5.5 1.5l.5-1.5 4-9zm34 0v2l6 1 1.5-.5.5 1.5 5 1q1.5-2.5 3 1l2-1 2 2q1-2 2 0h3l11.5 4.5-1.5.5-9-3 .5 1.5-.5 2.5-2-4-28.5-7.5zm-19 1 1.5.5-.5 1.5q-1-2-2 0l-2.5-.5zm-170 1q2.5 1 1 2l-1.5-.5 1 2-2 2 .5 1.5-1.5.5q2.5 1.5-1 3l-6 8 1 3q-1.2 2.7-2.5.5l-7 4-1.5-.5-.5 1.5q-2.5-2-8-1v2q-2.8-1.2-.5-2.5l2.5-3.5 7-6 1 1 3.5-3.5 1.5-2.5q3 .5 3.5-1.5l3.5-4.5 1 1 2.5-2.5zm166 2 .5 1.5-1 1v3l-2 6-2 3 6 1-5.5.5q-2.8-1.2-.5-2.5zm-10 1 .5 2.5h-1zm27 0 2.5.5-.5 1.5-2.5-1.5zm-204 1 .5.5-2.5 2.5-.5-.5zm202 0-.5 1.5-3 10 3 1-3.5.5-.5-3.5 2-3 1-5zm-26 3 .5 2.5h-1zm38 0 3.5.5-4 1-.5 1.5-.5-1.5zm-209 1 .5.5-4.5 4.5-.5-.5zm189 0 .5 2.5h-1zm35 2 2.5.5q-3.8.2-5 3l.5 1.5 2.5.5-4.5 1.5-.5-1.5 2.5-4.5z"/><path fill="#96a096" stroke="#96a096" d="m432.5 111 .5 2.5h-1zm37 0 .5 1.5-1 3 5 1-5.5.5-.5-3.5zm19 1 1.5 3.5q-1 1.5-2-1zm74 8 7.5.5-7.5.5zm-123 1 2.5.5-2.5.5zm-10 1 2.5.5-2.5.5zm14 1 3 1h21l1-1h87v1h-27l-1 1q-.7-1.7-4-1l-4 2-12 1-1 1h-8l-1 1h-20l-4 2-18 1-1 1h-10l-1 1h-5l-14 5-6 1-1-1h-10l-1-1h-6l-1.5.5 1-5-1-1 1-1-.5-1.5 1 1h17l9.5-3.5.5-1.5 2 1 1-2 3 1q1.5-3.5 3-1 5.7 1.2 7-2Zm114 0 9.5.5-9.5.5zm26 1 17.5.5-17.5.5zm24 0h7l1 1 9 1 2.5 2.5-1.5.5-2-2q-3.2.7-4-1h-9l-3-1z"/><path fill="#96a096" stroke="#96a096" d="M421.5 125q1.5 1-1 2l-7 1v-1h4zm-20 2 10.5.5-10.5.5zm-107 2 4.5.5-4.5.5zm80 1 22.5.5 1 2-1.5 2.5q-3.2.8-4-1h-20l-2.5 2.5 1 1 1 2q-1 1.5-2-1l-.5-1.5-4-2h-12l-1 1h-12l-1 1q-1-2-2 0l-2-1h-15l-1-1-3 1h-23l-1 1h-12l-2-1-2 1-1-1h-36l-1.5-1.5 3.5-1.5h24v2q5.3.8 7-2h13l1-1 1 1h28l1-1q4.8 1.3 6-1h13l1 1h23l1 1 1-1h6l1-1q4.7 1.3 6-1Zm252 0 .5 1.5-2.5 3.5-1.5.5-2 3 .5 1.5q-1-2-2 0h-11l-1-1q-4.7 1.3-6-1h-17q-1 2-5 1l-3-2q-4.7 1.3-6-1-1.4 2.6-6 2l-4.5-1.5 3.5-1.5h35l1-1h6l1-1h11q1.3 2.3 6 1zm-425 4 3 1 1-1h15l-.5 1.5-.5 1.5-1-2h-13l-1 1h-20v-1h16zm21 0 3.5.5-3 1-.5 1.5z"/><path fill="#96a096" stroke="#96a096" d="m374.5 135 14.5.5-14.5.5zm-216 1 2.5 1.5-15.5.5v-1h12zm4 0 20.5.5-20.5.5zm347 0 9.5.5-8.5.5-1 1h-11l-1 1h-12v-1h11l1-1h11zm-385 2 2.5.5-2.5.5zm5 0 4.5.5-4.5.5zm7 0 3.5.5-3.5.5zm259 0 1.5.5-1.5 2.5zm-303 1 1.5.5q-1 2.5-2 1zm4 0 9.5.5-9.5.5zm373 0 14.5.5-14.5.5-1 1q-4.8-1.2-6 1h-15v-1h15l1-1q4.7 1.2 6-1Zm-389 1 3.5.5-3.5.5zm5 0 2.5.5-2.5.5zm288 0 14.5.5 1 2-1.5-.5-1 1-1-1q-1.8-1.7-6-1l-2 1q-.8-1.7-4-1zm-308 2 7.5.5-7.5.5zm330 0 .5 3.5h-1zm38 0 8.5.5-8.5.5zm-383 1 6.5.5-6.5.5zm342 0q2.5 1 1 2l-1.5-.5zm32 0 6.5.5-6.5.5zm-388 1 9.5.5-9.5.5-2 1v-1zm381 0 5.5.5-5.5.5-1 1h-5l-1 1h-12l-.5-1.5 1.5.5h11l1-1q4.8 1.3 6-1Zm-388 2 2.5.5-5.5 1.5-5.5 3.5.5 1.5h7l1-1h12q1.5 1-1 2L30 157.5l24 1-23.5.5-6 2-3.5-1.5-1-3v-6zm318 0 8.5.5-8.5.5zm10 0 15.5.5-15.5.5zm-86 1 2.5.5-2.5.5zm60 0 14.5.5-14.5.5zm-83 2 12.5.5-.5 1.5-41.5-.5 28.5-.5zm16 0 49.5.5-49.5.5zm-47 1 .5 1.5-25.5.5v-1h24zm-52 2 24.5.5-24.5.5zm-148 1 1.5 2.5q-.7 4.2 1 6h-1l-.5-1.5-1.5.5-1-5zm123 0 23.5.5-23.5.5zm356 0h6l6 2 3-1q.8 1.8 4 1l2 2q1-2 2 0l3 2 1.5-.5.5 1.5 1.5-.5.5 1.5 1.5-.5.5 1.5q4-.5 4.5 2.5l-4.5 2.5-1-2-1.5.5-.5-1.5-2.5-.5-.5-1.5-1.5.5-.5-1.5-1 1-2-2-1 1-2-2q-1 2-2 0-5.3.8-7-2l-1 1h-8l-2-1q-1.3 2.3-6 1l-3-1-3 2-2-1q-1.5 3.5-3 1l-3 2q-1-2-2 0-3.5-.5-4 2l-1-1-1.5.5 6.5-4.5 9-3 2 1 3-2h2l2 1zm-379 1 19.5.5-19.5.5zm-16 1 13.5.5-13.5.5zm-17 1 14.5.5-14.5.5zm-26 1 23.5.5-23.5.5zm574 3 1 1 1.5-.5-1.5 1.5q-2.5-1-1-2Zm-536 4q4-1 5 1h11l3-1 3 2h2l1.5-.5.5 1.5 2-1 1 2 1.5-.5.5 1.5 1.5-.5.5 1.5 6 3 1.5-.5.5 1.5 5.5 2.5 6.5 7.5 1.5.5-1.5.5-1-1-1.5.5-2.5-3.5-1.5.5-1.5-2.5-3-2-1.5.5-1.5-2.5-1.5.5-.5-1.5-1.5.5-.5-1.5-4-2-1.5.5-.5-1.5-2 1-1-2-2 1q-.5-2.5-4-2l-2 1-2-2h-14q-1.5 3.5-3 1-3.5-.5-4 2l-2-1-2 2q-1-2-2 0l-2.5.5-.5 1.5-1.5-.5-.5 1.5-1.5-.5-.5 1.5-1.5-.5-.5 1.5-1.5-.5-.5 1.5q-1.5-2.5-3 1l-1.5.5-.5 1.5q-2.5-1-1-2l4.5-3.5 1.5-2.5q1.3 2.3 2.5-.5l.5-1.5q1.5 2.5 3-1l4.5-1.5.5-1.5 2 1q1.5-3.5 3-1 5 1 6-2Zm-47 2 .5.5-2.5 2.5-.5-.5zm-6 3 3.5 1.5-1.5.5-2.5-1.5zm-22 14q3-.5 3.5 1.5l-1.5-.5q-3 .5-2-1Zm475 0 2.5.5-2.5.5zm-18 3 .5.5-2.5 2.5-.5-.5zm-379 1 1.5.5-.5 1.5 1.5.5-2.5 1.5.5-1.5-1-1zm325 2-.5 1.5-.5 1.5-1.5.5-.5 1.5-4-1-4 2h-43l-1 1h-22l-1-1-6.5-.5 8.5-.5 1 1h20v-2h8l1 1h18l4-2h7l1 1h6q1.5-3.5 3-1l2.5-.5.5-1.5 2 1zm-331 2 2.5 1.5-2.5 1.5zm24 3 2.5 1.5-1.5.5q-2.5-1-1-2Zm-101 1 5.5.5-5.5.5zm112 0 2.5 2.5-.5.5-2.5-2.5zm180 0h7l1 1 9.5.5-12.5.5q-1-2-5-1zm-34 1 6.5.5-1.5 1.5h-7v-1zm-35 1 7.5.5-7.5.5zm248 3 .5 1.5-1.5.5q-1.5-1 1-2Zm13 3 2.5.5-2.5.5zm-418 1 .5 1.5-1.5.5q-1.5-1 1-2Zm23 0 1.5 2.5q-1 1.5-2-1zm9 4q2.5 1 1 2l-1-1-1.5.5zm353 0 .5 1.5-1.5.5q-1.5-1 1-2Zm46 2 2.5.5-5.5 1.5v-1zm-18 3 2.5.5-.5 1.5-3.5-.5zm-363 2 1.5 3.5h-1zm338 2 1.5 2.5q-2.2 1.3.5 2.5l1.5.5-.5 1.5-3.5-3.5zm-366 1 1.5 2.5h-1l-.5-1.5-1 2-1.5-.5zm12 3 2.5 2.5-.5.5-2.5-2.5zm299 1 14.5.5-14.5.5z"/><path fill="#f5f5f5" stroke="#f5f5f5" d="M314.5 83h35l1 1 27 1 1 1h7l1 1h7l1 1 4.5.5-4.5.5-1-1-16-1-1-1h-12l-1-1h-16l-1-1h-32zm-15 1 4.5.5-4.5.5zm-5 1 2.5.5q-4.5.5-6.5 3.5l-.5-1.5zm-7 4 .5 1.5-9.5 20.5-1.5-.5 3-5v-2l5-11q-2.2-1.2.5-2.5zm116 1q3.8 1.3 2.5 7.5l-2 4v3l-3 7-1 6-2 3-1 5-1.5 1.5.5-1.5 7-21 1-9 1-1-2-4zm36 5 .5 1.5-3 9-2 3-1 7-1.5 2.5-.5-1.5 5-15v-3zm11 4 1.5.5-4.5 15.5-.5-2.5 4-12zm14 4 .5 2.5-3.5 9.5-.5-2.5zm13 3 1.5.5-2 3-1.5 5.5-.5-2.5zm-200 15 1.5.5-.5 1.5q-2.5-1-1-2Zm95 15 18.5.5-18.5.5zm15 8 1.5.5-2.5 1.5q-1.5-1 1-2Zm241 17 .5 3.5h-1zm-588 6 3.5.5-.5 1.5-3-1zm14 1q1.5 1-1 2l-7 3-3.5-1.5 4.5-.5zm576 3 .5 3.5h-1zm-138 4h5l1 1h7l3 1q8.4 3.6 13.5 10.5l5 10q-.7 3.3 1 4v9h-1l-.5-5.5-4.5-.5v-6l-1-3-5.5-7.5-.5 1.5 2 2-.5.5-4.5.5 1 2-3.5 3.5-1.5-1.5 4-2-.5-1.5-5 2v-1l1.5-.5-1-3 1.5-.5 3 2 2.5-1.5q-.5-2-3.5-1.5l-3-3-1 3-.5-2.5.5-1.5-1.5-.5 2.5-1.5 2 1q1.5-1-1-2h-2l-3-2h-6l-3-1-1 1h-5l-3 1-7.5 5.5 1.5.5q1.8-3.7 3.5-.5l-.5 1.5-2.5.5 4.5 2.5 2-1v1l-1.5.5 2 2-.5.5-6-4-4.5 3.5-.5 3.5-2.5-1.5 1-3q-1-1.5-2 1l-2 5v5l-1 3q2.3 1.2 1 6l1.5 2.5 1-3 4 2 5-4-1 3 4-2 1.5 2.5-4.5 2.5-2-3-4.5 2.5q2.3 1.3-.5 2.5l-2-3-.5 2.5 5.5 6.5.5-1.5-3-3 .5-.5h4l6-3v1l-1.5.5.5 1.5q-1-2-2 0-3-.5-3.5 1.5l5.5 4.5 1.5-5.5 3.5-3.5.5.5-2 2-3 7 1 2-2 1 5.5 2.5h13l5.5-2.5-2.5-.5-2 1q-2.5-1-1-2l2.5-.5q-3-2-2-8h1v4l1.5 3.5 2-2 .5.5-.5 1.5 1.5.5-.5 1.5 2.5-1.5-2-3 3-1-7-5 1.5.5 7.5 3.5-3 4 1.5.5 5.5-6.5-1.5.5-1.5-.5 1.5-5.5 2.5 1.5.5 1.5 2-4 2-1q2.8 1.2.5 2.5-.9 5.6-4 9l.5.5 2.5-2.5 2.5-5.5.5 1.5q-3.2 7.8-9.5 12.5l-9 5-12 2-1-1h-6l-9-4-8.5-7.5-2-4q1-1.5 2 1l2.5 3.5 1.5-2.5-3-2v-2l-3-5q.8-3.3-1-4l-.5-8.5-1 5-.5-7.5 4-9 5.5-6.5 10-6 6-1zm-.5 2v1h10zm-4 1v1h3zm15 0v1h3zm-18 1v1h2zm-2 1-2 1q-3 1-1 2l4-2zm28 4v4l3-1zm-34 4-3 3 1 1q0-2 4-1zm-7 6-1 3h1zm54 1-1 3h1zm-55 2-1 3h1zm56 1-1 5h1zm-44 24-1 2-2 1 5 3h1l-2-2-1-1q2-2 0-3Zm-1 6q-2 1 1 2h1zm5 3v1h2zm3 1v1h2zm16 0v1h2zm-13 1v1h11z" opacity=".984"/><path fill="#f5f5f5" stroke="#f5f5f5" d="m491.5 181 5.5.5-.5 1.5-2.5.5 1.5 4.5 2-1v1l-1.5.5-.5 2.5-3-8-1.5.5z" opacity=".984"/><path fill="#f5f5f5" stroke="#f5f5f5" d="M499.5 181q3.8-.7 4.5 1.5l-.5 1.5-2.5 1.5-2.5 5.5-1.5-.5 2-2 1.5-4.5 1.5-.5-4-1zm-13 1q3-.5 3.5 1.5l-5.5 3.5.5-1.5-1-1 .5-1.5zm-385 3h14q.8 1.8 4 1 8.4 3.6 13.5 10.5l4 8 1 8h-1l-1.5-4.5-1 3-1.5-.5-.5-2.5-1 5-1.5-.5.5-4.5 1.5-.5v-3l-3.5-5.5-1 1-4.5.5 1 2-3.5 3.5-.5-.5.5-2.5 2.5-.5-.5-1.5-4 2 .5-1.5-1-1-1-5q2-1 0-2l.5-1.5 2.5-.5-4.5-1.5.5 1.5-1.5 1.5-1.5.5-1 3 3 1-1.5 4.5-2.5-1.5 1-3h-1l-1.5 2.5-.5-1.5 4-6-3-1 .5-1.5 4.5-.5-8.5-1.5q-.7 1.8-4 1v-2l-1.5-.5zm3.5 1v1h8zm9 1v1h3zm9 3q-2 1 2 2l4 6 3 2-2-4q-2-5-7-6Zm-2 2-1 1 2 2-1 1q1 2 3 0l3 2v-1zm-2 3-1 4 2-1 2 2 2-1zm16 9-1 4h1zm353.5-17 .5 5.5h-1zm4 0q2.1 1.4 1.5 5.5-1.5 3-3 0l-1-4zm-474 1 7 1 1-1h20l.5 1.5-7.5.5-1 1h-28v-1l7-1zm483 0q2.3.8 1.5 4.5l-2.5 1.5-.5-3.5z" opacity=".984"/><path fill="#f5f5f5" stroke="#f5f5f5" d="M103.5 190q4.5-1 5.5 1.5l-3 1 1.5 4.5 1.5-.5-1.5 2.5-3-7-1.5-.5zm402 0 .5 2.5-2.5 2.5-.5-.5q2.4-1.1 2.5-4.5Zm-406 1 2.5 1.5q-3.4.1-4.5 2.5l-1.5-2.5zm-55 1 1.5.5-3.5 1.5v-1zm-34 1h24l4.5 1.5-3.5.5q-1-2-5-1-1 2-5 1l-2-1-1 1h-9l-2 1q-2.4-.9-1-3Zm81 0 .5.5-5 5 .5 1.5 2-1 .5 1.5-1.5 3.5-2.5-.5-.5-1.5-1.5.5q2.3-6.2 7.5-9.5Zm391 0 4.5 3.5-2.5 1.5-3.5-3.5zm35 0 2.5 3.5v2l-1.5.5-1-3-3.5 2.5 1 3q-1 1.5-2-1l.5-1.5-3 2-.5-.5 2.5-2.5 4.5-2.5q-2.2-1.2.5-2.5Z" opacity=".984"/><path fill="#f5f5f5" stroke="#f5f5f5" d="m93.5 194 2.5 1.5-3 1 7 5-2 1 1 2q-1.3 2.8-2.5.5l-1.5.5.5 1.5-2-1-2 1v-1l1.5-.5-3-3 .5-.5 2 1 3-2 2 1q1.5-1-1-2l-4-3-2 1-.5-.5zm384 0 5.5 4.5-.5 1.5-2-2-.5.5-.5 1.5-.5-1.5 1-1-3-3zm-377 1 .5 3.5h-1zm-95 1L16 208.5l-.5.5-2.5-2.5-7-8zm97 0 2.5.5 1 4q-1.5 3-3 0zm370 1 2.5 1.5q-2.4 1.1-2.5 4.5l-1.5-.5q-.6-4.1 1.5-5.5Z" opacity=".984"/><path fill="#f5f5f5" stroke="#f5f5f5" d="m82.5 200 .5 1.5-3 7v6h1q-.7-3.7 1.5-4.5l.5 8.5 1 3q3.1 6.4 8.5 10.5l1.5-.5q-2-1 0-2l.5-1.5 3 2 2-6 .5 2.5-2 4 4.5 2.5h7l.5-1.5-2-3v-2h1l.5 1.5 1-4 2.5.5-.5 3.5-2.5.5v2l3 4-4.5 1.5-3-2q-.7 1.8-4 1l-2-3-3 1-2-1q-1.5 1 1 2l5 2 10 1 7.5-2.5-3.5-.5-1.5-1.5 2-1q.8-4.8-1-7h1l1.5 6.5 2-1 2 3 2.5-1.5-3-2 2-1-.5-1.5q-3.9-.6-5.5-3.5l1.5.5 7.5 3.5-2 3 1.5.5 3.5-4.5-3-1 1-1-6-6 .5-.5 5.5 4.5.5 1.5 1-3 3 2 2-3 1.5.5q-2.7 7.8-9 12l1.5.5 3-3 1 1 1.5-.5-5.5 5.5-8 4-3 1h-14l-11-5-7.5-7.5-4-11v-9q2-1 1-5zm-.5 16-1 4h1zm1 4-1 3h1zm47 3-2 3q1 1 2-1zm-30 14v1h2zm16 0v1h2zm-13 1v1h11zm13.5-38 .5 1.5q-1 2.5-2 1zm403 0 1.5.5-.5 5.5-1.5-.5-.5-1.5q-6 1.5-7.5-1.5l1.5.5 6.5-.5zm-391 1 2.5 4.5-2.5.5-1-2-5 4-.5-.5 2.5-2.5 2.5-1.5zm346 0 5.5.5-5.5.5zm13 1 2.5.5-1.5 1.5q-2.5-1-1-2Zm-10 1q5.3-1.2 6.5 1.5-1 2.5-5.5 1.5-2.4-.9-1-3Zm26 0 1.5.5-.5 1.5-1.5-.5zm-395 1 .5 1.5-1.5.5q-1.5-1 1-2Z" opacity=".984"/><path fill="#f5f5f5" stroke="#f5f5f5" d="m85.5 205 1 1 1.5-.5-1 2 8 1-7.5.5-1.5-.5-.5 1.5-1.5-.5zm386 0 1.5.5.5 2.5q1-2 5-1l3.5 1.5-2.5.5q-1-2-5-1l-1 3-1-1-1.5.5zm38 1q2.5 1 1 2l-1.5-.5zm-384 1 .5 1.5-1.5.5q-1.5-1 1-2Zm394 1 1.5.5q.6 4.1-1.5 5.5l-2.5-1.5q2.4-1.1 2.5-4.5Zm-419 1 1.5.5-.5 1.5-1.5-.5zm410 0 7.5.5-7.5.5zm-497 1 3 4 1-2 1.5-.5-.5-1.5 3.5 4.5-4 1 4 1-4.5.5q-3.7-2.6-4-7Zm77 0q4.5-1 5.5 1.5l-.5 1.5-5.5-.5zm24 0 1.5.5-.5 1.5q-2.5-1-1-2Zm6 0 8.5.5-8.5.5zm346 0 1.5 2.5q-1 2.5-2 1zm34 1 .5 2.5q-1 1.5-2-1zm9 0 5.5 5.5-.5.5-3.5-2.5-2-3zm-425 1 1.5.5.5 2.5q1-2 5-1l3.5 2.5-5.5 4.5q-1.5-1 1-2l3.5-2.5-1.5-.5-1.5.5.5-1.5-4.5.5-.5 1.5-2.5-.5zm422 1q3-.5 3.5 1.5l-1.5 2.5-2.5-1.5zm-376 2 1.5.5-1.5 4.5-2.5-.5 1-2-8-1 7.5-.5 1.5.5zm7 0 .5 2.5h-1zm-35 2 1.5.5-.5 1.5-1.5-.5z" opacity=".984"/><path fill="#f5f5f5" stroke="#f5f5f5" d="m86.5 218 2.5 4.5q-1.5 3-3 0l-1-3zm9 0 2.5.5q.5 3-1.5 3.5l-3.5-.5zm16 0 1.5.5-.5 1.5-1.5-.5zm379 0 1.5.5.5 3.5 2-2 .5.5-3.5 6.5-1.5.5 2.5.5q.8-1.7 4-1l2 1-.5-1.5-1.5-3.5-1.5-.5 1.5-2.5 3 7 1.5.5-.5 2.5-5.5-.5-.5-1.5q-.5 2.5-4 2l-3.5-1.5 1.5-2.5q1.3 2.3 2.5-.5l1-3-3-1q-.5-3 1.5-3.5Zm8 0q3-.5 3.5 1.5l-1.5 2.5-2.5-1.5zm-380 1 2.5 3.5-2.5.5-1.5-2.5zm18 0 .5 2.5h-1zm-41 4 1.5.5-5 3 1 2-1.5.5-3.5-3.5 1.5-1.5 3 1zm7 1 2.5 1.5-1 2h2l-2.5 4.5-.5-1.5 1-2-3-1q-.5-3 1.5-3.5Z" opacity=".984"/><path fill="#a9aaaa" stroke="#a9aaaa" d="M278.5 84q1.5 1-1 2l-2 1q-1.5-1 1-2zm-5 4 .5.5-2.5 2.5-.5-.5zm-10 8 .5.5-4.5 4.5-.5-.5zm11 2 1.5.5-2.5 1.5q-1.5-1 1-2Zm-17 3 .5.5-4.5 4.5-.5-.5zm-6 5 .5.5-4.5 4.5-.5-.5zm5 2 .5.5-3.5 3.5-.5-.5zm5 0 .5.5-4.5 4.5-.5-.5zm14 2 2.5 1.5-1.5-.5q-2.4-.1-1-1Zm-24 2 .5.5-4.5 4.5-.5-.5zm23 0 1.5.5-4.5 3.5-.5-.5zm-32 2q1.5 1-1 2l-2 1q-1.5-1 1-2zm28 3 .5 3.5h-1zm-35 2 1.5.5-2.5 1.5q-1.5-1 1-2Zm5 2 .5 1.5-2.5 1.5-.5-.5zm26 1 2 1 1.5-.5-1.5 4.5-6-1-4 2q-1.5-1 1-2 5.2-.3 7-4Zm-36 1 .5 1.5q-1 2.5-2 1zm12 1 .5.5-2.5 2.5-.5-.5zm-8 2 .5.5-3.5 3.5-.5-.5zm12 3 2.5.5-2.5.5zm9 1 10.5.5-10.5.5zm-243 61 3.5.5-3.5.5z" opacity=".62"/><path fill="#373737" stroke="#373737" d="m320.5 66 8.5.5-8.5.5zm-14 1h9l1 1h19l1 1 14 1 1 1h8l1 1h8l1 1h8l1 1h7l1 1h8l1 1h8l1 1h8l1 1 13 1 1-2 .5 3.5-2 1 1 2h-2l1 2-3.5 1.5v-2q-3.2-.7-4 1v-2l-8-1-1.5.5.5-1.5q-4-1-5 1v-2q-4-1-5 1v-2l-8-1-1-1h-5l-1-1-16-1-3 1v-1l2.5-.5-14.5-.5-1-1h-44l-1 1-8.5.5.5 1.5q-1-2-5-1v2q-.7-1.7-4-1v2l-2-1-7 3 .5-1.5-1.5-1.5-4.5.5 3 3-.5.5-3.5-3.5 1-1 1.5-2.5 14-5 8-1 1-1h5zm62 0 2.5.5-2.5.5zm10 1 2.5.5-2.5.5z" opacity=".984"/><path fill="#373737" stroke="#373737" d="m310.5 75 5.5.5-5.5.5zm38 0 3.5.5-3.5.5zm-31 4 15.5.5-4.5.5-1 1h-15l-1 1h-11l-1 1h-4l-3.5 1.5.5 1.5-3-1-12 8-41 35-.5-.5 2.5-2.5 16.5-13.5 1.5-2.5 22-18 11-7 6-2h4l1-1h6l1-1h9zm17 0 2.5.5-2.5.5zm33 2 4.5.5-4.5.5zm8 1 3.5.5-3.5.5zm6 1 11 1 4.5 1.5-4.5.5-1-1h-6q-.8-1.7-4-1zm18 3 5 1 2.5 2.5-1.5-.5-3-1-1.5.5.5-1.5q-3 .5-2-1Zm28 7 1.5 2.5-2 1 .5 1.5 1.5.5-1 1 .5 1.5-1.5-.5-.5-1.5-.5 2.5 2 1-.5 1.5-2-2-1.5.5zm7 0 4.5 1.5-2.5 1.5-2-1q-1.2 2.3-2.5-.5z" opacity=".984"/><path fill="#373737" stroke="#373737" d="m281.5 94 1.5.5-.5 1.5-1-1-3 3-.5-.5zm165 2 1 1 4.5.5-6.5 1.5q-2.5-1-1-2zm-15 2 .5 1.5q-2 1 0 2l-.5 1.5-1.5.5 1 2-1.5.5-.5-2.5q1.8-.7 1-4zm-156 1 .5.5-2.5 2.5-.5-.5zm178 0 1.5.5-.5 2.5-1.5-.5-.5 1.5-.5-1.5zm8 1-.5 1.5-.5 1.5-2 1-1.5-2.5zm-37 4 2.5 1.5-2.5 4.5-1-2-1.5.5 1.5-1.5 1.5.5-.5-2.5-1.5.5zm30 0 1 2 1-2q2.5 1 1 2l-2 1q-2.4-.9-1-3Zm21 0 2.5.5-2.5.5zm-10 1 3.5 5.5h-1l-3-4zm-12 2 .5 2.5-1.5 2.5-.5-1.5zm-15 1 1.5.5-.5 1.5q-2.5-1-1-2Zm43 1q2.8 1.2.5 2.5l-.5 1.5-2.5-1.5 2-1zm3 0 2.5.5-2.5 1.5zm30 0 1.5.5-3.5 1.5v-1zm-254 2-.5 1.5-.5 1.5-.5-1.5zm161 0 3.5.5q-1.3 2.8-2.5.5-2.4-.1-1-1Zm16 0q2.5 1 1 2l-1.5-.5zm78 0 1.5.5-2.5 1.5q-1.5-1 1-2Zm7 0 1.5 1.5-.5 1.5 7.5-.5-2-1 1.5-.5q1 2 5 1v-2l3 1 3 1q1.3-2.2 2.5.5l-.5 1.5 5 2 1.5-.5-.5 1.5 2-1q1.5 1-1 2l-5.5.5 2 1-1.5.5-1-1-17.5-.5-.5-2.5q-1.2 2.3-2.5-.5l.5-1.5-2 1v-2l-2 1v-2l-3 1q-1.5-1 1-2l3 1zm-71 2 .5 3.5q-.5 3-4.5 2.5v-1q3 .5 3.5-1.5zm-31 1 3.5 1.5-1.5 2.5-1-3q-2.4-.1-1-1Zm60 0q2.5 1 1 2l-1-1-1.5.5zm-239 2 .5.5-2.5 2.5-.5-.5zm33 1 2.5.5-.5 1.5-1-1-1.5.5zm194 0 5.5.5-5.5.5zm11 0 2.5.5-2.5.5zm-312 1 13.5.5-13.5.5zm105 0 1 4 1.5-.5q-1.5 3-3 0zm166 0 4.5.5-4.5.5zm115 0q2.5 1 1 2l-1-1-1.5.5zm-421 1 3.5.5-3.5.5zm53 0 3.5.5 1 2-.5.5-2-2q-3 .5-2-1Zm-73 1 2.5.5-2.5.5zm139 0 .5.5-2.5 2.5-.5-.5zm213 0h27l2.5 1.5-6.5.5q-1-2-5-1l-1 1h-7l-1-1h-9zm-363 1 2.5.5-2.5.5zm26 0h54l2 1 1.5-.5-.5 1.5-2.5.5-1.5 4.5h-14l-1 1h-19l-1 1h-21l-1 1h-13l-1 1-21 1-1 1h-10l-1 1-23 1v-1l7-2 9-5 2 1v-2l3 1v-2l3 1 4.5-1.5-.5-1.5 1 1h6l1-1h6l1-1h11l1-1h18zm53.5 1v3l1-2zm-65 1v1h2zm-19 1-5 2h-6l-4 2h8l1 1h3l-1-1v-1l3 1h1zm-14 5v1h4zm31 0v1h2zm-12 1v1h2zm-12 1v1h2zm-11 1v1h2zm-13 1v1h4z" opacity=".984"/><path fill="#373737" stroke="#373737" d="m186.5 121 .5 3.5h-1zm264 0 7.5 1.5-7.5.5zm-12 1 1.5.5-2.5 1.5q-1.5-1 1-2Zm-205 1 .5.5-2.5 2.5-.5-.5zm369 0 6.5.5-6.5.5zm-419 1 2 4 1.5.5-4 1 4 2-5.5.5-.5-2.5zm34 2 2.5 1.5-2.5.5zm61 0 1 1 1.5-.5q-.7 3.3 1 4l-1.5-.5-4.5-.5 3-2zm-78 1 6.5.5-6.5.5zm21 1 1.5.5-.5 1.5q-2.5-1-1-2Zm6 0 .5.5-2.5 2.5-.5-1.5zm190 0 2.5.5-2.5.5zm-209 1 1.5.5-.5 1.5q-2.5-1-1-2Zm65 1 3.5 1.5-6.5.5v-1zm20 0 2.5.5-2.5.5zm-82 1 3.5.5-2.5 1.5q-2.5-1-1-2Zm6 0 3.5 1.5-1.5.5-2.5-1.5zm23 0 1 1 3-1 2.5.5-1.5 1.5h-9v-1q3.2.8 4-1Zm15 0 9.5.5-9.5.5zm-127 2 2.5.5-2.5.5zm26 0 17.5.5-17.5.5zm-38 1 2.5.5-2.5.5zm-12 1 7.5 1.5-4.5.5-3-1zm20 0 2.5.5-2.5.5zm-37 1h3l3.5 1.5-3.5.5-3-1zm-31 1 3.5.5-3.5.5zm9 0h7l3.5 1.5-3.5.5q-1.3-2.2-6-1l-2 1q-1.5-1 1-2Zm452 0 38.5.5-38.5.5zm-12 1 2.5.5-2.5.5zm63 0 3.5.5-3.5.5zm-76 1 2.5.5-2.5.5zm92 0 5.5.5-5.5.5zm-104 1 2.5.5-2.5.5zm-442 1 1.5.5-.5 1.5q-2.5-1-1-2Zm401 2 5.5.5-5.5.5zm-10 1 2.5.5-2.5.5zm-80 3 14.5.5-14.5.5zm28 0 3.5.5-3.5.5zm21 0 11.5.5-11.5.5zm-75 2 4.5.5-4.5.5zm-12 1 10.5.5-10.5.5zm-87 1 23.5.5-23.5.5zm-14 1 6.5.5-6.5.5zm-28 1 5.5.5-5.5.5zm-26 1 7.5.5-7.5.5zm-26 1 8.5.5-8.5.5zm-19 1 5.5.5-5.5.5zm232 0 89.5.5-37 1-.5 1.5-2-2h-50zm279 0 8.5 1.5-5 1-1 7 1.5 3.5 1.5-.5-1 1v10l-1 2 .5 1.5q-1.2-2.2-2.5.5l1 2q-1.2 2.8-2.5.5l-5.5 5.5-2.5 3.5-1.5.5-1 2q2.3 1.3-.5 2.5v-2l-2 1-1-2-2.5 1.5.5 1.5-2-1-2.5 1.5.5 1.5q-.7-1.7-4-1l-2 2-7.5.5 4 1-3.5.5q-.7-1.7-4-1-1 2-2 0h-9l-4.5 1.5 10 1-11.5.5q-1-2-5-1-1.2 2.3-6 1l-1.5-1.5 2.5-2.5 6-2h10l5-2h16l5-2 6-5h3l1 1 4.5-4.5 2-3-1-2 4-5-3-1v-2l4-6v-5l-6.5-.5-1 1h-5l-1 1h-5l-1 1h-5l-1 1-11 1-6 2-11 1-6 2-11 1-4 2-1-1-1.5.5 1-2h-2l-1-5 1.5.5 3-1h5l1-1h5l6-2h5l1-1h5l6-2h5l1-1h5l1-1h5l1-1h5l1-1h5l1-1 11-1zm-527 1 4.5.5-4.5.5zm104 0h17l1 1 1-1h37v1l-37.5.5 1.5 2.5q3.3-.8 4 1h13l1-1h34l1-1h47l1 1h50l1 1h21l2-1 .5 2.5-1.5-.5h-24l-1-1h-56l-1-1h-34l-1 1h-35l-1 1h-17l-6-2-1 1h-48l-1 1h-44v-1h31l1-1q1 2 2 0l5 1 1-1h51l1-1 1.5.5-.5-2.5h-17zm-124 1 7.5.5-7.5.5z" opacity=".984"/><path fill="#373737" stroke="#373737" d="m165.5 158 15.5.5-15.5.5zm271 0 .5 1.5-2.5 2.5-.5-.5zm66 0 2.5.5-2.5.5zm-455 1 8.5.5-8.5.5zm84 0 15.5.5-15.5.5zm-34 1 14.5.5-13.5.5q-.8 1.8-4 1v-1zm-87 1 2.5 2.5-.5.5-2.5-2.5zm63 0 8.5.5-8.5.5zm42 0 4.5.5-4.5.5zm-62 1 6.5.5-6.5.5zm-22 1h7l1 1 24.5.5-27.5.5q-1-2-5-1zm69 0 2.5.5-2.5.5zm11 0 2.5.5-2.5.5zm285 0 8.5.5-8.5.5zm21 0h11l2 1 1.5-.5-2.5 1.5-1-1h-11zm22 0 1 1h13l2.5 1.5q-3.3 2.1-4.5 6.5l-1-2-1 2-1-1h-6q-.7-1.7-4-1l-1 2-1.5-3.5zm-414 1 3.5.5-2 1 10 1-11.5.5-2.5-1.5zm462 1h18l6 2q12.3 4.8 19.5 14.5l5 9 2 6q-1 4 1 5v9l-1 1v4l-4 9v2l-5.5 7.5-14 11-2-1v2l-2-1-5 2h-18l-1-1h-3l-6-2-13.5-10.5-8-12-1-6-1-1v-4l-1-1v-8l1-1 1-8 3-6-2-2 .5-.5 2 1 8.5-9.5v-2q-2.2-1.2.5-2.5l-.5 1.5 1.5 1.5 12-7 6-1zm1.5 1-1 1h-3l-6 2-7 4q-9 6-14 16l-3 9v6l-1 1 2 14 7 12 9 7 6 2q1 2 2 0l1 3h4l3 1 3-2 5 2 2-1 2 1 3-1q0 2 4 1l2-3 3-2q3-1 5 1l4-2q8-6 13-15l3-8v-5l1-1v-5l-1-1v-6l-1-3-3-7-6-8-9-8-10-4-4 1 5 1 1 2 1 3 3-1 4 2 10 11-1 2 5 15-2 14-1 1h-2l1 2-1-1-5 8-3 3h-1l6-7 3-6 1-7 1-1q1-5-1-6l1-3-2-2v-3l-5-9-1-1-3-3-8-5v-1l-1-2-3 1h2v1l-7-1-1-1-11 1-6 2-5 4h-2l-9 12-2 6v5l-1 1 1 2v7l1 3 6 10 3 3-7-7-1-3-3-3-3-3-1-10-1-1 1-7 1-1v-4l4-9q4-6 12-9l6-2h4l5-4h10zm-449.5 0-.5 1.5-.5 1.5-1.5.5 3.5 2.5 6 2 7-3v1l-8 3q-1.4-2.6-6-2l-3.5-2.5.5-2.5zm427 0 .5.5-5.5 5.5-1-1-2 2-.5-.5 3.5-3.5 1.5.5 1.5-2.5zm-446 1 2.5.5q-2 1 0 2l2 8-1.5.5.5-1.5-1-1-1-5-2-3zm35 1 9.5.5-9 1-.5 1.5zm472 0 2.5 1.5.5 1.5 3.5 2.5-.5 1.5-1-1-1.5.5.5-1.5-1.5-.5-3-4zm-458 1 3 1 1.5-.5q-1.2 2.8-2.5.5-3 .5-2-1Zm325 0 2.5.5-2 1 4.5.5 3-1v1l-2.5.5 4.5.5 1 1h4l1-1h7v1l-1.5.5 8 4-1.5 6.5-3-4-13-6h-8l-3.5 1.5-.5 3.5-1.5-6.5zm29 0 3.5.5-.5 2.5-1-2q-3 .5-2-1Zm-8 1 3.5.5-3.5.5zm-402 1 .5 2.5h-1z" opacity=".984"/><path fill="#373737" stroke="#373737" d="m70.5 171 .5.5-5.5 5.5-.5-.5zm144 0h7l9 4 20.5.5-20.5.5-9-4h-2l.5 1.5v15l1 1 .5 7.5 1-1h26l1-1h14v1q-4-1-5 1h-33q-.7 1.8-4 1l-2.5-1.5v-11l-1-1-.5-12.5q-4 .8-3-1Zm192 0 2.5.5-2.5.5zm16 0 2.5.5-2.5.5zm207 0-.5 1.5-.5 1.5-.5-1.5zm-529 1 2.5.5-2.5.5zm13 0 2.5.5-2.5.5zm97 0 2.5.5-6.5 2.5h-8l-1 1h-14v-1h14l1-1h7zm132 1 49.5.5q1.7 1.8 1 6-1 1.5-2-1l-.5-4.5h-48zm-86 1 79.5.5-78.5.5q-.8 1.8-4 1v-1zm272 0 2.5 2.5-.5.5-2.5-2.5zm-429 1h17q.8 1.8 4 1l12 6 9.5 9.5 4 7 2 6 1 11q-2.2 1.3-1 6l-5 12-10.5 10.5-8 5-6 1-1 1h-18l-1-1h-3l-6-2q-9.2-5.3-15.5-13.5l-5-9v-3l-2-5v-9l1-1 1-7 3-6-.5-1.5 5.5-4.5 2.5-3.5 7-5zm1.5 1-1 1-6 1-12 7-8 9-5 12v15l2 6 4 7 9 8 3 2 7 2 2 2q3 1 4-1l2 1h-2v1q3 1 4-1 4-1 6 1 1-2 2 0 4 1 7-1l1-2q2-3 9-2l7-5 6-7 5-12v-14l-5-12-3-4-8-8-11-5-4 1 6 3-1 2h5l4 2 9 10-2 2 5 13-1 11-2 4-1-1-2 4-2 2h-1l5-8q-1-5 1-5v-7q-2-1-1-5l-4-8-4-5-14-8h-14l-11 5-8 8-4 7q1 3-1 4v11l5 11 7 7-15-16-1-7-1-1v-7l2-5v-3l5-9 8-6 6-2h5l6-4h9zm47.5-1 32.5.5-14.5.5-1 1-1-1h-6l-1 1-7.5.5 2 2-.5.5-3.5-3.5z" opacity=".984"/><path fill="#373737" stroke="#373737" d="m383.5 175 6.5.5-.5 3.5-2-1-14 7-5 4-3 1h-14v-1h8l12-8zm153 0 4.5 4.5-.5.5-4.5-4.5zm-2 1q2.5 1 1 2l-1-1-1.5.5zm-82 1 .5.5-2 2 1.5 1.5 1.5-.5-1.5 1.5q-1.3-2.2-2.5.5l1 2-1.5-.5-1.5 1.5-1.5 5.5-1-1h-4l-1-1h-3l-7.5-2.5-1-2h2l-1-2h2l-1-2q1-1.5 2 1l.5 1.5 6 2h8l1.5-2.5-2-1zm-418 4 .5 1.5-4.5.5v-1q3.3.8 4-1Zm356 0q2.3.8 1.5 4.5-1 1.5-2-1z" opacity=".984"/><path fill="#373737" stroke="#373737" d="m26.5 182 1 2h15l1-1v3l-1.5-.5-.5 1.5h-6l-2-2-7.5-.5z" opacity=".984"/><path fill="#373737" stroke="#373737" d="m36.5 182 5.5.5-5.5.5zm501 1 3 4 2.5 1.5 1 3h-1l-1.5-3.5-1.5.5q-.7 3.3 1 4-1 2.5-2 1 .8-3.2-1-4l1-2-3 1q2.5-.5 2-4zm-468 1 .5.5-3 3-4 6-1.5 4.5-.5-3.5zm-22 1-.5 1.5 3 3-1 2q2.3 1.3-.5 2.5l-1-1-1.5.5 3-4-2-1-.5-1.5-1.5-.5zm374 0q1.5 1-1 2l-2.5-.5zm-276 1 6.5 7.5-1.5.5-4.5-5.5zm244 1 1.5 2.5-1.5.5zm7 0 11.5.5-11.5.5zm-23 1 12.5.5-12.5.5z" opacity=".984"/><path fill="#373737" stroke="#373737" d="M415.5 188q5.3-1.2 6.5 1.5l-1.5-.5h-5z" opacity=".984"/><path fill="#373737" stroke="#373737" d="m427.5 188 .5 2.5-4.5 4.5-3 1h-7l-1 1-22.5.5v8l-1 1 12.5.5 1-1h41l.5 3.5h-1l-.5-1.5-27-1-1 1h-25l-3-1-1 1h-14l-1 1h-41l-1 1h-50l-1 1h-42l-1 1-10.5.5 27.5.5 1-1h49l1-1h41v1h-41l-1 1h-48l-1 1-27.5.5 1 6 1.5 2.5 19.5.5.5 1.5 1.5.5-8.5.5-1-1h-13q-.7-1.7-4-1l-2 1v-1l3-2 1.5.5-1-6-2-4v-5l-2.5-7.5-3.5-.5 52.5-.5 1-1h51l1-1h42l1-1h42l1-1h12l3-1 4.5-4.5zm-56.5 9-1 1h-42l-1 1h-49l-1 1-55 1 1 7 2 2h23l1-1h46l1-1h31l1-1q4 1 7-1l10-7 6 1-9 6v1h24l1-1q3-1 4 1l1-1h14v-7l1-1z" opacity=".984"/><path fill="#373737" stroke="#373737" d="m393.5 189 10.5.5-10.5.5zm228 0 .5.5-2.5 2.5-.5-.5zm-292 1 12.5.5-12.5.5zm43 0 10.5.5-10.5.5zm-340 1 3.5.5-3.5.5zm275 0 12.5.5-12.5.5zm43 0 9.5.5-9.5.5zm58 0 5.5.5-5.5.5zm-123 1 12.5.5-12.5.5zm43 0 9.5.5-9.5.5zm50 0 7.5.5-7.5.5zm67 0 .5 2.5h-1zm-182 1 8.5.5-8.5.5zm42 0 8.5.5-8.5.5zm44 0 6.5.5-6.5.5zm195 0 3.5 3.5-.5.5-3.5-3.5zm-265 1h8l1 1 5.5.5-7.5.5-1-1h-6zm40 0 6.5.5-6.5.5zm222 0q2.5 1 1 2l-1-1-1.5.5zm-337 1 10.5.5-10.5.5zm-194 1 2.5.5-2.5.5zm9 0 3.5.5-3.5.5zm25 0 2.5 1.5-1.5-.5q-2.4-.1-1-1Zm9 0 .5 5.5h-1zm100 0 6.5 6.5-.5.5-4-4q-1.2 2.3-2.5-.5l1-1zm36 0 3.5.5-3.5.5zm-161 1 9.5.5-10 1 1 11q2 1 1 5l1.5 1.5 1.5.5-1.5 2.5-3.5-6.5-1-12-1-1z" opacity=".984"/><path fill="#373737" stroke="#373737" d="M199.5 197q6-1.5 7.5 1.5l-8.5.5q-1.5-1 1-2Zm-189 1 9.5.5-9 1 1.5 1.5 1.5-.5-1 1 .5 1.5-3.5-3.5zm45 0 .5 3.5 2 2-1.5 2.5-.5-1.5.5-1.5-1.5-.5zm129 0 11.5.5-3.5 1.5h-11l-1 1q-2.5-1-1-2 4 1 5-1Zm364 0 4.5 5.5h-3q2.5-1.5-1-3zm-519 1 4.5.5-4.5.5zm65 0 .5 1.5-2.5 2.5-.5-.5zm447 0 .5 3.5h-1zm-346 1 19.5.5-19.5.5zm-10 1 6.5.5-6.5.5zm-22 1 .5 2.5-1.5.5.5-1.5zm279 0 .5 2.5h-1zm8 0 .5 7.5h-1zm-26 2 16.5.5-16.5.5zm92 0 1.5.5-2.5 2.5-.5-.5zm10 2 .5 2.5q-1 2.5-2 1zm15 2 .5 2.5h-1zm2 0 3.5.5-3.5.5zm24 0 10.5.5-10.5.5zm-174 1 35.5.5-35.5.5zm48 0 .5 2.5h-1zm-422 1 2 1 1.5-.5-1 1 4.5 4.5 1.5-.5-1 1 2 2-.5.5-9.5-8.5zm326 0 38.5.5-38.5.5zm-23 3 7.5.5-10.5 6.5-5.5.5 36.5.5 5.5 2.5-1.5.5-5-2h-4l-3 1q-.7-1.8-4-1v2q-.5-2.5-4-2l-2 2q-4.2-.7-5 2-4.8-.8-7 1-1-2-5-1l-1 1h-28l-1 1q-1.2-2.3-6-1l-3 1-1-1-4.5-.5 4.5-1.5h7l3 1 .5-1.5-8.5-1.5-5 2-3-1q-.7 1.7-4 1-1-2-2 0l-12-1q-1 2-2 0l-1.5-.5 15.5-.5 1-1 49.5-.5-5-1zm.5 9-3 2h4v-1zm-34 1-1 2 5 1 1-2zm13 0v1q4-1 6 1l1-1h5zm-267.5-8 18.5.5-18.5.5zm408 0 1.5 2.5-.5 1.5 4.5.5-5.5.5-1 1-3-1-1.5.5-.5-1.5h-11l-1 1-2-1q-1 2-2 0l-3 1h-6v-1h6l1-1h21l2.5-1.5zm-1.5 3q-2 1 1 2v-1zm-398.5-1 2.5.5-2.5.5zm6 0 5.5.5-5.5.5zm399 0 2.5.5-2.5.5zm-62 2 23.5.5q-1.3 2.8-2.5.5h-5l-1 1-5.5.5 4 1-4.5.5-2-1q-1.2 2.2-6 1l-1-1h-10l-3 1q-.5-2.5-4-2l-1 2-3-1q-1 2-5 1-1-2-2 0l-2-2-3.5-.5 32.5-.5zm-294 1 2.5 2.5-.5.5-2.5-2.5zm327 1 10.5.5-10.5.5z" opacity=".984"/><path fill="#373737" stroke="#373737" d="m406.5 222 14.5 1.5-8.5.5q-1.3-2.2-6-1zm-216 1 6 1 1-1h20v1l-5 1-3-1-4 2h-6l-1 1-1-2-14 1-3-1v2l-1-1h-6l-3 1v-1q2.2-1.8 7-1l1-1h6q1 2 2 0 3.3.8 4-1Zm-24 1 1 1 1.5-.5-1.5 1.5q-2.5-1-1-2Zm66 2q3-.5 3.5 1.5l-3.5 1.5q-3-1.5 0-3Zm28 1 6.5.5-6.5.5zm-42 1 9.5.5-3.5 1.5q-1.2-2.2-6-1-1 2-5 1v-1q4 1 5-1Zm28 0q1.5 1-1 2l-1.5-.5zm-39 1 2.5 1.5-1.5.5q-2.5-1-1-2Zm21 1 6.5 1.5-3.5.5-3-1zm12 0 2.5.5-6.5 2.5-.5-1.5zm236 0 4.5 3.5-1.5-.5-3.5-2.5zm40 0 .5.5-2.5 2.5-2 1q-1.5-1 1-2zm-384 1 .5.5-4.5 4.5-.5-.5zm398 3 .5.5-5.5 5.5-.5-.5zm-23 1 1.5.5-4.5 1.5v-1zm-416 2 6.5 3.5-1.5.5-4-2q-2.5-1-1-2Zm399 0 12.5.5-12.5.5zm-367 1q1.5 1-1 2l-1.5-.5zm18 0 .5.5-6.5 6.5-.5-.5zm-23 2 1.5.5-4.5 1.5v-1zm-19 1 2.5.5-2.5.5zm4 1 9.5.5-9.5.5zm381 6 24.5.5-24.5.5zm-388 4 23.5.5-23.5.5z" opacity=".984"/><path fill="#f8f9f8" stroke="#f8f9f8" d="m321.5 64 32.5.5-48.5 1.5v-1h15zm-89 46 1.5.5q-1 2.5-2 1zm46 3 .5 2.5-1.5.5.5-1.5zm-112 3 21.5.5-16.5.5-1 1h-36l-1 1h-21v-1h18l1-1h34zm55 0 1.5.5-.5 1.5-1.5-.5zm-136 5 5.5.5-4.5.5-1 1zm185 0 .5 3.5h-1zm321 0 17.5.5-17.5.5zm21 1 6.5.5-6.5.5zm-535 1 3.5.5-3.5 1.5zm543 0 2.5.5-2.5.5zm5 1 5.5 6.5q-1 1.5-2-1l-4-5zm-433 1 14.5.5-14.5.5zm70 2 6.5.5q-1.2 2.8-2.5.5h-4zm-28 1q2.5 1 1 2l-3.5-.5zm-185 5 3.5.5-3.5 1.5h-6v-1q4.8 1.3 6-1Zm-30 14 2.5.5-3.5 1.5h-3v-1q3.3.8 4-1Zm-15 52 1.5 3.5H5zm503 51 2.5.5-2.5.5z" opacity=".008"/><path fill="#4b4949" stroke="#4b4949" d="m313.5 64 4.5.5-4.5.5zm41 0 8.5.5-8.5.5zm28 2 2.5.5-2.5.5zm9 1 3.5.5-3.5.5zm9 1 3.5.5-3.5.5zM.5 79l271.5.5-1.5 1.5H.5zm0 4 266.5.5-1.5 1.5H.5zm400 2h3l4.5 3.5-1.5-.5-6-2zM.5 87l261.5.5-1.5 1.5H.5zm0 5 255.5.5L.5 93zm279 0 .5.5-2.5 2.5-.5-.5zM.5 96l250.5.5L.5 97zm517 5 .5 2.5h-1zm-278 3 1.5.5-2.5 1.5q-1.5-1 1-2Zm293 3 1 2 2.5.5-2.5.5q-2.4-.9-1-3Zm-298 1 1.5.5-2.5 1.5q-1.5-1 1-2Zm-5 4 1.5.5-2.5 1.5q-1.5-1 1-2Zm23 3 1.5.5-4.5 3.5-.5-.5zm-96 1 5.5.5-5.5.5zm63 0 1.5.5-.5 1.5-1.5-.5zm-93 1 4.5.5-4.5.5zm444 0 4.5.5-4.5.5zm-461 1 2.5.5-2.5.5zm479 1 14.5 1.5-11.5.5-3-1zm18 1 3.5.5-3.5.5zm12 0q1 2 2 0l1.5.5-2 1 6.5 1.5 3 3q1.3-2.3 2.5.5l-1 3 1 2h-1q-1.1-5.4-5.5-7.5l-5-1-1.5.5q2.3-1.3-.5-2.5-1 2-5 1v-1q4 1 5-1Zm-534 1 .5 1.5-4.5.5v-1q3.3.8 4-1Zm161 0 1.5.5-2.5 1.5q-1.5-1 1-2Zm155 0 .5 2.5h-1zm-324 2 .5 1.5-3.5.5v-1zm181 5 9.5.5-9.5.5zm-198 1 3.5.5-3.5.5zm-5 2 3.5.5-3.5.5zm-27 6 5.5.5-4.5 1.5h-5v-1q3.3.8 4-1Zm-27 11 6.5.5-6.5.5zm12 2 .5 1.5-2.5.5v-1zm625 7 2.5.5-2.5.5zm1 2 1.5.5q-1 2.5-2 1zm-629 24 3.5.5-3.5.5zm-9 2 3.5.5-3.5.5zm19 34 4.5.5-4.5.5zm16 0 .5 4.5h-1zm281 9 7.5.5-7.5.5zm93 0 17.5.5-17.5.5zm-138 1 4.5.5-4.5.5zm-62 3 3.5.5-3.5.5zm276 18 4.5.5-4.5.5zm6 0 15.5.5-3.5 1.5q-.7-1.7-4-1-1 2-2 0h-6zm-393 4 19.5.5-19.5.5z" opacity=".004"/><path fill="#00376e" stroke="#00376e" d="m280.5 71 3.5.5-3.5.5zm124 159 3.5.5-3.5.5z" opacity=".008"/><path fill="#313131" stroke="#313131" d="m310.5 66 9.5.5-9.5.5zm46 0 6.5.5-6.5.5zm-54 1 2.5.5-2.5.5zm79 1 3.5.5-3.5.5zm10 1 4.5.5-4.5.5zm10 1 2.5.5-2.5.5zm-90 8q4.1-.6 5.5 1.5l-4.5.5q-2.5-1-1-2Zm28 0 5 1 1-1h6v1l-3.5.5 17.5.5 3-1v1l-1.5.5.5 1.5h4l5-2-1 3h3l4-2 .5 1.5q-2.1 2.4-7.5 1.5l-1-1h-7l-1-1-2 1-1-1h-27l-1-1-7.5-.5 4.5-.5 1-1 3 1zm-34 1q2.5 1 1 2l-2.5-.5zm-6 1 .5 1.5-1.5.5q-1.5-1 1-2Zm-6 1q2.5 1 1 2l-1.5-.5zm95 1 1.5.5q-.5 2-3.5 1.5v-1zm-101 1 2.5 2.5-.5.5-2.5-2.5zm108 0 .5 1.5-2.5.5v-1zm5 1 1.5.5-3.5 2.5q-2.5-1-1-2zm-118 2 1 1 1.5-.5-1 1 2 2-.5.5-1-1-2 2-.5-.5 2-2-2-2zm-7 1 .5.5-2.5 2.5-.5-.5zm132 0-.5 1.5 1 1-.5 2.5-1.5-1.5q2-1 0-2zm-127 2-.5 1.5 2 2-.5.5-2.5-2.5zm-11 3 .5.5-4.5 4.5-.5-.5zm6 1 1 1 1.5-.5q-2 1 0 2l-1.5 1.5-1-1-1.5.5q2-1 0-2zm-4 3q1.5 1-1 2l-1.5-.5zm9 0 .5 1.5-5.5 4.5-.5-1.5zm-17 1 .5.5-4.5 4.5-.5-.5zm144 0 .5 2.5h-1zm-140 1 .5.5-3.5 3.5-12 9q-1.5-1 1-2zm3 1q2.5 1 1 2l-1-1-2.5 2.5q2.3 1.3-.5 2.5l-1.5-1.5zm-13 3 .5.5-4.5 4.5-.5-.5zm14 1 1.5.5-2.5 2.5-.5-.5zm-7 1 .5.5-2.5 2.5-.5-.5zm4 2 .5.5-2.5 2.5-.5-.5zm-17 1 .5.5-4.5 4.5-.5-.5zm6 3 .5.5-3 3-.5 1.5-1.5-.5zm-12 2 .5.5-3.5 3.5-.5-.5zm4 1 2.5 2.5-4.5 4.5-.5-.5 3-3-1.5-1.5-2 1q-1.5-1 1-2zm-10 4 .5.5-2.5 2.5-.5-.5zm5 0-.5 1.5 1 1-1 1 1 1-2.5 2.5-.5-.5 2-2-1.5-1.5-2 1q-1.5-1 1-2zm-115 2 2.5.5-2.5.5zm442 0 3.5.5-3.5.5zm-462 1 2.5.5-2.5.5zm129 2 .5.5-2 2 2 2-1.5 1.5-1.5-.5-.5 1.5-.5-1.5 2-2-.5-.5-1.5-.5zm-6 1 .5.5-2.5 2.5-.5-.5zm10 3 .5.5-4 4-.5 1.5-2.5-.5zm124 2 3.5.5-3.5.5zm5 0h9l1 1 13.5.5-17.5.5q-1.3-2.2-6-1zm-45 1h7l4.5 1.5-8.5.5-3-1zm-30 1 5.5.5-5.5.5zm-49 1 2.5.5-2.5.5zm39 0 8.5.5-8.5.5zm-269 18q1.5 1-1 2l-1.5-.5zm-11 13 1.5 2.5q-1 1.5-2-1zm537 47 3.5.5-3.5.5zm-525 9 7.5.5-7.5.5zm311 6 1.5.5-2.5 1.5q-1.5-1 1-2Zm-14 2 2.5.5-2.5.5zm125 0 10.5.5-10.5.5zm-169 1 4.5.5-4.5.5zm15 0 18.5.5-18.5.5zm-34 1 7.5.5-7.5.5zm-42 2 3.5.5-3.5.5z" opacity=".412"/><path fill="#b6b6b5" stroke="#b6b6b5" d="M308.5 76h44l1 1h14l1 1h8l1 1h6l1 1h5l6 2h5l1 1 12.5 2.5-3.5.5-2-1-.5.5 2 2 2 3v6h-1v-6l-6.5-6.5-9-1-1-1h-5l-1-1h-5l-1-1-15-1-1-1h-21l-1-1h-31l-1 1h-7l-1 1-10 1-9 3-19 15-.5-.5 3.5-3.5 13-11 8-4 8-1 1-1h8z" opacity=".996"/><path fill="#b6b6b5" stroke="#b6b6b5" d="m308.5 83 3.5.5-5.5 1.5v-1zm32 1 5.5.5-5.5.5zm20 1 3.5.5-3.5.5zm55 1 12.5 2.5-4.5.5-1-1-7-1zm-13 3 1.5 2.5q-1 1.5-2-1zm27 0 10 2 1 1h3l1 1h3l1 1h3l1 1h3l4 2h3l1 1h3l7.5 2.5-2.5.5-5-2h-4l-1-1-7-1-11-4-11-2-3-1zm9 6-.5 1.5-2.5 8.5-.5-3.5q1.8-.7 1-4zm-28 3 .5 2.5h-1zm41 0 1.5.5-.5 1.5q-2.5-1-1-2Zm-172 2-.5 1.5-.5 1.5-.5-1.5zm171 0-.5 1.5-.5 2.5-.5-2.5zm25 1 2.5.5-2.5.5zm-11 1 1.5.5-.5 1.5q-2.5-1-1-2Zm-189 1 .5.5-2.5 2.5-.5-.5zm159 3 1.5 2.5q-1 1.5-2-1zm14 0 1.5 2.5q-1 1.5-2-1zm28 0 1.5 3.5q-1 1.5-2-1zm-43 4 1.5 2.5q-1 1.5-2-1zm56 1 1.5.5-.5 1.5-1.5-.5zm-226 2 .5.5-3.5 3.5-.5-.5zm169 1 1.5 2.5q-1 1.5-2-1zm14 0 1.5 2.5q-1 1.5-2-1zm14 0q2.5 1 1 2l-1.5.5.5 1.5q-2.8-1.2-.5-2.5zm14 0q2.5 1 1 2l-1.5-.5zm-220 1 .5.5-8.5 8.5-.5-.5zm16 1-.5 1.5-.5 1.5-.5-1.5zm7 6q2.5 1 1 2l-1.5-.5zm169 1 21.5.5-21.5.5zm-10 1 5.5.5-5.5.5zm168 0 2.5.5-2.5.5zm-355 1 1 1 5.5.5-5.5.5q-2.5-1-1-2Zm182 0 2.5.5-2.5.5zm-31 5 17.5.5-17.5.5zm-64 1 31.5.5-31.5.5zm-49 1 28.5.5-28.5.5zm-21 1 5.5.5-5.5.5zm133 0 .5 2.5h-1zm-173 1 11.5.5-11.5.5zm163 1 3.5.5-.5 1.5-3-1zm7 0 .5 2.5h-1zm123 1 11.5.5-11.5.5zm13 0 27.5.5-27.5.5zm36 1 8.5.5-8.5.5zm54 0 .5.5-2.5 2.5-.5-.5zm-38 1 17.5.5-17.5.5zm-198 6 2.5 1.5-1.5.5q-2.5-1-1-2Zm-369 8 .5.5-2 2q-1 4 1 5l-1.5.5-.5-5.5zm468 5 2.5.5-2.5.5zm-464 3 2.5.5-2.5.5zm613 1 1.5.5v3l3 6-3.5 6.5-4 3 .5-1.5-2-2 1-5q-3.5-1.5-1-3l-2-3zm-533 3 11.5.5-11.5.5zm-11 1 4.5.5-4.5.5zm28 0 2.5.5-2.5.5zm414 0 .5 1.5-3.5.5v-1zm-482 1 1.5.5-2 1 3.5.5 1.5 1.5-1.5-.5-3 1-3.5-2.5 1.5.5zm48 1 14.5.5-14.5.5zm-58 1 1.5.5-1.5 2.5zm53 0 2.5.5-2.5.5zm23 0 2.5.5-2.5.5zm13 1 6.5 3.5-1.5-.5-5-2zm-87 1 2.5.5-2.5 1.5zm30 4 .5.5-3 3 .5 1.5-1.5-1.5zm426 1 4.5.5-4.5.5zm-355 2 6.5 6.5-.5 1.5 2.5 1.5 2 3-.5.5-5.5-5.5 1-1-6-6zm348 0h10q.8 1.8 4 1 9 3.5 14.5 10.5l4 7 1 7 1 1q-1 1.5-2-1v-4l-3-7-6.5-7.5-9-5q-3.2.8-4-1h-10l-1 1-6 1-1.5 1.5 2 4-1.5 1.5-2-2-2 2-.5-.5 1.5-2.5 2.5-1.5-1.5-.5-8.5 7.5-3 5-1.5 5.5-.5-2.5q3.7-10.3 12-16-2.2-1.2.5-2.5v2zm-423 2 .5.5-2.5 2.5-.5-.5z" opacity=".996"/><path fill="#b6b6b5" stroke="#b6b6b5" d="m494.5 179 2.5.5.5 1.5q1.2-2.3 6-1l6.5 3.5-1.5.5-2-1-3 2 .5-1.5-1.5-2.5q-4.2-.7-5 2l-1-2-5.5.5-.5 2.5q-.5-2.5-4-2l-1.5.5.5-1.5 3-1h5zm-350 2 2.5 2.5-.5.5-2.5-2.5zm-39 3 5.5.5-5.5.5zm383 0-.5 1.5 1 1-1.5 1.5-.5-2.5zm23 0 2.5 2.5-.5.5-3 1 .5-1.5zm-411 1 1 2 1.5.5-.5 1.5 6-1 1 2q1-2 5-1l8.5 4.5.5 1.5q3-.5 3.5 1.5l-.5 1.5-3-2q-1.3 2.3-2.5-.5l1-1-2.5-2.5-2.5.5-.5 1.5-1.5-1.5q2.3-1.2-.5-2.5l-4.5.5-.5 1.5q-1-3-6-2l-.5 1.5.5 1.5-5-3v2l-2-1-2.5 1.5 3 1-.5 2.5-3-3-.5.5-3 5 .5.5 3-3 1.5.5-2 1-.5 1.5-1.5.5q.5 3-1.5 3.5l-.5-1.5 1-2-1.5-.5-2.5 3.5v2l1.5-.5 1.5.5-2 1 .5 1.5-2-2-.5.5-1 4 1.5.5 1-2 .5 1.5-1.5 2.5-1.5.5.5 4.5 2.5.5-2 3 2.5 3.5 2-1v1l-1.5.5 3.5 4.5 1.5-.5.5-1.5.5 1.5-1 2 4.5 2.5 1-1 3 3 5-1q1.5 3.5 3 1l3.5-.5-1-2 .5-.5 2 2q4.1.6 5.5-1.5l-1-3 .5-.5 2 2 3.5-2.5-.5-1.5-1.5-.5 3.5-4.5.5 1.5-2 3 1.5-.5 1.5-.5 2-3-3-2 4-1 .5-2.5 1.5-.5-.5-1.5-2.5.5-.5 1.5q-2.7-1.2-.5-2.5v-7l-1-1 3-1-2.5-4.5-2 1q-2.5-1-1-2l3-1 3.5 5.5v3l1.5 3.5 1.5-.5-1-6-5-7 1.5.5 1.5.5 5 13-2 1-2 6 3 2 1 2-2 1 .5 1.5-1.5.5.5 1.5-1.5.5q2.3 1.3-.5 2.5l-2 1-1-1-3 3-9 5h-2v-1q10.7-2.3 15.5-10.5l3-6-1.5-.5-4.5 7.5-3.5 3.5-9 5-10 1-1-1-7-1-6.5-4.5-.5-1.5-3.5-2.5-4-8-.5-8.5-1.5 1.5-.5 3.5-.5-3.5q2-1 0-2l-1-3h1l1.5 3.5 1.5-2.5-.5-1.5 1.5-.5-1-2 3-2 2-4-.5-1.5q1 2 2 0l1.5-.5-.5-1.5q-1 2-2 0l-3.5 2.5-1.5 4.5-1-1-1.5.5 3-2q-2.5-1.5 1-3l2.5-3.5 4-3zm-.5 2-2 1v1q3 1 3-1zm-5 2-3 3h1l4-2zm36 19-1 5h2v-4z" opacity=".996"/><path fill="#b6b6b5" stroke="#b6b6b5" d="M104.5 186h8l6.5 2.5-1.5.5-5-2h-8zm-73 1 11.5.5-11.5.5zm462 0 3 1 2-1 1 2 1-2 .5 2.5q-2 1-1 5l3-1 .5 1.5q3-.5 2.5-4.5l-.5-1.5 1.5.5v3l2 3-4 2 1.5 2.5q1-2 2 0l1.5-.5-.5-1.5 2 2 1.5-.5 1.5 2.5 1.5-.5-.5 1.5h-3l-3.5 1.5q2.5 1.5-1 3l1.5 1.5 4-2 .5 1.5-4 1 3 1-4 1q1.3 2.8 2.5.5l2.5 2.5-3-1-.5 1.5-2-3-2.5 1.5-1 2 1.5 1.5 1-1 1 1 1.5-.5-1.5 2.5-2-1-2 5-.5-3.5.5-1.5-1.5.5q.5 3-1.5 3.5l.5-1.5-1.5-2.5-2-1-.5 3.5 1 2q-1 1.5-2-1l-.5-1.5-2 3-1-2-1.5.5-.5-3.5-2.5 1.5-.5 2.5q-2.8-1.2-.5-2.5l-.5-1.5-2 2-.5-.5-1.5-2.5-1.5-.5q1-2.5 2-1l1.5 2.5.5-1.5-1-2q3.7-1.7.5-3.5l-4 2-1-2-2.5-.5-1-2 2-1-2-2 .5-.5q1 2 5 1 3-1.5 0-3l-5.5-.5 3-1-4-1 2.5-1.5 3 1 1.5-.5q.5-3-1.5-3.5l-1.5-.5 1.5-.5 4 3 1.5-1.5-4-4 .5-.5 3.5-1.5-.5-1.5 1.5.5-1 3 1.5.5 1-3 3 4q2.3-.7 1.5-4.5-1.7-.7-.5-2.5Zm2.5 1-1 3 2-1 2 1v-1zm11 5-1 2h2q1-1-1-2Zm-11 2-10 7 2 11 2 1q3-1 5 1 3 1 4-1l3 1 3-5q-1-5 2-6l-1-2-2-2-1 2 2 1h-1q-1-2-2 0l-2-1-1-1h-1v-1l-1-1h2l1-1 1 1h1l-4-4zm-16 13q-2 1 1 2l1-1zm10 8q-3 1-1 2h1zm-9.5-28 1.5.5-3.5 2.5q-3.2-.7-4 1l-.5-1.5q.5-2 3.5-1.5 1.5 2.5 3-1Zm-360 1 3.5 1.5-.5 1.5-3.5-2.5z" opacity=".996"/><path fill="#b6b6b5" stroke="#b6b6b5" d="m511.5 189 2.5 1.5-2 1 .5 1.5-2-1-1.5.5 3-2zm4 0 2.5 1.5 3 5 1 3v6l1 1-1 1v6l-3.5 6.5-.5-1.5 1-2-2-1 .5-1.5 2 1q2.1-1.4 1.5-5.5l-1.5-.5-1 3-.5-4.5 3-1-.5-5.5-2 1-2.5-5.5q1-1.5 2 1l.5 2.5 1.5-.5v-2l-2.5-3.5-2 1-.5-1.5 2-1-2-2zm-476 1h6l1.5 1.5-.5 1.5q-1.2-3.2-7-2zm378 1 2.5.5-2.5.5zm-414 1 4 2 2-1 1.5 2.5-1.5.5-1-2-1 1-1-1-1.5.5-.5-1.5q-2.4-.1-1-1Z" opacity=".996"/><path fill="#b6b6b5" stroke="#b6b6b5" d="M32.5 192h11l1.5 1.5-1.5-.5-4 2q-.7-1.7-4-1-1 2-5 1v-1l4.5-.5-2.5-.5zm376 0 6.5.5-6.5.5zm69 0 .5 1.5q-1 2.5-2 1zm-378 1 1.5.5-.5 1.5q-2.5-1-1-2Zm27 0 3.5 2.5-1.5-.5q-3.8-.7-2-2Zm252 0 18.5.5-18.5.5zm94 0 1.5.5-1 2 2 1-.5 1.5-2-1q-2.1 1.4-1.5 5.5l1.5.5 1-3 1.5.5-2 3 .5 1.5-2.5.5.5 5.5 1-1 2.5 2.5-1.5-.5-1.5.5v2l2.5 3.5 2-1q2.5 1 1 2l-2.5.5 3 3-.5.5-2-1-.5 1.5q3.7 4.8 9.5 7.5l6 2 11.5.5-11.5.5-10-4-6-6-1 1-2.5-2.5q1-2.5 2-1-2.2 1.3.5 2.5l1.5-2.5-2.5-3.5-1.5.5 1-3-2-3v-5l-1-3q2.3-1.3 1-6zm-123 1 20.5.5-20.5.5zm-336 1 2.5.5-2.5.5zm95 0 1.5 2.5-1 2q1 1.5 2-1l.5-1.5.5 2.5q-2.3 1.3.5 2.5l3 1 2.5-1.5-2-2 .5-.5 1.5.5.5 1.5 3-2-.5 1.5 2 2-.5.5-2.5.5-.5 1.5-1.5-.5-1 2 3.5 1.5 2-2q1 2 2 0l1.5.5-2 2 .5.5 1.5.5-6 1 2 3-.5 1.5 3.5.5-4 1 3 1-3 2 1 2-.5.5-3-3-2.5 2.5q3.5 1.5 1 3l-.5 1.5-1.5.5-.5 1.5-1.5-2.5h2l-.5-1.5-4.5.5-.5 3.5-1-2-1.5 1.5.5 1.5-1.5-.5-.5-1.5-1.5.5 1-2-2.5-1.5-2 1-1.5-.5-.5 1.5-3.5-1.5 2-1-3-1 4-2 1-2q-1.3-2.8-2.5-.5l-4 3-1.5-3.5 1.5-.5q1.3 2.3 2.5-.5l-2.5-1.5-2 1v-1l1.5-.5-2-1 7-1-2.5-2.5-5.5-.5 6-1-.5-1.5 1.5-.5.5-1.5q1.2 2.3 2.5-.5l1-4-.5-.5-2 2-2.5-1.5 4.5-2.5 1.5.5.5-2.5 3 6q2-.5 1.5-3.5l-1-2 1.5.5zm.5 1-2 3q1 1 2-1zm-1 7v2l-1-1-3 1q-3 1-1 2l3-1v3h-1l-3 4 5 5 2-1v3h-2l-2-2q0-2-3-2l-2-3 2-1q2-1 1-3l-2-2q-3 1-1 3h-2l3 10 2-1v2l2-1 1 1h8q2 0 1-3l-1-1q-1-2-2 0h-2l2-3q2-1 0-2h2l1-1-1 2h2l1 2 1-4h-1v-1l-2-3-1 2-2 1-3-3-1 1h-1l3-3 3 2h1l-4-4zm208.5-8 30.5.5-30.5.5zm-35 1 31.5.5-31.5.5zm-34 1 24.5.5-24.5.5zm-240 1q2.8 1.3.5 2.5l5 5 2.5 3.5q1.3-2.2 2.5.5l1 2-2 1 1.5 2.5 3.5-.5-2-2 .5-.5 3.5 3.5-.5 1.5 1.5.5-3.5.5v-2q-5.3.7-6-3l-1.5.5 1-2h-2l.5-1.5-1.5-.5.5-1.5-1.5-.5-.5-2.5-1.5-.5-2-4 1-1zm485 0 2.5 1.5-.5 1.5-1.5-.5-.5 1.5-2-1-2 1v-1zm-25 3 .5 4.5-2.5 5.5-.5-8.5h1l.5 3.5zm22 2 1 1 1.5-.5q-4 2 0 4l-2.5 2.5-1.5-4.5 2-1z" opacity=".996"/><path fill="#b6b6b5" stroke="#b6b6b5" d="m473.5 206 1.5.5q-1 2.5-2 1zm28 0 2.5.5q.5 3-1.5 3.5l-2.5-.5q2-1 0-2zm-9 3q1.3 2.3 6 1l1.5 1.5h-2l-.5 1.5-4.5-.5q2.3-1.2-.5-2.5l-1.5.5zm-370 2 1.5.5-.5 1.5q-2.5-1-1-2Zm405 0 .5 1.5q-1 2.5-2 1zm-441 2 1.5.5q-1 2.5-2 1zm381 0 1.5 2.5-.5 1.5 2-1-.5 1.5-.5 2.5-1.5-.5.5-1.5-1.5-.5 1-2-2-1zm-386 3 2.5 8.5 7.5 8.5 6.5 3.5-1.5.5q-7.1-3.4-11.5-9.5l-4-8zm434 0 .5 1.5-1 2 3 1q-4.7 6.3-12.5 9.5l-3 1h-7q-1-2-2 0h-4l-7.5-3.5.5-1.5 3 2 .5-1.5-3-3 .5-.5q1.1 2.4 4.5 2.5l-1 3 5.5 1.5 2-2 .5.5.5 1.5 5.5-.5q-.5-3 1.5-3.5l3-1q1.5 1-1 2l-2.5.5 2.5 1.5 4.5-2.5-.5-1.5-1.5.5 1.5-2.5 2 3 3.5-4.5-2-1 2-1q-.5-3 1.5-3.5Zm-379 2 1.5.5-.5 1.5q-2.5-1-1-2Zm-49 1 1.5 2.5h-1z" opacity=".996"/><path fill="#b6b6b5" stroke="#b6b6b5" d="M480.5 222q2.8 1.3.5 2.5l-.5 2.5-2.5-2.5.5-.5 2.5-.5zm38 1-.5 1.5 1 1-1.5 1.5-1-1-3 3-4 2v-1q5.8-2.2 9-7Zm-28 2v2l2.5.5-2.5.5q-3-1.5 0-3Zm-405 6 2.5 2.5-.5.5-2.5-2.5zm17 0q2.5 1 1 2l-1.5-.5zm404 0 1.5.5-4.5 1.5v-1zm-14 5 2.5.5-2.5.5zm6 0 2.5.5-2.5.5zm-399 1 3 1 11.5.5-11.5.5-3-1zm7 4 4.5.5-4.5.5z" opacity=".996"/><path fill="#646565" stroke="#646565" d="m348.5 67 6.5.5-6.5.5zm11 0h3l3.5 1.5-2.5.5q-.7-1.7-4-1zm13 1q3-.5 3.5 1.5l-3.5.5zm11 1 2.5 1.5-3.5.5q-1.5-1 1-2Zm10 1q3-.5 3.5 1.5l-3.5.5zm9 1 2.5 1.5-2.5.5zm7 1q2.5 1 1 2l-1.5-.5zm5 1 2.5 1.5-1.5.5q-2.5-1-1-2Zm4 1 5.5 1.5-3.5.5-2.5-1.5zm-96 3 7.5.5-7.5.5zm-14 1 2.5.5-2.5.5zm44 0 6.5.5-6.5.5zm17 1 2.5.5-2.5.5zm70 0 2.5.5-2.5.5zm-159 2 1.5 2.5q-1 2.5-2 1l1-2h-2zm-3 2 .5.5-4.5 4.5-.5-.5zm63 2 4.5.5-4.5.5zm14 0 2.5.5-2.5.5zm7 1 4.5.5-4.5.5zm7 0 2.5.5-2.5.5zm-77 2 1.5.5-2.5 1.5q-1.5-1 1-2Zm-21 1 .5.5-2.5 2.5-.5-.5zm167 4 4.5 1.5-1.5.5-3-1zm-172 6-.5 1.5 1 1-1.5 1.5.5-1.5-1-1zm157 3 1.5.5-2.5 3.5-.5-.5 2-2zm-149 1 .5.5-2.5 2.5-.5-.5zm5 2 .5 1.5-1.5 2.5-.5-1.5zm-9 1 .5.5-2.5 2.5q-1-2-2 0l-1.5-1.5 1.5.5 1-1 1 1zm11 3-.5 1.5-.5 2.5-.5-2.5zm211 0 1.5.5-.5 1.5q-2.5-1-1-2Zm-251 5 .5.5-2.5 2.5-.5-.5zm-4 3 .5.5-4 4 .5 1.5-2-1-4.5 4.5 2 2-.5.5-3.5-2.5zm230 1 2.5.5-2.5.5zm-321 1 2.5.5-2.5.5zm104 0q2.5 1 1 2l-1-1-3 3-.5-.5zm185 0 2.5.5-2.5.5zm5 0 2.5.5-2.5.5zm78 0 4.5.5-4.5.5zm-89 1 3.5.5-3.5.5zm121 0 1 1 7.5.5-4.5.5-1 1q-1-2-2 0l-1.5-.5 1-1zm-433 1 2.5.5-2.5.5zm414 0 3.5.5-3.5.5zm15 0 2.5 1.5-2.5.5zm37 0 .5 1.5-1.5.5q-1.5-1 1-2Zm-492 2 2.5.5-2.5.5zm122 0 1.5.5q-1 2.5-2 1zm183 1-.5 1.5-.5 2.5-2.5-.5 2-1zm-147 2q2.5 1 1 2l-1.5-.5zm100 2 16.5.5-16.5.5zm52 0 2 1 3-1q2.5 1 1 2l-6.5-.5zm-193 1q3 1.5 0 3l-1.5-.5zm66 0q1 2 2 0l1.5 1.5-2.5.5q-2.5-1-1-2Zm44 0 8.5.5-8.5.5zm92 0 6.5.5-6.5.5zm-126 1 7.5.5-7.5.5zm57 0 15.5.5-15.5.5zm-109 1 3.5.5-4 1 4 1-7.5.5q-1.5-1 1-2zm66 0 10.5.5-10.5.5zm-133 1 3.5.5-3.5.5zm16 0q1.1 2.4 4.5 2.5l-4.5.5zm75 0 2.5.5-2.5.5zm-68 1 2.5 1.5-1.5.5q-2.5-1-1-2Zm4 0 14.5.5-14.5.5zm-39 2 9.5.5-9.5.5zm234 2 1.5.5-2.5 1.5q-1.5-1 1-2Zm-329 3 6.5.5-6.5.5zm163 0 .5 1.5q-1 2.5-2 1zm-170 1 4.5 1.5-10.5.5v-1q4.8 1.3 6-1Zm16 0 3.5.5-3.5.5zm-37 3 3.5.5-3.5.5-3 2-.5-1.5 1.5.5zm362 1 2.5.5-2.5.5zm-7 1 2.5.5-1.5 1.5q-2.5-1-1-2Zm-85 4 5.5.5-5.5.5zm193 12 3.5.5-3.5.5zm6 0 2.5.5-2.5.5zm-33 12 .5.5-3.5 3.5-.5-.5zm-456 13-.5 1.5-.5 1.5-2-1-2 1v-1zm12 4 2.5.5-.5 1.5-2.5-1.5zm-7 1 3.5.5-3.5.5zm376 3 2.5.5-2.5.5zm-126 1 2.5.5-2.5.5zm81 0 3.5.5-3.5.5zm-48 1 4.5.5-4.5.5zm-48 1 3.5.5-3.5.5zm202 2 .5 3.5h-1zm48 5q1.5 1-1 2l-1.5-.5zm-48 2 .5 2.5h-1zm-55 1 5.5.5-5.5.5zm-246 1 .5 3.5h-1zm390 1 .5 2.5h-1zm-475 4 .5 2.5h-1zm340 10 2.5.5-2.5.5zm-174 5 2.5.5-2.5.5z" opacity=".714"/><path fill="#85857b" stroke="#85857b" d="m297.5 66 8.5.5-8.5.5zm-8 2 4.5.5-7.5 2.5h-3v-1zM.5 91l256.5.5L.5 92zm508 7 1.5.5-.5 1.5-1.5-.5zm3 1 58.5.5-57 1 .5 1.5-2.5-1.5zm9 3 42.5.5-39.5.5-3 1zm4 2 35.5.5-34 1 .5 1.5-2.5-1.5zm9 3 21.5.5-18.5.5-3 1zm-306 7 1.5.5q-1 2.5-2 1zm51 2 1.5.5q-1 2.5-2 1zm-179 3 14.5.5-14.5.5zm511 1h7l1 1q1-2 2 0l7 1 2.5 2.5 2 3v2h-1v-2l-4.5-4.5-2.5.5.5 1.5-1.5-1.5.5-1.5q-3.2-.7-4 1-1-3-6-2-1.5 3.5-3 1l-1.5-.5zm-401 2 1.5.5q-1 2.5-2 1zm60 1 1.5 2.5q-1 2.5-2 1zm-7 3 2.5.5-5.5 1.5v-1zm-197 1 3.5.5-3.5 1.5h-3v-1zm-8 3 3.5.5-3.5.5zm-5 2 2.5.5-2.5.5zm-15 3 6.5.5-5.5.5-1 1h-5v-1q4 1 5-1Zm-15 3q2.5 1 1 2l-8 2v-1zm-12 6 1.5.5-1.5 1.5H.5v-1h9zm1 5 5.5.5-5.5.5zm-10 37 1.5.5q-1 2.5-2 1zm542 25 .5 3.5h-1zm-512 10 1.5.5-.5 2.5-1.5-.5zm377 9 45.5.5-45.5.5zm-290 24 4.5.5-4.5.5z" opacity=".004"/><path fill="#717171" stroke="#717171" d="m268.5 98 .5.5-2.5 2.5-.5-.5zm-15 12-.5 1.5-.5 1.5-.5-1.5zm21 3 .5.5-2.5 2.5-.5-.5zm-27 2-.5 1.5-1.5 2.5.5-1.5zm-3 8 .5.5-2.5 2.5-.5-.5zm-7 5 .5.5-2.5 2.5-.5-.5zm-14 1q1.5 1-1 2l-1.5-.5zm-159 11 10.5.5-8.5.5-1 1h-12v-1h10z" opacity=".42"/><path fill="#f3f3f2" stroke="#f3f3f2" d="m277.5 113 .5 1.5-1.5.5q-1.5-1 1-2Zm0 7 2.5.5-2.5.5zm-41 5 .5.5-3.5 3.5-.5-.5zm5 4 3 1 6.5.5-6.5.5q-1-2-2 0l-3.5-.5zm16 0 9.5.5-.5 1.5-1-1h-8z" opacity=".384"/><path fill="#dcdcdc" stroke="#dcdcdc" d="m278.5 95 .5.5-2.5 2.5-.5-.5zm-35 24 .5.5-2.5 2.5-.5-.5zm-10 2 .5.5-2.5 2.5-.5-.5zm-5 4 .5.5-2.5 2.5-.5-.5zm47 0q2.5 1 1 2l-1.5-.5zm-33 2 1 3 1.5-.5q-1.5 3-3 0zm10 2 2.5 1.5-3.5.5q-1.5-1 1-2Z" opacity=".635"/></svg>