<svg xmlns="http://www.w3.org/2000/svg" viewBox="0 0 640 587"><path fill="#303030" stroke="#303030" d="M25.5 0h10l1 1 4.5.5.5 1.5 3-1 1 2 2-1L51 4.5l.5 1.5 1.5-.5.5 1.5 1.5-.5L56.5 9q1.3-2.2 2.5.5l1.5 2.5q3-.5 3.5 1.5l2.5 3.5q1.3-2.3 2.5.5l2.5 3.5 1-1 2.5 2.5 1.5 2.5 1-1 2.5 2.5 1.5 2.5 1-1 2.5 2.5 2.5 3.5 1.5-.5 3.5 4.5q1.3-2.2 2.5.5l1.5 2.5 3.5 1.5 2.5 3.5 1-1 2.5 2.5 2.5 3.5q1.3-2.2 2.5.5l2.5 3.5q1.3-2.3 2.5.5l2.5 3.5q1.3-2.2 2.5.5l1.5 2.5q4-.5 4.5 2.5l1.5 2.5 1-1 2.5 2.5 2.5 3.5q1.3-2.2 2.5.5l2.5 3.5q1.3-2.2 2.5.5l2.5 3.5q1.3-2.2 2.5.5l2.5 3.5 1-1 2.5 2.5 1.5 2.5 1-1 2.5 2.5 2.5 3.5q1.2-2.2 2.5.5l1.5 2.5q3-.5 3.5 1.5l1.5 2.5q3-.5 3.5 1.5l2.5 3.5q3-.5 3.5 1.5l2.5 3.5q1.3-2.2 2.5.5l2.5 3.5q1.3-2.2 2.5.5l1.5 2.5q3-.5 3.5 1.5l2.5 3.5q1.3-2.3 2.5.5l1.5 2.5q4-.5 4.5 2.5l1.5 2.5 1-1 2.5 2.5 1.5 2.5q3-.5 3.5 1.5l2.5 3.5q1.3-2.2 2.5.5l1.5 2.5q4-.5 4.5 2.5l.5 1.5q4-.5 4.5 2.5l2.5 3.5q1.3-2.2 2.5.5l2.5 3.5q1.2-2.2 2.5.5l2.5 3.5q1.3-2.2 2.5.5l.5 1.5h2l5-3h5l5 2 4.5 3.5-1.5.5-3-1v1l1.5.5-1.5.5-3-1v1l1.5.5-1.5.5-2-1v2l-3-1v1l1.5.5-1.5.5-2-1v2l-2-1v2l-2-1-1.5 1.5.5 1.5-2-1v2l-2-1-1.5 1.5.5 1.5q-1-2-2 0l-1.5.5 1 1-2.5 2.5q-1-2-2 0l-6.5 5.5-2 3q2.3 1.3-.5 2.5-1.2-2.2-2.5.5l1 2-1.5 1.5-1.5-.5 1 2-1.5-.5-1.5 1.5 1 2h-2l1 2h-2l1 2h-2l1 2h-2l1 2h-2l1 3h-1l-.5-1.5-.5 2.5.5 1.5-1.5-.5 1 4h-1l-.5-1.5-.5 3.5 1 2h-1l-.5-1.5-1.5 4.5v6l.5 1.5-4.5-3.5-2-3-1-6 1-3-1.5-3.5q-1.2 2.3-2.5-.5l-2.5-3.5-1 1-2.5-2.5-1.5-2.5-1 1-2.5-2.5-.5-1.5-1.5-.5-.5-1.5q-1.2 2.3-2.5-.5l-2.5-3.5q-1.2 2.3-2.5-.5l-1.5-2.5q-4 .5-4.5-2.5l-1.5-2.5-1 1-2.5-2.5-1.5-2.5-1 1-2.5-2.5-.5-1.5-4.5-2.5-1.5-2.5q-3 .5-3.5-1.5l-2.5-3.5-1 1-2.5-2.5-1.5-2.5-1 1-2.5-2.5-1.5-2.5q-3 .5-3.5-1.5l-2.5-3.5q-1.2 2.3-2.5-.5l-2.5-3.5q-1.2 2.3-2.5-.5l-2.5-3.5-1 1-2.5-2.5-1.5-2.5-1 1-2.5-2.5-.5-1.5-1.5-.5-.5-1.5q-1.2 2.3-2.5-.5l-2.5-3.5q-1.3 2.3-2.5-.5l-2.5-3.5q-1.2 2.3-2.5-.5l-2.5-3.5-1 1-2.5-2.5-2.5-3.5q-1.2 2.2-2.5-.5l-.5-1.5-1.5-.5-.5-1.5q-1.2 2.3-2.5-.5l-1.5-2.5q-3 .5-3.5-1.5l-1.5-2.5q-3 .5-3.5-1.5l-2.5-3.5-1 1-2.5-2.5-1.5-2.5-1 1-2.5-2.5-1.5-2.5q-3 .5-3.5-1.5L57.5 94q-1.2 2.3-2.5-.5L53.5 91q-3 .5-3.5-1.5L48.5 87q-4 .5-4.5-2.5L41.5 81q-1.2 2.2-2.5-.5L36.5 77q-1.2 2.3-2.5-.5L31.5 73q-1.2 2.3-2.5-.5L26.5 69q-1.2 2.3-2.5-.5L21.5 65l-1 1-2.5-2.5-1.5-2.5h-2L11 57.5q2.3-1.2-.5-2.5L8 53.5l.5-1.5-1.5-.5.5-1.5-1.5-.5.5-1.5-1.5-.5.5-1.5-1.5-.5.5-1.5-1.5-.5 1-2-2-1 1-3-2-1q1-4-1-5v-8l1-1 .5-4.5 1.5-.5-1-2 2-1q-2-1 0-2L5.5 10 9 7.5 9.5 6q1.3 2.3 2.5-.5l.5-1.5 1.5.5.5-1.5 2 1 1-2 2 1 1-2 3 1zM23 18l-1 2-1-1-3 3 1 2-2 1h2v2l3 2q3-1 4 1v-1l3-2-2-6-1-1-1-1zm13 10-1 2-4 2v2l-1 3h2l2 3q1-2 6-1v-2l2-1v-2l-1-1v-1l-1-1-1-1h-1l-1-1zm12 10-1 2-1-1-1 2h-1v2h-1l-1 3h2l-1 2 3 2 1-1q3-1 4 1v-1l3-2-1-1 1-3zm12 10-1 2h-1l-2 3v4l3 3q0-2 4-1l4-4-2-1 1-2-2-3-1 1-1-1zm13 10-1 2-1-1-1 2-2 1v2l-1 2 4 4q1-2 6-1 2-1 0-2l2-1v-3l-4-3-1-1zm12 10-1 2-1-1q-2 1-2 4h-1l-1 3 5 3q3-1 4 1v-1l3-2q-2-1-1-4l-3-4zm12 10-1 2-3 2v2l-1 3h2l2 3q0-2 4-1l4-3v-2l-1-1v-1l-2-3-1 1-1-1zm13 10-1 2-1-1-1 2-2 1-1 4h2l-1 2 3 2q0-2 4-1l1 1 3-3-1-2 1-2-1-1-2-2h-1l-1-1zm12 10-1 2-1-1-3 3 1 2-2 1h2l2 5 2-1 3 1 2-3q1-5-1-6l-1-1-1-1zm13 10-1 2-4 2v2l-1 3h2l2 3q1-2 6-1 2-1 0-2l2-1v-2l-1-1v-1l-1-1-1-1h-1l-1-1zm139.5 55h12l1.5 1.5-3.5.5q-.7-1.7-4-1l-1 2h-7q-.7 1.8-4 1v-1l5.5-1.5zm24 4 2.5.5-2.5.5zm35 2v2l6.5 3.5-1.5 2.5-1-1-1.5.5.5-1.5-2.5-1.5.5-1.5-2.5 1.5 1 2q-1 2.5-2 1l1-2-1-1 2-2-.5-.5-3 2-.5-.5 2.5-2.5zm-37 4 1.5.5v2l-2.5 3.5v-2l-1.5-.5zm22 1 2.5 1.5-1.5-.5q-2.4-.1-1-1Zm-55 3 2.5 1.5q.5 3-1.5 3.5l-2.5-3.5z" opacity=".996"/><path fill="#303030" stroke="#303030" d="m333.5 177 3 2 1.5-.5-1.5 2.5-1-2q-1.2 2.3-2.5-.5zm9 3 1.5.5-2.5 1.5q-1.5-1 1-2Zm-16 6 .5 3.5-2.5 1.5-1.5-2.5 1.5-.5 1.5.5zm14 3 5.5 3.5-.5 1.5-1-1-1.5.5.5-1.5-3.5-2.5zm-49 5 4.5 1.5-.5 4.5-.5-3.5-1.5-1.5-3 1q-1.5-1 1-2Zm-54 2v2q3-.5 3.5 1.5l-1.5-.5-1 1-1-1-2.5-1.5zm52 1 .5 3.5h-1zm60 2 1.5.5 2 4-1 3 .5 1.5-2.5-3.5q2-1 0-2l-.5-1.5-1.5.5zm-55 4 .5 2.5h-1zm50 10 1.5.5-.5 2.5zm-132 11 .5 2.5h-1zm12 1 2.5 2.5-1.5 1.5-3.5-1.5zm131 1 1.5.5-.5 1.5q-2.5-1-1-2Zm-71 5 .5 2.5h-1zm9 0 2 1 3-1 .5 4.5 1 1h-2l-.5 1.5-2-1-6.5 4.5-1 5 1 2h-2l1 2-1.5-.5-3.5-.5q1.3-4.8-1-6l1.5-1.5 5-1 4.5-3.5-1-1 1-1-1-1 .5-1.5-1.5-.5zm-80 4 1.5 1.5v7q-1.7.8-1 4h2l-.5 5.5-1.5-.5q-1.8-2.2-1-7l-1-1v-6z" opacity=".996"/><path fill="#303030" stroke="#303030" d="m285.5 235-.5 1.5.5 1.5 2.5-1.5-.5-1.5q2.8 1.3.5 2.5l-.5 1.5q-3 .5-3.5-1.5zm71 0 .5 9.5h-1zm-101 8 1.5.5-2 1-.5 3.5-.5-3.5zm107 0q3.8 2.7 5.5 7.5l.5 10.5q1.3-2.2 2.5.5l1.5 2.5q4-.5 4.5 2.5l1.5 2.5 1-1 2.5 2.5.5 1.5 1.5.5.5 1.5q1.3-2.2 2.5.5l2.5 3.5q1.3-2.2 2.5.5l2.5 3.5q1.3-2.2 2.5.5l2.5 3.5 1-1 2.5 2.5 1.5 2.5 1-1 2.5 2.5 2.5 3.5q1.3-2.2 2.5.5l2.5 3.5q1.3-2.2 2.5.5l1.5 2.5q3-.5 3.5 1.5l2.5 3.5 1-1 2.5 2.5 1.5 2.5 1-1 2.5 2.5 1.5 2.5q3-.5 3.5 1.5l1.5 2.5 2.5.5 3.5 4.5q1.3-2.2 2.5.5l2.5 3.5 1-1 2.5 2.5 1.5 2.5q3-.5 3.5 1.5l2.5 3.5q1.2-2.2 2.5.5l1.5 2.5q3-.5 3.5 1.5l2.5 3.5q1.2-2.2 2.5.5l3.5 4.5q1.3-2.2 2.5.5l2.5 3.5q1.3-2.3 2.5.5l2.5 3.5q1.3-2.2 2.5.5l2.5 3.5q1.3-2.2 2.5.5l2.5 3.5 1-1 2.5 2.5 1.5 2.5 1-1 2.5 2.5 2.5 3.5q1.2-2.2 2.5.5l2.5 3.5q1.3-2.3 2.5.5l1.5 2.5q3-.5 3.5 1.5l2.5 3.5 1-1 2.5 2.5 1.5 2.5 1-1 2.5 2.5.5 1.5 1.5.5.5 1.5 1.5-.5 3.5 4.5 1.5-.5 2.5 3.5q4-.5 4.5 2.5l1.5 2.5 1-1 2.5 2.5 1.5 2.5q3-.5 3.5 1.5l1.5 2.5q3-.5 3.5 1.5l2.5 3.5q1.3-2.2 2.5.5l2.5 3.5 1-1 2.5 2.5 1.5 2.5 1-1 2.5 2.5.5 2.5 1.5-.5-4 3 1 1-2.5 2.5-2.5 1.5 1 1-2.5 2.5-2.5 1.5 1 1-3.5 3.5-1.5.5 1 1-3.5 3.5-2.5 1.5 1 1-2.5 2.5-2.5 1.5 1 1-2.5 2.5-2.5 1.5 1 1-2.5 2.5-2.5 1.5 1 1-3.5 3.5-2.5 1.5 1 1-2.5 2.5-2.5 1.5q2.3 1.3-.5 2.5v-2l-3-2-1.5.5-2.5-3.5q-3 .5-3.5-1.5l-2.5-3.5-1 1-2.5-2.5-1.5-2.5-1 1-2.5-2.5-1.5-2.5-1 1-2.5-2.5-1.5-2.5q-3 .5-3.5-1.5l-1.5-2.5q-3 .5-3.5-1.5l-2.5-3.5-1 1-2.5-2.5-1.5-2.5-1 1-2.5-2.5-2.5-3.5q-1.2 2.3-2.5-.5l-2.5-3.5q-1.2 2.3-2.5-.5l-2.5-3.5q-1.3 2.3-2.5-.5l-2.5-3.5-1 1-2.5-2.5-1.5-2.5-1 1-2.5-2.5-2.5-3.5q-1.2 2.3-2.5-.5l-2.5-3.5-2.5-.5-2.5-3.5q-1.2 2.3-2.5-.5l-2.5-3.5-1 1-2.5-2.5-1.5-2.5-1 1-2.5-2.5-2.5-3.5q-1.3 2.3-2.5-.5l-1.5-2.5q-3 .5-3.5-1.5l-1.5-2.5q-3 .5-3.5-1.5l-2.5-3.5-1 1-2.5-2.5-1.5-2.5-1 1-2.5-2.5-1.5-2.5q-3 .5-3.5-1.5l-1.5-2.5q-3 .5-3.5-1.5l-1.5-2.5q-4 .5-4.5-2.5l-.5-1.5q-4 .5-4.5-2.5l-2.5-3.5q-1.2 2.3-2.5-.5l-2.5-3.5q-1.2 2.2-2.5-.5l-2.5-3.5q-1.2 2.3-2.5-.5l-1.5-2.5q-4 .5-4.5-2.5l-1.5-2.5-1 1-2.5-2.5-2.5-3.5q-1.2 2.3-2.5-.5l-2.5-3.5q-1.2 2.3-2.5-.5l-2.5-3.5q-1.2 2.2-2.5-.5l-2.5-3.5-1 1-2.5-2.5-1.5-2.5-1 1-2.5-2.5-2.5-3.5q-1.2 2.3-2.5-.5l-2.5-3.5q-1.2 2.3-2.5-.5l-1.5-2.5h-2l-3-3-1 2-3 1h-8l-3-1-2.5-2.5.5-1.5-1.5-.5 1.5-.5 3 1v-2l3 1 2.5-1.5-.5-1.5 2 1v-2l2 1v-2l2 1v-2l2 1v-2l2 1-.5-1.5 1.5-1.5 2 1-.5-1.5 1.5-1.5 2 1 1.5-1.5q-2.2-1.2.5-2.5 1.5 2.5 3-1l6.5-5.5 1-2-1-1 2.5-2.5 1.5.5 1-2-.5-1.5q1.2 2.3 2.5-.5l-1-2h2l-1-2 1.5-1.5 1.5.5-1-2h2l-1-2h2l-1-2h2l1-4-.5-1.5 1.5.5-1-3h2l-1-4h1l.5 1.5.5-3.5-1-2h1l.5 1.5zm4.5 16-1 3h1z" opacity=".996"/><path fill="#303030" stroke="#303030" d="m360.5 244 .5 2.5h-1zm-13 1 2.5 1.5-1.5-.5q-2.4-.1-1-1Zm-89 3 2.5.5-5.5 1.5v-1zm-22 1q2.5 1 1 2l-1.5-.5zm9 3q2.5 1 1 2l-1.5-.5zm-17 5 1.5.5-1.5 3.5-1-2-1 2-.5-1.5zm-7 6 1.5 2.5q-1 1.5-2-1zm112 11 1 2 1-2 .5 1.5-1.5 2.5-1.5-2.5zm-102 7 1.5.5 1 2-.5.5-2.5-2.5zm15 2 1 2 1.5-.5-3.5 2.5v-1l1.5-.5q-1.7-.7-.5-2.5Zm31 5 2.5 2.5-.5.5-2.5-2.5zm31 4 2.5 3.5q-1 2.5-2 1l-.5-2.5-1.5-.5zm-32 3 1.5.5q-2 1 0 2l-1 2 .5 1.5-2.5-2.5.5-.5 1.5.5-.5-1.5-1.5-.5zm-24 5 2 2 1.5-.5 1 2-2.5.5-2.5-3.5zm55 3 1.5.5-4.5 1.5v-1zm-8 2q1.5 1-1 2l-1.5-.5zm-36 1q3.3-.7 4 1l2-1 2.5 1.5-4.5 1.5-3-1q-2.5-1-1-2Zm26 0 2.5.5-2.5 1.5zm-6 1 3.5.5-3.5.5zm305 121q3.8-.7 4.5 1.5l-5.5 6.5-2.5-3.5zm34 25 5.5 4.5 1 2-2 1-1.5 2.5h-3l-3.5-3.5q.3-4.7 3.5-6.5Zm-55 9 2 1 1-1 4.5 4.5-3.5 4.5-5.5-4.5-.5-1.5q-1.2 2.2-2.5-.5l.5-1.5 1 2 1-2zm15 10 1.5 2.5-3.5 3.5-1.5-1.5zm-42 15 4.5 2.5-5.5 6.5-2.5-1.5v-3zm73 3 5.5 4.5-.5 1.5q-3.9-.6-5.5-3.5zm-7 3 2.5.5q-.5 3 1.5 3.5l2-1 2.5 3.5h-1l-.5-1.5-2 3-2 1 .5-1.5-2.5-2.5-3.5-.5zm-3 10h2l4.5 3.5-2.5 3.5.5-1.5-5-5zm-31 12h2l3.5 3.5 1 2-3.5 4.5-3-1-3.5-3.5q.6-3.9 3.5-5.5Zm-278 60h9l2 1q1-2 5-1 1 2 2 0h6l1 1 1-1h20l.5 10.5-64.5 1.5-.5-10.5 17.5-.5z" opacity=".996"/><path stroke="#000" d="m246.5 163 1.5.5-4 3-35 42-3.5 5.5.5-1.5 2-4zm17 1 2.5.5q-25 7.5-39 26l-11 19-2 6v3l-1 1-1.5 10.5-.5-6.5 1-1v-3l1-1v-3l2-6 6-12 4-6 10.5-11.5 14-10zm17 0 3.5.5-3.5.5zm22 4 2.5.5-2.5.5zm4 1 5 1 6.5 3.5-1.5.5-3-2-7-2zm24 0 .5.5-3 3-.5 1.5-.5-1.5zm1 2 .5.5-2.5 2.5-.5-.5zm2 1v2l4.5 2.5.5 1.5 1.5-.5-2.5 3.5.5-1.5-.5-1.5-2 2-.5-.5.5-1.5-2-1-1.5.5 1-3-3 1zm8 6 .5 1.5-3.5 3.5-.5-.5zm1 3 .5.5-2.5 2.5-.5-.5zm-52 1 3.5.5q1.7 1.8 1 6h-1q1-4.5-1.5-5.5-3-.5-3.5 1.5l-.5 1.5-.5-1.5zm-27 4 8 5 1.5-.5-2.5 3.5-2-4-5-3-1 2-.5-1.5zm35 1 .5 1.5-3.5 3.5-.5-.5.5-1.5 2.5-1.5zm17 5 2.5 1.5-1.5-.5-4 3-.5-.5zm28 0 2 2q1.3-2.2 2.5.5l2 4-1 2 2 3q-1 1.5-2-1l-6-10z" opacity=".996"/><path stroke="#000" d="m237.5 195 2.5 2.5-.5.5-2-2-1.5.5zm81 0q4-.5 4.5 2.5-.6 3.9-3.5 5.5l-.5-.5 2-2 1-3q-.5-2-3.5-1.5l-2 2-.5-.5zm-72 2q4-.5 4.5 2.5l.5 5.5 1.5-.5 1.5-2.5-.5 1.5-2.5 3.5q-2.4-2.1-1.5-7.5l-1.5-1.5q-3-.5-3.5 1.5l-.5 1.5-.5-1.5zm-7 8 8 6 1.5-.5-3.5 3.5-.5-.5 1-2q-1.9-3.6-6.5-4.5l-1.5.5zm91 8 6 4 1.5-.5-1 1 2 2-.5.5-3-1-2 3-1.5-.5.5-1.5 1.5.5 1-3-3.5-3.5-.5.5-.5 1.5zm13 0v2l1.5.5-3.5.5-.5-.5zm-108 9 6 5h2l1.5-.5-3.5 4.5.5-1.5-4.5-5.5-2-1-1 2-.5-1.5zm120 0 .5 3.5h-1zm1 6 .5 6.5h-1zm-127 1 8 6 1.5-.5-3.5 3.5-.5-.5 1-2-6.5-4.5-1 2-.5-1.5zm68 1 2.5 1.5q1 4.5-1.5 5.5l.5-1.5-.5-4.5q-2.4-.1-1-1Zm36 9-.5 1.5-1 3 1.5 1.5 3-3q4-.5 4.5 2.5v2l-3.5 3.5-.5-.5 3-3q.5-3-1.5-3.5h-2l-3 3q-3-.5-2.5-4.5zm28 3 .5 5.5-1 1v4l-1 1v3l-3 9-4 8q-6.4 11.1-15.5 19.5-12.5 12-32 17v-1l5-1 15-7q11.9-7.6 20.5-18.5l6-9 5-11 2-6v-3l1-1v-5l1-1zm-73 1 .5 3.5h-1zm-74 1 .5 3.5h-1zm68 0 1 6 3.5-.5.5-1.5.5 1.5q-1 2.5-5.5 1.5zm64 1v2l3.5.5-3.5.5q-3-1.5 0-3Zm-108 2h3l4.5 4.5-.5.5-4-4q-3.3-.7-4 1-1.5-1 1-2Zm-1 4 4 4h3l1.5-.5q-.7 2.3-4.5 1.5l-3.5-2.5zm-6 5h2l6 5 1.5-.5-2.5 3.5-1.5-.5 1-2q-1.9-3.6-6.5-4.5l-2 3 .5-1.5z" opacity=".996"/><path stroke="#000" d="m366.5 259 .5 2.5-42.5 50.5-.5-.5 5-5 35-42zm-43 4 .5.5-2 2q-.5 3 1.5 3.5l1.5-.5.5 2.5 3 1q2-.5 1.5-3.5l-1.5-1.5-3.5-.5 4.5-.5q2.3.8 1.5 4.5l-3.5 2.5-6.5-5.5q-.5-4 2.5-4.5Zm-99 7 7.5 10.5-.5.5-3.5-3.5-4-7zm27 2h3l4.5 3.5q1 5.5-2.5 6.5l-.5-.5 2-2v-3l-3.5-3.5q-3.2-.7-4 1-1.5-1 1-2Z" opacity=".996"/><path stroke="#000" d="m249.5 275 4.5 3.5-1.5.5-3.5-3.5zm87 0 .5 1.5q-1 2.5-2 1zm-34 3 5.5 9.5h-1l-4.5-7.5-3 3-.5-.5zm-27 4 3.5.5-.5 1.5-3-1-1 2-.5-1.5zm4 3q3.8-.7 4.5 1.5l-.5 2.5-2-3-6 2q-2.5-1-1-2l3 1zm-2 4 3 2 2-1v1l-3 1-2.5-2.5zm-21 13 9.5 3.5-5.5 1.5-4.5-2.5 1-1zm36 4 4.5.5-4.5.5zm290 126 9.5 7.5-2 4-17.5 20.5-5-4h-2l-2.5 4.5 6 5-19.5 23.5-9.5-7.5 1-3zm-8 35h2l5.5 4.5v2l-3.5 3.5-6.5-5.5zm40 22 5.5 4.5-.5 1.5-5.5-4.5zm-5 5 4.5 4.5v2q-.5 2-3.5 1.5l-4.5-3.5 1.5-.5 4 3 1.5-2.5-4-3zm-7 10 5.5 4.5-1.5.5-4.5-4.5z" opacity=".996"/><path fill="#717171" stroke="#717171" d="M293.5 163h5l3.5 1.5-.5 1.5-4 1q-1-2-5-1l-1 1h-13l-1 1h-5l-6 2-.5-1.5 4.5-1.5h4l1-1h12l1-1 4.5-.5zm38 4 1.5 1.5-3.5 3.5-.5-.5 3-3zm-2 1 .5.5-3 3-.5 1.5-.5-1.5zm-66 1 1.5.5-.5 1.5-1.5-.5zm26 3 .5 3.5h-1zm-41 1q1.5 1-1 2-4.8 1.7-7.5 5.5l1.5.5 2-2 .5.5q-2 1 0 2l-1.5 1.5-2-1-8.5 9.5q2.3 1.3-.5 2.5l-1-1-2.5 2.5 1 2-1.5-.5-1.5 1.5-1 3 .5 1.5-3-1-1.5 1.5-4.5 10.5-.5-1.5q7.8-21.7 24.5-34.5zm28 0 .5 2.5h-1zm-7 1 1.5 3.5h-1zm53 1 1.5 2.5h-1l-.5-1.5-1.5.5zm3 3 3.5 2.5-1.5-.5q-3.8-.7-2-2Zm-10 1-.5 1.5-.5 1.5-.5-1.5zm29 0 .5 1.5-5 5 .5 1.5h-3l-3.5-3.5 4.5-.5 1-1-.5 1.5.5 1.5zm-104 12 2.5 1.5-.5 1.5-2.5-2.5zm81 4q2.5 1 1 2l-1-1-1.5.5zm29 11 3 6 2-2 .5.5 2 5 1 8 1 1 1 17-1 1v6l-1 1-1 7-2.5 6.5-1-3-5 10q-2.5-1-1-2l1.5.5-1-2h2l-1-2h2l-1-3h2l3-9v-4l1-1v-10l1-2-1-1v-9q-2-1-1-5l-2.5-6.5-1.5.5 1-2-2-1-1-3zm5.5 51-1 3h1zm-126.5-50 2.5 1.5-1.5.5q-2.5-1-1-2Z" opacity=".988"/><path fill="#717171" stroke="#717171" d="m220.5 208 1.5 2.5q-1 1.5-2-1zm6 5 2.5 1.5-1.5.5q-2.5-1-1-2Zm60 0 .5 2.5h-1zm5 2 1.5 7.5h-1l-.5-1.5-1 3-3.5-1.5.5-5.5 3.5-.5zm45 1 2.5 2.5-.5.5-2.5-2.5zm-112 4 2.5.5-2.5.5zm61 0 .5 2.5h-1zm-70 9 1.5.5v19l3 9-1 3 2 4-1.5 2.5-1.5-.5-3-8 1.5.5 1.5-.5q-1.8-2.2-1-7l-1-1v-6l-1-1q2-1 0-2v-9l1-2zm7 4 2.5.5-2.5.5zm126 0 2.5.5-2.5.5zm-112 1 1.5.5-2.5 1.5q-1.5-1 1-2Zm37 3q.8 1.8 4 1l2-1-.5 1.5 1 3-2 1 .5 1.5q-.7-1.8-4-1l-1.5.5 1-3-2-1 2-1zm-20 8 .5 2.5h-1zm91 0 1.5 2.5q-1 1.5-2-1zm-121 1 2.5.5-2.5.5zm123 6 2.5 1.5-1.5.5q-2.5-1-1-2Zm-115 12q1.5 1-1 2l-1.5-.5zm110 0 2.5 1.5-1.5.5q-2.5-1-1-2Zm-107 6q1.5 1-1 2l-1.5-.5zm113 0q2.8 1.3.5 2.5l-4 7-10.5 11.5-11.5 8.5 1.5.5 1.5-.5-13.5 7.5-6 1-4 2h-6l-1 1h-18q-2.8-1.3-.5-2.5l-.5-1.5-4.5-.5.5-1.5h2l5 3h16l1-1h5l1-1h3l6-2 10.5-5.5-.5-1.5 2 1v-2q1 2 2 0l1.5-.5-.5-1.5q1 2 2 0l2.5-1.5-.5-1.5 1 1 10.5-10.5q-2.2-1.2.5-2.5l2.5-1.5q-2.2-1.2.5-2.5l1.5-.5-.5-1.5 1.5.5 1-2zm-109 5 .5.5-2.5 2.5-.5-.5z" opacity=".988"/><path fill="#717171" stroke="#717171" d="m337.5 276 .5.5-2.5 2.5-.5-.5zm-88 6 .5 2.5h-1zm29 2 1.5 2.5q-1 1.5-2-1zm47 0 1.5 2.5q-1 1.5-2-1zm-88 3 2.5 2.5-.5.5-2.5-2.5zm15 1 .5 1.5q-1 2.5-2 1zm6 3-.5 1.5-.5 1.5-.5-1.5zm56 0 1.5 2.5q-1 1.5-2-1zm-50 3-.5 1.5-.5 1.5-.5-1.5zm-21 1h2l3.5 2.5-.5 1.5 2-1 .5.5-2.5 2.5-4.5-3.5zm59 1 .5 2.5h-1zm-13 2 .5 2.5h-1zm307 134 4.5 3.5v2l-3.5 3.5h-2l-5.5-3.5 2.5-1.5q1.3 2.3 2.5-.5zm23 18 1.5 1.5-3 3-1.5 3.5-2.5-3.5zm16 13 4.5 4.5v2L621.5 493l-6.5-4.5 8.5-10.5 2 1-.5-1.5q1-5 5-7l.5-2.5 2 2 .5-.5 2-4q-2.2-1.2.5-2.5ZM621 483l-1 2q1 1 2-1zm-34.5-8q3 .5 2.5 4.5l-2.5 2.5-1-1q-3 .5-3.5-1.5l3-2zm15 14q1 2 2 0l1.5 1.5-3.5 4.5-2.5-3.5 2-1zm-54 4 4.5 5.5-3.5 4.5-3-1-2.5-2.5zm63 1 6.5 4.5-1.5.5-5.5-4.5zm-5 6 6 3 1.5-.5-1.5 2.5-6-4zm-4 5 5.5 4.5-1 3-18.5 21.5q-4.7-.2-6.5-3.5 1.2-2.7 2.5-.5l3.5-3.5-1-2 9.5-11.5 1.5-.5v-2zm-1.5 4q-3 1-1 2l2-1zm-31.5 3q3-.5 3.5 1.5l-4 3-1.5 2.5q-2-.5-1.5-3.5z" opacity=".988"/><path fill="#f0f0f0" stroke="#f0f0f0" d="m310.5 166 8 4h2l3.5 2.5.5 2.5 1.5-.5-1 1 .5 1.5-10-6-7.5-2.5 2-1zm-28 1 15 1 1 1h4l12 4 11 6 8 7 3 1 6.5 6.5 5 8-1 2 4 7 2 6 1 8 1 1v8q2.3 1.3 1 6l-1 1v8q-2 1-1 5l-3 9q-6.3 15.2-17.5 25.5l-14 10-15 6-9 1-1 1h-17l-1-1h-5l-6-2-2 1-6-2-9.5-5.5.5-1.5-5-3-11.5-11.5-6-9-6-13v-3l-2-4v-5l-1-1v-17l1-1 1-9 6-15q5.7-9.8 13.5-17.5 9.3-8.7 22-14l9-3q4 1 5-1h7zm.5 5-1 4h2v-3zm7 0-1 4h1zm5 0-1 6 3 1q2-1 1-5zm-19 1 1 4v-3zm-6 1-1 3q1 2 2 1 1-3-1-4Zm33 0-2 4h2l1-3zm-40 2-2 2 1 3q1 2 4 1v-4q0-2-3-2Zm47 0-2 2 1 2 1-2zm-53 3v3q1 2 2 1l-1-3zm59 0-2 3q1 1 2-1zm-24 2-2 1-2 3q-2 1 1 2l3-4 2 3q-2 5 2 7l4-6v-1l-3 3-2-5zm30 1-3 4h1l2-2zm-58 3-2 3v1l2-1q4 1 6 5l-1 2h2l3-5-1-1-1 2zm62 0-3 3 1 4 5-4zm-80 1-1 2 3 2zm-5 5-1 1 3 2v-1zm74 1-4 5h2l2-3 2 1-1 4h1l2-2 2 1v2l-3 3h3l2-3v-3q0-3-3-2l-1-1q-1-3-4-2Zm-22 1-2 1-3 5-1 12-1 1v6l-1 1v6l-1 1v5l-1 3-1 1h-3l-7 3h-3l-7 3-6 1-3 3q-1 5 3 6l15-5h3l7-3 1 1q-2 1-1 6 1 3 6 2l2-2 1-9 4-2h3l4-3q1-5-1-6-5-1-6 1h-2l1-11 1-1v-6q2-2 1-6l1-1v-6l1-1-1-4zm-56 2q-2 1-2 4 1 2 6 1v-2q-1-3-4-3Zm11 1-2 1-3 5h2l3-4 2 5v4l2 1 2-3q4-2 1-4l-2 3q-3-1-2-5zm88 0-3 3h1l3-2zm-103 5-1 2 3 1v-1zm107 0-3 3h1l3-2zm-100 4q-2 0-2 4h1l2-2 5 5-1 3h1l4-4v-2l-2 1-5-4zm-11 2-1 1 4 2v-1zm114 0q-3 1-1 2l2-1zm-12 5-2 2 2 7 3 2v-1l3-3 1 1h1l-1-4h-1zm13 0-3 3 2 2h2l3-2-1-2zm-117 1v2h2zm-2 6-1 2 3 1v-1zm124 0-3 1v1h3zm-113 2-3 5h2l1-2 6 5-1 2h2v-1l3-3v-1l-2 1zm-13 4v4q5 1 6-1-1-4-6-3Zm125 1q-3 1-1 2l4-1zm-118 3-2 3v1l2-1q4 1 6 5l-1 2h1l4-4v-2l-2 1zm-8 4v1h4zm126 0v1h3zm-14 5-4 6 5 2v-1l2-1 1-1 2 3-1 2h-1l-1 2h2l3-4-1-2-3-3-4 3-2-1 3-3zm-111 1-2 2h4v-1zm125 0-1 2h4v-1zm-1 5-2 1-1 2 4 2h2l1-3q-1-3-4-2Zm-124 2v2l3-1zm17 0-2 1q-3 1-2 5l7 5 3-1q2-1 1-4-2-5-7-6Zm-14 6-2 1v1q3 1 4-1zm120 0q-2 1 1 2h2q0-2-3-2Zm-114 3-2 2q-4-1-5 2l2 3 3-1 3-4 5 5-1 3h1l4-4v-2l-2 1zm112 3q-2 1 1 2h2zm-20 4q-4 1-3 7l5 4h4l2-4-3-4h-2l-3 4h-1v-3l2-3zm-93 2-3 3h1l3-2zm110 0-1 1 4 2v-1zm-107 6q-3 1-1 2l2-1zm104 0-1 1 3 1h1q0-2-3-2Zm-86 1q-4 1-3 6 1 3 6 2l3-3v3l-2 3h2l2-3v-2q-2-5-8-6Zm80 2v4l4 2 2-3-3-3zm-94 2-2 3h1l2-2zm65 3-5 6h2l3-4 5 9h1l-5-10zm27 2-1 1 3 2h1zm-88 1q-3 1-1 2h1zm35 0-4 4v2l3 2 1-1v3q1 2 5 1l3-4-3-4-1 1-1-1zm-29 1-4 5 4 1q3-1 2-5zm77 2-1 1 3 2v-1zm-72 4-2 3q1 1 2-1zm67 0 1 3h1l-1-2zm-61 3-2 2 1 2 1-2zm49 0-2 2q-1 4 2 5l3-1v-3zm7 0v4h1q1-3-1-4Zm-51 3v3l1-2zm13 0-3 4 1 3q3 1 4-1l-1-5zm-6 1-2 5q1 1 2-1zm32 1v3h1zm-13 1-1 5h1zm6 0-1 2 2 2v-3zm-13 1-1 3h2v-2z" opacity=".996"/><path fill="#f0f0f0" stroke="#f0f0f0" d="m332.5 216 2.5 1.5-1.5 2.5-1.5-2.5zm-93 32 5.5 4.5-1.5 2.5-5.5-4.5zm87 19 2.5.5 1 2q-.5 2-3.5 1.5l-1.5-2.5zm-103 4q4.7 9.8 12.5 16.5l-3-1 2 3-.5.5-7.5-7.5-5-9zm29 2 2.5 1.5-.5 2.5q-3 .5-3.5-1.5zm24 10 1.5 2.5q-1.5 3-3 0zm4 3 1.5.5-.5 3.5-2.5-.5q-.5-3 1.5-3.5Zm331 158 4.5 3.5-4.5 5.5-4.5-2.5.5-1.5 2 1 2.5-4.5zm-19 37 4.5 3.5-1.5-.5-2.5 1.5-.5 1.5-2.5-.5-1-2h2zm-31 24 5.5 4.5-5 4 .5 1.5-5.5-3.5.5-1.5 2 1 2-3 1.5-.5-2-2z" opacity=".996"/><path fill="#272727" stroke="#272727" d="m77.5 23 2.5 2.5-.5.5-2.5-2.5zm31 25 2.5 2.5-.5.5-2.5-2.5zm-98 9 3.5 3.5-.5.5-3.5-3.5zm8 7 2.5 2.5-.5.5-2.5-2.5zm5 4 2.5 2.5-.5.5-2.5-2.5zm58 8 1 1 1.5-.5-1.5 1.5q-2.5-1-1-2Zm-42 5 2.5 2.5-.5.5-2.5-2.5zm111 1 2.5 2.5-.5.5-2.5-2.5zm-51 4 1 1 1.5-.5-1.5 1.5q-2.5-1-1-2Zm-34 16 2.5 2.5-.5.5-2.5-2.5zm111 1 2.5 2.5-.5.5-2.5-2.5zm-106 3 2.5 2.5-.5.5-2.5-2.5zm111 1 2.5 2.5-.5.5-2.5-2.5zm-90 16 2.5 2.5-.5.5-2.5-2.5zm111 1 2.5 2.5-.5.5-2.5-2.5zm-106 3 2.5 2.5-.5.5-2.5-2.5zm21 17 2.5 2.5-.5.5-2.5-2.5zm137 14 4.5.5-4.5.5zm21 4 2.5.5-2.5.5zm-111 20 2.5 2.5-.5.5-2.5-2.5zm39 35 .5 2.5h-1zm3 10 3.5 3.5-.5.5-3.5-3.5zm156 15 4.5 4.5-.5.5-4.5-4.5zm-150 6 .5 2.5h-1zm156 2 .5 2.5h-1zm0 7 1.5 2.5q-1 1.5-2-1zm11 10 2.5 2.5-.5.5-2.5-2.5zm21 17 2.5 2.5-.5.5-2.5-2.5zm5 4 2.5 2.5-.5.5-2.5-2.5zm-64 37 2.5 2.5-.5.5-2.5-2.5zm5 4 2.5 2.5-.5.5-2.5-2.5zm132 18 2.5 2.5-.5.5-2.5-2.5zm21 17 2.5 2.5-.5.5-2.5-2.5zm5 4 2.5 2.5-.5.5-2.5-2.5zm-90 16 2.5 2.5-.5.5-2.5-2.5zm5 4 2.5 2.5-.5.5-2.5-2.5zm111 1 2.5 2.5-.5.5-2.5-2.5zm-85 20 2.5 2.5-.5.5-2.5-2.5zm127 14 2.5 2.5-.5.5-2.5-2.5zm17 4 2.5.5-2.5.5zm30 33 2.5 2.5-.5.5-2.5-2.5zm-49 10 2.5 2.5-.5.5-2.5-2.5zm-32 16 1 1 1.5-.5-1.5 1.5q-2.5-1-1-2Zm-1 4-.5 1.5-.5 2.5-.5-2.5zm37 24 2.5 2.5-.5.5-2.5-2.5zm-5 7 3.5 3.5-.5.5-3.5-3.5zm-264 53 3.5.5-3.5.5zm6 0 30.5.5-30.5.5zm-36 6 .5 6.5h-1zm42 6 24.5.5-24.5.5z" opacity=".173"/><path fill="#434343" stroke="#434343" d="M41.5 1 44 2.5l-2.5.5zm-33 6 .5.5L6.5 10 6 9.5zm56 7 2.5 2.5-.5.5-2.5-2.5zm-42 4 2.5.5-2.5.5zm47 0 2.5 2.5-.5.5-2.5-2.5zm-49 1 .5.5-2.5 2.5-.5-.5zm55 4 2.5 2.5-.5.5-2.5-2.5zm10 8 2.5 2.5-.5.5-2.5-2.5zm-44 2 .5 2.5h-1zm48 1 3.5 3.5-.5.5-3.5-3.5zm-42 4 2.5 1.5-1.5-.5q-2.4-.1-1-1Zm-5 5 .5 2.5h-1zm58 0 3.5 3.5-.5.5-3.5-3.5zm-57 4 2.5 2.5-.5.5-2.5-2.5zm16 1 2.5.5-2.5.5zm47 0 2.5 2.5-.5.5-2.5-2.5zm-43 1 2.5 2.5-.5.5-2.5-2.5zm48 3 2.5 2.5-.5.5-2.5-2.5zm-101 3 3.5 3.5-.5.5-3.5-3.5zm106 1 2.5 2.5-.5.5-2.5-2.5zm-38 6 .5 3.5h-1zm-58 2 3.5 3.5-.5.5-3.5-3.5zm47 1 3.5 4.5-.5.5-3.5-3.5zm60 0 2.5 2.5-.5.5-2.5-2.5zm-43 3 2.5.5-2.5.5zm-58 1 2.5 2.5-.5.5-2.5-2.5zm106 0 2.5 2.5-.5.5-2.5-2.5zm-101 4 2.5 2.5-.5.5-2.5-2.5zm48 0 .5 2.5h-1zm58 0 2.5 2.5-.5.5-2.5-2.5zm-101 4 2.5 2.5-.5.5-2.5-2.5zm106 0 2.5 2.5-.5.5-2.5-2.5zm-46 1 2.5.5-2.5.5zm4 1 2.5 2.5-.5.5-2.5-2.5zm-59 2 2.5 2.5-.5.5-2.5-2.5zm106 0 2.5 2.5-.5.5-2.5-2.5zm-44 2 .5 2.5h-1zm55 7 2.5 2.5-.5.5-2.5-2.5zm-54 2 .5 3.5h-1zm-47 2 2.5 2.5-.5.5-2.5-2.5zm58 1 .5 1.5-3.5 3.5-.5-.5zm-10 2 2.5 2.5-.5.5-2.5-2.5zm16 1 2.5.5-2.5.5zm-2 1 .5.5-2.5 2.5-.5-.5zm-52 3 2.5 2.5-.5.5-2.5-2.5zm106 0 3.5 2.5-1.5.5-2.5-2.5zm-101 4 3.5 3.5-.5.5-3.5-3.5zm107 1 2.5 1.5-.5 1.5-2.5-2.5zm5 4 2.5 2.5-.5.5-2.5-2.5zm-44 2 .5 2.5h-1zm54 6 2.5 2.5-.5.5-2.5-2.5zm-101 4 2.5 2.5-.5.5-2.5-1.5zm5 4 3.5 3.5-.5.5-3.5-3.5zm107 1 2.5 2.5-.5.5-2.5-2.5zm-101 4 2.5 2.5-.5.5-2.5-2.5zm5 4 2.5 2.5-.5.5-2.5-2.5zm106 0 2.5 2.5-.5.5-2.5-2.5zm-96 8 2.5 2.5-.5.5-2.5-2.5zm6 5 2.5 2.5-.5.5-2.5-2.5zm106 0 2.5 2.5-.5.5-2.5-2.5zm-101 4 2.5 2.5-.5.5-2.5-2.5zm106 0 2.5 2.5-.5.5-2.5-2.5zm-101 4 2.5 2.5-.5.5-2.5-2.5zm106 0 2.5 2.5-.5.5-2.5-2.5zm46 6 5.5.5-.5 1.5q-4-1-5 1h-7v-1l7.5-.5zm-18 1 4.5.5-6 2 2 1-2.5.5-1.5-.5-.5 2.5-2-1-1 2q-19.9 7.1-31.5 22.5l-10 17-3 9v3l-1 1-.5 5.5-1.5.5 1 2-1.5 4.5-1.5-.5-.5 2.5-.5-10.5 1-1v-5l1-1 1.5-7.5 1.5.5-1-2h2l-1-3h2l-1-2h2l-1-2h2l-1-2 1.5.5 1-1 1 1 1.5-1.5 3-6 10-11-1-1 5-5q-2.2-1.2.5-2.5l2 1-.5-1.5 1.5-1.5 2 1v-2l1.5.5 1.5-2.5z" opacity=".992"/><path fill="#434343" stroke="#434343" d="m272.5 166 2.5.5-2.5.5zm20 0q4.5-1 5.5 1.5l-1.5.5q-.8-1.7-4-1zm-141 4 2.5 2.5-.5.5-2.5-2.5zm183 0h2l6.5 5.5-1 2 3 1-2.5.5-1-1-2.5 2.5-1.5 2.5-2.5-2.5.5-.5 2 1 4.5-4.5-.5-.5-3 2 .5-1.5 1-2-4.5-2.5-2 2-.5-.5 2-2zm-2 1 .5.5-2 2-1 2 .5 1.5q-2.7-1.2-.5-2.5zm-95 9 .5.5-8.5 8.5-.5-.5z" opacity=".992"/><path fill="#434343" stroke="#434343" d="m340.5 181 .5 1.5-1 2 .5.5 3-3 .5.5-3.5 3.5-1.5-1.5zm-174 1 2.5 2.5-.5.5-2.5-2.5zm5 4 2.5 2.5-.5.5-2.5-2.5zm167 1q4.8-.7 5.5 2.5l-.5 1.5q-4.6-1.2-5-4Zm-44 7-.5 1.5 1 1 1 5q-2.5.5-2 4l1 2-1 1v6l-1 1v5l-1 1-1 11 2 1-1 1 1 1-1 1 .5 1.5-1.5.5.5 1.5q-1.2-2.2-2.5.5l1 2h-1l-.5-1.5-6 2q-1-2-2 0l-6 2h-3l-7 3-2-1-1 2-3-1v2l-3.5-1.5.5-4.5 1.5-.5.5-1.5 2 1 1-2 2 1 2-2 6-1 14.5-5.5-1-4 1-1q-1.2-4.8 1-6l1-13 2-5-1-2q2.8-.7 2-5l-.5-1.5zm-2.5 21-1 2h-3l-1 6 4 1 1-3zm-6 20-2 2 2 2h2zm-7 2-7 3h2l1 3 5-1-1-1 1-3zm-96.5-42 2.5 2.5-.5.5-2.5-2.5zm10 8 2.5 2.5-.5.5-2.5-2.5zm160 1 2.5 3.5v3l-2 3h2l-1 2 1 2-1.5.5-1.5-5.5 1-2-2-3zm-154 4 2.5 2.5-.5.5-2.5-2.5zm144 5 2.5 1.5-1.5.5q-2.5-1-1-2Zm-11 6 2.5 1.5-1.5-.5q-2.4-.1-1-1Zm-116 25 .5 2.5h-1zm141 1 .5 2.5q-1 2.5-2 1-.5-3 1.5-3.5Zm-10 1 2.5.5-2.5.5zm9 4 .5 2.5q-1.7.8-1 4h1l.5-1.5 1.5 3.5h-1l-.5-1.5-.5 2.5 1 2h-1l-.5-1.5-.5 2.5.5 1.5-1.5.5 1 2-8 14-12.5 13.5-1.5-.5-2.5 3.5-1.5-.5-1.5 2.5-1.5-.5-1.5 2.5-2-1v2l-2-1v2l-1.5-1.5.5-1.5-5 2q-1.5-1 1-2 16.1-6.9 26-20 1.3 2.3 2.5-.5l-.5-1.5-1.5.5 2.5-2.5 1.5.5-1-2 6-10 3-9v-3zm-.5 7-1 3h1zm-2 5-1 3h1zm-13 21-8 8h1l7-6zm-15 13q-3 1-1 2l2-1zm-3 2q-3 1-1 2l2-1zm-105.5-47 1.5 7.5-1.5.5-2.5-3.5v-2l2-1zm3 7q2.1 1.4 1.5 5.5h-1l-1-3zm168 17 2.5 2.5-.5.5-2.5-2.5zm5 4 2.5 2.5-.5.5-2.5-2.5zm5 4 2.5 2.5-.5.5-2.5-2.5zm-163 1 2.5 2.5-.5.5-2.5-2.5zm11 0 1 1 1.5-.5-1.5 1.5q-2.5-1-1-2Zm163 8 2.5 2.5-.5.5-2.5-2.5zm-100 2 .5 1.5q-1 2.5-2 1zm105 2 2.5 2.5-.5.5-2.5-2.5zm-165 2 3.5 1.5.5 1.5 1.5-.5-1.5 2.5-3.5-2.5.5-1.5q-2.4-.1-1-1Zm62 4 .5 1.5-1.5.5q-1.5-1 1-2Zm-7 2q2.5 1 1 2l-1.5-.5zm120 0 2.5 2.5-.5.5-2.5-2.5zm-125 1 2.5 1.5-1.5.5q-2.5-1-1-2Zm-22 1 12.5.5-10.5 1.5-2-1-2 3h-3l-3.5-1.5 7.5-1.5zm15 1 3.5.5-3.5.5zm42 10 2.5 2.5-.5.5-2.5-2.5zm110 3 3.5 3.5-.5.5-3.5-3.5zm-105 1 2.5 2.5-.5.5-2.5-2.5zm111 4 2.5 2.5-.5.5-2.5-2.5zm-100 5 2.5 2.5-.5.5-2.5-2.5zm5 4 2.5 2.5-.5.5-2.5-2.5zm106 0 2.5 2.5-.5.5-2.5-2.5zm-101 4 2.5 2.5-.5.5-2.5-2.5zm5 4 2.5 2.5-.5.5-2.5-2.5zm106 0 2.5 2.5-.5.5-2.5-2.5zm5 4 3.5 2.5-.5 1.5-3.5-3.5zm6 5 2.5 2.5-.5.5-2.5-2.5zm-101 4 2.5 2.5-.5.5-2.5-2.5zm106 0 2.5 2.5-.5.5-2.5-2.5zm-101 4 2.5 2.5-.5.5-2.5-2.5zm106 0 2.5 2.5-.5.5-2.5-2.5zm-101 4 2.5 2.5-.5.5-2.5-2.5zm106 0 2.5 2.5-.5.5-2.5-2.5zm6 5 2.5 2.5-.5.5-2.5-2.5zm5 4 2.5 2.5-.5.5-2.5-2.5zm5 4 2.5 2.5-.5.5-2.5-2.5zm10 8 3.5 3.5-.5.5-3.5-3.5zm-101 4 3.5 3.5-.5.5-3.5-3.5zm107 1 2.5 2.5-.5.5-2.5-2.5zm9 7 3.5 3.5-.5.5-3.5-3.5zm5 4 2.5 2.5-.5.5-2.5-2.5zm-105 1 2.5 2.5-.5.5-2.5-2.5zm5 4 2.5 2.5-.5.5-2.5-2.5zm107 1 2.5 2.5-.5.5-2.5-2.5zm-102 3 3.5 3.5-.5.5-3.5-3.5zm6 5 2.5 2.5-.5.5-2.5-2.5zm4 4 3.5 2.5-.5.5-2-2q-2.4-.1-1-1Zm107 0 2.5 2.5-.5.5-2.5-2.5zm-101 4 2.5 2.5-.5.5-2.5-2.5zm106 0 3.5 3.5-.5.5-3.5-3.5zm-101 4 2.5 2.5-.5.5-2.5-2.5zm125 3q3 .5 2.5 4.5l-2.5 3.5q-1-2-2 0l-2 1-1.5-2.5zm-119 2 2.5 2.5-.5.5-2.5-2.5zm105 3 .5.5-3.5 3.5-.5-.5zm-100 1 2.5 2.5-.5.5-2.5-2.5zm5 4 2.5 2.5-.5.5-2.5-2.5zm91 0 .5.5-3.5 3.5-.5-.5zm-86 4 2.5 2.5-.5.5-2.5-2.5zm82 1 .5.5-4.5 4.5-.5-.5zm-77 3 2.5 2.5-.5.5-2.5-2.5zm72 3 .5.5-3.5 3.5-.5-.5zm-66 2 2.5 2.5-.5.5-2.5-2.5zm120 0 1.5.5-3.5 6.5-1.5-.5q.3-4.7 3.5-6.5Zm-58 3 .5.5-3.5 3.5-.5-.5zm66 3 6.5 5.5q-2 1 0 2l-2.5 4.5-8.5-6.5 3-2 .5-1.5 1.5-.5zm-70 2 .5.5-3.5 3.5-.5-.5zm8 0 3.5 2.5-1.5-.5-3.5 1.5 1 2q-1 1.5-2-1-.5-4 2.5-4.5Zm-12 5 .5.5-3.5 3.5-.5-.5zm-4 5 .5.5-4.5 4.5-.5-.5zm80 2q1.5 1-1 2l-1.5-.5zm-104 1 2.5 2.5-.5.5-2.5-2.5zm58 1q2.8 1.3.5 2.5l-1.5 2.5-2.5-.5zm-39 2 .5.5-3.5 3.5-.5-.5zm79 1 1 1 1.5-.5-2.5 1.5zm-92 1 2.5 2.5-.5.5-2.5-2.5zm4 3 3 2 2-2 .5.5-3.5 2.5-2.5-2.5zm86 1 .5.5-2.5 2.5-.5-1.5zm-78 8 2.5 1.5q-2 1 0 2l-4.5 5.5-3.5-2.5zm61 1q2.8 1.2.5 2.5l-2.5 3.5-1.5-2.5zm7 1 5.5 4.5-.5 1.5-5-3-1.5.5q2-1 0-2zm-6 7 1.5 1.5q-2.2 1.2.5 2.5l2-1-.5 1.5 1 1-.5 1.5-6.5-3.5.5-1.5 2.5-.5zm-7 10 1.5.5-2.5 1.5q-1.5-1 1-2Zm-29 5 2.5.5-4.5 5.5-1.5-.5q.6-3.9 3.5-5.5Zm26 0q1.5 1-1 2l-1.5-.5zm-18 5 8 6 2-1v1l-1.5.5-3.5 4.5q-1-2-2 0-4.8-1.7-7.5-5.5h2l3-4zm14 0q1.5 1-1 2l-1.5-.5z" opacity=".992"/><path fill="#595959" stroke="#595959" d="m8.5 4 .5.5L3.5 10 3 9.5zm55 6 2.5 2.5-.5.5-2.5-2.5zm-61 1 1.5.5L1.5 13q-1.5-1 1-2Zm66 3 2.5 2.5-.5.5-2.5-2.5zm5 4 3.5 3.5-.5.5-3.5-3.5zm-51 3 1.5.5-2.5 1.5q-1.5-1 1-2Zm62 6 2.5 2.5-.5.5-2.5-2.5zm-46 5 .5 3.5q-1 2.5-2 1zm61 7 3.5 3.5-.5.5-3.5-3.5zm-54 3 1.5 4.5q-1 1.5-2-1zm15 9 2.5 1.5-1.5-.5q-2.4-.1-1-1Zm-55 1L8 53.5l-1.5.5q-2.5-1-1-2Zm110 0 2.5 2.5-.5.5-2.5-2.5zm-45 11 .5 3.5h-1zm61 2 2.5 2.5-.5.5-2.5-2.5zm-47 6 2.5.5-2.5.5zm-57 2 2.5 2.5-.5.5-2.5-2.5zm55 0 .5 2.5h-1zm-50 4 2.5 2.5-.5.5-2.5-2.5zm64 4 2.5.5-2.5.5zm55 0 3.5 3.5-.5.5-3.5-3.5zm-51 2 .5 2.5h-1zm-53 6 2.5 2.5-.5.5-2.5-2.5zm65 4 .5 3.5h-1zm-54 5 2.5 2.5-.5.5-2.5-2.5zm63 3 1.5.5-2.5 1.5q-1.5-1 1-2Zm-53 5 2.5 2.5-.5.5-2.5-2.5zm69 6 .5 3.5h-1zm-58 3 2.5 2.5-.5.5-2.5-2.5zm5 4 2.5 2.5-.5.5-2.5-2.5zm114 0 2.5 2.5-.5.5-2.5-2.5zm-109 4 2.5 2.5-.5.5-2.5-2.5zm5 4 2.5 2.5-.5.5-2.5-2.5zm125 9 2.5 2.5-.5.5-2.5-2.5zm-109 4 2.5 2.5-.5.5-2.5-2.5zm130 13 2.5 2.5-.5.5-2.5-2.5zm-109 4 2.5 2.5-.5.5-2.5-2.5zm147 3 2.5.5-2.5.5zm9 0 7.5.5-7.5.5zm-16 1 2.5.5-2.5.5zm21 1 3.5.5-3.5.5zm-151 3 2.5 2.5-.5.5-2.5-2.5zm187 1v3l-1-1-2 2-.5-.5zm-182 3 2.5 2.5-.5.5-2.5-2.5zm16 13 2.5 2.5-.5.5-2.5-2.5zm21 17 2.5 2.5-.5.5-2.5-2.5zm173 7-.5 1.5-.5 1.5-.5-1.5zm-163 1 2.5 2.5-.5.5-2.5-2.5zm16 28 .5 3.5h-1zm6 25 .5 1.5-1.5 2.5-.5-1.5zm197 32 2.5 2.5-.5.5-2.5-2.5zm-165 8 2.5 1.5-2.5 1.5zm25 10 3.5.5-3.5.5zm2 2 3.5.5-3.5.5zm164 1 2.5 2.5-.5.5-2.5-2.5zm-104 8 2.5 2.5-.5.5-2.5-2.5zm115 1 2.5 2.5-.5.5-2.5-2.5zm5 4 2.5 2.5-.5.5-2.5-2.5zm5 4 2.5 2.5-.5.5-2.5-2.5zm5 4 2.5 2.5-.5.5-2.5-2.5zm-109 4 2.5 2.5-.5.5-2.5-2.5zm125 9 2.5 2.5-.5.5-2.5-2.5zm5 4 2.5 2.5-.5.5-2.5-2.5zm5 4 2.5 2.5-.5.5-2.5-2.5zm11 9 2.5 2.5-.5.5-2.5-2.5zm-105 7 2.5 2.5-.5.5-2.5-2.5zm115 1 2.5 2.5-.5.5-2.5-2.5zm-109 4 2.5 2.5-.5.5-2.5-2.5zm125 9 2.5 2.5-.5.5-2.5-2.5zm5 4 2.5 2.5-.5.5-2.5-2.5zm16 13 2.5 2.5-.5.5-2.5-2.5zm5 4 2.5 2.5-.5.5-2.5-2.5zm15 12 2.5 2.5-.5.5-2.5-2.5zm11 9 2.5 2.5-.5.5-2.5-2.5zm-78 29 2.5 2.5-.5.5-2.5-2.5zm135 5-.5 1.5 2 2-.5.5-2.5-2.5zm-9 6v2l1.5.5-1.5.5q-3-1.5 0-3Zm1 4 .5.5-2.5 2.5q-2.5-1-1-2 1.5 2.5 3-1Zm-107 1 3.5 3.5-.5.5-3.5-3.5zm103 4 .5.5-3.5 3.5q-3-1.5 0-3 1.5 2.5 3-1Zm-5 6 .5.5-2.5 2.5q-2.5-1-1-2 1.5 2.5 3-1Zm-81 16 1 1 1.5-.5-1.5 1.5q-2.5-1-1-2Zm56 15 .5.5-2.5 2.5q-2.5-1-1-2 1.5 2.5 3-1Zm-15 16 3.5 3.5-1.5 1.5.5-1.5-2.5-2.5-1.5.5z" opacity=".012"/><path fill="#b5b5b5" stroke="#b5b5b5" d="m302.5 164 7.5 2.5-.5 1.5-2 1-1-2-2 1-4.5-1.5 2-1zm-24 3 3.5.5-3.5.5zm12 0 3.5.5-3.5.5zm-8 5 1.5.5-.5 3.5-1.5-.5zm42 1 2.5 1.5 1.5 2.5 1-1 3 3 4.5 3.5-3 1 6 6-.5.5-12.5-9.5q2.3-1.2-.5-2.5l-2 1 .5-1.5-1-1 1-1-1-1zm-15 3 .5 1.5-1.5.5q-1.5-1 1-2Zm-68 7 .5.5-2.5 2.5-.5-.5zm4 3 2.5 3.5-.5.5-2.5-2.5zm-10 3 .5.5-2.5 2.5-.5-.5zm61 7 .5 2.5h-1zm40 0 .5.5-2.5 2.5-1.5-.5zm-85 6 .5 2.5h-1zm96 0 1.5.5 1 5h-1l-2-4zm-60 2 .5 2.5h-1zm43 8 2.5 1.5-1.5-.5-1.5.5-.5 1.5-.5-1.5zm-38 11 .5 2.5h-1zm-75 2 .5 2.5h-1zm130 1q2.5 1 1 2l-2.5-.5zm8 4 .5 3.5h-1zm-126 1 2.5 1.5-1.5-.5q-2.4-.1-1-1Zm10 2 .5 1.5q-1 2.5-2 1zm94 5q2.5 1 1 2l-1-1-1.5.5zm-111 1 2.5.5-.5 1.5-2-1-1.5.5zm125 0 3.5.5-.5 1.5-3.5-.5zm8 1 .5 3.5h-1zm-138 6 .5 2.5h-1zm25 3 2.5 2.5-.5.5-2.5-2.5zm-4 2 2.5 2.5-.5.5-2.5-2.5zm-13 1 1 1 1.5-.5-2.5 1.5zm120 0 1 1 1.5-.5-1.5 1.5q-2.5-1-1-2Zm-2 6 1.5.5-.5 1.5q-2.5-1-1-2Zm-123 7q2.8 2.7 3 8l1.5-.5-2.5 2.5-.5-.5.5-1.5-2.5-1.5-1-4zm112 11 2.5 2.5-.5.5-2.5-2.5zm-3 4 3.5 2.5-1.5.5-2.5-2.5zm-100 2q1 2 2 0l4 4 1-1 7 7 5.5 3.5q-1.7 3.3-3.5-.5l-2.5.5.5 1.5q-5.5-2-8.5-6.5l-2-4 1-1-2.5-2.5-1 1q-2.5-1-1-2Zm103 6 .5.5-2.5 2.5-.5-.5zm-24 3 2.5 2.5-.5.5-2.5-2.5zm-39 6 1.5.5-1.5 2.5zm26 0 1.5.5-.5 1.5-1.5-.5zm-13 1 1.5.5-.5 2.5-1.5-.5zm-17 5 5.5 1.5-.5 1.5-5.5-1.5zm9 2 2.5.5-2.5.5zm327 131 9.5 7.5 1 3-2.5 3.5-2-1-1 1-3-3-6.5-5.5zm14 12 3.5 2.5-5 4 .5 1.5-3.5-2.5zm-26 30 3.5 2.5-2.5 4.5q-1-2-2 0l-3.5-3.5 1.5.5 2.5-2.5zm5 6 2 1 1-1 5.5 5.5h-2l-.5 1.5-1.5.5.5 1.5-7.5-5.5zm-43 13 9.5 7.5 3 4-1.5-.5-1.5.5-1.5 2.5-2-1-1 1-3-3-6.5-5.5h2l3-4zm64 2 .5.5-2.5 2.5-.5-.5zm-50 11q3-.5 3.5 1.5l-4.5 5.5-2.5-3.5z" opacity=".969"/><path fill="#d2d2d2" stroke="#d2d2d2" d="m305.5 162 12 4 6.5 4.5h-3l.5-1.5-2 1v-2l-2 1v-2l-4-1-1.5.5.5-1.5-3 1v-2l-3 1v-2q-2.4-.1-1-1Zm-87 109 2 4 1.5-.5q-2.2 1.3.5 2.5l1.5.5q-2.2 1.3.5 2.5l1.5.5-1 1 2.5 2.5 3.5 2.5-1 1 7 7-.5.5-13.5-14.5-5-8zm20 25 4.5 3.5-.5.5-3-3q-2.4-.1-1-1Zm371 143 9.5 8.5-.5.5-2-2-1 1-1.5-1.5.5-1.5-4-3-1.5.5 1-1zm-9 8 5 4 1.5-.5-.5 1.5 3 2q1.3-2.3 2.5.5l-1.5 1.5-3-3-6-4q-2.5-1-1-2Zm-9 30 4.5 3.5h-3q2.3-1.2-.5-2.5-2.4-.1-1-1Zm6 4 3.5 3.5-.5.5-2-2-1.5.5 1-1zm-11 4q1 2 2 0l1.5 1.5 3 4-.5.5-3.5-3.5-.5-1.5-1 1q-2.5-1-1-2Zm-26 16 9.5 7.5-1.5.5-2-2q-1.2 2.3-2.5-.5l.5-1.5-4-3-1.5.5zm56 0 .5 1.5-2.5.5v-1zm-65 8 4 3 1.5-.5-.5 1.5 3 2q1.3-2.2 2.5.5l-1.5 1.5-3-3-6-4z" opacity=".016"/><path fill="#8b8b8b" stroke="#8b8b8b" d="m299.5 161 2.5.5-2.5.5zm4 1 1.5.5-3.5 1.5v-1zm55 50 1.5 2.5h-1l-.5-1.5-1.5.5zm2 6 .5 1.5-1.5 2.5-.5-1.5zm1 4 .5 2.5-1.5 4.5-.5-3.5zm1 6 .5 4.5h-1zm-145 38-.5 1.5-.5 1.5-.5-1.5zm80 44 2.5.5-2.5.5zm-17 1 12.5.5-12.5.5zm16 1 2.5.5-2.5.5zm-15 1 4.5.5-4.5.5zm6 0 3.5.5-3.5.5zm314 120q2.5 1 1 2l-1-1-1.5.5zm-7 7 2.5 2.5-1.5 1.5.5-1.5-2-2zm4 5q1 2 2 0l1.5 1.5-1.5-.5-1 1q-2.5-1-1-2Zm41 26 .5.5-2 2 1 1-1.5 1.5.5-1.5-1-1zm-50 4q2.5 1 1 2l-1-1-1.5.5zm45 2-.5 1.5 1 1-1.5 1.5.5-1.5-1-1zm-3 4q2.5 1 1 2-1.2-2.2-2.5.5 2.5 1.5-1 3l-1.5 2.5.5-1.5 1-2-1-1zm-48 2 2.5 1.5-1.5-.5q-2.4-.1-1-1Zm20 5 1 1 1.5-.5-1.5 1.5q-2.5-1-1-2Zm22 0-.5 1.5 1 1-2 2-.5 1.5-1-1-1.5.5 4-3q-2.3-1.2.5-2.5Zm-76 6q1 2 2 0l1.5 1.5-1.5-.5-1 1q-2.5-1-1-2Zm-7 7q1 2 2 0l2.5 2.5q-1 2.5-2 1 2.3-1.3-.5-2.5l-1 1q-2.5-1-1-2Zm71 2 1 1 1.5-.5-2.5 2.5-.5-.5 1-1zm-65 3q1 2 2 0l1.5 1.5-1.5 1.5-2.5-2.5zm59 6 .5 1.5-1.5 1.5q-1.2-2.2-2.5.5 2.3 1.3-.5 2.5l.5-1.5-1-1 2.5-2.5zm-46 5 3.5 2.5-.5.5-2-2q-2.4-.1-1-1Zm40 1q2.5 1 1 2-1.2-2.2-2.5.5 2.3 1.3-.5 2.5l.5-1.5-1-1zm-4 5q2.5 1 1 2-1.2-2.3-2.5.5 2.3 1.3-.5 2.5l.5-1.5-1-1z" opacity=".106"/><path fill="#353535" stroke="#353535" d="m22.5 0 2.5.5-2.5.5zm14 0 2.5.5-2.5.5zm-29 7 .5.5L5.5 10 5 9.5zm52 2 2.5 2.5-.5.5L59 9.5zm5 4 2.5 2.5-.5.5-2.5-2.5zm5 4 2.5 2.5-.5.5-2.5-2.5zm-47 2 2.5.5-2.5.5zm-22 1 .5 2.5H0zm74 1 2.5 2.5-.5.5-2.5-2.5zm11 9 2.5 2.5-.5.5-2.5-2.5zm-85 2 .5 2.5H0zm40 1 .5 2.5h-1zm50 1 2.5 2.5-.5.5-2.5-2.5zm-59 2 2.5 2.5-.5.5-2.5-2.5zm64 2 2.5 2.5-.5.5-2.5-2.5zm-52 5 .5 2.5h-1zm9 3 .5.5-2.5 2.5-.5-.5zm54 1 2.5 2.5-.5.5-2.5-2.5zm-47 2 2.5.5-2.5.5zm52 2 2.5 2.5-.5.5-2.5-2.5zm5 4 2.5 2.5-.5.5-2.5-2.5zm5 4 2.5 2.5-.5.5-2.5-2.5zm-106 2 2.5 2.5-.5.5-2.5-2.5zm62 1 .5 3.5h-1zm-9 3 2.5 3.5-.5.5-2.5-2.5zm64 3 2.5 2.5-.5.5-2.5-2.5zm-48 1 2.5.5-2.5.5zm-58 1 2.5 2.5-.5.5-2.5-2.5zm111 2 2.5 2.5-.5.5-2.5-2.5zm-57 1 .5 2.5h-1zm-49 1 2.5 2.5-.5.5-2.5-2.5zm111 2 2.5 2.5-.5.5-2.5-2.5zm-106 2 2.5 2.5-.5.5-2.5-2.5zm60 1 2.5.5-2.5.5zm51 1 2.5 2.5-.5.5-2.5-2.5zm-106 2 2.5 2.5-.5.5-2.5-2.5zm61 1 .5 2.5h-1zm56 6 2.5 2.5-.5.5-2.5-2.5zm-106 2 2.5 2.5-.5.5-2.5-2.5zm53 1 .5 3.5h-1zm58 1 2.5 2.5-.5.5-2.5-2.5zm-106 2 2.5 2.5-.5.5-2.5-2.5zm57 0 .5 1.5-2.5 2.5-.5-.5zm54 2 2.5 2.5-.5.5-2.5-2.5zm-106 2 2.5 2.5-.5.5-2.5-2.5zm59 0 2.5.5-2.5.5zm52 2 2.5 2.5-.5.5-2.5-2.5zm-100 7 2.5 2.5-.5.5-2.5-2.5zm111 2 2.5 2.5-.5.5-2.5-2.5zm-106 2 2.5 2.5-.5.5-2.5-2.5zm61 1 .5 2.5h-1zm50 1 2.5 2.5-.5.5-2.5-2.5zm-106 2 2.5 2.5-.5.5-2.5-2.5zm47 0 2.5 2.5-.5.5-2.5-2.5zm64 2 2.5 2.5-.5.5-2.5-2.5zm-106 2 2.5 2.5-.5.5-2.5-2.5zm11 9 2.5 2.5-.5.5-2.5-2.5zm111 2 2.5 2.5-.5.5-2.5-2.5zm-106 2 2.5 2.5-.5.5-2.5-2.5zm111 2 2.5 2.5-.5.5-2.5-2.5zm-106 2 2.5 2.5-.5.5-2.5-2.5zm111 2 2.5 2.5-.5.5-2.5-2.5zm-106 2 2.5 2.5-.5.5-2.5-2.5zm117 7 2.5 2.5-.5.5-2.5-2.5zm-106 2 2.5 2.5-.5.5-2.5-2.5zm111 2 2.5 2.5-.5.5-2.5-2.5zm-106 2 2.5 2.5-.5.5-2.5-2.5zm111 2 2.5 2.5-.5.5-2.5-2.5zm-106 2 2.5 2.5-.5.5-2.5-2.5zm5 4 2.5 2.5-.5.5-2.5-2.5zm140 0 11.5.5-11.5.5zm-129 9 2.5 2.5-.5.5-2.5-2.5zm187 0 3.5 3.5-.5.5-3.5-3.5zm-182 4 2.5 2.5-.5.5-2.5-2.5zm5 4 2.5 2.5-.5.5-2.5-2.5zm16 13 2.5 2.5-.5.5-2.5-2.5zm5 4 2.5 2.5-.5.5-2.5-2.5zm5 4 2.5 2.5-.5.5-2.5-2.5zm11 9 2.5 2.5-.5.5-2.5-2.5zm5 4 1.5 2.5h-1zm9 32 .5 2.5h-1zm156 8 .5 3.5h-1zm3 8 2.5 2.5-.5.5-2.5-2.5zm11 9 2.5 2.5-.5.5-2.5-2.5zm5 4 2.5 2.5-.5.5-2.5-2.5zm5 4 2.5 2.5-.5.5-2.5-2.5zm5 4 2.5 2.5-.5.5-2.5-2.5zm11 9 2.5 2.5-.5.5-2.5-2.5zm5 4 2.5 2.5-.5.5-2.5-2.5zm5 4 2.5 2.5-.5.5-2.5-2.5zm5 4 2.5 2.5-.5.5-2.5-2.5zm11 9 2.5 2.5-.5.5-2.5-2.5zm-120 2 4.5.5-4.5.5zm14 0 2.5 2.5-.5.5-2.5-2.5zm111 2 2.5 2.5-.5.5-2.5-2.5zm-106 2 2.5 2.5-.5.5-2.5-2.5zm111 2 2.5 2.5-.5.5-2.5-2.5zm-106 2 2.5 2.5-.5.5-2.5-2.5zm117 7 2.5 2.5-.5.5-2.5-2.5zm-106 2 2.5 2.5-.5.5-2.5-2.5zm111 2 2.5 2.5-.5.5-2.5-2.5zm-106 2 2.5 2.5-.5.5-2.5-2.5zm111 2 2.5 2.5-.5.5-2.5-2.5zm-106 2 2.5 2.5-.5.5-2.5-2.5zm111 2 2.5 2.5-.5.5-2.5-2.5zm-106 2 2.5 2.5-.5.5-2.5-2.5zm117 7 2.5 2.5-.5.5-2.5-2.5zm-106 2 2.5 2.5-.5.5-2.5-2.5zm111 2 2.5 2.5-.5.5-2.5-2.5zm-106 2 2.5 2.5-.5.5-2.5-2.5zm111 2 2.5 2.5-.5.5-2.5-2.5zm-106 2 2.5 2.5-.5.5-2.5-2.5zm111 2 2.5 2.5-.5.5-2.5-2.5zm-106 2 2.5 2.5-.5.5-2.5-2.5zm117 7 2.5 2.5-.5.5-2.5-2.5zm-106 2 2.5 2.5-.5.5-2.5-2.5zm111 2 2.5 2.5-.5.5-2.5-2.5zm-106 2 2.5 2.5-.5.5-2.5-2.5zm111 2 2.5 2.5-.5.5-2.5-2.5zm-106 2 2.5 2.5-.5.5-2.5-2.5zm111 2 2.5 2.5-.5.5-2.5-2.5zm11 9 2.5 2.5-.5.5-2.5-2.5zm-106 2 2.5 2.5-.5.5-2.5-2.5zm111 2 2.5 2.5-.5.5-2.5-2.5zm-106 2 2.5 2.5-.5.5-2.5-2.5zm111 2 2.5 2.5-.5.5-2.5-2.5zm-106 2 2.5 2.5-.5.5-2.5-2.5zm117 7 2.5 2.5-.5.5-2.5-2.5zm-106 2 2.5 2.5-.5.5-2.5-2.5zm111 2 2.5 2.5-.5.5-2.5-2.5zm-106 2 2.5 2.5-.5.5-2.5-2.5zm111 2 2.5 2.5-.5.5-2.5-2.5zm-106 2 2.5 2.5-.5.5-2.5-2.5zm111 2 2.5 2.5-.5.5-2.5-2.5zm-106 2 2.5 2.5-.5.5-2.5-2.5zm11 9 2.5 2.5-.5.5-2.5-2.5zm5 4 2.5 2.5-.5.5-2.5-2.5zm5 4 2.5 2.5-.5.5-2.5-2.5zm5 4 2.5 2.5-.5.5-2.5-2.5zm11 9 2.5 2.5-.5.5-2.5-2.5zm127 3 2.5 2.5-.5.5-2.5-2.5zm-122 1 2.5 2.5-.5.5-2.5-2.5zm5 4 2.5 2.5-.5.5-2.5-2.5zm16 13 2.5 2.5-.5.5-2.5-2.5zm5 4 2.5 2.5-.5.5-2.5-2.5zm5 4 2.5 2.5-.5.5-2.5-2.5zm41 35 2.5 2.5-.5.5-2.5-2.5zm-301 58 17.5.5-18 1-.5 3.5-.5-3.5zm65 0 .5 10.5h-1zm-44 11 19.5.5-19.5.5z" opacity=".529"/><path fill="#989898" stroke="#989898" d="m360.5 229 .5 4.5h-1zm236 212 2.5 2.5-.5.5-2.5-2.5zm-12 40 2.5 2.5-.5.5-2.5-2.5zm-33 15 2.5 2.5-.5.5-2.5-2.5zm-5 6 2.5 2.5-.5.5-2.5-2.5z" opacity=".475"/><path fill="#c9c9c9" stroke="#c9c9c9" d="m231.5 287 6.5 6.5-.5.5-6.5-6.5zm375 152 2.5 2.5-.5.5-2.5-2.5zm4 3 2.5 2.5-.5.5-2.5-2.5zm-7 5 2.5 2.5-.5.5-2.5-2.5zm-9 34 2.5 2.5-.5.5-2.5-2.5zm4 3 2.5 2.5-.5.5-2.5-2.5zm-7 3 2.5 2.5-.5.5-2.5-2.5zm-31 16 2.5 2.5-.5.5-2.5-2.5zm-7 5 2.5 2.5-.5.5-2.5-2.5z" opacity=".302"/><path fill="#474747" stroke="#474747" d="m31.5 33 .5 2.5h-1zm15 15 2.5.5-2.5.5zm78 13q1 2 2 0l1.5 1.5-1.5-.5-1 1q-2.5-1-1-2Zm-53 7 3.5.5-3.5.5zm25 20 3.5.5-3.5.5zm96 28 1 1 1.5-.5-1.5 1.5q-2.5-1-1-2Zm-59 2 3.5.5-3.5.5zm90 23 1 1 1.5-.5-1.5 1.5q-2.5-1-1-2Zm119 46 2.5 2.5-.5.5-2.5-2.5zm-131 46 .5 5.5h-1zm219 164q2.5 1 1 2l-1-1-1.5.5zm19 17 1 1 1.5-.5-1.5 1.5q-2.5-1-1-2Zm113 1 1 1 1.5-.5-1.5 1.5q-2.5-1-1-2Zm32 14 1 1 1.5-.5-1.5 1.5q-2.5-1-1-2Zm-123 1q2.5 1 1 2l-1-1-1.5.5zm159 28q1 2 2 0l1.5 1.5-1.5 1.5-2.5-2.5zm-124 2q1 2 2 0l1.5 1.5-1.5-.5-1 1q-2.5-1-1-2Zm23 17q2.5 1 1 2l-1-1-1.5.5zm90 3 .5.5-2.5 2.5-.5-.5zm-39 39 1 1 1.5-.5-1 1 .5 1.5-2.5-2.5z" opacity=".153"/></svg>