<svg xmlns="http://www.w3.org/2000/svg" viewBox="0 0 640 624"><path fill="#010101" stroke="#010101" d="m505.5 25 .5 3.5h-1zm-172 131 4.5.5-4.5.5zm68 14q3-.5 3.5 1.5l-2.5 1.5q-2.4-.9-1-3Zm57 63q6.5-1 8.5 2.5l1 5-2 4-6 7 8 1-.5 2.5-9.5-.5 1-1v-7q4.8-2.2 5-9l-1.5-1.5-3.5-.5zm-278 11 .5 9.5-3.5.5-.5-5.5zm136 3h17l3.5 1.5-2 6v5l-1 1v4l-1 1v4l-1 1-1 10-1 1v4l-1 1v4l-1 1v4l-1 1v5l-1 1-1 7q5.8 1.2 9 5l3 5v3l1.5 1.5h6l1-1h15l1-1h14l1-1h15l1-1h14l1-1h14l1-1h15l1-1h17l1 1h4l6 2h5l1 1h4l4.5 1.5-3.5 1.5h-4l-1 1-7 1-1 1-8 1-1 1h-24l-1-1h-27l-1-1h-26l-1-1h-23l-1-1h-13l-1.5 1.5v3l-2 4-4.5 4.5-5 2h-6l-5-2-4.5-3.5-3-7v-5q1.8-.7 1-4l5.5-6.5 7.5-2.5v-9l-1-1v-12l-1-1v-11l-1-1v-10l-1-1v-12q-2.1-1.1-.5-4.5Zm2.5 67-2 1q-4 3-6 8l1 7 6 5 3 1h4l4-2 4-5v-8l-2-3-4-4zm-164.5-1q6.5-1 8.5 2.5l1 2v12l-4.5 5.5q-6.5 1-8.5-2.5l.5-2.5 3.5.5.5 1.5q3.8.8 4.5-1.5-.7-3.2 1-4l-1.5-.5q-1 2-5 1l-3.5-2.5q-1.7-1.8-1-6l2.5-4.5zm1.5 3q-3 1-2 7l4 2q3-1 2-7-1-3-4-2Zm328.5-3 3.5.5-1.5 2.5-2.5 1.5-.5 1.5-3.5-1.5 2.5-3.5zm-4 16 3.5.5 1 5-1.5.5-3.5-3.5zm-18 62 .5 1.5-9.5 13.5.5-1.5zm-286 1h7l2.5 2.5 1 3-3 4q4.5 1.5 3 9l-4.5 3.5h-4l-4.5-2.5q-1.7-1.8-1-6l1.5-2.5 1.5-.5-2-3v-5zm3.5 2q-3 1-3 5 1 2 5 1 2-1 1-4zm0 9q-4 1-3 7 1 2 5 1l2-3-1-3q0-2-3-2Zm49.5 47h12l1.5 1.5-6 10-2.5 10.5-3.5-.5 1-1v-5l1-3 5-8-10-1q-.5-3 1.5-3.5Zm169 2 8.5.5-9.5 6.5-.5-2.5zm-78 18h4l3.5 3.5-.5 1.5h-3q-.5-2.5-4-2l-2.5 3.5v3l1.5-.5 4-1 4.5 3.5-.5 2.5-2.5-.5-1.5-2.5q-3.7-.7-4.5 1.5l-1.5 2.5-3.5-.5v-6q1.8-.7 1-4l3.5-3.5z" opacity=".996"/><path fill="#1f4e66" stroke="#1f4e66" d="m505.5 11-.5 1.5 1 1v11l-1.5 3.5-.5-2.5 1-2-1-3 1-2-1-3 1-2q-2.2-1.2.5-2.5Zm10 27 2.5 2.5-.5.5-2.5-2.5zm-255 7 4.5.5-.5 1.5q-.7-1.7-4-1v1l2.5.5L251.5 60l-23 18-19 13 1-3h-19l-2-1-3 2q-1.5-1 1-2L226 63.5l-1.5-.5-3 2q-1.5-1 1-2l4-2v2l10.5-5.5-1.5-.5-5 3q-1.5-1 1-2l18-9h2zm-2.5 2v1h2zm-3 1v1h2zm-7 3-2 1v1l4-1zm115.5-6 16 4 3 2 12 4 5 3h2l8.5 4.5-1.5.5-7-4h-2v1l16 8h2l2 2L442 81.5l-1.5-.5-4-1-11 5-4.5.5 4 3-1.5-.5-28-16-22-15-9.5-8.5-.5-1.5-1.5-.5zm3.5 2v1h3zm5 1v1h2zm3 1v1h2zm3 1v1h2zm5 2v1h2zm5 2v1h2zm5 2-1 1 3 1h2zm128.5-5q9.5 6 16.5 14.5l7 10 5 12q-1 4 1 5v17l-1 1-1 8-4.5 11.5-23.5-19.5h2v-57l-2-2z" opacity=".996"/><path fill="#1f4e66" stroke="#1f4e66" d="m417.5 66 2.5 1.5-1.5-.5q-2.4-.1-1-1Zm4 2 2.5 1.5-1.5-.5q-2.4-.1-1-1Zm-129 15 11.5.5-14.5 3.5v-1l2.5-.5-9-1 8.5-.5zm166 19 .5 3.5h-1zm41 56 10 10 1-1 4 1 .5-.5-2-2-2-4h1l9 13-.5 1.5 2.5 1.5v2q5 5.5 7 14-1 1.5-2-1l-13-17-16-17zm-305 5 .5.5-3.5 3.5-.5-.5zm-5 4 .5.5-8 8q2 1 0 2l-2 7 .5.5 8-8 5-4 .5.5-6.5 6.5-8.5 7.5q-14.5 15.5-26 34l-12 23v2l-6 13-2 6v3l-2 4-1 7-1 1-1 9-1 1v6l-1 1v7l-1 1v39l1 1v6h-1l-1.5-13.5-.5 3.5-4 8 1 1v6h-1l-1-12-1-1v-15l-1-1v-9l1-1v-15l1-1v-7l1-1v-5l1-1 1-9 1-1v-3l1-1 1.5-7.5 1.5.5-1-3h2l-1-3h2l-1-3h2l-1-3h2l-1-3 1.5-2.5 1.5.5-1-3 1.5-2.5 1.5-.5-.5-1.5 1.5-.5-1-2 7-14 14-22q12.7-17.3 28.5-31.5zm-69 192 .5 3.5h-1z" opacity=".996"/><path fill="#297eae" stroke="#297eae" d="m456.5 11 38 19 25 16 11 9 .5-1.5-9.5-10.5-1 1-2.5-2.5-1-2 .5-.5 2.5 2.5.5 1.5 1-1 3 3L542 61.5l5 7 6 12v3l2 4v5l1 1v13l-1 1v6l-1 1-1 7-7.5 16.5-1.5.5.5 1.5-8-8-30-21L456 81.5l1.5.5 16 8-.5-1.5v-7l-1.5-1.5-5.5-3.5 1.5.5 24 14 .5-58.5-11.5-6.5-6-2-10.5-.5 10-1-1-1 .5-1.5-17-8zM523 52v59l-1 1 23 18 4-11 1-8 1-1V93q-2-1-1-5l-5-12-7-10q-6-9-15-14ZM224.5 12q8.6 2.9 15 8L254 33.5l6 9-13.5 4.5-23 12q-1.5-1 1-2l8.5-4.5-1-1v-20l-3-3 .5-.5 2 2 4 2 9.5 9.5 1.5 2.5 9.5-4.5L241.5 24 230 16.5l-.5-1.5-1.5.5-.5-1.5-3-1zm274 15 3.5 2.5-1.5-.5q-3.8-.7-2-2Zm5 3 2.5 1.5-1.5.5q-2.5-1-1-2Zm5 1-.5 1.5-.5 1.5-.5-1.5z" opacity=".996"/><path fill="#297eae" stroke="#297eae" d="m509.5 33 1 1 1.5-.5-.5 3.5q-3.6-1.1-2-4Zm-248 11q3.8-.7 4.5 1.5v2l-2 3L252.5 62l-25 20-5.5 2.5-.5 1.5h-2l-5 4-1.5-.5-1.5 2.5q-1.5-2.5-3 1l-15 9-9-13-18.5 12.5 8 13-2.5 2.5-15 9-.5-.5 2.5-2.5 1.5-.5-19.5-.5-1-1-7 5-.5-.5 2.5-2.5L167 99.5l-1.5-.5-2 2-.5-.5L177.5 90l3-1 24-16 1.5.5.5-1.5 1.5.5 1.5-2.5 1.5.5.5-1.5 1.5.5.5-1.5q1.2 2.3 2.5-.5l.5-1.5 1.5.5.5-1.5 1.5.5 1.5-2.5 2 1v-2l2 1v-2l1.5.5.5-1.5 1.5.5.5-1.5q1 2 2 0l1.5-.5-.5-1.5 2 1v-2l2 1v-2l2 1v-2l2 1v-2l2 1v-2l2 1v-2l2 1v-2l3 1 2.5-1.5-2-1 1.5-.5 2 1v-2l3 1v-1l-1.5-.5 1.5-.5 3 1v-1l-1.5-.5 1.5-.5 5 2 .5-1.5-3.5-.5zm-.5 3-6 2-7 4h-2l-19 10-38 24 3 1h19l1-1 2 1 15-10 23-18 11-12zm-73 40q-3 1-1 2l2-1zm174.5-42v2l1.5.5 3.5 4.5 28 20 28 16q1.5-1-1-2l-1.5-.5 4.5-.5 3-2 9-3 3 1v-1l-44-22h-2l-5-3h-2l-8-4-8.5-2.5 3.5-1.5v2l3-1v2l4 1 1.5-.5-.5 1.5 3-1v2l2-1v2l3-1v2l2-1v2l4 1 1.5-.5-.5 1.5 2-1v2l6 2 1.5-.5-.5 1.5 2-1v2l2-1 1 2 1.5-.5.5 1.5 1.5-.5.5 1.5 1.5-.5.5 1.5 2 1 1.5-.5.5 1.5 2 1 1.5-.5.5 1.5 1.5-.5.5 1.5q1-2 2 0l18.5 9.5-9.5 16.5-2-2-7-3-13-8-1.5.5-.5-1.5q-1.5 2.5-3-1l-8-3-20-13-12-9-9.5-9.5-1-2z" opacity=".996"/><path fill="#297eae" stroke="#297eae" d="M370.5 46q1.5 1-1 2l-3.5-.5zm91 27 3.5 2.5-1.5-.5q-3.8-.7-2-2Zm-161 9 7.5.5-3.5 1.5q-.7-1.7-4-1zm-14 1q5.4-.9 7.5 1.5l-2 1 .5 1.5-3-1v2l-3-1-1 2-2-1-1 2-2-1-1 2h-3l-6 2-3 2-8 2-3 2-5 1-11 5v-1l5.5-2.5-1-3 .5-1.5-5.5-.5-.5-1.5-7 2v-1l18-6 7-1 9-3 10-1 1.5.5.5-1.5q4-1 5 1h8v-1h-5zm183 10 2.5 1.5-1.5.5q-2.5-1-1-2Zm-3 2 6 2 22.5 14.5-1.5-.5-2-1-15.5 5.5 6 4-1.5-.5-20.5-10.5v-2zm-229 10 1.5.5-6.5 3.5q-1.5-1 1-2zm79 13 27 1 1 1 13 1 1 1h4l1 1h4l1 1 11 2 15 5 8 4h2l18 9 19 12q16.7 11.8 30.5 26.5l16 19 17 27 11 25 4 12 1 6h-1l-1.5-5.5-2 8-1.5.5 2 10h-1l-2-11-2-4v-3l-3-9-7-15v-2l-8-15-17-25-24.5-25.5-24-18-10-6-23-11-21-7h-3l-5-2h-4l-1-1h-4l-1-1-13-1-1-1h-17q-1-2-5-1l-1 1h-17l-1 1h-7l-1 1-11 1-1 1-15 3-12 4-3 2-7 2-25 13-16 11-10 9-1-1-3 3-3.5 2.5 1 1-7.5 7.5q-3.2-1.7.5-3.5v-2l3-6-1-1 3-3-.5-.5-17.5 15.5 1 1-5.5 5.5-1.5.5 1 1-3.5 3.5-1.5.5 1 1-2.5 2.5-1.5.5q2.3 1.3-.5 2.5l-1.5.5q2.3 1.3-.5 2.5l-1.5.5q2.3 1.3-.5 2.5l-1.5.5q2.2 1.3-.5 2.5l-1.5.5q2 1 0 2l-1.5 2.5-1.5.5.5 1.5-1.5.5q2.3 1.3-.5 2.5l-1.5.5.5 1.5-1.5.5.5 1.5-1.5.5.5 1.5-1.5.5.5 1.5-1.5.5.5 1.5-1.5.5.5 1.5-1.5.5.5 1.5-1.5.5 1 2-1.5 2.5-1.5.5.5 1.5-1.5.5 1 2h-2l1 2-2 1 1 2-2 1 1 2-2 1 1 2h-2l1 3-2 1 1 2-2 1 1 3h-2l1 4h-2l1 4h-2l1 5h-2l1 5h-2l1 6h-2l1 3v5h-1l-.5-1.5-.5 4.5 1 1v12h-1l-.5-5.5-.5 22.5h1l.5-6.5.5 15.5 1 1v6l1 1 .5 5.5.5-6.5-1-2 1-1-.5-1.5 1.5.5 2.5-8.5 2 14 1.5-.5v5l1 1v4l1 1v4l1 1v4l1 1 1 7 4 12 9 19 1 4 2 2 8 15 10 14 21.5 23.5q13.8 12.7 30 23l24 13h2l13 6 6 2h3l4 2h3l9 3h4l1 1h5l1 1h7l1 1h10l1 1h22l1-1h10l1-1h7l6-2h5l1-1 11-2 18-6 12-6h2q6.4-5.1 15-8l18-12 7-6 .5.5-3.5 3.5-5.5 4.5-2 7 1.5.5 5-4 .5.5-2.5 2.5-26 16-6 2-7 4h-2l-3 2-5 1-9 4h-3l-12 4h-4l-6 2h-5l-1 1h-7l-1 1h-11l-1 1h-21l-1-1h-11l-1-1h-6l-1-1-11-1-1-1-15-3-15-5-10-5h-2q-42.6-19.9-71.5-53.5l-18-24-15-28v-2l-3-5-1-5-2-3-3-9v-3l-2-4-1-8-2-5-.5-5.5-.5 3.5-2 2q.6 4.6-2 6v4l1 1 2 11 6 17h-1l-7-20v-3l-2-5v-4l-2-5v-5l-1-1-1-15-1-1v-37l1-1v-8l1-1 1-12 1-1v-4l1-1 2-11 7-21 3-5v-2l10-20 10-16 13-17 16.5-17.5 19-16 13-9 10-6 19-9v1l-24 12-21.5 15.5 1 2-2 4v3l1.5.5 9-8 15-10 23-12h2l10-5 12-4h3l4-2h3l5-2h4l1-1h4l1-1q4.8 1.2 6-1h8l1-1h14zM117 344l-1 4h1zm-4 15-1 4h1zm8 0-1 4h1zm-7 6-1 3h1zm361.5-228 5 4 10 2 .5-1.5-.5-1.5 3 1 8.5 7.5 9 11 .5 3.5 1.5-.5q-2 1 0 2l2 3-2.5.5-2-1-1 1-4-4-1 1-19-19-8-6-2.5-2.5zm12 13 14.5 14.5-.5.5-14.5-14.5zm-20 14 3.5 3.5-.5.5-3.5-3.5z" opacity=".996"/><path fill="#297eae" stroke="#297eae" d="m502.5 166 9.5 10.5 16 23 18 36 1 5 2 3 3 9v3l2 4v3l1 1v3l3 9v4l1 1 1 12 1 1v8l1 1v19q1.8.8 1 4l-1 1v19l-1 1v8l-1 1v6l-1 1v5l-1 1-1 9-4 12v3l-5 15-4 8v2l-10 21-15 24q-12.8 18.2-28.5 33.5l-12 11-18 14-30 18-4 1-19 9-18 6h-3l-1 1h-3l-9 3-9 1v-1l9-1 1-1h3l7.5-2.5 1-4 3-4v-2l8-16-2.5-.5-17 6-12 2v-1h3l1-1h3l1-1h3l1-1h3l4-2h3l6-2 3-2 12-4 20-10 28-19 29.5-28.5 9-11 14-21 8-15v-2l8-17 5-15v-3l1-1v-3l3-9 1-11 1-1v-6l1-1v-11l1-1v-25l-1-1v-11l-1-1v-6l-1-1v-5l-1-1-1-9-1-1-2-11-5-15-15-32-8-12 .5-.5 2.5 2.5 15 27v2l3 5v2l4.5 10.5.5-3.5 9-17 3-9-15-28-14-20-9-10zm28.5 95-1 3h1zm2 7-1 3h1zm1 4-1 3h1zm1 4-1 3h1zm1 5-1 3h1zm22 1-1 3h1zm-21 4-1 4h1zm22 3-1 3h1zm-21 4-1 3h1zm1 9-1 4h1zm1 13-1 18h1zm-66.5-145 11.5 11.5-.5.5-11.5-11.5zm39 3 2.5 2.5-.5.5-2.5-2.5zm-26 11 4.5 4.5-.5.5-4.5-4.5z" opacity=".996"/><path fill="#297eae" stroke="#297eae" d="m491.5 190 8.5 10.5-.5.5-2.5-2.5-6-8zm-366 151 .5 3.5h-1zm-2 62 1.5 3.5h-1q-1.7-1.5-.5-3.5Zm2 5 1.5 3.5h-1q-1.7-1.5-.5-3.5Zm234 128 4.5.5-4.5.5-1 1h-5v-1q4.8 1.3 6-1Zm-14 2 6.5.5-6.5.5zm-39 1 2.5.5-2.5.5zm27 0 9.5.5-9.5.5zm26 21 3.5.5-3.5.5zm-8 1 5.5.5-5.5.5zm-7 1 4.5.5-4.5.5zm-24 1 4.5.5-4.5.5zm10 0 5.5.5-5.5.5z" opacity=".996"/><path fill="#4097c8" stroke="#4097c8" d="m424.5 3 2.5.5-2.5.5zm4 0 6.5.5-6.5.5zm11 1 2.5.5-2.5.5zm-242 3h10l1 1h7l9.5 3.5-.5 1.5 3-1 7 4q1.3-2.2 2.5.5l.5 1.5q1.5-2.5 3 1l10.5 7.5 13 17-13.5 4.5-7 4-2-1v2l-3-1-2 1v-1l10-5 13.5-4.5q-6-11-15.5-18.5l-11-8-3-1-.5 1.5q14.3 7.7 24 20l2 3-9.5 4.5-11-12-4-2 .5 1.5v20l1 1-3 2 .5 1.5-2-1v2l-2-1v2l-2-1 .5 1.5-1.5 1.5-16 8-35 22-.5-.5 2.5-2.5 4.5-2.5-1-1-.5-63.5-8 2v-1l9-3 21-2 1 1h5l1 1h3l9 3-.5-1.5.5-5.5 1.5-.5-7.5-2.5h-16l-1 1h-5l-1 1-8 1-12 5q-2.5-1-1-2l2 1v-2l2 1 7.5-3.5-4.5-.5-2 1v-1l8-3 8-1 1-1h6zm31.5 7-1 2q1 1 2-1zm200.5-7h18l5.5 2.5.5 1.5 2-1 1 2 5 2 1.5-.5-.5 1.5 2-1v2l2-1v2l2-1v2l2-1v2l2-1v2l2-1 .5.5-2 2 .5 1.5-9.5.5 11 1-12.5.5-2-1v2h-3l-10 4q-9 5.5-15.5 13.5L424.5 54l.5-1.5 4-6-1-1-.5-12.5-8 9-.5-.5 2-2 8.5-9.5 12-7 11-3 1.5.5.5-1.5 4.5-.5-2-1-.5-1.5-2 1-1-2-2 1-3-2-6-2h-3l-1-1h-11l-6 2v-1l8.5-2.5-7-1 5.5-.5zm36 4 2.5 1.5-1.5-.5q-2.4-.1-1-1Zm22 10 3.5 2.5-1.5-.5q-3.8-.7-2-2Zm-8 5 12.5 6.5-.5 58.5-12.5-7.5q2.3-1.2-.5-2.5l-1.5.5.5 1.5q-2.7-1.3-.5-2.5 2-2.5 1-8-2-1 0-2l-.5-42.5-1.5-.5zm42 18 9.5 10.5h-1l-2.5-3.5-1.5.5 1-1-6-6z" opacity=".996"/><path fill="#4097c8" stroke="#4097c8" d="m528.5 47 3 3q1.5-2.5 3 1l6.5 5.5 10 14 4 9 1 6 1 1v4l1 1v15l-1 3v5l-3 8v3l-8.5 18.5-1-2-20.5-16.5 1-1-.5-1.5 1.5 1.5q-2.2 1.3.5 2.5l2-1 1.5 1.5-.5 1.5 2 1q1.3-2.3 2.5.5l1.5 2.5 1-1 8 8 .5-.5 7-15 2-10 1-1v-6l1-1v-13l-1-1v-5l-2-4v-3l-6-12q-7.8-12.2-19-21zm-103 9 8 2L461 72.5l.5 1.5 1.5-.5-.5 1.5 2-1 3.5 2.5-.5 1.5 2-1 3.5 2.5q-2 1 0 2v7l2 2-1.5-.5-2 1v-2l-2 1v-2l-4-2-1.5.5.5-1.5-2 1v-2l-2 1v-2l-4-2-1.5.5-.5-1.5-1.5.5-.5-1.5-1.5.5-.5-1.5q-1 2-2 0L419 62.5l1.5.5 8 3-.5-1.5-.5-7.5q-3 .5-2-1Zm-114 20h22l1 1h12l1 1h8l1 1h6l1 1 9 1 3 2 2-1q1.5 3.5 3 1l3 2 2-1q1.5 3.5 3 1l1.5.5.5 1.5 2-1 1 2 2-1q1.5 3.5 3 1l1.5.5.5 1.5 2-1 1 2q1.5-2.5 3 1l14.5 5.5-1.5.5-5-2-10-1-1-1h-6l-2-1q-.7 1.8-4 1l-4-2h-3l-9-3h-4l-6-2h-5l-1-1h-6l-1-1h-8l-1-1-37.5-.5 2-1q-.5-2-3.5-1.5l-5 2h-13l-1 1h-7l-1 1-11 1-1 1-15 3-12.5 4.5 2 1 .5 1.5 5.5.5-1 3 2 2-.5.5-2-1-4.5 2.5-.5 1.5-2-1v2l-2-1-5 4-12 6q-1.5-1 1-2l12.5-6.5q-1.7-.7-1-4l.5-1.5-9 4h-2l-21 11q-1.5-1 1-2l1.5-.5-1-3 4.5-3.5 15.5-7.5-.5-1.5 10.5-4.5.5-1.5 2 1 1-2q1 2 2 0l2.5-.5.5-1.5 2 1 1-2 2 1 1-2 2 1 1-2 2 1 2-2q1.5 2.5 3-1l2 1 3-2q1.5 2.5 3-1l2 1 3-2q1.5 2.5 3-1l10-1 1-1h6l1-1h7l1-1h13zM236 95v1h2zm-3 1v1h2zm174.5-15 6 4 1.5-.5.5 1.5q1-2 2 0l19 10 2.5 2.5q-1.7 3.3-3.5-.5l-7-3-7-5-10-5-4.5-3.5zm-188 5 1.5.5-23.5 16.5h-2l-.5-1.5L210.5 91q1.2 2.3 2.5-.5l.5-1.5q1.5 2.5 3-1zm249 6 1 2 1.5-.5-.5 1.5 2-1 2 3q1-2 2 0l18 10 7.5 5.5-1.5-.5-1.5.5 9 7-1.5-.5h-3l-11.5 4.5.5 1.5-10.5-4.5-.5-1.5-1.5.5.5-1.5-2 1v-2l-2 1v-3l14-4 1.5-1.5-25-15zm-299 3q3 1.5 0 3L137 121.5l1.5.5q1-2 2 0h19l1-1v3l-2-1 .5 1.5-1.5 1.5-1.5-.5-.5 1.5-13 7 1-3h-18l-1 1-.5-.5 4.5-4.5 4.5-3.5-1.5-.5-2 2-.5-.5 21.5-16.5 5.5-2.5.5-1.5q1.3 2.3 2.5-.5l.5-1.5q1.3 2.3 2.5-.5l1.5-2.5q1 2 2 0l1.5-.5-.5-1.5q1 2 2 0l1.5-.5zM135 121l-2 2 3 1-1-1 1-1z" opacity=".996"/><path fill="#4097c8" stroke="#4097c8" d="m394.5 95 8 2 3 2 12 4 29 15 19 12q1-2 2 0l11 2q1-2 2 0h3l4.5 2.5.5 1.5 8.5 7.5-.5.5-3-3-2.5.5 1 2-1.5-.5-10-2 .5 1.5 3.5 4.5q1.3-2.2 2.5.5-2 1 0 2l14.5 15.5 4.5 3.5q-2.5 1.5 1 3l.5 1.5q1.3-2.2 2.5.5-2.5 1.5 1 3l.5 1.5q1.3-2.2 2.5.5-2 1 0 2l.5 1.5q1.3-2.2 2.5.5-2 1 0 2l.5 1.5 1.5-.5q-2 1 0 2l.5 1.5 1.5-.5q-2 1 0 2l.5 1.5 1.5-.5q-2 1 0 2l.5 1.5 1.5-.5q-2 1 0 2l.5 1.5 1.5-.5-1 2 2.5 3.5 1.5-.5-1 2 2.5 3.5 1.5-.5-1 2h2l-1 2h2l-1 2h2l-1 2h2l-1 2h2l-1 2h2l-1 2h2l-1 2h2l-1 3 .5 1.5-1.5-.5-2 6-9 17-.5 3.5-2-5-1.5.5 1-3-1.5-2.5-1.5.5 1-3-1.5-2.5-1.5.5 1-2h-2l1-3-8.5-15.5-1.5.5 1-2h-2q2-1 0-2l-1.5-3.5-1.5.5q2-1 0-2l-.5-1.5-1.5.5 1-2h-2q2.3-1.2-.5-2.5l-1.5-.5q2.3-1.2-.5-2.5l-2.5-1.5q2-1 0-2l-.5-1.5-1.5.5q2.5-1.5-1-3l-.5-1.5-1.5.5 1-1-2.5-2.5-2.5-1.5 1-1-3.5-3.5-4.5-3.5 1-1-9.5-9.5-2.5-1.5-3.5-4.5h-2l-11-10-25-17-22-11h-2l-5-3-10.5-3.5 2-1 6-12v-2l2-2 1-4-6.5-2.5zm65 13 3.5 2.5-1.5.5-2.5-2.5zm-159 2 24.5.5-2.5 6.5-14.5.5 8 1-14.5.5-1 1h-8q-1.2 2.2-6 1l-1 1h-4l-1 1h-4l-1 1-7 1-4 2h-3l-12 4-10 5h-2l-23 12-15 10-14 12-.5-.5 4-4v-3l2-5h-2q2-1 0-2l1.5-1.5 2 1 2.5-2.5-.5-1.5 2 1 1.5-1.5-.5-1.5q1 2 2 0l2.5-1.5-.5-1.5 2 1 1.5-1.5-.5-1.5 2 1 3.5-2.5-.5-1.5q1 2 2 0l1.5-.5-.5-1.5 2 1v-2q1 2 2 0l3.5-1.5-.5-1.5 2 1v-2l2 1v-2l2 1v-2l2 1v-2l2 1v-2l2 1v-2l2 1v-2l2 1 1-2 1.5.5.5-1.5 1.5.5.5-1.5 2 1 1-2 1.5.5.5-1.5 18-6 11-2 1-1h4l6-2h6l1-1h7zm29 0 6.5.5-6.5.5zm-156 5 1.5.5-.5 1.5-2 1-.5-1.5zm-3 2 .5 1.5-1.5 1.5-1-1-1.5.5zm215 0 3.5 1.5-1.5.5-2.5-1.5zm-56 1 9.5.5-9.5.5zm15 1 3.5.5-3.5.5zm-179 1q1.5 1-1 2l-2 1q-1.5-1 1-2zm187 0 2.5.5-2.5.5zm6 1 2.5.5-2.5.5zm5 1 2.5.5-2.5.5zm-43 4 4.5.5-4.5.5zm-135 32 1.5 1.5-3.5 3.5-.5-.5 2-2-1-1zm-8 7 .5.5-2 2 1 1-1.5 1.5.5-1.5-1-1z" opacity=".996"/><path fill="#4097c8" stroke="#4097c8" d="m460.5 171 2.5 2.5-.5.5-2.5-2.5zm-281 3 .5.5-6.5 6.5-.5-.5zm-14 3 .5.5-2.5 2.5-.5-.5zm307 6 3.5 3.5-.5.5-3.5-3.5zm-305 4 .5.5-4.5 4.5-.5-.5zm-6 7 .5.5-2.5 2.5-.5-.5zm380 35 1 2 1.5-.5-1.5 2.5-1.5-2.5zm2 5 1.5 3.5h-1q-1.7-1.5-.5-3.5Zm2 5 1 2 1.5-.5-1.5 2.5-1.5-2.5zm-15 22 .5 2.5q-1 2.5-2 1zm-12 5 1 3 1.5-.5-1 3 2 1-1 2 2 2 2 14h-1l-.5-3.5-3.5 9.5-.5 7.5-.5-5.5-1-1v-5l-1-1q.7-4.2-1-6 1.8-.7 1-4h-2q2-1 1-5l-1-2 2-1zm14 2 .5 2.5h-1zm1 4 .5 2.5h-1zm1 4 .5 2.5h-1zm-414 1 .5 2.5h-1zm415 4 .5 2.5h-1zm22 1 .5 2.5h-1zm-21 4 .5 3.5h-1zm-418 1 .5 2.5h-1zm440 2 .5 2.5h-1zm-441 4 .5 2.5h-1zm420 0 .5 2.5h-1zm-1 6 .5 2.5h-1zm-420 1 .5 4.5h-1zm-8 2 .5 2.5h-1zm430 0 .5 3.5h-1zm-1 9 .5 4.5h-1zm-422 1 .5 22.5h-1zm447 2 .5 7.5h-1zm-23 1 .5 17.5h-1zm-432 1 .5 15.5h-1zm455 10 .5 7.5h-1zm-25 6 .5 4.5h-1zm-429 11 .5 2.5h-1zm8 1 .5 3.5h-1zm420 2 .5 2.5h-1zm-427 6 .5 2.5h-1zm9 5 .5 5.5 2 5v4l1 1v3l2 4v3l3 9 2 3 4 12 9 18 19 28 25 26q-2.2 1.3.5 2.5l2-1 3.5 3.5-.5.5-1-1-2.5 2.5-1.5 4.5-7-5-19.5-19.5-12-15-16-26 .5-1.5-1.5-.5.5-1.5-1.5-.5.5-1.5-1.5-.5.5-1.5-1.5-.5.5-1.5-1.5-.5.5-1.5-1.5-.5 1-2h-2l1-2-2-1 1-2h-2l1-2-2-1 1-2h-2l1-3h-2l1-3h-2l1-3h-1l-.5 1.5-.5-1.5 1-3h-1l-.5 1.5-.5-1.5 1-3h-2q1.8-.8 1-4l-1-1-3-15h1l.5 2.5q2.1-1.4 1.5-5.5l2-2zm-6 2 .5 3.5h-1z" opacity=".996"/><path fill="#4097c8" stroke="#4097c8" d="m178.5 459 9.5 9.5-.5.5-9.5-9.5zm279 9 1.5.5-3 3-3 9 1.5-.5 4-3 .5.5-4.5 4.5-10 8q-1.5-2.5-3 1l-1.5.5.5 1.5q-1-2-2 0l-1.5.5.5 1.5q-2.7-1.2-.5-2.5.3-6.2 4-9l-.5-1.5q1.5 2.5 3-1l1.5-.5-.5-1.5 1 1 2.5-2.5 2.5-3.5zm-263 17 2.5 2.5-.5.5-2.5-2.5zm305 1 .5.5-4.5 4.5-.5-.5zm-301 2 2.5 2.5-.5.5-2.5-2.5zm291 8 .5.5-5.5 5.5-.5-.5zm-282 10 11 7 31 14 9 3h3l4 2 11 2 1 1 10 1 1 1h6l1 1h8l3 2h2l1-1h23l1 1h9v-1l-2.5-.5 4.5-.5 1 1h6v-1l-1.5-.5 2.5-.5q1.3 2.2 6 1v-1l-1.5-.5 1.5-.5q1 2 5 1v-1l-1.5-.5 2.5-.5q.8 1.8 4 1v-2q1 2 5 1l7.5-2.5-.5-1.5q.8 1.8 4 1l3.5-1.5-.5-1.5 3 1v-2l3 1v-2l3 1 2-1v1l-2.5 1.5v2L384.5 555l-2.5.5 3.5.5 3-1v1l-2.5.5 3.5.5 3-1 1 1 8.5.5-2 1 .5 1.5-3-1v2l-3-1-1 2-2-1-1 2-3-1-1 2-2-1-1 2-3-1-1 2-4-1-1 2-4-1-1 2-10 1-1 1h-7l-1 1h-10l-1 1h-35l-1-1h-9l-1-1h-7l-1-1h-5l-1-1-5.5-.5-.5-1.5-3 1-3-2-2 1-1-2-3 1-1-2-3 1-1-2-2 1-1-2-3 1-1-2-2 1-1-2-4-1-1.5.5.5-1.5-1.5-.5 1.5-.5 1 1h16v-1l-17-5-3-2-12-4-25-13-13.5-9.5.5-.5 2 2 7 4 10.5-20.5zM379 556v1h3zm-119 1v1h3zm115 0v1h3zm8 0v1h3zm-13 1v1h4zm9 0v1h3zm-14 1v1h4zm-5 1v1h3zm-8 1v1h5zm-7 1v1h4zm-24 1v1h4zm10 0v1h5zm-148.5-45 4.5 3.5-1.5-.5-3.5-2.5z" opacity=".996"/><path fill="#4097c8" stroke="#4097c8" d="m311.5 521 5.5.5-5.5.5zm17 0 5.5.5-5.5.5zm80 0 2.5 1.5-5.5 2.5v-1l3.5-1.5zm-6 4 1.5.5-3.5 1.5v-1zm-113 2 2.5.5-2.5.5zm7 1 2.5.5-2.5.5zm49 0 2.5.5-2.5.5zm-39 1 4.5.5-4.5.5zm27 0 4.5.5-4.5.5zm66 22 1.5.5-4.5 1.5v-1z" opacity=".996"/><path fill="#b00" stroke="#b00" d="m309.5 333 1.5 2.5L185.5 437h-2l-.5-1.5z"/><path fill="#868f93" stroke="#868f93" d="m494.5 8 1.5.5-1 1v12l3 3v2l-1.5-.5-4.5-2.5 1-2-4-3 2-8 1.5-1.5zm13 4 1.5 1.5v8h-1v-8zm-356 9 .5 1.5-10.5 6.5-.5-2.5 2.5-3.5q2 4 4 0zm357 2-.5 1.5-.5 1.5-.5-1.5zm-3 7 2.5.5 1 2-1.5-.5q-3.8-.7-2-2Zm-57 51 2 2 7.5 3.5.5 1.5 1.5-.5q-2 1 0 2 1.3 4.8-1 6 2.3 1.3 1 6h-1q-.1-7.9-5-11l1-1-2.5-2.5q-1.3 2.3-2.5-.5l2-2-.5-.5-3-2-1.5.5zm-3 5 1.5.5v19l-1 1 .5 1.5-8.5-4.5 1-3q-2-1 0-2zm-261 3 3.5 4.5-1 2 1 3-2 1 2 1-1.5.5-1-1-4.5-.5 1-5-1-1 1-1-.5-1.5 1.5.5zm131 65 2.5.5-.5 1.5-3.5-.5zm14 0q5.3-1.2 6.5 1.5l-8 1 .5 1.5 1.5-.5-.5 1.5-4 1 .5-1.5 1.5-3.5zm9 3 .5 5.5-8 10 1.5-.5 6.5.5-.5 3.5-13.5-.5 2-5 9-9v-2l-.5-1.5zm60 0 2.5 1.5-1.5-.5q-2.4-.1-1-1Zm-86 1 5.5.5-.5 17.5-2.5-.5-.5-15.5-5 3-.5-3.5zm4.5 3-1 14h1zm83.5 10 1 3 2.5.5-.5 17.5-3.5-.5 1-15-1.5-.5-4 3-.5-3.5 5-3zm-165 3 2.5.5-3.5 1.5q-1.5-1 1-2Zm18 4 .5 16.5q-.5 2-3.5 1.5l-.5-15.5zm-16 9 .5 8.5-2.5.5-.5-6.5zm-63 6 .5.5-2.5 2.5-.5-.5zm153 15 2.5.5 10 20v4l-1 1v5l-1 1v4l-1.5 3.5q-1-2-5-1l-3 1-12.5-.5-1-19zm145 10 1.5 2.5-1.5 2.5-1.5-2.5zm5 13q3.8-.7 4.5 1.5.5 3-1.5 3.5l-1.5-.5 2-1-.5-2.5-4 1q-1.5-1 1-2Zm-300 1 3.5.5v9l-2 2 .5 1.5-1.5-.5-.5 1.5-1-9-5 3-.5-2.5 6-4zm1.5 6-1 5h1zm12.5-6q8-1.5 9.5 3.5-.7 3.3 1 4v6q-1.7.7-1 4l-2.5 3.5q-1.8 1.7-6 1l-2.5-1.5-2-4v-11l1-3zm3.5 2-3 3v13q1 2 4 1l2-3v-10l-1-2zm261.5 0 1.5 4.5-2.5.5-1.5-2.5zm28 11 4.5.5-.5 4.5-4.5-.5zm1.5 1-1 3h3v-2zm-27.5 1 .5 2.5h-2q-1 4 1 5l-4.5.5.5-1.5q.9-4.6 4.5-6.5Zm34 12 2.5 1.5q.8 3.8-1.5 4.5-3 .5-3.5-1.5l.5-3.5zm.5 1-2 2 1 2h2q1-3-1-4Zm3.5 14 3.5 1.5q.8 3.8-1.5 4.5-3 .5-3.5-1.5-.7-3.7 1.5-4.5Zm.5 2-1 3h3v-2zm-354.5 14 2.5.5-3 1 1 3q-1 1.5-2-1-.5-3 1.5-3.5Zm357 0 3.5.5 1 3q-.7 2.3-4.5 1.5-2-.5-1.5-3.5zm.5 1v3q3 1 3-1t-3-2Zm2.5 14 3.5 2.5-1.5 3.5q-3.7.8-4.5-1.5-.5-4 2.5-4.5Zm-.5 2v3q2 1 3-1-1-2-3-2Zm-361.5-1-.5 1.5.5 2.5 3.5.5-3.5.5q-2-.5-1.5-3.5zm-15 1 .5 3.5h-1zm194 7q5.3-1.2 6.5 1.5l-1.5-.5h-5zm172 0-.5 1.5 1 4q-1.5 3-3 0l.5-1.5 1 2 .5-2.5-1-2zm-164 1 3 4 1.5.5-1.5.5-3.5-3.5zm119 1 2.5.5-2.5.5zm-31 2 2.5.5-2.5.5zm-15 1 2.5.5-2.5.5zm-260 2 3.5 2.5q.5 3-1.5 3.5l-3.5-.5-1-3zm.5 1-2 3q1 2 4 1v-2zm228.5-1 2.5.5-2.5.5zm133 0q3-.5 3.5 1.5.8 3.8-1.5 4.5-3 .5-3.5-1.5-.7-3.7 1.5-4.5Zm1.5 1-2 2 1 2h2q1-3-1-4Zm-171.5 0 .5 5.5h-1z" opacity=".996"/><path fill="#868f93" stroke="#868f93" d="m490.5 322 1.5 3.5-2.5.5-1.5-2.5zm-178 3 1.5 3.5-1.5.5zm27 0 2.5.5-2.5.5zm26 1 4.5.5-4.5.5zm127 1 .5 2.5-3 4 .5 1.5-2.5-1.5 3-2zm-76 1 4.5.5-4.5.5zm28 1 2.5.5-2.5.5zm-131 1 6.5 4.5-1.5.5-1-2-1.5.5-1.5-2.5q-2.4-.1-1-1Zm16 1 1.5.5q-1 2.5-2 1zm5 3 .5.5-2.5 2.5-.5-.5zm-194 3q4-.5 4.5 2.5l-2.5 3.5q-3 .5-3.5-1.5-.7-3.7 1.5-4.5Zm2.5 1-1 2q1 2 2 1zm358.5-1 3.5.5 1 3-3.5 2.5-2.5-1.5q-.7-3.7 1.5-4.5Zm1.5 1-2 3 3 1 1-2zm-377.5 0 .5 2.5h-1zm17 15q3.8-.7 4.5 1.5.5 4-2.5 4.5l-3.5-2.5q-.5-3 1.5-3.5Zm357 0 3.5.5 1 2-1.5 2.5q-3.7.8-4.5-1.5-.5-3 1.5-3.5Zm.5 1v3q3 1 3-1t-3-2Zm-353.5 14 1.5.5q-1.8.8-1 4l.5 1.5-3.5-2.5zm350 0q3-.5 3.5 1.5.8 3.8-1.5 4.5-3 .5-3.5-1.5-.7-3.7 1.5-4.5Zm.5 1-1 4h2q2 0 1-3zm-346.5 14-.5 1.5-.5 2.5-.5-2.5zm341 0q3-.5 3.5 1.5.8 3.8-1.5 4.5-3 .5-3.5-1.5-.7-3.7 1.5-4.5Zm1.5 1-2 3 3 1v-3zm-29.5 8 1.5.5-.5 12.5-1-12-1.5 3.5.5 1.5-2.5.5.5 1.5q-3.2-1.7.5-3.5zm22 6 3.5.5-.5 4.5-4.5-.5q-.7-3.7 1.5-4.5Zm.5 1-1 3h3v-2z" opacity=".996"/><path fill="#868f93" stroke="#868f93" d="m462.5 399 .5 5.5h-1zm-6 4-.5 1.5.5 1.5 5.5.5-7.5.5-1 1-.5-.5 2-2zm6 5 .5 4.5h-1zm2 0 .5 3.5h-1zm13 4q3.8-.7 4.5 1.5l-.5 3.5-4.5-.5-1-2zm1.5 1-1 3h3v-2zm-9.5 12q4-.5 4.5 2.5l-2.5 3.5q-3 .5-3.5-1.5-.7-3.7 1.5-4.5Zm1.5 1-2 3 3 1 1-2zm-286.5 12 2.5 1.5-2.5 1.5q-3-1.5 0-3Zm275 0q3.8-.7 4.5 1.5.5 3-1.5 3.5-3.7.8-4.5-1.5-.5-3 1.5-3.5Zm1.5 1-2 2q1 1 4 1v-2zm-11.5 10q3-.5 3.5 1.5.8 3.8-1.5 4.5-3 .5-3.5-1.5-.7-3.7 1.5-4.5Zm1.5 1-2 2 1 2h2q1-3-1-4Zm-259.5 1 1 2 1.5-.5-.5 1.5 2.5.5-2.5.5q-3.6-1.1-2-4Zm215 2 1.5.5-2.5 1.5q-1.5-1 1-2Zm-6 4 .5 2.5h-1zm-196 3 1.5.5-.5 1.5 2-1 1.5 2.5-3.5 2.5q-3-.5-2.5-4.5zm.5 2-1 2 3 1 1-2h-1zm202.5-2q2.8 1.2.5 2.5 1.7 1.8 1 6l-1 2 .5 1.5-1-1-1.5.5 2-6-1.5-3.5-1.5-.5zm30 0 3.5.5 1 3-3.5 2.5q-3-.5-2.5-4.5zm1.5 1-2 3 3 1 1-2zm-222.5 9 4.5.5-.5 4.5-4.5-.5zm1.5 1-1 3h3v-2zm180.5-1 3.5 2.5-1.5.5-2-1-1.5.5zm26 0q3.8-.7 4.5 1.5.5 3-1.5 3.5l-3.5-.5zm1.5 1-1 3h3v-2zm-195.5 7q4-.5 4.5 2.5l-2.5 3.5q-3 .5-3.5-1.5-.7-3.7 1.5-4.5Zm1.5 1-2 3 3 1 1-2zm179.5-1 3.5.5 1 3-3.5 2.5-2.5-3.5zm1.5 1-2 3 3 1 1-2zm-86.5 5 2.5.5-2 1q-.7 3.2 1 4l-1.5-.5-1.5 1.5.5 1.5-4-2-2 1-2.5-2.5.5-.5 3 2 2-1 2 1 1.5-1.5zm-81 1 3.5 2.5-1.5 3.5q-3.7.8-4.5-1.5-.5-4 2.5-4.5Zm-.5 2v3q3 1 3-1t-3-2Zm153.5-2 3.5 2.5q.5 3-1.5 3.5-3.7.8-4.5-1.5-.5-4 2.5-4.5Zm-.5 2-1 2 3 1 1-2zm-137.5 4 2.5 1.5q.8 3.8-1.5 4.5-3 .5-3.5-1.5l.5-3.5zm-.5 2-1 3h3v-2zm124.5-2 2.5 1.5q.8 3.8-1.5 4.5l-3.5-.5.5-4.5zm-.5 2-1 3h3v-2zm-63.5-1 3.5.5-3.5.5zm-46 4q3-.5 3.5 1.5.8 3.8-1.5 4.5-3 .5-3.5-1.5-.7-3.7 1.5-4.5Zm1.5 1-2 2 1 2h2q1-4-1-4Zm92.5-1q3-.5 3.5 1.5.8 3.8-1.5 4.5-3 .5-3.5-1.5-.7-3.7 1.5-4.5Zm.5 1-1 4h2l1-2zm-79.5 3q3.8-.7 4.5 1.5.5 3-1.5 3.5-3.7.8-4.5-1.5-.5-3 1.5-3.5Zm.5 1-1 3h3l1-2zm62.5-1q3.8-.7 4.5 1.5.5 3-1.5 3.5-3.7.8-4.5-1.5-.5-3 1.5-3.5Zm.5 1v3q3 0 3-1 0-2-3-2Zm-47.5 1 3.5.5-.5 4.5q-3.7.8-4.5-1.5-.5-3 1.5-3.5Zm.5 1-1 3h3v-2zm16.5-1 2.5 1.5q.8 3.8-1.5 4.5-3 .5-3.5-1.5l.5-3.5zm.5 1-2 2 1 2h2q1-4-1-4Zm13.5-1q3.8-.7 4.5 1.5.5 3-1.5 3.5l-3.5-.5-1-2zm1.5 1-2 2q1 2 4 1v-2zm-185.5 2q7.2 8.3 16.5 14.5l-5.5 5.5-6.5-6.5 2-2-.5-.5-3.5.5.5 1.5-7.5-2.5-1-2h2l-1-2zm340 0 4.5 7.5-.5 1.5 1.5.5-1.5 1.5h-3l-5 2-6.5 6.5v2l6 7-.5.5-5-5-2-1-5 7-9.5-7.5.5-1.5 1.5.5 2.5-3.5q1 2 2 0l1.5-.5q-2.2-1.2.5-2.5l4 4 .5-.5-3-4zm-329 21q1.5 3.5 3 1l7 3 4-3 .5.5-2.5 2.5-9 8-.5-.5 2-2v-2l-3.5-5.5q-1 2-2 0l-3 3-.5-.5zm342 2 5.5 9.5q-1 1.5-2-1l-4-8zm-368 3-.5 1.5-3.5 6.5.5-1.5zm341 6 4 5 3 1 9.5 8.5-1.5-.5-7-3-11.5-9.5 1.5-.5 2 1zm-317 4q1 2 2 0l1.5.5-1.5 2.5-8 6-2-1-1.5.5zm-39 16 4.5.5-.5 1.5 1.5.5 1 3-1 1v6l-1 1v7q-2 1-1 5l-2.5 3.5-4.5-.5 1-3v-5l1-1v-7l1-1v-6q1.7-.7 1-4zm400 0h5l4.5 4.5-.5.5-3-3q-3.7-.7-4.5 1.5l5 8 1 5-1 1v6l-1.5 4.5q-2.2 1.8-7 1l-4.5-3.5 1.5.5 2.5-.5 1-3v-7l1-1v-6l1-1q-1.2-4.7 1-6l-2-1zm6.5 14-1 3h1z" opacity=".996"/><path fill="#868f93" stroke="#868f93" d="m531.5 565 1 2 1-2 .5 7.5-2 1-.5 1.5-1.5-7.5z" opacity=".996"/><path fill="#67add3" stroke="#67add3" d="m418.5 3 5.5.5L409.5 6l-13 6q-1.5-1 1-2l6-3 9-3h5zm17 0 3.5.5-.5 1.5-4.5-.5z" opacity=".996"/><path fill="#67add3" stroke="#67add3" d="M442.5 4q3.5-.5 4 2l2-1 4.5 1.5-1.5 2.5-4-2-16.5-.5 8.5-.5zm-233 1h4l1 1h3l9 3q10.3 4.2 17.5 11.5l-.5.5-2-2-2-1q-1.3 2.3-2.5-.5l-.5-1.5q-1.5 2.5-3-1l-14-6L208 7.5zm-17 2 4.5.5-4.5.5zm232 0 4.5.5-4.5.5zm-237 1 2.5.5-2.5.5zm233 0 9.5 1.5-7 2 2 1-1.5.5-2-1v2l-3-1v2l-2-1-1 2-1.5-.5-.5 1.5-6 3-8.5 7.5-6 8-2 5 25.5 6.5v-2l1.5-.5q-2.2-1.2.5-2.5l1.5-.5q-2.2-1.2.5-2.5l1.5.5 2-3-1-1 3.5-3.5 1.5 1.5v12l1.5 1.5 1.5-.5-2.5 2.5-1.5-.5 1 2-1.5 1.5-1.5-.5 1 2-.5 1.5 1.5.5-2 1 2.5.5 2-1v1l-1.5.5v7l2 2-1.5-.5-9-4-1.5.5-.5-1.5-1.5.5-.5-1.5-2 1-13-7h-2L382 46.5l1.5-.5 5 2 1.5-4.5v-5q-2-1 0-2l-1-4 1-3-.5-.5-3.5 3.5-3.5 4.5-.5-.5 3-3L398.5 19l9-6zm38 0 4.5 2.5-1.5-.5q-3.8.5-3-2Zm-262 3h16l7.5 2.5-2 1q-1.2 4.8 1 6l-1.5.5-12-4-10-1-1 1h-7v-1l7.5-.5-5-1 3-1-3-1 3.5-.5q1.5 2.5 3-1Zm240 0 2.5.5-2.5.5zm-262 1 1 1 4.5.5-2 1 2 1-1.5.5-3-1-2.5 1.5.5 1.5-2-1v2l-2-1 .5 1.5-1 1 .5 1.5 2.5-.5-.5-1.5 3 1 3-1 1 64 1.5-.5q-2 1 0 2l-1.5 1.5v-2l-2.5 1.5.5 1.5-2-1 .5 1.5-1.5 1.5-1.5-.5-1.5 2.5-1.5-.5-1.5 2.5-1.5-.5-1.5 2.5-6 3-28 20-.5-.5 2.5-2.5 3.5-2.5-.5-72.5-6 5-.5-.5 3.5-3.5 21-16 9-6 4.5-1.5.5-1.5 1.5.5-1-3 1.5-.5 2 1v-2l3 1zm11 1 2.5.5-2.5.5zm206 1 .5.5-2.5 2.5-.5-.5z" opacity=".996"/><path fill="#67add3" stroke="#67add3" d="M164.5 16q1.5 1-1 2l-11 5v-1zm16 1 3.5.5-3.5.5zm206 1 .5.5-2.5 2.5-.5-.5zm75 7h14l7.5 3.5-1.5.5-3-2h-2v1l1.5.5v42l-1 1 1 1v6l-1 2 4 3-1.5-.5L454 68.5l-.5-1.5-1.5.5.5-1.5-2 1-10.5-5.5 1.5-.5 2 1 1.5-.5-.5 1.5 2.5-1.5v-27l-1-1q2-1 0-2l1.5-1.5 5-2 1.5.5.5-1.5 6-1zm-319 3q1.5 1-1 2l-9 6-.5-.5 2.5-2.5zm364 1q16.1 8.9 28.5 21.5l-1 1 2 2-.5.5-7-7L513 35.5l-2.5-3.5-4-2zm-66 6 .5.5-8.5 8.5-.5-.5zm-199 16 1.5.5-18.5 9.5-14 9-1.5-.5-.5 1.5-1-2-1 2-.5-1.5 8.5-5.5 9-4 2-2zm63 30 2.5.5-2.5.5zm4 3 3 1q1-2 2 0h10l1-1h19l1 1h8l1 1 12 1 1 1 9 1 1 1 11 2 4 2h3l2-1q1.5 1-1 2l-1.5.5 7 3-1 4-2 2v2l-4 7v2l-2.5 3.5-1.5.5 10.5 3.5 13.5 6.5.5 1.5 1.5-.5-.5 1.5 2-1v2l2-1v2l2-1v2l2-1v2l2-1-.5 1.5 1.5 1.5 1.5-.5-.5-1.5 3.5 2.5-1.5-.5-1.5.5.5 1.5-1.5.5-1 3 3 2-1.5-.5-2 1v-2l-2 1v-2l-2 1 .5-1.5-1.5-1.5-2 1v-2l-2 1v-2l-2 1v-2l-2 1v-2l-2 1-1-2-1.5.5-.5-1.5-2 1v-2l-2 1-1-2-1.5.5-.5-1.5-2 1-1-2-1.5.5-.5-1.5-2 1-1-2-2 1-13-5h-3l-9-3h-4l-1-1h-5l-1-1-15-1-1-1-30.5-.5 15-1 2-6-23.5-.5-1-1h-6v1l5.5.5-5.5.5-1-1-5.5-.5 4-2 9-20-.5-1.5 8.5-.5zm21.5 26v1h6zm76.5-19 12 4 5.5 3.5-2.5.5-1-2-3 1v-1l1.5-.5-10.5-3.5-2.5-1.5zm-177 3 1.5.5-4 2 .5 1.5-3-1-2.5 1.5.5 1.5-2-1v2l-15 7-4.5 3.5 1.5 3.5 18-9h2l9-4-.5 1.5q-.7 3.3 1 4l-3 2 .5 1.5-2-1v2l-2-1v2l-2-1v2l-2-1v2l-2-1v2l-1.5-.5-.5 1.5-7 3-2 2-15 8-21 15-.5-.5 4-4-1-1-.5-4.5q-9.7 5.8-17 14l-.5-1.5 1-2-.5-.5-3 3-2.5 1.5-2.5 3.5-3-1-5 5-.5-.5 21.5-22.5 1 1 2.5-2.5 2.5-3.5 29-20h2l2-2zm171 0 3.5.5-3.5.5zm7 1 2.5.5-2.5.5z" opacity=".996"/><path fill="#67add3" stroke="#67add3" d="m412.5 96 2.5.5-2.5.5zm-9 1 3.5 1.5-1.5.5-2.5-1.5zm94 9 1 2 1.5-.5-.5 1.5 2 1q1.5-2.5 3 1 15.9 8.1 28.5 19.5l-1 1 2 2-.5.5-2.5-2.5q2.3-1.2-.5-2.5l-1.5.5.5 1.5q-1.3-2.2-2.5.5l14 12-2.5.5-1-1h-3l-15-5-18-8q-1 2-2 0l-7-3-1.5.5-.5-1.5-1.5.5-.5-1.5-1.5.5-.5-1.5q-1 2-2 0L458 110.5q1.8-3.2 3.5.5h2l19 10h2l8 4v-2l14.5-4.5-11-8 1.5.5 1.5-.5-4-3zm-71 1 6 3 3-1 5 2 9 1 3-2v2l2-1v2l15 7 15.5 12.5-1.5-.5q-3.2.8-4-1-.7 1.8-4 1l-1-1-7-1v2l-21-14-20-10zm-139 4 4.5.5-4.5.5zm-5 1 2.5.5-2.5.5zm-5 1 2.5.5-2.5.5zm-102 3q1.5 1-1 2l-29 18-1.5-.5-.5 1.5q-1-2-2 0l-9 5-1.5-.5-.5 1.5q-1-2-2 0l-23 11-10 3-.5-.5 4-4 4.5-5.5 1.5-.5-.5-1.5-5 4-.5-.5 4.5-4.5 22-18q1.3 2.3 2.5-.5l1.5-2.5q1 2 2 0l2.5-1.5-.5-1.5 2 1 2-2 .5.5-13 11 19 1-.5 1.5 14-7 11-7q1.2 2.3 2.5-.5l.5-1.5q1 2 2 0zM108 142l-3 3h1l3-2zm426.5-11 2.5 2.5-.5.5-2.5-2.5z" opacity=".996"/><path fill="#67add3" stroke="#67add3" d="m536.5 135 2.5 2.5-.5.5-2.5-2.5zm-55 8 10.5 9.5 9 10-.5.5-19.5-19.5zm-301 19 .5.5-2.5 2.5-.5-.5zm286 2 4.5 4.5-.5.5-4.5-4.5zm-9 4 2.5 2.5-.5.5-2.5-2.5zm49 1q1 2 2 0l2.5 2.5-.5.5-2-2-1 1q-2.5-1-1-2Zm-29 6 4.5 4.5-.5.5-4.5-4.5zm46 112 1 4 1.5-.5v7l1 1v13l1 3h-1l-.5-2.5-6 15-1.5-22.5 1-1v-7zm-5 11 .5 2.5h-1zm44 12 .5 3.5h-1zm-455 2 .5 3.5h-1zm430 4 .5 15.5h-1zm-430 16 .5 4.5h-1zm455 2 .5 4.5h-1zm-454 12 .5 2.5h-1zm27 88 1 1 1.5-.5-1 2 1.5 1.5 1.5-.5-1 2 1.5-.5 1.5 1.5-1 2 1.5-.5 1.5 1.5-1 2 1.5-.5 1.5 1.5-.5 1.5 2.5 1.5-.5 1.5 3.5 2.5q12.1 17.9 28.5 31.5l7 5 1.5-4.5 2-2-19-18 .5-.5 14 14 15 12 22 14 14 7h2l5 3 7.5 2.5.5 1.5 2-1 1 2 2-1 1 2 2-1v2l3-1 1 2 2-1 1 2 3-1v2l4-1v2l5-1v1l-1.5.5 3.5.5 3-1v1l-2.5.5 10 2-6 1-1 2 2 1-8.5 1.5v-1l2.5-.5-3.5-.5-3 1v-1l1.5-.5-3.5-.5-2 1v-2l-4 1-3.5-1.5-.5-1.5-3 1-9-3-3-2h-2l-3-2h-2l-5-3h-2l-24-13-11 21-2-1q-1.5 1 1 2l30 16h2l13 6 21.5 6.5-3.5.5-1-1h-16v1l4.5 1.5-2.5.5-8-4-5-1-3-2h-3l-7-4h-2l-14-7-16.5-10.5-.5-1.5-2.5-.5-1.5-2.5-1.5.5-.5-1.5-1 1-2.5-2.5-.5-1.5q-1.3 2.3-2.5-.5l.5-1.5-2-1q-1.2 2.3-2.5-.5 2.3-1.2-.5-2.5l-1.5.5.5-1.5-2 1-1.5-1.5 1-1-.5-1.5 2 2h8l.5-.5-2.5-2.5-8-6-21.5-21.5q-11.7-12.8-21-28l.5-.5 2.5 2.5.5 1.5 1.5-5.5 9-17v-2zm41.5 82q-2 1 1 2h1zm16 9q-2 1 1 2h1zm283.5-77-.5 1.5-2 3q2 1 0 2v2l-2 3v3h2L459.5 478l-1-1-3 3-2.5 1.5q2.3 1.2-.5 2.5l.5-1.5-1-1 1-1 3-9 3-3-1-1 14-14zm26 35 .5.5-2.5 2.5-.5-.5zm-19 19 .5.5-3.5 3.5-.5-.5zm6 5 .5.5-3.5 3.5-.5-.5zm-19 6q1.5 3.5 8 2l1-2 2 1 1.5-.5-2.5 2.5q-1-2-2 0l-2.5 1.5q2.3 1.3-.5 2.5-1-2-2 0l-1.5.5q2.3 1.3-.5 2.5l-1.5-.5-2.5 3.5-3 2q-1.2-2.2-2.5.5l-.5 1.5-1.5-.5-1.5 2.5-28 16h-2l-7 4-5 1-11 5-8 2v-1l4.5-1.5-8.5-.5-3-1-1 1-11 2v-1h3l14-5h3l3-2 15-5 24-12 4-3 1.5.5 1.5-2.5 1.5.5.5-1.5 1.5.5 1.5-2.5q1 2 2 0l1.5-.5-.5-1.5q1 2 2 0l1.5-.5-.5-1.5q1 2 2 0l1.5-.5q-2.2-1.2.5-2.5l2 1 1.5-1.5-.5-1.5q1 2 2 0l2.5-1.5q-2.2-1.2.5-2.5Zm-153 8 10.5.5-10.5.5zm-24 7 2.5.5-2.5.5zm9 1 3.5.5-3.5.5zm36 0 2.5.5-2.5.5z" opacity=".996"/><path fill="#67add3" stroke="#67add3" d="m282.5 535 2.5.5-2.5.5zm6 1 2.5.5-2.5.5zm7 1 3.5.5-3.5.5zm52 0 2.5.5-2.5.5zm-43 1 5.5.5-5.5.5zm32 0 3.5.5-3.5.5zm-85 23 2.5.5-2.5.5zm136 1 2.5.5-2.5.5zm-17 4 2.5.5-2.5.5z" opacity=".996"/><path fill="#bdc8c8" stroke="#bdc8c8" d="m185.5 102 1.5 1.5v11l-1.5.5.5-1.5v-10zm153 27 4.5.5-4.5.5zm8 1 4.5.5-4.5.5zm7 1 3.5.5-3.5.5zm6 1 2.5.5-2.5.5zm4 1q4.1-.6 5.5 1.5l-1.5.5q-.7-1.7-4-1zm15 3 .5 2.5q-1 1.5-2-1zm2 2h2l4.5 2.5-.5 1.5-2-2q-1 2-2 0-3.8-.7-2-2Zm8 3 3.5 2.5-1.5-.5-2.5-.5zm57 34 2.5 2.5-.5.5-2.5-2.5zm12 11 2.5 2.5-.5.5-2.5-2.5zm4 4 3.5 3.5-.5.5-3.5-3.5zm17 18 9.5 12.5-.5.5-2.5-2.5-4.5-7.5-1.5.5 1-1-2-2zm10 14 2.5 3.5q-1 1.5-2-1l-.5-1.5-1.5.5zm3 5 1 2 1.5-.5q-2 1 0 2l7 15h-1l-8.5-16.5-1.5-.5zm11 22 1.5 3.5q-1 2.5-2 1l1-2q-1.7-.7-.5-2.5Zm-362 6 .5 1.5-1 1-1 6-1.5 1.5-.5-2.5 2-6zm365 2 3.5 10.5-1.5.5.5-1.5-.5-1.5-1.5-.5 1-2-2-1 1-2q-1.7-.7-.5-2.5Zm-368 9 .5 1.5q-1 2.5-2 1zm373 6 .5 2.5-1.5.5.5-1.5zm1 4 .5 2.5-1.5.5.5-1.5zm1 4 .5 2.5q-1 2.5-2 1zm1 4 .5 3.5-1.5.5.5-1.5zm1 5 .5 4.5-1.5.5.5-1.5zm1 7 .5 4.5q-1 2.5-2 1zm1 6 .5 9.5q-1 2.5-2 1zm-387 9 .5 6.5h-1zm388 3 .5 23.5-1 1v9l-1 1v7l-1 1v5l-2 5v4l-1 1v3l-2 4v3l-4 12-5 10v2q-18.8 38.7-49.5 65.5l-1.5.5.5 1.5-1-1-3 3-1.5.5-.5 1.5-7.5 5.5-.5 1.5q-1.5-2.5-3 1l-5.5 3.5-.5 1.5q-1-2-2 0l-8 5-15 7v-1l15.5-7.5-.5-1.5q1 2 2 0l3.5-1.5-.5-1.5q1 2 2 0l5.5-3.5.5-1.5q1.5 2.5 3-1l4.5-2.5-.5-1.5 1 1 4-4 4.5-3.5.5-1.5 1 1 8-8 1.5-.5 12-13-.5-1.5 4.5-3.5.5-2.5 3.5-2.5-.5-1.5 3.5-2.5-.5-1.5 2.5-1.5-.5-1.5 2.5-1.5-.5-1.5 1.5.5 1-2-.5-1.5 1.5.5 2-4-.5-1.5 1.5.5 4-8-.5-1.5 1.5-.5-.5-1.5 1.5.5-1-2h2l-1-2 3-2 1-4-.5-1.5 1.5.5 3-9-.5-1.5 1.5.5-1-3h2l-1-3h2l-1-3h2l1-6-.5-1.5 1.5.5q.8-3.2-1-4h2q.8-3.2-1-4l2-1q.8-3.3-1-4l2-1q1-4-1-5h2v-6l-1-1 2-1v-8l-1-3h1l.5 1.5zm-388 14 .5 8.5h-1zm42 118 2.5 1.5-1 1 6.5 6.5 3.5 2.5-1 1 5.5 5.5 1-1 2.5 2.5 6.5 7.5 1.5-.5 4.5 5.5 7 5 1.5-.5-.5 1.5 8 5 1.5-.5-.5 1.5 4 2 1.5-.5 1.5 2.5 6.5 3.5-1.5-.5-6-3-1.5.5-1.5-2.5-3-1-20-14-26.5-25.5-3-5zm65 51 1 2 7.5 3.5-1.5.5-8.5-4.5zm161 6 1.5.5-3.5 1.5v-1zm-149 1 3 1 1.5-.5-2.5 1.5-2.5-1.5zm141 1 2 1 2-1v1l-3 1q-2.5-1-1-2Zm-133 2 3 1 1.5-.5.5 1.5 2.5.5-2.5.5-5-2zm121 2 2.5 1.5-1.5.5q-2.5-1-1-2Zm-107 1 .5 1.5-2.5.5v-1zm104 0 2.5 1.5-2.5.5zm-100 1q1.5 1-1 2l-1.5-.5zm96 0 2.5 1.5-2.5.5zm-92 1 .5 1.5-3.5.5v-1zm88 0 2.5 1.5-2.5.5zm-84 1 .5 1.5-2.5.5v-1zm79 0 3.5 1.5-2.5.5q-2.5-1-1-2Zm-74 1 .5 1.5-3.5.5v-1zm7 1 .5 1.5-4.5.5v-1q3.3.8 4-1Zm56 0 4.5 1.5-4.5.5zm6 0 3.5.5-3.5.5zm-55 1 1.5.5-.5 1.5-5.5-.5zm41 0 5.5 1.5-5.5.5zm-27 1h14l1 1 7.5.5-31.5.5v-1h8z" opacity=".996"/><path fill="#a2d4ee" stroke="#a2d4ee" d="M419.5 0h16l1 1 5.5.5-2 1 2.5.5q.8-1.8 4-1l1 1 7 1 12 4 20.5 9.5-1.5 2.5-15-8-5-1-2 1v-1l1.5-.5-2.5-.5-1.5.5.5-1.5-9-3-7-1-1-1-5.5-.5-.5-1.5-2 1h-15V2l10.5-.5-12.5-.5zm-5 3 3.5.5-3.5.5zm-216 1h8l2.5 1.5-1.5 1.5h-15q-1 2-5 1l-8 3h-3L166 15.5l.5 1.5-2-1 1 3q-.5-2.5-4-2l-4.5 2.5 2 1-1.5.5-2-1 .5 1.5-1.5 1.5-2.5-3.5L174.5 9l10-2 1-1h4l1-1h7z" opacity=".996"/><path fill="#a2d4ee" stroke="#a2d4ee" d="M419.5 4h14l1 1 5.5.5-8.5.5-1 1h-6l-1 1h-3l-9 3-13 8-9.5 9.5 1 3-1 3 1 2q-2 1 0 2v5l-1.5 4.5-1.5.5 2 1-1.5.5-2.5-1.5 2-1-2.5-.5-2 1-15.5-5.5 5-9L383.5 20l1 1 2.5-2.5 3.5-4.5 1.5.5 1.5-2.5 1.5.5 1.5-2.5 2 1V9l2 1V8l3 1 2.5-1.5-.5-1.5 3 1V6l-1.5-.5 1.5-.5q.8 1.8 4 1l1-1q4.8 1.3 6-1ZM382 25l-12 14 2 1 7 1 5-7-1-2q2-2 1-6h-1zm75.5-16 1.5.5-2.5 1.5q-1.5-1 1-2Z" opacity=".996"/><path fill="#a2d4ee" stroke="#a2d4ee" d="M429.5 11h6l1 1 8 1 13.5 5.5-5.5.5-1 1h-3l-6 2q-11.7 4.8-19.5 13.5L415.5 47l-9.5-2.5.5-1.5-4 1v-1l1.5-.5-2.5-.5-3 1v-1l2.5-.5-3-1-.5-6.5-1.5.5 1-2h-2l2.5-2.5q1.2 2.3 2.5-.5l-1-2 3.5-3.5 1.5.5 3.5-4.5 9-5 9-3h3zm-241 2 4.5.5-3 1 5 1-7.5.5-1 1h-6l-11 4q-1.5-1 1-2zm283 1 .5.5-2.5 2.5-.5-.5zm2 1 1 2 1.5-.5.5 1.5 1.5-.5.5 1.5q1-2 2 0l16 8 17 11L529 52.5l-.5.5-4-4-24-16-15.5-8.5-.5-1.5-1.5.5-.5-1.5-1.5.5-.5-1.5-1.5.5-.5-1.5-1.5.5.5-1.5-2 1v-2l-3.5-1.5zm-322 8 1.5.5-2 1 .5 1.5q-3-1.5 0-3Zm-3 6 .5.5-2.5 2.5-.5-.5zm301 1q1.5 1-1 2l-2.5 1.5 1 1v27l-.5 1.5 2.5 1.5-1.5-.5-22.5-9.5q6.9-12.1 17.5-20.5zm-305 2 .5.5-2.5 2.5-.5-.5zm-10 2 .5.5-2.5 2.5Q110.4 51.4 93 70.5L84.5 82l.5-1.5 8-13L104.5 55l8-7 17-12 1.5.5.5-1.5q1.5 2.5 3-1Zm260 0-.5 1.5-1.5 2.5.5-1.5zm-254 1 .5.5-2.5 2.5-.5-.5zm-4 3 .5.5-2 2 1 1 .5 72.5 39-26 30-18 1.5.5.5-1.5.5 1.5L179.5 89l-3 1-28 20-1.5-.5-1.5 2.5-1.5-.5-1.5 2.5q-1.2-2.2-2.5.5l-1.5 2.5-1-1-1 1-1.5-.5 1 2q-1.7 3.3-3.5-.5l-3 3q-21.8 13.7-39 32l-3.5-7.5h2l-1-2v-32l1-1v-9l-1-1-.5-10.5-1.5.5 3-6 6-8L109.5 61l16-14 1.5.5 4.5-5.5 2 1-.5-1.5zM112 63l-3 2-11 11-4 8v3l-2 4v4l-1 1v21q2 1 1 5l3 9 6 9 14-12-1-1-1-63zm282.5-22 2.5.5-2.5.5zm-2 10 3.5 1.5-1.5.5-2.5-1.5zm7 3 3.5 1.5-1.5.5-2.5-1.5zm15 7 18.5 9.5-1.5-.5-17-8zm36 4 3.5 2.5-1.5-.5q-3.8-.7-2-2Zm-14 7 25 13 35.5 21.5-2.5.5-16-10L442 77.5l-.5-1.5-1.5.5-.5-1.5-1.5.5-.5-1.5-1.5.5zm-132 12q3.8-.7 4.5 1.5l-9 1 1 2-10.5 20.5-2.5.5 5.5.5 1-1h6v1l-13 1-1 1-9 1-1 1-11 2-7 3h-3l-3 2-15 5-7 4h-2l-17 10-1.5-.5-1.5 2.5-1.5-.5-1.5 2.5-1.5-.5-1.5 2.5-1.5-.5-1.5 2.5-1.5-.5-1.5 2.5q-1.2-2.3-2.5.5l-1.5 2.5q-1.5-2.5-3 1l-1.5.5q2.3 1.3-.5 2.5-1.5-2.5-3 1l-1.5.5 1 1-2.5 2.5-1-1-4 4-4.5 3.5 1 1-5.5 5.5-1-1-5.5 5.5-1 2 1 1-2.5 2.5-1-1-2 2-.5-.5 3.5-4.5 1.5-.5 12-24v-2l3-4 1-4-1-1q3.5-1.5 1-3l2.5-2.5 17-11 1.5.5 1.5-2.5 10-5 2-2 35-17h2l13-6 24-8h3l4-2h3l5-2h4zM179 141q-3 1-1 2l2-1zm134.5-57 10.5.5-10.5.5zm83 10q3.3-.7 4 1h6l1 1 9 1 12 4h3l3 2 7 2 23.5 12.5-1.5-.5-4-1-7-4v2l-3-2h-4l-1-1h-4l-1-1-6-1q-1 2-2 0l-6-2-9-5-7-2-5-3-8-2zm102 13 3.5 2.5-1.5-.5q-3.8-.7-2-2Z" opacity=".996"/><path fill="#a2d4ee" stroke="#a2d4ee" d="m128.5 123 .5.5-2.5 2.5-.5-.5zm364 4 8 4q1-2 2 0l9 3 3 2h2l3 2 15 5 6 1 .5-.5-5.5-5.5-8.5-6.5 1-1-.5-1.5 15.5 12.5 2 3v2l-6.5.5-1-1h-3l-12-4-8-4h-2l-19-9q-2.5-1-1-2Zm-373 3 .5.5-2.5 2.5-.5-.5zm295 0q36.2 17.3 62.5 44.5l18 21 2.5 5.5 2.5 1.5-.5 1.5 2.5 1.5-.5 1.5 2.5 1.5-.5 1.5 1.5.5q-2.2 1.2.5 2.5l1.5.5-.5 1.5 1.5.5q-2 1 0 2l.5 1.5 1.5-.5-.5 1.5 1.5.5-.5 1.5 1.5.5-.5 1.5 1.5.5-.5 1.5 1.5.5-.5 1.5 1.5.5-.5 1.5 1.5.5-.5 1.5 1.5.5-.5 1.5 1.5.5-1 2h2l-1 2h2l-1 2 2 1-1 2h2l-1 2h2l-1 3h2l-1 3h2l-1 3h2l-1 3h2l-1 3h2q-1.7.7-1 4l1.5 3.5 1-2 .5 1.5-1.5 4.5-.5-3.5-1.5-1.5-1.5 3.5-.5 5.5-1-3-1 2-.5-1.5q1.8-.7 1-4h-1l-.5 1.5-.5-1.5q1.7-.7 1-4l-2.5-6.5-1 2-.5-1.5 1-3h-1l-.5 1.5-.5-1.5 1-2h-2l1-3h-2l1-2-2-1 1-2h-2l1-2-2-1 1-2h-2l1-2h-2l1-2h-2l1-2-4.5-8.5-1.5.5 1-2h-2l.5-1.5-1.5-.5.5-1.5-1.5-.5q2.3-1.2-.5-2.5l-1.5-.5.5-1.5-1.5-.5q2.3-1.2-.5-2.5l-1.5-.5.5-1.5-2.5-1.5.5-1.5-2.5-1.5q2.3-1.2-.5-2.5l-1.5-.5-.5-2.5-2.5-1.5-.5-2.5-3.5-2.5-5-7-20.5-20.5-15-12-12-8-19.5-10.5 1.5-.5 13 7 2-4 1.5-.5q-5.4-5.1-13.5-7.5-2.5-1-1-2Zm-235 1 .5.5-3.5 3.5-1.5.5q-1 4 1 5l-2 2 1 1q-3.5 1.5-1 3l-.5 1.5-1-2q-25.2 17.3-45 40-1.3-2.2-2.5.5l-11 17-11 21v2l-3 5-5 15-2 3v3L88.5 265l-1-3-3.5.5-.5 3.5-1.5-4.5h2l1-6-.5-1.5 1.5-.5-1-3h2l-1-3 2-1-1-2 2-1-1-2 2-1-1-2h2l-1-3h2l-1-2 2-1-1-2h2l-1-2 2-1-.5-1.5 1.5-.5-1-2 11-22 14-22 16-20 19.5-19.5 5-4 .5.5-15 15 .5.5 3 1 4-5 5-4-.5 1.5-1 3 .5.5 6-6zm-14 1 .5.5-2.5 2.5-.5-.5zm-51 2 .5.5-3.5 3.5-.5-.5zm290 0 3.5 1.5-1.5.5-2.5-1.5zm-262 2 .5.5-2.5 2.5-30 16h-2l-11 5h-6l-.5-3.5 9.5-10.5q1 2 2 0l2.5-1.5-1-1 4.5-4.5-1 3 4-3 .5.5-5.5 5.5-1.5.5-.5 1.5-5.5 4.5-4 5 2.5.5 13-6h2l17-9 1.5.5.5-1.5q1 2 2 0zm350 17q22.4 20.6 40 46l.5-1.5-7-14q1-1.5 2 1l13 21 8 17-.5 1.5 1.5.5-.5 1.5 1.5.5-1 2 2 1-.5 1.5 1.5.5-1 2 2 1-.5 1.5 1.5.5-1 2 2 1-1 2 2 1-1 2 3.5 10.5 1.5.5-1 3 1.5 4.5 1.5-.5-1.5 2.5-2-3-3.5-.5-.5-2.5-1 2-.5-1.5 1-3h-2l1-3h-2l1-3h-2l1-3h-2l1-3h-2l1-3h-2l1-2-2-1 1-2h-2l1-2-2-1 1-2h-2l1-2-2-1 .5-1.5-1.5-.5.5-1.5-1.5-.5-1-4-9-17-13-20q-11.6-16.4-26-30zm-343 40q2.5 1 1 2l-1-1-1.5.5zm408 70 .5 2.5h-1zm-446 8 .5 2.5h-1zm-1 4 .5 2.5h-1zm415 2 .5 2.5h-1zm-416 3 .5 2.5h-1zm-1 4 .5 4.5-1 1v6l-1 1v9q2.3 1.3 1 6h-1l-.5-5.5-.5 32.5h1l.5-1.5.5 6.5q-1.7.8-1 4 2.8.8 2 5l-1 3 2 2 1 10 1 1 3 15 6 18 2 3v2l11 23 12 18-.5.5-2.5-2.5-6.5-10.5-9.5 19.5-1 5 .5 1.5-1.5-.5q16.7 25.8 39.5 45.5l16.5 13.5-.5.5-2-2-4-3h-8v1l9.5 7.5-.5.5-2-2-5.5-3.5-.5-1.5-10-7-23.5-23.5-12-15-12-18 .5-1.5-1.5-.5.5-1.5-2.5-1.5.5-1.5-1.5-.5.5-1.5-1.5-.5.5-1.5-1.5-.5q2-1 0-2L95.5 422l-1.5.5 1-3-4-8q1-1.5 2 1l1.5 2.5 3-1 1 2 .5-2.5-1.5-2.5-1 2-.5-1.5 1-3-7-20v-3l-2-5v-4l-1-1v-4l-1-1v-4l-1-1v-7l-1-1v-7l-1-1v-12h1l.5 3.5 7.5-15.5v-2l2-2v-2l13-26v-4l1-1zM124 457l-1 2q1 2 2 1zm401.5-170 .5 2.5h-1zm1 6 .5 4.5h-1zm9 2 .5 2.5h-1zm26 0 .5 2.5h-1z" opacity=".996"/><path fill="#a2d4ee" stroke="#a2d4ee" d="m108.5 297 .5 2.5h-1zm419 4 .5 10.5-1 3 2 1v15l-1 1v11l-1 1-1 12-5 11-3 11-2 3-10 30-6 14q2 1 0 2l-3 7-7 11-10 13-7.5 7.5-1-1-1.5.5 2-2v-3l3-6q-2.5-1.5 1-3l1-4 6-7 15-24 9-20 6-18 2-11 1-1 1-10 1-1v-6l1-1 1-20 3-6 1-5 3-5zm9 3 .5 3.5h-1zm26 1 .5 4.5h-1zm0 34 .5 3.5h-1zm-26 2 .5 2.5h-1zm25 9 .5 2.5h-1zm-13 61 .5 1.5-1 2 2.5.5 2-3 .5 1.5-6 14 .5 1.5-1.5-.5 1 2h-2l1 2h-2l1 2-2 1 .5 1.5-1.5.5.5 1.5-1.5.5q2 1 0 2l-.5 1.5-1.5-.5-1 2 .5 1.5-1.5.5.5 1.5-1.5.5.5 1.5-1.5.5q2.3 1.2-.5 2.5l-1.5.5q2.2 1.3-.5 2.5l-1.5.5q2 1 0 2-16.8 27.7-40.5 48.5l-18 14v-1l6.5-4.5-6.5-.5-1-1-7 6-11 7q-1.5-1 1-2 27.8-17.2 48.5-41.5l16.5-21.5 1.5-.5v-2l2.5-3.5 2.5-1.5-.5-1.5 1.5-.5q-2.2-1.3.5-2.5l1.5-.5-.5-1.5 1.5-.5q-2.2-1.2.5-2.5l1.5-.5-.5-1.5 1.5-.5-.5-1.5 1.5.5-1-2h2l1-2-.5-1.5 1.5-.5-.5-1.5 1.5-.5-.5-1.5 1.5.5-1-2h2l-1-2h2l1-4-.5-1.5 1.5.5-1-2h2l-1-2h2l1-4-.5-1.5 1.5.5-1-2h2zM480 513l-1 2q1 1 2-1zm-8.5-47 .5.5-7.5 7.5-.5-.5zm11 1 .5.5-3.5 3.5-.5-.5zm-24 11 .5.5-4.5 4.5-.5-.5zm11 2 .5.5-3.5 3.5-.5-.5zm-18 4 .5.5-2 2 1 1-2.5 2.5-.5-.5 2-2-1-1zm9 2-.5 1.5 1 1-1.5 1.5.5-1.5-1-1zm-14 2-.5 1.5 1 1-3 3-2 6 .5.5 2-2 3-2 .5.5-2 2 .5 1.5-2-1-1.5 1.5.5 1.5-2-1-1.5 1.5.5 1.5-2-1-1.5 1.5.5 1.5-2-1-3.5 2.5.5 1.5-2-1v2q-1-2-2 0l-1.5.5.5 1.5-2-1v2l-2-1v2l-2-1v2l-2-1v2l-1.5-.5-.5 1.5-2-1v2l-2-1v2l-2-1v2l-2-1v2l-2-1-1 2-1.5-.5-.5 1.5-2-1v2l-2-1-1 2-2-1-1 2-2-1v2l-2-1-1 2-2-1-1 2-2-1-1 2-2-1-3 2-1.5-.5-.5 1.5h-3l-5 2h-4l-1 1h-4l-1 1h-5l-1 1h-7l-1 1h-10l-1 1h-25l-1-1h-10l-1-1h-7l-1-1h-5l-1-1h-4l-4.5-1.5 3.5-.5q1.3 2.3 6 1v-1l-1.5-.5 1.5-2.5 5.5-.5-18-4 3.5-.5 5 2h5l1 1q4.8-1.2 6 1h8l1 1h38l1-1 15-1 1-1 9-1 1-1h3l6-2 1 1q1.5-3.5 3-1l1.5-.5.5-1.5 2 1 1-2 2 1 1-2 2 1 1-2 2 1 1-2 2 1 1-2 1.5.5.5-1.5 2 1v-2l2 1 1-2 2 1v-2l2 1v-2l2 1v-2l2 1v-2l2 1v-2l2 1v-2l2 1v-2l2 1v-2l2 1v-2l2 1 3.5-2.5-.5-1.5 2 1v-2q1 2 2 0l1.5-.5-.5-1.5q1 2 2 0l1.5-.5-.5-1.5 2 1 1.5-1.5-.5-1.5 2 1 1.5-1.5q-2.2-1.3.5-2.5l2 1 1.5-1.5q-2.2-1.2.5-2.5Zm9 2 .5.5-2 2 .5 1.5-1.5-1.5zm-186 34 2.5.5-2.5.5zm2 8 3.5.5-3.5.5z" opacity=".996"/><path fill="#bb6e6e" stroke="#bb6e6e" d="m496.5 8-.5 1.5-.5 12.5-.5-12.5zm11 5 .5 10.5h-1zm-10 10 2.5 2.5-1.5 1.5zm-51 62 2.5 2.5-1 1-.5 17.5-.5-19.5zm12 2 2.5 2.5-.5.5-2.5-2.5zm2 4 .5 5.5q-1 1.5-2-1zm-272 6 .5 2.5-2.5.5v-1l1.5-.5zm272 3 .5 4.5-1.5 2.5-.5-4.5zm31 226 1.5.5-1 3 .5 1.5-2.5-2.5 1-1zm-1 5q2.5 1 1 2l-1-1-1.5.5zm-3 1 .5 1.5-2.5 1.5-.5-.5zm-24 61 .5 3.5-1.5.5-.5-1.5zm-1 12 3.5.5-.5 2.5-2 1q-2.5-1-1-4Zm-56 49 1.5.5-.5 1.5-1.5-.5zm-4 5 1 1 1.5-.5-.5 3.5-1-2-1.5-.5zm-4 1 2.5.5-.5 1.5-2-1v2q-3-1.5 0-3Zm9 5 .5 2.5h-1zm-11 3 2.5 1.5q-1 2.5-2 1zm10 2-.5 1.5-.5 1.5-.5-1.5zm-79 15q2.5 1 1 2l-1.5-.5zm-10 1 1.5.5-.5 1.5 1.5.5-2 1 .5 1.5-1.5-1.5.5-1.5-1.5-.5zm-149 35 7 5 1.5-.5-1 1 .5 1.5-2.5 1.5.5 1.5-2-2-6-2 .5 1.5-.5 1.5-3.5-4.5zm308 0 2.5 1.5 2 3-.5.5-4.5-4.5zm-4 1 1.5.5-3.5 2.5-.5-.5zm-307 16 1.5 2.5-2.5 2.5-.5-.5q2-1 0-2zm364 20 2.5 1.5-.5 1.5-2.5-2.5zm-400 4 .5 4.5-1 1v6l-1 1v7l-2 2 .5 1.5-1.5-.5q1.7-1.8 1-6l1-1 1-14zm399 9q.1 3.4 2.5 4.5v5l-2.5 4.5-.5-3.5 1-1v-6q-1.9-.9-.5-3.5Z"/><path fill="#c8c8c9" stroke="#c8c8c9" d="M133.5 14q1 2 2 0l1.5 1.5-3 1 1 1v11l-2 3 1 1-2.5 2.5-.5-2.5 1-1v-15zm50 86 2.5 3.5v10l-.5 1.5 1.5.5-4.5 1.5.5-1.5v-13l1-1zm-16 1 1.5 2.5q-1 1.5-2-1zm20 0 2.5 1.5-1.5.5q-2.5-1-1-2Zm123 26q4-1 5 1h13q1-2 5-1l5 3h4q1.5-3.5 3-1l1.5.5-.5 1.5 4.5-.5.5-1.5 2.5 1.5-.5 1.5 3.5-.5.5-1.5 2.5 1.5-.5 1.5 2.5-.5.5-1.5 2.5 1.5-2 1 3.5.5 1-2q2.5 1 1 2l-1.5.5 3.5.5 1-2q2.5 1 1 2l-1.5.5 3.5.5v-2l19 6 13.5 6.5-1.5.5-12-6-15-5h-3v1l3 2q1.5-2.5 3 1l12 4 9 5h2l18 10 15 10 11 9 17.5 17.5 1 2-.5.5-3-3-3.5-2.5-.5-1.5q-1.5 2.5-3-1l-21-13-4.5-1.5-2.5-3.5-2 1v-1l1.5-.5-3.5-.5-1.5.5 1-2-5.5-4.5-1.5.5 1-1-2.5-2.5-1.5.5-1.5-2.5-1.5-.5-.5-1.5-23-14h-2l-7-4-6-2h-3l-1-1h-3l-9-3-11-1-1-1h-9l-1-1h-27l-1 1h-10l-1 1h-5l-1 1h-5l-1 1q-4.2-.7-6 1l-2-1q-1.5 3.5-3 1l-2.5.5-.5 1.5-2-1-15 5v-1l4.5-1.5-.5-1.5 3 1 6.5-2.5-.5-1.5q.8 1.7 4 1l4-2 13.5-2.5-.5-1.5q1.2 2.3 6 1v-2l1 1h6v-2q2.8 2.2 9 1zm-62 14 2.5 1.5-3.5 1.5v-1l1.5-.5zm-7 3 2 1 2-1v1l-21 10-14.5 9.5.5 1.5q-1.5-2.5-3 1l-1.5.5.5 1.5q-1.5-2.5-3 1l-2.5 1.5 1 1-3.5 3.5q-1.2-2.2-2.5.5l-25 27-15 22-13 28-1 7-2 5v4l-1 1v9l-1 1-1 7q2 1 0 2v16l2 2h-2l.5 2.5 1.5-.5-1 2q2 1 0 2-1.2 4.8 1 6l-2 3 1 2-1 2h2q-2.2 1.3.5 2.5l1.5.5-1 2 2 3-4 3 .5 1.5-1.5.5.5 1.5 1.5.5q-2.2 1.3.5 2.5l4.5 1.5q-.7 3.8 1.5 4.5l1-3 .5 4.5q-1 2.5-2 1l.5-1.5q-4.7-.7-5.5 2.5l.5 1.5-1.5.5 1.5 2.5 1.5.5.5 1.5 3.5-.5.5-1.5.5 9.5-1.5-.5-2.5 2.5.5 3.5 1.5.5 1.5 2.5 1.5-.5q2 2.5 1 8-2 1 0 2v3l2 2 1 8 2 4 1 7 3 9 2 3v2l2 3v2l3 5q-1 1.5-2-1l-.5-1.5-1.5-.5-14-25v-2l-5-10-6-18v-3l-2-5v-4l-1-1v-4l-1-1v-5l-1-1-2-31 1-3v-13l1-1v-7l1-1 1-11 1-1v-4l1-1 1-7 2-4v-3l3-9-3-2 1.5-.5 2 1-.5-1.5-1-2h2l-.5-1.5-1.5-.5 1.5-.5 1.5.5 1-4-.5-1.5 1.5.5-.5-1.5-1.5-.5 1.5-.5 1.5.5-.5-1.5-1.5-.5 3-1-.5-1.5 1.5-.5-.5-1.5 1.5-.5-.5-1.5 1.5-.5-2-1 3-1-.5-1.5 2.5-1.5-.5-1.5 1.5-.5-.5-1.5 1.5-.5 1.5-4.5 1.5-.5v-2l2.5-3.5 1.5-.5 3-6 14-16-.5-1.5 1 1 6.5-6.5-.5-1.5q1.2 2.3 2.5-.5l-.5-1.5 1 1 5-5 12.5-9.5-.5-1.5q1 2 2 0l13.5-8.5-.5-1.5 2 1 2-2 17.5-8.5z" opacity=".996"/><path fill="#c8c8c9" stroke="#c8c8c9" d="m408.5 147 4.5 2.5-1.5-.5-3-1zm6 3q33.8 17.7 57.5 45.5l19 26 12 23v2l3 5 7 21 1 8 1 1v4l1 1v4l1 1v5h-1v-5l-1-1v-4l-1-1v-4l-1-1-2-11-5-15-2-3v-2l-10-21-12-19-7-9-22.5-23.5q-16.2-14.8-37-25-2.5-1-1-2Zm-98 6 1.5.5q-1 2.5-2 1z" opacity=".996"/><path fill="#c8c8c9" stroke="#c8c8c9" d="m474.5 205 2.5 2.5-.5.5-2.5-2.5zm-277 37 .5 2.5h-1zm-64 28 .5 1.5-1.5.5q-1.5-1 1-2Zm-3 12 .5 1.5q-1 2.5-2 1zm-1 5 .5 1.5q-1 2.5-2 1zm383 1 .5 2.5h-1zm-384 5 .5 1.5q-1 2.5-2 1zm385 1 .5 2.5h-1zm4 4 .5 5.5h-1zm-390 2 .5 2.5-1.5 3.5-.5-2.5zm387 2 .5 3.5h-1zm4 6 .5 6.5h-1zm-392 1 .5 7.5-1 1-.5 5.5-.5-5.5 1-1zm389 4 .5 21.5h-1zm-190 3q5.6 2.4 5.5 10.5l-1 3-2.5 2.5q-2.2 1.8-7 1l-3.5-3.5.5-.5q1.7 2.9 6 3l4.5-2.5q2-2.5 1-8l-4-3zm-4 1q1.5 1-1 2l-2 1q-1.5-1 1-2zm-196 9 .5 4.5 1 1v8h-1v-8q-2.4-1.4-.5-5.5Zm1 16 .5 2.5h-1zm388 0 .5 4.5h-1zm-387 4 .5 4.5h-1zm386 5 .5 2.5h-1zm-386 1q2 .5 1.5 3.5h-1zm1 5q2.3 1.8 1.5 6.5h-1v-4q-1.7-.7-.5-2.5Zm384 0 .5 2.5h-1zm-1 5 .5 2.5h-1zm-381 3 3.5 14.5h-1l-2-10-1-1zm5 19 1.5 4.5h-1q-1.7-1.7-.5-4.5Zm2 6 2.5 6.5h-1l-2-5zm3 8 13.5 27.5 10 15 18.5 21.5 2.5 1.5.5 1.5q24.7 23.8 58 39h2l8 4 15 5h3l9 3h5l6 2h7l1 1h8l1 1 6.5.5-6.5.5-1-1h-9l-1-1h-6l-1-1-10-1-1-1-11-2-18-6-5-3h-2l-18-9-16-10-20-16-12.5-12.5-11-13-13-19-11-21v-2l-2-3z" opacity=".996"/><path fill="#c8c8c9" stroke="#c8c8c9" d="m192.5 433 1.5.5q-2.7 3.8-7.5 5.5-2.5-1-1-2 1 2 2 0zm281 11 .5.5-2.5 2.5-.5-.5zm-299 4 3.5 3.5-.5.5-3.5-3.5zm294 2 .5.5-3.5 3.5-.5-.5zm-2 7 .5.5-17.5 17.5-11 8q-1.5-1 1-2 15.5-10 27-24Zm-283 1 4.5 4.5-.5.5-4.5-4.5zm269 8 .5.5-4.5 4.5-.5-.5zm-257 3 2.5 2.5-.5.5-2.5-2.5zm249 4 .5.5-2.5 2.5-.5-.5zm-243 1 2.5 2.5-.5.5-2.5-2.5zm234 10 1.5.5-19.5 12.5-26 12-12 4h-3l-4 2h-3l-1 1h-4l-5 2h-5l-1 1q-5.5-1-8 1-1.5-1 1-2h7l1-1 14-2 4-2 7-1 9-3 3-2 5-1 19-9zm-152 29 2.5.5-2.5.5zm5 1 2.5.5-2.5.5z" opacity=".996"/><path fill="#c8c8c9" stroke="#c8c8c9" d="m354.5 514 2.5.5-2.5.5zm-59 1 2.5.5-2.5.5zm52 0 2.5.5-2.5.5zm-44 1 4.5.5-4.5.5zm34 0 4.5.5-4.5.5zm155 1 5.5.5 2 4-.5.5-2-2-7 1-.5-1.5zm-155 2 6.5.5-6.5.5-1 1h-6v-1h6zm-180 1 1.5 2.5-1.5-.5-2 2-.5-.5.5-1.5 1.5-.5zm160 0 10.5.5-10.5.5zm167 3v2h7l1.5 1.5 1 2-1.5-.5q-5.7-1.2-7 2l.5-1.5-3-3zm-336 19 5 4 5-4 .5.5-5.5 5.5h-2l-4 3-3-2-5 5-.5-.5 4.5-5.5 5.5-4.5zm341 3 2.5 2.5-.5.5-2.5-2.5zm5 4 6 5q6-1 7 3 1.3-2.2 2.5.5-2.3 1.3.5 2.5l1.5.5-1.5 3.5-1-2-2 3 .5-1.5-2-2-.5-1.5-1.5.5 1-1-6.5-6.5-4.5-3.5zm-348 4-1 3 2-1 .5.5-2.5 2.5-1-2-2 3-1.5-.5zm-30 4q2.5 1 1 2l-1-1-1.5.5zm398 6-.5 1.5q1 4-1 5 2 1 0 2l-.5 4.5-1.5-3.5v-4zm-5 2q2.5 1 1 2l-1.5-.5zm-1 4q2.3.8 1.5 4.5-1 1.5-2-1zm-395 6 .5 6.5q-1 1.5-2-1l1-1zm396 0 2.5 4.5q-1 1.5-2-1z" opacity=".996"/><path fill="#d8d7d7" stroke="#d8d7d7" d="m131.5 14 1.5.5-1 2v15l-1 3-2.5 2.5-13 9-.5-.5 4.5-4.5 5.5-3.5 1-3-2-3 1-1v-9q-2.3-1.2.5-2.5l3.5-2.5.5-1.5zm379 2 .5 4.5h-1zm-121 1 .5.5-4.5 4.5-.5-.5zm-230 3 1.5.5L141.5 35l-2.5.5-1.5 2.5-1-1-2.5 2.5-1.5 2.5-1-1-2.5 2.5-2.5 3.5q-1.5-2.5-3 1l-1.5-.5 2-3-.5-1.5q1.5 2.5 3-1l1.5-.5-.5-1.5q1.5 2.5 3-1l1.5-.5-.5-1.5q1.3 2.3 2.5-.5l1.5-2.5 1.5.5 1.5-2.5zm232 4 .5.5-6.5 6.5-.5-.5zm-279 34 .5.5-2.5 2.5-.5-.5zm64 42q6-1.5 7.5 1.5l-1 1v13l-1 1 1.5.5 1.5-.5-5.5 4.5-2.5-2.5q2-1 0-2l-.5-1.5-1.5.5q2-1 0-2l-.5-1.5-1.5.5 1-2-1.5-1.5-1.5.5 2-3v-2l-.5-1.5 1.5-.5-.5-1.5 2 1zm139 27 13.5.5-13.5.5zm-14 1 7.5.5-7.5.5zm35 0 7.5.5-7.5.5zm-43 1 6.5.5-6.5.5-1 1h-5l-1 1-9 1-7.5 2.5 3.5 1.5 3-2 2 1 6-2h5l1-1q4.8 1.2 6-1h10l1-1h27l1 1h9l1 1 11 1 1 1h3l1 1h3l1 1h3l1 1h3l6 2 7 4h2l23.5 14.5.5 1.5 2.5 1.5.5 1.5 1-1 3 3 5.5 4.5.5 1.5h3l3.5 3.5-.5.5-3-3q-3.5-.5-4 2l-1.5-.5 1 2-1 2 3.5 2.5q1-2 2 0l1.5-.5q-2.3-1.3.5-2.5l4-1 26 16 14.5 12.5 18 27 7 14v2l3 5 1 5 4 9v3l4 12 1 9 1 1q-1.2 4.8 1 6v8l1 1v35l-1 1v8q-2.2 1.2-1 6l-1 1v4l-1 1v4l-1 1-2 11-4 12-4 8v2l-10 20-9 14-16 20-11.5 11.5-13 11-19 13-21 11h-2l-8 4-15 5h-3l-9 3h-4l-1 1h-4l-1 1h-6l-1 1h-9l-1 1h-28l-1-1h-9l-1-1h-6l-1-1-14-2-4-2h-3l-4-2-6-1-3-2-12-4-18-9-17-11q-17.4-12.6-31.5-28.5l-13-17v-2l-7-15-4-15 .5-.5 2 2 2-1 2 1v-2l1.5.5 1-4h-2l1-1-2.5-2.5-3.5.5.5 1.5q-1.2-2.2-2.5.5l1 3-1.5.5-1.5-3.5-1-7 2-1 .5-1.5q1.3 2.3 2.5-.5l-.5-1.5 1.5.5-1.5-4.5-1.5.5.5-1.5-3 1-1.5-.5-1.5 2.5.5-1.5v-6l-1-3 1.5.5 2.5-2.5q.8-4.7-2.5-5.5-1.2 2.3-2.5-.5v-13l-1.5-1.5q-4.2-.7-5 2l-.5-.5 2.5-2.5q3.3-.7 4 1l.5-4.5h-1l-.5 2.5-1.5-1.5-.5-3.5h-2l-3.5-2.5 1.5.5 3 1q3.3-.7 2.5-5.5l-3.5-2.5-3 2q-1.5-1 1-2l2.5-1.5-2-4 .5-1.5-3.5-2.5.5-1.5 1 2 4 1 2.5-4.5q-.7-3.2-5.5-2.5l-2 2-.5-.5 2-3q-2.2-1.2-1-6 2-1 0-2l-1-4q2-1 0-2v-16l1-1-1-3 2-6v-9l1-1v-4l1-1 2-11 13-28 15-22 28.5-30.5q1.3 2.3 2.5-.5l-2.5-1.5-26.5 25.5-13 17-9.5 15.5.5-1.5q13.5-25.5 33.5-44.5l1.5-.5.5-1.5 22-18 19-12 12-6h2l5-3h2l14-6h3l4-2h3l9-3 11-1zm-26.5 7-3 1v1q3 1 4-1l2 1v-1zm-6 2v1h2zm-3 1v1h2zm-3 1v1h2zm51 0-4 5h2l1 2v1l2-1 2 1-1-1 3-2-1-2q0-3-4-3Zm15 0-3 5h2l1 2 3-1 2-2-1-3zm17 0-3 3 1 5 2-1 2 1 2-4-1-2zm-47 2-3 2q-1 4 1 6l2-1 2 1v-1l2-1-1-3zm63 0-2 1-2 3 3 4 3-1q2-1 1-4zm-80 4-3 5h2v2l2-1-1 2h3l-1-1h2q2-1 0-2h2v-2l-3-3zm94 0q-3 1-2 5l4 2 2-1 1-3q-1-4-5-3Zm16 4q-4 1-3 6 1 2 6 1l1-2-1-3zm-125 1q-2 1-2 4l-1 1 3 2 6-3v-1l-1-1-1-1zm56 1-2 3h2q-1 2-2 0l-2 1q-1-2-2 0l-2-1-22 1-5 2h-3q-1 2-2 0l-4 2-6 1-3 2h-3l-5 3h2v1l-2-1-3 1 2 1-2 1-3-1v2l-1-1-3 1 2 1-2 1-2-1-1 2-2 1v-1l-3-1q-3 1-1 3l-1-1-3 3 2 1 5-3 1 2v10l-4 2-1-7-1-2-1 2-2 1v-1l-2-3-1 2-11 7-17 17-6 9-4 9-1-2-5 9h-5q-3 1-1 3l-1-1-3 3 1 1-2-1v2l-2 1 2 4 2-1 1 1v12l-1-7-4 11v3l-9 20-5 15-1 7-1 1v6l5 1h-4v2l-2-1q-3 1-1 3l-1-1-2 3 1 3-1 3 1 3 2-1 1 2-2 1v2h-2l1 4 2-1 1 2v1l2-1-1 2 5 1-5 1v5l2 6v6l1 1v5l2 4 1 7 11 26v-4q2-3 3 0h-2q-1 6 3 8l-1-1-3 4v3h2l-1 3 5 3 2-1v2q4 1 6-1l-1-1q1-2 2 1l-5 3 2 3h2v3l5 3h1l-3 2-3 3 1 1-1-1-3 2-1 4-2 2v3l2-1q2 1 0 3l2 1h-1l-4-3v-2l-2-2-7-7-1 1 10 14q16 18 36 32l16 10 18 9h2l14 6h3l4 2 11 2 1 1 10 1 1 1h6l1 1h11l1 1h18l1-1h11l1-1h6l1-1h5l1-1h4l1-1 8-1 4-2h3l9-3 30-14 27-19 11-11-1-1q1-3 3-1l9-9 8-10 12-19-1-2 1-3 1 3 6-11-1-3h2l5-12-1-2 2-1 4-12-1-3 1-3 1 2 1-4v-4l1-1 1-11 1-1v-9l1-1v-29l-1-1v-9q-2-2-1-6h-1v-6l-2-5v-4l-2-3v-4l-3-9h-1v-1l-1-5q-3-4-4-9h-1v-1l-6-13h-1v-1l-6-11-11-15h-1v-1l-4-6-1 2h-2v2l-1-1-2 2 1 2-1 2q1 3 6 2v-1h2l1-2 3 7q-2 1 0 2-1 2-2 0l-1 4 3 2 1-1v2l3-1 2 4v2l2 1h1l-1 1h-2l1 2-1 2 4 2 3 11v4l2 5 1 9 1 1v7l1 1v10l-2-9-3-6-1-6-10-21v-1l-6 6h3v1q-5 1-6-1 1-3 3-1 2-1 0-2 1-3 3-1l2-4-1-5h-1v-1l-4-4h-5l-1-1h4l-4-8-1 2q-5-12-13-21-9-11-20-19l-13-8-4-1-1-5-2-2-5 3-11-5-6-1-4-2h-3l-4-2h-4l-5-2h-5l-1-1h-6l-1-1h-8l-2 1 1-2h-1v-1l-1-1q-1-2-2 0v-2q-6-1-8 1-3 1-1 3l-1-1q-1 2-5 1l-1-2q-1-3-5-2Zm7 2v1h3zm-74 2-3 1-3 4 3 2 4 1-1-1 2-1-1-1 1-2-1-1zm151 0-2 1-2 4q1 3 6 2 2-1 1-4zm-168 8-4 4h2l-1 2q1 2 3 0l-1 2h4l-1-1 2-2 1 1-1-3q0-3-4-3Zm181 0-3 2-1 3 2-1-1 2q1 2 3 0l-1 2h4l-1-1h2l1-1q-2-1 0-2l-1-2q-1-3-4-2Zm-204 1q-3 1-1 2l2-1zm-4 3q-3 1-1 2l2-1zm15 4-2 1q-2 1-2 4 2 1 0 2 1 2 3 0l3 1-1-1q1-3 3-1v-3h-1l-1-1zm11 5q-2 1 1 2h1zm208 4-1 2-1-1-2 3 1 4q1 2 6 1l-1-1h2l1-1-1-2 1-2q-1-4-5-3Zm-233 1-3 4 1 2h2l-1 2h4l-1-1 3-5zm244 10q-4 1-3 6l3 2 1-1-1 2h3l-1-1h2q3-1 2-5l-2-3-3 1zm-256 1-2 2q-1 3 2 4h3l3-2v-1h-1l-1-1q-1-3-4-2Zm-9 11-4 3v2l2 3 2-1 2 1-1-1q1-3 3-1v-3zm-11 13q-3 1-2 6h2v2h2l2-3v-3q-1-3-4-2Zm-8 13-3 3q-1 3 3 4h2l3-2-1-2q-1-4-4-3Zm-7 14-2 1-1 5q1 2 5 1 2-1 1-5zm-7 15-2 2q-1 4 3 5l3-1v-4q-1-3-4-2Zm-5 15q-3 1-2 5 1 3 5 2 2 0 2-4-1-4-5-3Zm-2 15-2 1-2 4q1 3 6 2 2-1 1-5zm-3 16q-3 1-3 5 1 3 6 2 2-1 1-5-1-3-4-2Zm24 105-2 1v2h-1l-1 4 4 2q1-2 2 0l3-2-1-5zm7 14v2l-1-1-2 3 1 3q1 2 3 0l1 2 3-1-1-1h2l1-3h-2l1-2h-1v-2l-2 1zm175.5-295 3.5.5-3.5.5zm7 1 2.5.5-2.5.5z" opacity=".996"/><path fill="#d8d7d7" stroke="#d8d7d7" d="m296.5 156 6.5.5-6.5.5zm-8 1 4.5.5-4.5.5zm24 0 3.5.5-3.5.5zm-29 1 2.5.5-2.5.5zm-5 1 2.5.5-2.5.5zm30 0 .5 3.5h-1zm-35 1 2.5.5-2.5.5zm54 0 2.5.5-2.5.5zm3 6 .5.5-2.5 2.5-.5-.5zm3 3 .5.5-2.5 2.5-.5-.5zm-82 4 1 1 1.5-.5q-2 1 0 2l1 2v18q-1 2.5-2 1l1-1v-18l-.5-.5-2 2-1.5.5-1.5 2.5-2-1-2 2-.5-.5.5-3.5 1.5.5.5-1.5 3.5-2.5zm143 3 .5 2.5h-1zm10 7 .5 5.5h-1zm-256 49-.5 1.5-2.5 5.5-.5-1.5zm166 0 .5 2.5h-1zm-138 6 .5 10.5h-1zm284 0 1.5.5-.5 2.5zm-318 6 .5 1.5-1.5 2.5-.5-1.5zm173 0 .5 3.5h-1zm22 2 1 2q1-2 2 0l2.5.5-1 2-1 10-1 1v4l-1 1v4l-1 1v4l-1 1v4l-1 1v4l-1 1v5l-1 1-2 14-2.5 4.5-1-2-2 1 .5-1.5-1-3 2-1q.8-3.2-1-4l2-1q.8-3.2-1-4l2-1q1-4-1-5h2q1-4-1-5l2-1q.8-3.2-1-4l2-1q.8-3.2-1-4l2-1q1-4-1-5h2q1-4-1-5l2-1q.8-3.2-1-4l2-1 1-8q-1.9-.9-.5-3.5Zm-141 3q1.5 1-1 2l-1.5-.5zm272 2 .5 3.5h-1zm2 0 .5 3.5h-1zm-277 3 2.5.5-2.5.5zm260 1 4.5.5-4.5.5zm9 2 2.5.5-2.5.5zm29 8 2.5.5-2.5.5zm-363 25 .5 2.5h-1zm-1 6 .5 3.5h-1zm-1 10 .5 2.5h-1zm373 1 .5 2.5h-1zm-14 3 2.5.5-2.5.5zm-153 2q1 2 2 0l2 2 4.5 3.5 2 4-3.5.5-2-5-1.5.5q2-1 0-2l-.5-1.5-1 1-2.5-2.5zm-12 5 6 2 2.5 2.5q1.1 6.1-1.5 8.5l-6 2-2-1v2l-1.5-.5-1-2 .5-1.5-1.5-.5-1-4 2.5-4.5 1.5-.5-.5-1.5 2 1zm1.5 4q-4 1-3 6 1 2 6 1 2-1 1-4 0-3-4-3Zm-165.5-3 1.5.5q-1 4 1 5l-1.5-.5-1.5-.5zm330 0 .5 1.5-1.5.5q-1.5-1 1-2Zm-320 1 .5 2.5h-1zm214 1 2.5.5-2.5.5zm103 2 2.5 4.5-4 1 .5 1.5q-.7-1.7-4-1l-1 1h-4l-1 1-8 1-1 1h-15v-1l5.5-.5.5-1.5q.8 1.8 4 1l1-2 3 1 1-2 3 1 1-1 4.5-.5.5-1.5 3 1 1-2 3 1zm-358 1 .5 2.5h-1zm188 0 .5 2.5h-1zm-147 3 .5 2.5h-1zm187 0 6.5.5-2.5 1.5q-1-2-2 0l-10.5-.5 7.5-.5zm-14 1 4.5.5-2 7-6.5 6.5-7 1-1 1-3.5-1.5.5-1.5 3 1q5.5-2 8.5-6.5l-.5-1.5 1.5.5 1-3-.5-1.5 1.5.5zm42 0 3.5.5-2.5 1.5h-14v-1h12zm121 0 2.5.5-2.5.5zm-96 1q4.5-1 5.5 1.5l-13.5.5v-1h7zm28 1 2.5.5-1.5 1.5h-9v-1h7zm-123 8q3 1.5 0 3l-94 75-21.5 18.5q2 1 0 2l16.5 17.5 5.5 3.5.5 1.5 11 7 1-2 1.5 3.5h-2l-.5 5.5-18.5-8.5-.5-1.5-1 2-.5-1.5 1-2-4.5-2.5-2 1-5.5-3.5 1-5-1.5.5-1.5-1.5.5-1.5-2 1-2-1-3 2-5.5-4.5 4-3-1-4 2-1q-2.5-1.5 1-3l.5-1.5 1.5.5-3 3 .5.5 4.5-3.5q-2.5-1.5 1-3l.5-1.5 1 1 3.5-3.5.5-1.5q4 .5 4.5-2.5l.5-1.5 1 1 5-5 5.5-3.5-.5-1.5 1 1 3.5-3.5.5-1.5 1 1 3.5-3.5.5-1.5 1 1 3.5-3.5.5-1.5 1 1 3.5-3.5.5-1.5 1 1 3.5-3.5.5-1.5 1 1 4-4 1.5-.5-.5-1.5 1 1 3-3 1.5-.5-.5-1.5 1 1 3-3 1.5-.5-.5-1.5 1 1 3.5-3.5.5-1.5 1 1 3.5-3.5.5-1.5 1 1 3.5-3.5.5-1.5 1 1 3.5-3.5.5-1.5 1 1 4-4 1.5-.5-.5-1.5 1 1 3-3 1.5-.5-.5-1.5 1 1 3-3 1.5-.5-.5-1.5 1 1 3-3 1.5-.5-.5-1.5 1 1 3.5-3.5.5-1.5 1 1 3.5-3.5.5-1.5q1.5 2.5 3-1ZM195 434q-3 1-1 2l2-1zm-52.5-75 3.5.5-3.5.5zm3 8 .5.5-2 2-.5 3.5-.5-3.5zm351 0 2.5.5-2.5.5zm-318 28 2.5 1.5-.5 1.5-1.5-.5zm290 9q2.3.8 1.5 4.5h-1v-3zm-289 1 2.5 1.5-1.5 2.5-1.5-.5zm10 1 .5 2.5h-1zm209 45 1.5.5-2.5 1.5q-1.5-1 1-2Zm3 0 2.5.5-2.5.5z" opacity=".996"/><path fill="#d8d7d7" stroke="#d8d7d7" d="M228.5 454h7l1.5 1.5-1.5-.5h-7zm221 1 2.5.5-2.5.5zm-211 9 .5 2.5q-1.7.7-1 4l13.5 7.5 5.5 1.5-3.5.5-1-1h-3l-12-4-2.5-2.5h2v-5zm83 13 2.5.5-2.5.5zm105 0 2.5.5-2.5.5zm-168 3h4l3.5 1.5-2.5.5q-1-2-5-1zm66 4 .5 2.5h-1zm-82 3 .5 2.5h-1zm2 6 2.5.5-2.5.5zm154 0 2.5.5-2.5.5zm-141 5 4.5 1.5-3.5.5q-2.5-1-1-2Zm126 1 3.5.5-3.5.5zm-96 2 .5 2.5h-1zm63 0 .5 2.5h-1zm-76 1 2.5.5-2.5.5zm97 1q1.5 1-1 2l-2.5-.5zm-97 1 2.5.5-2.5.5zm15 3 3.5.5-3.5.5zm63 0 4.5.5-4.5.5zm-16 2 3.5.5-3.5.5zm-15 1 2.5.5-2.5.5zm-175 7q6.1-1.1 8.5 1.5l.5 2.5 1-2 .5 1.5-1.5 1.5q-1-2-2 0h-8l-1 1q-2.5-1-1-2l1.5.5zm352 0 5.5 9.5-.5 1.5 1.5.5-.5 1.5 1.5.5-.5 1.5 1.5.5-.5 1.5 1.5.5-.5 1.5 1.5.5-.5 1.5 1.5.5-.5 1.5 1.5.5-.5 1.5 1.5.5-.5 1.5 1.5.5-.5 1.5 1.5.5-.5 1.5 2.5 1.5q.8 4.7 4 7l-1.5-.5-1.5.5-.5 1.5-1.5-.5-2.5 3.5-15.5-17.5.5-1.5-6.5-5.5q2.3-1.2-.5-2.5l-4.5-3.5-4-5 .5-.5 4 4 1-1 5.5-.5-5-8 2.5-1.5-.5 1.5.5 1.5 7-1 1.5.5zm-340 4 4.5 4.5-1.5 1.5-3.5 2.5q2.3 1.3-.5 2.5l-2-2-5.5-.5 4.5-6.5 1 1zm-5 15 .5.5-2.5 2.5-.5-.5zm-6 7 .5.5-2.5 2.5-.5-.5zm4 5 .5.5-4.5 4.5-6.5 5.5 1.5.5 2-2 .5.5-1.5 2.5-5 4q-1-2-2 0l-1.5-1.5-.5-1.5-1.5-.5 8.5-10.5 1 1q1.5-3.5 3-1l2 1zm-24 4-.5 1.5-1.5 2.5-1.5-.5 2-1zm-13 6 3 1 2.5.5-4 8-1.5 7.5-1.5.5q1 4-1 5l2 2-.5.5-4.5-3.5 1-2h-2l1-1v-10l3-6zm388 1 6 5 2-3-.5 1.5-.5 2.5q-6-1.3-7-6Zm7 8 .5 2.5h-1z" opacity=".996"/><path fill="#f2f6f7" stroke="#f2f6f7" d="m413.5 1 2 1 1-1h15v1h-10l-1 1h-6l-1 1-6 1-11 5L382 21.5l-7 8-5 8 .5.5 2.5-2.5q4.2-8.3 11.5-13.5l.5.5-2 2 1 1q-1.3 4.7 1 6l-6.5 9.5-7-1-2-2-2.5 4.5 2.5 1.5h3l12 4 17 8h2L436 72.5l-.5 1.5-17-9h-2l-27-13h-2l-3-2-15-5-6.5-.5q8.7-18.3 23.5-30.5l7-5 10-5 6-2h3zm27 1 2.5.5-2.5.5zm15 7 5 1 7.5 3.5.5 1.5 2-1 2.5 1.5-.5 1.5 2-1v2l2-1v2l2-1v3l-19-10-4-1zm-328 7 1.5.5-5 4 1 1v9q-2 1 0 2l1 2-1.5.5-4.5-7.5v-4l4.5-5.5zm36 2q1.5 1-1 2l-1.5-.5z" opacity=".996"/><path fill="#f2f6f7" stroke="#f2f6f7" d="m407.5 21 .5.5-2.5 2.5-.5-.5zm-4 3 .5.5-4 4-3 5 1 1 .5 6.5 5.5 1.5-2.5.5-1-1-8.5-1.5v-2l3-5zm-279 12 .5 1.5-10 8-1.5 2.5L99 60.5l-9 11-1 3 .5.5 4.5-4.5L104.5 59l29-23 .5.5-2.5 2.5q-5.8 2.7-9.5 7.5l.5 1.5 5-4 .5.5-5.5 5.5q-11.9 8.6-21.5 19.5l-12 15-1 3 1 2-1 1v10l1 1v9l-1 1v32l1 2h-2l3.5 7.5 11-11 31-24q1.3 2.3 2.5-.5l.5-1.5 1 1 2-2 .5.5-24.5 18.5L94 152.5l-3.5 5.5-4.5-6.5-9-20v-3l-3-9v-19l1-1v-3l1-1v-3l2-6 4-8 9-13L107.5 49z" opacity=".996"/><path fill="#f2f6f7" stroke="#f2f6f7" d="m136.5 37 .5.5-2.5 2.5-.5-.5zm-5 4 .5.5-2.5 2.5-.5-.5zm-17 20 .5.5-2 2 .5 63.5 2-1 .5.5-2.5 2.5-13 11-5.5-9.5-3-9q1-4-1-5v-21l1-1v-4l2-4v-3l4-8L108.5 65zm60 40 1.5.5-4 2 1 3-1 2 6 9q-1 1.5-2-1l-8-12zm-32 11 .5.5-2.5 2.5-.5-.5zm45 23 .5.5-2.5 2.5-9.5 6.5q2 1 0 2l-1 4-3 4v2l-7 13v2l-3 6 .5.5 13-13 17-14 .5.5-3.5 3.5-6 4-16.5 15.5-14 16-14 20-13 24v2l-7 15-3 9v3l-2 4v3l-3 9v4l-1 1v5l-1 1-1 15-1 1-.5 32.5-.5-32.5 1-1v-9l1-1v-6h-1v4l-3 5v2l-2 2v2l-8 15v2l-2 2v2L84.5 341l-1-4-.5 12.5 1 1 1 15 1 1v4l1 1v4l1 1v4l1 1 1 7 2 4v3l5 15 4 9h-1l-2.5-5.5-3 1-1.5-.5 2 6-1.5.5-9.5-25.5v-3l-1-1v-3l-2-4v-4l-2-5v-4l-1-1v-5l-1-1q1.3-4.7-1-6v-7l-1-1v-10l-1-1v-30l1-1v-11l1-1v-7l1-1 1-11 1-1 1-8 2-3q-2-1 0-2l1-2q-2-1 0-2-.7-3.7 1.5-4.5l.5 2.5q-1.7.7-1 4l4 1 .5 2.5 4.5-12.5v-3l2-3 1-5 7-15v-2l14-26 12.5-17.5.5.5-2 2 .5 1.5q25.8-28.7 59-50ZM159 181l-3 4h1l3-3zm-75 81-1 4h1zm28 9-1 3h1zm-1 4-1 3h1zm-1 5-1 3h1zm-1 4-1 5h1zm194.5-138 2.5 1.5-1.5.5q-2.5-1-1-2Zm6 0q1.5 1-1 2l-1.5-.5zm-30 2 .5 2.5-3.5 3.5h-2q-2.5-1-1-2l3 1q2.8-1.2 3-5Zm35 4q4.5-1 5.5 1.5l.5 2.5 4.5-.5-4-1 3.5-.5q1.5 2.5 3-1 2.5-2 8-1l4.5 3.5.5 1.5h8l1 1h6l1 1h5l5 2h4l4 2h3l4 2 6 1 11 5 5-3 2.5 1.5.5 5.5 4 1 13 8q11.5 8 20.5 18.5l7 10 4.5 9.5q1.3-2.2 2.5.5l4 7-2.5.5-1.5-.5.5 1.5h5l5.5 4.5 1 5-1 3h2l10 21 1 6 3 6 1.5 9.5.5-10.5-1-1v-7l-1-1-1-9-2-5v-4l-3.5-10.5-3.5-2.5.5-1.5 2 3q4.8.8 5.5-2.5.5-4-2.5-4.5-3.7-.7-4.5 1.5l-.5 1.5-.5-1.5q2-1 0-2v-2l-2.5-3.5-3 1-3.5-3.5v-3l3-4-3.5-5.5-1 2-.5-1.5 1-3q-.7-3.2-5.5-2.5l-3 4 .5-1.5 2.5-3.5 2.5-.5-1-2q1-1.5 2 1l16 21 5 10 2 2 11 23v3l2 3 3 9v4l2 3v4l1 1 1 9 1 1v5l1 1v9l1 1v29l-1 1v9l-1 1-1 11-1 1v4l-1.5 4.5-1-2-.5 2.5 1 3-4.5 12.5-1.5.5 1 2-11 25-14 22-8 10-22.5 22.5-27 19-30 14-9 3h-3l-4 2-8 1-1 1h-4l-1 1h-5l-1 1h-6l-1 1h-11l-1 1h-18l-1-1h-11l-1-1h-6l-1-1-10-1-1-1-11-2-4-2h-3l-14-6h-2l-18-9-16-10q-19.8-14.2-35.5-32.5l-13-17 .5-.5 10 10 2.5 1.5.5 2.5 3-9 8.5-6.5-5-4-.5-2.5-1.5-.5-2-3 2-1-4.5-.5-6.5-4.5-1-6 2-3-1-3-.5-5.5-1 5-10.5-26.5-1-7-2-4v-5l-1-1v-6l-2-6v-5l5-1-4.5-.5-4.5-3.5-1-4 3-2-3-5h1l2.5 4.5 5 1 2-1 .5 1.5-1.5 2.5-3.5-.5-.5-1.5-4.5.5v2l2.5 3.5q1.8 1.7 6 1l5.5-4.5 1-2v-11l-2.5-4.5-3-2h-5l-3.5 2.5-1.5 4.5-.5-2.5 3.5-4.5 6.5-1.5-5-1v-6l1-1 1-7 5-15 9-20v-3l3.5-10.5 1 7 .5-12.5-1.5-.5-2 1v-1l4-2 1 15 4.5-.5v-9l1-1-1-1-.5-11.5q-3.7-.7-4.5 1.5l-1.5 2.5-3 1v-1l6-5 5.5-.5q1.6-5.9 5.5-9.5l1.5.5 3-7 6-9 16.5-16.5 11.5-7.5 2.5-3.5 6-5h3l2 1 2-3v2l3.5-1.5-2-1 7.5-3.5h2l5-3h3l3-2 6-1 4-2q1 2 2 0h3l5-2 22-1 2 1q1-2 2 0l1.5-.5-.5-1.5 1.5.5zm1.5 1-3 4-5 3 1 3h2l3-2v15h5v-22zm15 0-4 2-2 5 5 1 2-4q3 0 3 2l-1 5-3 2-6 7-1 3h16v-3l-8-1 8-9q1-5-1-7l-3-3zm-34 3v1h6zm-8 1v1h4zm-5 1v1h2zm-5 1v1h2zm-5 1v1h2zm128 10-8 7 1 2 4-1h1v13l-1 1q1 2 5 1l1-4v-18zm-166 3-2 3-6 4 2 3 4-2v15l2 1q1-2 2 0l1-1v-19l-1-1 1-2zm16 0-2 3-6 4 1 3h2l3-2 1 16 2-1q1 2 2 0v-18q-2-1-1-4h-1zm77 33-15 22v7l1 1v12l1 1v11l1 1v11l1 1v11l1 1v11l1 1v11l1 1-5 1-3 2-5 6q-2 1-1 6l-1 1 1 5 2 3-30 25-93 74-4 4q1 3-2 4v3q1 2 6 1l2-4v3l-4 3 6 4 3-2 1 1h-1q-3 1-2 5 1 3 5 2 3-1 2-5l-2-2v-1l3 3-1 5 6 3 2-1 3 1 2 5 19 8v-5l1-1v-3l-1 2-11-7-1-1-5-4-17-18-2 1-2 2h-1l27-23 95-76q-2-4-3 0h-1l3-3 6 4 6 1 4 2 1-1 7-1 6-6 2-7-4-1-3 7q-3 5-9 7h-3l7-3q5-4 7-12l14 1-8 1h11l3-1 22 1h-12v1h14l1-1 22 1h-7v1h13l1-1 21 1h-7v1h9l1-1 17 1h-5v1h15l1-1h4l5-2h4l5-2h3l1-2 3 3-1 3-2 1-3-4-5 2 1 3 5 3q4 1 7-1l3-4q1-6-3-7l2-4v-3l-5-5-6 1-3 4v2l4 1v-1q1-3 5-2v3q0 2-3 1l-1 3-1-1-4-2h-4l-1-1h-4l-1-1h-4l-1-1h-4l-1-1h-4l-1-1h-11l-1 1h-15l-1 1h-15l-1 1h-14l-1 1h-15l-1 1h-14l-1 1h-14l-1 1h-11l-2-5-2-3-5-4 2-4 2-14 1-1v-5l1-1v-4l1-1v-4l1-1v-4l1-1v-4l1-1v-4l1-1 1-10 1-2-2-1-1-1-2 1v-5l2-6v-4l1-1v-2zm140 11q-3 1-2 5 0 3 5 2 3-1 2-5-1-3-5-2Zm-276 14-2 1-4 7v9l1 3 6 4 5-1 3-5v-12l-1-2-4-4zm267 1-4 2-3 5q1 2 5 1l2-3 3 1v4l-8 8-2 3v3h15q2-1 1-4l-9-1 3-2 4-4 2-5-1-4-5-4zm1 6 1 3v-2zm25 6q-3 0-3 5 1 3 6 2 2-1 1-5zm-21 4q-3 1-1 2h4zm6 3-1 4h1zm-8 6v1h2zm30 1-2 1q-3 1-2 5 0 3 5 2 3-1 2-5zm3 16q-3 1-2 5 0 3 5 2 3-1 2-5-1-3-5-2Zm4 15q-4 1-3 5 1 3 6 2 2-1 1-5-1-3-4-2Zm2 16-3 3q0 4 3 4l4-1v-4q-1-3-4-2Zm-16 5v1h2zm-149 4-1 2 2 2 2 4h3l-2-4zm150 4q-3 1-1 2h1zm-320 1-1 3h1zm337 1-2 1q-3 1-2 5 0 2 5 2 3-1 2-5zm-337 6-1 3h1zm336 10-2 1-2 3 1 3h5l2-3-1-2zm-3 16q-4 1-3 5 1 3 6 2 2-1 1-5-1-3-4-2Zm-3 15q-4 1-3 6l4 2 2-1q2-1 1-4t-4-3Zm-4 15-2 1q-3 1-2 5l5 2q3-1 2-5zm-30 8-9 13q-2 1-1 6h9v4h5v-3l3-1v-3q-1-3-2-1l-1-14zm-286 1-4 4q-1 4 1 6l2 1h-1l-3 5 1 4 6 4 6-1 3-4v-4l-3-4q3-2 2-7-2-6-10-4Zm309 6-3 3 1 4h5q2-1 1-5zm-296 9-1 3h1zm289 5-2 1-1 5q1 2 5 1 2 0 2-4t-4-3Zm6 2-1 3h1zm-14 11-2 1-2 3 1 3 4 1q3-1 2-5zm-11 13q-3 1-2 6 1 2 5 1 3 0 2-4t-5-3Zm-11 12q-3 1-2 5 1 3 5 2 3-1 2-5-1-3-5-2Zm-220 1-1 5h9l-6 12v6h5v-6l2-6 5-7v-3zm170 1-2 2-1 10v1l9-1 1 3v2l-2 3-5-4-4 2 1 3 5 3q4 1 6-1l4-5q1-5-1-6-1-5-8-4l-1-2 9-1v-3l-2-2-2 1-2-1-3 1zm-193 8-2 1-2 3 1 3 3 1 4-3-1-3zm233 0-2 1-2 3 1 3h5l2-3-1-2zm-200 5-1 3h1zm-1 3-1 6-1 1 2 1 12 4h3l1 1h3l-5-2-13-7zm-20 2-2 1-1 5q1 2 5 1 3-1 2-4t-4-3Zm104 0-3 1-5 6v12l1 2 5 3q4 1 7-1 3-3 2-10l-5-5-4 1-1-2q1-3 5-2l1 2h4l-1-3-2-3zm103 0q-3 1-2 6 1 2 5 1 3-1 2-4-1-4-5-3Zm-193 8-2 1-2 3 1 3 4 1q3-1 2-5zm181 0-2 1-2 3 1 3 3 1 3-1 1-2-1-3zm14 0v1h2zm-168 3v1h4zm5 1v1h2zm-19 4-3 3q-1 3 3 4l4-1v-4q-1-3-4-2Zm153 0-3 3 1 3q1 2 5 1l2-4q-1-4-5-3Zm-139 6q-3 1-2 5 1 3 5 2 3-1 2-5-1-3-5-2Zm124 0-2 2q-1 4 3 5t4-2l-1-4zm-138 2v1h2zm154 0v1h2zm-123 2-2 1q-3 1-2 5 0 3 5 2 3-1 2-5zm94 0-4 3q-1 4 3 5l3-1q2-1 1-4zm-111 4v1h3zm31 0q-4 0-3 5 1 3 6 2l2-3-1-2q-1-3-4-2Zm63 0q-3 0-3 5 1 3 6 2l2-3-1-2q-1-3-4-2Zm31 0v1h3zm-78 2q-3 0-3 5 1 3 6 2 2-1 1-5-1-3-4-2Zm31 0q-3 1-2 6 1 2 5 1 2-1 2-4-1-4-5-3Zm-16 1q-3 1-2 5 1 3 5 2 3-1 2-5-1-3-5-2Zm-46 2v1h2zm94 0v1h2zm-79 3v1h3zm63 0v1h4zm-16 2v1h3zm-15 1v1h2zm-65.5-355 2.5 2.5-.5.5-2.5-2.5zm-9 8 1.5.5-3.5 1.5v-1zm161 3q.2 3.8 3 5 4.3.8 5-2l.5.5-2.5 2.5h-3l-3.5-3.5z" opacity=".996"/><path fill="#f2f6f7" stroke="#f2f6f7" d="m235.5 168 .5 1.5q-.7 3.3-5.5 2.5l-2.5-2.5.5-.5q.8 2.8 5 2zm188 4-.5 1.5-.5 1.5-.5-1.5zm-201 2 .5 3.5-3.5 2.5v-1l2.5-1.5zm200 2 2 3 1.5.5-1.5.5q-3.6-1.1-2-4Zm7 2q1.5 1-1 2l-1.5-.5zm8 3q4.8-.7 5.5 2.5l-.5 1.5-2-3q-4 .8-3-1Z" opacity=".996"/><path fill="#f2f6f7" stroke="#f2f6f7" d="m435.5 182 .5 1.5-1 3q.8 3.3 5.5 2.5l2-3 .5 1.5q-.7 3.3-5.5 2.5l-2.5-1.5-1-4zm-226 5 .5.5-2.5 2.5-3.5-.5 3.5-.5zm239 5 .5.5-2 2q-.7 4.8 2.5 5.5 4 .5 4.5-2.5.8-4.2-2-5l.5-.5 2.5 2.5v3l-3.5 3.5h-2l-3.5-3.5q-.7-4.7 2.5-5.5Zm-261 14 .5 3.5-3.5 2.5v-1l2.5-1.5zm270 3 2 2 3.5.5-3.5.5-2.5-2.5zm50 7 2.5 3.5q-1 1.5-2-1zm-4 8 9.5 18.5h-1l-9-18zm-309 11 2.5 1.5v12l-1.5 1.5-2.5-.5-1-2v-9zm323 0 2.5 5.5h-1l-2-4zm-347 2 .5 2.5h-1zm378 2 2.5 6.5h-1l-2-5zm7 1q2.5 1 1 2l-1.5-.5zm-467 2 .5 1.5-1.5.5q-1.5-1 1-2Zm432 0 2.5 4.5 6 18v3l3 8 1 9 1 1 1 12 1 1v9l1 1v32l-1 1v9l-1 1-1 12-1 1v4l-1 1-3 15-5 15-5 10v2l-9 18-10 16-13 17-14.5 15.5-1.5.5-.5 1.5-23 19-12 8-17 9q-1.5-1 1-2l9-4 14.5-9.5-1-2 3-6-1.5-.5-3 3-16 10-19 9v-1l17-8 19-12 13-10 17.5-16.5 18-22 11-19q-2-1 0-2l8-24 5-11 2-8 2-3 3-11 5-11 1-12 1-1v-11l1-1v-15l-1-1v-13l-1-1v-7l-1-1v-5l-1-1-1-9-5-15v-3l-4-10h1l6 16v3l2.5 7.5.5-5.5 1.5-3.5 1.5.5-1-6-5-15-2-3zm8.5 26-1 4h1zm-3 9-1 3h1zm30.5-34 1.5 1.5 2 6v3l1 1-1.5.5-3.5-10.5zm-43 1 1.5 3.5h-1q-1.7-1.5-.5-3.5Zm-426 1 .5 1.5-1.5.5q-1.5-1 1-2Zm-1 3 .5 2.5q-1 1.5-2-1zm251 1 .5 3.5-1 1-.5 4.5-.5-4.5z" opacity=".996"/><path fill="#f2f6f7" stroke="#f2f6f7" d="m552.5 250 4 12q3.2-.7 4 1l.5-3.5-1-3q1-1.5 2 1-.7 3.3 1 4-2 1 0 2l2 6 2 14 1 1v6l1 1v8l1 1v13l1 1v20l-1 1v13l-1 1-1 14-1 1v5l-1 1v4l-1 1v3l-1 1-3 15-5 15-6 13v2l-5.5 9.5-.5-1.5 5-9v-2l4-9q-1-1.5-2 1l-.5 1.5-2.5-.5-.5-1.5-5.5 11.5v2l-4.5 7.5.5-1.5 2-6 4-7v-2l3-5 2-8 2-3 1-6 3-7 2-11 1-1 1-9 1-1v-6l1-1v-6l1-1v-9l1-1v-37l-1-1v-9l-1-1v-6l-1-1-1-11-2-5v-4l-1-1-1-7-3-7zm5.5 13-1 3h1zM85.5 252l.5 1.5-1.5.5q-1.5-1 1-2Zm250 7 .5 3.5h-1zm-1 5 .5 4.5-1 1-.5 4.5-.5-4.5 1-1zm-2 11 .5 3.5h-1zm-1 5 .5 3.5h-1zm-1 5 .5 4.5-1 1-.5 4.5-.5-4.5 1-1zm-2 11 .5 3.5h-1zm-1 5 .5 3.5h-1zm-1 5 1 3 1.5.5-1.5.5q-2.5-1-1-4Zm-170 10 2.5 1.5 1 3-2.5 3.5-2.5-1.5-1-2zm.5 2-1 5h2v-4zm162.5-2 4.5.5-6 2-2 3-1 5 3 5-.5.5-2.5-2.5q-2.2-2.8-1-9z" opacity=".996"/><path fill="#f2f6f7" stroke="#f2f6f7" d="M321.5 321q4-.5 4.5 2.5.8 3.8-1.5 4.5-4.5 1-5.5-1.5-.7-4.7 2.5-5.5Zm156 3 2.5.5-2.5.5zm-4 1 2.5.5-2.5.5zm-5 1 3.5.5-3.5.5zm-4 1 2.5.5-2.5.5zm-4 1 2.5.5-2.5.5zm-5 1 3.5.5-3.5.5zm-148 10 .5.5-3.5 3.5-.5-.5zm-5 4 .5.5-4.5 4.5-20 16-.5-.5 4.5-4.5zm-195 1 .5 3.5h-1zm1 9 .5 2.5h-1zm168 11 .5.5-3.5 3.5-.5-.5zm-128 2 3.5 3.5v3l-2.5 2.5-.5-.5q2.8-.7 2-5l-3-3zm123 2 .5.5-3.5 3.5-.5-.5zm-5 4 .5.5-3.5 3.5-.5-.5zm-5 4 .5.5-4.5 4.5-15 12-.5-.5 4.5-4.5zm-109 5 3.5 2.5 1 4-2.5 2.5-.5-.5q2.5-.5 2-4l-1.5-2.5q-3.8-.7-2-2Zm88 12 .5.5-3.5 3.5-.5-.5zm-61 2 2.5.5q.8 3.8-1.5 4.5l-2.5-1.5q-.5-3 1.5-3.5Zm.5 1-1 2h2v-1zm-23.5 0h3l3.5 3.5v2l-2.5 3.5-1.5-.5 2-1 1-4q-.7-3.2-5.5-2.5l-2 3-.5-1.5zm79 1 .5.5-3.5 3.5-.5-.5zm226 2 .5 5.5-1.5-.5-2 1-.5-1.5zm-231 2 .5.5-3.5 3.5-.5-.5zm-76 1 3.5 2.5-1.5.5-2.5-2.5zm24 2q3.8-.7 4.5 1.5.8 3.8-1.5 4.5l-3.5-.5-1-3zm1.5 1-1 4h2l-1-1 1-2zm45.5 0 .5.5-3.5 3.5-.5-.5zm-5 4 .5.5-4.5 4.5-4 3-.5-.5 3.5-3.5zm-56 1 4.5 1.5 1 5-3.5 2.5v-1l2.5-1.5q.8-4.7-2.5-5.5l-4 1v-1zm-3 3 .5 3.5 1.5 1.5 1.5.5-1.5.5q-3.8-1.3-2-6Zm49 4 .5.5-4.5 4.5-.5-.5zm-115 5 9.5 19.5-.5.5-2.5-2.5-7-15zm109 0 .5.5-2.5 2.5-.5-.5zm-31 1 4.5 2.5 1 3-2.5 3.5-3 1v-1l3.5-1.5 1-3-1.5-2.5-3-1-2.5 1.5-1 3 2 3q-1 1.5-2-1l-1-3 2.5-3.5zm26 3 .5.5-3.5 3.5-.5-.5zm-5 4 .5.5-2.5 2.5-.5-.5zm-5 4 .5.5-3.5 3.5-.5-.5zm346 3-.5 1.5-2.5 4.5.5-1.5zm4 5 .5 2.5-1.5.5.5-1.5zm-218 39 2.5 1.5q1.3 5.3-1.5 6.5l-3.5-2.5q-.7-4.7 2.5-5.5Zm81 33 1.5.5-3.5 1.5v-1zm13 2 1.5.5-9.5 4.5v-1zm-270 2 .5 1.5-1 2 8.5.5 2-3 .5 1.5-6 9 5.5.5 1 1 4-4 .5.5-23 26-5 7 2 1 1.5 2.5 3-3 .5.5-4.5 3.5-6-7-4.5-1.5 2-2zm257 4 1.5.5-3.5 1.5v-1zm88 12 2.5 2.5-.5.5-2.5-2.5zm-379 27-.5 1.5-2 4v10l2 3q-1 1.5-2-1l-2-4v-7z" opacity=".996"/><path fill="#7e95a1" stroke="#7e95a1" d="m478.5 541 2.5 2.5-.5.5-2.5-2.5zm-357 15 2.5.5-2.5.5zm400 0 4.5.5-4.5.5z" opacity=".792"/><path fill="#47a3d5" stroke="#47a3d5" d="m238.5 15 2.5 2.5-.5.5-2.5-2.5zm4 3 5.5 5.5-.5.5-5.5-5.5zm9 9 5.5 5.5-.5.5-5.5-5.5zm275 15 3.5 3.5-.5.5-3.5-3.5zm8 7 3.5 3.5-.5.5-3.5-3.5zm7 8 2.5 2.5-.5.5-2.5-2.5zm-239 19 8.5.5-8.5.5zm32 0 7.5.5-7.5.5zm-42 1 4.5.5-4.5.5zm55 0 4.5.5-4.5.5zm-62 1 3.5.5-3.5.5zm71 0 3.5.5-3.5.5zm-77 1 2.5.5-2.5.5zm84 0 2.5.5-2.5.5zm5 1 2.5.5-2.5.5zm5 1 2.5.5-2.5.5zm-109 1 2.5.5-2.5.5zm114 0 2.5.5-2.5.5zm-118 1 2.5.5-2.5.5zm-4 1 2.5.5-2.5.5zm302 12 .5 7.5h-1zm-125 1 3.5 2.5-1.5-.5q-3.8-.7-2-2Zm-8 1 3.5 1.5-1.5.5-2.5-1.5zm132 11 .5 2.5h-1zm-74 21 2.5 2.5-.5.5-2.5-2.5zm8 7 7.5 7.5-.5.5-7.5-7.5zm-274 412 3.5 1.5-1.5.5-2.5-1.5zm74 21 2.5.5-2.5.5zm60 0 2.5.5-2.5.5zm-51 1 3.5.5-3.5.5zm40 0 4.5.5-4.5.5z" opacity=".624"/><path fill="#4395e6" stroke="#4395e6" d="m245.5 20 8 8 1.5-.5-1.5 1.5-8.5-8.5zm12 13 1 1 1.5-.5-.5 1.5q-3.8-.7-2-2Zm267 7 1 1 1.5-.5-1.5 1.5q-2.5-1-1-2Zm5 4 3 3 1-1 7.5 7.5-1 1 2.5 2.5 1.5-.5-1.5 1.5-4.5-4.5 1-1-4.5-4.5-1 1-4.5-4.5zm20 23 2.5.5-2.5.5zm-233 6 12.5.5-12.5.5zm40 2 2.5 1.5-3.5 1.5v-1l1.5-.5zm-11 1 2.5.5-2.5.5zm27 2 3.5 1.5-2.5 1.5v-2q-2.4-.1-1-1Zm-106 3 2.5.5-2.5.5zm292 1 .5 2.5h-1zm-168 1q1.5 1-1 2l-1.5-.5zm167 3 .5 2.5h-1zm1 6 .5 3.5h-1zm2 6 .5 3.5h-1zm-2 6 .5 4.5h-1zm0 11 .5 2.5h-1zm-2 2 1.5 4.5h-1zm-76 10 1 1 1.5-.5-1.5 1.5q-2.5-1-1-2Zm7 6q1 2 2 0l1.5 1.5-1.5-.5-1 1q-2.5-1-1-2Zm63 2 2.5.5-2.5.5zm-47 12q2.5 1 1 2l-1-1-1.5.5zm8 9 1.5 2.5q-1 1.5-2-1z" opacity=".027"/><path fill="#307195" stroke="#307195" d="m265.5 44 1.5 2.5h-1zm96 3 8.5 9.5-.5.5-8.5-8.5zm-99 5 .5.5-7.5 7.5-.5-.5zm110 6 2.5 2.5-.5.5-2.5-2.5zm-121 4 .5.5-3.5 3.5-.5-.5zm-7 6 .5.5-2.5 2.5-.5-.5zm-5 4 .5.5-2.5 2.5-.5-.5zm-4 3 .5.5-2.5 2.5-.5-.5zm269 76 3.5 3.5-.5.5-3.5-3.5zm4 5 2.5 2.5-.5.5-2.5-2.5zm3 4 4.5 5.5-.5.5-2.5-2.5-2-3zm-223 410 2.5.5-2.5.5zm9 1 2.5.5-2.5.5zm48 0 2.5.5-2.5.5zm-35 1 8.5.5-8.5.5zm10 0 4.5.5-4.5.5zm6 0 8.5.5-8.5.5z" opacity=".478"/><path fill="#28d6f4" stroke="#28d6f4" d="M222.5 5q1.5 1-1 2l-1.5-.5zm3 1 2.5 1.5-1.5-.5q-2.4-.1-1-1Zm8 4 1.5.5-2.5 1.5q-1.5-1 1-2Zm276 18 1.5.5-2.5 1.5q-1.5-1 1-2Zm4 2 3.5 2.5-1.5.5-2.5-2.5zm8 6 2.5 2.5-.5.5-2.5-2.5zm-259 3 2.5 1.5-1.5-.5q-2.4-.1-1-1Zm282 18 1.5 2.5q-1 1.5-2-1zm-215 16 4.5.5-4.5.5zm-38 2 3.5.5-3.5.5zm22 0 12.5.5-12.5.5zm14 0 4.5.5-4.5.5zm23 0 2.5.5-2.5.5zm-64 1 2.5 1.5-1.5-.5q-2.4-.1-1-1Zm13 0 2.5.5-2.5.5zm43 0 2.5.5-2.5.5zm-66 1q1.5 1-1 2l-2.5-.5zm76 0 2.5.5-2.5.5zm-81 1q1.5 1-1 2l-2.5-.5zm11 0 2.5.5-2.5.5zm-31 5q1.5 1-1 2l-2.5-.5zm145 1 3.5 1.5-2.5.5q-2.5-1-1-2Zm-160 4 1.5.5-2.5 1.5q-1.5-1 1-2Zm176 2 2.5 1.5-1.5-.5q-2.4-.1-1-1Zm6 1 .5 1.5-1.5.5q-1.5-1 1-2Zm-192 1 1.5.5-2 1 .5 1.5q-3-1.5 0-3Zm-4 2 2.5 1.5-1.5-.5q-2.4-.1-1-1Zm-3 1 3.5 1.5-1.5.5-2-1-2.5 1.5.5 1.5q-3-1.5 0-3zm-14 7 2.5 1.5-1.5-.5-1.5.5.5 1.5-2-1-1.5.5zm354 8 .5 2.5h-1zm-393 18q3 1.5 0 3-1-2-2 0l-1.5-.5zm-11 2q3 1.5 0 3l-2.5-1.5 1.5.5 1.5-.5zm-5 3q3 1.5 0 3l-2.5-1.5 1.5.5 1.5-.5zm10 0 1 1 1.5-.5-1.5 1.5-1-1-2 2-.5-.5zm-4 3 .5 2.5h-1zm-4 4 1 1 1.5-.5-4.5 4.5-.5-.5 2-2q-2.2-1.2.5-2.5Zm-11 13 .5.5-3.5 3.5v-3q1.5 2.5 3-1Zm2 346 3.5 3.5-.5.5-3.5-3.5zm316 32 2.5 1.5-1.5.5q-2.5-1-1-2Zm-3 2 2.5 1.5-1.5.5-1-1-1.5.5z" opacity=".114"/><path fill="#4d4e4f" stroke="#4d4e4f" d="M497.5 8h3l4.5 3.5q-2 1 0 2l-1 4 1 2-1 3 1 2-1 3q3.8 1.8.5 3.5l-5.5-3.5 1-2-4-3v-13z" opacity=".969"/><path fill="#4d4e4f" stroke="#4d4e4f" d="m506.5 11 .5 16.5h-1zm-59 74 8.5 7.5 2 3 1 6q-1.7.8-1 4l1 3-2 1 .5 1.5-2 1-9.5-5.5 2-1v-17l1-1-2-2zm13 3 7.5 4.5-6.5 11.5-1.5-6.5q2.2-1.2 1-6l-1-1 1-1zm-272 7 4.5 6.5-2.5.5-2.5-1.5 1-3q-1.7-.7-.5-2.5Zm141 61 3.5.5-3.5.5zm82 11 3.5 1.5q-.5 2-3.5 1.5-3-1.5 0-3Zm13 6 4.5 1.5q.8 3.8-1.5 4.5l-2.5-.5-.5-1.5-1.5-.5q-.5-3 1.5-3.5Zm14 9 1.5.5.5 1.5 1.5.5q.5 3-1.5 3.5l-4.5-1.5.5-3.5zm11 11 2.5.5 1 3-1.5 2.5-2.5-.5-.5-1.5-1.5-.5.5-1.5 1.5-.5zm10 12 4.5 1.5-.5 3.5-3 1-1-2-1.5-.5q-.5-3 1.5-3.5Zm10 12v2l1.5.5 1 2-2.5 1.5q-2.2-.7-1.5-4.5zm7 16 1.5 2.5q-1 1.5-2-1zm-18 1 1.5 2.5-1.5.5zm0 16 .5 2.5h-1zm2 1 7.5.5-7.5.5zm-144 1 .5 2.5h-1zm2 23 .5 2.5h-1zm171 39 3.5 2.5q1 4.5-1.5 5.5l-3 1-.5-1.5q1.3-2.7 2.5-.5l1.5-.5q1-4.5-1.5-5.5-2.4-.1-1-1Zm-40 2 3.5.5-3.5.5z" opacity=".969"/><path fill="#4d4e4f" stroke="#4d4e4f" d="m489.5 316 1.5 2.5q-1 1.5-2-1zm-55 1 2.5.5-2.5.5zm-15 1 2.5.5-2.5.5zm-16 1 3.5.5-3.5.5zm-239 1 .5 3.5h-1zm223 0 3.5.5-3.5.5zm-30 2 3.5.5-3.5.5zm128 0 .5 2.5h-1zm-174 1 .5 3.5h-1zm30 0 3.5.5-3.5.5zm-177 2 .5 2.5h-1zm179 0 6.5.5-6.5.5zm149 0q2.5 1 1.5 5.5l-2.5 3.5-5 1v-1q4.1.6 5.5-1.5 1.7-1.8 1-6zm-122 1 4.5.5-4.5.5zm26 1 6.5.5-6.5.5zm26 1 6.5.5-6.5.5zm27 1 3.5.5-3.5.5z" opacity=".969"/><path fill="#4d4e4f" stroke="#4d4e4f" d="m490.5 329 .5 1.5-2.5 2.5-.5-.5zm-170 6 3.5.5-3.5.5zm-172 33 1.5 3.5-1.5 2.5zm3 15q3-.5 3.5 1.5.8 3.8-1.5 4.5l-3.5-1.5q-.7-3.7 1.5-4.5Zm27 8 3.5.5-3.5.5zm285 0 2.5.5.5 13.5 2.5.5-.5 2.5-2.5.5-.5 4.5-2.5-.5.5-3.5 1 3 .5-3.5 1.5-1.5 1.5-.5-3-2-.5-12.5q-2.4-.1-1-1Z" opacity=".969"/><path fill="#4d4e4f" stroke="#4d4e4f" d="m463.5 397 .5 7.5h-1zm-307 1q3.8-.7 4.5 1.5l-.5 3.5-3 1-1-2-1.5-.5q-.5-3 1.5-3.5Zm301 0 2.5 2.5-1.5 1.5.5-1.5-2-2zm-2 3 2.5 2.5-1.5 1.5.5-1.5-2-2zm-2 3 1.5 1.5-.5 1.5 7.5.5-7.5.5-1.5-1.5 1-1zm5 1 3.5.5-3.5.5zm-295 7 4.5.5q-2 1 0 2 .5 3-1.5 3.5-3 .5-3.5-1.5l-1-2zm9 13q3.8-.7 4.5 1.5.8 3.8-1.5 4.5-3.7.8-4.5-1.5-.7-3.7 1.5-4.5Zm9 13 3 4 2-1v1l-3 2-2.5-1.5zm12 11q3-.5 3.5 1.5.5 3-1.5 3.5l-3.5-2.5zm214 3 1.5.5-.5 3.5zm-201 8 2.5 1.5-1.5-.5q-2.4-.1-1-1Zm195 0 2.5 1.5-5.5 2.5-2.5-1.5 1.5-.5q1 2 2 0l1.5-.5zm4 0 4.5 3.5-.5 5.5-.5-5.5-2.5-2.5q-2.4-.1-1-1Z" opacity=".969"/><path fill="#4d4e4f" stroke="#4d4e4f" d="m405.5 462 1.5 1.5v6l-3.5 2.5v-1l2.5-1.5v-6z" opacity=".969"/><path fill="#4d4e4f" stroke="#4d4e4f" d="m398.5 468 2 3 1.5.5-2 1 5.5.5 3-3 .5.5-3.5 3.5h-5l-4.5-3.5.5-1.5 2 3 1.5-.5-2-3zm-74 7 2.5.5-2.5.5zm1 9 .5 3.5-3 3 .5.5 3.5-2.5.5-1.5.5 1.5-1.5 2.5q-2.5 2-8 1-3.2-1.7-3.5-6.5h1v2l2.5 3.5 2.5-.5-2-1 1.5-.5 2 1 2.5-2.5zm-174 20 .5 1.5-2 2-4 9-6.5 10.5.5-1.5 9-19zm342 0 1.5.5 8 17q-1 1.5-2-1l-8-15zm-325 16 12.5 8.5-4.5 5.5-7 5q-1-2-2 0l-2 1-.5-.5 8.5-8.5 4.5-3.5-9.5-6.5-3 3-.5-.5zm307 0 1.5.5-2.5 1.5q-1.5-1 1-2Zm-10 7 14.5 12.5-.5.5-2-2-2-1q-1 2-2 0l-10.5-7.5zm-339 31q5 1 7.5 4.5l-.5 1.5 1.5.5-.5 1.5 1.5.5 1 2-1 1v7l-3.5 5.5-5 3q-3.2-1.7.5-3.5v-7l1-1 1-11-2.5-3.5q-2.4-.1-1-1Zm406 2 4.5 5.5 1 8-4.5 8.5-3 2-.5-2.5 1-1 .5-5.5 1.5-.5q2.2-2.8 1-9l-2-4z" opacity=".969"/><path fill="#1e7e88" stroke="#1e7e88" d="m264.5 42 2.5 1.5-.5 1.5-1-2q-2.4-.1-1-1Zm96 4 .5 1.5-1 1 2 2-.5.5-2.5-2.5 1-1zm-94 1q2.8 1.2.5 2.5L252.5 65l-1.5-1.5 3.5-3.5 1 1 8.5-8.5-1-1 2.5-2.5 1.5-.5zm97 4 3.5 3.5-1.5 1.5-3.5-3.5zm4 5q1.5 3.5 3 1l2.5 2.5-1.5 1.5-4.5-4.5zm6 5q1 2 2 0l1.5 1.5-1.5 1.5-2.5-2.5zm4 3 1 1 1.5-.5-.5 1.5 1.5.5-1.5.5-2.5-2.5zm-130 2 1.5 1.5-2.5 2.5-1.5-1.5zm137 3 1 1 1.5-.5-1.5 1.5q-2.5-1-1-2Zm3 2 1 1 1.5-.5-1.5 1.5q-2.5-1-1-2Zm3 2 1 1 1.5-.5-1.5 1.5q-2.5-1-1-2Zm-151 1 .5.5-3.5 3.5-1.5-.5 2-1-.5-1.5q1.5 2.5 3-1Zm154 1 1 1 1.5-.5-1.5 1.5q-2.5-1-1-2Zm-170 11 1.5.5-2.5 1.5q-1.5-1 1-2Zm277 58 2.5 2.5-.5.5-2.5-2.5zm11 15 1 1 1.5-.5-1.5 1.5q-2.5-1-1-2Zm5 5 3.5 4.5q-1 2.5-2 1 2-1 0-2l-.5-1.5-1.5.5 1-1zm4 6 2.5 3.5q-1 2.5-2 1l.5-1.5-2.5-1.5zm3 5q2.5 1 1 2l-1-1-1.5.5z" opacity=".024"/><path fill="#626567" stroke="#626567" d="M501.5 6q1.5 1-1 2l-3.5-.5zm7 4q2.5 1 1 2l-1-1-1.5.5zm-1 16 .5 1.5q-1 2.5-2 1zm-42 505 7.5 6.5-.5.5-3-3-2 1 .5-1.5-1.5-1.5-1.5.5 1-1zm-292 5q1.5 1-1 2l-3 2-.5-.5 2.5-2.5zm63 22 11 3 2 2 1-1q1.5 3.5 3 1l1.5.5.5 1.5 5.5 1.5-2.5.5q-.7-1.7-4-1l-1 1h-9l-1 1h-7l-1 1h-5l-1 1-10 1-1 1h-3l-6 2-6.5 4.5q-.7 4.8 2.5 5.5l10 4 8 1 1 1 12 1 1 1h6l1 1h9l1 1h11l1 1h15l1 1h75l1-1h15l1-1 21-1 1-1h6l1-1 12-1 1-1 8-1 6-2 6.5-4.5q.8-4.7-2.5-5.5l-7-3h-3l-9-3h-5l-1-1q-4.7 1.3-6-1h-7l-1-1-11.5-.5 3-1-.5-1.5 3 1 1-2 2 1 1-2 2 1 2-2 10-3v1l-1.5.5 11.5.5 1 1h9l1 1h7l1 1h6l1 1h5l1 1 11 1 1 1 8 1 1 1h3l6 2 8 4 2.5 2.5 1 3-3.5 4.5-14 6h-4l-4 2-10 1-6 2-13 1-1 1h-8l-1 1h-8l-1 1h-11l-1 1h-13l-1 1h-15l-1 1h-30l-3 1-2-1-1 1h-39l-3-1q-1 2-2 0h-31l-1-1-29-1-1-1h-11l-1-1h-8l-1-1-15-1-1-1h-5l-1-1h-5l-1-1h-5l-1-1h-4l-1-1-7-1-13-5-4.5-4.5v-3l3.5-3.5 8-4 6-2h3l1-1 8-1 1-1 11-1 1-1q4.8 1.3 6-1h6l1-1h7l1-1 21-1zm271 15 .5 2.5h-1z" opacity=".361"/><path fill="#3e3d3d" stroke="#3e3d3d" d="m503.5 9 2.5 1.5-1.5.5q-2.5-1-1-2Zm-354 495 .5 1.5-7.5 13.5.5-1.5zm31 26 .5.5-2 2 .5 1.5-1-1-1.5.5zm75 34 10 2 1 1 9 1 1 1 11 1 1 1h8l1 1h11l1 1h25l1-1h12l1-1 14-1 1-1h5l1-1h4l1-1h4l1-1 10-2v1l-5.5 1.5 11.5.5 1 1h7l1 1h5l1 1 10 1 4 2 6 1 6.5 4.5q.8 4.8-2.5 5.5l-10 4h-4l-5 2-12 1-1 1h-6l-1 1h-9l-1 1h-11l-1 1h-15l-1 1h-75l-1-1h-15l-1-1-21-1-1-1h-6l-1-1-12-1-1-1h-4l-1-1h-3l-6-2-6.5-4.5q-.7-4.7 2.5-5.5l14-5 10-1 1-1h5l1-1h7l1-1h9l4.5-1.5-2.5-.5zm3.5 2v1h2zm-122.5 3 .5 4.5h-1z" opacity=".357"/><path fill="#989bc0" stroke="#989bc0" d="m201.5 2 3.5.5-3.5.5zm27 5 4.5 2.5-1.5.5-3.5-2.5zm260 3q2.5 1 1 2l-1.5.5.5 1.5q-2.8-1.2-.5-2.5zm-9 1 3.5 2.5-1.5-.5q-3.8-.7-2-2Zm-343 1 2.5 1.5-1.5-.5q-2.4-.1-1-1Zm350 2q2.5 1 1 2l-1.5-.5zm-346 1 2.5 2.5-1.5 1.5.5-1.5-2-2zm3 4v2l1.5.5-1.5.5q-3-1.5 0-3Zm104 1 2.5 2.5-.5.5-2.5-2.5zm300 42 3.5 4.5q-1 1.5-2-1l-2-3zm-125 31 1 2q1.3-2.2 2.5.5l-1.5-.5-1 1-1-1-1.5-.5zm-209 5q1.5 1-1 2l-3 1v-1zm-14 5 .5.5-2 2 1 1-1.5 1.5-1.5-1.5zm281 21 .5 1.5-1.5.5q-1.5-1 1-2Zm7 4 2.5 1.5-1.5-.5q-2.4-.1-1-1Zm-1 2 2.5 2.5-.5.5-1-1-1.5.5 1-1zm-324 1q2.5 1 1 2l-1-1-1.5.5zm329 4 8.5 8.5-.5.5-8.5-8.5zm-348 14 .5.5-2.5 2.5-.5-.5zm382 29 2.5 2.5-.5.5-2.5-2.5zm-424 28-.5 1.5-.5 1.5-.5-1.5zm408 283-.5 1.5-.5 1.5-.5-1.5zm-366 24-.5 1.5-1.5 3.5-.5-1.5zm39 18 2.5 1.5-1.5.5q-2.5-1-1-2Zm-53 10q2.5 1 1 2l-1-1-1.5.5z" opacity=".02"/><path fill="#bbbdc2" stroke="#bbbdc2" d="M134.5 16q4.1-.6 5.5 1.5l1 2-3-1v9l-2 2q2 1 0 2l-.5 1.5-3 2 1.5-4.5 1-2v-11zm375 0 .5 3.5h-1zm-23 3 2.5 1.5-1.5.5q-2.5-1-1-2Zm-309 75 .5.5-2.5 2.5-1.5.5 1 3-1.5-.5-5 2-.5-1.5 3-1 .5-1.5zm9 8 4.5 1.5q-2 1 0 2v6l1 1-4.5 3.5-.5-12.5zm121 25 2.5.5-2.5.5zm28 0 2.5.5-2.5.5zm37 8 5.5 1.5-2.5.5-3-1zm10 1q1.5 1-1 2l-2.5-.5zm3 1v2l3-1v2l5 1 9 4 1.5-.5-.5 1.5 2-1v2l2-1 1 2 4 2 1.5-.5.5 1.5 1.5-.5-.5 1.5 6 3 1.5-.5-.5 1.5 4 2 1.5-.5-.5 1.5 2 1 1.5-.5-.5 1.5 2 1 1.5-.5-.5 1.5 2 1 1.5-.5-.5 1.5 3 2 1.5-.5-.5 1.5 3 2 1.5-.5-.5 1.5 5 4 1.5-.5q-2.2 1.3.5 2.5l18.5 17.5 1.5 2.5 1.5-.5-1 1 3 3 4.5 6.5 1.5-.5q-2.5 1.5 1 3l2.5 4.5 1.5-.5q-2 1 0 2l.5 1.5 1.5-.5q-2 1 0 2l4.5 8.5 1.5-.5-1 2 2 2 6 13-1 2h2l.5 1.5 1.5-.5-1 2 1 2-1 2h2l1.5 4.5 1.5-.5-2.5 4.5-4.5-10.5v-2l-10-19 1-2-1.5.5-1.5-1.5q-7.2-14.3-17.5-25.5l-4.5-3.5q-1.7-4.8-5.5-7.5l-1.5-.5-2.5-3.5-2.5-1.5-1.5-2.5-27-21-10-5-2-2-4-1-2-2-16-7-4-3-1.5.5-.5-1.5-2 1v-2l-1.5-.5zm98.5 77-1 2q1 2 2 1zm2 3-1 2q1 2 2 1zm-154.5-64 2.5.5-2.5.5zm73 24 .5 2.5h-1zm-262 66 1.5 2.5h-1zm-1 6 .5 1.5-1.5 2.5-1.5-2.5h2zm-2 5 .5 1.5-3 9q2 1 0 2l-1 2q2 1 0 2l-1 2q2 1 0 2l-1 8-1 1v5l-2 6v6l-1 1q2 1 0 2v7l-1 1v25l1 1v8l1 1q-2 1 0 2-1 4 1 5-2 1 0 2l1 9 1 1 2 11 3 7v3l2 3 3 10 4 7v2l2 2 10 19 4 4 5 9 4 4-1 2 1.5-.5 6.5 6.5-.5.5-5-5-.5.5 5.5 6.5 1-1 8.5 8.5-1 1 6.5 6.5 1.5-.5-5-5 .5-.5 6.5 6.5-1 1 3.5 3.5 1.5-.5-3-3 .5-.5q11.3 10.8 25.5 18.5-2 1 0 2l-1.5 1.5v-2l-4-2-1.5.5.5-1.5-11-7-1.5.5q2.3-1.2-.5-2.5l-2-1-1.5.5q2.3-1.2-.5-2.5l-3-2-1.5.5q2.2-1.2-.5-2.5l-4-3q-1.2 2.2-2.5-.5l1-1-4.5-4.5-1.5-.5-1.5-2.5-2.5-1.5-3.5-4.5q-1.2 2.3-2.5-.5l1-1-4-4-1.5-2.5-1.5.5q2.5-1.5-1-3l-1.5-2.5-1.5.5q2.5-1.5-1-3l-2.5-4.5-1.5.5q2-1 0-2l-.5-1.5-1.5.5q2-1 0-2l-.5-1.5-1.5.5q2-1 0-2l-4.5-8.5-1.5.5q2-1 0-2l-7.5-16.5-1.5.5 1-2-1.5-2.5-1.5-.5 1-2-1.5-3.5-1.5.5 1-2-2-1 1-2-1.5-3.5-1.5-.5 1-2-2-1 1-3-1.5-4.5-1.5.5q1.8-.7 1-4h-2q1.8-.7 1-4l-2-1q2-1 1-5h-2q2.3-1.2 1-6h-2l1-1v-6h-2l1-2v-13h-1l-.5 3.5-.5-3.5 1-1v-13l-1-3h1l.5 2.5.5-13.5-.5-1.5 1.5.5v-7l-1-1h2q1.3-4.7-1-6h2q1-4-1-5h2v-4l1-1v-3l2-4 1-6-.5-1.5 1.5.5-1-3h2l-1-3h2zM204 478q-2 1 1 2h1zm4 3q-2 1 1 2h1zm300.5-222-.5 1.5-1.5 3.5-.5-1.5zm0 4 .5 1.5-1.5 2.5-.5-1.5zm2 2-.5 1.5.5 2.5 1.5-.5-2.5 5.5-1.5-5.5zm1 8 .5 2.5-1.5 2.5-.5-2.5zm1 4 .5 2.5-1 3h1l1.5-2.5-.5 1.5-1.5 5.5-1.5-7.5zm3 7 .5 1.5-2.5 7.5-.5-4.5zm1 5 .5 1.5-1 1v4l-1.5 4.5-.5-5.5zm1 7 .5 1.5-2 5-.5 7.5-.5-8.5q1.8-.7 1-4z" opacity=".996"/><path fill="#bbbdc2" stroke="#bbbdc2" d="m518.5 301 .5 6.5-1 1q1.3 4.8-1 6l-.5 22.5-.5-24.5 1-1q-1.2-4.7 1-6-2-1 0-2z" opacity=".996"/><path fill="#bbbdc2" stroke="#bbbdc2" d="m519.5 312 .5 24.5-1 1v8l-1 1-1 12-1 1v4l-1 1v4l-1 1-1 7-6 18-5 10v2l-10 19-9 14q-12 17-27.5 30.5-1.2-2.2-2.5.5l.5 1.5q-1-2-2 0l-3.5 2.5.5 1.5-1-1-2 2-.5-.5-.5-1.5-1.5.5 3.5-3.5.5.5-2 2 .5.5 3.5-2.5-1-1 21.5-21.5 1 1 4.5-4.5 12-16 8-13 9-19v-2l2-3 4-12v-3l2-4 1-8 2-5v-5l1-1 1-17 1-1v-22zM470 451l-12 13h1l11-11zm-13 13-7 7h1l7-6zM321.5 315l2.5.5-2.5.5zm1 2 2.5.5-2.5.5zm5 0 2.5 2.5-.5.5-2.5-2.5zm-6 16 2.5.5-2.5.5z" opacity=".996"/><path fill="#bbbdc2" stroke="#bbbdc2" d="m515.5 338 .5 8.5h-1zm-1 10 .5 6.5-1 1-.5 4.5-.5-4.5 1-1zm-2 13 .5 3.5h-1zm-1 5 .5 3.5-1 1v3l-2 4v3l-4 12-5 10v2l-1.5 1.5-.5-1.5 7-15zm-14 41 .5 1.5-2.5 3.5.5-1.5zm-3 6 .5 1.5-7 12-4.5 5.5-.5-.5 2-2zm-14 23 .5.5-2.5 2.5-.5-.5zm-3 4 .5.5-2.5 2.5-.5-.5zm-4 5 .5.5-3.5 3.5-.5-.5zm-32 31 .5.5-3 3 .5.5 4-3v3q-1.5-2.5-3 1l-1.5.5.5 1.5-1-1-1.5.5.5-1.5-2.5 1.5 1 1-1 1 .5 1.5q-1-2-2 0l-1.5.5.5 1.5q-1-2-2 0l-1.5.5.5 1.5-1.5-1.5.5-1.5-2.5 1.5q2.3 1.3-.5 2.5l-6.5 3.5.5 1.5-3-2 .5 1.5-1.5 1.5-14.5 6.5.5 1.5-2-1v2l-2-1-3.5 1.5.5 1.5-4-2v2l-4.5 1.5.5 1.5-3-1v2l-3-1-3 1-2.5-1.5 14.5-4.5 8-4h2l18-9 12-8v2l2.5-1.5-1-1 2.5-2.5q5.2-1.8 8-6Zm-7.5 7q-3 1-1 2l2-1zm-207.5 9 9.5 5.5-.5 1.5 3-1 9 5h2l10.5 4.5-4.5 2.5v-2l-4.5-1.5.5-1.5-3 1-2-1-1.5.5.5-1.5h-2l-6-3-1.5.5.5-1.5-2 1v-2l-2 1v-2l-2 1v-2l-4.5-2.5 1-1zm35 16 8.5 2.5-2 1 2.5.5 3-1 4.5 1.5-6.5 2.5v-2l-6-1-1.5.5.5-1.5-3 1q-1.5-1 1-2l1.5-.5-2.5-.5-3 2q-1.5-1 1-2zm110 3h2l3.5 2.5-1.5-.5-4-1zm-4 1 4.5 1.5-3 1 .5 1.5-1-1-6-1v1l2.5 1.5-1.5-.5h-3l-3.5-1.5 8.5-1.5 3 1v-1q-2.4-.1-1-1Zm-88 1 2.5.5-2 1 2.5.5q.7-1.7 4-1v1l-6 1q-.7-1.7-4-1l-1.5.5zm9 2 5.5.5-7.5 1.5v-1zm63 0h4l3.5 1.5-3.5.5q-.7-1.7-4-1zm-56 1 5.5.5-4.5 1.5h-5l-1 1q-1.5-1 1-2 3.3.8 4-1Zm49 0h5q.8 1.8 4 1l1.5 1.5-1.5-.5-9-1zm-41 1 11.5.5-8.5.5-1 1h-6v-1q3.3.8 4-1Zm27 0h11l4.5 1.5-7.5.5-1-1h-7zm-22 2h28l2.5 1.5-1.5.5-1-1h-28l-2 1v-1zm179 1v2l2.5.5 1 2-6.5.5q-3-1.5 0-3zm-320 15 .5.5-2.5 2.5-.5-.5zm310 0 11.5 9.5-1.5.5-10.5-9.5zm-323 2v2q4.3-.7 5 2l1.5-.5-2.5 3.5q-1.5-2.5-3 1l-2 1-3.5-2.5-1-2 1.5.5 1.5-1.5zm-7 7 .5.5-3.5 3.5-.5-.5zm343 1 6 2 1-1 3 3 1.5-.5-1 1 3.5 3.5 3.5 2.5 3 4-.5.5-6-6-4.5.5q3.5 1.5 1 3l1.5 2.5 1-2 2.5 2.5-.5.5-2-1-1 1-5.5-5.5.5-.5 2 2 1.5-.5-3-3 .5-1.5-4-3q-1.2 2.3-2.5-.5l-2-3zm-341 8 .5 1.5-2.5 2.5-1.5-1.5h2zm-32 4 1 1 1.5-.5-1.5 1.5q-2.5-1-1-2Zm400 3-.5 1.5-2.5 17.5-2.5-2.5 1-1q-1-4 1-5-2-1 0-2 1-4.5-1.5-5.5l-.5 1.5q2 1 0 2-1.7 1.8-1 6l1 2-2.5 3.5.5-1.5v-9l1-1-1-2 1.5-2.5 2 1zm-402 13 .5 7.5-1 2 .5 1.5-1-1-1.5.5 1-1v-7zm396 7 3.5 2.5-1.5.5-2.5-2.5z" opacity=".996"/><path fill="#afaeae" stroke="#afaeae" d="m489.5 14 .5 1.5-1 3 4 3q-1.2 2.8-2.5.5l-1.5-.5-2-4zm-352 3 2 2 1.5-.5-.5 1.5 1.5.5 1 4-4.5 6.5-2 1 .5-1.5-1-1 2-2v-9zm311 65 5.5 3.5-2 1 4 4-.5.5q-2.7-4.7-8.5-6.5zm-266 9 .5.5-2 2 1 1q.6 4.1-1.5 5.5h-6l-7 4q-1.5-1 1-2l5.5-2.5.5-2.5 1.5-.5-.5-1.5 1 1 4-4zm256 9 .5 1.5-1.5 2.5-.5-2.5zm-246 3 2 3 1.5.5 1 3-3.5 2.5h-2l-.5-6.5-1-1zm129 37q3-.5 3.5 1.5.8 3.8-1.5 4.5-4 .5-4.5-2.5zm-17 1 4.5.5 1 2-2.5 3.5q-3 .5-3.5-1.5l-1-2zm32 0q3.8-.7 4.5 1.5l-.5 3.5-3 1q-3-.5-2.5-4.5zm-47 2q3.8-.7 4.5 1.5.5 4-2.5 4.5l-3.5-1.5q-.7-3.7 1.5-4.5Zm63 0q3.8-.7 4.5 1.5.5 4-2.5 4.5t-3.5-1.5q-.7-3.7 1.5-4.5Zm-78 3q3-.5 3.5 1.5.8 3.8-1.5 4.5l-3.5-.5-1-3zm94 0q3-.5 3.5 1.5.8 3.8-1.5 4.5-3.7.8-4.5-1.5-.5-4 2.5-4.5Zm-109 5q3-.5 3.5 1.5.8 3.8-1.5 4.5-4 .5-4.5-2.5zm123 0 3.5.5 1 4q-.5 2-3.5 1.5t-2.5-4.5zm-65 2 1.5 2.5h-1zm-73 4q4-.5 4.5 2.5l-2.5 3.5q-3 .5-3.5-1.5-.7-3.7 1.5-4.5Zm73 0 1.5 1.5v17h-1v-17zm18 0 2.5.5-2.5.5zm62 0 2 1q1.3-2.2 2.5.5l-1 2q2.3 1.2-.5 2.5l-4.5-1.5 1-2q-2.2-1.2.5-2.5Zm-58 1 .5 2.5h-1zm-25 3 .5 14.5h-1zm2 0 .5 13.5h-1zm-85 3 3.5 2.5-1.5 3.5q-3.7.8-4.5-1.5l.5-3.5zm180 0q3.8-.7 4.5 1.5l-1 1 .5 1.5h-2l-3.5-2.5zm-72 8 .5 3.5h-1zm-123 1q3.8-.7 4.5 1.5.8 3.8-1.5 4.5-4 .5-4.5-2.5zm17 3 1.5.5-2.5 1.5q-1.5-1 1-2Zm166 0 1.5.5-.5 6.5-.5-5.5zm57 3 10.5 10.5-.5.5-10.5-10.5zm-251 3 3.5 2.5q.5 3-1.5 3.5-3.7.8-4.5-1.5l.5-3.5zm29 7 .5 6.5h-1zm4 1 .5 5.5h-1zm-45 3q3-.5 3.5 1.5.8 3.8-1.5 4.5-3.7.8-4.5-1.5-.5-4 2.5-4.5Zm-12 12 4.5.5 1 2-2.5 3.5q-3 .5-3.5-1.5l-1-2zm-8 12 3.5 2.5q.5 3-1.5 3.5-3.7.8-4.5-1.5l.5-3.5zm298 0q.1 3.4 2.5 4.5l-.5.5-2.5-2.5zm-308 14 4.5.5q1 4.5-1.5 5.5-4 .5-4.5-2.5zm15 0 2.5.5-2.5.5zm303 0-.5 1.5 1 3-1.5-.5-1.5.5.5 1.5-1.5-.5-1-3zm-24 3 .5 2.5h-1zm-279 4 1 5 1.5-.5-3.5 4.5.5-1.5 1-2q-2.3-1.3-.5-5.5Zm137 0 .5 3.5h-1zm-128 3 .5 2.5h-1zm-31 4q3.8-.7 4.5 1.5l-.5 3.5-3 1-1-2-1.5-.5q-.5-3 1.5-3.5Zm175 1 4.5.5-4.5.5zm154 0 2.5.5-.5 2.5-2.5-.5zm4 0 .5 2.5h-1zm-313 3 .5 4.5h-1zm281 0 .5 4.5h-1zm28 1 2.5.5-2.5.5zm-27 5 9.5.5-9.5.5zm-307 4q3-.5 3.5 1.5.8 3.8-1.5 4.5-3.7.8-4.5-1.5l.5-3.5 1.5.5zm340 0 2.5 2.5 1 3-1.5-.5-2.5-.5 1-3zm-345 15q3-.5 3.5 1.5l-1 3 .5 1.5-1-1-3 1-1.5-1.5.5-2.5 1.5-.5zm348 2 1 3 1-3 2.5.5-.5 2.5-3 1q-2.5-1-1-4Zm-349 14q2.3.8 1.5 4.5h-2l-.5 1.5q-3 .5-3.5-1.5l1.5-3.5zm353 0 4 2 1.5-.5q-1.2 2.8-5 3l3 1-2.5.5q-2.7-1.2-.5-2.5zm-358 15 2.5.5.5 1.5 1.5.5-.5 2.5q-4-1-5 1l.5-1.5-1-3zm361 0v2q4-.5 4.5 2.5l-1.5-.5-1 1-2.5-.5-1-3zm-376 6 .5 2.5h-1zm193 4 2.5.5-6 3-1.5 2.5.5-1.5 2.5-3.5zm10 1 2.5 2.5-.5.5-2.5-2.5zm2 4 1.5.5-.5 8.5-1.5-.5 1-1v-6zm-191 1 2 1q1.3-2.2 2.5.5l-1.5 3.5-3-1-1.5.5 2-3h-2zm364 1 2.5 4.5-1.5-.5-2.5-.5q-.5-3 1.5-3.5Zm-142 4 3.5.5-3.5.5zm-48 3 3.5 2.5q-1.5 3-3 0l.5-1.5q-2.4-.1-1-1Zm128 0 2.5.5-2.5.5zm-112 1 1.5.5-2 1-1.5 2.5-.5-1.5zm-10 3 4 1 2-1q1.5 1-1 2-5.5 1-5-2Zm-194 2 .5 2.5h-1zm18 2q2.8 1.3.5 2.5l1 2q-1 2.5-2 1 2.5-1.5-1-3zm359 1 2 1 1.5-.5-1 2q2.3 1.3-.5 2.5l-2-1-1.5.5q2-1 0-2zm-4 15 4 2 1.5-.5-1 1 .5 1.5q-1-2-2 0l-3 1 .5-1.5zm-3 15 3.5 1.5q.5 3-1.5 3.5l-1.5-.5v-3zm-348 1 .5 3.5h-1zm347 14-.5 1.5q-.7 3.3 1 4l-1.5-.5-2.5-1.5 1.5-2.5zm-29 7 1.5 1.5v11h-1v-11zm19 8 3.5 1.5-.5 2.5-2.5-.5zm5 1 .5 2.5h-1zm-4 4 2.5.5-2.5.5zm-32 5 8.5.5-8.5.5zm13 2 .5 2.5h-1zm15 2-.5 1.5-.5 2.5-2.5-.5.5-2.5zm-3 5 2.5.5-2.5.5zm-6 8q3.3 1.8-.5 3.5l.5 1.5 1.5-.5q-1.2 2.8-2.5.5l-2.5-1.5 1.5-2.5zm-9 13-.5 1.5 1 3-1.5-.5q-3 .5-3.5-1.5zm-13 12 2.5 4.5-1.5-.5-3 1 .5-1.5q-.5-3 1.5-3.5Zm-258 2 2.5 1.5-2.5 1.5q-3-1.5 0-3Zm217 0 .5 3.5h-1zm-204 9 2.5 1.5 1 2q-1.2 2.7-2.5.5l-2 1q-2.7-1.2-.5-2.5zm233 0 2 1 1.5-.5-1 2q2.3 1.3-.5 2.5l-2-1q-1.2 2.2-2.5-.5zm-203 9 .5 1.5q-.7 2.3-4.5 1.5v-1l3.5-.5zm193 0-.5 1.5 1 3-1.5-.5-2.5-.5.5-2.5zm-211 1 2.5.5-.5 2.5-2.5-.5zm206 0 .5 2.5h-1zm-22 3 2.5.5-2.5.5zm-168 4q2.8 1.3.5 2.5l1 2q-1.3 2.8-2.5.5l-2.5-1.5 1.5-2.5zm177 1q1 2 2 0l2 1 1.5-.5-1 2q2.2 1.2-.5 2.5l-2-1q-1.3 2.3-2.5-.5l1-2zm-166 6v2q4-.5 4.5 2.5l-1.5-.5-1 1-2.5-.5-1-3zm153 0v2l3.5-.5-.5-1.5q2.8 1.2.5 2.5l-1.5 2.5-2.5-1.5-1-2zm-138 8 2.5.5 1 3-1.5-.5-3 1 .5-1.5zm122 0 .5 2.5h-1zm2 0 2.5.5 1 3-1.5-.5-2.5-.5zm-16 3 3.5 2.5-1.5 2.5-2 1 .5-1.5v-3zm-92 1 2.5 4.5-1.5-.5-3 1 .5-1.5q-.5-3 1.5-3.5Zm76 3 4.5 2.5-4.5 2.5.5-1.5zm-62 1 3.5.5-1.5 2.5-2.5-.5zm15 1 3.5 1.5-.5 2.5-3 1 .5-1.5zm17 0 1 1 1.5-.5q-2 1 0 2l1 3-1.5-.5-3 1 .5-1.5 1-3zm19 0-.5 1.5 1 3-1.5-.5-3-1-1.5.5 1-1-.5-1.5q1 2 2 0zm-31 1 .5 2.5h-1zm-161 9 .5 1.5-1 2 4 1-5.5.5-1 1-.5-.5 2-2zm11 3 .5.5-3 3 3 3-.5.5-4-5-1.5.5 1.5-1.5q3.3.8 4-1Zm338 0 .5 1.5-4.5.5v-1q3.3.8 4-1Zm-9 3-1 3 1.5.5-1.5.5-1-1-1.5.5zm-323 3 .5.5-3.5 3.5q-2.5-1-1-2l1 1zm-3 5 2.5 2.5 3 6-5.5 6.5-2-1q-1.5 2.5-3-1-3.2.8-4-1l-5 6-.5-.5 2-2 8.5-10.5 3.5-2.5q-2.2-1.2.5-2.5Zm318 2 5 4 1-1 2.5 2.5 16 19-.5.5-7-7q-1 2-2 0l-6-1 1 3-2.5-2.5 1-1-2.5-2.5-2 1-2.5-2.5.5-1.5-4-3q-1.2 2.3-2.5-.5zm31 12q3 .5 2.5 4.5h-1l-2-4zm-379 1-.5 1.5-3.5 6.5.5-1.5v-2zm25 3 .5.5-2.5 2.5-.5-.5zm357 2 1.5.5 3 6q-1 1.5-2-1l-3-5zm-361 3 1.5.5-2.5 3.5-2 1q-1.5-2.5-3 1l-2 1-.5-.5 5.5-5.5zm336 0 4 2 1-1 7 7 1.5.5-.5 1.5-3-2-1 1-4-4-5.5-3.5zm-369 7q3.3.8 2.5 5.5l-1 1-1 14-1 1q1.3 4.7-1 6l.5 1.5-4.5-.5q2-1 0-2l1-2v-10q1.8-.7 1-4l3-5v-2l-2-2 .5-.5 1.5.5zm398 1 2 1q1-2 2 0l1.5.5-1 1q1.3 4.8-1 6l-1 14-1.5 3.5-2.5.5 2 1-2.5.5-2.5-1.5 1-1-4-4 .5-3.5 3 4 2.5-17.5-1.5-.5-3 4-.5-1.5q2-1 0-2l2.5-2.5 2-1 1.5.5z" opacity=".996"/><path fill="#afaeae" stroke="#afaeae" d="M525.5 559h3l3.5 3.5 1 4h-1l-.5-1.5-1.5 3.5q2.3 1.3 1 6h-1l-1-6-5-8z" opacity=".996"/><path fill="#bac7ca" stroke="#bac7ca" d="m436.5 0 2.5.5-2.5.5zm-241 4 2.5.5-2.5.5zm12 0 3.5.5-3.5.5zm-71 10 4.5 3.5-.5.5-3-3q-2.4-.1-1-1Zm24 121 .5.5-2.5 2.5-.5-.5zm-68 25 2.5.5-2.5.5zm43 0 .5.5-2.5 2.5-.5-.5zm5 333 9.5 9.5-.5.5-9.5-9.5zm360 4 .5.5-5.5 5.5-.5-.5zm-54 42 3 2h7l1 1h13q.8 1.8 4 1l3-2v2l3 2q1.3-2.2 2.5.5l1.5 2.5 1-1 4 4 8.5 6.5-.5 1.5-6-2h-7l-1-1h-6l-1-1h-8l-1-1h-8l-1-1h-9l-1-1h-11l-1-1h-11l-1.5.5 15.5-8.5 1.5.5.5-1.5 1.5.5.5-1.5q1 2 2 0l1.5-.5zm-247 1v2l2-1 1 2q1-2 2 0l16.5 8.5-1.5.5-1-1h-15l-1 1h-11l-1 1h-9l-1 1-17 1-1 1h-6l-1 1q-4.8-.8-7 1l-.5-1.5 12.5-10.5q1.2 2.3 2.5-.5l1.5-2.5q1 2 2 0l2-1h11l1-1 2 1 1-1h15z" opacity=".361"/><path fill="#bac7ca" stroke="#bac7ca" d="m125.5 546 1.5.5 1 2-2 1q2 1 0 2l-2.5 4.5-7 1-7 6-1.5-.5-1 3 .5 1.5-1.5-.5-.5 1.5-3-1-13 6-3.5 3.5-1 5 4.5 5.5 10 5 6 2h3l4 2h3l1 1h4l1 1 8 1 1 1h4l1 1 13 1 1 1q4.7-1.3 6 1h8l1 1q4.7-1.2 6 1h10l1 1h8l1 1h11l1 1 30 1 1 1h20l1 1h31q1 2 5 1 1.2-2.2 6-1l1 1h44l1-1h6q1 2 5 1l1-1h31l1-1h20l1-1h14l1-1h15l1-1h11l1-1h8l1-1h9l1-1h6l1-1 15-1 1-1 12-1 5-2 14-2 11-4h3l13-6 3.5-3.5 1-5-4.5-5.5-10.5-4.5-.5-2.5-.5 9.5-1.5 2.5-.5-1.5 1-1v-9l-5.5-7.5-3.5-1.5-.5-1.5-2 1-1-1-5.5-.5-3-6 1.5-2.5 12 1 1.5-.5-.5 1.5q4.8-1.2 6 1 1-2 2 0h7l6 2q1-2 2 0l3 1h7l2 1v-2l4 3 9 1 9 3h4l1 1h3l15 5 12 6 5.5 5.5 1 5-6.5 7.5-7 4-10 3-3 2h-3l-4 2h-3l-5 2h-4l-9 3h-5l-3 2-2-1-1 1-12 1-4.5 1.5-.5 1.5q-1.5-3.5-3-1-3.2-.7-4 1h-7l-1 1q-1-2-2 0-4.8-1.2-6 1l-2-1-1 1h-6l-2 2-1-1h-6l-3 2-1-1h-7l-1 1h-10l-1 1-26 1-1 1h-14l-1 1h-19l-1 1q-1-2-2 0h-7l-1 1-1-1h-13q-1 2-2 0l-2 1h-15l-1 1-1-1h-10l-3 1-2-1-1 1h-8q-1-2-2 0h-61l-1-1q-1 2-5 1-1-2-2 0-3.2.8-4-1l-3 1-1-1h-10q-1 2-2 0l-2 1-3-1h-10l-2-1q-1 2-2 0l-2 1-3-1q-1 2-2 0h-6l-1 1-1-1h-7l-1-1q-1 2-2 0h-10l-1 1-1-1h-7l-1-1h-14l-1-1h-8q-1 2-2 0-3.2.8-4-1h-7q-1 2-2 0-3.2.8-4-1h-11l-1-1h-6l-2 1-2-2h-7l-1.5.5-.5-1.5q-5.5 1-8-1-1 2-2 0-4.8-1.2-6 1v-2h-9l-5-2-2 2-.5-.5-.5-1.5q-3.2.8-4-1h-6l-2-1v2l-2-2-7-1-1.5.5.5-1.5h-4l-5-2h-4l-1-1-8-1v2l-1.5-1.5.5-1.5-10-2-11-5h-2q-7.7-3.2-12.5-9.5l-1-5 6.5-7.5 7-4h2l8-4h3l7-3 8-1 1-1h4l4-2h5l1-1 8-1 1-1h7l4-2q1 2 2 0l4.5-.5.5-1.5q1 2 5 1l1-1 1 1 3-1 5.5-.5-.5-1.5 1 1h6l3-1h6z" opacity=".361"/><path fill="#bac7ca" stroke="#bac7ca" d="m137.5 569 .5 2.5h-1zm399 10 .5.5-5.5 5.5-.5-.5z" opacity=".361"/><path fill="#e1f3f9" stroke="#e1f3f9" d="m406.5 0 1.5.5-2 1 3 1-4.5 1.5V3l1.5-.5-2-1zm8 0 2.5.5-2.5.5zm32 0 3.5.5-7.5 1.5V1q3.3.8 4-1Zm-36 1 2.5.5-2.5.5zm41 0 2.5.5-2.5.5zm-50 1 1.5.5-2 1 2 1-8.5 4.5-2-1 .5 1.5-1.5 1.5-2-1 .5 1.5-2.5 2.5-2-1 .5 1.5L375.5 25l-1.5-.5 1 2-5.5 6.5-1.5.5q2.3 1.3-.5 2.5l-1.5.5q2 1 0 2l-3.5 6.5-1-2-1 2-.5-1.5 9-14 5.5-6.5q1.3 2.3 2.5-.5l-1-1 9.5-9.5 11-7 2 1-.5-1.5 1.5-1.5zm46 0 2.5.5-2.5.5zm-260 1 2.5.5-2.5.5zm-5 1 2.5.5-2.5.5zm9 0 3.5.5-3.5.5zm270 0 4.5 1.5-3.5 1.5V5q-2.4-.1-1-1Zm-286 2 2.5.5-2.5.5zm-3 1 1.5.5-2 1 2 1-1.5.5-2.5-1.5zm297 0 5.5 2.5-2.5 1.5V9l-2 1V8l-3 1V8zm-302 2 1.5.5-2 1 .5 1.5-2-1v2l-3-1v1l1.5.5-1.5.5-2-1v2q-3-1.5 0-3zm309 1 2.5 1.5-1.5-.5-2 1q-1.5-1 1-2Zm-344 3 3.5.5-3.5.5zm351 0 2 1 2-1v1l-3 1q-2.5-1-1-2Zm-357 1 2 1 2-1v1l-2 1-2-1 .5 1.5-1.5 1.5-2.5-1.5zm30 0 2.5 1.5-1.5-.5-1.5.5.5 1.5-2-1 .5 1.5-1.5 1.5-4 2v-2l-2 1q-1.5-1 1-2l3-1 2 1-.5-1.5 1.5-1.5zm356 0 1.5 5.5-1.5 2.5-1.5-4.5zm.5 3-1 3h1zm-391.5 1 1 1 1.5-.5-3.5 4.5-1.5-.5 1 4h-1l-.5-2.5-1 3-.5-2.5 1-3zm389 3 1.5 2.5q-1 1.5-2-1zm-392 7 1 1 1.5-.5 1 2-.5 1.5 2.5 1.5-1 2h2l-2.5 2.5-1.5-1.5 2-3-3-1-2-3zm1 9 1.5 1.5-2.5 2.5v-2l-2.5 1.5 1 1-2.5 2.5-2-1 .5 1.5-4.5 4.5L90 65.5l1 1-3 3-5.5 8.5-1.5-.5 1 2-3.5 6.5-1.5-.5 1 3-1.5 3.5-1-2-.5 2.5 1 3-1.5 4.5-1.5-6.5 2.5-5.5 1.5.5-1-3L81.5 75l2.5-.5-1-2 3-1-1-2L107.5 46zM75 93l-1 3h1zm-2.5 5 1.5 4.5v15q-2.2 1.2-1 6l1.5 4.5 1-3 1.5 5.5-1 3h1l.5-1.5.5 1.5-1.5 2.5-3.5-8.5-1-9-1-1v-15zm.5 4-1 16h1zm3 26-1 3h1zm100.5-11 2.5 3.5h-3q2-1 0-2z" opacity=".165"/><path fill="#e1f3f9" stroke="#e1f3f9" d="m74.5 120 .5 2.5h-1zm407 5 5.5 2.5-1.5.5-3-2-1.5.5zm-403 10 1.5 3.5-1 2h2l5 10h-3l-6-13zm427 1 2.5 1.5-1.5.5q-2.5-1-1-2Zm8 2v2l1.5.5-1.5.5-2.5-1.5zm-363 4 .5.5-2.5 2.5-.5-.5zm373 0v2l3-1v2l1.5.5-1.5.5-4.5-2.5zm-391 1 2.5 1.5-1.5.5q-2.5-1-1-2Zm14 3 .5.5-2.5 2.5-.5-.5zm-21 1 2 1 1.5-.5-2.5 1.5q-2.5-1-1-2Zm414 0 4.5.5-5 1 3 1-2.5.5-4.5-1.5zm-420 3 2.5 1.5-15.5 7.5v-1l1.5-.5-.5-1.5 2 1v-2l2 1v-2l2 1v-2l2 1v-2l2 1v-2l2 1zm-35 2q3-.5 3.5 1.5l1 2-.5 1.5 1.5.5-.5 1.5 2.5 1.5-1.5.5-2.5-1.5-4-7zm51 5 .5 1.5-2.5 2.5-.5-.5zm-33 1 2.5 1.5-6.5 2.5v-1l1.5-.5-.5-1.5 3 1zm-11 4 5.5.5-5.5.5zm40 0 1.5 1.5-2.5 2.5-1.5-.5 3-2zm-5 6v3l-2.5 1.5q2.2 1.3-.5 2.5l-1.5-.5-1 2q2.3 1.3-.5 2.5l-2.5 1.5.5 1.5q-2.7-1.2-.5-2.5zm401 13 2.5 2.5-.5.5q-1-2-2 0l-1.5-1.5zm-411 1-.5 1.5 1 1-1.5 1.5-1.5.5q2.3 1.3-.5 2.5l-1.5.5.5 1.5-1.5-.5-1 2 .5 1.5-1.5-.5 1 2-3 2 .5 1.5-2.5-.5zm414 3 2.5 2.5 6 11-.5 1.5 2.5.5-2.5.5q-2.7-1.2-.5-2.5l-.5-1.5-1.5.5.5-1.5-2.5-1.5.5-1.5-1.5-.5.5-1.5-2.5-1.5 1-2-2-2zm-426 15 1.5 2.5-3 2 .5 1.5-2.5-.5zm435 2 3.5 2.5 7 15q-1 2.5-2 1l1-2h-2l-1-2 1-2-1.5-2.5-1.5-.5.5-1.5-2.5-1.5 1-2h-2l1-2h-2l.5-1.5q-2.4-.1-1-1Zm-440 7 2.5.5-2.5.5zm-2 4 2.5.5-2.5.5zm-1 2 2.5.5-2.5.5zm-1 2 1.5 2.5-2 1 1 2h-1l-1-3zm455 4 3.5 6.5h-3l-1-3 1-2h-2zm-457 1 1.5 2.5h-2l1 3-2 3v2L87.5 243l-1-2-.5 2.5 1 2h-1l-.5-1.5-.5 2.5 1 2h-1l-.5-1.5-.5 2.5 1 3-1.5 3.5-1.5-5.5 4.5-11.5 1 2 .5-2.5-1-2 2.5-4.5 1.5.5-1-4zM84 250l-1 3h1zm468.5-21 1 2 1-2 1.5 3.5h-1l-.5-1.5-1 2-1.5-2.5zm2 5 1 2 1-2 1.5 3.5h-1l-.5-1.5-.5 2.5 1 2h-1l-2-5zm5 9 1.5 3.5h-1l-.5-1.5-1 2-.5-1.5zm2 6 2.5 5.5 1 7-1.5 3.5-1.5-6.5q1.8-.7 1-4h-1l-.5 2.5-1.5-5.5zm.5 2-1 3h1zm2 7-1 3h1zm-482.5-4 1.5 5.5h-1l-1-3zm-1 4 1.5 5.5-1.5 4.5-1.5-5.5h1l.5 1.5.5-2.5q-1.9-.9-.5-3.5Zm485 5 .5 2.5-1.5 3.5-.5-2.5zm-487 2 .5 2.5h-1zm488 2 1.5 3.5v3l-1 1-.5 4.5-1.5-8.5zm.5 3-1 4h1zm-489.5-1 1.5 7.5h-1l-.5-3.5-.5 4.5q2 1 1 5h-1l-1-9zm2 0 .5 2.5h-1zm489 6 .5 4.5 1 1v4h-1l-.5-4.5-1 4-.5-3.5 1-1zm-493 4 .5 4.5 1 1v4h-1l-.5-4.5-1 2-.5-1.5 1-1zm493 7 .5 4.5h-1zm-494 1 1.5 4.5v5h-1l-.5-5.5-.5 7.5 1 1v9h-1l-.5-9.5-1 13-.5-12.5 1-1v-7zm496 1 .5 4.5 1 1h-2l-.5 6.5-.5-6.5 1-1zm1 7 .5 5.5h-1zm-1 8 .5 10.5h-1zm2 0 .5 16.5h-1zm-501 11 .5 19.5h-1zm2 0 .5 19.5h-1zm499 7 .5 24.5h-1zm-2 14 .5 10.5h-1zm-498 1 1 13 1-9 .5 8.5-1 1-.5 7.5-.5-7.5-1-1zm499 11 .5 7.5-1 1-.5 6.5-.5-6.5-1-1v-5h1l.5 5.5zm-496 4 .5 5.5h-1zm493 6 1.5 10.5h-1q1-4-1-5zm-494 1 1 6 1-5 1.5 10.5q-2 1-1 5h1l.5-3.5.5 3.5q-2 1-1 5h1l.5-3.5 1.5 7.5q-1.7.8-1 4h1l.5-2.5 1.5 5.5h-1l-.5-2.5-1 3-2.5-7.5v-3l-1-1-1-9-1-1q1.3-4.7-1-6zm2.5 7-1 5h1zm3 15-1 4h1zm487.5-16 .5 3.5h-1zm1 5 .5 2.5h-1zm-2 1 1 4 1.5-.5-1.5 4.5-1.5-4.5zm-1 5 1.5 7.5-2.5 7.5-1-3-1 3-.5-2.5 1-1v-3l1-1zm.5 4-1 4h1zm-1 4-1 4h1zm-3.5 8 1 3 1-3 .5 2.5-1.5 2.5q-2.4-1.8-1-5Zm-480 1 1 3 1-3 .5 2.5-1 3h1l.5-1.5.5 1.5-1 3h1l.5-1.5.5 1.5-1 3h1l.5-1.5.5 1.5-1.5 3.5-4.5-12.5zm479 3 1.5 4.5-3.5 8.5-1.5-3.5h1l.5 1.5.5-2.5-1-2 1.5-3.5 1 2 .5-2.5q-1.7-.7-.5-2.5Zm-4 12 1.5 4.5-2.5 4.5-1.5-3.5 1.5-2.5 1 2 .5-2.5q-1.7-.7-.5-2.5Zm-470 1 1 2 1-2 2.5 6.5-1 3h1l.5-1.5 1.5 3.5-1 2h2l-1 2 3 2 1 3-1 2h2l-1 2h2l-1 2h2l-1 2h2l-1 2h2l-1 2h2l-.5 1.5 1.5.5-2.5.5-9.5-18.5v-2q-3.1-3.4-4-9l1-3h-1l-.5 1.5-1.5-2.5zm467 7 1.5 3.5-10 22-2 2-5 10-2.5 2.5-1.5.5 1 2-3 3-5 9-6.5 7.5.5-1.5-1-1 1.5-1.5 2.5-1.5q-2.2-1.2.5-2.5l1.5.5-1-2 3-2q-2.2-1.2.5-2.5l2.5-1.5-.5-1.5 1.5-.5q-2.2-1.2.5-2.5l1.5.5-1-2 3-2-.5-1.5 1.5-.5q-2.2-1.2.5-2.5l1.5-.5-.5-1.5 1.5-.5-.5-1.5 1.5.5-1-2 3.5-5.5 1.5-.5-.5-1.5 1.5-.5-.5-1.5 1.5-.5-1-2 3-2-1-2h2l-1-2h2l-1-3zm-451 29 2.5.5-.5 1.5 2.5 1.5-1.5-.5-1 1-1.5-1.5zm3 5 1 1 1.5-.5-.5 1.5 2.5 1.5-1 2h2l-.5 1.5 2.5 1.5-.5 1.5 2.5 1.5-.5 1.5 2.5 1.5-.5 1.5 2.5 1.5-1 2 1.5-.5 1.5 1.5q-2.2 1.3.5 2.5l2.5 1.5-1.5 1.5-2.5-2.5-11-16-4-7zm19 27 1 2q1.3-2.2 2.5.5-2.2 1.3.5 2.5l3.5 2.5-1.5 1.5-3.5-3.5-3-4zm394 1 .5 1.5-2 1 .5 1.5-1.5-1.5zm-3 5 .5 1.5-2.5 2.5-1-1-1.5.5zm-383 4 2.5 3.5-.5.5-2.5-2.5zm379 1-.5 1.5-1.5 2.5.5-1.5zm-374 3 2.5 2.5-.5.5q-1-2-2 0l-1.5-1.5zm370 0-.5 1.5 1 1-1.5 1.5-1-1-2.5 2.5 1 1-6.5 6.5-.5-.5 5-5-1-1zm-367 5 6.5 6.5-.5.5-6.5-6.5zm49 41q2.5 1 1 2l-4.5-.5zm-16 2 7.5.5-7.5.5zm286 0 8.5.5-8.5.5zm-275 1h13l3.5 2.5-1.5.5-1-1h-15l-2 1q-1-2-2 0h-11l-4 3-.5-.5 3.5-3.5q3.3.8 4-1h12zm263 0h8l1 1h14q1.2 2.3 6 1l5.5 4.5-.5.5-3-3-3-1q-.7 1.8-4 1l-1-1h-13l-1-1q-6.2 1.2-9-1l-3 2q-1.5-1 1-2zm-330 4 5.5.5-5.5.5zm400 0 5.5.5-5.5.5zm-409 1 5.5.5-5.5.5z" opacity=".165"/><path fill="#e1f3f9" stroke="#e1f3f9" d="m125.5 544 4.5.5-2.5 3.5-1-2q-2.5 2-8 1l-1 1q-1-2-2 0h-6l-1 1q-4.7-1.2-6 1l-1-1-3 1q-4 1-5-1l-1 2q-4-1-5 1-1-2-2 0l-3 1h-7l-1 1h-4l-5 2h-5l-4 2-9 1-11 4h-3l-14 6-8.5 7.5-1 5 6.5 7.5 7 4h2l11 5h3l12 4 9 1 5 2 9 1 4 2 2-1 1 1h6l4.5 1.5.5 1.5q1.5-3.5 3-1 3.3-.7 4 1h9l1 1q4.8-1.2 6 1l2-1 1 1 6.5.5.5 1.5 1-1h7l3 2 1-1h6l1 1h11l5 2 1-1h7l5 2 1-1h8l1 1h14l1 1h7l1 1 1-1h10l3 1h7l1 1 1-1h6q1 2 2 0l3 1 2-1q1 2 2 0l2 1h10l1 1 3-1 2 1 1-1h10l3 1q1-2 2 0 3.2.8 4-1 1 2 5 1 1-2 2 0h61l1-1 1 1h8l2-1 3 1 1-1h10q1 2 2 0h15l2-1q1 2 2 0h13l1 1 1-1h7l1-1q1 2 2 0h19l1-1h14l1-1h13l1-1h12l1-1h10l1-1h7l2 1q1.5-3.5 8-2 1.5 2.5 3-1 5.5 1 8-1 1 2 2 0 4.8 1.3 6-1 1 2 2 0h7l5-2 2 2 .5-.5.5-1.5q3.3.8 4-1h6l1-1q4.8.8 7-1 1 2 2 0 2.2-1.8 7-1l9-3h4l12-4h3l3-2 5-1 9-4 8.5-7.5 1-5-6.5-7.5-12-6-15-5-8-1-1-1h-4l-4-2h-5l-7-3-2 1-1-1h-7l-4-2q-1 2-2 0-4 1-5-1h-7l-1-1q-1 2-2 0l-18-2-.5 1.5.5 1.5-3.5-5.5 1.5.5h8l1 1 15 1 1 1 13 1 1 1 12 1 1 1h5l1 1h4l1 1 14 2 3-1v1l-2.5.5 7.5 1.5 3-1v1l-2.5.5 3.5.5 3-1v1l-2.5.5 3.5 1.5h3l2-1v1l-1.5.5 2.5.5 2-1v1l-1.5.5 2.5.5 2-1v1l-1.5.5 4.5 1.5 2-1v1l-1.5.5 7.5 3.5v-2l1.5 1.5-.5 1.5 2-1 5.5 5.5q-2 1 0 2v7l-1 1 1 1-5.5 5.5-2-1 .5 1.5-1.5 1.5v-2l-7.5 3.5 2 1-1.5.5-3-1-2.5 1.5 2 1-1.5.5-3-1v1l1.5.5-1.5.5-3-1v1l1.5.5-1.5.5q-.7-1.7-4-1l-3.5 1.5 3 1-2.5.5q-.7-1.7-4-1l-1 1-7.5 1.5 3 1-2.5.5q-1-2-5-1l-1 1h-4l-6 2h-5l-6 2h-5l-1 1h-6l-1 1-5.5.5 5 1-4.5.5-1-1h-7l-1 1h-7l-1 1h-7l-1 1-18 1-1 1h-9l-1 1-24 1-1 1h-13l-1 1h-15l-2 1q-1-2-2 0h-17l-1 1h-25l-2 1q-1-2-2 0h-141l-1-1-2 1-1-1h-24l-1-1q-1 2-2 0h-16l-1-1-2 1-1-1-30-1-1-1h-11l-1-1h-11l-1-1h-9l-1-1-18-1-1-1h-7l-1-1h-7l-1-1h-7l-1-1q-4.7 1.3-6-1h-6l-1-1h-5l-1-1h-5l-1-1h-4l-1-1h-4l-6-2h-4l-3 1v-1l2.5-.5-7.5-1.5-1-1h-3l-3 1v-1l2.5-.5-3.5-.5-2 1v-1l1.5-.5-2.5-.5-2 1v-1l1.5-.5-2.5-.5-2 1v-1l1.5-.5-2.5-.5-2 1v-1l1.5-.5-2.5-.5-2 1-2.5-1.5 2-1-7.5-3.5v2L7 591.5l.5-1.5-2 1-2.5-2.5.5-1.5q-3 .5-3.5-1.5 2-1 0-2-.8-3.2 1-4l-1-3q2-1 0-2l1.5-1.5q1.2 2.3 2.5-.5l-1-1 2.5-2.5 2 1-.5-1.5 1.5-1.5v2l7.5-3.5-2-1 1.5-.5 3 1 2.5-1.5-2-1 1.5-.5 3 1v-1l-1.5-.5 1.5-.5 3 1v-1l-1.5-.5 1.5-.5q.8 1.8 4 1l3.5-1.5-3-1 2.5-.5q.8 1.8 4 1l1-1 7.5-1.5-3-1 2.5-.5q1 2 5 1l1-1 14-2 1-1 11-1 1-1h6l1-1h6l1-1h6l1-1h7l1-1h7l1-1h9zm401 0 5.5.5-5.5.5zm-426 1 5.5.5-5.5.5z" opacity=".165"/><path fill="#e1f3f9" stroke="#e1f3f9" d="m162.5 545 .5.5-2.5 2.5-.5-.5zm372 0 5.5.5-5.5.5zm-441 1 4.5.5-4.5.5zm390 0 2.5 2.5-.5.5-2.5-2.5zm59 0 4.5.5-4.5.5zm-456 1 4.5.5-4.5.5zm463 0 4.5.5-4.5.5zm-470 1 4.5.5-4.5.5zm477 0 4.5.5-4.5.5zm-483 1 3.5.5-3.5.5zm490 0 3.5.5-3.5.5zm-496 1 3.5.5-3.5.5zm502 0 3.5.5-3.5.5zm-507 1 2.5.5-2.5.5zm513 0 2.5.5-2.5.5zm-518 1 2.5.5-2.5.5zm523 0 2.5.5-2.5.5zm-528 1 2.5.5-2.5.5zm533 0 2.5.5-2.5.5zm-538 1 2.5.5-2.5.5zm543 0 2.5.5-2.5.5zm-543 51 2.5.5-2.5.5zm543 0 2.5.5-2.5.5zm-538 1 2.5.5-2.5.5zm533 0 2.5.5-2.5.5zm-528 1 2.5.5-2.5.5zm523 0 2.5.5-2.5.5zm-518 1 2.5.5-2.5.5zm513 0 2.5.5-2.5.5zm-508 1 3.5.5-3.5.5zm502 0 3.5.5-3.5.5zm-496 1 3.5.5-3.5.5zm490 0 3.5.5-3.5.5zm-484 1 3.5.5-3.5.5zm477 0 4.5.5-4.5.5zm-470 1 3.5.5-3.5.5zm7 1 4.5.5-4.5.5zm449 0 4.5.5-4.5.5zm-442 1 4.5.5-4.5.5zm435 0 4.5.5-4.5.5zm-427 1 5.5.5-5.5.5zm418 0 5.5.5-5.5.5zm-409 1 5.5.5-5.5.5zm400 0 5.5.5-5.5.5zm-391 1 5.5.5-5.5.5zm382 0 5.5.5-5.5.5zm-372 1 6.5.5-6.5.5zm361 0 6.5.5-6.5.5zm-350 1 6.5.5-6.5.5zm339 0 6.5.5-6.5.5zm-328 1 8.5.5-8.5.5zm315 0 8.5.5-8.5.5zm-301 1 8.5.5-8.5.5zm287 0 8.5.5-8.5.5zm-273 1 10.5.5-10.5.5zm257 0 10.5.5-10.5.5zm-240 1 13.5.5-13.5.5zm219 0 13.5.5-13.5.5z" opacity=".165"/><path fill="#889091" stroke="#889091" d="m493.5 7 1.5.5-4.5 3.5-.5-.5zm6 138 2.5 2.5-.5.5-2.5-2.5zm-296 406h15l2 1q1-2 2 0l11.5 4.5.5 1.5 2-1v2l2-1q1.5 1-1 2l-3-1-1 1h-11l-1 1-17 1-1 1h-6l-1 1-12 1-1 1h-4l-5 2h-4l-1 1h-3l-6 2-8 4-3.5 3.5v3l4.5 4.5 21 7 10 1 1 1h5l1 1h5l1 1h6l1 1h8l1 1h8l1 1h11l1 1h13l1 1h15l1 1h31l1 1 3-1 1 1h39l2-1 3 1 1-1h30l1-1 29-1 1-1h11l1-1h8l1-1h8l1-1 13-1 6-2 10-1 4-2h4l14-6 2.5-2.5 1-3-3.5-4.5-8-4-6-2h-3l-1-1-8-1-1-1-11-1-1-1q-4.7 1.3-6-1h-6l-1-1h-7l-1-1-21-1-1.5-1.5 1.5.5 1.5-.5.5-1.5h2l13-6q1 2 2 0h11l1 1 21 1 1 1h8l1 1h8l1 1h6l1 1h7l6 2q1-2 2 0l9.5 7.5-1 1v5l-1 3 2 1-.5 1.5 1.5.5q-2.3 1.3.5 2.5l8 5h8l4-2 1 1 5.5-5.5-.5-1.5 1.5-.5-1-2h2l-.5-9.5-1.5.5q1.5-3 3 0l.5 2.5h2l8 4 3.5 3.5 1 5-4.5 5.5-10 5-6 1-7 3-8 1-1 1h-4l-1 1h-4l-5 2h-6l-1 1q-4.7-1.3-6 1h-6l-1 1h-8l-1 1h-6l-1 1h-9l-1 1h-8l-1 1h-11l-1 1h-15l-1 1h-14l-1 1h-20l-1 1h-31q-1 2-5 1l-1-1h-6l-1 1h-44q-1.2-2.2-6-1-1 2-5 1l-1-1h-31l-1-1h-20l-1-1h-14l-1-1h-15l-1-1h-11l-1-1h-8l-1-1h-10l-1-1q-4.7 1.3-6-1h-8l-1-1q-4.7 1.2-6-1l-13-1-1-1-9-1-1-1-8-1-8-3h-3l-11-5h-2l-6.5-5.5-1-5 4.5-5.5 10-5 5-1 1.5.5q1.3-5.7 5.5-8.5l.5.5-3 3-3 8 1 1v5l1.5 3.5 9 6h9q5.5-2 8.5-6.5l3-10-2-3 3-2 1.5-2.5 7-5 2 1 1-1 12-1 1-1h8l1-1h8l1-1h9l1-1h11zm329 8 2.5 2.5-.5.5-2.5-2.5z" opacity=".361"/></svg>