<svg xmlns="http://www.w3.org/2000/svg" viewBox="0 0 634 640"><path fill="#380502" stroke="#380502" d="m340.5 45 11 1 6 2q9 4 14.5 11.5l6 12q-1 4 1 5v11l-1 1-1 7-3 6-9.5 10.5-9.5 4.5.5 1.5h3l1 1h3l6 2 14 7q13.9 9.1 24.5 21.5l15 20 15.5 28.5 12-10 14-8 9-3h9l1-1 1 1h9q.8 1.8 4 1l12 5 9 6 14.5 14.5 8 11 10 18v2l7 15 4 12v3l2 4 2 11 1 1 1 10 2 6v6l1 1v6l1 1v9l1 1v50l-1 1v10l-1 1v6l-1 1v6l-1 1v5l-1 1-1 9-1 1-2 11-2 4v3l-4 12-2 3-1 5-12 24-9 13-8.5 9.5-11 9-11 6-9 3h-4l-1 1h-11l-1-1h-5l-4-2h-3l-2.5 12.5-1 1v3l-1 1v3l-2 4v3l-2.5 7.5h-81l-39 22h-18l-12 11h-128l-12-11h-21L88 538.5l.5-2.5 91.5-.5-6.5-3.5-12-9-14.5-13.5-17.5-22.5h-3l-5 2h-4l-1 1h-20l-1-1h-4l-1-1h-3l-6-2-10-5q-10.4-6.1-17.5-15.5l-4-6-6-14q1-4-1-5v-18l1-1v-4l2-6 5-10L61.5 389l11-8 11-5 9-2 1.5-1.5-1-3 1.5-1.5 120.5-.5v-12q2.3-1.2 1-6l-1-3-6.5-8.5-7-6-7-3h-3l-.5 1.5 1 1v6l-2 4q.7 4.2-1 6l-5.5 5.5-6 3h-4l-1-1-9-1-6.5-4.5-5-8v-12q3.5-10 11.5-15.5l10-4h14q13.8 4.7 21.5 15.5l7.5 13.5.5-6.5 1-1v-7l1-1v-9l-4.5-7.5-7-3-2.5 1.5q-2 2.5-1 8l1.5 2.5q1.8 1.7 6 1l2-2 .5.5-.5 2.5q-1.8 1.7-6 1l-4.5-3.5q.7-4.2-1-6 1.8-.7 1-4l1.5-1.5q1.8-1.7 6-1l5 3 .5-2.5-2.5-6.5h-18q-.7-1.7-4-1-10.5-3.5-17.5-10.5l-6-8v-2l-3-4-2-6v-17q2-1 1-5l6-13 5.5-6.5 15.5-12.5-3-7-1-8-2-4v-3l-3-8v-3q1.5-3 7.5-1.5l1 1h3l12 4 13 1 1 1h33q1.2-2.2 6-1l3.5-2.5q13.1-25.4 33.5-43.5l19-13 18.5-6.5-1.5-1.5h-2l-6-3-9.5-9.5-4-7-2-6v-6q-1.7-.7-1-4l1-1v-6l4-10L323.5 51l8-4 8-1zm1.5 1-1 1-9 1-9 5-7 7-4 6-3 9v15l2 6 5 9 6 5 6 4h2l6 3h15l12-5 11-12 4-12V77q-2-1-1-5l-3-7-5-7-11-9-6-2zm15 93-1 3-5-1-1 3-6-1-1 4-1-1-1 3-2 2-1-1-2 1-1-3-2 2-1 4 2 1-1 2-3 1 3 1-2 4 4 1 2-1 2 1v-2h2l1-1 2 1 2-1v4h11l1 1 2-1 2 1 2-1 1-2 1 2v-2l2-1v-1l3-2-2-2 1-1q-2-2-1-5l-2-1 1-2h-1l-2-1v-5l-1 2-4-4h-1zm-172 39v1h3zm292 0-1 1h-4l-6 2-4 3h4l1-2 2 4v-1l2-1v-3l2 1-1 2h3v3q1 2 2 1l-1-2 1-1 2 2 1-1 3 1 1-2-2-1 2-1v-1h2l2-2 2 2v-1l4-1-4-2zm18 2q-2 1 1 1l1 2 2-1 2 1h2l-5-3zm-116 2-1 1h-69q-1 2-2 0l-2 1h-6l-1-1-2 1q-4 1-4-1-5-1-6 1l-3-1h-20l-4 5 1 1h171q-1-4-3-6l-3 1q-5 1-5-1-5-1-5 1l-1-1h-14q-1-2-2 0h-6l-1-1q-2 2-6 1-1-2-2 0zm-173 1v1h2zm3 1-2 2h2l3 6h-1l-1-2-2 5 1 1 2-1 4 1 1-1 1-4 1 1-1 4h2v1l-3-1-1 3q1 2 4 1l-1 2 1 1h-4v1h15l2-1-1-2 3-1 2-4 2-1v-3l3-3v-2l3-1-30-1q-2-2-5-1Zm297 0q-2 1 1 2h2zm-36 2v3l1-2zm-213 8-3 5v1h183l-3-6-1 1h-22q-1-2-2 0l-3-1q-4-1-4 1l-1-1h-7q-1 2-2 0l-3 1h-10q-1-2-2 0h-40l-1-1-7 1q-1-2-2 0h-63l-1-1zm263 0-1 1 2 2-1 1 3 1v2q1 2 3 0 2 1 0 3l1 2h2l2 4 3 1v2l3 2-9-13zm-307 11-9 3h-4l-2 2-10 5-8 7-10 11-6 16v17l3 7 2 2 1 4 4 5 11 8 12 4h15l4-2h3l7-5 3-4 2-6v-12l-6-11-8-8-6-6v-5l2-3 4-4h2l3-2h13l10 4q5 4 8 11l3 9v5l2 3v16l-1 1-1 9-2 3v4l-3 4v3l-6 9-2 5-3 3v2l-6 10-2 6v6l2 5 3 2-1-2 3-14 9-14 2-6 4-5 8-15 6-18-1-2 1-1v-7l1-1v-15l-3-9-12-18q-7-9-16-14l-3-1h-7l-1-1zm39 1-3 3-1 5 3 1 12 16q1 4 4 7l3 9v19l-1 1v8l-2 4v3l-7 17-9 14-2 6-9 15-1 3v8l-1 1 2 4q1 3-1 3l-8-9v-12l5-8v-2l2-2v-2l8-12 4-8v-2l2-2v-3l4-11v-21l-1-1-1-8-2-3v-3l-2-4-6-7-3-1-7 20-1 7-2 4 2 6v8q-2 1-1 5l-5 8h-1l-2 5v5l-1 1v5l-1 1v6l-1 1 2 4 1 8 1 1v16l4 12h-1l-3-3v-3l-3-7q-1-4 1-5v-9l-2-8-1 8-1 1v7l-1 1v10l1 1v6l1 1q1 3-1 4l-1-5-2 13h30l1 1h145l1 2q1 3-1 4v14l-1 1-1 14-1 1v4l-2 5v4l-3 9v3l-6 18-5 10v2l-7 14-7 10h110v-6l1-1v-7l1-1v-7l1-1v-9l1-1v-13l1-1v-20l1-1v-33l-1-1v-20l-1-1v-13l-1-1v-9l-1-1v-8l-1-1-1-13-1-1v-6l-1-1v-5l-1-1v-5l-2-6v-4l-1-1v-4l-3-9-1-8-2-4-1-7-2-4v-3l-7-21-6-13v-2l-2-3zm228 12-1 1h-4l-6 2-6 3-6 4-6 6 4 10v3l3 8v3l2 4 2 11 1 1v4l1 1v4l1 1v4l1 1v4l1 1v4l1 1 1 12 1 1v6l1 1v6l1 1v7l1 1 1 21 1 1v20l1 1v42l-1 1v19l-1 1v12l-1 1v9l-1 1q1 6-1 9l8 2h8l1-1h5l3-1q9-4 16-10l10-11 4-6 12-24 3-9v-3l2-4 1-7 1-1 1-9 1-1v-6l1-1v-6l1-1v-10l1-1v-31l-1-1v-9l-1-1v-7l-1-1v-6l-2-6v-4l-11-33-13-22q-8-11-19-18l-10-4zm-306 93-10 4q-8 6-11 16v11l3 5 5 4 8 3h11l6-4 3-5 1-7q2-1 0-2l1-3-1-3v-2h5l3 1 8 5q6 5 10 12h1q-2-1-1-4l-3-5v-2l-6-10-5-6-11-7-3-1zm-78 58-1 4h1zm13 0v1h12l4 3 2-1v1l-2 2 6 1h-4q-3 0-2 4l2-1 2 4h-1v1l3-1-1 2 5 1h5l7 5v-3h-3l4-3-1-1 2-1 1 2 1-1 1-5q4-1 5 2 5 1 7-2l2 2h10v2l-4 1q1 2 4 1l2-4 3 1 2-1 1 5 3-6 2 1h2l3-3-3-1-1-1 6-1 6-5h4l3 2v-1l6-1zm108 0v1h4zm7 0v1h8zm36 0v2l-3 1v2l3 3h-16l-1 1 3 2q1-3 7-2v4q-2 2-8 1l-1 2-3 1h5l1 2-1 1-4 1h2v3h2q1 2 3-1l2 2h-2v1h35l-4-1-1-2 3-2v-1l-7-1 1-3 2 1v-1l2-1-2-1 4-5-1-1-1-1 5-4-14-1v-1zm27 0v1h2zm11 0v1h2zm10 0v1l5 1-5 1q2 0 2 4h-1l-2 2-1 5-4 3h5v2l-3 1 3 2-2 4h32l1 1 3-1h36l-6-1 3-4v-2q2-1 0-2l2-1-4-5 1-2 3 1q2-1 0-2l2-3v-2l3-1 1 2 2-3 6 1v6l-1 1 1 12v-9l1-1v-10zm-76 2-1 2 2 1 2-2zm8 0-1 2 5 3 4-1 1-3 2 1v-1zm144 0-1 2h3v-1zm-129 2-1 2h2v-1zm-164 2-1 1-6 1-18 10q-9 7-15 17l-4 8-2 6v4l-1 1v18q2 1 1 5l5 12 6 9 12 10 2-1 3 1-1-3 8 5 6 1 2 2 11 2q1 2 2 0l1 1h25l1 1-3-6-19-1 2-1-2-3 5-1-9-1-1-1-8-1q-9-3-15-8l-8-7-5-8-2-6 1-3q2 11 9 19l11 8 9 4 8 1 1 1h10l7-2-10-21-1-5-2-3-3-9-3-15-1-1v-3l-1-1v-3l-1-1-1-12-1-3-5 1-12 7-7 7-4 6-3 7v3h-1l1-6 6-10 11-10-1-1q-1-4-4-5l2-1q2-1 1-2l-4 1-2 1 4-3h2l3-3h2l1-2 5-3h2q2-1 1-4zm12 1-1 2h2v-1zm19 0-1 2h2q1-1-1-2Zm106 1v2q3 1 3-1zm8 0 1 3v-1l2-1zm333 0-1 4h1zm-415 6-2 2 3 1v-2zm12 0q-2 1 2 2v-1zm74 0v1h2zm328 3-1 4h1zm-277 1-1 2h3v-1zm-142 1-1 2h2q1-1-1-2Zm8 0q-2 1 1 2v-1zm-26 1-1 2h2v-1zm79 1-1 2h2v-1zm179 1-1 3h-7v1h8zm178 0-1 7h1zm-386 2-3 1v1h3zm63 1v1h2zm54 0v1h2zm262 0-1 2q1 1 2-1zm-462 3-1 4 1 1v6l1 3h288l1-4v-6l1-3zm468 1-1 4h-5v-1l-3-1-1 2h2v2l-3-2-1 2h-2l2 2 2-1 2 1 5-1v-1h1l-1 3 1 6 1-4v-5l1-1zm-4 8-2 2 1 1h1zm-265 6-2 2 4 5-5 7h2l1-2 5-3 3 4h1l-4-5 3-2v-1l4-4v-1l-3 1-4 5zm266 1-1 3h1zm-321 1-9 5-3 4v7l1 3q4 4 10 7l3 1h5l3-3v-1l-5 3-7-2-3-2q-5-3-6-8 2-1 0-2l2-4 3-3 8-3zm-82 1-2 2 1 2 2 2-5 5h1l6-4 2 5 3 2v-2l-5-6 5-4v-2l-5 4zm-28 1-2 1-4 7v7l5 5 2-1 1 1 2-2v-4l-2 3q0 2-3 1l-3-3v-7l2-4q1-3 6-2l6 8v6l-2 4-5 4h-10l-5-2-5-5 1-7 4-6-1-1-5 7v9l1 2 7 4h12l1 1 2-1 7-8v-7l-3-5-5-5zm227 2-5 2-6 7v9l3 2-2-4 1-8q3-4 8-6 5 1 6-1zm-115 4-3 1-3 4q1 6 6 8 4 1 5-2v-2q-1 3-5 2-4-2-4-6l4-3h6l5 6q0 4-3 6l1 1 4-5v-2l-2-3-5-5zm117 2-2 1q-4 1-3 7 1 2 2 1l-1-4q2-4 7-4zm4 1-1 1 4 2h2l-1-2zm6 3q-2 2 0 3v5h1q2-7-1-8Zm-2 9-5 4h-4q-1 2-2 0l-3 1 3 1h5q4-2 7-5zm-17 1-1 1 3 2h1zm-165 10-6 4-4 5q1 3-1 4v7l2 3 6 5q2 2 7 1l1 1 6-3 5-5 1-3v-7l-2-4-3-4-6-2-6 2-4 4v9l6 4h5l6-5v-4q-2 1-2 4l-3 3-3 1-5-2-3-3 1-7 6-4h5l3 2 3 5v9l-1 2-4 4-5 2-7-1-7-7v-9l1-2 10-8zm118 4-2 1q-5 3-7 9v10l1 2 5 4 6 2 8-2 3-2 2-4q1-5-1-6l-5-5h-8q-4 2-4 7 2 3 7 3 3-1 0-3l-3 1q-3-1-2-4l4-3h3l5 2 2 3 1 3-2 5-7 3h-5l-3-1-4-3-2-5v-5l2-5 7-6h4zm-51 5-1 1 4 3v-1zm8 1-4 3-1 2-6 5 1 1 6-5h2l4 5 1-1-5-5 2-3zm99 3-3 4-3 3-2-2-2 1 2 3-2 2h1l3-2 4 3-3-3 6-8zm-225 2-8 6-6-4-1 2 3 1 1 3-3 3h1l11-8 3-1v-1zm-22 9v1h2zm16 0-1 1 3 2v-1zm220 0q-3 1-1 2l2-1zm128 3v1h8zm-347 10-1 2 8 11 4 3h203l9-11 2-4zm-37 2v1h2zm6 1v1h8zm10 0v1h3zm270 2-1 1h-24l-5 6h13l1 1q0-2 4-1l1 2v-1l3-1v1l-2 2q-3-2-8-1l-1-1-2 1q-1 2-2 0l-2 1q-2 1 1 2l3-1h1l-1 2q-2 1 0 2v1q-4 0-4-2l-3 1-1 2-6-1v-3l-2 3h-1l-8 9h6l1 1h25l1-1 2 1 2-1h87l-28-1v-1h30l3 2 1-3v-4l-1 2h-20l-1-1-18-1-1-1h-47q-3-1-1-2l2 1v-3l2-2v4l5 1 6-4 1-2 2 1v3l3 1v-4l4 1 1-2 2-1-2-1 59-1 1-1 5 1q2-1 1-5l-65-1-1-1-1 1h-7q-1-2-2 0h-8zm-235 13v3l20 18 18 12h121l15-10 13-11 10-11zm-55 34-1 2 56 30h191l15-9 7-3 2-2 9-4 2-2 9-4 2-2 9-4v-1zm365 8-2 1v1h2zm-31 1v1h15zm-255 24-1 1 10 9h127l10-9z"/><path fill="#380502" stroke="#380502" d="m338.5 158 1.5.5q-1 2.5-2 1zm139 22 2.5 1.5-.5 1.5-2.5-1.5zm-248 14q2.5 1 1 2l-1.5-.5zm-3 7q1.5 1-1 2l-1.5-.5zm65 50h10l3 1 7.5 6.5 3 8v7l-3.5 5.5-7 4h-10l-1.5-2.5 1.5-.5 1 1h8l5-2 3.5-3.5q2.2-2.8 1-9l-3.5-8.5-8-5-6-1-6 2-6.5 6.5-10 19-1.5 14.5-1.5-.5v-8l2-5q-2-1 0-2l3-6v-2l5-9 7.5-8.5zm-155 26h14l6 2 18 13 4.5 4.5 1 2-1.5.5-4-5-22-15-15-1-6.5 4.5q-2.2 2.8-1 9 2 5.5 6.5 8.5l9 3h10l3.5-4.5.5-5.5.5 7.5-3.5 3.5h-12l-9-3-4.5-4.5-2-3v-10l4.5-5.5zm155 12h13l1 1h4l3 2h2l9 5 9.5 9.5v2l2 2 4 12v10q-3.8 7.7-10.5 12.5l-9 4-11 1-15-6-6.5-5.5-12.5-22.5-4.5 3.5-9 17v3l-2 3-1 5-4.5 10.5-1.5-.5v-23l1-1v-3l2-6 2-3 2-7 12.5-14.5 9-7 6-3q4 1 5-1Zm3.5 1-1 1h-6l-11 6-11 12h-1l-7 11-4 12v5l-1 1 1 15 1-1 3-10 2-3v-3l10-18 6-4 1 2 2 7 2 2 6 12 8 6 12 5h12l9-4q6-5 10-12v-7l-2-4v-4l-2-3v-2l-2-2-1-4q-7-8-17-13l-6-2z"/><path fill="#380502" stroke="#380502" d="M276.5 339h7l5.5 4.5 1 3v6l-3.5 4.5q-2.8 2.2-9 1-3-.5-2.5-4.5l1.5-.5 3 4 5-1 2.5-2.5q1.8-2.2 1-7l-3.5-4.5-3-2h-2l-7 3-4.5 4.5-11.5 17.5q-3.2-1.7.5-3.5l1-3 10.5-14.5 1.5-.5.5-1.5zm-81 10h8l8.5 7.5 2 4-.5.5-3.5-3.5-5.5-6.5q-2.5-2-8-1l-5.5 3.5-2 5 2.5 4.5h4l5-4h2v1l-5 4h-7q-3.5-2-2.5-8.5l4.5-5.5zm129 22 2.5 1.5-1.5 2.5-2.5-1.5zm.5 1-1 2h2v-1zm-151.5 0 2.5 1.5q.5 3-1.5 3.5l-2.5-1.5q-.5-3 1.5-3.5Zm.5 1-1 2h2v-1zm-40.5 6 3.5.5-.5 2.5-2.5-.5.5-1.5q-2.4-.1-1-1Zm126 1 1.5.5-1.5 2.5-1.5-.5zm100 4 1.5.5-2 1-.5 1.5-.5-1.5zm-297 41 .5 12.5h-1zm315 72 7.5.5-.5 1.5-2-1-2 1-3-1zm17 0 2.5.5-2.5.5zm-11 3 .5 2.5h-1zm-18 3 1.5 3.5-1.5.5zm5 0 1.5 2.5q-1 1.5-2-1zm-208 4 2.5 1.5-.5 2.5-1-3-1.5.5-.5 1.5-.5-1.5zm163 0 .5.5-2.5 2.5-.5-.5zm-8 4 1.5 2.5-2.5.5.5-1.5zm-7 1q2.5 1 1 2l-2 1-.5-1.5zm112 1 2.5.5-2.5.5zm-124 15 2.5.5-2.5.5zm-103 1 1.5.5-2 1-.5 1.5-.5-1.5z"/><path fill="#9f5215" stroke="#9f5215" d="M322.5 78q4.3-.7 5 2 1-2 2 0l3.5 2.5.5 1.5 1.5.5.5 1.5 5 3h3l2 2q6.2-1.2 9 1l5-2h6l2 3 3.5 2.5.5 1.5 1.5.5-1 2 .5 1.5-1.5-.5-1 2q2.3 1.3-.5 2.5l-1.5.5-4.5 5.5-10 5q-4-1-5 1h-10v-1h6l1-1 2 1q1.5-1-1-2l-2.5-1.5-1.5-3.5-6-5-3.5-.5-.5-1.5h-4l-4.5 2.5-1 2 1.5 2.5 1.5.5 2.5 3.5 1.5.5-1.5.5q-8.3-4.2-13.5-11.5l-4-8 .5-1.5-1.5-.5q1.8-2.2 1-7l-1-3 1.5.5 2-2z"/><path fill="#9f5215" stroke="#9f5215" d="m334.5 115 2.5.5-2.5.5zm-83 93 13.5.5-7 1 4 7-3 3q2 1 0 2l2 2-1 2 .5 1.5q-2.7-1.2-.5-2.5l-3.5-4.5q-1.3 2.3-2.5-.5l1-1-4-4-.5-1.5-2 1v-3l1.5.5-1-2h2zm127 0 2.5.5-2.5.5zm9 0 3.5.5-3.5.5zm9 0 3.5.5-3.5.5zm10 0 4.5.5-4.5.5zm34 5 1 2 1.5-.5-1 3 1.5 2.5 1.5-.5-1 3 1.5 2.5 1.5-.5-1 2 2 1 4 12q-2.5 1.5 1 3l4 15q-2.5 1.5 1 3l2 10 1 1 2 14 2 5v4l1 1v6l1 1v5l1 1q-1.2 4.8 1 6l1 12q-2.5 1.5 1 3 .7 4.2-1 6 3 2 2 8-1.7.8-1 4 3.3 1.3 2 7l-1 3q-.8 5.3 2 7v7l-1 3v16l1 2-1 3 1 1v9l-1 1v19l-1 1v16q1.7.8 1 4h-2v7q1.8.8 1 4h-1l-.5-2.5-.5 7.5q1.8.8 1 4h-2l1 7-2 1 1 7h-1l-.5-2.5-1 3-3 1h-16l-3-2-2 1-1.5-1.5.5-1.5-2.5-.5q-.7-3.7 1.5-4.5 1.3 2.3 2.5-.5l-.5-1.5-2.5-.5q2-1 0-2v-2l3.5-3.5 1 2 1.5-.5q.8-4.8-1-7l3-2 .5-1.5 3.5-2.5 1-3q-2-1 0-2l.5-1.5 1.5-.5q-1.7-1.8-1-6l2-1v-3l-2-6q2.6-1.4 2-6l-1-2 1.5-4.5 2.5-1.5-1-3 3-8 1-9-2-2 .5-.5 1.5-.5-1-6 2-1-1.5-4.5-2 1-1.5-2.5 1.5.5 1.5-.5.5-3.5 1.5-.5 1-3-4-2 2-1q1.7-1.8 1-6l1-1-1.5-.5-2.5 1.5-.5 1.5-1.5-.5-1-3 4-3q-.7-3.2 1-4l-4-1 1-4-2.5-1.5-6 2-.5-1.5 2-1-1-3v-8l-1.5-4.5-3.5-1.5-.5-1.5-1 3-7 6-4-6-1.5-.5v-3l2-4q-4.2-1.2-3-8l-3.5-3.5-6-2-1.5-1.5q1.8-.7 1-4l-2-1 2-3-3.5-2.5-3.5-.5-2-7 2-1-4-6 3-4-3-2q.5-3.5-2-4 2-1 0-2l1.5-1.5 2 1 .5-12.5 1.5-1.5 1.5-.5-2-7q4.7-1.3 7-5l-1.5-2.5-1.5-.5-1-2q1.2-2.7 2.5-.5l4 1 1.5-2.5-2-4v-3h2l.5-2.5 1.5.5-.5-1.5-1.5-.5 2-3-1-3 1.5-.5 4 3 4 1 .5-2.5-3-4 .5-.5 2 2 8 4 .5-1.5-2-1v-6q-1.7-.7-.5-2.5ZM427 230v2h-1l-1 2h2q2-1 1-3zm-185.5 2 7.5 6.5 2 3 1 6 2 4q-2.5 1.5 1 3 .8 3.3-1 4l2 1-1 1v15l1 3q-3.5 1.5-1 3l-2 3q2 1 0 2l-1 6-3 5v2l-10 16-7.5 14.5-.5-1.5 2-3-1-1 3-3-1-2 2.5-6.5 2 1q2.5-1 1-2l-1.5-.5-1.5-3.5-3 2-1-2q-3-.5-3.5 1.5l-.5 1.5-2-1-3.5 4.5 1 1 1 6h-1l-2-6v-7l1-1v-5l2-6v-5q4.8-3.2 7-9-.7-3.2 1-4v-11l-2-4 2-4 1-7 2-4v-3l4-12zM229 292l-3 3 1 1 3-1v2q2 3 3 0l-1-1-1-1 2-1zm0 6-2 2 1 1h1z"/><path fill="#9f5215" stroke="#9f5215" d="M412.5 247q2.5 1 1 2l-1.5-.5zm-124 8 .5.5-4.5 4.5-.5-.5zm26 8 .5 2.5h-1zm-2 4 .5 5.5h-1zm-19 12-.5 1.5-.5 1.5-.5-1.5zm2 1 8.5.5-8.5.5zm113 1q2.8 1.3.5 2.5l-.5 1.5zm-136 5 .5 2.5h-1zm-3 2 .5 5.5 1 1q-1 1.5-2-1zm25 0 5.5.5-5.5.5z"/><path fill="#9f5215" stroke="#9f5215" d="m265.5 290 .5 7.5-1 2 4.5 1.5 1.5-.5-2.5 2.5q-1.2-2.2-2.5.5l.5 1.5-1.5-.5-1 2 1 1-2.5 2.5-2.5 1.5q2.3 1.3-.5 2.5l-1.5.5q2 1 0 2l-.5 1.5-1.5.5 1 1-2 2 .5 1.5-1.5.5 1 2-2 1 1 3-2 5v24l1.5.5 5-14 1.5.5-1-2 2-1-1-2h2l-1-2 2-1-1-2 2.5-1.5 4.5 3.5.5 1.5q3-.5 3.5 1.5l-1.5-.5-4.5 3.5-2 3q2.5 1.5-1 3l-2.5 4.5-1.5.5v2l-4 5-1 3 1.5.5 3.5-2.5q-2.5-1.5 1-3l1.5-2.5 1.5-.5-.5-1.5 1.5-.5q-2.2-1.2.5-2.5l1.5-.5q-2.2-1.2.5-2.5l7-5-.5 1.5.5 1.5 4.5-1.5-4-3 1.5.5 6-2v2l2-1 2.5 2.5-1 1 .5 3.5 1.5.5-2 1 1 3-1.5-.5-3 3-1-1-3-1-1.5.5 1-2-2.5-1.5q-2.7 1.3-.5 2.5l1 3-.5 1.5 1.5.5.5 1.5 5.5-.5-.5-1.5 1 1 1-1 1.5.5 3.5-4.5 1.5-.5q-1.8-2.2-1-7l2.5-3.5v2l2-1-.5 1.5 1 1q-.5 3 1.5 3.5l1.5-.5-.5-1.5-1.5-.5 1.5-.5 4 2 1.5-.5-1 2 1.5-.5 1.5.5-2 1 2.5 1.5q.8-1.7 4-1 1 2 5 1l1.5-.5-1 1 2.5 2.5q1.5-2.5 3 1l1.5.5q-.5 3 1.5 3.5l1.5.5-.5 1.5-3 1 .5-1.5-.5-1.5h-2q-1.2 3.2-5.5 3.5l-.5 1.5-1.5-.5-.5-1.5-3 2h-50l-1 1h-41v-1l6.5-.5.5-1.5h3l7.5-4.5 2-4v-4l-4-5q1-1.5 2 1l4.5 5.5 1.5-.5q1-4-1-5v-10l4-10 2-2 7.5-14.5 1.5-.5-1-1 3-3 1.5-3.5 1.5-.5 1-2-.5-1.5 1.5.5-1-2h2l-1-2h2l-1-2h2q-.5-3 1.5-3.5Zm19.5 53-4 2h2v2h2v-1q2-2 0-3Zm7 3v6-4l1-1zm7 5v1h2zm19 6-3 2h4v-1zm-120.5-62 14.5.5-14.5.5zm130 5 4.5 4.5-.5.5-4.5-4.5zm-107 21q2.8 2.7 1.5 9.5h-1l-1-2zm5 5 .5 8.5h-1zm5 5 .5 2.5h-1zm-11 1 .5 4.5h-1z"/><path fill="#9f5215" stroke="#9f5215" d="m286.5 338 3.5 3.5q-2 1 0 2l-.5 1.5-3.5-4.5 1-1zm48 1 .5.5-3.5 3.5-.5-.5zm-105 13 .5 2.5q-1 2.5-2 1zm224 2 5.5 1.5-.5 2.5-4.5-.5zm-129 18 1.5.5-.5 1.5-1.5-.5zm-151 1 1.5.5-.5 1.5-1.5-.5zm81 0q2.5 1 1 2l-1.5-.5zm138 6 .5 2.5h-1zm-325 7 1 1 1.5-.5-1.5 1.5-1.5-.5-3.5 4.5q-1.3-2.2-2.5.5l1 2-3 4 2.5 1.5 4-5 .5.5-2 2-4 6 1 1-3 3-3 9-2 3v3l-2 5-1.5 16.5-2.5 1.5 2 7 3 5q-1 1.5-2-1l-5-12v-5l1-1v-12l1-1v-3l3-9 3-5v-2l8-13h-2l3.5-3.5 1.5.5zm63 3 1.5.5-.5 1.5q-2.5-1-1-2Zm-33 8 54.5.5-15 1 6.5.5 1.5 1.5-3.5 1.5-16.5.5.5 1.5-1.5-.5-.5-1.5-6.5.5 5 1-1 2 2 1-.5 2.5-4.5-.5-1.5-2.5-2-1-.5 2.5.5 1.5-14.5-.5-.5-3.5-1.5.5 1-3-2-3zm123 0 7.5.5-7.5.5zm10 0 34.5.5-34.5.5zm138 0h19l1.5 1.5-1 1-1 10-1.5 1.5-3-1-1 1h-208v-1l204.5-.5-3-1 2-4-.5-1.5 1.5-.5-6-3 4-1-7.5-.5zm-269 13 54.5.5-54.5.5zm197 3 4 5 1.5.5-.5 1.5-4 3-.5-.5 3-3-4-5zm-159 5 2.5 2.5-.5.5-2.5-2.5zm24 1q2.5 1 1 2l-1.5-.5zm-117 6 .5 11.5h-1zm98 4 .5 3.5h-1zm243 0 .5 1.5-2 5 3 5-1 1v7q2 1 0 2l1.5 1.5 4.5 3.5-1.5 4.5-1.5.5 3.5 4.5 2.5.5q.8 3.3-1 4 3.4.1 4.5 2.5l1-2 1 3 1.5-.5-1 3 1.5 1.5 1.5-.5 1 2-1 1 .5 1.5-3 1h-6l-1 1q-1-2-2 0-4 1-5-1-1 2-2 0l-2 1h-23l.5-1.5 10-18v-2l4-7v-2l4-8 2.5-8.5 1.5-.5-1-2h2l-1-3h2zm88 0 .5 3.5h-1zm-420 23 1.5 2.5h-1zm73 17 1.5.5q-1 2.5-2 1zm308 0 2 3 1.5.5q-1.7 1.8-1 6l3 2-2.5.5q-1.5-2.5-3 1l-5-1q-1 2-2 0l-1.5-.5.5-3.5 4 3h5l.5-2.5-3-3 1-1-.5-1.5-2.5-1.5zm-302 17 3.5 4.5h-3l1-2-1.5-1.5-1.5.5zm4 8 1 1 18.5.5-1 2 .5 1.5-2-1-1 1-9.5.5 2 1-1.5.5-2-2-1.5.5 1-1-2.5-2.5q-3.8-.7-2-2Zm198 1 12.5.5-2 3q2.3 1.3-.5 2.5-1-2-2 0l-2.5-.5-.5-1.5-5.5-.5z"/><path fill="#9f5215" stroke="#9f5215" d="m148.5 500 2.5.5-2.5.5zm49 3 56.5.5-56.5.5zm60 0 4.5.5-4.5.5zm10 0 3.5.5-3.5.5zm10 0 2.5.5-2.5.5zm-58 4 1.5.5-.5 1.5q-2.5-1-1-2Zm-130 30 299.5.5-299.5.5zm33 17 2 1 2-1 3 4 2-3q4.6-.6 6 2 1-2 2 0l3-2 1 2 3 1 2-1 3 2 6 1 3 2 9 3h5l1 1 1-1h5l3-1q1 2 2 0l5-1q.8 1.8 4 1 1.5-3.5 3-1l7 1 2-1 7 3 6.5.5-77.5.5-1-1-1.5.5-.5-1.5-1.5.5-.5-1.5-1.5.5.5-1.5-2 1v-2l-4-2-1.5.5.5-1.5-2 1v-2l-2 1v-2l-4-2zm114 12 2.5.5-2.5.5zm9 0 3.5.5-3.5.5zm10 0 2.5.5-2.5.5zm-78 2 2.5.5-2.5.5zm39 0 119.5.5-119.5.5zm26 2h70l1 1 1.5-.5-3.5 3.5-1-1-3.5 3.5-.5 1.5-2 1h-17l-1 1h-63v-1h15l1-1 1 1h7v-1l-6.5-.5 4-1-4-1 .5-1.5 7.5-1.5-4.5-.5-2.5-1.5z"/><path fill="#898680" stroke="#898680" d="m367.5 54 2.5 2.5-.5.5-2.5-2.5zm3 52 .5.5-4.5 4.5-.5-.5zm-79 34 .5.5-5.5 5.5-.5-.5zm107 0 4.5 4.5-.5.5-4.5-4.5zm121 50 2.5 2.5-.5.5-2.5-2.5zm9 9 2.5 2.5-.5.5-2.5-2.5zm-343 16-.5 1.5 1 1-3.5 3.5-.5-.5 3-3q-2.2-1.2.5-2.5Zm64 1 3.5 3.5-.5.5-3.5-3.5zm-70 4 .5.5-2.5 2.5-.5-.5zm44 7 10.5.5-10.5.5zm-9 4 .5.5-2.5 2.5-.5-.5zm54 17 .5 13.5h-1zm-106 1 .5 14.5h-1zm94 4 .5 2.5h-1zm238 10 4.5.5-4.5.5-3.5 3.5-.5 2.5-.5-2.5 2.5-3.5zm-357 13 9.5.5-9.5.5zm-5 2 .5.5-2.5 2.5-.5-.5zm6 0 7.5.5-7.5.5zm453 7 .5 2.5h-1zm-296 5 4.5.5-4.5.5zm-136 2q2.8 1.3 1.5 6.5h-1v-5zm433 0 .5 3.5h-1zm-459 4 2.5 2.5-.5.5-2.5-2.5zm359 1 .5 2.5h-1zm-217 1 .5.5-3.5 3.5-.5-.5zm318 2 .5 4.5h-1zm-387 2 3.5.5-3.5.5zm388 8 .5 7.5h-1zm-100 2 .5 3.5h-1zm53 1 .5 2.5h-1zm24 1 .5 3.5h-1zm-370 3 2.5 2.5-.5.5-2.5-2.5zm294 3 .5 4.5h-1zm53 2 .5 2.5h-1zm-331 6 .5 2.5h-1zm255 0 .5 2.5h-1zm100 1 .5 3.5h-1zm-76 2 .5 3.5h-1zm-345 1 .5 6.5h-1zm56 3 4.5 4.5-.5.5-4.5-4.5zm342 1 .5 20.5h-1zm-76 1 .5 2.5h-1zm24 5 .5 6.5h-1zm-23 6 .5 3.5h-1zm-287 1 .5.5-2.5 2.5-.5-.5zm385 10 .5 2.5h-1zm-358 4 .5 2.5h-1zm261 0 .5 4.5h-1zm-381 4 119.5.5-119.5.5zm477 7 .5 2.5h-1zm-496 29 .5.5-2.5 2.5-.5-.5zm-12 23 .5 9.5h-1zm412 1 .5 4.5h-1zm-1 16 .5 2.5h-1zm-360 27 2.5.5-2.5.5zm261 78 79.5.5-79.5.5zm-210 22 4.5 4.5-.5.5-4.5-4.5zm146 5 .5.5-2.5 2.5-.5-.5z" opacity=".98"/><path fill="#c8c4be" stroke="#c8c4be" d="m399.5 63 .5 2.5h-1zm1 6 .5 2.5h-1zm-21 8 .5 3.5h-1zm22 4 .5 14.5h-1zm-22 2 .5 3.5h-1zm25 63 2.5 2.5-.5.5-2.5-2.5zm-190 36 3.5.5-3.5.5zm39 0 3.5.5-3.5.5zm317 35 2.5 5.5h-1l-2-4zm-60 13 6.5 6.5-.5.5-6.5-6.5zm-15 32 2.5.5-2.5.5zm91 0 .5 2.5h-1zm-87 1 7.5 6.5 4 7q-1 1.5-2-1-2.6-7.4-8.5-11.5-2.4-.1-1-1Zm-10 6 .5 2.5h-1zm99 2 .5 2.5h-1zm-99 6 .5 4.5h-1zm100 0 .5 2.5h-1zm1 5 .5 3.5h-1zm-100 4 .5 3.5h-1zm-360 2 .5 2.5h-1zm461 1 .5 3.5h-1zm-100 4 .5 3.5h-1zm51 3 .5 3.5h-1zm50 0 .5 5.5h-1zm-397 1 16.5.5-16.5.5zm376 1 .5 2.5h-1zm-79 3 .5 3.5h-1zm51 0 .5 3.5h-1zm-394 1 2.5.5-2.5.5zm423 2 .5 3.5h-1zm21 2 .5 6.5h-1zm-49 1 .5 4.5h-1zm-51 1 .5 3.5h-1zm-289 1 .5 2.5h-1zm367 2 .5 2.5h-1zm-26 2 .5 5.5h-1zm28 0 .5 3.5h-1zm-458 1 1.5 2.5h-1zm103 2 .5 3.5h-1zm276 0 .5 4.5h-1zm100 4 .5 20.5h-1zm-48 1 .5 4.5h-1zm26 2 .5 2.5h-1zm-77 2 .5 5.5h-1zm53 0 .5 2.5h-1zm-395 7 .5 2.5h-1zm63 3 .5 2.5h-1zm280 1 .5 6.5h-1zm-22 9 .5 2.5h-1zm-277 5 3.5.5-3.5.5zm300 0 .5 6.5h-1zm-329 5 3.5.5-3.5.5zm19 2 .5 2.5h-1zm288 2 .5 2.5h-1zm97 4 .5 4.5h-1zm22 2 .5 10.5h-1zm-96 3 .5 8.5h-1zm-22 14 .5 30.5h-1zm117 1 .5 4.5h-1zm-94 4 .5 3.5h-1zm93 6 .5 3.5h-1zm-1 8 .5 2.5h-1zm-1 6 .5 2.5h-1zm-115 25 .5 2.5h-1zm-1 14 .5 2.5h-1zm-442 30 3.5 3.5-.5.5-3.5-3.5zm4 5L50 494.5l-.5.5L36 481.5zm61 9 2.5.5-2.5.5zm-45 6 9.5 9.5-.5.5-9.5-9.5zm502 2 .5.5-3.5 3.5-.5-.5zm-5 6 .5.5-15.5 15.5-.5-.5zm-69 12 5.5.5-5.5.5zm51 5 .5.5-2.5 2.5-.5-.5zm-442 14 50.5.5-50.5.5zm397 10 .5.5-5.5 5.5-.5-.5zm-6 7 .5.5-5.5 5.5-.5-.5zm-407 3 5.5 5.5-.5.5-5.5-5.5zm7 6 2.5 2.5-.5.5-2.5-2.5zm391 0 .5.5-3.5 3.5-2 1q-1.5-1 1-2zm-18 8 2.5.5-2.5.5zm-45 1 40.5.5-40.5.5zm-14 1 4.5.5-4.5.5zm-224 4 3.5 3.5-.5.5-3.5-3.5zm138 3 .5.5-2.5 2.5-.5-.5zm-134 24 2.5.5-2.5.5zm132 0 2.5.5-2.5.5zm-124 1 19.5.5-19.5.5zm114 0 5.5.5-5.5.5z" opacity=".996"/><path fill="#cf7b24" stroke="#cf7b24" d="M251.5 207h187l1.5 1.5-1.5-.5h-187zm10 20 5.5 8.5q-1 1.5-2-1l-4-7zm7 12 1.5 3.5h-1zm2 5 1.5 3.5v15l-1 1v7l-1 1-.5 5.5-.5-5.5 1-1v-7l1-1v-15q-1.9-.9-.5-3.5Zm22 5 7.5.5-7.5.5-4 2-9 9-.5-.5 3-3 1.5-2.5 2.5-1.5.5-1.5zm9 1q8.3 2.2 12.5 8.5l2 5v12l-2.5 2.5-.5-.5 2-2v-12l-2-5-4.5-4.5-5-3h-2zm-7 3 4.5.5-4.5.5z"/><path fill="#cf7b24" stroke="#cf7b24" d="m291.5 254 1.5.5q-6.1 1.9-9 7l-6.5 12.5-.5-1.5 6-11 6.5-6.5zm9 0 4 1 4.5 3.5 3 6v10l-5.5 4.5v-1l4.5-3.5v-10l-1-3-5.5-5.5-4-1zm-23 10-.5 1.5-1.5 2.5.5-1.5zm-22 2 .5 2.5h-1zm19 3 .5 1.5-1.5 2.5-.5-1.5zm-19 1 .5 4.5h-1zm17 4 .5 1.5q-1 2.5-2 1zm4 1 .5 1.5-2 2-.5 4.5-.5-4.5zm-6 3 .5 3.5h-1zm23 0 .5.5-2 2 1.5 2.5 12.5.5-12.5.5-2.5-3.5z"/><path fill="#cf7b24" stroke="#cf7b24" d="m295.5 279 9.5.5-9.5.5zm16 0 .5.5-3.5 3.5-1.5-.5zm-42 4 .5 2.5h-1zm4 1 .5 4.5h-1zm-8 3 .5 1.5-1.5 2.5-.5-1.5zm29 0 5.5.5-5.5.5-1 1h-5v-1q4.8 1.2 6-1Zm7 1 5.5.5-5.5.5zm-33 1 .5 3.5h-1zm17 0 1.5.5q-9 3-14.5 9.5l-.5-.5 4.5-4.5zm24 0q6.1.9 9.5 4.5l-1.5-.5-8-3zm-37 1 .5 3.5h-1zm48 4 5.5 4.5-.5.5-3-3q-3.8-.7-2-2Zm-60 4 .5 1.5q-1 2.5-2 1zm67 1q6.4 3.6 8.5 11.5h-1l-2-5-6-6zm-58 1 .5.5-3.5 3.5-.5-.5zm-5 6 .5.5-2.5 2.5-.5-.5zm106 3 1.5.5-2 3v2l6 4 1.5 2.5 1.5.5-1 3 1 3-2 1 3 2-1 3 3 2-1 1 2 2-.5.5-1-1-1.5.5.5-1.5-1.5.5-1 2 1 2-3-1-1.5 2.5q-1.2-2.2-2.5.5-.7 3.3 1 4l-1.5-.5-2.5 1.5q.8 5.3-2 7l3.5 2.5 1.5-.5-1 2 1.5 1.5 1.5-.5 1.5 2.5 1.5.5-2.5 1.5-1-1-1.5.5-.5-3.5q-1 2-2 0l-3 1-.5-1.5 1-2-1.5.5-2.5 1.5 1 2-.5.5-2-2-1.5 1.5-.5 1.5q-3.2 2.3-10 1l-3-4-4.5-3.5 2-1-.5-2.5-1.5-.5 3.5-2.5 1 2 1-2 2.5-.5-.5-2.5-3 1-1.5-2.5 7-4 1-2-3-2-1-2 5-1 2.5-5.5 1.5.5.5 5.5h8l2.5-1.5-3-2-.5-1.5-1.5.5.5-6.5q4.5 1 5.5-1.5l-1.5-.5-1 1-1-1-1.5.5q2-1 0-2l2-2v-4zm34 0q1 2 2 0l2.5 2.5.5 2.5 2.5.5q-2 1-1 5l1.5 2.5 1.5-.5v6l1.5 3.5 4.5.5 2 3 1 5-2 3 1 3-1 6-1 1 4.5 6.5 1.5.5q.7 3.3-1 4 1.7.8 1 4l-.5 1.5q5.5 1 8-1l2.5 1.5 1 5q-1.7.8-1 4l1 3 2.5 2.5 1-2 2.5-.5.5-5.5 2.5 3.5-2 3 3.5.5 3-2 .5 2.5-1.5-.5-1.5.5q1.8.8 1 4h-1l-1.5-2.5-1.5.5 1.5 4.5 2.5.5.5 1.5 2.5.5-2.5 1.5-1-2-3 1-2-3-.5 3.5 3 2-4 2 2.5 1.5 1.5-.5-.5 2.5h-2q-1.1 2.4-4.5 2.5l2 1-4.5.5-.5-1.5 2-1-2.5-3.5-1.5-.5q2-1 0-2l1-2-1-2 1-1v-10l-3-1 2-1-6.5-5.5h-5l-3 1v-1l2.5-1.5-3-2 1-6-2-4 1-2-4-3q2-1 0-2l-3.5-6.5-2.5-1.5 1.5-.5q1.3 2.3 2.5-.5l-.5-1.5-3 1q-2.5-1-1-2l2.5-1.5-3-2q.8-3.7-1.5-4.5l-2 1v-1l1.5-.5 1-3-2-3 1-2-2-4 2-1 1-6q-2-1 0-2l-.5-1.5-3.5-.5zm-68 3 4.5 12.5v7q-3.6 9.4-11.5 14.5l-7 4h-3v-1h3l7.5-4.5.5-1.5 4.5-3.5 5-8-1-3q1.8-.7 1-4l-4-11zm-63 5 1.5.5-4 3-1.5 2.5.5-1.5zm2 2 3.5 6.5q-1 1.5-2-1l-2-4zm-8 7-.5 1.5-2.5 5.5-.5-1.5zm12 1 6.5 10.5-.5 1.5 12.5 7.5-1.5.5-5-3-1 2-.5-1.5.5-1.5-6.5-4.5q2.5-1.5-1-3l-3-5zm-1 10 4.5.5-4.5.5zm67 0 .5 1.5-2.5 1.5-.5-.5zm-73 2 1.5.5-3.5 2.5-.5-.5zm6 2q6.4.1 8.5 4.5l-.5 2.5q-.2-3.8-3-5l-5-1-2 1v-1zm-6 3 .5.5-4.5 4.5-.5-.5zm-6 1 .5.5-2.5 2.5-.5-.5zm205 0 .5 2.5h-1zm-168 4 3 1 11.5.5-11.5.5-3-1z"/><path fill="#cf7b24" stroke="#cf7b24" d="m405.5 352 4.5 2.5-1 3 2.5.5 1.5-.5-1 3 1 2-1 3q2.2 1.3-.5 2.5l-1.5-.5-2-3v-3l-3-3 3 1q1-4.5-1.5-5.5l-1.5-.5zm5.5 8-1 3h1zm-132.5-5 2.5.5-2.5.5zm194 2 .5 4.5h-1zm-195 2 5.5.5-5.5.5zm-19 7 122.5.5-122.5.5zm186 2 1.5.5-.5 1.5-1.5-.5zm29 6 .5 16.5h-1zm-34 1 2.5 1.5-.5 1.5-3 1-.5-1.5zm-46 6 .5 2.5-1 1v9h2l-1 2q2 1 0 2l2 12-1 2 2 1-2 1 1 3v5l1 1-2.5.5-.5-2.5 1-3-2-3q1-4-1-5l2-1-.5-2.5-1.5.5 1-2-1.5-3.5-.5 5.5-1 1-1.5 7.5-.5-3.5 1-1v-4l2-6v-6l1-1v-9zm-.5 14-1 6h1zm80.5-2 .5 2.5h-1zm-26 8 .5 2.5-2.5.5-.5-1.5h2zm26 14 .5 5.5h-1zm-86 1 .5 2.5h-1zm-1 4 .5 2.5h-1z"/><path fill="#e8bc6c" stroke="#e8bc6c" d="M338.5 47h10l1 1 6 1q8.3 3.2 13.5 9.5 4.1 4.4 6 11h-1l-3-7-5.5-6.5-4-3-9-4q-4 1-5-1h-9q-.7 1.7-4 1v-1q3.3.8 4-1Zm-85 191 .5 1.5q-1 2.5-2 1zm1 3q2 .5 1.5 3.5h-1zm-41 7 3 1 1.5-.5-1 1 3.5 3.5q1.3-2.3 2.5.5-2 1 0 2l4.5 8.5 1.5-.5-1 2 1.5 3.5 1.5.5v6l-3.5 10.5-1.5.5-.5 1.5-5 4-7 3h-19l-7.5-2.5-.5-1.5-1.5.5-1.5-2.5-1 1-6.5-6.5-1.5-2.5-1 1-2.5-2.5 1-2h-2l1-2h-2l1-2-2.5-3.5-1.5-.5 1-2-2-1 1-1 .5-8.5 1 6 2-3 .5 1.5q-3.7 1.8-.5 3.5l3-2 1 4 3.5.5 2.5 3.5 2 1 1-2 1.5.5 1.5 3.5 3.5.5.5 1.5 6 1 1.5 1.5.5 1.5q1.5-3.5 3-1 3.5-.5 4 2l2-2q4.3.8 5-2l2 1 3.5-1.5.5-2.5 1.5.5-.5-2.5-2.5-1.5 1-7-3-3q1.3-4.7-1-6l2-1-2-1zm12.5 31v2l-2 3q-2 1 0 2h-1l-1-2-4 6 3 1 6-6 1-4zm-16 10-2 4-3 1h7l1-2zm7 2v1h2zm-52.5-41 .5 10.5h-1zm94 3q-.1 5.1 3.5 6.5l1 3v6l1 1-1 1v7l-2 6 1 1q-3.5 1.5-1 3l-1 4-3 3v3l.5 1.5q-1.2-2.2-2.5.5l-.5 1.5-1.5-.5 1 2-1.5 2.5-1-2-1.5 3.5q2 1 0 2l1 2-1.5-.5-1.5 1.5v2l-3 5 .5 1.5-1.5-.5 1 2h-2l1 2h-2l-1 2 .5 1.5-1.5-.5-3 6-1 6q1.8.7 1 4l-1.5.5-1-2-1 2-.5-1.5 1-1 1-10-.5-1.5 1.5.5 2-4-.5-1.5 1.5.5 2-6-.5-1.5q1.3 2.3 2.5-.5l1-2-.5-1.5 1.5.5-1-2h2l-1-2h4l-1-2 1-2-.5-1.5 1.5.5 4-9-.5-1.5 1.5-.5-1-2 2-2q-2-1 0-2l3-16q-2-1 0-2v-12q-2.1-1.1-.5-4.5Zm6 57 1 1 1.5-.5-1.5 1.5q-2.5-1-1-2Zm24 0 1.5 5.5 3.5 5.5 3.5 2.5 1.5 2.5q1-2 2 0h2l4 3 10.5-4.5.5-1.5 3 2 1-2 3-1h5l5-2 1 3 1.5-.5-1 2 1 1v6l-5.5 8.5-6 4v-1l6.5-4.5 2-4-.5-.5-2 2-1-1-1.5.5-.5-1.5-1 3-4-1-.5 1.5.5 1.5-2-1-.5 1.5 3 5q-1 1.5-2-1l-.5-1.5-1.5-.5-.5-1.5-1.5-.5-.5-1.5-1 1-8 1q-1-2-2 0l-4-3q-1.5 2.5-3-1l-8.5-4.5-.5-1.5-3 1-2-2-.5.5 3 6 4.5 4.5 10 5h3l6 2q1.3-2.2 2.5.5l-4.5.5q-1-2-5-1l-12-6-6.5-6.5v-2q-3.7-2.8-4.5-8.5l-1.5-.5q2-1 0-2l-1-6-1-1 1.5.5 1-1 3 1 3.5-1.5q-.5-3 1.5-3.5Zm-14 1 1.5.5-2 1q2.3 1.3-.5 2.5-1.2-2.2-2.5.5l-3.5 5.5-1.5.5v2l-4 6v2l-2 3v2l-4.5 10.5-1.5-.5v-8l1-1-1-2 1-1 1-7 2-2-.5-1.5 1.5-.5-1-2h2v-2l3-5-.5-1.5 3 1zm-84 14 2.5.5-2.5.5zm-3 2 1 4 1.5-.5-1 2q2.3 1.3 1 6l-1 1-1 6-1.5 1.5.5-1.5-.5-1.5-5.5.5-1 6 1.5.5 4-3q1.5 1-1 2l-6 4h-5l-1-1h-7l-7.5-4.5-1.5-4.5-1.5.5 1.5-1.5 7.5-1.5.5-1.5 1 1 7 1 8.5-6.5 2.5-4.5 1.5-.5z"/><path fill="#e8bc6c" stroke="#e8bc6c" d="m233.5 331 .5 2.5h-1zm-80 4 .5 3.5h-1zm162 11 3.5.5-3.5.5zm-161 63 47.5.5-47.5.5zm138 0 9.5.5-9.5.5zm11 0 56.5.5-56.5.5zm-142 129 78.5.5-78.5.5zm83 0 3.5.5-3.5.5zm10 0 2.5.5-2.5.5zm18 0 5.5.5-5.5.5zm9 0 5.5.5-5.5.5zm8 0 48.5.5-48.5.5zm88 0 11.5.5-2.5 1.5-1-1h-8z"/><path fill="#f0daa6" stroke="#f0daa6" d="m211.5 206 1 1h14l1 1h7l3 1 1.5-.5-.5 1.5 2-1-.5 1.5 2.5 2.5 3 2 1.5-.5q-2.2 1.3.5 2.5l4.5 3.5 4.5 5.5 1.5.5q-2 1 0 2l.5 1.5 1.5-.5q-2 1 0 2l.5 1.5 1.5-.5q-2 1 0 2l.5 1.5 2.5 1.5-1 3h2l-1 2 2 4v15q1.8.8 1 4l-1 1-1 9-1 1 1 2-2 1v5l-4 8v2l-2 2-4 9-4 5-3 7-6 9-3 6-1 6-2 4 1 3h-1l-2-5v-6l1-1 1-6 3-3v-2l3-6 3-3 9.5-18.5-.5 1.5-2 6q1 1.5 2-1l.5-1.5 1.5.5 2-3v-3l3-3 1-4-1-1q3.5-1.5 1-3l2-6v-7l1-1-1-1v-6l-1-3-2.5-2.5-1 13-1.5-17.5-3-6-1-6-7.5-8.5-1.5-.5-.5-1.5-1.5.5-.5-1.5-3-1-1.5.5-.5-1.5-2 1-1-2-12.5.5 2 1-1.5.5-3-1-2 3-1-1-3.5 3.5-1 2v9l14 13 3 5 2 7h-1v-2l-6-11-6.5-6.5-3-1-.5 4.5 2 1-2 1q2.3 1.3 1 6l3 3v3q-1.7.8-1 4l3 2-.5 2.5-1.5-.5-.5 2.5-4 1q-1.5-2.5-3 1-4.2-.7-5 2l-5-3-2 2-.5-.5-1.5-2.5h-3l-3.5-1.5-.5-1.5-3.5-.5-1.5-3.5-1.5.5-.5 1.5-4.5-3.5-.5-1.5q-3.2-.7-4 1l.5-1.5-.5-3.5-3 2-2.5-2.5-.5-5.5-1 9-.5-19.5 2.5-6.5 1.5-.5q-2.5-1.5 1-3l1-2-.5-1.5 2.5-1.5-.5-1.5 8.5-7.5.5-1.5 1 1 5-5 1.5-.5-.5-1.5q1 2 2 0l3.5-1.5-.5-1.5 2 1v-2l2 1v-2q1 2 2 0h4l4.5-1.5-.5-1.5q.8 1.7 4 1zm44.5 36-1 3h1zm3 11-1 4h1zm-12 57-12 21q1 3-1 5l1 5 1-2 1-6 11-19q1-3-1-4Zm-79.5-40 4.5 8.5 8 9-.5.5-5.5-5.5-7-11z" opacity=".996"/><path fill="#f0daa6" stroke="#f0daa6" d="m258.5 271 .5 2.5h-1zm35 20q1.2 2.2 6 1l1-1 1 1 1-1 1 1 1.5-.5.5 1.5 3-1 5 3 1.5-.5.5 1.5 1.5-.5.5 1.5 2.5.5.5 1.5 1.5-.5 3.5 4.5 1-1 2.5 2.5.5 2.5 1.5.5 1.5 5.5 1.5.5q-2.5 1.5 1 3l1 6h-1l-.5-2.5-1 1-9 1-3.5 1.5-.5 1.5-3-2-1 2-4.5 1.5.5 1.5q-1-2-2 0-3.2-.7-4 1l-7-4q-1.2 2.3-2.5-.5l-2.5-3.5-2.5-1.5-3.5-9.5-2 4-4 1-2-1v2l-1.5-.5 1 5h-1l-2-6-1.5-1.5-4 3-.5-.5 3-3-.5-.5h-3l-6 3q-1.2-2.2-2.5.5l-3.5 8.5-.5-1.5 3-7 10.5-13.5 1.5.5.5-1.5 2.5-1.5.5-1.5h2l3.5-2.5.5-1.5 1.5.5.5-1.5 3-1q1 2 2 0 3.3.8 4-1Zm-122 21 2 1h14l1.5-.5.5 1.5q4.1-.6 5.5 1.5l.5 1.5q1.3-2.2 2.5.5l.5 1.5q4-.5 4.5 2.5l2.5 3.5 1.5.5q-2.5 1.5 1 3l2.5 4.5 1.5.5-1 2 2 1-1 1 .5 1.5-5-5q-1.2 2.2-2.5-.5l-2.5-3.5-1.5.5-.5-1.5q-1 2-2 0l-4-2h-5l-.5 3.5 1 2h-1l-1.5-5.5-3 4-1.5.5-4.5 6.5-6 4h-2l-6-2-1 2-7.5 1.5 2 3q-1 1.5-2-1l-2-3v-8q2-1 1-5l-.5-1.5 1.5-.5 2-4q-2.2-1.2.5-2.5l1.5.5 3.5-4.5 1.5-.5-.5-1.5 2 1v-2l2 1 3.5-1.5zm19.5 13v1h2zm63.5 22 .5 2.5h-1zm340 14 .5 3.5h-1zm-454 174 2.5.5-2.5.5z" opacity=".996"/><path fill="#f5f3f0" stroke="#f5f3f0" d="M331.5 23h24q1 2 5 1l6 2 11 6 9.5 8.5 6 8 5 10v3l2 5v5l1 1v23l1 1v4l1 1 1 6 4 7 9.5 11.5 1.5.5 20.5 21.5 9 5q3.2-.7 4 1h31q1-2 2 0h10l1 1q1-2 2 0h4l1 1 7 1 12 6q12.6 7.9 22.5 18.5l14 17 11 18v2l9 19 3 9v3l2 4 1 7 3 9v4l1 1v5l1 1q-1.2 4.7 1 6v6l1 1v8l1 1v10l1 1v27l1 1v19l-1 1v21l-1 1v8l-1 1v8l-1 1-1 11-1 1v4l-1 1v4l-1 1-2 11-2 4v3l-4 12-13 28-7 11q-11.7 15.8-26.5 28.5l-8 6-11 6-15 5-8 4-9.5 8.5-8.5 10.5-9 6-6 2h-4l-1 1h-44l-1 1h-13l-1 1-8 1-9 3-19 10h-2l-8 4-6 1-15 5-3 2-9 3h-3l-1 1h-4l-1 1h-9l-1 1h-93l-1-1h-24q-1.2-2.3-6-1l-25-9h-3l-1-1h-3l-4-2-6-1-21-10-2-2-17-9-10-7-6.5-6.5-6-10v-9l-1-3 1-1v-14q-2-1-1-5l-4-7-9.5-9.5L36 480.5l-9-13-5-12-1-10-1-1v-27l1-1 1-10 6-14q7.2-12.3 17.5-21.5l17-13 17-9 6-2h3l1-1 18-2 8-3 4.5-4.5 2-7-1-1-1-7-12-20-1-9-1-1v-6q2.3-1.2 1-6l4-10 10.5-11.5 12.5-10.5 3-4 7-14v-2l12-22 1-6 1-1v-4l1-1v-7l1-1q-2-1 0-2-1.2-4.8 1-6-2-1 0-2l3-9 7.5-7.5 9-4h6q.8-1.7 4-1l3 1h9l1 1h5l1 1q4.8-1.2 6 1h8q1 2 5 1l1-1h6l3-2h2l9-6 8.5-8.5 16-18 8-13 2-6v-5l1-1v-28l1-1 1-8q6.1-17.4 19.5-27.5l9-6h2l9-4h4zm5.5 22-1 1-6 1-7 4-10 10-4 8-1 6-1 1v13l1 1v3l2 6 3 5q7 9 19 14l-10 2-12 6-15 11-17 18-12 17-4 8-2 2h-6l-1 1h-34l-1-1h-7l-6-2h-4l-11-4q-7-1-9 3l1 6 2 4v3l2 4 1 8 2 3 1 5-9 7-13 14-5 11q1 3-1 5v16q2 0 1 4l4 6 2 6 3 1v2l8 7 7 4 9 3h16l1-1 2 7v1l-5-3-5 1-4 7 1 1q-1 4 1 6l4 2q6 1 8-1v-3l-6 2q-6-2-4-10l3-2 7 3 3 6v13l-1 1v7l-1 2-2-4-5-8q-7-10-19-15h-19l-7 3-9 9-3 5q1 3-1 5v8q2 0 1 4l4 6 5 3 8 3h11l5-3q4-3 6-8l2-16 9 4 6 5 7 11v10l-2-2-9-9h-8l-5 3-4 5v4l5 5h5l6-4v-3l-6 4h-5l-2-2 1-5 3-3 3-1q5-1 8 1 5 3 7 10h2v5H95q-3 1-2 6l-2 1h-3l-6 2-16 9q-10 8-17 19l-5 11-1 8-1 1v16q2 0 1 5l5 13 6 9q7 9 18 15l8 4 9 3h3l1 1h4l1 1h18q1-2 6-1l7-3 11 16 21 20 17 13h-29q-1-2-2 0-4 1-4-1H90l-2 1-1 3 7 4 36 19 2 2 9 4 2 2h22l13 12h127l14-12h18l38-21h80l2-2 1-3v-3l2-4 2-11 1-1v-4l3-8 4 2q3-1 4 1h6l1 1 12-1 1-1 6-1 9-4 9-6 18-19 8-12 10-20v-2l2-3 6-18v-3l2-4 2-11 1-1 1-10 2-6v-6l1-1 1-19 1-1v-44l-1-1v-11l-1-1v-7l-1-1v-5l-1-1v-5l-2-6v-4l-3-9v-3l-1-1v-3l-6-18-4-8v-2l-11-21-10-14q-9-11-20-19l-12-6-7-1-1-1h-17l-1 1h-4l-6 2-14 8-12 10-14-25-17-23q-11-14-26-23l-10-5-9-3h-3l-2-1 9-5 6-6 4-6v-2l3-6v-4l1-1v-9q-2-1-1-5l-3-6v-2l-4-6q-6-8-15-12l-6-2zM138 276l-5 2-5 6v9l2 4 6 5 5 2q3-1 4 1h12l3-3 1-3v-5l-2-2-1 7-2 3h-10l-9-3-6-6q-1-7 1-10l3-3 3-1h12l6 2 18 13 5 6 2-1-1-2-2-2-1-1-13-11-10-6h-6l-1-1zm434 22-1 3h1zm1 6-1 4h1zm1 9-1 4h1z" opacity=".996"/><path fill="#f5f3f0" stroke="#f5f3f0" d="M212.5 206h15l1 1h6l3 1 4 2 12.5 11.5 3 4-.5.5-4.5-4.5-3.5-4.5-9-7-5-2h-7l-1-1h-14l-9 3h-4l-2 2-10 5-5 5-.5-.5 5.5-5.5 10-5 2-2h4zm266 13h8q1 2 5 1l12 5 16.5 15.5 7 10 8 16v2l2 3 3 9v3l2 4 1 7 1 1v4l2 6v5l1 1v6l1 1v9l1 1v36l-1 1v10l-1 1v5l-1 1-1 11-1 1-2 11-6 18-10 20-9 12-6.5 6.5-10 7-8 3q-3.2-.7-4 1h-12l-4.5-1.5q-.7-3.2 1-4v-8l1-1v-9l1-1v-13l1-1v-21l1-1v-30l-1-1v-22l-1-1v-13l-1-1v-9l-1-1v-7l-1-1v-7l-1-1v-6l-1-1-1-12-1-1v-4l-1-1v-4l-1-1v-4l-1-1v-4l-1-1v-4l-1-1-3-15-2-4v-3l-6-18 4.5-4.5 9-6h2l6-3h4zm17.5 43-2 1-4 4-1 3v12l1 1 1 14 1 1 1 14 1 1 1 18 1 1v11l1 1v13l1 1v19l1 1v13l1 1v4l2 5 5 3 5-1 5-7v-2l3-6 2-11 1-1 1-12 1-1v-10l1-1v-11q-2-1 0-2l-1-3v-9q-2-2-1-6l-1-1v-5l-2-5v-4l-2-5v-3l-4-12-2-3v-2l-6-11-6-7zm47 34-1 4h1zm1 5-1 5h1zm1 6-1 5h1zm1 6-1 7h1zm1 8-1 5h1zm-366.5-99 .5.5-7.5 7.5-.5-.5zm41 4 12.5.5-12.5.5-4 2q-1.5-1 1-2zm36 1 5.5 8.5h-1l-5-8zm-19 1 3.5 1.5-1.5.5-2.5-1.5zm-23 1 .5.5-3.5 3.5-.5-.5zm48 8 1.5 1.5v2l3 6v15h-1v-15l-4-9zm3 33 .5 3.5h-1zm28 21 5.5.5-5.5.5zm28 8 3.5 3.5-.5.5-3.5-3.5zm-149 13 14.5.5-14.5.5zm-4 1 2.5.5-8.5 3.5-3.5 3.5-4.5 7.5-.5-1.5 8.5-10.5zm34 9 2.5 2.5-.5.5-2.5-2.5zm3 4 4.5 6.5q-1 1.5-2-1l-3-5zm-52 3 .5 4.5h-1zm48 1 2.5 2.5-.5.5-2.5-2.5zm5 4 4 4q1.3-2.2 2.5.5l1 4q-1 1.5-2-1l-6-7zm-113 59 .5 7.5 1 1 1 9 1 1 1 8 3 8v3l5 15 11 24-4.5.5-1 1h-12l-1-1h-4l-6-2-8-4-9.5-8.5-4-6-4-10v-16l5-12 9.5-10.5 6-4z" opacity=".996"/><path fill="#bb7730" stroke="#bb7730" d="m320.5 55 .5.5-2 2 1.5 1.5 5.5 3.5.5 1.5 1.5.5v2q3.3 1.2 3.5 5.5h2l2 2 4.5 1.5.5 1.5 4 3h4l2 2 6 1 2-2q6.5 1.5 8-2l8.5-.5.5-1.5.5 11.5 1 2-3 8-4.5 5.5-.5-.5 2-2 2-4-2-1-2.5-3.5-2.5-1.5-.5-1.5h-6l-6 2-1-1h-7l-2-2h-3l-5.5-3.5-.5-1.5-1.5-.5-2.5-3.5-2-1q-1.5 2.5-3-1l-10 2-4 3-1.5-.5 1 3v5h-1q.8-3.2-1-4v-6l1-2-1-2 2-3q-2.5-1.5 1-3l1-3-.5-1.5 1.5-.5-.5-1.5 1.5.5 1-2-.5-1.5 1.5.5 2-3-1-1zm57 24 .5 4.5h-1zm-127 128 .5 2.5h-1zm15 1h112l3 1q1.3-2.2 6-1 .8 1.8 4 1 1-2 5-1 .8 1.8 4 1 1.2-2.2 6-1 1 2 5 1l1-1h26l2.5 1.5.5 2.5 1.5.5-2 1 .5 1.5 1.5-.5-1 1v6l2 1-.5 1.5-10-6-.5 1.5 3 3v2l-2.5 1.5v-2h-2l-5-3-.5 2.5 1 2-2 2 .5.5 1.5.5.5 1.5 1.5.5q.5 3-1.5 3.5l-1.5-.5.5-1.5 1.5-.5-2.5-2.5-.5.5-.5 2.5-1.5-.5v3l2 5q-.5 2-3.5 1.5l-3-2q-2.7 1.3-.5 2.5l.5 1.5 1.5.5 1 2q-2.3 3.7-7 5l2 7-3 2-.5 12.5-2-1-1.5 1.5q2 1 0 2l2 2q-.5 3 1.5 3.5l1.5.5-3 4 4 6-2 1 2.5 7.5h3l3.5 2.5-2 3 2 1q.8 3.3-1 4l1.5 1.5 6 2 3.5 3.5v5l3 4q-2.6 1.4-2 6l3 2 2.5 4.5 7.5-6.5.5-2.5 1 2 3.5 1.5q-.7 3.3 1 4v8l1 3-2 1 .5 1.5 7-2q2 .5 1.5 3.5l-1 2 4 1-1.5 4.5-3.5 2.5 1.5 3.5 1.5-.5.5-1.5 3-1-.5 1.5q.8 4.8-1.5 6.5l-1.5.5 4 2-1.5 3.5-1.5.5-.5 3.5-2-1-.5 1.5q1.3 2.7 2.5.5l2-1-.5 1.5 1 4-2 1 1 6-2 1q3 1 2 6l-1 1v4l-3 9 1 2-3 2-1 5q1.8.8 1 4l-2 3v2l2 4v3l-2 1q-.7 4.2 1 6l-2 1-1 2q2 1 0 2 .5 4-2.5 4.5l-1.5.5-.5 1.5-2.5 1.5q1.8 2.2 1 7l-1.5.5-1-2-3.5 3.5v2l1 1-.5 1.5 2.5.5-1.5 2.5q-1.2-2.2-2.5.5l.5 3.5 2.5.5q-2.2 1.3.5 2.5l3-1q2.5 1 1 2l-51.5-.5 6.5-.5 3.5-1.5-1-3-.5-1.5q-1.2 2.3-2.5-.5l1-3h-2l-.5-2.5-1 2q-1.1-2.4-4.5-2.5 1.8-.7 1-4-3.8-.2-5-3l-1-2 2-1 1-4-6-5q2-1 0-2-1.2-6.2 1-9l-4-6h2l-1-3h2l-2-3 2-1-1-2 2-2 1-6-.5-1.5 1.5-.5q.8-3.3-1-4h2l1-9-.5-1.5 1.5.5.5-5.5.5 5.5-1 3 2 3v2l-2 1 1 1v4l2 3v2l-1 3 2.5.5-.5-1.5v-5l-1-3 2-1-2-1 1-5-1-1v-5l-1-3q2-1 0-2l-1-2v-9l-1-2h1l.5 1.5.5-13.5 1-1-2.5-3.5h-66l-1-1-1 1h-7l-2-1-1.5.5.5-1.5h2l3-3h2l.5 1.5-.5 1.5 3.5-1.5-.5-1.5-2.5-1.5-.5-2.5-3-2-1 1-3-3-8-1-2 1-2.5-3.5h1l.5 1.5 2-1 1 1h10l1 1 1-2 4.5-.5-.5-1.5 2 1v-2l2 1 3.5-2.5-.5-1.5 1 1 7.5-7.5 2-5-.5-1.5 1.5.5-.5-7.5-1 4-.5-3.5 1-3-1-1-1-6-4.5-9.5-1.5.5 1-1-5.5-5.5-1.5.5-3.5-4.5-9-5-4-1-2 1-1-2q-4.7-1.3-6 1l-1-2h-5l-1 1-5.5.5-.5 1.5-2-1-6.5 3.5.5 1.5q-1-2-2 0l-1.5.5.5 1.5-1-1-3.5 3.5-.5 1.5-6.5-.5q2.2-2.8 1-9l-.5-1.5 1.5-.5-1-2 2-1-1-2 1-2-.5-1.5 3.5 2.5-3 1 2 3q-2.6 1.4-2 6l2.5 2.5 1-1 1.5-.5q.7-3.2-1-4l2-1q1-4-1-5l2-1v-4l2-3-.5-1.5 1.5-.5q3.4-11.1 11.5-17.5l1.5-.5-.5-1.5 2 1 1-2q1 2 5 1l1.5-.5.5 1.5q4.4.2 6 3l1.5-.5q-2.2 1.3.5 2.5l1.5-.5q-2 1 0 2l.5 2.5 1.5-.5-1 1v10l-3.5 3.5-1.5.5-.5 1.5-1-1h-9l-1.5.5-.5-1.5-2.5 3.5 2.5 2.5h12l1-2 2 1 4-5 2.5-1.5-.5-1.5 1.5.5v-12l-1.5-3.5-1.5.5 1-2h-2l1-1-2.5-2.5q-1.2 2.3-2.5-.5l.5-1.5-2-1-1.5.5.5-1.5-4-1-1.5.5-.5-1.5-7.5.5.5 1.5-2-1-4.5 2.5-1.5 2.5-2.5 1.5-3 4 .5 1.5-1.5.5.5 1.5-1.5.5.5 1.5-1.5-.5 1 2-3 2-1 3 .5 1.5-1.5.5-1 2 .5 1.5-2 1q-2.5-1-1-2l1.5-.5q1.3-4.7-1-6h2v-7l-1-1v-15l1-3-2-1 1-2h-2l1-2-2-1q2-1 0-2l-2.5-5.5-1.5.5q2-1 0-2l-2-3-.5-3.5-2 1-2.5-3.5.5-.5 2 2 1.5-1.5-1-1 3-3-4-7 6.5-.5zm70.5 19-1 2h-1q-1-2-2 0-2-2-6-1l-1 3 3 1v1l-3-1-1-2-1 2h-1l1-2-2-2q-5-1-6 1v2l-1 1 1 1-1 2h-3l1-3-2-2-1-2-3 2 1 2-3 2q1 2 3 0l1 2-3 2 2 3h2q1 3 3-1v2h-1l-1 2q1 2 5 1l1-2v3l2-1q2 2 7 1l1 2q3 1 4-2l4 2v-1l2-1 3 1 1-1 6 3h2q1-2 2 0v-2l2-1v2l3-1q1 2 3-1v2q3 1 4-1h6l1 1v-3h-2l2-3 4 2-1 2v1h3l-1-3 3-2-1-1 1-1-1-1 3-2v2h1v-4l-2 1-3-3-2-2q-1 2-2 0l-1 2h-2l-1-1q-2-1 0-2 0-3-3-2-1 2-2 0h-7l-2 2-1-1-2-1-1 1 2 2v1l-1-1-4-3q-1 2-2 0l-3 4h-1l-1-4-1 2zm34 1-2 2h3q1-1-1-2Zm7 15-2 3 3 2q1-2 2 0v-1l-2-2v-1zm4 0-2 2h3v-1zm-109 4-1 16h1zm141 0-1 2h2q1-1-1-2Zm-39 2-1 3h1zm2 2v1h2zm13 1q-3 1-1 2h1zm-19 11-1 2 2 1-1 2q2 1 0 2h2v2q1 1 2-1l-2-4 3-1zm39 18v4-1q2-2 0-3Zm-20 24v1l2 1-1 2h-1l-2 5 3 1-1 2 1 3h3v-2l-1-1-1-1h5q-1-3-2-1v-1l-1-2-3 2-1-3 3-1v-4zm-18 4-4 7q-1 3 1 5l-1-1-2 2 3 2 1-1 1 1q-1 2-5 1l-1 7 2-1v2l3 2-2 1h-8l-1-5-1-1-3 6-5 1 1 2 3 2-1 2-7 4 2 2 3-1v3h-2l-1 2-1-2-4 3h2v3l-2 1 5 3 3 4q6 1 10-1v-1q1-3 3-1v-1l3-2h1l-1 2 1 1 3-1q1 2 2 0l-1-2h-3l2-1-4-3h2q2-2 1-6l3-2v-3q1-3 3-1l1-2 3 1-1-2 1-2 3-2-3-2 1-3-3-2 2-1-1-3 1-3-1-1-2-2-6-4v-2l2-3zm14 0 1 3 1-2zm20 0-2 2h4v2q-2 1 0 2l-1 6-2 1 2 4-1 2 2 3-1 2 2 3v3l3 2-2 1q-2 1 1 2l3-1v2q-1 2-2 0l-2 1 3 1q1 2 2 0l1 1h-1l-1 3 2-1-1 2 1 2q2 1 0 2l4 3-1 2 2 4-1 6 3 2-2 1v1l3-1h5l6 6-2 1 3 1v10l-1 1 1 2-1 2q2 1 0 2h2l2 4-2 1 1 1h4l-2-1q3-1 5-3h2v-2h-1l-3-1 4-2-3-2 1-4v2q1 2 4 1l1-2-2-1-2-4 2-1 2 3v-3l-1-2h-4l2-3-2-4-1 6h-2l-1 2-3-2-1-3q-1-4 1-4l-1-5-2-2q-3 2-8 1l-1 1h-1l2-2q1-4-1-4 2-1 1-4l-1-1-5-6 1-1 1-6-1-3 2-3-1-5-2-3-4-1-2-3v-6h-1l-2-2q-1-5 1-5l-2-1-1-2-2-3q-1 2-2 0Zm-24 1q-2 1 1 2v-1zm3 2q-3 1-1 2h1zm8 12-1 2h2v-1zm-4 8-3 2q2 3 3 0zm-42 5-3 3h1l2-1zm49 2-2 1-1 1 2 2-1 3-3 1 2 1-2 1-2-3-2-2-1 2 2 1-3 2q-2 6 2 8l-1 2h2l3 3h1l-1 2v1q3 1 4-1l-1 2 4 2 2 4 2-1-1 2 2 1 4-7q4-1 6 1l1-1-1-3 1-1-1-1 1-4h-4l1-3-1-1q-2 0-2-3v-1l-2 2h-3l2-1 1-2q-3-1-4-3l-2 1h-1l2-2-1-1q-3-1-2-4zm59 15v4h5v-2zm-80 6q-3 1-2 5l2-1 1 1 2-1-1-1zm14 1-3 2 1 1 2-1zm57 7-1 2h2v-1zm-44 7v1h3zm39 0-2 3 1 1 3-1v-1zm-26 3-2 3-2-1-2 5-2 1v6q2 0 1 4h-2l-2 5 1 3v6h-1l-3 4 1 5 2 3v3l2 2v3l2 3q2 1 0 2l3 2q1 4-1 6l2 3-1 4 2-1 1 1-1 4h2v2h1l2-2 4 3 3-1 1-2 2-1v-2l2-1q2-1 0-2l1-1 2 2 2-1 1-5q-2-1 0-2 1-4-1-4l1-2 1 2v-1l3-2q1-6-1-8l-2-1q-2 0-2-3-1-3-5-2-3-1-1-2 1-5-2-5l3-5v-3l-1-1q-3-1-2-5l-2-3v-4l2-1 1-2-3-1-1-1q-1-3-4-2-1-2-2 0l-1-1-2-1 3-1v-1zm36 3-2 2 3 1v-2zm0 11v2l2-1zm-2 9-1 2h-2l1 1h2zm-13 68-4 2 3 2-1 2 3 3q-1 3 2 3h2l-3-2q-1-5 1-6l-1-1zm-8 8-1 4h2q1 2 2 0 3-1 4 1l2-1-5-1zM250.5 213l3.5 4.5-.5.5-3.5-3.5z"/><path fill="#bb7730" stroke="#bb7730" d="m442.5 216 3.5 6.5-1.5.5-2.5-5.5zm-83 14 .5 1.5q-1 2.5-2 1zm-19 3q2.5 1 1 2l-1-1-1.5.5zm-26 3q2.5 1 1 2l-1.5-.5zm59 2 1.5.5-.5 1.5q-2.5-1-1-2Zm-100 80 1.5.5v2l3.5 5.5 1.5.5q-2 1 0 2l2.5 7.5 3.5 2.5h-3l-.5-1.5-2-1-5.5 2.5-.5 1.5-1-1-4.5-.5-2.5-3.5-3.5-1.5 2-1 4-8-.5-1.5 2.5-1.5zm-3 22-.5 1.5-.5 1.5-1.5.5-.5 1.5-.5-1.5zm3 3 1 2 1-2 3.5 2.5-4.5 1.5-1.5-2.5zm8 1 3.5.5-.5 2.5-1.5-.5-.5-1.5q-2.4-.1-1-1Zm10 2 1.5.5-1 1-.5 4.5zm4 0 1 2 1.5-.5.5-1.5.5 1.5-1.5 2.5-2.5-1.5zm3 5 2.5.5-2.5.5zm-24 1-.5 1.5-.5 1.5-.5-1.5zm3 0 1.5 2.5q-1 1.5-2-1zm113 0 1.5 2.5-2.5 2.5-.5-.5q-.7-3.7 1.5-4.5Zm12 1 4.5 1.5q-.5 2-3.5 1.5-2.4-.9-1-3Zm-6 3 2.5.5-.5 1.5-2.5-1.5zm-79 1 1.5.5-.5 1.5-3.5-.5zm-7 7 1.5.5-.5 1.5-2.5-.5zm110 22q1.5 1-1 2l-1.5-.5zm0 4 .5 1.5-1.5.5q-1.5-1 1-2Zm-268 7h67l1 1h7l2-1 1 1h34l3-1h100l1 1 7.5.5-4 1 6 3-2 1q2 1 0 2l-1 3 3 1-2.5.5q-1-2-2 0l-7.5-1.5 2-1 2-5-223.5-.5v1l2.5 1.5 2 4-9.5.5-1 1h-41l-1.5-7.5h1l1.5 6.5 14.5-.5-2-4 .5-.5 2 2 2.5 1.5.5 1.5 4.5-.5-.5-2.5-1.5-.5 1-2-5-1 6.5-.5 1 2 1.5-.5-.5-1.5h16l3.5-1.5-1.5-1.5-6.5-.5 14.5-.5zm321 9 .5 6.5h-1z"/><path fill="#bb7730" stroke="#bb7730" d="m231.5 408 15.5.5-15.5.5zm-77 2 18.5.5-18.5.5zm319 11 .5 7.5-1 1-.5 13.5-.5-16.5 1-1zm-2 25 .5 7.5h-1zm-1 9 .5 7.5h-1zm-2 19 .5 4.5-1.5 2.5-.5-1.5 1-1zm-4 8 2.5.5-2.5.5zm-334 3h29l1 1h6l4.5 2.5 2 4-1 2 155.5.5 3-1q2.2 4.3 4.5-.5v-3l-3-3 3.5-2.5h20l.5.5-2 2-3.5 5.5-2.5 1.5v2l-4.5 4.5q-2.5-1-1-2l1 1 3.5-3.5-.5-1.5-12.5.5.5 3.5 5.5.5-.5 1.5q-1-2-2 0l-124.5-.5 13-1-45.5-.5v1l2.5.5-31.5.5-3-1-3 1-2-1-2 1-3.5-4.5.5-.5 4 4 1-1h9l1-1 2 1-.5-1.5 1-1-.5-1.5h-18l-3.5-3.5-4-6zm-36 54 62.5.5-3 1 4.5 1.5 2-1 5.5 3.5.5 1.5h2l4 3 2-1 4 2h6l1-1h8l1.5.5q-.5-3 1.5-3.5l9 1 2-1q1 2 2 0l2 2 1-1 4-1 1 1 6 1q1-2 5-1 1 2 5 1 .8-1.7 4-1 1 2 5 1 .8-2.7 5-2l3 2 4-2 5 3 6-3 5 3 4-4 .5.5-1 1 4 4 .5 1.5 2.5 1.5 1.5 2.5 1-3 3 2 2-2 .5.5.5 3.5 5-2 1 2 1-2 3.5 1.5-.5 1.5 3-1 3 1 9-6 4 3 5.5-2.5q-1.2-2.7-2.5-.5l-1.5-.5 2.5-2.5 1 1 2.5.5.5 1.5 2.5-1.5 1.5-2.5v2q3 .5 3.5-1.5l-.5-1.5h2l4-3 2 1 4.5-3.5-.5-1.5-1.5-.5 23.5-.5v1l-4.5.5-.5 4.5-1-2-2.5.5 4.5 6.5 1.5.5-2.5 1.5-2-3-.5 2.5 1 1-1 1 .5 1.5-2-1v2l-2-1v2q-1-2-2 0l-1.5-.5.5-1.5-2.5 1.5q2.3 1.3-.5 2.5l-1.5.5.5 1.5-2-1v2l-2-1-3.5 2.5.5 1.5-2-3-.5 2.5.5 1.5-2-1-1.5.5.5-1.5-2.5 1.5.5 1.5h-37l-2 1-1-1h-15l-3 1q-3.2.8-4-1l-1 1h-129q-2.5-1-1-2l1 1h77v-1h-6l-3-2-5-1q-.7 1.8-4 1l-5-2q-.7 2.8-5 2l-2-1-5 2-3-1-1 1q-4.7-1.2-6 1-1.2-2.2-6-1l-22-8q-1 2-2 0l-2.5-.5-.5-1.5-3 2-3-1-5-1-2.5 3.5 10 6-1.5-.5-34.5-18.5-.5-1.5-1.5.5-.5-1.5q-1.5 2.5-3-1l-1.5-.5-.5-1.5q-2.4-.1-1-1Zm31.5 15-2 2 4 2h1l-1-2zm204 8-1 4h4v-1zm-93 4v1h2zm9 0v1h3zm10 0v1h2zm54.5 7 .5.5-3.5 3.5-.5-.5zm-5 5q1.5 1-1 2l-17.5-.5 17.5-.5z"/><path fill="#aca9a2" stroke="#aca9a2" d="m400.5 65 .5 3.5h-1zm1 10 .5 5.5h-1zm40 119 .5.5-2.5 2.5-.5-.5zm-296 110 2.5.5-2.5.5zm353 60 .5 3.5h-1zm1 20 .5 2.5h-1zm-461 100 3.5 3.5-.5.5-3.5-3.5zm12 11 3.5 3.5-.5.5-3.5-3.5zm7 7 4.5 4.5-.5.5-4.5-4.5zm488 7 .5.5-9.5 9.5-.5-.5zm-12 11 1.5.5-3.5 2.5-.5-.5zm-11 8 .5.5-2.5 2.5-1.5-.5zm-12 6q1.5 1-1 2l-1.5-.5zm-15 6 1.5.5-3.5 1.5v-1zm-7 4 .5.5-7.5 7.5-.5-.5zm-10 11 .5.5-3.5 3.5-.5-.5zm-5 5 .5.5-4.5 4.5-.5-.5zm-6 5q1.5 1-1 2l-3 1v-1zm-11 4 2.5.5-2.5.5zm-7 1 2.5.5-2.5.5zm-50 1 2.5.5-2.5.5zm17 0 28.5.5-28.5.5zm-23 1 2.5.5-2.5.5zm-6 1 2.5.5-2.5.5zm-4 1 2.5.5-2.5.5zm-3 1 1.5.5-3.5 1.5v-1zm-11 5 1.5.5-13.5 6.5v-1zm-15 7 1.5.5-3.5 1.5v-1zm-8 3 1.5.5-4.5 1.5v-1zm-200 4 2.5.5-2.5.5zm7 2 3.5 1.5-1.5.5-2.5-1.5zm160 5 2.5.5-2.5.5zm-142 1 2.5.5-2.5.5zm138 0 2.5.5-2.5.5zm-130 1 2.5.5-2.5.5zm123 0 2.5.5-2.5.5zm-113 1 106.5.5-106.5.5z" opacity=".718"/><path fill="#97948e" stroke="#97948e" d="m402.5 93 .5 3.5h-1zm99 172 3.5 3.5-.5.5-3.5-3.5zm87 3 .5 2.5h-1zm-98 11 .5 2.5h-1zm103 18 .5 2.5h-1zm1 10 .5 2.5h-1zm-100 2 .5 2.5h-1zm101 14 .5 45.5h-1zm-99 4 .5 3.5h-1zm1 11 .5 3.5h-1zm1 15 .5 4.5h-1zm1 20 .5 10.5h-1zm95 5 .5 6.5h-1zm-94 12 .5 2.5h-1zm93 0 .5 3.5h-1zm-1 9 .5 2.5h-1zm-1 6 .5 3.5h-1zm-2 12 .5 2.5h-1zm-39 87 .5.5-4.5 4.5-.5-.5zm-148 67 13.5.5-13.5.5zm-226 32 2.5.5-2.5.5z" opacity=".675"/><path fill="#5c2519" stroke="#5c2519" d="m346.5 45 1.5.5q-1.7 2.3-6.5 1.5v-1q4 1 5-1Zm-26 8 .5.5-5 5 .5 1.5-1.5-1.5zm46 2 2.5 2.5-.5.5-2.5-2.5zm12 19 .5 1.5q-1 2.5-2 1zm-1 12 1.5 3.5h-1zm-49 16 4.5.5.5 1.5h3l6.5 5.5 2.5 4.5 2.5 1.5-1.5.5q-1-2-2 0h-6l-3 1v-1l1.5-.5-2.5-.5-3 2 1-3-2 1-1-2-3 2-.5-.5 2-2-2-2-.5-1.5-1.5-.5-1-2 2.5-3.5zm-12 2 5.5 5.5-1.5 1.5-5.5-5.5zm40 35 2 1 1.5-.5 3.5 4.5 1-2 .5 4.5 1.5 1.5 1.5-.5-1 2 2 1q-1 4 1 5l-1 1 2 2-.5.5-2.5 1.5 1 2-1.5-.5-1.5.5-.5 2.5-1-2-1 2-2 1-2-1-2 1-1-1-10.5-.5-.5-3.5-2 1-2-1-1 1-1.5-.5-.5 2.5-2-1-2 1-3.5-1.5 2-4-3-1 3-1 1-2-1.5-.5-1.5.5 3.5-6.5 1 3 2-1q1.3 2.3 2.5-.5l-.5-1.5 1.5.5.5-2.5 1.5.5.5-3.5 6 1 1-3 5 1zM339 158l-1 2q1 1 2-1zm-154.5 18 2.5.5-2.5.5zm293 0 4.5.5-4.5.5zm6 0 5.5.5-5.5.5zm-299 2 3.5.5-3.5.5zm292 0h13l1 1 7 1 14.5 7.5-1.5.5-2-2h-2l-2-2-6-2-2 1-1-2-5-1-1 2-2-2-2 2-1.5-.5-.5 1.5-1.5.5 2 1-1.5 2.5-3-1-1 1-1.5-.5 2 3-.5.5-3.5-3.5-.5-2.5-2.5-.5 1-2-2.5-.5.5 1.5-.5 1.5-1.5.5.5 1.5 1.5.5-1.5 2.5-1.5-5.5-1.5-1.5-1 2-3.5-.5 3.5-2.5 6-2h4zm1.5 2-1 2 3 1v-1zm-272.5 1 2.5.5-2.5.5zm173 1 4 1q1-2 2 0 4.2.7 6-1l1 1h6q1-2 2 0h14l1 1q1-2 5-1 1 2 5 1l3-1 2 2 1.5-.5-1 2 1 2-171.5.5-.5-1.5 3.5-4.5h20l3 1q1.3-2.2 6-1 .8 1.8 4 1l2-1 1 1h6l2-1q1 2 2 0h69zm-173 1 7 1 1 1 30.5.5-3 1v2l-3 3-.5 3.5-1.5.5-2.5 4.5-2.5.5 2 3-1.5-.5-2 1h-15v-1l4.5-.5-1-1 .5-1.5q-3 .5-3.5-1.5l-.5-2.5-4-1-2 1-.5-1.5 1.5-4.5 1 2 1.5-.5-3.5-5.5-1.5-.5.5-1.5q-3 .5-2-1Zm11.5 8-1 4q-2 1 1 2h2l-2-1 1-4zm13 3-1 2h2q1-1-1-2Z"/><path fill="#5c2519" stroke="#5c2519" d="m219.5 183 33.5.5-33.5.5zm296 7 12.5 11.5 12 17q-1 1.5-2-1l-4.5-6.5-2.5-1.5-2.5-3.5-1.5-.5-1-2q2.3-1.2-.5-2.5-1.2 2.3-2.5-.5l-.5-1.5-2.5-1.5 1-1-6-6zm7 3 5.5 5.5-.5.5-5.5-5.5zm-266 1h6l1 1h63q1-2 2 0l7-1 1 1h40q1-2 2 0h10l3-1q1 2 2 0h7l1 1q.8-1.7 4-1l3 1q1-2 2 0h22l1-1 3.5 5.5-183.5.5.5-1.5zm-44 11 14.5.5-14.5.5zm39 1 187.5.5-187.5.5zm-4 8 1 1 1.5-.5-1.5 1.5q-2.5-1-1-2Zm232 4 6.5.5-6.5.5zm61 2 3.5 5.5q-1 1.5-2-1l-2-4zm-366 5v3l-1-1-2 2-.5-.5zm282 3 .5.5-2.5 2.5-.5-.5zm90 3 1.5 2.5q-1 1.5-2-1zm-300 2 2.5 2.5-.5.5-2.5-2.5zm302 2 1.5 3.5h-1q-1.7-1.5-.5-3.5Zm3 7 2.5 5.5h-1l-2-4zm-257 8 4.5.5-4.5.5zm1 2 2.5.5-2.5.5zm-131 12 .5 1.5q-1 2.5-2 1zm11 22 1 1 1.5-.5-1 1 .5 1.5-2.5-2.5zm54 0 .5.5-2.5 2.5-.5-.5zm-101 1 .5 4.5h-1zm99 4 2 2 3.5.5-2 1 .5 1.5 1.5.5q-1.5 3-3 0l-.5-1.5-3 1-.5-1.5 2-2zm-69 2 .5 5.5h-1zm16 1 3.5 3.5-.5.5-3.5-3.5zm50 0 .5 2.5h-1zm51 2q2.5 1 1 2l-1-1-3 3-.5-.5zm-47 2 .5 2.5-1.5.5-.5-1.5zm341 2 .5 2.5h-1zm-424 2 3.5.5-3.5.5zm182 0 3.5 3.5-.5.5-3.5-3.5zm-179 2 7.5.5-7.5.5zm82 4 2.5.5.5 1.5 3-2 2 4 1.5.5q-1.2 2.8-2.5.5l-1.5.5-2 6 1 2-3 3 2 2-.5.5-1.5-.5 1 2h-2l1 2-2 1 1 3v9l2.5 2.5 1.5-.5-2 3 1.5-.5 2.5 2.5q-2 1-1 5l-3.5 5.5-6 3-3.5.5-.5 1.5-6.5-.5v-3l1.5-3.5 3.5-2.5-2-3v-6l-1-1v-10h2l-1-8q1-1.5 2 1l.5 1.5 1-4 .5 9.5q-2 1-1 5l3 7v3l3.5 4.5q2-.5 1.5-3.5l-2-1-3-10q2-1 0-2-1-4 1-5v-8l-2-1 1-6h-1l-.5 1.5-.5-1.5q1.8-.7 1-4l-1-1 3-3 .5-1.5 2 1zm-58 2 1 1h14l1.5-.5-1.5 1.5h-14q-2.5-1-1-2Zm30 1 .5 2.5h-1zm-41 4 .5.5-4 4 .5 1.5-1.5-1.5zm309 0 .5 2.5h-1zm-198 2 .5.5-2.5 2.5q-2.5-1-1-2 1.5 2.5 3-1Zm-15 1 1 1 1.5-.5-1.5 1.5q-2.5-1-1-2Zm-56 1q1.5 3.5 3 1l2.5 2.5-.5.5-2-2-1 1-2.5-2.5zm55 1 1.5 2.5q-1 1.5-2-1zm215 2 .5 2.5h-1zm-134 2 .5 7.5h-1zm212 6 .5 5.5h-1zm-348 2 2.5 2.5-.5.5-2.5-2.5zm371 1 .5 25.5h-1z"/><path fill="#5c2519" stroke="#5c2519" d="m232.5 334 .5 6.5h-1zm53 2 1 1 1.5-.5-1.5 1.5q-2.5-1-1-2Zm-32 1 .5 12.5h-1zm25 1 4.5.5-4.5.5zm-125 2 .5 1.5q-1 2.5-2 1zm36 0q2 .5 1.5 3.5h-1zm90 0 2.5.5-2.5.5zm194 0 .5 2.5h-1zm-201 3 .5.5-4.5 4.5-.5-.5zm200 3 .5 2.5h-1zm-276 2 5.5.5-5.5.5zm19 3 .5 3.5h-1zm-7 1 2.5 2.5-.5.5-2.5-2.5zm266 0 .5 2.5h-1zm-257 2 .5 3.5h-1zm59 3 1 1 4.5.5-4.5.5q-2.5-1-1-2Zm273 0 .5 4.5h-1zm-348 3 .5.5-2.5 2.5-.5-.5zm11 0 1 1 1.5-.5-1.5 1.5q-2.5-1-1-2Zm261 0 .5 3.5h-1zm-281 4 3.5.5-3.5.5zm54 3 144.5.5-144.5.5zm229 1 .5 7.5h-1zm-380 1 .5 3.5h-1zm13 0 106.5.5-6 1-.5 1.5-3-2h-4l-6 5-5.5.5.5 1.5 3.5.5-3.5 3.5h-2l-2-1-3 6-1-5-2 1-3-1-2 4q-3 .5-3.5-1.5l4-1-.5-1.5h-10l-2-2q-1.7 2.8-7 2-.7-2.7-5-2l-.5 4.5-1.5 1.5-1-2-1.5.5.5 1.5-3.5 2.5 1.5.5 1.5-.5-.5 3.5-7-5h-5l-7.5-2.5 2-1-2.5-3.5-1.5.5q-.5-3 1.5-3.5l4.5-.5-6-1 2-2-.5-.5-2 1-4-3h-12zm65.5 3q-2 1-2 4l3 1q2-1 1-3zm-40 7q-2 1 1 1l-1 2h3v-2zm82.5-10 4.5.5-4.5.5zm7 0 8.5.5-8.5.5zm36 0 11.5.5-.5 1.5 14.5.5-5 4 .5 1.5 1.5.5-4 5 2 1-2 1-1.5 2.5v-2l-1.5.5.5 2.5 6.5.5-.5 1.5-2.5 1.5.5 2.5 4.5.5-35.5.5v-1l2.5-.5-2.5-1.5-3 3h-2v-1l2.5-.5-2-1-.5-2.5-1.5-.5 3.5-.5 1.5-1.5-1.5-1.5-4.5-.5 3-1 .5-1.5q6.1 1.1 8.5-1.5l-.5-3.5q-5.7-1.2-7 2l-2.5-2.5.5-.5 16.5-.5-3-3v-2l3-1zm.5 11-2 3h2l1-2zm26.5-11 2.5.5-2.5.5zm11 0 2.5.5-2.5.5zm10 0 83.5.5v10l-1 1-.5 9.5-.5-12.5 1-1v-6l-6.5-.5.5 1.5-.5 1.5-1-2-1 2-1-2-2.5.5v2l-2 3q2.3 1.3-.5 2.5l-3-1-.5 1.5 4 5-2 1q2 1 0 2v2l-3 4 6 1-36.5.5-3 1-1-1-31.5-.5 2-4-3-2 3-1-.5-1.5-4.5-.5 4-3 1-5 1.5-1.5 1.5-.5q.5-3.5-2-4l5-1-5.5-.5zm17.5 2-2 3 3 1 1-2zm35 13 1 3v-2zm188.5-14 .5 2.5h-1zm-317 1 3.5.5-2.5 2.5-1.5-1.5z"/><path fill="#5c2519" stroke="#5c2519" d="m239.5 371 11.5.5 1 2-.5.5-2-2-1.5.5-.5 2.5-4 1-4.5-3.5zm332 0 .5 2.5h-1zm-179 2 .5 5.5h-1zm-303 1 3.5 2.5q.5 3-1.5 3.5h-2l-4.5 2.5-1.5 2.5q-4-.5-4.5 2.5l1 1-2.5 2.5-1.5.5q3.3 1.3 3.5 5.5l2-1v3l-2-1-2.5 2.5q2.3 1.2-.5 2.5l-1-1-3.5 3.5q2.3 1.3-.5 2.5l-1.5-.5-1 2 .5 1.5q-1.2-2.2-2.5.5l1 2h-2l1 2h-2l1 3h-1l-.5-1.5-.5 2.5 1 2h-1l-.5-1.5-.5 3.5 1 2h-2l-1 3 1 3-1 2 1 3 .5 1.5 1-2 .5 2.5-1 3h2l-1 3h2l-1 3 3.5 5.5 1.5-.5q-2 1 0 2l2.5 3.5 1-1 3.5 3.5q-2.2 1.3.5 2.5l2 1 1.5-.5-.5 1.5 2 1 1.5-.5-.5 1.5 2-1v2l2-1v2l2-1v2l3-1v2q3.2.8 4-1v2q4 1 5-1h10v1l-10.5.5 10 1-5 1 2 3-2 1 19 1 3 6-1.5-.5h-25l-1-1q-1 2-2 0l-8-1-5-3h-3l-7-4h-2l-3.5 1.5 3 2-1.5-.5-2 1 .5-1.5-1.5-1.5-2 1 .5-1.5-2.5-2.5-2-1-1 1-5.5-5.5q2-1 0-2l-1.5-2.5-1.5.5q2-1 0-2l-.5-1.5-1.5.5 1-2-1.5-1.5-1.5.5 2-3-3 1 2-3-3 1q2.5-.5 2-4l-2-5 3-2v-11q2-1 1-5l1-1 1-7 2-3 3-9h-2q1.3-2.7 2.5-.5l2.5-2.5-1.5-1.5q-1.2 2.3-2.5-.5l-.5-1.5-3.5 5.5v2l-3 5-3 9q.8 3.3-1 4v12l-2.5 3.5.5-1.5q-.7-3.2 1-4v-11l-2-5h1l.5 1.5 1.5-2.5-2-3h2l-1-3h2l-1-3 1.5.5 1.5-.5-2-2 .5-.5 2 1-1-3 2 1-1-3 2 1-1-3q1.2 2.3 2.5-.5l-1-2 1.5.5 2.5-1.5-1-3 1.5-1.5q1 2 2 0l4.5-3.5-1-2 1.5-1.5 1 1 1.5-.5-2 3 .5.5 2.5-2.5 1-3-.5-1.5q.8 1.7 4 1l-1-3 2 1q2.7-3.3 8.5-3.5l-1-2 3 1-1-2 1.5.5 2.5-.5-.5-1.5q.8 1.7 4 1zM77 388v1h2zm-18 10-2 2 2 3 2-3zm44.5-22 .5 1.5-1.5.5q-1.5-1 1-2Zm18 0q2.5 1 1 2l-1.5-.5zm106 1 3.5.5q-.5 2-3.5 1.5zm8 0 3.5.5-2 1-.5 1.5zm333 0 .5 3.5h-1zm-94 4 .5 33.5h-1zm-321 2 1.5.5-.5 2.5-2.5-1.5zm12 0 2.5.5-.5 1.5q-3.8-.7-2-2Zm74 0 2.5.5-2.5.5zm328 3 .5 3.5h-1zm-419 2q2.5 1 1 2l-1.5-.5zm8 0 1.5.5-.5 1.5q-2.5-1-1-2Zm232 3 .5 3.5-8.5.5v-1l7.5-.5zm178 0 .5 6.5-1 1-1 10-2.5 7.5-.5-2.5 1-1v-6l1-3h-1l-.5 1.5-1.5.5 1 3-1.5.5-.5-1.5.5-1.5-5-1-2 1-2.5-3.5 3 1-1-2 1.5.5 1.5-.5.5-1.5q3.2.8 4-1l-1 3 5.5-.5zm-8.5 10-2 2q1 2 2 1zm-377.5-8 .5 1.5-3.5.5v-1zm117 1 2.5.5-2.5.5z"/><path fill="#5c2519" stroke="#5c2519" d="m559.5 394 1.5.5-2.5 2.5-.5-.5zm-461 12 .5 1.5q-1 2.5-2 1zm284 4 2.5.5-2.5.5zm-86 2 4.5 5.5-1 2q4.7.3 6 4-1 2.5-2 1l.5-1.5-4-2-2 2-1.5-.5q.5 3-1.5 3.5l-1.5-.5 5-7-4-5z"/><path fill="#5c2519" stroke="#5c2519" d="m307.5 412 1.5.5-5 4 .5 1.5-1.5-.5-.5 1.5-.5-1.5 3.5-4.5 1.5.5zm-66 2 2.5 1.5-1.5-.5-2 2q-5 1-7.5 4.5l-2 4q2 1 0 2 1.3 5.8 5.5 8.5l3 2 7 2 5.5-3.5 3-5v-2l-5.5-5.5h-6l-3.5 2.5q.3 4.8 3.5 6.5 4.3.8 5-2l.5 1.5q-.7 3.3-5.5 2.5-4.9-2.2-5.5-8.5l2-1q-2.2-1.2.5-2.5l3-1 2 1q.7-1.7 4-1l5.5 4.5 2 3v2l-8.5 9.5h-5l-3-1q-5.8-2.7-9.5-7.5l-1-3v-7l2.5-3.5 5-3 1.5.5.5-1.5zm-82 1v2l3 2 5-4 .5 1.5-5.5 3.5q-1-2-2 0l-1.5-1.5-1-2zm-28 1h4l5.5 4.5 3 5v7l-3.5 4.5-1.5.5-2.5 3.5-2 1-1-1h-12l-6.5-4.5-1-2v-9l4.5-6.5 1.5.5-4 6-1 7 4.5 5.5 5 2h10l1-1 1.5.5 4.5-7.5 1.5.5-1-5 1-2-4-3-3.5-4.5q-4.1-.6-5.5 1.5l-2 4v7l2.5 4.5 3.5-2.5 1.5-2.5-.5 1.5 1 2-2.5 2.5-1-1-2 1-4.5-5.5v-7l3.5-6.5zm227 2 5.5.5q-1.2 2.8-6.5 1.5-4.8 1.7-7.5 5.5l-1 8 2.5 4.5 7 4 1-1q4.2.7 6-1l5.5-4.5q.9-5.4-1.5-7.5h-2l-4-3h-2l-4.5 3.5 1 4q-1 1.5-2-1-1-5.5 2.5-6.5l5-1 3 2h2l3.5 3.5v6l-5.5 5.5-4 2h-5q-6.2-2.3-9.5-7.5v-9l5.5-6.5zm117 1 .5 7.5h-1zm-315 2q4.8-.7 5.5 2.5l2 3-1 1 .5 1.5-3.5-4.5.5-1.5-3-1-5 4v-1l1.5-.5zm-118 6 .5 8.5h-1zm431 6 .5 2.5h-1zm1 6 .5 3.5h-1zm-2 8 .5 2.5h-1zm-286 1 2.5.5-10 8-1 2v9l6.5 7.5 7 1 5-2 4.5-4.5 1-2v-9l-3.5-4.5-3-2h-5l-5.5 3.5-1 7 2.5 3.5 5 2 3-1 3.5-3.5q-.5-3 1.5-3.5l.5 3.5-6.5 5.5h-5l-5.5-4.5v-9l3.5-3.5 6-2 6 2 3.5 3.5 2 4v7l-1 3-5.5 5.5-6 3-1-1q-4.8.8-7-1l-5.5-5.5-2-3v-7q1.8-.7 1-4l3.5-4.5zm118 4 5.5.5-4.5.5-6.5 5.5-2 5v5l2 5 3.5 3.5 3 1h5l7.5-3.5 2-5-1-3-2.5-2.5-5-2h-3l-3.5 2.5q-.7 3.8 1.5 4.5l3-1q3 1.5 0 3-4.7-.2-6.5-3.5.3-4.7 3.5-6.5h8l5.5 4.5q1.7 1.8 1 6l-2.5 4.5-3 2-8 2-6-2-4.5-4.5-1-2v-10q2-5.5 6.5-8.5zm169 0 .5 2.5h-1zm43 4 .5.5-5.5 5.5-.5-.5zm-263 1 3.5 2.5.5 1.5 4-3 .5 1.5-2 3 5 5-1.5 1.5-4-5h-2l-6 5-.5-1.5 5.5-4.5 2.5-.5-6-5zm107 4 1.5.5-6 8 3 3-.5.5-4-3-6 4q-1.5-1 1-2l3.5-2.5-3-4 1.5.5 2.5 1.5.5 1.5zm-225 2 1.5.5-.5 1.5-3 1-5.5 4.5 4 3-.5 1.5-4.5-4.5 1-1 1.5-2.5zm-14 2 4.5 3.5q.8 4.8-2.5 5.5l-1.5-.5 3-4-4-3zm-8 7 2.5.5-2.5.5zm365 1 8.5.5-8.5.5zm-1 2 8.5.5-8.5.5zm-384 12 2.5.5-2.5.5zm6 1 8.5.5-8.5.5zm10 0 3.5.5-3.5.5zm-7 2 8.5.5-8.5.5zm277 0 3 1h8q1-2 2 0h7l1-1 1 1 65.5.5q1 4.5-1.5 5.5l-5-1-1 1-58.5.5 2 1-2 1-1.5 2.5-4-1 .5 1.5-.5 2.5-2.5-1.5-.5-2.5-2-1-1 2-6 4-4.5-1.5-.5-3.5-1.5 1.5-.5 3.5-1.5.5 47.5.5 1 1 18.5.5.5 1.5 20.5-.5.5-1.5.5 3.5-1.5 3.5-3-2h-30v1l28.5.5-87.5.5-2 1-2-1-1 1h-25q-1.2-2.2-6-1l-1.5.5 8.5-9.5 1.5-.5 4.5-5.5.5.5-3 3-1 2 6.5 1.5 1-2 3-1q.5 2.5 4 2l.5-1.5q-2-1 0-2l-.5-1.5-3 1q-2.5-1-1-2l2-1q1 2 2 0l2-1 1 1h6l.5-1.5-3.5-.5q-1 2-2 0h-12l-1 1-.5-.5 2-2-1-2 1.5.5 3-3h24zm-9.5 7-1 2v1l3-2zm8 0v1l3 1 2-1 2 1v-1zm17 0v1h2zm-11 3-1 3h1zm-18 3v4h1zm5 0-1 2q1 2 2 1zm52 10v1h2zm100.5-16 .5.5-3.5 3.5-.5-.5zm-379 6h52l1 1h56l3-1q1 2 5 1 1-2 5-1 .8 1.7 4 1 1.3-2.3 6-1l3 1 1-1h61l.5.5-4 4-6.5 7.5-13 11-15 10h-121l-2-1-1.5.5q2.3-1.2-.5-2.5l-2 1 .5-1.5-1.5-1.5-4-2-1.5.5q2.3-1.3-.5-2.5l-2 1-1.5-1.5q2.3-1.2-.5-2.5l-2-1-1.5.5 1-1-4.5-4.5-2 1-2.5-2.5 1-1-7.5-7.5-1 1-2.5-2.5 1-2zm121.5 2q-2 1 1 2v-1zm-46 2-1 2h2v-1zm-58 1-1 2 4 1v-2h-1zm156 3-1 2v1h2zm-7 1-2 2 1 1 2-1q1-1-1-2Zm-12 16v1h2zm-103 1v2l-1-1-1 2h3v-2zm258.5 16 .5 1.5-2.5.5v-1zm-31 1 15.5.5-15.5.5zm-279 22 32.5.5-32.5.5-1 1q-1.5-1 1-2Zm36 0 35.5.5-35.5.5zm-12 2h73l3 2 4.5.5-5.5.5-2.5 1.5.5 1.5 3.5.5-4 1 7 1-7.5.5q-1-2-2 0h-15l-1 1q-1-2-2 0h-43l-1 1q-2.7-1.2-.5-2.5l-8-8zm146 2 .5.5-2.5 2.5-.5-.5zm-4 2 .5.5-4.5 4.5-.5-.5zm-132 7 125.5.5-125.5.5z"/><path fill="#ce964a" stroke="#ce964a" d="m337.5 47 1 1h9q1 2 5 1l1.5-.5-.5 1.5 4 1 1.5-.5-.5 1.5 2-1v2l2 1q1.3-2.2 2.5.5l-.5 1.5 3.5 2.5.5 1.5 1.5-.5q-2.5 1.5 1 3l.5 1.5 1.5-.5-1 2h2l-1 2h2l-1 2 2 1-1 2 2 1-.5 15.5-1-12-1 2h-8l-2 2h-6q-.5 2.5-4 2-.7-1.7-4-1l-2-2h-4l-4.5-3.5-.5-1.5-8.5-3.5v-2q-3.2-1.2-3.5-5.5l-1.5-.5-1.5-2.5-5-3-6 8 .5-1.5q3-7.5 9.5-11.5l2.5-.5.5-1.5 1.5.5.5-1.5 1.5.5.5-1.5 2 1 1-2q.8 1.7 4 1zm-25 20 .5 1.5-1.5 2.5-.5-1.5zm23 160 2 3 1-2 1 4 1.5-.5 2.5-3.5q1 2 2 0l3 1 3-1 1 2 2-2h7q1 2 2 0 3.5-.5 4 2 1.7-3.8 3.5-.5l-4 2 .5 1.5 2.5-.5.5-1.5q1 2 2 0l2.5 1.5 2.5 3.5 2-1 .5 3.5h-1l-.5-1.5-2.5 1.5 1 1-1 1 .5 1.5-2.5 1.5.5 2.5 2-3 1.5.5-.5 1.5 4-2 .5 1.5-3 1 1 2-2.5 2.5-.5-.5 1-1-2.5-2.5q-.7 1.7-4 1l.5-1.5 1-2-1.5-.5-1.5.5.5-1.5-2.5.5 1 5-1.5-.5h-6q-.7 1.7-4 1l-3-1-3 1v-2l-1.5.5-.5 2.5q-1-2-2 0l-6-2-1.5.5.5-1.5-4 3 .5-1.5-1.5-1.5-1.5.5-.5 1.5-4-2q-.5 2.5-4 2l-1-2q-4.8.8-7-1l-1.5.5-.5-2.5-1 2q-3.7.8-4.5-1.5l-1.5-2.5-1.5-.5-2-3 3-2-1.5-1.5q-1.2 2.3-2.5-.5l3-2-1-2 2.5-1.5 1 2 2.5 1.5-1 3 2.5.5 1.5-2.5-1-1 1-1-.5-1.5q1.8-1.7 6-1l2 1 1.5-.5q-2 1 0 2l.5 1.5 1.5-.5-1-3 5.5-.5 3 1 1.5-.5zm24.5 3-2 3q1 1 2-1zm-45 6-1 2h2q1-1-1-2Zm59 2q-2 1 1 2v-1zm-62 2q-3 1-1 2h1z"/><path fill="#ce964a" stroke="#ce964a" d="m373.5 249 .5 2.5h-1zm12 0 1.5 2.5h-1zm-10 2 2.5.5-2.5.5zm13 1 .5 1.5-2.5 1.5q-2.5-1-1-2 1.5 2.5 3-1Zm-224 9 .5 2.5h-1zm205 2 5.5 2.5-3 1 2 4q-1 2.5-2 1l-.5-1.5-1.5-.5q2-1 0-2l1-2-2-1zm-144 16 2.5 1.5 1 3h-2l-1 2 .5 1.5q-1.2-2.2-2.5.5 2.3 1.3-.5 2.5-1.5-2.5-3 1l-1.5.5.5 1.5-3.5-1.5 3-1-1-2 3.5-4.5 1 2 1.5-.5q-2-1 0-2l2-3zm-16 10 3.5 2.5-1.5 2.5-6.5-.5 3-1zm-18 3 1.5.5-2.5 1.5q-1.5-1 1-2Zm201 10 1.5 2.5q-1 1.5-2-1zm-4 3 3.5.5-.5 4.5-2.5.5.5 3.5 3-2 3.5 3.5-.5.5q-3.3.8-4-1l-.5 1.5 2 1-.5 2.5-2.5-.5-1-3 .5-1.5-2.5-1.5-.5-2.5-1.5.5-1-2 2.5-.5 1 2 1-2 1.5-.5 1-2-2.5-.5zm-8 5 1.5.5-.5 1.5q-2.5-1-1-2Zm3 2 .5 1.5-2.5 1.5-.5-.5zm8 12 1.5.5-.5 1.5-1.5-.5zm-106 5q.5 2.5 4 2l1.5-.5 1.5 2.5 4 1 5 4 1-1 3 3 2-1q.7 1.8 4 1l6-2 1 2 1.5.5.5 1.5 1.5-.5-2-4 1.5.5 1.5-.5.5-1.5 4 1 1-3 1 2 4.5-1.5-2.5 4.5-6.5 4.5-.5 1.5-1.5-.5-.5 1.5-2-1v2l-5-1-1 2q-1.5-3.5-3-1l-4 1v-1l1.5-.5-10.5-3.5-1.5.5.5-1.5-2 1v-2l-2 1v-2l-3-2-1.5.5q2.5-1.5-1-3l-1.5-3.5-1.5.5q2-1 0-2zm101 4 1.5.5q-1 2.5-2 1zm8 6 2.5.5-.5 2.5-1.5.5 5 2-2 2 .5.5 2-1q1.1 2.4 4.5 2.5l-1.5 2.5-1.5.5 2.5.5 3-3 .5.5-1.5 3.5-1.5-.5-.5 1.5-2-1-.5 1.5 3.5 4.5.5-1.5q-2.2-1.2.5-2.5l1.5.5q1 4-1 5 1.8.7 1 4l2 2-4.5.5-1.5 1.5v2l-2.5 3.5-4.5-3.5-.5-2.5-2-1-.5 1.5q2 1 0 2l-.5 10.5-.5-10.5 1-1-2.5-2.5-10.5-.5 12-1-4-1 1-2q-1-2.5-2-1l-.5 1.5-2 1-.5-1.5 3-2-2.5-1.5-1.5.5 2-3q-3.5-1.5-2-8l3-2-2-1 .5-1.5 2.5 1.5 1.5 3.5 2.5-1.5-2-1 3-1 1-3-2-2 .5-.5zm-3.5 13q-3 1-2 5h1l2-2zm6 4-1 1 3 1v-1zm-215.5-12 5.5.5 1 2-5 3q2.3 1.3-.5 2.5l-2.5-1.5v-3zm-12 9 3.5.5-3.5.5zm241 7 .5 2.5h-1zm-10 15 3.5.5-3.5.5zm13 3 3.5 2.5-.5 1.5-2.5.5 2.5 2.5q1-2 2 0 3.8-.7 4.5 1.5l.5 1.5 3.5.5-1.5 2.5-1.5.5v4l2 3q-.6 4.1 1.5 5.5l1.5.5v3l-3 5q2.8.8 2 5-2.2 1.3.5 2.5 4.5-1 5.5 1.5-.5 3 1.5 3.5l2.5.5q2 2.5 1 8l-3 2-2 6 1 2-1.5 4.5-2 1q-1.5-2.5-3 1l-1.5.5-.5 2.5-1.5.5-1.5 2.5-3 1-4-3-2 2-.5-.5-.5-1.5-1.5-.5 1.5-2.5 1.5-.5-3.5-1.5-1.5.5 1-4-2-3q2.2-1.3 1-6l-3-2q2-1 0-2l-2-3v-3l-2-2v-4l-2-2-1-5 2.5-3.5 1.5-.5v-6l-1-3 1.5-4.5 2.5-.5q.7-3.3-1-4v-6l2-1 1.5-4.5 1 2 1.5-.5q-.5-3 1.5-3.5Zm6.5 8-3 2 2 1 2-2zm1 4q-3 1-1 2h1zm-274.5 12 223.5.5-2.5 5.5-1.5.5 4 1-9.5.5-1-1h-56q-1 2-2 0h-9l-1 1h-89l-1-1h-47l-1 1h-11v-1l8.5-.5-3.5-5.5q-2.4-.1-1-1Zm85.5 6v1h15zm-71.5 77 174.5.5-3 2q3.8.7 3 6-.5 2-3.5 1.5l-3-1-1 1h-155l-.5-1.5q2-1 0-2l-2.5-4.5-3-1h-6zm20 14 45.5.5-12.5.5-1 1h-29l-3-1zm-89 39h69l1 1h78q.8-1.7 4-1 .8 1.8 4 1 1.2-2.3 6-1l3 1 1-1h6l2 1q1.3-2.3 6-1 1.3 2.3 6 1l3-1q1.3 2.3 6 1l2-1 1 1h48l1-1h38l1 1 8.5.5-.5 1.5-1.5-.5-.5 1.5q-1.5-2.5-3 1l-3.5 1.5-.5 1.5-1.5-.5-.5 1.5-1.5-.5-.5 1.5-16 8-20 12h-38v-1l37.5-.5q-2.2-1.2.5-2.5l3 1 .5-2.5-.5-1.5 2 3 3.5-2.5-.5-1.5 2 1 5.5-3.5-1.5-4.5 3.5 2.5-.5 1.5 7.5-4.5-1-3q1-1.5 2 1l.5 1.5 2.5-1.5-3-2-3-5 2.5-.5 1 2 1-5 4.5-.5-23.5-.5v1l1.5.5-.5 1.5-5 3q-1.5-2.5-3 1l-4.5 1.5q2.3 1.3-.5 2.5l-3-1-2 3-1.5-.5-.5-1.5-3-1-2.5 2.5.5.5 2-1q2.5 1 1 2h-2l-4 3 .5-1.5-1.5-1.5-2-1-5 4-6 2-2-1-2 1v-2l-3-1-1 2-1-2-5 2-1-4q-2 4-4 0l-1.5.5-.5 2.5-3-4-1.5-.5-4.5-5.5-3 3-1-1h-2l-3-2-5 3-6-3-3 2q-1.4-2.6-6-2-1 3-6 2-.7-1.7-4-1-1 2-5 1-1-2-5-1l-3 1-6-2-4 2-2-2q-1 2-2 0l-5 1q-1.3-2.2-6-1l-2 4-1-1h-8l-1 1h-6l-5-2-2 1q-1.2-3.3-5.5-3.5l-1.5-2.5-5-2-3 1-2.5-1.5 3-1-62.5-.5v1l1.5.5-1.5.5-3.5-2.5z"/><path fill="#ce964a" stroke="#ce964a" d="m328.5 561 4.5 3.5-.5 1.5-3.5-.5v-3zm-48 6 15.5.5-15.5.5z"/><path fill="#e0ddd8" stroke="#e0ddd8" d="m338.5 22 9.5.5-9.5.5zm49 19 3.5 3.5-.5.5-3.5-3.5zm4 5 4.5 6.5q-1 1.5-2-1l-3-5zm-107 32 .5 20.5h-1zm124 36 2.5 2.5-.5.5-2.5-2.5zm3 4 1.5.5 4 5-.5.5-5.5-5.5zm8 9 9.5 9.5-.5.5-9.5-9.5zm-152 3 .5.5-5.5 5.5-.5-.5zm-10 11 .5.5-8.5 8.5-.5-.5zm216 12 10.5.5-10.5.5zm12 0 5.5.5-5.5.5zm-302 1 3.5.5-3.5.5zm10 0 5.5.5-5.5.5zm10 1 2.5.5-2.5.5zm6 1 2.5.5-2.5.5zm6 1 2.5.5-2.5.5zm18 0 2.5.5-2.5.5zm-9 1 4.5.5-4.5.5zm-54 1 .5.5-5.5 5.5-.5-.5zm359 8 2.5 2.5-.5.5-2.5-2.5zm5 4 4.5 4.5-.5.5-4.5-4.5zm-375 10 .5 2.5h-1zm386 1 7.5 7.5-.5.5-7.5-7.5zm8 9 7.5 9.5q-1 1.5-2-1l-6-8zm13 19 2.5 3.5q-1 1.5-2-1zm-433 37 .5.5-5.5 5.5-.5-.5zm378 32 2.5 5.5h-1l-2-4zm3 7 4.5 13.5h-1l-4-12zm8 28 .5 2.5h-1zm-405 3 2.5 5.5h-1l-2-4zm406 3 .5 2.5h-1zm1 6 .5 3.5h-1zm1 10 .5 2.5h-1zm0 4 .5 11.5h-1zm-477 28 .5.5-2.5 2.5-.5-.5zm454 31 2.5 3.5-.5.5-2.5-2.5zm11 1 .5.5-2.5 2.5-.5-.5zm-494 29 .5 4.5h-1zm1 16 .5 2.5h-1zm3 14 3.5 8.5h-1l-3-7zm40 50 2.5 4.5h-1l-2-4zm3 19 .5 3.5h-1zm0 7 .5 5.5h-1zm2 12 1.5 2.5q-1 1.5-2-1z" opacity=".682"/><path fill="#989590" stroke="#989590" d="m402.5 79 .5 2.5h-1zm0 6 .5 6.5h-1zm93 179 3.5.5-3.5.5zm-5 8 .5 6.5h-1zm1 12 .5 3.5h-1zm101 3 .5 2.5h-1zm-100 5 .5 2.5h-1zm101 2 .5 2.5h-1zm-100 5 .5 2.5h-1zm101 3 .5 4.5h-1zm-100 4 .5 2.5h-1zm1 8 .5 3.5h-1zm100 0 .5 8.5h-1zm-99 9 .5 3.5h-1zm1 10 .5 4.5h-1zm1 14 .5 5.5h-1zm1 16 .5 9.5h-1zm96 6 .5 6.5h-1zm-1 16 .5 2.5h-1zm-547 108 3.5 3.5-.5.5-3.5-3.5zm28 65 2.5 2.5-.5.5-2.5-2.5zm108 46 2.5.5-2.5.5z" opacity=".376"/><path fill="#7878ff" stroke="#7878ff" d="m511.5 354 3.5.5-3.5.5zm7 1 3.5.5-3.5.5zm-2 5 .5 15.5-14.5.5-.5-1.5 14-1zm2 0 3.5.5-1 2v7q-2 1-1 5l-1.5 1.5zm78 39 37.5.5-.5 1.5-37.5-.5z" opacity=".008"/><path fill="#b3afab" stroke="#b3afab" d="m401.5 67 .5 4.5h-1zm1 7 .5 4.5h-1zm0 8 .5 2.5h-1zm5 29 2.5 3.5q-1 1.5-2-1zm162 103 1.5 2.5h-1zm6 12 1.5 3.5h-1q-1.7-1.5-.5-3.5Zm4 10 1.5 3.5h-1q-1.7-1.5-.5-3.5Zm-77 31 4.5 4.5-.5.5-4.5-4.5zm-390 44 3.5 4.5-.5.5-2.5-2.5zm483 65 .5 4.5h-1zm-95 6 .5 6.5h-1zm1 10 .5 3.5h-1zm92 4 .5 3.5h-1zm-562 80 2.5 2.5-.5.5-2.5-2.5zm3 4 3.5 3.5-.5.5-3.5-3.5zm6 7 3.5 3.5-.5.5-3.5-3.5zm11 10 2.5 2.5-.5.5-2.5-2.5zm499 8 .5.5-15.5 15.5-.5-.5zm-17 16 .5.5-3.5 3.5-.5-.5zm-46 25 .5.5-6.5 6.5-.5-.5zm-415 9 2.5 2.5-.5.5-2.5-2.5zm407 0 .5.5-8.5 8.5-.5-.5zm-401 6 2.5 2.5-.5.5-2.5-2.5zm367 10 7.5.5-7.5.5zm-48 1 4.5.5-4.5.5zm-90 31 2.5.5-2.5.5zm-11 1 7.5.5-7.5.5z" opacity=".286"/></svg>