<svg xmlns="http://www.w3.org/2000/svg" viewBox="0 0 440 640"><path fill="#0a0809" stroke="#0a0809" d="m170.5 88 2.5.5-2.5.5zm-10 1 1.5.5-2.5 1.5q-1.5-1 1-2Zm-4 3 .5.5-17.5 17.5-.5-.5zm58 7 2.5 3.5q-1 1.5-2-1zm-4 2 2 2 1.5-.5-1.5 1.5-2.5-2.5zm2 4 .5 2.5h-1zm11 6 3.5.5-3.5.5zm11 1 8.5.5-8.5.5zm18 1 7.5.5-7.5.5zm14 1 4.5.5-4.5.5zm10 1 2.5.5-2.5.5zm-145 1 .5.5-15.5 15.5-.5-.5zm151 0 2.5.5-2.5.5zm6 1 2.5.5-2.5.5zm-198 3 1.5.5-.5 1.5q-2.5-1-1-2Zm211 0 2.5.5-2.5.5zm-217 4 .5.5-2.5 2.5-.5-.5zm-5 4 .5.5-9.5 9.5-.5-.5zm32 7 .5.5-2.5 2.5-.5-.5zm-43 5 .5.5-2.5 2.5-.5-.5zm287 0 2.5 2.5-.5.5-2.5-2.5zm5 4 3.5 3.5-.5.5-3.5-3.5zm-304 13 .5 2.5h-1zm130 1 2.5 2.5-.5.5-2.5-2.5zm182 1 .5 2.5h-1zm-306 7 2.5 2.5-.5.5-2.5-2.5zm160 0 2.5 1.5-1.5-.5q-2.4-.1-1-1Zm-62 5 .5.5-13.5 13.5-.5-.5zm179 0 5.5.5-5.5.5zm7 1 1.5 2.5h-1zm-11 1 .5.5-2.5 2.5-.5-.5zm28 2 .5.5-2.5 2.5-.5-.5zm-184 3h14l1 1 5.5.5-.5 3.5-5-2h-15l-1 1h-4l-6 2-2 2-.5-.5 2.5-2.5zm50 1 9 1 3.5 2.5 1 4-.5.5-4-4-2-1h-9l-3 1 .5-1.5.5-1.5q3.3.8 4-1Zm17 1 8.5 8.5-.5.5-8.5-8.5zm113 0 .5.5-4.5 4.5-.5-.5zm-294 3 .5 2.5h-1zm204 0 4.5 4.5-.5.5-4.5-4.5zm83 3 .5.5-2.5 2.5-.5-.5zm-288 3 .5 2.5h-1zm165 1 3.5.5-3.5.5zm-45 1h5l6.5 4.5 2 5h-1q-1.1-5.4-5.5-7.5-2.2-1.8-7-1l-5.5 3.5-3 6-.5 6.5-.5-6.5 2-5 3.5-3.5zm42 0 1.5.5-5 4-1.5 3.5-.5-1.5zm8 0 5.5 4.5 2 5v8l-2 5-4.5 4.5-.5-.5 4-4 2-5v-8l-1-3-4.5-5.5q-2.4-.1-1-1Zm91 2 .5 2.5h-1zm14 0 .5 2.5h-1zm-276 3 .5 4.5h-1zm204 2 2.5 2.5-.5.5-2.5-2.5z" opacity=".886"/><path fill="#0a0809" stroke="#0a0809" d="m220.5 200 .5 9.5 2.5 4.5.5-1.5-1-3 1-3 3.5-3.5q5.8-.8 7.5 2.5 2 2.5 1 8l-3 4 .5 1.5q-8.3 1.3-10.5-3.5l-3-6zm-22 2 .5 6.5h-1zm-15 1q6.3-1.2 7.5 2.5l2 6-2 5 1.5.5q3.7-2.3 5-7l.5 1.5-5.5 6.5q-2.5 2-8 1l-6.5-4.5-2-5h1l3.5 6.5 1.5-.5q-3-2-2-8zm161 0 2.5 1.5-1.5.5q-2.5-1-1-2Zm-19 2 .5 2.5h-1zm21 1 2.5 2.5-.5.5-2.5-2.5zm-307 3 1.5.5-.5 2.5-1.5-2.5zm23 0 .5 15.5h-1zm264 0 2.5 2.5-.5.5-2.5-2.5zm23 1 1.5 2.5h-1zm9 1 2.5 2.5-.5.5-2.5-2.5zm-26 2 3.5 1.5-1.5.5-2.5-1.5zm31 2 3.5 3.5-.5.5-3.5-3.5zm-339 3 .5.5-2.5 2.5-.5-.5zm274 0 2.5.5-2.5.5zm-262 1-.5 1.5-3.5 7.5-.5-1.5zm274 1 2.5.5-2.5.5zm7 1 2.5.5-2.5.5zm-298 1 .5.5-8.5 8.5-.5-.5zm305 0 2.5.5-2.5.5zm-33 1 6.5.5-6.5.5zm79 1 2.5 2.5-.5.5-2.5-2.5zm-329 17 2.5.5-2.5.5zm138 0 4.5 4.5-.5.5-4.5-4.5zm-30 3 .5.5-9.5 9.5-.5-.5zm215 2 2.5.5-2.5.5zm-8 1 4.5.5-4.5.5zm-146 1 .5.5-2.5 2.5-.5-.5zm115 0 22.5.5-22.5.5zm-167 2 8.5 8.5-.5.5-8.5-8.5zm37 2 1.5.5 4 5-.5.5-5.5-5.5zm119 1 .5.5-8.5 8.5-.5-.5zm-110 1 8.5.5-8.5.5zm3 5 3.5.5-3.5.5zm47 0 .5.5-8.5 8.5-.5-.5zm-252 1 .5 2.5H2zm-1 5 .5 2.5H1zm302 0 .5.5-4.5 4.5-.5-.5zm18 1 .5 3.5h-1zm3 0 2.5 4.5h-1l-2-4zm-324 5 .5 3.5H0zm321 2 .5 1.5-2.5 2.5-.5-.5zm-23 1 1.5 2.5q-1 1.5-2-1zm-64 1 2.5 1.5-1.5-.5q-2.4-.1-1-1Zm70 3 10.5.5-10.5.5zm25 1 .5 5.5h-1zm-124 1 .5 4.5h-1zm38 2 1.5 2.5q-1 1.5-2-1zm-108 2 .5.5-13.5 13.5-.5-.5zm28 0 3.5 2.5-1.5.5-2.5-2.5zm62 2 .5 3.5h-1zm-183 1 1.5.5-.5 1.5q-2.5-1-1-2Zm-33 1 3.5.5-3.5.5zm261 0 2.5 2.5-.5.5-2.5-2.5zm-253 1 3.5.5-3.5.5zm152 0 3.5 3.5-.5.5-3.5-3.5zm-143 1 7.5.5-7.5.5zm178 0 .5 2.5h-1zm43 2 .5 2.5h-1zm-21 2 1.5 2.5q-1 1.5-2-1zm-52 1 3.5 3.5-.5.5-3.5-3.5zm55 3 2.5 1.5-1.5.5q-2.5-1-1-2Zm58 0 2.5.5-2.5.5zm6 1 5.5.5-5.5.5zm16 0 6.5.5-6.5.5zm-27 1 3.5 3.5-.5.5-3.5-3.5zm-237 1 .5 1.5q-1 2.5-2 1zm74 0 .5.5-2.5 2.5-.5-.5zm-98 1 1.5.5-1.5 4.5zm3 1 3.5 3.5-.5.5-3.5-3.5zm156 0 2.5 1.5v2l4 8h-1l-4-9-2-2zm-137 2 .5.5-4.5 4.5-.5-.5zm145 2 5.5 2.5-1.5.5-4-2zm50 0 .5 2.5h-1zm8 1 .5 1.5q-1 2.5-2 1zm43 1 2.5 2.5-.5.5-2.5-2.5zm-269 1 .5 3.5h-1zm14 0 2.5.5-2.5.5zm210 2 .5.5-3 3-7.5 8.5-.5-.5 7-7zm-27 3 9.5 9.5-.5.5-9.5-9.5zm-30 1 1.5 3.5h-1zm24 2 7.5 4.5-1.5-.5-5-2q-2.5-1-1-2Zm-22 3 .5 2.5h-1zm31 2 5.5 3.5-1.5-.5q-4-.5-4-3Zm-199 1 3.5 3.5-.5.5-3.5-3.5zm169 1 .5 2.5h-1zm42 0 .5 1.5-2.5 3.5-3.5-2.5 1.5-.5 2 2 .5-.5zm66 0 .5 2.5h-1zm-107 4 .5 5.5h-1zm1 9 .5 5.5h-1zm-120 5 2.5.5-2.5.5zm223 0 .5.5-8.5 8.5-5 2v-1l5-2zm-104 4 .5 4.5h-1zm-91 6 .5 2.5h-1zm90 0 .5 2.5-3 7-4.5 5.5-.5-.5 2-2 4-7zm-98 5q1.5 1-1 2l-3 1v-1zm10 1 2.5 2.5-.5.5-2.5-2.5zm-30 2 .5.5-2 2-.5 1.5-.5-1.5zm2 3 2.5.5-2.5.5zm37 4 2.5 2.5-.5.5-2.5-2.5zm69 1 .5.5-2.5 2.5-.5-.5zm-64 3 3.5 2.5-1.5-.5q-3.8-.7-2-2Zm57 2q1.5 1-1 2l-2 1q-1.5-1 1-2zm-6 3 1.5.5-3.5 1.5v-1zm-28 5 2.5.5-2.5.5zm56 0 2.5.5-2.5.5zm7 2 14.5 7.5-1.5-.5-13-6zm59 5 2 1 1.5-.5 1 2-1.5-.5-3-1zm-43 3 5.5 2.5-1.5.5-4-2zm9 4q3.3 1.8 3.5 6.5h-1v-2l-3-4zm65 3 2.5 2.5-.5.5-2.5-2.5zm-137 1 .5 3.5h-1zm57 1 3.5 3.5-.5.5-3.5-3.5zm55 2 11.5 11.5-.5.5-11.5-11.5zm28 0 2.5 2.5-.5.5-2.5-2.5zm-65 1 .5 2.5h-1zm18 0 8 4 10.5 9.5 5 7 11 23q-1 1.5-2-1l-1-4-9-18-8.5-10.5-6-5-8-4zm38 0 3.5 3.5-.5.5-3.5-3.5zm12 3 5.5 5.5-.5.5-5.5-5.5zm-69 1 .5 2.5h-1zm63 1 11.5 11.5-.5.5-11.5-11.5zm-135 1 .5 2.5h-1zm71 2 .5 2.5h-1zm-96 2 .5 2.5h-1zm95 2 .5 3.5h-1zm83 0 3.5 2.5-.5.5-2-2q-2.4-.1-1-1Zm-181 1 1.5.5-2.5 1.5q-1.5-1 1-2Zm97 5 .5 2.5h-1zm80 2 2.5 2.5-.5.5-2.5-2.5zm-81 3 .5 2.5h-1zm-69 3 .5 2.5h-1zm133 0 2.5 2.5-.5.5-2.5-2.5zm-65 2 .5 2.5h-1zm68 2 2.5 2.5-.5.5-2.5-2.5zm-69 2 .5 2.5h-1zm72 2 3.5 3.5-.5.5-3.5-3.5zm5 6 3.5 3.5-.5.5-3.5-3.5zm17 1 3.5 3.5-.5.5-3.5-3.5zm9 2 .5 2.5h-1zm-107 2 .5 1.5-7.5 13.5.5-1.5zm65 2 2.5 3.5q-1 1.5-2-1zm38 0 1.5.5 1 3h-1l-2-3zm-35 5 3.5 4.5-.5.5-2.5-2.5zm-98 5 .5.5-2.5 2.5-.5-.5zm106 4 5.5 3.5-1.5.5-4.5-3.5zm-112 2 .5.5-2.5 2.5-.5-.5zm135 0 4.5.5-4.5.5zm-9 1 2.5.5-2.5.5zm14 1 2 1 1.5-.5-2.5 1.5q-2.5-1-1-2Zm-119 7 .5.5-3.5 3.5-.5-.5zm98 4 .5 2.5h-1zm-107 5 1.5.5-3.5 2.5-.5-.5zm-21 7 6.5.5-4.5 1.5-2.5-1.5zm166 0 1.5 3.5h-1zm-16 2 3.5 3.5-.5.5-3.5-3.5zm-158 1 .5 1.5q-1 2.5-2 1zm163 1 1.5 3.5q-1 1.5-2-1zm14 5 1.5.5-.5 3.5-1.5-2.5zm-229 2 2.5 2.5-.5.5-2.5-2.5zm197 1 2.5 2.5-.5.5-2.5-2.5zm-151 1 .5.5-5.5 5.5-.5-.5zm19 0 .5 2.5h-1zm167 3 2.5 4.5h-1l-2-4zm-28 3 2.5 2.5-.5.5-2.5-2.5zm33 8 .5 4.5h-1zm-152 4 .5 3.5h-1zm139 0 2.5 2.5-.5.5-2.5-2.5zm-11 2 .5 2.5h-1zm22 1 .5.5-5.5 5.5-2.5-1.5 1.5.5zm-177 4 .5.5-4.5 4.5-.5-.5zm177 5 .5 2.5h-1zm-296 3 4.5 4.5-.5.5-4.5-4.5zm277 2 .5 2.5h-1zm20 0 .5 2.5h-1zm-156 1-.5 1.5-2.5 3.5-.5-.5 2-2zm137 4 .5 3.5h-1zm21 4 .5 2.5h-1zm-20 3 .5 2.5h-1zm-140 2 .5 2.5h-1zm141 4 .5 3.5h-1zm21 0 .5 2.5h-1zm-188 2 1.5.5-2.5 1.5q-1.5-1 1-2Zm-5 1 2.5.5-2.5.5zm31 0 .5 3.5h-1zm-52 1 15.5.5-15.5.5zm194 4 .5 4.5h-1zm22 1 .5 2.5h-1zm1 5 .5 2.5h-1zm1 5 1.5 3.5-.5.5-2.5-2.5zm-23 1 .5 7.5h-1zm26 7 .5 2.5h-1zm-171 5 .5 2.5h-1zm-152 5 6.5 6.5-.5.5-6.5-6.5zm119 3 .5.5-5.5 5.5-.5-.5zm179 0 .5 3.5h-1zm3 9 2.5 2.5-.5.5-2.5-2.5zm18 0 .5.5-4.5 4.5-.5-.5zm-14 3 1.5 1.5-3.5 3.5-.5-.5 3-3zm-24 5 4 3 8.5.5-5.5 1.5-7-4-3 4-.5-.5 2-2zm-14 5 2.5.5-2.5.5zm-129 4 .5.5-2.5 2.5-.5-.5zm66 5q2.8 5.3 9.5 6.5l-2.5.5-7-6q-1.2 2.3-6 1v-1q4.8 1.2 6-1Zm-11 2 2.5.5-2.5.5zm-61 1 2.5 2.5-.5.5-2.5-2.5zm56 0 1.5.5 1 3h-1l-2-3zm-30 3 .5 1.5-2.5 2.5-.5-.5zm67 0 2.5.5-2.5.5zm-133 2 2.5.5-2.5.5zm19 0 2.5.5-2.5.5zm35 1 3.5.5-3.5.5zm24 1 6.5.5-6.5.5zm10 0 3.5.5-3.5.5z" opacity=".886"/><path fill="#39017b" stroke="#39017b" d="m274.5 292 4.5 4.5-.5.5-4.5-4.5zm-27 16 9.5 12.5 4 9 3 9v3l1 1q-1.2 4.7 1 6v10l1 1-1 1v7q-1.7.8-1 4l-5.5 11.5-1.5-.5-1 2 .5 1.5-1.5.5q2 1 0 2l-5 8-3 6v2l7 4q-2.2 1.2.5 2.5l1-2 1.5 2.5-1 1 6.5 6.5.5-1.5-4-4 .5-.5 3.5 2.5 2.5 4.5 2.5 1.5-1.5.5-2-2-.5.5 3.5 5.5.5-1.5-.5-1.5 2.5 1.5-.5 1.5 1.5.5-.5 1.5 1.5.5 3 6-2 1 .5 1.5 2-1v1l-1.5.5.5 1.5 2-1v1l-1.5.5.5 1.5 2-1v1l-1.5.5-.5 1.5-7-13-2-1h-34l-1-1-6.5-.5.5-2.5 1 2 .5-3.5-1-3h1l.5 1.5.5-4.5-1-2h1l.5 1.5.5-3.5-1-2h1l.5 1.5.5-3.5-1-2h1l.5 1.5.5-2.5q-1.7-.7-1-4l1-3h-2l1-1-3.5-3.5-1.5.5.5-1.5-2 1v-2l-2 1v-2l-2 1-1-2-2 1-2-3-1.5.5-.5-1.5q-1 2-2 0l-8-4-7-2-4.5-4.5-8-10q6.2-5.3 7.5-15.5l1.5.5-1-8h1l.5 3.5.5-14.5h-1l-.5 4.5-.5-4.5q2.2-1.2 1-6h-1l-.5 1.5-.5-1.5q1.8-.7 1-4h-1l-.5 1.5-.5-1.5 2.5-4.5 6-2h3l3-2v2l2-1v2l2-1v2l2-1v2l2 1 1.5-.5.5 1.5 1.5-.5-.5 1.5 2-1v2l2-1v2l2 1 1.5-.5.5 1.5 1.5-.5-.5 1.5 2-1v2l2 1 1-1 1 1 1.5-.5.5 1.5.5-2.5-.5-1.5 1.5.5-1-2 3.5-3.5 1.5.5 1.5-2.5 1.5 3.5 2 14 1.5 2.5h5q.5 2.5 4 2 1-2 2 0 4-.5 4.5 2.5v6l-5.5 6.5-6.5 3.5.5 3.5 6-1 6.5-2.5-1-5 1.5.5 3.5-.5-1-12-1-1-2-10-6-13-6.5-8.5q-1.8 3.8-3.5.5l1.5.5 1.5-1.5zm-2.5 33-4 7 1 5q1 2 2 1l-1-3v-2q3-1 3 2t-2 4l2 5 10-5 3-4v-5l-2-3q-6 1-7-2zm20 19-7 3v1l6-2v4h1zm-1 8-5 3 1 2 2-1 1 2 1-3zm-16 25-6 8 4 1 1 2 4-9q0-2-3-2Zm-15 9-1 3h1z" opacity=".976"/><path fill="#39017b" stroke="#39017b" d="m243.5 314 1 1 1.5-.5-4.5 4.5-.5-.5 2-2q-2.2-1.2.5-2.5Zm3 28 3.5 1.5-.5 1.5-2-1-3 1-.5-1.5zm7 2 1.5.5.5 1.5 1.5-.5-1 1 .5 1.5-1.5-.5-2-3zm2 5 1.5.5-.5 1.5-1.5-.5zm-2 2q2.5 1 1 2l-1.5-.5zm-2 1 1.5 2.5-4.5 2.5.5-1.5.5-2.5zm-4 1 .5 1.5-1.5.5q-1.5-1 1-2Zm-22 77 .5 2.5h-1zm53 12 1.5.5q-2.5 1.5 1 3l1 2-1.5 1.5-6 1-4 2h-4l-6 2h-6l-1 1h-26q-1.2-2.3-6-1l-1.5-1.5 1.5.5h7l1 1h22l1-1 13-1 1-1 7-1 6.5-2.5-.5-1.5-1.5.5 1-2h-2z" opacity=".976"/><path fill="#34320d" stroke="#34320d" d="m211.5 109 1.5.5-2.5 1.5q-1.5-1 1-2Zm-73 1 .5.5-6.5 6.5-.5-.5zm93 2 2.5.5-2.5.5zm17 1 3.5.5-3.5.5zm-45 1 2 1 1.5-.5-2.5 1.5q-2.5-1-1-2Zm-3 13 .5.5-2.5 2.5-.5-.5zm-85 5 .5.5-2.5 2.5-.5-.5zm71 19 2.5.5-2.5.5zm44 0 2.5.5-2.5.5zm-22 8 9.5 5.5-1.5.5-7-4q-2.5-1-1-2Zm-55 3-.5 1.5-.5 1.5-.5-1.5zm107 0 2.5 5.5h-1l-2-4zm-201 1 2.5 2.5-.5.5-2.5-2.5zm160 2 2.5 1.5-1.5-.5q-2.4-.1-1-1Zm-57 3-.5 1.5-.5 1.5-.5-1.5zm70 0 3.5.5-3.5.5zm-24 1 2.5.5-2.5.5zm7 1 4.5.5-4.5.5zm-65 1-.5 1.5-.5 1.5-.5-1.5zm115 4 .5 2.5h-1zm3 7-.5 1.5-.5 1.5-.5-1.5zm-121 4v3l-1-1-1.5.5zm-8 1 2.5 1.5-2.5 1.5zm130 2 1.5 3.5h-1zm-123 2 .5 3.5h-1zm125 3 1.5 3.5h-1zm14 0 3.5 1.5-1.5.5-2.5-1.5zm-153 2 1.5.5-7.5 3.5v-1zm13 2 .5 2.5h-1zm134 0 2.5 3.5h-1l-2-3zm-10 1 2.5 1.5-1.5.5q-2.5-1-1-2Zm4 0 1.5 2.5h-1zm51 0 .5 3.5h-1zm-201 1 1.5.5-7.5 2.5v-1zm179 0 2.5.5-2.5.5zm-239 1 .5 2.5h-1zm80 1 1.5.5-.5 1.5q-2.5-1-1-2Zm-30 1 2.5.5-2.5.5zm171 0 6.5.5-6.5.5zm14 0 7.5.5-7.5.5zm-192 1 4.5.5-4.5.5zm-14 1 9.5.5-9.5.5zm191 0 .5 2.5h-1zm-194 1 3 2 6.5 1.5-3.5.5-5-2q-2.5-1-1-2Zm36 3 3.5.5-3.5.5zm-25 1 21.5.5-21.5.5zm28 1 1.5.5-.5 8.5-.5-7.5zm95 1 .5 1.5q-1 2.5-2 1zm-44 2 2.5 1.5-1.5.5q-2.5-1-1-2Zm104 1 .5 4.5h-1zm-50 2 1.5.5-.5 1.5q-2.5-1-1-2Zm68 1 2.5 1.5-1.5.5q-2.5-1-1-2Zm45 0 2.5.5-2.5.5zm-232 2 1.5.5-3.5 1.5v-1zm199 0 3.5 1.5-1.5.5-2.5-1.5zm-31 2 .5 2.5h-1zm41 0 3 1 2-1 .5 1.5-16.5.5v-1h10zm-36 1 3.5.5-3.5.5zm11 0 9.5.5-9.5.5zm-191 1 1.5.5-13.5 6.5v-1zm19 6 2.5.5-5.5 1.5v-1zm-34 1 1.5.5-3.5 1.5v-1zm27 1 2.5.5-2.5.5zm-6 1 3.5.5-3.5.5zm-7 1 5.5.5-5.5.5zm172 0 1.5 2.5h-1zm-190 1 14.5.5-14.5.5zm289 2 .5 2.5h-1zm-226 1 1.5 2.5q-1 1.5-2-1zm115 2-.5 1.5-2.5 5.5-.5-1.5zm-219 2 4.5.5-4.5.5zm234 0q1 2 2 0l1.5 1.5-2.5.5q-2.5-1-1-2Zm72 5 2.5.5-2.5.5zm-37 3 .5.5-2.5 2.5-.5-.5zm-94 1 .5.5-3.5 3.5-.5-.5zm-83 3q1.5 1-1 2l-1.5-.5zm65 5 2.5.5-2.5.5zm101 3 .5.5-2.5 2.5-.5-.5zm-60 6q1.5 1-1 2l-1.5-.5zm-245 7 .5 4.5H0zm238 2 4.5 4.5-.5.5-4.5-4.5zm-32 3 3.5.5-3.5.5zm10 0 4.5.5-4.5.5zm34 0 5.5.5-5.5.5zm25 12 4.5 4.5-.5.5-4.5-4.5zm49 2 .5.5-3.5 3.5-.5-.5zm-278 2 .5 3.5h-1zm253 3 9.5.5-9.5.5zm-61 4 .5 3.5h-1zm-139 41 .5 6.5h-1zm174 12 1.5.5-2.5 1.5q-1.5-1 1-2Zm-119 25 1.5.5-.5 1.5q-2.5-1-1-2Zm-9 1 5.5.5-5.5.5zm-21 39 .5.5-2.5 2.5-.5-.5zm167 40 3.5 3.5-.5.5-1.5-.5-.5-1.5-1.5-.5zm21 7 2.5 1.5-1.5-.5q-2.4-.1-1-1Zm3 3 .5 2.5h-1zm-147 4 .5 2.5h-1zm1 5 .5 3.5h-1zm31 0 .5 1.5-3 2-.5 1.5-1.5-.5zm-31 5 .5 2.5h-1zm27 1q2 .5 1.5 3.5h-1zm-19 12 1.5.5-.5 1.5q-2.5-1-1-2Zm137 9 3.5 3.5-.5.5-3.5-2.5zm10 8 1 2 1.5.5-1.5.5q-2.4-.9-1-3Zm12 8 1.5 4.5q-1 1.5-2-1zm-148 25 .5 1.5-2.5 1.5-.5-.5zm4 9 .5 3.5h-1zm-1 13 .5 2.5h-1zm144 5 .5 2.5h-1zm0 11 .5 2.5h-1zm-145 1 .5 2.5h-1zm25 52 2.5.5-2.5.5z" opacity=".992"/><path fill="#740807" stroke="#740807" d="M195.5 97h6l4 2q1.5-3.5 8-2l3.5 2.5 1 2v9q-2 5.5-6.5 8.5l-3.5 2.5-2.5 4.5-1.5-.5-5.5-7.5-5.5-4.5-1-3v-9zm3.5 1-3 1-3 3 1 4v-1l4-1 2-3q3 0 4 2v-2l-1-2zm12 0-3 1-2 3 2-1 3 1 1-3zm3 1-3 4q1 2 4 1v-1l-1-1h-1l2-2zm3 3-1 2-2 2-1-1-1 3h2l1 3q1 1 2-1zm-21 3-1 3h-2l1 1 4-1zm2 4-3 1-1 3 7 5 1-3zm14 0-2 2 1 2h2v1l-3-2-4 3-2-1-3 5 1 2 4 2v-1l7-6q3-1 2-4z" opacity=".992"/><path fill="#740807" stroke="#740807" d="m205.5 116 .5 2.5-2.5 1.5-.5-1.5h2zm-7 26h23l1 1h8l1 1 14 2 12 4 1.5 1.5-.5 5.5-7-3h-5l-6-2h-7l-1-1h-46l-1 1h-8l-1 1-11 1-1 1h-3l-9 3q-2.2-.7-1.5-4.5l3.5-2.5 12-4 7-1 1-1 11-1 1-1h11zm0 109 1.5.5-2 1-.5 1.5-.5-1.5zm21 0 .5 2.5-1.5.5-.5-1.5zm-18 2 2.5.5q-.5 2-3.5 1.5-1.5-1 1-2Zm12 0 2.5.5-.5 1.5q-3.8-.7-2-2Zm5 2 .5.5-2.5 2.5-.5-.5zm27 86q4.1-.6 5.5 1.5l.5 1.5q1-2 5-1 3.3.8 2.5 5.5h-1l-.5-1.5-1.5-.5q2.2-1.2-.5-2.5l-3.5.5 3 2 1 2-2 1 .5 1.5-1.5.5-.5 1.5q-1-2-2 0l-2 1-4-8-1.5 1.5.5 1.5-1.5.5 4.5 8.5 5-3h2l3.5-3.5.5-1.5.5 1.5-4.5 4.5q-4.7.8-7 4l-5.5-9.5v-2q1.8-.7 1-4zm.5 1-3 3 1 1 4-2 2 1h1q-1-4-5-3Zm25.5 18 6.5.5 1 5-2.5.5q-1-2-2 0-5.5-1-8 1l.5-1.5.5-4.5q3.2.8 4-1Zm-2 9 11.5.5 1 4-2.5.5-2-1-1 1h-5l-6 3h-2l.5-1.5 1-4 1.5-1.5zm-114 14 6.5.5q1 4.5-1.5 5.5-2.2 1.8-7 1l-1 1h-12q-1-2-2 0l-2.5-1.5 2.5-4.5 2-1q1 2 5 1l1-1h8zm-3 9 7.5.5 1 5q-1 3.5-6.5 2.5l-5-2h-5l-9 3-.5-6.5 4.5-.5 1-1h11zm145 200q4.1-.6 5.5 1.5l.5 1.5q1.8-1.7 6-1l2.5 1.5q2.2 2.8 1 9l-3.5 4.5q-5.2 1.8-8 6l-2.5-5.5-5-6v-8l1.5-2.5zm.5 1q-4 1-3 8h2l1-2-2-1 4-2 3 1h5v2l3 2-3 2 2 1-7 3q-1-2-2 0v-1l-2-5-4 2 2 4 3 1 2 5 5-4 3-1 2-3v-7h-1v-1l-2-2q-4-1-4 1l-4-3zm-94.5 19h4l3.5 3.5 1 4h-1v-2l-2.5-3.5-1.5.5.5-1.5-2 1q-1-2-2 0l-2.5 1.5.5 1.5 4-1 2 1 1.5-.5-.5 1.5-1.5.5 3 2-2 1 .5 1.5 1.5.5-1.5.5q-1.2-2.2-2.5.5l-1.5 2.5-7-3-1.5 2.5 3.5 2.5h3l5 3 3.5-7.5.5-3.5.5 3.5-4.5 9.5q-3.7-3.8-10-5l-3.5-3.5-2-4v-4q1.5-4 8.5-2.5zm-7.5 4q-4 1-3 6h2l-1 2q2 3 3 0l-1-2 1-3 4-1q-1-3-5-2Z" opacity=".992"/><path fill="#460682" stroke="#460682" d="m183.5 306 8 4h2l19.5 10.5-1.5-.5-9-4-1 1h-3l-6 2-1.5 1.5 1 6 1 1v5l1 1v14h-1v-14q-2.3-1.2-1-6l-5-15-4-6zm64 3 3 4 1.5-.5q-2 1 0 2l.5 1.5q1.3-2.2 2.5.5h-2l1.5 2.5 1.5-.5-1 2 3.5 6.5 1.5-.5-1 3 1.5 2.5 1.5-.5-1 3h2q-1.7.8-1 4l2 5 1 12-3.5.5-1.5-.5 1 5-6.5 2.5-6 1-.5-3.5q2.5-1.5-1-3l1.5-2.5-.5 1.5 1.5 2.5 6.5-3.5q-2.2-1.2.5-2.5 1.3 2.3 2.5-.5l-1-2h2q1.5-7-2.5-8.5l-3-1-3 1-2-2-5.5-.5q-1.7-1.8-1-6l-1-1v-4l-1-1v-4l-1.5-3.5-5.5 6.5-1.5 4.5-.5-2.5zm-33 12 7.5 4.5-1.5-.5-5-2q-2.5-1-1-2Zm9 5q4.8 1.7 7.5 5.5l-.5.5-3-3q-4-.5-4-3Zm-31 23 .5 3.5h-1zm74 5 .5 4.5h-1zm-2 6 .5 5.5h-1l-.5-3.5-6 2v-1zm2 1 .5 2.5h-1zm-3 7 .5 2.5-1.5 3.5-1-2-2 1-.5-2.5zm-5 14 .5 1.5q-1 2.5-2 1zm-37 10q7.2 1.8 10.5 7.5l1 5h-1l-1-5-4.5-4.5-5-2zm26 1q3-.5 3.5 1.5l1 2h-2l-3.5 7.5-1-2-3.5-1.5zm-16 13 .5 2.5-1 1-2.5 12.5-.5-4.5 1-1v-3zm-4 17 .5 3.5h-1zm-1 5h6l1 1h34l3.5 2.5 8 16-5 2 .5 1.5q-.7-1.7-4-1l-4.5 1.5.5 1.5q-1.2-2.2-6-1l-1 1h-7l-1 1h-22l-1-1h-7l-2 1-.5-2.5 4-8v-3l2-4z" opacity=".996"/><path fill="#787308" stroke="#787308" d="m166.5 88 2.5.5-2.5.5zm-9 4 .5.5-8.5 8.5-.5-.5zm35 7 1.5 2.5q-1 1.5-2-1zm-1 5 .5 3.5h-1zm4 2 1.5.5q-1 2.5-2 1zm16 6q3-.5 3.5 1.5l-1.5-.5q-3 .5-2-1Zm33 1 3.5.5-3.5.5zm17 1 2.5.5-2.5.5zm-130 3 .5.5-4.5 4.5-.5-.5zm67 1 2.5 2.5-.5.5-2.5-2.5zm12 1 .5.5-2.5 2.5-.5-.5zm16 10q2.5 1 1 2l-1-1-1.5.5zm16 4 2.5 1.5-1.5.5q-2.5-1-1-2Zm-79 1 1.5.5q-1 2.5-2 1zm-90 1 .5.5-2.5 2.5-.5-.5zm131 6 12.5.5-12.5.5zm-14 1 3.5.5-3.5.5zm69 10 .5 2.5h-1zm-56 2 2.5 1.5-1.5.5q-2.5-1-1-2Zm-52 3 .5 2.5h-1zm69 13 2.5.5-2.5.5zm138 10 .5.5-3.5 3.5-.5-.5zm-84 16 2.5.5-2.5.5zm-138 4 3.5.5-3.5.5zm169 0 1.5 3.5h-1zm-194 3 1.5.5q-1 2.5-2 1zm180 0 6.5.5-3.5 1.5-3-1zm-228 1 .5 2.5h-1zm24 0q3.8-.7 4.5 1.5l-3.5 1.5v-2q-2.4-.1-1-1Zm16 0 2.5.5q-.5 2-3.5 1.5-1.5-1 1-2Zm20 5 1.5.5-2.5 1.5q-1.5-1 1-2Zm162 5 .5 1.5-1.5.5q-1.5-1 1-2Zm78 2 3.5 3.5-.5.5-3.5-3.5zm-41 5 .5 1.5-1.5.5q-1.5-1 1-2Zm-36 1 1.5.5-2.5 1.5q-1.5-1 1-2Zm22 1 7.5 1.5-13.5.5v-1q4.8 1.2 6-1Zm-221 10 .5 2.5-3.5.5v-1l2.5-.5zm-58 1 .5 3.5h-1zm75 0 1.5.5-2.5 1.5q-1.5-1 1-2Zm47 7 .5 1.5-2.5 1.5-.5-.5zm168 6 3.5.5-3.5.5zm31 0 2.5.5-2.5.5zm-37 6 .5.5-2.5 2.5-.5-.5zm-289 13 2.5 2.5-.5.5-2.5-2.5zm298 4 .5 2.5h-1zm-151 4 .5.5-2.5 2.5-.5-.5zm-129 12 1.5.5-2.5 1.5q-1.5-1 1-2Zm-22 30 .5 2.5h-1zm57 31 .5 4.5h-1z" opacity=".992"/><path fill="#7e7699" stroke="#7e7699" d="m176.5 202 .5 4.5h-1zm60 7 .5 2.5h-1zm-46 67 6 3 8.5 2.5q.8 3.3-1 4v6l-1 3-2.5 2.5-7 2-1.5-1.5 1-1-3-3 .5-.5 3 3 4 1 4.5-2.5 1-3v-7l1-2-13.5-5.5zm-8 2 2.5 1.5-2.5 1.5-1-1-1.5.5zm44 3 .5 8.5 2.5 7.5 6 2-.5-1.5q-1.7-1.8-1-6l-1-1 1-3-2-2 .5-.5 5.5 5.5-1 1 .5 1.5q1.3-2.2 2.5.5h-2l2 5v3l-1.5-.5q-6.9-.6-10.5-4.5-1.7-1.8-1-6l-1-1zm25 0 1.5.5-1 1v7l1 1v8q2 1 1 5l1 1v3l4 12 9 18 7.5 10.5 2.5.5-.5 1.5-1.5-.5q1 4.5-1.5 5.5l-4-4-.5.5 1 3q-.5 2-3.5 1.5l-.5-4.5-1-1v-6l-1-1v-3l-1-1v-3l-2-6-5-11-8-10-1-5q3-2 2-8l-2-3 1-2q-3.5-1.5-1-3l-.5-1.5-1.5-.5.5-1.5-2.5-1.5h2l.5-1.5 3 1z" opacity=".988"/><path fill="#7e7699" stroke="#7e7699" d="m228.5 282 1.5 1.5-1 1 3 3-.5.5-3.5-3.5 1-1zm-48 2 1 2 1.5-.5q-1.5 3-3 0zm2 4q1 2 2 0l4.5 4.5-1 1 2 2-.5.5-7.5-7.5zm-55 9-.5 1.5-3 8v4l-1 1q1.2 4.8-1 6v9l1 1v6q1.8.8 1 4l2 6 1.5 1.5h6q.8-1.7 4-1l6-3h2l4-3 .5 1.5-11.5 5.5-11.5 1.5 8 13 13 14v2l-1.5.5-3-2-1 2h-3l-8-7-.5 1.5 8 7-3.5.5-1-1-7-1v1l9 3h7l3 1 1-1h8l4.5-1.5-2.5-1.5-1.5.5 1.5-2.5 1 2 .5-2.5-1-2h1l.5 1.5.5-2.5-1-2 1.5-.5.5 4.5-1 2 2.5.5-.5-1.5 1.5-1.5v2l2.5-1.5q-2.2-1.3.5-2.5v2l2.5-1.5q-2.2-1.3.5-2.5v2l2.5-1.5q-2.2-1.2.5-2.5l2 2 1.5-.5-1.5 1.5-1.5-.5 1 2-1.5-.5-2.5 2.5 3 1-16.5 6.5-15 1-16.5-5.5 2-1-3.5-.5-2.5-2.5-.5-1.5-4-2-9.5-9.5-4-8v-5l-1-3 1-1 1-9 4-9 9-14zm-8.5 44q-2 1 1 2h1zm5 3v1h2zm37 33v1h2zm79.5-74 .5 2.5h-1zm-78 26 .5 1.5-2.5 1.5-.5-.5zm136 1 .5 3.5h-1zm-140 2 .5 1.5q-1 2.5-2 1z" opacity=".988"/><path fill="#7e7699" stroke="#7e7699" d="m154.5 335 1.5.5q-1 2.5-2 1zm-3 2 1.5.5q-1 2.5-2 1zm-51 6 .5 2.5h-1zm193 1 .5.5-5.5 5.5-.5-.5zm-13 7q1 2 2 0l3.5.5-4.5 1.5q-1-2-2 0l-1.5-.5zm-104 13q3 1.5 0 3l-1-1-1.5.5zm94 41 6.5 6.5-.5.5-6.5-6.5zm22 5 2.5 2.5-.5.5-2.5-2.5zm8 8 2.5 2.5-.5.5-2.5-2.5zm-21 31q1 2 2 0l1.5.5 2 5 4 6 6 6 1 3q-1 1.5-2-1v-2l-7-7-5.5-9.5-1 1q-2.5-1-1-2Zm-49 6 4.5.5-4.5.5zm16 0 4.5.5-4.5.5zm-34 11-.5 1.5-3.5 6.5-1.5-.5zm-113 1 4.5 1.5q-2 1 0 2l-1.5 3.5h-3l-3.5-1.5v-2zm191 0 2.5 2.5-.5.5-2.5-2.5zm29 1q3-.5 3.5 1.5l-.5 1.5-1-2-4.5 1.5 1 2q-1 1.5-2-1l.5-2.5zm-24 3q3 .5 2.5 4.5h-1v-2l-2-2zm17 0q1.5 1-1 2l-8.5-.5 8.5-.5zm-141 1 2.5.5-2.5.5zm128 2 1.5 2.5v4l1 1v3l1 1v3l2 6 6 11 7.5 7.5 2-1-.5 1.5 2 2q.5 3-1.5 3.5l.5-1.5-1.5-1.5-1.5.5.5 1.5-1.5-1.5q2.3-1.2-.5-2.5l-2 1-5.5-5.5 1-1-.5-1.5q-1.3 2.3-2.5-.5l1-2h-2l1-2h-2l1-2h-2l1-2h-2l1-3h-1l-.5 1.5-.5-1.5q1.8-.7 1-4h-1l-.5 2.5-.5-2.5q1.8-.7 1-4l-1-1v-4l-1.5-4.5-1 3-.5-2.5zm-196 1 .5 3.5h-1zm103 0 1.5.5-3 2 .5 1.5-1.5-1.5zm-3 4-.5 1.5 1 1-1.5 1.5-1-1-2.5 2.5.5 1.5 1.5-.5-2.5 2.5-.5-.5.5-1.5-1.5-.5z" opacity=".988"/><path fill="#7e7699" stroke="#7e7699" d="m299.5 483 .5 2.5h-1zm-106 3 1 1 1.5-.5-1.5 1.5q-2.5-1-1-2Zm3 2 .5.5-5.5 5.5-2 1q-1.5-1 1-2zm-27 4 6.5 1.5q-.6 4.6 2 6-1 1.5-2-1l-1.5-4.5-5-1-1.5 3.5.5 1.5-1.5-.5v-2zm15 4 1.5.5q-1.4 2.1-5.5 1.5v-1q3.2.7 4-1Z" opacity=".988"/><path fill="#7e7699" stroke="#7e7699" d="m171.5 498 2.5.5-2.5.5zm-12 9 .5.5-3.5 3.5-.5-.5zm137 6 1.5 3.5q-1 2.5-2 1zm2 6 .5 1.5-1.5 4.5-.5-3.5zm-230 3 2.5 3.5-.5.5-2.5-2.5zm257 0 .5 2.5-1.5 2.5-.5-1.5zm12 2 2.5 1.5 2 7h-1l-.5-2.5-2 1-.5-5.5zm-11 2 1.5 7.5h-1l-.5-3.5-1 2-.5-1.5zm-28 2 .5 2.5h-1zm30 7 .5 4.5-1.5 3.5-.5-2.5 1-1zm-228 4 1.5.5q-1 2.5-2 1zm200 0 .5 2.5h-1zm-195 1 1.5.5q-1 2.5-2 1zm6 1 1.5.5q-1 2.5-2 1zm84 0 .5 1.5-3.5 5.5-.5-1.5zm134 0 .5 3.5-1.5 3.5-.5-2.5zm-210 1 1.5.5-2.5 1.5q-1.5-1 1-2Zm-59 1-.5 1.5 1.5 1.5 2-1-.5 1.5 1.5 1.5 2-1v2l4 2 1.5-.5-.5 1.5 2-1v2l3 1 1.5-.5-.5 1.5 2-1v2l4 1 1.5-.5-.5 1.5 6 1 1.5-.5-.5 1.5 9 1 1 1h8l1 1 29.5.5.5 1.5 15.5.5-33.5.5-1-1h-13l-1-1h-7l-1-1h-4l-1-1-7-1-16-7-13.5-9.5zm70 0h9l1.5 1.5-3.5.5q-1-2-5-1-.7 1.8-4 1v-1zm171 1 .5 2.5h-1zm29 2 .5 4.5-1.5 4.5-.5-3.5 1-1zm-28 3 .5 2.5h-1zm-114 2 .5.5-2.5 2.5q-2.5-1-1-2 1.5 2.5 3-1Zm143 1 .5 5.5-1.5 4.5-.5-3.5 1-1zm-147 2 .5.5-2.5 2.5-.5-.5zm119 0 .5 2.5h-1zm2 0 .5 2.5h-1zm-129 2 2.5 2.5-.5.5-2.5-2.5zm61 2 .5 9.5 1 1v7l-1 1-.5 23.5zm95 1 .5 6.5-1 1-.5 4.5-.5-4.5 1-1zm-159 1 1.5.5-3.5 1.5v-1z" opacity=".988"/><path fill="#7e7699" stroke="#7e7699" d="m112.5 561 3.5.5-3.5.5zm50 1 2.5.5-2.5.5zm-21 1h19l3.5 1.5-2.5.5-1-1h-19zm192 4 .5 9.5-1 1-.5 8.5-.5-8.5 1-1zm-13 5 .5 2.5h-1zm-40 3 1.5 9.5q-1 2.5-2 1zm28 3 .5 2.5h-1zm13 0 .5 2.5h-1zm13 1 .5 17.5h-1zm-143 2 .5 6.5h-1zm-155 2 .5 4.5h-1zm203 1 .5 6.5h-1zm83 0 .5 3.5h-1zm-40 5 .5 2.5h-1zm28 0 .5 2.5h-1zm51 1 .5 3.5h-1zm-38 1 .5 2.5h-1zm-144 1 .5 6.5 1 1v8l-1 1-.5 9.5zm102 1 .5 5.5h-1zm25 0 2.5.5-2.5.5zm-117 1 1.5 2.5h-1zm123 0q3.5 2 2.5 8.5h-1v-5l-2-3zm-6 1 1 1 1.5-.5-1.5 1.5-1-1-1.5.5zm-66 1 .5 5.5h-1zm43 0 .5 2.5h-1zm41 1 .5 3.5h-1zm-31 1 .5 2.5h-1zm40 0 .5 2.5h-1zm-38 1 2.5 2.5-.5.5-2.5-1.5zm14 0 2.5 1.5-1.5-.5q-2.4-.1-1-1Zm26 0 1.5 5.5q-1 2.5-2 1l1-2h-2zm-51 3 .5 2.5h-1zm27 1 .5.5-2 2-2.5 3.5-.5-.5 2-2-1-2 1.5.5zm-29 1 .5 5.5h-1zm31 0 .5 1.5-1.5.5q-1.5-1 1-2Zm12 0 .5 2.5h-1zm12 2 5.5 6.5q-1 2.5-2 1 2.5-1.5-1-3l-3-4zm-96 1 .5 4.5h-1zm55 0 1 1 1.5-.5-1.5 1.5q-2.5-1-1-2Zm5 0-.5 1.5.5 1.5 1.5.5-1.5.5-1.5-2.5zm-16 1 .5 2.5h-1zm28 0 .5 3.5h-1zm-203 1 1.5.5q-1 2.5-2 1zm127 0 .5 20.5h-1zm89 0 .5 2.5h-1zm-210 1 1.5.5-2.5 1.5q-1.5-1 1-2Zm65 1 .5 3.5h-1zm27 1 2.5 2.5-.5.5-2.5-2.5zm96 0 .5.5-2.5 2.5-.5-.5zm15 1 .5.5-3 3-.5 1.5-.5-1.5zm-166 1 .5 10.5-1 1 .5 1.5-3.5-4.5h1l1.5 2.5.5-7.5-1-2zm42 0 3.5.5-3.5.5zm91 0 .5 2.5h-1zm35 0 5 3 1-2 .5 2.5-2.5.5-4.5-3.5zm-38 1 .5 5.5h-1zm-41 1 .5 3.5h-1zm72 0 .5 2.5h-1z" opacity=".988"/><path fill="#7e7699" stroke="#7e7699" d="m151.5 618 .5 2.5h-1zm134 1 .5 2.5h-1zm-75 1-.5 1.5 1 1-.5 2.5-2.5-.5 2-1-.5-1.5-1.5-.5zm77 0 .5 3.5-1.5 2.5-.5-1.5zm-107 1q2.5 1 1 2-1.2-2.2-2.5.5l-.5 1.5-.5-1.5zm0 3 1 1 1.5-.5-2.5 2.5-.5-.5 1-1zm63 0 .5 2.5h-1zm41 1 .5 2.5h-1zm-90 1 1 1 1.5-.5-1 1 .5 1.5-2.5-2.5zm45 2 2.5.5-2.5.5zm-33 5 1 1 1.5-.5-.5 1.5q-3.8-.7-2-2Zm-69 4 7.5.5-7.5.5zm70 1 2.5.5-2.5.5z" opacity=".988"/><path fill="#a9a9fd" stroke="#a9a9fd" d="m178.5 271 2 1 1-1 1 1 1.5-.5 1.5 2.5 1.5-.5 1 2-1.5 1.5-4 1-2.5 2.5v5l9.5 10.5 4.5 3.5.5 2.5 1.5-.5.5 1.5 1.5-.5.5 1.5 3 2 1.5-.5 1.5 2.5 1.5-.5 1.5 2.5 1.5-.5 2.5 3.5q1.3-2.2 2.5.5l4.5 5.5 1-1 5.5 5.5h-3l.5-1.5q-3.5.5-4-2l-1.5.5-.5-1.5-1.5.5-.5-1.5-1.5.5-.5-1.5-1.5.5-.5-1.5-14-7-1.5.5-.5-1.5-1.5.5-.5-1.5-1.5.5-.5-1.5-1.5.5-.5-1.5-3-1-1.5.5-1.5-2.5-2.5-.5q2.2-1.2-.5-2.5l-2.5-1.5 1-1-5.5-5.5-2.5-1.5-1.5-2.5-1.5-.5 3-7-.5-1.5 4.5-2.5-.5-1.5q1.3 2.3 2.5-.5l.5-1.5 1.5.5zm56 5 1 2 1.5-.5 5.5 7.5 1.5-.5-.5 1.5 1.5.5-1 1q3.5 1.5 1 3l.5 2.5 1.5.5-1 1v9l1 2-2 1 1 2-2 1 .5 1.5-3.5 2.5 1 1-2.5 2.5-3 1v-1l1.5-.5 1-3-.5-1.5 1.5-.5-1-2 2-4v-10q-3.1-6.4-8.5-10.5l-5.5-3.5.5-2.5 2 1 1-2 1.5.5.5-1.5 1.5.5zm-81 2 2 3 1.5-.5 2.5 3.5 1.5-.5 2.5 3.5 1.5-.5-.5 1.5 11.5 9.5q-2.2 1.3.5 2.5l1.5.5q-.5 3 1.5 3.5l1.5.5-.5 1.5 1.5.5-.5 1.5 1.5.5-.5 1.5 1.5.5-.5 1.5 1.5.5-.5 1.5 1.5.5-1 1 2 2-.5 1.5 1.5.5-1 2q3.5 1.5 1 3l.5 1.5 1.5.5-1 4q2.5.5 2 4l-1 1v11l1 2q-2.5.5-2 4l.5 1.5-1.5.5 1 2-2 2 .5 1.5-1.5.5.5 1.5-2.5 1.5q2.3 1.3-.5 2.5l-2.5 1.5-.5 1.5-1-1-2.5 2.5-.5 1.5q-1.2-2.2-2.5.5l-.5 1.5-1.5-.5 6-9-1.5-.5-15 11-1-6-1.5.5-1 5-2.5 3.5q-3.7.8-4.5-1.5l-1.5-2.5-10.5-9.5-12-18 11.5-1.5 7.5-3.5-2.5-.5-6 3q-3.2-.7-4 1h-6l-1.5-1.5-2-6v-3l-1-1v-6l-1-1v-9l1-1v-5l1-1v-4l2-6-.5-.5-2.5 2.5-12 17-6.5 13.5q-2.5-1-1-2l1.5-.5-1-2 2-1-1-2h2l-1-2 2-1-.5-1.5 1.5-.5-.5-1.5 1.5-.5-.5-1.5 1.5-.5-.5-1.5 2.5-1.5 1-2-.5-1.5 1.5.5 2-3-.5-1.5 3.5-2.5-.5-1.5 1.5.5 4-5-1-1 9.5-9.5 1 1 4.5-4.5.5-1.5q1.5 2.5 3-1l4-2h6zm9.5 51-3 3h1l3-2zm-4 3-3 3h1l3-2zm-4 3q-3 1-1 2l2-1zm-3 2-4 2q-3 1-1 2l6-3zm101.5-56v2q4 1 5-1l1 2 2-1v2l4 2 1.5-.5-.5 1.5 3 2q1.2-2.2 2.5.5l-.5 1.5 11.5 9.5-1 1 3.5 3.5 1.5.5q-2.5 1.5 1 3l.5 1.5 1.5-.5q-2 1 0 2l.5 1.5 1.5-.5-.5 1.5 1.5.5q-2 1 0 2l2.5 5.5 1.5.5-1 2 2 1q-2.2 2.8-1 9l1 2-2 1 .5 1.5-1.5.5.5 1.5-10 9 .5-1.5 1-3-.5-.5-5 5-3 1-1-4-2.5-.5-7-10-9-18-4-12-1-8-1-1-1-16zm-6 1 2.5.5-2.5.5zm2 14 .5 5.5h-1zm-147 38 1.5.5-.5 2.5-1.5-2.5zm-1 4 1.5.5-.5 4.5-1.5-3.5zm-1 8 .5 2.5h-1zm2 0 .5 5.5 2 3v2l11.5 12.5 4.5 2.5 2.5 3.5 1.5.5-1.5.5-2.5-1.5-1.5-2.5-1.5.5-.5-1.5-1.5.5.5-1.5-3-2q-1.2 2.3-2.5-.5l-4.5-5.5-2.5-1.5q2.3-1.2-.5-2.5l-1.5-.5 1-2-2-1 1-1zm154 43 2 1 1.5-.5.5 1.5 1.5-.5.5 1.5 1.5-.5.5 1.5 1.5-.5.5 1.5 2 1 1.5-.5.5 1.5 1.5-.5 1.5 2.5 2 1 1.5-.5 1.5 2.5 1.5-.5-.5 1.5 3 2 1.5-.5 2.5 3.5q1.3-2.2 2.5.5l5.5 6.5 1-1 4.5 4.5-1 1 6 6 .5 1.5 1.5-.5-1 1 2.5 2.5 2.5 1.5q-2.2 1.3.5 2.5l1.5.5q-2.2 1.2.5 2.5l1.5.5q-2.2 1.3.5 2.5l1.5.5-.5 1.5 1.5.5q-2 1 0 2l-.5 1.5-1-2-1 2q-1.3-2.2-2.5.5l.5 1.5 1.5.5-7.5.5-1 1v-2l-9.5-7.5 1-1-2.5-2.5-1.5-.5 1-1-2.5-2.5-1.5-.5q2.5-1.5-1-3l-.5-1.5-1.5.5q2.3-1.3-.5-2.5l-1.5-.5q2.3-1.2-.5-2.5l-1.5-.5q2.5-1.5-1-3l-.5-1.5-1.5.5 1-1-2.5-2.5-2.5-1.5 1-1-7.5-7.5-1 1-2.5-2.5-1.5-2.5-1.5.5-1.5-2.5-1.5.5-1.5-2.5-2-1-1.5.5-.5-1.5-1.5.5 1-1-.5-1.5 1.5-.5q-2.2-1.2.5-2.5Zm-66 5 3 2 1.5-.5.5 1.5 2-1q1.5 3.5 3 1l1.5.5.5 1.5 1-1 2 2 1.5-.5.5 1.5 1.5-.5.5 1.5 1.5-.5.5 1.5 1.5-.5-.5 1.5 2.5.5q-2 1-1 5l-2 3 .5 1.5-1.5.5 1 2-2 1 .5 1.5-1.5.5 1 2-2 1 1 2-2 1 1 2-2 1 .5 1.5-1.5.5 1 2-2 1-1 3 .5 1.5-1.5.5.5 1.5-1.5.5.5 1.5-2.5 1.5-1 2 .5 1.5-1.5.5.5 1.5-1.5-.5-1 2 .5 1.5-1.5-.5-2 3 .5 1.5-2.5 1.5.5 1.5-3.5 2.5.5 1.5-4.5 3.5-.5 1.5q-1.2-2.2-2.5.5l-.5 1.5-2-1-1 2-1-1h-6l-2.5-1.5 1-3-2-1 1-3-2-1 1-2q-3.5-1.5-1-3l-.5-1.5-1.5-.5 1-3-2-1 1-2-2-1 1-3-2-1 1-2-2-1 1-2-2-1 1-3-2-1 .5-3.5 1.5-.5q.8-3.2-1-4l2-1 .5-12.5q1.2 2.3 2.5-.5l.5-1.5q1.5 2.5 3-1l1.5-.5-.5-1.5q1.3 2.3 2.5-.5l.5-1.5q1.3 2.3 2.5-.5l.5-1.5q1.3 2.3 2.5-.5l.5-1.5q1.3 2.3 2.5-.5l.5-1.5q1.5 2.5 3-1l2 1 1-2 1 1 2-2 1.5.5zm87 56 3.5 1.5q3.7 11.3 11.5 18.5l4.5 3.5 5 23 7 13 5.5 5.5 8.5 5.5 1 6 1 1v4l1 1v4l1 1 1 10 1 1 1 13 1 1v8l1 1v14l1 1v14l2 5 6 7-1.5 2.5-1.5-.5-.5 1.5-2-1-1 2-3-1-1 2-2.5-.5-1-3v-5l-1-1v-4l-1-1v-6l-1-1v-5l-1-1v-6l-1-1v-5l-1-1-.5-5.5-.5 4.5-2.5 3.5-1-1-1.5.5-5-14v-3l-1-1v-3l-1-1v-3l-1-1v-3l-1-1v-3l-1-1v-3l-1-1v-3l-1-1-3-15-3.5-9.5-.5 4.5 1 1v6l1 1v5l2 6v5l1 1v4l1 1 1 9 2 5v4l1 1v4l1 1v4l1 1v4l1 1v4l1 1q-.8 4.8 1 7l-1.5.5-3-2-1 2q-1-2-2 0l-1.5-1.5-.5-1.5q-1 2-2 0l-6.5 3.5 1 3-2 1 .5 2.5 1.5.5-1 3 3 2-1 1 2.5 2.5 1.5.5-.5 1.5 1.5.5-.5 1.5 1.5.5.5 1.5 4.5-3.5.5-1.5q1.3 2.3 2.5-.5l.5-1.5q1.3 2.3 2.5-.5-2.2-1.3.5-2.5l.5 5.5 1 1v5l-7 1-.5 1.5-5-1-1 2-3-1-1 2-2-1-1 2-2-1-1 2-2.5-1.5-1-3v-5l-1-1v-5l-1-1v-5l-1-1v-5l-1-1v-6l-1-1v-6l-1-1-.5-6.5-.5 10.5 1 1v12l1 1v10l1 1v10l1 1 .5 6.5 1.5.5-.5 1.5-3-1-1 2-3-1-1 2-3-1-1 2-3-1-1 2q-.7-1.7-4-1l-1 2-2-1h-10l-2 1-1-2-5.5-3.5-1-13-1-1v-8l-1-1-1-22-1-1v-15l-1-1-.5-9.5-1 71-3.5.5-.5 1.5-5-1-1 2-1.5.5.5 1.5q1.3-2.2 2.5.5l-1.5 2.5-1.5-.5-.5 1.5-3-1-1 2-10.5-.5-.5-1.5h-9l-1 1v-2l-1.5-.5-.5-1.5-3.5.5 1 2-7.5.5-2 1-1-2q-3.3-.8-4 1l-1-2-2 1-1-2-5-3-1.5.5 5-4 1.5-2.5 1.5.5.5 2.5 4.5-3.5-2-3 2-1 1-3-.5-1.5 1.5-.5-.5-1.5 1.5-.5-.5-1.5 1.5-.5-.5-1.5 1.5-.5-.5-1.5 1.5-.5-1-2 2-1-1-3 2-1-1-3q2.8-.7 2-5-1.7-.7-1-4l2-1v-13l-1-3 2-1-1-15q1.8-.7 1-4l-2-1q1.7-.7 1-4l6-10-1-2 2-1-1-3 2-1-1-7 2-1-.5-20.5-1.5-.5q1.7-1.8 1-6l-2-1 1-3-2-1 12-17 7-14v-2l1.5-1.5 3-1 1 2 7-1 1 2 20.5-.5.5-1.5 7 1 1-2 5 1 1-2 4 1v-2l4 1v-2l3 1zM203 611l-2 3-4-1q-2 4-3 1l-3 3 1 2q-2 1 0 2l-1 2h2v2q2 1 0 2l4 3 1-1 1 2 2-1v2l2-1v2l2-1 2 3h3l-1-4 2-1-1-1 2-1-1-1 1-2 2-1-1-2 1-2-2-1 1-2-1-1v-1l-3-4-1 1q-5 1-5-1Zm125.5-142-.5 1.5 1.5 3.5 1.5.5-.5 1.5 1.5.5-.5 1.5 1.5.5-.5 1.5 1.5.5-1 2 6.5 12.5 1.5.5-.5 1.5 1.5.5-.5 1.5 1.5.5-2.5.5-1-1h-6l-1.5.5-.5-2.5-2-1-2 1q-2.7-1.2-.5-2.5l-2.5-2.5-1.5-.5q2-1 0-2l-1.5-3.5-1.5-.5.5-1.5-1.5-.5 1-2-2-1 1-2-2-1 1-1 .5-4.5q4.7-1.3 6 1l2-3zm-233 3 7.5 2.5-1 3q3.5 1.5 1 3l.5 2.5 1.5.5-1 3 2 1-1 2 2 1-1 2 2 1-.5 1.5 1.5.5-.5 1.5 1.5.5q-2 1 0 2l2.5 3.5 3.5 2.5 2.5 3.5 1.5-.5.5 1.5 1.5-.5.5 1.5 1.5-.5.5 1.5 2-1 3 2 2-1 1 2q4.2.7 6-1 1.3 3.3 7 2 .8-1.7 4-1l2 1 3.5-2.5.5-1.5 1 1 4.5-4.5q-2.3-1.2.5-2.5l2.5-1.5-.5-1.5 2.5-1.5-.5-1.5 1.5-.5-.5-1.5 5 2h5l1.5 1.5-1 3q3.5 1.5 1 3-1.2 6.2 1 9l-2 1 1 3-2 1-1 4-2 2 .5 1.5-3.5 2.5q2.3 1.3-.5 2.5l-1-1-2.5 2.5-.5 1.5q-1-2-2 0l-5.5 2.5-.5 1.5-2-1-1 2-2-1-1 2-5-1-1 2-2-1h-17q-1 2-5 1-.5-2.5-4-2-.7 1.8-4 1l-1-2-5 1-3-2-2 1-3-2-2 1-1-2-2 1q-1.5-3.5-3-1l-1.5-.5-.5-1.5-1 1-2-2-1.5.5-.5-1.5-1.5.5-.5-1.5-1.5.5-.5-1.5-1.5.5-.5-1.5q-1.2 2.3-2.5-.5l-.5-1.5q-1.2 2.3-2.5-.5l-4-5 1-1-.5-1.5 1.5-.5-1-2 2-1-.5-1.5 1.5-.5-1-1 2-2-.5-1.5 1.5-.5-.5-1.5 1.5-.5-.5-1.5 1.5-.5-.5-1.5 1.5-.5q-2-1 0-2l2.5-5.5 1.5-.5-.5-1.5 1.5-.5-.5-1.5 1.5-.5-.5-1.5 1.5-.5-.5-1.5 2.5-1.5-.5-1.5 1.5-.5-.5-1.5 2.5-1.5-.5-1.5 2.5-1.5-.5-1.5 2.5-1.5-1-1zm244 59 2 2q1-2 2 0l2-2 1 1 1.5.5-1 3 2 1-1 4 2 1-1 4h2l-1 4 2 1-1 3 2 1-1 4 2 1-1 4 2 1-1 3 2 1-1 4 2 1-1 3 .5 1.5-6.5-4.5.5-1.5-1.5-.5.5-1.5-1.5-.5 1-2-2-1 1-2-2-1 1-3-2-1 1-2q-3.5-1.5-1-3l-.5-2.5-1.5-.5 1-3-2-1 1-3-2-1 1-3-2-1 1-4-2-1 1-2zm-282 14 22 13h2l6 3 7 1 1 1q4-1 5 1h7l1 1h13l1 1h33l1-1h7l1-1-.5 1.5q-.8 4.8 1 7l-2 1q-.7 3.3 1 4l-2 1 1 4-2 1 1 4-2 1 1 2-2 1 1 2-3 2-2 3 1 1-3.5 3.5q-1.2-2.2-2.5.5l-.5 1.5q-1-2-2 0l-3.5 1.5-.5 1.5-2-1-1 2-2-1-1 2-5-1-1 2h-13q-.5-2.5-4-2l-2 1-3-2-2 1-1-2-2 1q-1.5-3.5-3-1l-1.5-.5-.5-1.5-2 1-1-2-2 1-1-2-2 1-1-2-2 1-2-2-1 1-2-2-1 1-2-2-1 1-2-2-1.5.5-.5-1.5-2 1-1-2-1.5.5-.5-1.5-1.5.5-.5-1.5-1.5.5-.5-1.5-1.5.5-.5-1.5-1.5.5-.5-1.5-2.5-.5-1.5-2.5q-1.2 2.3-2.5-.5l-3.5-4.5-2.5-1.5q2.3-1.2-.5-2.5l-1.5-.5 1-2-1-3 2-1-1-3q3.5-1.5 1-3l2-3-1-2 2-1-1-2 2-1-1-2 2-1-1-2 2-1-.5-1.5 1.5-.5-1-2 2-1z" opacity=".976"/><path fill="#a9a9fd" stroke="#a9a9fd" d="M296.5 594q1 2 2 0l3.5.5q-3.4.1-4.5 2.5zm14 7 1.5.5-1.5 2.5q-3-1.5 0-3Zm-15 1q3-.5 3.5 1.5l1 3-1.5-.5-2.5-1.5.5-1.5q-2.4-.1-1-1Zm10 4 2.5 1.5-4.5 2.5.5-1.5zm-109 10 1.5.5-2.5 3.5-1.5-.5-.5 1.5-.5-2.5 1.5-1.5 1.5.5zm12 2 1 1 1.5-.5-1.5 1.5q-2.5-1-1-2Zm-1 6 1 2 1.5-.5-1.5 2.5-2.5-1.5zm-10 1 4.5 1.5-1.5 1.5-1-1-1.5.5z" opacity=".976"/><path fill="#cece01" stroke="#cece01" d="m145.5 104 .5.5-4.5 4.5-.5-.5zm53 7 3.5 3.5-.5.5-3.5-3.5zm40 2 3.5.5-3.5.5zm-7 1 2.5 2.5-.5.5-2.5-2.5zm25 0 2.5.5-2.5.5zm-47 3 .5.5-2.5 2.5-.5-.5zm-34 1 .5 3.5h-1zm11 0 .5 3.5h-1zm48 0 .5 2.5h-1zm-111 7 .5.5-5.5 5.5-.5-.5zm56 1 .5 3.5h-1zm-35 9 2.5.5-2.5.5zm4 1 2.5 2.5-.5.5-2.5-2.5zm139 5q4.8-.7 6.5 1.5l-.5 5.5q-1.8 1.7-6 1-3.2-.7-2.5-5.5zm42 7 2.5 1.5-2.5.5zm10 0 1.5.5-.5 1.5-1.5-.5zm22 1 1 1 1.5-.5-1.5 1.5q-2.5-1-1-2Zm-175 6 2.5.5-2.5.5zm47 0 2.5.5-2.5.5zm-25 1q2.5 1 1 2-1.2-2.2-2.5.5l.5 1.5-1.5-1.5zm33 0 2.5.5-2.5.5zm-142 2 1.5.5-.5 1.5q-2.5-1-1-2Zm88 0 2.5 2.5-.5.5-2.5-2.5zm147 15 .5.5-2.5 2.5-.5-.5zm-85 9 2.5 2.5-.5.5-2.5-2.5zm20 0 3.5 3.5-1 1 .5 1.5-3.5-3.5 1-1zm-129 7 2.5 2.5-.5.5-2.5-2.5zm164 12q2.5 1 1 2l-1.5-.5zm-210 3 5.5.5-5.5.5zm-31 6 .5 5.5h-1zm42 1 3.5.5-3.5.5zm7 0 3.5.5-3.5.5zm16 2 .5 2.5h-1zm162 9 2.5.5-2.5.5zm6 2 2.5.5-2.5.5zm-281 3 .5.5-2.5 2.5-.5-.5zm84 7 2.5.5-2.5.5zm45 6 2.5.5-2.5.5zm182 7 20.5.5-20.5.5zm-184 3-.5 1.5 1 1-1.5 1.5-1.5-1.5zm117 22 2.5 1.5-1.5-.5q-2.4-.1-1-1Zm-219 2h7l1.5 1.5-2.5.5q-.7-1.7-4-1l-3 1q-1.5-1 1-2Zm288 5 .5 5.5h-1zm-47 3 1.5.5-.5 1.5-1.5-.5zm4 1 1.5.5-.5 1.5-1.5-.5zm10 2 1.5.5-.5 1.5-1.5-.5zm6 1 .5 1.5-1.5.5q-1.5-1 1-2Zm6 1 .5 1.5-1.5.5q-1.5-1 1-2Zm-281 2 7.5.5-7.5.5zm82 21-.5 1.5 1 1-.5 1.5-1.5-2.5zm-3 4 3.5 1.5-4.5 6.5.5-1.5 2-4-2-2z" opacity=".984"/><path fill="#bdae87" stroke="#bdae87" d="m199.5 140 9.5.5-9.5.5zm-9 1 5.5.5-5.5.5zm32 0 3.5.5-3.5.5zm36 0 2.5 1.5q-1 2.5-2 1l.5-1.5q-2.4-.1-1-1Zm-110 4 1.5.5-1 2h2q-1.5 3-3 0zm48 8 7.5.5-7.5.5zm9 0 14.5.5-14.5.5zm37 50 .5 2.5h-1zm-62 38 2.5 2.5-1 1 .5 1.5-1.5-1.5 1-1-2-2zm94 133 1.5.5-10 4 .5 1.5 2.5.5q-4.3.2-5.5 3.5l.5-1.5-.5-2.5-1.5.5 1-1-.5-1.5 2 1 1-2zm-128 9 4.5.5-4.5.5zm119 1 1 1 7.5.5-6 1q-.8 3.3 1 4l-1.5-.5-2.5-.5 1-3h-2zm34 25 3.5 3.5-.5.5-3.5-3.5zm-160 1 7.5 3.5-3.5.5-4.5-3.5zm157 2 4.5 4.5-.5.5-4.5-4.5zm-33 1 2.5 2.5-.5.5-2.5-2.5zm-128 3h9l5 2 2.5 2.5 1 2-1.5.5-4-4-6-2h-6zm-14 9 1 1 10.5.5-3.5 1.5q-.7-1.7-4-1l-1 2-1.5-.5-.5 1.5-1-1-2 2-.5-.5 2-2-.5-1.5 1.5-.5zm21 5 2.5 2.5-.5.5-2.5-1.5zm5 8 14.5 30.5 3 9 1 10-2.5 5.5-.5-6.5-2.5-4.5-4.5 9.5-5.5 5.5.5-1.5 2-6v-3l1-1v-14q-2-5.5-6.5-8.5l-13.5-6.5 2-2-.5-1.5 3.5-2.5-.5-1.5 1.5.5 2.5-3.5 1.5-.5-1-1 2-2-.5-1.5 1.5-.5-.5-1.5zm-27 8 .5 2.5q-1 2.5-2 1zm10 1 1.5.5-2 1-1.5 4.5-1.5-2.5 2-1-.5-1.5zm-20 10q2 .5 1.5 3.5-2 1 0 2l.5 3.5 2.5.5-2.5.5-1.5-1.5-.5-3.5-1.5.5-2.5 3.5-.5-1.5 2-1 1.5-3.5 1.5.5zm20 1q1.5 1-1 2l-1.5-.5zm-26 1-.5 1.5 1 1-.5 2.5-1-2-3 2q-2-.5-1.5-3.5h1l.5 2.5 2.5-1.5zm12 1 .5 2.5h-1zm8 0 .5 2.5h-1zm-6 1 .5 2.5h-1zm5 3 .5 1.5q-1 2.5-2 1zm197 2q3-.5 3.5 1.5l-1.5-.5q-3 .5-2-1Zm-15 7 2.5.5-2.5.5zm-135 10 .5 2.5h-1zm10 25 .5 4.5h-1zm19 0 .5 5.5h-1zm-49 53 4.5.5-4.5.5zm29 24 .5 2.5h-1zm1 7 .5 2.5h-1zm-140 4 2.5 2.5-.5.5-2.5-2.5zm138 16 .5 8.5h-1zm-24 5 .5 4.5h-1zm-5 6 .5 2.5q-1 2.5-2 1z" opacity=".996"/><path fill="#c1c2ff" stroke="#c1c2ff" d="M181.5 270q2.5 1 1 2-1-2-2 0l-1.5-.5zm-6 3 .5.5-2.5 2.5-3 2-.5-.5 2.5-2.5zm12 1 2.5 1.5-1.5.5q-2.5-1-1-2Zm-41 4 6.5.5-6.5.5-6 4-.5-.5 2.5-2.5zm91 0 6.5 7.5q-1 1.5-2-1l-5-6zm-68 1-.5 1.5-1.5 5.5-.5-3.5zm-12 2 2.5 2.5-.5.5-2.5-2.5zm96 1 4.5.5-4.5.5zm-115 1 .5.5-18 18-3.5 4.5-.5-.5 3-3zm121 0 8 4 12.5 11.5-.5.5-7-7-8-6-5-2zm-98 1 12.5 11.5-.5.5-8-8-4.5-3.5zm84 6 .5 2.5h-1zm-73 1 5.5 5.5-.5.5-5.5-5.5zm74 3 .5 9.5h-1zm35 7 4.5 4.5-.5.5-4.5-4.5zm-100 1 2.5 1.5-1.5-.5q-2.4-.1-1-1Zm-65 5 .5.5-2 2-3.5 5.5.5-1.5zm170 0 5.5 7.5q-1 1.5-2-1l-4-6zm-77 3 2.5 2.5-.5.5-2.5-2.5zm-9 1 6.5 3.5-1.5-.5-5-2zm43 0 .5.5-2.5 2.5-.5-.5zm-5 2 .5 1.5-1 2 1 1-3.5 3.5.5-1.5.5-1.5 1.5-.5-1-2zm-24 1 6.5 6.5-1.5 1.5q-2.7-1.3-.5-2.5l-5-5zm78 2 3.5 6.5h-1l-3-6zm-71 6 3.5 2.5-.5.5-2-2q-2.4-.1-1-1Zm-115 2 .5 1.5-1.5 2.5-.5-1.5zm83 4 .5 2.5h-1zm108 0 .5 7.5h-1zm-195 7 .5 2.5h-1zm88 0 .5 11.5h-1zm-89 5 .5 13.5h-1zm193 2 .5.5-8.5 8.5-.5-.5zm-105 8 .5 2.5h-1zm-83 12 4.5 4.5-.5.5-4.5-4.5zm6 5 5.5 4.5-1.5-.5-4.5-3.5zm67 1 .5.5-2.5 2.5-.5-.5zm78 21 1.5.5-3.5 2.5-.5-.5zm9 4 2.5 1.5-1.5-.5q-2.4-.1-1-1Zm-9 2 3.5 2.5-1.5-.5q-3.8-.7-2-2Zm15 1 3.5 2.5-1.5-.5q-3.8-.7-2-2Zm5 3 5.5 4.5-.5.5-2-2-3.5-2.5zm-66 3 2.5 1.5-1.5.5q-2.5-1-1-2Zm59 2 8.5 8.5-.5.5-8.5-8.5zm14 0 3.5 3.5-.5.5-3.5-3.5zm-115 1 .5.5-2.5 2.5-3 2-.5-.5 2.5-2.5zm45 0 .5 4.5-2.5 3.5.5-1.5zm75 3 19.5 20.5-.5.5-3.5-3.5-16-17zm-130 4 .5 11.5h-1zm120 2 5.5 6.5-.5.5-2.5-2.5-3-4zm-121 11 .5 3.5h-1zm129 0 4.5 5.5-.5.5-2.5-2.5-2-3zm22 5 2.5 2.5-.5.5-2.5-2.5zm-17 2 2.5 2.5-.5.5-2.5-2.5zm-88 1 .5 1.5-1.5 2.5-.5-1.5zm91 3 3.5 3.5-.5.5-3.5-3.5zm4 5 8 7 7.5.5-7.5.5-8.5-7.5zm-99 1-.5 1.5-1.5 2.5.5-1.5zm117 0 2.5 3.5q-1 1.5-2-1l-.5-1.5-1.5.5zm-156 1 .5 2.5h-1zm153 1-.5 1.5-.5 1.5-.5-1.5zm-117 3-.5 1.5-4.5 6.5-.5-.5 2-2zm-34 3 .5 2.5h-1zm108 2 2.5.5-2.5.5zm-4 1 2.5.5-2.5.5zm-5 1 2.5.5-2.5.5zm-40 1 3.5.5-3.5.5zm33 0 3.5.5-3.5.5zm-25 1 20.5.5-20.5.5zm-41 3 .5.5-2.5 2.5-.5-.5zm-23 2 .5 2.5h-1zm20 2 .5.5-3.5 3.5-.5-.5zm-19 2 .5 2.5h-1zm1 4 1 1 6.5.5-7.5.5zm159 0 2.5 4.5h-1l-2-4zm-10 4 .5 3.5h-1zm-215 2 .5 2.5h-1zm1 5 .5 2.5h-1zm230 1 6.5 13.5h-1l-6-12zm-229 3 .5 2.5h-1zm217 2 2.5 4.5q-1 1.5-2-1zm-122 4 .5 2.5h-1zm125 2 3.5 3.5-.5.5-3.5-3.5zm-124 2 .5 4.5h-1zm-91 4 3.5 4.5-.5.5-2.5-2.5zm224 1 6.5.5-6.5.5zm-156 2 .5 2.5h-1zm24 0 .5 20.5h-1zm-85 5 2.5 2.5-.5.5-2.5-2.5zm45 0 .5.5-5.5 5.5-.5-.5zm17 0 .5 7.5h-1zm-24 6q1.5 1-1 2l-3 1v-1zm-22 1 4.5.5-4.5.5zm8 1 5.5.5-5.5.5zm37 2 .5 2.5h-1zm-1 4 .5 1.5-1.5 2.5-.5-1.5zm-107 3 3.5 3.5-.5.5-3.5-3.5zm131 2 .5 4.5h-1zm-28 3 .5.5-6.5 6.5-.5-.5zm174 2 .5 1.5q-1 2.5-2 1zm1 3 .5 2.5h-1zm-183 2q1.5 1-1 2l-5 2v-1zm176 0 .5 2.5h-1zm8 3 .5 2.5h-1zm-238 2 2.5.5-2.5.5zm231 0 .5 2.5h-1zm-224 1 2.5.5-2.5.5zm29 0 3.5.5-3.5.5zm-20 1 17.5.5-17.5.5zm223 1 .5 2.5h-1zm-7 1 .5 2.5h-1zm8 3 .5 2.5h-1zm-7 1 .5 2.5h-1zm-150 3 .5 3.5h-1zm151 1 .5 2.5h-1zm8 4 .5 2.5h-1zm-6 4 .5 2.5h-1zm7 1 .5 2.5h-1zm-160 3 .5 6.5h-1zm-29 1 .5 5.5h-1zm190 0 .5 2.5h-1zm1 5 .5 2.5h-1zm-192 3 .5 3.5h-1zm29 1 .5 13.5h-1zm159 0 3.5 2.5-1.5.5-2.5-2.5zm-189 4 .5 2.5h-1zm-110 5 3.5 3.5-.5.5-3.5-3.5zm109 0 .5 2.5h-1zm30 9 .5 3.5h-1zm-33 2-.5 1.5-2.5 3.5-.5-.5 2-2zm32 4 .5 2.5h-1zm102 0 .5 2.5h-1zm-140 3 .5.5-2.5 2.5-.5-.5zm-4 3q1.5 1-1 2l-3 1v-1zm147 3 2.5 2.5-.5.5-2.5-2.5zm-181 2 2.5.5-2.5.5zm18 0 3.5.5-3.5.5zm172 0 .5.5-2.5 2.5-1.5-.5zm-96 2 3.5 3.5-.5.5-3.5-3.5zm97 1 .5.5-2.5 2.5-.5-.5zm-109 1q3-.5 3.5 1.5l-1.5-.5q-3 .5-2-1Zm-3 1 .5.5-2.5 2.5-.5-.5zm138 2 2.5.5-2.5.5zm-122 1 1.5 2.5q-1 1.5-2-1zm98 1 6.5.5-6.5.5zm-6 1 3.5.5-3.5.5zm-4 1 2.5.5-2.5.5zm-104 6 3.5 3.5-.5.5-3.5-3.5zm-19 1 .5.5-2.5 2.5-.5-.5zm113 0 .5 1.5-1.5.5q-1.5-1 1-2Zm-54 2 3.5.5-3.5.5zm49 0 2.5.5-2.5.5zm-112 1q2.2 3.3 6.5 4.5l-1.5.5-5.5-4.5zm57 0 3.5.5-3.5.5zm18 0 4.5 3.5-1.5.5-3.5-3.5zm33 0 2.5.5-2.5.5zm-4 1 2.5.5-2.5.5zm-65 1 .5 2.5h-1zm61 0 2.5.5-2.5.5zm-45 1 1.5 2.5q-1 2.5-2 1l1-2zm40 0 3.5.5-3.5.5zm-68 1 1 2 2 1 9.5.5-9.5.5-3.5-2.5zm55 0 10.5.5-10.5.5zm-71 2 3.5.5-3.5.5zm6 1 6.5.5-6.5.5zm34 0 2.5.5-2.5.5z" opacity=".976"/><path fill="#f50a02" stroke="#f50a02" d="m206.5 249 2 3 2-3h3l5.5 2.5-1.5 1.5q-4-1-5 1h-8l-1-1-5.5-.5zm-8 5 2 1h15l3-1 .5.5-3.5 3.5-3 1h-7l-5-2-2.5-2.5z" opacity=".89"/><path fill="#e5b78b" stroke="#e5b78b" d="m182.5 126 3.5 1.5 1.5 2.5 1.5.5.5 1.5q1-2 2 0l3 1 2-2 1.5.5.5-1.5q3 .5 3.5-1.5l.5-1.5 3 1 3-1 3 4 2 1 2-1 2 1q1-2 2 0l8-6 .5 1.5-3 1-.5 2.5-3.5 1.5q-.5 3 1.5 3.5l1.5.5.5 1.5 2-1 1.5.5 1.5-2.5 1.5-.5-1-2q1-1.5 2 1l.5 1.5 5 1 3-2 2.5 1.5.5 1.5 1-1 2.5 2.5-1 1 2.5 2.5 1.5-.5.5 1.5h7l1-1 .5 1.5-2 1q2 1 0 2l1.5 1.5 1.5.5q-1 2.5-2 1l-.5-1.5-2 1-1-2q-1 2-2 0l-6-2h-3l-1-1h-4l-6-2h-6l-1-1h-16l-1-1h-9l-1 1h-8l-1 1-12 1-1 1h-3l-9 3-1-1q-1.5 3.5-3 1l-1.5.5-.5 1.5-1-1-2 2-.5-.5-1.5-4.5-2.5-.5 10-1 .5-1.5 1 1 2.5-2.5-.5-1.5 1.5-.5.5-1.5 1.5-.5.5-1.5 2 1q1.5-2.5 3 1l3-2 1.5.5.5-1.5 2.5 1.5.5 1.5 3 2 4.5-2.5 1-2-1.5-2.5-2.5-.5-2.5-3.5-1.5.5zm21.5 5-1 6 3 1 2-2q-2-1 0-2 0-3-4-3Zm-52.5 17 1 2 1.5.5-1.5.5q-2.4-.9-1-3Zm35 4h4l1 1 4.5.5-6.5.5-3-1zm11 0 12.5.5-4.5.5-1 1-1-1h-6zm32 0 3.5.5-4.5 1.5q-1.5-1 1-2Zm-52 1 5.5 1.5-4.5.5q-2.5-1-1-2Zm43 0 6.5.5-6.5.5zm19 0 .5 1.5-1.5.5q-1.5-1 1-2Zm-69 1 3.5 1.5-2.5.5q-2.5-1-1-2Zm77 28 5.5 5.5-.5.5-5.5-5.5zm-44 12 3 1h2l3.5 3.5-2.5 5.5-7.5.5-.5 1.5-2-7-1.5.5 2.5-4.5zm15 4 .5 1.5-1 1v8l3.5 7.5 1.5-.5-1 1 3 3-.5.5-6.5-5.5-2-4v-6zm-46 1 1.5.5 1 4-1 3q2.2 1.2 1 6l1.5 1.5 1.5.5-1 1 2.5 2.5 1.5-.5-1 1 .5 1.5-3-3h-3l-6.5-4.5-.5-1.5-2.5-.5 2-2q-2-1 0-2l.5-5.5zm104 5 2.5 2.5 1 3v13l-3.5 7.5q-1-3-6-2l-2.5 1.5-1.5 5.5-.5-3.5q2.6-1.4 2-6l1.5-1.5 3.5-2.5-.5-2.5-4.5-.5 3.5-1.5 2.5 1.5q1 5.5-2.5 6.5l-2.5 1.5.5 1.5q1-2 5-1 1.3 2.3 2.5-.5l2-6v-10l-3-6zm-139 1 2.5.5-4 3q-2.3 3.2-1 10l1 1 1 6 3.5 5.5 5.5-2.5.5-2.5 2 4 2.5 1.5 1 3h-1l-1.5-3.5q-1.8-1.7-6-1-.5 2.5-4 2l-3.5-5.5-2-6v-11z" opacity=".996"/><path fill="#e5b78b" stroke="#e5b78b" d="m142.5 219 3.5.5-.5 1.5-3.5.5q-.5 3 1.5 3.5l1.5.5-.5 1.5-3.5-2.5-1-3zm86 2 4.5.5-4.5.5zm-65 2h8l6.5 4.5 2 5-1 2q2.5 1.5-1 3l1 2-3 3 2 2-.5.5-1-1-1 1-1.5-.5-1 2 .5 1.5q-1-2-2 0l-5 1-6-2-5.5-5.5q-2.2-2.8-1-9l1-3 5.5-5.5zm79 2h7q4.8 1.7 7.5 5.5l2 4v4l-1 3-5.5 5.5-10 2v-1l1.5-.5-1.5-1.5-1.5.5-.5-1.5-1.5.5-.5-1.5-2.5-.5.5-1.5-2 1 .5-1.5 1-2-2-1-1-3 2-5 4.5-4.5zm-34 1 2.5.5-2.5.5zm-47 26 2.5 2.5-.5.5-2.5-2.5zm45 29 .5 2.5h-1zm13 33 2.5 2.5-.5.5q-1-2-2 0l-1.5-1.5zm-105 131 1.5.5-.5 1.5q-2.5-1-1-2Zm5 3 1.5 2.5h-1zm15 6 .5.5-3.5 3.5-.5-.5zm-15 11 2.5 1.5-1.5.5q-2.5-1-1-2Z" opacity=".996"/><path fill="#cdc7cd" stroke="#cdc7cd" d="m178.5 201 2.5 1.5-2 4 1 1-2.5 2.5.5-1.5zm46 1-.5 1.5-.5 1.5-.5-1.5zm16 1 .5 2.5h-1zm-43 1 .5 2.5h-1zm72 176 2.5.5-2.5.5zm-70 4v2l4 1 1.5-.5-2.5 3.5-4-4-1.5.5.5-1.5zm69 2 2.5.5-2.5.5zm-75 2-1 3 1.5.5-2.5 1.5v-2l-3.5 1.5.5 1.5-2.5-1.5zm8 6 1.5.5-2.5 1.5q-1.5-1 1-2Zm-51 28 2.5 1.5-1.5.5q-2.5-1-1-2Zm-25 35 1.5.5 1 2h-3zm-24 6 2.5 2.5-1.5 1.5.5-1.5-2-2zm46 0 4.5 4.5-.5.5-4.5-4.5zm-82 59 3.5 3.5-1 1 3 3-.5.5-3-3-1.5 1.5-6 12 16 10-1.5-.5-3-1-1.5.5.5-1.5-4-2-1.5.5q2.3-1.2-.5-2.5l-2 1 .5-1.5-1.5-1.5-2 1 .5-1.5-1-1v-2l8-14-2-2zm23 15q1.5 1-1 2l-1.5-.5zm-34 1 2.5 2.5-.5.5-2.5-2.5zm45 4 2.5.5-2.5.5zm5 1 2.5.5-2.5.5zm6 1 2.5.5-2.5.5zm7 1 3.5.5-3.5.5zm9 1 12.5.5-3 7v5l.5 1.5-27.5-.5 26-1v-5l3-6-11.5-.5zm-49 5 16.5 5.5-4.5 1.5v-2l-8-2-1.5.5.5-1.5-3-1zm112 0 .5.5-2.5 2.5-.5-.5zm-94 6 4.5.5-4.5.5zm6 1 6.5.5-6.5.5zm17 3 6.5.5-6.5.5zm28 0 3.5.5-3.5.5zm-102 10 .5 2.5h-1zm2 9 .5 2.5h-1zm290 0 .5 2.5h-1zm-286 7 6 4 1.5-.5-1 1 .5 1.5-6-4q-2.5-1-1-2Zm130 2 .5 2.5h-1zm-113 7v2l2-1v2l6.5 2.5q-1.2 2.8-2.5.5l-7.5-4.5z" opacity=".996"/><path fill="#cdc7cd" stroke="#cdc7cd" d="M79.5 601q1.5 1-1 2l-1.5.5.5 1.5q-3-1.5 0-3zm102 0 .5 3.5h-1zm-99 1q1.5 1-1 2l-1.5-.5zm3 1q1.5 1-1 2l-1.5-.5zm3 1q1.5 1-1 2l-1.5-.5zm90 0 .5 7.5h-1zm-97 2 3.5 1.5-2.5.5q-2.5-1-1-2Zm7 2 2.5.5-2.5.5zm7 0 8.5 2.5-3.5.5-1-1-5.5-.5zm58 0 1.5.5-.5 8.5-.5-7.5zm-45 2q1.5 1-1 2l-2.5-.5zm5 1q1.5 1-1 2l-2.5-.5zm9 1 5.5.5-5.5.5z" opacity=".996"/><path fill="#fefe00" stroke="#fefe00" d="M163.5 89h8l3 1 9 4 8.5 5.5-1 3v7l2 5 3.5 3.5 5.5 4.5-3.5 6.5q-2.5 2-8 1l-3.5-2.5-2-3q2.6-1.4 2-6l-1.5-2.5-5-2-5.5 4.5q-.6 4.1 1.5 5.5l2.5 1.5q1.5 7-2.5 8.5-5.7 1.3-7-2l-3 3-1-1-2.5.5q1.3 5.3-1.5 6.5l-7 1-3.5-1.5q.5-4-2.5-4.5l-4-1-4.5 3.5q-1.2 6.3 2.5 7.5l3 1 1.5-.5 4 7v7q2 1 1 5l-5 11-10 13q1.3 2.8 2.5.5l7-4q1.5 1-1 2l-9 6-18 8-8 1-1 1-22.5.5 2.5 3.5 8 3h7l1 1h10l1-1h10l1-1q1.5 1-1 2l-15 10-18 9h-2l-7.5 3.5.5 1.5h23l1-1 11-1 1-1h3l9-3 8.5 10.5-14 22 1.5.5q11.9-6.6 20.5-16.5l2.5-3.5 1.5.5 2 4 9.5 10.5 14.5 10.5-.5 1.5q-7.4 2.6-11.5 8.5l-2.5 6.5-8-7-4-2h-5l-8 4-16.5 15.5-14.5 19.5.5-1.5-.5-3.5-4.5 6.5v5l1 2-2 3-3 9q1 4-1 5l-.5 13.5-12 7-10 2-1 1h-3l.5-1.5 5-10v-8l-4.5-2.5-9-1-1-1-7-1-4-2h-3l-12-4q-3.4-3.1-9-4l-6.5-5.5-1-2v-9l1-1v-6l1.5-1.5 9 7h6l6.5-5.5 2-4v-8l-3.5-7.5-6 3h-18l-1-1h-7q-1-2-5-1L2 283.5l-1-3v-7l1-1 1-11 1-1v-3l1-1v-3l1-1v-3l1-1v-3l3-9v-3l2.5-3.5 14-12 12-7 .5 1.5-9 17-1 9 3.5 3.5 3 1h18l3.5-2.5 4-7 2-6v-11l1-1v-16l1-1v-8l1-1v-5l1-1v-4l1-1 1-8-10-8q-1.8-2.2-1-7l11-15L82.5 127l7-5-.5 1.5q.8 3.3-1 4v11l4.5 5.5q1.8 1.7 6 1l11-6 50-48zM75 147q-2 3 0 5l3 2zm50 3-11 5-6 2h-3l-1 1h-4l-1 1H89l-5-2-2 1 5 2h14q1-2 5-1l19-7zm-45 5q-2 1 1 2h1zM20 259v3q1 2 2 1l-1-3zm63 0-7 5-14 7-6 2h-3l-1 1H38l-7-3-3-3-2 1 4 3 10 4h9l1-1h4l9-3 22-12zm-60 4-1 2 4 3z" opacity=".969"/><path fill="#fefe00" stroke="#fefe00" d="m194.5 101 2.5 1.5-3.5 1.5.5-1.5zm3 9 3.5 5.5-1.5 1.5-5.5-5.5zm20 2h7l1 1h12l1 1h17l1 1h12l1 1 14 1 1 1 9 1 1 1h3l1 1 15 3 24 8 14 7 6 4 5.5 5.5 4 7v11q-4.7 12.3-14.5 19.5l-12 8 .5-1.5 1-4 6-12v-4l-1.5-1.5-6-1-3 1-5.5 4.5-5 9-2 6q.8 3.3-1 4v12l3.5 5.5 16 7h7q2.8-1.2 1.5-6.5l-4-6 .5-.5 2 2q10.7 4.8 17.5 13.5l9 15v4l-4.5 3.5-6 1-1 1h-7l-1 1h-39l-1.5 1.5-18 20-2 6 2.5 3.5q1.8 1.7 6 1l1 1h6q1-2 5-1l4.5-3.5q1.8-2.2 1-7-1.7-.7-1-4h1l5 11v12q-2.2 6.8-7.5 10.5h-7l-1 1h-16l-1-1h-6l-1-1-9-1q-7.6-9.4-19-15l-3-1h-10l-4 2-6.5-6.5 1.5-1.5q9.2-4.9 15.5-12.5l10-14 4.5-10.5q.8 2.8 5 2l1-1 3 3 8 5 .5-1.5-5-7-2-5 4.5-8.5h12l1 1h25l1-1 7.5-.5-.5-1.5-11-1-1-1h-6l-1-1q-4.8 1.2-6-1h-5l-1-1-8-1-5.5-2.5v-6l-1-3 2.5-.5 1 1h13l1-1h6l2.5-1.5-.5-1.5-6-1-4-2h-3l-17-7-12.5-11.5-3-12-4-7v-8l1-3 3-3 .5-2.5h2l3.5-3.5q.8-4.7-1.5-6.5-1.8-1.7-6-1l-3.5 2.5-.5 4.5q-4-1-5 1-.7-1.7-4-1l-1.5-1.5-1.5-5.5-3 1q-.5-2.5-4-2-1.2 2.2-6 1l-2.5-2.5-1-5 4-3 1-4-3.5-4.5q-7.2-1.2-8.5 3.5v4l2 3-2.5 3.5-4 2h-4l-4.5-2.5-2-5 8-7zm70.5 29-3 3q-1 4 3 5t6-1v-5q-2-3-6-2Zm42 7-1 1-8 1-16 6v1l5-1 3-2 9-3q3 1 4-1h6l1-1 11 1 3 2h1l-3-3q-4 1-4-1zm19 4-1 1 5 4v-1zm5 5v4q1 2 2 1zm-94 106-2 3v5l5 5h1l-5-6q-1-5 2-6zm5 13q-2 1 1 2l4 2 12 4 8 1 1 1h4l1 1h4l1 1h5l2 1v-1l-10-2-1-1h-5l-9-3h-3zm-55.5-163 2 2 1.5-.5-6 5-2.5 3.5-1.5-2.5 1.5.5 1.5-1.5 1.5-4.5 1.5-.5zm-26 17 1.5 2.5h-1z" opacity=".969"/><path fill="#fefe00" stroke="#fefe00" d="m226.5 130 .5 1.5q-1 2.5-2 1zm-21 3 .5 2.5h-1zm-16 22h14l2.5 2.5 1.5 2.5 4 3 14.5 6.5-10.5.5-1-1h-5l-1-1h-4l-6-2q-8.1-2.9-12.5-9.5z" opacity=".969"/><path fill="#fefe00" stroke="#fefe00" d="m206.5 155 20.5.5 8 12-1.5.5-1-1h-5l-1-1h-4l-3-2h-2l-6-3-5.5-5.5zm23 0q3.3-.7 4 1h7l1 1h5l1 1 6 1 3.5 2.5-1 2 2.5.5 1.5-.5 3 6v3l2 4v3l1 1v3l2 6q3.1 3.4 4 9l2 2-1.5.5-13-9-17.5-17.5-13-18zm-64 3 3.5.5-6 9-10.5 11.5-11 8-.5-.5 3-3 6-9 4.5-11.5 2.5-.5-1-2 4.5-1.5h4z" opacity=".969"/><path fill="#fefe00" stroke="#fefe00" d="m268.5 183 4 5 16 9 15.5 4.5-.5 1.5h-19l-7-7q-4.5 1-5.5-1.5l-2-7-2-3zm-124 7 1.5.5-1 9-1.5 2.5q-2-3-8-2l-5.5 5.5q.5 3-1.5 3.5h-8l-1 1h-17q-1.3-2.2-6-1l-5.5-2.5 16.5-.5 1-1 9-1 17-7zm-16 22-.5 1.5 3 15-6.5 2.5-8 1-1 1h-5l-1 1-20 1v-1l20-9 13-8zm156 4 10 2 1 1h4l1 1h5l1 1 13.5 1.5-26.5.5-1-1-8.5-.5zm-7 19 5.5 7.5-.5.5-4-4-2.5-1.5zm-128 4 1.5.5v2l-7.5 8.5-12 9-.5-.5 3-3 7-11 1.5-4.5 4 1z" opacity=".969"/><path fill="#fcc99f" stroke="#fcc99f" d="m181.5 126 .5 6.5 1 1-1.5-.5-1.5.5-.5 1.5-.5-1.5 2-2zm47 0 .5 4.5 1 1-1.5.5zm-7 4q1.5 1-1 2l-1.5-.5zm13 5 3.5.5-3.5.5zm-69 1 2.5.5-2 1-.5 1.5zm81 3 2.5 2.5-.5.5-2.5-2.5zm-82 1 .5.5-2.5 2.5-.5-.5zm86 2 7.5.5-7.5.5zm-99 1 9.5.5-9.5.5zm111 1 .5 1.5-3.5 2.5v-1l2.5-1.5zm-113 2 2 4 2.5-1.5.5-1.5.5 2.5-3.5 1.5-2.5-3.5zm42 6 5.5.5-5.5.5zm19 0 18.5.5q-1.2 2.8-2.5.5h-16zm-31 1 9.5.5-9.5.5zm52 0 7.5.5-7.5.5zm-59 1 5.5.5-5.5.5zm68 0 4.5.5-4.5.5zm-74 1 4.5.5-12.5 2.5v-1l7-1zm80 0 7 1 5.5 3.5-.5 2.5-1-3-4-2-7-1zm-67 1q5.5-1 6.5 2.5l2.5 3.5 8 5 9 3q4-1 5 1h7l1 1h13l-.5-1.5.5-1.5 5 1 3.5 3.5 12.5 14.5 15.5 11.5.5 1.5h2l6 4 .5-1.5-2-3v-2l2.5-.5 3.5 3.5 2 5v12l-1 1v4l-2 3v2l-2.5 3.5-.5-3.5 3-6v-13l-2.5-4.5-.5 1.5 2 4v10l-2 6-1.5 1.5q-1-2-5-1l-1.5.5 1.5-2.5 3.5-2.5-.5-4.5-3-1-2.5 1.5 5 1q.5 4-2.5 4.5l-2.5 1.5v3q-2.6 1.4-2 6l1 2-8 16-9.5 11.5-7 6-10 6q-1-2-2 0l-3 2q-1.5-2.5-3 1-4-1-5 1h-7q-1-2-2 0l-8-1-14.5-6.5-.5-1.5q-18.5-8.5-30.5-23.5l-6-12 1-2-2.5-3.5-1.5-.5-1.5-3.5-4.5-2.5.5-2.5 3.5-.5-.5-1.5q-4.7-.7-5.5 2.5l2.5 4.5 3.5 1.5-.5 1.5h-2l-3 2-1.5-.5 2 3-2 1 2 2-.5.5q-5.9-4.1-8.5-11.5l-1-7-1-1v-6l2-6 3.5-3.5h5l5 2 .5-4.5 1-1v-5l1-1v-5l1.5-4.5 10.5-9.5 12.5-16.5h6zm.5 21-11 5-4 4h3l6-3h4l1-1h17l5 2v-4l-1-2h-7l-1-1zm45 2v5q1-2 6-1l1-1 7 2 4 5h1l-1-5-5-5zm-39 11-5 2q-5 3-6 10l-1-3-6 2-1 6q-2 1 0 2l-2 2h3v2l7 4h3v-2l7 5h5l3-1 5-5 2-6-1-8-3-5-4-4zm42 0-2 1-4 4-3 7v7l3 7 7 4q4 1 7-1l4-4 3-8-1-8-2-4-5-5zm-24 4-5 3 3 9v-1l8-1 2-5-3-4h-2zm14 6-2 5v6q2 4 6 7h1l-2-2-3-7zm-80 5-4 5v11l3 8q1 2 2 1l-4-11q-1-7 1-10l4-3zm80 16-2 3-3 2q-6 1-8-1l-2-3-2 1 1 2 5 3q5 1 8-1l3-4zm11 0v1h4zm-65 2-3 1-6 6-1 3q-1 6 1 9l6 5 6 2 5-1q1-2 2 0l4-3 1-2 11 8 6 3 7 6h13l3-2v-1l5-5q7-2 12-8l4 4 3 1 10-2 5-5 1-3v-4l-2-4q-3-4-7-6h-7l-3 1-5 5-2 5v5l1 3q-5 4-11 7h-2l-5-3q-4 1-4-1l-2 1q-1 2-2 0h-4l-6 3h-4l-4-2-10-8 1-2v-5l-3-6-6-5zm-9.5-65 2.5.5-2.5.5zm-2 1 2.5 2.5-.5.5-2.5-2.5z" opacity=".996"/><path fill="#fcc99f" stroke="#fcc99f" d="m175.5 211 1.5 2.5q-1 1.5-2-1zm32 70 1 1h10q.8-1.7 4-1l1.5 1.5v7q2 1 1 5l4.5 5.5 6 2 2.5 2.5q.6 4.6-2 6 2 1 0 2 .5 3.5-2 4l.5 1.5-1.5.5.5 1.5-1.5.5q2 1 0 2l-1.5 4.5-3.5-2.5-8.5-9.5-2.5-1.5-2.5-3.5-2.5-.5-1.5-2.5-2.5-.5-.5-1.5-2.5-.5-.5-1.5-4.5-1.5.5-2.5 4.5-2.5 2-5v-7zm12.5 25v4l3 1 2-1 1-3zm-92.5 122q13.3-1.2 17.5 6.5l1 4-9 13-7.5 7.5-2.5-1.5 1-4 5-7-1.5-1.5-4.5 4.5-4.5 16.5q-3 .5-3.5-1.5v-8l2-6v-5h-1l-2 10-2 4v3l-2.5 3.5-1.5-1.5v-9l4-10-1.5-.5-2.5 4.5-3 12-2.5 2.5-1.5-.5 1-10 3-7-1.5-.5-3.5 8.5v5l-2.5 2.5-1.5-.5v-4l3-9 8.5-12.5 10-5 2-2q3.3.8 4-1Z" opacity=".996"/><path fill="#eee9dc" stroke="#eee9dc" d="M179.5 115q4.1-.6 5.5 1.5l1 5-1.5 2.5-5 1-2.5-1.5-1-5 1.5-2.5zm47 0q6.3-1.2 7.5 2.5 1 5.5-2.5 6.5-6.2 1.3-7.5-2.5-1-5.5 2.5-6.5Zm37 18h2l3.5 3.5 1 3-5.5 4.5-4.5-2.5-1-4 2.5-3.5zm-120 3h3l3.5 2.5 1 2-2.5 4.5-5 1-3.5-3.5v-3zm85 56h5l4.5 3.5 2 4v10l-1 3-3.5 3.5.5-1.5q1.7-1.8 1-6l-3.5-5.5q-1.8-1.7-6-1l-4.5 4.5-.5 4.5-1.5-7.5 3-8 2.5-2.5zm-45 1h7l3.5 2.5 3 5v10l-4.5 5.5.5-1.5v-7l-4.5-5.5q-7.2-1.2-8.5 3.5l-.5 1.5-.5-1.5 2-3-2.5-1.5-.5 7.5 2 5h-1l-2-5v-8l4.5-6.5zm87 35h3l3.5 2.5q1.3 6.3-2.5 7.5h-4l-3.5-3.5v-3zm-127 2h4l3.5 3.5q-.2 4.8-3.5 6.5-5.5 1-6.5-2.5l-1-2 1-3zm70 80 2.5 2.5-.5.5-2.5-2.5zm59 48 2.5.5-.5 1.5q-1-2-2 0l-3.5-.5zm0 8q3.8-.7 4.5 1.5l-6.5.5-4 2-.5-1.5 1.5-1.5q4 1 5-1Zm5 8 1.5 1.5 1 5 6 11 12 17 4.5 4.5 8 4 3.5 3.5 8 15 3 9v3l1 1v6h-1v-3l-10-18q-9-13-20.5-23.5l-11-9-12-7-2.5-2.5-1-4 7-2-.5-1.5-1 1h-6l-2.5-2.5.5-.5 6.5-1.5-5-1 .5-1.5q6.5-.5 10-4Zm-86 9 7 1 6 3h2l8 5 12 5 2.5 2.5 1 6-4 12v5l-1 1v4l-1 1v4l-1 1-1 7-3 6-1 5-13 23-9.5 10.5-8 5-10 2q-1.2-2.2-6-1l-2.5-1.5 2-4v-3l-1-1-1-8 6.5-.5 7-3 7.5-7.5 11-16 6-12 5-16 5-9v-4l-3.5-4.5-10-5-6-1-6-3-7 3 .5-1.5q1.1-7.4 6.5-10.5Zm6.5 2-1 2q1 1 2-1zm2 1-1 1 4 3 1-2zm-57.5 5 11.5.5-10.5.5-1 1zm110 5h2l11 7 9.5 8.5 17 24 13.5 14.5q2.5 2 8 1l3.5-2.5-1-2 .5-.5 5.5 5.5 4 7 1 3v5l-1.5 2.5-1.5-.5-1.5-2.5q-3.2-.7-4 1h-8l-1 1h-8q-6.7-2.2-10.5-7.5l-4-6-13-28-7-10-5.5-5.5-12.5-8.5zm-109 3h7l3.5 1.5 1 6 1 1v4l1 1v12l-1 1v10l7 21v3l1 1v3l1 1v3l3 9 1 10-4 11-8.5 11.5q-3.5 3.5-10 4l-1-1h-8q-1.3-2.3-6-1l-1-1h-3l-6-2-8.5-7.5-6-13v-3l-2-5v-8q2-1 1-5l3.5-4.5 1.5.5q-.7 3.8 1.5 4.5 3 .5 3.5-1.5l1.5-4.5.5 4.5 2.5 2.5 3.5-1.5 1-6 1.5-1.5q.8 1.8 4 1l4-3 11 5 6.5 6.5 2 5v10l-1 1-1 8-2 4 .5.5 6.5-6.5 3.5-7.5 1.5 1.5 1.5 8.5 2.5-3.5v-9l-1-1v-3l-3-9-5-10v-2l-11-22-4.5-4.5-8-3h-11l-1.5.5 4.5-5.5 8-4h6l1 1 6 1 3.5 2.5 1.5 2.5 1.5-.5v-2l-4.5-4.5-3-1-10.5-.5 2.5-3.5h3l6 3 .5-1.5-1.5-1.5-7.5-2.5 2-5v-3l1.5-1.5zm-45 61 1 4 4-1q2 .5 1.5 3.5l-1.5.5-5-2-3 3-.5-.5zm212 13 4.5.5v3l4 9v2l7.5 10.5 7 4h6l2-1 7.5 13.5 2 8-6.5 7.5-1.5-.5-1-4-2.5-2.5-17-9-8.5-7.5-7-12-5-20 7.5-.5z" opacity=".992"/><path fill="#eee9dc" stroke="#eee9dc" d="m196.5 490 1.5 3.5v5l1 1v25l-1 1-1 9-4 8-7.5 8.5-10 6-9 3h-4l-1 1h-15l-1 1h-20l-1-1h-17l-1-1h-7l-1-1h-4l-1-1-10-2-16-8-9-6-4.5-4.5-1-5 4-10 5.5-7.5 5-2-.5 1.5-2 5v3L79.5 534l12 5h3l9 3 11 1 1 1h8l1 1h19l1-1h5l1-1h3l6-2q8.3-3.2 13.5-9.5l3-4 4-9q-1-4 1-5v-7l-1-1q.7-4.2-1-6 11.6-1.9 17.5-9.5ZM67 525v3q3-1 0-3Zm-1 3-2 3q1 1 2-1zm-3 5-4 6 1 2 3-6zm37 9v1h2zm5 1v1h2zm6 1v1h2zm7 1v1h3zm9 1v1h11l1 1v-1zm10 4-1 3h1zm-55 3v1h2zm54 0-1 6h-25v1h27l-1-1zm-51 1v1h2zm3 1v1h2zm3 1v1h3zm5 1v1h4zm6 1v1h6zm226.5-35 7.5 4.5 2 10 1 1v4l1 1v3l1 1v3l1 1v3l1 1v3l1 1v3l2 6 2 3v2l5.5 5.5q4.8-.7 5.5 2.5l2 5v11l-4 9-4.5 4.5-5 1q-4.8-1.7-7.5-5.5l-3-7v-19l-1-1v-11l-1-1-1-14-1-1-1-11-1-1v-4l-1-1v-4l-2-6z" opacity=".992"/><path fill="#eee9dc" stroke="#eee9dc" d="m190.5 550 .5 4.5 1 1v8l-1 1v9l-1 1v17q-2.2 1.3-1 6l-1 1-1 7-4.5 8.5-.5-12.5-1-1v-11l-1-1-.5-5.5-.5 20.5-1 1v17l-6.5 6.5-11 6-6 2q-4-1-5 1h-17l-1-1h-5l-1-1h-3l-1-1h-3l-6-2-10-5h-2l-13-6-8-2-15-7h-2l-12-7L39 594.5l-2-4v-10l1-1 1-6 2.5-3.5 3.5.5-1 3 4 8 9.5 9.5 12 7h2l3 2h2l3 2 9 3h3l17 6 19 2 1-1h7l1-1h3l6-2q7.8-3.2 12.5-9.5l5-10v-3l2-5v-4l1-1v-5l1-1 .5-6.5q14.1-3.4 22.5-12.5zM47 580l-1 3h1zm4 7q-2 1 1 2h1zm21 13q-2 1 2 2 1 2 2 0zm11 7v1h2zm6 1v1h2zm7 0q-3 1-1 2h5zm58 0-6 19h2l1-2 4 3v-19zm-53 2v1h3zm5 1v1h2zm5 1v1h2z" opacity=".992"/><path fill="#9d7960" stroke="#9d7960" d="m111.5 435 .5.5-3.5 3.5-.5-.5z" opacity=".467"/><path fill="#6f0a56" stroke="#6f0a56" d="M360.5 18q3.8-.7 4.5 1.5l-.5 2.5q-4.5 1-5.5-1.5zm-119 27 2.5 2.5-1.5 1.5q-3 .5-3.5-1.5l.5-1.5zm167 35q3-.5 3.5 1.5l-1.5 2.5q-3 .5-3.5-1.5zm-192 16 2.5 2.5-.5.5-2.5-2.5zm171 39h4l3.5 3.5q-.4 5.6-4.5 7.5-4.7.8-6.5-1.5l-1-5zm-24 3q7.5.5 10.5 5.5l-1 2 2 1v3l-1.5 3.5-3 2-4-5-1.5-.5-6-9zm-83 222 1.5 2.5q-1 1.5-2-1zm-2 6 2.5.5-2.5.5zm5 3 1.5 2.5q-1 1.5-2-1zm-96 5 2.5 2.5-.5.5-2.5-2.5zm4 3 1.5 1.5-2.5 2.5-.5-.5 2-2zm-56 11 .5 1.5-.5 1.5 3.5.5-3.5.5q-2.7-1.2-.5-2.5zm-1 12q2.5 1 1 2l-1-1-1.5.5zm24 0q3 1.5 0 3l-1.5-.5 2-1z" opacity=".035"/><path fill="#fe06fb" stroke="#fe06fb" d="m361.5 16 4.5 2.5q.8 3.8-1.5 4.5l-5.5-.5-1-2 1.5-3.5zm-.5 2-2 3q1 2 6 1v-2q-1-3-4-2ZM240.5 44q4-.5 4.5 2.5.5 4-2.5 4.5-4 .5-4.5-2.5l.5-3.5zm1.5 1-2 1-1 2q1 2 4 1l1-1zm166.5 34q3.8-.7 4.5 1.5.5 4-2.5 4.5-3.7.8-4.5-1.5-.5-4 2.5-4.5Zm.5 1-2 3q0 2 4 1l1-2q0-2-3-2Zm-17.5 52 4.5 2.5q1.8 2.2 1 7l-4.5 5.5-6 1-1 1-4.5-3.5q.8-3.2-1-4l4.5-7.5q1.8-1.7 6-1zm-3.5 3-5 5 1 5q2 2 7 1 4-2 4-7l-3-4zm-21.5 15 1.5 2.5h-1z" opacity=".004"/><path fill="#b68c6f" stroke="#b68c6f" d="m227.5 125 2.5 1.5-.5 3.5-1-4q-2.4-.1-1-1Zm-44 3 2.5 2.5-.5.5-2-2-.5.5-.5 2.5-.5-2.5z" opacity=".988"/><path fill="#b68c6f" stroke="#b68c6f" d="M226.5 128q2.5 1 1 2l-1-1-1.5.5zm20 7 .5 2.5h-1zm-50 6 7.5.5-7.5.5zm21 0 4.5.5-4.5.5zm-32 1 4.5.5-4.5.5zm43 0 2.5.5-2.5.5zm-49 1 2.5.5-2.5.5zm83 3 .5.5-2.5 2.5-.5-.5zm-65 5 4.5.5-4.5.5zm6 0 20.5.5-20.5.5zm-22 1 2.5.5-2.5.5zm5 2 4.5.5-4.5.5zm46 0 3.5.5-3.5.5zm-57 1 8.5.5-11.5 1.5v-1zm65 0 3.5.5-3.5.5zm6 1 2.5.5-2.5.5zm-91 3 1.5.5-2.5 1.5q-1.5-1 1-2Zm64 12 2.5.5-2.5.5zm-61 3 .5.5-3.5 3.5-.5-.5zm25 7 3.5.5-3.5.5zm6 0 2.5.5-2.5.5zm50 3 2.5 2.5-.5.5-2.5-2.5zm-60 49q2.3.8 1.5 4.5l-2.5 5.5-1.5-.5 3-7q-1.7-.7-.5-2.5Zm54 3 2.5 6.5q-1 1.5-2-1-1.9-2-.5-5.5Zm3 8 7.5 3.5-3.5.5-4.5-3.5zm-62 1 .5 1.5-1.5.5q-1.5-1 1-2Zm35 36 7.5.5-7.5.5zm15 3 .5 3.5h-1zm-4 22 4.5.5q.5 3-1.5 3.5-3 .5-3.5-1.5zm1 12 3.5 3.5-.5.5-3.5-3.5zm-70 65 3.5.5-3.5.5zm-5 9 2.5.5-2.5.5zm-1 6 3.5.5-3.5.5zm12 19 .5 3.5h-1zm-32 10 3.5.5-3.5.5zm6 0 4.5.5-4.5.5zm15 9 .5 2.5h-1zm-2 6 .5.5-2 2-6.5 8.5-.5-.5 3-3zm-30 4 .5 1.5-2 3-2 10 .5 1.5q-2-.5-1.5-3.5l1-1 1-7zm16 0 1.5.5-2 1 .5 1.5q-3-1.5 0-3Zm-23 1 .5 1.5-3.5 10.5-.5-2.5zm12 3 .5 3.5q-1 2.5-2 1zm8 2 .5 1.5q-1 2.5-2 1zm8 2 .5.5-2.5 2.5-.5-.5zm-17 2 .5 2.5q-1 2.5-2 1zm183 13 1 1h6q.8-1.7 4-1l2.5 3.5-2.5.5-1-1h-8v1l1.5.5-1.5.5q-3.7-1.2-2-5Zm-108 19 2.5.5-1 1 .5 1.5-1-1-3 3-1.5.5.5 1.5-1.5-.5-.5 1.5-1.5-.5-.5 1.5-2-1v2q-.8-1.7-4-1v2q-3.2-.7-2.5-5.5 10.5 0 15.5-5.5Zm134 32q5.9.6 8.5 4.5l-.5 2.5-1-2-1.5.5-1.5-2.5-1.5.5-.5-1.5-2 1zm-139 30 1.5.5-4 3-.5 1.5q-2.5-1-1-2zm-7 5 1.5.5-1.5 2.5zm-11 5 .5 2.5q-1 1.5-2-1zm9 28 .5 3.5h-1zm1 7 .5 3.5h-1zm1 12 .5 3.5q-1.7.8-1 4 2 1 0 2l-1.5 2.5.5-1.5v-9zm-30 10 1.5.5.5 7.5 1-3 .5 5.5h-1l-.5-1.5-1 1-2.5-2.5 1-2-1-2h2z" opacity=".988"/><path fill="#afafea" stroke="#afafea" d="m74.5 501-.5 1.5-1.5 4.5-1.5-.5zm-4 7 1.5.5-1 1 .5 1.5-1.5-.5zm-16 36q2.5 1 1 2l-1.5.5-2.5 7.5-1.5.5 2 1-3 2 2 1-2 2 1 1-3 3 .5.5 1.5.5-2.5 2.5-.5-.5q2-1 0-2l3-11 2-2 2-7z" opacity=".141"/><path fill="#e1e17d" stroke="#e1e17d" d="m41.5 305 .5 1.5-1.5.5q-1.5-1 1-2Z" opacity=".012"/><path fill="#69629a" stroke="#69629a" d="M66.5 520q2.5 1 1 2l-1.5-.5z" opacity=".396"/><path fill="#50383c" stroke="#50383c" d="m186.5 127 2.5 2.5-.5.5-2.5-2.5zm23 0 2.5 2.5-.5.5-2.5-2.5zm31 5 1.5.5-2.5 1.5q-1.5-1 1-2Zm-71 1 .5.5-2.5 2.5-1.5-.5zm83 8 2.5.5-2.5.5zm-98 1 4.5.5-4.5.5zm40 0 3.5.5-3.5.5zm-5 9 5.5.5-5.5.5zm38 0 2.5.5-2.5.5zm-49 1 2.5.5-2.5.5zm47 19 4.5.5-4.5.5zm-44 6 5.5.5-5.5.5zm102 31 .5 6.5h-1zm-54 11 2.5.5-2.5.5zm-27 4 3.5 3.5-.5.5-3.5-3.5zm14 0 .5.5-3.5 3.5-.5-.5zm18 20-.5 1.5-.5 1.5-.5-1.5zm-31 36q2.5 1 1 2l-1.5-.5zm7 1 5.5.5-5.5.5zm-6 7 1.5.5-.5 1.5-1.5-.5zm43 8q2.4 2.1 1.5 7.5-1 2.5-2 1 2.3-1.2 1-6-1.7-.7-.5-2.5Zm-33 17q2.5 1 1 2l-1.5-.5zm-23 31 .5 2.5h-1zm60 0q2.5 1 1 2l-1-1-1.5.5zm-7 4 1.5 2.5q-1 1.5-2-1zm13 0v2l1.5.5-1.5.5q-3-1.5 0-3Zm-11 4 .5 2.5-1 1 .5 1.5-1.5-.5zm8 0 1.5 1.5-2.5 2.5q-2.5-1-1-2l2.5-.5zm23 0-.5 1.5-.5 1.5-.5-1.5zm-6 2 2.5 1.5-2 1 .5 1.5-1.5-1.5 1-1zm-165 10 3.5 3.5-.5.5-3.5-3.5zm167 5 4.5.5-4.5.5zm-141 2 7.5 6.5-1.5.5-4.5-3.5-2-3zm11 5q3-.5 3.5 1.5l-1.5-.5-2 1zm-9 3 2.5.5-2.5.5zm18 3 1.5.5-2.5 1.5q-1.5-1 1-2Zm-9 3 2.5.5-2.5.5zm113 27 7.5 6.5 8 12 8 18h-1l-8-18-6-9-9-9zm-98 7 .5 2.5h-1zm146 4 1.5.5-.5 1.5q-2.5-1-1-2Zm23 41 .5 2.5h-1zm-141 1 1.5.5-3.5 3.5-.5-.5zm108 1q2.2 3.4 6.5 4.5l-1.5 3.5-2.5-.5-1-5-2-2zm-199 3 2.5.5-3.5 3.5-.5-.5 2-2zm208 0 3.5.5-.5 1.5-3.5-.5zm11 2 1.5.5q-1 2.5-2 1zm-210 3 .5 4.5h-1zm197 0 .5 1.5-1.5.5q-1.5-1 1-2Zm0 5q2.5 1 1 2l-1.5-.5zm-101 28 .5 9.5h-1zm-21 2 .5 4.5h-1zm143 7q2.8 1.2 3 5l1.5-.5-2.5 1.5-2.5-3.5zm-257 6 5.5 5.5-.5.5-5.5-5.5zm-7 21 10.5 7.5-1.5-.5-9-6-1.5.5zm64 1 2.5.5-2.5.5zm208 0q2.5 1 1 2l-1.5-.5zm-141 4 2.5 1.5-2.5.5zm142 2q2.5 1 1 2l-1.5-.5zm-261 1 8.5 4.5-1.5.5-6-3q-2.5-1-1-2Zm121 1 1.5 2.5h-1zm-99 8 2.5.5-2.5.5zm5 1 2.5.5-2.5.5zm68 0q2.8 1.3 1.5 6.5h-1v-2l-2-3zm-61 1 4.5.5-4.5.5zm55 0 .5 1.5-2.5.5v-1zm-44 1 24.5.5-24.5.5zm218 1q2.5 1 1 2l-1.5-.5zm1 9 1.5 2.5q-1 2.5-2 1zm19 5 3.5 1.5-2.5.5q-2.5-1-1-2Zm-163 3 .5 6.5h-1zm-134 8 2.5 2.5-.5.5-2.5-2.5zm279 1 1.5 3.5v3l-1.5.5zm-30 6q1.5 1-1 2l-1.5-.5zm7 1-.5 1.5-.5 2.5-1.5-1.5zm-5 8q1 2 2 0l2.5 2.5-.5.5-2-2-1 1-3.5-.5zm33 3 2.5 2.5-.5.5-2.5-2.5zm-206 3 1.5.5-3.5 1.5v-1zm-15 1 6.5.5-6.5.5zm8 0 2.5.5-2.5.5zm77 2 2.5 3.5-1.5-.5-1.5-.5 1-1zm3 0 2.5 2.5-.5.5-1.5-.5zm-8 3q2.5 1 1 2l-1-1-1.5.5zm-3 2 .5 2.5-2 2 .5 1.5q-2.7-1.2-.5-2.5zm115 1 2.5.5-2.5.5zm-100 1 .5.5-2.5 2.5-.5-.5zm-6 6 1.5 2.5h-3zm-5 12 4.5.5-4.5.5z" opacity=".992"/><path fill="#f3f3fe" stroke="#f3f3fe" d="m110.5 434 .5.5-2.5 2.5-.5-.5zm-19 37 1 1 1.5-.5-8.5 11.5.5-1.5-.5-1.5-1.5.5 1.5-1.5q1.3 2.3 2.5-.5l-.5-1.5-1.5.5 2.5-2.5 1.5.5-1-2zm-7 13-.5 1.5-1.5 2.5.5-1.5zm-5 9-.5 1.5-4.5 9.5-.5-1.5zm-10 21 .5 1.5-1.5 2.5-.5-1.5zm-16 28 1 1 1.5-.5-1 1 .5 1.5-2.5-2.5zm-6 25 .5 2.5h-1zm-1 4 .5 2.5h-1z" opacity=".082"/><path fill="#a7a601" stroke="#a7a601" d="m148.5 101 .5.5-2.5 2.5-.5-.5zm65 9 1.5 2.5q-1 1.5-2-1zm-4 2q2.5 1 1 2l-1-1-2 2-.5-.5zm-6 3q2 .5 1.5 3.5h-1l-.5-1.5-1 2-.5-1.5zm-77 7 .5.5-2.5 2.5-.5-.5zm-49 9 .5.5-3.5 3.5-.5-.5zm127 1 1.5.5q-1 2.5-2 1zm-53 13 1.5 2.5h-1zm180 3 7.5.5-7.5.5zm-6 1 3.5.5-3.5.5zm16 0q6.8 1.3 10.5 5.5l3 6h-1l-3.5-6.5-7-4h-2zm-266 1 2.5 3.5q-1 1.5-2-1zm49 0q1.5 1-1 2l-3 1v-1zm197 0 2.5.5-2.5.5zm-4 1 2.5.5-4.5 1.5v-1zm-200 2 1.5.5-3.5 1.5v-1zm74 1 11.5.5-11.5.5zm14 0 20.5.5-20.5.5zm23 0 3.5.5-3.5.5zm81 0 1.5.5-3.5 1.5v-1zm-230 1 8 4 12.5.5-12.5.5-7-3q-2.5-1-1-2Zm157 0 3.5.5-3.5.5zm23 0 .5 3.5h-1zm-154 2 2.5.5-3.5 1.5h-3v-1q3.3.8 4-1Zm60 0 2.5.5-2.5.5zm61 12q2.5 1 1 2-1-2-2 0l-2.5-.5zm20 10 2.5 2.5-.5.5-2.5-2.5zm6 6 2.5 2.5-.5.5-2.5-2.5zm-161 19 2.5.5-2.5.5zm9 0 2.5.5-2.5.5zm189 0 4.5.5-4.5.5zm6 0 4.5.5-4.5.5zm-232 3 .5 2.5h-1zm221 2 .5 4.5h-1zm-175 2 2.5.5-2.5.5zm190 13 2.5.5-2.5.5zm17 0 3.5.5-3.5.5zm-277 18 2.5.5-2.5.5zm284 5 2.5.5-2.5.5zm24 0 2.5.5-2.5.5zm-201 1 .5.5-3.5 3.5-.5-.5zm106 14 .5.5-3.5 3.5-.5-.5zm6 4 .5 4.5 1 1q-1 1.5-2-1zm-189 1 1.5.5-5.5 2.5v-1zm-42 2 2.5 1.5-1.5.5q-2.5-1-1-2Zm35 1 1.5.5-3.5 1.5v-1zm-31 2 8.5 2.5-3.5.5-5-2zm26 0 1.5.5-6.5 2.5h-4v-1h4zm240 0 .5 2.5h-1zm-37 1 6.5 4.5-1.5-.5q-4.6-1.2-5-4Zm-218 2 3.5.5-3.5.5zm226 3 3.5 1.5-1.5.5-2.5-1.5zm40 1 2.5.5-2.5.5zm-35 1 4.5 1.5-2.5.5-2.5-1.5zm14 4 2.5.5-2.5.5zm4 1 3.5.5-3.5.5zm6 1 3.5.5-3.5.5zm5 1 4.5.5-4.5.5zm-172 1 .5.5-5.5 5.5-.5-.5zm-22 23-.5 1.5-.5 2.5-1.5.5 2 2-.5.5-1.5-.5 1 2h-2l1 2q-1 1.5-2-1 .4-6.6 4.5-9.5Z" opacity=".988"/><path fill="#671e21" stroke="#671e21" d="m207.5 99 3.5 1.5-2.5.5-1-1-1.5.5zm6 1-.5 1.5-.5 1.5-.5-1.5zm1 3 1 1 1.5-.5-2.5 2.5-.5-.5 1-1zm4 1 .5 3.5h-1zm60 257q2.3.8 1.5 4.5h-1v-3zm3 9q2 .5 1.5 3.5h-1zm-122 12q3-.5 3.5 1.5 1 5.5-2.5 6.5l-1.5-.5 3-2-.5-4.5q-3 .5-2-1Zm-21 2 1.5.5-3 2-.5 1.5-.5-1.5zm17 6h2l3.5 2.5-.5 1.5-1-2-4-1zm-19 3 3.5.5-3.5.5zm-2 1 .5 5.5h-1zm185 222 4 3 5.5 1.5-3.5 1.5h-4l-3.5-2.5zm-77 14 2.5 2.5 1 5-1.5.5-2.5-1.5-2.5-3.5-1.5-.5.5-1.5q3.3.8 4-1Z" opacity=".553"/><path fill="#5c5275" stroke="#5c5275" d="m222.5 171 2.5.5-2.5.5zm-14 56 2.5.5-2.5.5zm-18 48v2l5 2 1.5-.5-.5 1.5 3-1v2l3-1v2l1.5.5q-2.2 2.8-1 9l.5 1.5-1.5-.5q.5 3-1.5 3.5l-4 1-3-1v1l1.5.5-1.5.5-11.5-10.5-2-6 3.5-3.5 5-1zm37 7 10.5 9.5 3 6v5l-1.5 2.5-1.5-3.5h2q-.4-8.6-5.5-12.5-2.7 1.3-.5 2.5-.8 5.3 2 7l-1.5.5-3-1-1.5.5.5-1.5-1.5-.5-.5-1.5-1.5.5q2-1 1-5h-1l-.5 1.5-.5-1.5 1-1zm-59 7 4.5 4.5-.5.5-4.5-4.5zm80 6 .5 1.5q-2.2 1.3-1 6l.5 1.5q-2.7-1.2-1.5-6.5zm-133 42 3 4 8.5 4.5-1.5-.5q-7.4-1.1-10.5-6.5zm76 1 .5 4.5h-1zm94 9 .5 1.5-1.5 2.5q-3-.5-3.5 1.5l-.5 1.5-13 4-.5-1.5q3.8-.2 5-3l-2-1 .5-1.5 2.5 2.5-.5 1.5 4.5-1.5-1-4q1-1.5 2 1-2.2 1.3.5 2.5zm-19 4 .5 2.5h-1zm-89 13 .5.5-2 2-4.5 7.5-1.5-.5 3-4-.5-.5-2 2-7.5 4.5 2 1-2 1 .5 1.5-3-1v2q-.7-1.7-4-1l-1 1h-8l-3 1-1-1h-7l-1.5.5 5.5-4.5h2q1 2 2 0l2 1 2-3 1.5.5-1 2h2l.5 2.5 2-1q1 2 2 0l2.5-1.5 1.5-5.5 2 4 13-8zM160 374l-1 3v1l4-1-2-1zm-29.5-6 3.5 4.5-.5.5-2.5-2.5zm6 5 2.5 2.5-1.5 1.5.5-1.5-2-2zm-11 2 5 1 1.5 1.5-2.5 1.5v-2l-3 1v-2l-2 1q-1.5-1 1-2Zm8 2 1.5.5-2.5 2.5-.5-.5zm17 4 2.5 1.5-1.5-.5q-2.4-.1-1-1Zm8 34 .5 2.5h-1zm158 29 .5 1.5-2.5 1.5v-1l1.5-.5zm-36 5 3 4 1.5-.5-1 2h2l-1 2 1.5 1.5 1.5-.5-1 2 1.5 1.5 1.5-.5-1 1 5 5 .5 2.5 1-2 .5 1.5-1 1 2 2-.5.5-8.5-7.5-8-15zm28 0 2.5.5-1.5 1.5q-2.5-1-1-2Zm13 0 1.5.5-.5 1.5q-2.5-1-1-2Zm-86 6 3.5.5-3.5.5zm6 0 4.5.5-4.5.5zm83 0 2.5 1.5-1.5-.5q-2.4-.1-1-1Zm-8 13 5.5 1.5.5 1.5q1.3-2.2 2.5.5l-7.5.5-.5-1.5 2-1-2.5-.5-1.5.5zm-145 3 2.5.5-2.5.5zm-68 1 .5 2.5h-1zm195 1 1.5.5q-1.7.8-1 4l2 5v4l1 1 1 7 4.5 9.5 2-2 .5.5-2 3 7.5 8.5 3-2 .5.5-2 2 1.5 1.5 4.5 2.5 1.5 2.5 1.5.5-1 3 2 1q-1.7.8-1 4h2q-1.7.8-1 4l2 1q-2 1-1 5h2l-1 5 2 1q-2 1-1 5l2 1q-2.2 1.2-1 6h2q-2 2.5-1 8h2l-1 2v9h2l-1 3v17h2l-1 6 1.5 2.5 2-1 .5.5-2 2 3 3-.5.5q-3.8-2.7-5.5-7.5 1-4-1-5v-20l-1-1v-10l-1-1-1-14-1-1v-5l-1-1v-4l-1-1v-4l-1-1v-4l-1-1-1-8-3.5-3.5q-7.5-3-11.5-9.5l-7-14v-3l-3-9v-4l-1-1zm-92 3 .5.5-2 2-6.5 8.5.5-1.5 5-6-.5-1.5zm-38 16 2 1 1.5-.5-.5 1.5 3.5.5.5 2.5 1.5-.5-1.5 2.5q-1.8-1.7-6-1l-1.5-1.5 1-3zm168 8 1.5.5q-1 2.5-2 1zm-136 3 .5 2.5q-1 1.5-2-1zm0 13 .5 3.5q-1 1.5-2-1zm97 1 2.5 7.5v3l1 1v3l1 1v3l1 1v3l1 1v3l1 1v3l1 1v3l1 1v3l1 1v3l1 1v3l1 1v3l5.5 13.5 3.5-1.5 1.5-4.5.5 5.5 1 1v6l1 1v5l1 1 1 12 2 6v4l-1.5-.5-3-1q-1.2 2.3-2.5-.5l-.5-1.5-2.5 2.5.5 1.5-1.5-.5-.5 1.5-1.5-2.5q1.2-6.2-1-9l1-2-1-3h1l.5 1.5.5-5.5h-1l-.5 2.5-.5-2.5 1-2-1.5.5-1-1-1.5-.5q2-1 1-5l-1-1-1-10-2-5v-4l-1-1v-4l-1-1v-4l-1-1v-4l-1-1v-4l-1-1v-4l-1-1v-4l-2-6-1-12-1-1zm8.5 37-1 3h1zM71.5 526q2.5 1 1 2l-1.5-.5zm270 0 .5.5-2 2 .5 1.5 1.5-.5-1.5 2.5-1.5-3.5zm-225 16 2.5.5-2.5.5zm9 1 4.5.5-4.5.5zm15 0 2.5.5-2.5.5zm-8 1 4.5.5-4.5.5zm-37 15q2.5 1 1 2l-1.5-.5zm5 1 3.5 1.5-2.5.5q-2.5-1-1-2Zm9 1 5.5 1.5-4.5.5q-2.5-1-1-2Zm51 1 4.5 1.5-4.5 1.5h-20l-.5-1.5 1.5.5 19.5-.5zm5 4q2.5 1 1 2l-1.5-.5zm27 1 .5 1.5-1.5.5q-1.5-1 1-2Zm-145 8 .5 2.5-1.5.5.5-1.5zm191 1 .5 14.5 1 1v10l1 1v9l1 1v7l1 1q-1 5.5 1 8l-1.5.5-3-1-1 2-.5-20.5-1-1v-8l1-1zm-47 1 .5 3.5q-1 1.5-2-1zm-140 6 4.5 4.5-.5.5-4.5-3.5zm230 2 6 39 1.5.5-1.5.5-1.5-.5.5 1.5 2.5 1.5-1.5-.5-2 1-1.5-3.5-1-20-1-1v-10l-1-1zm4.5 34-1 3h1z" opacity=".988"/><path fill="#5c5275" stroke="#5c5275" d="m336.5 589 .5 2.5h-1zm-40 9q2.5 1 1 2l-1.5-.5zm8 8-.5 1.5-.5 1.5-1.5-.5zm-103 7 2.5 2.5-.5.5-2.5-2.5zm-22 6q1 2 2 0l1.5 1.5-2.5.5q-2.5-1-1-2Zm33 1 .5 2.5h-1zm-32 2 1.5 2.5-3.5 2.5-.5-1.5zm15 0 1.5.5-2.5 1.5q-1.5-1 1-2Zm10 6q2.5 1 1 2-1-2-2 0l-1.5-.5zm49 7 6.5.5-6.5.5zm-120 2 2.5.5-2.5.5z" opacity=".988"/><path fill="#392e60" stroke="#392e60" d="m188.5 373 3.5 3.5-.5.5-3.5-3.5zm5 6 2.5 2.5-.5.5-2.5-2.5zm-146 192 .5 2.5h-1z" opacity=".565"/><path fill="#918110" stroke="#918110" d="m60.5 213 .5 2.5h-1zm270 37 13.5.5-13.5.5zm-16 5q1.5 1-1 2l-1.5-.5zm-285 37 2.5.5-2.5.5z" opacity=".02"/></svg>