<svg xmlns="http://www.w3.org/2000/svg" viewBox="0 0 554 640"><path fill="#0000fe" stroke="#0000fe" d="M370.5 160h29l1.5 1.5 9 17 13 21 2 5 13 21 2 5 13 21 2 5 13 21 2 5 5 7 2 5-5 7-9.5 17.5-2.5-1.5-10-19-5-7-10-19-5-7-10-19-5-7-10-19-5-7-6-12-24-40zm61 0 30.5.5 13 24 5 7 10 19 18 30-15.5 25.5-16.5-27.5-2-5-2-2-2-5-5-7-10-19-5-7-10-19-9-14zm62 0h29l1.5 1.5 12 22 2 2v3L523.5 213 507 185.5l-2-5-2-2-2-5-5-7-3-6zm-140 28 1.5.5 75 131-29.5.5-13.5-22.5-2-5-2-2-2-5-5-7-2-5-2-2-2-5-2-2-2-5-5-7-10-19-5-7-7-14zm-31 53 1.5.5 45 78-29.5.5-2.5-2.5-2-5-2-2-2-5-5-7-2-5-2-2-2-5-12-20zm-30 53 14.5 25.5-29.5.5-.5-.5 2-2 2-5zm-199 26h29l1.5 1.5 76 132-11 18-2 5-2.5 2.5-13.5-22.5-2-5-2-2-2-5-5-7-2-5-2-2-2-5-5-7-10-19-5-7-10-19-5-7-10-19-5-7-6-12-5-7zm61 0 30.5.5 13 24 5 7 10 19 17 28v3L215.5 426 199 398.5l-2-5-2-2-2-5-5-7-10-19-5-7-10-19-9-14zm62 0h29l1.5 1.5 12 22 2 2v2L246.5 372l-1.5-.5-6-12-20-33-3-6zm-140 27 7.5 11.5 2 5 13 21 2 5 13 21 2 5 13 21 2 5 2 2 20 36-29.5.5-13.5-22.5-2-5-2-2-2-5-5-7-2-5-2-2-2-5-2-2-2-5-5-7-10-19-9-14-3-6v-2l2-2zm-31 54 1.5.5 45 78-29.5.5-2.5-2.5-6-12-5-7-10-19-5-7-3-7zm-30 53L30 479.5.5 480l.5-1.5 12-22z" opacity=".973"/><path fill="#00fe00" stroke="#00fe00" d="m31.5 160 29.5.5L30.5 213 21 195.5l-5-7v-3zm61 0 29.5.5-10 19-5 7-10 19-5 7-2 5-2 2-2 5-2 2-2 5-5 7-2 5L61.5 266 46 240.5zm62 0 29.5.5L92.5 319l-1.5-.5-2-5-12-20zm45 28 2.5 1.5 13 24L153.5 320l-29.5-.5zm31 53 1.5.5 2 5 12 20-15 25-2 5-2 2-2 5-2 2-2 5-6.5 9.5-29.5-.5zm31 53 15.5 25.5-29.5.5-.5-1.5 2-2zm47 26 29.5.5-29.5 51.5-2.5-1.5-9-17-2-2-2-6zm61 0 30.5.5-5 7-10 19-5 7-6 12-5 7-2 5-2 2-2 5-2 2-2 5-5 7-2 5-13.5 22.5-13.5-22.5-1-5 9-14 2-5 2-2 2-5 9-14 2-5 2-2zm62 0 29.5.5L369.5 479 354 453.5zm46 27 14.5 26.5L430.5 480l-29.5-.5 20-36 9-14 2-5 2-2 2-5 5-7 6-12 5-7 10-19zm30 54 1.5.5 14 25-12 20-2 5-5 7-2 5-2 2-2 5-2 2-2 5-2.5 2.5-29.5-.5zm31 53 15.5 25.5-29.5.5-.5-1.5 2-2z" opacity=".996"/><path fill="#00fefe" stroke="#00fefe" d="m261.5 27 31.5.5 14 25-59.5.5-.5-1.5zm-30 53h91l2.5 2.5 2 5 11 18-121.5.5.5-1.5 12-22zm-32 54 155.5.5 2 5 12 20-183.5.5.5-1.5zm2 53 151.5.5-14.5 25.5-123.5-.5-12-22-2-2zm30 53 91.5.5-15.5 25.5h-61l-1.5-1.5-12-22-2-2zm31 54 29.5.5-5 7-9.5 17.5-1.5-.5-2-5-12-19zm-1 53 31.5.5 14 25-59.5.5.5-1.5zm-30 53h91l1.5 1.5 14 24-121.5.5-.5-.5 2-2 10-19zm-31 54h153l2.5 2.5 2 5 11 18-183.5.5.5-1.5 12-22zm1 53 151.5.5-2 5-12.5 20.5h-123l-1.5-1.5-2-5-9-14-2-4zm30 53 91.5.5-11 18-2 5-2.5 2.5h-61l-2.5-2.5-2-5-9-14-2-4zm31 54 29.5.5-14.5 24.5-1.5-.5-11-20-2-2z" opacity=".996"/><path fill="#5e9e9f" stroke="#5e9e9f" d="m216.5 106 121.5.5-121.5.5zm-16 27 153.5.5-153.5.5zm46 133 61.5.5-61.5.5zm16 27 29.5.5-29.5.5zm-47 133 123.5.5-123.5.5zm-16 26 1 1h153l1.5-.5-1.5 1.5h-153q-2.5-1-1-2Zm47 134 61.5.5-61.5.5zm16 27 29.5.5-29.5.5z" opacity=".973"/><path fill="#fe0000" stroke="#fe0000" d="m276.5 1 1.5.5 9 17 5 7-29.5.5-.5-.5 2-2zm-30 53h61l1.5 1.5 14 24-91.5.5.5-1.5 11-20zm-31 53 123.5.5 14 25-151.5.5-.5-1.5zm-30 53 183.5.5-11 18-2 5-2.5 2.5h-153l-2.5-2.5-10-19-2-2zm31 54 121.5.5-15.5 25.5h-91l-1.5-1.5-12-22-2-2zm31 53 59.5.5-14.5 25.5-31.5-.5-9-17-2-2-3-6zm29 54 1.5.5 9 17 5 7-29.5.5-.5-.5 2-2zm-30 53h61l1.5 1.5 14 24-91.5.5-.5-.5 2-2 10-19zm-31 53 123.5.5 14 25-151.5.5-.5-1.5zm-30 53 183.5.5-11 18-2 5-2.5 2.5h-153l-2.5-2.5-2-5-9-14-2-4zm31 54 121.5.5-15.5 25.5h-91l-1.5-1.5-11-20-2-2zm31 53 59.5.5-14.5 25.5-31.5-.5-9-17-5-7z" opacity=".996"/><path fill="#fe00fe" stroke="#fe00fe" d="m.5 160 29.5.5L15.5 186 0 160.5zm62 0 29.5.5L46.5 239l-1.5-.5-14-25 11-20 5-7 2-5 2-2 2-5 5-7 2-5zm61 0 29.5.5-2 5-5 7-10 19-5 7-6 12-5 7-2 5-2 2-2 5-2 2-2 5-5 7-2 5-2 2-2 5-2 2-2 5-5 7L77.5 292l-2.5-1.5-13-24zm61 1 2.5 2.5 2 5 11 18L122.5 320l-29.5-.5zm31 53 13.5 22.5 1 5-45.5 78.5-30.5-.5 2-2 6-12 5-7 10-19 5-7 10-19 5-7 2-5zm30 54 2.5 1.5 9 17 2 2 2 6-15.5 25.5-29.5-.5zm32 52 29.5.5-14.5 25.5-15.5-25.5zm62 0 29.5.5-45.5 78.5-2.5-2.5-2-5-11-18 12-20 2-5 2-2 2-5 2-2 2-5 5-7 2-5zm61 0 29.5.5-2 5-5 7-10 19-5 7-10 19-5 7-2 5-2 2-2 5-5 7-2 5-2 2-2 5-2 2-2 5-5 7-12.5 22.5-1.5-.5-14-25zm61 1 2.5 2.5 13 23L399.5 480l-29.5-.5zm31 53 12.5 20.5 2 4v3L461.5 480l-30.5-.5 2-2 6-12 5-7 10-19 5-7 10-19 5-7 2-5zm31 53 9.5 17.5 2 2 3 6v2L522.5 480l-29.5-.5z" opacity=".996"/><path fill="#fe01ff" stroke="#fe01ff" d="m.5 157 30.5.5-30.5.5zm62 0 29.5.5-29.5.5zm61 0 30.5.5-30.5.5zm-123 2 30.5.5-30.5.5zm62 0 29.5.5-29.5.5zm61 0 30.5.5-30.5.5zm-123 4 1.5.5-.5 1.5 1.5.5q-2.5 1.5 1 3l.5 1.5 1.5.5-.5 1.5 1.5.5q-2.2 1.3.5 2.5l1.5.5-.5 1.5 1.5.5q-2 1 0 2l1.5 2.5 1.5.5-.5 1.5 1.5.5q-1.5 3-3 0l-6-12-5-7zm29 51 1 2 1.5-.5-.5 1.5 1.5.5q-2.5 1.5 1 3l.5 1.5 1.5.5-.5 1.5 1.5.5q-2.2 1.3.5 2.5l1.5.5-.5 1.5 1.5.5q-2 1 0 2l1.5 2.5 1.5.5-.5 1.5 1.5.5q-2 1 0 2l-.5 1.5L31 217.5l-2-2zm30 52 1 2 1.5-.5-.5 1.5 1.5.5q-2.3 1.2.5 2.5l1.5.5-.5 1.5 1.5.5-.5 1.5 1.5.5q-2.2 1.3.5 2.5l1.5.5-.5 1.5 1.5.5q-2 1 0 2l1.5 2.5 1.5.5-.5 1.5 1.5.5q-2.5 1.5 1 3l-.5 1.5L59 267.5zm405 54 13.5 23.5-.5.5-2-2-1.5-.5.5-1.5-1.5-.5.5-1.5-1.5-.5q2.3-1.3-.5-2.5l-1.5-.5.5-1.5-1.5-.5q2-1 0-2l-1.5-2.5-1.5-.5.5-1.5-1.5-.5q2.5-1.5-1-3zm30 54 1.5.5 14 25h-1l-.5-1.5-1.5.5.5-1.5-1.5-.5q2.5-1.5-1-3l-.5-1.5-1.5-.5.5-1.5-1.5-.5q2.2-1.2-.5-2.5l-1.5-.5.5-1.5-1.5-.5q2-1 0-2l-1.5-2.5-1.5-.5.5-1.5-1.5-.5 1-1-2-2zm30 52 3.5 3.5 13 24h-1l-1.5-2.5-1.5-.5.5-1.5-1.5-.5q2.5-1.5-1-3l-.5-1.5-1.5-.5.5-1.5-1.5-.5q2.3-1.2-.5-2.5l-1.5-.5.5-1.5-1.5-.5q2-1 0-2l-1.5-2.5-1.5-.5.5-1.5-1.5-.5 1-1-2-2zm-154 54 29.5.5-29.5.5zm61 0 29.5.5-29.5.5zm61 0 30.5.5-30.5.5zm-122 2 29.5.5-29.5.5zm61 0 30.5.5-30.5.5zm62 0 29.5.5-29.5.5z" opacity=".024"/><path fill="#fefe00" stroke="#fefe00" d="m401.5 160 29.5.5 12 22 9 14 2 5 2 2 2 5 9 14 2 5 9 14 2 5 2 2 2 5 5 7 3 7-14.5 25.5-15.5-25.5-10-19-5-7-6-12-5-7-10-19-5-7-10-19-9-14zm61 0h29l2.5 2.5 2 5 13 21 14 26-5 7-9.5 17.5-1.5-.5-20-36-13-21-2-5-9-14zm62 0 29.5.5-15.5 25.5-12.5-22.5-2-2zm-155 1L461 319.5l-29.5.5L354 186.5l11-18 2-5zm-31 53 13.5 22.5 2 5 5 7 2 5 2 2 2 5 2 2 2 5 5 7 10 19 5 7 6 12 5 7-30.5.5-17.5-31.5-2-2-2-5-9-14-2-5-9-14-2-5-2-2v-3zm-31 54 1.5.5 2 5 2 2 2 5 2 2 2 5 5 7 2 5 12 20-29.5.5-15.5-25.5v-2zm-183 52 29.5.5 12 22 9 14 2 5 2 2 2 5 9 14 2 5 2 2 2 5 13 21 2 5 2 2 2 5-14.5 24.5-1.5-.5-9-17-13-21-2-5-24-40-2-5-13-21-2-5-9-14q-1.7-1.5-.5-3.5Zm61 0h29l2.5 2.5 2 5 2 2 2 5 2 2 2 5 5 7 2 5 12 20-14.5 25.5-1.5-.5-20-36-9-14-2-5-2-2-2-5-9-14zm62 0 29.5.5-15.5 25.5-12.5-22.5-2-2zm-156 1 1.5.5 91 158-29.5.5L77 346.5zm-30 53L75 396.5l2 5 5 7 2 5 2 2 2 5 2 2 2 5 5 7 6 12 5 7 14 26-29.5.5L46 399.5zm-31 53L61 479.5l-29.5.5L16 454.5v-3l5-7z" opacity=".996"/><path fill="#00fefd" stroke="#00fefd" d="m258.5 27 2.5.5-1.5 2.5-1.5.5q2 1 0 2l-2.5 4.5-1.5.5q2 1 0 2l-1.5 2.5-1.5.5.5 1.5-1.5.5q2 1 0 2l-1.5 2.5-1.5.5.5 1.5-1-1-1.5.5zm35 0 2.5.5 2 5 11 18-2.5.5v-2l-2.5-1.5-1-2 .5-1.5-1.5-.5.5-1.5-2.5-1.5-1-2 .5-1.5-2.5-1.5-1-2 1-2h-2l.5-1.5-2.5-1.5zm-65 53 1 1 1.5-.5-3 2q2 1 0 2l-2.5 4.5-1.5.5q2 1 0 2l-1.5 2.5-1.5.5.5 1.5-1.5.5q2 1 0 2l-1.5 2.5-1.5.5.5 1.5-1.5-.5 1 2-1.5 1.5-1-1-1.5.5zm95 0q1 2 2 0l1.5 1.5 9 17 5 7-1.5-.5-1 1-1.5-1.5 1-2h-2l.5-1.5-2.5-1.5-1-2 .5-1.5-1.5-.5.5-1.5-2.5-1.5-1-2 .5-1.5-2.5-1.5-2-4 .5-1.5q-3.8-.7-2-2Zm-126 53 2.5.5-2 1q2 1 0 2l-2.5 4.5-1.5.5q2 1 0 2l-1.5 2.5-1.5.5.5 1.5-1.5.5q2 1 0 2l-1.5 2.5-1.5.5.5 1.5-1.5-.5 1 2-1.5 2.5-2.5-1.5 2-2zm157 0 2.5.5 5 10 9 14-2.5 1.5-1.5-2.5 1-2h-2l.5-1.5-2.5-1.5-1-2 .5-1.5-1.5-.5.5-1.5-2.5-1.5-1-2 .5-1.5-2.5-1.5-2-4 .5-1.5q-2.4-.1-1-1Zm-156 374 2 3 1.5-.5-1 2h2l-.5 1.5 2.5 1.5 1 2-.5 1.5 1.5.5-.5 1.5 2.5 1.5 1 2-.5 1.5 2.5 1.5 2 4-.5 1.5 1.5.5-2.5.5-12.5-22.5-2-2zm157 0 .5 1.5-5 7-9.5 17.5-2.5-.5 2-1q-2-1 0-2l2.5-4.5 1.5-.5q-2-1 0-2l1.5-2.5 1.5-.5-.5-1.5 1.5-.5q-2-1 0-2l1.5-2.5 1.5-.5-.5-1.5 1.5.5-1-2 1.5.5 1.5-1.5zm-127 53q1 2 2 0l1.5 1.5-1 2h2l-.5 1.5 2.5 1.5 1 2-.5 1.5 1.5.5-.5 1.5 2.5 1.5 1 2-.5 1.5 2.5 1.5 2 4-.5 1.5 2.5 1.5-.5 1.5-1-2-1 2-13.5-24.5-2-2zm95 0 1 1 1.5-.5-5 7-10.5 19.5-1-2-1 2-.5-1.5 3-2-.5-1.5 1.5.5-1-2 2.5-3.5 1.5-.5q-2-1 0-2l1.5-2.5 1.5-.5-.5-1.5 1.5-.5q-2-1 0-2l1.5-2.5 1.5-.5-.5-1.5 1.5-.5q-2.3-1.2.5-2.5Zm-63 55 1 1 1.5-.5-.5 1.5 2.5 1.5 1 2-.5 1.5 1.5.5-.5 1.5 2.5 1.5 1 2-.5 1.5 2.5 1.5 2 4-.5 1.5 2.5 1.5.5 1.5 1.5-.5 1.5-2.5 1.5-.5-.5-1.5 1.5.5-1-2 2.5-3.5 1.5-.5q-2-1 0-2l2.5-4.5 1.5-.5q-2-1 0-2l1.5-2.5 1.5-.5-.5-1.5 1 1 1.5-.5-14.5 24.5q-1-2-2 0l-2-1q-1.2 2.2-2.5-.5l-6-12-5-7-2-4z" opacity=".031"/><path fill="#2626ed" stroke="#2626ed" d="m371.5 157 28.5.5-28.5.5zm60 0 30.5.5-30.5.5zm62 0 29.5.5-29.5.5zm-124 2 30.5.5-30.5.5zm62 0 29.5.5-29.5.5zm61 0 30.5.5-30.5.5zm48 27 .5 1.5-11 18-2 5-3.5 3.5.5-1.5-1-1 1.5-1.5 1.5-.5-.5-1.5 1.5-.5-.5-1.5 1.5.5-1-2 3-2-.5-1.5 1.5-.5q-2.2-1.2.5-2.5l1.5-.5-.5-1.5 1.5-.5-.5-1.5 1.5-.5q-2.2-1.2.5-2.5l1.5-.5-.5-1.5 1.5-.5-.5-1.5 1.5.5zm-31 54 .5 1.5-2 2-12.5 22.5-2.5-.5 2-1q-2.2-1.2.5-2.5l1.5-.5-.5-1.5 1.5-.5-.5-1.5 1.5.5-1-2 3-2-.5-1.5 1.5-.5q-2.2-1.2.5-2.5l1.5-.5-.5-1.5 1.5-.5-.5-1.5 1.5-.5q-2.3-1.2.5-2.5l1.5-.5-.5-1.5 1.5.5zm-34 56 1 1 1.5-.5-13.5 23.5-1.5-2.5 2-1q-2.3-1.2.5-2.5l1.5-.5-.5-1.5 1.5-.5-.5-1.5 1.5-.5q-2.3-1.3.5-2.5l1.5-.5-.5-1.5 1.5-.5-.5-1.5 1.5.5-1-2 3-2-.5-1.5 1.5-.5zm-401 51q2.5 1 1 2l-1.5.5q2.2 1.3-.5 2.5l-1.5.5.5 1.5-1.5.5.5 1.5-1.5-.5 1 2-3 2 .5 1.5-1.5.5q2.3 1.3-.5 2.5l-1.5.5.5 1.5-1.5.5.5 1.5-1.5.5q2.3 1.3-.5 2.5l-1.5.5.5 1.5-1.5-.5-.5 1.5-.5-1.5zm-31 53 1.5 2.5-3 2 .5 1.5-1.5.5.5 1.5-1.5-.5 1 2-3 2 .5 1.5-1.5.5q2.3 1.3-.5 2.5l-1.5.5.5 1.5-1.5.5.5 1.5-1.5.5q2.3 1.3-.5 2.5l-1.5.5.5 1.5-1.5-.5 1 2q-1 1.5-2-1zm-31 54 1 1 1.5-.5-3 2 .5 1.5-1.5.5.5 1.5-1.5-.5 1 2-3 2 .5 1.5-1.5.5q2.3 1.3-.5 2.5l-1.5.5.5 1.5-1.5.5.5 1.5-1.5.5q2.2 1.2-.5 2.5l-1.5.5.5 1.5-1.5-.5v-2zm-12 26 30.5.5-30.5.5zm62 0 29.5.5-29.5.5zm61 0 30.5.5-30.5.5zm-123 2 30.5.5-30.5.5zm62 0 29.5.5-29.5.5zm61 0 30.5.5-30.5.5z" opacity=".078"/><path fill="#00fe00" stroke="#00fe00" d="m31.5 157 29.5.5-29.5.5zm61 0 30.5.5-30.5.5zm62 0 28.5.5-28.5.5zm-123 2 30.5.5-30.5.5zm62 0 29.5.5-29.5.5zm61 0 30.5.5-30.5.5zm-141 28 1 1 1.5-.5-.5 1.5 2.5 1.5 1 2-.5 1.5 2.5 1.5 2 4-.5 1.5 2.5 1.5 1 2-1 2h2l-.5 1.5 2.5 1.5 1 2-1 1 .5 1.5-3.5-3.5-6-12-5-7-2-4zm31 53 1 2q1.3-2.2 2.5.5l1 2-.5 1.5 2.5 1.5 2 4-.5 1.5 2.5 1.5 1 2-1 2h2l-.5 1.5 2.5 1.5 1 2-1.5 2.5L46 243.5l-2-2zm32 56 1 1 1.5-.5-.5 1.5 2.5 1.5 2 4-.5 1.5 2.5 1.5 1 2-.5 1.5 1.5.5-.5 1.5 2.5 1.5 1 2-.5 1.5 1.5.5-1.5 2.5-9.5-17.5-2-2-2-4zm403 51 3.5 4.5 12 22h-1l-.5-1.5q-1.3 2.3-2.5-.5l-1-2 .5-1.5-2.5-1.5-2-4 .5-1.5-2.5-1.5-1-2 1-2h-2l.5-1.5-2.5-1.5-1-2 .5-1.5-1.5-.5zm31 53 14.5 25.5h-1l-.5-1.5q-1.2 2.3-2.5-.5l-1-2 .5-1.5-2.5-1.5-2-4 .5-1.5-2.5-1.5-1-2 1-2h-2l.5-1.5-2.5-1.5-1-2zm29 54q1 2 2 0l1.5 1.5 6 12 5 7v2l-1.5.5-2.5-3.5.5-1.5-1.5-.5.5-1.5-2.5-1.5-1-2 .5-1.5-2.5-1.5-1-2 1-2h-2l.5-1.5-2.5-1.5zm-139 26 30.5.5-30.5.5zm62 0 29.5.5-29.5.5zm61 0 30.5.5-30.5.5zm-123 2 30.5.5-30.5.5zm62 0 29.5.5-29.5.5zm61 0 30.5.5-30.5.5z" opacity=".043"/><path fill="#ac5866" stroke="#ac5866" d="m262.5 26 29.5.5-29.5.5zm-16 27 61.5.5-61.5.5zm-46 133h153l1.5 1.5-1.5-.5h-153l-1 1q-1.5-1 1-2Zm15 27 123.5.5-123.5.5zm47 133 29.5.5-29.5.5zm46 26q1.5 1-1 2l-61.5-.5 61.5-.5zm-108 134 153.5.5-153.5.5zm16 27 121.5.5-121.5.5z" opacity=".976"/><path fill="#fefe00" stroke="#fefe00" d="m400.5 157 30.5.5-30.5.5zm62 0 29.5.5-29.5.5zm61 0 30.5.5-30.5.5zm-123 2 30.5.5-30.5.5zm62 0 29.5.5-29.5.5zm61 0 30.5.5-30.5.5zm29 4 1.5.5v2L541.5 186l-1-1-1.5.5 2.5-3.5 1.5-.5-.5-1.5 1.5.5-1-2 2.5-3.5 1.5-.5q-2-1 0-2l2.5-4.5 1.5-.5q-2-1 0-2zm-28 51 .5 1.5-2 2-12.5 22.5-1.5-2.5 2.5-3.5 1.5-.5-.5-1.5 1.5.5-1-2 2.5-3.5 1.5-.5q-2-1 0-2l2.5-4.5 1.5-.5q-2-1 0-2l1.5-2.5 1.5.5zm-30 52 .5 1.5-15.5 25.5q-2.5-1-1-2l1.5-.5q-2-1 0-2l1.5-2.5 1.5-.5-.5-1.5 1.5.5-1-2 2.5-3.5 1.5-.5q-2-1 0-2l2.5-4.5 1.5-.5q-2-1 0-2l1.5-2.5 1.5.5zm-405 54 1.5 2.5-2 1q2 1 0 2l-1.5 2.5-1.5.5.5 1.5-1.5-.5 1 2-2.5 3.5-1.5.5q2 1 0 2l-2.5 4.5-1.5.5.5 1.5-1-1-1.5.5zm-31 54 2.5.5-2 1q2 1 0 2l-1.5 2.5-1.5.5.5 1.5-1.5-.5 1 2-2.5 3.5-1.5.5q2 1 0 2l-2.5 4.5-1.5.5q2 1 0 2l-1.5 2.5-1.5-.5-.5 1.5-.5-1.5 2-2zm-29 52-.5 1.5 1 1-1 1-1.5 2.5-1.5.5.5 1.5-1.5-.5 1 2-2.5 3.5-1.5.5q2 1 0 2l-2.5 4.5-1.5.5q2 1 0 2l-1.5 2.5-1.5.5.5 1.5-1.5-.5-.5 1.5-.5-1.5 11-18 2-5zm2 54 30.5.5-30.5.5zm62 0 29.5.5-29.5.5zm61 0 30.5.5-30.5.5zm-123 2 29.5.5-29.5.5zm61 0 30.5.5-30.5.5zm62 0 29.5.5-29.5.5z" opacity=".055"/><path fill="#fe0000" stroke="#fe0000" d="M274.5 0q2.5 1 1 2l-1.5.5.5 1.5-2.5 1.5.5 1.5-1.5.5.5 1.5-1.5.5.5 1.5-2.5 1.5.5 1.5-1.5.5.5 1.5-1.5.5.5 1.5-2.5 1.5.5 1.5-1.5.5.5 1.5-1.5.5.5 1.5-1-1-1.5.5zm5 0L294 24.5h-3l.5-1.5-1.5-.5.5-1.5-1.5-.5q2.3-1.3-.5-2.5l-1.5-.5.5-1.5-1.5-.5.5-1.5-1.5-.5q2.3-1.2-.5-2.5l-1.5-.5.5-1.5-1.5-.5q2-1 0-2l-.5-1.5-1.5.5.5-1.5-1.5-.5.5-1.5-1.5-.5zm-36 53 1.5 2.5-3 2 .5 1.5-1.5.5.5 1.5-1.5.5.5 1.5-2.5 1.5.5 1.5-1.5.5.5 1.5-1.5.5.5 1.5-2.5 1.5.5 1.5-1.5.5.5 1.5-1.5.5.5 1.5-1.5-.5-1 2 .5 1.5-1-1-1.5.5 5-7zm67 0L324 77.5l2 2h-3q2-1 0-2l-.5-1.5-1.5.5.5-1.5-1.5-.5.5-1.5-1.5-.5q2.3-1.2-.5-2.5l-1.5-.5.5-1.5-1.5-.5.5-1.5-1.5-.5q2.3-1.2-.5-2.5l-1.5-.5.5-1.5-1.5-.5.5-1.5-1.5-.5q2.3-1.2-.5-2.5l-1.5-.5zm-98 54 2.5.5-3 2 .5 1.5-1.5.5.5 1.5-1.5.5.5 1.5-2.5 1.5.5 1.5-1.5.5.5 1.5-1.5.5.5 1.5-2.5 1.5.5 1.5-1.5.5.5 1.5-1.5.5.5 1.5-1.5-.5-2.5 4.5-.5-1.5 5-7zm127 0 2.5.5 14 25h-1l-2.5-4.5-1.5.5.5-1.5-1.5-.5.5-1.5-1.5-.5q2.3-1.2-.5-2.5l-1.5-.5.5-1.5-1.5-.5.5-1.5-1.5-.5q2.3-1.2-.5-2.5l-1.5-.5.5-1.5-1.5-.5.5-1.5-1.5-.5q2.3-1.2-.5-2.5-2.4-.1-1-1Zm-154 375-.5 1.5 1 1 .5 1.5 1.5-.5-.5 1.5 1.5.5-.5 1.5 1.5.5q-2.2 1.3.5 2.5l1.5.5-.5 1.5 1.5.5-.5 1.5 1.5.5q-2.2 1.3.5 2.5l1.5.5-.5 1.5 1.5.5-.5 1.5 1.5.5q-2.2 1.2.5 2.5l1.5.5-2.5.5-13.5-23.5zm183 0q2.8 1.3.5 2.5L356.5 507l-2.5-.5 3-2-.5-1.5 1.5-.5-.5-1.5 1.5-.5-.5-1.5 2.5-1.5-.5-1.5 1.5-.5-.5-1.5 1.5-.5-.5-1.5 2.5-1.5-.5-1.5 1.5-.5-.5-1.5 1.5-.5-.5-1.5 1.5.5 1-2zm-155 52 1 1 1.5-.5q-2.2 1.3.5 2.5l1.5.5-.5 1.5 1.5.5-.5 1.5 1.5.5q-2.3 1.3.5 2.5l1.5.5-.5 1.5 1.5.5-.5 1.5 1.5.5q-2.2 1.3.5 2.5l1.5.5-.5 1.5 1.5.5-.5 1.5 1.5.5q-2.3 1.3.5 2.5l1.5.5q-1.5 3-3 0l-9-17-5-7zm125 0 1 1 1.5-.5-15.5 25.5q-2.5-1-1-2l2.5-1.5-.5-1.5 1.5-.5-.5-1.5 1.5-.5-.5-1.5 2.5-1.5-.5-1.5 1.5-.5-.5-1.5 1.5-.5-.5-1.5 2.5-1.5-.5-1.5 1.5-.5-.5-1.5 1.5-.5-.5-1.5 1.5.5 1-2zm-93 55 2.5.5-.5 1.5 1.5.5-.5 1.5 1.5.5q-2.3 1.3.5 2.5l1.5.5-.5 1.5 1.5.5-.5 1.5 1.5.5q-2.2 1.3.5 2.5l1.5.5-.5 1.5 1.5.5q-2 1 0 2l.5 1.5 1.5-.5-.5 1.5 1.5.5-.5 1.5 1.5.5-2.5.5-10.5-19.5-2-2zm61 0 2.5.5-13.5 23.5-2.5-.5 2-1-.5-1.5 2.5-1.5 1-2-.5-1.5 1.5-.5-.5-1.5 2.5-1.5-.5-1.5 1.5-.5-.5-1.5 1.5-.5-.5-1.5 2.5-1.5-.5-1.5 1.5-.5-.5-1.5 1.5-.5z" opacity=".024"/></svg>