<svg xmlns="http://www.w3.org/2000/svg" viewBox="0 0 640 605"><path fill="#0e0906" stroke="#0e0906" d="m419.5 144 11 1 6 2q11.8 5.2 19.5 14.5l6 9 3 9 1 13-1 1v5l-1 3-8.5 12.5-1.5-.5 7-11 1-11q-2.3-1.2-1-6l-5-12q-4.7-3.8-7-10l-7.5-7.5-12-6h-11l-6 3-2.5 2.5-.5 1.5-6.5 4.5-6 9-2 6v5l1.5 2.5 3 1 4.5-5.5v-2l4-8 4.5-13.5 5-2h12l12 5 7.5 7.5 5 11q-1 4 1 5v9l-4 10-9.5 10.5-8 4h-12l-8-4-10.5-10.5-5-8-3-8-2.5-2.5-1.5.5v12l2 6-1.5.5-2.5-4.5-1-6-1-1v-18l5-13 5.5-6.5 10-6 6-2h5zm-4.5 22-5 6v7q1 2 7 1l4-5q1-6-1-8zm-208.5-14h6l1 1h5l3 1q10.3 4.7 16.5 13.5v2l3 6 1 8 1 1v17l-5 12-5.5 6.5-3 2-.5-.5 4-4 6-12 1-11-1-1v-11l-1-1v-6q-1.7-.7-1-4-2-5.5-6.5-8.5l-11-5-9-1-1 1h-7l-12 4-5 3-10.5 10.5-4 10-1 17 1 1v4l2 6 7 10-.5.5-4.5-4.5-5-9-2-6v-6q-1.7-.7-1-4l1-1v-6q1.7-.8 1-4l6-13 9.5-10.5 9-5 6-2h6z" opacity=".996"/><path fill="#0e0906" stroke="#0e0906" d="m201.5 162 12.5.5 2 3-4 5-1 4 3.5 3.5h2l6-5 1.5 1.5v4l1 1v3l2 6 2.5 2.5 4-1-.5 1.5v4l-5 12-11.5 12.5-7 3q-4.2-.7-6 1-1.2-2.2-6-1l-7-3-8.5-7.5-6-11-1-6-1-1v-6l5-12 7.5-8.5 7-4 7-1zm-12.5 9q-6 4-9 11v9h3l1-2 9-8q1-7-1-9zm30.5-7 4 1 7.5 6.5 4 8h-1q-1.9-6.6-6.5-10.5l-8-4zm16 17 1.5 4.5q-1 1.5-2-1zm51 53h21l1 1h6l1 1h4l1 1h4l4 2h3l21 9 9.5 9.5 3 6q-1 4 1 5v7l-1 1-2 10-4 8-6.5 7.5-9 6h-2l-6 3h-13l-7-3-6.5-5.5-2-6v-6l3.5-4.5 3-1h6l14 13 5 2h5l7-3 7.5-6.5 4-8 1-11-1-1v-5l-1-3-5.5-5.5-4-1-8-6-6-3-9-3-12-1-1-1h-9l-1-1h-25l-1 1h-9l-1 1h-6l-1 1h-3l-6 2-19 9-7.5 7.5-2 5v3q1 1.5 2-1 .9-4.6 4.5-6.5l3-1 8 3 1-1 8-1 1-1 7-1 5-2h8l1-1h43l1 1h11l1 1 9 1 12 5 2.5 2.5-.5 2.5h-2l-8-5-6-2h-3l-1-1-9-1-1-1h-6l-1-1h-12l-1-1h-11l-1 1h-11l-1 1-12 1-1 1h-4l-12 4-11 6-4 1-8.5 7.5v8l4.5 6.5 8 4h7l7.5-5.5 4.5-5.5 5-4 4-2h3l4.5 3.5 2 4 1 6q-3 7.5-9.5 11.5l-10 4h-7l-12-5-10.5-9.5-1.5-3.5-2.5-1.5-2-6-1-12 1-1v-5l2-3v-2l6.5-8.5 7-5 19-9 9-3 7-1 1-1q4 1 5-1h7zm4.5 1v1h12zm-9 1v1h2zm28 0v1h3zm7 1v1h2zm-49 23v1h2zm-44 22-1 3h1zm18.5 38 12 10 9.5 5.5-1.5-.5-8-4-8-6-4.5-4.5zm83 10 1.5.5-2.5 1.5q-1.5-1 1-2Zm-5 3q1.5 1-1 2l-8 4h-2l-11 6h-2l-1.5 1.5v15l1 2-1 3-3.5 3.5-9 5q-1.5-1 1-2l8-4 2.5-2.5v-13q-2-1-1-5l-2.5-2.5-2.5-.5 2.5-.5 3 3 .5-.5 2.5-3.5h2zm-51 5 5.5 2.5-1.5.5-4-2zm7 3 10.5 3.5-2.5.5-8-3zm20 24 7.5 6.5-1.5-.5-6.5-5.5zm-104 4 5.5 6.5q-1.2 2.8-2.5.5l-4.5-3.5q-.5-3 1.5-3.5Zm234 2 1.5.5v5l-4.5 4.5q-3.7.8-4.5-1.5l5.5-7.5zm.5 1-2 2q1 2 2 1zm-121.5 0 12.5 5.5-.5 1.5-2-2h-2l-8-4zm-25 3q1.5 1-1 2l-3 1v-1zm-7 3 1.5.5-4 2 2 1-1.5.5-2.5-1.5zm-7 3 2.5 1.5-13.5 3.5v-1zm99 2 3.5.5-1 3v7l-1 1v4l-1 1v4l-1 1v4l-1.5 3.5-.5-2.5 1-1v-4l1-1v-4l2-6v-7l1-2-2.5-.5zm-7 1 5.5.5-6 1-.5 11.5-.5-11.5zm-123 2 1 1 5.5.5-6.5.5zm9 0 .5 19.5h-1zm-8 5 1.5 4.5h-1zm2 6 1.5 4.5 1 9h-1l-1-9-1-1zm118 1 .5 3.5-1.5 4.5-.5-3.5zm-111 9 .5 4.5 3 9q3.7 7.8 9.5 13.5 6.4 6.1 15.5 9.5l-1.5.5q-10.4-4.6-17.5-12.5l-7-11-3-9zm109 0 .5 2.5-2 6-7 12-10.5 10.5-3 2-.5-.5 2.5-2.5 10.5-9.5 7-12zm-113 5 3.5 10.5h-1l-3-8zm121 1 .5 2.5-2.5 5.5-.5-1.5zm-3 9 .5 1.5-1.5 2.5-.5-1.5zm-114 2 3.5 6.5q-1 1.5-2-1l-2-4zm112 3 .5 1.5-10 17-4.5 4.5q-8.5 6.5-20 10v-1q14.4-4.1 23.5-13.5l6-9zm-108 5q7 11.5 17 20l7 5 11.5 3.5-2.5.5-11-4-16.5-15.5-5-7zm81 8q1.5 1-1 2l-7 3v-1zm-55 4 4.5 1.5-2.5.5-2.5-1.5zm44 1 1.5.5-2.5 1.5-7 1v-1h3zm-38 1 2.5.5-2.5.5zm4 1 3.5.5-3.5.5zm5 1 19.5.5-19.5.5zm29 12 2.5.5-3.5 1.5h-3v-1q3.3.8 4-1Zm-33 1 3.5.5-3.5.5zm5 1 7.5.5-7.5.5zm16 0 6.5.5-6.5.5zm-6 1 2.5.5-2.5.5z" opacity=".996"/><path fill="#453525" stroke="#453525" d="m210.5 157 3.5.5-3.5.5zm21 3 3.5 3.5-.5.5-3.5-3.5zm-15 1 6 2 12.5 10.5 1.5 2.5 1.5-.5 1 12q-1 1.5-2-1l-.5-1.5-1.5.5q1.8-.7 1-4l-2-1 1-2-4.5-7.5-1 1-2.5-2.5q2.3-1.2-.5-2.5l-7-3-2 1-2-2-1.5.5zm170 18 .5 5.5h-1zm-215 6 .5 2.5h-1zm72 6 .5 4.5h-1zm-4 3 .5 5.5h-1zm-69 1 .5 2.5h-1zm237 11 3.5 3.5-.5.5-3.5-3.5zm-184 7 .5.5-4.5 4.5-.5-.5zm202 3 5.5.5-5.5.5zm-135 19 12.5.5-12.5.5zm-9 1 2.5.5-2.5.5zm28 0 3.5.5-3.5.5zm7 1 2.5.5-2.5.5zm-36 4 4.5.5-4.5.5zm21 0 4.5.5-4.5.5zm-31 1 2.5.5-2.5.5zm43 0 2.5.5-2.5.5zm13 2 2.5.5-2.5.5zm5 1 12 5 3 3 7 4h2l5.5 5.5 1 3v5l1 1v5l-1 1v5l-2 5-6.5 7.5-7 4-3 1h-5l-5-2-12-12q-2.5-2-8-1l-2 1-2-1 .5 1.5-2 2q-2 2.5-1 8l2 5q-2 1 0 2 2.7 5.8 7.5 9.5l7 3h9l1-1 6-1 8-4 8.5-7.5 1.5-2.5.5 2.5-2.5 3.5-2.5.5 1 2-4 2q2 1 0 2l-8.5 9.5-3.5 1.5-.5 1.5-9 5-3.5.5.5 1.5-1.5-.5-.5 1.5-1.5-.5-.5 1.5q-1-2-2 0l-1.5.5.5 1.5-2-1-7.5 3.5.5 1.5-2-1v2l-2-1v2l-2-1-7.5 3.5.5 1.5q-1.2-2.2-2.5.5l-.5 1.5-2-2-1.5.5.5-1.5-3 1-1-2-3 1v-2l-3 1v-2l-4-1-1.5.5-.5-1.5-3-1-1.5.5.5-1.5-2 1-1-2-1.5.5-.5-1.5-1.5.5-.5-1.5-1.5.5.5-1.5-4-2-1.5.5.5-1.5-5-3-1.5.5.5-1.5-3-2-1.5.5.5-1.5-4.5-3.5-.5-1.5-2 1-5-7-2.5-1.5-9-18 1.5.5 1.5.5-.5 1.5 1.5.5q-2 1 0 2l2 5 4.5 5.5 4 3 7 3q3.3-.7 4 1h12q7.4-2.6 11.5-8.5l4-9q-2-1 0-2l1-4h-1l-.5 1.5-.5-3.5-4.5-6.5-5-1-3 2-2-1 .5 1.5-3.5 3.5-5.5 4.5-2.5 3.5-2-1 .5 1.5-1.5 1.5q-2.8 2.2-9 1v-1l1.5-.5-2.5-.5-2 1-6.5-4.5-3-5v-8q4.1-5.9 11.5-8.5l2 1v-2l2-1 3 1 1-1 10-1 1-1h7l1-1h10l1-1h41l1 1h10l1 1 13 1 3 2 1-1 7.5-.5q.5-4-2.5-4.5l-12-5-9-1-2.5-1.5v-5l4-6zM316 283v1h2zm-88 4-1 3h1zm78 4-1 4h1zm-12 7-1 22h1zm-3 2-1 18h1zm0 19-1 6h1zm3 2-1 3h1zm1 12-1 3h1zm-41.5-87 1.5.5.5 1.5h8l1.5 1.5 1.5 8.5 6.5.5-8.5.5-1 1-11 2-1 1-8 1-1 1-8-3-3 1-3.5 3.5-2.5 4.5-.5-3.5 2-5 7.5-7.5zm103 5 2.5 2.5-1.5 1.5-1.5-1.5 1-1z" opacity=".996"/><path fill="#453525" stroke="#453525" d="m287.5 257 15.5.5-15.5.5zm4 2 4.5.5-4.5.5zm7 0 4.5.5-4.5.5zm-31 1 2.5.5-2.5.5zm-44 22 .5 2.5h-1zm50 20 .5.5-4.5 4.5-.5-.5zm37 1 2.5 2.5-.5.5-2.5-2.5zm15 8 6.5.5-6.5.5zm-32 42 .5 7.5h-1zm2 11 1.5.5-1 1 5.5 5.5 2 1 1.5-.5.5 1.5 7 3 1.5-.5-.5 1.5q3.5-.5 4 2l1-2 .5 1.5-2.5 1.5-19-7h-4l-20 9-2-1-1 2-2.5-1.5.5-1.5 2 1 4.5-2.5.5-1.5 2 1v-2l2 1v-2l1.5.5.5-1.5q1 2 2 0l3.5-1.5-.5-1.5q1 2 2 0l3.5-1.5-.5-1.5q1.3 2.3 2.5-.5l-.5-1.5 1.5.5zm130 7q2 .5 1.5 3.5-1 1.5-2-1l1-1zm-229 1 2.5 2.5-.5.5-1-1-1.5.5 1-1zm117 10 3.5.5-3.5.5zm50 1 4.5 1.5q-2.2 2.8-1 9l.5 1.5-1.5-.5q-1 4 1 5h-2q-1 4 1 5h-2l-1 7 .5 1.5-1.5.5-2 7 .5 1.5-1.5.5 1 2h-2l1 2-2 1-2 5 .5 1.5-1.5-.5 1 2h-2l-1 2 .5 1.5-1.5-.5-1 2 .5 1.5-1.5-.5-1 2 .5 1.5-1.5-.5-3.5 4.5-1.5.5.5 1.5q-1-2-2 0l-1.5.5.5 1.5q-1-2-2 0l-5.5 2.5.5 1.5-2-1v2l-2-1-3.5 1.5.5 1.5-2-1-1 2-3-1v2q-.7-1.7-4-1l-1 2-1-1h-6v1l1.5.5-4.5.5-3-1q-1 2-5 1v-1l2.5-.5-7.5-.5-2 1v-2q-3.3-.7-4 1l-1-2-3 1v-2l-3 1v-2l-3 1v-2q-5.1-.3-7-4l-1.5.5.5-1.5-10.5-9.5-1.5-2.5-1.5.5q2.5-1.5-1-3l-.5-1.5-1.5.5q2-1 0-2l-.5-1.5-1.5.5.5-1.5-1.5-.5q2-1 0-2l-2.5-5.5-1.5-.5 1-2h-2l1-3h-2l1-3h-2l1-3-2-1q1.8-.7 1-4h-2q2.3-1.2 1-6h-2q1.8-.7 1-4l-2-1 1-3h-2l1-2-2-1 .5-1.5-1.5-.5.5-1.5 1 1h6v-2l2.5.5.5 19.5 1.5-.5q-1.7 1.8-1 6h2l-1 3 2.5 6.5 1.5-.5-1 2h2l-1 2h2q-2 1 0 2l.5 1.5 1.5-.5q-2.5 1.5 1 3l1.5 2.5q1.3-2.2 2.5.5-2.2 1.2.5 2.5l3 2 1.5-.5-.5 1.5 2 1 1.5-.5-.5 1.5 5 2 1.5-.5-.5 1.5 2-1 1 2 2-1v2l3-1 1 2 3-1 1 2 5-1v2l19.5-.5-.5-1.5 5 1v-2q.8 1.8 4 1v-2l2 1 1-2 2 1 6.5-3.5-.5-1.5 1.5.5.5-1.5q1.5 2.5 3-1l1.5-.5-.5-1.5 1 1 8.5-8.5-.5-1.5 1.5.5 3-5-.5-1.5 1.5.5 1-3-.5-1.5 1.5.5-1-2h2l1-5-.5-1.5 1.5.5-1-3 2-1-1-5h1l.5 1.5.5-3.5-1-2h2v-11l-1-1 1.5.5 5.5-.5z" opacity=".996"/><path fill="#453525" stroke="#453525" d="m256.5 384 2.5 1.5-1.5.5q-2.5-1-1-2Z" opacity=".996"/><path fill="#6b5138" stroke="#6b5138" d="m420.5 150 4 1q.8-1.7 4-1l1 2 2-1 1 2q1-2 2 0l3.5 1.5.5 1.5q1.3-2.2 2.5.5-1.2 2.8-2.5.5l-1.5-.5-.5-1.5-1 1q-1.5-3.5-3-1l-1.5-.5-.5-1.5-2 1h-10q-1-2-2 0l-2 1q-2.5-1-1-2l1.5.5.5-1.5 2-1q1.5 2.5 3-1Zm-9 4q2.5 1 1 2l-1-1-1.5.5zm-207 4h14l13 6 2.5 2.5 3 6v3q-1 1.5-2-1l-3.5-4.5-9-7-6-2q-3.2 1.8.5 3.5l-2.5 3.5-.5-.5 2-2-1-1-1.5-2.5h-14l-1 1-6 1q-8.3 4.2-13.5 11.5l-5 12-1 7-1.5 1.5-.5-7.5 4-12 8.5-9.5 10-6 6-2h4zm237 0q1 2 2 0l4.5 4.5q-2.2 1.3.5 2.5l1.5.5-1.5.5-2.5-2.5 1-1-2.5-2.5-1 1-2.5-2.5zm-50 34 .5 2.5h-1zm70 1 .5 3.5h-1zm-291 5 .5 2.5h-1zm222 4q4.7 9.8 13 16l2.5 1.5-1.5-.5-10.5-9.5-4-7zm55 4 .5.5-3.5 3.5-.5-.5zm6 8 .5.5-2.5 2.5-3 2-.5-.5 2.5-2.5zm-42 7 3.5 1.5-1.5.5-2.5-1.5zm30 0 1.5.5-4.5 1.5v-1zm-261 2 3 3 8 4 5.5 1.5-2.5.5-11-5-3.5-3.5zm236 0 3.5.5-3.5.5zm17 0 3.5.5-3.5.5zm-11 1 7.5.5-7.5.5zm-200 2q1.5 1-1 2l-6 3-5 1v-1l5-1zm-23 6 8.5.5-8.5.5zm86 9 15.5.5-15.5.5zm-12 1 2.5.5-2.5.5zm37 0 2.5.5-2.5.5zm-45 1 2.5.5-2.5.5zm53 0 2.5.5-2.5.5zm-57 1 1 3 10-1 1-1 1.5 2.5-1 3 2 3-4 3 .5 1.5q-4 1-5-1l-1.5.5-1-8-1.5-1.5-8.5-.5.5-1.5zm66 1 3.5.5v2l-4 6-.5 5.5q-6.8 1.3-9.5-1.5 2-1 1-5-1.7-.7-1-4l4.5-2.5q1 2 5 1zm-49 12 8.5.5-8.5.5zm25 0 9.5.5-9.5.5zm14 10 2.5.5-2.5.5zm-74 3q2.5 1 1 2l-1-1-2 2-.5-.5zm-5 3 1.5.5-6.5 3.5q-1.5-1 1-2zm-7 4 .5.5-4.5 4.5-.5-.5zm33 5 1.5.5-7.5 5.5-.5-.5 3.5-3.5zm8 1 2.5 2.5-.5.5-2.5-2.5zm43 0 2.5.5-2.5.5zm-4 1 1.5.5-6 4-.5 1.5-.5-1.5zm-84 3 .5 2.5h-1zm48 0 1.5 2.5h-1zm-21 3 .5.5-2.5 2.5-.5-.5zm51 1 .5 3.5h-1zm-28 1 .5 2.5h-1zm-26 2 .5.5-2.5 2.5-2 1q-1.5-1 1-2zm-24 3 1.5 2.5h-1zm50 0-.5 1.5-.5 1.5-1.5-.5zm-40 1 2.5.5-2.5.5zm56 0 .5 21.5h-1zm-3 2 .5 17.5h-1zm17 0 2.5 4.5h-1l-2-3zm48 2 .5.5-3 3 2 2-.5.5-1-1-2 2-.5-.5q2-1 0-2zm-121 6-.5 1.5 2 2-.5.5-2.5-2.5zm78 0 4.5 4.5-.5.5-4.5-4.5zm-76 7 2.5 2.5-.5.5-2.5-2.5zm54 4 .5 5.5h-1zm3 2 .5 2.5h-1zm37 5 1.5.5-2.5 1.5q-1.5-1 1-2Zm-36 7 .5 2.5h-1zm0 5 2.5 1.5-1.5.5q-2.5-1-1-2Zm-1 23 .5 4.5h-1zm0 12h4l21.5 7.5-.5 1.5 4-1q1.5 1-1 2l-8-1-3 1-1.5-.5-1.5 2.5-1.5.5q2.2 1.3-.5 2.5l-2-3q-1 2-2 0l-3.5-1.5-.5-1.5-2 1-3.5-1.5.5-1.5-5 1q-.7-1.7-4-1-2.8 4.7-12 3v-1h3zm41 9 2.5.5-2.5.5zm6 1 2.5.5-2.5.5zm-85 1v2l1.5.5-1.5.5-3.5-1.5zm93 0h7l1.5 1.5-.5 1.5-1-2h-7zm-102 2 3.5.5-3.5.5zm13 60 2.5 2.5-.5.5-2.5-2.5z" opacity=".996"/><path fill="#8c7270" stroke="#8c7270" d="M414.5 153q1.5 1-1 2l-1.5.5-.5 2.5-1.5-1.5 2.5-2.5zm24 2 10.5 9.5-.5.5-7-7-3.5-2.5zm-162 87h33l1 1h7l1 1h5l3.5 1.5-.5 1.5q-4.2.7-6-1l-3.5 2.5 1 8q-.7 2.3-4.5 1.5l-1-1h-34q-1 2-5 1-3-1.5 0-3l2.5-1.5-2-3v-2l1-2q-1.2-2.7-2.5-.5l-10 1-.5-2.5 5.5-.5 1-1h7zm9 24 21.5.5-21.5.5zm-15 1 2.5.5-2.5.5zm50 0 2.5.5-2.5.5zm45 12 .5 4.5-1.5.5-.5-1.5zm-2 6 1.5.5-1 6-4.5 8.5-1-1-2 2-.5-.5 2-2-.5-1.5 2.5-1.5-.5-1.5 1.5.5-1-2h2l-1-2h2l-1-2 2-1q-1.7-.7-.5-2.5Zm57 12h6l3 1q6.4 3.1 10.5 8.5l4 8v2q-1.5 3-3 0l-1-5-8.5-9.5-6-3-5.5-.5zm-230 1 1.5.5q-1 2.5-2 1zm39 1 3.5 3.5-.5.5-1-1-1.5.5 1-1-2-2zm-44 1-.5 1.5-6 8-3 7q.8 3.3-1 4v13l4 12 2 2 8 16 5 6-1.5-.5-1.5.5-.5 1.5-1.5-.5-12-24-3-9v-3l-1-1-1-12 1-1v-4l2-5 6.5-7.5 2.5-1.5zm90 0 .5 1.5-1.5.5q-1.5-1 1-2Zm-5 9 .5.5-2.5 2.5-.5-.5zm-18 3 3.5.5-3.5.5zm-2 3 2.5.5-2.5.5zm75 0 5.5.5-5.5.5z" opacity=".996"/><path fill="#8c7270" stroke="#8c7270" d="m183.5 317 1.5 3.5v8q2 1 1 5l1 1v3l3 9q8.1 17.4 22.5 28.5l9 6 12.5 5.5-.5 1.5q-22.5-7-35.5-23.5l-6-9-6-14v-3l-2-5v-4l-1-1zm235 5 .5 8.5-1 1v4l-2 6-6 12q-6.9 11.6-17.5 19.5-9.4 7.1-22 11-3-1.5 0-3l7-2 9-5 14.5-12.5 11-17v-2l4-9 1-8zm-123 34 .5 2.5h-1zm24 22q1 2 2 0l1.5.5-.5 1.5 3-1 1 2 3-1 1 2 3-1 1 2 5-1 1 2 6-1 2 2h7l1.5-.5-1.5 2.5-4 1-6-2h-5l-1-1h-5l-1-1-11.5-1.5.5-1.5q-3.7.8-4.5-1.5zm-36 2 8 1 6 2 8 5 1.5-.5-3.5 7.5h-3l-6-3-10-1-1-1h-21l-1 1h-5l-1 1q-4.7-1.2-6 1l-.5-3.5-2-2 3-1 .5-1.5 6 2 1-1h3l9-3h10zm26 3 .5.5-2.5 2.5-.5-.5zm4 0 3.5.5-3.5.5zm34 5 2.5.5-3.5 1.5h-17v-1h17zm-102 2 .5 3.5h-1zm51 7 2.5.5-2.5.5zm-51 3 .5 2.5h-1zm97 29 .5.5-5.5 5.5-.5-.5z" opacity=".996"/><path fill="#f0a634" stroke="#f0a634" d="m451.5 169 5.5 8.5-1 1-.5 4.5-.5-4.5-4-9zm6 10 2.5 5.5v3h-1v-3l-2-4zm-1 5 .5 4.5h-1zm-62 2q5.8 17.2 19 27l9 4h10l9-4 8.5-8.5q4.7-5.3 5.5-14.5l.5 4.5q-4.4 12.6-14.5 19.5l-9 4h-10l-9-4-11.5-11.5-8-14zm-158 1 2.5 2.5v12l-4 12-8.5 9.5-.5-.5 6-6 5-10q-1-4 1-5v-12l-2-2zm224 2 .5 10.5-3 8-4.5 5.5.5-1.5 3-4 3-8z"/><path fill="#f0a634" stroke="#f0a634" d="m234.5 190 .5 4.5-5 13-8.5 10.5-7 5-4 1v-1h2l5-3 9.5-9.5 5-9zm-61 4 4.5 13.5 8.5 10.5 7.5 4.5-1.5.5q-7.1-3.4-11.5-9.5l-6-10-2-6zm-2 3 .5 7.5 1 1 1 6q2.7 6.8 8 11l-.5.5-4.5-4.5-5-10q.8-3.2-1-4zm222 1 .5 2.5h-1zm4 9 3.5 3.5-.5.5-3.5-3.5zm5 5 2.5 2.5-.5.5-2.5-2.5zm19 8 8.5.5-8.5.5zm-226 3 3 1 10.5.5-10.5.5-3-1zm14 5 2.5.5-2.5.5z"/><path fill="#d18c8c" stroke="#d18c8c" d="M450.5 12h13l3 1 9 5L489 30.5l8 10 19 29 1 3 12 17 1 3 12 17 2 6-4 7-1 6-4 12-4.5 7.5-1.5.5v2l-7.5 7.5-4 3-4.5 1.5-.5 1.5-17 6-10.5-23.5-15-24q-12.4-17.1-27.5-31.5L424 75.5q1.2-4.7-1-6v-11l-1-1v-11l1-1v-4l3-9 3-5 9.5-9.5zm-278 6h6l1 1 6 1 4 2 7.5 6.5 7 10 3 7v3l2 5v21l1 2q-2 1 0 2l-5.5 5.5L189 98.5l-11 13-14 20-14 26v2l-3 5v2l-3.5 7.5-3-3-13.5-5.5-.5-1.5-2.5-.5-.5-1.5h-2l-7.5-7.5-8-14-6-18v-3l-3-7 20-30 20-35 9-13 8.5-8.5 10-6 7-1zm29 215 4.5.5-4.5.5zm96 0 2.5.5-2.5.5zm-64 73q1 2 2 0l3 3 5.5 2.5-1.5.5-6-4-1 1-2.5-2.5zm34 2 1 1 1.5-.5-5.5 4.5-2.5.5.5 1.5-4.5-1.5 3.5-.5 6.5-3.5zm-21 3 .5.5-2.5 2.5-.5-.5zm5 1q1.5 1-1 2l-2.5-.5zm4 2 3.5 1.5-5.5.5v-1zm-71 1 .5 4.5h-1zm216 50 .5.5-3.5 3.5-.5-.5zm-90 18 6 1 1-1h11l6 2h5l1 1 10 1q1.1 2.4 4.5 2.5v7l1 1-1.5-.5-1 1-2.5 1.5-.5 1.5h-6l-1-1q-4.7 1.3-6-1h-11l-1 1h-4l-1 1-6 1-8 4-4.5 4.5q-1.7 1.8-1 6l-1 1v21l-1.5 1.5-.5-29.5-1-3-3.5-3.5-9-3h-4l-1-1h-13l-6 2-4 3h-2l-3.5-6.5-1-6 5.5-.5 1-1h5l1-1h21l1 1 10 1 6 3h3l3.5-8.5zm37.5 5v1h2zm-18 1v1h17zm18 1v1h2zm-10 1v1h9zm-10 2v1h2zm-8 3v1h2zm-23 1v1h2zm12 4v1h2zm-3 1v1h2zm-6 1v1h4zm-53.5-16 2.5 2.5-.5.5-2.5-2.5zm110 0 .5 6.5h-1zm-111 7 .5 5.5h-1zm50 53 9.5.5-9.5.5z" opacity=".996"/><path fill="#e9d6d5" stroke="#e9d6d5" d="M451.5 5h5l1 1 8 1 3 1 2.5 2.5 1 3q-1 2.5-2 1l.5-1.5-2 1-1-2-2 1v-2l-5 1v-1l1.5-.5-9.5-.5v1l1.5.5-2.5.5-3-1v2l-2-1-1 2-1.5-.5-.5 1.5q-1-2-2 0l-1.5.5.5 1.5q-1-2-2 0l-1.5.5q2.2 1.3-.5 2.5l-1-1-5.5 5.5q2.3 1.3-.5 2.5l-1.5-.5-1 2 .5 1.5-1.5-.5 1 2h-2l1 2h-2l1 2-2 1 1 2h-2q-.7 3.3 1 4h-2l1 11-1 1v10h1l.5-2.5.5 4.5-1 1-.5 6.5-12.5-6.5 1-3-2-3v-9l-1-2h2l.5-3.5 2 1 4.5-3.5 3-6v-3l3-6v-2l3-5L435.5 12l11-6q4 1 5-1Zm-274 8 12 2q7.4 3.1 12 9 5.3-1.2 6.5 1.5l9 16 3 9 .5 5.5 1-2 .5 5.5h-2q-.6 9.9-7.5 13.5l-1.5-.5-.5-17.5-1 7-.5-6.5q2-1 1-5h-1l-.5 1.5-.5-1.5q1.8-.7 1-4h-1l-.5 1.5-.5-1.5 1-3h-1l-.5 1.5-.5-1.5 1-2h-2l1-2h-2l1-2h-2l1-2-1.5.5-1.5-1.5 1-2-1.5.5-1.5-1.5q2-1 0-2l-5.5-6.5-2-1-1.5.5.5-1.5-2-1-1.5.5.5-1.5-3 1v-2l-3 1v-2l-13.5.5 2 1-1.5.5-3-1v2l-1.5-.5q-.5-3 1.5-3.5l6-2h5zm-26 15 .5.5-3.5 3.5-.5-.5zm272 45 1.5 3.5q-1 1.5-2-1zm-224 15 .5.5-5.5 5.5-.5-.5zm205 20h4l1 1 6 1 12 7 25.5 23.5 5 7q-2.2 1.3.5 2.5l2.5 1.5-.5 1.5 2.5 1.5 1 2-.5 1.5 1.5.5-.5 1.5 1.5.5-.5 1.5 1.5.5-1 2 2 1-1 2 2 1q-2.5 1.5 1 3l1 5 2 3 1 8 1 1v10l-1 1v4l-2 3v2q-4.5 8-11.5 13.5l-14 7h-3l-5 2h-9q-.7 1.8-4 1l-1-1h-8q-1-2-5-1l-9-4h-2l-12-7-7.5-7.5-6-10-2-6v-3l-1-1q1-4-1-5v-7l-1-1v-17l1-1 1-11 1-1v-3l4-12 4-8 10.5-11.5 6-4 6-1zm8.5 19q-2 1 1 1v1l-4-1v2l-3-1v2l-2-1-1 2q-1 2-2 0l-1 2-5 4v2h-2l1 2-3 2q-3 1-1 3l-2 1v2h-2l1 2-2 1v2l-2 1 1 2h-2l1 2h-2l1 3h-2l1 2-2 1 1 3h-2l1 2v2l-1-1h-1q-1 3 1 4v2l-1-1h-1l1 10v-2h1l-1 6 2-1v2h3l-1-1h2l-1-2q-1-4 1-4v-6l-1-1 2-6v-3l2-4v-3q1-2 2 1l-2 3-1 6-1 1v17l2-1-1 2v3l3 8 2-1-1 2 6 10q1 2 3 0l3 4-1 1 6 4 2-1v2l2-1-1 2 4 1 3-1v2q3 1 5-1l1 1h-1v1h10l-1-1v-1q2 2 7 1l-1-1h2l5-1v-2l2 1v-2l2 1-1-1h2l2-1-1-1h2l2-1q2-1 0-2 1-3 3-1 2-1 0-2h2l5-7-1-2h2l1-3-1-3h2v-17h-1v-1l-1-6h-1v-1l-5-10q-1-3-2-1v-1l-5-6-1 1v-1l-8-7-2 1v-2l-2 1v-1l-2-2-3 1v-1l-3-2h-7l-1-1-2 1h-7l-3 1v2l-3-1v2l-1-1-8 4-3 3 1 1q-1 2-2 0l-5 6 1 2-3-2 2-1-1-2h2l-1-2h2l-1-2 2-2 1 1-1-2 5-4 1-2 3-3 1 1 2-3 2 1v-2l2 1v-2l2 1v-2l2 1v-2l4 1v-2l3 1h7l3-1v2l4-1v2l3-1v2l4-1v-1q-2-1 0-2l-1-1q-1-2-2 0v-2l-2 1v-2l-2 1v-2l-3 1v-2l-4 1v-2q-5-1-5 1zm-196.5-11h11l3 1q8.8 3.3 13.5 10.5l9 16 1 5 2 3 1 7 1 1q-1.2 4.8 1 6v28l-1 1v4l-2 6-3 6-11.5 12.5-15 8-2 2-13 5q-4-1-5 1h-15l-13-5-11.5-10.5-5-11-2-19 1-1v-9l1-1 1-7 7-15 20.5-24.5h3l8-3h8l1-1 1 1h8q1 2 5 1l.5-2.5-1.5-1.5-7-1-1-1h-10l-11 4 .5-1.5 3.5-4.5 5-4zM205 137q-1 2 2 1v1l-6-1v2l-4-1v2l-3-1v2l-2-1v2l-2-1v2l-1-1-2 3-2-1v2l-1-1-3 4 1 1 13-6q3 1 4-1h8l1-1 3 1h7l9 5 11 13v3l2 2q-2 1 0 2v1l-1-1q-2-1 0-2l-4-5-7-6q-1-2-2 0v-1l-8-4q-5-1-6 1-2-4-4 0l-2-1h-5l-6 2-1 2-1-1-3 1-2 3-1-1-2 3-1-1-7 7 1 1-1-1-7 11 1 2h-1l-4 10v15h2l-1 2 3 9 3 1-1 2 3 1-1 2 5 3v2q1 2 3 0v2q1 2 3 0v2l2-1v2l2-1v2l4 1q1-2 3 1l3-1v2h9l1-2 3 1q1-4 3-1l7-3 1-2h2l2-3h2l4-3-1-1h2l4-5q2-1 0-2h2l2-4-1-2h2l-1-3h2q1-4-1-4h2v-8l-1-1 1-6v6h3v-1h2q1-4-1-4v-9q2-1 1-4h-2l1-4h-2l1-2-2-1 1-2h-2l1-2h-1v-1l-3-2 1-2h-1v-1l-1-2h-1v-1l-2-3h-1l-5-4 1-1-1-1q-2-4-3-1v-1l-4-3-2 1v-2l-3 1v-2l-3 1h-3l2-1z" opacity=".996"/><path fill="#e9d6d5" stroke="#e9d6d5" d="m243.5 181 .5 2.5h-1zm59 21h26q1.3 2.3 6 1l12 4h3l12.5 6.5v3l-2.5 3.5-10-4h-3l-9-3h-4l-1-1h-6l-1-1h-29l-1 1h-6l-1 1h-4l-1 1-7 1-12 4-8 4h-5l.5-1.5.5-1.5 13-7h2l10-5 6-2h3l1-1h3l1-1 10-1zm-14 58 3 1h11q.8-1.7 4-1l1 2h8l1-1 1 2q4.8 1.3 6-1l1 2q3.3.8 4-1l1 2 7 1 1.5 1.5-2.5 1.5q-1-3-6-2l-3 1-1-2h-7l-3 1-2-2h-35l-1 2q-3.2.8-4-1h-7l-1 2-5.5-1.5 1.5-2.5 3 1 1-2q1 2 5 1l1-2q1 2 5 1l1-2q2.8 2.2 9 1z" opacity=".996"/><path fill="#e9d6d5" stroke="#e9d6d5" d="M257.5 265q2.8 1.3.5 2.5l-.5 1.5-3.5-1.5.5-1.5 2 1zm83 1 1 2 2.5.5-2.5 1.5-1-2-1.5-.5zm26 4 .5 4.5h-1zm-146 5 .5 3.5h-1zm164 5 4.5 1.5 1 3-1.5-.5q-3.7.8-4.5-1.5zm5 30 2.5 1.5-.5 3.5-1.5.5-.5 1.5-1-2-1.5.5.5-1.5-1.5-.5 1.5-2.5 3 1v-1q-2.4-.1-1-1Zm27 9 .5 2.5q-2 1 0 2l-4.5 4.5-1.5-2.5h1l.5 1.5.5-2.5-.5-1.5 3.5-2.5zm-241 5 .5 2.5h-1zm161 3 1.5.5 6 19 6 12 8.5 10.5 10.5 6.5-.5 1.5-10 2-2.5 1.5-.5 1.5h-10l-2 1v-1l1.5-.5-6.5-.5-1.5.5.5-1.5q-4-1-5 1v-2q-3.2-.7-4 1v-2q-3.2-.7-4 1v-2l-3 1v-2l-5-1-1.5.5.5-1.5-6-2-1.5.5.5-1.5-2 1v-2l-2 1v-2l-5.5-3.5-2-5v-13l2-1-.5-1.5 2 1v-2l2 1 9.5-4.5-.5-1.5 2 1 10.5-5.5-.5-1.5 2 1 5.5-3.5-.5-1.5 2 1zm89 7q4.8-.7 5.5 2.5l1 6 2 2-1.5.5q-2.1-1.4-1.5-5.5l-3.5-4.5h-2l-3.5 3.5q-.6 3.9-3.5 5.5l-2 1q-1.5-1 1-2l1.5-.5 4.5-7.5zm-37 3q3-.5 3.5 1.5l-1 3 .5 1.5-1.5.5-.5 1.5-1.5-.5-.5-1.5-1.5-.5q-.7-4.7 2.5-5.5Zm-183 1q3-.5 3.5 1.5l-.5 4.5-1.5.5.5 1.5-3.5-.5-1-4 2-1q-2.2-1.3.5-2.5Zm209 10 .5 1.5q-1.5 3-3 0h2zm-122 1 .5 3.5h-1zm117 5 1 1 1.5-.5-1.5 1.5q-2.5-1-1-2Zm-4 6 1 1 1.5-.5-2.5 2.5-.5-.5 1-1zm64 2 .5.5-2.5 2.5-.5-.5zm-66 3 .5.5-6.5 6.5-.5-.5zm19 6q2.5 1 1 2-1.3-2.3-2.5.5l-4.5 6.5.5-1.5zm-30 2q3-.5 3.5 1.5l5 8 1.5 4.5 2.5 1.5-45.5 46.5-1.5.5-.5 1.5-1.5-.5 1.5-3.5 1.5-.5q-2-1 0-2l1-3-.5-1.5 2.5-.5q-2-1 0-2l-1-2 3-1-1-2 2-1-1-2 2-1-2-2 .5-.5 2.5-1.5-2-2 .5-.5 1.5.5.5-3.5 1.5.5-1-5h1l.5 1.5.5-2.5q-1.7-.8-1-4 2.5-.5 2-4l-1-2 1-2-1-1 2.5-2.5 2-1q1 2 2 0l7.5-3.5.5-1.5 1.5.5.5-1.5 2.5-.5.5-1.5 2.5-.5zm-201 4 2.5 2.5-.5.5-2.5-2.5zm222 3 .5.5-4.5 4.5-.5-.5zm-56 2q2.5 1 1 2l-1.5-.5zm-161 6 3.5 3.5-.5.5-3.5-3.5zm50 0q2.7 1.3.5 2.5l-.5 15.5zm-38 12 3.5 3.5-.5.5-3.5-3.5zm145 3 .5 2.5h-1zm-106 4 .5 3.5h-1zm105 0 .5 2.5h-1zm-130 4 2.5 2.5-.5.5-2.5-2.5z" opacity=".996"/><path fill="#e9d6d5" stroke="#e9d6d5" d="M398.5 411q3 1.5 1.5 7.5l-1 1v6l-1 1v10l-1 1v8l-1 1v6l-1 1-1 12-1 1-1 9-1 1-3 15-2 4v3l-12 33-7 10-5.5 5.5-5 3q-3.2-.7-4 1h-7l-12-4q-2.3-3.2-7-4-11.9-8-21.5-18.5l-10-12-11-17-12-23v-2l-5-10q1.3-2.8 2.5-.5l4-2v2l9 3 7 1 1.5-.5-.5 1.5 15-1v1l-6.5.5 7.5.5 1-1h7l4.5-1.5-.5-1.5q.8 1.8 4 1l15.5-7.5-.5-1.5q1 2 2 0l3-1 5.5-4.5q-2.3-1.3.5-2.5 1.5 2.5 3-1l3-2 1.5.5.5-1.5 3-2 1.5.5 1.5-2.5 9-6 1.5.5 1.5-2.5 1.5.5 2.5-3.5 8-6 1.5.5 3.5-4.5zm-150 1 .5 2.5h-1zm-21 3 2.5 2.5-.5.5-2.5-2.5zm122 1 .5 1.5-6.5 9.5-.5-.5 2-2zm-116 4 3.5 3.5-.5.5-3.5-3.5zm18 1 1.5 2.5q-1 1.5-2-1zm-9 4 .5 1.5q-1 2.5-2 1zm11 0 10 11 10.5 5.5-1.5.5q-11.6-4.9-18.5-14.5z" opacity=".996"/><path fill="#e9d6d5" stroke="#e9d6d5" d="m342.5 428 .5.5-6.5 6.5-.5-.5zm-8 7 .5.5-2.5 2.5-.5-.5zm-4 3q1.5 1-1 2l-7 3v-1zm-49 6 2.5.5-2.5.5zm4 1 3.5.5-3.5.5zm26 0 3.5.5-3.5.5zm-21 1 19.5.5-19.5.5zm-121 69 1.5.5q-1 2.5-2 1zm348 74 .5 2.5h-1zm2 11q1.5 1-1 2l-1.5-.5z" opacity=".996"/><path fill="#efbcb3" stroke="#efbcb3" d="m454.5 11 4.5.5-4.5.5zm-19 9 .5.5-3.5 3.5-.5-.5zm-226 42 .5 8.5h-1zm-6 22 .5.5-3.5 3.5-.5-.5zm240 8 6.5 6.5-.5.5-6.5-6.5zm-250 2 .5.5-3.5 3.5-.5-.5zm226 34 5.5 1.5.5 1.5q1.8-3.7 3.5-.5l.5 1.5 1-2q2.5 1 1 2l-1.5.5-.5 1.5-3-1h-8l-2 1-1-2-2 3-1-2-2 3-1-2-1 3-1-2-1 3-1-2-1 3-2-1-2 4-3.5.5.5 1.5-3.5-.5.5-1.5 1.5-.5.5-2.5 2.5-.5-2-1 2-1 1.5-2.5 1 2 2-4 1 2 1-3 1 2 2-3 1 2 1.5-.5-.5-1.5 2-1 2 2 .5-.5.5-1.5q3.3.8 4-1Zm14 3 .5 2.5-2.5.5v-1l1.5-.5zm2 1 1 3 1-2 1 2 1.5.5-.5 1.5-1.5-.5-.5-1.5q-1.3 2.3-2.5-.5zm-246 12 2.5 1.5-5.5 2.5.5-1.5.5-1.5zm202 2 2 1 1.5-.5-1.5 2.5-2.5-1.5zm-2 3 2.5 1.5-.5 1.5-2.5-1.5zm-3 5 2.5 1.5-1.5-.5q-2.4-.1-1-1Zm-1 4 2.5 1.5q-1 2.5-2 1zm-1 2 1 2 1.5.5q-1 2.5-2 1l-.5-1.5-1.5-.5zm-143 2 2.5 1.5-1 2 3 1-2 1 3 2-2 1 3 2-.5 1.5-1.5.5.5 1.5 1.5-.5 1 3v7l-2.5 4.5.5-1.5-1-1-2-4 1-3q-3.5-1.5-1-3l-1-4-3-4 1-2-2-4zm142 1 1 2 1.5.5-.5 1.5-1.5-.5-.5-1.5-1.5-.5zm-1 3 .5 1.5-1.5.5q-1.5-1 1-2Zm-1 3 1 3 1.5.5-.5 1.5-1.5-.5-.5-1.5-1.5-.5zm2 0 1.5.5q-1 2.5-2 1zm-3 4q.1 3.4 2.5 4.5l-1 1v6q1.8.7 1 4l-2.5 1.5-1.5-3.5 2-1v-8l-2-2zm-28 215 3.5.5v8l-2 4 1 2-2 1 1 3-2 1 1 3-2 1 1 2-2 1 .5 1.5-1.5.5-3 6 .5 1.5-1.5-.5-2 3 .5 1.5-7.5 6.5-.5 1.5-1-1-2.5 2.5-.5 1.5q-1-2-2 0l-7.5 3.5-.5 1.5-2-1-1 2-2-1-1 2q-.7-1.7-4-1l-1 2-1-1h-19l-1.5.5-.5-1.5q-3.2-.7-4 1l-1-2-3 1-1-2-2 1-1-2-2 1-1-2q-8.9-2.6-14-9l-1.5.5 1-1-4-4-1.5-2.5-1.5-.5q2-1 0-2l-.5-1.5-1.5-.5.5-1.5-1.5-.5 1-2-2-1 1-3-2-1q1.7-.7 1-4l-2-1 1-1 .5-15.5 1.5.5v3l5.5 11.5h2l2-2 8-3h13l1 1h4l1 1 6 1 4.5 3.5 2 5v16l-1 1v11l2.5.5 1.5-27.5 4.5-5.5 7-4 9-3 13-1 1 1 15 1 2-3 2.5-1.5-.5-7.5q-3 .5-2-1Z" opacity=".996"/><path fill="#efbcb3" stroke="#efbcb3" d="m339.5 391 5.5.5-5.5.5z" opacity=".996"/><path fill="#f8f8f8" stroke="#f8f8f8" d="M450.5 0h9q1 2 5 1l1 1h3l9 3 5 3h2l57 32h2l23 11 5 1 3 2 8 2 3 2 11 3 3 2 8 2 3 2 18 6q6.2 2.3 9.5 7.5l2 5v10l-1 1-1 10-7 18-6 9-9.5 10.5-11 7-7 1-1 1h-4l-1-1-7-1-7-4q-11.8-8.7-21.5-19.5l-11-13-49-76L477.5 19l-8.5-5.5 1.5-.5 1.5.5q-.6-3.9-3.5-5.5l-6-1-1-1h-4l-1-1h-5q-1 2-5 1l-8 4L425 22.5l-5 10-1 6-3 6-2.5 2.5-3 1-1.5-.5-.5 3.5-1.5-2.5 1-1 2-11 5-11q5.7-9.8 14.5-16.5l10-6 6-2h4zm-286 7h18l1 1 6 1q11.9 5.6 19.5 15.5l10 18 3 11-1.5 2.5-.5-5.5-3-9-5-10-5.5-7.5h-5q-4.6-5.9-12-9l-12-2q-1.2 2.3-6 1l-6 2-1.5 1.5-.5 2.5q-9.2 4.3-15.5 11.5l-12 17-17 30-23 35-14 16L65.5 146l-12 6h-13l-10-5L16 132.5l-5-7-6-12-3-9v-3l-1-1-1-10 3-7L7.5 79l6-3 33-11 3-2 12-4 5-3h2l9-5h2l23-12 9-6 30-16 2-2z" opacity=".996"/><path fill="#f8f8f8" stroke="#f8f8f8" d="M452.5 10h9l6.5 2.5-1.5.5-5-2h-9zm-4 1 2.5.5-4.5 1.5v-1zm-6 3q1.5 1-1 2l-4 2-8.5 8.5-4.5 8.5-.5-1.5q4.7-10.3 13.5-16.5zm-274 3h13l6 2 6 4 5.5 5.5q6.5 7.5 10 18l1 8 1 1 .5 17.5 6.5-5.5 2-4 .5-4.5 1.5 2.5-3 7-4.5 4.5-4 3-.5-20.5-1-1v-4l-1-1-1-6Q201.5 30 190.5 22l-9-4h-13l-3 1v-1zm255 19 .5 1.5-2 5-.5 5.5-.5-5.5zm-119 14h28l1 1h11l1 1h7l1 1 11 1 5 2h4l1 1 7 1 26 9 1.5-2.5-2-2q.8-4.8-1-7l1.5-3.5.5 9.5 2 4-1 2 12.5 6.5 1-7 .5 8.5 1.5 1.5q17.7 12.3 31.5 28.5l21 28 5 10 2 2 13 28 1 5 2 3 11 33v3l2 4v3l2 4 1 7 3 8v4l1 1v3l2 5v5l1 1v19l-2 6v6l-2 2-5 15-4 6-3 6v2l1 2q-2 1 0 2l10 16 14 27v2l3 5v2l2 3v2l2 3 3 9v3l2 4 1 8 2 5v5l1 1q-1.3 4.7 1 6v8l1 1v37l-1 1v7l-1 1v4l-1 1-2 11-6 16 3 5v7l1 1 1 11 1 1v4l1 1v3l2 5v5l1 1v18l-1 1v4l-1 1-1 6-6.5 11.5-3 1h-18l-1 1-1-1h-92l-1 1h-48l-1 1h-160l-2-2h-11q-1.2 2.3-6 1l-.5-.5 2-2-1-1-1-13-1-1-2-14-4-12v-3l-5-15-4-8v-2l-10-20v-3l-3-8v-4l-1-1-1-9-1-1v-8l-1-1v-30l1-1v-7l1-1v-5l1-1v-4l1-1v-4l2-4v-3l4-12 2-3v-2l3-5v-2l7.5-13.5 8 6 15.5 14.5 3.5 4.5 9 6 23 19-.5-1.5-5-15v-3l-1-1v-3l-1-1-2.5-12.5-34-17-6.5-6.5-15-27-1-6-1-1v-6l-1-1 1-1v-7q1.8-.7 1-4l4-8 5.5-5.5 6.5-2.5-.5-1.5h-5l-10.5 9.5-5 10v15l6 18 8 16 3 5 5.5 5.5q3.8-.7 4.5 1.5l-4.5 1.5-3-3-7-2-16-12-14-12-13.5-13.5q-11.1-12.4-18-29l-1-6-1-1v-4l-1-1v-5l-1-1v-19l1-1v-5l1-1v-5l1-1 1-9 2-5v-4l1-1 1-8 1-1 2-11 2-4 1-7 2-4v-3l3-7v-3l7-21 5-10v-2l12-23 12-18q15.3-20.7 34.5-37.5l14-10h2l12-6 18-6h3l5-2h4l1-1h4l1-1h4l1-1 14-1 1-1h11zM405 108l-1 1-6 1-6 4-11 12-4 8-4 12v3l-1 1-1 11-1 1v17l1 1v7q2 0 1 5l1 1v3l2 6 6 10 8 7 12 7h2l9 4q3-1 5 1h8l1 1q3 1 4-1h9l5-2h3l14-7q6-6 11-13v-2l2-3v-4l1-1v-10q-2-1-1-5l-7-21-4-8-10-14-25-24-12-7-6-1-1-1zm-188 8-13 6-9 8 1 1 6-2h3l1-1h10l1 1 7 1 1 2v2q-5 1-5-1h-8l-1-1-1 1h-8l-8 3h-3l-8 9 1 1 2-1h1l-2 1q-1 2-2 0l-11 12-8 15-2 10-1 1v9l-1 1 2 19 5 11 12 10 13 5h15q1-2 5-1l13-5 2-2 15-8 11-12 3-6 2-6v-4l1-1v-28q-2-2-1-6l-1-1-1-7-2-3-1-5-9-16q-5-8-13-11l-3-1zm86 86-1 1-10 1-1 1h-3l-1 1h-3l-6 2-10 5h-2l-13 7-1 2v1h5l8-4 12-4 7-1 1-1h4l1-1h6l1-1h29l1 1h6l1 1h4l9 3h3l10 4 2-3v-3l-12-7h-3l-12-4q-5 1-6-1zm-14 31-1 1h-8l-6 2h-4l-4 2-6 1-22 10-8 6q-5 5-8 12l-1 3v5l-1 1q-1 3 1 4v6l1 1v3l3 9q5 11 13 20 10 9 22 16l19 9 12 3 1 2q-1 3 1 5v13l-11 7-13 6-12 4-10 1-1 1h-9l-1-1-7-1-15-9-6-5q-12-10-18-25l-2-6v-3l-1-1v-4l-1-1-1-18-3 8v8l1 1 1 9 3 9 6 12 5 7 15 13 15 8 6 2 1 2 2 6 1 10 1 1v3l1 1v3l2 6 4 9 8 12 18 16 11 4 7 1 1 1h8l1 1 14-1 1-1h4l9-3 10-5 9-7 1 1-5 4-15 8-9 3h-3l-1 1h-7l-1 1-16-1-18-6-3 1q-2-2-3 1l5 10v2l12 23 11 17 10 12q10 10 22 18 4 1 7 4l12 4h7q0-2 4-1l5-3 5-5 7-10 12-33v-3l2-4 3-15 1-1 1-9 1-1 1-12 1-1v-6l1-1v-8l1-1v-10l1-1v-6l1-1v-6l-1-1 20-14 3-1 8-6 3-1 20-13 19-16v-2l-12 6-2 2-33 16h-3l5-3 2-4v-4l1-1v-3l3-9 13-28v-11q-2-1-1-4l-3-7-3-4-6-6-7-3q-5-1-6 1l-1 2 8 1 7 4 4 6 4 11v8l-1 1-1 7-10 17v2l-5 11v4l-4 6-3 3-1-1-3 1-8 8-3-1-2-4-7-10 12-12 7-11v-2l4-7 2-6v-15l-2-1q-5 2-6 8l2 1 4-4v1l-2 10-5 11v2l-8 12q-7 8-16 14l-17 8-10 1q-1-2-2 0h-11l-1-1h-6l-1-1h-4l-5-2h-3l-12-4-12-6-5-4-1-3v-13l-1-1 2-2h2l25-12 9-6 5-2 5-4 8-8 8-11 6-12 1-8 1-1v-11q-2-2-1-6l-3-7-12-12-23-9-7-1-1-1h-5l-1-1h-7l-1-1zm96 47-1 3q1 2 5 1l1 1-1-3zm5 30-4 3 1 3 3 1q3-1 2-5zm-192 9q-4 1-3 7 3 5 5 0 1-6-2-7Zm139 8-11 7-29 14v13l2 5 13 7h2l3 2 9 3 7 1 1 1h4l1 1h6l1 1h10v-1l3-2 10-2v-1l-10-7-9-10-6-12-6-19zm89 7q-1 2 2 1l3 4v-2q-1-4-5-3Zm-2 1-2 3h1l2-2zm-35 2q-4 1-3 6l4 2q3-1 2-6 0-2-3-2Zm-183 1-3 4 1 4h4q2-2 1-6-1-2-3-2Zm226 1-1 4h1zm-11 1-2 3q1 1 2-1zm12 3-1 2h2q1-1-1-2Zm105 176-9 19-5 15-3 15-1 1-1 11-1 1v8l-1 1v12h2l1-1 1-17 1-1v-6l1-1 1-10 3-9v-3l2-4v-3l4-12 2-3v-2l2-3v-2l2-3v-2zM421.5 54l.5 10.5h-1z" opacity=".996"/><path fill="#f8f8f8" stroke="#f8f8f8" d="m412.5 127 5.5.5-5.5.5zm10 0 4.5.5-4.5.5zm10 2q5.9 1.6 9.5 5.5l-1.5-.5-8-4zm-33 4 .5.5-3.5 3.5-.5-.5zm20 1 7.5.5-7.5.5zm-5 1 2.5.5-2.5.5zm15 0 2.5.5-2.5.5zm-18 1 1.5.5-8.5 4.5q-1.5-1 1-2zm22 0 4.5 1.5-1.5.5-3-1zm-229 1 11.5.5-11.5.5q-.7 1.8-4 1v-1q3.3.8 4-1Zm13 1 2.5.5-2.5.5zm178 0-.5 1.5-2.5 3.5-.5-.5 2-2zm-199 1 2.5.5-5.5 1.5-5 3q-1.5-1 1-2zm25 0 7 3 9.5 8.5 6 9q-1 1.5-2-1-3.5-7.5-9.5-12.5-4.4-4.1-11-6zm181 2 .5.5-2.5 2.5-.5-.5zm19 1q2.8 2.2 9 1l12 5q9.5 6 16.5 14.5l6 11 1 6 1 1v17l-3 8-4 6-6.5 6.5-6 4-10 4q-4.7-1.2-6 1h-10l-15-5-10.5-9.5-5-7-5-12q.8-3.2-1-4v-17l1-1 1-6 2-3-1-2h2l-1-3 6.5-9.5.5.5-2 2-4 8 .5.5 2.5-2.5 5.5-6.5 9-5 6-2h7zm-6.5 2-11 4-7 5-7 9-4 12v16q2 0 1 4l3 6v2l8 12 11 8 8 3h4l1 1h10q1-2 6-1l10-4 7-5 6-7 5-11v-17q-2-1-1-4-3-9-8-15-8-9-18-15l-9-3zm-23.5 0 .5.5-2.5 2.5-.5-.5zm-3 4-.5 1.5-1.5 2.5.5-1.5zm-188 3 5.5.5-5.5.5-6 2v-1zm13 0h4l6 2 11.5 8.5 4 5-.5.5-10-10-5-3-6-2h-4zm-22 3 1.5.5-4.5 2.5q-1.5-1 1-2zm192 3 .5 1.5-1.5 2.5-.5-1.5z" opacity=".996"/><path fill="#f8f8f8" stroke="#f8f8f8" d="m410.5 157 .5 1.5-3 9-2 3-1 5-3 6-2.5 2.5q-3 .5-3.5-1.5v-7l2-6 7.5-9.5zm-227 2 .5.5-7 7-6.5 11.5-.5-1.5q4.8-10.7 13.5-17.5Zm61 2 2.5 4.5h-1l-2-4zm-28 5h5l7.5 5.5 4 6 2 9-1.5 2.5-4 1-2.5-3.5-1-6-1-1v-4l-1.5-2.5-2-1-4 5q-4.7.8-5.5-2.5v-3zm199 0 4.5 1.5 1 4-2 5-2.5 2.5-4 1-2.5-3.5v-3l1-3zm-168 1 1.5 4.5h-1zm131 4 .5 3.5h-1zm-190 1 3.5.5v8l-2.5 2.5-5.5 4.5-2.5 3.5-1.5-3.5v-3l2-6zm61 1 .5 3.5h-1zm128 3 .5 10.5h-1zm6 2 .5 6.5h-1zm-214 1 .5 1.5-3 8-.5 15.5-.5-15.5zm80 8 .5 3.5h-1zm129 1 .5 2.5h-1zm5 1 .5 1.5q-1 2.5-2 1zm-138 2 2.5.5-3 1v8l-1 1-1 6q-3.5 9-10.5 14.5l-4 3-.5-.5 3.5-3.5 4.5-3.5 6-10 1-6 1-1v-8zm-78 14 1.5 5.5 3 5q-1 1.5-2-1l-3-7zm7 15 3.5 3.5-.5.5-3.5-3.5zm52 5 .5.5-2.5 2.5-.5-.5zm-4 3q1.5 1-1 2l-5 2v-1zm-33 3 3.5 1.5-1.5.5-2.5-1.5zm10 3 8.5.5-8.5.5zm92 26 11.5.5-11.5.5zm-12 1 7.5.5-7.5.5zm28 0 8.5.5-8.5.5zm-35 1 4.5.5-4.5.5zm45 0 5.5.5-5.5.5zm-51 1 4.5.5-4.5.5zm58 0 3.5.5-3.5.5zm-62 1 2.5.5-2.5.5zm67 0h3l7.5 2.5-2.5.5-1-1-7-1zm-71 1 2.5.5-2.5.5zm20 0 35.5.5-35.5.5zm-12 1 7.5.5-7.5.5zm52 0 7.5.5-7.5.5zm-66 1 3.5 1.5-8.5 1.5v-1zm6 0 5.5.5-5.5.5zm71 0 4.5.5-4.5.5zm12 0 1.5.5q-1.7 2.3-6.5 1.5v-1q4 1 5-1Zm3 1 2.5 1.5-4.5.5v-1zm26 117-.5 1.5v8q-1.7.8-1 4l1 3h-1l-.5-1.5-.5 3.5 1 2h-2v3l-1.5 3.5-.5-2.5 1-1v-4l1-1v-4l2-6v-7zm-9 37 .5 1.5-1.5 2.5-.5-1.5zm-3 7 .5 1.5-3.5 6.5-.5-1.5zm-190 91 3.5 2.5 2 8 5 11 7 21v3l2 4 1 8 1 1v5l1 1 1 17 1 1-4.5 1.5h-7l-1-1h-6l-3-1-2.5-2.5-7-19-1-16 1-1v-6l1-1v-4l1-1 1-8 1-1v-4l1-1z" opacity=".996"/><path fill="#d2d1d3" stroke="#d2d1d3" d="m414.5 128 4.5.5-4.5.5zm7 0 4.5.5-4.5.5zm8 3 3.5 1.5-2.5.5q-2.5-1-1-2Zm-11 2 8.5.5-8.5.5zm12 1 2.5.5-2.5.5zm6 0q1.5 1-1 2l-1.5-.5zm-229 4 6.5.5-6.5.5zm190 4 1 1 1.5-.5-5.5 5.5q-1.2-2.2-2.5.5l1 2-1.5-.5-1.5 1.5 1 2h-2l1 2h-2l1 3h-1l-.5-1.5-3.5 8.5v3l-2.5 7.5-.5-3.5 1-1v-3l3-9-.5-1.5 1.5.5-1-3h1l.5 1.5 1.5-3.5h-2l1.5-1.5 1.5.5-1-2 1.5.5 1.5-1.5-.5-1.5-1.5.5 1.5-1.5q1.3 2.3 2.5-.5l-.5-1.5-1.5.5 2.5-2.5 1 1 2 1 1.5-1.5zm-207 1 3.5 2.5-3.5 1.5v-1l1.5-.5-2-2zm12 0 4.5.5-4.5.5zm8 0 4.5.5-4.5.5zm246 4 2.5 2.5-.5.5-2.5-2.5zm-248 4 2.5.5-2.5.5zm26 6 2.5 2.5-.5.5-2.5-2.5zm6 4 1.5.5q-1 2.5-2 1zm-2 1 1.5 3.5q-1 1.5-2-1zm10 12 .5 3.5h-1zm-7 1 1.5.5-.5 1.5q-2.5-1-1-2Zm-49 1 .5 3.5h-1zm188 1 .5 8.5h-1zm-2 1 .5 5.5h-1zm4 0 .5 6.5h-1zm-140 1 1.5.5-.5 1.5q-2.5-1-1-2Zm1 5 1.5.5-.5 1.5q-2.5-1-1-2Zm5 2 .5 3.5-2.5 1.5v-1l1.5-.5zm175 39 6.5.5-6.5.5zm-57 50 .5 5.5h-1zm-54 31 2.5 2.5-.5.5-2.5-2.5zm76 5 2.5.5-3.5 1.5q-1.5-1 1-2Zm-65 1 2.5.5-2.5.5zm8 0 2.5.5-2.5.5zm113 4 .5 1.5-1 1v13l.5 1.5-1.5-.5 1 3q-1 1.5-2-1l-1-4h1l.5 1.5.5-13.5zm-248 4 1 1 1.5-.5q-2 1-1 5l.5 1.5-1-1-1.5.5q2-1 1-5zm219 0 .5.5-2.5 2.5-.5-.5zm30 1 .5 7.5h-1zm-33 3 .5 2.5h-1zm28 11 2.5 2.5-.5.5-2.5-2.5zm-50 3q2 .5 1.5 3.5h-1zm46 5 2.5 2.5-.5.5-2.5-2.5zm-3 5q1 2 2 0l1.5 1.5h-2l1 2h-2l-.5 1.5-1.5-2.5h2zm-1 6 1.5 2.5h-2l1 3h-2l-1 5 .5 1.5-1.5-.5 1 4q-1.2 2.8-2.5.5l-3 2 .5-1.5.5-2.5 3 2 .5-1.5-2-1 3-9-.5-1.5 1.5.5zm39 5 .5 1.5q-1 2.5-2 1zm-5 3 1.5 1.5-4.5 4.5q-1.2-2.2-2.5.5l-2.5 3.5q-1.2-2.2-2.5.5l-1.5 2.5q-1.2-2.2-2.5.5l-1.5 2.5-1.5-.5-1.5 2.5-1.5-.5-1.5 2.5-1.5-.5-1.5 2.5-1.5-.5-.5 1.5q-1.2-2.2-2.5.5l-.5 1.5-1.5-.5-1.5 2.5-1.5-.5-.5 1.5q-1.2-2.3-2.5.5l-.5 1.5-1.5-.5-1.5 2.5-1.5-.5-1.5 2.5-1.5-.5-1.5 2.5-1.5-.5-.5 1.5q-1.2-2.2-2.5.5l-.5 1.5-1.5-.5-1.5 2.5-1.5-.5-1.5 2.5-1.5-.5-1.5 2.5-1.5-.5-1.5 2.5-1.5-.5-1.5 2.5-24 19-26 17-.5-2.5 2-1 .5-2.5 2.5-1.5-.5-1.5 4.5-1.5.5-1.5 1.5-.5 48.5-49.5 4.5-2.5 1.5-2.5h3l2 2 6 2 1-2 1.5.5.5-1.5 1.5.5.5-1.5 1.5.5.5-1.5 1.5.5.5-1.5 1.5.5.5-1.5 10-5 2 1v-2l4-2 1.5.5.5-1.5 1.5.5.5-1.5 1.5.5.5-1.5 1.5.5.5-1.5 1.5.5.5-1.5 1.5.5.5-1.5 1.5.5zm-266 13 2 2 30.5 15.5 2 10 1 1v3l1 1v3l6 18h-1l-.5-1.5-19-16-9-6-17-17-11.5-9.5 1.5-2.5 4 1 3 3h4l1.5-2.5-.5-1.5zm152 8 4.5.5-4.5.5zm18 8 .5 2.5h-1zm-201 126q.1 3.4 2.5 4.5l-.5.5-2-2-1.5-.5zm14 29 .5.5-2.5 2.5-.5-.5zm10 37 .5 1.5-2.5 5.5-.5-2.5zm1 6 .5 1.5-1 1v4l-1 1-.5 4.5-.5-4.5zm323 3 .5 3.5h-1zm-322 3 .5 2.5q-1.7.8-1 4l.5 1.5-2.5-.5z" opacity=".996"/><path fill="#c0b5af" stroke="#c0b5af" d="m209.5 71 .5 3.5h-1zm-7 68h15q.8 1.8 4 1 9.7 3.8 15.5 11.5l5 8-2.5 3.5-15-16-10-4h-12l-1 1-9 1q-3-1.5 0-3l6-2h3zm-16 7q1.5 1-1 2l-3 2-.5-.5 2.5-2.5zm266 11 2.5 2.5-.5.5-2.5-2.5zm-70 17 .5 2.5h-1zm-3 2 .5 3.5h-1zm-135 4 .5 2.5h-1zm135 2 .5 3.5h-1zm-134 4 .5 4.5h-1zm135 4 1.5.5q-1 2.5-2 1zm-91 43 4.5.5-4.5.5zm11 0 3.5.5-3.5.5zm8 27 2.5.5-2.5.5zm-29 6 4.5.5-4.5.5zm29 0 4.5.5-4.5.5zm15 1 2.5.5-2.5.5zm-93 34q6.6 6.9 16 11l10 1 1-1 6-1 8.5-5.5 2.5-3.5-.5 1.5q-2.3 6.2-7.5 9.5l-5 2h-5q-1-2-2 0h-6l-6-2q-7.5-3-11.5-9.5zm34.5 10-2 1v1q3 1 3-1zm-16 2v1h2zm10 0v1h3zm94.5-12 1 1 1.5-.5q-7.9 10.6-23.5 13.5-1-2-2 0h-8l-3-1-7.5-6.5.5-.5 2 2 1.5-.5.5 1.5 4 2q1.5-2.5 3 1l7-1 3 1q1.5-3.5 3-1l1.5-.5.5-1.5 1 1 2-2 1.5.5.5-1.5 1.5.5.5-1.5q1.3 2.3 2.5-.5l.5-1.5q1.3 2.3 2.5-.5zm-6 15 .5.5-3.5 3.5-.5-.5zm94 1q1 2 2 0l1.5 1.5v13l-10 20v2l-2 3-4.5 13.5-2.5-1.5 4-13 11-20q-.7-3.2 1-4v-13zm2.5 1-1 14h1zm-1 14-1 3h1zm-11 24-2 3 1 2 1-2zm-2 5-3 7h2l1-3zm-12.5-42q2.8 1.3.5 2.5l-.5 1.5zm-220 1q2.5 1 1.5 5.5-1.5 3-3 0-1-4.5 1.5-5.5Zm.5 1-1 5h1zm97.5 30 .5 3.5h-1zm175 9 .5.5-2.5 2.5-1.5-.5zm-70 1 .5.5-5.5 5.5-.5-.5zm3 1 .5.5-2.5 2.5-.5-.5zm60 4 .5.5-2.5 2.5-.5-.5zm-263 1 5.5 5.5-.5.5-5.5-5.5zm258 3 .5.5-2.5 2.5-.5-.5zm-11 2 1.5.5-2.5 1.5q-1.5-1 1-2Zm-98 11 2.5.5-2.5.5zm1 6 1.5.5-2.5 1.5q-1.5-1 1-2Zm-3 1q1.5 1-1 2l-1.5-.5zm-20 3 2.5.5-3.5 1.5q-1.5-1 1-2Zm-8 3 2.5.5-3.5 1.5q-1.5-1 1-2Zm16 3 2.5.5-2.5.5zm-24 1 1.5.5-7.5 2.5v-1zm-12 3 4.5.5-4.5.5zm1 14 .5 4.5h-1zm-3 11 .5 11.5h-1zm-127 88 9.5 20.5v2l2 3 6 18v3l1 1v3l3 9 1 9 1 1v5l1 1v6q1.8.8 1 4h-1l-.5-3.5-1 4-.5-5.5-1-1-1-15-1-1v-4l-1-1-2-11-6-18-2-3-2-8-2-3-1-5-2-3v-2l-2-2zm23.5 75-1 5h1zm341.5-67 1.5.5-.5 1.5q-2.5-1-1-2Zm-1 2q2.5 1 1 2l-1.5-.5zm-1 3 1.5.5-7 19v3l-2 4-1 8-2 5v5l-1 1q1.3 4.8-1 6v7l-1 1-.5 11.5-2 1-.5-4.5 1-1v-11l1-1v-6l1-1v-5l1-1 1-9 1-1v-3l2-4v-3l3-9z" opacity=".996"/><path fill="#df9b9d" stroke="#df9b9d" d="m542.5 119 1.5 2.5h-1zm-3 8 1.5 4.5h-1zm-435 15 1 1 1.5-.5-1.5 1.5q-2.5-1-1-2Zm430 0q2.8 1.3.5 2.5l-.5 1.5q-2.5-1-1-2l1.5-.5zm-426 4-.5 1.5-.5 1.5-.5-1.5zm421 4 1.5.5-2.5 1.5q-1.5-1 1-2Zm-1 3 .5.5-7.5 7.5v-3l1 1zm-415 1 1.5 1.5-1 1 .5 1.5-2.5-2.5zm3 5 3 3q1.3-2.2 2.5.5l-1.5-.5-1 1-3.5-3.5zm382 10 2.5 1.5-1.5-.5q-2.4-.1-1-1Z" opacity=".043"/><path fill="#ce8f2f" stroke="#ce8f2f" d="m455.5 176 1 2 1.5.5-1 2h2l-1 3h2q-1.7.8-1 4h2l-1 2v10l.5 1.5-1.5-.5 1 3h-2v2l-2 3 .5 1.5q-1.2-2.2-2.5.5l-1 2q3.8 1.8.5 3.5-1-2-2 0l-1.5.5q2.3 1.3-.5 2.5l-1.5-.5-.5 1.5-1.5-.5-.5 1.5-1.5-.5-.5 1.5-2-1v2l-3-1v2l-5-1v2q-3.2.7-4-1h-7l-3 1v-2q-3.2-.7-4 1l-1-2-2 1v-2l-2 1-1-2-1.5.5-.5-1.5-1.5.5.5-1.5-2-1-1 1-6.5-6.5q2-1 0-2l-.5-1.5-1.5.5q2-1 0-2l-.5-1.5-1.5.5 1-2h-2l2-3v-2l-2-1-1-13 1.5-.5 1.5 1.5.5 3.5 1.5-.5-1 2h2l-1 2h2l-1 2h2l-1 2h2q-2 1 0 2l.5 1.5 1.5-.5q-2 1 0 2l.5 1.5q1.3-2.3 2.5.5l-1 1 7.5 7.5q1.3-2.2 2.5.5l-.5 1.5 2-1v2l3 1 1.5-.5-.5 1.5 4-1v1l-1.5.5 10.5.5v-2l3 1v-2l2 1 2.5-1.5-.5-1.5 2 1-.5-1.5 1.5-1.5 1 1 5.5-5.5q-2.2-1.3.5-2.5l1.5.5 1-2-.5-1.5 1.5.5-1-2h2l-1-2h2l-1-3h2l-1-11q2-1 1-5h-2zm1.5 8-1 5h1zm-35 36v1h8zm-186.5-34 1 2q1.3-2.2 2.5.5l-1 1v12l1 2h-1l-.5-1.5-.5 4.5.5 1.5-1.5-.5v2l-3 5 .5 1.5-1.5-.5-2 3 1 1-4 4-.5 1.5q-1.2-2.3-2.5.5l-1.5 2.5-2-1v2l-2-1v2l-2-1v2l-3-1v2l-3-1v2l-3-1h-8l-3 1v-2l-3 1v-2l-3 1v-2l-2 1v-2l-2 1v-2l-2 1v-2l-2 1-2.5-2.5 1-1-2-2q2.5-1.5-1-3l-.5-1.5-1.5.5q2-1 0-2l-.5-1.5-1.5.5 1-2h-2l1-3h-2q1.8-.8 1-4h-1l-.5 1.5-.5-1.5 1-1v-7l-.5-1.5 1.5.5.5 1.5 1.5-.5-1 3h2l-1 3h2l-1 2h2l-1 2h2q-2 1 0 2l.5 1.5 1.5-.5q-2 1 0 2l.5 1.5 1-1 4.5 4.5q-2.2 1.3.5 2.5l2 1 1.5-.5-.5 1.5 2-1v2l2-1 1 2 3-1v2l10.5-.5-.5-1.5 4 1v-2l2 1v-2q1 2 2 0l1.5-.5-.5-1.5q1.5 2.5 3-1l3.5-2.5 2-3q-2.2-1.2.5-2.5l1.5.5 1-2-.5-1.5 1.5.5-1-2h2l-1-2h2l-1-2h2l-1-3h2l-1-5h1l.5 1.5.5-4.5-1-2zM210 228v1h2z" opacity=".996"/><path fill="#fefdfd" stroke="#fefdfd" d="m440.5 0 4.5 1.5-1.5.5-3-1v1l1.5.5-1.5.5-2-1v2l-2-1v2l-2-1 .5 1.5-1.5 1.5-3 2-2-1 .5 1.5-9.5 9.5-1.5.5q2.5 1.5-1 3l-1.5 2.5-1.5.5q2 1 0 2l-1.5 3.5-1.5-.5 1 3-1.5 2.5-1-2-.5 2.5 1 3h-1l-.5-2.5-.5 3.5 1 3h-1l-.5-2.5-.5 3.5 1 3h-1l-.5-1.5-1 2-.5-1.5 1-1v-4l1-1 1-6 5-10q6.1-10.4 15.5-17.5zm6 0 3.5.5-3.5.5zm14 0 3.5.5-3.5.5zm8 0h3l6 3h2l13.5 7.5-.5 1.5 2-1L525 28.5l-.5 1.5 2-1L551 41.5l-2.5 1.5v-2l-2 1v-2l-2 1v-2l-3 1-7.5-4.5.5-1.5-2 1v-2l-2 1v-2l-2 1v-2l-2 1-5.5-3.5.5-1.5-2 1v-2l-2 1v-2l-2 1-3.5-2.5.5-1.5-2 1v-2l-2 1-3.5-2.5.5-1.5-2 1-5.5-3.5.5-1.5-2 1v-2l-2 1-7.5-4.5.5-1.5-2 1V7l-3 1-4.5-2.5 2-1-2.5-.5-2 1V4l1.5-.5-4.5-1.5v1l1.5.5-1.5.5-3.5-1.5 3-1-3.5-.5-3 1V1zm-302 4h15l1 1 6 1 8 4 11.5 9.5-2 1 4 1 1 2-2.5.5-8.5-8.5.5-1.5-2 1-4.5-3.5.5-1.5-2 1V9l-2 1V8l-3 1V8l1.5-.5-2.5-.5-3 1V7l2.5-.5-3.5-.5-1 1h-15q-1-2-5-1v1l2.5.5-2.5.5-3-1v1l1.5.5-1.5.5-3-1v1l1.5.5-3.5 1.5-3-1v1l1.5.5-5.5 2.5-2-1v2l-2-1 .5 1.5-1.5 1.5-4 2-2-1 .5 1.5-1.5 1.5-4 2-2-1v2l-2-1 .5 1.5-1.5 1.5-2 1 .5-1.5-1-1 1.5-1.5 13-7 2 1-.5-1.5 1.5-1.5 15-7 6-2h4zm.5 1v1h15zm-45.5 20v3l-2-1 .5 1.5-1.5 1.5-4 2-2-1v2l-2-1 .5 1.5-1.5 1.5-2 1-2-1v2l-2-1 .5 1.5-1.5 1.5-4 2-2-1v2l-2-1v2l-2-1 .5 1.5-1.5 1.5-13 6-2-1v2l-2-1v2l-3-1v1l1.5.5-5.5 2.5-2-1v2l-3-1v1l1.5.5-3.5 1.5-3-1v1l1.5.5-3.5 1.5-3-1v1l1.5.5-3.5 1.5-3-1v1l1.5.5-3.5 1.5-3-1v1l1.5.5-1.5.5-3-1v1l1.5.5-3.5 1.5-3-1v1l1.5.5-1.5.5-3-1v1l1.5.5-1.5.5-3-1v1l1.5.5-3.5 1.5v-1l1.5-.5-2-1L36.5 66l3-2 5-1 18-8h2l7-4h2l24-12 2-2 7-3zm88 0q1 2 2 0l1.5 1.5 2 3-1 2 1.5-.5 1.5 1.5 5 12h-1l-.5-1.5-1 2-.5-1.5 1-2h-2l1-2h-2l-4-9-4-5zm343 17 16 7 19 6 3 2 8 2 10.5 4.5-3.5 1.5v-1l1.5-.5-2.5-.5-2 1v-1l1.5-.5-2.5-.5-2 1-2.5-1.5 2-1-2.5-.5-2 1v-1l1.5-.5-2.5-.5-2 1v-1l1.5-.5-2.5-.5-2 1-5.5-2.5 2-1-2.5-.5-2 1v-1l1.5-.5-2.5-.5-2 1v-1l1.5-.5-2.5-.5-2 1-2.5-1.5 2-1-2.5-.5-2 1v-1l1.5-.5-2.5-.5-2 1-2.5-1.5 2-1-2.5-.5-2 1-2.5-1.5 2-1-2.5-.5-1.5.5.5-1.5-3 1-4.5-2.5zM586 56v1h2zm-275.5-9 16.5.5-16.5.5zm-15 1 13.5.5-13.5.5zm33 0h13l1 1h8l1 1 5.5.5-5.5.5-1 1h-5v-1l5.5-.5-8.5-.5-1 1h-8v-1l8.5-.5-13.5-.5zm-107 1 .5 2.5h-1zm65 0 7.5.5-8 1 6 1-5.5.5-1-1h-6v1l4.5.5-4.5.5q-1.3-2.2-6-1v1l3.5.5-3.5.5q-1-2-5-1v1l3.5.5-3.5.5q-1-2-5-1v1l3.5.5-3.5.5q-.7-1.7-4-1v1l2.5.5-2.5.5q-.7-1.7-4-1v1l2.5.5-2.5.5-3-1v1l1.5.5-1.5.5-3-1v1l1.5.5-1.5.5-3.5-1.5 9.5-3.5 7-1 1-1h4l6-2h5l1-1h6zm24 0 16.5.5-16.5.5zm95 0 1.5.5-.5 5.5-1-5-1.5.5zm-110 1 8.5.5-8.5.5zm-72 1 1.5 3.5h-2l-.5 6.5-.5-7.5zm135 0 14 2 1 1h3l7.5 2.5-5.5 1.5v-1l2.5-.5-3.5-.5-3 1v-1l2.5-.5-3.5-.5q-.7 1.8-4 1v-1l3.5-.5-4.5-.5-3 1v-1l2.5-.5-4.5-.5q-.7 1.8-4 1v-1l3.5-.5-4.5-.5zm-5 1 3.5.5-3.5.5zm51 0 1 10 1-5 .5 5.5 2 2-1.5-.5-1.5 1.5 2 1-1.5.5-2.5-1.5 2-1-2.5-.5-2 1v-1l1.5-.5-2.5-.5-2 1v-1l1.5-.5-2.5-.5-2 1v-1l1.5-.5-2.5-.5-2 1v-1l1.5-.5-2.5-.5-2 1v-1l1.5-.5-2.5-.5-3 1v-1l2.5-.5-3-1 2.5-.5 16 6zm-180 4 .5 4.5h-1zm19 3 1.5.5-2 1 2 1-1.5.5-3-1v1l1.5.5-1.5.5-3-1v1l1.5.5-1.5.5-3-1v1l1.5.5-3.5 1.5-2-1v2l-3-1v1l1.5.5-5.5 2.5-2-1v2l-2-1 .5 1.5-1.5 1.5-7 5-.5-.5 2-2-1-1 1.5-1.5 2 1-.5-1.5 3.5-3.5 1.5-.5q-2-1 0-2l.5-1.5 4 2 10-5z" opacity=".071"/><path fill="#fefdfd" stroke="#fefdfd" d="m221.5 62 1.5 2.5q-1 1.5-2-1zm389 2 15 5 8 4 6.5 6.5-1.5 2.5v-2l-5.5-4.5.5-1.5-2 1v-2l-2 1v-2l-3 1-2.5-1.5 2-1-2.5-.5-2 1v-1l1.5-.5-2.5-.5-2 1-2.5-1.5 2-1-2.5-.5-2 1v-1l1.5-.5-2.5-.5-2 1v-1l1.5-.5-2-1zm-587 6 1.5.5-2 1 2 1-1.5.5-3-1v1l1.5.5-1.5.5-3-1v1l1.5.5-1.5.5-3-1v1l1.5.5-1.5.5-3-1v1l1.5.5q-6.6 1.9-10 7L.5 90 0 87.5l1-2-1-2L7.5 76zM.5 95l.5 3.5H0zm639 1 .5 4.5h-1zm-638 5 .5 2.5-1 3h1l.5-1.5.5 1.5-1 3h1l.5-1.5 1.5 4.5-1 2h2l5 10-.5 1.5 2.5 1.5-.5 1.5 3.5 2.5 14 15-.5 1.5 2-1 1.5 1.5-.5 1.5 2-1v2l2-1v2l3-1v1l-1.5.5 3 1-2.5.5-9-5-10.5-9.5-12-16-5-11-2-8zm637 1 1.5 6.5-3 9-5 10q-6.5 10.5-15.5 18.5l-9 6v-3l2 1-.5-1.5 1.5-1.5 4-3q1.3 2.3 2.5-.5l2.5-3.5 2.5-1.5-1-1 3.5-3.5 1.5-.5q-2.5-1.5 1-3l3.5-5.5 1.5-.5-.5-1.5 1.5-.5-.5-1.5 1.5.5-1-3 2-3 2.5-8.5 1 2 .5-2.5q-2.1-1.1-.5-4.5Zm-.5 8-1 3h1zm-542.5 4 1.5.5-2 1 1 1-4 4L71.5 144l-13 9-6 2h-10v-1l10.5-.5-11-1 10.5-.5 3 1v-1l-1.5-.5 1.5-.5 3 1v-1l-1.5-.5 4.5-2.5 2 1-.5-1.5 1.5-1.5 2 1-.5-1.5L80.5 131l2.5-1.5-1-1 6.5-6.5 1.5-.5-1-1zm450 1 10.5 11.5q-2.3 1.2.5 2.5l9.5 8.5.5 1.5 1-1 6 6 10.5 6.5-2 1 2.5.5 2-1v1l-1.5.5 2.5.5q.8-1.7 4-1v1l-3.5.5 12.5.5v-1l-3.5-.5 3.5-.5 3 1v-1l-1.5-.5 1.5-.5 2.5 1.5-5.5 2.5h-12l-6-2-1.5-1.5.5-1.5-2 1q-14.9-10.1-26.5-23.5l-7.5-9.5-1.5.5 2-2zm-13 32 .5 1.5-3.5 4.5-.5-.5 2-2zm-14 15q1.5 1-1 2l-1.5-.5zm-390 6 3.5 2.5-1.5-.5q-3.8-.7-2-2Zm378 0q1.5 1-1 2l-1.5-.5zm-11 2 1.5 2.5h-1zm-361 1 4.5 1.5-2.5.5-2.5-1.5zm7 1 1 4 1.5-.5-3.5 9.5-1-2-.5 2.5 1 2-2 1 1 2-2 1 1 3-1.5 3.5-1.5-5.5 4-10v-3zm.5 4-1 3h1zm-1 3-1 3h1zm-4 13-1 3h1zm361.5-20 3.5 7.5 4 13-1 3h1l.5-1.5.5 1.5-1 3h1l.5-1.5.5 1.5-1 3h1l.5-1.5.5 1.5-1 3h1l.5-1.5 4.5 12.5v3l2 4v3l2 4 2 10-1.5 3.5-.5-2.5 1-3h-1l-.5 1.5-.5-1.5q1.8-.8 1-4h-1l-.5 2.5-.5-2.5q1.8-.7 1-4h-1l-.5 2.5-.5-2.5 1-3h-1l-.5 1.5-1.5-5.5.5-1.5-1.5-.5-1-5 1-3h-1l-.5 1.5-.5-1.5.5-1.5-1.5-.5 1-4h-1l-.5 1.5-6.5-19.5 1-3h-1l-.5 1.5-.5-1.5.5-1.5-1.5-.5 1-3h-2l-1-3 1-3h-1l-.5 1.5-.5-1.5zm14.5 43-1 3h1zm2 7-1 3h1zm-380.5-26 1.5 4.5h-1l-.5-1.5-.5 2.5 1 3h-1l-.5-2.5-.5 3.5 1 2h-1l-.5-1.5-.5 2.5 1 3-2 1 1 3h-1l-.5-2.5-.5 3.5 1 2h-1l-.5-1.5-.5 2.5 1 3h-1l-.5-1.5-.5 2.5 1 3h-1l-1-5 1-1 2-11zm-8 29 1.5 5.5h-1l-.5-2.5-.5 4.5 1 3h-1l-.5-2.5-.5 3.5 1 3h-1l-.5-2.5-.5 3.5q1.8.8 1 4h-1l-.5-3.5-.5 4.5 1 3h-1l-.5-2.5-1 4-.5-3.5 1-1v-4l1-1v-3l2-5v-4zm394 16 .5 2.5-1.5 4.5-.5-3.5zm1 4 1.5 7.5 1 1v3l1 1v5h-1l-.5-5.5-1 5-.5-4.5q1.8-.8 1-4h-1l-.5 2.5-.5-2.5q1.7-.7 1-4h-1l-.5 2.5-.5-2.5zm-401 6 .5 3.5h-1zm2 0 .5 2.5h-1zm-3 5 1.5 8.5h-1l-.5-3.5-.5 4.5q2 1 1 5h-1l-.5-4.5-.5 6.5-1 1v15h1l.5-14.5.5 14.5-1 1v6h1l.5-4.5.5 4.5q-2 1-1 5h1l.5-3.5.5 3.5q-1.7.8-1 4h1l.5-2.5.5 2.5-1 3h1l.5-1.5 2.5 6.5-.5 1.5 1.5.5-.5 1.5 1.5.5-.5 1.5 2.5 1.5 1 2-.5 1.5 2.5 1.5 4 6-.5 1.5 5.5 4.5-.5 1.5 12.5 11.5-.5 1.5 2 1 1-1 6.5 6.5.5 1.5 1-1 3.5 3.5-.5 1.5 2 1 1-1 2.5 2.5-.5 1.5 2-1 6.5 5.5-.5 1.5 2-1 2.5 2.5-.5.5-3-1-4-2-15.5-12.5-.5-2.5-1 1-5-5-16.5-15.5-9-12-6-11v-2l.5-1.5-2.5-.5 2-1-3-1v-3l-2-5v-4l-1-1v-6l-1-1v-15l1-1v-6l1-1v-4l1-1zm2 0 .5 2.5h-1zm402 8 1 16 1-16 .5 15.5-1 1-1 9-2.5 5.5-1.5.5 2 1-4 9v2l-6.5 11.5-1.5-.5 1 2-2 3 2 3-1 2 9 13 13 24v2l7 14 5 16-1.5 3.5-.5-2.5 1-3h-1l-.5 1.5-.5-1.5 1-3h-1l-.5 1.5-.5-1.5.5-1.5-1.5-.5 1-3h-2l-1-3 1-3h-1l-.5 1.5-1.5-3.5 1-2h-2l-2-5 .5-1.5-1.5-.5 1-2h-2l-6-12 1-2h-2l.5-1.5-2.5-1.5-3-6 .5-1.5-2.5-1.5-1-2 .5-1.5-2.5-1.5-1-2 .5-1.5-2.5-1.5.5-1.5-2.5-1.5-1-2 1-2-1-1 1-1-.5-1.5 1.5-.5q-2-1 0-2l2.5-4.5 1.5-.5-.5-1.5 1.5-.5-.5-1.5 1.5-.5-1-2 1.5-2.5 1.5.5-1-3 1.5-2.5 1 2 .5-2.5-1-2h1l.5 1.5.5-2.5-1-2 3-5-1-3h1l.5 2.5.5-3.5q-1.7-.7-1-4h1l.5 3.5.5-5.5-1-1zm-340 112 1.5.5q.5 3-1.5 3.5l-1.5.5.5 1.5-1.5.5.5 1.5-1.5-.5 1 2h-2l1 2h-2l1 2h-2l1 2-2 1 1 2-2.5 4.5-1.5-.5 1 3-1.5 2.5-1.5.5 1 2h-1l-.5-1.5-.5 2.5 1 2-1.5 3.5-1-2-.5 2.5 1 2-2 1 1 3h-1l-.5-2.5-.5 3.5 1 2h-1l-.5-1.5-.5 3.5 1 3h-1l-.5-2.5-.5 3.5q1.8.8 1 4h-1l-.5-3.5-.5 4.5q2 1 1 5h-1l-1-9 1-1 2-11 5-15 11.5-23.5 2.5-.5-.5-1.5-1.5.5zm361 23 2.5 6.5v3l-1.5 4.5-.5-3.5 1-3h-1l-.5 1.5-.5-2.5 1-3h-1l-.5 1.5-.5-1.5zm3 11 1.5 4.5v4l1 1v4h-1l-.5-4.5-1 4-.5-3.5q2-1 1-5h-1l-.5 2.5-.5-2.5zm1 15 .5 3.5h-1zm2 0 .5 5.5 1 1v9l1 1v32l-1 1v7l-1 1-.5 4.5-.5-4.5-1-1v-5h1l.5 5.5.5-7.5-1-1v-32l1-1v-9l-1-1zm1.5 16-1 33h1z" opacity=".071"/><path fill="#fefdfd" stroke="#fefdfd" d="m549.5 432 .5 5.5h-1zm-388 3 .5 5.5 1 1v5h-1l-.5-5.5-1 9-.5-8.5 1-1zm-2 16 .5 23.5 1 1v8h-1v-8l-1-1zm2 0 .5 22.5h-1zm1 27 .5 5.5h-1zm386 6 1.5 7.5-1 1-1 7-4 12-2 3v3l2 4h-1l-.5-1.5-1.5.5.5-1.5-1.5-.5.5-1.5-1.5-.5 2-1-1-3 1.5-2.5 1.5-.5-1-2h1l.5 1.5.5-2.5-1-2h1l.5 1.5.5-2.5-1-2 2-1-1-3h1l.5 2.5.5-3.5-1-3h1l.5 2.5.5-3.5-1-3h1l.5 2.5.5-3.5q-2.1-1.1-.5-4.5Zm-387 1 1 6 1-4 .5 3.5q-2 1-1 5h1l.5-2.5.5 2.5q-2 1-1 5h1l.5-3.5.5 3.5q-1.7.7-1 4h1l.5-2.5.5 2.5-1 3h1l.5-1.5.5 1.5q-1.7.8-1 4h1l.5-2.5.5 2.5-1 2h2l-3 2-.5 1.5-.5-1.5 1-3-4-12v-4l-2-6zm5 33 1.5.5q-1.7 1.8-1 6l1 1v6h-1l-.5-6.5-1 8-.5-7.5 2-6zm376 5 .5 5.5h-1zm2 0 1.5 13.5 1 1 1 9 2 5 1 9h-1l-.5-4.5-1 4-.5-3.5q2-1 1-5h-1l-.5 2.5-.5-2.5q1.8-.7 1-4h-1l-.5 2.5-.5-2.5q2-1 1-5h-1l-.5 3.5-.5-3.5q2-1 1-5h-1l-.5 3.5-.5-3.5q2.3-1.2 1-6h-1l-.5 3.5-.5-3.5 1-1zm-380 11 1.5 8.5h-1q.8-3.2-1-4zm2 0 .5 3.5h-1zm-3 6 1.5 7.5h-1q.8-3.2-1-4zm-1 5 1.5 6.5h-1l-.5-2.5-.5 3.5q1.8.7 1 4h-1l-.5-3.5-.5 4.5q2.3 1.3 1 6h-1l-.5-5.5-.5 20.5h1l.5-5.5.5 5.5q-2 1-1 5h1l.5-2.5.5 2.5-1 3h1l.5-1.5.5 1.5-1 3h1l.5-1.5.5 1.5-1 3h1l.5-1.5 1.5 3.5-.5 1.5 1.5.5-.5 1.5 1.5.5-.5 1.5 2.5 1.5-.5 1.5 3-1v1l-1.5.5 2.5.5q1.2-2.3 6-1v1h-5l-3 1-5.5-4.5-4-8-3-9v-4l-1-1v-20l1-1v-4l1-1zm387 17 .5 14.5h-1zm2 0 .5 14.5h-1zm-1 16 .5 4.5-4 12-3 6-3.5 3.5-2 1h-18q-2.5-1-1-2l1 1h18v-1l-1.5-.5 1.5-.5 2 1-.5-1.5 1-1 4.5-9.5 1.5.5-1-3h1l.5 1.5.5-2.5-1-3h1l.5 2.5.5-3.5q-1.7-.7-1-4h1l.5 3.5zm-361 25 5.5.5-5.5.5zm12 0h11l1.5 1.5-1.5-.5h-11zm223 0 39.5.5-39.5.5zm92 0q1.5 1-1 2l-35.5-.5 35.5-.5zm-141 1 47.5.5-47.5.5z" opacity=".071"/><path fill="#e69396" stroke="#e69396" d="m111.5 151 2.5 2.5-.5.5-2.5-2.5zm416 1 .5.5-5.5 5.5-.5-.5zm-412 4 4.5 4.5-.5.5-4.5-4.5zm405 2 .5.5-2.5 2.5-.5-.5z" opacity=".494"/></svg>