<svg xmlns="http://www.w3.org/2000/svg" viewBox="0 0 640 383"><path fill="#0d1110" stroke="#0d1110" d="m630.5 5 1 1 1.5-.5-7 7q2.3 1.3-.5 2.5-1.2-2.2-2.5.5l.5 1.5q-1.2-2.3-2.5.5l.5 1.5q-1.2-2.2-2.5.5l.5 1.5q-1.2-2.2-2.5.5l.5 1.5-1-1-11 11-3.5 2.5.5 1.5q-1.2-2.2-2.5.5l1 1-2.5 2.5-1-1-6 6-3.5 2.5 1 1-2.5 2.5-1-1-3 3-1.5.5v2l-3.5 3.5-1-1-3 3-2.5 1.5.5 1.5-1-1-5 5-2.5 1.5.5 1.5-1-1-3 3-1.5.5 1 1-2.5 2.5-1-1-3 3-1.5.5q2.3 1.2-.5 2.5-1.5-2.5-3 1l-2.5 1.5q2.3 1.3-.5 2.5-1.5-2.5-3 1l-1.5.5.5 1.5-1-1-3 3-2.5 1.5.5 1.5q-1.5-2.5-3 1l-2.5 1.5.5 1.5q-1.5-2.5-3 1l-1.5.5q2.3 1.2-.5 2.5-1.5-2.5-3 1l-1.5.5q2.3 1.3-.5 2.5-1-2-2 0l-2.5 1.5.5 1.5q-1-2-2 0l-3.5 2.5.5 1.5q-1-2-2 0l-5.5 3.5.5 1.5q-1-2-2 0l-3.5 2.5.5 1.5q-1-2-2 0l-1.5.5.5 1.5q-1.5-2.5-3 1l-1.5.5q2.3 1.3-.5 2.5l-2-1-1.5 1.5.5 1.5q-1-2-2 0l-2.5 1.5.5 1.5q-1-2-2 0l-8.5 5.5.5 1.5q-1.5-2.5-3 1l-1.5.5.5 1.5q-1-2-2 0l-5.5 3.5.5 1.5q-1-2-2 0l-1.5.5.5 1.5q-1-2-2 0l-11.5 7.5.5 1.5-2-1-1.5 1.5.5 1.5-2-1-1.5 1.5.5 1.5q-1-2-2 0l-1.5.5.5 1.5q-1-2-2 0l-1.5.5.5 1.5q-1-2-2 0l-12.5 7.5.5 1.5q-1-2-2 0l-4.5 2.5.5 1.5-2-1v2q-1-2-2 0l-4.5 2.5.5 1.5-2-1-1.5 1.5.5 1.5-2-1v2q-1-2-2 0l-1.5.5.5 1.5-2-1-6.5 4.5.5 1.5-2-1v2q-1-2-2 0l-6.5 3.5.5 1.5-2-1-1.5 1.5.5 1.5-2-1-5.5 3.5.5 1.5-2-1v2q-1-2-2 0l-3.5 1.5.5 1.5-2-1v2q-1-2-2 0l-3.5 1.5.5 1.5-2-1-5.5 3.5.5 1.5-2-1-2 2-11.5 5.5.5 1.5-2-1v2l-2-1v2q-1-2-2 0l-2.5.5.5 1.5q-1-2-2 0l-10.5 4.5.5 1.5-2-1v2l-2-1v2l-2-1v2l-2-1v2l-2-1-4.5 2.5.5 1.5-2-1-5.5 2.5.5 1.5-2-1-6.5 3.5.5 1.5-3-1v2l-2-1v2l-2-1v2l-2-1-7.5 3.5.5 1.5-2-1v2l-3-1-2.5 1.5.5 1.5-2-1-5.5 2.5.5 1.5-2-1v2l-2-1-3.5 1.5.5 1.5-2-1-10.5 4.5.5 1.5-3-1-2.5 1.5.5 1.5-3-1-2.5 1.5.5 1.5-2-1v2l-3-1v2l-3-1-10.5 4.5.5 1.5-3-1v2l-2-1-3.5 1.5.5 1.5-3-1v2l-3-1-5.5 2.5.5 1.5-3-1v2l-2-1-12.5 4.5.5 1.5-3-1v2l-3-1-3.5 1.5.5 1.5-3-1v2l-3-1v2l-3-1v2l-3-1-10.5 3.5.5 1.5-3-1v2l-3-1v2l-3-1-4.5 1.5.5 1.5-3-1v2q-.7-1.7-4-1v2l-3-1v2q-.7-1.7-4-1v1l1.5.5-1.5.5-3-1v2q-.7-1.7-4-1v2l-3-1-1 1-7.5 1.5.5 1.5q-.8-1.8-4-1v2q-.7-1.7-4-1v2q-.7-1.7-4-1v2q-.7-1.7-4-1v2q-1-2-5-1l-4.5 1.5 2 1-1.5.5q-.7-1.7-4-1v2q-1-2-5-1v1l1.5.5-1.5.5q-1-2-5-1v2q-1-2-5-1l-1 1h-5l-1 1-4.5.5.5 1.5-3.5-1.5.5-2.5 4.5-.5-.5-1.5q.8 1.8 4 1l1-1 5.5-.5-.5-1.5q.8 1.7 4 1v-2q.7 1.8 4 1v-2q1 2 5 1v-2q.8 1.7 4 1v-2q.8 1.8 4 1v-2q1 2 5 1v-2q.8 1.8 4 1v-2l3 1 1-1 4.5-.5-.5-1.5 3 1 4.5-1.5-.5-1.5q.8 1.8 4 1v-2q.8 1.8 4 1v-1l-1.5-.5 1.5-.5 3 1v-2q.8 1.8 4 1v-2l3 1 7.5-2.5-.5-1.5q.8 1.8 4 1l3.5-1.5-.5-1.5 3 1 4.5-1.5-.5-1.5 3 1v-2l3 1v-2l3 1 3.5-1.5-.5-1.5q.7 1.8 4 1l3-2h3q2-2.5 6.5-2.5l-.5-1.5 2 1 4.5-1.5-.5-1.5 2 1 3.5-1.5-.5-1.5 3 1v-2l3 1v-2l3 1 6.5-2.5-.5-1.5 2 1v-2l3 1v-2l2 1 6.5-2.5-.5-1.5 3 1v-2l2 1v-2l3 1v-2l2 1 3.5-1.5-.5-1.5 3 1 2.5-1.5-.5-1.5 2 1 3.5-1.5-.5-1.5 2 1 3.5-1.5-.5-1.5 2 1v-2l3 1v-2l2 1v-2l3 1 9.5-4.5-.5-1.5 2 1v-2l2 1 5.5-2.5-.5-1.5 2 1v-2l2 1 7.5-3.5-.5-1.5 2 1v-2l2 1 9.5-4.5-.5-1.5 2 1 4.5-2.5-.5-1.5 2 1v-2l2 1v-2l2 1v-2l2 1v-2l2 1v-2l2 1v-2l2 1v-2l2 1v-2l2 1v-2l2 1v-2l2 1v-2l2 1 7.5-4.5-.5-1.5 2 1 2.5-1.5-.5-1.5 2 1v-2q1 2 2 0 3 .5 3.5-1.5l-.5-1.5 2 1v-2l2 1v-2q1 2 2 0l5.5-2.5-.5-1.5q1 2 2 0l3.5-1.5-.5-1.5 2 1v-2q1 2 2 0l8.5-4.5-.5-1.5q1 2 2 0l3.5-1.5-.5-1.5 2 1 5.5-3.5-.5-1.5q1 2 2 0l1.5-.5-.5-1.5 2 1v-2q1 2 2 0l6.5-3.5-.5-1.5 2 1v-2q1 2 2 0l1.5-.5-.5-1.5 2 1 6.5-4.5-.5-1.5q1 2 2 0l12.5-7.5-.5-1.5q1 2 2 0l1.5-.5-.5-1.5q1 2 2 0l1.5-.5-.5-1.5 2 1 7.5-5.5-.5-1.5 2 1 1.5-1.5-.5-1.5 2 1 1.5-1.5-.5-1.5q1 2 2 0l1.5-.5-.5-1.5q1 2 2 0l1.5-.5-.5-1.5q1 2 2 0l1.5-.5-.5-1.5q1 2 2 0l1.5-.5-.5-1.5q1 2 2 0l2.5-1.5-.5-1.5 2 1 1.5-1.5-.5-1.5 2 1v-2q1.5 2.5 3-1l5.5-3.5-.5-1.5q1 2 2 0l1.5-.5q-2.3-1.2.5-2.5l2 1 1.5-1.5-.5-1.5q1 2 2 0l1.5-.5-.5-1.5q1 2 2 0l2.5-1.5-.5-1.5q1 2 2 0l2.5-1.5-.5-1.5q1.5 2.5 3-1l4.5-2.5q-2.2-1.2.5-2.5 1 2 2 0l1.5-.5-.5-1.5q1.5 2.5 3-1l5.5-3.5-.5-1.5q1.5 2.5 3-1l6.5-4.5-.5-1.5q1 2 2 0l2.5-1.5-.5-1.5q1.5 2.5 3-1l1.5-.5-.5-1.5q1.5 2.5 3-1l1.5-.5q-2.2-1.2.5-2.5 1 2 2 0l2.5-1.5q-2.3-1.2.5-2.5 1.5 2.5 3-1l1.5-.5-.5-1.5 1 1 3-3 6.5-4.5-.5-1.5 1 1 3-3 7.5-5.5q-2.2-1.2.5-2.5l1 1 3-3 1.5-.5-1-1 2.5-2.5q1 2 2 0l3.5-2.5-.5-1.5 1 1 3-3 3.5-2.5-.5-1.5 1 1 4-4 3.5-2.5-1-1 2.5-2.5 1 1 3-3 2.5-1.5-.5-1.5 1 1 2.5-2.5-.5-1.5 1 1 5-5 3.5-2.5-1-1 3.5-3.5 1 1 10-10 4.5-2.5-.5-1.5q1 2 2 0l3.5-1.5-.5-1.5 2 1V9q1 2 2 0l3.5-1.5-.5-1.5 2 1z" opacity=".996"/><path fill="#0d1110" stroke="#0d1110" d="m346.5 161 2.5 1.5-1.5-.5q-2.4-.1-1-1Zm-11 16 2.5.5-2.5.5zm-29 8 3.5 1.5-2.5.5q-2.5-1-1-2Zm-3 26 1.5.5-.5 1.5q-2.5-1-1-2Zm-26 10 1.5.5-.5 1.5q-2.5-1-1-2Zm36 1 1.5 2.5q-1 1.5-2-1zm-32 3 2.5 1.5-.5 1.5-2.5-2.5zm-95 10 3.5.5-3.5.5zm-24 15 3.5.5-3.5.5zm-34 12 4.5.5-4.5.5zm-65 90 1.5.5q-1 2.5-2 1z" opacity=".996"/><path fill="#2a4b40" stroke="#2a4b40" d="m382.5 211 .5 3.5h-1zm-20 18 .5 2.5h-1zm-25 3 .5 4.5h-1zm-182 17 4.5 1.5-2.5.5-2.5-1.5zm149 1 .5 2.5h-1zm0 4 .5 3.5h-1zm-179 8 2.5.5-2.5.5zm132 8-.5 1.5-.5 1.5-.5-1.5zm-144 56 1.5.5q-1 2.5-2 1z" opacity=".996"/><path fill="#2e7973" stroke="#2e7973" d="m326.5 196 3.5 3.5-.5.5-3.5-3.5zm56 12 1.5.5-.5 4.5q-2.4-1.8-1-5Zm-19 8 1.5.5-.5 1.5q-2.5-1-1-2Zm18 4 1.5.5-.5 1.5-1.5-.5zm-19 7 1.5 2.5q-1 1.5-2-1zm-177 7 1.5.5q-1 2.5-2 1zm151 1 1.5 2.5q-1 2.5-2 1zm26 0 .5 1.5-1.5.5q-1.5-1 1-2Zm-27 11 1.5.5-.5 1.5q-2.5-1-1-2Zm-52 12-.5 1.5 1 1-.5 1.5-1.5-2.5zm-145 4 1.5.5-2.5 1.5q-1.5-1 1-2Zm165 0q2.5 1 1 2l-1.5-.5zm-219 92 .5.5-6.5 6.5-.5-.5zm-26 2 .5.5-2.5 2.5-.5-.5z" opacity=".996"/><path fill="#030000" stroke="#030000" d="m636.5 2 .5.5L603.5 36l-1.5.5-.5 1.5-20 18-.5-1.5q26.6-21.9 50-47l-1.5-.5-17 10-16 16-35 31-33 26-5 5-22 16-4 4-15 10-8 7-40 27-3 3-26 17-3 1-11 8-25 15-5 2-5 4-19 10-7 5h-2q-2.3 3.2-7 4l-2 2-4 1-2 2-47 23-9 3-16 8h-2l-3 2-12 4-5 3-21 7-8 4-17 5-3 2h-3l-3 2h-3l-3 2h-3l-3 2h-3l-13 5h-3l-7 3h-3l-18 6h-3l-12 4h-4l-4 2-8 1-9 3h-4l-9 3h-5l-1 1-8.5 1.5.5 2.5 7-1 1-1 10-1 1-1h4l1-1h4l9-3h4l1-1h3l1-1h3l1-1 15-3 4-2h3l4-2h3l11-4h3l10-4h3l33-11 3-2h3l3-2 16-5 3-2 5-1 3-2 10-3 5-3h2l3-2h2l3-2 12-4 32-15h2l9-5h2l25-13 4-1 2-2h2l2-2 15-7 2-2 5-2 2-2 5-2 2-2 5-2 25-15 69-45 61-45 31-25 27-24 .5.5-7.5 7.5-61 50-55 40-63 41-5 2-5 4-22 12-14 9-5 2-2 2h-2l-2 2h-2l-6 4h-2l-2 2-18 8-2 2h-2l-7 4h-2l-2 2-9 3-11 6h-2l-5 3h-2l-5 3h-2l-5 3h-2l-5 3h-2l-28 12-8 2-3 2-16 5-3 2-39 13h-3l-10 4-10 2-18 6h-3l-1 1h-3l-1 1h-3l-1 1h-3l-1 1h-3l-9 3h-4l-5 2-9 1-5 2h-5l-1 1-9 1-.5-4.5 5.5-.5 5-2h5l1-1h3l5-2h4l9-3h4l8-3h4l4-2h3l12-4h3l21-7h3l25-9h3l3-2h3l14-6 6-1 3-2 13-4 3-2h2l3-2h2l3-2h2l3-2 12-4 7-4 7-2 61-29 2-2 13-6 2-2 21-11 5-4 5-2 22-14 5-2 67.5-44.5.5-1.5 17-11 48-36 37-30L587 40.5l.5-1.5q14.3-10.7 26-24z" opacity=".996"/><path fill="#030000" stroke="#030000" d="m367.5 172 3.5 3.5-.5.5-3.5-3.5zm-16 12 8.5 8.5-.5.5-8.5-8.5zm24 0 1.5 2.5h-1zm-50 10 6.5 6.5-.5.5-6.5-6.5zm7 8 3.5 3.5-.5.5-3.5-3.5zm-33 5 3.5 3.5-.5.5-3.5-3.5zm37 0 2.5 2.5-.5.5-2.5-2.5zm-31 6 4.5 4.5-.5.5-4.5-4.5zm5 6 2.5 2.5-.5.5-2.5-2.5zm-31 3 2.5 2.5-.5.5-2.5-2.5zm5 6 2.5 2.5-.5.5-2.5-2.5zm-34 5 3.5 2.5-.5.5-2-2q-2.4-.1-1-1Zm5 3 3.5 3.5-.5.5-3.5-3.5zm-35 11 6.5 6.5-.5.5-6.5-6.5zm-70 2 2.5.5-2.5.5zm77 6 4.5 5.5-.5.5-2.5-2.5-2-3zm-87 8 2.5.5-2.5.5zm30 13 2.5 2.5-.5.5-2.5-2.5zm4 3 2.5 2.5-.5.5-2.5-2.5zm99 10-.5 1.5-1.5 2.5.5-1.5zm-7 11 .5.5-2.5 2.5-.5-.5zm-19 1-.5 1.5-1.5 2.5.5-1.5zm14 6 .5.5-2.5 2.5-.5-.5zm-24 9 .5.5-2.5 2.5-.5-.5zm-123 6 .5 2.5h-1zm-48 27 .5.5-2.5 2.5-.5-.5zm22 1 .5.5-2.5 2.5-.5-.5zm-26 3 .5.5-5.5 5.5-.5-.5zm41 0 .5.5-2.5 2.5-.5-.5zm-18 1 .5.5-7.5 7.5-.5-.5zm34 2 .5.5-2.5 2.5-.5-.5zm-20 2 .5.5L86.5 372l-.5-.5zm-24 5 .5.5-3.5 3.5-.5-.5zm39 0 .5.5-2.5 2.5-.5-.5z" opacity=".996"/><path fill="#7e7b58" stroke="#7e7b58" d="m605.5 34 .5.5-2.5 2.5-.5-.5zm-19 5 .5.5-2.5 2.5-.5-.5zm5 8 .5.5-2.5 2.5-.5-.5z" opacity=".737"/><path fill="#50faf1" stroke="#50faf1" d="M485.5 87h4l7 3 13 10 2.5.5-.5 1.5-47 35-67 45-3 1-5 4-30 18-5 2-5 4-12 6-2 2q-10.5 3.5-18 10h-2l-8 5-10 5h-2l-8 5h-2l-2 2h-2l-13 7h-2l-7 4h-2l-7 4h-2l-5 3-7 2-5 3h-2l-23 10-8 2-3 2-22 7-3 2h-3l-3 2h-3l-25 9h-3l-11 4h-3l-14 5-11 2-4 2h-4l-8 3-8 1-4 2h-5l-9 3h-5l-5 2h-5l-1.5 1.5.5 5.5 10-1 1-1h5l1-1h4l5-2 8-1 1-1h4l1-1h3l1-1h3l1-1h3l1-1 15-3 4-2h3l18-6h3l10-4h3l39-13 3-2 11-3 8-4 8-2 15-7 5-1 17-8 7-2 12-6h2l11-6h2l5-3h2l2-2h2l7-4h2l2-2 4-1 2-2 4-1 12-6 2-2 6-2 2-2h2l2-2 26-14 20-13 5-2 16-11 8-4 3-3 3-1 49.5-33.5.5-1.5 10-6 20-16 4-2 22-18q3.3.8 4-1l4.5 5.5v7l-5 9q.8 3.2-1 4 2 1 1 5l3.5 3.5 1.5.5-.5 1.5-6 1-1 1h-6l-2.5-1.5q.6-4.1-1.5-5.5l-5.5 7.5v2l-2 3v5l4 5-1.5 1.5h-8l-5-3h-2L487 171.5 468.5 192l-61 43q-1.5-1 1-2l15.5-13.5 1.5-2.5 1.5-.5 23-27 7-11q1.2-6.8 5-11l-1.5-.5-9 11-1.5.5-17 21-22.5 24.5-4.5 3.5-.5 1.5-17 15-35 24-3 1-8 6-8 4-15 10-12 6-5 4h-2l-2 2-11 5-2 2h-2l-7 4h-2l-23 10-19 6-20 14-10 5-2 2h-2l-13 7h-2l-19 9-5 1-3 2-21 7h-3l-7 3h-3l-3 2h-4l-5 2q-1.5-1 1-2l36-24 18.5-15.5 11-12 3-5-.5-.5-6 6-1.5.5-.5 1.5-20 17-28 19-19 9h-9l-1-1h-8l-1-1h-5l-1-1h-5l-1-1-7-1-9-4h-2l-8.5-6.5-7-13v-3l-2-2-3-9v-5l9-12L56.5 303l3.5-2.5.5-1.5 24-22 26-20 24-13h3l3-2h3l4-2 38-23 20-10h2l15-7 8-2 3-2h3l3-2 6-2h3l19-10h2l7-4 13-4 3-2 21-7h3l3-2h3l4-2h3l12-4h4l4-2h4l4.5-1.5-1.5-1.5h-12l-1-1h-17q-1-2-5-1l-8.5-4.5.5-1.5 8-1 1-1h4l1-1h4l5-2h4l1-1 15-3 25-9h3l4-2h4l4-2 8-1 1-1 12-1 1-1h29l1 1h7l1 1 11 1 9 4q2.8-1.3.5-2.5-2.3-6.2-7.5-9.5-10.1-8.4-23.5-13.5l1.5-1.5q3.3.7 4-1h6l1-1h9l3 1 9 1 10 6 .5-7.5-5-9zM347 160l-1 2 19 9 5 6 7 11h1l-3-7-5-7-6-6zm-21 13-1 2 2 1h3l1 1h3l6 2 10 5 11 13q2 3 3 0l-4-5q-5-7-13-12zm-26 10-1 2 3 1h3l1 1h3l6 2 9 5q8 7 15 17h1l-8-11-9-9-10-5h-3l-1-1h-3zm-24 15q-2 1 1 2h3l1 1h3l6 2 12 7 12 15h1l-1-3-4-5-10-11-5-3-11-4zm107 7-1 12-1 1v7q-2 1-1 5l-8 20h2l3-6v-2l2-3 3-9q-1-5 1-5v-8l1-1v-10zm-2 1-1 7h1zm5 0-1 7h1zm-133 4-1 2 16 4 9 5 11 13 3 4h1l-1-3-9-11-6-6-8-4h-2l-3-2zm111 5-1 8-1 1v9q-2 1-1 6l-1 1v3l-4 12q-3 3-4 9h2l5-12 3-9v-3l1-1q-1-5 1-6v-9l1-1v-7zm3 1-1 4h1zm13 2-1 4h1zm-161 3-2 2 3 1 7 1 4 2h3l9 3 11 6q7 5 11 14h1l-1-3-6-8-6-6-10-5zm142 5-1 5h1zm5 0-1 6h1zm-28 3-2 2v12l-1 1-1 11-2 4-1 6-5 11 1 2 2-3v-2l6-14 1-8 1-1v-6l1-1zm-152 5-1 2 25 6 9 5q8 6 13 16h1l-6-10q-7-9-17-13l-9-3h-3l-1-1h-3l-1-1zm174 0-1 3h1zm-25 1-1 5h1zm5 0-1 6h1zm-6 10-1 3h1zm5 1-1 3h1zm-183 1v1h6zm149 0-1 12-1 1v6q-2 0-1 4l-3 9-11 22h2l11-22 3-9v-3l1-1v-6l1-1v-10zm-139 1v1h2zm-16 1-1 2h14l1 1h5l1 1h3l6 2 11 6 13 10h2l-18-14-8-4-6-2h-3l-1-1h-5l-1-1zm153 0-1 5h1zm5 0-1 5h1zm-156 3v1h8zm131 6-5 21-7 14-13 18 1 1 13-17 6-11v-2l3-6 1-7 1-1 1-9zm-157 1v1h5zm160 0-1 3h1zm-148 1v1h3zm-13 1-1 2h9l1 1h8l1 1 10 2 8 4 16 11q1 4 3 1l-15-12-12-6-6-2h-3l-1-1zm177 0-1 3h1zm5 1-1 3h1zm-181 2v1h3zm11 1v1h2zm120 5-5 21-6 12-14 20h2q10-12 18-27v-2l3-6 1-7 1-1 1-9zm3 1-1 3h1zm-150 37v1h2zm26 6-5 21-9 17-11 15 1 1 6-7 10-15 4-8 2-6v-3l1-1v-3l1-1 1-9zm-21 7-2 3-1 11-4 11-7 10-16 17h2q13-11 22-25l4-9 1-8 1-1v-6l1-2zm-66 2v1h2zm50 1-6 17-7 12q-7 8-17 15l1 1 10-7q6-6 11-13l6-13 3-11zm13 0-1 4h1zm5 2-1 3h1zm-44 5-2 2-2 11-5 8-8 7 1 1 2-1 9-9 5-13zm-23 2v1h2zm25 0-1 3h1zm-31 1v1h2zm25 3-1 3h1z" opacity=".992"/><path fill="#a09e78" stroke="#a09e78" d="m599.5 27 .5.5-2.5 2.5-.5-.5z" opacity=".584"/><path fill="#adfdf9" stroke="#adfdf9" d="m484.5 86 3.5.5-3.5 1.5zm6 1q3-.5 3.5 1.5l-1.5-.5q-3 .5-2-1Zm10 5 2.5 2.5-.5.5-2.5-2.5zm-46 4 3.5.5-3.5.5zm16 0 2.5.5-2.5.5zm-22 1 2.5.5-2.5.5zm-3 1 1.5.5q-1 2.5-2 1zm63 0 2.5 1.5-1.5.5q-2.5-1-1-2Zm-22 3 2 2 1.5-.5-.5 1.5-3.5-2.5zm52 4 .5 5.5h-1zm-69 8 5.5 5.5-.5.5-5.5-5.5zm66 3 .5 1.5q-1 2.5-2 1zm-121 2 2.5.5-2.5.5zm36 0 3.5.5-3.5.5zm-42 1 2.5.5-2.5.5zm48 0 3.5.5-3.5.5zm-66 4 2.5.5-2.5.5zm133 13 2.5 1.5-1.5.5q-2.5-1-1-2Zm-185 2 2.5.5-2.5.5zm-14 3 2.5.5-2.5.5zm-10 2 2.5.5-2.5.5zm25 8 4.5.5-4.5.5zm11 1 3.5.5-3.5.5zm1 2 2.5.5-2.5.5zm-8 2 2.5.5-2.5.5zm149 8 .5.5-2.5 2.5-.5-.5zm-3 4 .5.5-2.5 2.5-.5-.5zm-4 5 .5.5-3.5 3.5-.5-.5zm-31 1 .5.5-2.5 2.5-.5-.5zm26 5 .5.5-11.5 11.5-.5-.5zm-33 3 .5.5-2.5 2.5-.5-.5zm-5 6 .5.5-4.5 4.5-.5-.5zm7 1 .5.5-2.5 2.5-.5-.5zm-13 6 .5.5-3.5 3.5-.5-.5zm7 2 .5.5-4.5 4.5-.5-.5zm10 5 .5.5-2.5 2.5-.5-.5zm-25 2 .5.5-3.5 3.5-.5-.5zm9 0 .5.5-3.5 3.5-.5-.5zm-229 1 1.5.5-2.5 1.5q-1.5-1 1-2Zm238 2 .5.5-2.5 2.5-3 2-.5-.5 2.5-2.5zm-22 2 .5.5-9.5 9.5-.5-.5zm-247 12q1.5 1-1 2l-2 1q-1.5-1 1-2zm232 3 .5.5-3.5 3.5-.5-.5zm-239 1q1.5 1-1 2l-2 1q-1.5-1 1-2zm234 4 .5.5-9.5 9.5-.5-.5zm8 0 .5.5-2 2 1 1-1.5 1.5-1.5-1.5zm-252 2q1.5 1-1 2l-2 1q-1.5-1 1-2zm232 9 .5.5-2.5 2.5-.5-.5zm-8 6 .5.5-2.5 2.5-3 2-.5-.5 2.5-2.5zm-283 17 .5.5-2.5 2.5-.5-.5zm-8 6 .5.5-3.5 3.5-.5-.5zm-6 5 .5.5-2.5 2.5-.5-.5zm-8 7 .5.5-3.5 3.5-.5-.5zm-8 7 .5.5L61.5 299l-.5-.5zm240 5q1.5 1-1 2l-1.5-.5zm-252 7 .5.5-2.5 2.5-.5-.5zm234 3q1.5 1-1 2l-1.5-.5zm-239 2 .5.5-9.5 9.5-.5-.5zm235 0q1.5 1-1 2l-2 1q-1.5-1 1-2zm-6 3q1.5 1-1 2l-1.5-.5zm-240 9 .5.5-3.5 3.5-.5-.5zm-4 5 .5.5-2.5 2.5-.5-.5zm136 5 1.5 1.5-5.5 5.5-.5-.5 5-5zm53 3 .5.5-2.5 2.5-.5-.5zm-58 1 .5.5-4.5 4.5-.5-.5zm54 2 .5.5-2.5 2.5-.5-.5zm-62 5 .5.5-4.5 4.5-.5-.5zm55 0 .5.5-2.5 2.5-2 1q-1.5-1 1-2zm-6 4q1.5 1-1 2l-2 1q-1.5-1 1-2zm-173 1 1.5 2.5h-1zm117 1 .5.5-2.5 2.5-.5-.5zm4 1 .5.5-3.5 3.5-.5-.5zm-16 8 .5.5-2.5 2.5-.5-.5zm6 0 .5.5-2.5 2.5-.5-.5zm-13 9 .5.5-2.5 2.5-.5-.5zm-86 1 3.5 2.5-1.5.5-2.5-2.5zm27 10 2.5.5-2.5.5zm24 3 2.5.5-2.5.5zm21 2 2.5.5-2.5.5zm-12 2-.5 1.5-.5 1.5-1-1-1.5.5zm5 0 2.5.5-2.5.5z" opacity=".333"/><path fill="#d5d3ab" stroke="#d5d3ab" d="m582.5 42 .5.5-2.5 2.5-.5-.5z" opacity=".361"/><path fill="#4deee3" stroke="#4deee3" d="M520.5 107q2.5 1 1 2l-1-1-1.5.5zm-68 36 1 1 1.5-.5-1.5 1.5q-2.5-1-1-2Zm-3 2 1 1 1.5-.5-1.5 1.5q-2.5-1-1-2Zm11 6q2.5 1 1 2l-1-1-1.5.5zm-93 20 2 2q1.3-2.2 2.5.5l-1.5-.5-1 1-2.5-2.5zm1 6 1 1 1.5-.5-1.5 1.5q-2.5-1-1-2Zm-55 8 1.5.5-2.5 1.5q-1.5-1 1-2Zm47 5q2.5 1 1 2l-1-1-1.5.5zm-34 4q1 2 2 0l3.5 3.5-1 1 .5 1.5-2.5-2.5q2.3-1.2-.5-2.5l-1 1q-2.5-1-1-2Zm10 9q2.5 1 1 2l-1-1-1.5.5zm45 1 2.5 1.5-1.5.5q-2.5-1-1-2Zm-1 2 .5 6.5h-1zm5 0 .5 6.5h-1zm-85 3-.5 1.5 4 4-.5.5-4.5-4.5zm-37 2 1.5.5-2.5 1.5q-1.5-1 1-2Zm103 5 .5 3.5h-1zm13 2 .5 3.5h-1zm-99 2 4.5 4.5-.5.5-2-2q-1.2 2.3-2.5-.5l1-1zm84 0 .5 2.5h-1zm-4 6 .5 4.5h-1zm5 0 .5 5.5h-1zm-84 2q1 2 2 0l1.5 1.5-1.5-.5-1 1q-2.5-1-1-2Zm55 0q2.8 1.3.5 2.5l-.5 1.5-.5-1.5 1-1zm-48 1q2.5 1 1 2l-1-1-1.5.5zm38 4 2.5 1.5-1.5.5q-2.5-1-1-2Zm33 1 .5 2.5h-1zm-25 1 .5 4.5h-1zm5 0 .5 5.5h-1zm-48 4 1.5.5-2.5 1.5q-1.5-1 1-2Zm12 5 2.5 1.5-1.5-.5q-2.4-.1-1-1Zm30 1 .5 2.5h-1zm-56 1 2.5 1.5-1.5-.5q-2.4-.1-1-1Zm61 0 .5 2.5h-1zm-183 1 6.5.5-6.5.5zm10 1 2.5.5-2.5.5zm137 1 .5 4.5h-1zm5 0 .5 4.5h-1zm-80 2q2.5 1 1 2l-1-1-1.5.5zm-76 1 8.5.5-8.5.5zm154 2 .5 4.5h-1zm29 4 1.5 2.5h-1zm-209 1 5.5.5-5.5.5zm160 0 .5 2.5h-1zm-148 1 3.5.5-3.5.5zm164 1 .5 2.5h-1zm5 1 .5 2.5h-1zm-67 1 2.5 1.5-1.5-.5q-2.4-.1-1-1Zm-114 1 3.5.5-3.5.5zm11 1 2.5.5-2.5.5zm29 5q2.5 1 1 2l-1-1-1.5.5zm94 1 .5 2.5h-1zm41 7 1.5 2.5h-1zm-122 7 2.5 1.5-1.5.5q-2.5-1-1-2Zm19 4 2.5 1.5-1.5.5q-2.5-1-1-2Zm-47 7 2.5 1.5-1.5-.5q-2.4-.1-1-1Zm113 4q2.5 1 1 2l-1-1-1.5.5zm1 4 1 1 1.5-.5-1.5 1.5q-2.5-1-1-2Zm-155 4 2.5.5-2.5.5zm130 1q2.5 1 1 2l-1-1-1.5.5zm-191 14 2.5.5-2.5.5zm63 1 .5 3.5h-1zm5 2 .5 2.5h-1zm-22 4 1.5 2.5q-1 1.5-2-1zm-45 3 2.5.5-2.5.5zm25 0 .5 2.5h-1zm-31 1 2.5.5-2.5.5zm25 3 .5 2.5h-1zm-5 12q2.5 1 1 2l-1-1-2 2-.5-.5zm40 0q2.5 1 1 2l-1-1-1.5.5zm-44 4 1 1 1.5-.5-1.5 1.5q-2.5-1-1-2Zm41 0q2.5 1 1 2l-1-1-1.5.5zm0 5-.5 1.5 1 1-1.5 1.5.5-1.5-1-1zm-27 8 1.5 1.5-2.5 2.5-.5-.5 2-2z" opacity=".996"/><path fill="#43402d" stroke="#43402d" d="m634.5 5 .5.5-7.5 7.5-.5-.5zm-28 16 .5.5-4.5 4.5-.5-.5zm10 2 .5.5-6.5 6.5-.5-.5zm-23 10 .5.5-3.5 3.5-.5-.5zm3 9 .5.5-2.5 2.5-.5-.5zm-23 9 .5.5-2.5 2.5-.5-.5zm-4 15 .5.5-2.5 2.5-.5-.5zm-206 153 .5 3.5h-1zm-27 21 .5 2.5h-1zm38 5 .5 1.5q-1 2.5-2 1zm-39 3 .5 2.5h-1z" opacity=".937"/><path fill="#858351" stroke="#858351" d="m617.5 25 .5.5-3.5 3.5-.5-.5zm-34 14 .5.5-2.5 2.5-.5-.5zm-13 29 .5.5-3.5 3.5-.5-.5zm-25 21 .5.5-2.5 2.5-.5-.5z" opacity=".012"/><path fill="#c3bf8f" stroke="#c3bf8f" d="m619.5 21 .5.5-2.5 2.5-.5-.5z" opacity=".408"/><path fill="#f3fefb" stroke="#f3fefb" d="m612.5 14 .5.5-2.5 2.5-.5-.5zm-14 11v3l-1-1-1.5.5zm-2 4 .5.5-4.5 4.5-.5-.5zm14 1 .5.5-6.5 6.5-.5-.5zm-25 7 1.5 1.5-3.5 3.5-.5-.5 3-3zm9 8 .5.5-4.5 4.5-.5-.5zm-18 2 .5.5-2.5 2.5-.5-.5zm-9 6 1 1 1.5-.5-3.5 3.5-.5-.5 2-2zm17 1 1.5.5-3.5 2.5-.5-.5zm-23 4-.5 1.5 1 1-2.5 2.5-.5-.5 2-2-1-1zm19 0 1 1 1.5-.5-2.5 2.5-.5-.5 1-1zm-5 4 .5.5-3 3q2.3 1.3-.5 2.5l.5-1.5-1-1zm-23 4 1 1 1.5-.5-2.5 2.5-.5-.5 1-1zm16 2 .5.5-3 3q2.3 1.3-.5 2.5l.5-1.5-1-1zm-27 7 1 1 1.5-.5-2.5 2.5-.5-.5 1-1zm-3 2-.5 1.5 1 1-1.5 1.5.5-1.5-1-1zm-7 6 1 1 1.5-.5-2.5 2.5-.5-.5 1-1zm17 2 .5.5-2 2 1 1-1.5 1.5.5-1.5-1-1zm-5 4 .5.5-2.5 2.5-.5-.5zm-81 4 3.5.5-3.5.5zm-10 1 2.5.5-2.5.5zm10 1 3.5.5-3.5.5zm-18 3 .5 1.5-1.5.5q-1.5-1 1-2Zm4 3v2l1.5.5-1.5.5q-3-1.5 0-3Zm91 1-.5 1.5-.5 1.5-.5-1.5zm-1 10q2.5 1 1 2l-1.5-.5 1 2h-3zm-119 3 2.5.5-2.5.5zm25 0 2.5.5-2.5.5zm7 1 2.5.5-2.5.5zm-32 1 2.5.5-2.5.5zm25 0 2.5.5-2.5.5zm89 8 1.5 3.5-1.5.5zm-16 9 1.5 2.5-1.5 2.5-.5-1.5 1-2zm-206 9 2.5.5-3 1 .5 1.5q1.3-2.2 2.5.5l-1.5 1.5-2.5-2.5zm202 2 2.5 1.5-2.5.5zm-187 6 8.5.5-8.5.5zm190 0 1.5 2.5h-1zm-26 16 1 1 1.5-.5-2.5 2.5-.5-.5 1-1zm-33 4 1.5 2.5-1.5 2.5-1-1-1.5.5q2-1 0-2zm.5 1q-3 1-1 2h1zm29.5-1q2.5 1 1 2l-1-1-1.5.5zm-36 7 1 1 1.5-.5.5 1.5 1.5-.5-3 2 .5 1.5-1.5-1.5q2.3-1.2-.5-2.5l-1.5.5zm-6 7 .5.5-2.5 2.5-.5-.5zm30 0 1 1 1.5-.5-6.5 6.5-.5-.5 5-5zm-31 7 1 1 1.5-.5-1.5 1.5q-2.5-1-1-2Zm-6 1q2.5 1 1 2l-1-1-1.5.5zm27 1-.5 1.5 1 1-1.5 1.5.5-1.5-1-1zm-24 2 1 1 1.5-.5-1.5 1.5-1-1-1.5.5zm17 3q2.5 1 1 2l-1-1-1.5.5zm-26 1 .5.5-3.5 3.5-.5-.5zm6 0-.5 1.5 1 1-1.5 1.5-1-1-2 2-.5-.5zm-237 6 2.5 1.5-1.5-.5q-2.4-.1-1-1Zm225 1 1 1 1.5-.5-1.5 1.5q-2.5-1-1-2Zm-233 3 2.5 1.5-1.5-.5q-2.4-.1-1-1Zm-2 1v3l-2-1v2q-3-1.5 0-3zm236 1 1 1 1.5-.5-3.5 3.5-.5-.5q2-1 0-2zm-249 6 2.5 1.5-1.5-.5q-2.4-.1-1-1Zm237 1 1 1 1.5-.5-2.5 2.5q-1.2-2.2-2.5.5l.5 1.5q-1.2-2.2-2.5.5l.5 1.5-1.5-1.5zm7 0 .5.5-5.5 5.5q-2.5-1-1-2l1 1zm-10 8 1 1 1.5-.5-1.5 1.5q-2.5-1-1-2Zm-6 1 2.5 2.5-.5.5q-1.2-2.2-2.5.5l.5 1.5-1-1-3 3-.5-.5 4-4q-2.2-1.2.5-2.5Zm-1 6 1.5.5-.5 1.5-1-1-1.5.5zm-30 19q2.5 1 1 2l-1-1-1.5.5zm-272 6-.5 1.5 1 1-1.5 1.5.5-1.5-1-1zm-19 15-.5 1.5 1 1-4.5 4.5-.5-.5 2-2-.5-1.5q1.3 2.3 2.5-.5-2.3-1.2.5-2.5Zm-11 10 1 1 1.5-.5-1.5 1.5-1-1-1.5.5zm-16 15-.5 1.5 1 1-3.5 3.5-.5-.5 3-3q-2.2-1.2.5-2.5Zm120 26 .5 1.5q-1 2.5-2 1zm54 4 2.5 1.5-1.5.5q-2.5-1-1-2Zm-199 1 .5 2.5h-1zm137 3 1.5 1.5-10.5 10.5q-2.5-1-1-2l1 1 9.5-9.5zm-130 13 1.5 2.5h-3zm113 1q1 2 2 0l1.5 1.5-2.5 2.5-.5-.5q2.3-1.2-.5-2.5l-1.5.5zm49 1q1.5 1-1 2l-1.5-.5zm-161 2 1.5.5-1.5 2.5zm1 4 3.5 2.5-1.5-.5q-3.8-.7-2-2Zm5 6 3.5 3.5-1.5 1.5-1.5-1.5 1-1-2-2zm14 9q1.5 1-1 2l-1.5-.5zm29 6 2.5.5-2.5.5z" opacity=".043"/><path fill="#55fefb" stroke="#55fefb" d="M485.5 84h4l5.5 2.5-1.5.5-4-2h-4zm-3 2 6.5 10.5-1.5.5q-1.1-6.4-5.5-9.5zm22 7 2.5 2.5-.5.5-2.5-2.5zm-49 1 6.5.5-6.5.5zm11 0 6.5.5-6.5.5zm-18 1 2.5.5-3.5 1.5q-1.5-1 1-2Zm27 0 2.5.5-2.5.5zm7 2 2.5 1.5-1.5-.5q-2.4-.1-1-1Zm6 1 1.5 2.5-1.5 1.5-2.5-2.5h2zm-44 2 2.5 2.5-.5.5-2.5-2.5zm93 1 1.5.5 1 2-.5.5-2.5-2.5zm-80 6 4.5 2.5-1.5.5-3.5-2.5zm83 0 .5 2.5h-1zm-76 4 10.5 9.5-.5 1.5-4.5-1.5 3-1-5-4-.5-1.5-3.5-2.5zm-42 4 21.5.5-21.5.5zm-6 1 2.5.5-2.5.5zm31 0 3.5.5-3.5.5zm90 0 .5 1.5-2 2q1 4-1 5l1 3q-.5 3.5 2 4l-.5.5-2.5-2.5-1-7q2-1 0-2l2-2zm-129 1 3.5.5-3.5.5zm15 0 2.5.5-2.5.5zm5 0 7.5.5-7.5.5zm10 0 4.5.5-4.5.5zm18 0 3.5.5-3.5.5zm5 0 2.5 1.5-1.5.5q-2.5-1-1-2Zm-58 1 2.5.5-2.5.5zm62 0 3.5 1.5-2.5.5q-2.5-1-1-2Zm-68 1 3.5.5-3.5.5zm-9 2 4.5.5-4.5.5-1 1q-1.5-1 1-2Zm-6 2q1.5 1-1 2l-1.5-.5zm-22 7 2.5.5-3.5 1.5q-1.5-1 1-2Zm159 3 2.5 3.5-.5.5-2-2-1.5-.5zm-173 1 3.5.5-3.5.5zm-4 1q1.5 1-1 2l-3.5-.5zm-9 2 3.5.5-3.5.5zm201 0 2.5.5-2.5.5zm-205 1 2.5.5-2.5.5zm-5 1 3.5.5-3.5.5zm192 0 .5 1.5-2 4 .5 1.5-1.5-.5zm7 0 4.5.5-4.5.5zm-203 1 2.5.5-2.5.5zm-7 1 3.5.5-3.5.5zm3 8 2.5 1.5-1.5.5q-2.5-1-1-2Zm201 1 1.5 2.5h-1zm-182 1 3.5.5-3.5.5zm-11 1 2.5 1.5-1.5-.5q-2.4-.1-1-1Zm30 0 2.5.5-2.5.5zm147 0q2.5 1 1 2l-1.5.5-.5 1.5-.5-1.5zm-173 1 3.5.5-3.5.5zm6 0h8l1 1 2-1 1 1 1.5-.5q-1 2.5-5.5 1.5l-1-1h-7zm170 1 5.5 2.5-1.5.5-3-1q-2.5-1-1-2Zm-166 1q1.5 1-1 2l-2.5-.5zm161 2 .5.5-2.5 2.5-.5-.5zm-171 1 2.5.5-2.5.5zm-7 2 2.5.5-2.5.5zm-4 1q1.5 1-1 2l-6 1-1 1q-1.5-1 1-2h3zm178 0 1.5.5-5.5 6.5-.5-.5 3-3zm-191 4q1.5 1-1 2l-1.5-.5zm-9 3q1.5 1-1 2l-6 2v-1zm194 2 .5 1.5-1.5.5q-1.5-1 1-2Zm-2 3 .5.5-2 2-.5 1.5-1.5-.5zm-31 2-.5 1.5-1.5 2.5-1-1-1.5.5zm-182 1 2.5.5-2.5.5zm-4 2 1.5.5-6.5 3.5q-1.5-1 1-2zm180 2 1.5.5-.5 1.5 1.5.5-4.5 6.5-.5-1.5 3-5q-1.7-.7-.5-2.5Zm30 1 .5.5-9.5 9.5-.5-.5zm-32 2-.5 1.5-7.5 9.5-1.5-.5zm-195 3 1.5.5-5.5 3.5h-2v-1h2zm-10 4 2.5.5-5.5 1.5v-1zm226 2 1.5.5-4.5 3.5-.5-.5zm-236 1 3.5.5-4.5 1.5q-1.5-1 1-2Zm210 0 1.5.5-1.5 2.5-1.5-.5zm-5 2 .5.5-4.5 4.5-.5-.5zm3 2 .5.5-2.5 2.5-.5-.5zm20 1 .5 1.5-1.5.5q-1.5-1 1-2Zm-29 3 1.5.5-4.5 4.5-.5-.5zm-224 2 1.5.5-4.5 2.5q-1.5-1 1-2zm228 0 .5.5-6.5 6.5-.5-.5zm13 4 .5.5-2.5 2.5-2 1q-1.5-1 1-2zm-24 2 1.5.5q-1 2.5-2 1zm18 2 .5.5-2.5 2.5-.5-.5zm-257 3 1.5.5-2.5 1.5q-1.5-1 1-2Zm235 0 .5.5-3 3-.5 1.5-.5-1.5zm1 3 1.5.5-3 2-.5 1.5-1.5.5-.5 1.5-1.5-.5zm13 0 .5.5-2.5 2.5-6 4q-1.5-1 1-2zm-258 2q1.5 1-1 2l-2 1q-1.5-1 1-2zm239 0 .5.5-2 2-.5 1.5-1.5-.5zm-246 4q1.5 1-1 2l-5 2v-1zm241 1 1.5.5-2 1-.5 1.5-1.5-.5zm4 0 1.5.5-3.5 2.5-.5-.5zm10 0 .5.5-2.5 2.5-.5-.5zm-4 3 .5.5-3.5 3.5-1.5-.5zm-260 1 1.5.5-10.5 6.5q-1.5-1 1-2l3-1zm250 0 .5.5-4.5 4.5-.5-.5zm-6 2 .5.5-4 4-.5 1.5-.5-1.5zm10 1 .5.5-2.5 2.5-.5-.5zm-4 3 .5.5-3.5 3.5-1.5-.5zm-263 2 1.5.5-2.5 1.5q-1.5-1 1-2Zm251 0 .5.5-6.5 6.5-6 4v-1q7.1-3.9 12-10Zm-254 2q1.5 1-1 2l-1.5-.5zm-22 9q1.5 1-1 2l-2.5-.5zm261 1 1.5.5-2.5 1.5q-1.5-1 1-2Zm-267 2 1.5.5-3.5 1.5v-1zm264 0 .5.5-2.5 2.5-.5-.5zm-269 3 1.5.5-9.5 6.5-.5-.5 2.5-2.5zm258 5q1.5 1-1 2l-6 4-.5-.5 2.5-2.5zm-269 3 .5.5-2.5 2.5-.5-.5zm-4 3 .5.5-2.5 2.5-.5-.5zm264 0q1.5 1-1 2l-2 1q-1.5-1 1-2zm-5 3 .5.5-2.5 2.5-2 1q-1.5-1 1-2zm-265 2 .5.5-2.5 2.5-1.5-.5zm256 4q1.5 1-1 2l-5 3q-1.5-1 1-2zm-267 5 .5.5-4.5 4.5-.5-.5zm257 1 .5.5-2.5 2.5-4 2v-1zm-8 5q1.5 1-1 2l-5 3q-1.5-1 1-2zm-258 2 .5.5-8.5 8.5-1.5-.5zm241 8 .5.5-2.5 2.5-1.5-.5zm-253 3-.5 1.5-.5 1.5-.5-1.5zm248 0q1.5 1-1 2l-2 1q-1.5-1 1-2zm-252 4 1.5.5q-1 2.5-2 1zm-2 2 .5 1.5q-1 2.5-2 1zm242 1q1.5 1-1 2l-1.5-.5zm-246 3 1.5.5L40.5 319l.5-1.5.5-1.5 1.5-.5zm234 3q1.5 1-1 2l-1.5-.5zm-9 4 1.5.5-4.5 2.5q-1.5-1 1-2zm-236 6 .5 1.5-2.5 2.5-.5-.5zm218 1 1.5.5-3.5 1.5v-1zm-8 3 1.5.5-3.5 1.5v-1zm-213 1 .5.5-2.5 2.5-.5-.5zm205 2 1.5.5-5.5 2.5q-1.5-1 1-2zm-11 4 .5.5-4.5 4.5-2 1q-1.5-1 1-2zm-195 5 .5 2.5h-1zm132 1 .5.5-3.5 3.5-1.5-.5zm-131 3 2.5 3.5 1 4h-1l-3-6zm123 4 .5.5-3.5 3.5-.5-1.5zm53 0 1.5.5-5.5 3.5-.5-.5 2.5-2.5zm-7 4q1.5 1-1 2l-2 1q-1.5-1 1-2zm-165 1 1.5 2.5q-1 1.5-2-1zm113 0q1.5 1-1 2l-14 10-.5-.5 3.5-3.5zm46 2 1.5.5-7.5 3.5v-1zm-156 5 4.5 6.5-.5.5-2.5-2.5v-2l-2-2zm146 0 1.5.5-2.5 1.5q-1.5-1 1-2Zm-55 6 1.5.5-18.5 12.5v-3l2-1 1.5.5.5-1.5q1.3 2.3 2.5-.5l.5-1.5zm38 1q1.5 1-1 2l-1.5-.5zm-122 2 4.5 2.5-1.5.5-3.5-2.5zm6 3 2.5 1.5-1.5.5q-2.5-1-1-2Zm5 3 3.5.5-3.5.5zm5 1 5.5 1.5-3.5.5-2.5-1.5zm7 2 2.5.5-2.5.5zm4 1q3.3-.7 4 1h8l2.5 1.5-1.5.5-1-1h-8q-.7-1.7-4-1zm38 0 .5.5-2.5 2.5-.5-.5zm-7 1q1.5 1-1 2l-1.5-.5zm28 0 2.5.5-6.5 2.5q-1.5-1 1-2zm-43 1 2.5.5-2.5.5zm8 1 3.5.5-3.5.5zm25 1 1.5.5-3.5 1.5v-1zm-6 2q1.5 1-1 2l-3.5-.5z" opacity=".055"/><path fill="#3fb6ae" stroke="#3fb6ae" d="m353.5 185 1.5 1.5q-2.2 1.3.5 2.5l1-1 2.5 2.5-1.5-.5-1 1-3.5-3.5 1-1zm-17 47 .5 2.5h-1zm1 6 .5 2.5h-1zm-116 9 4.5 4.5-.5.5q-1-2-2 0l-2.5-2.5 1-1zm84 1 .5 5.5h-1zm-155 2 4.5.5-4.5.5zm-23 11 4.5.5-4.5.5zm7 2 2.5.5-2.5.5zm-50 93 .5.5-4.5 4.5-.5-.5zm12 4 1 1 1.5-.5-3.5 3.5q-1.2-2.2-2.5.5 2.3 1.3-.5 2.5-1.2-2.2-2.5.5l1 1-4.5 4.5-1.5-1.5z" opacity=".996"/></svg>