<svg xmlns="http://www.w3.org/2000/svg" viewBox="0 0 598 640"><path stroke="#000" d="m547.5 3 5.5.5-5.5.5zm-9 1 6.5.5-6.5.5zm20 0 2.5.5-2.5.5zm-26 1 4.5.5-4.5.5zm-5 1 3.5.5-4.5 1.5h-4V7q4 1 5-1Zm38 0 8.5 6.5 1 2-.5.5-7-7q-3.8-.7-2-2Zm-47 2 2.5.5-2.5.5zm27 0 4.5.5-4.5.5zm-13 1 5.5.5-5.5.5zm24 0 3.5.5-3.5.5zm-31 1 3.5.5-3.5.5zm-6 1 3.5.5-7.5 1.5v-1q3.3.7 4-1Zm48 1 5.5 6.5q-1 1.5-2-1l-4-5zm-61 4 .5.5-3.5 3.5-.5-.5zm4 2 .5.5-4.5 4.5-.5-.5zm25 0 7.5.5-7.5.5zm10 0q5.3-1.2 6.5 1.5l-.5 1.5-1-2h-4l-10 7-.5-.5 2.5-2.5 6.5-3.5zm-19 1 2.5.5-2.5.5zm47 1 2.5 5.5v7h-1v-7l-2-4zm-45 3 3.5.5q-5 0-7 3l-1.5 2.5.5-1.5 2.5-3.5zm23 0 .5.5-2.5 2.5-80 57-48 37-.5-.5 3.5-3.5 61-46zm-52 1 .5.5-5.5 5.5-.5-.5zm5 1 .5.5-5.5 5.5-.5-.5zm30 1 .5.5-2.5 2.5-61 42-27 20-.5-.5 2.5-2.5L512 41.5l3.5-6.5-.5 1.5-1 3 1.5.5 5-6 2 1zm-42 6 .5.5-9 9L455.5 71l-22 17-.5-.5 2.5-2.5q26.6-18.4 47.5-42.5zm5 1 .5.5-6.5 6.5-.5-.5zm82 2 .5 2.5h-1zm-4 4 .5 7.5h-1zm-87 4 .5.5-9.5 9.5-.5-.5zm86 7 .5 2.5h-1zm-105 12 .5.5L459.5 73l-.5-.5zm106 1 .5 2.5h-1zm-120 12 .5.5-3.5 3.5-.5-.5zm-6 5 .5.5-2.5 2.5-.5-.5zm120 7 .5 2.5h-1zm-127 4 .5.5-2.5 2.5-33 24-23 19-5 3-6 6-46 37-15 14-.5-.5 7.5-7.5 8.5-7.5-6.5-.5-7 3-.5-.5 2.5-2.5q3.3.8 4-1h9l5.5-4.5-6.5-.5-1 1q-6.8-1.3-10 1-2.5-1-1-2l2 1 1-1h7l1-1h7q.8-1.7 4-1l52-43zm-20 3q1.5 1-1 2l-2 1q-1.5-1 1-2zm145 0 .5 2.5h-1zm-140 2q1.5 1-1 2l-11 7q-1.5-1 1-2zm-10 1q1.5 1-1 2l-2 1q-1.5-1 1-2zm-5 3q1.5 1-1 2l-2 1q-1.5-1 1-2zm153 1 .5 2.5-2.5 6.5-.5-2.5zm-158 2q1.5 1-1 2l-2 1q-1.5-1 1-2zm6 2q1.5 1-1 2l-13 8q-1.5-1 1-2zm-11 1q1.5 1-1 2l-2 1q-1.5-1 1-2zm-5 3q1.5 1-1 2l-12 7q-1.5-1 1-2zm164 5 .5 2.5-18.5 55.5-.5-2.5zm-164 1q1.5 1-1 2l-5 3q-1.5-1 1-2zm-15 3q1.5 1-1 2l-2 1q-1.5-1 1-2zm7 2q1.5 1-1 2l-5 3q-1.5-1 1-2zm30 0 .5.5-3.5 3.5-9 7-.5-.5 3.5-3.5zm-48 5q1.5 1-1 2l-9 6-.5-.5 2.5-2.5zm10 0q1.5 1-1 2l-14 9q-1.5-1 1-2zm24 6 .5.5-3.5 3.5-.5-.5zm-5 4 .5.5-3.5 3.5-.5-.5zm-36 1q1.5 1-1 2l-6 4-.5-.5 2.5-2.5zm-11 1 .5.5-2.5 2.5-6 4-.5-.5 2.5-2.5zm42 2 .5.5-3.5 3.5-.5-.5zm-5 4 .5.5-3.5 3.5-.5-.5zm-47 1 .5.5-2.5 2.5-3 2-.5-.5 2.5-2.5zm3 4 .5.5-2.5 2.5-25 17-.5-.5 2.5-2.5zm38 0 .5.5-3.5 3.5-.5-.5zm-48 1 .5.5-2.5 2.5-3 2-.5-.5 2.5-2.5zm43 3 .5.5-4.5 4.5-5 4-.5-.5 4.5-4.5zm-53 4 .5.5-3.5 3.5-6 4-.5-.5 2.5-2.5zm-21 5 2.5 2.5-.5.5-2.5-2.5zm63 0 .5.5-5.5 5.5-14 12-.5-.5 8.5-8.5zm-53 3 .5.5-2.5 2.5-.5-.5zm-10 2 1.5.5q-1 2.5-2 1zm3 1 1.5 2.5-3 2-.5 1.5-1.5-2.5 1.5.5 2.5-2.5zm6 3 .5 1.5-2 1-.5 1.5-2.5 1.5.5 1.5 2-2 .5.5q-2.5 5-5 0zm-10 4 .5 1.5-45 52-11.5 11.5-.5-.5 9-9z" opacity=".965"/><path stroke="#000" d="M307.5 178q3 .5 2.5 4.5h-1q.5-3-1.5-3.5l-4 4-.5-.5zm38 3 .5.5-4.5 4.5-.5-.5zm-46 6 .5.5-3.5 3.5-.5-.5zm38 1 .5.5-5.5 5.5-.5-.5zm-45 7 .5.5-2.5 2.5-.5-.5zm17 1 1.5 1.5-5.5 5.5-.5-.5 4-4zm19 0 .5.5-6.5 6.5-.5-.5zm-43 7 .5.5-2.5 2.5-.5-.5zm34 1 .5.5-12.5 12.5-40.5 39.5-63 70-24 28-2 4 8 9 3 6 1 3v15l-1 1-1 6-4 8-10.5 11.5-10 4h-8q-1.3 2.2-6 1l-1-1h-11q-1-2-5-1l-2.5 2.5-18 30-6 12-2 2-40 80v2l-5 10-6.5 7.5-4 1v-1h2l5.5-5.5 7-13 1-6 28-55 2-2 5-11 2-2 16-30 15-23-6.5-3.5-8-8L52 517.5l-9 12L31.5 549l-.5-1.5 7-13 14-19 15-25 2-5 2-2 2-5 5-7 2-5 17-27 3-7 17-26-1.5-2.5-9 10-7 5-7 1-1-1-6-1-6.5-5.5-2-4v-5q3.3-5.7 12.5-5.5l8 3 7 6 7.5-8.5v-2l-2-5-1-12 1-1 1-9 4-8 9.5-10.5 10-5h3l1.5-1.5 5.5-8.5-.5 1.5-4 8 1.5-.5 1 1 2.5-1.5 4.5-8.5-.5 1.5-3 7 2.5 1.5h4l1 1 6 1 3.5-5.5 4.5-15.5.5 2.5-4 12 .5.5 3.5-3.5.5-4.5 1 3 17.5-18.5-2-1 3.5-.5 5-4 .5.5-32 32 1.5 2.5 13 9 72.5-82.5 59.5-60.5zM138 347l-9 4-5 4-9 11-4 11v9l1 1v6l2 2 7-11v-8l3-7 7-6 7-3h10l5 3 6 7 3 8v10l-2 4-5 5-10 5h-8l-13-9-7 9v2l2 3 8 7 12 4h11l3-1 6-3 6-5 7-8 4-12v-7l-1-1-1-9-6-12-7-7-10-5q-5 1-5-1zm28 5-1 1 3 2q6 3 10 9l-4-4-3 1 3 5q2 1 0 2l3 6q-1 4 1 6l-1 13-2 6-9 13q-2 3-7 4l-4 4h-4v1h8l5-2 2 1 8-4 9-10 3-6 2-6v-3l1-1v-12l-4-9-3-4q-6-9-16-13Zm-26 10-10 4-6 7-2 6 1 2 8-6 11 1-2 11-1-2-2-2-6 2q-4 2-5 7l7 6 6 2h6l3-1 8-5 4-7v-8l-2-5v-3q-4-5-10-8l-3-1zm-7 14-5 2-6 6-11 18-7 7v4h2l7-7 11-15 8-8 3-1 4 1 1-1 1-5zm-49 24-3 2-1 3 15 10 5 1q4-1 2-8-4-9-18-8Z" opacity=".965"/><path stroke="#000" d="m300.5 206 .5.5-14.5 14.5-92 91q-2.5-1-1-2h2l13.5-13.5 60.5-61.5zm-22 5 .5.5-2.5 2.5-.5-.5zm246 6 .5 2.5-2.5 6.5-.5-2.5zm-252 1 .5.5-3.5 3.5-.5-.5zm-5 6 .5.5-3.5 3.5-.5-.5zm-5 6 .5.5-3.5 3.5-.5-.5zm258 0 .5 2.5-2.5 6.5-.5-2.5zm-262 5 .5.5-4 4q-9.4 14.6-21.5 26.5l.5-1.5zm259 5 .5 2.5-1.5 3.5-.5-2.5zm-272 2 .5.5-9 9-26.5 27.5-8 6-.5-.5 2.5-2.5 9-7 22.5-22.5zm270 5 .5 2.5-1.5 3.5-.5-2.5zm-2 7 .5 2.5-2.5 2.5-.5-.5q2.4-1.1 2.5-4.5Zm3 3 .5 2.5h-1zm-287 11 .5.5-5.5 5.5-16 12-.5-.5 2.5-2.5zm277 0 .5.5-2.5 2.5-.5-.5zm-300 18 .5.5-2.5 2.5-.5-.5zm303 1 1.5.5-1.5 2.5zm-1 4 .5 4.5h-1zm-321 3q1.5 1-1 2l-2 1q-1.5-1 1-2zm-5 3q1.5 1-1 2l-4 2q-1.5-1 1-2zm325 1 .5 4.5h-1zm-332 3q1.5 1-1 2l-10.5 8.5-.5 1.5q-2.5-1-1-2l2.5-1.5.5-1.5 1.5-.5-1-2 1.5.5 3-1zm328 0 .5 3.5h-1zm-322 2q1.5 1-1 2-6.8 2.7-10.5 8.5l.5 1.5-1-1-2.5 2.5-.5 1.5-2.5-2.5.5-.5 2 1 4-5zm325 2 .5 7.5h-1zm-4 5 .5 6.5h-1zm-311 1q1.5 1-1 2l-1.5-.5zm-31 2 1.5 1.5-6.5 6.5-.5-.5 4-4zm24 1 1.5.5-3.5 1.5v-1zm-5 2 1.5.5-5.5 2.5q-2.5-1-1-2 1 2 2 0zm326 1 .5 22.5h-1zm-342 1 2.5 1.5-1.5-.5-9 9-.5-.5zm18 0 2.5.5-2.5.5zm-4 2 .5.5-6 6-1.5 3.5-.5-1.5q1.7-4.8 5.5-7.5zm-23 2 .5.5-2.5 2.5-.5-.5zm347 3 .5 10.5h-1zm1 15 .5 9.5h-1zm4 6 .5 4.5h-1zm-3 5 .5 5.5h-1zm4 3 .5 3.5h-1zm-3 5 .5 3.5h-1zm4 0 1.5 8.5h-1q.8-3.2-1-4zm-3 5 .5 2.5h-1zm1 5 .5 2.5h-1zm4 0 .5 2.5h-1zm-3 4 .5 2.5h-1zm2 7 2.5 6.5 1 7h-1l-1-7-2-4zm6 6 1.5 3.5v7l2 2-1.5-.5-1.5-.5v-8q-1.9-.9-.5-3.5Zm3 3 2.5 1.5q.8 4.8-1.5 6.5l-.5-1.5q2-1 1-5l-2-1zm4 8 .5 2.5-2 2-.5 5.5-.5-5.5q2.4-1.1 2.5-4.5Zm-9 1q1.3 3.3 5.5 3.5l-2.5.5-3.5-3.5zm-337 2 1 1 1.5-.5-1.5 1.5q-2.5-1-1-2Zm-2 3 1 1 1.5-.5-1.5 1.5q-2.5-1-1-2Zm6 2 .5.5-2.5 2.5-.5-.5zm-4 2 .5.5-6.5 6.5-.5-.5zm1 2 .5.5-4.5 4.5-.5-.5zm-148 144 .5 6.5 5.5 6.5 5 2 6.5.5-6.5.5-5-2-5.5-4.5-1-2z" opacity=".965"/><path fill="#345909" stroke="#345909" d="m576.5 31 .5 7.5h-1zm-103 22 .5.5-8.5 8.5-.5-.5zm1 4 .5.5-4.5 4.5-.5-.5zm-161 118 .5.5-2.5 2.5-.5-.5zm204 88 .5 2.5h-1zm-10 4 1.5 2.5q-1 1.5-2-1zm-5 53 .5 3.5h-1zm-331 40 3.5 2.5-.5 1.5-2.5-1.5zm6 2 2 2q1.3-2.2 2.5.5l-1.5-.5-1.5 1.5 1 2h-1l-.5-1.5-1 2-.5-1.5 2-2-2-2zm8 18 .5 7.5h-1zm2 0 .5 6.5h-1zm-12 4 .5 2.5h-1zm7 8q1 2 2 0l1.5 1.5-1.5-.5-1 1q-2.5-1-1-2Zm335 12 .5 2.5h-1zm-345 3 1.5.5-4 3-.5 1.5-3.5-1.5q5.1.1 6.5-3.5Zm-12 8 1 1 1.5-.5-1 1 .5 1.5-2-1v2q-3 .5-3.5-1.5l1.5-1.5 1.5.5z" opacity=".992"/><path fill="#345909" stroke="#345909" d="M156.5 419q2.5 1 1 2l-2.5-.5z" opacity=".992"/><path fill="#505078" stroke="#505078" d="m511.5 6 .5 2.5h-1zm3 4 .5 2.5q-1 2.5-2 1zm21 9 3.5.5-3.5.5zm-227 157 2.5 2.5-.5.5-1-1-1.5.5 1-1zm16 3 2.5.5-2.5.5zm-152 135-.5 1.5-.5 1.5-.5-1.5zm-9 2 2.5 2.5-.5.5-2.5-2.5zm-23 31 2.5.5-2.5.5zm-24 17 1 1 1.5-.5q-2.2 1.3.5 2.5l2 1q1-2 2 0l3-3 .5.5-3.5 3.5-1.5-.5 1 2h-2l1 2h-2l1 6q-2.3 1.3-1 6l-6.5 10.5-.5-4.5-1-1v-16l2-1-1-2h2l-1-2h2l-1-2h2z"/><path fill="#505078" stroke="#505078" d="m125.5 371 1 1 1.5-.5.5 1.5 3.5 1.5-1.5.5-2-1v2q-1.2-2.2-2.5.5l-2.5 3.5.5-1.5-1-1 .5-1.5 1.5-.5-1-2h2zm16 3 1.5.5-.5 1.5q-2.5-1-1-2Zm21 7 .5 3.5h-1zm-24 3 .5 2.5h-1zm-10 1 .5.5-2.5 2.5-.5-.5zm30 8 .5.5-2.5 2.5-.5-.5zm359 2 1.5 2.5q-1 1.5-2-1zm3 18 .5 3.5h-1z"/><path fill="#01fa20" stroke="#01fa20" d="M511.5 259h2l3.5 2.5q1.1 6.1-1.5 8.5-6 1.5-7.5-1.5l-1-3 1-3z" opacity=".996"/><path fill="#01fa20" stroke="#01fa20" d="m505.5 270 2 2 9.5.5 1 4-2 6-3.5 3.5-5 1-4.5-3.5-1-6q1.7-.7 1-4z" opacity=".996"/><path fill="#7f3200" stroke="#7f3200" d="M547.5 19q3-.5 3.5 1.5l-.5 3.5-75 53-83 64-33 27-10 10-37 32-41.5 40.5q-48.5 52-94.5 106.5L163 346.5l6-8L275.5 231l49-45 77-63 62-46 57-39 14-11zm-41 250 2 1 7.5.5-.5 1.5q-8.2 1.3-9-3Zm-420 131q10.4.1 14.5 6.5l1 5h-1l-.5-1.5-14-9zm31 9 1.5.5 3.5 4.5 8.5 5.5-16 26-16 30-2 2-26 52-2 2-5 10-1 6-6 12-5.5 6.5-6 2h-3l-8-3-3.5-3.5-1-7 3-9 10-14 4-8 7-9 7-13 4-5z" opacity=".996"/><path fill="#757a00" stroke="#757a00" d="m548.5 4 7.5.5-7.5.5zm-11 4 2.5.5-2.5.5zm39 31 .5 2.5h-1zm2 3 .5 2.5h-1zm-101 7 .5.5-3.5 3.5-.5-.5zm-13 13 .5.5-3.5 3.5-.5-.5zm-2 6 .5.5-2.5 2.5-.5-.5zm-156 109 .5 1.5q-1 2.5-2 1zm-54 58 .5.5-2.5 2.5-.5-.5zm-11 12 .5.5-2.5 2.5-.5-.5zm-12 13 .5.5-10.5 10.5-.5-.5zm274 47 .5 2.5h-1zm2 3 .5 2.5h-1zm-3 14 .5 6.5h-1zm0 10 .5 2.5h-1zm3 9 .5 2.5h-1zm-2 3 .5 2.5h-1zm-338 6 1.5.5-.5 1.5q-2.5-1-1-2Zm10 8q1 2 2 0l2.5 2.5-.5.5-2-2-1 1q-2.5-1-1-2Zm0 3 3.5 4.5h-1l-.5-1.5-2 1v-1l1.5-.5-2-2zm8 12 3.5.5-3.5.5zm-1 3 6.5 1.5-3.5.5-3-1-2 2-.5-.5zm-2 8q2.5 1 1 2l-1.5-.5zm6 1 2.5 1.5-1.5-.5-2 2-3.5-.5q3.4-.1 4.5-2.5Zm-1 5 2.5 1.5-1.5-.5-2 1q-1.5-1 1-2Zm328 4 2.5 3.5-.5.5-2.5-2.5zm-335 1 2.5.5-2.5.5zm4 1 2.5.5-2.5.5zm-1 2q3-.5 3.5 1.5l-1.5-.5q-3 .5-2-1Zm-8 1 2 2 .5-.5.5-1.5.5 1.5-2 2 2 2-.5.5-1-1-1.5.5 1-3-2-2zm8 1 2.5 1.5-1.5-.5q-2.4-.1-1-1Zm-10 4 .5.5-3.5 3.5-1.5-.5zm-4 5q2.5 1 1 2-1.5-2.5-3 1l-4 2q-1.5-1 1-2zm-8 5 2.5 1.5-.5 2.5-4.5-.5 4-1-2-2zm7 0 1 2 1-2 .5 1.5q-1.5 3-3 0z" opacity=".996"/><path fill="#858585" stroke="#858585" d="m512.5 5 4.5 1.5-3 4v2l.5 1.5q-4-2.5-2-9Zm2 10 1.5.5-.5 1.5q-2.5-1-1-2Zm9 1 1.5.5 1.5 3.5h12l2-1q1 2 2 0l1.5.5-3.5 2.5h-10l-5.5 2.5-6.5 12.5-3 1 .5-1.5 4-9 2-2v-2l-5-4 .5-1.5 3 3h3l.5-3.5zm-221 146q6.4.7 8.5 5.5l-1.5.5q-.5-2.5-4-2l-1.5 2.5 1 2-1.5.5-1.5-3.5zm11 10q2.5 1 1 2l-1.5-.5zm-7 2q2.5 1 1 2l-1.5-.5zm8 1 1.5.5.5 1.5h8l1-1q5.5 1 8-1l.5.5-3.5 3.5-13 1-3.5 2.5-4 12-4.5 6.5-1.5-.5 2-3 2-6v-3l3-7-2-3 1.5.5zm-154 128 4.5 2.5-.5 1.5-2.5.5-1.5 2.5-1.5-.5q-1.2-5.2 1.5-6.5Zm32 9 .5.5-2.5 2.5-3 1q-1.5-1 1-2 3.5.5 4-2Zm-29 3 5.5 5.5-.5.5-5.5-5.5zm9 2 1.5.5.5 1.5 1.5.5-.5 1.5-2.5 1.5-2.5 4.5-1.5-.5q1.7-1.8 1-6zm-4 11 1.5.5q-1 2.5-2 1zm-3 11 1.5.5q-1 2.5-2 1zm-30 9 2 1h8q1 2 5 1l1.5-.5-6 3-1 4 2 1-9 1 .5 1.5-3-1-1 2-1.5-.5-.5 1.5q-6.1 1.9-9.5 6.5l-2.5 6.5-.5-2.5 2-4-4.5-3.5-4 8-.5-1.5q4.2-10.8 12.5-17.5l4-3 1.5.5.5-1.5 1.5.5.5-1.5 2 1z" opacity=".992"/><path fill="#858585" stroke="#858585" d="m137.5 363 1 1 5.5.5-3 1-2.5 7.5-8 1-4 3-.5-.5 2.5-2.5 1.5-.5-2-1-.5-1.5-3 5-.5-1.5q2-5.5 6.5-8.5l2-1 1.5.5.5-1.5 3 1zm-2 13 4.5.5-4.5.5zm-9 3 .5.5-2.5 2.5-.5-.5zm33 2 .5 3.5h-1zm-50 27 .5.5-2.5 2.5-.5-.5zm33 9 4.5.5-4.5.5zm376 0 .5 2.5h-1zm2 0 .5 2.5h-1zm5 11q1.5 1-1 2l-2 1q-1.5-1 1-2z" opacity=".992"/><path fill="#b5b5b5" stroke="#b5b5b5" d="M137.5 348h9l9.5 3.5.5 1.5 1.5-.5.5 1.5 1.5-.5 2.5 3.5 1.5-.5 2.5 4.5 1.5-.5q-2 1 0 2l.5 1.5 1.5-.5-1 2h2l-1 2h2l-1 3h2l-1.5 3.5-1-2-6.5 1.5-.5 3.5-1-3-1.5.5 1-3h-2l1-2-1.5-1.5-1.5.5 1-1-5.5-5.5-2.5-.5-.5-1.5-2-1q-1 2-2 0h-8l-3 1v-1l3-1 8.5-.5-2-1 1-4 1.5-1.5 3.5-.5-4.5-.5-1-1h-8z" opacity=".996"/><path fill="#b5b5b5" stroke="#b5b5b5" d="M138.5 363h7l2 2 1.5-.5.5 1.5 1.5-.5 1.5 2.5 1.5-.5-.5 1.5 1.5.5 2 6-1.5-.5h-6l-5 2-2-4-1.5.5-.5 1.5-1-1-4.5-.5 4-1 2.5-7.5 2.5-.5-5.5-.5-3 1v-1zm34 12 .5 2.5h-1zm346 16 1.5 2.5-2.5.5-.5-1.5zm-407 10 2.5 2.5-.5.5-1-1-1.5.5 1-1zm408 2 .5 8.5-1 1-.5 4.5-.5-9.5 1-2q-2.2-1.2.5-2.5Zm1 17 .5 3.5q-1 2.5-2 1zm1 5 1.5 3.5q-1 2.5-2 1l.5-1.5-1.5-.5z" opacity=".996"/><path fill="#ccc" stroke="#ccc" d="M142.5 382h2l12.5 7.5-3 2 1 2-1.5-.5-1 1-4 2v-1l1.5-.5-6.5-8.5-1.5-.5zm-19 7-.5 1.5-.5 1.5-.5-1.5zm38 4 8.5 4.5-1 2 .5 1.5-2.5 1.5 1 2-1.5-.5-7 7-.5-.5 2-3-6.5-7.5-2 1v-1z" opacity=".996"/><path fill="#c8bec8" stroke="#c8bec8" d="m160.5 354 2.5 2.5-.5.5-2.5-2.5zm4 3 4.5 6.5h-1l-4-6zm-11 5 7.5 7.5-.5.5-7.5-7.5zm-2 4 3.5 2.5-1.5.5-2.5-2.5zm5 6q2.5 1 1 2l-1.5-.5zm13 0 1.5.5.5 1.5q1.3-2.2 2.5.5l-2 1 .5 2.5 2.5 1.5-1 1v9q-1.7.8-1 4l-3.5 6.5.5-1.5-1.5-2.5-7-3-1.5.5 1-1-.5-1.5 1.5.5 2-5v-7l-1-2 1.5-4.5q4 1 5-1Zm-28 1 2.5 1.5-1.5-.5q-2.4-.1-1-1Zm8 2q7.3-1.2 9.5 2.5l-1 1v8l-1.5 2.5-13.5-7.5.5-5.5q1 2 2 0 3.3.7 4-1Zm-21 3 2 1q1.3-2.2 6-1l.5 2.5-2.5 1.5-2-1-10.5 9.5-3 4 .5 1.5-4 2-.5-.5 2-2 1-2-.5-1.5 2.5-1.5 1-3zm-3 16 2.5 2.5-.5.5-2.5-2.5zm-11 5 1.5.5-2.5 2.5-.5-.5zm-4 5 2.5.5-6.5 4.5-.5-.5zm418 9 .5 10.5h-1z"/><path fill="#fafc00" stroke="#fafc00" d="M542.5 5h16q.8 1.8 4 1l4 2 8.5 8.5 3 8q-1.3 4.8 1 6v8l-1 1v9l-1 1v5l-1 1-1 9-1 1v3l-1 1-3 15-2 4v3l-2 4v3l-24 72v3l-8 22v3l-6 16v3l-7 20v3l-2 4-2 10-2.5 4.5-.5-2.5 5-15v-3l3-7v-3l4-10v-3l5-13v-3l8-22v-3l9-25v-3l19-57v-3l1-1v-3l1-1v-3l2-4 1-8 2-5 1-10 1-1v-6l1-1v-16l-3-9-6.5-7.5-9-3h-23l-1 1h-7l-1 1-10 1v-1l3-1h5l1-1h4l1-1h4l1-1h6zm-31 7 1.5 2.5-32 36L468.5 63l-28 24-27 18-8 4-35 23-3 1-18 13-25 16-11 8-5 5-1.5-2.5 31.5-23.5 38-26 60-36q25-18.5 45.5-41.5zm-207 164 1.5 2.5-36 41-28 35-13.5 14.5-29 22-24 15-10 9-1.5-2.5 6.5-6.5 22-13 14-10 28.5-27.5 31-34zm203 111 .5 5.5-1 1q1.3 4.7-1 6v8l-1 1v17l-1 1v9l1 1v11l1 1v7l1 1 1 10 1 1v3l6 18v8l2.5 2.5 2.5-.5.5-2.5 1.5.5q.5 4-2.5 4.5h-2l-3.5-3.5-1-3v-7l-4-10v-3l-3-9-1-12-1-1v-8l-1-1v-31l1-1v-9l1-1v-6l1-1v-4zm-346 29 1.5 1.5-4 4-13 18-2.5 5.5-2.5-.5q7.8-16.7 20.5-28.5Zm9 39 12.5 11.5 3 5q-1 1.5-2-1-3-7.5-9.5-11.5l-4.5-3.5zm6 15 3.5 7.5v13l-4 10-6.5 7.5-.5-.5 4-4 5-13v-15l-2-4zm2 0 2.5 4.5h-1l-2-4zm3 6 1.5 3.5v8h-1v-8q-1.9-.9-.5-3.5Zm0 13 .5 2.5h-1zm6 0 .5 2.5h-1zm-6 7 .5 1.5q-4 8.5-10.5 14.5l-3 2-.5-.5 9-9zm330 0 1.5.5-.5 1.5-1.5-.5zm-326 1 .5 1.5q-4.5 11-13.5 17.5l-.5-.5 8-8z" opacity=".992"/><path fill="#fafc00" stroke="#fafc00" d="m178.5 406 .5.5-2.5 2.5-.5-.5z" opacity=".992"/><path fill="#e9e9e9" stroke="#e9e9e9" d="m132.5 377 4.5.5-4.5.5zm10 1 .5 3.5q-1.7.8-1 4l3 2 5.5 7.5 6.5-5.5.5-1.5.5 1.5-2.5 3.5-4 3-7 3h-8l-10.5-7.5 5.5-6.5q1.8-1.7 6-1l1 3 2.5-1.5zm-15 1 .5.5-4.5 4.5-.5-.5zm31 0 .5 7.5h-1z" opacity=".996"/><path fill="#e9e9e9" stroke="#e9e9e9" d="m138.5 380 .5 1.5-1.5.5q-1.5-1 1-2Zm25 0 .5 5.5h-1zm11 2 .5 6.5h-1zm-45 1 .5.5-5.5 5.5-.5-.5zm33 5 .5 1.5-9 10 7.5 9.5 8.5-8.5 2.5-5.5.5 1.5-2 4-7.5 8.5-8 6-5 2h-13l-1-1-6-1-8.5-5.5-5-7 6.5-8.5 11 8 3 1h6l8-3 9.5-8.5zm11 3 .5 2.5h-1zm-55 5 .5.5-2.5 2.5-.5-.5zm-3 4 .5.5-2.5 2.5-.5-.5zm-4 2 .5.5-4.5 4.5-.5-.5zm0 3 .5.5-6.5 6.5-.5-2.5 1.5.5z" opacity=".996"/><path fill="#9b9b1b" stroke="#9b9b1b" d="m581.5 33 .5 4.5h-1zm-345 230 .5.5-3.5 3.5-.5-.5zm295 152 .5 2.5h-1z" opacity=".016"/><path fill="#513b00" stroke="#513b00" d="m581.5 30 .5 2.5h-1z" opacity=".039"/><path fill="#bababa" stroke="#bababa" d="m519.5 412 .5 9.5h-1zm1 12 .5 2.5h-1zm7 3 .5.5-2.5 2.5-.5-.5z" opacity=".965"/><path fill="#353535" stroke="#353535" d="m529.5 417 .5 2.5h-1z" opacity=".471"/><path fill="#bbc100" stroke="#bbc100" d="M515.5 10q2.5 1 1 2l-1.5-.5zm54 0 3.5 3.5-.5.5-3.5-3.5zm-78 24 .5.5-2.5 2.5-.5-.5zm87 5 .5 2.5h-1zm-97 6 .5.5-3.5 3.5-.5-.5zm3 1 .5.5-3.5 3.5-.5-.5zm-17 17 .5.5-4.5 4.5-.5-.5zm-7 3 .5.5-3.5 3.5-.5-.5zm-204 165 .5.5-3.5 3.5-.5-.5zm-12 13 .5.5-2.5 2.5-.5-.5zm-10 11 .5.5-4.5 4.5-.5-.5zm-16 16 .5.5-6.5 6.5-.5-.5zm-58 45 .5.5-2.5 2.5-.5-.5zm2 2 .5.5-3.5 3.5-.5-.5zm342 8 .5 9.5h-1zm-2 5 .5 2.5h-1zm-326 36-.5 1.5-.5 1.5-.5-1.5zm4 3q1 2 2 0l1.5 1.5.5 1.5 1.5-.5-1.5 2.5-1-2-2 3-2 1q-1.5-1 1-2l1.5-.5-2-4zm5 6 .5 2.5-1 1-.5 9.5-.5-9.5zm1 4 .5 6.5h-1zm-6 1 .5 4.5h-1zm8 5 .5 1.5q-1 2.5-2 1zm-9 5 3 2 1.5-.5q-1.2 2.8-2.5.5-3.8-.7-2-2Zm336 1 .5 2.5h-1z" opacity=".992"/><path fill="#bbc100" stroke="#bbc100" d="m182.5 395 1.5 2.5h-1zm-7 14 1.5.5-4.5 3.5-.5-.5zm3 1 .5.5-3.5 3.5-.5-.5zm-11 3 1 2 3.5 1.5-2.5 1.5v-2l-2.5-1.5zm-3 2q1.5 1-1 2l-1.5-.5z" opacity=".992"/><path fill="#2b2a0a" stroke="#2b2a0a" d="m487.5 36 .5.5-2.5 2.5-.5-.5zm-228 189 .5.5-2.5 2.5-.5-.5zm-19 21 .5.5-2.5 2.5-.5-.5zm27 11 .5.5-3.5 3.5-.5-.5zm-105 64 .5.5-5.5 5.5-.5-.5zm344 6 .5 2.5h-1z" opacity=".078"/><path fill="#272012" stroke="#272012" d="m542.5 8 2.5.5-2.5.5zm8 0 2.5.5-2.5.5zm-7 10 1.5.5-.5 1.5q-2.5-1-1-2Zm-14 1 5.5.5-5.5.5zm-12 1 2.5 2.5-.5.5-2.5-2.5zm16 2h6l1.5 1.5-1.5-.5h-6zm-17 16q2.5 1 1 2l-1-1-1.5.5zm-38 15 .5.5-3.5 3.5-.5-.5zm-170 111 2.5 2.5-.5.5-2.5-2.5zm32 8 .5.5-2.5 2.5-.5-.5zm-21 4 2.5.5-2.5.5zm14 0-.5 1.5 1 1-2.5 2.5.5-1.5-1-1zm15 2 .5.5-2.5 2.5-.5-.5zm-21 5 .5.5-2.5 2.5-.5-.5zm13 2 .5.5-2.5 2.5-.5-.5zm-21 5 .5.5-2.5 2.5-.5-.5zm12 3 .5.5-2.5 2.5-.5-.5zm-9 8 .5.5-2.5 2.5-.5-.5zm-18 2 .5.5-8.5 8.5-.5-.5zm8 7 .5.5-3.5 3.5-.5-.5zm-27 11 .5.5-9.5 9.5-.5-.5zm12 3 .5.5-26.5 26.5-.5-.5zm-37 38 .5.5-4.5 4.5-.5-.5zm-12 13 .5.5-3.5 3.5-.5-.5zm-9 10 .5.5-2.5 2.5-.5-.5zm-8 9 .5.5-2.5 2.5-.5-.5zm-25 6 .5.5-12.5 12.5-2.5-1.5 1.5.5zm17 3 .5.5-2.5 2.5-.5-.5zm-65 1 .5 3.5h-1zm10 3 .5.5-2.5 2.5-.5-.5zm48 4 .5.5-2.5 2.5-.5-.5zm-48 2 .5.5-2.5 2.5-.5-.5zm334 4 .5 2.5h-1zm-293 2 .5.5-2.5 2.5-.5-.5zm-7 8 .5.5-2.5 2.5-.5-.5zm-7 8 .5.5-2.5 2.5-.5-.5zm-28 3 1.5 1.5-6 6 1 2q-1 1.5-2-1l6-7zm21 5 .5.5-2.5 2.5-.5-.5zm-44 1q1.5 1-1 2l-1.5-.5zm-21 11 .5.5-3.5 3.5-.5-.5zm41 1 3.5 3.5-.5.5-3.5-3.5zm-23 3 3.5.5-3.5.5zm31 1 8.5 6.5-.5.5-2-2-2 1-1-1-1.5.5q3.8-1.7.5-3.5l-2-1-1.5.5zm12 11 1.5 3.5h-1l-.5-1.5-1 2-.5-1.5zm-52 3 3.5.5-3.5.5zm-21 2 .5 9.5h-1zm29 0 1.5 2.5q-1 1.5-2-1zm-18 2 .5 2.5h-1zm61 1 .5 5.5h-1zm-63 1 .5 3.5h-1zm55 1 .5 2.5h-1zm6 0 .5 4.5h-1zm-69 9 .5 2.5h-1zm-29 10 4 1 13.5 9.5 1 3q-.7 3.3-5.5 2.5L80 404.5l.5-2.5zm90 4q3 1.5 0 3l-1.5.5 1 1-2.5 2.5-1.5-1.5 3.5-3.5 1.5-.5zm-6 1 .5.5-3.5 3.5-.5-.5zm350 2 .5 7.5h-1zm3 0 .5 5.5h-1zm-401 3 3.5 3.5-.5.5-3.5-3.5zm408 6 .5 2.5h-1zm-371 2 1.5.5-2.5 1.5q-1.5-1 1-2Zm373 2 .5 2.5h-1z" opacity=".984"/><path fill="#030200" stroke="#030200" d="m541.5 3 5.5.5-5.5.5zm12 0 4.5.5-4.5.5zm-18 1 2.5.5-2.5.5zm-18 1q1.1 2.4 4.5 2.5l-2.5.5-2.5-2.5zm12 0 2.5.5-2.5.5zm-5 1 2.5.5-2.5.5zm14 3 17.5.5-17.5.5zm-9 1 3.5.5-3.5.5zm-19 1 .5.5-4.5 4.5-.5-.5zm13 0 2.5.5-2.5 1.5zm-10 4 .5.5-2.5 2.5-.5-.5zm29 2 7.5.5-7.5.5zm-14 1 6.5.5-6.5.5zm-26 2 .5.5-4.5 4.5-.5-.5zm6 1 .5.5-3.5 3.5-.5-.5zm24 2 5.5.5-5.5.5zm42 2 .5 2.5h-1zm5 2 .5 7.5h-1zm-78 2 .5.5-3.5 3.5-.5-.5zm-8 1 .5.5-5.5 5.5-.5-.5zm28 3 1 1 1.5-.5-1.5 1.5q-2.5-1-1-2Zm54 0 .5 5.5h-1zm-81 4 .5.5-5.5 5.5-.5-.5zm85 1 .5 5.5h-1zm-97 4 .5.5L457.5 68l-.5-.5zm92 4 .5 3.5h-1zm-90 2 .5.5L463.5 70l-.5-.5zm94 1 .5 2.5h-1zm-5 4 .5 2.5h-1zm4 2 .5 2.5h-1zm-125 16 .5.5-3.5 3.5-.5-.5zm6 2 .5.5-3.5 3.5-.5-.5zm-7 6 .5.5-2.5 2.5-.5-.5zm-10 1 .5.5-2.5 2.5-.5-.5zm-15 22 .5.5-2.5 2.5-.5-.5zm-4 3 .5.5-2.5 2.5-.5-.5zm-4 3 .5.5-2.5 2.5-.5-.5zm15 2 .5.5-2.5 2.5-.5-.5zm-23 4 .5.5-2.5 2.5-.5-.5zm10 6 .5.5-2.5 2.5-.5-.5zm-19 1 .5.5-2.5 2.5-.5-.5zm-4 3 .5.5-2.5 2.5-.5-.5zm18 0 .5.5-2.5 2.5-.5-.5zm-9 7 .5.5-2.5 2.5-.5-.5zm-23 4 .5.5-2.5 2.5-.5-.5zm18 0 .5.5-2.5 2.5-.5-.5zm-23 4 .5.5-2.5 2.5-.5-.5zm18 0 .5.5-2.5 2.5-.5-.5zm-23 4 .5.5-2.5 2.5-.5-.5zm18 0 .5.5-2.5 2.5-.5-.5zm-23 4 .5.5-2.5 2.5-.5-.5zm18 0 .5.5-2.5 2.5-.5-.5zm-56 5 1.5.5q-1 2.5-2 1zm32 0 .5.5-2.5 2.5-.5-.5zm18 0 .5.5-2.5 2.5-.5-.5zm-23 4 .5.5-3.5 3.5-.5-.5zm17 1 .5.5-2.5 2.5-.5-.5zm-72 3 2.5.5-2.5.5zm4 1 6 5 1.5-.5-2.5 1.5-5.5-5.5zm45 0 .5.5-3.5 3.5-.5-.5zm18 0 .5.5-3.5 3.5-.5-.5zm-24 5 .5.5-3.5 3.5-.5-.5zm17 1 .5.5-3.5 3.5-.5-.5zm-57 1 1.5 2.5q-1 1.5-2-1zm26 5 3.5.5-3.5.5zm24 0 .5.5-2.5 2.5-.5-.5zm-39 1 2.5 1.5-1.5.5q-2.5-1-1-2Zm7 0 3.5.5-3.5.5zm-21 2 .5.5-2.5 2.5-.5-.5zm46 3 .5.5-3.5 3.5-.5-.5zm-27 2 4.5.5-4.5.5zm-17 1 .5.5-4.5 4.5-.5-.5zm-8 1 .5.5-3.5 3.5-.5-.5zm28 1 .5.5-4.5 4.5-.5-.5zm16 2 .5.5-3.5 3.5-.5-.5zm-50 4 .5.5-3.5 3.5-.5-.5zm6 1 .5.5-3.5 3.5-.5-.5zm19 1 .5.5-4.5 4.5-1.5-.5.5-1.5 1 1zm16 2 .5.5-5.5 5.5-.5-.5zm-47 3 .5.5-3.5 3.5-.5-.5zm5 2 .5.5-3.5 3.5-.5-.5zm13 3 .5 2.5q-1 2.5-2 1zm19 1 .5.5-7.5 7.5-.5-.5zm-44 2 .5.5-3.5 3.5-.5-.5zm5 2 .5.5-3.5 3.5-.5-.5zm13 3 .5.5-7.5 7.5-.5-.5zm-24 2 .5.5-4.5 4.5-.5-.5zm5 2 .5.5-3.5 3.5-.5-.5zm30 3 .5.5-39.5 39.5-.5-.5zm-42 3 .5.5-4.5 4.5-.5-.5zm6 1 .5.5-2.5 2.5-.5-.5zm11 2 .5.5-11.5 11.5-.5-.5zm-16 4 .5.5-2.5 2.5-.5-.5zm-9 2 .5.5-5.5 5.5-.5-.5zm-9 10 .5.5-5.5 5.5-.5-.5zm6 3 .5.5-2.5 2.5-.5-.5zm1 7 .5.5-28.5 28.5-.5-.5zm-19 3 .5.5-22.5 22.5-.5-.5zm6 5 .5.5-5.5 5.5-.5-.5zm269 1 .5.5-3.5 3.5-.5-.5zm8 4 .5 3.5h-1zm-12 2 .5 3.5h-1zm-247 1 .5.5-7.5 7.5-.5-.5zm-27 1 .5.5-5.5 5.5-.5-.5zm286 7 .5 5.5h-1zm-295 1 .5.5-2.5 2.5-.5-.5zm278 1 .5 6.5h-1zm-293 3 .5.5-3.5 3.5-.5-.5zm39 0 .5.5-5.5 5.5-.5-.5zm-45 5 .5.5-2.5 2.5-.5-.5zm313 1 .5.5-2.5 2.5-.5-.5zm-12 1 2.5 3.5h-1l-2-3zm-266 4 .5.5-4.5 4.5-.5-.5zm272 1 .5 2.5h-1zm-5 2 .5 2.5h-1zm-296 4 .5.5-13.5 13.5-1.5-.5zm300 0 .5 3.5h-1zm-279 2 .5.5-4.5 4.5-.5-.5zm274 0 .5 2.5h-1zm4 5 .5 4.5h-1zm-5 2 .5 4.5h-1zm-326 2 .5.5-4 4-.5 1.5-.5-1.5zm45 0 .5.5-3.5 3.5-.5-.5zm-57 1 .5 1.5-2.5 1.5-.5-1.5h2zm342 5 .5 6.5h-1zm-337 1q2.3.8 1.5 4.5l-2.5.5v-1l1.5-.5-.5-2.5-2 2-.5-.5zm45 1 .5.5-3.5 3.5-.5-.5zm287 0 .5 9.5h-1zm-343 1 .5.5-2.5 2.5-.5-.5zm26 2 2.5.5-2.5.5zm-18 2 2.5 3.5h-1l-2-3zm42 2 .5.5-4.5 4.5-.5-.5zm-26 1 .5.5-13.5 13.5.5-1.5-1-1 .5-1.5 1 2zm19 7 .5.5-3.5 3.5-.5-.5zm300 6 .5 8.5h-1zm-306 1 .5.5-3.5 3.5-.5-.5zm311 3 .5 5.5h-1zm-368 4q1.5 1-1 2l-1.5-.5zm51 0 .5.5-3.5 3.5-.5-.5zm-41 1 2.5.5-2.5.5zm354 5 .5 3.5h-1zm5 0 .5 3.5h-1zm-324 1 .5.5-3.5 3.5-.5-.5zm-61 1 .5.5-4.5 4.5-.5-.5zm381 5 .5 2.5h-1zm-394 18 .5 3.5h-1zm81 3 .5 10.5h-1zm-81 8 .5 3.5h-1zm403 8 .5.5-2.5 2.5-.5-.5zm-401 4 .5.5-2.5 2.5-.5-.5zm-13 3 4.5 4.5-.5.5-4.5-4.5zm8 3 .5.5-2.5 2.5-.5-.5zm9 0 .5.5-3.5 3.5-.5-.5zm-38 5 1.5 2.5q-1 1.5-2-1zm449 0 2.5 1.5-1.5-.5q-2.4-.1-1-1Zm-346 2 .5.5-5.5 5.5-.5-.5zm341 0 .5 7.5h-1zm-416 3 .5.5-2.5 2.5-.5-.5zm412 3 .5 4.5h-1zm-384 4 3.5.5-3.5.5zm9 1 6.5.5-6.5.5zm13 0 5.5.5-5.5.5zm367 1 .5 2.5h-1zm7 1 .5 2.5h-1zm-501 131 .5 3.5h-1z" opacity=".447"/><path fill="#5e5f5c" stroke="#5e5f5c" d="m513.5 18 2.5 2.5-.5.5-2.5-2.5zm12 401 .5 2.5h-1z" opacity=".118"/></svg>