<svg xmlns="http://www.w3.org/2000/svg" viewBox="0 0 640 481"><path fill="#010d0b" stroke="#010d0b" d="m204.5 156 3 2 6 1 2 2 2-1 1 2 10 4 12 8 9 8 7.5 4.5-1.5 1.5h-13l-1 1h-13l-1 1h-6q-6.4-9.6-15-17l-1.5-.5-4-6 1.5-.5 1 2 1.5-3.5-2-1v-4zm62 57 4 1 12.5 11.5 9.5 10.5 3-2 3 2 14.5 4.5-2.5.5q-.7-1.7-4-1l-.5 1.5 2.5 1.5 1.5-.5q-.5 2-3.5 1.5l-1.5-.5 1 3-.5 1.5 3.5.5.5 1.5 1.5-.5.5-1.5 1.5.5-.5 1.5 1.5.5 17 27 10 21v3l3 5q-2.5 1.5 1 3l1 6 4 9q-2 1 0 2l1 3q-2 1 0 2-.6 4.6 2 6-1.7.8-1 4l2 5q-1.7.8-1 4l1 2q-2 1 0 2v8l1 1-1 3-1 2 1 2h-1l-.5-1.5h-2l-5.5-4.5-8.5-10.5-1.5.5 1-2-1.5.5-1.5-1.5 1-2-10-15-13-16-.5-2.5-2.5-1.5 1-1-1-3-16.5-34.5-1.5-.5q2.3-1.2-.5-2.5l-1.5.5q2-1 0-2 .8-3.2-1-4v-12l-12-20-5-11-2-2v-2l-2-2-1-4zm37.5 26v1h2zm47 111-1 2h2v-1zm179.5-109 .5 1.5-1.5.5q-1.5-1 1-2Z" opacity=".996"/><path fill="#010d0b" stroke="#010d0b" d="m311.5 243 2.5 3.5-1.5-.5-1.5-.5zm208 1q2.2 1.8 7 1l1.5-.5-.5 1.5-8 4 .5-1.5-2-2 .5-.5 1.5-.5zm-164 1 2.5 2.5-.5.5-2.5-2.5zm126 19 4 4 .5-.5-1-2 .5-.5 8.5 8.5-2.5 1.5-10.5-10.5zm-103 31 4.5 5.5-.5.5-2.5-2.5-2-3zm5 7 2.5 2.5-.5.5-2.5-2.5zm-61 77 5 10 22.5 11.5-2 1v6l-2 2q1 4-1 5l2 3q-2.2 1.3.5 2.5l2-1 2 1q.2-3.8 3-5l1 1 2.5-2.5-1-1 2.5-2.5 1.5-.5q-2-1 0-2l3-4-.5-1.5 1.5-.5-2-1 26.5-10.5-.5 1.5 1 1 1.5 2.5 1.5.5.5 1.5 3.5 1.5 3 4 .5 2.5 1.5.5-.5 2.5-4.5 2.5-2.5 3.5-7 3-6 1-8 4-15.5 11.5-2 3-2 8q2 1 0 2l-2 4 2 1-2.5.5-13-6-6-4-14.5-13.5.5-.5 3 3 1.5-.5-1-1 3-3 1-3q-2-1 0-2 .7-3.2-1-4 1.7-.7 1-4l-1-1v-10l-1-1q1-5.5-1-8 2-1 0-2v-10q-1.7-.7-.5-2.5Zm123 12 2.5 4.5v31l-5 13-7 10-4.5 4.5-3 1 .5-1.5-3-4q2-1 0-2l1-4 4-5v-2l2-2 8-16 1-8 1-1v-6l1-1v-8zm-134 16 2.5.5-9.5 3.5h-3l-6 2q-3-1.5 0-3 3.3.8 4-1h6zm-141 7 4.5.5-4.5.5zm292 33 2.5.5.5 1.5 1.5.5-1 3q2 1 0 2-.7 4.8 2.5 5.5l16-5 5-3h2l3-3 .5 1.5-6.5 7.5-21 8h-19l-11 4q-2.5-1-1-2l1.5-.5q-2.5-1.5 1-3l4.5-6.5 4-3 12-5z" opacity=".996"/><path fill="#120646" stroke="#120646" d="M330.5 204q3-.5 3.5 1.5l1.5 2.5 6 1 1 1h6l3.5 1.5-2 1 6.5 8.5 3.5 1.5 2.5 3.5 5 4 3 1 4.5-3.5 1.5-4.5 1.5-.5-11-6 1.5-.5 14 8 13.5 13.5 5 7 5 10 3 9v3l1 1v10l1 3-1 3v12l-1 1q1.3 4.7-1 6v7l-1 1-.5 9.5-5.5-7.5.5-1.5-2.5-1.5-.5-2.5-1.5-.5-1.5-3.5-2.5-1.5-3-4-.5-2.5-3.5-2.5q.5-3-1.5-3.5l-3.5-2.5-5-6-.5-2.5-3.5-2.5.5-1.5 2 3q2.8-1.2.5-2.5l-1.5-3.5-3 2-4-8-1.5-.5.5-1.5-1.5-.5q2-1 0-2l-4-7 .5-1.5-1.5-.5-.5-2.5-1.5-.5 1-1-2.5-2.5-7-6-15.5-7.5 1.5-.5 2 1 .5-.5-2-2-1-4-2-2-6.5-14.5-3 2q-1.5-1 1-2z"/><path fill="#120646" stroke="#120646" d="m353.5 212 3.5.5-3.5.5zm5 1 2.5.5-2.5.5zm-49 8 .5 1.5-.5 1.5 5.5 1.5-3.5.5-1-1-4.5-.5zm-7 17 4 2h3l1.5-.5-.5 1.5 3-1 1 2 2-1 21 7 15 7 12.5 11.5 7 15-.5 1.5 2.5 1.5-1 2 2 1-.5 1.5 1.5.5-1 1 4 4q-2.5 1.5 1 3l2.5 3.5 1.5.5-1 1 2.5 2.5 1.5.5q-.5 3 1.5 3.5l1.5.5q-2.3 1.3.5 2.5l2.5 1.5.5 2.5 1.5.5q-2.2 1.3.5 2.5l2.5 1.5-.5 1.5 2.5 1.5q-2.2 1.3.5 2.5l1.5.5.5 2.5 1.5.5-.5 1.5 1.5.5 1 3q-2 1 0 2v9l-1 1v5l-1 3q-2.9 7.1-8.5 11.5l-14 8q-3.3-.7-4 1h-14l-6-2-3.5-2.5-.5-1.5-1.5.5 3-4-1-3v-8l-1-1 1-2q-1.7-.7-1-4 2-1 0-2v-3l-2-5 1-2-2-5q2-1 0-2l-1-3q2-1 0-2l-1-5-2-3-1-6-2-2 1-2-3-4v-3l-10-21-17.5-27.5-1.5-.5 1-2-1-3-.5-1.5-1 3-1-4-2 1-2-3q-3.8.5-3-2Zm26.5 9-1 1 15 18h2l1 1 1-1 1 1-1-2-1-9q-2-1 0-2l-8-5-6-2zm15 32-3 3q2 1 0 2l3 1q4 1 4-2l-1-2-1-2q-1 2-2 0Zm28 22q-3 1-2 5l3 1q2-1 0-2l1-2zm-11 6v3l3 1q2 0 1-3zm16 5q-3 1-1 3l-1 2h3l1-2q-2-1 0-2zm-12 2-2 3q2 3 3 0zm-1 11-2 1v2l-1 2q1 2 3 0l1 2v-2h2l1-1-1-2q0-2-3-2Zm33 6-1 2 2 2 2-1-1-2zm6 3v3h1zm-3 4-1 2 3 3 1-2-1-1v-1zm-22 3-3 2 1 2h2zm21 3-2 3 3 1 1-3zm-8 1q-3 2 0 3h2l-1-2zm-5 1-3 3h2q1 2 2 0zm9 2 1 3 2-1q0-2-3-2Zm-17 3-2 4 2 2 3-1-1-1 1-2zm13 1q-3 1-2 6h1l2-2zm-2 9-2 2 1 3 1-2z"/><path fill="#120646" stroke="#120646" d="m305.5 243 1.5 2.5q-1 1.5-2-1zm5 5 .5 1.5-1.5.5q-1.5-1 1-2Zm-22 24 2.5 2.5-.5 1.5 1.5.5v2l7 12v2l6 11v2l5 7-1 1 .5 1.5-8.5-10.5-7-13v-2l-2-3-3-9v-4z"/><path fill="#006018" stroke="#006018" d="m93.5 9 1.5.5.5 1.5 2-1 30 14 20 13 3 1 33 25 36 24 25 19 9 4 5 1 3 2 6 2h3l9 3 3 2 5 1 21 10 48 31 29 15h2l9 4 7 1 1 1 10 1 1 1h6l1 1h6l1 1h5l5 2 9 1 9 3 3 2h2l3 2h2l7 4h2l16 8 14 9q13.2 9.3 23.5 21.5l-1 3q2.3 1.3-.5 2.5-1-2-2 0-4.8.8-7-1v2l-1.5.5 2 2q-2 1 0 2l-6 6-3 7-1 8q2 1 1 5l4 8 9 12 6 14q-.7 3.3 1 4v6l1 1v19l-1 1v8l-1 1-.5 4.5-1.5.5-.5 1.5q-4-.5-4.5 2.5l-7 12-4 12v3l-2 4v3l-5 12q.8 3.3-1 4v6l5 3 1 3-8 18-6.5 10.5-1-1-3 3h-2l-5 3-16 5q-3.2-.7-2.5-5.5 2-1 0-2l1-3-2-1-.5-1.5h-2l-3 3-12 5-5.5 4.5-5 7 .5 1.5-1.5.5.5 1.5h-13l-1-1h-8l-1-1h-6l-1-1-9-1-1-1-8-1-8-3h-3l-4-2h-3l-17.5-6.5.5-1.5-1.5-.5 3-5-1-2 1-1 1-6 3.5-4.5 14-10 8-4 11-3 4.5-3.5.5-1.5 4.5-2.5-.5-2.5-1.5-.5v-2l-3.5-4.5-3.5-1.5-.5-1.5-2.5-1.5-2-3 1.5.5 2-2h2l12-6 9-6 24-23 15-6 13-2 21-7 3-2h3l6-2 1.5-1.5-34-40-13-17-6-6-22-28-32.5-35.5-17-16-17-14-3-2h-6l-27 9h-3l-4-5-2-1h-10l-2 1q-13.6-18.9-31-34l-10-9-20.5-14.5-.5-1.5-22-13-8-6h-2l-13-9h-2l-11-7-22-11h-2l-7-4-5.5-1.5-.5-1.5-5-1q-1 2-2 0l-2.5 1.5 1 2-1 2 7.5 10.5 1.5.5 4.5 5.5 23 18 3 1 3 3 9.5 5.5.5 1.5 5 2 4 4 3 1 9 7 6 3 7 6 15 10 38.5 33.5-.5 1.5-19 3v-2l-7-4-9-8-12-8-10.5-4.5-.5-1.5-2 1-2-2-6-1-3-2-1.5 3.5v4l2 1-2 5 2.5 3.5 9.5 8.5 6.5 8.5 2.5.5-8.5 1.5-12 4-2-3-14-11-4-2-4-4-25.5-16.5-.5-1.5-3-1-21.5-16.5-.5-1.5-14.5-13.5-10-13-4-8q-4-2.5-5.5-7.5L92 95.5l-.5-1.5-6-3-3.5-.5v-14l-1-1v-17l-1-1v-20l-1-1v-16l1.5-1.5 6.5-.5.5-1.5 2.5-1.5 1-2q-2-1 0-2l.5-1.5zM202 166q-2 1 1 2v-1zm285 100-1 2 8 6zm-41 125-2 4v8l-1 1v6l-1 1-1 8-8 16-2 2v2l-4 5-1 4q2 1 0 2l3 4h3l4-4 7-10 5-13v-31z" opacity=".996"/><path fill="#006018" stroke="#006018" d="m88.5 178 10.5 9.5 12 20 6 7 2 4 9.5 10.5 3.5 2.5 1.5 2.5 29.5 24.5.5 1.5 5 3 23.5 19.5 1.5 2.5 25 22 6.5 4.5.5 1.5 11 9 3.5 1.5 1.5 2.5q3.9.6 5.5 3.5l.5 1.5 4.5 1.5.5 1.5 3.5 1.5.5 1.5 6 2 3-1 1.5-.5-2-6q2-1 0-2l-.5-4.5-1.5-.5 1-2-1.5-3.5-1.5-.5q2.5-1.5-1-3l-4.5-9.5-2.5-1.5v-2l-6-8-3-6-19-22 1.5.5 23 16 20.5 19.5 37 48 9 14 7 14-1 2h2l-1 1v10q2 1 0 2 2 2.5 1 8l1 1v10q1.7.8 1 4-2 1 0 2 .7 3.3-1 4 2 1 0 2v2l-3 3 .5 1.5-3-2-1 1-10-10-9-6-2.5-.5.5-1.5 7-1 6.5-2.5-4.5-.5-1 1h-6l-1 1h-20l-1 1-33 1-1 1h-42l-1 1h-7q-1-2-2 0h-13l-3 1q-1-2-5-1l-1 1-11 1q-1-2-2 0l-7 1q-1-2-2 0l-13 1-1 1h-6l-1 1h-7l-1 1q-4.7-1.3-6 1h-9l-2.5-1.5-2-5v-5l-1-1v-20l-1-1v-19l-1-1v-18l-1-1v-18l-1-1v-19l-1-1v-19l-1-1v-17l-1-1v-20l-1-1v-18l-1-1v-19l-1-1v-18l-1-1v-13zM312 407v1h2zm-4.5-179h2l3.5 2.5q1 4.5-1.5 5.5l-4.5-.5-.5-1.5-1.5-.5 1.5-.5q.5 2.5 4 2 2-.5 1.5-3.5l-3.5-2.5-3 2-.5-1.5h2zm12 3 5 1 1.5 1.5q.5 3-1.5 3.5l-2.5-.5 3-1-.5-2.5-4-1-1.5 2.5 2 1-2 1-1.5 2.5-.5-1.5zm12 4 2.5.5-2.5 1.5zm-7 3 .5 2.5h-1zm6 0 1 4 4 1 1-2 .5 1.5q-.5 2-3.5 1.5l-3.5-1.5zm12 1 4.5 2.5-1.5-.5-3-1zm8 5 .5 4.5h-1zm-9 1 5.5 3.5-1.5.5-4.5-2.5zm12 2 .5 2.5-1.5 2.5-.5-1.5zm1 4 .5 2.5h-1zm27 38 .5 1.5-1 2q1 2.5 2 1l.5-1.5.5 2.5-1.5.5-2.5-3.5zm5 7 2.5 2.5-.5.5-2.5-2.5zm15 21 2.5 2.5-.5.5-2-2-.5.5-.5 2.5-.5-2.5zm-52 82 1 1h12l2.5 1.5-2 1 1 1-3 3-1 2 .5 1.5-3.5 2.5 1 1-2.5 2.5-1-1-2.5 2.5-.5 2.5-3-1-2 2-.5-.5 1-1q-3.5-1.5-1-3l-1-2q2-1 1-5l2-2 .5-6.5 1.5-.5z" opacity=".996"/><path fill="#0d995c" stroke="#0d995c" d="M82.5 8Q90 6.5 93 9.5l-2 1-1 2q2 1 0 2L88.5 17l-1.5.5-.5 1.5h-6l-1 1-.5-7.5zm55 58 2 1 3-1 3.5 1.5.5 1.5 5 1 7 4h2l22 11 11 7h2l5 4 3 1 5 4h2l8 6 22.5 13.5.5 1.5 20 14 29.5 28.5 9 10 2 4-3.5 1.5-8 1-1 1h-4l-4 2h-4l-1 1-1-2-38-33-4-2-18-14-6-3-9-7-3-1-4-4-5.5-2.5-.5-1.5-3-1-23-16L145 83.5l-.5-1.5-2.5-1.5-6-10q2-1 0-2zm-55 25h3l6.5 3.5 1.5 2.5 1.5.5 9 15 10 13 13.5 13.5 1.5.5 1.5 2.5 4 2 16 13 3.5 1.5.5 1.5 3 1 22 15 23.5 18.5 1 2-21.5 9.5-2 2-13 6-2 2-14.5 7.5.5 1.5 48 25 25.5 15.5q8.3 12.7 19 23l10.5 17.5 1.5.5v2l6 9-.5 1.5 1.5.5 1 3-1 2 2 1q-1 4 1 5l-1 2 2 3v2l-3.5 2.5-7.5-3.5-.5-1.5-3.5-1.5-.5-1.5-4.5-1.5-2.5-3.5-4.5-2.5-.5-1.5-3-1-11.5-9.5-.5-1.5-6-4-26.5-23.5-.5-1.5-28.5-22.5-.5-1.5-30.5-25.5-2.5-3.5-5.5-4.5-13-17-12-20-8.5-8.5-2-1-1 2-.5-4.5-1-1-1-34-1-1v-20l-1-1v-20l-1-1zm228 137q1.5 1-1 2l-1.5-.5zm3 3 .5 2.5h-1zm5 1 1.5 2.5h-1zm3 3 .5 1.5-1.5.5q-1.5-1 1-2Zm5 0 .5.5-2.5 2.5-1.5-.5zm4 2 1.5.5-.5 1.5q-2.5-1-1-2Zm12 1v2l1.5.5-2.5.5-.5-1.5zm-1 6-.5 1.5-.5 1.5-.5-1.5zm10 1 1.5 4.5h-2l-.5 1.5-1.5-.5 2-2zm34 54 1.5.5-1.5 2.5zm6 5 2.5 4.5-2 1 .5 1.5q-2.7-1.3-.5-2.5zm5 7 1 2 1.5.5-1.5 2.5-2.5-1.5zm6 6q2.5 1 1 2l-1-1-1.5.5zm-2 4 1.5 2.5h-1zm128 34 1.5.5-1 1v4l-1 1v4l-1 1-1 7-5 14v3l-6 18-2 3-1 5-2.5 3.5-1-2-4.5-2.5v-6q1.8-.7 1-4l5-12v-3l2-4v-3l4-12q3.5-8.4 9.5-14.5l2.5-.5z" opacity=".996"/><path fill="#543701" stroke="#543701" d="m242.5 188 11.5.5-3 1 3.5.5 7.5 5.5.5 1.5 25.5 24.5 9 11-4.5 3.5-16-17-6-5-4-1-1.5 2.5 10 20 12 20v8l-.5.5-2.5-2.5v-2l-5-5-1-3-3-3-1-3-6-7-2-4-23-27-3.5-5.5-2.5-1.5-8-9 2-1-3-1 13.5-.5zm45 80 .5 2.5h-1zm25 52q13.3 15.2 23.5 33.5l9.5 11.5 4.5 3.5-1 1-1 10-5.5 15.5-2-1v2l-14.5-8.5.5-1.5 1 2 .5-2.5-1-1v-9l-1-1v-7l-1-1-1-10-3-9-1-8-5-13q2.5-1.5-1-3l-2-3zm54 55 9.5.5-9.5.5zm-16 24 2.5.5-2.5.5z" opacity=".996"/><path fill="#403669" stroke="#403669" d="m325.5 207-.5 1.5 1 1v2l6 12 2 2 1 4 2 2-2.5 1.5v-2l-3 1v-2l-2 1-2-2q-1 2-2 0-4.2.8-5-2l-2 1-1-2-3 1v-2l-5 1v-1l1.5-.5-2-1 1-3 3.5-3.5 7-6 4.5-1.5q-2.2-1.2.5-2.5Zm27 4 2.5.5-2 1 3.5.5 2-1v2l3-1 1 2 2-1v2l3-1v2l2-1v2l2-1v2l2-1v2l2-1-.5 1.5 1.5 1.5 2-1v3l-2-1q-.6 4.9-4 7l-3 1-9.5-7.5-.5-1.5-4.5-2.5-5-7zm34 16 6.5 6.5-.5.5-6.5-6.5zm-77 16q1.5 1-1 2l-1.5-.5zm-3 3 2.5 1.5-2.5.5zm5 0q2.5 1 1 2l-2.5-.5zm15 0 5 1 1.5-.5-.5 1.5 3-1v2l4 1 1.5-.5-.5 1.5 5.5 2.5q-2 1 0 2l1 9 1 2q-1.7 3.3-3.5-.5l-1.5-.5-15.5-18.5q-2.4-.1-1-1Zm31 12 5.5 5.5-.5.5-5.5-5.5zm-16 25 4.5 1.5-1.5.5-3-1zm30 18 1.5.5 1 2-.5.5-2.5-2.5zm-8 6 1.5 2.5q-1 2.5-2 1l1-2zm1 7 1.5 2.5q-1 2.5-2 1l1-2zm11 1q2.5 1 1 2l-1.5-.5zm-10 11 2.5 2.5-.5.5-2.5-2.5zm37 8 1.5 2.5h-1zm-3 4 1.5.5q-1 2.5-2 1zm2 2 .5 2.5q-1 1.5-2-1zm-26 2 .5 2.5h-1zm10 4 1.5 2.5q-1.5 3-3 0z"/><path fill="#a16d00" stroke="#a16d00" d="m261.5 187 7 1 17.5 17.5.5 1.5 1.5.5 12 14 2.5 4.5 1.5-.5-7.5 6.5q-14.7-19.3-33-35l-1.5-.5-.5-1.5-7-5-3.5-.5 3.5-1.5h6zm-36 3 5.5.5-2 1 9.5 10.5 1.5.5 3 5 23 27 2 4 6 7 1 3 3 3 1 3 5 5v2l3 3v6l1 3-1 3h1l.5-1.5.5 2.5-1 3h1l.5-1.5.5 1.5-1.5 2.5-2.5-6.5-7-11-4-4-17.5-24.5-1.5-.5q-15.6-20.4-34.5-37.5l-5.5-4.5 1-1-.5-1.5 2 1 2-2q4 1 5-1Zm152 2 3.5 3.5-.5.5-3.5-3.5zm30 30 3.5 3.5-.5.5-3.5-3.5zm9 10 2.5 2.5-.5.5-2.5-2.5zm12 14 2.5 2.5-.5.5-2.5-2.5zm-18 24 .5 3.5h-1zm-156 17 2.5 2.5-.5.5-2.5-2.5zm156 0 .5 4.5h-1zm-111 15q2.5 1 1 2l-1-1-1.5.5zm-28 2 2.5 2.5-.5.5-2.5-2.5zm28 1 1 1 1.5-.5-1 2 1.5-.5 1.5 1.5-.5 1.5 3.5 2.5 9 13-1 2 2 3 3 9 1 8 3 9 1 10 1 1v7l1 1v9l1 3h-1l-3-6v-2l-8-14 .5-1.5-1.5-.5.5-1.5-2.5-1.5 1-2-1.5.5-1.5-1.5 1-2-1.5.5-1.5-1.5h2l-1-3q2-1 0-2v-5l-1-1-1-9-3-9v-4l-2-3v-5l-1-3-3-5zm108 6 .5 3.5h-1zm77 3 2.5 2.5-.5.5-2.5-2.5zm8 15q1 2 2 0l3 3 1-1 2.5 2.5-.5.5-2-2-2 2-1.5.5.5 1.5-3-1v2l-3-1v2l-3-1v2l-3-1v2l-3-1v2l-2-1-1 2-2-1v2l-3-1v2l-4-1v1l1.5.5-1.5.5-2.5-1.5 3-2v-2l3.5-4.5 1.5-.5.5-1.5 9-3h8zm-60 29 .5.5-3.5 3.5-.5-.5zm-30 3 1 1 1.5-.5-1 2 1.5-.5 1.5 1.5.5 1.5 1.5.5q-2.5 1.5 1 3l1 3q-2 1 0 2l2 3q-1.2 2.8-2.5.5l-2.5 1.5.5 1.5-2-1 .5 1.5-1.5 1.5-2-1v2l-2-1v2l-9 4-5 1-3 2-5 1-13 6q-4-1-5 1h-8l-1-1-7-1-5.5-3.5 1.5-.5 1.5.5 5-15 1-10-2-2 .5-.5 9 6 9.5 2.5.5 1.5h8l2-2h3l4-2 1.5.5.5-1.5 1.5.5.5-1.5 1.5.5.5-1.5q1 2 2 0l1.5-.5-.5-1.5q1 2 2 0l2.5-1.5-1-1 3.5-3.5q1.5 2.5 3-1Z" opacity=".996"/><path fill="#6e8c85" stroke="#6e8c85" d="m304.5 230 .5 2.5h-1zm-6 1 3.5 3.5-1.5 1.5-4.5-2.5zm8 13 3.5 2.5-.5 2.5-1-2-1.5-.5zm49 2-.5 1.5-.5 1.5-.5-1.5zm5 12 1.5.5 2 3-1.5.5-2.5-3.5zm7 12 1.5.5-.5 1.5q-2.5-1-1-2Zm7 6-.5 1.5 1 1-1.5 1.5-2.5-1.5.5-1.5zm-2 5 2.5 2.5-.5.5-2.5-2.5zm4 4 .5 2.5q-1 2.5-2 1zm5 7q2.5 1 1 2l-1-1-1.5.5zm1 3 1.5.5-1.5 2.5zm6 0v3l-1.5-.5-.5 1.5-1.5-2.5 1.5.5zm-18 7 1 3 1.5.5-2.5.5zm28 13 .5 1.5-2.5 2.5-.5-.5 1-1-.5-1.5 1.5.5zm0 17 .5 2.5h-1zm-21 21 1.5 2.5-1.5.5zm12 0 2.5 1.5-1.5-.5q-2.4-.1-1-1Z" opacity=".996"/><path fill="#9ca1a6" stroke="#9ca1a6" d="m303.5 226 .5.5-2 2 1 1 .5 3.5 1.5.5q-2 1 0 2l-.5 1.5-4.5-2.5q2.5-1.5-1-3zm48 16 3.5 3.5-.5.5-3.5-3.5zm-42 2 1.5 2.5q-1 1.5-2-1zm35 36 2.5 2.5-.5.5-2.5-2.5zm28 0 2.5 1.5-.5 1.5-2.5-2.5zm2 4 1.5.5-.5 1.5q-2.5-1-1-2Zm1 3 1.5 2.5h-1zm9 12 .5 1.5-1.5.5q-1.5-1 1-2Zm3 0 1.5 2.5-2.5 2.5-.5-.5 2-3zm8 11 .5 1.5-1.5 2.5-.5-1.5zm-6 44q2.5 1 1 2l-1.5-.5z" opacity=".996"/><path fill="#dba100" stroke="#dba100" d="M352.5 175h4l5 5 11 8 34.5 33.5 31 36 8 11 54 65-7.5 2.5v-1h2l3.5-2.5-3.5-3.5-3 1h-8l-9.5 3.5-.5 1.5-2.5 1.5-3 6 3 1-6.5 2.5-9 1-4 2-6 1-8 4-8.5 7.5-11.5 12.5-8 6-8 4v-1l3-1 7.5-5.5-2-3q2-1 0-2 .5-3.5-2-4l.5-1.5-1.5-.5-1.5-2.5-1.5.5-1.5-2.5q-4.6 6.4-12 10-1.5-1 1-2l8.5-6.5 6-11v-25l1-1v-10l1-1v-7l1-1 1-14 1-1v-21l-1-1v-4l-1-1v-3l-2-6-4-7 .5-1.5-1.5-.5.5-1.5-1.5-.5q2.3-1.2-.5-2.5l-1.5-.5q2.3-1.2-.5-2.5l-2.5-1.5 1-1-2.5-2.5-8.5-7.5-2.5-3.5-1.5.5.5-1.5-2-1-1.5.5.5-1.5-2-1-1.5.5.5-1.5-2 1v-2l-5-3h-2l-1.5.5.5-1.5-5-2h-3l-2 1v-1l1.5-.5-.5-1.5 6 2-.5-1.5 1-1-2-3 .5-1.5-1.5-.5v-2l-5.5-6.5-2.5-1.5-3.5-4.5-1.5-.5-1.5-2.5-3.5-1.5-.5-1.5-5-1q-2.2.8-1.5 4.5l3 4-.5 1.5 2.5 1.5 1 3 8.5 11.5 3.5.5-3.5.5-1-1h-6l-3 1-6.5-3.5-1.5-2.5q-3.5-.5-4 2-1-2-2 0l-1.5.5 1 1-2.5 2.5-2.5-3.5-1-4-9-12-2.5-5.5-2.5-1.5-.5-1.5-1.5-.5 3-1-.5-1.5q9-1.5 11.5 3.5l1.5 2.5 7-1 1.5.5.5-1.5 4 1 5.5-2.5-.5-1.5 3 1v-2l3 1v-2l8-1zm-78 10 5.5 1.5 2.5 3.5 1.5.5 16.5 18.5 2.5 1.5 5.5 7.5 2 1 1.5-.5-1.5 1.5-1.5-.5-4.5 5.5-2 1-2.5-4.5-12.5-14.5-1.5-.5-17.5-18.5-4.5-.5 4.5-.5 1-1h4zm-60 8 2.5.5-1 1 4.5 4.5 20.5 19.5 15.5 18.5 1.5.5 17 24 4 4 7 11 1.5 4.5 1-3 2.5 5.5v3l8 16 5 7-3-1 2 5v5l2 3v4l3 9v4l2 6v5l1 1-1 2 5 8q-1 1.5-2-1l-4-7-35-46-19.5-19.5-9.5-7.5-1.5-2.5q-1.2 2.3-2.5-.5l-.5-1.5q-1.2 2.3-2.5-.5l.5-1.5-2-1-1.5.5.5-1.5-2-1q-1.2 2.2-2.5-.5l.5-1.5-2-1-1.5.5q2.3-1.2-.5-2.5l-2 1 .5-1.5-1-1 1-1-.5-1.5-1.5-.5-2-3q2-1 0-2l-.5-1.5q-1.2 2.3-2.5-.5 2-1 0-2l-1-2q1.3-2.7 2.5-.5l2 1 1.5-.5-.5 1.5 3-1v2l2-1 3 2h2l6 5q4.1-.6 5.5 1.5l.5 1.5 2-1 1 2 3.5-1.5 1-4q-2-1 0-2l-3-8-11.5-16.5-1.5-.5-5.5-7.5-2.5-1.5-4.5-5.5-19.5-17.5.5-1.5zm7.5 57q-3 1-1 2h1z" opacity=".996"/><path fill="#dba100" stroke="#dba100" d="m287.5 274 .5 2.5h-1zm196 64 1.5.5-4.5 1.5v-1zm-117 38 8.5.5-8.5.5z" opacity=".996"/><path fill="#eebe3e" stroke="#eebe3e" d="m295.5 181 4.5 3.5 11.5 18.5q1.3-2.3 2.5.5l-2 1 1.5 3.5 2-1 3.5 5.5-1.5-.5-2 2-4 3 .5-1.5-4.5-4.5-26.5-25.5.5-1.5 3-1 3 4 16.5 14.5.5 1.5 2 1q2-.5 1.5-3.5l-6-11-5.5-7.5q-2.4-.1-1-1Zm-95 17 5 3 15.5 14.5 16 22q-1.2 2.8-6.5 1.5l-1.5-1.5q2.3-1.2-.5-2.5l-1 2-.5-1.5q2.3-1.2-.5-2.5l-7-2-8-5-4-1-2-2h-2l-7-4h-2l-4-3h-3l-5-2h-7l-1.5 2.5q3.5 1.5 1 3l3 3 2.5 4.5 1.5.5 6.5 9.5 1.5.5 10 12-.5.5-2-2-2.5-1.5-17.5-20.5-1.5-.5-7.5-9.5-1.5-.5 5.5-3.5 1.5.5.5-1.5 1.5.5.5-1.5 3-1 2 2 7 2 7 4h2l4 3h2l7 4h2l2 2 6 2q2.8-1.2.5-2.5v-2l-2-3-12.5-12.5-8.5-6.5.5-2.5z"/><path fill="#eec027" stroke="#eec027" d="m341.5 178 2.5.5-13.5 4.5v-1zm-39 1 4.5.5-3 1 2 1 1.5 2.5 1.5.5 2 5 9 12 2.5 6.5 5-4q1.5 1-1 2l-17 14v-2l-1.5-.5-6.5-8.5-1.5-.5-16.5-18.5-3.5-2.5-.5-1.5-2.5-.5 3.5-1.5 26 27 6 5 5.5-4.5-2.5-4.5-1.5.5.5 1.5-2.5-4.5 2-1-1.5-1.5-1.5.5-14-22 4.5-.5zm35 3 5.5 1.5.5 1.5 4.5 2.5.5 1.5 4.5 3.5 1.5 2.5 3.5 2.5 3 4 .5 2.5 1.5.5q-2.5 1.5 1 3l1 2-3 2 7.5 2.5q2.3 3.2 7 4l9.5 7.5-.5.5-3-3-16-9-9-3h-4l-1-1h-4l-1-1-4.5-.5 7-1-10.5-15.5-1.5-.5 1-2-3-3v-3zm13.5 26v1h3zm8 2v1h3zm-156.5-13h2l6 5 18.5 17.5 1.5 2.5 1.5.5 5.5 7.5 2.5 1.5 10 15 3 8q-2 1 0 2l-1.5 4.5-3 1-1-2-2 1-1-2-5-1-6-5h-2l-3-2-2 1v-2l-3 1-1.5-.5-.5 1.5-2.5 1.5 1.5 1.5 1.5-.5 1 2q-2.5 1.5 1 3l.5 1.5 1.5.5-1 2 16 12-.5.5-2-2-38.5-24.5-10.5-12.5-1.5-.5-6.5-9.5-1.5-.5-5-7q2.5-1.5-1-3l1.5-2.5h7l1 1 7 1 4 3h2l7 4h2l2 2h2l10 6 7 2 3.5 3.5q-2.2 1.3.5 2.5 5.3 1.3 6.5-1.5L220.5 215 202 198.5zm18.5 52-2 3h1l2-2zm173.5-15 2.5 2.5-.5.5-2.5-2.5zm-152 42 2.5 2.5-.5.5-2.5-2.5z" opacity=".996"/><path fill="#f1c84d" stroke="#f1c84d" d="m292.5 181 4.5 1.5 8 12 3 6v2l-1 1 .5 1.5-3.5-2.5-1.5-2.5-15.5-13.5-2-3zm-96 19 1.5.5 1.5 2.5q11.3 7.2 19.5 17.5l3 6q-1.2 2.8-2.5.5l-5-1-2-2h-2l-7-4h-2l-4-3h-2l-7-4-7-2-1.5-1.5.5-1.5zm-31 16q3.8-.7 4.5 1.5l6.5 8.5 2.5 1.5 5 7 12 13-1.5-.5-23-12-2-2-15-7-2.5-2.5z"/><path fill="#e6e1e2" stroke="#e6e1e2" d="m307.5 226 7 1 9 3h3l9 4h2l11 6 5.5 5.5-1.5 2.5-.5-3.5-1.5-1.5-1.5.5q1.8.8 1 4l-1 3 6.5 3.5.5-3.5-1-3h1l3 5v3l-.5 1.5 1.5.5 1 3-.5.5-5-5-11-6-27-9-1.5-1.5 1.5.5 4 1 .5-1.5-1.5-1.5-1.5.5.5-1.5q3-.5 3.5 1.5-.5 3 1.5 3.5 2-.5 1.5-3.5l-.5-1.5 1.5-.5q.8-4.7-2.5-5.5l-6-1-2 7-1-5-1 3-.5-4.5-2.5-2.5-4-1zm23.5 8-2 9 6 2 2-1q2-1 1-6l-4-4zm11 4-2 9 6 2q1 2 2 0l-4-3q-3-1-1-2l2 1h2l-3-3v-1l4 2v-1zm16 14-1 4h1z" opacity=".996"/><path fill="#e6e1e2" stroke="#e6e1e2" d="m308.5 230 2.5 1.5-1.5-.5-2 1q-1.5-1 1-2Zm12 3 4.5 1.5-4.5.5zm12 3 3.5 2.5-.5 3.5-3.5-.5zm11 45 1.5.5q-1 2.5-2 1zm32 0 5.5 6.5-1.5 3.5-.5-2.5q2-1 0-2l-4-5zm7 8 7.5 8.5-.5.5-5.5-5.5-2-3zm2 6 .5 2.5h-1zm6 4 8.5 10.5-1.5-.5-1.5-.5-3.5-6.5-1.5-.5-.5-1.5-1.5 2.5 1 2-1 2 .5 1.5-1.5-2.5 1-2q-2-1 0-2z" opacity=".996"/><path fill="#e6e1e2" stroke="#e6e1e2" d="m394.5 308 .5 3.5-1 2 .5 1.5-4.5-5.5.5-.5 3 3 .5-.5zm5 3 5.5 7.5 1 4-1 1 .5 1.5q-1.5-2.5-3 1l-2.5-2.5.5-.5 2 2 2.5-2.5-1-4q-4.1-2.8-4.5-7.5Zm-23 2q2.5 1 1 2l-1.5-.5z" opacity=".996"/><path fill="#e6e1e2" stroke="#e6e1e2" d="m399.5 315 .5 2.5h-1zm-3 2 3.5 4.5q-1 1.5-2-1l-2-3zm5 2 1.5 2.5h-1z" opacity=".996"/><path fill="#d1bd52" stroke="#d1bd52" d="m406.5 321 .5 4.5h-1z" opacity=".996"/><path fill="#69e603" stroke="#69e603" d="m82.5 111 .5 2.5h-1zm2 39 .5 2.5h-1zm-1 18 1.5.5-.5 1.5q-2.5-1-1-2Zm435 84 1.5.5q-1 2.5-2 1zm15 70 .5 2.5q-1 1.5-2-1zm-1 20 .5 2.5h-1zm-2 14 .5 2.5h-1zm-1 4 .5 4.5h-1zm-1 6 .5 2.5h-1zm2 0 .5 6.5h-1zm-4 6 .5 3.5h-1zm-4 14 .5 3.5h-1zm-5 16 .5 2.5h-1zm-292 11 2.5.5-2.5.5zm287 3 .5 2.5h-1zm-380 3 7.5.5-7.5.5zm-15 2 7.5.5-5.5.5-1 1h-6l-1 1-.5-1.5 5.5-.5zm196 4 3.5 4.5-.5.5-3.5-3.5zm175 33 1.5.5q-1 2.5-2 1z" opacity=".016"/><path fill="#7bd096" stroke="#7bd096" d="m80.5 109 1.5 2.5-1.5.5zm1 13 1.5.5-.5 3.5-1.5-2.5zm0 7 1.5 2.5-1.5.5zm1 12 1.5.5-.5 4.5q-2.4-1.8-1-5Zm0 7 1.5 2.5-1.5.5z" opacity=".004"/><path fill="#e3e501" stroke="#e3e501" d="M94.5 8h3l3.5 1.5-3.5.5-3-1zm438 331 .5 2.5h-1zm-1 10 1.5.5-1.5 2.5zm-436 18 .5 18.5 1 2-1.5.5zm434 1 .5 4.5-2.5.5-.5-3.5h1l.5 2.5zm-4 8 1.5.5-1 2 1 1v13h-1v-12q-2.1-1.1-.5-4.5Zm-2 7 .5 3.5h-1zm0 6 .5 2.5h-1zm-3 4 .5 2.5-2.5 7.5-.5-3.5zm-423 12 .5 10.5h-1zm419 0 .5 2.5-1 2 4 1-4.5.5-.5-2.5zm-240 6 17.5.5-.5 48.5-1-48h-15l-1 1h-14l-1 1h-26l-1 1h-35l-1 1h-21l-1 1h-15l-1 1h-10l-1 1h-8l-1 1-.5-1.5 8.5-.5 1-1h9l1-1h15l1-1h19l1-1h32l1-1h30l1-1h16zm237 7 126.5.5-126.5.5zm-388 2 7.5.5-6.5.5-1 1zm385 1 .5 2.5h-1zm-196 5 4.5 4.5-.5.5-4.5-4.5zm194 0 .5 2.5h-1zm-24 34 2.5.5q-1.4 2.1-5.5 1.5v-1zm-48 10 5.5.5-5.5.5z" opacity=".004"/><path fill="#00991c" stroke="#00991c" d="m83.5 7 5.5.5-5.5.5zm8 1 2.5.5-2.5.5zm-13 6 .5 12.5h-1zm1 23 .5 8.5h-1zm1 21 .5 6.5h-1zm1 18 .5 10.5h-1zm1 22 .5 10.5h-1zm1 21 .5 9.5h-1zm1 21 .5 7.5h-1zm1 18 .5 8.5h-1zm1 17 .5 9.5h-1zm323 8 2.5.5-2.5.5zm6 1 3.5.5-3.5.5zm7 1 3.5.5-3.5.5zm7 1 3.5.5-3.5.5zm6 1 3.5.5-3.5.5zm5 1 2.5.5-2.5.5zm-353 6 .5 7.5h-1zm1 19 .5 8.5h-1zm424 9 2.5 2.5-.5.5-2.5-2.5zm7 6 9.5 9.5-.5.5-9.5-9.5zm-430 5 .5 7.5h-1zm441 10 .5.5-2.5 2.5-.5-.5zm-440 9 .5 8.5h-1zm420 15 .5 4.5h-1zm-419 6 .5 6.5h-1zm1 18 .5 8.5h-1zm1 20 .5 8.5h-1zm438 6 .5 3.5h-1zm-437 14 .5 7.5h-1zm437 10 .5 4.5h-1zm-436 9 .5 8.5h-1zm435 0 .5 3.5h-1zm-1 6 .5 2.5h-1zm-1 5 .5 2.5h-1zm-432 8 .5 9.5h-1zm1 20 .5 9.5h-1zm1 21 .5 3.5h-1zm180 0 8.5.5-8.5.5zm-16 1 6.5.5-6.5.5zm-18 1 7.5.5-7.5.5zm-43 1 10.5.5-10.5.5zm-23 1 8.5.5-8.5.5zm-15 1 4.5.5-4.5.5zm-11 1 2.5.5-2.5.5zm-10 1 3.5.5-3.5.5zm-8 1 2.5.5-2.5.5zm-15 2 2.5.5-2.5.5zm-6 1 2.5.5-2.5.5zm-8 1 2.5.5-2.5.5zm214 8 6.5 6.5-.5.5-6.5-6.5zm92 38 2.5.5-2.5.5zm8 1 3.5.5-3.5.5z" opacity=".51"/><path fill="#bac1bf" stroke="#bac1bf" d="m304.5 225 2.5.5.5 1.5 4-1v1l-5 1-2.5 2.5-.5 2.5-1.5-4.5zm3 5 2 1 1.5-.5-1 3-.5 1.5-2.5-1.5 1-2z" opacity=".996"/><path fill="#bac1bf" stroke="#bac1bf" d="m315.5 232 .5 4.5 1 1-1 2 1.5-.5 3-1 1.5 2.5-2.5 1.5v-2l-3 1-11.5-4.5-1-2 .5-.5 2 2 5 1 3.5-2.5zm10 6 .5 2.5q-1 2.5-2 1zm30 12 .5 3.5h-1zm3 1-.5 1.5.5 3.5 1.5.5-1.5.5q-2.2-.7-1.5-4.5zm3 10 2.5 1.5-1.5.5q-2.5-1-1-2Zm-17 21 1.5.5q-1 2.5-2 1zm36 4 2.5 2.5-.5.5-1.5-.5-.5-1.5-1.5.5zm1 11 3.5 1.5-2.5.5q-2.5-1-1-2Zm9 3 .5 2.5-2.5 1.5-.5-.5 2-2zm-1 5 1.5.5q-1 2.5-2 1zm5 0 1 2 1.5-.5-1.5 3.5q-2.4-1.8-1-5Zm5 9 1.5.5 1 2-1.5.5zm-1 3q2 .5 1.5 3.5h-1zm4 2-.5 1.5-.5 1.5-.5-1.5zm2 1 1.5 3.5q-2 1 0 2l-.5 5.5-1.5-1.5q2.3-1.2-.5-2.5l-1.5-.5 1-1-.5-1.5q1.3 2.3 2.5-.5-1.9-.9-.5-3.5Zm-42 7q1 2 2 0l1.5 1.5-1.5 2.5-1-2-1.5-.5zm36 18 1.5.5-.5 1.5q-2.5-1-1-2Z" opacity=".996"/></svg>