<svg xmlns="http://www.w3.org/2000/svg" viewBox="0 0 452 640"><path stroke="#000" d="M243.5 67h7q1 2 5 1 4.8 1.7 7.5 5.5l4 8v3l2 5-2.5 1.5-5.5-14.5-4.5-4.5-6-1-1-1h-5l-1 1-7 1-10 5L213 89.5l-5.5 9.5-1.5-4.5 6-9 7.5-7.5 11-7h2l6-3h4zm26 26 1 4 7-4h2l.5 1.5-10 9 1.5 4.5q5.5 2 8.5 6.5l-.5 1.5-5-4-3-1 .5 1.5-.5 6.5-2 1-.5-5.5-1-1v-5l-1.5-1.5-2 1-.5-1.5 6-5-.5-1.5-7 4-.5-1.5 5-4q-.7-4.7 2.5-5.5Z" opacity=".996"/><path stroke="#000" d="m231.5 95 6 7q3 .5 3.5-1.5l1.5-2.5 1.5.5-4 6 5 5v2l-.5.5-4.5-4.5-.5-1.5-7 6-.5-1.5 5-7-5-5zm-37 3 10 7 1.5-.5-4 9v3l-3 7v3l-1 1-1.5 7.5q-3.2-.7-2.5-5.5l2-4v-3l3-9-1.5-.5-6 6-1.5-1.5 12-11-.5-1.5q-4.8-1.7-7.5-5.5zm192 5h5l5 5 3 1q2.3-3.2 9-2l3.5 2.5 1 2q-2.5 1.5 1 3l-1 2 1.5 2.5 4.5 3.5 1 3v5q-2 1-1 5l-3 4 1.5.5 2-1q2.5 1 1.5 5.5l-1 1 .5 1.5-1.5.5q2.5 1.5-1 3l-1.5 2.5-9 5-1.5-.5-.5 1.5-2-1-2 2q-1-2-2 0-2.5 2-8 1l-1.5 1.5-7 8-2.5 4.5-2.5 1.5 3 4 3 7-2.5 2.5-.5-.5q-2.7-10.2-10.5-15.5l-7-4-7-1-1 1-7 1-8 4-8.5 7.5-5 9 5 4-.5 2.5-7-6-10 9q-2.5-1-1-2l9.5-8.5-9-8 1.5-1.5 5 5 4 3q4.3-10.2 13-16l10-5 11.5-2.5q-1-4 1-5v-12l1-3-1-3-1-2v-10l2-5-1-1q3.5-1.5 1-3l.5-1.5 1.5-.5q-2-1 0-2l4.5-7.5 2-1 4.5 2.5.5 1.5 4.5-3.5 2.5-3.5zm1.5 2-5 3-2 3 2-1q4-1 7 1h1l-1 2 2 3 4-1-1-5-4-5zm15 4q-1 2-4 1l-1 4h2l5 6 7-1v-4l-2-4q-2-3-7-2Zm-34 3-5 7-2 6v5l-1 1v10q2 0 1 4l2 1q3-1 5 1h6l1-3v-5l-3-2q-3-1-1-2l4 1v-1l-4-2 1-2 2 1h1l-1-1q1-5-1-6l-1-1-1-11zm13 0-8 4v5l2 3 1 9 1 1v9q-2 0-1 5l7 2 3-6-1-1q-3-1-1-2l4 1v-1l-3-2 4-1-1-6-2-3-3-3-5-1q-3-1-1-2l6 1 6 4v-4l-5-3 2-1v-1l3-1-2-5zm14 4-4 2v2q1 3-1 4l1 8q4-4 10-5 1-7-1-9v-1l-2 2-2-2zm11 5-2 1-1 4h2l1 2 1 8 4-2q4-1 5 2v-4l1-1-1-7-4-3zm-4 7-8 4-4 4v5l-1 3-5 8 5 1v-1l9-8-2-3 1-2 3 2h2v-1l-1-1q-3-1-1-2l4 2v-8l1-1zm9 8-5 3-16 15 2 3 9-4q3-2-1-3l2-2 3 2q2 0 1-3-2-2 1-3l2 3 4-6v-4zm6 6-12 11-5 3-6 2 1 1 6-1 8-3v-3l1-1 2 2 1-1v-2l2 1 3-5v-3zm-54 6-2 4v10l-1 1 1 3h2l3-3 10-4 7-5-2-3-5-2h-8q-2-2-5-1Zm24 6-2 3-2-1-2 1-2 5 1 1 6-3v2l-6 3-2 6h2l7-8 2-7zm-11 7-3 2-5 1-3 3 1 1h3l8-4v-2zm-2 6-5 3 7 3 1-4q0-2-3-2Zm-154.5-60 1.5 4.5q-2 1 0 2l-1.5 1.5-4.5-2.5.5-1.5 3 1zm66 10 2.5.5-16 11v3l9 10-1.5.5-7-7-.5.5v14l-1.5 1.5-1.5-.5.5-17.5 1.5-.5-3.5-2.5-2 1-.5-.5 4-4-1-1 1.5-2.5 1.5.5.5 1.5 5-2z" opacity=".996"/><path stroke="#000" d="m395.5 122 2.5 3.5-1.5.5-1.5-2.5zm17 3 2.5 2.5-.5.5-2.5-1.5zm-182 3 5 7 5-3 .5 1.5-4 3 6 8q-1.5 3-3 0l-3.5-5.5-2.5 1.5-3.5 5.5-1.5-.5 5-9-4-6zm-37 9 1.5 1.5-2.5 2.5-.5-2.5zm1 7-.5 1.5-1 8 3 3v2q-4.5 1.5-4.5 7.5l-2-1-1.5 2.5 3 3v2l-3.5 3.5-.5-.5 1-7-2-2 3-3v-7l1-1-7-5 2.5-.5 4 2q.9-5.6 5-8Zm-1.5 13-1 2h2v-1zm90.5-8q2.5 1 1 2l-6 3h-2l-3.5 2.5v4l3.5 3.5 8.5 5.5q-1.2 2.8-2.5.5l-9-6-1 2-2.5-1.5-.5-3.5-3-2-3.5-.5 1.5-1.5h2zm-14.5 8q-2 1 1 2v-1zm-18.5-3 1.5.5-5.5 6.5-.5-1.5zm2 3 1.5.5-4.5 5.5-1.5-.5zm-24 4 2.5 1.5 5.5 9.5 5-4 .5.5-4 4v3l6 8-2.5.5-5-8-3.5 2.5-2.5 4.5-1.5-.5 6-9-7-12zm-18 6 1.5 4.5q-1 1.5-2-1l-1-2zm60 1q3 .5 2.5 4.5l-1 1v8l-1.5 1.5-1.5-.5v-11z" opacity=".996"/><path stroke="#000" d="m207.5 170 4.5 3.5q-1.7 3.3-3.5-.5l-2.5-1.5zm137 8q4.8-.7 6.5 1.5l-.5 1.5-5-1q-2.5-1-1-2Zm-155 1 .5 7.5-1 2 4.5 3.5 3-2q2.5 1 1 2l-1.5.5 1 3-1.5.5-3-2-3.5 2.5q1 4-1 5l.5 1.5-4-5-1.5.5 3-4v-5l-5-4 2.5-.5 2 2 .5-.5 1-5zm.5 13-1 2q1 1 2-1zm94.5-11q3 1.5 0 3l-2 1-1.5-.5-.5 1.5-1.5-.5-.5 1.5-8.5 4.5 13 14-1.5.5-10-9-.5 6.5-1 1v5l-2 6q2.3 1.3-.5 2.5l-2 1-.5-2.5 1-1v-6l1-1v-6l1-1q-1-5.5 1-8l-2.5-.5-3 1q-1.5-1 1-2l4.5-2.5.5-3.5 4 1q1-2 2 0l1.5-.5-.5-1.5zm57 0 4.5 3.5-.5 1.5-5.5-3.5zm10 4 3.5 2.5 4.5 7.5 2.5-1.5 2.5-3.5.5 2.5q-2.9 1.6-3 6l3 5-1.5.5-3-4-1.5.5q-.6 3.9-3.5 5.5l-1.5-.5 5-7v-2l-7-9zm-238 1 1.5.5.5 8.5 3-1h14l6 3h2l8.5 8.5 3 7 1 11q-2.2 1.3.5 2.5l5-2 .5 1.5-5 3 4 5-1.5.5-4-3-1.5 3.5v4l-2 4v3l-3 8 1.5 1.5 5.5.5-.5 1.5-5.5.5q2.8 1.6 3 6l-.5.5-2.5-2.5-2.5-3.5-8.5 25.5-2 11-1 1 7.5.5 1.5 1.5-6.5.5-1.5 1.5 5 6v2l-1.5.5-5-7-1.5 4.5v6l-1 1-1 19q1.3 2.8 2.5.5l5.5.5-1.5 1.5q-4.1-.6-5.5 1.5l6 7-1.5.5-4-4-.5.5v8l1 1v5l1 1 .5 5.5 2-4 1.5 2.5q-1.7.8-1 4l4 1-.5 1.5-3.5.5v7l1.5 1.5h3l5-2 .5 1.5-6 3 6 4-.5 1.5-7-3 .5 1.5 1 7 2 4v3l4.5 13.5 2.5-1.5.5-3.5 1.5.5q1 4-1 5l4 2-.5 1.5-3-1q-2 .5-1.5 3.5l4 8v2l4.5 7.5 1.5-1.5.5-3.5 1.5.5q.8 3.3-1 4l3 2-4 2 5 10 3.5 4.5.5-2.5-1-1v-13q-1.7-.8-1-4l3.5-.5-.5 1.5 1 1v13l1 1v11l1 1v11l1 1v11l1 1 1 13 1 1v3l1 1v3l2 6 4 8 9.5 9.5 7 4 9 3 11 1 1 1h10l5-2 5.5-4.5 9-16 2-10-10-9 .5-1.5 10 8q2.3-1.7 1.5-6.5l-7-6 .5-1.5 7 5 .5-4.5 1-1-7-6 .5-1.5 6 4 1.5-3.5-7-7 .5-.5 7 4 .5-5.5 1-1v-8l1-1v-11l1-1v-8l1-1v-6l1-1 1-13-7-5 2.5-.5 5 3 .5-6.5-6-4 .5-1.5 6 2 .5-3.5-7-6 2.5-.5 4 3 .5-5.5 1-1v-11l-1-1v-7l-1-1-1-17-1.5-1.5-1.5.5 2.5-4.5q1 2 2 0l4.5-1.5.5-1.5 2.5-1.5-4-1-.5-1.5-2.5 1.5-.5 2.5-2.5-1.5 2-1-.5-1.5-4.5-2.5 3-1-.5-10.5-5.5-3.5q-.5-3 1.5-3.5l2.5-1.5-4-3 .5-1.5 5 3h2q1-2 2 0l3-1 .5 1.5-3 1 4.5 3.5q1-2 2 0l3.5 1.5-.5 1.5-12-5-.5.5 2 2q-1.2 5.3 1.5 6.5l10.5 8.5-1.5.5-10-7-.5 6.5-1 2 14 3-.5 2.5h-3l-8.5 4.5v10l1.5 4.5 8.5-7.5 1.5-3.5 6.5-5.5 3.5-4.5 2.5 2.5-7 7q.8 3.8-1.5 4.5l-1-1-11 11-1.5.5 1 23-1 1v12l-1 1v10q-1.7.7-1 4l1.5-.5 12-4 6-3 3.5-3.5-5-4 .5-1.5 6 4 5-6 1.5 1.5-3 3 .5.5 3-2 .5 3.5-3 2 3.5 4.5 2.5 1.5-.5 1.5-7-5h-2l-6 3-5 5-1-2-13.5 5.5q-2 2.5-1 8l-1 1v7l-1 1v9l-1 1v10l-1 1v7l-1 1v5l-2 6-1 12-1 1v4l-1 1-1 8-8 18-8.5 9.5-7 3h-12l-1-1-11-1-9-3-10-6-6.5-6.5-5-8-3-9-1-7-1-1v-4l-1.5-1.5-7-1-12-4-2.5-2.5.5-2.5 3 2 12 4 6 1 .5-5.5-1-1-1-22-11.5-17.5-1.5-.5 1-2-3.5-5.5-1.5-.5 1-2-4-7v-2l-3-5-2.5-7.5q-3 .5-3.5-1.5l.5-1.5 2 1-.5-1.5-2-6v-3l-1-1v-3l-2-4-1-7-2-4-2-11-1.5-1.5-1.5-.5.5-1.5 1.5-.5q-1.7-1.8-1-6l-1-1v-6l-1-1v-9l-1-1v-19l1-1v-8l1-1 1-11 1-1 3-15 3-7 1-7-5-4 .5-1.5 6 3 1.5-3.5-5-4 1.5-1.5 3 3 1.5-.5 1-3-5-4 .5-1.5 5 3 3.5-9.5v-3l1-1v-3l2-6-8-7 .5-1.5 7 5 .5-5.5-4-4 .5-.5 3 1 .5-4.5-2-3q2-1 0-2-2-5.5-6.5-8.5l-9-4h-12l-3.5 1.5.5 1.5 1.5.5-.5 1.5-2-1-.5 4.5-1.5 1.5-1-7-6 2-7.5 7.5v3l2.5 4.5q3.8-.7 4.5 1.5l-4 1 1 3q-1 1.5-2-1l-1.5-3.5-3-1h-5l-1-1h-4l-3.5-2.5 2.5-.5 6 2 2-2 .5.5 1.5 2.5 3.5-.5-4-5v-3l-5-10v-3l1.5-.5 5 12 7-6 6.5-3.5-7-6 .5-1.5 9 6zM262 322l-2 1-1 2 3 2zm135.5-134 1.5.5-4.5 5.5-7.5 6.5q-.5 3 1.5 3.5l6.5 3.5.5 1.5q1.5-2.5 3 1l1.5.5-.5 2.5-1.5-.5-.5-1.5-10-5-1 8-2 1-1.5-15.5 1.5.5 8-8zm-13 4 1.5 3.5-2.5.5-1.5-1.5zm-60 4 1.5.5-1 1-1 11-1 1v9l2.5 1.5 3-3 .5.5v2l-2 3 4 3-.5 1.5-6-4-8.5 7.5-2.5 3.5-1.5-.5 7-8 .5-4.5 3 2 .5-1.5-8-8 .5-.5 2.5.5.5 1.5 1.5-.5v-6l1-1v-6l1.5-4.5zm-81 5h5l3.5 1.5-4.5.5-2-1-.5 1.5 3 4q-1.5 3-3 0l-2-5zm-18 1 6 8 7-5 .5 1.5-6 5v2l5 7q-1.5 3-3 0l-3.5-6.5-6 5-.5-1.5 5-6-5-7zm149 5q2.8 1.3.5 2.5l2 2v2l-2.5 3.5-1.5-.5 2-5-.5-.5-6 6-.5-.5 1-3zm-23 5 10 12 5-6 1.5.5-4 5-1 3 5 6-1.5.5-5-6-11 10-.5-.5 4-4 6-7-9-11z" opacity=".996"/><path stroke="#000" d="m187.5 213 3.5 12.5 1.5 1.5 1.5.5-.5 1.5-1.5.5 2 4-1.5.5q-2.2-.7-1.5-4.5l-2.5-2.5-1.5.5-1.5 12.5-3.5-4.5 1-1 1-9-7-5q1.2-2.8 2.5-.5l4 2q2.3-1.7 1.5-6.5zm.5 10-1 2h2v-1zm91.5-8 3.5.5-1.5 1.5-8 2-3 2-1.5-.5v2l6.5 6.5 3.5 2.5-.5 1.5q-6.5-2.5-10-8-1.5 2.5-3-1l-2.5-1.5 5.5-3.5h2l5-3q3.3.8 4-1Zm108 2 .5 3.5-.5.5-2.5-2.5zm-295 2 1.5.5-5 13-1 9 6 3-2 1 1 2-1.5.5q-1.7-3.2-6-4-.2 3.8-3 5l.5-1.5-.5-2.5h-7l-4.5-1.5.5-1.5 5.5.5-.5 1.5 1.5-.5.5-1.5 1 1h6l.5-1.5-2-1-6-7-1-3 1.5-.5 6 7 6-17zm249 1q4-.5 4.5 2.5l-.5 1.5-4.5-3.5zm56 1 3.5.5-.5 1.5-5 1-7.5 3.5.5 7.5 9.5 6.5-.5 1.5-2.5-1.5-.5-1.5-7-3-2 3-1.5-.5v-5l-3-3v-2l4-3-1-3q1-1.5 2 1l.5 1.5zm-283 2 7 10 4-3 .5.5-4 4 1 1 4 7-1.5.5-5-7-7 8-1.5-.5 8-9-6-9zm225 4q4-.5 4.5 2.5l-1.5 1.5-3.5-3.5zm-75 1 2.5 2.5.5 8.5q1.8 1.7 6 1l1 1 7.5.5-.5 1.5h-8q-.7-1.7-4-1l-.5.5 2 2 6 7v2l-.5.5-5.5-5.5-1.5-2.5-1.5-.5-.5-1.5-1.5.5q.8 4.8-2.5 5.5l-1.5-.5 1-1v-9l-1-2 2-2zm57 0 .5 18.5-.5.5-3.5-3.5 1-3v-10zm-97 4 6 7 4-5 1.5.5-4 7q2.6 1.4 2 6h-1l-2.5-4.5-5 6-1.5-.5 4-5 1-3-5-6zm-42 9 2.5 4.5-1.5-.5-1.5-.5zm204 2 .5 4.5-1.5.5q-2-.5-1.5-3.5zm-42 1 1.5.5 1 3 5.5 6.5 6-7 1.5.5-6 7v2l6 6-.5.5h-2l-6-5-5 6-2 1-.5-1.5 7-8-5-6-2-4z" opacity=".996"/><path stroke="#000" d="m378.5 244 2.5 1.5 9.5 11.5 1-1 1.5.5.5-1.5 4.5.5-6 3 3 5-1.5.5-5-4-3.5 2.5-.5 3.5-2.5-.5-.5-1.5-6 2-.5-.5 2.5-2.5q3.9-.6 5.5-3.5v-8l-5-6zm8.5 12v3q3-1 0-3Zm-138.5-11 1.5.5q.6 4.1-1.5 5.5l-1.5.5 1 2-1.5.5-3.5-6.5 1.5-.5 2 3 1.5-1.5zm-66 2 2.5 2.5v3l2.5 4.5 4.5 1.5-4 1 2 5v3q-1 1.5-2-1-.2-5.7-3.5-8.5l-1.5.5v5l-1 1v5l-1 1-.5 5.5-2.5-4.5v-2l1-1 1-11-8-3 .5-2.5 8 3 .5-5.5zm126 1q5.4 1.1 7.5 5.5l.5 1.5 1.5-.5.5-5.5q2.8 1.2 3 5l4-3 .5 1.5-6 6 2 2 4 6-1.5.5-3-4-1.5.5-1 11-1.5 4.5q-3-.5-2.5-4.5l1-1 1-11-.5-.5-6 6-1.5-1.5 8-8-3-3-3.5-4.5-2.5-1.5zm11.5 7q-3 1-1 2h1zm-235.5-4 .5 2.5-1 1q1.3 4.8-1 6v6l-1 1-.5 7.5-2.5-1.5v-7l1-1 1-11zm181 1 .5 1.5-1.5.5q-1.5-1 1-2Zm-3 4 2.5 2.5.5 11.5 15-10 .5 1.5-16 12 15 10-.5 1.5-6.5-3.5-.5-1.5q-1.5 2.5-3-1l-4-2q.1 5.6-4 7l-.5-4.5 1-2-4-1 4-4zm-145 4 1.5.5-5 9 6 7-1.5.5-5-6-2.5 1.5-4.5 8.5-1.5-.5 6-10v-2l-5-7 1.5-.5 5 6zm103 8 2.5.5 3.5 5.5 1.5-.5 1.5-2.5 2-1 .5 1.5-4 4 3 3 2 4-1.5.5-4-5-3.5 2.5-.5 1.5-1.5-.5 3-5v-2l-5-6zm-151 1 2.5.5.5 1.5q6.1 2.9 10 8l5.5.5-.5 1.5-1.5.5-.5 1.5-3-2h-2l-1 1h-4l-5 2h-4q-1.5-1 1-2l3-1h5l1-1 1.5.5q.8-4.7-2.5-5.5l-6.5-5.5zm297 0 4.5 3.5q-1.5 3-3 0l-2-3zm18 0 .5 1.5q-2.3 1.3-1 6l4.5 5.5 6-2 .5 1.5-4 2 3 4-1.5 1.5-4-4q-5 1-7.5 4.5l-1 7-1.5 1.5-2.5-.5 2-6-1.5-.5q-1.2 2.3-2.5-.5l5-3v-4l1-1 .5-4.5q3.3.8 2.5 5.5l-.5 1.5 4.5-1.5-9-12 1.5-.5 2 1v-2zm-43 3 1.5.5 4.5 7.5 8-5 .5 1.5-7 5 3 9q-1 1.5-2-1l-2.5-5.5-6 3-.5-.5 5-5-1-1-4-7zm21 0q3.9.6 5.5 3.5l-2.5.5-3.5-2.5zm-162 5 2.5 1.5 1 2-1.5.5-2.5-3.5zm-23 4 2.5 1.5-1 7 3.5 4.5 4.5.5-.5 1.5-3.5.5q2.6 1.4 2 6h-1l-3.5-7.5-2.5 1.5-.5 6.5-2.5-2.5-.5-6.5-8-1-1.5-1.5 2.5-.5q1 2 2 0 1.8 1.7 6 1l.5-3.5-3-4q1.2-2.7 2.5-.5l1.5-.5zm19 0h2l3.5 2.5-.5 1.5q-4.6-.7-5-4Zm110 0 6 5 1.5-1.5.5-3.5 2.5 3.5-3 2 .5 1.5q4 .5 4.5-2.5l2.5-3.5 1.5.5-6 7 6 7-1.5-.5-6-4-4 12-2.5-2.5 1-1-.5-2.5-2 1-.5-1.5 7-8-9-7zm-58 1 1.5 1.5v7l-1.5-.5-2 1-4.5-4.5v-2l.5-.5 5 5 .5-.5z" opacity=".996"/><path stroke="#000" d="m80.5 283 .5 3.5-1 1v20l1 1 .5 6.5h2l3.5 3.5-2.5.5-3-2-10 4h-3v-1l3-2q1.5 2.5 3-1l4.5-1.5-12-8 2.5-.5 10 7 .5-1.5-3-3v-24zm181 6 2.5 2.5.5 6.5 3-2h3q3-3 9-3 2.5 1 1 2h-3l-8 3-1.5-.5-.5 1.5-1.5.5 12 9-.5 1.5-3-1-10-7-1 13-2 1-1-14-1.5-.5.5-1.5 1.5-.5zm-161 2 2.5 1.5 5.5 8.5 1.5-.5 2.5-6.5 1.5.5q-.9 5.6-4 9l5 7-1.5.5-4-5-2.5 1.5-4 8-2.5 2.5-.5-2.5 8-13-8-10zm237 3 1.5.5 5.5 10.5q1.6-2.8 6-3l.5 1.5-6 3 3 7-1.5.5-3-6-8 4-.5-.5 3.5-3.5 3.5-1.5v-2l-5-9zm36 4 4 5q9.4 2.1 14.5 8.5l-2.5.5-3-3q-4.7-.8-7-4l-.5 2.5 6 8 2 6-.5.5-2.5-2.5-2-5-4.5-6.5-1.5.5-5 14v3l2.5 2.5 1-1 5-1q1.5 1-1 2l-4.5 1.5 4 5v2l-1.5.5-4-6-3 1-2-1v2q-3-.5-3.5 1.5v4l-3 4-1 4 6.5 5.5 3-2h2l.5 1.5-5 2 3 4-1.5 1.5-2.5-2.5-.5-1.5q-4.7.8-7 4h-2l-4 3h-3l-3.5 3.5q.1 6.4 4.5 8.5 3.3.8 4-1 2.5 1 1 2l-3.5 1.5 3 5-1.5.5-4-5-14 5-.5-.5 2.5-2.5h2l8.5-4.5-6-8v-2l3-2 6.5-10.5 1.5.5v4l-2 3 1.5-.5 11.5-5.5-5.5-5.5-1 1-3.5-.5 2-3-2.5-3.5h-2l-4.5-4.5 2.5-.5q2.8 4.2 8 6l3.5-6.5-1.5.5-3 2q-3-1.5 0-3l9.5-4.5.5-1.5q3.8.8 4.5-1.5l-5-3 1-3q-2.5-.5-2-4 1-1.5 2 1l.5 1.5 1.5-.5 5-15v-4q-1.9-.9-.5-3.5Zm-12 4 4.5 2.5-.5 2.5-4.5-4.5zm-144 1 2.5 1.5 3.5 5.5 7-6 3-1 .5 1.5-9 8 3 3 3 6-1.5.5-5-8-3.5 2.5-1.5 2.5-1.5-1.5 3-3 1-4-5-6zm141 1 4.5 3.5-.5 1.5-4.5-3.5zm-184 1 2.5 3.5v2l-2.5.5v-1l1.5-.5-2-1zm127 0 5 5 .5-.5q-.5-3 1.5-3.5l1.5 1.5.5 3.5 3-4 1.5.5-4 7 7 5-2.5.5-6-4-3.5 4.5v2l-3.5 6.5-1.5-4.5 4.5-8.5 2.5-.5-.5-2.5-6.5-5.5zm-128 9 3.5 1.5 2 7 2.5 2.5q3-.5 3.5 1.5l-4 1 2 3-1.5.5-3-5-3-1-1.5 3.5-.5 8.5-2.5-2.5v-7l1-3-7-4 2.5-.5q.8 1.8 4 1zm2.5 6-1 3h2v-2zm154.5-3 6 10 6-3 .5 1.5-5 4 3 6-1.5.5-4-5-9 6-.5-1.5 9-7-4-6-1-3z" opacity=".996"/><path stroke="#000" d="m80.5 319 1.5 2.5v9l1 1 1 14-1.5-.5-1.5-.5q.8-3.2-1-4v-7l-1-1v-9l-1-3zm32 3 .5 2.5-5 8v3l2 1 4 5-1.5.5-6-5-5 9-.5-3.5 4-8-5-7 1.5-.5 4 5 1.5-.5q1.6-5.9 5.5-9.5Zm187 4 .5 5.5-2 5 8 6-2.5.5-6-4-2 5-2.5-1.5q1.7-1.8 1-6l-8-6 1.5-.5 7 4h2l2.5-4.5q-2-1 0-2zm-53 2 2.5 3.5v2q-1 1.5-2-1-1.7-1.7-.5-4.5Zm-6 2h2l3.5 3.5-2.5.5-3.5-3.5zm-70 9 3.5 2.5 1 6 2.5 4.5 4.5 1.5-5 1 1 4q-1 1.5-2-1l-1.5-4.5-7.5-1.5-.5-1.5-3 1-2.5-1.5.5-1.5 7 2 1.5-2.5zm3.5 8-2 3 1 1h1zm40.5-8 4.5 3.5 1.5 2.5 6-5h2l.5.5-5.5 5.5-1.5.5 5 8-1.5.5-4-6-3.5 2.5-1.5 2.5q-3.2-1.7.5-3.5l2-4-4-5zm130 1 4.5 3.5-.5 1.5-4.5-3.5z" opacity=".996"/><path stroke="#000" d="m88.5 343 .5 1.5-4 5 4 2-4 1 1 14 1 1v7l1 1-3.5.5-.5-6.5-1-1v-8q-2.2-1.2-1-6l2-3-.5-.5-2.5 2.5-4.5 5.5-1.5.5-.5 1.5-.5-2.5 6-6v-3l-1.5.5-10-3-1.5-1.5q1.3-2.7 2.5-.5l13 4zm229 0 6 9 5-4h2l.5.5-3.5 3.5-2.5 1.5v2l4 5-1.5.5-4-5h-2l-7 6-3 2h-2l-.5-.5 2.5-2.5 10.5-7.5-5-8zm-121 7 3.5 4.5-2.5.5-2.5-3.5zm-27 4 2.5.5.5 7.5 1.5.5 2 8 1.5 1.5 4-1 .5 1.5-4 2 1 3-1.5.5-2-4-5.5.5.5 1.5-3-2-7.5-1.5.5-1.5q1.8 1.7 6 1l1.5-1.5v-8l1-1zm2.5 10v8h3l-2-4v-3zm165.5-10 3.5 2.5-.5 1.5-2.5-1.5zm-145 2h2l3.5 2.5-3.5.5-2.5-2.5zm-75 2 1.5.5-4 8v2l4 3-1.5.5-4-2-6 10-1.5-.5 6-11-10-9 2.5-.5 9 7zm216 0 3.5 2.5-.5 1.5-3.5-2.5zm-32 2 2.5 2.5 4.5 9.5 4-3h2l.5.5-3.5 3.5-1.5.5 4 7-1.5.5-4-5-3 1-6 5-6 2q-1.5-1 1-2l12.5-8.5q-1.9-6.6-6-11zm40 10 1.5.5q-1 2.5-2 1zm-111 1 .5 1.5-10 11 4 5-1.5.5-3-4-5 6-.5-2.5 4-5-8-9 1.5.5 8 6 8-9zm107 1 .5 4.5-5 5-1.5 4.5-3.5 2.5 5 10-1.5.5-1.5-1.5.5-1.5-1.5-.5-1-4-1.5-1.5-8 5-4.5 4.5-1 3 5 7-1.5.5-5-6-2.5 1.5-5.5 6.5-1.5-.5 7-9-1.5-.5-3 3-2.5-2.5 5-4-4-5 2.5-.5 3 4h2l6-5v2l3.5-2.5q-.5-3 1.5-3.5l3 1q2.8-1.2.5-2.5l-4-7 1.5-.5 3 4h2l5.5-5.5zm-55 2h2l5.5 3.5q-1.2 2.8-2.5.5l-5.5-2.5zm-214 4 3.5.5.5 1.5 4-1 4 2h6l2-2 .5.5q-.5 3 1.5 3.5 3.8-.7 4.5 1.5l-3.5.5-2-1-.5 2.5 1 1v5l1 1 1 8 4.5 11.5 6.5 1.5q-1.2 2.7-2.5.5l-2.5.5 1 3-1 3 3 5-3.5 1.5-4.5-10.5v-2l-1.5-1.5h-6q-1-2-5-1l-1.5-1.5 6.5-.5q1.3 2.2 6 1l1.5-4.5-2.5-4.5-1.5-.5-1-8-1-1v-4l-1.5-2.5-5 7-1.5-.5q1.7-6.3 6-10l-3.5-1.5h-5l-1-1-6-1q-2.5-1-1-2Zm99 0 2.5 1.5v6l-1 3 2 1 3.5 10.5q3-.5 3.5 1.5l-3 1 1 3-1.5.5-2-4-4.5.5-.5 13.5-2.5-1.5-.5-13.5q-4.5 1-5.5-1.5l6-1 2-3-.5-1.5 2-1 1 7 2.5-.5-3.5-9.5-2.5-.5v-5l1-1zm111 0 4.5 3.5-.5 1.5-4.5-3.5zm-30 2 2.5 1.5 2 3-1.5.5-3.5-3.5zm-5 5 1.5.5 3 5q-1.5 3-3 0l-2-4zm48 4 3.5 4.5-1.5-.5-2.5-1.5zm-181 1 10 6 5-6 1.5.5-4 7 4 5-1.5-.5-4-3-6 9-1.5-.5 1-3 4-5v-2l-9-6zm177 2 3.5 2.5-.5 1.5-3.5-2.5zm-63 17 1.5.5-6 7v2q3.3 1.8 4 6l-1.5.5-3-5-2.5 1.5-3.5 5.5-.5-2.5 4-7-6-7 1.5-.5 6 6 .5-.5zm-51 3 1 11 3.5.5-.5 1.5q-3.7-.7-4.5 1.5 2 1 0 2l-.5 4.5-1.5-.5 1-7-4.5-.5-2 1-1-2q-4.5 1-5.5-1.5l6-1 .5-2.5 2.5 1.5.5 2.5 3.5-.5v-9zm-36 5 1.5.5-5 10 3 2-2.5.5q-1.2-2.2-2.5.5l-5.5 9.5-1.5-.5 6-12-11-8 .5-1.5 12 8zm118 1 6.5 5.5-1.5 1.5-4-4-2.5-1.5zm-66 6q3.9.6 5.5 3.5l-.5 1.5-5.5-3.5zm-85 1 1.5.5-1 2 1.5.5 5-3 .5 1.5-7 5v4l2 4 8.5 12.5.5-2.5-1-3 1.5-.5 1 4 6-5 1.5 1.5-5.5 5.5-1.5.5 2 5v7q2 1 1 5h-1l-2-6q2-1 0-2l-2-4 1-2-1.5-.5-8 8-1.5-.5-.5 1.5-.5-1.5 7-6 1-3-8.5-11.5-1.5.5 1 3-2.5 4.5-.5-3.5 1-1 1-13-.5-.5-2 2-6 3-3 3h-2l-.5-1.5 10-6 .5-1.5 4.5-1.5zm82 3h2l3.5 2.5-2.5.5-3.5-2.5zm-38 14 .5 3.5-2 6 4 2-2.5.5-2-1-3 5-.5-2.5 1-3-11-6 .5-1.5 11 5zm77 1 2.5.5-8 7 5 5v2l-1.5.5-5-6-5 7-1.5-.5 1-3 4-5-6-5 .5-1.5 7 5zm-29 16 1.5.5 2 4-1.5.5-2.5-3.5zm-73 3q4.6 6.4 12 10l5-7 2.5.5-1 3 1 1v5l2 5v6q1.8.7 1 4l-1.5.5-1.5-5.5 1-2-4-3 2-3v-2l-1-1-.5-4.5-1.5.5-2 4 2 1-1.5 2.5-3-1q-2.8 6.7-8 11l-.5-2.5 7-10-10-9zm64 1h2l5.5 3.5-.5 1.5-6-3q-2.5-1-1-2Zm38 14 3.5.5-7 6 .5 1.5 4.5 3.5-.5 1.5-6-4-3 4q-2.7-1.3-.5-2.5l2-3-7-5q1.2-2.8 2.5-.5l6 3zm-40 7 4.5 2.5-2.5.5-2.5-1.5zm-2 5 4.5 2.5-2.5.5-2.5-1.5zm40 11 1.5.5-7 6 3 4v2l-1.5.5-3-5-4 3-.5-2.5 3-2-5-5 .5-.5h2l4 4z" opacity=".996"/><path fill="#415c18" stroke="#415c18" d="m240.5 71 2.5.5-2.5.5zm4 1 6.5.5q1.7 1.8 1 6l-1 1v16l-1 1v7l-1 1v6l-1 1v31l-1 1v12l.5.5 3-3 .5.5-4.5 4.5q-1.2-2.2-2.5.5l.5 3.5 1.5.5.5 1.5 2-1v1l-1.5.5-1 3v11l-1.5 3.5-1-2q-1.2 2.2-2.5-.5l1-2-1.5.5-1.5-1.5h2l-1-3 4-4v-3l-4.5-.5-4 4-.5-.5 1-2-2.5-3.5-1.5.5 1-2h-2l1-2h-2l.5-1.5-3.5.5.5 4.5 1.5-.5-1 2h2l-1 2 1.5-.5 1.5 1.5h-2l1.5 2.5 1.5-.5-1.5 2.5-8-10q-2 .5-1.5 3.5l8 10-7 8v2l2.5.5 3-4v2l2.5-.5q-2.2-1.2.5-2.5l1 1 2-2 .5.5 3.5 4.5 2.5-1.5-.5-1.5 1.5 1.5-.5 1.5 2.5-.5-.5-1.5q2.5 1 1.5 5.5l-1 1-.5 8.5-2.5 1.5q-.6 4.6 2 6v10l-1 1v29l-1 1 1 1v14l-1 1v19q-1.7.7-1 4l1 1v8l-1 1v26l-1 1v6l-1 1 1 1v17l-1 1v20l-1 1v24l-1 1v16l-1 1v14l-1 1-1 28-1 1v59l-1 1v12l-2.5 4.5h-9l-1-1-11-1-2 1v-1l1.5-.5-5.5-1.5-1.5-1.5v-54l1-1v-8q-2-1 0-2v-12l1-1v-25l1-1v-25l1-1v-16l1-1v-12l1-1v-9l1-1v-8l1-1v-8l1-1v-8l1-1 1-17 1-1v-23l1-1v-19l1-1v-16l1-1v-20l1-1v-37l1-1 1-22 1-1v-19l1-1 1-19 1-1 1-11 1-1v-7l1-1q-1.2-4.7 1-6v-8l1-1 1-16-.5-1.5 2 1 6.5-3.5-2-1 1.5-.5 3 1zM233 90l-2 2 1 2h-1v3l-1-2-1 3q1 2 3 0l3 4-1 1 2 3-3 3q-2-2-3 1t2 4l3-1 1-2-1-1 4-4-1 2q1 2 3 0l2 3-1 1 1 1 3-2v2h1v-4l-4-4 1-2-1-2h2l1-1q-1-4 1-4 0-2-3-2l-4 5zm-3 36q-3 1-2 5l-2 1q0 5 4 7v2h2q-1 2-2 0l-2 3h2l-1 2-1-1h-1l1 3-2 3 3 1 4-6 2-1 3 4h2q1-2 4-2l-2-3 1-2q-1-3-2-1l-3-2h2v-2q3-2 1-3h2v-3l-4 2v-2l-3 1q-2 2-3 0h2v-1q-1-3-2-1l-3-2 1-1zm2 1q-2 1 1 2v-1zm8 3v1h2zm-15 70q-3 1-2 5l2-1 1 2-1-1-1 2 2 1h1l-1 2q1 2 3 0v1l-2 2-5-8-3 2 5 8-1 5 1 1-5 5 2 2 2-1 5-6q2 2 3 6l3 2 1-1v-2l-3-5q-4-2 0-4v2l2-1-1 2 1 3h2v-2l3 2v-4l-1-2-2 1 1-2-1-2-2 1 3-4q2-1 0-2 1-3 3-1 2 0 1-3l-1-1v2q-1-3-4-2l-4 4 1 1q-1 3-3 0l1-2h-2l1-2h-1l-2-1h2l-1-3-3 2h-1l2-2zm-2 31-1 4 2-1 1 2-1 2q1 2 3 0l1 2-1 2h2q-1 2-2 0l-1 2-2-2-3 1 3 6-1 2h4l1 3-5 7-1 4h2l4-5 3-2 4 7 2-1-5-9 7-9-1-3-3 2v-1l-1-4-1 2-1-1q1-3 3-1l1-1-1-2h2l1-1v-3l-1 2h-1l1-2-3-1-1 2h2l-2 2q-1-2-2 0-2-4-3-1l-3-2h2v-1zm-3 35-1 5q1 2 3 0l2 3-1 3h2q-1 2-2 0l-2 2-1-1-2 2q2 5 6 8l-6 7v3h2l1-2 6-5 5 7h2l-2-5-4-5q1-4 6-3v-1h-2q1-3 3-1v-3l-1-1-2-2q-2 2-3 0h2l3-4v-4l-3-1q-3 1-1 3l-1 1-2-1v2l-3-2 1-2q-1-3-2-1v-1zm12 35q-3 1-1 3l-6 6v-1q-1-3-2-1l-2-1 1-2-1-2q-1 2-2 0l-2 1 1 2-1-1-1 2q1 2 3 0l2 3h-2l1 3h2q-1 2-2 0l-4 3 1 4 3 1 3 5-5 7-1 4h3l4-7 2-1 3 5h2l-1-4-3-4q1-3 5-2v-1h-3l2-1 3-5-2-2-1 1-2-2-2 1 1-3h-2l6-6 2 1q2-1 0-2h2v-2h-4l3-1zm-18 36-2 3h2l-1 2 2-1 2 3-1 1 2 3 1-2v2q-1 2-2 0l-2 3 1 1q-1-3-4-2l-2 2 8 8-6 11 1 2-4 1v3l7 8h2l-1 1h-2l1 2-5-5-2 2 7 9-6 8-1 5h3l6-10q3 2 4 7l3 2 1-1v-2l-6-8q1-4 4-6l-1 2h4v-3h-2l3-5-1-2-2 2-1-1-2 1q1-3 3-1l2-3-1-1 6-6v1l-2 2h2q2-1 1-4h-3l2-1-1-1-8-8v-2q1-3 5-2v-1h-3l2-1 1-1 1 1-1-4-1-1q-1-2-2 0l-2-1h2v-2q2-1 0-2l3-3-1 2h2q2-1 0-2h2l1-2h-1v-1l-1-2-3 1q-3 1-1 3-1 2-2 0l-3 1-1 1-3-2h2v-1q-1-4-5-3Zm11 70v2l-5 5-6-6h-3l-2 3 1 2 4 3 1-1 2 3h-2l1 2-1-1-2 3h2q-1 2-2 0l-3 2 1 4 2-1 1 1-2 1 5 4-6 8v2h2l6-8 4 6h2l-1-4-3-4 2-4 6-7v-3l-3 1q-2 4-4 1l1-2q-2-1 0-2l-1-2 5-5 1 1v-1q-2-1 0-2zm-3 2-1 2q1 1 2-1zm4 32v2l-2-1v2l-5 5v-1l-3-3v2l-3-3-2 1 4 5-2 4h2q-1 2-2 0l-2 2 1 2-1 3h4l4 5-5 12-2-1-2 3 2-1 1 2v1l2-1q2 1 0 3l1 2h2q-1 2-2 0l-1 2q2 1 0 2l-3-2-3 2 8 7-1 4h-1v2l-3-2 1-1-3-1-1 4 2-1 3 4h-2l1 2-1 1h-2l1 3q4 1 6-1 1-2 2 1h-2l1 2v2q-1-3-6-2l-1 2 5 3-2 3 2 2 3-4 3 2 3 3 1-1-5-6 1-3 4-5v-2q2-2 0-3l-3 4h-1l-2 1 1-3q2-1 0-2l2-2 2 1q1-3 3 1h2l-3-4v-2l-3-1-2-1 1-3q1-3 5-2l-1-1 1-3-2-3-1 1-3-2 5-5-1 2h2q2-1 0-2l2-3v-3l-7-7 9-15-3-1-4 5-5-4 5-5 2 1-1-1 2-3h1l-2 3h2q2-1 1-4zm-16 2v3l1-2zm10 2-1 2q1 1 2-1zm-9 1-1 2h2q1-1-1-2Zm0 11-1 3h1zm18 31-1 3h1zm-7.5-407 .5.5-2.5 2.5-.5-.5zm-4 4 .5.5-2.5 2.5-.5-.5zm49 10 .5 2.5h-1zm2 22 .5 3.5h-1zm-3 13 2.5 1.5-1.5.5q-2.5-1-1-2Zm4 2 .5 19.5h-1z" opacity=".996"/><path fill="#415c18" stroke="#415c18" d="m238.5 143 2.5 2.5-.5.5-2.5-2.5zm-45 9 3.5 4.5v2h-1v-2l-3-3zm59 3 2.5 3.5-2.5 2.5-.5-.5 2-3-2-2zm110 0 .5 3.5h-1zm-113 3 1.5.5-3.5 3.5-.5-.5zm16 1 2.5 1.5-1.5-.5q-2.4-.1-1-1Zm-71 1 .5.5-2.5 2.5-.5-.5zm183 1 .5 2.5-1.5.5q-2.5-1-1-2l1.5.5zm9 1 .5 1.5-4.5 4.5-.5-.5zm-19 3v2l1.5.5-1.5.5q-3-1.5 0-3Zm6 3 1.5 2.5q-1 2.5-2 1l1-2zm3 1 .5 3.5-1.5.5.5-1.5zm-19 2 6 1 2-1v1l-1.5.5 3.5 1.5v-2q2.8 1.3.5 2.5l2.5 2.5 2-1 3.5 3.5-.5.5-3-3-.5.5q2 2.5 1 8l-1 1q1.3 4.7-1 6l-1 18h2l-2.5 2.5-1-1-2.5 2.5.5 2.5 2.5 1.5 1 5-1 1q1.3 4.7-1 6l1 2h-1l-3-4 1-2-1-1 3-3-.5-1.5-1.5.5 2-3-1.5-.5-3 3q-1-2-2 0l-1.5-1.5 4-7-2.5-1.5-4 5q-1.5-3.5-3-1l-2.5-2.5 1-3 1-3-.5-1.5 2.5 1.5-2 1 2.5.5 1.5-2.5-.5-1.5 1 1 3-3 2 2 1.5.5-1.5.5-2-2-.5.5 1.5 2.5 3.5-.5 1-2-2.5-4.5q-1.2 2.3-2.5-.5h2l-.5-2.5-1.5.5 1.5-1.5 1.5.5-1-2 1.5-1.5 1.5.5-.5-3.5-2 1v-1l1.5-.5-2-1-.5-3.5-3.5 2.5q.5 4-2.5 4.5-2.5-1-1-2l1.5.5-1.5-2.5-1.5.5q2-1 0-2v-11zm-122 5 1.5.5 1 2-.5.5-2.5-2.5zm-45 3 .5 3.5h-1zm78 1 .5 2.5h-1zm61 12 2.5 2.5-.5.5-2.5-2.5zm-2 2 3.5 3.5-.5.5-3.5-3.5zm-207 3 2.5.5-2.5.5zm8 0 2.5.5-2.5.5zm139 1 .5 2.5h-1z" opacity=".996"/><path fill="#415c18" stroke="#415c18" d="m354.5 198 1.5 4.5q-1.5 3-3 0zm-227 1h4l7 3v-2q2.8 1.3.5 2.5l3 3-2 6-4 5-5.5 11.5-1-2-6 2-2 2-1-1-1.5.5 1-2-1.5-1.5-1.5.5 1-2-1.5.5-3.5-3.5q5.4-13.1 14.5-22.5ZM116 222q-2 1 1 2v-1zm-3.5-22 .5 4.5h-1zm131 0-.5 1.5-.5 1.5-.5-1.5zm-128 1 2 1 1.5-.5-2.5 1.5q-2.5-1-1-2Zm132 2 1.5.5-2.5 1.5q-1.5-1 1-2Zm19 1 .5 2.5h-1zm58 0 .5 2.5h-1zm59 1 .5 5.5h-1zm-195 6 .5 4.5h-1zm77 0 .5 2.5h-1zm58 0 .5 3.5h-1zm4 6 .5.5-2.5 2.5-2.5-1.5 1.5.5zm14 2 1.5.5-2.5 1.5q-1.5-1 1-2Zm3 1 2.5 3.5h-1l-2-3zm8 0 .5 2.5-2.5 3.5.5-1.5zm-23 3 2.5 3.5q-1 2.5-2 1l1-2-2-2zm26 2 2.5 2.5-4.5 4.5-1-1-2.5 2.5-.5 1.5-.5-1.5 1.5-4.5 1 1 2.5-2.5zm-245 2 6.5 7.5-7 7v2l1.5 2.5q3.8.8 4.5-1.5l-1-2 3.5-3.5q1 2 2 0l1.5 1.5.5 1.5 1.5-.5-1 1v3l-2 4v3l-2 6 1 2h-1l-.5-1.5q-1.5 3.5-3 1l-2.5 2.5-.5 1.5q-1.5-3.5-3-1l-2.5-2.5.5-1.5q-4.7.8-5.5-2.5l3-15zm6.5 31-1 2q1 1 2-1zm205.5-31 .5 5.5h-1zm38 1v2l2-1 2.5 2.5-1 1 1.5 2.5 2.5.5v7l-1 1v6l-1 1v6l-1 1v6l-1 1-.5 5.5-1.5.5 2 1-2.5 1.5-1.5-.5 1.5 2.5 1.5-.5q-2 1 0 2l-1 3v5l-1 1v4l-1 1-1 7-5 15-7 14-1 4-4.5 6.5-.5-1.5 1-2-1.5.5-1.5-1.5h2l-1.5-3.5-1 2-.5-1.5 2.5-2.5.5.5-.5 1.5 2.5-1.5q-2-1 0-2l1-3-2.5-.5v2q-3.2-1.7.5-3.5l-.5-1.5q-4.6-.6-6 2-1-2-2 0l-1.5-1.5-1.5-2.5-1.5.5.5-1.5-2 1-.5-2.5 2-3 1-5 2.5-2.5 5-3 1 1 1.5-.5-1 2 2 3-1.5-.5-2.5 1.5.5 1.5-2-1-1.5 2.5 3 2-3 1 3.5.5 1.5-1.5q-2.2-1.3.5-2.5v2l2.5-1.5-.5-1.5 1 1 1.5-.5-1 3 1.5 1.5 1.5-.5q-2.2 1.3.5 2.5l1.5-.5q-2-1 0-2l1-3-1.5.5-1.5-1.5h2l-1.5-2.5-1.5.5 2.5-2.5.5.5-.5 1.5 4-1 1.5-1.5-.5-2.5-2 3-1.5-.5 2-1-.5-1.5-4-1-2.5 1.5-.5 1.5-.5-1.5 1-2h-2l1.5-3.5 4.5-2.5-1.5-2.5-5 3-1.5-1.5-2-6v-7l1.5-4.5 1.5.5-1 5 1.5-.5 3-1v3l-2-1-2.5 2.5 1 1-1 3 3.5.5 2.5-2.5q-2.2-1.2.5-2.5 2.8 1.3.5 2.5.3 4.8 3.5 6.5l2.5-.5-2-1 1.5-.5 1.5.5-.5-3.5-1.5.5 1-2h-2l2-4-2-2 .5-.5 2 1 1.5-1.5-.5-1.5 2 1q2.3-.7 1.5-4.5l-1.5-.5q-1 2-2 0l-1.5.5.5 1.5-2-1-1.5.5.5-1.5 4.5-2.5-.5-1.5q-4.6-.6-6 2l-1.5-1.5-1-4q2-1 0-2l1.5-1.5 1 1 4.5-4.5-2-1 1.5-.5q2.8 1.3.5 2.5l2.5 3.5 1.5-.5-.5-1.5 3 1 .5-.5-6-6 .5-.5 1.5.5 2-4q-2.2-1.2.5-2.5 1.2 2.2 2.5-.5l-1-3 .5-1.5q-4.2-.7-5 2l-1.5-1.5 3.5-3.5 1.5-.5-.5-2.5h-2l-4 3-1.5-2.5 8-7-1-2zm1.5 18-1 3h1zm-2 14q-2 1 1 2v-1zm1 3-3 1v1h3zm-21 22-1 3h1zm10 27-1 2v1h1zm-18 4q-2 1 1 2v-1zm13 7-1 3h1zm-215.5-94-.5 1.5q-.8 4.7-4 7l.5 1.5q-2.8-1.2-.5-2.5-.5-3.5 2-4l-.5-1.5 1.5.5zm134 0 .5 3.5h-1zm118 3 2.5 2.5-.5.5-2.5-2.5zm-195 1 .5 2.5h-1zm76 3-.5 1.5-.5 1.5-.5-1.5zm-33 1 1 1 1.5-.5-1.5 1.5q-2.5-1-1-2Zm-43 1 .5 2.5h-1zm76 2 .5 4.5h-1z" opacity=".996"/><path fill="#415c18" stroke="#415c18" d="m348.5 241 1.5 3.5-2.5 2.5-.5-.5 1-1zm-258 1 2.5.5-2.5.5zm-2 3 4.5 3.5-1.5.5-3.5-3.5zm143 0-.5 1.5.5 1.5 1.5-.5-2.5 3.5-2-4-1.5.5q1.3-2.7 2.5-.5zm119 3 2.5 1.5 1 2-.5.5-3-3-1.5.5zm-29 3 .5 2.5h-1zm-181 1 1 1 1.5-.5-1.5 1.5q-2.5-1-1-2Zm105 1 2 1 1.5-.5-2.5 1.5q-2.5-1-1-2Zm100 0 2 1q1.2-2.2 2.5.5h-2l.5 2.5 1.5-.5-2.5 2.5-1-1-2.5 2.5-.5 1.5-.5-1.5zm37 0 .5 3.5h-1zm-198 5q2.5 1 1 2l-1.5-.5-.5 1.5-.5-1.5zm77 0 .5 11.5h-1zm-160 2 5.5 7.5-7.5 6.5-.5-3.5 1-1v-6zm-18 2 .5 2.5h-1zm297 2 1.5.5-.5 2.5zm-198 1 .5 2.5h-1zm140 0 2.5 2.5-.5.5-2.5-2.5zm20 2 1.5 3.5-1 1 .5 1.5-2.5-1.5 2-1-2-1zm-260 3 .5 2.5h-1zm24 2 1.5 2.5-1.5-.5-1.5 1.5-2 5q1.3 2.7 2.5.5l2-1v2l1.5-.5 2-5-.5-1.5 4.5 3.5q.8 3.2-1 4v7l-2 3 2 1-2 1-.5 1.5-1-2-2 4-8-11-1.5.5q-1.7 7.8 2.5 9.5l1.5-.5-1 2 1.5 1.5q1.3-2.2 2.5.5h-2l1 2-7.5 7.5-.5-.5q-1.2-4.7 1-6v-24l1.5-3.5q1 2 2 0zm75 0 .5 4.5h-1zm185 1 1 1 1.5-.5-1.5 1.5q-2.5-1-1-2Zm-280 5 2.5 1.5-.5 1.5-1-2q-2.4-.1-1-1Zm140 0 1.5.5-2.5 1.5q-1.5-1 1-2Zm153 1 .5 2.5h-1zm-155 2q1 2 2 0l2 1 1.5-.5-3.5 3.5-1.5-1.5-.5-1.5-1.5.5zm97 0 2.5 1.5-1.5-.5-2 1q-1.5-1 1-2Zm-78 3 3 3 .5-.5.5-1.5.5 1.5-1 1 .5 1.5-4.5-4.5zm7 2 .5 2.5h-1zm-8 1 3.5 3.5-.5.5-3.5-3.5zm18 1 .5 3.5h-1zm58 2 3.5 3.5-.5.5-3.5-3.5zm17 0 .5 3.5-1 2h2l-3.5 4.5-.5-2.5zm-20 2 3.5 2.5-.5.5-2-2q-2.4-.1-1-1Zm-132 1 2.5.5-2.5.5zm-5 5 .5 3.5h-1zm80 3q4 1.5 2.5 8.5h-1v-6l-2-2zm102 3 2 2q1.3-2.2 2.5.5l-1.5 2.5-3.5-4.5zm-233 1 .5 2.5h-1zm231 1 2.5 2.5-.5.5-2.5-2.5zm-251 2 3 2q1.5-2.5 3 1l1.5.5-1.5.5-1.5-.5v9l1 1-1.5-.5-1.5.5 1 2-1.5-.5-1.5 1.5-2.5 4.5q-1-2-2 0l-2.5-2.5.5-1.5-2.5.5.5 1.5-1-1-1.5.5.5-14.5q1.5 2.5 3-1l1.5 1.5-1.5-.5-1.5 1.5.5 1.5 1.5-.5-1.5 1.5-1.5-.5.5 3.5 4-3q1.3 2.3 2.5-.5l-1-2 1.5.5 1.5-1.5-.5-1.5-1.5.5 1.5-1.5 1.5.5zm-4.5 9q-3 1-1 2h1zm207.5-8 1.5.5q-1 2.5-2 1zm-184 4 .5 2.5h-1zm97 1 2.5 2.5-.5.5-2.5-2.5zm86 2 2.5 1.5-1.5-.5q-2.4-.1-1-1Zm-88 1q1 2 2 0l2 2 1.5-.5q-2 1 0 2l-2.5 2.5-3.5-5.5zm103 3 2.5 5.5-7.5 5.5.5-1.5zm6 1-.5 1.5-.5 1.5-.5-1.5zm-69 2 .5 2.5-1.5.5q-2.5-1-1-2l1.5.5zm77 0-.5 1.5 1 1-1.5 1.5-1.5-.5 2-1q-2.2-1.2.5-2.5Zm-256 1 .5 3.5h-1zm43 0 .5 9.5h-1zm130 0 1.5 2.5q-1 1.5-2-1zm76 3 .5 2.5h-1zm-234 1 6.5 8.5h-2l1 2h-2l1 2h-2q-1.7 1.8-1 6l2.5 1.5 1.5-1.5-.5-1.5q1.3 2.3 2.5-.5l1-4 1.5-1.5 1 2q1.3-2.2 2.5.5l-.5 1.5 3.5 1.5 1 11-4.5 6.5-8-7h-2l-.5 2.5 1.5 3.5 1-1 3.5 3.5q-2.2 1.3.5 2.5l1.5.5-5 9v2l2 5 4.5 4.5 1.5.5-3 1 .5 3.5q1.3-2.2 2.5.5l-.5 1.5 2-1-.5 1.5 1 1-2 2 .5 3.5 2.5-.5 2.5-4.5-.5 1.5 1 1-1 1 .5 1.5 1.5-.5-1.5 1.5q-1.2-2.2-2.5.5l.5 1.5 1.5-.5-1.5 1.5-1.5-.5 1 4h-1l-.5-2.5-.5 3.5 3.5.5-.5-1.5 1.5-1.5 1.5.5-1-2 1.5-1.5 1.5.5-1-2q1.3-2.7 2.5-.5l1.5-.5-.5-1.5 1.5 1.5q-2.2 1.3.5 2.5l1.5.5 1 3-3.5 6.5-9-3-1.5 2.5 1.5 1.5 7.5 2.5-2.5 1.5-1.5-.5 1.5 2.5 1.5-.5-1 3-1 4 2.5.5 2.5-4.5-.5-1.5 1.5 1.5q-2.3 1.3.5 2.5l2-1 1.5 1.5-1 3-1 3h2l-1.5 1.5-1.5-.5 1 2h-2l1 2h-3l-11-23-2-8-3-6v-3l-2-4-1-7-1-1-1-10-1-1v-5l-1-1v-6l-1-1v-10l-1-1v-18q-2.1-1.1-.5-4.5Zm164 2 .5 9.5h-1zm65 0 1.5.5-.5 2.5-1.5.5.5 1.5q-1.2-2.2-2.5.5l.5 2.5 1-2 2.5 1.5-3 1 3.5.5 7-5 2 3 1.5-.5-.5 1.5 2.5.5-11.5 18.5-2 1q-2.5-1-1-2l1.5.5-1-2q2-1 0-2l1.5-1.5 2 1 2.5-3.5-1.5.5-1-1-1.5-.5 1.5-.5 1.5.5-.5-1.5q-3.7-.7-4.5 1.5 2.3 1.2-.5 2.5v-2l-4 2q-1.5-1 1-2l2.5-1.5-.5-1.5-4.5-.5-1.5-2.5-2 1v-1l1.5-.5-2-1-.5-1.5-2.5.5 2 10-7 6 .5 1.5h2l6-4 1.5 2.5q-1.2 2.7-2.5.5l-2.5 1.5q2.3 1.3-.5 2.5l-2-1-1.5 1.5.5 1.5-1-1-3.5 3.5-.5 1.5-1.5-2.5h2l-2.5-4.5-4.5.5-.5 1.5-1.5.5v2l5 6-2.5 3.5-1.5.5 2 3-1 1 .5 1.5-2-1-1.5 1.5.5 1.5-2-1 .5 1.5-1.5 1.5v-2l-1.5.5-1 2 1.5 2.5 3.5-.5-3-1 2.5-.5 2 1v-2l2 1 1.5-1.5q-2.3-1.2.5-2.5v2l2.5-1.5q-2.2-1.2.5-2.5l2 1 3-1 1.5 1.5-1.5-.5-1 1-4 2-7 6-3 1-3-2-2.5 1.5-.5 1.5-3.5.5.5 3.5 1.5-.5-3.5 2.5-11 3-2.5-1.5q-1-4 1-5v-11l-1-2 10.5-6.5q1 2 2 0l1.5.5-2 1 .5 1.5 1.5.5-3.5 2.5-4-2-.5 2.5 1.5-.5 2.5 2.5q-2.2 1.2.5 2.5l4.5-.5-.5-3.5-1.5.5 1-1-.5-1.5 4 2v-2l1.5 1.5-.5 1.5 2.5-1.5-2-3q2.3-1.2-.5-2.5l-1.5.5.5 1.5-2.5-1.5 2-1-4-2q11.5-7.5 20-18l14.5-19.5q1 2 2 0zM278 376v1h2zm-103.5-45 .5 3.5h-1zm161 0q2.5 1 1 2l-1-1-1.5.5zm-223 1 .5 4.5-.5.5-2.5-2.5zm-29 2 .5 2.5h-1zm215 5q2.5 1 1 2l-1-1-1.5.5zm48 1 3.5 4.5-2.5 1.5-3.5-3.5.5-.5 4 3 .5-1.5-3-3zm3 0 3.5 2.5-1.5.5-2.5-2.5zm-265 2 1.5 3.5-1.5.5zm42 1 .5 3.5h-1zm94 6 2.5 2.5-.5.5-1.5-.5 1 3-1.5 2.5-2.5-1.5-1-2 1.5-1.5 1.5.5 1-2zm41 0 .5 2.5h-1zm27 0 .5.5-2.5 2.5-.5-.5zm-161 2 .5 2.5h-1zm-42 1 .5 3.5h-1zm87 3 .5 4.5h-1zm90 3 .5 2.5h-1z" opacity=".996"/><path fill="#415c18" stroke="#415c18" d="m319.5 358 2 1 1-1 1 1 1.5-.5-1 2 1 2-11.5 12.5-2 1-1.5-1.5 2.5-2.5 2 1q3-.5 2.5-4.5-.7-2.2-4.5-1.5-2.7 1.3-.5 2.5l-2.5 2.5q-2.7-1.2-.5-2.5l-.5-1.5-1.5.5q1.2-2.8 5-3l-2-1 2.5-1.5v2l2.5-1.5q-2.2-1.2.5-2.5l2 1 1.5-1.5q-2.2-1.2.5-2.5Zm-233 4 .5 2.5h-1zm134 1 8.5 8.5-6.5 6.5-1-1-3 3-4.5-4.5 1-3zm-48 2 .5 1.5-1.5 3.5-.5-3.5zm91 1 .5 2.5h-1zm9 0 .5.5-2.5 2.5-.5-.5zm-157 1 2.5 2.5-.5.5-2.5-2.5z" opacity=".996"/><path fill="#415c18" stroke="#415c18" d="m313.5 368 2.5 1.5-1.5-.5q-2.4-.1-1-1Zm-226 2 .5 2.5h-1zm26 0 2.5 1.5q-2.3 1.3.5 2.5l1.5.5 1 7 1 1-3.5 5.5-8.5-6.5 1-1-.5-1.5q1.3 2.3 2.5-.5l-.5-1.5-1.5.5 1.5-1.5 1.5.5-1-2h2l-1-2 1.5.5 1.5-1.5-2-1zm155 0 .5 6.5h-1zm-97 1 2.5.5-2.5.5zm133 1 .5.5-2 2 1 1-1.5 1.5-1.5-1.5zm32 0 .5.5-2.5 2.5-.5-.5zm-165 2q3.8-.7 4.5 1.5l-1.5-.5q-4 .8-3-1Zm-66 4 1.5 2.5q-1 1.5-2-1zm164 5 .5 6.5h-1zm-149 5 2 4 1.5-.5-1.5 1.5-2.5-2.5zm148 9 .5 4.5h-1zm16 6 1.5.5-2.5 1.5q-1.5-1 1-2Zm-116 5 .5 8.5h-1zm95 2 .5 3.5h-1zm4 0 .5 3.5h-1zm-139 2 1.5 3.5-1.5-.5-1.5-.5zm46 0 .5 7.5h-1zm-36 4 1.5 2.5h-1zm-39 2 .5 1.5q-1 2.5-2 1zm26 0 6.5 1.5 1 2-3 2 .5 1.5-2.5-2.5q2.3-1.2-.5-2.5l-2 1zm43 2 1 2 2-1 .5 1.5-2.5.5q-2.4-.9-1-3Zm50 0 2.5 2.5-1 1 .5 1.5 1.5-.5-3.5 4.5-3.5-3.5.5-.5 1.5.5-1-2 1.5.5 1-1 1.5-.5-1.5-1.5-1.5.5zm44 0 .5 2.5-1.5.5q-2.5-1-1-2l1.5.5zm-5 2 2.5 2.5-.5.5-2.5-2.5zm-69 2 1.5 2.5q-1 2.5-2 1 2-1 0-2zm-76 1 .5 1.5q-1 2.5-2 1zm81 0 2.5 2.5-.5.5-2.5-2.5zm68 2 .5 2.5h-1zm-125 3 4.5 8.5 4 5 1 4h-1l-.5-1.5-2 3v-2l-2 1v-2l-2 1v-2l-2 1v-2l-2 1v-2l-3.5 2.5.5 1.5q1.3-2.2 2.5.5-2.2 1.2.5 2.5l6 2 1.5-.5q-2 1 0 2l1 4 1.5 1.5 2.5-1.5.5-1.5 4.5-.5-2-1q1-2.5 2-1l13.5 14.5 1.5.5v12l1 2-2.5.5-8-4-13.5-11.5-1-3 .5-1.5h-3l-5.5-5.5-9-15 3-2-1-2 1.5.5 1.5-1.5 2.5-5.5 3.5-.5zm5.5 25v4h1zm-36.5-23 .5 3.5h-1zm68 0q1.5 1-1 2l-1.5-.5zm87 2 .5 2.5h-1zm-91 2 .5 4.5h-1z" opacity=".996"/><path fill="#415c18" stroke="#415c18" d="m124.5 439 2.5 1.5-1.5.5q-2.5-1-1-2Zm30 0 1.5 2.5q-1 1.5-2-1zm105 3 .5 2.5h-1zm-144 3 2.5 1.5-1.5-.5q-2.4-.1-1-1Zm7 0 .5.5-4.5 4.5-.5-.5zm2 2 .5.5-3.5 3.5-.5-.5zm46 2 .5 3.5h-1zm-23 1 2.5 1.5-1.5.5q-2.5-1-1-2Zm72 3 2.5 2.5-1 1 2 3-2.5 3.5-4.5-4.5 1-1-.5-1.5-1.5.5 1.5-1.5q1 2 2 0l1.5-.5zm39 0 .5 3.5h-1zm-91 8 .5 3.5h-1zm4 0 .5 3.5h-1zm86 2 .5 2.5h-1zm-63 2 1.5 2.5-2.5 1.5v-1l1.5-.5zm27 3 5.5 6.5-3 2 .5 1.5-2-1-3.5 3.5.5.5 1.5.5-1.5.5-1.5-1.5.5-1.5-2 1q-2.5-1-1-2l1.5.5zm-53 5 .5 5.5h-1zm4 0 .5 4.5h-1zm13 10 1.5.5-2.5 1.5q-1.5-1 1-2Zm-12 1 .5 2.5h-1zm46 3 2 1 1.5-.5-4.5 6.5-2.5-2.5.5-.5q1.3 2.3 2.5-.5l-.5-1.5 1.5.5zm30 0 3 3 .5-.5.5-1.5.5 2.5-1.5.5-3.5-3.5zm-2 2 2.5 2.5-.5.5-2.5-2.5zm-33 44 3.5.5-3.5.5z" opacity=".996"/><path fill="#5d2430" stroke="#5d2430" d="m387.5 105 2.5.5-2.5.5zm-3 4 2.5.5-2.5.5zm19 0 3.5.5-3.5.5zm-9 1-.5 1.5-.5 1.5-.5-1.5zm-12 2 2.5.5-2.5.5zm11 2 1.5.5-3.5 1.5v-1zm7 0 2.5 2.5-.5.5-2.5-2.5zm-25 1-.5 1.5-.5 4.5-.5-4.5zm11 2 .5 1.5q-1 2.5-2 1zm11 1q1 2 2 0l1.5.5-2.5 1.5q-2.5-1-1-2Zm4 2 .5 2.5h-1zm-6 1-.5 1.5-.5 1.5-.5-1.5zm12 0 2.5.5-2.5.5zm-30 1 1.5.5-2 1-.5 2.5-.5-2.5zm27 0 .5 2.5h-1zm8 2-.5 1.5-.5 1.5-.5-1.5zm-139 7 5.5 5.5-.5.5-5.5-5.5zm134 1 1.5 3.5-1.5.5zm-32 7 .5 3.5h-1zm34 1 1.5.5-2.5 5.5-.5-1.5 1-3zm-5 1 .5.5-9.5 9.5-.5-.5zm1 4-.5 1.5-1 2 2 1-1.5.5q-2.8-1.2-.5-2.5zm-36 1 4.5.5-4.5.5zm39 4q2.5 1 1 2l-1-1-1.5.5zm-145 7-.5 1.5-.5 1.5-.5-1.5zm133 0 .5 1.5-1.5.5q-1.5-1 1-2Zm-125 35 2.5 2.5-.5.5-2.5-2.5zm53 0 2.5 1.5-1.5-.5q-2.4-.1-1-1Zm-137 16 .5.5-2.5 2.5-.5-.5z" opacity=".996"/><path fill="#577917" stroke="#577917" d="M243.5 71h8l7.5 3.5 3 5 3 9v3l1 1-5 4 1 5-1 2q1.3 2.8 2.5.5l3-1v1l-3.5 2.5.5 2.5 3-1 1.5 1.5v11l-6 5 4.5 6.5 2.5.5-.5 20.5q-5 1-7.5 4.5v3l5.5 5.5 2.5 1.5v12l-1 3 .5 1.5q-3-.5-3.5 1.5l1 5-3 2 .5 2.5 4-2 .5 4.5-1 1-1 12-1 1v6l-1 1 .5 1.5-3.5 2.5 3 6-1 1v6l-2 3 1 1v11q-2.5.5-2 4l2 1-1 3-.5 15.5-2.5 1.5.5 2.5 2.5.5q1.3 4.8-1 6l1 1-1 3v11l-2 2 2 2 1 13-2.5.5-3-1-.5 1.5 4 3-3 2-1 3 6 4-.5 10.5-1.5.5 1 2-2 3 4 3-3 6 3 1 1 13 2 6-1 2 1 1v20l-1.5.5-5-3-.5 2.5 6 5-.5 3.5-3-2h-2l-.5 2.5 6 3-1 1-.5 4.5-6-3-.5 2.5 7 5-1.5 2.5-5-4h-2l-.5 1.5 5.5 5.5 2.5.5q-2 2.5-1 8l-1 1v7l-1 1v10l-1 1-1 17-1.5 4.5-5-5-1.5 1.5 6 7v2l-1.5-.5-4-3-1.5 2.5 6 5q.6 4.1-1.5 5.5-1.9-3.6-7-4l-.5 1.5 8 7-1.5 4.5-8-7h-2l-.5 2.5 10 8-2 8-5 11-7.5 9.5-6 3h-12l-1-1h-6l-1-1-10-2-8-4-7.5-6.5-6-10-3-9-1-9-1-1v-6l-1-1v-10l-1-1v-11l-1-1v-11l-1-1v-12l-1-1v-7l1.5-.5 1 6 2.5-1.5q-1.2-5.2 1.5-6.5l4.5-1.5-.5-2.5-4.5-2.5-.5-7.5-2.5.5q.6 4.1-1.5 5.5l-1.5-1.5v-14l1.5.5 2.5.5 2.5 3.5 1-4 1.5-.5-.5-2.5q-3 .5-3.5-1.5l-2-6 2.5-1.5 7-1 3.5-2.5-.5-1.5-3-1-10.5-8.5.5-1.5q3.8-.7 4.5 1.5l1.5 2.5 1.5-.5q.8-3.2-1-4 3.8-.2 5-3l-6-1-3.5-9.5-1.5-.5 1-1 .5-5.5 1.5.5q-.7 3.8 1.5 4.5l2.5-1.5-1-2 5-1-1.5-2.5q-3 .5-3.5-1.5l8-4-.5-1.5h-3l-8.5-7.5 1-3 .5-8.5q3-.5 3.5 1.5-.5 4 2.5 4.5l1.5-.5-1-3 4-2-6-3-1-5-2-3 3.5-.5 1 1 6 1 .5-1.5-5-3-4-6-1-4 1-1 .5-5.5 1.5.5 2 6 1.5 1.5q2.3-.7 1.5-4.5l-2-3 1.5.5 1.5-1.5-1.5-2.5q-3.7.8-4.5-1.5-1.8-2.2-1-7l5.5-1.5q1.2 2.3 2.5-.5l-6-3-1-2 1-1 1-15 1.5-2.5 5 10 1.5-.5v-3l-2-5 3-2-.5-1.5q-3.7.8-4.5-1.5l-2-6 1.5.5 5 1 .5-2.5-6-7 1-1v-11l1.5-1.5 4 7q2-.5 1.5-3.5l-1-2 1-2-2-2-2-5q.8-3.2-1-4v-6l1.5-1.5 7 7 1.5-.5-6-9 8-7-.5-1.5h-2l-7 7h-2l-.5-7.5 4.5-2.5q.5 2.5 4 2l.5-2.5-1-2 1-2-2.5-.5-3 1q-3.7-1.2-2.5-7.5 2.3-1.2 1-6l2.5-3.5 1.5.5 6.5 8.5q2.8-1.2.5-2.5l-6-9 6-7-1.5-.5-6 6-2.5-2.5v-4l5-5v-2q-4.3-1.2-3-8 2-1 1-5l2.5-2.5 6 8 1.5-.5v-2l-5-6v-2l7-6-.5-1.5h-2l-7 6-.5-3.5 1-1v-3l2-4v-3l2-4v-3l3-9 2.5-3.5 9 11 5 1 .5-7.5-2.5-.5-1 4-2.5-.5v-2l-7-7 11-8-.5-1.5h-2l-8 6 .5-1.5 3-6 5.5-6.5 11-8 9-4q4 1 5-1Zm1.5 1-1 1-7 1-8 4-1 8-1 1v8l-1 1v8q-2 1-1 6l-1 1v7l-1 1-1 11-1 1-1 19-1 1v19l-1 1-1 22-1 1v37l-1 1v20l-1 1v16l-1 1v19l-1 1v23l-1 1-1 17-1 1v8l-1 1v8l-1 1v8l-1 1v9l-1 1v12l-1 1v16l-1 1v25l-1 1v25l-1 1v12l1 1-1 1v8l-1 1v54l2 1 6 2h4l1 1h6l1 1h9l2-4v-12l1-1v-59l1-1 1-28 1-1v-14l1-1v-16l1-1v-24l1-1v-20l1-1v-17l-1-1 1-1v-6l1-1v-26l1-1v-8l-1-1q-1-4 1-4v-19l1-1v-14l-1-1 1-1v-29l1-1v-10l-1-3-1 3-3 3h-1l2-3q2-2 0-3l-7 5-3-4-3-4-2 2v2l4 5 1 3q-1 2-2 1l1-2-5-7q-1-4 2-5l3 1 4 7 4-4 3-1 2 1v-3l3-2 1-13h-1q-3 1-4-1h4l-1-4-5-7 5-6-3-1v-1l4 1v3l-4 4 5 8 1-3v-11l1-1-1-4-2-1q-1-6 3-6v-12l1-1v-31l1-1v-6l1-1v-7l1-1V80l1-1q1-5-1-6zm6 81q-5 2-6 8h2l1 3 5-3 2-3q-2-4-3 0h-2l3-2v-2zm-41 14-1 3 1 1-3-1-1 2 4 3h2l1-3-1-4zm34 33-2 2 4 7h2l-1-4v-2q0 2 5 1v-2l-4-2-2 1zm5 44-2 5-2-3-2 1v3l2 4 3 1q2-1 0-2l3-5v-3zm-48 32q-2 5 2 6l2-1-2-3zm-4 4-1 3 6 3v-2l-3-4zm51 2q-2 4 0 6l-4-4-3 1 1 3 4 3h3q1 2 2 0l-1-8zm-2 45-1 4 1 1-5-3-1 3 5 3 2-1 2 1h1l-1-5zm-50 23-1 3 4 3h1v-2l-2-3zm-4 5-1 2q2 3 7 3v-2l-4-3zm57 24-2 2 5 5 2-1-3-4zm-6 5-1 3 5 5h1v-2l-3-5zm-54 40-1 2 6 3 2-1-4-4zm-2 3-1 3 5 2h2v-1q-2-4-6-4Zm10 31-2 2q1 3 4 5l2-1-3-5zm-9 4-1 3 8 4 1-2-6-5zm-2 21-2 2 4 3h2v-2zm-2 5-2 3 4 2h2v-2z" opacity=".996"/><path fill="#577917" stroke="#577917" d="m232.5 90-.5 1.5-.5 1.5-.5-1.5zm-2 4 1.5.5-2 1 1 3 5 6-5.5 6.5-.5-1.5 5-5-1-1-5-6v-2zm16 1-.5 1.5v3l-3.5 4.5-.5-1.5zm19 1 1.5 2.5-2.5.5-.5-1.5zm-28 1 2.5 2.5-.5.5-2.5-2.5zm1 10 1.5.5 4.5 5.5q2.3-.7 1.5-4.5l-.5-1.5q2.5 1 1.5 5.5l-2.5 1.5-2.5-1.5-3.5-4.5-4 5-3 1q-2.5-1-1-2l2 1zm29 17 1.5.5q.5 3-1.5 3.5l-2.5-1.5zm-38 2 3.5 1.5 2.5 4.5 6-2q2 .5 1.5 3.5h-1l-.5-2.5h-2l-4 3-5-7q-2 .5-1.5 3.5l4 6-.5.5-2.5-2.5-2-3v-4zm10 11 5.5 7.5-1.5 2.5-3 1-4.5-6.5q1-1.5 2 1l2.5 3.5q3 .5 3.5-1.5l-5-6zm-9 2 .5 1.5-3 5 1 2q-1 2.5-2 1 2-1 0-2v-2zm134 9 6 2 3-1q.8 1.8 4 1l5.5 3.5-7.5 5.5-4 2h-3l-6 4-.5-5.5 1-1v-9zm23 7 1.5.5-1.5 4.5q-4.6-.6-6 2l-.5-1.5q2-1 0-2l1.5-1.5 4.5-.5zm-160 4q3.8-.7 4.5 1.5l4 8q-1 1.5-2-1l-3.5-7.5-2.5.5v3l4 6 1 4-1.5.5.5-1.5-5-9zm37 1 4.5 1.5-.5 2.5-4.5-3.5zm112 2q1.5 1-1 2l-6 3h-2q-1.5-1 1-2h2zm-153 1 2.5 2.5-.5.5-2.5-2.5zm162 0 .5.5-4 4-1.5 2.5-.5-3.5zm-11 5 2.5.5-1.5 3.5-3.5-1.5.5-1.5zm-20 2h6l6 2 10.5 9.5 4 9-4 5q1.2 2.8 5 3l1 3q-2 1 0 2v7q2 1 1 5l-1.5-.5-1.5.5-1.5 2.5-4.5 2.5 2.5 1.5 5-3q2.4 2.1 1.5 7.5-3.7.7-3 6l3 3v3l-2.5 3.5-4 1-3.5 2.5 7 4 2 3-1 1-.5 7.5-6.5 3.5.5 2.5h2l3-2 .5 1.5-2.5 1.5-6 1-2 2-4-3-1.5 1.5 3 3 .5 1.5 2.5-.5.5-1.5 4-1 4.5 5.5v2l-1 1v5l-1.5 3.5-3.5 1.5.5 2.5 2.5.5-1 4-1.5 1.5q-3-.5-3.5 1.5l3 4-5 15-1.5 1.5-2-3-1.5 2.5 3 4-1.5 2.5q-3-.5-3.5 1.5l1 4-8 5 .5 2.5q3.5.5 4-2l-.5 1.5-1.5 3.5-4.5-1.5-1.5-2.5-4-2-1.5 1.5 5.5 5.5q3-.5 3.5 1.5l-5 10-6.5 8.5-2.5 1.5-.5 1.5-2.5 1.5v3L326.5 383l-4-5-2.5 1.5 3 4-1.5-.5-3.5-1.5-.5-1.5-1.5.5v7l1 3-7.5 6.5-6-5-.5 2.5 3 4-3.5 2.5-.5-2.5q2.3-1.3-.5-2.5l-1.5.5-1 7-1.5 1.5-1-3-7 5-5-4-1.5 1.5 5 5-2.5 2.5-18 8-.5-5.5 1-1v-11l1-1v-11l1-1v-6l-1-1v-13l11.5-10.5q1.3 2.2 2.5-.5l1-4 6.5-7.5 2 1 .5-1.5q-2.2-1.2.5-2.5l2 1 3-5 7 4 .5-2.5-7-5 1.5-2.5q1.3 3.3 7 2l.5-1.5-5-3v-3l6.5-11.5q4.3.8 6 4h2l.5-2.5q-2.2-1.2-1-6l-2-2-.5-3.5-2.5-1.5 3.5-12.5 6 4h2l.5-1.5-6-6 1.5-1.5 3 1 .5-2.5q-2-1 0-2l1-2-2.5-1.5-2 1-1.5-2.5 1-1 1-12 1-1-.5-1.5 1.5.5 2.5 3.5 2.5-1.5-6-8 7-5-.5-2.5q-3.9-.6-5.5-3.5v-14l1-1v-6l1.5-1.5h2l4 3 1.5-2.5-4-3 2-5-2.5-.5-3 2q-2-.5-1.5-3.5l1-1v-7l1-1v-6l1-1 .5-4.5 4 3h2l.5-1.5-3.5-4.5-1.5-.5q3.2-9.3 10.5-14.5l9-5 6-1zm3.5 1q-4 3-3 11h-2l-2 3 1 4 1 1-5-5q-1-3-2-1l-3-3h-2l-1 3 6 3 9 11-2 5h2l-2 3 3 1 2-3 2-1 1-1 3 3h1v-3l-3-4 4-5v-3l-1-1-2 2h-1l2-4 3 3v3l-3 4v2l3 5-1 2h-3l-2-3-4 5-3-1-1 3-1 1 6 6h-1l-2-2q-1-4-5-3l-3-4-2 1v2l7 9-1 5q-2 1 0 2-2 1-1 6h1l6-6-1-2-2 1 2-2 2 3-5 6-4 3-2-3-2 1v2l3 4v6l-2-2-2 1q-1 3 1 4l-1 2 1 3-1 6h1l3-3q0-4-2-4l2-1 2 4-8 9q1 3-1 4l1 1 2-1-1 2h2l1 3h-1l-1-1-2-2-2 3q2 0 2 4-1 2-2 1l1-2-1-1-2 10-1-2-2 1q-1 3 1 4l-1 2 1 3 1-3v4q-2 1 0 2l-1 2v-1l-1-4-2 4v3h-1l-3 4h3l-2 2q0 5-3 8l-1-1q-1-2-2 1l2 6v1l-1-2-3 7-5 6v2l-2 3q-2 1 0 2l-1-1-11 15q-9 10-20 18 6 1 9 6l-2 3-4-2-2 1q2 0 1 4h-4l-5-4v-2l1-2-7 4 1 2v11q-2 0-1 5l3 1 13-4q-2-1-1-4l4-1v-1l3-2 3 2 3-1 7-6 4-2q1-1-1-2l-8 6-4 2h-3l-2-2 1-2 7-4q3-2-1-3l1-2v2l3 1 2-2v-2l2 2-13 9 1 2 4-1 9-7h2l4 5 2-1-3-5-1-1 5-5-1-2-3 1q-2 4-4 1l1-2 1 2q0-4 6-3l2 4 7-8-2-5-9 7-4 1-2 1 14-9 1-2 5 6h1q0-5-3-6v-2l2-1 4-4-1-2-7 4-1-1 2-1-1-1 2-3v3l3-2h3l1 4-6 5 1 2h2l11-18-2-1-3-4-3 2-1-1 4-3 3 5h3l-3-5v-2l5-4v-3h-2l-5 3-1-1q1-3 3-1l2-4h1l-1 2h3q2 1 1 4l-5 4 3 5 3-4 1-4 7-14 5-15 1-7 1-1v-4l1-1v-5l1-1v-2l-3-4 4-3v-5l1-1v-6l1-1v-6l1-1v-6l1-1v-7l-2-1-2-2-3-3-8 9h-3l12-11 5 6 2-1-5-6v-2l5-6-2-2-4 5-1 1-3-2q0-3 2-4l-1 2 2 2 8-10 1-18q2-2 1-6l1-1q1-6-1-8l-8-6zm-13 6-2 2 4 2 5 1v-2zm30 29-8 10 3 1 3-4h1l-2 4 3 1 2-3v-4zm-33 13-2 2 4 3h3v-1q-2-3-5-4Zm28 1-5 6 4 4v-5l1-1zm-30 6-1 3q1 3 5 2v-2zm23 45-2 2 1 2 6 2v-2zm0 30-2 2 4 4h2zm-4 3-1 3q1 3 6 2v-1l-3-4zm-14 36-1 3 5 3 1-2-3-4zm-7 13-2 2 3 4h3v-2zm-5 4-1 3 5 3 1-2-3-4zm-50 16-2 3 2 1 4 1q2 4 4 0l-4-4zm31 0q-3 1-1 2l2-1zm-34 1-2 1v1h2zm-2 3-1 3q2 3 7 3v-2l-4-4zm13 12-1 3 4 2h2v-1l-3-4zm-4 2-1 3 4 2h2v-1l-3-4zm-51.5-214 2.5 2.5-.5.5-2.5-2.5zm-7 1 .5.5-2.5 2.5-.5-.5zm5 2 .5 1.5-3.5 3.5h-2v-1q3 .5 3.5-1.5zm2 2 3.5 3.5-.5.5-3.5-3.5z" opacity=".996"/><path fill="#577917" stroke="#577917" d="m355.5 186 3 4 1.5-.5-1.5 2.5-3.5-5.5zm-232 11h4l1 1 7 1q5.8 2.7 9.5 7.5l4 12-.5.5-2-2-1.5 1.5 2.5 3.5 1.5.5-.5 4.5-6-5-1.5 2.5 7 7v2l-1 1v4l-2 4v3l-2 6-1.5 1.5-4-3-1.5 2.5 5 4-1.5 2.5q-.5-2.5-4-2l-.5 2.5 4 3-1.5 3.5-5-4-.5 2.5 5 5-1 1v3l-4 10v3l-3 9v4l-1 1v4l-1 1v7l-1 1v10l-1 1v9l1 1v12l1 1v6l1 1 1 7-2 3 3 2 2 6v3l1 1v3l1 1v3l1 1v3l6 18-3 1 1.5 2.5 3.5 2.5 3 9 5 10-1 2 4 3 1 3-1 2 1.5 1.5 1.5-.5 2 5 8 11 2 28-2.5.5-1-1h-3l-9-3-6.5-4.5v-7l-1-1 .5-.5 7 7q5.5 5 14 7l.5-1.5-1-1-.5-12.5-14-13-1 1-4.5.5-1.5 2.5-2 1-2.5-1.5 1-5-1.5-1.5-6-2-3.5-3.5 2.5-3.5 10 5 1.5-4.5q-5-5-7.5-12.5l-4.5 1.5q-1.6 5.9-5.5 9.5l-1.5.5 4 8 10.5 12.5q3.8-.7 4.5 1.5l-1 3 1 2q-1 2.5-2 1-.7-4.2 1-6l-3.5-.5-5 7-4-2-8.5-8.5v-9l-1-1 3-3v-2l-2.5-.5-4 4-.5-.5q.5-3-1.5-3.5l-1.5.5-.5 4.5-8.5-13.5v-5q.5-2 3.5-1.5l3.5-3.5-.5-1.5h-3l-3 2-1-3-4 3-2.5-4.5v-2l1-2-1-2 3.5-.5 1.5-1.5-1.5-1.5-5.5-.5-2-5v-3l-2-2-3-17 1.5-.5q.8 1.8 4 1l.5-1.5q-2-3-7-3l3-2-1.5-3.5-2 1-.5-6.5-1-1v-7l-1-1v-8l3-1q.5-3.5-2-4l3-5-2.5-.5-2 2-.5-.5-1-3v-7l-1-1v-9q-2-1-1-5l2.5-.5 2 1 .5-2.5q-1.3-3.7-6-4l.5-31.5 4 2 1-3 2.5-.5-1.5-2.5-4-1-1.5-1.5 1-3v-7l1-1v-6l1-1v-5l3.5-6.5 4 3 1.5-5.5-6-3 2-6v-3l5.5-13.5 4.5 1.5q-.5 3 1.5 3.5l2.5-1.5-.5-1.5 2.5-.5-.5-2.5-4.5-1.5v-2l-2-3 5.5-6.5 7-4 .5 6.5 1.5 1.5 1.5-1.5.5-4.5 2 1q3.3-1.7-.5-3.5l.5-1.5q4.7 1.3 6-1Zm4.5 2q-10 9-15 23l2-1 2 1 5 8 3-2v1l-3 3-5-7-2-3q-2 3-3 1l-2 1v2l3 3-2-2-6 15v3l-2 4v4l-1 1q-1 3 1 4h-1l-1 5-1 1v6l-1 1v8l-1 1-1 47q2 1 0 2-1 3 1 4v18l1 1v10l1 1v6l1 1v5l1 1 1 10 1 1 1 7 2 4v3l3 6 2 8 7 13 1-3v2h2l1-2v2l-4 2 5 9 5-9-3-3-3-2 1-1 6 5-1 4-5 8 3 1 2-2 3-7q1-3 3-1h2q1-4-2-4l5-8-1-3-7 9-4-3-3-2 1-1 5 4 2-1-5-10 2-3q-2-4-3 0v-1l-1-3-4-3-6 8h-4v-3l4-7 1-1v-2l1 1v2l-5 7v2h3l6-9 4 3h2v-1l-3-3 1-1-1-3 2-3v-3l-4 3-3-4 3-5 1-2-4 1-2-7-3-3-6 9h-2l2-1 5-9 3 2h2v-2l-3-3 3-9-2-1 2-3q2-2 0-3l-4 5v-1q1-5-1-6-1-5 1-6l-1-3-5-5 1-1 3 2v-4l-1-1 5-5v-3l-3 2v-1q0-3-1-4l-3 3-3 7h-1l-2-2q0-4-4-3v-1h2l4 4 4-7 2-1v-9l-3-3-6 10-2 1-3-1q-1-4 1-4l-1-2h2l1-2 3-3v1l-5 7v3h2l6-8 1-3 2-1 1 3 4 2 1-3-4-7 1-3 2-1q2 0 1-3l-3-2-2 2-1 4h-1l1-4 4-5v-7q2-1 1-4l2-1q1-2 2 0h1v-2l-5-6v-2l5-7-1-2 2-6v-3l2-4q1-4-1-4l1-1 3 3 1-1-1-4-3-4 4-3 1-1 1 1-1-2 3-2 5-11 4-5 2-6q-4-7-14-7Zm0 33-3 3 1 2 2-3zm21 209-4 8-9-4-1-1-3 3 11 6-1 3q0 3 2 3l4-5q0 2 4 1v-1l-4-3 2-6v-3zm74.5-228q2 .5 1.5 3.5l-1 2 .5 1.5-1.5-.5 1-5zm12 1 3.5 4.5v4l-2.5 1.5-2.5-1.5-2-5h1l3.5 5.5 1.5-.5v-3l-3-4zm118 7 .5 1.5q-1 2.5-2 1zm-134 4 1.5 2.5q-1 1.5-2-1zm134 2 .5.5-2.5 2.5-.5-.5zm-131 4 4.5.5 3.5 4.5 3-4q3.8-.7 4.5 1.5v2l-4 6 1.5 2.5 1.5-.5-1.5 1.5-2.5-2.5v-2l4-7-2.5-.5-4 5-5-6-2.5.5v2l5 7-2.5 3.5q-2.5-1-1-2l1.5.5 1-3-5-6z" opacity=".996"/><path fill="#577917" stroke="#577917" d="m116.5 235 .5.5-6.5 6.5-.5-.5zm3 3 2.5 1.5-1.5-.5-4.5 4.5-1.5 2.5-3.5-.5-1-2 .5-.5 2 2 6.5-5.5zm111 6 1.5 3.5h-1l-.5-1.5-2 3-.5-1.5zm8 0 .5 1.5q-1 2.5-2 1zm144 0 .5 2.5q-1 1.5-2-1zm-25 1q3.8-.7 4.5 1.5v2l-3.5 3.5.5-1.5.5-1.5 1.5-.5-.5-2.5h-2l-3 2q-2.5-1-1-2 1.5 2.5 3-1Zm-134 2-.5 1.5 1.5 1.5 1.5.5-2.5.5-1.5-2.5zm127 2 2.5 3.5-.5.5-2.5-2.5zm5 5 1.5.5-1 2 5 4 1 2-1.5 2.5h-3l-4.5-3.5-.5-1.5-7 7-.5-.5.5-1.5 2.5-1.5 3.5-4.5 6 5h2l1.5-1.5-7-7zm-126 3 1.5.5-2.5 1.5q-1.5-1 1-2Zm-113 1 1.5.5-4.5 4.5-.5-.5zm-12 1h3l4.5 4.5-.5 1.5-4-5q-4 .8-3-1Zm115 7q4.8-.7 5.5 2.5l1.5 2.5 4-3h3l.5 4.5-3 4 2 2-.5.5-1.5-.5-2-3 4-4v-2l-1.5-.5-3.5 2.5-.5 1.5-5-6-2.5.5q.5 5.9 5 8l-3.5 4.5-.5-1.5q2.5-.5 2-4l-4-4zm-111 4 .5 1.5-4 7v3l1.5.5 5-8q2.5 1 1 2l-1.5.5-2.5 5.5-3 1-2.5-3.5zm246 0 .5 1.5q-1 2.5-2 1z" opacity=".996"/><path fill="#577917" stroke="#577917" d="m355.5 273 2.5 1.5q.8 3.8-1.5 4.5l-4 2q-1.5-1 1-2l3.5-2.5-1.5-2.5-5 3q-2.5-1-1-2 1 2 2 0zm-136 5-.5 1.5-.5 1.5-.5-1.5zm7 1 2.5 1.5-.5 1.5-2-1-1.5 2.5.5 1.5-1.5-2.5zm8 0 .5 3.5-1.5 2.5-2.5-.5 3-2zm108 1 2.5 1.5-5 4 .5 2.5h2l4-3 5 7 1.5-.5v-3l-3-4 2-1 .5-1.5.5 1.5-1 2q2.6 1.4 2 6-.5 2-3.5 1.5-3.4-2.1-4-7l-3 3h-3l-1-1-1.5.5 1-3 3.5-3.5 1.5-.5-2-1zm-122 3 3.5 3.5-.5.5-3.5-3.5zm-121 4 2.5 1.5-1.5-.5q-2.4-.1-1-1Zm124 1 .5.5-3.5 3.5-.5-.5zm2 2 1.5.5-4.5 3.5-.5-.5zm-126 1 .5 2.5 6 8-1.5.5-5.5-7.5zm121 5q1.5 1-1 2l-1.5-.5zm122 1 2 5 6-2q3 .5 2.5 4.5l-6 3 3 5v2l-3.5 1.5-3.5-3.5v-2h1l1.5 3.5 2 1 1.5-2.5-3-5 6-4-1.5-2.5-6 3-2.5-4.5zm-5 3 1.5.5 1 3h-1l-1.5-2.5-1.5.5zm-120 1 4.5 3.5 2.5 3.5 7-7h3q2 .5 1.5 3.5l-8 7q-.5 4 2.5 4.5l1.5-.5-2.5 1.5-3.5-4.5 9-8-.5-2.5-4 1-7 6-5-7-2.5 1.5q1.8 5.2 6 8l-2.5 3.5-1.5-.5 2-3-4-5-1-3z" opacity=".996"/><path fill="#577917" stroke="#577917" d="m338.5 306 1.5.5-6 5 .5 1.5h2l5-3q1.5 1-1 2l-3 2h-3l-1.5-2.5 2.5-3.5zm-161 4 2.5 1.5-.5 1.5-2.5-1.5zm46 5 3.5 4.5-.5.5-3-3-2 2-.5-.5zm107 0 2.5 1.5 2.5 4.5 1.5-.5-2.5 1.5-4-6q-2 .5-1.5 3.5l2 4q-1 2.5-2 1l1-2-2-1q.8-3.2-1-4zm-114 2 2.5 3.5q-1 1.5-2-1zm16 3 .5 1.5-1.5 2.5-3.5-.5 4-2zm100 6 1.5 2.5-2.5 2.5-.5-.5zm-233 4 4.5 5.5-3.5 7.5-1.5-.5 4-8-4-4zm229 1 .5 1.5-3 2-1 3 2.5.5 2-2 .5.5-1.5 2.5q-3.7.8-4.5-1.5-.5-4 2.5-4.5l1.5-.5zm-115 6q4.8-.7 5.5 2.5l1.5 2.5 9-5 2.5 3.5-7 6 1 4h-1l-2-4 7-5 1-2-3.5-.5-7 5-5-6-2.5 1.5 5 6v2l-3.5 4.5q-2.5-1-1-2l1.5.5 2-4-4-5-1-3zm-106 1 3 4 1.5.5-1.5.5-3-4-1.5.5zm-2 3 .5 1.5-4.5 5.5-2.5-1.5 4-1zm212 0 3.5 2.5 1 2-1.5.5-2-4q-2.4-.1-1-1Zm-142 1 4.5 3.5-.5 1.5-3 1-1.5-3.5z" opacity=".996"/><path fill="#577917" stroke="#577917" d="M220.5 350q3 .5 2.5 4.5-1 2.5-2 1l1-2-1.5-2.5-3 4-.5-.5 2-2zm-10 1 4.5 4.5-.5.5-4.5-4.5zm106 1 1.5.5-4.5 3.5-.5-.5zm-89 1 1.5.5-1.5 3.5-3.5-.5 4-2zm-127 2 .5 2.5h-1zm217 0 .5.5-2.5 2.5-6 4-.5-.5 2.5-2.5zm-216 4 4 5 2.5 1.5-1.5.5-5.5-5.5zm121 0 5.5 6.5-.5.5-5.5-5.5zm77 0q4.5-1 5.5 1.5l2 4-.5.5-2.5-2.5-1.5-2.5-2.5.5-.5 1.5zm-191 1 2 2 1.5-.5-1.5 1.5-2.5-2.5zm112 2 4.5 4.5-.5.5-4.5-4.5zm77 1 4.5 4.5-.5.5-4.5-4.5zm-125 4 1.5 3.5-2.5.5.5-1.5zm58 2 2.5 1.5q.8 3.8-1.5 4.5l-4.5 3.5-1 2 .5 1.5q-1.2-2.2-2.5.5l-.5 1.5-1.5-.5 10-11v-2l-1.5-.5-1.5.5zm72 0 .5.5-2.5 2.5-.5-.5zm-90 1 1 2 1.5.5-1 1 5.5 5.5 8-8 .5.5-8.5 9.5-5-6-4-1-.5 1.5 8 8-2 2-.5 1.5-.5-1.5 1-2-7-7v-3l4-1q-1.7-.7-.5-2.5Zm-106 6 .5.5-2 2 1 4h-1l-2-5 1.5.5zm65 5 8.5 5.5-.5 1.5h-3l-5 2q-3-1.5-1.5-7.5zm39 2-.5 1.5-.5 1.5-.5-1.5zm109 2 1.5 2.5q-1 2.5-2 1zm-99 1 .5 1.5-3.5 3.5-.5-.5zm5 0q2.3.8 1.5 4.5l-3.5.5v-1l2.5-.5zm-117 2h3l3.5 2.5-1.5-.5-4-1-.5 2.5 5 3-1.5.5-4.5-3.5zm61 7 1.5 3.5-1.5.5zm48 1 2.5 2.5-.5.5-2.5-2.5zm-8 10 2.5.5-2.5.5zm15 1q3.8-.7 4.5 1.5l-7 9 2.5 3.5 1.5-.5-1.5 1.5-3.5-3.5v-2l7-8-3.5-.5-6 7-7-6-.5 2.5 5 7-3.5 4.5.5-1.5 2-4-6-7 1.5-2.5h3l5 5 3-4zm-104 9 2.5 1.5-1.5-.5-2.5 1.5 2 3-.5.5-2.5-2.5zm107 3 1.5.5-.5 2.5zm-58 1q2.5 1 1 2l-1.5-.5z" opacity=".996"/><path fill="#577917" stroke="#577917" d="m218.5 421 3.5 4.5q-1 1.5-2-1l-.5-1.5-2.5 1.5-.5 1.5-.5-1.5zm-7 5 1 2 4.5 3.5-.5.5-3-3-2.5-1.5zm5 1 2 2 2-2 .5.5-2.5 2.5-2.5-2.5zm-5 13 4 5 3 2 1-2 5.5-3.5-.5-1.5 1 1 4.5.5q.8 3.8-1.5 4.5-4.6.9-6.5 4.5l4 4-.5.5-4.5-4.5 4.5-4.5 3.5-2.5-.5-1.5-5 1-6 5-6-5-1.5 2.5 6 5-5 7v2l3 1-2.5.5q-2-.5-1.5-3.5l4-7-4-3-1-4 2-1z" opacity=".996"/><path fill="#577917" stroke="#577917" d="m218.5 453 5.5 5.5-.5.5-2.5-1.5-1.5-2.5-2.5 1.5-.5 1.5-1.5-.5zm-79 17 1.5 3.5-2.5.5-.5-1.5zm75 5 .5 2.5h-1zm11 0 2.5.5-8.5 5.5-3.5-2.5 1.5.5 2 1zm4 0 1.5 2.5-7 6 2 2-.5.5-2.5-2.5 4.5-4.5 2.5-1.5zm-18 2 1.5.5q-3.7 1.8-.5 3.5l5.5 3.5-3 4q.5 2 3.5 1.5l2-4 2.5 2.5-.5.5-2-1-4 5-2.5-2.5 1-3 1-3-6-5zm16 10q2 .5 1.5 3.5l-1.5 1.5q-3.2-.7-4 1-1.5-1 1-2l3.5-.5zm-17 1 1.5.5-2.5 1.5q-1.5-1 1-2Zm2 4 2.5 2.5-.5.5-2.5-2.5zm12 6 2.5.5-.5 1.5-2.5-1.5zm-15 1h3l3.5 2.5-1.5.5q-.5-2.5-4-2l-.5 2.5 4 4-.5.5-2.5 1.5.5 2.5h2l3-2 2.5 3.5v2h-1l-1.5-3.5q-1.8 1.7-6 1l-.5-3.5 2-3q-4.4-1.4-2.5-6.5Zm10 0 1.5 1.5-2.5 2.5-.5-.5 2-2zm5 3 .5 1.5-4 3 1 4h-1l-2-4z" opacity=".996"/><path fill="#577917" stroke="#577917" d="M225.5 505q2.5 1 1 2l-1-1-2 2-.5-.5zm-14 9 1.5 2.5q-1 1.5-2-1zm3 7 1.5 2.5q-1 1.5-2-1z" opacity=".996"/><path fill="#6f776f" stroke="#6f776f" d="m277.5 83 .5 2.5-14 12 1 2-2.5 1.5q-2.2-.7-1.5-4.5zm-81 4 3.5 2.5q2.7 5.8 7.5 9.5l10-7h2l.5 1.5-11 8 7 7v2l-1.5.5-7-8-4 1-.5-1.5 2-3-8-9zm36 4 1.5.5 3 6 2.5 2.5 5-6 1.5.5-1.5 2.5q-3-.5-3.5 1.5l-2.5 3.5-6.5-7.5zm36 10q1.5 1-1 2l-1.5-.5zm4 1 9.5 3.5-.5 1.5-10.5-3.5zm-31 1q3.6 1.9 4.5 6.5h-1l-4-5zm-43 2 2.5.5-8.5 7.5h-2l-.5-1.5zm80 11 2 1 1.5-.5-5.5 3.5h-2l-2 2h-2l-5.5 4.5q3.8 1.8.5 3.5l-3.5-4.5 3.5-3.5 4-1zm-93 8 2.5 1.5q3.7 6.8 9.5 11.5l7-6h2l.5 1.5-7 6v2l5 6v2l-1.5.5-6-8-11 9-.5-1.5 10-10-7-7-4-6zm41 7 3.5 2.5 3 5-1.5 1.5-2.5-2.5-3-5zm49 1 6.5 4.5-.5 1.5-6.5-5.5zm-35 2 1.5.5-3.5 3.5-.5-.5zm-5 6q.4 5.1 4.5 6.5v2l-1.5.5-4-5-6 8-1.5-.5q-.5-4 2.5-4.5l2.5-1.5zm45 7 2.5.5-4.5 3.5-9 3-7.5 4.5.5 1.5 16.5 10.5-.5 1.5-12-6-5.5-5.5q-.7-4.7 2.5-5.5l6-3h2zm-97 11 2.5 1.5 2 4-1.5.5-3.5-4.5zm17 6 1.5.5-6 8 7 9-1.5 1.5-3.5-3.5-3.5-5.5-1.5.5-1.5 2.5-6.5 5.5-.5 1.5-2.5-.5 10-11v-2l-3-4 1.5-.5 4 4zm22 0 4.5 3.5 4.5 6.5 2-1-.5 1.5-5 9-3.5 3.5q-3.2-1.7.5-3.5l4-5 1-3-7-8zm16 3 1.5.5-3.5 3.5-.5-.5zm-4 11 4.5 3.5 1 3-1.5.5-4.5-4.5zm159 1 1.5.5-14 16 5 2q-.5 2-3.5 1.5l-3-1-2.5-2.5 3.5-4.5zm-119 3 6.5.5-2.5 1.5-8 1-2.5 1.5q.5 3-1.5 3.5-2.2-.7-1.5-4.5l1.5-1.5h3zm78 0 2.5.5-.5 3.5q-3.6-1.1-2-4Zm-6 1 6 7 1.5.5 4 6v2l-2.5 3.5-.5-4.5-9-10 1-3zm-26 1 2.5 2.5-.5.5-2.5-2.5zm42 0 1.5.5v2l-3.5 7.5-1.5-.5v-3zm-38 9 2.5 1.5-6.5 2.5v-1zm-145 2 1.5.5 8.5 9.5h2l7-7h2l.5 1.5-8 7 6 9-1.5.5-7-7-10 10-1.5-1.5 10-10-10-10zm209 4q5.3-1.2 6.5 1.5l-.5 1.5-6-2zm-29 2 1.5.5q-1 2.5-2 1zm-275 2h2l9.5 8.5 2 3-2.5.5-10.5-9.5zm136 2 1.5.5 5 9q-1 2.5-2 1l-5-8zm125 3 3.5 2.5 1 4 9 11-1.5.5q-1.7-3.8-3.5-.5l-2.5 3.5-1.5-.5 4-7-9-11zm-109 1 .5 2.5-2 1-.5 1.5-1.5-1.5zm75 1 3.5 2.5v2l6.5 6.5 1.5.5-1.5.5-10.5-10.5zm50 1 1.5.5-1 4-3.5 4.5-1.5-2.5zm32 0 3.5.5-12 6 4 7-2.5.5-4-6-6 3q-3-1.5 0-3l4.5-2.5.5-1.5 3 1zm-163 4 1.5.5-2 3 5 9-2.5.5-4-7-8 6-.5-2.5zm-140 2 3.5.5-1.5 1.5-6 2-3 3h-2l-.5-.5 3.5-3.5zm177 1 1.5.5-3.5 1.5v-1zm-4 2 .5.5-2 2 1.5 1.5 8.5 7.5-.5 2.5-9.5-8.5-1-3zm-153 3 2.5 1.5 6 10q-5.5 3-7.5 9.5l-1.5-1.5 7-7v-2l-7-8zm214 1 1.5.5-3.5 2.5-.5-.5zm-197 3 2.5.5-2.5 3.5-2.5-2.5.5-.5zm262 1 2.5 1.5-.5 1.5-2.5-1.5zm-213 1 1.5.5 4 7 10 12v2l-2.5.5-3-1-3-3h-4l-10.5-5.5 2.5-.5 15 6-.5-1.5-10-14zm169 4 2.5 1.5 4.5 8.5q1.8-3.2 6-4l.5 1.5-5 4q-.5 3.5 2 4l-2.5 2.5-.5-.5q.5-3-1.5-3.5-1.7 3.7-3.5.5l.5-1.5 1.5-.5v-2l-5-8zm50 3 1.5.5-1.5 2.5q-3-1.5 0-3Zm-326 1 15.5 4.5-6.5.5-8-3q-2.5-1-1-2Zm242 2 12.5 10.5-1.5 2.5-11.5-11.5zm78 0 1.5.5-.5 1.5q-5.6.9-9 4l-2.5-1.5 3.5-2.5h3zm-167 3 1.5.5 1 4-1.5.5q-2.4-1.8-1-5Zm15 1 .5 2.5-6 8v2l4 7v2l-1.5.5-4-8-2.5 1.5-4.5 6.5-1.5-2.5 6-7v-3l-2-3q1.5-3 3 0l.5 1.5 2.5-1.5.5-1.5q1.2 2.3 2.5-.5-.5-4 2.5-4.5Zm140 0-.5 1.5 1 1 1 2-1.5-.5q-3 .5-3.5-1.5zm-291 2 1.5.5v2l-3.5 3.5-11 7-.5-1.5 12-9zm182 2 2.5 1.5-8 5 11 10-1.5 1.5-9-9-3.5-1.5q-.5-3 1.5-3.5h2zm115 0 2 2q6.1.9 9.5 4.5-1.2 2.8-2.5.5l-7.5-3.5-2-3zm-38 2 1.5 2.5-2.5 1.5-.5-2.5zm-18 2 .5 2.5-4.5 3.5-.5-.5 4-4zm30 1 .5 1.5-1.5.5q-1.5-1 1-2Zm-256 6 2.5.5 1 4 5 5v3l-1.5-.5-4 4-3 2h-2l-.5-1.5 8-6-1-3-5-6zm71 2 10 20h2l3.5 2.5q-1.3 2.8-2.5.5l-4 1-2-3h-3l-9-3-1.5-1.5 3.5-.5 9 3-.5-1.5-6-14zm-58 2 .5.5-2 2-.5 1.5-.5-1.5zm228 2 2.5 1.5 2.5 6.5 6-2 .5 1.5-5 4 1 2-2.5 1.5-2.5-4.5q2-1 0-2l-3-6zm48 1 1.5.5-.5 1.5-13.5 3.5v2l5 6-.5.5-5.5-5.5-1.5-2.5-4 1-.5-1.5 4.5-2.5 9-1zm-324 3 2.5.5-.5 1.5q-3.8-.7-2-2Zm241 3 12.5 11.5-4.5 5.5-.5-1.5 3-2-11-12zm-195 1 1.5.5 3 5-2.5.5-2.5-3.5zm-35 1q3.1 3.4 8.5 4.5l-2.5 1.5-6.5-5.5zm196 3 1.5.5-.5 1.5-3.5-.5zm69 1 1.5 2.5-3.5 1.5-.5-1.5zm-123 2 1.5.5.5 3.5h2l3 2 3-3 1.5 1.5-3 5 4 5 1 4-1.5.5-5-8-4.5 3.5-2.5 3.5-1.5-.5q1.3-5.7 6-8v-2l-5-5zm13 0 1.5.5-.5 2.5zm36 0 1.5 1.5-2.5 2.5-4.5 3.5 8 8-.5.5-2 1-8.5-9.5zm82 2 1.5.5-.5 2.5-2.5-1.5zm-276 2 3.5.5-9.5 5.5-.5-1.5zm261 1 1.5.5 3 9-2.5.5-2.5-6.5zm-14 2 1.5.5-.5 2.5-2.5-1.5zm-222 2 4.5 3.5 5 8h-1l-5.5-8.5-3.5-.5zm212 0q3 1.5 0 3l-5 2-.5-1.5zm33 5 3.5.5-.5 1.5-6 3-1.5-2.5q3.4-.1 4.5-2.5Zm-230 1 1.5.5q.5 3-1.5 3.5zm54 0 4.5 3.5 11.5 16.5q3-.5 3.5 1.5l-.5 1.5-10-2-1-1-8-1-2.5-1.5.5-1.5 6 1 1 1h5l1 1 .5-1.5-11-15zm104 3q2.5 1 1 2l-1.5-.5zm32 0 8.5 10.5q-1.5 3-3 0-1.8-5.2-6-8zm32 1 1.5.5-2.5 3.5-6 3-.5-1.5zm39 0h14l1.5 1.5-13 1-.5 1.5-2.5-3.5zm-270 4 1.5.5-1 3-6.5 6.5-2.5-.5zm6 0 4.5 6.5-1.5.5-3.5-5.5zm-48 1q4-.5 4.5 2.5l-1.5 1.5-3.5-3.5zm211 6q3 1.5 0 3l-10 5-2 2-2.5-1.5 12.5-6.5zm40 1q3.5 1 2.5 6.5l-1.5.5-2.5-2.5q2-1 0-2zm-15 2 7.5 1.5-.5 1.5q-6.1 1.1-8.5-1.5zm26 1 4 12 2-1 .5 2.5-2 1 1 4-1.5.5-2-3-6 4-4 1-.5-1.5 10-6-3-12zm-108 2 1.5.5-1.5 2.5q-3-1.5 0-3Zm15 0 .5 2.5-1.5 2.5-1.5-2.5zm-152 3 2.5.5-2.5.5zm215 0 1.5.5 3 7-1.5.5-3.5-5.5zm-77 1 3.5.5 2.5 3.5 2.5-1.5.5-1.5 1.5 2.5-2 4 4 6-1.5 1.5-2.5-2.5-1.5-2.5-2.5 1.5-4.5 6.5-1.5-.5 6-11-5-6zm121 0 1.5.5-2.5 3.5-3 1q-2.5-1-1-2zm-274 3 4.5.5-4.5 2.5h-3q-1.5-1 1-2zm50 2 1.5.5v2l-7.5 8.5-1.5-.5 3-6zm152 0q4.8 1.7 7.5 5.5l-.5 1.5-7.5-6.5zm-169 2 .5 2.5 5 5-.5.5-5.5-5.5zm265 0 5 1 1.5 1.5-5 1-1.5 2.5-1.5-4.5zm-62 3 3 4q3-.5 3.5 1.5l-.5 1.5q-6.2 1.3-7.5-2.5zm74 0h3l4.5 2.5-3.5.5-4.5-1.5zm-211 2 13 9 5 5 3.5.5-1.5 2.5-7 3-1.5-2.5 4-2-.5-1.5-15.5-12.5zm128 0 4.5.5-.5 1.5q-4.6.8-4-2Zm73 3 1.5 1.5 2 10-1.5.5-3.5-10.5zm-35 1 1.5.5-.5 1.5-1.5-.5zm-266 2 4 3h2l13.5 7.5-2.5.5-17.5-8.5zm206 0q3 1.5 0 3l-5 1v-1zm22 0 1.5.5-3 7 2 3-1.5.5-4.5-3.5-1.5-2.5-3.5-2.5.5-1.5q5 1 7 5zm23 2q2 .5 1.5 3.5l-1 2 5 9-2.5 1.5-1-3-7 5-.5-2.5 7-6-2-3q1-4-1-5zm-201 3 .5 1.5-2.5.5v-1zm-15 1 .5 2.5h-1zm160 0 3.5.5-1 2 3 4-1.5.5-5.5-4.5zm63 2 2.5.5-2.5 3.5-1.5-2.5zm32 4 8.5 4.5-1.5.5-5-2-.5 3.5.5 1.5-2.5-1.5-1-5zm-143 1 3.5 2.5.5 1.5 5 4 3-4q2.8 1.3.5 2.5l-2 4 8 9-1.5 1.5-3.5-3.5-4.5-5.5-6 10-1.5-.5q1.3-7.2 6-11l-8-9zm15 0 1.5 2.5q-1 1.5-2-1zm41 1q3-.5 3.5 1.5l-2.5.5q-2.5-1-1-2Zm-149 1q2.8 1.3.5 2.5l-6.5 10.5-1.5-2.5zm49 0 3.5 1.5-3.5 1.5h-3l-.5-1.5zm-66 3 1.5.5 1 2-2.5 1.5zm-26 1 .5.5-3 3-.5 1.5-2 1-.5-1.5zm30 2 4.5 4.5-.5.5-4.5-4.5zm251 2 1.5.5 1 4-1.5.5q-2.7-1.2-1-5Zm-58 1 3.5 3.5 4 8-1.5-.5-1.5.5-1.5 2.5-2.5-.5 4-5-6-7zm10 1 .5 3.5-1.5 2.5-1.5-2.5zm-200 4q4.8 2.3.5 4.5-1 5-4.5 7.5-2.7-1.3-.5-2.5zm231 0 4.5 3.5-1.5-.5-2.5.5 1 8-1.5.5-.5-4.5-1-1v-5zm8 3h2l5.5 3.5-2.5.5-3-1-2.5-2.5zm-278 5q1.8 1.7 6 1l1 1 12 1 2-1 1.5 3.5q-1 2.5-2 1l-1.5-2.5-3 3-.5-.5-.5-1.5-2-1h-7q-1-2-5-1l-2.5-1.5zm95 0 4 1 13 10 3.5 1.5-1.5 2.5-11 3-.5-2.5 8-2-.5-1.5-13-9-2.5-2.5zm152 6 1.5.5.5 1.5q3.9.6 5.5 3.5l1 2-1.5.5-4-3-.5 6.5-1.5 1.5-.5-4.5-1-1zm-210 1 10 7 5-7 2.5.5-5 8 3 4q-1.7 3.3-3.5-.5-3 .5-3.5-1.5l-1.5-2.5-7.5-5.5zm234 0 1.5.5-.5 1.5-1.5-.5zm-115 1 2.5.5-.5 1.5-1.5.5-.5 1.5-2.5-1.5zm-144 1 2.5.5-9.5 7.5-.5-1.5zm129 1 4.5 3.5-1 2q.5 2 3.5 1.5l4-4 1.5 1.5-4 5 7 10-2.5 1.5-6-9-6 10-2.5-.5 2-5 5-7-6-7zm-45 7 3.5.5-.5 1.5-6 1-.5-1.5zm-52 4 2.5 1.5-3.5 4.5-1.5-.5v-2zm11 0 1.5.5-.5 2.5-1.5-.5zm176 1 2.5 1.5q-2 1-1 5l3 4-2.5.5-1.5-.5q-1.7 1.8-1 6l-1.5 1.5-.5-5.5 1-1v-7zm18 0 1.5 1.5v7l-1.5.5zm-246 6 3 1h8l1 1 6.5.5 1 5-1.5 2.5-1.5-.5v-2l2-3-6.5-.5-1-1h-9l-2.5-1.5zm56 5q2.8 1.3.5 2.5l-2 6 4 2-.5 1.5-5-1-1 2-3-4-8.5-2.5.5-1.5h4l4 2h3q.6-4.9 4-7Zm179 2 3.5 4.5-1.5.5-3.5-3.5zm-221 5 1.5.5v2l-3.5 4.5-1.5-.5zm75 1h3l6.5 3.5-.5 2.5-2-2-6-2q-2.5-1-1-2Zm136 2 .5 3.5q-1 2.5-2 1-.7-3.7 1.5-4.5Zm-123 3 5.5 2.5-.5 2.5-1-2q-3.7.8-4.5-1.5zm52 0 1.5.5v2l-8 10 5 7-1.5 1.5-2.5-2.5-1.5-3.5-2.5 1.5-3.5 5.5-1.5-.5v-2l4-5 1-3-3-4q1-2.5 2-1l2.5 3.5 4-5q1.3 2.3 2.5-.5l-1-2zm-105 1q2 .5 1.5 3.5l-1.5 2.5-1.5-.5zm90 2 1.5.5-1.5 2.5q-3-1.5 0-3Zm-109 3 .5 3.5-5.5 1.5-11 7-.5-1.5 2.5-2.5 12-6zm64 0 4.5.5-.5 1.5-5.5-.5zm-64 7-.5 1.5-1 13-1.5 3.5-1.5-.5 1-3v-5l1-1v-4zm127 17 1.5.5-4 6v2q-3.2 2.3-4 7 4.8 3.2 7 9-1.5 3-3 0l-5.5-6.5-5 10-1.5-.5v-3l4-7v-2l-5-5v-2l1.5-.5 5 5 1.5-1.5 1.5-2.5 2.5-1.5-1-2zm-108 1 1.5.5v9l-1 1q1.7.8 1 4-1 2.5-2 1v-8l-2-6zm-15 8 .5.5-4.5 4.5-2.5-.5zm39 10 1.5 1.5v7l1 1-1 2q2.3 1.3 1 6l-1.5.5-.5-5.5-1-1v-5l-1-1v-4zm-24 1 .5 5.5q-1 1.5-2-1-.7-3.7 1.5-4.5Zm19 4 .5 3.5-7.5 8.5-2.5-.5 7.5-9.5 1.5-.5zm70 15h2q2 4 7 5l3-5 2.5 1.5-4 6 3 2-2.5 1.5-2-1-2 5-2.5-1.5 3-5-8-7zm15 11 3.5 2.5-.5 2.5-3.5-2.5zm0 6 .5 2.5-6 9 6 5-.5 1.5h-2l-5-4-2 3-1.5-.5 1-4-4-3 .5-1.5h2l3 2 4.5-3.5v-3z" opacity=".984"/><path fill="#da6a82" stroke="#da6a82" d="m401.5 110 5 2q1.7-3.7 3.5-.5l-1 1 2 2q-2 1 0 2l-1.5 1.5-4 1-1.5-2.5 3-1-.5-2.5-2.5.5-1.5 2.5-3.5-2.5-1-2 1.5.5zm-32 2 1.5.5q-2 1 0 2l1 2 .5 9.5 1.5-.5-1 2q2.3 1.3-.5 2.5l-1.5.5.5 2.5 2.5 1.5-1.5-.5-2.5 1.5 4 3 1 2-1 2 1 2-2.5 1.5q-2.7-1.2-.5-2.5l-.5-5.5-1.5 2.5-.5 4.5-2 1q-1.1-2.4-4.5-2.5-1.7-1.8-1-6l1-2-1-1v-6l2-3-1-2 2-2q-2-1 0-2l1.5-3.5 1.5-.5q-.5-3 1.5-3.5Zm.5 4-2 4 1 3v6q1 2 2 1zm16.5-3q2 .5 1.5 3.5h-1zm-11 5 .5 2.5h-1zm31 4 2.5.5-3 1-.5 1.5-.5-1.5zm5 0 2.5 1.5-1.5.5q-2.5-1-1-2Zm-10 7q1 2 2 0l1.5.5q1.3 5.8-2 7l.5 1.5-3-2-1.5 1.5.5 1.5-2-1-1.5 2.5 3 3-.5.5-3-3-.5.5-2 4v3l-1.5 1.5-1.5-.5-.5 1.5-3 1v-1l1.5-.5-.5-1.5 1.5-.5-.5-1.5 1.5-.5-.5-1.5 1.5-.5-.5-1.5 1.5-.5-1-2 2-1-1-4 3-2 .5-1.5 1.5.5.5-1.5 1.5.5.5-1.5 1.5.5zm-.5 4-1 2h2v-1zm7.5-3 .5 4.5h-1zm-30 14 .5 2.5h-1zm37 0 1.5.5 1 2-2 1-.5 2.5-2-1q-.5 2.5-4 2l-.5-.5 4.5-4.5 1.5-.5zm-8 8 1.5 2.5-3.5 1.5q-3-1.5 0-3z"/><path fill="#ff8caa" stroke="#ff8caa" d="M403.5 110q5.5-1 6.5 2.5l-.5.5-2-2h-4zm14 33 .5 2.5h-1zm-54 1 2.5.5-2.5.5zm5 1 3.5.5-3.5.5zm40 6 .5 2.5h-1zm-6 4 2.5.5-4.5 1.5v-1z"/><path fill="#4b4f4b" stroke="#4b4f4b" d="M231.5 145q1.5 1-1 2l-1.5-.5zm-43 34 .5.5-2.5 2.5-.5-.5zm195 9 .5.5-2.5 2.5-.5-.5zm-60 5 .5.5-2 2 .5 1.5-1.5-1.5zm-49 2 5.5 5.5-.5.5-5.5-5.5zm46 32 1.5.5-4.5 3.5-.5-.5zm-1 18 2.5 2.5-.5.5-2.5-2.5zm-235 2 .5.5-2.5 2.5-.5-.5zm299 1 1 1 1.5-.5-1.5 1.5q-2.5-1-1-2Zm-57 4 .5.5-4.5 4.5-.5-.5zm-63 4 2.5 2.5-.5.5-2.5-2.5zm53 2 .5.5-4.5 4.5-.5-.5zm-2 22 2.5 2.5-.5.5-2.5-2.5zm-53 8 3.5 3.5-.5.5-3.5-3.5zm46 26q1.5 1-1 2l-2.5-.5zm-136 104 .5 2.5h-1zm53 5 .5 1.5q-1 2.5-2 1zm-123 10 1.5 2.5h-1l-.5-1.5-1.5.5zm9 23 .5.5-2.5 2.5-.5-.5zm10 2 .5 3.5h-1zm25 23 .5 2.5h-1z" opacity=".925"/><path fill="#6f766f" stroke="#6f766f" d="m273.5 83 1 1 1.5-.5-3.5 3.5-.5-.5 2-2zm5 2 .5.5-2.5 2.5-.5-.5zm-81 1q1 2 2 0l1.5 1.5-1.5 1.5-2.5-2.5zm75 4-.5 1.5 1 1-1.5 1.5-1.5-1.5zm-75 1q2.5 1 1 2l-1-1-1.5.5zm5 1 1 1 1.5-.5-1.5 1.5q-2.5-1-1-2Zm74 9 1.5.5-2.5 1.5q-1.5-1 1-2Zm-91 26q2.5 1 1 2l-1-1-1.5.5zm4 0 1 1 1.5-.5-1 1 .5 1.5-2.5-2.5zm-1 4 3.5 3.5-.5.5q-1-2-2 0l-1.5-1.5 1-1zm0 12 .5.5-2.5 2.5-.5-.5zm-4 14 1 1 1.5-.5-1 1 .5 1.5-2.5-2.5zm0 5q2.5 1 1 2l-1-1-1.5.5zm2 15 .5.5-4.5 4.5.5-1.5-1-1 1.5-1.5q1.5 2.5 3-1Zm209 3 .5.5-2.5 2.5-.5-.5zm-77 1 1 1 1.5-.5-1.5 1.5q-2.5-1-1-2Zm71 5 .5.5-4.5 4.5-.5-.5zm-115 6 2.5 2.5-.5.5-2.5-2.5zm6 6 2.5 2.5-.5.5-2.5-2.5zm-194 4 1 1 1.5-.5-1 1 2 2-.5.5-3.5-3.5zm307 0 1.5.5-2.5 1.5q-1.5-1 1-2Zm-304 7 2.5 2.5-.5.5-1-1-1.5.5 1-1zm223 0 1 1 1.5-.5-1.5 1.5q-2.5-1-1-2Zm-134 6q2.5 1 1 2l-1-1-1.5.5zm-1 26 1.5.5-2.5 1.5q-1.5-1 1-2Zm138 4 2.5 2.5-.5.5-2.5-2.5zm-238 5q2.5 1 1 2l-1-1-1.5.5zm-3 2 1.5 1.5-3 3 1 2q-1 1.5-2-1l2-3q-2.2-1.2.5-2.5Zm-8 13 2.5.5-2.5.5zm106 1-.5 1.5-.5 1.5-.5-1.5zm137 9 3.5 3.5-.5.5q-1-2-2 0l-1.5-1.5 1-1zm-44 13q1 2 2 0l3.5 3.5-1.5 1.5-4.5-4.5zm118 9 6.5.5-6.5.5zm-213 2q2.5 1 1 2l-1-1-1.5.5zm133 0 2.5 2.5-.5.5-1-1-1.5.5 1-1zm-241 3 .5 2.5h-1zm208 26 2.5 2.5-.5.5-1-1-1.5.5 1-1zm98 6-.5 1.5-.5 1.5-.5-1.5zm-202 1 2.5 2.5-1.5 1.5-1.5-1.5 1-1zm118 2 4.5 4.5-.5.5-4.5-4.5zm85 1-.5 1.5-.5 1.5-.5-1.5zm-88 1 4.5 4.5-.5.5-4.5-4.5zm-201 36 2.5.5-2.5.5zm83 1 1 1 1.5-.5-1.5 1.5q-2.5-1-1-2Zm179 5 .5 1.5-2.5 1.5v-1l1.5-.5zm-265 8q2.5 1 1 2-1.2-2.2-2.5.5l.5 1.5-1.5-1.5zm243 10 .5 3.5h-1zm-248 2-.5 1.5 1 2q-1 1.5-2-1zm7 1 3.5.5-3.5.5zm6 4 2.5.5-2.5.5zm223 7q2.5 1 1 2l-1-1-1.5.5zm-221 4 1 1 1.5-.5-2.5 3.5q-2.5-1-1-2l1.5.5zm5 12q2.5 1 1 2l-1-1-1.5.5zm46 51q2.5 1 1 2l-1-1-1.5.5zm-5 1 .5.5-2.5 2.5-.5-.5z" opacity=".09"/><path fill="#0f1408" stroke="#0f1408" d="m244.5 70 5.5.5-5.5.5zm21 19 1 2 1.5-.5q-1.5 3-3 0zm-23 12 .5.5-2 2 1 2q-1 1.5-2-1zm26 1 .5.5-2.5 2.5-.5-.5zm3 0-.5 1.5-.5 1.5-.5-1.5zm-52 6 .5 3.5h-1zm2 0 .5 2.5h-1zm161 0-.5 1.5-.5 1.5-.5-1.5zm9 3-.5 1.5-.5 1.5-.5-1.5zm-123 3 .5 2.5h-1zm121 9 .5 4.5-1.5.5q-2.5-1-1-2l1.5.5zm2 0 .5 6.5h-1zm26 3 .5 4.5h-1zm-10 3 .5 2.5h-1zm-139 1 3.5 2.5-.5.5-2-2q-2.4-.1-1-1Zm93 0 .5 10.5h-1zm28 4 .5 3.5h-1zm-151 1-.5 1.5-.5 1.5-.5-1.5zm153 0 .5 2.5h-1zm11 2 2.5 1.5-2 1-.5 1.5-.5-1.5 1-1zm-208 2 .5.5-2.5 2.5-.5-.5zm43 2 2.5 2.5-.5.5-2.5-2.5zm-44 3q2.5 1 1 2l-1-1-3 3-.5-.5zm218 3 .5.5-2.5 2.5-.5-.5zm-37 2 2.5.5-2.5.5zm-12 2 .5 3.5h-1zm-170 6q2.5 1 1 2l-1.5-.5zm188 4q2.5 1 1 2l-1.5-.5zm-192 5 1.5 2.5q-1 1.5-2-1zm51 2 .5.5-3.5 3.5q-2.5-1-1-2l1 1zm30 0 .5 2.5h-1zm-28 1 .5.5-3.5 3.5-.5-.5zm115 0 3.5.5-3.5.5zm-147 2 1.5.5-.5 1.5q-2.5-1-1-2Zm-19 2 .5.5-3.5 3.5-.5-.5zm146 5 .5.5-4.5 4.5-.5-.5zm48 13 .5.5-2.5 2.5-.5-.5zm-199 9 2 2 1.5-.5-1.5 1.5-2.5-2.5zm-45 1 4.5 4.5-.5.5-4.5-4.5zm105 1 1.5.5q-1 2.5-2 1zm-16 9 .5 1.5-4.5 4.5-.5-.5zm-42 1 .5.5-2.5 2.5-.5-.5zm-93 2 2.5 1.5-1.5.5q-2.5-1-1-2Zm221 0 3.5 3.5-.5.5-3.5-3.5zm56 0 .5.5-2.5 2.5-.5-.5zm-142 1 .5.5-3.5 3.5-.5-.5zm90 5 2.5 2.5-.5.5-2.5-2.5zm44 1 .5.5-2.5 2.5-.5-.5zm-220 2 4.5 4.5-.5.5-4.5-4.5zm181 0 2.5 1.5-1.5-.5-3 2q-2.5-1-1-2 1.5 2.5 3-1Zm60 2 .5 1.5q-1 2.5-2 1zm-261 5 .5.5-2.5 2.5q-2.5-1-1-2 1.5 2.5 3-1Zm2 1 .5.5-3.5 3.5-.5-.5zm232 0 .5.5-5.5 5.5-.5-.5zm-4 1 .5.5-3.5 3.5-.5-.5zm-90 1 .5 2.5h-1zm-144 1 .5.5-2.5 2.5-.5-.5zm1 2 .5.5-2.5 2.5-.5-.5zm-41 6 4.5.5-4.5.5zm155 3 .5 2.5h-1zm28 0 .5 3.5h-1zm-19 1 2.5 1.5-1.5-.5q-2.4-.1-1-1Zm115 0 1.5.5-3.5 2.5-.5-.5zm-132 2q1.5 1-1 2l-1.5-.5zm92 0 2.5 2.5-.5.5-2.5-2.5zm-182 3 1.5 2.5q-1 1.5-2-1zm183 4 .5 1.5-1.5.5q-1.5-1 1-2Zm63 2 .5 2.5h-1zm-35 2 .5.5-3.5 3.5-.5-.5zm3 0 .5.5-2.5 2.5-.5-.5zm-243 5 2.5 2.5-.5.5-2.5-2.5zm83 2 .5 1.5q-1.5 3-3 0h2zm-108 1 .5 2.5h-1zm237 1 .5 2.5h-1zm47 0 3.5 2.5-.5.5-2-2q-2.4-.1-1-1Zm-105 2 .5 2.5h-1zm-30 2 .5.5-3.5 3.5-.5-.5zm125 3 .5 1.5q-1 2.5-2 1zm-156 1 2.5 1.5-1.5-.5q-2.4-.1-1-1Zm180 1 1 1 1.5-.5-1 1 .5 1.5-2.5-2.5zm-179 3 2.5 1.5-1.5.5q-2.5-1-1-2Zm-121 1q4-.5 4.5 2.5l-.5.5-2-2q-3 .5-2-1Zm305 0 1.5 2.5h-1zm-42 2 .5.5-2.5 2.5-.5-.5zm-25 2 .5.5-2.5 2.5-.5-.5zm-139 1 .5 3.5h-1zm164 0q1.5 1-1 2l-1.5-.5zm-263 1 .5 20.5h-1zm239 0 .5.5-2.5 2.5-.5-.5zm-59 5 .5 7.5h-1zm-75 8 .5 2.5h-1zm-79 1 1.5 2.5h-1zm-31 9 4.5 2.5-.5 1.5-4.5-3.5zm51 6 .5 2.5h-1zm137 6 1.5.5-.5 1.5q-2.5-1-1-2Zm37 4q2.5 1 1 2l-1.5-.5zm-218 2 .5 2.5h-1zm92 0 .5 2.5h-1zm200 1 1.5 2.5q-1 1.5-2-1zm-194 1 2.5 1.5-1.5.5q-2.5-1-1-2Zm64 1 1 1 1.5-.5-1.5 1.5q-2.5-1-1-2Zm5 1 .5 1.5q-1.5 3-3 0h2zm89 3 2.5 1.5-1.5.5q-2.5-1-1-2Zm-228 2 3.5 3.5-.5.5-3.5-3.5zm-2 1 3.5 3.5-.5.5-3.5-3.5zm106 0 2.5 1.5-1.5-.5q-2.4-.1-1-1Zm-88 1 .5 3.5h-1zm101 0 2.5.5-1.5 2.5v-2q-2.4-.1-1-1Zm-4 3 .5.5-2.5 2.5-.5-.5zm71 0v3l-2.5-1.5zm-121 5 .5 1.5q-1 2.5-2 1zm-90 4-.5 1.5-.5 1.5-1.5-.5zm88 1 1.5 2.5q-1 1.5-2-1zm9 0 2.5 1.5q-.5 2-3.5 1.5v-1l2.5-.5-2-1zm105 0 .5.5-2.5 2.5-.5-.5zm-24 2q2 .5 1.5 3.5h-1zm-176 2 .5 2.5h-1zm240 3 2.5 2.5-.5.5-2.5-2.5zm-48 2 .5.5-4.5 4.5-.5-.5zm-171 2 2.5 2.5-.5.5-2.5-2.5zm157 0 .5 2.5h-1zm-92 1 1.5.5q-1 2.5-2 1zm-9 9 2.5.5-2.5.5zm49 3 7.5 7.5-.5.5-7.5-7.5zm-35 1 2.5 1.5-1.5.5q-2.5-1-1-2Zm92 0 .5 3.5h-1zm64 0 .5.5-5.5 5.5-.5-.5zm-11 1 2.5 1.5-1.5-.5q-2.4-.1-1-1Zm-40 1 2.5 2.5-.5.5-2.5-2.5zm30 1 2.5 1.5-1.5.5q-2.5-1-1-2Zm-46 1 .5 11.5h-1zm-44 2 2.5 2.5-.5.5-2.5-2.5zm28 0 3.5 2.5-1.5.5-2.5-2.5zm-29 2 2.5 2.5-.5.5-2.5-2.5zm-51 1 .5 2.5h-1zm123 3 3.5 3.5-.5.5-3.5-3.5zm-3 3 2.5 2.5-.5.5-2.5-2.5zm-21 1 .5 3.5h-1zm-100 9 .5 5.5h-1zm96 0 .5 3.5h-1zm29 2 .5.5-3.5 3.5-.5-.5zm2 1 .5 1.5-1.5.5q-1.5-1 1-2Zm-28 1 .5 3.5h-1zm-42 2 1.5.5-.5 1.5q-2.5-1-1-2Zm-12 2 3.5 3.5-.5.5-3.5-3.5zm-2 1 3.5 3.5-.5.5-3.5-3.5zm-112 2 2.5.5-2.5.5zm-1 2 2.5.5-2.5.5zm164 8 .5 1.5-1.5.5q-1.5-1 1-2Zm-91 4 .5 2.5h-1zm2 1 .5 3.5h-1zm18 1q3 1.5 0 3l-1.5-.5 2-1zm-43 12 1.5 2.5h-1l-.5-1.5-1.5.5zm21 0 .5 3.5h-1zm90 4 .5 2.5h-1zm-142 2 .5 2.5h-1zm98 2 1.5 2.5q-1 2.5-2 1l1-2zm-45 4 .5 3.5h-1zm88 4 .5 2.5h-1zm-91 1 .5 2.5h-1zm-44 3 7.5 7.5-.5.5-7.5-7.5zm74 2 2.5 1.5-1.5.5q-2.5-1-1-2Zm-26 2 .5 3.5h-1zm86 1 .5 2.5h-1zm-89 3 .5 3.5h-1zm81 3 3.5 3.5-.5.5-3.5-3.5zm-77 6 .5 2.5h-1zm51 0 .5.5-2.5 2.5-.5-.5zm-54 3 .5 2.5h-1zm-2 5 2.5.5-2.5.5zm77 7 4.5 4.5-.5.5-4.5-4.5zm2 5 2.5 2.5-.5.5-2.5-2.5zm-31 10 2.5 1.5-1.5-.5-2 1q-1.5-1 1-2Zm24 20 .5.5-2.5 2.5-.5-.5zm-20 6 4.5.5-4.5.5zm7 0 3.5.5-3.5.5z" opacity=".965"/><path fill="#c03553" stroke="#c03553" d="M386.5 106h4l3.5 3.5 1 4-2.5 1.5q-2.5-1-1-2l2.5-.5-.5-1.5-1.5.5 1-2-1.5.5-8.5-1.5zm9 11 1.5.5 1.5 2.5 2-1 1.5 6.5-7.5 3.5-2 2-.5-12.5zm.5 4-2 2 1 3h2q1 2 2 0l-1-2 1-2-1-1q-1 2-2 0Zm-19.5 0q4.5-1 5.5 1.5l-1.5-.5h-4zm10 2 2.5.5-2.5.5zm28 0 2.5 3.5-1 1 .5 1.5-2 1 .5-1.5-1-3 1-1zm-27 2 1.5.5-.5 1.5q-2.5-1-1-2Zm19 0 1.5.5 1 2-.5.5-2.5-2.5zm-27 9 .5 8.5q-1 2.5-2 1l1-1zm9 0 .5 1.5-2.5 1.5v-1l1.5-.5zm23 3 2.5.5-1 4-3.5 4.5-.5-1.5q2.5-.5 2-4l-1.5-.5-5 6-1.5.5-.5 1.5-1.5.5 1 3-3.5 2.5-6 2-.5-2.5 14.5-13.5z"/><path fill="#c03553" stroke="#c03553" d="m404.5 148 2.5.5-2.5.5z"/><path fill="#a84359" stroke="#a84359" d="M385.5 112v2l2-1-.5 1.5q.5 3.5-2 4v3l2 1-1.5 2.5-1-2-1.5.5.5-1.5-4 1v-1l1.5-.5-4.5-.5-1.5.5 1-1 .5-5.5q1 2 2 0l2.5-.5-.5-1.5 3 1zm-14 1 .5 2.5h-1zm-2 3 .5 8.5 2 6-.5.5-2.5-2.5v-6l-1-3zm41 5 2.5 1.5-1.5 2.5-1.5.5.5 1.5 1.5.5.5 1.5 2 1 1.5-.5 1 3-1.5-.5-4.5.5.5 1.5-2.5-1.5-.5-5.5-1.5.5 1-2-1.5-.5-1.5.5 1.5-2.5 5.5-.5-2-1zm-28 5v2l2-1 3.5 3.5-1 1 .5 1.5 1.5-.5-1.5 3.5-1.5.5 1 4h-1l-.5-1.5q-2.2.8-1.5 4.5h2l-1 1 .5 1.5-1.5.5.5 1.5-3 1v-2l-2 1-.5-4.5-1-1v-9q2-1 1-5h-2l.5-1.5q4 1 5-1Zm-2.5 8-1 9h1zm-9.5-1 2.5 1.5-2.5 1.5zm30 0 1.5.5-.5 1.5-1.5-.5zm4 2 .5 2.5h-1zm-5 2v3l-2-1-1.5 2.5 2 3-3.5 3.5-1.5-1.5 4.5-8.5zm-28 1 .5 5.5q-1 2.5-2 1-.7-4.7 1.5-6.5Zm42 11 1.5.5-2.5 1.5q-1.5-1 1-2Z"/><path fill="#89938a" stroke="#89938a" d="m320.5 183 3.5 3.5-.5.5-3.5-3.5zm-42 15 2.5 2.5-.5.5-2.5-2.5zm-211 90 2.5 1.5-1.5.5q-2.5-1-1-2Zm11 64 .5.5-2.5 2.5-.5-.5z" opacity=".294"/><path fill="#757d75" stroke="#757d75" d="m276.5 86 .5.5-3.5 3.5-.5-.5zm-81 1 1.5 2.5q-1 1.5-2-1zm85 47 2.5 2.5-.5.5-2.5-2.5zm-90 9 .5.5-4.5 4.5-.5-.5zm88 26 1.5 2.5h-1zm115 9 .5.5-9.5 9.5-.5-.5zm-116 3 2.5.5-2.5.5zm115 2 .5.5-2.5 2.5-.5-.5zm-212 16 4.5 4.5-.5.5-4.5-4.5zm214 0 1.5 2.5h-1zm-308 7 2.5 2.5-.5.5-2.5-2.5zm4 0 3.5 3.5-.5.5-3.5-3.5zm94 5 .5.5-4.5 4.5-.5-.5zm127 1 3.5 3.5-.5.5-3.5-3.5zm-228 8 .5.5-2.5 2.5-.5-.5zm185 7 3.5 3.5-.5.5-3.5-3.5zm-92 1-.5 1.5-.5 1.5-.5-1.5zm134 11 4.5 5.5-.5.5-4.5-4.5zm-42 18 5.5 5.5-.5.5-5.5-5.5zm-97 3 .5 2.5h-1zm221 6q1.5 1-1 2l-1.5-.5zm-326 1 2.5.5-3 1 .5 1.5q-3-1.5 0-3Zm319 1 2.5.5-2.5.5zm-75 4 3.5 3.5-.5.5-3.5-3.5zm69 28 10.5.5-10.5.5zm-313 3 2.5 2.5-.5.5-2.5-2.5zm235 9 2.5.5-2.5.5zm-27 16 1.5 2.5h-1zm18 2 2.5.5-2.5.5zm-126 1 2.5 2.5-.5.5-2.5-2.5zm116 6 2.5 1.5-1.5-.5q-2.4-.1-1-1Zm-119 17 2.5 1.5-1.5.5q-2.5-1-1-2Zm-92 4 .5.5-2.5 2.5-.5-.5zm5 17 2.5.5-2.5.5zm1 10 .5.5-4 4-.5 1.5-.5-1.5zm4 0 .5.5-2.5 2.5-.5-.5zm81 6 2.5.5-3 1-.5 1.5-.5-1.5zm155 7 .5 4.5h-1zm-242 4 2.5.5-2.5.5zm9 1 3.5.5-3.5.5zm236 0 .5 1.5-2.5 1.5v-1l1.5-.5zm-242 2 5.5.5-5.5.5zm230 4 3.5 4.5h-1l-3-4zm-223 11q1.5 1-1 2l-1.5-.5zm1 15-.5 1.5-.5 1.5-.5-1.5zm36 36 .5 4.5h-1zm14 11 .5.5-2.5 2.5-.5-.5z" opacity=".506"/><path fill="#869087" stroke="#869087" d="m317.5 181 2.5 2.5-.5.5-2.5-2.5zm-45 11 5.5 5.5-.5.5-5.5-5.5zm42 67 .5.5-3.5 3.5-.5-.5zm-239 96 .5.5-2.5 2.5-.5-.5zm47 111 .5 4.5h-1z" opacity=".631"/><path fill="#9c9e9d" stroke="#9c9e9d" d="M195.5 84q3-.5 3.5 1.5l-1.5-.5q-3 .5-2-1Zm-1 5 1.5 2.5h-1zm3 4 2.5 3.5h-1l-2-3zm81 52 1.5.5-2.5 1.5q-1.5-1 1-2Zm-96 16 1.5.5q-1 2.5-2 1zm215 19 .5.5-10.5 10.5-.5-.5zm-10 2 .5.5-3.5 3.5-.5-.5zm-206 20 2.5 2.5-.5.5-2.5-2.5zm-100 1 2.5 1.5-1.5.5q-2.5-1-1-2Zm5 5 2.5 2.5-.5.5-2.5-2.5zm95 4 .5.5-2.5 2.5-.5-.5zm132 4 2.5 2.5-.5.5-2.5-2.5zm-229 9q1.5 1-1 2l-2.5-.5zm90 6 1.5.5q-1 2.5-2 1zm-4 7 2.5 1.5-1.5-.5q-2.4-.1-1-1Zm140 5 5.5 4.5-.5.5-4-4q-2.4-.1-1-1Zm-229 4 .5.5-2.5 2.5-1.5-.5zm186 5 1.5.5-2.5 1.5q-1.5-1 1-2Zm1 3 3.5 3.5-.5.5-3.5-3.5zm-93 5 1.5 2.5h-1zm-6 1 1.5 5.5h-1l-1-3zm140 0q2.5 1 1 2l-1.5-.5zm-5 11 4.5 4.5-.5.5-4.5-4.5zm80 23 3.5.5-3.5.5zm-83 2 1.5 3.5h-1zm3 5 1.5 2.5h-1zm79 0 7.5.5-7.5.5zm-323 21 .5 2.5h-1zm235 1 1.5.5q-1 2.5-2 1zm-233 3 2.5.5-2.5.5zm213 1 2.5.5-2.5.5zm11 9 2.5 2.5-.5.5-2.5-2.5zm-6 3 3.5 3.5-.5.5-3.5-3.5zm84 3 .5 2.5h-1zm-33 49 1 1 1.5-.5 1 2-1.5-.5q-3.8-.7-2-2Zm-253 15 2.5.5-2.5.5zm215 12 .5 2.5h-1z" opacity=".02"/><path fill="#010000" stroke="#010000" d="m240.5 67 2.5.5-2.5.5zm11 0 2.5.5-2.5.5zm27 25 2.5 1.5-3.5 4.5-.5-.5 3-3-.5-1.5q-2.4-.1-1-1Zm-84 5-.5 1.5 3 4-.5.5-3.5-3.5zm198 6 3.5 3.5-.5.5-3.5-3.5zm-121 2 .5 2.5h-1zm-71 2 .5.5-3.5 3.5-.5-.5zm199 0 2.5.5-2.5.5zm-123 3 4.5 4.5-.5.5-4.5-4.5zm-82 2 .5.5-4.5 4.5-.5-.5zm3 1q2.5 1 1 2l-1-1-2 2-.5-.5zm217 3 .5 2.5h-1zm2 3 2.5 2.5-.5.5-2.5-2.5zm-144 3 .5 2.5h-1zm87 4 .5 3.5h-1zm60 5 .5 2.5h-1zm-146 4 .5 14.5h-1zm145 1 .5 1.5-1.5 2.5-1.5-.5zm-139 1 2.5 2.5-.5.5-2.5-2.5zm-2 2 2.5 2.5-.5.5-2.5-2.5zm143 0q2.5 1 1.5 5.5h-1v-4zm-61 2 .5 2.5h-1zm1 4 .5 2.5h-1zm-178 5 2.5 2.5-.5.5-2.5-2.5zm92 5-.5 1.5-.5 4.5-.5-4.5zm85 1 .5 4.5h-1zm39 4 2.5.5-2.5.5zm-7 1 3.5.5-4.5 1.5q-1.5-1 1-2Zm-3 4 .5.5-5.5 5.5-.5-.5zm-202 2q2.5 1 1.5 5.5h-1v-4zm86 6 .5 8.5h-1zm63 1 .5.5-7.5 7.5-.5-.5zm44 1-.5 1.5 1 2q-1 1.5-2-1zm-266 10 2.5 1.5.5 7.5 1.5.5-2.5.5-1-9q-2.4-.1-1-1Zm206 2 3.5 3.5-5.5 5.5-.5-.5 5-5-3-3zm76 2 .5.5-2.5 2.5-.5-.5zm4 0 .5.5-3.5 3.5-.5-.5zm-214 2 .5 3.5-2.5 2.5-.5-.5 2-2zm-80 1 4.5 4.5-1.5 1.5.5-1.5-4-4zm4 0 2.5 2.5-.5.5-2.5-2.5zm11 1 10.5.5-10.5.5zm269 1 .5.5-2.5 2.5-.5-.5zm4 0 .5.5-3.5 3.5-.5-.5zm-122 3 .5 3.5h-1zm50 0 .5 3.5h-1zm-179 1 5.5 5.5-.5.5-5.5-5.5zm-41 3 .5.5-3.5 3.5-.5-.5zm175 0 2.5 2.5-.5.5-2.5-2.5zm5 1 2.5 3.5q-1 2.5-2 1l1-2-2-2zm-11 2 .5 2.5h-1zm50 0 .5 3.5h-1zm67 2 1.5.5-1 1-.5 5.5zm-203 2 .5 2.5h-1zm85 2 .5 3.5h-1zm50 1 .5 3.5-1.5.5.5-1.5zm81 0 .5 1.5q-1 2.5-2 1zm-314 2 2.5.5-2.5.5zm-3 1 2.5 1.5-1.5.5q-2.5-1-1-2Zm69 0 .5 3.5h-1zm128 0 2.5.5-2.5.5zm-96 2 .5 3.5h-1zm134 5 .5 4.5-4.5 4.5-.5-.5 4-4zm-136 3q2.5 1 1.5 5.5h-1v-4zm86 1 4.5 4.5-.5.5-4.5-4.5zm4 0 3.5 3.5-.5.5-3.5-3.5zm-196 4 2.5.5-2 1 1 2q-1 1.5-2-1zm79 0 3.5 3.5v2l-2.5.5-3.5-3.5.5-.5 4 3 .5-1.5-3-3zm123 1 1.5 2.5h-1zm40 0 .5 10.5h-1zm-238 2 4.5 4.5-.5.5-4.5-4.5zm231 0 1.5 2.5q-1 1.5-2-1zm-160 2 .5 2.5h-1zm-71 2 3.5 3.5-.5.5-3.5-3.5zm307 1 1.5.5q-1 2.5-2 1zm9 2 2.5 3.5-2.5 1.5-3.5-3.5.5-.5 4 3 .5-1.5-2-2zm-122 1 2.5.5-2.5.5zm-4 2 2.5.5-2.5.5zm-200 1 4.5 1.5-3.5.5q-2.5-1-1-2Zm206 0 4.5.5-4.5.5zm111 0 .5 2.5h-1zm-114 4 3.5 3.5-.5.5-3.5-3.5zm35 0 2.5 1.5-1.5-.5-2 1q-1.5-1 1-2Zm-35 4 2.5 2.5-.5.5-2.5-2.5zm37 0 3.5 3.5-.5.5-3.5-3.5zm7 0 .5 3.5-1.5.5.5-1.5zm-171 1 1 2 4.5.5-4.5.5q-2.4-.9-1-3Zm34 0 .5 2.5-1.5.5.5-1.5zm207 1 3.5 3.5-.5.5-3.5-3.5zm-307 2 .5 3.5h-1zm312 3 1.5 2.5q-1 1.5-2-1zm-213 1 .5 2.5h-1zm86 0 .5 8.5h-1zm16 1 .5 1.5q-1 2.5-2 1zm105 1-.5 1.5-.5 3.5-.5-3.5zm4 0 2.5 2.5-.5.5-2.5-2.5zm-311 1 .5 3.5h-1zm237 0 .5 4.5h-1zm-138 3 .5 3.5h-1zm89 3q1.5 1-1 2l-1.5-.5zm-189 2 .5 2.5h-1zm237 0 .5 3.5h-1zm-245 1 2.5 2.5-.5.5-2.5-2.5zm314 0 .5 3.5h-1zm-118 1-.5 1.5 2 2-.5.5-2.5-2.5zm-191 3 2.5 2.5-.5.5-2.5-2.5zm-2 5 2.5.5-2.5.5zm314 0 2.5 1.5-1.5.5q-2.5-1-1-2Zm-211 1 .5 2.5h-1zm133 1 3 3 .5-.5.5-2.5.5 2.5-1.5 1.5-3.5-3.5zm-45 3 .5 2.5h-1zm125 1 2.5 2.5-.5.5-2.5-2.5zm-6 1 .5.5-2 2-.5 2.5-.5-2.5zm-208 1 .5 3.5h-1zm-4 3 2.5.5-2.5.5zm140 0 .5 1.5-5.5 5.5-.5-.5zm-33 1 2.5 1.5-1.5-.5q-2.4-.1-1-1Zm-106 2 2.5.5-2.5.5zm105 1 2.5.5-2.5.5zm-142 3 6.5.5-7 1 .5 1.5q-3-1.5 0-3Zm174 0 .5 2.5h-1zm-45 6 .5 9.5h-1zm-133 1 .5 2.5h-1zm171 0 2.5 2.5-.5.5-2.5-2.5zm-129 2 .5 3.5h-1zm128 1 4.5 4.5-.5.5-4.5-4.5zm88 0 2.5 2.5-.5.5-2.5-2.5zm-259 4 .5 3.5h-1zm-55 1 2.5 2.5-1.5 1.5.5-1.5-2-2zm97 2 .5 2.5h-1zm94 5 1.5.5-.5 1.5q-2.5-1-1-2Zm-137 1 .5 10.5 1 1q-1 1.5-2-1zm36 0 2.5 1.5-1.5.5q-2.5-1-1-2Zm136 1 .5 1.5q-1 2.5-2 1zm-223 1 .5 4.5h-1zm91 0 2.5 1.5-.5 2.5-1-3q-2.4-.1-1-1Zm105 1 2.5 1.5-.5 1.5-1-2q-2.4-.1-1-1Zm97 1q1.5 3.5 3 1l1.5.5-2.5 1.5-2.5-2.5zm-106 1 1.5 4.5q-1 1.5-2-1zm-132 5q3.8-.7 4.5 1.5-1 2.5-2 1l.5-1.5q-4 .8-3-1Zm37 0 .5 3.5h-1zm99 1 2.5 2.5-.5.5-2.5-2.5zm-190 1 .5 3.5h-1zm186 0 3.5 2.5-3-1-.5 5.5zm-135 2 2.5 2.5-.5.5-2.5-2.5zm144 1 2.5 2.5-.5.5-2.5-2.5zm-144 3 5 4 1.5-.5-2.5 1.5-4.5-4.5zm-50 2 .5 3.5h-1zm89 1 .5 5.5h-1zm-39 1 .5 4.5h-1zm135 1 1 4 2-1q1.5 1-1 2l-2.5-1.5zm5 1 1.5.5q-1 2.5-2 1zm90 1 6.5 5.5-1.5.5-5.5-5.5zm-200 2 1 2 1.5.5-1.5.5q-2.4-.9-1-3Zm123 1 .5.5-5.5 5.5-2 1q-1.5-1 1-2zm87 0 2.5 1.5-1.5-.5q-2.4-.1-1-1Zm-239 2 .5 2.5h-1zm229 3q1.5 1-1 2l-2 1q-1.5-1 1-2zm-281 2 .5.5-4.5 4.5-.5-.5zm54 0 .5 2.5q-1 2.5-2 1-.5-3 1.5-3.5Zm35 0 .5 5.5h-1zm184 1q2.5 1 1 2l-1.5-.5-.5 1.5-.5-1.5zm-86 1 .5 3.5h-1zm9 0 .5.5-6.5 6.5-.5-.5zm-140 1 .5 3.5h-1zm-53 1 .5 4.5h-1zm57 4q1.5 1-1 2l-3.5-.5zm28 3 .5 3.5q-.5 2-3.5 1.5v-1l2.5-.5zm-84 2 .5 3.5h-1zm76 2 1 2 1.5.5-1.5.5q-2.4-.9-1-3Zm-14 1 .5 1.5q-1 2.5-2 1zm202 2q1.5 1-1 2l-1.5-.5zm-275 4 2.5.5-2.5.5zm94 0 .5 5.5h-1zm170 0 .5 1.5-3.5 2.5-.5-.5zm-268 1 3.5 1.5-2.5.5q-2.5-1-1-2Zm77 1 .5 1.5-2.5 1.5q-2.5-1-1-2l2 1zm206 0 3.5 2.5-1.5.5-2.5-2.5zm-273 2 2.5.5-2.5.5zm252 4 .5.5-2.5 2.5-.5-.5zm-244 3 .5 2.5h-1zm-5 4q1.5 1-1 2l-1.5-.5zm6 1 .5 2.5h-1zm78 0 .5 2.5h-1zm-6 4 4.5.5-4.5.5zm-11 4 2.5 1.5-.5 2.5-1-3q-2.4-.1-1-1Zm159 0 1.5.5-2.5 1.5q-1.5-1 1-2Zm-160 2 .5 2.5h-1zm163 0 3.5 2.5-.5.5-2-2-2 1q-1.5-1 1-2Zm6 2 2.5 3.5q-1 2.5-2 1l1-2-2-2zm-152 1 .5 7.5h-1zm-13 2 2.5 1.5-.5 1.5-1-2q-2.4-.1-1-1Zm-72 1 3.5.5-4 1 .5 1.5q-3-1.5 0-3Zm70 1-.5 1.5-.5 2.5-.5-2.5zm152 0 2 1 1.5-.5q-.5 2-3.5 1.5zm-219 2 2.5.5-2.5.5zm7 1q3-.5 3.5 1.5l-1.5-.5q-3 .5-2-1Zm211 1 1.5 2.5h-1zm-15 1 .5.5-4.5 4.5-.5-.5zm-121 2 .5 3.5h-1zm114 1 1.5.5-3.5 1.5v-1zm-119 2 3.5.5-4 1 .5 1.5q-3-1.5 0-3Zm3 3 2.5.5-2.5.5zm-3 2 1.5 2.5h-1zm106 0 .5 3.5h-1zm-108 2 .5 2.5q-1.5 3-3 0h2zm2 3 2.5 1.5-1.5.5q-2.5-1-1-2Zm6 2 .5 7.5h-1zm99 0 .5 3.5h-1zm-1 8 .5 3.5h-1zm-159 1 2.5 2.5-.5.5-2.5-2.5zm-1 4 .5 2.5q-1 2.5-2 1zm63 1 .5 2.5q-1 1.5-2-1zm96 4 .5 5.5h-1zm-151 1 1.5 2.5q-1 2.5-2 1l1-2zm1 6 .5.5-2.5 2.5-.5-.5zm149 4 .5 3.5h-1zm-138 4 5.5 5.5-.5.5-5.5-5.5zm137 4 .5 2.5h-1zm-129 3 1.5 2.5q-1 2.5-2 1l1-2zm3 3 2.5 1.5-1.5-.5q-2.4-.1-1-1Zm125 0 .5 2.5h-1zm-118 4q2 .5 1.5 3.5h-1zm117 1 .5 2.5h-1zm-1 6 .5 3.5h-1zm-88 3 1.5 2.5h-1zm87 4 .5 2.5h-1zm-1 5 .5 2.5h-1zm-73 23 3.5 3.5-.5.5-3.5-3.5zm60 8 .5.5-4.5 4.5-.5-.5zm-34 6 2.5.5-2.5.5zm6 1 3.5.5-3.5.5z" opacity=".459"/><path fill="#3c8e3c" stroke="#3c8e3c" d="m135.5 192 2.5.5-2.5.5zm142 3 2.5 2.5-.5.5-2.5-2.5z" opacity=".016"/></svg>