<svg xmlns="http://www.w3.org/2000/svg" viewBox="0 0 640 355"><path fill="#940000" stroke="#940000" d="m406.5 72 11 1 1 1h4l8 3h3l14 6h2l7 4h2l2 2h2l22 12 16.5 13.5 2.5 3.5 2.5-1.5 2.5-3.5 18-13 32-16h2l3-2 15-5 7-1 1-1q4.8 1.3 6-1h10l3.5 2.5v3l-2 4-7.5 7.5-14 10-17 9-17 8-3 1h-5v-1h2l10-5h2l27-14 13-9 8.5-8.5 1-3-3.5-2.5h-8l-1 1h-4l-1 1-7 1-12 4-21 10h-2l-20 11-17.5 13.5-.5 1.5h-6q-8-9.5-19-16l-28-15h-2l-5-3h-2l-3-2h-2l-3-2-12-4h-3l-5-2h-6q-.7-1.7-4-1l-4.5 2.5 1 3 7.5 7.5 17 12 7 3 2 2h2l2 2 6 2 9 5h2l3 2 10.5 3.5-7.5.5-13-6h-2l-18-9-20-13-9.5-9.5q-1.7-1.8-1-6l2.5-2.5q3.3.8 4-1Zm-30 48 109.5.5-.5 39.5-109.5-.5zm118 0 16.5.5-.5 39.5-16.5-.5zm24 0 107.5.5v14L608.5 158l-4.5.5 3 1-87.5.5-1 1zm-323 10h11q1 2 5 1l21 7 20 10 2 2h2l10 7 5.5 5.5 1.5 3.5 4-5 19-13 21-10 15-5h3l1-1q4 1 5-1h10l1.5 3.5q-2.7 6.8-8.5 10.5l-17 11-14 7-7 2-1.5 1.5 62.5.5 1.5-.5-.5 15.5-1-6-.5 3.5-12.5 16.5-4.5.5 17.5.5 1.5-.5-1.5 1.5h-82l-.5-31.5 1.5.5h12l3-2 12-4 21-11 10-7 5.5-5.5 1-3-1.5-1.5h-10l-1 1h-3l-1 1h-3l-9 3-24 11-16 10-6.5 6.5.5 1.5 3.5.5-1 1v27q2.3 1.3-.5 2.5l-12.5-.5.5-31.5q.8 1.8 4 1l.5-1.5-7.5-7.5-9-6-19-10h-2l-5-3h-2l-3-2-12-4-8-1-1-1h-5q-2 .5-1.5 3.5l3.5 4.5 15 11 4 1 9 6h2l7 4h2l14 6 8.5.5v29l-1.5 1.5-84.5-.5.5-30.5 68.5-.5-1.5-1.5-12-4-19-10q-10.2-5.8-17.5-14.5-1.2-5.2 1.5-6.5Zm323 33 1 1 96.5.5-.5 159.5-97.5-.5zm-132 1 99.5.5-.5 159.5-99.5-.5zm108 0 16.5.5-.5 159.5-16.5-.5zm-466 10h10l1 1 7 1 3 2 5 1 15 7 2 2h2l9 6 5.5 5.5.5 1.5 8-7 19-11h2l5-3 12-4h3l1-1h10l.5 3.5-5.5 6.5-12 8-18.5 8.5 49 1q1 4-1 5l.5 1.5-1.5-.5v4l-8.5 11.5-3.5.5 8 1-58.5.5-.5-23.5 11.5-.5 6-3h2l18-9 11.5-8.5 2-4-1.5-1.5h-7l-1 1-10 2-22 10-11 7-5.5 5.5 3 1-.5 23.5-9.5-.5.5-23.5 3.5-.5-6.5-6.5-21-12h-2l-13-6h-3l-5-2h-7l-.5 2.5 6.5 6.5 7 5 4 1 2 2 17 8 6 2 7.5.5-.5 23.5-65.5-.5.5-23.5 52.5-.5-7.5-2.5-16-8-10-7-4.5-4.5-1-4zm155 26 77.5.5-.5 123.5-78.5-.5 1-1zm83 0q1 2 2 0h10l1.5 1.5-1 1v118l1 1-1 1 .5 1.5-13.5-.5zm19 0q1 2 2 0l73.5.5-.5 123.5-75.5-.5zm-266 28 59.5.5-.5 94.5-59.5-.5zm64 0 9.5.5-.5 94.5-9.5-.5zm14 0 58.5.5v93l-1.5 1.5-57.5-.5z" opacity=".996"/><path fill="#c15454" stroke="#c15454" d="m594.5 73 5.5.5-5.5.5zm-56 45q1.5 1-1 2l-18.5-.5 18.5-.5zm-162 1 93.5.5-94 1-.5 37.5-.5-37.5zm95 0 14.5.5-14.5.5zm23 0 8.5.5-8.5.5zm10 0 6.5.5-6.5.5zm37 0 84.5.5-84.5.5zm-193 19 .5.5-3.5 3.5-.5-.5zm-329 89 57.5.5-57.5.5zm65 0 7.5.5-7.5.5zm14 0 56.5.5-56.5.5zm-80 3 .5 91.5h-1z" opacity=".902"/><path fill="#d59999" stroke="#d59999" d="m600.5 83 .5.5-4.5 4.5-.5-.5zm-89 36 .5 204.5h-1zm-246 47 .5 155.5h-1zm19 0 .5 157.5h-1zm-193 31 .5.5-2.5 2.5-.5-.5zm-9 5 .5 119.5q-.5 2-3.5 1.5v-1l2.5-.5zm11 0 .5 23.5h-1zm0 25 1 95 2.5.5-2.5.5-1.5-1.5z" opacity=".98"/><path fill="#fcfcfc" stroke="#fcfcfc" d="m487.5 120 5.5.5-.5 203.5-1-1-4.5-.5zm25 0 5.5.5-.5 202.5-5.5-.5zm-251 46 2 1 1.5-.5-.5 156.5-3 1zm19 0 2 1 1.5-.5-.5 156.5-3 1zm-201 36 2.5.5-.5 119.5-2.5-.5zm15 0 2.5.5-.5 119.5-2.5-.5z" opacity=".996"/><path fill="#c75f5f" stroke="#c75f5f" d="m406.5 69 7.5.5-7.5.5zm58 44 1.5.5-2.5 1.5q-1.5-1 1-2Zm164 6 11.5.5-11.5.5zm-430 7 2.5.5-.5 1.5-2.5-.5zm8 1 2.5.5-.5 1.5-2.5-.5zm5 1 2.5 1.5-1.5-.5q-2.4-.1-1-1Zm4 1 1.5 2.5q-1 1.5-2-1zm121 0 1.5.5q-1 2.5-2 1zm-118 1 1 2 2-1 1.5 2.5-1.5-.5q-3 .5-3.5-1.5zm11 4 1.5 2.5h-1zm118 1 .5 2.5h-1zm-111 2 1.5 2.5q-1 1.5-2-1zm3 3 2.5.5-.5 1.5-2.5-1.5zm11 4 1.5 2.5-1.5-.5-1.5-.5zm-17 12 1 2 1.5-.5 1 2-1.5-.5-2.5-1.5zm9 4 1.5.5-2.5 1.5q-1.5-1 1-2Zm-67 3 55.5.5-55.5.5zm76 0 14.5.5-14.5.5zm30 0 16.5.5-16.5.5zm36 0 50.5.5-50.5.5zm65 0 .5 160.5h-1l-.5-123.5-20.5-.5 21-1zm-210 4 .5 29.5h-1zm-135 4 1.5.5-.5 2.5q-2.4-.9-1-3Zm14 4 1 2 2-1 .5 1.5-2.5.5-3.5-1.5zm-27 1 2.5 1.5-.5 1.5-1-2q-2.4-.1-1-1Zm35 4 2.5.5-2.5.5zm-2 13 1 2 1.5-.5.5 1.5 4.5.5.5 1.5 2-1 .5 1.5-2.5.5-8.5-4.5zm122 7 .5 123.5h-1zm-169 1 1.5.5-.5 122.5-1.5-.5z" opacity=".016"/><path fill="#faf2f2" stroke="#faf2f2" d="M399.5 71q3 1.5 0 3l-1-1-1.5.5zm-1 4 .5 2.5h-1zm202 7 .5.5-5.5 5.5-.5-.5zm-7 4-.5 1.5 1 1-2.5 2.5.5-1.5-1-1zm-6 5 1 1 1.5-.5-1.5 1.5q-2.5-1-1-2Zm-70 13 .5.5-2.5 2.5-.5-.5zm-6 3 1 1 1.5-.5-2.5 2.5-.5-.5 1-1zm-4 3 1 1 1.5-.5-5.5 5.5-.5-.5 4-4zm-313 17 .5 2.5h-1zm139 2 1.5.5-1.5 2.5zm11 0q6-1.5 7.5 1.5l-1.5-.5h-6zm-154 2 2.5.5-2.5.5zm137 0 .5 1.5-4.5 2.5.5-1.5.5-1.5zm-11 4 .5 1.5q-1 2.5-2 1zm-3 1 .5 2.5h-1zm33 0 .5 1.5-2.5 1.5-.5-.5zm-37 2 .5 2.5-3.5 1.5.5-1.5.5-1.5zm35 2 .5.5-3.5 3.5-.5-2.5zm-43 2q2.5 1 1 2l-5 3-.5-2.5h2l.5-1.5 1.5.5zm38 0 .5 2.5q-1 2.5-2 1zm-3 2 .5 2.5q-1 2.5-2 1zm-41 1 .5 2.5h-1zm32 5q2.5 1 1 2l-2 1 .5-1.5zm-3 1 .5 2.5h-1zm-2 1 .5 2.5h-1zm-40 1 .5 2.5-2.5 2.5-.5-.5.5-2.5 1.5.5zm38 0 .5 2.5h-1zm-2 1 .5 2.5h-1zm-2 1 .5 2.5h-1zm-38 3 .5.5-5.5 5.5-.5-.5zm32 0 .5 1.5q-1 2.5-2 1zm-168 13 .5 2.5-1.5.5.5-1.5zm-116 1q3 1.5 0 3l-2.5-.5zm106 1 1.5.5-1.5 2.5zm-85 2 3.5.5-3.5.5zm76 1 1.5.5-1.5 2.5zm-68 2 2.5.5-2.5.5zm63 0 1.5.5-1.5 2.5zm28 0 .5.5-5.5 5.5-.5-2.5 2-1 .5-1.5zm-30 1 .5 2.5h-1zm-12 6 .5 2.5h-1zm29 1 .5 2.5h-1zm-32 1 .5 2.5h-1zm-2 1 .5 2.5q-1 2.5-2 1zm-3 2 .5 2.5q-1 2.5-2 1zm-4 3 .5 2.5-3.5 3.5-.5-.5zm26 1 .5 2.5h-1zm-3 1 1.5.5-1.5 2.5zm-5 2 1.5.5-1.5 2.5zm-31 2 2.5.5-.5 1.5-2.5-.5zm16 0 1.5.5-.5 1.5-1.5-.5zm-24 1 2.5.5-2.5.5zm-54 28 .5 95.5h-1z" opacity=".047"/><path fill="#a32a2a" stroke="#a32a2a" d="m403.5 72 2.5.5-2.5.5zm8 0 4.5.5-4.5.5zm7 1 2.5.5-2.5.5zm171 1 2.5.5-2.5.5zm-130 13 2.5 1.5-1.5.5q-2.5-1-1-2Zm12 6 3.5 2.5-1.5-.5q-3.8-.7-2-2Zm-48 2 6.5 4.5-1.5-.5q-4.6-1.2-5-4Zm12 7 2.5 1.5-1.5.5q-2.5-1-1-2Zm7 4 3.5 1.5-1.5.5-2.5-1.5zm97 12q2.5 1 1 2l-2.5-.5zm-46 1 .5 41.5h-1zm-7 1 .5 40.5h-1zm-289 9 7.5.5-7.5.5zm10 1 2.5.5-2.5.5zm138 0 2.5.5-2.5.5zm-7 1 2.5.5-2.5.5zm-145 1 .5 3.5h-1zm432 3 .5 24.5-18.5.5-3.5-1.5 4.5-.5 1.5-1.5zm-378 10 2.5 1.5-1.5-.5q-2.4-.1-1-1Zm-34 3 4.5 2.5-1.5.5-3.5-2.5zm40 0 2.5 1.5-1.5.5q-2.5-1-1-2Zm-28 7 3.5 1.5-1.5.5-2.5-1.5zm161 8 100.5.5-.5 160.5-1-160-99.5.5-.5 159.5-.5-159.5zm107 0 17.5.5-17 1-.5 159.5zm26 0 96.5.5-96.5.5zm-277 2q2.5 1 1 2l-68.5-.5 66.5-.5zm64 0 1 1 60.5.5-62.5.5q-1.5-1 1-2Zm-54 1 8.5.5-8.5.5zm15 0 3.5.5-3.5.5zm9 0 3.5.5-3.5.5zm10 0 12.5.5-12.5.5zm-7 2 .5 27.5h-1zm-249 5 5.5.5-5.5.5zm112 1 5.5.5-5.5.5zm225 2 .5 19.5-2.5 1.5h-15v-1q4.5 1 5.5-1.5l11-15zm-325 12 3.5 1.5-1.5.5-2.5-1.5zm140 12 .5 122.5h-1zm97 2 .5 118.5h-1zm-119 6 .5 15.5-1 1 .5 1.5-12.5-1.5 4-1 8-11z" opacity=".961"/><path fill="#f0a4a4" stroke="#f0a4a4" d="m600.5 79-.5 1.5-5.5 6.5-.5-.5 5-5zm-48 4 1.5.5-2.5 1.5q-1.5-1 1-2Zm23 15 1.5.5-2.5 1.5q-1.5-1 1-2Zm-22 11 1.5.5-2.5 1.5q-1.5-1 1-2Zm-47 2 .5.5-3.5 3.5-.5-.5zm-506 8 374.5.5L.5 120zm197 7 1.5 2.5q-1 1.5-2-1zm4 0 1.5.5 1 2-1.5-.5-1.5-.5zm-8 2 .5 1.5-2.5 1.5-.5-.5zm16 1 3.5.5-3.5.5zm121 1 2.5.5-.5 1.5-2.5-.5zm-140 3 1.5.5-1 1-.5 25.5zm131 0 2.5.5-3.5 2.5h-2l-.5-1.5zm-7 3 1.5.5q-1 2.5-2 1zm-3 1 1.5.5-2.5 2.5-.5-.5zm-6 3 1.5.5-3.5 2.5-.5-1.5zm33 3 .5 1.5q-1 2.5-2 1zm-45 3 1.5.5-.5 1.5-2 1-.5-1.5zm40 0 .5 1.5q-1 2.5-2 1zm-45 3 1.5.5-.5 1.5-2 1-.5-1.5zm40 0 1.5.5-.5 1.5-1.5-.5zm-2 1 .5 1.5q-1 2.5-2 1zm-12 6 1.5.5-.5 1.5-4 2-.5-1.5zm-37 1 .5 1.5-3.5 2.5-.5-.5zm-247 13 3.5.5-.5 2.5q-3 .5-3.5-1.5zm113 1 1.5.5 1 2-1.5-.5-1.5-.5zm-97 2 .5 1.5-1.5.5q-1.5-1 1-2Zm83 1 1.5.5-.5 1.5-1.5-.5zm-3 1 1.5.5-.5 1.5-1.5-.5zm-20 9 .5 1.5q-1 2.5-2 1zm-11 7 .5 1.5q-1 2.5-2 1zm-5 4 .5 1.5q-1 2.5-2 1zm23 1 1.5.5-.5 1.5-1.5-.5zm-45 3 2.5.5-2.5.5zm95 21 .5 4.5h-1z" opacity=".004"/><path fill="#f4cdcd" stroke="#f4cdcd" d="M265.5 322q1.5 1-1 2l-2.5-.5zm16 1 2.5.5-2.5.5zm206 0 4.5.5-4.5.5zm25 0 4.5.5-4.5.5z" opacity=".69"/><path fill="#e5a6a6" stroke="#e5a6a6" d="m508.5 112 .5.5-3.5 3.5-.5-.5zm-429 89 2.5.5-2.5.5zm15 0 2.5.5-2.5.5z" opacity=".71"/><path fill="#d37373" stroke="#d37373" d="m405.5 71 7.5.5-7.5.5zm83 48 4.5.5-4.5.5zm24 0 4.5.5-4.5.5zm-252 79q1.5 1-1 2l-77.5-.5 77.5-.5zm7 1 10.5.5-10.5.5zm19 0 73.5.5-73.5.5z" opacity=".553"/><path fill="#bf4c4c" stroke="#bf4c4c" d="m348.5 130 2.5.5-2.5.5zm-87 35 4.5.5-4.5.5zm19 0 3.5.5-3.5.5zm-106 4 .5 26.5h-1zm-160 32 49.5.5-49.5.5zm58 0 3.5.5-3.5.5zm11 0 2.5.5-2.5.5zm17 0 6.5.5-6.5.5zm15 0 44.5.5-44.5.5zm-103 1 .5 21.5h-1z" opacity=".624"/><path fill="#2d3b3b" stroke="#2d3b3b" d="m33.5 176 4.5.5-4.5.5zm-14 50 58.5.5-58.5.5zm65 0 7.5.5-7.5.5zm14 0 56.5.5-56.5.5z" opacity=".098"/><path fill="#501e1e" stroke="#501e1e" d="m406.5 74 3.5.5-3.5.5zm8 1 2.5.5-2.5.5zm178 1 8.5.5-8.5.5zm-83 39 .5.5-2.5 2.5-.5-.5zm117 4 .5 41.5-108 1-.5 1.5-.5-1.5 1.5-1.5 106.5-.5zm-429 12 5.5.5-5.5.5zm0 5 2.5 2.5-.5.5-2.5-2.5zm179 24 109.5.5-109.5.5zm118 0 16.5.5-16.5.5zm122 3 .5 160.5h-1zm-248 22 .5 10.5h-1zm-207 24 .5 16.5h-1zm100 115 4.5.5-4.5.5zm19 0 4.5.5-4.5.5zm207 0 5.5.5-5.5.5zm25 0 5.5.5-5.5.5z" opacity=".675"/><path fill="#d98888" stroke="#d98888" d="m199.5 128 3.5.5-3.5.5zm187 34 99.5.5-99.5.5zm110 0 12.5.5-12.5.5zm24 0 94.5.5-94.5.5zm-136 1 .5 160.5h-1zm-209 2 63.5.5-63.5.5zm77 0 8.5.5-8.5.5zm14 0 3.5.5-3.5.5zm11 0 2.5.5-2.5.5zm8 0 12.5.5-12.5.5zm25 0 57.5.5-57.5.5zm-129 35 .5 123.5h-1z" opacity=".251"/><path fill="#8a0000" stroke="#8a0000" d="m605.5 73 2.5 2.5-.5.5q-1-2-2 0l-1.5-1.5zm-199 3 3.5.5-3.5.5zm-2 1 7 8 1.5.5-1.5.5q-1-2-2 0l-5.5-5.5 1-2h-2zm9 0 3.5.5-3.5.5zm5 1 2.5.5-2.5.5zm174 0 7.5.5-7.5.5zm-170 1 2.5.5-2.5.5zm165 0 3.5.5-3.5.5zm-4 1 2.5.5-2.5.5zm24 0 .5 1.5L597.5 93l-.5-.5 8-8zm-208 1 10.5 9.5-.5 1.5 2 1q1.3-2.2 2.5.5l-.5 1.5 2 1 1.5-.5-1 1 .5 1.5q-9-5.5-15.5-13.5 2.3-1.2-.5-2.5l-1.5.5zm38 1v2l1.5.5-1.5.5-2.5-1.5zm5 2 1.5.5-3.5 1.5v-1zm5 2v2l1.5.5-1.5.5-2.5-1.5zm-35 1 3 1 5.5 3.5q-1 2.5-2 1l.5-1.5-2-1-1.5.5.5-1.5-2-1-1 1q-2.5-1-1-2Zm42 2v2l2-1v2l2-1v2l1.5.5-1.5.5-6.5-3.5zm14 7v2l2-1v2l2-1v3l-5.5-3.5zm-47 2 1.5 1.5-.5 1.5 2-1v3l-3.5-2.5 1-1zm56 3v2l2-1q3 1.5 0 3l-3.5-2.5zm-50 1v2l2-1v3l-3.5-2.5zm15 1 3.5 2.5-1.5-.5q-3.8-.7-2-2Zm50 1 3.5 3.5-.5.5q-1-2-2 0l-1.5-1.5 1-1zm-4 4 1.5 1.5-.5 1.5 2 1 1-1 6.5 6.5h-3q2.2-1.2-.5-2.5l-1.5.5q2.3-1.2-.5-2.5-1.5 2.5-3-1l-3.5-2.5zm9 0 5.5 6.5-1.5.5-5.5-5.5zm-46 6v2l1.5.5-1.5.5-2.5-1.5zm176 5 1.5 1.5v40h-1v-40zm-254 1 .5 40.5h-1l-.5-24.5h-17l-1.5 1.5-.5 22.5-7.5-.5v-14l7-7 1.5-3.5 18.5-.5-.5-1.5h-19l-1.5-1.5 1.5-.5 1 1h18zm-157 9 116.5.5-115.5.5-1 1zm6 2 103.5.5-3.5 1.5h-96l-1 1-1-2-2 1zm-17 1 2.5 1.5.5 5.5 2-6 1.5 1.5.5 6.5 1-7 3.5 1.5-3 2v8l1.5 1.5 1-10 3-1 1.5 1.5v14h-1l-.5-2.5-1.5.5-1.5-2.5-1 2-1.5-.5q.5-4-2.5-4.5l-1 2-2-3-2 1-.5-2.5 3-1-3.5-.5-1 2-5.5-4.5 4-1-3.5-.5-1.5-1.5 1.5-1.5q4.8 1.2 6-1Zm-1.5 2-1 2h2v-1zm26.5 0 87.5.5-87.5.5zm-39 1 2 3 1-1 6.5 6.5-.5 16.5-8.5-.5v-23zm148 0 3.5.5q1 5.5-2.5 6.5l-1.5-.5zm-4 1 1.5.5v7l-1.5 1.5zm-113 1 1.5 1.5v14h-1l-1-2zm109 0 2.5.5-.5 8.5-1-8-1 9zm-106 1 2.5 1.5-2 1-.5 13.5zm14 0 69.5.5-10.5 4.5-11.5 7.5-.5 2.5-1-2-11 9-3.5.5 2 2-.5.5-5.5-5.5q2-1 0-2l-.5-1.5-1.5.5-.5 1.5-4.5-3.5 1-2-4.5-3.5-1 2-1.5-.5q.5-4-2.5-4.5l-2-1-1 2-1-3-2 1-1-2-1.5.5-.5-1.5-2-1-1.5.5zm89 0 1.5.5-.5 10.5-1.5-.5z" opacity=".008"/><path fill="#8a0000" stroke="#8a0000" d="m229.5 140 1.5 2.5h-2l-.5 13.5-1.5-1.5v-13zm94 0 .5 11.5h-1zm-91 1 18.5 9.5-.5 9.5-7.5-.5-.5-11.5-1 11-1-12-1 13-1-2-2 1-.5-1.5.5-1.5-2.5-.5-.5-12.5-1 14zm88 0 1.5.5-.5 11.5-1.5-.5zm-2 1 .5 11.5h-1zm-3 1 1.5.5v11l-1.5 1.5zm-2 1 .5 12.5h-1zm-111 1 2.5 1.5-.5 13.5-1.5-.5v-13zm109 0 .5 12.5h-1zm-2 1 .5 11.5h-1zm-2 1 .5 11.5h-1zm-101 1 1.5.5-.5 11.5-1.5-.5zm99 0 .5 11.5h-1zm37 0-.5 1.5-.5 10.5-.5-10.5zm-39 1 .5 10.5h-1zm-94 1 10.5 5.5-2 1-.5 3.5-3.5-.5-.5-6.5-1 7-3.5-.5zm92 0 .5 9.5h-1zm38 0 .5 9.5-1.5.5-.5-8.5zm-87 1 3.5 2.5-.5 6.5-1.5-.5-.5-6.5-1 7zm47 0 .5 8.5h-1zm-2 1 .5 7.5h-1zm39 0 .5 7.5-1.5.5-.5-6.5zm-41 1 .5 6.5h-1zm-2 1 .5 5.5h-1zm40 0 .5 5.5h-1zm-76 1 1.5.5-.5 4.5-1.5-.5zm74 0 .5 4.5-1.5.5-.5-3.5zm-110 1 .5 3.5h-1zm69 0 .5 3.5h-1zm-71 1 .5 2.5h-1zm4 0 .5 2.5h-1zm37 0q6.2 2.3 9.5 7.5l-.5.5-2-2-1 1-2.5-2.5.5-1.5-4.5-.5zm28 0 .5 2.5-1.5.5-.5-1.5zm40 0 .5 2.5h-1zm-103 1 .5 2.5h-1zm151 4 7.5.5-7.5.5zm241 0 9.5.5-9.5.5zm1 2 .5 159.5h-1zm-470 8 2 3 21.5.5-.5 1.5-19.5.5 20 1-.5 1.5-21.5-.5q.8-4.2-2-5zm-99 2 79.5.5-3 1-.5 2.5-1-2h-71l-1 1-1-2q-3 .5-2-1Zm-25 3 1.5.5-1 1v20h1l.5-19.5 5.5 4.5.5 15.5 1.5-.5v-12l-1-1 1.5-.5 1.5 1.5.5 12.5 1-11 1.5.5.5 10.5 1-9 3.5 1.5.5 7.5 1-7 1 7 1.5-.5 1-3-2-1 1.5-.5 2.5 1.5-2 1 .5 2.5 1-2 1 2 1-3 3.5 2.5-.5 2.5-40.5-.5.5-1.5 8.5-.5zm4.5 5v17-15l1-1zm.5-5 3 1q.8-1.7 4-1l.5 3.5-3.5 1.5-4.5-4.5zm14 0 2 2q1-2 2 0l2.5 1.5v8l-1.5 2.5-1.5-3.5-.5-6.5-1 6-1.5-.5-.5 1.5-3.5-1.5 2-2q-.9-5.4 1.5-7.5Zm.5 3-1 6h1z" opacity=".008"/><path fill="#8a0000" stroke="#8a0000" d="m39.5 178 1.5.5-.5 5.5-1.5-.5-.5 1.5-1.5-.5 2-2zm20 0 58.5.5-56.5.5-2 1zm80 0 3.5.5-2.5 3.5-1.5-.5zm-4 1 1.5.5-.5 5.5-1.5-.5zm-84 1 3.5 2.5-.5 11.5-1-3-1 2-.5-1.5 1-1v-8h-1q1.3 6.8-1.5 9.5l-.5-1.5 1-1zm81 0 1.5.5-.5 5.5-.5-4.5zm-3 1q2.8 1.3 1.5 6.5l-4.5 2.5-.5-7.5zm20 0 22.5.5-.5 18.5-49.5-.5 4.5-2.5 1 2 1-3 1 3 1-4 1 4 1-5 1 5 .5-5.5 1.5-1.5 1 7 .5-7.5 1.5-1.5 1 9 .5-9.5 1.5-1.5 1 11 1.5-.5v-12zm-93 1 14.5 7.5-.5 8.5-2.5-1.5-.5-7.5-1 7-.5-6.5.5-1.5-1.5.5-.5 7.5-.5-7.5.5-1.5-1.5.5-.5 7.5-.5-7.5.5-1.5-1.5.5-.5 7.5-4.5-1.5zm12 1 1.5.5-.5 1.5-1.5-.5zm55 0 1.5.5v7l-1.5 1.5zm-52 1 1.5 2.5q-1 1.5-2-1zm50 0 .5 8.5h-1zm-5 1 1.5 1.5v10h-1v-10zm3 0 .5 10.5h-1zm-5 1 1.5 1.5v7q-1 2.5-2 1zm-39 1 5.5 3.5-.5 1.5-5.5-3.5zm37 0 .5 11.5h-1zm-2 1 .5 8.5h-1zm-2 1 .5 8.5-1.5.5-.5-6.5zm-34 3 1.5.5.5 6.5 1-5 1.5.5-.5 5.5-4.5-.5q2.3-1.3 1-6zm9 0 1 3q1.5-2.5 3 1l1.5.5-1.5 2.5-4.5-4.5zm22 0 .5 6.5-1.5 2.5-7.5-.5q-.7-3.7 1.5-4.5l1 3 .5-3.5 1.5-1.5 1 5 1-6 1 6zm-25 4 5.5 4.5-3.5.5-1-2-1.5-.5zm-23 2 3.5 2.5-3.5.5zm306 2 .5 123.5h-1zm7 0 11.5.5-.5 123.5-11.5-.5zm-208 1 1 1 9.5.5v24l2.5 2.5 3.5.5-.5 94.5h-20l-2.5-1.5.5-95.5 6.5-.5-1-1zm1.5 19-1 5h1zm-2 8v1h12zm-4 1-1 93q1 1 4 1v-93zm-144.5-1 .5 95.5h-1zm2 0 .5 95.5h-1zm63 97 4.5.5-4.5.5zm15 0 3.5.5-3.5.5zm89 1 178.5.5-178.5.5zm203 0 230.5.5-230.5.5z" opacity=".008"/></svg>