<svg xmlns="http://www.w3.org/2000/svg" viewBox="0 0 640 632"><path fill="#020101" stroke="#020101" d="M321.5 0h20l1 1h14l1 1h9l1 1h7l1 1 11 1 1 1h4l1 1h4l1 1 15 3 7 3h3l9 3 11 5h2l35 17 25 16 22 17L555 99.5l6 8 3 7 11.5 13.5 1.5.5 12 15 8 15 2 2 13 26v2l4 8 1 5 2 3 2 8 2 3 3 9v3l2 4v3l4 12 2 14 1 1v5l1 1v5l1 1 1 17 1 1v15l1 1v23l-1 1v12l-1 1v8l-1 1v9l-1 1v4l-1 1v4l-1 1v5l-2 5v4l-1 1-2 11-2 4v3l-5 15-2 3-5 15-5 9v2l-11 21-16 25-25 31-20.5 20.5-27 22-24 16-28 15h-2l-19 9-30 10h-3l-1 1h-3l-9 3-14 2-1 1-12 1-1 1h-7l-1 1h-10l-1 1h-18l-1 1h-11l-1-1h-18l-1-1h-10l-1-1h-7l-1-1h-6l-1-1h-5l-1-1-14-2-1-1-15-3-4-2h-3l-15-5-3-2-5-1-10-5h-2l-7-4h-2l-28-15-24-16q-26-19-47.5-42.5-19.3-21.2-35-46l-17-31v-2l-5-9v-2l-6-13-6-18v-3l-2-4v-3l-3-9v-4l-2-5-1-10-1-1v-6l-1-1v-6l-1-1v-10l-1-1v-15l-1-1v-19l1-1v-15l1-1 1-17 1-1v-5l1-1v-5l1-1 2-14 4-12v-3l2-4v-3l3-9 2-3 1-5 6-13v-2l17-33 15-23Q75.8 111.8 97.5 91l27-23 23-16 15-8 2-2 29-14h2l13-6 18-6h3l4-2h3l9-3h4l5-2 10-1 6-2h5l6-2h6l1-1 17-1 1-1h14zM332 4l-1 1h-23l-1 1h-9l-1 1-14 1-1 1h-4l-1 1h-4l-1 1h-4l-1 1h-4l-5 2-7 1-17 6-6 1-3 2-9 3-2 3h2l4 7v6l-3 6q-4 3-9 5l-4 4v7l-4 8-8 8-4 1-3 4v6l2 4 4 2 4 1 2 3v6l-1 1 1 4 5-2 5-4 13-13 5-7 2-6 7-6 11-3 2-3 1-5 4-3 10-2 4-2 2-2v-2l2-3 7-4 14-2 1-1h4l5-2h7l8 7 3 1h31l1-1h14l1-1h6l1-1 8-1 5-3h6l6 3 24 18q5 4 8 11l2 1h13l2 1 2 4-1 3-3 2h-6l-8 3q-3 1-2 6l8 7 20 12 11 13q4 6 12 9h7l9-6v-1l-17-15-6-6q-1-4 1-4 1-5-1-5l2-4h4l11 6 6 7 7 10 6 13 4 16 6 11 4 4 1 5h2l3 6 1 8 1 1v8l1 3 4 2h4l7 3 2 4v6l-4 8v5l7 14q3 4 9 6l8-4-1-3q-1-5 1-7 1-2 4-2l2 4v3l-3 5q1 4-1 6l1 2 1 9 3 7 1 7 1 1v4l1 1v7l1 1v21l1 1v4l3 9 6 12 11 17 24 29 4 2v-6l4-8v-5l-2-5v-2l3-3q-1-5 1-5v-36l-1-1v-11l-1-1v-8l-1-1v-6l-1-1-1-10-1-1-1-10-1-1v-4l-2-5v-4l-3-9v-3l-2-4-1-7-6-18-9-19v-2l-12-23-10-16-1 12-2 4v4l6 11q-1 3 1 4 1 6-1 9l-3 2h-2l-3 4q1 3-1 4v11l1 1v7q-1 3-5 2l-8-8-5-11-2-6v-3l-1-1v-5l-1-1v-9l5-4h5v-2l-7-7v-3l5-3h3l4-2 1-2-5-7-4-10-1-13-1-3-4-8-4-5-19-20-24-20-27-18-29-15h-2l-5-3h-2l-3-2h-2l-3-2-5-1-9-4h-3l-7-3-15-3-1-1-9-1-1-1h-5l-1-1h-5l-1-1h-7l-1-1h-9l-1-1h-22zM208 27l-13 6h-2l-7 4h-2l-28 15-28 19-26 22q-23 21-41 47l-16 25-13 25v2l-8 17-8 24-3 15-1 1v3l-1 1-1 9-1 1-1 12-1 1v6l-1 1v10l-1 1v47l1 1v10l1 1v7l1 1v5l1 1v5l2 6v4l1 1v4l1 1 1 7 2 4v3l2 4v3l3 9 2 3 5 15 3 5v2l15 29 17 26 22 27q18 19 40 36l24 17 15 9 11 5 2 2h2l13 7h2l10 5 30 10 15 3 1 1h4l1 1h4l1 1h4l1 1 12 1 1 1h7l1 1h10l1 1h47l1-1h10l1-1 13-1 1-1 1-9 1-1v-7l-9-8-28-27-7-5q-5-4-8-9v-6l5-11q3-6 10-8l2-2 2-5v-12l-18-2-9-3-10-6-5-5v-2l-4-7-15-13-14-7h-2l-21-9-10-6-16-13-6-2-5-4-3-6-2-18-3-10-2 3h-2l-5-3-6-6-9-21-1-6-3-7v-3l-2-4-1-7-1-1q1-5-1-5v-7l-1-1v-8l1-1v-9l1-1v-7l1-1 1-16 14-26v-2l3-6q-1-4 1-4v-10l1-1v-10l1-1v-6l1-1v-4l1-1v-4l2-5v-3l1-1 1-9 1-1v-17l-3-7-3-4-23-10-6-5v-3l2-2h9l3-3 7-12 6-4 10 1 2-3q3-4 8-6l6-1 1-1h4l1-1h9l7 3 4 9v8q2 0 1 4l7 11 17 15 10 7 2 2-2-5-7-10-2-6 1-4 6-3h5l3 1 6 4 7 9 4 8q-1 3 1 4v7l2 1 2-3q-1-5 1-6l5-4 2 1 3 4 3 9q1 3 5 2l1 1-7-9-1-3 2-5 5-4h6l6 3h2l18 10q4 2 4 8 4 5 12 8 4 3 6 9v10l-3 8-3 3-3 1-7-1-4-2-1 2 4 1 10 8 4 2 8 1 8 5 37 39 10 13q1 4-2 4h-10l-4-2-9-8-4-7-5 3h-5l-3 2h-2l-4 3 5 1 1 3 6 4 9 2 2 4-1 4-9 8-10 5h-7l-17 20-8 18q1 3-1 4v6l-6 9-6 4q-8 6-12 16v8l4 11v5l-4 3-6-2-7-6-8-12h-46q-1 2-4 1-5 4-8 11l-1 3v6l-1 1q2 2 1 7l3 7q3 5 10 7h5l3-1 10-7 3-1q4-1 7 1l2 3 1 3v10l-1 1-1 8 5 2h4l1 1h3l6 2q5 2 8 7v10l-1 1q-1 6 1 10l6 3 6 2h4l1 1h7l4-2 11-9 5-2h8l1 1 26-1 1-1h9l1-1h18l18 6q4-1 6 1h18l1 1h5l3 1 3 2 10 12h6l1-1h5l6-2h4l9-3h3l4-2h3l1-1h9l5 6v6l-1 3-12 20-4 12h2l30-31 17-22 17-27 13-26 2-7 3-5 1-5 2-3 4-12v-3l2-4v-3l2-4 1-7 1-1v-5l-1-1-14-14-18-23-7-11-8-16-3-9v-4l-1-1v-20l-1-1v-8l-1-1-1-8-3-7-1-7-1-1v-5l-1-3-4 2q-7 0-9-3l-7-7-6-13v-8l4-7v-4l-6-4-7-1-3-2-2-5-1-14-1-1-1 7-1 1h-5l-3-1-6-4-2 1 6 8-1 2-2 1-6-1-6-4-5-6-1-6-8-15q1-4-1-4-1-5 1-6l4-3 4 1 10 8 14 7h1l-7-11-2-6v-3l-1-1v-3l-3-9-16 11h-9l-6-3-8-8-15-15-16-9-8-7-2-5 1-4 3-3 6-3q3 1 4-1h6v-1l-13-1-3-1-2-1-1-4q-15-16-34-27h-4l-5 3-8 1-1 1h-6l-1 1h-13l-1 1h-34l-5-2-6-6h-5l-5 2-9 1-1 1h-5l-8 3-3 6-2 2-6 3-7 1-4 2-2 7-5 4-10 2-5 5-2 6-5 7q-10 12-23 20-7 1-8-2v-8l1-3-6-3-5-5-1-3v-9l1-2 4-4h3l8-8 3-6v-8l5-5 8-4 3-5q1-5-1-6l-7-6 1-2zm271 72-1 5-1 1 1 2 24 20h1l-2-5-8-12q-5-8-14-11Zm-261 21-1 1h-4l-9 3-4 5-4 3h-7l-1-1-4 1-9 14-3 3-5 2-2-1-1 2 26 11 4 5 3 8v18l-1 1v5l-1 1v4l-2 5v3l-1 1-1 9-1 1v6l-1 1v11l-1 1v8q-2 0-1 5l-7 16-2 2-8 16-1 16-1 1v7l-1 1v10l-1 1 2 18 4 12v3l2 4v3l4 9 1 5 3 5v2l5 7h1l-4-7-2-10-1-1v-11l4-2q3 3 5 8l4 16 8 18 1 9 1 1v8l3 8 5 4h2l7 4q7 8 18 14l14 7 10 3q4 4 11 5l13 8 6 5 7 10 2 6 7 5 13 5q4-1 6 1h12l2 1 1 3v14l-3 7q-2 3-6 4l-6 6-4 9v4l2 3 24 20 17 17 5 4 3 1 1 3v10l-2 6 1 1 11-1 1-1 9-1 8-3h3l24-8 3-2 5-1 13-6h2l21-10 10-6 29-20 12-13 2-4v-3l2-6 14-25v-3l-3-4h-6l-8 3-11 2-1 1-9 1-1 1h-5l-1 1q-7 1-10-1-6-4-9-10l-5-4h-6l-1-1h-17q-2-2-6-1l-18-6h-16l-1 1h-9l-1 1h-11l-1 1h-16l-1-1h-6l-6 3q-6 7-14 10h-9q-2-2-5-1l-10-4-6-6 1-19-3-3h-2l-6-3-12-2-4-3v-6l2-6q2-9-2-12h-3l-6 3-3 3-7 3h-7l-6-3-6-5-4-9q1-5-1-6l2-13 5-9 4-4 6-2h50l8 13 8 6q1 2 2 0l-1-6-3-7v-10l5-10q5-7 13-11l6-8v-6q2-1 1-4l6-15 3-5 9-10 2-4 8-7h7l8-4 9-8-1-2h-4l-7-3-5-6-4 1-4 3-6 1q-3-1-2-4l11-9 12-5h4l3-3h4l3 2 6 10 8 5h6l-21-24-24-25-6-4-7-1-7-3-10-8-6-3-6-1-3 3-1 3v7q2 1 1 6l1 1v17l-1 1-2 14-1 1v4l-1 3-11-13-3-7v-4l-4-4-12-4-6-5-2-5 1-9 4-9 5-7 20-21 2-4-3-2h-6l-5-2-5-6-2-7-1-1-2 2v3l-2 5-4 3-2-1-3-2-1-3v-7l-1-3-6-10q-4-6-11-9-5-1-7 2l4 9 4 5 4 8q1 4-1 5h-3l-7-4-17-14q-8-7-14-15l-3-6q1-4-1-4v-9l-2-4-6-4zm348 3q-2 2 0 3v5l2 6 7 11-2 6-10 4 6 7q1 4-1 6t-7 1l-2 2v6l1 1 1 9 5 11v2l3 5 4 3q1-4-1-4v-13l3-8 7-4-1-9-6-11v-6l2-4v-14l-10-14zm-78 27-1 3 2 6 6 10 2 6v3l2 3 7 4h1q-4-3-6-8 0-3 2-4h5l12 6v-6l2-5-1-2-6-1-16-8-9-7zm-168 18-4 5 13 14 3-2h3l5 3 3 4 3 6q1 6-1 10l-6 5 2 1 9 3h3l1 1 10 2 3-3 2-6q1-7-1-10-4-6-11-9-5-2-6-8l-9-8-10-5h-2l-6-3zm14 21-6 10-22 24-4 7-2 6 1 7 6 5 14 5 3 5 1 7 5 8h2l1-3v-4l1-1v-4l1-1v-16l-1-1v-6l-1-1v-7l2-6 6-4-3-2-4-3v-2q2-4 7-5l1-2v-6l-2-4zM186 372l-1 4 5 15q1 2 2 1z" opacity=".992"/><path fill="#020101" stroke="#020101" d="M361.5 113h15l3 2h2l5 4 6 3 5 1 14 8 15.5 14.5 2 4 1 6q-2 1-1 5l-4 5-3 9v26l3.5 4.5 14.5 5.5-.5 1.5-27 9-8-3-12.5-10.5-7-11-3-13-11.5-12.5-24.5-18.5-3.5-7.5-2.5 1.5-2 4v5l-3.5 4.5-5-1-9.5-7.5-2-4v-6l3-9v-5l4.5-5.5 6-3h9l4 4 1-1 7-5zm1.5 4-7 3-10 7h-3l-4-4h-6l-4 2-4 4v5l-3 9q-1 4 1 6l10 7 1-1v-5l3-6 6-5 3 1v5l3 5 25 18 11 13 2 5v4l2 6 6 9 10 8 5 3h8l3-2 8-2v-1l-6-3-3-2-2-5v-26l1-1 1-7 6-11-2-7-4-5-8-8-9-6-6-3-5-1-16-9zm86.5 30h4l4.5 2.5 2 4v7l-3 8-5.5 6.5-4 2h-5l-5.5-4.5-2-6v-3l1-1 1-6 5.5-6.5zm.5 4-4 2-4 4-3 8 1 5 4 3 5-1 5-6 2-6q1-5-1-7-1-3-5-2ZM313.5 434l13 1 1 1h3l1 1 15 3 4 2 6 1 6.5 4.5.5 2.5 5-3h9l7 3 5.5 4.5 1 5-3.5 2.5h-16l-6-2-3.5-3.5-.5-2.5-4 2h-10q-9-3-15-9h-2l-6-3-10-2-3.5-2.5-1-2 1.5-2.5zm13.5 6v1l5 1 6 3 6 5 5 2h8l2-2-6-4h-3l-12-4h-3l-4-2zm43 11-2 1q-2 1-2 4l7 2h13v-1l-2-3-7-3z" opacity=".992"/><path fill="#173148" stroke="#173148" d="m352.5 52 4.5.5-4.5.5zm-30 1 14.5.5-14.5.5zm-123 4 .5 2.5h-1zm218 8 2.5 2.5-.5.5-2.5-2.5zm-306 19 .5.5-2.5 2.5-.5-.5zm-10 9 .5.5L89.5 106l-.5-.5zm326 5 2.5 2.5-.5.5-2.5-2.5zm51 1 .5 2.5h-1zm0 7 4.5 4.5-.5.5-4.5-4.5zm-287 4 .5 2.5h-1zm174 2 7.5.5-7.5.5zm-283 1 .5.5-2.5 2.5-.5-.5zm253 5 2.5.5-2.5.5zm-259 2 .5.5-2.5 2.5-.5-.5zm489 3 1.5.5q-1 2.5-2 1zm-65 2 1 1 1.5-.5-1.5 1.5q-2.5-1-1-2Zm-263 6 .5 4.5h-1zm182 6 5.5 5.5-.5.5-5.5-5.5zm62 2 3.5.5-3.5.5zm-321 6 2.5.5-2.5.5zm85 5 2.5 2.5-.5.5-2.5-2.5zm-87 1 3.5 3.5-.5.5-3.5-3.5zm94 6 2.5 2.5-.5.5-2.5-2.5zm308 15 2.5.5-2.5.5zm-249 1 1.5.5-.5 1.5q-2.5-1-1-2Zm111 1 .5 2.5h-1zm102 1 1.5.5-1.5 4.5zm-5 8 2.5.5-2.5.5zm-195 19 .5.5-2.5 2.5-.5-.5zm49 2 .5 3.5h-1zm-73 31 .5 4.5h-1zm-116 1 .5 3.5h-1zm207 9 3.5 3.5-.5.5-3.5-3.5zm17 18 5.5 5.5-.5.5-5.5-5.5zm-6 16 3.5 2.5-.5.5-2-2q-2.4-.1-1-1Zm21 0 2.5 2.5-.5.5-2.5-2.5zm-417 3 .5 3.5H6zm569 0 .5 2.5h-1zm-165 6 4.5 4.5-.5.5-4.5-4.5zm-405 5 .5 3.5H5zm394 2 2.5.5-2.5.5zm-17 23 2.5.5-2.5.5zm-220 2 .5 2.5h-1zm4 6 .5 2.5h-1zm-4 6 .5 2.5h-1zm-157 5 .5 3.5H5zm1 12 .5 2.5H6zm345 22 .5.5-2.5 2.5-.5-.5zm268 2 2.5 2.5-.5.5-2.5-2.5zm-434 1 1.5.5q-1 2.5-2 1zm5 16 1.5.5-.5 1.5q-2.5-1-1-2Zm9 25 .5 2.5h-1zm151 41 4.5.5-4.5.5zm-62 27 4.5 4.5-.5.5-4.5-4.5zm118 3 2.5.5-2.5.5zm-34 2 13.5.5-13.5.5zm98 5 2.5.5-2.5.5zm66 6 3.5.5-3.5.5zm8 2 2.5 2.5-.5.5-2.5-2.5zm4 6 .5 2.5h-1zm-53 1 2.5.5-2.5.5zm-418 7 2.5 2.5-.5.5-2.5-2.5zm478 8 .5.5-3.5 3.5-.5-.5zm-470 1 3.5 3.5-.5.5-3.5-3.5zm18 18 2.5 2.5-.5.5-2.5-2.5zm433 0 .5.5-4.5 4.5-1.5-.5zm-202 29 2.5 2.5-.5.5-2.5-2.5zm11 10 4.5 4.5-.5.5-4.5-4.5zm-49 45 2.5.5-2.5.5zm45 0 2.5.5-2.5.5z"/><path fill="#2b5318" stroke="#2b5318" d="m267.5 54 .5.5-2.5 2.5-.5-.5zm-63 6 .5 2.5h-1zm42 6 .5 2.5h-1zm-48 8 .5.5-5.5 5.5-.5-.5zm32 2 .5.5-3.5 3.5-.5-.5zm-45 13 .5 2.5h-1zm34 4 .5.5-3.5 3.5-.5-.5zm-10 10 .5.5-3.5 3.5-.5-.5zm270 10 2.5 2.5-.5.5-2.5-2.5zm-19 3 5.5 5.5-.5.5-5.5-5.5zm27 34 .5 2.5h-1zm71 9 2.5 2.5-.5.5-2.5-2.5zm-39 7 2.5 1.5-1.5-.5q-2.4-.1-1-1Zm1 3 .5 2.5h-1zm-17 3 2.5.5-2.5.5zm52 9 .5 2.5h-1zm-51 1 2.5 2.5-.5.5-2-2-1.5.5zm27 4 .5 2.5h-1zm45 17 .5 2.5h-1zm1 6 .5 2.5h-1zm-10 3 3.5 3.5-.5.5-3.5-3.5zm2 12-.5 1.5-.5 1.5-.5-1.5zm-17 9 4.5 4.5-.5.5-4.5-4.5zm-213 19 .5 2.5h-1zm65 13 2.5 2.5-.5.5-2.5-2.5zm226 6 .5 2.5h-1zm-51 5 .5 3.5h-1zm52 1 .5 2.5h-1zm1 8 .5 2.5h-1zm-52 5 .5 10.5h-1zm53 3 .5 3.5h-1zm1 12 .5 6.5h-1zm0 33 .5 3.5h-1zm-2 18 .5 5.5h-1zm-282 6 .5 2.5h-1zm266 1 3.5 3.5-.5.5-3.5-3.5zm-436 3 .5 3.5h-1zm166 4 .5.5-2.5 2.5-.5-.5zm282 2 .5 3.5-1.5.5q-2.5-1-1-2l1.5.5zm-356 25 39.5.5-39.5.5zm52 42 2.5 1.5-1.5-.5q-2.4-.1-1-1Zm48 18 2.5.5-2.5.5zm38 33 3.5.5-3.5.5zm14 0 2.5.5-2.5.5zm-24 1 3.5.5-3.5.5zm-36 1 5.5.5-5.5.5zm24 0 4.5.5-4.5.5zm-86 4 3.5 3.5-.5.5-3.5-3.5zm145 0 2.5.5-2.5.5zm9 1 10.5.5-10.5.5zm-118 8 4.5.5-4.5.5zm-11 2 9.5.5-9.5.5zm157 1 3.5 3.5-.5.5-3.5-3.5zm-141 4 .5 7.5h-1zm-17 46 4.5 4.5-.5.5-4.5-4.5zm189 1 .5.5-2.5 2.5-.5-.5zm-172 14 4.5 4.5-.5.5-4.5-4.5zm19 18 3.5 3.5-.5.5-3.5-3.5zm14 15 .5 2.5h-1z"/><path fill="#2b648d" stroke="#2b648d" d="m208.5 30 2.5 2.5-.5.5-2.5-2.5zm7 8 .5 2.5h-1zm87 7 3.5.5-3.5.5zm55 7 2.5.5-2.5.5zm-38 1 2.5.5-2.5.5zm18 0 5.5.5-5.5.5zm83 15 2.5 2.5-.5.5-2.5-2.5zm-171 5 .5.5-2.5 2.5-.5-.5zm-69 12 .5 5.5h-1zm-72 2 .5.5-2.5 2.5-.5-.5zm112 12 .5.5-9.5 9.5-.5-.5zm268 6 3.5 3.5-.5.5-3.5-3.5zm-293 12 2.5.5-2.5.5zm146 2 3.5 3.5-.5.5-3.5-3.5zm-17 3 .5.5-2.5 2.5-.5-.5zm-133 5 2.5.5-2.5.5zm275 3 4.5 4.5-.5.5-4.5-4.5zm110 9 .5 3.5h-1zm-259 4 .5 3.5h-1zm-69 10 3.5 3.5-.5.5-3.5-3.5zm212 2 .5 2.5h-1zm114 1 .5 3.5h-1zm-9 3 2.5 2.5-.5.5-2.5-2.5zm-245 4 2.5.5-2.5.5zm-133 4 2.5 2.5-.5.5-2.5-2.5zm184 5 2.5 2.5-.5.5-2.5-2.5zm188 1 .5 4.5h-1zm-263 1 .5 3.5h-1zm126 3 .5 2.5h-1zm159 0 .5 3.5h-1zm-265 3 3.5 3.5-.5.5-3.5-3.5zm210 4 .5 2.5h-1zm-170 1 2.5 2.5-.5.5-2.5-2.5zm-164 4 .5 2.5h-1zm230 7 .5 2.5h-1zm149 0 .5 7.5h-1zm-237 18 2.5 2.5-.5.5-2.5-2.5zm206 1 .5 2.5h-1zm-356 18 .5 2.5h-1zm204 9 2.5 2.5-.5.5-2.5-2.5zm7 7 5.5 5.5-.5.5-5.5-5.5zm19 20 4.5 4.5-.5.5-4.5-4.5zm-20 13 2.5.5-2.5.5zm181 3 .5 6.5h-1zm-410 6 .5 2.5h-1zm257 5 2.5.5-2.5.5zm-417 1 .5 4.5H5zm159 3 .5 2.5h-1zm241 6 .5.5-2.5 2.5-.5-.5zm-243 11 .5 2.5h-1zm-157 16 .5 3.5H5zm363 0 .5.5-3.5 3.5-.5-.5zm-362 13 .5 2.5H6zm1 9 .5 2.5H7zm609 15 2.5 2.5-.5.5-2.5-2.5zm-430 7 1.5 2.5q-1 1.5-2-1zm1 4 1.5 1.5 2 7h-1l-3-8zm77 21 3.5.5-3.5.5zm-65 16 .5 3.5h-1zm6 17 2.5 2.5-.5.5-2.5-2.5zm81 0 2.5.5-2.5.5zm-22 9 3.5.5-3.5.5zm106 2 4.5.5-4.5.5zm6 16 8.5.5-8.5.5zm-56 13 .5 4.5h-1zm-1 10 .5 2.5h-1zm96 0 8.5.5-8.5.5zm-21 2 2.5.5-2.5.5zm157 40 .5.5-14.5 14.5-.5-.5zm-462 1 13.5 13.5-.5.5L89 528.5zm247 1 .5.5-2.5 2.5-.5-.5zm-7 5 .5.5-3.5 3.5-.5-.5zm-219 14 2.5 2.5-.5.5-2.5-2.5zm240 38 7.5 7.5-.5.5-7.5-7.5zm19 35 .5 1.5-2.5 1.5v-1l1.5-.5zm-82 4 2.5.5-2.5.5zm63 0 2.5.5-2.5.5zm-51 1 3.5.5-3.5.5zm38 0 3.5.5-3.5.5z"/><path fill="#3276f9" stroke="#3276f9" d="m206.5 28 1.5.5q-.5 4 2.5 4.5l4.5 3.5v6l-4.5 5.5q-7 1.5-10.5 6.5-1.7 1.8-1 6 2 1 0 2l-2 6-6.5 7.5-6 2-2.5 2.5-2 5v5l2 6 5.5 5.5 4.5 2.5q-2 1 0 2l-2 6 3.5 5.5q1.5-2.5 3 1l1.5-.5.5-1.5 2 1 1-2q1.3 2.3 2.5-.5l1.5-2.5q1.2 2.2 2.5-.5l2.5-3.5 1 1L222 99.5l-1-1 2.5-2.5 3.5-2.5-.5-1.5 2.5-1.5-.5-1.5 1.5-.5-.5-1.5 1.5.5-1-2 2-1-1-2 1.5-1.5q1 2 2 0l1.5-.5.5-1.5 3 1 1-2 3 1v-2l2 1 1-2 1 1 3.5-3.5-.5-1.5 1.5-.5q.8-3.2-1-4l1.5.5 2-2 3.5-.5-.5-1.5q.7 1.8 4 1v-2l3 1v-2l2 1v-2l2 1-.5-1.5 3.5-3.5 1.5.5-1-2h2l1.5-2.5 4.5-1.5-.5-1.5q1.3 2.3 6 1 1-2 5-1v1l-4.5.5-31 47-1 3-14 20-1 5 1 1v7h-1v-7l-1.5-3.5-1.5.5 1-2h-2l1-2-1.5-1.5-1.5.5q2.2-1.2-.5-2.5l-2 1v-2l-2 1v-2q-3.2-.7-4 1h-7q-.7-1.7-4-1l-1 2-4-1-1 2-2-1-1 2-1.5-.5-.5 1.5-1.5-.5-1.5 2.5q-1.2-2.3-2.5.5 2.2 1.2-.5 2.5l-2 1-10 1-1.5-.5-.5 1.5-1.5-.5-3.5 4.5-1.5.5q2.5 1.5-1 3l-.5 1.5-1.5.5q2.5 1.5-1 3l-1.5 2.5-2.5 1.5-.5 1.5-3-1h-5q-3 .5-2.5 4.5l4.5 6.5 2.5.5.5 1.5 1.5-.5.5 1.5 1.5-.5.5 1.5 1.5-.5.5 1.5 1.5-.5.5 1.5 2-1 1 2 1.5-.5.5 1.5 1.5-.5.5 1.5 7 3 2.5 2.5 1.5 4.5 1.5-.5-1 1v18l-1 1v4l-1 1-.5 4.5-1-2-19.5 29.5-1 3-16 23-1 3-18 26-1 3-16 23-1 3-11 15-1 3-33 49-1 3-35 52v3l2 4q-1 2.5-2 1l1-2h-2l1-2h-2l1-3-1.5-2.5-1.5.5 1-2h-2l1-3-1.5-2.5-1.5.5 1-3h-2l1-2-1.5-3.5-1.5.5 1-2-2-1 1-2-2-1 1-2-2-1 1-2-2-1 1-2-2-1 1-3-2-1 1-2-2-1 1-3-2-1 1-2q-3.5-1.5-1-3l-2-4q2.5-1.5-1-3l1-2-2-2v-5l-1-1-1-10-1-1v-7l-1-1v-8l-1-1v-12l-1-1v-30l1-1v-13l1-1v-8l1-1v-6l1-1v-6l1-1 2-14 1-1 3-15 3-7v-3l3-9 2-3 5-15 4-7v-2l16-30 14-21q19-26 42.5-47.5 21.2-19.3 46-35l31-17h2l7-4h2zm86 21 2.5.5-2.5.5zm51 4 2.5.5-2.5.5z"/><path fill="#3276f9" stroke="#3276f9" d="m192.5 179 .5 2.5h-1zm0 7 .5 2.5h-1zm-5 19 .5 2.5-1.5 4.5-.5-3.5zm-2 8 .5 2.5h-1zm-1 6 .5 2.5h-1z"/><path fill="#50b327" stroke="#50b327" d="m204.5 68 6 3h3l4 2h3l4 2 4.5.5-3 4 .5 1.5-1.5.5 1 2h-2l1 2-2 1 .5 1.5-1.5-.5-2 3q2.3 1.3-.5 2.5l-4.5 3.5 1 1-5.5 5.5-1-1-4 4-1.5.5q2.3 1.3-.5 2.5-1.2-2.2-2.5.5l-.5 1.5q-1-2-2 0l-2.5-.5 2-1-1-5h1l.5 1.5.5-3.5h-2l1-2-2.5-2.5-1.5.5.5-1.5q-3.2-.7-4 1v-2l-2.5-1.5q-2.3-3.2-1-10l-1-1 1.5.5 1.5-.5.5-1.5 1.5.5 1.5-2.5 1 1 6.5-6.5-.5-1.5 1.5.5 1-2-.5-1.5 1.5.5zm285 84 4 3q1.3-2.2 2.5.5l.5 1.5 1.5-.5-.5 1.5 2 1 1.5-.5.5 1.5 1.5-.5-.5 1.5 2-1v2l2-1v2l2-1v2l2-1v2l2-1 1 2 2-1v2l3-1v2l2.5.5-2 1-.5 7.5-4-2-1.5.5-.5-1.5-1.5.5-.5-1.5-1.5.5-.5-1.5-2 1v-2l-3.5.5-1.5 2.5-1.5-.5 1 3-1 2h2q-1.2 2.8-2.5.5l-1.5-.5.5-1.5-1.5-.5q1.7-.7 1-4h-2l1-3h-2l1-2-3.5-6.5-1.5.5 1-2h-2l1-2h-2l1-2-2-1zm36 9 29.5 8.5-1 2 1 2h-2l.5 4.5 1-2 .5 3.5q-2 1-1 5h2l-1 4 2 1-1 3h2l-1 3h2l-1 2 2 1-1 2h2l-1 2 3.5 6.5 1.5-.5-.5 1.5 2.5 1.5-1 1 4.5 4.5 4-1 1 1 2.5-2.5-1-2h2l-.5-4.5-1.5.5q1.8-2.2 1-7h-1l-.5 1.5-.5-6.5h1l.5 1.5.5-4.5-1-2h2l-1-2 1.5.5 1.5-1.5-.5-1.5 3 1-.5-1.5 2.5-2.5 1.5-.5q-1.8-2.2-1-7h1l.5 4.5 1-3 1 2h3l4 2 7 1 1.5-.5-1 2h2l-1 2 2 1-.5 1.5 1.5.5-1 2h2l-1 2 2 1-1 2h2l-1 2 2 1-1 2h2l-1 3h2l-1 3h2l-1 3h2l-1 3h2l-1 3 2 1-1 2 2 1-1 3h2l-1 4h2q-1.7.8-1 4h2l-1 3 2 1q-1.7.8-1 4h2l-1 4h2l-1 4 2 1q-1.7.7-1 4h2l-1 5h2l-1 5h2q-1.7 1.8-1 6h2q-1.7 1.8-1 6h2q-1.7 1.8-1 6h2l-1 3v5h2l-1 3v8h1l.5-2.5.5 4.5-1 1v13h1l.5-3.5.5 25.5h-1l-.5-2.5-.5 8.5 1 2h-2l1 2-1.5 1.5-1.5-.5 1 2-1 3 2 1-1 1v6l.5 1.5-1.5-.5 1 2h-2l1 3h-2l1 4h-2l-.5 1.5-2-3-1 1-3.5-3.5 1-1-4-4-.5-1.5-1 1-2.5-2.5q2.5-1.5-1-3l-.5-1.5q-1.2 2.3-2.5-.5 2.5-1.5-1-3l-.5-1.5-1.5.5q2.5-1.5-1-3l-.5-1.5-1.5.5q2.5-1.5-1-3l-.5-1.5-1.5.5q2-1 0-2l-.5-1.5-1.5.5q2-1 0-2l-.5-1.5-1.5.5q2-1 0-2l-.5-1.5-1.5.5q2-1 0-2l-1.5-3.5-1.5.5.5-1.5-1.5-.5.5-1.5-1.5-.5q2-1 0-2l-1.5-3.5-1.5-.5 1-2h-2l1-2h-2l1-3h-2l1-3h-2l1-4h-2l1-2v-16h-1l-.5 3.5-.5-6.5 1-1v-7h-2q1.7-1.8 1-6h-2l1-5h-2l1-3-2-1 1-2-2-1 1-3h-2l1-3-2-1q1.8-.7 1-4h-2q1.7-1.8 1-6l-.5-1.5 1.5.5-.5-4.5-1 2-.5-1.5 1.5-1.5 1.5.5-1-2h2l-.5-6.5-6-3q-3 .5-2.5 4.5 1.8.8 1 4l-1 3 .5 1.5q-1.5-2.5-3 1l-1.5.5.5 1.5-6-2-6.5-5.5.5-1.5-1.5-.5.5-1.5-1.5-.5.5-1.5-1.5-.5 1-2h-2l1-2-2-1 1-1v-6l-.5-1.5 1.5.5-1-2h2l-1-2 2-1-1-3h2l-.5-3.5-1.5.5 1-2-4-3-.5-1.5-1.5.5.5-1.5-2 1-1-2-4 1v-2q-3.2-.8-4 1v-2l-1.5-.5q2-1 1-5h-2l1-8h-2l1-5h-2l1-2-2-1 .5-1.5-2.5-1.5-.5-1.5-1.5.5zm36 1 2.5 2.5-.5.5-2.5-2.5z"/><path fill="#50b327" stroke="#50b327" d="m545.5 215 .5 2.5h-1zm-255 231 .5 2.5h-1zm95 10 .5 1.5-3.5.5v-1zm-10 1 3.5.5-3.5.5zm-61 29 .5 5.5h-1zm100 4 9.5.5-9.5.5zm-21 2 2.5.5-2.5.5zm60 5 2.5.5-2.5.5zm-110 23 .5 2.5h-1zm-4 13 .5.5-2.5 2.5-.5-.5zm-7 5 .5.5-2.5 2.5-.5-.5zm189 15 .5.5-5.5 5.5-.5-.5zm-181 17 2.5 2.5-.5.5-2.5-2.5zm15 14 6.5 6.5-.5.5-6.5-6.5zm21 25 .5 2.5h-1z"/><path fill="#8cb082" stroke="#8cb082" d="m316.5 5 31.5.5-.5 1.5h9q.8-1.8 4-1v2h6l3-1v2l7-1v2q4.2.7 6-1v2l5-1 1 2 4-1 1 2 4-1v2l4-1 1 2 3-1 1 2 3-1v2l3-1 1 2 3-1v2l3-1 1 2 2-1 1 2 2-1 1 2 2-1 1 2 2-1v2l2-1 1 2 2-1 1 2 2-1v2l2-1 1 2 2-1v2l2-1 1 2 1.5-.5.5 1.5 2-1v2l2-1v2l2-1 1 2 1.5-.5.5 1.5 1.5-.5.5 1.5 1.5-.5.5 1.5 1.5-.5.5 1.5 1.5-.5.5 1.5 1.5-.5.5 1.5 1.5-.5.5 1.5 1.5-.5.5 1.5 1.5-.5-.5 1.5 2 1 1.5-.5.5 1.5 1.5-.5.5 1.5 1.5-.5 1.5 2.5 1.5-.5.5 1.5 1.5-.5 1.5 2.5 1.5-.5.5 1.5 2.5.5.5 1.5 2.5.5.5 1.5 2.5.5.5 1.5h2l3 2 18 14 30.5 29.5 5 7 2 5h-1l-3.5-6.5-3 1-18-6h-3l-4-2-10-2-4-2h-3l-4-2h-3l-4-2h-3l-4-2h-3l-4-2h-3l-4-2-10-2-7-3-10-2-4 5-1.5-.5 4-3q.8-4.7-1.5-6.5l-4-2h-12l-1.5-1.5-6.5-8.5q-12.8-11.7-28-21l-5-2h-5l-7 4-11 1-1 1h-11l-1 1h-20l-1 1h-8l-1-1-6.5-.5 8.5-.5 2 1 1-1 18.5-.5-19.5-.5-4-2h-3l-4-2-6-1-.5.5 4.5 4.5 1.5.5-1.5.5-6-6-3-1h-5l-1 1-6 1v-1l12.5-2.5-9.5-1.5-4-2h-3l-4-2h-3l-4-2h-3l-4-2h-3l-4-2h-3l-4-2h-3l-15-5-12 4v-1l14-5h3l4-2 11-2 5-2h4l1-1h4l6-2 13-1 1-1h7l1-1h13zM244 19v1h2zm189 53v1h4zM289.5 42l2.5.5-2.5.5z"/><path fill="#8cb082" stroke="#8cb082" d="m475.5 92 5 1 3.5 2.5-1.5-.5-7-2-2 1v-1zm-111 25 6 1 3-1v2l3-1 1 2 2 1 1.5-.5 1.5 2.5 1.5-.5.5 1.5 1.5-.5.5 1.5 1.5-.5.5 1.5 1.5-.5.5 1.5 2-1v2l2-1 1 2 2-1 1 2 1.5-.5.5 1.5 1.5-.5 1.5 2.5 1.5-.5.5 1.5q1.3-2.2 2.5.5l1.5 2.5 1.5-.5 2.5 3.5 1-1 7.5 7.5q-2.2 1.3.5 2.5l1.5.5-.5 1.5 1.5.5-1 4 1 2-2 1-1 2q2.3 1.2-.5 2.5l-1.5.5.5 1.5-1.5.5.5 1.5-1.5.5 1 2-2 3q2 1 1 5l-1 1q1.3 4.8-1 6v10l1 1 1 6-.5 1.5 1.5.5-.5 1.5 1.5.5 1.5 2.5 5.5 2.5-.5 1.5-12 4h-3l-2-2-1.5.5-.5-1.5q-3 .5-3.5-1.5l-.5-1.5q-4 .5-4.5-2.5l-1.5-2.5-3.5-2.5q2.3-1.2-.5-2.5l-1.5-.5-3-6q2.5-1.5-1-3l1-2-2-3 1-1-2-2 .5-1.5-1.5-.5q2.3-1.2-.5-2.5l-1.5-.5 1-1-7.5-7.5-1 1-2.5-2.5-2.5-3.5q-1.2 2.3-2.5-.5l-1.5-2.5q-1.2 2.3-2.5-.5l-1.5-2.5q-1.3 2.3-2.5-.5l-1.5-2.5q-1.2 2.2-2.5-.5l-1.5-2.5q-1.2 2.3-2.5-.5l-1.5-2.5-2.5-1.5.5-1.5-1.5-.5q1.7-.7 1-4l-3-2-.5-1.5q-1 2-2 0l-3.5 1.5 1 1-3.5 3.5-2.5 1.5-1 3 1 2-2 1-1.5 2.5-2-3q-1.2 2.3-2.5-.5l-1.5-2.5-1.5-.5q2.3-1.2 1-6l-.5-1.5 1.5-.5-1-3h2l-1-5h2q.8-3.2-1-4l1.5-1.5 1.5.5.5-1.5 1.5.5.5-1.5 3 1v-2l3.5.5 3.5 4.5q.8-1.8 4-1l2 1v-2l1.5.5.5-1.5 1 1 2.5-2.5 1.5-2.5 1.5.5.5-1.5 1.5.5.5-1.5 2 1 1-2 3 1zm-150 4 3 1h7l2-1 1 2 1.5-.5.5 1.5 1.5.5-.5 1.5 1.5.5q-1.7.8-1 4h2v6l-1 3 2 1-1 2h2l-1 2h2l-1 2h2q-2 1 0 2l.5 1.5 1.5-.5-1 1 2.5 2.5 11.5 10.5 3.5 4.5 1-1 2.5 2.5 2.5 3.5q1.3-2.2 2.5.5l1.5 2.5q1.3-2.2 2.5.5l.5 1.5q1.3-2.2 2.5.5l.5 1.5 1.5-.5.5 1.5q.8-1.7 4-1l3.5-2.5-.5-2.5-1.5-.5 1-2-2.5-3.5-1.5-.5.5-1.5-1.5-.5q2.3-1.2-.5-2.5l-1.5-.5q2-1 0-2l-.5-1.5-1.5.5.5-1.5-1.5-.5.5-1.5-1.5-.5.5-1.5-1.5-.5 1-1-.5-1.5q1 2 5 1l2-1v2l2 1 1.5-.5 4.5 5.5 2.5 1.5q-2 1 0 2l.5 1.5 1.5-.5-.5 1.5 1.5.5-.5 1.5 1.5.5-1 2 2 1q-2 1-1 5l2 1-1 4 2 1-.5 1.5 2.5 1.5.5 1.5 2-1q1 2 2 0l3.5-2.5-.5-1.5 1.5-.5-.5-1.5 1.5-.5-1-3 2-2-.5-1.5 1.5 1.5-.5 1.5 1.5.5-1 3 2 1q-2 1 0 2l.5 1.5 4.5 3.5.5 1.5 1.5-.5.5 1.5 4-1 1 2 6-1v1l-2.5 1.5.5 1.5-4.5 3.5 1 1-4.5 4.5-10.5 9.5q.5 3-1.5 3.5l-2.5 1.5q2.3 1.3-.5 2.5l-1.5.5-.5 2.5-1.5.5.5 1.5-1.5.5.5 1.5-1.5.5q2 1 0 2 .5 3.5-2 4l1 1v6l-1 1 2 2-.5 1.5 1.5.5q-2.3 1.3.5 2.5l2.5 1.5.5 1.5 2.5.5.5 1.5h3l9.5 3.5 6 14 10.5 13.5 1.5-.5v-4l1-1v-4l1-1v-4l1-1v-4l2-6v-13l-1-1v-6l-1-3q2.3-1.2 1-6l-1-2 2.5-2.5 5-1 1 2 1.5-.5.5 1.5 1.5-.5.5 1.5q1.3-2.3 2.5.5l.5 1.5 2.5.5 1.5 2.5h2l8 5 7 1 4 2 12.5 10.5 30 32-.5.5-8-8-1.5-.5-13.5-15.5-3 2-21 7-8 4-5 1-3 2-21 7-2 2h-3l-3 2-5 1-3 2-21 7-3 2-18 6-3 2-5 1-3 2-5 1-8 4-6 1-3 2-5 1-3 2-5 1-8 4-5 1-3 2-5 1-3 2-5 1-3 2-5 1-3 2h-2l-3 2-5 1-10.5 4.5 1 5q-2.5 1.5 1 3l-1 2 2 1-1.5 2.5-3.5-10.5v-3l-1-1v-4l-1-1q1.3-4.7-1-6v-13l1-1 1-16 2-5q-1.7-.7-1-4l2-4-1-1 2-2-.5-1.5 1.5-.5-.5-1.5 1.5-.5-.5-1.5 1.5-.5-.5-1.5 1.5-.5-.5-1.5 1.5-.5-.5-1.5 1.5-.5 1.5-4.5 1.5-.5-.5-1.5 1.5-.5-.5-1.5 1.5-.5q-2-1 0-2l1.5-4.5 1.5-.5-1-1q3.5-1.5 1-3l2-3-1-3 2-1-1-13 2-1-1-7 2-1-1-5 2-1-1-5 2-1-1-3 2-1-1-3 2-1-1-3 2-1-1-4 2-1-1-6h2l-.5-14.5-1.5-.5 1-3-2-1 1-2-2-1q2-1 0-2l-.5-1.5q-1.2 2.3-2.5-.5 2.2-1.2-.5-2.5l-1.5.5.5-1.5-2-1-1.5.5-.5-1.5-1.5.5-.5-1.5-1.5.5-.5-1.5-3-1-1.5.5.5-1.5-2 1-1-2-1.5.5-.5-1.5-2 1v-2l-2 1-.5-3.5h2l4.5-5.5 1.5-.5q-2.2-1.2.5-2.5l1.5-.5-.5-1.5 1.5-.5-.5-1.5 1.5.5 1-2q-2.2-1.3.5-2.5l2.5-.5-.5-1.5q.7 1.8 4 1 1.3-2.2 6-1l2 1 2-3q1.3 2.3 2.5-.5l-.5-1.5 1.5.5 1.5-2.5 1.5-.5-.5-1.5 2 1 1-2 2 1 1-2q.8 1.7 4 1zM192 133v1h2zm256.5 19q.8 1.8 4 1 1.3-2.2 2.5.5-2 1 0 2 .8 3.3-1 4l1 2-2 1q2 1 0 2l-1.5 3.5-3.5 2.5-.5 1.5q-1-2-2 0l-2-1q-1.3 2.3-2.5-.5 2.5-1.5-1-3-1.2-5.8 2-7l-.5-1.5 1.5-.5-.5-1.5 3.5-2.5.5-1.5 1.5.5z"/><path fill="#8cb082" stroke="#8cb082" d="m321.5 169 2 1 1-1 2 2 1.5-.5.5 1.5 1.5-.5.5 1.5 2-1 1 2 1.5-.5.5 1.5 1.5-.5.5 1.5 1.5-.5.5 1.5 1.5-.5 1.5 2.5 1.5-.5 1.5 2.5 1.5-.5 2.5 4.5 1.5.5-.5 1.5 2.5 1.5q-2.2 1.3.5 2.5h2l4.5 3.5.5 1.5 2.5.5 3.5 4.5 1.5.5q-2.5 1.5 1 3 .6 4.6-2 6l1 1q-3.5 1.5-1 3l-3 3 .5 1.5-2-1-2 1-3-2-2 1-2-2q-1.5 2.5-3-1l-2 1-2-2-1 1-2-2-1.5.5v-2l4-4 1-3v-5l-1-2q2.5-1.5-1-3l-.5-2.5-6.5-5.5-.5-1.5-1.5.5-.5-1.5q-.8 1.8-4 1l-1.5-.5-.5 1.5-8.5-7.5 1-1-3.5-3.5-1.5-.5 2.5-3.5zm80 103q1 2 2 0l3 3 2.5 1.5 3 4-.5.5-3.5-3.5-.5-1.5-3-2h-4l-3 3h-3v-1l2-1 1 1zm-10 4q2.5 1 1 2l-6 2v-1l1.5-.5.5-1.5q1.5 2.5 3-1Zm-7 4q1.5 1-1 2l-5 2-8 7-.5-.5 4.5-4.5zm28 2 2.5 2.5-.5.5-2.5-2.5zm9 3 5.5 5.5-.5.5-5.5-5.5zm-37 7 2.5.5-5.5 2.5q-1.5-1 1-2zm3 2 3.5 3.5-.5.5-3.5-3.5zm-17 1 2.5 1.5-1.5.5q-2.5-1-1-2Zm26 5 2.5.5-2.5.5zm5 2 .5.5-4.5 4.5-.5-.5zm-25 12 .5.5-5.5 5.5-.5-.5zm-11 14 .5.5-3.5 3.5-.5-.5zm-191 32 2.5 8.5h-1l-2-6zm7 2 1.5.5-2 1-1 2q1.2 6.2-1 9l2 2q-.7 3.3 1 4-1 1.5-2-1l-2-6 1-1v-7zm4 0 3.5 3.5-.5.5-3.5-3.5zm-4 20 1.5 2.5h-1z"/><path fill="#429ff8" stroke="#429ff8" d="M300.5 46h6l6 6 6 2h27l1-1h6q1.3 2.3 6 1l4-2h3q.8 1.7 4 1l3-2 3 1 1-2 4 1 1-2 2 1 2.5-1.5-.5-1.5 1.5.5.5-1.5 2.5.5-.5 1.5 2-1 1 2 1.5-.5 1.5 2.5 2 1 1.5-.5-.5 1.5 6 4 1.5-.5q-2.2 1.3.5 2.5l2 1 1.5-.5q-2.2 1.3.5 2.5l3 2q1.3-2.2 2.5.5l-1 1 4 4-.5.5-4-4-.5.5-30 47 4 3-1.5.5-5-4h-2l-1.5.5.5-1.5-3 1v-2l-13.5.5.5 1.5-3-1-1 2-2-1v2l-2-1v2l-2-1v2q-1.5-2.5-3 1l-1.5.5.5 1.5q-1.2-2.2-2.5.5l-.5 1.5-5-4-1.5.5-.5-1.5-5.5.5-.5 1.5-2-1-1 2-2-1-2 3-1-1-3.5 3.5.5 1.5-1.5.5 1 3-2 1q-.7 3.2 1 4l-2 1 1 3-2 1 1 2-2 1 .5 4.5 1.5.5-1 2 5 4-.5 1.5 4 3 1.5-.5-.5 1.5 6 2q1-2 2 0l3.5-1.5 1-3-1-2h1l.5 1.5.5-6.5 1.5-1.5 1 2 1.5-.5q-2 1 0 2l1.5 2.5 1.5-.5-1 1 2.5 2.5 2 1 1.5-.5q-2.2 1.3.5 2.5l2 1 1.5-.5-1 1 2 2-.5.5-4-3-6.5 10.5 3 2q-1 2.5-2 1l.5-1.5-4-2-1.5.5.5-1.5-2 1v-2l-2 1v-2l-2 1v-2l-2 1v-2l-4-1-1.5.5.5-1.5-2 1-1-2-3 1v-2l-4.5.5-.5 1.5q-1-2-2 0l-1.5.5 1 1-2.5 2.5-3 2q-1-4-7-3l-2 3-2.5 1.5 1 2q-1.2 2.8-2.5.5l-1.5-.5 1-4-2-1 .5-1.5-1.5-.5.5-1.5-1.5-.5.5-1.5-1.5-.5.5-1.5-2.5-1.5q2.3-1.2-.5-2.5l-9-8-4-2h-10q-5 1.5-3.5 9.5l9 14-1 1 .5 1.5-5.5-4.5-.5-1.5h-2l-6-5-13.5-13.5-5-8-1-3v-9q-1.7-.8-1-4l-3.5-5.5-5-3-3.5-.5 3.5-.5q4.8 1.7 7.5 5.5l2.5 6.5 1.5-5.5 14-20 1-3 31-47-5.5-.5-6.5 3.5q-1.1 5.4-5.5 7.5l-7 3-7 1-2.5 2.5-.5 3.5-.5-3.5 1.5-2.5 12-3q4.8-1.7 7.5-5.5l1-4 1.5-1.5 6-2h4l1-1 10-1zm-7.5 3v1h2zm-6 1v1h4zm-47 77-1 8h1z"/><path fill="#429ff8" stroke="#429ff8" d="m250.5 73 .5.5-3.5 3.5-.5-.5zm-6 4 1.5.5-4.5 1.5v-1zm-7 2 2.5.5-2.5.5zm194 0 5.5.5-5.5.5zm11 0 .5 1.5-3.5.5v-1zm-208 1 1.5.5-4 3-.5 1.5-.5-1.5zm-4 6 .5 1.5q-1 2.5-2 1zm-4 7 .5.5-2.5 2.5-.5-.5zm-4 5 .5.5-12.5 12.5-.5-.5zm-32 12 .5 2.5h-1zm17 2 .5.5-2.5 2.5-.5-.5zm6 3 3.5.5-3.5.5zm-5 1 2.5.5-2.5.5zm-13 9q1.5 1-1 2l-5.5-.5 5.5-.5zm381 18 .5 4.5h-1zm-135 7 .5.5-2.5 2.5-.5-.5zm-262 14q6.9 1.5 10.5 6.5l2 5v6q1.7.7 1 4l-1 1v8l-1 1-1 9-1 1v3l-2 5v4l-1 1v5l-1 1v6l-1 1v14l-1 1-1 9-8 17-2 2-5 10-2 6v8l-1 1-1 16-1 1v16l-1 1 2 6-1 2 2 3q-2.5 1.5 1 3l-1 2 2 3-1 1q3.5 1.5 1 3l.5 1.5 1.5.5-1 3 2 1-1 2 2 1-1 2 2 1-1 2 2 1-1 2 2 1-1 2 2 1-1 2 1.5 3.5 1.5-.5-1 2 1.5 2.5 1.5.5-.5 1.5 1.5.5-1 2h2q-2 1 0 2l3.5 5.5q1.3-2.2 2.5.5l-1 1 2.5 2.5 3 1 2-1v1l-1.5.5 2.5.5 1-1 1 1 1.5-.5q-1.7.8-1 4l1 3h-1l-1.5-6.5-4.5 3.5-5 9-80 121v2l6 6-1.5 1.5q-2.7-1.2-.5-2.5l-6.5-6.5L86 523.5l-.5-1.5-1 1-2.5-2.5 1-1-4.5-4.5-2.5-1.5 1-1-2.5-2.5-2.5-1.5 1-1-2.5-2.5-2.5-1.5q2.3-1.2-.5-2.5l-2.5-1.5q2.3-1.3-.5-2.5l-1.5-.5-.5-2.5-2.5-1.5.5-1.5-2.5-1.5-17-28-11-23v-2l-3-5-4-12h1l8.5 21.5.5-3.5 35-52 1-3 33-49 1-3 11-15 1-3 16-23 1-3 18-26 1-3 16-23 1-3 19.5-29.5 1 2 .5-4.5 1-1v-4l1-1v-18l-2-5-2.5-2.5-7-3zm8.5 41-1 3h1zm-1 3-1 4h1zm-1 5-1 3h1zm-1 6-1 3h1zm165.5-45 2.5 2.5-1 1 2 2-.5.5-2.5-2.5 1-1-2-2zm24 1 3.5 3.5-.5.5-3.5-3.5zm48 5 .5 15.5h-1zm-90 12q1 2 2 0l2.5 2.5-3-1q-5.3 11.2-15 18l-1 3-14 20-1 5 1 3 3 3q-1.5 3-3 0 2.3-1.2-.5-2.5l-1.5.5 1-3q-2-1-1-5l2-6-.5-1.5 1.5.5-1-2h2l1-2-.5-1.5 1.5.5 1-2-.5-1.5 1 1 2.5-2.5 2-3-1-1 7.5-7.5 1 1 5.5-5.5 1-2q-2.2-1.2.5-2.5 1.3 2.3 2.5-.5l1-2-.5-1.5 1.5.5zm35 1 3.5 3.5-.5.5-3.5-3.5zm-26 7 .5 3.5h-1zm-9 30 .5 2.5h-1zm218 8 2.5 2.5-.5.5-2.5-2.5z"/><path fill="#429ff8" stroke="#429ff8" d="m308.5 246 1.5.5-2.5 1.5q-1.5-1 1-2Zm26 1 .5 2.5h-1zm67 8 2.5 2.5-.5.5-2.5-2.5zm174 37 .5 7.5h-1zm-559 104 .5 2.5h-1zm252 6 4.5.5-4.5.5zm-250 1 .5 2.5h-1zm317 12 .5 2.5h-1zm-138 1 .5 5.5h-1zm123 0 2.5 2.5-.5.5-2.5-2.5zm-1 72 .5 2.5h-1zm13 24 4.5.5-4.5.5zm39 93 .5 3.5h-1zm-68 21 2.5.5-2.5.5zm30 0 3.5.5-3.5.5z"/><path fill="#54da2a" stroke="#54da2a" d="m202.5 70 .5.5-2 2-8.5 9.5-.5-.5 8-8zm-15 13 1.5.5-2 1q-1.7 8.7 2.5 11.5l5 1 3.5 3.5-.5.5-3-3h-3l-4.5-3.5q-2.3-3.2-1-10zm36 3-.5 1.5-3.5 4.5-.5-.5 3-3zm-5 7 .5.5-13.5 13.5-4 3-.5-.5 3.5-3.5zm-20 9 .5 3.5h-1zm-1 5 .5 2.5h-1zm2 3q1.5 1-1 2l-2.5-.5zm289 40 .5 2.5h-1zm4 3 2.5 2.5-.5.5-2.5-2.5zm-3 2 7.5 15.5h-1l-7-14zm7 1 3.5 2.5-1.5-.5q-3.8-.7-2-2Zm5 3 10.5 5.5-1.5.5-8-4q-2.5-1-1-2Zm12 6 3.5 1.5-1.5.5-2.5-1.5zm5 2 2.5.5-2.5.5zm1 2 .5 8.5-2.5.5-3.5-2.5 1.5.5 3 1zm10 1q2.1 1.4 1.5 5.5h-1zm-26 1q4.1-.6 5.5 1.5l-1.5.5q-.7-1.8-4-1zm-6 1 .5 3.5h-1zm4 0-.5 1.5-.5 1.5-.5-1.5zm52 1 .5 4.5h-1zm-53 4q1.2 4.4 4.5 6.5l-.5.5-2-2-3.5-2.5zm31 0 .5 4.5h-1zm23 3 .5 4.5h-1zm-22 5 .5 4.5h-1zm53 0 .5.5-2.5 2.5-1.5-.5zm-30 1 .5 2.5h-1zm24 2 1.5.5-2.5 3.5-.5-1.5zm-23 2 .5 2.5h-1zm51 0 1.5 3.5h-1q-1.7-1.5-.5-3.5Zm-74 1 4.5 1.5-3.5.5q-2.5-1-1-2Zm6 2 2.5.5-2.5.5zm38 0 .5 4.5h-1zm-34 1 2.5 1.5-1.5-.5q-2.4-.1-1-1Zm14 0 1.5 3.5h-1q-1.7-1.5-.5-3.5Zm52 1 1.5 3.5h-1q-1.7-1.5-.5-3.5Zm-50 4 5.5 10.5q-1 1.5-2-1l-4-8zm52 1 5.5 16.5h-1l-5-15zm-61 1 .5 3.5h-1zm27 0 .5 5.5h-1zm1 7 .5 4.5h-1zm-30 1 .5 1.5-2 3-.5 6.5-.5-6.5zm17 2q2.7 4.7 8.5 6.5l-1.5.5-7.5-6.5zm12 3 .5.5-2.5 2.5-.5-.5zm-30 7 1.5 3.5h-1q-1.7-1.5-.5-3.5Zm71 0 .5 2.5h-1zm-49 2 .5.5-2 2-.5 2.5-.5-2.5zm50 2 2.5 9.5h-1l-1-6-1-1zm-44 1 .5 6.5-2 3v4l-1 1-.5 4.5-.5-4.5q2-1 1-5l2-3zm-8 6 1.5 2.5-6.5 4.5h-3l-6.5-5.5.5-.5 4 4 5 1 4.5-3.5zm55 4 .5 3.5h-1zm1 5 .5 2.5h-1zm1 4 .5 2.5h-1zm-51 1 .5 3.5h-1zm52 3 .5 3.5h-1zm-51 2 1.5 5.5h-1l-1-3zm52 3 .5 3.5h-1zm1 5 .5 3.5h-1zm-50 2 1.5 3.5v3h-1zm51 3 .5 4.5h-1zm-49 5 .5 4.5h-1zm50 1 .5 4.5h-1zm-49 5 .5 7.5h-1zm50 1 .5 4.5h-1zm1 7 .5 5.5h-1zm-50 3 .5 16.5h-1zm51 5 .5 8.5h-1zm1 11 .5 13.5h-1zm-51 2 .5 2.5h-1zm1 4 3.5 9.5h-1l-3-7zm4 11 2.5 4.5q-1 1.5-2-1-1.7-1.5-.5-3.5Zm4 8 16.5 24.5 18.5 21.5 1-2 .5 3.5-.5.5-3.5-3.5-23-28-8-12-2-4zm42 8 .5 8.5h-1zm-1 10 .5 1.5-2.5 3.5-.5-1.5zm-2 6 .5 2.5h-1zm1 4 .5 6.5-2.5 4.5-.5-1.5 2-3zm-3 12 .5 2.5h-1zm-258 85 5.5.5-5.5.5zm-1 3 3.5 1.5-1.5.5-2.5-1.5zm13 0 1.5.5-.5 1.5-9.5-.5 7.5-.5zm-69 19 1.5 1.5v8h-1v-8zm-22 5 5.5 4.5-.5 1.5-3-4q-3.8-.7-2-2Zm22 6 1.5 10.5 5.5 5.5 10.5 3.5.5 1.5q.8-1.8 4-1l1 1h7l5-2 11-9 4-2h32l1-1h9l1-1h22l9 4 8 1 1 1h6l1 1h18l6 2 2.5 2.5q2.7 5.8 7.5 9.5l7 2 1-1h7l6-2 9-1 15-5 7-1 3.5 2.5 1 2-15 28-2 6v3l-2 4-12.5 12.5-29 20-27 14h-2l-5 3-15 5-3 2-24 8h-3l-4 2h-3l-5 2h-4l-1 1-11 1-1 1-.5-2.5 1-1q-1.2-4.8 1-6v-7l-3.5-4.5-5-3-28-27-14.5-12.5q-1.8-2.2-1-7 2.8-8.7 9.5-13.5 3.9-.6 5.5-3.5l2-3 1-7 1-1v-11l-5.5-4.5h-13l-1-1h-4l-6-2-9-5-3.5-3.5q-.9-5.6-4-9 1-1.5 2 1l3 8 2.5 2.5 3 2h2l2 2 1.5-.5.5 1.5 2-1 1 2 2.5-1.5-1.5-2.5q-1.2 2.3-2.5-.5v-2l-3-5zm8.5 17-2 3q1 1 2-1z"/><path fill="#75bc5d" stroke="#75bc5d" d="m243.5 19 2.5.5-3 1 5.5 2.5 10 2 4 2h3l4 2h3l18 6h3l4 2 9.5 1.5-6 1 .5 1.5q-.7-1.7-4-1v2l-3-1q-1.5 3.5-3 1-3.5-.5-4 2h-5l-1 1-7 1-6.5 5.5q-.6 3.9-3.5 5.5l-5 1v-1l2.5-.5-13.5-4.5h-3l-4-2h-3l-4-2h-3l-4-2h-3l-2.5-1.5-.5-1.5-5 8 .5-1.5q4-4 4-12l-4.5-7.5-2.5-1.5h2l.5-1.5h2l3-2 1 1 2-2 1.5.5.5-1.5 3 1v-2l3 1v-2l3 1v-2q.8 1.8 4 1zm65 20 3 2 6 1 4 2h3l4 2 19.5.5-18.5.5-2 1-1-1h-8l-2 1v-2l-2 1q-2.7-1.2-.5-2.5l-3.5-3.5-1.5.5.5-1.5q-2.4-.1-1-1Zm47 8 2.5.5-2.5.5zm-34 1 3.5.5-3.5.5zm13 0 4.5.5-4.5.5zm-120 3 .5.5-2.5 2.5-3 1v-1zm41 7 2.5.5-2.5.5zm-3 1 1.5.5-4.5 2.5q-1.5-1 1-2zm171 5 3.5 3.5-.5.5-3.5-3.5zm8 7 1 1 4.5.5-4.5.5q-2.5-1-1-2Zm19 10h3l14 5h3l4 2h3l4 2h3l4 2h3l4 2h3l4 2h3l4 2h3l4 2h3l4 2h3l14 5h3l4 2 6 1v-2l1 1 1.5-.5-1 2 5 7-1 2 1 1-.5 1.5 1.5.5v7q1.8.8 1 4l2 6 5 7q-1 1.5-2-1l-2.5-3.5-3 1-14-5h-3l-4-2h-3l-4-2h-3l-4-2-10-2-6-3-.5 2.5 1 2h-1q-5.6-17.9-17.5-29.5l-2.5-1.5-1.5-2.5-2.5-.5-.5-1.5-1.5.5-.5-1.5-1.5.5.5-1.5-2 1v-2l-3 1v-2l-4.5 1.5.5 1.5-1.5.5 2 6q-2.5.5-2 4l12.5 13.5 10.5 8.5-6.5 5.5q-1.5-1 1-2l4.5-3.5-10.5-8.5-2 1-7-3h-3l-12-4-.5.5 10 10 7 8-.5.5-7.5-7.5-10.5-11.5-10-7-7-3-9.5-7.5-2-3v-2l2-1 .5-1.5 7-2 2 1 2-1 1.5.5.5-1.5 2 1z"/><path fill="#75bc5d" stroke="#75bc5d" d="m511.5 133 2.5 9.5h-1l-1-6-1-1zm71 10 10.5 17.5q-1 1.5-2-1l-7.5-13.5-1 5zm-13 5 .5 1.5-2.5 1.5v-1l1.5-.5zm-6 3 2.5.5-6.5 2.5q-1.5-1 1-2zm18 1 .5 2.5-1 1-.5 5.5-.5-5.5zm-126 3 .5 2.5h-1zm138 7 3.5 5.5q-1 1.5-2-1l-2-4zm-202 90 4.5 4.5-.5.5-4.5-4.5zm5 7 11 12 1-1 5.5 5.5-1 1 7.5 7.5 3.5 2.5-1 1 3.5 3.5 1.5.5-4.5.5-1-2-2 1-2-3-1.5.5-1.5-2.5-2.5-1.5q2.3-1.3-.5-2.5l-1.5-.5 1-1-3-3-.5-1.5-1.5.5.5-1.5-2-1-1.5.5q2.3-1.2-.5-2.5-1 2-2 0l-1.5 1.5 1 1-2.5 2.5q-1.5-3.5-3-1l-1.5.5 2 1-2.5.5q-1.7-3.7-3.5-.5l.5 1.5-2-2-.5.5-.5 1.5-1.5.5-.5 1.5q-1-2-2 0l-3.5 1.5.5 1.5-2-1v2q-1.5-2.5-3 1l-1.5.5.5 1.5-1-1-3.5 3.5.5 1.5-1.5.5.5 1.5 2.5 1.5-.5 1.5 4-1 2 1 1-2 1.5.5.5-1.5q1 2 2 0l1.5-.5-.5-1.5q.8 1.8 4 1l4.5 4.5.5 1.5 1.5-.5.5 1.5 1.5-.5.5 1.5 5-1 .5 1.5-5.5 6.5q-1.2-2.2-2.5.5l-.5 1.5-1.5-.5-.5 1.5-1.5-.5-.5 1.5-1.5-.5-.5 1.5-2-1-1 2-4-2-1 2-1.5-.5-.5 1.5-1-1-5.5 5.5.5 1.5-2.5 1.5.5 1.5-2.5 1.5q2.3 1.3-.5 2.5l-3.5 2.5 1 1-3.5 3.5-1.5.5.5 1.5-1.5.5v2l-3 4 .5 1.5-1.5.5q2 1 0 2v2l-2 3-1 7-1 1-.5 5.5-1.5.5v2l-5.5 5.5q-6.4 3.1-10.5 8.5l-5 9q.8 3.3-1 4v7l4 11v3l-1.5.5-7.5-7.5-9.5-12.5h-46q-1.2 2.2-6 1l-6.5 4.5-6 11q.7 3.3-1 4v13l3 8 7.5 8.5 4 2 7 1 1-1 6-1 10-7h4l1.5 1.5v11l-2 5v5l5 4-1.5.5-3.5-2.5-1.5-7.5-2 3-13.5 4.5 12.5 6.5 3.5 3.5-.5.5-3-3-17-9h-2l-8-4-7-2-10-5-8-5-10-9-6-4-4-1-4.5-4.5-2-5q1.3-4.7-1-6v-8l-2-6 .5-1.5-1.5-.5 1-2-2-1 1-1-2-2 .5-1.5-1.5-.5.5-1.5-1.5-.5.5-1.5-1.5-.5 1-2-2-1 1-2-2-1 1-2-2-1 1-2-2-1 1-3-2-1 1-3-2-1 .5-1.5-1.5-.5.5-1.5-1.5-.5 1-1-3.5-3.5-2 1-2-1v2l-1.5-.5q-2.2 2.8-1 9l2 1-.5 2.5-1-1-1.5.5 1-2-2-1 1-2-2-1 1-3h-2l1-3h-2l1-3-2-1 2-3-1.5-.5-1.5.5 2-3-1.5-1.5-1.5.5 2-3q-1.8-.7-1-4l10.5-4.5 5-1 3-2h2l3-2 5-1 3-2 5-1 3-2 5-1 3-2 5-1 8-4 5-1 3-2 5-1 3-2 6-1 8-4 5-1 3-2 21-7 8-4 5-1 3-2 5-1 3-2 19.5-6.5-.5-1.5q1 2 2 0l5-1 3-2 5-1 3-2 5-1 3-2 5-1 8-4 5-1 3-2 5-1 10.5-4.5zm15.5 15-1 2h2q1-1-1-2ZM289 443l-1 3h1zm0 4-1 5h1zm-1 6-1 4h1zm-104.5-66 1.5 2.5h-1zm150 55 16.5 4.5-3.5.5-6-2v2q-2.3-3.2-7-4z"/><path fill="#75bc5d" stroke="#75bc5d" d="m342.5 447 4.5 2.5-1.5.5-3.5-2.5zm9 0 4.5 1.5-2.5.5-2.5-1.5zm-54 22 3.5.5-3.5.5zm9 2 3.5 1.5-1.5.5-2.5-1.5zm-18 5 2.5 2.5-.5.5-2.5-2.5z"/><path fill="#59d1f0" stroke="#59d1f0" d="m421.5 70 2.5 2.5-.5.5-2.5-2.5zm13 10 3.5.5-3.5.5zm-9 17 7.5 7.5-.5.5-7.5-7.5zm54 3q8.8 3.3 13.5 10.5l9 15-.5.5-4-4q-10.9-7.1-19.5-16.5zm-42 7 5.5 3.5-1.5-.5q-4-.5-4-3Zm7 4q12.2 6.9 20.5 17.5l6.5 7.5 7 4h8l5-2 8-7 4-2 2.5 6.5v3l1 1v3l2 6 4 8 3 3-1.5-.5-4-1-11-6-9-7h-5l-2.5 2.5-1 4q2 1 1 5l8 15 2 9 7.5 7.5 4 2h7q2.5-1 1.5-5.5l-5-5 .5-.5 9 5h5l3-5 1.5 13.5 3.5 4.5 5 2h4l4.5 2.5v4l-4 8v6l5 12 7.5 9.5 5 3h7l2-1 2.5 13.5 3 7 1 8 1 1v6l1 1v21l1 1v5l4 12 9 17 6 9 13 17 20 22-1 1-2 11-2 4v3l-2 4v3l-3 9-2 3-1 5-8 17v2l-13 25-12 19-14 19q-16.2 20.3-35.5 37.5l.5-1.5 1-6 15-27v-5l-5.5-6.5q-2.8-2.2-9-1l-1 1h-3l-4 2h-3l-9 3h-4l-6 2h-5l-1 1h-7l-2.5-1.5q-3.4-7.1-9.5-11.5l-5-2h-15l-1-1h-9l-1-1-8-1-15-5h-13l-1 1-21 1-1 1h-19q-1-2-5-1l-8 3-13 10h-9l-1-1h-4l-6-2-3.5-2.5-1-2v-10l1-1v-7l-5.5-6.5h-2l-9-4-9-1-1.5-1.5 1-10 1-1v-7l-2-5-2.5-2.5q-1.8-1.7-6-1l-7 3-9 6h-7l-7.5-6.5-3-6q.8-3.3-1-4v-6h1v5l1 1 .5 4.5 2.5-1.5 15-23 1-3-9.5-.5v2l-3-1-2 2-.5-.5 2.5-2.5 3-1h47l13 16 4 3h6l3.5-4.5v-3l-4-11v-10q3.6-9.4 11.5-14.5l9.5-8.5 2-3 1-9 7-18q8.9-9.1 15.5-20.5 2.5-2 8-1l9-4 11.5-9.5q1.8-2.2 1-7l-4.5-3.5h-5l-3-1-8.5-7.5 5.5-3.5h5l6-3 4.5 6.5 7.5 7.5 6 3h8l4.5-3.5v-2l-4-6-43.5-45.5-10-6-3.5-.5 3.5-.5 6 3 12.5-17.5 1-5q-6.9-5.6-11-14 1-1.5 2 1l1 3 6.5 7.5 14 10h8l24.5-9.5-.5-1.5-9-3-7.5-4.5-1-2v-27q1.8-.8 1-4l6-10v-10l-2-4-12-12 .5-.5 12.5 12.5 2 4v10l-1 2 1.5.5 4.5-5.5.5-3.5 2.5-1.5 1.5-2.5 1.5-.5q-2-1 0-2l7-12 9-12q-5-6-12.5-9.5-2.5-1-1-2Zm6.5 35q-1 2-4 1l-5 3-7 10v10l1 3 7 5h4l6-3 4-5 4-10q1-6-1-8l-4-5h-2zm-17 14-1 5h1zm-4 2-4 6 1 1 2-3q4-2 1-4Zm-4 7-1 4h1zm-1 6-1 7h1zM315 433l-3 1q-3 1-2 6l3 2 16 4 11 7 9 4h9l3-2v2l5 4 7 1 1 1h13l3-1 2-2-2-6-5-5-8-3h-7l-6 3-1-2-4-4-6-2h-3l-4-2-15-3-1-1h-4l-1-1h-6q-1-2-4-1Zm251.5-309 9.5 12.5v16q-3 2-2 8l3 7 2 2 2 6v6l-6 3-2 3-1 6-1 1v10q2 1 1 5h-1l-6-11v-2l-3-6-1-8-1-1v-8q7.6.1 10-5v-3l-5-7 1.5-1.5 4-1 4.5-4.5v-6l-6-8-2-6v-4l-1-1zm-154 6 2.5 2.5-.5.5-2.5-2.5z"/><path fill="#59d1f0" stroke="#59d1f0" d="m432.5 153 .5 3.5h-1zm-67 15 2.5 2.5-.5.5-2.5-2.5zm5 4 9.5 9.5 1 3h-1l-1-3-9-9zm-14 12 3.5 3.5-.5.5-3.5-3.5zm25 2 .5 2.5h-1zm1 4 .5 2.5h-1zm-46 2 2.5 2.5-.5.5-2.5-2.5zm31 0 4.5 4.5-.5.5-4.5-4.5zm16 2 1.5 3.5h-1zm-11 4 1.5 2.5h-1zm2 4 .5 8.5h-1zm-2 13 .5 1.5-1.5 2.5-.5-1.5zm-2 5 .5.5-4.5 4.5h-7l-1 1-3.5-2.5 1.5-.5 1 1h9zm-10 6 3 3 8.5 3.5-2.5.5-6-3-3.5-3.5zm-28 10 .5 3.5h-1zm1 7 .5 5.5h-1zm-12 9 2.5 2.5-.5.5-2.5-2.5zm12 4 .5 3.5h-1zm-8 2 .5 3.5h-1zm7 4 .5 2.5h-1zm-6 1 4 7 1-4 .5 3.5-1.5 1.5-2.5-2.5-2-4zm-70 145-.5 1.5-3.5 10.5-.5-3.5zm-58 8 .5 4.5h-1zm5 18 4.5 4.5-.5.5-4.5-4.5zm14 9 9 8 9 6 14 7h2l3 2 12 4 13 7 13.5 11.5q3.1 3.4 4 9l3.5 4.5 4 3 13 6 11 1 1 1 9.5.5q1 4-1 5v7l-1 3-3.5 3.5-3 1-5.5 5.5-4 7-2 10 1 3 6.5 7.5 7 5 27 26 10.5 8.5v8l-1 1v5l-1.5 3.5q-3.2-.7-4 1h-6l-1 1h-9l-1 1h-16l-1 1h-21l-1-1h-16l-1-1h-9l-1-1h-6l-1-1-12-1-1-1-9-1-1-1h-3l-1-1-15-3-7-3h-3l-9-3-3-2-15-5-27-13-2-2-15-8-17.5-12.5.5-.5 2 2 19 12 1.5-.5-.5 1.5 1.5-.5 1-3 14-20 1-3 18-26 1-3 16-23 1-3 16-23 1-3 10-15h-2l-.5-1.5-1.5.5.5-1.5-3-1-10-8-3.5-3.5zm-107 104 3.5 3.5-.5.5-3.5-3.5zm7 6 2.5 2.5-.5.5-2.5-2.5zm4 3 3.5 3.5-.5.5-3.5-3.5zm5 4 2.5 2.5-.5.5-2.5-2.5zm4 3 2.5 2.5-.5.5-2.5-2.5z"/><path fill="#b4e6aa" stroke="#b4e6aa" d="m347.5 6 9.5.5-9.5.5zm13 1 6.5.5-6.5.5zm9 1 4.5.5-4.5.5zm7 1 4.5.5-4.5.5zm6 1 3.5.5-3.5.5zm6 1 2.5.5-2.5.5zm5 1 2.5.5-2.5.5zm4 1 2.5.5-2.5.5zm12 3 2.5.5-2.5.5zm7 2 2.5.5-2.5.5zm13 4 3.5 1.5-1.5.5-2.5-1.5zm8 3 3.5 1.5-1.5.5-2.5-1.5zm5 2 3.5 1.5-1.5.5-2.5-1.5zm7 3 5.5 2.5-1.5.5-4-2zm23 11 3.5 2.5-1.5-.5q-3.8-.7-2-2Zm-105 76 3.5.5-3.5.5zm-5 1 2.5.5-2.5.5zm11 0 2.5.5-2.5.5zm4 1 2.5 1.5-1.5-.5q-2.4-.1-1-1Zm-160 2 7.5.5-7.5.5zm-6 1 3.5.5-3.5.5zm141 1 .5.5-2.5 2.5-.5-.5zm-147 1 1.5.5-5 3-3.5 4.5-.5-.5 3-3 2.5-3.5zm127 0 2.5.5-2.5.5zm6 0 3.5 3.5-.5.5-3.5-3.5zm-10 2 .5.5-2 2-.5 3.5-.5-3.5zm20 0q1.5 1-1 2l-1.5-.5zm42 0 3.5 1.5-1.5.5-2.5-1.5zm-159 1 .5 3.5h-1zm-46 5 3.5.5-5.5 1.5v-1zm6 1 2.5.5-2.5.5zm134 1 .5 2.5h-1zm-143 1 .5.5-2 2-1.5 2.5.5-1.5zm50 2 .5 2.5h-1zm179 0 3.5 3.5-.5.5-3.5-3.5zm-70 1 1.5.5q-4.3 1.2-6.5 4.5l-.5-.5 3.5-3.5zm-108 3q2.4 7.1 7.5 11.5l-.5.5-3.5-3.5-4-7zm90 0 .5 5.5h-1zm24 0 .5 3.5h-1zm-12 3-.5 1.5-1.5 3.5-.5-1.5zm-160 2 .5.5-3.5 3.5-.5-.5zm245 0 2.5 2.5-.5.5-2.5-2.5zm-93 4 2.5 2.5-.5.5-2.5-2.5zm-161 1 2.5.5-.5 1.5-2.5-1.5zm166 0 .5 3.5q-1 1.5-2-1zm21 0 2.5 2.5-.5.5-2.5-2.5zm-84 1 4.5.5-4.5.5-1 1q-1.5-1 1-2Zm180 0 3.5.5-3.5.5zm-279 1 3.5 1.5-1.5.5-2.5-1.5zm105 0 2.5 1.5-1.5-.5q-2.4-.1-1-1Zm170 1 .5.5-2.5 2.5-.5-.5zm-203 1 7.5 7.5-.5.5-7.5-7.5zm37 0 4.5 4.5-.5.5-4.5-4.5zm-102 1 5.5 2.5-1.5.5-4-2zm184 1 2.5 2.5-.5.5-2.5-2.5zm62 1 .5 1.5q-1 2.5-2 1zm-152 1 2.5 3.5q-1 1.5-2-1zm-83 2 6.5 5.5 1 2q-1 1.5-2-1l-3.5-4.5q-3.8-.7-2-2Zm96 0 3.5 4.5q-1 1.5-2-1l-2-3zm-32 3 5.5 5.5-.5.5-5.5-5.5zm118 0 2.5 2.5-.5.5-2.5-2.5zm5 4 8.5 8.5-.5.5-8.5-8.5zm75 0 .5.5-2.5 2.5-.5-.5zm-173 1 2.5 4.5h-1l-2-4zm42 0 1.5.5-3 2-.5 1.5-.5-1.5zm-60 1 3.5 3.5-.5.5-3.5-3.5zm31 2 .5 4.5h-1zm-26 2 2.5 2.5-.5.5-2.5-2.5zm54 0 4.5 4.5-.5.5-4.5-4.5zm-38 1 .5 2.5h-1zm-82 2 .5 14.5h-1zm149 4 2.5 3.5h-1l-2-3zm-22 1 3.5 3.5-.5.5-3.5-3.5zm-23 1 .5.5-2.5 2.5-.5-.5zm114 1 .5 10.5h-1zm-95 6 3.5.5-3.5.5zm-124 4 .5 3.5h-1zm127 0 .5.5-3.5 3.5-.5-.5zm39 3 3.5 3.5-.5.5-3.5-3.5zm-167 3 .5 2.5h-1zm120 3 .5.5-9.5 9.5-.5-.5zm-121 1 .5 2.5h-1zm-1 4 .5 2.5h-1zm171 8 .5.5-2.5 2.5-1.5-.5zm-173 2 .5 2.5h-1zm-1 5 .5 3.5h-1zm149 1 3.5.5-4.5 1.5q-1.5-1 1-2Zm-2 5 .5 5.5h-1zm-148 1 .5 4.5h-1zm-1 13 .5 5.5h-1z"/><path fill="#506c46" stroke="#506c46" d="m311.5 5 3.5.5-3.5.5zm37 0 3.5.5-3.5.5zm-49 1 2.5.5-2.5.5zm-79 32 .5 2.5h-1zm82 2 3.5.5-3.5.5zm56 7 2.5.5-2.5.5zm-19 1 5.5.5-5.5.5zm93 26 2.5.5-2.5.5zm9 11 2.5.5-2.5.5zm96 3L549 99.5l-.5.5L537 88.5zm44 57 .5 3.5h-1zm-248 7 .5 2.5h-1zm44 19 4.5 4.5-.5.5-4.5-4.5zm-98 4 .5 2.5h-1zm138 4 .5 17.5h-1zm-220 9 .5 2.5h-1zm167 9 2.5 2.5-.5.5-2.5-2.5zm-18 2 .5 4.5h-1zm-36 11 .5.5-2.5 2.5-.5-.5zm29 36 .5 2.5h-1zm58 12 3.5 3.5-.5.5-3.5-3.5zm17 18 3.5 3.5-.5.5-3.5-3.5zm-244 14 .5 2.5h-1zm166 88 .5.5-3.5 3.5-.5-.5zm-70 19 3.5.5-3.5.5zm60 2 .5 2.5h-1zm-3 13 2.5 2.5-.5.5-2.5-2.5z"/><path stroke="#000" d="m309.5 0 3.5.5-3.5.5zm41 0 3.5.5-3.5.5zm-52 1 2.5.5-2.5.5zm64 0 2.5.5-2.5.5zm175 80 7.5 7.5-.5.5-7.5-7.5zm-444 13 .5.5-4.5 4.5-.5-.5zm457 0 4.5 4.5-.5.5-4.5-4.5zm-471 15 .5.5-2.5 2.5-.5-.5zm-78 174 .5 2.5H1zm-1 11 .5 3.5H0zm639 1 .5 3.5h-1zM.5 336l.5 3.5H0zm639 3 .5 2.5h-1zm-638 9 .5 2.5H1zm637 0 .5 2.5h-1zm-1 9 .5 4.5h-1zm-554 172 17.5 17.5-.5.5L83 529.5zm473 0 .5.5-17.5 17.5-.5-.5zm-449 23 2.5 2.5-.5.5-2.5-2.5zm425 0 .5.5-2.5 2.5-.5-.5zm-245 78 2.5.5-2.5.5zm63 0 2.5.5-2.5.5zm-52 1 4.5.5-4.5.5zm39 0 4.5.5-4.5.5z" opacity=".192"/><path stroke="#000" d="m313.5 0 7.5.5-7.5.5zm29 0 7.5.5-7.5.5zm-41 1 4.5.5-4.5.5zm56 0 4.5.5-4.5.5zm-65 1 3.5.5-3.5.5zm75 0 3.5.5-3.5.5zm-82 1 2.5.5-2.5.5zm90 0 2.5.5-2.5.5zm6 1 2.5.5-2.5.5zm-108 1 2.5.5-2.5.5zm-11 2 2.5.5-2.5.5zm256 58 2.5 2.5-.5.5-2.5-2.5zm-396 4 .5.5-2.5 2.5-.5-.5zm401 0 2.5 2.5-.5.5-2.5-2.5zm-406 4 .5.5-2.5 2.5-.5-.5zm413 2 4.5 4.5-.5.5-4.5-4.5zm-419 3 .5.5-2.5 2.5-.5-.5zm-7 6 .5.5-6.5 6.5-.5-.5zm441 5 4.5 4.5-.5.5-4.5-4.5zm-460 14 .5.5-5.5 5.5-.5-.5zm-9 10 .5.5-3.5 3.5-.5-.5zm488 1 2.5 2.5-.5.5-2.5-2.5zm9 11 2.5 2.5-.5.5-2.5-2.5zm4 4 2.5 2.5-.5.5-2.5-2.5zM4.5 264l.5 2.5H4zm631 0 .5 2.5h-1zm-632 6 .5 2.5H3zm633 0 .5 2.5h-1zm-634 7 .5 3.5H2zm635 0 .5 3.5h-1zm-636 9 .5 4.5H1zm637 0 .5 4.5h-1zM.5 298l.5 8.5H0zm639 1 .5 7.5h-1zM.5 327l.5 8.5H0zm639 4 .5 7.5h-1zm-638 12 .5 4.5H1zm637 1 .5 3.5h-1zm-1 9 .5 3.5h-1zm-635 1 .5 2.5H2zm1 7 .5 2.5H3zm2 12 .5 2.5H5zm629 0 .5 2.5h-1zm-567 137 2.5 2.5-.5.5-2.5-2.5zm505 0 .5.5-2.5 2.5-.5-.5zm-500 6 2.5 2.5-.5.5-2.5-2.5zm495 0 .5.5-2.5 2.5-.5-.5zm-490 6 4.5 4.5-.5.5-4.5-4.5zm485 0 .5.5-4.5 4.5-.5-.5zm-459 26 3.5 3.5-.5.5-3.5-3.5zm433 0 .5.5-3.5 3.5-.5-.5zm-425 7 2.5 2.5-.5.5-2.5-2.5zm417 0 .5.5-2.5 2.5-.5-.5zm-273 70 2.5.5-2.5.5zm127 0 2.5.5-2.5.5zm-116 2 2.5.5-2.5.5zm105 0 2.5.5-2.5.5zm-98 1 2.5.5-2.5.5zm91 0 2.5.5-2.5.5zm-84 1 3.5.5-3.5.5zm76 0 3.5.5-3.5.5zm-66 1 4.5.5-4.5.5zm55 0 4.5.5-4.5.5zm-42 1 10.5.5-10.5.5zm23 0 10.5.5-10.5.5z" opacity=".463"/><path fill="#61b13d" stroke="#61b13d" d="m221.5 43 1 2 39 11 2-1v1l-1.5.5.5 1.5-3-1v2l-4-1-1 2-2-1-3.5 2.5-.5 1.5-2.5 1.5.5 1.5-1.5.5 1 3-4.5 3.5h-3l-5 2-1.5-.5-.5 1.5-2.5.5-.5 1.5-.5-1.5.5-1.5h-4l-4-2-10-2-6-3-2 2-.5-.5 3-4q-2-1 0-2 1-4-1-5l2-1-.5-1.5 2.5-.5.5-1.5 2 1v-2l2 1v-2q1.3 2.3 2.5-.5l1.5-2.5 1.5.5zm236 68 4 3 6 1 15 5v-2l1 1 1.5-.5-1 1 2.5 2.5 3 2 1.5-.5-.5 1.5 4 3 1.5-.5q-1.2 2.8-2.5.5l-3 3-1.5.5.5 1.5-1.5-.5-.5 1.5-2-1-1 2q-4.2.8-5-2l-1.5.5-.5-1.5-1.5.5-2.5-3.5q-1.2 2.3-2.5-.5l1-1-3-3-.5-1.5-1.5.5 1-1-8.5-8.5q-1.2 2.3-2.5-.5l1-1zm53 16 6 3h3l4 2h3l4 2h3l4 2h3l4 2h3l7 3h3l6 2v-2l4 5 1.5-.5-.5 1.5 1.5.5-1.5 2.5-1.5.5-.5 1.5-3-1v2l-3-1-3.5 5.5 7 8-1.5 2.5q-3.2.8-4-1l-3 3-1-1h-3l-4-2h-3l-4-2h-3l-12-4-.5 1.5.5 1.5-4-7-3.5-2.5-4-8 1-1q-3.5-1.5-1-3l-.5-2.5-1.5.5q1.8-.7 1-4h-2l1-3-2-1 1-2q-1.9-.9-.5-3.5Zm73 19 1 2 1.5-.5-1 2 1.5 1.5 1.5-.5-1 2h2q-2 1 0 2l1.5 3.5 1.5-.5-1 2h2l-.5 1.5 1.5.5q-2 1 0 2l1 3 4 5 4 8v2l3 4q-1 1.5-2-1l-.5-1.5h-3l-1-1h-3l-7.5-2.5-.5-1.5-1 2-1.5-7.5-2-3v-2l-2-2 .5-1.5-1.5-.5.5-1.5-1.5-.5 1-1v-5l1-3-1-3h1l.5 1.5zm-94 5 2.5 1.5-1.5.5q-2.5-1-1-2Zm-234 249 .5.5-2.5 2.5-.5-.5zm33 43 .5 2.5h-1zm55 1v2l6 1 1.5-.5-.5 1.5 3-1v2l3-1 .5.5-2 2 .5 1.5-3-1-2 1v-1l1.5-.5-6.5-1.5-1.5.5.5-1.5-2-1-1.5.5.5-1.5-1.5-.5zm-55 3 .5 4.5h-1zm-24 2 3.5.5-3.5.5zm107 2 2.5.5-2.5.5zm-84 2 .5 3.5h-1zm81 0h9l2 1 1.5-.5-.5 1.5 2-1q1.5 1-1 2h-10l-1 1v-2l-3 1 .5-1.5zm11 4 2.5.5-2.5.5zm-93 1 1 6 1.5-.5-1 2 4.5 2.5 1.5-.5-.5 1.5 5-1v1l-1.5.5 4.5.5 1.5-.5-.5 1.5 3-1v2l3-1v2l3-1v2l2-1-.5 1.5 1 1q-1.3 6.8 1 10h-2l.5 7.5 1.5-.5-1 3h2q-2 1 0 2-.5 3 1.5 3.5l1.5-.5 1.5 2.5 2-2 .5.5-2.5 3.5-1-2-3 2 .5-1.5-.5-1.5-2 1-1-2-2 2-.5-.5q2.3-1.3-.5-2.5l-3-1-1.5.5.5-1.5-3.5-2.5-3.5-8.5-1.5.5q2.5-1.5-1-3l-2.5-3.5-1.5.5q2.3-1.2-.5-2.5l-4-3-1.5.5.5-1.5-2-1-1.5.5q2.3-1.2-.5-2.5l-2 1v-2l-2-1-1.5.5.5-1.5-2 1v-2l-2 1v-2l-3-1-1.5.5.5-1.5-2 1v-2l-2 1v-2l-1.5-.5 1.5-.5 5 3h3l3-2 5-1 3.5-2.5zm-29 1 1.5.5-2.5 1.5q-1.5-1 1-2Z"/><path fill="#4ebaf9" stroke="#4ebaf9" d="M386.5 47q1.5 1-1 2l-3 1v-1zm8 2q13.6 7.9 24.5 18.5l.5 1.5 1.5.5 2.5 3.5 1.5.5-2 1 3 2 .5 1.5 1.5.5.5 1.5 2-1 3.5 1.5-.5 1.5q-1-2-2 0l-3.5 1.5-.5 1.5-2.5 1.5-2 3 1 2-1 2q3 7.5 9.5 11.5l1.5-.5 1.5 2.5 1.5-.5 1.5 2.5 4 2 1.5-.5 1.5 2.5 2 1 1.5-.5-.5 1.5 3 2 1.5-.5-.5 1.5 5 4 1-1 2.5 2.5-1 1 .5 1.5-3-3-2.5 2.5-14 22 .5 1.5-2.5 1.5-1.5 2.5-1.5.5q.7 5.2-3 6 2 1 1 5h-1l-.5-4.5-1 2-1.5.5q2.5 1.5-1 3l-3 4-.5 3.5-.5-3.5 1-2-.5-1.5 1.5.5 4-7v-10h-2l1-2-1.5-2.5-1.5.5 1-1-11.5-11.5-1.5.5-2.5-3.5-1.5.5-1.5-2.5-3-2-1.5.5-.5-1.5-4-2-1.5.5-.5-1.5-1 1-2-2-1.5.5-.5-2.5-1 2-2-3-2 1-13-7h-13l-3 1v-1l3-1h13l9 4-.5-1.5 31-48L399.5 53l-4-2q-2.5-1-1-2ZM433 153l-1 4h1zM378.5 50l2.5.5-2.5.5zm-5 1 2.5.5-2.5.5zm-7 1 3.5.5-3.5.5zm-13 1 5.5.5-5.5.5zm84 26 1.5.5-.5 1.5q-2.5-1-1-2Zm-81 34 1.5.5q-7.1 2.4-11.5 7.5l-.5-.5 2.5-2.5zm-23 4 5.5.5-5.5.5zm7 1 3.5 2.5-.5.5-2-2q-2.4-.1-1-1Zm-13 1 1.5.5-2.5 1.5q-1.5-1 1-2Zm-3 2 .5.5-3.5 3.5-.5-.5zm-5 9 .5 3.5h-1zm-1 5 .5 2.5h-1zm-2 7 .5 4.5h-1zm24 5 2.5 1.5 3.5 5.5 14.5 10.5 1.5 3.5 2-1 3 4 2.5.5 9 10 1.5 3.5 1.5.5-1 3 2 1-1 3 2 1-1 2 1.5 2.5 1.5.5q-2 1 0 2l1.5 3.5 1.5-.5q-2.5 1.5 1 3l1.5 2.5 1-1 2.5 2.5q-2.5 1.5 1 3l-1 5-12 17q2.3 1.2-.5 2.5v-2q-3-3-9-3l-1.5.5-.5-1.5q-7.4-1.1-11-6l-1.5.5.5-1.5h7l4.5-4.5-.5-1.5 1.5-.5 1-3-.5-1.5 1.5-.5-1-2 2-1-.5-8.5-1.5-.5 1-2-3-2 1-1-4.5-4.5-1.5.5-1.5-2.5-1.5.5-1.5-2.5-1.5.5-8.5-11.5-4.5-3.5.5-1.5-3 1-2-2-14.5-6.5 1.5-.5 16 8 7-11 1.5-.5-10-8-2.5-4.5-1.5 1.5v6l-2.5 4.5-3 1v-1l3.5-2.5q2-2.5 1-8zm-23 1 2.5 3.5-.5.5-2.5-2.5z"/><path fill="#4ebaf9" stroke="#4ebaf9" d="m320.5 153 6 5 6.5 2.5-2.5.5-9-6q-2.5-1-1-2Zm-1 9h4l3.5 1.5-2.5.5q-1-2-5-1zm-2 1q1.5 1-1 2l-3 2-.5-.5 2.5-2.5zm-14 4q6-1 7 3l2-2 .5.5-1.5 3.5-4-4h-4zm-7 2 .5 2.5h-1zm4 1-.5 1.5-.5 1.5-.5-1.5zm-3 4q2 .5 1.5 3.5-1 2.5-2 1zm127 1 .5 6.5h-1zm-109 5 1.5 2.5q-1 1.5-2-1zm18 11 2.5.5 2.5 3.5 1.5.5-2 1 3 1-2 3h2l-.5 3.5-1.5.5 2 1q-1 2.5-2 1l-.5-1.5-5.5 7.5 2.5 4.5 2.5.5-.5 2.5-2.5.5-.5 2.5-1.5.5 1 1q-3.5 1.5-1 3l-1 5 1 3q-1.7.8-1 4l2 3q-2.2 1.3-1 6 3.3 1.2 2 7l-2 1q-.7 3.3 1 4-2.5.5-2 4l.5 1.5-1.5.5q-.7 3.3 1 4-1 2.5-2 1 2.5-1.5-1-3l-2.5-5.5-1.5-.5q1.7-.7 1-4l-2-1q2-1 0-2l-2.5-3.5h-2l-5-3q-1.2 2.3-2.5-.5l-.5-1.5-1 2-1.5-1.5.5-1.5-2 1-1-2q-1 2-2 0l-1.5-.5 1-4h-1l-.5 1.5q-3-1.5-1.5-7.5 2.9-8.6 8-15l20-21zm-.5 4-2 3q1 1 2-1zm-3 4-3 4h1l2-2zm-11 12-11 12-4 7-2 6 1 4 1-5 15-22zM173.5 378l3.5 8.5h-1l-3-7zm5 12 7 10 7 4 3-1 2.5 5.5 1 7-2 1 .5 5.5 1.5-.5 1 3-1 1 2 2q-2 1 0 2l1.5 3.5 1.5.5-1 1 4.5 4.5 2 1 1.5-.5.5 1.5 2-1 2 3 1.5-.5 2.5 3.5 1.5-.5-.5 1.5 5 4 1.5-.5-.5 1.5 8 5 1.5-.5-1 2h2L157.5 581l-2-1-1.5.5.5-1.5-7-4-1.5.5.5-1.5-2-1-1.5.5.5-1.5-2-1-1.5.5.5-1.5-6-4-1.5.5-2.5-3.5-1.5.5-2.5-3.5-1.5.5-3.5-4.5-1.5.5-2.5-3.5q-3 .5-3.5-1.5l-3.5-5.5q-1 2-2 0l-6.5-5.5.5-1.5 2 2 .5-.5v-2l10-14 1-3 69-104 1-3 6.5-8.5 1.5-.5q-8.2-1.8-12-8l-4-6zm17.5 15-1 4h1zm1 4-1 3h1zm76.5-7 36.5.5-36.5.5zm-12 1 1 1 9.5.5-1 3-15.5 23.5-2 1-.5-4.5-1-1v-5l-1-1 2-1q.7-3.2-1-4h2v-2l3-5-.5-1.5 5.5-2.5zm53 30 3.5.5-3.5.5zm25 67 2.5.5-2.5.5zm-269 5 2.5 2.5-.5.5-2.5-2.5zm4 5 3.5 3.5-.5.5-3.5-3.5zm255 2 2.5.5-2.5.5zm-251 3 22.5 23.5-.5.5L85 523.5l-7-8zm228 111 2.5.5-2.5.5z"/><path fill="#374033" stroke="#374033" d="m308.5 5 2.5.5-2.5.5zm44 0 2.5.5-2.5.5zm-7 43 2.5.5-2.5.5zm188 36 3.5 3.5-.5.5-3.5-3.5zm-315 36 2.5.5-2.5.5zm4 0 2.5.5-2.5.5zm124 22 .5 2.5h-1zm-23 6 2.5 2.5-.5.5-2.5-2.5zm26 1 2.5 2.5-.5.5-2.5-2.5zm-79 2 3.5.5-3.5.5zm180 0 2.5.5-2.5.5zm-253 29 .5 7.5h-1zm121 22 .5.5-7.5 7.5-.5-.5zm78 3 2.5 2.5-.5.5-2.5-2.5zm-59 24 .5 4.5h-1zm-38 18 2.5 2.5-.5.5-2.5-2.5zm40 2 .5 2.5h-1zm62 13 2.5 2.5-.5.5-2.5-2.5z"/></svg>