<svg xmlns="http://www.w3.org/2000/svg" viewBox="0 0 640 381"><path fill="#181618" stroke="#181618" d="m121.5 0 9.5.5-9.5.5zm-3 1 1.5.5-4 3q.6 3.9 3.5 5.5l8 5 10.5 3.5-2.5.5-12-5-8-7-1 3-.5-2.5 2.5-5.5zm14 0 8 1 8.5 3.5-1.5.5-7-3-8-1zm18 5 8 4 3.5 3.5q1.7 1.8 1 6l-1.5 3.5-1-3-3 1v-1l4.5-1.5v-3l-2.5-3.5-9-5zm-37 5 .5 2.5-4.5 13.5-.5-2.5zm26 8 9.5 1.5-5.5.5q-.7-1.7-4-1zm11 2 5.5.5-5.5.5zm10 3 .5 2.5-2.5 6.5-.5-2.5zm-52 4 .5 2.5-1.5 3.5-.5-2.5zm49 6 .5 2.5-1.5 3.5-.5-2.5zm-51 1 .5 2.5-2.5 6.5-.5-2.5zm119 0 1.5.5-4.5 3.5-.5-.5zm6 0 2.5.5-2.5.5zm6 2q6.4 3.6 8.5 11.5h-1l-2-5-6-6zm-82 4 1 4 2.5.5-2.5.5-1.5-.5-4 13 3 1-4 2-.5 2.5-.5-2.5 1-1v-3zm-52 4 .5 2.5-1.5 3.5-.5-2.5zm124 0 .5 7.5-.5.5-4.5-4.5.5-.5 3 3 .5-.5zm-67 1 5.5 1.5-2.5.5-3-1zm36 0 3.5.5-3.5.5zm16 0 2.5.5q-3.8.2-5 3l.5 1.5 6.5 5.5 1 2q-1 1.5-2-1l-4.5-5.5-6.5-3.5 1.5-.5 3 1zm4 0q4.5-1 5.5 1.5l-1.5-.5h-4zm-23 1 1.5.5-4.5 2.5q-1.5-1 1-2zm-23 2 5.5 1.5-2.5.5-3-1zm7 2 5.5 1.5-2.5.5-3-1zm12 0-.5 1.5.5 2.5 3.5.5-.5 1.5-5.5-2.5zm-88 1 .5 2.5L97.5 68l-.5-2.5zm127 2 3.5 6.5h-1l-3-6zm-35 4 3.5 10.5h-1l-3-8zm-35 3 5.5 1.5-2.5.5-3-1zm61 1 .5 2.5h-1zm13 0 .5 2.5h-1zm15 0 .5 1.5q-1 2.5-2 1zm-82 1 5.5 1.5-2.5.5-3-1zm-17 2 .5 2.5-2.5 6.5-.5-2.5zm24 0 5.5 1.5-2.5.5-3-1zm48 1 .5 8.5h-1zm13 0 5.5 2.5-.5 1.5-4-2-1 6zm11 0q1.5 1-1 2l-2 1q-1.5-1 1-2zm-62 2 6.5 1.5-3.5.5-3-1zm-86 1 .5 2.5-1 2 4.5 5.5 9 5 9 3 8.5 1.5-4.5.5-1-1h-3l-9-3-6-3-7.5-6.5-1-3zm94 1 5.5 1.5-2.5.5-3-1zm7 0 1.5 2.5-1.5.5zm44 0h3l3.5 1.5-2.5.5q-.7-1.7-4-1zm-53 3 1.5 2.5q-1 1.5-2-1zm64 0 8 2 1.5 1.5q1.1 6.1-1.5 8.5l-.5-1.5 1-1v-6l-3.5-.5-3.5 5.5v7l2.5.5 3-3 .5.5-3.5 3.5h-3l-6.5-2.5 2.5-.5 3 1 .5-6.5 4-6-4.5-1.5zm-107 2 .5 2.5-1.5 3.5-.5-2.5zm87 0 .5 2.5-2 4 6 2-2.5.5-5-2-1.5.5q3.8-2.2 4.5-7.5Zm-32 1 6 8 3.5 1.5-1.5.5-5.5-4.5-3-5zm-10 1 3.5 2.5-.5 1.5-1-1-5.5-.5 4-1zm-10 2 4.5.5-4.5.5zm38 1 4 3 4.5.5-4.5.5-4-2-5 4v-1l4.5-3.5zm-75 2 .5 2.5-3.5 4.5-2.5-.5 4-2zm98 3 4.5 1.5-2.5.5-2.5-1.5zm-1 2 .5.5-3.5 3.5-.5-.5zm-112 2 8.5.5-8.5.5zm42 0 .5 3.5h-1zm54 2 .5.5-2.5 2.5-.5-.5zm10 3 .5 1.5-4.5 5.5-.5-.5 3-3zm300 2 1.5.5-3 2-4 7-2.5 8.5-.5-2.5 4-10zm3 0 4.5.5-2 1 2 4v5h-1v-5l-2.5-4.5q-2.4-.1-1-1Zm-333 1 9.5.5-8 1 3.5 3.5 10 2q1.3-2.2 6-1l3-2 4 21q3.3-.7 4 1h10l1 1h10l1 1 5.5.5.5 43.5 1.5-.5-1 5 1 2h-2v19l1 1-1 1-.5 60.5h-3l-5 2h-4l-9 3h-4l-9 3h-4l-9 3h-4l-5 2h-4l-1 1h-3l-7.5 2.5-1 4-10 19-1 5-5 8v2l.5 1.5q-1.3-2.2-2.5.5l-2.5 3.5-3 1h-5l-4.5-2.5 1-4-2-1 3-2 1-4 5-9 2-7 5-10-3.5-.5q-1 2-5 1l-4.5 3.5-11 22-6 8 4.5 4.5h2l4-5 2-1q1.5 1-1 2l-1.5.5-2.5 5.5-2-1-1.5.5-3.5-4.5-1.5.5-2.5 4.5h-11l-1.5-1.5v-2l2-3-.5-1.5 1.5-.5 2-6 7-13 3-10-6.5-4.5-7-3-2-2-23-12-2-2-4-1-3-3-14.5-7.5v-9l-4-4-1-3v-5l5-6v-31q-2-1 0-2l.5-64.5h6l1-1h32l1-1h31l1-1h32l1-1h7l1 1h10q1.3 2.3 6 1l.5-7.5-1-1v-9l-5-5zM82 123v96l5-3 12-4 7-1 5-2-3-7v-4l2-4 5-4h5l6 3q6 5 9 14v8l-2 4 3 5 9 7v-97l-5-1-1-1h-6l-1-1h-5l-1-1h-5l-1-1h-5l-1-1-12-1-1-1h-5l-1-1h-5l-1-1h-6zm179 3-1 1h-16l-1 1h-15l-1 1h-15l-1 1h-16l-1 1h-15l-1 1-30 1-1 99 4 2 20 6 7 6 4 1 2 4q1 5-1 8l-7 5-9 1-1 1h-5l-4 3h-4l-1 1-5 1 1 11 7-1 1-1h4l4-2h4l5-2h4l5-2h4l9-3h3l1-1h4l5-2h3l1-1h4l9-3h4l9-3h4l9-3h4l5-2h3V127zm-145 65-2 1-4 4q1 3-1 4l5 14-4 7-1-1-4 1-5 6-1 3v11l3 6 4 2q3 1 4-1l2 5 7 6 6 4 10 4 9 1 1 1h7q0-2 5-1l4-3 11-1 9-4q3-2 2-9l-4-4-1 7-1 2q-1 2-2 1 3-3 2-10l-6-6-20-6-10-5q-6-4-8-10l-3 1 3-3q-1-4 1-4v-6l-3-7-7-8-5-2zm-23 30v1h3zm-11 17-1 8 5 2 2-1-1 2 6 3 2-1-1 2 8 4 2-1-1 2 8 4 2-1-1 2 6 3 2-1-1 2 8 4 2-1-1 2 17 9v-9l1-1-15-4-10-5-5-4-6-7-6-2-4-4-1-2-9-1-6-2-1 5-1-4q2-2 0-3ZM543.5 97l4.5.5-4.5.5zm-354 1 1.5.5-2.5 1.5q-1.5-1 1-2Zm360 0h4l1 1 4.5.5-4.5.5q-1-2-5-1zm-378 2 2.5 2.5-.5.5-2.5-2.5zm389 0 4.5.5-4.5.5zm6 1h4l1 1 4.5.5-4.5.5q-1-2-5-1z" opacity=".988"/><path fill="#181618" stroke="#181618" d="m175.5 103 5.5.5-5.5.5zm402 0 4.5.5-4.5.5zm6 1h4l1 1 4.5.5-4.5.5q-1-2-5-1zm11 2 4.5.5-4.5.5zm6 1 8 1 1.5 1.5 2 5v18l-1 1v4l-4 12-6.5 7.5-3.5-.5q5.6.1 7-4l4-8 1-6 1-1v-4l1-1v-18l-1-3-2.5-2.5-7-1zm-331 3 .5 5.5 1 1v8l1 1v8q2 1 1 5h-1q1-4-1-5v-8l-1-1v-8l-1-1zm16 0 .5 6.5-1 1v7l-1 1v7l-1 1-.5 5.5-.5-5.5 1-1v-7l1-1v-7l1-1zm256 3 .5 7.5h-1zm-16 2 .5 3.5h-1zm-220 2 .5 1.5-4 5-9 16-2.5 2.5.5-1.5zm106 1 8.5.5-8.5.5zm-10 1 7.5.5-7.5.5zm25 0 26.5.5-26.5.5zm-36 1 8.5.5-8.5.5zm69 0 25.5.5-25.5.5zm65 0 .5 18.5 3.5 5.5q3.9-.6 5.5-3.5l4-8 2.5-10.5.5 3.5-1 1-1 6-4 8-3 3 2.5 1.5h4l1 1h5l1 1h5l1 1 5.5.5-.5 2.5-1-2-8-1v1l3.5 2.5-.5.5-2-2-4-2-5.5-.5-.5-1.5-10-1-2.5-2.5-.5-1.5-.5 40.5-1.5 1.5q-5.4 1.1-7.5 5.5l-1.5 2.5.5-1.5 5.5-6.5 3.5-1.5-.5-58.5-10 1v-1l2.5-.5-25-1 26.5-.5q1.3 2.3 6 1zm-145 1 8.5.5-8.5.5zm-11 1 8.5.5-8.5.5zm-11 1 8.5.5-8.5.5zm-11 1 7.5.5-4 1 31 2-15.5.5-1-1h-14l-1-1h-8l-.5 129.5 2 1-2.5.5-1-54-4 2h-13l-7.5-3.5 6-12v-5l-.5-1.5 2 4 5 2h9q1-2 2 0l1.5-1.5.5-62.5q4.8 1.2 6-1Z" opacity=".988"/><path fill="#181618" stroke="#181618" d="m506.5 124 5.5.5-5.5.5-1 1h-5l-1 1-12 1-1 1h-5l-1 1h-5l-1 1h-6l-1 1h-5l-4.5 1.5.5 148.5 4-2-.5 1.5v2l3 5v2l5 10v2l5.5 9.5h4l6.5 4.5-.5 1.5-2-3-4-2h-3l-.5 1.5 1 3-1.5 1.5h-11l-3-5-4.5 3.5-.5 4.5-1-4-1.5.5-3.5 4.5-1.5-.5 4-3v-3l-3-4 .5-.5 2.5 2.5 1.5 2.5h2l4.5-4.5-18.5-32.5-2.5-.5 2.5-.5 1 1 8 1 5 2 .5-149.5-10-1 14.5-.5 1-1h5l1-1q4.8 1.3 6-1h6l1-1h5l1-1h5l1-1q4.7 1.3 6-1h6zm-124 4 14.5.5-14.5.5zm-64 1 .5.5-12.5 12.5-4 3-.5-.5 9.5-9.5zm80 0h15l1 1h15l1 1 15.5.5-15.5.5-1-1-31-1zm139 19 .5.5-3 3-1.5 3.5-.5-1.5zm21 1 10 1 4.5 1.5-3.5.5-1-1-10-1zm-308 1 1.5.5-2 2 .5.5 5-1 .5 1.5-6 2 4 1-7 2 12 1-8 2 8 1-12.5.5-1 1h-22l-2 1-.5-1.5 11.5-5.5h2l7-4h2zm29 1 .5.5-3.5 3.5-.5-.5zm15 0 2.5 2.5-.5.5-2.5-2.5zm280 1h4l1 1h5l1 1 4.5.5-4.5.5-1-1-10-1zm-19 1 .5 5.5h-1l-1-3zm15 0 .5 3.5h-1zm21 2 4.5.5-4.5.5zm-432 1 32.5 9.5-.5 1.5h-11l-1 1h-10l-1 1h-10q-.7 1.8-4 1-1.5-1 1-2l6.5-.5-8-1q2.7-2.8 9.5-1.5l1.5-1.5-7-1 4-1-6-2 7-1q-3.8-.1-3.5-2.5Zm193 0 4 1 26.5 12.5-11.5.5-1-1-24.5-.5 8-1-1.5-1.5-6.5-.5 12-1-1.5-1.5q-4.7.8-6.5-1.5l1.5-.5 2 1 .5-1.5-6-2 2.5-.5q.8 1.8 4 1 1.5-1-1-2-2.4-.1-1-1Zm180 0 .5 6.5h-1zm-231 2 3.5 3.5-.5.5-3.5-3.5zm268 1 .5 3.5h-1zm-15 1 .5 3.5h-1zm-284 2 .5.5-4.5 4.5-.5-.5zm36 0 4.5 4.5-.5.5-4.5-4.5z" opacity=".988"/><path fill="#181618" stroke="#181618" d="m442.5 162 2.5.5-4 2 7 1-5 1 .5 1.5 2.5.5-8 1 4.5 1.5 7.5.5-8 1 1.5 1.5 6.5.5-8.5.5-1-1h-10l-1-1h-10l-1-1-6.5-.5 16.5-5.5h3l4-2h3zm126 2 .5 4.5h-1zm-35 1 .5 2.5h-1zm20 0 .5 4.5h-1zm-280 1 .5 2.5h-1zm22 1 .5 5.5h-1zm16 1 1.5 2.5h-1zm256 2 .5 4.5h-1zm-15 1 .5 4.5-1 1-.5 4.5-2.5-1.5 3-4zm-276 3 5.5 4.5-1.5.5-4.5-4.5zm18 0 .5 1.5-4.5 3.5v-1l3.5-2.5zm236 1 .5 1.5q-1 2.5-2 1zm36 1 2 4 2.5 1.5-1.5-.5-3-1-1 4-.5-3.5zm-300 1 1.5 2.5q-1 1.5-2-1zm17 2 5.5.5-5.5.5zm245 0-.5 1.5-1.5 2.5-.5-1.5zm22 3 1 5 6.5.5-12.5.5v-1l4.5-.5zm-234 1 1.5.5-2.5 3.5-.5-1.5zm-48 1 .5 6.5h-1zm16 0q1.5 1-1 2l-3 1v-1zm241 0-.5 1.5-1.5 3.5-.5-1.5zm50 0 3.5 3.5-.5.5-3.5-3.5zm-11 1 .5 4.5h-1zm-261 1 .5 1.5q-1 2.5-2 1zm-221 1 .5 2.5h-1zm33 1 3.5.5-3.5.5zm199 0 .5 1.5-1.5 2.5-.5-1.5zm227 0 2.5.5-5.5 2.5q-1.5-1 1-2zm18 0 3.5.5-3.5.5zm-23 3-.5 1.5-1.5 3.5-.5-1.5zm45 1 .5 2.5h-1zm-312 1 4 6 3.5 1.5-1.5.5-5.5-4.5zm225 0 7 3h3l6 2 1.5-.5q-2.2 2.8-1 9l3 6 3 3 1 5 4 6-.5.5-2.5-2.5-1.5-3.5-12-3-14-7-8.5-7.5-1-5 4.5-3.5 7-1zm-204 1 .5 2.5h-1zm231 0 .5 6.5h-1zm59 6 .5 1.5-5.5 6.5-.5-.5 3-3zm-302 1 3.5.5-3.5.5zm5 0q1 2 2 0l1.5.5-2.5 1.5q-2.5-1-1-2Zm252 1 4 5 3.5 2.5-.5.5-2-2-5-4-2 2-.5-.5zm-221 1q1.5 1-1 2l-9.5-.5 9.5-.5zm-29 1 2.5 2.5-.5.5-2.5-2.5zm16 1 1.5.5-5.5 2.5v-1zm230 1 .5 1.5q-1 2.5-2 1zm-395 1 .5 6.5h-1zm155 1 4.5.5-4.5.5zm282 0 .5.5-2.5 2.5-5 2v-1q4.7-.8 7-4Zm-44 2 .5 4.5h-1zm22 3 2.5.5-2.5.5zm11 0 2.5.5-2.5.5zm-267 2 5.5 7.5 9 16h-1l-13-21zm235 1 8.5 7.5-1.5-.5-7.5-6.5zm-258 1 .5 25.5h-1zm8 0 1.5 1.5 2 7h-1l-3-8zm291 2-.5 1.5-2 3 3 2-1.5-.5-2.5-1.5zm-29 6 1.5.5-5.5 4.5-.5-.5zm3 1 2.5.5-2.5.5zm16 0q1.5 1-1 2l-1.5-.5zm12 0q4.4 2.1 4.5 8.5h-1v-3l-4-5zm-289 1 6.5 17.5q-1 1.5-2-1l-5-15zm265 0 8.5.5-8.5.5zm-27 1 5.5 3.5-1.5.5-4.5-3.5zm40 0 2.5 1.5-1.5-.5q-2.4-.1-1-1Zm-456 1 .5 10.5h-1zm431 2 .5 1.5q-1 2.5-2 1zm-13 1 .5 5.5h-1zm52 4 .5 1.5q-1 2.5-2 1zm-466 2 3.5 2.5-1.5-.5q-3.8-.7-2-2Zm464 2 .5.5-4.5 4.5-6 2v-1q7-1 10-6Zm-36 1q2.8 3.7 8.5 4.5l-2.5.5-4-2-2.5-2.5zm-14 4q1.5 1-1 2l-2 1q-1.5-1 1-2zm15 0 .5 3.5h-1zm9 1 2.5.5-2.5.5zm4 1 9.5.5-6.5.5-1 1-2.5-1.5zm-33 1q1.5 1-1 2l-4 2q-1.5-1 1-2zm19 2 .5 5.5-1 2 2.5 2.5 3 1h6q5-2.5 0-5l-2-1-7.5-.5 7.5-.5 5.5 2.5q.8 3.8-1.5 4.5-2.5 2-8 1l-3-1-3.5-3.5zm15 0 .5 3.5h-1zm-41 2q1.5 1-1 2l-6 3q-1.5-1 1-2zm-364 2 3.5 1.5-1.5.5-2.5-1.5zm196 3 3.5.5-3.5.5zm159 0q1.5 1-1 2l-6 3q-1.5-1 1-2zm-341 1 8.5.5-8.5.5zm187 0 2.5.5-2.5.5zm4 1 2.5.5-2.5.5zm-215 1 4.5 2.5-1.5.5-3.5-2.5zm219 0 3.5.5-3.5.5zm5 1 2.5.5-2.5.5zm4 1 2.5.5-2.5.5zm128 0q1.5 1-1 2l-4 2q-1.5-1 1-2zm-350 1 2.5.5-2.5.5zm226 0 3.5.5-3.5.5zm-221 1 4.5.5-4.5.5zm226 0 2.5.5-2.5.5zm4 1 3.5.5-3.5.5zm5 1 2.5.5-2.5.5zm103 0q1.5 1-1 2l-6 3q-1.5-1 1-2zm-99 1 2.5.5-2.5.5zm4 1 3.5.5-3.5.5zm5 1 2.5.5-2.5.5zm-259 1 2.5.5-2.5.5zm263 0 2.5.5-2.5.5zm4 1 3.5.5-3.5.5zm73 0q1.5 1-1 2l-4 2q-1.5-1 1-2zm-68 1 24.5 5.5-3 1 12.5 31.5 2.5.5-2 1q1.8.8 1 4l-4.5 2.5h-5l-5.5-3.5-.5-2.5-1.5.5-.5 1.5-.5-1.5q3.5-1.5 1-3L411.5 273q-2.4-.1-1-1Zm61 3q1.5 1-1 2l-6 3q-1.5-1 1-2zm-35 3 2.5.5-2.5.5zm-312 34 2.5.5q-5.6.9-8 5l-.5 3.5q-1-2-2 0l-5 1v-1l5-1 1.5-1.5 4.5-5.5zm62 1 15.5.5-15.5.5zm217 0 14.5.5-14.5.5zm-227 1 3.5 1.5-3 1-1.5 2.5.5-1.5zm5 0 2.5.5-2.5.5zm22 0q8.4 1.1 12.5 6.5l2 4v7h-1v-7l-3.5-5.5q-3.5-3.5-10-4zm195 0 2.5.5-4.5 1.5v-1zm22 0 7.5 1.5-.5 1.5-4-2h-3zm-26 2q1.5 1-1 2l-5.5 4.5-1 2-.5 6.5-.5-6.5 6.5-7.5zm34 2 3.5 3.5-.5.5-3.5-3.5zm-249 1 1.5.5-9.5 5.5-4 4-.5-.5 4.5-4.5zm244 0 4.5 2.5-1.5-.5-3-1zm63 0 3.5 1.5-1.5.5-2-1-5 6-1.5-.5 5-4zm-339 2 .5 2.5h-1zm25 0q1.5 1-1 2l-1.5-.5zm319 0 2.5.5-2.5.5zm-384 1 2.5.5-5.5 1.5v-1zm12 0 2.5 2.5-.5.5-2.5-2.5zm38 1 3.5.5-3.5.5zm9 0 2.5.5-2.5.5zm269 0 2.5.5-2.5.5zm8 0 4.5.5-4.5.5zm14 0q2 3 6.5 3.5l-2.5.5-4-3-2 3-.5-1.5zm41 0 2.5.5-2.5.5zm-398 1 2.5.5-5.5 1.5v-1zm332 0 3.5 3.5-.5.5-3.5-3.5zm73 1 2.5.5-2.5.5zm-399 1 4.5.5-4.5.5zm19 0 2.5.5-2.5.5zm351 0 2.5.5-2.5.5zm17 0 5.5.5-5.5.5zm-379 1 3.5.5-3.5.5zm17 0 6.5.5-6.5.5zm335 0 6.5.5-6.5.5zm20 0 3.5.5-3.5.5zm26 0 6 2 7.5 5.5 3 5v2h-1v-2l-3.5-5.5-6-4-6-2zm-424 1 1.5.5-7.5 3.5-5 5-.5-.5 5.5-5.5zm31 0 2.5.5-2.5.5zm335 0 .5 2.5h-1zm28 0 2.5.5-2.5.5zm-332 2 .5 6.5h-1zm326 0 1.5.5-3.5 1.5v-1zm-345 2 4.5 2.5-1.5-.5-3-1zm85 1 .5 1.5-6.5 8.5-9 5v-1l5-2 5.5-4.5zm172 2 8 9 6.5 3.5-1.5.5q-7.7-3.8-12.5-10.5zm66 2 1.5 4.5-1.5-.5-4 4-5 2v-1q5.8-1.2 8.5-5.5zm-305 1q.3 4.7 4 6l9.5 3.5-2.5.5-7-3-4-4-1.5 3.5-5.5 6.5q-6 6-15 9v-1l7-3 9.5-7.5q4-4 5.5-10.5Zm-74 2 .5 8.5 5 6-.5.5-4.5-4.5-1-2zm381 3 9 10 5.5 3.5-1.5-.5-4-2-8.5-8.5zm-15 4 2.5.5-2.5.5zm-277 1 3.5.5-3.5.5zm272 0 3.5.5-3.5.5zm92 0 .5 1.5-8.5 7.5q-1.5-1 1-2l6.5-5.5zm-358 1 6.5.5-6.5.5zm24 0 2.5.5-2.5.5zm213 0 2.5.5-2.5.5zm21 0 5.5.5-5.5.5zm-247 1 10.5.5-10.5.5zm232 0 9.5.5-9.5.5zm-331 5 3.5 2.5-1.5-.5q-3.8-.7-2-2Zm390 2 2.5 1.5-1.5.5q-2.5-1-1-2Zm46 0q1.5 1-1 2l-1.5-.5zm-431 1 3.5 1.5-1.5.5-2.5-1.5zm426 1 1.5.5-7.5 2.5v-1zm-418 2 2.5.5-2.5.5zm386 0 2.5.5-2.5.5zm-382 1 3.5.5-3.5.5zm16 0 3.5.5-3.5.5zm370 0 3.5.5-3.5.5zm16 0 3.5.5-3.5.5zm-393 1 2.5.5-2.5.5zm386 0 2.5.5-2.5.5z" opacity=".988"/><path fill="#323232" stroke="#323232" d="m149.5 20 2.5.5-3.5 1.5q-1.5-1 1-2Zm5 0q3-.5 3.5 1.5l-1.5.5-2.5-1.5zm85 49 1 1 1.5-.5-1.5 1.5q-2.5-1-1-2Zm-112 19 2.5.5-2.5.5zm90 15 2.5.5-2.5.5zm325 2 .5 3.5-1 2q1.8.7 1 4h-1q-1.8-2.2-1-7zm-2 15q2.5 1 1 2l-1.5-.5zm-459 3 1 1h6l1 1h5l1 1h5l1 1 12 1 1 1h5l1 1h5l1 1h5l1 1h6l1 1 5.5.5-.5 97.5-8-7-1.5.5 1-2-4-5h2l1-3v-8q-2.8-8.7-9.5-13.5l-2 1v-2l-2 1v-2q-2.2-1.8-7-1l-4.5 3.5-2 4v4l1.5 2.5 1.5-.5-1 3 1 2-5.5 2.5-7 1-12 4-5 3zm1.5 64-1 3h1zm33 1v1h3zm21 19-1 7h1zm123.5-81 2.5.5-2.5.5zm-17 1 18.5 1.5-.5 126.5-3.5.5.5 1.5q-.7-1.8-4-1v2q-1-2-5-1v2q-.7-1.7-4-1v2q-.7-1.7-4-1v2q-1-2-5-1v2q-.7-1.7-4-1v2q-.8-1.7-4-1v2q-1-2-5-1v2q-.7-1.7-4-1v2q-.7-1.7-4-1v2l-5-1v2q-.7-1.7-4-1v2q-1-2-5-1v1l1.5.5-1.5.5q-.7-1.7-4-1v2q-.7-1.8-4-1v2q-1-2-5-1v1l1.5.5-1.5.5q-.7-1.7-4-1v1l1.5.5-1.5.5q-.8-1.7-4-1v2q-1-2-5-1v1l1.5.5-1.5.5q-.7-1.7-4-1v2q-.7-1.7-4-1v2q-1-2-5-1v2q-.8-1.7-4-1v1l1.5.5-1.5.5q-.7-1.7-4-1v2q-.7-1.7-4-1v2l-1.5-.5.5-10.5 4.5-.5-3-2 1.5.5 5 1-1-3 3 2v-4q1.5 3.5 8 2v-1l-2.5-1.5 1.5.5 6 1v-2l3 1 4.5-2.5-.5-1.5 1 1 3.5-3.5-.5-1.5 1.5.5-1-6 1-2h-2l1-1-2.5-2.5-1.5.5.5-1.5-3-1-1 1-2.5-2.5.5-1.5-5-2-1.5.5.5-1.5-8-2-1.5.5.5-1.5-3 1v-2l-3 1v-2l-3 1v-2l-1.5-.5.5-96.5 1.5-.5-2.5-.5-1 98-.5-98.5 3.5-.5 1 1h16v-1l-5.5-.5 5.5-.5 1 1h15v-1l-5.5-.5 5.5-.5 3 1 13.5-.5-6-1 5.5-.5 1 1h15v-1l-4.5-.5 5.5-.5 1 1h15v-1l-5.5-.5 5.5-.5 3 1 13.5-.5-5.5-.5zm6.5 22v2l-2-1v2l-2-1v2l-1-1-3 1h2v1l-3-1v2l-2-1v2l-2-1v2l-1-1-3 1h2v1l-3-1v2l-2-1v2l-2-1v2l-1-1-3 1 2 1-2 1-2-1-2 1 1 2v1h12l-9-1v-1h12l1 1h19l-10-1 13-1-8-1 9-2-13-1 4-2 2 1h3v-7l-4 1 2 1h-1q-3-1-1-2zm-88 6-2 1v2l-1-1-1 2-2 1 6 2-4 1h7q1 1-1 2-4 1-4-1l-6 1 2 1h-1l-1 2q2 1 0 2l1 1h7l-3-1v-1q4-1 6 1h9l-4-1v-1h6l1 1h8l-4-1v-1h6l1 1h5l-1-2 1-2-3 1v-2l-3 1h-2l2-1v-1l-3 1h-2l2-1v-1l-4 1v-2l-3 1h-2l2-1v-1l-3 1h-2l2-1v-1l-4 1v-2l-3 1h-2l2-1v-1l-4 1v-1zm24 97-1 3h1zm371.5-104 1.5.5q-1 2.5-2 1z" opacity=".996"/><path fill="#323232" stroke="#323232" d="m252.5 154 2.5 1.5-.5 1.5-4.5-1.5zm45 0 3.5 3.5-.5.5-3.5-3.5zm-138 13 2.5.5-2.5.5zm-68 53 6.5 2.5-1.5.5q-.8-1.8-4-1-2.5-1-1-2Zm-10 18 2 2 6 2 9 1 1.5 1.5 1.5 2.5 1.5-.5q-2.2 1.2.5 2.5l2-1v2l4.5.5 5.5 7.5 5 4 7 3 1.5-.5-.5 1.5 5 2 12.5 2.5-1 1-.5 9.5L81 245.5zm1.5 2-1 5h1zm56 30v1h2zm8.5 1 .5 9.5h-1zm-20 41 1.5.5-.5 1.5q-2.5-1-1-2Zm5 7 4.5.5-4.5.5zm42 0 1.5.5-2.5 1.5q-1.5-1 1-2Zm294 0 3.5.5-3.5.5zm-322 4 2.5 1.5-2.5.5zm15 0 4.5.5-4.5.5zm277 0 4.5.5-4.5.5zm-327 3 2.5 1.5-1.5-.5q-2.4-.1-1-1Zm324 0 2.5 3.5q-1 1.5-2-1zm40 0q1.5 1-1 2l-1.5-.5zm-20 14v2l1.5.5-1.5.5-1-1-1.5.5zm73 2q2.3.8 1.5 4.5h-1v-3z" opacity=".996"/><path fill="#2e3933" stroke="#2e3933" d="m524.5 238 .5 6.5h-1z" opacity=".949"/><path fill="#790202" stroke="#790202" d="m409.5 119 16.5.5-16.5.5zm-10 1 5.5.5-5.5.5zm41 0 18.5.5-18.5.5zm-52 1 5.5.5-5.5.5zm85 0 17.5.5-17.5.5zm-96 1 5.5.5-5.5.5zm127 0 11.5.5-3 1 2 1-2.5.5q-2-3-8-2zm-138 1 5.5.5-5.5.5zm152 0 2.5.5-2.5.5zm5 0 .5 58.5h-1zm-169 1 7.5.5-7.5.5-5 2h-6v-1h6zm149 0 5.5 1.5-2.5.5-3-1zm-138 2 6.5.5-6.5.5-1 1h-5v-1q4.7 1.2 6-1Zm125 0 5.5 1.5-2.5.5-3-1zm-109 1 7.5.5-6.5.5-1 1h-6v-1q4.8 1.3 6-1Zm103 0 5.5 1.5-2.5.5-3-1zm-87 1 7.5.5-6.5.5-1 1h-6v-1q4.7 1.3 6-1Zm81 0 5.5 1.5-2.5.5-3-1zm-64 1 6.5.5-6.5.5-1 1h-5v-1q4.7 1.3 6-1Zm16 1 7.5.5-13.5 1.5v-1q4.8 1.3 6-1Zm35 0 5.5 1.5-2.5.5-3-1zm-19 1 7.5.5-6.5.5-1 1h-6v-1q4.8 1.3 6-1Zm13 0 5.5 1.5-2.5.5-3-1zm-1 2 .5 147.5 1 1-1.5.5zm-105 27 .5 1.5-3.5 1.5v-1zm2 3 2.5 1.5-11.5.5-1 1q-1.5-1 1-2h8zm-5 3q3-.5 3.5 1.5l-7.5.5-1 1-.5-1.5 4.5-.5zm93 0 3.5 2.5-1.5-.5-2.5-.5zm-81 3 8.5.5-8.5.5zm80 1 2.5.5-2.5.5zm-27 2 3.5.5-3.5.5zm27 0 7.5.5-6.5 1.5q-2.5-1-1-2Zm-16 1 3.5.5-3.5.5zm11 1 3.5.5-3.5.5zm54 19 2.5.5-2.5.5zm20 2 .5 1.5-2.5 1.5v-1l1.5-.5zm12 35 .5 15.5h-1z" opacity=".996"/><path fill="#4b433d" stroke="#4b433d" d="m221.5 43 .5 2.5h-1zm-51 50 .5 3.5h-1zm26 3 4.5.5-4.5.5zm53 31 13.5.5-.5 128.5h-4l-5 2h-4l-9 3h-4l-9 3h-4l-1 1-7 1v-1h3l5-2h4l9-3h4l1-1h3l1-1 8-1 1-1 7.5-1.5-.5-126.5-26 1v-1h13zm-16 1q1.5 1-1 2l-15.5-.5 15.5-.5zm-33 2 15.5.5-15.5.5-1 1h-13v-1h13zm-16 1q1.5 1-1 2l-32 1-2.5 1.5.5 96.5 19 6 6 3 4 4h2l4.5 4.5-.5 1.5-4-5q-3.2-.7-4 1l.5-1.5-2.5-3.5-6-3-20.5-6.5.5-98.5 3-1h16l1-1h15z" opacity=".996"/><path fill="#4b433d" stroke="#4b433d" d="m249.5 149 1.5.5-30.5 13.5v-1l6-2 7-4h2l7-4h2zm36 0 2.5.5-2.5.5zm-33 2 3.5.5-5.5 1.5v-1zm2 3 1.5.5-.5 3.5-3.5-.5 3-1zm-90 2 5.5 1.5-2.5.5-3-1zm-6 1 3.5 1.5-3.5.5zm13 1 8.5 2.5-2.5.5-6-2zm10 3 8.5 2.5-2.5.5-6-2zm-27 3 5.5.5-5.5.5zm82 0 19.5.5-19.5.5zm-16 1 12.5.5-12.5.5zm-66 2 4.5.5-4.5.5zm33 0 5.5.5-5.5.5zm-11 1 8.5.5-8.5.5zm-12 1 9.5.5-9.5.5zm-10 1 7.5.5-7.5.5zm133 23 2.5 1.5-1.5.5q-2.5-1-1-2Zm250 11 2.5 2.5-.5.5-2.5-2.5zm40 0 .5.5-2.5 2.5-.5-.5zm-23 9 2.5 1.5-1.5.5q-2.5-1-1-2Zm6 0 1.5.5-2.5 1.5q-1.5-1 1-2Zm-375 39 .5 2.5-1 3-5.5 5.5-7 3h-3v-1q10.2-.8 14.5-7.5zm357 1 2.5.5-2.5.5zm-387 11 3.5.5-3.5.5zm6 2 6.5.5-6.5.5-4 3-8.5 1.5-.5 10.5-1.5-.5 1-1v-9l-.5-1.5h6q.8-1.7 4-1z" opacity=".996"/><path fill="#4b433d" stroke="#4b433d" d="m210.5 266 3.5.5-7.5 1.5-1 1-8 1-1 1h-3l-1 1h-4l-9 3h-4l-9 3h-4l-9 3h-3v-1h3l9-3h4l9-3h4l9-3h4l9-3h4zm-64 2 4.5.5-4.5.5zm32 81 1.5.5-.5 1.5-2.5-.5zm246 0 2.5 1.5-1.5.5q-2.5-1-1-2Zm-320 13 1.5.5-.5 1.5-1.5-.5zm8 0 1.5.5-.5 1.5-1.5-.5zm378 0 1.5.5-.5 1.5-1.5-.5zm8 0 1.5.5-.5 1.5-1.5-.5z" opacity=".996"/><path fill="#77571a" stroke="#77571a" d="m122.5 1 6.5.5-6.5.5zm-7 7 6 5 13 6h3l5 2h4l1 1h10l3-1-.5 1.5-2 10-3 7v3l-3 7v3l-4 11v3l-2 4v3l-3 7v3l-3.5 4.5-8 1-1-1h-7l-1-1h-3l-9-3-8-4-5.5-5.5 1-8 5-14v-3l2-4v-3l2-4v-3l3-7v-3l2-4v-3zm137 75 .5 3.5q-1 2.5-2 1zm6 3 .5.5-2.5 2.5-.5-.5zm282 11 1 1h5l6 2 11 1 6 2 11 1 6 2 11 1 1 1 9 1 1.5 1.5 2 5v15l-1 1v5l-1 1-1 6-3 7-3.5 4.5-3 1-1-1h-5l-6-2-11-1-1-1h-4l-6-2h-5l-1-1-11-1-1-1-10-1-4.5-1.5 4-4 4-9v-3l2-5v-6l1-1v-10q-2-1-1-5l-2-3zm-15 24 .5 2.5h-1zm15 123 1.5.5-1.5 2.5zm4 16 4.5.5-4.5.5z" opacity=".996"/><path fill="#a7a7a7" stroke="#a7a7a7" d="m224.5 50 1 1 1.5-.5-1 1 .5 1.5-2.5-2.5zm8 18 .5 3.5h-1zm287 117 .5.5-2.5 2.5-.5-.5zm-230 8 2.5.5-2.5.5zm222 8 .5 3.5h-1zm-397 53 2.5 2.5-.5.5-2.5-2.5zm77 58 2.5.5-2.5.5zm-34 1 .5 1.5-1 2 1.5-.5 1.5 1.5-.5 1.5 3-1h5l3 1v-2l1 1 2-2 .5.5-3.5 4.5q-3.2-.7-4 1h-6q-1-2-5-1l-1.5.5.5-1.5-1.5-.5q.8-3.2-1-4l1.5.5 2-2 1.5.5zm5.5 6v1h5zm267.5-5 2.5 2.5q-2.2 1.3.5 2.5l3-1h5l3 1v-2q1.3 2.3 2.5-.5l-.5-1.5 1.5.5.5-1.5 2.5 1.5q-.5 3.5 2 4-1.3 2.8-2.5.5l-5.5 1.5 2 1-1.5.5-1-1h-7l-1.5.5.5-1.5-4-1q-1.2 2.3-2.5-.5 2-1 0-2l1-2zm6.5 5v1h5zm-315.5-4 2 1 3-1v1l-1.5.5 1.5 3.5 2-1v2l11.5-.5-.5-1.5 2 1 .5-1.5-.5-1.5 1.5.5-1-2 1.5.5 1-1 1.5 1.5q-2 1 0 2-.7 3.3 1 4l-1.5-.5-1.5 1.5.5 1.5-3-1-1 1h-13l-1 1v-2l-3 1v-2l-2.5-1.5q-1-4 1-5z" opacity=".996"/><path fill="#a7a7a7" stroke="#a7a7a7" d="m182.5 315 1 1h8q.8-1.7 4-1l1 1h7l1.5-.5-.5 1.5 3-1v2l2-1v2l2-1-.5 1.5 3.5 3.5 1.5-.5q-1.7.8-1 4l1 2-3 8 .5 1.5-1-1-4.5 4.5.5 1.5q-1-2-2 0l-7 3-1-1h-5l-1-1h-5l-1-1-7-1-9-4h-2l-8-5-4.5-4.5-2-3 5.5-1.5v1l-1.5.5 9 1-2 1 1 2-.5 1.5 2.5-.5-1-1 2.5-2.5q1.5 2.5 3-1l1.5-.5-.5-1.5q1 2 2 0l1.5-.5-.5-1.5 2 1 4.5-3.5-1-2 1-1zm226 0q3.3-.7 4 1h8l1.5-.5-1 3 1.5 2.5 6 3 1.5-.5q-2.2 1.3.5 2.5l2 1 1.5-.5-1 1 3.5 3.5q3 .5 3.5-1.5l-.5-1.5-1.5.5 1-1-.5-1.5h8l3-1-.5 1.5-6.5 7.5-9 5-9 3h-3l-5 2h-5l-1 1h-5l-2 1-2-1-1.5.5.5-1.5-2 1v-2l-2-1-1 1-4.5-4.5q2-1 0-2l-.5-1.5-1.5.5 1-2h-2l1-1v-8l-.5-1.5 1.5.5-1-2 2.5-2.5q1 2 2 0l1.5-.5-.5-1.5 2 1v-2q.8 1.8 4 1l1-1h6zm71 0 4 3 1.5-.5-2 4q2.3 1.3-.5 2.5l-2-1v2l-3-1v2l-1-1h-13l-1.5.5.5-1.5-3-1-1.5.5q2.2-1.2 1-6l1.5-1.5 2 3q1.2-2.2 2.5.5l-.5 1.5 11.5-.5-.5-1.5 2 1v-2l1.5.5z" opacity=".996"/><path fill="#a7a7a7" stroke="#a7a7a7" d="m425.5 316 1.5.5q-1 2.5-2 1zm-306 2 .5 2.5h-1zm-4 3 2 2 1.5-.5-1 1 2 2-.5.5-4 1v-1l1.5-.5-7-1 3-1-.5-1.5 3 1zm373 0v2l6 1 1.5-.5-1.5 1.5h-7l-3 1v-1l1.5-.5zm-383 3 3.5 1.5-2.5.5q-2.5-1-1-2Z" opacity=".996"/><path fill="#a7a7a7" stroke="#a7a7a7" d="M499.5 324v2l3-1v2l6 1 1.5-.5-.5 1.5 3-1v2l4 1 1.5-.5-.5 1.5 2-1v2l2 1 1.5-.5-1 1 4 4q.8 4.8-2.5 5.5l-8 5-9 3q-4.8-1.3-6 1h-23l-1-1h-7l-5-2-1 1-3.5-3.5q2.5-1.5-1-3l-.5-1.5-1.5.5 1-2h-2l1-3h-2l1-1v-7l1.5-3.5 4 1 1.5-.5-.5 1.5h5l3 1q.8-1.7 4-1l.5 1.5-1.5-.5-1.5.5.5 1.5-2-1v2l-2-1v2l-2-1q-2 .5-1.5 3.5l1.5-.5 1 1 1.5-.5-.5-1.5 2 1v-2l2 1v-2l2 1v-2l3 1v-2l3 1 3.5-1.5-.5-1.5q1 2 5 1l1-1 9.5-.5-4-1 4-1-3-1zm-352 1-.5 1.5 1 3v9l1 1h-2v2l-2 3 .5 1.5-1-1-6 6-3 1h-7l-1 1h-23l-1-1h-5l-1-1h-3l-6-2q-6.4-3.1-10.5-8.5l-1-2h2l1-2q-2.2-1.2.5-2.5 1 2 2 0l7.5-3.5-.5-1.5 3 1 6.5-2.5-.5-1.5q.8 1.8 4 1l1.5-.5.5 1.5q1-2 5-1v1l-4.5.5 14.5 1.5 1.5-.5-.5 1.5q3.2.8 4-1v2l4 1 1.5-.5-.5 1.5 5 2 1.5-.5-.5 1.5 2.5-1.5-1-1 .5-1.5-2 1v-2l-5-2-1.5.5q.5-2 3.5-1.5l3 1 1-1 5.5-.5-.5-1.5 3 1v-2q1.5 2.5 3-1Z" opacity=".996"/><path fill="#a7a7a7" stroke="#a7a7a7" d="m133.5 326 3.5.5-3.5.5zm254 0 .5 3.5h-1zm81 0 2.5.5-2.5.5zm-319 6 .5 3.5h-1zm1 7 2.5 3.5-.5.5-2.5-2.5zm-76 3 .5 2.5h-1zm108 7 8.5.5-8.5.5zm231 0 8.5.5-8.5.5zm15 1 2.5.5-2.5.5zm-352 1 2.5 2.5-.5.5-2.5-2.5z" opacity=".996"/><path fill="#bbbcbb" stroke="#bbbcbb" d="m215.5 83 1 1 1.5-.5-1.5 1.5q-2.5-1-1-2Zm337 145 2.5.5-2.5.5zm-106 84 2.5 1.5-4.5 5.5-3 1h-5l-7.5-4.5 1.5-.5 6 4h5l3-1 2.5-2.5zm-292 1 2.5.5 2.5 4.5 3 1h5l7-4 .5 1.5-1.5-.5-3 3-3 1h-5l-3-1-2.5-2.5-1.5-2.5-2 2-.5-.5zm323 0q2.5 1 1.5 5.5l-4.5 2.5v-1l3.5-1.5v-4zm-287 1h8l2.5 1.5-4.5.5q-.7-1.7-4-1-1 2-5 1v-1zm216 0h8l3.5 1.5-5.5.5q-.7-1.7-4-1-1 2-5 1v-1zm74 0 2.5 1.5 2 3v2l-1.5.5.5-1.5-4-5zm-297 1 .5.5-2.5 2.5-4 1-.5-.5 2.5-2.5q1 2 2 0zm217 0 .5 1.5-1.5.5q-1.5-1 1-2Zm20 0 6.5 3.5-.5 1.5-4-2-.5 1.5 4 2-1.5.5-3.5-2.5 1-2-2-2zm41 0 3 5 1.5.5-1.5.5-3.5-4.5zm-336 1 3 4 1.5.5-1.5.5-2.5-1.5q-1.7-1.5-.5-3.5Zm17 0 .5 1.5-1.5 2.5-3 1v-1l3.5-2.5zm-22 2 .5 2.5h-1zm53 0 1.5.5-2 1-.5 1.5-.5-1.5zm285 0 .5 3.5q-1 1.5-2-1zm-247 1 1.5.5.5 1.5 1.5.5-.5 1.5-3.5-3.5zm-79 1 4.5.5-4.5.5zm335 0 4.5.5-4.5.5zm-351 1 2.5 2.5-.5.5-2-2-1.5.5zm30 0-.5 1.5-.5 1.5-1.5-.5zm11 0q3-.5 3.5 1.5l-1.5.5-2.5-1.5zm10 0 1.5.5-2.5 1.5q-1.5-1 1-2Zm268 0 2.5 1.5-1.5-.5q-2.4-.1-1-1Zm10 0 1.5.5-3.5 1.5v-1zm10 0 .5.5-2 2-2 5v12l-1 1 .5 1.5q-1-2-2 0l-4.5 1.5.5 1.5-3-1v2q-1-2-5-1l-1 1h-7l-1 1h-18q-.7-1.7-4-1l-1.5-1.5 4.5-.5q1.3 2.3 6 1v-1l-4.5-.5 13.5-2.5 8-3 2 1v-2l2 1v-2l2 1v-2l2 1-.5-1.5 1.5-1.5 2 1-.5-1.5 5.5-5.5 1.5.5-1-2q2-1 0-2l1.5-1.5q1 2 2 0zM429 341v1h2zm-3 1v1h2zm-4 1v1h2zm-4 1v1h2zm-267.5-22q1.1 2.4 4.5 2.5l-2 1 .5 1.5q1.3-2.2 2.5.5l-1 2 1.5-.5 3.5 3.5-.5 1.5 2-1 6.5 4.5-.5 1.5 3-1 2.5 1.5-2 1 2.5.5 2-1v1l-1.5.5 2.5.5 2-1v1l-1.5.5 2.5.5 3-1v1l-2.5.5 3.5.5 3-1v1l-2.5.5 3.5.5q1-2 5-1v1l-3.5.5 4.5.5q1-2 5-1 1.5 1-1 2l-2.5.5.5 1.5-1-1h-18l-1-1h-7l-1-1-8-1-1.5.5.5-1.5-6.5-3.5 1-9-3-7zm336 0-.5 1.5-.5 1.5-1.5-.5zm5 0q2.5 1 1 2l-1.5-.5zm-382 1 1.5 2.5-1.5.5q-3-1.5 0-3Zm385 0 1.5 2.5-2.5.5v-1l1.5-.5zm-369 1 2.5 1.5-1.5-.5q-2.4-.1-1-1Zm16 0 1.5.5q-1 2.5-2 1z" opacity=".996"/><path fill="#bbbcbb" stroke="#bbbcbb" d="m157.5 324 3.5 1.5-2.5.5q-2.5-1-1-2Zm272 0 1.5.5-.5 1.5q-2.5-1-1-2Zm6 0 2.5 1.5 2 4q-.5 2-3.5 1.5l-3.5-3.5.5-.5 5 3 .5-1.5-3-2zm11 0 .5 1.5-3.5.5v-1zm31 0 1.5.5-2.5 1.5q-1.5-1 1-2Zm-375 1 .5 1.5-1.5.5q-1.5-1 1-2Zm3 0-.5 1.5.5 1.5 5.5.5-5.5.5-1.5-2.5zm9 0q3-.5 3.5 1.5l-1.5-.5q-3 .5-2-1Zm6 0 1.5 2.5-1.5-.5-1.5-.5zm11 0 6.5.5-6.5.5zm84 0q2.3.8 1.5 4.5l-1.5 2.5-.5-2.5 1-2q-1.7-.7-.5-2.5Zm173 0 .5 4.5h-1zm78 0 6.5.5-6.5.5zm21 0 2.5.5-2.5 1.5zm14 0 2.5 1.5-1.5.5q-2.5-1-1-2Zm-45 1 3.5.5-.5 1.5-3-1zm25 0 3.5.5-2.5 1.5q-2.5-1-1-2Zm24 0q2.5 1 1 2l-1.5-.5zm-410 1 .5 1.5-1.5.5q-1.5-1 1-2Zm52 0q2.5 1 1 2l-1.5-.5zm18 0 .5 1.5-.5 1.5q3.5.5 4-2l.5.5-2.5 2.5q-3 .5-3.5-1.5zm296 0 2.5 1.5-1.5.5q-2.5-1-1-2Zm38 0q1.5 1-1 2l-5.5-.5 5.5-.5zm-407 1 .5 1.5-1.5.5q-1.5-1 1-2Zm22 0 3.5 1.5-2.5.5q-2.5-1-1-2Zm14 0q2.5 1 1 2l-1-1-1.5.5zm3 0 6.5.5-4.5 1.5-2.5-1.5zm325 0 .5 1.5-1.5.5q-1.5-1 1-2Zm10 0 6.5.5-4.5 1.5-2.5-1.5zm9 0 1.5.5-.5 1.5-1.5-.5zm13 0 1.5.5-2.5 1.5q-1.5-1 1-2Zm-369 1 2.5 1.5-1.5.5q-2.5-1-1-2Zm365 0q1.5 1-1 2l-1.5-.5zm-397 1 .5 1.5-2.5.5v-1zm44 0 4.5 2.5-1.5.5-3.5-2.5zm349 0 .5 1.5-1.5.5q-1.5-1 1-2Zm-332 1 .5 5.5h-1zm3 1 .5 2.5h-1zm-14 1 2.5 2.5-.5.5-2.5-2.5zm329 0 .5 1.5-1 2 1.5-.5 1.5.5-2.5 1.5q-2-.5-1.5-3.5zm56 1 3.5 2.5-1.5.5-2.5-2.5zm-310 3 .5 1.5-3 2-.5 1.5-1.5-.5zm243 0 1.5 2.5h-1zm-63 1 3.5 3.5-.5.5-3.5-3.5zm134 1q2.5 1 1 2l-1.5-.5zm-448 2 7.5 6.5-.5 1.5 2-1v2l3-1 7.5 2.5-3 1 3.5.5q1-2 5-1v1l-4.5.5 5.5.5 1-1h20l1 1h6v-1l-4.5-.5 7.5-.5 2-1v1l-11 6-6 2q-4-1-5 1h-12l-1-1-9-1-10-5-1.5.5q2.3-1.2-.5-2.5l-2.5-1.5-2-6 2-2zM92 351v1h2zm15 3v1h18zm418.5-12 1.5.5q1 6-2 8 2.3 1.3-.5 2.5-1-2-2 0l-4.5 2.5.5 1.5-2-1v2l-2-1-3.5 1.5.5 1.5q-.8-1.8-4-1l-6 2h-12q-1.3-2.3-6-1l-1.5.5.5-1.5-5-1-1.5.5.5-1.5-2 1v-2l-2 1v-2l-4-2-1.5.5.5-1.5-1.5-.5 2.5-.5 1 1 7.5.5-6 1 7.5.5 1-1h19q1.3 2.3 6 1v-1l-3.5-.5 4.5-.5q.8 1.8 4 1v-1l-2.5-.5 2.5-.5 3 1v-1l-1.5-.5 3.5-1.5 2 1v-2l2-1 2 1-.5-1.5 2.5-2.5 2 1-.5-1.5zM480 354v1h18zm-335.5-9 .5 1.5-5.5 5.5-.5-.5zm317 2 2.5 2.5-.5.5-2.5-2.5z" opacity=".996"/><path fill="#bbcdb4" stroke="#bbcdb4" d="m273.5 227 .5 13.5h-1z" opacity=".851"/><path fill="#d1d1d1" stroke="#d1d1d1" d="m269.5 186 .5 3.5h-1zm23 21 2.5.5-2.5.5zm-193 26 .5 3.5h-1zm6 0 .5 3.5h-1zm73 16 .5 2.5h-1zm-29 72 3.5 2.5-.5.5-2-2q-2.4-.1-1-1Zm304 0 2.5 1.5-2.5 5.5-.5-1.5 2-4-1.5-.5-2 2-.5-.5zm-304 2 1.5 3.5h-1zm2 5 .5 3.5h-1zm301 1 .5 9.5 1 1q-2.1 4.4-7.5 5.5v-1q4.6-.9 6.5-4.5l-1-1z" opacity=".996"/><path fill="#d1d1d1" stroke="#d1d1d1" d="m73.5 331 6.5.5-5 5-.5 2.5-1.5.5 2 2-.5.5-2.5 1.5.5 4.5 2.5.5-.5 1.5 1.5.5-1 1 4.5 4.5 1.5-.5 1.5 2.5 1.5-.5.5 1.5 3.5 1.5.5 1.5 1-2 1 3 2-1 1 2 2-2 .5.5 1.5 2.5 3-1q.8 2.8 5 2 1.2-2.2 6-1 .8 1.8 4 1l3-3q1.8 3.8 3.5.5l.5-1.5 2 2 .5-.5.5-2.5 2 1 1-1 1.5.5.5-2.5 1 2 1-3 1 2 1-2q4.8-1.7 7.5-5.5l3.5-4.5 3.5-2.5-.5-1.5h2l3.5 2.5.5 1.5 1-2 1 3 2-1 1 2 2-1 1 2 3-2 2 3h2l3-2q1 4 7 3l4-2h7q.5 2.5 4 2l2-3 2 2 .5-.5.5-1.5 2 1 1-3 1 2 1-3q1 2 2 0l3.5-2.5 1.5-2.5q1.3 2.3 2.5-.5l-.5-1.5 3.5-2.5.5-1.5 1.5-.5-2-1 2-1-1-2 1.5-.5 1 1h8l1 1h6l1 1h6l1 1h5l1 1 9 1 1 1h3l1 1h3l1 1h3l9 3 6.5 3.5.5 2.5 1.5-.5 1.5 2.5q1.3-2.3 2.5.5v5l-4.5 4.5-8 4v-2l-1.5.5-1.5 2.5-1-2-2 3-1-2-2 3-1-2-1.5.5.5 1.5-2 1v-2l-1.5.5-.5 1.5-2 1v-2l-2.5.5.5 1.5-2 1-1-2-1.5.5-.5 1.5-2 1-1-2-2.5.5.5 1.5-3 1v-2l-2.5.5-.5 1.5-3 1v-2l-3.5.5.5 1.5-3 1-1-2-3.5.5.5 1.5q-3.2-.7-4 1l-1-2-3.5.5.5 1.5-5 1-1-2-4.5.5.5 1.5q-4.2-.7-6 1v-2l-6.5.5.5 1.5h-5l-3 1v-2l-9.5.5 2 1-9.5.5-1 1h-58l-1-1-9.5-.5 2-1-9.5-.5v2l-8.5-1.5 2-1-7.5-.5v2l-6.5-1.5.5-1.5-4.5.5-.5 1.5-5.5-1.5.5-1.5-3.5.5-.5 1.5-4.5-1.5.5-1.5-3.5.5-.5 1.5-3.5-1.5.5-1.5-3.5.5.5 1.5-3.5-1.5-.5-1.5-2.5.5.5 1.5-3.5-1.5.5-1.5-2.5.5-.5 1.5-2.5-1.5-.5-1.5-1.5.5-.5 1.5-2.5-1.5.5-1.5-2.5.5.5 1.5-2.5-1.5-.5-1.5-1.5.5.5 1.5-2.5-1.5.5-1.5-1.5.5-.5 1.5-2-3-1 2-2-3-1 2-2-3-1 2-3.5-2.5-.5-1.5-1.5.5-.5-1.5q-1.2 2.3-2.5-.5L2.5 356l-1.5-.5.5-4.5 1 2 4-6 1.5.5.5-1.5 1.5.5.5-1.5 3-1 1.5.5 1.5-2.5 1 2 2-3 1 2 1-2 3 1 2-3 1 2 1.5-.5-.5-1.5 2-1 1 2 1.5-.5.5-1.5 2-1v2l2.5-.5-.5-1.5 3-1v2l2.5-.5-.5-1.5 3-1 1 2 2.5-.5-.5-1.5 3-1 1 2 3.5-.5-.5-1.5 3-1 1 2 3.5-.5-.5-1.5 3-1h7zm49.5 47v1h17zm31 0v1h17zm371.5-47-.5 1.5 1.5 1.5 3.5-1.5.5-1.5 5.5 1.5-.5 1.5 3.5-.5.5-1.5 4.5 1.5-.5 1.5 3.5-.5.5-1.5 3.5 1.5.5 1.5 2.5-.5.5-1.5 3.5 1.5-.5 1.5 2.5-.5.5-1.5 2.5 1.5.5 1.5 2.5-.5-.5-1.5 3.5 1.5-.5 1.5 2.5-.5-.5-1.5 2.5 1.5.5 1.5 1.5-.5.5-1.5 2.5 1.5-.5 1.5 1.5-.5.5-1.5 2 3 3-1v2l1.5-.5.5-1.5 2 3 1-2 2 3 2-1 2.5 1.5.5 1.5q1-2 2 0l2.5 1.5 2.5 5.5 1.5-.5-.5 1.5-1.5.5-4.5 6.5-5 3q-3.2-.7-4 1l-1-2-2 3-1-2-2 3-1-2-1.5.5.5 1.5-2 1v-2l-1.5.5-.5 1.5-2 1v-2l-2.5.5.5 1.5-2 1-1-2-1.5.5-.5 1.5-2 1-1-2-2.5.5.5 1.5-3 1v-2l-2.5.5-.5 1.5-3 1v-2l-3.5.5.5 1.5-3 1-1-2-3.5.5.5 1.5q-3.2-.7-4 1l-1-2-3.5.5.5 1.5-5 1-1-2-4.5.5.5 1.5q-4.2-.7-6 1v-2l-6.5.5.5 1.5h-5l-3 1v-2l-9.5.5 2 1-9.5.5-1 1h-58l-1-1-9.5-.5 2-1-9.5-.5v2l-8.5-1.5.5-1.5-6.5.5.5 1.5-6.5-1.5.5-1.5-4.5.5-.5 1.5-5.5-1.5.5-1.5-3.5.5-.5 1.5-4.5-1.5.5-1.5-3.5.5-.5 1.5-3.5-1.5.5-1.5-3.5.5.5 1.5-3.5-1.5-.5-1.5-2.5.5.5 1.5-3.5-1.5.5-1.5-2.5.5-.5 1.5-2.5-1.5-.5-1.5-1.5.5-.5 1.5-2.5-1.5.5-1.5-2.5.5.5 1.5-2.5-1.5-.5-1.5-1.5.5.5 1.5-2.5-1.5.5-1.5-1.5.5-.5 1.5-2-3-1 2-2-3-1 2-2-3-1 2-8-4-4.5-4.5q-1.2-6.2 2.5-7.5l1.5.5.5-1.5 1.5.5 2.5-3.5 13-5h3l9-3h4l6-2h5l1-1h6l1-1 14-1 2.5 1.5-1 2 3 2-1 1 7.5 7.5 1.5-.5 1.5 2.5 1.5.5.5 1.5q1-2 2 0l2-1 2 3 2-1 1 2q3.5.5 4-2h8q2 3 8 2l2-3 3 2h2l2-3 3 2 1-2 2 1 2-2 1.5.5.5-2.5 1.5.5.5-1.5 1 1q1.5-3.5 3-1l2.5.5-1 1 8.5 8.5 1.5-.5 1.5 2.5 1.5-.5 1.5 2.5 1.5.5.5 1.5q1-2 2 0l2.5.5.5 1.5 1-2 2 3q1.5-2.5 3 1l3-2 2 3 9-1q.7 1.8 4 1l3-3q2 4 4 0l2 1 2-2 1.5.5.5-1.5h2l5.5-3.5.5-1.5 1 1 6.5-6.5.5-1.5 1.5-.5q-2-1-1-5l1-2-2-1 1-2-2-1-1.5-2.5-3.5-2.5zM436 378v1h17zm31 0v1h17z" opacity=".996"/><path fill="#d1d1d1" stroke="#d1d1d1" d="m151.5 336 .5 4.5 1 1q-1 1.5-2-1zm376 5 .5 5.5h-1zm-451 2 1.5 6.5h-1q-2-2.3-.5-6.5Zm79 0 10.5 3.5-3.5.5-6-2q-2.5-1-1-2Zm287 2 2.5.5-3.5 1.5h-3v-1q3.3.8 4-1Zm-243 1q1.5 1-1 2l-2.5-.5zm205 0 5 2 16.5.5-16.5.5q-.7-1.8-4-1-2.5-1-1-2Zm-237 1 5.5.5-5.5.5zm264 0 3.5.5-3.5.5zm-257 1 20.5.5-20.5.5zm253 0 2.5.5-2.5.5zm98 2 .5.5-4.5 4.5-4 2q-1.5-1 1-2 5-1 7-5Zm-60 1 5.5 3.5-1.5.5-4.5-3.5zm-384 2 9 5 5.5 1.5-2.5.5-9-4-3.5-2.5zm54 0 1.5.5-2.5 1.5q-1.5-1 1-2Zm-3 2q1.5 1-1 2l-3 1v-1zm343 2 3.5 1.5-1.5.5-2.5-1.5zm39 0 1.5.5-3.5 1.5v-1zm-389 1 1.5.5-4.5 1.5v-1zm383 1 2.5.5-3.5 1.5h-3v-1q3.2.7 4-1Zm-411 1 3.5.5-3.5.5zm20 0 3.5.5-6.5 1.5v-1zm366 0 3.5.5-3.5.5zm-378 1 7.5.5-7.5.5zm386 0 8.5.5-8.5.5z" opacity=".996"/><path fill="#f20303" stroke="#f20303" d="M405.5 120h34l1 1 63 1 1 1 5.5.5-6.5.5-1 1h-5l-1 1h-6l-1 1h-5l-1 1h-5l-1 1h-5l-1 1h-6l-1 1q-4.8-1.3-6 1h-4l-1-1h-15l-1-1h-16l-1-1h-15l-1-1h-15l-1-1h-16l-1-1-17.5-.5 7.5-.5 1-1h9l1-1h10l1-1h10l1-1h10zm116 3 1.5.5-.5 58.5-5.5 3.5-6.5 11.5-11-2-4-2h-4l-6 2-3.5 3.5v4l7.5 7.5 15 8 9 3h3l1.5 1.5 5 7v16L491.5 263l-2 2-23 12-2 2-5 2-.5-147.5 5.5-.5 1-1h5l1-1h5l1-1 12-1 1-1h5l1-1h5l1-1h6l1-1 11-1zm-180 3 2 1h15l1 1h15l1 1h15l1 1h16l1 1h15l1 1h15l1 1 16.5.5-.5 148.5-7-1-9-3h-4l-9-3h-4l-5-2h-4l-1-1h-3l-9-3h-4l-9-3h-4l-5-2h-4l-9-3h-4l-1-1h-3l-1-1-8-1-1-1-7.5-1.5zm11.5 29-1 2 3 1v1l-3-1-4 1 2 1 3 1h-2l-1 2 5 1h-8l-2 2 5 1h-4l-1 2h17l1 1h21zm92 6-21 7h-3l-9 4 4 1h10l1 1h10l1 1h10l2 1v-1l-5-1 5-1v-1l-10-2 7-1-3-2 4-1v-2l-2 1h-4l3-2z" opacity=".996"/><path fill="#c8c7be" stroke="#c8c7be" d="m449.5 313 2.5 3.5h-1l-2-3zm-265 2 2.5.5-2.5.5zm245 1 1.5 2.5q-1 1.5-2-1zm23 2 .5.5-2.5 2.5-.5-.5zm-332 3 2.5 2.5-.5.5-2.5-2.5zm41 1 4.5.5-4.5.5zm277 0 4.5.5-4.5.5zm20 0 3.5 2.5-1.5.5-2.5-2.5zm-347 3 2.5.5-2.5.5zm17 0 2.5.5-2.5.5zm10 0 2.5.5-2.5.5zm8 0q2.5 1 1 2l-1-1-1.5.5zm7 0 6 8 12 7 16.5 4.5-3.5.5-1-1h-3l-9-3-8-4-8.5-7.5-2-3zm8 0 4.5.5-4.5.5zm7 0 .5.5-2.5 2.5-.5-.5zm270 0 4.5.5-4.5.5zm13 0 .5.5-2 2-6.5 7.5-13 7-5 1v-1q15.1-3.4 23.5-13.5zm12 0 2.5.5-2.5.5zm10 0 2.5.5-2.5.5zm17 0 2.5.5-2.5.5zm-368 1 6 3 2-1v1l-2 1-6.5-2.5zm357 1 2.5.5-4.5 1.5v-1zm-368 1 2.5.5-2.5.5zm27 0 2.5.5-2.5.5zm352 0 2.5.5-2.5.5zm-35 2 .5 6.5h-1zm-303 1 .5 5.5q-1 1.5-2-1zm-76 11h2l5 5 10.5 4.5-2.5.5-8-4-5-5-1 1q-2.5-1-1-2Zm-4 1 .5 4.5h-1zm349 0 2.5.5-2.5.5zm104 0q1.5 1-1 2l-6 4q-1.5-1 1-2zm-108 1 2.5.5-2.5.5zm-228 1 4.5.5-4.5.5zm221 0 5.5.5-5.5.5zm-237 2 2.5.5-2.5.5zm256 0 1.5.5-.5 1.5q-2.5-1-1-2Zm86 2 1.5.5q-3.7 3.3-10.5 3.5v-1h3zm-348 2 2.5.5-2.5.5zm267 0 2.5.5-2.5.5zm-339 1 9.5 1.5-5.5.5q-.7-1.7-4-1zm80 0 4.5.5-4.5.5zm17 0 2.5.5-2.5.5zm217 0 2.5.5-2.5.5zm15 0 5.5.5-5.5.5zm-298 1q6-1.5 7.5 1.5l-.5 1.5-1-2h-6zm345 0h7l1 1 18.5.5-18.5.5-1-1h-7zm28 0 5.5.5-5.5.5zm-393 1 18.5.5-18.5.5zm-5 6 1.5.5q-1 2.5-2 1zm386 0 1.5.5q-1 2.5-2 1zm-385 5 3.5.5-3.5.5zm10 0 3.5.5-3.5.5zm376 0 3.5.5-3.5.5zm10 0 3.5.5-3.5.5z" opacity=".996"/><path fill="#d1d1d1" stroke="#d1d1d1" d="m70.5 331 2.5.5-2.5.5zm150 0 2.5.5-2.5.5zm155 1 2.5.5-2.5.5zm152 0 2.5.5-2.5.5zm8 1 3.5.5-3.5.5zm-476 1 3.5.5-3.5.5zm484 0 3.5.5-3.5.5zm-491 1 3.5.5-3.5.5zm499 0 2.5.5-2.5.5zm-512 1 3.5 1.5-2.5.5q-2.5-1-1-2Zm7 0 2.5.5-2.5.5zm511 0 2.5.5-2.5.5zm9 0q1.5 1-1 2l-2.5-.5zm-532 1 3.5 1.5-2.5.5q-2.5-1-1-2Zm537 0q1.5 1-1 2l-2.5-.5zm-549 3 2.5 1.5-1.5.5q-2.5-1-1-2Zm561 0q1.5 1-1 2l-1.5-.5zm-578 7 1 1 1.5-.5-1.5 1.5q-2.5-1-1-2Zm-1 2 .5.5-2 2-.5 1.5-.5-1.5zm597 0q3 .5 2.5 4.5h-1v-2l-2-2zm2 6 .5 1.5-2.5 2.5-.5-.5zm-601 1 2.5 2.5-.5.5-2.5-2.5zm24 11 1.5.5-2.5 1.5q-1.5-1 1-2Zm239 0 2.5 1.5-1.5-.5q-2.4-.1-1-1Zm74 0 1.5.5-2.5 1.5q-1.5-1 1-2Zm239 0 2.5 1.5-1.5-.5q-2.4-.1-1-1Zm-548 1 2.5.5-3.5 1.5q-1.5-1 1-2Zm230 0q3-.5 3.5 1.5l-1.5-.5q-3 .5-2-1Zm83 0 2.5.5-3.5 1.5q-1.5-1 1-2Zm230 0q3-.5 3.5 1.5l-1.5-.5q-3 .5-2-1Zm-533 2 2.5.5-2.5.5zm210 0 2.5.5-2.5.5zm103 0 2.5.5-2.5.5zm210 0 2.5.5-2.5.5zm-518 1 2.5.5-2.5.5zm200 0 2.5.5-2.5.5zm113 0 2.5.5-2.5.5zm200 0 2.5.5-2.5.5zm-507 1 3.5.5-3.5.5zm187 0 3.5.5-3.5.5zm126 0 3.5.5-3.5.5zm187 0 3.5.5-3.5.5zm-493 1 3.5.5-3.5.5zm173 0 3.5.5-3.5.5zm140 0 3.5.5-3.5.5zm173 0 3.5.5-3.5.5zm-478 1 3.5.5-3.5.5zm157 0 3.5.5-3.5.5zm156 0 3.5.5-3.5.5zm157 0 3.5.5-3.5.5zm-461 1 4.5.5-4.5.5zm138 0 4.5.5-4.5.5zm175 0 4.5.5-4.5.5zm138 0 4.5.5-4.5.5zm-441 1 7.5.5-7.5.5zm116 0 6.5.5-6.5.5zm197 0 6.5.5-6.5.5zm116 0 6.5.5-6.5.5zm-415 1 9.5.5-9.5.5zm85 0 9.5.5-9.5.5zm228 0 9.5.5-9.5.5zm85 0 9.5.5-9.5.5zm-375 1 17.5.5-17.5.5zm31 0 17.5.5-17.5.5zm282 0 17.5.5-17.5.5zm31 0 17.5.5-17.5.5zm-352 1 2.5.5-2.5.5zm62 0 2.5.5-2.5.5zm251 0 2.5.5-2.5.5zm62 0 2.5.5-2.5.5z" opacity=".984"/><path fill="#d0d5cf" stroke="#d0d5cf" d="m465.5 284 .5 1.5q-1 2.5-2 1zm-20 22 3.5 2.5-2.5 1.5.5-1.5-2-2zm29 0 1.5.5.5 2.5 2.5.5-2.5.5-2.5-3.5zm-24 3 3.5 3.5-.5.5-3.5-3.5zm-260 1 7.5.5-7.5.5zm213 0h14l1 1 7 1 1.5-.5q-.5 2-3.5 1.5l-6-2h-14l-7.5 2.5.5 1.5-2-1-5 3v-1l2.5-1.5-.5-1.5 2 1v-2l2 1zm-220 1 2.5.5-2.5.5zm-5 1 2.5.5-2.5.5zm206 0 .5 1.5-1.5.5q-1.5-1 1-2Zm-30 1 1 1 3-1 2 1 1-1h19v1h-10l-2 1-3-1-1 1h-14l-1 1-3-1-3 1h-8l-1 1-3-1q-3.2-.7-4 1-1-2-2 0h-15l-3 1q-1-2-2 0h-7l-1 1q-1-2-2 0l-3-1-2 1-2-1-1 1h-9l-1 1-2-1-2 1q-1-2-2 0l-2-1-4 2-2-1q-1 2-2 0l-4 1-1-2-1 2-2-1-4 2-2-1-3 1-2-1-1 1h-12l-1 1h-8l-1 1-4-6-1.5.5 1-1-.5-1.5 5 4v-2l1 1h7v-2l1 1h14l1-1 3 1q4.2.7 6-1 1 2 2 0 4 1 5-1 1.3 2.3 6 1l2-1 1 1h6l1-1h6q1 2 2 0 4.8-1.2 6 1l1-1h9l2-1 1 1 1-1 1 1 3-1 2 1q1-2 2 0 1.8-1.7 6-1 1 2 2 0l16-1q1 2 2 0 4-1 5 1l1-1h10zm-238 3 .5 1.5-1.5.5q-1.5-1 1-2Zm-8 3 2.5.5-3 1 .5 1.5q-.7-1.7-4-1l-3.5 1.5.5 1.5q-.7-1.7-4-1l-3.5 1.5.5 1.5-3-1-2 1v-1l15-5h3zm112 6 .5 5.5h-1zm-134 1 1.5.5-7.5 4.5h-5v-1h5zm239 1h19l1 1 2-1 3 2 1-1h32l.5 1.5-7 1 6 1-5.5.5-1-1h-7v1l5.5.5-5.5.5q-1.2-2.2-6-1l-1 1-5.5.5 4 1-3.5.5q-1-2-5-1v1l3.5.5-3.5.5q-1-2-5-1v1l2.5.5-2.5.5q-1-2-5-1v1l3.5.5-3.5.5q-.7-1.7-4-1l-3 1q-1-2-2 0-5.5 1-8-1l-3 1q-1-2-2 0-2.2-1.8-7-1l-2 1q-1-2-5-1-1 2-2 0-4.7-1.3-6 1l-1-1h-16l-1-1q-1 2-2 0l-4 1-2-1q-1 2-2 0-4.8-1.2-6 1l-1-1-9-1q-.7 1.8-4 1v-1l3.5-.5-4.5-.5q-.7 1.8-4 1v-1l3.5-.5-5.5-.5q-1 2-5 1v-1l4.5-.5-5.5-.5-1-1h-7q-1.3 2.3-6 1v-1l5.5-.5-6-1 14.5-.5 1-1q.8 1.8 4 1l3-1 7 1 2-1 2 1 2-1 2 1q1-2 2 0l2-1 1 1h9q1-2 2 0 4 1 5-1l1 2 1-2 2 1h22q1-2 2 0h11l1-1 3 1 1.5-.5zm33.5 2v1h2zm-112 1v1h6z" opacity=".925"/><path fill="#d0d5cf" stroke="#d0d5cf" d="m75.5 328 4.5.5-4.5.5zm-9 1 3.5.5-3.5.5zm1 2 2.5.5-2.5.5zm164 1 4.5.5-4.5.5zm133 1 3.5.5-3.5.5zm-109 3 2.5.5-2.5.5zm13 3 2.5.5-2.5.5zm14 5 2.5 1.5-1.5-.5q-2.4-.1-1-1Zm33 5 .5.5-2 2-.5 1.5-1-2-.5 5.5h1l.5-1.5 1.5 2.5h-2l1.5 2.5 1.5-.5-.5 1.5 2-1 1.5 1.5-.5 1.5 2-1 2.5 1.5-1.5.5q-1-2-2 0h-20q-.7 1.8-4 1-1-2-2 0-7.5 1.5-10.5-1.5l2.5-1.5 2 1-.5-1.5 1.5-1.5 2 1 2.5-3.5h-2l1.5-2.5 1 2 .5-5.5h-1l-.5 1.5-1.5-2.5 1.5.5 1-1 2 1 1-1h16q1.5 2.5 3-1Zm-7.5 13v1h2zM.5 352l.5 3.5H0zm599 9v2l2-1h30v1h-8l-1 1-5.5.5.5 2.5 2.5.5-.5 1.5-3.5-2.5-.5-2.5q-3.2.8-4-1l-2 2h-11l-2.5-1.5zm-370 14 2.5.5-2.5.5zm-137 3 2.5.5-2.5.5zm419 0 2.5.5-2.5.5zm-403 1 5.5.5-5.5.5zm71 0 5.5.5-5.5.5zm245 0 2.5.5-2.5.5zm68 0 5.5.5-5.5.5zm-359 1 26.5.5-26.5.5zm313 0 26.5.5-26.5.5z" opacity=".925"/><path fill="#eaf9e5" stroke="#eaf9e5" d="M226.5 36q10.2-.2 14.5 5.5l4 7 2 6v8l-2.5 3.5q-2.5 2-8 1l-2.5-1.5-1-5-5-9v-5l.5-1.5-2.5 1.5-.5 2.5-3.5-2.5v-5l2.5-4.5z" opacity=".863"/><path fill="#eaf9e5" stroke="#eaf9e5" d="m214.5 47 7 1 6.5 6.5 4 9v12l-1 3-3.5 3.5-3 1-4.5-2.5 1-3v-13l-4-9-4.5-4.5-1.5-.5 1.5-2.5z" opacity=".863"/><path fill="#eaf9e5" stroke="#eaf9e5" d="M194.5 48h8l3 1q6.4 3.1 10.5 8.5l3 6 1 9-1 1-1 7-4.5 4.5q-8.1.1-10.5-5.5l-4-7v-2l-2-3-3-9v-3l-1.5-1.5q-1 2-2 0l-1.5-.5 3.5-4.5z" opacity=".863"/><path fill="#eaf9e5" stroke="#eaf9e5" d="m188.5 71 6 2h3l1.5 1.5q2.1 7.9 8.5 11.5 1.8 1.7 6 1l4.5-3.5.5-1.5q2.3 3.2 9 2 .8-1.7 4-1l4 2h3l1.5 1.5-4.5 4.5-8 1-1.5 1.5 5.5.5 2-1 .5 1.5-4.5 5.5-7 3h-7q-.7-1.8-4-1l-5.5-3.5 1.5-.5q1 2 2 0h6l3-1 6.5-4.5-.5-2.5-6 5-6 1-1 1h-4l-1-1h-13l-11 6-5 1-3-1-2.5-2.5q-2-2.5-1-8 1.8-.7 1-4l3.5-4.5 7-3h7q1 2 5 1l.5-.5-4-4-3-5zm352 77 7 2 6.5 5.5v5l-1 1q1.2 4.8-1 6v5q-1.7.8-1 4l-3 3q2.5.5 2 4l-1.5 3.5q-10.9-.4-14.5 6.5-1.7 1.8-1 6l2 4-6 5q.8 3.2-1 4l2 5 5.5 5.5 5.5 2.5q-3.4 2.2-4.5 6.5h-6l-6-3-2.5-2.5-3-5-1-6q-4.2-2.8-6-8v-9l4-9 5.5-5.5 3-1-.5 1.5-3 7v12l1.5 2.5q2.8-1.2.5-2.5l-1-7 1-1 1-7 9-15 1-3v-9l-1-2 1-1q-.7-4.2 1-6l3.5-3.5zm-256 2h5l4 2 7.5 6.5 2.5 3.5 7.5 6.5 5 15-2 3-3 9 1.5.5 5-12q3-.5 3.5 1.5l-2 7-6.5 11.5-6-1q-.7 1.8-4 1l-5 3h-7l-4.5-3.5.5-1.5 4.5-3.5.5-3.5q9.1-.4 12.5-6.5l1-5-1.5-.5q-.1 5.9-4 8l-4 2h-10l-3.5-2.5v-3q4.1-2.4 5.5-7.5h3l4.5-3.5 1-2v-9l-1.5-.5-.5 3.5 1 3-1 3-3.5 3.5-5 1q-.7-1.7-4-1l-3.5-2.5-4-8v-7q2-5.5 6.5-8.5z" opacity=".863"/><path fill="#eaf9e5" stroke="#eaf9e5" d="m271.5 163 2.5 9.5 5.5 6.5 5.5 1.5q.5 4-2.5 4.5h-5l-6-2-3.5-3.5-2-5v-5zm46 18 21.5.5-.5 4.5h-11l-1-1-4.5-.5-1.5-2.5q-4 .8-3-1Zm15.5 2v1h2zm234.5-2q7.4 2.6 11.5 8.5l2 4v4q-2.2 6.8-7.5 10.5l-10 5h-11l-8-3-8.5-7.5q-1.8-2.2-1-7l3.5-4.5 4-2 10-1 1 1h7l4 2 1.5-3.5v-4zm-297 3 9.5 3.5q-.6 4.1 1.5 5.5l4 2 4.5.5-2.5 4.5q-2.2 1.8-7 1l-6-2-3.5-3.5-1-2zm-156 8h5l8.5 5.5 5 9v8l-1 3-3 3 1.5.5 2-1q2.2 6.3 7 10l9 5 20 6q4.8 1.7 7.5 5.5l1 6-3.5 4.5q-3.2-.7-4 1h-6l-1-1h-4l-1-1-6-1-14-7-.5 1.5 14.5 7.5 6 1 1 1h6q.8 1.8 4 1l6-2 3.5-3.5 1-5-.5-1.5 3.5 1.5 1 5-1 3-2.5 2.5-12 4h-17l-1-1-7-1-6-3-.5.5 2.5 2.5 8 3 11.5 1.5-4.5 1.5h-11l-1-1h-4l-1-1-6-1-8-4-10.5-9.5 1.5.5 6 3 .5-.5-2.5-2.5-7.5-4.5-3-9v-7l1-1v-4l2-6 4-5v-5l-4-9v-4l2.5-4.5zm-3.5 46-1 2 9 4v-1zm0 5-1 2 12 7v-1z" opacity=".863"/><path fill="#eaf9e5" stroke="#eaf9e5" d="m535.5 205 11 8 6 2h10l9-3 .5 4.5q-1.7 4.8-5.5 7.5l-5 2-10 1-1-1-7-1q-6.9-2.6-11.5-7.5l-2-6 1-3 2.5-2.5zm-217 14 3.5.5-3.5 1.5h-13v-1h12zm14 0 5.5.5-5.5.5zm-226 2 1.5.5-2 5v6q-1.7.7-1 4l1 1v5l2 5-2.5.5-3.5-2.5-2-4v-13l4.5-6.5zm182 0 9.5.5-9.5.5zm-14 1 6.5.5-6.5.5zm51 2 13.5.5.5 32.5 10 2 1 1h4l9 3h4l9 3h4l9 3h4l9 3h4q.8 1.7 4 1l1.5 1.5v2l17 34-2.5 4.5-1-1-9-1-1-1h-11l-1 1-7 1q-5.2 1.8-8 6-4-1-5 1h-20l-1 1-38 1-1 1h-21l-1 1-7.5.5 17.5.5 1 1h12l1.5 1.5-1.5.5-3-1q-1.2 2.2-6 1l-3-1-3 1q-1-2-2 0h-22l-2-1-1 2-1-2q-1 2-5 1-.7-1.7-4-1-1 2-2 0-4-1-5 1-1-2-2 0l-2-1-2 1-2-1-2 1-2-1-3 1q-1-2-5-1l-3 1q-3.2.8-4-1l-1 1-14.5.5 5.5.5 1 1 13 1 1 1h5l1 1 9 1 1 1h4l1 1q1.2-2.2 6-1 1 2 2 0l4 1 2-1 3 1h16l1 1q1.3-2.3 6-1 1 2 2 0 4.2-.7 6 1 1.2-2.3 6-1l2 1q1-2 2 0l4-1 1 1h6q1-2 2 0l6-1 1-1h4l1-1h4l1-1h4l1-1h5l1-1q4.8 1.3 6-1h7l1-1 6.5-.5.5-1.5 1.5 4.5h-1l-.5-1.5-15 1-6 2h-6l-1 1-14 2-7 3h-3l-8 4h-2l-2 2-1-1h-33q-1-2-5-1l-11-5h-4l-1-1-11-2-1-1-32.5-4.5-.5-5.5-1 6-1.5-8.5-3.5-4.5-10-5q-4 1-5-1h-10l-1 1h-6l-5 2-1.5-4.5 5.5-.5 1-1 29-1 1-1h15l1-1h15l1-1h15l1-1h16l1-1h15l1-1h17l2.5-1.5-39.5-.5-1-1h-42l-1-1-47.5-.5 11.5-24.5h4l1-1h3l5-2h4l9-3h4l5-2h12l1-1 56.5-.5-57-1 12.5-2.5 1-1h4l6.5-2.5.5-30.5 6.5.5.5 17.5 1.5-1.5.5-16.5h7l1-1 7 21 1.5-.5v-3l-3-6-3-10 15.5-.5 2.5 2.5 6.5 11.5 1.5-.5-4-8-4-5 1.5-1.5h20zM300 262v1h33zm-81 23v1h2zm39 1v1h6zm30 1v1h3zm-92 2v1h2zm195 5v1h2zm-95 3v1h2zm17 1v1h2zm18 1v1h2zm-140 11v1h7zm213 0v1h14zm-220 1v1h2zm216 0v1h3zm19 0v1h4zm-240 1v1h2zm194 0-1 1h-13l-3 1-1-1-3 1-2-1q-2 2-6 1-1 2-2 0-4-1-5 1l-1-1h-7q-1 2-2 0l-5 1q-2-3-3 1l-1-1q-5-1-6 1-1-2-2 0-2-2-6-1-1 2-2 0l-2 1-3-1q-2 2-6 1-1 2-2 0-5-1-6 1l-1-1h-6q-1 2-2 0l-3 1-3-1-2 1-2-1-2 1-2-1-3 1q-2-3-3 1l-1-1q-5-1-6 1-2-2-3 1v-1l-1-1q-1 2-2 0l-3 1q-5 1-5-1l-2 1-3-1v2l-3-1-7 3 2 3 1-1h8l1-1h12l1-1 2 1 3-1 2 1 4-2 2 1 1-2 1 2 4-1q1 2 2 0l2 1 4-2 2 1q1-2 2 0l2-1 2 1 1-1h9l1-1 2 1 2-1 3 1q1-2 2 0l1-1h7q1-2 2 0l3-1h15q1-2 2 0 0-2 4-1l3 1 1-1h8l3-1 3 1 1-1h14l1-1 3 1 2-1h10v-2q-2 2-5 1zm12 0q-3 1-1 2h1zm12 0v1h2zm27 0v1h2zm-167 2v1h2zm-17 1v1h2z" opacity=".863"/><path fill="#eaf9e5" stroke="#eaf9e5" d="M567.5 225q6.4.7 8.5 5.5v6l-6.5 7.5-5 2q-5.5-1-8 1l-1-1h-5l-1-1-6-1-5.5-4.5v-7l2.5-4.5 5-1 1 1 9 1q.8-1.7 4-1l5 2 2 2 .5-1.5-4-3zm-493 6q1.2 4.4 4.5 6.5l.5 9.5 15.5 8.5-20.5.5zm459 5 1.5.5q.8 4.3 4 6v3l-1 1q1.2 4.7-1 6v6l6 4-.5 2.5-4.5 1.5 1 2-17.5.5-1 1-12 1-1 1-17 1-1 1h-11l-3 1v-1l49.5-27.5.5-8.5h3zm-447 22h13l9.5 5.5-11 1 14.5.5 29.5 16.5-6 13v2l-1.5 1.5q-4 1-5-1h-72l-3.5-1.5 1-1v-15l1-1 .5-13.5h8l1-1 32.5-.5-33.5-.5-1 1h-7l-.5-3.5 9.5-.5 1-1h19zm85 20-.5 1.5-2 7-5.5 11.5-10.5-.5 5-10 5.5-7.5h3zm262 1 8 1 1.5 1.5 3 7 2 2-2 1 3 1 11 20-4.5 4.5-2.5-2.5-2.5-3.5-6.5-3.5v-2l-3-5v-2l-8-18zm33 0h10l1 1h14l1 1h13l1 1h13l1 1h12l1 1h11l1 1h9l1 1h10l2 1 1-1h16l3-1 .5 3.5 2 2v17l-1 1 .5 1.5-2.5 1.5-.5 2.5q-4.7 1.2-6-1h-8l-1-1h-26l-1 1h-20l-1 1-38 1-4-3h-3l-4.5-2.5v-2l-7-14-4-12zm8.5 27 1 3v-2zm2 3v1h2zm-326.5 2q1 2 2 0l1.5.5-2 1-3.5 4.5-4.5-4.5.5-.5q4.7 1.2 6-1Zm-44 3 13.5.5q-2.4 1.1-2.5 4.5l-28 8-8 4-5.5 5.5-.5 1.5-.5-1.5 6-6-.5-.5h-5l-1 1h-7q-.7 1.8-4 1l-.5-1.5 2-1-2-2v-10l2.5-1.5 2 1 2-1 2 1 1-1h19l1-1h13zm10.5 2q-3 1-1 2h1zm-8 3v1h2zm-4 1v1h3zm-3 1v1h2zm-4 1v1h3zm-3 1v1h2zm-3 1v1h2zm-16 4v1h4zm-9 1v1h3zm82.5-11 .5 2.5h-1zm199 9 2.5 1.5-1.5-.5q-2.4-.1-1-1Zm10 2 2.5.5-2.5.5zm-112 1 6.5.5-6.5.5zm276 0 2.5 1.5-1.5.5q-2.5-1-1-2Zm4 1 3.5.5-3.5.5zm10 1 2.5.5-2.5.5zm-477 1 2.5.5-2.5.5zm485 0 2.5.5-2.5.5zm-492 1 2.5.5-2.5.5zm334 0 1.5 2.5q-1 1.5-2-1zm165 0 2.5.5-2.5.5zm-334 1-.5 1.5-2.5 3.5-.5-.5 2-2zm171 3 7.5 7.5-.5.5-7.5-7.5zm142 3 .5 7.5-7.5 8.5-.5-.5 6-6 1-2zm-457 1 .5 5.5h-1zm76 0 5.5 4.5-1.5-.5-4.5-2.5zm305 0 1.5 2.5-1.5-.5-3 2-.5-.5zm-444 2 1.5.5-2.5 1.5q-1.5-1 1-2Zm199 0 .5.5-2.5 2.5-2 1q-1.5-1 1-2zm385 0 2.5 1.5-1.5-.5q-2.4-.1-1-1Zm-446 1 .5.5-2.5 2.5-.5-.5zm249 1 6.5 3.5-1.5.5-4-2q-2.5-1-1-2Zm59 0 8.5 8.5-.5.5-8.5-8.5zm-10 1 1.5.5-4.5 1.5v-1zm-442 1 .5.5-2.5 2.5-.5-.5zm597 0 2.5 2.5-.5.5-2.5-2.5zm-456 1 .5.5-2.5 2.5-.5-.5zm17 0 2.5.5-2.5.5zm277 0 2.5.5-2.5.5zm-361 1 2.5 2.5-.5.5-2.5-2.5zm88 0 4.5.5-4.5.5zm126 0q2.8 1.3 1.5 6.5l-3.5 4.5-6 4h-2v-1q7.2-1.8 10.5-7.5v-5zm21 0-.5 1.5v5l2.5 3.5 5.5 3.5-1.5-.5-2-1-1.5.5.5-1.5-3.5-2.5q-1.8-2.2-1-7zm92 0 2.5.5-2.5.5zm28 0 4.5.5-4.5.5zm-358 1 4.5 4.5-.5.5-4.5-4.5zm99 0 8.5.5-8.5.5zm17 0 3.5.5-3.5.5zm218 0 3.5.5-3.5.5zm13 0 8.5.5-8.5.5zm-281 1 .5.5-3.5 3.5-5 3q-1.5-1 1-2zm463 0 1.5 2.5-4.5 5.5-.5-.5 3-3 1-3zm-603 4 4.5 4.5-.5.5-4.5-4.5zm468 1 6.5 3.5-1.5.5-4-2q-2.5-1-1-2Zm52 0q1.5 1-1 2l-5 2v-1zm-393 3 1.5.5-3.5 1.5v-1zm384 1 1.5.5-4.5 1.5v-1zm-205 1 2.5.5-2.5.5zm172 0 6.5 1.5-3.5.5-3-1zm120 0 1.5.5-3.5 2.5h-2v-1q3.5.5 4-2Zm-503 1 3.5.5-3.5.5zm23 0 2.5.5-2.5.5zm386 0 2.5.5-2.5.5zm-404 1 15.5.5-15.5.5zm386 0 15.5.5-15.5.5zm-231 6 1.5.5-2.5 1.5q-1.5-1 1-2Zm92 0 2.5 1.5-1.5-.5q-2.4-.1-1-1Zm221 0 1.5.5-2.5 1.5q-1.5-1 1-2Zm-529 1 2.5 1.5-1.5-.5q-2.4-.1-1-1Zm211 0 1.5.5-2.5 1.5q-1.5-1 1-2Zm102 0 2.5 1.5-1.5-.5q-2.4-.1-1-1Zm211 0 1.5.5-2.5 1.5q-1.5-1 1-2Zm-325 2 1.5.5-2.5 1.5q-1.5-1 1-2Zm313 0 1.5.5-2.5 1.5q-1.5-1 1-2Zm-494 1 2.5.5-2.5.5zm174 0 2.5.5-2.5.5zm139 0 2.5.5-2.5.5zm174 0 2.5.5-2.5.5zm-479 1 2.5.5-2.5.5zm158 0 2.5.5-2.5.5zm155 0 2.5.5-2.5.5zm158 0 2.5.5-2.5.5zm-462 1 3.5.5-3.5.5zm139 0 3.5.5-3.5.5zm174 0 3.5.5-3.5.5zm139 0 3.5.5-3.5.5zm-441 1 4.5.5-4.5.5zm116 0 4.5.5-6.5 1.5v-1zm197 0 4.5.5-4.5.5zm116 0 4.5.5-4.5.5-1 1q-1.5-1 1-2Zm-415 1 6.5.5-6.5.5zm86 0 6.5.5-6.5.5zm227 0 6.5.5-6.5.5zm86 0 6.5.5-6.5.5z" opacity=".863"/><path fill="#f7fbf2" stroke="#f7fbf2" d="m320.5 178 11.5.5-11.5.5zm13 0 3.5.5-3.5.5zm-323 1 7.5.5-7.5.5zm314 1 14.5.5-14.5.5zm-324 1h27l1 1q.8-1.7 4-1 2.5 1 1 2h-9l-1-1-1 1h-16q-1.2-2.3-6-1zm54 4 22.5.5-22.5.5zm274 1 10.5.5-10.5.5zm-276 1 26.5.5-7.5.5-1 1h-17q-2.5-1-1-2Zm4 3 8.5.5-8.5.5zm12 0 8.5.5-8.5.5zm197 4 3.5 1.5-3.5.5zm53 22h10q.5 2.5 4 2 1-2 2 0l4.5.5-20.5.5v-1l10.5-.5-10.5-.5zm-13 1 10.5.5-11 1 7 1-6.5.5-4.5-1.5zm-16 1 4.5.5-4.5.5zm-4 1 2.5.5-2.5.5zm5 1 7.5.5-7.5.5zm36 0 10.5.5-.5 1.5-1-1h-9zm-52 1 6.5.5-6.5.5zm33 0h11l1 1 16.5 1.5-10.5.5-1-1h-6l-1-1h-10zm-19 1 8.5.5-8.5.5zm-23 1 6.5.5-6.5.5zm9 0 5.5.5-5.5.5zm30 0 2 1 11.5.5-13.5.5zm-37 2 4.5.5-4.5.5zm18 0 7.5.5-7.5.5zm-212 1 .5 30.5-2.5.5v-1l1.5-.5zm-2 1 .5 12.5h-1zm462 8 2.5.5-.5 2.5-1-2q-2.4-.1-1-1Z" opacity=".114"/><path fill="#f7fbf2" stroke="#f7fbf2" d="m71.5 243 .5 5.5h-1zm-5 13 3.5.5-3.5.5zm-11 1 8.5.5-8.5.5zm33 0 9.5.5-9.5.5zm-23 1 13.5.5-13.5.5zm-12 1 .5 7.5h-1zm2 0 3.5.5-3 1-.5 8.5zm486 6 2.5.5-2.5.5zm-2 1 4.5 1.5-2 1-.5 1.5-1-2-1 2-16.5-.5 16-1zm-486 2 .5 4.5h-1zm464 2 3.5.5-3.5.5zm-7 1 10.5 1.5-5.5.5-1 1h-6l-1 1h-5v-1l5.5-.5-5-1 4.5-.5 1 1h6v-1h-4zm15 0 5.5.5-5.5.5zm7 0 6.5.5-6.5.5zm-38 2 5.5.5-5.5.5zm-440 1 .5 15.5h-1zm429 0 6.5.5-6.5.5zm-431 1 .5 13.5h-1zm439 0 4.5.5-4.5.5zm6 0 2.5.5-2.5.5zm-16 1h8l2.5 1.5-4.5.5q-1-2-2 0l-7.5-.5zm-12 2 7.5.5-7.5.5zm27 0 9.5.5-9.5.5zm-12 1 7.5.5-7.5.5zm24 0 5.5.5-5.5.5zm8 0 4.5.5-4.5.5zm-19 1 9.5.5-9.5.5zm25 0 5.5.5-5.5.5zm7 0 3.5.5-3.5.5zm-17 1 8.5.5-8.5.5zm23 0 4.5.5-4.5.5zm-9 1 7.5.5-7.5.5zm20 0 4.5.5-4.5.5zm6 0 2.5.5-2.5.5zm32 0 2.5.5-2.5.5zm-46 1 6.5.5-6.5.5zm19 0 5.5.5-5.5.5zm7 0 2.5.5-2.5.5zm4 0 2.5.5-2.5.5zm7 0 7.5.5-7.5.5zm-26 1 6.5.5-6.5.5zm35 0 4.5.5.5 1.5 1.5.5-2 1 2 1-.5 22.5-.5-21.5q-2.4-1.1-2.5-4.5-4 .8-3-1Zm-24 1 5.5.5-5.5.5zm8 0 9.5.5-9.5.5zm24 3 .5 5.5h-1zm-540 2 .5 3.5h-1zm540 6 .5 4.5h-1zm-535 1 7.5.5-7.5.5zm26 0 13.5.5-13.5.5zm42 1 7.5.5-7.5.5zm27 0 10.5.5-10.5.5zm29 0 15.5.5-15.5.5zm-121 1 12.5.5-12.5.5zm15 0 2.5.5-2.5.5zm4 0 29.5.5-29.5.5zm32 0 8.5.5-8.5.5zm114 0 33.5.5-33.5.5zm-97 1 3.5.5-3.5.5zm27 0 5.5.5-5.5.5zm27 0 29.5.5-29.5.5zm31 0 3.5.5-3.5.5zm5 0 2.5.5-2.5.5zm53 0h26l4.5 1.5-4.5.5-1-1h-24l-1.5.5zm-43 1 14.5.5-14.5.5zm17 0 5 1 1-1h18v1h-13l-1 1h-7q-1-2-2 0l-2.5-.5zm31 1 10.5.5-10.5.5zm-48 1 2.5.5-2.5.5zm6 0 5.5.5-5.5.5zm25 0 10.5.5-10.5.5zm333 0 .5 7.5h-1zm-380 1 2.5.5-2.5.5zm6 0 7.5.5-7.5.5zm25 0 10.5.5-10.5.5zm-47 1 2.5.5-2.5.5zm4 0 7.5.5-7.5.5zm27 0 10.5.5-10.5.5zm-46 1 4.5.5-4.5.5zm6 0 6.5.5-6.5.5zm24 0 10.5.5-10.5.5zm-15 1 9.5.5-9.5.5zm-46 1 2.5.5-2.5.5zm30 0 9.5.5-9.5.5zm-31 2 2.5.5-2.5.5zm-43 1 2.5.5-2.5.5zm8 0 2.5.5-2.5.5zm-19 1 8.5.5-8.5.5zm458 0 15.5.5-15.5.5zm-490 1 14.5.5-14.5.5zm20 0 4.5.5-4.5.5zm23 0 8.5.5-8.5.5zm428 0 10.5.5-10.5.5zm37 0 5.5.5-5.5.5zm-480 1 8.5.5-8.5.5zm421 0 13.5.5-13.5.5zm38 0 6.5.5-6.5.5zm12 0 7.5.5-7.5.5zm19 0 4.5.5-4.5.5zm-520 1 1 1 1.5-.5-1.5 1.5q-2.5-1-1-2Zm11 0 12.5.5-12.5.5zm421 0 11.5.5-11.5.5zm37 0 6.5.5-6.5.5zm11 0 3.5.5-3.5.5zm31 0 7.5.5-7.5.5zm-65 1 9.5.5-9.5.5zm14 0 3.5.5-3.5.5zm62 0 3.5.5-3.5.5zm-523 1 .5 5.5h-1zm429 0 6.5.5-6.5.5zm12 0 3.5.5-3.5.5zm-439 4 .5 10.5h-1zm310 0 12.5.5-12.5.5zm-20 1 12.5.5-12.5.5zm-20 1 11.5.5-11.5.5zm37 0 6.5.5-6.5.5zm11 0 3.5.5-3.5.5zm-69 1 13.5.5-13.5.5zm34 0h11l1 1 3-1q3.3-.7 4 1l11.5.5-13.5.5q-1-2-2 0l-2-1q-1 2-2 0h-11zm-43 1 3.5.5-3.5.5zm77 0 3.5.5-3.5.5zm-49 1 19.5.5-19.5.5zm41 1 13.5.5-13.5.5zm149 0 3.5.5-3.5.5zm-460 1 .5 2.5h-1zm465 0 8.5.5-8.5.5zm10 1h7l4.5 1.5-7.5 1.5v-1l3.5-.5-7.5-.5zm-479 1 2.5.5-2.5.5zm475 0 2.5.5-2.5.5zm-482 1 1.5.5-2 1 3 1-2.5.5-3.5-1.5zm3 0 2.5.5-2.5.5zm499 0 2.5.5-2.5.5zm5 0 3.5 1.5-5.5 1.5v-1l2.5-.5zm-500 1 2.5.5-2.5.5zm491 0 2.5.5-2.5.5zm-509 1 3.5.5-4 1 2 1-1.5.5q-1-2-5-1v1l1.5.5-1.5.5-2.5-1.5zm526 0 8 1 2.5 1.5-1.5.5q-1-2-5-1l-2 1v-1l1.5-.5-3.5-.5zm-521 1 2.5.5-2.5.5zm-14 1q1.5 1-1 2l-1.5-.5zm547 0 2.5 1.5-3.5 1.5v-1l1.5-.5zm-568 7 1.5.5-5 3 .5 1.5q-1-2-2 0L1 348.5l.5 1.5-1.5-.5 2.5-3.5zm587 0 1.5.5-2.5 1.5q-1.5-1 1-2Zm4 2q4.8 1.7 7.5 5.5h-3l-.5-2.5-2-1-1.5.5.5-1.5q-2.4-.1-1-1Zm-312 1 21.5.5-21.5.5zm3 2 1 2 12.5.5-12.5.5q-2.4-.9-1-3Z" opacity=".114"/><path fill="#f7fbf2" stroke="#f7fbf2" d="m294.5 347 21.5.5-.5 1.5-1-1h-20zm311 9 2 3 9.5.5-9.5.5q-1-2-2 0l-1.5-.5 2-2zm18 3 3.5.5-3.5.5zm6 0 3.5.5-3.5.5zm-22 2 24.5.5-24.5.5zm31 1q1.5 1-1 2l-3.5-.5zm-632 2 2.5 1.5-1.5-.5q-2.4-.1-1-1Zm313 0 4.5.5-4.5.5zm301 0 5.5.5-5.5.5zm-607 1v2l3.5 1.5-1.5.5-5.5-2.5zm267 0 22.5.5-22.5.5zm46 0v2l3.5 1.5-1.5.5-4.5-2.5zm274 0 11.5.5-11.5.5zm27 0 6.5.5-6.5.5zm11 0v3l-4.5-.5zm-328 1 11.5.5-11.5.5zm303 0 3.5 2.5-1 1 .5 1.5-2.5-2.5.5-1.5q-2.4-.1-1-1Zm-340 1 4.5 1.5-4.5 1.5v-1l1.5-.5-2-1zm6 0 3.5.5-3.5.5zm7 0 3.5.5-3.5.5zm7 0 6.5.5-6.5.5zm303 0 5.5.5-5.5.5zm11 0 3.5.5-3.5.5zm-586 1 1.5.5-2 1 .5 1.5-3.5-1.5zm313 0 1.5.5-2 1 .5 1.5-3.5-1.5zm249 0 4.5 1.5-3.5 1.5v-2q-2.4-.1-1-1Zm-558 1q1.5 1-1 2l-1.5-.5zm242 0 2.5 1.5-1.5.5q-2.5-1-1-2Zm71 0q1.5 1-1 2l-1.5-.5zm242 0 2.5 1.5-1.5.5q-2.5-1-1-2Zm38 0 2.5.5-2.5.5zm-581 3 2.5.5-4.5 1.5v-1zm223 0 2.5.5-3.5 1.5q-1.5-1 1-2Zm313 0 2.5.5-3.5 1.5q-1.5-1 1-2Zm-525 2 2.5.5-2.5.5zm194 0 7.5 1.5-4.5.5-3-1zm313 0 2.5.5-2.5.5zm-512 1 3.5.5-3.5.5zm12 0 2.5.5-3 1 .5 1.5-1-1-6.5-.5 6.5-.5zm301 0 3.5.5-3.5.5zm12 0 2.5.5-3 1 .5 1.5-1-1-5.5-.5 5.5-.5zm191 0 3.5.5-3.5.5zm-321 1 5.5.5-5.5.5-1 1q-1.5-1 1-2Zm138 0 2.5.5-2.5.5zm175 0 5.5.5-5.5.5-1 1q-1.5-1 1-2Zm-493 1q3.3-.7 4 1h7q1-2 5-1v1q-4-1-5 1h-7q-.7-1.7-4-1zm161 0 2.5.5-2.5.5zm13 0 2.5.5-2.5.5zm139 0 11.5 1.5-7.5.5q-.7-1.7-4-1zm13 0 3.5.5-3.5.5zm148 0 2.5.5-2.5.5zm13 0 2.5.5-2.5.5zm-464 1 4.5.5-4.5.5zm127 0 4.5.5-4.5.5zm16 0 6.5.5-6.5.5zm170 0 3.5.5-3.5.5zm127 0 3.5.5-3.5.5zm16 0 6.5.5-6.5.5zm-466 1 8.5.5-8.5.5zm22 0 5.5.5-5.5.5zm101 0 3.5.5-3.5.5zm20 0 7.5.5-7.5.5zm170 0 2.5.5-2.5.5zm4 0 4.5.5-4.5.5zm18 0 5.5.5-5.5.5zm101 0 3.5.5-3.5.5zm20 0 5.5.5-5.5.5zm-446 1 2.5.5-2.5.5zm128 0 3.5.5-3.5.5zm185 0 2.5.5-2.5.5zm128 0 3.5.5-3.5.5z" opacity=".114"/><path fill="#848a83" stroke="#848a83" d="m406.5 312 5.5.5-5.5.5z" opacity=".651"/><path fill="#4f301a" stroke="#4f301a" d="m325.5 205 8.5.5-8.5.5zm-247 15 .5.5-2.5 2.5-.5-.5z" opacity=".031"/><path stroke="#000" d="M.5 0 118 .5l-.5 1.5q-1.2-2.3-2.5.5l1 1-2 2 1 1q-3.5 1.5-1 3l-.5 1.5-1.5.5 1 2-2 2 1 1q-3.5 1.5-1 3l-1 4-2 2 1 2-2 1 1 2q-3.5 1.5-1 3l-.5 1.5-1.5.5 1 2-3 5 1 2-3 5 1 2-2 1 1 2-3 5 1 2-3 5 1 2-2 1 1 2-1 2 1 1-.5 1.5 15 10q1-2 2 0l5 1 2 2 2-1 1 1q4.8-1.2 6 1h8q.8-1.7 4-1l3.5-2.5-1-1q3.5-1.5 1-3l2.5-8.5 1.5-.5-1-2 3-5-1-2 2.5-4.5q1 2 2 0l4 1 2 2 1-1q1.5 3.5 3 1l4 1 2 2 2-1 5 3 2-1 1 2 2-1 2 2q1-2 2 0l1.5.5 1 4 2 2v2l-7.5.5q-1.5-2.5-3 1l-2 1-1.5-.5-3.5 4.5-1.5.5q2 1 0 2l-2 3 1 1v6l-.5 1.5 1.5.5-.5 1.5 2.5 1.5.5 1.5 1-1q1.5 3.5 3 1l2 1 3-2 1.5.5.5-1.5 1.5.5 1.5-2.5 1.5.5.5-1.5 5-2h9l1 2 3.5 2.5 1 2v8l1 3q-2 1 0 2l-.5 3.5q-4.7 1.3-6-1h-10l-1-1h-7l-1 1h-32l-1 1h-31l-1 1h-32l-1 1-6.5.5-.5 64.5-27.5.5 1.5 1.5 26.5.5-.5 30.5-3.5 2.5q.5 3-1.5 3.5l-1.5.5-.5 29.5-1-29-1 29-5.5.5 23 1-22.5.5-1 1-9.5.5v14l-1 1v20l-1 2 4.5 1.5h66l1 1 10.5.5-2 2-3 8-2.5 2.5-2-1q-1.5 3.5-3 1l-3 1h-14l-1 1h-13l-1 1h-27l-1 1-1.5-.5 1 2v12h-1l-.5-12.5-1 13-3.5.5 6 1-5.5.5-1 1h-6l-1 1h-5l-1 1-9 1-12 4h-3l-3 2-7 2-7 5-1.5-1.5v-165l5.5-.5 1 1h27q1.5-1-1-2L0 180.5zM11 179v1h8zm44 6v1h24zm1 5v1h21zm0 67v1h8zm-2 2-1 14h1zm-1 15-1 20h1zm5 25v1h15zm18 0v1h44zm51 1v1h6zm-21 11v1h13zm-14 1v1h12zm-28 1v1h26zm-14 18v1h5zm-6 1v1h5zm-5 1v1h4zm-5 1v1h4zm-4 1v1h3zm-4 1v1h3zm-3 1v1h2zm-4 1v1h2z" opacity=".004"/><path stroke="#000" d="M131.5 0 640 .5l-.5 362.5-1-1q-4.7 1.3-6-1l-30.5-.5 31-1-26-1-.5-1.5-1.5.5q2.2-1.2 1-6l-.5-1.5 1.5.5-2.5-3.5-2 1-5-4h-2l-8-4h-3l-12-4h-4l-6-2h-5l-1-1h-6l-1-1h-6l-1-1-18-1q-1.2-2.2-6-1l-3-2-1 1-2-2-1 1-2-2-1 1q-1.5-3.5-3-1l-1.5-.5-.5-1.5-2 1q-1.5-3.5-3-1l-1.5-.5-.5-1.5-2 1q-1.5-3.5-3-1l-1.5-.5-.5-1.5q-1 2-2 0l-1.5-.5 19-1-19-1 19.5-.5 1-1h19l1-1h19l1-1h24l1 1 16 1 1-4 1 4 1.5-4.5v-22l-2-1 2-1-.5-1.5-1.5.5-.5-1.5q-4-1-5 1h-27l-1-1h-10l-1-1h-10l-1-1-26-1-1-1h-13l-1-1h-14l-1-1-8.5-.5 3.5-2.5q1.2 2.3 6 1l1-1h11l1-1 16-1 1-1h6l1-1q4.8 1.3 6-1l18.5-.5.5-1.5 1 2 1-2 1.5-.5-4-1 4-1 .5-3.5 1 1 3-1 4.5-1.5 1-3-1-3q3.5-1.5 1-3l.5-2.5 4-1q1 2 2 0l4-1 1 1 2-2 1.5.5.5-1.5 2.5-.5 1.5-2.5 2.5-1.5q-2.2-1.2.5-2.5l1.5-.5-1-2 2-3-2-2q2.3-1.2-.5-2.5l-2.5-1.5-.5-1.5q-1.5 2.5-3-1l-1.5-.5 3-2-.5-1.5 1.5-.5-.5-1.5 1.5-.5-1-1q.7-4.2-1-6l2.5-2.5 1 1 4.5-4.5q-2.5-1.5 1-3l.5-2.5 1.5-.5-1-1q1.3-4.7-1-6l.5-1.5-2.5-1.5 1-1-4.5-4.5q-1.2 2.3-2.5-.5l-.5-1.5q-1.5 2.5-3-1l-2.5-1.5q-.6-4.6 2-6l-1-3q2.3-1.3 1-6l2-2q-1.7-.7-1-4 3.5-1.5 1-3l.5-2.5 7 1 3 2 3-1 3 2 3-1q1.3 2.3 6 1l3 2 6.5-5.5-1-1 3-3-.5-1.5 1.5-.5-1-1 2-2-1-1q3.5-1.5 1-3l2-3-1-3 2-3-1-1v-13q2.5-1.5-1-3l1-2-2-1-.5-2.5q-5.3.8-7-2l-3 1q-1.3-2.2-6-1l-2-2-3 1-3-2-3 1q-1.2-2.2-6-1l-2-2-3 1-3-2-3 1q-1.2-2.2-6-1l-2-2-3 1-3-2-3 1q-1.2-2.2-6-1l-4-2q-1 2-5 1l-2.5 2.5q2.5 1.5-1 3l-3 9-2 2 1 2q-3.5 1.5-1 3l-1.5 4.5-12-1-1-1-1 1h-24l-1-1q-4.8.8-7-1l-1 1h-23l-1-1h-7l-1-1-1 1h-23l-1-1h-8l-1 1-17 1q-1-2-2 0-2.8 2.2-9 1-1-2-2 0-2.8 2.2-9 1-1-2-2 0l-2 1h-10l-1 1h-10l-1 1-5.5.5-.5 54.5-23.5-.5-1-4 .5-1.5-1.5-.5.5-1.5-1.5-.5-.5-3.5-1.5-.5q2.3-1.2-.5-2.5l-3.5-2.5-.5-1.5-1.5.5-1.5-2.5-3.5-2.5q2.3-1.2-.5-2.5-4 .5-4.5-2.5l-.5-1.5-1.5.5-.5-1.5q-1 2-2 0h-6l-1-1-1 2-1.5-.5-.5 1.5h-2l-3.5 3.5q2.3 1.3-.5 2.5l-1.5.5.5 1.5-1.5.5q2.3 1.3-.5 2.5l-1.5-.5-3.5 4.5-1.5.5q2.3 1.3-.5 2.5l-1-44q-4.7 1.2-6-1h-10l-1-1h-10l-4.5-1.5q2-1 0-2l-1-5q2-1 0-2-1.7-1.8-1-6l-1-1v-4l1.5.5 3.5-3.5.5-2.5 1.5-.5-1-2 1.5-2.5 1 1 4.5-4.5-.5-1.5 3 2 2-1 5 3 1-1q1.5 3.5 3 1l5.5-3.5-.5-1.5 1.5-.5-1-1q3.5-1.5 1-3l1-3-2.5-3.5-2 1-5-3-2 1-5-3q-1.2 2.3-2.5-.5v-2l3.5-3.5 1.5-.5-1-1v-9l-1-2 .5-1.5-1.5-.5q2.5-1.5-1-3l-1.5-4.5-5.5-4.5-.5-1.5-1.5.5-.5-1.5-1 1q-1.5-3.5-3-1-8-1.5-9.5 3.5l-.5 1.5-1.5.5q2 1 1 5l-6.5.5-1-1-4 4-5.5-1.5-.5-1.5-3 1q-.7-1.7-4-1l-2 1-1.5-.5-.5 1.5q-3-.5-3.5 1.5 2.5 1.5-1 3l-.5 1.5-1.5-.5-.5-1.5-2 1-5-3-2 1-5-3-2 1-5-3-1 1q-1.5-3.5-3-1l-4.5-1.5 1-2-1-2 2.5-7.5 1.5-.5-1-2 3-5-1-2 3-5-1-2 .5-1.5-1.5-.5 1-1-2.5-2.5-3.5-1.5-.5-1.5-1.5.5-.5-1.5-5.5-1.5-.5-1.5q-1 2-2 0-3.5.5-4-2l-1 1q-1.5-3.5-3-1-2.2-1.8-7-1zM270 110l-1 6h1zm16 0-1 7h1zm-15 6-1 9h1zm14 1-1 8h1zm21 0-2 3q1 1 2-1zm-34 8-1 9h1zm12 0-1 8h1zm17 0-2 3q1 1 2-1zm-3 5-2 3q1 1 2-1zm-15 3-1 6h1zm-10 1-1 5h1zm39 1-7 7h1l7-6zm-19 3-2 3q1 1 2-1zm25 40v1h21zm205 93v1h16zm-7 1v1h5zm-7 1v1h6zm-7 1v1h6zm-10 1v1h8zm-11 1-2 1v1h14l-2-2zm14 2v1h12zm14 1v1h12zm14 1v1h11zm13 1v1h9zm11 1v1h9zm38 0v1h4zm-27 1v1h25zm35 5-1 23h1zm-45 26v1h23zm-20 1v1h18zm45 0v1h7zm-65 1v1h18zm73 0v1h7zm-61 11v1h4zm6 1v1h8zm10 1v1h7zm8 1v1h6zm8 1v1h5zm6 1v1h5zm6 1v1h4zm5 1v1h4zm5 1v1h3zm4 1v1h3zm4 1v1h2zm4 1v1h2zm49 22v1h4z" opacity=".004"/><path stroke="#000" d="m525.5 143 5 3 3-1 1 1 4.5.5-.5 1.5-1.5-.5-2.5 3.5-1.5.5q2 1 0 2v2l-2 3 1 2q-2.5 1.5 1 3l-.5 6.5-1.5.5 1 2-2 1 .5 1.5-1.5.5.5 1.5-1.5.5.5 1.5-1.5.5-1.5 2.5-.5-1.5q2-1 0-2v-33l1-1zm24 5 4 2 2-1 .5 3.5-1.5.5-2-2q-1.2 2.3-2.5-.5zm-285 27q2.5 1 1 2l-1.5-.5zm0 4q3-.5 3.5 1.5l-.5 1.5 1.5.5-2 4v3q2.8.7 2 5l-1.5-.5-3 1zm58 7q3.3-.7 4 1l13.5.5-9.5 1.5-1-1-7-1zm-58 10 5.5.5 2.5 3.5 5 1 2 2q.8-1.7 4-1 2.8 1.3.5 2.5l3.5 3.5 1.5-.5.5 1.5 1-1 2 2q1-2 2 0l2-2 9-3q1 2 2 0l2 1q1-2 5-1l1.5-1.5-.5-1.5 3 2 6 1 1 1h8q.8-1.7 4-1l2-2 .5 14.5-5.5.5q-1-2-2 0l-3-1-1 1h-10l-1 1h-12q-1.2 2.2-6 1-1-2-2 0l-15 1-1-3-1 1-6.5.5 7 1-6.5.5-1 1-1-5-1.5 2.5q2.3 1.3-.5 2.5l-6.5-.5zm1.5 1v1h2zm53 19v1h10zm17 0v1h3zm-30 1v1h10zm-16 1v1h6zm10 0v1h5zm-16 1v1h4zm-18 1v1h4zm71.5 0 2.5.5-.5 2.5h-13l-1-1-6.5-.5 16.5-.5 3 1v-1q-2.4-.1-1-1Zm-36 2h16l1 1 5.5.5-17.5.5-3-1-3 2h-16l-1-1-3 1-7.5-.5 6.5-.5 2-1q1 2 2 0h16l1 1zm-37 2 7.5.5-6.5.5-1 1zm263 8q2.5 2 8 1l1.5 1.5-.5 3.5-1-3-10 2v-1l2.5-.5-3-2zm-376 67 12.5.5-12 1 11 1-2 2-1 5-1.5 1.5-1.5-.5-.5 1.5-1-1h-6q-.7 1.8-4 1l.5-1.5q4-4 5.5-10.5Zm-.5 9v1h5zm29.5-9h44l1 1 44.5.5-44 1 16.5.5 1 1h14l1-1h15l1-1h20v1l-35 1-1 1h-15l-1 1h-15l-1 1h-15l-1 1h-15l-1 1h-14q-.8 1.8-4 1l-.5-.5 2-2zm1.5 1v1h40zm46 3v1h14zm-16 1v1h14zm-15 1v1h13zm-16 1v1h13zm204.5 15 2.5.5-2 1q2.3 1.3-.5 2.5l-40-1v1h10l1 1 29.5.5-31.5.5-1-1-43.5-.5 15.5-.5 1-1h18l1-1h19l1-1h19zm-18.5 2v1h17zm-78.5 23 29.5.5q-1.2 2.8-2.5.5h-25l-1 1q-2.5-1-1-2Z" opacity=".004"/><path stroke="#000" d="m291.5 348 22.5.5-22.5.5zm-290 11 5 4 9 4 6 2h3l1 1h3l1 1h3l1 1h3l1 1h5l1 1 11 1 1 1h6l1 1h7l1 1h10l1 1h11l1 1 15.5.5-16.5.5-1-1h-10l-1 1H.5L0 360.5zm9.5 7v1h2zm5 2v1h2zm3 1v1h2zm3 1v1h3zm4 1v1h2zm4 1v1h3zm4 1v1h3zm5 1v1h3zm5 1v1h4zm5 1v1h6zm7 1v1h6zm7 1v1h7zm9 1v1h8zm554.5-15 12.5.5-5 3 4.5.5 1.5-.5q-2 1 0 2l-.5 11.5h-113l-1-1h-11l-1 1h-16v-1h15l1-1h12l1-1 17-1 1-1h6l1-1h6l1-1 14-2 1-1 11-2 7-3h20l3-1v1l-1.5.5.5 1.5q1.5-2.5 3 1l4 1 1-3 1 2 1-2 2.5-.5-8-1 7.5-.5zm1.5 1v1h7zm-35 2v1h19zm-4 1v1h3zm-3 1v1h2zm50 0v1h3zm-54 1v1h3zm-3 1v1h2zm40 0v1h2zm-45 1v1h3zm-4 1v1h3zm-5 1v1h3zm-6 1v1h4zm-7 1v1h5zm-7 1v1h6zm-8 1v1h7zm-10 1v1h8zm-223.5-14h22l9 4h3l9 3h4l1 1h4l1 1h4l1 1h6l1 1h6l1 1h8l1 1h9l1 1h11l1 1 15.5.5-16.5.5-1-1h-10l-1 1h-180l-1-1h-11l-1 1h-16v-1h15l1-1h12l1-1 17-1 1-1h6l1-1h6l1-1h4l6-2h4l1-1 11-2 7-3h24zm2.5 1v1h20zm-27 1v1h23zm-3 1v1h2zm53 0v1h2zm-56 1v1h2zm59 0v1h2zm-63 1v1h3zm66 0v1h3zm-69 1v1h2zm73 0v1h2zm-78 1v1h3zm82 0v1h3zm-86 1v1h3zm90 0v1h3zm-95 1v1h3zm100 0v1h3zm-106 1v1h4zm111 0v1h4zm-118 1v1h5zm124 0v1h5zm-131 1v1h6zm137 0v1h6zm-145 1v1h7zm152 0v1h7zm-162 1v1h8zm171 0v1h8z" opacity=".004"/><path fill="#464545" stroke="#464545" d="m240.5 88 .5.5-2.5 2.5-.5-.5zm-7 10 .5.5-2.5 2.5-.5-.5zm45 53 .5.5-2.5 2.5-.5-.5zm298 33 2.5 2.5-.5.5-2.5-2.5zm-292 20 2.5 2.5-.5.5-2.5-2.5z" opacity=".098"/><path fill="#c4d2c5" stroke="#c4d2c5" d="m65.5 190 2.5.5-2.5.5zm13 123 4.5.5-4.5.5zm298 12 2.5.5-2.5.5zm241 34 5.5.5-5.5.5zm19 1 2.5.5-2.5.5zm-632 2 1 1 1.5-.5-1.5 1.5q-2.5-1-1-2Zm279 5 2.5.5-2.5.5zm-198 13 5.5.5-5.5.5zm27 0 10.5.5-10.5.5zm58 0 12.5.5-12.5.5zm33 0 4.5.5-4.5.5zm195 0 5.5.5-5.5.5zm27 0 10.5.5-10.5.5zm58 0 12.5.5-12.5.5zm33 0 4.5.5-4.5.5z" opacity=".016"/><path fill="#a57528" stroke="#a57528" d="M119.5 2h14q1 2 5 1l17 7 5.5 4.5 1 3-3.5 2.5h-12l-1-1h-4l-1-1h-3l-6-2-10-5-4.5-4.5.5-3.5zm36 44L192 56.5l3 11 2 3-2.5.5-4-2h-3l-18-6h-3l-7-3h-3l-4.5-2.5zm79 23 21.5 6.5q-3.7 3.8-4 11l.5 1.5-14-5-7.5-1.5 3-6zm24 7 1.5.5 1 4-2 5-3.5 3.5q-2.5-1-1.5-5.5l2-5zm277 21q3-.5 3.5 1.5l2 5v14l-1 1v5l-1 1v3l-2 6-3 6-3.5 3.5q-3 .5-3.5-1.5l-2-6v-11l1-1v-6l1-1 1-7 3-7zm22 53 12.5 2.5-6.5 35.5q-3.2.8-4-1h-6l-1-1-1.5.5 1-3v-6l2-5v-5l1-1v-5l1-1v-5l1-1zm-16 95 11.5 3.5-1.5 7.5-5-3h-6l-1.5.5q1.7-1.8 1-6z" opacity=".992"/><path fill="#a57528" stroke="#a57528" d="M540.5 255h6l4.5 2.5-.5 2.5h-9l-2.5-1.5q-.5-3 1.5-3.5Z" opacity=".992"/><path fill="#e8efe4" stroke="#e8efe4" d="m317.5 180 6.5.5-6.5.5zm15 3 2.5.5-2.5.5zm-10 2 4.5.5-4.5.5zm-251 3 7.5.5-7.5.5zm241 31 5.5.5-5.5.5zm10 0 9.5.5-5.5.5-1 1h-6v-1zm-21 1q4.1-.6 5.5 1.5l-5.5.5zm-18 1 4.5.5-.5 1.5q-4.6.8-4-2Zm-18 1 5.5.5-5.5.5zm71 1 2.5.5-2.5.5zm-18 1 6.5.5-6.5.5zm-43 1 6.5.5-6.5.5zm18 0 7.5.5-7.5.5zm-219 31 22.5.5-22.5.5zm5 2 6.5.5-6.5.5zm-20 1 6.5.5-6.5.5zm240 3 33.5.5-33.5.5zm244 0 .5 2.5h-1zm-479 1h33l1 1 12.5.5-12.5.5-1-1h-32l-1 1h-8v-1h7zm175 0 58.5.5-56.5.5-1 1h-7v-1q4.8 1.3 6-1Zm-184 6 .5 9.5h-1zm445 3 2.5.5-2.5.5zm-10 1 3.5.5-3.5.5zm-12 1 4.5.5-4.5.5zm-1 5 6.5.5-6.5.5zm15 1 4.5.5-4.5.5zm14 1 5.5.5-5.5.5zm14 1 5.5.5-5.5.5zm13 1 4.5.5-4.5.5zm12 1 3.5.5-3.5.5zm-327 1 2.5.5-2.5.5zm337 0 4.5.5-4.5.5zm23 0 6.5.5-6.5.5zm-321 1 6.5.5-6.5.5zm30 1 3.5.5-3.5.5zm-92 2 2.5.5-2.5.5zm-141 1 .5 4.5h-1zm336 4 2.5.5-2.5.5zm-325 3 17.5.5-17.5.5zm32 0 32.5.5-32.5.5zm198 0 2.5.5-2.5.5zm-98 1 32.5.5-32.5.5zm115 0 2.5.5-2.5.5zm-53 1 13.5.5-13.5.5zm71 0 2.5.5-2.5.5zm-32 1 14.5.5q-3 3-10.5 1.5-.7-1.7-4-1zm-11 2 5.5.5-5.5.5zm-17 1 6.5.5-6.5.5zm-16 1 5.5.5-5.5.5zm-16 1 5.5.5-5.5.5zm-16 1 5.5.5-5.5.5zm-16 1 5.5.5-5.5.5zm-16 1 6.5.5-6.5.5zm-14 1 5.5.5-5.5.5zm412 1 1.5.5-2 1q.5 3-1.5 3.5l.5-1.5q-.5-3 1.5-3.5Zm-443 1 4.5.5-4.5.5zm400 1 7.5.5-7.5.5zm24 0 2.5.5-2.5.5zm-454 1 5.5.5-5.5.5zm409 0 9.5.5-9.5.5zm53 0 3.5.5-3.5.5zm-477 1 5.5.5-5.5.5zm156 0 2.5.5-2.5.5zm248 0 7.5.5-7.5.5zm-440 1 7.5.5-7.5.5-1.5 1.5-.5 1.5-.5-1.5zm21 0 6.5.5-6.5.5zm154 0 2.5.5-2.5.5zm247 0 6.5.5-6.5.5zm-248 2 2.5.5-2.5.5zm10 0 2.5.5-2.5.5zm136 3 3.5.5-3.5.5zm-21 1 8.5.5-8.5.5zm-20 1 8.5.5-8.5.5zm-19 1 7.5.5-7.5.5zm-22 1 8.5.5-8.5.5-1 1h-7v-1h7zm10 2 17.5.5-17.5.5zm38 1 20.5.5-20.5.5zm-84 1 4.5.5-4.5.5zm6 0 2.5.5-2.5.5zm40 0 2.5.5-2.5.5zm213 2 5.5.5-5.5.5zm10 1 3.5.5-3.5.5zm-476 1 2.5.5-2.5.5zm485 0 2.5.5-2.5.5zm-492 1 2.5.5-2.5.5zm499 0 2.5.5-2.5.5zm-505 1 2.5.5-2.5.5zm511 0 2.5.5-2.5.5zm-517 1 2.5.5-2.5.5zm523 0 2.5.5-2.5.5zm-528 1 2.5.5-2.5.5zm533 0 2.5.5-2.5.5zm-284 8 1.5.5 1 2-.5.5-2.5-2.5zm25 1 10.5.5-.5 1.5-1-1h-9zm-305 2 .5.5-3.5 3.5-.5-.5zm284 0 2.5 2.5-.5.5-2.5-2.5zm16 2 10.5.5-10.5.5zm298 10v2l4.5.5-6.5.5-.5-.5zm32 3q4.1-.6 5.5 1.5l-.5 3.5-1.5-.5 1-2q-.7-2.2-4.5-1.5l-1 1h-9v-1h9zm-335 2 19.5.5-19.5.5zm311 0 5.5.5-.5 2.5-1-2h-4zm8 0 1.5.5-2 1 3 2-.5 1.5-1-2-2.5-1.5zm-26 1 7.5.5-7.5.5zm-562 5 2.5.5-2.5.5zm313 0 2.5.5-2.5.5zm-298 3 2.5.5-2.5.5zm200 0 2.5.5-2.5.5zm113 0 2.5.5-2.5.5zm200 0 2.5.5-2.5.5zm-507 1 2.5.5-2.5.5zm188 0 2.5.5-2.5.5zm125 0 2.5.5-2.5.5zm188 0 2.5.5-2.5.5zm-494 1 3.5.5-3.5.5zm174 0 2.5.5-2.5.5zm139 0 3.5.5-3.5.5zm173 0 3.5.5-3.5.5zm-479 1 4.5.5-4.5.5zm158 0 3.5.5-3.5.5zm156 0 3.5.5-3.5.5zm157 0 3.5.5-3.5.5zm-461 1 4.5.5-4.5.5zm138 0 5.5.5-5.5.5zm175 0 4.5.5-4.5.5zm138 0 5.5.5-5.5.5zm-440 1 5.5.5-5.5.5zm116 0 5.5.5-5.5.5zm196 0 6.5.5-6.5.5zm117 0 5.5.5-5.5.5zm-416 1 8.5.5-8.5.5zm86 0 8.5.5-8.5.5zm227 0 8.5.5-8.5.5zm86 0 6.5.5-6.5.5zm-375 1 9.5.5-9.5.5zm37 0 9.5.5-9.5.5zm276 0 9.5.5-9.5.5zm37 0 9.5.5-9.5.5z" opacity=".584"/><path fill="#636664" stroke="#636664" d="m237.5 67 4.5.5-1.5 2.5-1-2q-3 .5-2-1Zm-27 19 2.5.5-2.5.5zm30 0 .5.5-3.5 3.5-.5-.5zm39 66 .5.5-2.5 2.5-.5-.5zm245 30 2.5 1.5-1.5-.5q-2.4-.1-1-1Zm-221 1 1.5.5-.5 1.5q-2.5-1-1-2Zm-32 13 2.5 2.5-.5.5-2.5-2.5zm14 7 2.5 2.5-.5.5-2.5-2.5zm-152 5 .5 4.5h-1zm422 5 4.5.5-4.5.5-1 1q-1.5-1 1-2Zm-14 12q2.5 1 1 2l-1-1-1.5.5zm-277 1 .5 28.5h-1zm269 6 3.5.5-3.5.5zm-454 6 .5 7.5h-1zm80 26 3.5.5-3.5.5zm-4 1q3-.5 3.5 1.5l-1.5-.5q-3 .5-2-1Zm273 50 .5 1.5q-1 2.5-2 1zm-6 3 1.5.5q-1 2.5-2 1zm7 0-.5 1.5 2 2-.5 1.5-2-3-2 2-.5-.5zm-258 3 1.5 2.5h-1zm-15 1 1.5.5-2.5 1.5q-1.5-1 1-2Zm4 2 6.5.5-6.5.5zm277 0 7.5.5-7.5.5zm-268 1q2.5 1 1 2l-1-1-1.5.5zm-39 1 2.5.5-2.5.5zm335 0 2.5.5-2.5.5zm6 0 2.5.5-2.5.5zm21 1 2.5.5-2.5.5zm-38 5 .5 2.5h-1zm74 12 .5 2.5h-1zm-451 6 3.5 3.5-.5.5-3.5-3.5zm29 12 5.5.5-5.5.5zm386 0 5.5.5-5.5.5z" opacity=".969"/><path fill="#adc2af" stroke="#adc2af" d="m339.5 181 .5 4.5h-1zm0 42 .5 32.5h-1z" opacity=".843"/><path fill="#8db28c" stroke="#8db28c" d="m71.5 240 .5 2.5h-1zM.5 358l1.5 2.5q-1 1.5-2-1z" opacity=".016"/></svg>