<svg xmlns="http://www.w3.org/2000/svg" viewBox="0 0 640 586"><path fill="#369720" stroke="#369720" d="m537.5 8 .5.5-2.5 2.5-.5-.5zm-4 3 .5.5L517.5 28l-.5-.5zm3 3 .5.5L520.5 31l-.5-.5zm-20 15 .5.5-8 8-5.5 6.5-.5-.5 5-5zm3 3 .5.5-8 8-5.5 6.5-.5-.5 5-5zm-17 13 .5.5-4 4-3.5 4.5-.5-.5 3-3zm3 3 .5.5-4 4-3.5 4.5-.5-.5 3-3zm-11 7 .5.5-3 3-5.5 7.5-.5-.5 2-2zm3 3 .5.5-3 3-5.5 7.5-.5-.5 2-2zm-12 9 .5.5-2 2-2.5 3.5-.5-.5 2-2zm3 3 .5.5-2 2-9.5 14.5.5-1.5zm-14 13-.5 1.5-3.5 5.5.5-1.5zm-5 8-.5 1.5-1.5 2.5.5-1.5zm5 0-.5 1.5-1.5 2.5.5-1.5zm-8 5-.5 1.5-2.5 4.5.5-1.5zm5 0-.5 1.5-2.5 4.5.5-1.5zm-10 9-.5 1.5-8.5 18.5-.5-2.5zm5 0-.5 1.5-5.5 10.5.5-1.5zm-7 13 .5 1.5-3.5 5.5.5-1.5zm-47 216 30.5.5-30.5.5zm-12 1 6.5.5-6.5.5zm47 0 6.5.5-6.5.5zm-52 1 2.5.5-2.5.5zm61 0 2.5 1.5-1.5-.5q-2.4-.1-1-1Zm3 3 .5 3.5h-1zm-68 1 .5 3.5h-1zm-182 1 33.5.5-33.5.5zm-11 1 7.5.5-7.5.5zm48 0 7.5.5-7.5.5zm-52 1 2.5.5-2.5.5zm61 0 2.5 1.5-1.5-.5q-2.4-.1-1-1Zm3 3 .5 3.5h-1zm132 0 .5 38.5h-1zm70 0 .5 9.5h-1zm-270 1 .5 3.5h-1zm69 5 .5 9.5h-1zm-70 1 .5 38.5h-1zm272 8 .5 27.5h-1zm-201 7 .5 28.5h-1zm131 21 .5 6.5h-1zm69 4 .5 6.5h-1zm-270 2 .5 7.5h-1zm202 3 .5 3.5 2 2-.5.5-2.5-2.5zm-133 2 .5 6.5h-1zm200 1 .5.5-2.5 2.5-2.5-.5q3.4-.1 4.5-2.5Zm-63 3 4.5.5-4.5.5zm50 0 6.5.5-6.5.5zm-255 1 .5 2.5h-1zm214 0 36.5.5-36.5.5zm-147 3 .5.5-2.5 2.5-2.5-.5q3.4-.1 4.5-2.5Zm-63 3 5.5.5-5.5.5zm49 0 7.5.5-7.5.5zm-38 1 32.5.5-32.5.5zm117 75 16.5.5-16.5.5zm-39 1 23.5.5-23.5.5zm70 0 21.5.5-21.5.5zm-84 1 9.5.5-9.5.5zm109 0 7.5.5-7.5.5zm-118 1 5.5.5-5.5.5zm128 0 3.5 2.5-.5.5-2-2q-2.4-.1-1-1Zm-132 1 2.5.5-2.5.5zm-2 1 .5.5-2 2-1.5 4.5-.5-2.5zm139 5 .5 2.5h-1zm-143 3 .5 3.5h-1zm144 2 .5 4.5h-1zm-145 3 .5 7.5h-1zm146 4 .5 9.5h-1zm-147 8 .5 26.5h-1zm148 6 .5 39.5h-1zm-147 26 .5 10.5h-1zm1 14 .5 5.5h-1zm145 3 .5 5.5h-1zm-144 4 .5 4.5h-1zm143 4 .5 2.5h-1zm-142 2 .5 2.5h-1zm1 4 1.5 2.5q-1 1.5-2-1z" opacity=".996"/><path fill="#4fa03b" stroke="#4fa03b" d="m545.5 0 3.5.5-3 9-1 7-1 1v4l-1 1v4l-2 6v4l-1 1v4l-2 6v4l-2 5v4l-1 1v3l-1 1-3 15-3 7v3l-2 6-7 15v2l-5 9q-5.1 8.4-12.5 14.5l-12 6h-14l-6-2-16-9-15.5-14.5-5-7-4-10q1-4-1-5v-9l1-1v-4l2-6 5-10q9.1-13.4 21.5-23.5l21-15 24-13h2l5-3h2l3-2h2l3-2 9-3h3l9-3h4zM538 8l-3 4-3 3-1-1-11 11 1 1-4 3-8 8 1 1-1-1-1 2-5 5 1 1h-1l-4 4 1 1-1-1-1 2-3 3 1 1h-1l-3 3 1 1-1-1-1 2q-4 1-1 3l-1-1-1 2q-4 1-1 3h-1l-3 4q-4 1-1 3h-1q-3 1-1 3h-1q-3 1-1 3h-1q-3 1-1 3h-1l-2 3q-2 1 0 2l-1-1-1 2q-2 1 0 2h-1l-2 3q-2 1 0 2h-1v2l-1-1-2 4q-2 1 0 2h-1v2h-1v2l-1-1-9 17v2h2l1 2v-1l2-1 2-3-1-2h2l-1-2 2-1-1-1h2l-1-2h2l3-7q2-1 0-2l2-1-1-1 2-1 2-4q2-1 0-2l2-1 1-2q2-1 0-2l2-1q2-1 0-2l2-1 1-2q2-1 0-2h2v-1q2-1 0-2h2v-1q2-1 0-2h2l2-4q3-2 1-3l2-1 2-3q3-2 1-3h2v-1l3-3-1-1 2-1 2-2-1-1h2v-1l3-3-1-1 3-2 4-4-1-1h2v-1l6-6-1-1 4-3 18-19zM316.5 84h9q1.3 2.2 6 1l1 1h3l12 4 5 3h2l30 15 35 21 42 28 42 30 15 12 4 2 65 50 49.5 40.5-.5 1.5h-13l-1 1h-44l-1 1h-42l-1 1-12.5.5 1 2v10l1 1v10l1 1v10l1 1v11l1 1v11l1 1v13l1 1v12l1 1v14l1 1v15l1 1v16l1 1v21l1 1v35l1 1v22l-1 1v23l-1 1v9q-2.3 1.3-1 6l-1 1-1 7q-1.7 4.8-5.5 7.5l-8 3-7 1-1 1-10 1-1 1h-6l-1 1h-6l-1 1-18 1-1 1h-10l-1 1h-11l-1 1-31 1-1 1h-16v-1l1.5-.5-1-2 2-1-1-4 2-1v-5l-1-3 2-1-.5-39.5-1.5-.5q-.7-3.2 1-4v-9l-2-1q1.7-1.8 1-6l-2-1 1-4-2-1 1-2-2-1 1-1-2.5-2.5-3 1-1-2h-7l-3 1-1-2h-21l-1 1h-12l-2-2h-16l-2 2h-13l-1-1h-23l-1 2q-3.2.8-4-1h-9l-3 2q-1.3-2.2-6-1l-1 2-3-1-1 2-1-1-2.5 2.5-1 4 .5 1.5-1.5.5q-.7 3.2 1 4l-2 1v7q1.7.8 1 4l-2 1 .5 26.5 1.5.5q1 4-1 5v10l2 1-1 3v5l2 1q-2 1-1 5l2 1-1 3 2 1-1 2 3 2-20.5.5-1-1h-32l-1-1h-17l-1-1h-12l-1-1h-9l-1-1h-7l-1-1h-6l-1-1-7-1-5-2-2.5-2.5-3-8-1-9-1-1-1-17-1-1v-14l-1-1v-27l-1-1v-62l1-1v-43l1-1v-29l1-1v-24l1-1v-20q2-1 1-5l-39.5-.5-1 1h-45l-1 1h-39l-.5-.5 4.5-4.5 69-58 41-33 36-28 53-39 31-21 3-1 8-6 20-11 2-2 24-12h2l3-2 12-4q4.7 1.2 6-1ZM413 334l-2 2q-4 1-4-1-7-1-8 2l-3-1-1 2-1-1q-3 1-1 3l-2 1 1 5h-1l-1 39 2 1q1 3-1 4v6l2 1-1 5 3 2 1-1 1 2 8-1v2h37l1-2q3-1 4 1h6l1-2 4 1 2-2-1-1 2-1v-6l-1-1q0-4 2-4v-27l-2-1q-1-5 1-5v-9l-2-2 1-5-1-1v-1l-1-2-3 1-1-2h-6q-1 2-4 1l-1-1zm-203 7-1 2-3-1h-7l-1 2-3-1-1 2-1-1q-3 1-1 3l-2 1 1 5h-1l-1 39 2 1-1 3v7l2 1-1 4h2l-1 2q1 2 3 0l1 2q4 1 6-1 4-1 5 2h32l1-2q3-1 5 1h7l1-2 4 1 2-2-1-1 2-1v-6l-1-3 2-1v-28l-2-2q-1-5 1-5v-9l-2-1 1-5-1-1v-1l-1-2-2 1-1-2h-7l-3 1-1-1z" opacity=".996"/><path fill="#70b660" stroke="#70b660" d="m530.5 15 .5.5-9.5 9.5-.5-.5zm-119 320 5.5.5-5.5.5zm26 0 5.5.5-5.5.5zm-228 7 3.5.5-3.5.5zm29 0 4.5.5-4.5.5zm221 3 .5 2.5h-1zm-269 8 .5 2.5h-1zm270 8 .5 7.5h-1zm-201 6 .5 7.5h-1zm132 14 .5 3.5h-1zm69 2 .5 6.5h-1zm-270 5 .5 3.5h-1zm69 3 .5 5.5h-1zm146 13 3.5.5-3.5.5zm32 0 4.5.5-4.5.5zm-232 7 4.5.5-4.5.5zm29 0 4.5.5-4.5.5zm88 77 18.5.5-18.5.5zm-38 1 4.5.5-4.5.5zm88 0 3.5.5-3.5.5zm-103 1 2.5.5-2.5.5zm126 19 .5 2.5h-1zm-145 8 .5 4.5h-1zm146 6 .5 3.5h-1zm-146 15 .5 5.5h-1zm1 19 .5 2.5h-1zm145 2 .5 3.5h-1z"/><path fill="#9bcb8e" stroke="#9bcb8e" d="m532.5 17 .5.5-7.5 7.5-.5-.5zm-115 318 19.5.5-19.5.5zm-204 7 5.5.5-5.5.5zm20 0 4.5.5-4.5.5zm227 27 .5 13.5h-1zm-201 6 .5 15.5h-1zm132 3 .5 2.5h-1zm-201 7 .5 2.5h-1zm219 19 4.5.5-4.5.5zm23 0 4.5.5-4.5.5zm-222 7 5.5.5-5.5.5zm18 0 5.5.5-5.5.5zm61 78 2.5.5-2.5.5zm80 0 2.5.5-2.5.5zm-119 33 .5 15.5h-1zm146 5 .5 3.5h-1zm0 29 .5 2.5h-1z" opacity=".996"/><path fill="#d2e8cd" stroke="#d2e8cd" d="m536.5 10 .5.5-2.5 2.5-.5-.5zm-18 18 .5.5-2.5 2.5-.5-.5zm-59 323 .5 3.5h-1zm-68 3 .5 19.5h-1zm-133 4 .5 2.5h-1zm-68 3 .5 18.5h-1zm202 28 .5 2.5h-1zm-201 7 .5 2.5h-1zm255 7 2.5.5-2.5.5zm-149 86 6.5.5-6.5.5zm62 0 5.5.5-5.5.5zm-83 1 2.5.5-2.5.5zm104 0 2.5.5-2.5.5zm15 25 .5 2.5h-1zm1 21 .5 13.5h-1zm-145 14 .5 3.5h-1z"/><path fill="#fefefe" stroke="#fefefe" d="m537.5 10 1.5.5-1.5 2.5L519 30.5l-19 22-17 23-15 24-13.5 25.5-.5-2.5 14-27 16-25 26-33L533.5 13zm-131 326h41l1 1h7l2.5 1.5q-1 4 1 5v11l1 1v38l-1 1v6l-1.5 1.5-3 1h-8l-1 1h-44q-1.2-2.2-6-1l-1.5-1.5q.8-3.2-1-4v-8l-1-1v-45q1.8-.7 1-4l1.5-1.5q3.3.8 4-1h7zm-201 7h42l1 1h6l2.5 1.5q-1 4 1 5v10l1 1v39l-1 1v6l-1.5 1.5-3 1h-8l-1 1h-43l-1-1h-6l-1.5-1.5q.7-3.2-1-4v-8l-1-1v-45q1.8-.7 1-4l1.5-1.5 3-1h8zm99 146h54l1 1h20l1 1h8l3.5 2.5 1 6 1 1v6l1 1v10l1 1v47l-1 1v7q-1.7.8-1 4l-2.5 4.5q-2.5 2-8 1l-1 1h-11l-1 1h-22l-1 1h-68l-1-1h-15l-7.5-2.5-1-6-1-1v-4l-1-1v-7l-1-1v-12l-1-1v-37l1-1v-8q1.7-.7 1-4l3.5-6.5q3.3.8 4-1h6l1-1h11l1-1h24z" opacity=".996"/><path fill="#53b23b" stroke="#53b23b" d="m453.5 45 .5.5-9.5 9.5-.5-.5zm-140 39 2.5.5-2.5.5zm13 0 2.5.5-2.5.5zm115 37 3.5 3.5-.5.5-3.5-3.5zm8 7 2.5 2.5-.5.5-2.5-2.5zm29 15 8.5.5-8.5.5zm-355 62 .5.5-2.5 2.5-.5-.5zm-35 28 .5.5-2.5 2.5-.5-.5zm-22 18 .5.5-2.5 2.5-.5-.5zm-6 5 .5.5-2.5 2.5-.5-.5zm-6 5 .5.5-2.5 2.5-.5-.5zm-6 5 .5.5-2.5 2.5-.5-.5zm-6 5 .5.5-2.5 2.5-.5-.5zm-6 5 .5.5-2.5 2.5-.5-.5zm589 5 2.5 2.5-.5.5-2.5-2.5zm-596 1 .5.5-2.5 2.5-.5-.5zm-6 5 .5.5-2.5 2.5-.5-.5zm613 3 2.5 3.5-15.5.5v-1l14.5-.5-2-2zm-620 3 .5.5-2.5 2.5-.5-.5zm562 1 19.5.5-19.5.5zm-43 1 17.5.5-17.5.5zm-526 4 .5.5-2.5 2.5-.5-.5zm514 5 .5 4.5h-1zm-521 1v2l14.5.5-16.5.5-.5-.5zm86 0 19.5.5-19.5.5zm39 0 .5 4.5h-1zm-85 1 19.5.5-19.5.5zm482 9 .5 4.5h-1zm-398 8 .5 7.5h-1zm399 3 .5 4.5h-1zm1 12 .5 4.5h-1zm-401 8 .5 9.5h-1zm402 4 .5 4.5h-1zm1 13 .5 5.5h-1zm-404 10 .5 12.5h-1zm405 4 .5 4.5h-1zm1 14 .5 5.5h-1zm1 15 .5 6.5h-1zm-408 2 .5 21.5h-1zm409 15 .5 6.5h-1zm1 20 .5 8.5h-1zm1 26 .5 18.5h-1zm-411 24 .5 13.5h-1zm411 18 .5 13.5h-1zm-410 10 .5 6.5h-1zm409 14 .5 3.5h-1zm-408 1 .5 4.5h-1zm1 10 .5 3.5h-1zm401 17 .5.5-2.5 2.5-.5-.5zm-29 9 2.5.5-2.5.5zm-7 1 2.5.5-2.5.5zm-7 1 2.5.5-2.5.5zm-9 1 3.5.5-3.5.5zm-10 1 3.5.5-3.5.5zm-11 1 4.5.5-4.5.5zm-303 1 2.5.5-2.5.5zm291 0 4.5.5-4.5.5zm-284 1 3.5.5-3.5.5zm269 0 5.5.5-5.5.5zm-260 1 4.5.5-4.5.5zm243 0 7.5.5-7.5.5zm-231 1 5.5.5-5.5.5zm214 0 5.5.5-5.5.5zm-198 1 7.5.5-7.5.5zm24 1 16.5.5-16.5.5z" opacity=".576"/><path fill="#b8dbb1" stroke="#b8dbb1" d="m524.5 25 .5.5-3.5 3.5-.5-.5zm-305 317 13.5.5-13.5.5zm172 8 .5 3.5h-1zm-201 8 .5 2.5h-1zm201 16 .5 3.5h-1zm-201 6 .5 4.5h-1zm224 24 17.5.5-17.5.5zm-198 7 11.5.5-11.5.5zm76 78 4.5.5-4.5.5zm73 0 3.5.5-3.5.5zm31 42 .5 4.5h-1zm0 19 .5 5.5h-1z"/><path fill="#85979a" stroke="#85979a" d="m449.5 47 .5.5-3.5 3.5-.5-.5zm-422 262 .5 27.5h-1z" opacity=".004"/><path fill="#55b33c" stroke="#55b33c" d="m544.5 19 .5 2.5h-1zm-88 23 .5.5-2.5 2.5-.5-.5zm-13 13 .5.5-2.5 2.5-.5-.5zm-126 28 6.5.5-6.5.5zm110 5 .5 6.5h-1zm11 30 2.5 2.5-.5.5-2.5-2.5zm7 7 3.5 3.5-.5.5-3.5-3.5zm64 4 .5.5-7.5 7.5-.5-.5zm-424 106 .5.5-2.5 2.5-.5-.5zm493 8 2.5 2.5-.5.5-2.5-2.5zm-504 1 .5.5-2.5 2.5-.5-.5zm-11 9 .5.5-2.5 2.5-.5-.5zm-6 5 .5.5-2.5 2.5-.5-.5zm540 0 2.5 2.5-.5.5-2.5-2.5zm5 4 2.5 2.5-.5.5-2.5-2.5zm-551 1 .5.5-2.5 2.5-.5-.5zm556 3 2.5 2.5-.5.5-2.5-2.5zm-562 2 .5.5-2.5 2.5-.5-.5zm567 2 2.5 2.5-.5.5-2.5-2.5zm-573 3 .5.5-2.5 2.5-.5-.5zm-7 6 .5.5-2.5 2.5-.5-.5zm-6 5 .5.5-2.5 2.5-.5-.5zm-7 6 .5.5-2.5 2.5-.5-.5zm579 4 18.5.5-18.5.5zm-585 1 .5.5-3.5 3.5-.5-.5zm540 0 16.5.5-16.5.5zm-30 1 5.5.5-5.5.5zm0 4 .5 3.5h-1zm-518 2 .5.5-2.5 2.5-.5-.5zm103 3 17.5.5-17.5.5zm-46 1 18.5.5-18.5.5zm-45 1 17.5.5-17.5.5zm507 3 .5 4.5h-1zm-398 4 .5 8.5h-1zm399 8 .5 3.5h-1zm1 10 .5 5.5h-1zm-401 4 .5 9.5h-1zm402 10 .5 3.5h-1zm1 11 .5 5.5h-1zm-404 3 .5 12.5h-1zm405 10 .5 6.5h-1zm1 16 .5 4.5h-1zm-407 5 .5 16.5h-1zm408 8 .5 6.5h-1zm1 16 .5 7.5h-1zm1 18 .5 9.5h-1zm-411 8 .5 2.5h-1zm0 4 .5 2.5h-1zm0 4 .5 30.5h-1zm412 9 .5 10.5h-1zm-411 49 .5 9.5h-1zm411 18 .5 6.5h-1zm-410 3 .5 5.5h-1zm409 11 .5 3.5h-1zm-408 2 .5 2.5h-1zm407 6 .5 2.5h-1zm-406 3 .5 2.5h-1zm368 23 2.5.5-2.5.5zm-7 1 2.5.5-2.5.5zm-8 1 3.5.5-3.5.5zm-10 1 4.5.5-4.5.5zm-10 1 4.5.5-4.5.5zm-311 1 2.5.5-2.5.5zm299 0 4.5.5-4.5.5zm-292 1 2.5.5-2.5.5zm278 0 6.5.5-6.5.5zm-270 1 3.5.5-3.5.5zm255 0 6.5.5-6.5.5zm-245 1 5.5.5-5.5.5zm226 0 8.5.5-8.5.5zm-211 1 6.5.5-6.5.5zm19 1 11.5.5-11.5.5zm38 1 11.5.5-11.5.5z" opacity=".251"/><path fill="#9dfe9c" stroke="#9dfe9c" d="m117.5 307 1.5.5-.5 1.5-1.5-.5zm390 266 .5 2.5h-1z" opacity=".008"/><path fill="#fefffe" stroke="#fefffe" d="m390.5 582 20.5.5-18 1 247 1-.5 1.5-291.5-.5 22.5-.5 1-1h11l1-1h6zm-130 2 2.5.5-2.5.5zm7 1 11.5.5-11.5.5z" opacity=".016"/></svg>