<svg xmlns="http://www.w3.org/2000/svg" viewBox="0 0 640 466"><path fill="#020101" stroke="#020101" d="m612.5 1 9.5.5-1.5 1.5h-9l-1 1-18 1-1 1h-8l-1 1h-9l-1 1h-9l-1 1-19 1-1 1h-10l-1 1h-9l-1 1h-9l-1 1h-9l-1 1-19 1-1 1h-9l-1 1h-9l-1 1-19 1-1 1h-9l-1 1h-9q-1.3 2.3-6 1l-1.5 1.5v7l-1 1v7q-2 1-1 5l10 19 2 2 4 9 2 2 5 11 4.5 5.5 2.5-.5.5-41.5 1.5.5.5 52.5 4.5-4.5 1-9-1-1v-11l1-1v-7l-1-1v-15l-1-3 1.5.5 1.5.5.5 14.5q4.6-8.9 12-15l3-2 .5.5-6 6-7 10-2 6v5l-1 1v7l1.5 3.5L470 69.5l.5-21.5 6-1 1.5 1.5 7 21v3l1 1-1 1v6l-1 1v6l-1 1q.5 2 3.5 1.5l1-1h11l1-1h10l1-1h11l1-1h11l1-1h11l1-1 22-1 1-1h10l1-1h13l1-1h11l1-1h12l1-1h12l2-1q2.5 1 1 2-4-1-5 1h-10l-1 1h-11l-1 1h-10l-1 1h-10l-1 1h-10l-1 1-22 1-1 1h-10l-1 1-22 1-1 1h-10l-1 1h-11l-1 1h-9l-1.5 1.5-2 14 2 3v16l-1 3 1 3-2 6-2.5 2.5-1.5.5 1 3v14l-3 7 1 1v12l-3 9v16l-1 1v4l-2 5 1 1v10l-1 1v7l-2 5 4.5 1.5 3.5 3.5 1 2-1 1-1 20-2.5 2.5-10-4h-4l-1 4-3.5 2.5-21 24-4 10v10l1.5.5 25-28 .5 1.5-1.5 2.5-1.5.5-5 7-19 21-5 14v7l1.5 1.5 2.5-2.5 19-21 4-5 1.5-4.5.5 8.5-1.5-.5-1.5.5-8 10-18 19-2.5 4.5-.5-2.5 3-4-2-3v-9l1-1 1-6 4-8-1-1-1-7 1-1 1-8 4-8q-3.6-2.9-2-11l1-1 1-6 4-7-1.5-3.5-3.5.5-.5 3.5-.5-4.5-1-1v-15l1-1v-7l1.5-1.5 4.5-1.5v-7l1-1 1-6 2-3v-4l-1-1v-9l1-1 1-6 3-5v-2l-2-4v-12l4-9-3-7v-6l1-1 1-7 2-3-6-9v-14l1-1 1-22-3.5-.5-4.5-4.5-4-9-2-2-4-9-8-13-7-14v-3l1-1 1-15q1.8-.7 1-4l1.5-1.5 19-1 1-1 19-1 1-1h10l1-1h9l1-1h10l1-1h9l1-1h9l1-1h10l1-1h9l1-1h10l1-1h9l1-1h10l1-1h10l1-1h9l1-1h10l1-1h9l1-1h10zM473 50l-1 51 8 4v-6l1-1v-8l1-1v-7l1-1v-9l-7-21zm-3 23-17 20-2 6 1 1q3 1 4-1 2 1 1 6h2v-6l6-1 6-7V79l-1-1q-1-4 1-4zm1 21-4 5 3 1h1zm-10 5-1 7-1 1v15l1 2h6l9 4 2 4q1 4-2 6l2 2 2-1 2-4v-20l1-1-1-4q-6-10-20-11Zm-9 2-4 2-5 7v25l2 1v-4l2-4 6-4h4v-17q-2-1-1-5zm7 23-1 1-7 1-4 4-1 3 1 5 2 1 12-13zm5 1-15 18-3 8v11l2 2 26-28 1-5-6-5zm9 15-25 27-4 11v8l1 3h2l25-27 1-6 1-1v-13zm3 1-1 16-3 8h2l2-5q-1-5 1-6v-6l-1-1zm-4 24-26 29-5 14q-1 5 2 7l25-27 3-8v-5l1-1zm2 2-2 15-2 6q-2 1 1 2l3-9v-7l1-1q1-5-1-6Zm-6 24-26 29-4 12v4h6l15-17 2-1 6-9q-1-4 1-4v-6l1-1v-6zm3 1-2 15-2 6h2l2-7zm-5 22-18 22h12l3 1 3-9v-11l1-2zm3 2-1 6-1 1v7l-1 1-1 6h2l1-7 1-1zm-29 21-1 1q-5-1-6 1l-2 3v11l-1 1 1 8q3 1 5-1l5 1 1-2 1-13 1-1v-7q-1-3-4-2Zm7 0-3 23 6 2h9q1 2 6 1l5 3h3l1-4 1-18-2-3-8-3h-6l-1-1zm-2 24-8 8-5 14q-2 5 2 7l22-23 1-3-9-1zm-7 1q-3 2 0 3 3-1 0-3ZM278.5 5q2.5 1 1 2l-3 1h-9l-1 1h-8l-1 1-18 1-1 1h-8l-1 1h-10l-1 1h-9l-1 1-19 1-1 1h-10l-1 1-19 1-1 1h-9l-1 1-19 1-1 1h-9l-1 1-19 1-1 1-19 1-4.5 1.5q1 4-1 5v7l-1 1v8l24 45 3.5 3.5 2.5-.5v-39l-1-2 2.5-.5.5 12.5-1 1v38l1.5.5 3.5-2.5 1-6 1-1-1-1v-17q2-1 0-2v-18l-2-4 1.5-.5 1 1 1.5-.5.5 15.5 3.5-6.5 6.5-7.5 5-3 .5.5-10 10-5 10q1 4-1 5v13l.5.5 2.5-2.5 15-18v-18l-1-2q1.5-3 7.5-1.5l7.5 20.5q-.7 3.3 1 4v6l-1 1v6q-1.7.8-1 4l11.5.5 1-1h11l1-1h11l1-1h11l1-1h10l1-1h11l1-1h10l1-1h11l1-1h12l1-1h12l1-1h12l1-1h11q1.2-2.2 6-1l.5 1.5-6.5.5-1 1-22 1-1 1h-10l-1 1h-10l-1 1h-11l-1 1h-10l-1 1-22 1-1 1h-10l-1 1-22 1-1 1h-10l-1 1-7.5.5-1 3v5l-1 1v6l2 5-1 1v20l2 1 1 2-2.5 2.5q-4.7-.7-5.5 2.5v5l1 1 .5 4.5 5-3 1.5 2.5-2 3 1.5 2.5 4-3h2q2 .5 1.5 3.5l-4 5 6.5.5 4-2h5l2.5 1.5q.5 3-1.5 3.5-4.5-1-5.5 1.5l-1 5-1.5 1.5-6 2-1.5 1.5-1 2 2.5 1.5 4-3 9-1 4.5 3.5 3 6-2.5 2.5-1-1-1.5-.5-2.5-4.5h-4l-3.5 1.5.5 1.5 4 1 1.5 1.5q.5 3-1.5 3.5l-6-1-5-3h-5l-.5.5 6 6-.5 2.5q-1.6-5.4-6-8l-7-6-2.5 1.5 5.5 6.5 6.5 4.5 1 4 1.5 1.5 2-3 .5 1.5q-2.5 5-5 0l-1.5-4.5-8.5-5.5-.5-1.5-3.5 2.5v16l-2 5v18l-1 1-1 7q5.6.9 8 5l-1 19-1 1-.5 4.5-2 1-8-4h-5q-2 .5-1.5 3.5l-24 26-4 9q.7 3.3-1 4v6l1.5 2.5 25-27 .5 1.5-26 29-5 13v9l1.5.5 23.5-25.5 3.5-7.5.5 3.5-1 1-.5 9.5-1-5L83 350.5l-3.5 6.5-.5-2.5 3-4v-2l-1-1q.7-4.2-1-6l1-1v-5l2-6 3-5v-5l-1-1v-7l5-15-1-1v-11l4-9 1-5q-.5-2-3.5-1.5l-1.5.5-2-3v-5l1-1v-14l3.5-4.5 3.5-1.5-1-3 1-1v-4l4-9v-2l-1-1-1-7 1-1v-4l2-6q-1-2.5-5.5-1.5l-15 14h-2q-2-.5-1.5-3.5 4-2 5-7l-1-2 4.5-5.5 6.5-2.5-5-1 4.5-.5 1-1 5 6 6.5-.5-.5-1.5-3.5-2.5-3.5-5.5-3-1-1 2-3 1h-7v-1q6.8 1.3 9.5-1.5l-2.5-3.5-8-1-1-1h-4l-7-4-7-2-2.5-2.5q-.5-3 1.5-3.5 3.5-.5 4 2l7 1 1-2 2-1 7.5-.5-5-6v-2l-4-5v-2l2.5-1.5 5.5 4.5.5 1.5 3-1 4 2 .5-1.5q-1.7-.7-1-4l3.5-.5 10 12 .5-2.5-1-1v-3l-2-6 1.5-1.5 3.5-.5 1-5-1.5.5-9 3q-2-.5-1.5-3.5l8-6-1-1v-25l2-4v-9l-3.5-.5-4.5-4.5-25-46v-8l1-1 1-15 1.5-1.5h6l1-1h10l1-1h9l1-1h9l1-1h10l1-1h9l1-1h9l1-1h10l1-1h9l1-1h10l1-1h9l1-1h10l1-1h9l1-1h10l1-1h9l1-1 21-1 1-1h9l1-1h10l1-1h9zM132 54l-1 52 7 4 1-2 1-17 1-1v-7l1-1v-4l-8-23zm-4 24-16 19-2 5 1 3 4-1 1 2 1 5v-6q1-3 6-2l6-7V79zm1 21-4 5h3l1 1zm-10 5-1 18-1 1q2 0 1 5l2 1h6l5 2 7 7h2v-22l-1-2q-4-6-11-9l-3-1zm-6 1-5 2-6 6v9l-1 1v15l2 2 2-6 6-5h5l-1-2v-21zm5 24-1 3 4 4v3l8 5h2v-1l-5-5q-4-3-6-7zm-4 1-1 1 3 2v-2zm8 0-1 2 10 9h1l-1-2 1-2v2q2 5 10 3v-1l-6-3-1-1q-3-4-7-6zm-12 1v3q2 5 10 3v-1l-6-3-2-2zm-1 2-2 3v9l2 6q1 1 2-1v-8l-1-1q-1-4 1-4zm-3 3-3 6q-6 1-9 6l1 1 6-2 5-3zm6 1-1 2q1 1 2-1zm4 1-4 5v8l-2 1-3-2-2 4v3l2 5 3 1 1 1-4-6 2-3 3 1 1 2q0-3 5-2l4-4v-2l-5-7v-2l10 14v5l-6 8 2 2 1-3 4-3 3-4v-4l-2-4-9-11q-2-1 0-2zm6 2-1 2 6 5 1-2zm13 3q-2 1 1 2v-1zm-4 2-3 3v2l3 3v2q1 2 2 1v-6q-2-1-1-4zm3 0q-2 3 0 4v10h1v-11zm-33 8-1 2 3 9q3 3 9 4 2 1 1 2l-7-3-2 1 3 2 6 2 4 4q1-5-1-7l-7-5-3-2-2-6zm23 0-3 3 1 1 2-1q1 1-1 2l-3-1q-5-1-6 2l7 7 5-6q1-5-1-6zm-48 1-2 3h2l2 4v2l6 7h3l-1-3zm14 1-1 3 6 8 9 7h4v-1l-6-4-8-9zm52 0-5 4 3 1 3-4zm-33 1q-2 2 0 4l9 11v9l5 11h1l4-4q-5-3-5-10h-1l1 7 1 1v1l-3-6q-1-5 1-6l-2-7zm-25 3-1 2 4 2q3 2 3 7h2v-1l3-2q-1-3-2-1l-1-1q-3-5-8-6Zm51 1q-7 3-11 9v10l4 6h2l-3-6q-1-7 1-9l8-7 5 1 1-2-3-2zm14 0-2 1-3 3-2 5 1 1 3-1v-3l4-4zm-62 4q-2 2 0 4 1 2 2 1zm50 0-2 1q-3 1-1 2l4-1v-1zm5 0-2 1-1 2-5 1q-3 1-1 2l7-1 3-4zm17 3-3 2h-8l-3 1q-3 1-1 3l-3-3-9 1-4 2 1 2q5 1 6-2 6-1 9 2l7-3h5l3-2h5v-1q-1-3-5-2Zm-65 2-1 2 9 6h6l1-1 3 1-4 1 8 1v1l-3-1q-5-1-6 1l-1 2 4 2h3v1q-5 1-6-1l-2-2-4-1 2-1v-1l-2-2-2 1 1 5 3 2-2 1 1 2h6l9-3v-1l-6-2q-3-1-1-2l1 1 6 1 1 1-1-5-5-5q-4-1-4 1h-4l-7-5zm-32 2-2 2 4 3h4l6 4 14 3v-1l-5-4-7-1-5-3h-2q-1-2-2 0zm19 0-1 1h-6l-1 2h15q0 2 4 1l3 5v3l3 8 6 5v-2l-4-6-3-12-5-5zm71 2-1 1-6 1v1h4l3-1zm3 0-1 2-1 1-6 1-1 1-5-1v-1l-2-2-3 1 6 6h7l5-2q3-1 2-5zm-68 2-1 2 4 2 3-1-1-2zm48 0q-1 2-5 1l-2 2 3 4 2-3 3 1q-4 0-5 3l1 1 7-3zm-30 3v1h2zm-12 1-4 2 5 3v-4zm44 3-5 3-10 9 1 1 3-1 9-7 5-2q5 2 9 7l10 4 1-2-5-2-12-10zm-47 1-1 1 2 3 2-1 2 1v-1zm65 1-4 2-1 2 3 1 5-2h6l3 5h2l-3-6-1-2zm-37 1-3 2h-3l-6 3 1 1 9-3h3v2l-1-1-4 1-1 2-6 6-8 2q1 2 6 1v2l-1-1-2 2-1 6-1 1v9h2l13-15 8-8-2-2 1-3q-1-5-4-7Zm22 1-2 1-1 2 2 1 6 2h2zm-35 5v6l3-1v-1l3-3v-1l-3 1zm25 1q-3 1-1 2h1zm-38 3-7 3-4 5 1 1 5-4 1 1-11 12 1 1 17-14-2-4zm35 0-26 29-4 11v6h5l20-21 3-5 1-6 1-1zm3 2-2 2v11l-2 5 1 3 3-10zm-5 22-19 22h14l1 1 2-3 1-7 1-1zm2 2-1 12-3 9h2l2-6q-1-5 1-6v-8zm-31 21-3 1-3 3v6l-1 1 1 14q3 1 4-1h6l1-4v-6l1-1 1-11q-2-4-7-2Zm10 0-2 4-1 19 8 2h9q0 2 4 1l5 3h2l1-1v-6l1-1v-10q2-1 1-4l-3-4-6-2q-5 1-6-1zm-3 24q-7 5-10 13l-1 6-1 1v9h2l23-26-7-1zm-7 1-1 2h2v-1z" opacity=".949"/><path fill="#020101" stroke="#020101" d="m608.5 153 14.5 7.5v2l-9 18-2 2-42 84-2 2-8.5 16.5-32-15h-2l-7-4h-2l-7-4h-2l-9-5h-2l-3.5-2.5 28.5-41.5h2l5.5 5.5 18.5 19.5 1.5-.5zm.5 1-60 86-26-25-28 39 8 4h2l7 4h2l7 4h2l9 5h2l7 4h2l17 8 62-121zm-403.5 31 2.5.5 4 9 10.5 17.5h2l15-9 11-5 16.5 28.5-28 16 15 28-10.5 6.5-9 4-2 2-6 3h-2l-15-27-28 15-2.5-2.5-14-27 28-16-2-2-10-20-2-2-1-4zm-.5 2-2 2-18 9-5 4 4 9 2 2 9 17-23 12-5 4 15 26 28-15 3 5 4 9 2 2 7 12 26-14-1-4-2-2-10-20-2-2 3-3 25-13-14-28-25 13-2 2h-2l-14-25q0-2-3-2Zm-128.5 1 3.5.5-3.5.5zm-4 1 2.5.5-6 4q1.3 2.7 2.5.5l4-2h3v1h-3l-5 3-2.5-2.5zm8 4 4.5.5-4.5.5zm12 5q1.5 1-1 2l-2.5-.5zm337 72 .5 2.5h-1zm-341 2 .5 3.5h-1zm340 4 .5 3.5h-1zm-341 2 .5 3.5h-1zm385 2 .5 30.5h-1zm-45 2 .5 2.5h-1zm-341 2 .5 3.5h-1zm340 4 .5 2.5h-1zm-341 2 .5 2.5h-1zm340 4 .5 2.5h-1zm-341 2 .5 2.5h-1zm340 4 .5 2.5h-1zm-341 2 .5 2.5h-1zm340 3 .5 2.5h-1zm-341 3 .5 2.5h-1zm49 0 1 34 2 1h12l1 1 24 1 1 1h11l1 1h11l1 1h11l1 1h11l1 1h12l1 1h11l1 1h11l1 1h11l1 1h12l1 1 10.5.5-16.5.5-1-1-34-1-1-1h-15l-1-1h-16l-1-1h-15l-1-1h-16l-1-1h-15l-1-1h-15l-1-1h-10l-2 3-1.5-.5 2-1zm291 3 .5 2.5h-1zm-1 6 .5 2.5h-1zm-1 6 .5 2.5h-1zm30 10 .5 2.5-1 1-.5 5.5-1.5.5-8.5 9.5-.5-1.5 9-10zm-341 1 .5 2.5h-1z" opacity=".949"/><path fill="#020101" stroke="#020101" d="m416.5 334 2.5.5-1.5 5.5h-3l-1 1h-3l-1 1h-3l-1 1h-3l-1 1h-3l-1 1h-3l-1 1h-3l-1 1h-3l-1 1h-3l-1 1h-3l-1 1h-3l-1 1-15 3-3 1-3.5 3.5q1 4-1 5v19l-1 1v10l2.5 2.5 3 1h8l1 1h7l1 1h7l1 1h7l1 1h7l1 1h7l1 1h7l1 1h8l1 1h7l1 1h7l1 1h7l1 1h7l1 1h7l1 1h7l1 1 15 1 1 1h6l1 1h7l1 1h7l1 1h7l1 1h7l1 1h7l1 1h7l1 1h7l1 1h7l1 1h7l1 1h7l1 1h7l1 1h6l1 1h7l1 1h6l1 1h7l1 1h7l1 1h7l1 1 6.5.5-8.5.5-1-1h-8l-1-1h-9l-1-1h-8l-1-1h-9l-1-1h-8l-1-1h-9l-1-1h-8l-1-1h-8l-1-1h-9l-1-1h-8l-1-1h-9l-1-1h-8l-1-1h-8l-1-1h-9l-1-1h-8l-1-1-15-1-1.5 2.5v7l-1 1v6l-1 1v6l-1 1-.5 5.5-1.5-.5q-1-4 1-5v-8l1-1v-7l1-1v-8l-5.5-.5-1-1h-6l-.5 26.5-1 1-.5 4.5-1.5-2.5q2.3-1.3 1-6l-1.5-4.5-14 12-.5-.5 13-13 2-4v-13l-.5-.5-3 3q-12.2 8.3-21.5 19.5l-3.5 6.5-1.5-.5-.5-1.5-2 2-.5-.5v-14l-1-1-.5-17.5q-3.2.8-4-1h-8l-1-1h-8l-1-1h-8l-1-1h-8l-1-1h-8l-1-1h-8l-1-1h-6l-1.5-1.5-4-5v-12l1-1v-20l1-1v-6l5.5-5.5 6-2h3l1-1h4l1-1 11-2 1-1h3l1-1h3l1-1h4l1-1h3l1-1h3l9-3h4zm.5 75-1 12 1 1q1 3-1 4l1 2 1-1q-1-4 1-4l-1-1v-12zm4 0v10l7-8zm10 1-8 9-4 10 1 9 5-7q8-10 19-17v-1l-4-2h-8zm42.5-73 1 1h10l1 1h12l1 1 23 1 1 1h12l1 1h11l1 1h11l1 1h11l1 1h11l1 1 23 1 1 1 24 1 2.5 1.5-2.5.5-1-1h-17l-1-1h-16l-1-1h-16l-1-1-33-1-1-1h-15l-1-1h-15l-1-1-32-1-1-1-6.5-.5zm-396 1 .5 1.5-1 1-.5 4.5q-1-2-2 0l-10 2-1 1h-3l-1 1h-3l-1 1h-3l-1 1h-3l-1 1h-3l-1 1h-3l-1 1h-3l-1 1h-3l-1 1h-3l-1 1h-3l-1 1h-3l-1 1h-3l-3 1-3.5 3.5-1 35 2.5 2.5q4-1 5 1h7l1 1h7l1 1h8l1 1h7l1 1h7l1 1h7l1 1h7l1 1h7l1 1h7l1 1h7l1 1h7l1 1h7l1 1h7l1 1h7l1 1h7l1 1h7l1 1h7l1 1h7l1 1h7l1 1h7l1 1h7l1 1h7l1 1h7l1 1 15 1 1 1h7l1 1h6l1 1 15 1 1 1 14 1 1 1h7l1 1h6l1 1h7l1 1 5.5.5-6.5.5-1-1h-9l-1-1h-8l-1-1h-8l-1-1h-9l-1-1-18-1-1-1h-8l-1-1h-8l-1-1h-9l-1-1h-8l-1-1h-9l-1-1h-8l-1-1h-8l-1-1h-9l-1-1h-8l-1-1h-8l-1-1h-9l-.5 5.5-1 1v7l-1 1v6l-1 1v6l-1.5 2.5-.5-9.5 1-1v-7l1-1v-8q1.7-.8 1-4l-4.5-1.5h-9l-1 31-1.5-.5-.5-11.5-1.5.5-1.5 2.5-11 8-.5-.5 13-13 2-6v-11l-.5-.5-6 6Q90 430 82 439.5l-3.5 7.5-2.5-1.5-.5-1.5-1 2-1.5-1.5-.5-30.5q-3.2-2.3-10-1l-1-1-17-1-1-1h-8l-1-1h-8l-1-1h-8l-1-1h-8L5 403.5l-2-3v-21l1-1v-17l5.5-6.5 6-2h3l1-1h3l1-1h3l1-1h3l1-1h4l1-1 15-3 1-1h4l1-1h3l1-1h3l1-1h3zM76 414v19l1-3q1-5-1-6v-6l1-3zm4 0q-3 1-2 7 2 1 0 2h2l6-7-3-2zm9 1-8 10-3 7 1 11 7-10 17-15-2-2h-8q-1-2-4-1Z" opacity=".949"/><path fill="#020101" stroke="#020101" d="m108.5 339 .5 6.5-9.5 10.5-2 1-.5-.5 5-5 5-7zm341 4 .5 2.5h-1zm17 3 1.5.5-3.5 1.5v-1zm-9 4 1.5.5-3.5 1.5v-1zm-333 1 1.5.5-3.5 1.5v-1zm324 0 1 1 4.5.5-4.5.5q-2.5-1-1-2Zm-341 1 .5 2.5h-1zm8 3 1.5.5-3.5 1.5v-1zm-8 1 4.5 1.5-4.5.5z" opacity=".949"/><path fill="#17323e" stroke="#17323e" d="m130.5 273 .5 22.5h-1zm-42 15 .5 4.5h-1zm26 1 .5 2.5h-1zm340 9 .5 2.5h-1zm-341 1 .5 2.5h-1zm359 12 .5 24.5h-1zm-392 27 .5 2.5h-1zm28 8 .5 2.5h-1zm308 63 1.5 7.5-1.5 4.5zm39 4 2.5.5-2.5.5zm-379 1 .5 2.5h-1zm33 4 .5 11.5h-1zm7 0 2.5.5-2.5.5zm347 2 .5 2.5h-1z" opacity=".953"/><path fill="#334328" stroke="#334328" d="m128.5 55 .5 3.5h-1zm-27 14 .5 2.5h-1zm369 17 .5 2.5h-1zm-14 22 .5 4.5h-1zm-355 16 .5 2.5h-1zm374 18 .5 2.5h-1zm0 4 .5 2.5h-1zm-37 86 .5 3.5h-1zm106 5 4.5 3.5-1.5.5-3.5-3.5zm-101 111 .5.5-2.5 2.5-.5-.5z" opacity=".98"/><path fill="#256388" stroke="#256388" d="m470.5 267 1.5 1.5v9h-1v-9zm-13 5 .5 2.5h-1zm-341 1 .5 2.5h-1zm340 9 .5 2.5h-1zm-341 1 .5 2.5h-1zm340 8 .5 2.5h-1zm-325 5 .5 19.5h-1zm324 5 .5 2.5h-1zm-341 1 .5 2.5h-1zm339 18 .5 2.5h-1zm-342 10 .5 2.5h-1zm311 4 .5 4.5h-1zm51 2 .5 6.5h-1zm-364 13 .5 2.5h-1zm-33 68 .5 6.5h-1zm342 0 .5 2.5h-1zm-342 9 .5 2.5h-1z" opacity=".984"/><path fill="#028dd4" stroke="#028dd4" d="m462.5 265 7 2 1.5 1.5v9l1 1v65l-18.5 8.5-.5-10.5 1-1 1-19 1-1v-8l1-1v-9l1-1v-9l1-1 1-18 1-1v-6zm-342 4 6 3h2l1.5 1.5v42l1 1v31l-5.5 3.5h-2l-12 6-.5-5.5 1-1 1-18 1-1v-9l1-1v-8l1-1v-9l1-1v-9l1-1 1-19z" opacity=".996"/><path fill="#12ebf9" stroke="#12ebf9" d="m474.5 297 .5 2.5h-1z" opacity=".004"/><path fill="#431f1a" stroke="#431f1a" d="m178.5 17 2.5.5-2.5.5zm282 28 9.5.5-9.5.5zm-8 1 4.5.5-4.5.5zm-336 4 6.5.5-6.5.5zm331 0 1.5.5-.5 2.5zm-338 1 3.5.5-3.5.5zm356 0 1 1 1.5-.5-1.5 1.5q-2.5-1-1-2Zm-334 3 2.5.5-2.5.5zm-27 1 3.5.5-3.5.5zm-3 3 .5 10.5h-1zm2 11 .5 37.5h-1zm347 1 .5 3.5h-1zm0 5 .5 2.5h-1zm32 2 .5 3.5h-1zm-30 1 .5 3.5h-1zm18 0 .5 7.5h-1zm-329 1 .5 2.5h-1zm311 4 .5 2.5h-1zm-344 2 .5 5.5h-1zm373 1 .5 2.5h-1zm-341 1 .5 2.5h-1zm47 3 2.5.5-2.5.5zm263 0 .5 2.5h-1zm-275 1 2.5.5-2.5.5zm-12 1 2.5.5-2.5.5zm317 3 .5 2.5h-1zm-341 1 .5 2.5h-1zm-13 5-.5 1.5-.5 1.5-.5-1.5zm321 0 .5.5-2.5 2.5-.5-.5zm10 0 1.5 3.5-1.5.5zm-319 3 .5 3.5h-1zm-5 42 1.5 2.5q-1 1.5-2-1zm343 1 .5 6.5h-1zm-4 16q2.5 1 1 2l-2 1 .5-1.5zm2 6 .5 3.5h-1zm-367 2 1.5 2.5q-1 1.5-2-1zm14 0 .5 2.5h-1zm-33 3q1.5 1-1 2l-1.5-.5zm380 21 .5 2.5h-1zm-369 4 3.5 1.5-1.5.5-2.5-1.5zm366 15 1.5.5-.5 1.5q-2.5-1-1-2Zm-11 81 .5 2.5h-1zm-342 10 .5 3.5h-1zm339 12 .5 6.5h-1zm-31 33 .5 2.5h-1zm18 1 .5 1.5-2.5 1.5-.5-.5zm-9 4 15.5.5-15.5.5zm-338 5 11.5.5-11.5.5zm-13 55 .5 5.5h-1zm370 24 .5 2.5h-1z" opacity=".98"/><path fill="#65584c" stroke="#65584c" d="m455.5 45 2.5.5-2.5.5zm17 0 3 1 1.5-.5-1.5 1.5-5.5.5-1 2 .5 1.5-2-1-1.5.5.5-1.5h-13l-3 2q-1-2-5-1l-1.5.5.5-2.5h6l1-1h10l1-1h9zm-25 1 2.5.5-2.5.5zm-316 4 1 1 1.5-.5-1.5 1.5-4.5.5-.5 1.5-2-1-1 1-12.5.5-.5 1.5-3-1q-5.2 1.3-6.5-1.5.5-3 4.5-2.5l1 1h9l1-1h13zM105 52v1h2zm337.5-2 .5 6.5h-1zm30 0 .5 35.5h-1zm-20 12 1.5 3.5-1.5.5zm-324 4 .5 7.5h-1zm-27 17 .5 10.5h-1zm10 7 1.5 2.5q-1 1.5-2-1zm359 5 .5 3.5h-1zm-352 10 .5 3.5h-1zm-2 1 .5 2.5h-1zm340 11 .5 2.5-4 3 2.5.5 1.5-.5-.5 1.5-6-1v2l-2-1 .5 1.5-1.5 1.5q-1.2-2.2-2.5.5l1 2q-1 1.5-2-1v-3l3.5-3.5 8.5-2.5zm4 2 11 2 6.5 4.5q2.3 3.2 1 10l1 1h-2l-.5 1.5-.5-1.5 1-2-1-2 1-2-3.5-4.5-2 1v-2l-2 1v-2q-1.8-1.7-6-1-.8 1.8-4 1v-1l3.5-.5-3-1zm-342 5h5l1 1 6 1 7.5 6.5q.8 3.8-1.5 4.5-2.8-1.2-.5-2.5l-3.5-3.5-1.5.5.5-1.5-3-1-1.5.5.5-1.5-5 1v-1l1.5-.5-4-1-.5-1.5-1 2zm-8 1 4.5.5-1.5 1.5-3.5.5 2 1-1.5.5-2-1v2q-1-2-2 0l-1.5.5-1 2 .5 1.5q-2.2-.7-1.5-4.5l2.5-2.5z" opacity=".98"/><path fill="#65584c" stroke="#65584c" d="m454.5 125 2.5.5-2.5.5zm-315 1 .5 3.5h-1zm-38 3 .5 2.5h-1zm379 0 .5 4.5h-1zm-36 3 .5 3.5h-1l-1-2zm-339 7 .5 2.5h-1zm24 2 1.5 2.5h-1zm-19 3 .5 5.5h-1zm349 6 .5.5-2.5 2.5-.5-.5zm-325 3 .5 4.5h-1zm-45 2 2.5 1.5-1.5-.5q-2.4-.1-1-1Zm26 2 2.5.5-2.5.5zm-3 2 6.5 6.5-.5.5-6.5-6.5zm-31 3 2.5 2.5-.5.5-2.5-2.5zm78 7 2.5.5-2.5.5zm-60 10 2.5.5-2.5.5zm345 0 .5 4.5h-1zm-316 24 1.5.5-.5 2.5-1.5-.5zm341 0 1.5.5-.5 1.5q-2.5-1-1-2Zm-21 5 .5.5-2.5 2.5-.5-.5zm-330 14 .5.5-3.5 3.5-.5-.5zm8 0 1.5.5-.5 3.5-1.5-.5zm341 3q2.5 1 1 2l-1.5-.5zm-362 11 .5.5-2.5 2.5-.5-.5zm7 4 2.5.5-2.5.5zm331 0 .5 2.5h-1zm-346 2 3.5.5-3.5.5zm345 2 .5 5.5-1.5 2.5-.5-2.5 1-1zm-341 3 .5 4.5-1.5 3.5-.5-2.5 1-1zm339 7 1.5 2.5q-1 2.5-2 1zm-341 2 1.5.5q.5 3-1.5 3.5zm340 3q1.5 1-1 2-3.2-.7-4 1l-2-1-1.5.5 1.5-1.5h6zm7 1 2.5.5-2.5.5zm4 0 9.5 1.5-6.5.5-3-1zm-352 1 1.5 4.5h-1q-1.7-1.7-.5-4.5Zm368 2q4.1-.6 5.5 1.5l-.5 1.5-1.5-.5-.5-1.5q-1 2-2 0-2.4-.1-1-1Zm-376 2 7.5.5-7.5 1.5zm15 0 3.5.5-3.5.5zm5 0 9.5 1.5-5.5.5q-.8-1.7-4-1zm4 3 1.5.5-2.5 3.5-.5-.5 2-2zm11 0q3.8-.7 4.5 1.5l-1.5-.5-1 1-1-1q-2.4-.1-1-1Zm326 2 .5.5-2.5 2.5-.5-.5zm-19 14 .5 2.5h-1zm-345 30 .5 2.5h-1zm3 29 .5.5-5.5 5.5-.5-.5zm327 8 1 1 1.5-.5-1.5 1.5q-2.5-1-1-2Zm23 0-1 3h10l1.5 1.5-1.5-.5-3 1-1-1-8.5-.5zm-5 2q1.5 1-1 2h-8l-3 1-2-1-2 1v-1l2-1h13zm-358 2 .5 2.5h-1zm359 1 3.5.5-3.5.5zm-340 2 1 1 6.5.5-.5 1.5-1-1-7.5-.5zm-10 1 6.5.5-8.5 1.5v-1zm-73 1 .5.5-2.5 2.5-.5-.5zm85 1 2.5.5-2.5.5zm-88 3 .5 3.5h-1zm-1 21 .5 2.5H9zm341 3 .5 2.5h-1zm88 49 .5.5-2.5 2.5-.5-.5z" opacity=".98"/><path fill="#ac9988" stroke="#ac9988" d="m469.5 18 6 2 2-1 .5 12.5 1 1v7l1 1-1 2 2 5-1 2 .5 1.5-2.5-3.5 1-1-2.5-2.5q-1 2-2 0-3.2-.7-4 1l-3-2q-1 2-2 0l-5 2h-7q-.7 1.8-4 1l-3-1-3.5 2.5.5 1.5-1.5-.5-1 3v24h1l.5-4.5.5 16.5q-1.7.8-1 4l.5 1.5q-4.4-3.1-6-9l-1.5.5 1-2h-2l.5-1.5-1.5-.5q2-1 0-2l-2.5-5.5-1.5.5 1-2h-2l1-2h-2q2-1 0-2l-2.5-5.5-1.5.5 1-2h-2l1-2h-2l1-2-3.5-5.5-1.5.5 1-2h-2l1-2h-2l1-2q-2-1-1-5l1-1v-8l1-1 .5-5.5 11.5-1.5-.5-1.5q3.2 2.3 10 1v-2q2.5 2 8 1 .5-2.5 4-2 1.3 2.3 6 1 .5-2.5 4-2l1 1h6zm-344 5 1 1 9.5.5 1 2q-2 1-1 5l1 1v7l1 1v10l1 1-1 2 2 2-.5.5-2.5-1.5 1-3-3-2-.5-1.5-1 2-2-1q-1.5 2.5-3-1l-6 1-2-1q-1.4 2.6-6 2-1-2-2 0l-6 1-2-1-4.5 6.5-.5 39.5-1-1-1.5.5.5-1.5-1.5-.5.5-1.5-1.5-.5q2-1 0-2L92.5 84l-1.5.5 1-2h-2l1-2h-2q2-1 0-2L86.5 73l-1.5.5 1-2h-2l1-2h-2l1-2-3.5-5.5-1.5.5 1-2h-2l1-2h-2l1-2-4-7v-8l1-1v-7l1.5-4.5 9.5-.5-2-1 1.5-.5 1 1h8v-2l3 1h6l1-2 3 1h5q.5-2.5 4-2l1 1h7z" opacity=".937"/><path fill="#ac9988" stroke="#ac9988" d="m459.5 50 6.5.5-2.5 2.5-1-1-4.5 4.5.5 1.5q-1.2-2.2-2.5.5l-1.5 2.5-.5-9.5 4.5-.5zm8 4 .5 15.5-3 3 .5 1.5-1-1-2.5 2.5-3 4 .5 1.5q-1.2-2.2-2.5.5l-2.5 3.5-.5-7.5 1-1v-5l1-3 6-9-.5-1.5 1 1zm-355 1q1 2 2 0l8.5.5-7 6-2 3 .5 1.5-1-1-1.5.5 1-9zm357 2 .5 10.5h-1zm-345 1 1 1 1.5-.5v15l-1 1q2.3 1.3-.5 2.5-1.2-2.2-2.5.5l-3 4 .5 1.5-1-1-2.5 2.5-3 4 .5 1.5-1.5-1.5v-9q1.8-.7 1-4l-.5-1.5 1.5.5-1-3h2l-1-2h2l1-2-.5-1.5q1.3 2.3 2.5-.5l3-4-1-1zm342 19 1 1 1.5-.5v13l-2 2 .5 1.5q-1.2-2.2-2.5.5l-.5 1.5-4.5.5 3 1-2.5.5-2-1q-1 2-5 1l.5-1.5v-2l3-4-.5-1.5q1.2 2.3 2.5-.5l2-3-.5-1.5q1.3 2.3 2.5-.5l4-5zm-340 5 .5 13.5 1 1-1.5-.5-1.5 1.5-2 3 .5 1.5q-1-2-5-1l-4 3v-2l-2 1-1.5-2.5h2l-1-3 1.5.5 1.5-1.5 2-3-.5-1.5q1.3 2.3 2.5-.5l2-3-.5-1.5 1 1 2.5-2.5zm2 5 .5 6.5h-1zm-14 19 .5 6.5h-1zm4 6 .5 2.5h-1zm325 2 .5 4.5h-1zm-304 4 .5 3.5h-1zm307 4 .5.5-2.5 2.5-.5-.5zm-328 1 3.5.5-3.5.5zm-7 1 3.5.5-3.5.5zm340 2q1 2 5 1l1.5 1.5q-1.2 2.8-2.5.5l-3.5 3.5-2.5 3.5-1-1-1.5.5q1.8-.7 1-4l2.5-3.5 1.5-.5zm13 1q.8 1.8 4 1l1.5-.5-.5 1.5 2-1-.5 1.5 2 2 1 3h-2l-6 7q2.3 1.3-.5 2.5l-1-1-4.5 4.5-7 8q2.3 1.3-.5 2.5l-1-1-2.5 2.5-.5 1.5-1-3-1.5.5 2-4v-5l2-5-.5-1.5 1.5.5 1-2-1-1 2.5-2.5q1.3 2.3 2.5-.5l2-3-.5-1.5q1.3 2.3 2.5-.5l2-3-.5-1.5q1.5 2.5 3-1Zm-339 4v2l3-1v2l2-1-.5 1.5-1.5 2.5-2-2-1.5.5q2.3-1.2-.5-2.5l-1.5.5zm-3 6 1 1 1.5-.5-1.5 1.5q-2.5-1-1-2Zm13 2q2.5 1 1 2l-1-1-1.5.5zm-22 2 1 1 1.5-.5-1 2h2q-2 1 0 2l1.5 2.5 1.5-.5q-2 1 0 2 .5 4-2.5 4.5l-3.5.5.5 1.5-4.5-2.5 2-1-.5-1.5 1.5.5q-1.7-1.8-1-6h1l.5 4.5.5-5.5-1-1 1-1zm358 2 .5 11.5q-1.7.8-1 4l.5 1.5-1.5-.5v2l-3 3q2.3 1.3-.5 2.5l-1-1-5.5 5.5-6 7q2.3 1.3-.5 2.5l-1-1-4.5 4.5-.5 1.5-1.5-.5v-8q1.8-.7 1-4l-.5-1.5 1.5.5 1-4-.5-1.5 1.5.5 4-5q-2.3-1.2.5-2.5l1 1 3.5-3.5 5-6q-2.2-1.2.5-2.5l1 1 2.5-2.5zm-355 16q4-1 5 1l2-1 .5.5-3.5 3.5-4.5-3.5zm-11 2-.5 1.5 2 2-.5.5-2.5-2.5zm9 2 3.5 3.5-.5.5-3.5-3.5zm15 2 .5.5-3.5 3.5v-3q1.5 2.5 3-1Zm-9 4 .5.5-2 2-.5 1.5-.5-1.5zm349 0 .5 5.5-1 1v4l-2 6 .5 1.5-1.5-.5 1 2-1.5-.5-5.5 5.5-6 7q2.3 1.3-.5 2.5l-1-1-4.5 4.5-4.5 5.5-.5-5.5-1-1h2v-3l3-7-.5-1.5 1.5.5-1-2q1.3-2.8 2.5-.5l3.5-3.5 3-4-.5-1.5 1 1 2.5-2.5 4-5q-2.3-1.2.5-2.5l1 1 2.5-2.5zm-356 1 1.5.5-.5 1.5-1-1-1.5.5zm38 1 2.5.5-2.5.5zm-25 1 .5 4.5h-1zm-32 1 1.5 1.5q-2 1 0 2l-1.5 1.5.5-1.5-2-2zm379 0 .5 3.5h-1zm-330 7 2.5.5-2.5.5zm-53 4 2.5 1.5-1.5-.5q-2.4-.1-1-1Zm16 0 .5.5-2.5 2.5-1.5-.5.5-1.5q1.5 2.5 3-1Zm11 2 2.5 1.5-1.5-.5q-2.4-.1-1-1Zm28 0 3.5 3.5-.5.5-2-2q-1.2 2.3-2.5-.5zm-52 4 3.5 2.5.5 1.5 1.5-.5-1 1 .5 1.5q-3 .5-3.5-1.5l-1.5-3.5-1.5.5zm42 0 3.5 3.5-.5.5-3.5-3.5zm-20 1 4.5.5q-1.7.8-1 4h2l-4 5 1 1-2.5 2.5-1-1-4.5 4.5-5 6q2.3 1.2-.5 2.5l-1-1-1.5.5v-6l-1-1h2l-1-3h2l.5-1.5 1.5-.5-1-2 2-2-.5-1.5 2 1 3.5-4.5-.5-1.5 1 1zm355 2 .5 7.5h-1zm-4 1 .5 5.5q-2.2 1.3-1 6l.5 1.5-1.5-.5 1 3h-2v2l-3 3q2.2 1.3-.5 2.5l-1-1-4.5 4.5-6 7 1 1-2.5 2.5-1-1-4 4-2 1-.5-4.5-1-1h2v-3l2-5-.5-1.5 1.5.5 1-2-.5-1.5 1 1 4.5-4.5 4-5q-2.3-1.2.5-2.5l1 1 2.5-2.5 4-5q-2.2-1.2.5-2.5l1 1 2.5-2.5zm-340 3 .5 4.5h-1zm-2 1-.5 1.5 1 1v8l1 1h-2l-1 5 .5 1.5-1.5-.5q-4.3 7.7-11 13 2.3 1.3-.5 2.5l-1-1-4.5 4.5-3.5 4.5-2.5-.5q1.3-4.8-1-6h2l2-7-.5-1.5 1.5.5 5-6-.5-1.5 1 1 2.5-2.5 4-5q-2.2-1.2.5-2.5l1 1 2.5-2.5 5-6q-2.2-1.2.5-2.5Zm345 7 .5 2.5h-1zm-384 1 .5.5-2.5 2.5-.5-.5zm43 2 .5 2.5h-1zm340 9 .5 4.5h-1zm-4 1 .5 2.5-1 1v7l.5 1.5-1.5-.5q.6 4.1-1.5 5.5l-10.5-1.5 2-2-.5-1.5q1.3 2.3 2.5-.5l3-4-.5-1.5 1 1 3.5-3.5zm-342 5 .5 7.5q-2 1-1 5l.5 1.5-1.5-.5q.5 3-1.5 3.5l-1-1-8.5-.5 3-4-.5-1.5 1 1 2.5-2.5 3-4q-2.2-1.2.5-2.5 1.3 2.2 2.5-.5zm4 7 .5 2.5h-1zm320 8 .5 2.5h-1zm-13 21 2.5.5-2.5.5zm16 0 2.5.5-2.5.5zm-6 3 2 2 8.5 1.5-9 10q2.3 1.3-.5 2.5l-1-1-4.5 4.5-4.5 5.5-.5-5.5-1-1h2v-3l2-3v-2l-.5-1.5 1.5.5-1-2h2l5-6zm-333 2 2.5.5-2.5.5zm-8 4q2.2 1.8 7 1l2-1v1l-1.5.5 3 1-5 5q2.3 1.3-.5 2.5l-1-1-4.5 4.5-6 7q2.3 1.3-.5 2.5l-1-1-1.5.5v-6l-1-1h2l-1-3h2l1-4-.5-1.5 1.5.5-1-2 1.5.5 3.5-3.5zm351 4 1.5 1.5q-.8 4.8 1 7h-1l-.5-1.5-.5 7.5.5 1.5q-1.2-2.2-2.5.5l-6 7q2.2 1.3-.5 2.5l-1-1-4.5 4.5-5 6q2.3 1.3-.5 2.5l-1-1-4 4-.5-.5 2-4v-4l2-6-.5-1.5 1.5.5-1-2h2l1-2q-2.2-1.2.5-2.5l1 1 3.5-3.5 4-5q-2.2-1.2.5-2.5l1 1 2.5-2.5 5-6zm-340 5 1.5 4.5h-1l-.5-1.5-.5 8.5 1 2h-1l-.5-1.5q.1 5.1-3.5 6.5l1 1-2.5 2.5-1-1-3.5 3.5-6 7q2.2 1.2-.5 2.5l-1-1-3.5 3.5-2.5 3.5-.5-5.5-1-1h2q.8-3.2-1-4h2l1-4-.5-1.5 1.5.5q1-5 5-7-2.3-1.2.5-2.5l1 1 2.5-2.5 5-6-.5-1.5 1 1 3.5-3.5zm-22 11 .5 3.5h-1zm361 7 1.5 3.5h-2v7q-1.7.8-1 4l.5 1.5-1.5-.5-3 5 .5 1.5-1-1-2.5 2.5-4 5 .5 1.5-1-1-4.5 4.5-5 6q2.3 1.3-.5 2.5l-1-1-2 2-.5-.5q1.3-4.7-1-6h2v-3l4-9 5-5-.5-1.5 1 1 2.5-2.5 3-4-.5-1.5 1 1 2.5-2.5 3-4-.5-1.5 1 1 2.5-2.5zm-342 6 .5 6.5 1 1h-2l-1 7 .5 1.5-1.5-.5 1 2-1.5-.5-3.5 3.5-3 4 .5 1.5-1-1-2.5 2.5-6 7q2.3 1.3-.5 2.5l-1-1-4.5 4.5-.5 1.5-2 1-.5-.5 2-2v-6l-1-1h2l-1-3h2l2-6-.5-1.5 1 1 3.5-3.5 3-4-.5-1.5 1 1 2.5-2.5 3-4-.5-1.5 1 1 2.5-2.5 3-4-.5-1.5q1.5 2.5 3-1Zm339 18-.5 1.5 1 1 1 5h-1l-.5-1.5-1.5 11.5-3 5 .5 1.5-1.5-.5-3 4 1 1-3.5 3.5-1.5-.5-1.5 2.5-1-1h-11l-1.5.5.5-1.5 1.5-.5q2.5-6.5 8-10-2.2-1.3.5-2.5l1 1 3.5-3.5 4-5q-2.2-1.2.5-2.5l1 1 2.5-2.5 4-5q-2.2-1.2.5-2.5Zm-340 5-.5 1.5 1 1-.5 1.5-1-2-.5 8.5 1 2h-1l-.5-1.5-.5 4.5.5 1.5-1.5-.5v2l-4 6q2.3 1.3-.5 2.5l-1-1-4.5 4.5-.5 2.5-14.5-.5 3-4-.5-1.5q1.3 2.3 2.5-.5l8-9q-2.2-1.2.5-2.5l1 1 2.5-2.5 5-6-.5-1.5 1 1 3.5-3.5zm297 20 2.5.5-2.5.5zm-4 1 2.5.5-2.5.5zm-4 1 2.5.5-11 3 2 2-.5.5-1.5-.5-.5 1.5-2-1 .5 1.5-1 1 .5 7.5 1-4 .5 3.5q-2 1 0 2l-.5 1.5-2.5.5v5l-1 3 1.5 1.5 1-1 1 1 1.5-.5-3.5 2.5-1.5-.5-1 3 1 2q-2.2 1.2.5 2.5l1-6 1.5 4.5-1.5 2.5-2-1-1.5 1.5 2 2-2 2 1 3 .5 4.5 1-5 1 5 2 1 6.5.5-6.5.5-1-1h-8l-1-1h-7l-1-1h-7l-1-1-7.5-.5.5-1.5 1.5.5 1-2-1-2q2-1 0-2l-1-3h2q-1.3-6.8 1-10l-1.5-.5-1 2-1.5-3.5 2-1v-7l1-1-1-2 2-1-2-1-.5-1.5-1.5.5v7l1 1-1 2q2.5 1.5-1 3l1 3-1 2 1 3-.5 1.5-1.5-.5v-18q1.8-.7 1-4h-2l2.5-2.5 1 1 10-2 1-1h3l1-1h3l1-1h3l1-1h3l1-1h3l1-1h3l1-1h3l1-1h3zM360 357l-1 3h1zm26 5q-2 1 1 2v-1zm-27 3-1 7h1zm87.5-18 .5 4.5 1 1-1.5-.5-4.5-.5 4-3zm-386 3 2.5.5-3.5 1.5h-3v-1q3.3.7 4-1Zm-8 2 2.5.5-2.5.5zm51 0 1 1 1.5-.5-1 3 1 2-1.5-.5q-4-1-5 1l-.5-1.5zm313 0 2.5 1.5-1.5-.5q-2.4-.1-1-1Zm-368 1 2.5.5-.5 1.5-2-1-1 2q-1.2-2.2-2.5.5l1 1v6q-3.5 1.5-1 3l-1 6 1 2-2 3 1 3q-2 1 0 2l-.5 1.5-1.5.5 1 1v6q-2.2 1.3.5 2.5l2-6 2-1-.5 1.5 1 1-.5 1.5-1-2-1.5 1.5-.5 5.5-2-1 .5 1.5-1 5 14 2-7.5.5-1-1h-7l-1-1h-7l-1-1h-8l-2 1v-1l1.5-.5-12-2v-19l1-1v-15l1.5-1.5 1.5.5-1 2 .5 1.5-1.5.5.5 2.5 1.5.5-2 1 1 2q-2 1-1 5l1 1-2 2 .5.5 1.5.5-2 2v7q1 2.5 2 1l.5-2.5 1 5 .5-5.5 1-1-1.5-2.5-1 3-.5-3.5 1-1 .5-6.5 1 8 .5-10.5h-1l-.5 1.5-1.5-.5 2-4 .5-7.5 1 7 .5-8.5h-2l.5-1.5 2.5-.5-.5-1.5q.7 1.7 4 1v-2q.8 1.8 4 1v-2q.8 1.8 4 1v-2q.8 1.8 4 1v-2q.8 1.8 4 1v-2q1 2 5 1zM17 372q-2 1 1 2v-1zm-4 20-1 6h2l-1-1 1-1q0-4-1-4Z" opacity=".937"/><path fill="#ac9988" stroke="#ac9988" d="m389.5 354 .5 1.5q-1 2.5-2 1zm-342 5 .5 3.5h-1zm2 1 .5 2.5h-1zm-3 9 .5 4.5h-1zm341 0 .5 3.5h-1zm-377 3 .5 3.5h-1zm38 2 .5 2.5q-2 1 0 2l-.5 2.5-2-4-1.5-.5q1-2.5 2-1l.5 1.5zm303 1 .5 3.5h-1zm5 2 .5 5.5h-1zm-4 5 1.5.5-1 4q2 1 0 2l1 3-1 1 .5 1.5-1.5-.5zm-307 2 1 1 1.5-.5-2.5 1.5zm341 3 2.5 2.5-.5.5-1.5-.5zm-31 1 .5 3.5h-1zm-346 4 .5 2.5H9zm35 5 .5 3.5h-1zm352 2 5.5.5-5.5.5zm-339 5 4.5.5-4.5.5zm373 8q3.2 2.3 10 1l1.5 1.5-1.5-.5-3 3-4.5 3.5q2.3 1.3-.5 2.5l-1-1-6.5 6.5.5 1.5-1-1-2.5 2.5-.5 1.5-.5-4.5q1.8-.7 1-4l-.5-1.5 1.5.5 1-3-.5-1.5 1.5.5 1-2-.5-1.5q1.2 2.3 2.5-.5zm16 2-.5 1.5 1 1-1.5 6.5-1-4-5 4q-2.5-1-1-2 1.5 2.5 3-1l3.5-2.5-1-1zm-366 2 3 1 1.5-.5-2.5 2.5-1-1-1.5.5zm13 0 1.5.5-2 1 6 1q-2 1 0 2l-1.5 1.5-1-1-4 4-5.5 4.5.5 1.5-1-1-3.5 3.5-2 3 .5 1.5-1-1-1.5.5q1.8-2.2 1-7l-.5-1.5 1.5.5 2-5-.5-1.5 1.5.5 2-3-.5-1.5q1.3 2.3 2.5-.5l.5-1.5q4 1 5-1Zm11 5 .5 6.5h-1l-.5-3.5-3 2-.5-.5 2-2-.5-1.5q1.5 2.5 3-1Zm2 19 .5 2.5h-1zm-11 3 .5.5-4.5 4.5-.5-.5z" opacity=".937"/><path fill="#4ea5dc" stroke="#4ea5dc" d="m432.5 264 1.5.5-2 1 3 1-2.5 6.5-1.5-7.5zm27 0 1.5 1.5v7l-1 1v8l-1 1v9l-1 1v9l-1 1v9l-1 1v8l-1 1v9l-1 1v9l-1 1-.5 10.5-1.5-.5v-7l-1-3h1l.5 1.5.5-8.5-1-2h2q1.2-6.2-1-9h2q1.3-6.8-1-10h2q1.2-6.2-1-9h2q1.2-6.2-1-9l2-1q1.2-6.2-1-9h2v-6l-1-3 2-1-1-10zm-369 5 2.5.5v4l-2.5 5.5-1.5-5.5h2v-3zm28 0 1.5.5q.8 3.3-1 4v9l-1 1v9l-1 1v9l-1 1v9l-1 1v8l-1 1v9l-1 1v9l-1 1v8l-1 1-.5 5.5-2.5-.5 1-2-1-2h2q1.3-6.8-1-10h1l.5 1.5.5-8.5-1-2h2v-7l-1-3h2q1.2-6.2-1-9h2q1.2-6.2-1-9h2v-7q-1.7-.7-1-4h1l.5 1.5.5-6.5-1-3h2v-6l-1-3 2-1zm-30 10 1.5 2.5q-1 1.5-2-1zm341 9 1.5 5.5-3.5 7.5-1.5-6.5h2q1-4-1-5h2zm-342 6q2.5 1 1.5 5.5l-2 3-1.5 5.5-1.5-4.5 2-1q1-4-1-5h2zm338 15 1.5 9.5-4.5 8.5-1.5-3.5h2q1-4-1-5h2q1.2-4.8-1-6h2zm-342 8q3 1.5 1.5 7.5l-2 3-1.5 5.5-.5-5.5-1-1h2q1.2-4.7-1-6h2zm337 21q2.6 2.4 1.5 8.5l-2.5 1.5-1.5-6.5h2zm-341 2 .5 6.5 1 2-1 3-.5 1.5-3.5-.5q2-1 0-2l.5-1.5 1.5.5q.7-4.2-1-6h2z" opacity=".988"/><path fill="#6ed850" stroke="#6ed850" d="m608.5 155 12.5 6.5-4.5 8.5.5-1.5 3-7-10.5-5.5-9 12-.5-.5 2-2zm-9 14 .5.5-2 2-4.5 6.5-.5-.5 2-2zm15 4-.5 1.5-13.5 26.5.5-1.5zm-22 6 .5.5-2 2-4.5 6.5-.5-.5 2-2zm-7 10 .5.5-2 2-4.5 6.5-.5-.5 2-2zm-7 10 .5.5-2 2-25 37-3.5 3.5-26-25-8 11-.5-.5 2-2 6.5-9.5 26 25zm19 7-.5 1.5-13.5 26.5.5-1.5zm-84 23 .5.5-2 2-6.5 9.5-.5-.5 2-2zm68 8-.5 1.5-13.5 26.5.5-1.5zm-77 5 .5.5-2 2-6.5 9.5-.5-.5 2-2zm-6 12 7.5 3.5-1.5.5-6-3zm9 4 9.5 4.5-1.5.5-8-4zm11 5 7.5 3.5-1.5.5-6-3zm9 4 7.5 3.5-1.5.5-6-3zm9 4 9.5 4.5-1.5.5-8-4zm27 1-.5 1.5-4.5 8.5-2.5-1.5 1.5-.5 1.5.5zm-16 4 7.5 3.5-1.5.5-6-3z" opacity=".996"/><path fill="#73c5fb" stroke="#73c5fb" d="m431.5 267 .5 6.5-1 1-1.5 8.5-.5-4.5 1-1zm-314 2 .5 7.5h-1zm-27 1 .5 3.5h-1zm368 0 .5 5.5h-1zm-369 5 .5 5.5-1.5 4.5-.5-3.5 1-1zm368 4 .5 6.5h-1zm-341 1 .5 6.5h-1zm312 4 .5 5.5-1 1-.5 4.5-.5-4.5 1-1zm-341 2 .5 7.5-1 1-1.5 8.5-.5-4.5 1-1zm369 1 .5 7.5h-1zm-341 2 .5 6.5h-1zm311 7 .5 6.5-1 1v5l-2 5v5l-1 1-.5 4.5-.5-4.5 1-1v-5l1-1v-4l1-1v-5l1-1zm29 1 .5 7.5h-1zm-341 1 .5 7.5h-1zm-30 6 .5 6.5-1 1v5l-2 5-1 13-1 1v4l-1.5 4.5-.5-4.5 1-1v-5l1-1v-5l1-1v-5l1-1v-4l1-1v-5l1-1zm370 2 .5 7.5h-1zm-341 1 .5 7.5h-1zm340 8 .5 8.5h-1zm-341 1 .5 7.5h-1zm309 9 1.5 2.5-2 5v5l-1.5 4.5-.5-4.5 1-1v-5l1-1zm31 0 .5 7.5h-1zm-341 1 .5 7.5h-1zm340 8 .5 8.5h-1zm-341 1 .5 8.5-1 1-.5 8.5-.5-8.5 1-1zm308 8 .5 4.5h-1zm32 1 .5 7.5h-1zm-373 1 .5 4.5h-1z" opacity=".988"/><path fill="#ef1e27" stroke="#ef1e27" d="m475.5 51 7.5 21.5v4l-1 1v8l-1 1-1 16-1.5 2.5-4.5-3.5v-40l1-1zm-27 2 1.5 3.5v17l1 1-1 1v17q2 1 0 2v3l-1.5 3.5-2 1-.5-4.5 1-1v-37l1-1zm-314 4 7.5 21.5-1 1-1 16-1 1v7l-1 1-.5 5.5q-2.2-3.3-6.5-4.5l1-1v-16l1-1v-29zm-28 1 2.5 4.5v22q-2.3 1.3-1 6l1 1v9q-1.8.7-1 4l-3.5 3.5.5-1.5v-22l1-1zm99 129 1.5.5 12 23 3.5 4.5 20-12 6-3h2l8.5 16.5 6 9-28 16 5 11 2 2 8 15-26.5 14.5-16-28-13 8-9 4-2 2-4 1-6.5-12.5-2-2-4-9-2-2 28-16-15-28z" opacity=".996"/><path fill="#f3574e" stroke="#f3574e" d="m473.5 50 1.5.5v10l-1 1-.5 39.5-1.5-1.5v-13l1-1zm-28 2 2.5.5v6l-1 1v37l-1 1-.5 5.5-.5-48.5 1-1zm-314 3 2.5.5-1 3v29l-1 1-.5 16.5zm-27 1 2.5 1.5-1 1v25l-1 1-.5 22.5z" opacity=".996"/><path fill="#c0b193" stroke="#c0b193" d="m420.5 23 1.5.5-1.5 1.5-3.5.5-2 19 11 21h-1l-11-21v-6l1-1v-7q2-1 1-5l1.5-1.5zm6 0 2.5.5-2.5.5zm-340 4q1.5 1-1 2l-3.5-.5zm-11 1 3.5.5-3 1q.8 3.3-1 4v7l-1 1v8l12 22q-1 1.5-2-1l-11-20v-10l1-1v-8zm378 23 1 10 9-10 .5.5-6 6-3.5 5.5-1.5-.5zm15 0 .5 16.5 1 1L453.5 88l-.5-11.5 1-1 1-7 3-6zm-.5 3-10 11-3 7q1 4-1 6l1 7 13-15zm-344.5 1 .5.5-10 10-2.5 4.5.5-1.5q-2-2.5-1-8l1.5-4.5.5 4.5q-2 1-1 5l.5.5 3.5-3.5 5.5-6.5zm3 2 1.5.5v16L113.5 91l-1.5-.5v-12l2-6q4.3-9.7 12.5-15.5Zm.5 1-10 11-4 11 1 9 13-15zm314.5 13 .5 4.5h-1zm-10 4 1.5 3.5h-1zm37 0 1.5.5v15l-6.5 7.5-3-1-2.5 1.5-.5 1.5q-.7-1.7-4-1l-1.5-1.5 2-5zm.5 2-14 16-1 4v1q5 1 7-2h4l4-5zm-342.5 4 1.5.5v12l1 1-6.5 7.5h-4l-3 2q-1-2-2 0l-2.5-1.5 2-6zm.5 1-12 14-3 7 2-1 2 1q1-3 7-2l4-5zm315.5 6 .5 2.5h-1zm-315 13 1.5.5-.5 1.5-2.5-.5zm-13 12 .5 5.5h-1zm4 2 .5 2.5h-1zm325 4 .5 2.5h-1zm37 4 .5 4.5h-1zm-22 2 .5 1.5-9.5 10.5-1.5-.5-1-5 3.5-4.5q2.2-1.8 7-1zm-5.5 2-2 1-3 4q-1 3 2 4l7-8zm11.5-1q6.1.9 9.5 4.5l-1 5-25.5 27.5-1.5-8.5 4-12 12.5-15.5zm.5 1-14 16-3 7q1 4-1 6l2 5 23-25 1-4-2-3zm-347.5 3 1.5.5-.5 2.5-1.5-2.5zm-7 1 8.5 5.5-1.5-.5-5.5-.5-2-3zm13 0 8 3q2.8 5.3 9.5 6.5l-.5 1.5-2-1-2 1-5-6-1.5.5 1 2-1.5.5-5.5-4.5q-1.7-1.5-.5-3.5Zm2.5 2-1 1 4 3 1-2zm-17.5 2 1.5.5-.5 10.5-1.5-1.5-1-5zm13 2 3 1 4.5 3.5-.5 1.5-5-3-2.5-2.5zm-6 2q4-.5 4.5 2.5l9 11q1.8 2.2 1 7l-3 2q2.3 1.3-.5 2.5l-1.5-.5 3-5v-3L116.5 140l-1.5.5 1 3 5 6v2l-3.5 3.5q-4.2-.7-5 2l-4-3-2 1-.5-1.5 1.5-2.5q.8 1.8 4 1 2.3-1.7 1.5-6.5l-1-2zm-.5 3q-3 1-1 3 1 4-1 7l-3 2 3 1 5-1 2-2v-2zm-10.5-1 .5 2.5-1.5 1.5-5 1-2 2 .5-1.5.5-1.5q4.7-.8 7-4Zm367 1 1.5.5v13l-2 6-23.5 25.5-2.5-.5v-10l4-10zm.5 1-22 24-4 11v8h2l22-24 1-6 1-1zm-346.5 0 1.5 2.5q-1 1.5-2-1zm4 4 2.5.5-.5 3.5-3.5-2.5zm-28 8 1.5.5 2 6 3.5 3.5 3.5 1.5-.5 1.5-5-2-3.5-3.5v-3l-2-4z" opacity=".984"/><path fill="#c0b193" stroke="#c0b193" d="m125.5 156 .5 1.5-4.5 6.5h-2l-4.5-4.5 1.5-1.5h7zm-8.5 3-1 1 5 3 3-3v-1l-2 1q-1-2-5-1Zm-26.5-2 3.5 2.5 6.5 8.5 4.5 2.5-.5 1.5-3-1-5.5-5.5-6-8zm49 0 1.5.5-2.5 1.5q-1.5-1 1-2Zm-61 2 6.5 7.5v3h-1l-4-5-2-4zm32 0 9.5 8.5 1 3v10l-1.5.5-.5-9.5-2-4-7-8zm24 2 2.5.5-10 8-1 7 1 3-1.5.5-1.5-8.5 1-3 4.5-4.5zm-47 1 3.5 2.5 1 4q-1 1.5-2-1v-2l-3-3zm59 0 .5 1.5-2.5 5.5-.5-3.5z" opacity=".984"/><path fill="#c0b193" stroke="#c0b193" d="m113.5 168 2.5 1.5-.5 4.5-3.5-3.5.5-.5 2 2 .5-.5-2-3zm44 0 .5 1.5-1.5 1.5h-5l-6 2-.5-1.5q3-3 10.5-1.5zm312 0 1.5.5v7q-2 1-1 5l-4 9-22.5 23.5-1.5-.5v-6q1.8-.7 1-4l4-9zm.5 1-22 25-5 13 1 5 22-24 2-4 1-8 1-1zm-373.5 1 6 4 6.5.5-.5 1.5h-7l-5.5-4.5zm43 1q2.5 1 1 2l-1.5-.5zm-64 1h16l5.5 4.5 2 11 2 4q-1 1.5-2-1l-3-7-1-6-3.5-3.5h-15q-2.5-1-1-2Zm54 0 3.5.5-.5 1.5q-3.8.5-3-2Zm26 1 .5 2.5-2 1-.5 1.5-5 2h-7l-.5-1.5 8.5-.5 3-1 2.5-2.5z" opacity=".984"/><path fill="#c0b193" stroke="#c0b193" d="M65.5 174h3l5 3 7 1 2.5 1.5-.5 1.5-7-1-6-4-4.5-.5zm48 1 3.5 4.5-.5.5-2-2-2.5-.5zm25 0 1.5.5-.5 2.5q-2.4-.9-1-3Zm-50 1 1.5.5-.5 1.5-1.5-.5zm41 1 5.5.5q-3.4.1-4.5 2.5-2.4-.9-1-3Zm-39 3 2.5 1.5-1.5-.5q-2.4-.1-1-1Zm17 0 1.5.5-.5 2.5q-2.4-.9-1-3Zm28 0 2.5.5-3.5 1.5q-1.5-1 1-2Zm-34 1 2.5.5 2.5 3.5 3.5.5-1.5 1.5-6 1v-1l2.5-.5-1.5-3.5-2.5-.5zm35 2q5.5-1 8 1l7 7 3.5 1.5-.5 1.5-6-3-7-6h-5l-11 8-.5-1.5 7.5-6.5zm-12 1 1.5 1.5q-2 1 0 2l-2.5 2.5-1.5-2.5 2-1zm35 0q4.1-.6 5.5 1.5l1 2-1.5.5-1-2h-5l-1 1-6 1-.5-1.5 3.5-1.5h4z" opacity=".984"/><path fill="#c0b193" stroke="#c0b193" d="M137.5 187q3.8-.7 4.5 1.5l-.5 1.5-3-1q-2.5-1-1-2Zm-44 2q3-.5 3.5 1.5l3 6-3.5.5-4-6-4 2h-4l-1-1-9.5-.5 1.5-1.5h7q1 2 5 1zm.5 1-1 1 4 5h2l-2-3zm26.5-1 .5 2.5q-1.7.8-1 4l1 2-18.5 20.5-1.5-.5v-8l3.5-6.5 1.5-.5-.5-1.5-1.5-.5.5-1.5h2l7.5-7.5.5-1.5q4.7 1.3 6-1Zm-4.5 2-6 7-4 3 1 2-2 1-3 6 1 6 17-18-1-2q-1-4 1-4zm18.5-2 1 2 1-1 5 5 5.5 4.5-1.5.5-11.5-9.5zm-29 3 1 1 1.5-.5-.5 1.5q-3.8-.7-2-2Zm361 1 1.5.5v7l-1 1v4l-2 6-22.5 24.5-3.5-.5v-5l4-11zm.5 1-23 26-4 11 1 4 2-1 21-22 2-6v-5l1-1zm-376.5 2 1.5.5-.5 1.5q-5.6.9-9 4v-1l1.5-.5.5-1.5zm36 0-.5 1.5v11l-3 9-21.5 22.5-3.5-.5v-6l4-10zm-1.5 4-22 24-4 10v5h3l20-22 3-8zm-34.5 0 .5 1.5-11.5 9.5-.5-.5 9.5-9.5zm374 17 1.5.5-1 11-2.5 7.5h-5l-1-1-6.5-.5 3-5zm.5 1-14 16 11 1 2-6v-7l1-1zm-342.5 4 1.5.5v9l-1 1-1.5 7.5-3 1-1-1-8.5-.5v-2zm.5 1-13 16h9l1 1 1-1 1-7 1-1zm-15.5 19 5.5.5-5.5.5zm336 21 .5.5-5 5-4 9-1 9 .5.5 4.5-4.5 15-17-9-2 4.5-.5 6 2 1.5-.5-22.5 23.5-1.5-.5q.1-17.4 10.5-24.5Zm-340 4 1 1h5l4.5 1.5L93.5 293l-1.5-.5q-.2-17.2 9.5-24.5l-.5 1.5-6 9-2 6v6l.5.5 8.5-8.5 11-12-3.5-1.5h-5q-2.5-1-1-2Zm353 2 .5 1.5-1 1v7l-1 1q1.2 6.2-1 9L431.5 313l-2.5-1.5 1-8 4-9zm-1.5 4-20 22-5 15 1 2 21-22 2-3v-7l1-1zm-341.5 3 1.5.5q.8 3.3-1 4v8l-1.5 3.5-.5-2.5 1-1v-8l1-3-.5-.5-2.5 2.5-17 19-4 9-1 9 .5.5 2.5-2.5 19.5-21.5.5.5-5 5L89.5 318l-1.5-.5v-6l4-12zm339 18 1.5.5q.8 3.3-1 4v8l-2 6-24.5 27.5-1.5-.5v-7l5-13zm.5 1-14 17-8 8-5 13 1 5 22-24 3-8v-7l1-1zm-341.5 3 .5 9.5q-2.2 1.3-1 6l-3 6L85.5 344l-2.5-1.5 1-7 5-12zm-.5 3-22 25-4 10v6l-1 1h2l22-25 2-5v-4l1-1zm338.5 19 1.5.5q1 4-1 5v8l-1 3q-4 9-11.5 14.5l-.5-.5 7-7 4-7 2-15-.5-.5-4.5 4.5q-8.4 11.6-19 21l-2.5 4.5-.5-1.5zm-340 3-.5 1.5 1 1-1 1v8l-1 1-1 7-2 4-8.5 9.5-.5-1.5q6.4-4.6 10-12l1-7 1-1v-8h-1q-9.4 12.6-21 23l-4.5 6.5.5-1.5 2-4zm337 23 1.5.5-.5 5.5-1-5-3 4-2 1-.5-.5zm-341 4 1.5.5q.6 4.1-1.5 5.5l-1-3-3 3-.5-.5zm260 3 .5 1.5-1.5.5q-1.5-1 1-2Zm-4 1 .5 1.5-1.5.5q-1.5-1 1-2Zm-4 1 .5 1.5-1.5.5q-1.5-1 1-2Zm-3 2 2.5 1.5.5 1.5 1.5-.5.5-2.5.5 2.5-1 1 .5 1.5-2-1-.5 1.5q2 1 0 2l-.5 7.5-1.5.5 1.5 3.5 1-2 1.5.5-1 2v8l-1 3q2 1 0 2l1 2-1.5 2.5-1.5-.5-.5 2.5-1.5-.5 1-2q-2-1 0-2l-1-3q2-1 0-2l1-4-1.5-.5-1 11-.5-13.5 1-1v-19zm.5 1-2 5v18h2v-1l-1-3 1-2-1-3q3-2 1-3l1-2-1-1zm2 19-1 6h1zm-1 11-1 4h1zM15.5 360l1.5.5-1 2h2l-.5 8.5-1-7-.5 7.5 2 1-1 2v10l-1 2q2 1 0 2l-.5 5.5-1-5-1.5 3.5 1 3-1 1 .5 1.5-1.5-.5q-1.2-4.8 1-6l-1-1v-7l2-2-.5-.5-1.5-.5q3.5-1.5 1-3-1-4 1-5l-1-2 2-1-2-1 .5-2.5 1.5-.5-1-2q2-1 0-2zm.5 12-2 4h2v-1q2-2 0-3Zm0 5-1 7-1 1 1 3 1-3z" opacity=".984"/><path fill="#c0b193" stroke="#c0b193" d="m11.5 364 .5 14.5-1 1-.5 19.5q-2-.5-1.5-3.5l1-1v-18l1-1zm347 1 .5 6.5h-1zm2 30 2.5.5-.5 1.5-2.5-1.5zm-348 4 3.5.5-.5 1.5-3-1zm410 11 2.5 1.5-3.5 5.5-.5-5.5zm.5 1v3q3-1 0-3Zm7.5 0 3 1 9.5.5-.5 1.5q-9.8 6.7-17.5 15.5l-4.5 5.5-.5-7.5 2-6zm.5 1-6 7-4 10 1 4v-1l19-18-8-1zm16.5 2 .5 6.5-2 5 1 2-2 1 .5 1.5-6 5-1-1h-11l-1.5.5q2-1 0-2l4.5-4.5 1 1 4.5-4.5 1.5-2.5zm-.5 2-3 3 2 4v-4l1-1zm-366.5-1 4.5.5-4.5 5.5-1.5-.5q-1-4.5 1.5-5.5Zm.5 1-1 3h1l2-2zm8.5 0 11.5 1.5-1.5 2.5L87 430.5 78.5 442l-.5-6.5 1-1v-4l2-5 6.5-8.5.5 1.5-4 4-4 8q.8 4.8-1 7l.5.5 3.5-3.5 8.5-9.5 7.5-6.5-9.5-1.5zm15 4 1.5.5v10l-2 2 .5 1.5-3.5 2.5 1 1-5.5 5.5-.5-.5 2-2-1.5-1.5-11.5-.5 9.5-10.5zm.5 1-3 3h2v4h1zm342.5 13 .5 1.5-1.5 3.5-3.5-.5zm-343 5q2.8 1.3.5 2.5l-.5 2.5-3.5-.5zm2 4 .5 3.5h-1z" opacity=".984"/><path fill="#ff1b00" stroke="#ff1b00" d="m611.5 6 .5 6.5h-1zm-341 10 .5 2.5h-1zm342 1 .5 3.5h-1zm-341 7 .5 4.5h-1l-1-2zm342 4 .5 2.5h-1zm-341 8 .5 3.5h-1zm342 1 .5 3.5h-1zm1 7 .5 8.5h-1q1-4-1-5zm-342 2 .5 3.5h-1zm1 10 .5 3.5h-1zm342 1 .5 4.5q-1 1.5-2-1zm-341 9 .5 4.5h-1zm342 1 .5 5.5h-1zm-341 7 .5 5.5-1.5.5.5-1.5z" opacity=".004"/><path fill="#d7cfc1" stroke="#d7cfc1" d="M460.5 100h5l6 2 7.5 5.5 2 3v12l-1.5 4.5q-3.2-4.8-9-7l-3-1h-5l-2.5-1.5zm-7 1 2.5.5-.5 18.5-2-1-6 2-3.5 3.5-.5 1.5-.5-3.5 1-1v-13l4.5-5.5zm-333 4q13.5.6 18.5 9.5l-.5 16.5-11-7h-4l-1-1-4.5-.5q-1-4 1-5v-11zm-9 1 2.5 1.5v11q2 1 1 5l-7.5 1.5-4.5 3.5-.5 1.5-.5-14.5 3.5-6.5zm-2 40 .5 3.5h-1zm-34 9 3.5 3.5-.5.5-3.5-3.5zm83 13 4.5.5-4.5.5zm-49 6 3.5.5-3.5.5zm-8 18 2.5 2.5-.5.5-2.5-2.5zm46 10 .5 2.5h-1zm-67 8 .5.5-2.5 2.5-.5-.5zm357 28 5.5.5-1 1v4l-1 1-1 10-1.5 4.5h-6l-1 1-.5-10.5 1-1v-8l1.5-1.5q3.3.8 4-1Zm11 0h12l1 1 8 1 4.5 2.5v11l-1 1-.5 9.5-4-2-8-1-1-1-13-1-1.5-1.5q-1-4 1-5v-10zm-354 5q5.3-1.2 6.5 1.5l-1 7-1 1v4l-1 1v4l-1.5 2.5h-6l-1 1-.5-1.5 1-1v-14l2.5-4.5zm11 0h15l1 1 7 1 4.5 3.5v6l-1 1v9l-1.5 4.5-6-3-10-1-1-1-9.5-.5v-10l1-1zm308 159 2.5.5-2.5.5zm7 1 3.5.5-3.5.5zm8 1 3.5.5-3.5.5zm8 1 3.5.5-3.5.5zm8 1 2.5.5-2.5.5zm-371 1 3.5.5-3.5.5zm8 1 3.5.5-3.5.5zm8 1 3.5.5-3.5.5zm8 1 3.5.5-3.5.5zm8 1 2.5.5-2.5.5zm330 13 .5.5-9 9 .5.5h11l1 1 5-5 .5.5-11.5 10.5-2 1h-9l-.5-1.5q1.8-.7 1-4zm-343 6 .5.5-8 8 .5.5h11l1 1 6-6 .5.5L89.5 448l-1-1-8.5-.5 3-7zm355 3 .5.5-5 5 .5.5 3.5-.5.5-2.5.5 5.5-1.5 1.5h-8l-1 1q-2.5-1-1-2 1.3 2.3 2.5-.5l1.5-2.5zm-345 8-1 3 3.5-.5.5-2.5.5 4.5-1.5 2.5-8.5-.5 1.5-2.5z" opacity=".992"/><path fill="#fbf6f4" stroke="#fbf6f4" d="m476.5 343 3.5.5-3.5.5zm17 1 3.5.5-3.5.5zm15 1 6.5.5-6.5.5zm16 1 7.5.5-7.5.5zm16 1 8.5.5-8.5.5zm-402 1 3.5.5-3.5.5zm419 0 9.5.5-9.5.5zm-403 1 5.5.5-5.5.5zm17 1 5.5.5-5.5.5zm16 1 7.5.5-7.5.5zm16 1 9.5.5-9.5.5zm16 1 5.5.5-5.5.5zm273 59 2.5.5-2.5.5zm-371 1 2.5.5-2.5.5zm379 0 2.5.5-2.5.5zm-371 1 2.5.5-2.5.5zm378 0 3.5.5-3.5.5zm-370 1 2.5.5-2.5.5zm378 0 3.5.5-3.5.5zm8 1 3.5.5-3.5.5zm8 1 3.5.5-3.5.5zm-371 1 3.5.5-3.5.5zm378 0 3.5.5-3.5.5zm-370 1 2.5.5-2.5.5zm378 0 4.5.5-4.5.5zm-370 1 2.5.5-2.5.5zm378 0 3.5.5-3.5.5zm-371 1 3.5.5-3.5.5zm8 1 3.5.5-3.5.5zm8 1 3.5.5-3.5.5zm7 1 4.5.5-4.5.5zm8 1 4.5.5-4.5.5zm223 12 .5.5-5 5 .5 1.5 5-3v2h8l1-1 1.5 4.5q-2.7 3.8-7.5 5.5l-7 1-1 1h-8l-1.5 1.5-3.5 6.5-3.5-4.5v-11l1.5-3.5 2.5-1.5 1.5-3.5.5 1.5-1 2 9.5.5zm-342 5 .5.5-5 5 .5 1.5h2l3-3v2l8.5-.5.5-1.5q.1 3.4 2.5 4.5l-1.5 2.5-7 4-8 1-1 1h-6l-2.5 2.5-2.5 4.5-2.5-.5-2-10q2.2-1.2 1-6l1.5-1.5 1.5-.5 1.5-3.5.5 1.5-.5 1.5h8l1 1z" opacity=".776"/><path fill="#2683b8" stroke="#2683b8" d="m75.5 414 .5 2.5h-1zm378 1 5.5.5-5.5.5zm-341 3 1.5.5-2 1 9 1-.5 1.5-1-1h-7l-1.5.5q-.5-3 1.5-3.5Z" opacity=".886"/><path fill="#d4c6c2" stroke="#d4c6c2" d="m590.5 6 3.5.5-3.5.5zm-344 5 3.5.5-3.5.5zm357 67 2.5.5-2.5.5zm-11 1 4.5.5-4.5.5zm-333 4 6.5.5-6.5.5zm-10 1 2.5.5-2.5.5zm300 263 7.5 1.5-4.5.5-3-1zm18 1 5.5 1.5-3.5.5-2.5-1.5zm7 1h12l1 1h17l1 1h6l6 2 4-2q1.4 3.6 6.5 3.5l-1 5q2 1 0 2v9l-2 6q2 1 0 2l1 4-1 3v6l-1 1 1 2-1 1v12l-1 1v6l-1 1 1 2h-2l1 5q-2 1 0 2l-.5 2.5q-5.7-1.2-7 2l-5-3-3 2-1-1-14-1-1-1h-7l-1-1h-6l-1-1h-7l-1-1-5.5-.5 5.5-.5 1 1h7v-1h-6l-1-1-5.5-.5 2-3-2-2 .5-.5 3 2 .5-1.5-2-4q2-1 1-5l-1-2 2-5-1-3 1-3-1-3 2-1-.5-1.5 1.5.5-1-5 1-1-.5-1.5 1.5.5 1-2-3-6 1-2q-2-1-1-5l2-1-2-2 3-3-.5-1.5 1.5-.5-1.5-1.5-1.5.5.5-1.5 2 1q2.5-1 1-2l-1.5-.5-1-2 3.5-.5q1 2 2 0l9.5-.5-10.5-.5zm12.5 2v1h14zm-12 2-1 6q1 1 2-1zm-1 10-1 7-1 1h2l1-4zm4 2-1 2q1 1 2-1zm-8 1v4l1-3zm2 6-1 2q1 1 2-1zm1 5-1 4q1 1 2-1zm-2 6-1 4h1zm5 2v3-1h2v-1zm-4 4q-2 3 0 5h1zm4 0-1 4h1zm-5 9-1 2q1 1 2-1zm0 5-1 3q1 2 2 1 1-4-1-4Zm0 4q-3 1-2 5h2l-1-1 1-1zm-1 6-2 3 2 3 1-2zm5 5q-3 1-1 2h1zm3 4v1h5zm7 1v1h5zm16 2v1h4zm-401.5-73 3.5.5-3.5.5zm14 0 5.5 1.5-3.5.5-2.5-1.5zm12 1 3.5.5-3.5.5zm5 0 2 1h17l1 1h17q1 2 5 1l3 2q1-2 2 0 3.3.8 4-1l1 2 1.5-.5q-2.2-1.2.5-2.5l.5 4.5 1 1v9l-1 1v10l-2 2 1 1v9l-2 1 1 2-2 1 .5 1.5 1.5-.5-.5 3.5-1.5-.5.5 3.5 1-2 .5 1.5-2 4 1 1v8l-1 3-.5 11.5q-4.2-.7-6 1l-4-2-1 1-1.5-.5-.5 1.5-3.5-1.5-.5-1.5q-.5 2.5-4 2l-1-1-14-1-1-1h-7l-1-1h-6l-1-1-5.5-.5 6-1-1-1 .5-1.5-1.5.5-.5 1.5-2-1-1.5.5q1.8-.8 1-4-2-1 0-2l-1-3q2-1 0-2l.5-1.5 2.5-.5-2-3 1-3-1-1 1-1-.5-1.5 2.5-1.5-1-2 2-1-3-1 1-2-1-2q2-1 0-2l2-3 1-10-1-1q3.5-1.5 1-3l-1-3 1.5-2.5 1 2 .5-3.5h-2l-1-2 1.5.5q3.2-.7 4 1l1.5-4.5q-1-2.5-2-1l-.5 3.5-2.5-1.5q2.3-1.3-.5-2.5l-1.5.5 1.5-2.5 2.5-.5-2-1 .5-1.5 1.5-.5zm1.5 2v1h16zm21 1v1h3zm5 0v1h3zm-19 5-1 4h1zm-7 13-1 5h1zm-1 9v10-4l1-1-1-2q2-2 0-3Zm4 6v1h2zm-5 4-1 2h2q1-1-1-2Zm0 5-1 4h1zm0 8q-2 2 1 3v-2zm-1 4v7l1-2zm4 1-1 2h2q1-1-1-2Zm47 10-1 3h1zm0 4-1 3h1zm-50 1v1h6zm8 1v1h5zm8 1v1h4zm9 1v1h2zm306.5-75-.5 1.5-.5 3.5-.5-3.5z" opacity=".102"/><path fill="#d4c6c2" stroke="#d4c6c2" d="m567.5 376 1.5 2.5q-1 1.5-2-1zm-25 42q3-.5 3.5 1.5l-1.5-.5q-3 .5-2-1Zm9 1 2.5 1.5-1.5-.5q-2.4-.1-1-1Zm7 1 2.5.5-.5 1.5-2.5-1.5zm-337 1q2.5 1 1 2l-1.5-.5zm-18 2 2.5 1.5-1.5-.5q-2.4-.1-1-1Zm8 1 2.5 1.5-1.5-.5q-2.4-.1-1-1Zm8 1 2.5 1.5-1.5-.5q-2.4-.1-1-1Zm232 8 .5 7.5h-1zm9 3 .5 4.5h-1zm-350 2 1 6 7.5-.5.5-4.5.5 5.5-1.5 2.5-1.5-.5-.5 1.5-3.5-.5-.5-1.5-2 1zm343 1 5.5.5-.5 3.5-5.5-.5zm-37 4 1.5 2.5h-2l.5 12.5 1.5.5-.5 1.5 2.5 1.5-.5 1.5 1.5.5-1.5.5-3.5-3.5-1-3v-12zm35 1 .5 1.5-4.5 5.5-8 4-13.5 1.5q-.6 3.9-3.5 5.5v-3l1.5-.5-.5-1.5 1.5-.5q-2.2-1.2.5-2.5l1 1h9v-1l-1.5-.5 1.5-.5q.7 1.8 4 1v-2l2 1 3.5-1.5-.5-1.5q1 2 2 0l1.5-.5q-2.2-1.2.5-2.5l1.5-.5-.5-1.5 1.5.5zm-377 5 1.5 5.5h-1l-1-3zm35 0 .5 2.5-4.5 4.5-1.5-1.5 1.5-1.5q1.3 2.3 2.5-.5l-.5-1.5 1.5.5zm-36 4 1 8 1-2 .5 1.5-1 3 2 2-.5.5-1.5-.5-2-5zm29 2q3 1.5 0 3l-6 2h-3l-1 1h-7l-2.5 2.5-.5 2.5-2.5-.5 2-1-.5-1.5 1.5-.5-.5-1.5 2-1 8.5-.5-2-1 1.5-.5q.8 1.8 4 1v-2l3 1 3.5-1.5z" opacity=".102"/><path fill="#a36f65" stroke="#a36f65" d="m548.5 10 1.5.5-4 3 1 2-1 2 1 1 1 19 1 1v8l1 1q-2 1 0 2v8l2 6q-1.7.8-1 4l1 1v6l1 1q-2 1 0 2 .7 3.3-1 4l2 1-4.5 1.5-1-1h-6q-1.4 2.6-6 2-1.2-2.2-6-1-1.4 2.6-6 2l-1-1h-6q-.7 2.8-5 2l-1-1h-7l-1 2-2-1h-11v1l1.5.5-1.5.5q-1-2-5-1l-1.5-1.5h2v-7l-1-1h2l-.5-8.5-1.5.5 1-3h-2l1-3h-2l1-3h-2l1-3h-2l1-3h-2l1-3h-2q3.5-1.5 1-3l1-2-2-6q2-1 0-2v-7l-1-1v-12l2.5-1.5 8.5-.5-2-1 2.5-.5 1 1h7v-2q2.8 2.2 9 1l1-2 7 1q1.4-2.6 6-2 1 2 5 1 .8-2.7 5-2 1 2 5 1 .5-2.5 4-2 1.4 2.6 6 2l1-2zm-344 5 1.5.5-1 1v10l1 1v10l1 1v7l1 1-1 3 1 1q-1 5.5 1 8l-1 2 2 5q-2 1 0 2l1 18-2 1-.5 1.5-4 1-1-1h-6q-.7 2.8-5 2-1.3-2.2-6-1-1.7 2.8-7 2l-1-1h-6l-1 2q-3.2.8-4-1h-10v1l2.5.5-2.5.5-1-1h-11l-1.5.5q-.7-3.2 1-4v-7l-.5-1.5 1.5.5-.5-4.5-1.5.5 1-3h-2l1-3h-2l1-3h-2l1-3-1.5-3.5-1.5.5 1-3h-2l2-3-2-3q2-1 0-2v-10l-1-1v-7q-2-1-1-5 2-1 0-2l.5-2.5 9.5-.5-2-1 1.5-.5 1 1h7l1-2q2.5 2 8 1l1-2 8 1q.8-2.7 5-2 1 2 5 1 .8-2.8 5-2 1 2 5 1 .5-2.5 4-2l4 2 1-1 1.5.5.5-1.5zm14 71 2.5.5-3.5 1.5q-1.5-1 1-2Zm286 258 2.5.5-2.5.5zm16 1 2.5.5-2.5.5zm17 1 2.5.5-2.5.5zm17 1 2.5.5-2.5.5zm-387 2 2.5.5-2.5.5zm16 1 2.5.5-2.5.5zm17 1 2.5.5-2.5.5z" opacity=".463"/><path fill="#433c34" stroke="#433c34" d="m458.5 45 3.5 1.5-4.5.5q-1.5-1 1-2Zm17 0 2.5 2.5-.5.5-2.5-2.5zm-25 1 1.5.5q-1 2.5-5.5 1.5v-1q3.3.8 4-1Zm-328 3 3 1 1.5-.5-.5 1.5q-4.6.8-4-2Zm-8 1 2.5 1.5-3.5.5q-1.5-1 1-2Zm18 0q1 2 2 0l1.5 1.5-2.5.5q-2.5-1-1-2Zm-25 1 1.5.5-4.5 1.5v-1zm-6 3 1.5.5-.5 1.5-1.5-.5zm27 5 .5 6.5h-1zm-27 13 .5 10.5h-1zm357 27 .5 2.5q-1 1.5-2-1zm1 9 .5 2.5h-1zm-3 5 .5 3.5h-1zm-317 17 .5 3.5h-1zm-38 2 .5 2.5h-1zm374 17 .5 2.5h-1zm-341 1 .5 2.5h-1zm-2 2 .5 1.5q-1 2.5-2 1zm-18 7 6.5 6.5-1.5 1.5.5-1.5-6-6zm-17 14 2.5 2.5-.5.5-2.5-2.5zm25 4 .5 2.5h-1zm7 20-.5 1.5-.5 4.5-.5-4.5zm312 12 .5 2.5h-1zm-333 31 3.5.5-3.5.5zm-16 79 .5.5-2.5 2.5-.5-.5zm326 32 2.5 2.5-.5.5-1.5-.5zm19 2q1.5 1-1 2l-1.5-.5zm13 0 1 1 1.5-.5-2.5 1.5zm-353 2q3 1.5 0 3-1.2-2.2-2.5.5l-.5 1.5-1.5-.5zm329 0 2.5.5-2.5.5zm-317 3 1.5.5-3.5 1.5v-1zm-30 1 6.5.5-6.5.5zm8 1 3.5.5-3.5.5zm264 6 .5 2.5h-1z" opacity=".957"/><path fill="#1fa5e7" stroke="#1fa5e7" d="M452.5 414h7l4.5 1.5-1 1-.5 6.5-1-7-3-1h-5l-1 2-1.5-.5zm-342 4 .5 8.5h-1zm2 1 7.5.5-7.5.5zm9 0 .5 5.5h-1z" opacity=".824"/><path fill="#2d95c7" stroke="#2d95c7" d="m453.5 416 8.5.5-.5 6.5h-9l-1.5-1.5.5-4.5zm-341 5h7l1.5 1.5 1 5-1.5-.5-1 1h-5l-3.5-1.5q-1-4.5 1.5-5.5Zm-37 3 1.5 2.5q-1 1.5-2-1z" opacity=".729"/><path fill="#5098bc" stroke="#5098bc" d="m451.5 422 1 1 10.5.5q1 5-2 6v5l.5 1.5-1-1-8.5-.5q1.3-4.7-1-6zm-341 5 9 1 1.5-.5-.5 9.5-1.5.5-.5 3.5-4-2-3 1-.5-5.5-1-1z" opacity=".514"/><path fill="#778a14" stroke="#778a14" d="m269.5 11 .5 2.5h-1zm342 2 .5 5.5h-1zm-342 2 .5 3.5h-1zm1 5 .5 2.5h-1zm342 4 .5 2.5h-1zm0 6q2 .5 1.5 3.5h-1zm1 5 .5 2.5h-1zm0 4 1.5 2.5q-1 1.5-2-1zm-341 4 .5 4.5h-1zm1 9 .5 7.5 1 1q-1 1.5-2-1zm342 1 .5 2.5h-1zm0 4 .5 2.5q-1 1.5-2-1zm-341 8 .5 4.5h-1zm342 0 .5 3.5h-1zm-341 6 .5 2.5h-1zm342 2 .5 2.5h-1zm-342 2 .5 2.5h-1z" opacity=".016"/><path fill="#0000d6" stroke="#0000d6" d="m133.5 324 .5 5.5h-1z" opacity=".004"/><path fill="#bca49e" stroke="#bca49e" d="m499.5 15 7.5.5-7.5.5zm-9 1 7.5.5-7.5.5zm-10 1 8.5.5-8.5.5-1 1h-9v-1h9zm-19 2 6.5.5-6.5.5zm-305 1 6.5.5-6.5.5zm-10 1 7.5.5-7.5.5-1 1h-9l-1 1h-9v-1l19-1zm-29 3 7.5.5-7.5.5zm354 20 3.5.5-3.5.5zm5 0 3.5 3.5-.5.5-3.5-3.5zm-350 4 2.5.5-2.5.5zm353 2 7.5 20.5v8h-1v-8l-7-19zm-341 5 7.5 21.5v4l-1 1v7q-1.7.8-1 4l1.5-.5 22-1v1h-10l-1 1h-11l-2 1-.5-4.5 1-1v-7q2-1 1-5l-7-19zm347 25 .5 6.5-.5 1.5q4 1 5-1h11l1-1q1.5 1-1 2h-11q-1.2 2.3-6 1l-.5-1.5 1-1zm32 5 2.5.5-2.5.5zm-13 1 7.5.5-7.5.5zm-332 4 2.5.5-2.5.5zm242 252 2.5 1.5-2 1 1 8 3.5 4.5h8l3-1q1.5 3.5 3 1h10l1-1 7.5-.5 1.5-2.5q1 2 2 0l3-2 1.5.5.5-1.5 1.5.5.5-1.5q1 2 2 0l2.5-.5.5-1.5 1.5.5.5-1.5 2 1 2.5-1.5.5-1.5 24.5 1.5-11 1 1 5h-1q.6-4.1-1.5-5.5l-1.5.5 1 2q-3.5 1.5-1 3l-.5 8.5-1.5.5 1 2q-2 1 0 2 .8 3.3-1 4l1 3-2 5q2 1 1 5l-2 1 1 3-1 3 1 2q-2 1 0 2l-.5 1.5-1.5.5 1 3q-2 1 0 2v8l-1 1 4.5 1.5h6l1 1 5.5.5-5.5.5-1-1-15-1-2 1v-2q-5.5-1-8 1v-2h-5l-3 1-4-2q-.7 1.8-4 1l-3-2h-2l-2 1q-1.4-2.6-6-2l-2 1q-1.7-2.8-7-2l-1.5.5-.5-1.5h-6l-1 1v-2h-7l-1 1v-2l-5-1-2 1q-2.7-1.2-.5-2.5l1-3-1-2 1-3-1-2 1-1v-7l1-3q-2-1 0-2v-7l1-3-2-1 1-1-.5-1.5 1.5.5-.5-4.5-1.5.5 2-2-.5-1.5 1.5.5v-8l1-1-.5-1.5zm70 1 3.5.5-3.5.5zm22 3 7.5.5-7.5.5zm-435 1 2.5 1.5 1 3-2 1 2 1 1 2-2 1 2 1 .5 2.5 1.5.5.5 1.5h10l3-1 1 1h9l6-2 2 1 2-3q1 2 2 0l3-2 1.5.5.5-1.5 1.5.5.5-1.5 1 1 2-2 1.5.5.5-1.5 1.5.5.5-1.5 2 1 2.5-1.5q-.5-3 1.5-3.5v2h12l1 1 15.5.5-13.5.5-2.5 2.5.5 1.5-1.5-.5 1-2-1.5-2.5-1.5.5q2 2.5 1 8-2.3 1.3-1 6l.5 1.5-1.5.5 1 3-1 1 .5 1.5-1.5-.5q2.2 2.8 1 9l-2 6 2 1-2 1 2 5-1.5 1.5-1.5-.5 1 2 .5 10.5 2.5.5-2.5.5-1.5-.5q.8 3.3-1 4l1.5 2.5 3-1 .5 1.5-7.5.5-1 1v-2q-5.5-1-8 1v-2h-5l-3 1-3-2h-2l-3 1-3-2h-2l-3 1q-.8-2.7-5-2l-3 1q-1-3-6-2-1.5 2.5-3-1l-13-1-1.5.5-.5-1.5q-6.1 1.1-8.5-1.5v-14l1-2h-2l.5-2.5 1.5.5v-6l1-1v-12l1-1v-10l1-1v-6l1.5-1.5 2 1zm70.5 4-1 2h2q1-1-1-2Z" opacity=".612"/><path fill="#bca49e" stroke="#bca49e" d="m147.5 348 3.5.5-3.5.5zm2 12 .5 2.5h-1zm2 0 .5 2.5h-1zm336 0 .5 2.5h-1zm-341 3 .5 2.5h-1zm346 1 1.5 2.5q-1 1.5-2-1zm-348 7 2 1 1.5-.5-1.5 1.5-1-1-1.5.5zm347 2 .5 4.5h-1zm-7 7q2.3.8 1.5 4.5-1 2.5-2 1l1-4zm-342 4 2.5.5-2.5 1.5zm5 1 .5 3.5h-1zm-3 2q2.5 1 1 2l-1.5-.5zm341 4 .5 1.5-1.5 3.5-.5-3.5zm-1 6 .5 2.5h-1zm-340 2 .5 1.5-2.5 3.5-1.5-.5zm-2 10 .5 2.5h-1zm358 3 2.5.5-2.5.5zm-356 3 5.5.5-5.5.5zm8 1 4.5.5-4.5.5zm9 1 2.5.5-2.5.5z" opacity=".612"/><path fill="#965244" stroke="#965244" d="m597.5 5 1 1h8l2-1 2.5 4.5v9l1 1v7l1 3q-2 1 0 2v6l1 1-1 2 1 3q-1 4 1 5l-1 3q2.3 1.3 1 6-2 1 0 2l1 2q-1.2 6.2 1 9l-1 2 1 3-1.5 1.5q-1-2-2 0l-1.5.5-.5 1.5-1-1h-9l-1 2-2-1-9.5-.5.5-1.5 2 1-.5-1.5-.5-1.5q-1.2 2.3-2.5-.5v-7l-1-1 1-3-2-5 1-2q-2-1 0-2l-1-2v-10l-1-1q1.3-4.7-1-6v-9l-1-1q2-1 0-2l1-3-1-1-1-9 1.5-.5 1 9 .5-7.5 1-1q-1.2-2.7-6.5-1.5l-1 2-.5-2.5 10-1-.5-1.5 1 1h8zM587 11l-1 3h1zm1 10-1 5q1 1 2-1zm-2 3-1 8h1zm3 9-2 1v1h2zm-2 3-1 5h1zm1 8-1 5h1zm0 7v2l1 6h2v-3l-1 2-1-6zm4 9-1 3h1zm-2 4v2l-1 1 1 3q0-3 2-4zm3 6-1 3-1-1-1 2h2v3h1zM263.5 9l2 2 3.5.5v8l1 1 1 17 1 1q-2 1 0 2l-1 2 1 1q-.7 4.2 1 6-2 1 0 2l1 18 1 1v7l1 1-1.5 2.5-6.5 1.5-.5 1.5-1-1h-11v2l-1-1-10.5-.5 6-1-.5-1.5-2 1-1.5-7.5q2-1 0-2l-1-19-1-1v-7l-1-1q2-1 0-2l.5-3.5 1.5.5-.5-6.5-1 5-1.5-3.5q1.8-.7 1-4l-1-1q1.2-4.7-1-6v-8h1l.5 3.5 1.5-4.5-7-1 16-2 .5-1.5 1 1h8zM244 19l-1 3h1zm2 2-1 4h1zm-2 2-1 7h1zm3 11v4-1q2-2 0-3Zm1 4-1 2-2 1h2v2h-2l1 4v-1h2zm-1 12v8h1l-1-2 2-1v-4l-1 2zm2 6q-2 1 1 2v-1zm1 3-2 4 1 3h1zm-1 8-1 2 2 1v3l-1-3-1 8h3l1 1q-2-4-1-10zm3 13v3h1zm29.5 321 .5 3.5h-1zm-2 24 .5 2.5h-1zm180 15 .5 2.5h-1z" opacity=".067"/><path fill="#5abd46" stroke="#5abd46" d="m609.5 156 10.5 5.5-4 8 .5 1.5-1.5.5.5 1.5-1.5.5.5 1.5-1.5-.5 1 2h-2l1 2h-2l1 2h-2l1 2h-2l1 2h-2l1 2h-2l1 2h-2l1 2h-2l1 2h-2l-4 8 .5 1.5-1.5.5.5 1.5-1.5.5.5 1.5-1.5.5.5 1.5-1.5-.5 1 2h-2l1 2h-2l1 2h-2l1 2h-2l1 2h-2l1 2h-2l1 2h-2l-6 12 .5 1.5-1.5.5.5 1.5-1.5.5.5 1.5-1.5-.5 1 2h-2l1 2h-2l1 2h-2l1 2h-2l1 2h-2l1 2h-2l1 2h-2l1 2h-2l-5 10 .5 1.5-1.5.5.5 1.5-1.5.5.5 1.5-1.5.5.5 1.5-1.5.5.5 1.5-1.5-.5 1 2h-2l1 2h-2l1 2h-2l1 2h-3l.5-1.5-2 1-1-2-3-1-1.5.5.5-1.5-2 1v-2l-2 1-1-2-3-1-1.5.5.5-1.5-2 1v-2l-2 1v-2l-2 1-1-2-2 1v-2l-2 1v-2l-2 1v-2l-2 1-1-2-3-1-1.5.5.5-1.5-2 1v-2l-2 1-1-2-3-1-1.5.5.5-1.5-2 1v-2l-2 1v-2l-2 1-1-2-2 1v-2l-2 1v-2l-2 1v-2l-2 1-.5-1.5 1-1-.5-1.5 1.5.5 1-2-.5-1.5 1.5.5 1-2-.5-1.5 1.5.5 1-2q-2.3-1.2.5-2.5l2.5-1.5-.5-1.5 1.5.5 1-2-.5-1.5 1.5.5 1-2-.5-1.5 1.5.5 1-2q-2.3-1.2.5-2.5l2.5-1.5-.5-1.5 1.5.5 1-2-.5-1.5 1.5.5 1-2-.5-1.5 1.5.5 1-2q-2.2-1.2.5-2.5l19.5 19.5-1 1 6.5 6.5 3.5-2.5-.5-1.5 1.5.5 1-2-.5-1.5 1.5.5 1-2-.5-1.5 1.5.5 2-3-.5-1.5 1.5.5 1-2-.5-1.5 1.5.5 1-2-.5-1.5 1.5.5 1-2q-2.2-1.2.5-2.5l1.5.5 1-2-.5-1.5 1.5.5 1-2-.5-1.5 1.5.5 2-3-.5-1.5 1.5.5 1-2-.5-1.5 1.5.5 1-2-.5-1.5 1.5.5 2-3-.5-1.5 2.5-1.5-.5-1.5 1.5.5 1-2-.5-1.5 1.5.5 2-3-.5-1.5 2.5-1.5-.5-1.5 1.5.5 1-2-.5-1.5 1.5.5 1-2q-2.2-1.2.5-2.5l2.5-1.5-.5-1.5 1.5.5 1-2-.5-1.5 1.5.5 1-2q-2.2-1.2.5-2.5l2.5-1.5-.5-1.5 1.5.5 1-2-.5-1.5 1.5.5 1-2-.5-1.5 1.5.5z" opacity=".996"/><path fill="#464344" stroke="#464344" d="m573.5 7 3.5.5-3.5.5zm-10 1 3.5.5-3.5.5zm-9 1 2.5.5-2.5.5zm-10 1 2.5.5-2.5.5zm-10 1 2.5.5-2.5.5zm-304 1 2.5.5-2.5.5zm294 0 2.5.5-2.5.5zm-305 1 3.5.5-3.5.5zm-9 1 2.5.5-2.5.5zm-10 1 3.5.5-3.5.5zm-10 1 2.5.5-2.5.5zm386 65 3.5.5-3.5.5zm-12 1 4.5.5-4.5.5zm-12 1 3.5.5-3.5.5zm-12 1 3.5.5-3.5.5zm-296 1 2.5.5-2.5.5zm284 0 3.5.5-3.5.5zm-296 1 3.5.5-3.5.5zm-12 1 3.5.5-3.5.5zm-12 1 2.5.5-2.5.5zm-12 1 2.5.5-2.5.5zm-12 1 2.5.5-2.5.5zm323 254 2.5.5-2.5.5zm16 1 3.5.5-3.5.5zm17 1 3.5.5-3.5.5zm17 1 3.5.5-3.5.5zm17 1 4.5.5-4.5.5zm16 1 4.5.5-4.5.5zm-404 1 3.5.5-3.5.5zm17 1 3.5.5-3.5.5zm16 1 4.5.5-4.5.5zm17 1 4.5.5-4.5.5zm17 1 2.5.5-2.5.5zm303 67 2.5.5-2.5.5zm-324 7 2.5.5-2.5.5zm-123 2 .5 10.5h-1zm352 6 .5 2.5h-1zm-341 1 .5 2.5h-1z" opacity=".471"/><path fill="#7d7260" stroke="#7d7260" d="m461.5 44 2.5.5-2.5.5zm-16 2 1.5.5-2.5 1.5q-1.5-1 1-2Zm8 3 13.5.5-13.5 1.5zm16 2 .5 5.5h-1zm-7 2 .5.5-3.5 3.5-.5-.5zm-350 1 11.5.5-9.5.5-1 1q-2.5-1-1-2Zm15 1 .5.5-2.5 2.5-.5-.5zm325 1 .5 5.5h-1zm-10 1 .5 13.5h-1zm-314 21 .5 8.5h-1zm-17 5 .5 6.5h-1zm-10 11 .5 2.5q-1 2.5-2 1zm17 15 .5 2.5h-1zm325 2 .5 2.5h-1zm16 2 .5 3.5h-1zm1 7 1 2 7 1 6 3 2.5 2.5 1 3h-1l-4.5-5.5-12.5-3.5zm-5 1 .5 1.5-5.5 1.5-3.5 2.5-3.5 6.5-.5-5.5h1l.5 1.5 4-5zm-316 1 .5 3.5h-1zm-20 3 1 2q12.2.8 17 9l1-2 .5 2.5-1.5.5-6-6-4-2-8.5-1.5zm-5 1 .5 1.5q-8.2.3-11 6l-1.5 5.5-.5-7.5h1l.5 1.5 2-3 5-3q3.2.7 4-1Zm20 2 3.5 3.5-.5.5-3.5-3.5zm345 0 .5 7.5-2.5 3.5-1.5-.5 1.5-4.5 1 2zm-9 10 .5.5-3.5 3.5-.5-.5zm1 3 .5.5-2.5 2.5-.5-.5zm2 3 .5 7.5h-1zm-11 7 .5.5-2.5 2.5-.5-.5zm-343 2 .5.5-2.5 2.5-2.5-.5q3.4-.1 4.5-2.5Zm337 0 .5.5-2.5 2.5-.5-.5zm19 1 .5 3.5h-1zm-366 2 2.5 2.5-.5.5-2-2-1.5.5zm26 4 2.5.5-2.5.5zm-32 3 2.5 2.5-.5.5-2.5-2.5zm31 5 .5 1.5-1.5.5q-1.5-1 1-2Zm339 0 .5 4.5h-1zm-323 1 4.5.5-4.5.5zm-11 1 2.5 1.5-1.5-.5q-2.4-.1-1-1Zm-53 1 2.5.5-2.5.5zm42 1 1.5 2.5-1.5.5zm-10 1 .5 4.5h-1zm19 3q1.5 3.5 3 1l1.5.5-2.5 1.5-2.5-2.5zm320 0 .5.5-2.5 2.5-.5-.5zm16 1 .5 1.5q-1 2.5-2 1zm-389 13 2.5.5-2.5.5zm25 1 .5 1.5q-1 2.5-2 1zm26 1 2.5 2.5-.5.5-2.5-2.5zm-44 3 3.5 3.5-2.5 2.5-.5-1.5 2-1-3-3zm5 2 5.5.5-5.5.5zm25 0 .5.5-3.5 3.5-.5-.5zm8 1 .5 4.5h-1zm14 0 2.5 2.5-.5.5-2.5-2.5zm314 0 .5.5-2.5 2.5-.5-.5zm-371 4 .5.5-2.5 2.5-.5-.5zm40 0 .5 2.5h-1zm-44 7 .5.5-2.5 2.5-.5-.5zm26 2 .5.5-2.5 2.5-.5-.5zm19 3-.5 1.5-.5 1.5-.5-1.5zm-21 4 .5.5-3.5 3.5-.5-.5zm17 2q2.5 1 1.5 5.5h-1v-4zm345 2 .5 3.5h-1zm-16 3 .5.5-2.5 2.5-.5-.5zm-338 1 .5.5-2.5 2.5-.5-.5zm12 0 .5 3.5h-1zm0 7 .5 1.5q-1 2.5-2 1zm322 2 7.5.5-7.5.5zm-351 1 .5 3.5h-1zm350 1 7.5.5-7.5.5zm-5 4 .5 2.5h-1zm-341 3 .5 2.5h-1zm340 2 .5 2.5h-1zm-341 3 .5 2.5h-1zm340 3 1.5.5-.5 2.5q-2.4-.9-1-3Zm-341 2q2.5 1 1 2l-1.5-.5zm340 3q2 .5 1.5 3.5l-1.5.5-3.5-1.5 3-1zm-9 1 2 3 1.5.5-1.5.5-2.5-1.5zm-332 1q2.3.8 1.5 4.5l-1.5 2.5-1-1-5.5-.5 7-1zm349 0 2.5 1.5-1.5-.5q-2.4-.1-1-1Zm7 1 3.5.5-3.5.5zm6 1 2.5.5-2.5.5zm-356 3 5.5.5-.5 1.5q-1-2-5-1zm10 1 3.5.5-3.5.5zm10 2 2.5.5-2.5.5zm5 1 1 1 1.5-.5-1.5 1.5-1-1-1.5.5zm327 3 .5 2.5h-1zm-344 1 .5.5-3.5 3.5-.5-.5zm336 1 .5.5-2.5 2.5-.5-.5zm-343 11 .5.5-2.5 2.5-.5-.5zm332 1 .5.5-2.5 2.5-.5-.5zm-338 1 .5.5-2.5 2.5-.5-.5zm350 7 .5.5-2.5 2.5-.5-.5zm-353 1 .5.5-2.5 2.5-.5-.5zm342 11 .5.5-2.5 2.5-.5-.5zm-338 1 .5.5-2.5 2.5-.5-.5zm334 8 .5.5-3.5 3.5-.5-.5zm-1 18 .5.5-2.5 2.5-.5-.5zm-338 1 .5.5-2.5 2.5-.5-.5zm335 7 .5.5-4.5 4.5-.5-.5zm-347 4q2.5 1 1 2l-1.5-.5zm24 3 .5 1.5-1.5.5q-1.5-1 1-2Zm316 5 11.5.5-.5 1.5-13.5-.5zm18 0h5l3.5 1.5-10.5.5v-1zm-335 3 1 3 1.5.5-11.5.5q-1.5-1 1-2 1 2 2 0 4-1 5 1zm-26 1 1 1 13.5.5-1.5 1.5h-13zm-3 2 1.5 2.5q-1 1.5-2-1zm4 2 2.5.5-2.5.5zm14 1 2.5.5-2.5.5zm-85 7 .5 3.5h-1zm341 3 .5 3.5h-1zm-342 17 .5 3.5H9zm0 10 3.5 2.5-1.5.5-2.5-2.5zm97 22 .5 4.5h-1zm325 3 .5.5-5.5 5.5-.5-.5zm-12 8 .5 4.5 1 1-1.5.5zm-330 1 .5.5-4.5 4.5-.5-.5zm354 0 .5.5-4.5 4.5-.5-.5zm-337 5 .5 2.5h-1z" opacity=".984"/><path fill="#9c5c4f" stroke="#9c5c4f" d="M586.5 6q2.5 1 1 2l-1.5-.5zm-9 1 1.5.5-1 3h1l.5-1.5q6.3-1.2 7.5 2.5l-.5 2.5-1-3-1 8-1-9-1.5.5v4l2 6-1 3 1 3v9l1 1q-1.2 4.7 1 6v10l1 2q-2 1 0 2l-1 2 1 1 1 6q-2 1 0 2v7l1.5 1.5 1.5-.5.5 1.5.5-2.5-2-1 .5-1.5 1.5.5.5-2.5.5 6.5 1 1-1.5-.5-1 1-2-1-.5 1.5q2.2 1.3-.5 2.5l-2.5-.5-.5-1.5-1 1h-7l-3 2-1-1h-9l-1 2-2-1-9.5-.5q1.7-.7 1-4l-1-3v-6q-1.7-.7-1-4 2-1 0-2 1-4-1-5v-8l-1-1q2-1 0-2v-8l-1-1v-9l-1-1v-9l-1-2q2-1 0-2l-.5-1.5-3.5-.5 3.5-.5q1.3 2.3 2.5-.5l-.5-1.5 1 1h8l1-2q2.5 2 8 1l3-2 1 1h6zm-333 4 1.5 2.5-1.5-.5-1.5-.5zm-11 1 4 2 6.5.5q-1.8.8-1 4l1 3h-1l-1.5-6.5-.5 8.5 1 1 .5 5.5 1-7 .5 6.5-2 5 1.5 3.5 1-5 1 7 1.5-.5-1-5q1-1.5 2 1l-1 2 1 1v7h-2l-.5 1.5-.5-4.5h2l-.5-1.5-3-2-.5 3.5 1 3 1 17 1 1v9l1 1-1 2 1 1 .5 5.5 1.5-.5q-2.2-1.2.5-2.5l-.5 1.5 1 1-.5 1.5-5.5.5q2.2 1.3-.5 2.5l-3-1h-7q-.5 2.5-4 2l-1-1h-10v1l1.5.5-1.5.5-1-1-8.5-.5 2-1v-9l-1-1v-8l-1-1q2-1 0-2l-1-5 1-2-1-1v-6l-1-3q2-1 0-2v-7l-1-1v-10l-1-1v-10l9-1-.5-1.5q2.5 2 8 1l3-2 1 1h6z" opacity=".208"/><path fill="#9c5c4f" stroke="#9c5c4f" d="m586.5 16 1.5 2.5q-1 1.5-2-1zm0 4 2.5 4.5q-1 2.5-2 1v-4zm-341 1 .5 3.5h-1zm340 3 .5 7.5h-1zm0 9 2 1 1.5-.5-.5 1.5q-3.8.5-3-2Zm1 3 .5 4.5h-1zm2 4 1.5 2.5h-1zm-1 4 .5 4.5h-1zm-341 6 1 3 1-2 .5 3.5-2 1 .5 1.5 2-1 .5 1.5-1.5-.5-1 1-1.5-.5zm341 1 1.5.5.5 6.5 1-2 .5 2.5-2.5.5-.5-6.5zm-338 8 .5 6.5 1 1q-1 1.5-2-1l-.5-2.5-1 2-.5-1.5q2.4-1.1 2.5-4.5Zm342 1 .5 2.5h-1zm-2 4 2.5 1.5q-2.4 1.1-2.5 4.5l-.5-3.5 1-1z" opacity=".208"/><path fill="#9c5c4f" stroke="#9c5c4f" d="m247.5 66 3.5 2.5q-1.3 6.8 1 10l-1.5-.5-2.5-.5v-7l-1-1 1-2zm1.5 3 1 4v-3zm2.5 11 1 2 1.5-.5-2.5 1.5zm4 3 1.5.5-2.5 1.5q-1.5-1 1-2Zm-146 359 .5 2.5h-1z" opacity=".208"/><path fill="#c6b6b1" stroke="#c6b6b1" d="m480.5 343 12.5 1.5-9.5.5-3-1zm17 1 10.5 1.5-2 1 7.5.5q.8-2.7 5-2l6 2h7q1-2 5-1l2 2h13l2-1v1l-1.5.5 16.5.5 2-1v1l-1.5.5 10 1-4.5 1.5q-.7-1.7-4-1l.5 1.5.5 1.5 1.5.5-2 2 .5 1.5-1.5.5 1 1-1 1 .5 1.5q-1.2-2.2-2.5.5l1.5 1.5 1.5-.5-3 2 .5 4.5 1-4 1.5.5-3 6 3 6-1 2 .5 1.5q-1.2-2.2-2.5.5l1 5-3 2 1 3-1 3 1 3-2 6 2 6-1 3h2l-1.5 2.5-3-2-.5.5 2 2-2 3 13 2-7.5.5-1-1h-6l-1-1h-7l-1.5.5.5-1.5h-7l-1 1v-2h-7l-1 1-1-2q-4.2-.7-6 1-1.4-2.6-6-2l-2 1q-1.4-2.6-6-2l-2 1-5-3q-1.5 3.5-3 1l-2.5-.5-.5-1.5-2.5.5-.5 1.5-4.5-1.5 2-1-5.5-.5v2l-5.5-1.5 5-1-6.5-.5-4.5-1.5 1-1v-8q-2-1 0-2l-1-3 2-1-1-2 1-2q-2-1 0-2l-1-3 1-1-.5-1.5 1.5-.5q1-4-1-5l1-1 1-6h-2q2.8-.8 2-5-2-1 0-2l-2-3 1.5.5 1.5-.5v-8l-1-1q3.5-1.5 1-3l.5-1.5 1.5.5.5 1.5 1-2 10.5-.5-2-1zm-8.5 4-1 4h1zm72 7-1 4h1zm9 0-1 2q1 1 2-1zm-82 5-1 3h1zm4 13-1 5h1zm76 3-1 2q1 2 2 1zm-82 5-2 5q1 1 2-1zm0 10-2 2 1 3 1-3zm-1 6-1 3h1zm-12.5-52 1.5.5-2.5 1.5q-1.5-1 1-2Zm-339 3 4.5.5-4.5.5zm9 0 11.5 1.5-7.5.5q-.7-1.7-4-1z" opacity=".329"/><path fill="#c6b6b1" stroke="#c6b6b1" d="m160.5 349 10.5 1.5.5 1.5q1-2 2 0l4-2h4l6 2h7q1-2 5-1v2h15l2-1v1l-1.5.5 15.5.5 1 1 9.5.5-9.5.5-2-1-.5 1.5 2 1-3 1 1.5 2.5 1.5-.5q-3.8 1.8-.5 3.5l1.5-.5q-.7-3.2 1-4l-1-2h1l.5 1.5 1.5.5-2 1q2 1 0 2l-.5 3.5q-.8-1.7-4-1l-.5 1.5h2v3q-2.5.5-2 4l1 1q-3.5 1.5-1 3l-1 10-2 3h2l-2 3 1 2-.5 1.5 2.5.5-2 1 1 2-3 2 1 3-1 3 2 3-3 1 2.5 3.5 1.5-.5-1.5 1.5-2-2-.5.5 1 3q-2 1 0 2-.7 3.8 1.5 4.5l1.5-.5.5-1.5 1.5.5q-2.2 1.3.5 2.5l6.5.5-6.5.5-1 1v-2h-7l-1 1v-2h-7l-1 1v-2l-14-1-1.5.5-.5-1.5q-4.8-.8-7 1-1.4-2.6-6-2l-2 1-3-2h-2l-2 1-6-3-1 2-3.5-1.5-.5-1.5h-2l-3 2-3.5-1.5 2-1-4.5-.5v2l-5.5-1.5 3-1-5.5-.5v2l-4.5-1.5 3-1-.5-1.5-3 1-1.5-2.5 2-5v-10h-2l2.5-3.5 1.5.5-2-5 2-1-2-1q2-1 1-5h-2l1-1-.5-1.5 2 2 .5-.5-.5-7.5-1.5.5 1-2-.5-1.5q1.3 2.3 2.5-.5l-1-3 2-1q-2.3-1.3-1-6l1-1v-6l-1.5.5-1.5-.5.5-1.5 1.5.5.5-1.5 1.5.5.5 1.5 3-1 13.5-.5-2-1zm-14.5 4-1 2h2q1-1-1-2Zm4 7-1 3h1zm2 0-1 3h1zm-5 3-1 3h1zm-2 8-1 2q1 1 2-1zm-2 13v2l2-1zm5 1-1 4h1zm-3 2-1 2h2q1-1-1-2Zm-1 14-3 3h1l2-1zm-3 6v1h2zm2 2-1 3h1zm79 12-1 2h2q1-1-1-2Zm-91.5-71 1.5.5-2.5 1.5q-1.5-1 1-2Zm450 0 4.5.5-4.5.5zm6 1 6.5.5-6.5.5zm-12 2 1.5 4.5q-1 2.5-2 1z" opacity=".329"/><path fill="#c6b6b1" stroke="#c6b6b1" d="m141.5 355 1.5 2.5q-1 2.5-2 1 2-1 0-2zm101 0 5.5.5-5.5.5zm10 1 3.5.5-3.5.5zm-14 5 .5 3.5h-1zm336 1-.5 1.5 1 3q-1.7.8-1 4l1 2h-1l-.5-1.5-1.5-.5 1-1v-6zm3 3 1.5.5q-1 2.5-2 1zm-343 5q1.5 1-1 2l-3 1v-1zm337 2 1.5.5q-1 2.5-2 1zm-335 1q2.5 1 1 2l-1-1-1.5.5zm-5 1 .5 4.5h-1zm341 1 1.5 1.5q-2 1 0 2l-1 2 .5 1.5q-2.2-.7-1.5-4.5l1-1zm6 3 .5 1.5-1.5 2.5-.5-1.5zm-348 5q2.8 1.3.5 2.5l2 3h-2q1 4-1 5l2 2-.5.5-2.5-1.5-1-2h2zm340 0 1.5 4.5q-1 1.5-2-1zm5 2 2.5.5-.5 1.5-1.5-.5 2 4h-1l-.5-1.5-.5 3.5.5 1.5q-2.2-.7-1.5-4.5 2-1 0-2zm-341 4 2.5.5-2.5.5zm337 0 1.5 4.5h-1q-1.7-1.7-.5-4.5Zm0 6-1 3 1.5.5q-1 2.5-2 1l-1-2zm-342 3 1.5 4.5-1 1 .5 1.5-1.5-1.5q2-1 0-2zm341 5q2 .5 1.5 3.5l-1 3q2.3 1.3-.5 2.5l-1.5-.5q-.7-3.2 1-4-2-1 0-2zm-343 1 3.5 2.5-.5 2.5q-1-2-2 0l-1.5-.5 2-1-2-3zm7 5 .5.5-2 2 .5 1.5-1.5-.5zm237 0 2.5.5-2.5.5zm-243 1 1.5 4.5-1.5 2.5zm251 0q3.8-.7 4.5 1.5l-1.5.5-3-1zm-355 3 2.5.5-2.5.5zm445 0 1.5 3.5-1.5 2.5-1.5-3.5zm-437 1 4.5 1.5-1.5.5-3-1zm442 4 .5 1.5-1.5.5q-1.5-1 1-2Zm3 4 5.5.5-5.5.5zm-126 7 .5 3.5h-1zm10 0 .5 5.5-3 2-.5 2.5-5.5-.5.5-3.5 7.5-.5zm-351 5 .5 3.5h-1zm4 5 3.5 1.5-.5 3.5-5.5-.5.5-3.5z" opacity=".329"/><path fill="#e29383" stroke="#e29383" d="m594.5 6 2.5.5-2.5.5zm-11 1 2.5.5-2.5.5zm-14 1 6.5.5-6.5.5zm-10 1 6.5.5-6.5.5zm-9 1 5.5.5-5.5.5zm-300 1 2.5.5-2.5.5zm290 0 5.5.5-5.5.5zm-305 1 7.5.5-7.5.5zm296 0 4.5.5-4.5.5zm-306 1 6.5.5-6.5.5zm296 0 4.5.5-4.5.5zm-305 1 5.5.5-5.5.5zm296 0 2.5.5-2.5.5zm-306 1 5.5.5-5.5.5zm-10 1 5.5.5-5.5.5zm-9 1 4.5.5-4.5.5zm-10 1 4.5.5-4.5.5zm-9 1 2.5.5-2.5.5zm409 61 8.5.5-8.5.5zm-12 1 8.5.5-8.5.5zm-11 1 6.5.5-6.5.5zm-12 1 6.5.5-6.5.5zm-297 1 3.5.5-3.5.5zm285 0 5.5.5-5.5.5zm-297 1 7.5.5-7.5.5zm287 0 3.5.5-3.5.5zm-299 1 7.5.5-7.5.5zm-12 1 7.5.5-7.5.5zm-12 1 6.5.5-6.5.5zm-11 1 5.5.5-5.5.5zm-11 1 2.5.5-2.5.5zm420 261 5.5.5-5.5.5zm20 1 2.5.5-2.5.5zm-358 4 3.5.5-3.5.5zm343 69 4.5.5-4.5.5zm-346 4 2.5.5-2.5.5zm198 6 .5 2.5h-1zm-341 5 .5 3.5h-1z" opacity=".227"/><path fill="#236132" stroke="#236132" d="m266.5 10 3.5.5-3.5.5zm7 71 3.5.5-3.5.5zm-174 43 .5 5.5h-1zm42 6 .5 4.5h-1zm335 40 .5 4.5h-1zm-389 82 .5 2.5h-1zm190 180 2.5.5-2.5.5z" opacity=".031"/><path fill="#c2afae" stroke="#c2afae" d="m451.5 20 3.5.5-3.5.5zm-11 1 6.5.5-6.5.5zm-9 1 7.5.5-7.5.5zm-9 1 3.5.5-3.5.5zm-315 2 5.5.5-5.5.5zm-10 1 6.5.5-6.5.5zm-10 1 6.5.5-6.5.5zm-8 1 2.5.5-2.5.5zm367 17 2.5.5-2.5.5zm-5 6 .5 19.5h-1zm-341 5 .5 38.5h-1zm-8 29 2.5 3.5q-1 1.5-2-1zm344 0 4.5 6.5-.5.5-2.5-2.5-2-4zm-339 9 3.5 2.5-1.5.5-2.5-2.5zm316 247 .5 1.5-2.5.5v-1zm-4 1 .5 1.5-4 1q3.5 1.5 1 3v8l-1 1q2 1 0 2 1 5-2 6l2 1-1 3v7l-1 1 1 3-1 1v7l-1 1 1 2-1 3 1 2-1.5 3.5-6.5.5 2 1-3.5.5-1-1h-7l-1-1h-7l-1-1h-7l-1-1-6.5-.5 7.5-.5 1 1h7l1 1h8v-1l-1.5-.5-.5-4.5-1 5-.5-4.5-1-1q2-1 0-2l2-2-2-2 2-2q-2-1 0-2l-1-2 1-3-.5-1.5q1.5 3.5 3 1l1.5-.5-1.5-1.5q-1.3 2.3-2.5-.5l-1-3h2l.5-5.5 2.5-.5-1.5-2.5-1 2q-2.5-1-1-2l1.5-.5v-7l1-1-.5-1.5 2 1 1.5-2.5q-.7-2.2-4.5-1.5l-1 1-15 3v-1l10-2 1-1h3l1-1h3l1-1h3l1-1h3l1-1h3l1-1h3l1-1h3zm-6.5 3v1h3zm-4 1v1h2zm-4 1v1h3zm-4 1v1h3zm-1 6-2 3q1 1 2-1zm-1 4-1 4h1zm-1 11-1 4h1zm-1 9-1 6-1 1h2l1-2zm1 10-1 2h2q1-1-1-2Zm1 10v1h6zM75.5 345l-.5 1.5-.5 1.5q-2.5-1-1-2z" opacity=".89"/><path fill="#c2afae" stroke="#c2afae" d="M71.5 346q1.5 1-1 2l-1.5-.5zm-4 1q1.5 1-1 2l-1.5-.5zm348 0 1 2 2.5.5-2.5 1.5-1.5-2.5zm-352 1 1 2 1.5.5q1.3 4.8-1 6v10l-1 1v12l-1 1-.5 6.5-1.5-.5.5 2.5 1.5-.5-1 2-.5 13.5-4.5.5.5 1.5-3-1h-7l-1-1h-7l-1-1h-7l-1-1-7.5-.5 7.5-.5 1 1 16 1v-1l-5.5-.5 1-5-.5-1.5 2 1 .5-5.5h-1l-.5 3.5q-2.7-1.2-.5-2.5v-6l-1-1 2-1-1-2 1-3q-2-1 0-2l1-3-2-4h2q.8-3.2-1-4 3.5-1.5 2-8-2.2-1.2.5-2.5l1.5.5-.5-1.5-20 4v-1h3l1-1h3l1-1h3l1-1h3l1-1h3l1-1h3l9-3 1 2 2.5-.5-2-1zm-6.5 3v1h3zm-4 1v1h2zm-4 1-1 1 3 1v-1zm-1 6-1 4h1zm2 1-1 3h1zm-3 9-1 5h1zm2 5-1 3h1zm-2 1q-3 1-1 2h1zm2 3-1 3h1zm-3 6-1 2h2q1-1-1-2Zm0 4-1 2q1 1 2-1zm-1 9-1 4h1zm4 6v1h7zm317.5-50 2.5.5-2.5.5zm51 0 2 3 8.5.5-8.5.5-2.5-3.5zm-394 5 2.5.5-2.5.5zm-4 1 2.5.5-2.5.5zm59 2 10.5.5-10.5.5zm277 34 4.5.5-4.5.5zm-339 5 4.5.5-4.5.5zm383 0q4.1-.6 5.5 1.5l-2.5.5-3-1zm8 1q4.1-.6 5.5 1.5l-1.5.5q-.7-1.7-4-1zm9 1q3-.5 3.5 1.5l-1.5-.5q-3 .5-2-1Z" opacity=".89"/><path fill="#c2afae" stroke="#c2afae" d="M59.5 405q4.8-.7 6.5 1.5l-2.5.5q-.7-1.7-4-1zm9 1 2.5.5-2.5.5zm9 1 3.5 1.5-1.5.5-2.5-1.5z" opacity=".89"/></svg>