<svg xmlns="http://www.w3.org/2000/svg" viewBox="0 0 640 640"><path fill="#1681b3" stroke="#1681b3" d="m283.5 233 .5 42.5h-1zm63 0 .5 42.5h-1zm-56 6 49.5.5-49.5.5zm0 26 49.5.5-49.5.5z" opacity=".996"/><path fill="#00aafa" stroke="#00aafa" d="m216.5 233 66.5.5v42l1.5 2.5 3 1 2.5-2.5.5-10.5 49.5.5v10l2.5 2.5 3.5-1.5 1-2 .5-42.5h76l6 2 8.5 7.5 4 9v4l1 1v4l1 1 2 14 2 5v4l1 1v4l1 1 2 14 2 5v4l1 1v4l1 1 2 14 2 5v4l1 1v4l1 1 2 14 2 5v4l1 1v4l1 1v4l1 1 2 14 2 5v4l1 1v4l1 1 2 14 2 5v4l1 1v4l1 1v4l1 1v4l2 6v7l-3 8-4.5 5.5-6 4-3 1h-5l-1 1h-283l-1-1h-5l-3-1-8.5-6.5-4-7q.8-3.2-1-4v-8l1-1v-4l2-5v-4l1-1v-4l1-1 2-14 2-5v-4l1-1v-4l1-1 2-14 2-5v-4l1-1v-4l1-1 2-14 2-5v-4l1-1v-4l1-1 2-14 2-5v-4l1-1v-4l1-1 2-14 2-5v-4l1-1v-4l1-1v-4l1-1 2-14 2-5 2-14 2-6 7.5-8.5zm15.5 89-4 3 1 4 13 2 8 5 7 1 1 1h7q1-2 5-1l14-7q3 1 5-1l9 1 11 6 7 1 1 1h7q1-2 5-1l7-3 4-3 7-1 1-1 9 1 11 6 7 1 1 1h7q0-2 5-1l7-3 4-3 6-1 1-1h4l2-2-1-3-2-2-9 1-13 7q-5-1-5 1h-6q-1-2-4-1l-11-6-7-1-1-1-11 1-14 7q-5-1-5 1l-10-1-11-6-7-1-1-1-11 1-14 7q-5-1-5 1l-10-1-13-7zm-2 46-2 3 1 3 3 1h6l3 1 11 6q3-1 4 1h11q0-2 4-1l14-7h12l14 7q3-1 4 1h11q0-2 4-1l14-7h12l7 3 4 3 6 1 1 1h11q0-2 4-1l11-6 3-1h6l2-1 1-2-1-4h-10l-9 4-2 2-6 2h-9q-1-2-4-1l-8-5-6-2h-14q-1 2-4 1l-10 6q-4-1-4 1h-9q-1-2-4-1l-8-5-6-2h-14l-8 3-6 4q-4-1-4 1h-9l-6-2-2-2-9-4zm1 45q-3 1-3 5l3 2h6l6 2 8 5q3-1 4 1h14l17-8h10l14 7q3-1 4 1h13q0-2 4-1l8-5 6-2h10l17 8h14l10-4 4-3q3 1 4-1h6l2-2q1-4-2-5h-7q-1 2-4 1l-14 7h-12l-13-7q-4 1-4-1h-12q-1 2-4 1l-14 7h-11l-14-7q-4 1-4-1h-12q-1 2-4 1l-13 7h-12l-14-7q-4 1-4-1z" opacity=".996"/><path fill="#00aafa" stroke="#00aafa" d="m290.5 240 49.5.5-.5 18.5-49.5-.5z" opacity=".996"/><path fill="#00d0fe" stroke="#00d0fe" d="m220.5 230 60.5.5-60.5.5zm129 0 70.5.5-70.5.5zm-135 1 2.5.5-2.5.5zm209 0 2.5.5-2.5.5zm-212 1 4.5 1.5-2.5.5-2-1v2l-2-1v2q-3-1.5 0-3zm7 0 62.5.5-62.5.5zm73 0 47.5.5-47.5.5zm58 0 72.5.5-72.5.5zm78 0q8.1 2.9 12.5 9.5l2 4q-1 2.5-2 1l.5-1.5-1.5-.5q2.3-1.2-.5-2.5l-1.5-.5 1-1-3.5-3.5-1.5.5.5-1.5-4-2-1.5.5.5-1.5-3 1v-1zm-221 3 .5.5-5 5q2.3 1.3-.5 2.5l-1.5.5.5 1.5-1.5.5.5 1.5-1.5-.5 1 2q-1 1.5-2-1 2.9-8.1 9.5-12.5Zm236 12 1.5 2.5 1 7h-1l-.5-3.5-1.5.5q1.8-.7 1-4l-2-1zm-246 2 .5 2.5h-1zm-1 4 1.5 5.5h-1q-1.9-2-.5-5.5Zm-1 5 1.5 5.5h-1q-1.9-2-.5-5.5Zm251 0 .5 3.5-1.5 2.5-.5-1.5zm-252 5 1.5 4.5h-2q-1 4 1 5h-2q-1 4 1 5h-2l1 5h-1l-1-5 1-1v-4l1-1v-4zm253 0 .5 3.5q-1 2.5-2 1zm1 7 .5 1.5-1.5 2.5-.5-1.5zm1 3 3.5 17.5-1.5 2.5-.5-1.5q1.7-.7 1-4h-2q2-1 1-5h-2q2-1 1-5h-2zm-259 10 1.5 4.5h-1q-1.7-1.7-.5-4.5Zm-1 4 1.5 5.5h-1q-1.9-2-.5-5.5Zm-1 5 1.5 4.5h-2q-1 4 1 5h-2q-1 4 1 5h-2l1 5h-1l-1-5 1-1v-4l1-1v-4zm265 0 .5 3.5h-1zm1 7 .5 1.5-1.5 2.5-.5-1.5zm1 3 3.5 17.5-1.5 2.5-.5-1.5q1.7-.7 1-4h-2q2-1 1-5h-2q2-1 1-5h-2zm-271 10 1.5 4.5h-1q-1.7-1.7-.5-4.5Zm-1 4 1.5 5.5h-1q-1.9-2-.5-5.5Zm276 5 .5 3.5-1.5 2.5-.5-1.5zm-277 2 1.5 2.5q-1 1.5-2-1zm-1 3 1.5 4.5h-2q-1 4 1 5h-2l1 5h-1l-1-5 1-1v-4zm279 0 .5 3.5-1.5 2.5-.5-1.5zm1 5 3.5 17.5-1.5 2.5-.5-1.5q1.8-.7 1-4h-2q2-1 1-5h-2q2-1 1-5h-2zm-283 9 .5 3.5h-1zm-1 5 1.5 5.5h-1q-1.9-2-.5-5.5Zm288 5 .5 3.5-1.5 2.5-.5-1.5zm-289 2 1.5 3.5h-1l-.5-1.5-.5 4.5.5 1.5-1.5-.5q-1 4 1 5h-2l-.5 3.5-.5-3.5 1-1 1-9zm290 3 .5 3.5-1.5 2.5-.5-1.5zm1 5 3.5 17.5-1.5 2.5-.5-1.5q1.8-.7 1-4h-2q2-1 1-5h-2q2-1 1-5h-2zm-295 9 1.5 5.5h-1q-1.9-2-.5-5.5Zm-1 5 1.5 5.5h-1q-1.9-2-.5-5.5Zm-1 5 1.5 5.5h-1l-.5-1.5-.5 4.5.5 1.5-1.5-.5q-1 4 1 5h-2q-1 4 1 5h-2l1 5h-1l-1-5 1-1v-4l1-1v-4l1-1v-4zm301 0 .5 3.5-1.5 2.5-.5-1.5zm1 5 .5 3.5-1.5 2.5-.5-1.5zm1 5 3.5 17.5-1.5 2.5-.5-1.5q1.8-.7 1-4h-2q2-1 1-5h-2q2-1 1-5h-1l-.5 1.5-.5-1.5zm-308 14 1.5 5.5h-1q-1.9-2-.5-5.5Zm-1 5 1.5 5.5h-1q-1.9-2-.5-5.5Zm313 0 .5 3.5-1.5 2.5-.5-1.5zm-314 5 1.5 5.5h-1l-.5-1.5-.5 4.5 1 2h-1l-.5-1.5-.5 4.5.5 1.5-1.5-.5 1 5h-1l-1-5 1-1v-4l1-1v-4zm315 0 .5 3.5-1.5 2.5-.5-1.5zm1 7 1.5 2.5v4l1 1 1 8h-1l-.5-3.5-1.5.5q2-1 1-5h-2q2-1 1-5h-1l-.5 1.5-.5-1.5zm-320 12 1.5 5.5h-1q-1.9-2-.5-5.5Zm-1 5 1.5 5.5h-1q-1.9-2-.5-5.5Zm325 0 .5 3.5h-1zm-326 5 1.5 4.5h-2q-1 4 1 5h-2l-.5 3.5-.5-3.5 1-1v-4zm327 0 .5 3.5-1.5 2.5-.5-1.5zm1 7 .5 1.5-1.5 2.5-.5-1.5zm1 3 .5 3.5h-1zm-330 4 .5 5.5-1.5 2.5-.5-1.5 1-1zm-2 1 .5 3.5h-1zm331 0 1.5 4.5v4l-1.5 2.5-1.5-2.5h2zm2 0 .5 2.5h-1zm-332 8 1 1 1.5-.5-1 2 2 1-.5 1.5 1.5.5q-2.5 1.5 1 3l-.5 1.5-5.5-9.5zm326 6 1 1 1.5-.5-5.5 6.5-4 3-7 3h-293l-7-3-5.5-4.5.5-2.5 1 3 1.5-.5 1.5 2.5 1.5-.5-.5 1.5 3 1 2-1v1l-1.5.5 2.5.5 1.5-.5-.5 1.5 293.5-.5-.5-1.5 3 1v-1l-1.5-.5 1.5-.5 2 1v-2l2 1v-2l1 1 2.5-2.5.5-1.5 3.5-2.5z" opacity=".067"/><path fill="#43c1fa" stroke="#43c1fa" d="m231.5 322 3.5.5-3.5.5zm56 0 6.5.5-6.5.5zm59 0 6.5.5-6.5.5zm59 0 3.5.5-3.5.5zm-148 15 7.5.5-7.5.5zm59 0 7.5.5-7.5.5zm59 0 7.5.5-7.5.5zm-144 37 2.5.5-2.5.5zm57 0 4.5.5-4.5.5zm59 0 4.5.5-4.5.5zm59 0 2.5.5-2.5.5z"/><path fill="#92dbfa" stroke="#92dbfa" d="m257.5 382 8.5.5-8.5.5zm58 0 8.5.5-8.5.5zm59 0 8.5.5-8.5.5zm-140 31 2.5.5-2.5.5zm51 0 2.5.5-2.5.5zm8 0 2.5.5-2.5.5zm51 0 2.5.5-2.5.5zm8 0 2.5.5-2.5.5zm51 0 2.5.5-2.5.5zm-172 6 2.5.5-2.5.5zm57 0 4.5.5-4.5.5zm59 0 4.5.5-4.5.5zm59 0 2.5.5-2.5.5zm-149 2 7.5.5-7.5.5zm59 0 7.5.5-7.5.5zm59 0 7.5.5-7.5.5z"/><path fill="#fafdfe" stroke="#fafdfe" d="M230.5 323h7q.7 1.8 4 1l14 7h11l14-7q3.3.8 4-1h12q.8 1.8 4 1l14 7h11l14-7q3.3.8 4-1h12q.8 1.8 4 1l14 7h11l14-7q3.2.8 4-1h7q2.3.8 1.5 4.5l-1.5 1.5h-7l-3 1-8 5-6 2h-13q-.7-1.7-4-1l-8-5-6-2h-11l-7 3-4 3-6 2h-13l-6-2-4-3-7-3h-12l-11 6-6 2h-13l-6-2-8-5-3-1h-7l-1.5-1.5q-.7-3.7 1.5-4.5Zm0 45h6q.8 1.8 4 1l14 7h13l14-7q4 1 5-1h9l1 1 6 1 4 3 7 3h13l14-7q3.3.8 4-1h9q1 2 5 1l14 7h13l11-6 6-1 1-1h6q2.3.8 1.5 4.5l-1.5 1.5-9 1-14 7h-15l-14-7q-3.2.8-4-1h-8q-.7 1.8-4 1l-14 7h-15l-14-7q-3.2.8-4-1h-8q-.7 1.8-4 1l-14 7h-15l-14-7-9-1-1.5-1.5q-.7-3.7 1.5-4.5Zm1 45 11 2 11 6q3.2-.7 4 1h7l1-1 6-1 2-2 9-4 10-1 1 1h5l3 1 11 6q3.3-.7 4 1h7q.8-1.7 4-1l14-7 10-1 1 1h5l3 1 11 6q3.3-.7 4 1h7q.8-1.7 4-1l11-6 11-2 2.5 1.5q.8 3.8-1.5 4.5l-11 2-11 6q-4-1-5 1h-8l-1-1-6-1-11-6-9-1-1 1-7 1-4 3-7 3q-4-1-5 1h-7l-1-1-7-1-11-6-9-1q-1 2-5 1l-14 7q-3.2-.7-4 1h-8l-1-1-7-1-8-5-11-2-1.5-1.5.5-3.5z"/><path fill="#00a4a5" stroke="#00a4a5" d="m293.5 230 43.5.5-43.5.5z" opacity=".008"/><path fill="#819d9c" stroke="#819d9c" d="m293.5 215 43.5.5-43.5.5z" opacity=".008"/><path fill="#454956" stroke="#454956" d="m303.5 154 2.5.5-2.5.5zm3 2 2.5.5-2.5.5zm-15 4 .5.5-3.5 3.5-.5-.5zm83 2 .5 2.5-2.5 2.5-.5-.5q2.4-1.1 2.5-4.5Zm-72 1 3.5.5-3.5.5zm57 0 3.5.5-3.5.5zm6 1 1.5.5-3.5 1.5v-1zm-71 3 1 1 1.5-.5-2.5 2.5-1.5-1.5zm58 0 .5.5-2.5 2.5-.5-.5zm-62 8 1 4 47.5-.5.5-3.5.5 5.5-1.5-.5h-47l-1 1zm58 0 .5 54.5h-1zm-67 1 .5 53.5h-1zm9 12 49.5.5-.5 18.5-1-18-47.5.5-.5 17.5zm0 26 .5 16.5h-1zm49 0 .5 16.5h-1z" opacity=".047"/><path fill="#646666" stroke="#646666" d="m286.5 164 1.5.5-3 2 .5 1.5-1.5-1.5zm64 6-.5 1.5-.5 1.5-.5-1.5zm-57 35 43.5.5-43.5.5z" opacity=".012"/><path fill="#02a6f2" stroke="#02a6f2" d="m206.5 237 .5.5-3.5 3.5-.5-.5zm228 1 2.5 2.5-.5.5-2.5-2.5zm11 30 .5 2.5h-1zm-257 29 .5 2.5h-1zm-6 29 .5 2.5h-1zm-8 155 3.5.5-3.5.5zm288 0 3.5.5-3.5.5z" opacity=".2"/><path fill="#3c4f50" stroke="#3c4f50" d="m302.5 156 3.5.5-3.5.5zm56 0 4.5.5-4.5.5zm-46 2 2.5 1.5-1.5-.5q-2.4-.1-1-1Zm-19 1 .5.5-2.5 2.5-.5-.5zm78 0 2.5 2.5-.5.5-2.5-2.5zm-23 1 .5.5-5.5 5.5-.5-.5zm-42 3 2.5.5-2.5.5zm50 0 2.5.5-2.5.5zm-4 2 .5.5-4.5 4.5-.5-.5zm-6 9 .5 58.5h-1zm-63 1 .5 57.5h-1zm7 6 49.5.5-49.5.5zm0 26 49.5.5-49.5.5zm1 6 47.5.5-47.5.5z" opacity=".502"/><path fill="#39484e" stroke="#39484e" d="M300.5 157h8l7 3 2.5 2.5-2.5 3.5h-2l-5-3h-8q-5.5 2-8.5 6.5l-2 4v8l49.5.5 1.5-11.5q2.7-6.8 8.5-10.5l7-3h9l5 2 3.5 3.5q.5 3-1.5 3.5h-3l-5-3h-8q-5.5 2-8.5 6.5l-2 5v58l-1 1-.5 43.5-3 1-1.5-1.5-.5-12.5-49.5.5-1 3v8q2.3 1.3-.5 2.5l-3.5-1.5v-43l-1-1v-59l2-6 4.5-5.5 4-3zm-9.5 31-1 20h50v-19zm1 25-2 2v18h50v-18l-1-2zm-1 25-2 4v15l1 2h50v-20z" opacity=".988"/><path fill="#403c33" stroke="#403c33" d="m284.5 233 1 44q3 .5 3.5-1.5l.5-8.5.5 8.5q-.5 3-4.5 2.5l-1.5-1.5zm61 0 .5 43.5q-.5 2-3.5 1.5-2.5-1-1-2l3 1zm-55 5 49.5.5-49.5.5zm-1 3 .5 15.5h-1zm1 23 49.5.5-49.5.5z"/></svg>