<svg xmlns="http://www.w3.org/2000/svg" viewBox="0 0 640 640"><path fill="#00283c" stroke="#00283c" d="m297.5 3 17.5.5-17.5.5zm28 0 17.5.5-17.5.5zm-39 1 7.5.5-7.5.5zm60 0 7.5.5-7.5.5zm-68 1 5.5.5-5.5.5zm78 0 5.5.5-5.5.5zm-85 1 4.5.5-4.5.5zm93 0 4.5.5-4.5.5zm-99 1 3.5.5-3.5.5zm106 0 3.5.5-3.5.5zm-111 1 3.5.5-3.5.5zm117 0 3.5.5-3.5.5zm-122 1 2.5.5-2.5.5zm127 0 3.5.5-3.5.5zm-132 1 2.5.5-2.5.5zm137 0 2.5.5-2.5.5zm-141 1 2.5.5-2.5.5zm145 0 2.5.5-2.5.5zm-149 1 2.5.5-2.5.5zm153 0 2.5.5-2.5.5zm-157 1 2.5.5-2.5.5zm161 0 2.5.5-2.5.5zm-165 1 2.5.5-2.5.5zm169 0 2.5.5-2.5.5zm-176 2 2.5.5-5.5 1.5v-1zm183 0 2.5.5-2.5.5zm-195 4 1.5.5-6.5 2.5v-1zm211 1 3.5 1.5-1.5.5-2.5-1.5zm-222 3 1.5.5-3.5 1.5v-1zm230 0 3.5 1.5-1.5.5-2.5-1.5zm5 2 3.5 1.5-1.5.5-2.5-1.5zm-242 1 1.5.5-3.5 1.5v-1zm-5 2 1.5.5-7.5 3.5v-1zm254 0 5.5 2.5-1.5.5-4-2zm-276 11q1.5 1-1 2l-4 2q-1.5-1 1-2zm301 1 5.5 3.5-1.5-.5q-4-.5-4-3Zm-310 4q1.5 1-1 2l-2 1q-1.5-1 1-2zm317 0 3.5 2.5-1.5-.5q-3.8-.7-2-2Zm-322 3q1.5 1-1 2l-2 1q-1.5-1 1-2zm327 0 3.5 2.5-1.5-.5q-3.8-.7-2-2Zm5 3 13.5 9.5-.5.5-2-2-10-6q-2.5-1-1-2Zm-343 4q1.5 1-1 2l-3 2-.5-.5 2.5-2.5zm-9 6 .5.5-2.5 2.5-.5-.5zm367 0 5.5 4.5-.5.5-2-2-3.5-2.5zm-371 3 .5.5-2.5 2.5-4 3-.5-.5 3.5-3.5zm378 2L524 77.5l-.5.5-4-4-6-4-3.5-3.5zm-386 4 .5.5-3.5 3.5-.5-.5zm-5 4 .5.5-4.5 4.5-.5-.5zm406 4 6.5 6.5-.5.5-6.5-6.5zm-412 1 .5.5-6.5 6.5-.5-.5zm420 6 21.5 21.5-.5.5L533 85.5zm-429 2 .5.5L87.5 105l-.5-.5zm-19 20 .5.5-6.5 6.5-.5-.5zm470 1 6.5 6.5-.5.5-6.5-6.5zm-477 7 .5.5-4.5 4.5-.5-.5zm484 1 11.5 13.5-.5.5-3.5-3.5-8-10zm-193 2 7.5.5-7.5.5zm-8 1 4.5.5-4.5.5zm18 0 5.5.5-5.5.5zm-23 1 2.5.5-2.5.5zm30 0 2.5.5-2.5.5zm-313 1 .5.5-3.5 3.5-.5-.5zm248 1 3.5.5-3.5.5zm-5 1 3.5.5-3.5.5zm80 0 3.5 1.5-1.5.5-2.5-1.5zm-85 1 3.5.5-3.5.5zm-5 1 3.5.5-3.5.5zm-237 1 .5.5-3 3-2.5 3.5-.5-.5 2-2zm232 0 3.5.5-3.5.5zm102 0 3.5 2.5-1.5-.5q-3.8-.7-2-2Zm-107 1 3.5.5-3.5.5zm-5 1 3.5.5-3.5.5zm-5 1 3.5.5-3.5.5zm-4 1 2.5.5-2.5.5zm-5 1 2.5.5-2.5.5zm134 0 3.5 3.5-.5.5-3.5-3.5zm163 0 4.5 5.5-.5.5-2.5-2.5-2-3zm-302 1 2.5.5-2.5.5zm-5 1 2.5.5-2.5.5zm-204 1 .5.5-2.5 2.5-.5-.5zm199 0 2.5.5-2.5.5zm-5 1 2.5.5-2.5.5zm64 0 3.5.5-3.5.5zm95 0 3.5 3.5-.5.5-3.5-3.5zm-164 1 3.5.5-3.5.5zm64 0 3.5.5-3.5.5zm-69 1 3.5.5-3.5.5zm65 0 2.5.5-2.5.5zm-70 1 3.5.5-3.5.5zm65 0 2.5.5-2.5.5zm19 0 .5.5-5.5 5.5-.5-.5zm253 0 9.5 13.5q-1 1.5-2-1l-8-12zm-342 1 3.5.5-3.5.5zm65 0 2.5.5-2.5.5zm-70 1 3.5.5-3.5.5zm65 0 2.5.5-2.5.5zm123 0 4.5 4.5-.5.5-4.5-4.5zm-362 1 .5.5-2 2-1.5 2.5.5-1.5zm169 0 3.5.5-3.5.5zm65 0 2.5.5-2.5.5zm-70 1 3.5.5-3.5.5zm65 0 2.5.5-2.5.5zm-70 1 3.5.5-3.5.5zm65 0 2.5.5-2.5.5zm-70 1 3.5.5-3.5.5zm65 0 2.5.5-2.5.5zm-70 1 3.5.5-3.5.5zm65 0 2.5.5-2.5.5zm-70 1 3.5.5-3.5.5zm65 0 2.5.5-2.5.5zm-70 1 3.5.5-3.5.5zm65 0 2.5.5-2.5.5zm-70 1 3.5.5-3.5.5zm65 0 3.5.5-3.5.5zm-69 1 2.5.5-2.5.5zm64 0 3.5.5-3.5.5zm-5 1 3.5.5-3.5.5zm-5 1 2.5.5-2.5.5zm-5 1 3.5.5-3.5.5zm-187 1-.5 1.5-1.5 2.5.5-1.5zm182 0 3.5.5-3.5.5zm357 0 2.5 3.5q-1 1.5-2-1zm-362 1 3.5.5-3.5.5zm-5 1 3.5.5-3.5.5zm-5 1 3.5.5-3.5.5zm-5 1 3.5.5-3.5.5zm101 0 .5 1.5-1.5 2.5-.5-1.5zm-266 1-.5 1.5-1.5 2.5.5-1.5zm160 0 3.5.5-3.5.5zm385 0 2.5 3.5q-1 1.5-2-1zm-390 1 3.5.5-3.5.5zm-5 1 3.5.5-3.5.5zm-4 1 2.5.5-2.5.5zm402 2 3.5 5.5q-1 1.5-2-1l-2-4zm-552 2-.5 1.5-2.5 4.5.5-1.5zm267 0 .5 2.5h-1zm-1 4 .5 3.5h-1zm-127 5 .5 206.5h-1zm126 1 .5 15.5h-1zm294 1 1.5 2.5h-1zm-570 10 .5 1.5-2.5 4.5-.5-1.5zm577 4 1.5 3.5h-1q-1.7-1.5-.5-3.5Zm-300 3 .5 3.5h-1zm-281 2 .5 1.5-1.5 2.5-.5-1.5zm584 2 1.5 3.5h-1q-1.7-1.5-.5-3.5Zm-302 1 1.5 5.5h-1l-1-3zm-285 4 .5 1.5-1.5 2.5-.5-1.5zm589 0 1.5 3.5h-1q-1.7-1.5-.5-3.5Zm-302 3 1.5 3.5h-1zm304 2 1.5 3.5h-1q-1.7-1.5-.5-3.5Zm-594 3 .5 1.5-2.5 5.5-.5-1.5zm-5 14 .5 2.5-1.5 3.5-.5-2.5zm606 3 1.5 5.5h-1l-1-3zm-609 7 .5 2.5h-1zm611 0 .5 2.5h-1zm-612 4 .5 2.5h-1zm614 3 .5 2.5h-1zm-615 1 .5 2.5h-1zm616 3 .5 3.5h-1zm-617 1 .5 2.5h-1zm-1 4 .5 2.5h-1zm619 0 .5 2.5h-1zm1 4 .5 3.5h-1zm-621 1 .5 2.5H9zm622 4 .5 3.5h-1zm-623 1 .5 3.5H8zm624 4 .5 4.5h-1zm-625 1 .5 3.5H7zm626 5 .5 4.5h-1zm-627 1 .5 4.5H6zm628 6 .5 5.5h-1zm-629 1 .5 5.5H5zm630 7 .5 7.5h-1zm-631 1 .5 7.5H4zm632 10 .5 13.5h-1zm-633 1 .5 17.5H3zm0 29 .5 16.5H3zm633 4 .5 13.5h-1zm-632 16 .5 7.5H4zm631 1 .5 7.5h-1zm-630 9 .5 5.5H5zm629 1 .5 5.5h-1zm-628 7 .5 4.5H6zm627 1 .5 4.5h-1zm-626 6 .5 3.5H7zm625 0 .5 4.5h-1zm-624 6 .5 2.5H8zm623 0 .5 3.5h-1zm-622 5 .5 3.5H9zm153 0 2.5.5-2.5.5zm24 0 3.5.5-3.5.5zm444 0 .5 3.5h-1zm-472 1 2.5.5-2.5.5zm33 0 2.5.5-2.5.5zm7 2 3.5 1.5-1.5.5-2.5-1.5zm-49 1 1.5.5-6.5 3.5q-1.5-1 1-2zm-139 1 .5 2.5h-1zm619 0 .5 2.5h-1zm-422 2 3.5 2.5-1.5-.5q-3.8-.7-2-2Zm-65 1q1.5 1-1 2l-7 5-.5-.5 3.5-3.5zm-131 1 .5 2.5h-1zm201 1 14.5 13.5 2 3-.5.5-2.5-2.5-10.5-11.5-3.5-2.5zm416 0 .5 2.5h-1zm-616 3 .5 2.5h-1zm615 1 .5 2.5h-1zm-495 1 .5.5-5 5-7.5 10.5.5-1.5 2-4zm-119 2 .5 2.5h-1zm613 1 .5 2.5-1.5 3.5-.5-2.5zm-612 3 .5 2.5h-1zm610 4 .5 2.5-1.5 3.5-.5-2.5zm-608 3 1.5 5.5h-1l-1-3zm216 5 1.5 2.5h-1zm-116 5 .5 1.5-1.5 2.5-.5-1.5zm120 4 1.5 4.5h-1zm-122 1 .5 2.5-1.5 4.5-.5-3.5zm-93 1 1.5 3.5h-1q-1.7-1.5-.5-3.5Zm596 3 .5 1.5-1.5 2.5-.5-1.5zm-379 1 .5 3.5h-1zm-126 3 .5 4.5h-1zm-88 1 1.5 3.5h-1q-1.7-1.5-.5-3.5Zm591 0 .5 1.5-1.5 2.5-.5-1.5zm-376 1 .5 2.5h-1zm-213 4 1.5 3.5h-1q-1.7-1.5-.5-3.5Zm587 0 .5 1.5-1.5 2.5-.5-1.5zm-2 5 .5 1.5-2.5 4.5-.5-1.5zm-582 2 2.5 5.5h-1l-2-4zm577 9 .5 1.5-5.5 9.5.5-1.5zm-566 14 3.5 5.5q-1 1.5-2-1l-2-4zm558 2-.5 1.5-2.5 4.5.5-1.5zm-553 7 2.5 3.5q-1 1.5-2-1zm549 0-.5 1.5-2.5 4.5.5-1.5zm-546 5 2.5 3.5q-1 1.5-2-1zm540 5-.5 1.5-10.5 15.5-.5-.5 2-2zm-535 3 5.5 7.5-.5.5-2.5-2.5-3-5zm8 12L78 523.5l-.5.5-4.5-4.5-12-16zm515 3 .5.5-2.5 2.5-.5-.5zm-3 4 .5.5-2.5 2.5-.5-.5zm-3 4 .5.5-3.5 3.5-.5-.5zm-4 5 .5.5-4.5 4.5-.5-.5zm-488 6 6.5 6.5-.5.5-6.5-6.5zm483 0 .5.5-6 6-23.5 24.5-.5-.5 23-23zm-475 9 20.5 20.5-.5.5L86 534.5zm22 21 6.5 6.5-.5.5-6.5-6.5zm422 1 .5.5-5.5 5.5-.5-.5zm-414 6 13.5 11.5-.5.5-3-3-6-4-4.5-4.5zm407 0 .5.5-4.5 4.5-.5-.5zm-6 5 .5.5-3.5 3.5-.5-.5zm-5 4 .5.5-2.5 2.5-.5-.5zm-381 3 5.5 4.5-.5.5-2-2-3.5-2.5zm377 0 .5.5-2.5 2.5-.5-.5zm-4 3 .5.5-2.5 2.5-14 9q-1.5-1 1-2zm-366 2 13.5 9.5-1.5-.5-10-6-2.5-2.5zm15 10 3.5 2.5-1.5-.5q-3.8-.7-2-2Zm330 2q1.5 1-1 2l-2 1q-1.5-1 1-2zm-325 1 3.5 2.5-1.5-.5q-3.8-.7-2-2Zm5 3 5.5 3.5-1.5-.5q-4-.5-4-3Zm313 0q1.5 1-1 2l-4 2q-1.5-1 1-2zm-11 6q1.5 1-1 2l-9 4v-1zm-277 7 5.5 2.5-1.5.5-4-2zm260 1 1.5.5-5.5 2.5v-1zm-251 3 3.5 1.5-1.5.5-2.5-1.5zm244 0 1.5.5-3.5 1.5v-1zm-239 2 3.5 1.5-1.5.5-2.5-1.5zm234 0 1.5.5-3.5 1.5v-1zm-229 2 6.5 2.5-1.5.5-5-2zm224 0 1.5.5-3.5 1.5v-1zm-204 7 2.5.5-2.5.5zm183 0 2.5.5-5.5 1.5v-1zm-176 2 2.5.5-2.5.5zm169 0 2.5.5-2.5.5zm-162 2 2.5.5-2.5.5zm155 0 2.5.5-2.5.5zm-151 1 2.5.5-2.5.5zm147 0 2.5.5-2.5.5zm-142 1 2.5.5-2.5.5zm137 0 3.5.5-3.5.5zm-133 1 3.5.5-3.5.5zm128 0 3.5.5-3.5.5zm-123 1 3.5.5-3.5.5zm118 0 3.5.5-3.5.5zm-113 1 4.5.5-4.5.5zm107 0 4.5.5-4.5.5zm-101 1 4.5.5-4.5.5zm95 0 4.5.5-4.5.5zm-88 1 5.5.5-5.5.5zm80 0 5.5.5-5.5.5zm-72 1 7.5.5-7.5.5zm62 0 7.5.5-7.5.5zm-51 1 13.5.5-13.5.5zm34 0 13.5.5-13.5.5z" opacity=".996"/><path fill="#004458" stroke="#004458" d="M296.5 1h47l1 1h10l1 1 14 1 1 1h5l1 1h4l1 1h4l1 1h4l1 1 15 3 4 2h3l15 5 11 5h2l35 17 27 17 29 23 26.5 26.5 18 22 18 27 13 24v2l5 9v2l3 5 3 10 2 3 5 15v3l2 4v3l2 4 1 8 1 1 1 8 1 1v4l1 1 1 12 1 1v7l1 1v10l1 1v18l1 1v11l-1 1v18l-1 1v10l-1 1v7l-1 1v6l-1 1v5l-1 1-1 9-2 5v4l-1 1v3l-2 4-1 7-7 21-2 3-4 12-5 9v2l-17 31-18 26q-19.1 24.9-42.5 45.5l-21 17-22 15-31 17h-2l-9 5h-2l-13 6-21 7h-3l-1 1h-3l-4 2-8 1-5 2-9 1-1 1-12 1-1 1h-7l-1 1h-10l-1 1h-18l-1 1h-11l-1-1h-18l-1-1h-10l-1-1h-7l-1-1h-6l-1-1h-5l-1-1-9-1-1-1h-3l-1-1-15-3-4-2h-3l-15-5-3-2-5-1-10-5h-2l-28-14-27-17-29-23L81 532.5l-18-22-18-27-18-35v-2l-3-5-3-10-2-3-5-15v-3l-2-4-3-15-1-1v-4l-1-1v-4l-2-6v-5l-1-1v-6l-1-1v-7l-1-1v-10l-1-1v-47l1-1v-10l1-1 1-14 1-1v-5l1-1 2-14 1-1 3-15 3-7v-3l4-12 2-3 1-5 5-10v-2l14-28 20-31q20.2-27.8 45.5-50.5l18-15 24-17 15-8 2-2 31-15h2l3-2h2l3-2 5-1 3-2 9-3h3l7-3h3l1-1h3l9-3 9-1 6-2h5l1-1 14-1 1-1h10zm1.5 2-1 2-3-1h-7l-1 2-2-1q-6-1-7 2-1-2-5-1l-1 2-5-1-1 2q-1-2-4-1-2 3-3 1-4 0-4 2l-3-1-1 2-3-1-1 2-1-1-6 1-1 2-3-1-1 2-2-1-1 2-1-1-5 1-1 2-2-1-1 2-2-1-1 2-1-1-6 2-1 2-2-1-1 2-1-1-3 1-1 2-1-1-5 2-1 2-1-1-7 3-1 2-1-1-1 2-1-1-1 2-1-1-1 2-1-1-1 2-1-1-1 2-1-1-1 2-1-1-1 2-1-1-4 2-2 3-1-1-1 2-1-1-2 1-2 3-1-1-2 1-2 3-1-1-2 3-1-1-2 3-1-1-2 1v2l-1-1-2 3-1-1-2 3-1-1-3 4-1-1-3 2v2l-1-1-3 4-1-1-4 5-1-1-5 6-1-1-7 8-2 2-1-1-16 16 1 1-3 2-7 7 1 1h-1l-5 5 1 1h-1l-4 4 1 1h-1l-3 3 1 1-1-1-1 2q-4 1-1 3h-1l-3 3 1 1h-1q-3 1-1 3h-1q-3 1-1 3l-1-1-1 2q-2 1 0 2h-1q-3 1-1 3h-1q-3 1-1 3h-1l-2 3q-2 1 0 2h-1l-2 3q-2 1 0 2h-1v2h-1l-3 5q-2 1 0 2h-1v2h-1v2h-1v2h-1v2h-1v2h-1v2h-1v2h-1l-3 5v2q-2 1 0 2h-1l-2 5q-2 1 0 2h-1l-2 3 1 2-2 1 1 2h-1l-3 6 1 2-2 1 1 2-2 1 1 2h-1l-2 4 1 3-2 1 1 2-2 1 1 3h-1l-2 5 1 3-2 1 1 3-2 1 1 3q-3 0-2 4 2 1-1 3-1 3 1 4l-2 1 1 5H7l-1 5q3 1-1 3-1 4 1 7l-2 1v7l1 3-2 1v17l1 1v10l-1 1v16l2 1-1 3v7l2 1q-2 2-1 7 4 1 1 3-1 5 2 6-2 0-1 4 3 1 1 3-1 3 2 4-2 0-1 4l2 1-1 3h2l-1 2 2 10 2 1-1 3 2 1-1 2h2l-1 2 1 5 2 1-1 2 2 1-1 2 2 1-1 2h2l-1 2 1 3 2 1-1 2h2l-1 2 1 3h2l-1 2 1 3h2l-1 2h2l-1 2 2 5h2l-1 2h2l-1 2h2l-1 2h2l-1 2h2l-1 2h2l-1 2h2l-1 2h2l-1 2h2l-1 2 4 7h2l-1 2 1 2 3 1-1 2 1 2 3 1-1 2 3 1-1 2 3 5 4 2-1 2 3 1-1 2 2 3 2-1-1 2 5 7 2-1-1 2 3 4 2-1-1 2 5 3q2 1 0 3l7 5 2 3-1 1 18 17 1-1 2 4 6 5 1-1 1 3 4 3 1-1-1 2h2l3 3 1-1-1 2h2l3 3 1-1v2l4 2q1 4 3 1v2q1 2 3 0l-1 2 11 6q1 2 2 0v2l3 1q1 2 2 0v2l3 1q1 2 2 0v2l5 2q1 2 2 0v2l2-1v2l2-1v2l8 3q1 2 2 0v2l2-1v2l2-1v2l5 2 2-1v2l2-1v2l3 1 2-1v2l3 1 2-1v2l6 2 2-1 1 2 2-1 1 2 2-1 1 2 2-1 1 2 2-1v2l5 1 2-1v2l5 1 2-1 1 2 3-1v2h3q1-2 3 1l3-1 1 2q3 1 4-1l1 2q3 1 4-1l1 2q3 1 5-1l1 2q4 1 6-1l1 2q4 1 7-1l1 2h7l3-1 1 2h13l1-1h19l1 1h13l2-2q2 2 9 1l1-2q2 2 7 1l1-2q1 2 6 1l1-2q1 2 5 1l1-2q0 2 4 1l1-2q0 2 4 1l1-2q0 2 4 1l1-2 3 1 1-2 3 1v-1h2l5-1v-1h2l5-1 1-2 2 1 1-2 2 1 1-2 2 1 1-2 2 1 1-2 2 1v-1h2l3-1v-1h2l3-1v-1h2l3-1v-1h2l5-2v-1h2v-1h2v-1h2l12-6v-1h2v-1h2l4-2 1-2h2v-1h2l2-1 1-2h2l1-2h2l14-9-1-1h2l1-2h2l2-3h2l2-3h2l3-4h2l4-5h2l5-6 3-3 1 1 19-19-1-1q1-3 3-1v-1l6-6-1-1 2-1 4-4-1-1 2-1 3-3-1-1 2-1 2-2-1-1 2-1 2-2-1-1 2-1q2-1 0-2h2l8-13q2-1 0-2l2-1q2-1 0-2l2-1 2-4q2-1 0-2l2-1 2-4q2-1 0-2l2-1-1-1 2-1-1-1 2-1 5-9-1-2 2-1-1-1 2-1-1-1 2-1 2-4-1-2 2-1 1-2-1-2 2-1 1-2-1-2 2-1 1-2-1-2 2-1-1-2 2-1-1-2 2-1-1-2 2-1-1-2 2-1-1-2 2-1 1-3-1-3 2-1 1-3-1-3 2-1-1-3 2-1v-2q-2-2 1-3l-1-3 2-1q1-4-1-4l2-1q1-4-1-4l2-1q1-5-1-5l2-1q1-5-1-6l2-1q1-5-1-7l2-1v-7l-1-1 2-3v-13l-1-1v-19l1-1v-13l-2-2q2-3 1-9l-2-1q2-3 1-7l-2-1q2-2 1-6l-2-1q2-1 1-5l-2-1q2-1 1-4l-2-1q2-1 1-4l-1-1v-1l-1-7-2-1 1-3-1-1v-1l-1-5-1-1v-1l-1-5-2-1 1-2-2-1 1-2-2-1 1-2-2-1 1-2-2-1 1-2-1-1v-1l-1-3-1-1v-1l-1-3-1-1v-1l-1-3-1-1v-1l-1-1v-1l-1-3-1-1v-1l-1-1v-1l-1-1v-1l-1-1v-1l-4-8-1-1v-1l-1-1v-1l-1-1v-1l-2-4-2-2v-1l-1-2-2-2v-1l-1-2-2-2v-1l-7-11-3-3v-1l-2-3-3-3v-1l-3-4h-1v-1l-3-4h-1v-1l-4-4q-3-1-1-2l-6-6-3-2 1-1-17-18-1 1-3-3-5-6-1 1-2-2-3-4-1 1v-1l-1-1-3-3-1 1v-1l-1-1-3-3-1 1-1-1-3-3q-2-4-3-1l-1-1q-1-3-2-1v-1l-10-7q-1-2-2 0l-1-1-2-2q-1-2-2 0l-1-1-2-2q-1-2-2 0l-1-1-4-3q-1-2-2 0l-1-1h-1l-1-1h-1l-1-1h-1l-1-1h-1l-1-1h-1l-1-1h-1l-1-1h-1l-1-1h-1l-1-1h-1l-1-1-4-3-2 1-1-1h-1l-1-1-2-2-2 1-1-1-2-2-2 1-1-1-5-3-2 1-1-2-2 1-1-2-2 1-1-2-2 1-1-2-2 1-1-1-4-2-2 1-1-2-3 1-1-1-7-2-1-1-3 1-1-2-3 1-1-2q-4-1-4 1l-1-1-3-1q-2 3-3-1l-5 1-1-1-4-1q-2 3-3-1-5-1-7 1l-1-2h-7l-3 1-1-2h-17l-1 1h-9l-1-1z" opacity=".996"/><path fill="#004458" stroke="#004458" d="m366.5 118 3 1h7l2-1 1 2q4.7 1.3 6-1l1 2 3-1 1 2 2-1 1 2 2-1 1 2 3 1 1.5-.5.5 1.5 1.5-.5 1.5 2.5 2 1 1.5-.5 1.5 2.5 1.5-.5 3.5 4.5 1.5-.5 3.5 4.5 2.5 1.5-1 1 3.5 3.5 1.5.5 2 3v2L318.5 218l-2.5-2.5-3-6 1-2-2-3v-3l-2-4v-4l-2-2 1-1v-15q-2.5-1.5 1-3 .8-3.2-1-4l2-1 1-5-.5-1.5 1.5-.5 1-3-.5-1.5 1.5-.5-.5-1.5 1.5-.5-.5-1.5 1.5-.5-.5-1.5 2.5-1.5-.5-1.5 2.5-1.5-.5-1.5 4.5-3.5-1-1 2.5-2.5 8 5h5l5-2 4.5-4.5 2-8q-1.7-.7-1-4l2-1 .5-1.5 2 1 1-2 3 1q1.5-3.5 3-1l4.5-.5zm-41 3 .5 1.5q-3.2 2.3-2 9l2 4-1.5-.5-3.5.5-.5 1.5q-.7-1.8-4-1l-1 2-3-1q-1.5 3.5-3 1-3.5-.5-4 2l-3-1q-1.5 3.5-3 1-3.5-.5-4 2l-3-1q-1.5 3.5-3 1-3.5-.5-4 2l-3-1q-1.5 3.5-3 1-3.5-.5-4 2l-3-1q-1.5 3.5-3 1-3.5-.5-4 2l-3-1-1 1h-4l-1 1-4.5.5-.5 1.5q-.7-1.7-4-1l-1 2-4-1-1 2q-.7-1.7-4-1l-1 2q-.7-1.7-4-1l-1 2q-.7-1.7-4-1l-1 2q-.7-1.7-4-1l-1 2q-.7-1.7-4-1l-1 2q-.7-1.7-4-1l-1 2q-.7-1.7-4-1l-1 2q-.7-1.7-4-1l-1 2q-.7-1.7-4-1l-1 2-3.5-1.5v-4l-4-6 2-1 .5-1.5q.8 1.8 4 1l1-2q.8 1.8 4 1l1-2q.8 1.8 4 1l1-2q.8 1.8 4 1l1-2q.8 1.8 4 1l1-2q.8 1.7 4 1l1-2q.8 1.8 4 1l1-2q.8 1.8 4 1l1-2q.8 1.8 4 1l1-2q.8 1.8 4 1l1-2q.8 1.8 4 1l1-2q.8 1.8 4 1l1-2q.7 1.7 4 1l1-2 3 1q1.5-3.5 3-1 3.5.5 4-2l3 1q1.5-3.5 3-1 3.5.5 4-2l3 1q1.5-3.5 3-1l27.5-5.5.5-1.5q.7 1.8 4 1l1-2q.8 1.8 4 1l1-2q.8 1.7 4 1zm-155 49 4 3 7 1 1.5-.5-1 1v206l4 1 .5 1.5q3.3.8 4-1l1 2 5 1 1.5-.5.5 1.5 3 1 1.5-.5.5 1.5 1.5-.5.5 1.5 1.5-.5 1.5 2.5 2 1 1.5-.5 2.5 3.5 11.5 10.5.5 1.5 1.5-.5q-2.3 1.2.5 2.5l1.5.5q-2.2 1.3.5 2.5l1.5.5-.5 1.5 1.5.5q-2 1 0 2l.5 1.5 1.5.5-.5 1.5 1.5.5-1 2 2 1-1 2 1.5 3.5 1.5.5q-1.7.8-1 4l2 1-1 3 .5 1.5q-1-2-2 0l-126.5-.5 2-1q1-4-1-5l2-1 1-7 2-4-.5-1.5 1.5-.5-.5-1.5 1.5-.5-.5-1.5 1.5-.5-.5-1.5 2.5-1.5 5-7-.5-1.5 1.5.5 5.5-7.5 1 1 3-3 5.5-3.5.5-1.5q1 2 2 0l5.5-2.5.5-1.5 2 1 1-2 2 1 1-2 3 1 1-2 3 1q1.1-2.4 4.5-2.5v-209z" opacity=".996"/><path fill="#106e6c" stroke="#106e6c" d="m350.5 127 .5 2.5h-1zm-16 14 2.5.5-2.5.5zm-166 26 .5 213.5h-1zm9 6 4.5.5-4.5.5zm43 225 3.5 3.5-.5.5-3.5-3.5z"/><path fill="#00aa8b" stroke="#00aa8b" d="M333.5 116h7l3 1 5.5 5.5q2.3 3.2 1 10l-4.5 6.5-8 3-1-1q-4.2.7-6-1l-4.5-4.5-2-8q1.8-.7 1-4l3.5-4.5zm95 28 7 1 5.5 4.5 2 5v5l-4.5 7.5-27 15-2 2-5 2-2 2-5 2-2 2-5 2-2 2-23 12-3 3-29 16-2 2-6 3-5 1-6-2-4.5-4.5-1-2v-9l3.5-4.5 1.5.5 3.5 6.5 10-5 5-4 13-7 5-4 13-7 5-4 13-7 5-4 42.5-25.5-3-5zm-252 4h7l3 1 4.5 4.5 2 4v5l-2 5-3.5 3.5-4 2h-8l-7.5-6.5-1-8 2-5 3.5-3.5zm-66 291h131q5.5 2 8.5 6.5l1 2v9l-5.5 6.5-2 1h-135l-7.5-6.5-1-3v-5l2-5 3.5-3.5z"/><path fill="#41d8f6" stroke="#41d8f6" d="m403.5 193 .5 2.5h-1zm0 8 .5 2.5h-1zm-1 4 .5 1.5-2.5 3.5.5-1.5zm-36 6 4.5 4.5-.5.5-4.5-4.5zm33 0 .5.5-3.5 3.5-.5-.5zm-5 4q1.5 1-1 2l-3 1v-1zm-22 1 2.5 1.5-1.5.5q-2.5-1-1-2Zm4 2 2.5.5-2.5.5zm5 1 2.5.5-2.5.5z"/><path fill="#6c949e" stroke="#6c949e" d="m542.5 95 2.5 2.5-.5.5-2.5-2.5zm-235 85 .5 5.5h-1zm328 119 .5 2.5h-1zm0 39 .5 2.5h-1zm-87 200 .5.5-10.5 10.5-.5-.5zm-453 4 2.5 2.5-.5.5-2.5-2.5zm204 93 2.5.5-2.5.5zm39 0 2.5.5-2.5.5z"/><path fill="#a9c3c8" stroke="#a9c3c8" d="m303.5 4 6.5.5-6.5.5zm27 0 6.5.5-6.5.5zm-40 1 2.5.5-2.5.5zm57 0 2.5.5-2.5.5zm182 78 2.5 2.5-.5.5-2.5-2.5zm-420 1 .5.5-2.5 2.5-.5-.5zm-23 23 .5.5-2.5 2.5-.5-.5zm468 1 2.5 2.5-.5.5-2.5-2.5zm-219 7 4.5.5-4.5.5zm81 19 4.5 4.5-.5.5-4.5-4.5zm8 9 2.5 1.5-1.5.5q-2.5-1-1-2Zm-247 4 5.5.5-5.5.5zm-6 3 .5.5-2.5 2.5-.5-.5zm19 18 .5.5-2.5 2.5-.5-.5zm-7 5 .5 206.5h-1zm124 3 .5 3.5h-1zm0 10 .5 3.5h-1zm327 103 .5 2.5h-1zm-629 1 .5 2.5H5zm630 12 .5 5.5h-1zm-631 1 .5 6.5H4zm0 27 .5 6.5H4zm631 2 .5 5.5h-1zm-630 15 .5 2.5H5zm629 1 .5 2.5h-1zm-502 48 .5.5-5.5 5.5-.5-.5zm116 64 .5.5-2.5 2.5-.5-.5zm-140 94 2.5 2.5-.5.5-2.5-2.5zm181 80 2.5.5-2.5.5zm59 0 2.5.5-2.5.5zm-46 1 5.5.5-5.5.5zm30 0 5.5.5-5.5.5z"/><path fill="#2fbaa0" stroke="#2fbaa0" d="m345.5 118 2.5 2.5-.5.5-2.5-2.5zm-37 100 .5 3.5h-1zm-62 223 2.5 2.5-.5.5-2.5-2.5zm5 9 .5 3.5h-1zm-149 9 2.5 2.5-.5.5-2.5-2.5zm8 5 130.5.5-130.5.5z"/><path fill="#5cdcfe" stroke="#5cdcfe" d="m400.5 189 2.5.5-1 2h2l-1 4h1l.5-1.5.5 8.5h-1l-.5-1.5-.5 2.5 1 2h-2l1 2h-2l1 2-3 2 1 1-2.5 2.5-1.5-.5-1.5 2.5-2-1v2l-2-1v2l-3-1v2l-6-1q-.7 1.7-4 1v-1l1.5-.5-2.5-.5-2 1v-2l-2 1-2-3-1 1-3.5-3.5.5-1.5-1.5-.5.5-1.5 26-14z"/><path fill="#fafefe" stroke="#fafefe" d="M310.5 4h19l1 1h16l1 1h9l1 1h7l1 1q4.8-1.3 6 1h5l1 1h4l1 1h4l1 1h4l1 1 7 1 4 2 10 2 15 5 3 2 5 1 34 16 32 20 30 24 21.5 21.5 16 19 20 29 19 36v2l3 5 3 10 2 3 6 18v3l2 4v3l3 9v4l2 5v4l1 1v5l1 1v6l1 1v6l1 1v9l1 1v15l1 1v23l-1 1v15l-1 1v9l-1 1v6l-1 1v6l-1 1v5l-1 1-1 9-1 1-3 15-2 4v3l-7 21-7 15v2l-16 31-17 26-21 26-23.5 23.5-26 21-21 14-36 19h-2l-15 7-21 7h-3l-4 2h-3l-1 1h-3l-9 3-9 1-1 1h-5l-1 1h-6l-1 1h-6l-1 1h-9l-1 1h-15l-1 1h-23l-1-1h-15l-1-1h-9l-1-1-13-1-1-1h-4l-1-1h-5l-5-2h-4l-1-1-11-2-4-2h-3l-18-6-3-2-12-4-5-3h-2l-29-15-30-20-23-19L86 532.5l-19-23-17-25-18-34v-2l-3-5v-2l-6-13-5-15v-3l-2-4v-3l-2-4v-3l-1-1-1-8-1-1v-4l-1-1v-4l-1-1-1-11-1-1-1-17-1-1v-16l-1-1v-19l1-1v-16l1-1 1-17 1-1v-5l1-1v-5l1-1 2-14 1-1 1-7 2-4v-3l2-4v-3l5-15 2-3 4-12 3-5v-2l14-27 16-25 25-31L106.5 87q21.2-19.3 46-35l15-8 2-2 27-13h2l13-6 15-5h3l4-2h3l12-4 9-1 6-2h5l1-1h5l1-1 17-1 1-1h16zM336 115l-5 2-4 4-14 2-1 1h-4l-1 1h-4l-1 1h-4l-1 1h-4l-1 1h-4l-6 2h-4l-1 1h-4l-1 1h-4l-1 1h-4l-1 1h-4l-6 2h-4l-1 1h-4l-1 1h-4l-1 1h-4l-1 1h-4l-1 1h-4l-5 2-14 2-1 1h-4l-1 1h-4l-1 1h-4l-1 1-5-2h-5l-6 3-5 7v8l1 1v215l-9 1-9 4h-2l-15 10q-8 7-14 17l-6 13-1 7-1 1v5l-7 3-4 6v9l1 2q3 4 9 6h133l4-2 4-5 1-3v-6l-2-4q-2-5-8-6l-5-17-9-16q-8-10-18-17l-13-6-7-1-1-1h-4l-1-207 5-3q3-2 4-7l3-2h4l1-1 14-2 1-1h4l6-2h4l1-1h4l1-1h4l1-1h4l1-1h4l1-1h4l1-1h4l1-1h4l1-1h4l1-1h4l1-1h4l1-1h4l1-1h4l1-1h4l1-1h4l1-1h4l1-1h4l1-1h4l1-1h4l1-1h5q-9 8-14 21l-3 9v3l-1 1v5l-1 1v13q2 1 1 6l2 5v3l3 6-5 7v7l2 4q3 3 8 5h7l3-1 2-2 5-2 30-18 1 3 7 5 5 2h10l10-5 4-5 3-7v-8l-3-6 35-20 5-5 2-6-1-5-3-5-5-4h-9l-5-5-15-13-8-4-9-3h-4l-1-1h-22l-12 4q-4-7-14-7Z"/><path fill="#000998" stroke="#000998" d="m550.5 544 .5.5-3.5 3.5-.5-.5z" opacity=".008"/><path fill="#004559" stroke="#004559" d="m307.5 0 25.5.5-25.5.5zm-15 1 3.5.5-3.5.5zm52 0 3.5.5-3.5.5zm-62 1 2.5.5-2.5.5zm73 0 2.5.5-2.5.5zm8 1 2.5.5-2.5.5zm166 75 2.5 2.5-.5.5-2.5-2.5zm-420 1 .5.5-2.5 2.5-.5-.5zm430 8 13.5 13.5-.5.5L539 87.5zm-441 2 .5.5-9.5 9.5-.5-.5zm-17 18 .5.5-2.5 2.5-.5-.5zm478 1 2.5 2.5-.5.5-2.5-2.5zm78 173 .5 2.5h-1zm-635 1 .5 2.5H2zm636 9 .5 3.5h-1zm-637 1 .5 3.5H1zm638 13 .5 8.5h-1zm-639 2 .5 25.5H0zm639 19 .5 8.5h-1zm-638 18 .5 3.5H1zm637 1 .5 3.5h-1zm-636 10 .5 2.5H2zm1 8 .5 2.5H3zm559 165 .5.5-2.5 2.5-.5-.5zm-484 1 2.5 2.5-.5.5-2.5-2.5zm475 9 .5.5-15.5 15.5-.5-.5zm-465 2 12.5 12.5-.5.5L88 540.5zm20 19 2.5 2.5-.5.5-2.5-2.5zm422 1 .5.5-2.5 2.5-.5-.5zm-239 78 3.5.5-3.5.5zm54 0 3.5.5-3.5.5zm-40 1 8.5.5-8.5.5zm21 0 8.5.5-8.5.5z" opacity=".561"/><path fill="#00545b" stroke="#00545b" d="m279.5 0 4.5.5-4.5.5zm18 0 4.5.5-4.5.5zm41 0 5.5.5-5.5.5zm18 0 4.5.5-4.5.5zm-84 1 3.5.5-3.5.5zm13 0 3.5.5-3.5.5zm66 0 3.5.5-3.5.5zm13 0 3.5.5-3.5.5zm-98 1 2.5.5-2.5.5zm11 0 2.5.5-2.5.5zm83 0 2.5.5-2.5.5zm11 0 2.5.5-2.5.5zm-101 1 2.5.5-2.5.5zm97 0 2.5.5-2.5.5zm10 0 2.5.5-2.5.5zm-122 1 2.5.5-2.5.5zm127 0 2.5.5-2.5.5zm-136 2 4.5 1.5-1.5.5-3-1zm145 0 2.5.5-4.5 1.5V7zm-156 3 3.5 1.5-1.5.5-2.5-1.5zm168 0 1.5.5-3.5 1.5v-1zm-172 1 3.5 1.5-1.5.5-2.5-1.5zm176 0 1.5.5-3.5 1.5v-1zm-179 1 2.5 1.5-1.5-.5q-2.4-.1-1-1Zm-7 2 3.5 1.5-1.5.5-2.5-1.5zm196 0 1.5.5-3.5 1.5v-1zm-199 1 3.5 1.5-1.5.5-2.5-1.5zm202 0 1.5.5-2.5 1.5q-1.5-1 1-2Zm-205 1 3.5 1.5-1.5.5-2.5-1.5zm208 0 1.5.5-2.5 1.5q-1.5-1 1-2Zm-210 1 2.5 1.5-1.5.5q-2.5-1-1-2Zm213 0 1.5.5-2.5 1.5q-1.5-1 1-2Zm8 3 1.5.5-2.5 1.5q-1.5-1 1-2Zm5 2 1.5.5-2.5 1.5q-1.5-1 1-2Zm53 27q2.5 1 1 2l-1-1-1.5.5zm-348 2q2.5 1 1 2l-1-1-1.5.5zm351 0q2.5 1 1 2l-1-1-1.5.5zm-354 2q2.5 1 1 2l-1-1-1.5.5zm360 2q2.5 1 1 2l-1-1-1.5.5zm-367 3 1 1 1.5-.5-1.5 1.5q-2.5-1-1-2Zm374 2q2.5 1 1 2l-1-1-1.5.5zm-381 3q2.5 1 1 2l-1-1-1.5.5zm383 0q1 2 2 0l1.5 1.5-1.5-.5-1 1q-2.5-1-1-2Zm-387 3q3 1.5 0 3l-1-1-1.5.5zm391 0q1 2 2 0l1.5 1.5-1.5-.5-1 1q-2.5-1-1-2Zm6 3 3.5 3.5-.5.5-2-2q-1.2 2.3-2.5-.5zm-402 1 1 1 1.5-.5-2.5 2.5-1-1-1.5.5zm406 4q1 2 2 0l3.5 3.5-.5.5-2-2-1 1-2.5-2.5zm-412 1 1 1 1.5-.5-2.5 2.5-1-1-2 2-.5-.5zm419 5q1 2 2 0l8.5 8.5-.5.5-6-6-1 1-3.5-3.5zm-426 1 1 1 1.5-.5-3.5 3.5-1-1L83 103.5l1 1-3.5 3.5.5-1.5-1-1zm446 17 3.5 3.5-.5.5-3.5-3.5zm5 5 4.5 4.5-1 1 .5 1.5-3.5-3.5 1-1-2-2zm-478 6 .5.5-3 3 1 1-2.5 2.5.5-1.5-1-1zm484 1 4.5 4.5-1 1 .5 1.5-2.5-2.5 1-1-3-3zm-490 6 .5.5-2 2 1 1-2.5 2.5-2.5 1.5q2.3 1.2-.5 2.5l-1.5-1.5 3.5-3.5 1.5-.5-1-1zm496 1 2.5 2.5-1 1 .5 1.5-1.5-1.5 1-1-2-2zm4 5 2.5 2.5-.5 1.5 3.5 2.5-.5 1.5 3.5 2.5q-1 2.5-2 1 2.3-1.2-.5-2.5l-2.5-1.5q2.3-1.2-.5-2.5l-2.5-1.5 1-1-2-2zm-508 4 .5.5-2 2 .5 1.5-1.5-1.5zm-3 4-.5 1.5 1 1-1.5 1.5-1.5-1.5zm-3 4-.5 1.5 1 1-1.5 1.5-1.5.5q2.3 1.3-.5 2.5l-1.5-1.5 2.5-2.5 1.5-.5q-2.2-1.2.5-2.5Zm523 0 2.5 2.5-1.5 1.5-1.5-1.5 1-1zm-532 13q3 1.5 0 3l-1.5.5.5 1.5q-2.8-1.2-.5-2.5zm543 3 2.5 3.5q-1 2.5-2 1l.5-1.5-2.5-1.5zm3 5 2.5 3.5q-1 2.5-2 1l.5-1.5-1.5-.5 1-1zm3 5 2.5 3.5q-1 2.5-2 1 2-1 0-2l-.5-1.5-1.5.5zm5 9 2.5 3.5q-1 1.5-2-1l-.5-1.5-1.5.5zm-568 2q2.5 1 1 2l-1-1-1.5.5zm-7 13 1.5 2.5q-1 1.5-2-1zm584 2 .5 1.5q-1 2.5-2 1zm-588 7 1.5 2.5q-1 1.5-2-1zm592 2 .5 1.5q-1 2.5-2 1zm-595 5 1.5 2.5q-1 1.5-2-1zm597 0 .5 1.5q-1 2.5-2 1zm-599 5 1.5 2.5q-1 1.5-2-1zm601 0 .5 1.5q-1 2.5-2 1zm2 6-.5 1.5-.5 1.5-.5-1.5zm1 2 .5 1.5q-1 2.5-2 1zm-608 3 1.5 3.5h-1zm609 0 .5 1.5q-1 2.5-2 1zm-610 3 1.5 3.5h-1zm611 0 .5 1.5q-1 2.5-2 1zm-612 3 1.5 3.5h-1zm613 0 .5 1.5q-1 2.5-2 1zm1 3 .5 1.5-1.5 2.5-.5-1.5zm-616 4 1.5 2.5q-1 1.5-2-1zm-1 3 1.5 3.5h-1zm619 0 .5 1.5-1.5 2.5-.5-1.5zm-620 4 1.5 3.5h-1zm-3 11 1.5 4.5H7q-1.7-1.7-.5-4.5Zm628 4 .5 2.5h-1zm-630 5 .5 2.5H4zm631 0 .5 2.5-1.5 2.5-.5-1.5zm1 5 .5 2.5h-1zm-634 6 .5 2.5H2zm635 0 .5 2.5h-1zm-636 6 .5 3.5H1zm637 0 .5 3.5h-1zm-636 5 .5 2.5H2zm637 2 .5 4.5h-1zm-639 1 .5 3.5H0zm1 5 .5 3.5H1zm637 0 .5 2.5h-1zm1 10 .5 5.5h-1zm-639 2 .5 4.5H0zm0 41 .5 5.5H0zm639 1 .5 5.5h-1zm-638 12 .5 3.5H1zm637 1 .5 2.5h-1zm-638 4 .5 4.5H0zm639 1 .5 3.5h-1zm-637 3 .5 2.5H2zm635 1 .5 2.5h-1zm-636 3 .5 3.5H1zm637 1 .5 2.5h-1zm-635 2 .5 2.5H3zm-1 4 .5 2.5H2zm635 0 .5 2.5h-1zm-1 6 .5 2.5h-1zm-632 5 .5 2.5H4zm631 0 .5 2.5h-1zm-2 3 1.5 4.5h-1zm-623 16 .5 1.5-1.5 2.5-.5-1.5zm1 4 .5 1.5-1.5 2.5-.5-1.5zm617 0 1.5 3.5h-1q-1.7-1.5-.5-3.5Zm-2 7 1.5 3.5h-1q-1.7-1.5-.5-3.5Zm-612 3 .5 1.5-1.5 2.5-.5-1.5zm611 1 1.5 2.5h-1zm-610 2 .5 1.5-1.5 2.5-.5-1.5zm609 1 1.5 2.5h-1zm-608 3-.5 1.5-.5 1.5-.5-1.5zm607 0 1.5 2.5h-1zm-1 3 1.5 2.5h-1zm-604 2 .5 1.5q-1 2.5-2 1zm603 1 1.5 2.5h-1zm-601 5-.5 1.5-.5 1.5-.5-1.5zm599 0 1.5 2.5h-1zm-598 2 .5 1.5q-1 2.5-2 1zm1 3-.5 1.5-.5 1.5-.5-1.5zm593 5 1.5 2.5h-1zm-3 7 1.5 2.5h-1zm-583 4-.5 1.5-.5 1.5-.5-1.5zm6 16 1 1 1.5-.5-1.5 1.5q-2.5-1-1-2Zm566 2 1 1 1.5-.5-1.5 1.5q-2.5-1-1-2Zm-561 4-.5 1.5 1 1 .5 1.5 1.5-.5q-1.5 3-3 0l-1-2zm3 5v2l2.5 1.5q-1.5 3-3 0l-1-2zm550 5q2.8 1.3.5 2.5l-1.5 2.5q-3-1.5 0-3l1.5-.5zm-538 14-.5 1.5 1.5 1.5 2.5 1.5-1 1 .5 1.5-4.5-5.5zm527 3 1.5 1.5-2.5 2.5-1.5.5q2.3 1.3-.5 2.5l.5-1.5-1-1 1.5-1.5 2.5-1.5zm-522 4-.5 1.5 1.5 1.5 2.5 1.5q-2.2 1.3.5 2.5l2.5 1.5-1 1 2 2-.5.5-2.5-2.5.5-1.5-3.5-2.5.5-1.5-3.5-2.5zm517 3 1.5 1.5-2.5 2.5.5-1.5-1-1zm-3 4-.5 1.5 1 1-2.5 2.5-1.5.5 1 1-3.5 3.5-.5-.5 2-2-1-1 2.5-2.5 2.5-1.5q-2.2-1.2.5-2.5Zm-505 5q2.8 1.3.5 2.5l2.5 2.5 3.5 2.5-1 1 3 3-.5.5-4.5-4.5.5-1.5-4.5-3.5 1-1zm497 5-.5 1.5 1 1-3.5 3.5-.5-.5 2-2-1-1zm-5 6-.5 1.5 1 1-8.5 8.5-.5-.5 6-6-1-1zm-482 1 3.5 3.5-1 1 7 7-.5.5-9.5-9.5 1-1zm471 11 .5.5-8.5 8.5-.5-.5zm-452 10 6 6 1-1 3.5 3.5-1.5-.5-1 1-8.5-8.5zm441 2 .5.5-6.5 6.5-1-1-2 2-.5-.5 3.5-3.5 1 1zm-429 9q1.5 3.5 3 1l2.5 2.5-1.5-.5-1 1-3.5-3.5zm419 0 .5.5-4.5 4.5-1.5-1.5 2.5-2.5q1.5 2.5 3-1Zm-413 5 2 2q1.3-2.2 2.5.5l-1.5 1.5-3.5-3.5zm404 1 1 1 1.5-.5-2.5 2.5-1-1-1.5.5zm-398 4q1 2 2 0l1.5 1.5-1.5-.5-1 1q-2.5-1-1-2Zm393 0 1 1 1.5-.5-1.5 1.5-1-1-1.5.5zm-389 3q1 2 2 0l1.5 1.5-1.5-.5-1 1q-2.5-1-1-2Zm385 0 1 1 1.5-.5-2.5 2.5-1.5-1.5zm-381 3 1 1 1.5-.5-1.5 1.5q-2.5-1-1-2Zm377 0 1 1 1.5-.5-1.5 1.5-1-1-1.5.5zm-4 3 1 1 1.5-.5-1.5 1.5q-2.5-1-1-2Zm-366 2 1 1 1.5-.5-1.5 1.5q-2.5-1-1-2Zm3 2 1 1 1.5-.5-1.5 1.5q-2.5-1-1-2Zm6 4 1 1 1.5-.5-1.5 1.5q-2.5-1-1-2Zm342 2 1 1 1.5-.5-1.5 1.5q-2.5-1-1-2Zm-292 23q1.5 1-1 2l-1.5-.5zm10 4q1.5 1-1 2l-1.5-.5zm5 2 1.5.5-2.5 1.5q-1.5-1 1-2Zm217 0 2.5 1.5-1.5.5q-2.5-1-1-2Zm-214 1q1.5 1-1 2l-1.5-.5zm211 0 2.5 1.5-1.5.5q-2.5-1-1-2Zm-208 1q1.5 1-1 2l-1.5-.5zm3 1q1.5 1-1 2l-1.5-.5zm3 1q1.5 1-1 2l-1.5-.5zm193 0 2.5 1.5-1.5.5q-2.5-1-1-2Zm-4 1 3.5 1.5-1.5.5-2.5-1.5zm-179 2 1.5.5-3.5 1.5v-1zm172 0 3.5 1.5-1.5.5-2.5-1.5zm-20 5 4.5 1.5-2.5.5-2.5-1.5zm-135 1 2.5.5-2.5.5zm8 0 1.5.5-4.5 1.5v-1zm122 0 4.5 1.5-2.5.5-2.5-1.5zm-120 2 2.5.5-2.5.5zm117 0 2.5.5-2.5.5zm-111 1 2.5.5-2.5.5zm95 0 2.5.5-2.5.5zm10 0 3.5.5-3.5.5zm-99 1 2.5.5-2.5.5zm13 0 2.5.5-2.5.5zm67 0 2.5.5-2.5.5zm13 0 2.5.5-2.5.5zm-86 1 3.5.5-3.5.5zm16 0 5.5.5-5.5.5zm44 0 5.5.5-5.5.5zm18 0 3.5.5-3.5.5z" opacity=".063"/><path fill="#467882" stroke="#467882" d="m298.5 4 2.5.5-2.5.5zm41 0 2.5.5-2.5.5zm198 86 4.5 4.5-.5.5-4.5-4.5zm-436 1 .5.5L91.5 102l-.5-.5zm444 7 4.5 4.5-.5.5-4.5-4.5zM4.5 298l.5 2.5H4zm0 41 .5 2.5H4zm86 198 4.5 4.5-.5.5-4.5-4.5zm8 8 4.5 4.5-.5.5-4.5-4.5z"/><path fill="#009d9b" stroke="#009d9b" d="m454.5 27 2.5 1.5-1.5.5q-2.5-1-1-2Zm88 61 2.5 2.5-.5.5-2.5-2.5zm5 6 3.5 2.5-.5.5-2-2q-2.4-.1-1-1Zm-458 449 2.5 2.5-.5.5-2.5-2.5zm6 6 2.5 2.5-.5.5-2.5-2.5zm72 54 3.5 1.5-1.5.5-2.5-1.5z" opacity=".008"/><path fill="#00505c" stroke="#00505c" d="m302.5 0 4.5.5-4.5.5zm31 0 4.5.5-4.5.5zm-44 1 2.5.5-2.5.5zm59 0 2.5.5-2.5.5zm187 82 3.5 3.5-.5.5-3.5-3.5zm-432 1 .5.5-4.5 4.5-.5-.5zm-15 15 .5.5-4.5 4.5-.5-.5zm465 2 3.5 3.5-.5.5-3.5-3.5zm85 187 .5 2.5h-1zm-637 1 .5 2.5H1zm638 12 .5 3.5h-1zm-639 1 .5 4.5H0zm0 31 .5 4.5H0zm639 2 .5 3.5h-1zm-638 13 .5 2.5H1zm637 1 .5 2.5h-1zm-1 9 .5 2.5h-1zm-80 176 .5.5-3.5 3.5-.5-.5zm-474 1 4.5 4.5-.5.5-4.5-4.5zm18 18 3.5 3.5-.5.5-3.5-3.5zm436 1 .5.5-3.5 3.5-.5-.5zm-258 83 2.5.5-2.5.5zm79 0 2.5.5-2.5.5zm-70 1 2.5.5-2.5.5zm61 0 2.5.5-2.5.5zm-48 1 3.5.5-3.5.5zm34 0 3.5.5-3.5.5z" opacity=".471"/></svg>