<svg xmlns="http://www.w3.org/2000/svg" viewBox="0 0 640 360"><path fill="#2f1006" stroke="#2f1006" d="m172.5 32 1.5.5-2 2-3 8-1 11-1 1-.5 10.5-1-5-.5 9.5 2.5 3.5 3.5 1.5-2 2v174l1 2q-2 1 0 2l.5 48.5q3.8.8 4.5-1.5l.5-2.5 25.5.5-12 1 5.5 1.5 7.5 5.5-7.5.5-1 1h-21l-1 1-14.5.5 28.5.5 1-1h13l1-1h13l1-1h8l1-1h5l1-1 6-1v1l-6 1-1 1h-4l-1 1h-6l-1 1-8.5.5 5 1-3 1 2 6v5l-.5 1.5 1.5.5-7.5.5-1 1h-10l-1 1h-12l-1-1h-9l-1 1h-17l-.5-1.5q2.8-1.6 3-6l-2.5-1.5-8 9-1-1h-10l-1-1h-6l-1-1h-4l-1-1-7-1-3-1-5.5-4.5v-13l-1-1v-6l5.5-3.5 6-2h4l6-2h6l2-1 1 3 7 3 8 1 1 1h4l.5-120.5-2.5-1.5q-.7 1.8-4 1-1-2-2 0l-1.5-.5q2-2.5 1-8l1-1v-6l1-1v-6l1-1v-6l1-1v-6l1-1v-6l1-1v-7l1-1 1-13 1-1 .5-33.5 6.5-3.5 1-3v-13l1-1v-7q2-1 1-5l3-8zM164 75l-1 112 1 1-1 2q2 1 0 2l1 1v57q2 1 0 2l1 1 1 10v-9l1-1-1-1v-12q2-1 0-2l1-2v-85l1-2q-2-1 0-2l-1-2 1-2q1-5-1-6v-22l1-1-1-2q2-1 1-4-2-1 0-2l-1-2 1-1V77q-1-3-4-2Zm-10 225-2 2-5 1 1 2h5v1q-5 1-5-1l-4 1 2 1h6l1 1 3-1h7l2-1v-2l-4-3zm-41 7v1h2zm4 1v1h3zm4 1v1h4zm6 1v1h6zm8 1v1h9zm61 0v1h9zm-48 1v1h43zM456.5 32l8.5.5-8.5.5zm-4 1 2.5.5-2.5.5zm16 0 2.5.5-2.5.5zm-19 1 1.5.5q-8.8 3.2-14 10l.5 1.5 6-6 .5.5-8.5 9.5q-1.2-2.2-2.5.5l.5 1.5 1.5-.5-3.5 6.5-1-2-.5 2.5 1 2-2.5 6.5-1-2-.5 2.5 1 3h-1l-.5-1.5-.5 3.5q1.8.8 1 4h-1l-.5-2.5-.5 3.5 6 3-2 1v176l1 1 .5 43.5q3.8.8 4.5-1.5l.5-9.5h9q2.3 3.8 7.5 4.5l-9 4q-.7 3.8 1.5 4.5l15 5q4.8-1.2 6 1h8l1 1 11.5.5-1.5 1.5q-1-2-2 0h-6l-1 1-40.5.5 11.5.5 1 1h17l1-1h13l1-1h16l1-1h8l1-1h6l3-1v1l-7 1-1 1-16.5 1.5 7 1-2 1 1 1 .5 11.5 1.5.5-7.5.5-1 1h-10l-1 1h-15l-1-1h-6l-3 1-2-1-1 1h-20l-1-1h-9l-1-1h-7l-1-1-9-1-1-1-6-1-7.5-4.5-1-11 1-3-2-1q-1.5-7 2.5-8.5l6-2v3l-2.5.5 1.5 1.5h14l4.5-2.5-2.5-2.5-9.5-1.5 5.5-.5 1-1h5l4.5-1.5.5-210.5 7.5-4.5 1-9 1-1v-3l2-6 7-13 7.5-7.5zM437 46l-2 3q1 1 2-1zm-13 35-1 87q2 1 0 2l1 1v75l1 1 1 13v-9q2-1 0-2v-9l1-1-1-2 1-1V135q2-1 0-2l1-3q-2-2-1-6l1-3q1-5-1-5 2-1 1-5-2-1 0-2V94l-1-1q-1-4 1-4l-1-2 1-2q-2-1 0-2-1-3-4-2Zm-26 231v1h2zm4 1v1h4zm6 1v1h4zm6 1v1h7zm9 1v1h12zm54 0v1h11zm-38 1v1h33zm36.5-282 4.5 1.5-1.5.5-3-1zm6 2q8.9 2.6 14.5 8.5l.5 1.5 1.5.5-.5 1.5-2-2-.5.5 2.5 3.5q1.2-2.2 2.5.5h-2l1.5 3.5 1-2 .5 1.5-1 2h2l-1 4h1l.5-1.5.5 2.5q-2.3 1.3-1 6h1l.5-3.5.5 7.5-1 1v8l1 1 .5 15.5 1.5.5-.5 2.5-3-1-4 2q-3-1.5 0-3l2.5-1.5v-33l-1-1-1-6-3-4 1-1-7-7 .5-.5 4 3 .5-.5-3.5-3.5-10-5zM503 88l-1 8h1z" opacity=".996"/><path fill="#2f1006" stroke="#2f1006" d="m185.5 57 .5 5.5q-2.2 1.3-1 6h1l.5-4.5 1 37 2.5.5-1.5 2.5-2-1-3 2-2.5-1.5 4-3v-30l-1-1v-7l1-1zm311 46 .5 7.5-1 2 1 2-1 1v28l-1 1-.5 32.5h-6l-1 1q-1-2-2 0-5.5 1-8-1l-1 1h-11q-1-2-2 0l-3-1-2 1 .5-1.5 1-12 1-1v-7l1-1v-6l1-1v-6l1-1v-7l1-1v-7l1-1v-6l1-1v-7l1.5-4.5 5-2h6l1-1h15zm-1.5 2-1 23h1zm-1 24-1 41q-2 0-1 4-2 1 1 2h1zm-6 8-1 6h1zm0 7-1 4h1zm15.5-41 .5 57.5 1 1 .5 14.5 7.5-.5v-6l-1-1v-26l-1-1v-24l-1-1v-12q1.2-2.7 2.5-.5l6.5.5v13l1 1v15l1 3-1 2 1 1v10l1 2-1 3 1 1v9l1 2-1 3 1 1q-1.2 4.7 1 6l-5.5 1.5-3.5-1.5 2-1-2-1v-18l-1-2q1.8-.7 1-4l-1-1-.5-17.5-.5 26.5 1 1v17l-16.5.5-1 1-.5-1.5 7-1zm9.5 2v27l1-4q1-4-1-4zm5 10-1 8h1zm1 13-1 11h1zm1 15-1 12h1zm1 16-1 12h1zm1 15-3 1v1h3zm-346.5-67 6.5.5-3 1v19l-1 1q2.3 1.2 1 6-2.5 1.5 1 3l1 2-.5.5-3.5-3.5-.5-1.5-1.5-.5zm1.5 12-1 3h1zm0 5-1 10h1zm6.5-17 .5 15.5h-1zm7 0 .5 2.5h-1zm2 1 4.5.5-4.5.5zm5 2 .5 17.5 1 1q-2 1 0 2l-1 4 1 1v15l1 2q-1.7.8-1 4l1 1v14l1.5 2.5 7.5.5-15.5.5v-1l5.5-.5v-16l-1-1v-20l-1-1v-19q-2-1-1-5zm-7 1 .5 20.5h-1zm273 9 .5 5.5h-1zm-1 7 .5 5.5h-1zm-270 1 .5 2.5h-1z" opacity=".996"/><path fill="#2f1006" stroke="#2f1006" d="m182.5 129 .5 45.5-7.5.5-.5-28.5 5-3 .5-1.5.5 1.5-4 5v7q1.8.8 1 4l-1 3 1 1-2 2 1 1-1 3 .5 4.5 5.5-.5zm8 4 .5 13.5h-1zm271 1 .5 2.5h-1zm-26 3q.7 1.8 4 1l1-1h10l1 1 10.5 1.5q-1.7.8-1 4 2.2 1.3-.5 2.5-.7-1.7-4-1-.7 1.8-4 1l-.5-1.5 2.5-1.5 2 1q1-2 2 0l1.5-.5-.5-2.5q-3.2.8-4-1l-3 1-1-1h-12l-2 1-2-3-2 4-.5-2.5zm-2 6 1.5.5-.5 3.5q-2.5-1-1-4Z" opacity=".996"/><path fill="#2f1006" stroke="#2f1006" d="m437.5 143 1 1 12.5.5-.5 1.5h-11l-1-1q-1.2 2.3-2.5-.5zm-247 6q2.8 1.3.5 2.5 2.3 3.2 1 10l-1.5.5-.5-5.5 1-2-1-3 1-1zm268 7 .5 3.5h-1zm-1 7 .5 5.5h-1zm-260 2 .5 4.5h-1zm-6 2 .5 7.5-7.5.5v-1l6.5-.5zm265 5 .5 2.5h-1zm69 4 2.5.5-2.5.5zm11 0 1.5.5-2.5 1.5q-1.5-1 1-2Zm-140 120 2.5.5-2.5.5zm-104 12 13.5.5-.5 2.5q-1-2-2 0l-7.5.5 10 1-.5 1.5-15.5-.5q-.7-4.7 2.5-5.5Zm19 0q3-.5 3.5 1.5l-1.5-.5q-3 .5-2-1Zm-3 1 4.5 1.5-5.5 1.5-.5-1.5zm71 6 2.5.5-2.5.5zm-26 1 2.5.5-2.5.5zm21 0 2.5.5-2.5.5zm-250 16-.5 1.5-1.5 4.5-1.5.5.5 1.5-2 1v-2q-3-.5-3.5 1.5l.5 1.5 1.5-.5q-2.5.5-2 4l1.5.5 3.5-2.5.5-1.5 1 1 1.5-.5q.5 3-1.5 3.5l-6 1-1-1-5.5-.5q2.5-.5 2-4l-1.5-.5-3 3-1.5-1.5 2.5-3.5q5.6-.9 9-4l5-1z" opacity=".996"/><path fill="#58250f" stroke="#58250f" d="m174.5 32 .5.5-2.5 2.5-.5-.5zm281 1h12l1 1h3l9 3 8 4 7 6 1.5-.5q-2.2 1.3.5 2.5l2.5 1.5-.5 1.5 1.5.5-1 2h2l-1.5 2.5-3-6-1 1-6-6-11-6-6-2h-3l-5-2h-9l-10 4-6.5 5.5-5.5 7.5-1.5-.5 1 2h-2l1 2h-2l1 2-2 1 1 2q-1 1.5-2-1l4-10 4-6 5.5-5.5 9-5q3.3.8 4-1ZM494 47q-2 1 1 2v-1zM174.5 35q4-.5 4.5 2.5l4 7 3 12-1 1-.5 4.5-3.5-13.5 1-3-3-6-3.5-3.5q-2.4-.1-1-1Zm-6 12 .5 2.5h-1zm-1 7 .5 3.5h-1zm335 3 .5 1.5-1.5 2.5-.5-2.5zm-316 2 .5 4.5-1 1-.5 4.5-.5-5.5zm-21 1 .5 4.5 1 1v6l1 1q-1 1.5-2-1l-1-2zm338 0 .5 3.5-1.5 4.5-.5-5.5zm-75 2 1.5 2.5q-1 1.5-2-1zm-1 3 1.5 3.5q-1 1.5-2-1zm77 3 .5 22.5h-1l-1-18zm-78 1 1.5 4.5q-1 1.5-2-1zm-1 5q.1 3.4 2.5 4.5l-1.5-.5-1.5-.5zm-262 1q3.8-.7 4.5 1.5v26l-1 1 1 2q-2 1 0 2 .8 3.3-1 4l1 2-1 1v22q2.3 1.3 1 6l-1 2 1 2q-2 1 0 2l-1 2v85l-1 2q2 1 0 2v12l1 1-1 1-.5 9.5-.5-10.5-1-1q2-1 0-2v-57l-1-1q2-1 0-2l1-2-1-1z" opacity=".996"/><path fill="#58250f" stroke="#58250f" d="m170.5 75 2.5.5-2 1v154l1 1q-2 1 0 2l.5 68.5 1.5.5-3.5.5-.5-48.5-1-1 1-2-1-1v-174zm17 0 .5 14.5h-1zm236 6q3.8-.7 4.5 1.5-2 1 0 2l-1 2 1 2q-1.7.8-1 4l1 1v15q-2 1 0 2 1 4-1 5 2 1 1 5l-1 3q-1.2 4.8 1 6l-1 3q2 1 0 2v101l-1 1 1 2-1 1v9q2 1 0 2l-.5 9.5-.5-13.5-1-1v-75l-1-1q2-1 0-2zm6 0 1.5.5v162q1.7.8 1 4-2 1 0 2l-.5 52.5-1.5-.5v-43l-1-1zm73 7 .5 7.5h-1zm4 10 1.5.5-1 1 .5 1.5-3.5.5.5 1.5 6.5-.5.5-1.5.5 1.5-2 2v12l1 1v24l1 1v26l1 1v6l-7.5.5-.5-14.5-1-1-.5-57.5-1 73h-6l-1 1-.5-32.5 1-1v-28l1-2-1-2 1-1v-7l-1.5.5-7.5-.5.5-2.5 1.5.5.5 1.5 5.5-.5 1.5-2.5-.5 1.5.5 1.5 5.5-.5-.5-1.5-3.5-.5 4.5-1.5 2 1zm-25 3 1.5.5-.5 2.5zm37 0 1 3 3.5.5.5 4.5 1-8 1.5.5q-2 1-1 5l1 1v7h-2l.5 6.5 1-5q2.8 2.7 1.5 9.5h-2l.5 6.5 1-5q2.8 2.7 1.5 9.5h-2l.5 6.5 1-5q2.8 2.7 1.5 9.5h-1l-.5-1.5-.5 8.5h1l.5-5.5q2.3 1.8 1.5 6.5-2 1 0 2-1 4 1 5v7h-1l-.5-1.5-.5 8.5.5 1.5-1-1-1.5.5.5-1.5-2.5.5.5 1.5-2.5-.5q2-1 0-2v-5l-1-3 1-2-1-1v-9l-1-3 1-2-1-1v-10l-1-2 1-3-1-1v-15l-1-1-.5-13.5-5.5-.5 5-1zm10.5 56-1 9h1zm-339.5-55 1.5.5q-2 1 0 2l.5 2.5 5.5-.5.5-1.5 1 2 4 1 1-3 1.5 4.5v13l1 1v12l1 1v13l1 1v12l1 1 .5 10.5 5.5-.5.5-2.5 1 4q3.3.7 4-1l.5 1.5-4.5.5q-1-2-2 0l-2-1q-1 2-2 0l-2-1-7.5-.5-1-2-.5-14.5-1 17q-4.8-1.2-6 1l-1-8-1 7h-6l-1 1-1-46-1 45-5.5-.5q-1-4 1-5l-1-1q2-1 0-2l2-2-1-1 1-6-1-1v-7l2-3-1.5-.5-2 1-.5-6.5h1l.5 2.5q3.5-.5 4 2l.5-1.5-1-2q2-1 0-2l-2-3q2.3-1.2 1-6-2-1 0-2l.5-19.5q3 .5 3.5-1.5l-.5-1.5-4.5-.5 4.5-.5q1 2 2 0l2-1 2 1zm-4.5 3-1 2h6v-1zm-1 2-1 16h1zm7 0-1 3h1zm2 1v1h4zm5 2-2 2q-1 3 1 5v19l1 1 1 20 1-4-1-2v-15l-1-1 1-4q-2-1 0-2l-1-1zm-7 1-1 21h1zm2 17-1 3h1zm-2 5-1 14h1zm0 18q-2 3 0 4l-1 2 1 5h1q1-8-1-11Zm7 14-1 5h1zm274.5-63 1.5.5-2 1 1 2-1.5.5-.5-2.5zm4 0 1 2 2.5.5-3.5.5zm53 0 1.5 2.5-1.5.5zm3 0 1.5.5 1 5h-1v-2l-2-3zm-64 1 1.5 3.5-1.5.5zm68 0 1.5 2.5-1.5.5zm-70 1 .5 1.5-1 1-.5 5.5-.5-5.5z" opacity=".996"/><path fill="#58250f" stroke="#58250f" d="m494.5 105 .5 22.5h-1zm18 0 .5 18.5q1.8.7 1 4-1.7.8-1 4l1 1v17q1.8.7 1 4l-1 2 1 1 .5 18.5 1.5.5-2.5 1.5-.5-17.5-1-1v-26l-1-1zm-357 1 .5 2.5h-1zm58 0 .5 3.5h-1zm-60 1 .5 4.5-1.5.5-.5-1.5q2-1 0-2zm63 0 .5 2.5h-1zm2 0q2.5 1 1.5 5.5h-1v-4zm312 0 .5 4.5h-1zm7 1 .5 2.5h-1zm-328 2 .5 6.5h-1zm8 1 .5 4.5h-1zm318 1 .5 5.5h-1zm-383 1 .5 6.5q-1 2.5-2 1 2-1 0-2l1-2q-2-1 0-2zm62 1 .5 3.5h-1zm6 0 .5 5.5h-1zm244 0 .5 4.5h-1zm53 1 .5 7.5h-1zm14 0 .5 5.5h-1zm-313 3 .5 5.5h-1zm-42 1 .5 2.5h-1zm360 0 .5 6.5h-1zm-326 1 .5 7.5h-1zm11 1 .5 5.5h-1zm-6 2 .5 3.5h-1zm-39 1 .5 9.5h-1zm356 0 .5 5.5h-1zm-313 2 .5 5.5h-1zm3 2 .5 5.5h-1zm296 0 .5 10.5h-1zm19 0 .5 2.5h-1zm-44 1 .5 46.5-1.5.5-1-1-1.5.5 2-2q-.7-3.2 1-4zm-282 1 .5 5.5h-1zm9 4 .5 3.5h-1zm313 0 .5 3.5h-1zm-358 1 1.5.5-.5 1.5-1.5-.5zm48 1 .5 4.5h-1zm211 1 3 4 2-1h12l3 1q1-2 2 0l3.5.5-.5 2.5-2-1-2 1q-1-2-2 0l-1.5.5.5 1.5 7-1q1 2 2 0l1.5 1.5-.5 1.5-3-1-3 1h-22q-2.5-1-1-2l1.5.5-.5-3.5-1.5.5-.5 1.5-.5-3.5 1.5.5 1.5-1.5zm3.5 6-2 2q1 2 3 0l1 1h11v-1l-12-1zm49.5-6 .5 5.5h-1zm-275 3 .5 7.5h-1z" opacity=".996"/><path fill="#58250f" stroke="#58250f" d="m461.5 140 .5 3.5h-1zm-240 1 .5 3.5h-1zm313 1 .5 4.5h-1zm-310 1 .5 4.5h-1zm295 0 .5 11.5h-1zm-32 1 .5 3.5h-1zm55 2 .5 2.5h-1zm-320 3 .5 3.5h-1zm-9 1 .5 5.5h-1zm12 0 .5 3.5h-1zm234 1 .5 2.5h-1zm76 0 .5 4.5h-1zm8 2 .5 2.5h-1zm-320 4 .5 2.5h-1zm297 2 .5 11.5 1 2h-1l-1-2zm-306 1 .5 7.5h-1zm322 0 .5 4.5h-1zm8 0 .5 2.5h-1zm-320 4 .5 3.5h-1zm318 4 .5 3.5h-1zm3 0 .5 2.5h-1zm-8 1 .5 4.5h-1zm-312 2 1 4 1.5.5-5.5.5v-1l2.5-1.5zm305 0 2 5q3.8-.7 4.5 1.5l-1.5-.5-1 1q-4 .5-4.5-2.5zm-9 3 .5 1.5-3.5.5v-1zm25 1q2.5 1 1 2l-4 1q-1-2-2 0l-2.5-.5q.5-2 3.5-1.5l3 1zm-391 112 .5 9.5-4.5.5-1-1-8-1-7.5-3.5.5-2.5 9-1v1l-3.5.5 3.5.5 3 3 6 1 1 1zm19 1 .5 4.5h-1zm260 3 .5 9.5q-1 2.5-2 1l1-1zm11 0h9l4 2 5.5.5-11.5 2.5-5-2-2.5-2.5zm29 0 4.5.5-4.5.5zm-240 1 2 2 3.5.5.5 1.5 1.5-.5q-2.8 4.2-11.5 2.5l-11.5 5.5 3 1-2.5 1.5-7.5 1.5 2 1-13.5.5-1 1h-13l-1 1h-28v-1h14l1-1h21l1-1 7.5-.5-7.5-5.5-5.5-1.5 12-1-5-1 11.5-.5 1-1h10l1-1 2 1 1-1h7l4.5-1.5-5-1 4.5-.5zm-37 4 2.5.5-2.5.5zm-44 4 2.5.5-2 1-.5 1.5-2.5.5 5 2-2.5.5q-1-2-5-1l-2 1v-1l1.5-.5-1-2 4.5-.5zm89 0-.5 1.5-1 2-.5 12.5-1-11-6 2-2.5-1.5 1.5-.5 3 1v-1l-1.5-.5 2.5-.5 1.5.5 1.5-2.5zm201 1 3.5.5-2.5 2.5-1.5-1.5zm-217 5 5.5 1.5-7 2 1 1v4l2 6-1 1 .5 1.5-3-1-1 2q-4-1-5 1h-7l.5-1.5v-5l-2-6 3-1-5-1 8.5-.5 1-1h6l1-1 4.5-.5-2.5-.5zm-114 1 2.5.5-2.5.5zm40 0 2.5.5-2.5.5z" opacity=".996"/><path fill="#58250f" stroke="#58250f" d="m219.5 307 3.5.5-3.5.5zm304 0 1.5.5-1.5 2.5-13.5 4.5 1 1v9l1 1-1 1 .5 1.5-2-1-2 2q-3.3-.7-4 1h-7l-.5-11.5-1-1 2-1-7-1 9.5-.5 1-1h6l1-1 4.5-.5-3-1 2.5-.5 3 1v-2h3zm-407 1 8.5 1.5-4.5.5q-.7-1.8-4-1zm198 0h11l1 1h4l5 2h4l1 1h4l6 2h6l1 1h18l1-1h4l6-2 .5 2.5-4.5 1.5-3-1v1l1.5.5-3.5.5-3-1v1l1.5.5-22.5.5-1-1h-5l-4.5-1.5.5-1.5-5 1-1-1h-4l-5-2q-4.7 1.2-6-1h-9l-3.5-1.5zm39.5 8v1h2zm-227.5-6 6.5.5-6.5.5zm161 0q2.5 1 1 2l-1.5-.5zm17 0q2.5 1 1 2l-9.5-.5 7.5-.5zm170 0 2.5.5-2.5.5zm-340 1 9.5.5-9.5.5zm61 0 9.5.5-9.5.5zm114 0 2.5.5-2.5.5z" opacity=".996"/><path fill="#58250f" stroke="#58250f" d="M486.5 311q7.8-1.8 9.5 2.5l-16.5.5-1 1h-13l-1 1h-17l-1-1-11.5-.5 40.5-.5 1-1h6l1-1q1.5 2.5 3-1Zm37 0 .5 9.5h-1zm-376 1 43.5.5-43.5.5zm160 0 .5 1.5-1.5 1.5h-15v-1h14zm90 0 2.5.5-2.5.5zm103 0 4.5.5-4.5.5zm-99 1 4.5.5-4.5.5zm6 1 4.5.5-4.5.5zm6 1 7.5.5-7.5.5zm9 1 12.5.5-12.5.5zm54 0 11.5.5-11.5.5zm-38 1 33.5.5-33.5.5zm-285 2 2.5 1.5-1.5-.5-1.5.5-7.5 8.5-.5-.5 7-7zm18 8 9.5.5-9.5.5zm-45 4 .5.5-2 2 3 4q-3.8.2-5 3 2.2 1.3-.5 2.5l-2.5-1.5-.5-1.5-1 2-1-1-1.5.5 1.5-2.5 4 1v-2l1.5-.5 1-4zm330 1 6.5.5-6.5.5zm-329 7 .5 1.5q-1 2.5-2 1zm-16 7 4.5.5-4.5.5z" opacity=".996"/><path fill="#9c421e" stroke="#9c421e" d="m174.5 33 2.5 1.5-1.5-.5q-2.4-.1-1-1Zm-3 4 1.5.5q-1 2.5-2 1zm-1 3 .5 2.5h-1zm-1 4 .5 3.5h-1zm-1 6 .5 3.5h-1zm18 6 .5 2.5h-1zm-19 2 .5 7.5h-1zm20 4 .5 12.5h-1zm317 2 .5 2.5h-1zm-75 1 .5 2.5h-1zm-1 4 .5 2.5h-1zm-1 5 .5 2.5h-1zm-256 2 1.5 1.5v144l1 1v76l1 3-2.5.5-.5-68.5-1-1q2-1 0-2zm260 5 1.5 2.5v54l1 1h-2l1 2q-1.7.8-1 4 2 1 0 2l.5 1.5 1.5-.5-1 1v88l1 1v45l-1 1v8q2 1 0 2-.8 4.8 1 7-1 2.5-2 1v-52l-1-1q1.7-.7 1-4l-1-1zm-244 9 .5 9.5h-1zm317 1 .5 4.5h-1zm19 13 .5 4.5h-1zm2 0 2.5 1.5.5 2.5 1-3 1.5.5-2 4v6h1l.5-3.5 1.5.5v2l-2 3v8h1l1-3q-2.2-1.2.5-2.5l.5 3.5q-3.6 2.9-2 11h1l.5-4.5 1.5.5q.8 4.3-2 5v8h1l.5-5.5q2 .5 1.5 3.5-3.6 2.9-2 11h1l.5-5.5 1.5.5q.6 4.6-2 6v8h1l.5-5.5 1.5.5q.6 4.6-2 6v8h1q-1.2-5.2 1.5-6.5l.5 4.5-2 3-.5 4.5-3.5-.5-1-3v-10l-1-1v-10l-1-1v-10l-1-1v-10l-1-1v-10l-1-1v-10q-1.9-.9-.5-3.5Zm-351 1 1 32 4.5 2.5-.5 2.5-3.5-.5 1-2-1.5-.5-1 36zm30 3q4-1 5 1l2-1v1l-2.5 1.5.5 6.5 1-3 .5 5.5-1 1v7h1l.5-3.5.5 5.5q-2.2 1.3-1 6h1l.5-1.5.5 5.5-2 6 1.5 2.5 1-4 .5 5.5-1 1-1 7 1.5.5-.5-1.5 1-1 .5-1.5.5 5.5-1 1q.7 4.2-1 6 1 2.5 2 1l.5-3.5.5 6.5-2.5 3.5-4.5-.5-1-23-1-1v-13l-1-1v-12l-1-1v-13zm10 1 2.5 1.5-.5 4.5-1-5-1.5.5 1 3-1.5.5-.5-3.5zm320 1 .5 2.5h-1zm-10 4 .5 6.5h-1zm-307 2 .5 5.5h-1zm-3 2 1.5.5-.5 4.5-1.5-.5zm321 0 .5 2.5h-1zm-317 6 .5 5.5h-1zm307 1 .5 6.5h-1zm11 1 .5 2.5h-1zm-321 1 1.5.5q.8 3.3-1 4l.5 1.5q-2.9-1.4-1-6Zm4 5 .5 4.5h-1zm318 1q2.8 1.3 1.5 6.5h-1q-2-2.3-.5-6.5Z" opacity=".996"/><path fill="#9c421e" stroke="#9c421e" d="M216.5 135q2.8 1.3 1.5 6.5h-1q-2-2.3-.5-6.5Zm310 1 .5 6.5h-1zm-306 2 .5 6.5 1 1v5h-1q1.3-4.7-1-6zm318 3q2 .5 1.5 3.5l-1 1 .5 1.5q-2.9-1.4-1-6Zm-321 2q2.3.8 1.5 4.5l-1 1 .5 1.5-1.5-1.5zm310 3 .5 8.5h-1zm12 3 1.5.5-.5 3.5-1.5-.5zm-321 3q2.8 1.3 1.5 6.5h-1q-2-2.3-.5-6.5Zm4 1 .5 4.5h-1zm306 4 .5 8.5h-1zm12 0 1.5.5-.5 3.5-1.5-.5zm-321 3q2.8 1.3 1.5 6.5h-1q-2-2.3-.5-6.5Zm4 0 .5 5.5h-1zm318 5 1.5.5q.5 3-1.5 3.5zm-317 3 .5 4.5h-1zm305 0 .5 7.5h-1zm-309 1 1.5.5-.5 6.5-1.5-3.5zm322 3 2.5 4.5-2.5 1.5.5-1.5-1-1zm-4 1-.5 1.5 1 1-.5 2.5-1.5-.5q2-1 0-2zm-321 1 2.5.5-2.5.5zm-11 114 14 1 1 1h4l1 1h4l3.5 1.5-5 1 5 1-4.5 1.5q-6.2-1.2-9 1-1-2-2 0h-10l-1 1h-13v-1l5.5-.5-4-1 3.5-1.5 11-1 4.5-2.5q-2.4-2.6-8.5-1.5zm279 4 3.5.5-3.5.5zm8 1 2.5.5-2.5.5zm18 2 1 1 6 1 6.5 3.5v2l-2 3 2 1-2.5 1.5v-2l-15.5 4.5 2 1-13.5 1.5-2-3-1.5-.5 2-3-4-2 3.5-3.5q5.3.8 7-2l12-1q1.3 2.3 2.5-.5-3.8-.1-3.5-2.5Zm-270 2 .5 3.5-1.5-.5-11.5 4.5 2 1-2.5.5-3-1v2l-13 1v-1l7-1 2.5-1.5-3-1 4.5-2.5 6-1 1-1 10.5-.5zm-5 9 1.5.5-1 1v9l1 1-2.5 2.5-8 2 .5-1.5-1-1v-4l-2-6 7.5-2.5h3zm285 4 1.5.5-.5 12.5-8 4h-3v-1l2.5-.5-3-1v-9l-1-1 2.5-1.5 6-1zm-209 1 6.5.5-6.5.5zm8 0 2.5.5-2.5.5zm-12 1 2.5.5-2.5.5zm18 0 2.5.5-2.5.5zm14 3 2.5.5-2.5.5zm41 1 2.5.5-2.5.5zm-31 1 2.5.5-2.5.5zm26 0 2.5.5-2.5.5zm-17 1 13.5.5-13.5.5zm-232 15 1.5.5-2.5 2.5-.5-.5zm3 1 11.5.5-11.5.5zm-4 4 1.5.5-1.5 2.5q-1-2-2 0l-1.5-.5z" opacity=".996"/><path fill="#895042" stroke="#895042" d="M175.5 287h20l1 1h9l1 1h6l2.5 1.5-1.5 1.5-7 1-1 1-3-1-1 1h-10l-1 1h-14l-1.5-1.5zm304 5 9 1q1-2 2 0l5 1 1-1 3 1 5 1q1-2 2 0l3 1q1.5-2.5 3 1l2.5.5q-1.2 2.8-2.5.5l-12 1q-1.7 2.8-7 2l-3.5 3.5 4 2-2 3 2 1-12.5.5-1-1-11.5-.5-.5-1.5-6 1-1-2-5 1-6.5-2.5 2.5-1.5h4l1-1 7.5-1.5-9-3 .5-1.5-3.5-.5 4.5-1.5 13-1 1-1h7zm-79 4 3 1q1-2 2 0l3.5.5-2.5 3.5q-3.2 2.3-10 1v-1l7.5-.5-5-2 2-1zm-225 1 18.5.5-4.5.5-1 1h-4l-1-1h-8zm217 3 2.5.5-2.5.5zm-237 1 6 1 2.5 1.5-2 1-.5 2.5-15.5-.5 14-1-3-1 3-1-4.5-1.5zm131 11 3.5.5-3.5.5zm-168 30 .5.5-2 2 .5 1.5-1.5-.5z" opacity=".996"/><path fill="#ae350c" stroke="#ae350c" d="m179.5 38 1.5.5 1 3h-1l-2-3zm-5 39 .5 27.5h-1zm0 101 .5 109.5h-1zm259 105 .5 8.5h-1zm-259 10 .5 5.5h-1zm259 0 .5 5.5h-1zm-193 2q2.8 1.3.5 2.5l-.5 1.5h-10l-2 1v-1q3.2-2.3 10-1l2.5-1.5zm-2 10 1.5.5-.5 12.5-2 1 .5-1.5-1-1v-9zm-85 15 1.5.5-1 2 .5 1.5q-1.2-2.2-2.5.5l.5 1.5 1.5-.5-9.5 8.5h-14l-3 2 1-3-3 2-.5-1.5q2.5-5 11.5-3.5l3 1 6-2 7.5-7.5z" opacity=".965"/><path fill="#cb5825" stroke="#cb5825" d="m174.5 34 .5.5-2.5 2.5-.5-.5zm-7 35 .5 2.5h-1zm5 7 1.5.5-.5 145.5-.5-144.5zm260 6 1.5.5v55l-1.5 2.5-.5-1.5 1-1v-54zm96 23 .5 2.5h-1zm3 0 2.5 1.5v6l1 1v7l1 1v7l1 1v8l1 1v7l1 1v6l1 1v7l1 1 1 14-2.5.5-1.5-1.5q2-1 0-2v-8l-1-1-1-16-1-1-1-16-1-1v-9l-1-1v-7l-1-1zm-321 4 2.5.5q-1 4 1 5v8l1 1v8l1 1v7l1 1v8l1 1v7l1 1v7l1 1v7l1 1-4.5 1.5-.5-10.5-1-1v-9l-1-1v-9l-1-1v-9l-1-1v-9l-1-1v-9l-1-1zm319 0 .5 6.5h-1zm-315 1 1.5.5 1 11 1 1v7l1 1v6l1 1v7l1 1 1 12 1 1v7l1 1v6l1 1-2.5 1.5-.5-5.5-1-1v-7l-1-1v-7l-1-1-1-16-1-1-1-17-1-1v-6zm316 7 6.5 58.5h-1q1-4-1-5v-8l-1-1v-8l-1-1v-8l-1-1v-8l-1-1v-8l-1-1zm-98 29 1.5 2.5v88h-1v-88q-1.7-.7-.5-2.5Zm109 8 .5 2.5h-1zm-329 1 .5 2.5h-1zm330 6 .5 3.5h-1zm1 7 .5 4.5h-1zm-303 132 .5.5-2.5 2.5-6 2h-3v-1l8-2zm284 3 .5 2.5-3.5 2.5-6 2-8 1v-1l10-2 6.5-3.5zm-299 2 2.5.5-2.5.5zm-71 16 .5 1.5-3.5 4.5-.5-.5 2-2zm-29 19 .5 1.5-1.5.5q-1.5-1 1-2Z" opacity=".996"/><path fill="#cc765a" stroke="#cc765a" d="M409.5 298q3 1.5 0 3l-2.5-.5 3-1zm-245 6q1.5 1-1 2l-1.5-.5zm295 3 2.5.5-2.5.5zm6 1 3.5.5-3.5.5zm-355 34 1.5.5-.5 1.5-2 1-.5-1.5zm9 0 .5 1.5q-1 2.5-2 1z" opacity=".996"/><path fill="#a8a9ac" stroke="#a8a9ac" d="M211.5 178h6l1.5 1.5-.5 1.5h-8l-1-1-.5 1.5 4 9q-2 1 0 2l2.5 8.5 1.5.5-1 2 2 1-1 2 2 1-1 2 2 1-1 2 2 1-1 2 2 1 2 6v4l4.5 13.5 1.5-.5-1 3h2l-1 3 1.5 3.5 1.5-.5q-1.7.7-1 4l4.5 13.5 2.5.5-.5 1.5-1.5-.5.5 2.5 2-1 .5 1.5h-2l.5 2.5 2-1 .5 1.5h-2l.5 3.5 1-2 1.5.5-.5 1.5-1.5.5 1 8 1 1v5l1.5 1.5.5-4.5-1-1-1-6 1.5-.5 4.5 13.5v3l2 4 1 7 1 1v13l-4.5 5.5-9 3q-4-1-5 1h-7l-1 1h-14l-1 1h-34l-1 1h-9l-1-1-15.5-.5 2.5-2.5h14l2-1 1 1h20l3-1q1 2 2 0 6.2 1.2 9-1 1 2 2 0 4.8 1.2 6-1 1 2 2 0 3.3.8 4-1 1 2 2 0h4l5-3 2 1 4-3 2 1 2-3q4 .5 4.5-2.5l-.5-1.5 1.5-.5.5-12.5 1 8 .5-13.5-5.5-6.5-10-3-2 1-3-2-2 1q-.7-2.7-5-2-.7 1.8-4 1l-3-2-1 1h-6q-1-2-2 0l-3-2h-3l-2 1q-1-2-2 0h-14l-1.5-1.5v-13l1-1v-8l-1-1v-13l-1-1q2-1 1-5-1.7-.7-1-4 2-1 0-2l.5-56.5 2 1 1-1h31zm325 1 10.5.5-10.5.5zm-63 2h12l1 1 1-1h29q1 2 5 1l1.5 1.5q-.5 3 1.5 3.5l1-5 7.5.5v25l-1 2 1 1 1 7 2 2-1 1 2 2-1 1 2 2-1 1 2 2-.5 1.5 1.5.5-1 3h2l-1 1q3.5 1.5 1 3l.5 2.5 1.5-.5-1 1 2 2-1 1 2 2-1 1 2 2-1 1 2 2-1 1 2 2q-2.5 1.5 1 3l-1 3h2l-1 4h1l.5-1.5 2.5 6.5h-2l.5 1.5 2.5.5-.5 1.5-1.5-.5.5 2.5 2-1 .5 1.5h-2l.5 2.5 2-1 .5 1.5h-2l.5 3.5 1-2 1.5.5-.5 1.5-1.5.5v3l1.5 3.5 1-3 82.5.5-81 1 6 18v3l2 4v3l3 9v6l1 3q-2 1-1 5l-2.5 3.5-8 4q-3.2-.8-4 1h-6l-1 1h-13l-1 1h-60l-1-1h-15l-1-1-11-1-7-3-2.5-2.5-1-4 17.5-.5q1 2 2 0l24.5-.5-.5-1.5 1 1h9l1-2q1 2 5 1l3-1q3.2.8 4-1 1 2 2 0l10-2 5.5-2.5.5-1.5 1 1 4.5-4.5-.5-1.5 1.5.5v-13l1-1-1-1v-6l-2.5-3.5q-3.5.5-4-2l-1.5.5-.5-1.5-2 1q-1-2-2 0l-4-3-3 1q-1.3-2.3-6-1l-4-2q-.7 1.8-4 1l-1-1-6-1q-.7 1.8-4 1-1-2-2 0l-3-2h-4l-3 2q-2.9-3.6-11-2l-2 1-1-1-9.5-.5q-.5-3 1.5-3.5l.5 1.5-.5 1.5 1.5-.5-.5-3.5-1.5-.5.5-1.5 1.5.5.5 1.5.5-3.5h-2l.5-1.5 2 1 .5-2.5h-2l.5-1.5 2 1 .5-2.5h-2l.5-1.5 2.5-.5 1-6 4-11h-2l2-2-1-1 2-2-1-1 2-2-.5-1.5 1.5.5-1-3h2l-1-3h2l-1-3h2l-1-3 2-1-1-2 2-1-1-2 2-1-1-2 2-1-1-1 3-3-1-3 2-2-1-1 2-2-.5-.5-1.5-.5.5-28.5zm7.5 1v5-2q2-2 0-3Zm-1 5-2 5h1l2-2zm45 1q-2 1 1 2v-1zm1 3q-2 1 1 2v-1zm-48 2-1 2q1 1 2-1zm-1 3-1 2q1 1 2-1zm51 0-1 2h2q1-1-1-2Zm-52 3-1 2q1 1 2-1zm53 0-1 2h2q1-1-1-2Zm-54 3-1 2q1 1 2-1zm55 0-1 2h2q1-1-1-2Zm-56 3-1 2q1 1 2-1zm58 0q-3 1-1 2h1zm-59 3-1 2q1 1 2-1zm85 81-1 5 2 5v5l1 1v15l-2 5q-4 5-10 8l-10 2-1 1h-6l-1 1h-10l-1 1h-31l-1-1-30 1 4 1h5l1 1h7l1 1h15l1 1h26l1-1h14l1-1h7l1-1h4l1-1 6-1 7-4 4-7v-16l-1-1v-4l-1-1v-3l-1-1v-3zm-405.5-52 .5 26.5 1 1v11l-1 1-.5 9.5q-3.3.8-4-1h-6l-1 2-1-1-4.5-.5 1.5-5.5 1.5.5-1 4q1 1.5 2-1l-.5-4.5-1.5-.5.5-1.5 1.5.5.5 1.5.5-3.5h-2l.5-1.5 2 1 .5-2.5h-2l.5-1.5 2 1 .5-2.5h-2l.5-1.5 2.5-.5 1-6 2-4v-3l-1-1 2-2-1-1 2-2-1-1 2-2-1-1 2-2-.5-1.5 1.5.5-1-3z" opacity=".075"/><path fill="#a8a9ac" stroke="#a8a9ac" d="m241.5 278 1.5.5-.5 1.5-1.5-.5zm315 5 1.5.5-.5 1.5-1.5-.5z" opacity=".075"/><path fill="#300d06" stroke="#300d06" d="m171.5 32 .5.5-2.5 2.5-.5-.5zm294 0 3.5.5-3.5.5zm-24 6 .5.5-5.5 5.5-.5-.5zm-10 13-.5 1.5-1.5 3.5-.5-1.5zm-267 1 .5 3.5h-1zm19 7 .5 4.5h-1zm-20 3 .5 7.5h-1zm337 1 .5 3.5h-1zm-316 7 .5 30.5h-1zm240 0 .5 2.5h-1zm-1 6 .5 1.5q-1 2.5-2 1zm-268 1 .5 28.5h-1zm263 3q1.5 1-1 2l-1.5-.5zm75 20 3.5.5-3.5.5zm17 0 4.5.5-4.5.5zm-317 4 4.5.5-4.5.5zm343 2 2.5 1.5 1 12-.5 1.5 1.5.5q.8 4.8-1 7h2l-.5 3.5-1.5-.5.5-1.5-1.5-.5q-.8-3.3 1-4l-2-3v-2l1-3-2-1 1-9h-2zm-72 5 2.5 3.5-.5.5-2.5-2.5zm-310 3 .5 2.5h-1zm312 2 .5 2.5h-1zm-3 2 1.5 2.5q-1 1.5-2-1zm-311 3 1.5 2.5q-2.7.8-2 5l1 3h-2l1 3-2 1q-1.3 4.8 1 6l-2 1-.5 4.5-1.5-5.5q2-1 0-2l2-3q-2-1-1-5 3.5-1.5 1-3v-4zm.5 1-2 3q1 1 2-1zm312.5 0 .5 3.5h-1zm-3 1 1.5 4.5q-1 1.5-2-1zm-241 4 .5 3.5h-1zm243 3 .5 3.5h-1zm-3 1 .5 2.5h-1zm79 2 2.5 1.5-.5 4.5-1.5-.5.5-1.5-1.5-.5.5-1.5 1.5.5-.5-1.5q-2.4-.1-1-1Zm-318 1 .5 2.5h-1z" opacity=".659"/><path fill="#300d06" stroke="#300d06" d="m151.5 136 .5 2.5h-1zm300 1 8 1 1.5-.5-.5 1.5-9-1zm12 1 .5 3.5-1.5 4.5-.5-3.5zm79 2q2.5 1 1.5 5.5h-1v-4zm-1 2 .5 2.5h-1zm-391 1 .5 2.5h-1zm307 4 2.5 1.5-1.5-.5q-2.4-.1-1-1Zm-311 1 1.5 1.5 1 10-2 1 1 3q.6 4.6-2 6 1.8.8 1 4l-2.5 2.5-.5-.5.5-1.5-2.5-.5 1-1 1-13 2-5-1-2h1l.5 1.5.5-3.5q-1.7-.7-.5-2.5Zm1.5 8-1 3h1zm304.5-8 3.5.5-3.5.5zm91 0q2.3.8 1.5 4.5h-1l-.5-3.5-1 3-.5-2.5zm-394 2 .5 2.5h-1zm309 2 .5 3.5h-1zm3 1 .5 2.5h-1zm84 1-.5 1.5 1 1-.5 1.5-1-2-1 3-.5-2.5zm0 5 1.5 2.5q-2 1 0 2l-.5 1.5q-2.5-2-1-6Zm-321 1 .5 3.5h-1zm233 0 1.5 2.5-1.5.5zm3 0 .5 3.5h-1zm86 6 1.5 2.5-1.5.5zm-90 1 1.5 3.5q-1 2.5-2 1 2-1 0-2zm3 1 .5 2.5h-1zm87 2 1.5.5q-1 4 1 5-1 1.5-2-1l-.5-3.5-1 3-.5-2.5zm-91 4 3.5 2.5-1.5.5-1-1-1.5.5zm-300 4 .5 108.5h-1zm380 0 4.5.5-4.5.5zm-405 111 2.5.5-2.5.5zm279 4 2.5.5-2.5.5zm-6 1 2.5.5-2.5.5zm-299 4 .5 4.5h-1zm188 9 14.5.5-14.5.5-2 2-.5-.5zm24 0 2.5.5-2.5.5zm71 2 .5 1.5q-1 2.5-2 1zm-16 5 2.5.5-2.5.5zm16 2 .5 5.5h-1zm-268 8 2.5.5-2.5.5zm5 1 2.5.5-2.5.5zm6 1 3.5.5-3.5.5zm75 0 2.5.5-2.5.5zm-67 1 6.5.5-.5 1.5q-1.3-2.2-6-1zm56 0 6.5.5-6.5.5zm-41 1 29.5.5-29.5.5zm32 0 2.5.5-2.5.5zm219 1 2.5.5-2.5.5zm12 2 3.5.5-3.5.5zm74 0 2.5.5-2.5.5zm-66 1 5.5.5-5.5.5zm55 0 7.5.5-7.5.5zm-43 1 2.5.5-2.5.5zm4 0 28.5.5-28.5.5zm31 0 2.5.5-2.5.5zm-356 14 2.5.5-2.5.5z" opacity=".659"/><path fill="#ba4218" stroke="#ba4218" d="m169.5 49 .5 3.5h-1zm17 3 .5 2.5h-1zm-18 5 .5 5.5h-1zm19 0 .5 4.5h-1zm317 3 .5 3.5h-1zm-316 6 .5 33.5h-1zm317 0 .5 28.5h-1zm-77 7 .5 3.5h-1zm5 8 1.5 1.5v54h-1v-54zm104 41 .5 3.5h-1zm1 7 .5 3.5h-1zm1 7 .5 3.5h-1zm1 7 .5 3.5h-1zm-106 6 .5 48.5h-1zm107 2 .5 2.5h-1zm1 7 .5 2.5h-1zm1 7 .5 2.5h-1zm1 7 .5 2.5h-1zm-392 4 2.5.5-2.5.5zm28 110 3.5.5-3.5.5zm-51 49 4.5.5-4.5.5z" opacity=".588"/><path fill="#641b0a" stroke="#641b0a" d="m176.5 32 3.5 3.5-.5.5-3.5-3.5zm280 4 6.5.5-6.5.5zm11 1 2.5.5-2.5.5zm-21 3 .5.5-2.5 2.5-.5-.5zm49 4 2.5 2.5-.5.5-2.5-2.5zm-5 2 4.5 4.5-.5.5-4.5-4.5zm-51 1 .5.5-2.5 2.5-.5-.5zm48 53 5.5.5-5.5.5zm28 0 5.5.5-5.5.5zm13 1 2.5.5-2.5.5zm9 2q2 .5 1.5 3.5l-3.5 3.5-.5-.5 3-3v-2zm-339 1 3.5.5-3.5.5zm10 1 5.5.5-5.5.5zm258 1 1.5.5-.5 2.5-1.5-.5zm-315 3 1.5.5-1 2 2 1-.5 5.5-1-5-1 2zm388 0 .5 4.5h-1zm-319 1 .5 3.5-2 1 1 2-1.5.5-.5-2.5q2.4-1.1 2.5-4.5Zm1 7 .5 3.5-1.5.5.5-1.5zm319 0 .5 3.5-1.5.5.5-1.5zm-390 1 .5 3.5h-1zm69 4 1.5.5-1.5 2.5zm322 1 .5 4.5q-1 2.5-2 1zm-319 1 .5 3.5h-1zm-2 5 .5 3.5h-1zm322 1 .5 3.5-1.5 2.5-.5-1.5 1-3zm-319 1 .5 3.5h-1zm-74 3q2.5 1 1.5 5.5h-1v-4zm313 0 .5 2.5h-1zm81 3 .5 3.5-1.5 4.5-.5-3.5 1-3zm-395 1 .5 1.5q-2.5 1.5 1 3 1 5-2 6 2 1 1 5h-1q1-5-2-6l1.5-1.5 1.5.5q1-5-2-6zm73 0 .5 2.5h-1zm3 0 .5 3.5h-1zm320 6 .5 4.5-1.5 3.5-.5-2.5q2-1 0-2zm-322 1 .5 2.5h-1zm3 0 .5 4.5-2.5 3.5-.5-1.5 2-2zm211 3 2.5.5-2.5.5zm4 1 11.5.5-11.5.5zm105 2 .5 1.5-1 2q2 1 0 2l.5 1.5 1.5.5-.5 1.5-2.5-1.5 1-3-1-2zm-319 1 .5 3.5-2.5 4.5.5-1.5v-3zm-80 1-.5 1.5 2 2-.5 2.5q-.1-3.4-2.5-4.5zm313 2 .5 2.5h-1zm-233 8 1 3 1.5.5-3 1-.5 3.5-.5-3.5zm232 0 .5 2.5h-1zm87 0 2.5 3.5h-3zm-318 7q2.5 1 1 2l-1.5-.5zm319 1 .5 2.5h-1zm-318 2 1.5.5-2 1 .5 1.5-2.5-1.5zm-82 3 2.5.5-2.5.5zm316 2 2.5.5-2.5.5zm-278 108 9.5.5-9.5.5zm-39 1 7.5.5-7.5.5zm62 0 2.5.5-2.5.5zm11 1 2.5.5-2.5.5zm6 1 2.5.5-2.5.5zm5 1 2.5.5-2.5.5zm214 0 29.5.5-29.5.5zm32 0 2.5.5-2.5.5zm6 1 7.5.5-7.5.5zm-239 11-.5 1.5-.5 12.5-.5-12.5zm283 3 .5 2.5q-1 2.5-2 1zm-212 2 2.5.5-2.5.5zm6 0 4.5.5-4.5.5zm8 1 2.5.5-2.5.5zm-6 4 2.5.5-2.5.5zm24 0 2.5.5-2.5.5zm6 1 2.5.5-2.5.5zm-61 1 1 1 15.5.5-15.5.5q-2.5-1-1-2Zm67 0 13.5.5-13.5.5zm4 5 8.5.5-8.5.5zm162 3 .5.5-2.5 2.5-.5-.5zm-299 1 3.5.5-3.5.5zm-5 1 3.5.5-3.5.5zm-4 1 2.5.5-2.5.5zm-7 1 2.5.5-2.5.5zm301 2 2.5.5-2.5.5zm-5 1 3.5.5-3.5.5zm-377 12 .5.5-2.5 2.5-.5-.5zm-15 6 2.5.5-2.5.5zm6 0 2.5.5-2.5.5z" opacity=".502"/><path fill="#5d3731" stroke="#5d3731" d="m174.5 36 4.5 3.5 3 6v2h-1l-3-7-4-4zm334 64 2.5 1.5-.5 1.5-6.5-.5.5-1.5q3.2.8 4-1Zm-25 1 4.5.5-.5 2.5-4.5-.5zm7 0 5.5.5-.5 1.5-5.5-.5zm7 0 5.5.5-.5 1.5-5.5-.5zm15 0 5.5.5-.5 1.5q-4-1-5 1zm7 0 4.5.5-.5 2.5-4.5-.5zm-45 1 1.5.5-.5 2.5-3.5-.5.5-1.5zm3 0 4.5.5-.5 1.5-4.5-.5zm48 0 3.5.5-.5 2.5-3.5-1.5zm5 0 2.5 1.5 1 2-1.5-.5-2.5-1.5zm-61 1 1.5.5-.5 2.5-1.5-.5zm65 0 1.5.5-.5 2.5-1.5-2.5zm-343 1 1 1 4.5.5-.5 1.5-5.5-.5zm-14 1 5.5.5-.5 1.5-5.5-.5zm7 0 5.5.5-.5 1.5-5.5-.5zm14 0 4.5.5-.5 2.5-4.5-1.5zm6 0 6 2 2-1 .5 2.5-1.5-.5-2 1-1-1-4.5-.5zm10 1 1.5 2.5-1.5.5zm3 1q2.5 1 1 2l-1.5-.5zm222 41 12.5.5-12.5.5zm-264 27 24.5.5-24.5.5zm26 0 6.5.5-6.5.5zm287 2 7.5.5-7.5.5zm9 0 20.5.5-20.5.5zm-344 110 1.5 3.5q-2 1 0 2l-.5 2.5-1-1-6-1-3-3-3.5-.5 4.5-1.5h7zm43 0 4.5.5-4.5.5zm259 4h18l1 1 4.5.5-19.5 2.5v-1l4.5-.5-8.5-1.5zm-253 2 2.5.5-2.5.5zm-27 1 1 1h14l1-1h7v1l-2.5.5.5 1.5-21.5-.5zm224 2q2.5 1 1 2l-1.5.5 5 2-7.5.5-2 1 1-3-1.5-.5 1.5-1.5q3.2.8 4-1Zm52 0 5.5 1.5-.5 1.5 8.5 2.5-7.5 1.5-1 1h-4l-3 2-1-2-2 1-1.5-1.5 2-2-.5-.5-3.5-.5zm-276 2 8.5.5-8.5.5zm16 0 4.5.5-4.5.5zm-37 3 5.5 2.5-3 1 .5 1.5-6.5-2.5 3-1zm251 0 2.5.5-2.5.5zm-117 9 1.5.5-.5 1.5q-2.5-1-1-2Zm189 0 3.5.5-3.5.5zm-369 33 .5 1.5-1.5.5q-1.5-1 1-2Z" opacity=".988"/><path fill="#868585" stroke="#868585" d="m209.5 181 9.5.5-9.5.5zm261 0 2.5.5-2 1v31l1 1q-1 1.5-2-1zm10 1q2.5 1 1 2l-1.5-.5zm42 0 1 1 1.5-.5q.5 3-1.5 3.5zm11 0 .5 28.5q-1 1.5-2-1l1-1zm-309 42 .5 2.5h-1zm2 7 4.5 14.5h-1l-4-12zm-73 2-.5 1.5 1 1-.5 28.5-.5-28.5-1-1zm310 4 .5 2.5-2.5 6.5-.5-2.5zm-230 13-.5 1.5-.5 1.5-.5-1.5zm1 3-.5 1.5-.5 1.5-.5-1.5zm223 0 1.5 2.5h-1zm-312 2 1.5 2.5h-1zm90 1-.5 1.5-.5 1.5-.5-1.5zm221 0 1.5 2.5h-1zm-312 2 1.5 2.5h-1zm92 1-.5 1.5.5 2.5 1.5-.5-1.5 3.5-1.5-5.5zm219 0 1.5 2.5h-1zm93 0 1.5.5q-1 2.5-2 1zm-405 2q2 .5 1.5 3.5l-1.5 3.5-1.5-3.5h2zm34 0 .5 8.5h-1zm277 1 1.5 2.5h-1zm95 0 1.5.5-1.5 2.5zm-96 3q2 .5 1.5 3.5l-1.5 3.5-1.5-3.5h2zm98 0-.5 1.5-.5 1.5-.5-1.5zm-314 2 4.5 13.5v3l2 5v4l1 1-1.5 1.5-3-3-1.5-.5 1.5-.5 1.5.5-1-10-4-12zm-95 2 .5 2.5-2 4-1 8-1.5 1.5-.5-1.5 1-1 1-7zm410 3 4.5 13.5v3l2 4v3l3 9v4l1 1v16l-4.5 7.5-7 4-6 1-1 1h-4l-1 1h-7l-1 1h-14l-1 1h-26l-1-1h-15l-1-1h-7l-1-1h-5l-3.5-1.5 29.5-.5 1 1h31l1-1h10l1-1h6l1-1 10-2q6.8-2.7 10.5-8.5l2-5v-15l-1-1v-5l-2-5v-4l-5-15zm-100 1 .5 2.5-2 4-1.5 7.5-1.5-.5zm-299 3 .5 9.5 1 1q-1 1.5-2-1zm43 8 3.5.5-3.5.5zm-61 1 2.5 1.5-.5 1.5-1.5-.5zm7 0 6.5.5-6.5.5zm416 0 81.5.5-81.5.5zm-419 1 1.5.5-.5 1.5-1.5-.5zm79 0q3.8-.7 4.5 1.5l-1.5-.5q-4 .8-3-1Zm27 0 167.5.5-.5 1.5-167.5-.5zm201 1 1.5 2.5h-1zm3 1q6.2-1.2 9 1l1-1h8l2.5 1.5-20.5.5zm24 0 4.5.5-4.5.5zm86 0 80.5.5-.5 1.5-80.5-.5zm-326 1 4.5 1.5-1.5.5-3-1zm13 0 166.5.5-1.5 1.5h-165zm240 0 2.5.5-2.5.5zm74 2 79.5.5-.5 1.5-79.5-.5zm-313 1 152.5.5-.5 2.5-1-2-3 1h-148zm314 2 78.5.5-.5 1.5-78.5-.5zm-313 1 141.5.5-2.5 1.5-138.5.5 137 1-1.5 1.5-134.5.5 133 1-.5 1.5-131.5.5 132 1-92 1 18 1-17.5.5-1-1h-38v1l34.5.5-34 1 2 10 1 1v9l-4.5 4.5-6 1-1 1h-7l-1 1h-14l-1 1h-30l-1 1h-48v-1q5.2-.3 7-4l1 1h15l1 1h9l1-1h34l1-1h14l1-1h7l1-1h4l1-1 6-1 5.5-4.5 1-2v-13l-4-12z" opacity=".008"/><path fill="#868585" stroke="#868585" d="m520.5 295 .5 1.5-1.5.5q-1.5-1 1-2Zm-276 1 1.5 1.5v13h-1v-13zm318 1 77.5.5-.5 1.5-77.5-.5zm1 3 76.5.5-.5 1.5-76.5-.5zm1 3 75.5.5-.5 1.5-75.5-.5zm1 3 74.5.5-.5 1.5-73.5.5 74 1-.5 1.5-72.5.5 73 1-.5 1.5-71.5.5 72 1-.5 1.5-70.5.5 71 1-.5 1.5-69.5.5 2 5 1 7 1 1 1 9-1 3-3.5 3.5-6 2h-6l-1 1h-28l-1 1h-32l-1-1h-44l-1-1h-8l-8-3-2.5-2.5q-2.2-2.8-1-9l-1-1 1.5-.5 4.5 1.5q.3 4.8 3.5 6.5l7 3 11 1 1 1h15l1 1h60l1-1h13l1-1h6l1-1 6-1 5.5-3.5 2-3 1-7-1-1v-6l-1-1-2-11-2-4z" opacity=".008"/><path fill="#868585" stroke="#868585" d="m527.5 307-.5 1.5v13l-5.5 5.5-.5-.5 5-5v-13zm-303 18q1.5 1-1 2l-1.5-.5zm-5 1 1.5.5-2.5 1.5q-1.5-1 1-2Zm299 1 1.5.5-3.5 1.5v-1zm-321 2 2.5.5-2.5.5zm315 0 2.5.5-2.5.5zm-358 1 12.5.5-12.5.5zm15 0 20.5.5-20.5.5zm335 1 2.5.5-3.5 1.5q-1.5-1 1-2Zm-6 1 3.5.5-4.5 1.5q-1.5-1 1-2Zm-7 1 4.5.5-4.5.5zm-11 1 4.5.5-4.5.5-1 1h-14v-1h14zm6 0 3.5.5-3.5.5zm-42 1 12.5.5-2.5 1.5-1-1h-9zM.5 345l107.5.5L.5 346z" opacity=".008"/><path fill="#983316" stroke="#983316" d="M226.5 161q2.5 1 1 2l-1.5-.5zm1 7q2.5 1 1 2l-1.5-.5zm207 32 .5 90.5h-1zm-233 87 4.5.5-4.5.5zm20 2 2.5.5-2.5.5zm271 3 2.5.5-2.5.5zm8 1 2.5.5-2.5.5zm25 8 .5 3.5h-1zm-170 17 2.5.5-2.5.5zm18 0 2.5.5-2.5.5zm-222 10 .5.5-3.5 3.5-.5-.5zm-14 2 2.5.5-2.5.5z" opacity=".796"/><path fill="#fea702" stroke="#fea702" d="m181.5 36 259.5.5-259.5.5zm325 27 .5 30.5h-1v-27l-1-2zm-330 13 .5 25.5h-1zm260 7 .5 51.5h-1zm-286 24 .5 6.5h-1zm286 44 .5 136.5h-1zm24 1 .5 3.5h-1zm-1 7 .5 5.5h-1zm-148 156 2.5.5-.5 1.5-2.5-.5z" opacity=".004"/><path fill="#665541" stroke="#665541" d="m457.5 38 7.5.5-7.5.5zm-287 20 .5 2.5h-1zm20 13 .5 27.5h-1zm317 13 .5 3.5h-1zm-15 14 3.5.5-3.5.5zm20 0 4.5.5-4.5.5zm-34 1 1.5.5-.5 1.5-4.5-.5zm49 0 1.5.5-.5 1.5-1.5-.5zm-334 3 3.5.5-.5 1.5q-3.8.5-3-2Zm16 1 1.5.5-.5 1.5-1.5-.5zm248 46 .5 5.5h-1zm-5 1 3.5.5-3.5 25.5zm-220 24 180.5.5-180.5.5zm319 0 88.5.5-88.5.5zm-332 3 6.5.5-6 1-.5 3.5zm-44 3 .5 69.5h-1zm287 0 .5 57.5h-1zm4 0 .5 45.5h-1zm71 0 .5 42.5h-1zm-343 106 2.5.5-2.5.5zm33 3 3.5.5-3.5.5zm5 1 7.5 2.5-1.5.5-6-2zm260 1q5.4-.9 7.5 1.5l-1.5.5q-1.2-2.3-6-1zm-249 4 1.5.5q-1 2.5-2 1zm0 9 .5 10.5h-1zm48 12 7.5.5q-1.2 2.8-6.5 1.5-2.5-1-1-2Zm76 4 2.5 1.5-1.5.5q-2.5-1-1-2Zm-242 7 8.5.5-6 1 .5 1.5-6 2-.5-.5 2.5-2.5 1.5-.5zm77 0q2.5 1 1 2l-3 1-3-1q-1 2-2 0l-1.5-.5 7.5-.5zm-12 1 2.5 1.5-38.5.5-4 3q-2.5-1-1-2 1.3 2.2 2.5-.5l-.5-1.5h38zm313 2 4.5.5-4.5.5zm-71 5 8.5.5-8.5.5zm25 0 7.5.5-7.5.5zM.5 347l107.5.5L.5 348z" opacity=".016"/><path fill="#a9a8a8" stroke="#a9a8a8" d="m175.5 178 35.5.5-35.5.5zm293 1 1 1 66.5.5-67.5.5z" opacity=".616"/><path fill="#adaeae" stroke="#adaeae" d="m175.5 176 42.5.5-1.5 1.5h-41zm294 2 65.5.5-1.5 1.5h-63q-2.5-1-1-2Z" opacity=".992"/></svg>