<svg xmlns="http://www.w3.org/2000/svg" viewBox="0 0 571 640"><path fill="red" stroke="red" d="m373.5 9 .5 4.5h-1zm43 85 .5 10.5h-1zm-1 31 .5 1.5q-1 2.5-2 1zm-49 62 2.5 2.5-.5.5-2.5-2.5zm-19 53 2.5 1.5-1.5.5q-2.5-1-1-2Zm10 7 1.5.5-.5 1.5q-2.5-1-1-2Zm3 6q2.5 1 1 2l-1.5-.5zm-154 19 7.5 7.5-.5.5-7.5-7.5zm-114 14 2.5 2.5-.5.5-2.5-2.5zm31 30 5.5 5.5-.5.5-5.5-5.5zm400 48 3.5 1.5-2.5.5q-2.5-1-1-2Zm-236 53 2.5 2.5-.5.5-2.5-2.5z" opacity=".004"/><path fill="#f99682" stroke="#f99682" d="m376.5 4 9.5 17.5 8 12 3 7 2 2 9 19 3 9 1 10 1 1 1 23-1 1v21l-1 1v10l-1 1v5l-1 1v4l-2 4v3l-8 16-18 20-5 8-.5 2.5-.5-7.5-25-26-7-11v-5l4-3-4-8-2-6v-3l-1-1v-18l1-1v-5l1-1v-3l4-12 5-10v-2l7-13v-2l7-13v-2l3-5 1-5 3-6v-3l3-9z" opacity=".996"/><path fill="#f99682" stroke="#f99682" d="m207.5 114 10 1 1 1h6l1 1h6l1 1h5l1 1h5l1 1h4l5 2h4l4 2h3l9 3 8 4h2l30 15 17 12 9.5 9.5 4 8 4 4 9 18v2l7 15 3.5 11.5 12-11 14-10 21-9h3l9-3h4l1-1 13-1 1-1h43l1 1 18 1 1 1h6l1 1h5l1 1 11 1 1 1h4l1 1h4l1 1h4l1 1h4l1 1h4l1 1 8.5 1.5-10.5.5-1 1h-5l-1 1h-4l-4 2h-3l-22 10-2.5 2.5 1.5 2.5 1.5.5-23.5 14.5-16 8h-2l-8 4-15 5-7 1-5 2h-4l-1 1h-4l-1 1-14 1-1 1h-21l-1-1h-5l-1-1-6-1-9-5-3.5-3.5-4.5-10.5-7.5 17.5v2l-5 9v2l-18 33 1.5.5 8-6 15-6q3.3.8 4-1h6l1-1h20l1 1h6l1 1h4l1 1 11 2 12 4 8 4h2l5 3h2l20 10 2 2 7 3 15 9 50.5 33.5-1.5.5-1-1h-10l-1-1h-6l-1 1h-11l-1 1h-6l-1 1h-5l-1 1h-4l-6 2h-5l-1 1-11 1-1 1h-7l-1 1h-20l-1-1-12-1-1-1h-4l-1-1h-4l-1-1-15-3-4-2h-3l-9-3-11-5h-2l-22-12-12.5-11.5-3-5-2-6-.5-5.5-19.5 29.5-23 30-2 4 .5.5 2-2 8-4 6-2h4l1-1h21l1 1h5l1 1h3l9 3 26 13q16.6 10.4 31 23l25.5 24.5 18 21 15 22-.5.5-4-4-11-7-9-4-6-2h-3l-1-1-9-1v2h-10l-1-1h-8l-1-1h-7l-1-1-12-1-1-1h-4l-1-1h-4l-1-1-8-1-4-2h-3l-15-5-13-6-18-11q-12-8.5-21.5-19.5l-6-10-1-3-.5-9.5-29.5 36.5-2 4-6 7-1 3 1.5-.5h15q1 2 5 1l9 3 14 7 15 10 16 13 28.5 28.5 18 26 23 44 11 17-.5.5-4-4-21-12h-2l-12-6-15-5-15-7h-2l-9-5h-2l-22-14-10.5-10.5-9.5-16.5-1 2-8.5-11.5-8-15-2-2-11-22v-2l-3-6-1.5-8.5-18.5 24.5-15 24 8.5.5 1 1h4l9 3 21 12 25 20 34.5 34.5 18 20 16 20 6 9 8 16 3 11q-1 1.5-2-1l-7.5-8.5-8-6-15-8h-2l-3-2-15-5h-3l-7-3h-3l-7-3-6-1-22-10q-23.6-14.9-41.5-35.5l-10-14-6-12-3-9-1.5-15.5-7.5 12.5-23 47v2L140.5 605l-.5-1.5 14-30 3-9 5-9v-2l7-13v-2l17-33-1.5-.5-5 4-12 5q-4-1-5 1h-16l-1-1h-5l-1-1h-3l-1-1h-3l-6-2-21-10-17-11L63 466.5l-17-19-38-47 .5-.5 3 3 12 8 10 5h2l3 2h2l3 2 12 4h3l1 1h3l1 1h3l1 1h3l9 3h4l1 1 14 2 1 1h5l1 1h5l6 2h5l1 1 9 1 1 1h3l1 1h3l1 1h3l1 1h3l4 2 6 1 20 9 12.5 10.5 5 8q-.7 3.2 1 4l.5 10.5 1.5-.5 1-3 24-35-1.5.5-6 2h-4l-1 1h-14l-1-1h-6l-1-1h-4l-1-1h-3l-4-2-6-1-3-2-12-4-23-12-15-11-36-35L64 369.5l3-1-4-7-21-21 1.5.5 20 7h4l6 2h6l1 1 16 1 1 1h9l1 1h7l1 1 12 1 1 1h4l1 1 7 1 9 3 3 2h2l-.5-1.5.5-1.5 7 2 14 8 23 20 22 14 10.5 10.5 4 9 .5 8.5 33.5-42.5-1.5-.5-7 3h-6l-1 1h-9l-1-1h-6l-1-1h-4l-4-2-6-1-3-2-7-2-21-11-26-18-22.5-21.5q-11.1-15.4-25.5-27.5L90 280.5l-3-4 1.5.5 10 4h3l9 3h4l1 1 13 1 1 1h9l1 1h10l1 1 17 1 1 1 11 1 12 4h3l3 2 5 1 10 5h2l27 15 13 10 13.5 13.5 11 17 2 6v5l1 1-.5 1.5 3.5-2.5 29-39 8-13-1.5-.5-11 4h-15l-1-1h-4l-1-1h-3l-1-1h-3l-6-2-26-13-23-16-24.5-23.5q-13.4-17.6-29.5-32.5l-15-11-10-5-9-3h-3l-2.5-1.5 7.5-1.5 1-1h25l1 1h6l1 1 11 1 1 1h4l6 2h5l1 1h5l1 1 17 1 1 1h7l1 1 11 1 1 1h4l5 2 7 1 12 4 3 2h2l12 6 14 10 7.5 7.5 3.5 4.5 2.5 1.5 3 5v2l3 5 3 9v3l2 5v7l1 1 .5 6.5 9.5-15.5 11-21v-2l8-16 4-12-2.5-.5-1 1q-4.7-1.2-6 1h-6l-1-1h-7q-1-2-5-1l-4-2-6-1-26-12-22-15-9.5-9.5 4-1-10.5-5.5-10.5-8.5-8-9-9-13-15-28-8-13-3-3z" opacity=".996"/><path fill="#fffe01" stroke="#fffe01" d="m350.5 241 2.5.5-2.5.5zm113 237 .5 1.5q-1 2.5-2 1z" opacity=".004"/><path fill="#fa9193" stroke="#fa9193" d="m374.5 0 1.5.5q-1 2.5-2 1zm6 9 2.5 1.5q-1 2.5-2 1l.5-1.5q-2.4-.1-1-1Zm-5 3 .5 2.5h-1zm-2 6 .5 2.5h-1zm-1 5 .5 2.5h-1zm-1 5 1.5 2.5q-1 1.5-2-1zm-2 6 .5 2.5-1.5 2.5-.5-1.5zm31 8 2.5 3.5q-1 2.5-2 1l.5-1.5-1.5-.5 1-1zm13 29 .5 2.5h-1zm-61 2 1.5 2.5q-1 1.5-2-1zm62 3 .5 3.5h-1zm-65 5-.5 1.5-.5 1.5-.5-1.5zm66 4 .5 4.5h-1zm-75 19 .5 2.5h-1zm75 6 .5 7.5h-1zm-203 2 2.5.5-3.5 1.5q-1.5-1 1-2Zm13 2 2.5.5-3.5 1.5q-1.5-1 1-2Zm113 3 .5 10.5h-1zm-131 1 1.5 2.5h-1zm47 1 2.5.5-2.5.5zm4 1 2.5.5-2.5.5zm-48 2 1.5 2.5q-1 1.5-2-1zm203 2 .5 2.5h-1zm-139 1 2.5 1.5-1.5-.5-2 1q-1.5-1 1-2Zm5 2 2.5 1.5-1.5-.5-2 1q-1.5-1 1-2Zm135 1 .5 4.5h-1zm-3 15q2.3.8 1.5 4.5h-1v-3zm-188 1 1.5.5-1 1 .5 1.5q-2.4-.9-1-3Zm122 3 1.5.5-2.5 2.5-.5-.5zm-23 2q2.5 1 1 2l-1-1-1.5.5zm89 0 .5 2.5h-1zm-183 4 1.5.5-1 1 .5 1.5q-2.4-.9-1-3Zm113 1 .5 2.5h-1zm-9 3 7.5 7.5-.5.5-7.5-7.5zm74 7 .5.5-2 2-1.5 2.5v-3zm-167 7 3.5 2.5-2.5.5zm107 3 .5 1.5q-1 2.5-2 1zm9 1 13.5 13.5-.5.5-13.5-13.5zm-109 3 2.5 2.5-.5.5-1-1-1.5.5 1-1zm141 8 1.5 1.5-2.5 2.5.5-1.5-1-1zm64 1 6.5.5-6.5.5zm18 0 2.5.5-2.5.5zm4 0 8.5.5-8.5.5zm-33 1 2.5.5-2.5.5zm51 0 3.5.5-3.5.5zm-59 1 2.5.5-2.5.5zm69 0 2.5.5-2.5.5zm7 1 4.5.5-4.5.5zm-137 1 1.5.5q-2.5 1.5 1 3l-.5 1.5-2.5-3.5zm51 0 2.5.5-2.5.5zm93 0 2.5.5-3.5 1.5q-1.5-1 1-2Zm-133 3 .5 1.5q-1 2.5-2 1zm151 0 3.5.5-4.5 1.5q-1.5-1 1-2Zm-160 3 .5 2.5h-1zm176 0 2.5.5-2.5.5zm4 1 1.5.5-2.5 1.5q-1.5-1 1-2Zm-284 2q2.5 1 1 2l-1-1-1.5.5zm294 0 2.5.5-2.5.5zm-190 1 1.5 2.5q-1 1.5-2-1zm-101 3 3.5 3.5-.5.5-3.5-3.5zm-127 2 3.5.5-3.5.5zm5 0 2.5.5-2.5.5zm7 0 5.5.5-5.5.5zm230 0 .5.5-2.5 2.5-1.5-.5zm171 0 3.5.5-3.5.5zm6 0 4.5.5-4.5.5zm-14 1 2.5.5-2.5.5zm-177 1 1.5.5-1.5 4.5q-2.8-1.3-.5-2.5zm173 0 2.5.5-2.5.5zm-8 2 2.5.5-3.5 1.5q-1.5-1 1-2Zm-347 1 3.5.5-4.5 1.5q-1.5-1 1-2Zm89 0 1 1 1.5-.5-1.5 1.5q-2.5-1-1-2Zm252 0 2.5 1.5-1.5.5q-2.5-1-1-2Zm-324 3 3.5.5-4.5 1.5q-1.5-1 1-2Zm76 0 4.5 3.5-.5.5-2-2q-3.8-.7-2-2Zm93 0 .5.5-3.5 3.5-.5-.5zm-159 1 2.5.5-2.5.5zm8 1 3.5.5-5.5 1.5v-1zm64 2 2.5 1.5-1.5.5q-2.5-1-1-2Zm-31 4 2.5.5-3.5 1.5q-1.5-1 1-2Zm7 2 4.5 1.5-1.5.5-3-1zm9 3 1.5.5-2.5 1.5q-1.5-1 1-2Zm30 0 4.5 2.5-1.5-.5-3-1zm-25 2 1.5.5-2.5 1.5q-1.5-1 1-2Zm3 1 4.5 2.5-1.5.5-3.5-2.5zm32 0q1.5 1-1 2l-1.5-.5zm-144 2 1.5 1.5-.5 1.5 1.5.5-1.5.5-1.5-1.5 1-1zm333 1q1.5 1-1 2l-1.5-.5zm-179 1q1.5 1-1 2l-1.5-.5zm-149 4 4.5 4.5-.5.5-4.5-4.5zm156 0 2.5.5-2.5.5zm8 0q1.5 1-1 2l-1.5-.5zm9 1 3.5.5-3.5.5zm-6 1 2.5.5-2.5.5zm12 0q5.5-1 6.5 2.5l-.5.5-2-2h-4zm4 3 .5 1.5-1 2 .5 1.5-1.5-2.5zm-176 2 2.5 1.5h-3zm124 1 4.5 4.5-.5.5-4.5-4.5zm50 3-.5 1.5 1 2q-1 1.5-2-1zm5 1 .5 1.5q-1 2.5-2 1zm103 2q1.5 1-1 2l-1.5-.5zm-151 1 2.5 3.5-.5.5-2-2-1.5-.5zm142 2 2.5.5-2.5.5zm-102 1-.5 1.5 1 2q-1 1.5-2-1zm87 3 2.5.5-2.5.5zm-245 1 3.5 4.5h-1l-3-4zm219 2 1 1 4.5.5-4.5.5q-2.5-1-1-2Zm10 0 3.5.5-3.5.5zm-36 1 2.5.5-2.5.5zm11 1 8.5.5-8.5.5zm-75 5 1.5 2.5h-1zm-120 1 4.5 4.5-.5.5-4.5-4.5zm-119 3 4.5 2.5-1.5-.5-3-1-1.5.5zm241 0 1.5 3.5h-1zm-234 3 1.5.5-2.5 1.5q-1.5-1 1-2Zm256 0q2.8 1.3.5 2.5l-1.5 2.5-1.5-.5 2-1 1-2zm-20 2 .5 2.5h-1zm-115 1 4.5 4.5-.5.5-4.5-4.5zm-108 1 2.5.5-2.5.5zm236 1 1.5.5-2 1-.5 1.5-.5-1.5zm-211 3 2.5.5-2.5.5zm-39 1 2.5 2.5-.5.5-2.5-2.5zm49 0 3.5.5-3.5.5zm11 1 2.5.5-2.5.5zm9 1 2.5.5-2.5.5zm213 0 9.5.5-9.5.5zm-206 1 2.5.5-3.5 1.5q-1.5-1 1-2Zm222 0 3.5.5-3.5.5zm-31 1 2.5.5-2.5.5zm39 0 2.5.5-2.5.5zm4 1 1.5.5-2.5 1.5q-1.5-1 1-2Zm-304 1 3.5 3.5-.5.5-3.5-3.5zm90 1 2.5.5-2.5.5zm144 0 .5 2.5h-1zm10 0q1.5 1-1 2l-1.5-.5zm-144 3 2.5 1.5-1.5-.5q-2.4-.1-1-1Zm36 1 3 2 1.5-.5q-1.7 3.3-3.5-.5-2.4-.1-1-1Zm-31 1 1.5.5-2.5 1.5q-1.5-1 1-2Zm137 0 1.5.5-3.5 1.5v-1zm86 0 1.5.5-2.5 1.5q-1.5-1 1-2Zm-321 1 2.5 2.5-.5.5-2.5-2.5zm226 0 .5 2.5h-1zm-123 1 2.5 1.5-1.5-.5q-2.4-.1-1-1Zm228 2 2.5 1.5-1.5-.5q-2.4-.1-1-1Zm-326 2 3.5 3.5-.5.5-3.5-3.5zm135 0 2.5 1.5-1.5.5q-2.5-1-1-2Zm-129 4 3.5 3.5-1.5 1.5-2.5-2.5 1-1zm9 10 4.5 4.5-.5.5-4.5-4.5zm147 0 2 1 1.5-.5-2.5 1.5q-2.5-1-1-2Zm45 4 .5 1.5-2.5.5v-1zm9 0 1.5 3.5h-1zm-194 3 1 2q1.3-2.3 2.5.5l-1.5-.5-1 1-1.5-1.5zm167 0 5.5.5-5.5.5zm29 2 2.5 1.5-1.5.5q-2.5-1-1-2Zm-192 3 6.5 5.5h-3l-4-5zm175 1 2.5.5-4 3 .5 1.5q-3.2-1.7.5-3.5zm-51 2 4.5 4.5-.5.5-4.5-4.5zm56 1 .5 1.5-2.5 3.5-1.5-.5zm17 0 6.5 6.5-.5.5-6.5-6.5zm165 2 3.5 2.5-1.5-.5q-3.8-.7-2-2Zm-458 1 3.5 2.5-1.5-.5q-3.8-.7-2-2Zm8 4 2.5 1.5-1.5-.5-2 1q-1.5-1 1-2Zm99 1 4.5 4.5-.5.5-4.5-4.5zm122 0 2.5 3.5-.5.5-2-2-1.5-.5zm41 1-.5 1.5-3.5 4.5-.5-.5 3-3zm-254 1 2.5.5-2.5.5zm245 1 1.5.5-2.5 2.5-.5-.5zm-237 1 2.5.5-2.5.5zm4 1 3.5.5-4.5 1.5q-1.5-1 1-2Zm-22 1 3.5 3.5-.5.5-3.5-3.5zm28 0 3.5.5-3.5.5zm6 1 3.5.5-4.5 1.5q-1.5-1 1-2Zm219 0 1.5.5-3.5 2.5-.5-.5zm-211 1 4.5.5-4.5.5zm67 0 2.5 2.5-.5.5-2.5-2.5zm150 0-.5 1.5-.5 1.5-.5-1.5zm-206 1 2.5.5-2.5.5zm422 0 7.5 5.5-1.5-.5q-5-1.5-6-5Zm-414 1 4.5.5-4.5.5-1 1q-1.5-1 1-2Zm250 0 4.5 2.5-1.5-.5-3-1zm-233 2 2.5.5-2.5.5zm-71 1 3.5 3.5-.5.5-3.5-3.5zm240 2 1.5.5-3.5 2.5-.5-.5zm7 0 .5.5-2.5 2.5-1.5-.5zm69 0 2 1 1.5-.5-2.5 1.5q-2.5-1-1-2Zm-205 1 1 1 1.5-.5-1.5 1.5q-2.5-1-1-2Zm-19 1 2.5 1.5-1.5-.5q-2.4-.1-1-1Zm229 0 2.5 1.5-1.5.5q-2.5-1-1-2Zm-218 1 2.5.5-2.5.5zm4 1 2.5 1.5-1.5-.5q-2.4-.1-1-1Zm130 0 1.5.5-3.5 2.5-.5-.5zm7 0-.5 1.5-.5 1.5-.5-1.5zm-127 2 2.5 1.5-1.5-.5q-2.4-.1-1-1Zm343 1 2.5.5-2.5.5zm-345 1 2.5 1.5-1.5-.5q-2.4-.1-1-1Zm336 0 1 1 4.5.5-4.5.5q-2.5-1-1-2Zm-211 1 .5 1.5-1.5.5q-1.5-1 1-2Zm204 0 3.5 1.5-2.5.5q-2.5-1-1-2Zm34 0 3.5.5-3.5.5zm-469 1 2.5.5-2.5.5zm114 0 5.5 3.5-1.5.5-4.5-3.5zm131 0 4.5.5-4.5.5zm12 0 3.5.5-3.5.5zm-19 1 2.5.5-2.5.5zm32 1 2.5.5-2.5.5zm-42 1 3.5 2.5-1.5-.5-2 1q-3-1.5 0-3Zm123 1 2.5.5-2.5.5zm9 0q1.5 1-1 2l-2.5-.5zm50 1 2.5.5-2.5.5zm-127 1 1.5.5-2.5 1.5q-1.5-1 1-2Zm86 1 3.5.5-3.5.5zm27 0 2.5.5-2.5.5zm-391 1 1 1 1.5-.5-1.5 1.5q-2.5-1-1-2Zm374 0 7.5.5-7.5.5zm-366 6 3.5 3.5-.5.5-3.5-3.5zm5 3 1.5 1.5-1 1 .5 1.5-1.5-1.5 1-1zm292 3 2.5 1.5-1.5-.5q-2.4-.1-1-1Zm-173 2q2.5 1 1 2l-1-1-1.5.5zm-114 1 2.5 2.5-.5.5-2.5-2.5zm137 0q1.5 1-1 2l-1.5-.5zm50 2q2.3.8 1.5 4.5h-1v-3zm-272 1 1.5 2.5q-1 1.5-2-1zm237 1q1.5 1-1 2l-3.5-.5zm34 1 .5.5-2.5 2.5-1.5-.5zm-24 2 3.5.5-3.5.5zm15 0 1.5.5-3.5 2.5-.5-.5zm6 2 .5.5-2 2-.5 1.5-1-1-1.5.5zm-10 2q2.5 1 1 2l-3 2-.5-.5 2-2zm-38 2 2.5 2.5-.5.5-2-2-1.5.5zm-121 1 5.5 5.5-.5.5-5.5-5.5zm155 2q2.5 1 1 2l-3 2-.5-.5 2-2zm-29 1 3.5 3.5-1.5 1.5-3.5-3.5zm-214 1 3 4 1.5-.5q-1.5 3-3 0l-2-3zm249 1 .5.5-2 2-.5 1.5q-2.5-1-1-2zm20 0 2.5 1.5q-1 2.5-2 1zm123 1 2.5 2.5-.5.5-2.5-2.5zm-376 1 4.5 2.5-1.5-.5-3-1zm82 1 1.5 1.5-.5 1.5 1.5.5-1.5.5-2.5-2.5zm174 1 2.5 2.5-.5.5-2.5-2.5zm-247 2 2.5 1.5-1.5-.5q-2.4-.1-1-1Zm373 0 2.5 2.5-1 1 .5 1.5-2.5-2.5 1-1zm-296 2 2.5 2.5-.5.5-2.5-2.5zm177 3 3.5 3.5-.5.5-3.5-3.5zm-47 1 .5.5-2.5 2.5-.5-.5zm173 1 8.5 8.5-.5.5-8.5-8.5zm-357 1 2.5.5-3.5 1.5q-1.5-1 1-2Zm4 1 2.5.5-2.5.5zm4 1 2.5.5-2.5.5zm17 4 3.5.5-4.5 1.5q-1.5-1 1-2Zm-54 2 2.5 1.5-1.5.5q-2.5-1-1-2Zm69 1 2.5.5-3.5 1.5q-1.5-1 1-2Zm143 1v2l8.5.5-9.5.5-.5-1.5zm-130 1 2.5.5-2.5.5zm314 0q1 2 2 0l1.5 1.5-.5 1.5-3.5-2.5zm-392 2 2.5 1.5q-1 2.5-2 1zm221 0 2.5.5-2.5.5zm-128 1 1.5.5-2.5 1.5q-1.5-1 1-2Zm16 1 10.5 5.5-1.5.5-4.5-1.5.5-1.5-5-2zm288 0 3.5 3.5-.5.5-3.5-3.5zm-160 3 4.5 2.5-1.5.5-3.5-2.5zm-228 6 2.5 1.5q-1 2.5-2 1zm188 0 1.5 2.5h-1zm101 0 2 1 1.5-.5-2.5 1.5q-2.5-1-1-2Zm-166 1 2.5 1.5-1.5-.5q-2.4-.1-1-1Zm276 2 2.5 3.5-.5.5-2-2-1.5-.5zm-396 1 6.5 5.5h-3l-4-5zm131 1 1.5.5-2.5 1.5q-1.5-1 1-2Zm113 0q2.5 1 1 2l-1-1-1.5.5zm54 0 2.5.5-2.5.5zm-155 1q1.5 1-1 2l-3.5-.5zm168 1q1.5 1-1 2l-2.5-.5zm-146 1 2.5.5-2.5.5zm235 0 2.5 3.5-.5.5-2-2-1.5-.5zm-221 1-.5 1.5-.5 1.5-.5-1.5zm133 0 2.5.5-2.5.5zm-143 1 1.5.5q-1 2.5-2 1zm161 1q1.5 1-1 2l-2.5-.5zm6 1q1.5 1-1 2l-2.5-.5zm-81 1 2.5 2.5-.5.5-2-2-1.5.5zm148 0 2.5 2.5-.5.5-2.5-2.5zm-262 1 2.5 2.5-.5.5-2.5-2.5zm198 0 2.5.5-2.5.5zm7 1 2.5.5-2.5.5zm9 1 4.5.5-4.5.5zm16 0q1.5 1-1 2l-4.5-.5 4.5-.5zm-206 1 1.5.5-2.5 1.5q-1.5-1 1-2Zm241 0 3.5 3.5-.5.5-3.5-3.5zm-393 2q1 2 2 0l2.5 2.5-.5.5-2-2-1 1q-2.5-1-1-2Zm158 1 .5 1.5-2.5 3.5-1.5-.5zm23 2 1.5 2.5h-1zm-172 4 3.5 3.5-1 1 .5 1.5-3.5-3.5 1-1zm145 0q1.5 1-1 2l-1.5-.5zm-2 3q1.5 1-1 2l-1.5-.5zm35 1v2l1.5.5-1.5.5q-3-1.5 0-3Zm-172 3 2.5 2.5-.5.5-2.5-2.5zm124 0 1.5 2.5q-1 1.5-2-1zm124 0q1.5 3.5 3 1l9.5 9.5-1.5-.5-1 1-10.5-10.5zm-72 6 1.5 2.5q-1 1.5-2-1zm-168 1 1 1 1.5-.5-1.5 1.5q-2.5-1-1-2Zm4 3 1 1 1.5-.5-1.5 1.5q-2.5-1-1-2Zm124 0 2.5.5-2.5.5zm-121 2 5.5 4.5-.5.5-2-2-3.5-2.5zm7 5 2.5 1.5-1.5.5q-2.5-1-1-2Zm138 3 2.5 1.5-1.5-.5q-2.4-.1-1-1Zm24 0 2.5 1.5-1.5.5q-2.5-1-1-2Zm89 5 1.5 2.5q-1 1.5-2-1zm-85 1 2.5 1.5-1.5.5q-2.5-1-1-2Zm-148 1 3.5 2.5-1.5-.5q-3.8-.7-2-2Zm7 2q1.5 1-1 2l-1.5-.5zm60 1 1.5.5-2.5 2.5-.5-.5zm-58 1 2.5 1.5-1.5.5q-2.5-1-1-2Zm128 0q2.5 1 1 2l-1-1-1.5.5zm-62 1 .5 1.5-2.5.5v-1zm-16 1 2.5 1.5-1.5.5q-2.5-1-1-2Zm-40 2 2.5.5-2.5.5zm124 1 2.5 2.5-.5.5-2.5-2.5zm-93 1 2.5.5-2.5.5zm-13 1 6.5.5-6.5.5zm25 3 1.5.5-2 1 .5 1.5q-3-1.5 0-3Zm7 3-.5 1.5-4.5 9.5-.5-1.5zm177 2 1.5 2.5h-1zm-90 1 6.5 6.5-.5.5-6.5-6.5zm-75 2-.5 1.5-.5 1.5-.5-1.5zm85 0 6.5 6.5-.5.5-6.5-6.5zm-111 5q2.5 1 1 2l-2 1 .5-1.5zm114 7q1 2 2 0l4.5 4.5-.5.5-2-2-1 1-3.5-3.5zm14 2 2.5 1.5-1.5.5q-2.5-1-1-2Zm75 5 2.5 3.5q-1 2.5-2 1l.5-1.5-1.5-.5 1-1zm-77 4 3.5 3.5-.5.5-3.5-3.5zm33 5q1.5 1-1 2l-1.5-.5zm-116 1 3.5 3.5-.5.5-3.5-3.5zm118 1 2 1 1.5-.5-2.5 1.5q-2.5-1-1-2Zm5 2 2.5 1.5-1.5.5q-2.5-1-1-2Zm-28 4 2.5 2.5-.5.5-2.5-2.5zm73 0 2.5 1.5q-1 2.5-2 1l.5-1.5q-2.4-.1-1-1Zm-159 1 1.5 2.5q-1 1.5-2-1zm-67 1-.5 1.5-.5 1.5-.5-1.5zm231 5 1.5 2.5h-1zm-69 3 4.5 4.5-.5.5-4.5-4.5zm-84 2 2.5 2.5-.5.5-2.5-2.5zm4 4 4.5 3.5-.5.5-3-3q-2.4-.1-1-1Zm84 0q1 2 2 0l1.5 1.5 3 4-.5.5-4-4q-3.8-.7-2-2Zm73 4 2.5 2.5-.5.5-2.5-2.5zm-251 8 1.5 2.5q-1 1.5-2-1zm115 2 4.5 2.5-1.5-.5-3-1zm-112 3q2.8 1.3.5 2.5l-1.5 2.5-1.5-.5 2-1-.5-1.5 1.5-.5zm189 0 2.5 1.5-1.5-.5q-2.4-.1-1-1Zm-195 2 1.5 2.5q-1 1.5-2-1zm143 5 2.5.5-2.5.5zm-145 1-.5 1.5-.5 1.5-.5-1.5zm5 1 .5.5-2.5 2.5-.5-.5zm-4 4 1.5.5-.5 1.5q-2.5-1-1-2Zm181 4q1.5 1-1 2l-1.5-.5zm15 9 4.5 3.5-.5.5-2-2q-3.8-.7-2-2Zm12 9 3.5 3.5-.5.5-3.5-3.5zm10 5 .5 1.5q-1 2.5-2 1z" opacity=".016"/><path fill="#fecfbf" stroke="#fecfbf" d="m393.5 29 1.5 2.5q-1 1.5-2-1zm4 7 1.5 2.5q-1 1.5-2-1zm8 18 2.5 1.5-1.5-.5q-2.4-.1-1-1Zm-47 8 1.5.5-2 1 .5 1.5q-3-1.5 0-3Zm-153 53q2.5 1 1 2l-1.5-.5zm60 7 2.5.5-2.5.5zm4 1 2.5 1.5-1.5-.5q-2.4-.1-1-1Zm-53 9 1.5 2.5h-1zm14 25 1.5 2.5h-1zm114 5 1.5 2.5h-1zm-110 2q2.9 1.6 3.5 5.5h-1l-3-5zm108 3 1.5 2.5q-1 1.5-2-1zm6 1 2.5 1.5-1.5-.5q-2.4-.1-1-1Zm-104 10 1.5.5-.5 1.5q-2.5-1-1-2Zm151 1 .5.5-2.5 2.5-.5-.5zm-45 1 1.5 2.5q-1 1.5-2-1zm19 9 1.5 2.5q-1 1.5-2-1zm-100 13 2.5 1.5-1.5.5q-2.5-1-1-2Zm95 8 1.5 2.5q-1 1.5-2-1zm-221 7 4.5 1.5-2.5.5-2.5-1.5zm225 0-.5 1.5-.5 1.5-.5-1.5zm-105 6 2.5.5-2.5.5zm-105 1 2.5 1.5-1.5.5q-2.5-1-1-2Zm356 3q1.5 1-1 2l-1.5-.5zm-224 7 2.5 1.5-1.5-.5q-2.4-.1-1-1Zm12 8 2.5 1.5-1.5.5q-2.5-1-1-2Zm-121 1 1.5 2.5q-1 1.5-2-1zm287 8q1.5 1-1 2l-1.5-.5zm-278 3 2.5 1.5-1.5-.5q-2.4-.1-1-1Zm181 1 3.5 2.5-1.5-.5q-3.8-.7-2-2Zm-51 5 2.5 3.5q-1 1.5-2-1zm60 0 2.5 1.5-1.5.5q-2.5-1-1-2Zm-28 10q3 1.5 0 3l-1.5-.5 2-1zm-12 14 .5 1.5q-1 2.5-2 1zm-245 4 6 7 1.5.5-1.5.5-6.5-6.5zm260 2 2.5.5-2.5.5zm-3 1 1.5.5-2.5 1.5q-1.5-1 1-2Zm56 0 2.5 1.5-1.5-.5q-2.4-.1-1-1Zm6 2 2.5.5-2.5.5zm-166 12 2.5 1.5-1.5.5q-2.5-1-1-2Zm-129 7 1.5.5-.5 1.5q-2.5-1-1-2Zm206 8 1.5.5-2.5 1.5q-1.5-1 1-2Zm-195 2 1.5 2.5q-1 1.5-2-1zm184 0q1.5 1-1 2l-1.5-.5zm171 5 2.5 1.5-1.5-.5q-2.4-.1-1-1Zm-166 2q1.5 1-1 2l-1.5-.5zm174 3 2.5 1.5-1.5-.5q-2.4-.1-1-1Zm-147 12 3.5 2.5-1.5.5-2.5-2.5zm-296 7 2.5 2.5-.5.5-2.5-2.5zm483 7 3.5 2.5-1.5.5-2.5-2.5zm-385 1 2.5 1.5-1.5-.5q-2.4-.1-1-1Zm133 1 1.5 2.5q-1 1.5-2-1zm4 6q1.5 1-1 2l-1.5-.5zm114 0 2.5 1.5-1.5.5q-2.5-1-1-2Zm-103 2 1.5.5-3.5 1.5v-1zm41 1 6.5 2.5-1.5.5-5-2zm-147 6 2.5 1.5-1.5.5q-2.5-1-1-2Zm179 9 2.5 1.5-1.5-.5q-2.4-.1-1-1Zm-153 4 2.5 1.5-1.5.5q-2.5-1-1-2Zm-128 4 6.5 6.5-.5.5-6.5-6.5zm-79 6 2.5 2.5-.5.5-2.5-2.5zm207 1 2.5 2.5-.5.5-2.5-2.5zm13 11 2.5 3.5q-1 1.5-2-1l-.5-1.5-1.5.5zm-212 5 2.5.5-2.5.5zm26 2 2.5.5-2.5.5zm88 13 2.5 1.5-1.5.5q-2.5-1-1-2Zm294 0 2.5 2.5-.5.5-2.5-2.5zm-184 1 2.5.5-2.5.5zm64 0 4.5 3.5-1.5-.5-3.5-2.5zm125 4q2.5 1 1 2l-1.5-.5zm-117 1 2.5 2.5-.5.5-2.5-2.5zm-157 7 2.5 1.5-1.5-.5q-2.4-.1-1-1Zm8 3 1.5 2.5h-1zm183 6 2.5.5-2.5.5zm-146 3 4.5.5-4.5.5zm-145 7 1.5.5.5 1.5 1.5.5-1.5.5-2.5-2.5zm377 3 2.5.5-2.5.5zm-191 6 1.5 2.5h-1zm218 3 2.5 3.5-.5.5-2.5-2.5zm-258 2-.5 1.5-3.5 5.5-.5-1.5zm7 3 .5.5-2.5 2.5-.5-.5zm43 10 1.5 2.5h-1zm-38 1 2.5.5-2.5.5zm4 1 2.5 1.5-1.5-.5q-2.4-.1-1-1Zm118 0 1.5 2.5q-1 1.5-2-1zm-82 2 2.5 3.5h-1l-2-3zm-28 1 2.5 1.5-1.5.5q-2.5-1-1-2Zm-127 4 2.5 1.5-1.5.5q-2.5-1-1-2Zm4 2 2.5 2.5-.5.5-2.5-2.5zm156 1 2.5 3.5q-1 1.5-2-1zm-20 1 3.5 2.5-.5.5-2-2q-2.4-.1-1-1Zm-59 8v3l-2.5-1.5zm173 3 3.5 5.5h-1l-3-4zm-182 1 1.5.5-3.5 1.5v-1zm101 3 1.5 2.5q-1 1.5-2-1zm86 4 1.5 2.5q-1 1.5-2-1zm-78 14 3.5 4.5-.5.5-2.5-2.5zm-112 1-.5 1.5-1.5 2.5.5-1.5zm32 5 2.5 3.5h-1l-2-3zm100 3 2.5 1.5-1.5.5q-2.5-1-1-2Zm-9 2 3.5 4.5-.5.5-2.5-2.5zm84 6 2.5 4.5q-1 1.5-2-1zm-73 6 2.5 2.5-.5.5-2.5-2.5zm-87 3 2.5 1.5.5 1.5 2.5 1.5 1 2-.5.5-6.5-6.5zm90 1 2.5 1.5h-3zm40 2 2.5 1.5-1.5.5q-2.5-1-1-2Zm4 2 3.5 1.5-1.5.5-2.5-1.5zm39 10 2.5 2.5-.5.5-2.5-2.5zm-142 11 5.5 3.5-1.5.5-4.5-3.5zm18 10 2.5 1.5-1.5.5q-2.5-1-1-2Zm5 2 3.5 1.5-2.5.5q-2.5-1-1-2Zm-134 9 .5 2.5h-1zm170 3 2.5.5-2.5.5zm9 3 2.5.5-2.5.5zm39 13 1.5 2.5q-1 1.5-2-1z" opacity=".012"/><path fill="#f5947b" stroke="#f5947b" d="m394.5 178 .5.5-2.5 2.5-.5-.5zm-19 40 .5.5-2.5 2.5-.5-.5zm-91 157 .5 1.5-1.5.5q-1.5-1 1-2Zm-192 19 3.5 3.5-.5.5-3.5-3.5zm99 111 .5 4.5h-1zm-55 106 1.5.5q-1 2.5-2 1z" opacity=".318"/><path fill="#fea28a" stroke="#fea28a" d="m375.5 1 1.5 2.5-1.5.5zm0 17 .5 3.5h-1zm36 54 .5 2.5h-1zm1 6 .5 2.5h-1zm1 8 .5 7.5h-1zm0 19 .5 11.5h-1zm-72 5 .5 2.5h-1zm-135 3 2.5.5-2 1 .5 1.5q-2.4-.9-1-3Zm6 1 2.5.5-2.5.5zm6 1 2.5.5-2.5.5zm7 1 2.5.5-2.5.5zm7 1 2.5.5-2.5.5zm108 0 .5 10.5h-1zm-102 1 2.5.5-2.5.5zm15 3 2.5.5-2.5.5zm159 6 .5 5.5h-1zm-1 11 .5 2.5h-1zm-84 17 2.5 2.5-.5.5-2.5-2.5zm6 5 4.5 4.5-.5.5-4.5-4.5zm65 13 .5.5-2.5 2.5-.5-.5zm-42 1 17.5 17.5-.5.5-17.5-17.5zm-111 2 5.5 5.5-.5.5-5.5-5.5zm146 5 .5.5-4.5 4.5-.5-.5zm-139 2 3.5 3.5-.5.5-3.5-3.5zm199 6 29.5.5-29.5.5zm-10 1 3.5.5-3.5.5zm48 0 4.5.5-4.5.5zm-55 1 2.5.5-2.5.5zm65 0 4.5.5-4.5.5zm-71 1 2.5.5-2.5.5zm80 0 2.5.5-2.5.5zm7 1 2.5.5-2.5.5zm6 1 2.5.5-2.5.5zm6 1 2.5.5-2.5.5zm-260 1 7.5 8.5-.5.5-7.5-7.5zm266 0 2.5.5-2.5.5zm5 1 2.5.5-2.5.5zm5 1 2.5.5-2.5.5zm5 1 2.5.5-2.5.5zm-173 2q2.8 1.3.5 2.5l-.5 1.5zm181 3 4.5.5-4.5.5zm-6 1 2.5.5-2.5.5zm-405 3 16.5.5-16.5.5zm22 1 3.5.5-3.5.5zm7 1 2.5.5-2.5.5zm-42 1 2.5 1.5-2.5.5zm48 0 2.5.5-2.5.5zm202 1 .5.5-2.5 2.5-.5-.5zm-186 2 2.5.5-2.5.5zm6 1 2.5.5-2.5.5zm6 1 2.5.5-2.5.5zm8 1 4.5.5-4.5.5zm10 1 3.5.5-3.5.5zm144 0 .5 2.5-1.5 4.5-2 1-.5-.5 2-2zm-136 1 2.5.5-2.5.5zm6 1 2.5.5-2.5.5zm-74 7 2.5 2.5-.5.5-2.5-2.5zm6 5 13.5 13.5-.5.5-13.5-13.5zm189 5 2.5 1.5-1.5-.5q-2.4-.1-1-1Zm-18 1 4.5.5-4.5.5zm12 0 3.5.5-3.5.5zm-53 6 2.5 2.5-.5.5-2.5-2.5zm-112 7 3.5 3.5-.5.5-3.5-3.5zm7 8 4.5 4.5-.5.5-4.5-4.5zm227 1 2.5.5-2.5.5zm-34 1 3.5.5-3.5.5zm26 0 3.5.5-3.5.5zm-15 1 5.5.5-5.5.5zm-195 7 11.5 11.5-.5.5-11.5-11.5zm-118 7-.5 1.5 2 2-.5.5-2.5-2.5zm17 6 2.5.5-2.5.5zm116 1 2.5 2.5-.5.5-2.5-2.5zm-128 1 16.5 16.5-.5.5L93 284.5zm22 0 2.5.5-2.5.5zm6 1 3.5.5-3.5.5zm8 1 4.5.5-4.5.5zm10 1 4.5.5-4.5.5zm11 1 4.5.5-4.5.5zm10 1 3.5.5-3.5.5zm215 0 7.5.5-7.5.5zm-207 1 2.5.5-2.5.5zm197 0 3.5.5-3.5.5zm25 0 3.5.5-3.5.5zm-216 1 2.5.5-2.5.5zm156 1 .5 4.5h-1zm4 10 1 1 1.5-.5-1.5 1.5q-2.5-1-1-2Zm-217 5 18.5 18.5-.5.5-18.5-18.5zm174 14 2.5.5-2.5.5zm9 1 4.5.5-4.5.5zm-49 4 2.5 2.5-.5.5-2.5-2.5zm-112 4 3.5 3.5-.5.5-3.5-3.5zm119 2 5.5 5.5-.5.5-5.5-5.5zm77 1 3.5 3.5-.5.5-3.5-3.5zm-295 6 1.5.5.5 1.5 1.5-.5-1 1 2 2-.5.5-4.5-4.5zm107 0 7.5 7.5-.5.5-7.5-7.5zm-84 8 2.5.5-2.5.5zm10 2 2.5.5-2.5.5zm7 1 3.5.5-3.5.5zm8 1 3.5.5-3.5.5zm72 0 3.5 3.5-.5.5-3.5-3.5zm-63 1 4.5.5-4.5.5zm10 1 3.5.5-3.5.5zm8 1 3.5.5-3.5.5zm7 1 2.5.5-2.5.5zm6 1 2.5.5-2.5.5zm38 0 2.5 2.5-.5.5-2.5-2.5zm-106 3 2.5 2.5-.5.5-2.5-2.5zm457 3 6.5.5-6.5.5zm18 0q1.5 1-1 2l-2.5-.5zm-30 1 3.5.5-3.5.5zm-7 1 2.5.5-2.5.5zm-6 1 2.5.5-2.5.5zm-430 3 4.5.5-3.5 1.5q-2.5-1-1-2Zm219 0 .5 2.5h-1zm26 0 15.5.5-15.5.5zm107 0 2.5.5-2.5.5zm62 0 2.5.5-2.5.5zm-175 1 2.5.5-2.5.5zm25 0 2.5.5-2.5.5zm93 0 2.5.5-2.5.5zm6 1 2.5.5-2.5.5zm39 0 3.5.5-3.5.5zm-33 1 3.5.5-3.5.5zm25 0 4.5.5-4.5.5zm-279 1 2.5 2.5-.5.5-2.5-2.5zm266 0 4.5.5-4.5.5zm-374 1 2.5 2.5-.5.5-2.5-2.5zm113 3 3.5 3.5-.5.5-3.5-3.5zm-108 1 2.5 2.5-.5.5-2.5-2.5zm7 6L92 393.5l-.5.5L81 383.5zm109 0 3.5 3.5-.5.5-3.5-3.5zm85 4 .5 7.5h-1zm-79 1 2.5 2.5-.5.5-2.5-2.5zm44 5 3.5.5-3.5.5zm14 0 3.5.5-3.5.5zm-249 4 4 5q1.3-2.2 2.5.5l-1.5 1.5-4.5-4.5zm387 5 2.5 2.5-.5.5-2.5-2.5zm-170 4 7.5 7.5-.5.5-7.5-7.5zm175 0 3.5 3.5-.5.5-3.5-3.5zm-384 1 2.5 2.5-.5.5-2.5-2.5zm96 3 5.5 5.5-.5.5-5.5-5.5zm143 1 .5.5-2.5 2.5-.5-.5zm33 1 7.5 7.5-.5.5-7.5-7.5zm119 0 6.5 6.5-.5.5-6.5-6.5zm-286 6 2.5 2.5-.5.5-2.5-2.5zm178 4 2.5 2.5-.5.5-2.5-2.5zm-217 7 2.5.5-2.5.5zm20 4 2.5.5-2.5.5zm6 1 2.5.5-2.5.5zm322 1 4.5 4.5-.5.5-4.5-4.5zm-311 1 2.5.5-2.5.5zm125 0 9.5.5-9.5.5zm13 1 2.5.5-2.5.5zm-215 2 2.5 2.5-.5.5-2.5-2.5zm396 5 2.5 2.5-.5.5-2.5-2.5zm-386 7 3.5 3.5-.5.5-3.5-3.5zm137 0 2.5.5-2.5.5zm6 1 3.5.5-3.5.5zm19 0 2.5.5-2.5.5zm157 3 2.5.5-2.5.5zm5 1 2.5.5-2.5.5zm6 1 2.5.5-2.5.5zm6 1 3.5.5-3.5.5zm-329 1 6.5 6.5-.5.5-6.5-6.5zm242 0 2.5 2.5-.5.5-2.5-2.5zm95 0 3.5.5-3.5.5zm25 0 2.5.5-2.5.5zm-16 1 3.5.5-3.5.5zm10 1 5.5.5-5.5.5zm-109 2 2.5 2.5-.5.5-2.5-2.5zm5 4 3.5 3.5-.5.5-3.5-3.5zm-237 7 4.5 4.5-.5.5-4.5-4.5zm246 1 21.5 21.5-.5.5-21.5-21.5zm-121 4 .5 7.5 1 1-1.5.5zm-117 2 2.5 2.5-.5.5-2.5-2.5zm5 4 2.5 2.5-.5.5-2.5-2.5zm257 15 2.5 2.5-.5.5-2.5-2.5zm-198 14 2.5.5-2.5.5zm49 0 .5 2.5h-1zm-40 1 4.5.5-4.5.5zm105 2 3.5 3.5-.5.5-3.5-3.5zm7 6 3.5 3.5-.5.5-3.5-3.5zm17 4 3.5 3.5-.5.5-3.5-3.5zm-8 4 24.5 24.5-.5.5-24.5-24.5zm-58 27 12.5 12.5-.5.5-12.5-12.5zm88 4 5.5 5.5-.5.5-5.5-5.5zm-72 11 3.5 3.5-.5.5-3.5-3.5zm82 0 3.5 3.5-.5.5-3.5-3.5zm8 9 2.5 2.5-.5.5-2.5-2.5zm5 6 2.5 2.5-.5.5-2.5-2.5zm-189 21 1.5.5q-1 2.5-2 1zm207 19 7.5 7.5-.5.5-7.5-7.5z" opacity=".518"/><path fill="#fea48a" stroke="#fea48a" d="m375.5 4 .5 3.5h-1zm0 11 .5 2.5h-1zm38 67 .5 3.5h-1zm-73 32 .5 2.5h-1zm-119 1 2.5.5-2.5.5zm192 3 .5 5.5h-1zm-73 10 .5 2.5h-1zm72 5 .5 2.5h-1zm-60 37 2.5 2.5-.5.5-2.5-2.5zm95 19 3.5.5-3.5.5zm34 0 5.5.5-5.5.5zm-43 1 2.5.5-2.5.5zm56 0 3.5.5-3.5.5zm10 1 2.5.5-2.5.5zm7 1 2.5.5-2.5.5zm13 2 2.5.5-2.5.5zm-149 2 .5 4.5h-1zm194 7 .5 1.5-8.5.5v-1h7zm-195 1q2.8 1.2.5 2.5l-.5 1.5zm-232 4 2.5.5-2.5.5zm20 0 3.5.5-3.5.5zm210 4 .5 3.5-2 2 .5 1.5q-2.7-1.2-.5-2.5zm-179 1 2.5.5-2.5.5zm186 1 .5.5-3.5 3.5-.5-.5zm-168 2 3.5.5-3.5.5zm10 1 2.5.5-2.5.5zm9 1 2.5.5-2.5.5zm142 3q1.5 1-1 2l-1.5-.5zm-67 25 7.5 7.5-.5.5-7.5-7.5zm-119 1 2.5 2.5-.5.5-2.5-2.5zm183 4 3.5 3.5-.5.5-3.5-3.5zm-175 5 2.5 2.5-.5.5-2.5-2.5zm233 4 2.5.5-2.5.5zm-7 1 2.5.5-2.5.5zm-25 1 4.5.5-4.5.5zm13 0 6.5.5-6.5.5zm-207 2 2.5 2.5-.5.5-2.5-2.5zm-112 16 2.5 2.5-.5.5-2.5-2.5zm36 5 2.5.5-2.5.5zm9 1 3.5.5-3.5.5zm11 1 2.5.5-2.5.5zm10 1 2.5.5-2.5.5zm9 1 2.5.5-2.5.5zm206 0 4.5.5-4.5.5zm13 0 4.5.5-4.5.5zm-272 13 4.5 4.5-.5.5-4.5-4.5zm216 13 .5 3.5h-1zm-31 7 3.5.5-3.5.5zm9 0 3.5.5-3.5.5zm-52 5 3.5 3.5-.5.5-3.5-3.5zm12 12 2.5 2.5-.5.5-2.5-2.5zm-218 7L59 357.5l-.5.5L47 346.5zm109 2 2.5 2.5-.5.5-2.5-2.5zm-80 1 2.5.5-2.5.5zm16 2 2.5.5-2.5.5zm10 1 3.5.5-3.5.5zm9 1 2.5.5-2.5.5zm8 1 2.5.5-2.5.5zm34 6 1.5.5q-1 2.5-2 1zm356 3 3.5.5-3.5.5zm18 0 3.5.5-3.5.5zm-26 1 2.5.5-2.5.5zm35 0 2.5.5-2.5.5zm-99 8 3.5.5-3.5.5zm12 0 5.5.5-5.5.5zm-262 8 2.5 2.5-.5.5-2.5-2.5zm-185 14 3.5 4.5-.5.5-3.5-3.5zm244 0 5.5.5-5.5.5zm-147 7 9.5 9.5-.5.5-9.5-9.5zm-89 3 2.5 2.5-.5.5-2.5-2.5zm402 15 13.5 13.5-.5.5-13.5-13.5zm-177 6 .5 5.5h-1zm198 16 2.5 2.5-.5.5-2.5-2.5zm-387 7 2.5 2.5-.5.5-2.5-2.5zm151 5 11.5.5-11.5.5zm193 6 2.5.5-2.5.5zm-205 1 5.5 5.5-.5.5-5.5-5.5zm213 0 3.5.5-3.5.5zm10 1 3.5.5-3.5.5zm-344 7 3.5 3.5-.5.5-3.5-3.5zm248 2 3.5 3.5-.5.5-3.5-3.5zm146 7 2 2 1.5-.5-.5 1.5-3.5-2.5zm-258 13 6.5.5-6.5.5zm-53 25 4.5.5-4.5.5zm10 0 3.5.5-3.5.5zm111 11 3.5 3.5-.5.5-3.5-3.5zm18 6 2.5 2.5-.5.5-2.5-2.5zm14 26 3.5 3.5-.5.5-3.5-3.5zm-71 14 2.5 2.5-.5.5-2.5-2.5zm162 14q1 2 2 0l1.5 1.5-.5 1.5-1-2-1 1q-2.5-1-1-2Z" opacity=".173"/><path fill="#db5c60" stroke="#db5c60" d="m174.5 540 .5 1.5q-1 2.5-2 1zm-20 42 .5 1.5-4.5 7.5.5-1.5z" opacity=".012"/><path fill="#ebc05a" stroke="#ebc05a" d="m346.5 272 .5 1.5q-1 2.5-2 1zm-251 127 3.5 3.5-.5.5-3.5-3.5zm192 17 2.5 2.5-.5.5-2.5-2.5zm-222 55 2.5 2.5-.5.5-2.5-2.5zm283 145 1.5 2.5q-1 1.5-2-1z" opacity=".012"/></svg>