<svg xmlns="http://www.w3.org/2000/svg" viewBox="0 0 640 625"><path stroke="#000" d="M107.5 478h32l1 1h9l1 1h6l1 1 8.5.5q2 2.5 1 8l-1 1v10l-1 1v15l1 1 1 13 1 1v3l3 9 7 13 9.5 10.5 10 7 12 5 8 1 1 1h7l1 1h13l1-1h9q1.3-2.2 6-1l1-1h4l1-1 11-2 18-6 3-2 5-1 21 12h2l3 2 12 4 8 1 1 1h6l1 1h17l1-1h5l1-1 7-1 15-7q11.2-6.8 19.5-16.5l8-11 7-13v-2l5-11 2-10 2.5-3.5 9 1 1 1h5l1 1h5l1 1h6l1 1h8l1 1 17 1 1 1 15 1 1 1h7l1 1q1-2 2 0l3 2q1.5-2.5 3 1l35 23 38.5 21.5-1.5 2.5-11 2-1-1h-7l-1-1h-3l-1-1h-3l-1-1-15-3-4-2h-3l-1-1-15-3-4-2-11-2-4-2-7-1-4-2-7-1-4-2h-3l-4-2h-3l-9-3h-10q-6.7 2.3-10.5 7.5-6.6 12.4-17.5 20.5l-6 4-22 10-6 1-7 3-15 3-1 1h-4l-1 1h-5l-1 1-11 1-1 1h-6l-1 1-19 1-1 1h-17l-1 1h-34l-1-1h-17l-1-1h-10l-1-1-16-1-1-1-11-1-1-1-14-2-12-4h-3l-26-10-14-9-7.5-7.5-8-13-7.5-7.5-5-2h-4l-1-1-21-1-1-1h-6l-1-1h-4l-1-1-8-1-14-5-5-3-7.5-7.5-2-4-1-8 3-8 7.5-7.5 7-4 15-5h4l6-2h6l1-1h10z" opacity=".467"/><path fill="#38752c" stroke="#38752c" d="M249.5 5h24l1 1h6l1 1h3l1 1h3l7.5 2.5.5 1.5 2-1 1 2 1-1 2 2 1.5-.5.5 1.5h2l15.5 8.5-3.5 1.5-112 98-1-6-1.5-.5-1-11-1-1 1-1v-6q-2-1 0-2 1-4-1-5l1-1 1-8 1-1v-3l2-6 6-12 9.5-12.5 1.5-.5 1.5-2.5 15-11 18-10 4.5-4.5q1.8-2.2 1-7L259.5 8q-4.2.7-6-1l-1 1-10 1-21 9-12 8L196 39.5l-7 11-4.5 10.5-1.5-2.5h2l-1-2q8.6-21.4 25.5-34.5l16-10h2l3-2 9-3 9-1zm81 15 1.5.5-8.5 4.5q-1.5-1 1-2zm-10 21 2.5 2.5-.5.5-2.5-2.5zm-2 2 .5 3.5h-1zm5 2 2.5 2.5-.5.5-2.5-2.5zm-4 3 .5 3.5h-1zm-137 13 1.5 2.5q-1 1.5-2-1z" opacity=".996"/><path fill="#38752c" stroke="#38752c" d="M181.5 64q2.5 1 1 2l-1.5-.5zm-1 3 1.5 2.5q-1 1.5-2-1zm-1 3 1.5 2.5-1.5.5zm-1 5 1.5 2.5q-1 1.5-2-1zm-1 5 .5 3.5h-1zm-1 8 .5 20.5h-1zm-74 77h32l1 1 12 1 5 3 2-1 1 2 3-1 1 2 2-1 1 2 1-1 2 2 1.5-.5.5 1.5h2l7.5 4.5-3.5 1.5-7 6-4 2-7 6-4 2-7 6-4 2-7 6-4 2-7 6-4 2-7 6-4 2-7 6-63 45-1-5-1.5-.5-.5-4.5-1.5.5q2-1 1-5l-1-1v-9l1-3q-2-1 0-2l-1-2 1-1 2-11 6-13q5.8-10.2 14.5-17.5l22-15h2l7-4h3l12-6 5.5-5.5-1-5-1.5-1.5q-2.5-2-8-1l-3.5-1.5 2.5-.5q1.2 2.3 6 1zm-14 2 2.5 1.5-1.5-.5q-2.4-.1-1-1Zm400 9 5.5.5-5.5.5zm33 0 4.5.5-4.5.5zm-41 1 3.5.5-3.5.5zm49 0 15 2 1 1h3l7.5 2.5.5 1.5 2-1 1 2 1.5-.5.5 1.5 2-1 1 2q1.5-2.5 3 1l10.5 5.5-1.5-.5-1 1-16 8-2 2-7 3-2 2-7 3-2 2-18 9-2 2-7 3-2 2-7 3-2 2-18 9-2 2-7 3-2 2-19.5 10.5 2.5.5 1-1h11v1l-22 1-1 1-12 1-1 1h-4l-1 1-11 2-18 6-14 7h-2L359 294.5l.5 1.5 6-2h6l1-1h6l1-1h8l1-1h10l2-1q1.5 1-1 2h-3l-2 2-25 13-20 12-5 1-23-20-.5 2.5 2.5 4.5 1-1 2.5 2.5 231 232-1 1 .5 1.5-1.5-1.5.5-1.5-2 1-1.5-1.5.5-1.5-2 1-1.5-1.5.5-1.5-2 1-1.5-1.5.5-1.5-2 1-1.5-1.5.5-1.5-2 1-1.5-1.5.5-1.5-2 1-1.5-1.5.5-1.5-2 1-1.5-1.5.5-1.5-2-1-1.5.5.5-1.5-2-1-1.5.5.5-1.5-3-2-1.5.5.5-1.5-3-2-1.5.5-1.5-2.5q-1.2 2.3-2.5-.5l-1.5-2.5q-1.2 2.3-2.5-.5l-1.5-2.5q-1.2 2.2-2.5-.5l-1.5-2.5q-1.2 2.3-2.5-.5l-1.5-2.5-1 1-3-3-3.5-2.5-.5-1.5q-4 .5-4.5-2.5l-.5-1.5q-4 .5-4.5-2.5l-.5-1.5q-4 .5-4.5-2.5l-.5-1.5h-2l-5-4-32.5-28.5v-3l-1-1-2-10-7-14-11-15-23.5-24.5-23-21-5-4h-2L339 381.5l3 8 1 8 1 1v5l2 6v9l1 1v26l-1 1v8l-1 1v5l-1 1-1 9-2 4v3l-5 15-8 17-2 2-5 10-12.5 15.5-.5-.5 4-4 5-9v-6l1-1 1-13 1-1v-7l1-1 1-13 1-1q-1.3-4.7 1-6v-6l1-1v-6l1-1v-6l1-1v-6l1-1q-1.2-4.8 1-6v-6l1-1v-6l1-1v-6l1-1v-6l1-1v-6l1-1 1-13 1-1v-6l1-1v-5l1-3-3-6-2-8-4-7v-2L315.5 329l-.5 2.5 1 1q-1.2 4.8 1 6v7l1 1v7l1 1v8l1 1v15l1 1-1 2 1 1v17h-1l-.5-2.5-123 94-.5-1.5 1-2-1-2 1-2-1-3 1-3 2-10 2-4q-2.5-1.5 1-3l1-2q-2.5-1.5 1-3 .9-5.6 4-9v-2l4-5 2-5 6-8 1-3 10-12 3-5q-.7-3.2 1-4l-1.5-2.5-4-1-10 4-11.5 8.5-.5 1.5-9 8-.5-.5 2-2v-2l23.5-23.5 37-31 29.5-28.5 17-21 1-5 7-13-8-8 .5-1.5-6.5-5.5h2l.5-1.5 11 15 8.5-7.5 10-12 33.5-33.5 8-7 .5.5-6 6-3 5v3l1.5 2.5h6l10-5 26-16 20-10h2l7-4h2l2-2q1 2 2 0l9-3 3-2h4l9-3 3-2 2 1 6-3q1 2 2 0l3-1q1 2 2 0l8-1 5-2q1 2 2 0l11-1 1-1h6l7-3 2.5-2.5q2-2.5 1-8l-4-3zM316 295l-1 3h1zm158.5-117 3.5.5-.5 1.5-3-1zm-5 1 4.5 1.5-7.5 1.5-1 1h-3l-15 5-19 9-1.5-.5-.5 1.5-1.5-.5-.5 1.5-.5-1.5 17.5-9.5h2l3-2h2l3-2 9-3 7-1 2 1zm-432 9 .5.5-2.5 2.5-.5-.5zm313 3 .5 2.5h-1zm-318 1 .5.5-9.5 9.5-.5-.5z" opacity=".996"/><path fill="#38752c" stroke="#38752c" d="m579.5 194 3.5 2.5-1.5-.5q-3.8-.7-2-2Zm-230 1 .5 1.5-5 15-3 5v2l-11 22-11.5 17.5.5-1.5 1-7 1-1v-4l1-1v-4l1-1v-4l1-1v-5l1-1v-5l1-1 .5-5.5.5 5.5q-1.7.8-1 4l.5.5 10-10 6.5-5.5zm71 4 1.5.5-2.5 1.5q-1.5-1 1-2Zm-414 37 .5 3.5H6zm-1 8 .5 11.5H5zm1 18 .5 2.5H6zm471 0 2.5.5-2.5.5zm-235 25 18.5 10.5-2.5.5-1-1-9-1-1-1h-5l-1-1h-5l-1-1h-6l-1-1-6.5-.5 6.5-.5 1 1h7l1-1h4l3.5-1.5-3-2zm160 3 12.5.5-12.5.5zm164 15 2.5.5-2.5.5zm6 0 2.5 2.5-.5.5-4.5-1.5zm-172 70 6.5 6.5-.5.5-6.5-6.5zm12 11 4.5 4.5-.5.5-4.5-4.5zm8 7 2.5 2.5-.5.5-2.5-2.5zm-224 28v3l-1.5-.5zm-15 23-.5 1.5-1.5 3.5-.5-1.5zm-15 48 .5 2.5h-1zm-1 9 .5 15.5h-1zm1 20 .5 3.5h-1zm1 7 .5 2.5h-1zm140 10 .5.5-2.5 2.5-.5-.5zm252 3 3.5 2.5-1 1 .5 1.5-1.5-1.5.5-1.5-2 1zm5 3 1.5 1.5-1 1 .5 1.5-1.5-1.5 1-1zm5 3 1.5 1.5-1 1 .5 1.5-1.5-1.5 1-1zm-388 13 6.5 6.5-.5.5-6.5-6.5zm236 1 .5.5-8.5 8.5-.5-.5zm-170 19 2.5.5-2.5.5zm-21 1 13.5.5-13.5.5z" opacity=".996"/><path fill="#0f0" stroke="#0f0" d="m270.5 2 2.5.5-2.5.5zm168 15 4.5 4.5-.5.5-3-3-1.5.5 1-1zm-308 145 2.5.5-2.5.5zm70 12 2.5 1.5-1.5.5q-2.5-1-1-2Zm220 9q1.5 1-1 2l-1.5-.5zm-210 2 8.5 8.5-.5.5-8.5-8.5zm201 8 .5.5-2.5 2.5-.5-.5zm185 9q2.5 1 1 2l-1-1-1.5.5zm-363 5 1.5.5-.5 1.5q-2.5-1-1-2Zm367 0 2.5 1.5-1.5-.5q-2.4-.1-1-1Zm-354 12 1.5.5 1 2-.5.5-2.5-2.5zm9 12 2.5 2.5-.5.5-2.5-1.5zm39 39 3.5 3.5-.5.5-3-3-1.5.5zm177 160q2.5 1 1 2l-1.5-.5zm-375 13q1.5 1-1 2l-1.5-.5zm348 15 2.5 1.5-2.5.5zm8 7 2.5 1.5-1.5.5q-2.5-1-1-2Zm7 6 2.5 1.5-1.5.5q-2.5-1-1-2Z" opacity=".004"/><path fill="#79a371" stroke="#79a371" d="M238.5 17h6l1.5 1.5-6.5 7.5q-13.9 8.6-24.5 20.5l-10 14-8 20-1 10-1 1v10l-1 1v27l-2.5 3.5-2.5-1.5-4-10-1-13-1-1q2-1 0-2v-17l1-1v-8l1-1v-4l1-1v-3l3-9 3-7 7-11 8.5-9.5 12-9 12-6 6-1zm-160 159h3l3.5 1.5-1.5 3.5-21 13q-10.3 7.2-18.5 16.5l-8 11-7 16v3l-2 5v5l-1 1v15l-1 3 1 1v9q-2.2 1.3-1 6l-1.5 2.5-3.5-1.5-4-7-2-6v-3l-1-1v-3l-1-1v-6l-1-1v-18l1-1v-6q1.8-.7 1-4l6-15 6-9L35.5 195l8-6 11-6h2l8-4h3l5-2h5zm415 4h20l4.5 2.5q.5 4-2.5 4.5l-8 3h-4l-9 3h-4l-1 1-7 1-4 2h-3l-4 2h-3l-15 5-3 2-15 5-7 4h-2l-41 21h-3l-.5-2.5 8.5-9.5 21-15 28-14 33-11h4l1-1h4l6-2h5zm-278 232 4.5.5-4 9-4 5-9 17-2 2-10 23-1 6-4 11-1 8-1 1-1 12-1 1v6l-1 1v6l-2.5 7.5q-4 .5-4.5-2.5l-1-6-1-1v-7l-1-1v-18l1-1v-7l1-1 1-10 6-18 11-20q6.7-9.8 15.5-17.5z"/><path fill="#7dd74a" stroke="#7dd74a" d="m293.5 327 .5.5-2.5 2.5-.5-.5zm-7 8 .5.5-13.5 13.5-1.5-.5zm-18 17 .5.5-4.5 4.5-.5-.5zm341 3 1.5 2.5q-1 1.5-2-1zm-351 6q1.5 1-1 2l-1.5-.5zm352 0 1.5 4.5q-1 1.5-2-1zm1 9 .5 14.5-1 2 1 3-1 1v5l-1 1v3l-2 6-5 10-8.5 10.5-14 10-16 6-9 1-1 1h-30l-1-1h-6l-3-2-2 1q-1-2-5-1l-1.5-1.5 2.5-.5 1 1 11 1v-1l-2.5-.5 90.5-50.5 1 2 .5-5.5 1-1zm-136 58 7.5 3.5-.5 1.5-7.5-3.5zm9 4 16.5 5.5-.5 1.5-13-4-3.5-2.5zm18 6 2.5.5-.5 1.5q-3.8-.7-2-2Zm-60 27 .5 2.5h-1zm0 12 .5 13.5h-1zm0 17 .5 4.5-1 1v6l-1 1v4l-1 1-2 11-4 9v2l-3 5v2l-12 19-11.5 11.5-10 7-16 7-9 1-1 1h-22l-1-1h-5l-1-1-7-1-9-3-3-2h-2l-6.5-3.5 1.5-.5 10 5 6 2h3l1 1h3l1 1h3v-2l9-6 13-11 72-55 1 4 .5-4.5 1-1v-5l1-1v-7zm-4.5 20-1 4h1zm-1 4-1 3h1zm-91 66v1h4zm7 1v1h2zm4 0v1h3zm-50.5-15 7.5 4.5-1.5-.5-5-2q-2.5-1-1-2Z" opacity=".957"/><path fill="#64ab48" stroke="#64ab48" d="m458.5 67 .5 4.5h-1zm0 20 .5 4.5h-1zm-1 11 .5 2.5h-1zm37 77 2.5.5-2.5.5zm24 0 2.5.5-2.5.5zm-98 5 .5.5-3.5 3.5-.5-.5zm-7 8 .5.5-6.5 6.5-.5-.5zm-188 9 2.5 2.5-.5.5-2.5-2.5zm13 12 3.5 3.5-.5.5-3.5-3.5zm13 12 5.5 5.5-.5.5-5.5-5.5zm-3 6 2.5 2.5-.5.5-2.5-2.5zm111 16 .5.5-5.5 5.5-.5-.5zm-91 3 8.5 8.5-.5.5-8.5-8.5zm9 1 5.5 5.5-.5.5-5.5-5.5zm340 1 .5 10.5h-1zm-269 7 .5.5-3.5 3.5-.5-.5zm-60 4 2.5 2.5-.5.5-2.5-2.5zm53 4 .5.5-2.5 2.5-.5-.5zm-47 3 2.5 2.5-.5.5-2.5-2.5zm-2 5 7.5 7.5-.5.5-7.5-7.5zm-1 59 .5.5-4.5 4.5-.5-.5zm-19 19 .5.5-4.5 4.5-.5-.5zm-266 22 .5 9.5H6zm606 1 .5 9.5h-1zm-407 38 .5.5-2.5 2.5-.5-.5zm-184 10 5.5 5.5-.5.5-5.5-5.5zm83 20 2.5.5-2.5.5zm-41 1 2.5.5-2.5.5zm34 0 2.5.5-2.5.5zm-26 1 8.5.5-8.5.5zm11 0 8.5.5-8.5.5zm451 2 12.5.5-12.5.5zm-92 11 .5 2.5h-1zm2 20 .5 13.5h-1zm-1 24 .5 2.5h-1zm182 22 .5 5.5h-1zm-1 12 .5 2.5h-1z" opacity=".369"/><path fill="#365b2c" stroke="#365b2c" d="m345.5 260 .5.5-6.5 6.5-.5-.5zm-80 96 .5.5-2.5 2.5-.5-.5zm-9 8 .5.5-2.5 2.5-.5-.5zm-12 10 .5.5-2.5 2.5-.5-.5zm-7 6 .5.5-2.5 2.5-.5-.5zm-8 5 1 1 1.5-.5-4.5 4.5-.5-.5 1-1-.5-1.5q1.3 2.3 2.5-.5zm213 69 2.5 2.5-.5.5-2.5-2.5zm8 7 3.5 3.5-.5.5-1-1-1.5.5 1-1-2-2zm-284 2q2.8 1.3.5 2.5l1 4q-2 1 0 2l-.5 12.5-2.5-3.5 1-1-1-3 1-2q-2-1-1-5l1-3q-2-1 0-2zm300 12q2.5 1 1 2l-1-1-1.5.5zm-21 17 .5 2.5h-1zm46 5 1 1 1.5-.5-1.5 1.5q-2.5-1-1-2Zm3 2 2 2q1.3-2.3 2.5.5l-1.5-.5-1 1-2.5-2.5zm132 25 .5 5.5h-1zm-1 9 .5 2.5h-1z" opacity=".075"/><path fill="#4a8f36" stroke="#4a8f36" d="m382.5 3 6.5.5-6.5.5zm14 0 5.5.5-5.5.5zm-142 1 15.5.5-15.5.5zm121 0 2.5.5-2.5.5zm-129 1 2.5.5-2.5.5zm28 0 3.5.5-3.5.5zm161 12 6.5 6.5-.5.5-6.5-6.5zm-229 7 .5.5-7.5 7.5-.5-.5zm-30 61 .5 2.5h-1zm0 24 .5 3.5h-1zm1 8 .5 2.5h-1zm-69 47 19.5.5-19.5.5zm-10 1 3.5.5-3.5.5zm37 0 3.5.5-3.5.5zm-44 1 2.5.5-2.5.5zm51 0 2.5.5-2.5.5zm55 1 2.5 2.5-.5.5-2.5-2.5zm4 5 2.5 2.5-.5.5-2.5-2.5zm296 3 20.5.5-20.5.5zm29 1 3.5.5-3.5.5zm8 1 2.5.5-2.5.5zm-326 3 16.5 16.5-.5.5-16.5-16.5zm379 17 2.5 2.5-.5.5-2.5-2.5zm4 3 11.5 11.5-.5.5-11.5-11.5zm-358 4 4.5 4.5-.5.5-4.5-4.5zm1 11 2.5 2.5-.5.5-2.5-2.5zm13 2 3.5 3.5-.5.5-3.5-3.5zm-6 4 3.5 3.5-.5.5-3.5-3.5zm10 9 5.5 5.5-.5.5-5.5-5.5zm126 0 .5.5-2.5 2.5-.5-.5zm-8 7 .5.5-2.5 2.5-.5-.5zm-364 4 .5 2.5H5zm351 8 .5.5-10.5 10.5-.5-.5zm-351 7 .5 3.5H5zm284 77 .5.5-19.5 19.5-.5-.5zm-282 29 .5 2.5H7zm234 15 .5.5-2.5 2.5-.5-.5zm-7 6 .5.5-2.5 2.5-.5-.5zm-227 3 .5 2.5H7zm219 4 .5.5-2.5 2.5-.5-.5zm-12 11 .5.5-8.5 8.5-.5-.5zm245 21 4.5 4.5-.5.5-4.5-4.5zm9 8 3.5 3.5-.5.5-3.5-3.5zm8 7 2.5 2.5-.5.5-2.5-2.5zm6 5 2.5 2.5-.5.5-2.5-2.5zm10 8 2.5 2.5-.5.5-2.5-2.5zm-46 7 3.5 3.5-.5.5-3.5-3.5zm8 7 3.5 3.5-.5.5-3.5-3.5zm7 6 2.5 2.5-.5.5-2.5-2.5zm6 5 3.5 3.5-.5.5-3.5-3.5zm-299 4 .5 2.5h-1zm-1 5 .5 2.5h-1zm312 1 2.5 2.5-.5.5-2.5-2.5zm5 4 2.5 2.5-.5.5-2.5-2.5zm5 4 2.5 2.5-.5.5-2.5-2.5zm-124 94 4.5.5-4.5.5z" opacity=".522"/><path fill="#76a36f" stroke="#76a36f" d="m175.5 91 .5 3.5h-1zm0 12 .5 3.5h-1zm210 114 .5.5-2.5 2.5-.5-.5zm-19 19 .5.5-2.5 2.5-.5-.5zm-198 228 .5 1.5-.5 1.5 1.5.5-1.5 2.5-1.5-3.5zm0 10 .5 2.5h-1z" opacity=".137"/><path stroke="#000" d="M.5 0 255 .5 237.5 4l-9 4h-2l-12 6-9 6L192 33.5l-7 10-5 10-4 12-1 8-1 1v4l-1 1v6l-1 1v24l1 1 1 13 1 1v4l1 1v4l1 1 2 11 3 8 3.5 3.5 5 3q1.3-2.3 2.5.5h-2l1.5 2.5q1.3-2.2 2.5.5l-1 2 1.5-.5 2.5 2.5h-2l1.5 2.5 1-1 4.5 4.5-3-1 2.5 3.5 1-1 30.5 30.5q-2.2 1.3.5 2.5l1.5-.5-.5-1.5 11.5 11.5-1 1 2.5 2.5 1.5-.5-2-2 .5-.5 34.5 34.5-.5.5-2-2-.5.5 2.5 3.5 1-1 7.5 7.5-1 2 1.5-.5 4.5 4.5-1.5 1.5q-1-2-2 0L256 233.5q2.2-1.2-.5-2.5l-1.5.5.5 1.5-18-17-19.5-15.5.5-1.5-2 1-6-5-21-13-14-7h-2l-14-6h-3l-9-3h-4l-1-1h-7l-1-1-29.5-.5 29-1-18.5-.5-3-2-8-1-1 1h-9l-1 1-10 1-1 1-15 3-14 6h-2l-19 11L18 195.5l-6 8-6 12-3 9v4l-2 5-.5 5.5zM136 163v1h5zm7 1v1h4zm5 1v1h3zm5 1v1h2zm3 1v1h2zm12 4v1h2zm43 13-1 2 10 8zm78 77-1 2h2q1-1-1-2Z" opacity=".008"/><path stroke="#000" d="M264.5 0 640 .5l-.5 624.5L0 624.5.5 259 2 270.5l1 1 2 11 5 15 5 9 3.5 3.5 1.5.5.5 1.5 1-2 .5 1.5-5.5 12.5-1-2-.5 2.5 1 2-4 10v3l-1 1v3l-3 9-1 13-1 1v19l1 1 1 10 4 10-1 2h2l-1 2h2l-1 2 1.5-.5 1.5 1.5-1 2 1.5-.5 2.5 2.5h-2l1.5 2.5 1-1 9 9 13 8 15 5 10 1 1 1h28l1-1h6l1-1 10-1 12-4h3l9-3 3-2 5-1 3-2h2l14-7h2l36-19 30-20 1.5.5 2.5-3.5 7-5 .5.5-4.5 4.5-7 6-1.5-.5-6.5 7.5-.5-.5 4-4-.5-.5-21.5 13.5.5 1.5-2-1 .5 1.5-15 15-14 20-8 18-2 6v3l-1 1 1 3q-2 1-1 5 2 1 0 2l1 2q-2 1 0 2l-1.5 1.5h-7l-1-1h-6l-1-1h-9l-1-1h-32l-1 1h-10l-1 1h-6l-1 1-9 1-4 2-6 1-12 6-7.5 7.5-2 4-1 7 3 9 7.5 7.5 7 4 12 4h3l1 1h4l6 2h6l1 1h10l1 1h10q1 2 5 1l5 2 7.5 7.5q5.6 12.4 15.5 20.5l14 9 14 6 12 4h3l4 2h3l5 2h4l1 1h4l1 1h4l1 1h5l1 1q4.7-1.3 6 1h7l1 1h8l1 1h10l1 1h17l1 1h34l1-1h17l1-1h10l1-1h8l1-1 13-1 6-2 10-1 1-1 15-3 7-3h3l25-11q11-6.5 18.5-16.5 3.5-7.5 9.5-12.5l6-3h10l1 1 11 2 4 2h3l4 2 7 1 4 2 7 1 4 2 11 2 4 2h3l1 1 15 3 4 2h3l1 1h3l1 1h3l1 1h3l9 3h7q.8 1.8 4 1l1-1 7-1 3-2 3 2h2l5.5-10.5v-2l2-3 5-15 1-10 1-1v-13q-1.7-.7-1-4l-1.5-1.5-9-1-6-2h-4l-1-1h-3l-4-2h-3l-12-4-3-2-12-4-22-11-33-21q-26.7-19.2-50.5-41.5l1.5.5 19 10h2l3 2 15 5 7 1 1 1 10 1 1 1h7l1 1h24l1-1h6l1-1h4l4-2h3l13-6q10.1-5.9 17-15 1.3 2.3 2.5-.5l-.5-1.5-1.5.5 1.5-1.5q1.2 2.3 2.5-.5l-.5-1.5-1.5.5 1.5-1.5 1.5.5-1-2 1.5.5 1.5-1.5 1-4-1-2 3-7 1-10 1-1v-22l-1-1v-6l-1-1-1-10-1-1v-3l-2-4v-3l-2-6 1-3h-1l-.5 1.5-6.5-17.5 1.5-1.5q1.3 2.3 2.5-.5l-.5-1.5-1.5.5 1.5-1.5 1.5.5-1-2 1.5.5 1.5-1.5 1-3h-2l8.5-17.5 1 2 .5-2.5-1-2 1.5-3.5 1 2 .5-2.5-1-3 1-1 1-10 1-1v-18l-1-1v-4l-1-1v-3l-2-6-5-9h2l-1.5-2.5-1.5.5 1-2-1.5.5-2.5-2.5h2l-1.5-2.5-1 1-4.5-4.5 3 1-2.5-3.5-1 1-3.5-3.5.5-1.5-2 1-5-5-9-6-14-7-15-5-7-1-1-1-17.5-2.5 6.5-.5q1.2 2.2 6 1v-1l-3.5-.5-.5-1.5-3-2-6-1-1-1h-4l-1-1h-21l-1 1h-7l-1 1-11 1-1 1h-3l-1 1-15 3-18 6-10 5h-2l-18 9-2 2-.5-.5 4-4-.5-1.5-3 3-.5-.5 9.5-9.5 1 1 2.5-2.5-.5-1.5-2 2-.5-.5 4.5-4.5 1.5.5.5-1.5 1.5-.5-.5-1.5-1.5.5 2.5-2.5q1.3 2.3 2.5-.5l-.5-1.5-1.5.5 2.5-2.5q1.3 2.3 2.5-.5l-.5-1.5-1.5.5 2.5-2.5q1.3 2.3 2.5-.5l-.5-1.5-1.5.5 1.5-1.5q1.3 2.3 2.5-.5l-.5-1.5-1.5.5 1.5-1.5 1.5.5-1-2 2.5-3.5q1.3 2.2 2.5-.5l1-3h-2l2.5-3.5 1.5.5-1-2h2l-1-3 3.5-6.5 1 2 .5-2.5-1-2 5-13v-3l2-5v-4l1-1v-4l1-1v-6l1-1v-15l1-3-1-1v-13l-1-1v-6l-1-1v-3l-1-1v-3l-2-6-3-6h2l-1.5-2.5-1.5.5 1-2h-2l1-2-1.5.5-1.5-1.5h2l-1.5-2.5q-1.2 2.3-2.5-.5l1-2-1.5.5-5.5-5.5.5-.5 3 3 .5-.5-4.5-5.5-1.5.5.5 1.5-11-9-9-4-6-1-1-1h-4l-1-1h-13l-1-1-1 1h-11l-1 1h-5l-1 1-9 1-4 2h-3l-12 4-17 8-6 1-15-8-5-1-9-4-7-1-1-1-10-1-1-1h-23l-1 1-9 1V5l9-1 1-1 22.5-.5-8.5-1.5zM381 1v1h9zm16 0v1h8zm-23 1v1h4zm33 0v1h3zM275 3v1h4zm94 0v1h3zm43 0v1h2zM282 4v1h2zm83 0v1h2zm-79 1v1h3zm75 0v1h2zm-71 1v1h2zm68 0v1h2zm-4 1v1h2zm-3 1v1h2zm-3 1v1h2zm108 34-1 3h1zm1 3-1 3h1zm1 3-1 4h1zm1 4-1 4h1zm1 5-1 5h1zm1 6-1 12h1zm0 19-1 13h1zm-1 14-1 6h1zm-1 7-1 5h1zm-1 5-1 5h1zm-1 5-1 4h1zm-1 4-1 4h1zm-1 4-1 3h1zm-1 3-1 3h1zm-1 3-1 3h1zm-1 3-1 3h1zm89 45v1h3zm4 1v1h3zm5 1v1h2zm3 1v1h2zm63 50-1 3h1zm1 3-1 3h1zm1 3-1 4h1zm1 4-1 5h1zm1 6-1 18h1zm-1 19-1 5h1zm-1 6-1 3h1zm-1 4-1 3h1zm-16 39-1 3h1zm2 5-1 3h1zm1 3-1 3h1zm1 3-1 3h1zm2 6-1 3h1zm1 3-1 3h1zm1 3-1 4h1zm-598 1-1 3h1zm-1 3-1 4h1zm600 0-1 3h1zM9 344l-1 4h1zm602 0-1 3h1zM8 348l-1 4h1zm604 0-1 4h1zm1 4-1 6h1zM7 353l-1 5h1zm607 5-1 7h1zM6 359l-1 6h1zm609 7-1 22h1zM5 367l-1 18h1zm1 19-1 6h1zm608 2-1 6h1zM7 393l-1 3h1zm606 1-1 5h1zM8 397l-1 3h1zm604 2-1 3h1zM9 400l-1 3h1zm602 2-1 3h1zm-12 21-3 3h1l2-1zm-130 5-1 1 4 3 2-1zm-320 1v1h2zm-8 3v1h2zm-8 3v1h2zm-3 1v1h2zm356 0v1h2zm-360 1v1h2zm363 0v1h2zm-366 1v1h2zm369 0v1h2zm-445 1v1h2zm72 0v1h3zm376 0v1h2zm-445 1v1h2zm65 0v1h3zm383 0v1h2zm76 0v1h2zm-521 1v1h3zm57 0v1h4zm392 0v1h2zm-445 1v1h3zm48 0v1h4zm400 0v1h3zm-443 1v1h4zm35 0v1h6zm413 0v1h3zm55 0v1h2zm-497 1v1h28zm446 0v1h5zm46 0v1h4zm-40 1v1h6zm33 0v1h6zm-25 1v1h24zm38 48v1h2zm15 6v1h2zm3 1v1h2zm3 1v1h2zm3 1v1h2zm3 1v1h2zm4 1v1h2zm4 1v1h2zm4 1v1h3zm4 1v1h3zm5 1v1h4zm6 1v1h3zm6 3-1 4h1zm1 5-1 12h1zm-1 15-1 3h1zM236.5 6l2.5.5-8.5 2.5-6 3v-1zm-14 6q1.5 1-1 2l-4 2q-1.5-1 1-2zm-10 6 .5.5-2.5 2.5-.5-.5zm-4 3 .5.5L196.5 34l-.5-.5z" opacity=".008"/><path stroke="#000" d="m177.5 72 .5 2.5h-1zm-1 4 .5 3.5h-1zm-1 6 .5 6.5h-1zm-1 9 .5 14.5h-1zm1 17 .5 7.5h-1zm1 9 .5 4.5h-1zm1 6 .5 3.5h-1zm1 5 .5 2.5h-1zm1 4 .5 2.5h-1zm9 23 2.5 3.5q-1 1.5-2-1zm-92 9 5.5.5-5.5.5zm-6 1 3.5.5-3.5.5zm-6 1 3.5.5-3.5.5zm-4 1 2.5.5-2.5.5zm-4 1 2.5.5-2.5.5zm408 7 3.5.5-3.5.5zm-7 1 2.5.5-2.5.5zm-6 1 2.5.5-2.5.5zm-5 1 2.5.5-2.5.5zm-8 2 2.5.5-2.5.5zm-9 3 1.5.5-3.5 1.5v-1zm-5 2 1.5.5-3.5 1.5v-1zm-38 12 .5.5-17.5 17.5-.5-.5zm-402 42 .5 4.5H4zm359 1 .5.5-4 4-14.5 15.5-.5-.5 10-10zm-359 16 .5 6.5H4zm1 9 .5 2.5H5zm1 5 .5 2.5H6zm290 0 3.5 3.5-.5.5-3.5-3.5z" opacity=".008"/><path stroke="#000" d="m294.5 272 6 6 .5-.5-1-2q1-1.5 2 1l-1.5 2.5-6.5-6.5zm-42 95 .5.5-2.5 2.5-.5-.5zm-4 3 .5.5-3.5 3.5-.5-.5zm-27 23 .5.5-19.5 19.5-.5-.5zm-23 24 .5.5-2.5 2.5-.5-.5zm244 38 31 27 25 20 29.5 21.5-.5.5-2-2-2-1q-1 2-2 0h-7l-1-1h-7l-1-1h-7l-1-1h-8l-1-1h-8l-1-1h-8l-1-1h-6l-1-1h-5l-1-1h-5l-1-1-9-1-1 2-.5-2.5 1-1 1-13 1-1v-27l-1-1q1.3-6.8-1-10l1-1zm1.5 2q-2 2 0 3l1 7v-6l2-1zm2 11-1 27h1z" opacity=".008"/><path fill="#528040" stroke="#528040" d="m379.5 3 2.5.5-2.5.5zm24 0 2.5.5-2.5.5zm-133 1 3.5.5-3.5.5zm162 10q1 2 2 0l1.5 1.5-1.5-.5-1 1q-2.5-1-1-2Zm-223 7 .5.5-2.5 2.5-.5-.5zm-11 11 .5.5-2.5 2.5-.5-.5zm-23 64 .5 4.5h-1zm17 66 2.5 1.5q-1.5 3-3 0zm-87 2 2.5.5-2.5.5zm23 0 4.5.5-4.5.5zm71 6 1.5 1.5-1 1 2 2-.5.5-2.5-2.5 1-1zm4 5 3.5 3.5-1 1 4 4-.5.5-5.5-5.5 1-1-2-2zm19 21 5 5 1.5-.5-1 1 .5 1.5-6.5-6.5zm-6 4 1 1 1.5-.5-1.5 1.5q-2.5-1-1-2Zm14 2 4.5 4.5-.5.5-4.5-4.5zm-9 2 1 1 1.5-.5-1.5 1.5q-2.5-1-1-2Zm375 0 2.5 2.5-.5.5-2.5-2.5zm-371 3q1 2 2 0l1.5 1.5-1.5-.5-1 1q-2.5-1-1-2Zm11 2 6 6 1-1 3.5 3.5-.5.5-3-3-1 1-6.5-6.5zm-5 3q1 2 2 0l1.5 1.5-1.5-.5-1 1q-2.5-1-1-2Zm5 4q1.5 3.5 3 1l2.5 2.5-.5.5-2-2-1 1-2.5-2.5zm12 9 4.5 4.5-.5.5-4.5-4.5zm6 1 4.5 4.5-.5.5-4.5-4.5zm6 4 3.5 3.5-.5.5-3.5-3.5zm-5 3 6.5 6.5-.5.5-6.5-6.5zm10 2 7.5 7.5-.5.5-7.5-7.5zm-1 5 5.5 5.5-.5.5-5.5-5.5zm8 4 3.5 3.5-.5.5-3.5-3.5zm89 0 .5.5-4.5 4.5-.5-.5zm-82 7 2.5 2.5-.5.5-2.5-2.5zm2 6 4.5 4.5-.5.5-4.5-4.5zm17 16 .5 1.5-1.5.5q-1.5-1 1-2Zm-283 50 1.5 2.5h-1zm-3 9 1.5 2.5h-1zm-6 50 .5 2.5H6zm216 11 .5.5-7.5 7.5-.5-.5zm242 33 3.5 3.5-.5.5-3.5-3.5zm8 7q1.5 3.5 3 1l2.5 2.5-1.5-.5-1 1-3.5-3.5zm7 6 2 2q1.2-2.2 2.5.5l-1.5-.5-1 1-2.5-2.5zm6 5q1 2 2 0l1.5 1.5-1.5 1.5-2.5-2.5zm5 4q1 2 2 0l1.5 1.5-1.5-.5-1 1q-2.5-1-1-2Zm5 4 1 1 1.5-.5-1.5 1.5q-2.5-1-1-2Zm4 3 1 1 1.5-.5-1.5 1.5q-2.5-1-1-2Zm4 3 1 1 1.5-.5-1.5 1.5q-2.5-1-1-2Zm-337 3 1.5 2.5q-1 1.5-2-1zm282 0 2.5 2.5-.5.5-2.5-2.5zm59 0 1 1 1.5-.5-1.5 1.5q-2.5-1-1-2Zm-51 7 1 1 1.5-.5-1.5 1.5q-2.5-1-1-2Zm61 0 1 1 1.5-.5-1.5 1.5q-2.5-1-1-2Zm-350 2 1.5.5q-.7 3.2 1 4-1 1.5-2-1zm353 0 1 1 1.5-.5-1.5 1.5q-2.5-1-1-2Zm-51 9 1 1 1.5-.5-1.5 1.5q-2.5-1-1-2Zm11 9q1 2 2 0l1.5 1.5-1.5-.5-1 1q-2.5-1-1-2Zm5 4q1 2 2 0l1.5 1.5-1.5-.5-1 1q-2.5-1-1-2Z" opacity=".114"/><path fill="#70b64e" stroke="#70b64e" d="m262.5 2 3.5.5-3.5.5zm144 0 3.5.5-3.5.5zm-131 1 3.5.5-3.5.5zm39 12 4.5 2.5-1.5.5-3.5-2.5zm16 1 1.5.5-2.5 1.5q-1.5-1 1-2Zm-124 6 .5.5-2.5 2.5-.5-.5zm238 2 1.5 2.5-1.5.5zm9 15 1.5 2.5q-1 1.5-2-1zm2 5 .5 1.5q-1 2.5-2 1zm1 3 .5 1.5q-1 2.5-2 1zm4 24 .5 2.5h-1zm0 13 .5 4.5h-1zm-1 13 .5 3.5h-1zm-3 11 1.5 2.5h-1zm-1 5q2 .5 1.5 3.5h-1zm-2 13 .5 1.5-1.5 3.5-.5-2.5zm-4 7 1.5 2.5h-1zm-1 7-.5 1.5-.5 1.5-.5-1.5zm-2 4-.5 1.5-1.5 3.5-.5-1.5zm-3 6-.5 1.5-1.5 2.5.5-1.5zm-253 9 1.5.5-1 1 .5 1.5q-2.4-.9-1-3Zm-81 3 3.5.5-3.5.5zm6 0 11.5.5-11.5.5zm319 0q3.3 1.8-.5 3.5l-1.5 2.5v-3l2.5-1.5zm-298 1 2.5.5-2.5.5zm6 1 3.5.5-3.5.5zm289 5 .5.5-3 3-2.5 3.5v-3l1.5.5zm-221 15 2.5 2.5-.5.5-2.5-2.5zm361 2 5.5 2.5-1.5.5-4-2zm-159 5 .5.5-3.5 3.5-.5-.5zm-5 4 .5.5-3 3 1 1-2.5 2.5.5-1.5-1-1zm-178 8 3.5 3.5-.5.5-3.5-3.5zm369 1 2.5 2.5-.5.5-2.5-2.5zm-203 3 .5.5-9.5 9.5-.5-.5zm212 8 2.5 3.5q-1 1.5-2-1zm6 10 1.5 3.5h-1q-1.7-1.5-.5-3.5Zm-354 6 12.5 12.5-.5.5-12.5-12.5zm356 0 1.5 2.5h-1zm-355 5 3.5 3.5-.5.5-3.5-3.5zm358 7-.5 1.5-.5 1.5-.5-1.5zm-348 3 10.5 10.5-.5.5-10.5-10.5zm84 3 .5.5-2.5 2.5-.5-.5zm265 1 .5 6.5h-1zm-335 7 2.5 2.5-.5.5-2.5-2.5zm335 1 .5 2.5h-1zm-333 4 4 4 1.5-.5-1.5 1.5-2-2-1.5.5 1-1-2-2zm4 6 2 2 1.5-.5-1.5 1.5-2.5-2.5zm327 2 .5 2.5h-1zm-318 4 1.5.5-2 1 2 1-1.5.5q-3-1.5 0-3Zm311 14 1.5 2.5-1.5 2.5-.5-1.5 1-2zm-1 6-.5 1.5-4.5 8.5.5-1.5zm-7 12 .5 1.5q-1 2.5-2 1zm-584 9 .5 1.5-1.5 2.5-.5-1.5zm585 7 1.5 3.5h-1q-1.7-1.5-.5-3.5Zm3 8 1.5 5.5q-1 2.5-2 1l1-3q-1.9-.9-.5-3.5Zm5 21-.5 1.5-.5 1.5-.5-1.5zm3 18 .5 2.5h-1zm-610 5 .5 3.5H4zm610 9 .5 2.5h-1zm-608 2-.5 1.5-.5 3.5-.5-3.5zm219 3 1.5.5-2.5 1.5q-1.5-1 1-2Zm-3 2 .5 1.5-1.5 1.5-1-1-1.5.5 1.5-1.5 1.5.5zm-216 3 .5 2.5H6zm209 0 1 1 1.5-.5-1.5 1.5q-2.5-1-1-2Zm-205 9-.5 1.5-.5 1.5-.5-1.5zm185 3 1 1 1.5-.5-1.5 1.5q-2.5-1-1-2Zm407 13q1.5 1-1 2l-1.5-.5zm-2 3 .5.5-4.5 4.5-.5-.5zm-450 6 2 1 2-1v1l-3 1q-2.5-1-1-2Zm317 0 2.5 1.5-1.5.5q-2.5-1-1-2Zm126 1 .5.5-2.5 2.5-.5-.5zm-448 1 2.5 1.5-1.5.5q-2.5-1-1-2Zm330 2 2 1 1.5-.5-2.5 1.5q-2.5-1-1-2Zm-344 3 2.5 1.5-1.5.5q-2.5-1-1-2Zm-3 1 2.5 1.5-1.5.5q-2.5-1-1-2Zm-82 2q1.5 1-1 2l-1.5-.5zm67 2 3.5 1.5-2.5.5q-2.5-1-1-2Zm-5 1 2.5 1.5-1.5.5q-2.5-1-1-2Zm396 0q1.5 1-1 2l-1.5-.5zm9 2 1.5.5-2.5 1.5q-1.5-1 1-2Zm-416 1 3.5.5-3.5.5zm460 0 2.5 1.5-1.5-.5q-2.4-.1-1-1Zm-485 1 4.5.5-4.5.5zm11 0 6.5.5-6.5.5zm8 0 2.5.5-2.5.5zm354 29 .5 2.5h-1zm82 0 3.5 2.5-1.5-.5q-3.8-.7-2-2Zm17 10 5.5 3.5-1.5-.5q-4-.5-4-3Zm-99 4 .5 2.5h-1zm114 4 5.5 2.5-1.5.5-4-2zm10 4 2.5 1.5-1.5.5q-2.5-1-1-2Zm17 7 1.5.5-2.5 1.5q-1.5-1 1-2Zm18 5 2.5.5-2.5.5zm22 13 .5 2.5h-1z" opacity=".016"/><path fill="#a4a79e" stroke="#a4a79e" d="m438.5 18 2.5 2.5-.5.5-2.5-2.5zm-236 7 1.5.5-2.5 1.5q-1.5-1 1-2Zm-4 4 1.5.5-2.5 2.5-.5-.5zm-25 61 .5 2.5h-1zm0 14 .5 2.5h-1zm-67 58 2.5.5-2.5.5zm108 26 4.5 4.5-.5.5-4.5-4.5zm167 33 .5.5-3.5 3.5-.5-.5zm-166 177 .5.5-2.5 2.5-.5-.5zm-47 61 1.5.5q-2 1 0 2l1 4q-1 2.5-2 1l-1-4q2-1 0-2z" opacity=".027"/><path fill="#66c142" stroke="#66c142" d="m458.5 92 .5 2.5h-1zm-42 93 .5.5-2.5 2.5-.5-.5zm-14 15 .5.5-3.5 3.5-.5-.5zm-145 27 2.5 2.5-.5.5-2.5-2.5zm106 12 .5.5-3.5 3.5-.5-.5zm-101 1 5.5 5.5-.5.5-5.5-5.5zm11 3 3.5 3.5-.5.5-3.5-3.5zm78 9 .5.5-2.5 2.5-.5-.5zm-74 3 8.5 8.5-.5.5-8.5-8.5zm8 1 2.5 2.5-.5.5-2.5-2.5zm332 3 .5 2.5h-1zm-356 100 .5.5-2.5 2.5-.5-.5zm351 9 .5 3.5h-1zm0 14 .5 3.5h-1zm-521 60 2.5.5-2.5.5zm439 2 2.5.5-2.5.5zm16 0 3.5.5-3.5.5zm-104 16 .5 2.5h-1zm1 10 .5 4.5h-1zm0 19 .5 4.5h-1zm179 23 1.5 2.5h-1z" opacity=".192"/><path fill="#64b13e" stroke="#64b13e" d="M240.5 15h8l1.5 1.5v2l-6.5 6.5-16 11L213 50.5l-11 19v2l-2 3-2 11-1 1v7l-1 1v40l-1 3-2.5 2.5-3.5-1.5-4-10-1-8-1-1v-7l-1-1v-25l1-1v-6l1-1 1-8 5.5-13.5.5 1.5-2 3-3 9v3l-1 1v4l-1 1v8l-1 1v17l1 3 1 13 2 6 3.5 5.5 2.5-1.5 1-2v-27l1-1v-10l1-1 1-10 3-9 2-3v-2l6-11q6.7-9.8 15.5-17.5l16-12 6.5-6.5-1.5-2.5h-6q-.7 1.8-4 1l-15 7L204 37.5q-7.5 8-12.5 18.5l-.5-1.5 7-11L208.5 32l16-11zm194 2 7.5 7.5-.5.5-7.5-7.5zm8 9 2.5 2.5-.5.5-2.5-2.5zm3 4 3.5 5.5q-1 1.5-2-1l-2-4zm4 7 2.5 3.5 4 12v6l2 4v9l1 1v14l-1 1v7l-1 1 1 2-1 1v6l-1 1-1 9-1 1v3l-2 4v3l-2 6-8 18-12 19-23 27-53 53-15 17-3 5-20.5 22.5-14.5-19.5-17-20-36.5-36.5-14.5-13.5.5-.5 9 9 13 11 2-3 47-40 17-16 7.5-5.5.5-1.5.5 28.5-1 1v13l-1 1v9l-1 1-1 14-1 1-1 11-1 1v4l-1 1v4l-1 1-2 11h1l12-19 5-11 2-2v-2l7-14 6-18v-3l2-5v-4l1-1v-4l1-1v-5l1-1v-8l1-1 .5-27.5 94-81 1 3 .5-3.5-3-9-2-3zm5.5 17-1 4h1z" opacity=".996"/><path fill="#64b13e" stroke="#64b13e" d="m319.5 42 8.5 9.5 6 9 10 19v2l6 14v3l2 4 1 7q-12.4 9.1-22.5 20.5l-.5-7.5-1-1v-9l-1-1v-9l-1-1v-8l-1-1v-7l-1-1v-7l-1-1-1-13-1-1v-5l-1-1v-5l-1-1v-5q-1.9-.9-.5-3.5Zm-237 132q1.8 1.7 6 1l1.5 1.5-3.5 4.5-25 15L46 209.5l-10 14-4 9-3 9v3l-1 1v7l-1 1v38l-1.5 1.5h-3l-3.5-3.5-4-8-2-6v-3l-1-1v-4l-1-1q1.3-4.7-1-6v-20l1-1 .5-5.5.5 5.5-1 1v18l1 1v6l1 1 1 7 2 6 4.5 7.5 3 1 1.5-2.5q-1.2-4.7 1-6v-9l-1-3 1-1v-15q2.3-1.3 1-6l1-1 1-7 3-6v-2l8-14L53.5 201l9-7L84 180.5l1-3-3.5-1.5h-3l-1 1h-5l-1 1-6 1v-1l6-2h4l1-1h5zm-20 5 1.5.5-8.5 3.5v-1zm433 0h19l6.5 3.5q.8 4.8-2.5 5.5l-6 2h-3l-1 1-9 1-9 3h-4l-1 1h-3l-4 2-6 1v-1l6-1 8-3h3l1-1h4l1-1 7-1 1-1h4l8-3 2.5-2.5-.5-2.5-4-2h-18zm-7 1 4.5.5-4.5.5zm-6 1 4.5.5-8.5 1.5v-1q3.3.8 4-1Zm-430 2 1.5.5-2.5 1.5q-1.5-1 1-2Zm422 0 2.5.5-2.5.5zm-425 2q1.5 1-1 2l-2 1q-1.5-1 1-2zm417 0 2.5.5-2.5.5zm-7 2 2.5.5-5.5 1.5v-1zm-417 2 .5.5-2.5 2.5-.5-.5zm176 0 6.5 6.5-.5.5-6.5-6.5zm232 1 1.5.5-3.5 1.5v-1zm-412 2 .5.5-2.5 2.5L25 205.5l-2.5 3.5-.5-.5 2-2L35.5 194zm430 7 2.5.5-17.5 5.5v-1zm-45 3q1.5 1-1 2l-1.5-.5zm-6 3q1.5 1-1 2l-2 1q-1.5-1 1-2zm31 1 1.5.5-6.5 2.5v-1zm-8 3 1.5.5-12.5 5.5v-1zm-419 1-.5 1.5-1.5 2.5.5-1.5zm386 1q1.5 1-1 2l-6 4-.5-.5 2.5-2.5zm-389 4-.5 1.5-.5 1.5-.5-1.5zm215 0 2.5 2.5-.5.5-2.5-2.5z" opacity=".996"/><path fill="#64b13e" stroke="#64b13e" d="m426.5 215 1.5.5-29.5 14.5-2 2-10 5-7 2-.5-4.5q8.4-10.1 19.5-17.5l.5.5-2.5 2.5q-8 4.5-13.5 11.5l-1 4 3.5.5zm-410 4 .5 1.5-2 3-1.5 5.5-.5-2.5zm224 2q27.3 23.2 51.5 49.5l19 20 3 5q-3.1 3.4-4 9l-12 18-24.5 25.5-1.5.5-2.5 3.5-10 9-3.5 1.5-2.5 3.5-2.5.5-2.5 3.5-1.5-.5-2.5 3.5-2.5.5-1.5 2.5-5.5 2.5-1.5 2.5-6 4-2.5.5-.5 1.5-2.5.5-.5 1.5-6 4-4.5 1.5-.5 1.5-15 9-7 3-2 2-22 11h-2l-7 4h-2l-13 6-15 5h-3l-4 2-8 1-1 1-12 1-1 1h-14l-2 1-1-1h-13q-1.2-2.2-6-1l-1-1h-4l-12-4q-14.3-6.2-23.5-17.5l-8-13v-2h1l3 7 4.5 6.5 4-4 4-2 7-6 22-15 7-6 4-2 7-6 4-2 7-6 4-2 7-6 4-2 7-6 4-2 7-6 4-2 67.5-49.5.5-1.5h18l1 1 19 1 1 1h7l1 1h5l1 1h5l1 1h5l1 1 6 1q1.5-1-1-2l-15-9-20-10h-2l-7.5-3.5.5-1.5 43.5-31.5-21-20zm-228 9 .5 2.5h-1zm603 11 .5 3.5h-1zm1 7 .5 11.5-1 2 1 3-1 1v4l-1 1v3l-1 1v3l-3 9-6 13-8 13 2 3 1 5 2 3 3 9v3l2 4 3 15-1 2q2.5.5 2 4-1.7.7-1 4 2.8.8 2 5l-1 1v14l1 2h-1l-.5-1.5-1 6-1-2-90.5 50.5 4 2-1.5-.5q-4.7-1.2-6 1v-2h-5l-3-1-1.5.5-.5-1.5-3 1-1-2h-3l-13-5-1.5.5-.5-1.5h-2l-5-3q-1 2-2 0l-9.5-4.5-.5-1.5h-2l-6-3-20-14-25-21-13.5-13.5.5-.5 5 5 1-1 34-18 2-2 7-3 20-12 9-4 2-2 7-3 20-12 9-4 20-12 2.5-.5-3-1 4.5-.5 1 1h4l1 1h4l1 1h4l1 1h4l1 1h4l5 2 8 1 .5-.5-5.5-5.5-15.5-11.5 59.5-32.5 1.5.5zm-1.5 14-1 5h1z" opacity=".996"/><path fill="#64b13e" stroke="#64b13e" d="M142.5 263h23l1 1h9l1 1 11 1 1 1 11 2 3.5 2.5-1.5-.5-1 1h-4l-5 2h-4l-1 1h-4l-1 1h-4l-1 1h-4l-1 1h-4l-1 1h-4l-1 1h-4l-6 2h-4l-1 1h-4l-1 1-14 2-5 2h-4l-1 1h-4l-1 1h-4l-1 1h-4l-1 1h-4l-1 1h-4l-1 1h-4l-1 1h-4l-1 1h-4l-1 1h-4l-1 1h-4l-1 1h-4l-1 1h-4l-1 1-7.5 1.5 2 1-1.5.5-1-1-2 2-.5-.5L59.5 293l14-9 16-8 27-9h4l6-2h6l1-1h8zm309 0h25l1 1h8l1 1 11 1 8 3 7 1 3 2 8 2 1.5 1.5-4.5.5-1 1h-26l-1 1h-25l-1 1h-26l-1 1-51 1-11 5v-1l17-8h2l3-2 18-6h3l5-2h4l1-1h4l1-1q4.8 1.2 6-1h9zm78 36 2.5.5-2.5.5zm-119 101 13.5 15.5 11 17v2l2 3 3 9v4l1 1v6l1 1v9l1 1v8l-1 1v13l1 3-2 2-1 13-1 1v4l-2.5 7.5-.5-2.5 1-1 1-7-.5-.5-2 2-92.5 70.5.5 1.5-11-2-1.5.5.5-1.5-3 1v-2l-4-1-1.5.5.5-1.5-4-1-1.5.5.5-1.5-2 1v-2l-2 1-1-2-1.5.5.5-1.5-2 1v-2l-4-2-1.5.5-.5-1.5-1.5.5-1.5-2.5-1.5.5-.5-1.5-3 1-1.5-.5-.5 1.5-2-1-1 2-1-1-2 2q-1.5-2.5-3 1l-15 5h-3l-5 2h-4l-1 1h-4l-1 1h-7l-1 1h-22l-1-1h-6q-.7-1.7-4-1l-9-4h-2l-11-7-7.5-7.5-6-9q1-1.5 2 1 3.9 8.1 10.5 13.5l10 6L313 483.5l.5-4.5.5 4.5-1 1v6l-1 1v5l-2 6v5l-1 1v4l-1 1v4l-1 1v4l-1 1v4l-1 1-3 15 .5.5 9.5-9.5q13-16 22-36v-2l4-8 3-9v-3l2-4 3.5-19.5 1 4 66.5-51.5-4-4zm-191 9 2.5.5q.7 4.2-1 6l-15 23-9 18v2l-2 3v2l-2 3-3 9-2 11-2 4q2 1 0 2l-1 10-1 1v8l-1 1-1 21-3 5 .5 1.5-2.5-1.5-.5-1.5-1.5-.5v-2l-3-6-1-10-1-1v-28l1-1 1-11 1-1v-3l1-1v-3l3-9 8-17 3.5-4.5-.5 1.5-8 15-6 18-1 10-1 1v7l-1 1v18l1 1v7q1.8.8 1 4l1 3 2.5 2.5 2.5-.5q1.7-1.8 1-6l1-1v-6l1-1v-6l1-1 1-12 1-1 1-8 4-11 1-6 10-23 2-2 9-17 4-5 4-9-4.5-.5q-10 5.4-17 14l-.5-.5 8.5-8.5 10-7z" opacity=".996"/><path fill="#64b13e" stroke="#64b13e" d="m197.5 427 .5.5-3.5 3.5-.5-.5zm-4 5 .5.5-2.5 2.5-.5-.5zm154 13 .5 5.5h-1zm210 48 6 3h2l3.5 2.5-1.5-.5h-2l-8-4zm13 6h2l3 2 21 7h3l5 2h4l1 1h4l1 1h5l3.5 1.5q-.7 3.3 1 4v15l-1 1-1 9-4.5 11.5-.5-2.5 3-9-36-36 .5-1.5-12-4-2.5-1.5zm15.5 7v1h2zm35 32-1 3h1zm-454.5-28 .5 2.5h-1zm1 12 .5 2.5h-1zm1 6 .5 2.5h-1zm3 11 2.5 6.5h-1l-2-4zm3 8 1.5 2.5q-1 1.5-2-1zm171 37 4.5.5-4.5.5zm7 1 2.5.5-2.5.5zm4 0 3.5.5-3.5.5zm1 2 7.5.5-7.5.5z" opacity=".996"/><path fill="#8eaf88" stroke="#8eaf88" d="m254.5 2 7.5.5-7.5.5zm-81 92 .5 8.5h-1zM4.5 249l.5 3.5H4z" opacity=".157"/><path fill="#bec8b4" stroke="#bec8b4" d="m103.5 162 2.5.5-2.5.5zm-20 3q1.5 1-1 2l-1.5-.5zm411 8 23.5.5-23.5.5zm-25 3 4.5.5-4.5.5zm-23 7 1.5.5-2.5 1.5q-1.5-1 1-2Zm-411 4 .5.5-2.5 2.5-.5-.5zm-7 6 .5.5-6 6 .5 1.5-1-1-1.5.5zm349 32 .5.5-4 4 1 1-2 2 .5 1.5-1-1-4 4-.5-.5 5-5-1-1zm-375 23 .5 3.5H2zm206 156 1.5.5-2.5 2.5-.5-.5zm-38 55q2.5 1 1 2l-1-1-2 2-.5-.5zm0 3 1.5.5q-1 2.5-2 1z" opacity=".18"/><path fill="#4c9135" stroke="#4c9135" d="M389.5 3h6l1 1h9l1 1 8 1 6 3h2l7.5 4.5.5 1.5q3-.5 3.5 1.5l7.5 8.5 2.5 1.5q-2.3 1.3.5 2.5l1.5.5q-2 1 0 2l.5 1.5 1.5-.5-1 2h2l-.5 1.5 1.5.5-1 2 2 3 3 9 1 7h-1v-3l-1.5-3.5-94.5 81.5v27l-1 1v8l-1 1v5l-1 1v4l-1 1-.5 4.5-1.5.5 1 3h-2l1 4h-1l-.5-1.5-.5 2.5 1 2h-2l1 3h-1l-.5-1.5-.5 2.5 1 2h-1l-.5-1.5-.5 2.5 1 2h-1l-.5-1.5-.5 2.5 1 2h-1l-.5-1.5-.5 2.5 1 2h-1l-.5-1.5-6 7-11 10-1.5-7.5h1l.5 3.5.5-5.5q-2.2-1.3-1-6 3.5-1.5 1-3v-7l1-1v-13l1-1v-28h-1l-.5 1.5-7 5-9 9-56.5 48.5 7 8-.5.5-8-8-21-19-1 1-7.5-7.5-6.5-7.5-2.5-1.5-.5-1.5-11.5-10.5-15-21-8-19q2-1 0-2l-2-6q2-1 0-2l-1-3q2-1 0-2 .8-3.2-1-4 2-1 0-2v-30l1-1v-6l1.5-4.5 1.5-.5-1-3h2l-1-3 2-1-1-2h2l-1-3h2l-1-3h1l.5 1.5 1.5-4.5-.5-1.5 1.5.5-1-2h2l-1-2 1.5.5 1.5-1.5 5-9L209.5 26l12-8 10-5 8-2 3-2h4l1-1q4.8.8 7-1 1 2 5 1l4.5 3.5v5l-5.5 6.5-18 10L224 45.5l-.5 1.5-1.5.5-9 12-6 12-2 6v3l-1 1-1 8-1 1q2 1 1 5-2 1 0 2v6l-1 1 1 1v5l1 1 .5 5.5 1.5.5.5 5.5 112-98 3.5-1.5-18-9 2.5-.5 15 8h3l10-5h2l3-2h2l3-2 12-4h3l4-2 8-1 1-1q4.8 1.3 6-1h10zM241 15l-16 6-16 11-11 12-7 11v2l-3 5-3 9-1 8-1 1v6l-1 1v25l1 1v7l1 1 1 8 4 10 4 1 2-2 1-3V95l1-1v-7l1-1 2-11 2-3v-2l11-19 15-15 16-11 6-6v-2l-1-2zm79 27-2 2 1 3v-1h1l-1 6h2l-1 5h2v6l1 1v6l1 1v6l1 1 1 15 1 1v8l1 1v9l1 1v9l1 1 1 7q10-11 22-20l-1-7-2-4v-3l-6-14v-2l-14-25q-4-2-1-3l-2-2-3-2 1-1zM97.5 166l5.5.5-6 1 6.5.5 3.5 2.5 1 5-5.5 5.5-12 6h-3l-7 4h-2l-5 4-3 1-14 10-7.5 7.5-4 5-7 13v2l-2 3-2 11-1 1 1 2q-2 1 0 2l-1 3v9l1 1v4l1 1 .5 4.5 1.5.5.5 4.5 63-45 7-6 4-2 7-6 4-2 7-6 4-2 7-6 4-2 7-6 4-2 7-6 4-2 7-6 3.5-1.5-10-5 2.5-.5 21 10 10 6 27.5 20.5.5 1.5q4-.5 4.5 2.5l2.5 3.5q4-.5 4.5 2.5l4.5 5.5q1.3-2.2 2.5.5l-.5 1.5 21.5 20.5-.5.5-7-7-1 1-42.5 30.5.5 1.5 9 3 21.5 11.5-1.5-.5-5 2h-4l-1 1-15 1-1-1h-10l-1-1h-18l-2 3-26 18-106 78-11 7L21 416.5l7 7-.5.5q-7.7-5.8-12-15l-1.5.5 1-2h-2l1-2-1.5-2.5-1.5-.5 1-2-2-1 1-2-2-1 1-3-2-1q-.7-3.2 1-4l-2-3v-20l1-1 1-12 1-1v-4l3-8v-3l4-12 7-16-10-18-5-15v-3l-2-5v-5l-1-1v-21l1-1 1-9 4-9 1-5 8-12L34.5 191l11-8h2l3-3 6-3h3l3-2h2l2-2h3l4-2h3l9-3 11-1zM83 174l-1 1-10 1-12 4-5 3h-2l-17 11-12 12-7 11v2l-4 8-1 7-1 1v5l-1 1v20q2 1 1 6l1 1v4l1 1v3l2 6 4 8 4 3h3l1-1v-38l1-1v-7l1-1v-3l3-9 4-9 10-14 16-14 25-15 3-4-1-2q-5 1-6-1Zm60 89-1 1h-8l-1 1h-6l-6 2h-4l-1 1h-3l-18 6-21 10-18 12-6 6h1l7-1 1-1h4l1-1h4l1-1h4l1-1h4l1-1h4l1-1h4l1-1h4l1-1h4l1-1h4l1-1h4l1-1h4l1-1h4l1-1h4l5-2 14-2 1-1h4l1-1h4l1-1h4l1-1h4l1-1h4l1-1h4l1-1h4l1-1h4l1-1h4l1-1h4l5-2h4l1-1-2-2-11-2-1-1-11-1-1-1h-9l-1-1zm80 28v1h6zm271.5-115h26l1 1 7.5.5-2 1 4 3q1.3 8.3-3.5 10.5l-7 3-13 1-6 2q-1-2-2 0l-8 1-5 2q-1-2-2 0l-3 1q-1-2-2 0l-6 2q-1-2-2 0l-11 4h-4l-13 6q-1.5-2.5-3 1h-2l-7 4h-2l-20 10-26 16-10 5h-6q-2.1-1.4-1.5-5.5 4.6-8.9 12.5-14.5l1.5-.5.5-1.5q18.8-16.2 41.5-28.5l.5-1.5 2 1 1-2 1.5.5.5-1.5 2 1 18-9 15-5 7.5-1.5-2-1 1.5-.5q.8 1.8 4 1v-1l-1.5-.5 4.5-.5 1.5.5.5-1.5q4.8 1.3 6-1h9zm1.5 3-1 1-12 1-9 3h-3l-1 1h-3l-4 2h-3l-9 3-3 2h-2l-3 2h-2l-5 3h-2l-18 9-13 8-12 9-12 12 1 4 7-2 42-22 9-3 5-3 5-1 5-3h3l27-9 8-1 9-3h4l1-1h4l1-1h3l6-2q3-1 2-5l-6-4zm65.5 5q2.5 1 1 2l-1.5-.5zm5 2 20 11 17.5 16.5 7 11v2l2 3-1 1q3.5 1.5 1 3l.5 1.5 1.5.5-1 3 2 1-1 5h2q.8 3.3-1 4l-.5 10.5-2-1-58.5 32.5q11.8 7.2 21 17l-1.5-.5-1 1-1.5-.5 2-1q-1.2-2.7-2.5-.5l-4 1v-1l1.5-.5-2.5-.5-3 1-1-1h-4l-1-1h-4l-1-1h-4l-1-1-14-2v1l2.5.5-2.5.5-20 12-9 4-2 2-36 19-2 2-36 19-2 2-7 3-17.5 10.5q15.3 15.7 33 29l.5 1.5 1-1 2.5 2.5.5 1.5 1-1 2.5 2.5.5 1.5q1.5-2.5 3 1l7 4 10 10 31 26 16 12 24.5 15.5.5 1.5q1.5-2.5 3 1l3.5 1.5.5 1.5h2l4.5 2.5.5 1.5 1.5-.5.5 1.5 1.5-.5.5 1.5 1.5-.5.5 1.5 1.5-.5.5 1.5 11 5 1.5-.5.5 1.5 17.5 6.5-3 1 35 35v2l-2 6 .5 1.5-1.5-.5 1 3-2 1 .5 1.5-1.5.5 1 2-2 1q2 1 0 2v2l-4.5 7.5-43-24-38-25-6.5-5.5.5-.5 2 2 32 21 .5-.5-230-230-1.5-2.5-.5 1.5 2 3q-1 1.5-2-1l-5-11 .5-.5 3 3 14 11 7 7h3l13-8 7-3 2-2 18-9 9-6q3.8.8 4.5-1.5l-1.5-.5-1 1h-10l-1 1h-8l-1 1-13 1-6 2-.5-1.5 23.5-12.5 2 1v-2l3 1 1-1h24l1-1h26l1-1h26l1-1h25l1-1h26l1-1 4.5-.5-1.5-1.5-8-2-3-2-7-1-8-3h-5l-1-1q-4.7 1.2-6-1h-8l-2-2-3 1-15.5-.5 11-1-11.5-.5-3 1v-1l28-15 2-2 9-4 2-2 7-3 2-2 7-3 2-2 7-3 2-2 18-9 2-2 7-3 2-2 7-3 2-2 9-4 8.5-5.5-9.5-4.5q-2.5-1-1-2ZM478 262v1h2zm-75 28v1h12zm127 9v1h2z" opacity=".996"/><path fill="#4c9135" stroke="#4c9135" d="m325.5 225 .5 2.5h-1zm13 0 .5 1.5q-1 2.5-2 1zm-14 6 .5 2.5h-1zm-4 20 .5 2.5h-1zm294 11 .5 4.5h-1zm-169 1 5.5.5-5.5.5zm-7 1 2.5.5-2.5.5zm-6 1 2.5.5-2.5.5zm-5 1 2.5.5-2.5.5zm-95 8 .5.5-4.5 4.5-.5-.5zm65 1 1.5.5-3.5 1.5v-1zm-94 2-.5 1.5.5 1.5 1-1 2.5 2.5-1 1 1 1-.5 1.5 2-1q2.5 1 1 2-1-2-2 0l-6.5-5.5zm87 1 1.5.5-3.5 1.5v-1zm-68 7 .5.5-2.5 2.5-.5-.5zm-11 6q1 2 2 0l1.5 1.5q-2.5 1.5 1 3v2l-2.5 3.5.5-1.5 1-4-4-4zm-81 2 5.5.5-5.5.5zm8 1 3.5.5-3.5.5zm6 1 3.5.5-3.5.5zm6 1 2.5.5-2.5.5zm11 1q2.5 1 1 2l-2.5-.5zm66 16 3.5 4.5-.5.5-2.5-2.5zm-12 16 13.5 24.5v2l4 7 2 8 2 3 1 5-1 1q1.2 4.7-1 6l-1 14-1 1q1.3 4.8-1 6v6l-1 1v6l-1 1v6l-1 1v6l-1 1v6l-1 1q1.3 4.7-1 6v6l-1 1v6l-1 1v6l-1 1v6l-1 1q1.3 4.8-1 6v6l-1 1-1 14-1 1v6l-1 1v6l-1 1v6l-1 3h2l-1.5 1.5q-1.2-2.2-2.5.5l.5 1.5 1.5-.5-2.5 2.5-1.5-.5-1 2 1 1-3.5 3.5-3.5 2.5-.5 1.5-1.5-.5-.5 2.5-.5-2.5 2-5v-4l2-5v-4l1-1v-4l1-1v-4l1-1 .5-4.5 1.5-.5q-2-1-1-5l2-6 1-12-1.5.5L199 571.5l4 2-1.5.5-2-1-1.5.5.5-1.5-2 1v-2l-2-1-1.5.5.5-1.5-2-1-1.5.5q2.3-1.2-.5-2.5l-6.5-5.5-.5-1.5q-1.2 2.3-2.5-.5 2-1 0-2l-.5-1.5-1.5.5q2-1 0-2l-.5-1.5-1.5.5.5-1.5-1.5-.5q2-1 0-2l-.5-1.5-1.5-.5 1-2h-2l1-2-1.5-3.5-1.5.5 1-3-2-1 1-2-2-1 1-4-2-1 1-5-2-2v-7l1-3-1-1v-14l1-1v-7l1-1 1-9 7-20v-3l12.5-22.5 1.5-.5q-.5-3 1.5-3.5l1.5-.5q-.5-3 1.5-3.5l2.5-.5q-2-1 0-2l2.5-3.5 1 1 6-6 1.5-.5.5-1.5 11-8 11-4 3.5 1.5 1 2q-1.7.8-1 4l-3 5-14 18-5 10-4 5-3 9-3 4q2 1 0 2l-2 3q2 1 0 2l-2 10-2 4q2 1 0 2l1 4-1 2 1 2-1 2 1.5.5 122-94 1 3 .5-17.5-1-2q2-1 0-2v-15l-1-1v-8l-1-1v-7l-1-1v-7q-2-1-1-5l.5-1.5-1.5-.5zM220 409l-3 1-10 7-9 9-13 18-6 12v2l-2 3-3 9-1 7-1 1v4l-1 1v6l-1 1v28l1 1 1 10 3 6v2h2v2h2l2-2 1-3 1-21 1-1v-8l1-1 1-10q2-1 0-2l2-4 2-11 3-9 2-3v-2l2-3v-2l9-18 15-23q2-2 1-6zm94 70-1 5h1zm52.5-119h2l5 4 38.5 36.5 8 9-.5.5-5-5-2 2-65 50-1.5-4.5v-6h1l.5 4.5.5-5.5-1-1v-25l-1-1v-9l-2-6-1-10-4-12zm54 51 3.5 3.5-.5.5-3.5-3.5zm4 5 2.5 2.5-.5.5-2.5-2.5zm-79 39 .5 3.5h-1zm-1 6 .5 2.5h-1zm-1 5 .5 2.5h-1zm-16 44-.5 1.5-1.5 2.5.5-1.5zm191 4 2.5 2.5-.5.5-2.5-2.5zm102 24 .5 2.5h-1z" opacity=".996"/><path fill="#fafbf9" stroke="#fafbf9" d="M255.5 0h8l3.5 1.5-15.5.5-2 2q-.7-1.7-4-1-.7 1.8-4 1V3l7-1 1-1h5zm-18 4 2.5 1.5-.5 1.5-1-2q-2.4-.1-1-1Zm-11 4 1.5.5-2 1-.5 1.5q-2.5-1-1-2zm-4 2 1.5 2.5h-1l-.5-1.5-6.5 3.5.5 1.5q-1-2-2 0l-1.5.5.5 1.5q-1.5-2.5-3 1l-1.5.5.5 1.5-1-1-5 5-5.5 4.5-3 4 1 2-1.5.5-1.5-.5-1 2 .5 1.5q-1.2-2.2-2.5.5l1 2-1.5-.5-1.5 1.5 1 2h-2l1 2-1.5-.5-1.5 1.5.5 1.5 1.5.5-1.5.5-1.5-.5.5 1.5 1.5.5-1.5.5-1.5-.5.5 1.5 1.5.5-3 1 1 2h-2l.5 1.5 1.5.5-1.5.5-1.5-.5 1 3-2 1 1 2-2 1 1 2-2 1 .5 1.5 1.5.5-3 2 1 3-2 1 .5 4.5 1.5-.5-1.5 1.5-1.5-.5.5 7.5 1.5.5-1.5 1.5-1.5-.5v19l1 1v7l1 1 .5 4.5 1.5-.5q-2 1-1 5l1.5-.5 1.5.5-2 1 .5 2.5 1.5.5-1 3 3 1-2 1 .5 1.5 1.5.5-1 2 3 1-2 1 .5 2.5 1-2q2.5 1 1 2l-1.5.5 3 1-2 1 .5 1.5 1.5-.5-1 2h2l-1 2h2l-1 2h2l-1 2 2 2-.5.5q-4.6-.9-6.5-4.5l-3-8v-3l-3-9v-4l-1-1v-4l-1-1v-5l-1-1v-7l-1-1v-24l1-1v-6l1-1v-4l1-1 1-8 4-12 5-10q8.3-13.7 20.5-23.5z" opacity=".016"/><path fill="#fafbf9" stroke="#fafbf9" d="M174.5 106q2.5 1 1 2l-1.5-.5zm-71 53 8 1 2.5 1.5-12 1 2 1q-1 2.5-2 1l-.5-1.5-7.5.5 2 1-2.5.5q-1-2-5-1v1l1.5.5-2.5.5-2-1-2 3-1-2-3.5.5.5 1.5-4-1 .5 1.5-.5 1.5-2-2-.5.5-.5 1.5-2-1-2 3-1-2-1 2-2-1-1 3-1-2-1.5.5q2.3 1.3-.5 2.5v-2l-1.5.5-.5 2.5-1-2-1 3-1-2-1 2-1.5-.5-.5 1.5-1.5-.5-.5 1.5-1.5-.5-.5 2.5-3 1-1.5-.5-.5 2.5-2-1-1 3-2-1-1 3q-8.6 4.9-14.5 12.5l-1.5 2.5-2.5.5q2 1 0 2l-.5 1.5-2.5.5 1 2-3 1 1 2-3 1 2 1-3 1 1 1-1 1 .5 1.5-2.5.5 2 1-3 1 2 1-1.5 1.5-1.5-.5.5 1.5 1.5.5q-1 2.5-2 1l-.5-1.5-.5 2.5 2 1-3 2 .5 1.5 1.5.5-1.5 1.5-1.5-.5 2 3-1.5 2.5-1-2-.5 2.5 1 1-1 3 .5 1.5 1.5-.5-1 3v6l1 2-2 1q2 1 0 2l.5 5.5q1.3-2.2 2.5.5l-2 1 .5 4.5 1-2q2.5 1 1 2l-1.5.5.5 2.5 2.5.5-2 1 .5 2.5q1.3-2.2 2.5.5H7l.5 2.5q1.3-2.2 2.5.5l-2 1 .5 1.5q1.3-2.2 2.5.5H9l.5 2.5 1.5-.5-1 2 1.5-.5 1.5 1.5-2 1 .5 1.5 2-1v1l-1.5.5 2 1-.5 1.5 1.5.5-.5 1.5 1.5.5-.5 1.5 1.5.5-.5 1.5 1.5.5-.5 1.5 1.5.5-1 2h2l-.5 1.5 2.5 1.5-1.5 2.5h-2l-3.5-3.5-5-9-5-15-2-11-1-1-1-11-1-1v-19l1-1v-5l2-5v-4l3-9 6-12q6.6-9.9 15.5-17.5l15-10 18-8 6-2h3l1-1h3l1-1h3l1-1h3l1-1 10-1 1-1h9zM3 248l-1 4h1zm495.5-80h21l1 1h4l1 1 6 1 3.5 2.5-1.5 2.5q-1.2-3.2-7-2l-1 2-1-1-4.5-.5 3-1-3.5-.5-2 2h-20v-1l20.5-.5-24.5-.5v1l2.5.5-7.5 1.5v-2l-3 1-2-1v2l-3 1q-.7-2.7-5-2v1l1.5.5-2.5 1.5-1-2-4.5.5 2 1q-1 2.5-2 1l-.5-1.5-3.5.5q2.2 1.3-.5 2.5l-1-2-2.5.5.5 1.5-3-1-1 3-1-2-1.5.5-.5 2.5-1-2-2 3-1-2q-1.5 3.5-3 1l-1.5.5 1 2h-1l-.5-1.5-3.5 1.5-.5 2.5-1-2-1 3-1-2-1 2-1.5-.5-.5 1.5-1.5-.5-.5 1.5-1.5-.5-.5 1.5-1.5-.5-.5 1.5-1.5-.5-.5 2.5-1-2-1 3-3 1-1.5-.5-.5 2.5-3 1-22 15-35 30-.5-.5 4-4 24.5-25.5 8.5-6.5.5-1.5 1.5-.5.5-1.5 11-9 30-14 18-6h3l1-1h3l1-1h3l9-3h5l1-1q4.8 1.2 6-1h7zm-277 223q2.5 1 1 2l-1-1-9 9-1.5.5-1.5 2.5-1.5.5-7 8q2.5 1.5-1 3l-.5 1.5-4.5 2.5q2 1 0 2l-.5 1.5-3.5 1.5 1 2-4 2 1 2-3 1 1 2-3 1 1 2-1.5 2.5-2.5.5 1 2-5.5 9.5-1.5.5.5 1.5-1.5.5 2 1-2.5 3.5-1.5.5 2 1-2.5 6.5-.5-2.5 1-3h-1l-.5 1.5-.5-1.5.5-1.5-3.5-.5 5-11v-2l11-19q9.8-13.7 22.5-24.5l10-6z" opacity=".016"/><path fill="#a9e9a0" stroke="#a9e9a0" d="m200.5 27 1.5.5-2.5 1.5q-1.5-1 1-2Zm-16 22 .5 1.5q-1 2.5-2 1zm-88 114 3.5.5-3.5.5zm429 10 3.5 1.5-2.5.5q-2.5-1-1-2Zm-123 29 .5.5-2.5 2.5-.5-.5zm-31 29 .5.5-2.5 2.5-.5-.5zm242 130 .5 3.5h-1zm1 11 .5 8.5h-1zm-1 18 .5 2.5h-1zm-1 5 .5 2.5h-1zm-409 15 .5.5-2.5 2.5-.5-.5zm267 19 2.5 1.5-1.5-.5q-2.4-.1-1-1Zm52 16 2.5.5-2.5.5zm31 0 2.5.5-2.5.5zm-19 1 12.5.5-12.5.5zm-89 30 .5 10.5h-1z" opacity=".027"/></svg>