<svg xmlns="http://www.w3.org/2000/svg" viewBox="0 0 640 640"><path stroke="#000" d="M.5 0 640 .5l-.5 639.5-226.5-.5q1-4-1-5v-8l-1-1v-15l-1-1v-7l-1-1v-11l-1-1v-9l-1-1v-13l-1-1v-7l-1-1v-18l-1-1v-8l-1-1q1.3-4.7-1-6v-8l-1-1 1.5-1.5 6-1 4.5-3.5q1.7-7.8-2.5-9.5l-9.5-2.5v-8l-1-1v-13l-1-1v-16l-1-1v-15l-1-1v-11l-1-1v-10l-1-1v-6q3-2 2-8l-3-4v-20l2-2v-2l2-3v-3l1.5-1.5 7-1 6-2 3.5-2.5.5-3.5 2.5-1.5v-2l-4-4-1-3v-6l1-1v-29l-1.5-.5q-1 2-2 0l-9-3h-4l.5 1.5v9l-2.5 3.5-.5-13.5 2-1-10-2-.5-2.5-1.5.5-.5 1.5-.5-19.5 1.5-1.5 9-2 3.5-2.5 1-2q-2-1 0-2l1-3q-4.5-1.5-3-9 2-1 1-5l-1-1v-10q2-1 1-5-2-1 0-2l1-2-1.5-2.5-6.5-3.5-.5-1.5-1 2-1-1-7-1-1.5-1.5v-18l1-3-1-1v-7q3.5-1.5 1-3-.7-3.2 1-4l-1-1v-15l-1-1q2-1 1-5l3.5-4.5 2.5-1.5-4.5-6.5-5-1-15-11-19-12-6.5-5.5-1-2 1-2-6-3-1-5 3-2-.5-1.5-2.5-1.5 5-7v-6l-1-3-4.5-4.5q-4 .5-4.5-2.5v-27l-1-1v-16l1-2q-1-1.5-2 1v44l-2.5 3.5q-4.6.9-6.5 4.5-2.3 3.2-1 10l2.5 4.5 1.5.5-.5 1.5-1.5.5-1 2 3 2q.8 4.8-2.5 5.5l-4.5 2.5 1 2-3.5 4.5-3 1-31 21-14.5 7.5 6 7v21l-2 2 .5.5 1.5.5-.5 2.5-1.5.5 2 1v11l-1 1 1 1v7l-1 3q1.8.7 1 4l-1 1-.5 4.5-4-1-1 2-7 2-3 2-1.5-.5-1 4 1 1v20l-1.5.5-1-2-.5 2.5 3 3-1 1 .5 3.5 2-4 5.5 2.5-3.5 1.5h-3l-3.5 3.5 1 6 3 3q-.7 3.3 1 4v8l1 1v9l1 3-3 1 3 1v11l2 3-4.5.5q-1.3-2.2-6-1l-2.5-1.5-1.5-2.5-1 2-1.5-.5v-7l1.5-1.5 1 2 .5-2.5-2.5-.5-3 1-2-2-.5.5q.7 5.2-3 6l1 1v31l-1 3-2.5 2.5-1.5.5q-.7 3.8 1.5 4.5l1.5.5-1 3 1.5 2.5 2-1 6 3 7 1 1.5 1.5v4l3 5v16h-2l.5 5.5 1-4 .5 4.5-2 1-1 3v5l2 2v9l-1.5 3.5-1-3-.5 8.5h1l.5-4.5.5 4.5-1 1-.5 8.5-1-4-.5 6.5q1.8.8 1 4l-2 1 .5 1.5 1.5.5q-2.7.8-2 5 2.2 1.2 1 6l-1 1v9l-1 1-1 11-1 1-.5 14.5-1-2-1 2q-6.6.4-9.5 4.5l-1 8 1.5 3.5 1-3 4 2 4.5.5-1 15-1 1v7l-1 1v8l-1 1-.5 4.5-1-10-.5 21.5-1 1v9l-1 1v6l-1 1v6q-1.7.8-1 4l1 3-2 1-1 8q1.8.8 1 4h-1l-.5-2.5-.5 12.5-1 1v12l-1 1v8l-1.5 4.5L0 639.5zM384 195l-1 4h1zM245 307l-5 2h2l1 10v-9l2-1 1 8v-8l2-1 1 4v-4zm1 102-1 7h1zm-4 43-1 3h1zm-1 5-1 9h1zm-12 54-1 13 1 1 1 12h1l-1-13-1-1z" opacity=".008"/><path stroke="#000" d="m264.5 231 .5 13.5-1.5.5-2.5-1.5.5-11.5zm-5 1 .5 11.5-1.5-.5-1.5-.5-1.5-2.5-1 2-5.5-4.5 2.5-2.5zm122 1h3l6.5 2.5-.5 8.5-5 2-2-2-.5.5-.5 1.5-1.5-.5q-1.2-4.7 1-6l-1-1zm12 3 3.5 4.5q-.5 3-4.5 2.5l-.5-5.5zm-144 5 5.5 2.5-.5 20.5-5.5-2.5z" opacity=".008"/><path stroke="#000" d="m396.5 243 .5 14.5-1.5-.5-3.5-1.5.5-10.5zm-139 1 2.5 1.5v6l-1 1 1 1v11l-3.5.5-.5-19.5zm4 2 3.5.5-.5 4.5-2.5-.5v-3zm126 0 3.5.5-.5 8.5-5-1-1.5-1.5q-.6-4.1 1.5-5.5zm-5 1 .5 5.5-1.5.5-.5-4.5zm-120 6 2.5.5-.5 11.5-3.5-.5v-10zm119 2 1.5.5-.5 10.5-1.5-.5zm3 1h3l3.5 1.5v7l-1.5 1.5-4 1-1.5-1.5zm8 2 4.5 2.5-.5 2.5-4 1-.5-1.5 1-2q-1.7-.7-.5-2.5Zm3 7 1.5.5-.5 4.5-4.5-2.5zm-142 17 1.5.5v5l1 3q-2 1 0 2l1 9q-2 1 0 2l-1.5 2.5-1.5-.5.5-1.5-1.5-.5v-9l1-1-2-1v-7l-1-1zm4 1 2.5 1.5-.5 20.5-.5-5.5-1-1v-10q-2.3-1.4-.5-5.5Zm-3 24 2.5.5 1 5q-2 1 0 2 2 2.5 1 8l-1.5.5-2.5-1.5.5-5.5 1 4 .5-5.5-1.5.5-1.5-.5zm131 1 .5 16.5h-1zm2 0 3.5.5.5 11.5 1-11 2.5.5-.5 14.5q-4.8-.8-7 1zm13 2 9 3 3.5 2.5q.5 4-2.5 4.5l-2.5-.5-.5-5.5-1 7-6 2zm5.5 3-1 7h1zm-170.5-2 .5 6.5-1.5-.5-1.5-.5.5-3.5 1 3zm-4 7 .5 27.5h-1zm181 2 .5 9.5-1 1-.5 16.5-1.5-1.5v-24zm-175 1 2.5.5-.5 21.5-1-21-1 16zm4 0 2.5 1.5v18l-1.5 1.5-1.5-.5zm5 1 .5 18.5-1.5.5-.5-17.5zm160 0 1 19 1-19 .5 23.5-1.5-.5-2.5-.5v-17l1-3q-2.2-1.2.5-2.5Zm-158 1 2.5.5-.5 17.5-2.5-.5zm155 0 .5 20.5-1.5.5-.5-10.5 1-1zm-151 1 1.5.5 1 15-2 1 3 2-1.5 2.5-2.5-.5zm147 0 1.5.5-.5 18.5-2.5-.5-.5-8.5-1 9q-1-2-5-1l-1.5-1.5-.5-6.5-1 7-3.5-.5.5-14.5 1 14 1-14q4.2.7 6-1l.5 8.5 1.5 1.5 1-10zm-141 1 .5 10.5-1.5.5-.5-6.5-1-2zm-1 12 1.5.5-.5 2.5-1.5-.5zm-21 3 1.5 2.5-1.5.5zm21 1 1.5.5-.5 3.5zm-11 1 .5 3.5-1.5.5-.5-2.5zm2 0 2.5.5q.5 3-1.5 3.5l-1.5-.5zm137 0 .5 3.5q-1 1.5-2-1zm-143 1 .5 2.5q-1 2.5-2 1-.5-3 1.5-3.5Zm145 0 1.5.5-.5 2.5-1.5-.5zm3 0 6.5 1.5-.5 2.5-2.5-.5-.5-1.5-1 2-2.5-.5zm-151 1 .5 2.5-1.5.5-.5-1.5zm159 0 3 2 2-1 .5 3.5-1.5.5-4.5-1.5zm-162 1 .5 2.5-1.5-.5-1 1-1.5-.5zm169 1 3.5 1.5.5 1.5 1-1 2.5 2.5-1.5-.5q-4.7.8-6.5-1.5z" opacity=".008"/><path stroke="#000" d="m324.5 89 1.5.5q-.5 3 1.5 3.5 5.4 1.1 7.5 5.5-.7 3.3 1 4-2 1-1 5l-4 5v2l2 1-.5 1.5-1.5.5-1 3 2.5 4.5 4.5 1.5q-1 5.5 2.5 6.5l38 26 5 1 2.5 2.5 2 4-4 3q-1.7 1.8-1 6l-1 1v17q2 1 0 2v16l-1 1v7q2 1 0 2v10l1 1q-2 1-1 5l1 3-1 1v11l1.5 1.5 10 1q2 3 6.5 3.5l1 4-7 4q-.5 3 1.5 3.5 4.8.3 6.5 3.5l-1 6-2.5 2.5-6 2h-3l-2.5 1.5v11l-1 1v27q2 1 0 2l.5 19.5 2 1h5l1 1h6l1 1 9 1 9.5 4.5 1 2-3 3q.5 3-1.5 3.5l-16.5 5.5-.5 4.5-1.5.5-2 5v22q3 2 2 8l-2 4 1 1 1 22 1 1v14l1 1v15l1 1v15l1 1v10l2.5 4.5 7 1 2.5 1.5-.5 9.5-5 2h-4l-1.5 1.5v7l1 1 1 14 1 1v18l1 1v7l1 1v12l1 1v9l1 1v9l1 1v11l1 1v9l1 1v13l1 1v6l1 1-191.5.5-.5-1.5 1-1q-1-4 1-5v-7l1-1v-11l2-2 1-16q-2-1 0-2l2-3v-14l1-1v-7l1-1v-10l2-6v-6l2-5v-8l1-1v-8l1-1v-9l1-3-6.5-1.5-4.5-2.5q-1.1-6.1 1.5-8.5l10.5-3.5q2.2-2.8 1-9l1-1 1-21 1-1v-8l1-1v-8l1-1v-10l1-1v-8l1-1v-10q2-1 1-5l-2-4 1-2-1-2q4-1 3-7-2-1 0-2v-16l-4-6q1-4.5-1.5-5.5h-4l-1-1-6-1-4.5-3.5q.5-3-1.5-3.5l-1.5-.5q-.5-3 1.5-3.5l6-3 7-1 5-2q1 2 2 0h8l1.5-1.5-1-14h1v6l1 1 .5 7.5 2.5-.5v-20l-1-1q2-1 0-2v-10l-2-5 1.5-2.5 1 7q2.3-.7 1.5-4.5-2-1 0-2l-.5-21.5h-5l-4-2-1 7-.5-7.5-1.5-1.5-1.5-.5q.6-4.6-2-6l1.5-2.5 9.5-3.5-.5-1.5 5 1 1-1 4.5-.5v-11l-1.5-1.5-4 1v-1h2l3.5-2.5q.8-3.3-1-4l1-1v-13q-2-1 0-2v-29l1-2-1-1v-7q2-1 0-2-1-4 1-5v-10l-1-2 1-2-6-7q4.3-4.2 11.5-5.5l38.5-25.5 1-5 1.5-1.5q4 .5 4.5-2.5l1-4-3-2 .5-1.5 2.5-1.5-.5-1.5-2.5-1.5-2-5v-4l1-3 4.5-4.5 4.5-2.5zm52.5 89-1 11 1 1-1 4q2 1 0 2v9l2 1v-7l1-1q1-4-1-4-1-4 1-4v-11zm-5 2-1 23h2v-22zm-8 1q-1 2-5 1l-2 2v16l4 1 7 1v-16l1-3q-1-3-5-2Zm-21 2-1 1h-12l-1 14 17 1 1-1v-13q-1-3-4-2Zm7 0-2 2v14h7v-15zm-20 16v11h6q1-3 6-2v2l4 2v-11zm20 1-2 2v14h6l1-1v-13zm8 1v14l3-1h6l1-1v-9zm14 3-2 5q-1 3 2 4l1-1q-1-5 1-6zm5 3-1 28h2v-19l1-1q1-5-1-7zm-5 7-2 2v10l1 1-1 3h2l1-4v-11zm-9 1q-2 2-5 1l-1 15 2 1q3-1 5 1 3 1 3-1-2-1-1-4l2-1v-11zm-14 2q-2 2 0 3 1 6-1 10h5l1 1v-13zm0 14-1 6-1 1v7q1 2 7 1v-6l1-1v-6l-3-2zm23 0-2 3h3v-2zm-14 1-2 2 1 11q6 1 9-1v-9l-3-2h-4zm-13 1-4 2q-1 2-2 0l-2 1-1 1 2 2-1 1h-5l2-1v-2l-3 1-3 10 4 1h13v-1l-3-1 4-1v-12zm26 2-1 8h2q2-2 1-7zm6 2v4h1q1-3-1-4Zm0 5-1 8-1 2h3v-9zm-5 2q-3 1-2 7 2 3 3 0l-1-2q2-1 1-4zm-14 2-2 3 2 1 8 1v-4zm-9 1-1 2q1 2 6 1v-2zm-19 3-1 8h3v-7zm4 0-1 8 3 1h9v-7l-3-2zm15 0-2 2v7q2 2 7 1v-8l-4-1zm9 1q-4 2-2 8l3 2q4-1 7 1v-9l-6-1zm13 2-1 10h2l1-9zm6 1-1 11h2v-10zm4 1-1 11 3 1q5 1 8-1v-1h2l5-2v-2l-7-5z" opacity=".996"/><path stroke="#000" d="m390.5 234 3.5 1.5-1.5.5-2.5-1.5zm-142 1 1.5.5-1 3 2 2-.5.5-2.5-1.5-1-2zm147 1 3.5 2.5-1.5 4.5-1.5-.5 2-3-3-3zm-148 25 6.5 3.5-1.5.5-4-2q-2.5-1-1-2Zm9 23 .5 8.5h-1zm-5 5 .5 8.5h-1zm6 5 .5 8.5h-1zm-5 6 .5 7.5h-1zm-20 11 1.5.5-3 2 1 3q-1 1.5-2-1-.5-4 2.5-4.5Zm21 0 .5 4.5h-1zm160 3q2 .5 1.5 3.5l-1 1-.5 31.5q-2.8-1.3-.5-2.5v-27l-1-1q2.5-.5 2-4zm-159 6 .5 5.5 1 1q-1 1.5-2-1zm-24 26 1.5.5-2.5 2.5-.5-.5z" opacity=".996"/><path stroke="#000" d="m323.5 44 1 1 1.5-.5-.5 1.5q-3.8-.7-2-2Zm1 3 .5 15.5 1 1v25l-1.5.5zm-1 43 .5 1.5q-1 2.5-2 1zm6 3 5.5 4.5-.5.5-4-4q-2.4-.1-1-1Zm-11 1 .5.5-3.5 3.5-.5-.5zm17 9 .5 3.5h-1zm-2 7 .5.5-2.5 2.5-.5-.5zm-15 2 .5 1.5-2.5 1.5v-1l1.5-.5zm15 3 .5 1.5-2.5 1.5v-1l1.5-.5zm-16 2q2 .5 1.5 3.5h-1zm0 5 .5.5-2.5 2.5-1.5-.5zm18 3 2.5 1.5-.5 1.5-1-2q-2.4-.1-1-1Zm2 4 2.5 3.5-.5.5-2.5-2.5zm-64 26q1.5 1-1 2l-3 1v-1zm106 4 2.5.5-2.5.5zm-118 2-.5 1.5 6 8h-1l-6-8zm124 2 2.5 3.5q-1 2.5-2 1l1-2-2-2zm-119 10 .5 10.5h-1zm110 5 2.5.5v11q-1.7.8-1 4 1.8.8 1 4l-1 1-.5 7.5-1.5-1.5v-9q2-1 0-2l1-4-1-1zm5 0 .5 15.5q2.8.8 2 5l-2.5 2.5-.5-.5q-1.2-4.8 1-6l-1-1zm1.5 17-1 4h1zm-11.5-15 1.5.5-.5 22.5-1.5-.5zm-8 1q4.5-1 5.5 1.5l-1 3-.5 16.5-7-1-3.5-1.5v-16l1.5-1.5q4 1 5-1Zm-21 2q3.8-.7 4.5 1.5v13l-1.5 1.5-16.5-1.5.5-13.5h12zm7 0 5.5.5-.5 15.5-6.5-.5v-14zm-84 8 .5 1.5-2.5 1.5-.5-.5zm64 8 16.5 1.5-.5 11.5-3.5-2.5-.5-1.5q-4.6-.6-6 2h-6zm20 1 5.5 1.5v13l-1.5 1.5-5.5-.5v-14zm8 1 10.5 2.5v9l-1.5 1.5h-6l-3 1zm14 3 2.5 1.5q-2.2 1.3-1 6l-1.5 1.5q-2.2-.7-1.5-4.5zm5 3 1.5.5q1.8 2.2 1 7l-1 1-.5 19.5-1.5-.5zm5 2 .5 2.5-1 1-.5 7.5-.5-7.5zm-10 5 1.5.5v11l-1.5 4.5-1.5-.5 1-3-1-1v-10zm-9 1 5.5.5-.5 11.5-1.5.5q-.7 3.3 1 4l-4 2 3 1-.5 9.5q-2.8 2.2-9 1l-.5-11.5q3.5-1.5 1-3l.5-14.5q4 1 5-1Zm-3.5 17v1h4zm-10.5-15 5.5.5-.5 13.5-1-1-4.5-.5q2.3-3.2 1-10-1.7-.7-.5-2.5Zm-83 1 .5 2.5h-1zm115 3 .5 9.5 1.5 1.5 7.5 1.5-.5 1.5-5-2h-3l-1 5-.5-4.5q2-1 0-2zm-115 4 .5 4.5q-2 1 0 2v13l-1 1q1.8.7 1 4h-1l-.5-3.5-3.5.5q1.8.8 1 4l1.5 1.5 2.5 1.5-.5 11.5-1-12-4-1v1l1.5.5-1 1-.5 11.5-3.5-.5 3-1v-11l-1-1 1-1v-6l-2.5-1.5-1.5 1.5v19l-1 1 .5 1.5-2.5-1.5 2-2v-20l-2-1 .5-1.5 1.5.5.5-1.5 2 3 2 1 .5-11.5-1.5.5-1.5-.5 4.5-3.5 3 1zm-.5 6-3 1-1 12 3 1h1zm83.5 0h3l3.5 1.5v6l-1 1-.5 6.5q-5.2 1.3-6.5-1.5v-7l1-1zm23 0 1.5.5-.5 2.5-2.5-.5zm-116 1 .5 1.5-3.5 1.5-.5-1.5z" opacity=".886"/><path stroke="#000" d="m391.5 232 1.5 2.5-1 3 .5 5.5 1.5.5-.5 1.5-2-1 .5 1.5-.5 9.5-1-9q-4.1-.6-5.5 1.5l-1 5 .5 1.5q-3.7.8-4.5-1.5l.5-11.5 1 5 1.5-.5.5-1.5q1.5 3.5 3 1l4.5-1.5v-8l1-1q-1.7-.7-.5-2.5Zm-8.5 15-2 2 1 4h1zm-38.5-14 1.5.5-.5 12.5-3.5.5 3 1-.5 1.5h-13l-3.5-1.5 2.5-9.5 3-1 .5 1.5-2 1 4.5.5 1.5-1.5-2-2 .5-.5 2-1q1 2 2 0zm-94 1 .5 1.5q-1 2.5-2 1zm120 1 2.5.5q1.5 6-1.5 7.5l-1.5-.5zm24 0 1 2 1.5-.5-1 1 2 2-.5.5-3.5-3.5zm-18 2q2 .5 1.5 3.5l-1.5.5zm-127 1 2.5 3.5h-1l-.5-1.5-1.5 1.5v20l-1 1 1.5.5 1.5-.5-3 5 3 1-3.5 1.5.5-1.5-1-1q-.8-3.3 1-4l-3-3v-2h1l.5 1.5 1.5-.5.5-19.5 1.5-.5zm147 3-.5 1.5-.5 1.5-.5-1.5zm-20 1 1.5.5-.5 9.5-2.5-.5 1-2zm21 1 1.5.5-1.5 14.5zm-26 1 1.5.5q.8 3.3-1 4l1 2q-1.5 3-3 0-1.2-5.2 1.5-6.5Zm-14 2 8.5.5-.5 4.5-8-1-1.5-1.5zm-9 1 5.5.5-.5 2.5-4.5.5 5 1-.5 8.5q-4.7.8-6.5-1.5v-7l2-2q-1.7-.7-.5-2.5Zm-19 3 2.5.5-.5 7.5-2.5-.5zm4 0h8l3.5 1.5-.5 7.5h-9l-2.5-1.5zm24 1 2 1 6.5.5-.5 9.5q-2.2-1.8-7-1l-2.5-2.5q-1.5-6 1.5-7.5Z" opacity=".886"/><path stroke="#000" d="m370.5 253 2.5.5-1.5 9.5-1.5-.5zm6 1 1.5.5-.5 10.5-1.5-.5zm10 0 1.5.5-4 2v9l1 1-2.5.5.5-1.5.5-10.5zm-6 1 .5 10.5h-1zm8 1q3-.5 3.5 1.5-.7 3.3 1 4l-1 2 3 2-1.5-.5-2.5-1.5-.5-6.5q-3 .5-2-1Zm8 3 1 1 1.5-.5-1 3q2 1 0 2v6l3 4h-1l-2.5-3.5-1.5-.5q2-1 1-5l-2-2 .5-.5 2 1-.5-1.5zm-4 9 2.5 1.5-1.5.5q-2.5-1-1-2Zm-146 7 .5 2.5h-1zm2 4q2.3.8 1.5 4.5h-1v-3zm4 2 .5 1.5q-1 2.5-2 1zm3 2 1.5.5-1.5 4.5zm4 0 1.5.5v21l-1 1q1.8.8 1 4l-2 2-.5 4.5-1-2-1 6-1-4-.5 3.5-1.5 1.5-1.5-2.5v-10l1.5-4.5 3-2 1.5.5.5-3.5.5 4.5-2 3 1.5 4.5.5-5.5 1-1v-20zm-2.5 20-3 3h1l2-1zm-2 4-2 5 1 4 4-3-1-5zm-3.5-22 .5 3.5-1.5 4.5-.5-4.5z" opacity=".886"/><path stroke="#000" d="m257.5 288 .5 5.5-1.5 4.5-.5-4.5 1-1zm-2 3 .5.5-3 3v5l-1.5 3.5-.5-4.5 1-1 .5-4.5zm129 6 1 9 1-2 2 3 14 2 10 4q1.2-2.2 2.5.5l-1 4 1 1v23h-1l-.5-23.5-2 3-1.5.5v24l1.5 1.5 1-17 .5 17.5q-2.3 1.2.5 2.5l1.5-.5q-.5 3.5 2 4l-1.5-.5-6.5-2.5 3-1-1.5-1.5-1.5.5-.5-1.5-3-1-.5 2.5 2 1-1.5.5-1.5-1.5-.5-3.5-2 1-3-2-1 4-5.5-.5 1.5-2.5 1 2 2.5-.5-.5-2.5-6-1-1 4-3.5-.5-.5-4.5-1 2-.5-17.5q2-1 0-2zm1.5 11-1 17h1zm2 0v17q2-2 7-1v-14l-2-1-1 11-1-11zm9 1v14l2-3v-9zm4 1v13l6-2 1-7v6h3q3 0 2-4l-3-3zm6 12q-3 1-1 3l-1 3v16l-1 1h4l1 1v-24l-1 19zm-3 1-1 10-1 1 1 10h1zm-4 1-3 1-1 10-2-1v-9q-2 2-6 1l-1 14-1-14-1 15h4l1-7v7l2 1q3-1 5 1l1-9v9h3v-18zm-12 19-1 3h2v-2zm-138.5-37 2.5.5-3 1-.5 4.5-1-4-1.5.5-.5 8.5-1-8-1.5.5-.5 9.5-1-10-1.5.5-.5 2.5-1-2-1.5 1.5v7l1.5.5 1-2 2 3 12.5 2.5-.5 1.5-1.5.5.5 20.5 3-1q1.5 1-1 2l-4.5-.5 1-3-2.5-.5-1 4-1-4q-2 .5-1.5 3.5l.5 1.5q-1-2-2 0l-1.5-.5 1-3q-1-1.5-2 1 .5 3-1.5 3.5l-2.5-.5-.5-2.5-3.5 2.5 1.5.5 1.5-.5-8.5 4.5-.5-.5 3-3-.5-1.5q1.3 2.3 2.5-.5l-.5-28.5-1 28-.5-29.5h2l-1-3 3-2-2-1 1-1-.5-1.5 4 3 1-2 6-1 1-1h4zm-13.5 5-1 5-1-3-1 4h2l1 1zm2 10v17l1-16 1 21v-21zm4 0-1 21h2l1-1v-18zm5 1-2 2 1 17h1zm2 1-1 18h3v-17zm-12 17v3h1zm3 4-2 2 1 1h1z" opacity=".886"/><path stroke="#000" d="m405.5 313 .5 6.5h-1zm-150 9 3 1 1.5-.5q-2 1 0 2l-.5 20.5-1-4-1.5-.5 2-1-.5-2.5-2.5.5-.5 4.5-2.5-1.5 2-1 1-3v-6h-1l-.5 1.5-.5-5.5 3-2-2-1zm3.5 3-3 3 1 2 1 6h1z" opacity=".886"/><path stroke="#000" d="m257.5 342 .5 2.5h-1zm142 6 2.5.5-2.5.5zm-172 10 2 3 2.5 1.5-1.5-.5-1.5.5.5 1.5-2.5-3.5zm188 4q1.5 1-1 2l-3 1v-1zm-179 2 2.5.5-2.5.5zm5 1q3-.5 3.5 1.5l-1.5-.5q-3 .5-2-1Zm159 2 2.5.5-2.5.5zm-167 3 2.5 3.5q-1 1.5-2-1zm12 1 1.5 2.5h-1zm151 2 .5 1.5-2.5 4.5.5-1.5zm-149 2 1.5 1.5v16q-2 1 0 2 1 5.5-2.5 6.5l-.5-1.5 2-1-.5-4.5-1 4-.5-5.5-1-1 3 1v-16zm-10 2 2.5 3.5q-1 1.5-2-1zm4 7 2.5 3.5q-1 1.5-2-1zm153 16q3.5 2 2.5 8.5l-2.5 4.5-.5-1.5q3-2 2-8l-2-3zm-149 2 1.5 2.5-1 2q2.8 1.7 2 7h-1l-.5-4.5-1 7-.5-6.5q2-1 0-2zm150 16 .5 5.5h-1zm-151 1 1 3 1-3 .5 5.5h-1l-.5-1.5-.5 4.5q2.2 1.3 1 6h-1q1.3-4.7-1-6zm152 10 .5 6.5h-1zm-153 4 1.5 4.5v7l-2.5 1.5-.5-1.5 2-1q.8-3.2-1-4zm154 8 .5 9.5h-1zm-154 6 .5 6.5h-1l-.5-1.5-1 3-.5-2.5q1.8-.8 1-4zm-3 10 .5 8.5h-1zm158 0 .5 9.5h-1zm-156 1 .5 4.5h-1zm-1 10 .5 6.5-1 1v9l-1 1-.5 7.5-.5-12.5 1-1v-6l1-1zm158 6 .5 8.5h-1zm1 14 .5 5.5h-1zm-163 5 .5 1.5q-.5 2-3.5 1.5v-1l2.5-.5zm165 4 2.5.5-2.5.5zm4 1 2.5.5-2.5.5zm6 3 .5 7.5h-1zm-186 2 1 4 3.5 1.5-1.5.5-1.5-.5 1 3v11l1 1 1 13h-1l-1-12-1-1v-12l-2-4zm11 7 .5 2.5h-1zm165 2 2.5.5-3.5 1.5q-1.5-1 1-2Zm-1 3 .5 5.5h-1zm-165 2 .5 5.5h-1zm166 7 .5 3.5h-1zm-167 2 .5 5.5h-1zm168 4 .5 5.5h-1zm-169 4 .5 6.5h-1zm-3 4 1.5 13.5-1 1-.5 4.5zm173 1 .5 15.5h-1zm1 19 .5 4.5h-1zm-175 2 .5 7.5h-1zm176 6 .5 9.5h-1zm-177 4 .5 5.5h-1zm-1 7 .5 13.5-2.5 3.5-.5-2.5 2-1-1-6 1-1zm179 3 .5 5.5h-1zm1 10 .5 5.5h-1zm-182 5 .5 7.5h-1l-1-6zm-2 6 1.5 3.5v7q-1 2.5-2 1zm185 1 .5 5.5h-1zm1 8 .5 7.5h-1zm-187 4 .5 10.5h-1zm188 12 .5 5.5h-1zm-189 1 .5 5.5h-1zm190 8 .5 3.5h-1z" opacity=".886"/></svg>