<svg xmlns="http://www.w3.org/2000/svg" viewBox="0 0 640 632"><path fill="#154196" stroke="#154196" d="m99.5 498 .5.5-2.5 2.5-1.5-.5zm-1 9 4.5 5.5-.5.5-2.5-2.5-2-3zm5 7 4.5 5.5-.5.5-2.5-2.5-2-3zm5 7 6.5 8.5-.5.5-2.5-2.5-4-6zm7 10 4.5 5.5-.5.5-2.5-2.5-2-3zm5 7 11.5 15.5-.5.5-2.5-2.5-9-13zm20 15 1.5.5-3.5 2.5-.5-.5zm-8 2 3 2 1.5-.5-2.5 1.5-2.5-2.5z" opacity=".996"/><path fill="#3259a0" stroke="#3259a0" d="m97.5 494 2.5.5 1 4-1.5-.5-2 2-1.5.5.5 1.5-1.5.5 2 1q-2.2 1.2.5 2.5l2.5 1.5q-2 1 0 2l.5 1.5 1.5-.5q-2.2 1.3.5 2.5l2.5 1.5q-2 1 0 2l.5 1.5 1.5-.5q-2.2 1.3.5 2.5l1.5.5q-2.5 1.5 1 3l.5 1.5 1.5-.5q-2 1 0 2l.5 1.5 1.5-.5q-2.2 1.2.5 2.5l2.5 1.5q-2 1 0 2l.5 1.5 1.5-.5q-2.2 1.3.5 2.5l1.5.5q-2.5 1.5 1 3l.5 1.5 1.5-.5q-2 1 0 2l.5 1.5 1.5-.5q-2.5 1.5 1 3l.5 1.5 1.5-.5q-2 1 0 2l.5 1.5 1.5-.5q-2.2 1.3.5 2.5l2.5 1.5q-2.2 1.3.5 2.5l2.5-1.5 1.5-2.5q1 2 2 0l1.5-.5-.5-1.5 4.5 5.5L78.5 607l-11 7-7 6-4 2-7 6-6 3L26 603.5l-7-13-4-5-4-8-9-13-1-4z" opacity=".996"/><path fill="#b9856e" stroke="#b9856e" d="m275.5 333 7.5 7.5-.5.5-7.5-7.5zm54 54 2.5 2.5-.5.5-2.5-2.5zm10 9 2.5 2.5-.5.5-2.5-2.5zm-138 46q4.9 9.1 12.5 15.5l-7.5 3.5h-4l-2.5-1.5q-2-2.5-1-8l1-1v-4z" opacity=".996"/><path fill="#97abc2" stroke="#97abc2" d="m261.5 319 21.5 20.5-.5.5-14-14-7.5-6.5zm66 65 21.5 19.5-.5.5-2-2-11-9-8.5-8.5z" opacity=".996"/><path fill="#fe5000" stroke="#fe5000" d="M258.5 319q13.6 9.9 24.5 22.5l-42 44-10 15-3 9v5l4 10 6.5 7.5 11.5 6.5-35.5 18.5-11.5-12.5q-1.7-1.8-1-6l-6-9-1-6-1-1v-4l-1-1v-9l-1-3 1-1v-3l2-6 6-12 10-14 11-13zm65 65 3 1 22.5 20.5q-20.5 27-45.5 49.5l-16 12-15 7h-3l-5 2h-15l-1-1h-4l-3.5-1.5 1.5-2.5 25.5-20.5 5-6 2-6-2-4 12.5-8.5 20.5-20.5z" opacity=".992"/><path fill="#faaa8c" stroke="#faaa8c" d="m188.5 407 3.5.5q-1.7 1.8-1 6h2l-1 7 2 1-1 3 2 1-1 2 2 1 3 6-.5 1.5 1.5.5-.5 1.5 2.5 1.5-1 6-1 1v4l-1 1v6l1.5 2.5q1.8 1.7 6 1l11-5 1.5.5.5-1.5 1.5.5 1.5-2.5 1.5.5.5-1.5 1.5.5.5-1.5 1.5.5.5-1.5 1.5.5.5-1.5 1.5.5 1.5-2.5 4-2 1.5.5.5-1.5 1.5.5.5-1.5 1.5.5.5-1.5 1.5.5.5-1.5 1.5.5.5-1.5 1.5.5.5-1.5 1.5.5.5-1.5h3l7-3h10l1 2 1.5.5-1 2 1 2-2 1 .5 1.5-2.5 1.5 1 1-10.5 10.5q-1.2-2.2-2.5.5l-2.5 3.5q-1.2-2.2-2.5.5l-2.5 3.5q-1.3-2.3-2.5.5l-2.5 3.5q-1.2-2.3-2.5.5l-2.5 3.5-1.5-.5-.5 1.5-4.5 2.5-.5 1.5-4.5 2.5-.5 1.5-6.5 4.5.5 1.5-1.5-.5-.5 1.5-4.5 3.5-1.5 2.5-1.5.5.5 1.5-3.5 2.5-.5 2.5-3.5 2.5-1.5 4.5-1.5.5q.5 3-1.5 3.5l-1.5.5-1.5 2.5-4 3-7 3-6 2h-4l-1 1-7 1-14.5 9.5-.5 1.5-9 6-21.5-29.5-6-21 17-16 .5-1.5 1.5-.5q-2.2-1.2.5-2.5l3.5-2.5-.5-1.5 1.5-.5.5-2.5 1.5-.5 2-3-.5-1.5 1.5-.5-.5-1.5 1.5-.5v-2l8-18 1-6 4.5-7.5 2.5-1.5.5-1.5 1.5-.5 1.5-2.5 3.5-1.5.5-1.5z" opacity=".992"/><path fill="#faaa8c" stroke="#faaa8c" d="m229.5 407 1 1h4l6 2 7.5 5.5 1 3v9l-3.5 6.5-2 1-2-3q-1.2 2.3-2.5-.5l-3.5-4.5-2.5-1.5.5-1.5-2.5-1.5-1-3 1-2h-2l1-7q-1.9-.9-.5-3.5Z" opacity=".992"/><path fill="#ffe800" stroke="#ffe800" d="m605.5 0 2.5 1.5 2 4v10l1 1 1 16 1 1v3l1 1v3l1 1v3l2 6 2.5 2.5q6.8 2.7 10.5 8.5l1.5 2.5 3 1 5.5 5.5-1 5-3.5 6.5-7 5h-8l-4.5-3.5q-1.7-4.8-5.5-7.5l-7.5-5.5q.5-3-1.5-3.5l-4-2-8-1-1-1h-4l-1-1-8-1-1-1h-13l-1-1h-6l-2.5-2.5-2-7 5-4 4.5-5.5 6-4h4l1 1h4l1 1 8 1 9 4 .5-7.5-5-13v-5l4.5-8.5zM601 31l-1 2h2v-1zm-18 19q-2 1 1 2v-1zm19 4-1 1 5 5 2-3-3-3zm12 11-1 2 2 3h8l-2-2-1-1q-1-3-6-2Zm-72.5-7h2l7 4 4.5 4.5 1 7-4.5 5.5L535 94.5l.5 4.5 6 2 9-11 5.5-4.5 3.5-4.5q2.2-1.8 7-1l4.5 3.5 4 7v3L564.5 105l-8.5 7.5-1 5 2.5 4.5 5-1 6.5-4.5 3-5L583.5 99l3-2h2q8.1 2.9 12.5 9.5 1.7 1.8 1 6l-22 21v2l-5.5 5.5-1.5.5-4.5 8.5-5 2h-7L531 127.5q-2-5.5-6.5-8.5l-5.5-3.5v-2l-3.5-3.5-2.5-1.5-7-11v-4l14-12L531.5 69l4.5-3.5q1.7-4.8 5.5-7.5Zm4.5 51-1 2 2 2 2-3zm-16 2-1 2 5 3v-1zm45 9v3h2v-2zm-32 5v1h3zm15 7-1 2 3 1h6l-4-3zm-67.5-22q8.8-1.7 10.5 3.5l1.5 2.5 34.5 33.5 4.5 5.5 6.5 4.5v6l-6.5 8.5-7 4-8 1-37-13h-7l-.5 1.5 10.5 4.5 22.5 18.5 1 7q-1.7.8-1 4l-6.5 7.5-5 2-3-2h-2l-3.5-3.5-5.5-6.5-12.5-11.5-1.5-2.5q-12.7-8.2-22-20l-6.5-4.5 2-9 10.5-10.5 3-2h2l11 4 10 2 7 3h3l7 3h4l3.5-1.5-12.5-6.5-16.5-13.5q-1.8-2.2-1-7l6.5-10.5zm20.5 26q-2 1 1 2v-1zm-45 14q-2 1-2 4v1l3-1 1-2zm50 0-1 3 2 3h2l-1-4zm10 4-1 3q5 3 7 9h2l-6-10zm-41 3v1h3zm-21 2q0 4 4 7l2-3v-2zm49 2v3h1zm6 1q-2 4 1 5l4-1zm-28 22-1 2 4 2v-1zm8 7q-2 3 0 5h3q2 0 1-3zm-69.5-11h18q5.3 4.7 13 7l3.5 3.5 12 16 1 7 1 1v4l1 1v12l-6.5 14.5-12 11-4 2-6 1-1 1h-17l-8-3-14.5-10.5-4-6-7-16v-13l1-1v-5l1-1 1-6 5.5-6.5 11-8zm6.5 10v3h1zm11 4q-2 4 1 6h3l-1-5zm-34 3-1 2h2q1-1-1-2Zm22 6-10 4-2 2q1 3-1 4v9l5 10 13 6 12-4 2-3v-3l2-4v-3l-5-8-12-9zm-23 3v1h5zm-3 9-1 2h2q1-1-1-2Zm4 4-1 2h2v-1zm54 0-1 3 2 4h1v-3zm-50 15 1 4h2l-2-3zm4 8v2q2 0 3-1zm13 2-1 6h3v-5zm16 1v5h2l3-2zm-74.5-15q5.5-1 6.5 2.5l7.5 8.5 2.5 1.5.5 3.5 31.5 28.5 2.5 3.5 3.5 2.5v4l-2 6-1.5 1.5-5 4h-8l-22-25-3.5-2.5-7.5-9.5-3.5 2.5 6 5 5 9 17 23 3 6v2l-3.5 7.5-8 4h-5l-3-1-8-7-10-5-5-5-13-7-6-5-.5 2.5 14 11 4.5 5.5 1.5.5 5.5 6.5 12.5 7.5 2 8-6.5 8.5-9 4-9.5-7.5-4.5-6.5-3.5-1.5-5.5-7.5-14-13-7.5-5.5-3.5-4.5-3.5-2.5-1-2v-9l13-12 .5-1.5 6-2h3l21 14 3 1 14.5 11.5 1.5 4.5 1.5-.5 1-4-6-10-4.5-4.5-2.5-1.5-12-20-2-6 1-1q-.7-4.2 1-6l5.5-6.5 6-5zm1.5 14-1 2h2q1-1-1-2Zm-6 4q-4 1-3 7h2q1 2 2 0l-1-1zm13 2v1h3zm-47 40q-2 3 0 5l3 1q2-1 1-4zm16 19-1 2 2 2q2 0 1-3zm8 5v1h3zm7 12v1h4z" opacity=".976"/><path fill="#fbc2a4" stroke="#fbc2a4" d="m230.5 407 2.5.5-2.5.5zm-39 2 .5 4.5h-1zm-12 1 1.5.5-6.5 3.5q-1.5-1 1-2zm50 0 .5 3.5h-1zm12 0 5.5 4.5-.5.5-3-3q-3.8-.7-2-2Zm-71 5 .5 1.5-2.5 1.5-.5-.5zm-4 3-.5 1.5-.5 1.5-1.5-.5zm26 0 .5 2.5h-1zm57 1 .5 6.5h-1zm-14 8 3.5 3.5-.5.5-3.5-3.5zm11 6q1.5 1-1 2l-1.5-.5zm17 1 7.5.5-7.5.5zm8 10 .5.5-2.5 2.5-.5-.5zm-10 10 .5.5-3.5 3.5-.5-.5zm-6 5 .5.5-2.5 2.5-.5-.5zm-5 4 .5.5-2.5 2.5-.5-.5zm-5 4 .5.5-2.5 2.5-.5-.5zm-106 2 1.5.5-2.5 2.5-.5-.5zm101 2-.5 1.5-.5 1.5-.5-1.5zm-3 3 .5.5-3.5 3.5-.5-1.5zm-103 2 .5.5-12.5 12.5-.5-.5zm98 2 .5.5-3.5 3.5-.5-1.5zm-5 4 .5.5-4.5 4.5-1.5.5-.5 1.5-.5-1.5zm-8 7 .5.5-3.5 3.5-.5-.5zm-4 5q1.5 1-1 2l-1.5-.5zm-3 3 .5.5-2.5 2.5-.5-.5zm-4 5-.5 1.5-2.5 3.5.5-1.5zm-11 14 .5.5-2.5 2.5-.5-.5zm-7 4 1.5.5-3.5 1.5v-1zm-18 5 2.5.5-2.5.5zm-5 2 .5.5-2.5 2.5-6 4-.5-.5 3.5-3.5zm-10 7 .5.5-2.5 2.5-.5-1.5z" opacity=".933"/><path fill="#fefefe" stroke="#fefefe" d="M117.5 486q3 .5 2.5 4.5-2.8.7-2 5l2 4v3l4 12 21.5 28.5 9-6 2.5 3.5-14.5 11.5h-2q-1.7 3.3-6 4L101 509.5l-4-7 5-4 .5-1.5z" opacity=".992"/><path fill="#b8b8b8" stroke="#b8b8b8" d="m271.5 305 5.5 3.5.5 1.5 19.5 16.5-10.5 12.5-1.5.5-.5 1.5-.5-1.5 10.5-11.5 1.5-.5-23.5-21.5-12 13-.5-1.5 9.5-10.5 1.5-.5zm66 63 8.5 6.5.5 1.5 9.5 7.5.5 1.5 6.5 5.5-.5 1.5-1.5.5-9.5 11.5-2 1-.5-.5 7-7 6-7-20.5-18.5-4-2-11.5 12.5.5 1.5-1.5-.5 1-3 8.5-9.5 1.5-.5z" opacity=".992"/><path fill="#2964a4" stroke="#2964a4" d="m25.5 541 1 1 1.5-.5-1.5 1.5q-2.5-1-1-2Zm-16 11 1 1 1.5-.5-1.5 1.5q-2.5-1-1-2Zm0 25q2.5 1 1 2l-1-1-1.5.5zm8 13q2.5 1 1 2l-1-1-1.5.5zm84 0q2.5 1 1 2l-1-1-1.5.5zm-29 21q2.5 1 1 2l-1-1-1.5.5zm-32 19 1 1 1.5-.5-1.5 1.5q-2.5-1-1-2Z" opacity=".082"/><path fill="#f36b2a" stroke="#f36b2a" d="m260.5 319 7.5 7.5-.5.5-7.5-7.5zm72 71 3.5 3.5-.5.5-3.5-3.5zm10 9 3.5 3.5-.5.5-3.5-3.5zm-150 9 .5 4.5h-1zm36 1 .5 5.5h-1zm-35 9 .5 2.5h-1zm41 9 4.5 4.5-.5.5-4.5-4.5zm-26 24 5.5 5.5-.5.5-5.5-5.5z" opacity=".996"/><path fill="#c19c99" stroke="#c19c99" d="m272.5 302 2.5 2.5-1 1 .5 1.5-3-2-1 1-1.5-.5-3.5 4.5-.5-.5 2-2 2.5-3.5q1 2 2 0l1.5-.5zm7 6-.5 1.5 2.5 2.5 1.5-.5-1 1 2 2-.5.5-5.5-5.5zm-17 4 1 1 1.5-.5-4.5 4.5-.5-.5q2-1 0-2zm23 2 3.5 2.5q-2.2 1.3.5 2.5l1.5-.5-1 1 2.5 2.5 1.5-.5-1.5 1.5-5.5-5.5.5-1.5q-3.8-.7-2-2Zm11 9 1.5 1.5q-2 1 0 2l.5 1.5 1-2 .5 1.5-2.5 2.5q-1.2-2.2-2.5.5l.5 1.5-1-1-2.5 2.5q2.3 1.2-.5 2.5l-1-1-2 2-.5-.5 9-10q-3.7-1.7-.5-3.5Zm41 42v2l4 3 1.5-.5-1 1 2 2-.5.5-6-5-3 3h-2q-1.5-1 1-2l1 1 2.5-2.5q-2.2-1.2.5-2.5Zm-6 9 .5.5-6.5 6.5q-3-1.5 0-3l1 1 2.5-2.5-.5-1.5q1.5 2.5 3-1Zm17 0q2.8 1.3.5 2.5l2.5 2.5 1.5-.5-1 1 2 2-.5.5-6.5-6.5zm10 9-.5 1.5 4.5 4.5 1-1 2.5 2.5-2.5 1.5-6.5-7.5zm3 10q2.5 1 1 2l-1-1-3.5 3.5.5 1.5-1-1-3 3-.5-.5zm-216 62 .5 1.5-2.5 3.5.5-1.5zm-11 20 .5.5-3.5 3.5q-2.5-1-1-2l1 1zm99 3 .5.5-2.5 2.5-.5-.5zm-105 3 .5.5-2.5 2.5-.5-.5zm-4 4 .5.5-2.5 2.5q-2.5-1-1-2 1.5 2.5 3-1Zm88 13 .5.5-2.5 2.5-.5-.5zm-9 14 1.5.5q-1 2.5-2 1zm-3 2 .5.5-4.5 4.5-.5-.5zm-15 10 2.5.5-2.5.5z" opacity=".055"/><path fill="#fff300" stroke="#fff300" d="m600.5 0 2.5 1.5-1.5-.5-1.5.5q2.3 1.2-.5 2.5l-2-1 .5 1.5-4.5 4.5-2-1v2l-1.5.5q2 1 0 2l-.5 1.5-1.5-2.5 3.5-4.5zm7 0 2.5.5 1 2-1.5 2.5-1.5-2.5.5-1.5q-2.4-.1-1-1Zm4 4 1.5 2.5v12l1 1 1 15 5.5 16.5 4 2L639 66.5l-.5 1.5 1.5.5-.5 1.5-4.5-4.5.5-1.5-2 1-3.5-2.5.5-1.5-6.5-5.5.5-1.5-2 1-1.5-1.5.5-1.5-2 1-2.5-3.5.5-1.5-1.5-.5 1-5h-1l-.5 2.5-1.5-6.5 1-3h-1l-.5 1.5-.5-2.5 1-1v-6h-1l-.5 5.5-.5-5.5 1-1v-7h-1l-.5 5.5-.5-5.5 1-1v-12h-1l-.5 9.5-.5-9.5zm4.5 34-1 3h1zm-28.5-25 1.5 3.5h-1l-.5-1.5-.5 2.5q1.8.8 1 4l-1 3h1l.5-1.5.5 1.5-1 3h1l.5-1.5.5 1.5-.5 1.5 1.5.5-1 4h1l.5-1.5 1.5 3.5v3l-2 3 2 1-1.5.5-2.5-1.5 2-1-.5-1.5-4 2-2.5-1.5 2-1-2.5-.5-3 1v-1l2.5-.5-4.5-.5-3 1v-1l2.5-.5-3.5-.5q-.7 1.8-4 1v-1l3.5-.5-.5-1.5 5 2h4l7 3 .5-3.5-4-11-1-6zm-.5 5-1 3h1zm5 17-1 4h1zm8.5-4q2.5 1 1 2l-1.5-.5z" opacity=".094"/><path fill="#fff300" stroke="#fff300" d="M565.5 33h3l3.5 1.5-3.5 1.5h-3l-2 2-2-1 .5 1.5-1.5 1.5-2-1 .5 1.5-3.5 3.5-1.5.5 1 1-2.5 2.5q-3.2-1.7.5-3.5l5.5-6.5zm.5 1v1h3zm-16.5 13q2.8 1.2.5 2.5l-1 3h2l1 3-.5 1.5 2.5 1.5-.5 1.5 7-1v1l-4.5.5.5 1.5-3-1-.5.5 4 4-1 1-.5 2.5q-.4-5.1-4.5-6.5l.5-1.5-2 1-3.5-2.5.5-1.5-2 1v-2l-1.5-.5 1.5-.5 7 4 .5-.5-2-2 1-3-1.5.5-1.5-1.5-1-4zm51 6q1.5 3.5 3 1l1.5.5-2 1 2.5.5 1.5-.5-1 2h2l-2.5 2.5-.5-.5.5-1.5-5.5-4.5zm-63 5 3.5.5-8.5 10.5-2-1 .5 1.5-9.5 9.5-2.5 1.5 1 1-4.5 4.5-2-1 .5 1.5-3.5 3.5-2-1 .5 1.5-3 3-1 6h1l.5-1.5 5 10 1.5-.5 1 2-.5 1.5 2-1 3.5 4.5-.5 1.5 1.5.5-1 1 .5 1.5-5-7-4.5-3.5-1.5-4.5q-1.3 2.3-2.5-.5l-3-7v-3l14-12 1.5-2.5 1.5-.5L530.5 67l2.5-1.5zM505 93l-1 4h1zm67.5-33 2.5.5-3 1 4 1-3.5.5-1-1-4.5-.5 4.5-.5z" opacity=".094"/><path fill="#fff300" stroke="#fff300" d="m558.5 61 4.5.5-4.5.5zm19 0 2.5.5-2.5.5zm4 1 2.5.5-3 1 4.5.5 3-1v1l-2.5.5 3.5.5q.8-1.7 4-1v1l-3.5.5 4.5.5 3-1 5.5 3.5q-.5 3.5 2 4l-.5 1.5 2-1 2.5 2.5-.5 1.5 2-1 5.5 6.5-.5 1.5 4.5 2.5-2 1 2.5.5 1-1h6l2 1-.5-1.5 2.5-2.5 2 1-.5-1.5 1.5-1.5 2.5 1.5-9.5 6.5h-6l-3-1-4.5-4.5-4.5-6.5q-5.8-2.7-9.5-7.5l-.5-1.5-5-2h-4l-1-1-8-1-3.5-1.5zm14.5 4v1h2zm26 22v1h6zm-8.5-23 2 1 3-1 1.5 2.5-3 1 3.5.5q1.3-2.2 2.5.5l-5.5.5-3.5-1.5.5-1.5-1.5-.5zm3.5 1v1h2zm-59.5 1 .5 8.5-20 19-1 2 .5 1.5-2 1 .5-1.5-1-1v-2L550.5 79q1.3 2.3 2.5-.5l2.5-4.5 1.5.5zm81 9 1.5 2.5-1.5 3.5-2.5-.5 1.5-3.5 1.5.5zm-76 1 6 1 5.5 5.5 4 9-6.5 8.5-1.5.5-2.5 3.5-1.5-.5-.5 2.5-7.5 6.5.5 5.5 4.5 1.5-2.5.5-3-1v1l1.5.5-1.5.5-1.5-2.5q2-1 1-5l-1-2 7.5-7.5 1.5.5 4.5-5.5 1.5-.5-1-1 5-5 1-4h-2l1-2h-2l1-2-1.5.5-1.5-1.5-2.5-3.5-1.5-.5 2-1-2.5-.5q-.7 1.8-4 1l-3.5-1.5zm.5 1v1h3z" opacity=".094"/><path fill="#fff300" stroke="#fff300" d="M557.5 80q1 2 2 0l1.5.5-6 4 1 1-4.5 4.5-1.5-1.5 4-4zm-9 9q3 1.5 0 3l-1.5.5 1 1-2.5 2.5-1.5-1.5 3-3zm38 5q11.6 3.4 17.5 12.5-.7 4.2 1 6L593.5 124l-1.5-.5v2l-3.5 3.5-6.5 5.5v2l-6.5 6.5-1.5.5-2 6-1.5 1.5q-1-2-2 0l-1.5-.5 2-1 .5-1.5 1.5.5-1-2h2l-1-2 3-2-.5-1.5 2 1-.5-1.5 6-6-1-1 7.5-7.5 1 1 2.5-2.5 11-12q1.7-1.8 1-6h-1l-.5 1.5-6.5-7.5.5-1.5-2 1-1.5-1.5.5-1.5-3 1v-1l1.5-.5-2.5-.5-5.5 3.5-10.5 11.5-1.5.5 1 1-3 3-2.5 3.5-2-1v2l-3.5-1.5 6-3 2-4L580.5 99l4.5-1.5-2-1zm-43 2 1.5 1.5-2.5 2.5-3 1v-3l1 1zm-52 11h6l4.5 4.5 1 2-.5 1.5 2-1 26.5 26.5-.5 1.5h2l8.5 8.5 1.5 2.5 8.5 7.5q1.3 5.3-1.5 6.5l-2.5-.5 1-1v-7l-1.5.5-3.5-3.5-.5-1.5-1 1-4.5-4.5 1-1-4.5-4.5-32.5-30.5.5-1.5-3.5-2.5q2.3-1.2-.5-2.5l-6.5.5 6 1-5.5.5-3-1v1l1.5.5-2.5 1.5-2-1v2l-1.5.5.5 1.5-1.5-.5 1 2-3.5 5.5-1.5.5q1.8.8 1 4l-1 2h2l-.5 1.5 1.5.5-.5 1.5 2-1 3.5 3.5-.5 1.5 2-1 3.5 3.5-.5 1.5 2-1 3.5 3.5-.5 1.5 2-1 2 2 9.5 4.5-1.5.5-3-2-6 2v-1l1.5-.5-2.5-.5-2 1v-1l1.5-.5-2.5-.5-3 1v-1l2.5-.5-3-1 2.5-.5 3 1v-1L478 129.5l1-6h-1l-.5 2.5-.5-2.5 6-11 2.5-2.5zm58.5 53-1 6h1zm-4.5-51 3.5.5-1.5 1.5-1-1-1.5.5zm-16 2 4.5 3.5-.5 1.5-2.5-1.5q2.3-1.2-.5-2.5l-1.5.5zm26 4 .5 2.5h-1zm-34 2 4.5 3.5q-2.2 1.3.5 2.5 1.3-2.3 2.5.5l-.5 1.5 2.5 1.5-.5 1.5 3 1 23 23h5l3.5 1.5-3.5 1.5h-5q-2.8-1.2-.5-2.5l-2.5-2.5-1 1-19-19-4.5-3.5q-1.7-4.8-5.5-7.5l-2.5-1.5 1-1zm35.5 36v1h5z" opacity=".094"/><path fill="#fff300" stroke="#fff300" d="m574.5 120 2.5.5-1 1 .5 1.5-1.5-.5zm-32 5 3.5.5-3.5.5zm15 7 4.5.5-4.5 1.5zm6 1 2.5 1.5-6.5.5v-1q3.3.8 4-1Zm-101 3 1.5.5-2 1 2 1-3.5 2.5-2-1q-2.7 1.3-.5 2.5l-8.5 8.5-1.5-1.5 10.5-10.5zm48 0 1.5.5-.5 1.5q-2.5-1-1-2Zm-45 1 8.5 2.5-4.5 1.5v-1l1.5-.5-2.5-.5-3 1v-1l2.5-.5-2.5-.5zm10 3 4.5 1.5-4.5 1.5v-1l2.5-.5-2.5-.5zm7 2 8.5 2.5-4.5 1.5v-1l1.5-.5-2.5-.5-3 1v-1l2.5-.5-2.5-.5zm-17 8 2.5 1.5-2 1 .5 1.5-2.5-1.5zm37 0 4.5.5-4.5.5zm13 0 2.5 1.5 1 2-2 1 2 1-2.5.5-.5-1.5.5-1.5-1.5-.5zm-68 1 1.5 2.5-1.5 4.5-1-3-.5 5.5 3 2-.5 1.5 2-1 1.5 1.5-.5 1.5 2-1 3.5 3.5-1.5 1.5-9.5-7.5q-2-2.5-1-8zm117 0 4.5 1.5-2.5.5-2.5-1.5zm-39 3 2.5 1.5-1.5-.5q-2.4-.1-1-1Zm0 2 2 2 1.5-.5-.5 1.5 3.5 2.5-1 2 1.5-.5 1.5 1.5-.5 1.5-1-1-1.5.5-2-4 .5-1.5-4.5-3.5zm-41 1q3.8-.7 4.5 1.5l-1.5-.5q-4 .8-3-1Zm-21 2 2.5.5-2.5.5zm1 2 5.5 1.5-2.5 3.5-2.5-2.5.5-1.5q-2.4-.1-1-1Zm48 0 1.5 2.5-1.5.5zm6 1 2.5 1.5-.5 1.5-1.5.5.5 1.5q-2.7-1.2-1-5Zm-36 4 7.5.5-7.5 1.5zm9 1 1.5.5-2 1 2.5.5 2-1v1l-1.5.5 2.5.5 2-1v1l-1.5.5 2.5.5 2-1v1l-1.5.5 2.5.5 2-1v1l-1.5.5 2.5.5 2-1v1l-1.5.5 2.5.5 2-1v1l-1.5.5 2.5.5 2-1v1l-1.5.5 2.5.5 2-1v1l-1.5.5 2.5.5 2-1v1l-1.5.5 2.5.5 2-1v1l-1.5.5 2.5.5 2-1v1l-1.5.5 9.5.5v-1l-3.5-.5 3.5-.5 2 1v-2l2 1-.5-1.5 1.5-1.5 2-1q1.3 2.3 2.5-.5l-1-1 4.5-4.5 1 1 1.5-.5-9.5 9.5-6 3h-9l-29-10q-1.5 1 1 2 12.1 7.9 21.5 18.5v9q-3.1 6.4-8.5 10.5l-4 2h-4q-2.5-1-1-2 1 2 5 1v-1l-1.5-.5 1.5-.5 2 1v-2l2 1-.5-1.5 3.5-3.5 1.5-.5q-2.2-1.2.5-2.5l1.5-.5-1-3h1l.5 2.5.5-9.5h-1l-.5 1.5-.5-1.5q2.3-1.2-.5-2.5l-1 1-4.5-4.5.5-1.5-2 1-5-6-1 1-3.5-3.5.5-1.5-2-1-1 1-3-3-3.5-1.5 2-1-2.5-.5-1.5.5zm-34 4 11 10 1-1 5 5 2.5 1.5-1 2 1.5-.5 9.5 9.5-1.5 1.5-13-13-15.5-14.5zm-27 6h17l9.5 6.5q-1 2.5-2 1l.5-1.5-2 1-3.5-2.5.5-1.5-2 1-1-1h-17l-3-1v1l1.5.5-3.5 1.5-2.5-1.5zm.5 1v1h17zm-11.5 4v3l-2-1 .5 1.5-1.5 1.5-2-1 .5 1.5-2.5 2.5-4 3-2-1 .5 1.5-4 4-.5 1.5-1-2-.5 2.5 1 2h-1l-.5-1.5-1 2-.5-1.5 1-3 6.5-6.5z" opacity=".094"/><path fill="#fff300" stroke="#fff300" d="m490.5 184 3.5 2.5-.5 1.5-3.5-2.5zm-30 1 5.5 4.5 10 12v2l3 4 1 3v5l1 1v4h-1l-.5-4.5-1 3-.5-2.5q2.3-1.3 1-6h-1l-.5 3.5-.5-3.5 1-3h-1l-.5 1.5-.5-1.5 1-2h-2l.5-1.5-2.5-1.5-4-5 .5-1.5-5.5-4.5.5-1.5-3.5-2.5.5-1.5-2 1q-1.5-1 1-2Zm-25 5 1.5 2.5-1.5.5zm63 1 1.5.5-.5 1.5 3-1 .5 2.5q-.5 2-3.5 1.5v-2l-1.5-.5zm-52 3 3.5.5-1 3 2 1-.5 1.5-2-1-1.5.5.5-1.5-1.5-.5zm-34 3q2.5 1 1 2l-1.5-.5zm75 2q1 2 2 0l5.5 5.5-.5 1.5 3.5 2.5-.5 1.5 3-1v1l-3 1-8-9-2.5-1.5zm-89 4 .5 2.5h-1zm2 0 .5 2.5h-1zm34 0h2l3.5 2.5-2.5 1.5q-.7-1.7-4-1l-7.5 3.5-1.5 5.5-1.5-6.5 4.5-2.5 2 1v-2l3 1v-1l-1.5-.5 1.5-.5q.8 1.8 4 1v-1q-3 .5-2-1Zm7 3v2l2-1 1.5 1.5-.5 1.5 2-1 1.5 1.5-.5 1.5 2-1q3 1.5 0 3l-9.5-6.5zm-44 1 .5 10.5h-1zm2 0 .5 4.5h-1zm23 5 .5 5.5h-1zm29 2q2.8 1.3.5 2.5l.5 1.5q1.3-2.3 2.5.5l1 5h-1l-.5-1.5-.5 2.5 1 2h-1l-.5-1.5-.5 2.5 1 3-2.5 3.5-2.5-1.5 2-2 2-6v-4l-3-5zm1.5 14-1 3h1zm-44.5-13q2.5 1 1 2l-1.5-.5zm16 1 .5 2.5-1 2 5.5 10.5h2l8 4h3l5-2v1l-1.5.5 2 1-1.5.5-3-1v1l1.5.5-1.5.5q-.7-1.7-4-1v1l2.5.5-2.5.5-2.5-1.5 2-1-2.5-.5-1.5.5.5-1.5-3 1-2.5-1.5 2-1-2.5-.5q-1.2 2.3-2.5-.5l1-2h-2l1-2h-2l1-2h-2l1-2h-2l1-2h-2zm-11 3 .5 1.5-1.5.5q-1.5-1 1-2Zm55 3 .5 3.5-1.5.5-.5-1.5zm11 0 .5 8.5 1 3-3.5 7.5-1.5-3.5 1.5-2.5 1.5.5-1-3 1-1zm2 0 .5 7.5h-1zm-84 1 1 5 1-2 .5 1.5-1 3h1l.5-1.5.5 1.5-1 2h2l4 8-1 2 1.5-.5 1.5 1.5-.5 1.5 2.5 1.5-.5 1.5 1.5.5.5 1.5 1-1 3.5 3.5-.5 1.5 2-1q3 1.5 0 3l-9.5-7.5-6-9q-.9-5.6-4-9l-1-3zm-20 4q4-.5 4.5 2.5l.5 1.5 1.5.5 6.5 7.5 4.5 3.5v2l15.5 15.5 15.5 13.5 1 2-1 1 .5 1.5-2.5-2.5.5-1.5-3.5-2.5.5-1.5-2 1-8-9-1 1-14.5-14.5q2.2-1.2-.5-2.5l-2-1-1.5.5q.8-3.2-1-4l.5-1.5-2 1-7.5-7.5.5-1.5q-3-3-9-3v1l1.5.5-1.5.5-2-1 .5 1.5-1.5 1.5-2-1 .5 1.5-4.5 4.5.5-1.5-1-1 4.5-4.5 5-3q3.2.8 4-1Zm.5 1v1h2zm37.5 5 2.5 1.5 2 3h-3v-2l-2-2zm-53 3 .5 1.5q-2 1 0 2l-4.5 4.5-1.5.5q2 1 0 2l-.5 4.5-.5-4.5-1-1zm58 6 3.5.5q-.5 2-3.5 1.5z" opacity=".094"/><path fill="#fff300" stroke="#fff300" d="M376.5 244q2.5 1 1 2l-1.5-.5zm57 0 2.5.5-2.5.5zm40 0 1 1 1.5-.5-2.5 1.5zm-24 1 1.5.5-.5 1.5 2-1-.5 1.5 1 1-1.5 1.5-2.5-.5zm-16 1 2.5.5-.5 3.5-2.5-.5 2-1-2-1zm38 0 2.5 1.5-14.5 12.5-2.5-1.5 2.5-1.5q1 2 2 0l1.5-.5-1-1zm-117 1 .5 4.5 2 3-1 2h2l-.5 1.5 2.5 1.5 1 2-1 2h2l2 4-.5 1.5 2.5 1.5-.5 1.5 2.5 1.5-.5 1.5 2.5 1.5-.5 1.5 3.5 1.5-2.5 1.5-10.5-14.5-1-4-6-9h2q-2-2.3-.5-6.5Zm16 1 .5 5.5 1 1q-1 2.5-2 1l.5-1.5-2 1 .5-1.5-1-1q-.5-4 2.5-4.5Zm13 2 3.5.5-3.5.5zm37 5 3.5 2.5-2.5 1.5-2.5-2.5zm5 3v2l3-1 3.5 1.5-3 1 4 1-3.5.5-1.5-1.5.5-1.5-3 1q-3-1.5 0-3Zm-45 1 2.5 2.5-.5 1.5 5.5 4.5-1 1 3.5 3.5 1-1 7.5 7.5-1 2 1.5-.5 3.5 3.5-.5 1.5 4.5 3.5-.5 1.5 6.5 5.5-.5 1.5 3-1h5l2 1-.5-1.5 3.5-3.5 1.5.5.5-1.5 1.5-.5-1-2h1l.5 1.5.5-2.5-1-2h1l.5 1.5.5-2.5q-1.7-.7-1-4l-2-2 1-1-.5-1.5 1.5 1.5q-2.2 1.3.5 2.5l1.5-.5q-1.7.8-1 4h1l.5-2.5.5 2.5-3.5 8.5-1.5.5-.5 1.5-5 4-4 1v-1l2.5-.5-5.5-.5v1l1.5.5-1.5.5-3-1-5.5-5.5-.5-1.5-1.5-.5-13.5-16.5-.5 1.5 14 19 6 11-2 3-1 5-1.5 1.5-1.5-2.5h2l-1-3 1.5-2.5 1.5.5-4-8 1-2-1.5.5-2.5-2.5-2-3 1-2-1.5.5-1.5-1.5.5-1.5-3.5-2.5-2-3 .5-1.5-2.5-1.5.5-1.5-3.5-2.5-2-3 1-2h-2l.5-1.5-2.5-1.5.5-1.5-3.5-2.5q2.5-1.5-1-3zm74 0 3.5 1.5-5.5 2.5h-3v-1l3.5-.5-3-1 2.5-.5 3 1v-1q-2.4-.1-1-1Zm-20 2 13.5.5-13.5.5zm0 2 13.5.5-13.5.5zm-95 1v2l2-1v3q-1.7-2.8-7-2v1l2.5.5-2.5.5-3.5-1.5 3.5-1.5h4zm4 2 10.5 7.5q-1.5 3-3 0l.5-1.5-2 1-6.5-4.5 1-1zm-14 2 3.5.5-3 1 1 1-4.5 4.5-2 1-.5-1.5z" opacity=".094"/><path fill="#fff300" stroke="#fff300" d="m355.5 274 3.5 2.5-.5 1.5 2-1 13 10 3 1 .5-.5-2-2-3-4 1.5.5 1-1 2.5 2.5-.5 1.5 2.5 1.5-1 2h2l-.5 1.5 2.5 1.5 1 4-3.5.5.5-1.5-3.5-3.5q-4.6-.9-6.5-4.5l-.5-1.5-1 1-3.5-3.5.5-1.5-2 1-6.5-4.5.5-1.5-2 1q-3-1.5 0-3Zm-33 2 1.5 1.5-4.5 4.5-2.5-1.5zm-5 6 .5 9.5 3 4-.5 1.5 2-1 3.5 3.5-.5 1.5q3.9.6 5.5 3.5l1.5 2.5 1-1 11.5 11.5-1.5-.5-1 1-9-9-3.5-2.5-.5-2.5-2 1-6-7-2.5-1.5q2.3-1.2-.5-2.5l-2.5-.5-1-3v-7h1l.5 7.5zm29 6 5.5 4.5-1 1 2 2-.5.5-4-5q-1.2 2.3-2.5-.5l1-1zm-10 2 1.5.5-.5 1.5 3-1 .5 3.5-2.5 1.5-2.5-3.5zm19 4-.5 1.5.5 1.5q2.2-4.2 4.5.5l-2.5 2.5-3.5-3.5zm6 4v2l2-1v2l2-1 4.5 4.5-.5 1.5 2-1 3.5 2.5-.5 1.5 2-1v2l2-1 6.5 5.5-.5 1.5 2-1 1.5 1.5-.5 1.5 3-1v1l-1.5.5 4.5.5 2-1v1l-1.5.5 2 1-1.5.5-1-1q-4.2.7-6-1-7.4-7.6-18-12l-.5 1.5 7.5 6.5 7.5 4.5q-1 2.5-2 1l.5-1.5-2 1-3.5-2.5.5-1.5-2 1-1.5-1.5.5-1.5-2-1-1 1-5.5-5.5-.5-1.5-5.5-4.5-1-2zm2.5 4q-2 1 1 2h1zm3 2v3q3-1 0-3Zm-14.5 5 2.5.5-2.5 1.5zm8 5 3.5.5-3.5.5zm43 0 1.5 1.5-2.5 2.5-2.5-1.5zm-6 3 2.5 1.5-1.5-.5q-2.4-.1-1-1Zm-53 2 2 1 1-1 2.5 2.5-.5 1.5 3.5 2.5-1 1 .5 1.5-8.5-8.5z" opacity=".094"/><path fill="#fff300" stroke="#fff300" d="m384.5 321 2.5.5v3l2 5q-.5 2-3.5 1.5l-.5-.5 2-2-.5-3.5-1 3-.5-2.5 1-3h-1l-.5 1.5zm-17 5 4.5.5-4.5.5zm-11 2v2l4.5 3.5q-2.2 1.2.5 2.5l1-1 4.5 4.5-1.5 1.5-5-5-1.5-.5-5-6zm28 4 2.5.5-5.5 6.5-4 3-7 3q-2.5-1-1-2 1 2 2 0l1.5-.5-2-1 1.5-.5 3 1v-1l-1.5-.5 7-3-1-1z" opacity=".094"/><path fill="#ff4800" stroke="#ff4800" d="m563.5 61 3.5.5-3.5.5zm-20 34 1.5.5-2.5 1.5q-1.5-1 1-2Zm5 72 1.5.5-2.5 1.5q-1.5-1 1-2Zm-91 2 .5 1.5-1.5.5q-1.5-1 1-2Zm-27 109 1.5 2.5q-1 1.5-2-1zm-174 40 1 1 1.5-.5-15 14 1 1-21.5 21.5-2.5 1.5 1 1-5.5 5.5-1.5.5 1 1-4.5 4.5-1.5.5 1 1-2.5 2.5-1.5.5 1 1-2.5 2.5-1.5.5q2.3 1.3-.5 2.5l-1.5.5q2.3 1.3-.5 2.5l-1.5.5q2 1 0 2l-4.5 9.5-1.5-.5 1 3-1.5 3.5-1-2-.5 2.5 1 3h-1l-.5-2.5-1 3-.5-2.5 7-17 8-12 15-18zm111 22 1.5 2.5-1.5-.5-1.5-.5zm-85 4 1.5.5-41 42-7 10-3 6v2l-1.5 1.5-1-1-1.5.5 1.5-2.5 1.5-.5-1-2 2.5-3.5 1.5-.5q-2-1 0-2l2.5-3.5 1.5-.5-1-1 2.5-2.5 1.5-.5-1-1 10.5-10.5 6.5-5.5-1-1 21.5-21.5zm39 39 1.5 2.5-7 6 1 1-4.5 4.5-1.5.5 1 1-5.5 5.5-1.5.5 1 1-20.5 20.5-1.5-.5-3.5 4.5-2-1 .5 1.5-1.5 1.5-2-1 .5 1.5-1.5 1.5-2.5-1.5 12.5-8.5 19.5-19.5zm30 22-.5 1.5-1.5 2.5-1.5.5-3.5 5.5-1.5.5-11 14-27.5 27.5-5 4 .5-1.5-1-1 3.5-3.5q1 2 2 0l1.5-.5-1-1 23.5-23.5 2.5-1.5-1-1 6.5-6.5 1.5-.5-1-1 4.5-4.5 2.5-1.5-1-1 3.5-3.5 3.5-1.5zm-103 30 2.5.5-3.5 1.5q-1.5-1 1-2Zm1 2 2.5.5-2.5.5zm47 23 1.5 1.5-3.5 3.5-10 6-2.5-1.5 2.5-1.5 2 1v-2l2 1-.5-1.5 1.5-1.5 2 1-.5-1.5 1.5-1.5 2 1-.5-1.5zm-18 11 2.5 1.5-9.5 4.5-8 1v-1l4.5-.5-3-1 2.5-.5q.8 1.7 4 1v-1l-2.5-.5 2.5-.5 3 1v-1l-1.5-.5 3.5-1.5 2 1zm-36 3 1.5.5-2 1 3.5.5 3-1v1l-2.5.5 4.5.5 1-1h10v1l-10.5.5 11 1-10.5.5-1-1-8-1-2.5-1.5z" opacity=".067"/><path fill="#f8dec9" stroke="#f8dec9" d="m290.5 336 .5.5-2.5 2.5-.5-.5zm48 29 3.5 3.5-.5.5-3.5-3.5zm21 19 3.5 3.5-.5.5-3.5-3.5zm5 8q1.5 1-1 2l-1.5-.5zm-3 3 .5.5-2.5 2.5-.5-.5zm-4 4 .5.5-3.5 3.5-.5-.5zm-169 5v2l1.5.5-1.5.5-2.5-1.5zm47 2 2.5.5-4.5 1.5v-1zm-54 1 2.5 1.5-1.5-.5q-2.4-.1-1-1Zm58 0 4.5 2.5q-1 2.5-2 1l.5-1.5-2 1v-2q-2.4-.1-1-1Zm-61 1q1.5 1-1 2l-2 1q-1.5-1 1-2zm-5 3q2.5 1 1 2l-1-1-1.5.5zm-3 2q2.5 1 1 2l-1-1-1.5.5zm81 5 .5 2.5h-1zm-91 4q2.5 1 1 2l-1.5.5q2.3 1.3-.5 2.5l-1.5-.5 1 2q-1 1.5-2-1zm91 2 .5 2.5h-1zm-1 4 .5 2.5q-1 2.5-2 1zm-95 2 1.5 2.5-2 1 1 2h-2l-.5 1.5-.5-1.5zm92 2 1.5 2.5h-1zm21 0 2.5.5-2.5.5zm-11 1 1.5.5-2 1 2 1-1.5.5-2.5-1.5zm-105 5 1.5 2.5h-2l-.5 1.5-.5-1.5zm-2 5 1.5 2.5h-2l-.5 1.5-.5-1.5zm-4 10 1.5 2.5q-1 1.5-2-1zm-2 6 1.5.5-2 1 .5 1.5-1.5-.5 1 2q-1 2.5-2 1 2-1 0-2zm-4 5 .5 1.5-4.5 5.5-.5-.5 2-2zm-5 8 1.5.5-5.5 4.5-.5-.5zm103 2 1.5 1.5-2.5 2.5q-2.5-1-1-2 1.3 2.3 2.5-.5zm-109 4q3 1.5 0 3l-1-1-3.5 3.5.5 1.5-1-1-2 2-.5-.5zm106 0 .5.5-4.5 4.5-12 10v-3l1 1 3-3 1.5-.5-.5-1.5q1.3 2.3 2.5-.5l-.5-1.5 1 1 3-3zm-119 6q4-.5 4.5 2.5l1 2q-1 2.5-2 1l.5-1.5-2.5-1.5.5-1.5-2.5.5q2.3 1.3-.5 2.5l-1.5-.5-2.5 3.5-1.5-.5-2.5 3.5-1.5-.5-2.5 3.5-2.5-1.5zm101 10 .5.5-2 2-.5 1.5-2.5-.5zm-4 5 .5.5-2 2-2.5 3.5q-2.5-1-1-2l1.5.5zm-11 13-.5 1.5 1 1-5.5 5.5-.5-.5 5-5q-2.2-1.2.5-2.5Zm-12 9 2.5 1.5-4.5 1.5q-2.5-1-1-2l3 1zm-11 3 5.5 1.5-2.5.5-3-1zm-11 3 3.5 1.5-2.5.5-4 3q-2.5-1-1-2 1 2 2 0l1.5-.5q-2.2-1.3.5-2.5Zm5 0 3.5.5-3.5.5zm-12 5 1 1 1.5-.5-2.5 2.5-.5-.5 1-1zm-2 3 .5.5-2 2 1 4-13.5 10.5q-3-1.5 0-3 1 2 2 0l1.5-.5q-2.2-1.2.5-2.5 1 2 2 0l1.5-.5q-2.2-1.2.5-2.5l2 1-.5-1.5 2-2-1-1 1-1-.5-1.5z" opacity=".051"/><path fill="#0000d9" stroke="#0000d9" d="m98.5 491 2.5 1.5-1.5-.5q-2.4-.1-1-1Z" opacity=".004"/><path fill="#aaa" stroke="#aaa" d="M270.5 306q1 2 2 0l4 4 1.5-.5-1 1 3.5 3.5 15.5 13.5-2 1-7 8 .5 1.5q-1.3-2.2-2.5.5l.5 1.5q-1-2-2 0l-8-8-1 1-6.5-6.5 1-1-3.5-3.5-4.5-3.5 10-11zm65 64q1 2 2 0 5.2 1.8 8 6l1.5-.5-1 1 4.5 4.5 5 4 1.5-.5-1 1 4.5 4.5 1.5.5-1 1 .5 1.5-1-1-4.5 4.5-6 7q2.3 1.3-.5 2.5l.5-1.5-1.5-1.5q-1.2 2.3-2.5-.5 2.3-1.3-.5-2.5l-6-5-1 1-2.5-2.5q2.3-1.2-.5-2.5l-6-5-1 1-2.5-2.5 1-1-2-2 .5-.5 1 1 3.5-3.5 6-7z" opacity=".973"/><path fill="#315aac" stroke="#315aac" d="m132.5 567 .5.5-2.5 2.5-.5-.5zm-18 13 .5.5-2.5 2.5-.5-.5zm-29 21 .5.5-2.5 2.5-.5-.5zm-18 13 .5.5-2.5 2.5-.5-.5zm-11 8 .5.5-2.5 2.5-.5-.5zm-11 8q1.5 1-1 2l-1.5-.5z" opacity=".569"/></svg>