<svg xmlns="http://www.w3.org/2000/svg" viewBox="0 0 640 470"><path fill="#393637" stroke="#393637" d="m559.5 10 .5 6.5h-1l-.5-1.5-3.5 2.5q2.3 1.3-.5 2.5l-1.5.5 1 1-2.5 2.5-1.5.5 1 1-2.5 2.5q-2.7-1.2-.5-2.5l-.5-1.5-1.5.5 1-2-3.5-1.5v2l-2-1v2l-2-1v2l-2-1-1 2-1.5-.5-.5 1.5-1.5-.5-.5 1.5-2-1v2l-2-1v2l-3 1-1.5-.5-.5 1.5-1.5-.5-.5 1.5-2-1v2l-2-1v2l-2-1v2l-2-1v2l-2-1-1 2-1.5-.5-.5 1.5-2-1v2l-2-1v2l-2-1v2l-2-1v2l-2-1-1 2-1.5-.5-.5 1.5-2-1v2l-2-1v2l-2-1v2l-3 1-1.5-.5-.5 1.5-2-1v2l-2-1v2l-2-1v2l-2-1v2l-2-1-1 2-1.5-.5-.5 1.5-2-1v2l-2-1v2l-2-1v2l-2-1v2l-2-1-1 2-1.5-.5-.5 1.5-2-1v2l-2-1v2l-2-1v2l-3 1-1.5-.5-.5 1.5-1.5-.5-.5 1.5-2-1v2l-2-1v2l-2-1v2l-3 1-1.5-.5-.5 1.5-1.5-.5-.5 1.5-2-2-1.5.5 1.5-1.5 1.5.5.5-1.5 2 1v-2l2 1v-2l2 1v-2l3-1 1.5.5.5-1.5 1.5.5.5-1.5 2 1v-2l2 1v-2l2 1v-2l2 1 1-2 1.5.5.5-1.5 2 1v-2l2 1v-2l2 1v-2l2 1v-2l3-1 1.5.5.5-1.5 2 1v-2l2 1v-2l2 1v-2l3-1 1.5.5.5-1.5 1.5.5.5-1.5 2 1v-2l2 1v-2l2 1v-2l3-1 1.5.5.5-1.5 1.5.5.5-1.5 2 1v-2l2 1v-2l2 1v-2l2 1 1-2 1.5.5.5-1.5 1.5.5.5-1.5 2 1v-2l2 1v-2l2 1v-2l2 1 1-2 1.5.5.5-1.5 2 1v-2l2 1v-2l2 1v-2l2 1v-2l2 1 1-2 1.5.5.5-1.5 2 1v-2l2 1v-2l2 1v-2l2 1v-2l2 1 1-2 1.5-.5-.5-1.5-1.5.5-2-5 1.5-.5v2q4.8 1.3 6-1h8v1l-4.5.5 5.5.5 1.5-1.5zm-161 39q.8 1.8 4 1l1-1 2.5 2.5-1 2h2l-1 2h2l-.5 1.5-4.5-2.5-.5-1.5q-.8 1.8-4 1l-3 3-1.5-2.5h1l.5 1.5 1.5-1.5-2-2 .5-.5 1.5.5.5-1.5 1.5-.5zm-5 9 1.5.5-.5 1.5-1.5-.5zm15 0 .5 2.5-1.5 3.5-.5-2.5zm1 4 .5 2.5q-1 2.5-2 1z" opacity=".914"/><path fill="#393637" stroke="#393637" d="m410.5 66 .5 2.5-1 3h2l-1.5 5.5-2-2-.5.5 1 2h-2l1 2h-2l1 2h-2l1 2h-2l1 2h-2l1 2h-2l1 2-2 1 .5 1.5-1.5.5.5 1.5-1.5.5.5 1.5-1.5.5 1 2-1.5-.5-1 1-4.5-.5 2-1-.5-1.5 1.5.5-1-2h2l-1-2 2-1-.5-1.5 1.5-.5-.5-1.5 1.5-.5-1-2 2.5-4.5 1.5.5-1-2h2l-1-2h2l-1-2h2l-1-2h2l-1-2h2l-1-2h2l-1-2 1.5.5 1.5-.5zm2 9 .5 2.5-1.5 3.5-.5-2.5zm1 5 .5 2.5-1.5 3.5-.5-2.5zm1 4 .5 2.5-1.5 3.5-.5-2.5zm1 4q.8 5.3 4.5 7.5l-.5 1.5 3-1 2 1-.5-1.5 2.5-2.5q2 .5 1.5 3.5h-2l-1 2 .5 1.5-2-1v2l-4.5-.5.5-1.5-2.5-1.5-.5-1.5-1.5.5 2-3-1.5-2.5-1 3-.5-2.5zm-36 3 1.5.5-2 1 1.5 1.5 1.5-.5-4.5 2.5-1.5-.5-.5 1.5-2-1v2l-2-1v2l-2-1v2l-2-1-1 2-1.5-.5-.5 1.5-2-1v2l-2-1v2l-2-1v2l-2-1-1 2-2-1v2l-2-1v2l-2-1v2l-2-1-1 2-1.5-.5-.5 1.5-2-1v2l-2-1v2l-2-1v2l-2-1-1 2-2-1v2l-2-1v2l-2-1v2l-2-1v2l-2-1-1 2-2-1v2l-2-1v2l-2-1v2l-2-1-1 2-1.5-.5-.5 1.5-2-1v2l-2-1v2l-2-1v2l-2-1-1 2-2-1v2l-2-1v2l-2-1v2l-2-1-1 2-1.5-.5-.5 1.5-2-1v2l-2-1v2l-2-1v2l-2-1-1 2-2-1v2l-2-1v2l-2-1v2l-3 1-1.5-.5-.5 1.5-2-1v2l-2-1v2l-2-1v2l-2-1-1 2-1.5-.5-.5 1.5-1.5-.5-1 3h2l-1 2h2l-1.5 2.5-5.5-.5 5-1-8.5-.5-1 1-5.5.5v9l-1.5 1.5-.5-28.5q1-2.5 2-1l.5 16.5 3.5-2.5q-2.3-1.2.5-2.5l1.5.5 1-2q-2.3-1.2.5-2.5l1.5.5.5-1.5 2-1-.5 1.5.5 1.5 1.5-.5-1 2 1.5-.5 2 1 1-2 2 1v-2l2 1v-2l3-1 1.5.5.5-1.5 2 1v-2l2 1v-2l2 1v-2l2 1 1-2 1.5.5.5-1.5 2 1v-2l2 1v-2l2 1v-2l2 1 1-2 2 1v-2l2 1v-2l2 1v-2l2 1 1-2 1.5.5.5-1.5 2 1v-2l2 1v-2l2 1v-2l2 1 1-2 1.5.5.5-1.5 2 1v-2l2 1v-2l2 1v-2l2 1 1-2 2 1v-2l2 1v-2l2 1v-2l2 1 1-2 1.5.5.5-1.5 2 1v-2l2 1v-2l2 1v-2l2 1 1-2 2 1v-2l2 1v-2l2 1v-2l2 1 1-2 1.5.5.5-1.5 2 1v-2l2 1v-2l2 1v-2l2 1 1-2 2 1v-2l2 1v-2l2 1v-2l2 1 1-2 1.5.5.5-1.5 2 1v-2l2 1v-2zm221 23h12l2 2 1.5-.5-3 2q2.3 1.3-.5 2.5l-1.5.5q2.3 1.3-.5 2.5l-1.5.5q2.3 1.3-.5 2.5l-1.5.5q2.3 1.2-.5 2.5l-1.5-.5 1 2-2.5 1.5v-1l1.5-.5-2-1-.5-1.5-1.5.5 1-2-1.5.5-1-1-2-1-2.5 1.5.5 1.5-2-1v2l-1.5-.5-.5 1.5-1.5-.5-1.5 2.5-2-1v2l-1.5-.5-.5 1.5-1.5-.5-1.5 2.5-1.5-.5 1-2-.5-1.5 2 1v-2l1.5.5 1.5-2.5 2 1v-2l2 1v-2l1.5.5 1.5-2.5 2-1 2 1v-2q1.3 2.2 2.5-.5l-.5-1.5-1.5.5 1-2h-2l1-2h-2l1.5-1.5 10.5-.5-6.5-.5zm-24 21 1.5 2.5-1.5-.5-1.5.5.5 1.5-2-1 .5 1.5-1.5 1.5-1.5-1.5 1-1-.5-1.5zm-8 4 2.5 2.5-.5.5-1.5-.5-.5 1.5-2-1-1.5 1.5.5 1.5-2.5-1.5 1.5-2.5q3.5.5 4-2Zm-9 5 2.5 1.5-.5 1.5-1.5-.5-1.5 2.5v-2l-2.5 1.5.5 1.5-2.5-2.5.5-.5 1.5.5.5-1.5zm-9 5 2 1q1.2-2.3 2.5.5h-2l-1.5 2.5-3-1-1.5 1.5.5 1.5-1.5-.5-.5 1.5q-2.5-1-1-2l1.5-.5-.5-1.5zm-12 7q3.3-.7 4 1l1.5-.5q-1.2 2.8-2.5.5l-1.5.5.5 1.5-1.5-.5-.5 1.5-1.5-.5-.5 1.5-.5-1.5 1-1-.5-1.5 2 1zm-11 6 2.5 1.5-1.5 2.5-2-1v2l-1.5-1.5 1-1-.5-1.5zm-7 4 1.5.5 1 2q-1.2 2.8-2.5.5l-1.5.5.5 1.5-2.5-1.5 1.5-2.5 2 1zm-9 5 4.5.5-.5 1.5-2-1 .5 1.5-1.5 1.5-2-1v2l-1.5-.5-.5 1.5-.5-3.5h2zm-7 4 2.5 1.5-1.5 2.5-2-1v2l-2.5-2.5.5-.5zm-5 3 2.5 2.5-.5.5-2-2-.5.5 1 2q-1 2.5-2 1-.7-3.7 1.5-4.5Zm-7 4 4.5 1.5-2.5 1.5-1.5-.5-.5 1.5q-1-2-2 0l-2-1-1.5.5 1.5-1.5 1.5.5.5-1.5 2 1zm-7 4q2.8 1.3.5 2.5l-.5 1.5-2.5-2.5.5-.5 1.5.5zm-4 2v2l2.5.5-4.5 1.5q-2.5-1-1-2l1.5.5zm-5 3q2.8 1.3.5 2.5l-1.5 2.5-2-1v2l-1.5-.5-.5 1.5-2.5-2.5.5-.5 2 1-.5-1.5 1.5-1.5 2 1v-2l2 1zm-11 6-.5 1.5 1 1-1.5 2.5-1.5-.5-.5 1.5q-1-2-2 0l-2.5-1.5 1.5.5 1.5-.5-.5-1.5 1.5.5.5-1.5 1.5.5zm-10 6 4.5 1.5-6.5.5v-1zm-4 2 3.5 1.5-3 1 .5 1.5-2-1v2l-1.5-.5-.5 1.5-1.5-.5-1.5 2.5-2-1v2l-2-1v2q-1-2-2 0l-3.5 1.5.5 1.5-2-1v2l-1.5-.5-.5 1.5-1.5-.5-1.5 2.5-2 1-2-1-3 4-2-1v2l-1.5-.5-.5 1.5-1.5-.5-1.5 2.5-4.5-.5 1.5-2.5v2l3.5-.5-2-2 .5-.5 2 1v-2l1.5.5 1.5-2.5 2-1 2 1v-2l1.5.5.5-1.5 2 1 1.5-1.5-.5-1.5 2 1v-2l1.5.5.5-1.5 1.5.5 1.5-2.5 2 1v-2l2 1v-2l1.5.5 1.5-2.5 2 1v-2l2 1v-2l1.5.5.5-1.5 1.5.5zm-44 25q2 .5 1.5 3.5l-2.5 1.5-2-1v2l-1.5-.5-.5 1.5-1.5-.5-.5 1.5q-3.2.8-4-1l-2 3q-2.5-1-1-2l1.5.5 1.5-2.5 3 1 1.5-1.5-.5-1.5 1.5.5.5-1.5 1.5.5 1.5-2.5 2 1zm-18 10 2.5 1.5-1.5 2.5-1.5-.5-.5 1.5-1.5-.5-1.5 2.5-2-1v2q-3.7.8-4.5-1.5h2l1.5-2.5 2 1v-2l2 1v-2l1.5.5zm-14 8 1.5 1.5-1 1 .5 1.5-2-1v2l-2-1v2l-1-1-1.5.5.5-2.5 1.5.5.5-1.5 1.5.5zm-12 7q2.8 1.3.5 2.5l-1.5 2.5-2-1v2l-1.5-.5-.5 1.5-2.5-2.5.5-.5 1.5.5 1.5-2.5 2 1v-2l2 1zm-8 6q2.5 1 1 2l-1.5-.5zm-6 2q2.8 1.3.5 2.5l-.5 1.5-1.5-.5-1.5 2.5-2-1v2l-1.5-.5-.5 1.5-1.5-.5-1.5 2.5-2-1v2l-1.5-.5-.5 1.5-1.5-.5-1.5 2.5-2-1v2l-1.5-.5-.5 1.5-.5-3.5q1.3-2.7 2.5-.5l1.5-.5-.5-1.5 2 1v-2l1.5.5 1.5-2.5 2-1 2 1v-2l1.5.5.5-1.5q1 2 2 0l1.5-.5-.5-1.5 2 1v-2l1.5.5zm-24 15q3 1.5 0 3l-2 1-2-1v2l-1.5-.5-.5 1.5q-1-2-2 0l-1.5.5.5 1.5-2.5-1.5 1.5-2.5 2 1v-2l2-1 1.5.5.5-1.5q1.8 3.8 3.5.5zm-17 8 2.5 2.5-1.5 1.5-2-1v2l-1.5-.5-.5 1.5-1.5-.5-1.5 2.5-2-1v2l-1.5-.5-.5 1.5-2.5-1.5.5-1.5 1.5.5 1.5-2.5 2 1v-2l2 1v-2l2 1v-2zm-19 11q3.3-.7 4 1l1.5-.5q-1.2 2.8-2.5.5l-1.5.5.5 1.5-1.5-.5-.5 1.5q-1-2-2 0l-1.5.5.5 1.5-2-1v2l-1.5-.5-.5 1.5-1.5-.5-1.5 2.5.5-1.5 1-2-.5-1.5 1.5.5.5-1.5 1.5.5 1.5-2.5 2 1v-2zm-16 9 2.5.5-.5 2.5-1.5-.5-1.5 2.5-2-1v2l-2-1v2l-1.5-.5-1.5 2.5.5-1.5-1-1 1-1 .5-1.5 1.5.5 1.5-2.5 2 1v-2l2 1zm-14 8 2.5 1.5-.5 1.5-1.5-.5-.5 1.5q-1-2-2 0l-1.5.5.5 1.5-2-1v2l-1.5-.5-.5 1.5-1.5-.5-.5 1.5-.5-1.5 1-1-.5-1.5 1.5.5.5-1.5 1.5.5 1.5-2.5 2 1v-2l2 1zm-20 11q3.8-.7 4.5 1.5-1 2.5-2 1l.5-1.5-3.5.5 2 2-.5.5-2-1v2l-1.5-.5-.5 1.5q-1-2-2 0l-1.5.5.5 1.5-2.5-1.5 1.5-2.5 2 1v-2l1.5.5.5-1.5 1.5.5zm-14 8 2.5 1.5-1.5 2.5-2-1v2l-1.5-.5-.5 1.5-1.5-.5-1.5 2.5-2-1v2l-1.5-.5-.5 1.5-1.5-.5-1.5 2.5-2 1-2-1v2l-1.5-.5-.5 1.5q-1-2-2 0l-1.5.5.5 1.5-2-1v2l-1.5-.5-.5 1.5-1.5-.5-1.5 2.5-2-1v2l-1.5-.5-.5 1.5-1.5-.5-1.5 2.5-2-1v2l-1.5-.5-.5 1.5-1.5-.5-1.5 2.5-2-1v2l-2-1v2l-2.5-2.5.5-.5 3.5-.5-.5-1.5 2-1 1.5.5.5-1.5 1.5.5 1.5-2.5 2 1v-2l2 1v-2l3-2 4.5-.5-.5-1.5 1.5.5.5-1.5q1 2 2 0l1.5-.5-.5-1.5 2 1v-2l2-1q1 2 2 0l2 1 1-2 1.5.5.5-3.5 1.5.5 1.5-2.5 2 1v-2l2 1v-2l1.5.5.5-1.5q1 2 2 0l1.5-.5zm-50 30q2.5 1 1 2-1-2-2 0-3-.5-3.5 1.5l.5 1.5-1.5-.5-.5 1.5-1.5-.5-1.5 2.5-2-1v2l-2-1v2l-1.5-.5-1.5 2.5-1.5-.5-.5 1.5-2-1v2l-1.5-.5-1.5 2.5-2-1v2l-2-1v2l-1.5-.5-.5 1.5q-1-2-2 0l-1.5.5.5 1.5-2.5-1.5 1.5-2.5 2 1v-2l1.5.5.5-1.5 1.5.5 1.5-2.5 2 1v-2l5-1 5.5-3.5 1.5-2.5 2-1 2 1v-2l1.5.5.5-1.5 1.5.5.5-1.5q3.3.8 4-1Zm-40 21 2.5 1.5-1.5 2.5-2-1v2l-2-1v2l-2.5-2.5.5-.5 1.5.5 1.5-2.5 2 1zm-7 4 2.5 2.5-.5.5q-3.7.8-4.5-1.5zm-18 10 3.5 2.5-1.5-.5-1.5.5.5 1.5-1.5-.5-.5 1.5-1.5-.5-1.5 2.5-2-1v2l-2-1v2l-1.5-.5-1.5 2.5-2 1-2-1v2l-1.5-.5-.5 1.5-1.5-.5-1.5 2.5-2-1v2l-1.5-.5-.5 1.5-1.5-.5-1.5 2.5-2-1v2l-2-1v2l-1.5-.5-1.5 2.5-2-1v2l-2-1v2l-1.5-.5-1.5 2.5-2-1v2l-2-1v2l-1.5-.5-.5 1.5q-1-2-2 0l-1.5.5.5 1.5-2-1v2l-1.5-.5-.5 1.5-1.5-.5-1.5 2.5-2-1v2l-2-1v2l-1.5-.5-1.5 2.5-2-1v2l-2-1v2l-1.5-.5-1.5 2.5-2-1v2l-2-1v2l-1.5-.5-.5 1.5q-1-2-2 0l-1.5.5.5 1.5-2-1v2l-1.5-.5-.5 1.5-1.5-.5-1.5 2.5-2-1v2l-2-1v2l-1.5-.5-1.5 2.5-2-1v2l-2-1v2l-1.5-.5-1.5 2.5-2 1-2-1v2l-1.5-.5-1.5 2.5-2.5-2.5 1.5-1.5 1.5.5.5-1.5q1 2 2 0l1.5-.5-.5-1.5 2 1v-2l1.5.5.5-1.5 1.5.5 1.5-2.5 2 1v-2l2 1v-2l1.5.5 1.5-2.5 2 1v-2l2 1v-2l1.5.5.5-1.5 1.5.5 1.5-2.5 2 1v-2l1.5.5.5-1.5 1.5.5 1.5-2.5 2 1v-2l1.5.5.5-1.5 1.5.5 1.5-2.5 2 1v-2l2 1v-2l1.5.5 1.5-2.5 2 1v-2l2 1v-2l1.5.5.5-1.5q1 2 2 0l1.5-.5-.5-1.5 2 1v-2l1.5.5.5-1.5 1.5.5 1.5-2.5 2 1v-2l1.5.5.5-1.5 1.5.5 1.5-2.5 2 1v-2l2 1v-2l1.5.5 1.5-2.5 2 1v-2l2 1v-2l1.5.5.5-1.5q1 2 2 0l1.5-.5-.5-1.5 2 1v-2l1.5.5.5-1.5 1.5.5 1.5-2.5 2 1v-2l2 1v-2l1.5.5 1.5-2.5 2 1v-2l2 1v-2l1.5.5z" opacity=".914"/><path fill="#213aa2" stroke="#213aa2" d="M626.5 96q9-1.5 11.5 3.5l1 2-4.5 1.5-2-3-3-1-3.5 2.5q-2 2.5-1 8l2.5 3.5 3 1 3.5-2.5.5-1.5 4.5.5q-.6 3.9-3.5 5.5-2.8 2.2-9 1l-5.5-4.5-1-3v-6l1-3 3.5-3.5z" opacity=".98"/><path fill="#0037b9" stroke="#0037b9" d="m309.5 372 16.5 9.5-16.5 9.5-1-7h-33l-1-1q-1.2 2.3-2.5-.5l.5-2.5 36.5-.5z" opacity=".98"/><path fill="#285e8b" stroke="#285e8b" d="m410.5 229-.5 1.5-.5 1.5-.5-1.5zm-120 67 2.5.5-2.5.5zm-116 66q1.5 1-1 2l-1.5-.5z" opacity=".969"/><path fill="#00b4f5" stroke="#00b4f5" d="m500.5 116 1.5.5.5 1.5 11.5 2.5-.5 1.5-7-1-1-1h-4l-1 1-3-3-1.5-.5zm-24 3h2l2 2q3.3-.7 4 1h4l1 1h4l5 2 14 2 1.5 1.5-4.5.5-1-1h-4l-5-2h-4l-1-1h-4l-1-1h-4l-6-2-2 1-3.5-2.5zm-15 3 3.5.5.5 1.5 8 1 1 1h3l9 3h4l1 1h3l9 3h4l6.5 2.5-.5 1.5-5-2h-4l-1-1h-3l-5-2h-4l-1-1h-3l-1-1h-3l-1-1h-3l-5-2h-4l-6-2-2 1-3.5-2.5zm57 0 3.5.5-.5 1.5-3-1zm7 1 5 1 1.5 1.5-3.5.5-3.5-1.5zm10 2 4.5 1.5-.5 1.5-4.5-1.5zm-80 3 1.5.5.5 1.5 8 1 5 2h4l5 2h4l5 2h4l1 1 12.5 2.5-.5 1.5-7-1-5-2h-4l-5-2-9-1-1-1h-3l-5-2h-4l-1-1h-7l-2.5-2.5zm89 0q4.8-.7 6.5 1.5l-4.5.5-2.5-1.5zm-27 1 4.5.5-.5 1.5q-4.6.8-4-2Zm8 1q1 2 5 1l1.5 1.5-3.5.5-3.5-1.5zm29 0q4.1-.6 5.5 1.5l-.5 1.5q-.7-1.7-4-1-2.5-1-1-2Zm-19 2 4.5 1.5-.5 1.5-4.5-1.5zm28 0q3.8-.7 4.5 1.5l-3.5.5q-2.5-1-1-2Zm-120 1h3l3 2 9 1 5 2h4l1 1 14 2 5 2 14 2 1.5 1.5-4.5.5-1-1-9-1-5-2h-4l-1-1-9-1-5-2h-4l-1-1h-4l-1-1-8-1q-1.5 2.5-3-1l-1.5-.5zm101 1 5 1 1.5 1.5-3.5.5-3.5-1.5zm27 0 3.5.5q-1.2 2.8-2.5.5-2.4-.1-1-1Zm-54 2 4.5 1.5-4.5.5zm37 0 1 1 4.5.5-.5 1.5q-4.1.6-5.5-1.5zm-29 2h3l3.5 1.5-.5 1.5-6.5-1.5zm38 0 3.5 1.5-3.5.5zm-122 1 2.5.5.5 1.5 8 1 1 1h4l1 1h4l1 1h4l1 1h4l5 2h4l1 1h4l1 1h4l1 1h4l1 1 7.5 1.5-.5 1.5q-1.8-1.7-6-1l-1-1h-4l-1-1h-4l-1-1h-4l-5-2h-4l-1-1h-4l-1-1-14-2-1-1-10-2-1 2-4.5-3.5zm94 1 4.5 1.5-.5 1.5-4.5-1.5zm-28 1h3l3.5 1.5-.5 1.5-5-1q-2.5-1-1-2Zm37 1 6.5 2.5-3.5.5-3.5-1.5zm-27 1 4.5 1.5-.5 1.5-4.5-1.5zm8 2h3l3.5 1.5-.5 1.5-6.5-1.5zm29 0 2.5.5-2.5.5zm-108 1 1 2 7 1 5 2h4l1 1h4l1 1h4l5 2 9 1 7.5 2.5-.5 1.5-1-1-14-2-5-2h-4l-5-2h-4l-1-1-14-2-1 1-3.5-3.5zm64 1 3.5 1.5-.5 1.5-5.5-1.5zm25 0 4.5 1.5-.5 1.5-4.5-1.5zm-18 2q3.8-.7 4.5 1.5l-3.5.5q-2.5-1-1-2Zm27 0q3-.5 3.5 1.5l-3.5.5zm-19 1 6.5 2.5-4.5.5-2.5-1.5zm10 3 4.5.5-.5 1.5q-4.6.8-4-2Zm-86 1 1 2 44.5 9.5-.5 1.5-45-9q-1.5 2.5-3-1l-1.5-.5.5-1.5q3.2.8 4-1Zm59 0 5.5 1.5-.5 1.5-5.5-1.5zm9 2q3.8-.7 4.5 1.5l-3.5.5q-2.5-1-1-2Zm8 1q1 2 5 1l1.5 1.5-4.5.5-2.5-1.5zm-27 2h3l3.5 1.5-.5 1.5-5-1q-2.5-1-1-2Zm10 2 5.5 1.5-.5 1.5-5.5-1.5zm9 2 3.5.5-.5 1.5q-3.8.5-3-2Zm-61 1h3l2 2q3.3-.7 4 1h4l1 1 8 1 1 1h3l5 2h4l3.5 1.5-.5 1.5-35-8q-1 2-2 0l-2.5-1.5zm42 2 6.5 1.5-.5 1.5h-3l-3.5-1.5zm10 2 4.5 1.5-4.5.5zm-10 6 4.5 1.5q-1.3 2.8-2.5.5l-2.5-.5zm-20 2 2.5.5.5 1.5 11 1 3 2 1.5-.5-.5 1.5-8-1-1-1h-5l-1-1-2 2-3-3-1.5-.5zm3 16 10 1 1 1h5l1 1h5l1 1 3-2 4.5 3.5-.5 1.5-6 2-1-3h-4l-1-1h-5l-1-1h-6l-1-1-5.5-.5zm-11 6 1 1h5l1 1h4l5 2h4l5 2h4l5 2h4l1 1 7 1 1-2 5.5 4.5-1.5 1.5-5 1-2-3-8-1-1-1h-4l-5-2-9-1-1-1-8-1-1-1-7.5-1.5zm-14 7 4 2 9 1 5 2h4l5 2h4l5 2h4l5 2h4l1 1h4l1 1 10 2 1-2 6.5 4.5-7.5 2.5-1-3-8-1-1-1-8-1-1-1h-4l-1-1-8-1-5-2h-4l-5-2-9-1-5-2h-4l-2.5-1.5zm-17 10 9 3h4l5 2h4l1 1h4l5 2 9 1 9 3 9 1 1 1 8 1 5 2h4l5 2h5l2-1 5.5 4.5-7.5 1.5-1-2-7-1-5-2h-4l-5-2h-4l-5-2h-4l-5-2h-5l-4-2-9-1-5-2-9-1-5-2-9-1-1.5-1.5zm-14 8 7 1 1 1h4l5 2h4l5 2h4l5 2 9 1 1 1h3l9 3 9 1 1 1 8 1 1 1 8 1 6 2 1-2 6.5 4.5-7.5 2.5-1-3h-3l-5-2h-4l-5-2h-4l-5-2-9-1-9-3h-4l-5-2h-4l-5-2h-4l-5-2h-4l-5-2h-4l-1-1-4.5-.5zm-15 7 6 2h3l1 1h4l5 2 9 1 4 2h4l5 2h4l5 2h4l9 3 9 1 1 1h3l1 1 10 2 2-2 4 4 1.5.5-1.5 1.5-6 1 .5-1.5-1.5-1.5-8-1-5-2h-4l-9-3h-4l-5-2h-4l-9-3-9-1-9-3h-4l-1-1h-3l-1-1-12.5-2.5zm-14 8 4 2 9 1 1 1h3l9 3h4l9 3h4l4 2h4l1 1h3l9 3h4l1 1 7 1 1-2 6.5 5.5-7.5 1.5-1-2-6-2h-3l-1-1h-3l-1-1h-4l-1-1-7-1-1-1h-4l-1-1h-3l-1-1h-3l-1-1h-3l-9-3h-4l-1-1h-3l-9-3h-4l-2.5-1.5zm-14 10 9 3h4l9 3h4l5 2h4l1 1 8 1 1 1 8 1 1 1h3l6 2 2-2 3 3 2.5 1.5-7.5 2.5-1-3h-3l-9-3h-4l-5-2h-4l-5-2h-4l-5-2h-4l-5-2h-4l-1-1h-3l-7.5-2.5zm-14 6 6 1 1 1h4l4 2 8 1 1 1h3l9 3 9 1q1-2 2 0l4.5 3.5-3.5 1.5h-3l-1-2-44.5-10.5zm-15 9 10 2 1 1 8 1 2-1 5.5 4.5-7.5 1.5-1-2-18.5-4.5zm-57 5 1.5.5.5 2.5 8 1 3.5 1.5-.5 2.5-1-1h-4l-1-1-6-1-1 2zm-46 2 1 2 9.5 2.5-.5 2.5-10.5-2.5zm-5 1 .5 2.5q-1 1.5-2-1zm-46 2 4.5.5.5 1.5 4.5 1.5-.5 1.5h-6l-1 1-4.5-3.5.5-1.5zm115 1 9.5 2.5-.5 2.5-9.5-2.5zm-49 2 9 1 1.5 1.5-.5 1.5-8-1-2.5-1.5zm-101 1 1.5.5 1.5 2.5 7.5 1.5-.5 2.5-9-2-1 2-5.5-4.5 1.5-1.5q3.3.8 4-1Zm49 0 11 2 1.5 1.5-.5 1.5-11-2-1.5-1.5zm67 2h3l1 1 7.5 1.5-.5 2.5-10-2-1.5-1.5zm-49 2 8 1 6.5 2.5-.5 1.5-8-1-1-1h-4l-1.5-1.5zm-92 1 1 3q1.8 1.7 6 1l1 1h4l5 2 9 1 1 1 7 1 1.5 1.5-.5 1.5-7-1-5-2h-4l-1-1h-4l-5-2h-4l-1-1h-5q-1 2-2 0l-4.5-3.5zm40 0 13.5 3.5-.5 2.5-1-1h-4l-1-1h-4l-3.5-1.5zm117 0 5 2h4l1.5 1.5q-.5 2-3.5 1.5l-7.5-2.5zm-46 3 8 1 2.5 1.5-.5 1.5-9-1-1.5-1.5zm-53 1 10 2 1.5 1.5-.5 1.5-11.5-2.5zm68 2h3l7.5 2.5-.5 2.5-1-1h-4l-1-1-4.5-.5zm-149 2 .5 5.5-1.5 1.5-4-4-1.5-.5 1.5-1.5q4 1 5-1Zm97 0h4l1 1h4l3.5 1.5 1 2-2.5.5-5-2h-4l-2.5-1.5zm67 1 11.5 2.5-.5 2.5-11.5-2.5zm-49 2 1 1h4l1 1 8.5 1.5-.5 2.5-7-1-7.5-2.5zm-52 1h4l1 1h4l4.5 1.5-.5 2.5-6-1-1-1h-4l-2.5-1.5zm-53 1h4l1 1h3l5 2h4l1 1h3l9 3h4l9 3h4l1.5 1.5-.5 1.5-8-1-1-1h-3l-9-3h-4l-1-1h-3l-9-3h-4l-6.5-2.5zm71 2 1 1 9 1 1.5 1.5-.5 1.5h-4l-7.5-2.5zm53 1h5q.8 1.8 4 1l1.5 1.5-.5 1.5-8-1-2.5-1.5zm-154 1 1.5.5q-2.3 1.3.5 2.5h4l5 2h4q.8 1.8 4 1l1.5 1.5-.5 1.5h-3l-1-1-15-3-2 2-4-4-1.5-.5zm117 2 12.5 2.5-.5 2.5-11-2-1.5-1.5zm52 0h4l6.5 2.5-.5 2.5-10.5-3.5zm-34 4 8 1 6.5 2.5-.5 1.5h-4l-5-2h-4l-1.5-1.5zm-52 2 6 1 1 1h4l2.5 1.5-.5 2.5-1-1-12.5-2.5zm-53 1h3l5 2h4l5 2h4l1 1 8.5 1.5-.5 2.5-7-1-5-2h-4l-5-2h-4q-.7-1.7-4-1l-1.5-1.5zm124 1 8 1 2.5 1.5-.5 2.5-1-1-8-1-1.5-1.5zm-53 2 6 2h4l1.5 1.5-.5 1.5h-3l-1-1-7.5-1.5zm-115 1 2.5.5.5 1.5 10 2 1 1 14 2 6.5 2.5-.5 1.5h-4l-5-2h-4l-1-1-9-1-5-2h-4l-1 2-5.5-4.5.5-1.5q3.2.8 4-1Zm131 3 6 1 1 1h4l2.5 1.5q-.7 2.3-4.5 1.5l-1-1-7-1-1.5-1.5zm-52 1h4l1 1 7 1 1.5 1.5-.5 1.5-12.5-2.5zm69 3 6 1 1 1h4l3.5 1.5-.5 2.5-13.5-3.5zm-51 1h4l1 1 8.5 1.5-.5 2.5-11-2-2.5-1.5zm-102 3 2.5.5.5 1.5 6 2 8 1 1 1 9 1 5 2h4l3.5 1.5-.5 2.5-1-1h-4l-1-1h-4l-5-2h-4l-1-1h-4l-5-2-8-1-1 2-5.5-4.5.5-1.5q3.3.8 4-1Zm49 0 8 1 1 1 8 1 1 1h4l1 1h4l3.5 1.5-.5 2.5-6-2h-4l-1-1-14-2q-.7-1.7-4-1l-1.5-1.5zm71 1h4l7.5 2.5-.5 2.5-1-1-8-1-2.5-1.5zm16 3 13.5 3.5q-1 2.5-5.5 1.5l-1-1-7.5-1.5zm-52 3q1.8 1.7 6 1l1 1h4l2.5 1.5-.5 1.5h-4l-1-1h-4l-4.5-1.5zm18 4 11 2 2.5 1.5-.5 1.5-13.5-2.5zm-53 1 1 1 9 1 1 1 8 1 5 2h4l2.5 1.5-.5 1.5-9-1-1-1-8-1-1-1h-4l-7.5-2.5zm-47 3 4.5.5.5 1.5 32.5 7.5-.5 2.5-10-2-1-1h-4l-9-3-9-1-2 1-5.5-4.5zm118 0 8 1 3.5 1.5-.5 2.5-1-1-9-1-1.5-1.5zm-36 5 6 1 1 1h4l2.5 1.5-.5 1.5h-4l-1-1h-4l-4.5-1.5zm18 4 11 2 1.5 1.5q-.5 2-3.5 1.5l-1-1-8.5-1.5zm-53 3 12.5 2.5-1.5 2.5-6-2h-4l-1.5-1.5zm-36 3 1.5.5.5 2.5h3l5 2h4l1 1h3l1 1 7.5 1.5-.5 2.5-25-6-1 2-6.5-4.5zm50 0 15 3 1.5 1.5-.5 1.5-15-3-1.5-1.5zm21 5 12.5 2.5-.5 2.5q-1.8-1.7-6-1l-1-1h-4l-1.5-1.5zm-157 2h3l5 2 11 2 4 2h3l1 1h3l1 1 15 3 4 2h3l1 1 15 3 4 2h3l1 1h3l1 1 15 3 4 2 11 2 1.5 1.5-.5 7.5-5-2-7-1-4-2h-3l-1-1h-3l-1-1-15-3-4-2h-3l-9-3-7-1-4-2h-3l-1-1h-3l-1-1-15-3-4-2h-3l-1-1-15-3-2.5-1.5zm122 4h4l6.5 2.5-.5 1.5h-4l-6.5-2.5zm15 3 10 2 1 1h3l1.5 1.5-.5 1.5-15.5-3.5zm-35 4-.5 1.5.5 1.5h3l7.5 2.5-.5 2.5-6-2h-5q-1 2-2 0l-4.5-3.5zm20 8h4l6.5 2.5-.5 2.5-10.5-3.5zm157 11h15l3 1 3.5 3.5q1.5 7.5-3 9l5 5v4l-4.5 5.5-2 1h-17zm5.5 4-1 8h10q3-1 2-5l-2-3zm0 12-1 8 2 1q6 1 10-1l2-3-1-3-2-2zm-162.5-15 5 2h3l1 1h3l1 1 15 3 4 2h3l1 1 15 3 4 2h3l1 1h3l1 1 15 3 4 2h3l1 1 15 3 4 2h3l1 1h3l1 1 15 3 4 2h3l1 1h3l1 1 15 3 4 2 15 3 1.5 1.5-1 5-1.5 1.5-10-2-1-1h-3l-4-2h-3l-9-3h-3l-1-1h-3l-1-1h-3l-4-2h-3l-1-1-15-3-1-1h-3l-4-2h-3l-1-1-15-3-4-2h-3l-1-1h-3l-1-1-15-3-4-2h-3l-1-1h-3l-1-1-15-3-4-2h-3l-1-1-15-3-5.5-2.5z" opacity=".988"/><path fill="#00bffd" stroke="#00bffd" d="m476.5 122 2 1 2-1v1l-3 1q-2.5-1-1-2Zm-12 3 1.5.5-2.5 1.5q-1.5-1 1-2Zm-19 7 2.5.5-2.5.5zm-2 3 2 2 1.5-.5-.5 1.5-3.5-2.5zm-4 6 2.5 2.5-.5.5-2.5-2.5zm2 6 2.5 2.5-.5.5-2.5-2.5zm5 10 2 2 1.5-.5-1.5 1.5-2.5-2.5zm75 6 .5 1.5q-1 2.5-2 1zm-67 1 1.5.5q-1 2.5-2 1zm3 3 1 1 1.5-.5-1.5 1.5q-2.5-1-1-2Zm52 3 2.5.5-2.5.5zm-23 8 2.5.5-2.5.5zm20 15 .5.5-2.5 2.5-.5-.5zm-35 5 2.5.5-2.5.5zm52 12 .5 1.5-1.5.5q-1.5-1 1-2Zm2 9 2.5 2.5-.5.5-2.5-2.5zm5 15 2.5 2.5-.5.5-2.5-2.5zm-29 15 2.5 2.5-.5.5-2.5-2.5zm-26 6 2.5 2.5-.5.5-2.5-2.5zm-4 5q2.5 1 1 2l-1.5-.5zm-25 1q1.5 1-1 2l-1.5-.5zm2 0 2.5 2.5-.5.5-2.5-2.5zm-34 1q2.5 1 1 2l-1-1-1.5.5zm-41 3 2.5 1.5-1.5-.5q-2.4-.1-1-1Zm39 2 1.5 2.5-1.5.5zm-169 4 1.5.5q-1 2.5-2 1zm-43 7 1 1 1.5-.5-.5 1.5q-3.8-.7-2-2Zm-38 4 2.5 2.5-.5.5-2.5-2.5zm-26 6 1 1 1.5-.5-.5 1.5q-3.8-.7-2-2Zm-25 5 2.5 2.5-.5.5-2.5-2.5zm-14 7 2.5 1.5-1.5.5q-2.5-1-1-2Zm-6 2 2.5 2.5-.5.5-2.5-2.5zm-14 11 1.5 2.5q-1 1.5-2-1zm1 28 2.5 2.5-.5.5-2.5-2.5zm-74 18 1.5.5-2 1-.5 1.5-.5-1.5zm101 12 1.5 2.5h-1zm47 1 2.5.5-2.5.5zm-49 5 1 1 1.5-.5-1.5 1.5q-2.5-1-1-2Zm199 14 2.5 2.5-.5.5-2.5-2.5zm-14 3 9.5.5-9.5.5zm17 1 .5 3.5h-1zm-2 9 3.5 3.5-.5.5-3.5-3.5zm-14 10 8.5.5-8.5.5zm16 1 .5.5-2.5 2.5-.5-.5z" opacity=".792"/><path fill="#713133" stroke="#713133" d="m487.5 186 3.5.5-3.5.5zm-109 62 2.5.5-3 1-.5 1.5-.5-1.5zm-65 35 .5 2.5h-1zm-64 37 .5 2.5h-1z" opacity=".925"/><path fill="#463c41" stroke="#463c41" d="m560.5 1 .5 29.5h-1zm-18 12 5.5.5-5.5.5zm10 1 5.5.5-5.5.5zm4 2 .5.5-2.5 2.5-.5-.5zm-14 4 2.5 1.5-5.5 2.5-2-1v2l-2-1v2l-2.5-1.5 7.5-3.5 2 1zm11 0 .5.5-2.5 2.5-.5-.5zm-6 4 1 2 2-2 .5.5-2.5 2.5-1.5-1.5zm-18 2 2.5 1.5-3.5 1.5-2-1v2l-2-1v2l-2-1v2l-2.5-1.5 7.5-3.5 2 1zm-11 5 2.5 1.5-7.5 3.5-2-1v2l-2.5-1.5 5.5-2.5 2 1v-2l2 1zm-13 6 2.5 1.5-7.5 3.5-2-1v2l-2.5-1.5 5.5-2.5 2 1v-2l2 1zm-13 6 2.5 1.5-5.5 2.5-2-1v2l-2-1v2l-2.5-1.5 5.5-2.5 2 1v-2l2 1zm-11 5 2.5 1.5-7.5 3.5-2-1v2l-2-1v2l-2.5-1.5 5.5-2.5 2 1v-2l2 1v-2l2 1zm-82 1h3l3.5 3.5 1 3-.5 1.5 1.5.5 2 10-2 1-6.5 13.5-.5-1.5 8-15-1-1-1-6-2-2 1-2h-2l1-2q-.7-3.2-5.5-2.5l-2.5 1.5 1 2-3.5 4.5-.5-1.5 3.5-6.5zm69 5 2.5 1.5-7.5 3.5-2-1v2l-2-1v2l-2.5-1.5 7.5-3.5 2 1v-2l2 1zm-13 6 2.5 1.5-5.5 2.5-2-1v2l-2-1v2l-2.5-1.5 7.5-3.5 2 1zm-13 6 2.5 1.5-5.5 2.5-2-1v2l-2-1v2l-2.5-1.5 5.5-2.5 2 1v-2l2 1zm-32 3 .5 2.5h-1zm21 2v3l-1.5-.5zm-20 3 2.5 12.5 1 1v3l4.5 5.5 1.5.5-1.5.5-3-3-1.5.5v-3l-3-9v-4l-1-1zm-3 1 .5 1.5-6.5 12.5-.5-1.5zm19 16 .5 2.5q-3.5 1.5-1 3l-2.5 3.5-1.5-.5 3-2-.5-1.5-2 1v-1l3.5-2.5zm-48 1 1.5.5-.5 1.5q-2.5-1-1-2Zm-3 1 2.5 1.5-1.5-.5-1.5.5.5 1.5-2.5-1.5zm19 0 .5 1.5-2.5 3.5.5-1.5zm-23 2 2.5 1.5-5.5 2.5-2-1v2l-2-1v2l-2.5-1.5 5.5-2.5 2 1v-2l2 1zm44 1 2 3 1.5.5-1.5.5q-3.6-1.1-2-4Zm-19 2 .5 1.5-5.5.5v-1q4 1 5-1Zm-36 2 2.5 1.5-5.5 2.5-2-1v2l-2.5-1.5 5.5-2.5 2 1zm-9 4 2.5 1.5-5.5 2.5-2-1v2l-2-1v2l-2.5-1.5 7.5-3.5 2 1zm-11 5 2.5 1.5-5.5 2.5-2-1v2l-2.5-1.5 5.5-2.5 2 1zm-9 4 2.5 1.5-7.5 3.5-2-1v2l-2.5-1.5 5.5-2.5 2 1v-2l2 1zm281 1 2.5.5-1.5 1.5q-2.5-1-1-2Zm-18 1 11.5.5-11 1 3 6-2 2q2.3 1.3-.5 2.5l-4 2v-3l2 1-.5-1.5 1.5-1.5 2.5-1.5-3-6zm-274 3 2.5 1.5-7.5 3.5-2.5-1.5 5.5-2.5 2 1zm-11 5 2.5 1.5-5.5 2.5-2-1v2l-2.5-1.5 5.5-2.5 2 1z" opacity=".992"/><path fill="#463c41" stroke="#463c41" d="m599.5 124 4 6 1.5-.5 2.5-3.5.5.5-2 2-1.5 2.5-2.5-1.5-3-5zm-298 3 2.5 1.5-5.5 2.5-2-1v2l-2-1v2l-2.5-1.5 7.5-3.5 2 1zm289 0v3l-2-1 .5 1.5-1.5 1.5-2 1 .5-1.5-1-1 1.5-1.5zm-7 4v3l-2-1v2q-3-1.5 0-3zm-293 1 2.5 1.5-5.5 2.5-2-1v2l-2.5-1.5 5.5-2.5 2 1zm-9 4 2.5 1.5-5.5 2.5-2-1v2l-2-1v2l-2.5-1.5 5.5-2.5 2 1v-2l2 1zm294 1 1.5.5-7.5 4.5v-3l2-1q1 2 2 0zm-319 3 3.5 6.5q-1 1.5-2-1l-1.5-3.5-1.5.5-6.5 8.5-.5-.5 3-3zm14 1 2.5 1.5-5.5 2.5-2-1v2l-2.5-1.5 3.5-1.5 2 1v-2l2 1zm294 1q1 2 2 0l1.5.5-5.5 3.5q-1.5-1 1-2l1.5-.5zm-9 5q1 2 2 0l1.5.5-5.5 3.5-2.5-1.5 1.5-.5 1.5.5zm-295 2 2.5 5.5h-1l-.5-1.5-1 1h-8v-1l8.5-.5zm291 2q1.5 1-1 2l-4 2-2.5-1.5 1.5-.5q1.5 2.5 3-1zm-8 4 1.5.5-5.5 3.5-2-1v2l-1.5-.5-.5 1.5-.5-2.5 3.5-1.5q1 2 2 0zm-13 6q3 1.5 0 3l-2-1 .5 1.5-1.5 1.5-2 1v-3l2 1-.5-1.5 1.5-1.5zm-11 6 2.5 1.5-5.5 3.5-3.5-1.5 6-1q-2.2-1.2.5-2.5Zm-6 5 1.5.5-5.5 3.5v-3l2 1zm-8 5q1.5 1-1 2l-5 2-.5-1.5 2.5-1.5q1 2 2 0zm-14 6 2.5 1.5-1.5-.5q-2.4-.1-1-1Zm-7 4v3l-3.5-.5zm-5 3q1.5 1-1 2l-1.5.5.5 1.5-2-1 .5 1.5-1.5 1.5-2 1-2.5-1.5zm-18 10-.5 1.5 1 1-1.5 1.5-4.5-.5zm-9 5 2.5.5-3 1q2.3 1.3-.5 2.5l-2 1v-3l2 1-.5-1.5zm-5 3v3l-2-1 .5 1.5-1.5 1.5-4 2-2-1v2l-2-1 .5 1.5-1.5 1.5-2 1v-3l2 1-.5-1.5 1.5-1.5 4-2 2 1-.5-1.5 1.5-1.5zm-16 9v3l-2-1v2q-1-2-2 0l-1.5-.5zm-7 4v3l-2-1 .5 1.5-1.5 1.5-2 1v-3l2 1-.5-1.5 1.5-1.5zm-7 4v3l-2-1v2l-3.5-.5zm-9 5q1.5 1-1 2l-1.5.5q2.3 1.2-.5 2.5l-2 1v-3l2 1-.5-1.5 1.5-1.5zm-7 4v3q-1-2-2 0l-3 1q-1.5-1 1-2zm-7 4q2.5 1 1 2-1-2-2 0l-3.5 1.5q2.2 1.3-.5 2.5l.5-1.5-1-1 1.5-1.5zm-7 4v3l-2-1 .5 1.5-1.5 1.5-2.5-1.5zm-7 4q1.5 1-1 2l-3.5 1.5q2.3 1.3-.5 2.5l-4 2v-3l2 1v-2l2 1-.5-1.5 1.5-1.5zm-16 9 1.5.5-2 1 .5 1.5-2-1 .5 1.5-1.5 1.5-2 1 .5-1.5-1-1 1.5-1.5zm-7 4v3l-2.5-1.5zm-9 5v3l-2-1 .5 1.5-1.5 1.5-2 1 .5-1.5-1-1 1.5-1.5zm-7 4v3l-2-1 .5 1.5-1.5 1.5-2 1v-3l2 1-.5-1.5 1.5-1.5zm-7 4v3l-2-1 .5 1.5-1.5 1.5-2 1 .5-1.5-1-1 1.5-1.5zm-7 4 .5 2.5-1.5.5.5-1.5zm-5 3 1 1 1.5-.5-4.5 3.5v-3l2 1zm-6 3 2.5 1.5-4.5 2.5v-1l1.5-.5q-2.2-1.3.5-2.5Zm-7 4 2.5 1.5-5.5 3.5-2-1v2l-2-1 .5 1.5-1.5 1.5-2 1 .5-1.5-1-1 1.5-1.5 5-2q1 2 2 0l2.5-1.5zm-15 10 .5.5-2.5 2.5-2 1q-2.5-1-1-2 1 2 2 0zm-8 3 2.5 1.5-5.5 3.5v-3l2 1-.5-1.5zm-14 8 2.5 1.5-1.5-.5-1.5.5q2.3 1.2-.5 2.5l-4 2v-3l2 1-.5-1.5 1.5-1.5zm-12 7 2.5 1.5-1.5-.5-1.5.5.5 1.5-2-1 .5 1.5-1.5 1.5-4 2v-3l2 1-.5-1.5 1.5-1.5zm-15 10q1.5 1-1 2l-7 4v-3l2 1v-2q4.6.6 6-2Zm-10 4-.5 1.5 1 1-1.5 1.5-4 2v-3l2 1-.5-1.5 1.5-1.5zm-9 5-.5 1.5 1 1-1.5 1.5-2 1 .5-1.5-1-1 1.5-1.5zm-5 3v3l-2-1 .5 1.5-1.5 1.5-2 1 .5-1.5-1-1 1.5-1.5zm-13 7v2l2-1q1.5 1-1 2l-2 1 .5-1.5-1-1zm-5 3 2.5 1.5-5.5 3.5.5-1.5-1-1 1.5-1.5zm-10 6 2 1 1.5-.5-3.5 2.5zm-4 2 2.5 1.5-1.5-.5-1.5.5q2.3 1.3-.5 2.5l-2 1 .5-1.5-1-1 1.5-1.5zm-7 4-.5 1.5 1 1-1.5 1.5-11 6v-3q1 2 2 0l2.5-.5q-2.3-1.2.5-2.5l2 1 2.5-1.5-2-1 1.5-.5 2 1-.5-1.5zm-14 8v3l-2-1 .5 1.5-1.5 1.5-4 2v-3l2 1v-2l2 1-.5-1.5 1.5-1.5zm-15 9q1 2 2 0l1.5.5-2.5 1.5q-2.5-1-1-2Zm-3 1 2.5 1.5-5.5 3.5v-3l2 1-.5-1.5zm-5 3-.5 1.5 1 1-1.5 1.5-3 1v-1l1.5-.5q-2.2-1.2.5-2.5zm-11 6 2.5 1.5-6.5 3.5-1-1-1.5.5 3.5-2.5 2 1-.5-1.5zm-20 12 1 1 1.5-.5-6.5 4.5.5-1.5-1-1 1.5-1.5zm-6 3v3l-2-1 .5 1.5-1.5 1.5-4 2-2-1v2l-2-1 .5 1.5-1.5 1.5-2 1v-3l2 1-.5-1.5 1.5-1.5 4-2 2 1-.5-1.5 1.5-1.5zm-16 9v3l-2-1 .5 1.5-1.5 1.5-2 1 .5-1.5-1-1 1.5-1.5zm-7 4v3l-2-1 .5 1.5-1.5 1.5-4 2-2-1 .5 1.5-1.5 1.5-4 2v-3l2 1-.5-1.5 1.5-1.5 4-2 2 1-.5-1.5 1.5-1.5zm-16 9-.5 1.5 1 1-1.5 1.5-4 2v-3l2 1-.5-1.5 1.5-1.5zm-7 4-.5 1.5 1 1-1.5 1.5-4 2 .5-1.5-1-1 1.5-1.5zm-7 4v3l-2-1 .5 1.5-1.5 1.5-4 2-2-1 .5 1.5-1.5 1.5-4 2v-3l2 1-.5-1.5 1.5-1.5 4-2 2 1-.5-1.5 1.5-1.5zm-16 9-.5 1.5 1 1-1.5 1.5-4 2v-3l2 1-.5-1.5 1.5-1.5zm-7 4-.5 1.5 1 1-1.5 1.5-4 2v-3l2 1-.5-1.5 1.5-1.5zm-7 4v3l-2-1 .5 1.5-1.5 1.5-4 2-2-1 .5 1.5-1.5 1.5-4 2v-3l2 1-.5-1.5 1.5-1.5 4-2 2 1-.5-1.5 1.5-1.5zm-16 9v3l-2-1 .5 1.5-1.5 1.5-2 1 .5-1.5-1-1 1.5-1.5z" opacity=".992"/><path fill="#7b6e90" stroke="#7b6e90" d="m532.5 124 .5 2.5h-1zm-10 5 .5 2.5h-1zm10 2 .5 2.5h-1zm30 0 .5 2.5h-1zm-59 15q2.5 1 1 2l-1.5-.5zm-254 124 .5 4.5h-1zm12 4 .5 2.5h-1zm-52 2 .5 2.5h-1zm70 2 .5 2.5h-1zm-18 9 .5 2.5h-1zm18 4 .5 2.5h-1zm-154 3 .5 2.5h-1zm71 3 .5 2.5h-1zm53 0 .5 2.5h-1zm12 2 .5 3.5h-1zm-52 1 .5 2.5h-1zm40 8 .5 3.5h-1zm12 3 .5 2.5h-1zm-52 3 .5 2.5h-1zm0 12 .5 2.5h-1zm-84 9 .5 2.5h-1zm0 14 .5 2.5h-1zm0 14 .5 2.5h-1zm0 15 .5 2.5h-1zm0 13 .5 7.5h-1z" opacity=".973"/><path fill="#fc3032" stroke="#fc3032" d="M558.5 40q2.5 1 1 2l-1.5-.5zm12 5 .5 87.5h-1zm-2 1 .5 85.5h-1zm9 10 .5 77.5h-1zm2 1 .5 74.5h-1zm-43 13 .5 1.5-1.5.5q-1.5-1 1-2Zm-10 23 .5 1.5-1.5.5q-1.5-1 1-2Zm-13 31 1.5 2.5h-1zm4 0-.5 1.5-.5 2.5-.5-2.5zm5 2 .5 2.5h-1zm40 2 .5 2.5h-1zm-48 2 .5 4.5h-1zm2 1 .5 3.5h-1zm52 4 .5 3.5h-1zm-54 2 .5 4.5h-1zm2 1 .5 3.5h-1zm-402 6 20.5.5-20.5.5zm400 1 .5 2.5h-1zm2 0 .5 2.5h-1zm-11 4 .5 3.5h-1zm2 0 .5 3.5h-1zm7 1 .5 4.5h-1zm-395 1 .5 4.5h-1zm397 0 .5 3.5h-1zm-11 5 .5 3.5h-1zm2 0 .5 3.5h-1zm7 1 .5 4.5h-1zm2 1 .5 3.5h-1zm6 1 .5 3.5h-1zm-402 1 13.5.5-14 1-.5 7.5-.5-7.5zm373 3 2.5 1.5-1.5-.5q-2.4-.1-1-1Zm12 0 .5 3.5h-1zm2 0 .5 3.5h-1zm7 1 .5 5.5h-1zm2 1 .5 2.5h-1zm-21 3 .5 4.5h-1zm2 0 .5 4.5h-1zm8 2 .5 4.5h-1zm2 0 .5 3.5h-1zm-393 3 21.5.5-21.5.5zm383 3 .5 2.5h-1zm-246 4 .5 1.5-1.5.5q-1.5-1 1-2Zm-126 5 .5 108.5h-1zm365 2 .5 4.5h-1zm-3 2 .5 2.5h-1zm-9 5 .5 4.5h-1zm3 1 .5 4.5h-1zm6 1 .5 4.5h-1zm3 1 .5 3.5h-1zm-216 3 2.5 2.5v74h-1l-.5-74.5-1.5-.5zm7 0 .5 1.5-2 1-.5 75.5-.5-75.5zm185 1 .5 5.5h-1zm3 0 .5 6.5h-1zm9 2 .5 6.5h-1zm3 1 .5 5.5h-1zm-15 7 .5 9.5h-1zm3 1 .5 8.5h-1zm-16 2 .5 3.5h-1zm25 0 .5 8.5h-1zm3 1 .5 8.5h-1zm-272 1 .5 58.5h-1zm3 1 .5 58.5h-1zm254 8 .5 5.5h-1zm-42 1 .5 6.5h-1zm45 0 .5 5.5h-1zm-42 1 .5 5.5h-1zm51 1 .5 5.5h-1zm3 0 .5 5.5h-1zm-73 6 2.5.5-2.5.5zm-93 1 .5 1.5-2.5.5v-1zm151 0 .5 6.5h-1zm3 1 .5 6.5h-1zm-45 1 .5 6.5h-1zm3 1 .5 6.5h-1zm51 0 .5 6.5h-1zm3 1 1 6 1.5.5-1.5.5-1.5-1.5zm-86 3 .5 8.5h-1zm-3 1 .5 6.5h-1zm-194 1 .5 1.5-2.5.5v-1zm268 2 .5 7.5h-1zm3 1 .5 7.5h-1zm-45 1 .5 8.5h-1zm3 1 .5 8.5h-1zm-61 3 2.5.5-2.5.5zm26 2 .5 4.5h-1zm3 1 .5 4.5h-1zm58 0 .5 2.5h-1zm13 3 .5 18.5-2.5 1.5v-1l1.5-.5zm3 1 1 18 1.5.5-1.5.5-1.5-1.5zm-45 2 .5 70.5-2.5 2.5-.5-.5 2-2zm29 0 .5 2.5h-1zm-26 1 1 70 1.5.5-.5 1.5-2.5-2.5zm-35 1 .5 56.5-2.5 2.5-.5-.5.5-1.5 1.5-.5zm3 1 1 56 1.5.5-.5 1.5-2.5-2.5zm-44 2 .5 12.5h-1zm-142 13 .5 8.5h-1zm3 1 .5 8.5h-1zm64 1 .5 7.5h-1zm3 1 .5 7.5h-1zm-70 10 .5 6.5h-1zm3 1 .5 6.5h-1zm64 0 .5 8.5h-1zm3 1 .5 8.5h-1zm177 2 2.5 1.5-1.5.5q-2.5-1-1-2Zm-5 1 2.5.5-2.5 1.5zm-326 1 .5 8.5h-1zm84 5 .5 9.5h-1zm3 1 .5 9.5h-1zm163 5 2.5.5-2.5 1.5zm-250 2 .5 10.5h-1zm84 6 .5 8.5h-1zm3 1 .5 7.5h-1zm-55 3 .5 7.5h-1zm3 0 .5 7.5h-1zm-35 5 .5 7.5h-1zm84 4 .5 8.5h-1zm3 0 .5 9.5h-1zm-55 2 .5 8.5h-1zm3 1 .5 8.5h-1zm-35 6 .5 9.5h-1zm32 6 .5 10.5h-1zm3 1 .5 10.5h-1zm-35 7 .5 9.5h-1zm17 7 .5 1.5-2 1-.5 3.5-.5-3.5zm15 0 .5 9.5h-1zm-22 1 2.5 1.5-.5 2.5-1-3q-2.4-.1-1-1Zm25 0 .5 8.5h-1zm-35 6 .5 10.5h-1zm12 2 .5 10.5h-1zm3 1 .5 10.5h-1zm-15 12 .5 5.5h-1zm0 18 .5 68.5-1.5 1.5h-7v-1l7.5-.5z" opacity=".784"/><path fill="#f23239" stroke="#f23239" d="m561.5 36 2.5 4.5-2 1-.5 102.5-1.5-.5v-102l-1-2zm8 4 2.5 4.5-2 1-.5 93.5-.5-92.5-2-3zm-18 1 1.5.5 2 4-2 1-.5 102.5-1.5-.5-.5-102.5-1.5-.5zm-10 9 1.5.5 2 4-2 1-.5 99.5-1.5-.5-.5-99.5-1.5-.5zm37 1 2.5 4.5-2 2v74q1.8.8 1 4l-2.5.5.5-1.5-.5-78.5-1.5-.5zm-45 15 2.5 4.5-1 1-.5 90.5-1.5-.5v-89l-2-2zm-10 23 2.5 4.5-1 1-.5 72.5-1.5-.5-.5-72.5-1.5-.5zm-8 30 2.5 4.5-2 2v16q2 1 0 2v24l1 2-1.5.5-.5-44.5-2-2zm-376 9 15.5 8.5-15.5 8.5-1-7-36.5-.5.5-2.5 36.5-.5zm367 14 2.5 4.5-2 1-.5 28.5-.5-5.5-1-1 1-3q.8-3.2-1-4l1-3q.8-3.2-1-4l1-3q1-5-2-6zm-392 3 20.5.5-.5 3.5-15.5.5.5 6.5 14.5.5-.5 3.5h-13l-1.5 1.5.5 7.5 16.5.5-.5 3.5-21.5-.5zm382 13 2.5 5.5-2 1-.5 15.5-1.5-.5 1-1-1-3 1-7-1-3 1-1q-3.5-1.5-1-3zm-249 16 3.5 6.5-2 2-.5 141.5-2.5-.5-.5-142.5-1.5-.5zm16 9 3.5 7.5h-2v88l-1 1q2.2 1.3 1 6-2 1 0 2l-.5 26.5-2.5-.5v-122l-2-3zm-146 2 7.5.5-.5 283.5-7.5-.5v-170l1-2-1-1zm370 2 2.5.5-.5 4.5-1.5-.5v-3zm-259 3 3.5 6.5-2 1-.5 135.5-2.5-.5-.5-135.5-1.5-.5zm251 2 1.5 3.5v4q-1 1.5-2-1 1-4-1-5zm-202 2 3.5 6.5-2 2-.5 102.5-2.5-.5 1-3v-11l-1-1 1-1v-10q-2-1 0-2v-74l-2-3zm211 2 1.5 1.5.5 3.5 2.5.5-3.5.5q-2.9-1.4-1-6Zm-22 1 3.5.5-1 1-.5 9.5-1.5-1.5v-8zm13 7 1.5.5-.5 5.5-1.5-.5zm9 2 1.5.5-.5 1.5-1.5-.5zm-34 2q4 1.5 2.5 8.5l-2.5 1.5zm-243 1 3.5 6.5-3 2v58l1 1-1 2q2 1 0 2v9l1 1-1 3v9l1 1-1 1v9q2 1 0 2l1 2-1 1v7l1 3-1 2v9l1 2q-1.5 3-3 0l-.5-125.5-2.5-.5zm83 1 3.5 6.5-2 1-.5 78.5-2.5-.5-.5-78.5-1.5-.5zm173 1 1.5 1.5v8l-1.5.5zm12 3 1.5.5-.5 9.5-1.5-.5zm-41 5 2.5.5-.5 5.5-2.5-.5zm16 3 1.5.5 1 5q-1.5 3-3 0zm13 3 1.5.5-.5 6.5-1.5-1.5zm-42 1 1.5.5-.5 6.5-1.5-.5zm54 2 1.5.5-.5 5.5-1.5-.5zm-168 1 3.5 6.5-2 1-.5 50.5-2.5-.5-.5-50.5-1.5-.5zm127 0 2.5 1.5-.5 5.5-2.5-.5zm16 4 2.5 1.5q1 4.5-1.5 5.5l-1.5-1.5zm-46 2 2.5.5-.5 5.5-2.5-1.5zm59 1 1.5.5-.5 6.5-1.5-1.5zm-42 1 1.5.5-.5 7.5-1.5-.5zm-231 1 3.5 6.5-2 1-.5 105.5-2.5-1.5-.5-104.5-1.5-.5zm285 0 1.5.5-.5 6.5-1.5-.5zm-41 2 2.5.5-.5 7.5-2.5-.5zm-46 1 2.5.5-.5 9.5-1.5-1.5v-6q-1.7-.7-.5-2.5Zm62 3 2.5 1.5q.8 4.8-1.5 6.5l-1.5-1.5zm-46 1 2.5.5-.5 8.5-2.5-.5zm59 2 1.5.5-.5 7.5-1.5-1.5zm-89 2 2.5.5-.5 6.5-2.5-.5zm47 0 1.5.5-.5 8.5-1.5-1.5zm53 0 2.5 1.5-1.5 2.5-1.5-2.5zm-153 2 3.5 6.5-2 1-.5 19.5-1.5-.5-1-2-.5-17.5-1.5-.5zm113 1 2.5.5-.5 8.5-2.5-1.5zm-72 1 1.5.5-1 3 2 1-.5 8.5-2.5-1.5zm27 1q2.3.8 1.5 4.5l-1.5.5zm61 2 2.5 1.5v38l-1 1 3 2-3.5 6.5-3.5-6.5 2-1zm-46 2 2.5.5-.5 4.5-2.5-.5zm59 1 1.5.5v17l1.5 1.5 1.5.5-4.5 6.5q-.5-4.5-3.5-6.5l3-2zm-89 1 2.5.5-.5 9.5-2.5-2.5zm-27 1 2.5.5-2 4 2 2 .5 12.5 1.5.5v2l-3.5 5.5-3.5-7.5 3-2v-12q-2.3-1.3-.5-5.5Zm74 1 1.5.5v69l2 3-2.5 4.5-1.5-.5-3-6 1.5.5 1.5-1.5zm-32 1 1.5 1.5v55l2 3-2.5 4.5-1.5-.5-2-5 2-2zm45 2 2.5.5.5 51.5 1.5.5-3.5 6.5-3.5-6.5 2-1zm-30 2 2.5.5.5 61.5 1.5.5-3.5 6.5-3.5-6.5 2-1zm-231 2 3.5 6.5-2 1-.5 83.5-2.5-.5v-82l-2-3zm189 0 2.5 1.5.5 26.5 1.5.5-3.5 6.5-3.5-6.5 2-1zm13 2 1.5.5.5 38.5 1.5.5-3.5 6.5-3.5-6.5 2-1v-37zm-221 43 1.5.5 3 6-3 1v48l1 2-2.5.5-1-51-2.5-.5 2-2zm-20 40 3.5 6.5-2 2-.5 22.5-1.5-.5q.8-3.2-1-4l1-1v-13q-2-1 0-2 .5-3-1.5-3.5l-1.5-.5 3-4z" opacity=".988"/><path fill="#c44a5b" stroke="#c44a5b" d="m514.5 127 .5 2.5h-1zm2 1 .5 2.5h-1zm52 4 .5 2.5h-1zm2 1 .5 2.5h-1zm-56 9 .5 2.5h-1zm-7 11 .5 2.5h-1zm0 7 .5 2.5h-1zm0 7 .5 2.5h-1zm-231 111 .5 2.5h-1zm0 12 .5 2.5h-1zm-64 10 .5 2.5h-1zm-52 29 .5 3.5h-1zm0 13 .5 3.5h-1zm0 15 .5 3.5h-1zm-23 9 .5 2.5h-1zm0 15 .5 2.5h-1z" opacity=".929"/><path fill="#ae383e" stroke="#ae383e" d="m562.5 142 .5 1.5-2.5 1.5v-1l1.5-.5zm-40 23 1 2 1.5.5-1.5.5q-2.4-.9-1-3Zm-56 33 .5 2.5h-1zm-204 116 2.5.5-2.5.5zm-35 19 2.5.5-2.5.5zm-87 48 .5 3.5h-1z" opacity=".957"/><path fill="#00c2fe" stroke="#00c2fe" d="m501.5 115 1.5.5 1 2-.5.5-2.5-2.5zm-20 5 2.5.5-2.5.5zm18 0 1 1 1.5-.5-.5 1.5q-3.8-.7-2-2Zm-18 3 2.5.5-2.5.5zm14 0 2.5.5-2.5.5zm-16 3 2.5.5-2.5.5zm-24 1 2.5.5-2.5.5zm-3 3 4.5 3.5-1.5.5-3.5-3.5zm76 0 2.5.5-2.5.5zm-9 1 2.5.5-2.5.5zm-52 3 2.5.5-2.5.5zm-7 2 2.5.5-2.5.5zm16 0 2.5.5-2.5.5zm9 2 2.5.5-2.5.5zm-48 1 1.5.5-1 1 .5 1.5q-2.4-.9-1-3Zm28 1 2.5.5-2.5.5zm14 0 2.5.5-2.5.5zm15 0 2.5.5-2.5.5zm-49 3 2.5.5-2.5.5zm5 1 2.5.5-2.5.5zm34 0 2.5.5-2.5.5zm14 0 2.5.5-2.5.5zm-52 1 1.5.5 1 2-.5.5-2.5-2.5zm9 0 2.5.5-2.5.5zm14 0 2.5.5-2.5.5zm20 0 2.5.5-2.5.5zm58 0 2.5.5-2.5.5zm-73 1 2.5.5-2.5.5zm-18 3 2.5.5-2.5.5zm-12 1 2 1 3-1v1l-4 1q-2.5-1-1-2Zm35 0 2.5.5-2.5.5zm14 0 2.5.5-2.5.5zm-41 1 2.5.5-2.5.5zm32 0 2.5.5-2.5.5zm14 0 2.5.5-2.5.5zm-48 2 .5 2.5h-1zm25 0 2.5.5-2.5.5zm52 0 2.5.5-2.5.5zm-61 1 2.5.5-2.5.5zm-23 1 2.5 2.5-.5.5-2.5-2.5zm46 1 2.5.5-2.5.5zm-9 1 2.5.5-2.5.5zm47 0 2.5.5-2.5.5zm-77 1 1.5.5-2.5 1.5q-1.5-1 1-2Zm13 0 2.5.5-2.5.5zm5 1 2.5.5-2.5.5zm10 5 2.5.5-2.5.5zm-7 3 2.5.5-2.5.5zm31 2 2.5.5-2.5.5zm-23 6 2.5.5.5 1.5 3.5.5-3.5.5-3.5-2.5zm10 3 2.5.5-2.5.5zm-11 2 1 1 1.5-.5-.5 1.5q-3.8-.7-2-2Zm5 0 2.5.5-2.5.5zm6 1 2.5.5-2.5.5zm5 12 2.5.5-2.5.5zm6 1 2.5.5-2.5.5zm-17 1 2.5.5-2.5.5zm28 1 2.5 2.5-.5.5-2.5-2.5zm-16 1 2.5.5-2.5.5zm6 1q3-.5 3.5 1.5l-1.5-.5q-3 .5-2-1Zm-27 4 2.5.5-2.5.5zm42 3 1.5.5-2.5 2.5-.5-.5zm-6 1 2.5.5-2.5.5zm-13 1 2.5.5-2.5.5zm23 0 2.5 2.5-.5.5-2.5-2.5zm-9 3 2.5.5-2.5.5zm-22 2 2.5.5-2.5.5zm9 2 2.5.5-2.5.5zm1 4 2.5.5-2.5.5zm-53 2 2.5.5-2.5.5zm62 0 2.5.5-2.5.5zm20 1 1.5 2.5-1.5.5zm-8 3q2.5 1 1 2l-1.5-.5zm-34 1 2.5.5-2.5.5zm9 2 2.5.5-2.5.5zm-8 2 2.5.5-2.5.5zm-43 1 2.5.5-2.5.5zm65 0 2.5.5-2.5.5zm9 2 2.5.5-2.5.5zm-100 3 2.5.5-2.5.5zm53 1 2.5.5-2.5.5zm48 0 2.5.5-2.5.5zm-30 4 2.5.5-2.5.5zm28 0 2.5 2.5-.5.5-2.5-2.5zm-68 2 2.5.5-2.5.5zm49 0 2.5.5-2.5.5zm14 3 2.5 1.5-1.5-.5q-2.4-.1-1-1Zm11 0q1.5 1-1 2l-1.5-.5zm-52 2 2.5.5-2.5.5zm27 0 2.5 1.5-1.5-.5q-2.4-.1-1-1Zm5 3 2.5 3.5h-1l-2-3zm-119 2 2.5.5-2.5.5zm89 1q2.5 1 1 2l-1.5-.5-.5 1.5-2.5-.5zm4 3 3.5 3.5-.5.5-3.5-3.5zm-61 7 2.5 2.5-.5.5-2.5-2.5zm17 0 2.5.5-2.5.5zm-72 1 2.5.5-2.5.5zm9 2 2.5.5-2.5.5zm-73 1 1.5.5-.5 1.5q-2.5-1-1-2Zm121 1 2.5.5-2.5.5zm-47 2 .5 2.5h-1zm-71 4 2.5.5-2.5.5zm-50 1 2.5.5-2.5.5zm-53 1 2.5 2.5-.5.5-2.5-2.5zm16 0 2.5.5-2.5.5zm-56 2 1.5.5q-1 2.5-2 1zm9 4-.5 1.5-.5 1.5-.5-1.5zm115 0 2.5.5-2.5.5zm17 0 2.5.5-2.5.5zm-165 4 2.5 2.5-.5.5-2.5-2.5zm72 1 2.5.5-2.5.5zm60 0 2.5.5-2.5.5zm-156 4 1.5 2.5q-1 1.5-2-1zm97 0 2.5.5-2.5.5zm60 0 2.5.5-2.5.5zm18 0 2.5.5-2.5.5zm-121 2 2.5.5-2.5.5zm57 1 2.5.5-2.5.5zm18 0 2.5.5-2.5.5zm47 1 2.5.5-2.5.5zm-171 1 2.5 1.5-1.5.5q-2.5-1-1-2Zm138 1 2.5.5-2.5.5zm-48 1 2.5.5-2.5.5zm35 0 2.5.5-2.5.5zm-150 2 2.5 3.5-.5.5-2.5-2.5zm177 0 2.5.5-2.5.5zm-48 1 2.5.5-2.5.5zm35 0 2.5.5-2.5.5zm18 0 2.5.5-2.5.5zm-39 3 2.5.5-2.5.5zm35 0 2.5.5-2.5.5zm-173 1 2.5 1.5-1.5.5q-2.5-1-1-2Zm6 0 2.5.5-2.5.5zm9 2 2.5.5-2.5.5zm133 3 2.5.5-2.5.5zm-157 1 .5 2.5h-1zm42 0 2.5.5-2.5.5zm61 1 2.5.5-2.5.5zm-52 1 2.5.5-2.5.5zm120 0 2.5.5-2.5.5zm-168 1 2.5.5-2.5.5zm57 1 2.5.5-2.5.5zm-61 2 2.5.5-2.5.5zm5 1 2.5.5-2.5.5zm23 1 2.5.5-2.5.5zm-4 3 2.5.5-2.5.5zm5 1 2.5.5-2.5.5zm18 0 2.5.5-2.5.5zm50 0 2.5.5-2.5.5zm-110 1 3.5 3.5-.5.5-3.5-3.5zm65 0 2.5.5-2.5.5zm-44 3 2.5.5-2.5.5zm40 0 2.5.5-2.5.5zm18 0 2.5.5-2.5.5zm49 0 2.5.5-2.5.5zm-119 1 1.5.5-3.5 2.5q-2.5-1-1-2 1.5 2.5 3-1Zm13 3 2.5.5-2.5.5zm58 0 2.5.5-2.5.5zm-49 2 2.5.5-2.5.5zm77 0 2.5.5-2.5.5zm-9 2 2.5.5-2.5.5zm-37 1 2.5.5-2.5.5zm-49 1 1.5 2.5-1.5.5zm-8 1 1.5.5-2 1 2 2-.5.5-2.5-2.5zm58 2 2.5.5-2.5.5zm65 1 2.5.5-2.5.5zm-34 2 2.5.5-2.5.5zm-59 5 2.5.5-2.5.5zm-15 4 1.5.5-.5 1.5q-2.5-1-1-2Zm-8 2 1.5 2.5q-1 1.5-2-1zm4 4 2.5 2.5-.5.5-2.5-2.5zm80 4 2.5.5-2.5.5zm-67 13 2.5 2.5-.5.5-2.5-2.5zm183 14 13.5.5-14 1 .5 28.5 14.5.5-14.5.5-1.5-1.5v-28z" opacity=".38"/><path fill="#00c2fe" stroke="#00c2fe" d="m288.5 395 1 6 6.5.5-6.5.5-1.5-1.5zm16 6 .5.5-2.5 2.5-.5-.5zm-15 5 7.5.5-8 1-.5 6.5-.5-6.5zm18 3 .5 2.5h-1zm-5 27 .5 2.5h-1z" opacity=".38"/><path fill="#ef5252" stroke="#ef5252" d="M554.5 40q1 2 2 0l1.5 1.5h-2l-.5 1.5-1.5-2.5zm9 3 1.5 1.5v84h-1v-84zm-15 5 .5 76.5h-1zm6 0 1.5.5-.5 78.5-.5-77.5zm-16 9 1.5.5-1 1-.5 11.5q-2.7-1.2-.5-2.5zm6 0 1.5.5-.5 68.5-.5-67.5zm31 1 1.5.5-1 1-.5 71.5zm5 0 .5 72.5h-1zm-43 13 1.5 1.5v50h-1v-50zm-7 3 .5 46.5h-1zm-10 22 1.5.5-1 1-.5 21.5zm-384 31 .5 4.5h-1zm-37 8 .5 2.5h-1zm3 5 35.5.5-1.5 3.5-1-3h-33z" opacity=".02"/><path fill="#ef5252" stroke="#ef5252" d="m114.5 142 20.5.5-20.5.5zm-3 3 .5 28.5h-1zm26 1 1.5.5-1.5 2.5zm-17 5 14.5.5-12.5.5-1 1q-2.5-1-1-2Zm16 5 .5 4.5h-1zm-15 5 .5 4.5h-1zm-4 21 7.5.5-7.5.5zm134 1 .5 83.5h-1zm-124 2 .5 106.5h-1zm130 4 3.5 2.5-2.5.5zm9 2-.5 1.5-.5 80.5-.5-80.5zm-7 2 .5 77.5h-1zm23 4 1.5 2.5q-1 1.5-2-1zm-58 2 1.5.5-1 1-.5 75.5zm7 0 1.5.5-.5 78.5-.5-77.5zm50 5 .5 71.5h-1zm202 3 .5 2.5h-1zm-32 4 .5 3.5h-1zm-162 2 .5 1.5q-1 2.5-2 1zm168 0 .5 3.5h-1zm26 4 .5 4.5h-1zm-276 1 1.5.5-1 1-.5 53.5zm89 0 2.5 1.5-1.5.5q-2.5-1-1-2Zm-6 1 1.5.5-1 1-.5 46.5zm161 5 .5 2.5h-1zm-22 5 .5 2.5h-1zm-122 2 .5 1.5q-1 2.5-2 1zm136 1 .5 2.5h-1zm8 2 .5 2.5h-1zm6 1 .5 2.5h-1zm-143 3 1.5.5-.5 33.5-.5-32.5zm115 2 .5 2.5h-1zm54 1 .5 2.5h-1zm-40 2 .5 3.5h-1zm-46 1 .5 4.5h-1zm54 1 .5 2.5h-1zm-46 1 .5 4.5h-1zm-207 1 .5 23.5h-1zm215 1 .5 4.5h-1zm16 4 .5 3.5h-1zm14 3 .5 3.5h-1zm8 2 .5 3.5h-1zm-100 1 2.5.5-2.5.5zm-30 2 1.5.5-1 1-.5 11.5zm50 0 .5 3.5h-1zm86 0 .5 34.5 1 1-1.5.5zm-82 1 .5 2.5h-1zm54 4 .5 64.5h-1zm-32 2 .5 51.5 1 1q-1 1.5-2-1zm-47 1 .5 10.5h-1zm6 0 .5 9.5h-1zm49 0 .5 57.5 1 1-1.5.5zm38 0 .5 46.5-1.5.5.5-1.5zm8 1 .5 25.5 1 1-1.5.5zm-271 1 3.5 6.5h-1l-3-6zm183 1 .5 22.5 1 1-1.5.5zm50 1 .5 54.5-1.5.5.5-1.5zm-123 2 .5 3.5h-1zm81 1 .5 18.5q-1 2.5-2 1l1-1zm4 0 .5 32.5h-1zm-124 3 .5 3.5h-1zm-53 2 .5 2.5h-1zm61 0 .5 4.5h-1zm-52 1 .5 3.5h-1zm17 4 .5 3.5h-1zm57 0 .5 2.5h-1zm-49 2 .5 4.5h-1zm58 0 .5 2.5h-1zm-39 4 .5 3.5h-1zm-53 1 .5 3.5h-1zm61 0 .5 3.5h-1zm22 5 .5 2.5h-1zm-108 1 .5 3.5h-1zm59 1 .5 2.5h-1zm217 0 3.5 6.5h-1l-3-6zm-322 1 .5 4.5h-1zm71 3 .5 4.5h-1zm53 0 .5 2.5h-1zm-44 2 .5 4.5h-1zm52 0 .5 3.5h-1zm-35 4 .5 4.5h-1zm161 0 .5 1.5-1.5 2.5-.5-1.5zm-212 2 .5 3.5h-1zm59 0 .5 4.5h-1zm-105 3 .5 5.5h-1zm71 3 .5 3.5h-1zm247 1-.5 1.5-.5 1.5-.5-1.5zm-238 1 .5 3.5h-1zm-52 4 1.5.5-1.5 2.5zm69 0 .5 4.5h-1zm-51 1 .5 5.5h-1zm59 1 .5 2.5h-1zm-105 4 .5 3.5h-1zm71 1 .5 4.5h-1zm9 1 .5 5.5h-1zm214 0 2.5.5-2.5.5zm-266 4 .5 4.5h-1zm18 3 .5 5.5h-1zm-46 3 .5 5.5h-1zm71 3 .5 2.5h-1zm-43 3 .5 5.5h-1zm18 4 .5 5.5h-1zm-46 5 .5 4.5h-1zm28 6 .5 4.5h-1zm-28 7 .5 6.5h-1zm15 4 .5 5.5h-1zm-15 10 .5 3.5h-1zm0 20 .5 66.5h-1z" opacity=".02"/><path fill="#37469e" stroke="#37469e" d="m627.5 95 5.5.5-5.5.5zm-4 2 .5.5-2.5 2.5-.5-.5zm12 5 2.5.5-2.5.5zm-10 1 .5 6.5h-1zm9 6 3.5.5-3.5.5zm4 3 .5 1.5-4.5 3.5v-1l3.5-2.5zm-17 1 4.5 3.5-1.5.5-3.5-3.5zm6 4 5.5.5-5.5.5z" opacity=".671"/><path fill="#fd0005" stroke="#fd0005" d="m563.5 0 .5 30.5h-1zm1 38 3.5 1.5-1.5.5-2.5-1.5zm-7 4 .5 2.5-1.5-.5-1.5-.5zm15 1 2.5.5-2.5.5zm-26 2 1.5.5q-1 2.5-2 1zm11 1 .5 80.5h-1zm15 1 1 7 1.5.5-2 1q2 1 0 2l-.5 73.5zm-36 7 1.5.5q-1 2.5-2 1zm10 0 1.5.5-.5 1.5q-2.5-1-1-2Zm36 2 .5 72.5h-1v-69l-1-1zm-44 15-.5 1.5-.5 50.5-.5-50.5zm-15 15 1.5.5-2.5 1.5q-1.5-1 1-2Zm4 8 .5 25.5h-1zm-426 38 34.5.5-34.5.5zm53 1 3.5 3.5-1.5 1.5.5-1.5-3-3zm-15 14 1.5.5-3.5 2.5-.5-.5zm-17 6 12.5.5-12.5.5zm0 13 13.5.5-13.5.5zm16 3 .5 4.5h-1zm109 2 .5.5-2 2-.5 1.5-1.5-.5zm-133 4 21.5.5-21.5.5zm148 5 4.5 3.5-1.5.5-2-3q-2.4-.1-1-1Zm-19 2q2.7 1.3.5 2.5l-.5 84.5-.5-84.5 1-1zm-129 3 .5 102.5h-1zm152 8 1.5.5-.5 79.5-.5-78.5zm193 19 .5 4.5h-1zm5 1 .5 4.5h-1zm7 2 .5 5.5h-1zm-256 3 .5 55.5h-1zm-2 2 .5 53.5h-1zm85 0 .5 44.5h-1zm12 7-.5 1.5-.5 1.5-.5-1.5zm-116 8 .5.5-2 2-.5 1.5-.5-1.5zm113 3 .5 31.5h-1zm115 1 .5 3.5h-1zm13 3 .5 2.5h-1zm-245 5 1.5.5-1 1-.5 33.5zm269 0 .5 2.5h-1zm5 1 .5 2.5h-1zm-42 2 .5 6.5h-1zm49 0 .5 2.5h-1zm-36 3 .5 3.5h-1zm24 6 .5 36.5h-1zm-130 1 .5 11.5h-1zm135 0 .5 14.5 1 1-1.5.5zm-81 3 .5 44.5-1.5.5.5-1.5zm39 0 .5 2.5h-1zm49 0 .5 12.5-1.5.5.5-1.5zm-81 2 .5 53.5h-1zm-213 1 2.5 3.5h-1l-2-3zm258 0 .5 48.5h-1zm-13 2 .5 60.5 1 1-1.5.5zm-74 2 .5 6.5 1 1-1.5.5zm-105 5 .5 4.5h-1zm55 1 .5 3.5h-1zm163 1q2.5 1 1 2l-1.5-.5zm-281 1 1.5.5-.5 1.5q-2.5-1-1-2Zm127 0 .5 3.5h-1zm-40 4 .5 2.5h-1zm-54 1 .5 2.5h-1zm2 0 .5 3.5h-1zm133 2 2.5.5-2.5.5zm-167 3 .5 2.5h-1zm62 1 .5 3.5h-1zm-53 1 .5 2.5h-1zm77 4 .5 3.5h-1zm-54 1 .5 2.5h-1zm-99 4 .5 2.5h-1zm67 1 .5 3.5h-1zm9 2 .5 3.5h-1zm23 5 .5 4.5h-1zm2 0 .5 4.5h-1zm-101 4 .5 5.5h-1zm67 2 .5 3.5h-1zm62 0 .5 5.5h-1zm-53 2 .5 3.5h-1zm191 1 .5 1.5q-1 2.5-2 1zm-229 4 1.5.5q-1 2.5-2 1zm61 1 .5 2.5h-1zm2 0 .5 4.5h-1zm-52 2-.5 1.5-.5 2.5-.5-2.5zm274 1 1.5.5q-1 2.5-2 1zm-323 2 .5 3.5h-1zm67 0 .5 4.5h-1zm9 2 .5 4.5h-1zm23 5 .5 3.5h-1zm2 0 .5 3.5h-1zm-53 3 .5 3.5h-1zm-48 2 .5 5.5h-1zm67 2 .5 3.5h-1zm9 2 .5 3.5h-1zm-28 7 .5 5.5h-1zm-48 4 .5 4.5h-1zm67 0 .5 3.5h-1zm-38 7 2.5 1.5-1.5-.5q-2.4-.1-1-1Zm19 4 .5 2.5h-1zm-48 1 .5 7.5h-1zm21 6 .5 6.5h-1zm-21 10 .5 3.5h-1zm0 22 .5 66.5h-1z" opacity=".004"/><path fill="#3d3d42" stroke="#3d3d42" d="m561.5 0 .5 31.5h-1zm-4 1 .5 10.5-1.5.5.5-1.5zm-15 9 4.5.5-4.5.5zm4 2 6.5.5-6.5.5zm-4 4 .5 1.5-1.5.5q-1.5-1 1-2Zm15 2 .5 12.5h-1zm-4 4-.5 1.5 1 1-1.5 1.5.5-1.5-1-1zm-3 4 .5.5-2.5 2.5-1.5-.5.5-1.5q1.5 2.5 3-1Zm-152 28 3.5.5-3.5.5zm-7 2 .5 2.5h-1zm37 15 1.5 3.5h-1l-.5-1.5-1.5.5zm-18 7 .5 1.5-1.5 3.5-1.5-.5zm-4 4 1.5 2.5q-1 1.5-2-1zm11 5 .5 1.5-1.5 2.5-.5-1.5zm10 2 1.5.5-2 1-.5 1.5-.5-1.5zm3 1 .5 3.5h-1zm-10 11 2.5.5-2.5.5zm-28 1 4.5.5-4.5.5zm-40 5 2.5 1.5-1.5-.5q-2.4-.1-1-1Zm243 5 4.5.5-4.5.5zm11 1 8.5.5-8.5.5zm-13 1 1.5.5q-1 2.5-2 1zm-292 16 2.5 1.5-1.5-.5q-2.4-.1-1-1Zm-58 5 .5 28.5h-1zm10 5-.5 1.5 1 1-1.5 1.5.5-1.5-1-1zm-3 4-.5 1.5 1 1-1.5 1.5.5-1.5-1-1zm-2 10 4.5.5-4.5.5zm13 1 2.5.5-2.5.5zm-7 1 2.5.5-2.5.5z" opacity=".11"/><path fill="#fc3338" stroke="#fc3338" d="m560.5 35 2.5 1.5-.5 1.5-1-2q-2.4-.1-1-1Zm3 4 1.5 2.5h-1zm5 0 .5 1.5-1.5 2.5-.5-1.5zm2 1 1.5 2.5h-1zm-20 2-.5 1.5-1 2 2 1-.5 80.5-1-80-1.5-.5zm12 0 .5 85.5h-1zm-3 1 .5 84.5h-1zm7 1q2.5 1 1 2l-1.5-.5zm6 0 .5 1.5-1.5.5q-1.5-1 1-2Zm-17 1 .5 1.5-2 1-.5 81.5-.5-82.5zm-14 4 2.5 1.5-.5 1.5-1-2q-2.4-.1-1-1Zm37 0 1.5 2.5h-1zm-39 4v2l1.5.5-.5 70.5-.5-69.5-2-2zm5 0 1.5 2.5-2 1-.5 69.5-.5-69.5 2-2zm31 2q2.5 1 1 2l-1.5-.5zm-40 12 1.5 2.5q-1 1.5-2-1zm-3 5 .5 51.5h-1zm3 0 .5 50.5h-1zm-12 16 1.5.5 2 4q-1 1.5-2-1l-2-3zm-1 2-.5 1.5-1.5 3.5-.5-1.5zm0 5 .5 22.5h-1zm3 1 .5 23.5h-1zm-10 22q2.5 1 1 2l-1-1-1.5.5zm-377 9 1.5.5q-2.2 1.3-1 6l-1.5 1.5-35.5.5.5 2.5h35l1.5 1.5-.5 6.5-1-7-36.5-.5q-.7-3.7 1.5-4.5l35.5-.5zm394 0 .5 3.5h-1zm18 4 .5 3.5h-1zm3 1 .5 2.5h-1zm-21 2 .5 4.5h-1zm11 3 .5 2.5h-1zm7 2 .5 3.5h-1zm3 0 .5 4.5h-1zm-31 1 .5 2.5h-1zm10 2 .5 3.5h-1zm-419 2 .5 29.5h-1z" opacity=".271"/><path fill="#fc3338" stroke="#fc3338" d="m135.5 144 .5 5.5-15.5.5-1 1q-1.5-1 1-2l14.5-.5zm408 1 .5 2.5h-1zm7 1 .5 2.5h-1zm-430 9h13l1.5 1.5-.5 4.5-1-5h-13zm412 0 .5 2.5h-1zm-412 13h15l1.5 1.5-.5 3.5-1-4h-15zm127 5 1.5.5 3 6q-1 1.5-2-1l-2.5-4.5-1.5.5zm2 9 .5 86.5h-1zm13 0 2.5 1.5 1 3h-1l-1.5-3.5-2 3-.5-1.5zm-17 1 .5 84.5h-1zm-128 1 8.5.5-9 1-.5 101.5-.5-101.5zm111 4 2.5 3.5q-1 1.5-2-1l-.5-1.5-2 3 .5-1.5zm38 0q2 .5 1.5 3.5h-1zm-5 3 .5 82.5h-1zm-37 6 2.5.5-.5 80.5-1-80q-2.4-.1-1-1Zm6 0 2.5.5-2 1-.5 81.5zm44 2-.5 1.5-.5 2.5-.5-2.5zm217 1 2.5.5-2.5.5zm-3 8 1.5.5q-1 2.5-2 1zm-35 1 .5 4.5h-1zm-246 5v2l1.5.5-2.5.5-.5-1.5zm8 1 .5 1.5-2.5.5v-1zm83 1 .5 1.5-2.5.5v-1zm-8 1 2.5 1.5-.5 49.5-1-50q-2.4-.1-1-1Zm6 2 .5 45.5h-1zm141 1 .5 2.5h-1zm4 0 .5 4.5h-1zm-4 11 .5 2.5h-1zm4 0 .5 4.5h-1zm-34 3 .5 4.5h-1zm4 1 .5 4.5h-1zm-217 2 1.5.5 3 6q-1 1.5-2-1l-2.5-4.5-1.5.5zm119 0 .5 35.5h-1zm-4 1 .5 31.5h-1zm128 4 .5 2.5h-1zm4 0 .5 4.5h-1zm-34 3 .5 6.5h-1zm46 0 .5 5.5h-1zm-257 1 .5 26.5h-1zm215 0 .5 6.5h-1zm-219 1 .5 34.5h-1zm132 3 .5 1.5-3.5 5.5.5-1.5zm53 1 .5 2.5h-1zm60 2 .5 4.5h-1zm4 0 .5 6.5h-1zm-112 4 .5 1.5-2 1-.5 15.5-.5-15.5zm-8 1 2.5 1.5-.5 15.5-1-16q-2.4-.1-1-1Zm44 0 .5 5.5h-1zm88 0 .5 2.5h-1zm-84 1 .5 5.5h-1zm-18 1 2.5.5-2.5.5zm26 1 .5 4.5h-1zm4 2 .5 4.5h-1zm60 2 1 51 1.5.5-1.5.5-1.5-1.5zm-4 1 .5 50.5-2.5 1.5-.5-1.5 2-1zm-261 2 2.5 1.5-1.5-.5-1.5 1.5-1.5 3.5-.5-1.5zm231 0 .5 59.5h-1zm-42 1 .5 26.5h-1zm16 0 .5 38.5h-1zm-27 1 .5 8.5h-1zm57 0 .5 57.5h-1zm42 0 .5 26.5h-1zm-84 1 .5 24.5h-1zm-77 2 .5 7.5h-1zm85 0 .5 35.5h-1zm-181 3 .5 8.5h-1zm100 0 .5 3.5h-1zm-121 1 .5 3.5h-1zm70 0 .5 4.5h-1zm218 0 1.5 2.5q-1 1.5-2-1zm-214 1 .5 5.5h-1zm12 0 .5 7.5h-1zm52 0 .5 4.5h-1zm-4 1 .5 4.5h-1zm39 0 2.5.5-2.5 1.5zm8 0q2.8 1.3.5 2.5l-2.5 5.5-.5-1.5 3-5zm-130 5 .5 5.5h-1zm4 1 .5 5.5h-1zm62 0 .5 7.5h-1zm-117 1 .5 5.5h-1zm74 2 .5 7.5h-1zm47 0 .5 4.5h-1zm-100 1 .5 6.5h-1zm49 0 .5 3.5h-1zm16 1 .5 8.5h-1zm-86 6 .5 8.5h-1zm188 0 1.5 3.5q-1 1.5-2-1zm-137 1 .5 5.5h-1zm4 1 .5 5.5h-1zm-114 1 .5 3.5h-1zm63 0 .5 4.5h-1zm17 2 .5 8.5h-1zm53 0 .5 6.5h-1zm116 0 1.5 3.5h-1zm-173 1 .5 4.5h-1zm53 0 .5 3.5h-1zm16 1 .5 6.5h-1zm-35 5 .5 7.5h-1zm-51 1 .5 8.5h-1zm55 0 .5 7.5h-1zm-114 2 .5 6.5h-1zm259 0 3.5 6.5h-1l-3-6zm-126 1 .5 6.5h-1zm-70 1 .5 4.5h-1zm66 0 .5 6.5h-1zm-49 1 .5 8.5h-1zm-4 2 .5 2.5h-1zm-17 6 .5 9.5h-1zm51 0 .5 5.5h-1zm4 0 .5 7.5h-1zm-114 3 .5 4.5h-1zm63 0 .5 5.5h-1zm17 2 .5 9.5h-1zm-4 1 .5 6.5h-1zm-17 9 .5 7.5h-1zm-59 2 .5 4.5h-1zm63 1 .5 3.5h-1zm17 1 .5 7.5h-1zm-4 1 .5 5.5h-1zm-17 7 .5 10.5 1 1q-1 1.5-2-1zm-59 4 .5 4.5h-1zm63 0 .5 3.5h-1zm-44 6-.5 1.5-.5 1.5-.5-1.5zm-19 8 .5 5.5h-1zm0 15 .5 4.5h-1zm0 18 .5 69.5h-1z" opacity=".271"/><path fill="#3b8ab4" stroke="#3b8ab4" d="m627.5 104 .5 4.5h-1zm8 3 .5.5-2.5 2.5-.5-.5zm-6 5 2.5.5-2.5.5z" opacity=".027"/><path fill="#313e64" stroke="#313e64" d="m559.5 2 .5 7.5h-1zm-16 10 2.5.5-2.5.5zm16 5 .5 12.5h-1zm-131 73 .5 3.5h-1zm-37 9 1 1 4.5.5-4.5.5q-2.5-1-1-2Zm228 5 .5 4.5h-1zm-4 9 1.5.5-.5 1.5q-2.5-1-1-2Zm-20 1 4.5.5-4.5.5zm-342 40 2.5.5-2.5.5z" opacity=".365"/><path fill="#00dffc" stroke="#00dffc" d="m477.5 116 5.5 2.5-2.5.5-3.5-2.5zm18 0 1.5.5-2.5 1.5q-1.5-1 1-2Zm11 0 7.5 1.5-4.5 1.5v-2l-5 1v-1zm-42 2v2l5 1 1-2 1 1 1.5-.5-.5 1.5-2.5.5 3.5.5 1.5 1.5q-1 2.5-2 1l.5-1.5q-3.2-.8-4 1v-2q-3.2-.7-4 1l-2-3-3.5.5.5 1.5-2.5-1.5zm20 0 3.5 1.5-3.5 1.5zm6 2q3.8-.7 4.5 1.5-1 2.5-2 1l.5-1.5q-4 .8-3-1Z" opacity=".031"/><path fill="#00dffc" stroke="#00dffc" d="m496.5 120 3.5 2.5q-1 2.5-2 1l.5-1.5q-3.8-.7-2-2Zm-40 2 1.5.5.5 2.5 1.5-.5-1.5 1.5-1-1-1.5.5q2-1 0-2zm46 0 7 1 1.5-.5-1.5 2.5q-1-2-5-1l-2 1v-1l1.5-.5-2-1zm-22 1 .5 1.5-1.5.5q-1.5-1 1-2Zm5 1q1.5 1-1 2l-2 1-.5-1.5zm-31 1v3l-3.5-1.5zm36 0q1.5 1-1 2l-3 1q-1.5-1 1-2zm-30 1 .5 1.5-2.5.5v-1zm6 0v2l2.5.5-.5 1.5-3 1v-2l-2-1-1.5.5zm29 0v2l5-1v1l-6 2v-2q-3.2-.7-4 1-1.5-1 1-2 3.3.7 4-1Zm-21 2-.5 1.5-.5 1.5q-3 .5-3.5-1.5zm-28 1v2l3 1 2-1q2.5 1 1 2-1-2-2 0l-2 1v-2l-4.5-1.5zm54 0 2.5.5-2.5.5zm-25 1 2.5 1.5-1.5.5q-2.5-1-1-2Zm8 0v2l7 1 1.5-.5-.5 1.5 7 1 5 2h4l1.5-.5-.5 1.5q3-.5 3.5 1.5-1 2.5-2 1l.5-1.5-8-1-1.5.5.5-1.5h-3l-5-2h-4l-1-1h-4l-1.5.5.5-1.5q-3.7.8-4.5-1.5zm21 0 7.5 1.5-4.5 1.5v-2q-3.3-.7-4 1-1.5-1 1-2Zm-42 3q1.5 1-1 2l-3 1q-1.5-1 1-2zm4 1 .5 1.5-3.5 1.5q-1.5-1 1-2zm90 0 2.5.5-2.5.5zm-85 1q1.5 1-1 2l-3 1q-1.5-1 1-2zm96 0q1.5 1-1 2l-1.5-.5zm-92 1q1.5 1-1 2l-2 1q-1.5-1 1-2zm-37 1 2.5 1.5-1.5-.5q-2.4-.1-1-1Zm12 0v2l8 1 2-1v1l-8 2v-1l1.5-.5-4.5-.5-2 1v-1l1.5-.5-3-1zm30 0q1.5 1-1 2l-2 1q-1.5-1 1-2zm4 1 .5.5-2.5 2.5-.5-.5zm5 1 .5.5-2.5 2.5-1.5-.5zm-53 1 1.5 2.5q-1 1.5-2-1zm28 0v2l3.5.5-3.5.5-4.5-1.5zm29 0 .5 1.5-2.5 1.5v-1l1.5-.5zm36 1-.5 1.5 1 1-1.5 1.5.5-1.5-1-1zm-86 2 2.5 2.5-.5.5-2.5-1.5zm26 0 8 1 1 1h4l1.5-.5-.5 1.5q4 1 5-1v2q4 1 5-1v2l8.5 1.5-4.5.5-1 1v-2q-4-1-5 1v-2l-8-1-2 1v-1l1.5-.5-4.5-.5-1.5.5.5-1.5q-4-1-5 1v-2q-4 .7-3-1Zm-20 1 1 2q3.3.8 4-1 1.5 1-1 2-3.2-.8-4 1v-2l-1.5-.5zm-9 2 1.5.5q-3.7 1.8-.5 3.5l1.5-.5-.5 1.5 2.5 1.5 1 2q-1 1.5-2-1l-.5-1.5-5.5-4.5zm19 0q1.5 1-1 2-3.2-.7-4 1-1.5-1 1-2 3.3.8 4-1Zm88 1 2.5.5-3.5 1.5q-1.5-1 1-2Zm-87 1 2.5.5-3.5 1.5q-1.5-1 1-2Zm9 0v2l5-1v1l-6 2v-2l-5 1v-1zm9 2q1.5 1-1 2-3.2-.7-4 1-1.5-1 1-2 3.3.8 4-1Zm5 1v2l3.5.5-4.5 1.5v-2q-3.2-.7-4 1-1.5-1 1-2 3.2.8 4-1Zm-32 2 8 1 2-1v1l-1.5.5 4.5 1.5h5l1.5-.5-1 1 .5 1.5-3-1h-5l-1.5.5.5-1.5-8-1-2 1v-1l1.5-.5-2-1zm42 0v2l2.5.5-3.5 1.5v-2q-4-1-5 1-1.5-1 1-2 4 1 5-1Zm24 0 2.5.5-2.5.5zm-19 3 3.5.5-4.5 1.5q-1.5-1 1-2Zm-26 1 2.5 1.5-3.5 1.5.5-1.5zm7 0v2q4 1 5-1v2l7 1 1.5 1.5-1.5-.5-9-1-6.5-2.5zm-35 1q1 2 2 0l1.5 1.5-.5 1.5 6-2v2q4 1 5-1 1.5 1-1 2l-2.5.5 2 1-1.5.5-2.5-1.5-.5-1.5-5 1-3.5-3.5zm73 2 2.5.5-2.5.5zm-58 2 7 1 1 1h4l2-1v1l-1.5.5 6 2-3.5 1.5v-2q-4-1-5 1v-2q-3.2-.7-4 1v-2l-6-1zm41 1 3.5 1.5-4.5 1.5v-1l1.5-.5zm-49 2 2.5.5-2.5.5zm31 0v2l8.5 1.5-.5 1.5-3 1v-2l-7-1-1.5-1.5zm-28 2 2 2 1.5-.5-1.5 1.5-2.5-2.5zm8 1q1.5 1-1 2l-2.5-.5zm4 3 3.5.5-3.5.5zm9 0v2l4.5.5-2 1 .5 1.5-3.5-1.5-.5-1.5-2.5-.5zm7 3 4.5 1.5-4.5.5zm6 2 3.5.5-3.5.5zm-15 2 1.5.5.5 1.5 1.5-.5-.5 1.5 3.5 2.5-.5.5-2-2-4.5-3.5zm9 4 4.5.5-4.5.5zm11 9 4.5.5-4.5.5zm6 1 3.5.5-3.5.5zm6 0 .5.5-2.5 2.5-.5-.5zm3 0 3.5 2.5q-1 2.5-2 1l.5-1.5-2-1-1.5.5zm-14 7 4.5.5-4.5 1.5zm6 1 2.5.5-3.5 1.5h-3v-1q3.3.8 4-1Zm5 1 3.5 2.5-5.5 1.5q-1.5-1 1-2l1.5-.5zm12 2 7.5 5.5-1.5.5-3-3-1.5.5.5-1.5q-3.8-.7-2-2Zm-7 1q4.1-.6 5.5 1.5l-2.5 1.5v-2q-4 .8-3-1Zm-14 3q1.5 1-1 2l-3.5-.5zm5 1v2l3.5.5-3.5.5-3.5-1.5zm-17 1 2.5.5-2.5.5zm26 1v3l-3.5-1.5zm-17 1q3.8-.7 4.5 1.5-1 2.5-2 1l.5-1.5q-3.2-.7-4 1-1.5-1 1-2Zm8 1 3.5 1.5-3.5 1.5zm12 0 1.5.5-.5 1.5q-2.5-1-1-2Zm8 0 3.5 1.5-2 1 4 3 .5 2.5 1-1 2.5 2.5-.5 2.5-2-4q-1.2 2.3-2.5-.5l-4-5zm-49 2 2.5.5-2.5.5zm35 0 3.5.5-3.5.5zm-58 1 1.5.5-3.5 1.5v-1zm66 0 4 1 2.5 2.5h-3l.5-1.5q-4.6.8-4-2Zm-57 2q4.1-.6 5.5 1.5l-2.5 1.5v-2q-4 .8-3-1Zm31 1 3.5.5-3.5.5zm14 1v2l3.5.5-3.5.5q-3-1.5 0-3Zm-31 1 2.5.5-2.5.5z" opacity=".031"/><path fill="#00dffc" stroke="#00dffc" d="m498.5 220 2.5.5-2.5.5zm14 1v2l3.5.5-3.5.5-3.5-1.5zm-67 1 3.5.5-3.5.5zm39 0 3.5 1.5-3.5 1.5zm5 1 3.5 1.5-3.5 1.5zm31 0q1.5 1-1 2l-1.5-.5zm-76 1 2.5.5-2.5.5zm19 0q1.5 1-1 2l-2.5-.5zm32 1 3.5.5-3.5.5zm9 2 3.5.5-3.5.5zm-70 1v3l-4.5-1.5zm27 0 2.5.5-2.5.5zm-41 1 3.5 1.5-3.5 1.5zm93 0q3.8-.7 4.5 1.5-1 2.5-2 1l.5-1.5q-3.2-.7-4 1-1.5-1 1-2Zm-22 1v2l3.5.5-3.5.5q-3-1.5 0-3Zm37 0 4.5 3.5-1.5-.5-3-2q-1 2-5 1v-1q4 1 5-1Zm-80 1v2l2.5.5-2.5.5-3.5-1.5zm-18 1 3.5.5-3.5.5zm70 0v2l5-1v1l-5 1-3.5-1.5zm-39 2 1.5.5-4.5 1.5v-1zm27 0 3.5.5-3.5.5zm-71 1v2l1.5.5-1.5.5-3.5-1.5zm80 1 3.5.5-3.5.5zm12 0 3.5.5-3.5.5zm-34 1q1.5 1-1 2l-2.5-.5zm48 0v2l2.5 1.5-1.5.5-2.5-2.5zm-17 1 3.5.5-3.5.5zm12 0 1.5.5q-2.2 1.2.5 2.5l4.5 3.5-1.5 2.5.5-1.5-.5-1.5q-1.2 2.2-2.5-.5l.5-1.5-3.5-2.5zm-57 1 2.5.5-2.5.5zm54 0 1.5.5-3.5 2.5-.5-.5zm-27 1q1.5 1-1 2l-3.5-.5zm-70 1 2.5.5-3.5 1.5q-1.5-1 1-2Zm55 0 4.5 1.5-4.5 1.5zm20 0v2q3.3.8 4-1 1.5 1-1 2h-3l-3.5-1.5zm-45 1v2l2.5.5-2.5.5-4.5-1.5zm-46 1q1.5 1-1 2l-3.5-.5zm100 0v2l3.5.5-3.5.5-2-1v2l-2.5-2.5.5-.5q3.2.8 4-1Zm-70 1 2.5.5-2.5.5zm52 0 2.5.5-2.5.5zm27 1q1.5 1-1 2l-2.5-.5zm-53 1 2.5.5-2.5.5zm34 0q4.1-.6 5.5 1.5l-2.5 1.5v-2q-4 .7-3-1Zm-73 1v2l2.5.5-2.5.5-4.5-1.5zm25 0 3.5.5-3.5.5zm58 0 3.5 3.5-.5.5-2-2-1.5.5 1-1zm17 0 4.5 1.5-3.5.5q-2.5-1-1-2Zm-44 1q1.5 1-1 2l-2.5-.5zm-77 1 4.5 1.5-3.5 1.5v-2q-2.4-.1-1-1Zm63 2 2.5.5-2.5.5zm-29 1 2.5.5-2.5.5zm60 0 1.5.5q-1.4 2.1-5.5 1.5v-1q3.3.7 4-1Zm-104 1-.5 1.5.5 1.5 1.5-.5-.5 1.5-2 1v-2l-3.5-.5zm26 0 3.5.5-3.5.5zm62 0 4.5 5.5h-1l-2.5-3.5-1.5.5 1-1zm-27 1v2l1.5.5-1.5.5-3.5-1.5zm45 0 2.5.5-.5 1.5-2.5-1.5zm7 2 2.5.5-2.5.5zm-103 1 1.5.5q-1 2.5-2 1zm99 0 2.5.5-2.5.5zm-96 1 3.5.5-3.5 1.5zm43 1 1 1 1.5-.5-2.5 2.5-.5-.5 1-1zm4 0 2.5 1.5-1 1 .5 1.5-1.5-1.5.5-1.5q-2.4-.1-1-1Zm-34 2q1 2 2 0l2 2 1-1 2.5.5-3 1 3 2q-2 1 0 2l-.5 1.5-1.5-2.5.5-1.5-4-3-1 1q-2.5-1-1-2Zm61 0 4.5 1.5-4.5 1.5zm-43 2v3l-2.5-1.5zm-31 2v2l3.5.5-3.5.5-3.5-1.5zm-40 3v2l1.5.5-1.5.5-3.5-1.5zm-109 1 6.5 2.5-2.5 1.5v-2q-3.2-.7-4 1zm36 0 1 3q1.3-2.2 2.5.5l-1.5-.5-1 1-1.5-1.5zm15 0 3.5.5-5.5 1.5v-1zm145 0 2.5.5-2.5.5zm-249 1 2.5.5-2.5.5zm245 0 2.5.5-2.5.5zm-241 1 2.5 1.5-1.5-.5q-2.4-.1-1-1Zm113 1q3.8-.7 4.5 1.5-1 2.5-2 1l.5-1.5q-4 .7-3-1Zm-50 1 2.5.5-2.5.5zm-102 1 2.5.5-3 1 .5 1.5-4.5-1.5zm135 0q1.5 1-1 2l-1.5-.5zm73 0 2.5.5-2.5.5zm-155 1 2.5.5-2.5.5zm37 1q1.5 1-1 2l-1.5-.5zm4 1v3l-3.5-1.5zm-103 1 1.5 2.5q-1 1.5-2-1zm-16 1v2l1.5.5-1.5.5-3.5-1.5zm97 0 2.5.5-2.5.5zm-33 1 3.5.5-3.5.5zm68 0 1.5.5-4.5 1.5v-1zm-138 1 2.5 1.5-1.5-.5q-2.4-.1-1-1Zm53 0 3.5.5-3.5.5zm116 0q3.8-.7 4.5 1.5-1 2.5-2 1l.5-1.5q-3.2-.7-4 1-1.5-1 1-2Zm-160 1 4.5 1.5-4.5 1.5zm16 0 3 2q1.3-2.2 2.5.5l-1.5-.5-1 1-2-2q-2.4-.1-1-1Zm56 0 2.5.5-2.5.5zm8 0 1.5.5-4.5 1.5v-1zm-92 1 1.5.5q-2 1 0 2l-1.5 1.5-2.5-2.5.5-.5zm38 0v2l5-1v1l-5 1q-3-1.5 0-3Zm87 0 2.5.5-2.5.5zm30 0v2q3.3.8 4-1v3q-.7-1.7-4-1l-1.5-1.5zm-85 1 3.5.5-3.5.5zm68 1 3.5 1.5-3.5 1.5zm-111 1 5 1q1-2 2 0l1.5.5-1.5.5q-1-2-2 0l-2 1v-2l-5 1v-1zm76 0 2.5.5-2.5.5zm8 0 1.5.5-4.5 1.5v-1zm-109 1 3 3q1.2-2.2 2.5.5l-1 1 .5 1.5-5.5-5.5zm82 0 2.5.5-2.5.5zm-103 1 2.5.5-2.5.5zm71 0 3.5.5-3.5.5zm37 0q3.8-.7 4.5 1.5-1 2.5-2 1l.5-1.5q-4 .8-3-1Zm63 0 3.5 1.5-3.5 1.5zm-111 1 1.5.5-3.5 1.5v-1zm-32 1 3.5.5-3.5.5zm9 0 1.5.5-2 1 .5 1.5-3.5-1.5zm104 0 2.5.5-2.5.5zm-144 1 2 4 1.5-.5-1.5 1.5-2.5-2.5zm45 0v2l3.5.5-3.5.5q-3-1.5 0-3Zm52 0v3l-3.5-1.5zm28 0h3l3.5 1.5-3.5 1.5v-2q-4 .8-3-1Zm-105 1 5.5 1.5-3.5 1.5v-2q-3 .5-2-1Zm57 0h3l3.5 1.5-3.5 1.5v-2q-4 .8-3-1Zm56 0 3.5 1.5-3.5 1.5zm29 0v2l2.5.5-2.5.5-4.5-1.5zm-108 1v3l-3.5-1.5zm5 1v2l5-1v1l-5 1q-3-1.5 0-3Zm52 0q1.5 1-1 2l-2.5-.5zm-79 1 3.5.5-4.5 1.5q-1.5-1 1-2Zm59 0 7.5 1.5-4.5 1.5v-2q-4 .8-3-1Zm53 0 3.5.5-3.5.5zm-157 1 3.5.5-4 1 .5 1.5q-.7-1.7-4-1v2l-2.5-1.5zm17 0q2.5 1 1 2l-1.5-.5zm33 0 5.5 1.5-3.5 1.5v-2q-3 .5-2-1Zm-45 2 2.5 1.5-2.5.5zm85 0 1.5.5-4.5 1.5v-1zm31 0 7.5 2.5-2.5 1.5v-2q-4-1-5 1zm-84 1v2l5-1v1l-5 1-4.5-1.5zm25 0 3.5.5-4.5 1.5q-1.5-1 1-2Zm33 0 1.5.5-4.5 1.5v-1zm53 0q1.5 1-1 2l-4.5-.5 4.5-.5zm-134 2 2.5.5-2.5.5zm56 0 2.5.5-3.5 1.5q-1.5-1 1-2Zm-20 1v2q3.3.8 4-1v2l5-1v1l-5 1-7.5-2.5zm25 0 2.5.5-2.5.5zm87 0v2l1.5.5-1.5.5-1-1-4.5-.5 4.5-.5zm-21 1 2.5.5-3.5 1.5q-1.5-1 1-2Zm-32 1 2.5.5-2.5.5zm-105 1v3l-2.5-1.5zm5 1v2q3.3.8 4-1v3l-7.5-2.5zm83 0 2.5.5-2.5.5zm-51 1 2.5.5-2.5.5zm30 0v2l5-1v1l-5 1-4.5-1.5zm52 0 3.5.5-3.5.5zm38 0 2.5.5-2.5.5zm-143 1v3l-3.5-1.5zm-31 1h2l4 3 3.5.5-4.5.5-1 1 .5-1.5-2.5-2.5q-3 .5-2-1Zm63 0 2.5.5-2.5.5zm59 1 2.5.5-3.5 1.5q-1.5-1 1-2Zm29 0 2.5.5-2.5.5zm8 0v3l-3.5-1.5zm-87 1 2.5.5-2.5.5zm29 0v2q3.2.8 4-1 1.5 1-1 2h-3l-3.5-1.5zm-52 1v2q3.3.8 4-1v3l-7.5-2.5zm32 1 2.5.5-2.5.5zm54 0 2.5.5-2.5.5zm-120 1 2.5.5-4.5 1.5v-1zm43 0v2q3.3.8 4-1v3l-7.5-2.5zm81 0 2.5.5-3.5 1.5q-1.5-1 1-2Zm-146 1 5 4q1.2-2.2 2.5.5l-.5 1.5 1.5.5-2 1 3 1-3.5 1.5.5-1.5-1-1-.5-2.5-2 1v-1l1.5-.5-5-4zm27 0q4.1-.6 5.5 1.5l-2.5 1.5v-2q-4 .8-3-1Zm98 0v2l3.5.5-3.5.5q-3-1.5 0-3Zm-91 1 4.5 1.5-3.5 1.5v-2q-2.4-.1-1-1Zm40 0v2q3.3.8 4-1 1.5 1-1 2-4.1.6-5.5-1.5zm85 1h3l7.5 2.5-3.5 1.5v-2q-3.3-.7-4 1v-2q-4 .8-3-1Zm-146 1v3l-4.5-1.5zm129 1v2l3.5.5-3.5.5-3.5-1.5zm-89 1 6.5 1.5-4.5.5-1 1v-2q-2.4-.1-1-1Zm39 0v2l5-1v1l-1.5.5.5 1.5q-.7-1.7-4-1l-1.5-1.5zm-74 1 3.5.5-3.5.5zm9 0 1.5.5q-1.4 2.1-5.5 1.5v-1q3.3.8 4-1Zm97 0 2.5.5-2.5.5zm-92 1v3l-3.5-1.5zm33 1 2.5.5-3.5 1.5q-1.5-1 1-2Zm-53 1 3.5.5-5.5 1.5v-1zm58 0 3.5.5-3.5.5zm40 0v2q3.3.7 4-1v3l-6.5-2.5zm-93 1h3l3.5 1.5-3.5 1.5v-2q-4 .7-3-1Zm20 0 3.5.5-3.5.5zm40 0 2.5 1.5q-1 2.5-2 1l.5-1.5q-2.4-.1-1-1Zm64 0 3.5.5-3.5.5zm-114 2 2.5.5-2.5.5zm29 0v3l-3.5-1.5zm-58 1 1 1 1.5-.5-1 1 .5 1.5-2.5-2.5zm63 0v2l3.5.5-3.5.5q-3-1.5 0-3Zm28 0 3.5.5-3.5.5zm39 0v2l3.5.5-3.5.5-2.5-1.5zm-93 1 3.5.5-3.5.5zm60 0 2.5.5-2.5.5zm-91 1 2.5.5-2.5.5zm-2 1 2.5 1.5-1.5.5q-2.5-1-1-2Zm6 0 3.5.5-3.5.5zm9 0v2l3.5.5-3.5.5-3.5-1.5zm49 0 3.5.5-3.5.5zm9 0v3l-3.5-1.5zm33 1 2.5.5-3.5 1.5q-1.5-1 1-2Zm-82 1v3l-4.5-1.5zm27 0 3.5.5-3.5.5zm-45 1 1.5.5-2 1 7 3-3.5 1.5v-2l-7.5-2.5zm23 0v2l5-1v1l-5 1-2.5-1.5zm29 0 4.5 1.5-3.5 1.5v-2q-2.4-.1-1-1Zm34 1q1.5 1-1 2l-2.5-.5zm-94 1 2.5.5-2.5.5zm67 0 3.5.5-3.5.5zm60 0 2.5.5-4.5 1.5v-1zm-51 2 3.5.5-3.5.5zm-59 1 3.5.5-3.5.5zm88 0 2.5.5-2.5.5zm8 0 1.5.5q-1.4 2.1-5.5 1.5v-1q3.3.8 4-1Zm-91 1 2.5.5-2.5.5zm36 0v2l3.5.5-3.5.5-3.5-1.5zm30 0 3.5 1.5-3.5 1.5zm-87 2 1 1 1.5-.5q-2.2 1.3.5 2.5l1.5.5-1.5.5-3.5-3.5zm29 0 3.5.5-3.5.5zm37 0 1.5.5-2 1 .5 1.5-4.5-1.5zm27 0 3.5.5-3.5.5zm-85 1v2l2.5.5-4.5.5-.5-.5zm63 0v2l5-1v1l-5 1-2.5-1.5zm52 0 2.5.5-2.5.5zm-107 2 1.5.5-2 1 .5 1.5-4.5-1.5zm92 0 2.5.5-2.5.5zm-83 2v2q3.3.8 4-1 1.5 1-1 2l-7.5-1.5zm64 0v2l3.5.5-3.5.5-2.5-1.5zm-34 1h3l3.5 1.5-3.5 1.5v-2q-3.2-.7-4 1-1.5-1 1-2Zm-21 1v2l5-1v1l-5 1-2.5-1.5zm32 1 8.5 2.5-3.5 1.5v-2q-3.2-.7-4 1v-2q-2.4-.1-1-1Zm28 0 2.5.5-2.5.5zm13 1 1.5.5-2 1 .5 1.5-3.5-1.5zm-90 2 1.5.5-2.5 1.5q-1.5-1 1-2Zm-11 1 .5 2.5h-1zm19 1 3.5.5-3.5.5zm27 0 2.5.5-2.5.5zm38 1 3.5.5-3.5.5zm-81 1 4.5 5.5-.5.5-2-2-1.5-.5-.5-2.5-1.5.5zm-72 2 6.5 1.5-4.5 1.5v-2q-3 .5-2-1Zm132 0 2.5.5-2.5.5zm-48 1 1.5.5-2 1 .5 1.5-4.5-1.5zm52 0q3.8-.7 4.5 1.5l-1.5-.5q-4 .8-3-1Zm-128 1 5.5 1.5-3.5 1.5v-2q-3 .5-2-1Zm107 0 2.5.5-2.5.5zm-128 1 1.5 3.5q-1 1.5-2-1zm166 0q1.5 1-1 2l-2.5-.5zm-56 1v3l-4.5-1.5zm33 1 7.5 2.5-3.5 1.5v-2q-3.2-.7-4 1zm-103 2 13.5 3.5-3.5 1.5v-2q-3.2-.7-4 1v-2q-3.2-.8-4 1v-2q-3 .5-2-1Zm-36 2v2l2.5.5-2.5.5-3.5-1.5zm128 0v2l2.5.5-2.5.5-3.5-1.5zm-34 2 2.5.5-2.5.5zm8 0 7.5 2.5-4.5 1.5v-2q-3.8.5-3-2Zm39 1v2q3.3.8 4-1 1.5 1-1 2-4.1.6-5.5-1.5zm-126 1q1.5 1-1 2l-1.5-.5zm78 0 .5 1.5q-2.3 1.3.5 2.5l4 3 1.5-.5q-2.2 1.3.5 2.5l1.5.5-5.5 2.5v-2l-2.5-.5 2.5-.5 3 1 .5-.5-4.5-4.5-4.5-3.5zm-74 1v2q3.3.8 4-1v2q3.2.7 4-1v2l2.5.5-2.5.5-10.5-3.5zm43 0 3.5.5-4.5 1.5q-1.5-1 1-2Zm5 1 9.5 2.5-3.5 1.5v-2q-3.2-.7-4 1v-2q-3 .5-2-1Zm57 2 2.5.5-2.5.5zm-46 1 1.5.5-2.5 1.5q-1.5-1 1-2Zm50 0 2.5.5-2.5.5zm-90 1q1.5 1-1 2l-1.5-.5zm4 1q1.5 1-1 2l-1.5-.5zm44 0 6.5 1.5-4.5 1.5v-2q-3 .5-2-1Zm15 0 4.5.5-4.5.5zm-55 1v2q3.2.8 4-1v2l2.5.5-2.5.5-6.5-2.5zm12 3v2l2.5.5-2.5.5-4.5-1.5zm7 2q1.5 1-1 2l-1.5-.5zm4 1v3l-2.5-1.5zm4 1v2q3.3.8 4-1v2l2.5.5-2.5.5-6.5-2.5zm205 0 14.5.5-14.5.5zm18 1 1.5.5-4.5 1.5v-1zm-20 1 .5 30.5h-1zm-191 1q1.5 1-1 2l-3.5-.5zm47 1 1.5.5-3.5 1.5v-1zm167 0 2.5 2.5-.5.5-2.5-2.5zm-207 1 1.5.5-2.5 1.5q-1.5-1 1-2Zm44 0 6.5 1.5-4.5 1.5v-2q-3 .5-2-1Zm-40 1v2q3.3.8 4-1v2q3.3.8 4-1 1.5 1-1 2l-7-1-2.5-1.5zm48 1 6 1 1.5 1.5q-1 2.5-2 1l.5-1.5q-3.2-.7-4 1v-2q-3 .5-2-1Zm149 1q1.5 1-1 2l-5.5.5.5 1.5h5l3-2 .5 1.5q-3 3-10.5 1.5l.5-1.5-1-2 7.5-.5zm10 3 .5 2.5-2 3 .5 1.5-1-1-1.5.5 2-3-.5-1.5 1.5.5zm-140 1 6.5 1.5-4.5 1.5v-2q-3 .5-2-1Zm-36 2v2l2.5.5-2.5.5-3.5-1.5zm44 0 5.5 1.5-3.5 1.5v-2q-3 .5-2-1Zm-36 2v2l2.5.5-2.5.5-4.5-1.5zm43 0 1.5.5-2.5 1.5q-1.5-1 1-2Zm-32 3v2q3.3.8 4-1v2q3.3.8 4-1v2l2.5.5-2.5.5-10.5-3.5zm44 0 13.5 3.5-3.5 1.5v-2q-3.2-.7-4 1v-2q-3.2-.7-4 1v-2q-3 .5-2-1Zm112 0 3.5 2.5-.5 3.5-1-4-1.5.5.5-1.5q-2.4-.1-1-1Zm-17 2 6.5.5-5 1-.5 3.5zm8 0 3.5 1.5-2.5.5q-2.5-1-1-2Zm-84 3 1.5.5-3.5 1.5v-1zm85 0 2.5.5-2.5.5zm-81 1 6.5 1.5-4.5 1.5v-2q-3 .5-2-1Zm78 0 3.5 1.5-1.5.5-2.5-1.5zm12 0 1.5 2.5-2.5 1.5v-1l1.5-.5zm-130 1v2q3.3.8 4-1v2l2.5.5-2.5.5-6.5-2.5zm48 1 9.5 2.5-3.5 1.5v-2q-3.2-.7-4 1v-2q-3 .5-2-1Zm-36 2v2l2.5.5-2.5.5-4.5-1.5zm11 3q1.5 1-1 2l-1.5-.5zm44 0 6.5 1.5-4.5 1.5v-2q-3 .5-2-1Zm54 0 4.5 1.5-2.5 1.5v-2q-3 .5-2-1Zm-94 1v2q3.3.8 4-1v2l2.5.5-2.5.5-6.5-2.5zm48 1 5.5 1.5-3.5 1.5v-2q-3 .5-2-1Zm30 0 15.5.5-15.5.5zm-66 2v2l2.5.5-2.5.5-4.5-1.5zm43 0 1.5.5-2.5 1.5q-1.5-1 1-2Zm-32 3v2q3.3.8 4-1v2q3.3.8 4-1v2l2.5.5-2.5.5-10.5-3.5zm44 0 2.5.5-2.5.5zm4 1 9.5 2.5-3.5 1.5v-2q-3.2-.7-4 1v-2q-3 .5-2-1Zm-32 3q1.5 1-1 2l-3.5-.5zm7 2q1.5 1-1 2l-1.5-.5zm4 1v2q3.3.8 4-1v2q3.3.8 4-1v2q3.3.7 4-1v2l1.5.5-1.5.5-1-1-11-2-2.5-1.5zm43 0 3.5.5-4.5 1.5q-1.5-1 1-2Zm7 3 .5 3.5-1.5 2.5-1.5-2.5h2zm-23 4v2q3.3.8 4-1v2l2.5.5-2.5.5-6.5-2.5zm20 2 1.5 2.5q-1 1.5-2-1zm-8 1v2l2.5.5-2.5.5-4.5-1.5zm5 3 2.5.5-2.5.5z" opacity=".031"/><path fill="#766b6d" stroke="#766b6d" d="m612.5 111 2.5.5-2.5.5zm-12 1 3.5.5-3.5.5zm-349 44 2.5.5-2.5.5z" opacity=".012"/><path fill="#0172f6" stroke="#0172f6" d="M620.5 97q2.5 1 1 2l-1-1-1.5.5zm0 18 2.5 2.5-.5.5-2.5-2.5zm18 0 1.5.5q-1 2.5-2 1zm-164 15q1 2 2 0l2.5 1.5-1.5-.5-2 1q-2.5-1-1-2Zm72 9 1.5.5q-1 2.5-2 1zm-43 61 .5 2.5h-1zm-5 12 2.5.5-2.5.5zm18 12 2.5 1.5-1.5-.5q-2.4-.1-1-1Zm2 6 2.5.5-2.5.5zm2 8 2.5 1.5-1.5-.5q-2.4-.1-1-1Zm10 2 1.5.5-2.5 1.5q-1.5-1 1-2Zm-38 14 2.5 1.5-1.5-.5q-2.4-.1-1-1Zm-92 3 .5 1.5-1.5.5q-1.5-1 1-2Zm-100 10 2.5 1.5-1.5.5-1-1-1.5.5zm-137 28 2.5.5-2.5.5zm-10 11 2.5.5-2.5.5zm17 4 2.5.5-2.5.5zm17 4 2.5.5-2.5.5zm-98 6 3.5.5-3.5.5zm-16 19 2.5 2.5-.5.5-2.5-2.5zm32 11 2.5.5-2.5.5zm-101 6 3.5 1.5-3.5 1.5zm25 7q3-.5 3.5 1.5-1 2.5-2 1l.5-1.5q-3 .5-2-1Zm27 7 2.5.5-2.5.5zm257 2 4.5 2.5q-1 2.5-2 1l.5-1.5-2 1v-2l-2 1q-1.5-1 1-2Zm-5 2 .5 3.5-35.5.5v-1l34.5-.5zm11 1 3.5 2.5q-1 2.5-2 1l.5-1.5q-3.8-.7-2-2Zm-282 3 2.5 1.5-1.5-.5q-2.4-.1-1-1Z" opacity=".012"/><path fill="#0172f6" stroke="#0172f6" d="m324.5 378 1.5.5-2.5 1.5q-1.5-1 1-2Zm-50 1 34.5.5-34.5.5zm-4 1 .5 2.5h-1zm55 0 2.5 1.5-.5 1.5-2.5-.5 1-1zm-219 3q3-.5 3.5 1.5-1 2.5-2 1l.5-1.5q-3 .5-2-1Zm217 0q3 1.5 0 3l-2 1q-2.5-1-1-2 1 2 2 0l1.5-.5zm-51 2 36.5.5-.5 3.5-1-3h-35zm46 1q3 1.5 0 3l-2.5-1.5 1.5.5 1.5-.5z" opacity=".012"/><path fill="#0172f6" stroke="#0172f6" d="m302.5 388 4.5 4.5-.5.5-4.5-4.5zm12 0q3 1.5 0 3l-2 1q-1.5-1 1-2l1.5-.5zm-6 2 2.5 2.5-.5.5-2.5-1.5zm-124 13 4.5 1.5-3.5 1.5v-2q-2.4-.1-1-1Zm26 7 2.5.5-2.5.5zm81 2 3.5.5-3.5.5zm16 4 .5.5-4.5 4.5v-3l1 1zm-70 1 2.5.5-2.5.5zm24 6 5.5 1.5-3.5.5-2.5-1.5zm26 7 2.5.5-2.5.5zm-14 10 2.5.5-2.5.5zm30 2 .5 1.5-1.5.5q-1.5-1 1-2Z" opacity=".012"/><path fill="#3a91c4" stroke="#3a91c4" d="m540.5 126 .5 2.5h-1zm-314 153 .5 3.5h-1zm4 1 .5 3.5h-1zm-55 1 .5 2.5h-1zm55 12 .5 2.5h-1zm-4 10 .5 3.5h-1zm4 1 .5 2.5h-1zm-55 2 .5 2.5h-1zm0 27 .5 2.5h-1zm0 13 .5 2.5h-1z" opacity=".922"/></svg>