<svg xmlns="http://www.w3.org/2000/svg" viewBox="0 0 640 611"><path fill="#bb0a04" stroke="#bb0a04" d="m342.5 1 1.5.5-2 1q2.3 1.3 1 6l-10.5.5-1 1h-9l-1 1h-9l-1 1h-8l-1 1-13 1-6 2h-5l-1 1-9 1-1 1h-3l-1 1-15 3-4 2h-3l-7 3h-3l-3 2-11 3-3 2-12 4-5 3h-2l-28 14-30 19-30 24L84 122.5l-15 18-16 23-18 33v2l-3 5v2l-6 13-5 15v3l-2 4v3l-3 9v4l-1 1v4l-1 1v4l-1 1v6l-1 1-1 17-1 1v42l1 1v9l1 1v7l1 1q-1.2 4.8 1 6v5l1 1v4l2 5 2 11 2 4v3l4 12 2 3 1 5 3 5v2l12 24 14 22 13 17 30.5 31.5 25 20 21 14 38 20h2l5 3h2l5 3 10 3 3 2 21 7h3l4 2h3l1 1h3l9 3h3l1 1h4l5 2h4l1 1h5l1 1h5l1 1q4.8-1.2 6 1h6l1 1h7l1 1h9l1 1h12l1 1h23l2.5 1.5-2 1q-1 4 1 5l-2.5.5q-1-2-5-1l-1 1h-8l-1-1h-15l-1-1h-11l-1-1-15-1-1-1h-6l-1-1h-5l-1-1h-5l-1-1h-4l-1-1-14-2-1-1-15-3-4-2h-3l-4-2h-3l-18-6-3-2-5-1-15-7h-2l-27-13-34-21-28-22L66 493.5l-18-23-14-22-11-22v-2l-5-10-2-8-2-3v-3l-3-7v-3l-4-12v-4l-1-1v-4l-2-6v-5l-1-1v-6l-1-1-1-19-1-1v-33l1-1v-11l1-1v-8l1-1v-6l1-1v-5l1-1 2-14 4-12v-3l2-4v-3l4-12 2-3 1-5 5-10v-2l16-31 15-23q19.8-27.2 44.5-49.5l29-23 15-10 35-19h2l7-4h2l15-7 27-9h3l4-2h3l1-1h3l9-3h3l1-1h4l1-1h4l1-1h4l6-2h5l1-1h5l1-1h6l1-1h7l1-1h7l1-1h9l1-1h10q1.3 2.3 6 1z" opacity=".988"/><path fill="#bb0a04" stroke="#bb0a04" d="m347.5 155 2.5.5-4 2-.5 5.5-3 2-3-1-1 2-7 1-4 2h-3l-4 2-6 1-3 2-10 3-16 8-16 11-13.5 13.5-8 11-5 9v2l-3 5-3 9v3l-2 4v4l-1 1-1 8-1 1v5l-1 1v5l-1 1v7l-1 1v10l-1 1v34l1 1v9l1 1v6l1 1 1 9 1 1 2 11 3 9 3 5v2l7 13 7 10 13.5 13.5 16 11 17 8 12 4h3l4 2 8 1 1 1 8 1 1 1h4q.8 2.7 5 2l2-1 2 6 5.5.5-6.5.5-1-1h-7l-1-1h-4l-1-1h-4l-1-1h-4l-1-1-8-1-4-2h-3l-15-5-10-5h-2l-14-8-8-6-12.5-12.5-8-11-8-15v-2l-2-3-4-12v-3l-3-9-1-10-1-1v-7l-1-1v-10l-1-1v-45l1-1v-9l1-1v-6l1-1 1-10 1-1 2-11 3-9 2-3v-2l12-22 16.5-18.5 13-10 21-11h2l8-4 18-6h3l9-3h4l1-1h6z" opacity=".988"/><path fill="#bb0a04" stroke="#bb0a04" d="m290.5 161 2.5.5-11.5 7.5-20.5 19.5-16 18-12 17-10 19-3 10-2 3-1 6-3 8v4l-2 6v5l-1 1v8l-1 1v32l1 1 1 15 1 1v4l1 1v4l1 1 2 11 7 21 3 5v2l10 20 7 11 18.5 21.5q9.6 9.4 22.5 15.5l-1.5.5-17-8-15-9-18-14-12.5-12.5-18-24-10-19v-2l-4-8-1-6-3-8v-3l-1-1-1-11-1-1v-8l-1-1v-28l1-1 1-15 1-1v-5l1-1v-4l1-1 1-7 2-4v-3l3-9 5-10v-2l5-10 11-17 20.5-21.5 11-8 17-9h2l9-4h3l9-3h5z" opacity=".988"/><path fill="#918180" stroke="#918180" d="m396.5 0 2.5.5-2.5.5zm11 1h12l1 1 25 1q1 3 6 2 .8-1.7 4-1 .7 2.7 5 2 .7-1.8 4-1 .8 2.8 5 2 .8-1.8 4-1l1 2 6-1q.5 2.5 4 2l3-1q.5 2.5 4 2l3-1 1 2 5-1 1 2 5-1 1 2 4-1 1 2 4-1 3 2 2-1 3 2 2-1 3 2 2-1 1 2 3-1q1.5 3.5 3 1l4 2q1.5-2.5 3 1l2-1q1.5 3.5 3 1l3 2 2-1 1 2 2-1q1.5 3.5 3 1l1.5.5.5 1.5 2-1q1.5 3.5 3 1l1.5.5.5 1.5 2-1 1 2 2-1 1 2 2-1 1 2 2-1 1 2 1-1 2 2 1-1 2 2 1.5-.5.5 1.5 2-1 1 2 1.5-.5.5 1.5 2-1 1 2 1.5-.5.5 1.5 3 1 1.5-.5.5 1.5 1.5-.5.5 1.5 1.5-.5.5 1.5h2l3 2q1-2 2 0l1.5.5.5 1.5 1.5-.5.5 1.5 3 2 1.5-.5 2.5 3.5 1.5.5-.5 1.5 1.5.5-.5 1.5 1.5.5-1 1q3.5 1.5 1 3l.5 1.5 1.5.5-1 4q2.8.8 2 5l-1 1v8l1 1v6l-1 1v10l1 1v6q-3.2 1.3-2 7 2 1 1 5-3 1-2 6 2 1 1 5l-2 2v17q3.2 2.3 2 9-2.7.8-2 5l1 2q-3.5 1.5-1 3l-.5 1.5-1.5.5.5 1.5-5.5 4.5-.5 1.5-1.5-.5-.5 1.5-1.5-.5-.5 1.5-2-1-1 2-3-1-1 2-5-1-1 2h-16q-1-3-6-2l-3 1q-.5-2.5-4-2l-3 1q-.5-2.5-4-2l-3 1q-.5-2.5-4-2l-3 1-1-2-5 1-1-2-5 1-1-2-5 1-1-2-5 1-1-2-4 1-3-2-3 1-1-2-5 1-1-2-4 1-3-2-3 1-1-2-5 1-1-2-4 1q-.5-2.5-4-2l-2 1q-.5-2.5-4-2l-3 1-1-2-5 1q-.5-2.5-4-2l-3 1-1-2-6 1q-.7-2.7-5-2-.8 1.8-4 1l-1-2-9 1-1-1h-13l-1-1h-20l-1-1h-9l-1.5-1.5-1-3 27.5-.5 1 1h10l1 1h9l1 1h7l1 1h6l1 1 14 1 1 1q4.8-1.2 6 1h6l1 1q4.8-1.2 6 1h6l1 1h5l1 1q4.8-1.2 6 1h6l1 1 12 1 1 1h6l1 1h6l1 1h7l1 1h8l1 1h8l1 1h11l1 1h15l12-4 5.5-5.5 3-8 1-13-1-1v-80q-1.7-.7-1-4l1-1-2.5-2.5h-2l-12-6h-2l-13-6-8-2-3-2-18-6h-3l-7-3h-3l-4-2h-3l-1-1h-3l-1-1h-3l-1-1h-3l-9-3h-4l-1-1-8-1-1-1h-4l-1-1h-4l-1-1h-5l-1-1-11-1-1-1h-6l-1-1h-6l-1-1h-7l-1-1h-8l-1-1h-11l-2-1q-1 2-2 0h-10l-1-1h-19l-1-1-10.5-.5 6-1-2-1 1.5-2.5h10zm182 430h11q1.3 3.3 7 2l3-1 3 2 2-1q1.5 3.5 3 1l1.5.5.5 1.5 2-1 1 2 1.5-.5.5 1.5 3 2 1-1 3.5 3.5-.5 1.5 1.5.5-.5 1.5 1.5.5-1 2q2.5.5 2 4l-1 1q3.5 1.5 1 3l.5 1.5 1.5.5-1 4 2 1v8l1 1v17l-1 1v14q-3.2 1.3-2 7l1 1v6l-2 2v15q1.8.8 1 4l-2 1 1 2-2 2q2 1 0 2l-1 3-11.5 12.5q-1.5-2.5-3 1l-2.5 1.5-.5 1.5q-1.2-2.2-2.5.5l-.5 1.5-1.5-.5-.5 1.5-1.5-.5-.5 1.5-1.5-.5-.5 1.5-1.5-.5-.5 1.5-1.5-.5-.5 1.5-4.5.5-.5 1.5-1.5-.5-.5 1.5-2-1-1 2-1-1-2 2-1-1-2 2-1.5-.5-.5 1.5-2-1-2 2-1-1q-1.5 3.5-3 1l-1.5.5-.5 1.5-2-1q-1.5 3.5-3 1l-1.5.5-.5 1.5-3-1-1 2-3-1-1 2-3-1-1 2-3-1-1 2-3-1-3 2-2-1-1 2-3-1-1 2-3-1-3 2-2-1-1 2-3-1-3 2q-1.5-2.5-3 1l-3-1-1 2-4-1-1 2-4-1-1 2-4-1-3 2-3-1-1 2-5-1-1 2-5-1q-.5 2.5-4 2l-3-1q-.7 2.8-5 2l-3-1q-.8 2.7-5 2-.8-1.7-4-1l-2 2h-9l-1 1h-10l-1 1h-13l-1 1h-6l-1-1h-10l-1.5-1.5.5-4.5h14l1-1h11l1-1h13l1-1 19-1 1-1h7l1-1h6l1-1h6l1-1 11-1 1-1h4l1-1h5l5-2h4l5-2h4l1-1h3l1-1h3l1-1h3l1-1h3l1-1 15-3 11-4h3l12-4 3-2 5-1 19-9 11.5-9.5 3-6v-24l-1-1v-57q-2.2-1.3-1-6l-3-6-5.5-5.5-10-4q-4.7 1.2-6-1h-12l-1 1-17 1-1 1h-6l-1 1h-6l-1 1q-4.8-1.2-6 1l-13 1-1 1-12 1-1 1h-5l-1 1q-4.7-1.2-6 1h-6l-1 1q-4.7-1.2-6 1h-6l-1 1h-6l-1 1h-6l-1 1h-6l-1 1h-7l-1 1h-8l-1 1-16 1-1 1-33 1v-1l1.5-.5-2-1 .5-2.5 9.5-.5-2-1 16.5-.5 1-1h12l1-1h8q1-2 5-1 .8 1.8 4 1l1-2 7 1 1-2 6 1q.5-2.5 4-2l3 1 1-2 6 1 1-2 5 1 1-2 5 1 1-2 4 1 1-2 4 1 1-2 4 1 1-2 3 1 3-2 2 1 3-2 2 1 1-2 4 1 3-2 3 1 1-2 4 1 3-2 3 1q.5-2.5 4-2l3 1 1-2 6 1q.5-2.5 4-2 1 2 5 1l1-2 12 1z" opacity=".992"/><path fill="#d62320" stroke="#d62320" d="M337.5 1q4.2-.7 6 1l2-1 .5 1.5-3.5.5q-1-2-2 0l-5.5-.5zm6 7 3.5.5-3.5.5zm-11 1 5.5.5-5.5.5zm-10 1 3.5.5-3.5.5zm-10 1 3.5.5-3.5.5zm120 0 .5 10.5h-1zm-129 1 3.5.5-3.5.5zm-7 1 2.5.5-2.5.5zm-7 1 2.5.5-2.5.5zm144 23 .5 38.5h-1zm-318 55 .5.5-2.5 2.5-.5-.5zm-8 7 .5.5-3.5 3.5-.5-.5zm327 8 .5 16.5h-1zm-347 12 .5.5-3.5 3.5-.5-.5zm261 43 4.5.5-4.5 1.5zm-4 1 2.5.5-3.5 1.5q-1.5-1 1-2Zm-5 1 2.5.5-2.5 1.5zm-65 11 .5.5-2.5 2.5-.5-.5zm-4 4 .5.5-5.5 5.5-.5-.5zm-7 7 .5.5-2.5 2.5-.5-.5zm-34 3 .5.5-6.5 6.5-.5-.5zm-219 103 .5 2.5h-1zm171 34 .5 2.5h-1zm40 5 .5 2.5h-1zm-211 1 .5 2.5h-1zm333 120 4.5 1.5-3.5.5q-2.5-1-1-2Zm7 1 6.5 1.5-6.5.5zm-34 148 2.5.5-2.5.5zm13 1 3.5.5-3.5.5zm17 8 4.5.5-4.5.5z" opacity=".961"/><path fill="#e54b4c" stroke="#e54b4c" d="m433.5 15 .5 3.5h-1zm1 64 .5 3.5h-1zm-304 2 .5.5-2.5 2.5-.5-.5zm-5 4 .5.5-2.5 2.5-.5-.5zm-4 3 .5.5-3.5 3.5-.5-.5zm-6 5 .5.5-4.5 4.5-.5-.5zm-8 7 .5.5-22 22-16 20 8.5.5q1-2 5-1l.5.5-2 2 .5 1.5-1-1-2.5 2.5-2 3 .5 1.5q-1.2-2.2-2.5.5l-2 3 .5 1.5-1.5-.5-5 7 .5 1.5-1.5-.5-9 14 .5 1.5-2.5 1.5.5 1.5-1.5.5-3 5 .5 1.5-1.5.5-6.5 13.5-1.5.5.5 1.5-1.5-.5 1 2h-2l.5 1.5 1.5.5-3 1 2 1q-1 2.5-2 1l-.5-1.5-6 1-1.5 1.5-.5 1.5-.5-1.5 1-3-.5-1.5 1.5.5 2-6-.5-1.5 1.5.5 5-12-.5-1.5 1.5.5-1-2h2l-1-2h2l4-8-.5-1.5 1.5-.5-.5-1.5 2.5-1.5 1-2-.5-1.5 1.5-.5 2-3-.5-1.5 2.5-1.5-.5-1.5 1.5-.5.5-2.5 1.5-.5.5-2.5 1.5-.5.5-2.5 1.5-.5 3-6 18-22zm28 12 .5.5-2.5 2.5-.5-.5zm-34 13 .5.5-3.5 3.5-.5-.5z" opacity=".996"/><path fill="#e54b4c" stroke="#e54b4c" d="m95.5 129-.5 1.5 1 1-4.5 4.5-1-1-5 5-.5-.5zm20 5 1 1 1.5-.5-2.5 2.5-.5-.5 1-1zm-2 5v2h36l1 1h11l1 1h8l1 1 14 1 1 1 11 1 1 1 9 1 5 2h4l1 1 15 3 4 2h3l27 9 7-3 21-4v1l-21 4-9 3-7 4q-1-2-2 0l-4 2-1.5-.5-.5 2.5q-1.5-2.5-3 1l-1.5.5-.5 1.5q-1.2-2.2-2.5.5l-.5 1.5q-1.2-2.2-2.5.5l-1.5 2.5-1-1-2.5 2.5-.5 1.5-1-1-16.5 16.5.5 1.5-1.5-.5-5 7 .5 1.5q-1.2-2.2-2.5.5l-1.5 2.5v-2l-6-1-1-1h-4l-5-2h-4l-1-1h-5l-1-1q-4.7 1.2-6-1h-6l-1-1h-7l-1-1h-9l-1-1h-16l-1-1h-23l-1 1h-16l-1 1h-9q-1.2 2.3-6 1l-1.5-2.5h2l-.5-1.5-1.5-.5 3-1-2-1 2-1-.5-1.5 1.5-.5 5-10-.5-1.5 1.5-.5-.5-1.5 1.5-.5-.5-1.5 2.5-1.5 2-4-.5-1.5 2.5-1.5 3-5-.5-1.5 1.5.5 1-3 4-5-.5-1.5 1.5.5 4-6-.5-1.5q1.3 2.2 2.5-.5l1-2-.5-1.5q1.3 2.3 2.5-.5zm322 3 .5 3.5h-1zm-62 8 3.5.5-3.5.5zm-11 1 6.5.5-6.5.5zm50 0 4.5.5-4.5.5zm-57 1 3.5.5-3.5.5zm-7 1 3.5.5-3.5.5zm-5 1 2.5.5-2.5.5zm-10 2 2.5.5-2.5.5zm-8 2 2.5.5-2.5.5zm-4 1 2.5.5-2.5.5zm-28 3 1.5.5-5.5 2.5-8.5 6.5 3.5 2.5 9-5h2l3-2 9-3v1l-9 3-3 2h-2l-12 6-1.5-.5-.5 2.5-4.5 1.5-.5 1.5-2-1-2 3-2.5 1.5-.5 1.5-2.5-.5 7-6 4.5-5.5q7.2-7.3 17-12Zm-33 29 .5.5-6.5 6.5-.5-.5 3-3 1.5-2.5zm-187 12 .5 1.5-1.5.5q-1.5-1 1-2Zm-2 5 .5 1.5-1.5 2.5-1.5-.5zm-2 5-.5 1.5-4.5 13.5-.5-2.5 4-9v-2zm136 2q2.5 1 1 2l-1-1-1.5.5zm-168 1 1.5.5-2.5 3.5.5-1.5zm-10 1 1.5 2.5h-1zm8 4 1.5.5-2 3-4.5 14.5-.5-2.5zm27 11 .5 2.5-1.5 3.5-.5-2.5zm166 1 1.5 2.5h-1zm-168 6 .5 2.5h-1zm-32 4 .5 2.5h-1zm31 0 .5 2.5h-1zm-32 4 .5 2.5h-1zm31 0 .5 2.5h-1zm-32 4 .5 2.5h-1zm31 1 .5 2.5h-1zm-32 4 .5 2.5h-1zm31 1 .5 2.5h-1zm-32 4 .5 2.5h-1zm-1 5 .5 2.5h-1zm-1 7 .5 2.5h-1zm-12 28 .5 2.5h-1zm200 1 .5 2.5h-1zm-30 2 .5 3.5h-1zm0 12 .5 2.5h-1zm30 0 .5 2.5h-1zm221 145 9.5.5-2 3v3l1 1v9l-1 1v31l1 1 .5 8.5 1.5-.5q1 4-1 5v63l1 1v11l-3.5 1.5h-12l-1 1h-14l-1 1h-19l-1-1-10.5-.5 13-20 10-20v-2l3-5v-2l2-3 1-5 4-9v-3l2-4v-3l1-1v-3l3-9v-5l1-1 1-11 1-1v-9l1-1v-20l-5.5-.5-1 1h-7v-1h7l1-1h13zm-56 1 7.5.5-7.5.5zm10 0 14.5.5-14.5.5z" opacity=".996"/><path fill="#e54b4c" stroke="#e54b4c" d="m442.5 578 .5 3.5h-1zm-101 24 4.5.5-4.5.5zm27 0 13.5.5-13.5.5z" opacity=".996"/><path fill="#db4545" stroke="#db4545" d="m413.5 8 2.5.5-2.5.5zm15 1 2.5.5-2.5.5zm-108 2 4.5.5-4.5.5zm-10 1 5.5.5-5.5.5zm-8 1 4.5.5-4.5.5zm-8 1 5.5.5-5.5.5-1 1h-5v-1q4.8 1.3 6-1Zm-12 2 4.5.5-19 4 7.5 1.5 4 2h3l1 1h3l4 2h3l13 5h3l9 4 19 6 20 9h2l45 22 2 2 5 2 20 12 1-38 .5 49.5 1 1v51l-2.5.5-1-2-13 1-1-1h-34q-1 2-2 0l-3 1h-8l-1-1h-6v1l1.5.5-4.5.5q-.7-1.7-4-1v2l-7-1v2l-5-1-1 2-4-1-1 2-4-1-1 2-3-1-1 2-3-1-1 2-3-1v2l-3-1-1 2-2-1-1 2-2-1-1 2-2-1-1 2-2-1v2l-3-1v2l-2-1-3.5 1.5.5 1.5-2-1-3.5 1.5.5 1.5-2-1v2l-2-1v2l-2-1v2l-2-1v2l-2-1v2l-2-1v2q-3-1.5 0-3l1.5-.5-1.5-1.5-3.5 3.5.5 1.5-1.5-.5-.5 1.5-.5-1.5q3.5-1.5 1-3l2.5-2.5q1 2 2 0l3.5-2.5-.5-1.5q1 2 2 0l1.5-.5-.5-1.5q1 2 2 0l1.5-.5-.5-1.5 2 1v-2l2 1q1.5-1-1-2-2.2-1.8-7-1v1l1.5.5-1.5.5q-1-2-5-1v1l1.5.5-1.5.5q-.7-1.7-4-1v2q-.7-1.7-4-1v2l-3-1v2l-3-1v2l-3-1v2l-2.5-1.5 2-1-31.5-10.5h-3l-1-1h-3l-9-3h-4l-5-2-9-1-1-1h-5l-1-1q-4.7 1.2-6-1h-6l-1-1h-7l-1-1h-8l-1-1h-11l-1-1h-36l-1-1-11.5 14.5L89.5 172l.5-1.5 7-12 14-19 32.5-35.5L161 87.5l2.5-3.5h2l4.5-4.5.5-1.5 1 1 3.5-3.5.5-1.5q1.3 2.2 2.5-.5l.5-1.5q1.3 2.3 2.5-.5l.5-1.5q1 2 2 0l1.5-.5.5-1.5 2 1 1.5-2.5-2.5-1.5-1 2-3-1-1 2-2-1-3.5 1.5-.5 1.5-2-1-1 2-1.5-.5-.5 1.5-1.5-.5-.5 1.5-1.5-.5-.5 1.5-1.5-.5-.5 1.5-1.5-.5-.5 1.5q-1.2-2.2-2.5.5l-.5 1.5-1.5-.5-.5 1.5q-1.2-2.2-2.5.5l-.5 1.5q-1.2-2.2-2.5.5l-.5 1.5-2.5.5-1.5 2.5q-1.3-2.2-2.5.5l-.5 1.5q-3-.5-3.5 1.5l-1.5 2.5-1-1-2.5 2.5-1.5 2.5q-3-.5-3.5 1.5l-2.5 3.5-4.5 2.5-4.5 5.5L91 135.5Q72.2 155.2 57.5 179l.5-1.5 10-16 16-19-4.5-.5-1 1h-8l-1 1q-2.5-1-1-2 1.3 2.3 2.5-.5l2-3-.5-1.5q1.3 2.3 2.5-.5l2-3q-2.2-1.2.5-2.5l1.5.5 3-4-1-1 2.5-2.5q1.3 2.2 2.5-.5l8-9-1-1 6.5-6.5 1 1 7.5-7.5 3.5-4.5 1 1 3.5-3.5 1.5-2.5 1 1 3.5-3.5 1.5-2.5q1.3 2.3 2.5-.5l1.5-2.5 1 1 2.5-2.5.5-1.5q1.3 2.3 2.5-.5l1.5-2.5q1.2 2.3 2.5-.5l.5-1.5q1.3 2.3 2.5-.5l.5-1.5 9-6 2.5-.5.5-1.5 3-1 5-4 6-2 3-3 38-18 5-1 11-5 9-3h3l7-3 7-1 12-4h4l1-1 14-2zM256 23v1h2zm118 127v1h3zm-81 9-1 1 3 1v-1zM433.5 19l.5 6.5h-1zm1 64 .5 6.5h-1z" opacity=".996"/><path fill="#db4545" stroke="#db4545" d="m68.5 145 .5.5-2.5 2.5q-2.5-1-1-2 1.5 2.5 3-1Zm367 1 .5 6.5h-1zm-372 3 1 1 1.5-.5-1.5 1.5q-2.5-1-1-2Zm25 24-.5 1.5-2.5 4.5.5-1.5zm186 5 .5.5-2 2 .5 1.5-1.5-1.5zm-192 6-.5 1.5-4.5 9.5-.5-1.5zm-29 1-.5 1.5-1.5 2.5.5-1.5zm-5 9-.5 1.5-.5 1.5-.5-1.5zm208 0 .5.5-2.5 2.5-.5-.5zm-210 4-.5 1.5-.5 1.5-.5-1.5zm174 95 .5 4.5h-1zm-210 4 .5 3.5h-1zm200 2 .5 2.5h-1zm-30 9 .5 7.5h-1zm40 9 .5 4.5h-1zm-210 9 .5 3.5h-1zm242 92 6.5 6.5-.5.5-6.5-6.5zm111 43 2.5.5-2.5.5zm78 0 .5 1.5-1 1-.5 55.5-.5-55.5zm0 62 .5 58.5 1 1v15h-1v-10l-1-1zm-105 79 4.5.5-4.5.5zm46 0 10.5.5-10.5.5z" opacity=".996"/><path fill="#e56868" stroke="#e56868" d="m395.5 1 11.5.5-11.5.5zm38 9 .5 4.5h-1zm-247 56 2.5.5-2.5 1.5zm248 0 .5 12.5h-1zm-252 1 2.5 1.5-1.5-.5q-2.4-.1-1-1Zm-14 12 .5.5-3.5 3.5-.5-.5zm-9 8 .5.5-18.5 18.5-.5-.5zm-21 5 .5.5-2.5 2.5-.5-.5zm-6 5 .5.5-2.5 2.5-.5-.5zm-6 5 .5.5-3.5 3.5-.5-.5zm-10 9 .5.5-6.5 6.5-.5-.5zm16 4 .5.5-6.5 6.5-.5-.5zm-12 13 .5.5-3.5 3.5-.5-.5zm315 0 .5 13.5h-1zm-321 7 .5.5-2.5 2.5-.5-.5zm-27 5 .5.5-4.5 4.5-.5-.5zm23 0 .5.5-2.5 2.5-.5-.5zm-30 8 .5.5-2.5 2.5-.5-.5zm345 4 4.5.5-4.5.5zm-29 5 12.5.5-11.5.5-2 1q-1.5-1 1-2Zm-324 1 .5.5-2.5 2.5-.5-.5zm-22 12-.5 1.5-1.5 2.5.5-1.5zm-4 7-.5 1.5-10 20v2l-3 5-2 7 1.5-.5h3l4-2-.5 1.5 1 4h-1l-.5-1.5-1.5 4.5 1 2h-1l-.5-1.5-1.5 4.5 1 2h-1l-.5-1.5-.5 2.5 1 2h-1l-.5-1.5-.5 2.5 1 2h-1l-.5-1.5-.5 2.5 1 2h-1l-.5-1.5-.5 2.5 1 2h-1l-.5-1.5-.5 2.5 1 2h-2l1 4h-1l-.5-1.5-.5 2.5 1 3h-1l-.5-1.5-.5 2.5 1 3h-1l-.5-1.5-.5 2.5 1 3h-2l1 5h-2l1 6h-1l-.5-1.5-.5 2.5q2.3 1.3 1 6h-1l-.5-1.5-.5 2.5 1 1v7l-1 1v41l1 1v9l1 1v6l1 1v5l1 1v4l1 1v4l1 1 1 8 2 4v3l2 4v3l4 12 2 3 4 12 4 7v2l12 23 14 22 15 20 23.5 25.5 38 30 39 28 .5-2.5q-8.3-9.7-19.5-16.5L140 517.5l-17-20-24-34-9-17-2-2-13-27v-2l-6-13-6-18v-3l-2-4v-3l-3-9-2-14-1-1v-6l-1-1v-6l-1-1v-8l-1-1v-17l-1-1v-13l1-1v-15l1-1v-8l1-1 .5-6.5 1.5.5q-1.7-1.8-1-6h1l.5 1.5.5-2.5q-1.7-.8-1-4h1l.5 1.5.5-2.5q-1.7-.7-1-4h1l.5 1.5.5-2.5-1-3h1l.5 1.5.5-2.5-1-3h1l.5 1.5.5-2.5-1-3h1l.5 1.5.5-2.5-1-2h1l.5 1.5.5-2.5-1-2h2l-1-4h1l.5 1.5.5-2.5-.5-1.5 1.5.5-1-3h2l-1-3h2l-1-3h1l.5 1.5.5-2.5-1-2h1l.5 1.5 4.5-9.5v-2l-1-2h1l.5 1.5 1-2 .5 1.5-1 2 5.5.5 1-1h9l1-1h16l1-1h23l1 1h16l1 1h9l1 1 14 1 1 1h5l1 1h5l1 1h4l5 2h4l8 3q10.3-16.2 25-28l.5.5-17 17-13 19-9 18v2l-2 3-4 12v3l-3 8-1 9-1 1v5l-1 1v7l-1 1v12l-1 1v14l1 1v12l1 1 1 12 1 1 2 11 4 12 2 3v2q16.7 36.3 45.5 60.5l26 18 19 9 10 3v-1l-12-5-9-6-17.5-16.5-8-10-9-14-9-18v-2l-6-13-3-9v-3l-2-4v-3l-2-5v-4l-1-1v-4l-1-1v-5l-1-1v-7l-1-1v-14l-1-1v-10l1-1v-13l1-1 1-13 1-1v-4l1-1v-3l1-1v-3l2-4 1-6 13-28 12.5-17.5.5.5-2 2-5 8-7 15-4 12-2 11-1 1v5l-1 1q1.2 4.8-1 6v7l-1 1v12l-1 1v32l1 1v13l1 1 1 15 1 1v4l1 1v4l1 1 1 7 4 12 8 17 5 8q6.7 9.8 15.5 17.5l15 11 13 7h2l8 4 12 4h3l4 2h3l9 3h4l1 1h5l1 1q4.8-1.3 6 1h6l1 1h8l1 1h13l1 1h24l1-1h16l1 1 5.5.5v20l-1 1v9l-1 1v6l-2 6v5l-1 1-3 15-2 4v3l-4 9-1 5-2 3v2l-3 5v2l-10 20-13 20 11 1-22.5.5-1 1h-21l-1-1h-20l-1-1h-11l-1-1h-8l-1-1-14-1-1-1h-5l-1-1h-5l-1-1h-5l-5-2-9-1-1-1-11-2-4-2-7-1-24-8-3-2-5-1-10-5h-2l-5-3h-2l-31-16-27.5-18.5-.5-1.5-1 1-2.5-2.5-.5-1.5-1 1-2.5-2.5-.5-1.5q-3 .5-3.5-1.5l-2.5-3.5-1 1-2.5-2.5-2.5-3.5-1 1-4.5-4.5-5.5-6.5-1 1-9.5-9.5 1-1-4.5-4.5-5.5-4.5 1-1-2.5-2.5-3.5-2.5q2.3-1.2-.5-2.5l-3.5-2.5q2.3-1.2-.5-2.5l-2.5-1.5q2.3-1.2-.5-2.5l-2.5-1.5.5-1.5-2.5-1.5q2.3-1.2-.5-2.5l-1.5-.5q2.2-1.2-.5-2.5l-1.5-.5q2.3-1.2-.5-2.5l-1.5-.5.5-1.5-2.5-1.5.5-1.5-1.5-.5-2-3 .5-1.5-1.5-.5-13-25v-2l-5-10-7-21v-3l-1-1v-3l-3-9v-4l-2-6v-5l-1-1-1-15-1-1v-15l-1-1v-19l1-1v-15l1-1 1-15 1-1v-5l1-1 1-10 1-1 3-15 2-4v-3l4-12 2-3 1-5 5-10v-2zM410 463v1h7zM271.5 179l.5.5-3 3q2.3 1.2-.5 2.5l-1-1-1.5.5zm-35 3 .5.5-2.5 2.5-.5-.5zm28 4 1.5.5-6.5 5.5-.5-.5zm-11 12 .5.5-4.5 4.5-.5-.5z" opacity=".996"/><path fill="#e56868" stroke="#e56868" d="M42.5 204q2.5 1 1 2l-1.5-.5 1 3h-1l-.5-1.5-1 2-.5-1.5zm205 1 .5.5-2.5 2.5-.5-.5zm160 250q4.1-.6 5.5 1.5l-12.5.5v-1h6zm30 5 4.5.5-4.5.5zm-17 1 10.5.5-10.5.5zm19 3 .5 3.5h-1zm0 14 .5 31.5h-1zm2 20 .5 19.5h-1zm1 61 .5 18.5h-1zm-3 40 3.5.5-3.5.5zm-13 1 5.5.5-5.5.5zm-15 1 3.5.5-3.5.5zm5 0 3.5.5-3.5.5zm-12 7 12.5.5-9.5.5-2 1q-2.5-1-1-2Z" opacity=".996"/><path fill="#feabab" stroke="#feabab" d="m434.5 45 .5 8.5h-1zm-250 22 1.5.5-5.5 2.5-12 9-28.5 27.5-23 25-20 26-13 21-11 22v2l-3 5-4 13-3 6v3l-3 7v3l-3 9-1 9-1 1-1 12-1 1v7l-1 1-1 32 1 1v15l1 1v9l1 1v6l1 1v5l2 6v5l1 1v3l1 1 3 15 3 7v3l2 3 3 11 7 15v2l14 28 22 34 18 23 29.5 31.5 21 17 6.5 6.5 1 3-.5.5-2-2-10-6-41-31-25-20-6.5-6.5-22-26-18-26-11-21-2-2-1-4-11-23-8-24v-3l-1-1v-3l-3-9-1-9-1-1v-5l-1-1-1-16-1-1v-41l1-1v-8l1-1 1-12 1-1v-4l1-1 3-15 6-18 4-8v-2l9-19 2-2 6-12 19-27q15.4-19.1 33.5-35.5 18.3-17.7 39-33l12-8 14-7 6-2h3zm251 39 .5 9.5h-1zm6 371 .5 10.5h-1zm1 61 .5 10.5h-1z"/><path fill="#ebebeb" stroke="#ebebeb" d="M434.5 10h7l1 1h9l1 1 16 1 1 1h6l1 1 11 1 1 1h5l1 1h4l1 1h4l1 1 14 2 1 1h3l1 1h3l1 1 15 3 11 4h3l30 10 3 2 10 3 5 3h2l14.5 6.5v76l1 1v21l-3 9-6.5 6.5-8 3h-24l-1-1h-9l-1-1-17-1-1-1h-6l-1-1h-6l-1-1h-6l-1-1h-6l-1-1q-4.7 1.3-6-1l-12-1-1-1q-4.7 1.3-6-1h-6l-1-1q-4.7 1.3-6-1h-6l-1-1h-6l-1-1h-6l-1-1h-6l-1-1h-7l-1-1h-8l-1-1-4.5-.5v-46l-1-1v-60l-1-1zm149 430h22l11 4 5.5 4.5 4 9v32l1 1v54q-2.7 6.8-8.5 10.5l-18 10-42 14h-3l-1 1h-3l-1 1h-3l-1 1h-3l-1 1h-3l-9 3h-4l-9 3-14 2-1 1h-5l-1 1h-5l-1 1q-4.7-1.2-6 1h-6l-1 1-15 1-1 1-17 1-1.5-1.5v-59l-1-1v-60l-1-1v-8q2.3-1.2 1-6l1.5-2.5 15-1 1-1h7l1-1h7l1-1 13-1 1-1q4.8 1.2 6-1h6l1-1q4.7 1.3 6-1h6l1-1q4.8 1.3 6-1h6l1-1q4.7 1.2 6-1h6l1-1q4.8 1.2 6-1h6l1-1h6l1-1h6l1-1h6l1-1h7z" opacity=".996"/><path fill="#aa7976" stroke="#aa7976" d="m405.5 0 9.5.5-9.5.5zm21 1 2.5.5-2.5.5zm-26 157 21.5.5-21.5.5zm15 296 8.5.5-8.5.5zm14 154 3.5.5-3.5.5zm-19 1 8.5.5-8.5.5z" opacity=".345"/><path fill="#a1a1a1" stroke="#a1a1a1" d="m447.5 1 3.5.5-3.5.5zm-7 1 5.5.5-5.5.5zm10 1 5.5.5-5.5.5zm10 1 4.5.5-4.5.5zm9 1 3.5.5-3.5.5zm8 1 3.5.5-3.5.5zm7 1 2.5.5-2.5.5zm7 1 2.5.5-2.5.5zm10 0 1.5.5q-1.4 2.1-5.5 1.5V9q3.3.8 4-1Zm2 2 2.5.5-2.5.5zm11 2 2.5.5-2.5.5zm5 1 2.5.5-2.5.5zm14 3 2.5.5-2.5.5zm65 18q1.5 1-1 2l-1.5-.5zm36 35 .5 5.5h-1zm2 5 .5 3.5h-1zm0 19 .5 5.5h-1zm-2 5 .5 6.5h-1zm1 10 .5 4.5h-1zm-2 4 .5 5.5h-1zm-1 11 .5 4.5h-1zm1 8 .5 6.5h-1zm-2 4 .5 8.5h-1zm2 6 .5 6.5h-1zm0 18 .5 2.5h-1zm-220 1 12.5.5-12.5.5zm33 0 4.5.5-4.5.5zm9 1 3.5.5-3.5.5zm-5 1 3.5.5-3.5.5zm13 0 3.5.5-3.5.5zm168 0 .5 2.5h-1zm-160 1 2.5.5-2.5.5zm-4 1 2.5.5-2.5.5zm11 0 2.5.5-2.5.5zm6 1 2.5.5-2.5.5zm6 1 2.5.5-2.5.5zm-4 1 2.5.5-2.5.5zm10 0 2.5.5-2.5.5zm6 1 2.5.5-2.5.5zm5 1 3.5.5-5.5 1.5v-1zm6 1 2.5.5-2.5.5zm6 1 2.5.5-2.5.5zm11 2 2.5.5-2.5.5zm6 1 2.5.5-2.5.5zm5 1 3.5.5-5.5 1.5v-1zm6 1 3.5.5-5.5 1.5v-1zm6 1 3.5.5-5.5 1.5v-1zm13 2 3.5.5-3.5.5zm7 1 3.5.5-3.5.5zm7 1 4.5.5-4.5.5zm10 1 14.5.5-14.5.5zm16 1 3.5.5-3.5.5zm-12 1 2.5.5-2.5.5zm5 0 2.5.5-2.5.5zm-18 245 2.5.5-2.5.5zm-11 1 2.5.5-2.5.5zm22 0 6.5.5-6.5.5zm-16 1 4.5.5-4.5.5zm30 0 4.5.5-4.5.5zm-40 1 4.5.5-4.5.5zm-7 1 2.5.5-2.5.5zm-7 1 3.5.5-3.5.5zm-15 1 5.5 1.5-2.5.5-3-1zm-2 2 2.5.5-2.5.5zm-5 1 2.5.5-2.5.5zm-5 1 2.5.5-2.5.5zm105 0 2.5 2.5-.5.5-2.5-2.5zm-110 1 2.5.5-2.5.5zm-10 2 2.5.5-2.5.5zm-24 3 5.5 1.5-3.5.5-2.5-1.5zm9 0 2.5.5-2.5.5zm-13 2 3.5.5-3.5.5zm-18 1 7.5 1.5-4.5.5-3-1zm11 0 3.5.5-3.5.5zm-19 1 2.5.5-2.5.5zm-10 1 2.5.5-2.5.5zm14 0 3.5.5-3.5.5zm-25 1 4.5.5-4.5.5zm16 0 4.5.5-4.5.5zm-30 1 3.5.5-3.5.5zm21 0 3.5.5-3.5.5zm197 5-.5 1.5-.5 2.5-.5-2.5zm0 41 .5 2.5h-1zm-1 12 .5 5.5h-1zm-1 17 .5 11.5h-1zm-72 58 2.5.5-2.5.5zm-12 3 2.5.5-2.5.5zm-4 1 2.5.5-2.5.5zm-9 2 2.5.5-2.5.5zm8 0 2.5.5-2.5.5zm-21 3 2.5.5-2.5.5zm-9 2 2.5.5-2.5.5zm8 0 2.5.5-2.5.5zm-17 2 2.5.5-2.5.5zm-5 1 2.5.5-2.5.5zm-6 1 2.5.5-2.5.5zm-6 1 2.5.5-2.5.5zm-6 1 2.5.5-2.5.5zm-7 1 2.5.5-2.5.5zm-8 1 4.5.5-4.5.5zm-8 1 4.5.5-4.5.5zm-9 1 4.5.5-4.5.5zm-4 2 3.5.5-3.5.5z" opacity=".157"/><path fill="#db3231" stroke="#db3231" d="M349.5 8h60l1 1h8l1 1 1-1h7l4.5 1.5v11l2 5v10l-1 1v13l-1 1-.5 37.5-20-12-5-2-2-2-45-22h-2l-28-12-11-3-3-2-6-2h-3l-20-7h-3l-1-1h-3l-4-2-7.5-1.5 4-1-2-1 1.5-.5q1 2 5 1v-1l-1.5-.5 1.5-.5q1 2 5 1v-1l-1.5-.5 1.5-.5q1 2 5 1v-2q2.2 1.8 7 1v-1l-1.5-.5 1.5-.5q1.2 2.3 6 1v-2l7 1 1-2 3 1h5l1-2 8 1q1.3-3.2 7-2 1 2 2 0 4 1 5-1h10zm-94 15 2.5.5-2.5.5zm-73 43 2.5.5-2.5.5zm1 3 1.5.5-2.5 1.5q-1.5-1 1-2Zm-9 6 .5.5-3.5 3.5-.5-.5zm259 1 .5 13.5 1 1v16h-1q1.2-4.7-1-6zm-264 3 .5.5-4.5 4.5-.5-.5zm-9 8 .5.5-16.5 16.5-.5-.5zm-22 4 .5.5-2.5 2.5-.5-.5zm-35 12 .5.5-3.5 3.5-.5-.5zm-11 11 .5.5-4.5 4.5-.5-.5zm342 10 .5 28.5h-1zm-9 27 5.5.5-5.5.5zm-205 147 .5 18.5h-1zm113 304 2.5.5-2.5.5z" opacity=".996"/><path fill="#ac5958" stroke="#ac5958" d="m415.5 0 3.5.5-3.5.5zm-28 159 6.5.5-6.5.5zm-11 1 3.5.5-3.5.5zm20 0 12.5.5-12.5.5zm-14 1 6.5.5-6.5.5zm-11 1 4.5.5-4.5.5zm-8 1 3.5.5-3.5.5zm-1 289 5.5.5-5.5.5zm17 1 27.5.5-27.5.5zm-8 1 4.5.5-4.5.5zm21 156 10.5.5-10.5.5z" opacity=".043"/><path fill="#bd3c32" stroke="#bd3c32" d="m346.5 0 12.5.5-12.5.5zm-12 1 2.5.5-2.5.5zm47 158 4.5.5-4.5.5zm-10 1 4.5.5-4.5.5zm-9 1 5.5.5-5.5.5zm-6 1 4.5.5-4.5.5zm-6 1 2.5.5-2.5.5zm2 290 4.5.5-4.5.5zm10 1 8.5.5-8.5.5zm16 1 20.5.5-20.5.5zm-301 50 3.5 3.5-.5.5-3.5-3.5zm257 105 2.5.5-2.5.5zm43 0 12.5.5-12.5.5z" opacity=".482"/><path fill="#b33931" stroke="#b33931" d="m359.5 0 36.5.5-1 3 .5 1.5 1.5.5-6 1 11 1-53.5.5-1 1-3-2-1.5.5.5-4.5 2.5-.5.5-1.5 4 1 1-1h7zm58 8 2.5.5-2.5.5zm-39 143 3 1 1-1h29v1l-14.5.5 2 4q-3.4.1-4.5 2.5h-14l-1 1h-8l-1 1h-8q-1 2-5 1l-1.5-.5-.5 1.5-1-2-1 2q-1-2-5-1l-1 2q-2.7-1.2-1.5-6.5l1-1-.5-1.5 3 1 2-2q4 1 5-1h7l1-1h13zm-120 289 2.5 2.5-.5.5-2.5-2.5zm99 14 1 2 1-2 2 1h16l5 2 2-1q1 2 2 0h13l3.5 1.5.5 2.5 1.5.5-2.5 1.5h-36l-1-1-10.5-.5 2-1-6-1 .5-3.5q1 2 2 0 3.3.8 4-1Zm36 148 11.5.5q-1 4 1 5l-2 1 .5 1.5h-27l-1 1h-13l-2-1-1 1h-6q-2.5-1-1.5-5.5l2-1-2-1 1.5-.5q1 2 2 0h36z" opacity=".992"/><path fill="#e5e5e5" stroke="#e5e5e5" d="m534.5 14 2.5 1.5-1.5-.5q-2.4-.1-1-1Zm16 4 2.5 1.5-1.5-.5q-2.4-.1-1-1Zm4 1 2.5 1.5-1.5-.5q-2.4-.1-1-1Zm7 2 2.5 1.5-1.5-.5q-2.4-.1-1-1Zm16 5 3.5 1.5-1.5.5-2.5-1.5zm10 4 4.5 1.5-1.5.5-3-1zm23 9 2.5 1.5-1.5.5q-2.5-1-1-2Zm17 10 2.5 1.5 1 3h-1l-1.5-3.5q-2.4-.1-1-1Zm2 121 1.5.5-2.5 4.5-.5-1.5 2-2zm-11 261 4.5 1.5-2.5.5-2.5-1.5zm7 3 3.5 2.5-.5.5-2-2q-2.4-.1-1-1Zm9 117 .5 1.5-3.5 3.5-.5-.5q2-1 0-2l1.5-1.5zm-5 5 .5 1.5-1.5.5q-1.5-1 1-2Zm-20 15 1.5.5-2.5 1.5q-1.5-1 1-2Zm-16 7 1.5.5-4.5 1.5v-1zm-29 9q1.5 1-1 2l-1.5-.5zm-30 7q1.5 1-1 2l-1.5-.5z" opacity=".008"/><path fill="#d90500" stroke="#d90500" d="M317.5 0h9l1 1 6.5.5-6.5.5-1-1h-9zm25 0 3.5.5-3.5.5zm-34 1 7.5.5-7.5.5zm-8 1 6.5.5-7 1 6 1-5.5.5-1-1h-6v1l4.5.5-4.5.5-1-1-5.5-.5 5.5-.5 1-1h6zm17 0 6.5.5-6.5.5zm-9 1 5.5.5-5.5.5zm-27 2 4.5.5-5 1 4 1-3.5.5q-1.2-2.2-6-1v1l3.5.5-3.5.5q-1-2-5-1v1l3.5.5-3.5.5q-1-2-5-1v1l3.5.5-3.5.5-4.5-1.5 4.5-1.5h4l1-1h4l1-1h5zm6 1 3.5.5-3.5.5zm-31 4 3.5.5-4 1 3 1-2.5.5q-.7-1.7-4-1v1l2.5.5-2.5.5q-.7-1.8-4-1v1l2.5.5-2.5.5q-.7-1.7-4-1v1l2.5.5-2.5.5-3.5-1.5 7.5-2.5h3l1-1h3zm5 1 2.5.5-2.5.5zm-24 4 5.5 1.5-2.5.5-3-1v1l1.5.5-1.5.5q-.8-1.7-4-1v1l2.5.5-2.5.5-3-1v1l1.5.5-1.5.5-3-1v1l1.5.5-1.5.5-3.5-1.5zm-16 5 4.5 1.5-2.5.5-2.5-1.5zm-3 1 3.5 1.5-9.5 3.5v-1l1.5-.5-2-1 1.5-.5 3 1v-1l-1.5-.5 1.5-.5 3 1v-1q-2.4-.1-1-1Zm-9 3 1.5.5-2 1 2 1-1.5.5-3-1v1l1.5.5-1.5.5-2.5-1.5zm-8 3 1.5.5-2 1 2 1-1.5.5-2.5-1.5zm-5 2 3.5 1.5-3.5 1.5-2.5-1.5zm-5 2 1.5.5-2 1 2 1-1.5.5-2-1v2l-2.5-1.5zm-7 3 1.5.5-2 1 2 1-5.5 2.5-2-1v2l-2-1v2l-2-1v2l-2-1v2l-2-1v2l-2-1v2l-2-1v2l-2-1v2l-2-1 .5 1.5-1.5 1.5-4 2-2-1v2l-2-1 .5 1.5-1.5 1.5-2 1-2-1 .5 1.5-1.5 1.5-2 1-2-1 .5 1.5-1.5 1.5-2-1 .5 1.5-1.5 1.5-2-1 .5 1.5-1.5 1.5-2-1 .5 1.5-1.5 1.5-2-1 .5 1.5-1.5 1.5-2-1 .5 1.5-1.5 1.5-1.5-.5-3.5 4.5-3 2-1.5-.5-3.5 4.5-1.5-.5-4.5 5.5-2-1 .5 1.5-5.5 5.5q-1.2-2.2-2.5.5L77.5 114l-3.5 2.5 1 1-4.5 4.5-1.5.5 1 1-3.5 3.5-2.5 1.5 1 1-2.5 2.5-1.5.5 1 1-2.5 2.5-2.5 1.5q2.3 1.3-.5 2.5l-1.5.5q2.2 1.3-.5 2.5l-1.5-.5 1 2-4 3q2.3 1.3-.5 2.5l-1.5.5q2.3 1.3-.5 2.5l-1.5.5.5 1.5-1.5-.5 1 2-3 2q2.3 1.3-.5 2.5l-1.5.5.5 1.5-1.5.5q2 1 0 2l-1.5 2.5-1.5-.5 1 2-2 1 .5 1.5-1.5-.5 1 2-4.5 7.5-1.5.5 1 2-3.5 6.5-1.5-.5 1 2h-2l1 2h-2l1 2h-2l1 3h-2l1 2h-2l1 3-1.5 2.5-1.5-.5 1 3h-1l-.5-1.5-.5 2.5.5 1.5-1.5-.5 1 3h-1l-.5-1.5-.5 2.5 1 2h-1l-.5-1.5-.5 2.5 1 2h-1l-.5-1.5-.5 2.5 1 2h-1l-.5-1.5-.5 2.5 1 2h-1l-.5-1.5-.5 2.5 1 3-1.5 3.5-1.5-5.5 5-15 6-13v-2l10-21 23-37L68.5 121l1.5-.5 4-6L99.5 89l22-18 24-16 2 1-.5-1.5 1.5-1.5 2-1 2 1-.5-1.5 1.5-1.5zM12 227l-1 3h1zm378.5-66 2.5.5-2.5.5zm-13 1 2.5.5-2.5.5zm-15 1q1.5 1-1 2l-2.5-.5zm-20 2 6.5 1.5-17.5 3.5-3.5-1.5 2.5-.5q.8 1.7 4 1v-1l-2.5-.5 2.5-.5q.8 1.8 4 1v-1l-1.5-.5 1.5-.5q1 2 5 1v-1q-2.4-.1-1-1Zm8 0 4.5.5-4.5.5zm-26 4 5.5 1.5-15.5 4.5-2.5-1.5 4.5-1.5 3 1v-1l-1.5-.5 1.5-.5 3 1v-1l-1.5-.5 1.5-.5q.8 1.8 4 1v-1q-3 .5-2-1Zm-9.5 4v1h2zm-5.5 1 3.5 1.5-6.5 2.5v-1l1.5-.5-2-1 1.5-.5 3 1v-1q-2.4-.1-1-1Zm-7 3 2.5 1.5-5.5 2.5v-1l1.5-.5-2-1 1.5-.5 2 1zm-7 3 2.5 1.5-9.5 4.5-14 9-16.5 15.5-8 11-7 14-5.5 19.5-1.5-5.5h1l.5 1.5.5-2.5-1-3h1l.5 2.5.5-3.5-1-2h1l.5 1.5.5-2.5-1-2h1l.5 1.5.5-2.5-1-2 1.5-2.5 1.5.5-1-2h2l-1-2 2-1-.5-1.5 1.5-.5-.5-1.5 1.5-.5-.5-1.5 1.5-.5q-2.3-1.2.5-2.5l1.5-.5-.5-1.5 1.5.5-1-2 4-3-1-1 2.5-2.5 1.5-.5-1-1 13.5-13.5 2 1-.5-1.5 2.5-2.5 2 1-.5-1.5 2.5-2.5 5-3 2 1-.5-1.5 1.5-1.5 2-1 2 1v-2l2 1v-2l2 1v-2l2 1zm-286 51 1.5 5.5-1.5 3.5-1.5-5.5zm.5 3-1 3h1zm-2.5 4 1.5 5.5H8l-1-3zm-1 4 1.5 5.5H7l-1-3zm-1 4 1.5 6.5H6l-.5-2.5-.5 3.5q1.8.8 1 4H5l-.5-3.5-.5 4.5q1.8.8 1 4H4l-.5-3.5-.5 5.5q1.8.8 1 4H3l-.5-3.5-.5 5.5q2 1 1 5H2l-.5-4.5-.5 6.5q2.2 1.3 1 6H1l-1-12 1-1 1-11 1-1v-4l1-1zm230 6 1.5 7.5-1 1v4l-1 1-1.5 10.5-1.5-9.5h1l.5 3.5.5-4.5q-1.7-.7-1-4h1l.5 3.5.5-4.5-1-3h1l.5 2.5.5-3.5q-2.1-1.1-.5-4.5Zm-4 20 .5 3.5h-1zm1 5 .5 5.5h-1zm-2 1 .5 5.5 1 1v8h-1v-8l-1-1zm-1 8 .5 7.5 1 1v39h-1v-39l-1-1zm-229 2 .5 6.5H0zm228 9 .5 34.5h-1zM.5 332l.5 7.5H0zm229 3 .5 6.5h-1zm2 0 1.5 14.5-1.5 4.5-.5-3.5q2.3-1.3 1-6h-1l-.5 4.5-.5-4.5 1-1zm-230 7 .5 6.5-1 1-.5 6.5-.5-6.5 1-1zm1 9 .5 5.5-1 1-.5 4.5-.5-4.5 1-1zm231 0 1.5 8.5-1.5 3.5-.5-2.5q1.8-.8 1-4h-1l-.5 2.5-.5-2.5 1-1zm-230 7 .5 4.5q-2 1-1 5h1l.5-3.5.5 3.5q-2 1-1 5h1l.5-3.5.5 3.5-1.5 4.5-1.5-4.5v-4l-1-1v-4l1-1zm232 3 4.5 16.5 6 14 11 17 12.5 12.5 13 9 20.5 9.5-3.5 1.5v-1l1.5-.5-2.5-.5-1.5.5.5-1.5-3 1-11.5-6.5.5-1.5-2 1-3.5-2.5.5-1.5-2-1q-1 2-2 0l-4.5-3.5.5-1.5-2 1-12.5-12.5q2.2-1.2-.5-2.5l-3.5-2.5.5-1.5-2.5-1.5.5-1.5-2.5-1.5 1-2h-2l.5-1.5-2.5-1.5-4-9 1-2h-2l1-3h-1l-.5 1.5-1.5-4.5 1-2h-2l1-3h-1l-.5 1.5-.5-2.5 1-3h-1l-.5 1.5-.5-1.5 1-3h-1l-.5 1.5-.5-2.5zm-229 13 .5 3.5q-1.8.7-1 4h1l.5-2.5.5 2.5q-1.7.8-1 4h1l.5-2.5.5 2.5-1 3h1l.5-1.5.5 2.5-1 3h1l.5-1.5.5 1.5-1 3h1l.5-1.5.5 1.5q-1.7.8-1 4h1l.5-2.5 1.5 5.5-1 3h1l.5-1.5 1.5 4.5-1 2h2l-1 3h1l.5-1.5.5 1.5-1 2h2l1 3-1 2h2l2 5-1 2h2l-1 2h2l2 5-.5 1.5 2.5 1.5 4 8-.5 1.5 1.5.5-.5 1.5 1.5.5-.5 1.5 2.5 1.5-.5 1.5 1.5.5-.5 1.5 2.5 1.5-.5 1.5 2.5 1.5-1 2 1.5-.5 1.5 1.5 1 2-.5 1.5 3.5 2.5-.5 1.5 2.5 1.5-.5 1.5 3.5 2.5-.5 1.5 3.5 2.5q-2.3 1.3.5 2.5l3.5 2.5q-2.2 1.3.5 2.5l4.5 3.5q-2.2 1.3.5 2.5L77 504.5l-1 1 4.5 4.5 1-1L92 519.5l-.5 1.5 2 1 1-1 4.5 4.5-.5 1.5 2-1 3.5 3.5-.5 1.5 2-1 3.5 3.5-.5 1.5 2-1 2.5 2.5-.5 1.5 2-1 5.5 4.5-.5 1.5 2-1 1.5 1.5-.5 1.5 2-1 1.5 1.5-.5 1.5 2-1 1.5 1.5-.5 1.5 2-1 1.5 1.5-.5 1.5 2-1 1.5 1.5-.5 1.5 2-1 3.5 2.5-.5 1.5 2-1 5.5 3.5-.5 1.5 2-1 5.5 3.5-.5 1.5 2-1v2l2-1v2l2-1v2l2-1v2l2-1v2l2-1v2l2-1v2l2-1v2l2-1v2l3-1 4.5 2.5-2 1 2 1-1.5.5-27.5-14.5.5-1.5-2 1-5.5-3.5.5-1.5-2 1-3.5-2.5.5-1.5-2 1Q96.3 530.7 66 496.5l-.5-1.5-2.5-1.5-15-19-21-34-15-35-2-6v-3l-2-4v-3l-2-4-1-7zm6.5 26-1 3h1zm291.5 40 10.5 3.5-4.5 1.5v-1l1.5-.5-2.5-.5-2 1v-1l1.5-.5-2.5-.5-2 1v-1l1.5-.5-2-1zm12 4 10.5 2.5-6.5 1.5v-1l2.5-.5-3.5-.5-2 1v-1l1.5-.5-2.5-.5-3 1v-1zm12 3 8.5 1.5-7.5 1.5v-1l2.5-.5-3.5-.5zm-4 1 2.5.5-2.5.5zm14 1 4.5.5-4.5.5zm-4 1 2.5.5-2.5.5zm10 0h6l1 1 8.5.5-12.5 1.5v-1l3.5-.5-6.5-.5q-.7 1.8-4 1v-1q3.3.7 4-1Zm26 2 4.5.5-4.5.5zm42 0 2.5.5-2.5.5zm-230 124 3.5 1.5-2 1 2 1-1.5.5-4.5-2.5zm7 3 3.5 1.5-2 1 2.5.5 2-1 2.5 1.5-3.5 1.5-7.5-3.5zm10 4 1.5.5-2 1 2.5.5 2-1 2.5 1.5-3.5 1.5-5.5-2.5zm8 3 1.5.5-2 1 2.5.5 2-1v1l-1.5.5 2.5.5 2-1v1l-1.5.5 2.5.5 2-1v1l-1.5.5 2.5.5 2-1v1l-1.5.5 2.5.5 2-1v1l-1.5.5 2.5.5 3-1v1l-2.5.5 3.5.5 2-1v1l-1.5.5 2.5.5 3-1v1l-2.5.5 3.5.5 2-1v1l-1.5.5 2.5.5 3-1v1l-2.5.5 3.5.5 3-1v1l-2.5.5 3.5.5 3-1v1l-2.5.5 3.5.5 3-1v1l-2.5.5 4 1-3.5.5-1-1-11-2-4-2h-3l-4-2h-3l-20.5-7.5zm49 14 2.5.5-2.5.5zm4 1 3.5.5-4 1 4.5.5q.8-1.7 4-1v1l-3.5.5 4.5.5q.8-1.7 4-1v1l-3.5.5 4.5.5q1-2 5-1v1l-9 1-1-1h-4l-1-1h-4l-4.5-1.5zm21 4 4.5.5-4.5.5-1 1h-4v-1q4 1 5-1Zm7 1 4.5.5-4.5.5zm-6 1 4.5.5-4.5.5zm13 0 5.5.5-5.5.5zm-7 1 5.5.5-5.5.5zm15 0 5.5.5-5.5.5zm-8 1 6.5.5-6.5.5zm17 0 8.5.5-8.5.5-1 1h-8v-1h8zm12 1 9.5.5-9.5.5z" opacity=".098"/><path fill="#939291" stroke="#939291" d="m435.5 0 5.5.5-5.5.5zm-4 1 2.5.5-2.5.5zm180 180 2.5 1.5-1.5.5q-2.5-1-1-2Zm-98 259 2.5 1.5-1.5-.5q-2.4-.1-1-1Zm121 1 .5 1.5-1.5.5q-1.5-1 1-2Zm-206 12 2.5.5-2.5.5zm211 48 .5 2.5h-1zm0 21 .5 13.5h-1zm-14 38 .5.5-3.5 3.5q-2.5-1-1-2l1 1zm-190 48 2.5.5-2.5.5zm-9 2 5.5.5-5.5.5z" opacity=".02"/><path fill="#d79c9c" stroke="#d79c9c" d="m447.5 4 4.5.5-4.5.5zm10 1 3.5.5-3.5.5zm9 1 3.5.5-3.5.5zm8 1 3.5.5-3.5.5zm8 1 2.5.5-2.5.5zm7 1 2.5.5-2.5.5zm-47 1 5.5.5-5.5.5zm53 0 2.5.5-2.5.5zm-43 1 4.5.5-4.5.5zm49 0 2.5.5-2.5.5zm-40 1 3.5.5-3.5.5zm46 0 2.5.5-2.5.5zm-38 1 2.5.5-2.5.5zm43 0 2.5.5-2.5.5zm-36 1 2.5.5-2.5.5zm6 1 2.5.5-2.5.5zm6 1 2.5.5-2.5.5zm6 1 2.5.5-2.5.5zm5 1 2.5.5-2.5.5zm5 1 2.5.5-2.5.5zm5 1 2.5.5-2.5.5zm116 30 2.5 2.5-.5.5-2.5-2.5zm-191 4 .5 11.5h-1zm187 8 .5 70.5h-1zm12 11 .5 8.5h-1zm0 16 .5 10.5h-1zm-1 19 .5 5.5h-1zm-197 8 .5 11.5h-1zm196 4 .5 4.5h-1zm-1 11 .5 17.5h-1zm-8 12 .5 6.5h-1zm-186 10 4.5.5-4.5.5zm10 1 3.5.5-3.5.5zm8 1 3.5.5-3.5.5zm7 1 3.5.5-3.5.5zm8 1 2.5.5-2.5.5zm7 1 2.5.5-2.5.5zm-27 1 4.5.5-4.5.5zm33 0 3.5.5-3.5.5zm148 0 .5 3.5h-1zm-172 1 3.5.5-3.5.5zm31 0 2.5.5-2.5.5zm-23 1 3.5.5-3.5.5zm29 0 3.5.5-3.5.5zm-22 1 2.5.5-2.5.5zm29 0 2.5.5-2.5.5zm-22 1 2.5.5-2.5.5zm28 0 2.5.5-2.5.5zm-22 1 2.5.5-2.5.5zm28 0 3.5.5-3.5.5zm104 0 .5.5-5.5 5.5-.5-.5zm-126 1 2.5.5-2.5.5zm29 0 2.5.5-2.5.5zm-23 1 2.5.5-2.5.5zm29 0 3.5.5-3.5.5zm-23 1 2.5.5-2.5.5zm30 0 3.5.5-3.5.5zm7 1 3.5.5-3.5.5zm-26 1 2.5.5-2.5.5zm33 0 3.5.5-3.5.5zm-27 1 2.5.5-2.5.5zm35 0 4.5.5-4.5.5zm9 1 4.5.5-4.5.5zm62 0 .5.5-4.5 4.5-.5-.5zm-95 1 2.5.5-2.5.5zm42 0 5.5.5-5.5.5zm-36 1 2.5.5-2.5.5zm48 0 15.5.5-15.5.5zm-42 1 2.5.5-2.5.5zm6 1 2.5.5-2.5.5zm6 1 2.5.5-2.5.5zm6 1 2.5.5-2.5.5zm7 1 2.5.5-2.5.5zm7 1 2.5.5-2.5.5zm7 1 4.5.5-4.5.5zm23 0 3.5.5-3.5.5zm-26 252 6.5.5-6.5.5zm22 0 5.5.5-5.5.5zm-33 1 4.5.5-4.5.5zm-8 1 3.5.5-3.5.5zm-6 1 2.5.5-2.5.5zm-7 1 2.5.5-2.5.5zm77 1 3.5 2.5-.5.5-2-2q-2.4-.1-1-1Zm-88 1 2.5.5-2.5.5zm52 1 12.5.5-12.5.5zm-10 1 3.5.5-3.5.5zm-8 1 3.5.5-3.5.5zm-7 1 3.5.5-3.5.5zm-52 1 2.5.5-2.5.5zm45 0 3.5.5-3.5.5zm-6 1 2.5.5-2.5.5zm-7 1 2.5.5-2.5.5zm-47 1 2.5.5-2.5.5zm40 0 3.5.5-3.5.5zm-46 1 2.5.5-2.5.5zm40 0 2.5.5-2.5.5zm-46 1 2.5.5-2.5.5zm39 0 3.5.5-3.5.5zm-46 1 2.5.5-2.5.5zm40 0 2.5.5-2.5.5zm-47 1 2.5.5-2.5.5zm41 0 2.5.5-2.5.5zm-49 1 3.5.5-3.5.5zm42 0 2.5.5-2.5.5zm-50 1 3.5.5-3.5.5zm44 0 2.5.5-2.5.5zm-7 1 2.5.5-2.5.5zm-7 1 3.5.5-3.5.5zm-7 1 3.5.5-3.5.5zm-7 1 3.5.5-3.5.5zm-8 1 3.5.5-3.5.5zm-9 1 4.5.5-4.5.5zm-8 1 3.5.5-3.5.5zm191 1 .5 2.5h-1zm-11 1 .5 28.5h-1zm-558 17 2.5 2.5-.5.5-2.5-2.5zm4 5 3.5 3.5-.5.5-3.5-3.5zm369 5 .5 9.5h-1zm-362 3L99 510.5l-.5.5L79 491.5zm22 6 2.5 2.5-.5.5-2.5-2.5zm536 9 .5 5.5h-1zm-534 8 3.5 3.5-.5.5-3.5-3.5zm524 5 .5 24.5h-1zm-517 1 2.5 2.5-.5.5-2.5-2.5zm526 0 .5 15.5h-1zm-485 9 9.5 9.5-.5.5-9.5-9.5zm475 16 .5 1.5q-1 2.5-2 1zm-184 4 .5 9.5h-1zm182 0 .5.5-4.5 4.5-.5-.5zm8 1 .5.5-10.5 10.5-.5-.5zm-12 11 .5.5-2.5 2.5-2 1q-1.5-1 1-2zm-94 25 2.5.5-2.5.5zm-18 4 2.5.5-2.5.5zm-11 2 2.5.5-2.5.5zm-6 1 2.5.5-2.5.5zm-6 1 2.5.5-2.5.5zm-7 1 2.5.5-2.5.5zm-8 1 3.5.5-3.5.5zm-8 1 3.5.5-3.5.5zm-10 1 4.5.5-4.5.5zm-9 1 2.5.5-2.5.5zm53 0 2.5.5-2.5.5zm-6 1 2.5.5-2.5.5zm-6 1 2.5.5-2.5.5zm-7 1 2.5.5-2.5.5zm-8 1 2.5.5-2.5.5zm-9 1 3.5.5-3.5.5z" opacity=".992"/><path fill="#a48c8b" stroke="#a48c8b" d="m399.5 0 5.5.5-5.5.5zm21 1 5.5.5-5.5.5zm14 1 5.5.5-5.5.5zm12 1 3.5.5-3.5.5zm10 1 3.5.5-3.5.5zm9 1 3.5.5-3.5.5zm9 1 2.5.5-2.5.5zm7 1 2.5.5-2.5.5zm7 1 2.5.5-2.5.5zm137 41 2.5 2.5-.5.5-2.5-2.5zm8 17 .5 2.5h-1zm1 9 .5 22.5h-1zm-1 32 .5 4.5h-1zm-1 12 .5 3.5h-1zm-1 11 .5 4.5h-1zm0 14 .5 6.5h-1zm-234 14 2.5.5-2.5.5zm25 0 7.5.5-7.5.5zm209 0 .5 3.5h-1zm-192 1 4.5.5-4.5.5zm12 1 2.5.5-2.5.5zm8 1 3.5.5-3.5.5zm8 1 2.5.5-2.5.5zm7 1 2.5.5-2.5.5zm13 2 2.5.5-2.5.5zm6 1 2.5.5-2.5.5zm34 6 2.5.5-2.5.5zm100 0 .5.5-3.5 3.5-.5-.5zm-64 6 2.5.5-2.5.5zm7 1 2.5.5-2.5.5zm7 1 2.5.5-2.5.5zm8 1 3.5.5-3.5.5zm21 0 2.5.5-2.5.5zm-25 250 7.5.5-7.5.5zm20 0 4.5.5-4.5.5zm-30 1 2.5.5-2.5.5zm40 0 2.5.5-2.5.5zm-49 1 3.5.5-3.5.5zm-13 2 2.5.5-2.5.5zm-6 1 2.5.5-2.5.5zm-71 13 2.5.5-2.5.5zm-8 1 2.5.5-2.5.5zm-8 1 2.5.5-2.5.5zm-10 1 3.5.5-3.5.5zm-11 1 5.5.5-5.5.5zm-11 1 3.5.5-3.5.5zm-25 1 7.5.5-7.5.5zm240 12 .5 4.5h-1zm0 23 .5 7.5h-1zm-1 15 .5 4.5h-1zm-1 14 .5 7.5h-1zm-8 35 .5.5-5.5 5.5-.5-.5zm-128 45 2.5.5-2.5.5zm-18 3 2.5.5-2.5.5zm-7 1 2.5.5-2.5.5zm-8 1 2.5.5-2.5.5zm-9 1 3.5.5-3.5.5zm-10 1 4.5.5-4.5.5zm-11 1 4.5.5-4.5.5zm-14 1 4.5.5-4.5.5zm-17 1 2.5.5-2.5.5z" opacity=".557"/></svg>