<svg xmlns="http://www.w3.org/2000/svg" viewBox="0 0 630 640"><path fill="#040404" stroke="#040404" d="m304.5 83 24.5.5-24.5.5zm151 0 2.5.5-2.5.5zm-123 1 9.5.5-9.5.5zm-49 1 5.5.5-5.5.5zm61 0 6.5.5-6.5.5zm103 0 .5 3.5h-1zm15 0 6.5 3.5-1.5-.5-5-2zm-186 1 4.5.5-4.5.5zm18 0 .5 9.5h-1zm8 0 .5 10.5-1 1v4l-1.5 3.5-.5-2.5 2-6zm50 0 4.5.5-4.5.5zm-82 1 3.5.5-3.5.5zm88 0 4.5.5-4.5.5zm-93 1 3.5.5-3.5.5zm99 0 3.5.5-3.5.5zm-103 1 2.5.5-2.5.5zm108 0 7.5 1.5-3.5.5q-.7-1.7-4-1zm-113 1 2.5.5-2.5.5zm192 0 2.5 4.5q-1 1.5-2-1zm-196 1 2.5.5-2.5.5zm126 0 9.5 2.5-2.5.5-1-1-6-1zm95 0 2.5 2.5-.5.5-2.5-2.5zm-228 2 2.5.5-2.5.5zm192 0 1.5 3.5h-1zm-6 1q1.5 1-1 2l-2 1q-1.5-1 1-2zm46 0 9.5 9.5-.5.5-9.5-9.5zm-85 1 7.5 2.5-1.5.5-6-2zm34 2q1.5 1-1 2l-14 8q-1.5-1 1-2zm27 2 14.5 13.5-.5.5-2-2L453 99.5zm-55 1 1.5.5-7.5 4.5q-1.5-1 1-2zm42 0q5.3 9.2 13 16l4.5 3.5-.5.5-3-3-7.5-6.5-6-8zm-223 3 1.5.5-3.5 1.5v-1zm74 1 .5 1.5-3.5 5.5.5-1.5zm99 1q1.5 1-1 2l-2 1q-1.5-1 1-2zm-91 1 .5 1.5-4 8-2.5 2.5-.5-.5 2-2zm-91 1 1.5.5-9.5 4.5v-1zm201 0q1.5 1-1 2l-2 1q-1.5-1 1-2zm-24 1q1.5 1-1 2l-4 3-.5-.5 3.5-3.5zm104 0 2.5 4.5h-1l-2-4zm-85 2q1.5 1-1 2l-2 1q-1.5-1 1-2zm-87 1 .5 8.5h-1l-1-4zm-30 1 .5.5-4.5 4.5-.5-.5zm112 1q1.5 1-1 2l-2 1q-1.5-1 1-2zm-20 1 .5 2.5h-1zm113 0 .5 4.5q-1.5 4-8.5 2.5v-1h6l1.5-1.5zm-293 1 6.5 6.5-.5.5-6.5-6.5zm195 1q1.5 1-1 2l-2 1q-1.5-1 1-2zm-205 1 5.5 4.5 2.5 3.5 10.5 7.5-1.5-.5-4-2-9.5-8.5-2.5-3.5-7 4q-1.5-1 1-2zm92 1 .5.5-4.5 4.5-.5-.5zm34 0 .5 1.5q-6 13-16.5 21.5l-10 7-11 5v-1q17.4-6.6 28.5-19.5 5.4-6.1 8.5-14.5Zm65 0 3.5 2.5-1.5.5-2.5-2.5zm-88 1 .5.5-9.5 9.5q-6.4 5.1-15 8v-1q15.1-5.4 24-17Zm97 0q1.5 1-1 2l-2.5-.5zm70 1 5 4 9.5 4.5-1.5.5-11-6-2.5-2.5zm-278 2q1.5 1-1 2l-22 15-27.5 25.5Q114.5 182 101.5 203l.5-1.5 15-22q12.7-15.8 27.5-29.5l14-12zm135 0 .5 2.5h-1zm-44 3q1.5 1-1 2l-5 2v-1zm42 4 .5 1.5-4 8-2.5 2.5-.5-.5 2-2zm164 1 2.5.5-2.5.5zm-221 1 2.5.5-2.5.5zm225 0 6.5.5-6.5.5zm-254 1 3.5.5-3.5.5zm24 0 3.5.5-3.5.5zm-43 1 4.5 2.5-1.5.5-3.5-2.5zm25 0 15.5.5-15.5.5zm256 0 .5 5.5h-1zm-275 3 3.5 1.5-1.5.5-2.5-1.5zm50 1 1.5.5-4.5 1.5v-1zm-45 1 11.5 2.5-4.5.5-1-1-6-1zm38 1 2.5.5-2.5.5zm-6 1 4.5.5-4.5.5zm-18 1 16.5.5-16.5.5zm73 1 .5.5-10.5 10.5-6 4q-1.5-1 1-2 9.3-4.7 15-13Zm182 1 .5 14.5h-1zm-299 3 5.5 3.5-1.5 1.5-4.5-4.5zm7 4-.5 1.5 2.5 2.5 5.5 3.5-1.5-.5q-4.8-1.7-7.5-5.5zm4 2 3.5 1.5-1.5.5-2.5-1.5zm74 1 1.5.5-10.5 3.5v-1zm-63 3 2.5.5-2.5.5zm4 1 9.5 1.5-5.5.5q-.7-1.7-4-1zm45 0 3.5.5-3.5.5zm28 0q1.5 1-1 2l-7 3v-1zm-34 1 4.5.5-4.5.5zm-47 1 2.5 1.5-1.5.5q-2.5-1-1-2Zm19 0 9.5.5-9.5.5zm16 0 10.5.5-10.5.5zm-31 2 12.5 4.5-2.5.5-10-4zm276 0 .5 14.5h-1zm-210 1 1.5.5-3.5 1.5v-1zm-6 2 2.5.5-5.5 1.5v-1zm230 1 6.5 6.5-.5.5-6.5-6.5zm-276 1 3.5.5-3.5.5zm38 0 3.5.5-3.5.5zm-33 1 4.5.5-4.5.5zm26 0 5.5.5-5.5.5zm242 0 .5 12.5h-1zm-261 1 17.5.5-17.5.5zm271 5 4.5 4.5-.5.5-4.5-4.5zm-144 1q15-1.5 19.5 7.5l-.5.5-5-5-5-2h-9zm-3 1 1.5.5-4.5 2.5q-1.5-1 1-2zm-5 3 .5.5-2 2-2.5 4.5-.5-1.5zm130 1 .5 9.5 1.5 2.5 1.5.5-1.5.5-2.5-3.5zm27 0 3.5 3.5-.5.5-3.5-3.5zm-148 3 2.5.5q-5.2.8-7.5 4.5l-.5-.5 3.5-3.5zm4 0 2.5.5-2.5.5zm15 1 2.5 4.5v9h-1v-9l-2-4zm133 1 2.5 2.5-.5.5-2.5-2.5zm-20 1 .5 3.5h-1zm-146 1 .5 2.5h-1zm169 2 4.5 5.5-.5.5-2.5-2.5-2-3zm-142 1 .5 2.5h-1zm-28 1 .5 4.5h-1zm146 0q1.5 1-1 2l-1.5-.5zm-138 1 .5 2.5h-1zm20 2 .5 2.5-4.5 5.5-.5-.5 3-3zm-19 2 1.5 2.5q-1 1.5-2-1zm-8 1q1.5 7.5 7 11l6.5 2.5-2.5.5q-6.2-2.3-9.5-7.5l-2-4zm34 2 .5 1.5-2.5 3.5.5-1.5zm-22 2 2.5 1.5-1.5.5q-2.5-1-1-2Zm166 1 2.5 3.5q-1 1.5-2-1zm-162 1 2.5.5-2.5.5zm-268 2-.5 1.5-1.5 2.5.5-1.5zm67 0 6.5.5-6.5.5zm216 0 .5.5-2.5 2.5-4 2v-1zm-220 1 2.5.5q-5.8 1.2-9 5l-3.5 6.5-.5-1.5 5.5-7.5zm15 1 5.5 3.5 3 5h-1l-6.5-7.5q-2.4-.1-1-1Zm355 0 2.5 3.5q-1 1.5-2-1zm-436 3-.5 1.5L85.5 233l-.5-1.5 8-16zm276 0 2.5.5-2.5.5zm-5 1 3.5.5-3.5.5zm168 1 2.5 3.5q-1 1.5-2-1zm-368 1 4.5.5-4.5.5zm-4 2 .5.5-2.5 2.5-.5-.5zm12 0 2.5 2.5-.5.5-2.5-2.5zm-24 4 .5 8.5h-1zm36 1 .5 6.5h-1zm-120 1 2.5.5-2.5.5zm92 0 .5 5.5 4.5 5.5 1.5.5-1.5.5-5.5-6.5zm20 0 .5 4.5h-1zm-116 1 2.5.5-2.5.5zm-7 2 2.5.5-2.5.5zm-4 1 2.5.5-2.5.5zm490 0 3 3 4.5.5-4.5.5-3.5-3.5zm-468 2 .5 1.5-2.5 4.5-.5-1.5zm112 1 .5 2.5-5.5 7.5-8 4h-8v-1h8l5-2 4.5-3.5zm-34 1q1.6 5.9 6 9l5.5 2.5-1.5.5q-5.5-2-8.5-6.5l-2-4zm25 0 .5.5-2.5 2.5-.5-.5zm-144 1 .5.5-4.5 4.5-.5-.5zm7 2 1.5 4.5h-1zm12 0 .5 2.5h-1zm115 1 4.5.5-4.5.5zm-84 2 .5 1.5-3 5v2l-3.5 7.5-.5-1.5zm-30 2 .5 14.5h-1zm-27 2-.5 1.5-2.5 5.5-.5-1.5zm16 1 .5 8.5h-1zm513 1 .5.5-2 2-1.5 5.5-.5-3.5zm-2 9 1.5 3.5h-1q-1.7-1.5-.5-3.5Zm-512 1 .5 3.5h-1zm-21 2 .5 2.5h-1zm32 1 .5 3.5h-1zm23 1 .5 1.5-1.5 3.5-.5-2.5zm-56 2 .5 3.5h-1zm21 0 .5 2.5h-1zm516 1 2 2 3.5.5-3.5.5-2.5-2.5zm-505 1 .5 2.5h-1zm10 2 .5 2.5h-1zm205 1 6.5.5-6.5.5zm-248 1 .5 10.5h-1zm32 0 .5 2.5h-1zm207 0 6.5.5-6.5.5zm19 0 5.5.5-5.5.5zm-238 1 .5 1.5-1.5 2.5-.5-1.5zm34 0 .5 2.5-1.5 3.5-.5-2.5zm180 0 3.5.5-6.5 1.5v-1zm31 0 3.5.5-3.5.5zm5 1 7.5 2.5-1.5.5-6-2zm-45 2 1.5.5-11.5 5.5-11.5 9.5-5.5 7.5.5-1.5 8.5-10.5 8-6zm-184 1 .5 2.5h-1zm238 0 6.5 3.5-1.5-.5-5-2zm-30 2 5.5.5-5.5.5zm-197 1 .5 2.5-3 9v4l-1 1v4l-1 1-.5 4.5-.5-4.5 1-1 1-9 1-1v-3zm188 0 4.5.5-4.5.5zm19 0 3.5.5-3.5.5zm-230 1 .5 1.5-4.5 7.5.5-1.5zm11 0 .5 2.5h-1zm196 0 2.5.5-2.5.5zm29 0 2.5.5-2.5.5zm22 0 4.5 3.5-.5.5-2-2q-3.8-.7-2-2Zm-271 1-.5 1.5-3.5 4.5-.5-.5 3-3zm216 0 2.5.5-4.5 1.5v-1zm-5 2 1.5.5-8.5 4.5q-1.5-1 1-2zm-188 1 .5 2.5h-1zm254 0q10.4 7.6 15.5 20.5h-1l-6-11-9-9zm251 0 .5 5.5h-1zm-542 3 1.5 2.5q-1 1.5-2-1zm36 1 .5 3.5h-1zm180 0 .5.5-2.5 2.5-.5-.5zm68 1 3.5 3.5-.5.5-3.5-3.5zm-278 1q1.5 1-1 2l-2.5-.5zm16 0 .5.5-2 2-5.5 6.5-.5-.5 5-5zm190 1 .5.5-6.5 6.5-.5-.5zm331 1 .5 2.5h-1zm-508 1 .5 3.5h-1zm256 3 3.5 3.5-.5.5-3.5-3.5zm253 0 .5 3.5h-1zm-510 2 .5 3.5h-1zm161 1-.5 1.5-1.5 3.5-.5-1.5zm10 0 .5.5-2.5 2.5-.5-.5zm-192 3 3.5 3.5-.5.5-3.5-3.5zm532 0 .5 3.5h-1zm-512 2 .5 4.5h-1zm159 1 .5 1.5-1.5 3.5-.5-2.5zm-148 1 .5 5.5h-1zm-27 1 3.5 3.5-.5.5-3.5-3.5zm529 0 .5 4.5h-1zm-247 1 1.5 4.5h-1zm9 1 .5 2.5h-1zm-276 2 .5 5.5h-1zm158 0 .5 3.5h-1zm-169 1 3.5 3.5-.5.5-3.5-3.5zm177 0 .5 2.5h-1zm-155 1 .5 7.5h-1zm266 0 .5 7.5h-1zm-8 1 .5 3.5h-1zm246 1 .5 5.5h-1zm-358 1 .5 10.5h-1zm-164 1 3.5 3.5-.5.5-3.5-3.5zm172 0 .5 8.5h-1zm-155 5 .5 11.5h-1zm267 0 .5 7.5h-1zm-8 2 .5 4.5h-1zm247 0 .5 10.5h-1zm-358 4 .5 3.5h-1zm8 0 .5 2.5h-1zm110 3 .5 2.5h-1zm-1 4 .5 1.5-1.5 2.5-.5-1.5zm-266 2 .5 17.5h-1zm264 3 .5 1.5q-1 2.5-2 1zm-199 2q4.5-1 5.5 1.5l-1.5-.5h-4l-3.5 3.5-7.5 9.5-.5-.5 3-3zm89 1 2.5 3.5q-1 1.5-2-1zm99 0 .5.5-9.5 9.5-.5-.5zm9 1-.5 1.5-2.5 3.5-.5-.5 2-2zm-191 1 .5 2.5q-1 2.5-2 1zm95 1 4.5 4.5-.5.5-4.5-4.5zm251 1 15.5.5-15.5.5zm-260 1q9.2 12.3 24.5 18.5l-1.5.5-12-7-11.5-11.5zm256 0 2.5.5q-11.9 2.6-18 11l-3 5-1.5 6.5-.5-3.5q3.2-9.3 10.5-14.5zm21 0 4.5 1.5-1.5.5-3-1zm-365 2 .5.5-3.5 3.5-.5-.5zm189 0 .5.5-7.5 7.5-.5-.5zm182 0 2.5 1.5-1.5-.5q-2.4-.1-1-1Zm-268 1 2.5 2.5-.5.5-2.5-2.5zm275 3 4.5 4.5-.5.5-4.5-4.5zm-382 1 .5.5-3 3-5.5 7.5.5-1.5zm353 0 3.5.5-3.5.5zm9 0 4.5.5-4.5.5zm-374 2 .5.5-3.5 3.5-.5-.5zm454 0 .5 10.5h-1zm-506 1 .5 11.5h-1zm248 0 .5.5-2.5 2.5-.5-.5zm189 0 8.5 7.5 2 6h-1q-1.4-8.1-7.5-11.5-3.8-.7-2-2Zm-29 1 .5.5-6.5 6.5-.5-.5zm-164 2q1.5 1-1 2l-2 1q-1.5-1 1-2zm-196 1 .5.5-7.5 7.5.5-1.5 1.5-2.5zm145 0 2.5.5-2.5.5zm27 0 2.5.5-2.5.5zm-23 1 5.5.5-5.5.5zm16 0 4.5.5-4.5.5zm21 3 1.5.5-3.5 1.5v-1zm-177 1q5.9 4.1 8.5 11.5h-1l-3-6-5-5zm125 0 12.5 3.5-3.5.5-9-3zm273 1 .5 3.5h-1zm-230 1 2.5.5-2.5.5zm-75 1 3 4q1-2 2 0l12.5 6.5-1.5.5-11-6-.5.5 7.5 7.5 5.5 3.5-1.5-.5-4-2-11.5-11.5zm70 0 3.5.5-3.5.5zm-180 1 .5 1.5-1.5 3.5-.5-2.5zm156 0 8.5.5-8.5.5zm15 0 7.5.5-7.5.5zm-210 1 .5 6.5h-1zm390 0 .5 3.5h-1zm114 0 .5 5.5h-1zm-106 1 .5 2.5h-1zm56 4 .5 3.5h-1zm-417 1 .5 8.5h-1zm8 0 .5 8.5h-1zm346 0 1.5 5.5h-1q-1.9-2-.5-5.5Zm-138 1 .5.5-2.5 2.5q-8.6 7.4-21 11v-1l4-1 13.5-7.5-2.5-.5-6 2v-1l11-3zm-252 1 .5 5.5h-1zm64 0 1.5 3.5h-1zm380 0 .5 1.5q-1 2.5-2 1zm58 0 .5 4.5h-1zm-103 1 6.5 7.5-.5.5-5.5-5.5zm-229 1 4.5 1.5-2.5.5-2.5-1.5zm282 0 .5 1.5-4.5 6.5-.5-.5 2-2zm-10 2 .5.5-4.5 4.5-.5-.5zm-376 1 .5 2.5h-1zm113 0 2.5.5-2.5.5z" opacity=".996"/><path fill="#040404" stroke="#040404" d="m298.5 376 3.5.5-4.5 1.5h-4v-1q4 1 5-1Zm-50 1 3.5.5-3.5.5zm-182 1 .5 4.5h-1zm187 0 5.5.5-5.5.5zm33 0 5.5.5-5.5.5zm280 0 .5 3.5h-1zm-305 1 23.5.5-23.5.5zm-159 1 .5 3.5h-1zm8 0 .5 2.5h-1zm22 0 .5 4.5h-1zm340 0 4.5 2.5-1.5.5-3.5-2.5zm29 0q1.5 1-1 2l-3 1v-1zm-377 1 .5 3.5h-1zm114 0 3.5 1.5-1.5.5-2.5-1.5zm222 0q5.5 6.5 14.5 9.5l-1.5.5-9-5-4.5-4.5zm-393 3 .5 3.5h-1zm179 0 2.5.5-2.5.5zm44 0 2.5.5-2.5.5zm191 0 10.5.5-10.5.5zm84 0 .5 2.5h-1zm-462 1 2.5 7.5h-1l-2-5zm147 0 2.5.5-2.5.5zm36 0 2.5.5-2.5.5zm-32 1 5.5.5-5.5.5zm25 0 5.5.5-5.5.5zm-154 1 .5 5.5h-1zm8 0 .5 5.5h-1zm128 0 16.5.5-16.5.5zm244 0q1.5 1-1 2l-5 2v-1zm-437 2 1.5 7.5h-1q.8-3.2-1-4zm496 0 .5 2.5h-1zm14 1 4.5 4.5-.5.5-4.5-4.5zm-102 1 2.5.5-2.5.5zm19 0 2.5.5-2.5.5zm80 0 .5 2.5h-1zm-461 1 6 7 1.5.5-1.5.5-5.5-5.5zm366 0 12.5.5-12.5.5zm83 1 .5 2.5h-1zm-431 2 .5 3.5h-1zm442 1 .5 2.5h-1zm-12 1 .5 2.5h-1zm22 0 9.5 9.5-.5.5-9.5-9.5zm-514 1 .5 2.5h-1zm450 0q1.5 1-1 2l-1.5.5 1 1-6.5 6.5-10 5v-1q9.9-3.1 15.5-10.5l-2-1zm53 2 .5 2.5h-1zm-463 1q2.8 4.2 8 6l6.5.5-6.5.5-4-2-4.5-4.5zm24 0 6.5.5-6.5.5zm320 0 1.5.5.5 1.5 2-1 6.5 2.5-2.5.5-5-2-.5.5 3.5 3.5 5.5 3.5-1.5-.5-4-2-6.5-6.5zm107 0 .5 2.5h-1zm-490 1 1.5 5.5h-1l-1-3zm72 0 6.5.5-6.5.5zm368 0 1.5.5-3.5 1.5v-1zm-360 1 4.5.5-4.5.5zm6 1 1.5 4.5-1.5 2.5q-1.8 1.7-6 1v-1q5.5 1 6.5-2.5zm348 0 2.5.5-2.5.5zm67 0 .5 2.5h-1zm-106 1 2.5.5-2.5.5zm94 0 .5 2.5h-1zm-90 1 3.5.5-3.5.5zm26 0 3.5.5-3.5.5zm-21 1 18.5.5-18.5.5zm-349 1 6.5.5-6.5.5zm-53 1 5.5 16.5h-1l-5-14zm61 0 6.5.5-6.5.5zm461 0 8.5 8.5-.5.5-8.5-8.5zm-452 1 6.5.5-6.5.5zm427 1 .5 2.5h-1zm-101 1 4.5 1.5-2.5.5-2.5-1.5zm6 2 2.5.5-2.5.5zm20 0 2.5.5-2.5.5zm-16 1 13.5.5-13.5.5zm120 8 .5.5-8.5 8.5-.5-.5zm-45 1 .5 1.5-1.5 2.5-.5-1.5zm-475 3 1.5 3.5h-1q-1.7-1.5-.5-3.5Zm532 2 3.5.5q-5.4.1-7.5 3.5l-.5-.5 2.5-2.5zm-530 3 6.5 14.5h-1l-6-13zm509 1 .5.5-2 2-1.5 2.5.5-1.5zm15 0 .5.5-3.5 3.5-.5-.5zm-55 1 .5 1.5-1.5 2.5-.5-1.5zm67 0 .5 7.5h-1zm-55 1 .5 1.5-1.5 2.5-.5-1.5zm24 4-.5 1.5-2.5 4.5.5-1.5zm14 0 .5.5-2.5 2.5-.5-.5zm-331 1 3.5.5-3.5.5zm-5 1 2.5.5q-7.5 1.5-11 7l-2.5 6.5-.5-2.5q2.3-6.2 7.5-9.5zm10 0 2.5.5-2.5.5zm4 1 6.5 4.5 3 6h-1l-4.5-7.5-4-2zm281 0 .5 1.5-1.5 2.5-.5-1.5zm-13 1 .5 1.5-7.5 13.5.5-1.5zm51 0-.5 1.5-1.5 2.5.5-1.5zm19 1 .5 2.5h-1zm-34 2 .5 1.5-1.5 2.5-.5-1.5zm-494 2 7.5 13.5q-1 1.5-2-1l-6-12zm181 0 2.5.5-2.5.5zm-3 1 1.5.5-2.5 1.5q-1.5-1 1-2Zm10 1q4.1 1.9 4.5 7.5h-1l-1-4-3-3zm338 2 .5 1.5-1.5 2.5-.5-1.5zm-352 1-.5 1.5-.5 1.5-.5-1.5zm26 1 .5 9.5-2.5 4.5.5-1.5 1-3zm-36 2 .5 4.5h-1zm8 1 .5 2.5h-1zm20 2 .5 2.5h-1zm309 0 .5 2.5h-1zm-12 1 .5 3.5h-1zm-40 1-.5 1.5-1.5 2.5.5-1.5zm-284 1 .5 2.5h-1zm-157 1q3.5 2 2.5 8.5l-1.5 2.5-2 1-.5-.5 3-3v-5l-2-3zm453 0-.5 1.5-2.5 4.5.5-1.5zm39 0 .5 2.5h-1zm21 0-.5 1.5-1.5 2.5.5-1.5zm-347 1q2.3 3.8 7.5 4.5l-2.5.5-5.5-4.5zm-8 2 4.5 6.5-.5.5-2.5-2.5-2-3zm322 0 .5 11.5h-1zm-305 2 2.5.5-2.5.5zm335 0 .5.5-3.5 3.5-.5-.5zm-321 1 .5.5-4.5 4.5-.5-.5zm302 0 .5 5.5h-1zm-56 2-.5 1.5-3.5 5.5.5-1.5zm-271 2 4.5 2.5-1.5.5-3.5-2.5zm19 1q1.5 1-1 2l-3 1h-9v-1h9zm263 1-.5 1.5-1.5 2.5.5-1.5zm56 1 .5.5-2.5 2.5-.5-.5zm-72 3 .5.5-2 2-2.5 3.5-.5-.5 2-2zm39 1 10.5.5-10.5.5zm-24 1 13.5.5-13.5.5zm-438 1 4.5.5-5 1 .5 3.5 1.5-.5.5-1.5.5 1.5-2.5 1.5-2.5-4.5zm6 1 4.5 6.5v4h-1v-4l-4-6zm412 3 .5.5-2.5 2.5-.5-.5zm-3 4 .5.5-2.5 2.5-.5-.5zm-364 4 2.5.5q-3.4.1-4.5 2.5l-.5-.5zm4 0q3-.5 3.5 1.5l-1.5-.5q-3 .5-2-1Zm357 0 .5.5-3.5 3.5-.5-.5zm-353 3 .5 33.5h-1zm-11 1 .5 24.5h-1zm359 2 .5.5-5.5 5.5-.5-.5zm-390 2 2.5.5-5.5 2.5q-1.5-1 1-2zm270 0q4.8-.7 5.5 2.5l-.5 4.5-.5-4.5-1.5-1.5q-4.7-.7-5.5 2.5l-.5 3.5-.5-3.5 1.5-2.5zm-266 1 2.5 1.5 20 21-.5.5-20.5-20.5-.5-1.5q-2.4-.1-1-1Zm380 4 .5.5-17.5 17.5-.5-.5zm-118 3 .5 3.5h-1zm8 1 .5 3.5h-1zm-9 4 .5 4.5h-1zm8 1 .5 3.5h-1zm-9 5 .5 3.5h-1zm8 1 .5 2.5h-1zm-75 1 1.5.5-2.5 1.5q-1.5-1 1-2Zm4 0 16.5 14.5-.5.5-6-6-10-8zm-6 3q1.6 5.4 6 8l9.5 8.5-.5.5-8-8-6.5-5.5zm48 0 13.5.5-13.5.5zm20 0 .5 1.5-2.5 1.5-3.5-1.5 2.5-.5 2 1zm101 0 .5.5-5.5 5.5-.5-.5zm-126 1 3.5.5-3.5.5zm33 0 .5 3.5h-1zm-37 1 2.5.5-4.5 1.5v-1zm-5 2 1.5.5-10 6-.5 1.5-.5-1.5zm41 2 .5 3.5h-1zm87 0 .5.5-3.5 3.5-.5-.5zm-113 2 10.5.5-10.5.5zm108 2 .5.5-3.5 3.5-.5-.5zm-91 3 .5.5-4.5 4.5-.5-.5zm8 0 .5 2.5h-1zm-41 1 .5.5-3.5 3.5-.5-.5zm119 0 .5.5-2.5 2.5-3 2-.5-.5 2.5-2.5zm-134 4 4.5 4.5-.5.5-4.5-4.5zm-172 1 .5 20.5h-1zm226 0 .5.5-4.5 4.5-2 1q-1.5-1 1-2zm-41 1 2.5 1.5-1.5.5q-2.5-1-1-2Zm4 2 2.5.5-2.5.5zm11 0 3.5.5-3.5.5zm-23 2 3.5 3.5-.5.5-3.5-3.5zm36 3 1.5.5-4.5 1.5v-1zm74 0q1.5 1-1 2l-2 1q-1.5-1 1-2zm-81 2 2.5.5-2.5.5zm-18 1 3.5.5-3.5.5zm11 0 5.5.5-5.5.5zm81 1q1.5 1-1 2l-2 1q-1.5-1 1-2zm-279 10 6.5.5-6.5.5zm9 1 2.5.5-2.5.5zm248 0 1.5.5-3.5 1.5v-1zm-244 1 4.5 1.5-1.5.5-3-1zm6 2 6.5 3.5-1.5-.5-5-2zm88 0q6.3-1.2 7.5 2.5l-.5.5-2-2q-6-1-8 2-1.5-1 1-2zm143 0 1.5.5-3.5 1.5v-1zm-5 2 1.5.5-3.5 1.5v-1zm-218 2 3.5 2.5-1.5-.5q-3.8-.7-2-2Zm88 0 .5 3.5-2.5 3.5.5-1.5zm-114 3 3.5.5-3.5.5zm31 0 2.5 2.5-.5.5-2.5-2.5zm-25 1 7.5 2.5-1.5.5-6-2zm86 1q1.5 1-1 2l-2 1q-1.5-1 1-2zm-96 1 .5 2.5h-1zm39 0 13.5 14.5-.5.5-2.5-2.5-11-12zm75 1q1.5 1-1 2l-1.5-.5zm106 0 2.5.5-2.5.5zm-4 1 2.5.5-2.5.5zm-4 1 2.5.5-2.5.5zm-5 1 2.5.5-2.5.5zm-5 1 2.5.5-2.5.5zm-88 1 3.5.5-3.5.5zm81 0 4.5.5-4.5.5zm-193 1 2.5 3.5q-1 1.5-2-1zm27 0 2.5 2.5-.5.5-2.5-2.5zm91 0 4.5.5-4.5.5zm68 0 4.5.5-4.5.5zm-61 1 6.5.5-6.5.5zm51 0 6.5.5-6.5.5zm-39 1 34.5.5-34.5.5zm-106 1 7.5 7.5-.5.5-7.5-7.5zm46 0q1.5 1-1 2l-8 5q-1.5-1 1-2zm-74 2 10.5 10.5-.5.5-10.5-10.5zm48 4 2.5 4.5h-1l-2-4zm-12 3 3.5 4.5q-1 1.5-2-1l-2-3zm-24 4 2.5 2.5-.5.5-2.5-2.5zm4 3 3.5 2.5-1.5-.5q-3.8-.7-2-2Zm25 1 .5 2.5h-1zm-10 6 2.5.5-2.5.5z" opacity=".996"/><path fill="#0f0f05" stroke="#0f0f05" d="m192.5 5 .5 11.5-2.5.5v-1l1.5-.5zm75 16 .5 2.5h-1zm-75 11 .5 5.5h-1zm114 5 .5.5-2.5 2.5-.5-.5zm2 44 16.5.5-16.5.5zm27 1 5.5.5-5.5.5zm115 0 4.5.5-.5 1.5-3-1-1.5.5zm-148 1 1.5.5-1.5 2.5-1.5-.5zm27 0 3.5.5-2.5 1.5q-2.5-1-1-2Zm17 0 2.5.5-2.5.5zm-57 1q4.5-1 5.5 1.5l-1.5-.5q-3.2-.7-4 1zm53 0 1.5.5-.5 1.5q-2.5-1-1-2Zm-61 1 1.5.5q-1 2.5-2 1zm-7 1 1.5.5q-1 2.5-2 1zm26 2 .5 5.5h-1zm-41 1 1.5.5q-1 2.5-2 1zm176 2 2.5 1.5h-3zm-141 5 .5 1.5-1.5.5q-1.5-1 1-2Zm106 1q2.8 1.3.5 2.5l-.5 1.5-.5-1.5 1-1zm81 0 2.5 2.5-.5.5-2.5-2.5zm-26 5 6.5 6.5-.5.5-6.5-6.5zm-7 8 5.5 5.5-.5.5-5.5-5.5zm-249 1 .5 1.5-1.5 2.5-.5-2.5zm86 4 .5.5-6.5 6.5-.5-.5 3-3 .5-1.5zm7 3 1.5.5-2.5 1.5q-1.5-1 1-2Zm24 2 1.5.5q-1 2.5-2 1zm-121 2 2.5 2.5-.5.5-2.5-2.5zm118 5 2.5 1.5-1.5.5q-2.5-1-1-2Zm171 2 2.5.5-2.5.5zm-252 3q2.5 1 1 2l-1.5-.5zm260 1 .5 2.5h-1zm-255 6 9.5.5-9.5.5zm253 0 .5 4.5q-1 1.5-2-1zm-258 1 1.5.5-.5 1.5q-2.5-1-1-2Zm18 0 1.5.5-.5 1.5q-2.5-1-1-2Zm57 1 1.5.5-2.5 1.5q-1.5-1 1-2Zm194 3 .5 3.5h-1zm-354 3 .5.5-2.5 2.5-.5-.5zm344 0 .5 6.5h-1zm-296 3 1.5.5q-1 2.5-2 1zm5 1 .5 1.5q-1 2.5-2 1zm289 7 .5 3.5q-1 1.5-2-1zm-252 1q5.4-.9 7.5 1.5l-9.5.5v-1zm-9 2 3.5.5-3.5.5zm21 0 2.5.5-2.5.5zm251 2 5.5 4.5-.5.5-4-4-1.5.5-.5 2.5-.5-2.5zm-372 3 .5.5-2.5 2.5-.5-.5zm115 0 6.5.5-6.5.5zm247 0 .5 6.5h-1zm-254 1 1.5.5-.5 1.5q-2.5-1-1-2Zm19 0 1.5.5-.5 1.5q-2.5-1-1-2Zm253 5 3.5 2.5-.5.5-2-2q-2.4-.1-1-1Zm-20 4 .5 4.5h-1l-1-3zm-130 1 .5 1.5-2.5 2.5-.5-.5zm155 1 2.5 1.5-1.5-.5q-2.4-.1-1-1Zm-15 2 1.5.5-1.5 4.5zm-123 3 3.5 3.5-.5.5-3.5-2.5zm142 0 2.5 1.5-1.5-.5q-2.4-.1-1-1Zm-28 1 .5 3.5h-1zm-138 5 1.5.5-.5 1.5q-2.5-1-1-2Zm8 0 1.5.5q-1 2.5-2 1zm132 2 1.5.5q-1 2.5-2 1zm-106 2 .5 2.5h-1zm-24 5 2.5 1.5-.5 1.5-2.5-2.5zm11 3 .5 1.5-1.5.5q-1.5-1 1-2Zm11 2 1.5.5-3.5 2.5-.5-.5zm-17 6 1.5.5-.5 1.5q-2.5-1-1-2Zm5 0 1.5.5-.5 1.5q-2.5-1-1-2Zm-293 8 1.5 2.5h-1l-.5-1.5-1.5.5zm-4 1 1.5.5q-1 2.5-2 1zm80 2 .5 4.5h-1zm32 1 .5 2.5h-1zm-149 6 1.5.5-.5 1.5q-2.5-1-1-2Zm119 6 3.5 3.5-.5.5-3.5-3.5zm-103 1q2.5 1 1 2l-1.5-.5zm-11 2 1.5.5-.5 2.5-1.5-2.5zm126 2 4.5.5-4.5.5zm389 2 .5.5-2.5 2.5-.5-.5zm-514 8 .5 1.5-1.5.5q-1.5-1 1-2Zm10 3 1.5.5q-1 2.5-2 1zm-11 3 .5 1.5-1.5.5q-1.5-1 1-2Zm-23 6 1.5.5q-1 2.5-2 1zm247 1q2.5 1 1 2l-2.5-.5zm8 0 2.5 1.5-2.5.5zm-14 3 2.5.5-2.5.5zm4 5 3.5.5-3.5 1.5zm10 0 3.5.5-.5 1.5-3-1zm8 1 1.5.5-.5 1.5q-2.5-1-1-2Zm284 2 .5.5-2.5 2.5-1.5-.5zm-547 1q2.5 1 1 2l-1.5-.5zm292 1 1.5 2.5q-1 1.5-2-1zm-279 3 .5.5-4.5 4.5-.5-1.5zm194 1 .5.5-3.5 3.5-.5-.5zm-204 3 1.5.5-.5 1.5q-2.5-1-1-2Zm541 0 1.5.5-.5 1.5q-2.5-1-1-2Zm-255 1 6.5 6.5-.5.5-5.5-4.5zm-272 6-.5 1.5-.5 1.5-.5-1.5zm529 3 1.5.5-.5 1.5q-2.5-1-1-2Zm-501 1 .5 2.5h-1zm-9 1 .5 1.5-1.5.5q-1.5-1 1-2Zm-19 3 2.5 1.5-1.5.5q-2.5-1-1-2Zm27 2 .5 2.5h-1zm-9 2 .5 1.5-1.5.5q-1.5-1 1-2Zm-14 1 2.5 1.5-1.5.5q-2.5-1-1-2Zm527 2 1.5.5-.5 2.5q-2.4-.9-1-3Zm-505 2 .5 3.5h-1zm-18 1 2.5 1.5-1.5.5q-2.5-1-1-2Zm166 0 1.5.5-.5 1.5q-2.5-1-1-2Zm8 0 1.5.5q-1 2.5-2 1zm110 0 .5 2.5h-1zm-275 2 .5 2.5-1.5.5-.5-1.5zm269 1 1.5.5-.5 5.5-1.5-.5zm-110 1 .5 4.5h-1zm-163 2 2 1 1.5-.5-.5 1.5q-3.8.5-3-2Zm519 0 1.5.5-.5 2.5q-2.4-.9-1-3Zm-507 2 .5 6.5h-1zm267 2 .5 2.5h-1zm-110 1q2.5 1 1 2l-1.5-.5zm363 4 .5 3.5h-1zm-519 2 1.5 3.5q-1 2.5-2 1zm508 2 .5 22.5-1.5.5-.5-3.5 1-1v-13q-1.7-.7-1-4zm-442 10 2.5.5-2.5.5zm98 0 1.5.5-.5 1.5q-2.5-1-1-2Zm87 2 .5.5-4.5 4.5-.5-.5zm-182 3 1.5.5-2.5 1.5q-1.5-1 1-2Zm189 0 1.5.5-2.5 1.5q-1.5-1 1-2Zm170 0 2.5.5-2.5.5zm-257 1 1.5 2.5q-1 1.5-2-1zm-11 2 3.5 3.5-.5.5-3.5-3.5zm83 0 .5 1.5q-1 2.5-2 1zm203 1 5 6 1.5.5-1.5.5-5.5-5.5zm-381 1 1.5.5-2.5 1.5q-1.5-1 1-2Zm357 0 4.5.5-.5 1.5-4.5-.5zm-422 1 1.5 2.5-1.5 2.5zm55 0q1.5 1-1 2l-1.5-.5zm196 1-.5 1.5-.5 1.5-.5-1.5zm268 1 .5 2.5h-1zm-468 3q1.5 1-1 2l-1.5-.5zm356 0 .5.5-3.5 3.5-.5-.5zm-215 1q2.5 1 1 2l-1.5-.5zm28 1 .5 1.5-1.5.5q-1.5-1 1-2Zm-221 1 .5 5.5h-1zm205 0q2.2 1.8 7 1l2-1 .5 1.5-9.5.5zm303 5 .5 2.5q-1 2.5-2 1zm-307 1 2.5.5-2.5.5zm15 0 2.5.5-2.5.5zm-9 2 5.5.5-5.5.5zm186 0 1.5.5-.5 2.5zm8 0 1.5.5q-1 2.5-2 1zm-410 1 .5 2.5h-1zm458 0 1.5.5-.5 4.5-1.5-.5 1-2q-1.7-.7-.5-2.5Zm8 0 .5 4.5h-1zm-456 2 .5 3.5h-1zm393 1 .5 2.5q-1 1.5-2-1zm-353 1 .5 1.5-1.5.5q-1.5-1 1-2Zm115 0 3.5 3.5-.5.5-3.5-3.5zm245 0q2.5 1 1 2l-1.5-.5zm106 2 .5 1.5-1.5.5q-1.5-1 1-2Zm-465 2 .5 3.5h-1zm-40 2 .5 2.5h-1zm239 2 1.5 2.5q-1 1.5-2-1zm265 1 .5 1.5-1.5.5q-1.5-1 1-2Zm-502 1 1.5.5q-1 2.5-2 1zm36 1 1.5.5-.5 1.5q-2.5-1-1-2Zm8 0q2.5 1 1 2l-1.5-.5zm150 0q2.5 1 1 2l-1.5-.5zm200 2 5.5 4.5-.5.5-4-4q-2.4-.1-1-1Zm-196 1 4.5.5-4.5.5zm15 0 4.5.5-4.5.5zm234 0 1.5.5-3 2-.5 1.5-1.5-.5zm54 1 .5 1.5-1.5.5q-1.5-1 1-2Zm21 0 2.5 2.5-.5.5-2.5-2.5zm-94 1 .5 1.5-1.5.5q-1.5-1 1-2Zm-438 1 .5 2.5h-1zm70 0 .5 2.5q-1 1.5-2-1zm7 1 1.5.5-.5 1.5-1.5-.5zm133 0 8.5.5-8.5.5zm-5 1 1.5.5q-1 2.5-2 1zm17 0 1.5.5-.5 1.5q-2.5-1-1-2Zm288 1 .5 1.5-1.5.5q-1.5-1 1-2Zm10 2 2.5.5-2.5 1.5zm-92 1 7.5.5-7.5.5zm10 1 1.5.5q-1 2.5-2 1zm-368 2 .5 1.5-1.5.5q-1.5-1 1-2Zm449 1 1.5.5q-1 2.5-2 1zm24 0 2.5 2.5-.5.5-2.5-2.5zm-16 1 5.5 4.5-.5.5-3-3q-3.8-.7-2-2Zm-451 3 2.5 3.5-1.5.5q-2.5-1-1-4Zm-22 2 2.5 1.5-1.5-.5q-2.4-.1-1-1Zm32 1q2.5 1 1 2l-1.5-.5zm-5 2 2.5.5-2.5.5zm8 1 2.5.5-2.5.5zm320 1 1.5.5-2.5 1.5q-1.5-1 1-2Zm37 0 .5 1.5-1.5.5q-1.5-1 1-2Zm-372 1 2.5.5-2.5.5zm8 1 2.5.5-2.5.5zm456 0 5.5 4.5-.5.5-3-3q-3.8-.7-2-2Zm-452 2 1.5.5-.5 1.5q-2.5-1-1-2Zm336 0 3.5.5-3.5.5zm-327 1 1.5.5q-1 2.5-2 1zm343 4 1.5.5q-1 2.5-2 1zm111 4 .5 3.5-1.5.5.5-1.5zm-4 4 .5 1.5q-1 2.5-2 1zm15 7q2.5 1 1 2l-1.5-.5zm-22 1 .5.5-2.5 2.5-.5-.5zm14 1-.5 1.5-.5 1.5-.5-1.5zm-6 6 .5 1.5-2.5 1.5-.5-.5zm-333 3 .5 1.5-1.5.5q-1.5-1 1-2Zm349 2 .5 1.5-1.5.5q-1.5-1 1-2Zm-1 5 .5 1.5-1.5.5q-1.5-1 1-2Zm-344 1 1.5.5-.5 1.5q-2.5-1-1-2Zm-8 2 .5 1.5-2.5 1.5-.5-.5zm22 5 .5 2.5h-1zm-26 5q2.5 1 1 2l-1.5-.5zm18 4 1.5.5-3.5 3.5-.5-.5zm299 0 .5 1.5-1.5.5q-1.5-1 1-2Zm11 2 .5 1.5q-1 2.5-2 1zm-331 4 2.5 3.5h-1l-2-3zm347 1 .5.5-2.5 2.5-.5-1.5zm-5 4 1.5.5-2.5 2.5-.5-.5zm-22 2 .5 3.5-1.5.5.5-1.5zm11 1q.5 2.5 4 2l1.5-.5-.5 1.5q-5.5.7-5-3Zm-49 1 1.5 2.5q-1 1.5-2-1zm22 1 3.5.5-.5 1.5-9.5-.5 5.5-.5zm-453 2 1.5 2.5h-2l-.5 1.5-.5-1.5zm412 6q1.5 1-1 2l-1.5-.5zm-409 2 .5 2.5h-1zm406 2q1.5 1-1 2l-1.5-.5zm-405 2 1.5.5-2 1-.5 1.5-1.5-.5zm-91 1 3.5.5-3.5.5zm139 0 2.5 1.5-1.5.5q-2.5-1-1-2Zm353 2 .5.5-2.5 2.5-.5-1.5zm-360 2 .5 14.5h-1zm240 4q2.8 1.2.5 2.5l-.5 1.5-.5-1.5 1-1zm115 0 .5.5-3.5 3.5-1.5-.5zm-348 4 .5 15.5h-1zm234 2 1.5.5q-1 2.5-2 1zm-2 11 1.5.5q-1 2.5-2 1zm-73 2q2.5 1 1 2l-1.5-.5zm-168 1 .5 4.5q-1.2 2.8-2.5.5l-2.5-1.5.5-1.5 3 2zm335 1 .5 1.5-3.5 3.5-.5-.5zm-170 1 .5 2.5h-1zm75 0 1.5.5q-1 2.5-2 1zm-25 3 7.5.5-7.5.5zm-205 3 1.5.5v6l-1 1-.5 6.5zm158 0 2.5 2.5-.5.5-2.5-2.5zm159 0 .5 1.5q-1 2.5-2 1zm-147 1 2.5 2.5-.5.5-2.5-2.5zm31 2 1.5.5q-1 2.5-2 1zm13 0 1.5.5-.5 1.5q-2.5-1-1-2Zm-17 1 1.5.5q-1 2.5-2 1zm31 1 1.5.5-1.5 2.5zm-61 3 4.5 4.5-.5.5-1.5-.5-3-4zm53 1 .5.5-2.5 2.5-.5-.5zm-36 4 1.5 3.5q-1 1.5-2-1zm21 3 .5 1.5-1.5.5q-1.5-1 1-2Zm-13 1 5 1 2-1 .5 1.5-7.5.5zm-6 7 1.5.5-.5 1.5q-2.5-1-1-2Zm6 1 6.5.5-6.5.5zm191 8 1 2 9.5.5-9.5.5q-2.4-.9-1-3Zm-443 1 1 1 8.5.5-8.5.5q-2.5-1-1-2Zm-22 1 8.5.5-8.5.5zm443 0 8.5.5-8.5.5zm-373 1 .5 2.5h-1zm20 0q2.5 1 1 2l-1.5-.5zm-20 4 .5 2.5h-1zm12 7 1.5.5-3.5 2.5-.5-.5zm6 0 1.5.5-.5 1.5q-2.5-1-1-2Zm30 2 1.5 2.5q-1 1.5-2-1zm189 0 .5 1.5-1.5.5q-1.5-1 1-2Zm-116 4-.5 1.5.5 1.5q1.3-2.2 2.5.5l-2.5.5-1.5-2.5zm100 0 .5 1.5-1.5.5q-1.5-1 1-2Zm-5 1 .5 1.5-1.5.5q-1.5-1 1-2Zm-5 1 .5 1.5-1.5.5q-1.5-1 1-2Zm-83 1q2.5 1 1 2l-1.5-.5zm76 0 .5 1.5-1.5.5q-1.5-1 1-2Zm-69 1q2.5 1 1 2l-1.5-.5zm62 0 .5 1.5-2.5.5v-1zm-156 1 1.5 2.5h-1zm103 0 4.5 1.5-4.5.5zm42 0 1.5.5-.5 1.5-3.5-.5zm-169 7 5.5 5.5-.5.5-5.5-5.5zm195 2 2.5.5-2.5.5zm-71 3 2.5.5-2.5.5zm-75 3 2.5 1.5-1.5.5q-2.5-1-1-2Zm-17 10 3 1 1.5-.5-.5 1.5-4.5-.5z"/><path fill="#545454" stroke="#545454" d="m308.5 84 16.5.5-16.5.5zm141 0-.5 1.5-.5 2.5-.5-2.5zm-111 1 2.5.5-2.5.5zm-54 1 3.5.5-3.5.5zm-7 1 2.5.5-2.5.5zm-6 1 2.5.5-2.5.5zm22 0 .5 5.5h-1zm185 8 5.5 5.5-.5.5-5.5-5.5zm-23 4 7.5 7.5-.5.5-7.5-7.5zm-137 12 .5 4.5h-1zm-33 1 .5.5-3.5 3.5-.5-.5zm206 1 .5 2.5h-1zm-302 4 2.5 1.5-1.5-.5q-2.4-.1-1-1Zm91 0 .5.5-2.5 2.5-.5-.5zm205 1 4.5.5-4.5.5zm-193 1 .5.5-2.5 2.5-.5-.5zm-5 5 .5.5-2.5 2.5-.5-.5zm-52 7 13.5.5-13.5.5zm249 0 2.5.5-2.5.5zm4 0q2 .5 1.5 3.5h-1zm-251 10 9.5.5-9.5.5zm251 7 .5 5.5h-1zm-260 9 2.5.5-2.5.5zm273 7 4.5 4.5-.5.5-4.5-4.5zm-14 2 .5 5.5h-1zm-244 2 7.5.5-7.5.5zm257 1 .5 7.5h-1zm-134 3 2.5.5-2.5.5zm143 1 2.5 2.5-.5.5-2.5-2.5zm-121 19 .5 2.5h-1zm-26 4 2.5 2.5-.5.5-2.5-2.5zm-193 16 2.5.5-2.5.5zm-93 6 1.5.5-.5 1.5q-2.5-1-1-2Zm75 1 .5 4.5h-1zm10 0 .5 4.5h-1zm18 1 .5 2.5h-1zm-11 10 4.5.5-4.5.5zm-113 5 .5 13.5h-1zm-13 5 .5 3.5h-1zm126 0 4.5.5-4.5.5zm-127 10 .5 2.5h-1zm219 10 2.5.5-2.5.5zm-240 3 .5 6.5h-1zm240 7 2.5.5-2.5.5zm19 0 2.5.5-2.5.5zm-256 9 2.5 1.5-1.5.5q-2.5-1-1-2Zm283 2 2.5 2.5-.5.5-2.5-2.5zm-265 3 .5.5-5.5 5.5-.5-.5zm-5 9 2.5 2.5-.5.5-2.5-2.5zm17 2 .5 2.5h-1zm-13 3 2.5 2.5-.5.5-2.5-2.5zm526 1 .5 2.5h-1zm-514 3 .5 2.5h-1zm279 3 .5 2.5h-1zm236 1 .5 3.5h-1zm-348 2 .5 5.5h-1zm-170 1 2.5 2.5-.5.5-2.5-2.5zm15 5 .5 2.5h-1zm257 1 .5 2.5h-1zm10 0 .5 2.5h-1zm237 1 .5 6.5h-1zm-255 18 .5.5-6.5 6.5-.5-.5zm6 8 .5.5-5.5 5.5-.5-.5zm145 1 .5.5-5.5 5.5-.5-.5zm45 0 5.5 5.5-.5.5-5.5-5.5zm59 7 .5 5.5h-1zm-98 1 .5.5-4.5 4.5-.5-.5zm33 0 3.5 3.5-.5.5-3.5-3.5zm-242 1 2.5.5-2.5.5zm16 0 2.5.5-2.5.5zm-213 4 .5 2.5h-1zm198 6 2.5.5-2.5.5zm15 0 2.5.5-2.5.5zm290 1 .5 2.5h-1zm-248 5 .5.5-2.5 2.5-.5-.5zm-209 2 .5 4.5h-1zm456 1 .5 2.5h-1zm-99 3 2.5 2.5-.5.5-2.5-2.5zm-204 3 3.5.5-3.5.5zm16 0 3.5.5-3.5.5zm286 0 .5 2.5h-1zm-83 5 9.5.5-9.5.5zm-216 5 6.5.5-6.5.5zm217 5 7.5.5-7.5.5zm-366 2 3.5 3.5-.5.5-3.5-3.5zm403 2 1.5.5-.5 1.5q-2.5-1-1-2Zm63 0 5.5 5.5-.5.5-5.5-5.5zm-439 4 2.5.5-2.5.5zm375 0 .5.5-2.5 2.5-.5-.5zm-409 1 3.5 3.5-.5.5-3.5-3.5zm345 1 4.5 4.5-.5.5-4.5-4.5zm60 2 .5.5-2.5 2.5-.5-.5zm-38 1 2.5.5-2.5.5zm10 0 5.5.5-5.5.5zm-358 3 2.5.5-2.5.5zm465 0 5.5 5.5-.5.5-5.5-5.5zm-457 1 2.5.5-2.5.5zm344 6 10.5.5-10.5.5zm118 6 .5.5-2.5 2.5-.5-.5zm-6 6 .5.5-2.5 2.5-.5-.5zm23 7 .5 5.5h-1zm-351 16 .5.5-2.5 2.5-.5-.5zm24 4 .5 2.5h-1zm0 4 .5 2.5h-1zm286 8 .5 9.5h-1zm-308 10 2.5.5-2.5.5zm302 2 6.5.5-6.5.5zm-29 1 9.5.5-9.5.5zm-426 10 .5 2.5h-1zm393 12 .5.5-2.5 2.5-.5-.5zm-357 1 .5 12.5h-1zm13 2 .5 12.5h-1zm233 0 .5 3.5h-1zm-265 4 11.5 11.5-.5.5-11.5-11.5zm365 5 .5.5-3.5 3.5-.5-.5zm-179 8 .5.5-2.5 2.5-.5-.5zm7 2 2.5 2.5-.5.5-2.5-2.5zm42 1 7.5.5-7.5.5zm118 0 .5.5-3.5 3.5-.5-.5zm-169 4 3.5 3.5-.5.5-3.5-3.5zm162 2 .5.5-2.5 2.5-.5-.5zm-143 2 2.5 2.5-.5.5-2.5-2.5zm31 2 8.5.5-8.5.5zm-39 4 3.5 3.5-.5.5-3.5-3.5zm54 0 .5.5-2.5 2.5-.5-.5zm8 6 .5.5-4.5 4.5-.5-.5zm-38 2 3.5.5-3.5.5zm10 0 3.5.5-3.5.5zm-198 5 1 14 5.5.5-6.5.5zm187 5 2.5.5-2.5.5zm13 0 2.5.5-2.5.5zm-84 18 .5 2.5h-1zm-80 5 2.5 2.5-.5.5-2.5-2.5zm79 0 .5.5-2.5 2.5-.5-.5zm-117 1 .5 2.5h-1zm195 5 2.5.5-2.5.5zm-75 1 2.5.5-2.5.5zm68 0 2.5.5-2.5.5zm-60 1 3.5.5-3.5.5zm50 0 4.5.5-4.5.5zm-37 1 28.5.5-28.5.5zm-134 6 6.5 6.5-.5.5-6.5-6.5z" opacity=".996"/><path fill="#8c8c8c" stroke="#8c8c8c" d="m450.5 84 9 1 10 5q9.8 5.7 16.5 14.5l4 6 1 6 1 1q-2.4 2.6-8.5 1.5-18.9-6.1-29.5-20.5l-4-6-1-6zm-115 1 2.5.5-2.5.5zm-47 1q3.8-.7 4.5 1.5v10l-1 1-1 6q-3.7 7.8-9.5 13.5l-11 8-13 5q-4-1-5 1h-21l-1-1-10-2-8-4-6-4-6.5-6.5 1.5-2.5 22-10 8-2 9-4h3l4-2 11-2 5-2 10-1 1-1h5l1-1h7zm15 2 .5 5.5h-1zm14 20q2 .5 1.5 3.5h-1zm129 2 6.5 6.5-.5.5-6.5-6.5zm-68 4 .5 2.5h-1zm-60 3 .5 2.5h-1zm-84 25 2.5.5-2.5.5zm13 0 2.5.5-2.5.5zm241 2 .5 4.5h-1zm-298 1-.5 1.5 5 5-.5.5-5.5-5.5zm41 13 3.5.5-3.5.5zm15 0 3.5.5-3.5.5zm241 4 .5 4.5h-1zm14 5 7.5 6.5 14 18 11 17 8 16 4.5 4.5q4.1-.6 5.5 1.5l3 10-3 6 4 11 3.5 3.5q4-.5 4.5 2.5l2 8-3 2q-1.8 2.2-1 7l1 1 1 8 1 1 1 12 1 1v7l1 1v12l1 1v26l-1 1v12l-1 1v7l-1 1-1 11-1 1v4l-1 1v4l-1 1-2 11-7 21-9 19v2l-14 25-15 21q-13.4 17.1-29.5 31.5l-21 17-25 16-20 10h-2l-5 3-13 4-6 3h-3l-15 5h-4l-1 1h-4l-6 2h-5l-1 1h-6l-1 1h-9l-1 1h-45l-1-1-15-1-4-2-1.5.5 7-5 1-5-3.5-4.5q-1.8-1.7-6-1l-50 33h-3q-6.2-14.3-18-23l-7-5-12-6-6-2-9-1-1.5-1.5.5-46.5 1 12 24 8h3l5 2h4l5 2h5l1 1q4.8-1.2 6 1h6l1 1h9l1 1h43l1-1h9l1-1h6l1-1 11-1 1-1h4l9-3h4l12.5 11.5 4.5 5.5 8 3h15l1-1h4l6-2 6-3 7.5-6.5 2-4v-6l1-1v-4l2-6v-5l1-1 1-9q1.8-.7 1-4l2.5-2.5q29.9-19.1 52.5-45.5l15-19 10-15 3.5-7.5 1 1h10l1-1 8-1 7-3 6-4 6.5-6.5 2-4-1.5-.5-2 2h-2l-11 5-8 1-1 1h-9l-1 1h-6v-1l6.5-.5 5-11-.5-1.5h5l6-2 10.5-7.5 5-7 2-6v-10l-3-8-8-9v-2l1-1v-4l2-6v-6l1-1v-6l1-1v-11l1-1v-34l-1-1v-10l-1-1v-7l-1-1v-6l-1-1-2-14-1-1-2-11-7-21-3-4 3-2 1-2v-10l1-1zm-262 2 3.5.5-3.5.5zm12 0 3.5.5-3.5.5zm106 8 .5.5-2.5 2.5-.5-.5z" opacity=".996"/><path fill="#8c8c8c" stroke="#8c8c8c" d="m486.5 181 .5 4.5h-1zm-118 2q5.8.3 8.5 3.5l2 7-1 3-3.5 3.5q-2.2 1.8-7 1l-5.5-4.5q-1.8-2.2-1-7l4.5-5.5zm-18 8 .5 2.5h-1zm-183 12 5.5.5-5.5.5zm217 1 .5.5-2.5 2.5-.5-.5zm-226 3 .5.5-3.5 3.5-.5-.5zm9 7q8.3-1.3 10.5 3.5 2 2.5 1 8l-3.5 4.5q-2.8 2.2-9 1l-4.5-4.5v-7l3.5-4.5zm-93 6 2.5 1.5-9 19-1 5-2 3-3 9-2 10-2 4v4l-2 5v4l-2 6v5l-1 1v6l-1 1-.5 8.5-1-2-3.5-2.5-12-16 7-6 7-11v-2l2-3 3-9 1-10 1-1v-13l-3-9 2.5-2.5 11-2zm115 0 .5 5.5h-1zm-152 9 2.5 1.5 2 6v14l-1 1v4l-1 1v3l-2 6-4 8-5.5 6.5-3 1-3.5-2.5q.8-3.2-1-4v-15l1-1v-4l4-12 4-7 5.5-5.5zm431 4h10q4.8 1.7 7.5 5.5l2 4 1 6-2 6-3.5 4.5-6 3h-8q-5.5-2-8.5-6.5l-2-4v-8q2.3-6.2 7.5-9.5zm-283 1 .5.5-3.5 3.5-.5-.5zm294 36q6.5-1 8.5 2.5 1.7 1.8 1 6l-3.5 4.5-5 1-4.5-3.5q-1.7-1.8-1-6l2.5-3.5zm-216 1h15l1 1h4l1 1h3l6 2q11 4.5 18.5 12.5l4 5 4 8 1 7 1 1v7q-2.2 1.3-1 6l-4 9-11.5 12.5-6 4-12 5q-3.2-.7-4 1h-6l-1 1h-12l-1-1-9-1-14-6-6-4-6.5-6.5-3-4-4-9q.8-3.2-1-4v-13l5-12 10.5-11.5 6-4 9-4 6-1 1-1h5zm-37 5 .5.5-5.5 5.5-.5-.5zm-17 32 .5 8.5h-1zm-145 10 .5 2.5h-1zm419 29h7l1 1 6 1q6.8 2.7 10.5 8.5l2 6v4l-3 7-4.5 4.5-9 4h-14l-8-4-5.5-5.5-2-5v-6l2-5 6.5-6.5 6-3q4 1 5-1Zm-419 7 .5 2.5h-1zm48 11q1 2 2 0l2.5 2.5 6 12q-1 4 1 5v10l-2.5 4.5-5.5-5.5-4-9q1-4-1-5v-12zm-12 4 .5 8.5h-1zm167 9 11.5.5-11.5.5zm-133 10 .5 3.5h-1zm128 0 3.5.5-3.5.5zm11 0 3.5.5-3.5.5zm305 4 25.5 27.5h-2l-1.5 2.5-9.5 8.5-8 12-4 9-2 6v3l-1 1v5l-1 1v9q2.3 1.3-.5 2.5-4.7-1.2-6 1h-27l-.5-.5 2-2 5-10 2-2 13-27v-2l2-3 1-5 2-3 3-9v-3l2-4 3-15zm-440 8 2.5.5-2.5.5zm21 6 .5 2.5h-1zm269 9h5l3 1 7.5 6.5 2 5v6l-3 6-2.5 2.5-6 3h-7l-7.5-4.5-4-8v-5l2-5 5.5-5.5zm185 15 1 2 1.5.5v12l-1 1v3l-2 6-7 13-7.5 8.5-5 3h-3l-1.5-2.5v-10l1-1v-4l2-6 5-10 10.5-12.5zm-330 14 2.5 2.5-.5.5-2.5-2.5zm-15 6h5l5.5 4.5 1 5-3.5 6.5-7 2-3-1-3.5-3.5q-1.8-2.2-1-7l4.5-5.5zm139 2q7-1.5 8.5 2.5 1.8 2.2 1 7-2.1 4.4-8.5 4.5l-4.5-3.5q-1.7-1.8-1-6l2.5-3.5zm-156 5 .5 2.5h-1zm4 13 3.5 3.5-.5.5-3.5-3.5zm-146 12 2.5 2.5-.5.5-2.5-2.5zm138 15 6 1q4.8 1.7 7.5 5.5l2 4v10l-6.5 7.5-4 2h-8q-5.5-2-8.5-6.5l-2-4v-8l4.5-7.5 5-3q3.3.7 4-1Zm-97 1 .5 4.5h-1zm-30 3 2.5.5-2.5.5zm270 0 2.5.5-2.5.5zm-174 7h3l4.5 2.5q2 2.5 1 8-1.5 5-9.5 3.5-4.1-2-4.5-7.5l1-3 2.5-2.5zm-72 13 5.5 3.5-1.5 1.5-4.5-4.5zm187 9 2.5 2.5-.5.5-2.5-2.5zm-12 3 2.5 2.5-.5.5-2.5-2.5zm22 1 .5.5-2.5 2.5-.5-.5zm21 2h14l4.5 2.5-8.5 6.5-6 1-1 1-11 1q-1-2-5-1l-3.5-2.5 5.5-4.5zm-201 44h7l13 5 9 6 8.5 8.5 5 8 1 5q-2.1 2.4-7.5 1.5l-1-1-6-1-8-4q-10.4-6.1-17.5-15.5l-4-7v-3l1-1z" opacity=".996"/><path fill="#dcdcdc" stroke="#dcdcdc" d="M303.5 85h28l1 1h11l1 1 14 1 1 1h4l1 1h4l1 1h4l1 1 7 1 4 2h3l9 3 1.5 1.5-9.5 5.5-4-2h-4l-6-2-14-1-1-1h-9l-1-1h-37l-1 1h-8l-1 1-.5-3.5 1-1v-9zm138 20 2.5 2.5-.5.5-2.5-2.5zm-122 5 .5 8.5h-1zm126 0 7.5 7.5-.5.5-7.5-7.5zm-256 9 2.5 1.5 5.5 6.5 8.5 6.5-.5.5-2-2-11 6-21 15q-17.6 13.9-32.5 30.5l-20 25-12 19-11 21v2l-3 5-5 15-2 3v3l-4 10v3l-3 9v4l-1 1v4l-2 6v5l-1 1v7l-1 1v10l-1 1v37l1 1v10l1 1v6l1 1v6l1 1 2 14 1 1 2 11 6 15h-1l-7-16-6-18v-3l-4-12-1-9-1-1v-5l-1-1q1.2-4.7-1-6v-8l-1-1v-12l-1-1v-25l1-1v-12l1-1v-7l1-1v-6l1-1 1-10 1-1v-3l1-1 3-15 5-15 6-13v-2l11-22 14-22q15-21.1 33.5-38.5l27-22zm105 0 .5.5-3.5 3.5-.5-.5zm87 2 2.5 1.5-1.5.5q-2.5-1-1-2Zm-95 6 .5.5-2.5 2.5-.5-.5zm181 0 2.5 1.5-1.5.5q-2.5-1-1-2Zm-160 2 .5.5-2.5 2.5-.5-.5zm176 4 3.5.5-3.5.5zm5 0 .5 4.5h-1zm-190 5 .5.5-3.5 3.5-.5-.5zm-69 4 2.5.5-2.5.5zm24 0 2.5.5-2.5.5zm56 0 .5.5-2.5 2.5-.5-.5zm-73 1 12.5.5-12.5.5z" opacity=".996"/><path fill="#dcdcdc" stroke="#dcdcdc" d="m189.5 147 5.5 5.5-.5.5-5.5-5.5zm298 0 .5 8.5h-1zm-187 4 .5.5-3.5 3.5-.5-.5zm-84 4 2.5.5-2.5.5zm46 0 2.5.5-2.5.5zm-41 1 2.5.5-2.5.5zm36 0 2.5.5-2.5.5zm-30 1 4.5.5-4.5.5zm21 0 4.5.5-4.5.5zm238 8 .5 8.5h-1zm-254 4 2.5.5-2.5.5zm26 0 3.5.5-3.5.5zm-17 1 11.5.5-11.5.5zm125 2 7.5.5-7.5.5zm-9 4 .5.5-3.5 3.5-.5-.5zm128 7 .5 4.5h-1zm-96 5 .5 7.5h-1zm-38 11 1.5 2.5q-1 1.5-2-1zm-182 3 2.5.5-2.5.5zm216 2 .5.5-3.5 3.5-.5-.5zm-227 2 .5.5-4.5 4.5-.5-.5zm25 1 2.5 2.5-.5.5-2.5-2.5zm177 2 2.5 1.5-1.5.5q-2.5-1-1-2Zm-210 10 .5 6.5h-1zm40 2 .5 3.5h-1zm-36 13 4.5 4.5-.5.5-4.5-4.5zm31 1 .5.5-3.5 3.5-.5-.5zm-18 7 5.5.5-5.5.5zm-44 7q7.3-1.2 8.5 3.5l1 5-4.5 5.5h-5l-4.5-4.5q-1-6.5 2.5-8.5zm137 11 3.5.5-3.5.5zm18 0 3.5.5-3.5.5zm-24 1 2.5.5-2.5.5zm-141 9q11.7-.7 15.5 6.5l2 4v8l-1 3-4.5 5.5-7 3h-4l-7-3-3.5-3.5-2-4v-9q2-5.5 6.5-8.5zm199 3 2.5 2.5-.5.5-2.5-2.5zm-86 2 .5.5-6.5 6.5-.5-.5zm94 6 3.5 3.5-.5.5-3.5-3.5zm12 24 .5 3.5h-1zm-124 5 .5 4.5h-1zm124 5 .5 4.5h-1zm-123 4 .5 2.5h-1zm-82 12 3.5.5-3.5.5zm-4 4 .5.5-2.5 2.5-.5-.5zm357 1 4.5.5-4.5.5zm9 0 4.5.5-4.5.5zm-272 3 2.5 2.5-.5.5-2.5-2.5zm-84 2 .5.5-2.5 2.5-.5-.5zm189 0 .5.5-9.5 9.5-.5-.5zm184 0 2.5 1.5-1.5.5q-2.5-1-1-2Zm-42 2 .5.5-2.5 2.5-.5-.5zm-348 1 .5.5-2.5 2.5-.5-.5zm106 1 2.5 2.5-.5.5-2.5-2.5zm-93 1 .5.5-2.5 2.5-.5-.5zm331 1 .5.5-3.5 3.5-.5-.5zm-348 2 .5.5-2.5 2.5-.5-.5zm116 1 2.5 2.5-.5.5-2.5-2.5zm-103 1 .5.5-2.5 2.5-.5-.5zm0 10 2.5 2.5-.5.5-2.5-2.5zm87 2 2.5 2.5-.5.5-2.5-2.5zm43 0 2.5.5-2.5.5zm6 1 4.5.5-4.5.5zm14 0 5.5.5-5.5.5zm-53 1 4.5 2.5-1.5.5-3.5-2.5zm-6 3 3.5 3.5-.5.5-3.5-3.5zm237 1 .5 2.5h-1zm-134 1 .5.5-4.5 4.5-.5-.5zm-220 1 .5 4.5h-1zm145 3 2.5.5-2.5.5zm55 0 2.5.5-2.5.5zm-45 2 2.5.5-2.5.5zm34 0 3.5.5-3.5.5zm-26 1 21.5.5-21.5.5zm-128 4 .5 2.5h-1zm324 0 5.5 5.5-.5.5-5.5-5.5zm-203 7 3.5.5-3.5.5zm25 0 3.5.5-3.5.5zm-16 1 10.5.5-10.5.5zm218 5 9.5.5-9.5.5zm-347 5 3.5.5-3.5.5zm8 1 4.5.5-4.5.5zm-35 1 5.5 5.5-.5.5-5.5-5.5zm44 0 2.5.5-2.5.5zm300 0 3.5 3.5-.5.5-3.5-3.5zm-295 1 2.5 2.5-.5.5-2.5-2.5zm313 2 2.5.5-2.5.5zm6 1 5.5.5-5.5.5zm-19 1 3.5 3.5-.5.5-3.5-3.5zm-339 3 2.5.5-2.5.5zm10 1 4.5.5-4.5.5zm31 0 .5.5-2.5 2.5-.5-.5zm-23 1 4.5.5-4.5.5zm9 1 3.5.5-3.5.5zm330 4 2.5.5-2.5.5zm-201 23 2.5.5-2.5.5zm-12 1 1.5.5-2.5 1.5q-1.5-1 1-2Zm21 3 3.5 3.5-.5.5-3.5-3.5zm-30 6-.5 1.5-.5 1.5-.5-1.5zm37 6 .5 7.5h-1zm-191 10 1.5 2.5h-1zm1 5 .5 1.5-1 2 5 7-4.5 1.5-4.5-6.5 3-2zm155 1 3.5 3.5-.5.5-3.5-3.5zm12 7 7.5.5-7.5.5zm-158 3 2.5 2.5-.5.5-2.5-2.5zm6 8 .5 4.5h-1zm39 3 1.5.5-2.5 1.5q-1.5-1 1-2Zm7 1 2.5 2.5-.5.5-2.5-2.5zm-47 2-.5 1.5 3.5 5.5 1.5-.5-2.5 1.5-4.5-5.5zm35 4 .5 19.5h-1zm245 2 2.5 2.5-.5.5-2.5-2.5zm-268 1 3.5 3.5-.5.5-3.5-3.5zm38 0 .5 20.5h-1zm221 4 .5 2.5h-1zm-252 4 9.5 9.5-.5.5-9.5-9.5zm251 1 .5 2.5h-1zm-61 11 3.5 3.5-.5.5-3.5-3.5zm59 0 .5 2.5h-1zm-17 2 9.5.5-9.5.5zm-6 1 2.5.5-2.5.5zm-28 4 5.5 5.5-.5.5-5.5-5.5zm-15 2 5.5 5.5-.5.5-5.5-5.5zm25 2 .5.5-3.5 3.5-.5-.5z" opacity=".996"/><path fill="#a1a1a1" stroke="#a1a1a1" d="m551.5 229 2.5 1.5q-1 2.5-2 1zm15 34 .5 2.5-1.5 2.5-.5-1.5z" opacity=".071"/><path fill="#141414" stroke="#141414" d="m287.5 0 1 1 1-1 3 1 2 1q1-2 2 0l4 1 5.5 4.5.5 1.5 1.5.5v2l2 2 2 6-1 2 1 2q-2 1 0 2l-3 9-7.5 7.5-4 2-11 1-3-1-6-2-7.5-7.5-2-4q2-1 0-2l-1-4 1-3-1-2 3-6v-2l3.5-4.5 1.5-.5.5-1.5 8-4q1 2 2 0zm-.5 13-3 2-4 6v6l3 4q3 3 11 1l4-4 2-5-3-6-4-4zM195.5 1q8-1.5 9.5 3.5-2 1 0 2l.5 10.5q2.8-2.2 9-1l3 1 2.5 2.5 1 5-3.5 4.5-12.5.5v11l-2.5 3.5q-1.8 1.7-6 1l-3.5-2.5-1-4q2.2-1.2 1-6l-1-2 .5-1.5h-12l-3.5-2.5-1-5 3.5-4.5 3-1h7l3 1 .5-13.5zm253 70h6l1 1q1-2 2 0l10 2 14.5 8.5.5 1.5 4 2 8.5 8.5 8 13v4l2 3v2l-1 2q2 1 0 2 .6 4.6-2 6 2.2 1.2 1 6l-1 1v10q-1.7.8-1 4l16 15 24 32 3 5v2l4 5v2l3 3 4 8v4l-2.5 3.5h-6l-1 1 .5-1.5-1.5-1.5-1.5.5 1-2h-2l1-2h-2l1-2h-2l1-2-2.5-3.5-1.5.5 1-2h-2l1-2h-2l1-2-1.5-1.5-1.5.5 1-2h-2l1-2-1.5-1.5-1.5.5 1-2-1.5-1.5-1.5.5 1-2-1.5-1.5-1.5.5 1-2-1.5-1.5-1.5.5 1-2-1.5-1.5-1.5.5q2-1 0-2l-1.5-2.5-1.5.5 1-2-2.5-2.5-1.5.5q2-1 0-2l-2.5-3.5-1.5.5q2-1 0-2l-3.5-4.5q-1.3 2.3-2.5-.5 2-1 0-2l-3.5-4.5-1.5 1.5-.5 4.5-1-6-.5 15.5-1 1v8l-1.5 2.5-3 1-5-3-1.5.5 1-1v-7l1-1v-18l1-1v-17l1-1v-11h-2l.5-1.5h-7l-12-4-1.5.5.5-1.5-2 1v-2l-4-2-1.5.5q2.2-1.3-.5-2.5l-2 1 .5-1.5-1.5-1.5-2-1q-1.2 2.3-2.5-.5l1-1-8.5-8.5-1.5.5q2-1 0-2l-1.5-2.5-1.5.5q2-1 0-2l-.5-1.5-1.5.5 1-2-2.5-4.5-1.5.5 1-3h-2l.5-1.5-2.5 1.5.5 1.5-2-1-3.5 2.5.5 1.5-2-1v2l-2-1-1.5 1.5.5 1.5-2-1v2l-2-1-3.5 2.5.5 1.5-2-1-3.5 2.5.5 1.5-2-1-3.5 2.5.5 1.5-2-1-3.5 2.5.5 1.5-2-1-3.5 2.5.5 1.5-2-1v2l-2-1-1.5 1.5.5 1.5-2-1v2l-2-1-1 1q-4.7-1.3-6 1-2.7-1.2-.5-2.5l-.5-1.5-1.5.5 3.5-6.5 2.5-1.5-.5-1.5 2 1 3.5-2.5-.5-1.5 2 1v-2l2 1 1.5-1.5-.5-1.5 2 1v-2l2 1 2.5-1.5-1-2 .5-1.5-3 1v-2l-3 1v-2l-3 1v-2l-6-2h-3l-1-1h-3l-1-1h-3l-1-1h-4l-1-1h-4l-6-2h-6l-1-1h-7l-1-1h-10l-1-1h-30l-1.5 2.5 1 1v9l-1 1-1 8 .5 1.5-1.5-.5 1 3h-2l1 2h-2l1 2h-2l-2 4 .5 1.5-1-1-2.5 2.5-2 3q2.3 1.2-.5 2.5-1.5-2.5-3 1l-3.5 2.5.5 1.5q-1-2-2 0l-1.5.5.5 1.5-2-1-1.5 1.5.5 1.5-2-1v2l-2-1v2l-2-1v2l-3-1-11 4h-6l-1 1h-15l-1-1h-5l-1-1-7-1-1.5.5.5-1.5-3 1v-2l-9-4-1.5.5q2.3-1.2-.5-2.5l-2 1 .5-1.5-1.5-1.5-2-1-1.5.5 1-1-6.5-6.5-1.5.5 1-1-2.5-2.5-3.5 1.5.5 1.5-2-1-6.5 4.5.5 1.5-2-1-1.5 1.5.5 1.5-2-1-1.5 1.5.5 1.5q-1-2-2 0l-1.5.5.5 1.5q-1-2-2 0l-2.5 1.5.5 1.5q-1-2-2 0l-2.5 1.5.5 1.5q-1-2-2 0l-3.5 2.5.5 1.5q-1-2-2 0l-3.5 2.5q2.3 1.3-.5 2.5-1.5-2.5-3 1l-6.5 5.5 1 1-10.5 10.5-1-1-5.5 5.5-2 3 .5 1.5-1-1-3.5 3.5-1 2 .5 1.5-1-1-2.5 2.5-1 2 .5 1.5q-1.2-2.2-2.5.5l-1 2 .5 1.5q-1.3-2.2-2.5.5l-3 5 .5 1.5q-1.2-2.2-2.5.5l1 2-1.5-.5-1.5 1.5 1 2h-2l-2 4 .5 1.5q-1.2-2.2-2.5.5l-1 3 .5 1.5-1.5-.5-2 4 .5 1.5-1.5-.5 1 2h-2l1 2h-2l-4 9 .5 1.5-1.5-.5 1 2h-2l1 2h-2l-1 4 .5 1.5-1.5-.5 1 2h-2l-1 4 .5 1.5-1.5-.5-2 7 .5 1.5-1.5-.5 1 3h-2l1 3h-2l-2 6v3l.5 1.5-1.5-.5-2 10-1 1-1 9-1 1-1 12-1 1v7l-1 1v11l-1 1v27l1 1v12l1 1 1 14 1 1v4l1 1v4l1 1v4l1 1 2 11 2.5 6.5 1.5-.5q-1.7.8-1 4l2.5 5.5 1.5-.5-1 3h2l-1 3 3.5 7.5 1.5-.5-1 3 1.5 2.5 1.5-.5-1 2h2l-1 3 8.5 15.5 1.5-.5-1 2h2l-1 2 2.5 3.5 1.5-.5q-2.2 1.3-1 6l-2 2 .5 1.5q-1.5-2.5-3 1-4.6-.9-6.5-4.5l-11-21-1-4-3-4v-2l-2-3v-3l-2-2-1-6-2-2q2.5-1.5-1-3l-1-3q2-1 0-2l-3-8q2-1 0-2-1.7-1.8-1-6l-2-4v-4l-1-1q2-1 0-2v-5l-2-4q2-1 0-2l-1-5q2-1 0-2l-1-5 1-3-1-1-1-10q2-1 0-2v-18l-6.5-8.5-1.5-.5L18.5 293l-6.5-5.5-3-6q2-1 0-2l-1-2v-8l-1-3 1-1v-6l1-1-1-2 4-11q-2.5-1.5 1-3v-3l8.5-14.5 2.5-1.5 2.5-3.5 5-3 11-1 3-2 7-1 8-3q1 2 2 0l6-2h4l3-2h4l3-2h3l3.5-3.5 1-3 16-23 21.5-24.5 1.5-.5 2.5-3.5 17-15 8.5-5.5.5-1.5 29-19 6-2 2-2 14-7h3l4-3h2l3-2h3l8-4q1 2 2 0l5-1 6-3 7-1 1-1q1 2 2 0l2-1q1 2 2 0l7-1 1-1h6l5-2h7l1-1h9q.8-1.7 4-1 1 2 2 0h32l1 1q.8-1.7 4-1l1 1h9l6 2 2-1 5 2h6l1 1 9 1 3 2q1-2 2 0l2 1q1-2 2 0l6 1 18 6 5 3 17-11h2l9-7zM309 81v1h16zm27 1v1h5zm115 0-2 1v2h-2q-1 4 1 7h2l-1 2h2l-1 2h2l-1 2q1 2 3 0 2 1 0 3l8 8 2-1q2 1 0 3l2 1 2-1 1 2v1l2-1-1 2 2 1 2-1v2l2-1-1 2 3 1 3-1-1 2 4 1h8l1-1v-6h-2l1-2h-2l1-2h-2l1-2h-1v-1l-1-2q-1-3-2-1-3-1-1-2l-1-2-3-3q-2-4-3-1-3-1-1-2l-2-2q-1-2-2 0v-1l-1-1q-1-2-2 0v-2l-2 1v-2l-2 1v-2l-2 1v-2l-2 1v-2l-3 1v-1l-4-2zm-104 1v1h2zm-57 1-1 1h-7l-1 1h-6l-1 1-5 1h2v1l-2-1-5 1h2v1l-2-1h-4l-1 1h-3l-1 1h-3l-1 1h-3l-6 2v2l-1-1h-3l-5 2v2l-3-1v2l-1-1-4 1v2l-1-1-4 1v2l-1-1-6 2v2l-2-1v2l-2-1v2l-2-1v2l-1-1-6 2q-2 1-2 4l2-1 6 7-1 1 3 1q1 2 2 0l-1 2 4 2 2-1v2l2-1-1 2 3 1 3-1-1 2 3 1 8 1 1 1h19l-2-1v-1l3 1h4l-1-1v-1l2 1h3l5-2v-2l3 1 1-1v-2l2 1v-2l2 1-1-1h2l2-1-1-1 2-2 2 1 6-7q2-1 0-2h2l1-1-1-2h2l-1-2h2l1-1-1-3h2l2-6V85l-1 3-1-1-3-1 4-1zm11 4-1 6h1zm184 41v1h2zm8 4-1 3h1zm-255 6v1h9zm254 8-1 7h1zm-1 19-1 7h1zm-1 18-1 4h1zM75 218l-8 3h2v1l-2-1h-3l-8 3h2v1l-2-1-4 1 2 1h-3l2 6v4l1 1v14l-1 1v5l-2 5q-1 3 1 4l-1-1-4 8 1 3h-2l1 2-1-1-2 2 1 2-1-1-1 2q-2 1 0 2l-1-1-3 4-5 4 1 2q2 1 0 2l1 2 3 2 1-1-1 2 1 2 3 2q1-2 2 1l-1 2 3 2 1-1q2 1 0 3l1 2 2-1-1 2h3l1-3v-8l1-1v-6l1-1q1-5-1-6l1-2 1 2 1-8 1-1q1-5-1-5l1-2 1 2 1-4q1-4-1-4h2l2-6q1-4-1-4h2l-1-3h2l-1-3h2l-1-3h2l2-5-1-3h2l1-2-1-3h2l2-4-1-3h2l-1-2h2l-1-2h2l1-2-1-3zm-37 9v2l-2-1v2q-1 2-2 0l-3 3 1 1q-1 2-2 0l-2 2 1 2h-2l1 2h-2l1 2h-2l1 2h-2l1 2-1-1-2 3q-1 3 1 4l-1-1-2 4v5l-1 1v14l1 3h2l-1 2h2l-1 2q1 2 5 1v-2l2 1 4-5q2-1 0-2h2l2-3-1-2h2l4-10 1-9 1-1v-13l-2-6q-1-3-2-1v-1zm27 65-1 3h1zm-1 6-1 3h1zm-1 7-1 4h1zm-1 9-1 7h1zm0 40-1 6h1zm1 11-1 4h1zm1 8-1 3h1z" opacity=".996"/><path fill="#141414" stroke="#141414" d="m451.5 83 2.5.5-2.5.5zm-148 1 4.5.5-4.5.5zm22 0 4.5.5-4.5.5zm-32 10 .5 2.5h-1zm22 23 1.5 2.5-1 1v4l-2 6 .5 1.5-1.5-.5 1 2h-2l1 2h-2l1 2-1.5-.5-1.5 1.5 1 2-1.5-.5-2.5 2.5-1 2 1 1-5.5 5.5q-1-2-2 0l-2.5 1.5.5 1.5q-1-2-2 0l-2.5 1.5.5 1.5-2-1-5.5 3.5.5 1.5-3-1-7.5 3.5.5 1.5q-.7-1.7-4-1l-3.5 1.5.5 1.5q-1-2-5-1l-1 1h-7l-1 1h-16l-1-1-11-1-1.5.5.5-1.5-11-3-1.5.5.5-1.5-7-3-1.5.5.5-1.5-2 1 .5-1.5-1.5-1.5-2 1 .5-1.5-1.5-1.5-2-1-1.5.5 2.5-2.5.5.5-.5 1.5 4 1 1.5-.5-.5 1.5 8 3 7 1 1 1q4.7-1.2 6 1h9l1 1h9l1-1h10l1-1 4.5-.5-2-1 1.5-.5q1 2 5 1l12.5-4.5-.5-1.5 3 1 9.5-5.5-.5-1.5 2 1 1.5-1.5-.5-1.5 2 1 1.5-1.5-.5-1.5 2 1 2.5-2.5-1-1 6.5-6.5 1 1 2.5-2.5 1-2-.5-1.5q1.3 2.3 2.5-.5l-1-2h2l-1-2h2l-1-2h2l-1-2h2zM229 161v1h3zm21 0v1h2zm-6 5v1h6zm140.5-45 2.5.5-2.5.5zm105 15 .5 4.5h-1zm-1 19 .5 3.5h-1z" opacity=".996"/><path fill="#141414" stroke="#141414" d="m252.5 158 2.5.5-2.5.5zm235 15 .5 3.5h-1zm-126 2 3 1 1-1h8l8 4q1.2-2.2 2.5.5-2 1 0 2l3 7v8l-1 3 .5 1.5-1.5-.5-5 6 .5 1.5-2-1-2.5 1.5.5 1.5q-1-2-5-1l-3 1-1-1-6-1-1.5.5q2.3-1.2-.5-2.5l-2-1-1.5.5q2-1 0-2l-1.5-2.5-1.5.5 1-3-1-1-1-6 3-9-.5-1.5 1 1 4.5-4.5-.5-1.5 2 1zm4.5 7q-3 1-1 3l-1-1q-3 1-1 3l-1-1-3 4 1 5v-4h1q1 4-1 6l2-1-1 2 3 3 2-1v2l2-1 4 1h-4v1q4 1 7-1 2-1 0-2h2q2-1 0-2h2l-1-2h2v-7h-1v-1l-3-5-2 1v-1zm20 11-1 3h1zm113.5-11 .5 5.5h-1zm-332 23h5l8 3 1.5-.5-1 1 3.5 3.5 1.5-.5-1 2 2 3 1 9-3 7 .5 1.5-1-1-3.5 3.5.5 1.5q-1-2-2 0l-6 2h-6q-.7-1.7-4-1l-1.5.5.5-1.5-2 1 .5-1.5-5.5-5.5-1.5.5 1-2h-2l1-3h-2l1-1v-7q1.8-.7 1-4l-.5-1.5 1.5.5 5-6-.5-1.5 2 1zm.5 7q-2 1 1 1v1l-3-1v2q-1 2-2 0-3 1-1 3h-2l1 2-1-1-1 7h2l-1 2 2-1-1 2 2 2 2-1-1 2 2 1h7v-2l2 1-1-1 4-4 1 1-1-2 1-2v2h1q1-6-1-8-1-3-2-1-3-1-1-2-2-4-9-3Zm-13 8-1 5h1zm32 1-1 3h1zm-18 17v1h4zm-126.5-1 .5 3.5h-1zm516 3h3l3.5 2.5 4 12-1 3-2.5 2.5-4 1v-1l2.5-.5-4.5-.5q-1.2 2.3-2.5-.5l1-2-4-11zm-516 5 .5 3.5h-1zm-22 16 .5 2.5h-1zm243 0 2.5.5-2.5.5zm13 0 2.5.5-2.5.5zm-8 1 19 2 1.5-.5-.5 1.5 8 2 10 5 1.5-.5q-2.2 1.3.5 2.5l2-1-.5 1.5 2.5 2.5 2 1 1-1 3.5 3.5q-2.5 1.5 1 3l1.5 2.5 1.5-.5q-2 1 0 2l.5 1.5 1.5-.5-1 2 2 2 1.5 4.5 1.5-.5-1 3h2q-1.7.8-1 4l1 1v15q-2 1-1 5l.5 1.5-1.5-.5 1 3h-2l-3 7 .5 1.5q-1.2-2.2-2.5.5l1 2-1.5-.5-2.5 2.5-4.5 5.5-3.5 2.5.5 1.5q-1-2-2 0l-4.5 2.5.5 1.5-2-1v2l-2-1-2.5 1.5.5 1.5-2-1v2l-3-1v2l-3-1v2q-.7-1.7-4-1l-6 2h-21l-1-1-8-1-9-4h-2l-1.5.5.5-1.5-4-2-1.5.5.5-1.5-2-1-1.5.5q2.3-1.2-.5-2.5l-2-1q-1.2 2.3-2.5-.5l1-1-4.5-4.5q-1.3 2.3-2.5-.5l1-2-1.5-1.5-1.5.5q2-1 0-2l-.5-1.5-1.5.5 1-2-2.5-4.5-1.5.5 1-3-1.5-3.5-1.5.5q2.2-1.2 1-6l-1-1v-8l1-1v-5l2-6 4-8-.5-1.5q1.3 2.3 2.5-.5l1-2-.5-1.5 1 1 7.5-7.5-.5-1.5q1 2 2 0l2.5-1.5-.5-1.5 2 1 1.5-1.5-.5-1.5 2 1v-2l2 1v-2l2 1v-2l3 1 2.5-1.5-.5-1.5 3 1v-2q.8 1.8 4 1l6-2h8zm-7.5 2v1h2zm4 5-1 1-6 1h2v1l-2-1h-4l-5 2v2l-1-1-6 2-2 2 1 1-2-1-2 2 1 1-2-1q-3 1-1 3l-2 2-1-1-3 3 1 1-2 2q-2-2-3 1l1 2-1-1-2 2 1 2h-2l1 2-1-1-2 3 1 3v1l-1-2-2 5v12l1 1 1 6 4 7 2-1-1 2 1 2q1 2 3 0l4 5-1 1 4 2q1 2 2 0l-1 2 4 2 2-1v2l2-1v2l2-1-1 2 9 3q3 1 5-1l1 1-2 1h7l1 1h9l1-1h6l4-1-1-1v-1l2 1 5-1-1-1h2l6-2 1-1v-2l2 1v-2l2 1 2-2-1-1h2l2-1 4-5q2-1 0-2h2l1-1-1-2h2l1-1-1-2h2l1-2-1-3h2l-1-3 1-2 1 2v-5l1-1v-5l-1-1v-5l-1 2h-1l1-2-1-5h-2l1-2h-2l1-2h-2l1-2q-1-3-2-1l-2-1 1-2-7-7q-1-2-2 0v-1l-1-2-2 1v-1l-1-2-2 1v-2l-2 1v-2l-2 1v-1l-2-2-3 1v-1l-7-3h-5l-1-1zm64 37-1 3h1zm-116 4-1 5h1zm116 6-1 3h1zm-66 44v1h2zm15 0v1h2z" opacity=".996"/><path fill="#141414" stroke="#141414" d="m265.5 270 11.5.5-11.5.5zm-245 1 .5 2.5h-1zm546 0 1 1 1-1 3 1 1.5.5 3 6q-2 1 0 2l1 7 1 1-1 2 2 3v6l1 1v7l1 3q-2 1 0 2-1 5.5 1 8-1.7.8-1 4l1 1v22l-1 3 1 3-1 3v6l-1 2 1 2-1 1v7l30.5 33.5 1.5.5 8.5 10.5 5.5 4.5 3 6q-.8 4.8 1 7-2 1 0 2-1.7 1.8-1 6l-1 1q2 1 0 2l-1 3q2 1 0 2l-1 5-2 2v3l-3 6-3 3v2L604.5 488l-8 4h-18l-1 1h-6l-2-1-2 1-2-1-1 1h-19l-1 1h-6l-2-1q-1 2-2 0-4.6.9-6.5 4.5l-4.5 6.5-1.5.5-3.5 5.5-2.5 1.5-6.5 8.5-1.5.5-2.5 3.5-2.5 1.5-2.5 3.5-1.5.5-.5 1.5-10 9-4.5 2.5-.5 1.5-13 10-29 18-21 10-5 1-5 3-12 4h-3l-6 3q-1-2-2 0-1.8 1.7-6 1l-4 2-8 1-1 1h-7l-5 2q-1-2-2 0-3.2-.7-4 1-1-2-2 0h-6l-1 1h-14l-1 1h-22l-1-1h-10l-3-1q-1 2-2 0-4.7 1.3-6-1l-2 1-5-2-2 1-1-1-9-1-9-3-12 9-25 15-7 6-5 2h-10l-1-1h-4l-6-3h-2L166 612.5l-.5-1.5-7.5-6.5-.5-1.5-1.5-.5-3-4v-2l-3-3v-3l-2-2q.8-4.8-1-7l1-1v-4l2-3v-2q-2-1 0-2l-1-3v-8l1-1v-13l-15-13-.5-1.5-1.5-.5-.5-1.5-7.5-6.5-.5-1.5-1.5-.5-.5-1.5-2.5-1.5-5-7v-2l1.5-2.5 6-2 5 4 1-1 2.5 2.5-1 1 12.5 12.5 1-1 3.5 3.5-1 1 2.5 2.5 2 1 1.5-1.5v-29l1-2q-2.2-1.2.5-2.5 1.3 2.2 6 1l2.5 2.5v33l-1 1v36l12.5 1.5 9 4h2l1.5-.5q-2.2 1.3.5 2.5l3 1 1.5-.5-.5 1.5 2 1 1.5-.5q-2.2 1.2.5 2.5l2-1-.5 1.5 2.5 2.5 2 1 1-1 6.5 6.5q-2 1 0 2l1.5 2.5 1.5-.5q-2 1 0 2l.5 1.5 1.5-.5-1 2 3.5 6.5 2-1 2 1 1.5-1.5-.5-1.5 2 1 1.5-1.5-.5-1.5 2 1v-2q1 2 2 0l1.5-.5-.5-1.5q1 2 2 0l1.5-.5-.5-1.5 2 1 1.5-1.5-.5-1.5 2 1 1.5-1.5-.5-1.5 2 1 1.5-1.5-.5-1.5 2 1 1.5-1.5-.5-1.5 2 1v-2q1 2 2 0l1.5-.5-.5-1.5q1 2 2 0l1.5-.5-.5-1.5 2 1 1.5-1.5-.5-1.5 2 1 1.5-1.5-.5-1.5 2 1 1.5-1.5-.5-1.5 2 1 1.5-1.5-.5-1.5 2 1v-2q1 2 2 0l1.5-.5-.5-1.5q1.3 2.3 6 1 1.3-2.2 2.5.5l-1 2 2 5-1.5-.5-2.5 2.5.5 1.5q-1-2-2 0l-1.5.5q2 1 0 2l-1 2 6.5.5 1 1h6l1 1h8l1 1h43l1-1h9l1-1 13-1 1-1h4l1-1h4l1-1 7.5-1.5-2-1 1.5-.5q.8 1.8 4 1l10.5-3.5-.5-1.5 3 1v-2l3 1v-2l3 1v-2l3 1 5.5-2.5-.5-1.5 3 1 4.5-2.5-.5-1.5 3 1 6.5-3.5-.5-1.5 2 1v-2l2 1v-2l2 1v-2l2 1v-2l2 1 3.5-2.5-.5-1.5 2 1v-2l2 1v-2l2 1 1.5-1.5-.5-1.5 2 1v-2l2 1 1.5-1.5-.5-1.5 2 1 3.5-2.5-.5-1.5q1 2 2 0l1.5-.5-.5-1.5q1 2 2 0l2.5-1.5-.5-1.5 2 1 1.5-1.5-.5-1.5q1 2 2 0l2.5-1.5-.5-1.5q1 2 2 0l2.5-1.5q-2.2-1.2.5-2.5 1 2 2 0l3.5-2.5q-2.2-1.2.5-2.5 1 2 2 0l5.5-4.5-1-1 5.5-5.5 1 1 4.5-4.5-1-1 6.5-6.5 1 1 4.5-4.5-1-2 2.5-2.5 1 1 2.5-2.5-1-2q1.3-2.7 2.5-.5l2.5-2.5-1-2 1.5.5 2.5-2.5-1-2 1.5.5 1.5-1.5 1-2-.5-1.5q1.3 2.3 2.5-.5l-1-2 1.5.5 1.5-1.5-1-2 1.5.5 1.5-1.5-1-2 1.5.5 1.5-1.5-1-2h2l-1-2 1.5.5 1.5-1.5-1-2h2l-1-2 1.5.5 1.5-1.5 1-3-.5-1.5 1.5.5-1-2h2l-1-2h2l-1-2h2l-1-2h2l-1-2h2l-1-2h2l-1-2h2l-1-2h2l-1-2h2l1-4-.5-1.5 1.5.5-1-2h2l1-4-.5-1.5 1.5.5 2-7-.5-1.5 1.5.5-1-3h2l-1-3h2l2-6v-3l-1-2h1l.5 1.5 2.5-7.5v-4l-1-2h1l.5 1.5 1.5-4.5v-4l1-1 1-12 1-1v-8l1-1v-13l1-1v-22l-1-1v-12l-1-1v-8l-1-1v-5l-1-1v-5l-1-1-.5-4.5-1 2-.5-1.5q2-1 1-5-2.2-1.2-1-6l3-3zm9.5 118-1 5-1 1q-1 3 1 5v1l-1-1h-1q-1 3 1 4v1l-1-2-4 11q-1 3 1 4h-2l1 3h-2l1 3h-2l1 3-1-1-3 6 1 3-1-1-2 3 1 3-1-1-3 5 1 3h-2l1 2-1-1-7 13 1 2h-2l1 2h-2l1 2-1-1-3 4 1 2h-2l1 2-1-1-2 2 1 2-1-1-1 2q-2 1 0 2h-2l2 2h24l1-1h12q1-4-1-4v-10l1-1 1-8 3-7-1-3h2l-1-2h2l-1-2h2l-1-2h2l2-3-1-2h2l1-1-1-2q1-3 3-1l2-3q2-1 0-2l3-3 1 1 2-1 2-2v-2l3 1v-3h-1l-4-3 1-1-2-3-5-6-1 1-4-3 1-1-2-3-5-6-1 1-4-3 1-1q0-2-3-2Zm36 40v2l-2-1v2l-2-1-3 3 1 1-3 3-1-1-3 3 1 2-1-1-2 2 1 2-1-1-2 2 1 2h-2l1 2h-2l1 2-1-1-4 8q-1 3 1 4v1l-1-2-1 5-1 1 1 8v-7h1v7l-1 3 2-1 3 2h-2v1l5-1 1-1v-2l2 1 2-2-1-1q1-3 3-1l2-3q2-1 0-2h2l1-1-1-2h2l1-1-1-2h2l-1-2h2l-1-2h2l-1-2h2l4-13v-11l-1-2q-1-3-5-2Zm-458 70-1 15h1zm7 8-1 16h1zm1 71q-3 1-1 3h-2v5l2 4 2 1h1l-1 2q1 2 3 0l1 2-1 2 7 5q1 2 2 0 2 1 0 3l2 1 2-1-1 2 2 1 2-1-1 2 4 2 2-1-1 2 5 2 7 1 1 1q4 1 6-1l-1-1h2l1-2-3-8q-1-3-2-1v-1l-1-2q-1-3-2-1l-7-6 1-1-2-3-2 1q-3-1-1-2l-1-2-2 1v-2l-2 1v-1l-10-6q-4 1-4-1z" opacity=".996"/><path fill="#141414" stroke="#141414" d="m562.5 276 .5 2.5h-1zm-510 30 .5 2.5h-1zm279 3 .5 6.5h-1zm-267 3 .5 2.5h-1zm504 2 .5 2.5h-1zm-349 1 .5 2.5h-1zm-156 12 .5 19.5h-1zm506 3 .5 13.5h-1zm-443 3 1 1 4.5.5 1 3-4 6 .5 1.5-1-1-2.5 2.5-1 2 .5 1.5q-1.2-2.2-2.5.5l-1 2q2.2 1.3-.5 2.5-1.2-2.2-2.5.5l.5 3.5 2-1 3.5 3.5-1 1 1.5 2.5 1.5-.5-1 2 3.5 6.5 1.5-.5q-1.7.8-1 4l1.5 3.5 1-2 .5 1.5-1 1v6q2 1 1 5l-1 1v5l-1 3 1.5 1.5h8l1 1 14 1 2 2 1.5-.5-1 3 .5 1.5q-1.2-2.2-2.5.5l.5 1.5-5-2h-8l-1-1h-7l-1-1h-7l-1-1h-8l-1.5.5.5-1.5-2 1 .5-1.5-1.5-1.5-2.5-1.5-3.5-5.5-1.5.5 1-2-1.5-2.5-1.5.5 1-2h-2l1-3h-2q1.8-.7 1-4l-1-1q1.3-4.7-1-6v-8q2-1 1-5l-.5-1.5 1.5.5 1-3-.5-1.5 1 1 2.5-2.5-.5-1.5 2 1 1.5-2.5-.5-1.5 1 1 2.5-2.5 1-2-.5-1.5 1 1 2.5-2.5 1-2-.5-1.5q1.3 2.3 2.5-.5l1-2q-2.3-1.3.5-2.5 1.2 2.3 2.5-.5l1-2q-2.3-1.2.5-2.5Zm2.5 2v1h2zm-16 28v2l-1-1-2 2 1 3v2l-1-2h-1v11l2 4v-1h1l-1 4 2-1-1 2 2 6q1 2 3 0l-1 2 1 2 4 2h3l-1-2h2l1-3v-10l-1-5-1 2h-1l1-4h-1v-1l-1-4h-1v-1l-2-4q-1-3-2-1-3-1-1-2 0-3-3-2Zm-9 8-1 4h1zm33 32v1h2zm8 1v1h2zm-15 2v1h2zm8 1v1h2zm345.5-70 7.5.5-7.5.5zm-6 1 2 1h14l13 5 1.5-.5-1 1 7.5 7.5 1.5-.5-1 2h2l-1 2h2l-1 3h2l-1 1v11l-2 6 .5 1.5q-1.2-2.2-2.5.5l1 2-1.5-.5-4.5 4.5q2.2 1.3-.5 2.5l-2-1-1.5 1.5.5 1.5-2-1v2l-3-1-8 3h-11l-1-1-7-1-1.5.5.5-1.5-2 1v-2l-2 1 .5-1.5-1.5-1.5-2 1 .5-1.5-6.5-6.5-1.5.5 1-2h-2l1-2h-2l1-3-1-1q1.3-4.7-1-6 2.3-1.3 1-6l3-7-.5-1.5q1.3 2.3 2.5-.5l3.5-4.5 2.5-1.5-.5-1.5 2 1 2-2 8.5-2.5-2-1zm13.5 2v1h2zm-6 5-1 1-5 1h2v1l-4-1v2l-2-1v2l-2-1-2 2 1 1-2-1-4 5q-2 1 0 2h-2l1 2-1-1-2 4v6l2 5q1 2 3 0l-1 2 1 2h2q1 2 2 0l1 2v1l2-1-1 2 2 1 3-1-1 2 4 1h13l3-1v-2l2 1v-2l2 1v-2l2 1q2-1 0-2l4-4q1 2 2 0l-1-2h2l-1-2h2l1-3v-4l-2-6q-1-3-2-1v-1l-1-2-2-2q-1-2-2 0v-1l-1-2-2 1v-1l-5-3zm-1 45v1h7zm-215.5-36 5.5.5-5.5.5zm300 3 .5 3.5h-1zm-49 5 .5 6.5h-1zm-254 1 11.5.5-11.5.5z" opacity=".996"/><path fill="#141414" stroke="#141414" d="m463.5 363 .5 4.5h-1zm-248 2q1 2 2 0l2 2 2-1v2l2-1v2l2-1v2l2-1v2l2-1v2l4 1 1.5-.5-.5 1.5 5 1 1.5-.5-.5 1.5 6 1 1 1h4l1 1h6l1 1h27l1-1h6l1-1h4l1-1 7-1 5.5-2.5-.5-1.5 2 2 1.5-.5-1.5 1.5q-1-2-2 0l-1.5.5.5 1.5-2-1-1.5 1.5.5 1.5-2-1v2l-2-1v2l-2-1v2l-3-1-2.5 1.5.5 1.5-3-1v2q-.7-1.8-4-1l-1 1-11 1-1 1h-14l-1-1h-6l-1-1-8-1-1.5.5.5-1.5-3 1v-2l-4-1-1.5.5.5-1.5-5-2-1.5.5.5-1.5-2 1 .5-1.5-1.5-1.5-2 1 .5-1.5-1.5-1.5-2-1q-1.2 2.3-2.5-.5l1-1-4.5-4.5-1 1q-2.5-1-1-2Zm48.5 16v1h4zm15 0v1h4zm-13 4v1h8zm301.5-18 .5 2.5h-1zm-457 9 .5 2.5h-1z" opacity=".996"/><path fill="#141414" stroke="#141414" d="m260.5 378 2.5.5-2.5.5zm23 0 2.5.5-2.5.5zm-159 8 .5 7.5h-1zm8 13 3.5 1.5-2.5.5q-2.5-1-1-2Zm383 1 2.5 1.5-2 2 .5 1.5q-1-2-2 0l-3.5 2.5.5 1.5-2-1-1.5 1.5.5 1.5-2-1v2l-2-1v2l-3-1v2l-3-1v2q-1-2-5-1l-1 1h-12l-1-1h-4l-6-2-1.5.5.5-1.5-3-1-1.5.5.5-1.5-2-1-1.5.5q2.2-1.2-.5-2.5l-3.5-2.5 1.5.5 6 2h3l1 1h5l1 1h21v-1l-2.5-.5 2.5-.5q1.3 2.3 6 1l12.5-4.5-.5-1.5 2 1zm-37.5 9v1h3zm-327.5-7 2.5.5-2.5.5zm-30 6 5.5.5-5.5.5zm149 33 7 1 1.5-.5-.5 1.5 3 1 1.5-.5-1 1 5 5 .5 1.5 1.5-.5-1 3 1 1v8l-4 8q2.3 1.3-.5 2.5-1-2-2 0l-7 3h-8l-3-1-1.5.5.5-1.5-2 1 .5-1.5-4.5-4.5-1.5.5 1-2-2-3-1-7 1-1 1-6-.5-1.5q1.3 2.3 2.5-.5l1-2-.5-1.5q1 2 2 0l2.5-1.5-.5-1.5 3 1zm-.5 7v1h4v1q-5 1-6-1v2l-1-1-4 3 1 2h-2l1 2v4l-1-4h-1q-1 4 1 7l2-1q2 1 0 3 1 2 3 0l-1 2 2 1q3-1 4 1 0-2 4-1l-1-1h2l4-3-1-2h2v-7h-2l1-2h-1l-3-2 1-1q-2-4-8-3Zm18 7-1 3h1zm-266.5 8h5l4 2h3l9.5 8.5 3 9v9l-2 5-3.5 4.5-5 4-7 3q-1-2-2 0h-7l-6-2-7.5-6.5-3-5-1-3v-5l-1-1 2-5q-2-1 0-2l1-4 4.5-5.5 6-4 6-1zm.5 13-6 4-1 2-1 3v4l2 3 7 4h3l5-3 2-3q-1-4 1-4-2-1-1-4l-3-4-3-2zm78.5-8 .5 2.5h-1zm451 12 10.5.5-10.5.5zm-447 3q6-1 7 3l1.5-.5-1 2 1.5 1.5 1.5-.5q-2 1-1 5l-3.5 4.5q-1-2-2 0-3.9-.6-5.5-3.5l-.5-3.5-1.5.5-1-5 1.5-2.5 1.5.5.5 4.5 2.5-1.5-.5-1.5 1.5.5-.5-2.5-1 1q-2.5-1-1-2Zm8.5 7-1 3h1zm44.5 3 2.5.5-2.5.5zm7 5 .5 6.5h-1zm226 4 3 1 2.5 2.5-1 9 1 2h-1l-.5-1.5-.5 4.5-1 1v4l-1 1v5l1 2h-1l-.5-1.5-2.5 12.5.5 1.5q-1.2-2.2-2.5.5l-.5 1.5-3.5 2.5.5 1.5-2-1-5 3-6 2h-3l-1 1h-16q-.7-1.7-4-1l-1.5.5.5-1.5-2 1v-2l-2-1-1.5.5q2-1 0-2l-.5-1.5-1.5.5q2.3-1.2-.5-2.5l-1 1-3.5-3.5 1-1-4.5-4.5-2-1-1 1-2.5-2.5 1-1-4.5-4.5-2.5-1.5.5-5.5h4l5 4 1-1 2.5 2.5-1 1 4.5 4.5 3 2q1-2 2 0l2 1 3.5-3.5-.5-1.5 2 1 2-2 10.5-3.5-.5-1.5q1.3 2.3 6 1l1-1h11l1 1 7 1 1.5-2.5v-5l2-6v-5l-1-2h1l.5 1.5.5-4.5-.5-1.5q1.3 2.3 2.5-.5zM367 528v1h7zm-4 6-9 3v2l-2-1v2l-2-1q-3 1-1 3l-2 2-1-1-1 4 4 2q3-1 5 1h7l1-1h5l3-1-1-1v-1l2 1 4-1v-2l2 1 1-1v-2l2 1q3-1 2-5h-1v-1l-4-3zm-212.5-18 .5 10.5h-1z" opacity=".996"/><path fill="#141414" stroke="#141414" d="m390.5 537 .5 2.5h-1zm-228 1 .5 13.5h-1zm193 10 3.5.5-3.5.5zm-262 2h3l4.5 3.5 1 3v8q-2.2 1.3.5 2.5 6.8 1.3 10-1l4.5 3.5q1 6.5-2.5 8.5l-2 1-10.5.5v9l-1 3-2.5 2.5-2 1-2-1q-1.5 2.5-3-1l-2.5-1.5-.5-12.5h-11l-3.5-2.5-1-5 2.5-4.5 3-1 1 1h8l1.5-1.5v-11l2.5-3.5zm444 0h2l3.5 2.5 2 3v8l-1 2 1.5 1.5h9q1-2 2 0l2.5 1.5 2 3v2l-4.5 5.5-3-1-1 1h-7l-1.5 1.5 1 1v8l-3.5 4.5-2 1-2-1q-1 2-2 0l-2.5-1.5-1-2-.5-11.5h-11l-2.5-1.5-2-4v-3l2.5-3.5 3-1 1 1h8l1.5-1.5v-11l1.5-2.5zm-185 7 9.5.5-9.5.5zm-82 13 2.5.5-2.5.5zm-108 9 5.5.5-5.5.5zm123 9 2.5.5-2.5.5zm58 0 2.5.5-2.5.5zm-47 1 4.5.5-4.5.5zm34 0 4.5.5-4.5.5zm123 6 2 1 1-1h8l8.5 4.5.5 1.5 1.5.5.5 1.5 1.5.5 4 9v10l-3 5v2l-6.5 6.5-6 3q-1-2-2 0l-6 1-4-2q-1 2-2 0-7.9-2.1-11.5-8.5l-1-4-2-2v-12l3-7 5.5-5.5zm2.5 13-2 1-3 4-2 2q2 1 0 2l1 5 2 3 6 2 6-1 4-4 1-5q-2-1 0-2l-2-3-3-4zm-256.5 6 2.5.5-2.5.5z" opacity=".996"/><path fill="#bdbdbd" stroke="#bdbdbd" d="m332.5 85 2.5.5-2.5.5zm103 8v2l1.5.5-.5 1.5 1.5.5-.5 1.5 1.5.5-.5 1.5 1.5.5q-2.3 1.2.5 2.5l1.5.5-1 1 2.5 2.5 2.5 1.5-1 1 7.5 7.5 1-1 2.5 2.5 1.5 2.5q1.3-2.3 2.5.5l.5 1.5 2.5.5.5 1.5 1.5-.5.5 1.5 8 4 1.5-.5.5 1.5 2-1 1 2 3-1q.8 2.8 5 2l1.5-.5 1 10-2 4v8q2.3 1.2 1 6l-2 4v8l1 1v6q-2.8 1.7-2 7l3.5 5.5 1.5-.5.5 1.5q1-2 2 0l2-1 3.5 1.5 8 23v3l3 9v4l1 1v4l1 1v4l1 1 1 14 1 1v10l1 1v34l-1 1v11l-1 1-1 13-1 1-1 9-1.5 1.5-2-1-1.5.5-.5-1.5-1.5.5-.5-1.5-1.5.5-.5-1.5-2 1-1-2-3 1-1-2-8 1q-1-2-5-1-1.5 3.5-3 1l-3 2-1.5-.5-.5 1.5q-1-2-2 0l-1.5.5-.5 1.5-1.5-.5-.5 1.5q-4-.5-4.5 2.5l-.5 1.5-4.5 3.5.5 1.5-1.5.5.5 1.5-1.5.5.5 1.5-1.5.5q2.5 1.5-1 3 2.2 2.8 1 9l-1 3 2 1-1 2 2 1-.5 1.5 1.5.5q-2.2 1.3.5 2.5l1.5.5-1 1 5.5 5.5q1.3-2.2 2.5.5l.5 1.5 2.5.5.5 1.5 1.5-.5.5 1.5 3 1q1.5-2.5 3 1l3-1 2 2 9.5.5-5.5 10.5q-1-2-2 0l-3-1h-5l-2 1q-.5-2.5-4-2l-2 1-1-2-2 1-3-2-1.5.5-.5-1.5-3-1-1.5.5-.5-1.5-3.5.5q2 1 0 2l3.5 3.5 1.5.5 3.5 4.5 1.5-.5 1.5 2.5 1.5-.5.5 1.5 1.5-.5.5 1.5 1.5-.5.5 1.5 2-1 1 2 2-1 1 2 4-1 .5 2.5-13 20-10 13-30.5 31.5-19 15-11 7 .5-1.5-2.5-2.5q-1.5 2.5-3-1l-2 2q-1.2-2.2-2.5.5l-2 6 1 2-2 1 1 4-2 3 1 2q-2.5.5-2 4l1 2-1.5-.5-3-1-2 1-2-2h-9l-3 2-3-1q-1.5 3.5-3 1l-1.5.5-.5 1.5-2-1-1 2q-1-2-2 0l-3.5 1.5-.5 1.5q-1.2-2.2-2.5.5l-.5 1.5-1-1-3 3-1.5-.5-5.5-6.5-1 1-3.5-3.5-3.5-4.5-2-1-3 1-1.5-.5-1.5 2.5-1.5.5 1 3-1 2 2 1 5.5 6.5q1.3-2.2 2.5.5l-7.5 1.5-1 1h-3l-1 1h-4l-1 1h-5l-1 1q-4.7-1.2-6 1h-6l-1 1h-9l-1 1h-43l-1-1h-9l-1-1h-6l-1-1h-5l-1-1h-5l-5-2h-4l-12-4h-3l-17.5-6.5v-6l1-1v-20l-1-3 1-2-2-1 1-1-2.5-2.5-1.5.5-.5-1.5-3 1-2-1-3 4-1.5.5q2.5 1.5-1 3v19q2 1 1 5l-1.5-.5-5.5-2.5-9.5-10.5-5.5-4.5 1-1-2.5-2.5-1.5.5-.5-1.5q-1 2-2 0l-3 1q-1-2-2 0l-1.5-1.5-2-4 1-1-.5-1.5 1.5-.5-.5-4.5-1.5-.5q2.3-1.2-.5-2.5l-1.5-.5q.5-4-2.5-4.5l-1.5.5-.5-1.5-2 1-2.5-2.5-3-6 1-2-1-2 1-2-2.5-3.5-1.5-.5.5-1.5-1.5-.5q2.5-1.5-1-3l-1.5-3.5-1.5-.5.5-1.5-1.5-.5.5-1.5-1.5-.5.5-1.5-1.5-.5.5-1.5-1.5-.5.5-1.5-1.5-.5 1-2h-2l1-2-2.5-5.5-1.5.5 1-3-2-4v-3l-3-9v-4l-1-1v-4l-2-6-1-13-1-1v-10l-1-1v-37l1-1v-10l1-1 1-13 1-1v-4l1-1v-4l1-1v-4l1-1 2-11 4-10v-3l2-3 5-15 3-5v-2l11-21 12-19q17.4-24.6 39.5-44.5l28-22 17-10 2 2 1.5-.5.5 1.5 1.5-.5.5 1.5 1.5-.5.5 1.5 1.5-.5.5 1.5 1.5-.5.5 1.5 1-1 2 2 1-1q1.5 3.5 3 1l1.5.5.5 1.5 3-1q.5 2.5 4 2l2-1 3 2h12q.5-2.5 4-2l3 1q1.5-3.5 3-1l3-2 2 1 1-2 2 1 1-2q1 2 2 0l2.5-.5.5-1.5 1.5.5.5-1.5q1.5 2.5 3-1l1.5-.5.5-1.5q1.3 2.3 2.5-.5l1.5-2.5 1 1 2.5-2.5 3.5-4.5 4.5-3.5-.5-1.5 2.5-1.5-.5-1.5 2.5-1.5-.5-1.5 1.5-.5-.5-1.5 1.5-.5 1-3-1-1q3.5-1.5 1-3l2.5-3.5h8l1-1h37l1 1h9l1 1 14 1 1 1h4l1 1h4l3.5 1.5-2 1-.5 1.5-1.5-.5-.5 1.5-2.5.5-.5 1.5-1.5.5-.5 1.5-1.5.5q2 1 0 2l1 3-.5 1.5 2.5 1.5 1.5 2.5 4-1 1.5.5.5-1.5 1.5.5.5-1.5q1.5 2.5 3-1l1.5-.5.5-1.5q1.5 2.5 3-1l1.5-.5.5-1.5 1.5.5.5-1.5 2.5-.5.5-1.5 1.5.5.5-1.5 2.5-.5.5-1.5 1.5.5.5-1.5q1.2 2.3 2.5-.5l.5-1.5 1.5.5.5-1.5q1.3 2.3 2.5-.5l.5-1.5 1.5.5.5-1.5q1.2 2.3 2.5-.5l.5-1.5 1.5.5.5-1.5q1.5 2.5 3-1l1.5-.5.5-1.5 1.5.5zM318 108l-2 3q3 1-1 3l1 1-2 2 1 1h-1l-2 5q-4 1-1 3h-1q-3 1-1 3h-1l-3 3 1 1-7 7-1-1-3 4-1-1-2 3-1-1-1 2-1-1-2 3-1-1-1 2-1-1-1 2-1-1-3 1-1 2-1-1-1 2-2-1-1 2-1-1-3 2-2-1-1 2-3-1q-2 3-3 1-4 0-4 2l-3-1q-6-1-7 2h-10l-4-2q-5-1-5 1l-3-2-4 1-1-1-2-1q-2 3-3-1l-2 1-1-2-2 1-1-2-2 1-1-1-2-1q-1-2-2 0l-1-1h-1l-1-1h-1l-1-1h-1l-1-1h-1l-1-1-2-1-1 3 6 5 1-1 1 3q1 2 3 0l1 3h2q1 3 3 1v2l2-1v2l2-1v2l2-1v2l2-1 1 2 2-1v2l4 1 2-1v2h2q1-2 3 1l2-1 3 2 3-1q4-1 6 2h11l3-2 3 1q4 1 5-2l2 1 3-2 2 1v-1l2-1q1 2 3-1l1 1 3-1v-1h2l8-4v-1h2l1-2h2l1-2h2l3-4 7-6 2-2-1-1 2-1q2-1 0-2l2-1q2-1 0-2l2-1-1-1 2-1-1-1 2-2-1-1 2-1v-1q-2-2 1-3l-1-2 2-3v-8zm49 64-2 2-2-1-1 2-1-1-2 3-1-1-4 4 1 1-2 1v2h-1v2l-2 1 1 2-1 3 1 3-1 3h2l-1 2 2 4 3 1 1 3 5 3 2-1 1 2 2-1 3 1 2-1 4 1v-1h2v-1h2v-1q1-3 3-1l3-3-1-1 2-1q2-1 0-2l2-1-1-2 2-2v-7l-2-1 1-2-1-1v-1l-1-1v-1l-2-2-3-3q-1-3-2-1l-1-1h-1l-1-2-2 1-1-1zm-197 30-3 2-2-1-1 2-1-1-2 1-1 2-1-1-5 5 1 1h-1l-3 5 1 2h-1l-1 7q3 1 1 3l2 2-1 1 3 1-1 2 5 4 1-1v2q1 2 3 0l2 2 2-1 1 2q5 1 7-2l2 1 4-2v-1h2l3-3v-2l2-1v-1q2-1 0-2l2-1v-1q-3-2 1-3 1-5-2-5l1-3-1-1v-1l-1-1v-1l-1-1q-3-1-1-2l-2-3-1 1-2-2h-1l-1-1h-1l-1-2-2 1-3-2zm299 31-2 1q-6 3-8 10v8l2 4q3 4 9 6h8l6-3 3-4 2-6-1-6-2-4q-3-4-7-6zm-345 16-2 1q-4 2-3 9l5 4h5l4-5-1-5q-1-5-8-4Zm137 11-2 2-4-1-1 2h-1q-2-3-3 1l-2-1-1 2-1-1-3 1-1 2-1-1-1 2-1-1-1 2-1-1-2 3-1-1-1 2q-1 2-2 0l-2 3q-1 2-2 0l-7 7 1 1-2 1q-3 1-1 3l-2 1v2h-1v2h-1v2h-1v2l-2 1 1 2h-1l-1 2q2 1-1 3l1 2v2l-2 3q-1 5 2 7l-1 2q-1 3 2 4l-1 2 2 1-1 2h2l-1 2h2l-1 2h2l-1 2h2l-1 2 3 1-1 2 4 2 2 3-1 1 3 2 1-1 2 4 3 2 1-1v2q1 2 3 0v2l2-1v2l4 1q1 2 2 0v2l2-1 1 2 2-1 1 2 2-1 1 2 3-1 1 2 3-1 3 2q3 1 5-1h8q1 2 6 1l1-2 4 1q1-4 3-1l3-2 2 1v-1h2l3-1v-1h2v-1h2v-1h2v-1h2l1-2h2l1-2q1-3 3-1l9-9-1-1 3-2v-2l2-1-1-1 2-1-1-1 2-1-1-1 2-1-1-1 2-2-1-1 2-2-1-3 2-1q1-5-1-5l1-9q-4-2-1-3l-2-3 1-2-1-1v-1l-1-1v-1l-1-2-1-1v-1l-1-1v-1l-2-2v-1l-4-4-5-5-2-3-1 1-2-2-2-1-1-1h-1l-1-1-3-2q-1-2-2 0l-1-1h-1l-1-2-2 1-1-2-2 1-1-1-1-1q-2 2-3-1l-2 1-3-2q-4-1-4 1h-13q-1-2-4-1Zm-147 10-5 2q-5 3-7 9v9l2 4 4 3 7 3h4l7-3 4-5 1-3v-8l-2-4q-4-8-15-7Zm366 0-2 1-3 4q-1 4 1 6l5 3 5-1 3-4q1-5-1-6-2-4-8-3Zm-352 61-1 2-3 2-3 3 1 1-2 1q-2 1-2 4h-1l-3 3 1 1-2 1-3 3 1 1-2 1-2 3-1-1q-3 1-1 3l-2 1v2h-1v2l-2 2 1 2-2 4q-1 5 2 7l-1 3 2 3-1 2q3 1 1 3l1 3h2l-1 2h2l-1 2h2l-1 2 3 1-1 2 6 5h2v2l2-1v2h3q1-2 2 0l2-1q3-1 4 2 3 1 5-1l3 2q3 1 5-1 3 0 4 2 3 1 4-1h2l3 2q1-4 3-1l2-2q-2-2 1-3-4-2-1-3l-2-3q-2 2-3-1l-3 1q-4 0-4-2-5-1-5 1l-4-2-5 1-1-1 2-1-1-2q-1-4 1-4 1-4-1-4-1-4 1-4 0-4-2-4l1-2q-4-2-1-3l-2-2 1-1-1-1v-1l-1-1v-1l-1-1v-1l-1-1v-1l-3-3-4-3q3-2 1-3l2-1 2-2-1-1 3-2 2-2-1-1 3-2 2-2-1-1 2-1-1-1 1-2q-2-1 0-2l-1-1-1-1q-1-3-5-2Zm84 28-1 3h2l-1 2 4 2 2 3-1 1q1 2 3 0l3 5q1 2 3 0l1 3 2-1v2q1 2 3 0v2l2-1v2l2-1v2l2-1v2h3q1 2 2 0l2 2 1-1 3 2q1-3 3 1l3-1 1 2q3 1 4-1h2l3 2h10l3-2 6 1 1-2 2 1 3-2 2 1q1-4 3-1l2-2 1 1 1-2 2 1v-1h2v-1h2v-1h2l3-2v-1h2l1-2q1-3 3-1l4-4v-3l-4 1-1 2-1-1-2 2-1-1-1 2h-1q-2-3-3 1l-2-1-1 2-3-1-1 2-2-1-3 2-2-1q-5-1-5 2l-3-1h-21l-1 1q-5 1-5-2l-3 1-3-2-3 1-1-2-3 1-1-1-1-1q-2 2-3-1l-1 1-2-2-1 1-2-2-1 1-1-1h-1l-1-1h-1l-1-1-3-2q-1-2-2 0l-1-1h-1l-1-1q-1-3-2-1l-1-1q-1-3-2-1zm217 56-5 2-6 6-2 5v5l4 8 8 4h7l6-3 2-2 3-6v-6l-2-5-7-7-3-1zm-163 24-1 2-1-1-4 2-2 3-2 1-4 5 1 2-2 1 1 2-1 2 1 3-1 4h2l-1 2h2l-1 2h2v3l4 3 1-1v2q1 2 3 0l1 2 2-1 2 2h7l1-2 2 1v-1h2v-1h2l1-2 4-3q2-1 0-2l2-1-1-1 2-1-1-2 2-1v-7l-2-2 1-2-1-1v-1l-2-2v-1l-3-4-1 1-2-2h-1l-1-1h-1l-1-2-3 1-2-1-2 1zm142 13-2 1-3 4q-1 4 1 6l5 3q6 0 8-4 1-5-1-7-1-4-8-3Zm-160 45q-1 2-4 1l-5 3-5 8v8l2 4q3 4 9 6h8l4-2 6-7v-10l-2-4q-3-4-7-6zm-31 11-2 1-3 3-1 3q0 5 5 7 8 2 9-3 1-6-1-8l-4-3zm-70.5-358 .5.5-2.5 2.5-.5-.5zm-15 15 .5.5-2.5 2.5-.5-.5zm-67 156 .5 2.5h-1zm0 29 .5 3.5h-1z" opacity=".996"/><path fill="#f1f1f1" stroke="#f1f1f1" d="M96.5 476q3 1.5 0 3l-1.5-.5 2-1zm2 3-.5 1.5 1 1-.5 1.5-1.5-2.5zm13 21 2.5 1.5-.5 1.5-2.5-2.5z" opacity=".149"/><path fill="#131313" stroke="#131313" d="m284.5 0 2.5.5-2.5.5zm8 0 2.5.5-2.5.5zm-90 1 2.5 2.5-.5.5-2.5-2.5zm3 4 .5 10.5h-1zm69 0 .5.5-2.5 2.5-.5-.5zm34 5 1.5 2.5h-1zm-21 3 4.5.5-4.5.5zm-72 3h2l3.5 3.5-.5.5-3-3q-3 .5-2-1Zm52 0 .5 2.5h-1zm13 4 .5 5.5h-1zm18 0 .5 5.5h-1zm-31 7 .5 2.5h-1zm-86 2 10.5.5-10.5.5zm24 0 10.5.5-10 1-.5 9.5zm79 1 2.5 1.5-1.5.5q-2.5-1-1-2Zm10 0q1.5 1-1 2l-1.5-.5zm-24 5 6.5 6.5-.5.5-6.5-6.5zm-66 6 .5 1.5q-1 2.5-2 1zm74 1 2.5 1.5-1.5.5q-2.5-1-1-2Zm-77 2q1.5 1-1 2l-3.5-.5zm84 1 8.5.5-8.5.5zm163 25 8.5.5-8.5.5zm-148 1 32.5.5-32.5.5zm158 0 2.5.5-2.5.5zm-169 1 5.5.5-5.5.5zm49 0 6.5.5-6.5.5zm-58 1 4.5.5-4.5.5zm68 0 4.5.5-4.5.5zm93 0 .5.5-2.5 2.5-.5-.5zm-168 1 3.5.5-3.5.5zm83 0 3.5.5-3.5.5zm-89 1 3.5.5-3.5.5zm95 0 3.5.5-3.5.5zm-100 1 3.5.5-3.5.5zm105 0 3.5.5-3.5.5zm-109 1 2.5.5-2.5.5zm114 0 2.5.5-2.5.5zm-119 1 2.5.5-2.5.5zm124 0 2.5.5-2.5.5zm-128 1 2.5.5-2.5.5zm176 4q1.5 1-1 2l-2 1q-1.5-1 1-2zm-193 1 2.5.5-2.5.5zm-3 1 1.5.5-3.5 1.5v-1zm191 1q1.5 1-1 2l-2 1q-1.5-1 1-2zm-10 2 3.5 1.5-1.5.5-2.5-1.5zm79 0 4.5 4.5-.5.5-4.5-4.5zm-278 4 1.5.5-3.5 1.5v-1zm284 3 2.5 2.5-.5.5-2.5-2.5zm-295 2 1.5.5-8.5 4.5q-1.5-1 1-2zm-15 8q1.5 1-1 2l-2 1q-1.5-1 1-2zm-5 3q1.5 1-1 2l-2 1q-1.5-1 1-2zm324 3 .5 2.5h-1zm-344 10 .5.5-2.5 2.5-.5-.5zm-4 3 .5.5-2.5 2.5-.5-.5zm-4 3 .5.5-3.5 3.5-.5-.5zm-5 4 .5.5-4.5 4.5-.5-.5zm355 2 .5 10.5h-1zm-362 4 .5.5-8.5 8.5-.5-.5zm362 10 13.5 13.5-.5.5-13.5-13.5zm-377 5 .5.5-9.5 9.5-.5-.5zm392 11 4.5 4.5-.5.5-4.5-4.5zm-403 1 .5.5-4.5 4.5-.5-.5zm408 5 2.5 2.5-.5.5-2.5-2.5zm-413 1 .5.5-3.5 3.5-.5-.5zm417 4 2.5 2.5-.5.5-2.5-2.5zm3 4 2.5 2.5-.5.5-2.5-2.5zm-427 1 .5.5-2.5 2.5-.5-.5zm430 3 2.5 2.5-.5.5-2.5-2.5zm9 13 2.5 3.5q-1 1.5-2-1zm-452 3-.5 1.5-1.5 2.5.5-1.5zm455 2 2.5 3.5q-1 1.5-2-1zm-472 6 2.5.5-2.5.5zm476 1 2.5 3.5q-1 1.5-2-1zm-483 1 2.5.5-2.5.5zm-4 1 2.5.5-2.5.5zm-11 3 2.5.5-2.5.5zm-15 3 6.5.5-6.5.5zm520 5 .5 3.5h-1zm-540 14-.5 1.5-.5 1.5-.5-1.5zm542 5 3.5.5-3.5.5zm-545 1 .5 1.5-1.5 2.5-.5-1.5zm-2 5 .5 2.5h-1zm-2 8 .5 2.5H8zm-1 6 .5 6.5H7zm0 10 .5 6.5H7zm567 5q2 .5 1.5 3.5h-1zm2 6 .5 2.5h-1zm-566 4 1.5 2.5q-1 1.5-2-1zm567 0 .5 3.5h-1zm-565 4 4.5 4.5-.5.5-4.5-4.5zm566 1 .5 3.5h-1zm-560 4 2.5 2.5-.5.5-2.5-2.5zm561 2 .5 4.5h-1zm-557 3 2.5 2.5-.5.5-2.5-2.5zm558 4 .5 5.5h-1zm-553 2 2.5 2.5-.5.5-2.5-2.5zm3 4 3.5 3.5-.5.5-3.5-3.5zm551 3 .5 7.5h-1zm-546 3 2.5 2.5-.5.5-2.5-2.5zm4 5 2.5 2.5-.5.5-2.5-2.5zm4 5 3.5 3.5-.5.5-3.5-3.5zm539 3 .5 19.5h-1zm-535 2 3.5 3.5v17h-1v-17l-3-3zm534 27 .5 5.5h-1zm-530 1 .5 7.5h-1zm529 10 .5 4.5h-1zm-528 1 .5 4.5h-1zm528 6 5.5 5.5-.5.5-5.5-5.5zm-527 1 .5 4.5h-1zm1 7 .5 3.5h-1zm536 3 6.5 6.5-.5.5-6.5-6.5zm-535 2 .5 3.5h-1zm1 5 .5 2.5h-1zm1 5 .5 2.5h-1zm544 0 6.5 6.5-.5.5-6.5-6.5zm-543 4 .5 2.5h-1zm554 8 6.5 6.5-.5.5-6.5-6.5zm-550 6 .5 2.5h-1zm560 4 3.5 3.5-.5.5-3.5-3.5zm4 5 2.5 4.5h-1l-2-4zm3 7 .5 3.5h-1zm0 10 .5 4.5h-1zm-1 6 .5 2.5h-1zm-553 2 5.5 10.5q-1 1.5-2-1l-4-8zm-58 14 2.5.5-2.5.5zm9 0 2.5.5-2.5.5zm-16 3 .5.5-2.5 2.5-.5-.5zm26 1 5.5 5.5-.5.5-5.5-5.5zm584 2-.5 1.5-1.5 2.5.5-1.5zm-615 2 .5.5-2.5 2.5-.5-.5zm82 1 4.5 3.5-1.5.5-3.5-3.5zm-45 2 1.5 2.5h-1zm-22 2 5.5.5-5.5.5zm7 1 4.5 5.5h-1l-4-5zm587 1 .5.5-8.5 8.5-.5-.5zm-614 2 .5 3.5H0zm45 1 .5 8.5h-1zm-32 3 .5 2.5h-1zm-13 3 .5 3.5H0zm99 3 1 2 1.5.5-.5 1.5q-3.6-1.1-2-4Zm-84 1q2 3 6.5 3.5l-2.5.5-4.5-3.5zm563 1 17.5.5-17.5.5zm-551 1q1.5 1-1 2l-2.5-.5zm518 0 17.5.5-17.5.5zm19 0 2.5.5-2.5.5zm-462 2 3.5 2.5-1.5.5-2.5-2.5zm-97 5 2.5 2.5-.5.5-2.5-2.5zm521 0 .5.5-2.5 2.5-.5-.5zm-490 3 .5.5-2.5 2.5-1.5-.5zm80 1-.5 1.5-.5 1.5-.5-1.5zm406 1 .5.5-3.5 3.5-.5-.5zm-501 3 3.5.5-3.5.5zm94 2 4.5 5.5-.5.5-4.5-4.5zm402 1 .5.5-5.5 5.5-.5-.5zm-391 12 3.5 3.5-.5.5-3.5-3.5zm377 3 .5.5-2.5 2.5-.5-.5zm-7 6 .5.5-5.5 5.5-.5-.5zm-359 1 6.5 6.5-.5.5-6.5-6.5zm8 7 4.5 4.5v13h-1v-13l-4-4zm342 0 .5.5-3.5 3.5-.5-.5zm-5 4 .5.5-3.5 3.5-.5-.5zm-5 4 .5.5-2.5 2.5-.5-.5zm58 2 1.5.5-2.5 1.5q-1.5-1 1-2Zm5 0 4.5 3.5-.5 1.5-3-4q-2.4-.1-1-1Zm-67 1 .5.5-2.5 2.5-.5-.5zm-384 2-.5 1.5-.5 11.5-.5-11.5zm442 2 .5 10.5h-1zm-452 10 7.5.5-7.5.5zm23 0 8.5.5-8.5.5zm420 0 7.5.5-7.5.5zm23 0 8.5.5-8.5.5zm-432 1 3.5 2.5-.5.5-2-2q-2.4-.1-1-1Zm443 0 4.5 3.5-.5 1.5-3-4q-2.4-.1-1-1Zm-439 4 .5 4.5h-1zm-45 1q0 4.5 2.5 6.5-1 1.5-2-1-1.9-2-.5-5.5Zm443 0 .5 2.5h-1zm-367 2 .5 2.5h-1zm412 1 .5 1.5-3.5 3.5-.5-.5zm-444 2 .5.5-2.5 2.5-1.5-.5zm31 1 .5 3.5h-1zm280 1 1.5.5-5.5 2.5v-1zm-349 1 8.5.5-8.5.5zm10 0 .5 11.5h-1zm14 0 8.5.5-8.5.5zm419 0 8.5.5-8.5.5zm10 0 .5 10.5h-1zm14 0 9.5.5-9.5.5zm-127 3 1.5.5-3.5 1.5v-1zm-271 1 .5 3.5h-1zm266 1 1.5.5-3.5 1.5v-1zm-313 8 .5.5-2.5 2.5-1.5-.5zm443 0 .5.5-2.5 2.5-1.5-.5zm-393 2 2.5 3.5q-1 1.5-2-1zm305 0 7.5.5-7.5.5zm-77 1 2.5.5-2.5.5zm-122 1 2.5.5-2.5.5zm118 0 2.5.5-2.5.5zm-114 1 2.5.5-2.5.5zm109 0 2.5.5-2.5.5zm-104 1 2.5.5-2.5.5zm99 0 2.5.5-2.5.5zm-211 1 2.5 2.5-.5.5-2.5-2.5zm117 0 2.5.5-2.5.5zm88 0 3.5.5-3.5.5zm86 0 .5.5-3.5 3.5-.5-.5zm29 0 3.5 3.5-.5.5-3.5-3.5zm-197 1 3.5.5-3.5.5zm75 0 3.5.5-3.5.5zm-68 1 5.5.5-5.5.5zm59 0 5.5.5-5.5.5zm-49 1 10.5.5-10.5.5zm34 0 10.5.5-10.5.5zm-171 1 7.5 7.5-.5.5-7.5-7.5zm85 1q1.5 1-1 2l-2 1q-1.5-1 1-2zm212 5 .5.5-2.5 2.5-.5-.5zm11 0 2.5 2.5-.5.5-2.5-2.5zm-28 3 .5 9.5h-1zm45 0 .5 9.5h-1zm-314 1 2.5 2.5-.5.5-2.5-2.5zm57 2q1.5 1-1 2l-5 3q-1.5-1 1-2zm225 1 .5 2.5h-1zm-275 2 3.5 2.5-1.5-.5q-3.8-.7-2-2Zm276 2 1.5 2.5q-1 1.5-2-1zm16 2 .5.5-3.5 3.5-.5-.5zm-283 1 3.5 1.5-1.5.5-2.5-1.5zm9 3 2.5.5-2.5.5zm265 0 3.5.5-3.5.5zm22 0 .5 1.5q-1 2.5-2 1zm-281 1 4.5.5-4.5.5zm242 3 5.5 5.5-.5.5-5.5-5.5zm37 0 .5.5-5.5 5.5-.5-.5zm-30 6 2.5 1.5-1.5.5q-2.5-1-1-2Zm23 0q1.5 1-1 2l-1.5-.5zm-17 3 3.5.5-3.5.5zm8 0 3.5.5-3.5.5z" opacity=".388"/></svg>