<svg xmlns="http://www.w3.org/2000/svg" viewBox="0 0 640 449"><path fill="#242423" stroke="#242423" d="m209.5 178 1.5 3.5q-1 2.5-2 1 2-1 0-2zm2 5 1.5 3.5h-1z"/><path fill="#8b8b82" stroke="#8b8b82" d="M313.5 0h13l1 1h12l1 1h8q1.3 2.3 6 1l1 1h4l1 1h4l1 1h4l4 2h3l15 5 8 4h2l18 9 23 15q17.3 13.2 31.5 29.5l14 18 10 16 8 16 4 12 2 3 3 9v3l2 4v3l1 1v4l1 1v4l2 6v6l1 1v8l1 1 .5 30.5h17l1 1h5l1 1 10 2 13 6 9 6 8.5 7.5 11 14 6 12 3 9v3l1 1v4l1 1v22l-1 1v3l-2 6 14 12q8.7 9.3 14 22l2 6v3l1 1v3l1 1 1 16-1 1v6l-1 1-1 8-8 18q-6.8 10.7-16.5 18.5l-7 5-12 6-6 2h-3l-1 1h-4l-1 1h-6l-1 1h-285l-1-1h-6l-1-1-8-1-18-8q-10.7-6.8-18.5-16.5l-5-7-6-12-2-6v-3l-1-1v-4l-1-1v-7l-2.5-2.5-6-3-18-13-26.5-25.5-1.5-2.5h-98l-1-1h-6l-1-1-7-1-6-3h-2l-11-6L15 305.5l-9-15-4-12q1-4-1-5v-7l-1-1v-8l1-1v-6l1-1 1-8 6-14 6-9L27.5 206l5.5-3.5-2-10-1-1v-22l1-1v-4l1-1v-3l3-9 5-10Q47.5 129 58.5 120l10-7 18-8h3l5-2h6l1-1h14l1 1h6q.8 1.8 4 1l12 4q4.8-12.2 12.5-21.5L186.5 50l18-14 16-10 28-13 15-5 11-2 1-1h4l6-2h5l1-1h8l1-1h12zm6.5 14-1 1h-18l-1 1-13 1-1 1h-4l-1 1-15 3-9 3-13 6h-2l-17 9-27 19-27 28-12 17-6 12-2 2-12 29v3l-4 12-1 9-1 1q1 4-1 6v8l-1 1v34l1 1v8q2 1 1 6l1 1v5l1 1 2 11 2 4v3l2 6 6 13v2l13 24 21 27 23 20 14 10h2l3-12q5-12 13-21l15-13-2-6v-3l-1-1v-9l-1-3q2-1 0-2l1-1v-8q2-2 1-5l5-15 6-11 7-9q8-10 19-16l12-6 9-3h3l1-1h4l1-1h22l1 1 8 1 10 4 4-10 7-10q9-11 21-19l12-6 9-3h3l1-1h6l1-1h16l1 1h6l1 1h3l1 1h3l6 2 12 6 14 11 7 9 6 9 5 10 4-1 3-2v-32l-1-1v-8q-2-2-1-6l-1-1v-5l-2-5v-4l-2-4v-3l-5-15-2-3v-2l-11-22-9-14-11-14-26-26-17-12-22-12h-2l-5-3-5-1-3-2-9-3-15-3-1-1-10-1-1-1h-7l-1-1h-18zM105 116l-1 1h-6l-1 1h-4l-6 2-9 4-9 6-12 12-6 9-5 12-1 7-1 1v8l-1 1 1 11 6 18-13 8q-10 7-16 18l-5 11q1 3-1 4v6l-1 1q-1 4 1 6v9l2 5v3l5 11 4 6 16 14 16 7q3-1 4 1h7l1 1h83l-13-20-13-30-1-6-2-4v-3l-1-1v-3l-1-1v-3l-1-1-1-9-1-1v-6l-1-1v-7l-1-1v-37l1-1 1-15 1-1v-5l2-5v-4l2-4v-3l6-18 3-5v-3l-16-6zm320 71-1 1h-7l-5 2h-3l-11 5-6 4q-11 7-17 19l-4 7v2l-2 3-4 13-15-8-9-3h-4l-1-1h-15l-1 1h-5l-5 2h-3l-13 6-7 5-12 12-6 9-5 12-1 8-1 1v18l1 1v4l5 14-12 7-13 13-8 14-1 6-1 1v21l2 5v3l3 6v2l7 11 10 9 11 7h2l9 4q3-1 5 1h9l1 1h73l1-1h211l1-1h4l9-3 13-8 9-9 6-9 6-18v-18q-2-1-1-5l-2-6-7-13-12-13-4-2-1 2-14 12-18 9h-2l8-6 12-13 6-9 5-15v-4l1-1v-17q-2-1-1-5l-3-9-2-3v-2l-7-11q-7-10-18-17l-10-5-6-2h-3l-1-1h-5l-1-1h-16q-1 2-5 1l-9 4h-2l-13 7-5-14-9-16-13-14-12-7-9-3h-3l-1-1z" opacity=".996"/><path fill="#8b8b82" stroke="#8b8b82" d="m216.5 172-.5 1.5-.5 4.5-.5-4.5zm-6 2-.5 1.5-1.5 2.5.5-1.5zm12 7 .5 1.5q-1 2.5-2 1zm-9 4q2.5 1 1 2l-1.5-.5z" opacity=".996"/><path fill="#8b8b82" stroke="#8b8b82" d="m216.5 185 1.5.5-.5 1.5q-2.5-1-1-2Z" opacity=".996"/><path fill="#ebedea" stroke="#ebedea" d="M304.5 15h31l1 1 15 1 1 1h4l1 1h4l1 1 7 1 21 7 21 10 16 10 19 15L461 77.5l19 25 5 10 2 2 10 22 5 15v3l3 9v4l1 1v5l1 1v6l1 1v11l1 1v21q-2 1-1 5l-1.5 1.5-5 1-2.5-6.5-6-10-14.5-15.5q-8.7-7.3-20-12l-9-3h-3l-1-1h-4l-1-1h-15l-1-1-1 1h-6v-1l6.5-.5-6-7-2-4q.7-3.2-1-4v-9q-2.2-1.2-1-6l-1-3-3-3v-5l-3-3-5-13-5.5-5.5-5-1-6 2-14 1-1-1h-4l-6-2-8.5 7.5-1 3v14q-1.7.8-1 4l1 1v6l2 4v3l5 10 3.5 3.5 6 3 6 1 3 2 15.5.5q1.8 2.2 1 7l-8.5 9.5q-9.2 5.3-15.5 13.5l-9 13-3.5 8.5-12-4h-4l-1-1h-6l-1-1h-13l-1 1-11 1-13 5v-1l13-5 10-1 1-1 10.5-.5-1.5-2.5-1 2-.5-1.5q2.5-1.5-1-3-3.5-3.5-4-10l4.5-6.5 4-2q1 2 2 0l2 1 1-2 1 2 1.5-2.5v-7l1-1v-11l1-1-4.5-.5-13 7-22 5-3.5-2.5q-.7-4.2 1-6l8-13 5.5-5.5 13-6 6.5-5.5v-2l-3-6-5.5-8.5-1.5-.5q-.8-3.2 1-4v-8l-1-1v-5l-1-3-4-8-7.5-8.5-4-3-14-6h-18l-9 3-8 5-5.5 5.5-4.5 6.5.5-1.5 2-3-3.5-.5-1 1h-4l-1 1-7 1-3 2q-1-2-2 0h-2l-8.5 5.5 1.5.5 3-2q1.5 1-1 2l-12 7-10 9-.5-.5 3.5-3.5 2.5-1.5-.5-1.5-8.5 7.5-4 5 1.5.5 5-5 .5.5-5 5 1 1 1 4-3.5 4.5-2 1-3-1-2.5-2.5-.5-1.5-.5 2.5q4 2 0 4v2l-5 11v3l-2 5v5h1l.5-1.5 2 1 1.5-.5-8.5 4.5-9.5 8.5q-5.9 6.6-9 16 .8 3.3-1 4v17l5 13 10.5 12.5q7.4 5.6 17 9l9 1 1 1h8l1-1 9-1 9-4 1.5 11.5 6 11 5.5 5.5 4 3 7 2 3.5 2.5v6l-1 1v14l1 1v6q1.8.8 1 4l2 4-5.5 3.5-12.5 12.5-5 7-5 10-3 9-.5 4.5q-25.3-14.7-43.5-36.5l-13-17-8-13-9-18v-2l-2-3-1-5-4-9v-3l-4-12-1-10-1-1v-6l-1-1v-9l-1-1v-26l1-1v-9l1-1v-6l1-1v-5l2-5v-4l4-11v-3l2-3 5-15 7-14 12-19 12-15L194.5 62l15-12 12-8 28-14h2l3-2 9-3h3l4-2 7-1 1-1h4l6-2h6l1-1h8zM301 36l-1 1-7 1-8 3-3 4q2 6 8 9h8l9-3h8q0 2 4 1l8 7q1 2 6 1l3-4v-5l-7-6q-7 1-9-1l-6-6h-5l-1-1zm74 12-6 2h-13l-6 2-4 5q-1 6 1 10l12 6 3 1h7l1 7 6 10 4 2 1 3 7 5h5l4-2h4l6 8 8 6q2-2 8-1l4-2 1-2v-2l-3-5-5-6-3-1h-12l-3-1-3-2-1-3v-9l3-5v-5l-1-2h-6l-3-1-2-2 4-3 12-4v-2l-5-4-10-2-1-1zM249 88l-1 1h-7l-1 1-6 1q-2-2-3 1l1 1 6-2h4l1-1h8l1-1zm-35 8-1 2h2q1-1-1-2Zm-1 3-8 5-4 4h1l13-8zm5 0v1h2zm-4 6-2 1q-3 1-1 2l4-2zm-14 3-5 5h1l5-4zm9 0q-3 1-1 2l2-1zm-4 3-3 3h1l3-2zm-14 6-3 4h1l2-2zm133 4-1 2 7 9 3 6v2q1 1 2-1-4-11-11-18Zm-138 2-7 10 1 1 2-4q1-5 7-4l-2-1zm-26 13-1 3h1zm16 4-2 3 1 2 1-2zm-18 1-1 3h1zm322 1-9 10v10q2 1 1 6 2 0 1 4l3 5 8 6 6 2h3l-1-1v-6l-1-1-1-10-1-1-1-7-2-4v-3l-3-9zm-306 3-1 3h1zm-1 3-1 3h1zm-1 3-2 4 1 4 1-4zm-18 2-1 3h1zm16 6-1 6-1 1 1 4 1-4zm-18 1-1 3h1zm-1 5-1 3h1zm-1 4-1 4h1zm191 1-1 1 2 1v9l-1 1v8l-1 3h2v-6l1-1v-13l2-1zm-192 5-1 4h1zm-1 8-1 4h1zm-1 11-1 15h1zm73 52-4 3h3l1 1zm-10 4v1l10 5h1l-9-6z"/><path fill="#ebedea" stroke="#ebedea" d="m240.5 96 3.5.5-3.5.5zm-5 1q1.5 1-1 2l-1.5-.5zm-9 3q1.5 1-1 2l-1.5-.5zm-127 17h20l1 1h3l6 2 3.5 2.5-9 23v3l-3 8-1 9-1 1v7l-1 1v6l-1 1v12l-1 1v19l1 1v12l1 1v6l1 1 1 11 1 1 2 11 1 1v3l7 19h-1l-4.5-11.5q-.3 4.7-4 6l-1.5.5 1 3q-1 1.5-2-1l-11-19-1-5-2-3-1-7-1-1-1.5-11.5-1 5-1.5.5L47.5 295l-2-1-.5.5 2.5 2.5 11 6 6 1 1 1h71q1 2 5 1l1-1 2.5 2.5 1 3 6 8-87.5.5-1-1h-4l-9-3-8-4q-8.6-4.9-14.5-12.5l-5-7-6-14-1-8-1-1v-18l4-12 3-5L34.5 219 50 208.5l-5-15v-4l-1-1v-16l1-1v-4l1-1v-3l2-6 5-10q5.7-8.8 13.5-15.5l16-10h2l6-3 8-1zm18.5 50-1 3h1zm-1 4v3l1-2zm-1 3-44 42 1 2h8l1 1 6 1 8 4 6 5v-15l1-1v-5l1-1 1-8 4-9v-2l5-10 2-2zm31 139-2 4h-10v1h15zm174.5-184 7.5 12.5q-1 1.5-2-1-1.7-6.3-6-10zm-3 1 .5 1.5-1.5 2.5-.5-1.5zm-142 29 .5 2.5h-1zm159 12 .5 8.5h-1zm83 17h20l1 1h4l1 1h3l6 2q14 6.5 23.5 17.5 6.6 7.9 11 18l5 16q-1 1.5-2-1v-3l-1.5-3.5-9 14-1.5-10.5-4.5-8.5-1 2-5 2-21 14-4.5.5 5.5 1.5 12 6 17 12 1.5-.5-1 1 5.5 5.5 1.5-.5 4-8 11.5-11.5 16-8q3.3.7 4-1h8l3-1 1 1h8l12 4q8.8 4.7 15.5 11.5l5 7-63.5 41.5-3.5.5-.5 1.5-77.5 71.5 1 3h-1l-5-14q1.2-4.7-1-6v-12l1-1v-4l1-1 1-7 6-12 13.5-14.5 6-4 14-6q3.3.8 4-1h7l1-1h6l1 1h7l12 4 .5-1.5-7-14-12.5-15.5-58 46-8.5 5.5-.5 1.5-8.5 5.5-.5 1.5-8.5 5.5-.5 1.5-8 5-52.5 41.5 1 3h-1l-8-12-5-11-3-9v-4l-1-1-1.5-11.5-1 6-3.5 2.5-.5 1.5-1.5.5-4.5 6.5-1.5.5-.5 1.5-2.5 1.5-6.5 8.5-1.5.5-6.5 8.5-1.5.5-7.5 9.5-1.5.5-6.5 8.5-1.5.5-5.5 6.5-2.5.5 11.5 7.5 6 2h4l1 1 88.5.5-4.5.5-2.5 2.5-1 3-4.5 5.5-10.5.5 62 1-128.5.5-1-1-9-1-12-5-15.5-12.5-7-10-5-12-1-9-1-1v-16l5-15q6.3-10.7 15.5-18.5l14.5-9.5-4-12-1-8-1-1v-14l1-1v-5l1-1v-3l2-6 5-10q6-9.5 14.5-16.5l7-5 10-5 9-3q4 1 5-1h7l1-1h9l1 1h5l9 3 15 8h2l3.5-12.5 4-9 9-13 7.5-7.5 15-9 9-3h4zM361 259q-2 1 1 2h1zm-1 2q-3 1-1 2l2-1zm-5 4q-3 1-1 2l2-1zm-14 14-2 3q1 1 2-1zm-3 4-4 5 1 1 3-4zm-4 6-4 2-1 2-6 5-3 4-5 4-1 2-21 21-4 1 2 3 2-1 14 3 9 5 4 4v-14l1-1 1-11 5-15 5-10 2-2zm-60.5-89h6l4.5 2.5 3 5v5l-2.5 4.5-3 2h-4q-2.5-3.5-8-4l-2.5-2.5v-6l4.5-5.5zm-3 16 4.5 2.5-1.5.5-3.5-2.5zm19 8 1.5.5-3.5 2.5-.5-.5z"/><path fill="#ebedea" stroke="#ebedea" d="m521.5 232 2.5.5-2.5.5zm-8 2 1.5.5-8.5 3.5v-1zm-11 5q1.5 1-1 2l-7 3v-1zm-22 14 .5 8.5h-1zm-1 10 .5 2.5h-1z"/><path fill="#90928d" stroke="#90928d" d="m305.5 0 7.5.5-7.5.5zm22 0 7.5.5-7.5.5zm-31 1 3.5.5-3.5.5zm44 0 4.5.5-4.5.5zm-52 1 2.5.5-2.5.5zm61 0 2.5.5-2.5.5zm-67 1 2.5.5-2.5.5zm73 0 2.5.5-2.5.5zm-78 1 2.5.5-2.5.5zm83 0 2.5.5-2.5.5zm-161 35 .5.5-2.5 2.5-.5-.5zm-4 3 .5.5-2.5 2.5-.5-.5zm249 0 2.5 2.5-.5.5-2.5-2.5zm-254 4 .5.5-3.5 3.5-.5-.5zm259 0 3.5 3.5-.5.5-3.5-3.5zm-266 6 .5.5L168.5 68l-.5-.5zm273 0L472 67.5l-.5.5L456 52.5zm-291 19 .5.5-3.5 3.5-.5-.5zm309 0 3.5 3.5-.5.5-3.5-3.5zm5 6 2.5 2.5-.5.5-2.5-2.5zm-322 2 .5.5-3.5 3.5-.5-.5zm-59 23 2.5.5-2.5.5zm18 0 3.5.5-3.5.5zm-55 15 .5.5-2.5 2.5-.5-.5zm-5 4 .5.5-8.5 8.5-.5-.5zm-10 11 .5.5-2.5 2.5-.5-.5zm473 30 .5 2.5h-1zm-490 12 .5 13.5h-1zm492 0 .5 2.5h-1zm1 8 .5 3.5h-1zm1 14 .5 14.5h-1zm-491 4 .5 2.5h-1zm-7 7 .5.5-9.5 9.5-.5-.5zm503 9 5.5.5-5.5.5zm13 1 2.5.5-2.5.5zm40 17 5.5 5.5-.5.5-5.5-5.5zm7 7 4.5 4.5-.5.5-4.5-4.5zm-587 6 .5 2.5H1zm-1 6 .5 3.5H0zm0 13 .5 3.5H0zm610 23 .5 13.5h-1zm-594 18L27 317.5l-.5.5L16 307.5zm597 14 3.5 3.5-.5.5-3.5-3.5zm8 8 3.5 3.5-.5.5-3.5-3.5zm-559 4 3.5.5-3.5.5zm107 7 13.5 13.5-.5.5-13.5-13.5zm18 17 3.5 3.5-.5.5-3.5-3.5zm10 8 2.5 2.5-.5.5-2.5-2.5zm442 3 .5 3.5h-1zm-421 12 .5 3.5h-1zm421 1 .5 3.5h-1zm-1 7 .5 2.5h-1zm-16 35 .5.5-8.5 8.5-.5-.5zm-386 1 6.5 6.5-.5.5-6.5-6.5zm40 23 2.5.5-2.5.5zm303 0 2.5.5-2.5.5zm-297 1 3.5.5-3.5.5zm290 0 3.5.5-3.5.5z" opacity=".675"/><path fill="#cacbc5" stroke="#cacbc5" d="m300.5 15 3.5.5-3.5.5zm36 0 3.5.5-3.5.5zm-44 1 2.5.5-2.5.5zm53 0 2.5.5-2.5.5zm-45 20 7 1 1 1h5l6 6q2.8 2.2 9 1l7.5 5.5v5l-3.5 4.5q-4.2.7-6-1l-8-7q-3.2.8-4-1h-8l-9 3h-8q-5.2-3.3-7.5-9.5l2.5-3.5 8-3 7-1zm74 12h14l1 1 10 2 5.5 3.5-.5 2.5-12 4-3.5 2.5 1.5 2.5 3 1h6l1.5 1.5v5l-3 5v9l1 3 2.5 2.5 3 1h12l3 1 5.5 5.5 3 5v2l-1.5 2.5-4 2q-5.5-1-8 1l-7.5-6.5-6.5-7.5h-4l-4 2h-5l-6.5-5.5-1.5-2.5-3.5-2.5-6-10-1.5-6.5h-7l-3-1-11.5-6.5q-2.3-3.2-1-10l3.5-4.5 6-2h13zm-177 11 .5.5-2.5 2.5-.5-.5zm246 1 2.5 2.5-.5.5-2.5-2.5zm-230 6 .5.5-2.5 2.5-.5-.5zm-5 4 .5.5-3.5 3.5-.5-.5zm253 8 2.5 2.5-.5.5-2.5-2.5zm-190 1h18l14 6 7.5 6.5 4 5 4 8 1 3v5l1 1v8q-1.8.8-1 4l2 1 1 3 4 5 3 6v2l-6.5 5.5-13 6-5.5 5.5-9 15v4l3.5 2.5h2l9-3 8-1 13-7 7-1-.5 1.5v11l-1 1v7l-1.5 2.5-1-2-1 2-2-1-3 1q-3.9.6-5.5 3.5l-2 6 2 5 6 8-10.5.5-1 1-5.5.5 3 1-2.5.5q-1-2-5-1v1l2.5.5-2.5.5-3-1v1l1.5.5-1.5.5-3-1v1l1.5.5-1.5.5-3-1v1l1.5.5-1.5.5-2-1v2l-2-1v2l-6 3-1.5-.5-.5 1.5-7 4-12.5 11.5-7 9-6 11v2l-4 9-1.5 8.5-1-3-3-2-7-2-9.5-8.5-6-11-1.5-11.5-1.5.5q1.7.7 1 4l-1.5-.5-2.5-.5.5-1.5-9 3q-4.7-1.3-6 1h-8l-1-1-9-1-11-5-6-4-5.5-5.5q-5.9-6.6-9-16 .8-3.2-1-4v-17l5-13 10.5-12.5 2.5-1.5q-2-1-1-5l1-1 1-10 4-12 7-14 7-9 11.5-11.5 11-8 4.5-1.5-2-1-2-5h1q.6 3.9 3.5 5.5l4.5 1.5-2.5.5-2-1q-14 7.5-24.5 18.5l-5 7 3.5 1.5 10-11 12-9 10-5 2-2h2l4.5-4.5 3.5-6.5.5 1.5-.5 1.5 6-1 1-1h7q.8-1.7 4-1 1.5 2.5 3-1l8-5zM243 90l-1 1h-4l-6 2-1 2-3 3h1l6-2h3l1-1h4l1-1q3-1 4 1l3-4zm-2 6v1h3zm-30 12q-3 1-1 2l2-1zm-3 2q-3 1-1 2l2-1zm-5 4-1 2q1 1 2-1zm-3 3-4 4h1l4-3zm-14 9-5 6 1 3 3 2 3 1 2-1 3-4-1-4-3-3zm-5 7-7 13-2 6v3l-1 1v3l-1 1v6l-1 1 1 3 4-2q2-1 0-2v-5l2-5v-3l5-11v-2l2-2q-2-2-2-5Zm-4 26-1 3h1zm-1 5v2h2zm160 7-1 9h1zm-119 1-3 3q2 1 1 5h1l4-4v2h-1v2l-1 3 1 2 4-2q1-5-1-7zm-4 1-2 1-3 4v5l5 4h5l-1-3-1 2-2-1-4-6 1-3h2l1-2zm61 27-2 1-5 6v6l3 2q5 0 8 4h4l3-2 2-4v-5l-3-5-4-3zM236.5 83l-.5 1.5-1.5 2.5.5-1.5zm-46 5 .5.5-4.5 4.5-.5-.5zm-6 7 .5.5-2.5 2.5-.5-.5zm-3 4 .5.5-2.5 2.5-.5-.5zm-3 4 .5.5-2 2-3.5 5.5.5-1.5zm182 5 6 2h4l1 1h6l1-1h7l1-1q4.2.7 6-1 .8 1.8 4 1l5.5 5.5 3 9 5 7v5l3 3 1 3q-1.2 4.8 1 6v9q1.7.8 1 4l2 4 7 8-1.5-.5-6.5.5 3 1-6.5.5-1 1h-3l-9 3-12 6-2 2-.5-.5 3-3 4-5v-5l-1.5-2.5h-15l-3-2h-3l-9-4-3.5-3.5-5-10v-3l-2-4v-6q-1.7-.7-1-4l1-1v-14l1-3 6.5-6.5zm-188 4-.5 1.5-5.5 9.5.5-1.5q1.6-5.9 5.5-9.5Zm-68 4 12.5.5-12.5.5z"/><path fill="#cacbc5" stroke="#cacbc5" d="m322.5 120 4.5 4.5 7.5 12.5 3-5-.5 1.5q-1 5-4.5 7.5l-1.5-.5 2-1v-2l-3-6-7-9zm-160 10 .5 1.5-3 5v2l-3.5 7.5-.5-1.5zm317 12 3.5.5 3 9v3l2 4 1 7 1 1 1 10 1 1v6l1 1-3.5.5-6-2-7.5-6.5-3-5q.7-3.2-1-4 1.2-4.7-1-6v-10zm-326 11 .5 2.5h-1zm-32 3 .5 2.5h-1zm30 4 .5 2.5h-1zm-1 5 .5 2.5h-1zm-31 1 .5 2.5h-1zm-2 1 .5 2.5h-1zm32 2 .5 3.5h-1zm191 1h2l5.5 3.5-1.5-.5-3-1-.5 13.5-1 1-.5 6.5-1.5-.5 1-3v-8l1-1v-9l-2-1zm-224 1 1.5.5-9 16v2l-4 9-1 8-1 1v5l-1 1-.5 15.5-6-5-8-4-6-1-1-1-7.5-.5-4-5 .5-.5 3 3 13-13 30.5-28.5zm321 2 3.5.5-3.5.5zm-289 2 .5 3.5h-1zm-16 2 .5 2.5h-1zm375 1 .5 2.5h-1zm-464 1 .5 4.5h-1zm74 2 .5 3.5h-1zm30 2 .5 3.5h-1zm-16 3 .5 3.5h-1zm293 1 9.5.5-9.5.5zm84 0 .5 5.5h-1zm-69 1 2.5.5-2.5.5zm39 2 4.5 4.5-.5.5-4.5-4.5zm-100 1 .5.5-9.5 9.5-.5-.5zm-262 3 .5 19.5h-1zm30 0 .5 14.5h-1zm339 3 3.5 3.5-.5.5-3.5-3.5zm-19 2 2.5 2.5-.5.5-2.5-2.5zm-85 10 .5.5-2.5 2.5-.5-.5zm96 1 2.5 2.5-.5.5-2.5-2.5zm31 5 .5 4.5q-1 2.5-2 1l1-1zm-189 1 13.5.5-13.5.5zm-188 1 .5 3.5h-1zm-14 6 .5 3.5h-1zm-90 3 .5.5-2.5 2.5-.5-.5zm105 1 .5 2.5h-1zm-31 4 1.5 11.5 1 1 1 7 2 3 1 5q4.6 10.9 11.5 19.5l1-3 4.5-3.5.5-2.5 2 5 1-2 .5 1.5-1 3h1l.5-1.5.5 1.5-1 2h2l-1 2h2l-1 2 2 1 7 16 5 7-.5.5-2-2-1 1q-4 1-5-1h-71l-1-1-6-1-8-4-6.5-5.5 1.5.5 2 1 52-59 1.5-.5zm17 0 .5 2.5h-1zm202 0 3.5.5-3.5.5zm154 0 4.5 8.5 1.5 10.5 9.5-14.5.5-2.5.5 2.5-1 3h1l.5-1.5.5 1.5q-1.7.8-1 4l1.5 1.5q1-2 2 0l1.5-.5-.5-1.5 2 1-.5-1.5 1.5-1.5 9-4 2 1v-2l3 1v-1l-1.5-.5 1.5-.5 2 1v-2l6-1 3 1v-1l-1.5-.5 16.5-.5 1 1h5l1 1h3l6 2 10 5q11 6.5 18.5 16.5l7 11v2l2 3 3 9q-1 4 1 5v17l-1 1v4l-5 15-6 9-12.5 13.5-5.5 4.5 2.5.5 15-8 14.5-12.5.5-1.5 4 2 12.5 12.5 7 13 2 6q-1 4 1 5v18l-6 18-6 9-9.5 9.5-13 8-9 3h-4l-1 1h-163l-1-1-61.5-.5 10.5-.5 2.5-2.5 3-6 2.5-2.5 4.5-.5-88.5-.5-1-1h-4l-6-2-12.5-8.5 1.5.5h2l5.5-5.5.5-1.5 1.5-.5 6.5-8.5 2.5-1.5 6.5-8.5 1.5-.5 6.5-8.5 1.5-.5 7.5-9.5 1.5-.5.5-1.5 1.5-.5 4.5-6.5 1.5-.5 2.5-3.5 1.5-.5.5-5.5.5 6.5 2 6v4l3 9 5 11 7.5 10.5 3-4 23-17 27-22 8.5-5.5.5-1.5 8.5-5.5.5-1.5 8.5-5.5.5-1.5 8-5 57.5-45.5-2-2 .5-.5q14.4 12.6 21.5 32.5l-1.5.5-11-4-14-1-1 1h-7q-.7 1.8-4 1l-14 6q-9.8 5.7-16.5 14.5l-9 16v3l-2 5v4l-1 1v12l1 1 1 9 3.5 8.5 9-10 69.5-63.5.5-1.5h3l63.5-41.5-7.5-9.5-11-8-7-3-6-1-1-1h-8l-3-1-1 1h-8q-.7 1.7-4 1l-13 6-14.5 13.5-4.5 8.5-24-18-12-6-7.5-2.5 1.5-.5q1 2 5 1l21-14 5.5-2.5zm6.5 22-1 9h1zm-1 10-1 3h1zm-359.5-20 .5 2.5h-1zm89 7h2l9.5 5.5-1.5.5-10-5zm-195 6 .5 5.5h-1zm346 3 2.5 1.5q-12.9 7.6-22 19l-9 13-7 15-1 6-2 4v4l-1 1-1.5 21.5-4-4-9-5-14-3-1.5.5-3-4 1.5.5h3l21.5-21.5.5-1.5 5.5-4.5 2.5-3.5 6.5-5.5.5-1.5 4.5-2.5 1-3 4-5 15.5-15.5 6.5-4.5zm-345 10 .5 2.5h-1zm203 6 2.5 2.5-.5.5-2.5-2.5zm4 5 2.5 2.5-.5.5-2.5-2.5zm25 7 .5 4.5h-1zm0 10 .5 4.5h-1zm-103 13q1 2 2 0l1.5 1.5-1.5-.5-1 1q-2.5-1-1-2Zm2 3q1 2 2 0l1.5 1.5h-2l1.5 2.5 1.5-.5-1.5 1.5h-15v-1l10.5-.5zm-85 5 2.5.5-2.5.5zm8 1 83.5.5-83.5.5zm176 1 .5.5-2.5 2.5-.5-.5zm-10 10 .5.5-2.5 2.5-.5-.5zm-54 2 9.5 9.5-.5.5-9.5-9.5zm52 51 .5 2.5h-1zm19 36 2.5 2.5-.5.5-2.5-2.5zm29 14 2.5.5-2.5.5zm10 1 73.5.5-73.5.5z"/><path fill="#535351" stroke="#535351" d="M217.5 175q1 2 2 0l1.5.5-.5 1.5-1-1-2 2-.5-.5 1-1zm-8 2-.5 1.5-.5 3.5-.5-3.5zm13 1 .5 2.5h-1z"/><path fill="#959693" stroke="#959693" d="M286.5 0h4l1 1 4.5.5-4.5.5q-1-2-5-1zm13 0 5.5.5-5.5.5zm36 0 4.5.5-4.5.5zm15 0 2.5.5-2.5.5zm-5 1 3.5.5-3.5.5zm-60 1 2.5.5-2.5.5zm67 0 2.5.5-2.5.5zm6 1 2.5.5-2.5.5zm8 0 2.5.5-2.5.5zm4 1 2.5.5-2.5.5zm-119 5 1.5.5-2 1 .5 1.5q-3-1.5 0-3Zm-7 3 2.5 1.5-1.5.5q-2.5-1-1-2Zm151 0q1.5 1-1 2l-1.5-.5zm-159 3 3.5 1.5-1.5.5-2.5-1.5zm166 0 1.5.5-3.5 1.5v-1zm-168 1v3l-2-1v2q-3-1.5 0-3zm171 0 2.5 1.5-2.5 1.5zm-179 4 2.5 1.5-1.5-.5-1.5.5.5 1.5-2.5-1.5zm188 1 3.5 1.5-2.5 1.5v-2l-2 1q-1.5-1 1-2Zm-199 5 2.5 1.5-1.5-.5-1.5.5.5 1.5q-3-1.5 0-3Zm208 0 2.5 1.5q-1 2.5-2 1l.5-1.5-2 1q-1.5-1 1-2Zm-216 5 2 1 1.5-.5q-1.2 2.8-2.5.5l-1.5.5q2.3 1.3-.5 2.5l-2.5-1.5zm222 0q1 2 2 0l4.5 2.5-2.5 1.5-1.5-1.5.5-1.5-2 1q-2.5-1-1-2Zm-230 6 1 1 1.5-.5-1.5 1.5q-1-2-2 0l-1.5-.5zm239 0 3 1 1.5.5-1.5.5q-1-2-2 0-2.5-1-1-2Zm-243 3 1 1 1.5-.5-1.5 1.5q-2.5-1-1-2Zm247 0 1 1 1.5-.5-1.5 1.5q-2.5-1-1-2Zm-250 2 1.5 1.5-2.5 2.5-1.5-1.5zm255 0 2.5 2.5-1.5 1.5-2.5-2.5zm-260 6 .5.5-3.5 3.5q-3-1.5 0-3 1.5 2.5 3-1Zm265 0q1.5 3.5 3 1l2.5 2.5-1.5-.5-1 1-3.5-3.5zm9 6 6.5 6.5-.5.5-2-2q-1.2 2.3-2.5-.5 2.3-1.2-.5-2.5-1.3 2.3-2.5-.5zm-284 1-.5 1.5 1 1-2.5 2.5-1-1-2 2-.5-.5zm-12 13 1 1 1.5-.5-3.5 3.5-.5-.5 2-2zm307 0 1 1 1.5-.5-1 1 2.5 2.5 1.5-.5-1.5 1.5-4.5-4.5zm6 5 1.5 1.5q-2.2 1.3.5 2.5l1.5-.5-1.5 1.5-2.5-2.5 1-1zm-317 2 .5.5-3.5 3.5-1-1-4 4-.5-.5 4.5-4.5 1 1zm321 3 5.5 6.5q-1.5 3-3 0 2.3-1.2-.5-2.5l-2.5-1.5 1-1zm-331 5 1 1 1.5-.5-3.5 3.5-.5-.5 2-2z" opacity=".118"/><path fill="#959693" stroke="#959693" d="M488.5 86v2l2.5.5-2.5.5q-3-1.5 0-3Zm1 4 3.5 1.5-2.5.5q-2.5-1-1-2Zm2 3 2.5 1.5-1.5.5q-2.5-1-1-2Zm-388 6 2.5.5-2.5.5zm9 0 2.5.5-2.5.5zm28 0q2.8 1.3.5 2.5l-.5 1.5-.5-1.5 1-1zm355 0 2.5.5-2.5.5zm-393 2 13.5.5-13.5.5zm21 0 1.5.5-4.5 1.5v-1zm-28 1 2.5.5-2.5.5zm32 0 2.5.5-4.5 1.5v-1zm371 0v2l1.5.5-1.5.5q-3-1.5 0-3Zm-414 1 3.5 1.5-1.5.5-2.5-1.5zm53 1 1.5 2.5q-1 2.5-2 1 2-1 0-2zm-64 5 1.5.5-4.5 2.5q-1.5-1 1-2zm-12 6 1 1 1.5-.5-1.5 1.5q-2.5-1-1-2Zm-4 3 1 1 1.5-.5-2.5 2.5-1.5-1.5zm450 0 .5 1.5-1.5 2.5-.5-1.5zm-457 6 .5 1.5q-1 2.5-2 1zm459 0 1.5 2.5-1.5 2.5-.5-1.5 1-2h-2zm2 4 1.5 3.5h-1l-.5-1.5-1.5.5zm-465 1 1.5 1.5-2.5 2.5-2 1q-1.5-1 1-2l2.5-1.5zm-5 6 1 1 1.5-.5-1.5 1.5q-2.5-1-1-2Zm-4 6 2.5.5-2.5.5zm479 2-.5 1.5-.5 1.5-.5-1.5zm1 2 .5 2.5-1.5 2.5-.5-1.5zm-484 4 1.5 3.5h-1q-1.7-1.5-.5-3.5Zm485 0 .5 1.5-1.5 3.5-.5-2.5zm-486 3 1.5 3.5h-1l-.5-1.5-.5 2.5 1 2h-1l-.5-1.5-1 2-.5-1.5zm486 3 .5 2.5h-1zm2 1 .5 2.5h-1zm-491 6 1.5 4.5h-1zm491 2 .5 3.5h-1zm-492 2 1.5 3.5v4h-1zm494 1 .5 2.5-1.5 4.5-.5-3.5zm-495 6 .5 3.5h-1zm495 4 .5 4.5h-1zm-495 7 .5 4.5h-1zm496 3 .5 8.5h-1zm-494 1 .5 3.5-1.5 2.5-.5-1.5zm496 5 .5 7.5h-1zm-495 1 .5 2.5-1.5 2.5-.5-1.5zm1 4 .5 1.5-1 2q2.3 1.3-.5 2.5l.5-1.5-1-1zm-5 6 1 1 1.5-.5-2.5 2.5-1.5-1.5zm499 2 1 8 9.5.5-9.5.5q-1.2-2.2-2.5.5l4 1-4.5.5-.5-5.5h1l.5 2.5zm-504 2q2.5 1 1 2-1.2-2.2-2.5.5 2.3 1.2-.5 2.5l-1.5-1.5zm-4 5 .5.5-3 3 1 1-2.5 2.5q-2.5-1-1-2 1.3 2.3 2.5-.5l-1-1zm525 2 3.5.5-3.5.5zm-8 1 6.5.5-6.5.5zm13 0 1.5.5-4.5 1.5v-1zm-536 4q3 1.5 0 3l-1.5-.5 2-1zm552 1 1.5.5-3.5 1.5v-1zm-553 3q1.5 1-1 2l-1.5.5.5 1.5-1.5-.5 1.5-2.5zm566 4 3.5 2.5-1.5.5q-1-2-2 0l-1.5-1.5zm-572 3 1.5 2.5q-1 1.5-2-1zm575 1 1 1 1.5-.5-1.5 1.5q-2.5-1-1-2Zm6 3q2.8 1.3.5 2.5l4.5 4.5q1.3-2.2 2.5.5l-1.5-.5-1 1-6.5-6.5zm8 9 1.5 1.5q-2.2 1.3.5 2.5l1.5-.5-1.5 1.5-2.5-2.5 1-1zm4 5v2l2.5.5-2.5.5q-3-1.5 0-3Zm-597 1 .5 2.5H0zm598 3 2.5 1.5-1.5.5q-2.5-1-1-2Zm5 6v2l1.5.5q-1 2.5-2 1l-1-2zm2 4q2.5 1 1 2l-1-1-1.5.5zm2 4 1.5 3.5-1.5 2.5-.5-1.5 1-2h-2zm-607 3 .5 3.5H0zm609 2 .5 2.5-1.5 2.5-.5-1.5zm-609 7 .5 2.5H0zm609 0 .5 2.5h-1zm-606 5 .5 1.5-1 2h2L3.5 290 2 286.5zm607 0 .5 4.5h-1zm2 4 .5 3.5h-1zm-607 1 .5 1.5q-1 2.5-2 1zm2 5v2l2.5 1.5q-1 2.5-2 1l.5-1.5-2.5-1.5zm605 5 .5 4.5h-1zm-2 4 .5 2.5h-1zm-596 2q2.8 1.3.5 2.5l2 2 .5 1.5 1-1 5.5 5.5-.5.5-5-5q-1.2 2.3-2.5-.5l-2-3 1-1zm594 8 1.5 3.5q-1 2.5-2 1 2-1 0-2zm-583 5q1 2 2 0l2.5 2.5q-1 2.5-2 1 2.3-1.2-.5-2.5l-1 1q-2.5-1-1-2Zm585 0q1 2 2 0l2.5 2.5-1.5-.5-1 1-2.5-2.5zm6 3-.5 1.5 3.5 3.5 1.5-.5-1 1 2 2-.5.5-6.5-6.5zm9 10 1.5 1.5-.5 1.5 2.5 1.5-1 1 .5 1.5-1.5-1.5.5-1.5-2.5-1.5 1-1zm-566 2 2.5.5-4.5 1.5v-1zm7 1h97l5.5 5.5-1.5-.5-1 1-1.5-1.5q2.3-1.2-.5-2.5l-1 1h-95v-1l95.5-.5-97.5-.5zm-4 1 2.5.5-2.5.5zm567 4 3.5 1.5-2.5.5q-2.5-1-1-2Zm-458 5 2.5 1.5q-2.2 1.3.5 2.5 1.3-2.3 2.5.5l-1 1 .5 1.5-5.5-5.5zm465 4 .5 1.5-1.5 2.5-.5-1.5zm2 5 1.5 5.5-1.5 3.5-.5-2.5 1-3h-1l-.5 1.5-.5-1.5zm-457 1q1 2 2 0l4.5 4.5-.5.5-2-2-1.5.5q2.3-1.2-.5-2.5l-1 1q-2.5-1-1-2Zm10 7 2.5 2.5-1.5 1.5.5-1.5-1.5-1.5-1.5.5zm4 3 2.5 2.5-.5.5-1-1-1.5.5 1-1zm444 1 .5 2.5h-1zm-441 3q1 2 2 0l1.5 1.5-1.5 1.5-2.5-2.5zm8 4q2.5 1 1 2l-1-1-1.5.5zm12 12 .5 3.5-1.5 4.5-.5-3.5zm421 1 .5 3.5h-1zm-420 5 .5 2.5-1.5 2.5-.5-1.5zm418 5 1.5 4.5-1.5 2.5-1.5-3.5h1l.5 1.5.5-2.5q-1.7-.7-.5-2.5Zm-415 11 1 1 1.5-.5-1.5 1.5q-2.5-1-1-2Zm411 0 1.5 2.5h-2l-1 2 .5 1.5-2 1 .5-1.5zm-407 4-.5 1.5-.5 1.5-.5-1.5zm1 4 2.5 1.5-1.5-.5q-2.4-.1-1-1Zm2 3 2.5 1.5q-1 2.5-2 1l.5-1.5q-2.4-.1-1-1Zm398 0-.5 1.5 1 1-1 1-.5 1.5q-1.2-2.2-2.5.5 2.3 1.2-.5 2.5l.5-1.5-1-1 2.5-2.5 1.5-.5q-2.2-1.2.5-2.5Zm-394 4 2.5 2.5-1 1 2 2-.5.5-3.5-3.5 1-1zm384 9 .5.5-5.5 5.5-1.5-1.5 2.5-2.5 1 1zm-376 1q1 2 2 0l2.5 2.5-1.5-.5-1 1-2.5-2.5zm7 4q2.5 1 1 2l-1-1-1.5.5zm361 0-.5 1.5 1 1-1.5 1.5-2-1-1.5.5q1.3-2.8 2.5-.5l1.5-.5q-2.2-1.3.5-2.5Zm-353 5q1.5 1-1 2l-1.5-.5zm345 0q1.5 1-1 2l-1.5-.5zm-339 3v2l3-1v1l-3 1q-3-1.5 0-3Zm5 2 1.5.5-2.5 1.5q-1.5-1 1-2Zm3 1 1.5.5-2.5 1.5q-1.5-1 1-2Zm312 1 5.5 1.5-2.5.5-3-1zm-303 1 2.5.5-2.5.5zm297 0 3.5.5-3.5.5z" opacity=".118"/><path fill="#e2e2e2" stroke="#e2e2e2" d="m263.5 5 1.5.5-3.5 1.5V6zm-15 5 1.5.5-2.5 1.5q-1.5-1 1-2Zm141 0q3-.5 3.5 1.5l-1.5-.5q-3 .5-2-1Zm-179 19 1.5.5-2.5 1.5q-1.5-1 1-2Zm218 0 2.5 1.5-1.5-.5q-2.4-.1-1-1Zm-246 22 .5.5-2.5 2.5-.5-.5zm-11 10 1.5.5-2 1-1.5 2.5.5-1.5zm321 31 2.5 3.5h-1l-2-3zm-350 3 .5 1.5-2 2 .5 1.5q-3.2-1.7.5-3.5zm-3 5 .5 1.5-1.5 2.5-.5-1.5zm-59 4 1.5.5-2.5 1.5q-1.5-1 1-2Zm-14 7 1.5.5-2.5 1.5q-1.5-1 1-2Zm-13 10 .5.5-2 2-.5 1.5-.5-1.5zm459 11 1.5 2.5h-1zm8 27 1.5 2.5h-1zm3 16 1.5 2.5q-1 1.5-2-1zm2 26 .5 4.5h-1zm-508 11 .5.5-2.5 2.5-.5-.5zm552 12 2.5 1.5-1.5-.5q-2.4-.1-1-1Zm-567 12 .5 1.5q-1 2.5-2 1zm597 16 2.5 3.5h-1l-2-3zm-569 70 4.5 3.5-1.5-.5-3.5-2.5zm587 0 2.5 2.5-.5.5-2.5-2.5zm-581 4 2.5 1.5-1.5.5q-2.5-1-1-2Zm141 24 2 3 1.5.5-1.5.5q-3.6-1.1-2-4Zm25 21 2.5 2.5-.5.5-2.5-2.5zm7 5 2.5 1.5-1.5.5q-2.5-1-1-2Zm10 21 1.5 4.5h-1q-1.7-1.7-.5-4.5Zm411 17 .5 1.5q-1 2.5-2 1zm-8 11 .5 1.5-4.5 4.5-.5-.5.5-1.5 1.5-.5.5-1.5 1.5-.5zm-371 14 2.5 1.5-1.5.5q-2.5-1-1-2Zm5 3 2.5 1.5-1.5-.5q-2.4-.1-1-1Zm338 3q1.5 1-1 2l-2.5-.5z" opacity=".008"/><path fill="#353533" stroke="#353533" d="M217.5 173q2.5 1 1 2l-2.5-.5zm4 3-.5 1.5 1 1q.6 4.1-1.5 5.5-2.5-1-1-2l1.5-.5-2-1zm-11 4v2l1.5.5-1 2 .5 1.5-2.5-4.5z"/><path fill="#656965" stroke="#656965" d="m465.5 60 3.5 2.5-1.5.5-2.5-2.5zm155 366 1.5.5-3.5 2.5-.5-.5z" opacity=".012"/></svg>