<svg xmlns="http://www.w3.org/2000/svg" viewBox="0 0 640 640"><path fill="#313131" stroke="#313131" d="m140.5 61 .5 1.5-4 7v2l1.5 1.5h7l19-8q3.3.8 4-1h6l.5 4.5-5.5 6.5L155 87.5l-3 5-2 10-1 1v9l1 2-12 18-16 30v2l-4 7v2l-7 15-8 24v3l-2 4v3l-1 1-3 15-1 1-1 9-1 1v5l-1 1v5l-1 1q1.3 4.7-1 6v7l-1 1v9l-1 1v12l-1 1v42l1 1v12l1 1v9l1 1 1 13 1 1 1 11 1 1v4l1 1 2 11-1.5 1.5h-3l-4 2q-4.2-.7-6 1l-3-1-5-4L62 392.5l-8-11-9-16v-2l-4-8-1-5-2-3-6-18q.8-3.2-1-4v-13l-1-1v-20l-1-1v-4l-1-1v-4l-1-1v-4l-1-1-1-7-2-4v-3l-3-9-1-13 1-1v-7l1-1v-4l2-5v-4l2-5v-4l1-1 3-15 3-9 2-3v-2l5-10 2-2 8-15 15-21 18-21L103.5 88l26-20zM104 183l-5 7v4h5l3-4v-5q0-2-3-2Z" opacity=".996"/><path fill="#818181" stroke="#818181" d="m306.5 0 5.5.5-31.5 9.5L255 21.5l4.5 3.5h8l1-1h7l1 1h25l12 4h11l6-3 19-6 4-4q2.3 3.2 7 4l2.5-1.5-1-3 7.5-4.5h7l15 5 3 2h2l14 7 5.5 4.5 1 5 5.5 5.5 27 16h2l9 4h5l5 2 .5-1.5q-3.8-3.7-5-10l3-2-3.5-4.5-3.5-2.5.5-1.5 9 3 10 5 .5-1.5-2-1-1-2 1.5.5 20 12 21 17 4 2 33.5 32.5 11 13 1.5 3.5 1.5.5 21 31 7 14 1 6 2 3 4.5 13.5 1.5-.5.5-2.5 1.5.5v2l3 5v2l6 13 5 15v3l2 4v9l4 12v3l3 5q-2 1 0 2l1 10 1 1v7l1 1v9l1 1v19l-1 1v21l-1 1v10l1 1v10l-1 1v7l-1 1v5l-1 1v5l-1 1-2 14-1 1-2 11-2 4v3l-7 21-2 3-1 5-7 14v2l-2 2-6 12v2l-12 20-20 28q-17.1 21.4-37.5 39.5l-13 11-28 20-15 9-20 10q-1.5-1 1-2l9-4 10.5-6.5-.5-1.5-21 12h-2l-5 3h-3l-.5-.5 2-2 2-5-11.5-.5-1 1h-11q-1 2-5 1l-12 6-7 1-1-1-9-1-6-3h-10l-3 2-5 1q-2-.5-1.5-3.5 2.5-3.5 7.5-4.5l4.5-4.5-.5-4.5-6-1-1 1-13 1-10-6q-4.5 1-5.5-1.5l1-4 10.5-12.5q1.8-1.7 6-1l3.5-2.5-9-7v-6l7-12 1-3v-5l-4-9v-7l7-6-1.5-2.5q-4.7.8-7 4h-2l-2.5-2.5-1-23-2-6-3.5-4.5-13-10q-2.5-2-8-1l-16 12h-11l-14 6-13 9-13 11q-3.2-.7-4 1h-9l-3.5 2.5v12l-4 9v5l1 1v4l1 1v3l2 6 7 12v5l-7 9-1 4 4.5 6.5 10-2 2.5 4.5v6l-1.5 2.5h-4l-6-5-4-1q-3.3 1.7-2.5 7.5l6 8v4l-2 2 .5.5 23 12h2l5 3 10 3 3 2 6 1 7 3h3l1 1h3l1 1 12.5 2.5-9.5.5-1-1h-16l-1-1h-10l-1-1h-6l-1-1h-5l-1-1h-5l-1-1-14-2-1-1-11-2-4-2h-3l-21-7-3-2-5-1-14-7h-2l-14-7-11.5-9.5.5-1.5 9 5 9 3h7l.5-2.5-2-4 2.5-1.5 12 4h8q1-3 6-2l8 7 14 5q1.5-1-1-2l-9-5-17-13-27.5-25.5-22-26-17-25-17-31v-2l-5-9v-2l-4-7-2-6h1l7 13 12.5 12.5 9 5h11l13-7 3-1h5l2.5 2.5 4 10 4.5 4.5q5.8.8 7.5-2.5 3.6-8.4 9.5-14.5l9-5h7l1 1h5l1 1 8 1 1 1 13 1 1-1 9-1 9-4 6-4 5.5-5.5 2-4v-16l-1-1v-13l1-1v-4l1-1 1-9 1-1v-12l-4-9-1-5-2-3v-2l-3-5v-2l-14-23v-9l6.5-7.5 13-7 6-2h29l6.5-4.5 2-5v-5q-1.8-.7-1-4l-8-15v-8q4.1-6.4 14.5-6.5l1 1h5l1 1h4l6 2h6l1 1h11l1-1h4l6-2 17-8h7l6.5 7.5 1 4 9 18 10.5 13.5 11 8 13 7 6.5 6.5 7 14 5.5 6.5q6.5 1 8.5-2.5l14-28 6.5-6.5 6-1 13 5 9.5 7.5 5 11 6 19 9 18 5.5 7.5 12 7 5.5 4.5 4.5 10.5 2 1q5.2-3.3 7.5-9.5-.7-3.2 1-4v-6l1-1v-6l1-1v-4l1-1v-3l2-6 3-6 11-14 4-7 2-6v-3l2-4v-3l1-1v-6L568.5 287l-11-6-8.5-8.5-30-45-12.5-13.5-6-3-14-2-7.5-6.5-6-13-4-13-5-10-11-16-2-6v-4l-1-1v-7l-8.5-9.5-13-7h-5l-4.5 7.5-4.5 4.5q-3.2 2.3-10 1l-1-1h-6l-1-1h-13l-6 3-12 11-8 5h-16l-1.5 1.5v20l1 1v5l1 1v4l2 6v13l-4 10-7.5 7.5-9 5-6 2h-8l-2.5-1.5-1-2v-11l-1-1v-19l3.5-4.5 13-1 7.5-3.5 2-3-13-15v-17l1-1v-9l-5-12v-18q-1.7-.7-1-4-3.2-7.7-9.5-12.5l-9-7-6-3h-8l-1 1h-8l-12-5h-9l-26 10-15 1-1 1-6 1-8 4q-11.8 13.7-27 24l-6 2h-8l-2.5-1.5v-2l17-22L194.5 63l14-12 19-14L253 22.5l-2.5-.5-9 3h-4l-6 2h-5l-20 8-10 1-1 1h-4l-9 3-8 1-.5-5.5L200.5 23l5-1 3-2 24-8h3l1-1h3l9-3 9-1 1-1h4l1-1 11-1 1-1 17-1 1-1h12zM573 196l-2 1q-7 4-10 12v8l1 1v4l2 5v3l2 4v3l6 14 5 7 9 6h8l3-1 4-5 2-6v-3l2-4v-3l1-1v-13l-1-1v-3l-2-6-4-8-6-7-9-6-3-1zm-29 28-2 2q1 5 5 8h3v-3l-2-4q0-3-4-3ZM423 346l-5 6v6l4 3h3q3-3 5-7 1-5-1-6-1-3-6-2Zm17 40-5 6v9l9 15 9 7 4-1 4-6v-10l-7-14-5-6zm57 5-2 1q-5 3-7 9v12l3 6q2 3 10 2l4-5q-1-5 1-6l-1-11-2-4q-2-4-6-4Zm-43 55-6 3-7 8 1 4q4 1 7-1l7-7 1-5q0-3-3-2Zm89 19-9 4-3 3-4 8-1 5-6 12-1 6-1 1v6l-4 8v3h3l14-7 7-1 6-4 14-15 7-14 3-9-7-1-10-5zm29 19-5 7h2l4-6zm-186 45-4 4q0 4 3 4l4-1 1-2-1-4zm93 7-10 7-12 13q-1 4 2 5h6l3-1 10-6 9-9 2-5-1-2-1-2z" opacity=".996"/><path fill="#818181" stroke="#818181" d="M182.5 232h24l1 1h9l1 1 12 1 13 5 4.5 4.5 1 3v6l-3 7-7.5 8.5-18 15-8.5 8.5-6.5 11.5-5 1-8-4-7.5-6.5-5-8v-2l-3-5v-2l-2-3-4-12q.8-3.2-1-4v-11l3-8 5.5-5.5zm-56 33q7.3-1.2 8.5 3.5l2 5v7l-1 3-3.5 3.5q-2.2 1.8-7 1l-3.5-2.5-2-4v-10l4.5-5.5zm-118 11 .5 5.5-2.5 4.5-.5-6.5zm100 129h8l2.5 2.5v5l-4 6-4 10q.7 3.3-1 4v11l1 1 1 6h-1l-8-24v-3l-2-4-2-10-1-1 1.5-1.5 8-1zm-62 29h4l4 2 6.5 5.5 6 10q-.7 3.3 1 4v11q-.5 3-4.5 2.5-6.8-2.7-10.5-8.5l-7-12-1-6-1-1v-4zm-21 9 1.5.5 3 9 3 5v2l7 13q-1 1.5-2-1l-9-18v-2l-3-5zm41 71 2.5 2.5-.5.5-2.5-2.5zm4 5 2.5 2.5-.5.5-2.5-2.5zm4 5 3.5 3.5-.5.5-3.5-3.5zm9 10 3.5 3.5-.5.5-3.5-3.5zm20 20 2.5 2.5-.5.5-2.5-2.5zm215 41h3l4.5 3.5-1.5 2.5q-2.2 1.8-7 1l-2.5-1.5q-.7-3.7 1.5-4.5z" opacity=".996"/><path fill="#f9f9f9" stroke="#f9f9f9" d="m362.5 0 2.5.5-2.5.5zm13 2 4.5 1.5-2.5.5-2.5-1.5zm13 3 3.5.5-3.5.5zm67 22 8.5 4.5-1.5.5-6-3q-2.5-1-1-2Zm10 5 4.5 2.5-1.5.5-3.5-2.5zm-364 51-.5 1.5 1 1-1.5 1.5.5-1.5-1-1zm437 0 1.5 1.5-1 1 .5 1.5-1.5-1.5 1-1zm14 14 1.5 1.5-1 1 .5 1.5-1.5-1.5 1-1zm-465 2 .5.5-2.5 2.5-.5-.5zm468 1 2.5 2.5-.5.5-2.5-2.5zm44 61 1.5 2.5h-1zm24 55 2.5 1.5-1.5-.5q-2.4-.1-1-1Zm1 3 2.5 1.5-1.5-.5q-2.4-.1-1-1Zm15 143 .5 2.5h-1zm-2 14q1.5 1-1 2l-1.5-.5zm-2 10q1.5 1-1 2l-1.5-.5zm-9 33q1.5 1-1 2l-1.5-.5zm-21 46 2.5.5-2.5.5zm-48 72 .5.5-2.5 2.5-.5-.5zm-16 14 .5.5-2.5 2.5-.5-.5zm-141 80 3.5.5-4.5 1.5q-1.5-1 1-2Z" opacity=".016"/><path fill="#6f6f6f" stroke="#6f6f6f" d="m171.5 36 1.5.5-2.5 1.5q-1.5-1 1-2Zm-48 31 .5.5-2.5 2.5-.5-.5zm-5 4 .5.5-2.5 2.5-.5-.5zm-6 5 .5.5-3.5 3.5-.5-.5zm-7 6 .5.5L82.5 106l-.5-.5zm-26 27 .5.5-3.5 3.5-.5-.5zm-6 7 .5.5-2.5 2.5-.5-.5zm-4 5 .5.5-2.5 2.5-.5-.5zm-9 12 .5.5-2.5 2.5-.5-.5zm-29 48 .5 1.5-2.5 4.5-.5-1.5zm-20 53 .5 2.5h-1zm-4 16 .5 2.5H7zm-1 5 .5 2.5H6zm-1 5 .5 2.5H5zm-1 5 .5 3.5H4zm-1 6 .5 4.5H3zm-1 7 .5 3.5H2zm-1 9 .5 5.5H1zm-1 10 .5 12.5H0zm0 32 .5 12.5H0zm639 5 .5 7.5h-1zm-638 12 .5 6.5H1zm1 10 .5 4.5H2zm1 8 .5 3.5H3zm1 7 .5 2.5H4zm1 6 .5 2.5H5zm1 5 .5 2.5H6zm2 9 .5 2.5H8zm50 113 2.5 2.5-.5.5-2.5-2.5zm9 12 2.5 2.5-.5.5-2.5-2.5zm4 5 2.5 2.5-.5.5-2.5-2.5zm5 6 4.5 4.5-.5.5-4.5-4.5zm7 8 21.5 21.5-.5.5L83 535.5zm25 24 5.5 5.5-.5.5-5.5-5.5zm7 6 4.5 4.5-.5.5-4.5-4.5zm6 5 2.5 2.5-.5.5-2.5-2.5zm4 3 2.5 2.5-.5.5-2.5-2.5zm34 23 3.5 2.5-1.5-.5q-3.8-.7-2-2Zm142 43 8.5.5-8.5.5z" opacity=".624"/><path fill="#b9b9b9" stroke="#b9b9b9" d="m340.5 0 4.5.5-4.5.5zm18 0 2.5.5-2.5.5zm-74 1 2.5.5-2.5.5zm69 0 2.5.5-2.5.5zm-84 2 2.5.5-2.5.5zm123 3q1.5 1-1 2l-1.5-.5zm12 3q1.5 1-1 2l-1.5-.5zm7 2 1.5.5-3.5 1.5v-1zm118 66 1 1 1.5-.5-1 1 .5 1.5-2.5-2.5zm-430 10 .5.5-2.5 2.5-.5-.5zm441 0q1 2 2 0l9.5 9.5-1 1 .5 1.5L540 87.5zm-447 4 .5.5-3.5 3.5-.5-.5zm-5 5 1 1 1.5-.5-2.5 2.5-.5-.5 1-1zm470 10 2.5 2.5-.5.5-2.5-2.5zm7 8 1 1 1.5-.5-1.5 1.5q-2.5-1-1-2Zm8 10 1 1 1.5-.5-1.5 1.5q-2.5-1-1-2Zm17 21 1.5 2.5q-1 2.5-2 1 2-1 0-2zm4 7q2.5 1 1 2l-1-1-1.5.5zm3 5q2.5 1 1 2l-1-1-1.5.5zm4 7q2.5 1 1 2l-1-1-1.5.5zm10 19-.5 1.5-.5 1.5-.5-1.5zm26 93 .5 2.5h-1zm1 8 .5 3.5h-1zm0 69 .5 2.5h-1zm-22 88 1.5 2.5h-1zm-3 7 1.5 2.5h-1zm-17 33 1 1 1.5-.5-1.5 1.5q-2.5-1-1-2Zm-3 5 1 1 1.5-.5-1.5 1.5q-2.5-1-1-2Zm-3 5q2.8 1.2.5 2.5l-.5 1.5-.5-1.5 1-1zm-16 23q2.5 1 1 2l-1-1-1.5.5zm-8 10q2.5 1 1 2l-1-1-2 2-.5-.5zm-5 6 .5.5-3.5 3.5-.5-.5zm-10 11-.5 1.5 1 1-8.5 8.5-1.5-1.5zm-461 4 2.5 2.5-.5.5-2.5-2.5zm443 13 .5.5-2.5 2.5-.5-.5zm-22 18q2.5 1 1 2l-1-1-1.5.5zm-109 53 2.5 1.5-1.5-.5q-2.4-.1-1-1Zm-8 2 2.5 1.5-1.5-.5q-2.4-.1-1-1Zm-4 1 2.5 1.5-1.5-.5q-2.4-.1-1-1Zm-22 4 2.5.5-2.5.5zm-7 1 2.5.5-2.5.5zm-8 1 2.5.5-2.5.5zm-14 1 6.5.5-6.5.5zm19 0 3.5.5-3.5.5z" opacity=".098"/><path fill="#bfbfbf" stroke="#bfbfbf" d="m336.5 0 3.5.5-3.5.5zm11 1 5.5.5-5.5.5zm10 1 4.5.5-4.5.5zm8 1 3.5.5-3.5.5zm6 1 3.5.5-3.5.5zm6 1 2.5.5-2.5.5zm5 1 2.5.5-2.5.5zm5 1 2.5.5-2.5.5zm50 15 3.5 1.5-1.5.5-2.5-1.5zm118 81 2.5 2.5-.5.5-2.5-2.5zm45 63 2.5 3.5q-1 1.5-2-1zm-43 368 .5.5-2.5 2.5-.5-.5zm-21 21 .5.5-2.5 2.5-.5-.5zm-149 77 2.5.5-2.5.5zm-5 1 2.5.5-2.5.5zm-5 1 2.5.5-2.5.5zm-6 1 3.5.5-3.5.5zm-6 1 2.5.5-2.5.5zm-8 1 3.5.5-3.5.5zm-11 1 6.5.5-6.5.5zm-13 1 5.5.5-5.5.5z" opacity=".545"/><path fill="#494949" stroke="#494949" d="m250.5 22 2.5.5L227.5 37l-19 14Q191 65 176 81.5l-16 19-9 12-.5 2.5q-3-3-1.5-10.5l5-15 6.5-7.5L173 71.5l3-6-1.5-1.5h-7l-23 9h-6q-2-.5-1.5-3.5l3-4 1-4-1.5-.5-35 26L80 111.5 60.5 135l-.5-.5 2-2 4.5-7.5 2.5-1.5 2.5-4.5 1.5-.5 2-4 7.5-8.5 1.5-.5L103.5 85l2.5-1.5.5-1.5 7.5-5.5.5-1.5 34-25 25-14 1 5 8-1 1-1h3l5-2h4l1-1 10-1 20-8h5l1-1 9-1zm0 51 9.5.5-9.5.5z" opacity=".996"/><path fill="#494949" stroke="#494949" d="m261.5 74 1.5.5-2 1 2.5.5 1.5-.5-.5 1.5 3-1v1l-1.5.5 2.5.5 2-1v1l-1.5.5 2.5.5q1.3-2.3 6-1v1l-5.5.5 6.5.5 4.5-1.5-3-1 2.5-.5q1 2 5 1l1.5-.5-.5 1.5 2-1v2l2-1v2l2-1 1.5 1.5q-2.2 1.3.5 2.5l2-1 1.5 1.5q-2.2 1.3.5 2.5l2 1 1-1 5.5 5.5-1 2 1.5-.5 1.5 1.5-1 2h2l-1 3h1l.5-1.5.5 1.5-1 1v18l2.5 6.5 1.5-.5-1 3 2 4v14l-1 1v13l2.5 3.5 1-1 7.5 7.5-1 1 2.5 2.5 1.5-.5-2 4 .5 1.5-2-1v2l-2-1v2q-1.3-2.3-6-1v1l3.5.5-3.5.5-1-1h-8v1l4.5.5-4.5.5-2-1 .5 1.5-2 2-.5 1.5-1-2-.5 32.5h1l.5-10.5.5 10.5-1 2h2l-1 2 1.5.5 1.5-.5-.5 1.5q2.5-2 8-1l3 1v-1l-1.5-.5 1.5-.5 3 1v-1l-1.5-.5 1.5-.5 2 1v-2l2 1v-2l2 1v-2l2 1-.5-1.5 1.5-1.5 2 1-.5-1.5 6.5-6.5 1.5.5-1-2h2l-1-2h2l-1-2h2l-1-4h1l.5 1.5.5-3.5-1-1v-8h1l.5 8.5.5-9.5-1-1-.5-4.5-1 3-.5-2.5q2-1 1-5l-1-1q1.3-4.7-1-6v-9l-1-1v-10l-1-2h1l.5 1.5 1-2 3 1h10v-1l-9.5-.5 9.5-.5 3 1v-2l2 1v-2l2 1 1.5-1.5q-2.2-1.2.5-2.5l2 1 2.5-2.5-1-1 5.5-5.5 2 1 1.5-1.5q-2.2-1.2.5-2.5l2 1-.5-1.5 1.5-1.5 4 1v-1l-1.5-.5 1.5-.5 1 1h6l1 1h6l1 1h15q2.7-1.2.5-2.5l3.5-3.5 1.5.5-1-2h2l-1-2 1.5-1.5 1.5.5-1-2 2.5-1.5v1l-1.5.5 6.5.5 1.5-.5-.5 1.5 2-1v2l2-1v2l2-1v2l2-1 1.5 1.5-.5 1.5 2-1q2.8 1.3.5 2.5l5.5 5.5 1.5-.5q-2 1-1 5l1 1v7l1.5 3.5 1-2 .5 1.5-1 3h1l.5-1.5.5 1.5-1 2h2l-1 2 1.5-.5 1.5 1.5-1 2 1.5-.5 1.5 1.5h-2l1.5 2.5q1.3-2.2 2.5.5l-1 2 1.5-.5 1.5 1.5-1 2 1.5-.5 1.5 1.5-1 2h2l-1 2h2l-1 2h2l-1 2h2l-1 3 1.5 2.5 1.5-.5-1 3h1l.5-1.5.5 1.5-1 3h1l.5-1.5.5 1.5-1 3 1.5 2.5 1.5-.5-1 3h1l.5-1.5.5 1.5-1 2h2l-1 2h2l-1 2h2l-1 2h2l-1 2q1.3 2.8 2.5.5l2.5 2.5q-2.2 1.3.5 2.5l2-1v2q1.8 1.7 6 1l1 1 9 1 2-1v1l-1.5.5 3.5 1.5 1-1 8.5 8.5-1 2 2.5 2.5q1.3-2.2 2.5.5l-1 2 1.5-.5 1.5 1.5-1 2 1.5-.5 1.5 1.5-1 2 1.5-.5 1.5 1.5-1 2 1.5-.5 1.5 1.5-1 2 1.5-.5 1.5 1.5-1 2 1.5 1.5q1.3-2.2 2.5.5l-1 2 1.5-.5 1.5 1.5-1 2 1.5 1.5q1.3-2.3 2.5.5l-1 2 1.5-.5 1.5 1.5-1 2 1.5-.5 1.5 1.5-1 2 1.5-.5 1.5 1.5-1 2 1.5-.5 1.5 1.5-1 2h2l-1 2 1.5 1.5q1.3-2.2 2.5.5l-1 2 1.5-.5 7.5 7.5-.5 1.5 2-1 1.5 1.5-.5 1.5 2-1-.5 1.5 1.5 1.5 1.5-.5-.5-1.5 1.5 1.5-.5 1.5 2-1v2l2-1 1.5 1.5-.5 1.5 2-1 1.5 1.5-.5 1.5 2-1 1.5 1.5-.5 1.5 2-1 1.5 1.5q-2.2 1.2.5 2.5l2-1 1.5 1.5-.5 1.5 2-1 1.5 1.5-.5 1.5 2-1-.5 1.5 1.5 1.5 2-1-.5 1.5 1.5 1.5 2-1-.5 1.5 1.5 1.5 2-1 1.5 1.5-.5 1.5 2-1 1.5 1.5q-2.2 1.3.5 2.5l2-1 1.5 1.5-.5 1.5 2-1-.5 1.5 3 3q-1.7 1.8-1 6l1 2h-1l-.5-1.5-1.5 3.5v3l1 2h-1l-.5-1.5-.5 2.5 1 2h-1l-.5-1.5-.5 2.5 1 2h-1l-.5-1.5-.5 2.5.5 1.5-1.5-.5 1 2-1.5-.5-1.5 1.5 1 2-1.5 1.5q-1.2-2.2-2.5.5l1 2-2.5 2.5q-1.2-2.2-2.5.5l1 2-1.5 1.5-1.5-.5 1 2-1.5 1.5-1.5-.5 1 2h-2l1 2h-2l1 2h-2l1 3h-1l-.5-1.5-.5 2.5 1 2h-1l-.5-1.5-1.5 3.5v4l1 3h-1l-.5-2.5-.5 5.5q1.8.8 1 4h-1l-.5-3.5-.5 6.5q1.8.8 1 4h-1l-.5-3.5-1.5 8.5.5 1.5-1.5-.5 1 2q-1.2 2.8-2.5.5l-2.5 2.5q2.3 1.3-.5 2.5v-2l-2 1 .5-1.5-.5-1.5-1.5.5 1-3h-2l1-3h-1l-.5 1.5-1.5-2.5 1-2-3.5-2.5q-1.2 2.3-2.5-.5l.5-1.5-2 1 .5-1.5-1.5-1.5-1.5.5.5 1.5-1.5-1.5.5-1.5-2 1v-2l-2 1-1.5-1.5q2.3-1.2-.5-2.5l-2 1 .5-1.5-1.5-2.5q-1.2 2.3-2.5-.5l1-2-1.5.5-1.5-1.5 1-2h-2l1-2h-2l1-2h-2l1-2h-2l1-2h-2l1-2h-2l1-2h-2l1-3-1.5-2.5-1 2-.5-1.5 1-2h-2l1-3h-1l-.5 1.5-.5-1.5 1-3h-1l-.5 1.5-.5-1.5 1-3h-1l-.5 1.5-.5-1.5 1-3h-1l-.5 1.5-.5-1.5 1-3-1.5-2.5-1.5.5 1-3h-1l-.5 1.5-.5-1.5 1-3-1.5-2.5-1 2-1.5-2.5 1-2-4.5-3.5q-1.2 2.3-2.5-.5l.5-1.5-2 1-1.5-1.5.5-1.5-2 1v-2l-2 1v-2l-2 1v-2l-3 1v-1l1.5-.5-2.5-.5-3 1v-1l2.5-.5-8.5-.5v1l1.5.5-1.5.5-2-1 .5 1.5-5.5 5.5-1.5-.5 1 2h-2l1 2-1.5 2.5-1-2-1.5 4.5.5 1.5-1.5-.5 1 2h-2l1 2h-2l1 2h-2l1 2h-2l1 2h-2l1 2h-2l1 2h-2l1 2-1.5 1.5-1.5-.5 1 2q-1.3 2.8-2.5.5l-6.5.5 6 1-5.5.5-3.5-3.5 1-1-.5-1.5q-1.2 2.3-2.5-.5l1-2h-2l1-2h-2l1-2h-2l1-2h-2l1-2h-2l1-2-1.5.5-1.5-1.5 1-2-1.5.5-4.5-4.5q2.3-1.2-.5-2.5l-2 1 .5-1.5-1.5-1.5-2 1v-2l-2 1-1.5-1.5.5-1.5-2 1v-2l-2 1v-2l-2 1-1.5-1.5.5-1.5-2 1-1.5-1.5.5-1.5-2 1-2.5-2.5q2.3-1.2-.5-2.5l-2 1-2.5-2.5q2-1 0-2l-1.5-2.5q-1.2 2.3-2.5-.5l1-2-1.5-1.5-1.5.5 1-2-1.5.5-1.5-1.5 1-2h-2l1-2h-2l1-2h-2l1-2h-2l1-2h-2l1-2h-2l1-3-1.5-2.5-1 2-1.5-3.5 1-2h-2l1-2-1.5.5-1.5-1.5h2l-1.5-2.5-1 1-3.5-3.5.5-1.5q-2.2-1.8-7-1v1l4.5.5-4.5.5-3-1v1l1.5.5-1.5.5-2-1v2l-3-1-2.5 1.5 2 1-3.5 1.5-2-1v2l-2-1v2l-3-1v1l1.5.5-1.5.5-3-1v1l1.5.5-1.5.5q-.7-1.7-4-1l-1 1h-16q-.7 1.8-4 1v-1l3.5-.5-5.5-.5-3 1v-1l2.5-.5-4.5-.5-3 1v-1l2.5-.5-4.5-.5-1-1h-11l-2.5 1.5 2 1-2.5 1.5-2-1-3.5 4.5q2.2 1.3 1 6h-1l-.5-5.5-.5 6.5 1.5 2.5 1.5-.5-1 2h2l-1 2h2l-1 2h2l-1 2h2l-1 2h2l-1 2h2l-1 3h1l.5-1.5.5 1.5-1 1v8l-1 3 1 1-2.5 2.5-2-1v2l-1-1h-28v1l27.5.5-27.5.5q-.7-1.7-4-1v1l1.5.5-1.5.5-3-1v1l1.5.5-1.5.5-2-1v2l-3-1-2.5 1.5 2 1-2.5 1.5v-2l-2.5 1.5.5 1.5-2-1 .5 1.5-1.5 1.5-2-1 .5 1.5-3.5 3.5q-1.2-2.2-2.5.5l1 2h-2q2.2 2.8 1 9l-1 3h1l.5-1.5 1.5 2.5h-2l1.5 2.5 1.5-.5-1 2 1.5-.5 1.5 1.5-1 2 1.5-.5 1.5 1.5h-2l1.5 2.5q1.3-2.2 2.5.5h-2l1.5 2.5 1.5-.5-1 2 1.5-.5 1.5 1.5h-2l3.5 7.5 1.5-.5-1 2h2l-1 3h1l.5-1.5.5 1.5-1 2h2l-1 3h1l.5-1.5.5 1.5-1 3 1.5 2.5 1.5-.5-1 3h1l.5-1.5.5 1.5-1 3h1l.5-1.5.5 1.5-1 1v16l1 3h-1l-.5-2.5-1.5 4.5v4l1 3h-1l-.5-2.5-.5 7.5-1 2 1 1v24l1 1h-2l1 2-5.5 5.5-1-1-2.5 1.5.5 1.5-2-1-1.5 1.5.5 1.5-2-1v2l-3-1-2.5 1.5 2 1-1.5.5-3-1v1l1.5.5-1.5.5q-1-2-5-1v1l2.5.5-2.5.5-1-1h-12q-.8 1.8-4 1v-1l3.5-.5-5.5-.5-3 1v-1l2.5-.5-4.5-.5-2 1v-1l1.5-.5-3.5-.5q-.7 1.8-4 1v-1l3.5-.5-13.5-.5v1l1.5.5-1.5.5-2-1v2l-2-1 .5 1.5-2.5 2.5-2-1-1.5 2.5 1 1-2.5 2.5-1.5-.5 1 2-1.5 1.5-1.5-.5 1 2h-2l1 2-1.5-.5-1.5 1.5 1 2q-1.2 2.7-2.5.5l-1.5.5.5 1.5-3-1-1.5.5 1-1-2.5-2.5q-1.2 2.3-2.5-.5l1-3-1.5-2.5-1.5.5 1-3-1.5-1.5-1.5.5 1-2h-2q2.3-1.2-.5-2.5l-5 1-3-1v1l1.5.5-1.5.5-2-1v2l-2-1v2l-2-1v2l-2-1v2l-2-1v2l-2-1v2l-3-1v1l1.5.5-1.5.5-1-1h-6q-.7-1.7-4-1l-1.5.5.5-1.5-2 1v-2l-2 1-1.5-1.5.5-1.5-2 1-12.5-12.5 1-1-.5-1.5q-1.2 2.3-2.5-.5l1-2-1.5-1.5-1.5.5 1-2h-2l1-2q-1-1.5-2 1v2l14 30 2 2 4 9 12 18 1 3 23 30 20.5 21.5 21 18 12 9 12.5 7.5-1.5.5-3-2-12-4-8-7h-4l-2 2h-8l-1-1h-3l-9-3-1.5 2.5 2 3v2l-7.5.5-9-3-9-5-.5 1.5 7 6-1.5-.5-28.5-17.5-.5-1.5-3-1q-3.2-4.3-8.5-6.5l-.5-1.5-4.5-2.5-.5-1.5-4.5-2.5-1.5-2.5-6.5-4.5-2.5-3.5L87 538.5l-3.5-4.5-1.5-.5-20-25-16-24-13-25v-2l-3-5q-.5-6-3.5-9.5l-2.5-1.5-1-5-4-8-5-15v-3l-5-15v-4l-2-5-1-9-1-1-1-12-1-1v-7l-1-1v-9l-1-1-1-35 1-1v-16l1-1v-10l1-1 2-18 1-1v-4l1-1v-4l1-1v-4l1-1 1-7 2-4 1-7 7-21 2-3 4-12 6.5-12.5.5 1.5-2 3-1 6-2 4v3l-2 5v4l-3 9v4l-2 5-1 11-1 1v9l1 1v6q1.8.8 1 4l3 8v3l3 9v4l2 5q-1.2 4.8 1 6v24l1 1v9l2 4v3l3 9 2 3 6 18 11 20 5 7L77.5 408l5 3h3l1-1h4l8-3-.5 1.5 1 1v3l2 4 2 10 7.5 21.5 1.5-2.5v-15l-1-2h1l.5 1.5.5-2.5-1-2h1l.5 1.5.5-2.5-1-2 1.5-2.5 1 2 1.5-3.5h-2l1.5-1.5 1.5.5-1-2h2l-1-2h2l-1-5h1l.5 3.5.5-4.5-1.5-1.5q-1.2 2.3-2.5-.5l.5-1.5q-1.8 1.7-6 1-1.2-2.2-6-1v1l2.5.5-2.5.5q-1-2-5-1v1l2.5.5-2.5.5-2.5-1.5-1-8-1-1v-4l-1-1v-4l-1-1-1-11-1-1-1-15-1-1v-10l-1-1v-18l-1-1v-18l1-1v-19l1-1v-9l1-1 1-15 1-1v-5l1-1 1-11 1-1 1-8 2-5v-4l2-4v-3l3-8v-3l5-15 2-3 1-5 2-3 1-5 7-14v-2l13-25 14.5-22.5 3-1v2l7 1v-1l-2.5-.5 2.5-.5q1 2 5 1l2.5-1.5-2-1 1.5-.5 2 1-.5-1.5 1.5-1.5 2 1-.5-1.5 1.5-1.5 2 1q2.8-1.2.5-2.5l4.5-4.5 2 1L192 94.5l-1-1 3.5-3.5 2 1v-2l2 1v-2l2 1v-2l3 1v-1l-1.5-.5 1.5-.5 3 1v-1l-1.5-.5 1.5-.5q1 2 5 1v-1l-2.5-.5 2.5-.5 1 1h11l3.5-1.5-2-1 1.5-.5 3 1v-1l-1.5-.5 1.5-.5 3 1v-1l-1.5-.5 1.5-.5 2 1v-2l3 1v-1l-1.5-.5 1.5-.5 2 1v-2l3 1v-1l-1.5-.5 1.5-.5 2 1v-2q.8 1.8 4 1l1-1h11zM311 223v1h6zm-125 7-1 1-5 1h2v1l-3-1v2l-2-1q-3 1-1 3l-2 2q-2-2-3 1l1 2-1-1-2 2 1 3v2l-1-2h-1q-1 4 1 6v4l-1-4h-1v5l1 1 1 5v-2h1l-1 3 1 2v-1h1l-1 2 1 2v-1h1l-1 2 1 2v-1h1l-1 2 1 4 2-1-1 2 1 2v-1h1l-1 3 2-1-1 2 2 4v-1h1l-1 3h2l-1 2h2l-1 2 2-1 2 3-1 2 4 2q1 2 2 0l2 3v1l2-1 1 2v1l2-1 1 1-2 1 3 1h7l2-2-1-2h2l-1-2h2l-1-2h2l1-2h-2q1-3 3-1v-1l-1-1 9-9 2 1q2-1 0-2l5-5 2 1 2-2-1-1 7-7 1 1 3-2-1-2 4-4q1 2 2 0l-1-2h2l-1-2h2l-1-2 1-2 1 2 1-3v-5l-1 4h-1q-1-4 1-4v-3l-1 2h-1l1-3h-1l-4-3 1-2-2 1v-2l-2 1v-2l-2 1v-2l-2 1h-2l2-1v-1q-4-1-4 1h-2l2-1-4-2h-5l-1-1h-7l-1-1h-11l-1-1zm-58 33v1h3zm-2 1v2l-1-1-4 3 1 2q-1 2-2 0l-2 3 1 8v-7h1v7l-1 1 1 2 1-2 1 3h-2l3 3 2-1-1 2 2 1h4l-3-1v-1l5 1v-2l2 1-1-1q1-3 3-1l1-1-1-2 1-2v2h1l-1-3 1-5v5h1v-5l-1-4-1 2h-1l1-3h-2l1-2h-1q-3-1-1-2l-1-2-2 1zM9 276l-3 4 1 6 2-4zm248 64-1 8h1zm-145 63v1h4zm-65 31-3 4v4l1 1 1 6 7 12q4 5 11 8 3 1 4-2v-11q-2-1-1-4l-6-10-6-6-4-2zm66 12-2 5q1 1 2-1zm2 6-2 4q1 1 2-1zm55 21v1h3z" opacity=".996"/><path fill="#494949" stroke="#494949" d="m218.5 83 4.5.5-4.5.5zm95 20 .5 15.5h-1zm113 13 2.5.5-2.5.5zm-33 11 3.5.5-3.5.5zm7 1 3.5.5-3.5.5zm49 4 .5 2.5h-1zm-131 1 .5 9.5h-1zm-259 3 .5.5-2.5 2.5-.5-.5zm391 4 .5 2.5h-1zm-133 8 .5 11.5h-1zm-271 7-.5 1.5-1.5 2.5.5-1.5zm-3 5-.5 1.5-1.5 2.5.5-1.5zm297 1 .5 6.5h-1zm-303 10-.5 1.5-2.5 5.5-.5-1.5zm304 0 .5 2.5h-1zm-238 12q3-.5 3.5 1.5 1 6.5-2.5 8.5l-4 1q-2-.5-1.5-3.5l2-5zm469 13 9 2 2-1 1.5 1.5-.5 1.5 2-1-.5 1.5 1.5 1.5 1.5-.5-.5-1.5 1.5 1.5q-2.2 1.3.5 2.5l2-1 6.5 6.5-1 1 .5 1.5 1.5-.5-1 2h2l-1 2h2l-1 3h1l.5-1.5.5 1.5-1 3h1l.5-1.5.5 1.5-1 3h1l.5-1.5.5 1.5q-2.2 1.2-1 6l1 1v6l1 3h-1l-.5-2.5-1.5 7.5 1 2h-1l-.5-1.5-.5 3.5 1 2h-1l-.5-1.5-.5 2.5 1 2h-1l-.5-1.5-.5 2.5 1 2h-1l-.5-1.5-.5 2.5 1 1-3.5 3.5v-2l-2 1h-10l-1 1 .5-1.5-1.5-1.5-2 1-3.5-3.5 1-1-1.5-2.5q-1.2 2.3-2.5-.5l1-2-1.5.5-1.5-1.5h2l-3.5-7.5-1 2-.5-1.5 1-2h-2l1-3h-1l-.5 1.5-.5-1.5 1-3h-1l-.5 1.5-.5-1.5q1.8-.7 1-4h-1l-.5 1.5-.5-1.5q1.8-.7 1-4l-1-1-1.5-7.5-1 3-.5-2.5 1-1v-11l-.5-1.5 1.5.5-1-2 7.5-7.5.5.5-.5 1.5 3.5-1.5-2-1zm-11 12 .5 8.5h-1zm-68 2 2.5.5-2.5.5z" opacity=".996"/><path fill="#494949" stroke="#494949" d="m605.5 227 .5 2.5h-1zm-419 4 13.5.5-13.5.5zm21 1 5.5.5-5.5.5zm10 1 3.5.5-3.5.5zm7 1 2.5.5-2.5.5zm404 6 1.5.5-1.5 2.5zm2 4-.5 1.5-.5 1.5-.5-1.5zm1 4-.5 1.5-.5 1.5-.5-1.5zm0 4q2.5 1 1 2l-1.5-.5zm1 3 1.5 4.5h-1q-1.7-1.7-.5-4.5Zm-47 8 8.5.5-8.5.5zm-258 12 2.5.5-2.5.5zm23 4 11.5.5-11.5.5zm-30 29 .5 5.5h-1zm319 1 .5 24.5h-1v-11l-1-1v-8zm-2 26 .5 10.5 1 1q-1 1.5-2-1zm-141 56 2.5.5-2.5.5zm-2 1q1 2 5 1l1-1 2.5 2.5-1 2h2q-2 1-1 5l1 1v10q-1.7.8-1 4l1 1-3.5 3.5v-2l-4 1-3-1q-1.3 2.3-2.5-.5l1-2-2.5-5.5-1 2-.5-1.5 1-1v-8l-1-2h1l.5 1.5.5-2.5-.5-1.5 1.5.5-1-2q1.3-2.7 2.5-.5l2.5-2.5zm-213 5 .5 12.5h-1zm223 1 .5 2.5h-1zm1 7 .5 4.5h-1zm-395 27 .5 11.5h-1zm168 7 .5 9.5h-1zm0 12 .5 4.5h-1zm-37 23 5.5.5-5.5.5z" opacity=".996"/><path fill="#9b9b9b" stroke="#9b9b9b" d="m302.5 0 3.5.5-3.5.5zm-14 1 4.5.5-4.5.5zm-9 1 3.5.5-3.5.5zm-7 1 2.5.5-2.5.5zm-7 1 3.5.5-3.5.5zm-5 1 2.5.5-2.5.5zm-5 1 2.5.5-2.5.5zm-5 1 2.5.5-2.5.5zm272 65 2.5 2.5-.5.5-2.5-2.5zm5 4 4.5 4.5-.5.5-4.5-4.5zm6 5 21.5 21.5-.5.5L533 81.5zm26 27 3.5 3.5-.5.5-3.5-3.5zm6 7 2.5 2.5-.5.5-2.5-2.5zm8 10 2.5 2.5-.5.5-2.5-2.5zm64 155 .5 2.5h-1zm1 8 .5 4.5h-1zm1 14 .5 4.5h-1zm-1 46 .5 3.5h-1zm-1 9 .5 3.5h-1zm-1 8 .5 2.5h-1zm-1 6 .5 2.5h-1zm-1 6 .5 2.5h-1zm-25 79-.5 1.5-6.5 13.5-.5-1.5zm-11 21-.5 1.5-1.5 2.5.5-1.5zm-3 5-.5 1.5-1.5 2.5.5-1.5zm-17 26 .5.5-2.5 2.5-.5-.5zm-3 4 .5.5-2.5 2.5-.5-.5zm-8 10 .5.5-2.5 2.5-.5-.5zm-5 6 .5.5-3.5 3.5-.5-.5zm-8 9 .5.5-17.5 17.5-.5-.5zm-23 22 .5.5-3.5 3.5-.5-.5zm-7 6 .5.5-2.5 2.5-.5-.5zm-274 67 2.5.5-2.5.5zm5 1 2.5.5-2.5.5zm5 1 2.5.5-2.5.5zm6 1 2.5.5-2.5.5zm13 2 2.5.5-2.5.5zm10 1 3.5.5-3.5.5z" opacity=".675"/><path fill="#b3b3b3" stroke="#b3b3b3" d="M314.5 0h18l1 1h13l1 1h9l1 1h7l1 1 11 1 1 1h4l1 1h4l1 1h4l1 1 11 2 4 2h3l21 7 3 2 12 4L479 42.5l1.5 3.5 1.5.5-.5 1.5-10-5-9-3-.5 1.5 7 6-.5 1.5-2.5 1.5v2l5 9-1.5-.5-9-1-19-8-19-12-5.5-5.5-1-5-2.5-2.5-22-11-15-5h-7l-7.5 4.5 1 3-3.5 1.5-6-4-4 4-19 6-6 3h-11l-12-4h-25l-1-1h-7l-1 1h-8l-4.5-3.5L280.5 10l18-6h3l1-1h3zm204 69 3.5 3.5-.5.5-3.5-3.5zm78 91 6.5 10.5 9 18-2 1-.5 2.5-1.5-.5-4-13-2-3-1-6-5-9zm-53 64q4-.5 4.5 2.5l2 4v3l-3.5.5q-3.9-2.6-4.5-8.5zm-121 122q5.3-1.2 6.5 1.5 1.7 1.8 1 6-1.7 4.8-5.5 7.5h-3l-3.5-3.5v-6zm17 40h9l5.5 5.5 7 14v10l-4.5 6.5-4 1-8.5-7.5-9-15v-9zm14 60q3-.5 3.5 1.5l-1 5-7.5 7.5q-2.2 1.8-7 1l-.5-4.5 6.5-7.5zm-129 19q5.5-1 8 1l14.5 11.5 3 5q-.7 3.3 1 4l1 23 2.5 2.5h2q2.3-3.2 7-4l1.5 2.5-7 6v7l4 9v5l-8 15v6l9 7-3.5 2.5q-4.2-.7-6 1l-3.5 3.5-7 9-1 4q1 2.5 5.5 1.5l10 6h6l1-1h6q.8-1.7 4-1l3.5 1.5v4l-4.5 4.5q-5 1-7.5 4.5-.5 3 1.5 3.5l5-1 3-2h10l6 3 14 2 15-7q4 1 5-1h11l1-1h11l.5 1.5-4 6 3.5.5 15-7 13-8 .5 1.5-10.5 6.5-9 4-5 4h-2l-2 2h-2l-7 4-36 12h-3l-9 3h-4l-1 1h-4l-1 1h-4l-1 1-11 1-1 1h-7l-1 1h-10l-1 1h-12l-1 1h-12l-1-1h-4l-1-1-15-3-21-7-32-15-4.5-3.5 1.5.5 1.5-1.5v-4l-5-6q-1.7-1.8-1-6l2.5-3.5 4 1 6 5h4q2.6-2.4 1.5-8.5l-2.5-4.5-10 2q-3.9-2.6-4.5-8.5l8-11v-5l-7-12-2-6v-3l-1-1-1-10 4-9v-12l1.5-1.5 2-1h9q.8-1.7 4-1l13-11 13-9 14-6h11zM319 595l-2 1q-3 1-2 5l3 1q4 1 7-1l1-2-4-4zm223.5-130h8l10 5 7.5.5-3 9-7 14-14.5 15.5-6 4-7 1-14 7h-3l.5-1.5v-2l4-8v-6l1-1 1-6 6-12 1-5 4-8 2.5-2.5zm29 19 1.5.5-4.5 6.5-1.5-.5z" opacity=".996"/><path fill="#b3b3b3" stroke="#b3b3b3" d="m385.5 529 3.5.5 1 4-1.5 2.5-4 1q-3-.5-2.5-4.5zm93 7h8l1.5 1.5 1 2-2 5-9.5 9.5-10 6-3 1h-6q-2.5-1-1.5-5.5l11.5-12.5z" opacity=".996"/><path fill="#565656" stroke="#565656" d="m64.5 124-.5 1.5-1.5 2.5.5-1.5zm-4 6 .5.5-2.5 2.5-.5-.5zm-3 4 .5.5-2 2-.5 1.5-.5-1.5zm-4 5 .5 1.5-7.5 10.5.5-1.5zm-14 23-.5 1.5-1.5 2.5.5-1.5zm-35 92 .5 2.5H4zm-1 5 .5 2.5H3zm-1 5 .5 3.5H2zm-1 7 .5 2.5H1zm-1 8 .5 2.5H0zm1 87 .5 2.5H1zm2 12 .5 2.5H3zm43 111 1.5 2.5h-1zm36 47 2.5 2.5-.5.5-2.5-2.5zm11 12 4.5 4.5-.5.5-4.5-4.5zm9 8 2.5 2.5-.5.5-2.5-2.5z" opacity=".012"/><path fill="#8e8e8e" stroke="#8e8e8e" d="m277.5 0 4.5.5-4.5.5zm20 0 4.5.5-4.5.5zm-25 1 2.5.5-2.5.5zm-8 1 2.5.5-2.5.5zm-15 3 2.5.5-2.5.5zm-38 11 1.5.5-2.5 1.5q-1.5-1 1-2Zm216 0 2.5 1.5-1.5-.5q-2.4-.1-1-1Zm-224 3 1.5.5-2.5 1.5q-1.5-1 1-2Zm-40 19 2.5 1.5-1.5-.5q-2.4-.1-1-1Zm340 17 3.5 2.5-1.5.5-2.5-2.5zm-374 5-.5 1.5 1 1-1.5 1.5.5-1.5-1-1zm381 0 2.5 2.5-.5.5-2.5-2.5zm-385 3-.5 1.5 1 1-1.5 1.5-1.5-1.5zm389 0 3.5 3.5-.5.5-3.5-3.5zm6 5 2.5 2.5-.5.5-2.5-2.5zm-406 4 1.5 1.5-2.5 2.5.5-1.5-1-1zm411 0 3.5 3.5-.5.5-3.5-3.5zm-418 6 1.5 1.5-2.5 2.5.5-1.5-1-1zm425 0 3.5 3.5-.5.5-2-2-1.5.5 1-1zm-436 12 .5.5-5.5 5.5-.5-.5zm-10 8 .5.5-2 2-.5 1.5-.5-1.5zm470 4 5.5 5.5-.5.5-5.5-5.5zm-475 2-.5 1.5 1 1-2.5 2.5.5-1.5-1-1zm482 5 3.5 4.5-.5.5-3.5-3.5zm-489 3 1.5 1.5-2.5 2.5.5-1.5-1-1zm494 3 3.5 4.5-.5.5-2.5-2.5zm5 6 1.5 2.5q-1 1.5-2-1zm29 45 1.5 2.5-1.5.5zm21 45 .5 2.5h-1zm14 53 .5 3.5h-1zm1 8 .5 2.5h-1zm1 5 .5 4.5h-1zm-638 6 .5 3.5H1zm638 13 .5 5.5h-1zm0 46 .5 2.5h-1zm-638 11 .5 2.5H1zm638 5 .5 3.5h-1zm-637 3 .5 2.5H2zm636 4 .5 4.5h-1zm-1 7 .5 3.5h-1zm-3 16 .5 2.5h-1zm-4 16 .5 2.5h-1zm-3 10 .5 2.5-1.5 2.5-.5-1.5zm-3 10 .5 1.5-1.5 3.5-.5-2.5zm-605 11 1.5 2.5q-1 1.5-2-1zm5 8-.5 1.5-.5 1.5-.5-1.5zm3 7-.5 1.5.5 1.5 1.5-.5-1.5 2.5-1.5-3.5zm2 4 1.5 2.5h-3zm1 6 3.5 6.5q-1 1.5-2-1l-2-4zm6 8-.5 1.5.5 1.5 1.5-.5-1 2h2q-1.5 3-3 0l-1-3zm568 1 .5 1.5q-1 2.5-2 1zm-3 7 .5.5-2.5 2.5-.5-.5zm-546 27 1 1 1.5-.5-1.5 1.5q-2.5-1-1-2Zm529 0 .5.5-2.5 2.5-.5-.5zm-524 7q1 2 2 0l1.5 1.5-1.5 1.5-2.5-2.5zm519 0 .5.5-2.5 2.5-.5-.5zm-5 6-.5 1.5-.5 1.5-.5-1.5zm-3 4 .5.5-2 2-1.5 2.5-.5-1.5zm-498 4 2.5 2.5-1 1 .5 1.5-2.5-2.5 1-1zm493 2 .5.5-3 3-.5 1.5-.5-1.5zm-488 4 4.5 4.5-1.5 1.5-2.5-2.5 1-1-2-2zm483 2 .5.5-5.5 5.5-.5-.5zm-7 7 .5 1.5q-1 2.5-2 1zm-469 1 2.5 2.5-.5.5-2.5-2.5zm4 2 7.5 7.5-.5.5-7.5-7.5zm453 10 .5.5-2.5 2.5-.5-.5zm-437 5 4.5 4.5-.5.5-2-2q-1.2 2.3-2.5-.5l1-1zm431 0 .5.5-4.5 4.5-.5-.5zm-8 7 .5.5-2.5 2.5-.5-.5zm-414 1 2.5 2.5-1.5 1.5.5-1.5-1.5-1.5-1.5.5zm408 4 .5.5-2.5 2.5-.5-.5zm-398 4 1.5 1.5-1 1 .5 1.5-1.5-1.5 1-1zm393 0 .5.5-3.5 3.5-.5-.5zm-389 3 1.5 1.5-1 1 .5 1.5-1.5-1.5 1-1zm7 5 1.5 1.5-1 1 .5 1.5-3.5-2.5zm357 10q1.5 1-1 2l-1.5-.5zm-290 28 2.5 1.5-1.5.5q-2.5-1-1-2Zm21 8 2.5.5-2.5.5zm10 3 2.5.5-2.5.5zm4 1 2.5.5-2.5.5zm12 3 2.5.5-2.5.5zm36 4 3.5.5-3.5.5zm-6 1 3.5.5-3.5.5zm16 0 5.5.5-5.5.5z" opacity=".122"/><path fill="#3c3c3c" stroke="#3c3c3c" d="M248.5 74h12l12 5h5l1-1 9-1q8.4 3.5 14.5 9.5l-1.5.5-7-6-6-3h-4l-5 2h-6l-12-5h-11l-26 10h-11q-1 2-5 1l-12 5v-1l12-5q4 1 5-1h10q.8-1.7 4-1zm55 14q6.7 4.8 9.5 13.5v17l5 13v16l-1 1v11q3 7.5 9.5 11.5l2.5 1.5 1 4-1.5.5.5-1.5-13-15v-13l1-1v-14l-5-13v-18l-2-5-7-8zm-110 4 .5.5-12.5 12.5-2 1-.5-.5L190.5 94zm-16 15 .5.5-3.5 3.5-10 6-8 1-7.5-2.5 2.5-.5 1 1 7 1 9-3zm248 9 12 5 10.5 8.5 2 6v7l1 1 1 6 12 18 5 10 5 16 4 8 4.5 5.5 6 3 10 1 6.5 2.5-.5 1.5-7-3-10-1q-6.2-2.3-9.5-7.5l-7-15-4-13-4-8-7-9-5-9-2-6v-7q-2-1-1-5l-7.5-7.5-11-6-5.5-.5z" opacity=".996"/><path fill="#3c3c3c" stroke="#3c3c3c" d="m422.5 118 .5 1.5-3 5-5.5 5.5h-15l-1-1-13-1-7 3-16 14-7 3h-10l-3-1-1.5 2.5v10l1 1v9q2.3 1.3 1 6l1 1v4l2 6v9l-5 13-7.5 7.5-11 6-6 2h-6l-4.5-2.5-2-4v-32l5.5-4.5h8l1-1q4.7 1.3 6-1 1.5 1-1 2-4.7-1.2-6 1h-8l-4.5 3.5v32l3.5 4.5q2.5 2 8 1l14-6 9.5-8.5 5-13v-8l-1-1v-5l-1-1-1-9-1-1-1-21 1.5-3.5q4-1 5 1h9l8-4 15-13 7-3h7l1 1h6l1 1h13l5.5-4.5zm152 78h5l8 4 9.5 8.5-.5.5-5-5-10-6-7-1-3 2-.5-1.5zm-5 3 .5.5-6 6-1 2v11l1 1v3l1 1v3l1 1v3l1 1v3l2 6 6 12 6.5 7.5 3 2h10l4.5-3.5 3-9 2-11 1-1v-6q-2.2-1.2-1-6l-6-15h1l6 15q-1 4 1 5v7l-1 1v4l-2 4v3l-3 9-4.5 4.5h-11l-8.5-7.5-6-10v-2l-4-9v-3l-2-4-1-8-1-1v-11zm-63 16 10.5 10.5 10 16 25 35-.5.5-3.5-3.5-30-45-12-13zm-321 15h16l1 1h11l1 1 13 1 1 1 7 1 8 4 4.5 4.5 2 5v4l-4 9-6.5 7.5-12 10-.5-.5 2.5-2.5 14.5-13.5 4-7 1-7-2-5-3.5-3.5-8-4-8-1-1-1h-5l-1-1h-7l-1-1h-12l-1-1h-13q-1.3 2.3-6 1l-7.5 5.5-4 7-1 10 1 1v6l3 9 2 3 1 5 3 5v2l3 6 9.5 9.5 8 4h5l3.5-3.5 4-8 10.5-10.5 4-3 .5.5-4.5 4.5-9.5 8.5-5 10-2.5 2.5h-7q-8.5-4-14.5-10.5l-3-4-8-18-4-12-1-11 1-1v-5l1-3 7.5-8.5zm443 7 .5 2.5h-1zm-532 2 .5 2.5h-1zm533 2 2.5 10.5h-1l-1-6-1-1zm-535 8 .5 2.5h-1zm-1 6 .5 2.5h-1zm-1 6 .5 2.5h-1zm35 2q6.4.1 8.5 4.5l3 7v5l-2 5-3.5 3.5-4 2h-4l-5.5-4.5-2-5v-8l5.5-7.5zm.5 1-2 1-6 6-1 3v7l1 3 7 5h3l4-2 4-7-1-8-2-4-4-4zm-36.5 3 .5 3.5h-1zm299 0q4.8-.8 7 1l5.5 5.5 5 10v2l6 12 2 2-.5.5-2.5-2.5-10-22-5.5-6.5-7-1-17 8-9 3h-17l-1-1h-5l-1-1-10-1-1-1h-9l-3 1-6.5 6.5v5l1 3 8 16v9l-3.5 4.5-.5-.5 2-2 1-3v-8l-9-18v-6l4.5-5.5 5-3h11l1 1h4l6 2h5l1 1h16l1-1h3l6-2 9-5h2zm-300 8 .5 4.5h-1zm463 3 3 3 11 6 15 11 12 7 10 8 3.5 1.5.5 1.5 1.5.5-2 11-4 12-2 4-10 12-6 11-2 10-1 1-2 18-2 5-3.5 4.5-2 1-.5-.5 5-5 2-6 1-11 1-1v-5l1-1v-4l2-6 4-8 14-19 6-22-3.5-3.5-26-17-3-3-20-12-3.5-3.5zm-464 7 .5 4.5h-1zm-1 13 .5 11.5h-1zm328 3q2.5 1 1 2l-1.5-.5zm2 3 6 7 11 8 13 7 6.5 6.5 7 14 4 5-.5.5-2.5-2.5-7-14-6.5-7.5-20-12-10.5-9.5zm-388 8 .5 4.5h-1zm466 3h8l3 1q10.3 4.2 17.5 11.5l3 5 1 5 2 3 7 21 7 14 5.5 7.5 9 5 8.5 6.5 2 3 2 7h-1l-2-7-6.5-6.5q-8.7-3.2-14.5-9.5l-12-22v-2l-2-3-8-24-7.5-7.5-14-7h-8l-7.5 6.5-14.5 28.5-.5-1.5 2-2 12-25 6.5-6.5zm-182 5q1.5 1-1 2h-28q-.7 1.7-4 1l-8 4h-2l-8 5-3.5 3.5-3 5v7l4 8 9 13 6 14v2l2 3 3 9v16l-1 1v4l-2 5v26l1 2q-2.2 1.3-1 6l-1.5 2.5-.5-1.5 1-1v-24l-1-2 1-1v-7q2-1 1-5l2-5v-16l-4-9-1-5-2-3v-2l-6-12-10-15-1-3v-7q2.3-6.2 7.5-9.5l10-6 12-4h28zm324 2 .5 23.5h-1zm-550 7 .5 11.5h-1zm1 19 .5 5.5h-1zm378 4 4.5.5-4.5.5zm-377 7 .5 4.5h-1zm1 9 .5 2.5h-1zm1 7 .5 2.5h-1zm1 6 .5 2.5h-1zm1 6 .5 2.5h-1zm1 5 .5 2.5h-1zm401 0 3.5.5-3.5.5zm-3 1 1.5.5q-7.3 4.2-6 17l3 6-1.5.5-2.5-6.5v-8l2-5zm9 2 2.5 6.5v12l-1 3-4.5 4.5q-4.7.8-6.5-1.5l2.5-.5 3 1 4.5-3.5q-.7-3.2 1-4v-10l-1-1v-4q-1.7-.7-.5-2.5Zm-391 8h4l5.5 4.5v4l-7 13-2 6v15l3 9 4 6-1.5.5-3.5-6.5-3-9v-15l4-9v-2l5-8v-3l-2.5-3.5q-1.8-1.7-6-1l-1 1-10 1-3 2q-1.5-1 1-2 1.8-1.7 6-1l1-1h5zm163 57 .5.5-2.5 2.5-.5-.5zm-155 2 1.5 2.5h-1zm150 2 1.5.5-2.5 1.5q-1.5-1 1-2Zm-147 2 9.5 9.5-.5.5-9.5-9.5zm144 0 .5 1.5-12.5 5.5q-4-1-5 1h-12l-1-1h-5l-1-1h-4l-5-2h-13q-7.5 3-11.5 9.5l-4.5 8.5-1.5-.5 9.5-13.5 8-5h13l1 1 8 1 1 1h5l1 1h12l1-1h4l6-3h2zm-97 7h3l4.5 3.5 2 3 2 7 4.5 4.5 4-1v1l-4 1-3.5-2.5-6.5-13.5-3-2h-3l-16 8-3 1h-7l-10.5-5.5 1.5-.5 6 4q3.3-.7 4 1h6z" opacity=".996"/></svg>