<svg xmlns="http://www.w3.org/2000/svg" viewBox="0 0 561 640"><path stroke="#000" d="M.5 0 294 .5l-.5 2.5-9 1-2.5 2.5.5 1.5h2l3-2 5 6 1.5.5 1.5 2.5 4 2 1-5 6.5 3.5.5 1.5 2.5-.5-.5-1.5 10-4h10l5.5 3.5 1.5 3.5 6-2 8-1 1.5-1.5-1.5-.5-3 1q-4.2.8-5-2h-4l-8-7-6-1-1 2-4 2-1-4-3 3-4 1q-1-2-5-1l-2 1-5.5-2.5-.5-1.5-1 4q-2-.5-1.5-3.5l1-2-2-2 .5-.5L561 .5l-.5 101.5-4.5-7.5q4.3-2.2-.5-4.5l-2 2-9 1-1.5 1.5-1 2 3.5.5 3-2q2.8 1.2 3 5l6 5 3.5 1.5-.5 533.5-226.5-.5 4.5-.5 6.5-6.5v-2l-5.5-6.5-4.5-1.5.5-1.5 5-1q.8 1.8 4 1l1-1 7-1 1 1h5l3 2h2l3-2h5l7.5-3.5-1-2q1.3-2.7 2.5-.5l8 4h3l.5-1.5-5-4-.5-1.5q-4.2-.7-6-4l-3.5-.5 2.5-.5 6.5-5.5v-3l-5.5-6.5-4-2h-7l-.5.5 2.5 2.5q4.6.9 6.5 4.5h-2l-1 2 3 2-10 4 1.5 1.5 5 1 1.5-.5-.5 1.5-5 1-6 4-3-1-1 2h-10l-3 1-1.5-.5-.5 1.5-3.5-2.5-4.5-5.5-3-1-.5 2.5 2 3v2l2 2-1.5.5q-.7-1.7-4-1-1 2-5 1l-2-3-2 3-8-1q-.7 1.8-4 1l-.5-3.5-4.5-4.5q-4.2.7-6-1l-.5 1.5 4 7h-1l-.5-1.5-2 1-7-5-.5 1.5 8.5 6.5h6q1-2 2 0l8 4 3-1q1.5 3.5 8 2l6 3 2.5 2.5h-2l-1 2 2 1-1.5 2.5-6 1-2.5 1.5 4 2L.5 640zM355 3l-1 1h-3l-9 3v1q4 1 6-1 3 0 4 2h4l1 3 8 6q3-1 4 1h7l4-6-2-6-4-2h-2q-1 5 2 7l-1 4-4-2-1 2h-1l-7-8V6l-1-2zm-85 1-1 1-10 2q-3 1-1 2l8-1 1 2 2-1 12 10h1l-3-7-4-4V6q-1-3-5-2Zm109 0-1 2 8 5-2 3 2 3-2 1-6 1-1 2 4 1h7v2l11 6 5-2 6-5 3 1v2h2v-1l7-4 2 5 3 1 1 4q0 2 4 1 1 2 2 0 3-1 4 1l6-2 1 3 8 3v2h3v-1l4-3h2l3-4v-5l-1 2-5 2-2-1q-5-1-5 1l-4-1-3-3-1 2-7-1q-3-1-1-2l-2-2-1 2-3-2-1-1-5-3 1-2v-4q-1 4-6 3-1 2-2 0-5-1-5 1l-2-4-4 2-1-1q-1-2-2 1l1 5-3 2-1-1-2-1-1 2-5-3 3-2v-3l-4-6-6-4h-4q-1 2-2 0ZM253 9l-8 10-1-1-2-1-1 2h-1q-5-2-6-7l-2-2-3 5q1 4 4 7l-5 3h-2l-1-1h-1l-2-1-1 3-9-5-3 1 12 8h4l10-7 8 4 4-2q4 3 6 8l4-2 9-1 1 3 5 3 1-1h9l3-1-4-4q-5 1-6-1v-1l-1-2-2 1-8-6-4 1 3 5v2l-9-3-3-3 4-7zm38 10-1 3 3 5 1 1-6-2-2-2-2 1q3 4 10 6l6-2v-4l-4-5q-5 1-5-1Zm83 2q-2 3 1 5v4h3l1 2q-1 5 2 7l-5 1-1 2 2-1q6-1 8 2l3-1 3 5 7 4 1 1-1-4-2-2v-2l-4-5q-1-3-6-2v-1l-1-3v-6l-1-2-7-4zm-60 1v2l-1 1-5 1-5 3q-3 1-1 2l7-1 1-1h4l4 3 8 1 2 2h5q1-3 6-2l4 6 5-2 8-1 1-1 7 3v2l-1 1-8 1-3 3 1 1 6-2 2 5 3 1 1 3 5 2 1-2-2-3v-2l-3-3 1-3-2-3 4-1 3-3 1-3-1-5-2-3-3-1-2 1v3l2 4q0 3-1 3l-4-1v2h-2q-4-2-5-6l-2-3-1 1v3l3 4-2 1-4-2h-3q-4-2 0-3l-1-2-7-1-4-2-1 2-3-2-1 2-2 1-7-2-3-3h-1zm-116 5v4l-4 1h-7l-6 4 1 3h3l5-3h3l1 2 3-1 2 3 1 5h2l4-4 1 1 7-3 6 5 6 4-6 3-2-1q-5-1-5 1l-5-2-2-2-1 1 1 6 3 2 4 1 1 3h3v-1l8-4 2-4v-3l4-1 7-5 5 2h4l1 2 7-1 1 4 3 1 1 3 5 2h1l-2-6 3-3 6-1 1 2 3-1 2 3q-1 4 2 5l4-3v-4l-4-4 6-3q3 1 2 5l9 6h1v-3l-4-7q3-4 10-5l2 3 3-1 2 4v2l3 1q3-1 2-7l-6-6h-8q-1 2-4 1l-3 2h-2l-2 2-9 1-3 3-2-1q-4-1-4 1h-7l-5 3h-1l2-2-2-3-2 2q-5-1-5 1h-4l3-5-2-3v-2l-4-2h-2l1 10h-1l-1-1h-1l-1-1-5 1-4-7-2 3 4 6-5 2v-1l-3-2-1 2 1 1h-2l-7-4v-2l-5 1-1-1-2-2-1 2-3-3-5-6zm211 5-1 2 2 6 3 3-1-1h-6l1-2-2-2-1 2-9-7-4 1 8 12q1 2 4 1 1 2 2 0l3 1q2-2 7-1 1-2 2 0l5-2h3q3 2 5 7l4-2h11l3 2 4-2h5l3-2q2 1 0 3h3l2 4v3l2 4 4 2v-7l1-1-2-3 1-3-1-3-3-1 7-4q4-1 5 2l3-1 2 4v3l2 1 3-3v-4l-2-3-1-1-1-1-2-2-12 1-3 2-3 4-4-2-3 2h-7l-1-1-2-1-1 2h-12l-1 1h-2l-3-3-8-4-1 4-4-4zm-234 7-4 2h-3l-6 2v1h5l3-1v2h5l2 3-1 1 3 7 3 1 1 4q1 2 4 1 1 2 2 0l3 1-2 1h-2q-1 4 2 5v4h3l1 2v4l2 4 4 3 1-3 6 7h12l3-1v-1l-4-3h-4l-2-4-3 1-7-5-2-1v-7l-6-4 5-2h10q1 3 6 2l1 2-1 2v1q4 1 6-2 3 0 2 5h2l6 8 8 5h5l4-2 5 2v2h3v-1l7-4 2-3v-5l-3 3-3 1-2-1q-5-1-5 1l-4-1-3-3-1 1q-4 1-4-1l-3 1q1 4 4 7v1l-1-1h-1l-5-2q-3-1-1-2v-3l-4-7q-2-2 1-3l-1-2 5-2h7l-1 2 4 2 4 1q1 2 2 0 3 0 4 2h5q0-3 4-2v2l3 1q2 1 1 4l4 1q1 2 2 0 3-1 4 1 1-2 6-1l2-1-2-3-7-1q-3-1-1-2l-2-2-1 2-3-2 3-2-1-2q-4 1-4-1h-7l-1 1-1-1-2-2-2 3h-3l-4-3-6-2v-1l-3-1v2l-10 4-3 3 1 1h-4l-1 1q-6-5-13-7l-2-2h-1l-2-1v2l-1 1-6-2h-4q-3-1-1-2l-1-2-3 1-4-5v-2l-4-5zm152 2v4l2 2v2l-5 2v-1l-1-1q-1 2-2 0l-1 2-10-5-3 1 4 3 8 5h5l8-5q2 1 1 4l5 2 2-1 3 1 3-1 2 1 3-1v-1l-2-3-7-1-1-3-3 1q-4-6-11-7Zm149 8-3 6 3 6 9 5h4l5-3 4-5 2 1-1 4 2 1-10 5 6 2q0-2 5-1l1 4 9 5q4 1 6-1l7 8 1 2 8-1 1-1h4l3-1-8-1-6-2-7-5 5-8-1-5-1-2q-3 2-4 6l-4 3-1-1-2-1-1 2-3-1-2-2 3-5-5-7-5-3-3-4-3 4h-1v2l-4 4-1-1-2-2-1 3-2-1zm-328 2q-2 5 0 8l8 3v2h3v-1l4-3h2l1-1 3 4-1 3h3l1 2 2 8-4 1-4 3h-2v-1l-1-1q-1 2-2 0l-1 2-11-5-2 1 8 6h2l5 3 8-4 5-4 3 2 1-3v-6l-1-1q-1-4 1-4l-1-3-7-5h-2l-1-6-1 2-5 2-2-1q-5-1-5 1l-4-1zm155 1-2 2h-3l-8 5 1 1h5l4-2 3 2 2-1h2l7 4h4l-2-3-1-1-2-2-2-1-5-4zm-28 4v4l7 7 2 3 4-2h4l1-1q4 1 6-1v-1q-5-1-6 1l-3-2-5-1-2-2zm-130 8-1 2h-12l-2 1-1 2 3 1q-2 2-7 1l-3 2-3 4 1 1h3l5-3q4-1 5 2l3-1 1 3q2 1 0 2l3 3 3-3v-4l-4-4 1-1h2l3 2 4-2h5l7-3v-1l-2-2h-11l-1-1zm36 15-2 2h-3l-8 5 1 1q6 1 9-2l3 2 2-1h2l7 4h4l-1-2-2-2-2-2-2-1-5-4zm-66 4-13 7 1 1h5l4-2 3 2 2-1h2l7 4h4l-2-3-10-8zm15 2q-2 4 0 7l6 3h2v2h3v-1l5-3q5 3 8 10l6-2 8-1q2-1 1-2-4-1-4 1l-10-3-2-2-4-2 1-3v-4l-3 2h-2l-2 2-2-1q-1-2-2 0l-6-1zm97 4-7 3-1 2h-3l-1-1-2-1-1 2h-10l-5 3 4 2 9 1 3 2v2l-3 1h-4l-5-3h-4q-3-1-1-2l-1-2-2 1-3-1-2-2-4-3h-6l-1-1-13 4v1l8-1 1 2 3-1 3 5 7 5h2l-1-3v-2q2 1 1 4 0 2 4 1 1 2 2 0 3-1 4 1l3-1 1 3 6-2 2 5h2l2 4 4 1 1 1-1-7-3-3 1-3-2-3 4-3h5l7-3-4-2 4-2 2 3 3-2 4 8 2-1 2-2-1-1 1-2-6-7zm-116 6-1 1 2 4q-2 2-6 1l-2-2-1-1-2 3q-5 1-5-1l-8 2 1 3-2-1-2 1 1 4 2 1-1 3h3l1 2 1 8 9 10 1 2 15-3v-2q-4-1-4 1h-2l-3-2h-3l-5-4-2-1v-7l-1-1q-1-4 1-4l-1-2-5-4v-1l3 2 2-1 4 2q5 1 7-2l3 1q1-3 6-2v3l4 1q1 2 2 0 3-1 4 1l8-2-2-2 4-2 3 2h3l3 5h2l2 4v1h6l3-1q1-3 3 1l3-1h2l3 2v2l-3 2 1 1h4l4-2q3 0 4 2l3-2 7 4 4 5 8-1 7-2-8-1q-2-3-6-2l-2-2-6-4-3-3q-6-1-7 2l-12-8h-3l-2 2-6 2-8-11h-5l-8 3h-7l-1-2-2-2-1 2-3-2-1-1-5-4zm0 16-1 4 2 4 7 4h-2v2l3 6h2l2 4 3 2h9v4l3 4 1 1-8-3-1 2 8 4 7-2v-4q-2-5-9-5l5-2-4-4q-5 1-6-1v-1l-1-2-2 1-6-4-1-2 8-4 2-4v-4l-4 3h-2q-1 2-2 0-5-1-6 1l-5-2zm40 6q-2 5 1 8l-1 4-4-2-1 2 1 1-4-2-4-6q-1-3-2-1l1 5 7 5 6 2 3-1q3-1 4-6l1 1-1 3h4l1 4v3l3 5-7 2v1l8-1 1 2 3-1 3 5 7 5h2l-7-12-1-2-4-1-2 1q-1-5 1-6l-2-3 1-5-6-5-5-1-2-2zm-79 6-1 2 9 10 1 2 4-2h4l7-2-7-1-6-2q-4-5-11-7Zm-14 9-1 3 2 3 6 4 2 4q3 1 4-1l3 2-1 3 3 1 1 2 1 5 2 3-1 1q-5-1-6 1l-9-2-1-3-3 1-2-1-2-2-6-4-2 1 4 8 3 1v3l3 2h11l1 2h2l5-3h4l1 2 4-1q2 1 1 6l-2 1v1q6 1 9-2 3-1 4 1l2-1h3l6 3h4l-4-4-8-3-1-3 5-2h4q1 2 2 0h4l2 2q3-1 4 1h3l-5-5-4-1q-3-1-1-2l3 2 2-1 6 3 4-2 1 8 7 2 1 3q2 1 0 2l7 3h5l2 2q5 1 6-2l9-1 3-2-4-3h-6l-1 1-3-1-1-1-2-1v2h-10q-2 2-3 0l2-2 6-2 2-3v-5l-3 2q-1 2-2 0l-2 2-1-1q-5-1-6 1-2-4-3-1l-3-3h2l6-2 3-2-6-3-3 1h-5l-1-1-2-1-1 2q-5 1-6-1l-1 1q-5-1-6 1-3 1-1 3l-13 6-1 1 2 2-3 2-1-2q-2-6-8-7l-1-7-1-1v-6q0-2-3-2l-1-1 4-1 6 9q1 2 4 1 1 2 2 0 3-1 4 1 1-2 6-1l2-1-5-4h-4q-3-1-1-2l-2-2-1 2-7-6-5-1v3h-7l-6-2-4-4q-5-1-7-4Zm125 0-1 3 4 5v1l-1-1h-1q-6-1-8-5l-1 2 4 3 6 3 7-1v-5l-3-4zm-84 6-1 2 6 4 8 4 7-3 7-5v-2l-7 3-2 2h-2l-1-1h-1l-2-1v2h-2l-4-3zm50 7-1 2-10 4-3 3h1l7-1 1-1h11l2 2 3 1-4 1-5 4 1 3 4-1 2-2 5-1v2q2 3 4-1l2 3q-1 4 2 5l4-2v-5q-2-5-8-6-1-2-2 0l-8-6-4-1-2-2zM36 168l-1 2 4 6h2l3 4v2q6-1 7 4l-4 7-3 3-2-2-1-1-2 3-8-10-3 5 2 6 8 6-2 1h-4l-6 2q-3 1-1 2l8-1 1 2 3-1 3 5 8 5h1l-7-12-3-2 7-2 1 3h2q2 0 1 4l4 2 3-1 2 1h6l3-1v-1l-3-3q-5 1-6-1l-1-3-2 1-6-4 2-2v-2l2-3-2-3 1-2 3 5 6-2h4l1-1q3-1 5 1 6 1 8-2l2 1 3-2 6 5 3 1 5-1q2-1 1-3l6-3q3 0 4 2l2-1h2l7 4h4l-2-3-10-8h-3l-10 5-4-3q-5 1-5-1l-1 3q-2-2-6-1l-1-1q-2 2-6 1l-2-3-2 3q-5 1-6-1-2 2-6 1l-3 2-6-3 2-2h3l3-1-7-1-6-2q-5-5-11-8Zm91 3-12 4v1l8-1 1 2 4-1 2 4 7 5v2l-7 4 1 1 7-1 1-1q3 0 4 2l3-2 9 5h3l-1-2-3-3-1-1q-4-2-6-5-6-1-7 2l-8-13q-1-3-5-2Zm-17 19-1 2 3 6 3 1q2 1 1 4l4 2 5-1v3h6l3-1 1-1 3 3 2-2 8 4h4l-1-2-11-9q-5-1-5 2l-5-1q-1-2-2 0l-3-1-1-2-2-2-1 2-2-1-2-2-5-4zm-43 3-1 4q3 0 2 5l3 1 1 2q-1 5 2 7l-5 4 1 3 10-4 2 3 3-2 4 8 4-2 2 3 5-2 3 6 4 2 3 6 4-1 2 8 6 6h3l1-1h3l6-2v-1q-5-1-6 1v-1l-2-3-1 2h-1l-3-3-7-6 11-3v-1q-5-1-5 1-4 0-4-2h-4q-4-5-11-7l2-2 6-1v-1q-5-1-6 1l-3-2-5-1q-5-5-11-8l-2 1q-4 1-5-1l1-2q-2-3-1-9l-7-5zm29 3-1 2H84l-4 3 8 3h5l3 2 4-2 9-1 3-2v-1l-2-2H99l-1-1zm7 10q-2 2 0 4l8 8 1 2 7-1 3 7 8 5h5l5-3q3-3 5-7l-2-7-8 10-1-1-2-2-1 3h-1l-5-4v-2l2-1-3-1q-2-4-4 0l-7-3-2-2-2-1-3-3zm-49 10-1 3-8 3-2 2q-2 0-2-3l-2-3-3-1-2 1v3l2 6-2 1q-2-2-3 1h-2l-3-2-3-5q-1-3-2-1l1 5 4 3 6 3h6l3-3v-2l4-2h3l3-2 1 1h8l3 2h5l-2-3-9-4v-1zm15 10v2H59l-5 3 4 2 9 1 2 2q5 1 6-2 3-1 4 1l7-4-4-3h-9l-1-1zm-23 6-1 2 9 6-3 2 3 2-4 2h-3l1-3-5-6h-6q1 4 4 7v1l-6-2-6-5h-7q0 5 4 7v1l-6-2-4-4-2 1q4 5 12 8l6-2 1-1v-2l8 4 3-1v2l4 1h5l6-3 4-5 1 1-1 3h3l1 2 1 6 4 5 2-1 6 2v2h3v-1l7-3 2-2 1-3v-3l-3 2h-2l-2 2-3-2-4 2q-1-3-4-2l-2-3v-6l-4-4-7-2-1 2-3-3-6-4zm41 0-1 2 4 6v1l-1-1h-1l-6-3-1 2 8 4 7-1q2-1 1-3l3-1 2 5 7 4 2 2-1-7-3-3 1-3-2-4-1 2h-4l-1 1h-5l-2-2zm10 17-1 2 2 6 3 3v2l4 2 2-1 2 1-2 1q-2 1 1 2l10-2 1 2 3-2 9 5h4l-7-8h-2l-2-2-5-1q-1 2-2 0-1 2-5 1l-1-1-2-2-1 2h-1l-3-4zm-84 3v5l9 10q3 1 4-1l4 2q-1 5-5 7l-2-3-2 3h-1l-8-10-2 3v5l2 4 5 4-2 1h-4l-7 3 1 1q1-2 6-1l1-1 2 3 3-1 3 5 7 4 1 1q-1-9-7-12l11-6 4-7 1 1q1 3-1 4h4q2 2 1 7l4 6-3 1h-4l-3 3 1 3-4 3-1-1-2-1-1 2h-1l-8-9-2 3v4l2 4 9 6h3l7-4 4-6-1-3 2-1 1 4 3 1 1 3 4 1 1 2 2-3h2l5 3 10-5q2 1 1 4l5 2q0-2 4-1 1 2 2 0l3 1-2 1q-3 1-1 2l7-1 3-2 1 1h8l3 2h5l-2-3-9-4v-1l-3-2-1 3-4 2-5-4h-5q-3-1-1-2l-1-2-2 1-8-6h-2l-1-2q-2-1 0-2l-1-3v-6l-1-2-7-4-4 1v2l3 3-1 3h3l1 2v4l2 4 4 3 1-1 2 5-3 2-3-1-2 1h-2l-6-3-4-4q4-3 0-5l-2 1v-9l-1-1 1-5q-1-3-4-3l-1-1-8-2 3-1v-1l-3-3-7-1v-3l-3 1-6-5zm31 1-1 1-10 2q-3 1-1 2l7-1 1-1 2 3 3-1 2 4 7 5 4 1 1 2h5l9-6 2-2v-1h-2l-8 4-2 1 1-2-1-1q-1 2-2 0l-1 3-4-2-7-9q-1-3-5-2Zm48 9-2 2h-3l-5 3-3 3h7l3-1 1-1 3 3 2-2 8 4h4l-1-2-2-2-2-2-2-1-5-4zm-24 7-1 1 3 6v2h2l1 4 4 2 7-3h5l5 5-1-1-2 3h2v2l-4 2h-3l-2 2 5 2 7-1 6-5v-3l-2-3 2-2q3 1 4-1h11l2 2q3-1 4 1h3l-7-6-4-1-2-2-2-1-1 2-11 5-8-4q-1 2-5 1l-1 2h-2l-1-1-2-2-1 2-3-3q-2-6-8-7Zm45 19-2 2h-2l-6 3-3 3h1l11-1v2h1l2-2h2l6 4 5 1v-1l-6-7h-2l-2-2-3-2q-1 2-2 0ZM3 302l-1 2 3 4v2h2l2 4 5 3q0-2 4-1l1 4 9 6h3l2 5 7 2v2h3v-1l7-3 5 8q1 2 4 1 1 2 2 0 3-1 4 1l6-2h3l5 3h6l3-3 1-3-1-5-5-4-2 1q-1 5 2 7l-1 4-4-2-1 2 1 1-4-2-4-6q-1-3-2-1-1 3 1 4v1q-1-2-5-1-3-1-1-2l-2-2-3 1-6-5 1-1v-3l-6 3q-4 1-4-1l-2 1q-5 1-6-1l4-3 3-5q1-5-1-5 1-3 6-2l1 2 3-1 3 5 6 4 3 1 2 3 3-1h5l7-2-8-1q-2-3-6-2l-2-2q0-2-3-2l-7-8-8 1-6 2-5 8-3 2-1-2-1-1-2 3-4-3 3-1-2-3-4-1-2-2-2 1v-1l-1-2-2 1-8-6zm114 3-1 6q2 1 1 6h-1l-1-1h-1l-1-1-1 3-2-1q-4-2-5-6-1-3-2-1l1 5 3 2 9 4 5-1 3-6-2-5zm-28 3-2 2-9 1-2 3v1l7-1q2 0 1 4l3 1q3 1 3 6l6-2 2 5h2l3 4-3 3h7l3-1q1-2 3 1l2-1h2l7 4h4l-1-2-2-2-2-2-2-1-5-4q-5-1-5 2h-4q-1-4-4-5l1-5-2-2-1 2-7 1-1-2-3-4q-3-2 1-3zm-74 17-1 2-3 2H9l-6 3q-3 1-1 2h4l4-2h5q1 2 2 0h3l7 3h3l-2-3-9-4q-3-1-1-2l-1-1q-1 2-2 0Zm84 12v4l3 3v2l-1-1h-1l-5-3-2 1 1 2h3l4 3h4l1 6q3 1 4 6l3 1 11-3v-1q-4-1-4 1l-1-2-2-2-1 2-4-4-5-4q3-1 2-5l-4-5zm-68 1v4l3 4-1-1-1 1-5-3-2 1 8 5 7-1q2-1 1-4-2-6-10-6Zm10 1-1 1 3 2q3 1 5 4l-1 3h2v2l-10 4 5 2 10-2q1-2 2 0 1-2 5-1l3-2q3 2 10 1l4 2h4l-6-5-6-2-1-1-2-2-1 3-8 3v-1l-5-8-5-3zm38 4q-2 3 1 5v4h3l3 10 4 3 1-1 3 5 4 2 2-1 3 1 5-1 1 4 3 1v2l-5 2-2-1q-5-1-5 1l-4-1-2-1-1-6-2-3-3-1-2 1q-1 4 2 6v3l-2 1v-2l-3 1v2h-2q-4-2-5-6l-2-3-1 1v3l2 3 3 2 7 3h4l4-2v2q2 3 8 4v2h3v-1l8-4 3-7 2 1v2h3v-1l5-3h2l2-4v-4l-6 3-3-1-2 1h-3l-7-4q-1-2-2 0l-5-1 1-2-2-2-1 2-2-1-7-7v-6l-5-5zm-63 2-1 3 4 5v1l-1-1h-1q-6-1-8-5l-1 2 4 3 6 3h4l3-1v-4l-2-3-1-2zm17 11-1 2 2 6 3 3h-6l-6-2-4-4-6-3h-2v2l3 4 4 2 3 5 8-1 5-2 5 3 9-3q3-1 5 1l2-1 6 3 5-2q1-2 2 0l6-2 3-2-7-3q-3 2-7 1l-1-1-2-1-1 2q-5 1-5-1-2 2-6 1l-3 2-2-1-1 2-4-4zM6 373l-1 1 3 2 9 6h6l5-3 1-1 3 4-1 3h3l2 4v3l2 4 3 2 1-2v-8l-1-1 1-4-6-6h-2l-2-1 2-2v-1l-8 3-2 2h-2v-1l-3-1v2l-4-1-4-3zm31 2-1 1 3 2 9 6h4l9-6 5 9h-2l-1-1-6-3-2 1 1 4 2 1-1 3 3 1 6 12 2-1v2q4 4 11 7l8-4 3-3 1-3q1-5-1-6l-1-1q-3 0-3 5l-5 4-1-2-3 2-10-10 1-6 2 1 12-4v-1l-6 1v-1l-2-2-1 2h-1l-8-10h-3l-8 5-1-3-2 1-1 2-7-4zm52 13q-1 2-5 1l-5 4 1 3h2l5-3h4l1 2 4-1q2 1 1 6l2 1 4-2h2l5 3 7-3 7-6h3l1 3 8 6h1q-1-7-6-10v-2l-2-2h-4l-1 1-10 2v1q5 1 8-1v2l-9 4-1-1h-1l-2-1v2l-4-1-8-8zm-60 3-1 2h-4l-1 1h-4l-3 3 1 1 6-1 2 4 3 1 1 3 5 3 1-2-2-6-3-3 1-4zm7 7-1 5 1 3 8 3v2h3v-1l8-5 4 3h2l3 4-3 2 3 2-4 2h-4l-2 2 3 5-1 4h-1l-1-1h-1l-1-1-1 2 1 1-3-1-5-6 2-1-1-2-3-3-1-1q-4-2-6-5h-4q-2 3-6 2l-7 5 1 1 7-1 1-1q3 0 4 2l3-2 4 3 4 1v4l3 4-5 2-2-1q-5-1-5 1l-4-1-3-3-1 1 1 7 8 3v2h3v-1l8-4 2-5 10 3 11 8h5l9-6 11 6 10-5 2-4 4 2 7-3 7-5v-2l-7 3-2 2h-2l-1-1h-1l-2-1v2h-2l-2-5-3 2-5-2-1 2 4 2v2l-4 3-1-1-2-1-1 2h-1l-4-3v-2l3-1 1-4-4-5-3-1-4 1 3 5-1 2-5-2-2-2-1 2q2 2 6 3l1 2 1 5-8 4-1-1-2-1-1 2-10-4 4-7-1-3 2-2 4-1 5-5-3-5q-3-4-7-6h-7v-5l-6 3-2-1q-5-1-5 1l-4-1zm73 7-3 7-8-5v2l-3 2h-3l-5 3q-3 1-1 2h5q1-3 7-2 1 2 2 0 4-1 6 2h3l8 6q4-1 6 1l10-4 3 3 2-2 2 3q-1 4 2 5l4-2v-4l-2-3-4-4h-10l2-3-2-7-7 9-4-2-1 2h-2zm20 23-1 6 1 1q1 4-1 5l-1-3-1 2-2-1v3l-2-1-6-8-2 3 2 3q3 1 1 3-1 4 2 5v3h3q2 2 1 7l2 3-1 3 2-1 2 1 4-2v2h5l2 4q3 3 8 5l1 1-1-4-3-5 6-3 2 4 9 7h1l-1-6-3-4q-2-2 1-3l-2-4-1 2-2 1-8 1-3 4-3-5q-5-1-6 1h-5q-1-4 1-4l-1-3q-2-1 0-2l-1-5 2-1 1 3 10-4 3 3 2-2 2 3q-1 4 2 5l4-2v-4l-2-3-2-3-5-2-1 1h-6l-3 1v-1q1-5-1-6zm-74 7-2 2-9 1-3 3 1 1q4 1 6-2l2 5 9 6h1v-3l-4-7q-2-2 1-3zm47 8-9 4-2 2-3-1-2-4-2 1-1 2-7 3-5-2h-2l1 11h-1l-1-1h-1l-1-1-1 3-2-1q-3-2-4-5l-2-3-1 1v3l2 3 11 5 5-1 3-6-1-2 5-3 1 1h8l3 2h5l-4-3 4-2h3l1 2 3-2 9 5h4l-6-7-3-1-2-2zm-54 9-3 2-5 1-7 5 3 1 1-1 8-1 1 2 3-2 7 4 5 1v-1l-6-7-3-1-1-1zm43 7-2 2h-3q-1 2-4 2l-2 2-2-1h-4l-1 1-10 2-1 2h2l-1 3-4 3-1-1-2-1-1 2h-1q-4-2-5-6l-3-3-2 4v3l2 4 11 6 8-4 4-6v-3q-2-2 1-3l1 3 2-1h2l11 10h1l-4-8-3-3 5-1 4-2 1 3h1l2-2h2l7 4h4l-2-2 6-2 1-1 3 3 2-2h2l6 4h5l-6-7h-2l-5-4q-4-1-4 2h-3l-6 4-6-3-3-3zm1 9-2 2 3 4v3h3l3 11 4 2v-7l1-1-2-3 1-5-8-6zm18 5-4 2 9 7-1-1-2 3h2v2l-10 4 6 2q1-2 6-1l7-6 6 3 7-3 4-3h3q2 4 4 0l7 4 3 1h5l1 1 11-4v-1l-5 1-1-1-2-2-1 2-4-4q-2-4-6-5h-2l2 7 1 1-7-6h-5l-12 6q-1-2-2 0l-2-1v2l-4-1-6-6-6-3zm-30 5-2 2 1 3 2 1-1 4h3l2 4v3l2 4 3 2q1-2 6-1l4-2 1 3h1l2-2q4 0 6 3l8 2 2 2h4l9-6 10 6h6l4-5 5 6h13l2-1q2 1 1 6h3l1 2v4l2 4 4 3 1-5 5-3 3 2 2-1h2l7 4h4l-2-3-10-8h-3l-2 2h-3l-3 2-1-7-6-4 10-3v-1q-5-1-6 1v-1l-1-1-1-2-1 2h-1l-3-3-6-6-2 1 2 7 3 3v2l-9-2v-1l-1-2-2 1-6-5-7-3-2 1q-1 5 2 7l-1 3h-1v-1l-1-1-1 2-1-1-1 2-3-1-2-2q-2-1 0-2l-1-1-2-3-1 4-7 4-1-3-2 1-1 2-13-7-1-1-2-2h-3l-2 2h-3l-5 3-1-6-1-1v-6q-1-2-3-2l-1-1zm-12 5-6 2-9 5v1h7q0-2 4-1 2 4 4 0l11 5h2l-2-3-2-2-2-2-2-1zm14 13-2 2-9 1-3 3 1 1 7-1 1 4 3 1 1 3 5 2h1l-1-5-4-6q4-3 0-5Zm21 10-1 1-9 1-3 2-2 3-2 1h-3l-8 3 1 1q1-2 6-1l1-1 2 3 3-1 3 5 7 4 1 1q-2-9-7-13l3-3 5-1v2q2 3 4-1l2 3q-1 4 2 5l4-2v-4l-2-3-2-3zm29 5-1 1 5 4q-1 3-4 2l-1-2-3 2h-2l-7-4h-4l4 8q1 4-1 5l-1-3-3 4-2-1-6-8-2 1v2l2 3 3 2 9 4 5-2 3-7 2 1h3l7-5h3l5 3 12-7 6 5-2 3 2 1-3 2h-6l-1-1-2 1q-1 4 2 5v3q1 2 3 0l3 10q2 1 0 2l1 4 9-4 3 2 3-1 2 4q-1 3 1 4l-3 1v1l8-1v2h5l2 4 6 5-6 3-3 3h1q6 1 9-2 3-1 4 2l2-1h2l7 4h4l-6-7q-5-1-6-4-5-1-5 1-1-3-3-4v-2l-4-5-4-3-5 2h-2q3-1 2-5l-6-7-3-1-1 1h-7q-2 2-3 0l1-2q-2-4-1-10l3-1 5-4 1-2-3-5-3-4h-2l-3-2h-4l-8 5-3-1-4 1v-1l-4-1zm68 15-9 4-2 2-5-1v-3l-2 1-1 2-12 5q-3 1-1 2l7-1 4-2 1 1h8l2 2q4-1 6 1h1q-2-3-5-4l-1-1 8-2 1 2 3-2 3 9 10 5 10-5 3-6-2-5-1-1-3 5-5 4v-1l-2-1-7-7h-2l-2-2zm-75 1v4l6 7-10 5-1-1h-1l-5-4-9-4v-1l-2-1h-2l1 2-12 5q-3 1-1 2l7-1 1-1h8l11 8h5l10-7 4 1 1 2q-1 4 1 6l8 3 3 10 2 2-3-1q-2 2-6 1l-2-3-2 1-1 2q-5 1-5-1-2 2-6 1l-3 2 3 2q4-1 5 2l2-1 4 2q5 1 7-2l2 1 7-3 2 1 6-1 1-1 4 1 4 6 14-3q2-1 1-2l-2 1h-5q-2-3-6-2-5-5-11-8l-2 1 1 2-2 1-4-4-4-4-2-2 8-4 2-3v-5q-1 4-6 3-1 2-2 0-5-1-5 1l-7-2 1-2q3-1 4 1l1-1q4 1 6-1v-1l-4-3h-4l-2-4-3 1-6-5zm63 14-1 1 4 6v2h2l5 6 3-1 10 5q6-1 8 2l3-2h5l3-2 5-1v-1l-2-2q-5 1-6-1-2 2-6 1l-1-1-2-1-1 2h-4l-1-1-2-2h-4l-4-1 1-2-2-2-1 2-6-5zm50 0-2 2-9 1-3 3 1 1 6-1 2 4 3 1 1 3h2l2 3q-1 4 2 6h-1v2l-5-3-2 1q3 4 10 6l6-2h2l3 2q5 1 7-2l2 1 6-2 3-2-7-3q-3 2-7 1l-2-3-2 3h-4l-5-4h-5l1-2-1-5-4-6q4-3 0-5Zm-122 8-1 4 2 4 5 2h2l2 3q2-4 9-5l2-4v-4l-2 1q-2 3-3 1l-2 2q-2-2-6-1-2 3-3-1l-1 1zm408 7-1 1h-3l-6 2v1q4 1 6-1l3 2h3l3 5 8 5h1l-4-8-3-3v-2q-2-3-7-2Zm-306 13q-2 4 1 7 1 3-1 4l-1-2-3 1v2l-3-1q-3-2-4-5l-2-3-1 1v3l3 4 9 4h5l3-3q0-3 2-4l7 5q5 1 8-1l1-1q-2-1 0-2l-3-4-6-3-2 1q1 4 4 7v1l-1-1h-3l-3-2-4-4-2-3zm58 1-1 3 4 5h-1q-1-2-2 0-6-2-8-6l-1 2 5 4 6 3q3 1 4-1l2 1-2 1q-2 1 1 2l10-2 1 2 3-2q4 4 11 5l8 6h6l9-6q3 1 2 7h3l1 2v4q2 0 2 4l4 3 1-4-1-2 1-2q-2-3-1-9l-10-6-6 2-4 3h-2l-3-2v2q-5 0-6-3h-2l-7-7h-2l-2-3h-5l-8 4-1-4-3-4zm229 0-1 3 3 5 1 1-6-2-2-2-2 1 1 2 6 3h6l3-1v-4l-4-5zm-364 1-1 2 4 6h2l4 6 9-1 1 3 3 1 1 4 2 1h8l2 7 5 2h2l2 3 1-2 7-3 3-5v-3l-3 2h-2l-2 2-4-2-3 2q-2-2-5-2l5-2-4-4h-5q-3-1-1-2l-1-2-2 1-3-1q-3-1-1-2-3-1-4-3h-2q-2-2-3 1l-4-1q-5-5-11-8Zm44 2-1 3-10 4-3 3h1l7-1 3-2q3 2 10 1l4 2h4l-4-4-9-3 1-2h-1zm74 2-1 1h-4l-8 3v1l8-1 1 2 3-1 2 1 1 3 8 6h1l-7-13zm220 3q-2 4 0 7l6 3h2v2h3v-1l5-3h2l2-3v-5l-2 2q-4-1-4 1-4 1-4-1l-3 2-2-2h-2zm-245 5-1 2 2 4 5 6 1 3-3 1-2-1q-5-1-5 1l-4-2 2-3-2-5-4-3-2 1 1 10h-1l-1-2-3 1v2l-3-1-5-7h-1l-4-5h-5l-1 1h-3l-6 2v1q4 1 7-1v2h5l3 5 8 5 1-2 6 3h5q2 3 7 4l2 3 9-5 1-2 3-3h9l1-1 10 7h5l8-6h2v2h3v-1l8-4 1 3h2q2 1 1 4l4 2h3q1-2 2 0h6l1-1 4 8 4 2 4-2 6-1q2-1 1-2l-5 1-1-1-2-2-1 2-3-3-7-7-2 1-5-1-1-3-2 1-3-1-2-2-1-1-2-4q-1 2-4 1l-2 2q-4 1-4-1l-2 1-6-1-2-2-2 1 2 7 2 1-5 3-1-3-2 1-1 2-5-3h-2l-5-4q-5 1-6-1l-1-3-3 1-2-1-2-2-3-3zm217 1-12 4v1l8-1v2h5l6 8h-3l-5 4-2-1h-7q-2 2-5 1l-2 1 3-6-2-5-4-3-2 1q-1 5 2 7l-1 3h-1l-1-2-2 1-1 2-3-1-4-6-3-4-4 4v2l-4 3-1-1-2-1-1 2h-1q-5-2-6-7l-2-2-2 3v4l2 4 5 4-10 2-2 2 1 2 6-2 2 5 2 1-3 1 13 8h4l10-7h5l9-6 2-2v-1h-2l-9 5-1-1-2-2-1 3-9-5-4 1 10 7-7 4h-2l1-2h-1l-2-1-1 3-2-1-2-6-3-3v-2q1-3 3-1 6-1 10-5l3-5 4 4 6 3h4l-1 2 1 3h2l5-3q5-1 6 2l3-1q2 1 1 6l2 1q3 1 4-2 1-6-3-7l2-2q3 1 4-1 3-1 4 2l3-2 9 5h3l-1-2-3-3-1-1q-4-2-6-5h-3l-3-3 6-1 4-2q3 0 4 2l2-1h3l2 2 5 2h3l-2-3-9-8h-4q-2 3-6 2l-5 4-3 1q-3 0-3-4l-1-2zm-92 6q-2 5 1 8l-1 3h-1l-3-1-1 2-3-1-4-6q-1-3-2-1l1 5 7 5 3 1h6l4-6-2-6zm-160 12-1 5 1 3 2 1 6 2v2h3v-1l5-3h2l2-4v-4l-6 3-3-1-3 1-7-2zm55 1-1 3q-1 2-5 1l-6 4-2-1-6 3q-4 1-4-1l-2 1-6-1-2-2-2 1v3l2 4 7 2v2h3v-1l7-3 2-4q1-3 8-2l3-2q3-1 4 1 3 1 4-1l9 3 1 2h6l3-2h2l1 2 2-1h3l7 4h4l-6-7q-5-1-6-4h-4l-2 2h-3l-5 3-14-6 1-2-1-1q-1 2-2 0Zm-10 10-1 2 9 6-3 2 3 2-3 2-6 1-1 2 4 1h5l5-2 3-3h5l2-2 6-1 1 2 3-1 2 3 1 5 2-1 11 7 10-6q1 2 6 1l2 2q5 1 6-2h5l6-3-3-3h-10l-1-1-2-1-1 2h-5l-2-5-1-1q-4 2-5 7l-3 2-2-3-2 3-2-1q-3-2-4-5-3-4-7-6-4-1-4 1h-7l-5 3-5-5-6-4zm144 6-1 2-8 1-4 3 1 2 6-2 2 4 9 7 1-2-5-9 1-4zm-31 6-1 3 3 5 1 1-6-2-2-2-2 1q3 4 10 6l5-1 2-4-5-6q-5 1-5-1Z" opacity=".02"/><path stroke="#000" d="m89.5 185 3.5 2.5 1 2-1.5-.5q-4.1.6-5.5-1.5l.5-1.5zm123 352 2.5.5-2.5.5zm-97 4q2.5 1 1 2l-1.5-.5zm257 72 2.5.5-2.5.5z" opacity=".02"/><path stroke="#000" d="m294.5 0 2.5 3.5-1 3q1 2.5 2 1l.5-3.5 1 2 6 2q1-2 5-1l2 1 3-1 3-3 1 4 4.5-2.5.5-1.5 6 1 8 7h4q.8 2.8 5 2l3-1 1.5.5-1.5 1.5-8 1-6 2-3-5-4-2h-10L309 15.5l.5 1.5-2.5-.5-.5-1.5-6-3-1 5-5.5-3.5-.5-1.5-2.5-1.5-3.5-4.5-3 2h-2l-.5-1.5 2.5-2.5 9.5-1.5z" opacity=".98"/><path stroke="#000" d="m354.5 3 4 1 1.5 1.5v2l6.5 8.5 1.5-.5.5-1.5 1 1 2-2 .5.5q-2.2 1.3.5 2.5l1.5-4.5q-2.8-1.7-2-7l1.5.5 4 1 1-2q1 2 2 0h4l6.5 3.5 4 6v3l-3 2 4.5 3.5 1-2 2.5.5.5 1.5 3.5-2.5-1-5q1-2.5 2-1l.5 1.5 4-2 2 4q1-2 5-1 1 2 2 0 5.2.7 6-3l.5 3.5-1 2 5 3 .5 1.5 3 2 1-2 2.5 1.5q-2.2 1.3.5 2.5l7 1 1-2 3 3 4 1q1-2 5-1l2 1 5.5-2.5.5-1.5.5 4.5-3.5 4.5h-2l-3.5 2.5-.5 1.5-2.5-.5-.5-1.5-7.5-3.5-1.5-2.5-6 2q-.7-1.7-4-1-1 2-2 0-3 .5-3.5-1.5l-1.5-3.5-2.5-1.5-2.5-4.5-6.5 3.5-.5 1.5-1.5-.5-.5-1.5-3-1-6 5-5 2-10.5-6.5-.5-1.5-7.5.5 4 2 1 2v6l1 3-.5 1.5q5.3-1.2 6.5 1.5l4 5v2l2 2 1 4-1.5-.5-6.5-4.5-3.5-4.5-3 1q-1.5-3.5-8-2l-1.5.5.5-1.5 5.5-1.5q-2.8-1.7-2-7l-1.5-1.5-2.5-.5v-4q-2.5-.5-2-4l4-1 .5-1.5 6-1 2.5-1.5-2-3 2-3-7.5-4.5-.5 1.5 2 5-4.5 6.5h-7q-.7-1.7-4-1l-7.5-6.5-1.5-2.5h-4q-.5-2.5-4-2-1.3 2.2-6 1V7l9-3h3zM378 21v1h2zM269.5 4q4.1-.6 5.5 1.5v2l4 4 3 7-1.5.5-12-10-2 1-1-2-8 1q-1.5-1 1-2l10-2zm-17 5 2.5 6.5-4 7 2.5 3.5 9 3 .5-2.5-3-5 3.5-.5 8 6 2-1 1.5 1.5-.5 1.5q1.8 1.7 6 1l4.5 3.5-3.5 1.5h-9l-1 1-4.5-3.5-1.5-2.5-9 1-4 2-1-2-.5 2.5 2 3-3 5 3.5.5q1-2 5-1l2-2 2.5 2.5-2 2 .5.5 5-3h7q.8-1.7 4-1l2 1 3-3 9-1 2-2h2l3-2q3.3.8 4-1h8l6.5 5.5q1.3 6.3-2.5 7.5l-2.5-1.5v-2l-2.5-3.5-3 1-2-3q-6.1.9-9.5 4.5l4 7v3l-1.5.5-8.5-6.5q.5-4-2.5-4.5l-5.5 2.5 4 4v4l-4.5 3.5q-2.1-1.4-1.5-5.5l-2.5-2.5-3 1-1-2-6 1-2.5 2.5 2 6-1.5.5-4.5-2.5-1.5-2.5-2.5-1.5-1.5-3.5-7 1-1-2h-4l-5-2-7 5-3.5.5v3l-2.5 4.5-7.5 3.5-.5 1.5-2.5-.5-1.5-2.5-4-1-2.5-2.5-1-6 .5-.5 2 2 5 2q1-2 5-1l2 1 6.5-3.5-6.5-3.5-6-5-7 3-1-1-4 4-1.5-.5-1-5-2.5-2.5-3 1-1-2h-3l-5 3h-3l-.5-3.5 5.5-3.5h7l4.5-1.5-1-3 1.5-.5 7.5 6.5 2.5 3.5 1-2 2.5 1.5.5 1.5 5-1v2l7 4h2l-.5-1.5.5-1.5 3.5 1.5-.5 1.5 5.5-2.5-4-6 1.5-2.5 4 7 5-1 1 1 1.5-.5.5 1.5 1.5-.5-1-10 1.5.5 4 1 .5-1.5-5.5-4.5-3 2-8-4-10 7h-4L209 21.5l2.5-.5 9 5 1-3 2 1 1.5-.5.5 1.5h2l5.5-3.5q-3.2-2.3-4-7l2.5-4.5 2.5 1.5q1.1 5.4 5.5 7.5l1.5-.5.5-1.5 2.5.5.5 1.5z" opacity=".98"/><path stroke="#000" d="M290.5 19q1 2 5 1l4.5 4.5-.5 4.5-6 2q-7.4-2.6-11.5-8.5l.5-.5 2 2 5 3h3l.5-1.5-3-4zm23 3 2 1 1.5-.5 2.5 3.5 7 2 2.5-1.5.5-1.5 3 2 1-2 4 2 7 1 1.5 1.5q-3.7 1.8-.5 3.5h3l4 2 2.5-1.5-3-4v-3l.5-.5 2.5 2.5q.9 4.6 4.5 6.5l2.5-.5-.5-1.5 3-1v2l2.5-1.5-2-6v-3l1.5-.5 3 1 2.5 2.5 1 5-1 3-3.5 3.5-3.5.5 2 3-1 3 3 3v2l2 3-1.5 2.5-4.5-2.5-1.5-2.5-2.5-1.5-2.5-4.5-6 2-.5-1.5 2.5-2.5 8-1 1.5-1.5-.5-1.5-7-3-1 1-8 1-5 2-4-6q-5-1-6 2h-5l-2-2-8-1-4-3h-4l-1 1-7 1q-1.5-1 1-2l5-3 5-1 1.5-1.5zm95 10 7.5 5.5 3.5 4.5 1-4 8 4 3 3h2l1-1 12.5-.5.5-1.5 2.5.5.5 1.5h7l3-2 4 2 3-4 3-2 12-1 2.5 1.5.5 1.5 1.5.5 2 3v4l-3.5 3.5-1.5-1.5v-3l-2.5-3.5-3 1q-.7-2.7-5-2l-6.5 3.5 3 1 1 3-1 3 2 3-1 1-.5 7.5-3.5-2.5-2-4v-3l-2.5-3.5-2.5-.5q2.3-1.2-.5-2.5l-3 2h-5l-4 2-3-2h-11l-4 2q-1.3-4.7-5-7h-3l-5 2q-1-2-2 0-4.8-.8-7 1l-3-1q-1 2-2 0-3 .5-3.5-1.5l-8-12 3.5-.5 9 7 1-2 2.5 1.5-1 2 5.5.5.5-.5-2-2-2-6zm-234 7 4.5 2.5 4 5v2l3.5 5.5 3-1 1.5 1.5q-2.2 1.3.5 2.5h4l6 2 1.5-1.5-.5-1.5 2 1 1.5-.5 1.5 2.5q7.7 2.3 13 7l1-1 4.5-.5-1-1 2.5-2.5 10.5-4.5-.5-1.5 3.5.5-.5 1.5 6 2 4 3h3l2-3 2.5 1.5.5 1.5 1-1h7q.8 1.8 4 1l1.5 1.5-3 2 2.5 2.5.5-.5.5-1.5 2.5 1.5q-2.2 1.3.5 2.5l7 1 2.5 2.5-2.5 1.5q-4.2-.7-6 1-.7-1.7-4-1-1 2-2 0l-3.5-1.5q.5-3-1.5-3.5l-2.5-1.5-.5-1.5q-3.5-.5-4 2h-5q-.5-2.5-4-2-1 2-2 0l-4-1-3.5-2.5.5-1.5h-7l-4.5 1.5 1 2q-3.5 1.5-1 3l4 7v3q-2.2 1.3.5 2.5l5 2q2.8-1.3.5-2.5l-2-5 2.5-.5q.8 1.8 4 1l1-1 3 3 4 1q1-2 5-1l2 1 3-1 3-3 .5 4.5-2.5 3.5-6.5 3.5-.5 1.5-2.5-.5-.5-1.5-5-2-4 2h-5l-7.5-5.5-6.5-7.5-1.5-.5q.5-4-2.5-4.5-1.4 2.6-6 2l.5-1.5 1-2-1.5-1.5q-4.6.6-6-2h-10l-4.5 1.5 6 4v7l1.5 1.5 7 5 3-1 2 4h4l4.5 2.5-.5 1.5-3 1h-12l-6-7-1 3-3.5-3.5-2-4v-4l-1.5-1.5-2.5-.5v-4l-2-2q.8-3.7-1.5-4.5-3 .5-3.5-1.5l-1.5-3.5-2.5-1.5-3-7 1-1-2.5-2.5-4.5-.5-.5-1.5-3 1h-5v-1l6-2h3zM189 62q-2 1 1 2l2-1z" opacity=".98"/><path stroke="#000" d="M326.5 41q7.8 1.3 11 7l3-1 1 3 7 1 2.5 2.5-.5 1.5-3 1-2-1-3 1-3-1-2 1-4.5-2.5q.5-3-1.5-3.5l-8 5h-5l-8-5-3.5-3.5 2.5-.5 10 5 1-2q1 2 2 0l1.5.5-.5 1.5 5.5-2.5v-2l-2-2zm149 8 7 9 2 1 1-3 2.5 1.5.5 1.5 4.5-4.5-.5-1.5 1.5-.5 2.5-3.5 3 4 5.5 2.5 5 7-3 5 1.5 2.5 3 1 1-2 2.5.5.5 1.5 4.5-3.5q.6-3.9 3.5-5.5l1.5 1.5 1 5-5 8 6.5 5.5 6 2 8.5.5-3.5 1.5h-4l-1 1-8 1-.5-2.5-7.5-7.5q-1.8 1.7-6 1l-8.5-5.5-1.5-3.5q-4-1-5 1l-5.5-2.5 10-5-2-1 1-4-2.5-.5-4 5-5 3h-4l-8.5-5.5-3-6zm-328 2 3 3 4 1q1-2 5-1l2 1 5.5-2.5.5-1.5 1 6h2l7.5 4.5 1 3q-1.7.8-1 4l1 1v6l-1.5 3.5-3-2-5 4-8 4-5-3h-2l-7.5-6.5 1.5-.5 11 5 1-2q1 2 2 0l1.5.5-.5 1.5h2l4-3 4.5-1.5-2-8-1.5-1.5-2.5-.5 1-3-3.5-3.5-1 1h-2l-3.5 2.5-.5 1.5-2.5-.5-.5-1.5-7.5-3.5q-2.1-2.6-.5-7.5Zm155 1h3l5 4 2.5.5 1.5 2.5 1.5.5 2 3-4.5.5-7-4h-2l-2 1-3-2-4 2h-5l-.5-1.5 7.5-4.5h3zm-29 3 9.5 5.5 1.5 2.5 5 1 3 2q1.3-2.3 6-1v1q-1.8 1.7-6 1l-1 1h-4l-4 2-1.5-3.5-7-7-2-4z" opacity=".98"/><path stroke="#000" d="m144.5 64 2.5.5.5 1.5h11l2.5 1.5-.5 1.5-7 3h-5l-4 2-3-2h-2l-.5.5 4 4v4l-3.5 3.5-2.5-3.5q2-1 0-2l-1.5-2.5-3 1q-.7-2.7-5-2l-5 3h-3l-.5-1.5 2.5-3.5 3-2q5.4.9 7.5-1.5l-3-1 .5-1.5 2-1 12.5-.5zm36 15h3l5 4 2.5.5 1.5 2.5 2.5 1.5 1 2-4.5.5-7-4h-2l-2 1-3-2q-2.3 3.2-9 2l-.5-1.5 7.5-4.5h3zm-66 4h3l10.5 7.5 2 3-4.5.5-7-4h-2l-2 1-3-2-4 2h-5l-.5-1.5zm15 2 3 2 6 1q1-2 2 0l2 1 2-2h2l3-2 .5 3.5-1 3 4 2 1.5 2.5 10 3q.8-1.8 4-1 1.5 1-1 2l-8 1-6 2q-2.2-6.8-8-10l-4.5 2.5-.5 1.5-2.5-.5-.5-1.5h-2l-5.5-3.5q-2-2.3-.5-6.5Z" opacity=".98"/><path stroke="#000" d="M226.5 89h10l6.5 6.5-1 2 1 1-2.5 2.5-2 1-4-8-3 2-2-3-3.5 1.5 4 2-7.5 3.5h-5l-3.5 2.5 2 3-1 3 3 3 1 7-1.5-.5-3.5-1.5-2.5-3.5-1.5-.5-2.5-4.5-6 2-1-3-3 1q-.7-1.7-4-1-1 2-2 0l-3-1-3 1-6.5-5.5-3.5-4.5-3 1-1-2-8 1v-1l13-4 1 1h6l4.5 2.5 1.5 2.5 3 1 2-1 1.5 1.5q-2.2 1.3.5 2.5h4l5 3h4l3.5-1.5-.5-1.5-3-2-9-1-3.5-2.5 4.5-2.5 10.5-.5.5-1.5 2.5.5.5 1.5 3.5-.5.5-1.5zM188 103l-1 3h1zm367.5-13 2.5 2.5q-3.5 1.5-1 3l4 7v3l-1.5.5-8.5-6.5q.5-4-2.5-4.5-1.4 2.6-6 2l.5-1.5 1.5-2.5 9-1zm-445 5h2l5.5 3.5.5 1.5 3 2 1-2 2.5 1.5.5 2.5h7l8-3h5l8 11 6-2 2-2h3l12 8q1.7-2.8 7-2l3 3 6.5 3.5 1.5 2.5q4.6-.6 6 2l8.5.5-7.5 2.5-8 1-4-5-7-4-3 2q-.5-2.5-4-2l-4 2h-4l-.5-1.5 3-2-.5-1.5-3-2h-2l-3 1q-1.5-3.5-3-1l-3 1h-6l.5-1.5-2.5-3.5-1.5-.5-3.5-4.5h-3l-3-2-3.5 1.5 2 2-.5.5-8 2q-.7-1.8-4-1-1 2-2 0l-3.5-1.5-.5-2.5q-4.6-.6-6 2l-3-1q-1.3 3.3-7 2l-4-2-2.5 1.5 3 2 1 2q-1.7.8-1 4l1 1v7l1.5 1.5 5 4h3l3 2h2q.8-1.7 4-1l.5 1.5-15.5 3.5-.5-2.5-9-10-1-8-1.5-1.5-2.5-.5 1-3-2-1-1-4 1.5-.5 2 1-1-3 8-2q1 2 5 1l2-3 1.5.5 1.5 2.5q4.8.8 6.5-1.5l-2-4z" opacity=".98"/><path stroke="#000" d="m110.5 111 2 2 5 2q1.2-2.3 6-1 1 2 2 0h2l4-3 .5 3.5-2.5 4.5-7.5 3.5.5 2.5 6 4 2-1 1.5 1.5-.5 1.5q1.8 1.7 6 1l4.5 3.5-5 2q6.5.5 9 5l.5 4.5 1.5-.5.5-1.5 2.5.5 1.5 2.5 4 1 8 6q1-2 2 0 6.4.7 8.5 5.5l-.5 5.5-4 2q-2.1-1.4-1.5-5.5l-2.5-2.5q-1.7 3.8-3.5.5l-.5-1.5-5 1-2 2-4 1-.5-3.5 4.5-3.5 4.5-1.5-3.5-.5-2-2h-11l-1 1-7.5 1.5 6 2-3.5 2.5-6 2-1.5-.5 2.5 3.5q1.5-2.5 3 1 1.8-1.7 6-1l1 1 2-2q1 2 2 0l3-2 .5 4.5-2.5 3.5-6 2-1.5 1.5q1.3 2.8 2.5.5l10.5-.5-.5-1.5 2.5.5.5 1.5 3 1 1-1h6l4.5 2.5-3.5 2.5-9 1q-1 3-6 2l-2-2h-5l-6.5-3.5q2-1 0-2l-1.5-2.5-6.5-2.5-1.5-7.5-4 2-6-3-2.5 1.5 2.5.5 5.5 4.5-3.5.5q-.7-1.7-4-1l-2-2h-4q-1 2-2 0h-4l-4.5 1.5.5 3.5 8 3 4.5 3.5-4.5.5-6-3h-3l-2 1q-.7-1.7-4-1-2.3 3.2-9 2v-1l2.5-1.5q.6-4.1-1.5-5.5l-4 1-1-2h-4l-5 3h-2l-1-2h-11l-2.5-2.5-.5-2.5-2.5-1.5-4-8 1.5-.5 6.5 3.5 1.5 2.5 2 1 3-1 1 3 9 2q1.3-2.2 6-1l1.5-1.5-2-3-1-5-1.5-1.5-2.5-1.5 1-3-3.5-1.5q-.7 1.8-4 1l-2-4-5.5-4.5-2-3v-2l.5-.5 2 2q6.1 1.4 9 6l6 2h7l.5-1.5-.5-1.5 5 1 7 6 1-2 2.5 1.5q-2.2 1.3.5 2.5h4l5.5 3.5-2.5 1.5q-4.7-1.2-6 1-.8-1.7-4-1-1 2-2 0-3 .5-3.5-1.5l-6.5-8.5-3.5.5.5 1.5q3-.5 3.5 1.5v6l1 1 .5 7.5q6.1 1.4 8.5 6.5l.5 2.5 3.5-2.5-2-2 .5-.5 13.5-6.5q-2.2-1.2.5-2.5 1.8-1.7 6-1l1-1q1.3 2.3 6 1l1-2 2.5.5.5 1.5h5l3-1q2.2-3.3 6.5-4.5l-10-5-3-4 .5-.5 3 3 8 3-.5-1.5-3-4-.5-3.5h-9l-2.5-2.5-2.5-3.5-1.5-.5-3-6v-2l.5-1.5-5.5-2.5-2-4zm31.5 37v1h2z" opacity=".98"/><path stroke="#000" d="m150.5 117 5 2 2 2 5 1 6.5 4.5-1 5 2 3q-2.3 1.2-1 6l1.5-.5 4 1 1.5 1.5 7 12-2.5.5-6.5-5.5-3.5-4.5-3 1-1-2-8 1v-1l7.5-2.5-3-5v-3l-1.5-3.5-3.5-.5 1-3-1.5-.5q-.3 4.7-4 6l-3 1-6-2-6.5-5.5-1-5q1-1.5 2 1l3.5 6.5 3 1 1-2 1 1 2-2 .5.5q-2.3 1.2.5 2.5l1.5-4.5q-3.2-2.2-1.5-7.5Zm-79 6q7.3 1.7 11 7l6 2 7.5.5-7.5 2.5h-4l-4 2-.5-2.5-9-10zm111 9 6 1 3.5 3.5-.5 5.5-7 1-6-3-3.5-3.5-1-2 .5-.5 4 4 5 2 1.5-2.5-3-3zm-84 6 6 2 4 3h2v-2l2 1 1.5-.5.5 1.5h2l2-2 7-3 .5 1.5-7.5 5.5-7 3-8-4-5.5-4.5zm-63 30q6.8 2.7 11 8l6 2 7.5.5-3.5 1.5h-3l-1.5 1.5 5.5 3.5 3-2q4.2.7 6-1 1.3 2.3 6 1l2-3 2 3q4.2.7 6-1l1 1q4.8-1.2 6 1l1-3q1 2 5 1l4 3 10-5h3l10.5 7.5 2 3-4.5.5-7-4h-2l-2 1q-.5-2.5-4-2l-5.5 2.5q.5 3-1.5 3.5l-5 1-3-1-6-5-3 2-2-1q-2 3-8 2-1-2-5-1l-1 1h-4l-6 2-3-5-.5 1.5 2 3-2 3v2l-2 2 5.5 4.5 2-1 1 3q1.8 1.7 6 1l3.5 2.5-.5 1.5-3 1h-6l-2-1-3 1-3.5-2.5q.5-3-1.5-3.5l-1.5-.5-1.5-2.5-6.5 1.5 3 2 7 12-1.5.5-7.5-5.5-3.5-4.5-3 1-1-2-8 1q-1.5-1 1-2l6-2h4l2.5-1.5-8-6-2-6 2.5-4.5 8 10 2-3 1.5.5 1.5 2.5 3.5-3.5 4-7q-1.4-4.1-7-4v-2l-3.5-3.5-1.5-.5-4-6zM90 185l-2 1-1 2q1 2 6 1v-1zm36.5-14q4.1-.6 5.5 1.5l7.5 13.5q1.7-2.8 7-2 2.2 3.4 6.5 4.5l.5 1.5 3.5 2.5 1 2-3.5.5-9-5-3 2q-.5-2.5-4-2l-1 1-7 1-.5-1.5 7-4-.5-1.5-6.5-5.5-2.5-3.5-4 1-1-2-8 1v-1z" opacity=".98"/><path stroke="#000" d="M109.5 190h2l5.5 3.5 1.5 2.5 2 1 1-2 2.5 1.5.5 2.5 3 1q1-2 2 0l5 1q.8-2.7 5-2l11.5 8.5 1 2-4.5.5-8-4-2 2-3-3-1 1-3 1h-6l.5-1.5-.5-1.5-5 1-3.5-2.5q.5-3-1.5-3.5l-2.5-1.5-3-6zm-43 3 4 1 7.5 4.5q-1.2 6.2 1 9l-1 2q.8 2.3 4.5 1.5l2-1q6.8 2.7 11 8l5 1 3 2q1.3-2.3 6-1v1l-6 1-1.5 1.5q6.6 2.4 10.5 7.5h4q.5 2.5 4 2 1-2 5-1v1l-10.5 2.5 7 6 2.5 3.5 1.5-.5.5-1.5 2.5 2.5-.5 1.5q1.8-1.7 6-1v1l-6 2h-3l-1 1h-3l-5.5-6.5-2.5-7.5-4 1-1-3-1.5 4.5 3 3 1 7-.5.5-2-2-6.5-4.5-2.5-4.5-2.5.5q.5 3-1.5 3.5l-7 1-7.5-4.5-3.5-4.5q-4.2-.7-5 2h-4l-2-2-9-1-3.5-2.5 4.5-2.5 10.5-.5-1.5-1.5q-6 1-8-2h-8l-1-1-3 2h-3l-3.5 1.5v2l-3.5 3.5h-6l-6-3-3.5-3.5-1-5q1-1.5 2 1l2.5 5.5 3 2h2v-2l1 1 2-2 .5.5-.5 1.5 2.5-1.5-2-6v-3l1.5-.5 3 1 2.5 2.5q-.5 3 1.5 3.5l2-2 8.5-3.5.5-2.5 3.5 1.5-.5 1.5 9 4 3 3 3.5.5.5 1.5h9l4.5 2.5-7 4 3.5 3.5 5 2 1.5-2.5-3-5 2.5-.5q.8 1.7 4 1l2 2h5l1-1 4.5-.5.5-1.5 2 2 .5-.5-1.5-2.5-3.5-2.5-3.5-5.5-5 2-2-3-4 2-4-8-3 2-2-3-10 4-.5-3.5 5-4q-2.8-1.7-2-7l-1.5-1.5-2.5-1.5q.8-4.2-2-5z" opacity=".98"/><path stroke="#000" d="m95.5 196 2.5.5.5 1.5h11l2.5 1.5-.5 1.5-3 2-9 1-4 2-3-2h-5l-7.5-3.5 3.5-2.5 11.5-.5zm7 10 3 1 3 3 2.5.5 1.5 2.5 7 3q2-4 4 0l3.5.5-2 1v2l4.5 4.5 1.5-.5.5-2.5 2.5 1.5.5 1.5 8-10 2.5 6.5q-1.7 4.8-5.5 7.5l-5 3h-5l-7.5-5.5-3.5-6.5-7 1-.5-2.5-8-8q-1.7-1.5-.5-3.5Zm-57 26h6l6.5 3.5 2.5 3.5 1-2 7 2 4.5 3.5v6l1.5 3.5q3.5-.5 4 2l4-2 3 2 2-2h2l3-2 .5 2.5-1 3-2.5 2.5-6.5 2.5-.5 1.5-2.5-.5-.5-1.5-6-2-2 1-3.5-5.5-1-6-1.5-1.5-2.5-.5 1-3-1.5-.5-4 5-6 3h-5l-3.5-1.5-.5-1.5-3 1-8-4 .5 1.5-1.5 1.5-6 2q-7.4-2.6-11.5-8.5l1.5-.5 4 4 6 2 .5-1.5q-3.6-1.9-4-7l1.5.5h5l6 5 6 2 .5-1.5q-3.2-2.3-4-7l1.5.5h4l5.5 5.5-1 3 2.5.5 4.5-2.5-3-2 3-2-9-6zm51 17 7.5 5.5 2.5 4.5 1.5-.5.5-1.5 2.5 1.5.5 1.5q4 1 5-1 1 2 2 0l5.5.5 1.5 2.5h2l7.5 7.5-4.5.5-9-5-3 2-1-2-10 2q-2.5-1-1-2l2.5-1.5-2.5-.5-2 1-3.5-2.5v-2l-3-3-2-6zm-84 3 5 2 6 5 3-1 .5 1.5-.5 1.5 7 1 3.5 2.5-.5 1.5-2.5.5 8 2 .5 1.5q4-.5 4.5 2.5l-1 5 1 1v8l-.5 1.5 2-1q4.8 2.3.5 4.5l3.5 4.5 6 3h2v-2l2 1 1.5-.5-.5 1.5h2l3.5-2.5-2.5-4.5-1 1-3.5-3.5-2-4v-4l-1.5-1.5-2.5-.5 1-3-3-3v-2l3.5-.5 7.5 3.5 1 2v6l1 3q-2 1 0 2l.5 2.5h2l8 6 2-1 1.5 1.5q-2.2 1.3.5 2.5h5l5 4 4.5-2.5.5-2.5 3.5 1.5-.5 1.5 9 4 3.5 3.5-1.5-.5h-5l-3-2h-8l-1-1-3 2-7 1q-1.5-1 1-2l2.5-1.5-3.5-.5q-1 2-2 0-3.2-.7-4 1l-4.5-2.5q.5-3-1.5-3.5l-10 5-5-3h-2l-2 3-1-2-3.5-1.5-1.5-2.5-2.5-1.5-1.5-3.5-1.5.5 1 3-4.5 6.5-7 4h-3l-8.5-6.5-2-4v-4l1.5-2.5 1.5.5-3.5-4.5-3 1-2-3-1 1q-4.8-1.2-6 1l-.5-1.5 6.5-2.5h4l2.5-1.5-5-4-2-4v-5l1.5-2.5 8 10 1.5-.5 1.5-2.5 2 3q4.4-2.1 5.5-7.5l-4.5-1.5q-.7 1.8-4 1L13 256.5zM36 271l-3 4v2q-5 4-12 7l4 4 3 7v1l-6-5-2 1 2 3 6 4v-1l3-1 1 2 4-3-1-3 3-3h4l3-1-4-6q1-5-1-6l-4-1q2-1 1-4z" opacity=".98"/><path stroke="#000" d="M43.5 253q4.5-1 5.5 1.5l6.5 9.5 4 2 1-3q1 2 2 0l1.5.5-1 2 1.5-.5 8-4h2l.5.5-2.5 2.5-9 6h-5l-1-2-4-1-6.5-5.5-2.5-3.5-3 1-2-3-1 1-7 1q-1.5-1 1-2l10-2zm48 9h3l5 4 2.5.5 1.5 2.5 2.5 1.5 1 2-4.5.5-8-4-2 2-3-3-1 1-3 1h-6l-.5-.5 2.5-2.5 5-3h3zm-24 7q6.1 1.4 8.5 6.5l2.5 3.5 1-2 2.5 1.5.5 1.5 2.5-.5.5-1.5q4 1 5-1l8 4 11.5-5.5.5-1.5 2.5.5 1.5 2.5 4 1 7.5 5.5-3.5.5q-.7-1.7-4-1l-2-2h-11q-.7 1.8-4 1l-1.5 1.5 2 3v3l-6.5 5.5-7 1-4.5-2.5 1.5-1.5h3l4.5-2.5-.5-1.5-1.5-.5 2-3-4.5-3.5h-5l-7 3-3.5-2.5-1.5-3.5-1.5-.5v-2l-3-6z" opacity=".98"/><path stroke="#000" d="M112.5 288q1 2 2 0l3.5 1.5 1.5 2.5h2l6.5 6.5-.5 1.5-5-1-6-4h-2l-2 2-.5-.5-.5-1.5-11 1-.5-.5 2.5-2.5 6-3h2zm-110 14h3l8 6 2-1 1.5 1.5-.5 1.5 2-1 2 2 4 1 2.5 2.5-3 1 3.5 3.5.5-.5 1.5-2.5 1.5.5.5 2.5 3.5-2.5 4.5-7.5 6-2 8-1 7 8q3-.5 3.5 1.5l1.5 2.5q4.6-.6 6 2l8.5.5-7.5 2.5h-5l-3 1-2-3-3-1-5.5-4.5-3.5-4.5-3 1-1-2q-4.5-1-5.5 1.5 2 1 1 5l-3.5 5.5-3.5 2.5q1.4 2.1 5.5 1.5l2-1q.8 1.7 4 1l6-3 .5 2.5-1 1 5.5 5.5 3-1 2.5 1.5q-2.3 1.3.5 2.5 4-1 5 1l.5-1.5q-1.7-.7-1-4 1-1.5 2 1l3.5 6.5 3 1 1-2 1 1 2-2 .5.5q-2.2 1.3.5 2.5l1.5-4.5q-2.8-1.7-2-7l1.5-.5 5.5 3.5 1 5-1 3-3.5 3.5h-6l-5-3h-3l-6 2q-.7-1.7-4-1-1 2-2 0-3 .5-3.5-1.5l-5.5-7.5-6.5 2.5-.5 1.5-2.5-.5-.5-1.5-6.5-2.5-2.5-4.5h-3l-8.5-6.5-1.5-3.5q-3.2-.7-4 1L9 313.5 6.5 310l-1.5-.5v-2l-3-4zm114 3 5.5 3.5 2 5-3.5 6.5-5 1-9-4-2.5-2.5-1-5q1-1.5 2 1 .9 4.6 4.5 6.5l2 1 1-3 1 1 1.5-.5.5 1.5 1.5-.5q1.2-4.7-1-6zm-28 3 2.5 2.5q-3.5 1.5-1 3l3 4 .5 2.5 7.5-1.5.5-1.5 2.5 1.5-1 5q3.3 1.3 3.5 5.5h4q.8-2.7 5-2l5 4 2.5.5 1.5 2.5 2.5 1.5 1 2-4.5.5-7-4h-2l-2 1q-1.5-3.5-3-1l-3 1h-6l-.5-.5 3-3-3.5-3.5-1.5-.5-2.5-4.5-6 2q.2-4.7-3-6l-2.5-1.5q.5-3-1.5-3.5l-7 1 .5-1.5 1.5-2.5 9-1zm-74 17q1 2 2 0l1.5.5q-2.2 1.3.5 2.5l9 4 2.5 2.5-3.5.5-7-3h-3q-1 2-2 0h-5l-4 2h-4q-1.5-1 1-2l6-3h2l3.5-2.5zm84 12 6 1 4.5 4.5q.8 4.3-2 5l5 4 3.5 4.5 1-2 2.5 1.5.5 2.5q.8-1.7 4-1v1l-11 3-2.5-1.5q-.7-4.2-4-6l-1.5-5.5h-4l-4-3-2.5-.5-4-5 .5-.5 3 3 6 3 1.5-.5.5 1.5.5-2.5-3-3zm-68 1q8.1-.1 10.5 5.5.8 3.8-1.5 4.5l-7 1q-6.4-3.1-10.5-8.5l.5-.5 3 3 6 3 1-1 1.5.5-3-4z" opacity=".98"/><path stroke="#000" d="M40.5 339h7l5.5 2.5 5 8-.5 1.5 8.5-3.5.5-2.5 2 1 1.5-.5-1 2 4.5 2.5h2l6.5 4.5-4.5.5-4-2q-6.8 1.3-10-1l-3 2q-4-1-5 1-1-2-2 0l-10 2-4.5-2.5 10-4-.5-1.5-1.5-.5 1-3q-1.6-2.9-5.5-3.5l-2.5-2.5z" opacity=".98"/><path stroke="#000" d="m78.5 343 6 1 5.5 4.5v6l6.5 7.5 2 1 1-2 2.5 1.5-1 2 4.5 1.5q1-2 2 0l7 4h3l2-1 3 1 6-3 .5 3.5-2.5 4.5h-2l-4.5 2.5-.5 1.5-2.5-.5-.5-1.5-2-1-3 7-7.5 3.5-.5 1.5-2.5-.5-.5-1.5q-5-1-7.5-4.5l-.5-1.5-4 2h-4l-7-3-2.5-2.5-2-3v-3l.5-.5 2.5 2.5q.9 4.6 4.5 6.5l2.5-.5-.5-1.5 3-1v2l2.5-1.5v-3q-2.6-1.4-2-6l1.5-.5 3 1 2.5 2.5 1 6 1.5 1.5 4 1q1-2 5-1l2 1 5.5-2.5-.5-1.5-2.5-1.5-1.5-3.5-5 1-3-1-2 1-3.5-2.5-3.5-4.5-1 1-3.5-3.5-3.5-9.5-2.5-.5v-4q-3.1-1.1-1.5-4.5Zm-63 2 6 1 1.5 1.5 2 3v4l-3.5 1.5h-4l-6-3-3.5-3.5-1-2 .5-.5 4 4 5 2q2.7-1.2.5-2.5l-2-3z" opacity=".98"/><path stroke="#000" d="m32.5 356 7.5 5.5 3.5 4.5 1-2 2 1 3-2q4.2.7 6-1 1 2 5 1l1-2 2.5.5.5 1.5q4.8.8 7-1l7.5 2.5-3.5 2.5-6 2q-1-2-2 0l-5 2-6-3-2 1q-1-2-5-1l-9 3-5-3-5 2-8 1-3-5-3.5-2.5-3-4v-2l1.5.5 6 3 4 4 6 2h6l.5-.5-3-3-2-6zm-27 17 5 1 4 3 4 1v-2l3.5.5-.5 1.5h2l2-2 8-3 .5.5-2 2 1.5 1.5h2l6.5 5.5-1 4 1 1v8l-1.5 2.5-2.5-2.5-2-4v-3l-2.5-3.5-2.5-.5 1-3-3.5-3.5-1 1-5 3h-6l-9-6-2.5-2.5z" opacity=".98"/><path stroke="#000" d="m36.5 375 5 1 7 4 .5-1.5-.5-1.5 2 1 1.5-.5.5 2.5 8-5h3l8 10 1.5-.5.5-1.5 2.5 1.5-.5 1.5 6-1v1l-12 4-2-1-.5 5.5 9.5 10.5 3-2 1 2 5.5-4.5q-.5-4 2.5-4.5l1.5.5q1.7 1.8 1 6l-1 3-3.5 3.5-8 4q-6.5-2.5-10.5-7.5l-.5-1.5-2.5 1.5 5 4 3 5-5.5 5.5-4 1-1.5 1.5 1 3-4 7 9.5 4.5 1-2 2.5.5.5 1.5 8.5-4.5-1-5-1.5-1.5q-3.9-.6-5.5-3.5l-2-3 .5-.5 4 4 5 2 1.5-2.5-3-5 3.5-.5 3 1 4.5 4.5-1.5 4.5-2.5.5v2l3.5 3.5 1.5-.5.5-1.5 2.5.5.5 1.5 4.5-3.5-.5-1.5-3.5-2.5.5-1.5 5 2 3-2 2 5 2.5-.5-.5-1.5 2 1 1.5-.5.5 1.5h2l2-2 7-3 .5 1.5-7.5 5.5-7 3-4-2-2 4-10 5-11-6-9 6h-5l-11-8-10-3-2 5-7.5 3.5-.5 1.5-2.5-.5-.5-1.5-7.5-3.5-1-7 .5-.5 3 3 4 1q1-2 5-1l2 1 5.5-2.5-3-4-.5-3.5-4-1-4-3-3 2q-.5-2.5-4-2l-1 1-7 1-.5-1.5 6.5-4.5q4.6.6 6-2h4q2.1 3.3 6.5 4.5l.5 1.5 3.5 2.5 1 2-2 1 4.5 6.5 3 1-.5-1.5.5-1.5 1 1 1.5-.5.5 1.5 1.5-.5 1-4-3-5 1.5-1.5h4l4.5-2.5-3-2 3-2-3.5-3.5h-2l-4-3-7.5 4.5-.5 1.5-2.5-.5-.5-1.5-7.5-3.5-1-7 .5-.5 3 3 4 1q1-2 5-1l2 1 6-3 .5 3.5-.5 1.5q6.2-1.2 9 1l-.5-1.5-3-9-1.5-1.5-2.5-1.5 1-3-2-1-1-4 1.5-.5 6.5 2.5.5 1.5 2.5-.5-5.5-8.5-9 6h-4l-9-6-2.5-2.5z" opacity=".98"/><path stroke="#000" d="M88.5 388h8l8 8 4 1v-2l2 1 1.5-.5.5 1.5 9.5-4.5-.5-1.5q-2.5 2-8 1v-1l10-2 1-1h4l2.5 1.5v2l4 4 3 7-1.5-.5q-6.1-1.4-8.5-6.5l-1.5-2.5h-3l-7 6-7 3-5-3h-2l-4 2-1.5-1.5q.6-4.1-1.5-5.5l-4 1-1-2h-4l-5 3h-2l-.5-3.5 4.5-3.5q4 1 5-1Zm-60 3 2.5 1.5-1 4 3 3 2 6-1.5 2.5-4.5-3.5-1.5-2.5-2.5-1.5-2.5-3.5-6 1-.5-1.5 2.5-2.5h4l1-1 4.5-.5zm80 14 7 9 2.5-.5.5-1.5 4 2 7-9 2.5 6.5-2 3 9.5.5 4.5 3.5 2 3v4l-4.5 2.5q-2.5-1-1.5-5.5l-2.5-2.5-2 2-3-3-10 4q-1.2-2.2-6-1l-8-6h-3q-1.4-2.6-6-2-1 2-2 0-5.3-.8-7 2h-5q-1.5-1 1-2l5-3h3l3.5-2.5-.5-1.5 2 1 1.5-.5q-2.2 1.3.5 2.5l4 2zm20 23 5.5 3.5q1.7 1.8 1 6l-.5 1.5 3-1h6l1-1 5 2 2.5 2.5 2 3v4l-4.5 2.5q-2.5-1-1.5-5.5l-2.5-2.5-2 2-3-3-10 4-1-3-1.5.5 1 5q-2 1 0 2l1 3q-1.7.8-1 4l4.5.5q1.3-2.2 6-1l3 5 3-4 8-1 2.5-1.5.5-1.5 2.5 3.5q-3.5 1.5-1 3l3 4 1 6-1.5.5-8.5-7.5-2.5-3.5-5.5 2.5 3 5 1 4-1.5-.5q-4.8-1.7-7.5-5.5l-2.5-3.5-4.5-.5-.5-1.5-4 2-2-1-1.5.5 1-3-2-3q.8-4.7-1.5-6.5l-2.5-.5v-3q-2.7-.7-2-5 2.5-1.5-1-3l-2-3 1.5-2.5 6 8 2 1 .5-1.5-.5-1.5 2 1 1-2 1 3q2.5-1 1.5-5.5l-1-1zm-74 7 2.5 2.5q-3.5 1.5-1 3l4 7v3l-1.5.5-8.5-6.5-2.5-4.5q-1.4 2.6-6 2l-.5-1.5 2.5-2.5 9-1z" opacity=".98"/><path stroke="#000" d="m101.5 443 5.5.5 1.5 2.5 3 1 6.5 6.5-4.5.5-9-5-3 2-1-2h-3l-3.5 1.5 5 4-1.5-.5h-5l-3-2h-8l-1-1-4.5 2.5 1 2-3.5 6.5-5 1-10.5-5.5-2-3v-3l.5-.5 2.5 2.5q.6 3.9 3.5 5.5l2 1 1-3 1 1 1.5-.5.5 1.5 1.5-.5-1-11 1.5.5 5 2 7.5-3.5-1-2 1.5.5 2-1 2 4 3 1 2-2zm-54 9 3.5 1.5.5 1.5 3 1 6.5 6.5-.5 1.5-5-1-7-4-3 2-1-2-8 1-1 1-2.5-1.5 6.5-4.5 5-1z" opacity=".98"/><path stroke="#000" d="M90.5 459h3l3 3 6 3 6-4h3q.5-2.5 4-2l5 4h2l6.5 6.5-5.5.5-6-4h-2l-2 2-3-3-1 1-5.5 1.5 2 2-.5.5h-4l-7-4h-2q-2.5 1-1 2h3l8.5 5.5-1 5 2 3-1 1-.5 7.5-3.5-2.5-3.5-10.5-2.5-.5v-3l-3-4q2-1 0-2l-1.5-2.5-4 2-4.5.5 3 3 4 8-1.5.5-11-10h-2l-1.5.5-1.5-2.5q-2.7 1.3-.5 2.5v3l-4.5 6.5-8 4-10.5-6.5-2-4v-3l1.5-3.5 3.5 2.5q.9 4.6 4.5 6.5l1.5-.5.5-1.5 2.5.5.5 1.5 4.5-3.5 1-3h-2l.5-1.5 10-2 1-1h4l2 1 2-2q3.5.5 4-2h3z" opacity=".98"/><path stroke="#000" d="M109.5 473h2l6 3 6 6 4 1v-2l2 1q1-2 2 0l12-6h5l6 5 .5-2.5-2-5 1.5.5q4.6.9 6.5 4.5l3.5 4.5 1-2 2.5 1.5.5 1.5 5-1v1l-11 4-1-1h-5l-3-1-7-4q-2 4-4 0h-3l-4 3-7 3-6-3-7 6q-4.2-.7-6 1l-5.5-2.5 10-4-.5-1.5-1.5-.5 2-3-8-6z" opacity=".98"/><path stroke="#000" d="m79.5 478 6.5 2.5.5 1.5q3-.5 3.5 1.5v6l1 1 .5 6.5 5-3h3l2-2h3l2.5 1.5.5 1.5 13 7 .5-1.5-.5-1.5 2 1 1.5-.5.5 2.5 7.5-4.5.5-3.5 2 3 1.5.5q-2 1 0 2l1.5 2.5 3 1 1-2 1.5.5.5-1.5 1.5.5-.5 1.5 1.5-.5 1-3q-2.8-1.7-2-7l1.5-.5 7 3 6 5 2-1 1.5 1.5-.5 1.5 9 2 .5-2.5-3-3-2-7 1.5-.5 6.5 5.5 2.5 3.5 1.5-.5.5-1.5 1 2 1.5.5-.5 1.5q1.8-1.7 6-1v1l-9.5 2.5 6 4 .5 7.5 3-2h3l2-2h3l10.5 7.5 2 3-4.5.5-7-4h-2l-2 1-3-2-4.5 2.5-1.5 5.5-3.5-3.5-2-4v-4l-1.5-1.5-2.5-.5q1-4.5-1.5-5.5l-2 1h-13l-5-6-4 5h-6l-10-6-9 6h-4l-2-2-8-2q-1.6-2.8-6-3l-2 2-.5-.5-1.5-2.5-4 2q-4.2-.7-6 1l-2.5-2.5-2-4v-3l-2.5-3.5-2.5-.5 1-4-2-1-1-3zm-12 5 5 4 2.5.5 1.5 2.5 2.5 1.5 2 3-2.5.5-11-5q-2 4-4 0-3.2-.8-4 1h-7v-1l9-5zm14 13q4.8 2.3.5 4.5l4 6 1 5-1.5.5-4.5-2.5-1.5-2.5-2.5-1.5-1.5-3.5-7 1-.5-1.5 2.5-2.5 9-1z" opacity=".98"/><path stroke="#000" d="m102.5 506 5 2 2.5 2.5 2 3v4l-5 3q.9 4.6 4.5 6.5l2 1 .5-1.5-.5-1.5 1 1 2-2 .5.5.5 2.5q2.5-1 1.5-5.5l-4-8 1.5.5h2l7 4h2v-2l2 1 1.5-.5.5 1.5q4 .5 4.5-2.5l-5-4 1.5-.5 6 3 4.5.5-.5 1.5 2.5-.5-.5-1.5 2 1 1.5-.5-.5 1.5h2l8-5h4l3 2h2l3.5 3.5 3 5-1.5 2.5-5 4-2.5.5q-1.3 6.8 1 10l-1 2q1.3 2.8 2.5.5h7l1-1 3 1 6.5 6.5q.8 4.3-2 5l1.5.5 5-2 4.5 2.5 4 5v2q2.4 1.1 2.5 4.5 1-2 5-1 1.8 3.3 6 4l6.5 6.5-4.5.5-7-4h-2l-2 1q-.5-2.5-4-2-2.3 3.2-9 2l-.5-.5 2.5-2.5 6.5-3.5-6-5-2.5-3.5-4.5-.5-.5-1.5-8 1v-1l3.5-1.5q-1.7-.7-1-4l-2.5-3.5-3 1-3-2-9 4-.5-4.5q2-1 0-2l-3.5-9.5q-1.2 2.2-2.5-.5v-3q-2.7-.7-2-5l1.5-.5 1 1h6l3.5-2.5-2-1 2-3-6.5-4.5-12 7-5-3h-3l-7 5h-3l-2-1-1.5 4.5 5.5 1.5 6 5 3-1 2 4h4l4.5 2.5-.5 1.5q-1.8 1.7-6 1l-1 1q-.7-1.7-4-1l-.5 1.5 6.5 2.5q1-2 5-1 1 2 2 0 5.2.7 6-3l.5 4.5-2.5 3.5-7.5 3.5 1.5 2.5 4.5 3.5 3.5 4.5 1.5-.5-.5-1.5 1.5.5-1-2 1.5-.5q6.8 2.7 11 8 4.6-.6 6 2h5l2-1q1.5 1-1 2l-14 3-4-6-4-1-1 1-6 1-2-1-7 3-2-1-2.5 1.5 7.5 4.5 4 4 4 1q1.5-3.5 3-1h2q1.1 2.4 4.5 2.5-2.2 1.3.5 2.5l3 1 2-1 1.5 1.5q-2.2 1.3.5 2.5h5l4.5 3.5-5 2q3.4.1 4.5 2.5l3-2 4 2 2-2h2l3-2 .5 2.5-3.5 5.5-6.5 2.5-1.5 2.5-2-3h-2l-4.5-2.5-2.5-6.5h-8l-1.5-1.5-1.5-3.5-2.5-1.5-1.5-2.5-9 1-4-6-1.5-.5-4.5-7.5h-4l-4-2-2 1q-.7-2.7-5-2l-2.5-2.5 2.5-1.5q4.2.7 6-1 1 2 5 1l1-2 2-1 2 3q4.2.7 6-1l3 1 .5-.5-2-2-3.5-9.5-7-3q-.2 5.3-3 8-6.2.7-9 5l-2-3h-2l-4.5-2.5-2-4v-3l1.5-.5 3 3 1-1q1.5 3.5 3 1 4.8-1.2 6 1l2-2q1.5 2.5 3-1l2.5-1.5q-1.7-1.8-1-6l-1.5-1.5-4-1-10 7h-5l-11-8h-8l-1 1-7 1q-1.5-1 1-2l12.5-5.5-1-2 1.5.5 2.5.5-.5 1.5 9 4 5 4 1.5-.5.5 1.5 10.5-5.5-4-4-3.5-6.5-1 2-5 2-9-4-2.5-2.5-2-3v-2l1.5-.5 1.5.5-1-5-2.5-2.5q-1.8 3.8-3.5.5l-.5-1.5-5 1-2.5 2.5q5.2 4.8 7 13l-1.5-.5-6.5-4.5-3.5-4.5-3 1-2-3-1 1q-4.8-1.2-6 1l-.5-1.5 7.5-2.5h3l2.5-1.5 1.5-2.5 3-2 9-1zm13.5 35-1 2h2q1-1-1-2Z" opacity=".98"/><path stroke="#000" d="m199.5 526 5.5.5 1.5 2.5h2l7 7 2.5.5-.5 1.5 5.5-4.5 2.5-4.5 1.5.5 2 5-3.5 6.5-10 5-9.5-5.5-3.5-8.5-3 2-1-2-7.5 1.5.5 1.5q3.9.6 5.5 3.5l-1.5.5q-1.2-2.3-6-1l-2-2h-8l-1-1-4 2-7 1q-1.5-1 1-2l12.5-5.5-1-2 1.5.5 2-1 .5 1.5-.5 1.5 5 1 2-2zm13.5 11v1h2z" opacity=".98"/><path stroke="#000" d="m187.5 541 6 2 6 5 1-2 2.5 1.5-1 2 3.5 1.5h4l2.5 1.5.5 1.5 4.5-.5.5-1.5 2.5.5.5 1.5q4.8 1.2 6-1 1.3 2.2 6 1l2.5 1.5-.5 1.5-5 1-3 2h-5l-3 2q-2-3-8-2l-10-5-3 1-5-6-1.5-.5v-2l-4-6z" opacity=".98"/><path stroke="#000" d="M237.5 541q4.8 2.3.5 4.5l4 6 1 5-1 2 4.5.5 5 4h4l2-3 2 3q4.8.8 7-1l7.5 2.5-3.5 2.5-6 2-2-1q-1.7 2.8-7 2l-3-2h-2l-6 2q-7.4-2.6-11.5-8.5l.5-.5 2 2 6 3v-2l1.5-.5q-2.6-1.4-2-6l-2.5-2.5-1.5-.5-1.5-2.5-2.5-1.5-2.5-3.5-6 1-.5-1.5 2.5-2.5 9-1zm286 15q5.4-.9 7.5 1.5v2l3 3 4 8-1.5.5-7.5-5.5-3.5-4.5h-3l-3-2q-1.2 2.2-6 1v-1l6-2h3zm-306 13 4 1 2.5 2.5 3.5 4.5 3 2h2q2.7-1.2.5-2.5l-2-5 1.5-.5 6.5 2.5 3 4q-2 1 0 2l-1.5 1.5q-2.5 2-8 1l-7-5q-2 .5-1.5 3.5l-3.5 3.5h-5l-8.5-4.5-3-4v-3l.5-.5 2.5 2.5q.6 3.9 3.5 5.5l3 1v-2l3-1 1 2q2.3-.7 1.5-4.5-3.1-2-1.5-6.5Zm58 1 6.5 1.5 3 4 .5 4.5 8-4h5l2 3h2l7 7h2q1.7 2.8 6 3v-2l2 1 1.5-.5-.5 1.5h2l4-3 6-2 10.5 5.5q-1.2 6.2 1 9l-1 2 1 2-1.5 4.5-3.5-3.5q.5-3.5-2-4v-4l-1.5-1.5-2.5-.5q1-5.5-2.5-6.5l-9 6h-6l-8-6q-6.8-1.2-11-5l-3 2-1-2-10 2q-2.5-1-1-2l2.5-1.5-2.5-.5q-.7 1.8-4 1l-6-3-4.5-4.5.5-1.5q2.8 4.2 8 6 1-2 2 0l1.5-.5-4-5zm229 0 5 1 4.5 4.5-.5 4.5-3 1h-6l-5-3-.5 4.5-2.5 3.5h-2l-4.5 2.5-.5 1.5-2.5-.5-.5-1.5h-2l-5.5-3.5q-1.7-1.8-1-6l1.5.5 4 1 2 2 3-2q.8 1.8 4 1 .8-1.7 4-1l2.5-2.5-3-4 .5-.5 2 2q3.4 3.1 9 4l-.5-1.5-3-5zm-320 3 2 1 1.5-.5-1 2 8.5 3.5 4.5 3.5-4.5.5-4-2q-6.8 1.3-10-1l-3 2-7 1-.5-.5 2.5-2.5 10.5-4.5zm74 2 4.5 1.5 7 13-1.5.5-7.5-6.5-1.5-2.5-2-1-3 1-1-2-8 1v-1l8-3h4z" opacity=".98"/><path stroke="#000" d="m233.5 583 4 1 3.5 2.5 1.5 2.5 2 1 3-1 1 3q1.8 1.7 6 1l5 4h2l5 3 .5-1.5-.5-1.5 2 1 1.5-.5.5 2.5 5.5-3.5-2-1-2-7 1.5-.5 2 2 6 1 2-1q.8 1.8 4 1l2-2q3.3.8 4-1l2 4 1.5.5 1.5 2.5 3 1 2-1 1 3 5 1 2-1 7.5 6.5 2.5 3.5 1-2 2.5 1.5.5 1.5 5-1q1.5 1-1 2l-6 1-4 2-3.5-2.5-4.5-7.5-1 1h-6q-1-2-2 0h-3l-3.5-2.5q.5-3-1.5-3.5l-1.5-.5-1.5-2.5-7.5 3.5-.5 1.5-2.5-.5-.5-1.5h-2l-8 6h-5l-10-7-1 1h-9l-2.5 2.5-1.5 2.5-9 5-2-3q-4.7-.8-7-4h-5l-6-3-1 2-7.5-5.5-3.5-4.5-4.5-.5-.5-1.5q-2.2 1.8-7 1v-1l6-2h3l1-1h5l4 5 1.5-.5 4.5 7.5 3 1v-2l3-1 1 2 1.5-.5-1-10 1.5-.5 4.5 2.5 2 5-2 3 3.5 2.5q1-2 5-1l2 1 3.5-1.5-1-3-5-6-2-4z" opacity=".98"/><path stroke="#000" d="m450.5 584 4 1 1.5 1.5q-.5 4 2.5 4.5l3-1 5-4q4.6.6 6-2h4l9.5 7.5 2 3-3.5.5-5-2-2-2h-3l-2 1q-.5-2.5-4-2l-4 2-5.5.5 2.5 3.5h3q2.2 3.3 6.5 4.5l.5 1.5 3.5 2.5 1 2-3.5.5-9-5-3 2q-.5-2.5-4-2-.7 1.7-4 1l-1.5 1.5q4 1 3 7-.5 3-4.5 2.5l-1.5-1.5q1-4.5-1.5-5.5l-3 1q-1-3-6-2l-2.5 1.5 3 1-11.5 8.5h-5l-10 7h-4l-12.5-8.5 3-1-2-1-2.5-4.5-5 1-1.5 1.5.5 1.5 4.5 3.5-.5 1.5h-3l-9-5-1.5 2.5.5 1.5-7 3h-5l-3 2h-2l-3-2-9-1-1 1-7 1-2-1-4.5 1.5.5 1.5h2l3.5 2.5 4 5v2l-6.5 6.5-8 1-4.5-2.5 2.5-1.5 6-1 1.5-1.5-.5-1.5-1.5-.5 2-3-7.5-4.5h-6q-.5-2.5-4-2-1 2-2 0l-4-1-4-3-1 1h-6l-8.5-6.5-1-2 .5-.5 4 4 5 2 1.5-2.5-3-5 1.5-.5q1 2 5 1l4.5 4.5.5 3.5 7-1q1 2 5 1l2-3 2 3 8-1 2 1 .5-.5-2-2-2-7 1.5-.5 6.5 5.5 2.5 3.5 1.5-.5.5-1.5 3 1 1-1 10.5-.5.5-1.5 3 1 6-4 5.5-1.5-.5-1.5-3 1-4.5-2.5 10-4-3-2 2-3-8-6 7.5-.5q4.8 1.7 7.5 5.5l2 3v3l-6.5 5.5-2.5.5 3.5.5q1.8 3.3 6 4l2-4 10.5-2.5-5-4-2-4v-4l1.5-2.5 2.5 1.5q1.1 5.4 5.5 7.5l1.5-.5.5-1.5 2.5.5.5 1.5 4.5-3.5v-2l3.5-3.5 3.5 3.5 3.5 6.5 3 1 1-2 2-1 1 2 1.5-.5 1-3q-2.8-1.7-2-7l1.5-.5 4.5 2.5 2 5-2 5 4.5.5 1-1h7l2 1 5-4 3.5-.5-6.5-7.5-4.5-.5-.5-1.5-8 1v-1zM417 597l-2 4-5 4-6 2q-2-2-3 1v2l3 3 1 6 3 1v-2h2l2-1v3l8-4-9-7v-1l6 1 6 4v-2h2l2-1-1 2 1 1 6-3-3-1q-1-4 1-4-10-1-14-8Zm-44 16v1h2z" opacity=".98"/><path stroke="#000" d="m358.5 590 5.5 2.5 2 6-4.5 6.5h-6l-3-1-6.5-5.5-1-5q1-1.5 2 1l3.5 6.5 3 1 1-2 1 1 2-2 .5.5-.5 1.5 1.5-.5 1-3q-3.2-2.2-1.5-7.5Zm-160 12 1 2 7 2 3-1 3 1 6-3 .5 3.5-2.5 4.5h-2l-4.5 2.5-.5 1.5-2.5-.5-.5-1.5-6-2-1.5-1.5-1-3zm55 1q1 2 2 0l1.5.5-1 2 13.5 6.5 5-3h3l2-2h4q1.8 3.3 6 4l6.5 6.5-4.5.5-7-4h-3l-2 1-1-2h-2l-3 2h-6l-1-2-9-3q-.8 1.8-4 1-.7-1.7-4-1l-3 2q-6-1.5-7.5 1.5l-2.5 4.5-6.5 2.5-.5 1.5-2.5-.5-.5-1.5-6.5-2.5-2-4v-3l1.5-.5 2 2 6 1 2-1q.8 1.8 4 1l6-3 2 1 6-4q4.1.6 5.5-1.5z" opacity=".98"/><path stroke="#000" d="M243.5 613h6l6.5 3.5 4.5 5.5 5-3h7q.8-1.7 4-1 4.8 1.7 7.5 5.5.6 3.9 3.5 5.5l2 1 2-3 2 3 3.5-2.5q.9-4.6 4.5-6.5l1.5.5 1.5 5.5 5.5-.5.5-1.5 2.5.5.5 1.5h10l3.5 2.5-6.5 3.5h-5q-1 3-6 2l-2-2q-4.8 1.2-6-1l-10 6-11-7-1.5.5-1-5-2.5-2.5-3 1-1-2-6 1-2 2h-5l-3 3-5 2h-5l-3.5-1.5.5-1.5 6-1 3.5-2.5-3-2 3-2-9-6zm144 6 2.5 1.5-1 4 5 9-1.5 2.5-8.5-7.5-2.5-3.5-6 2-.5-2.5 3.5-2.5 8.5-1.5zm-31 6q1 2 5 1l5.5 5.5-2.5 4.5-5 1q-7.4-2.6-11.5-8.5l.5-.5 2 2 5 3h3l.5-1.5-3-4z" opacity=".98"/></svg>