<svg xmlns="http://www.w3.org/2000/svg" viewBox="0 0 640 640"><path fill="#46806a" stroke="#46806a" d="m288.5 11 1.5 2.5-1 1-.5 4.5zm-21 2 1 2 1.5.5-1.5 2.5-1.5-.5zm150 3 .5 2.5-1 2 .5 1.5-1.5.5-2 8 .5 1.5-1.5.5-2 8 .5 1.5-1.5.5 1 2-2 1-1 6-4 11 .5 1.5-1.5.5 1 2-2 1-5 16 .5 1.5-1.5.5-6 18 .5 1.5-1.5.5-5.5 16.5-.5-2.5 1-1v-3l1-1v-3l3-9v-4l1-1 1-8 2-5v-4l2-5v-4l1-1 2-14 1.5-2.5 1.5.5-1-2 2-1zm-148 3 1.5.5-1 3 1 1 1.5 7.5 1.5.5-1 3 2 1-1 3 2 1-1 3 1 1 .5 4.5 1.5.5-1 3 2 1q-1.7.8-1 4l2 1-1 3 2 1q-1.7.7-1 4l2 1q-1.7.8-1 4l2 1q-1.7.8-1 4l2 1q-1.7.8-1 4l2 1q-1.8.8-1 4l2 1q-1.7.8-1 4l2 1q-2 1-1 5h2l-1 5 2 1q-2 1-1 5l2 1q-2 1-1 5h2q-1.7 1.8-1 6l2 1q-2 1-1 5l2 1q-2.3 1.2-1 6l1 1v5l1 1 .5 6.5 1.5-.5q-1.8 2.2-1 7l2 1-1.5 4.5-1.5-7.5-1-1v-3l-1-1v-3l-6-18v-3l-2-4v-3l-3-7v-3l-3-7v-3l-5-15q1.8-.7 1-4h-2q2.3-3.2 1-10h-2q2.3-3.2 1-10h-2l1-3v-8h-2l1-3v-9l-2-1 1-3zm21 3 1.5.5q-1.7.8-1 4l2 1-1 3 2 1q-1.7.7-1 4l2 1q-1.7.8-1 4l2 1q-1.8.8-1 4l2 1q-1.7.8-1 4l2 1q-1.7.8-1 4l2 1q-1.7.7-1 4l2 1q-2 1-1 5l2 1q-1.7.8-1 4l2 1q-2 1-1 5l2 1q-1.7.8-1 4l2 1q-2 1-1 5l2 1q-2 1-1 5l2 1q-2 1-1 5l2 1q-2 1-1 5l2 1q-1.7 1.8-1 6l2 1q-2 1-1 5h2l-1 7 2 1q-1.7 1.8-1 6l2 1q-1.8 2.2-1 7l2 1-1 1v6h2q-2 2.5-1 8l2 1q-2.2 2.8-1 9h2q-2.3 3.2-1 10l2 1-1 1v10h1l.5-1.5.5 5.5-1 2q1 2.5 2 1v-7l1-1v-10l-1-1v-15h1q-.8 3.3 1 4v27l-1 1-.5 40.5-8.5-17.5v-2l-6-10q2-1 0-2l-3-22q2-1 1-5h-2l1-1v-6h-2q2-2.5 1-8h-2q2-2.5 1-8h-2q2-2.5 1-8h-2q2.2-2.8 1-9l-1-1v-8l-2-2 1-1v-8h-2l1-2v-9h-2l1-3v-9h-2l1-3v-10h-2q-.7-3.2 1-4v-12h-2q-.7-3.2 1-4v-15h-1l-.5 1.5-.5-5.5 1-1zm146 17 .5 1.5-4 11 .5 1.5-1.5.5 1 2-2 1 1 2-2 1 1 2-2 1 1 2-2 1-7 21 .5 1.5-1.5.5-3 9 .5 1.5-1.5.5-4 13-2 3v2l-2 3-1 5-4 9 .5 1.5-1.5.5 3.5.5v-2l2-1-.5 1.5-10.5 24.5-.5-1.5 3-7-.5-.5-2.5 2.5-20 26-12.5 19.5-.5-1.5 6.5-18.5 1.5-.5-.5-1.5 1.5-.5-1-2h2l1-4-.5-1.5 1.5.5v-2l4-8-.5-1.5 1.5-.5 6-14-.5-1.5 1.5-.5 1-4 5-9v-2l6-11v-2l28-56-.5-1.5 1.5.5zm-187 29 .5 1.5-1.5.5q-1.5-1 1-2Zm1 3 1.5.5-1 2 4.5 10.5 1.5.5-1 2 2 3 2.5 8.5 1.5-.5-1 3h2l1 6 1 1v4l1 1v3l1 1v3l1 1v3l1 1v3l1 1v3l1 1v3l1 1v3l1 1v3l2 4v3l2 6q-1 1.5-2-1l-5.5-8.5-1 2-.5-1.5q2.3-1.3-.5-2.5l-1.5-.5 1-2-1.5-4.5-1.5-.5 1-3-2-4v-3l-1-1-1.5-7.5-1.5-.5 1-3-2-1 1-3-1-1-2.5-12.5-1.5-.5 1-3-1-1-.5-4.5-1.5-.5 1-3-1-1-.5-4.5-1.5-.5q1.7-.7 1-4l-2-1zm129 0 1.5.5v3l-10 29v3l-3 7v3l-6 18-1 7-2 4-1 7-2 4v3l-1 1v3l-1 1v3l-1 1v3l-1 1-3 15-1 1v4l-3 9v4l-4.5 10.5-.5-4.5-1-1 2-1-.5-1.5 1.5-.5-1-2 2-1 2-8-.5-1.5 1.5-.5-1-3 2-1q.8-3.2-1-4l2-1 1-7-.5-1.5 1.5-.5-1-3 2-1v-3l1-1v-3l1-1v-3l1-1 2-10-1-2h2l-1-3 2-1-1-3 2-1 1-5-.5-1.5 1.5-.5v-3l2-6-.5-1.5 1.5-.5 4-15-.5-1.5 1.5-.5 3-11-.5-1.5 1.5-.5 5.5-18.5 1.5-.5q-1.7-.7-.5-2.5Zm-53 1q2 .5 1.5 3.5l-1 1v10h2q.8 3.3-1 4v13h1l.5-1.5.5 4.5-1 1v20l2 4v4h-1l-.5-3.5-1 2-1-4-1.5 4.5-.5 6.5-1.5-.5v-3l-2-4v-13q-1.7-.7-1-4h1l.5 1.5.5-12.5-1-3h2v-10l-1-3h2v-9l-1-2 2-1zm-176 1 33.5 37.5 41 50-.5.5-11-11-24-21-.5 1.5 32 40 23 26 13 13 .5 2.5q1.3-2.2 2.5.5l-1 2 1.5-.5 1.5 1.5-1 2h2l-.5 1.5 2.5 1.5-.5 1.5 2.5 1.5-1 2 1.5-.5 1.5 1.5-1 2 1.5-.5 1.5 1.5-1 2h2l-1 1 .5 1.5-16.5-10.5-9-11q2.5-1.5-1-3l-23-30-29-42-3-3-40-61zm-26 3 47.5 50.5 29 34 23 29-.5.5-25-25-37.5-34.5q2.5-1.5-1-3l-.5-1.5-1.5.5q2.5-1.5-1-3l-18-25-10-16-3-3-2-3zm85 25 18.5 26.5 1 3 10 14 6.5 11.5 1.5-.5-1 2h2l-1 2h2l-1 2h2l1 3-1 2h2l-1 2h2l-1 2h2l-1 2h2l2 4q-1 1.5-2-1l-.5-1.5q-8.1-4.9-14-12-1.2 2.3-2.5-.5l.5-1.5-2.5-1.5.5-1.5-3.5-2.5 1-2h-2l1-2-2.5-4.5-1.5.5 1-2h-2l1-2-8.5-16.5-1.5-.5q2-1 0-2l-10-22zm345 5 .5.5-10 10 .5 1.5 4.5-1.5-31.5 28.5-31 26-34 27-32.5 23.5-1.5 2.5-18 9-.5-.5 2.5-2.5 8-6 33.5-33.5-1.5-.5-13 8-.5-.5 2.5-2.5 27-19 6-6 1 1 3.5-3.5.5-1.5 1 1 3-3 37-28zm-234 28 .5 4.5h-1z" opacity=".992"/><path fill="#46806a" stroke="#46806a" d="m269.5 150 6.5 20.5 7 16 .5 5.5 1-2 .5 2.5q-1.8.8-1 4h1l.5-1.5.5 2.5-1.5 2.5-3-9-1.5.5 1-3-2.5-6.5-1.5-.5 1-2-3.5-10.5-1.5-.5 1-3-1.5-3.5-1.5.5 1-3-2-1 1-2-1.5-3.5-1.5-.5zm27 9q2 .5 1.5 3.5h-1zm-56 5 2.5 2.5-.5.5-2.5-2.5zm150 10-.5 1.5-1.5 2.5.5-1.5zm-262 10 19.5 9.5q-1 2.5-2 1l-.5-1.5-2 1v-2l-2 1v-2l-4 2 1-3-2 1v-2l-2 1-6.5-5.5zm-65 5 38 12 3 2 14 4 3 2 5 1 3 2 9 3 1.5-.5.5 1.5h2l8 4 15 5 5 3 7 2 5 3h2l5 3h2l12.5 5.5-2.5.5-1-1h-3l-1-1-15-3-1-1h-4l-9-3h-4l-1-1-8-1-1-1h-4l-1-1h-4l-1-1h-5l-2.5-1.5-.5-1.5-1.5.5-.5-1.5-2 1v-2l-4-1-64-32z" opacity=".992"/><path fill="#46806a" stroke="#46806a" d="m149.5 194 .5 1.5-1.5.5q-1.5-1 1-2Zm137 5 .5 2.5q-1 2.5-2 1zm-253 3 12 4 1.5-.5.5 1.5 8 2 1.5-.5.5 1.5 6 1 8 3 1.5-.5.5 1.5 6.5 1.5-3.5.5-1-1h-4l-1-1h-4l-6-2h-5l-1-1h-4l-3.5-1.5-.5-1.5-10-5h-2q-2.5-1-1-2Zm254 2 .5 2.5h-1zm1 4 .5 2.5q-1 2.5-2 1zm-207 9 4.5.5-4.5.5zm113 10 3.5 2.5-1.5-.5-1 1-2.5-1.5zm-69 16 10 4h3l18 6h3l8 3 11 2 4 2h3l1 1h3l1 1h3l1 1 12.5 2.5-5.5.5-1-1h-6l-1-1h-7l-1-1-15-1-3.5-1.5-.5-1.5-13-4-16-7-11-3q-2.5-1-1-2Zm-51 2 1.5.5.5 1.5q4 1 5-1l1 2q4 1 5-1l1 2q4 1 5-1l1 2q4 1 5-1l1 2q3.3.7 4-1l1 2q4 1 5-1l1 2q3.3.7 4-1l1 2q3.3.8 4-1l1 2q3.3.8 4-1l1 2h4l1 1 4.5.5-8.5.5-1-1h-14l-1-1-15.5-.5-.5-1.5-2 1v-2l-5-1-1.5.5-.5-1.5-2 1-1-2-12.5-3.5zm104 0 12.5 4.5-3.5.5-9-4zm172 8 .5.5-2.5 2.5-.5-.5zm242 1h11l1 1h8q1-2 2 0l8.5 1.5-17 4-.5 1.5-3-1-1 2-3-1-1 1-4.5.5-.5 1.5-3-1-1 1-4.5.5-.5 1.5-3-1-1 1-4.5.5-.5 1.5q-.7-1.8-4-1l-1 2q-.7-1.7-4-1l-1 2q-.7-1.8-4-1l-1 2q-.7-1.7-4-1l-1 2q-.8-1.7-4-1l-1 2q-.7-1.7-4-1l-1 2q-1-2-5-1l-1 2q-.7-1.7-4-1l-1 2q-1-2-5-1l-1 2q-1-2-5-1l-1 2q-1-2-5-1l-1 2q-1-2-5-1v2q-1.8-1.7-6-1l-1 2q-1.8-1.7-6-1l-1 2q-1.8-1.7-6-1l-1 2q-1.8-1.7-6-1l-1 2q-2.2-1.8-7-1l-1 2q-2.2-1.8-7-1l-1 2q-2.2-1.8-7-1l-1 2q-2.5-2-8-1l-1 2-3-1h-6l-1 2q-2.8-2.2-9-1l-1 2-3-1h-8v2q-3.2.8-4-1h-6l-3 1-2.5-1.5-1-2 1.5-.5 3 1v-2l3 1 .5-1.5-5.5-1.5-1 1q-4.8-.8-7 1l-2-1-2 1-4.5-2.5 7.5-.5 1-1h6l1-1h52l1-1h14l1-1 6.5-.5-2.5-1.5h-4l-6.5-2.5 13-2-.5-1.5-13-1-1.5-1.5 14-4-10-1 7.5-.5 1-1h7l1-1h8l1-1h9l1-1h10q.8-1.7 4-1l1 1h8v-2l3 1h10v-2l3 1h11v-2q4-1 5 1h13v-2q4-1 5 1h19v-1q-3 .5-2-1Zm36 0 2.5.5-2.5.5zm-424 2 6 2 11 1 1 1h3l7 3h3l7.5 2.5-5.5.5-1 1h-7l-14-6h-2l-5-3h-2l-2.5-1.5zm118 3 .5 3.5h-1zm-114 7 2.5.5-2.5.5zm-61 3 3.5.5-3.5.5zm18 1 2.5.5-2.5.5zm157 3 .5 5.5h-1zm-28 7 2.5.5-5.5 2.5-7 1v-1h3zm28 1 .5 4.5h-1zm-44 10 15.5.5-15.5.5zm48 0 .5.5-2 2-.5 1.5-.5-1.5zm46 9 9.5.5-9.5.5zm-134 5 5 1 2-1v1l-7 3-17 11-5 2-12 1-1 1h-6l-1 1h-7l-1 1h-6l-1 1h-7l-1 1h-8l-1 1h-8l-1 1h-9l-1 1h-9l-12 4q-1.5-1 1-2l2.5-.5q-1-2.5-5.5-1.5v1l1.5.5-3.5.5-1-1h-9l-3 2-1-1h-10v2q-4 1-5-1h-12v2q-4.8 1.3-6-1h-17v1l2.5.5-9.5.5-1-1-5.5-.5.5-1.5q.8 1.8 4 1l1-2 3 1 1-1 4.5-.5.5-1.5q.8 1.8 4 1l1-2q.8 1.8 4 1l1-2q.8 1.8 4 1l1-2q.8 1.8 4 1l1-2q.8 1.8 4 1l1-2q.7 1.8 4 1l1-1 5.5-.5.5-1.5q.8 1.8 4 1l1-2q1 2 5 1l1-2q1 2 5 1l1-2q.7 1.8 4 1 1.5-3.5 3-1 4.3.8 5-2 1 2 5 1v-2q1.8 1.7 6 1v-2q2.2 1.8 7 1v-2q1.8 1.7 6 1v-2l7 1 1-2q1.8 1.7 6 1 1.5-3.5 3-1 5.8 1.3 7-2 1.3 2.3 6 1l1-2q2.5 2 8 1v-2l3 1h6v-2l3 1h7v-2l3 1h7l1-2 3 1h8v-2l3 1h9zm125 3 3.5.5-3.5.5zm6 1 3.5.5-3 1 7.5 1.5 15 11 26.5 15.5-1.5-.5h-2l-26-13h-3l-3-2h-2l-10-5-5.5-4.5-2-3 4.5-.5zm-71 5 .5.5-3 3-14 20 1 1-3.5 3.5-1.5.5 1 1-2.5 2.5-1.5.5.5 1.5-1-1-7 7-45 36-38.5 28.5-11.5 12.5-1-1-4 4-51 39-39 27-.5-.5L96.5 480l6.5-5.5-1.5-2.5-4 3-.5-.5 6.5-6.5 56-48 53-41 .5.5-6 6-25 29 1.5-.5 14-10 36-30 57.5-54.5-.5-1.5 4-3q1 2 2 0zm-77 14 1.5.5-5.5 4.5-4.5 1.5.5 1.5-2-1v2l-2-1v2l-2-1v2l-2-1v2l-3 1-1.5-.5-.5 1.5-2-1v2l-3-1-28.5 9.5-.5 1.5-2-1-1 1h-3l-10.5 3.5-.5 1.5-3-1-4 2h-3l-4 2-7.5 1.5-.5 1.5-3-1-1 2-3-1-1 1-7.5 1.5-.5 1.5-3-1-1 2-3-1-1 2-3-1-1 1-4.5.5-.5 1.5-3-1-1 2q-.7-1.7-4-1l-1 2-3-1-1 1-4.5.5-.5 1.5q-.7-1.7-4-1l-1 2-2.5-1.5 10.5-4.5 5-1 3-2 8-2 3-2 51.5-16.5.5-1.5 3 1v-2l3 1 1-2 3 1v-2l3 1 1-2 3 1v-2l3 1v-2l4 1v-2l29-8v1l-5.5 3.5 2.5.5 18-6z" opacity=".992"/><path fill="#46806a" stroke="#46806a" d="m120.5 334 2.5 1.5-22.5 7.5h-3l-15 5-3 2-14 4q-1-2-5-1v2l-3-1-8.5.5.5 1.5-3-1h-9v2l-3-1h-10v2l-7.5-1.5 13-3 .5-1.5 3 1 1-2 3 1 1-1 4.5-.5.5-1.5 3 1 1-1 4.5-.5.5-1.5q.8 1.7 4 1l1-2 3 1 1-1 4.5-.5.5-1.5q.8 1.8 4 1l1-2q.8 1.8 4 1l1-2q.8 1.8 4 1l1-2q.8 1.8 4 1l1-1 5.5-.5.5-1.5q.8 1.8 4 1l1-2q.8 1.8 4 1l1-2 5 1 1-1h5l1-1 5.5-.5zm271 1 4 1 1.5-.5.5 1.5 5 1 1.5-.5.5 1.5 12 3 1.5-.5.5 1.5 2-1 1 2 3.5-1.5-3-1 .5-1.5 23 12 6 2q1.5-1-1-2L432 336.5l.5-1.5 10 5h2l3 2 9 3q1.5-1-1-2l-8.5-6.5 1.5.5 9 4h2l5 3h2l5 3h2l26.5 12.5.5 1.5 1.5-.5.5 1.5 6 3h2l19 10h2l51.5 26.5-3 2 2 1 .5 1.5 2-1 1 2 1.5-.5.5 1.5 22.5 10.5-1.5.5-1-1h-3l-4-2h-3l-15-5-1.5.5-.5-1.5-6-2h-3l-11-4-1.5.5-.5-1.5-2 1-1-2-2 1-1-2-2 1-1-2-20-6-3-2-11-3-3-2-5-1-3-2-5-1-8-4-15-5-5-3h-2l-24-11h-2l-5-3h-2l-20-10h-2l-17-9-6-2zm-16 13 27.5 33.5-1 1 3 3 50 68 43 66q-4 2 0 4l22 32-.5.5-2.5-2.5Q449.7 485.3 393.5 406l-1.5.5q2-1 0-2l-.5-1.5q-1.2 2.3-2.5-.5l-1-6-4-9 1-1-.5-1.5q8.2 7.3 14 17l1.5-.5-10-22v-2l-5-9v-2l-8-16-2-2zm-142 8-.5 1.5-7.5 8.5q-1.5-2.5-3 1l-33 18q-2.5-1-1-2l1.5.5 1.5-2.5 2-1 2 1v-2l1.5.5 1.5-2.5 2-1 2 1v-2l1.5.5 1.5-2.5 2 1v-2l2 1-.5-1.5 1.5-1.5 2 1v-2l2 1-.5-1.5 1.5-1.5 2 1v-2l2 1-.5-1.5 1.5-1.5 2 1v-2l1.5.5 1.5-2.5 2 1-.5-1.5 1.5-1.5 2 1v-2l1.5.5zm-227 2 2.5.5-2.5.5zm287 0 1.5 2.5-5 13v3l-2 4-2 11-6.5 15.5-1.5.5 1 2h-2l1 2-2 1 1 2h-2v2l-2 3-4 12 .5 1.5-1.5-.5-3 10 .5 1.5-1.5.5-3 10 .5 1.5-1.5-.5 1 2-2 1-1 5-2 3-1 5-4 8-1 5-4 8-1 5-2 3-4 12-3 5v2l-8 17v2l-4 7v2l-15 31 .5 1.5-1.5.5-4.5 9.5-.5-1.5 1-1v-3l3-9-.5-1.5 1.5-.5 2-8-.5-1.5 1.5-.5 1-5-.5-1.5 1.5.5-1-3 2-1-1-2 2-1q-1.2-2.8-2.5-.5l-1.5.5.5 1.5-1.5-.5 1-3-.5-1.5 1.5-.5 4-12v-3l8-22-.5-1.5 1.5-.5 2-8 2-3 2-8 2-3 1-5 2-3 1-5 4-9-.5-1.5 1.5-.5v-2l4-9-.5-1.5 1.5-.5 2-6q-2.2-1.2.5-2.5l1.5.5-1-2h2l-1-2 3-2-.5-1.5 1.5.5-1-2 3-2-.5-1.5 1.5.5-1-2h2l-1-2 3-2-.5-1.5 1.5.5-1-2h2l-1-2 3-2-.5-1.5 1.5.5-1-2h2l-1-2h2l-1-2 3-2-.5-1.5 1.5.5-1-2h2l-1-2h2l-1-2h2l-1-2 3.5-5.5 1.5-.5-.5-1.5 1.5-.5-.5-1.5 1.5.5-1-2h2l-1-2h2l-1-2h2l-1-2h2l-1-2h2l-1-2h2l-1-2h2l-1-2h2l-1-2h2l-1-2h2l-1-2h2l-1-2h2l-1-2h2l-1-2h2zm17 13 .5 2.5h-1zm-124 13q2.5 1 1 2l-1.5-.5-.5 1.5-1.5-.5-.5 1.5-.5-1.5zm111 0 .5 1.5-3 8v3l-1 1v3l-1 1v3l-1 1v3l-1 1v3l-1 1v3l-1 1v3l-3 9v4l-3 9v4l-2 3 1 2-2.5 7.5-.5-3.5 1-1v-10l1-1 1-15 1-1v-6l1-1v-5l1-1 1-10 6-9zm-128 2 .5.5-2.5 2.5-.5-.5zm94 1 .5.5-2 2 2 2-.5.5q-5-2.5 0-5Zm-98 2 .5.5-2.5 2.5-1.5-.5-2.5 3.5-1.5-.5-2.5 3.5-1.5-.5-2.5 3.5q-1-2-2 0l-1.5.5q2.2 1.3-.5 2.5-1-2-2 0l-1.5.5 2 2-.5.5-1.5-.5-.5 1.5-6 3h-2l-11 6-.5-.5 2.5-2.5 33-22 1.5.5 1.5-2.5q1.5 2.5 3-1Zm12 0q1.5 1-1 2l-2 1q-1.5-1 1-2zm83 2 2.5 2.5-1 1-4.5 8.5-1.5.5 1 2-7.5 14.5-1.5-.5 1 2h-2l1 2h-2l1 2h-2l1 2h-2l1 2h-2l1 3-1.5 2.5q-1.2-2.2-2.5.5l-1 3-14 20-1 3-17.5 24.5.5-1.5 3-6v-2l19-37-.5-1.5 1.5.5 3-7q-2.2-1.2.5-2.5l1.5-.5-1-1 2.5-2.5 1.5-.5q-2.2-1.2.5-2.5l1.5.5 1-2q-2.2-1.2.5-2.5l1.5.5-1-2 4-3q-2.2-1.2.5-2.5l1.5.5-1-2 4-3q-2.3-1.2.5-2.5l1.5.5-1-2 4-3q-2.2-1.2.5-2.5l1.5-.5q-2.2-1.2.5-2.5l1.5.5-1-2zm74 1 .5 5.5h-1zm-170 4q1.5 1-1 2l-2 1q-1.5-1 1-2zm172 5 6 21 1.5-.5.5-6.5 1.5.5q-1.8 2.2-1 7l2 1-1 1v6h2q-2 2.5-1 8l2 1q-2 2.5-1 8h1l.5-1.5.5 2.5-1 1v7h2q-2.2 2.8-1 9l2 1q-2 2.5-1 8l2 1q-2 1-1 5l2 1q-1.7.7-1 4l2 1q-2 1-1 5l2 1q-2 1-1 5l2 1q-2 1-1 5l2 1q-2.2 1.2-1 6l2 1q-2 1-1 5l2 1q-2.2 1.3-1 6l2 1q-2.3 1.2-1 6l2 1q-1.8 2.2-1 7l2 1-1 1v6l2 1-1 1v6l2 1q-2 2.5-1 8l2 1q-2.2 2.8-1 9h2q-2.3 3.2-1 10h2l-1 3v8h2l-1 3v9h2l-1 3v11h2q.8 3.8-1.5 4.5l-5-21-1.5-.5 1-3-2-1q1.8-.7 1-4l-1.5-4.5-1.5-.5 1-3-1.5-4.5-1.5-.5 1-3-2-1q1.8-.7 1-4l-2-1 1-3-2-1q1.8-.7 1-4l-2-1 1-3-1-1-.5-4.5-1.5-.5q1.8-.7 1-4l-2-1q1.8-.7 1-4l-2-1q1.7-.7 1-4l-2-1q1.8-.7 1-4l-2-1q1.8-.8 1-4l-2-1q2-1 1-5l-2-1q1.8-.7 1-4l-2-1q2-1 1-5l-2-1q1.8-.7 1-4l-2-1q2-1 1-5l-2-1q2-1 1-5l-2-1q2-1 1-5l-2-1q2-1 1-5l-2-1q2.3-1.2 1-6l-2-1q2-1 1-5l-2-1q1.8-2.2 1-7l-1-1-.5-51.5-1 50-.5-54.5 1-1zm8 6 .5 4.5h-1zm-139 13 .5.5-48.5 48.5-26 23-.5-.5 3-3-1-1 8.5-8.5q33.8-27.7 64-59Zm98 23 .5 2.5h-1zm-1 16 .5 2.5h-1z" opacity=".992"/><path fill="#0f0" stroke="#0f0" d="m348.5 40 .5 5.5h-1zm0 41 .5 6.5h-1zm218 17 .5 1.5q-1 2.5-2 1zm-219 18 .5 2.5h-1zm-1 19 .5 2.5h-1zm115 108q1.5 1-1 2l-4 2q-1.5-1 1-2zm-390 22 10.5.5-10.5.5zm23 0 8.5.5-8.5.5zm399 59 2.5.5-2.5.5zm22 1 3.5.5-3.5.5zm-348 137 1.5.5q-1 2.5-2 1zm169 34 .5 2.5h-1z" opacity=".004"/><path fill="#61876d" stroke="#61876d" d="m421.5 6 .5 1.5-2.5 6.5-1.5.5q1.8.8 1 4l-1.5 2.5-.5-1.5 1-3h-1L400.5 52l-.5-1.5zm-154 1 1.5 7.5h-1q-2.1-2.6-.5-7.5Zm22 7 1.5 3.5v4l-1 1-.5 18.5zm-20 2 .5 2.5-1 1-.5 9.5-.5-10.5zm1 4 2.5 7.5v3h-1v-3l-2-5z" opacity=".996"/><path fill="#61876d" stroke="#61876d" d="m416.5 22 .5 2.5-2.5 6.5-.5-1.5zm-125 1 .5 3.5h-1zm1 5 .5 2.5h-1zm-23 4 .5 9.5h-1zm4 0 .5 2.5h-1zm20 0 .5 3.5h-1zm120 0 .5 2.5-2.5 6.5-.5-1.5zm26 0 .5 1.5-6.5 18.5-.5-1.5 3-9h-1l-25 49v2l-11 21v2l-6 11v2l-6.5 13.5-.5-1.5 12-25v-2l10-19v-2L435.5 40l1.5.5-1-2zm-165 4 .5 2.5h-1zm20 1 .5 3.5h-1zm-19 3 1.5 3.5v4h-1zm20 2 .5 3.5h-1zm-25 2 .5 8.5h-1zm20 1 .5 15.5h-1zm119 0 .5 2.5-5.5 15.5-.5-1.5zm-113 2 .5 3.5h-1zm-19 2 .5 2.5h-1zm20 3 .5 3.5h-1zm-19 1 .5 3.5h-1zm-7 2 .5 8.5h-1zm27 2 .5 3.5h-1zm-19 1 .5 2.5h-1zm117 0 .5 2.5h-1zm-149 3 1.5 5.5 2 2v2l-1.5 3.5-.5-3.5 1-2h-2zm33 1 .5 3.5h-1zm19 0 .5 4.5h-1zm27 0 .5 9.5-1 1-.5 5.5-.5-7.5 1-1zm55 0 .5 4.5-1.5 4.5-1.5.5 1 2-2 1-2 6v3l-3.5 9.5-.5-2.5zm14 1 .5 2.5h-1zm-104 1 .5 12.5h-1zm-19 1 .5 8.5h-1zm156 0 .5 2.5-7.5 19.5-.5-1.5 4-9zm-283 1 40.5 45.5 44 55 5 5 8 15 20 32q-1 1.5-2-1l-4-6v-2q-37.1-36.9-68-80l.5-.5 5 5 25 22 .5-1.5-36-44L154.5 78l-.5 1.5 50 75 30 41 14 17-.5.5-4.5-4.5-43-58-50-76 .5-1.5-2.5-1.5-3-5zm7.5 9-1 2q1 2 2 1zm128.5-8 .5 3.5h-1zm121 0 .5 2.5-5.5 14.5-.5-1.5zm-102 1 .5 3.5h-1zm94 0 .5 2.5h-1zm-275 2L141 91.5l33 36q28.1 31.9 54 66l-1.5.5-28.5-28.5.5-.5 22 22 .5-.5-20-26-22-26L126.5 78l-.5 1.5 3 3 22 33 12 15-.5.5-3.5-3.5-28-39-12-18zm132 2 4.5 9.5v2h-1v-2l-4-8zm31 0 .5 3.5h-1zm19 1 .5 4.5h-1zm92 0 .5 2.5h-1zm-143 2 .5 3.5h-1zm23 0 .5 3.5h-1zm54 1 .5 10.5h-1zm-44 1 .5 3.5h-1zm109 0 .5 2.5h-1zm-90 2 .5 3.5h-1zm-51 1 1.5 7.5h-1l-1-3zm41 0 .5 10.5h-1zm32 0 .5 9.5h-1zm-40 2 .5 3.5h-1zm107 0 .5 2.5h-1zm-88 2 .5 4.5h-1zm-47 1 2.5 4.5 2 8h-1l-2-8-2-3zm140 0 .5 2.5-6.5 16.5-.5-1.5zm-6 1 .5 2.5h-1zm-105 1 .5 3.5h-1zm91 0 .5 2.5h-1zm44 1 .5 2.5-3.5 7.5-.5-1.5 2-3zm-167 1 1.5 7.5h-1l-1-3zm51 1 .5 4.5h-1zm24 0 .5 13.5h-1zm61 1 .5 2.5h-1zm-103 1 .5 4.5h-1zm37 0 .5 10.5h-1zm-30 1 .5 9.5h-1zm-88 1 27.5 39.5 1 3 11 16 4 9h-1l-9-17-27.5-40.5-.5 2.5 9 18q-1 1.5-2-1l-12-26zm72 0 .5 2.5h-1zm94 0 .5 1.5-3.5 10.5-.5-2.5zm17 1 .5 2.5h-1zm-83 1 .5 4.5h-1zm-50 2 3.5 15.5h-1l-1-6-1-1v-4l-1-1zm32 0 .5 3.5h-1zm129 1 .5 2.5-3 6-6 18-2 3-1 5-1.5 1.5-.5-1.5 4-8 1-5 4-8zm-29 1 .5 2.5h-1zm173 1 .5.5-15.5 15.5-.5-.5 8-8-.5-.5-41 28-40 31-.5-.5 3.5-3.5 37-28zm-254 1 .5 4.5h-1zm-18 1 .5 4.5h-1zm83 0 .5 2.5h-1zm-107 1 .5 2.5h-1zm122 0 .5 2.5h-1zm-92 1 .5 9.5h-1zm28 0 .5 12.5h-1zm67 0 .5 2.5-5.5 13.5-1.5-3.5h1l.5 1.5zm-60 2 .5 20.5 1 3h-1l-1-3zm38 0 .5 1.5-1 1v3l-3.5 10.5-.5-2.5zm18 1 .5 2.5h-1zm-120 1 .5 2.5h-1zm24 0 .5 4.5h-1zm18 0 .5 4.5h-1zm249 2 .5.5-2.5 2.5-29 26-49 41-43 33-12 8q-1.5-1 1-2l31-22 34-27 59.5-51.5-1-1 2.5-2.5 1.5.5 1.5-2.5zm-290 2 .5 2.5h-1zm102 0 .5 2.5h-1zm-109 2 .5 2.5h-1zm31 0 .5 4.5h-1zm18 0 .5 4.5h-1zm-13 1 .5 8.5h-1zm-28 1 .5 2.5h-1zm-7 2 4.5 17.5h-1l-2-6v-3l-1-1v-3l-1-1zm61 1 .5 13.5 2.5 7.5 1.5-.5v-6l1.5-4.5 1 4 1-2 .5 6.5q-2 1 0 2l-1 3v9l-1 1v9l-1 1v10l-1 1-1 29-1 1v20l-1 1v33l-1 1-.5 26.5-1.5-1.5v-5l-1-1-1-11-1-1-1-9-2-5v-4l-1-1v-3l-1-1-3-15-2-4v-3l-8-24-5-11q1-1.5 2 1l7.5 14.5 1-3 .5 2.5-1 1 2 2q-2 1 0 2l13.5 28.5.5-40.5 1-1v-27l-1-1v-26l1-1zm-53 1 .5 2.5h-1zm23 0 .5 4.5h-1zm91 0q2.8 1.2.5 2.5l-2.5 8.5-.5-2.5 1-1zm-73 1 .5 4.5h-1zm53 2 .5 2.5-2.5 7.5-.5-3.5zm-93 1 .5 2.5h-1z" opacity=".996"/><path fill="#61876d" stroke="#61876d" d="m220.5 126 13.5 27.5 2 2-.5.5-2.5-2.5-13-26zm75 0 1.5 1.5 1 16h-1l-1-16zm-3 1 .5 4.5 1 1v6l1 1v6h-1v-6l-1-1q1.3-4.8-1-6zm-22 2 .5 2.5h-1zm40 0 .5 4.5h-1zm100 0-.5 1.5-3 9-6 12v2l-6 11-2 6-4 6 .5.5 6.5-6.5 11.5-13.5-.5 1.5-11 24-11 18-3 7-18 27-11 14-2 7-7 10-15.5 27.5-1.5-.5-2-4 1-1v-4l2-6v-5l1-1v-5l1-1v-5l1-1v-5l1-1v-6l1-1v-6l1-1v-6l1-1v-6l1-1v-6l1-1v-7l1.5-4.5 2 9 3.5-7.5 1.5-7.5 1.5-.5-1-3h1l.5 1.5 3.5-7.5v-2l13-26 13.5-22.5.5 1.5-1 1v4l-2 5v4l-1 1-2 11-3 7v5l-2 4v3l-3 9q1 1.5 2-1l10-16 22.5-28.5 1 2 6.5-13.5v-2l-.5-1.5 1.5.5-1-2zM399 153l-2 3 1 2 1-2zm-236.5-21 3.5 3.5-.5.5-3.5-3.5zm109 1 .5 2.5h-1zm91 1 .5 2.5h-1zm-3 1 .5 2.5-1.5 3.5-.5-3.5zm-48 1 .5 5.5h-1zm-39 1 .5 2.5h-1zm206 0 .5.5-4 4q-27.9 34.1-60 64l1.5.5 11-7 4-4 2 1-.5-1.5 2.5-2.5-1 3 10-5 .5.5-33.5 33.5-9.5 7.5 1.5.5 17-9h3l9-5h2l5-3h2l13-6q1.5 1-1 2L434 225.5l.5 1.5 3-2 22-7v1l-43 27-38.5 19.5-.5 2.5-9 4-2 2-9 4-2 2-7 3-15 9-.5-.5 4-4 33-41 21-28 9-14 9.5-9.5 31-27zm-309 1 8.5 8.5-.5.5-8.5-8.5zm96 0 1.5 5.5h-1q-1.9-2-.5-5.5Zm8 3 .5 2.5h-1zm18 1 .5 2.5h-1zm66 0 .5 2.5h-1zm-45 1 .5 6.5h-1z" opacity=".996"/><path fill="#61876d" stroke="#61876d" d="m385.5 143-.5 1.5-5.5 13.5-.5-1.5 4-8v-2zm-118 2 9 12 1.5-.5.5 3.5 1-2 .5 8.5 1 1v6l1 1v5l2 6v6h-1v-5l-4-8-4.5-13.5-1 3-1.5-2.5-1-6 1-3h-1l-.5 1.5-1.5-4.5 1-3h-1l-.5 1.5-1.5-3.5zm3.5 8-1 3h1zm2 6-1 3h1zm1 3-1 3h1zm24.5-17 .5 6.5h-1zm61 0 .5 2.5h-1zm-67 1 .5 2.5h-1zm64 0 .5 2.5h-1zm-61 1 .5 5.5h-1zm-114 2 11.5 11.5-.5.5-11.5-11.5zm174 1 .5 2.5-1 1v3l-1 1v3l-1 1v3l-1 1-1.5 7.5-.5-3.5 1-1v-4l1-1 1-7zm-42 1 .5 6.5h-1z" opacity=".996"/><path fill="#61876d" stroke="#61876d" d="m276.5 152 .5 2.5h-1zm23 1 .5 6.5h-1zm-3 1 .5 4.5q-2 1 0 2l1 6h-1l-2-8zm60 2 .5 2.5h-1zm22 3-.5 1.5v2l-3 5v2l-3.5 7.5-.5-1.5 6-13v-2zm-140 1 14 13 .5-1.5-3-6h1l3 7-.5 1.5 1.5.5 21 43q-1 1.5-2-1l-7-13-23-34-1-3-5-6zm76 0 .5 7.5h-1zm41 0 .5 2.5h-1zm-55 1 .5 6.5h-1zm54 3 .5 2.5h-1zm115 3 .5.5-4.5 4.5-.5-.5zm-116 1 .5 2.5h-1zm-79 1 3.5 11.5h-1l-3-8zm27 0 1.5 11.5h-1q1-4-1-5zm14 0 .5 8.5h-1zm37 3 .5 2.5h-1zm110 0 .5.5-3.5 3.5-.5-.5zm-113 2 .5 2.5h-1zm2 2 .5 2.5h-1zm-233 2 48.5 24.5-1.5-.5-15.5-6.5-.5-1.5-2 1v-2l-2 1v-2l-3 1-2.5-1.5 2-1-8.5-4.5h-2l-.5.5 3 3-.5.5-14-10q-2.5-1-1-2Zm201 0 .5 10.5h-1zm29 0 .5 3.5-1.5 4.5-.5-4.5zm-32 1 .5 10.5h-1zm34 1 .5 2.5h-1zm100 1 .5.5-2.5 2.5-.5-.5zm-172 1 5 15 1-4 .5 3.5-1 3h1l.5-1.5.5 2.5-1 2h2v4l4 12h-1l-12-34zm71 2 .5 2.5h-1zm-295 1 7 3 10 2 30 10 3 2 14 4 3 2 5 1 12.5 5.5-1.5.5-3-2-30-10-3-2-30-10-6-1v1l68.5 33.5-1.5.5-69-34-2-2-7-3zm248 1 .5 3.5h-1zm44 1 .5 3.5h-1zm2 1 .5 2.5h-1z" opacity=".996"/><path fill="#61876d" stroke="#61876d" d="m135.5 189 3.5 1.5-1.5.5-2.5-1.5zm168 3 .5 3.5h-1zm42 0 .5 2.5h-1zm-1 4 .5 2.5-2.5 6.5-.5-2.5zm-317 4 5.5 1.5.5 1.5 3-1 9.5 3.5-1.5.5-1-1-6-1v1l9.5 4.5-1.5.5-10.5-5.5 2-1-2.5-.5q-1 2-2 0l-5-2zm185 1 27 13 2 2 10 5-1-3 5 6 15 9-.5-1.5-5-8q1-1.5 2 1l19 29 5 6-1.5.5-19-16-32-24-25-17q-2.5-1-1-2Zm-165 5 6 1 2.5 1.5-1.5.5-1-1-6-1zm10 3 6 1 8.5 3.5-1.5.5-7-3-6-1zm-6 3 3.5.5-3.5.5zm6 1 3.5.5-3.5.5zm5 1 3.5.5-3.5.5zm11 0 5.5 1.5-5.5 1.5v-1l2.5-.5-2.5-.5zm-5 1 2.5.5-2.5.5zm72 0h2l8 4 15 5 5 3 7 2 18.5 8.5-1.5.5-17-8-7-2-5-3h-2l-8-4-15-5zm-60 1 1.5.5q-.5 2-3.5 1.5v-1z" opacity=".996"/><path fill="#61876d" stroke="#61876d" d="m174.5 216 20.5 12.5-.5 1.5 2-1 61 32h2l35 17 9 3 6.5 4.5 1 2-3.5.5-6-2-11-1-3-2h-9l-1-1-12-1-1-1h-6l-1-1h-6l-1-1h-7l-1-1h-7l-1-1h-8l-1-1h-8l-1-1h-9l-1-1h-10l-1-1-4.5-.5 5.5-.5 1-1h6l1-1 8.5-.5-2-1 .5-1.5h2l3 2h5l1-1q4.2.7 6-1l1 1h7l1-1 5.5-.5-7.5-2.5h-3l-7-3h-3l-1-1h-5l-1-1-9-1-2 1-6-3-17.5-3.5.5-1.5q4 1 5-1 .8 1.7 4 1v-1l-5-1-2 1v-1l1.5-.5-4.5-1.5-2 1-4.5-2.5.5-1.5-3 1-9-5-18-6-2-2-8.5-3.5 3.5-.5 1 1h5l1 1 14 2 5 2h4l9 3h4l1 1h3l1 1 15 3v-1l-3.5-1.5 1.5-.5 7 3 2 2 16 5v-1l-16-8-14.5-9.5.5-1.5h-2l-10-7-3-1-4.5-3.5zm27.5 25v1h2zm93 39-6 2v1h3l5-2zM83.5 218h4l4.5 1.5-3.5.5q-1-2-5-1zm158 21 2.5 1.5-1.5-.5q-2.4-.1-1-1Zm-126 1 8 2 2 2 1.5-.5q-1.2 2.7-2.5.5l-9-3zm-53 4 11.5 1.5-4.5 1.5-4-2h-3zm67 0 1.5.5-3.5 1.5v-1zm3 1 1.5.5-3.5 1.5v-1zm-56 1 4.5.5-4.5.5zm59 0 1.5.5-2 1 32 12-2.5.5-31.5-12.5zm-63 1 11.5 3.5-2.5.5-9-3zm10 0 4.5.5-4.5.5zm6 1 4.5.5-4.5.5zm6 1 4.5.5-4.5.5zm6 1 3.5.5-3.5.5zm5 0 4.5 1.5-4.5.5zm-17 2 5.5 1.5-3.5.5-2.5-1.5zm23 0 3.5.5-3.5.5zm45 0 2.5.5-2.5.5zm-40 1 3.5.5-3.5.5zm5 1 3.5.5-3.5.5zm483 0 8.5.5-8.5.5zm27 0 2.5.5-3.5 1.5h-4l-4 2h-3l-1 1h-3l-1 1h-3l-1 1h-4v-1l8-1 1-1 7.5-1.5-5-1 12.5-.5zm-505 1h4l4.5 1.5-3.5.5q-1-2-5-1zm41 0 2.5.5-2.5.5zm408 0 19.5.5-19.5.5zm-475 1 11.5.5-11.5.5zm457 0 13.5.5-13.5.5zm-440 1 9.5.5-9.5.5zm19 0 2.5.5-.5 1.5-7.5-.5 4.5-.5zm405 0 11.5.5-11.5.5zm-401 1 8.5 1.5-5.5.5-3-1z" opacity=".996"/><path fill="#61876d" stroke="#61876d" d="m207.5 258 3.5 1.5-1.5.5-2.5-1.5zm321 0 10.5.5-10.5.5zm-346 1 2.5.5-2.5.5zm324 0 6.5.5-6.5.5zm11 0 8.5.5-8.5.5zm-331 1 2.5.5-2.5.5zm309 0 6.5.5-6.5.5zm-305 1 2.5.5-2.5.5zm296 0 5.5.5-5.5.5zm116 0 2.5.5-2.5.5zm-430 1 5.5.5-5.5.5zm22 0 2.5.5-2.5.5zm284 0 4.5.5-4.5.5zm120 0 2.5.5-3.5 1.5h-4v-1q4 1 5-1Zm-417 1 4.5.5-4.5.5zm17 0 2.5.5-2.5.5zm270 0 6.5.5-6.5.5zm-279 1 4.5.5-4.5.5zm13 0 2.5.5-2.5.5zm248 0h16l1 1 9.5.5-14 4 1.5 1.5h6l1 1 6.5.5-.5 1.5h-6l-1 1-5.5.5 2.5 1.5 8 1 2.5 1.5-6.5.5-1 1h-14l-1 1h-52l-1 1h-6l-1 1-7.5.5 1.5 1.5 4 1 2-1v2l7.5 1.5.5 1.5 4 1 1-1h6v1l-6.5.5.5 1.5 9 3 10.5 5.5-1.5.5-1-1h-17l-1-1h-25l-1-1h-21l-10.5-7.5-1-2 1.5-1.5 13-4 3-2h2l3-2h2l3-2h2l3-2 12-4 15-7 1 1h16l1-1h6l1-1h16zm139 0 2.5.5-3.5 1.5h-4v-1q4 1 5-1Zm-393 1 4.5.5-4.5.5zm11 0 1.5.5q-.7 2.3-4.5 1.5v-1zm373 1 2.5.5-3.5 1.5h-4v-1q4 1 5-1Zm-448 2 4.5.5-4.5.5zm438 0 3.5.5-3.5.5zm-419 1 5.5.5-5.5.5zm414 0 3.5.5-3.5.5zm-397 1 4.5.5-4.5.5zm392 0 3.5.5-3.5.5zm-378 1 4.5.5-4.5.5zm373 0 3.5.5-3.5.5zm-5 1 3.5.5-3.5.5zm-5 1 3.5.5-3.5.5zm-6 1 4.5.5-4.5 1.5zm-5 1 3.5.5-3.5.5zm-6 1 4.5.5-4.5.5zm-6 1 4.5.5-4.5 1.5zm-6 1 4.5.5-4.5.5zm-6 1 4.5.5-4.5.5zm-6 1 4.5.5-4.5.5zm-7 1 4.5.5-4.5.5zm-7 1 4.5.5-4.5.5zm-7 1 4.5.5-4.5.5zm-8 1 5.5.5-5.5.5z" opacity=".996"/><path fill="#61876d" stroke="#61876d" d="m404.5 285 2.5.5-2.5.5zm63 0 5.5.5-5.5.5zm-69 1 4.5.5-4.5.5zm61 0 5.5.5-5.5.5zm-272 1h9l1 1 10.5.5-23.5.5v-1zm263 0 6.5.5-6.5.5zm-46 1 2.5.5-2.5.5zm36 0 6.5.5-6.5.5zm-222 1h7l1 1h19l1 1 13.5.5-9.5.5-1 1-15 3-1 1h-4l-5 2h-4l-5 2h-4l-1 1h-4l-1 1h-4l-1 1h-4l-1 1h-4l-1 1h-4l-1 1h-4l-6 2h-5l-1 1h-5l-6 2h-5l-1 1h-5l-1 1h-6l-1 1h-5l-3 1v-1l6-1 3-2 6-1 32-11h3l4-2h3l4-2h3l4-2h3l4-2h3zm212 0 7.5.5-7.5.5zm-12 1 8.5.5-8.5.5zm-145 1q4-1 5 1h36l1.5 1.5-1.5 2.5-17 5-3 2-21 7-3 2h-2l-13 6-7 2-5 3h-2l-5 3h-2l-5 3h-2l-7 4h-2l-13 6v-1l10-5h2l5.5-4.5-1.5-.5-3 2-20 6q-1.5-1 1-2l2.5-1.5-3-1 2.5-.5 2 1v-2l4-1 9.5-6.5.5-1.5 4-1 22.5-13.5-3-1 2.5-.5 2 1v-2h4l22-11zm72 0 6.5 5.5 2 3-22.5.5-1.5-2.5 1.5-1.5 8-2zm-20 2 1.5 2.5q-1 2.5-2 1zm2 5 .5 1.5-1.5.5q-1.5-1 1-2Zm-8 2 1.5.5v6l-1 1v5l-2 6v5l-1 1v5l-1 1q1.3 4.7-1 6v6l-1 1v6l-1 1v6l-1 1v6l-1 1v6l-1 1-1 16-1 1q.7 4.2-1 6l1 3h-1l-.5-1.5-10.5 32.5-3 4-2 8-2 3-4 13-4 8-2 8-1.5 1.5-.5-2.5 1-1 1-9-1-2 2-1 2-8q-2-1 0-2l2-10 1-1v-3l1-1v-4l1-1v-3l1-1v-3l1-1v-3l1-1v-3l1-1v-3l1-1v-3l3-9v-3l2-4v-3h-1l-4 9-6 9-.5 4.5q-1.2-2.2-2.5.5l-1.5 3.5-.5-3.5q2-1 1-5l-1-2h1l.5 1.5.5-2.5-1-2 4-8 2-11 2-4v-3l4-12h-1L278.5 390l.5-1.5 16.5-33.5 1.5-.5q-2-1 0-2v-2l9-18v-2l8-16v-2zm7 2 2.5.5 1 3-.5.5-2-2-1.5-.5zm7 1 35.5 6.5-5 1 4.5 5.5 2.5 1.5 1 4 7.5 9.5 1.5.5 4 7-.5.5-2-2-39-24-5-2-2.5-2.5-3-5zm-25 2-.5 1.5-23 29-5.5 5.5-.5-.5 4-4 15-21-1.5-.5-4 4-.5-.5 5.5-5.5.5.5.5 1.5 3-5zm-79 1 9.5.5-9.5.5zm97 0 5.5 4.5 5 15 4 8 1 5 4 8-.5 1.5 1.5.5-1 3h2l-1 3 1 1v3l1 1v3l1 1v3l3 9v4l2 5v4l2 5v5l2 5v4l1 1v4l1 1v4l2 6v5l2 6v5l2 6 1 12 1 1v5l1 1v5l1 1q-.8 4.8 1 7-1 1.5-2-1l-10-30v-3l-4-10v-3l-3-7v-3l-2-4v-3l-2-4v-3l-2-4v-3l-2-4v-4l-1.5-3.5-.5 3.5 1 1v10q1.8.8 1 4-2 1-1 5l1 3-1 1-.5 6.5-1.5-.5v-3l-3-7v-3l-2.5-7.5-1 6-.5-14.5-1-1v-13l-1-1v-12l-1-1v-10l-1-1v-10l-1-1v-9l-1-1v-8l-1-1v-7l-1-1v-7q-1.7-.7-.5-2.5Zm-108 1 8.5.5-8.5.5zm-11 1 7.5.5-7.5.5zm-10 1 7.5.5-7.5.5zm-9 1 6.5.5-6.5.5zm182 0h8l1 1h6l1 1h6l1 1h6l1 1 15 1 21 13 8 7 2.5.5.5 1.5 1.5-.5q-2.2 1.3.5 2.5l3 2 1.5-.5q-2.3 1.3.5 2.5l2.5 1.5-1.5.5-23-10-.5 1.5 20 17-1.5.5-25-12-1.5.5.5-1.5-2-1-1.5.5-.5-1.5-2 1-31.5-14.5 2.5-.5 26 13h2v-1l-17-9-23-16q-2.2-1.8-7-1zm-191 1 6.5.5-6.5.5zm-10 1q1.5 1-1 2l-5.5-.5 5.5-.5zm2 0 5.5.5-5.5.5zm-10 1q1.5 1-1 2l-4.5-.5 4.5-.5zm-12 2 4.5.5-4.5.5zm-7 1 4.5.5-4.5.5zm-7 1 5.5.5-5.5.5zm-6 1 4.5.5-4.5.5zm-8 1q1.5 1-1 2l-3.5-.5zm2 0 4.5.5-4.5.5zm166 0 1.5.5-57.5 54.5q-24.8 22.2-52 42l.5-1.5 29-33-1.5-.5-50 39L99 472.5l1.5.5 1.5-.5-11.5 7.5-.5-.5 2.5-2.5 56-49 45-36 24-17 8.5-8.5 5-6-1.5-.5-4 3q-1.5-1 1-2l5-3 1.5.5 1.5-2.5 33-21zm160 0 11 1 4.5 2.5-2.5.5-1-1h-4l-1-1-7-1zm-334 1q1.5 1-1 2l-3.5-.5zm228 0 26 22 37.5 27.5 11 21-.5.5-25-25-1 1-3.5-3.5q2.3-1.2-.5-2.5l-4.5-3.5.5-1.5-5-4-.5 1.5 7 13v2l5 9v2l10 22-1.5.5-10-13-1 1-2-2-.5.5 5 17h-1l-10-15-23-47-2-2-5-11-6-9zm38.5 59-1 2 3 5 4 3-1-3zm-272.5-58 .5 1.5-4.5.5v-1q3.3.8 4-1Z" opacity=".996"/><path fill="#61876d" stroke="#61876d" d="m211.5 322 3.5.5-3.5.5zm-112 1 4.5.5-4.5.5zm105 0 4.5.5-4.5.5zm179 0 2.5 1.5-1.5.5q-2.5-1-1-2Zm-289 1 3.5.5-3.5.5zm103 0 4.5.5-4.5.5zm-110 1 5.5.5-9.5 1.5v-1q3.3.7 4-1Zm102 0 5.5.5-5.5.5zm-7 1 4.5.5-4.5.5zm-104 1 3.5.5-3.5.5zm96 0 4.5.5-4.5.5zm-101 1 3.5.5-3.5.5zm92 0 5.5.5-5.5.5zm-97 1 3.5.5-3.5.5zm88 0 5.5.5-5.5.5zm-93 1 3.5.5-3.5.5zm83 0 6.5.5-6.5.5zm-88 1 3.5.5-3.5.5zm64 0 4.5.5-4.5.5zm14 0 6.5.5-6.5.5zm246 0 3 2h4l6.5 2.5-3 1 2 1-1.5.5-10-5q-2.5-1-1-2Zm-330 1 4.5.5-7.5 1.5v-1zm58 0 9.5.5-8.5.5-2 1q-1.5-1 1-2Zm-14 1 10.5.5-10.5.5zm-52 1 3.5.5-3.5.5zm35 0 12.5.5-12.5.5zm43 0 2 1 3-1v1l-4 1q-2.5-1-1-2Zm-82 1 8.5 1.5-14.5.5v-1q4.8 1.3 6-1Zm16 0 17.5.5-17.5.5zm58 0q5.4-.9 7.5 1.5l-1.5.5q-1.3-2.2-6-1l-1 1-9 1v-1l9-1zm67 1 2.5.5-2.5.5zm216 0q4.1-.6 5.5 1.5l-1.5.5q-.7-1.7-4-1zm53 1 3.5 1.5-1.5.5-2.5-1.5zm-352 1 3.5.5-3.5.5zm298 0 17.5 8.5-1.5.5-16-8zm8 0h3l9.5 3.5-2.5.5-4-2-6-1zm-313 1 .5 1.5-9.5 1.5v-1l8-1zm2 0 3.5.5-3.5.5zm146 0q1.5 1-1 2l-3 2-.5-.5 2.5-2.5zm-41 2 1.5.5-26.5 9.5-6 1v-1l6-1zm-121 1 3.5.5-3.5.5zm201 0 .5.5-2.5 2.5-.5-.5zm184 0 3.5 1.5-1.5.5-2.5-1.5zm-390 1 3.5.5-3.5.5zm-5 1 3.5.5-3.5.5zm91 0 2.5.5-2.5.5zm-97 1 4.5.5-7.5 1.5v-1zm90 1 2.5.5-2.5.5zm124 0-.5 1.5-.5 1.5-3.5 2.5q2.3 1.3-.5 2.5l-1.5-1.5zm-222 1 3.5.5-3.5.5zm94 0 2.5.5L98.5 364l-3 2-15 5v-1l15-5 3-2 45-15h3zm268 0 20.5 9.5-1.5.5-19-9zm-368 1 4.5.5-7.5 1.5v-1zm431 1 3.5 1.5-1.5.5-2.5-1.5zm-440 1 4.5.5-7.5 1.5v-1zm-7 2 2.5.5-2.5.5zm133 0 1.5.5-2.5 1.5h-3l-4 2-6 1v-1l6-1zm-139 1 4.5.5-13 3 4 1-11.5.5v-1h4zm35 0 4.5.5-4.5.5-1 1q-1.5-1 1-2Zm-11 1 8.5.5-8.5.5zm217 0 .5.5-3.5 3.5-.5-.5zm223 0 3.5 1.5-1.5.5-2.5-1.5zm-452 1 9.5.5-9.5.5zm-13 1 10.5.5-10.5.5zm122 1 2.5.5-13.5 4.5-7 1v-1l7-1zm291 0 49 21 5 1 3 2 18 6 3 2 34.5 11.5-2.5.5-18-6-3-2-11-3-11-5-5-1-21-9h-2l-5-3h-2l-24-11h-2l-6-3zm-177 2 .5.5-3.5 3.5-.5-.5zm242 2 6 3h2l19 10h2l60.5 31.5-1.5.5-5.5-2.5-.5-1.5-2 1v-2l-51-26h-2l-19-10h-2l-6-3zm-378 2 2.5.5-2.5.5zm99 0q1.5 1-1 2l-12.5 7.5 1.5.5 13-8 .5.5-2.5 2.5-24 13v-3l2 1-.5-1.5 1.5-1.5 2-1v2l4.5-2.5-1.5-.5-1.5.5zm32 0 .5.5-3.5 3.5-.5-.5zm-135 1 2.5.5-7.5 2.5h-3v-1h3zm-12 3 2.5.5-2.5.5zm142 0 .5.5-3.5 3.5-.5-.5zm-146 1 2.5.5-2.5.5zm288 0 3.5 3.5-.5.5-3.5-3.5zm-292 1 2.5.5-3.5 1.5h-4v-1q4 1 5-1Zm-23 2 1.5.5-7 3 4 1-3.5.5-3-1v1l1.5.5-11.5 2.5v-1h2zm14 0 2.5.5-2.5.5zm-5 1 3.5.5-3.5.5zm158 0 .5.5-2.5 2.5-.5-.5zm29 0-.5 1.5-11.5 20.5-1.5-.5 1 2-1.5-.5-2 2-.5-.5 7-9 1-3zm-191 1 2.5.5-3.5 1.5h-4v-1q4 1 5-1Zm314 0 3.5 3.5-.5.5-3.5-3.5zm-156 2 .5.5-3.5 3.5-.5-.5zm-62 4q1.5 1-1 2l-15 11-1.5-.5-2.5 3.5-2-1 .5 1.5-2.5 2.5v-2l-2.5 1.5 1 1-3.5 3.5-7 5-.5-.5 2.5-2.5 7.5-5.5-1.5-.5-25.5 17.5 1.5.5 10-5v1l-11 5-1.5-.5-.5 1.5-7 3v-1l26-17 6-5 3-1z" opacity=".996"/><path fill="#61876d" stroke="#61876d" d="m196.5 379-.5 1.5 1 1-1.5 1.5-19 9-2 2-14 7h-2l-20 10v-1l25-12 2-2 11-5 4-3 1.5.5.5-1.5 1.5.5.5-1.5 1.5.5 1.5-2.5 2-1 2 1v-2l2 1-.5-1.5 1.5-1.5zm39 0 .5.5-2.5 2.5-.5-.5zm166 2 5.5 5.5 40 54 34 50 1 3 20 30-.5.5-3.5-3.5-11-19-32-48-25-35-29-37zm-171 2 .5.5-2.5 2.5-.5-.5zm-4 3 .5.5-2.5 2.5-.5-.5zm-5 4 .5.5-2.5 2.5-.5-.5zm-4 3 .5.5-2.5 2.5-.5-.5zm105 2 .5 21.5 1 3q-1 1.5-2-1v-11l-1-1v-7zm-109 1 .5.5-2.5 2.5-.5-.5zm61 1-.5 1.5-4.5 8.5.5-1.5zm-65 2 .5.5-2.5 2.5-.5-.5zm45 2 .5.5-2 2-2.5 3.5-.5-.5 2-2zm-49 1 .5.5-2.5 2.5-.5-.5zm185 0q56.4 80.6 125 149l.5-1.5-20-28 .5-.5 3.5 3.5 19 28h-2l1.5 2.5q1.3-2.2 2.5.5l4 6-.5.5-14.5-14.5-29-31-38-44-48-62-5-8zm-84 2 .5 3.5h-1zm254 0 20.5 6.5-2.5.5-4-2h-3l-9-3-2.5-1.5zm-359 1 .5.5-2.5 2.5-.5-.5zm77 2 .5 1.5-1.5 2.5-.5-1.5zm309 0 32.5 15.5-1.5.5-4-2h-3l-4-2-10-2-7-3h-3l-5.5-2.5 1.5-.5 14 5 10 2v-1l-20-9zm-390 1 .5.5-2.5 2.5-.5-.5zm52 0 .5.5-2 2-2.5 3.5-.5-.5 2-2zm19 0-.5 1.5-3.5 6.5.5-1.5zm-52 1 .5.5-9 9-22.5 24.5-41 39-18 15-.5-.5 4-4 5.5-6.5-1 3q26.4-21.6 49.5-46.5l-1-1 17.5-17.5 1 1 4.5-4.5zm-23 2 .5.5-2.5 2.5-.5-.5zm91 0 .5 3.5h-1zm-8 1 .5 1.5-7 16-4.5 13.5-.5-1.5zm60 0 .5 51.5q2.2 1.3 1 6h-1q1.2-4.7-1-6zm-147 2 .5.5-2.5 2.5-.5-.5zm116 0 .5 3.5h-1zm-61 1 .5.5-2 2-5.5 7.5-.5-.5 2-2zm19 2-.5 1.5-2.5 4.5.5-1.5zm20 0 .5 3.5h-1zm62 0 .5 5.5h-1zm-97 2 .5 1.5-5.5 10.5-.5-1.5zm-69 5 .5.5-4.5 4.5-.5-.5zm80 0-.5 1.5-2.5 4.5.5-1.5zm23 0 .5 3.5h-1zm64 0 .5 6.5h-1zm-110 2 .5.5-2.5 2.5-.5-.5zm68 0 .5 3.5h-1zm-132 3 .5.5-5.5 5.5-51 39-47 32-.5-.5 5.5-5.5 1.5.5L97.5 478l5-4 .5.5-5.5 5.5L79 497.5l1.5.5 51-36 36-28zm61 1-.5 1.5-23 45-2 6 .5.5 2.5-2.5 30.5-46.5.5 1.5-23 35-18.5 25.5.5-1.5 24-50 2-2zm22 1-.5 1.5-1.5 2.5.5-1.5zm26 0 .5 4.5h-1zm66 1 .5 6.5h-1zm-95 4-.5 1.5-5.5 11.5-.5-1.5 2-3v-2zm51 2 .5 4.5h-1zm-23 1 .5 4.5h-1zm68 2 .5 6.5h-1zm-84 3 .5 2.5-4.5 10.5-.5-1.5z" opacity=".996"/><path fill="#61876d" stroke="#61876d" d="m178.5 445 .5.5-8.5 8.5-.5-.5zm101 3 .5 6.5h-1zm70 1 .5 7.5h-1zm-104 1 .5 1.5-4.5 10.5-.5-2.5zm57 3 .5 5.5h-1zm-136 3 .5.5-7.5 7.5-.5-.5zm93 2 .5 2.5-3 6-3 10-2 3-3 10-2 3-1 5-6 13v2l-5 10v2l-14 30v2l-6 11v2l-5.5 9.5.5-1.5 3-6v-2l6-11v-2l5-9v-2l4-7v-2l6-12 2-7 3-5v-2l6-13 1-5 4-8 1-5 4-8zm91 0 .5 7.5h-1zm-110 5 .5 1.5-4 8-1 5-2 3-1 5-2 3-6.5 19.5-.5-2.5 4-9 2-8 2-3 1-5 2-3 1-5 2-3 1-5zm-84 2 .5.5-6.5 6.5-.5-.5zm195 3 .5 6.5h-1zm-13 4 .5 4.5h-1zm-191 1 .5.5-5.5 5.5-.5-.5zm205 3 1.5 4.5-1.5.5zm-13 2 .5 5.5h-1zm-200 2 .5.5-3.5 3.5-.5-.5zm214 2 .5 3.5h-1zm-13 3 .5 4.5h-1zm14 2 .5 4.5h-1zm-13 4 .5 4.5h-1zm14 2 .5 4.5h-1zm-13 4 .5 4.5h-1zm14 2 .5 4.5h-1zm-13 4 .5 4.5h-1zm14 2 .5 5.5h-1zm-134 4 .5 1.5-3 9-2 3-3 9v3l-4.5 12.5-.5-2.5 3-7v-3l5-15zm121 0 .5 3.5h-1zm14 3 .5 4.5h-1zm-13 2 .5 4.5h-1zm14 4 .5 5.5h-1zm-13 2 .5 3.5h-1zm1 5 .5 4.5h-1zm13 0 .5 5.5h-1zm-12 6 .5 3.5h-1zm13 2 .5 5.5h-1zm-12 3 .5 3.5h-1zm13 4 .5 6.5h-1zm-12 1 .5 3.5h-1zm1 5 .5 3.5h-1zm-141 2 1.5 2.5h-2l1 2-3.5 6.5-.5-1.5zm153 0 .5 6.5h-1zm-11 3 .5 3.5h-1zm-140 4 .5 2.5-2.5 6.5-.5-2.5zm141 1 1.5 7.5h-1l-1-3zm11 1 .5 6.5h-1zm-155 8 .5 1.5-2.5 7.5-.5-3.5zm146 0 .5 3.5h-1zm10 1 .5 7.5h-1zm-9 4 .5 2.5h-1zm1 4 .5 3.5h-1zm-151 1 .5 1.5-3 8v3h1l3.5-7.5.5 1.5-9.5 18.5-.5-1.5 2.5-6.5 1.5-.5q-1.7-.7-1-4zm160 0 .5 8.5h-1zm-8 4 .5 2.5h-1zm1 4 1.5 6.5h-1l-1-3zm8 3 .5 8.5h-1zm-6 5 1.5 7.5h-1l-1-3zm7 6 .5 9.5h-1zm-5 3 .5 2.5h-1zm1 4 4 17 1-12 .5 11.5q-1.7.8-1 4h2l-.5 8.5-1.5-7.5-1-1v-3l-1-1v-3l-1-1v-3l-1-1z" opacity=".996"/><path fill="#83b371" stroke="#83b371" d="m245.5 5 4.5 10.5 1 5 2 3 2 8 2 3 2 8 2 3 16 48v3l4 10v3l3 7v3l6 18 2 11 2 4 2 11 2 4 1 8 3 9v5l1 1q-1.2 4.8 1 6v5l1 1q-1 1.5-2-1l-3-7-7-11v-2l-9-19v-2l-5.5-9.5-.5 2.5q2.3 1.3 1 6h-1l-1-7-2-4v-3l-1-1v-3l-1-1v-3l-1-1v-3l-1-1v-3l-1-1v-3l-1-1v-3l-1-1v-3l-3-9v-4l-1-1-1-8-3-9-1-9-2-5v-4l-2-6v-5l-2-5v-5l-1-1v-4l-2-6-1-11-2-6v-6l-1-1v-5q-1.7-.7-.5-2.5Zm160 1 .5 3.5-1 1-1 11-2 6v5l-1 1v4l-2 6v4l-1 1v4l-1 1-2 14-1 1v4l-2 5v4l-2 5v4l-2 5v4l-3 9v4l-1 1v3l-1 1v3l-3 9v4l-2 4v3l-14 23-13 26v2l-4.5 9.5-.5-1.5 1-1v-3l1-1v-3l1-1v-3l1-1v-3l1-1v-3l1-1v-3l1-1v-3l1-1 3-15 1-1v-3l2-4 1-7 2-4v-3l3-8v-3l3-7v-3l3-7v-3l5-13v-3l12-36 2-3 4-14 2-3 2-8 2-3zm135 77 .5.5-4 4-4 6-31 36-43.5 46.5-23 16-8 7-14 9-.5-.5 35-35 30-34-1-1 2.5-2.5 34-30zm-434 1 60 52 65.5 62.5 21 23-1.5-.5-10-5-2-2-24-12-4-1-25.5-25.5-46-50-32-38-2-3zm55 97 9 8 24 18 42.5 29.5-1.5-.5-24-12-45-37-5.5-5.5zm-136 27 3 1h5l1 1h5l6 2h5l1 1h5l6 2h5l1 1h4l1 1h4l1 1h4l1 1 14 2 5 2h4l5 2h4l1 1h3l9 3h4l4 2h3l1 1h3l6 2 3 2 10 3 9 5h2l5 3 7.5 2.5-5 1 .5 1.5h4l5 2 8 1 28.5 11.5-4.5.5-1 1h-5l-3-2h-4l-1-1h-3l-1-1h-3l-1-1h-3l-1-1h-3l-1-1-15-3-1-1h-3l-4-2-7-1-4-2-7-1-21-7h-3l-10-4-10-2-3-2-15-5h-3l-3-2-37-12-16-7-5-1zm591 14 3.5.5-13.5 4.5-3 2-5 1-3 2-8 2-3 2-17 5-3 2-15 5h-3l-16 6h-3l-7 3h-3l-4 2h-7l-1 1h-10l-1 1h-8l-1 1-17 1-1 1h-17l-1 1h-16l-3 1v-1l6-1 14-5h3l4-2h3l4-2h3l4-2h3l1-1h3l1-1h3l12-4h3l5-2h4l1-1h3l9-3h4l9-3h4l5-2h4l1-1h4l1-1h4l1-1h4l1-1h4l1-1h4l1-1h4l1-1h4l6-2h5l1-1h5l1-1 10-1 1-1h6zm-378 15 2.5 1.5-1.5.5q-2.5-1-1-2Zm-164 18 2 1h23l1 1h16l1 1h13l1 1 22 1 1 1h9l1 1h7l1 1h8l1 1h7l1 1h6l1 1h7l1 1h6l2.5 1.5-8.5.5-1 1h-6l-1 1-9 1-1-1h-13l-1-1h-15l-1-1h-19l-1-1h-8l-1-1h-4l-1-1h-4l-1-1h-4l-1-1-14-2-1-1h-3l-5-2h-4l-5-2h-4l-2.5-1.5zm321 32 3.5.5-3.5.5zm-46 5 5.5 3.5-2.5 1.5-3.5-3.5zm22 26 12.5 6.5-1.5-.5-5-1-6.5-3.5zm-156 4 1.5.5-11.5 7.5-6 1-4 2h-3l-4 2-7 1-3 2h-4l-4 2h-3l-1 1h-3l-1 1h-3l-1 1h-3l-1 1h-3l-1 1h-3l-1 1-15 3-1 1h-4l-9 3h-4l-5 2-9 1-5 2h-4l-1 1-10 1-1 1-8 1-1 1h-5l-6 2h-5l-1 1h-5l-1 1-10 1-1 1h-6l-2 1v-1l12-4 3-2 5-1 3-2 11-3 5-3h3l9-3 3-2 18-6h3l16-6h3l10-4q3.3.8 4-1h7l1-1 18-1 1-1h8l1-1h7l1-1h7l1-1h7l1-1 13-1 1-1q4.8 1.3 6-1Zm217 3 10 2 1 1h3l1 1h3l1 1h3l1 1h3l1 1h3l1 1h3l12 4h3l4 2 7 1 21 7h3l10 4h3l13 5h3l6 2 3 2h3l15 5 3 2 14 4 3 2 8 2 3 2 5 1 10.5 4.5-3.5.5-6-2-11-1-1-1h-4l-1-1h-4l-1-1h-4l-1-1-10-1-5-2h-4l-1-1-14-2-5-2h-4l-5-2h-4l-9-3h-4l-1-1h-3l-1-1-15-3-34-16h-2l-10-5-7-2q-4.8-5.7-12-9zm-159 24 .5.5-4 4-36 50-22 33-15 25-26.5 28.5-.5-.5 2-2 12-20 28-41 42-55-.5-.5-19.5 19.5-32.5 33.5-53 49-43 36-.5-.5 5-5 29-35 47.5-51.5 51-38zM257 367l-3 4h1l3-3zm89.5-18 7.5 17.5v2l6 12v2l9 18v2l31 62 1 5 2 3 7 21v3l8 24h-1l-30-59v-2l-6-11v-2l-13-27v-2l-5-10-1-5-3.5-7.5-.5 3.5 9 27 1 7 2 4 1 7 2 4v3l1 1v3l1 1v3l1 1v3l1 1v3l1 1v3l3 9v4l1 1 1 8 3 9v4l2 5v4l1 1v4l1 1v4l1 1v4l1 1v4l1 1v4l1 1v4l2 6v5l2 6v5l1 1v5l1 1v5l1 1q-.8 4.8 1 7h-1l-5-15-2-3-1-5-2-3-2-8-2-3-6-20-2-3-2-6v-3l-14-42v-3l-6-18-1-7-2-4v-3l-1-1v-3l-1-1v-3l-3-8v-4l-1-1v-3l-3-9q1-4-1-5v-10q-1.7-.7-1-4h1l1 7 2 4v3l2 4v3l2 4 2 10 3 7v3l4 10v3l10 30 1.5 1.5.5-1.5-1-1v-5l-1-1v-5l-1-1q1.3-4.7-1-6l-1-12-1-1-1-10-2-6v-5l-1-1v-4l-1-1v-4l-1-1v-4l-1-1v-4l-1-1-1-7q2.5-1.5-1-3l-1-8-2-5v-4l-1-1v-3l-1-1-3-15-2-4zm37 7 3.5 3.5-.5.5-3.5-3.5zm4 5 30 30 .5-.5-4-9-7-11 .5-.5 3 3 21 14 33.5 33.5 43 47 32 39-.5.5-5-5-20-16-46-41-68.5-67.5q-5.4-9.1-13-16zm-81 35 .5 7.5-1 1v9l-1 1-1 23-1 1v14l-1 1v18l-2 6v5l-1 1v4l-1 1v4l-1 1-2 14-2 5v4l-1 1-1 8-1 1v3l-1 1-1.5 7.5-.5-10.5 1-1v-20l1-1v-15l1-1v-12l1-1v-11l1-1v-9l1-1v-8l1-1 1-16 5-15 2-3zm-24 5 .5 2.5-1 1-1 8h1l2.5-4.5.5 2.5-1 1-1 12-1 1v6l-1 1-1 16-1 1v10l-1 2q2 1 1 5l-1 1-1 7 1 3-12 36v3l-3 6v3l-4 12-2 3-4 14-2 3-2 8-2 3-2 8-4.5 10.5-.5-2.5 1-1v-5l2-6v-5l2-6v-5l1-1v-4l1-1v-4l1-1v-4l1-1 2-14 2-5v-4l1-1v-4l2-5v-4l2-5v-4l3-9v-4l1-1v-3l1-1v-3l1-1v-3l1-1v-3l1-1v-3l1-1v-3l1-1 3-15 2-4 2-11 2-4v-3l2-4v-3z" opacity=".976"/><path fill="#979e8f" stroke="#979e8f" d="m420.5 2 .5 1.5q-1 2.5-2 1zm-135 3 .5 5.5h-1zm-37 1 1.5 2.5q-1 1.5-2-1zm153 4 .5 1.5-1 2 .5 1.5-1.5-2.5zm-151 2 1.5 2.5q-1 2.5-2 1l1-2zm148 6 .5 1.5-1.5 2.5-.5-1.5zm14 0 .5 1.5q-1 2.5-2 1zm-159 1 1.5 3.5q-1 2.5-2 1l1-2q-1.7-.7-.5-2.5Zm33 5 .5 2.5h-1zm109 2 .5 1.5q-1 2.5-2 1zm-139 1 1.5 2.5q-1 1.5-2-1zm4 11 1.5 2.5q-1 1.5-2-1zm143 0-.5 1.5-.5 1.5-.5-1.5zm-13 2 .5 1.5q-1 2.5-2 1zm-104 1 .5 2.5h-1zm-19 12 .5 1.5q-1 2.5-2 1zm0 4q2.5 1 1 2l-1.5-.5zm-12 16 .5 2.5h-1zm-152 8 .5 1.5q-1 2.5-2 1zm436 0 .5.5-2.5 2.5-1.5-.5zm-5 4 .5.5-2.5 2.5-.5-.5zm3 5 .5.5-2 2-1.5 2.5q-2.5-1-1-2zm-425 5 3.5 4.5q-1 1.5-2-1l-2-3zm35 0 2.5 3.5h-1l-2-3zm385 1 .5.5-2 2-1.5 2.5q-2.5-1-1-2zm-405 3 2.5 2.5-.5.5-2.5-2.5zm435 3 .5.5-4.5 4.5-.5-.5zm-428 3 2.5 2.5-.5.5-2.5-2.5zm388 3 .5.5-2.5 2.5-.5-.5zm-394 6 4.5 3.5-1.5.5-3.5-3.5zm387 2 .5.5-2.5 2.5-.5-.5zm-366 2 1.5.5-.5 1.5q-2.5-1-1-2Zm169 0 .5 2.5h-1zm172 4 1.5.5-2.5 1.5q-1.5-1 1-2Zm18 2 .5.5-2.5 2.5-.5-.5zm-367 5 4.5 4.5-.5.5-4.5-4.5zm339 2-.5 1.5 1 1-1.5 1.5.5-1.5-1-1zm21 1 .5.5-3.5 3.5-.5-.5zm-26 4 .5.5-3.5 3.5-.5-.5zm-327 1 3.5 3.5-.5.5-3.5-3.5zm169 1 .5 2.5h-1zm173 6 .5.5-2.5 2.5-.5-.5zm-333 3 5.5 5.5-.5.5-5.5-5.5zm328 2 .5 1.5-1 1 .5 1.5-2.5-2.5.5-.5 1.5.5zm-321 5 1.5.5-1 1 .5 1.5q-2.4-.9-1-3Zm153 0 .5 3.5h-1l-1-2zm164 0 .5.5-2.5 2.5-.5-.5zm-80 6-.5 1.5-.5 1.5-1.5-.5zm-229 3 5.5 5.5-.5.5-5.5-5.5zm8 8 2.5 1.5-1 1 .5 1.5q-3.6-1.1-2-4Zm-26 7 2.5 2.5-.5.5-2.5-2.5zm37 5 5.5 5.5-.5.5-5.5-5.5zm-141 3 3.5 1.5-1.5.5-2.5-1.5zm95 2 8.5 4.5-1.5.5-6-3q-2.5-1-1-2Zm-78 7 3.5 1.5-1.5.5-2.5-1.5zm107 0 3.5 3.5-.5.5-3.5-3.5zm-146 11 2.5.5-2.5.5zm421 2 1.5.5-2.5 1.5q-1.5-1 1-2Zm-257 2 2.5 2.5-.5.5-2.5-2.5zm252 0 1.5.5-2.5 1.5q-1.5-1 1-2Zm175 9 2.5.5-2.5.5zm-565 2 2.5 1.5-1.5.5q-2.5-1-1-2Zm53 0 2.5.5-2.5.5zm498 0 3.5.5-3.5.5zm-489 2 2.5.5-2.5.5zm498 3q1.5 1-1 2l-1.5-.5zm-42 1q3.8-.7 4.5 1.5l-1.5-.5q-4 .8-3-1Zm-498 1 5.5 2.5-1.5.5-3-1q-2.5-1-1-2Zm529 1 2.5 1.5-1.5.5q-2.5-1-1-2Zm-51 2 2.5.5-2.5.5zm-14 3 2.5.5-2.5.5zm-445 1 7.5 2.5-1.5.5-6-2zm11 3 2.5 1.5-1.5.5q-2.5-1-1-2Zm405 3 2.5 1.5-1.5-.5q-2.4-.1-1-1Zm64 0q1.5 1-1 2l-1.5-.5zm-101 9 2.5.5-2.5.5zm71 1 2.5.5-3.5 1.5q-1.5-1 1-2Zm56 0 2.5.5-2.5.5zm-516 1q1.5 1-1 2l-4.5-.5 4.5-.5zm451 2 1 1 1.5-.5-1.5 1.5q-2.5-1-1-2Zm-457 3q1.5 1-1 2l-1.5-.5zm367 1 2.5.5-2.5.5zm-349 5 2.5.5-2.5.5zm323 1 5.5.5-5.5.5zm-335 1 8.5.5-8.5.5zm122 24 4.5.5-4.5.5zm-15 2 8.5.5-.5 1.5-3-1h-5zm249 33 2.5.5-2.5.5zm-62 1 2.5.5-2.5.5zm66 0 2.5.5-2.5.5zm-52 4 3.5 2.5-1.5-.5q-3.8-.7-2-2Zm-341 10 3.5.5-3.5.5zm463 5 2.5.5-2.5.5zm-106 2 3.5 2.5-1.5-.5q-3.8-.7-2-2Zm116 1 2.5.5-2.5.5zm16 5 2.5.5-2.5.5zm-488 5 2.5 1.5-1.5-.5q-2.4-.1-1-1Zm54 0 1.5.5-2.5 1.5q-1.5-1 1-2Zm-6 1 3.5.5q-1.2 2.7-2.5.5-2.4-.1-1-1Zm-67 6 2.5 1.5-1.5-.5q-2.4-.1-1-1Zm544 0 2.5 1.5-1.5-.5q-2.4-.1-1-1Zm-523 3 2.5.5-2.5.5zm474 0 2.5.5-2.5.5zm8 0q1.5 1-1 2l-1.5-.5zm9 2q1.5 1-1 2l-1.5-.5zm-508 1 3.5.5-3.5.5zm-7 1 2.5.5-2.5.5zm516 0 2.5.5-2.5.5zm56 2 1.5.5-2.5 1.5q-1.5-1 1-2Zm-42 1 3.5.5-3.5.5zm21 4 2.5.5-2.5.5zm8 0q1.5 1-1 2l-3.5-.5zm12 4 2.5.5-2.5.5zm7 1 2.5.5-2.5.5zm-415 3 1.5.5-3.5 1.5v-1zm42 5q1 2 2 0l1.5.5-3.5 2.5zm345 5 3.5 1.5-1.5.5-2.5-1.5zm-134 2 3.5 3.5-.5.5-3.5-3.5zm-26 1 1.5 2.5q-1 1.5-2-1zm-193 2-.5 1.5 2 2-.5.5-2-2-1.5.5zm226 4 10.5 10.5-.5.5-10.5-10.5zm-308 5q1.5 1-1 2l-2 1q-1.5-1 1-2zm286 0 9.5 9.5-.5.5-9.5-9.5zm-210 1 1.5.5-2.5 2.5-.5-.5zm391 4 8.5 4.5-1.5.5-6-3q-2.5-1-1-2Zm-144 5 3.5 3.5-1.5 1.5-1.5-1.5 1-1-2-2zm154 0 2.5 1.5-1.5.5q-2.5-1-1-2Zm-180 1 5.5 5.5-.5.5-5.5-5.5zm-229 1 2.5.5-3.5 2.5.5-1.5zm-10 5-.5 1.5-2.5 3.5-.5-.5 2-2zm271 0 3.5 3.5-.5.5-3.5-3.5zm-104 1 1 1 1.5-.5q-1.7.8-1 4l.5 1.5-1.5-1.5v-3zm-162 1 1.5.5q-1 2.5-2 1zm245 1 1.5 1.5-1 1 .5 1.5-2.5-2.5zm-101 5-.5 1.5-.5 1.5-.5-1.5zm110 5 3.5 3.5-.5.5-3.5-3.5zm25 1 4.5 4.5-.5.5-4.5-4.5zm-135 2q2 .5 1.5 3.5-1 1.5-2-1l1-1zm-60 1 .5 1.5-1.5 2.5-.5-1.5zm177 1-.5 1.5 2 2-.5.5-2.5-2.5zm-316 4 1.5.5-.5 1.5q-2.5-1-1-2Zm114 0 .5 1.5-1.5.5q-1.5-1 1-2Zm115 1-.5 1.5-.5 1.5-.5-1.5zm93 2 2.5 2.5-.5.5-2.5-2.5zm22 0 3.5 3.5-.5.5-3.5-3.5zm-346 1 .5.5-3.5 3.5-.5-.5zm115 1 1.5 2.5q-1 1.5-2-1zm21 3 .5 1.5q-1 2.5-2 1zm-114 1 .5.5-2.5 2.5-.5-.5zm-30 4 .5.5-2.5 2.5-.5-.5zm351 7 2.5 2.5-.5.5-2.5-2.5zm-359 2 .5.5-2.5 2.5-.5-.5zm365 2v2l1.5.5-1.5.5q-3-1.5 0-3Zm3 4 2.5 2.5-.5.5-2.5-2.5zm-223 1 .5 1.5q-1 2.5-2 1zm-97 1 1.5.5q-1 2.5-2 1zm180 1 1.5 2.5q-1 1.5-2-1zm-186 6 .5.5-2.5 2.5-.5-.5zm351 1 3.5 4.5-.5.5-3-3-1.5-.5zm-162 3 1.5 2.5q-1 1.5-2-1zm-199 1 2.5 2.5-.5.5-2.5-2.5zm-46 6 1 1 1.5-.5-1.5 1.5q-2.5-1-1-2Zm417 2 2.5 3.5-.5.5-2.5-2.5zm-123 1 1.5 4.5h-1q-1.7-1.7-.5-4.5Zm-143 4 .5 1.5q-1 2.5-2 1zm263 0 2.5 2.5-.5.5-2.5-2.5zm-163 5 1.5 2.5q-1 1.5-2-1zm40 4 1.5.5-.5 1.5 1.5.5-1.5.5q-2.4-.9-1-3Zm7 2 1.5 2.5h-1zm-126 11 .5 2.5h-1zm-8 7 .5 4.5h-1zm215 5 2.5 3.5-.5.5-2.5-2.5zm-240 3-.5 1.5-.5 1.5-.5-1.5zm-6 17-.5 1.5-.5 1.5-.5-1.5zm136 3 1.5 3.5h-1zm6 16 1.5 3.5h-1zm-151 5-.5 1.5-.5 1.5-.5-1.5zm153 0 1.5 3.5h-1z" opacity=".02"/><path fill="#4ddd95" stroke="#4ddd95" d="m285.5 13 .5 2.5h-1zm-165 55 6.5 6.5-.5.5-6.5-6.5zm444 33 .5.5-4.5 4.5-.5-.5zm-433 17 2.5 2.5-.5.5-2.5-2.5zm380 2 .5 1.5q-1 2.5-2 1zm-327 56 2.5 2.5-.5.5-2.5-2.5zm21 129 2.5.5-2.5.5zm-9 129 .5.5-3.5 3.5-.5-.5zm71 11 .5 2.5h-1zm86 3 .5 1.5q-1 2.5-2 1zm-173 2 .5.5-5.5 5.5-.5-.5zm212 26 1.5 3.5h-1zm-219 4q2.5 1 1 2l-1.5-.5zm-94 12 .5.5-4.5 4.5-.5-.5zm324 7 2.5 3.5q-1 1.5-2-1zm100 44 2.5 2.5-.5.5-2.5-2.5zm13 13 6.5 6.5-.5.5-6.5-6.5z" opacity=".008"/><path fill="#596e59" stroke="#596e59" d="m419.5 5-.5 1.5-5.5 11.5-.5-1.5zm-77 38 .5 2.5h-1zm87 2 .5 1.5q-1 2.5-2 1zm-81 2 .5 32.5h-1zm-7 1 .5 2.5h-1zm-2 11 .5 2.5h-1zm-129 4-.5 1.5-.5 1.5-.5-1.5zm128 2 .5 2.5h-1zm-127 1-.5 1.5-.5 1.5-.5-1.5zm126 5 .5 2.5h-1zm-1 6 .5 2.5h-1zm-177 3 4.5 3.5-1.5-.5-3.5-2.5zm57 0-.5 1.5-.5 1.5-.5-1.5zm119 3 .5 2.5h-1zm137 3 1.5.5-4.5 3.5-.5-.5zm2 2q2.8 1.3.5 2.5l-1.5 2.5.5-1.5 1-2zm-140 1 .5 2.5h-1zm12 1 .5 3.5h-1zm-177 1 2.5 1.5-1.5-.5q-2.4-.1-1-1Zm51 0-.5 1.5-.5 1.5-.5-1.5zm246 2 .5.5-4 4 .5 1.5-1.5-1.5zm-257 2 1.5 2.5q-1 1.5-2-1zm261 0q2.7 1.3.5 2.5l-1.5 2.5.5-1.5 1-2zm-137 1 .5 2.5h-1zm-157 3 2.5 1.5-1.5-.5q-2.4-.1-1-1Zm285 0 .5.5-4 4 .5 1.5-1.5-1.5zm-129 3 .5 3.5h-1zm15 0 .5 12.5h-1zm119 0q2.8 1.3.5 2.5l-1.5 2.5.5-1.5 1-2zm-300 1 1.5.5q-1 2.5-2 1zm59 1-.5 1.5-.5 1.5-.5-1.5zm-9 1 1.5 2.5q-1 1.5-2-1zm240 0 .5.5-3.5 3.5-.5-.5zm-5 6 .5.5-3.5 3.5-.5-.5zm-4 5 .5.5-3.5 3.5-.5-.5zm-102 3 .5 2.5h-1zm-136 2 3.5 2.5-.5.5-2-2q-2.4-.1-1-1Zm234 0 .5.5-2.5 2.5-.5-.5zm-264 2 3.5 5.5h-1l-3-5zm-24 2 2.5 1.5-1.5.5q-2.5-1-1-2Zm59 1 2.5 2.5-.5.5-2.5-2.5zm132 0 .5 8.5h-1zm93 0 .5.5-2.5 2.5-.5-.5zm13 2-.5 1.5-1.5 2.5v-3zm-235 2 3 3 1.5-.5-2.5 2.5-.5-.5 1-1-3-3zm218 1 .5.5-2.5 2.5-.5-.5zm-213 3v2l1.5.5-1.5.5q-3-1.5 0-3Zm13 0 1.5 2.5h-1zm197 1 1.5.5-3.5 2.5-.5-.5zm15 1-.5 1.5-1.5 2.5v-3zm-103 1 .5 2.5h-1zm-90 1 2.5 3.5q-1 1.5-2-1zm174 2 .5.5-2.5 2.5-.5-.5zm-318 1 3.5 3.5-.5.5-3.5-3.5zm42 0 2.5 1.5-1.5.5q-2.5-1-1-2Zm316 1q3 1.5 0 3l-1-1-2 2-.5-.5zm-123 1 .5 6.5h-1zm-156 1 2.5 1.5-1.5-.5q-2.4-.1-1-1Zm236 0 .5.5-2.5 2.5-.5-.5zm17 0-.5 1.5-1.5 2.5v-3zm-326 2 3.5 3.5-.5.5-3.5-3.5zm346 1 1 1 1.5-.5-1.5 1.5-1-1-2 2-.5-.5zm-40 1 1.5.5-3.5 2.5-.5-.5zm-200 2v2l1.5.5q-1.2 2.8-2.5.5l-1.5-.5zm235 1 1 1 1.5-.5-2.5 2.5-.5-.5 1-1zm-334 1 3.5 3.5-.5.5-3.5-3.5zm296 0 1.5.5-3.5 2.5-.5-.5zm64 0 .5 1.5q-1 2.5-2 1zm-108 3 1.5 2.5q-1 1.5-2-1zm60 0-.5 1.5-3.5 5.5v-3l2.5-1.5-.5-1.5zm16 1 1 1 1.5-.5-1.5 1.5-1-1-2 2-.5-.5zm-322 1 2.5 2.5-.5.5-2.5-2.5zm135 0 1.5 3.5h-1zm80 1 .5 5.5h-1zm69 2 1.5.5-3.5 2.5-.5-.5zm33 0q3 1.5 0 3l-1-1-2 2-.5-.5zm-129 1 1.5 2.5q-1 1.5-2-1zm-182 1 2.5 2.5-.5.5-2.5-2.5zm262 0 1.5 2.5-2.5 2.5-.5-.5 2-3zm13 2 1.5.5-3.5 2.5-.5-.5zm-250 1q2.5 1 1 2l-1-1-1.5.5zm-20 1 2.5 2.5-.5.5-2.5-2.5zm69 0 .5 1.5-1.5.5q-1.5-1 1-2Zm230 0 1 1 1.5-.5-1.5 1.5-1-1-1.5.5zm-170 2 1.5.5-2.5 1.5q-1.5-1 1-2Zm138 0 1.5.5-3.5 2.5-.5-.5zm-239 2q2.5 1 1 2l-1-1-1.5.5zm175 0 .5 4.5h-1zm90 1 1 1 1.5-.5-2.5 2.5-1.5-1.5zm-30 1 1.5.5-4.5 5.5.5-1.5zm-130 4 .5 1.5-1.5.5q-1.5-1 1-2Zm-94 1q2.5 1 1 2l-1-1-1.5.5zm249 0 .5.5-2.5 2.5-1-1-1.5.5q1.3-2.7 2.5-.5zm-86 3 .5 4.5h-1zm76 1 .5.5-2 2 .5 1.5 1-1 1 1 1.5-.5-3.5 3.5-2-2-.5.5-.5 2.5-1.5.5q-.9 4.6-4.5 6.5l-.5-.5 3-3 3-5-.5-1.5 2.5-1.5-.5-1.5zm138 6 2.5 1.5-1.5-.5q-2.4-.1-1-1Zm5 0 .5 1.5q-1 2.5-2 1zm-11 2 2.5 1.5-1.5-.5q-2.4-.1-1-1Zm-209 1 1.5 3.5-1.5 2.5zm195 4 2.5 1.5-1.5-.5q-2.4-.1-1-1Zm-8 3 2.5 1.5-1.5-.5q-2.4-.1-1-1Zm-73 9 2.5 1.5-.5 1.5-2.5-2.5zm-3 1 2.5 1.5-1.5-.5q-2.4-.1-1-1Zm1 4 1 1 1.5-.5-2.5 2.5-1.5-1.5zm-16 2 2.5 1.5-1.5-.5-1.5.5.5 1.5q-3-1.5 0-3Zm14 1 .5.5-3 3 .5 1.5-2.5-2.5 1.5-1.5q1.5 2.5 3-1Zm-5 4 .5 1.5-1.5.5q-1.5-1 1-2Zm13 1 1 1 1.5-.5-1.5 1.5q-2.5-1-1-2Zm-3 2 1 1 1.5-.5-1.5 1.5q-2.5-1-1-2Zm-3 2 1 1 1.5-.5-1.5 1.5q-2.5-1-1-2Zm-12 8 2.5 2.5-.5.5-2.5-2.5zm-248 1 1 1 1.5-.5-1.5 1.5q-2.5-1-1-2Zm4 1v2l2 1 1.5-.5q-1.2 2.8-2.5.5l-2.5-1.5zm241 0 1 1 1.5-.5-.5 1.5-2 1zm-5 3q1 2 2 0l2.5 1.5-1.5-.5-1.5.5.5 1.5-2.5-2.5zm-290 18 1.5.5q-1 2.5-2 1zm-82 13 1.5.5q-1 2.5-2 1zm50 0 3.5.5-3.5.5zm-45 4 2.5.5-2.5.5zm11 2 2.5.5-2.5.5zm5 1 2.5.5-2.5.5zm6 1 2.5.5-2.5.5zm6 1 2.5.5-2.5.5zm6 1 2.5.5-2.5.5zm6 1 2.5.5-2.5.5zm6 1 3.5.5-3.5.5zm7 1 3.5.5-3.5.5zm7 1 2.5.5-2.5.5zm7 1 3.5.5-3.5.5zm7 1 3.5.5-3.5.5zm8 1 3.5.5-3.5.5zm8 1 4.5.5-4.5.5zm8 1 4.5.5-4.5.5zm10 1 4.5.5-4.5.5zm7 1 1 1 22.5.5-23.5.5zm235 6 2.5 1.5q-1 2.5-2 1l.5-1.5-2 1q-1.5-1 1-2Zm-240 4 2.5 1.5-1.5-.5q-2.4-.1-1-1Zm177 0 4.5 1.5-3.5.5q-2.5-1-1-2Zm-134 2 2.5 1.5-1.5-.5q-2.4-.1-1-1Zm217 1 7.5.5-7.5.5zm-273 1 2.5 1.5-1.5-.5q-2.4-.1-1-1Zm268 0 2.5.5-2.5.5zm19 0 5.5.5-5.5.5zm-5 1 2.5.5-2.5.5zm16 0 5.5.5-5.5.5zm-261 1 2.5 1.5-1.5-.5q-2.4-.1-1-1Zm271 0 4.5.5-4.5.5zm-276 1 2.5 1.5-1.5-.5q-2.4-.1-1-1Zm285 0 4.5.5-4.5.5zm-290 1 3.5 1.5-1.5.5-2.5-1.5zm299 0 4.5.5-4.5.5zm8 1 4.5.5-4.5.5zm-353 1 2.5 1.5-1.5-.5q-2.4-.1-1-1Zm361 0 3.5.5-3.5.5zm-364 1 2.5 1.5-1.5-.5q-2.4-.1-1-1Zm372 0 2.5.5-2.5.5zm-375 1 2.5 1.5-1.5-.5q-2.4-.1-1-1Zm382 0 2.5.5-2.5.5zm-385 1 2.5 1.5-1.5-.5q-2.4-.1-1-1Zm392 0 2.5.5-2.5.5zm-395 1 2.5 1.5-1.5-.5q-2.4-.1-1-1Zm401 0 3.5.5-3.5.5zm7 1 2.5.5-2.5.5zm-396 1 2.5.5-2.5.5zm402 0 2.5.5-2.5.5zm-409 1 2.5.5-2.5.5zm415 0 2.5.5-2.5.5zm-426 1q2.5 1 1 2l-1.5-.5zm5 0 2.5.5-2.5.5zm427 0 2.5.5-2.5.5zm5 1 2.5.5-2.5.5zm-138 1 2.5.5-3 1 .5 1.5q-3-1.5 0-3Zm144 0 2.5.5-2.5.5zm-137 1 4.5.5-4.5.5zm142 0 2.5.5-2.5.5zm5 1 2.5.5-2.5.5zm-113 2q1 2 2 0l3.5.5-4 1-.5 1.5-2 1-.5-.5 2-2zm24 0 2.5.5-2.5.5zm-12 1 9.5.5-9.5.5zm-103 1 1 1 1.5-.5-1.5 1.5q-2.5-1-1-2Zm121 0 10.5.5-10.5.5zm59 0 8.5.5-8.5.5zm-36 1 21.5.5-21.5.5zm58 0 5.5.5-5.5.5zm-185 16q2.5 1 1 2l-1-1-1.5.5zm-176 11q1.5 1-1 2l-2 1-.5-1.5zm-8 2 2.5 2.5-.5.5-2.5-2.5zm-163 4 2.5.5-2.5.5zm380 5q2.5 1 1 2l-1-1-1.5.5zm-184 21 .5.5-2 2 .5 1.5-1.5-1.5zm-3 4q1.5 1-1 2l-1.5-.5zm-123 5 2.5 1.5-1.5.5q-2.5-1-1-2Zm302 4 1.5 2.5h-1zm-324 4 2.5 1.5-1.5.5q-2.5-1-1-2Zm328 0 2.5 2.5-.5.5-1.5-.5zm-331 1 2.5 1.5-1.5.5q-2.5-1-1-2Zm361 0 1 1 1.5-.5-1.5 1.5q-2.5-1-1-2Zm30 2 2.5 2.5-.5.5-2.5-2.5zm-24 2 1 1 1.5-.5-1.5 1.5q-2.5-1-1-2Zm-68 2 1.5 2.5q-1 2.5-2 1l1-2zm101 3 2.5 2.5-.5.5-2.5-2.5zm-96 1 1.5 2.5h-1zm101 3 2.5 2.5-.5.5-2.5-2.5zm-62 3 1.5 2.5q-1 1.5-2-1zm67 1 2.5 2.5-.5.5-2.5-2.5zm-18 3 1 1 1.5-.5-1.5 1.5q-2.5-1-1-2Zm-159 1 .5.5-2 2 1 1-.5 6.5-1.5-4.5v-4zm182 0 2.5 2.5-.5.5-2.5-2.5zm119 2q1.5 1-1 2l-1.5-.5zm-114 2 3.5 3.5-.5.5-3-3-1.5.5zm6 5 3.5 3.5-.5.5-3.5-3.5zm-16 1 1 1 1.5-.5-1.5 1.5q-2.5-1-1-2Zm-180 1 .5 4.5h-1zm126 2 1.5 2.5q-1 1.5-2-1zm59 0 1 1 1.5-.5-1.5 1.5q-2.5-1-1-2Zm17 1 3.5 3.5-.5.5-3.5-3.5zm-199 2 .5 5.5h-1zm205 3 4.5 4.5-.5.5-4.5-4.5zm-77 1 .5 1.5-1.5.5q-1.5-1 1-2Zm-132 1 .5 3.5h-1zm-98 1 1.5.5-3.5 4.5-.5-.5 3-3zm314 3 2.5 2.5-.5.5-2.5-2.5zm-211 2 .5 4.5h-1zm-106 1 .5.5-2.5 2.5-.5-.5zm100 2 .5 3.5h-1zm-104 3 .5.5-2.5 2.5-.5-.5zm246 0 1.5 2.5q-1 1.5-2-1zm-230 1q2.5 1 1 2l-1.5-.5-.5 1.5-.5-1.5zm8 3 .5 1.5q-1 2.5-2 1zm87 0 .5 4.5h-1zm-115 1 .5.5-2.5 2.5-.5-.5zm18 0 1.5 2.5q-1 1.5-2-1zm89 0 .5 3.5h-1zm-110 4 .5.5-3.5 3.5-.5-.5zm109 4 .5 3.5h-1zm10 0 .5 3.5h-1zm-123 1 .5.5-3.5 3.5-.5-.5zm-16 4 .5.5-2.5 2.5-.5-.5zm12 1 .5.5-3.5 3.5-.5-.5zm136 0 .5 3.5h-1zm-20 2 .5 2.5h-1zm12 1 .5 2.5h-1zm-106 1 1.5 2.5h-1zm-27 2 .5.5-3.5 3.5-.5-.5zm142 2 .5 5.5 1 1-1 1-.5 4.5zm-22 1 .5 2.5h-1zm14 2 .5 2.5h-1zm81 0 2.5 3.5q-1 1.5-2-1zm-323 1 .5.5-2.5 2.5-.5-.5zm103 0 .5.5-3.5 3.5-.5-.5zm17 2 1.5.5-.5 1.5q-2.5-1-1-2Zm107 2 .5 2.5h-1zm16 2 .5 2.5h-1zm-146 1 .5.5-3.5 3.5-1.5-.5zm243 1 .5 1.5q-1 2.5-2 1zm61 2 1.5 2.5h-1zm-175 1 .5 2.5h-1zm-133 1 .5.5-5.5 5.5-1.5-.5zm151 1 .5 2.5h-1zm-32 1 .5 49.5h-1zm13 3 .5 2.5h-1zm184 5 .5 1.5-1.5.5q-1.5-1 1-2Zm-185 2 .5 2.5h-1zm123 3 .5 1.5q-1 2.5-2 1zm-124 3 .5 2.5h-1zm125 0 .5 1.5q-1 2.5-2 1zm-127 11 .5 2.5h-1zm-1 6 .5 2.5h-1zm-1 5 .5 2.5h-1z" opacity=".024"/><path fill="#3a5a3b" stroke="#3a5a3b" d="m345.5 38 1.5.5-.5 51.5-.5-48.5q-1.9-.9-.5-3.5Z" opacity=".369"/><path fill="#3a5a3b" stroke="#3a5a3b" d="m344.5 42 .5 3.5h-1zm-1 5 .5 3.5h-1zm-1 5 .5 4.5h-1zm-1 6 .5 3.5h-1zm-131 3 5.5 8.5q-1 1.5-2-1l-.5-1.5-1 2-.5-1.5 1-2h-2zm130 3 .5 3.5h-1zm-1 6 .5 3.5h-1zm-122 3 2.5 3.5q-1 1.5-2-1zm121 2 .5 4.5h-1zm-123 1 1.5 3.5h-1zm6 4 2.5 3.5q-1 1.5-2-1zm116 2 .5 3.5h-1zm138 2 .5 2.5-3 2 .5 1.5-1-1-3.5 3.5-4.5 5.5-.5-.5 4-4zm-256 3 1.5 3.5h-1zm6 0 3.5 5.5q-1 1.5-2-1l-2-4zm111 1 .5 4.5h-1zm136 3-.5 1.5-1.5 2.5.5-1.5zm-137 3 .5 5.5h-1zm-113 1 1.5 3.5h-1zm8 1 4.5 7.5q-1 1.5-2-1l-3-6zm115 3 .5 19.5h-1zm117 1 .5.5-3.5 3.5-.5-.5zm-128 1 .5 4.5h-1zm124 4 .5.5-4.5 4.5-.5-.5zm-231 3 1.5 3.5h-1zm106 0 .5 5.5h-1zm-96 1 4.5 7.5q-1 1.5-2-1l-3-6zm224 1-.5 1.5-1.5 2.5.5-1.5zm-8 1 .5.5-4 4-4.5 5.5-.5-.5 4-4zm5 4-.5 1.5-1.5 2.5.5-1.5zm-126 1 .5 4.5h-1zm-126 2 2.5 2.5-1.5 1.5v-2l-1.5-.5zm25 0 1.5 3.5h-1zm224 2-.5 1.5-1.5 2.5.5-1.5zm-246 2 6.5 7.5-.5.5-3.5-3.5-2.5-3.5-1.5.5zm235 0 .5.5-2.5 2.5-.5-.5zm-113 1 .5 4.5h-1zm-86 1 10.5 19.5q-1 1.5-2-1l-9-18zm99 1 .5 11.5h-1zm108 0-.5 1.5-1.5 2.5.5-1.5zm-11 1 .5.5-3.5 3.5-.5-.5zm-206 2 1.5 3.5h-1zm-24 1 4.5 7.5q-1 1.5-2-1l-3-6zm5 2 2.5 2.5-.5.5-2.5-2.5zm220 1 .5.5-2.5 2.5-.5-.5zm-199 1 1.5 3.5h-1zm-18 2 2.5 2.5-.5.5-2.5-2.5zm214 1 .5.5-3 3-3.5 4.5-.5-.5 3-3zm-325 1 2.5 1.5.5 1.5q1-2 2 0l6.5 3.5-1.5-.5-5-2 1 3-6.5-6.5zm114 2 2.5 2.5-.5.5-2.5-2.5zm121 3 .5 11.5h-1zm-227 2 22.5 19.5-.5.5-4-4-13-10-5.5-5.5zm5 0 12.5 7.5-1.5-.5-10-5q-2.5-1-1-2Zm305 1 .5.5-2.5 2.5-.5-.5zm-206 1 2.5 3.5q-1 1.5-2-1zm219 0-.5 1.5-2.5 3.5-.5-.5 2-2zm-16 3 .5.5-2.5 2.5-.5-.5zm-288 3 8.5 5.5-1.5-.5-6-3q-2.5-1-1-2Zm285 1 .5.5-3 3-2.5 3.5-.5-.5 2-2zm-158 4 5.5 11.5h-1l-5-10zm80 0 .5 8.5h-1zm-197 1 13.5 8.5-1.5-.5-11-6q-2.5-1-1-2Zm285 2-.5 1.5-14.5 21.5-.5-.5 2-2zm-16 1 .5.5-2.5 2.5-.5-.5zm-274 3 3.5 3.5-.5.5-3.5-3.5zm90 0 2.5 3.5q-1 1.5-2-1zm181 1 .5.5-2.5 2.5-.5-.5zm-251 2 6.5 4.5-1.5-.5q-4.6-1.2-5-4Zm-15 1 2.5 2.5-.5.5-2.5-2.5zm196 1 .5 7.5h-1zm67 0 .5.5-2 2-5.5 7.5-.5-.5 2-2zm-140 1 1.5 2.5h-1zm-100 2 6.5 4.5-1.5-.5q-4.6-1.2-5-4Zm11 7 22.5 15.5-.5.5-2-2-19-12q-2.5-1-1-2Zm161 1 .5 6.5h-1zm-66 2 3.5 7.5h-1l-3-6zm124 1 .5.5-2.5 2.5-.5-.5zm161 5 1.5.5-6.5 4.5v-2l-1.5-.5 1.5-.5 2 1v-2l2 1zm-220 2 .5 6.5h-1zm71 0 .5.5-2 2-2.5 3.5-.5-.5 2-2zm134 3 1.5.5-6.5 2.5v-1zm8 0q1.5 1-1 2l-4 2q-1.5-1 1-2zm-272 3 1.5 2.5h-1zm253 1 1.5.5-3.5 1.5v-1zm12 0q1.5 1-1 2l-4 2q-1.5-1 1-2zm-207 2 .5 4.5h-1zm187 1 1.5.5-3.5 1.5v-1zm13 1q1.5 1-1 2l-6 3q-1.5-1 1-2zm-21 2 1.5.5-3.5 1.5v-1zm-5 2 1.5.5-3.5 1.5v-1zm17 1q1.5 1-1 2l-6 3q-1.5-1 1-2zm-22 1 1.5.5-3.5 1.5v-1zm-5 2 1.5.5-3.5 1.5v-1zm-5 2 1.5.5-3.5 1.5v-1zm21 1q1.5 1-1 2l-10 5q-1.5-1 1-2zm-26 1 1.5.5-3.5 1.5v-1zm-299 2 13.5 6.5-1.5.5-12-6zm294 0 1.5.5-3.5 1.5v-1zm-7 3 1.5.5-3.5 1.5v-1zm23 2q1.5 1-1 2l-20 10q-1.5-1 1-2zm-30 1 1.5.5-3.5 1.5v-1zm-7 3 1.5.5-5.5 2.5v-1zm-9 4 1.5.5-5.5 2.5v-1zm-9 4 1.5.5-9.5 4.5v-1zm-15 7 1.5.5-9.5 4.5v-1zm30 1 1.5.5-15.5 7.5v-1zm-16 8q1.5 1-1 2l-1.5-.5zm-9 4 1.5.5-9.5 4.5v-1zm-11 5 1.5.5-5.5 2.5v-1zm-35 2 1.5.5-2.5 1.5q-1.5-1 1-2Zm24 3 1.5.5-3.5 1.5v-1zm-353 5 2.5.5-.5 1.5 3.5.5-3.5.5-3.5-1.5zm7 0 35.5.5-35.5.5zm50 1 9.5.5-9.5.5zm-49 2 3.5.5-3.5.5zm5 1 3.5.5-3.5.5zm5 1 4.5.5-4.5.5zm6 1 3.5.5-3.5.5zm6 1 3.5.5-3.5.5zm6 1 3.5.5-3.5.5zm6 1 3.5.5-3.5.5zm6 1 4.5.5-4.5.5zm7 1 4.5.5-4.5.5zm7 1 3.5.5-3.5.5zm7 1 4.5.5-4.5.5zm7 1 4.5.5-4.5.5zm7 1 5.5.5-5.5.5zm9 1 5.5.5-5.5.5zm8 1 6.5.5-6.5.5zm9 1 6.5.5-6.5.5zm10 1 5.5.5-5.5.5zm85 5 2.5.5-2.5.5zm169 12 8.5.5-8.5.5zm14 1 7.5.5-7.5.5zm11 1 7.5.5-7.5.5zm10 1 6.5.5-6.5.5zm9 1 6.5.5-6.5.5zm9 1 5.5.5-5.5.5zm8 1 5.5.5-5.5.5zm8 1 4.5.5-4.5.5zm7 1 5.5.5-5.5.5zm7 1 5.5.5-5.5.5zm8 1 4.5.5-4.5.5zm6 1 4.5.5-4.5.5zm6 1 4.5.5-4.5.5zm-118 1 6.5.5-6.5.5zm125 0 3.5.5-3.5.5zm-116 1 6.5.5-6.5.5zm122 0 3.5.5-3.5.5zm-112 1 2.5.5-2.5.5zm117 0 4.5.5-4.5.5zm6 1 4.5.5-4.5.5zm-99 1 7.5.5-7.5.5zm105 0 2.5.5-2.5.5zm-93 1 11.5.5-11.5.5zm98 0 2.5.5-2.5.5zm-81 1 14.5.5-14.5.5zm87 0q3.8-.7 4.5 1.5l-4.5.5zm-67 1 29.5.5-29.5.5zm62 0 3.5.5-3.5.5zm-341 18q1.5 1-1 2l-1.5.5.5 1.5-2-1 .5 1.5-1.5 1.5-5 3q-1.5-1 1-2l2.5-1.5-2-1zm158 2 31.5 21.5-.5.5-2-2-28-18q-2.5-1-1-2Zm-177 7 1.5.5-7.5 3.5v-1zm7 0q1.5 1-1 2l-23 15q-1.5-1 1-2zm-47 3 1.5.5-4.5 2.5q-1.5-1 1-2zm27 3 1.5.5-9.5 4.5v-1zm-13 6 1.5.5-5.5 2.5v-1zm-33 1q1.5 1-1 2l-10 5q-1.5-1 1-2zm24 3 1.5.5-5.5 2.5v-1zm248 1 8.5 6.5-.5.5-2-2q-5-1.5-6-5Zm-255 2 1.5.5-5.5 2.5v-1zm-34 3q1.5 1-1 2l-8 4q-1.5-1 1-2zm27 0 1.5.5-5.5 2.5v-1zm272 2 5.5 4.5-.5.5-2-2-3.5-2.5zm-279 1 1.5.5-3.5 1.5v-1zm-5 2 1.5.5-3.5 1.5v-1zm-26 1q1.5 1-1 2l-6 3q-1.5-1 1-2zm317 1 9.5 7.5-.5.5-2-2-5-3-2.5-2.5zm-303 3 1.5.5-3.5 1.5v-1zm-23 1q1.5 1-1 2l-6 3q-1.5-1 1-2zm15 2 1.5.5-3.5 1.5v-1zm-5 2 1.5.5-3.5 1.5v-1zm327 0 2.5 2.5-.5.5-2.5-2.5zm-346 1q1.5 1-1 2l-4 2q-1.5-1 1-2zm14 1 1.5.5-6.5 2.5v-1zm336 1 10.5 8.5-.5.5-3-3-5-3-2.5-2.5zm-357 2q1.5 1-1 2l-9 5q-1.5-1 1-2zm10 1 1.5.5-3.5 1.5v-1zm329 1 10.5 7.5-1.5-.5-7-4-2.5-2.5zm-334 1 1.5.5-9.5 3.5v-1zm-17 4v2l1.5.5-1.5.5-2-1v2l-4 1q-1.5-1 1-2zm381 0 2.5 2.5-.5.5-2.5-2.5zm-18 3 4.5 3.5-1.5-.5-3.5-2.5zm22 0 16.5 13.5-.5.5-3-3-10-7-3.5-3.5zm-89 5 1.5 3.5h-1zm76 1 12.5 8.5-1.5-.5-10-6q-2.5-1-1-2Zm-143 3 .5 8.5h-1zm174 5 3.5 3.5-.5.5-3.5-3.5zm-17 1 6.5 4.5-1.5-.5q-4.6-1.2-5-4Zm-85 1 2.5 5.5h-1l-2-4zm107 2 3.5 3.5-.5.5-3.5-3.5zm-14 2 11.5 7.5-1.5-.5-9-5q-2.5-1-1-2Zm-166 1 .5 7.5h-1zm185 1 4.5 4.5-.5.5-4.5-4.5zm-180 2 .5 9.5h-1zm73 3 1.5 3.5h-1zm113 0 3.5 3.5-.5.5-3.5-3.5zm-12 1 3.5 2.5-1.5-.5q-3.8-.7-2-2Zm-180 3 .5 7.5h-1zm185 0 3.5 2.5-1.5-.5q-3.8-.7-2-2Zm12 0 4.5 4.5-.5.5-4.5-4.5zm-286 1 .5.5-2.5 2.5-.5-.5zm171 2 2.5 5.5h-1l-2-4zm108 0 3.5 2.5-1.5-.5q-3.8-.7-2-2Zm-282 2 .5.5-2.5 2.5-.5-.5zm14 0 .5 1.5-1.5 2.5-.5-1.5zm281 0 11.5 10.5-1 1 .5 1.5-7.5-4.5 1.5.5 5 2 .5-.5-4.5-4.5-6.5-5.5zm-196 1 .5 7.5h-1zm188 0 5.5 3.5-1.5-.5q-4-.5-4-3Zm-290 3 .5.5-2.5 2.5-.5-.5zm94 1 .5 6.5h-1zm86 0 2.5 5.5h-1l-2-4zm-183 3 .5.5-2.5 2.5-.5-.5zm16 1 .5 1.5-1.5 2.5-.5-1.5zm298 2 3.5 4.5-1.5-.5-2.5-1.5 1-1zm-317 1 .5.5-3.5 3.5-.5-.5zm109 0 .5 6.5h-1zm80 0 1.5 3.5h-1zm-90 2 .5 6.5h-1zm-83 2 .5 1.5-1.5 2.5-.5-1.5zm-20 1 .5.5-3 3-16.5 20.5-.5-.5 4-4zm196 2 1.5 3.5h-1zm-82 3 .5 6.5h-1zm-12 1 .5 5.5h-1zm96 1 1.5 3.5h-1zm-76 1 .5 4.5h-1zm-107 3 .5 1.5-1.5 2.5-.5-1.5zm4 1-.5 1.5-3.5 5.5.5-1.5zm181 0 1.5 3.5h-1zm-99 2 .5 4.5h-1zm14 0 .5 5.5h-1zm7 1 .5 4.5h-1zm-109 1 .5 1.5-1.5 2.5-.5-1.5zm178 2 2.5 3.5q-1 1.5-2-1zm-216 2-.5 1.5-2.5 4.5.5-1.5zm113 0 .5 10.5h-1zm-77 1 1.5 2.5-2.5 3.5-.5-3.5zm89 0 .5 5.5h-1zm16 1 .5 5.5h-1zm88 0 1.5 3.5h-1zm-224 3 .5.5-4.5 4.5-.5-.5zm-9 2-.5 1.5-1.5 2.5.5-1.5zm235 0 1.5 3.5h-1zm-85 1 .5 15.5h-1zm-22 1 .5 3.5h-1zm98 0 3.5 5.5q-1 1.5-2-1l-2-4zm-80 1 .5 5.5h-1zm-142 1 .5.5-4.5 4.5-.5-.5zm-7 1-.5 1.5-1.5 2.5.5-1.5zm240 0 1.5 3.5h-1zm-110 4 .5 4.5h-1zm-128 1 .5.5-4.5 4.5-.5-.5zm148 1 .5 4.5h-1zm-154 1-.5 1.5-1.5 2.5.5-1.5zm123 1 .5 54.5 1 3-1.5.5zm116 0 4.5 7.5q-1 1.5-2-1l-3-6zm-238 3 .5.5-6 6-.5 1.5-2 1 .5-1.5 1.5-2.5 1.5-.5-.5-1.5 1 1zm132 0 .5 3.5h-1zm22 2 1.5 6.5q-1 1.5-2-1zm95 3 2.5 6.5h-1l-2-5zm-118 1 .5 3.5h-1zm112 0 3.5 5.5q-1 1.5-2-1l-2-4zm-113 6 .5 4.5h-1zm117 1 2.5 3.5q-1 1.5-2-1zm-118 5 .5 4.5h-1zm122 2 2.5 3.5q-1 1.5-2-1zm4 2 1.5 3.5h-1zm-127 2 .5 3.5h-1zm127 3 1 1 1.5-.5 1 4-.5.5-2.5-2.5zm-128 3 .5 3.5h-1zm-1 6 .5 3.5h-1zm-1 5 .5 3.5h-1zm-1 5 .5 3.5h-1z" opacity=".369"/><path fill="#5c8e6e" stroke="#5c8e6e" d="m422.5 4 .5 1.5-1.5.5q-1.5-1 1-2Zm-155 14 .5 2.5h-1zm21 1 .5 6.5h-1zm-20 13 .5 2.5h-1zm21 15 .5 3.5h-1zm93 12 .5 2.5-1.5.5.5-1.5zm-92 6 .5 3.5h-1zm35 0 .5 2.5h-1zm-178 3 3.5 3.5-.5.5-2-2-1.5.5 1-1zm180 2 .5 2.5h-1zm-3 5 .5 2.5h-1zm-167 4 3.5 3.5-.5.5-3.5-3.5zm134 2 .5 2.5h-1zm37 2 .5 2.5h-1zm-5 3 .5 2.5h-1zm-182 6 5.5 5.5-.5.5-5.5-5.5zm151 2 .5 2.5h-1zm-119 3 2.5 2.5-.5.5-2.5-2.5zm89 2 1.5 2.5h-1zm60 0 .5 2.5h-1zm7 0 .5 2.5h-1zm-36 7 .5 2.5h-1zm-138 1 3.5 3.5-.5.5-3.5-3.5zm166 6 .5 2.5h-1zm231 0 1.5 1.5-3.5 3.5-.5-.5 3-3zm-387 5 2.5 2.5-.5.5-2.5-2.5zm165 0 .5 9.5h-1zm212 6 .5.5-3.5 3.5-.5-.5zm-222 6 .5 3.5h-1zm-24 6 .5 2.5h-1zm18 19 .5 2.5h-1zm5 0 .5 6.5h-1zm85 5 .5.5-2.5 2.5-.5-.5zm-88 15 .5 2.5h-1zm53 0q2.8 1.3.5 2.5l-.5 1.5zm43 17 .5.5-2.5 2.5-.5-.5zm-94 2 .5 2.5h-1zm-296 4 2.5 1.5-1.5-.5q-2.4-.1-1-1Zm400 23q2.5 1 1 2l-1-1-1.5.5zm13 3-.5 1.5-.5 1.5-.5-1.5zm-73 12 .5.5-2.5 2.5-.5-.5zm225 18 4.5.5-4.5.5zm38 0 2.5.5-2.5.5zm-59 1 3.5.5-3.5.5zm-17 1 2.5.5-2.5.5zm-14 1 2.5.5-2.5.5zm-13 1 2.5.5-2.5.5zm-113 8 6.5.5-6.5.5zm14 0 2.5.5-2.5.5zm-20 20 2.5 1.5-1.5-.5q-2.4-.1-1-1Zm37 3 2.5.5-2.5.5zm-180 2 .5 1.5-1.5.5q-1.5-1 1-2Zm-25 14 2.5.5-2.5.5zm-12 1 2.5.5-2.5.5zm-11 1 2.5.5-2.5.5zm-88 25 3.5.5-3.5 1.5zm-13 1 2.5.5-2.5.5zm-14 1 2.5.5-2.5.5zm-17 1 3.5.5-3.5.5zm-21 1 3.5.5-3.5.5zm115 2 2.5.5-5.5 1.5v-1zm-136 18 2.5.5-2.5.5zm-30 1 3.5 1.5-2.5.5q-2.5-1-1-2Zm17 0 2.5.5-2.5.5zm231 10 1.5.5-3.5 2.5-.5-.5zm324 36 2 1 1.5-.5q-1.2 2.8-2.5.5-2.4-.1-1-1Zm-300 2 .5 1.5q-1 2.5-2 1zm312 0 2.5 1.5-1.5.5q-2.5-1-1-2Zm-373 1 .5.5-2.5 2.5-.5-.5zm-9 10 .5.5-2.5 2.5-.5-.5zm-12 13 .5.5-12.5 12.5-.5-.5zm-14 14 .5.5-16.5 16.5-.5-.5zm167 20 .5 2.5h-1zm-245 1 .5.5-2.5 2.5-.5-.5zm49 7 .5.5-3.5 3.5-.5-.5zm-59 2 .5.5-3 3 .5 1.5-1.5-1.5zm5 0 1.5.5-4.5 4.5-.5-.5 2-2-.5-1.5 1.5.5zm42 9 .5.5-2.5 2.5-.5-.5zm-58 7 .5.5L75.5 500l-.5-.5zm49 1 .5.5-2.5 2.5-.5-.5zm-9 7 1.5.5-2.5 2.5-.5-.5zm345 7 2.5 2.5-.5.5-2.5-2.5zm8 9 2.5 2.5-.5.5-2.5-2.5zm10 11 3.5 3.5-.5.5-3.5-3.5zm13 0q2.5 1 1 2l-1-1-1.5.5zm1 15 7.5 7.5-.5.5-7.5-7.5zm-134 52 .5 2.5h-1zm1 12 .5 2.5h-1zm1 14 .5 2.5h-1zm0 16 1.5.5-.5 3.5z" opacity=".796"/><path fill="#538f75" stroke="#538f75" d="m287.5 5 1.5.5-1.5 3.5zm-21 4 .5 6.5h-1zm1 17 .5 3.5h-1zm175 0 .5 1.5-2.5 1.5-.5-.5zm-154 8 .5 8.5h-1zm-20 5 .5 3.5h-1zm1 11 .5 4.5h-1zm-24 4 1.5 2.5q-1 1.5-2-1zm44 2 .5 6.5h-1zm94 0 .5 2.5q-1 1.5-2-1zm-58 3 .5 3.5h-1zm-55 2 .5 3.5h-1zm-127 2 4.5 4.5-.5.5-2-2-1.5.5 1-1-2-2zm184 0 .5 3.5h-1zm-211 4 1.5.5-.5 1.5q-2.5-1-1-2Zm208 2 .5 3.5h-1zm-34 4 .5 4.5h-1zm-136 2 3.5 3.5-.5.5-3.5-3.5zm174 0 .5 3.5h-1zm-5 4 .5 3.5h-1zm-189 5 9.5 9.5-.5.5-9.5-9.5zm30 2 2.5 2.5-.5.5-2.5-2.5zm127 1 .5 4.5h-1zm38 2 .5 4.5h-1zm-7 1 .5 4.5h-1zm-151 4 2.5 2.5-.5.5-2.5-2.5zm135 1 .5 2.5h-1zm-14 5 .5 3.5h-1zm-114 2 2.5 2.5-.5.5-2.5-2.5zm111 0 .5 2.5h-1zm-137 1 4.5 4.5-.5.5-4.5-4.5zm169 0 .5 5.5h-1zm9 2 .5 7.5h-1zm229 3 1.5.5q-1 2.5-2 1zm-375 1 2.5 2.5-.5.5-2.5-2.5zm372 1 1.5 1.5-4.5 4.5-.5-.5 4-4zm-263 2 .5 3.5h-1zm-130 3 3.5 3.5-.5.5-3.5-3.5zm157 4 .5 5.5h-1zm-26 3 .5 3.5h-1zm251 0 .5.5-3.5 3.5-.5-.5zm-374 2 3.5 3.5-.5.5-3.5-3.5zm140 4 .5 2.5h-1zm224 3 .5.5-2.5 2.5-.5-.5zm-240 1 .5 2.5q-1 2.5-2 1zm-116 1 2.5 2.5-.5.5-2.5-2.5zm133 2 .5 2.5h-1zm215 3 .5.5-2.5 2.5-.5-.5zm-342 2 2.5 2.5-.5.5-2.5-2.5zm134 0 .5 6.5h-1zm-24 1 1.5.5-.5 2.5zm18 1 .5 2.5h-1zm-100 2 2.5 2.5-.5.5-2.5-2.5zm83 3q2.8 2.7 1.5 9.5h-1v-7q-1.7-.7-.5-2.5Zm18 3 .5 2.5h-1zm94 5 .5.5-4.5 4.5-.5-.5zm98 1 .5.5-2.5 2.5-.5-.5zm-208 2 .5 5.5h-1zm17 1 .5 2.5h-1zm185 2 .5.5-2.5 2.5-.5-.5zm-295 3 2.5 2.5-.5.5-2.5-2.5zm94 2 .5 5.5h-1zm99 0 .5.5-2.5 2.5-.5-.5zm96 0 .5.5-2.5 2.5-.5-.5zm-178 2 .5 3.5h-1zm-16 5 .5 3.5h-1zm18 0 .5 9.5-1.5.5-.5-2.5 1-1zm-205 2 1.5.5.5 1.5 1.5-.5-1.5 1.5-2.5-2.5zm370 0 .5.5-2.5 2.5-.5-.5zm-58 5 .5.5-2.5 2.5-.5-.5zm-376 3 2.5.5-1.5 1.5q-2.5-1-1-2Zm269 1 .5 6.5h-1zm89 12 .5.5-2.5 2.5-.5-.5zm-387 1 1.5.5-.5 1.5q-2.5-1-1-2Zm38 45 2.5.5-3.5 1.5q-1.5-1 1-2Zm7 1 2.5.5-2.5.5zm20 3 2.5.5-2.5.5zm6 1 2.5.5-2.5.5zm508 6 14.5.5-14.5.5zm18 0 3.5 1.5-2.5.5q-2.5-1-1-2Zm15 0 6.5.5q-1.2 2.8-2.5.5h-4zm-59 1 7.5.5-7.5.5zm-19 1 6.5.5-6.5.5zm-14 1 4.5.5-4.5.5zm-13 1 3.5.5-3.5.5zm-11 1 3.5.5-3.5.5zm9 20 2.5.5-2.5.5zm-12 2 2.5.5-2.5.5zm-34 5 2.5.5-2.5.5zm-8 1 2.5.5-2.5.5zm-8 1 2.5.5-2.5.5zm-9 1 3.5.5-3.5.5zm-9 1 2.5.5-2.5.5zm-10 1 3.5.5-3.5.5zm-173 1 4.5 1.5-1 1 .5 1.5-4.5-1.5 2-1-2-1zm163 0 2.5.5-2.5.5zm-12 1 3.5.5-3.5.5zm-173 12 2.5.5-2.5.5zm-12 1 3.5.5-3.5.5zm-12 1 3.5.5-3.5.5zm-10 1 2.5.5-2.5.5zm-10 1 2.5.5-2.5.5zm-9 1 2.5.5-2.5.5zm-9 1 2.5.5-2.5.5zm-8 1 2.5.5-2.5.5zm-66 10 2.5.5-2.5.5zm13 12 3.5.5-5.5 1.5v-1zm-13 1 3.5.5-3.5.5zm-16 1 6.5.5-6.5.5zm-19 1 7.5.5-7.5.5zm-29 1 13.5.5-13.5.5zm371 0q1.5 1-1 2l-1.5-.5zm7 3 2.5 1.5-1.5.5q-2.5-1-1-2Zm-363 15 3.5.5-3.5.5zm-11 1 3.5.5-3.5.5zm-13 1 5.5.5-5.5.5zm-30 1 4.5 1.5-4.5.5zm16 0 4.5.5-4.5.5zm203 11 1 1 1.5-.5-2.5 2.5-.5-.5 1-1zm-166 10 1.5.5-.5 1.5-1.5-.5zm171 21 .5.5-3.5 3.5-.5-.5zm165 4 .5 1.5-1 1 .5 1.5q-2.8-1.2-.5-2.5zm196 1 2.5.5-.5 1.5-2.5-1.5zm9 1q2.5 1 1 2l-1-1-1.5.5zm-378 3 .5.5-2.5 2.5-.5-.5zm104 3 .5 3.5h-1zm-112 6 .5.5-5.5 5.5-.5-.5zm-55 4 .5.5-2.5 2.5-.5-.5zm469 1q2.5 1 1 2l-1-1-1.5.5zm-475 4 .5.5-2.5 2.5-.5-.5zm200 4 .5 3.5h-1zm-206 1 .5.5-2.5 2.5-.5-.5zm52 2 .5.5-20.5 20.5-.5-.5zm-58 3 .5.5-3.5 3.5-.5-.5zm213 3 .5 2.5h-1zm-221 4 .5.5-2.5 2.5-.5-.5zm222 4 .5 2.5h-1zm-229 2 .5.5-2.5 2.5-.5-.5zm-8 7 .5.5-3.5 3.5-.5-.5zm238 0 .5 3.5h-1zm82 4 2.5 2.5-.5.5-2.5-2.5zm-329 4 .5.5-3.5 3.5-.5-.5zm248 1 .5 4.5h-1zm-192 1 .5.5-5.5 5.5-.5-.5zm282 5 2.5 2.5-.5.5-2.5-2.5zm-348 2 .5.5-5 5 .5 1.5-1.5-1.5zm243 1 .5 2.5h-1zm-240 1 .5 1.5-5.5 5.5-.5-.5 4-4-.5-1.5 1.5.5zm350 2 2.5 2.5-.5.5-2.5-2.5zm-300 1 .5.5-3.5 3.5-.5-.5zm305 5 2.5 2.5-.5.5-2.5-2.5zm-315 4 .5.5-3.5 3.5-.5-.5zm202 0 .5 2.5h-1zm119 3 2.5 2.5-.5.5-2.5-2.5zm-379 3 .5.5-11 11q2.3 1.3-.5 2.5l-1.5-.5-.5 1.5-.5-1.5zm50 1 .5.5-2.5 2.5-.5-.5zm335 3 3.5 3.5-.5.5-3.5-3.5zm7 8 3.5 3.5-.5.5-3.5-3.5zm-112 5 .5 2.5h-1zm120 4 4.5 4.5-.5.5-4.5-4.5zm11 12 5.5 5.5-.5.5-5.5-5.5zm12 0 2.5.5-2.5.5zm-140 5 .5 2.5h-1zm1 7 .5 2.5h-1zm143 5 18 18 1.5-.5q-2.2 1.3.5 2.5l1.5.5-1.5.5-20.5-20.5zm-142 4 .5 2.5h-1zm1 8 .5 2.5h-1zm1 9 .5 2.5h-1zm1 9 .5 3.5h-1zm1 11 .5 2.5h-1zm1 11 .5 3.5h-1zm1 12 .5 4.5h-1zm1 14 .5 5.5h-1z" opacity=".298"/><path fill="#b9ce61" stroke="#b9ce61" d="m470.5 164 .5.5-2.5 2.5-.5-.5zm-283 15 3.5 3.5-.5.5-3.5-3.5zm173 289-.5 1.5-.5 1.5-.5-1.5z" opacity=".012"/><path fill="#87b573" stroke="#87b573" d="M244.5 2q2.8 1.3.5 2.5l-.5 1.5zm162 0 1.5.5-.5 1.5q-2.5-1-1-2Zm-161 7 .5 2.5h-1zm158 15 .5 2.5h-1zm-1 5 .5 2.5h-1zm-153 4 .5 2.5h-1zm150 12 .5 2.5h-1zm-142 29 .5 2.5h-1zm284 7 1.5 1.5-2.5 2.5-1.5-1.5zm-437 1 1.5 2.5q-1 1.5-2-1zm3 2 2.5 2.5-.5.5-2.5-2.5zm429 1 .5.5-2.5 2.5-.5-.5zm-424 3 3.5 3.5-.5.5-3.5-3.5zm425 0 .5.5-2.5 2.5-.5-.5zm-6 1 .5.5-2.5 2.5-.5-.5zm-419 4 2.5 2.5-.5.5-2.5-2.5zm6 0 3.5 3.5-.5.5-3.5-3.5zm407 1 .5.5-2.5 2.5-.5-.5zm7 0 .5.5-2.5 2.5-.5-.5zm-416 4 3.5 3.5-.5.5-3.5-3.5zm9 1 3.5 3.5-.5.5-3.5-3.5zm394 0 .5.5-2.5 2.5-.5-.5zm8 1 .5.5-2.5 2.5-.5-.5zm-406 4 3.5 3.5-.5.5-3.5-3.5zm391 1 .5.5-2.5 2.5-.5-.5zm-379 1 2.5 2.5-.5.5-2.5-2.5zm389 0 .5.5-3.5 3.5-.5-.5zm-395 5 3.5 3.5-.5.5-3.5-3.5zm378 0 .5.5-3.5 3.5-.5-.5zm-365 1 3.5 3.5-.5.5-3.5-3.5zm375 2 .5.5-2.5 2.5-.5-.5zm-382 4 3.5 3.5-.5.5-3.5-3.5zm364 0 .5.5-3.5 3.5-.5-.5zm-349 1 2 2 1.5-.5-1 1 .5 1.5-3.5-3.5zm361 2 .5.5-3.5 3.5-.5-.5zm-369 5 3.5 3.5-.5.5-3.5-3.5zm348 0 .5.5-3.5 3.5-.5-.5zm13 4 .5.5-3.5 3.5-.5-.5zm-354 4 4.5 4.5-.5.5-4.5-4.5zm331 1 .5.5-4.5 4.5-.5-.5zm15 4 .5.5-5.5 5.5-.5-.5zm-336 6 4.5 4.5-.5.5-4.5-4.5zm325 6 .5.5-5.5 5.5-.5-.5zm-314 6 7.5 7.5-.5.5-7.5-7.5zm18 19 20.5 20.5-.5.5-20.5-20.5zm-31 1 2.5 2.5-.5.5-2.5-2.5zm15 13 2.5 2.5-.5.5-2.5-2.5zm6 5 3.5 3.5-.5.5-3.5-3.5zm13 11 2.5 2.5-.5.5-2.5-2.5zm-167 1 3.5.5-2.5 1.5q-2.5-1-1-2Zm14 2 2.5.5-2.5.5zm158 1 2.5 2.5-.5.5-2.5-2.5zm428 10 .5 1.5q-1 2.5-2 1zm-12 2 2.5.5-2.5.5zm-502 1 2.5.5-2.5.5zm496 0 2.5.5-2.5.5zm-11 2 2.5.5-2.5.5zm-6 1 2.5.5-2.5.5zm-5 1 2.5.5-2.5.5zm-11 2 2.5.5-2.5.5zm-5 1 2.5.5-2.5.5zm-5 1 2.5.5-2.5.5zm-5 1 2.5.5-2.5.5zm-484 22q1.5 1-1 2l-1.5-.5zm14 1 6.5.5-6.5.5zm71 5 3.5.5-3.5.5zm-13 86 2.5.5-2.5.5zm-48 11 2.5.5-2.5.5zm413 4 2.5.5-2.5.5zm-438 1 2.5.5-2.5.5zm-16 3 2.5.5-2.5.5zm471 0 2.5.5-2.5.5zm-476 1 2.5.5-2.5.5zm-6 1 2.5.5-2.5.5zm-20 2 3.5 1.5-4.5.5q-1.5-1 1-2Zm7 0 2.5.5-2.5.5zm222 2 .5.5-3 3-1.5 2.5-2 1-.5-.5zm305 1 2.5.5-2.5.5zm5 1 2.5.5-2.5.5zm15 3 2.5.5-2.5.5zm5 1 2.5.5-2.5.5zm11 2 2.5.5-2.5.5zm5 1 2.5.5-2.5.5zm6 1 2.5.5-2.5.5zm-201 1 5.5 5.5-.5.5-5.5-5.5zm206 0 2.5.5-2.5.5zm6 1 2.5.5-2.5.5zm7 0 .5 1.5-1.5.5q-1.5-1 1-2Zm-188 7 29.5 29.5-.5.5-29.5-29.5zm-202 2 .5.5-7.5 7.5-.5-.5zm127 9 1.5 2.5-1.5.5zm4 10-.5 1.5-.5 1.5-.5-1.5zm1 2 .5 1.5-1.5 2.5-.5-1.5zm74 4 12.5 12.5-.5.5-12.5-12.5zm35 13 7.5 7.5-.5.5-7.5-7.5zm-303 2 .5.5-3.5 3.5-.5-.5zm181 5 .5 2.5h-1zm-59 1 .5 3.5h-1zm168 0 6.5 6.5-.5.5-6.5-6.5zm-302 5 1.5 1.5-5.5 5.5-.5-.5 2-2-.5-1.5 1 1 2.5-2.5zm328 1 5.5 5.5-.5.5-5.5-5.5zm-195 3 .5 3.5h-1zm183 4 4.5 4.5-.5.5-4.5-4.5zm21 3 4.5 4.5-.5.5-4.5-4.5zm-346 1 .5.5-3.5 3.5-.5-.5zm141 2 .5 4.5h-1zm194 3 5.5 5.5-.5.5-5.5-5.5zm-108 3 .5 2.5h-1zm127 0 3.5 3.5-.5.5-3.5-3.5zm-362 1 .5.5-3.5 3.5-.5-.5zm148 3 .5 5.5h-1zm205 2 3.5 3.5-.5.5-3.5-3.5zm-306 1 .5.5-4.5 4.5-.5-.5zm322 1 3.5 3.5-.5.5-3.5-3.5zm-376 1 .5.5-3.5 3.5-.5-.5zm368 4 3.5 3.5-.5.5-3.5-3.5zm14 2 3.5 3.5-.5.5-3.5-3.5zm-228 1 .5 5.5h-1zm-161 1 .5.5-3.5 3.5-.5-.5zm51 1 .5.5-5.5 5.5-.5-.5zm332 2 2.5 2.5-.5.5-2.5-2.5zm12 2 2.5 2.5-.5.5-2.5-2.5zm-401 2 .5.5-3.5 3.5-.5-.5zm7 2 .5.5-2.5 2.5-.5-.5zm389 0 2.5 2.5-.5.5-2.5-2.5zm-350 2q2.5 1 1 2l-1.5-.5zm360 0 2.5 2.5-.5.5-2.5-2.5zm-240 1 .5 7.5h-1zm-172 2 .5.5-2.5 2.5-.5-.5zm7 0 .5.5-2.5 2.5-.5-.5zm401 0 2.5 2.5-.5.5-2.5-2.5zm-139 3 .5 2.5h-1zm145 2 3.5 3.5-.5.5-3.5-3.5zm-419 1 .5.5-2.5 2.5-.5-.5zm426 2 2.5 2.5-.5.5-2.5-2.5zm-425 1 .5.5-2.5 2.5-.5-.5zm424 1 2.5 2.5-.5.5-2.5-2.5zm-430 2 1.5 1.5-3.5 3.5-1.5-.5zm281 0 .5 2.5h-1zm-133 1 .5 2.5h-1zm33 1 .5 8.5h-1zm254 0 1.5.5-.5 1.5q-2.5-1-1-2Zm-289 8 .5 2.5h-1zm40 2 .5 2.5h-1zm-41 3 .5 2.5h-1zm168 2 .5 2.5q-1 1.5-2-1zm-28 2 .5 2.5h-1zm1 5 .5 2.5h-1zm-106 2 .5 7.5 1 2-1.5.5zm107 3 .5 2.5h-1zm3 16 .5 2.5h-1zm-153 10 .5 2.5h-1zm-1 6 .5 2.5h-1zm158 7 .5 2.5h-1zm-160 4 .5 2.5h-1zm162 8 .5 3.5q-1 1.5-2-1zm-162 1 .5 1.5-2.5 1.5v-1l1.5-.5z" opacity=".247"/><path fill="#528a72" stroke="#528a72" d="m266.5 5 1.5.5-1.5 3.5zm1 16 .5 4.5h-1zm21 5 .5 7.5h-1zm153 2 .5 1.5-1.5.5q-1.5-1 1-2Zm-173 7 .5 3.5h-1zm1 12 .5 2.5h-1zm20 4 .5 4.5h-1zm-44 5q2.5 1 1 2l-1.5-.5zm25 2 .5 2.5h-1zm57 9 .5 2.5h-1zm-209 1L134 83.5l-.5.5-12-12-1.5.5 1-1-3-3zm153 0 .5 2.5h-1zm19 1 .5 3.5h-1zm-139 3 2.5 2.5-.5.5-2.5-2.5zm177 7 .5 3.5h-1zm-167 4 2.5 2.5-.5.5-2.5-2.5zm162 0 .5 2.5h-1zm-32 1 .5 2.5h-1zm-123 7 2.5 2.5-.5.5-2.5-2.5zm161 3 .5 4.5h-1zm-7 1 .5 3.5h-1zm-30 2 .5 2.5h-1zm-145 1 4.5 4.5-.5.5-4.5-4.5zm415 1 1.5.5-14 14 .5 1.5q-1.2-2.2-2.5.5l-.5 1.5-1.5-.5zm-269 10 .5 2.5h-1zm28 0 .5 3.5h-1zm-162 2 3.5 3.5-.5.5-3.5-3.5zm171 2 .5 4.5h-1zm219 5 .5.5-3.5 3.5-.5-.5zm-255 1 .5 2.5h-1zm-126 2 2.5 2.5-.5.5-2.5-2.5zm152 4 .5 4.5h-1zm91 2 .5 1.5-1.5.5q-1.5-1 1-2Zm127 1 .5.5-2.5 2.5-.5-.5zm-243 1 .5 2.5h-1zm-119 1 2.5 2.5-.5.5-2.5-2.5zm354 5 .5.5-2.5 2.5-.5-.5zm-8 7 .5.5-2.5 2.5-.5-.5zm-225 5 .5 1.5-1.5 2.5-.5-1.5zm22 0 .5 7.5h-1zm196 1 .5.5-2.5 2.5-.5-.5zm-217 7 .5 2.5q-1 2.5-2 1zm17 7 .5 2.5h-1zm-16 1 .5 2.5q-1 2.5-2 1-.5-3 1.5-3.5Zm102 0 .5.5-2.5 2.5-.5-.5zm-101 8 .5 1.5q-1 2.5-2 1zm16 1 .5 2.5h-1zm-15 6 .5 3.5h-1zm16 5 .5 2.5h-1zm1 8 .5 2.5h-1zm-188 35 2.5.5-.5 1.5-2.5-1.5zm62 2 1.5 2.5q-1 1.5-2-1zm-136 14 2.5 1.5-1.5-.5q-2.4-.1-1-1Zm558 11q3-.5 3.5 1.5l-2.5.5q-2.5-1-1-2Zm-33 1 5.5.5-5.5.5zm40 0 3.5.5-3.5.5zm-60 1 4.5.5-4.5.5zm-16 1 3.5.5-3.5.5zm-14 1 3.5.5-3.5.5zm-115 9 6.5.5-6.5.5zm-11 20 3.5.5-4.5 1.5q-1.5-1 1-2Zm27 4 2.5.5-2.5.5zm-11 1 3.5.5-3.5.5zm-12 1 3.5.5-3.5 1.5zm-177 13 2.5.5-2.5.5zm-12 1 2.5.5-2.5.5zm-11 1 2.5.5-2.5.5zm-10 1 2.5.5-2.5.5zm-69 7q1.5 1-1 2l-1.5-.5zm253 16q1.5 1-1 2l-1.5-.5zm-269 2 4.5 1.5-1.5.5-3-1zm7 0 2.5.5-2.5.5zm-21 1 3.5.5-3.5.5zm-16 1 3.5.5-3.5.5zm-53 1 1 1 7.5.5-10.5.5v-1zm32 0 5.5.5-5.5.5zm-1 18 2.5.5-2.5.5zm-10 1 2.5.5-2.5.5zm-11 1 2.5.5-2.5.5zm-13 1 2.5.5-2.5.5zm-16 1 4.5.5-4.5.5zm373 26 1.5 2.5q-1 1.5-2-1zm-64 25 .5 2.5h-1zm24 1 .5 3.5h-1zm-131 2 .5.5-3.5 3.5-.5-.5zm-11 12 .5.5-4.5 4.5-.5-.5zm147 27 .5 2.5h-1zm-232 2 .5.5-2.5 2.5-.5-.5zm49 7 .5.5-6.5 6.5-.5-.5zm-58 1 .5.5-2.5 2.5-.5-.5zm-9 8 .5.5-3.5 3.5-.5-.5zm51 6 .5.5-3.5 3.5-.5-.5zm-63 5 .5 1.5-1.5.5q-1.5-1 1-2Zm3 3 .5.5-5.5 5.5-.5-.5zm49 2 .5.5-2.5 2.5-.5-.5zm-16 13-.5 1.5-.5 1.5-.5-1.5zm74 0 1.5.5q-1 2.5-2 1zm277 12 2.5 2.5-.5.5-2.5-2.5zm9 10 3.5 3.5-.5.5-3.5-3.5zm14 1 1 1 1.5-.5-1 1 .5 1.5-2.5-1.5zm-2 12 5.5 5.5-.5.5-5.5-5.5zm-133 9 .5 2.5h-1zm-150 7 .5 1.5-1.5.5q-1.5-1 1-2Zm152 10 .5 2.5h-1zm1 9 .5 2.5h-1zm1 10 .5 2.5h-1zm1 10 .5 2.5h-1zm1 12 .5 2.5h-1zm-172 3 1.5.5q-1 2.5-2 1zm173 10 .5 3.5h-1zm1 15 .5 4.5h-1z" opacity=".58"/><path fill="#325133" stroke="#325133" d="m345.5 41 .5 57.5-1 1v25l-1 1-1 31-1 1v11l-1 1v10l-1 1-1 18-1 1v9l-1 1v8l-1 1v7l-1 1v6l-1 1-1 13-1 1q1.3 4.7-1 6v6l-1 1-1 11-1 1v4l-1 1v4l-1 1-1 7 2.5 4.5 19.5-31.5 5-10 3-3 6-11 30-45 46-62L473.5 88l-.5 1.5-26 45-36 55-7 9-1 3-34 46-36 44 1.5.5 18-11 16-8 2-2 82-40h2l16-8h2l12-6h2l3-2h2l28-12 5-1 3-2 5-1 3-2 21-7v1l-15 8-2 2-7 3-2 2-7 3-2 2-13 6-2 2-66 33h-2l-9 5h-2l-9 5h-2l-11 6-5 1-10 5h-2l-23 10-5 1-3 2-5 1-8 4-14.5 4.5q-.5 3 1.5 3.5h40l1 1h33l1 1h19l1 1h9l1 1h13l1 1 20 1 1 1 17 1 1 1 15 1 1 1h6l1 1h6l1 1h7l1 1h5l1 1q4.8-1.3 6 1h6l1 1h5l6 2h5l1 1h5l1 1 10.5 1.5-.5 1.5q-.8-1.7-4-1l-1 1h-31l-1-1h-34l-1-1h-19l-1-1h-15l-1-1h-16l-1-1h-7l-1-1h-9l-1-1h-8l-1-1-19-1-1-1q-4.7 1.2-6-1h-7l-1-1h-6l-1-1-13-1-1-1-12-1-1-1h-5l-1-1h-5l-1-1-14-2 .5 1.5q.9 4.6 4.5 6.5l41 24 58 39 56 42 42.5 35.5-1.5-.5-10-5-40-24-52-34-54-39-35-29-.5 1.5 9 15 7 15 2 2 19 38v2l17 35v2l12 26 4 12 3 5 1 5 6 13 1 5 2 3 2 8 2 3 5 15q-1 1.5-2-1l-15-28-2-2-4-9-2-2-4-9-2-2-27-54v-2l-7-13v-2l-5-9v-2l-4-7v-2l-9-19v-2l-2-3v-2l-12-28-1-5-2-3-2-8-3.5-3.5-3-2-.5 3.5 1 1v7l1 1q-1.2 4.7 1 6v9l1 1v9l1 1v9l1 1v11l1 1v12l1 1v18l1 1v84l-1 1-.5 20.5-1.5-4.5v-6l-1-1v-7l-1-1v-7l-1-1v-7l-1-1v-8l-1-1-1-20-1-1v-12l-1-1v-9l-1-1-.5-21.5-1.5 4.5-1 24-1 1v9l-1 1v9l-1 1v8l-1 1v8l-1 1v7l-1 1v6l-1 1v7l-1 1-1 13-1 1v5l-1 1v5l-1 1v5l-1 1v5l-1 1v5l-1 1v5l-1 1v4l-1 1-1.5 10.5-.5-63.5 1-1v-23l1-1 1-29 1-1v-11l1-1v-10l1-1v-8l1-1v-9l1-1v-8l1-1v-6l1-1v-7l1-1v-6l1-1v-6l1-1 1-13 1-1v-5l1-1q-1.2-4.7 1-6v-6l1-1v-5l1-1q-1.2-4.7 1-6v-6l-1.5-.5-3.5 7.5v2l-3 5v2l-3 5v2l-4 7v2l-6 11v2l-23 46-2 2-6 13-2 2-11 21-31.5 49.5.5-1.5v-2l2-3 4-12 10-21 3-9 26-52q-1-1.5-2 1l-13 20-37 50-24 30-20.5 23.5.5-1.5 21-37 43-66 3-3 14-21 28-36 2-4 24-29-.5-.5-3 3-7 4-18 14-57 37-20 12-5 2-2 2-5 2-2 2-5 2-2 2-38 20-.5-.5 2.5-2.5 48-35 6-3 36.5-24.5-2.5-.5-17 9h-2l-11 6h-2l-11 6h-2l-7 4h-2l-19 9h-2l-10 5-15 5-8 4-5 1-3 2-5 1-3 2-21 7v-1l20-11 2-2 7-3 2-2 7-3 2-2 26-13 2-2 61-30h2l14-7 7-2 5-3 7-2 15-7 5-1 8-4 16-5 3-2 14-4 1.5-1.5-1.5-2.5h-16l-1-1-3 1-1-1h-45l-1-1h-19l-1-1h-14l-2-1-2 1-1-1-20-1-1-1h-8l-1-1h-8l-1-1h-8l-1-1h-8l-1-1h-7l-1-1h-6l-1-1h-7l-1-1-12-1-1-1h-6l-1-1h-5l-1-1-11-1-1-1-10-1-1-1-10-1-4.5-1.5 54.5-.5 1 1h26l1 1h17l1 1h14l1 1h14l1 1 21 1 1 1h8l1 1h8l1 1h7l1 1h6l1 1 14 1 1 1 12 1 1 1h5l6 2h5l6 2 10 1-.5-1.5-3.5-4.5h-2l-23-11h-2l-11-6h-2l-52-26-2-2-9-4-7-5-7-3-7-5-10-5-37.5-24.5 1.5.5 9 3 3 2h2l32 15h2l21 11h2l2 2 6 2 2 2 26 13q1.5-1-1-2l-32-21-42-31-15-13-14-10-28.5-24.5.5-.5 2 2 7 3 2 2 5 2 2 2 5 2 25 15 55 36 28 20 48 37 .5-.5-2-2-26-39-1-3-6-8-1-3-4-5-15-25-4-9-6-9-19-36q1-1.5 2 1l41 56 22.5 35.5.5-1.5-27-57-1-5-6-12v-2l-5-10-1-5-3-5-1-5-4-8-1-5-2-3-1-5-2-3-7-21h1l14 26 2 2 4 9 2 2 5 11 2 2 12 25 2 2 6 12v2l12 23v2l6 11v2l6 11v2l4.5 9.5.5-2.5-1-1v-3l-3-9v-4l-2-5-1-9-1-1v-5l-1-1v-5l-1-1q1.3-4.7-1-6v-9q-1.7-.7-1-4h1l10 22 2 7 4 7 2 8 2 3 6 18v3l2 4v3l2 4v3l1 1v3l3 9 1 9 1 1v4l2 6v5l2 6q-2 1 0 2-.7 3.8 1.5 4.5l1.5-.5q.7-4.2-1-6 2.3-1.3 1-6l-1-1v-9l1-1v-35l1-1v-21l1-1v-15l1-1v-13l1-1 1-21 1-1v-8l1-1v-7l1-1v-7l1-1v-6l1-1v-6l1-1v-7l1-1q-1.3-4.7 1-6l1-13 1-1v-5l1-1v-5l1-1 1-11 1-1 1-10 1-1v-4l1-1zM274 213v4q1 2 2 1zm52 79-2 2 1 3q1 1 2-1zm2 6q-3 1-1 2h1zm-1 3-2 2 5 3v-2zm-55 74-2 3q1 1 2-1z" opacity=".992"/><path fill="#c6f6c7" stroke="#c6f6c7" d="m404.5 2 .5 1.5q-1 2.5-2 1zm-10 28-.5 1.5-.5 1.5-.5-1.5zm-133 12 1.5 2.5h-1zm111 395 .5 2.5h-1zm154 61 2.5 1.5-1.5.5q-2.5-1-1-2Zm-240 1 .5 2.5h-1zm-1 18 .5 3.5h-1zm-1 21 .5 2.5h-1zm-30 16 .5 1.5q-1 2.5-2 1zm-4 11 .5 1.5q-1 2.5-2 1z" opacity=".008"/><path fill="#84b172" stroke="#84b172" d="m406.5 3 .5 3.5q-1 1.5-2-1zm-1 7 .5 2.5h-1zm-159 3 .5 2.5h-1zm2 12 .5 2.5h-1zm-138 65 2.5 2.5-.5.5-2.5-2.5zm6 2 2.5 2.5-.5.5-2.5-2.5zm412 0 .5.5-2.5 2.5-.5-.5zm-266 3 .5 2.5h-1zm-140 2 2.5 2.5-.5.5-2.5-2.5zm400 0 .5.5-2.5 2.5-.5-.5zm-6 5 .5.5-2.5 2.5-.5-.5zm-387 1 2.5 2.5-.5.5-2.5-2.5zm395 0 .5.5-2.5 2.5-.5-.5zm-399 5 2.5 2.5-.5.5-2.5-2.5zm384 0 .5.5-2.5 2.5-.5-.5zm-373 1 2.5 2.5-.5.5-2.5-2.5zm382 1 .5.5-2.5 2.5-.5-.5zm-387 5 2.5 2.5-.5.5-2.5-2.5zm370 0 .5.5-2.5 2.5-.5-.5zm-357 1 2.5 2.5-.5.5-2.5-2.5zm368 1 .5.5-3.5 3.5-.5-.5zm-375 5 2.5 2.5-.5.5-2.5-2.5zm356 0 .5.5-3.5 3.5-.5-.5zm-341 1 3.5 3.5-.5.5-3.5-3.5zm353 2 .5.5-3.5 3.5-.5-.5zm-361 5 3.5 3.5-.5.5-3.5-3.5zm340 0 .5.5-4.5 4.5-.5-.5zm13 4 .5.5-4.5 4.5-.5-.5zm-345 5 4.5 4.5-.5.5-4.5-4.5zm335 6 .5.5-4.5 4.5-.5-.5zm-325 5 5.5 5.5-.5.5-5.5-5.5zm314 7 .5.5-6.5 6.5-.5-.5zm-300 8 9.5 9.5-.5.5-9.5-9.5zm-17 15 3.5 3.5-.5.5-3.5-3.5zm8 7 2.5 2.5-.5.5-2.5-2.5zm13 11 2.5 2.5-.5.5-2.5-2.5zm53 2 12.5 12.5-.5.5-12.5-12.5zm-47 3 2.5 2.5-.5.5-2.5-2.5zm-158 5 1.5.5-2.5 1.5q-1.5-1 1-2Zm169 4 2.5 2.5-.5.5-2.5-2.5zm422 9 2.5.5-1.5 1.5q-2.5-1-1-2Zm-6 1 2.5.5-2.5.5zm-537 33 9.5.5-9.5.5-1 1q-1.5-1 1-2Zm78 5 2.5.5-2.5.5zm10 1 2.5.5-2.5.5zm235 26 2.5.5-2.5.5zm-352 79 2.5.5-2.5.5zm-19 2 2.5 1.5-1.5.5q-2.5-1-1-2Zm218 10 1 1 1.5-.5q-1.3 2.8-2.5.5l-10 10-.5-.5zm373 4 3.5 1.5-3.5.5zm-209 6 28.5 28.5-.5.5-28.5-28.5zm-53 6 2.5 4.5q-1 1.5-2-1zm2 6 1.5.5q-1 2.5-2 1zm106 21 8.5 8.5-.5.5-8.5-8.5zm-12 9 7.5 7.5-.5.5-7.5-7.5zm-159 4 .5 2.5h-1zm187 4 5.5 5.5-.5.5-5.5-5.5zm-316 1 .5.5-4.5 4.5-.5-.5zm128 3 .5 3.5h-1zm176 3 5.5 5.5-.5.5-5.5-5.5zm-314 5 .5.5-4.5 4.5-.5-.5zm337 0 3.5 3.5-.5.5-3.5-3.5zm-200 1 .5 3.5h-1zm189 5 3.5 3.5-.5.5-3.5-3.5zm19 3 3.5 3.5-.5.5-3.5-3.5zm-354 1 .5.5-3.5 3.5-.5-.5zm145 2 .5 2.5h-1zm200 3 3.5 3.5-.5.5-3.5-3.5zm-299 1 .5.5-3.5 3.5-.5-.5zm-54 3 .5.5-2.5 2.5-.5-.5zm152 4 .5 3.5h-1zm210 0 2.5 2.5-.5.5-2.5-2.5zm-316 2 .5.5-4.5 4.5-.5-.5zm330 0 2.5 2.5-.5.5-2.5-2.5zm-383 2 .5.5-2.5 2.5-.5-.5zm376 2 3.5 3.5-.5.5-3.5-3.5zm13 3 2.5 2.5-.5.5-2.5-2.5zm-395 2 .5.5-2.5 2.5-.5-.5zm8 1 .5.5-3.5 3.5-.5-.5zm156 0 .5 4.5h-1zm226 1 2.5 2.5-.5.5-2.5-2.5zm-344 1 1 1 1.5-.5-4.5 4.5-.5-.5.5-1.5 2.5-1.5zm-45 4 .5.5-2.5 2.5-.5-.5zm395 0 2.5 2.5-.5.5-2.5-2.5zm-401 5 .5.5-2.5 2.5-.5-.5zm-6 1 .5.5-2.5 2.5-.5-.5zm174 3 .5 5.5h-1zm-179 3-.5 1.5 1 1-1.5 1.5-1.5-1.5zm431 3q2.5 1 1 2l-1.5-.5zm-253 11 .5 9.5h-1zm130 4 1.5.5-.5 2.5zm-178 65 1.5.5-1.5 2.5z" opacity=".576"/><path fill="#469589" stroke="#469589" d="m264.5 6 .5 4.5h-1zm23 3 .5 9.5h-1zm-22 14 .5 3.5h-1zm143 3 1.5 2.5q-1 1.5-2-1zm-141 4 .5 2.5h-1zm19 0 .5 5.5h-1zm-20 7 .5 2.5h-1zm147 1 1 1 1.5-.5-1.5 2.5zm-125 5 .5 3.5h-1zm-1 10 .5 4.5h-1zm38 2 1.5.5-1.5 3.5zm2 5 .5 2.5h-1zm-38 3 .5 2.5h-1zm131 0q2.5 1 1 2l-1-1-1.5.5zm-277 5 2.5.5-2.5.5zm8 3 2.5 1.5-1.5-.5q-2.4-.1-1-1Zm103 0 .5 1.5q-1 2.5-2 1zm34 0 .5 2.5h-1zm40 1 .5 2.5h-1zm-173 2 3.5 3.5-.5.5-3.5-3.5zm-28 1L138 85.5l-.5.5L127 75.5zm163 3 .5 2.5h-1zm40 0 .5 2.5h-1zm-9 4 .5 2.5h-1zm-157 2 3.5 3.5-.5.5-3.5-3.5zm165 1 .5 3.5h-1zm-40 1 .5 2.5-1.5.5.5-1.5zm-149 2 3.5 3.5-.5.5-3.5-3.5zm267 0 1.5 2.5q-1 1.5-2-1zm-249 3 2.5 1.5-2.5.5zm239 0 .5 2.5h-1zm-190 1 1.5 2.5q-1 1.5-2-1zm84 0 .5 2.5h-1zm-119 1 2.5 2.5-.5.5-2.5-2.5zm159 0 .5 2.5h-1zm-187 1 2.5 2.5-.5.5-2.5-2.5zm176 0 .5 2.5h-1zm48 0 1.5 2.5q-1 1.5-2-1zm-208 1 1 1 1.5-.5-1.5 1.5q-2.5-1-1-2Zm130 2 .5 2.5h-1zm-138 4 2.5 2.5-.5.5-2.5-2.5zm27 0 2.5 2.5-.5.5-2.5-2.5zm151 1 .5 2.5h-1zm-38 2 .5 2.5h-1zm-108 3 2.5 2.5-.5.5-2.5-2.5zm-27 1 3.5 3.5-.5.5-3.5-3.5zm162 0 .5 2.5h-1zm-176 1 3.5 2.5-2.5.5zm44 3 1 1 1.5-.5-1.5 1.5q-2.5-1-1-2Zm371 0 .5.5-4.5 4.5-.5-.5zm-395 1 2.5 2.5-.5.5-2.5-2.5zm60 2 1.5 2.5q-1 1.5-2-1zm97 0 .5 3.5h-1zm-125 4 2.5 3.5-.5.5-2.5-2.5zm352 3 .5.5-4.5 4.5-.5-.5zm-375 1 2.5 2.5-.5.5-2.5-2.5zm146 1 .5 3.5h-1zm-118 1 2.5 3.5-.5.5-2.5-2.5zm-25 3 3.5 2.5-1.5-.5q-3.8-.7-2-2Zm362 3 .5.5-3.5 3.5-.5-.5zm-218 3 .5 5.5h-1zm-132 1 1.5 2.5h-1zm-2 3 3.5 3.5-.5.5-3.5-3.5zm343 1 .5.5-2.5 2.5-.5-.5zm-266 2 1 1 1.5-.5-1.5 2.5zm34 3 .5 2.5h-1zm21 1 .5 5.5h-1zm-121 3 1.5 2.5-1 1 2 2-.5.5-2.5-2.5 1-1zm2 7 1 1 1.5-.5-1.5 1.5q-2.5-1-1-2Zm68 0 1 1 1.5-.5-1.5 2.5zm52 9 .5 6.5h-1zm-107 3-.5 1.5 2 2-.5.5-2.5-2.5zm3 4-.5 1.5 2 2-.5.5-2.5-2.5zm2 6 2.5 1.5-1.5-.5q-2.4-.1-1-1Zm101 0 .5 2.5h-1zm-269 5 1.5.5q-1 2.5-2 1zm75 3 2.5 1.5-1.5-.5q-2.4-.1-1-1Zm-49 3 2.5 1.5-2.5 1.5zm162 14 2.5 1.5-1.5-.5q-2.4-.1-1-1Zm-180 38 .5.5-2.5 2.5-.5-1.5zm14 2 2.5.5-4.5 1.5v-1zm25 4 2.5.5-2.5.5zm512 5 8.5.5-8.5.5zm-29 1 7.5.5-7.5.5zm41 0 4.5.5-4.5.5zm-60 1 5.5.5-5.5.5zm35 0 4.5.5-4.5.5zm35 0 2.5.5-2.5.5zm-86 1 4.5.5-4.5.5zm26 0 3.5.5-3.5.5zm-18 1 2.5.5-2.5.5zm-14 1 2.5.5-2.5.5zm85 2 2.5 1.5-1.5.5q-2.5-1-1-2Zm-62 14 3.5 1.5-2.5.5q-2.5-1-1-2Zm-64 11 4.5 1.5-2.5.5-2.5-1.5zm-4 2 2.5.5-2.5.5zm-7 1 2.5.5-2.5.5zm-27 2 5.5 1.5-3.5.5-2.5-1.5zm-10 1 2.5.5-2.5.5zm5 1 2.5.5-2.5.5zm-25 1 2.5.5-2.5.5zm15 0 2.5.5-2.5.5zm-190 1 2.5.5-2.5.5zm164 0 2.5.5-2.5.5zm16 0 3.5.5-3.5.5zm-11 1 3.5.5-3.5.5zm-192 10 4.5.5-4.5.5zm-11 1 3.5.5-3.5.5zm-11 1 3.5.5-3.5.5zm-5 2 2.5.5-2.5.5zm195 24q1.5 1-1 2l-2.5-.5zm-321 5 2.5.5-2.5.5zm-23 1 3.5.5-3.5.5zm30 0 1.5.5-3.5 1.5v-1zm3 0q3.8-.7 4.5 1.5l-1.5-.5q-4 .8-3-1Zm-23 1 8.5.5-8.5.5zm13 0q2.5 1 1 2l-1-1-1.5.5zm-46 1 13.5.5-13.5.5zm-8 12 2.5 1.5-1.5-.5q-2.4-.1-1-1Zm404 3q1.5 1-1 2l-1.5-.5zm-379 2 2.5.5-2.5.5zm-26 2 2.5.5-2.5.5zm19 0 3.5.5-3.5.5zm-35 1 3.5.5-3.5.5zm23 0 3.5.5-3.5.5zm-16 1 5.5.5-5.5.5zm122 2 2.5 1.5-1.5.5q-2.5-1-1-2Zm290 45 1.5 2.5q-1 1.5-2-1zm172 0 1.5.5-3.5 2.5-.5-.5zm-379 3 .5.5-3.5 3.5-.5-.5zm210 1 1.5 2.5q-1 1.5-2-1zm3 4 1.5 2.5q-1 1.5-2-1zm-32 4 1.5 2.5h-1zm-288 4 2.5.5-2.5.5zm291 0 2.5 1.5q-1 2.5-2 1zm37 3 1.5 2.5q-1 1.5-2-1zm-34 1 3.5 2.5h-3zm3 4 1.5 2.5h-1zm36 2 1.5 2.5q-1 1.5-2-1zm-33 2 3.5 2.5-1.5.5-2.5-2.5zm-219 3 .5.5-11.5 11.5-.5-.5zm257 2 1.5 2.5q-1 1.5-2-1zm-32 1q2.5 1 1 2l-1-1-1.5.5zm1 3 1.5 2.5h-1zm-298 5 .5.5-2.5 2.5-.5-.5zm100 0q2.5 1 1 2l-1-1-1.5.5zm236 1 1.5 2.5q-1 1.5-2-1zm-283 5 .5.5-2.5 2.5-.5-.5zm-61 1 .5.5-3.5 3.5-.5-.5zm27 1 1 1 1.5-.5-1.5 1.5q-2.5-1-1-2Zm-36 7 .5.5-4.5 4.5-.5-.5zm333 1q2.5 1 1 2l-1-1-1.5.5zm31 1 1.5 2.5q-1 1.5-2-1zm-30 2 2.5 3.5h-1l-2-3zm-277 1 .5.5-4.5 4.5-.5-.5zm73 3 1.5 2.5q-1 1.5-2-1zm-141 2 .5.5-4.5 4.5-.5-.5zm56 6 .5.5-4.5 4.5-1-1-1.5.5q1.3-2.7 2.5-.5zm-62 5 .5.5-2.5 2.5-.5-.5zm366 1 2.5 2.5-.5.5-2.5-2.5zm-314 3 .5.5-3.5 3.5-.5-.5zm-55 1 .5.5-3.5 3.5-.5-.5zm374 2 3.5 3.5-.5.5-3.5-3.5zm26 1 2.5.5-2.5.5zm-353 3 .5.5-2.5 2.5-.5-.5zm-56 1 .5.5-8.5 8.5-.5-.5zm123 2q3 1.5 0 3l-1.5-.5 2-1zm267 1 4.5 4.5-.5.5-4.5-4.5zm28 7 2.5.5-.5 1.5-2.5-1.5zm-21 1 2.5 2.5-.5.5-2.5-2.5zm26 7 2.5.5-2.5.5zm-16 4 2.5 2.5-.5.5-2.5-2.5zm6 5 2.5 2.5-.5.5-2.5-2.5zm20 7 1.5 2.5q-1 1.5-2-1zm-14 1 3.5 3.5-.5.5-3.5-3.5zm8 7 4.5 4.5-.5.5-4.5-4.5zm5 7 5.5 5.5-.5.5-5.5-5.5zm10 1 2.5.5-2.5.5zm2 3 2.5.5-2.5.5zm2 3 2.5.5-2.5.5zm2 3 2.5.5-2.5.5zm-154 11 .5 2.5h-1zm0 15 .5 2.5h-1zm1 11 .5 2.5h-1zm2 6 .5 2.5h-1zm1 13 .5 2.5h-1zm1 15 .5 3.5h-1zm-1 9 .5 3.5h-1z" opacity=".051"/></svg>