<svg xmlns="http://www.w3.org/2000/svg" viewBox="0 0 358 640"><path fill="#322618" stroke="#322618" d="M144.5 110q7.7.3 11.5 4.5l-1.5-.5-7-3h-3zm-9 2h9l6.5 2.5-1.5.5-5-2h-9l-8 3-9 7-1-1-3.5 3.5-5 9-1 6-1 1q1 4-1 5v12l1 1 1 8 2 4h-1l-2-4-1-8-1-1v-12l1-1v-4l1-1 1-6q3.9-9.1 10.5-15.5l5-4 .5.5-6 6 .5.5 9-7z" opacity=".996"/><path fill="#322618" stroke="#322618" d="m152.5 115 6.5 4.5-.5.5-2-2-1 1h-7l-3 1q-7.4 2.6-11.5 8.5l-5 11q1 4-1 5v13l1 1 1 9 5 11 9.5 10.5 7 4 6 1 3 2 .5-.5-2.5-2.5-8.5-7.5-7-12-2-7h1v2l6 13 8.5 9.5 6.5 4.5-4.5 1.5-3-2-7-2-6-4-5.5-5.5-6-10-3-9q1-4-1-5v-17l5-13 4.5-5.5 8-5 10.5-1.5-3-2z" opacity=".996"/><path fill="#322618" stroke="#322618" d="m157.5 115 5.5 6.5-7.5.5-6 3-5.5 5.5-3 6-1.5 6.5-.5-3.5 4-9 6.5-6.5 6-3 5.5-.5-4-5zm-32 7 .5 1.5-3 3-5 9-1 6-1 1v4l-1 1v9l1 1v5l2 6 4 8 9.5 10.5 2.5 1.5-.5 1.5-7.5-6.5-6-8-5-12q1-4-1-5v-13l1-1v-4l3-6v-2l4-7zm-15 15 .5 2.5-2 4v7l-1 3 1 1v7l5 12q-1 1.5-2-1l-4-10q1.3-4.7-1-6v-9zm28 7 .5 12.5 1 1 1 7h-1l-1-7-1-1zm-28 29 8 11 12.5 8.5-1.5-.5-6-3-8.5-7.5-5-8zm-13 10q2 .5 1.5 3.5h-1zm0 5 .5 2.5h-1zm-1 4 .5 2.5h-1zm36 1 3.5 1.5-1.5.5-2.5-1.5zm-37 3 .5 2.5h-1zm45 0q3.3-.7 4 1l12.5.5-12.5.5q-.7-1.8-4-1zm-46 4 .5 2.5h-1zm-1 4 .5 2.5h-1zm72 0 6.5.5-6.5.5zm-3 1q3.2 2.3 10 1l3-1v1l-2.5.5 3.5.5 3-1 2.5 1.5-2 1 5.5 2.5v-2l7.5 5.5 5 8 1 3v5q-1 1.5-2-1v-3l-2-5-5.5-6.5-8-5-6-2h-3l-1-1h-6l-3.5 2.5-2 4v4q1.8.8 1 4h-1l-1-2v-6l-1-3zm.5 1-3 4h1l3-3zm15 1v1h2zm-18 3-1 3h1zm31 4q-2 1 1 2v-1zm-74.5-8 7.5.5-8 1 6.5.5 4 3 .5-1.5-2-2 .5-.5 2.5 3.5-1 3h1l.5-1.5.5 7.5-2.5 3.5-16.5-.5 17-1 1-4h-1l-.5 1.5-.5-2.5q2-1 0-2 .5-4-2.5-4.5-3.2-2.3-10-1l-6 3-4.5 4.5-2.5 7.5-1.5-4.5q2.7-6.8 8.5-10.5l3-1 2 1v-2q3.3.8 4-1Zm-24 2 .5 2.5h-1zm139 0 1 1h4l1 1 4.5.5v21l1 1 1 8 6 15q-1 1.5-2-1l-5-13-1-8-1-1v-7l-1-1v-12l.5-1.5-9-1-1.5.5zm12 3h4l1 1h4l1 1h4l1 1 4.5.5-4.5.5-3-1-.5 1.5q1.8.8 1 4l3 5-1.5.5-3.5-10.5-1.5-1.5-9-1zm-152 1 .5 2.5h-1zm138 0 .5 1.5-2.5 4.5-.5-1.5zm-72 3 .5 5.5h-1zm-67 1 .5 2.5h-1zm136 3 .5 1.5-1.5 3.5-.5-2.5zm-137 1 .5 2.5h-1zm69 2 1 2 2 1 11.5.5-11.5.5-3.5-2.5zm-60 1 1 2 1.5.5-2.5 1.5z" opacity=".996"/><path fill="#322618" stroke="#322618" d="m105.5 223 3.5.5-6.5 1.5v-1zm-17 1 .5 2.5h-1zm86 2h4l7.5 2.5-2.5.5-5-2h-4zm-87 2 .5 2.5-1 1v3l-1 1v3l-1 1v3l-1 1v3l-1 1v3l-1 1-1.5 7.5-.5-3.5 1-1v-3l1-1v-3l1-1v-3l1-1v-3l1-1v-3zm136 0 .5 2.5h-1zm-33 2 8.5 3.5-1.5.5-7-3zm32 2 .5 3.5h-1zm12 0 .5 3.5-1 1v14l1 1v4l2 6 4 8 4.5 5.5 4-2q1.5 1-1 2-6.7 2.3-10.5 7.5l-4.5 9.5-6.5-12.5q.8-3.2-1-4v-9h1v7q2 1 1 5l3 6v2l2.5 2.5q2.9-7.6 9-12l1.5-.5q-.7-4.2-4-6l-6-14q.8-3.2-1-4v-18zm-13 5 .5 7.5h-1zm-107 3h4l5.5 4.5 2 5h-1q-1-5-4.5-7.5-1.8-1.7-6-1l-6.5 5.5-2 5-1 10 1 1 1 6 3.5 4.5 2.5 1.5-1.5-.5-4.5-3.5-3-9v-5l1-1 1-7 4.5-6.5zm55 5q15.8-1.7 20.5 7.5l3 8v5l-3 7-5.5 5.5-4 2-8 1-8-3-4.5-4.5-3-6v-9l2-5 3.5-4.5zm.5 1-4 2-6 6-2 5v9l3 6 6 4 6 2 8-1 4-2 4-4 3-7v-5l-3-8q-3-5-9-7zm50.5 1 .5 9.5h-1zm-94 4 .5 11.5-3 7-2.5 2.5-.5-.5 2-2 3-7zm-47 9 .5 9.5h-1zm142 0 .5 7.5h-1zm1 9 1.5 8.5h-1q.8-3.2-1-4zm2 10 1.5 5.5h-1l-1-3zm2 7 2.5 6.5h-1l-2-5zm6 7 .5 7.5h-1l-1-2 1-1zm-41 8 1.5.5-5 11-12.5 13.5-6 2v-1l6-2 8.5-8.5 6-10zm2 2 1.5 4.5h-1zm2 6 .5 3.5h-1zm1 5 .5 2.5-1.5-.5h-3l-8.5 5.5-2.5 3.5-.5-.5 2-2 2.5-3.5 7-4q3.3.8 4-1Z" opacity=".996"/><path fill="#322618" stroke="#322618" d="m159.5 323 6.5 4.5-1.5-.5-1.5.5 7.5 7.5 9 3 .5-1.5-1-1v-7l1.5-2.5.5 1.5-1 1v7l2 3-4.5.5-7-3-11.5-11.5zm-36 299 38.5.5-38.5.5zm67 0 40.5.5-40.5.5zm-28 5q2.1 1.4 1.5 5.5l-57.5.5-.5-1.5 3.5-3.5.5.5-3 3 .5.5 55.5-.5zm80 0 3.5 5.5-57.5.5-.5-4.5h1l.5 3.5 55.5-.5-3-3z" opacity=".996"/><path fill="#463b29" stroke="#463b29" d="M139.5 109q3.8-.7 4.5 1.5l-1.5-.5q-4 .8-3-1Zm6 3v2l5 1 1.5-.5.5 1.5 2 1 1.5-.5-1.5 1.5h-7l-3 1-5.5 3.5 1.5.5 8-4h7l1-1q1 2 2 0l2.5 1.5-.5 1.5-5.5.5.5 1.5-2-1q-6.2 2.3-9.5 7.5l.5 1.5-1.5-.5-3 6v2l.5 1.5-1.5-.5q-.7 3.3 1 4l-2 1 .5 12.5 1.5-.5q-2 1-1 5h2l-1 3 2 1-1 3h2l-1 2 1.5 3.5 1.5-.5-1 2 3.5 6.5 1.5-.5q-2.5 1.5 1 3l.5 1.5q1.3-2.2 2.5.5l-1 1 3.5 3.5 1.5-.5q-2.2 1.3.5 2.5l4.5 3.5-1.5-.5-3-2h-3l-7-3q-1.5 1 1 2l7 2 3.5 2.5-1.5.5-1-1h-12l-1.5.5.5-1.5q-3.2-.7-4 1l-1-2-2 1-1-2-2 1v-2l-2 1-1-2-1.5.5.5-1.5-2 1v-2l-2-1-1.5.5.5-1.5-2-1q-1.2 2.3-2.5-.5 2.3-1.3-.5-2.5l-3.5-2.5-.5-1.5-1.5.5q2.5-1.5-1-3l-.5-1.5-1.5.5 1-2h-2l.5-1.5-1.5-.5 1-2h-2l1-2-1.5-4.5-1.5.5q2-1 1-5h-2l1-1v-12l-.5-1.5 1.5.5q1-4-1-5h2l1-6 4-7-.5-1.5 1.5.5 3-4q-2.2-1.2.5-2.5l-.5 1.5 1.5 1.5 9-7 4.5-1.5-.5-1.5 3 1 1-1h9zM126 122l-5 6 1 1 4-5zm11 2-2 3h1l2-2zm-3 4-5 8-1 6-1 1v17l1 1v4l2 6h1l-1-6-1-1v-5l-1-1v-13q2-1 1-5l5-10zm-13 1-3 4 1 2 2-4zm-3 6-4 11v13q2 0 1 5l5 12q1 2 2 1l-4-8-2-6v-5l-1-1v-9l1-1 1-8 1-1zm-7 2-4 11v9q2 1 1 6l4 10q1 2 2 1l-5-12v-7l-1-1 1-3v-7l2-4zm21 34-1 3 2 4q1 2 2 1zm-9 6-1 2 3 2zm13 2-1 2q1 2 2 1zm-9 3-1 2 4 2zm11 0-1 2 7 5zm-6 5-1 1 3 2v-1zm13 2q-2 1 1 2h1zm-46.5-6q2.5 1 1 2l-1.5-.5 1 3-2 1 1 3-2 1 1 3-2 1 1 3-2 1 1 3-2 1 1 3-2 1 1 3-2 1 1 3-2 1 1 3-2 1 1 3-2 1 1 3-2 1 1 3h-2q-.8 3.3 1 4h-2q-.7 3.3 1 4h-2q-.7 3.3 1 4h-2q-.7 3.3 1 4h-2q-.7 3.3 1 4h-2q-.7 3.3 1 4h-2l1 5q-1 1.5-2-1v-8l1-1v-5l1-1v-4l1-1v-4l1-1v-4l1-1 1-7 2-4 1-7 6-17 1-6zm66 21 1 1h6l1.5-.5.5 1.5 3-1 1 2 4 1 1.5-.5.5 1.5 1.5-.5.5 1.5 1.5-.5-.5 1.5 2 1q1.3-2.2 2.5.5l-.5 1.5 1.5.5.5 1.5 1.5-.5-1 1 2 2-.5.5-1.5-.5 1.5 2.5 1.5-.5-1 2 2 4v3l1.5 1.5 1-2 .5 4.5-1.5-.5-2 1v-2l-2 1v-2l-4-1-1.5.5-.5-1.5-2 1-1-2-6-1-1.5.5.5-1.5q-4.2-.7-6 1v-2h-11l-2.5-1.5-.5-1.5-1.5-.5q2.3-1.3 1-6l-1-2 2-1q.3-4.7 3.5-6.5l1.5-.5zm.5 2q-3 1-1 2l2-1h6l8 3h2l-9-4zm-3 3-2 2 1 2 1-2zm23 2-1 1 5 3h1q-2-3-5-4Zm-25 2q-2 6 0 9h1zm-45.5-7q2.8 2.2 9 1l1.5-.5 2.5 4.5 1.5.5-1.5 2.5q-.2-3.8-3-5-2.5-2-8-1l-2.5-1.5z" opacity=".996"/><path fill="#463b29" stroke="#463b29" d="m111.5 207 2 2h8l4.5 3.5 1 3-1 3h1l.5-1.5 1.5 3.5h-2l-.5 1.5-16.5.5-.5 1.5q-.7-1.7-4-1v2l-3-1-1 2-2.5-1.5-1-2 1.5-.5 1 2 .5-2.5-1-2h1l.5 1.5.5-2.5-.5-1.5 1.5.5-1-2 2-2q-2.2-1.2.5-2.5l1 1 2-2 .5.5-.5 1.5 5.5-2.5-2-1zm126 2v2l3.5.5-1 1v12l1 1v7l1 1 1 8 3 9 3.5 5.5.5-1.5-3-5-3-9v-3l-1-1v-4l-1-1v-21h1l.5 1.5q4 1 5-1v2q4 1 5-1l-.5 1.5 1 1 1.5 5.5.5-3.5-1-2 3.5-1.5v2l4.5.5-1 7-3 9v4l-3 9v4l-3 9v4l-1 1-2 10-1.5 1.5-3 1-2-2-.5.5 1 3-2 1 .5 1.5-1-1-2.5 2.5q2.3 1.3-.5 2.5l-1.5-.5-1 2 .5 1.5-1.5-.5 1 2h-2l1 2-.5.5-3-3-.5.5 3 5-2 1-.5 4.5-1.5-.5.5-1.5-1.5-.5.5-1.5-1.5-.5 1-2-1.5-3.5-1.5.5 1-2-2-1 1-3h-2l1-3-2-1q1.8-.7 1-4h-2q2-1 1-5l-2-1 1-1v-7h-2q-.8-3.2 1-4v-9q-1.8-.7-1-4h1l.5 1.5.5-7.5-1-2h2q.8-3.2-1-4l2-1-1-3 2-1-1-2 2-1 1-4-.5-1.5 1.5-.5 1-3-.5-1.5 1.5.5-1-2 2.5-1.5q4.7 1.3 6-1Zm19.5 11q-2 3 1 5h1zm-22 12-2 3v18l1 1v3l2 6 4 8 3 2-6-11-2-6v-4l-1-1v-14l1-1zm-8 34-1 10 4 11h1v-2l-3-6zm-113.5-26q1 2 5 1l4.5 3.5.5 1.5 1.5-.5-1 2h2l-1 2 2 1-1 1v11l.5 1.5-1.5-.5 1 3h-2l1 2h-2l-1 2q2.2 1.3-.5 2.5-6-1-8 2l-1-1-1.5.5.5-1.5-3.5-2.5-1.5-4.5-1.5.5q1.8-.7 1-4h-2q2.3-1.3 1-6l-.5-1.5 1.5.5q1-4-1-5h2v-2l2-3-.5-1.5 1 1 3-3 1.5-.5zm67 5v2h2l6.5 5.5 2.5 7.5 1.5-.5q-2.3 1.3-1 6l.5 1.5-1.5-.5 1 3h-2l1 2h-2l-1 2 1 1-2.5 2.5q-1-2-2 0l-1.5.5.5 1.5-2-1v2q-.7-1.7-4-1v2q-1-2-5-1l-1.5.5.5-1.5-5-1-5.5-4.5-.5-1.5-1.5.5 1-2h-2l1-2-1-1v-9l-1-1h2v-2l2-3-.5-1.5 1 1 2.5-2.5-.5-1.5q1 2 2 0l1.5-.5-.5-1.5 2 1 1-1h10zm-55 56 2.5.5-2.5.5zm67 1 1.5.5-1 2 1.5 3.5 1.5.5q-1.7.8-1 4h2l-1.5 2.5-3.5.5.5 1.5-2-1-5.5 3.5q2.3 1.2-.5 2.5l-1.5-.5-2 3 .5 1.5-1.5.5q-2.2 2.8-1 9l1 2-3.5 1.5v-2l-3 1v-2l-5-3-1 1-6.5-6.5 1-1-.5-1.5 1 1 1.5-.5-.5 1.5 2 1 3-1 3 1 4.5-2.5-.5-1.5 1 1 7.5-7.5-.5-1.5 1.5.5 2-3-.5-1.5 1.5.5zm-74 320q4-1 5 1h38l1.5 1.5-1 4h2l-1.5 3.5-55.5-.5q3.5-1.5 1-3l2.5-2.5zm113 0h3l7.5 4.5.5 2.5q1.3-2.2 2.5.5l-1 1 .5 1.5-55.5-.5-1-5 1.5-3.5h41z" opacity=".996"/><path fill="#6b7f4b" stroke="#6b7f4b" d="m153.5 187 2.5 2.5-.5.5-2.5-2.5zm20 57 3.5.5-3.5.5zm-46 11 .5 2.5h-1zm-59 193q3.8-.7 4.5 1.5.8 3.8-1.5 4.5-3.7.8-4.5-1.5-.7-3.7 1.5-4.5Zm40 5q3.8-.7 4.5 1.5l-.5 4.5q-4.5 1-5.5-1.5-.7-3.7 1.5-4.5Zm35 1 4.5.5 1 4-3.5 2.5-3.5-2.5zm-63 10q4.8-.7 5.5 2.5l-1.5 3.5q-4.5 1-5.5-1.5-.7-3.7 1.5-4.5Zm98 2 3.5 2.5-1.5 4.5-4.5-.5-1-4zm-57 6q3-.5 3.5 1.5l1 2-2.5 3.5-4.5-1.5q-.7-4.7 2.5-5.5Zm-72 4q4-.5 4.5 2.5.5 4-2.5 4.5-4 .5-4.5-2.5-.5-4 2.5-4.5Zm96 9 4.5.5 1 3-1.5 2.5q-4.5 1-5.5-1.5-.7-3.7 1.5-4.5Zm-50 4q3.8-.7 4.5 1.5l-.5 4.5-3 1-2.5-1.5q-1-4.5 1.5-5.5Zm96 132 34.5.5-34.5.5zm-86 11 1 1 55.5.5-56.5.5z" opacity=".996"/><path fill="#80959b" stroke="#80959b" d="m223.5 23 12 2 11 6 5.5 5.5 3 4 4 9q-1 4 1 5v10l-1 1v4l-2 6-4.5 6.5-.5-1.5 5-8 1-8 1-1v-8l-1-1-1-7-3-6-9.5-10.5-7-4-6-2h-14l-10 4-9.5 8.5-5 9q.7 3.3-1 4v12l5 12 7.5 7.5 8 4 11 1 10-4 4.5-4.5 3-6 1-9-3-7-3.5-3.5-4-2h-7l-4.5 3.5q-2 2.5-1 8l2 3-.5.5-2.5-2.5q.8-3.2-1-4 1.8-.7 1-4l4.5-4.5q3.2-2.3 10-1l6.5 4.5 4 8v7l-3 8-4.5 5.5-7 4q-3.2-.7-4 1h-8l-11-4-8.5-7.5-4-7-1-6-1-1v-13l4-10 6.5-7.5 12-7 3-1h6zm-105 13 9 1 10 4L149 51.5l4 7 2 6v16l-1 1-1 6-4.5 7.5-.5-1.5 4-7 1-6 1-1v-14l-5-12-6.5-7.5-12-7q-3.2.8-4-1h-14l-11 5-9.5 9.5-4 9-1 10 1 1v5l1 3q2.9 7.6 8.5 12.5l8 5 7 1 1 1h5l9-3 6.5-6.5 3-6v-10q-2.3-6.2-7.5-9.5-2.8-2.2-9-1l-5.5 4.5q-1.7 1.8-1 6l2 4q-1 1.5-2-1-1.8-2.2-1-7l1-3 3.5-3.5q3.2-2.3 10-1 5.5 2 8.5 6.5l2 4v11l-3 7-5.5 5.5-10 4h-8l-9-3L92 88.5l-5-11q1-4-1-5v-7l4-12L99.5 43l9-5 9-1zm183 45h13q.8 1.8 4 1l11 6 7.5 7.5 4 7 2 6v6q1.8.7 1 4l-1 1v6q-1.7.7-1 4l-5.5 9.5-.5-1.5 4-6 1-6 1-1v-15l-5-12-9.5-9.5-7-4-6-1-1-1h-11l-9 3-6 4-6.5 6.5-3 5-2 6v6l-1 1 1 1v6q1.8.8 1 4 3.5 9 10.5 14.5l5 3 6 1 1 1h9l6-2 6.5-5.5 4-8v-10q-2-5.5-6.5-8.5l-4-2h-5l-5.5 3.5-2 4v3l2 4q-1 1.5-2-1-1.8-2.2-1-7l5.5-6.5 3-1h5l5 2 4.5 4.5 2 4q-1.3 4.7 1 6l-1 1v5l-1 3-5.5 7.5-10 5h-11l-10-4-6.5-5.5-5-8-2-6-1-11 1-1 1-7 3-6 6.5-7.5 4-3zm-162 29 2.5.5-.5 1.5-3.5-.5zm0 36 .5 7.5h-1zm-35 4 .5 3.5h-1zm36 8 10 1 1 1 10 1 1 1h5l6 2h5l6 2h5l6 2h5l6 2h5l6 2h5l6 2 11 1 1 1 10 1 1 1 10 1 1 1h4l4.5 1.5-4.5.5-6-2h-5l-6-2h-5l-6-2h-5l-6-2-11-1-6-2h-5l-6-2h-5l-6-2h-5l-6-2h-5l-6-2h-5l-1-1h-4l-1-1h-5l-1-1h-5l-3-1-1.5.5zm40 161 .5.5-2.5 2.5-.5-.5zm-26 44 2.5.5-2.5.5zm-29 258 34.5.5-34.5.5z" opacity=".996"/><path fill="#a5b4b9" stroke="#a5b4b9" d="m220.5 23 2.5.5-2.5.5zm6 0 2.5.5-2.5.5zm-23 7 1.5 1.5-2.5 2.5.5-1.5-1-1zm-88 6 2.5.5-2.5.5zm7 0 2.5.5-2.5.5zm75 0 1 1 1.5-.5-1.5 1.5-1-1-1.5.5zm-87 1 3.5 1.5-1.5.5-2.5-1.5zm142 0q2.5 1 1 2l-1-1-1.5.5zm-110 7 5.5 5.5-1.5 1.5-4.5-4.5 1-1zm-46 1 .5.5-2.5 2.5-.5-.5zm130 4 3.5.5-3.5.5zm-3 1 2.5 1.5-1.5.5q-2.5-1-1-2Zm-132 1 1 1 1.5-.5-1.5 1.5q-2.5-1-1-2Zm130 0-.5 1.5 1 1-1.5 1.5-1.5-1.5zm15 1-.5 1.5 2.5 2.5 1.5-.5-1.5 1.5-3.5-3.5zm-46 1 .5 5.5h-1zm68 2 .5 8.5h-1zm-105 5-.5 1.5-.5 1.5-.5-1.5zm39 1 .5 1.5-1.5 2.5-.5-1.5zm-70 1 3.5.5-3.5.5zm119 1 .5 5.5h-1zm-23 1 1 1 1.5-.5-1.5 1.5q-2.5-1-1-2Zm-131 2 .5 5.5h-1zm68 2 .5 8.5h-1zm-42 1 1.5 2.5h-1zm84 5q2.5 1 1 2l-1-1-1.5.5zm-109 2 .5 1.5q-1 2.5-2 1zm50 0 .5 5.5h-1zm99 2q3 1.5 0 3l-1-1-2.5 2.5.5 1.5-1.5-1.5zm69 2 3.5.5-3.5.5zm-170 3 1.5 2.5q-1 1.5-2-1zm81 3 6.5.5-6.5.5zm70 1-.5 1.5 1 1-1.5 1.5.5-1.5-1-1zm-194 3q1 2 2 0l2.5 2.5-1 1 .5 1.5-4.5-4.5zm239 0 2.5 2.5-.5.5-2.5-2.5zm-51 3 1 1 1.5-.5-2.5 2.5-1.5-1.5zm-168 6 5.5.5-5.5.5zm194 8 3.5 1.5-1.5.5-2.5-1.5zm8 0 1.5.5-3.5 1.5v-1zm-10 1-.5 1.5 1 1-1.5 1.5-1-1-1.5.5zm38 4 .5 2.5h-1zm-41 3 .5 3.5h-1zm-28 1 .5 2.5h-1zm69 3 .5 3.5h-1zm-17 1 .5 2.5h-1zm0 4 .5 2.5h-1zm-44 9 5.5 5.5-1.5 1.5q-2.7-1.2-.5-2.5l-3.5-3.5-1.5.5zm38 3 1 1 1.5-.5q-1.2 2.8-2.5.5l-2.5 2.5q2.3 1.3-.5 2.5l.5-1.5-1-1zm-216 18 .5 2.5h-1zm52 6 1.5.5-3.5 1.5v-1zm72 13 1.5.5-3.5 1.5v-1zm-113 9 3.5 3.5-.5.5-3.5-3.5zm0 57 2.5.5-2.5.5zm35 124 3.5.5-3.5.5zm9 0 9.5.5-9 1-.5 2.5zm24 5 .5 1.5q-1 2.5-2 1zm-24 1 .5 5.5-1 1-.5 4.5-.5-4.5 1-1zm-23 1-.5 1.5-.5 1.5-.5-1.5zm46 2 .5 1.5-1.5 2.5-.5-1.5zm-47 2 .5 1.5q-1 2.5-2 1zm46 3 .5 1.5-2.5 6.5-.5-1.5zm-47 1 .5 1.5-1.5 2.5-.5-1.5zm24 4 .5 6.5-1 1-.5 4.5-.5-5.5 1-1zm-25 1 .5 1.5q-1 2.5-2 1zm46 3 .5 1.5-1.5 2.5-.5-1.5zm-47 1 .5 1.5-2.5 6.5-.5-1.5zm46 4 .5 1.5q-1 2.5-2 1zm-1 4 .5 1.5-1.5 2.5-.5-1.5zm-47 1 .5 1.5q-1 2.5-2 1zm27 0 .5 5.5-1 1-.5 4.5-.5-4.5 1-1zm-28 4 .5 1.5-1.5 2.5-.5-1.5zm47 0 .5 1.5-1.5 2.5-.5-1.5zm-48 5 .5 1.5q-1 2.5-2 1zm47 0 .5 1.5q-1 2.5-2 1zm-48 4 .5 1.5-2.5 6.5-.5-1.5zm29 0 .5 6.5-1 1-.5 4.5-.5-5.5 1-1zm18 0 .5 1.5-1.5 2.5-.5-1.5zm-1 5 .5 1.5q-1 2.5-2 1zm-48 4 .5 1.5q-1 2.5-2 1zm47 0 .5 1.5-1.5 2.5-.5-1.5zm-48 4 .5 1.5-1.5.5q-1.5-1 1-2Zm31 1 .5 3.5h-1zm16 0 .5 1.5-1.5 2.5-.5-1.5zm-1 5 .5 1.5-1.5.5q-1.5-1 1-2Zm15 166h29l1.5 1.5-31.5.5q-1.5-1 1-2Zm-58 2 27.5.5-27.5.5zm60 37 59.5.5-59.5.5z" opacity=".996"/><path fill="#d0d1d2" stroke="#d0d1d2" d="m218.5 25 2.5.5-2.5.5zm29 6 4.5 4.5-.5.5-4.5-4.5zm-1 2 4.5 4.5-.5.5-4.5-4.5zm-54 19 .5 8.5h-1zm68 5 .5 4.5h-1zm-70 2 .5 2.5h-1zm-74 5 .5.5-2.5 2.5-.5-.5zm37 3 .5 2.5h-1zm-41 4 .5 3.5h-1zm24 4 .5 2.5h-1zm17 0 .5 3.5h-1zm-38 1 1.5 2.5h-1zm84 0 4.5 4.5-.5.5-4.5-4.5zm-2 1 4.5 4.5-.5.5-4.5-4.5zm106 3 2.5.5-2.5.5zm7 0 2.5.5-2.5.5zm-6 2 7.5.5-7.5.5zm25 5 2.5 2.5-.5.5-2.5-2.5zm-110 1 2.5.5-2.5.5zm65 1 .5.5-2.5 2.5-.5-.5zm-152 2 .5.5-4.5 4.5-.5-.5zm2 1 .5.5-4.5 4.5-.5-.5zm-20 9 2.5.5-2.5.5zm196 5 3.5.5-3.5.5zm10 3 3.5 3.5-.5.5-3.5-3.5zm21 1 .5 2.5h-1zm-207 1 2.5.5-2.5.5zm9 0 2.5.5-2.5.5zm176 0 2.5 2.5-.5.5-2.5-2.5zm-163 5 2.5 1.5-1.5-.5q-2.4-.1-1-1Zm185 5 .5 2.5h-1zm-41 22 6.5.5-6.5.5zm-1 2 3.5.5-3.5.5zm6 0 2.5.5-2.5.5zm-164 12 2.5.5-2.5.5zm49 11 2.5.5-2.5.5zm79 12 2.5 1.5-.5 1.5-1-2q-2.4-.1-1-1Zm-76 81 .5 2.5h-1zm-44 102 1 1 7.5.5-8.5.5zm11 1 4.5.5-4.5.5zm-25 6 1.5 2.5h-1zm23 1 1.5 7.5h-1q.8-3.2-1-4zm23 1 1.5 3.5h-1zm-1 5 1.5 2.5q-1 1.5-2-1zm-47 1 1.5 3.5h-1zm46 4 1.5 2.5h-1zm-22 2 .5 3.5h-1zm21 2 1.5 3.5h-1zm-47 1 1.5 2.5q-1 1.5-2-1zm27 2 .5 3.5h-1zm-28 3 1.5 2.5h-1zm46 3 1.5 3.5h-1zm-20 2 1.5 8.5h-1q.8-3.2-1-4zm-28 3 1.5 3.5h-1zm47 0 1.5 2.5q-1 1.5-2-1zm-49 9 1.5 2.5q-1 1.5-2-1zm47 0 1.5 3.5h-1zm-18 2 .5 3.5h-1zm-30 3 1.5 2.5h-1zm31 2 .5 3.5h-1zm15 2 1.5 3.5h-1zm-1 5 1.5 2.5q-1 1.5-2-1zm-16 1 1.5 3.5-1.5.5zm-110 87 2.5.5-2.5.5zm139 21 5.5 8.5-1 2h2l-1 2 2.5 4.5 1.5-.5-.5 1.5 1.5.5-.5 1.5 1.5.5-.5 1.5 1.5.5-.5 1.5 2.5 1.5 1 2-1 2h2l-1 2 2.5 4.5 1.5-.5-1 2h2l-.5 1.5 1.5.5-.5 1.5 1.5.5-.5 1.5 2.5 1.5 1 2-1 2h2l-1 2h2l-1 2 2.5 4.5 1.5-.5-.5 1.5 1.5.5-.5 1.5 1.5.5-.5 1.5 1.5.5 3 5-1 2h2l-1 2 2.5 4.5 1.5-.5-1 2h2l-.5 1.5 1.5.5-.5 1.5 1.5.5-.5 1.5 2.5 1.5 1 3-38.5.5-1-2-1.5-.5 1-2-2-1 1-3-2-1 1-2-2-1 1-3-2-1 1-2-2-1 1-3-2-1 33-1-1.5-1.5h-29q-1 2-2 0l-1.5-.5 1-3-2-1 1-2-2-1 1-3-2-1 1-2-2-1 1-3-2-1 1-2-2-1 1-3-2-1 1-2-2-1 1-3-2-1 1-2-2-1 1-3-2-1 1-3h-2l1-3-2-1 1-3h-2l1.5-3.5h6l6.5-5.5zm-56 1q3.3-.7 4 1h6q1.5 4.5 9 3l3.5 3.5q-1.7 1.8-1 6h2l-1 7h2l-1 7h2l-1 7h2l-1 7h2l-1 7h2l-1 7 2 1-1 5 2 4q-1.7.8-1 4l2 1-1 6h2l-1 7h2l-.5 3.5-35.5-.5-1-19 2-1-1-4 1-1v-9l-1-1v-10l2-1v-13l-1-1v-10l2-1v-14zm-.5 63v1h29zm-47.5 32h10l1 1 15.5.5-1 1 .5 1.5-1.5-.5 1.5 3.5h59l1.5-1.5-.5-4.5-1.5.5.5-1.5 21.5.5q-1.2 5.3 1.5 6.5l59.5-.5 1-3h-2l1-1-.5-1.5h18l1-1h10v1l-1.5.5 15.5.5 1-1h6v2h10q.8-1.7 4-1l1 2h6q.8-1.7 4-1v2l5-1v1l-3 2q-1.2-2.2-6-1v2q-3.3.8-4-1h-8l-1 2q-4 1-5-1h-12v1l1.5.5-8.5.5-1-1h-21v1l2.5.5-14.5.5-1-1h-34v1l25.5.5-118.5.5v-1l25.5-.5-34.5-.5-1 1h-16v-1l4.5-.5-22.5-.5-1 1h-6v-2h-12q-1 2-5 1l-1-2h-8l-3 1-1-2q-4.8-.8-7 1l-2.5-2.5.5-.5q1 2 5 1v-2l3 1h6v-2q4-1 5 1h11v-1l-1.5-.5 6.5-.5 1 1h16v-1q-2.4-.1-1-1Z" opacity=".996"/><path fill="#e6435b" stroke="#e6435b" d="M123.5 446h10l6.5 3.5 1 3-2.5 3.5-4 2h-12l-3-1-3.5-3.5q-.7-4.7 2.5-5.5zm-40 1h12l3 1 3.5 3.5q.8 4.8-2.5 5.5l-4 2h-11l-3-1-3.5-3.5q-1-4.5 1.5-5.5zm78 4 9 1 3 1 2.5 2.5 1 3-5.5 4.5-3 1h-8l-6-2-2.5-2.5v-3l3.5-3.5zm-104 8h10l3 1 4.5 4.5-2.5 4.5-4 2h-12l-3-1-3.5-3.5q-.7-4.7 2.5-5.5zm43 5 9 1 5.5 4.5-1.5 4.5-7 3h-8l-7.5-3.5-1-4 3.5-3.5q1.8-1.7 6-1zm36 1h11l6.5 4.5q.8 4.8-2.5 5.5l-4 2h-12l-5.5-3.5-1-3 2.5-3.5zm27 11h6q.8 1.8 4 1l5.5 3.5q1 5.5-2.5 6.5l-6 2h-7l-6-2-2.5-2.5-1-2 3.5-4.5zm-90 3h10l3 1 3.5 3.5 1 2-2.5 3.5-4 2h-12l-3-1-3.5-3.5q-.7-4.7 2.5-5.5zm45 5h7q.7 1.8 4 1l5.5 4.5v2l-3.5 3.5-6 2h-6l-8.5-3.5-1-4 1.5-2.5z"/><path fill="#e39259" stroke="#e39259" d="m97.5 427 14.5.5q-1.8 2.2-1 7h1l.5-1.5 1 2q2.3-.7 1.5-4.5h-1l-.5 1.5-.5-4.5 14.5-.5 3 1h10l1 1 4.5.5q-2.2 1.3.5 2.5l1.5-.5-1-2 1.5.5h5l1 1 9 1 1 1h3l18 6 17 9 9.5 8.5 3 4 3 7v11l-4 8-9.5 9.5-20 11-9 3h-4l-2-1-7 4-6-3-1.5.5-2-3 .5-1.5-2-1-1.5.5-.5-1.5-4 1-.5-1.5 16.5-4.5 1 1 6.5.5-.5 1.5 3-1v2l2.5-1.5-1.5-2.5-2 1v-2l-7 1v-1q14.8-4.2 23.5-14.5l2.5-4.5 5 1v-1l-4.5-1.5q2.2-2.8 1-9-2.5-8-8.5-12.5l-15-9-12-4-7-1-1-1-10-1-1-1h-8l-1-1h-26l-1 1h-9l-1 1-10 1-1 1h-3l-1 1h-3l-9 3-15 8-8.5 8.5-3 7v5l3 7 8.5 8.5 10 6 21 7 11 1 1 1h8l1 1 25.5.5-1 1 3 3 .5 1.5 2.5-2.5-.5-.5-3.5-2.5 1.5-1.5h9q1-2 5-1l1 3q4 1 5-1v2l2-1v2l3.5 1.5-6 4-.5 1.5q-1.8-3.6-7-4l-3 1-2.5 2.5-.5 1.5q-1.2-2.2-6-1l-2 2h-6l-1 1h-12l-1-1h-15l-1-1-14-1-5-2h-5l-12-4h-3l-19-8-8-5-8.5-7.5-6-10-1-9 3-9L22.5 450l15-9 18-6 1 3q2.8-1.2.5-2.5l.5-1.5 10-2 1-1h3l1 2 1.5-.5.5 1.5q3-1.5 0-3l-1.5-.5 5.5-.5 1-1 13-1 2 3q2.5-1 1-2l-1.5-.5zm29.5 2-2 2 3 2 2-3zm-30 1-3 3 1 3 2-1 1 1v-4l-1 2h-1l1-2zm47 0-4 4 1 1h-2l1 3h2l-1-1h2l-1-2h2v-1l2-1zm-19 1v5q1 2 2 1v-2zm30 1q-2 1 1 2h3zm-76 1-3 4h1l2-2zm75 0q-5 3 0 5v-1l2-1zm-74 2-2 3q1 1 2-1zm87 0-1 1 3 2h1zm-16 1v5l2-1zm-90 3-2 3 2-1-1 2h2l1-2zm102 0-1 2 2 3h1l-1-2 2-1-1-2q-1 2-2 0Zm16 0-1 1 4 2h1zm-1 1-4 4 2 4h1l-1-3h2v-1l2-1zm-139 2-3 2 2 1h-1v1q3 1 4-1v2l2-1-1-3-2 1v-1zm135 3-1 4q1 1 2-1zm20 0v2l-2-1-2 1 4 2h5l-1-2zm-4 2-4 4 3 2 1-3q2-2 0-3Zm-144 1-2 2 4 1v-1zm141 4-3 2 2 2v-1h2zm-166 6v2l-2-1-2 1 4 2h7l1-1-1 2h3l2-2v-1l-2 1v-2l-3 1h-2l2-1zm182 0v2l-2-1-2 1 4 2q6 1 9-1v-1h-4l2-1zm-5 2-1 1 3 2h1zm-183 1-1 2 3 1zm2 0q-2 1 1 2h1zm17 0-2 2q2 1 0 2l3 1q3 1 3-1zm163 0-2 1-1 1 3 2 2-1zm-4 3-2 3 2 2v-1l3-2-1-2q-1 2-2 0Zm4 11v1h4zm-4 1q-2 1 1 2l3 1 7-1q2-1 1-2l-3 1h-6zm14 1-4 2v1h2l3-2zm-178 1v2l-3-1v2l-1-1-1 2q-2 1 1 2l1-2 2 1-1-1h5l-2-1 7-1zm180 0-3 3h1l3-2zm2 1-2 2 1 1v1l3-1zm-189 3-2 1v2l-1-1-2 2 2 3 5-4zm18 8v2l-1 1 2 1 2-1zm3 0q-2 1 1 2l1-1zm138 0-1 4h2v-2l6 1h-1v1q3 1 4-1v2l2-1-1-3-2 1v-2l-3 1q-5 1-6-1Zm-142 3-2 1-1 1 3 2v-1q2-2 0-3Zm156 0-3 3h2q1 2 2 0zm-159 2q-2 2 0 3l-1-1-1 4h1l2-2 1 1q1-4-2-5Zm21 4-1 2q-2 1 0 2h-2l1 3h-2l1 2 2-1 1 1-1-3 2-1-1-1 3-2-1-2q-1 2-2 0Zm119 2-3 3q1 2 6 1zm-97 2-1 2q1 2 2 1zm-2 1-1 2 2 3v3h1q1-7-2-8Zm-1 2v6h1q1-5-1-6Zm21 1-1 4-1-2h-1l1 4 2-1 1 1q1-5-1-6Zm18 1-1 8h1zm17 2-3 3 1 2 3-1v-1h-1z"/><path fill="#e39259" stroke="#e39259" d="m60.5 475 2.5 1.5-1.5.5q-2.5-1-1-2Zm40 9 2.5 1.5-2.5.5z"/><path fill="#eca27a" stroke="#eca27a" d="m129.5 212 .5 2.5h-1zm62 0 2.5 2.5-.5.5-2.5-2.5zm-62 4 .5 2.5h-1zm27 0 .5 3.5h-1zm-42 7 7.5.5-7.5.5zm43 0 2.5 2.5-.5.5-2.5-2.5zm-60 1 .5 2.5h-1zm13 4 2.5.5-2.5.5zm6 1q1.5 1-1 2l-1.5-.5zm3 2 1.5 2.5h-1zm47 0 3 1h5l3-1v1q-2.8 2.2-9 1l-2.5-1.5zm20 5q1 2 2 0l1.5 1.5-1.5-.5-1 1q-2.5-1-1-2Zm33 13 .5 6.5h-1zm-141 19 .5 2.5h-1zm-10 2 1.5 2.5-1.5.5zm9 4-.5 1.5-.5 1.5-.5-1.5zm52 1 3.5 3.5-.5.5-3.5-3.5zm-2 1 4.5 4.5-.5.5-4.5-4.5zm130 9 2.5 1.5-1.5.5q-2.5-1-1-2Zm9 0q1.5 1-1 2l-1.5-.5zm-160 1 .5 2.5h-1zm5 9 2.5 2.5-.5.5-2.5-2.5zm122 0 .5 5.5h-1zm13 1 .5 2.5h-1zm-60 2 4 1q.8-1.7 4-1v1l-6 1-2.5-1.5zm-3 1q2.5 1 1 2l-1.5-.5zm14 0 .5 1.5-1.5.5q-1.5-1 1-2Zm-79 3 2.5.5-2.5.5zm114 0 2.5 1.5-1.5.5q-2.5-1-1-2Zm-138 125 2.5.5-2.5.5zm36 0 2.5.5-2.5.5zm-46 1 2.5.5-2.5.5zm11 1 2.5 3.5v3h-1v-3l-2-3zm16 0 .5 5.5h-1zm15 0 .5.5-2 2-.5 1.5-.5-1.5zm3 0 .5.5-2 2-.5 1.5-.5-1.5z" opacity=".996"/><path fill="#eca27a" stroke="#eca27a" d="M92.5 430q3.3.8 2.5 5.5h-1v-3l-2-2zm22 0 .5 3.5h-1zm29 0 .5.5-4 4-.5 1.5-.5-1.5zm-67 1q2.9 1.6 3.5 5.5h-1l-3-5zm70 0 1.5.5-4 2-2.5 4.5.5-1.5 2.5-4.5zm8 1 1.5.5-5 4-.5 1.5-.5-1.5zm-80 1 2.5 3.5h-1l-2-3zm52 1 .5 2.5h-1zm-68 1 3.5 3.5-.5.5-3.5-3.5zm96 0 1.5.5-2 1-.5 1.5-.5-1.5zm12 0 1.5.5-5 4-.5 1.5-.5-1.5zm4 1q1.5 1-1 2l-4 3-.5-.5 3.5-3.5zm-114 1 4.5 5.5q-1 1.5-2-1l-3-4zm45 1 8.5.5-8.5.5zm18 0 8.5.5-8.5.5zm-28 1 3.5.5-3.5.5zm42 0 3.5.5-3.5.5zm16 0 2 1 1.5-.5-2.5 1.5q-2.5-1-1-2Zm29 0 1.5.5-5.5 4.5-.5-.5zm-93 1 2.5.5-2.5.5zm98 0q1.5 1-1 2l-1.5-.5zm-5 2 1.5.5-2 1-1.5 4.5-.5-2.5zm-135 2 3.5 3.5-.5.5-3.5-3.5zm153 0q1.5 1-1 2l-2.5-.5zm-160 1q6.4.1 8.5 4.5l-.5.5-3-3-5-1zm70 0 2.5.5-2.5.5zm20 0 4.5.5-4.5.5zm47 0 .5 3.5h-1zm-87 1 7.5.5-7.5.5zm104 0 1.5.5-6.5 5.5-.5-.5zm-91 2 2.5 2.5-.5.5-2.5-2.5zm94 0 5.5.5-5.5.5zm-146 1 .5 1.5q-1 2.5-2 1zm142 1-.5 1.5-1.5 3.5-.5-1.5zm-112 1 .5 3.5 2 2-.5.5-2.5-2.5zm90 0 2.5.5-2.5.5zm-23 2 2.5.5-2.5.5zm10 0 .5.5-2.5 2.5-.5-.5zm28 3 4.5 4.5-.5.5-4.5-4.5zm-162 2h7l3 1 7.5 5.5-1.5.5-6-5-3-1h-7zm40 0 3.5.5-3.5.5zm64 0 8.5.5-8.5.5zm78 0 7.5.5-7.5.5zm-115 1 5.5.5-5.5.5zm89 0 .5.5-2.5 2.5-.5-.5zm23 0 1.5.5-8 5-1.5 2.5.5-1.5 2.5-3.5z" opacity=".996"/><path fill="#eca27a" stroke="#eca27a" d="M20.5 461h7l7.5 4.5-1.5-.5-6-3h-7zm52 0 2.5 2.5-.5.5-2.5-2.5zm130 0q6.8-1.3 9.5 1.5l-1.5.5-1-1h-7zm-185 1 1.5.5-5.5 3.5-.5-.5 2.5-2.5zm182 0 1.5.5q-4.3 1.2-6.5 4.5l-.5-.5 3.5-3.5zm-102 2 2.5.5-2.5.5zm8 0 2.5.5-2.5.5zm33 0 6.5.5-6.5.5zm-46 2 .5.5-2.5 2.5-.5-.5zm20 0 2.5 2.5-.5.5-2.5-2.5zm-62 1 2.5 2.5-.5.5-2.5-2.5zm-13 2 .5 5.5h-1zm130 1 .5 1.5q-1 2.5-2 1zm-109 1 8.5.5-8.5.5zm105 0 1.5.5-2.5 1.5q-1.5-1 1-2Zm55 0 .5 3.5h-1zm-41 2 2.5.5-2.5.5zm-59 1 .5 2.5h-1zm78 1 4.5.5-4.5.5zm-4 1 2.5.5-2.5.5zm10 0 2.5.5-2.5.5zm-64 1 6.5.5-6.5.5zm68 0q4.6.9 6.5 4.5l-.5.5-3-3-3-1zm-178 1 3.5.5-7.5 2.5q-1.5-1 1-2zm48 0 4.5.5-4.5.5zm120 0 3.5.5-3.5.5zm-4 1 2.5.5-2.5.5zm10 0 2.5.5-2.5.5zm4 1 4.5 2.5-1.5.5-3.5-2.5zm-184 1 .5.5-2.5 2.5-1.5.5-.5 1.5-1.5-.5zm6 0 3.5.5-5.5 1.5v-1zm60 0 2.5 3.5h-1l-2-3zm14 0 1.5 1.5-2.5 2.5.5-1.5-1-1zm-78 2q1.5 1-1 2l-5 4-.5-.5 4.5-4.5zm162 0 .5.5-4.5 4.5-.5-.5zm-54 3 2.5 2.5-.5.5-2.5-2.5zm-118 1 1 1 1.5-.5-1.5 1.5q-2.5-1-1-2Zm52 0 2.5 2.5-.5.5-2.5-2.5zm-25 2q1.5 1-1 2l-3 2-.5-.5 2.5-2.5zm3 1 .5.5-2.5 2.5-3.5 2.5-1.5 4.5-.5-2.5 4.5-5.5zm143 0 4.5 1.5-1.5.5-3-1zm23 0 .5.5-2.5 2.5-.5-.5zm-136 1 8.5.5-8.5.5zm19 0 .5 2.5h-1zm93 2q7.5.5 10.5 5.5l-.5.5-3-3-4-2h-3zm-150 1-.5 1.5-1 5 .5 1.5q-2.2-.7-1.5-4.5zm21 4-.5 1.5-2.5 4.5-.5-1.5zm111 0 2.5.5-2.5.5zm6 2 4.5 4.5-.5.5-4.5-4.5zm-6 1h2l5.5 3.5-1.5-.5-6-2zm-89 1 2.5.5-2.5.5zm67 0 2.5.5-2.5.5zm-5 1 3.5.5-3.5.5zm-65 1 .5 1.5-1 1-.5 5.5-.5-5.5zm3 0 .5 1.5-1 1-.5 5.5-.5-5.5zm12 0 3.5.5-3.5.5zm43 0 3.5.5-3.5.5zm-81 1 1 3 1.5-.5.5-2.5.5 2.5-2.5 1.5q-2.5-1-1-4Zm47 0 6.5.5-6.5.5zm21 0 6.5.5-6.5.5zm30 0 4.5 3.5-.5.5-2-2q-3.8-.7-2-2Zm-8 1h4l5.5 3.5-1.5-.5-4-2h-4zm-18 1q4.1 1.9 4.5 7.5h-1l-1-4-3-3zm-31 1 .5 4.5h-1zm3 0 .5 4.5h-1zm33 1 2.5 4.5h-1l-2-4zm10 3 2.5.5-2.5.5zm-3 1 .5.5-2.5 2.5-.5-.5zm-98 1 1 1 1.5-.5-1.5 1.5q-2.5-1-1-2Zm30 0 2.5.5-2.5.5zm-21 2 .5.5-2 2 1 1-1.5 1.5.5-1.5-1-1zm40 1 2.5.5-2.5.5zm13 1 5.5.5-5.5.5zm19 0 5.5.5-5.5.5zm38 2 1.5 2.5h-1zm-14 1q2.3.8 1.5 4.5h-1v-3zm-112 1q2.3 1.8 1.5 6.5l-1.5 2.5-.5-1.5q2-1 1-5-1.7-.7-.5-2.5Zm28 1q2.4 2.1 1.5 7.5l-1.5 2.5-.5-1.5q2.3-1.2 1-6-1.7-.7-.5-2.5Zm121 1 .5 3.5h-1zm-138 1 1.5.5q.9 5.4-1.5 7.5l-.5-1.5q2-1 1-5zm91 1 .5 1.5q-1 2.5-2 1zm11 1 .5 2.5q-1 2.5-2 1zm14 1 .5 1.5-1.5 2.5-.5-1.5zm-94 11 1.5 2.5h-1l-.5-1.5-1.5.5z" opacity=".996"/><path fill="#e58ab6" stroke="#e58ab6" d="m191.5 317 6.5.5v5l-1 1v5l-1 3-5.5 6.5-7 2-2.5-3.5-1-5 2-6 4.5-5.5z"/><path fill="#fec0b0" stroke="#fec0b0" d="m100.5 183 1 1h4l1 1h5l1 1 8 1 6 5 14 6q4-1 5 1h11l7.5-2.5.5-1.5 6 2h5l1 1h4l6 2h5l1 1h4l6 2h5l1 1h4l6 2 10 1 1.5 1.5-4 8-4 12v3l-1 1q1 4-1 5v11l-1 1v6l1 1v10l1 1v5l1 1 1 8 3 9 7.5 13.5 1.5-.5-1-1v-10l3-7 6.5-7.5 9-5 8-1 1-1h5l8 3 2.5 2.5 3 6v10q-3.1 8.4-9.5 13.5l-11 7q-3.2-.7-4 1h-10l-5-3h-2q-6.5 10.5-16 18l-20 12-15 5-13 2-3 3h-6l-5.5 4.5-1.5 7.5-4.5-.5-1-7-2.5-3.5-2.5-1.5-.5-2.5h-4l-1-1-8-1-15-6-13-9-8.5-8.5q-7.4-8.1-12-19L80.5 287h-4q-4.8-1.7-7.5-5.5l-3-6v-13l2.5-3.5q2.2-1.8 7-1l2.5 3.5v9l1.5 3.5 2.5-19.5 3-8v-3l1-1v-3l1-1v-3l1-1v-3l1-1v-3l1-1v-3l1-1v-3l1-1v-3l1-1v-3l1-1v-3l1-1v-3l1-1v-3l1-1v-3l1-1v-3l1-1zm65.5 20-3 1-5 5q-2 2-1 7l-1 1 1 7 5 3h12q1 2 6 1l1 1h3l9 3 5 3h2v-9l-3-7-3-4q-5-6-12-9l-6-2h-4l-1-1zm-49 2-1 1-6 1-3 2-7 7-3 9 1 2h3l4-2h4l1-1h17l2-2 1-3v-6l-1-3-5-5zm-6 23-6 2-4 4 1 1 7-5q8-1 12 4v-1l-4-4zm56 3-8 3-3 3h1l9-4h13l7 3 6 5h1q-4-5-9-8l-6-2zm-59 1-5 3-6 8-2 6v3l-1 1v11l4 11 7 6 2 1q1 3-1 5l1 6 3 5 9 5q6 1 10-1 1-1-1-2l-3 1h-3l-6-2q-5-3-7-8v-7l2-4 7-5q6-1 9 1l5 6 4 8h1v-3l-4-8q-3-6-11-6l3-3 3-8v-10l-1-3q-2-1 0-2l-4-8-7-7zm59 3q-1 2-4 1l-7 4-7 8-3 6q1 3-1 5l1 10 3 7 9 8 11 4 11-1 8-4 7-8 3-8v-11l-4-9q-5-8-13-11l-3-1zm-96 33q-3 1-3 5h2v-2l3-2 3 5 2 7h1v-3l-2-6-3-4zm187 17-4 2q-6 3-8 10l1 5q1 2 2 1l-1-3 1-6 6-6 6-2 7 1 1 1h1l-3-3zm-71 13-4 2 1 1 2-1 4 1-32 23 5 7 8 6 7 3h8l5-2 5-6 1-3v-5l1-1-1-13-3-8v-2l4 1v-1l-3-2zm-81.5 128 16.5.5-16.5.5zm-14 1 2.5.5-2.5.5zm42 0 3.5.5-3.5.5zm-23 11h8l1 1h13l1 1h7l1 1h4l1 1 8 1 20 8q8 4.5 13.5 11.5l2 4 1 7-3 8-8.5 8.5-13 7-12 4h-3l-1 1h-4l-6 2h-6l-1 1-26 1-1-1h-11l-1-1h-7l-1-1-9-1-4-2h-3l-6-2-14-7-9.5-8.5-3-6v-9q2.9-7.1 8.5-11.5l9-6 15-6h3l9-3h5l1-1h6l1-1h14zm-4.5 4-3 3q1 3 7 2 2 0 1-3t-5-2Zm21 3-1 1q-5-1-6 1l-4 4v4l9 4h8l5-2 3-3v-3l-3-4-6-1-1-1zm-40 1-6 2-4 4v3l3 2 8 3h5l8-3 2-3-1-3-4-4q-4 1-4-1zm-17 1-2 1q-3 1-2 5 1 3 6 2 3-1 2-5zm90 4-5 2-4 5 1 2 4 3 3 1h12l6-4-1-5-6-4zm-50 1-2 1-2 3 1 3q1 2 5 1 3-1 2-5t-4-3Zm35 1q-4 1-3 7 1 2 6 1 2-1 1-5 0-3-4-3Zm-84 5q-2 2-5 1l-5 3-2 3 1 3 3 2 6 2h8l5-2 3-3v-3l-6-5zm58 3-2 1-2 3q1 3 8 2v-3zm-37 2-2 1-2 3 1 3q1 2 5 1 3-1 2-5-1-3-4-3Zm16 1-5 2q-4 1-3 7l7 4h12l4-2q3-1 2-6l-2-3-5-2zm41 0-6 2-4 4v3l4 3 6 2h6l6-2 3-3v-3l-5-5q-4 1-4-1zm39 2-2 1-1 5q1 3 5 2 3-1 2-6zm-14 1-3 2q-1 3 2 4 4 1 5-1l-1-3zm-43 5q-4 0-3 5 1 3 7 2 2-1 1-5-1-3-5-2Zm-62 2-2 1-1 3q1 2 6 1l1-2q-1-3-4-3Zm-8 1-2 1q-3 1-2 6 1 2 6 1l2-3-1-2zm111 1-3 1-5 5 1 4 7 3h11l3-1 4-4-1-3-2-3-5-2zm-85 2-9 3-3 4 1 3 3 2 6 2h8l5-2 3-3v-3l-6-5zm21 3-2 3 4 2h3q2 0 1-3t-6-2Zm19 3-4 2q-4 1-3 7l3 2 5 2h10l5-2 2-3v-3l-2-3-5-2zm30 0-2 1-2 3 1 3 5 1q3-1 2-5 0-4-4-3Zm-49 4-2 1q-3 0-3 5 1 3 6 2 3-1 2-5zm44 5-2 1-1 4q1 2 5 1 2-1 1-3zM20.5 451l.5.5-5.5 5.5-.5-.5z" opacity=".996"/><path fill="#fec0b0" stroke="#fec0b0" d="M118.5 463q3-.5 3.5 1.5-1.2 2.7-2.5.5l-2.5-.5zm45 6 1.5.5-.5 1.5-2.5-.5zm-104 7 .5 1.5-1.5.5q-1.5-1 1-2Zm39 6 2.5.5-.5 1.5-2.5-.5zm43 13 1.5.5-.5 2.5-2.5-1.5zm-111 14h5l4.5 3.5-1.5 2.5-4.5 3.5-2 4v8l1 2-1.5.5-7.5-6.5-1-3v-6q1.7-4.8 5.5-7.5zm137 1q4.8-1.3 6 1l1.5-.5q-2.5 1.5 1 3l4 9v8l-.5 1.5 1.5-.5q1.8-2.2 1-7l-.5-1.5 10-4 2.5 1.5v7l1.5 1.5 10.5 3.5v2l-3.5 5.5q-3.2 2.3-10 1l-7.5-6.5-1.5-2.5q-1.6 5.4-6 8l-2 1h-9l-3-2q-2.5 4.5-11 3l-6-5h-6q-1.5-4.5-9-3l-6.5-5.5-1-6 3.5-5.5 5-1 2 1 4-4h5l4 3 6-5h5l4 3zm-5.5 5-4 6v11l5 6h1l-4-6q1-4-1-4l1-8 2-3zm-15 2-3 5v9l3 4h1l-2-3q1-5-1-5 2-2 1-6l1-1zm-13 1-1 11 3 4h1l-3-7 1-7z" opacity=".996"/><path fill="#fec0b0" stroke="#fec0b0" d="M42.5 512h6l4 3 1-1h8l4 3 3-3 1 1 5.5.5 2 4 2 10 1.5 1.5h7l4.5 1.5-4.5 6.5-9 5h-8l-3.5-1.5v-2l-5-7v-10q1.7-.7 1-4h-1l-2 4v9l4.5 8.5 1.5.5-.5 1.5-5 2h-5l-5-2-4-4-1 1h-7l-4.5-4.5v-3q2-1 0-2v-8l3.5-5.5 4.5-2.5q-2.2-1.2.5-2.5Zm6.5 4-5 6-1 3v8l1 3 3 2-2-4v-10l4-6zm29.5 0 2.5.5-2.5.5zm18 2 4.5.5-4.5.5z" opacity=".996"/><path fill="#f0efee" stroke="#f0efee" d="M219.5 0h13l1 1h4l1 1 6 1 13 7 9.5 8.5 7 10 4 10 1 8 1 1v13q-2.2 1.2-1 6l1.5-.5 15-5h17l1 1 10 2 8 4q8.4 5.1 14.5 12.5l5 7 5 12 1 8 1 1v13l-1 1-1 8-4 10-7 10-5.5 5.5-12 8h-2l-6 3-8 1-1 1h-13q-1.2-2.2-6-1l-9-3-3-2-1.5 1.5-1 7-2 4v3l-1 1v3l-1 1v3l-1 1v3l-1 1v3l-3 8v3l-1 1-1.5 7.5-7-1-1-1h-4l-1-1-10-1-1-1h-4l-1-1h-7l-1-1h-4l-1-1h-4l-6-2h-5l-1-1h-4l-6-2h-5l-1-1h-4l-6-2h-5l-1-1-9-1-6-3-8.5-7.5-7-12v-2l-3-6-1-6 1.5.5 9 1 6 2h5l6 2h5l6 2h5l6 2 11 1 6 2h5l6 2h5l6 2h5l6 2h5l6 2h5l6 2 9 1 .5-1.5-1.5-1.5h-5l-6-2h-5l-6-2h-5l-6-2h-5l-6-2h-5l-1-1-10-1-6-2-11-1-6-2h-5l-1-1-10-1-1-1-10-1-1-1-10-1-1-1h-4l-4.5-1.5v-13q1.8-.7 1-4l4-9 4.5-4.5 6-3 9.5-.5-7.5-8.5-11-5h-11l-6 2-7 4-10.5 10.5-5.5 11.5-.5-1.5 2-5v-4L95.5 121q-8.4-5.1-14.5-12.5l-5-7-5-12-1-9-1-1v-10l1-1v-6l7-17L91.5 30l11-6 9-3q4.7 1.3 6-1h12l1 1 8 1 12 5q9 5.5 15.5 13.5l5.5 8.5 1.5-3.5 1-8 5-11q5.1-8.4 12.5-14.5l11-7h2l6-3 8-1zm-.5 23-11 4-7 5-6 7-4 8q1 3-1 5v10q2 0 1 4l6 12 11 8 6 2h5l1 1 3-1h5l6-3 6-6 3-6q-1-5 1-6-2-2-1-6l-2-4q-3-6-9-8h-6l-3 1-6 7q-1 7 3 9h1l-2-5 1-5 3-3 6-2 6 2 4 5 2 5v8l-4 8-4 4-8 3h-9l-10-4-8-7-5-11V49l5-10 8-8 8-4 7-1 1-1 11 1 11 5 10 12 4 11v12l-1 1v3l-2 6-3 4v2h2l4-7 2-6v-6l1-1-2-14-7-12-4-5-10-6-6-1-1-1zM114 36q-1 2-4 1l-11 6-7 7-6 12v15q2 0 1 4l5 9 10 8 7 3q4-1 6 1l3-1h5l8-4 4-4 4-9v-9l-3-6-4-5-5-2h-6l-4 2-3 3-2 5v3l3 4h2l-2-3v-6l5-5q3 1 4-1l8 3 4 7q-1 3 1 5l-3 11-6 6-7 3h-9q-1-2-4-1l-9-5-8-9v-2l-2-3v-4l-1-1v-9q2-1 1-4l6-11 8-7 6-3 7-1 1-1h7q0 2 5 1l9 4 4 3 7 9 4 10q-1 4 1 6l-1 11-2 6-4 7h3l4-8 1-7 1-1V67l-1-1-1-6-4-8q-7-10-19-15-4 1-4-1zm190 44-1 1h-3l-6 2-9 6-8 10-3 8v14l5 12 12 10 9 3h8l9-3 7-7 3-7v-10l-3-6-3-4-7-3h-3l-5 2-5 5q1 3-1 4l2 6q2 3 3 0l-2-3q-1-5 1-7l5-4q6-1 9 1l5 6 2 6-1 8-3 6-4 4-7 3h-12l-10-5-8-8-4-12v-8q2-1 1-4l5-10 10-9 10-4h13q0 2 4 1l12 7 6 8 5 15-1 13-5 11q-2 1 1 2l2-2 3-6 1-6 1-1v-14l-1-1-1-6-5-9q-5-8-14-12h-2l-3-2h-4l-1-1z" opacity=".992"/><path fill="#f0efee" stroke="#f0efee" d="m121.5 118 .5.5-2.5 2.5-.5-.5zm-17 26 .5 2.5h-1zm-1 4 .5 9.5 1 1v5l2 6q4 10.5 12 17l-1.5-.5h-5l-6-2h-5l-4-2-1.5.5v-4l2-5v-4l1-1v-3l1-1v-3l1-1zm4 84h8l7.5 6.5 3 7h-1l-4.5-5.5-6-1-5.5 3.5-5 10v13q1.9 6.1 6.5 9.5l1.5.5-4.5 5.5-4-1-5.5-5.5-4-12v-9l1-1 1-7 3-6 6.5-6.5zm59 3h10q.8 1.8 4 1 8.8 3.3 13.5 10.5l4 10v10l-3 8-6.5 7.5-10 5-9 1-1-1h-4l-5-2-9.5-8.5-4-8-1-9 4-12 5.5-6.5 6-4zm4.5 9-8 4-5 6-2 5v8l3 7q4 5 11 7h11l4-2 6-6 3-9-3-11-5-6-6-3zm19.5 56 .5 1.5-5 11-10.5 11.5-9 3-6.5-4.5zm-18 50 1.5.5-.5 12.5-14.5-.5v-4l3.5-5.5 4-2q4.8 1.3 6-1Zm-24 1 3.5 2.5 2 9-4.5.5-.5-6.5-1-1zm-12 13h12l1 1h8l1.5-.5v6l-1 1v12l-1 1v12l-1 1v13l-1 1v12q-1.7.8-1 4l1.5.5.5-7.5 1-1v-13l1-1v-12l1-1v-13l1-1 .5-13.5q4 1 5-1h21l3.5 3.5v6l1 1v9l1 1v9l1 1v8l1 1v9l1 1v9l1 1v9l1 1 .5 6.5 15 8 10.5 9.5 3 4 3 7q-.7 3.3 1 4v9l-1 1-1 7-4 7-10.5 10.5-12 8-8 4-12 4-.5-3.5-3-6-3-3 8.5-2.5 11-5 12-8 6.5-6.5 3-4 3-8v-7l-4-10-10.5-10.5-20-11-15-5-7-1-1-1h-4l-6-2h-6l-1-1h-7l-1-1-31-1-1 1h-13l-1 1h-8l-1 1-11 1-1 1-8 1-4 2h-3l-9 3-15 7-10 7-5.5 5.5-3 4-3 7v11l4 8L23.5 497l8 5 13 6 12 4h3l4 2 4.5.5-3.5 2.5-3-3-5-1-5 2-1-2-6-2-4 2-5-4h-5l-6 4-7-5L6 496.5l-4-7-2-6v-13q4.3-13.2 14.5-20.5l19-11h2l14-6 7-1 4-2 9-1 1-1h5l1-1 14-1 1-1h8l2.5-2.5 4-8 4-5 25.5-42.5.5 2.5-3 9v4l-2 5v4l-3 9v4l-1 1-1 8-1 1-2 10 1.5.5 13.5-58.5-2-1zm47.5 1-3 8-1 9-2 5v4l-2 5-1 9-2 5v4l-2 5v4l-1 1-1 7h2l1-8 1-1v-4l2-5v-4l1-1v-4l2-5v-4l2-5 1-9 1-1 1-8 2-6z" opacity=".992"/><path fill="#f0efee" stroke="#f0efee" d="m75.5 516 3 1h7l1 1h9l1 1 29.5.5q-2.6 1.4-2 6l1 3 4 4-31.5.5-1-1-16-1-1.5-1.5-2-10-2-3zm52 18 .5 14.5-1.5.5-.5-7.5 1-1zm60 6 3.5 4.5 2 5q-1 1.5-2-1l-4-8zm-38 2 1.5 3.5q-1 2.5-2 1zm20 2 .5 1.5-1.5.5q-1.5-1 1-2Zm0 4 1.5.5-.5 1.5q-2.5-1-1-2Zm-19 2 1.5 2.5q-1 2.5-2 1zm21 1 .5 2.5q-1 1.5-2-1zm0 4 1.5.5-.5 1.5q-2.5-1-1-2Zm-20 2 1.5 2.5q-1 2.5-2 1zm21 2 1.5.5-.5 1.5q-2.5-1-1-2Zm25 0 3.5 4.5 3 7q-1 1.5-2-1l-5-10zm-71 1 .5 13.5-1.5.5-.5-7.5 1-1zm47 2 1.5.5-.5 1.5q-2.5-1-1-2Zm-21 2 1.5 2.5q-1 2.5-2 1zm22 2 1.5.5-.5 1.5q-2.5-1-1-2Zm1 3 1.5.5-.5 1.5q-2.5-1-1-2Zm-22 2 1.5 2.5q-1 2.5-2 1zm23 2 1.5.5-.5 1.5q-2.5-1-1-2Zm1 3 1.5.5-.5 1.5q-2.5-1-1-2Zm-23 2 1.5 2.5q-1 2.5-2 1zm53 0 4.5 6.5 2 5q-1 1.5-2-1l-5-10zm-29 2 1.5.5-.5 1.5q-2.5-1-1-2Zm1 3 1.5.5-.5 1.5q-2.5-1-1-2Zm-54 2 .5 9.5-1 2 1 3-1.5.5-.5-7.5 1-1zm30 0q2 .5 1.5 3.5l-1.5.5zm25 2 1.5.5-.5 1.5q-2.5-1-1-2Zm1 3 1.5.5-.5 1.5q-2.5-1-1-2Zm-25 2q2.3.8 1.5 4.5h-1q-1.7-1.7-.5-4.5Zm26 2 1.5.5-.5 1.5q-2.5-1-1-2Zm1 3 1.5.5-.5 1.5q-2.5-1-1-2Zm-26 2 1.5 3.5-1.5.5zm61 0 3.5 4.5 3 7q-1 1.5-2-1l-5-10zm-34 2 1.5.5-.5 1.5q-2.5-1-1-2Zm1 3 1.5.5-.5 1.5q-2.5-1-1-2Zm-27 2 1.5 2.5q-1 2.5-2 1zm28 2 1.5.5-.5 1.5q-2.5-1-1-2Zm-62 3 1 9 35.5.5-37.5.5-.5-2.5 1-1zm63 0 1.5.5-.5 1.5q-2.5-1-1-2Zm-28 2 1.5 2.5q-1 2.5-2 1zm29 2 1.5.5-.5 1.5q-2.5-1-1-2Zm1 3 1.5.5.5 1.5 39.5.5-40.5.5zm-89 9 7.5.5-3.5 5.5-.5-1.5 2-2-.5-.5-15.5-.5 9.5-.5zm64 0 23.5.5q-2.2 1.2-1 6l60 1-59.5.5-1.5-1.5-.5-5.5h-21zm80 0h10l1 1 9.5.5-19 1 2 3h-1l-3-5zm-173 1q6.8-1.3 9.5 1.5l-16.5.5v-1h6zm205 0h7l1 1 5.5.5-15.5.5v-1zm-224 1q4.8-.7 6.5 1.5l-11.5.5v-1q4 1 5-1Zm113 0 .5 4.5-1.5 1.5h-59v-1l59.5-.5zm132 0h5l4.5 1.5-10.5.5q-1.5-1 1-2Zm-258 1q3-.5 3.5 1.5l-6.5.5v-1zm272 0h3l3.5 1.5-6.5.5zm-280 1 2.5 1.5-5 1 .5 1.5-4.5-1.5 2.5-1.5q1 2 2 0zm291 0 4 2 1.5-.5-.5 1.5-3 1v-2l-3.5-.5zm-290 3 5.5.5-.5 1.5q-4.9.6-5-2Zm285 0 5.5.5-4.5 1.5q-2.5-1-1-2Zm-276 1 8.5.5-.5 1.5h-5l-3-1zm264 0 8.5.5-4.5 1.5h-4zm-250 1 12.5.5q-1.5 3-7.5 1.5-1-2-5-1zm232 0 12.5.5-4.5.5-1 1h-5l-2.5-1.5zm-213 1 22.5.5-4.5.5-1 1h-8l-1-1h-8zm184 0 21.5.5-8.5.5-1 1h-9l-3-1zm-149 1 34.5.5-34.5.5zm102 0 34.5.5-34.5.5z" opacity=".992"/><path fill="#fe9c9d" stroke="#fe9c9d" d="m275.5 273 2.5 2.5-.5.5-2.5-2.5zm-208 9 1.5.5-.5 1.5q-2.5-1-1-2Zm207 20 1.5.5-2 1 .5 1.5-1-1-1.5.5zm-177 21 2 3 1-1 4.5 4.5q-1 2.5-2 1l1-1-3.5-3.5q-1.2 2.3-2.5-.5zm-6 210-.5 1.5-.5 1.5-.5-1.5zm96 4 2.5 2.5-.5.5-2.5-2.5z" opacity=".035"/><path fill="#fce896" stroke="#fce896" d="m227.5 493-.5 1.5-.5 1.5-.5-1.5zm-14 14 1 1 1.5-.5-1.5 1.5q-2.5-1-1-2Z" opacity=".016"/><path fill="#e2cbcb" stroke="#e2cbcb" d="m262.5 13 2.5 2.5-.5.5-2.5-2.5zm-101 20 3.5 3.5-.5.5-3.5-3.5zm193 58 1.5 2.5h-1zm-4 52 1.5.5-.5 1.5q-2.5-1-1-2Zm-281 113 1 1 4.5.5-4.5.5-1 1zm-4 8 .5 9.5h-1zm191 6 4.5 1.5-3.5.5q-2.5-1-1-2Zm14 0 1.5.5-4.5 1.5v-1zm8 6q2.5 1 1 2l-1-1-1.5.5zm2 8 .5 5.5h-1zm-207 1 2.5 1.5-2.5 1.5zm209 1 .5 2.5h-1zm-205 1 3.5.5-3.5.5zm5 6 .5 1.5q-1 2.5-2 1zm1 3 .5 1.5-1.5 2.5-.5-1.5zm193 3q2.5 1 1 2l-1-1-1.5.5zm-191 2 .5 1.5-1.5 2.5-.5-1.5zm0 5 1 1 1.5-.5-1 2h2q-1.5 3-3 0zm184 0q2.5 1 1 2l-1-1-1.5.5zm-29 5q2.5 1 1 2l-1-1-1.5.5zm-4 3 .5.5-2.5 2.5-.5-.5zm11 0 7.5.5-7.5.5zm2 2 3.5.5-3.5.5zm-154 3 2.5 2.5-1.5 1.5.5-1.5-1.5-1.5-1.5.5zm135 2 .5.5-3.5 3.5-.5-.5zm-5 5v3l-1-1-1.5.5zm-118 5 2.5 2.5-1.5 1.5.5-1.5-2-2zm22 13 1.5.5-3.5 1.5v-1zm6 2 2.5.5-3.5 1.5q-1.5-1 1-2Zm4 1 3.5.5-3.5.5zm39 0 2.5.5-2.5.5zm-33 1 2.5.5-2.5.5zm-25 39 .5 1.5q-1 2.5-2 1zm-16 27-.5 1.5-.5 1.5-.5-1.5zm90 109 .5 3.5h-1zm-171 5 1 1 1.5-.5-1.5 1.5q-2.5-1-1-2Zm182 7 1.5 2.5-2.5 2.5-.5-.5 1-3zm-173 1q1 2 2 0l3.5 3.5-1.5 1.5-4.5-4.5zm57 0q2.5 1 1 2l-1-1-1.5.5zm-3 3 1 1 1.5-.5-3.5 3.5-1.5-1.5zm77 0 2.5 1.5-2.5 1.5zm-124 1q5.3-1.2 6.5 1.5l-1.5-.5h-5zm154 1 6.5.5-6.5.5zm-40 1q5.3-1.2 6.5 1.5l-1.5-.5h-5zm-81 2 4.5.5-4.5.5zm82 0 2.5.5-2.5.5zm47 17 2.5 3.5q-1 1.5-2-1zm2 7 1.5 2.5h-1zm9 14 2.5 3.5q-1 1.5-2-1zm2 7 2 3 1.5-.5q-1.5 3-3 0zm-31 11-.5 1.5-.5 1.5-.5-1.5zm39 1 2.5 3.5q-1 1.5-2-1zm-37 6-.5 1.5-.5 1.5-.5-1.5zm40 3 2 3 1.5-.5q-1.5 3-3 0zm-170 29 7.5.5-7.5.5zm38 0 24.5.5-24.5.5zm144 0 18.5.5-18.5.5zm20 0 3.5.5-3.5.5zm35 0 6.5.5-6.5.5z" opacity=".024"/><path fill="#5d544f" stroke="#5d544f" d="m77.5 248 .5 2.5h-1z" opacity=".067"/><path fill="#4e3d2f" stroke="#4e3d2f" d="m82.5 232 .5 2.5h-1zm-1 5 .5 2.5h-1zm-1 5 .5 2.5h-1zm-1 5 .5 3.5h-1zm-1 8 .5 4.5h-1zm41 366 3.5.5-3.5.5zm112 0 2.5.5-2.5.5zm4 1 4.5 2.5-1.5-.5-3-1z" opacity=".482"/><path fill="#9e675e" stroke="#9e675e" d="m121.5 119 .5.5-2.5 2.5-.5-.5zm26 79 7.5.5-7.5.5zm-29 7 4.5.5-4.5.5zm-7 18 2.5.5-2.5.5zm11 0 3.5.5-3.5.5zm41 3 6.5.5-6.5.5zm-56 3q9.8-1.7 12.5 3.5l-.5.5-2-2q-3.2-2.3-10-1l-2 1v-1zm-4 2 .5 1.5-2.5 1.5-.5-.5zm66 0 5.5.5-5.5.5zm-5 1 3.5.5-4.5 1.5q-1.5-1 1-2Zm12 0q3.8-.7 4.5 1.5l-1.5-.5q-4 .7-3-1Zm-15 1q1.5 1-1 2l-3 1v-1zm21 0 9.5 6.5-.5 1.5q-2.2-4.8-8-6-2.5-1-1-2Zm38 6 .5 2.5h-1zm-93 19 .5 2.5h-1zm-49 2 .5 7.5h-1zm78 1 .5 2.5h-1zm-86 7 3.5.5q-4.2.2-5.5 3.5l.5-1.5zm5 2 3.5 9.5-1.5.5-.5-4.5-2-4zm42 4 2.5.5-2.5.5zm-10 9q2 .5 1.5 3.5h-1zm151 2h7l3.5 1.5-2.5.5-1-1h-7l-3 2-.5-1.5zm-10 9-.5 1.5-.5 4.5-.5-4.5zm-64 5 3.5.5-3.5.5zm10 0 2.5.5-2.5.5zm-73 3 3.5.5-3.5.5zm60 35 1.5 2.5h-1zm-75 105 1.5.5-2.5 1.5q-1.5-1 1-2Zm3 3q1.5 1-1 2l-2.5-.5zm-53 31 1.5 2.5h-1zm41 5 .5 1.5-1.5.5q-1.5-1 1-2Zm62 37 .5 2.5-1 1v8l1 2h-1q-2.3-3.2-1-10zm-25 1-.5 1.5q-1.4 7.4 2 10-1 1.5-2-1-2.2-2.8-1-9zm11 0 .5 2.5-1 1v7l2 5h-1l-2-5v-7zm-111 1-.5 1.5-1 7 1 2h-1q-1.7-1.8-1-6zm11 0 .5 1.5-1.5 3.5-.5-2.5zm17 1-.5 1.5-1 3v5q1.8.8 1 4h-1l-1-9zm118 0 .5 8.5h-1zm-137 5 1.5 8.5h-1q.8-3.2-1-4zm117 7 2.5 4.5q-1 1.5-2-1zm-115 3 1.5.5-.5 1.5q-2.5-1-1-2Zm17 0 2.5 2.5-.5.5-1.5-.5z" opacity=".996"/><path fill="#ab5243" stroke="#ab5243" d="m116.5 273 8.5.5-.5 1.5-1-1h-6l-5 3-.5-.5 2.5-2.5zm12 2 3.5 4.5-.5.5-3.5-3.5zm-17 3q1.5 1-1 2l-1.5-.5zm-3 5-.5 1.5-.5 2.5-.5-2.5zm-1 5 1.5 2.5-1.5.5zm4 8 1.5 2.5q-1 1.5-2-1zm10 5 3.5.5-3.5.5zm-9 126 1.5 7.5h-1q-2.1-2.6-.5-7.5Zm-19 1 3.5 6.5-1.5.5-.5-3.5-2-2zm34 1 .5 1.5-2 2-.5 3.5-.5-3.5zm19 0 .5 1.5-6 5-.5 2.5-.5-2.5 3.5-4.5zm-74 2h2l3.5 3.5 1 3h-1l-2.5-4.5-3-1zm83 2 2.5.5q-4.7.3-6 4l-.5 2.5-.5-2.5 2.5-3.5zm-99 2 5.5 5.5v2h-1q-.6-3.9-3.5-5.5l-1.5-.5zm111 1 1.5.5-5 4-.5 3.5-.5-3.5zm12 4 2.5.5q-4.7.3-6 4l-1.5 3.5-.5-1.5 3.5-5.5zm-75 3 .5 2.5h-1zm5 0 1.5 2.5h-1zm-70 1h2l5.5 5.5-1.5.5-3-4-3-1zm155 2 3.5.5-6.5 1.5-4.5 4.5-1.5 3.5-.5-1.5 4.5-6.5zm-172 13 2.5.5-3.5 1.5h-3l-6 4-.5-.5 2.5-2.5zm182 0 7.5 1.5-3.5.5q-.7-1.7-4-1l-6 2-4.5 3.5-.5 1.5-1.5-.5 4.5-4.5zm-178 1 5 1 5.5 4.5-1.5.5q-2.2-4.8-9-5zm91 2-.5 1.5-.5 2.5-.5-2.5zm3 0 2.5 3.5q-.5 2-3.5 1.5v-1l2.5-.5-2-3zm42 6-.5 1.5 1 2q-1 1.5-2-1zm2 0 2.5 1.5-1.5-.5q-2.4-.1-1-1Zm-103 9q1.5 1-1 2l-2.5-.5zm132 0h10l8.5 4.5-1.5.5-2-2-5-2h-10l-3 1v-1zm-163 2 6.5.5q-13.3.2-18.5 8.5l-.5-1.5 6.5-5.5zm68 2q3.8-.7 4.5 1.5l-1.5-.5q-4 .7-3-1Zm-1 2 2.5 1.5-1.5.5q-2.5-1-1-2Zm-55 7q1.5 1-1 2l-2.5 1.5-3.5 6.5-.5-1.5q1.7-4.8 5.5-7.5zm138 1h8l6 3 2.5 2.5-1.5-.5-7-4h-8zm-40 3q3-.5 3.5 1.5l-1.5-.5-2.5.5 1.5 2.5 2-1q1.5 1-1 2l-3.5-2.5zm-82 5 .5 1.5q-3.6 1.4-3.5 6.5l-1.5-.5 2-5zm104 0h7l6 3 2.5 2.5-1.5.5-7-5h-7zm-84 4 .5 1.5-2.5 7.5-.5-3.5zm65 1 5 1 6.5 4.5-.5 1.5-2-3-4-2-5.5-.5zm-17 2q4 2 4.5 7.5h-1v-2l-2.5-3.5-1.5-.5zm-30 1 .5 4.5-1.5.5.5-1.5zm18 1 .5 7.5h-1zm61 4 2.5 2.5-.5.5-2.5-2.5z" opacity=".996"/><path fill="#f9f6f3" stroke="#f9f6f3" d="m208.5 0 5.5 1.5-2.5.5-3-1v1l1.5.5-1.5.5-3-1v1l1.5.5-3.5 1.5-2-1v2l-2-1 .5 1.5-1.5 1.5-2 1-2-1 .5 1.5-2.5 2.5-2-1 .5 1.5-6.5 6.5-3 1-.5-.5 6.5-6.5q1.3 2.3 2.5-.5-2.2-1.2.5-2.5 7.5-6.5 18-10Zm7 0 3.5.5-3.5.5zm18 0 3.5.5-3.5.5zm8 0 5.5 1.5-4.5 1.5V2l1.5-.5-2.5-.5-3 1V1zm7 2 4.5 2.5-2 1 3 2-1.5-.5-7.5-3.5 1.5-.5 2 1zm8 5 2.5 1.5-1.5-.5-1.5.5.5 1.5q-3-1.5 0-3Zm2 3q1.5 3.5 3 1l5.5 4.5-.5 1.5q3-.5 3.5 1.5l-1.5-.5q-3 .5-3.5-1.5l1-1-3.5-3.5-2 1-2.5-2.5zm-138 7q6.1-1.1 8.5 1.5-2.1 2.4-7.5 1.5v-1l5.5-.5-6.5-.5zm12 1 2.5 1.5q-.7 2.3-4.5 1.5v-1l3.5-.5-2-1zm4 1 2.5 1.5q-.5 2-3.5 1.5v-1l2.5-.5-2-1zm131 0 2 2 1.5-.5-1 1 .5 1.5-3.5-3.5zm-162 1 1.5.5-2 1 3 1-4.5 1.5v-1l1.5-.5q-2.2-1.2.5-2.5Zm8 0 3.5.5-3.5.5zm70 0 .5.5-2.5 2.5-1.5.5q2.2 1.3-.5 2.5l-2.5-.5 3.5-4.5q1.5 2.5 3-1Zm-39 2 2.5 1.5q-1 2.5-2 1l.5-1.5-3 1v-1zm128 0 .5 1.5-.5 1.5 2.5.5 1 2-2.5.5-2.5-3.5zm-174 1v2l3-1v1l-4 2v-2L95 26.5l.5 1.5-1.5-1.5 2.5-2.5z" opacity=".129"/><path fill="#f9f6f3" stroke="#f9f6f3" d="m148.5 24 3.5 1.5-2.5 1.5v-2l-2 1q-1.5-1 1-2Zm-56 3q3 1.5 0 3l-2-1 .5 1.5L79.5 42l-2.5-.5 3-1q-2.5-1.5 1-3l3.5-4.5-.5 1.5.5 1.5 2.5-2.5-.5-1.5 1 1 2.5-2.5q-2.2-1.2.5-2.5zM83 36l-1 2q1 1 2-1zm68.5-9q1 2 2 0l1.5.5-2.5 1.5q-2.5-1-1-2Zm25 0 1 1 1.5-.5-2.5 4.5-1.5-2.5zm-22 2q1 2 2 0l1.5.5q-.5 3 1.5 3.5l1.5-.5-1 1 4.5 4.5 1-1 2.5 2.5-2.5.5L154 29.5zm120 0 2.5.5 2 5h-1l-.5-1.5-1 2-1.5-3.5.5-1.5q-2.4-.1-1-1Zm-100 2 1.5 3.5-1.5 2.5-.5-1.5 1-2h-2zm-2 4 1.5 5.5h-1l-.5-2.5-1 2-.5-1.5zm107 3-.5 1.5.5 2.5 2.5 1.5-.5 1.5-1-2-1 4-1.5-7.5z" opacity=".129"/><path fill="#f9f6f3" stroke="#f9f6f3" d="m166.5 41 3 2q1.8-3.7 3.5-.5.8 4.3-2 5l.5 1.5q-3.2-1.7.5-3.5l-.5-3.5-2 4v-2l-3.5-2.5zm-90 2 1 1 1.5-.5-1.5 1.5-1.5-.5 1 2-3.5 6.5-2.5-1.5 3-1-2-1 3-1-1-2zm205 5q2 .5 1.5 3.5h-1l-.5-2.5-.5 10.5h1l.5-6.5.5 6.5q-1.5 3-3 0v-10zm-209 6 .5 1.5-2.5 6.5-1-2-1.5.5.5-1.5 2.5-.5zm227 4 3.5.5-3.5.5zm9 0q3-.5 3.5 1.5l-1.5 1.5h-13v-1l13.5-.5-2.5-.5zm-17 1 2.5.5-3 1 4 1-3.5.5q-3-1.5 0-3Zm26 1 5 1 1.5 1.5-2.5 1.5v-1l1.5-.5-2.5-.5-3 1v-1l2.5-.5-2.5-.5z" opacity=".129"/><path fill="#f9f6f3" stroke="#f9f6f3" d="m279.5 61 1 2 6-2v1l-1.5.5 2 1-1.5.5-3-1v1l1.5.5-4.5 2.5.5-1.5-1-1zm34 0 2.5.5-2.5.5zm-244 2 .5 5.5h-1zm257 0 9.5 5.5-2.5 1.5-1.5-1.5.5-1.5-2 1 .5-1.5-1.5-1.5-3-1zm9 7q1 2 2 0l7.5 6.5q-2.2 1.3.5 2.5l1-1 2.5 2.5-2 1 1.5 1.5q1.3-2.2 2.5.5l1 3-1.5.5q-2.7-1.2-.5-2.5l-.5-1.5-1 1-2.5-2.5 1-2-1.5.5-6.5-6.5.5-1.5-2 1-2.5-2.5zm-269 2 .5 4.5 1 1q-1 1.5-2-1zm3 8 .5 4.5q-1.5 3-3 0l.5-2.5 1 3z" opacity=".129"/><path fill="#f9f6f3" stroke="#f9f6f3" d="m70.5 86 .5 2.5q-1.5 3-3 0l.5-1.5 1 2z" opacity=".129"/><path fill="#f9f6f3" stroke="#f9f6f3" d="m71.5 90 .5 1.5q-1.5 3-3 0h2zm1 3 1.5 3.5h-1q-1.7-1.5-.5-3.5Zm282 1 1 2 2.5 1.5-.5 1.5-1-2-1 2-1.5-3.5zm-281 4 1.5.5-.5 1.5 1.5.5-.5 1.5 2.5 1.5-.5 1.5 3.5 2.5-.5.5-2-2-1 1-1.5-1.5-3-5zm283 2 .5 2.5h-1zm1 4 .5 3.5h-1zm-279 4q1.5 3.5 3 1l6.5 6.5-1.5 1.5-2.5-2.5q2.3-1.2-.5-2.5l-1.5.5q2.3-1.3-.5-2.5l-1 1-2.5-2.5zm11 8 2.5 2.5-.5.5q-1-2-2 0l-1.5-.5zm4 3 1.5 1.5-.5 1.5 2-1-.5 1.5 1.5 1.5 1.5-.5-.5-1.5 2.5 1.5-2 1 .5 1.5-8.5-5.5 1.5.5 1.5-.5zm264 3 .5 2.5h-1zm-253 3 1.5.5-2 1 2.5.5 1.5-.5q-2 1 0 2l-.5 2.5-1-3-1 2-2-3-2.5-.5zm252 2 1.5 4.5h-1q-1.7-1.7-.5-4.5Zm-251 4-.5 1.5-.5 1.5-.5-1.5zm250 0 1.5 2.5q-1 1.5-2-1zm-1 3 .5 1.5q-2 1 0 2v2l-2.5 3.5-1-1-1.5.5 3-2-.5-1.5 1.5-.5-1-2zm-249 2 .5 2.5h-1zm-1 4 .5 3.5h-1zm-2 4q2 .5 1.5 3.5h-1l-.5-2.5-1 2-.5-1.5zm247 0 1.5 2.5-10.5 11.5-2 1-1-1-1.5.5 2.5-2.5 1 1 2.5-1.5-.5-1.5q1.3 2.3 2.5-.5-2.2-1.2.5-2.5l2.5-.5-.5-1.5-1.5.5zm-249 8q2.3.8 1.5 4.5l-1.5 4.5-1-3-1 2-.5-1.5 3-2-.5-3.5-1 2-.5-1.5zm234 7v2l2-1q1.5 1-1 2l-2-1-4.5 2.5q2.3 1.3-.5 2.5l-7 3v-2l-1.5-.5 1.5-.5 3 1v-1l-1.5-.5 3.5-1.5 2 1-.5-1.5 1.5-1.5zm-236 2q2 .5 1.5 3.5h-1l-.5-2.5-1 2-.5-1.5zm181 2v2l2-1v2l3-1 6.5 2.5-2.5.5-5-2v2l-3-1q-1.2 2.3-2.5-.5-.5-3 1.5-3.5Zm-182 2q2 .5 1.5 3.5h-1l-.5-2.5-1 2-.5-1.5zm219 2q3-.5 3.5 1.5l-2.5 1.5v-1l1.5-.5-2.5-.5zm-39 1 .5 2.5h-1zm15 0 4.5.5-5 1 3 1-2.5.5q-3-1.5 0-3Zm19 0q3.8-.7 4.5 1.5-1 2.5-2 1l.5-1.5q-4 .7-3-1Zm-12 1h9l1.5 1.5q-1 2.5-5.5 1.5v-1l4.5-.5-9.5-.5zm-202 2 .5 2.5h-1zm202 0 2.5.5-2.5.5zm-23 1 .5 2.5-1 3 .5 1.5q-2-.5-1.5-3.5zm-181 2q2 .5 1.5 3.5h-1l-.5-2.5-1 2-.5-1.5zm0 5 .5 3.5h-1zm179 0 1 3 1-2 .5 1.5q-1.5 3-3 0z" opacity=".129"/><path fill="#f9f6f3" stroke="#f9f6f3" d="m273.5 183 1 3 1-2 .5 1.5q-1.5 3-3 0zm-1 4 .5 2.5h-1zm-1 4 1 3 1-2 .5 1.5q-1.5 3-3 0zm-1 4 .5 2.5h-1zm-1 4 1 2 1.5-.5-3 2 .5 2.5 1.5-.5q-1.5 3-3 0z" opacity=".129"/><path fill="#f9f6f3" stroke="#f9f6f3" d="m267.5 206 1 3 1-2 .5 1.5q-1.5 3-3 0zm-1 4 .5 2.5h-1zm-203 56 .5 4.5h-1zm197 3 7.5.5-7.5.5zm-197 3 1.5 3.5h-1q-1.7-1.5-.5-3.5Zm2 7 1.5.5-.5 1.5q-2.5-1-1-2Zm216 1 .5 2.5q-1 2.5-2 1zm-211 5 2.5 1.5-1.5.5q-2.5-1-1-2Zm9 5 1.5 2.5h-1zm203 0-.5 1.5-.5 1.5-.5-1.5zm-3 6 1.5.5q-1 2.5-2 1zm-3 6q1.5 1-1 2l-1.5-.5zm-3 3 .5.5-2.5 2.5-.5-1.5zm-35 9 .5.5-2.5 2.5-.5-.5zm-134 16q2.5 1 1 2l-1.5-.5zm104 9q1.5 1-1 2l-1.5-.5zm-18 7 2.5.5-2.5.5zm-8 2 1.5.5-2.5 1.5q-1.5-1 1-2Zm-6 1 3.5.5-5.5 1.5v-1zm-1 3 1.5 3.5.5 5.5q10.8-1.8 13.5 4.5l2 3v2h-1l-.5-2.5-1 6-.5-5.5.5-1.5-3.5-2.5.5-1.5-2 1h-11l-.5-5.5h1l.5 2.5.5-5.5q-1.9-.9-.5-3.5Zm.5 10v1h10zm-29.5-8 .5 5.5h-1z" opacity=".129"/><path fill="#f9f6f3" stroke="#f9f6f3" d="m148.5 356 .5 7.5-14.5.5v-1l13.5-.5-12-1 12-1zm-15 9 1 2 1-2 .5 1.5-3 2q2 1 0 2l-1.5 2.5-1.5.5q2 1 0 2l-1.5 2.5-1.5.5q2.3 1.3-.5 2.5l-2.5-.5zm59 10q2.5 1 1.5 5.5h-1l-.5-4.5-1 8-.5-7.5zm-69 8q3 1.5 0 3l-1.5.5q2 1 0 2l-1.5 2.5-1.5.5q2 1 0 2l-1.5 2.5-1.5.5q2 1 0 2l-1.5 2.5-1.5.5q2 1 0 2l-1.5 2.5-1.5.5q2 1 0 2l-1.5 2.5-1.5-.5 1 2q-.5 2-3.5 1.5l-.5-.5 2-2 10.5-17.5 1.5.5 1-2q-2.2-1.2.5-2.5l1.5-.5 1-2-1-2zm70 2q2.5 1 1.5 5.5h-1l-.5-4.5-1 8-.5-7.5zm1 9 1.5 4.5h-1l-.5-2.5-1 7-.5-6.5zm1 6 .5 2.5h-1zm0 4-.5 1.5-.5 7.5-.5-7.5zm1 2 .5 3.5h-1zm0 8 1.5 2.5h-1l-.5-1.5-1 8-.5-7.5zm-94 3 1 1 1.5-.5-3 2q2 1 0 2l-2.5 3.5-4.5-.5 5-1-2-1 1.5-.5 1.5.5 1-2-1-2z" opacity=".129"/><path fill="#f9f6f3" stroke="#f9f6f3" d="m94.5 422 2.5.5-3.5 1.5h-9l-1 1h-6v-1h6l1-1h9zm103 1 1.5 4.5h-1l-.5-2.5-1 8-.5-7.5zm-126 2 4.5.5-5 1 5 1-4.5.5q-1-2-5-1v1l3.5.5-3.5.5-3.5-1.5 3.5-1.5h4zm14 0 5.5.5-5.5.5zm-8 1 5.5.5-5.5.5zm-20 2 3.5.5-7 2 3 1-2.5.5q-.8-1.7-4-1v1l2.5.5-2.5.5-3.5-1.5zm5 1 2.5.5-2.5.5zm-18 3 1.5.5-2 1 2 1-1.5.5-3-1v1l1.5.5-3.5 1.5v-1l1.5-.5-2-1zm-8 3 1.5.5-2 1 2 1-3.5 1.5-2.5-1.5zm161 0 1 3 1-3 1 4 8.5 4.5-1 1 .5 1.5-3.5-2.5.5-1.5-2 1v-2l-2 1v-2l-2 1v-2l-2 1zm-168 3 1.5.5-2 1 2 1-2.5 1.5.5-1.5-1-1zm-3 2v3l-2-1v2l-2-1 .5 1.5-1.5 1.5-6 4-2-1 .5 1.5-8 8-4.5 8.5-1.5-3.5 1.5-2.5 2.5-.5-1-2 4-2-1-1 7.5-7.5 2-1q1 2 2 0l1.5-.5-2-1zm184 4 8.5 6.5q-2.2 1.2.5 2.5l1-1 3.5 3.5.5 1.5 1.5.5-2 1 1.5 1.5q1.3-2.3 2.5.5l2 3-2 1 1.5 3.5 1-2 1.5 2.5v15h-1l-.5-15.5-1 4-1.5-6.5-2-3 .5-1.5-3.5-2.5-6-7 .5-1.5-2 1-2.5-2.5.5-1.5-2 1-1.5-1.5 1-1zm19 38 .5 3.5h-1zm-228 5 1.5 3.5-1 2h2l2 3H4l1.5 2.5 1-1L17 507.5l-1.5-.5-1 1-2.5-2.5 1-1-2.5-2.5-.5 1.5.5 1.5-7.5-9.5.5-1.5-3.5-2.5 2-1q-1.9-.9-.5-3.5ZM9 500l-1 2h2q1-1-1-2Zm219.5-13 1 2 1-2 .5 1.5-1.5 2.5-1.5-2.5zm-2 5 1.5.5-2 1-1.5 2.5.5-1.5zm-3 5 1 1 1.5-.5-9.5 9.5-1-1-1.5.5zm-11 10 1.5 2.5-5.5 3.5q-3-1.5 0-3l2 1-.5-1.5zm-194 1 1.5 1.5q-2.2 1.2.5 2.5l1.5-.5-.5-1.5 1.5 1.5-1 1 .5 1.5-4.5-3.5 1-1zm182 7q3 1.5 0 3l-5.5 2.5.5 1.5-2.5-2.5 1.5-1.5 2 1v-2l2 1v-2l2 1zm-108 17 4.5.5-4.5.5zm9 1 25.5.5-25.5.5zm-9 1 7.5.5-7.5.5zm9 1 3.5.5-3.5.5zm8 0 14.5.5-14.5.5zm16 0 1.5.5-.5 5.5-.5-4.5zm-1 2 .5 5.5h-1zm65 4 2.5 1.5q-1 2.5-2 1l.5-1.5q-2.4-.1-1-1Zm-149 1 2.5.5-2.5.5zm127 0 .5 1.5q-1.5 3-3 0h2zm-84 1 1.5.5-3.5 1.5v-1zm112 0 2.5.5-2.5.5zm-130 1q1.5 1-1 2l-1.5-.5zm88 3 .5 2.5h-1zm-2 1 .5 2.5h-1zm-28 1 .5 4.5h-1zm46 0 .5 2.5-1.5.5q-2.5-1-1-2l1.5.5zm-44 3 .5 13.5h-1zm28 0-.5 1.5-.5 4.5-.5-4.5zm1 2 .5 2.5h-1zm44 0 .5 2.5-1.5.5.5-1.5zm-27 2 .5 2.5h-1zm-17 3-.5 1.5-.5 4.5-.5-4.5zm1 2 .5 2.5h-1zm-32 1 .5 6.5h-1zm50 1 .5 2.5h-1zm30 2 2.5 4.5h-1l-.5-1.5-2.5-1.5zm-48 1-.5 1.5-.5 4.5-.5-4.5zm17 1 1 2 1-2 .5 1.5q-1.5 3-3 0zm-16 1 .5 2.5h-1zm-33 2 .5 2.5h-1zm52 0 .5 2.5h-1zm33 3 1.5 2.5-1.5.5zm-84 1 .5 17.5h-1zm50 0 1 2 1-2 .5 1.5q-1.5 3-3 0zm-52 1 .5 4.5h-1zm35 0 .5 2.5h-1zm-2 1 .5 2.5h-1zm22 1 .5 2.5h-1zm31 0 3.5 2.5-2.5.5v-2q-2.4-.1-1-1Zm-32 4 1 2 1-2 .5 1.5q-1.5 3-3 0zm34 0 2.5.5-2.5.5zm-52 1 .5 2.5h-1zm-2 1 .5 2.5h-1zm-34 4 .5 8.5h-1zm56 1 1 2 1-2 .5 1.5q-1.5 3-3 0zm-21 1 .5 3.5h-1zm2 0 .5 2.5h-1zm57 0q2.5 1 1 2l-1.5-.5zm0 4 1.5 2.5h-1zm3 1 .5 2.5h-1zm-39 1 1 2 1-2 .5 1.5q-1.5 3-3 0zm-20 1 .5 2.5h-1zm-2 1 .5 3.5h-1zm-37 3 .5 5.5h-1zm99 0 2.5.5-2.5.5zm-97 1 .5 16.5h-1zm61 1 .5 1.5q-1.5 3-3 0h2zm-25 1 .5 4.5h-1zm2 0 .5 2.5h-1zm63 2 4.5 6.5-.5.5-2-2-1.5-.5.5-1.5-2.5-1.5zm-62 5 .5 2.5h-1zm-2 1 .5 3.5h-1zm27 1 .5 2.5h-1zm-66 1 .5 4.5h-1zm108 0 1.5 2.5-1.5.5zm0 4 2.5 1.5-1.5-.5q-2.4-.1-1-1Zm-68 1 .5 2.5h-1zm28 1 .5 2.5h-1zm-23 5 19.5.5-19.5.5zm-88 1 5.5.5-5.5.5zm7 0 2.5.5-2.5.5zm8 0 14.5.5-14.5.5zm157 0 11.5.5-11.5.5zm17 0 2.5.5-2.5.5zm4 0 4.5.5-4.5.5zm-214 1 5.5.5-5.5.5zm10 0 5.5.5-5.5.5zm7 0 2.5.5-2.5.5zm90 0 23.5.5-23.5.5zm116 0 7.5.5-7.5.5zm14 0h3l3.5 1.5-2.5.5q-.7-1.7-4-1zm-252 1 2.5.5-2.5.5zm6 0 4.5.5-4.5.5zm31 0 20.5.5-20.5.5zm176 0 17.5.5-17.5.5zm47 0 2.5.5-2.5.5zm6 0q3.8-.7 4.5 1.5l-1.5-.5q-4 .7-3-1Zm-275 1 3.5.5-4 1 6 1-5.5.5-2.5-1.5zm5 0 2.5.5-2.5.5zm19 0 13.5.5-13.5.5zm227 0 12.5.5-12.5.5zm30 0 3.5.5-3.5.5zm-287 1 1.5.5-3.5 1.5v-1zm15 0 9.5.5-9.5.5zm261 0 7.5.5-7.5.5zm23 0 2.5 1.5-4.5 1.5v-1l2.5-.5zm-11 1 6.5.5-6.5.5zm-287 1 2.5.5-2.5.5zm300 1 2 1 1.5-.5-1.5 2.5q-1-2-2 0l-2.5-.5 3-1zm-299 3 4.5.5-5 1 2 1-1.5.5q-3-1.5 0-3Zm291 0q4.5-1 5.5 1.5-1 2.5-2 1l.5-1.5h-4zm-283 1 6.5.5-6.5.5zm273 0 5.5.5-5.5.5zm7 0q3 1.5 0 3l-4.5-.5 5-1zm-268 1 10.5.5-10.5.5zm246 0 8.5.5-8.5.5zm-228 1 15.5.5-15.5.5zm204 0 14.5.5-14.5.5zm38 0 2.5.5-2.5.5zm-6 1 2.5.5-2.5.5z" opacity=".129"/><path fill="#35363a" stroke="#35363a" d="m78.5 252 .5 2.5h-1z" opacity=".031"/></svg>