<svg xmlns="http://www.w3.org/2000/svg" viewBox="0 0 640 640"><path stroke="#000" d="M.5 0 640 .5l-.5 639.5L0 639.5zM158 43l-1 1h-14l-1 1h-11l-1 1h-10l-1 1-17 1-1 1h-7l-1 1h-8l-1 1-14 1-1 1h-7l-1 1h-6l-1 1h-6l-1 1h-6l-1 1-9 1-2 2-1 10-1 1v5l-1 1v5l-1 1-1 13-1 1v7l-1 1v7l-1 1v9l-1 1v13l-1 1v38l1 1v8l4 9 9 7 6 3 9 1 1 1 10-1 6-2 6-4 3-4 11-7 7-1 1-1h6l1-1h7l1 1 11 1 10 4 8 5q10 8 16 22l3 9v3l1 1q-1 4 1 6v9l1 1v11l-1 1v10l-1 1-1 11-4 12-6 11-13 12-13 5h-16l-5-2h-3l-12-7-5-6-5-6-10-4h-8q-1 2-4 1l-8 4-11 12-6 15-1 9-1 1v6l-1 1v9l-1 1v12l-1 1v25l-1 1v59l1 1v38l1 1v25l1 1v20l1 1v15l2 1q3-1 4 1l10 1 1 1h5l1 1h5l1 1h5l1 1 13 1 1 1h8l1 1h9l1 1h15l1 1h22l1-1h10l1-1 7-1 5-3 5-6 5-12v-17q-2-1-1-4l-3-6-9-10-2-4-2-6v-3l-1-1v-5l-1-1v-13l1-1v-6q2-1 1-4l2-6 7-13 14-13 10-5 6-2h3l1-1h5l1-1h28l1 1 10 1 12 4 13 8 6 7 5 8v2l3 6v4l1 1v16l-1 1-1 7-2 3v2l-5 8-7 5-7 11q1 3-1 5v8l5 13q7 9 19 14l6 2h3l1 1q4-1 6 1h8l1 1h27l1-1h13l1-1h10l1-1h9l1-1h7l1-1h7l1-1h6q1-2 6-1l1-1h6q1-2 6-1l1-1h5l1-1h5l1-1h5l6-2h5l6-2h4l1-1h4l1-1h4l1-1h4l1-1h4l5-2h4l1-1v-6q-2-2-1-6l-1-1-1-13-1-1v-7l-1-1v-7l-1-1v-7l-1-1-1-17-1-1v-8l-1-1v-8l-1-1v-10l-1-1v-13l-1-1v-21l-1-1 1-26 1-1v-5l1-3 4-8 6-6 6-3q4 1 6-1 3-1 4 1h6l9 3 13 7 6 8 12 11 9 6 10 4 8 1 1 1h13l1-1 8-1 14-6 6-4 13-13 6-9 9-21 1-7 1-1v-4l1-1v-6l1-1v-34l-1-1v-7l-1-1v-5l-1-1-1-8-9-23-11-15q-9-10-22-16l-9-3q-5 1-5-1h-7l-1-1h-9l-1 1h-7l-1 1-8 1-6 2-11 6-9 9-7 15-10 9-9 3h-9l-12-5q-6-4-9-10l-1-9-1-1v-7l-1-1v-17l-1-1v-27l1-1v-25l1-1v-17l1-1 1-26 1-1V88l1-1V77l1-1 1-18 1-1v-9l-10-1-1-1h-22l-1-1h-28l-1-1h-86l-1 1h-8q-1 2-4 1l-7 4-6 7-3 8v7l3 9 18 19 5 10 1 7 1 1v17l-1 1-1 8-6 14-6 9-11 11-12 8-16 6-10 1-1 1h-20q-2-2-6-1l-16-6-10-7-6-5-7-10-5-12-1-8-1-1v-17l2-5v-3l6-10 11-8 5-5 6-9 4-11q-1-5 1-6l-1-11-3-6-6-7-9-3z" opacity=".027"/><path stroke="#000" d="M157.5 43h38l9 3 6.5 6.5 3 6 1 11q-2.2 1.3-1 6l-4 11-6 9-5.5 5.5-10.5 7.5-6 10v3l-2 5v17l1 1 1 8 5 12 7 10 5.5 5.5 10 7 16 6q4.8-1.2 6 1h20l1-1 10-1 16-6 12-8 11.5-11.5 6-9 6-14 1-8 1-1v-17l-1-1-1-7-5-10-18-19-3-9v-7l3-8 5.5-6.5 7-4q3.2.8 4-1h8l1-1h86l1 1h28l1 1h22l1 1 10.5.5v9l-1 1-1 18-1 1v10l-1 1v10l-1 1-1 26-1 1v17l-1 1v25l-1 1v27l1 1v17l1 1v7l1 1 1 9q2.7 6.8 8.5 10.5l12 5h9l9-3 10.5-9.5 7-15 8.5-8.5 11-6 6-2 8-1 1-1h7l1-1h9l1 1h7q1 2 5 1l9 3q13.2 5.8 22.5 15.5l11 15 9 23 1 8 1 1v5l1 1v7l1 1v34l-1 1v6l-1 1v4l-1 1-1 7-9 21-6 9-13.5 13.5-6 4-14 6-8 1-1 1h-13l-1-1-8-1-10-4-9-6-11.5-11.5-6.5-7.5-13-7-9-3h-6q-.7-1.7-4-1-1.2 2.3-6 1l-6 3-5.5 5.5-4 8-1 3v5l-1 1-1 26 1 1v21l1 1v13l1 1v10l1 1v8l1 1v8l1 1 1 17 1 1v7l1 1v7l1 1v7l1 1 1 13 1 1q-1.3 4.8 1 6v6l-1.5 1.5h-4l-5 2h-4l-1 1h-4l-1 1h-4l-1 1h-4l-1 1h-4l-6 2h-5l-6 2h-5l-1 1h-5l-1 1h-5l-1 1q-4.8-1.3-6 1h-6l-1 1q-4.8-1.3-6 1h-6l-1 1h-7l-1 1h-7l-1 1h-9l-1 1h-10l-1 1h-13l-1 1h-27l-1-1h-8q-1.2-2.2-6-1l-1-1h-3l-6-2q-11.6-4.9-18.5-14.5l-5-13v-8q2-1 1-5l6.5-10.5 7.5-5.5 5-8v-2l2-3 1-7 1-1v-16l-1-1v-4l-3-6v-2l-5-8-6.5-6.5-13-8-12-4-10-1-1-1h-28l-1 1h-5l-1 1h-3l-6 2-10 5-13.5 12.5-7 13-2 6q.8 3.2-1 4v6l-1 1v13l1 1v5l1 1v3l2 6 2 4 9 10 3 6q-.7 3.3 1 4v17l-5 12-5.5 6.5-5 3-7 1-1 1h-10l-1 1h-22l-1-1h-15l-1-1h-9l-1-1h-8l-1-1-13-1-1-1h-5l-1-1h-5l-1-1h-5l-1-1-10-1q-.8-1.7-4-1l-1.5-1.5v-15l-1-1v-20l-1-1v-25l-1-1v-38l-1-1v-59l1-1v-25l1-1v-12l1-1v-9l1-1v-6l1-1 1-9 6-15L43.5 300l8-4q3.3.8 4-1h8l10 4 5.5 5.5 4.5 6.5 12 7h3l5 2h16l13-5 13.5-12.5 6-11 4-12 1-11 1-1v-10l1-1v-11l-1-1v-9q-2.2-1.2-1-6l-1-1v-3l-3-9q-5.7-13.2-16.5-21.5l-8-5-10-4-11-1-1-1h-7l-1 1h-6l-1 1-7 1-10.5 6.5-3.5 4.5-6 4-6 2-10 1-1-1-9-1-6-3-8.5-7.5-4-9v-8l-1-1v-38l1-1v-13l1-1v-9l1-1v-7l1-1v-7l1-1 1-13 1-1v-5l1-1v-5l1-1 1-10 1.5-1.5 9-1 1-1h6l1-1h6l1-1h6l1-1h7l1-1 14-1 1-1h8l1-1h7l1-1 17-1 1-1h10l1-1h11l1-1h14z"/></svg>