<svg xmlns="http://www.w3.org/2000/svg" viewBox="0 0 609 640"><path fill="#000001" stroke="#000001" d="M149.5 0h17q1 2 5 1l1 1 6 1 8 4 3 3 1-1h4l5-2 12-1 1-1h28l1 1 9 1 13 5q8.6 4.9 14.5 12.5l5 9 2 6v5l1.5 4.5 322.5.5v472l-9 27-12 24-15 21-17.5 17.5-15 11-15 8h-2l-11 5h-3l-8 3-9 1-1 1h-444L47 232.5l-1.5-1.5-10-1-9-4h-2q-10-5-16.5-13.5l-5-9-2-6q1-4-1-5v-14l1-1 1-10 4-12 8-17 3-4v-2l-2-3-1-6-1-1v-13l1-1v-4l3-9 7-14q13-21 31.5-36.5l15-12 12-8 20-11h2l7-4 5-1 9-4 7-1 5-2h4l1-1h6zM143 11l-1 1h-6l-9 3h-3l-9 3-5 3h-2L87 32 65 48Q51 60 40 75L30 93l-2 6v3l-1 1v13q2 0 1 4l3 5 7 6 13 5h21l1-1h5l5-2h3l12-4 26-13q16-10 30-23l18-21 6-10v-2l3-5 2-6v-3l1-1V33q-2-1-1-4l-4-7-3-4-9-5-8-1-1-1zm63 4-1 1h-8l-2 2 3 6q-1 4 1 6l-1 13-5 15-10 17-13 16-22 20-17 12-10 5-2 2-12 6h-2l-5 3-5 1-6 3h-3l-8 3h-4l-1 1h-4l-1 1h-9l-1 1h-8l-1-1h-7q-1-2-4-1l-6-2-9-5-6 12v3l-3 9v7l-1 1 1 12 2 6 7 11 12 8h2l9 4q3-1 5 1h7l1 1h14l1-1h9l1-1 10-1 1-1 11-2 15-5 15-7h2l30-16 30-21 14-12q21-19 37-43l11-21 3-9v-3l1-1v-3l1-1V48l-1-1-1-6-4-7-9-10-10-5-6-2h-4l-1-1h-6l-1-1zm79 51-2 2-1 7-5 11v2l-11 20q-12 19-28 35l-31 28-22 16-3 1-20 13-24 12h-2l-5 3h-2l-3 2-5 1-9 4h-3l-15 5-9 1-1 1-20 2-1 391h94v-1l-7-5q-15-12-25-28l-5-10-4-12v-3l-1-1v-5l-1-1v-22l1-1v-5l1-1v-3l1-1v-3l2-6 10-20 11-15 9-9v1l-3 6-1 7-1 1v6l-1 1v15l1 1v5l2 5v3l5 11 6 7 21-12h2l5-3 15-5 7-1 1-1h4l1-1h4l1-1h6l1-1h10l1-1h22l1 1h11l1 1 12 1 1 1h4l9 3h3l1 1h3l21 7 23 11h2l2 2 18 9 22 14q2 1 1 2l-9-3h-3l-1-1h-3l-1-1h-3l-1-1h-3l-1-1-14-2-1-1-11-1-1-1h-7l-1-1h-8l-1-1h-15l-1-1h-19l-1 1h-14l-1 1h-8l-1 1-11 1-1 1h-4l-9 3h-3l-18 6-21 10-12 8-5 5 1 4 7 10q11 12 28 20h265l1-1 10-1 21-7 12-6 16-11 19-19 15-22 12-26 4-12 1-7 1-1V67z" opacity=".996"/><path fill="#000001" stroke="#000001" d="m502.5 162 15.5 15.5 14 18 18 29 11 22v2l7 15 7 21 2 11 1 1 1 10 1 1v7l1 1v15l-1 1-1 9-6.5 10.5-6 3h-10l-12-5-9-6-18.5-17.5-16-20-10-15-9-17-2-2-14-30v-2l-2-3-7-21v-3l-3-9v-4l-2-6v-7l-1-1v-15h1l.5 8.5 1-2 1.5.5v-3l4.5-6.5.5.5-2 2-2 4v14l1 1v4l1 1 2 10 10 22 10 15 11.5 12.5 3.5 2.5-.5.5-2-2-11-10-5 4-1.5-.5 4 10 15 28 17 24 16.5 17.5 10 8 7 4 9 3h6l5-2 4.5-4.5 4-9q-1.3-4.7 1-6v-14l-1-1v-7l-1-1v-4l-1-1v-4l-1-1-1-7-7-21-2-3v-2l-13-27-14.5-22.5-21 16-1.5-.5 2 6v3l1 1v3l1 1v5h-1v-5l-1-1-1-7-4-9v-2l-4-7v-2l-13-21-12.5-13.5-3.5-2.5.5-.5 2 2 4 3 1-1h8l1-1h10l1-1 9.5-.5-9-9z" opacity=".996"/><path fill="#000001" stroke="#000001" d="m470.5 168 2.5 1.5-1.5-.5q-2.4-.1-1-1Zm-186 51h10q.8 1.7 4 1l16 7q19.2 12.3 33.5 29.5l17 22 15 24 5 11 5 8v2l11 23 1 5 2 3 7 21v3l2 4v3l3 9 1 9 1 1 1 12 1 1v10l1 1v20l-1 1v7q-2 1-1 5l-1 1v3l-2 6q-3.8 9.7-11.5 15.5l-8 4q-5.5-1-8 1l-1-1h-6q-.7-1.8-4-1l-13-6-14-10-20.5-20.5-17-22-16-26-13-26v-2l-4-7-5-15-2-3-4-12v-3l-2-4v-3l-2-4v-3l-2-5v-4l-2-5-1-11-1-1v-7l-1-1v-33l1-1v-5l1-1v-3l3-9q4-9 11.5-14.5zm-8.5 27-4 2-3 3-4 10v20l1 1v5l1 1v3l3 8 1 6 12 26 11 16 14 13 4 2q2 1 1 2l-10-7-12-14-2 2-9 4 7 21 16 33 16 25 18 22 18 15 16 9 6 2h13l8-4q7-5 10-14l2-10 1-1v-6l1-1v-22l-1-1v-8l-1-1v-5l-1-1-1-10-3-9v-3l-2-4v-3l-6-18-7-15v-2l-12-24-6-11-1 2-35 17 1 11 1 1v15l-1-15-1-1-1-10-1-1v-3l-1-1v-3l-2-6-13-28-12-17-14-14-9-4zm60 72-1 3h1zm-56 27-1 3h1zm234.5-102 .5 4.5h-1zm-1 7 .5 2.5h-1zm-1 4 .5 1.5q-1 2.5-2 1zm-16 3 4.5 2.5-1.5.5-3.5-2.5zm6 3 4.5.5-4.5.5z" opacity=".996"/><path fill="#000001" stroke="#000001" d="m336.5 351 .5 2.5h-1zm-1 4 .5 1.5q-2 5.5-6.5 8.5l-.5-.5 4-4zm-15 11 4.5.5-4.5.5z" opacity=".996"/><path fill="#1d1950" stroke="#1d1950" d="m463.5 166 2.5.5-3.5 1.5q-1.5-1 1-2Zm41 1 6.5 4.5-30 3 .5 1.5-3-3-1.5.5 1-2h-2l1.5-1.5q4.7 1.2 6-1h10l1-1h9zm-51 5 1.5.5-.5 5.5-1.5-.5-.5 1.5-.5-4.5zm78 33 11.5 16.5 14 28-.5 1.5 1.5.5-1 2h2l1 3-1 2h2l1 3-2.5 3.5-51 39q-1-2-2 0l-2.5-2.5.5-1.5-2.5-1.5.5-1.5-2.5-1.5-12-19-12-24-1-4 1.5.5 2-2 2.5-1.5-4-5 .5-.5 3.5 3.5 2.5 3.5 1.5-.5-1 1 6.5 6.5 1.5-.5-.5 1.5 3 2 1.5-.5 1.5 2.5 3 1 1.5-.5.5 1.5 4.5-.5.5-1.5q1.3 2.3 2.5-.5l.5-1.5 2.5-1.5 1-5-1-2 2-1-.5-4.5-1.5.5 1-3v-5h-2q1.8-.7 1-4l-1.5-4.5-1.5.5 1-3h-2l1-3h-2l1.5-2.5 2 3 16-13 4.5-2.5zm31 58 .5 1.5-1.5 2.5-.5-1.5zm-305 4 .5 8.5h-1zm315 32 .5 2.5h-1zm-202 3 7.5 11.5 12 24v2l3 5v2l2 3 4 12-.5 1.5 1.5.5 1 4-1 2h2l-1 4h1l.5-1.5.5 1.5q-1.7.8-1 4h1l.5-1.5.5 1.5-1.5 2.5-8 4h-2l-77 38 .5-1.5-1-1-.5-1.5-1.5.5 1-2-1.5.5-1.5-1.5.5-1.5-2.5-1.5-1-2 .5-1.5-2.5-1.5-16-31v-2l-7-15-4-14h1l.5 2.5 6-2 3.5-2.5-2-2 .5-.5 14 16 4 3 1.5-.5-.5 1.5 5 3 1.5-.5.5 1.5 1.5-.5.5 1.5 2-1q1 3 6 2l3.5-1.5.5-1.5 1 1 4.5-4.5 2-5-.5-1.5 1.5-.5-1-3 2-2v-15h-2l1-1v-6l-1-1-1-7h1l.5 2.5 34.5-16.5zm137 3 2.5 2.5-.5.5-2.5-2.5zm66 2 .5 6.5h-1zm-62 3 2.5 2.5-.5.5-2.5-2.5zm6 7 10.5 10.5-.5.5-10.5-10.5zm56 1 .5 3.5h-1zm-287 20 1 1 1.5-.5-1.5 1.5q-2.5-1-1-2Zm267 4 6.5.5-6.5.5zm-146 49 .5 2.5h-1zm1 5 .5 2.5h-1zm1 6 .5 2.5h-1zm1 6 .5 3.5h-1zm1 9 .5 6.5h-1zm0 18 .5 4.5h-1zm-82 5 2.5 2.5-.5.5-2.5-2.5zm8 9 6.5 6.5-.5.5-6.5-6.5zm-49 103 2.5.5-2.5.5zm17 0 2.5.5-2.5.5z"/><path fill="#593400" stroke="#593400" d="m142.5 11 2.5.5-2.5.5zm63 4 5.5.5-5.5.5zm11 0 5.5.5-5.5.5zm-41 3 3.5 3.5-.5.5-3.5-3.5zm23 8 .5 2.5h-1zm-134 22 .5.5-2.5 2.5-.5-.5zm94 39 .5.5-5.5 5.5-.5-.5zm14 0 .5.5-2.5 2.5-.5-.5zm-13 13 .5.5-2.5 2.5-.5-.5zm69 30 .5.5-3.5 3.5-.5-.5zm-14 14 .5.5-3.5 3.5-.5-.5zm-168 4 2.5.5-2.5.5zm12 0 3.5.5-3.5.5zm-45 23 .5 5.5h-1zm67 42 2.5.5-2.5.5zm-22 1 14.5.5-14.5.5z"/><path fill="#a66300" stroke="#a66300" d="m145.5 11 10.5.5-10.5.5zm66 4 4.5.5-4.5.5zm-13 1 2.5.5-2.5.5zm-15 17 .5 2.5h-1zm0 7 .5 2.5h-1zm-122 11 .5.5-3.5 3.5-.5-.5zm-9 9 .5.5-3.5 3.5-.5-.5zm123 24 .5.5-2.5 2.5-.5-.5zm-27 12 .5.5-2.5 2.5-.5-.5zm76 38 .5.5-9.5 9.5-.5-.5zm-181 14 2.5.5-2.5.5zm19 0 2.5.5-2.5.5zm145 2 .5.5-2.5 2.5-.5-.5z"/><path fill="#586e8f" stroke="#586e8f" d="m459.5 148 .5.5-2.5 2.5-.5-.5zm-396 86 .5 386.5h-1zm80 263 .5 5.5h-1z"/><path fill="#84b2fe" stroke="#84b2fe" d="m235.5 145 .5.5-3.5 3.5-.5-.5zm-152 156 4 1 1.5 1.5-1.5.5-4-2zm-3 2 5 3 6.5 1.5.5 1.5 8 2 2 2 5.5 1.5.5 1.5h3l3.5 1.5.5 1.5 5 1 2 2 5 1 5 3 5.5 1.5.5 1.5 6 1 8 5 6.5 1.5.5 1.5 5 1 5 3 5.5 1.5.5 1.5h3l3.5 1.5.5 1.5 5 1 2 2 5 1 2 2 8.5 2.5.5 1.5h4l4 3h3l3.5 1.5-.5 1.5 7.5 1.5-.5 1.5 9 3q2.5-1 1-2l-3.5-1.5 3.5-.5 2.5 2.5-.5.5-2.5 1.5 6 2 .5 1.5 7 1 3 3 1-1 2 2 1.5-.5.5 2.5 2-2 .5.5q-2.2 1.3.5 2.5l3-1 2 2 1.5-.5-.5 1.5 5.5 1.5.5 1.5q1-2 2 0h2l6 4q1-2 2 0l2.5-.5-3.5-2.5h-2l-13.5-6.5q1-2.5 2-1l.5 1.5 2 1 1-1 2 2 1.5-.5.5 1.5 5 2 1.5-2.5-3-6h1l1.5 3.5 1.5-.5-1 2h2l-1 2h2l-1 2 5.5 10.5 1.5-.5-1 2h2l-1 2h2l-1 2 4.5 7.5 1.5-.5-1 2 2.5 3.5 1.5-.5-1 2 2.5 3.5 1.5-.5q-2 1 0 2l.5 1.5 1.5-.5-1 2 7.5 10.5 1.5-.5q-2 1 0 2l1.5 2.5 1.5-.5q-2 1 0 2l1.5 2.5 1.5-.5q-2.5 1.5 1 3l.5 1.5 1.5-.5-1 1 3 3 1.5 2.5q1.3-2.3 2.5.5l-1 1 5 5 7.5 8.5 6 5q1.3-2.2 2.5.5l-.5 1.5 7 5 1.5-.5-.5 1.5 2 1 1.5-.5-.5 1.5 4 2 1.5-.5-.5 1.5 2-1v2l2-1v2l2-1 1 2 7 2 1.5-.5.5 1.5h13l9.5-4.5-.5-1.5 1 1 6.5-6.5-.5-1.5 1.5.5 1-2-.5-1.5 1.5.5-1-2h2l-1-2h2l1-4-.5-1.5 1.5.5 1-6-.5-1.5 1.5.5q-1-4 1-5v-7l1-1 .5-18.5.5 17.5 2 2-1.5.5-1.5-.5.5 2.5 21.5 8.5.5 1.5 6 1 8 5 6.5 1.5.5 1.5 5 1 5 3 5.5 1.5.5 1.5h3l3.5 1.5.5 1.5 5 1 2 2 5 1 5 3 5.5 1.5.5 1.5 6 1 8 5 6.5 1.5.5 1.5 5 1 5 3 5.5 1.5.5 1.5h3l3.5 1.5.5 1.5 5 1 2 2 5 1 2 2h3l.5-1.5-4-2 1.5-.5 3 2 1-3 .5 2.5-8 16v2l-14 23q-11.6 16.4-26.5 29.5l-21 15-12 6h-2l-3 2-9 3h-282l-1 1q-11.1-8.9-17.5-22.5l14.5-10.5 7-3 2-2 4-1 12-6 15-5h3l9-3h4l1-1h4l1-1h5l1-1h7l1-1h11l1-1h11l1 1h9l1-1h9l1 1q4.8-.8 7 1 1-2 5-1l5 2 3-1 5 2 3-1q.5 2.5 4 2l2-1q.5 2.5 4 2l2-1 3 2 2-1 3 2 2-1 3 2q1.5-2.5 3 1l3-1 1 2 3-1 1 2 3-1 1 2 2-1 3 2 1-1 2 2 1-1q1.5 3.5 3 1l1.5-.5-2-1-.5-1.5-2.5-.5-1.5-2.5-1.5.5-1.5-2.5-1.5.5-1.5-2.5-1.5.5-.5-1.5-2.5-.5-.5-1.5-1.5.5-1.5-2.5-1.5.5-.5-1.5-3-2-1.5.5-.5-1.5-1.5.5-1.5-2.5-1.5.5-.5-1.5-1.5.5-.5-1.5-1.5.5-.5-1.5-5-3-1.5.5-.5-1.5-1.5.5-.5-1.5-1.5.5-.5-1.5-1.5.5-.5-1.5-1.5.5-.5-1.5h-2l-3-2-1.5.5-.5-1.5-1.5.5-.5-1.5-1 1-2-2-1.5.5-.5-1.5-1.5.5-.5-1.5-2 1-1-2-1 1-2-2-1.5.5-.5-1.5-2 1-1-2-1 1-2-2-1 1q-1.5-3.5-3-1l-1.5-.5-.5-1.5-2 1-1-2-2 1-3-2-1.5.5-.5-1.5-3 1-1-2-3 1-3-2-2 1-1-2-4 1q-.5-2.5-4-2l-2 1-3-2h-2l-3 1q-1.7-2.8-7-2l-1 1h-7l-1-1h-10l-1 1h-7l-3-1-1 1-6 1q-1-2-2 0l-5 1q-1-2-2 0l-3 1q-1-2-2 0l-6 2h-3l-1 1q-1.5-2.5-3 1l-16 5-24 13-3.5-4.5-7-16-1-8-1-1v-14q2-1 0-2v-3l2-4-1-2 2-3-1-1q3.5-1.5 1-3l2-3-.5-1.5 1.5-.5-.5-3.5-8.5 7.5-2.5 4.5-2.5 1.5q.5 3-1.5 3.5l-1.5.5v2l-6 8-7 14v2l-4 9-1 8-1 1v6l-1 1v16l1 1 1 11 4 12 11 20 11 12-60.5.5zm12 2 3.5 1.5-1.5.5-2.5-1.5zm7 3 4 1 1.5 1.5-1.5.5-4-2zm7 3 4 1 1.5 1.5-1.5.5-4-2z"/><path fill="#84b2fe" stroke="#84b2fe" d="m113.5 314 4 1 1.5 1.5-1.5.5-4-2zm7 3 4 1 1.5 1.5-1.5.5-4-2zm461 2 .5 3.5h-1zm-452 2 4 1 1.5 1.5-1.5.5-4-2zm7 3 4 1 1.5 1.5-1.5.5-4-2zm445 0 .5 3.5h-1zm-438 3 4 1 1.5 1.5-1.5.5-4-2zm7 3 4 1 1.5 1.5-1.5.5-4-2zm9 4 3.5 1.5-1.5.5-2.5-1.5zm7 3h2l3.5 2.5-1.5.5-4-2zm7 3 4 1 1.5 1.5-1.5.5-4-2zm7 3 4 1 1.5 1.5-1.5.5-4-2zm7 3 4 1 1.5 1.5-1.5.5-4-2zm9 4 3.5 1.5-1.5.5-2.5-1.5zm7 3 2 1 1-1 2 2 1.5-.5.5 1.5 5 2 1.5-.5.5 1.5h2l5 3 5.5 1.5-.5 1.5-3-2-5-1-2-2-12-4-1.5.5.5-1.5-3-1zm71 8 1 2 1.5-.5-1.5 2.5-1.5-2.5zm-34 8 5 2 1.5-.5.5 1.5 12 4 2.5 2.5-1.5-.5-9-3-2-2-5-1-4-2zm39 4 1 2 1.5-.5-1.5 2.5-1.5-2.5zm-16 6 2 1 1.5-.5-.5 1.5-3-1zm158 34 .5 2.5h-1zm1 7 .5 5.5h-1zm-1 10 .5 4.5h-1zm0 13 .5 3.5h-1zm6 7 4 1 1.5 1.5-1.5.5-4-2zm9 4 4 1 1.5 1.5-1.5.5-4-2zm7 3 4 1 1.5 1.5-1.5.5-4-2zm7 3 4 1 1.5 1.5-1.5.5-4-2zm7 3 4 1 1.5 1.5-1.5.5-4-2zm9 4 3.5 1.5-1.5.5-2.5-1.5zm7 3h2l3.5 2.5-1.5.5-4-2zm7 3 4 1 1.5 1.5-1.5.5-4-2zm7 3 4 1 1.5 1.5-1.5.5-4-2zm7 3 4 1 1.5 1.5-1.5.5-4-2zm9 4 4 1 1.5 1.5-1.5.5-4-2zm7 3 4 1 1.5 1.5-1.5.5-4-2zm7 3 4 1 1.5 1.5-1.5.5-4-2zm7 3 4 1 1.5 1.5-1.5.5-4-2zm9 4 3.5 1.5-1.5.5-2.5-1.5zm7 3h2l3.5 2.5-1.5.5-4-2zm7 3 4 1 1.5 1.5-1.5.5-4-2zm7 3 4 1 1.5 1.5-1.5.5-4-2zm7 3 4 1 1.5 1.5-1.5.5-4-2z"/><path fill="#99cafe" stroke="#99cafe" d="M285.5 67h305l1.5 1.5v442l-1 1v3l-2 4v3l-2 6-9.5 21.5-1.5.5q2.5 1.5-1 3l-2 5-8.5 12.5-1.5.5v2l-5.5 6.5-2.5 1.5q-2.3 6.2-7.5 9.5l-4.5 2.5-2.5 3.5-3.5 1.5-1.5 2.5-5.5 2.5-.5 1.5-24 12-6 2h-3l-4 2h-4l-1 1-7 1q-1-2-2 0h-263l-11.5-6.5-.5-1.5q-3 .5-3.5-1.5l-.5-1.5-1.5-.5 282.5-.5 9-3 3-2h2l17-9q17.9-11.6 31.5-27.5l11-14 9-14 11-22v-2l-3.5-.5-2-2-5-1-2-2-5.5-1.5-.5-1.5-6.5-1.5-.5-1.5-5-1-5-3-5.5-1.5-.5-1.5-6-1-8-5-6.5-1.5-.5-1.5-5-1-5-3-5-1-2-2-5.5-1.5-.5-1.5-6.5-1.5-.5-1.5-5-1-5-3-5.5-1.5-.5-1.5-6-1-8-5-6.5-1.5-.5-1.5-5-1-16.5-7.5-.5-2.5-.5 7.5-1 1v4l-1 1v3l-2 6q-4.5 11-13.5 17.5l-9 4h-13v-1h13l3-1q8.8-3.2 13.5-10.5l4-7 4-12q-1.3-4.7 1-6v-8l1-1v-16l-1-1v-10l-1-1-1-13-1-1-1-9-1-1-3-15-3-7v-3l-3-9-2-3-2-8-2-3v-2l-6-12v-2l-12-24-2-2-2.5-6.5-1.5-.5-6-10-.5-2.5-1.5-.5-13.5-20.5-2.5-1.5-1.5-3.5-3.5-2.5-4.5-6.5-10.5-9.5-.5-1.5-4-2-11-9-11-6-9-3h-4l-1-1h-7l-9 3-9.5 8.5-6 11-2 10-1 1v6l-1 1v28l1 1 1 15 1 1v4l1 1v4l1 1v4l1 1 2 11 2 4v3l6 18 2 3 1 5 5 10v2l3 5v2l15 29 16 25 14 18 21.5 21.5 11 8 10.5 5.5-1.5.5-9-5-11-8-15.5-14.5-16-19-12-17-12-20-7.5-15.5-4 2-2-2-1.5.5.5-1.5-6-2q-1.2 2.3-2.5-.5l-.5-1.5-5-1-3-3h-2l-1 1-2-2-1.5.5-.5-2.5-1 1-2-2-1 1-1-1-1.5.5q2.2-1.3-.5-2.5l-7.5-1.5-.5-1.5-5-1-5-3-5.5-1.5.5-1.5h-4l-3.5-1.5.5-1.5-6-1-4-3-4.5-.5-.5-1.5-8-2-2-2-5-1-2-2-5.5-1.5-.5-1.5-6.5-1.5-.5-1.5-5-1-5-3-5.5-1.5-.5-1.5-6-1-8-5-6.5-1.5-.5-1.5-5-1-5-3-5-1-2-2-5.5-1.5-.5-1.5-6.5-1.5-.5-1.5-5-1-2-2-8.5-2.5-.5-1.5-6-1-5-3-.5 306.5 61.5.5 3.5 3.5.5 1.5 5.5 3.5.5 1.5 2.5.5-1.5 1.5h-87l-1.5-1.5v-386l1-1-.5-1.5q1 2 2 0h9l1-1h6l1-1 9-1 1-1 7-1 4-2h3l12-4 13-6h2l5-3h2l16-8 24-15 2.5-.5.5-1.5 7-4 15-12 3.5-1.5 1.5-2.5 8-6 16.5-15.5 7.5-8.5 2.5-1.5 4.5-6.5 1.5-.5 2.5-4.5 1.5-.5q-.5-3 1.5-3.5l1.5-.5v-2l7.5-10.5 1.5-.5v-2l3-4 8-16 5-16zM297 78l-2 2-2 8-5 10v2l-11 20-9 13-18 21-5 5 2 1h6l1-1h10l1-1h9l1-1h10l1-1h9l1-1h10l1-1h9l1-1h10l1-1h9l1-1h10l1-1h9l1-1h10l1-1h9l1-1h10l1-1h9l1-1h10l1-1h9l1-1h10l1-1h9l1-1h10l1-1h9l1-1h10l1-1h9l1-1h10l1-1h9l1-1h10l1-1h9l1-1h10l1-1h9l1-1h10l1-1h9l1-1h10l1-1 1 2V79zm170 65-3 1v2l-2-1v2l-1-1-2 1-2 3q-4 1-1 3l-1-1-2 3 1 2h-2l1 2-2 1 1 3-2 1q-1 3 1 4l-1 3v12l1 1v8l1 1 1 10 3 9v3l2 4v3l3 9 2 3 1 5 2 3v2l3 5v2l13 26q3 1 1 3h2l1 5h2l1 5h2q4 9 10 16v2h2q1 1 1 4h2l2 5h2l7 10q10 10 22 19l10 6 9 3h9l4-2q5-4 8-10l1-6 1-1v-7l1-1v-8l-1-1v-9l-1-1v-6l-1-1v-4l-3-9v-3l-2-4v-3l-3-9-2-3-1-5-2-3v-2l-12-25v-2l-1-1-11-19-10-15-6-7v-2l-1-1-3-4-1-1-4-3v-2l-4-4-7-7-4-5-1 1q-3-1-1-2l-1-1q-2-4-3-1-3-1-1-2l-1-1q-1-2-2 0v-1l-1-1q-1-2-2 0l-1-1h-1v-2l-2 1v-2l-2 1v-2l-2 1v-2l-3 1h-2l2-1v-1q-4-1-4 1h-7l7-1zm-224 17-4 4h1l4-3zM86 302l-1 1 3 1h1q0-2-3-2Zm16 7-1 1 3 1h1q0-2-3-2Zm7 3-1 1 3 1h1q0-2-3-2Zm7 3-1 1 3 1h1q0-2-3-2Zm7 3-1 1 3 1h1q0-2-3-2Zm9 4-1 1 3 1h1q0-2-3-2Zm7 3-1 1 3 1h1q-1-2-3-2Zm7 3-1 1 3 1h1q0-2-3-2Zm7 3-1 1 3 1h1q0-2-3-2Zm14 6v1l4 2h1l-3-3zm9 4-1 1 3 1h1q0-2-3-2Zm7 3-1 1 3 1h1q0-2-3-2Zm7 3-1 1 3 1h1q0-2-3-2Zm17 6-2 2 5 1v-1h-1zm6 4v1l4 1v-1h-1zm5 2v1h2zm3 1q-2 1 1 2h2zm4 2v1h2zm3 1q-2 1 2 2v-1zm6 3v1l4 2h1q-1-4-5-3Zm9 4v1l4 1v-1h-1zm5 2v1h2zm3 1q-2 1 1 2h2zm4 2v1h2zm3 1q-2 1 1 2h2q0-2-3-2Zm9 3q-3 1-1 2h1zm3 1q-3 1-1 2h1zm4 2-2 2 5 1v-1h-1zm6 4v1l4 1v-1h-1zm6 0-2 3h2l1 1zm136 27-1 3h1zm1 7-1 6h1zm1 10-1 19 2 1h1l-2-2zm6 21-1 1 3 1h1q-1-2-3-2Zm9 4-1 1 3 1h1q0-2-3-2Zm7 3-1 1 3 1h1q-1-2-3-2Zm7 3-1 1 3 1h1q0-3-3-2Zm7 3-1 1 3 1h1q0-2-3-2Zm14 6v1l4 2h1l-3-3zm9 4-1 1 3 1h1q0-2-3-2Zm7 3-1 1 3 1h1q-1-3-3-2Zm7 3-1 1 3 1h1q0-2-3-2Zm9 4-1 1 3 1h1q0-2-3-2Zm7 3-1 1 3 1h1q0-2-3-2Zm7 3-1 1 3 1h1q0-2-3-2Zm7 3-1 1 3 1h1q0-3-3-2Zm14 6v1l4 2h1l-3-3zm9 4-1 1 3 1h1q0-2-3-2Zm7 3-1 1 3 1h1q-1-2-3-2Zm7 3-1 1 3 1h1q0-2-3-2Zm12 2-1 3h1z"/><path fill="#99cafe" stroke="#99cafe" d="m144.5 473 .5.5-3.5 3.5-.5-.5zm229 16 7.5 2.5-2.5.5-5-2zm-143 24 2.5.5-2.5.5zm30 0 4.5.5-4.5.5zm10 1 2.5.5-2.5.5zm7 1 2.5.5-2.5.5zm6 1 2.5.5-2.5.5zm9 2 2.5.5-2.5.5zm2 35 9.5.5-9.5.5zm50 4 2.5.5-2.5.5zm6 1 2.5.5-2.5.5z"/><path fill="#fe9803" stroke="#fe9803" d="M139.5 12h21q.8 1.8 4 1l7 3 7.5 6.5 4 8 1 9-1 1v6q-1.7.8-1 4l-8 17Q163.6 83.6 149.5 96q-12.5 11-27 20l-24 12-15 5-8 1-1 1h-6l-1 1h-13l-1-1h-5l-6-2-9.5-6.5-5-9-1-11 1-1v-5l3-9 5-10Q45.3 66.8 57.5 55l18-15 17-11 21-10 12-4h3l5-2h5zm-2.5 9-1 1h-6l-9 3h-3l-13 6h-2l-16 9-15 11-18 18-9 13-5 11-1 8-1 1 1 10 4 7 6 4 11 4h16l1-1h5l1-1h3l1-1h3l6-2 8-4h2l15-8 18-13 17-17 7-10 3-7h-1v-1l-27-39 3-1z"/><path fill="#fe9803" stroke="#fe9803" d="M201.5 16h24l1 1h4l1 1 7 1 10 5 8.5 7.5 4 6 3 8q-1 4 1 5v12l-1 1v5l-1 1-1 7-2 3-1 5-10 19q-17.1 26.4-40.5 46.5l-21 17-21 14-12 6-2 2-28 13-18 6h-3l-4 2-8 1-1 1-12 1-1 1h-23l-1-1h-5l-1-1h-3l-6-2-8-4-8.5-7.5-3-4-4-10q.8-3.3-1-4v-14l1-1v-4l1-1 2-10 5.5-10.5 3 3 12 5q4-1 5 1h21l1-1h5l1-1h4l1-1 7-1 12-4 3-2 7-2 21-11q28.4-17.1 49.5-41.5l11-15 9-18 2-10 1-1v-15l-3-8 4.5-.5zM159 114l-25 18-25 14h-2l-7 4-5 1-6 3h-3l-8 3h-4l-1 1h-7l-1 1H53l-1-1h-6l-1-1h-3l-6-2-6-3-3 6-1 11-1 1 1 13 3 7 3 4 9 6h2l6 3h4l1 1h25l1-1h6l1-1h4l1-1h4l5-2h3l4-2h3l9-3 3-2 10-3 5-3h2l22-11 19-12 7-6-1-3-25-37z"/><path fill="#ffb850" stroke="#ffb850" d="m136.5 21 4.5.5-3 1L165.5 62l1.5-.5q-4.4 10.1-11 18L138.5 97l-1.5-.5-3.5 4.5v-2l-2 1 .5-1.5-2-2-35-53-5-5q1-2.5 2-1l-.5 1.5 2.5-1.5-.5-1.5 2 1-.5-1.5 1.5-1.5 21-9h3l9-3h6zm-60 26 .5.5-2.5 2.5-.5-.5zm-5 4 .5.5-3.5 3.5-.5-.5zm-15 15 .5.5-2.5 2.5-.5-.5zm-18 35 .5 5.5h-1zm93 0 .5.5-2.5 2.5-.5-.5zm30 11 .5.5-2 2 2 2 25 37 .5 2.5 3-2q1.5 1-1 2l-21 15-19 10-2-1v2l-2-1v2l-2-1v2l-3-1-1.5.5 1-2-25.5-36.5-1.5.5 1-1-.5-1.5 2 1v-2l2 1-.5-1.5 1.5-1.5 15-8zm-118 6 2.5 2.5-.5.5-2.5-2.5zm6 40 2.5.5-2.5.5zm16 0 2.5.5-2.5.5zm-40 11 .5 7.5h-1zm7 24 2.5 2.5-.5.5-2.5-2.5zm44 10 2.5.5-2.5.5z"/><path fill="#ffd89f" stroke="#ffd89f" d="M96.5 35q1.5 1-1 2L91 39.5l4 4 22 34L132.5 99l3-2 .5.5-3.5 3.5-18 12-18 8-2-1v2l-3-1v2l-4-1v1l1.5.5-1.5.5q-1-2-5-1l-2 1v-1l1.5-.5-5-9-3-3L51.5 77q-1.7 3.8-3.5.5l1.5.5 1.5-1.5-1-2 1.5.5 1.5-1.5-1-2 6-5-1-1L67.5 55l14-11zm43 59 .5.5-2.5 2.5-.5-.5zm-78 32 3.5.5-3.5.5zm8 0 4.5.5-4.5.5zm49 15q1.5 1-1 2l-3.5 1.5 3 3 23.5 35.5h2l6-3v1l-25 11-18 6h-3l-6 2-2-1-1 2-5-1v1l1.5.5-2.5.5-1-1h-6q-1 2-5 1v-1l2.5-.5L51.5 161l-4.5-.5 7.5-.5 1-1h8q1 2 5 1v-2h6l1-1h3l1-1h3l1-1h3l9-3z"/><path fill="#ffd89f" stroke="#ffd89f" d="m81.5 202 2.5.5-2.5.5zm-26 1 2.5.5-2.5.5zm17 0 3.5.5-3.5.5z"/><path fill="#e9f3fc" stroke="#e9f3fc" d="m59.5 64 .5.5-4.5 4.5-.5-.5zm-5 6 .5.5-2 2-2 4 3 3L82.5 123l7-1v1l-6 1-1 1h-4l-1 1h-8q-.7 1.7-4 1l-1-1h-7q-.7-1.7-4-1-7.4-2.6-11.5-8.5l-3-7v-10l1-1 1-7 6-12zm242 8 284.5.5-.5 51.5-1-2-1 1h-10l-1 1h-9l-1 1h-10l-1 1h-9l-1 1h-10l-1 1h-9l-1 1h-10l-1 1h-9l-1 1h-10l-1 1h-9l-1 1h-10l-1 1h-9l-1 1h-10l-1 1h-9l-1 1h-10l-1 1h-9l-1 1h-10l-1 1h-9l-1 1h-10l-1 1h-9l-1 1h-10l-1 1h-9l-1 1h-10l-1 1h-9l-1 1h-10l-1 1h-9l-1 1h-10l-1 1h-9l-1 1h-10l-1 1h-9l-1 1h-10l-1 1h-6l-1-1-5 5-4 3-.5-.5 6.5-6.5 7.5-6.5 18-21 9-13 11-20v-2l5-10 2-8zm170 65h7q.8 1.7 4 1l10.5 5.5-1.5-.5-9-4q-3.2.8-4-1h-6l-6 2-6.5 6.5-2.5 5.5-.5-1.5 6.5-9.5zm23 7q9.6 5.4 16.5 13.5l-.5.5-6-6-9-6q-2.5-1-1-2Zm-460 3 13 5 12.5 1.5-8 1 4.5.5 1.5 1.5 25 38-3 1 4.5.5 1-1h6v1q-4.7-1.2-6 1h-8l-1 1h-13l-1-1h-6l-1-1-6-1q-8.4-3.1-13.5-9.5l-3-5-1-6-1-1v-13l1-1v-5zm35 6 4.5.5-4.5.5zm387 0 .5 2.5h-1zm-1 4 .5 3.5h-1zm12 5h5l6 3 12.5 11.5 12 17 11 24 2 10 1 1v4l1 1v11q-1.8.8-1 4l-4.5 4.5h-6l-6-3-11.5-10.5-9-12-6-10-6-13-5-15-2-16 1-1 1-7 2.5-2.5zm51 3 3.5 3.5-.5.5-3.5-3.5zm-425 29 3.5.5-3.5.5zm190 46q1.8 1.7 6 1l9 5 13.5 13.5 11 16 12 26 1 6 3 8v3l1 1v5l1 1v20l-3 8-4.5 4.5q-3.2 2.3-10 1l-10-5-9.5-8.5-8-10-9-14-10-22-2-6v-3l-2-4v-3l-1-1v-4l-1-1v-7l-1-1v-12l1-1 1-7q1.7-4.8 5.5-7.5zm65 4 2.5 2.5-.5.5-2.5-2.5z"/><path fill="#312c86" stroke="#312c86" d="m560.5 260 3.5 7.5 3 9v3l2 4 1 7 1 1 1 10 1 1v11l1 2-1 3v7l-1 1-1 6-5.5 7.5-4 2h-11l-9-4-10-7-17.5-17.5-10-13 .5-.5 4 4 1-1 51.5-39.5q-1.7-1.5-.5-3.5Zm-159 111 3.5 10.5 1 7 1 1v4l2 6v5l1 1v6l1 1v11l1 1v10l-1 1v9l-1 1v4l-1 1-1 6-4 8-4.5 5.5-8 5q-3.2-.7-4 1h-9l-1-1h-3l-6-2-15-9-21.5-20.5-14-18-7-11 .5-.5 2.5 2.5 2.5 4.5 86.5-41.5-2-6zm-288 172 .5 4.5h-1z"/><path fill="#969696" stroke="#969696" d="m297.5 255 6.5 6.5-.5.5-6.5-6.5zm39 83 .5 7.5h-1zm-15 27 2.5.5-2.5.5z"/><path fill="#2c3037" stroke="#2c3037" d="m592.5 67 .5 441.5h-1zm-350 70 .5.5-2.5 2.5-.5-.5zm226 8 3.5.5-3.5.5zm-8 3 .5.5-3 3 .5 1.5h9l1-1h9l1-1 6.5-.5-4-2 1.5-.5q10.6 4.9 18.5 12.5l7 8-.5.5-2-2-2 1-20 1-1 1-5.5.5.5 1.5-5-3-1.5.5.5-1.5-2 1v-2l-4 1v-2l-2.5.5.5 1.5-3-1 .5 1.5-2.5 2.5-1.5-.5-1.5 3.5-1-2-1.5.5-.5 1.5-1.5-6.5 2-3-1-2 4-10zm-124 96 4.5 4.5-.5.5-4.5-4.5zm-79 20 .5 2.5h-1zm0 12 .5 3.5h-1zm303 78 3.5.5-3.5.5zm-225 105 4.5 4.5-.5.5-4.5-4.5zm6 6 3.5 3.5-.5.5-3.5-3.5zm-50 87 10.5.5-10.5.5zm-154 53 2.5 2.5-.5.5-2.5-2.5zm5 5 2.5 2.5-.5.5-2.5-2.5z"/><path stroke="#000" d="M.5 0 149 .5l-6.5.5-1 1h-4l-1 1-11 2-9 4-5 1-17 8-28 18Q50.3 48.3 37 63.5l-13 18-7 14-3 9v4l-1 1v13l4 12-3 4-8 17-4 12L.5 178zm167 0L609 .5l-.5 48.5-322.5-.5Q284 26 269.5 16l-8-5-15-5q-4.7 1.3-6-1h-28l-1 1-12 1-1 1-8 1-1 1-3-3-8-4-6-1-1-1h-4zM.5 193q3 19 16 28l13 7 6 2h4l1 1h5l1.5 1.5-.5 407.5-46.5-.5zm608 329 .5 117.5-116.5.5v-1h4l1-1h4l8-3h3l21-9 13-8 9-7 17.5-17.5 15-21 9-17v-2l3-5 3-10 2-3v-3z" opacity=".004"/><path fill="#7190be" stroke="#7190be" d="m450.5 172 .5 8.5h-1zm-163 46 4.5.5-4.5.5zm232 110 7.5 7.5-.5.5-7.5-7.5zm-98 107 .5 7.5h-1zm-180 78 10.5.5-10.5.5zm38 40 2.5.5-2.5.5zm35 0 2.5.5-2.5.5z"/><path fill="#445e78" stroke="#445e78" d="m286.5 66 304.5.5-304.5.5zm180 79 5 1 2-1 3 2 1.5-.5.5 1.5 2-1 1 2 4.5 2.5-1.5-.5h-6l-1 1h-9l-1 1h-9l-2 2q-2.5-1-1-2 1.3 2.3 2.5-.5l3.5-5.5 1.5.5.5-1.5 2 1zm39 19 7.5 7.5-.5.5-7.5-7.5zm-26 11 3.5 3.5-.5.5-3.5-3.5zm-146 66 2.5 2.5-.5.5-2.5-2.5zm-76 39 .5 2.5h-1zm-144 260 .5 2.5h-1zm0 8 .5 2.5h-1zm-48 74 89.5.5-89.5.5zm151 0 263.5.5-263.5.5z"/></svg>