<svg xmlns="http://www.w3.org/2000/svg" viewBox="0 0 400 640"><path fill="#1b1716" stroke="#1b1716" d="m349.5 304 .5.5-4.5 4.5-.5-.5zm-70 2 13 9 1.5-.5.5 1.5q3-.5 3.5 1.5l-3.5 5.5.5-1.5 1-3-9.5-5.5-7.5-6.5zm41 3 2.5 2.5-.5.5-2.5-2.5z" opacity=".949"/><path fill="#1b1716" stroke="#1b1716" d="m342.5 310 .5.5-2.5 2.5-6 4h-2L313 327.5l.5 1.5 6-1q3.4-3.1 9-4l2-2 .5.5-2.5 2.5-11 5h-6l-1 1q-1-2-2 0l-5.5 2.5 1 2-4.5 4.5-.5-.5 1.5-2.5 2.5-1.5-.5-1.5q-4-1-5 1l-2.5-5.5 7.5-1.5 4.5-4.5 1-2-2.5-2.5-3-1-3 1v-1l2.5-.5.5-1.5 2 1 1-2 3-1 3 2 1.5-1.5-.5-1.5 3 2h2l2-1v2l3 1 5-3h4q1.5 1-1 2l-2-1-3.5 2.5 3.5.5 5.5-2.5.5-1.5 3-2q1 2 2 0zM307 328v2l2-1zm-10.5-14 2.5.5-2.5.5zm-22 4 9 10 1-2 6-5-.5 1.5-3 4 1.5 1.5 3.5.5-2 2 .5 1.5-1-1h-7l-1-1-7.5-.5 2-1-6.5-1.5-2.5-2.5 2-1-.5-1.5q1.3 2.3 2.5-.5l.5-1.5 3 1-.5-1.5zm-7 15 6.5.5.5 1.5q2.2-1.8 7-1v1l-5.5.5 2 1-4.5.5-6-3z" opacity=".949"/><path fill="#1b1716" stroke="#1b1716" d="m308.5 333 .5 1.5-4.5 6.5.5-1.5 1-3-.5-1.5 2.5-.5zm13 0 1.5.5q-5 4-7 11l2 4v5l-2.5 3.5-4 1v-1h2l3.5-3.5v-5q-2.7-.7-2-5l2.5-6.5 3.5-2.5zm-41 6 2.5 1.5-1.5.5q-2.5-1-1-2Zm6 1 2.5 1.5-3 1 2 1-1.5 2.5-3.5-2.5 2-1zm5 0 1.5 2.5h-1zm-16 4 2 2 1-1 1 1 1.5-.5.5 1.5 4.5 2.5-1.5.5-3-2-5 3-4.5-2.5.5-1.5 2 1-.5-1.5 1-1zm15 2q1.5 1-1 2l-1.5-.5zm9 4 .5 1.5-5.5 11.5q-3 .5-3.5-1.5v-2l-4-6 1.5.5q4.3.8 5-2l.5 1.5-3 4 2.5 4.5zm54 2v2q4-.5 4.5 2.5l-4 2 4 2-1 3 .5 1.5 1.5.5-4 1 4 2-2.5.5-1-1-17.5-.5 11.5-.5 1-1 4.5-.5 1-3-3.5-3.5q-1.2 2.2-2.5-.5.3-4.7 3.5-6.5Zm-44 6 .5.5-2.5 2.5-.5-.5zm-35 4 1 1 1.5-.5-2.5 3.5h-2l-9.5 5.5 1 2-4.5 5.5-3.5 1.5-.5 2.5-1.5-.5 2-4-4-1 6-3 2.5-6.5q1 2 2 0h2l3-3h2zm-12.5 8q-2 5-6 8h2l4-5zm63.5-7-.5 1.5-2.5 4.5-.5-1.5zm40 2 2.5.5-2.5.5zm-75 1 2.5.5-2.5.5zm4 1 7 2 2-2 .5.5-2.5 4.5-1-2-6-2zm38 1 3.5.5-3.5.5-7 4h-3l-1.5-.5v2l-5.5 9.5-5-1-9.5-5.5 2.5-4.5.5 2.5 5.5 5.5.5-1.5-4-5v-2q1-1.5 2 1 1.4 6.1 6.5 8.5l.5-1.5-3-6h1l2.5 4.5 5-9 1.5.5.5 1.5q6.5-.5 10-4Zm31 1 2.5.5-2.5.5zm-110 15 1.5.5-2 6v3l-1.5 2.5q-1-2-2 0-3 .5-3.5-1.5l1.5.5q3 .5 3.5-1.5v-3zm93 1 2.5.5-5 3 .5 4.5 1.5.5-2 1 1 2q-2 1 0 2l3.5 4.5 4.5.5-4.5.5-4.5-3.5-1-3v-7l-1-1 2-2-.5-.5-4.5-.5 6.5-.5zm23 0 1.5.5q-.5 2-3.5 1.5v-1zm-38 1 1.5.5-3.5 2.5h-2v-1zm26 0 2.5.5-2.5 1.5zm-104 17 5 1 6 4 1-2 1.5 4.5-1 2 1 2-3 4q2 1 0 2l-.5 3.5q-.7-1.7-4-1l-2.5 2.5q.8 3.8-1.5 4.5l-1.5-.5 2-1v-5l-1-3 1-2-1.5-.5q-.7 1.8-4 1l-9-4-8-1-1-1h-4l-6.5-2.5 5.5-.5 1 1h4l1 1 11 2 4 2h6l3.5-2.5 1-7-5.5-2.5zm6.5 15-1 2h3v-1h-1zm71.5-13 5.5.5-5.5.5z" opacity=".949"/><path fill="#1b1716" stroke="#1b1716" d="m266.5 417 1.5 4.5q-1 1.5-2-1zm108 2 2.5 1.5-1 1 .5 1.5-4.5-1.5.5-1.5zm-149 3 7.5 1.5-2 1-1.5 3.5-.5-1.5q2-1 0-2l-.5-1.5q-4 .8-3-1Zm43 2 1.5 3.5h-1zm-43 3 2.5.5-.5 1.5-2.5-1.5zm20 0h2l5.5 3.5-5.5 6.5-5.5 2.5-1 6 1 2-1 2 1 3-2 1-4 7q2.3 1.3-.5 2.5l-1.5.5.5 1.5-8.5-4.5 1.5.5 6 2 1.5-2.5-1-2 5-9-3-3 .5-.5 3 2 .5-2.5-4-2 4-1 1-5 2-2v-3l-2-1 4-1 1-2zm25 2 1.5 2.5q-1 1.5-2-1z" opacity=".949"/><path fill="#1b1716" stroke="#1b1716" d="m230.5 431 2 3 2-1 1.5.5.5-1.5 1 4 2.5.5q-1.7 3.3-3.5-.5l-3.5.5 3 1 1 3-3 4 .5 1.5-1.5-.5v-2l2-3-5.5-4.5-2.5 4.5q.9 5.4-1.5 7.5l-5.5-3.5 1.5-.5 3 1q2.7-1.2.5-2.5l3-7-3-1 2.5-1.5 2 1zm127 1 .5.5-2.5 2.5-.5-.5zm-85 1q5.2 11.3 13 20l2-3 .5 1.5q-2.2 1.3.5 2.5.5-2.5 4-2v1q-3-.5-3.5 1.5l1.5 2.5 1.5-.5-.5 1.5 2.5.5.5 1.5 8 5q.8-1.7 4-1l.5 3.5-3.5 4.5q-7.4-2.1-11.5-7.5l-.5-1.5-1.5-.5-16-24-2-4zm103 0 4.5.5-4.5.5zm-22 3 .5.5-2.5 2.5-.5-.5zm-5 5-.5 1.5-2.5 3.5.5-1.5zm-311 1 2 6 5.5.5-1.5 2.5q-5.2 1.3-6.5-1.5 2-1 1-5-1.7-.7-.5-2.5Z" opacity=".949"/><path fill="#1b1716" stroke="#1b1716" d="m230.5 444 1.5.5-2.5 1.5q-1.5-1 1-2Zm-72 3 2.5.5 1.5 2.5 1.5.5-2.5 1.5-3.5-3.5zm69 0 2.5 1.5-2.5.5zm-62 3 .5 2.5-1.5.5.5-1.5zm213 0 2.5.5-2.5 2.5-.5-.5zm-52 1-.5 1.5-1.5 2.5-.5-1.5zm11 4 .5.5-2.5 2.5-.5-.5zm-292 1 2.5 1.5 1 2-1.5.5-2.5-3.5zm276 0 .5 1.5-3 3v2l-3 3-5.5 9.5-1.5.5 5.5 1.5 1-1 7.5-.5-3-2 .5-1.5 7.5-2.5-.5-1.5 1.5.5 4.5-9.5 1.5.5-2 2-1 4 1 2-.5 1.5 9-1v1l-6.5 1.5q.5 2 3.5 1.5l3-1h2l4 3h9l2-1v1l-4 1-2 2-1-1h-8l-1-1-1 2-10 4-13 1-1-1h-5l-6-2-9.5-5.5 1.5.5q2.2 1.8 7 1l4.5-4.5.5-2.5 1.5.5 2.5-4.5 1.5-.5 2-3-.5-1.5 1 1 2.5-2.5zm12.5 16-2 2 2 1h-2v1h8v-2q-4-1-4 1v-1zm-173.5-13 3.5 3.5-1 1-1.5 3.5-7.5-4.5 4.5-1.5zm62 0 .5 1.5-3.5 5.5-5.5-2.5 1.5-.5 2 1 2-3 2.5-.5zm60 0 11 12 2.5 1.5-1.5-.5-1.5.5v9l-1 2 2 1-2.5 1.5-1.5-.5-1.5 2.5-2-1-2 2-.5-.5-1-3 1.5-2.5 3 2 3.5-2.5-2-3 1-3q-2-1 0-2l.5-2.5 2.5-.5q-3.4-3.6-9.5-4.5l-4.5-3.5 1.5.5 5 2 .5-1.5-4-4zm-134 2 2.5.5-2.5.5zm80 2 2.5 2.5-.5.5-1.5-.5q.5 3-1.5 3.5h-2l-3.5-2.5 1.5.5 3.5-.5q-.5-3 1.5-3.5Z" opacity=".949"/><path fill="#1b1716" stroke="#1b1716" d="m328.5 464 .5.5-3.5 3.5-2 1q-1.5-1 1-2l1.5-.5-.5-1.5q1.5 2.5 3-1Zm-155 3 2 1 3-1 1.5.5-4.5 1.5-2.5-1.5zm-59 7 3.5 2.5-5 4 4.5 7.5 1.5.5-2 4v5l1 1v6l1.5 1.5.5-5.5-1-3 1-2q-2-1 0-2l.5-2.5.5 2.5q-2 1 0 2v5l1.5 3.5 1-10 .5 5.5 1.5 3.5 2-4 2.5 1.5 2.5 3.5 3-2 .5.5-2 2 1.5 2.5 1-2 1 4 2 1 1.5-.5q-2.2 1.2.5 2.5l1.5-.5-.5-1.5 3 2 1-2 1.5-.5q-2-1 0-2l-1-2 2.5-2.5.5.5q-3.5 1.5-1 3v5l-1.5 4.5-6-3-3-3-7.5-.5 1-2-1.5-.5-1 3-1-1h-7l-1-1-2.5 1.5-6.5 11.5-1.5.5-1.5 3.5-5 1-1.5 1.5-.5 1.5-1-1-1.5.5-.5-2.5-1.5-.5.5-1.5 1 1h6l.5-5.5-1.5-.5-2.5 3.5.5 1.5-1.5-2.5 3-4-3.5-.5-3.5-2.5q.8-3.3-1-4l1.5.5 4.5-3.5v-5l2-4v-11q1.8-.7 1-4l5.5-8.5q4 1 5-1Zm-3.5 5-6 9 2 2 5-10zm3 7-4 6v8l2 4v-10l2-5zm2 3-3 5 1 9 2 1v-12l1-2zm-11 2v3l2-1v-1zm24 10v4q1 2 2 1 1-5-2-5Zm-26 13-4 2h5q1-1-1-2Zm79.5-38 .5 1.5-2 6q2 1 0 2 .8 3.8-1.5 4.5l-1.5-2.5q2.8-.7 2-5-2-1 0-2l-.5-2.5-1.5-.5zm-124 1 4.5 4.5-.5.5-4.5-4.5zm30 2-.5 1.5-3 9-3.5 4.5-2.5-.5 3-1q-.5-3.5 2-4-2-1 0-2 1-5 4.5-7.5Zm267 0 2.5.5-1 2 1 1v6l-1.5.5-.5-6.5-1-1zm-190 1 11.5 7.5-1.5-.5-2-1-1 2-5-2q-1.5 2.5-3-1-3.7.8-4.5-1.5l.5-1.5 4.5-.5zm-102 3 5.5 5.5-.5.5-5.5-5.5zm122 4 .5 5.5q-2 1 0 2v7l1 1q-2 1-1 5l-4.5 5.5-1.5.5-.5 1.5-7.5 4.5 8 4q.8 4.8-2.5 5.5l-1.5-.5q1.8-.7 1-4-.7-3.2-5.5-2.5l-2 1 .5-1.5-1.5-1.5-5.5-.5 2-4v-4l1-1 .5-4.5 1.5.5 1.5 4.5 5-3 1 3 2-7 2.5-.5-.5-1.5 2 1-.5-1.5 1-2-1-3q2-1 0-2l.5-3.5 1 4 2.5-.5-2-1 .5-1.5 1.5-.5-1-3zm-2.5 10-1 2h2v-1zm-2 10v4l1-3zM70.5 489l5.5 2.5-1.5.5-4-2zm286 1 .5 3.5-1.5.5-.5-2.5zm4 1 .5 3.5-1.5.5-.5-2.5zm-80 3 2 5 4-1 5 6 2-1q1.5 1-1 2l-2-1q-1 2-2 0l-5 1-6.5-5.5.5-3.5q1.3 2.2 2.5-.5zm-193 7 4.5 1.5-2.5.5-2.5-1.5zm268 3 2 4 3-2 1 5q3 .5 3.5-1.5l-.5-1.5 2.5-.5.5-1.5q2.5 1 1.5 5.5l-2.5 1.5-3-1-3 1-2-1-2 1-1.5-1.5q1-4-1-5zm-201 4 4.5 2.5-3.5.5-2.5-1.5zm129 3 1.5 4.5v5l2 4-3.5.5q-2.7-1.2-1.5-6.5l1-1z" opacity=".949"/><path fill="#1b1716" stroke="#1b1716" d="m96.5 519 .5 3.5h-1zm-4 2-.5 1.5-2.5 4.5.5-1.5zm264 0 1.5.5 1 4-1 1 1 3 1 4-3.5.5zm-282 3 1.5.5-.5 1.5-1.5-.5zm5 0h2l3.5 2.5 1.5 2.5 1.5-.5-.5-1.5 1.5 1.5-2.5 2.5-1.5-.5 1 2-.5.5-2-2-1.5-.5-3-5zm68 3 1 2 3.5.5-3.5.5q-2.4-.9-1-3Zm21 0 1 1 1.5-.5-.5 1.5q4.3-.7 5 2l1.5-.5-2.5 1.5-1-2q-1 2-2 0l-3.5-2.5zm-64 2 .5 2.5h-1zm50 0 2 4 1-1 1 1 1.5-.5q-1.7.8-1 4l-1.5 1.5-1.5.5-.5 1.5-1-2-1 2q-1-2-2 0l-3.5-1.5 1.5-.5q1 2 2 0l4.5-1.5q.7-5.3-3-6zm-82 1 2 4 1.5.5.5 1.5 5-3 .5.5-2 2 1 4h-1l-1.5-3.5-3 1-3.5-4.5zm23 0 .5 2.5h-1zm10 3 .5 2.5h-1zm75 0 .5 5.5h-1zm-84 1 2 7 1.5.5.5 1.5q1.3-2.2 2.5.5l.5 4.5 4.5.5 1 3-1 2 1 2q-.7 2.3-4.5 1.5l-.5-.5 3-3-3.5-4.5q-3.2-.7-4 1l.5-1.5-1-1-2-10-1-1zm4.5 11-1 2h2q1-1-1-2Zm46.5-11 .5 2.5h-1zm23 0 2.5 2.5-.5.5-2.5-.5zm-99 4 3.5 7.5h-3zm100 0 1 2 1-2 1.5.5-1 4h2q-1 4 1 5-2 1 0 2v6l-1.5 1.5-2.5-.5v-6l-1-1v-6l-1-1zm-65 2 .5 2.5h-1zm-25 1 .5 2.5h-1z" opacity=".949"/><path fill="#1b1716" stroke="#1b1716" d="m106.5 544 .5 2.5h-1zm43 0 .5 2.5h-1zm-67 2 .5 4.5h-1zm-9 1 1 3 2.5 1.5q-.6 4.1 1.5 5.5l4 1 1-4 2.5 7.5q-2 1 0 2l-1.5 2.5-3 1-1-2-3 1-2.5-3.5h1l.5 1.5q4.2-.7 6 1l1.5-2.5-4.5-4.5h-2l-2 2-.5-.5q2-1 0-2v-3l-2-5zm161 2 2.5 1.5 1.5 2.5 11.5 3.5-4.5.5-1-1-6-1-4.5-2.5-1-2zm79 0 1.5.5-3.5 2.5-6 2-14 2v-1h4l1-1h4l1-1 7-1zm-214 5 1 1 1-1 1 1 1.5-.5q-.5 2-3.5 1.5-2.5-1-1-2Zm54 0q2.5 1 1 2l-1.5-.5zm178 0 2.5.5q-2.5.5-2 4l3.5 5.5 7 5 4.5 1.5-3.5.5-12-4-7.5-6.5q-.5-4 2.5-4.5zm-153 2 3.5.5 1 3q-2 1 0 2l-2.5 4.5-2.5-1.5.5-1.5-2 1-3.5-2.5-1-2q1-1.5 2 1l.5 1.5q4-1 5 1l2.5-3.5-4-3zm104 0 3.5.5-3.5.5zm-131 1 1 2 4.5 1.5-2 1q-.7 3.3 1 4l-3.5 1.5-.5-5.5-1-1zm100 0 3.5.5-3.5.5zm17 0 4.5.5-4.5.5zm-169 3 .5 1.5-.5 1.5 6 2h7l3 1q1-2 5-1l2-2 .5 1.5-1.5 1.5q-4.8-1.2-6 1h-9l-1-1h-6l-7.5-2.5 7-2z" opacity=".949"/><path fill="#1b1716" stroke="#1b1716" d="m160.5 561 .5 5.5 2 6-1.5 2.5-8-1-1.5-1.5-1-4h1q-.5 3 1.5 3.5l3 1q1-2 2 0l3.5-.5-2-1 1-2-3-2 .5-1.5 1.5-.5zm9 8 2 1 1.5-.5.5 1.5q.7-1.7 4-1v1l-2.5.5 4.5 1.5h6l3.5 1.5-8.5.5-1-1h-7l-4.5-2.5zm-94 1 2 4 16.5 2.5-13.5.5-7.5-2.5-.5-1.5-1.5-.5.5-1.5q3.3.8 4-1Zm273 1 4.5.5-4.5.5zm14 1 11.5.5-11.5.5zm-198 1 2.5.5-.5 1.5-2.5-1.5zm-65 1 1.5.5-4.5 1.5v-1zm52 5 1 3q2.2 1.8 7 1l1 1h6l1.5 1.5-7.5.5-1-1h-7l-6.5-3.5 1.5-1.5q3.3.8 4-1Z" opacity=".949"/><path fill="#282a30" stroke="#282a30" d="m333.5 170 2.5.5-2.5 1.5zm-16 56 9 3h3l1 1h4l2.5 1.5-1.5.5-1-1h-5l-1-1h-3l-6-2-2.5-1.5zm-33 24 1.5.5-2.5 4.5-1.5-.5zm-2 7 1.5 2.5-3.5 3.5-.5-.5 2-3-2-1zm-6 2 2.5 2.5-.5.5-2-2-1.5.5zm92 11 .5 2.5h-1zm-3 7q2 .5 1.5 3.5l-2 1-1.5 3.5-3.5 2.5-.5 1.5-3 1-6 6 .5-1.5q-.5-3 1.5-3.5h2l4.5-3.5.5-1.5 1.5-.5 3-4zm-6 13 .5 2.5-3 2-.5 1.5-1.5.5.5 1.5-1-1-3 3-8.5 5.5.5 1.5-2.5-1.5q1.2-2.8 5-3l.5-2.5 6.5-3.5.5-1.5 1 1 4.5-4.5zm-13 4 2.5.5-3.5 2.5.5-1.5zm-11 4 2.5.5-2.5 1.5zm-3 1 1.5.5q-1.4 2.1-5.5 1.5l-3 3v-2l-4.5-.5 4.5-1.5h6zm-20 2q1 2 5 1l1.5-.5-.5 1.5-4 2-1-2-4 3q-4.2-.7-6 1l-1.5-2.5 6.5-.5 3.5-1.5zm-27 1 1.5.5-.5 1.5 4 1 3-1q2.5 1 1 2l-1.5-.5-.5 1.5-5-1-1 1-2.5-2.5zm35 1 2.5 1.5-1.5.5-1-1-1.5.5zm-63 1-.5 1.5 1 1-1.5 2.5-1.5-.5zm39 0 3.5.5-3.5.5zm43 0v3q-3-.5-3.5 1.5l-.5 1.5-1.5-.5 1.5-4.5q3.3.8 4-1Zm-10 2q1.5 3.5 3 1l1.5.5-3.5 2.5-2.5-1.5zm-53 1 3.5.5-4.5 1.5q-1.5-1 1-2Zm-17 1 2.5.5-2.5.5zm1 2 3.5 1.5-.5 1.5 1.5.5-2.5.5-2.5-1.5zm30 5 3.5 2.5-1.5-.5q-3.8-.7-2-2Zm7 4h8l2.5 2.5-5.5 6.5-3 1h-5l-3.5-1.5 4-1-2-3 3-2zm-20 1 2.5 2.5-.5.5-2.5-2.5zm14 2 .5.5-3 3 1 2q-1 1.5-2-1zm46 1 2.5.5q-8.4 3.1-14.5 8.5l-.5-.5 2.5-2.5zm-19 1 1.5.5-6.5 3.5q-1.5-1 1-2zm3 2 3.5 1.5-5.5 5.5q-1-2-2 0l-4.5 1.5 4 3-.5 2.5-1-3-4.5-2.5 1-2-2.5-.5v2q-1.5-2.5-3 1l-1.5.5.5 1.5-1-1-1.5.5 1.5-2.5 1.5-.5 1.5-2.5 2-1 2 1 2-1v1l-1.5.5 2.5.5 1-2 2 1 2.5-2.5-.5-1.5 2 1zm-30 5 1 5q.8-1.7 4-1v1l-1.5.5-1 3q.5 2 3.5 1.5l4-3 .5.5-2 2-4 9-2 2 .5 1.5q-2.7-1.2-.5-2.5l-2.5-2.5-1.5.5-1 4 .5 1.5-1.5-.5-.5-1.5-2.5-1.5 2-3-4-3 1.5-.5 2 2 .5-.5.5-1.5 1 4 2.5-1.5q-2-1 0-2l.5-1.5 3.5-1.5-3-2-1-3z" opacity=".996"/><path fill="#282a30" stroke="#282a30" d="m323.5 333 1.5.5-4.5 3.5v-3q1.5 2.5 3-1Zm-49 1 2.5 1.5-1.5-.5q-2.4-.1-1-1Zm66 0 .5.5-2 2-.5 1.5-.5-1.5zm-70 1 2.5 1.5-1.5.5q-2.5-1-1-2Zm10 0 1.5.5-3.5 2.5h-2l-3 3-.5-.5 2-2-.5-1.5q4.6.6 6-2Zm1 3 2 1q1.2-2.2 2.5.5l-.5 1.5-1.5-.5 1 2-1.5.5-1.5-1.5.5-1.5q-4.2.8-6 4l-.5-2.5 1.5-1.5 1.5.5.5-1.5 1.5.5zm38 0-.5 1.5-1 4-1.5 1.5-1.5-3.5h1l.5 1.5zm-30 3q1.5 1-1 2l-2.5-.5zm48 0 .5 5.5h-1zm-23 3 .5 1.5q-1 2.5-2 1z" opacity=".996"/><path fill="#282a30" stroke="#282a30" d="m315.5 347-.5 1.5q1 5.5-2.5 6.5l-.5-.5 2-2q-1-4.5 1.5-5.5Zm35 0 .5.5-4 4-1.5 4.5-.5-1.5 3.5-6.5zm-32 1 .5 4.5h-1zm34 4q1 2 2 0l5.5 3.5-1 3 3 1-3 1-.5 1.5-1.5-.5.5-1.5q-3 .5-3.5-1.5l4-2q-.5-3-4.5-2.5l-1 1-1-1-1.5.5zm3.5 6v1h2zm-15.5-3 1.5 2.5h-1zm-63 2 .5 1.5-4.5 3.5-1.5-.5-.5 1.5q-4.5-1-5.5 1.5 2.3 1.3-.5 2.5l-2-1v2q-1-2-2 0l-1.5.5-.5 2.5-1.5-.5-1 3 .5 1.5q-1.2-2.2-2.5.5l-.5 1.5-3.5.5q2 1 0 2l-1 6-3 8 1 1-.5 1.5 3-1 4 6 1.5.5-.5 1.5 1.5.5-2 1-1 5 .5 1.5-1.5.5.5 3.5 2-1q1.5 1-1 2l-2-1q-.7 1.7-4 1v-1l2.5-1.5 1-8 1-1-6.5-3.5-12-2-1 3-2.5.5.5 1.5 1.5-.5-1 5 1 2-1.5.5q-1-2-2 0l-7.5-1.5 3-2 2.5-9.5q2.5-2 8-1l1 1 8 1 6 2q1.5-1-1-2l-2.5-.5.5-1.5-3 1-4.5-1.5 5-2 3-7q-2-1 0-2l2-7-3-5q1.7-.7 1-4l-1-2 2.5-3.5 3-2h6l3 2 5-3h2zm-26.5 8q-3 1-2 7l6 2v-2l3-2-1-1-1-1-3-3q-1 2-2 0Zm95.5-8 .5 1.5-.5 1.5q3.3.7 4-1 1.5 1-1 2l-6.5-.5 3-2zm-38 1q1 2 2 0l1.5.5-4 3-1 3h2l-3 3 .5 1.5-1.5-.5-.5 1.5-1.5-.5 4-8-.5-1.5q1.3 2.3 2.5-.5zm28 0 .5 3.5q-1 1.5-2-1z" opacity=".996"/><path fill="#282a30" stroke="#282a30" d="m282.5 359 6 8 1.5-.5q-2.2 1.3.5 2.5l5.5.5q.8 3.8-1.5 4.5l-3.5 1.5.5 4.5 1.5-.5q-1.7.8-1 4l.5.5 3-3 .5.5-2 3 1.5.5 2-3 1.5.5-1 2 1 3-2 1 3 5h-2l-.5 1.5-2.5-.5-.5-1.5-6 1q-1.5-2.5-3 1l-3.5-.5-1.5-2.5q-2.5 1-1 2l1.5.5-7.5.5-4.5-1.5 4-1-1-2 1.5-2.5 2 1 2-4 1.5-.5-3-2 4-2-.5-1.5-2 1-1.5-.5-2 3 .5 1.5-2 1-2-1q-1.2 2.2-2.5-.5l3-2-1-3q1.8-3.2 6.5-3.5.8 1.7 4 1v-1l-1.5-.5-1-2 3-2 1-2-1-1 3-3q.5-3.5-2-4zm5.5 14-1 3h1zm3 7-2 2 1 2h1zm-3 4q-3 1-1 2h1zm-10 6q-2 2 1 3l1-2zm18 0 1 3v-2zm1.5-28v2q4.8-.7 6.5 1.5l-2.5 3.5-7.5-2.5zm.5 3v2h3zm59.5-2 3.5.5-3.5.5zm-3 1q1.5 1-1 2l-1.5-.5zm5 1 5.5.5-.5 1.5-5-1zm-49 2 3.5 1.5-1.5.5-2.5-1.5zm11 1 .5 1.5-2 1-.5 1.5-3.5-2.5.5-.5 2 2zm16 0 2.5.5-2.5.5zm24 0 5.5.5-4 1 .5 1.5-2.5-.5 1-1zm-64 2q1 2 2 0l1.5.5-2 1 1 2h-1l-2-3zm5 1 1.5.5-1.5 2.5zm6 2 2.5.5-2.5.5z" opacity=".996"/><path fill="#282a30" stroke="#282a30" d="m299.5 377 .5.5-2 2 .5 1.5-1.5-1.5zm67 0 1.5.5-.5 1.5-1.5-.5zm-114 7 .5 2.5-2.5 6.5-.5-2.5zm97 0 1.5.5q-1 2.5-2 1zm20 0 1.5.5-3.5 1.5v-1zm-36 1 5.5.5-1.5 1.5-5 1 .5-1.5zm29 0 2 1 1.5-.5-.5 1.5-5 1-.5-1.5zm-15 1q1.5 1-1 2l-1.5.5-.5 1.5-1-2-2 2-.5-.5 1.5-2.5 2 1zm-21 3 2.5.5-2.5.5zm14 4 2.5 1.5-.5 5.5-.5-4.5-2-2zm-69 5 1 2 1.5-.5-2 3 1.5 1.5 24.5.5-27 1 .5 1.5q3.2 2.3 10 1l1-2 3.5.5.5 1.5h11l1-1 2.5 4.5-.5 1.5 1.5.5q-2 1 0 2l1.5 2.5 1.5.5-1 2 1 1v6l-1 2q2 1 0 2l-1 2q1.8.8 1 4-2.5 1.5 1 3l.5 2.5q1-2 2 0l2.5-.5.5-1.5 1 2 4 1 4-2 1.5 2.5-1.5-.5-3 2q-.7-1.7-4-1l-5 3q-.8-1.7-4-1l-1.5-1.5-.5-1.5-1 2-3-2-1.5.5-1.5-2.5-3-2-1 2-2.5-1.5-.5-1.5-2.5-.5-.5-1.5-5.5-3.5-.5-2.5-2 2-.5-.5.5-1.5 3.5-2.5-2.5-1.5-3 2-.5-1.5 6-3-.5-1.5q-1.2 2.3-2.5-.5.5-4-2.5-4.5l-.5 1.5 2 3-1.5-.5-1.5.5q.8 4.8-1.5 6.5l-.5-1.5 1-3h-1l-.5 1.5-1.5-3.5 1-1-3-3-.5-1.5-.5 3.5 9 19-.5.5-3.5-3.5q2-1 0-2l-2-3-.5-3.5-1.5.5 1 5 2 2v2l4 8-1 2h2l-1 2h2q-2 1 0 2l.5 1.5 1.5.5q-2.2 1.3.5 2.5l1.5-.5-1 2 4.5 4.5 1.5-.5q-2 1 0 2l2 3-.5.5-3-3-3.5-.5.5-1.5-4-1-1.5-1.5v-3l-1.5-3.5-1 3-.5-3.5-2-2-1-6 2-3h-2q2-1 0-2l-5-14 2-4-2-1q2-1 0-2l2.5-3.5 1.5.5.5 1.5.5-2.5-3-2 1-3q-2-1-1-5l1-2-1-3 .5-.5 3 3 1.5-1.5q-2.2-1.2.5-2.5Zm-1.5 5q-3 1-1 2h1zm-1 3q-2 3 1 5l2-1zm15 1-2 3h2l1-2zm-5 3-1 2-2 1q2 1 1 6l3 1v3l6 4h2l-2-4 1-2-1-1-1-4-2 1v-1l-1-1h2l-1-2 2-1-2-1q-1-2-2 0zm-8 2-1 1 3 4v-3zm17 1-3 3 2 2v-2l2-1q1-1-1-2Zm5 7-1 2q1 1 2-1zm-1 7-2 3q1 2 2 1zm0 5-1 3 3 1v-2zm10 4q-3 1-1 2h1zm0 3-1 2h2v-1zm-25 16-1 2h2q1-1-1-2Zm63.5-53 .5 1.5-3.5 2.5-.5-.5zm-84 3q2.8 1.3.5 2.5l-.5 3.5-.5-3.5 1-1zm6 1 2.5 1.5-1.5-.5q-2.4-.1-1-1Z" opacity=".996"/><path fill="#282a30" stroke="#282a30" d="m293.5 406 3.5.5-3.5.5zm-67 6 1 1 7.5 1.5-3.5.5-2-1q-1 2-2 0l-2 1 .5-1.5zm22 6 5 2 1-2 1.5.5q-1.8 2.2-1 7l-1.5 3.5q-3 .5-3.5-1.5 3.5-1.5 1-3l-1-3 .5-1.5q-3.8-.7-2-2Zm129 2 .5 3.5-1.5.5.5-1.5-1-1zm-151 3 2.5.5-2.5.5zm0 2 2 1 1.5-.5q-.5 2-3.5 1.5zm7 0 3 4 4.5 1.5.5 1.5 1.5.5-4 1 1 2-1.5.5q-2-.5-1.5-3.5l2-1-2.5-1.5-1.5.5q2.3-1.2-.5-2.5l-1.5.5q2-1 0-2zm-7 3q2.8 1.3.5 2.5l1.5 2.5 1.5.5-1.5.5-3.5-2.5zm16 0 2.5 1.5-.5 1.5-2.5-.5zm64 0 1.5 2.5q-1 1.5-2-1zm54 1 1.5.5q-1 2.5-2 1zm-88 1 3 4q3-.5 3.5 1.5l3 6-.5.5-3.5-3.5-.5-1.5-1.5.5.5-1.5-2.5-1.5-2-4zm106 2 2.5.5-2.5.5zm-136 3 .5.5-2.5 2.5-1.5.5 1 4h-3q-.7-4.7 2.5-5.5zm-17 1-.5 1.5-.5 1.5-.5-1.5zm125 2 1.5 1.5-3.5 3.5q-3-1.5 0-3l1.5.5zm-179 1 .5 2.5h-1zm61 0 .5 1.5-3 4 3 1-2.5.5-1.5-.5-.5 1.5-.5-1.5 3-3q-.5-3 1.5-3.5Zm-9 1 2.5 3.5-.5.5-2-2-2 2-3 1v-1zm99 0 1.5.5-2.5 2.5-.5-.5zm-48 1 2.5 1.5 7 12h-1q-1.8-5.2-6-8l1-1-4-4zm60 1 1.5.5 1 2-3.5.5-3 2q-1.5-1 1-2l1.5-.5zm5 0 1.5 2.5-2.5.5-.5-1.5z" opacity=".996"/><path fill="#282a30" stroke="#282a30" d="m329.5 443-.5 1.5-.5 1.5-1.5.5.5 2.5 2-1v1l-1.5.5-.5 2.5-1-1-2.5 2.5-.5 2.5-2.5.5-1.5 2.5-2.5.5-1.5 4.5-1.5.5-2.5 4.5-2-4-2 2-.5-.5 1-2-2-1-2-4q1-1.5 2 1l.5 1.5 2 1 2-5 1 2 2-1-.5 1.5.5 1.5 5-7 1.5-.5 3.5-5.5 1.5-.5zm-3.5 6-3 4h1l3-3zm-4 4-1 2h2v-1zm-148.5-9 4.5 1.5.5 1.5 1.5-.5q-1.7 3.3-3.5-.5l-3-1zm62 0 2.5.5-2.5 2.5-.5-.5zm4 1 .5 2.5h-1zm-16 1 2 2 .5-.5.5-1.5.5 5.5-2 1 .5 1.5-1.5.5 1 2-1.5 3.5-1.5-.5 1 3-2.5 3.5.5-1.5 1-3-2.5-.5-2 3-1.5-.5 3-4zm114 0 1 2 2-2 .5.5-3.5 2.5zm-170 3 2 2 1.5-.5-.5 1.5-2 1q-1.5-2.5-3 1l-2 1q-1.5-1 1-2l3.5-2.5zm175 0 .5.5-4 4-.5 1.5-.5-1.5 1.5-2.5zm-166 1 1.5.5-2.5 1.5q-1.5-1 1-2Zm-20 2 1.5.5q-2 1 0 2l-.5 3.5-1-3-5 2q-1.5-2.5-3 1l-1.5-1.5 1.5.5 2-2 2.5-.5-.5-1.5q1 2 2 0zm21 1 3.5 2.5-1.5-.5-2.5-.5zm10 0 2.5 1.5-2.5.5zm49 0-.5 1.5-2 5 2 2-.5.5-1.5-.5 1 2-1.5-.5-1.5-.5v-2zm-68 1-.5 1.5-1 3 .5 1.5-2.5-1.5.5-2.5z" opacity=".996"/><path fill="#282a30" stroke="#282a30" d="m313.5 454 1.5 1.5-1 1 .5 1.5-2.5-1.5 2-1zm13 2 1 1 1.5-.5.5 1.5 1.5.5-1.5.5-3.5-2.5zm-132 1 1.5.5-1 1 .5 1.5q-2.4-.9-1-3Zm142 0-.5 1.5 1 1 1.5 2.5 3.5.5 1 3q-2.2 1.3.5 2.5l4-1 1 2 5-1 2 2h6l1 1 5-2 5-5 .5.5-5.5 5.5-6 3v-2l-1.5.5-.5 2.5-2-1v2l-2.5-1.5.5-1.5-1.5.5-.5 1.5q-3.2.8-4-1l-2 1-5-4q-1 2-5 1v-1l5.5-1.5-4.5-.5q-.7 1.8-4 1-2.7-1.2-1.5-6.5zm-186 1 2.5.5-2.5.5zm171 1 .5 1.5-1.5.5q-1.5-1 1-2Zm8 1 .5 2.5h-1zm-9 3 2.5 1.5-1.5.5q-2.5-1-1-2Zm6 0q1.5 1-1 2l-1.5-.5z" opacity=".996"/><path fill="#282a30" stroke="#282a30" d="m357.5 463 2.5.5-7.5 2.5q-1.5-1 1-2 3.3.8 4-1Zm-190 1q4-.5 4.5 2.5l-1 1 2.5 2.5 4-1 2 1v-2l2 1v-2l3 1 1.5.5-3 1 2.5 3.5 1-2 1.5 3.5h-1l-.5-1.5-1.5 1.5.5 1.5q-3.3-.7-4 1h-7l-3.5 2.5 1 2h-1l-.5-1.5-2-1-1 2-2-1-1 2-4.5.5 1.5 2.5h3l2 2 3.5.5-2 1-1.5 3.5-3-1-1.5 3.5 3 1-.5 2.5-1-2-4-1-1.5 1.5.5 1.5-2.5-1.5 1-2-2.5-1.5.5 1.5-3 3-.5 1.5-2-3-3 2 .5-1.5-1-1 1-1-1.5-1.5-1.5-.5-.5-3.5-.5 3.5-1.5 1.5-1.5.5.5 1.5-3-4-3.5.5.5 1.5-8-4-1.5.5 2.5-1.5q.5 2.5 4 2l-.5-1.5 1-1-2-3 .5-1.5-1.5-.5.5-1.5-5-1-2.5 1.5-.5 1.5-1.5-.5 2-2-.5-.5-2-1-1 2-4 1-1.5-2.5 3.5-3.5 1 1 5.5-1.5-.5-1.5 2 1 3-1v1l-1.5.5 2.5 2.5 2-2 .5.5-.5 1.5 5-2 2 1 2-1 6 2 1-1h9l1-1v2l2 1 1-1q4.8 1.3 6-1 1 2 2 0l1.5-.5-.5-2.5-1 2-1.5-.5q3.8-1.7.5-3.5l-1.5.5 1-2-3-2-1-2 3 1q-.5-4 2.5-4.5ZM133 486l-1 1 3 3 1-3h-1zm5 1q-2 1 1 2l1-1zm3 3-2 2h3v-1zm9 0-2 2h2q2 1 1 5 1 1 2-1l-1-3zm-3 2q-2 1 1 2v-1zm10 0v1h2zm192.5-27 1.5.5-.5 1.5-1.5-.5zm-55 3 1 1 1.5-.5-1.5 2.5zm13 1 2.5 1.5-4.5 4.5h-3v-1l2.5-.5-.5-1.5q1.3 2.3 2.5-.5zm15 0 3.5.5-9 4-.5 2.5-1.5-.5-.5 1.5-3.5-1.5.5-1.5 2 1 1.5-1.5q-2.2-1.2.5-2.5l1 2 3-3 1 1 1.5-.5zm-36 3-.5 1.5-.5 2.5-.5-2.5zm2 0 1.5.5-.5 2.5zm45 1 6.5 1.5-1.5 1.5h-7v-1l4.5-.5-2.5-.5zm-222 1 2.5.5-2.5.5zm171 0 1.5.5-.5 2.5-1.5-.5zm-177 1 1.5.5.5 1.5 1.5-.5-3 3-3.5 8.5-4-3-.5 3.5.5 1.5q-4.7-.7-5.5 2.5l.5 1.5q-.7-1.8-4-1l-1.5.5 5-3-.5-3.5-2.5.5 1 3h-3l-.5-3.5-2 2-.5-.5.5-1.5 1.5-.5-1-2 3.5-4.5h2l3-2 5.5 2.5.5 1.5 4.5-1.5 1-4zm249 0 1.5.5-2.5 1.5q-1.5-1 1-2Zm-242 3 .5.5-2 2-3 6v2l-1.5 1.5-1.5-2.5 5.5-8.5z" opacity=".996"/><path fill="#282a30" stroke="#282a30" d="m177.5 478-.5 1.5-.5 1.5-2.5-.5zm107 0 1.5.5.5 5.5 1.5.5-1.5.5-2-2-.5.5-1 2 1.5 3.5 3-2q1.3 2.2 2.5-.5l2.5-4.5 4.5 3.5-1.5 3.5-1-2-6 4-1-2-1.5 1.5-.5 5.5-1.5-.5 1-3h-1l-.5 1.5-.5-2.5q2.3-1.2-.5-2.5l-.5 6.5 1 3h-1l-1.5-4.5-1 1-1-1-1.5.5q2-1 0-2v-3l2.5-5.5 2.5-1.5.5-1.5 2 1 .5-2.5zm8.5 6-2 3h2l1-2zm65.5-4 1.5 3.5v8h-1l-1-4 1-3q-1.7-1.7-.5-4.5Z" opacity=".996"/><path fill="#282a30" stroke="#282a30" d="m288.5 481 1.5.5q-1 2.5-2 1zm-114 1 1 2 3-2 1.5 1.5-2 2 .5 1.5-4.5-3.5zm8 0q2.5 1 1 2l-1.5-.5zm-68 3-.5 1.5-.5 2.5-1.5-.5zm3 0 3.5.5-1.5 3.5-2.5-3.5zm-48 2 2.5 1.5-1.5-.5q-2.4-.1-1-1Zm106 0 2.5 1.5q-2.2 1.3.5 2.5l1.5-.5-1 3 1 2-1 1 2 2-1 1 .5 1.5-1.5-.5 1-2-2.5-2.5-.5.5-.5 1.5-.5-2.5 3-1-3-1q.8-3.7-1.5-4.5l-2.5-.5zm-102 2 2 1 1.5-.5q-1.2 2.7-2.5.5-2.4-.1-1-1Zm42 0 1.5.5-.5 1.5-1.5-.5-.5 1.5-.5-1.5zm-31 1 1 1 1.5-.5-1 1 .5 1.5-1.5.5q.5 3-1.5 3.5l-3.5-5.5 1.5-.5 1 2 1-1 1.5.5zm34 0q2 .5 1.5 3.5h-1zm248 0 .5 3.5h-3zm-261 1 1.5.5-.5 1.5-2.5-.5zm22 1 .5 1.5-2.5 1.5-.5-.5zm160 0 3 6 3.5.5-4 1q-.5 3 1.5 3.5l1.5.5-2.5 1.5.5-1.5-3-3-2-3 1-1zm70 0 2 3 1.5.5.5 10.5 2-1 .5 5.5h-1l-.5-3.5-2.5-1.5-1-2q2-1 1-5l-2.5-4.5-1.5 2.5-.5 7.5-.5-6.5-1-1 1.5-2.5 1.5-.5zm-214 2 1.5.5-2.5 3.5.5-1.5zm-57 3 1 2 2.5-.5.5-1.5 2.5 1.5-2 1 4 1-2.5 2.5-1-1h-2l-3.5-3.5zm13 2q3 1.5 0 3l-2.5-1.5zm44 0 2.5.5-2.5.5zm16 0 1.5 2.5-1.5-.5-5 2 .5-1.5.5-1.5q3.3.8 4-1Zm-11 2q3-.5 3.5 1.5l-1.5.5-2.5-1.5zm204 0q.1 3.4 2.5 4.5l-1.5.5q-2.4-1.8-1-5Zm-186 3 1.5.5 1 2-.5.5-2.5-2.5zm116 0 2.5 1.5v7q1.8.8 1 4h-1l-1.5-5.5-1 5z" opacity=".996"/><path fill="#282a30" stroke="#282a30" d="m356.5 505 2.5.5-1.5 2.5v-2q-2.4-.1-1-1Zm11 0q2.5 1 1 2l-1.5-.5-.5 1.5q-2.5-1-1-2zm-288 1 .5 1.5-1.5.5q-1.5-1 1-2Zm74 0 4.5.5.5 1.5 1.5-.5q-.7 2.3-4.5 1.5l-2.5-2.5zm-60 2 2.5 1.5-1.5.5q-2.5-1-1-2Zm-15 1-.5 1.5q.6 4.1-1.5 5.5l-.5-2.5zm211 1 2.5.5v8l1 1-2 2-.5 3.5-7 1v-1l3.5-.5-2-6q1-1.5 2 1l.5 3.5zm69 2 1.5.5-1 2 1 1v11l1 1q-2 1 0 2l.5 1.5 1-2 2 4 1.5-1.5.5-4.5.5 6.5-2.5 1.5q-1-2-2 0l-2-1-3 1v-1l2.5-.5-2-5 1-3v-2l-3-4v-6zm-209 3 1.5 3.5-2.5.5-.5-2.5zm11 1 2.5 1.5-1.5.5-1-1-1.5.5zm-85 1 .5 2.5-1.5.5.5-1.5zm23 1 4.5.5-.5 1.5 2-1q1.5 1-1 2l-2-1-2 1-1.5-2.5zm50 2 2 1q1.3-2.2 2.5.5l-2.5.5-2.5-1.5zm-51 2q3.5-.5 4 2l1-2 1.5 2.5-5.5.5q-2.4-.9-1-3Zm74 0 1 1 1.5-.5-3 4 2.5.5 1.5-.5-1 1 .5 1.5-3.5-.5-.5-1.5-1.5-.5 2-1-2-2 .5-.5zm-95 3 .5 1.5q-1 2.5-2 1zm20 1 1.5.5q-1 2.5-2 1zm-20 4 2 1 1.5-.5-2 2q2.3 1.3-.5 2.5l-4.5-2.5.5-1.5zm97 0 .5 1.5-.5 1.5 2.5.5-4.5 1.5v-1l1.5-.5q-2-1 0-2zm104 3 4 2 13 1q.8-1.7 4-1v1l-12 2-4-2h-3l-2.5-2.5zm-127 1 2 3 1.5-.5q-2.2-1.2.5-2.5l-.5 1.5 1 1-1.5 1.5-5.5-.5.5-2.5zm-78 1 3.5 2.5-1.5-.5-3 1v-1l1.5-.5zm173 3 3 1 10 1 1.5 1.5-1.5-.5-1 1-1.5.5-1 4 1 2-1 2 .5 1.5-3-1-1 1-4.5.5 4 1-7.5 1.5-5.5-2.5.5-1.5 2 1-.5-1.5 1-1-2-2 .5-.5q1.4 2.6 6 2v-1l-1.5-.5q2.2-1.2-.5-2.5l-1.5-.5 1.5-2.5 1.5-.5 1-2zm2.5 10-2 2 3 1 1-2h-1zm-6 2v1h2zm3 1v1h2zm-67.5-10 1.5.5q-2 1 0 2l-.5 4.5-1.5-4.5zm171 1 5.5 2.5-1.5.5-3-1q-2.5-1-1-2Zm7 3 5.5.5-5.5.5zm-175 3v3q-1.2-2.2-2.5.5 2.3 1.3-.5 2.5l-.5-2.5 1-1-.5-1.5q1.5 2.5 3-1Zm-80 1 3.5.5-2 3 1.5-.5 1.5.5-2 2 .5 1.5-4.5-3.5 2-1zm209 1 1.5.5-4.5 1.5v-1zm27 1 1.5 3.5.5 5.5 1.5-.5q-2.2 1.3.5 2.5l1.5-.5 1 2-.5 1.5 3.5 1.5-1.5.5-7.5-4.5-.5-1.5-1.5-.5-1-4 2-2q-2-1 0-2zm-34 1 2.5.5-2.5.5zm47 0 5 1 1.5 1.5-1.5-.5-3.5.5q2 1 0 2l1 3-2 3 1 3-2.5.5-1-2-1.5.5q2-2.5 1-8zm-240 2 2.5.5-1 4 2.5.5v-1l-1.5-.5 1.5-.5 2.5 2.5-.5.5-4.5.5-1 2 2 2-.5.5-2.5-1.5-.5-2.5-6 2v-1l2.5-.5-1-2 1-1-.5-1.5q3.8.8 4.5-1.5zm69 1 .5.5-3 3 .5 1.5 1.5.5-.5 1.5-3.5-.5-1-2h2l-.5-1.5-1.5-.5 3.5-.5zm70 0 3.5 1.5-1.5.5-2.5-1.5zm-167 1 1.5.5-.5 1.5-2.5-.5zm36 1 2.5 2.5-.5.5-2.5-2.5zm138 0 2.5.5-2.5.5zm6 0 6.5.5-6.5.5zm-184 1 1.5.5-2.5 1.5q-1.5-1 1-2Zm0 3 1 2 1.5.5-3.5.5-.5-1.5zm106 0 2.5 1.5.5 1.5h2l3-2-.5 1.5-.5 1.5-1.5.5-.5 1.5-4.5-2.5.5-1.5-1.5-.5zm-4 1 .5.5-2 2 1.5 1.5h2l3.5 3.5-.5 1.5-2-1-1.5.5-.5-1.5q-1.5 3.5-3 1-3.3-.7-4 1l-.5-2.5 4-3 .5-2.5zm-98 1 1.5.5-2 3 1.5.5 3.5-2.5.5-1.5 3 1 2-1 3.5 1.5-4 1 5 4-.5.5-3-3-3-2-.5 1.5q3.8 1.8.5 3.5l-3.5.5 2 3-1.5.5q-.5-2.5-4-2l-1 2-2.5-1.5-.5-1.5-2 1-.5-2.5 1.5-1.5q1.3 2.3 2.5-.5-2.5-1.5 1-3zm256 1 8.5 5.5-1.5.5-5-3-2.5-2.5zm-224 1 2.5.5-2.5.5zm40 1 2.5.5q-.5 2-3.5 1.5-1.5-1 1-2Zm201 0 13.5.5-13.5.5zm-202 3 1 1 1.5-.5 1 3-1.5-.5-2.5-1.5zm11 2 4.5.5-2.5 1.5-1-1-1.5.5zm190 0 3.5.5-3.5.5zm-196 2-.5 1.5-1 2 1 3-1.5 2.5-1.5-.5 2-1-2.5-.5-1.5.5.5-2.5q1.3 2.3 2.5-.5l-.5-1.5-1.5.5zm10 0 2.5 1.5-.5 1.5-2-1-1 2-.5-1.5zm-5 1 1.5.5 1 2-1.5-.5-1.5.5 2 2-.5.5-1.5.5 4 3-1.5-.5-3-1-2 2-.5-.5 1-2-2-1q-.7-3.7 1.5-4.5zm-2.5 2v2h2z" opacity=".996"/><path fill="#4d5871" stroke="#4d5871" d="m332.5 168 .5 1.5-1.5.5q-1.5-1 1-2Zm-16 55 2.5.5-2.5.5zm-5 2 3.5.5-.5 1.5-2.5.5 4 3-1.5.5q-1-2-2 0l-3 1-1-1h-6l-1-1-3 3h-2l-3.5 2.5-.5 1.5-5 1-2-1-2 3-1.5.5 1 1-2.5 2.5-2 1v-2l-3.5.5-2.5 3.5-2.5 1.5-.5 1.5-1.5.5 1 2-5 3-.5 2.5-3 2-3-4-4 6-1.5.5q1.7.8 1 4l-2 2 .5.5 3 1 2-3 2-1-.5 1.5-1 4 1 2-2 5q1 1.5 2-1l.5-1.5 1.5-.5q-2-1 0-2l.5-2.5 1.5.5-1 3q3.5 1.5 1 3l.5 1.5 1.5-.5v-2l3.5-3.5-.5 1.5.5 2.5 2-3 1.5.5q-2 1 0 2-1 4.5 1.5 5.5l2.5-1.5-2-1 1.5-1.5q1 2 2 0h2l4.5-3.5.5-1.5 2 1 3-2 1 3 1.5-.5q-2.5 1.5 1 3l1.5 4.5 2-1 1 1 2.5-2.5-2-3 2.5-1.5q1.5 2.5 3-1l1.5.5-.5 1.5 4.5 1.5-1.5 2.5-4 2-1-3q-2.8 1.3-.5 2.5l-.5 1.5q-1-2-2 0l-3-1-1 2-1.5-.5-1.5-3.5-1 3-1.5.5.5 1.5-2.5-.5.5-1.5-1.5.5-1 3 4 3-2 1 2 1-2.5.5-3-1v1l1.5.5-3.5 1.5-1.5-.5-.5 2.5-3.5-2.5 4-1-1.5-2.5q-.7 1.8-4 1-1-2-2 0l-1.5-1.5 3-1-2-1-.5-1.5-2 1-1-1-4.5-.5v-2l-2.5-3.5-2 1-2-1-.5 1.5 1 2-1.5 2.5-1-2-.5 2.5 2.5 3.5 3 1 3-3 .5.5-3.5 4.5-7-2-3.5-2.5-2-4 1-3-1.5-.5-1.5.5-.5-1.5-1.5.5-1.5 16.5-.5-14.5 1-1 1-6 5-11 9.5-14.5 4.5-3.5 2.5-3.5 15-9h2l7-4 7-2v2q4.1.6 5.5-1.5l-.5-1.5q2.8-2.2 9-1zM286 235q-2 1 1 1 1 2 2 0zm-5 4-1 2q1 1 2-1zm-29 32q-3 1-1 2l2-1zm-2 4-1 2-3 3h1q4 1 4-2zm53 2-1 2h2v-1zm-27 5v2l2-1zm51.5-56 1.5.5-2.5 1.5q-1.5-1 1-2Zm4 1q1.8 1.7 6 1l2.5 1.5-2.5 1.5v-2q-3.2-.7-4 1l-4.5-1.5zm12 3 7.5.5-1.5 2.5-4.5-.5.5-1.5q-3 .5-2-1Z" opacity=".992"/><path fill="#4d5871" stroke="#4d5871" d="m318.5 232 1.5.5-.5 1.5-2.5 1.5 3.5 5.5 2-3 2 1 3-1 4 3-.5-1.5 1-1 .5-2.5 4.5-.5-.5-1.5 1.5.5.5-1.5 2 1h10l11.5 10.5 4 8-1.5 3.5-1-1-1.5.5v-4q-3.3-2.2-4.5-6.5h-2l-3-3h-3l-4.5 1.5.5 1.5-4.5-1.5-.5-1.5-4 5-8 1-1.5 1.5-.5 3.5-2-1-1 1-4.5.5-.5 1.5-4.5.5q-.5 3 1.5 3.5l1-2 .5 2.5-2.5 1.5-1.5-.5.5 1.5 2.5.5-4 1 1 2-1.5-.5-1.5-.5-.5-1.5-1.5-.5.5-1.5-2.5.5-2 3 .5 1.5-4.5 1.5-1.5 2.5-4.5-1.5 2-1-1-2 5-3 1-3-1-2q1.3-2.7 2.5-.5l4.5-3.5-3-1 1.5-2.5 1.5-.5.5-2.5 4.5-.5-1-6q2-1 0-2l-.5-1.5-1.5-.5 3-2 .5-1.5q4.8 1.3 6-1Zm20.5 8-1 2h2v-1zm-19 5q-2 1 1 2l1-1zm-22.5-10q2.5 1 1 2l-1.5-.5zm7 4 2.5.5-2.5 1.5z" opacity=".992"/><path fill="#4d5871" stroke="#4d5871" d="m366.5 254 1.5 4.5v4l-2 6-4 4 .5 1.5-1.5.5-1.5 2.5-13 9h-5l-1 1-7 1-2-1-1.5.5.5-1.5-3 1 .5-1.5q1-4-1-5l2.5-1.5 3 2h2l3-3q1 2 2 0l3 2 5 1 2-3 2.5-.5 1.5-3.5 2.5-1.5 1-5h-2l3.5-3.5q3 .5 3.5-1.5-2.2-1.3.5-2.5l1.5.5zm-62 13 2 1q1-2 2 0l1.5.5-1.5 2.5-1-2-2 1-2-1-2.5 1.5-.5 1.5-.5-1.5zm-8 18 2.5 1.5-5.5 1.5q-1.5-1 1-2zm21 1-.5 1.5-.5 1.5-1.5-.5zm-8 1 1.5.5q-.5 2-3.5 1.5v-1zm9 1 1 1 1.5-.5-1.5 1.5q-2.5-1-1-2Zm-10 4 2.5 1.5-3.5.5q-1.5-1 1-2Zm-18 1 3.5.5-.5 1.5 3 2 1.5-.5q-1.2 2.8-2.5.5l-6 2-.5-2.5zm-16 1 3.5 2.5-1.5-.5q-3.8-.7-2-2Zm12 0 2.5.5-2.5.5zm-3 1 4.5 1.5-3.5 1.5q-2.4-.9-1-3Zm17 0 1.5.5-2.5 1.5q-1.5-1 1-2Zm-33 1 3.5 1.5-1.5.5-2.5-1.5zm20 3 .5 1.5-1.5.5q-1.5-1 1-2Zm-33 3 1.5.5-.5 1.5q-2.5-1-1-2Zm-8 2 3.5.5-3.5.5zm31 4h2l8 7 4.5 2.5-2.5 4.5-5.5 1.5.5 1.5q-2.7-1.2-.5-2.5l-5.5-5.5-1 1-3.5-3.5-.5-2.5-1 2-.5-1.5 3.5-3.5 1.5.5zm12.5 9-1 2h2q1-1-1-2Zm40.5 2 .5 1.5-1.5.5q-1.5-1 1-2Zm-4 2 2.5 1.5-1.5-.5-4 2q-1.5-1 1-2zm10 0 2.5 1.5-2.5.5zm4 0h2l5 3 1-1 2.5 2.5.5 1.5 1-1 2.5 2.5-1.5-.5-5-1-8 3-4 4 .5-1.5.5-1.5 1.5-.5.5-1.5 1.5-.5 4-5-4.5-1.5zm-12 5 .5 1.5q-1 2.5-2 1zm-35 2q2.5 1 1 2l-1-1-1.5.5zm31 2 .5 1.5-1.5.5q-1.5-1 1-2Z" opacity=".992"/><path fill="#4d5871" stroke="#4d5871" d="m345.5 331 4.5.5-4.5.5zm6 1q4.6.9 6.5 4.5l-.5 1.5-4-3-5.5 3.5-3 8 1.5 2.5 2-2 .5.5-4 4q.5 3-1.5 3.5l-2-3-1.5.5-.5-1.5-1.5.5 1.5-2.5 1.5.5-.5-1.5-1.5-.5 1.5-3.5 1.5-.5-1-2 4.5-6.5 1.5-.5-.5-1.5q4 1 5-1Zm-19 2 3.5 1.5-1.5 2.5-3.5-2.5zm-66 1 7.5 3.5-1.5 2.5h-3l-3.5-2.5-1-2zm43 0 3.5 1.5-1 6 1 2q-2 1 0 2l1 5-2.5 3.5-5 2q-1-2-2 0l-4.5-.5 3.5-8.5.5 1.5-1 2q1 2.5 2 1l1-4 3-4-1-1 3-3-1.5-1.5-1.5-.5zm-11 1-.5 1.5-.5 1.5-1.5.5.5 1.5-1.5-1.5zm23 4h5l6 3 1.5-.5-.5 2.5-1.5.5.5 1.5-1.5-.5-4 9 .5 1.5-1.5-.5 1 2-4.5 5.5-7-4-4.5-.5 2.5-1.5 2 1v-2l1.5.5 3-5-1-3q-1.2-7.2 2.5-9.5Zm-47 1 .5 1.5q-1 2.5-2 1zm16 0-.5 1.5-.5 4.5-1.5-.5 1-4zm11 2 .5 1.5-2.5 4.5-.5-1.5zm54 3q3-.5 3.5 1.5l-1.5-.5q-3 .5-2-1Zm9 1 .5 6.5-2.5 2.5-.5-.5q1.8-.7 1-4l-.5-1.5 1.5.5zm-82 2 1.5.5q-1 2.5-2 1zm-3 3-.5 1.5-.5 3.5-.5-3.5z" opacity=".992"/><path fill="#4d5871" stroke="#4d5871" d="m315.5 352 .5 1.5-2.5 2.5-.5-.5zm-31 1 .5 4.5h-1zm49 1 1.5.5-.5 5.5-2 1q-2.7-1.3-.5-2.5zm-46 1 2.5 2.5-.5.5-2.5-2.5zm52 3 1 1 1.5-.5-2.5 1.5zm28 0 2 1 1.5-.5-.5 1.5q-3.7.5-3-2Z" opacity=".992"/><path fill="#4d5871" stroke="#4d5871" d="M363.5 360h3l3.5 1.5-8.5.5v-1zm-79 1 1 1 1.5-.5-1 1 .5 1.5-2.5-2.5zm12 0 .5.5-2.5 2.5-.5-.5zm31 0 1 1 1.5-.5-2.5 4.5-1.5-2.5 2-1zm10 1h13l1 1 3-1q1.5 1-1 2-3.2-.7-4 1-1-2-2 0l-10.5-.5zm5.5 1v1h4zm23.5 0 1.5.5-2.5 1.5q-1.5-1 1-2Zm-115 3q3-.5 3.5 1.5l1 2-.5.5-2-2-2.5.5.5 2.5 3.5.5-3.5.5-2.5-1.5q-.5-4 2.5-4.5Zm118 0q1.5 1-1 2l-1.5-.5zm-26 2 6.5.5-6.5.5zm8 0 5 1 3 3 4.5.5 1 7-3.5.5v-1l2.5-.5-2-1q.5-3-1.5-3.5l-8-4q-2.5-1-1-2Zm-18 1 2.5.5-3 3 .5 1.5-3 1-2.5-2.5.5-.5zm0 7-.5 1.5 1.5 1.5 4 1q1.2-2.2 6-1v1l-4.5.5-1 3 3-1-.5 1.5 2.5.5-6.5.5q-1-2-5-1-1.1-2.4-4.5-2.5l2.5-2.5 2 2 .5-.5-2-3zm35 2 1.5 2.5-1.5.5zm-15 2 2.5 1.5-1.5-.5q-2.4-.1-1-1Z" opacity=".992"/><path fill="#4d5871" stroke="#4d5871" d="m345.5 381 1.5.5-3.5 1.5v-1zm19 1q1 2 2 0l2 2 1.5-.5-1.5 1.5q-1.5-3.5-3-1l-4 1v-1l2.5-.5zm-12 2 1.5.5-.5 1.5-1.5-.5zm-25 2 1.5.5-2.5 1.5q-1.5-1 1-2Zm21 1q1.5 1-1 2l-1.5-.5zm-15 1 1.5.5-6 3 1 1-.5 1.5q3-.5 3.5 1.5l-1.5.5-3.5-2.5q2-1 0-2l1.5-1.5zm38 0 1.5.5-1 2 2 1-3 1 .5 1.5 1.5-.5-2.5 4.5q-4.2-.7-6 1l-3.5-1.5q4.7-.3 6-4l-1-3 2.5-1.5 2 1zm-2.5 8v1h2zm-12.5-5 2.5 2.5-1.5 1.5.5-1.5-2-2zm-34 1 .5 3.5q-.5 2-3.5 1.5l-.5-1.5 1.5.5 1.5-.5-1-2zm25 0 4.5 1.5-1.5.5-3-1zm-33 1 4.5.5-2.5 1.5h-11l-1 1h-16q-1.2 2.3-6 1l-1-1-4.5-.5 26.5-.5 1-1h9zm-44 1q1.5 1-1 2l-2 1q-1.5-1 1-2zm58 2 2.5 1.5-3.5.5q-1.5-1 1-2Zm-104 1 1.5.5q-1 2.5-2 1zm110 0q1 2 2 0l1.5.5-2.5 1.5q-2.5-1-1-2Zm15 0q2.5 1 1 2l-1.5-.5-.5 1.5-.5-1.5zm-29 1h2l3.5 2.5-.5 3.5h-7l-1-1q-2 3-8 2v-1l4.5-.5-.5-1.5 3 1v-1l-1.5-.5-.5-1.5-1.5-.5 3.5-.5 1 1 1.5-.5-1 3 1.5.5v-2l1.5-.5zm35 1 .5 1.5-2.5.5v-1zm-21 1 1.5.5-2 1 3 1-2.5.5-1-1-1.5.5.5-1.5zm29 0 2.5.5q-2.2 1.2.5 2.5l1.5-.5.5-1.5 1 2 1-1 2.5 2.5-1.5-.5-1 1-1-1-1 1-3-1q-1.5 2.5-3-1l-3.5-.5.5-1.5q3.3.7 4-1Zm-9 3 1.5.5-1.5 2.5zm14 3 5.5.5-5 1 1 3-2 1 2.5 1.5q1.8-3.7 3.5-.5l1 2-3 2 1 2-2.5 2.5-.5-.5.5-1.5 1.5-.5-2-2 .5-.5 1.5-.5q-.5-3-4.5-2.5l-1 2-1-2-5 1v-1l5-1 1.5-1.5-2-1 3-2z" opacity=".992"/><path fill="#4d5871" stroke="#4d5871" d="M335.5 407q4.8-.7 6.5 1.5l.5 1.5 1-2q1 2 2 0l2-1 1 1h8l2-1 .5 1.5-1.5-.5-1 1-7 1-6.5 2.5q1.3 2.8 2.5.5l2-1 3.5 1.5-.5 1.5 1.5-.5.5-1.5 5.5 1.5-3.5 2.5q-4.7-.7-6.5 1.5l1 2-1.5-.5-1.5 1.5q-.5 3 1.5 3.5l4.5-2.5 2.5-3.5 1 2 2-1q1.5 1-1 2l-2.5 1.5-.5 1.5-2.5.5.5 1.5h3q1.6-2.8 6-3l.5 3.5 1.5 1.5 2-2 .5.5-2 2 .5 1.5q-1.2-2.2-2.5.5l.5 1.5-1.5-.5 2-3-2.5-1.5-2 1q-1.5-3.5-3-1l-6 2-12 9q-1.5-1 1-2l1.5-.5q-.7-2.2-4.5-1.5v2q-1.5-2.5-3 1h-3l-3 2q-1.5-1 1-2l1.5-.5 2.5-3.5 1.5.5-1-2 3.5-2.5 1.5.5q-.5-3.5 2-4l-2-1-.5-1.5-3-1-2 3-2.5-.5 2-4-3-2 5-4-2.5-1.5q-1 2-2 0l-1.5.5 1 3h-1l-.5-2.5-1.5 1.5.5 1.5-1-1-1.5.5 4.5-6.5 3 2q4.2-.7 6 1 1.5-1-1-2l-2.5-.5-.5-2.5-1.5-.5 1.5-.5 1 1 1.5-.5.5 2.5 2.5-2.5-.5-.5q-2.4-.1-1-1Zm2.5 2-1 2v1h4l-2-1 2-1zm8 0v1h2zm-7 11-4 2 4 1 1 1zm3 3v2l-4 1 1 2 5 1q1-4 3-1v-1l-2-2-1 2q-1 2-2 1l2-3zm6 5-2 3h1l2-2zm-3 1-6 5h2q1-2 2 0 2-1 0-2l2-1zm19.5-22-.5 1.5-.5 1.5-2.5-1.5zm-123 5 5 1 1.5 1.5-1.5-.5q-4.9.6-5-2Zm-8 4q3-.5 3.5 1.5l-1.5.5-2.5-1.5zm132 1 2.5.5-3.5 1.5q-1.5-1 1-2Zm-48 1 3.5.5-.5 1.5-3-1z" opacity=".992"/><path fill="#4d5871" stroke="#4d5871" d="m351.5 418 .5 1.5-1.5.5q-1.5-1 1-2Zm-125 3 5.5.5-5.5.5zm12 0 2.5.5-5.5 2.5q-1.5-1 1-2zm134 1q5.4 1.1 7.5 5.5l-.5.5-3-3q-1 2-2 0l-3 1-1-2-1 2-1.5-2.5 1.5.5 1-1zm-60 2 .5 1.5-1.5.5q-1.5-1 1-2Zm51 0 3 2 1.5-.5q-1.7 3.3-3.5-.5-2.4-.1-1-1Zm7 10q.8 1.8 4 1l1.5 1.5 1 4q-1 2.5-2 1 .5-4-2.5-4.5l-2.5-.5 1-1zm-3 1q2.5 1 1 2l-1.5-.5zm-3 1q2.5 1 1 2l-1.5-.5zm-138 1-.5 1.5-1.5 2.5.5-1.5zm134 0 2.5 1.5-.5 1.5-2.5-2.5zm-6 1 2.5.5-2.5.5zm-197 1 1.5.5q-1 2.5-2 1zm16 0 1.5 3.5-1.5.5zm185 0 1.5.5-.5 1.5q-3.2-.7-4 1l-2-1q-3 .5-2.5 4.5l1.5 2.5 2 1 2-1 5 6 3 1q1-2 2 0l3 1 2-3 3 1 2-1 .5 1.5-1.5 1.5-1.5-.5 1 3q-4.3 4.2-11.5 5.5-1.5-1 1-2l6.5-2.5-1-1 .5-1.5-5.5 2.5-.5 1.5-2-1q-.5 2.5-4 2l-8-7q-4.7.8-6.5-1.5l1-2-2-1 7.5-9.5 7-1zm14.5 17-1 2v1h1zm-40.5-15q2.5 1 1 2l-3 1v-1l1.5-.5zm-172 1 .5 3.5h-1z" opacity=".992"/><path fill="#4d5871" stroke="#4d5871" d="m377.5 442 1 3 1.5.5-2 1-2.5 3.5-.5-.5 2-2-1-1q-.7-3.7 1.5-4.5Zm-161 2 2 2 1.5-.5-1.5 2.5-1.5.5 1 2-1.5.5-.5-2.5 1-3zm-48 1 1.5.5-2 1-1.5 2.5v-3zm5 1 4 3 4-2q1.5 1-1 2l-6 1zm13 0 3.5 1.5q-1 2.5-2 1l-.5-1.5q-2.4-.1-1-1Zm45 0 2.5 1.5-1.5 3.5-1.5.5q2 1 0 2l-.5 1.5-1.5.5.5 1.5-1.5.5 1 2-.5.5-2.5-2.5zm-48 1 .5 2.5-1.5.5.5-1.5zm53 0 1.5 2.5h-1zm-36 1 .5.5-4.5 4.5-.5-.5zm15 4 1.5 2.5-3 2q-.7 3.3 1 4l-1.5.5-1.5-2.5 3-4zm-43 1 4.5 1.5q-1.2 2.8-2.5.5l-1.5.5.5 1.5-2-1-1.5.5zm9 1 2.5 1.5-1.5.5q-2.5-1-1-2Zm98 0 2.5 1.5-1.5-.5q-2.4-.1-1-1Zm-99 2 .5 1.5-4.5 2.5-.5-1.5 1.5.5 1-1 1.5-.5zm5 0 .5 2.5-.5 1.5 1.5.5-.5 1.5-6.5-1.5 3.5-3.5.5.5.5 1.5zm3 1 3.5.5-3.5.5zm94 0 1 2 1.5.5-.5 1.5q-3.6-1.1-2-4Zm-57 4 1.5 2.5-3.5 1.5-.5-.5 2-2zm-37 1 .5 1.5-2.5 1.5-.5-.5zm100 3 2.5 1.5 1 2-.5.5-3.5-3.5zm-96 3 2.5 3.5v2l-2.5.5.5-1.5-1-1zm-91 5 1 1 1.5-.5-.5 1.5-2-1-5 3q-1.5-2.5-3 1l-3 1v-1l7-4 2 1zm258 1q2.8 1.3.5 2.5l-.5 1.5-2.5-.5 1-1-.5-1.5zm-300 2 1.5.5-.5 1.5q-2.5-1-1-2Zm3 3 5.5 5.5-.5.5-5.5-5.5zm298 0 2.5.5 1 6-1 1-.5 4.5q-2.2-.7-1.5-4.5l1-3-2-4zm5 0 .5 3.5h-1zm0 8 .5 4.5-1.5.5-.5-2.5zm-195 2 4.5 1.5-1.5.5-2-1-4 3-.5-1.5zm-70 1 .5 2.5h-1zm196 1 .5 3.5-3.5 3.5-1.5-1.5 2.5-3.5 1.5.5zm-202 2 1.5.5-2 1 2 1-2.5 1.5v-2l-1.5-.5zm269 0 .5 3.5-1 2q1 2.5 2 1l.5-1.5 1.5-.5.5-3.5.5 8.5 1 1-.5.5-2-2-2-1-1 2-2.5-.5 1-2q-2-1 0-2zm-276 1 .5 1.5-1.5.5q-1.5-1 1-2Zm24 0 .5 2.5-1.5.5-.5-1.5zm6 0 1.5.5-.5 2.5-1.5-.5 1-1zm4 0 .5 3.5h-1zm46 1 1 2 2.5.5q-1 5 2 6l-1.5.5-1-2-2 3-1.5-3.5 3-2-3-2zm-6 1 4.5 3.5-.5.5-3-3-.5.5-.5 1.5zm13 0q2.5 1 1 2l-2 1 .5-1.5zm182 2 2.5.5-.5 2.5-1.5.5 2 1-2.5.5zm-198 3q2 .5 1.5 3.5h-1l-.5-1.5-1.5-.5zm4 2 3.5 1.5-2.5 2.5-.5-.5 1-1-2-2zm124 1 1.5.5q1.3 5.3-1.5 6.5zm77 9 1 5 1.5.5-.5 5.5-1.5-.5-.5-3.5-2.5-1.5.5-4.5zm-70 11 1.5 1.5-1 1 1 1-.5 1.5 1.5.5-3 1 1 3-4.5 1.5v-1l1.5-.5-2-1 .5-1.5 1.5-.5-1.5-1.5-4.5-.5 5.5-.5 1.5-1.5zm3 1 2.5 3.5h-1l-2-3zm-217 2 .5 2.5h-3zm-6 1 1.5.5q-1 2.5-2 1zm200 2 3.5.5-1.5 1.5-9.5.5 8 2-2 3 4 2-4.5.5q-1.2-2.2-6-1l-5 3v-2l-10-1-2-2-1.5.5 1.5-2.5 6-2h3l1-1q4.7 1.2 6-1h8zm-120 1q3 1.5 0 3l-1.5-.5 2-1zm147 0q4-.5 4.5 2.5l-2.5 1.5v-1l1.5-.5-2.5-1.5-1 2zm7 4 2.5 3.5q-2 1 0 2l2.5 3.5 2.5 1.5-1.5 2.5-3 1v-1l1.5-.5-2.5-1.5-2 1-3.5-1.5-.5-2.5-1 5-1.5.5-.5 1.5-1.5.5 3 1-7.5 2.5-1-1h-6q-1 2-2 0l-3.5-.5 9.5-.5 4.5-1.5.5-1.5 1.5.5q1.3-6.8-1.5-9.5l-1.5-.5 8.5-2.5-.5 1.5 2.5 2.5 3 1-.5-1.5-2-4zm54 0 1.5.5-2 1 .5 2.5 4.5.5-4 1-.5 1.5-1.5.5 1 2-1.5.5q-2.2-.7-1.5-4.5l2-1-2-2 .5-.5zm-284 2 2.5 1.5-1.5-.5q-2.4-.1-1-1Zm99 2q3-.5 3.5 1.5l-1.5-.5-1 1-1.5-.5zm170 1 1.5.5-4 2 4 2 2 3-5 1 1.5 1.5 7.5 1.5-7.5 1.5-7.5-5.5 1.5.5 1.5-.5-1-3 2-1 1.5-2.5zm27 0 5 2 4.5 4.5-4.5 5.5-3-1-1 2h-7l-1 1-2.5-1.5 7-1q-2-1 0-2l3-5-1-3zm-223 2 2.5 1.5-1.5-.5q-2.4-.1-1-1Zm112 0-.5 1.5-.5 1.5-.5-1.5zm-184 6 2.5 2.5-.5.5-2.5-1.5zm307 1 1.5 5.5 4 4v3l-1 1 .5 1.5-2-1-1.5 2.5 1 1-2.5 2.5.5-1.5-1-1-1-2 1-3-3-5 1.5-2.5 1 5zm-227 2q2.5 1 1 2l-2 1q-2.5-1-1-2l1.5.5zm-79 1 2.5.5-1.5 1.5q-2.5-1-1-2Zm179 0 4.5 1.5-.5 1.5q-5.4.9-7.5-1.5zm100 0 2.5 1.5-2.5.5zm-93 1 11.5.5-11.5.5zm-151 1 2.5 1.5-1.5-.5q-2.4-.1-1-1Z" opacity=".992"/><path fill="#4d5871" stroke="#4d5871" d="m288.5 554 4.5.5-4.5.5zm81 0 6.5.5-3 2 2 1-2.5 3.5-1.5.5 1 2-1.5-.5-1 1-3.5.5 8 1-11.5.5-2-1q-1.5 2.5-3-1l-3-1-1.5.5 1.5-3.5 1.5.5.5 1.5 4.5-3.5-2-2 .5-.5 4 1 1-2 2 1zm-9.5 8-2 2h3q1-1-1-2Zm-75.5-7 2.5.5-2.5.5zm-27 1 2.5.5-2.5.5zm14 0 4.5.5-4.5.5zm-169 1 .5 2.5-1.5.5.5-1.5zm10 6 1.5.5q-1 2.5-2 1z" opacity=".992"/><path fill="#4d5871" stroke="#4d5871" d="m353.5 567 7.5.5-7.5.5zm27 0 1.5.5-.5 1.5-1.5-.5zm-224 1 2.5 2.5-.5.5-2.5-2.5zm31 0 .5 1.5q-1 2.5-2 1zm183 0h3l3.5 1.5-3.5 1.5q-1.5-2.5-3 1l-2-1h-11l-2.5-1.5 14.5-.5zm-280 2 2.5.5q-.5 2-3.5 1.5-1.5-1 1-2Zm6 0 .5 2.5h-1zm-6 3 1 2 1.5.5-2.5.5q-3-1.5 0-3Zm77 5 .5 1.5-1.5.5q-1.5-1 1-2Zm-1 5 1 1 1.5-.5-1.5 1.5q-2.5-1-1-2Z" opacity=".992"/><path fill="#4a70b2" stroke="#4a70b2" d="M293.5 270q2.5 1 1 2l-1.5-.5zm11 16 1.5.5-4.5 1.5v-1zm-6 2 1.5.5-13.5 4.5v-1zm-8 73q2.5 1 1 2l-1.5-.5z" opacity=".992"/><path fill="#332a23" stroke="#332a23" d="m332.5 170 .5 1.5-1.5.5q-1.5-1 1-2Zm33 111 .5 1.5-3.5 6.5-1.5-.5-.5 3.5-1-2-1.5 2.5 2 1-5 4-2.5 4.5-1.5.5-.5 1.5-13 10q-1-2-2 0l-1.5.5-.5 1.5-5 2h-3v-1l3-2 2 1q2.5-1 1-2h-4l-5 3-3.5-1.5.5-1.5-4 1-2-1-3 2-1-1-1.5.5.5-1.5-3.5 1.5-.5 1.5-2-1q-1 2-2 0l-1.5.5q2.3 1.3-.5 2.5l-1-2-1.5.5.5-1.5-2.5-.5-.5-1.5q-1 2-2 0l-5.5-3.5-.5-1.5-6-3-7.5 4.5-.5 1.5-1.5.5 2 1-.5 1.5 5.5 4.5-3-1 1 2-2.5.5-1.5-.5-2.5 3.5-1.5.5 2.5 2.5 6.5 1.5-5.5.5q-.7-1.7-4-1l-11-6-6.5-6.5-.5-2.5-2.5-1.5 1-2h-2l1-2-.5-1.5q3.3.8 4-1l3.5 2.5-1 2q1 2.5 2 1l.5-1.5q3 .5 3.5-1.5l-2-3h2l.5-1.5q3.3.8 4-1l-.5 1.5 1 1 .5 2.5 4 1 3-2h4l6-3q1 2 2 0l4 4 1-1 5 1 1-2q1 2 2 0 4.2.7 6-1l2 3q1.8-1.7 6-1l4-3 1 2 5-3h6q1.5 2.5 3-1 4.6.6 6-2 1 2 2 0l9-4q1 2 2 0l1.5-.5.5-1.5 1.5.5.5 1.5q2.7-4.7 8.5-6.5l2.5-3.5 1.5-.5zm-8.5 13q-3 1-1 2h1zm-3 1-1 2-7 4 1 2 5-3 3-3zm-10 8-3 3h1l4-2zm-8 2-2 5h2v-1l4-2q-1-3-4-2Zm-6 1-2 3 3 1 3-2-1-1q-2 3-3-1Zm-71 2v1h3zm62 1q-2 1 1 2v-1zm-60 1-1 3 3 1h2l-1-1v-1zm36 4v1h2z" opacity=".996"/><path fill="#332a23" stroke="#332a23" d="m294.5 320 .5 1.5-2.5 1.5-1-1-1.5.5zm50 1 2.5 1.5-1.5-.5q-2.4-.1-1-1Zm-38 7 2.5.5-2.5.5zm12 1q1.5 1-1 2l-1.5-.5zm-7 1 2 1 1.5-.5-.5 1.5q-3.5-.5-4 2-2.5-1-1-2l2.5-.5zm-6 2 .5 1.5-2.5.5v-1zm-13 1 .5 2.5h-1zm0 7 2.5 1.5-1.5.5q-2.5-1-1-2Zm-17 2 1 2 1.5.5-.5 1.5-2-2-.5.5-.5 1.5-.5-1.5zm18 12 3.5 1.5-3.5 6.5-2.5-4.5zm52 2 .5 2.5h-1zm-68 3 1.5.5-1.5 2.5-2 1q-1-2-2 0l-5 2q-1.5-1 1-2h2zm50 0-.5 1.5-1.5 2.5.5-1.5zm-21 2 .5 1.5-2.5 4.5-1.5-.5zm29 1-.5 1.5-1 3 4 1q-1.2 2.8-2.5.5h-3l-4.5 2.5.5 1.5q-1-2-5-1l-2 3-.5-1.5 2.5-4.5 1 2 3.5-2.5 1.5-3.5 3 2zm-38 3 4.5 2.5-1.5-.5q-4.2-.7-5 2l-.5-.5 2-2zm57 0 1 1 7.5.5-7.5.5q-2.5-1-1-2Zm-91 1 1.5.5-.5 1.5-1-1-2 2-.5-.5zm46 0 1 2 3.5 1.5-3 2 3.5 1.5 2-3 2.5 3.5-3.5 5.5-2-3-.5 1.5.5 1.5q-3.2-2.7-3.5-8.5l-2-2zm35 0 3.5.5-3.5.5zm-38 1-.5 1.5 1 1 1 3h-2v2l4 6-.5.5-5.5-5.5q2-1 0-2l1-2-.5-1.5 1.5-.5q-2.2-1.2.5-2.5Zm53 1 2.5 1.5-1.5-.5q-2.4-.1-1-1Zm-101 7 .5.5-4 4-1.5 4.5-.5-2.5zm12 4 .5 2.5-2.5 1.5q-2.5-1-1-2zm43 1 1.5.5-.5 1.5q-2.5-1-1-2Zm-27 14 8.5.5-8.5.5zm54 0q2.5 1 1.5 5.5h-1v-4zm4 0 2.5 4.5q-1 2.5-2 1l-.5-1.5-1 2-.5-1.5q3.5-1.5 1-3zm-17 1 2.5.5-2.5.5zm17 6q2.5 1 1 2l-4.5-.5z" opacity=".996"/><path fill="#332a23" stroke="#332a23" d="m347.5 401 2 1q1-2 2 0l3.5.5-6.5.5q-2.5-1-1-2Zm-20 1 1.5 2.5q-1 1.5-2-1zm-58 1 .5 1.5-1.5.5q-1.5-1 1-2Zm61 1 1.5.5q-1 2.5-2 1zm3 0 4.5.5-4.5.5zm-78 1 2 2 1.5-.5-1 7-1.5 1.5q-1-2-2 0l-2 1 .5-1.5.5-3.5 1.5-.5q-1.7-.7-1-4zm1.5 2-1 4h1zm14.5-1 10.5.5-.5 1.5h-8l-2.5-1.5zm26 0 8.5.5-7.5.5-1 1h-11v-1h10zm-14 1 1.5.5-1.5 2.5zm-62 3 4.5 2.5-2.5.5-2.5-1.5zm57 0 4 7 2-1 1 4 1.5.5-1 2 3 5-1.5-.5q-5.5-.4-7.5-4.5l-.5-2.5-2.5-1.5q.7-4.2-1-6l2-1zm4 1 2.5.5-2.5.5zm3 2q1 2 2 0l1.5 1.5-2 1 1 3q-1 1.5-2-1v-3zm-50 1 2.5.5-2.5.5z" opacity=".996"/><path fill="#332a23" stroke="#332a23" d="m267.5 414 1.5.5 1 3-2 2q3.5 1.5 1 3l1.5 3.5 1-2 1 3 1.5.5.5 1.5 1.5-.5.5 1.5 2.5 1.5q-.5 3 1.5 3.5l4.5 2.5.5 1.5 2.5.5 1.5 2.5 1.5-.5.5-1.5 4.5 3.5.5 1.5 2-1 2 2q1.5-2.5 3 1 3.2-.7 4 1l5-3h3q1.5 2.5 3-1l2-1-.5 1.5-8.5 13.5-1.5.5-.5 2.5-3.5 1.5-.5 1.5-3 1-8.5-5.5-.5-1.5q-3 .5-3.5-1.5l-2.5-3.5-1 1-2.5-2.5-7.5-11.5-2 1v-1l1.5-.5-6-11-1-4-2-2 1-2-1-1q3.5-1.5 1-3zm9.5 17-1 2q1 1 2-1zm-2 2-1 2 3 1 1 3 4 3-3-6zm16 19v1h2zm-31.5-34 1 1 1.5-.5-.5 1.5-2.5-.5zm5 3 .5 3.5h-1zm-8 1-.5 1.5-.5 5.5-1.5.5-.5 2.5-1.5-.5 1-1-.5-1.5 1.5-.5 1-5zm-23 1 2.5 1.5-3 1 3.5 4.5 2.5 1.5-3 1-.5 1.5-2-1-1.5.5-1.5-2.5-2.5-1.5.5-2.5 1.5.5zm26 0 3.5.5-3.5.5zm-15 4q2.5 1 1 2l-1.5-.5z" opacity=".996"/><path fill="#332a23" stroke="#332a23" d="m291.5 427 .5 3.5q-1 1.5-2-1zm-67 5 1.5.5-.5 1.5q-2.5-1-1-2Zm45 8 2.5 3.5q-1 1.5-2-1zm-223 1 1.5 4.5-1.5 3.5-2 1v-2l-5.5-.5.5-1.5q1.5 2.5 3-1l3.5-1.5zm115 0 2.5 3.5q-2.5 1.5 1 3l-.5 1.5-2 1q-2.5-1-1-2l1.5.5-2-4q2-1 0-2zm175 2 1.5.5 1 2-2 1 .5 3.5 2.5.5-3 2 1 2-3.5 4.5-1.5.5 1 2-.5.5-2.5-2.5-.5-1.5-1.5.5.5 4.5 1-2q2.7 1.3.5 2.5l-3.5 6.5-4-2-1.5 2.5.5 1.5-3-2-2.5 2.5.5.5 2-1 .5 1.5-2.5.5-2-3-1.5 1.5.5 1.5-3.5-.5 4-5 1-3 3.5-3.5 1 2 1.5-4.5h-2l2.5-3.5 3.5-2.5.5-1.5 1.5-.5.5-2.5 1.5-.5-.5-1.5 7.5-2.5zm-7.5 13q-3 1-1 2l2-1zm-4 8q-2 1 1 2v-1zM37.5 444l.5 2.5h-1zm120 0 1.5.5 1 2-2.5.5zm117 4 1.5 2.5q-1 1.5-2-1zm-108 2 1.5.5q-1 2.5-2 1zm20 1 .5 2.5-1 1 2 2-.5.5-2.5-2.5 1-1zm-7 1 3.5 4.5-.5.5-2-2-1.5.5q2-1 0-2zm61 1 .5 1.5-4.5 6.5.5-1.5zm33 0 1.5 5.5h-1q-1.9-2-.5-5.5Zm3 2 1 1 1.5-.5-1.5 1.5q-2.5-1-1-2Zm-117 2 3.5 1.5.5 1.5 3-1 5.5 3.5.5 1.5 3-1q.8 1.8 4 1l1.5 1.5-.5 3.5-1-2-1.5.5.5 1.5q-2-4-4 0l-2.5-1.5-.5-2.5-4-3h-4l-3-3-2 2-7 1-1-1-5.5-.5 2.5-1.5h6l1-1 2 1zm120 0 2.5 1.5-.5 1.5-1-2q-2.4-.1-1-1Zm-84 1 3.5 2.5-1 1 .5 1.5q-3.2-1.9-3-5Zm31 3 6.5 3.5-3.5 1.5.5-1.5-1.5-1.5q-3.8-.7-2-2Zm51 0 3.5 1.5-2.5.5q-2.5-1-1-2Zm-64 1 1 2 1.5.5-1.5.5-2.5-1.5z" opacity=".996"/><path fill="#332a23" stroke="#332a23" d="m166.5 463-.5 1.5-.5 1.5-1.5-.5zm116 1 2 1 1.5-.5q-1.3 2.7-2.5.5-2.4-.1-1-1Zm25 0 1 2 1.5-.5 1 2-1.5 2.5-2-1-2 4-1.5-.5-.5 1.5-1.5-.5.5-1.5 3.5-2.5 2-3q-1.7-.7-.5-2.5Zm28 6 3.5 1.5-2.5.5q-2.5-1-1-2Zm-50 1 .5 1.5-2.5 1.5-.5-1.5h2zm-230 1 1.5 2.5h-1zm299 0 1.5.5q-1 2.5-2 1zm-37 3 5.5.5-5.5.5zm-260 1 2.5 1.5-1.5-.5q-2.4-.1-1-1Zm227 0 1.5.5-.5 1.5-1.5.5 1 3-1.5 1.5v-2l-1.5-.5.5-3.5zm-110 1q4.1-.6 5.5 1.5l-1 3 .5 1.5q-1.5-2.5-3 1l-1.5-.5.5-2.5 1.5.5-.5-2.5-2.5-.5zm178 0 1.5.5-.5 1.5q-2.5-1-1-2Zm-183 1v2l2-1-.5 1.5 1 3q-1 1.5-2-1l-.5-1.5-1.5.5q-.5-3 1.5-3.5Zm189 1-.5 1.5-.5 1.5-.5-1.5zm-177 2 1 3 2.5 1.5-1 3 1 1-1 1 .5 1.5-1.5.5.5 1.5 2-1q1.5 1-1 2-3-.5-3.5 1.5l-1 2 1.5.5 1-2 1.5.5-.5 1.5-3 1-1.5-.5.5 1.5 2.5 1.5-5 2v3l-1.5 3.5-1-3-5 3-.5-3.5 2-1 .5-1.5 2 3 3.5-8.5q-2-1 0-2l.5-1.5q1.3 2.2 2.5-.5l-.5-1.5-3 1v-1l2.5-.5 3-9q-1.9-.9-.5-3.5Zm.5 10-1 4h1zm-118.5-9 3.5 3.5-.5.5-3.5-3.5z" opacity=".996"/><path fill="#332a23" stroke="#332a23" d="m179.5 484 .5 1.5-1.5.5q-1.5-1 1-2Zm-5 1 4.5 3.5-.5.5-3-3-1.5.5 2 2-.5.5-2.5-1.5zm118 0 .5 1.5-1.5.5q-1.5-1 1-2Zm-224 2 2.5 1.5-1.5.5q-2.5-1-1-2Zm52 1 1.5 3.5-1.5-.5-1.5-.5zm-30 1 2.5 1.5-2.5 1.5q-3-1.5 0-3Zm266 0 2.5.5-.5 3.5-2.5-3.5zm-259 1 1.5 2.5-1.5 3.5-3.5-4.5.5-.5 2 2 1.5-.5q-1.7-.7-.5-2.5Zm30 0 .5 1.5-3 3 .5.5 8-4 3.5 1.5.5 1.5 2-1 2 1q.8-1.8 4-1l3 2 1.5-.5q-2.3 1.3.5 2.5l1-4 1.5 2.5-3 4 .5 1.5q-1.2-2.3-2.5.5l3.5 1.5 1.5-.5-1 2 2 4-.5 1.5 5 1-.5-1.5 1.5-1.5 1.5.5-1-2 2-1 .5-1.5.5 2.5-3 4 3 2-2 1-1 3 1 1-2 2 .5.5 1.5.5-1.5 5.5-1-3q-3 .5-3.5-1.5l-.5-1.5-2 1q-1.2-2.2-2.5.5l3 1-1 2 1.5.5 3-1 2 3 2.5.5v2l-2.5 3.5q-1.2-2.2-2.5.5l-.5 1.5-.5-1.5 1-2-1.5-2.5-2 2-.5-.5-.5-1.5-3.5-.5-1-2 1-1 .5-4.5 1.5-.5-2-1 3-1-1.5-3.5-1.5.5 1-9h-1l-1 2 .5 1.5-1.5.5-.5 1.5-2-1-2 1-4.5-3.5-.5-3.5-2 3q-2.7-1.2-.5-2.5l2-3-1.5-.5-2 2-1.5-.5-.5 2.5-2.5-4.5h4l-.5-1.5-4-1-2 4-1.5-3.5 3-2-.5-1.5q-1.2 2.2-2.5-.5l-1-2 1.5-2.5zm3.5 3-1 2q-2 1 1 2l1-3zm13 1v3l1-2zm0 5v1h2zm-5 4-1 3h1zm12 6-1 2q1 1 2-1zm-1 14v1h2zm6 2-3 2h3v2h1q1-3-1-4Zm133.5-35 .5 2.5-1.5 2.5-.5-3.5zm-211 2 2.5.5-2.5.5zm78 0 1.5.5-3.5 1.5v-1zm128 0 .5 2.5-.5 1.5 1.5.5-.5 1.5-2 1-.5-1.5q2-1 0-2zm-171 1 .5 2.5h-1zm164 0 2.5 2.5-1.5 1.5-1.5-1.5 1-1zm-192 4 2.5 3.5-.5 1.5 6 2 4-6 1.5.5-.5 1.5-1.5.5 2.5 1.5 3-4-.5 1.5-1 3v5l-3.5 3.5-2.5 1.5 1 3-8.5 13.5-2.5-1.5-.5-1.5-3-2h-2l-1 2-4.5-2.5.5-3.5 1.5-.5v-3l3-7-.5-1.5 1.5-.5q.6-3.9 3.5-5.5 1.3 2.2 2.5-.5-1.7-1.7-.5-4.5Zm9.5 12q-2 1 1 2v-1zm-10 1-2 2 3 3h1l-1-4zm4 5q-3 1-1 2h1zm24.5-18 1 1 1.5-.5-.5 6.5-1.5-1.5v-4z" opacity=".996"/><path fill="#332a23" stroke="#332a23" d="m156.5 497 2.5 1.5-.5 1.5-3.5-.5zm-46 1 1.5.5-.5 5.5-1.5-4.5zm8 0 1.5.5q-2 1 0 2l-.5 5.5-1.5-1.5zm4 0 .5 5.5h-1l-1-4zm3 6 2.5 1.5-1.5.5q-2.5-1-1-2Zm234 0 .5 2.5q-1.5 3-3 0h2zm5 2q2.5 1 1 2l-1.5-.5zm-234 1 1.5.5q-1 2.5-2 1zm231 0 1.5.5-1 2 .5 1.5-1.5-.5zm-177 2-.5 1.5v3l-2 3v3l-1.5 3.5h-3q-1.3-3.2-5.5-3.5l8-5 .5-1.5 2.5-1.5zm-19 1-.5 1.5v4l-2.5 4.5-.5-1.5 1-3 1-4zm-67 4 3 1q1.2-2.2 2.5.5l-4.5.5q-2.5-1-1-2Zm78 10 .5 2.5h-1zm-8 2 2.5 2.5-.5.5-2.5-2.5zm7 2-.5 1.5 1.5 1.5 1.5-.5-1.5 2.5-3.5-.5 3-1q-3.7-1.7-.5-3.5Zm-80 1 2 2 1.5-.5-1 1 3 3-1 1 .5 1.5-1.5.5.5 1.5 1.5-.5q-2.2 1.3.5 2.5l5.5 2.5-2 1 2 3-3.5.5-.5-3.5.5-1.5-2-1-1.5.5-.5-1.5-1.5-.5q.7-3.2-1-4l2-1-3-2v-3zm-10 1 .5 1.5-1.5 2.5-3-1-3 2-.5-.5 2-2 .5-1.5q3.3-.7 4 1zm88 4 1.5 1.5-1 1 .5 1.5-1.5.5 1.5 2.5 2.5 1.5h-3l-3-5 2-1q-2.2-1.2.5-2.5Zm-19 4 1 2 1-1 2.5 2.5-1.5.5-2-1-2 1-1.5-2.5h2zm-82 1 3.5 1.5-.5 1.5-1.5.5 3 4v4l2.5 5.5 1.5.5-2.5.5q-2.1-1.4-1.5-5.5l-1.5-1.5-1.5-.5-1-4 1-2-2-3zm108 3 .5 5.5h-1zm-31 1 4 2 1.5-.5q1.3 4.7-1 6 1.8.8 1 4h-2l-1 2q1 2.5 2 1l.5-1.5 1.5 3.5-1.5-.5-2.5-.5-1-2q2-1 0-2l.5-1.5 2.5-.5-2-1q2.3-1.2-.5-2.5l-1.5-.5v-4zm4.5 3-2 2q1 2 2 1zm-54.5-2 2.5 2.5-.5.5-1.5-.5zm79 4 .5 1.5q-2.2 1.3.5 2.5l1.5-.5-.5 4.5-2-1-2 2-.5-.5 3-4q-3.5-1.5-1-3zm-73 4 1.5.5-2.5 1.5q-1.5-1 1-2Zm14 4 2.5 2.5-.5.5-1.5-.5-.5-1.5-1.5.5zm-8 1 2.5 1.5-2.5.5zm-32 1 4.5 4.5-.5.5-3 1-.5-.5 2-2-3-3zm80 0 .5 3.5-4 1q2 1 0 2l2 2 .5 1.5 2.5 1.5-1.5.5q-4.4-2.1-4.5-8.5l2-1 .5-1.5zm20 0 2.5 1.5-1.5 2.5zm-57 2 1.5 2.5q-1 1.5-2-1zm-15 1 1.5.5 1 3-4.5.5-6.5-2.5 2.5-.5 3 1zm75 2 2 3q1.3-2.2 2.5.5l-1.5-.5-2 2-2.5-2.5zm9 0 1.5.5q-1 2.5-2 1zm-102 2 1 1 1.5-.5-.5 1.5 1.5-.5.5-1.5.5 1.5q-2.5 5-5 0zm279 1 2.5.5-2.5.5zm-188 3 1 2q1.3-2.2 2.5.5l-.5 1.5-3-1q-1 2-2 0l-1.5-.5zm-103 2 1.5.5-.5 1.5 2-1q1.5 1-1 2-3 .5-3.5-1.5zm81 0 5 2 1.5-.5-.5 1.5 1.5.5-.5 1.5-1.5-.5-.5-1.5-4-1q-2.5-1-1-2Zm-76 1q4-.5 4.5 2.5l-5.5.5.5-1.5zm86 1 3.5.5-3.5.5zm-1 2 1.5.5-.5 1.5-1.5-.5zm6 2 3.5 4.5-.5.5-3-3-1.5-.5zm-13 2-.5 1.5.5 1.5q1-2 2 0l2.5.5-4.5 1.5-1-2q-1 2-5 1l-2.5-1.5q.5-2 3.5-1.5 1 2 2 0z" opacity=".996"/><path fill="#a46728" stroke="#a46728" d="m120.5 556 2.5 3.5-1 2 .5 1.5-2.5-3.5 2-1-2-2zm-5 1 1 2 1.5-.5-.5 1.5 1.5.5-1.5.5q-3.6-1.1-2-4Zm78 6 .5 1.5-1.5.5q-1.5-1 1-2Zm-95 3v2l1.5.5 1 4h-3l-2-3h2l-1-2zm-6 2 1.5.5-.5 1.5q-2.5-1-1-2Zm104 0 1.5.5-.5 1.5-1.5-.5zm-102 3 1.5.5 1 3h-1l-2-3zm76 3 4.5 3.5-1.5-.5-3 2-1.5-2.5 2-1z" opacity=".992"/><path fill="#717479" stroke="#717479" d="m323.5 168 8.5.5-8.5.5zm10 0 2.5 1.5-2.5.5zm-15 54 7 2 2-1 .5 1.5-2.5 1.5-6-2q-2.5-1-1-2Zm17 2 1.5.5-.5 1.5-1.5-.5zm-37 1v3l-2.5-.5zm35 2 2.5.5-2.5.5zm5 1 7.5 1.5-3 1 3 1-3.5.5-3.5-1.5.5-1.5-5 1v-1q3.3.8 4-1Zm-64 9q1.5 1-1 2-10.3 3.7-16 12l-.5-.5 3-3 1.5-2.5 8-6zm64 3 1.5.5 1.5 3.5 4 1v-2l7-1q1.3 3.2 5.5 3.5.6 3.9 3.5 5.5l1.5-.5q-2 1-1 5h2l-1.5 4.5-1-1-3 3-1.5.5-.5 2.5-.5-2.5 2-3-1.5-1.5-1.5.5 1.5-2.5 1.5.5 1-2-2.5-.5q-1.5 3.5-3 1l-5-1 .5 1.5-3 5 1.5-.5 1.5 1.5-2 3q2 1 0 2l-.5 2.5-2 1-.5-.5 2-2q.6-4.6-2-6l.5-1.5h-3l-2 2-3.5.5.5 1.5-1.5.5q.5 3.5-2 4l.5 1.5q-4.6.9-6.5 4.5l-.5 2.5-1.5.5 4.5 2.5 1-2 1.5.5.5-1.5h2l10-5h2l6-4 1.5.5.5-1.5 1 1 2-2 .5.5-2 6-1.5 1.5-1.5.5-1.5 3.5q-3-.5-3.5 1.5l-.5 1.5-5-1-1.5.5q2.3-1.2-.5-2.5l-2 1-1-1-3 3-4-1-2.5 1.5q1 4.5-1.5 5.5l-3 1-.5-1.5 2.5-1.5 1.5.5q-1-4 1-5l-2.5-1.5-2 1v-1l1.5-.5-6-1 1-3-2.5-.5-2 1-1.5-.5-.5 1.5h-2l-3.5 3.5 2 5-1.5-.5-2 2-1-1-2-1-3.5 1.5 2 3 1 6-6.5 2.5-3.5-2.5.5-1.5-7 1-4 2-.5-1.5 3-1-.5-1.5-3 1v-1l4-1 1 2 5.5-1.5-5-1 2-1-4-3 1.5-3.5 1.5.5-.5 1.5 2.5-.5-.5-1.5 1.5-.5 1.5-4.5 5-1-.5 1.5q.8 3.2-1 4l2.5.5 1-1 1.5.5-1-2 2.5-3.5 1.5.5q-2.5.5-2 4l1.5-.5 4.5-2.5-.5-1.5-4.5-1.5.5-1.5-3 2-1-1-1.5.5 1.5-3.5 1.5-.5-.5-1.5-1.5-.5 1.5-2.5 4.5-1.5q-2.5-1.5 1-3l.5-1.5 2.5.5-.5 1.5 1.5.5.5 1.5 1.5-.5.5-1.5 3.5-.5-1-2 2-1-.5-2.5-1 2q-2-.5-1.5-3.5l5-1 .5-1.5q4.2.7 6-1l1.5.5q-.7-3.7 1.5-4.5l8.5-1.5 3-4-2-1zm3.5 17q-3 1-1 2h1zm-20 8v5l2 1 1-4q0-2-3-2Zm-17 2-2 1q-3 1-1 2l2-1 2 1 2-1 1 2 1-2-1-1q-1-2-2 0zm21 1-1 2q1 1 2-1zm-32 11q-2 1 1 2v-1zm0 3-1 2h2v-1zm12 1q-2 1 1 2v-1zm-9 2-4 3q1 3 8 2v-1q-2-4-3 0l-3-1 4-1zm-4 5q-2 1 1 2l1-1z" opacity=".996"/><path fill="#717479" stroke="#717479" d="m336.5 243-.5 1.5-.5 1.5-.5-1.5zm4 20q2.5 1 1 2l-1.5-.5zm-1 3 1.5.5-1.5 3.5-1.5-2.5zm10 0 1.5.5-2.5 1.5q-1.5-1 1-2Zm-14 5 1.5.5-.5 1.5-5 1q-1.5-1 1-2zm-16 9 2.5.5-4.5 1.5v-1zm-56 1 1.5.5-2.5 1.5q-1.5-1 1-2Zm52 1q1.1 2.4 4.5 2.5l-1 2h2l1 2-1.5-.5-1 1-1.5-1.5-1.5-3.5-1.5-.5zm-1 3 1.5 2.5-.5 1.5 1.5.5-6.5 3.5-2-1-2 2-.5-.5-2-5 1.5.5 1-1 1 1 4.5-1.5-.5-1.5zm-47 14q1.5 1-1 2l-2.5-.5zm11 18 6.5 6.5-.5.5-6.5-5.5zm11 0q1.5 3.5 3 1l1.5.5-3.5 2.5v-2l-1.5-.5zm42 3 1.5.5-4.5 1.5-8 5-4 1v-1zm-39 4 1.5.5-.5 2.5-3.5-.5zm60 4 2.5 1.5-1.5-.5q-2.4-.1-1-1Zm-59 1q2.5 1 1 2l-1.5-.5zm60 6 4 3 1.5-.5 5 8v5q-1 2.5-2 1l.5-1.5-3.5-1.5-.5-1.5q-.8 1.7-4 1v-1l3.5-.5-7.5-.5-4 3-1.5-2.5q1.8-.8 1-4l3.5-5.5zm-45 1 .5 1.5-.5 1.5 2.5 1.5-3 3q2.5 1.5-1 3l-2.5 6.5-2.5-3.5h2l-2-3 1.5.5 1.5-.5-2-2 .5-.5 1.5.5.5-1.5 1.5-.5-.5-1.5 1.5-.5-1-3zm-43 1 1 2 5.5 2.5-1.5 3.5-1-2-5.5-3.5zm33 0 1.5.5-3.5 2.5v-1l1.5-.5zm-20 1 1.5.5-4.5 2.5q-1.5-1 1-2zm12 0-.5 1.5-.5 1.5-.5-1.5zm-10 4 1.5.5-.5 1.5-2.5-.5zm52 3-.5 1.5-.5 2.5-1.5.5q2 1 0 2l-3.5 6.5-.5-1.5 3-5v-2zm2 2 1.5.5-1 2 2 2v2l2 3v3l-1.5.5q0-6-3-9l-2 4-1.5.5 1 3h-2l1 2-3.5 2.5.5-1.5 2-7zm-51 3 1.5.5-1 7 2.5 4.5 3.5 1.5-.5 1.5-6.5-5.5-1-8zm8 0 .5 1.5-1.5.5q-1.5-1 1-2Z" opacity=".996"/><path fill="#717479" stroke="#717479" d="m354.5 350 2.5.5-2.5.5zm-53 1-.5 1.5-.5 1.5-.5-1.5zm46 3 .5 3.5h-1zm-49 1 1.5.5q-1 2.5-2 1zm63 1 .5 1.5q-1 2.5-2 1zm-45 1q1.5 1-1 2l-1.5-.5zm51 3 2.5.5-2.5.5zm-25 3 4.5.5-4.5.5zm26 0 2.5.5-4.5 1.5v-1zm-77 1 2 1 1.5-.5q-1.2 2.7-2.5.5-2.4-.1-1-1Zm70 0 3.5.5-3.5.5zm-110 4q3-.5 3.5 1.5l-.5 1.5-3.5-.5zm99 0 11.5 7.5.5 2.5 1.5.5-3 1 2 1-3.5.5-1.5-.5.5 1.5q4.8 1.3 6-1l1.5.5.5-1.5 2.5 1.5-.5 2.5-2-2-1 1-1.5-.5-.5 1.5-3 1q-1-2-2 0l-2.5.5-.5 1.5q-4.5-1-5.5 1.5l.5 1.5 1.5.5-.5 1.5-2-1-3 1v-3l7.5-3.5-.5-1.5q-4 1-5-1-.5 2.5-4 2l-4-2-1.5.5.5-1.5 1.5-.5-.5-1.5 2 1 2.5-1.5-5.5-.5-1.5.5-.5-1.5-6.5-3.5 3-1-1-1 3.5-3.5h13zm-4.5 12-1 2 3 1 7-2zm22.5 7 2 1 2-1v1l-1.5.5-.5 1.5-2.5-1.5zm-33 1 3.5.5-3.5.5-2.5 2.5-.5 2.5-3.5-.5 1-1-.5-1.5z" opacity=".996"/><path fill="#717479" stroke="#717479" d="m356.5 388 1 2h3l4-2 1 2 1.5-.5q-2 1 0 2v2l-3.5 3.5-2.5.5 3 1-5.5.5-1-2q-1.2 4.3-8 3l-.5-1.5q1-2.5 2-1l-.5 1.5h3l4.5-3.5-.5-1.5-1.5.5.5-1.5 1.5-.5-1.5-1.5-2 2-.5-.5q2.4-1.1 2.5-4.5Zm-89 5 3 2 6.5.5-6.5.5-3.5-1.5zm57 0 .5 1.5-1.5.5q-1.5-1 1-2Zm14 3 1.5.5-.5 1.5-1.5-.5z" opacity=".996"/><path fill="#717479" stroke="#717479" d="m352.5 396 2.5.5-2.5.5zm-29 2 1.5.5-2.5 1.5q-1.5-1 1-2Zm-4 1 1.5.5-.5 1.5q-2.5-1-1-2Zm10 0h3l3 2 4-2-.5 1.5-.5 1.5-7-1-2.5-1.5zm29 2 1 2q4.3-.7 5 2l2-1 2 1 3-1 1.5 1.5-5 1-.5 1.5-2.5 1.5 2 1-1.5 1.5-3.5.5 4 1 .5 1.5 1-2 3-1-.5 1.5 2 2-.5.5-1.5.5 2 2-.5.5-2-1q-.7 1.8-4 1l-1.5-.5-.5 1.5-2.5 1.5 3.5.5q.8-1.7 4-1l1 1 1.5-.5-5.5 3.5-2-1-2 4-1-4h-2l-4 3h-3l-.5-1.5 3-1 1.5-2.5 1.5-.5-2-1-.5-1.5-3 4-4 2q-2-.5-1.5-3.5l2.5-3.5q1.8-1.7 6-1l3.5-2.5-5.5-1.5-1 2-1.5-.5.5-1.5-3-1-3 2q-2.5-1-1-2l6-2h3l1-1 6.5-.5-2.5-1.5-1 1h-8q-1-2-2 0l-2 1-2.5-1.5 6.5-3.5 2 1q.8-1.7 4-1l1.5.5.5-2.5zm3.5 7q-2 1 2 2v-1zm-7 2v1l3 1 2-1zm11 7v1h2zm-14 1q-3 1-1 2h1zm8 3-1 2h2q1-1-1-2Zm-27.5-13-.5 1.5.5 2.5 2.5.5-5.5.5v-1l1.5-.5-.5-1.5-1.5-.5zm2 0 2.5.5-2.5 2.5-.5-.5zm-9 7 .5 2.5h-3zm13 5 1.5 3.5-1.5-.5-3-1-1.5.5zm-106 2q3.8-.7 4.5 1.5l-1.5-.5q-4 .8-3-1Zm7 1 6.5 2.5-2.5.5-3-1q-2.5-1-1-2Zm131 1 1 2 3-1q1 2 2 0l4.5 4.5-1.5.5q-1-2-2 0h-3l-3.5 2.5 2 1-1.5.5-2-1v2l-4-1v1l1.5.5-1.5.5-2-1v2l-9 1-1 1-.5-.5 4.5-4.5 1.5-.5.5-1.5 2 1-.5-1.5 4.5-4.5 3-2 1.5.5zm-26 1 2.5 1.5-3.5 2.5-4 1v-1l4.5-2.5zm3 3 1.5.5-2.5 2.5-.5-.5zm-5 4 1.5.5q-1 2.5-2 1zm27 4 3 1 2.5 2.5.5 2.5 1.5-.5-1 5 1 1-.5 1.5 1.5-.5.5-2.5 1.5.5-1 1 .5 1.5-1.5.5-1.5 3.5-2 1v-2l-1.5.5-.5 1.5-1.5-.5-1.5 2.5-4-2-2 1-2-1-1.5.5q2-1 0-2l-3.5-4.5-2 1-2.5-1.5-1-4 3.5-2.5q1 2 2 0l3.5-.5.5-1.5 2 1 1-2zm-211 4q2.5 1 1 2l-1.5-.5zm58 5 .5 2.5-1 1-1 6-1.5 1.5.5-1.5zm20 4 .5 1.5q-1 2.5-2 1zm-192 1 2.5 1.5 3 6-1.5.5q-2.8-1.2-.5-2.5l-2-2-2-3zm125 5 4 2v-2l2 1 2-1 2.5 1.5-.5 1.5-2 1-1.5-.5-.5 2.5-1-3q-2.7 1.3-.5 2.5l1 2-1.5.5-2-5-1.5.5 2 3q-1 1.5-2-1l-.5-1.5-1.5-.5q2-1 0-2zm200 2 1.5.5-1.5 1.5-4 1v-1zm-185 1 2 1q.8-1.7 4-1 1 2 2 0l2.5 2.5 1 2q-1 2.5-2 1l-1-2 .5-1.5-6-1-2 1q-2.5-1-1-2Zm-134 1 2.5 4.5q-1 1.5-2-1-1.7-1.5-.5-3.5Zm181 0q1.5 1-1 2l-1.5-.5zm-47 2 3.5 1.5-.5 1.5 3-1q1.5 1-1 2l-1.5.5-.5 1.5-2.5-.5-.5-2.5-1 2-2.5-1.5 3-1zm101 0 3.5 3.5-.5.5-3.5-3.5zm-87 2 1.5 2.5 1 6-1.5.5-1.5-1.5-2-6zm-6 1 2.5 6.5q-1 1.5-2-1-1.9-2-.5-5.5Zm-137 5 4.5 6.5q-1 1.5-2-1l-.5-1.5-1.5-.5q-1.7-1.5-.5-3.5Zm312 1 .5 4.5 1 1q-1.2 2.8-2.5.5l-2.5.5 1 1 1 9-1.5 2.5-.5-6.5-1.5-4.5-2.5-.5 1-2q-2.2-1.2.5-2.5l2-1 2 1v-2l1.5.5zm-74 19 2.5 1.5-.5 3.5-1.5-.5-2.5 3.5q-2.7-1.2-.5-2.5l1-3h-2zm-191 1 .5 3.5-1.5.5-.5-1.5zm69 0 2.5 1.5-.5 1.5-1-2-1.5.5q2 1 0 2l1.5 2.5 1-2 1.5.5-1 3q2.5 1.5-1 3l-.5 2.5-1.5-1.5-.5-4.5-2.5-.5-1-3zm-57 3 .5 3.5h-1zm48 6 1.5.5.5 1.5 1.5-.5-1 2 .5 1.5-2.5-.5v-3z" opacity=".996"/><path fill="#717479" stroke="#717479" d="m167.5 499 2.5.5-2.5.5zm187 0 .5 2.5h-1zm16 3 .5 1.5q-1 2.5-2 1zm-212 1 .5 1.5-1.5.5q-1.5-1 1-2Zm206 9q2.5 1 1.5 5.5l-1.5.5zm-70 12 4 5 1.5.5-.5 4.5q-2.5 2-8 1v-1l2.5-.5-1-3 3-1-2-1 1-1-1-1 1-1zm-216 5 .5 1.5-1.5.5q-1.5-1 1-2Zm100 3q2 .5 1.5 3.5l-2 2 .5.5 1.5.5-.5 1.5-2.5-1.5 1-2-2-1 1-1-.5-1.5 2 2 .5-.5zm128 1 .5 2.5q-2 1 0 2l2 4-1.5.5-4.5-3.5q2.3-1.2-.5-2.5l-1.5-.5 1.5-.5 2 1v-2l1.5.5zm-202 1 .5 1.5q-1 2.5-2 1zm263 0 4.5 3.5 2 5-4.5 2.5h-8l-1.5-2.5 2-1 .5-1.5 3.5-.5-5-1 .5-2.5zm-122 2q3-.5 3.5 1.5l-1.5-.5q-3 .5-2-1Zm53 0 3.5 1.5-1.5.5-2.5-1.5zm-4 1 3.5 1.5-1.5.5-2.5-1.5zm-215 2-.5 1.5 1 1q2 2.5 1 8l-.5.5-2.5-2.5h2l-.5-1.5-2.5-1.5h2l-.5-1.5-2.5-1.5.5-1.5 1 2zm197 0 4.5.5-4.5.5z" opacity=".996"/><path fill="#717479" stroke="#717479" d="m293.5 539 3.5 1.5q2.2 2.8 1 9h-2l-.5 1.5-13.5 1.5 4.5 1.5 1-1h6v1h-5l-6 2q-1-2-2 0h-9l-1 1q-1-2-2 0h-8l-3.5-1.5 6-1-.5-1.5-4.5-1.5v-3l2-6 1.5-1.5q2.2-1.8 7-1v1l-1.5.5 4.5.5 1-1h11l1-1 3 1zM266 553v1h9q1 2 2 0zm43.5-14 1.5 2.5h-1zm-154 3 2.5.5-2.5.5zm225 1 3.5 2.5-1.5.5-2.5-2.5zm-223 1 2.5 6.5-3.5 1.5q-2.5-1-1-2l2.5-.5-3-4zm-.5 2q-2 1 1 2v-1zm182.5-1 1.5.5 1 2-1.5.5q-2.4-.9-1-3Zm44 2 1.5.5-5.5 4.5-.5-.5z" opacity=".996"/><path fill="#717479" stroke="#717479" d="m383.5 550 1.5.5q-1.3 6.8 1 10l-1 3h2l-2.5 2.5-5 2h-18v-1h16l3.5-1.5-4.5-1.5-1 1h-9v-1q3.3.8 4-1l1.5.5-1-2 2-1 2-3-2-1 3-2-1-2 2.5-.5 2 2zm.5 4-2 4q1 2 2 1zm-225.5-1 1.5.5-3 2 1.5.5 1.5-.5-2.5 3.5v-2l-1.5-.5.5-2.5zm19 5 1.5.5-2.5 1.5q-1.5-1 1-2Zm-63 3 2 1 1.5-.5-1.5 3.5q-1-2-2 0l-1.5-.5q2-1 0-2zm240 3q1 2 2 0l2.5 1.5-4.5.5z" opacity=".996"/><path fill="#717479" stroke="#717479" d="m388.5 564 1.5.5-9.5 6.5h-6v-1l7-1zm-231 4q2.5 1 1 2-1-2-2 0l-1.5-.5zm33 0 1.5.5-2 3 .5 1.5-3-2v2l-1.5-1.5 2.5-2.5zm-98 3 1.5.5q-2 1 0 2l-.5 1.5-2.5-.5-1-2zm5 0 .5 2.5h-1zm71 7 3.5 2.5q-1 2.5-2 1l.5-1.5-2.5-.5z" opacity=".996"/><path fill="#99a3b6" stroke="#99a3b6" d="m314.5 171 .5.5-3.5 3.5-.5-.5zm-14 28 .5 2.5h-1zm-1 6 .5 3.5h-1zm-1 12 .5 6.5h-1zm30 6 3.5 1.5-.5 1.5-3.5-.5 1-1zm-6 42 1.5.5-1.5 4.5zm12 10 2.5.5-3.5 1.5q-1.5-1 1-2Zm-5 2 2.5.5-2.5.5zm-26 68 .5 1.5q-1 2.5-2 1zm48 4 .5.5-2.5 2.5-.5-.5zm-162 100-.5 1.5 1 1-1.5 1.5-1.5-2.5zm-7 2 2.5 2.5-1.5 1.5-2.5-1.5zm123 83q1.5 1-1 2l-4 1v-1h2zm-9 3 2.5.5-4.5 1.5v-1zm-23 3 2.5.5-2.5.5zm111 8 .5.5-4.5 4.5-2.5-.5z" opacity=".992"/><path fill="#65b3c8" stroke="#65b3c8" d="M292.5 271q2.5 1 1 2l-1.5-.5zm-34 10 3.5 6.5q-1 2.5-2 1l1-2-2-2zm28 76q4-.5 4.5 2.5l-.5 1.5-4.5-3.5z" opacity=".996"/><path fill="#ddeff7" stroke="#ddeff7" d="m335.5 226 2.5.5-2.5.5zm4 1h5l4.5 1.5-4.5.5q-1-2-5-1zm-46 42 1.5.5-3 2 .5 1.5 4.5-1.5-.5-1.5 2.5 1.5-1.5 4.5-3 1-3.5-2.5q-.7-4.7 2.5-5.5Zm53 0 1.5.5-2.5 1.5q-1.5-1 1-2Zm-87 12 2.5 1.5 1 2-3.5 4.5-2.5-3.5 1.5-1.5 1.5.5zm85 48q6.8-1.3 9.5 1.5l-2.5.5q-1-2-5-1l-5 2-3.5 3.5-1.5 3.5-.5-2.5 4.5-5.5zm-8 17 .5 3.5h-1zm17 3q7-1.5 8.5 2.5l-.5 2.5-3-4h-5zm-2 1 .5.5-2.5 2.5-.5-.5zm-14 1 1.5 3.5h-1zm-50 7 2.5 3.5-.5.5-2.5-2.5zm-248 81 4.5 1.5 1 3-4.5 1.5-2.5-4.5zm181 7 .5 2.5-1.5 2.5-.5-2.5zm-26 18 1.5.5 2 8-1.5.5-2.5-6.5zm-6 7 1.5 3.5h-1zm-85 61 .5 2.5h-1z" opacity=".996"/><path fill="#d88b29" stroke="#d88b29" d="m194.5 564 2.5 3.5q-1 2.5-2 1l-2-3zm-100 2q3.8-.7 4.5 1.5l-1 2 .5 1.5-3-4q-2.4-.1-1-1Zm96 0 1.5.5 1 2-.5.5-2.5-2.5zm-19 8 4.5 1.5 2 5-.5.5-2.5-2.5-1.5-2.5q-3.8-.7-2-2Zm-1 3 2.5 2.5-.5.5-1.5-.5z" opacity=".988"/><path fill="#a6a4a3" stroke="#a6a4a3" d="m346.5 229 4.5.5-4.5.5zm0 24 1 2 3-1 4 2q.5-2.5 4-2l-.5 1.5-.5 1.5-1.5-.5 2 4-1 1 .5 1.5q-1.2-2.2-2.5.5l1 3h-1l-.5-1.5-1 2q-1.5-2.5-3 1l-2-1-1 2-.5-2.5q2-1 0-2l2-2-1.5-2.5-1.5.5 2-3-2-3zm-5 4 .5 1.5-1.5.5q-1.5-1 1-2Zm0 3 3.5.5q-2 1 0 2l1 5-1 1 .5 1.5-1.5-.5-.5 1.5-3 1-1-1-2 2-.5-.5-.5-1.5-4 1-1.5 1.5 2 1-2 1 2 1-2.5.5-2-1 1 3-4-1-7 3-1.5-.5-.5 1.5-2-2-.5.5 1 2-1.5-.5-3-1 1 3-1-1-1.5.5q.8-3.2-1-4 1.3-3.7 6-4l.5-1.5 2 1 3-1-.5 1.5.5 2.5q5.4.9 7.5-1.5l-1-3 1.5.5 3-3 1.5.5.5-1.5 1.5-.5q-2.5-1.5 1-3l.5-2.5 1.5-.5-.5-1.5 3 1zm.5 1-1 2h2v-1zm-1 2-1 2h2q1-1-1-2Zm-1 3-2 2 2 2 1-3z"/><path fill="#a6a4a3" stroke="#a6a4a3" d="m324.5 266-.5 1.5q.8 3.8-1.5 4.5l.5-1.5q-.7-3.7 1.5-4.5Zm1 2 1.5.5q-1 2.5-2 1zm-7 2-.5 1.5-.5 1.5-.5-1.5zm-21 8 .5 2.5h-1zm-4 1 1.5.5-.5 1.5q-2.5-1-1-2Zm30 3 3.5.5-.5 3.5-2-1-2 3-1.5-.5-.5-1.5-1.5.5 1.5-3.5 1.5.5.5 1.5zm-21 3 1.5.5-2.5 1.5q-1.5-1 1-2Zm-4 4 2.5.5-2.5.5zm41 42 .5.5-2.5 2.5-.5-.5zm17 3 2.5 2.5-.5.5-2.5-2.5zm-25 21 1.5.5-2.5 4.5-.5-1.5zm31 1q3 1.5 0 3l-1.5-.5zm1 24 .5 1.5-1.5.5q-1.5-1 1-2Zm-12 7q3.8-.7 4.5 1.5l-.5 2.5-3-2-2 1-.5-1.5zm9 1 3.5.5-3.5 1.5zm-25 1 3.5.5 1 3-1.5-.5-1.5.5.5 1.5q-1.7-3.8-3.5-.5l4 3-7.5.5v-1l4.5-.5-2-1 1-2-1-1zm17 2 1.5.5 2 3-2.5.5-1-1-1.5.5zm3 5 1.5.5q-1 2.5-5.5 1.5v-1q3.3.8 4-1Zm-18 2 1 1 1.5-.5q-1.2 2.8-6.5 1.5v-1q3.3.8 4-1Zm17 12 4.5.5q-1.3 2.8-2.5.5-3 .5-2-1Zm15 8 .5 3.5-1.5-.5-3-1-1 2-5 1-.5-1.5 1.5.5 2-2 5-1 1.5.5zm2 14q1.5 1-1 2l-1.5-.5zm-6 2 2.5.5-4.5 1.5v-1zm10 17 .5.5-2.5 2.5-.5-1.5zm-144 3 1.5 2.5-2.5 3.5q-2.5-1-1-2l1.5.5-1-2h2zm-57 4 .5 1.5-1.5.5q-1.5-1 1-2Zm17 0q1.5 1-1 2l-1.5-.5zm1 2 1.5.5q-2 1 0 2l-.5 3.5-1-3-1 2-1.5-2.5 2-1zm-18 1 1.5.5-.5 1.5q-2.5-1-1-2Zm7 0 2.5.5-3.5 2.5.5-1.5zm2 2q2 .5 1.5 3.5h-1zm183 8q1.5 1-1 2l-1.5-.5zm1 4q1.5 1-1 2l-2.5-.5zm-266 14 .5 2.5h-1zm190 2 .5 1.5-1.5 2.5-.5-2.5zm-120 2 1.5.5-.5 2.5q-2.4-.9-1-3Zm-9 5 2.5 1.5-.5 1.5-1-2q-2.4-.1-1-1Zm208 1 .5 2.5h-1zm-193 34q2.5 1 1 2l-1-1-1.5.5zm-1 3 .5 2.5h-1zm3 0 .5 1.5-1.5.5q-1.5-1 1-2Zm-101 2 1.5 2.5h-2l-.5 1.5-1.5-2.5zm203 1 .5 1.5-1.5.5q-1.5-1 1-2Zm-12 1 2 1 1.5-.5q-1 2.5-5.5 1.5v-1zm16 0 2.5.5-2.5.5zm-130 3 2.5.5-2.5 1.5zm221 21 2.5.5-2.5.5zm-182 6 1.5.5-.5 1.5q-2.5-1-1-2Zm-7 1 2.5 1.5-1.5.5q-2.5-1-1-2Z"/><path fill="#bbc0ca" stroke="#bbc0ca" d="m337.5 225 1.5 2.5h-1zm23 36 .5.5-3.5 3.5-.5-.5zm-9 6 1.5.5-2.5 1.5q-1.5-1 1-2Zm-11 5q1.5 1-1 2l-1.5-.5zm-14 7q1.5 1-1 2l-1.5-.5zm-5 2 1.5.5-4.5 1.5v-1zm-9 3 1.5.5-2.5 1.5q-1.5-1 1-2Zm-3 1q1.5 1-1 2l-1.5-.5zm45 45 3.5 4.5-.5.5-3.5-3.5zm-19 14q2.5 1 1 2l-1.5-.5zm19 4 3.5.5-3.5.5zm11 8q2.5 1 1 2l-2 1-.5-1.5zm12 74 1.5.5-4.5 1.5v-1zm-143 19 1.5.5-2.5 3.5-.5-1.5zm53 90 2.5.5-2.5.5z" opacity=".992"/><path fill="#bdbfc4" stroke="#bdbfc4" d="m332.5 224 1.5 2.5h-1zm10 37 .5 1.5-1.5.5q-1.5-1 1-2Zm-4 11 2 1 1.5-.5q-1.2 2.8-2.5.5-2.4-.1-1-1Z"/><path fill="#bdbfc4" stroke="#bdbfc4" d="M336.5 273q2.5 1 1 2l-1.5-.5zm-3 1 .5 1.5-2.5.5v-1zm-7 6 .5 1.5-5.5 1.5v-1zm-12 1 1.5.5-2.5 1.5q-1.5-1 1-2Zm3 2 2.5.5-2.5.5zm10 43 .5.5-2.5 2.5-.5-.5zm20 4 2.5.5-2.5.5zm-11 12 .5 2.5q-1 1.5-2-1zm12 13 .5 3.5h-1zm4 34 2.5 1.5-.5 1.5-2.5-1.5zm-120 64 1.5.5-2.5 3.5-.5-1.5zm-43 7 1 1 1.5-.5-1.5 1.5q-2.5-1-1-2Zm-10 2 2 1 2-1q1.5 1-1 2l-3-1zm-77 73 1.5.5-2.5 1.5q-1.5-1 1-2Zm0 3 2.5 1.5-1.5.5q-2.5-1-1-2Z"/><path fill="#dcdcf0" stroke="#dcdcf0" d="m300.5 205 .5 3.5h-1zm-1 12 .5 6.5h-1z" opacity=".294"/><path fill="#757e95" stroke="#757e95" d="m298.5 209 .5 2.5h-1zm19 12 2.5.5-2.5.5zm9 1 3.5.5-3.5.5z" opacity=".404"/><path fill="#b6bfcf" stroke="#b6bfcf" d="m299.5 211 .5 5.5h-1z" opacity=".616"/><path fill="#35363a" stroke="#35363a" d="m332.5 172 2.5.5-2.5.5zm-30 52 10.5.5-7.5.5-1 1-2.5-1.5zm49 7-.5 1.5 1 2q-1 1.5-2-1zm7 9 2.5 2.5-.5.5-2.5-2.5zm7 9 1.5 2.5h-1zm5 12 .5 7.5q-1 2.5-2 1v-7zm-129 37 .5 2.5h-1zm109 6 .5.5-2.5 2.5-.5-.5zM.5 314l5.5 4.5-2.5.5-3.5-4.5zm245 1 2.5 3.5q-1 1.5-2-1zm4 1 5.5 5.5-.5.5-2.5-1.5-3-4zm12 9 2.5 1.5-2.5.5zm91 0 1.5.5 2 3-.5.5-3.5-3.5zm-74 5 3.5.5-3.5.5zm1 2 3.5.5-3.5.5zm-17 8 1.5.5-.5 1.5q-2.5-1-1-2Zm-261 1 .5 2.5 3 4v11H4v-11l-3-4zm260 4 1 2 1.5.5-.5 11.5-1.5-.5v-11q-1.7-.7-.5-2.5Zm6 0 1 2 3.5 1.5-1.5.5-3.5-2.5zm99 2 .5 1.5-1 1-.5 5.5-.5-6.5zm-113 14 4.5.5-4.5.5zm6 1 3.5.5-3.5.5zm-12 4-.5 1.5-.5 2.5-.5-2.5zm25 0 3.5.5-3.5 4.5zm-26 7 1.5 2.5-1.5-.5-1.5-.5zm2 4 .5 2.5h-1zm123 4 1.5.5-1.5 2.5zm3 1 1.5 2.5-2.5.5v-1l1.5-.5zm-128 1 1.5.5q-1 2.5-2 1zm22 5 .5 3.5q-1 2.5-2 1zm106 1 .5 2.5h-1zm1 6 1.5.5-.5 1.5-2 1 .5-1.5zm-123 1 3.5 2.5-.5 1.5-3.5-3.5zm4 5 1.5 2.5q-1 1.5-2-1zm9 3 .5 1.5q-1 2.5-2 1zm-41 10 .5 2.5-2 2 .5 1.5q-2.7-1.2-.5-2.5zm154 6 .5 3.5h-1zm-155 2 1.5 2.5h-1zm35 2-.5 1.5-.5 1.5-.5-1.5zm-35 5 1.5.5q-1 2.5-2 1zm162 0 1.5 2.5q-1 1.5-2-1zm-130 2 .5 1.5-1.5.5q-1.5-1 1-2Zm123 5 21.5.5-21.5.5zm-148 1 1.5 2.5h-1zm-53 1 .5 2.5h-1zm45 1q1.5 1-1 2l-1.5-.5zm46 0 .5 7.5h-1zm-219 1q1.5 1-1 2l-1.5-.5zm187 2 .5.5-2.5 2.5-.5-.5zm142 1 2.5 1.5-.5 1.5-2.5-2.5zm-137 1q2 .5 1.5 3.5l-1 2 1 2h-1l-1-3 1-2q-1.7-.7-.5-2.5Zm-39 1 .5.5-2 2 1 1-2.5 2.5-1-1-3 3-.5-.5zm10 6 .5 2.5q-1 1.5-2-1zm-60 1q1.5 1-1 2l-2 1q-1.5-1 1-2zm57 1 .5 1.5-3.5 1.5h-3v-1zm-166 2 2.5.5-2.5.5zm6 0 1.5.5-.5 1.5q-2.5-1-1-2Zm98 0 .5.5-2.5 2.5-.5-.5zm53 1 .5 2.5q-1 1.5-2-1zm177 1 .5 1.5-4.5 5.5-.5-.5 2-2zm-103 2 6.5 6.5-.5.5-2 1-.5-1.5 1-1-5-5zm105 0 3.5 2.5-1.5.5-2.5-2.5zm-169 3 .5 1.5-2.5.5v-1zm-50 4 1.5 2.5h-3zm211 0 .5.5-2 2 .5 1.5-2.5-.5zm-142 2q1.5 1-1 2l-2.5-.5zm51 1 2.5 2.5-.5.5-1.5-.5-.5 1.5-.5-1.5 1-1zm-182 2 1.5.5-.5 1.5-2 1 .5-1.5zm8 0 4.5.5.5 1.5 2.5.5-3.5.5-4.5-1.5zm54 0 1 4 2 1 1-2 .5 3.5-2.5.5-1-2-1.5-.5zm-26 2 4.5.5.5 1.5 2.5.5-5.5.5-2.5-1.5zm-79 1q2.5 1 1 2l-1.5-.5zm63 0q2.5 1 1 2l-1.5-.5zm5 0 5.5.5-5.5.5zm23 0 5.5.5.5 1.5 3.5.5-7.5.5-2.5-1.5zm45 0 2.5.5-2.5.5zm-129 1 5.5 5.5-.5.5h-2l-4.5-4.5zm124 0 2.5.5-2.5.5zm-97 1 2.5.5-1.5 1.5q-2.5-1-1-2Zm192 0 .5 5.5q-3.3 2.2-4.5 6.5l-2.5-.5 3-2 3-4zm-99 5 1.5.5 1 2-.5.5-2.5-2.5zm111 1 2.5.5 1 2-.5.5-2-2q-2.4-.1-1-1Zm62 0 .5 2.5h-1zm-285 2 1.5.5-.5 2.5q-2.4-.9-1-3Zm14 0-.5 1.5-.5 1.5-.5-1.5zm283 0 .5 5.5 1 1q-1 1.5-2-1zm-294 1 1 2 1.5-.5.5 1.5 1.5-.5 1 2-1.5-.5-4.5-1.5zm9 3 .5 1.5-2.5 1.5v-1l1.5-.5zm194 1 .5 7.5h-1l-.5-1.5-1.5-.5.5-3.5 1.5-.5zm22 0 .5 6.5h-1zm57 0-.5 1.5v4l-3.5 3.5-1.5-.5 2-1 .5-5.5zm-169 1 1.5 4.5q-1 1.5-2-1zm114 0 .5 4.5h-1zm70 1 .5 2.5h-1zm-1 4 1.5.5-.5 1.5q-2.5-1-1-2Zm-182 1 .5 2.5h-1zm164 3 .5 3.5h-1zm-70 5 .5 14.5h-1zm69 0 2.5.5-2.5.5zm-58 1 .5 12.5h-1zm62 2 1.5 7.5h-1l-1-3zm-207 10 .5 3.5h-1zm220 0 .5 8.5 1 1-1.5 2.5zm-12 4 .5 3.5h-1zm-59 3 2.5 2.5-.5.5-2.5-2.5zm-30 6 2.5.5-2.5.5zm108 8 .5 1.5-1.5.5q-1.5-1 1-2Zm-266 15 2.5.5-2.5.5zm52 5 .5 2.5h-1z" opacity=".263"/><path fill="#46494f" stroke="#46494f" d="m241.5 286 .5 11.5h-1zm128 71 2.5 1.5-1.5-.5q-2.4-.1-1-1Zm-123 13 .5 2.5h-1zm20 25 .5 2.5h-1zm-41 1 6.5.5-6.5.5zm-48 45 .5 2.5h-1zm30 0-.5 1.5-4.5 5.5-1.5-.5zm-41 4 1.5.5-2.5 1.5q-1.5-1 1-2Zm39 8 3.5.5-9.5 3.5-.5-1.5zm-6 7 11 1 1.5-.5-1 1 .5 1.5-1-1-11-1zm81 6 .5 2.5h-1zm-176 7 5.5.5-5.5.5zm29 2 2.5.5-2.5.5zm11 1 3.5.5-3.5.5zm14 1 3.5.5-3.5.5zm-91 6 3.5 3.5-.5.5-3.5-3.5zm301 8 .5 3.5h-1zm-75 32 2.5 1.5-1.5-.5q-2.4-.1-1-1Zm-12 1 .5.5-3.5 3.5-.5-.5zm-12 6 3.5.5-3.5.5zm-8 1 2.5.5-2.5.5zm92 2 .5.5-3.5 3.5-.5-.5zm-242 20 3.5.5-3.5.5zm280 6 .5 3.5h-1zm-267 2 .5 1.5q-1 2.5-2 1z" opacity=".643"/><path fill="#93591f" stroke="#93591f" d="M197.5 567q2 .5 1.5 3.5-1 2.5-2 1l1-3zm-96 4 .5 1.5q-1 2.5-2 1zm76 10 1.5.5q-1 2.5-2 1z" opacity=".773"/><path fill="#656e7c" stroke="#656e7c" d="m264.5 242 .5.5-2.5 2.5-.5-.5zm-50 207 .5 2.5h-1zm-18 7 2.5.5-2.5.5zm172 15 .5 3.5h-1zm-26 70 1.5.5-4.5 3.5-.5-.5z" opacity=".616"/><path stroke="#000" d="M.5 0 400 .5l-.5 164.5h-63l-6 2-1-2h-7l-5 2H.5zm0 169h312l1 1 2-1v1l-8 7q-1.2-2.2-2.5.5l.5 1.5 1.5-.5-4 7-2 6v3l-1 1-1 11-1 1-.5 17.5-1-3-1.5.5-.5 1.5L0 223.5zm309.5 3-1 2q1 1 2-1zm-5 7-2 3q1 1 2-1zm-5 12-1 3h1zm-1 4-1 3h1zm-1 5-1 5h1zm-1 6-1 11h1z" opacity=".027"/><path stroke="#000" d="M323.5 169h5l4 4h2l2.5-1.5.5-2.5 1 2 1-2 60.5.5-.5 52.5-61.5.5-.5 1.5-1-3q-3.2-.7-4 1h-10l-2-3-3.5.5-1.5 3.5q-1-2-2 0h-8l-3 1-1-13-1 12-.5-12.5 1-1 1-13 1-1 1-6 1.5-1.5 2.5-1.5-1-5 1.5-1.5q1.2 2.2 2.5-.5l-.5-1.5-1.5.5 6.5-6.5zm-2.5 2v1h2zm-15 18-1 3h1zm-1 3-1 4h1zm-1 4-1 5h1zm-1 6-1 8h1zm20 18v1h8zm24.5 4 52.5.5-52.5.5zm-347 2 292.5.5-5.5 2.5H.5zm347 0 52.5.5-52.5.5zm4 4 48.5.5-48.5.5zm-351 1 280.5.5L.5 232zm0 3 274.5.5L.5 235zm354 0 45.5.5-45.5.5zm-354 6 263.5.5-7 6-4 6 .5 1.5-1.5.5v2l-4 5-4.5 8.5L0 269.5zm371 20 .5 2.5h-1zm-1 9 29.5.5-.5 3.5-29.5.5.5 1.5 29.5.5-.5 1.5-30.5.5 31 1-.5 1.5-31.5.5 32 1-33 1 33 1-.5 1.5-33.5.5 34 1-.5 37.5h-44q-.7-1.7-4-1l-4.5-3.5 3-1-2.5-1.5-8-1-4 2-.5-1.5 16-12 12-15 4-8 2-6v-5zm-4.5 18-1 3h-1v1h2zM.5 279l.5 2.5H0zm0 4 240.5.5-2 1-.5 13.5L0 297.5zm0 17 240.5.5L.5 301zm0 4 241.5.5L.5 305zm0 4h241l3.5 1.5-2 1 2 2-.5.5L0 312.5zm245 6q1 2 2 0l1.5 1.5-1.5 2.5-2.5-3.5zm-245 1 2.5 3.5-2.5.5zm0 5 250.5.5.5 1.5q4.5-1 5.5 1.5l-.5 1.5 3 2 1-2 1 3 6.5.5-2 1 3.5 1.5q1.5-3.5 3-1l17.5 1.5q-3.8.2-5 3l.5 1.5-3-2-16-1-3 2H.5zM273 331v1h2zm6 1v1h4zm78.5-4 42.5.5-42.5.5zm2 3 40.5.5-40.5.5zm1 2 39.5.5-39.5.5zm-360 3 263.5.5L.5 337zm0 4 .5 3.5 3 4 .5 11.5 249.5.5-1.5 2.5-4.5 2.5-.5 1.5q-1.3-2.2-2.5.5l.5 1.5-1.5.5q-.9 5.4 1.5 7.5l2.5.5-.5 2.5-1.5.5 1 3-2 1-.5 1.5L0 384.5zm261 2 1 2 1-2 2 3 1.5.5-.5 13.5-1-13-.5 12.5-1.5 1.5-4.5.5 2 1-2.5.5-1.5-2.5 7-1-.5-11.5-1.5-.5q-1.7-1.7-.5-4.5Zm7 6 .5 10.5h-1zm2 1 6 2 2-1-.5 1.5-.5 1.5-1.5-.5-1.5 2.5-2 1-1-6-1 8zm98 5 .5 1.5q-1 2.5-2 1zm3 1 28.5.5-.5 5.5-27.5-.5-1-3zm2 7 26.5.5-.5 9.5-31.5-.5 2-1-4-1 4.5-.5 1.5-1.5zm-102 5 1.5.5-7 9-1 3 1 2-.5 1.5 2.5.5 1 4-1.5 2.5-1.5-.5 1 3-3 1-.5 2.5h-9l-1-1-1.5.5 2-4 2-10 1.5-1.5 6.5-5.5 1.5-4.5zm102 13 26.5.5-.5 5.5h-27l-1.5-1.5q1-2.5 2-1l.5 1.5 2.5-.5-1.5-2.5-1.5-.5zm-373 8 245.5.5-1.5 3.5-1-2-1 2h-3l-3.5 2.5-.5 1.5-2.5-.5-.5-1.5-7.5.5-2.5 3.5L0 397.5zm376 0 23.5.5-.5 1.5-23.5-.5zm-1 5 24.5.5-.5 2.5h-22l-2.5-1.5zm0 4 24.5.5-.5 1.5-26.5.5-.5 3.5-.5-4.5zm-112 1 2.5.5-.5 5.5-2.5-.5-.5-1.5-3 1 .5-1.5-.5-1.5-3 1-.5-1.5 6.5-.5zm-263 1 222.5.5-3 2 1 2L.5 404z" opacity=".027"/><path stroke="#000" d="m374.5 402 25.5.5-25.5.5zm1 2 24.5.5-24.5.5zm-375 2 220.5.5-3 1 .5 3.5 5.5 2.5-.5 2.5-1.5.5-1 3v8l1.5-.5 2.5 1.5-3 1 .5 1.5 1.5.5-.5 1.5-1.5.5 3 1-2.5.5-1-1h-45l.5 1.5-.5 1.5-1.5-3.5 47-1-47.5-.5q-1 2-2 0l-2.5 2.5 1 2h-1l-.5-1.5-1 2h-9l-1-1h-119v1l2.5.5-3.5 1.5h-3l-1.5 1.5q-1.8 2.2-1 7l4 2 .5 1.5q3.3-.7 4 1 1.3-2.2 2.5.5l-2 1 1.5 2.5 2.5 1.5.5 2.5 2.5 1.5 1 2-2 1 3 1 4.5 10.5 6.5 5.5 6.5 7.5 13.5 5.5-3 6-1 7-5 15 1 3q-3.3 1.3-2 7l.5 1.5-2.5 1.5 2 6v4l1 1 1 7 1 1v3l1 1q-2 1-1 5l4 3-4.5 4.5-3.5.5.5 1.5 1.5.5.5 1.5q1.8 1.7 6 1l1 1h13l7.5-2.5 1-3-4-6 1.5.5h6l1 1h9q1.2-2.2 6-1l3.5-3.5-1-4-3.5-3.5h-2l-3-2-7.5-.5 1-2-2-3-1-14-3-7 6-2 1.5-3.5 1.5-.5 6.5-11.5h9l2 1q1-2 2 0h6l10.5 6.5q-1.8.8-1 4 2 1 0 2-1.5 6.5 2 8l-2 1q-.9 5.4 1.5 7.5l1.5.5-1 7 1 3 1 11 1 1v6l-1 3 2.5 3.5 1.5.5-4.5 5.5q-3.7-.7-4.5 1.5l6.5 3.5 15 1 1-1h4l3.5-1.5.5-1.5 2 1 .5-3.5-3-5 3.5-.5 1 1h8q1-2 5-1l6.5-3.5-4.5-7.5-5-2-8.5-.5 1-2-2-3 1-1-1-3v-18l-2.5-3.5-2.5-.5 3-1 5-13 1-7 2-4v-5l1-3-1-3-1-7-2.5-5.5-1.5-.5 2.5-4.5h4l1-1q4.2.7 6-1v1l-1.5.5 3.5.5 6.5-2.5-3-1 2.5-.5 1.5.5.5-1.5 1.5-.5-1.5-3.5-1 2-.5-3.5 1.5-1.5q4.8 1.3 6-1l2 2 6 1q2.8 3.7 9 4l3-5 2 1 4.5-5.5 5-10-1-2 2-3-3-2 2.5-4.5q4.8-1.7 7.5-5.5l.5-1.5 2.5.5.5 4.5 2.5-9.5 2.5-3.5 4.5.5v4l2 5-2 1 3 1-2 1 3 2-.5 1.5-1.5.5.5 3.5 1.5-.5-1 5 3 2 1 2-2 1 .5 1.5 2.5.5-1 2 1.5 1.5 1.5-.5 5 6q-2 1-1 5l3 1-1 3 2 1q-1.8 2.2-1 7l-4.5 5.5-1.5.5-1 7 2 1 1 4 2.5 3.5 1.5.5v15q2 1 1 5l-3 2-3.5 4.5h-9q-1.2 2.3-6 1l-1 1h-4l-1 1h-3l-7.5 2.5-6.5 12.5-1.5.5-.5 1.5q-1.2-2.3-2.5.5l1.5 2.5 7 3 9 1 1 1h21l1-1h12l1-1h9q1.3-2.2 6-1l1-1h3l6-2 3.5-2.5 1-4-4-3v-2l-4.5-7.5-7.5-3.5q-.6-3.9-3.5-5.5l-3.5-1.5.5-18.5 1.5-.5 3.5-7.5 2.5-1.5v-5l-1.5-3.5-1 3-1.5-3.5 2-1-1.5-1.5-1.5.5-.5-1.5-1.5-.5q-2-2.5-1-8 1.3-2.7 2.5-.5l13 7h3l5 2h11l1-1h4l6-2 5-3h4l2 1q1.3-2.2 2.5.5l.5 1.5 1.5.5q-2 1 0 2l-.5 8.5-1.5.5q1 4-1 5l.5 1.5-1.5.5 2 1-3 2 .5 1.5 2.5 1.5-2 1 4 2v5l2 5-1 2 1 2q-1.7.8-1 4 2 1 1 5l-2 1v2l-5.5 6.5q-7.4 1.1-10.5 6.5l-2 7-1.5 1.5q-7.5 0-10.5 4.5v2l4.5 4.5 8 4 6 1 1 1h4l1 1 25 1 1-1h7l6-3 3.5-3.5q1.7-1.8 1-6l-2.5-4.5-1.5-.5-1-3 .5-1.5-1.5-.5-.5-3.5-1.5-.5.5-1.5-3-2-5-1-1.5-1.5-.5-1.5-1.5.5-.5-2.5-5.5-4.5 1-3 1-2-1-1v-8l-1-1 1-2q-2.5-1.5 1-3v-4l2.5-3.5 1 2 1.5-3.5v-3l-3-4v-5l-2-5-.5-7.5-1 6-.5-6.5 2-1 .5-1.5 1.5-.5q1.3-4.7-1-6l5.5-6.5 7.5-.5q-1.2-2.8-5-3l2-1-3-1 4-6 .5-6.5 18.5.5-.5 195.5L0 639.5zM383 445v5-1l3-2zm-192 31v1h2zm-5 1v1h4zm190.5-71 23.5.5-23.5.5zm-1 6 1 2 1-2 22.5.5-.5 2.5h-20l-2-1q-1.3 2.3-2.5-.5zm5 8 .5 2.5h-1zm0 4 19.5.5-19.5.5zm2 3 17.5.5-.5 8.5h-21l-1 1-.5-2.5 10-3-1.5-2.5-3-1z" opacity=".027"/><path stroke="#000" d="m229.5 436 1.5 2.5-2.5.5.5-1.5zm-183 2 107.5.5.5 6.5 2.5 1.5 1 2-1.5-.5-1 1-2.5 1.5-.5 1.5q-1-2-2 0l-1.5.5q2.3 1.3-.5 2.5l-2-1 .5 1.5-2 2-1.5 2.5-1.5-.5.5 1.5 5.5.5-3 1 4.5 1.5 1-2q6 .5 9.5 3.5l-1 4 2 1-3 2 .5 1.5 1.5.5-.5 1.5 2.5.5-5.5.5-3.5-1.5-.5-1.5-7.5.5-.5 1.5-4.5-1.5-.5-1.5-6.5.5-.5 1.5-9-1-3 1-1-2-2 3-5.5-3.5-.5-1.5-7.5.5-.5 1.5-2.5-.5.5-1.5-4.5.5-.5 2.5-2 1-1-2-1 3-1-2-2.5 2.5.5 1.5-2.5.5q2.5 1.5-1 3l-3 4-1.5 4.5q-3 .5-3.5-1.5l-.5-1.5-1.5.5-.5-1.5-1.5.5-.5-1.5-1 2-1-3-2 1-3.5-3.5.5-.5 1.5-.5-7-7-1.5-3.5-1 2-.5-1.5 1-2-1.5-2.5-1.5.5q2-1 0-2l-3.5-6.5-1.5.5q.8-4.2-2-5l1-2-1.5.5-1.5-.5 4-2-2.5-.5-1.5.5 1.5-4.5 1.5.5.5-2.5 102.5-.5-.5-1.5h-102l-4-2zm332 0 21.5.5-21.5.5z" opacity=".027"/><path stroke="#000" d="m155.5 439 .5 3.5h-1zm51 0 .5 2.5-3.5 3.5-.5-.5v-2zm-43 1 3.5 1.5-2 3 .5 1.5-2.5-3.5zm64 0 2.5.5-.5 2.5-1-2-1.5.5zm-17 1 5.5.5-.5 1.5-5.5-.5zm168 0 21.5.5-.5 1.5h-19l-1-1-1.5.5zm-190 2 13.5.5-12.5.5-1 1zm-7 1 1.5.5-.5 2.5q-2.4-.9-1-3Zm10 1 2.5 2.5-.5.5-2.5-2.5zm18 10 2.5.5-2 1-.5 3.5-2-2q-4.7.8-6.5-1.5l2.5-.5 2 1zm-11 2q2.5 1 1 2l-2.5-.5zm157 28 .5 3.5h-1zm-259 30 2.5 1.5-3 2q-1.3 4.8 1 6l-3 2 2 10 1 1v3l1 1v3l2 4q-2.5.5-2 4l2.5 3.5 1.5.5-3.5 5.5q-3.2-.7-4 1h-9l.5-1.5-3-8v-7l-1-1v-4l-2-6 6-3zm68 5q4.5-1 5.5 1.5-3 1-2 6l4 3-2 6 1 1 1 12 1 1v8q-2 1 0 2l1.5 2.5 1.5.5-4.5 6.5-2-1q-1.3 3.3-7 2l-1.5-4.5v-8l-1-1v-16l-2.5-2.5-1.5-.5 3-2v-3l2-2 1-7z" opacity=".027"/><path fill="#919bae" stroke="#919bae" d="m312.5 172 .5.5-3.5 3.5-.5-.5zm-14 40 .5 4.5h-1z" opacity=".722"/><path fill="#c5d2da" stroke="#c5d2da" d="m325.5 165 1.5.5-.5 1.5-1.5-.5zm-8 2 4.5.5-4.5.5zm-16 52 .5 3.5q-1 2.5-2 1zm-61 73 .5 2.5h-1zm119 40 40.5.5-40.5.5zm-162 141 4.5.5-4.5.5z" opacity=".039"/><path fill="#aab4b4" stroke="#aab4b4" d="m322.5 167 5.5.5-5.5.5z" opacity=".333"/><path fill="#454448" stroke="#454448" d="M316.5 224h3l7.5 2.5-.5 1.5 4-1v1l-4 1-9-3v1l12 4h5l2-1 4 2h4l1 1 4.5.5-9.5.5-2-1-2 3-4.5.5-1 3 .5 1.5-4-3h-2l-2 1-1.5-.5-1.5 2.5-3.5-5.5 3-2-.5-1.5-7.5 1.5-1.5 2.5-1.5.5 2 1 1 2q-1.7.8-1 4l1 3-5 1-.5 2.5-1.5.5-1 2 3 1-4.5 3.5q-1.2-2.2-2.5.5l.5 1.5 1.5-.5-2.5 4.5-4.5 2.5 1 2-5 3-1 4 4 3-1.5.5q-3.7-1.3-4-6l-4 2-1.5-.5-1.5 2.5-6 3q-1.2-2.2-2.5.5l2 1-2.5 1.5-1-1-1.5.5q2-1 1-5l-1-1 .5-1.5-2.5 1.5-.5 1.5-1-3q-2.8 1.2-3 5l-1.5-.5 1-2-2-3 1-2-1.5-.5-1.5 3.5.5 1.5-1.5.5-1.5 2.5-.5-1.5 2-5-1-3 1-2-1.5-.5-2 3-3.5-1.5q2.8-.7 2-5l-.5-1.5 1.5-.5 3.5-5.5 3 4 3.5-2.5q-.5-3 1.5-3.5l3.5-1.5-1-2 2-1 1.5-2.5 3.5-2.5.5-1.5 5 1 2.5-2.5-1.5-1.5-1.5.5.5-1.5 3 1 2-3 1.5-.5-2.5-1.5-1.5.5q1.3-2.7 2.5-.5l3.5.5-2 2 .5.5 5.5-1.5.5-1.5 3-2h2l3-3 1 1h6l1 1 4.5-2.5-2-2 .5-.5 2.5-.5zM298 235l-1 2h2q1-1-1-2Zm7 4v2l2-1zm-20 11-3 5h2l2-4zm-2 7-3 2 2 1-1 2h1l2-2z" opacity=".996"/><path fill="#454448" stroke="#454448" d="M300.5 227q2.5 1 1 2l-5 1q-1.5-1 1-2zm30 2 2.5.5-2.5.5zm-37 1 1.5.5-3.5 1.5v-1zm30 10 2 1 1.5-.5-2.5 1.5q-2.5-1-1-2Zm-4 5 2.5.5-1.5 1.5q-2.5-1-1-2Zm-57 1 .5.5-3.5 3.5-.5-.5zm103 7 1.5.5-3 7-3.5 3.5-.5-.5 3-3zm-104 1 1.5 2.5q-1 1.5-2-1zm52 6q2.5 1 1 2l-1.5-.5z" opacity=".996"/><path fill="#454448" stroke="#454448" d="m368.5 260 .5 9.5-1 1v4l-1.5 3.5-1.5-.5-1 4-3.5 4.5-1.5.5-1.5 2.5-16 8-6 1-4 2h-6l-6 2q-1-2-2 0-4 1-5-1l-1 2-3 1h-12l-2 1-3-1-2 1-3.5-1.5.5-1.5-3 2-3-2-3 3-7 1-4 2-2-2-1.5.5q-.7-3.2 1-4l-.5-1.5h3l3-2h3l6-3 1.5.5.5-1.5 4 3 3.5-1.5-4-1 4.5-.5 1-1 .5 1.5-1 3 1.5.5 5-2 1 1 2-2q1 2 2 0l2.5-1.5q.7-4.2-1-6l1.5-.5 3 6h4l6.5-3.5-1-6h1v2l2.5 3.5 11-4q1.4 2.6 6 2l1-1 9-1 2-1 12.5-9.5.5-1.5 1.5-.5-1-1 4-4zM288 299q-3 1-1 2h1zm-36.5-28 1.5.5-2.5 1.5q-1.5-1 1-2Z" opacity=".996"/><path fill="#454448" stroke="#454448" d="m249.5 275 1.5 2.5q-1.2 2.8-5 3l.5 1.5 2-1 .5 2.5-1 2 3.5 4.5 9 3 .5-1.5-5-3-1-4 2.5-4.5 3-1q2.5 1 1 2l-2-1q-2.9 1.6-3.5 5.5l2.5 3.5 2 1 2.5-3.5.5-3.5 1 3q4-1 5 1l2-1 1 2 1.5.5-3 1 1.5 1.5q1-2 2 0 3.3.8 4-1l2.5 3.5-1.5-.5q-4.1-.6-5.5 1.5l.5 1.5-2-1-1 2-3 1v-2l-3.5 1.5 2 1-16.5 5.5-4.5.5 2 1-3 1 2 4h-1l-2-4 .5-1.5-1.5-.5-1-7 1.5-2.5 1.5-.5-2-1v-8l1-1 .5-4.5 1.5-.5q-2-1 0-2l.5-1.5 1 2zm26 7 2.5.5-2.5 1.5z" opacity=".996"/><path fill="#454448" stroke="#454448" d="m256.5 303 1.5.5-2 1q.8 4.8-2.5 5.5l-1.5-.5 2-1-.5-1.5-3.5-1.5zm28 8 3.5 3.5-.5.5-3.5-3.5zm-12 3 12 11 1-2 3-1 .5.5-2.5 2.5-3 2-11.5-12.5zm59 4 1.5.5 1 2-1.5-.5-1.5-.5zm12 2 .5 1.5-.5 1.5 2-1 .5.5-5 5-.5 1.5-1.5.5-.5 1.5-1.5.5-1.5 3.5-3-1q-3 1.5 0 3l2.5 1.5 1 3-3.5 1.5-6-3h-5l-2.5 3.5-.5 4.5-1.5-3.5 3-7 3.5-3.5 1.5-.5-3-1 4-1-1-2 2.5-2.5 1.5.5 2.5-3.5 1.5.5-.5 1.5q-1.2-2.3-2.5.5l-1 2 1.5.5 2-2 7.5-3.5-1-2 1.5.5 2.5-.5zm-15.5 8-2 3h2q3-1 0-3Z" opacity=".996"/><path fill="#454448" stroke="#454448" d="M335.5 322q2.5 1 1 2l-1.5-.5-.5 1.5-.5-1.5zm-44 1 1.5.5-3 2 1 2q-1 1.5-2-1zm29 1q1.5 1-1 2l-3 1v-1zm-6 3q2.5 1 1 2l-2.5-.5zm-22 1-.5 1.5 1 1 1 4h-1l-2-5zm26 4 1 1 1.5-.5-4 2q2.5 1.5-1 3l-1 6-2.5 2.5.5-1.5-1-5 1-3-3.5-1.5-2 2-.5-.5 3.5-2.5 2 1zm25 0 7.5.5-5 1 .5 1.5-1.5.5-4 7 .5 1.5-1.5.5-1 3 2 1-.5 1.5-3.5-2.5 2-4-2-3v-2l2-1 2.5-4.5zm-53 1 1.5 4.5-4.5 3.5-3-3-5.5-.5 4-1-.5-1.5 1.5.5.5 1.5 2.5-.5.5-1.5zm6 0 1.5 3.5-3 3 .5 1.5q-2.7-1.2-.5-2.5l.5-2.5 1.5-.5q-1.7-.7-.5-2.5Zm-29 1 3.5 2.5-1.5-.5q-3.8-.7-2-2Zm32 0 3.5.5-.5 1.5-2-1-1 2zm-22 1 2.5.5-2.5.5zm27 1 .5 2.5-1.5 2.5-1.5.5.5 1.5-1.5.5-1 3 .5 1.5-1.5-.5 1 2-2 1q2 1 0 2l1 2-1.5-.5-1 1-2.5-1.5 8.5-16.5zm-32 1 3 2 1.5-.5-2 2 .5 1.5q-1-2-2 0l-1.5-.5 3-2-3-2zm-8 4 6 4 3-1 .5 1.5-3 1 .5 1.5-7.5-5.5zm15 0 1.5.5-2 1-.5 2.5-1.5-1.5zm3 2 1 2 3.5 2.5-.5 1.5-4.5-2.5-1-2zm32 3 2.5 4.5v2q-1 1.5-2-1l-.5-3.5-1.5.5zm37 0 3.5.5q-4.7 1.3-7 5l-.5 1.5-1-2-1 2-.5-1.5q1.3-2.8 2.5-.5l2.5-2.5-.5-1.5 1.5.5zm-70 2 .5 7.5-1 2 2 1-1 2h2q-2 1 0 2v2l-3 3q2 1 0 2l-.5 1.5-2.5 1.5 1.5 2.5 1.5.5-3.5.5-3-1-4.5 3.5-1.5 2.5-.5-2.5q7.2-7.8 11-19l-1.5-2.5-2 1v-1l2-1 1.5.5q-.7-3.2 1-4-2.5-1.5 1-3zm9 0 2.5 1.5q.8 3.8-1.5 4.5l-2.5-1.5zm.5 2-1 3h2v-2zm62.5 1q4.8-.7 6.5 1.5l2 3-1.5.5-5-4h-2zm-40 1 2.5 2.5-1.5 1.5-1.5-.5-.5 1.5q-4.7.3-6.5 3.5l-2.5 4.5q-1.8-1.7-6-1l-1-1-1.5.5 1-1-.5-1.5 1.5.5 3.5-7.5.5 1.5-.5 1.5q4 1 5-1l2 1 6.5-3.5zm21 0 1.5 1.5 1 4-2 3q1 2.5 2 1l.5-1.5 3 1q2.3-.7 1.5-4.5l-2-3q1.5-3 3 0l.5 1.5 1.5-.5-.5 5.5-1.5.5 6.5.5q.8-1.7 4-1 2.5 1 1 2h-17l-2 2-1.5-.5-.5 1.5q-3.2.8-4-1l-3 5-2.5-.5 1.5-3.5 2 1 4-6q1 2 2 0l1.5-.5v-5q-1.7-.7-.5-2.5Z" opacity=".996"/><path fill="#454448" stroke="#454448" d="m346.5 354 .5 2.5h-1zm21 3 2.5 1.5-2.5 1.5zm-12 1 2.5.5-2.5.5zm-45 1q1 2 5 1l1.5-.5-.5 1.5 6 3 4-5q2.5 1 1 2l-1.5-.5 1 2-1.5-.5-1.5 1.5q-1.7 4.8-5.5 7.5l-3-2 .5 1.5-1 2 .5 1.5-2.5-1.5 1-4-4.5-2.5-1.5 2.5q2.5.5 2 4l-1.5.5q-2.7-1.2-1.5-6.5l2-2-.5-.5-1.5-.5z" opacity=".996"/><path fill="#454448" stroke="#454448" d="m362.5 359 3.5.5-5 2 8.5.5 2-3-.5 1.5 2 2-.5.5q-1-2-2 0l-9 1-2.5-1.5.5-2.5zm-76 1 3.5 2.5-1.5.5-2.5-2.5zm-19 3 1.5.5-2.5 1.5q-1.5-1 1-2Zm87 0q1.5 1-1 2l-3 1h-7l-1 1h-8v-1l2-1h11l1-1q1 2 2 0 3.3.8 4-1Zm15 1 2.5 1.5-1.5 2.5-3-1v2l-1-1-7.5-.5 9.5-1.5 1.5.5zm-117 1 3.5 2.5-.5 1.5-2-3q-2.4-.1-1-1Zm36 1q2 2.5 6.5 2.5l-4.5.5-2.5-2.5zm52 2 2.5.5-2.5.5zm-93 1 .5 3.5h-1zm49 0 1 2q1-2 2 0l1.5.5.5 1.5 1.5-.5q-2.6 1.4-2 6l13.5 6.5 3.5-3.5 4.5-8.5q4 1 5-1l10.5 7.5-1.5.5-5-3-.5.5 2 2-.5 1.5q-2.2-4.2-4.5.5 3.4.1 4.5 2.5l4.5.5-4.5 1.5-1-1q-1.5 3.5-3 1l-1.5.5 1 1-2 2 .5.5 6-2v1l-4.5 2.5 1 1-1 1 .5 1.5-2-1-.5 2.5h2q-3.7 1.8-.5 3.5l1.5-.5-.5 1.5-1.5.5q-.5 4 2.5 4.5 3.2-.7 4 1 .8-1.7 4-1l4-3h2l1 2 1-2 1.5.5q-1.2 2.8-5 3l1 3h-1l-.5-1.5q-1.8-1.7-6-1-1 2-5 1l-1.5 1.5.5 1.5 1.5.5-3.5.5-1-1-2.5 2.5q.5 3.5-2 4l4.5.5.5-2.5-.5-1.5 2 1q1-2 2 0l5-2v1l-3 1-5.5 4.5 3 2-2 4 2.5.5 2-3 3 1 1.5-.5-1 2 1.5.5 6-2-.5 1.5-1.5 2.5-3 1 .5-1.5-.5-1.5q-2.8 1.2-3 5-1.5-2.5-3 1l-1.5.5 1 2-1.5-.5-2.5 2.5.5 1.5h3q.7-3.8 6-3l9-8 .5.5-2 2-.5 1.5-6.5 4.5-1 2 1.5.5 7-6 7-4h2l2-2-.5 1.5 1.5 1.5 3-1 .5.5-2 2 1 1-1.5 1.5q-1.2-2.2-2.5.5l1 1-2.5 2.5-2-1-.5 1.5q.8 2.3 4.5 1.5l1-1 6-1v1l-12 3 .5-1.5-.5-1.5-1.5.5-.5 1.5-5.5 2.5 1 2-1 2 3-1-1 1 .5 1.5q-1.5-2.5-3 1l-1.5.5 3 2-1 2q1.8 2.3 6.5 1.5l8 7h2l2-1 1.5 1.5-.5 1.5q6.1-.9 9.5-4.5l-1-2h1l.5 1.5 1.5-.5-1-2 2.5-1.5.5 1.5q-2.9 8.1-9.5 12.5l-5 2-1-1h-6q-.7-2.7-5-2l-2 1-.5-1.5 9-3-3.5-.5-8 3h-3l.5-1.5-1-1-.5-2.5q-3.7.8-4.5-1.5l-1-2 5-7-4-2 2-1-1-2 3-2-1.5-2.5-3 1-5-2-.5.5 2 2-.5 1.5-8 7-.5-1.5 3-2 2-4-.5-.5-5.5 5.5-3 5 3-1-.5 1.5-2 1-2-1-.5 1.5.5 1.5q-1.2-2.2-2.5.5l-4.5 6.5.5-1.5 2-4-1.5-.5-1.5.5 1.5-2.5 2 1 .5-.5-2-2 1-1 7-11q-1.2-2.7-2.5-.5l-4 1-3.5-1.5-.5-1.5-1 2-4.5-1.5-1.5-2.5-1 2-1.5-.5.5-1.5 2.5-1.5q.8-3.2-1-4l2-3-1-2 1-1v-6q-2-1 0-2l-.5-1.5-2.5-1.5-1-2 .5-1.5-1.5-.5q2-1 0-2l-1-3 1.5.5 1-1 6.5-.5-14.5-.5-1 1h-6l-1-1-14.5-.5 30-1-27.5-.5-1.5-1.5 1-2-1.5-2.5-1.5 1.5q2.2 1.3-.5 2.5l-3.5-3.5 2-2-.5-1.5 1 1h13q1.3 2.3 6 1l1-1h12q1 2 2 0l3-1h11q1-2 5-1v1l-2.5.5.5 1.5h2l3.5-2.5-.5-2.5-1 2-1-2-1 1-15 1q-1.5-2.5-3 1l-5.5-.5 1-3-2-3 2-1-1-4 .5-1.5-1.5.5-1.5 2.5-1.5-.5 2-3-.5-.5-3 3-.5-.5-.5-3.5-1 4-1.5-.5q-.5-3.5 2-4l.5-4.5 4.5-2.5zm24.5 29-3 2h2l-1 2 1 1h-1l-2-4-4 1h2v2l2 1-3 1h-4v1q4 1 6-1h10v-4q-1-3-5-2Zm-3 20v1l3 1v-1zm-5 6q-3 1-1 2h1zm14 14q-3 1-1 2l2-1zm9 1q-3 1-1 2h1zm-13 1-2 3h1l2-2zm7 3v1h2zm28 20v1h2zm-.5-94 6 2 1.5-.5-.5 1.5q-7.2 1.3-7-3Zm-99 1 .5 2.5-3.5 3.5-.5-.5zm3 0 .5 2.5-3.5 4.5.5-1.5zm-12 1 5.5 1.5-3.5.5-2.5-1.5zm38 2 .5 2.5h-1z" opacity=".996"/><path fill="#454448" stroke="#454448" d="m309.5 374 1.5.5-.5 1.5-1.5-.5zm55 0 2 5 1.5.5-.5 1.5-2.5-1.5zm-53 3 2.5 2.5-.5.5-2.5-1.5zm-59 1 1.5.5-4 12v3l-1.5 1.5-1.5-2.5 3-7 1-6zm24 1q1 2 2 0l1.5.5-.5 1.5q-3-.5-3.5 1.5l3 2-2 1-1.5 3.5-2-1-1.5 3.5.5 1.5q-3.2-.8-4 1l.5-1.5v-7l1.5-1.5 2 1 2.5-1.5q-2.5-1.5 1-3zm69 1 7.5.5-.5 1.5q-6.5 1-7-2Zm25 0 .5 3.5q-1 1.5-2-1zm-4 3q3 1.5 0 3l-1-1-1.5.5.5-1.5zm-79 1 .5 1.5-1.5.5q-1.5-1 1-2Zm64 0 .5 1.5-4.5 2.5q-1.5-1 1-2zm-12 1 5.5.5-5.5.5zm19 0h3q1.1 2.4 4.5 2.5l-2.5.5q-.7-2.7-5-2zm-24 2 4.5.5-4.5.5zm6 1 1.5.5-.5 1.5 1.5.5-.5 2.5-2.5-.5zm5 0 1.5 4.5-1.5.5zm28 0 .5 2.5-1.5.5-.5-1.5zm-96 2 2.5.5-1 2 3-1-1 1 .5 1.5q-4 .5-4.5-2.5zm18 0 1.5.5-.5 2.5zm55 2 1.5.5-3.5 1.5v-1zm21 0q3-.5 3.5 1.5l-1 2 .5 1.5-3 1-3.5-1.5 2.5-.5 1.5.5zm-79 1 2.5.5-2.5.5zm-50 1 2.5.5q-4.5.5-6.5 3.5h-2q-1.5-1 1-2zm103 0 1.5.5.5 2.5 2-2h8v1q-7.2-1.2-9.5 2.5l.5 1.5 1.5.5-.5 1.5-2.5-1.5zm-94 2 3.5 4.5-2.5 1.5v-1l1.5-.5-3-4zm-25 1 2.5.5-2 1v3l-2 6-1.5 1.5-2 1 .5-1.5-1-1 1-1 1-6zm15 0 5.5 1.5-.5 1.5-6.5-1.5zm90 0 3 1 1.5-.5q-.7 2.3-4.5 1.5z" opacity=".996"/><path fill="#454448" stroke="#454448" d="m340.5 398 1 2 2.5.5-.5 1.5q-4.2-.7-5 2h-9q-2.5-1-1-2l1.5.5.5-1.5 1.5.5.5 1.5q1-2 2 0h2l3.5-2.5zm16 0 1.5.5.5 1.5 2-1 9-1 2.5 4.5h-3l-.5-1.5-1 2-2.5-1.5.5-1.5-3 1h-5l-1 1zm-122 1 12 2 6.5 3.5-1 1-1 8-1.5 1.5-2-1-2 1v-1l1.5-.5-5.5-1.5-2 1-6.5-2.5-1-4 1-3-.5-.5-2 2-1.5-.5 2-1 .5-1.5 2.5-.5zm15 0q2.5 1 1 2l-1.5-.5zm103 1 2.5 1.5-2.5.5zm-84 6 3.5 3.5-.5.5-2 1q-2.4-1.8-1-5Zm101 1 4.5.5-1 2 2 4h-1l-1.5-2.5q-.7 1.7-4 1v-1l1.5-.5zm-87 2-.5 1.5 2 4q-1.5 3-3 0l-1-3zm55 0 1.5.5.5 1.5 1.5.5-4.5.5.5-1.5zm8 0 2.5.5-3.5 1.5q-1.5-1 1-2Zm-75 3 2.5 1.5-.5 3.5-2.5-4.5zm-45 1 3 2 2-1 1 1 8.5.5.5 1.5 3-1 7.5 4.5q-2 1 0 2 1 4.5-1.5 5.5l-1.5-.5-.5-1.5-2 1v-2q-3-.5-3.5 1.5l2 1-2 1-.5 1.5h-3l-3.5-2.5-1-2 4.5-1.5 1 2q3 .5 3.5-1.5l-5.5-2.5h-5l-2 1v-1l1.5-.5-5.5-.5-1.5.5-1-2q3.5-1.5 1-3l1-2zm8.5 3-1 1 3 1h1q-1-2-3-2Zm5 5v1h2zm133.5-5 3.5.5-1 1 2 2-.5.5-2-2-2 2-.5-.5 1-2zm-98 2 4 6 1.5-.5-.5 1.5-6 2-.5-4.5 2-1zm18 2 1.5.5q-1 2.5-2 1zm78 2 1.5.5-6.5 4.5q-1.2-2.2-2.5.5l-.5 1.5-.5-1.5 1.5-2.5 2 1zm-145 1 3.5 1.5-.5 1.5-2-1-1 2zm52 4 2.5 1.5-2.5 1.5q-3-1.5 0-3Zm-10 1 1.5.5v3l3 4-1 1 3 3v2l3 3v2q4.2 2.8 6 8l13.5 14.5 5.5 3.5-.5 2.5-2-2-1.5.5 1-2-1.5-.5-1 2q-2.5-1-1-2l1.5-.5q-2.5-5-5 0l.5 1.5-4.5.5q2 1 1 5-2 1 0 2l-1 3 .5 1.5-2.5-.5v-10l1-1-6-3 .5-3.5 3 2 7 2q3.3-1.7-.5-3.5l-.5-1.5-2-1-1 1-2.5-2.5h2l-.5-2.5-1.5.5-2.5-3.5q-1.2 2.3-2.5-.5l1-2-3.5-3.5-1.5.5-1-3 .5-1.5-1.5-.5v-2l-4-7v-2l-2-2-1-3zm-40 2 2.5 1.5-.5 1.5-2.5-1.5zm64 2 2.5 1.5-.5 2.5-2.5-1.5zm-52 1 3.5.5-1.5 2.5-2.5-1.5zm134 0 .5 1.5-5.5 1.5v-1h2zm-200 2 1 2 1.5.5q1.7 1.8 1 6l1.5 1.5 1.5.5-1 1 .5 1.5-2-3-4-1v1l3.5 1.5 1.5 2.5 3.5.5-1.5 2.5-5 2-3-1-4 3q-1-2-2 0l-1.5.5-.5 3.5-1.5-.5-.5-1.5-3-1-1.5.5q.8-3.2-1-4l.5-1.5-7.5 3.5 2.5 1.5 4-2 .5 3.5-1.5.5-3-1-6 1-1 1 .5-1.5.5-1.5 1.5-.5.5-1.5 4-1 6-4 4 3 1.5-.5.5 1.5 3-2q1 2 2 0l1.5-.5-.5-1.5-1 1q-1.5-3.5-3-1l-2 1 .5-1.5.5-2.5 2 1 1-2 1.5-.5 1-2-1-3h1l.5 1.5.5-2.5-1-2zm.5 4v4h1zm0 7v4l4 1v-1zm51.5-11 2.5 1.5-1.5-.5q-2.4-.1-1-1Zm10 1 2.5 2.5-.5.5-1.5-.5zm66 0 .5 1.5-1.5.5q-1.5-1 1-2Zm-62 2 1.5.5-1.5 2.5zm-196 1 2.5 1.5-1.5-.5q-2.4-.1-1-1Zm113 0 1.5 4.5h-1q-1.7-1.7-.5-4.5Zm67 0 2.5 1.5-1.5-.5-4 3-.5-.5zm-64 1 1.5.5-.5 1.5q-2.5-1-1-2Zm74 0 .5 1.5-2.5 2.5-1.5-1.5h2zm-197 2 .5 2.5h-1zm187 0 1.5 2.5h-1l-.5-1.5-1 2-.5-1.5zm5 2-.5 1.5-.5 1.5-.5-1.5z" opacity=".996"/><path fill="#454448" stroke="#454448" d="m159.5 445 3.5 2.5-.5 1.5-3.5-3.5zm78 0 1.5.5-.5 1.5-1.5-.5zm-8 1 1.5.5v2l-5 10 2 1-3 1v2l-2.5 3.5-1.5-.5 2-3 4.5-13.5 2.5-.5zm-45 1 3.5.5-.5 2.5-3.5-2.5zm193 1 2 1 1.5-.5-2.5 1.5q-2.5-1-1-2Zm-333 3q2 .5 1.5 3.5h-1zm294 0 .5 1.5q-1 2.5-2 1zm-151 4 3.5.5-2.5 1.5q-2.5-1-1-2Zm28 0 .5 1.5-1.5 3.5-.5-3.5zm-34 1 1.5 1.5-3.5 3.5-2 1q-2.5-1-1-2l4.5-2.5zm12 0-.5 1.5 2 2-.5.5-2.5-2.5zm-26 1 3.5 4.5-1.5-.5-1.5-.5zm162 2 2.5 1.5-1.5.5q-2.5-1-1-2Zm38 0 1.5.5-.5 1.5q-2.5-1-1-2Zm-318 1 2.5 3.5q-1 1.5-2-1zm270 0 1.5 2.5q-1 1.5-2-1zm-147 1 1.5 2.5q-1 1.5-2-1zm41 0q2.5 1 1 2l-1-1-1.5.5zm-49 1 4.5 1.5-2.5 1.5-2.5-2.5zm36 1 1.5.5 2 7-1.5.5-2.5-4.5zm-20 1 2.5 2.5-.5.5-1.5-.5zm10 0 1.5 2.5q-1.3 4.7 1 6-1 2.5-2 1l-.5-2.5-1.5-.5-.5-1.5-1.5.5-1 3h2l-1.5 2.5-1.5-.5q2-1 0-2l-2-3 3-1-2-1 2.5-.5 2 1zm-21 1 5.5 4.5-1.5.5-4.5-4.5zm-7 3 1 2 2.5 1.5 3 4v2l-1.5.5.5-1.5-.5-1.5-3 4q-4.7-1.2-6 1l-3-2h-9l-2 1-6-2-2 1-2-1-4 2q-1-2-2 0l-2.5-2.5q1.8-2.2 6.5-1.5l1 1 22 1 1 1q1-2 2 0l6.5-.5-.5-3.5-1.5.5-2-3zm-105 6q2.5 1 1 2l-1.5-.5zm47 0 6.5.5-3.5 2.5-1-2-1.5.5 1 2-1.5 3.5-4 1-1-2h-2l-3-2-6 3q-1.5-1 1-2l2.5-.5-.5-1.5 2 1 2-2q1 2 2 0l6-1zm17 1q1 2 2 0l1.5.5-7.5 2.5-2 2-.5-.5 2.5-2.5zm235 0 1.5 1.5-.5 1.5 5.5.5-3 1 2 4-1 3q-.7 3.8 1.5 4.5l1-5 .5 5.5 2.5 2.5.5-3.5q-1.7-.7-1-4h1l1 7-1.5 4.5-1.5.5-.5 1.5-.5-5.5.5-1.5-1.5.5-1.5 5.5-.5-4.5 1-2-2-2v-7l-1.5-4.5-4.5-1.5zm-295 2 5.5 5.5q-2.2 1.3.5 2.5l2.5 1.5-1.5.5-6.5-6.5.5-1.5-2.5-.5zm112 1 1.5 1.5-1 3 1 2-1.5.5-2.5-2.5 1-1q-.5-3 1.5-3.5Zm-56 2v2l1.5-.5.5-1.5 4 2 3-1 3.5 1.5-.5 1.5 1.5.5q-2.2 1.3.5 2.5l2-1 1 1 1.5-.5-1 3 .5 1.5-3-4-.5 1.5q2.3 1.3-.5 2.5l-2.5.5q2.3 1.3-.5 2.5l-.5-2.5q2.3-1.2-.5-2.5l-1.5.5.5 1.5q-1.2-2.2-2.5.5l-.5 1.5-1.5.5q1.7.8 1 4-1 2.5-2 1 1.8-.7 1-4-2-1 0-2l-2-5 1-2-3.5-.5v2l-2.5-3.5 2-1q-2.2-1.2.5-2.5Zm4.5 2q-3 1-1 2h1zm-35.5 3 2 6 1.5.5-.5 1.5q4.1.6 5.5-1.5l.5-1.5 1.5.5.5 1.5 1.5-2.5q-1.8-.8-1-4l1.5-.5 2.5 2.5-.5.5-2-1-.5 1.5 2.5 7.5 1-2 .5 1.5-2.5 4.5-1.5-1.5q.8-3.2-1-4l1-2-1.5.5-2-1-3.5 2.5q2.3 1.3-.5 2.5l-1.5.5-.5 1.5-2.5-.5-.5-1.5-1.5.5q-.7 3.3 1 4-3.8.2-5 3l-.5 1.5-1.5-.5 2-8 6-10q-1.7-.7-.5-2.5Zm.5 5-4 6 1 1 1-2 3-3zm1 4q-3 1-1 2h1z" opacity=".996"/><path fill="#454448" stroke="#454448" d="m89.5 486 3.5 2.5-.5 1.5-2.5-1.5zm-18 1 8.5 4.5-1.5.5-4-3h-2q-2.5-1-1-2Zm66 0 2.5.5-1.5 1.5q-2.5-1-1-2Zm159 0 1.5 1.5v8l-4.5 6.5q-3 .5-3.5-1.5l.5-2.5 2 1 4.5-5.5v-3q-2.1-1.1-.5-4.5Zm-128 1 3.5.5-4.5 2.5.5-1.5zm-57 1 1.5.5-.5 2.5-1.5-2.5zm32 0 .5 3.5h-1zm30 0 2.5 1.5-.5 6.5-1.5-5.5.5-1.5q-2.4-.1-1-1Zm4 0 1.5.5-.5 1.5q-2.5-1-1-2Zm105 0 .5 6.5h-1zm5 0 .5 2.5-1 1-.5 4.5-.5-6.5zm-172 1 .5 1.5q-1 2.5-2 1zm25 0 1.5.5-.5 1.5-2.5-.5zm9 0 2.5 2.5-.5.5-2.5-1.5zm-31 1 .5 2.5-1.5.5.5-1.5zm45 0q3-.5 3.5 1.5v7l1 1-1 2 .5 1.5-1.5-2.5q2-1 0-2l-1.5-5.5-1.5-.5zm-26 1 .5 1.5-1.5 2.5-.5-1.5zm9 0 1.5.5-.5 1.5q-2.5-1-1-2Zm-15 1-.5 1.5-.5 2.5-1.5-1.5zm158 0 .5 2.5h-1zm-134 1 1.5.5-2 4v3l3 2-1.5 2.5-3.5-.5-.5-3.5-1.5-.5 1.5-4.5 1.5-.5zm202 0 2.5 4.5v4l-1.5 2.5-2.5-.5.5-1.5 2.5-.5-2-1 2-1-.5-2.5-2.5-.5zm-198 1 2.5.5-1 3 2 4-1.5 1.5-2.5-2.5h2l-3-5zm-64 1 1.5 3.5-3.5 4.5-1.5-.5 3-3-.5-.5-3.5-.5 2-1 .5-1.5z" opacity=".996"/><path fill="#454448" stroke="#454448" d="M353.5 496q2.8 1.3.5 2.5-.7 4.2 1 6-1 1.5-2-1l-1-5zm-63 1 2.5.5-2.5.5zm-115 1-.5 1.5 1 1-2 4q2 1 0 2l-.5 1.5-2-3-.5 1.5.5 1.5-2-1-1.5.5 1-1-.5-1.5 2.5-.5-1-2h1l.5 1.5 1.5-.5q-.7-4.7 2.5-5.5Zm-45 2 1.5.5-.5 1.5q-2.5-1-1-2Zm234 1 5.5 4.5-1.5.5q-1-2-2 0l-4-1-1.5.5.5-2.5 2.5-.5zm-226 3 1.5 2.5q-1 1.5-2-1zm20 1 3.5.5-3.5 2.5zm7 0 .5 2.5q-2 1 0 2l-2 2v2l-2.5 3.5-.5-2.5 2-1-1.5-2.5-1.5-.5 2-1 .5-2.5 2 1zm120 0 1 6 1.5-1.5.5-4.5 2 1 1.5-.5-1 3 .5 1.5-2.5.5v5l-1 1-.5 6.5-1.5-4.5v-5l-1-1zm-201 5 1.5.5 1 4-1.5.5-2.5-3.5zm281 2 1.5 1.5v13q-2 1-1 5l-1.5 1.5-2-4-1 2-1.5-2.5q2-1 0-2v-11l-1-2 3.5-.5v1l-1.5.5q-1 4.5 1.5 5.5l1.5.5.5 3.5 1.5-.5v-10zm-277 3 .5 1.5-1.5.5q-1.5-1 1-2Zm11 2 2.5.5-2.5.5zm-2 1 2.5 3.5-2.5.5.5-1.5-1-1zm63 0 1.5.5-.5 1.5-1.5-.5zm-57 1q2 .5 1.5 3.5h-1zm51 1 2 3 2.5.5.5 2.5 2-5 .5 2.5-1.5 3.5-2.5-.5-1.5-2.5-4 1-3.5-1.5 2.5-.5 1.5.5q-.5-3 1.5-3.5Z" opacity=".996"/><path fill="#454448" stroke="#454448" d="m291.5 521 1.5 3.5-2.5 3.5-5.5.5 4.5.5 1.5 1.5-2 1 .5 1.5 1.5.5-2 1 6 1-6.5.5-1-1h-6l-3-1q-1.5 1 1 2h3l3.5 1.5-.5 1.5h-10l-3.5-1.5 2-3-8-2 9.5-.5 2.5-2.5.5-1.5 1.5-.5.5-1.5 1.5-.5.5-1.5 1 2h4l3.5-1.5zm-117 2-.5 1.5 2 2-.5 1.5-3.5-1.5 2-1q-2.2-1.2.5-2.5Z" opacity=".996"/><path fill="#454448" stroke="#454448" d="M169.5 524q2.5 1 1 2l-1.5-.5zm-14 1q2 .5 1.5 3.5h-1l-.5-1.5-2.5-.5zm-81 1 1 2 3-2 .5 1.5-3.5 3.5h-2l1-3-1.5-.5zm21 0 1 2 1.5-.5 1 2-1.5 1.5-2.5-2.5zm55 4 2.5 1.5-1.5 2.5-3 1 1-3-1.5-.5zm-71 1 .5 1.5-1.5.5q-1.5-1 1-2Zm93 0v3l-1.5-.5zm5 0 2.5 1.5-1.5-.5q-2.4-.1-1-1Zm124 1 2.5 1.5-4.5 2.5-.5-1.5 2-1zm53 1 3 2 3.5.5-3 2 2 2-.5.5-1.5.5q-.7 3.3 1 4l-4 1 5.5.5 1-1h9l4-2-.5 1.5-4 6 .5 1.5-6.5.5 2.5 1.5 2-1 1.5 2.5-1.5-.5-2 1-2-1-1 2-4-1-.5.5 2 2-1.5 1.5-3 2-1-2-1.5.5-2.5 4.5-1.5-2.5 2-3-1-3 1-1-.5-1.5 3.5-.5-3-1 2-1-7.5-1.5-1.5-1.5 5-1-2.5-3.5q-3 .5-3.5-1.5l6-4zm-5.5 9q-2 1 1 2h2zm10 10-1 2h4q1 2 2 0l-4-1zm-205.5-18 2.5 1.5-.5 1.5q-1-2-2 0l-2.5-1.5zm115 2 2.5 1.5-1.5-.5q-2.4-.1-1-1Zm-195 1 1.5.5-.5 1.5-2.5-.5zm172 0 1.5.5-2.5 4.5-1.5.5-1 2 1.5.5 1-2 .5 1.5-1 1 1 1-.5 1.5 2-1v2l3-1 .5 1.5q-1.2 2.8-2.5.5l-4-2q-1 2-2 0l-1.5.5 1.5 1.5 6 2h8l-.5-1.5 1-3h-2l2.5-5.5 4-2v1l-1.5.5 1 2-3 7 1 2-3 1 2 1-.5 2.5h-4l-5.5-2.5 4-1-9.5-2.5v2l-4.5-2.5 1-1-.5-1.5q1.3 2.3 2.5-.5l-1-2 4.5-7.5zm45 0 2.5.5-2.5.5z" opacity=".996"/><path fill="#454448" stroke="#454448" d="m253.5 539 2.5.5-2.5.5zm12 0 5.5.5-5.5.5zm-114 1 1 2 2.5 1.5-2.5 1.5-2.5-1.5 2-1-2-1zm27 0q2.3.8 1.5 4.5h-1v-3zm-75 1 2.5.5-.5 1.5-2.5-1.5zm-29 1 2.5.5-.5 1.5q-3.8-.7-2-2Z" opacity=".996"/><path fill="#454448" stroke="#454448" d="M176.5 543q2.5 1 1.5 5.5h-1v-4zm127 0 1 3 4 1q1-2 2 0l2-1v2l2-1q1.5 1-1 2l-13 4v-1l1.5-.5-3-1 2-1 .5-1.5 1.5-.5zm-144 1 .5 4.5h-1zm-82 1 .5 3.5h-1zm4 0 .5 6.5-3 1 1.5 1.5q1.2-2.2 2.5.5l-.5 1.5q-1-2-2 0l-1.5-.5-1-5 1.5.5 1.5-.5zm72 1 .5 1.5-1.5.5q-1.5-1 1-2Zm26 0 .5 2.5h-1zm159 1q3.3 4.3 9 6l1.5-.5-2 4q1 5.5-1 8l4.5 2.5 3-1v2l16.5.5-15 1 2.5 1.5 11.5.5-11.5.5-1-1h-8l-12-7-3.5-3.5 1-1-2-2 .5-.5 1.5.5 1.5 3.5 1.5.5.5 1.5 4 2q2.8-1.2.5-2.5l-.5-1.5-1 1-2.5-2.5-1-10zm-188 2 2.5 1.5-1.5 2.5-1.5-2.5zm5 0-.5 1.5 1 1-.5 3.5-1.5-4.5zm-56 1 1.5.5-.5 1.5-1.5-.5zm4 0 2.5 1.5-3.5 1.5.5-1.5zm2 3 .5 1.5-2 3q2 1 0 2l1 2-3.5.5-1.5-2.5q1-2.5 2-1l-.5 1.5 1.5-.5v-3zm11 1 2.5 1.5-2 1-.5 1.5-1-2-1 2-3.5-1.5 3.5-.5z" opacity=".996"/><path fill="#454448" stroke="#454448" d="m334.5 554 1.5.5-2.5 1.5q-1.5-1 1-2Zm-179 2 .5 2.5h-1zm121 0 3.5.5-3.5.5zm-99 1 1.5.5-2.5 1.5q-1.5-1 1-2Zm81 0 2.5.5-2.5.5zm-85 1 1.5.5-.5 1.5q-2.5-1-1-2Zm-96 1 2.5.5-3.5 2.5q-2.5-1-1-2l1.5.5zm101 0 1.5 2.5q-1 1.5-2-1zm-67 1 5.5.5-5 1q2.3 1.3-.5 2.5-2.7-1.2-.5-2.5zm-31 1 1.5.5q-.5 2-3.5 1.5v-1zm105 0 5.5 1.5-2.5.5-3-1zm-29 1 2 1 1.5-.5-.5 3.5-2.5-.5zm203 0q2.5 1 1 2l-2.5-.5zm-183 2 .5 1.5-2.5 2.5-.5-.5zm214 0 .5.5-4.5 4.5-.5-.5zm-199 1 2.5 1.5-1.5.5q-2.5-1-1-2Zm183 0 5.5.5-4.5 1.5q-1-2-2 0l-1.5-.5z" opacity=".996"/><path fill="#454448" stroke="#454448" d="m185.5 566 3 1q1.3-2.2 2.5.5l-2.5 1.5-1.5-.5-1.5 4.5-1.5-.5 1-3-1-2zm-107 1 1.5.5-2.5 2.5-.5-.5zm77 0 1.5.5-3.5 2.5q-2.5-1-1-2zm219 1 5.5.5-5.5.5zm-284 1 2.5.5-4 2 1 2-1 1 .5 1.5-2.5-1.5q2.5-1.5-1-3l.5-1.5q3.3.8 4-1Zm65 1 2.5.5-1.5 1.5q-2.5-1-1-2Zm216 1 8.5.5-8.5.5zm-205 1 2.5.5-2.5.5zm-9 3 4 2 2-1 3 1 2.5.5-3 2 1 3q-.5 2-3.5 1.5v-1l2.5-.5-1.5-2.5q-1.2 2.3-2.5-.5l2-1q-1.2-2.7-2.5-.5l-2.5-.5-.5-1.5-1 4-1.5-1.5q2-1 0-2zm-3 1 .5 1.5q-1 2.5-2 1z" opacity=".996"/></svg>