<svg xmlns="http://www.w3.org/2000/svg" viewBox="0 0 640 452"><path stroke="#000" d="M441.5 0h2l3.5 3.5 44 67 7 9 4 9 7.5 9.5q4.2.7 6-1l5 7 5 1 17-7h6l9-7 24-23 27-9h3l4-2 8-1 1-1h7q3 .5 2.5 4.5-2.7 6.8-8 11v2l-9 11-4 7-28 39 20 45 1 7 3 9 13 29 2 6v4l-2 1 3 11 3 6v6l-3.5 3.5-19 11-6.5 5.5 4 12v3l2 4v3l1 1v3l1 1v3l1 1v3l1 1v3l1 1v3l3 9 1 12 2 2 3 9v3l5 15v3l4 12 2 11 2 4v3l1 1v3l1 1v3l1 1v3l1 1v3l1 1v3l3 9v5l-9.5 6.5-10 2-3-1-.5 3.5-1.5 1.5-9 3-7 1-1 1h-4l-1 1h-7l-1 1h-14l-1-1h-5l-8-3h-3q-1.5 2.5-3-1l-11-5h-2l-5-3h-2l-23-10-5-1-15-7h-2l-3-2h-2l-3-2h-2l-3-2h-2l-3-2h-2l-3-2h-2l-3-2h-2l-28-12h-2l-15-7-3-1h-7l-8-5h-2l-3-2-18-6h-3l-9-3h-11l-21 10h-2l-5 3-9 3-7 4h-2l-5 3-9 3-7 4h-2l-5 3-9 3-7 4h-2l-5 3-9 3-7 4h-2l-12 6h-2l-7 4h-2l-19 9-5 1-5.5-12.5-6.5-19.5h-3l-1 1h-3l-1 1h-3l-1 1h-3l-1 1h-3l-1 1h-3l-8 3-8 1-1 1-9 1-1 1h-4l-6 2h-5l-1 1h-5l-1 1h-5l-1 1h-6l-1 1h-6l-1 1h-7l-1 1h-8l-1 1h-10l-1 1h-26l-4-2q-1 2-5 1-2.6-3.9-8-5L3 419.5l-3-7v-10l4-10 5-7L35.5 358l15-13 25-19 34-22 13.5-7.5-4-12-4-7v-2l-5-9v-2l-3-6 7.5-4.5h2l24-12h2l7-4h2l7-4h2l34-16h2l7-4 9-3 25-12h2l23-11 9-3 7-4h2l16-8 9-3 7-4h2l6-3 2.5-2.5 15-27v-2l11-22v-2l4-7 3-9 6-10v-2l15-31 3-9 6-12 3.5-4.5 12-8 16-8 7-1zM438 6l-11 4 31 67 24-11-7-14-13-18-15-25-2-3zm-18 6-18 8-7 5-5 5-6 12v2l-17 35v2l-5 9v2l-4 7v2l-19 40-1 4 5 3 4 1 5-12 3-10 2-3 4-13 4-8 1-5 4-8 1-5 4-8 1-5 2-3v-2l2-3v-2l2-3v-2l2-3v-2l9-21 11-9 18-9zm5 3-19 9-7 5-4 5-2 6-4 7-4 12-2 3v2l-2 3v2l-2 3v2l-2 3-1 5-4 8-1 5-2 3-1 5-4 8-7 21-4 8-1 5-2 3 1 1 24-11h2l5-3h2l5-3h2l5-3h2l5-3 7-2 2 4v2l6 11 2 6 9 13 4-1q3-2 2-8l3-4q16-15 35-27l-9-19v-2l-4-7v-2l-4-7v-2l-4-7v-2l-4-7v-2l-4-7v-2l-4-7v-2l-4-7v-2l-4-7v-2l-4-7-1-4zm199 45-1 1-9 1-7 3h-3l-3 2-10 3-3 3-1 5-3 5-74 72-23 23-9 15v3q-2 1 1 2l17-8h2l38-20 2-2v-1l-13 5q-3 1-4-1l2-4 19-21 50-60 3-3h2l10-5h2l10-5q6-5 9-12zm-140 9-24 11v3l3 5 2 7 11 22h3l11-7 15-7q1-5-1-6l-19-27zm99 5-17 15-72 69-14 12-12 15-6 14q-1 3 2 4l5-1 3-2 4-6v-3l2-6 10-12q30-32 63-61l31-31 2-3v-3zm30 5-15 6-11 11-25 30 2 2h14q0-2 4-1l17-23 8-13 7-8 1-3zm-100 23-39 21-30 23-8 9 11 23v2l10 17 3-1 2-3 3-9 3-5q28-29 58-55v-3l-9-16q0-3-4-3Zm22 4-11 6 1 1h3l4-4 6-2zm7 0-1 2q1 1 2-1zm-8 5-2 3h3l1-2zm-7 4-1 2 3 1v-1zm-121 16-14 6h-2l-5 3h-2l-5 3h-2l-5 3h-2l-7 4h-2l-19 9-3 3 5 10v2l16 29 9-3 14-7h2l16-8 9-3 16-8h2l1-1-19-40q0-2-3-2Zm152 0-21 25-9 9 1 1 12-4 25-13 6-7 6-10zm24 4-1 5 1 3 6 13v2l3 5v2l4 7v2l3 5q2 3 3 0l-1-5-9-19v-2zm-5 7-1 4 4 12 7 14 4 4 1 5q1 2 2 1l-1-6-5-10v-2l-9-19zm-5 7-2 2 2 7 8 17q2 3 3 0v-3l-3-6v-2l-7-14zm-6 6-1 4 1 3 8 17q1 1 2-1l-1-7-7-15zm-5 3-1 4 1 3 7 15q1 2 2 1l-1-6zm-225 4-18 8h-2l-5 3-7 2-5 3h-2l-5 3h-2l-25 12 6 14v2l2 3v2l2 3v2l2 3v2l5 10 3 2 7-2 7-4h2l7-4h2l7-4h2l7-4h2l26-12zm98 0-4 3 6 18 21 43v2l29 58 6 6 9-3h3l1-1h3l1-1h3l1-1h3l1-1h3l1-1h3l1-1h3l1-1h3l1-1 8-1 1-1 14-2 1-1h4l1-1h4l1-1h5l1-1h5l1-1h5l1-1 10-1 15-9 3-3v-1l-18 7h-3l-3-2-3-6-4-12-2-3-3 1v2l7 8v1l-3-2-13-14-18 8-11 3-9 4h-3l-17 6-7 1-1 1h-6l-1 1h-4l-1-1-7-1-6-6-6-12-2-7-2-3-1-8-1-1 2-6 13-10 31-17q2-1 1-2h-2l-9 5h-2l-7 4h-2l-15 7-9 3h-4l-12-13-14-29zm122 0-1 3 1 3 12 24q1 2 2 1l-4-12-6-12zm-4 1q-2 5 1 6h1q1-5-2-6Zm-9 6-2 2 3 3q2 0 1-3zm-4 3-1 2q1 2 2 1zm12 1-49 24-2 2-26 14-6 7v6l1 3 12 27 5 1h15l1-1 9-1 4-2h3l15-5 3-2 10-3 5-3h2l5-3h2l7-4h2l9-5h2l21-11 5-8-1-2h-6l-1-1-6 1-21 10h-2l-7-16-2-10-2-4v-3l-4-10zm36 3-11 5-4 4 1 6 2 1 14-1 2-1-1-7zm-59 2v3l2-1v-1zm-98 2-9 4h-2l-10 6 1 2 20-9 1-2zm169 4-1 2 4 9v2l14 29h1l-1-5-8-17v-2zm-167 2-13 6h-2l-5 4v4l3 6v8l-4 4-6 2v2l7 14 3 2 5-1 2 3 6 14 1 1-7 7 1 4q1 2 6 1 2 0 1-3l8-4 2 3 4 7 21-10h2l1-1v-2l-7-13v-2l-27-55zm132 2q-2 5 1 7h1zm31 1-1 6 2 5h1q1-7-1-10zm-13 5-2 3h2l1-2zm-321 1-73 32 20 43 5-1 9-5h2l9-5h2l9-5h2l9-5h2l11-6h2l11-5v-2l-6-11v-2l-13-27zm142 0-3 1-4 4v4l5 3 5-1 2-2 1-3-1-2q-2-3-5-4Zm172 0q-3 1-2 4h4v-2zm17 1-1 3 3 4h1l-1-4zm-23 1-1 2q1 2 2 1zm-194 2q-3 1-1 2l2-1zm13 0-14 6h-2l-10 5h-2l-5 3h-2l-7 4-9 3-5 3h-2l-21 10h-2l-7 4-9 3-7 4h-2l-2 2 3 9 2 3v2l2 3v2l6 12v2l8 16v2l7 13 1 4 4 4 2-1q-2-1-1-4l5-4h2l12-6 2-2v-1l-8 2-6 3-2-1v-2l-6-12 10-6 1-2-5-1-3-3 1-4 4-3 5 2v-1l-8-5-3-3-3-9v-3l-1-1v-6l2-4v-2l-7 2-7 4h-2l-11 5h-2l12-7h2l9-5h2l7-4h2l7-4h2l7-4h2l18-9h2l22-11h2l11-6zm194 0-2 2 3 1 3 6h1v-3l-2-4q-1-2-3-2Zm6 1-1 2 3 1v-1zm-11 1-5 4 4 6h1zm3 3-1 2 3 1v-2zm-191 1-11 5h-2l-5 3h-2l-5 3h-2l-5 3h-2l-8 5 4 12-13 6q-3-7-7-11l-5 1-3 3 2 1 5 1 4 5 3 6v6l-11 10 2 4 6-3 5-5 1-5 2 5-1 3q2 3 7 3l1 1-6-11-3-10 2-1 8 17 7-4-2-8-3-7h-2l-3 2h-4q3-5 11-6l5 13 1 6q2 1-1 3l1 3-1 5-4 3q-1 4 2 5h3l9-5 6 12v2q-3 3-7 5h-6l-4-3-2 2v3l-2 3-2 1-4 4h1l15-5 5-3h2l27-12q-1-8-7-11l-7-14-1-4 6-3-1-3-3-4h-5l-12-22 5-3 10-3 3 4v-4q1-3 7-2l3 6q1 3 6 2v-2l-1-1-3-2-3-7q-1-4-6-3Zm22 1-5 3q-6-1-7 2l6 4 5-1 2-3q1-4-1-5Zm160 1-1 5h2q2-1 1-3zm-180 8-1 3 1 3 10 21q1 2 2 1l-3-10zm215 0-2 2 2 7 4 5h2l-1-6-3-6zm-227 3-3 1-3 3 1 4 6 9 2-1-1-5 4-3-1-4q-2-3-5-4Zm221 3-1 5 2 4q3 5 5 0l-2-6q0-3-4-3Zm-198 2-1 5 1 3 7 12h2l-1-7-6-12zm193 0-2 2q1 6 5 9h1v-5l-2-4zm-6 3-2 3 1 4 3 2h2l-1-5-2-3zm-402 1-73 33 4 12 2 3v2l5 9v2l8 16 3 2h1l-1-2 3-3 12-6h2l7-4h2l7-4h2l7-4h2l26-12zm155 1-5 4q-1 4 2 5h3l5-3-1-4q-1-3-4-2Zm46 1-4 3 3 9 6 9h2l3-2v-4l-5-12q-1-4-5-3Zm197 1-2 2 2 4h1q1-5-1-6Zm31 0-17 6h-3l-4 2-6 1-2 2 10 21h2l10-5h2l17-7-1-5-4-7-2-6zm-37 2-2 2 1 3q3 1 3-1l-1-3zm-7 3-1 2 3 1v-1zm-190 2q-3 2 0 3l1-2zm-60 1-7 5-2 3v6l1 3 5 4q3-1 4 1 4 1 6-1l1-2-5-4q-1-5 3-6l2 1 3 6 2-4-2-7-3-3-3 4v2h-2q-4-1-3-5 2-2 0-3Zm94 2q-7 3-5 15l-4 2-2-1-4-5h-2l-5 3-4-2-2 1v4l2 3v2l5 6 7-5h2l13-7h2l7-4-5-10q-1-3-5-2Zm-138 2-1 2q1 1 2-1zm126 4-1 2 4 5h1l-1-5q0-3-3-2Zm-129 2-13 7 5 10v2l4 5 6-2 7-4-2-7-5-10zm-20 9-3 2-10 3-4 3 9 18 18-8-8-17zm163 5-11 5h-2l-7 5 2 2 10-3 6-3 3-3zm-98 2q-2 1 1 2h2q0-2-3-2Zm116 0-3 3q-1 3 2 4t4-1l-1-4zm35 0-73 32v2l4 8 13 19h3l6-2 5-3 7-2 7-4h2l7-4h2l7-4 9-3 17-8-4-9-2-2zm-117 1-1 2 3 1v-1zm-121 2-23 10 9 18 6-2 7-4h2l7-4zm106 0v1l6 2 3 7v7l-1 3h3q-1 3-6 4-1 4 3 5l4-1 3-4v-4l-1-1-1-6-5-10q-2-4-8-3Zm-54 3-16 7h-2l-5 3h-2l-14 7h-2l-34 16-9 3-14 7h-2l-7 4h-2l-12 6h-2l-14 6-1-1 18-9-7-18-10 3-8 4h-2l-2 2 14 29 10-3 10-5v-3l-6 1-14 6-1-1 35-17h2l7-4h2l7-4h2l14-7h2l14-7h2l27-13h2l11-6 6-2 4-3zm143 1-1 3 3 2zm-87 1-1 2 3 1v-2zm83 0v3l2-1zm-94 1-2 2v8l2 4 5 4-1 5 6 3h2l-3-5v-4l-3-3q-4-3-6-7zm-9 1-2 3q1 2 4 1l1-2q0-2-3-2Zm13 0-2 3 3 1 1-2zm-48 1-9 4-3 3 2 1 6-1 6-3q2 0 1-3zm79 1-2 2 1 2h-2q-2-2-3 1l5 8 7-3v-4l-2-3q0-4-4-3Zm50 1-14 6h-2l-5 3h-2l-5 3h-2l-5 3h-2l-5 3h-2l-5 3h-2l-22 11h-2l-8 5 1 1 21-9h2l23-11h2l24-12h2l9-5zm170 0-1 1h-9l-1 1h-7l-1 1h-7q-2 2-6 1l-2 2 4 9v2l3 5v2l3 5v2l3 5v2l16 34v2l4 7v2l5 9v2l5 9v2l5 9v2l15 30v2l3 6 5 5h4l9-5v-4l-2-4-3-15-1-1v-3l-1-1v-3l-1-1v-3l-1-1v-3l-1-1v-3l-1-1v-3l-2-4-3-15-2-4v-3l-3-8v-3l-1-1-1-8-29 12-1-1 28-14-2-6v-3l-3-7-1-7-1-1-2-14-1-1v-3l-1-1v-3l-1-1v-3l-2-6-1-2zm-388 1q-3 1-1 2h1zm10 0-19 10 5 10v2l4 5 18-8-1-5-4-7-2-6zm133 1-1 4h3q2 0 1-3zm-50 2-19 9h-2l-7 4-9 3-7 4-9 3-7 4-9 3-7 4h-2l-5 3h-2l-14 7h-2l-5 3h-2l-14 7h-2l-5 3h-2l-8 4v2l2 3 5 15 3 5v2l12 22 11-7h2l10-5h2l5-3h2l3-2q1-4-1-4-1-5 1-6l3-1q1-2 2 0l4-1 3-3 22-11h2l18-9 9-3 16-8h2l7-4h2l9-5-1-5-3-5v-2l-4-7v-2l-7-15zm254 0-5 2h-4l-9 3-8 1-8 3h-3l-16 6 3 6 1 5-5 3h-2l-7 4h-2l-7 4h-2l-7 4h-2l-7 4h-2l-7 4h-2l-7 4h-2l-7 4h-2l-5 3h-2l-7 4h-2l-7 4-6 2-1 2 6 3h2l11 5 1 3 20 10v1l-42-21h-4l-7 4h-2l-7 4h-2l-12 6 4 1h4l4 2h3l3 2 8 2 13 6h2l9 5h3l12 4 3 2h2l3 2 5 1 10 5 12 4 3 2h2l3 2h2l3 2h2l3 2h2l3 2h2l3 2h2l5 3h2l28 12h2l3 2h2l3 2h2l3 2h2l3 2h2q4 4 11 5l2 2 3-1h3l4 2h17l1-1 12-1 5-2h3l6-3v-2h-9l-6 2h-6l-1 1h-14l-1-1 7-1 1-1h9q1-2 6-1l1-1h3l1-1h3l7-2-16-34v-2l-5-9v-2l-4-7v-2l-5-9v-2l-4-7v-2l-5-9v-2l-5-9v-2l-5-9v-2l-5-9v-2l-8-15v-2l-6-12zm-278 3-8 4h-2l-5 4 1 2 5-1 12-6v-2zm58 3-6 2-2 2 6 11 11-5-4-8q-1-3-5-2Zm-143 3-16 7h-2l-2 2 9 18h2l18-9v-2l-7-15zm63 4-6 2-7 4h-2l-6 4 1 2h3l8-4h2l6-3 2-2zm150 4-5 3-9 3-7 4h-2l-7 4h-2l-7 4h-2l-7 4h-2l-7 4h-2l-10 5 1 5 3 5 2 7 3 5v2l3 6 3 2 40-19h2l7-4h2l9-5h2l8-4 2-2-16-27zm92 2-14 6h-2l-5 3h-2l-5 3h-2l-5 3h-2l-5 3h-2l-5 3h-2l-5 3h-2l-5 3h-2l-6 4 3 5 7-2 34-16h2l9-5h2l19-10-3-3zm-362 2-18 10-23 15-31 23-7 7-1 3q-1 3 1 4v6l1 1 1 7 4 9v2l6 12 12 18 1 4-2 1h-8l-1 1h-9l-1 1H38q-1 2-4 1-2 1 1 2l28-1 1-1h8l1-1h7l1-1h7q1-2 6-1l1-1 11-1 6-2 10-1 5-2h4l5-2h4l1-1 15-3 1-1h3l4-2h3l5-2v-2l-8 1-1 1h-5l-1 1h-10l-4-8-6 2-8 1-1 1h-3l-1 1h-3l-1 1-8 1-1 1h-4l-5 2-14 2-1 1h-5l-1 1h-5l-1 1h-7l2-2 11-2 1-1h4l5-2h4l5-2h4l5-2h4l5-2h4l5-2h4l1-1 10-2 7 8h8q1-2 6-1l6-2v-7l-3-9-2-3v-2l-2-3v-2l-9-19v-2l-5-9v-2l-7-13v-2l-12-22q-2-3-5-4Zm212 3-16 7-4 4 2 1 4-1 2-2 16-8zm-120 1-13 6-3 3 2 1q11-2 18-9zm-24 11-6 3h-2l-10 6 1 1 7-1 11-5 2-3zm121 5-12 4-3 2h-2l-3 2h-2l-3 2h-2l-12 6h-2l-7 4h-2l-25 12h-2l-14 8 1 2 8-2 23-11h2l57-27zm6 9-22 10h-2l-7 4h-2l-5 3h-2l-5 3h-2l-5 3h-2l-5 3h-2l-5 3h-2l-2 2v3l5 11 6 19 5-1 34-16h2l7-4h2l7-4h2l7-4h2l7-4-14-30zm91 1-34 16h-2l-7 4h-2l-7 4h-2l-7 4h-2l-6 4 1 4 2 1 9-3 7-4h2l7-4h2l7-4h2l7-4h2l26-12-2-4q0-2-3-2ZM38 363l-3 2-20 21 4 10v-8l2-3 9-7 3 6v1l-2-2q-1-3-2-1-1 5 2 7v7l3 1v4l-4 2-4-1-1 1 3 2 10-1-3-8 1-2 5 12-3 1h-4l-5 2h-3l-2-2h-1v2l6 10h7l1-1h14v2h7q0-2 4-1l1-1-4-1-1-1 2-1v-2l-4-5-5-10v-2l-7-15-4-16zm181 0v3l2-1zm25 0-7 4h-2l-7 4h-2l-7 4h-2l-7 4h-2l-7 4h-2l-25 12 10 35 7-4h2l34-16h2l7-4h2l7-4h2l7-4h2l1-1-11-33zm92 3-14 6h-2l-25 12h-2l-30 15 2 4 6-1 17-8h2l49-23q2-1 1-4zM11 391l-7 13v7l3 7 6 5 11 6h3l-6-10-2-6-4-7-3-9v-3zm9 5-1 3h1zm1 3-1 3 2 4h1v-2zm238 0-7 4h-2l-34 16h-2l-7 4h-2l-7 4h-2l-10 6 2 5h3l33-16h2l9-5h2l9-5h2l9-5h2l3-2-2-5zM67 417l-2 2 1 2h1zm-28 4v3l3-2z" opacity=".914"/><path stroke="#000" d="m594.5 212 3.5.5q.8 3.8-1.5 4.5-1.8 1.7-6 1l-5 3-2.5-3.5 4.5-3.5q5.8 1.3 7-2Zm-18 7q3.8-.7 4.5 1.5.5 4-2.5 4.5-4.5 1-5.5-1.5l1.5-3.5zm-261 28q3.8-.7 4.5 1.5l1 3-1.5 2.5q-3.7.8-4.5-1.5l-1-4zm-19 10 2.5 1.5 12 27-1.5 1.5-6 2-4.5-7.5v-2l-9-19zm-.5 3-2 2 1 6 6 13 3 2 1-1v-5l-3-7-4-4v-4zm-170.5 66 2.5.5 4 9v4l-7.5 2.5-4.5-7.5v-5zm.5 4-5 3 4 6 3-1q2-1 1-5zm-35.5-2 4.5.5q-.6 3.9-3.5 5.5l-1.5.5-1 5-3 5v9q-2 5.5-6.5 8.5l-3.5 2.5-.5 1.5q-3 .5-3.5-1.5v-5l3-9 2-3v-2l5-9 6.5-7.5zM85 338l-1 2q-2 1 1 2v-1q2-2 0-3Zm-4 9-3 4v2l-4 9h2q6-4 7-14zm51.5-4q3-.5 3.5 1.5l3 9-2.5 2.5-6 1-4.5-10.5zm.5 4-4 2v3l3 3 4-2v-4q0-2-3-2Zm-46.5 21 5 1 5.5 5.5 2.5 4.5 7 3h13l1.5 1.5 3 7-6.5 2.5h-7q-2-.5-1.5-3.5l1.5-.5 1 1h6l2.5-1.5-1.5-3.5q-6-1-8 2l-1.5-.5q-1.7 1.8-1 6l-1.5 1.5-7-1-5.5-3.5 1-5q-1-1.5-2 1l-1.5 2.5q-8.8-5.7-15.5-13.5l.5-3.5h3zm-.5 4q-1 2-4 1l-2 3 8 6 4 1 3-4v-3l-2-3zm15 11q-3 2-4 6l2 1h6l1-4q-1-4-5-3Zm337.5-9 10 5h2l67 34h2l51.5 26.5-.5 1.5h-3l-7-5q-5.6-.9-9-4h-2l-2-2-16-8h-2l-32-17h-2l-37-19h-2l-10-5-8.5-5.5zm-400 6q2 .5 1.5 3.5l-1.5.5-1.5-2.5zm1 6 2.5.5 1 4-2.5.5q-2.7-1.2-1-5Zm3 7 3.5 2.5q.5 3-1.5 3.5-3.8-1.3-2-6Z" opacity=".914"/><path stroke="#000" d="M.5 0 441 .5 424.5 6l-7 1-16 8-13.5 9.5-8 15v2l-18 38v2l-6 10v2l-14 29v2l-4 7v2l-3 4-10 20-4.5 5.5-22 10h-2l-7 4h-2l-7 4h-2l-7 4-9 3-7 4h-2l-7 4-9 3-25 12-9 3-7 4h-2l-7 4h-2l-34 16h-2l-7 4h-2l-24 12h-2l-7.5 4.5 3 6v2l5 9v2l4 7 4 12L90.5 316l-30 21Q35.3 356.3 14 379.5l-10 13L.5 402zm444 0L640 .5l-.5 426.5-1.5-7.5-1-1v-3l-1-1v-3l-1-1v-3l-1-1v-3l-1-1v-3l-1-1v-3l-4-12v-3l-2-4-2-11-2-4-1-7-2-4v-3l-3-9-2-2-1-12-1-1v-3l-1-1v-3l-1-1v-3l-1-1v-3l-1-1-3-15-2-4v-3l-4-12 3.5-3.5 16-9 9.5-7.5v-6l-3-6-3-11 2-1v-4l-2-6-13-29-3-9-1-7-20-45 28-39 4-7 9-11v-2l6-7 2-6-2.5-2.5h-7l-1 1h-4l-8 3h-3l-27 9-24 23-9 7h-6l-14 6-6 1-2.5-1.5-4.5-6.5q-1.8 1.7-6 1l-7.5-9.5-4-9-11-15-35-54-8-10z" opacity=".004"/><path stroke="#000" d="M437.5 6h7l2.5 2.5 15 25 13 18 7 14L457.5 77 427 9.5zm-18 6 2.5.5-18.5 9.5-10.5 8.5-9 21v2l-2 3v2l-2 3v2l-2 3v2l-2 3-1 5-4 8-1 5-4 8-1 5-4 8-4 13-2 3-3 10-5.5 12.5-4-1-4.5-3.5 1-4 19-40v-2l4-7v-2l5-9v-2l17-35v-2l6-12 4.5-4.5 7-5z" opacity=".004"/><path stroke="#000" d="m424.5 15 2.5.5 1 4 4 7v2l4 7v2l4 7v2l4 7v2l4 7v2l4 7v2l4 7v2l4 7v2l4 7v2l9 19q-18.6 12.4-35 27l-3 4q1 6.5-2.5 8.5l-4 1-8.5-13.5-2-6-6-11v-2l-2.5-3.5-7 2-5 3h-2l-5 3h-2l-5 3h-2l-5 3h-2l-24 11-.5-1.5 2-3 1-5 4-8 7-21 4-8 1-5 2-3 1-5 4-8 1-5 2-3v-2l2-3v-2l2-3v-2l2-3 4-12 4-7 2-6 3.5-4.5 7-5zm199 45 4.5.5q-3.2 7.8-9.5 12.5l-10 5h-2l-10 5h-2l-2.5 2.5-50 60-19 21-2 4q.5 2 3.5 1.5l13-5 .5.5-2.5 2.5-38 20h-2l-17 8q-2.7-1.2-.5-2.5v-3l9-15 22.5-22.5L584 82.5l3-5 1-5 2.5-2.5 10-3 3-2h3l7-3 9-1zm-140 9 1.5.5 19 27q1.7 1.8 1 6l-15.5 7.5-11 7h-3L465 94.5l-2-7-3-5v-3z" opacity=".004"/><path stroke="#000" d="m582.5 74 1.5.5v3l-2 3-31.5 31.5q-32.3 29.2-62.5 60.5l-10 12-2 6v3l-4.5 6.5-3 2-5 1q-2.2-.7-1.5-4.5l6-14 11.5-14.5 14-12 72-69zm30 5 2.5.5-1 3-7 8-8 13-17.5 23.5q-3.3-.8-4 1h-14l-1.5-2.5 25-30L597.5 85z" opacity=".004"/><path stroke="#000" d="M512.5 102q4-.5 4.5 2.5l9 16v3q-30.4 26.1-58 55l-3 5-3 9-2.5 3.5-3 1-9.5-17.5v-2l-11-23 7.5-8.5 30-23zm22 4 3.5.5-6.5 2.5-4 4h-3l-.5-1.5zm7 0 1.5.5q-1 2.5-2 1zm-8 5 2.5.5-1.5 2.5-2.5-.5zm-7 4 2.5 1.5-.5 1.5-2.5-1.5zm-121 16q3-.5 3.5 1.5l19 40-1.5 1.5h-2l-16 8-9 3-16 8h-2l-14 7-9 3-15.5-29.5v-2l-5-10 2.5-2.5 19-9h2l7-4h2l5-3h2l5-3h2l5-3h2zm152 0 20.5.5-6 10-6.5 7.5-25 13-12 4-.5-1.5 9-9zm24 4 9.5 17.5v2l9 19 1 5q-1.5 3-3 0l-3-5v-2l-4-7v-2l-3-5v-2l-6-13-1-3zm-5 7 2.5 2.5 9 19v2l5 10 1 6q-1 1.5-2-1l-1-5-4-4-7-14-4-12zm-5 7 1.5.5 7 14v2l3 6v3q-1.5 3-3 0l-8-17-2-7zm-6 6 2.5.5 7 15 1 7q-1 2.5-2 1l-8-17-1-3zm-5 3 8.5 16.5 1 6q-1 1.5-2-1l-7-15-1-3zm-6 3 5.5 7.5 6 12 4 12q-1 1.5-2-1l-9-17v-2l-5-11zm-219 1 18.5 43.5-26.5 12.5h-2l-7 4h-2l-7 4h-2l-7 4h-2l-7 4-7 2-2.5-2.5-5-10v-2l-2-3v-2l-2-3v-2l-2-3v-2l-6-14 24.5-11.5h2l5-3h2l5-3 7-2 5-3h2z" opacity=".004"/><path stroke="#000" d="m433.5 162 2.5 1.5 14 29 11.5 13.5h4l9-3 15-7h2l7-4h2l16-8q1.5 1-1 2l-36 20-12.5 9.5-2 6 1 1 1 8 2 3 2 7 6 12 5.5 6.5 7 1 1 1h4l1-1h6l1-1 7-1 17-6h3l9-4 11-3 18-8 13 14 3 2 .5-1.5-7-8v-2l2.5-.5 2.5 2.5 4 12 3 6 2.5 2.5h3l18-7 .5.5-3.5 3.5-15 9-10 1-1 1h-5l-1 1h-5l-1 1h-5l-1 1h-4l-1 1h-4l-1 1-14 2-1 1-8 1-1 1h-3l-1 1h-3l-1 1h-3l-1 1h-3l-1 1h-3l-1 1h-3l-1 1h-3l-1 1h-3l-9 3-5.5-6.5-29-58v-2l-21-43-6-18zm118 1q3.3.8 2.5 5.5l-1.5.5q-2.9-1.4-1-6Zm-4 4 1.5 2.5q-1 1.5-2-1zm-5 2 2.5 1.5q.5 3-1.5 3.5l-2.5-3.5zm-4 3 1.5 2.5q-1 1.5-2-1z" opacity=".004"/><path stroke="#000" d="m550.5 173 3.5.5 4 10v3l2 4 2 10 6.5 16.5h2l21-10 6-1 1 1h6l1.5 1.5-5.5 8.5-21 11h-2l-9 5h-2l-7 4h-2l-5 3h-2l-5 3-10 3-3 2-15 5h-3l-4 2-9 1-1 1h-15l-4.5-1.5-12-27-1-3v-6l5.5-6.5 26-14 2-2zm44.5 39q-2 3-7 2l-5 4 3 3 5-3q4 1 6-1 2-1 1-4zm-18 7-2 1-2 4q1 2 6 1 2 0 2-4-1-3-4-2Z" opacity=".004"/><path stroke="#000" d="m586.5 176 3.5 6.5 1 7-2.5 1.5-14 1-1.5-1.5-1-6 3.5-3.5zm-59 2 2.5.5-.5 1.5-2 1zm-98 2 1.5.5-1.5 2.5-20 9-.5-2.5 9.5-5.5h2zm169 4 9.5 17.5v2l8 17 1 5h-1l-14-29v-2l-4-9zm-167 2 2.5.5 27 55v2l7 13v2l-1.5 1.5h-2l-21 10-3.5-7.5-2.5-2.5-7.5 3.5q.5 3-1.5 3.5-4.5 1-5.5-1.5l-1-4 7-7-1-1-6-14-2.5-2.5-5 1-2.5-2.5-7-14v-2l5.5-1.5 4.5-4.5v-8l-3-6v-4l4.5-3.5h2zm132 2 2.5 6.5-1.5.5q-2.6-2.3-1-7Zm31 1 1.5.5q2.3 3.2 1 10h-1l-2-5zm-13 5 1.5.5-1.5 2.5-1.5-.5zm-321 1 1.5.5 13 27v2l6 11v2l-11.5 5.5h-2l-11 6h-2l-9 5h-2l-9 5h-2l-9 5h-2l-9 5-5 1-19.5-43.5zm142 0q3.9.6 5.5 3.5l1 2-1 3-2.5 2.5-5 1-4.5-3.5v-4l3.5-3.5zm172 0 2.5 1.5-.5 2.5-3.5-.5q-.5-3 1.5-3.5Zm17 1 2.5 2.5 1 4-1.5.5-2.5-4.5zm-23 1 1.5 2.5q-1 1.5-2-1zm32 1 2.5 3.5q-1 1.5-2-1zm-226 1 1.5.5-2.5 1.5q-1.5-1 1-2Zm13 0 3.5.5-11.5 6.5h-2l-22 11h-2l-18 9h-2l-7 4h-2l-7 4h-2l-7 4h-2l-9 5h-2l-11.5 6.5 1.5.5 11-5h2l7-4 7-2 .5 1.5-2 4v6l1 1v3l3 9 2.5 3.5 8.5 4.5-.5 1.5-5-2-3.5 2.5-1 4 2.5 3.5 5.5.5-1.5 2.5-9.5 5.5 6 12v2l1.5 1.5 6-3 8-2 .5.5-2.5 2.5-12 6h-2l-4.5 3.5q-.7 3.3 1 4l-2.5 1.5-3.5-4.5-1-4-7-13v-2l-8-16v-2l-6-12v-2l-2-3v-2l-2-3-3-9 1.5-1.5h2l7-4 9-3 7-4h2l21-10h2l5-3 9-3 7-4h2l5-3h2l10-5h2zM297 257l-7 4 9 19v2l5 7 6-2 1-1-12-27zm284.5-58q3-.5 3.5 1.5l2 4v3l-1.5.5-3-6-2.5-1.5zm6 1 2.5 1.5-.5 1.5-2.5-1.5zm-11 1 .5 9.5-1.5.5-2-3-2 4-1.5-.5.5-4.5 2 1 .5-1.5-1-2zm3 3 2.5.5-.5 2.5-2.5-1.5z" opacity=".004"/><path stroke="#000" d="M388.5 205q5.5-1 6.5 2.5l3 7 2.5 2.5 1.5.5-.5 2.5q-4.7.8-5.5-2.5l-3.5-5.5q-5.2-1.2-6.5 1.5v4l2 4h-1l-4.5-7.5-10 3-4.5 2.5 11.5 22.5h5l3.5 3.5 1 3-6 3 1 4 7 14q5.8 3.3 7 11L370.5 293h-2l-5 3-15 5-.5-.5 3.5-3.5 2.5-1.5 2-3v-3l1.5-1.5 4 3h6q4.8-1.7 7.5-5.5v-2l-6.5-11.5-9 5h-3q-2.5-1-1.5-5.5l4-3 1-5-1-3q3.5-1.5 1-3l-1-6-5.5-12.5q-7.1.9-10.5 5.5l3.5.5 3-2h2l3.5 6.5 2 8-7.5 4.5-8-17-1.5.5 3 10 6 11-1.5-.5q-4.7-.2-6.5-3.5l1-3-2.5-4.5-.5 4.5-5.5 5.5-6 3-1.5-4.5 11-10v-6l-3-6-4.5-4.5-5-1-1.5-1.5 2.5-2.5 5-1q4.7 4.3 7 11l13.5-6.5-4-12 7.5-4.5h2l5-3h2l5-3h2l5-3h2zm22 1q2.3.8 1.5 4.5l-2.5 3.5-5 1-5.5-4.5q1.3-2.7 6.5-1.5z" opacity=".004"/><path stroke="#000" d="m390.5 215 9.5 17.5 3 10q-1 1.5-2-1l-10-21-1-3zm215 0 2.5 1.5 3 6 1 6-2.5.5-3.5-5.5-2-7zm-227 3q3.9.6 5.5 3.5l1 4-4 3 1 5-2.5 1.5-5.5-9.5-1-4 2.5-2.5zm221 3q4-.5 4.5 2.5l2 6q-2.5 5-5 0l-2-4zm-198 2 2.5.5 6 12 1 7-2.5.5-6.5-12.5-1-3zm193 0 2.5 1.5 2 4v5l-1.5.5q-3.6-3.4-4.5-9.5zm-6 3 1.5.5 2 3 1 5-2.5.5-2.5-2.5-1-4zm-402 1 19.5 43.5-26.5 12.5h-2l-7 4h-2l-7 4h-2l-7 4h-2l-12 6-2.5 2.5 1 2-1.5.5-2.5-2.5-8-16v-2l-5-9v-2l-2-3-4-12zm155 1q3.8-.7 4.5 1.5l1 4-5.5 3.5h-3q-2.1-1.4-1.5-5.5zm46 1q4.8-.7 5.5 2.5l5 12v4l-3.5 2.5h-2l-5.5-9.5-3-9zm197 1q2.1 1.4 1.5 5.5l-1.5.5-1.5-4.5z" opacity=".004"/><path stroke="#000" d="m615.5 230 2.5 1.5 2 6 4 7 1 5-17.5 7.5h-2l-10 5h-2l-9.5-21.5 1.5-1.5 6-1 4-2h3zm-37 2 1.5.5 1 3q-.5 2-3.5 1.5l-.5-3.5zm-7 3 2.5 1.5-.5 1.5-2.5-1.5zm-190 2 1.5.5-1.5 2.5q-3-1.5 0-3Zm-60 1q2.8 1.3.5 2.5-.7 4.8 2.5 5.5l2.5-.5v-2l2.5-3.5 3.5 2.5 2 7-2.5 4.5-3-6-2-1q-3.2.8-2.5 5.5l5 4-1.5 2.5q-1.8 1.7-6 1-.7-1.7-4-1l-4.5-4.5-1-3v-6l1.5-2.5zm-5.5 9-2 2 1 4q1 2 5 1l1-2-1-3q-1-3-4-2Zm99.5-7q4.5-1 5.5 1.5l5 10-7.5 4.5h-2l-13 7h-2l-7 5-4.5-6.5v-2l-2-3v-4l1.5-.5 4 2 5-3h2l4 5 2 1 4.5-2.5q-2-11.5 4.5-14.5Zm-138 2 1.5.5q-1 2.5-2 1z" opacity=".004"/><path stroke="#000" d="M403.5 246q3-.5 3.5 1.5l1 5-1.5.5-3.5-5.5zm-129 2 2.5.5 5 10 2 7-7.5 4.5-6 2-3.5-5.5v-2l-5-10zm-20 9 2.5.5 8 17-18.5 8.5-8.5-18.5 3.5-2.5 10-3zm41 3 2.5 1.5v4l4 4 3 7v5l-1.5 1.5-2.5-2.5-6-13-1-6zm122 2 1.5 2.5-3.5 3.5-6 3-10 3-1.5-2.5 6.5-4.5h2zm-98 2q3-.5 3.5 1.5l-2.5.5q-2.5-1-1-2Zm116 0 2.5 1.5 1 4q-.7 2.3-4.5 1.5-2.2-.7-1.5-4.5zm35 0 10.5 19.5 2 2 4 9-17.5 8.5-9 3-7 4h-2l-7 4h-2l-7 4-7 2-5 3-6 2h-3L402 305.5l-4-8v-2zm-117 1 2.5 1.5-.5 1.5-2.5-1.5zm-121 2 8.5 17.5-7.5 4.5h-2l-7 4-6 2-8.5-18.5zm106 0q6.5-1 8.5 2.5l5 10 1 6 1 1v4l-3.5 4.5-4 1q-3.2-.7-2.5-5.5 3.8-.2 5-3l-2-1 1-3v-7l-3.5-6.5-6-2z" opacity=".004"/><path stroke="#000" d="m284.5 270 1.5.5-4.5 3.5-6 2-11 6h-2l-27 13h-2l-14 7h-2l-14 7h-2l-7 4h-2l-7 4h-2L149 333.5l.5 1.5 14-6 6-1 .5 2.5-10.5 5.5-10 3-13.5-29.5 1.5-1.5h2l8-4 10-3 7.5 17.5-18 9 .5 1.5 14-6h2l12-6h2l7-4h2l14-7 9-3 34-16h2l14-7h2l5-3h2zm131 1 1.5.5-3.5 1.5v-1zm12 0 2.5 4.5-.5.5-2.5-2.5zm-87 1 2.5.5-.5 2.5-2.5-1.5zm83 0 2.5 1.5-2.5 1.5zm-94 1 .5 6.5q1.7 4.8 5.5 7.5l3.5 2.5v4l3 5-2.5.5-5.5-3.5 1-5-5-4-2-4v-8zm-9 1q3-.5 3.5 1.5l-1.5 2.5q-3 .5-3.5-1.5zm13 0 2.5 1.5-1.5 2.5-2.5-1.5zm-48 1 3.5.5q.5 3-1.5 3.5l-6 3-6 1-1.5-1.5 2.5-2.5zm79 1q4-.5 4.5 2.5l2 3v4l-7.5 3.5-4.5-8.5q1.3-2.7 2.5-.5l2.5-.5-1-2zm50 1 1.5.5-9.5 5.5h-2l-24 12h-2l-23 11h-2l-21 9-.5-1.5 7.5-4.5h2l22-11h2l5-3h2l5-3h2l5-3h2l5-3h2l5-3h2zm170 0h10l1.5 1.5 2 6v3l1 1v3l1 1v3l1 1 2 14 1 1 1 7 3 7v3l2 6-28 14 .5 1.5 29-12 1.5 7.5 1 1v3l3 8v3l2 4 3 15 2 4v3l1 1v3l1 1v3l1 1v3l1 1v3l1 1v3l1 1 3 15 2 4v4l-9.5 5.5h-4l-4.5-5.5-3-6v-2l-15-30v-2l-5-9v-2l-5-9v-2l-5-9v-2l-4-7v-2l-16-34v-2l-3-5v-2l-3-5v-2l-3-5v-2l-4-9 1.5-1.5q4.8 1.3 6-1h7l1-1h7l1-1h9zm-388 1 .5 1.5-1.5.5q-1.5-1 1-2Z" opacity=".004"/><path stroke="#000" d="m206.5 278 1.5.5 2 6 4 7 1 5-18.5 8.5-3.5-5.5v-2l-5-10zm133 1 3.5.5q.5 3-1.5 3.5l-2.5-.5zm-50 2 2.5 1.5 7 15v2l4 7v2l3 5 1 5-9.5 5.5h-2l-7 4h-2l-16 8-9 3-18 9h-2l-22 11-3 3-4 1q-1-2-2 0l-2.5.5q-1.7 1.8-1 6 1.7.8 1 4l-3.5 2.5h-2l-5 3h-2l-10 5h-2l-11 7-11.5-22.5v-2l-3-5-5-15-2-3v-2l7.5-3.5h2l5-3h2l14-7h2l5-3h2l14-7h2l5-3h2l7-4 9-3 7-4 9-3 7-4 9-3 7-4h2zm254 0 2.5 2.5 6 12v2l8 15v2l5 9v2l5 9v2l5 9v2l5 9v2l4 7v2l5 9v2l4 7v2l5 9v2l16 34-7.5 2.5h-3l-1 1h-3l-1 1q-4.7-1.3-6 1h-9l-1 1-6.5.5.5 1.5h14l1-1h6l6-2h9l.5 1.5-6.5 3.5h-3l-5 2-12 1-1 1h-17l-4-2h-3l-3 1-2-2q-6.8-1.2-11-5h-2l-3-2h-2l-3-2h-2l-3-2h-2l-3-2h-2l-28-12h-2l-5-3h-2l-3-2h-2l-3-2h-2l-3-2h-2l-3-2h-2l-3-2h-2l-3-2-12-4-10-5-5-1-3-2h-2l-3-2-12-4h-3l-9-5h-2l-13-6-8-2-3-2h-3l-4-2h-4l-3.5-1.5 11.5-5.5h2l7-4h2l7-4h4l42 21 .5-1.5-20-10-1.5-2.5-11-5h-2l-5.5-3.5.5-1.5 6-2 7-4h2l7-4h2l5-3h2l7-4h2l7-4h2l7-4h2l7-4h2l7-4h2l7-4h2l7-4h2l5.5-3.5-1-5-3-6 15.5-5.5h3l8-3 8-1 9-3h4zM439 374l-1 2 9 5 10 5h2l37 19h2l32 17h2l16 8 2 2h2q3 3 9 4l7 5h3v-1l-51-27h-2l-67-34h-2zm-173.5-90 3.5.5-.5 2.5-12 6-5 1-.5-2.5 4.5-3.5h2zm58 3q4.5-1 5.5 1.5l4 8-11.5 5.5-5.5-11.5 1.5-1.5zm-151 2 1.5.5-2.5 1.5q-1.5-1 1-2Zm8 1 2.5.5 7 15v2l-18.5 9.5h-2l-8.5-18.5 1.5-1.5h2zm63 4 1.5 2.5-2.5 2.5-6 3h-2l-8 4h-3l-.5-2.5 5.5-3.5h2l7-4zm150 4 2.5 1.5 16 27-2.5 2.5-8 4h-2l-9 5h-2l-7 4h-2l-40 19-2.5-2.5-3-6v-2l-3-5-2-7-3-5-1-5 9.5-4.5h2l7-4h2l7-4h2l7-4h2l7-4h2l7-4 9-3z" opacity=".004"/><path stroke="#000" d="M485.5 300h2l3.5 2.5-19.5 10.5h-2l-9 5h-2l-34 16-7 2-2.5-5.5 5.5-3.5h2l5-3h2l5-3h2l5-3h2l5-3h2l5-3h2l5-3h2l5-3h2zm-362 2q3.9.6 5.5 3.5l12 22v2l7 13v2l5 9v2l9 19v2l2 3v2l2 3 3 9v7l-6.5 2.5q-4.7-1.2-6 1h-8l-7-8-10 2-1 1h-4l-5 2h-4l-5 2h-4l-5 2h-4l-5 2h-4l-5 2h-4l-1 1-11 2-1.5 1.5 6.5.5 1-1h5l1-1h5l1-1 14-2 5-2h4l1-1 8-1 1-1h3l1-1h3l1-1 8-1 6-2 4 8h10l1-1h5l1-1 8-1 .5 1.5-5.5 2.5h-3l-4 2h-3l-1 1-15 3-1 1h-4l-5 2h-4l-5 2-10 1-6 2-11 1-1 1q-4.7-1.3-6 1h-7l-1 1h-7l-1 1h-8l-1 1-28 1q-2.5-1-1-2 3.3.8 4-1h11l1-1h9l1-1h8l2.5-1.5v-2l-2.5-3.5-1 4-1.5-.5v-2l2-3-10-15-6-12v-2l-4-9-1-7-1-1v-6q-1.7-.7-1-4l1-3 6.5-6.5 31-23 23-15zm2.5 24-6 4v5l5 7 7-2v-4l-4-9zm-35 2-2 1-7 8-5 9v2l-2 3-3 9v5q1 2 4 1v-1l4-3q4-3 6-8v-9l3-5 1-5 2-1q2-2 3-5zm42 15-7 4 5 10 6-1 2-2-3-9q0-2-3-2Zm-46 25-7 3h-3l-1 4q7 7 16 13l4-6h1l-3 5v3l6 3 7 1 1-1q-1-5 1-6h2q2-3 8-2l1 4-2 1h-6l-1-1-2 1q0 2 2 3h7l6-2-3-7-1-2h-13l-7-3-3-4-5-6zm248.5-63 4.5.5-16.5 8.5-2 2-4 1-1.5-1.5 3.5-3.5zm-120 1 4.5.5q-6.8 7.2-18.5 9.5l-1.5-1.5 2.5-2.5zm-24 11 3.5.5-2.5 3.5-11 5-7 1-.5-1.5 9.5-5.5h2zm133 4 1.5.5-3.5 1.5v-1zm-12 1 .5 1.5-57.5 27.5h-2l-23 11-8 2-.5-2.5 13.5-7.5h2l25-12h2l7-4h2l12-6h2l3-2h2l3-2h2l3-2z" opacity=".004"/><path stroke="#000" d="m125.5 330 3.5 2.5q1 4.5-1.5 5.5l-3 1-3.5-6.5zm193 1 2.5.5 14 30-7.5 4.5h-2l-7 4h-2l-7 4h-2l-7 4h-2l-34 16-5 1-5.5-19.5-5-11v-3l1.5-1.5h2l5-3h2l5-3h2l5-3h2l5-3h2l5-3h2l7-4h2zm91 1q3-.5 3.5 1.5l2 4-26.5 12.5h-2l-7 4h-2l-7 4h-2l-7 4h-2l-7 4-9 3-1.5-1.5-1-4 5.5-3.5h2l7-4h2l7-4h2l7-4h2zm-325 6q2.8 1.2.5 2.5l-.5 1.5q-2.8-1.2-.5-2.5zm-4 9 2.5.5q-.8 10.2-7.5 14.5l-1.5-.5 4-9v-2zm52 0q3-.5 3.5 1.5l-.5 4.5-4 2-2.5-3.5v-3zm-95 16 2.5 1.5 4 16 7 15v2l5 10 4 5v2l-2 1 .5 1.5 4.5.5-1.5 1.5q-3.2-.7-4 1h-7v-2h-14l-1 1h-7L20 401.5l-5-16L34.5 365zM29 378l-4 3-6 7v8l4 8v2l3 3 7-1 1-1h4l3-1-4-9h-1l2 7-10 1-3-2 1-1 3 1 4-1q2-1 1-4l-1-1-2-1v-7l-2-3 1-5 1 3q1 2 2 1l-2-5zm10 2-2 2 2 2h1q1-3-1-4Zm1 6q-2 4 1 5h2l-1-4zm3 7q-2 5 2 6 2 0 1-3zm175.5-30 2.5 1.5-2.5 1.5zm25 0 2.5.5 11 33-1.5 1.5h-2l-7 4h-2l-7 4h-2l-7 4h-2l-34 16h-2l-7 4-9.5-35.5 24.5-11.5h2l7-4h2l7-4h2l7-4h2l7-4h2zm92 3 4.5.5q.8 3.8-1.5 4.5l-49 23h-2l-17 8-6 1-1.5-4.5 29.5-14.5h2l25-12h2zm-250 6 7 1 2.5 2.5v3l-3.5 4.5-4-1-7.5-6.5 1.5-2.5q3.3.8 4-1Z" opacity=".004"/><path stroke="#000" d="M347.5 373h11l1 1 11 2 18 6 3 2h2l8 5h7l3 1 15 7h2l3 2h2l3 2h2l3 2h2l3 2h2l3 2h2l3 2h2l3 2h2l3 2h2l3 2h2l3 2 12 4 5 3h2l8 4 5 1 3 2h2l3 2h2l3 2 12 4 5 3 9 3 6 4q.8-1.7 4-1l4 2 9.5 1.5L.5 452 0 413.5h1l2 6 7.5 7.5q5.4 1.1 8 5h4l2-1 3 2h26l1-1 19-1 1-1h7l1-1h6l1-1h6l1-1h5l1-1 11-1 1-1h4l1-1 14-2 1-1 8-1 4-2h3l1-1h3l1-1 15-3 1-1h3l3.5 11.5 2 3 1 5 5.5 12.5 5-1 5-3h2l12-6h2l7-4h2l12-6h2l7-4h2l12-6h2l7-4h2l5-3 9-3 7-4h2l5-3 9-3 7-4h2l5-3 9-3zm-247 10q4.8-.7 5.5 2.5l-1.5 4.5h-6l-1.5-1.5q.6-3.9 3.5-5.5Z" opacity=".004"/><path stroke="#000" d="m10.5 391 1.5 2.5v3l3 9 4 7 2 6 6 10-3.5.5-11-6-5.5-5.5-3-7v-7zm248 8 1.5.5 2 5-3.5 2.5h-2l-9 5h-2l-9 5h-2l-9 5h-2l-33 16h-3l-1.5-5.5 9.5-5.5h2l7-4h2l7-4h2l34-16h2zm-240 8 2.5 3.5q-1 1.5-2-1zm20 14 3.5.5-3.5 2.5zm601 12 .5 18.5-53.5.5v-1h7q1-2 5-1l12-4h3l3.5-2.5.5-3.5 6 1 1-1 6-1z" opacity=".004"/></svg>