<svg xmlns="http://www.w3.org/2000/svg" viewBox="0 0 640 637"><path fill="#131313" stroke="#131313" d="M596.5 0h27l1 1h9l3.5 2.5 2 4v14l1 1v26l-1 1v18l-1 1v11l-1 1v8l-1 1v6l-1 1v6l-1 1-1 11-1 1-2 14-3 9v4l-2 4v3l-3 8v3l-8 24-2 3-1 5-7 15v2l-4 7v2l-17 33-26 40q-24.9 34.1-55.5 62.5l-17 15-23 18-22 15-20 11-2 2-23 12h-2l-18 9h-2l-16 7-27 9-7 1-4-2L193 325.5q-2-2.5-1-8l1-1v-3l3-7v-3l5-15 2-3 2-8 7-15v-2l16-33 2-2 3-7 9-15 14-21 20-26q18.9-22.6 40.5-42.5l26-22 37-26 15-9 7-3 2-2 35-17h2l18-8 27-9h3l4-2h3l12-4h4l5-2h4l1-1h4l1-1h4l6-2 12-1 1-1 16-1 1-1h11l1-1h17zM588 17l-1 1h-13l-1 1-17 1-1 1-13 1-6 2-10 1-5 2h-4l-9 3h-3l-1 1h-3l-4 2h-3l-4 2h-3l-18 6-3 2-5 1-15 7h-2l-40 20-36 23q-27 19-49 41l-1 2h-1l-19 20-19 23-23 33-9 15-15 29v2l-7 14-4 12-2 3-9 29-1 1 118 117 20-6 3-2 5-1 13-6h2l39-19 25-15 16-11 21-16 15-13 31-31 26-32 23-35 7-14 2-2 14-29v-2l5-10 1-5 2-3 1-5 2-3 4-12v-3l5-14 3-15 1-1v-4l2-5v-4l1-1v-5l2-6v-6l1-1v-6l1-1v-7l1-1v-9l1-1V59l1-1V18z" opacity=".996"/><path fill="#131313" stroke="#131313" d="m479.5 94 18 2 9 4h2l10 6 8.5 7.5 9 12 5 11 1 6 1 1v5l1 1v14l-1 1v5l-1 1v3l-2 6-5 10q-5.7 9.8-14.5 16.5l-9 6-12 5-9 1-1 1h-16l-1-1h-5l-4-2h-3l-12-6q-9-5.5-15.5-13.5l-5-7-7-16q.8-3.2-1-4v-6l-1-1v-11l1-1v-6q1.8-.7 1-4l5-13 5-8 12.5-12.5 16-9 10-2 1-1h8zm-3.5 17-1 1h-4l-6 2-12 7-10 11-5 10-1 7-1 1v15l1 1v3l2 6 5 9 14 12 11 5q3-1 4 1h7l1 1q3 1 4-1h6l1-1 6-1q9-4 16-10l7-9 4-8 1-6 1-1v-17l-1-1v-3l-2-6-6-10-11-11-8-4-6-2h-4l-1-1zm-270.5 48h7l3.5 2.5 2 6-45 91v2l-12 23v2l-3.5 5.5-4 2h-4l-10-5-15-5-8-1-1-1h-4l-1-1h-6l-1-1h-29l-1 1h-6l-1 1h-4l-1 1-8 1-15 5-3 2h-7l-4.5-4.5v-7Q40.5 257 60.5 239l32-26 16-11 20-11 2-2 36-17zM191 181l-9 3-3 2h-2l-3 2h-2l-3 2h-2l-7 4h-2l-18 9-2 2-20 11-34 25-25 23 1 1 3-1h6l1-1h9l1-1h19l1 1h9l1 1h6l1 1h4l9 3h3l15 6 29-59v-2l16-31zm190.5 41h6l1 1 7 1q8.3 3.2 13.5 9.5l6 11q-.8 3.3 1 4v11l-4 11-8.5 9.5-7 4-6 1-1 1h-11l-9-3-9.5-7.5-3-4-4-9q1-4-1-5v-7l4-12 9.5-10.5 7-4 3-1h5zm-.5 17-6 3-5 6-1 3v8l2 4q3 4 9 6h10l2-1 7-8v-10l-2-4q-4-8-16-7ZM165.5 354h6l8 3 12.5 11.5 4 7 1 9-4 10L70.5 517l-9 4h-8l-7-3L33 504.5l-3-7v-9l3-7L157.5 357zm1.5 17L46 493l1 3 9 8h4l120-120v-3l-9-10zm303.5 43q8.8-1.7 10.5 3.5 1.8 2.2 1 7l-2 4v3l-8 24-2 3-4 12-14 29-2 2-6 12-13 20-15 20q-17.7 21.8-38.5 40.5l-16 13h-7l-4.5-4.5v-6l6-15v-3l3-9v-4l1-1v-6l1-1v-31l-1-1v-6l-1-1-1-9-2-4v-3l-3-9-6-12v-4l4.5-5.5zM459 438l-43 22h-2l-33 17h-2l-12 7 6 18v3l1 1v4l2 5v6l1 1v8l1 1v23l-1 1v8l-1 1q1 5-1 8h2l24-26 11-14 15-22 19-35v-2l9-19 5-15zm-294.5 2h9l7 3 13.5 13.5 3 7v9l-4 8L41.5 632l-7 4-7 1-1-1-7-1-3-2L3 619.5l-3-8v-6l3-8L157.5 443zm4.5 16-2 1L17 607v4l10 9h3l151-152-1-2-8-9zm80.5-11h9l7 3 13.5 13.5 3 7v9l-3 7-81.5 81.5-9 4h-7q-12.6-4.4-19.5-14.5l-5-10v-7l3-8 82.5-82.5zm4.5 16-80 79v4l10 9h3l24-23 1-2 2-1 52-53-1-3-8-9z" opacity=".996"/><path fill="#1e463c" stroke="#1e463c" d="m587.5 17 4.5.5-4.5.5zm35 0 .5 2.5h-1zm-49 1 2.5.5-2.5.5zm49 34 .5 5.5h-1zm-1 17 .5 3.5h-1zm-1 11 .5 2.5h-1zm-145 14 3.5.5-3.5.5zm9 0 3.5.5-3.5.5zm-45 16 .5.5-5.5 5.5-.5-.5zm88 4 2.5 2.5-.5.5-2.5-2.5zm-195 8 .5.5-2.5 2.5-.5-.5zm-16 15 .5.5-4.5 4.5-.5-.5zm103 11 .5 2.5h-1zm-119 6 .5.5-2.5 2.5-.5-.5zm62 76 .5.5-2.5 2.5-.5-.5zm154 84 .5.5-2.5 2.5-.5-.5zm-29 29 .5.5-2.5 2.5-.5-.5z"/><path fill="#358584" stroke="#358584" d="m592.5 17 15.5.5-15.5.5zm19 0 10.5.5-10.5.5zm-35 1 4.5.5-4.5.5zm-11 1 3.5.5-3.5.5zm-8 1 2.5.5-2.5.5zm65 0 .5 31.5h-1zm-73 1 2.5.5-2.5.5zm72 44 .5 3.5h-1zm-1 12 .5 2.5h-1zm-1 9 .5 2.5h-1zm-147 8 2.5.5-2.5.5zm16 0 2.5.5-2.5.5zm-46 13 .5.5-2.5 2.5-.5-.5zm-104 10 .5.5-2.5 2.5-.5-.5zm-9 8 .5.5-3.5 3.5-.5-.5zm-24 24 .5.5-4.5 4.5-.5-.5zm239 5 .5 4.5h-1zm-249 6 .5.5-2.5 2.5-.5-.5zm234 37 .5.5-7.5 7.5-.5-.5zm-95 1 5.5 5.5-.5.5-5.5-5.5zm42 21 10.5.5-10.5.5zm-60 32 .5 5.5h-1zm-8 24 .5.5-3.5 3.5-.5-.5zm-27 11 5.5.5-5.5.5zm140 22 .5.5-2.5 2.5-.5-.5zm-8 9 .5.5-5.5 5.5-.5-.5zm-303 1L328 434.5l-1.5.5L210 318.5zm282 20 .5.5-4.5 4.5-.5-.5z"/><path fill="#43361b" stroke="#43361b" d="m76.5 262 2.5.5-2.5.5zm90 109 .5.5-54.5 54.5-.5-.5zm0 86 .5.5L17.5 607l-.5-.5zm85 5 .5.5-77.5 77.5-.5-.5zm13 13 .5.5-51.5 51.5-.5-.5zm121 87 .5.5-8.5 8.5-.5-.5z"/><path fill="#6e5924" stroke="#6e5924" d="m101.5 262 2.5.5-2.5.5zm10 164 .5.5L47.5 491l-.5-.5zm61 32 6.5 6.5-.5.5-6.5-6.5zm84 4 8.5 8.5-.5.5-8.5-8.5zm-209 33 8.5 8.5-.5.5-8.5-8.5zm-29 116 7.5 7.5-.5.5-7.5-7.5z"/><path fill="#4ed7d5" stroke="#4ed7d5" d="m585.5 18 36.5.5-.5 41.5-1-41h-35zm-13 1 9.5.5-9.5.5zm-10 1 6.5.5-6.5.5zm-8 1 5.5.5-5.5.5zm-7 1 4.5.5-4.5.5zm-6 1 4.5.5-4.5.5zm-6 1 3.5.5-3.5.5zm-5 1 3.5.5-3.5.5zm-5 1 3.5.5-3.5.5zm-5 1 3.5.5-3.5.5zm-4 1 2.5.5-2.5.5zm-5 1 3.5.5-7.5 1.5v-1q3.2.8 4-1Zm-11 3 2.5.5-2.5.5zm-4 1 2.5.5-2.5.5zm-7 2 2.5.5-5.5 1.5v-1zm-21 7 1.5.5-6.5 2.5v-1zm-8 3 1.5.5-3.5 1.5v-1zm-5 2 1.5.5-3.5 1.5v-1zm-5 2 1.5.5-3.5 1.5v-1zm-5 2 1.5.5-5.5 2.5v-1zm-9 4 1.5.5-11.5 5.5v-1zm-16 8q1.5 1-1 2l-10 5q-1.5-1 1-2zm200 1 .5 9.5h-1zm-215 7q1.5 1-1 2l-2 1q-1.5-1 1-2zm-7 4q1.5 1-1 2l-2 1q-1.5-1 1-2zm221 1 .5 7.5h-1zm-226 2q1.5 1-1 2l-5 3q-1.5-1 1-2zm-11 7q1.5 1-1 2l-6 4-.5-.5 2.5-2.5zm236 1 .5 5.5h-1zm-248 7 .5.5-2.5 2.5-3 2-.5-.5 2.5-2.5zm102 0 18.5.5-18.5.5zm145 0 .5 5.5h-1zm-150 1 3.5.5-3.5.5zm26 0 2.5.5-2.5.5zm-30 1 2.5.5-2.5.5zm34 0 2.5.5-2.5.5zm-37 1 1.5.5-3.5 1.5v-1zm44 1q12 4 19.5 12.5l-.5.5-4-4q-6.4-5.1-15-8zm-141 1 .5.5-2.5 2.5-.5-.5zm92 0 1.5.5-6.5 3.5q-1.5-1 1-2zm161 2 .5 4.5h-1zm-257 1 .5.5-2.5 2.5-.5-.5zm89 1q1.5 1-1 2l-3 2-.5-.5 2.5-2.5zm-93 2 .5.5-3.5 3.5-6 4-12 11-.5-.5 6.5-6.5zm87 2 .5.5-12 12-2.5 3.5-.5-.5 2-2zm173 0 .5 4.5h-1zm-90 4 2.5 2.5-.5.5-2.5-2.5zm89 2 .5 3.5h-1zm-86 2 4.5 4.5-.5.5-4.5-4.5zm85 3 .5 3.5h-1zm-1 5 .5 3.5h-1zm-280 1 .5.5-15.5 15.5-.5-.5zm95 0-.5 1.5-4.5 9.5-.5-1.5zm108 0 2.5 3.5q-1 1.5-2-1zm76 4 .5 2.5h-1zm-1 4 .5 2.5h-1zm-70 1 2.5 7.5h-1l-2-6zm69 3 .5 3.5-1.5 3.5-.5-2.5zm-294 4 .5.5-2 2-14.5 15.5-.5-.5 14-14zm104 2 .5 2.5h-1zm124 0 .5 2.5h-1zm64 2 .5 2.5h-1zm-63 2 .5 4.5h-1zm-126 1 .5 5.5h-1zm188 1 .5 2.5-1.5 3.5-.5-2.5zm-61 6 .5 7.5h-1zm59 1 .5 2.5-1.5 3.5-.5-2.5zm-306 4 .5.5-6 6-12.5 15.5-.5-.5 3-3q6.5-10.5 15.5-18.5Zm120 4 .5 5.5h-1zm126 1 .5 4.5h-1zm-125 6 1.5 6.5h-1l-1-3zm124 1 .5 2.5h-1zm54 6 .5 1.5-1.5 2.5-.5-1.5zm-176 1 1.5 3.5h-1zm119 3 .5 1.5-4.5 7.5.5-1.5zm-261 1 .5.5-2.5 2.5-.5-.5zm144 1 2.5 4.5q-1 1.5-2-1zm171 2 .5 1.5-1.5 2.5-.5-1.5zm-318 1 .5.5-2.5 2.5-.5-.5zm150 3 2.5 3.5q-1 1.5-2-1zm-153 1 .5.5-2 2-2.5 3.5-.5-.5 2-2zm319 0 .5 1.5-1.5 2.5-.5-1.5zm-57 1-.5 1.5q-4.9 9.6-13.5 15.5-6.6 5.9-16 9v-1l12-6 13.5-12.5zm-106 3 2.5 2.5-.5.5-2.5-2.5zm161 1 .5 1.5-1.5 2.5-.5-1.5zm-158 3 8.5 8.5-.5.5-8.5-8.5zm-166 2 .5.5-2 2-3.5 5.5.5-1.5zm322 0 .5 1.5-2.5 4.5-.5-1.5zm-146 7 2.5 2.5-.5.5-2.5-2.5zm142 2 .5 1.5-13.5 25.5.5-1.5zm-326 3-.5 1.5-1.5 2.5.5-1.5zm191 0 8.5 4.5-1.5.5-6-3q-2.5-1-1-2Zm10 5 4.5 1.5-2.5.5-2.5-1.5zm43 0 1.5.5-4.5 1.5v-1zm-37 2 2.5.5-2.5.5zm30 0 2.5.5-2.5.5zm-242 1-.5 1.5-2.5 4.5.5-1.5zm216 0 4.5.5-4.5.5zm20 0 4.5.5-4.5.5zm-14 1 12.5.5-12.5.5zm-98 1 4.5.5-4.5.5zm10 0h4l3.5 1.5-2.5.5q-1-2-5-1zm-14 1 2.5.5-4.5 1.5v-1zm23 1 4.5 2.5-1.5-.5-3-1zm-147 3-.5 1.5-2.5 4.5.5-1.5zm153 0 2.5 2.5-.5.5-2.5-2.5zm-38 1 .5.5-7.5 7.5-.5-.5zm42 2 5.5 6.5-.5.5-2.5-2.5-3-4zm-161 4-.5 1.5-12.5 25.5-.5-1.5zm167 4q4.2 3.8 4.5 11.5h-1l-1-6-3-5zm157 1-.5 1.5-2.5 4.5.5-1.5zm-216 3 .5 1.5-1.5 3.5-.5-2.5zm212 4-.5 1.5-1.5 2.5.5-1.5zm-214 2 .5 3.5h-1zm211 3-.5 1.5-1.5 2.5.5-1.5zm-145 1 .5 6.5h-1zm142 4-.5 1.5-1.5 2.5.5-1.5zm-208 2 .5 4.5h-1zm65 3 .5 2.5h-1zm-186 3 .5 1.5-2.5 4.5-.5-1.5zm123 3 2.5 4.5q-1 1.5-2-1zm-126 4 .5 1.5-2.5 4.5-.5-1.5zm129 2 2.5 2.5-.5.5-2.5-2.5zm192 0 .5.5-2 2-2.5 3.5-.5-.5 2-2zm-138 2 .5.5-6.5 6.5-.5-.5zm-51 2 7 6 6 3 6.5 1.5-3.5.5-9-4-7.5-6.5zm-135 1 .5 1.5-1.5 2.5-.5-1.5zm319 2 .5.5-2 2-9.5 12.5-.5-.5 3-3zm-322 6 .5 1.5-1.5 2.5-.5-1.5zm168 1 3.5.5-3.5.5zm-9 1 7.5.5-7.5.5zm-162 6 .5 1.5-5.5 15.5-.5-2.5zm313 2 .5.5-3.5 3.5-.5-.5zm-4 5 .5.5-4.5 4.5-.5-.5zm-5 6 .5.5-6.5 6.5-.5-.5zm-311 8 .5 2.5-1 1L326.5 433l2.5.5-2.5.5L210 317.5l1-1zm304 0 .5.5-31.5 31.5-35 28-.5-.5 2.5-2.5q35.6-24.9 64-57Zm-68 60 .5.5-2.5 2.5-6 4-.5-.5 2.5-2.5zm-13 9q1.5 1-1 2l-5 3q-1.5-1 1-2zm-11 7q1.5 1-1 2l-2 1q-1.5-1 1-2zm-5 3q1.5 1-1 2l-4 2q-1.5-1 1-2zm-7 4q1.5 1-1 2l-6 3q-1.5-1 1-2zm-11 6q1.5 1-1 2l-15 7v-1zm-21 10 1.5.5-7.5 3.5v-1zm-9 4 1.5.5-5.5 2.5v-1zm-7 3 1.5.5-3.5 1.5v-1zm-5 2 1.5.5-3.5 1.5v-1zm-8 3 1.5.5-3.5 1.5v-1z"/><path fill="#e0b23d" stroke="#e0b23d" d="m69.5 254 .5.5-2.5 2.5-.5-.5zm17 7 6.5.5-6.5.5zm85 111 7.5 7.5-.5.5-7.5-7.5zm7 12 .5.5-5.5 5.5-.5-.5zm-9 9 .5.5L60.5 503l-.5-.5zm209 141 .5 3.5h-1zm0 12 .5 3.5h-1zm-328 52 .5.5-2.5 2.5-.5-.5zm-6 6 .5.5L30.5 619l-.5-.5z"/><path fill="#f8bd46" stroke="#f8bd46" d="m183.5 184 2.5 1.5-1.5.5q-2.5-1-1-2Zm4 0 1.5.5-.5 1.5q-2.5-1-1-2Zm-12 3 2.5 1.5-1.5.5q-2.5-1-1-2Zm-5 2 2.5 1.5-1.5.5q-2.5-1-1-2Zm-7 3 2.5 1.5-1.5.5q-2.5-1-1-2Zm-12 7 1.5.5-2.5 1.5q-1.5-1 1-2Zm-47 28 .5.5-2.5 2.5-.5-.5zm-8 6 .5.5-2.5 2.5-.5-.5zm68 0 .5 1.5-1 2 .5 1.5-1.5-2.5zm-74 3 1 1 1.5-.5-2.5 2.5-.5-.5 1-1zm-3 4 .5.5-3.5 3.5-.5-.5zm-6 5 .5.5-4.5 4.5-.5-.5 2-2-.5-1.5q1.5 2.5 3-1Zm-9 8 .5.5-7 7 .5.5 1.5.5-3.5.5-.5-.5 2-2-1-1 1.5-1.5 1 1zm15 6 2.5.5-2.5.5zm-16 1 6.5.5-6.5.5zm29 0 6.5.5-6.5.5zm-17 1 2.5.5-2.5.5zm27 0 3.5.5-3.5.5zm6 1 2.5.5-2.5.5zm5 1 2.5.5-2.5.5zm8 2 2.5.5-2.5.5zm19 1 .5 1.5-1 2 .5 1.5q-1-2-2 0l-1.5-.5 2-1zm19 107 .5.5L61.5 480l-.5-.5zm3 0 7.5 7.5v3l-6 6 .5 1.5q-1.2-2.2-2.5.5l.5 1.5-1-1-110 110-.5-.5 118-118v-3l-7-7zm286 68 1.5 2.5-1.5-.5-1.5-.5zm-14 7 1.5.5-3.5 1.5v-1zm-275 9 10.5 9.5-.5.5-8-8L20 607.5l-.5 2.5-.5-2.5 149-149zm85 5 3.5 2.5-1.5-.5-78 77-.5-.5 77-77zm-75 7-.5 1.5 1 1L54.5 595q-1.3-2.2-2.5.5 2.3 1.3-.5 2.5l-1-1-3.5 3.5.5 1.5q-1.2-2.2-2.5.5l.5 1.5-1-1-15 15q-3 .5-3.5-1.5l1.5.5h2zm85 2 2.5 3.5-1.5-.5-77 77-.5-.5 77-78zm177 10 .5 1.5-2.5 3.5.5-1.5zm-69 2 1.5.5-2 1-.5 1.5-.5-1.5zm0 4 .5 1.5q-1 2.5-2 1zm-321 4-.5 1.5 1 2q-1 1.5-2-1zm383 4-.5 1.5-1.5 2.5.5-1.5zm-57 7 .5 2.5h-1zm1 4 .5 2.5h-1zm47 4q2.5 1 1 2l-1-1-1.5.5zm-46 1 .5 2.5h-1zm1 5 .5 3.5h-1zm37 6q2.5 1 1 2l-1-1-1.5.5zm-36 1 .5 5.5h-1zm31 6q2.5 1 1 2l-1-1-1.5.5zm-2 3v3l-1-1-1.5.5zm-28 2 .5 15.5h-1zm24 3 .5.5-2.5 2.5-.5-.5zm-3 4 .5.5-3.5 3.5-.5-.5zm-225 2 8.5 7.5-1.5.5-7.5-7.5zm220 4 .5.5-4.5 4.5-.5-.5zm-7 8 .5.5-3 3 .5 1.5-1-1-8 8-.5-.5.5-2.5 1 1zm-10 1 .5 4.5h-1z"/><path fill="#fac946" stroke="#fac946" d="m189.5 182 2.5.5-30 59v2L147.5 273l-16-6h-3l-9-3-11-1-1-1-24-1-1 1h-12l-1 1h-6l-3 1-.5-.5 4.5-4.5 30-26 29-20 38-20h2l5-3h2l3-2h2zm-1.5 2q-2 1 1 2v-1zM88 259v1h2zm-22 1q-3 1-1 2h3zm6 0v1h6zm29 0v1h6zm10 1v1h3zm6 1v1h2zm5 1v1h2zm8 2v1h2zm38.5 106 10.5 9.5v3L58.5 504l-3-1-8.5-8.5v-3L166.5 372zm9.5 9-1 4h1zm280.5 59 .5 1.5-2 3-2 8-7 15v2l-13 26-12 20-22 30-24.5 26.5-.5-1.5 1-1v-6l1-1v-10l1-1v-17l-1-1v-10l-1-1-1-11-4-12v-3l-5-12 25.5-12.5h2zm-1.5 2q-3 1-1 2h1zm-81 61-1 3h1zm1 4-1 3h1zm1 5-1 3h1zm1 5-1 4h1zm1 7-1 6h1zm1 11-1 16h1zm-1 22-1 5h1zm-1 8v3q3-1 0-3ZM168.5 457h2l8.5 8.5 1 3-1.5 2.5-149 148h-3l-8.5-8.5v-4zM20 607l-1 3h1zm8 10v1h2zm225.5-155h2l9.5 9.5-1 4-76.5 76.5-2 1-11.5-10.5 1-3 76.5-76.5z"/><path fill="#141414" stroke="#141414" d="m584.5 0 11.5.5-11.5.5zm40 0 8.5.5-8.5.5zm-54 1 7.5.5-7.5.5zm-11 1 6.5.5-6.5.5zm-8 1 5.5.5-5.5.5zm-7 1 4.5.5-4.5.5zm93 0 1.5 2.5h-1zm-98 1 3.5.5-3.5.5zm-7 1 3.5.5-3.5.5zm-5 1 3.5.5-3.5.5zm-5 1 3.5.5-3.5.5zm-5 1 3.5.5-3.5.5zm122 1 .5 11.5h-1zm-130 1 2.5.5-2.5.5zm-5 1 2.5.5-2.5.5zm-11 3 2.5.5-2.5.5zm-7 2 2.5.5-2.5.5zm-10 3 2.5.5-10.5 3.5v-1zm-20 7 1.5.5-3.5 1.5v-1zm-5 2 1.5.5-3.5 1.5v-1zm-5 2 1.5.5-3.5 1.5v-1zm-5 2 1.5.5-3.5 1.5v-1zm-7 3 1.5.5-5.5 2.5v-1zm-13 6 1.5.5-2.5 1.5q-1.5-1 1-2Zm-6 3 1.5.5-4.5 2.5q-1.5-1 1-2zm-6 3 1.5.5-2.5 1.5q-1.5-1 1-2Zm230 1 .5 14.5h-1zm-237 3q1.5 1-1 2l-4 2q-1.5-1 1-2zm-9 5q1.5 1-1 2l-2 1q-1.5-1 1-2zm-5 3q1.5 1-1 2l-2 1q-1.5-1 1-2zm-5 3q1.5 1-1 2l-2 1q-1.5-1 1-2zm-8 5q1.5 1-1 2l-3 2-.5-.5 2.5-2.5zm263 0 .5 8.5h-1zm-272 6q1.5 1-1 2l-3 2-.5-.5 2.5-2.5zm-9 6 .5.5-2.5 2.5-.5-.5zm280 0 .5 5.5h-1zm-284 3 .5.5-2.5 2.5-8 6-.5-.5 3.5-3.5zm283 6 .5 4.5h-1zm-295 3 .5.5-3.5 3.5-.5-.5zm-5 4 .5.5-3.5 3.5-.5-.5zm299 0 .5 4.5h-1zm-304 4 .5.5-5.5 5.5-.5-.5zm303 3 .5 4.5h-1zm-310 3 .5.5-7.5 7.5-.5-.5zm309 3 .5 3.5h-1zm-158 2 12.5.5-12.5.5zm-5 1 2.5.5-2.5.5zm20 0 2.5.5-2.5.5zm142 3 .5 2.5h-1zm-174 2q1.5 1-1 2l-3 2-.5-.5 2.5-2.5zm-147 1 .5.5-20.5 20.5-.5-.5zm320 2 .5 2.5h-1zm-179 1 .5.5-6.5 6.5-.5-.5zm58 0 7.5 7.5-.5.5-7.5-7.5zm120 4 .5 2.5h-1zm-185 4 .5.5-2 2-1.5 2.5.5-1.5zm184 1 .5 2.5h-1zm-109 3 3.5 6.5h-1l-3-6zm108 1 .5 2.5h-1zm-1 4 .5 2.5h-1zm-338 3 .5.5-5.5 5.5-.5-.5zm148 3 .5 2.5h-1zm88 0 .5 2.5h-1zm100 2 .5 2.5h-1zm-99 2 .5 3.5h-1zm-90 1 .5 6.5h-1zm-155 1 .5.5-3.5 3.5-.5-.5zm343 0 .5 2.5h-1zm-349 7 .5.5-3.5 3.5-.5-.5zm347 0 .5 2.5h-1zm-416 1 5.5.5-5.5.5zm-4 1 2.5.5-2.5.5zm324 1 .5 5.5h-1zm-331 1 2.5.5-5.5 1.5v-1zm241 0 .5 3.5h-1zm-220 1q2 .5 1.5 3.5h-1zm55 0 .5.5-3.5 3.5-.5-.5zm-91 4 1.5.5-3.5 1.5v-1zm257 0 .5 2.5h-1zm-170 1 .5.5-2.5 2.5-.5-.5zm258 0 .5 2.5h-1zm-353 2 1.5.5-3.5 1.5v-1zm44 2 .5 1.5-4.5 7.5.5-1.5zm48 0 .5.5-3 3-2.5 3.5-.5-.5 2-2zm260 0 .5 1.5-1.5 2.5-.5-1.5zm-362 2 1.5.5-3.5 1.5v-1zm277 0 1.5 3.5h-1zm-284 3 1.5.5-5.5 2.5v-1zm286 2 2.5 3.5q-1 1.5-2-1zm-183 1 .5.5-2.5 2.5-.5-.5zm-116 3 1.5.5-4.5 2.5q-1.5-1 1-2zm302 1 2.5 2.5-.5.5-2.5-2.5zm74 0 .5.5-2.5 2.5-.5-.5zm95 2 .5 1.5-1.5 2.5-.5-1.5zm-360 1 .5.5-2 2-5.5 8.5.5-1.5zm-45 1 .5 1.5-8.5 15.5.5-1.5zm-79 2q1.5 1-1 2l-4 2q-1.5-1 1-2zm321 0 4.5 4.5-.5.5-4.5-4.5zm60 2 .5.5-2.5 2.5-.5-.5zm-388 2q1.5 1-1 2l-2 1q-1.5-1 1-2zm488 0 .5 1.5-1.5 2.5-.5-1.5zm-493 3q1.5 1-1 2l-2 1q-1.5-1 1-2zm351 4 2.5.5-2.5.5zm24 0 2.5.5-2.5.5zm-20 1 3.5.5-3.5.5zm15 0 3.5.5-3.5.5zm-7 1 3.5.5-3.5.5zm125 3 .5 1.5-1.5 2.5-.5-1.5zm-407 2 .5 1.5-2.5 4.5-.5-1.5zm-100 1 .5.5-2.5 2.5-.5-.5zm140 1-.5 1.5-1.5 2.5.5-1.5zm-147 4 .5.5-2.5 2.5-8 6-.5-.5 3.5-3.5zm144 1-.5 1.5-1.5 2.5.5-1.5zm366 0 .5 1.5-1.5 2.5-.5-1.5zm-370 7-.5 1.5-2.5 4.5.5-1.5zm-152 1 .5.5-3.5 3.5-.5-.5zm-6 5 .5.5-3.5 3.5-.5-.5zm521 2 .5 1.5q-1 2.5-2 1zm-526 2 .5.5-7.5 7.5-.5-.5zm312 8 7.5.5-7.5.5zm-3 1 1.5.5-2.5 1.5q-1.5-1 1-2Zm13 0 6.5 5.5-.5.5-4-4q-3.8-.7-2-2Zm-209 2 .5 1.5q-1 2.5-2 1zm193 0 .5.5-2.5 2.5-.5-.5zm213 1-.5 1.5-2.5 4.5.5-1.5zm-533 1 .5.5L40.5 259l-.5-.5zm125 2 .5 1.5-6.5 12.5-.5-1.5zm192 0-.5 1.5-.5 1.5-.5-1.5zm-2 4 .5 8.5 1 2h-1l-1-2zm-154 2 .5 1.5-2.5 4.5-.5-1.5zm367 0-.5 1.5-1.5 2.5.5-1.5zm-184 5 .5 2.5-3.5 4.5-.5-.5 2-2zm181 0-.5 1.5-1.5 2.5.5-1.5zm-541 4 .5.5-6.5 6.5-.5-.5zm333 1 4.5 4.5-.5.5-4.5-4.5zm16 6 2.5.5-2.5.5zm-357 2 .5.5-4.5 4.5-.5-.5zm135 5 .5 1.5q-1 2.5-2 1zm-142 4 .5 5.5h-1zm51 0 6.5.5-6.5.5zm21 0 8.5.5-8.5.5zm68 0 .5 1.5-2.5 4.5-.5-1.5zm-96 1 4.5.5-4.5.5zm39 0 4.5.5-4.5.5zm-44 1 2.5.5-2.5.5zm51 0 2.5.5-2.5.5zm90 0 .5 1.5-1.5 3.5-.5-2.5zm-146 1 2.5.5-2.5.5zm61 0 2.5.5-2.5.5zm-65 1 2.5.5-2.5.5zm69 0 2.5.5-2.5.5zm-76 2 2.5.5-2.5.5zm515 0 .5.5-2 2-2.5 3.5-.5-.5 2-2zm-537 1 3.5 3.5-.5.5-3.5-3.5zm14 2 1.5.5-3.5 1.5v-1zm-9 2 5.5.5-5.5.5zm116 1 3.5 1.5-1.5.5-2.5-1.5zm11 0q1.5 1-1 2l-1.5-.5zm400 1 .5.5-2.5 2.5-.5-.5zm-406 1 2.5.5-2.5.5zm403 3 .5.5-2.5 2.5-.5-.5zm-3 4 .5.5-2.5 2.5-.5-.5zm-3 4 .5.5-3.5 3.5-.5-.5zm-352 1 .5 1.5-1.5 3.5-.5-2.5zm348 4 .5.5-4.5 4.5-.5-.5zm-6 7 .5.5-4.5 4.5-.5-.5zm-346 2 .5 4.5h-1zm341 4 .5.5-8.5 8.5-.5-.5zm-10 11 .5.5-2.5 2.5-.5-.5zm-4 4 .5.5-11.5 11.5-.5-.5zm-356 17 2.5.5-2.5.5zm10 0 2.5.5-2.5.5zm328 0 .5.5-8.5 8.5-.5-.5zm-324 1q3.9.6 5.5 3.5l-.5.5-2-2-3-1zm-20 2 .5.5-124 124-2.5 6.5-.5-2.5 2-4zm28 3 6.5 6.5-.5.5-6.5-6.5zm306 3 .5.5-3.5 3.5-.5-.5zm-298 6q2.9 1.6 3.5 5.5h-1l-3-5zm291 0 .5.5-2.5 2.5-.5-.5zm-5 4 .5.5-3.5 3.5-.5-.5zm-282 3 .5 2.5h-1zm277 1 .5.5-2.5 2.5-.5-.5zm-5 4 .5.5-2.5 2.5-.5-.5zm-4 3 .5.5-2.5 2.5-.5-.5zm-212 1 32.5 32.5-.5.5-32.5-32.5zm-57 4 .5 1.5-2.5 3.5.5-1.5zm262 0 .5.5-2.5 2.5-2 1q-1.5-1 1-2zm-267 8 .5.5L99.5 489l-.5-.5zm248 5q1.5 1-1 2l-2 1q-1.5-1 1-2zm-5 3q1.5 1-1 2l-2 1q-1.5-1 1-2zm-5 3q1.5 1-1 2l-2 1q-1.5-1 1-2zm-5 3q1.5 1-1 2l-4 2q-1.5-1 1-2zm47 2 6.5.5-6.5.5-8 4v-1zm8 1 3.5 4.5h-1l-3-4zm-66 3q1.5 1-1 2l-4 2q-1.5-1 1-2zm-20 10 1.5.5-5.5 2.5v-1zm43 3 1.5.5-4.5 2.5q-1.5-1 1-2zm-54 2 1.5.5-5.5 2.5v-1zm48 1 1.5.5-17.5 8.5v-1zm-57 3 1.5.5-3.5 1.5v-1zm-5 2 1.5.5-3.5 1.5v-1zm-201 1 5.5.5-5.5.5zm8 1h2l3.5 2.5-1.5-.5-4-1zm-15 1 1.5.5-2.5 1.5q-1.5-1 1-2Zm200 0 1.5.5-3.5 1.5v-1zm117 0 .5 2.5-1.5 2.5-.5-1.5zm-320 2 .5.5L3.5 597l-.5-.5zm25 0 12.5 12.5-.5.5-12.5-12.5zm69 1 7.5.5-7.5.5zm101 0 1.5.5-7.5 2.5v-1zm-89 2 3 1 14.5 14.5-.5 1.5-14-15-3-1zm80 1 1.5.5-7.5 2.5v-1zm-101 1 .5.5-80.5 80.5-.5-.5zm78 3 2.5 1.5-1.5.5q-2.5-1-1-2Zm73 0 1.5.5-4.5 2.5q-1.5-1 1-2zm-6 3 1.5.5-11.5 5.5v-1zm85 2 .5 1.5-1.5 2.5-.5-1.5zm-2 5 .5 1.5-1.5 2.5-.5-1.5zm-189 3q2 .5 1.5 3.5h-1zm-83 1 .5 5.5h-1zm164 1 1.5.5-2.5 1.5q-1.5-1 1-2Zm106 0 .5 1.5-1.5 2.5-.5-1.5zm-110 2 1.5.5-7.5 3.5-3.5 3.5-.5 1.5-.5-1.5 4.5-4.5zm-75 1 .5 7.5h-1zm182 4 .5 1.5-2.5 4.5-.5-1.5zm-272 8 .5.5L41.5 633l-2 1q-1.5-1 1-2zm88 0 .5 1.5q-1 2.5-2 1zm-2 4 .5.5-81.5 81.5-2 1q-1.5-1 1-2zm-249 5 .5 5.5h-1zm322 1 1.5 3.5h-1zm100 9-.5 1.5-2.5 4.5.5-1.5zm-420 1 1.5 2.5q-1 1.5-2-1zm324 1 .5 2.5h-1zm-322 3L46 517.5l-.5.5L33 505.5zm49 0 .5.5-2.5 2.5-.5-.5zm275 4 .5 3.5h-1zm-280 1 .5.5-3.5 3.5-.5-.5zm281 4 .5 2.5h-1zm83 3-.5 1.5-1.5 2.5.5-1.5zm-394 1 2.5 1.5-1.5.5q-2.5-1-1-2Zm312 1 .5 4.5h-1zm-303 2 3.5.5-3.5.5zm304 5 .5 7.5h-1zm70 8 .5.5-2 2-2.5 3.5-.5-.5 2-2zm-273 1 .5 2.5h-1zm-1 6 .5 2.5h-1zm269 0 .5.5-2.5 2.5-.5-.5zm-3 4 .5.5-2.5 2.5-.5-.5zm-264 4 3.5 5.5-.5.5-2.5-2.5zm261 0 .5.5-3.5 3.5-.5-.5zm-59 1 .5 7.5h-1zm55 4 .5.5-4.5 4.5-.5-.5zm-253 2 8.5 8.5-.5.5-8.5-8.5zm197 4 .5 4.5h-1zm51 0 .5.5-6.5 6.5-.5-.5zm-238 5 5.5 3.5-1.5.5-4.5-3.5zm186 2 .5 2.5h-1zm-166 1 1.5.5-4.5 1.5v-1zm209 2 .5.5-21.5 21.5-.5-.5zm-44 2 .5 2.5h-1zm-2 7 .5 2.5h-1zm21 15 .5.5-6.5 6.5-.5-.5zm-27 3 .5 4.5h-1zm19 4 .5.5-4.5 4.5-2 1q-1.5-1 1-2zm-18 2 3.5 3.5-.5.5-3.5-3.5zm5 4 5.5.5-5.5.5zm-352 13L19 634.5l-1.5-.5L3 620.5zm20 16 3.5.5-3.5.5zm7 0 2.5.5-2.5.5z" opacity=".329"/><path fill="#45bdbd" stroke="#45bdbd" d="m608.5 17 2.5.5-2.5.5zm-27 1q3.2-.7 4 1l35.5.5v40q2 1 1 5h-2v9l1 3h-2q-1.2 6.2 1 9l-2 1q-.8 4.8 1 7h-2q-.8 4.8 1 7h-2q-.7 4.2 1 6h-2q-1 4 1 5l-2 1 1 5h-2l1 5h-2q-.7 3.3 1 4l-2 1 1 3-2 1 1 4h-2q-.7 3.3 1 4h-2l1 3-2 1 1 3-2 1 1 3h-2l1 3-2 1-1 5 .5 1.5-1.5.5 1 2-2 1 1 2-2 1 1 2-2 1 1 2-2 1 1 2-2 1 1 2h-2l1 2-2 1 1 2-2 1 1 2h-2l1 2-2 1 1 2h-2l1 2-2 1-1 3 .5 1.5-1.5.5-2 5 .5 1.5-1.5.5.5 1.5-1.5.5-3 7 .5 1.5-1.5-.5 1 2h-2l1 2h-2l1 2h-2l1 2h-2l1 2h-2l-4 8 .5 1.5-1.5.5.5 1.5-1.5.5.5 1.5-1.5-.5-2 4 .5 1.5-1.5.5.5 1.5-1.5-.5-1 2 .5 1.5-1.5.5.5 1.5-1.5-.5-1 2 .5 1.5-1.5.5.5 1.5-1.5-.5-1 2 .5 1.5-2.5 1.5.5 1.5-2.5 1.5.5 1.5-2.5 1.5.5 1.5-2.5 1.5.5 1.5-2.5 1.5.5 1.5-1.5-.5-2 3 .5 1.5-2.5 1.5.5 1.5-1.5-.5-2 3 .5 1.5-1.5-.5-2 3 .5 1.5-1.5-.5-2 3q2.2 1.3-.5 2.5l-3.5 2.5q2.3 1.3-.5 2.5l-4.5 3.5q2.3 1.3-.5 2.5l-5.5 4.5 1 1-2.5 2.5-9.5 8.5 1 1-14.5 14.5-1-1-8 8-1.5.5 1 1-2.5 2.5-1-1-4 4-1.5.5q2.3 1.3-.5 2.5l-1-1-3 3-1.5.5.5 1.5-1-1-3 3-1.5.5.5 1.5-1-1-3 3-1.5.5.5 1.5q-1.5-2.5-3 1l-1.5.5.5 1.5q-1.5-2.5-3 1l-1.5.5.5 1.5q-1.2-2.3-2.5.5l-.5 1.5q-1.5-2.5-3 1l-1.5.5.5 1.5q-1-2-2 0l-1.5.5.5 1.5q-1.2-2.2-2.5.5l-.5 1.5q-1.2-2.2-2.5.5l-.5 1.5q-1-2-2 0l-1.5.5.5 1.5q-1-2-2 0l-1.5.5.5 1.5-1.5-.5-.5 1.5q-1.3-2.2-2.5.5l-.5 1.5q-1-2-2 0l-2.5 1.5-.5 1.5q-1-2-2 0l-3.5 1.5.5 1.5-1.5-.5-.5 1.5q-1-2-2 0l-3.5 1.5.5 1.5-2-1v2l-1.5-.5-.5 1.5-1.5-.5-.5 1.5q-1-2-2 0l-15.5 7.5-.5 1.5-1.5-.5-.5 1.5-2-1v2l-2-1-4.5 2.5-.5 1.5-2-1v2l-2-1-2.5 1.5-.5 1.5-2-1-2.5 1.5-.5 1.5-2-1-2.5 1.5-.5 1.5-2-1-1 2-2-1v2l-2-1-1 2-2-1-1 2-2-1-1 2-2-1-1 2-2-1-1 2-2-1-1 2-2-1-1 2-3-1L210 316.5h2l-1-3 2-1-1-2 2-1-1-3h2l-1-3h2l-1-3h2l-1-3h2l1-4-.5-1.5 1.5-.5-1-2 2-1-1-2h2l-1-2 2-1-1-2 2-1 1-3-.5-1.5 1.5-.5 1-3-.5-1.5 1.5.5-1-2 2-1 1-3-.5-1.5 1.5.5-1-2 2-1-.5-1.5 1.5-.5 3-7-.5-1.5 1.5.5-1-2h2l-1-2h2l-1-2h2l-1-2h2l-1-2h2l4-8-.5-1.5 1.5-.5-.5-1.5 1.5.5 2-4-.5-1.5 1.5-.5-.5-1.5 1.5.5 2-4-.5-1.5 2.5-1.5-.5-1.5 1.5-.5-.5-1.5 1.5.5 1-2-.5-1.5 2.5-1.5-.5-1.5 2.5-1.5 4-6-.5-1.5 2.5-1.5-.5-1.5 2.5-1.5-.5-1.5 1.5.5 2-3-.5-1.5 2.5-1.5q-2.3-1.3.5-2.5l3.5-2.5-.5-1.5 3.5-2.5-.5-1.5 1.5.5 3-4-.5-1.5 1.5.5 3-4q-2.2-1.2.5-2.5l1.5.5 4-5-1-1 2.5-2.5 8.5-7.5-1-1 6.5-6.5 1.5.5 2-4 9.5-9.5 1 1 6.5-6.5 2.5-3.5 1 1 4-4 1.5-.5q-2.2-1.2.5-2.5l1 1 3-3 1.5-.5-.5-1.5 1 1 3-3 1.5-.5-.5-1.5 1 1 2.5-2.5 1.5-2.5q1.3 2.3 2.5-.5l1.5-2.5q1.3 2.2 2.5-.5l.5-1.5q1.5 2.5 3-1l1.5-.5-.5-1.5q1.3 2.3 2.5-.5l.5-1.5q1.3 2.3 2.5-.5l.5-1.5q1.5 2.5 3-1l5.5-3.5.5-1.5q1.2 2.3 2.5-.5l.5-1.5q1 2 2 0l1.5-.5-.5-1.5q1 2 2 0l2.5-1.5.5-1.5q1 2 2 0l2.5-1.5.5-1.5 1.5.5.5-1.5q1 2 2 0l1.5-.5-.5-1.5 1.5.5.5-1.5 1.5.5.5-1.5q1 2 2 0l5.5-2.5-.5-1.5 2 1v-2l2 1v-2l1.5.5.5-1.5 1.5.5.5-1.5 1.5.5.5-1.5 2 1v-2l2 1v-2l2 1v-2l2 1 4.5-2.5.5-1.5 1.5.5.5-1.5 2 1v-2l2 1 2.5-1.5.5-1.5 2 1v-2l2 1 1-2 2 1v-2l2 1 1-2 2 1v-2l2 1 1-2 2 1 3.5-1.5-.5-1.5 2 1 1-2 2 1 1-2 2 1 1-2 2 1 1-2 2 1 1-2 2 1 1-2 3 1v-2l3 1 1-2 2 1 1-2 3 1 1-2 3 1v-2l3 1 1-2q.7 1.8 4 1v-2q.7 1.8 4 1v-2l4 1 1-2q.8 1.8 4 1v-2l5 1v-2l5 1v-2l5 1 1-2q1.8 1.7 6 1v-2q1.8 1.7 6 1l1-2q2.2 1.8 7 1l1-2q2.5 2 8 1l1-2 3 1h9zM473 93l-1 2q-1-2-4-1l-1 2-3-1-1 2-1-1-3 1-1 2-1-1-5 2-2 3-1-1-2 1v2l-1-1-2 3-1-1-12 12 1 1-1-1-1 2q-4 1-1 3h-1v2l-1-1-5 9 1 2-2 1 1 2-2 1 1 2-2 1 1 4-2 1q-1 4 1 6v9q-2 1-1 6h2l-1 5h2l-1 3h2l-1 2 1 3 2 1-1 2h2l-1 2 2-1-1 2h2l-1 2 1 2 3 1-1 2 4 2q2 1 0 3l7 6 1-1 1 3 3 2 1-1v2q1 2 3 0v2l2-1-1 2 7 3 2-1 1 2 2-1v2l3-1 1 2 3-1 1 2q4 1 6-1l-1 2h13v-2q1 2 6 1l1-2 3 1 1-2 3 1v-2l2 1v-1h2l9-4-1-1h2l2-1-1-1h2l3-2-1-1h2l8-8-1-1h2v-1q3-2 1-3h2v-1q2-1 0-2l2-1-1-1h2l2-4-1-2h2l-1-2 2-1-1-2 2-1-1-2 2-1-1-4 2-1q1-5-1-5l1-4 1 2v-7h-2l1-8-2-1 1-3-1-1v-1l-1-5h-2l1-2-1-1v-1l-1-1v-1l-1-1v-1l-1-2-2-2v-1l-2-2q-3-1-1-2l-4-4-4-4-3-4-1 1v-1l-4-3q-1-2-2 0v-1l-6-4-2 1v-2l-2 1-1-2-2 1-1-2-3 1-1-2-4 1-1-1zm-95 128-1 2-3-1v2l-2-1-1 2-1-1-1 2-1-1-2 3-1-1-8 8 1 1h-1q-3 1-1 3h-1v2h-1l-2 3 1 3-2 1q-1 3 1 4l-1 10h2l-1 3 2 1-1 2h2l-1 2 2-1-1 2h2l-1 2 4 2 3 4-1 1h2q1 3 3 1l-1 2 5 2 2-1v2l3-1v2l5-1-1 2h8v-2l5 1 1-2 2 1v-1h2v-1h2v-1h2l1-2q1-3 3-1l4-4-1-1 3-2q2-1 0-2l2-1-1-1 2-1-1-1 2-1-1-2 2-1-1-5h2v-6l-2-1 1-5h-2l1-3h-1v-1l-1-3-2-2v-1l-2-3h-1l-4-4-2-3-1 1-1-1h-1v-2l-2 1v-2l-2 1-1-2-3 1v-2q-5-1-5 1z"/><path fill="#b48e36" stroke="#b48e36" d="m72.5 251 .5.5-2.5 2.5-.5-.5zm306 287 .5 7.5h-1zm-204 5 8.5 8.5-.5.5-8.5-8.5z"/></svg>