<svg xmlns="http://www.w3.org/2000/svg" viewBox="0 0 512 640"><path fill="#130000" stroke="#130000" d="M223.5 0h40l1 1h12l1 1h8l1 1 14 1 1 1h5l6 2h5l5 2h4l1 1 15 3 7 3h3l15 5 3 2 5 1 10 5h2l7 4h2l26 14 26 18L470 84.5q12.1 12.9 22 28l10 19v2l3 6v4l1 1v4l2 6v5l1 1v6l1 1v9l1 1v12l1 1v27l-1 1v10l-1 1-1 12-1 1v3l-1 1v3l-3 9-7 14-9.5 10.5-11 7-5.5 5.5-3 5-7 22-7 15v3l-3 9v7l-1 1v14l1 1v7l1 1 1 10 1 1 2 11 3 7v3l7 19v4l-7.5 8.5-17 8h-10l-23-10h-11l-1 1h-3l-1 1h-3l-9 3-8 4-12.5 10.5-4 7v7l3 8v8q-2.7 6.8-8.5 10.5l-6 3h-8l-4.5-3.5-3-7v-12q-2-1-1-5l-1-3-3.5-3.5h-3l-5.5 5.5-2 6v23l-2 6-2.5 2.5-4 1-1-1-6-1-7.5-6.5-2.5-5.5h-3l-4-2q-2.7 1.3-.5 2.5 1.8 2.2 1 7l-3.5 4.5-5 3q-3.2-.7-4 1h-9l-4.5-2.5q-2-2.5-1-8l-1-1v-3l-2-6-4-5-1-7-3.5-5.5-1.5 3.5v8l-1 1v10q-2.3 1.3-1 6l-5.5 6.5-4 2h-9l-6.5-5.5-2-4v-3l1-1v-10l-3.5-4.5h-2l-3.5 2.5-2 6v13q-2 1-1 5l-2.5 2.5-7-1-9-6-7-3h-3l-3.5-2.5-1-2 1-1v-6l3-5q-.8-3.2 1-4v-5l-1-1v-7l-2.5-4.5q-5.8-.8-7.5 2.5l-2 5-2 15-2.5 3.5h-6l-6.5-4.5-1-3v-5q1.8-.7 1-4l3-5v-4l-3-7-6.5-6.5-8-4-6-2h-3l-1-1h-4l-1-1h-7l-1-1h-16l-1 1h-4l-3.5 1.5-2.5 3.5-9 3h-20l-8-3-5.5-5.5-3-8v-4l-1-1v-7l-1-1v-12l1-1v-4l3-8v-3l10-28v-3l3-9q-1.2-4.7 1-6v-13l-4-9-2-8-8-18L24.5 291l-6.5-4.5-6-18v-3l-1-1v-3l-1-1-2-11-1-1-1-9-1-1-1-11-1-1-1-15-1-1v-10l-1-1v-30l1-1v-8l1-1v-5l1-1 2-11 13-28 10-16 9-12L62.5 60l11-9 21-14 23-12h2l15-7 18-6 7-1 4-2 8-1 1-1h4l6-2h5l1-1h5l1-1h6l1-1 21-1zM119 250l-1 1h-10q-1 2-4 1l-12 6-11 12-4 8-2 6v4l-1 1v18q2 0 1 5l7 16 3 4q7 8 18 13l9 3h3l1 1 9 1 1 1h9l1 1h14l1-1h7l1-1 9-1 18-7 17-12 13-15 5-9q-1-4 1-4v-5l-4-9-15-15-25-15-12-4-8-1-1-1h-5l-1-1h-11l-1-1zm242 0-1 1h-10q-2 2-6 1l-1 1-7 1-9 3q-20 9-35 22l-9 10-3 7v7l1 3 4 8 8 10 13 11 15 9h2l3 2 9 3 9 1 1 1h9l1 1 20-1 1-1h5l1-1h4l5-2h3l11-5 8-6q7-7 11-16l2-6v-3l1-1v-4l1-1v-14q-2-2-1-6l-3-9-5-9q-7-11-20-15-4 1-4-1h-10l-1-1zm-112 85-3 2-19 31-8 16-2 2-4 12 2 6 4 2h9l7-3 3-3 5-10 6-5h12l5 3 7 14 4 2 6 2h6l3-1 3-3v-9l-1-3-29-51-3-4z" opacity=".992"/><path fill="#130000" stroke="#130000" d="M111.5 459h2l5.5 4.5 3 4 5 11 1 11 1 1v5l1 1v4l2 6 14.5 15.5 4 1q2-6 12-4l1 1h6l3 1 3.5 3.5v7q1.8.7 1 4l1.5 1.5q3.2 2.3 10 1l2.5-7.5 4.5-4.5q4.8-.8 7 1l5.5 5.5 1.5 2.5 8-1 2.5-2.5 4.5-5.5 6-2 8 3 10 9 1-1 5.5-.5q-.7-4.7 2.5-5.5l6-1 2.5 2.5 1.5 6.5 12.5-.5q.4-6.6 4.5-9.5h9l4.5 2.5 4.5 6.5 11 1 1.5-3.5v-6l1-3 4.5-6.5 6-2 1 1h5l6 2 8 5 6 1 3-1 4.5-4.5 3-7v-4l1-1v-4l1-1v-4l2-5v-4l1-1 1-8 3-8 4.5-5.5 5-1 4.5 4.5 1 7 1 1v59l1 1v7l3 9v9q-1.7 4.8-5.5 7.5l-13 8-12 2-9 4-11.5 11.5-9 11-2 4-8.5 8.5-9 5-6 2h-5l-1 1h-5l-3 1-17 9-9 1-1 1h-20l-1-1h-4l-6-3h-2q-10.9-8.6-24-15h-2l-3-2-9-3h-3l-9-3-3-2-18-6-11-5h-8l-1-1-9-1q-7.4-2.6-11.5-8.5l-3-6v-3l-2-5v-8l-1-1v-40l-1-1v-5l-4-12-1-8-1-1v-5l-1-1v-9l-1-1v-14q2-1 1-5l2.5-4.5z" opacity=".992"/></svg>