<svg xmlns="http://www.w3.org/2000/svg" viewBox="0 0 640 553"><path fill="#323244" stroke="#323244" d="m600.5 28 5.5.5-5.5.5zm-126 5 .5 3.5h-1zm14 0 .5 3.5h-1zm108 0 .5 4.5h-1zm1 6 2.5 2.5-.5.5-2.5-2.5z"/><path fill="#52525d" stroke="#52525d" d="M476.5 29q1 2 2 0h6l1 1 1.5-.5q-2.5 1.5 1 3v5l-3.5 3.5-1.5.5.5 1.5-6.5-2.5-2-3v-5q2-1 0-2zm124 0q4.8-.8 7 1 1.3-2.2 2.5.5l-1 2h2l-2 6-2.5 2.5-1.5.5.5 1.5-6-2-1.5-1.5-.5-1.5-1.5.5q2-1 1-5z"/><path fill="#968c82" stroke="#968c82" d="m480.5 27 2.5.5-2.5.5zm122 0 2.5.5-2.5.5z"/><path fill="#ff0900" stroke="#ff0900" d="M613.5 274q2.1 1.4 1.5 5.5h-1zm1 22 .5 2.5h-1zm-18 94-.5 1.5-.5 1.5-.5-1.5zm-7 15 .5 1.5-3.5 5.5.5-1.5zm-28 44 1.5.5-2.5 1.5q-1.5-1 1-2Z" opacity=".004"/><path fill="#f19e05" stroke="#f19e05" d="M479.5 0h6l1 1h4l6 2q9 4 14.5 11.5l6 12 1 12-1 1v5l-1 3-4 8-6.5 7.5-2.5 1.5 6 18 2 3 1 5 2 3 2 8 5 11 2 8 2 3 4 13 1.5 1.5h3l5-2h13l5 2 2.5-3.5 3-11 2-3 7-23 2-3 10-30q-7.7-6.2-12-16l-1-7-1-1v-11l4-11L584.5 6l8-4 8-1 1-1h5l1 1 8 1 8 4 7.5 6.5 7 12 2 12-1 1v5l-3 9-4 6-6.5 6.5-12 6-12.5 1.5-1 6-7 19v3l-17 49 13 16 9 19 4 12 1 7 1 1 1 10 1 1v5l1 1v7l1 1v9l1 1v8l1 1v10l1 1 1 38-1 1v20l-1 1v9l-1 1v7l-1 1v5l-1 1-1 10-1 1-1 8-2 4-1 7-4 12-2 3-1 5-3 5v2l-9 18-15 23q-14.1 18.4-31.5 33.5l-15 12-18 12-26 14h-2l-7 4h-2l-5 3-10 3-3 2-21 7h-3l-4 2h-3l-8 3h-3l-1 1h-4l-5 2h-4l-1 1h-4l-1 1h-4l-6 2h-5l-1 1-11 1-1 1h-7l-1 1-15 1-1 1h-10l-1 1h-11l-1 1h-15l-1 1h-82l-1-1h-17l-1-1h-13l-1-1h-10l-1-1h-10l-1-1-17-1-1-1-15-1-1-1h-6l-1-1h-6l-1-1h-6l-1-1h-6l-1-1-11-1-6-2h-5l-1-1h-4l-1-1h-4l-1-1h-4l-6-2h-4l-1-1h-3l-1-1-8-1-8-3-7-1-3-2h-2L7 513.5l-5-9-1-8-1-1v-4l1-1 1-8 4-8 7.5-7.5 5-3 97.5-32.5-.5-1.5-12-7-13-10L67 390.5l-21-27-15-28v-2l-6-13-3-9v-3l-2-4v-3l-1-1v-4l-1-1v-4l-2-6v-6l-1-1v-7l-1-1v-37l1-1v-7l1-1 1-12 1-1v-4l1-1 2-11 6-18 6-12v-2l8-15 13-20L76.5 103l21-18 13-9 19-10 2-2h2l19-9 15-5h3l4-2h3l1-1h4l6-2h5l1-1h6l1-1h8l1-1h38l1 1 15 1 1 1h5l5 2 8 1 4 2h3l15 5 15 7h2l17 9 17 11q17.1 12.4 31.5 27.5l13 15 12 17 13 24v2l3 5 3 10 2 3 1 6 2 4v3l2 4v4l1 1v4l2 6v5l1 1v7l1 1v39l-1 1v9l-1 1v6l.5.5 2-2 7-4 11.5-11.5 13-19v-2l4-7 3-9v-3l3-9v-5l1-1 2-31 1-1v-3l2-6 8-14 11-12v-2l-6-18-2-3-17-53-1.5-1.5h-7l-1-1h-3l-6-2-10.5-7.5-7-10-2-6-1-11 1-1v-6l4-9L461.5 7l9-5 8-1zm3.5 13-10 4-6 6-3 6v6l-1 1q2 1 1 6l3 6 7 6 8 3h7q0-2 4-1l7-4 4-5 3-8v-7l-3-8q-4-7-11-10-4 1-4-1zm116 1-8 5-7 10v14l4 7 7 5 5 2h10q0-2 4-1l6-4 4-5 3-8v-7l-5-10q-4-5-10-8zM215 131l-8 32q-3-2-9-1l-1-1h-7l-1-1h-6l-1-1-14-1-2 5v4l-1 1v4l-1 1v4l-1 1v4l4 1 8 1 1 1h4l6 3 2 5-3 15-1 1v3l-1 1v3l-1 1v4l-1 1-3 15-1 1v4l-3 9v3l-1 1v4l-3 9v3l-1 1v3l-1 1v4l-1 1-2 10-1 1h-5l-12-4-3 3v2l-3 5-4 12-2 3v3l8 1 4 2h3l1 1h3l4 2 7 1 6 3-1 10-2 6v4l-1 1v4l-1 1v5l9 3h3l9 3 1-2v-4l2-5v-4l2-5 1-9 2-3h5q0 2 4 1l1 2-6 33 4 1 11 1 1 1h6l1-3 1-9 2-5 1-9 2-6 19-1 1-1 11-1 9-3 12-7 11-12 5-12q-1-4 1-4v-6l1-1-1-14-4-9q-5-7-13-11l7-5 10-11 5-12v-14q-2-1-1-4l-4-10-4-6-6-7-6-4-6-3-10-2 2-14 1-1v-4l1-1v-4l1-1v-4l1-1v-4l-1-2-6-2-15-3-2 2-2 14-1 1v4l-1 1v4l-1 1v4l-1 2h-5l-5-1v-5l2-5v-4l2-5v-3l1-1 1-8 1-1-1-2q-4 1-4-1l-9-1-5-2z" opacity=".996"/><path fill="#f19e05" stroke="#f19e05" d="M220.5 197q3.2 2.3 10 1l1 1h3l6 2 8 4 6.5 6.5 3 6v9l-5.5 5.5-5 2q-3.2-.7-4 1h-19l-1-1h-6l-2.5-1.5 1-12 1-1v-5l1-1v-5l1-1v-5l1-1zm-11 65 3 1h5l1 1h4l1 1h3l9 3q9 3.5 14.5 10.5l2 3 1 9-2 6-6.5 6.5-11 4h-16l-1-1h-4l-1-1-8-1-3.5-2.5 2-6v-4l1-1v-4l1-1 2-14 1-1 1-7z" opacity=".996"/><path fill="#f2ba4b" stroke="#f2ba4b" d="m482.5 13 6.5.5-6.5.5zm144 18 .5 7.5h-1zm-125 18 .5.5-2.5 2.5-.5-.5zm87 0 3.5 3.5-.5.5-3.5-3.5zm33 0 .5.5-2.5 2.5-.5-.5zm-450 109 2.5.5-2.5.5zm23 3 2.5.5-2.5.5zm47 7 .5 1.5q-1 2.5-2 1zm45 19 2.5 2.5-.5.5-2.5-2.5zm4 4 2.5 2.5-.5.5-2.5-2.5zm-39 16 2.5 2.5-.5.5-2.5-2.5zm7 13 .5 3.5h-1zm-2 8 .5.5-2.5 2.5-.5-.5zm-42 4 2.5 1.5-1.5.5q-2.5-1-1-2Zm18 3 4.5.5-4.5.5zm65 47 .5 7.5h-1zm-48 16 .5.5-2.5 2.5-.5-.5zm-5 38 2.5.5-2.5.5z"/><path fill="#fdaf02" stroke="#fdaf02" d="m476.5 0 2.5.5-2.5.5zm10 0 2.5.5-2.5.5zm112 0 2.5.5-2.5.5zm9 0 2.5.5-2.5.5zm11 3 4.5 2.5-1.5-.5-3-1zm6 3 2.5 2.5-.5.5-2.5-2.5zm-42 1 .5.5-7.5 7.5-.5-.5zm-123 1 .5.5-4.5 4.5-.5-.5zm46 0 4.5 4.5-.5.5-4.5-4.5zm126 5 2.5 2.5-.5.5-2.5-2.5zm-184 15 .5 4.5h-1zm70 0 .5 3.5h-1zm122 2 .5 3.5h-1zm0 7 .5 3.5h-1zm-192 1 .5 4.5h-1zm70 1 .5 3.5h-1zm-297 2 18.5.5-18.5.5zm349 0 .5 3.5h-1zm-363 1 3.5.5-3.5.5zm43 0 3.5.5-3.5.5zm-51 1 2.5.5-2.5.5zm60 0 2.5.5-2.5.5zm380 0 .5 2.5h-1zm-447 1 2.5.5-2.5.5zm383 11 2.5 2.5-.5.5-2.5-2.5zm-121 1 3.5 3.5-.5.5-3.5-3.5zm57 1 .5.5-2.5 2.5-.5-.5zm120 2 .5.5-3.5 3.5-.5-.5zm-52 1 4.5 5.5h-1l-4-5zm-120 1 3.5 3.5-.5.5-3.5-3.5zm46 2-.5 1.5-.5 1.5-.5-1.5zm-374 1q1.5 1-1 2l-2 1q-1.5-1 1-2zm333 1 3.5 2.5-1.5-.5q-3.8-.7-2-2Zm11 5 2.5.5-2.5.5zm136 0 2.5.5-2.5.5zm-128 1q3-.5 3.5 1.5l-1.5-.5q-3 .5-2-1Zm-387 15 .5.5-2.5 2.5-.5-.5zm-5 4 .5.5-2.5 2.5-.5-.5zm277 0 2.5 2.5-.5.5-2.5-2.5zm-283 5 .5.5-7.5 7.5-.5-.5zm289 0 5.5 5.5-.5.5-5.5-5.5zm-301 12 .5.5-7.5 7.5-.5-.5zm316 3 5.5 5.5-.5.5-5.5-5.5zm-326 8 .5.5-2.5 2.5-.5-.5zm334 1 2.5 2.5-.5.5-2.5-2.5zm144 16 9.5.5-9.5.5zm36 12 1.5 2.5q-1 1.5-2-1zm3 5 3.5 3.5-.5.5-3.5-3.5zm-76 4 .5.5-3.5 3.5-.5-.5zm-15 31 .5 5.5h-1zm-1 14 .5 5.5h-1zm118 10 .5 2.5h-1zm-119 1 .5 3.5h-1zm120 4 .5 3.5h-1zm-121 3 .5 2.5h-1zm-43 1 .5 2.5h-1zm-427 2 .5 2.5h-1zm592 1 .5 4.5h-1zm-164 5 .5 2.5h-1zm-429 2 .5 2.5h-1zm594 2 .5 5.5h-1zm-164 7 .5 20.5h-1zm-431 4 .5 17.5h-1zm596 0 .5 3.5h-1zm-134 7 .5 1.5q-1 2.5-2 1zm135 3 .5 4.5h-1zm1 13 .5 11.5h-1zm-149 4 .5.5-11.5 11.5-.5-.5zm-448 1 .5 2.5h-1zm429 0 .5 4.5h-1zm-428 8 .5 2.5h-1zm427 2 .5 2.5h-1zm169 16 .5 11.5h-1zm-1 21 .5 4.5h-1zm-1 10 .5 3.5h-1zm-1 8 .5 2.5h-1zm-1 6 .5 2.5h-1zm-549 38 2.5 2.5-.5.5-2.5-2.5zm4 5 4.5 4.5-.5.5-4.5-4.5zm10 11 6.5 6.5-.5.5-6.5-6.5zm12 11 4.5 4.5-.5.5-4.5-4.5zm7 6 2.5 2.5-.5.5-2.5-2.5zm474 29 .5.5-2.5 2.5-.5-.5zm-4 5 .5.5-3.5 3.5-.5-.5zm-6 7 .5.5-17.5 17.5-.5-.5zm-543 13 .5.5-5.5 5.5-.5-.5zm522 7 .5.5-3.5 3.5-.5-.5zm-6 5 .5.5-2.5 2.5-.5-.5zm-528 9 .5 2.5H0zm0 8 .5 2.5H0zm9 20 3.5 3.5-.5.5-3.5-3.5zm67 20 2.5.5-2.5.5zm24 4 2.5.5-2.5.5zm286 0 2.5.5-2.5.5zm-279 1 2.5.5-2.5.5zm274 0 2.5.5-2.5.5zm-268 1 3.5.5-3.5.5zm263 0 2.5.5-2.5.5zm-255 1 2.5.5-2.5.5zm249 0 2.5.5-2.5.5zm-242 1 3.5.5-3.5.5zm236 0 2.5.5-2.5.5zm-228 1 3.5.5-3.5.5zm222 0 2.5.5-2.5.5zm-213 1 3.5.5-3.5.5zm205 0 3.5.5-3.5.5zm-196 1 3.5.5-3.5.5zm189 0 2.5.5-2.5.5zm-179 1 4.5.5-4.5.5zm170 0 3.5.5-3.5.5zm-159 1 4.5.5-4.5.5zm148 0 4.5.5-4.5.5zm-135 1 5.5.5-5.5.5zm123 0 5.5.5-5.5.5zm-108 1 8.5.5-8.5.5zm92 0 7.5.5-7.5.5zm-69 1 56.5.5-56.5.5z" opacity=".694"/><path fill="#fad694" stroke="#fad694" d="m506.5 33 .5 3.5h-1zm-24 23 5.5.5-5.5.5zm118 0 2.5.5-2.5.5zm6 0 2.5.5-2.5.5zm-429 103 2.5.5-2.5.5zm23 3 2.5.5-2.5.5zm24 35 2.5.5-2.5.5zm4 38 3.5.5-3.5.5zm9 0 2.5.5-2.5.5zm54 10 .5.5-3.5 3.5-.5-.5zm-45 29 2.5 2.5-.5.5-2.5-2.5zm-21 33 4.5.5-4.5.5zm14 29 4.5.5-4.5.5z"/><path fill="#fefefe" stroke="#fefefe" d="M480.5 14h9l3 1q6.8 2.7 10.5 8.5l3 7v10l-2 5-5.5 6.5-9 4h-9l-7-3-6.5-6.5-3-7v-8l3-8 6.5-6.5zM479 27l-6 6q-1 4 1 7l4 3 3 1 6-2 3-4v-5l-2-3-3-3zm119.5-12h13l6 3 4.5 4.5 4 7v11l-2 5-5.5 6.5-7 4h-13l-6-3-4.5-4.5-3-5-1-11 1-1q-.7-4.2 1-6l5.5-6.5zm2.5 12-2 1-4 6q-1 4 1 6l4 3 3 1 6-2 2-2 1-3v-3l-2-4-4-3zM215.5 132l14 2 7.5 2.5-2 10-1 1v4l-3 9-1 8 2.5 1.5 9 1 1.5-4.5v-4l1-1v-4l1-1v-4l1-1 1-10 1.5-3.5h4l1 1 11 2 6.5 2.5-7 34 15.5 5.5q8 4.5 13.5 11.5l6 11 2 6 1 11q-2.3 1.2-1 6l-4 10-11.5 12.5-6.5 4.5 10 7 4 5 3 7q-1 4 1 5v13q-2.2 1.3-1 6l-5 13-13.5 14.5-9 5-9 3h-3l-1 1q-4.7-1.3-6 1h-20l-2.5 1.5-1 7-2 5v4l-1 1v4l-2 5v4l-1.5 2.5-2-1h-5l-1-1h-5l-1-1-5.5-.5 1-10 1-1v-4l2-6v-5l1-1v-5l1-1-3.5-2.5-9-1-7 32-6-1-4-2h-3l-6-2-1.5-1.5 1-1v-5l1-1v-4l1-1v-4l1-1v-4l1-1 1-8-1.5-1.5-7-1-4-2-7-1-4-2-7-1-6.5-2.5 10.5-25.5 17 4 2.5-1.5 2-6v-3l1-1v-3l1-1v-3l1-1v-3l1-1v-3l1-1v-4l1-1 3-15 1-1v-4l1-1v-3l3-9v-4l1-1v-3l3-9v-4l3-9v-7l-6.5-5.5h-3l-5-2h-4l-6.5-2.5 1-1v-4l1-1v-4l1-1 1-8 1.5-2.5h7l1 1 15 1 1 1h6l1 1h7l1.5-1.5v-3l2-5v-4l3-9v-4zm5.5 65-2 2v5l-1 1v5l-1 1v5l-1 1v5l-1 1v6q-2 0-1 4l2 1q3-1 4 1h7l1 1h14l12-4 5-6v-7l-3-7q-5-7-13-11l-9-3zm-12 65-2 3-1 8-1 1v4l-2 5-2 14-1 1v5l2 1 11 2 1 1h5l1 1h12l1-1 7-1 6-3q5-3 7-9v-11l-3-5-4-5-11-6-9-3-9-1-1-1z"/><path fill="#484553" stroke="#484553" d="m486.5 39-.5 1.5-.5 1.5-.5-1.5zm122 0-.5 1.5-.5 1.5-.5-1.5z"/><path fill="#3a3c4c" stroke="#3a3c4c" d="m480.5 28 2.5.5-2.5.5zm-6 9 1.5 2.5h-1zm14 0-.5 1.5-.5 1.5-.5-1.5z"/><path fill="#f8ebcd" stroke="#f8ebcd" d="m602.5 14 6.5.5-6.5.5zm-103 5 2.5 2.5-.5.5-2.5-2.5zm112 14 .5 3.5h-1zm-131 10 2.5.5-2.5.5zm122 0 2.5.5-2.5.5zm1 13 2.5.5-2.5.5zm-302 159 .5 2.5h-1zm0 8 .5 2.5h-1zm-16 95 .5.5-4.5 4.5-.5-.5zm-56 18 9.5.5-9.5.5z"/><path fill="#fae400" stroke="#fae400" d="m618.5 0 2.5 1.5-2.5 1.5zm-152 1 1.5.5-6.5 3.5q-1.5-1 1-2zm117 3q1.5 1-1 2l-1.5-.5zm-79 1 6.5 5.5-1.5.5-5.5-5.5zm-45 1 .5.5-2.5 2.5-1.5.5-3.5 4.5.5-1.5 4.5-5.5zm170 2 3.5 3.5-.5.5-3.5-3.5zm-54 4 .5 1.5-3 2 .5 1.5-1.5.5-.5 1.5-1.5-.5zm59 2 3.5 4.5q-1 2.5-2 1 2-1 0-2l-2-3zm-122 1 2.5 1.5 4 7 2 9h-1l-.5-1.5-1 3-.5-2.5q2-1 1-5h-2l1-3h-2l1-2-3.5-5.5q-2.4-.1-1-1Zm-62 1-.5 1.5-2.5 5.5-.5-1.5z" opacity=".024"/><path fill="#fae400" stroke="#fae400" d="m638.5 20 .5 1.5-1.5.5q-1.5-1 1-2Zm-69 1q2.5 1 1 2l-1.5-.5-.5 1.5-.5-1.5zm-124 5 .5 4.5h-1zm-1 7 .5 5.5h-1zm2 0 .5 3.5h-1zm120 0 .5 3.5h-1zm-48 5q2.3 1.8 1.5 6.5l-1.5 2.5-1.5-2.5h2v-4q-1.7-.7-.5-2.5Zm-303 1 2.5.5-2.5.5zm26 0 2.5.5-2.5.5zm4 0 2.5.5-2.5.5zm-36 1 2.5 1.5-1.5.5q-2.5-1-1-2Zm358 3 .5 3.5h-1zm-120 2-.5 1.5.5 1.5 1.5.5-1 2 2 3q-1 1.5-2-1l-2-6zm-280 2 1.5.5-2 1 .5 1.5q-3-1.5 0-3Zm122 0 2.5 1.5q-1 2.5-2 1l.5-1.5q-2.4-.1-1-1Zm280 3 2.5 3.5q-1 1.5-2-1zm-53 1-.5 1.5-1.5 2.5v-3zm121 0 .5 2.5-7.5 9.5-.5-1.5 4-4-.5-1.5 1.5.5 1-2-.5-1.5 1.5.5zm-485 1 1.5.5-3.5 1.5v-1zm152 0 3.5 1.5-1.5.5-2.5-1.5zm147 2-.5 1.5 2.5 2.5 1.5.5-1.5.5-2.5-1.5-1-2zm121 1 2.5 1.5-2.5.5zm-59 1-.5 1.5-.5 1.5-2.5-.5zm-375 2q1.5 1-1 2l-1.5-.5zm372 2 .5.5-3.5 3.5-.5-.5zm-54 2 3.5 3.5-.5.5-3.5-3.5zm123 1 2.5 2.5-.5.5-2 1 .5-1.5zm-74 2q2.5 1 1 2l-1-1-1.5.5zm118 2q1.5 1-1 2l-2 1q-1.5-1 1-2zm-159 1 4 2 1.5-.5-2.5 1.5-3.5-2.5zm-124 1 2.5 1.5-1.5-.5q-2.4-.1-1-1Zm-227 2 .5.5-2.5 2.5-.5-.5zm357 0 5.5 1.5-3.5.5-2.5-1.5zm140 0 3.5 1.5-2.5.5q-2.5-1-1-2Zm-33 1 1.5 2.5h-2l-.5 1.5-.5-1.5zm-96 1 2 1q1.3-2.2 2.5.5l-1.5-.5-1 1-1-1q-2.4-.1-1-1Zm121 0 7.5.5-7.5.5zm-93 2 1.5 2.5h-3zm-408 4 1.5.5-2.5 1.5q-1.5-1 1-2Zm500 0 .5 1.5q-1.5 3-3 0h2zm-115 4 1 1 1.5-.5-1.5 1.5q-2.5-1-1-2Zm-393 2 1.5.5-2.5 1.5q-1.5-1 1-2Zm394 1 1 1 1.5-.5-1.5 1.5q-2.5-1-1-2Zm1 3 1 1 1.5-.5-1 3h2l-1 3h2l-1 3h2l-1 3h2l-1.5 3.5-5.5-15.5zm-114 5 2.5 1.5-1.5-.5q-2.4-.1-1-1Zm-296 4 .5.5-3.5 3.5-.5-.5zm-6 6 .5.5-4.5 4.5-.5-.5zm316 3 3.5 3.5-.5.5-3.5-3.5zm-323 4 .5 1.5-2.5 2.5-.5-.5zm328 1 2.5 3.5-.5.5-2.5-2.5zm131 8 2.5 1.5-1.5-.5q-2.4-.1-1-1Zm-116 11q2.5 1 1 2l-1.5-.5zm130 2 5.5.5-8.5 1.5v-1zm8 0 4.5.5-4.5.5zm-499 1q2.5 1 1 2l-1.5-.5zm484 0q2.5 1 1 2l-1.5-.5zm22 0q3.8-.7 4.5 1.5l-1.5-.5q-3.3-.7-4 1-1.5-1 1-2Zm-508 3q2.5 1 1 2l-1.5-.5zm367 0q2.5 1 1 2l-1-1-1.5.5zm4 7 2.5 2.5-.5.5-2.5-2.5zm2 4 2.5 2.5-1.5 1.5.5-1.5-2-2zm90 0 .5.5-7.5 7.5-.5-.5zm-470 1-.5 1.5-1.5 2.5.5-1.5zm545 5 6.5 7.5-.5.5-2.5-2.5-.5-1.5-1.5.5 1-1-3-3zm-162 1 2.5.5-2.5.5zm78 2 .5 1.5-4.5 5.5-.5-.5 2-2zm-74 6 2.5.5-2.5.5zm69 2-.5 1.5-1.5 2.5.5-1.5zm-3 5 .5 1.5-1.5 2.5-.5-1.5zm-464 2 1.5.5-2 1-.5 1.5-.5-1.5zm568 0 1.5 2.5-1.5-.5-1.5-.5zm-106 3 .5 1.5-1 2 .5 1.5-1.5-2.5zm-464 2 1.5.5-2.5 1.5q-1.5-1 1-2Zm462 3 1.5 4.5h-3zm113 3 4.5 14.5h-1l-.5-2.5-1.5.5 1-3-1.5-3.5-1.5-.5 1-2-2-1zm-166 2 2.5 1.5-1.5-.5q-2.4-.1-1-1Zm52 2 .5 3.5h-1zm-466 4-.5 1.5-.5 1.5-.5-1.5zm467 1 .5 2.5h-1zm-49 2 1.5 2.5h-1l-.5-1.5-1.5.5zm47 3 .5 7.5h-1zm120 2 .5 2.5h-1zm-166 3 2.5 1.5-.5 1.5-1-2q-2.4-.1-1-1Zm167 1 1.5 8.5h-1q.8-3.2-1-4zm-120 3 .5 2.5h-1zm-470 1-.5 1.5-.5 1.5-.5-1.5zm468 0 .5 7.5 1 2h-1l-.5-1.5-1 5-.5-4.5 1-1zm-42 4 1.5 2.5h-1zm166 2 .5 5.5-1.5 2.5-.5-1.5 1-1zm-595 5 .5 2.5h-1zm431 4q2 .5 1.5 3.5h-1l-.5-2.5-1.5.5zm165 0 1.5 6.5h-1l-.5-1.5-1 2-.5-1.5 1-1zm-596 2 1.5.5-.5 1.5-1-1-1.5.5zm468 2 1.5 4.5h-2q.6 4.1-1.5 5.5l-.5-1.5 1-1zm129 4 .5 5.5h-1zm-164 1 .5 4.5h-1zm-434 1 1.5 2.5h-1zm-1 2 .5 5.5h-1zm466 6 1.5 2.5q-1 1.5-2-1zm-1 3 .5 1.5q-1 2.5-2 1zm-2 5q2.5 1 1 2l-1.5.5.5 1.5-2 1-.5-1.5zm-3 6-.5 1.5-1 2 .5 1.5q-2.7-1.2-.5-2.5zm140 4 .5 2.5h-1zm-143 1v3l-1.5-.5-1.5 3.5-.5-1.5zm145 3 .5 2.5h-1zm-167 1 .5 2.5h-1zm17 3 .5.5-2.5 2.5-.5-.5zm-452 1 .5 2.5h-1zm435 0 .5 2.5h-1zm-433 2 .5 1.5q-1 2.5-2 1zm446 1 .5 1.5-7.5 7.5-.5-.5 1.5-2.5 5.5-4.5zm-447 6 1 3 1.5-.5-.5 1.5-2.5-1.5zm600 1 .5 20.5h-1zm-167 2 .5 1.5q-1.5 3-3 0h2zm169 1 .5 15.5h-1z" opacity=".024"/><path fill="#fae400" stroke="#fae400" d="m447.5 281 .5.5-2.5 2.5-2 1q-1.5-1 1-2zm-434 2 .5 2.5h-1zm1 6 1.5 2.5q-1 1.5-2-1zm5 21 2.5 1.5-1.5.5q-2.5-1-1-2Zm592 6 .5 2.5h-1zm-2 19 1.5 2.5q-1 1.5-2-1zm-569 23 2.5 3.5h-1l-2-3zm3 5 2.5.5q-2.2 1.3.5 2.5l1.5.5q-1.5 3-3 0l-2-3zm556 15 1 1 1.5-.5-1.5 1.5q-2.5-1-1-2Zm-542 3 1.5.5-.5 2.5-1.5-2.5zm541 0 1 1 1.5-.5-1.5 1.5q-2.5-1-1-2Zm0 5q1.5 1-1 2l-1.5-.5zm-5 8 1.5 2.5h-1zm-524 1 2.5 2.5-.5.5-2.5-2.5zm520 8 1.5 2.5h-1zm-511 1 2.5 2.5-.5.5-2.5-2.5zm7 7 2.5 1.5-1.5-.5q-2.4-.1-1-1Zm500 0 1 1 1.5-.5-1.5 1.5q-2.5-1-1-2Zm-1 2q3 1.5 0 3l-1.5-.5 2-1zm-489 6 2.5 1.5-1.5.5q-2.5-1-1-2Zm484 3q2.8 1.3.5 2.5l-2.5 4.5q-2.5-1-1-2l1.5.5 1-2-.5-1.5 1.5-.5zm-5 8 1 1 1.5-.5-1.5 1.5q-2.5-1-1-2Zm-467 1q1.5 1-1 2l-5.5 1.5.5 1.5-3-1v2l-3-1v2l-2.5-1.5zm465 2 1 1 1.5-.5-1.5 1.5q-2.5-1-1-2Zm-2 3 2.5.5-1.5 1.5q-2.5-1-1-2Zm-480 1 2.5 1.5-1.5-.5q-2.4-.1-1-1Zm477 3 1 1 1.5-.5-1.5 1.5q-2.5-1-1-2Zm-15 18-.5 1.5 1 1-7.5 7.5-1-1-2 2-.5-.5zm-534 3 1.5.5-2 1 .5 1.5q-3-1.5 0-3Zm-8 7 .5.5-3.5 3.5-2.5-.5q1.3-2.7 2.5-.5zm-6 5q2.5 1 1 2l-1.5-.5 1 2q-1 1.5-2-1zm530 2q2.5 1 1 2l-1-1-1.5.5zm-6 5 1 1 1.5-.5-2.5 2.5-.5-.5 1-1zm-15 11 1 1 1.5-.5-7.5 5.5q-2.5-1-1-2 1 2 2 0l1.5-.5-.5-1.5q1 2 2 0l1.5-.5zm-11 7q3 1.5 0 3l-1.5-.5 2-1zm-5 3q3 1.5 0 3l-2.5-1.5 1.5.5 1.5-.5zm-495 8 1 2 1.5-.5q-2 1 0 2l-.5 1.5-2.5-3.5zm472 4 2.5 1.5-1.5.5q-2.5-1-1-2Zm-14 6q3 1.5 0 3l-1.5-.5 2-1zm-449 1 3 3 1.5-.5-1 1 .5 1.5-4.5-4.5zm444 1 2.5 1.5-3.5 1.5v-1l1.5-.5zm-8 3 2.5 1.5-3.5 1.5v-1l1.5-.5zm-416 3v2l1.5.5-1.5.5q-3-1.5 0-3Zm17 4 1.5.5-2.5 1.5q-1.5-1 1-2Zm378 0 3.5 1.5-4.5 1.5v-1l1.5-.5zm-336 10 2.5.5-2.5.5zm295 0 2.5 1.5-1.5-.5q-2.4-.1-1-1Zm-5 1 2.5 1.5-1.5-.5q-2.4-.1-1-1Zm-40 6 2.5.5-2.5.5zm14 0 3.5.5-3.5.5zm-186 1 2.5.5-2.5.5zm163 0 2.5.5-2.5.5zm-151 1 2.5.5-2.5.5zm141 0 2.5.5-2.5.5zm-127 1 2.5.5-2.5.5zm114 0 3.5.5-3.5.5zm-97 1 3.5.5-3.5.5zm81 0 3.5.5-3.5.5z" opacity=".024"/><path fill="#faa602" stroke="#faa602" d="m468.5 0 3.5 1.5-1.5.5L468 .5zm5 0 2.5.5-2.5.5zm143 0q1.5 1-1 2l-1.5-.5zm-32 3 2 1 2-1v1l-2 1-2.5-1.5zm-124 2 1 1 1.5-.5-2.5 2.5-.5-.5 1-1zm120 1 1.5 1.5-5.5 5.5-.5-.5 5-5zm46 1 1 1 1.5-.5-1 1 4 4-.5.5-5.5-5.5zm-176 12-.5 1.5-.5 1.5-.5-1.5zm189 4-.5 1.5-.5 1.5-.5-1.5zm-71 1 1.5 2.5h-1l-.5-1.5-1.5.5zm71 3 .5 2.5h-1zm-71 3 .5 10.5h-1zm-50 4 .5 3.5h-1zm2 0 .5 2.5h-1zm-302 5 22.5.5-22.5.5zm-13 1 3.5.5-3.5.5zm44 0 4.5.5-4.5.5zm-52 1 2.5.5-2.5.5zm15 0 7.5.5-7.5.5zm27 0 7.5.5-7.5.5zm20 0 2.5.5-2.5.5zm380 0 .5 2.5h-1zm-449 1 2.5.5-2.5.5zm12 0 3.5.5-3.5.5zm51 0 3.5.5-3.5.5zm12 0 2.5.5-2.5.5zm-70 1 2.5.5-2.5.5zm66 0 2.5.5-2.5.5zm-82 1 2.5.5-2.5.5zm88 0 2.5.5-2.5.5zm9 0 2.5.5-2.5.5zm-101 1 5.5 1.5-2.5.5-3-1zm8 0 2.5.5-2.5.5zm97 0 2.5.5-5.5 1.5v-1zm290 3 1.5 2.5q-1 1.5-2-1zm-276 1 2.5.5-4.5 1.5v-1zm221 0 .5 1.5q-1 2.5-2 1zm-214 2 2.5 1.5q-1 2.5-2 1l.5-1.5q-2.4-.1-1-1Zm-154 3 3.5 1.5-1.5.5-2-1v2q-3-1.5 0-3Zm162 0 2.5 1.5q-1 2.5-2 1l.5-1.5q-2.4-.1-1-1Zm203 1 2.5.5-3.5 1.5q-1.5-1 1-2Zm63 2 2.5 2.5-.5.5-1-1-1.5.5 1-1zm-120 2 4.5 4.5-.5.5-4.5-4.5zm54 0 .5.5-4 4 .5 1.5-1-1-1.5.5zm-186 1q1.5 1-1 2l-1.5-.5zm-208 10 2 1 1.5-.5q-1.2 2.8-2.5.5-2.4-.1-1-1Zm392 0 1.5 3.5h-1l-.5-1.5-1.5.5zm-166 1q1 2 2 0l1.5.5-2.5 1.5q-2.5-1-1-2Zm137 0 3.5.5-3.5.5zm124 0-.5 1.5-.5 1.5-.5-1.5zm2 0 5.5.5-5.5.5zm-495 3q3 1.5 0 3l-2-1v2q-1-2-2 0l-1.5-.5zm240 2 1 1 1.5-.5-1.5 1.5q-2.5-1-1-2Zm161 2 1.5 3.5h-1zm-411 3 1 1 1.5-.5-1.5 1.5q-1-2-2 0l-1.5-.5zm475 0 .5 1.5-3.5 8.5-.5-1.5zm-479 3 1 1 1.5-.5-1.5 1.5q-2.5-1-1-2Zm-4 3 1 1 1.5-.5-2.5 2.5-1-1-1.5.5zm273 0 2.5 2.5-.5.5-2.5-2.5zm234 0 .5 2.5-1.5 3.5-.5-2.5zm-84 2 1.5 3.5h-1l-.5-1.5-1.5.5zm-427 1 1.5 1.5-3.5 3.5v-3q1.3 2.3 2.5-.5zm282 1q1 2 2 0l2.5 2.5-1.5 1.5-3.5-3.5zm-288 5 .5 1.5L68.5 111l-1.5-.5-.5 1.5-.5-1.5q1.3-2.7 2.5-.5L80 98.5l-.5-1.5 1.5.5zm296 0q2.8 1.2.5 2.5l3.5 3.5 1.5-.5-1 1 2.5 2.5q1.3-2.2 2.5.5l-1 1 5 5-.5.5L376 97.5zm144 12 1.5 3.5h-1l-.5-1.5-1.5.5zm43 2 .5 1.5-2.5 5.5-.5-1.5zm-502 5 1 1 1.5-.5-3.5 3.5-.5-.5 2-2zm332 1 1 1 1.5-.5-1 1 .5 1.5-2.5-2.5zm130 0 1.5 3.5h-1q-1.7-1.5-.5-3.5Zm-126 2 1.5 2.5q-1 1.5-2-1zm-339 3 .5.5-2.5 2.5-.5-.5zm340 1 1 1 1.5-.5-.5 1.5 3.5 2.5-.5 1.5 1.5.5-1.5.5-1.5-1.5q2.3-1.3-.5-2.5l-3.5-2.5zm129 5 .5 1.5q-1 2.5-2 1zm-123 3 1 1 1.5-.5-1 1 .5 1.5-2.5-2.5zm3 4 2.5 1.5-1.5.5q-2.5-1-1-2Zm146 2 2.5.5-2.5.5zm-139 9 2.5 1.5-1.5.5q-2.5-1-1-2Zm164 0 .5 1.5q-1.5 3-3 0h2zm-71 2 2.5.5-2.5.5zm1 2 .5.5-7.5 7.5-.5-.5zm69 1 1 1 1.5-.5-1 1 .5 1.5-2.5-2.5zm-158 1v2l1.5.5q-1 2.5-2 1l-1-2zm-385 4q2.8 1.3.5 2.5l-1.5 3.5-.5-1.5 1-1-.5-1.5 1.5-.5zm-4 8q2.5 1 1 2l-1-1-1.5.5zm466 0q1.5 1-1 2l-2.5-.5zm95 4v2l1.5.5q-1 2.5-2 1l-1-2zm-570 17 1.5 3.5h-1l-.5-1.5-.5 2.5 1 2h-1l-1-4zm465 11 .5 5.5h-1zm-48 2 .5 1.5-1.5 2.5-.5-1.5zm165 1-.5 1.5-.5 1.5-.5-1.5zm-587 3 1.5 4.5h-1zm0 6 .5 2.5h-1zm588 1 .5 2.5h-1zm-119 1 .5 2.5h-1zm-45 2 .5 3.5h-1zm-425 2 .5 2.5h-1zm427 1 .5 2.5h-1zm-429 1 1.5 3.5v3h-1zm430 3 .5 3.5h-1zm-1 6 .5 3.5h-1zm-429 2 .5 3.5h-1zm431 0 .5 4.5h-1zm-433 2 .5 3.5h-1zm596 1 .5 2.5h-1zm-164 4 .5 5.5h-1zm-431 2 .5 7.5h-1zm433 1 .5 26.5h-1zm33 0q2.5 1 1 2l-1-1-1.5.5zm130 2 .5 4.5h-1zm-598 2 .5 23.5h-1zm600 1 .5 4.5h-1zm-1 8 .5 3.5h-1zm2 2 .5 4.5h-1zm-168 9 .5 8.5h-1zm-431 1 .5 7.5h-1zm598 0 .5 4.5h-1zm2 4 .5 6.5h-1zm-149 2 .5.5-2.5 2.5-.5-.5zm-452 5 .5 3.5h-1zm433 1 .5 5.5h-1zm-431 1 .5 3.5h-1zm429 2 .5 3.5h-1zm6 4 1 1 1.5-.5-1.5 1.5q-2.5-1-1-2Zm-434 2 .5 2.5h-1zm427 2 1 2 1.5-.5q-1.5 3-3 0zm-426 4 .5 3.5h-1zm1 5 .5 2.5h-1zm-1 4 .5 2.5h-1zm2 1 .5 2.5-1.5 3.5-.5-2.5zm595 6 .5 7.5h-1zm-2 5 .5 6.5h-1zm-587 10 .5 1.5q-1 2.5-2 1zm588 0 .5 5.5h-1zm-2 4 .5 3.5h-1zm1 6 .5 3.5h-1zm-2 3 .5 2.5h-1zm-1 16 .5 2.5h-1zm-567 10 2.5 1.5-1.5-.5q-2.4-.1-1-1Zm565 0 .5 2.5h-1zm-1 4 .5 2.5h-1zm-556 7 2.5 2.5-.5.5-1-1-1.5.5 1-1zm2 4 2.5 1.5q-1 2.5-2 1l.5-1.5q-2.4-.1-1-1Zm3 4 3.5 2.5h-3l.5-1.5q-2.4-.1-1-1Zm5 5 2.5 2.5-1.5 1.5.5-1.5-2-2zm3 6q1 2 2 0l7.5 7.5-.5.5-2-2-1 1-2.5-2.5 1-1-2.5-2.5-1 1q-2.5-1-1-2Zm530 8 1.5 2.5h-1zm-513 7 7.5 7.5-.5.5-1-1-1.5.5 1-1-2.5-2.5-1.5.5 1-1-3-3zm10 9 2.5 2.5-.5.5q-1-2-2 0l-1.5-1.5zm5 4 2.5 2.5-.5.5-2-2-1.5.5zm4 3 2.5 2.5-.5.5-1-1-1.5.5 1-1zm7 5q2.5 1 1 2l-1-1-1.5.5zm3 2q3 1.5 0 3l-2.5-1.5zm6 4 .5 1.5-1.5.5q-1.5-1 1-2Zm-6 1 3.5 1.5-1.5.5-2.5-1.5zm461 6 1.5 1.5-2.5 2.5-.5-.5 2-2zm-518 13 1.5.5-2 1 .5 1.5-3-1v2q-3-1.5 0-3zm507 1-.5 1.5 1 1-3.5 3.5-.5-.5 2-2-1-1zm-513 1v3l-3-1v2q-3-1.5 0-3zm-12 4v3l-3-1v2q-3-1.5 0-3zm504 16 1 1 1.5-.5-1.5 1.5q-1.2-2.2-2.5.5l.5 1.5-1.5-1.5zm-7 6q2.5 1 1 2l-1-1-1.5.5zm-25 18q3 1.5 0 3l-2.5-1.5 1.5.5 1.5-.5zm-498 18 1.5 1.5-1 1 2 2-.5.5-2.5-2.5 1-1zm438 12q1.5 1-1 2l-1.5-.5zm-421 1 2.5.5-2.5.5zm406 4 2.5.5-2.5.5zm-376 3 2.5.5-2.5.5zm15 3 2.5.5-2.5.5zm332 2 2.5.5-2.5.5zm-314 1 2.5.5-2.5.5zm17 1 2.5.5-2.5.5zm14 2 2.5.5-2.5.5zm7 1 2.5.5-2.5.5zm8 1 2.5.5-2.5.5zm-6 1 2.5.5-2.5.5zm15 0 2.5.5-2.5.5zm-7 1 3.5.5-3.5.5zm16 0 2.5.5-2.5.5zm195 0 2.5.5-2.5.5zm12 0 2.5.5-2.5.5zm-214 1 2.5.5-2.5.5zm16 0 3.5.5-3.5.5zm191 0 2.5.5-2.5.5zm-198 1 3.5.5-3.5.5zm18 0 3.5.5-3.5.5zm157 0 2.5.5-2.5.5zm15 0 3.5.5-3.5.5zm-180 1 2.5.5-2.5.5zm20 0 4.5.5-4.5.5zm134 0 3.5.5-3.5.5zm19 0 2.5.5-2.5.5zm-162 1 3.5.5-3.5.5zm23 0 5.5.5-5.5.5zm106 0 4.5.5-4.5.5zm23 0 2.5.5-2.5.5zm-143 1 8.5.5-8.5.5zm32 0 10.5.5-10.5.5zm68 0 8.5.5-8.5.5zm31 0 3.5.5-3.5.5z" opacity=".161"/><path fill="#ab8100" stroke="#ab8100" d="m59.5 119 .5.5-2.5 2.5-.5-.5zm353 19 3.5 4.5q-1 1.5-2-1l-2-3zm-379 20 .5 1.5-2.5 3.5.5-1.5zm3 192 2.5 4.5h-1l-2-4z" opacity=".008"/></svg>