<svg xmlns="http://www.w3.org/2000/svg" viewBox="0 0 564 640"><path stroke="#000" d="M.5 0 276 .5 266.5 3 254 12.5l-5 7-4 11-.5 30.5-4-3-12-5h-16l-12 5-8.5 7.5-6 10-2 6v6q-1.7.8-1 4l1 1v6l4 10 57 82v64l-1.5.5-55.5-32.5-43-91-7.5-8.5-10-6-6-2h-7l-1-1-1 1h-7l-9 3q-8 4.5-13.5 11.5l-4 7-2 6q1 4-1 5v8l1 2-1.5.5-24-14-6-2h-16l-9 3-5 3-9.5 9.5-4 8L.5 172zm288 0L564 .5l-.5 171.5-1.5-6.5-4-8-9.5-9.5-5-3-9-3h-16l-12 5-7 5-12 6-.5-1.5 1-1v-8l-5-15-9.5-10.5-11-6q-3.2.8-4-1h-7l-1-1-1 1h-7l-6 2-6 3-8.5 7.5-3 4-9 18v2l-10 19v2l-19 38v2l-6.5 11.5-36 20-14 9-5 2-.5-64.5 57-82 4-10v-6q1.8-.7 1-4l-1-1v-6l-2-6-3-6-7.5-8.5-4-3-12-5h-16l-6 2-10 6-.5-30.5-4-11L306.5 9l-7-5-8-3h-3z" opacity=".012"/><path stroke="#000" d="m279.5 19 9 1 7.5 5.5 4 8 .5 86.5 31-44 7-4h10l9.5 6.5 2 3 2 9-3 9-59 85v104l.5.5 2-2 31-17 40-24 5-2 12.5-8.5 6-12v-2l10-19v-2l9-17v-2l10-19v-2l10-20 3.5-3.5 6-3h10q6.8 2.3 10.5 7.5l2 4 1 8q-1.8.8-1 4l-22 46 1.5.5 35-21 19-10 7-5 5-2 2-2 6-3h11q6.2 2.3 9.5 7.5l3 7v6l-2 6-6.5 6.5-72.5 41.5 3.5 1.5h11l1 1h12l1 1 22 1 8 3 4.5 4.5 3 6v9l-2 5-6.5 6.5-5 2h-13l-1-1h-11l-1-1h-12l-1-1h-11l-1-1h-12l-1-1h-11l-1-1h-12l-1-1h-11l-1-1h-8L319 319.5l.5 1.5 27 15 7 5 5 2 2 2 5 2 2 2 5 2 14 9 5 2 14 9q3.2 2.3 10 1l1-1h11l1-1h12l1-1h11l1-1h12l1-1h11l1-1 24-1 1-1h13l5 2 6.5 6.5 2 5v9l-3 6-4.5 4.5-8 3-22 1-1 1h-12l-1 1h-11l-3.5 1.5 31.5 17.5 14 9 5 2 14 9 5 2 9.5 8.5 2 6v6l-3 7-5.5 5.5-4 2h-11l-75-43-.5 1.5 22 45 1 8-3 8-4.5 4.5-6 3h-10l-6-3-3.5-3.5-20-41v-2l-9-17v-2l-10-19v-2l-6-12-2.5-2.5-22-12-14-9-5-2-2-2-5-2-14-9-5-2-2-2-5-2-14-9-.5 104.5 59 85 2 4q-.7 4.2 1 6l-1 1-1 7-4.5 5.5-7 4h-10l-8.5-5.5-29.5-42.5-.5 86.5-2 5-4.5 5.5-5 3-9 1-6-2-5.5-4.5-4-8-.5-86.5-31 44-7 4h-10l-9.5-6.5-2-3-2-9 3-9 59-85v-104l-.5-.5-2 2-5 2-7 5-45 25-14 9-5 2-12.5 8.5-6 12v2l-10 19v2l-10 19v2l-9 17v2l-10 20-3.5 3.5-6 3h-10q-6.7-2.2-10.5-7.5l-2-4-1-8q1.8-.7 1-4l5-9v-2l10-19v-2l7-14-1.5-.5-35 21-19 10-7 5-5 2-2 2-6 3h-11q-6.2-2.3-9.5-7.5l-3-7v-7l2-5 6.5-6.5 72.5-41.5-3.5-1.5h-11l-1-1h-12l-1-1-22-1-8-3-4.5-4.5-3-6v-9l2-5 6.5-6.5 5-2h13l1 1h11l1 1h12l1 1h11l1 1h12l1 1h11l1 1h12l1 1h11l1 1h8l88.5-51.5-.5-1.5-20-11-7-5-5-2-2-2-5-2-2-2-5-2-14-9-5-2-2-2-5-2-14-9q-3.2-2.3-10-1l-1 1-24 1-1 1h-11l-1 1h-12l-1 1h-11l-1 1h-12l-1 1h-11l-1 1h-13l-5-2-6.5-6.5-2-5v-9l3-6 4.5-4.5 8-3 22-1 1-1h12l1-1h11l3.5-1.5L75.5 222l-7-5-5-2-2-2-5-2-2-2-5-2-14-9-5-2-9.5-8.5-2-5v-7l3-7 5.5-5.5 4-2h11l75 43 .5-1.5-22-45-1-8 3-8 4.5-4.5 6-3h10l6 3 3.5 3.5 19 39v2l10 19v2l10 19v2l6 12 2.5 2.5 29 16 14 9 5 2 2 2 5 2 14 9 5 2 14 9 .5-104.5-59-85-2-4q.7-4.2-1-6l1-1 1-7 4.5-5.5 7-4h10l8.5 5.5 29.5 42.5.5-86.5 2-5 4.5-5.5 5-3q3.3.8 4-1Z" opacity=".012"/><path stroke="#000" d="m563.5 184 .5 270.5h-1l-1-6-4-8-10.5-10.5-22.5-12.5.5-1.5q10.9-3.1 16.5-11.5l5-9 2-6v-15l-5-12-9.5-10.5-9-5-6-2h-19l-1 1h-11l-1 1h-11l-1 1h-12l-1 1h-12l-1 1h-11l-1 1-26 1-54.5-31.5.5-1.5 54-31h13l1 1h12l1 1h11l1 1h12l1 1h12l1 1 23 1 1 1h19l12-5 10.5-9.5 6-11q-.7-3.2 1-4v-15l-5-12-9.5-10.5-9.5-4.5.5-1.5 23-13 9.5-9.5 4-8zm-563 1 1.5 6.5 4 8 9.5 9.5L39 222.5l-.5 1.5q-10.9 3.1-16.5 11.5l-5 9-2 6v15l5 12 9.5 10.5 9 5 6 2h19l1-1h11l1-1h12l1-1h11l1-1 24-1 1-1 26-1 54.5 31.5-.5 1.5-54 31h-13l-1-1h-12l-1-1h-11l-1-1h-12l-1-1h-11l-1-1-24-1-1-1h-19l-12 5-10.5 9.5-6 11q.8 3.3-1 4v15l5 12 9.5 10.5 9.5 4.5-.5 1.5-22 12-6.5 5.5-4 5-4 8L.5 455zm243 200 1.5.5v64l-57 82-4 10v6q-1.7.8-1 4l1 1v6l2 6 3 6 7.5 8.5 4 3 12 5h16l6-2 10-6 .5 30.5 4 11 8.5 10.5 12 7 6.5 1.5L.5 640 0 468.5h1l1 6 4 8 9.5 9.5 5 3 9 3h16l10-4 2-2 19-10 .5 1.5-1 1v8l5 15 9.5 10.5 6 4 9 3h16l12-5 8.5-7.5 3-4 9-18v-2l29-59v-2l6.5-11.5zm76 0 12 6 7 5 19 10 18.5 11.5 43 91 7.5 8.5 4 3 12 5h16l9-3q8-4.5 13.5-11.5l4-7 2-6q-1-4 1-5v-8l-1-2 1.5-.5 24 14 6 2h16l9-3 5-3 9.5-9.5 4-8 1.5-6.5.5 171.5-275.5.5v-1h3l6-2 12.5-9.5 5-7 4-11 .5-30.5 4 3 12 5h16l12-5 8.5-7.5 6-10 2-6v-6q1.8-.7 1-4l-1-1v-6l-4-10-57-82z" opacity=".012"/><path stroke="#000" d="M276.5 0h11l1 1h3l6 2 12.5 9.5 5 7 4 11 .5 30.5 4-3 12-5h16l12 5 8.5 7.5 6 10 2 6v6q1.8.8 1 4l-1 1v6l-4 10-57 82v64l1.5.5 55.5-32.5 43-91 7.5-8.5 10-6 6-2h7l1-1 1 1h7l9 3q8 4.5 13.5 11.5l4 7 2 6q-1 4 1 5v8l-1 2 1.5.5 24-14 6-2h16l9 3 5 3 9.5 9.5 4 8 1 6 1 1v11l-1 1-1 7-4 8-9.5 9.5-23.5 13.5.5 1.5q10.9 3.1 16.5 11.5l5 9 2 6v15l-5 12-9.5 10.5-9 5-6 2h-19l-1-1h-11l-1-1h-11l-1-1h-12l-1-1h-12l-1-1h-11l-1-1-26-1-54.5 31.5.5 1.5 54 31h13l1-1h12l1-1h11l1-1h12l1-1h12l1-1 23-1 1-1h19l12 5 10.5 9.5 6 11q-.7 3.3 1 4v15l-5 12-9.5 10.5-9.5 4.5.5 1.5 22 12 10.5 10.5 4 8 1 6 1 1v12l-1 1-1 6-4 8-9.5 9.5-5 3-9 3h-16l-10-4-2-2-19-10-.5 1.5 1 1v8l-5 15-9.5 10.5-6 4-9 3h-16l-12-5-8.5-7.5-3-4-9-18v-2l-10-19v-2l-19-38v-2l-6.5-11.5-36-20-14-9-5-2-.5 64.5 57 82 4 10v6q1.8.8 1 4l-1 1v6l-2 6-3 6-7.5 8.5-4 3-12 5h-16l-6-2-10-6-.5 30.5-4 11-8.5 10.5-9 6-6 2q-3.2-.7-4 1h-11l-1-1-6-1-8-4-7.5-6.5-5-7-4-11-.5-30.5-4 3-12 5h-16l-12-5-8.5-7.5-6-10-2-6v-6q-1.7-.7-1-4l1-1v-6l4-10 57-82v-64l-1.5-.5-55.5 32.5-43 91-7.5 8.5-10 6-6 2h-16l-9-3q-8-4.5-13.5-11.5l-4-7-2-6q1-4-1-5v-8l1-2-1.5-.5-24 14-6 2h-16l-9-3-5-3-9.5-9.5-4-8-1-6-1-1v-12l1-1 1-6 4-8 5.5-6.5 5-4L39 417.5l-.5-1.5q-10.9-3.1-16.5-11.5l-5-9-2-6v-15l5-12 9.5-10.5 9-5 6-2h19l1 1h11l1 1h12l1 1h11l1 1 24 1 1 1 26 1 54.5-31.5-.5-1.5-54-31h-13l-1 1h-12l-1 1h-11l-1 1h-12l-1 1h-11l-1 1-24 1-1 1h-19l-12-5-10.5-9.5-6-11q.8-3.2-1-4v-15l5-12 9.5-10.5 9.5-4.5-.5-1.5-23-13-9.5-9.5-4-8-1-6-1-1v-12l1-1 1-6 4-8 9.5-9.5 5-3 9-3h16l12 5 7 5 12 6 .5-1.5-1-1v-8l5-15 9.5-10.5 11-6q3.3.8 4-1h7l1-1 1 1h7l6 2 6 3 8.5 7.5 3 4 9 18v2l29 59v2l6.5 11.5 36 20 14 9 5 2 .5-64.5-57-82-4-10v-6q-1.7-.7-1-4l1-1v-6l2-6 3-6 7.5-8.5 4-3 12-5h16l6 2 10 6 .5-30.5 4-11L257.5 9l9-6 6-2h3zm3.5 19q-1 2-4 1l-5 3-5 6-2 5v86l-30-42-8-6h-10l-7 4-5 6-1 7-1 1q2 1 1 6l2 4 59 85v104l-14-9-5-2-14-9-5-2-2-2-5-2-14-9-29-16-3-2-6-12v-2l-10-19v-2l-10-19v-2l-19-39-3-4-6-3h-10l-6 3-5 5-3 8 1 8 22 45v1l-75-43H32l-4 2-6 6-3 7v7l2 5 10 8 5 2 14 9 5 2 2 2 5 2 2 2 5 2 7 5 24 14-3 1H86l-1 1H73l-1 1-22 1-8 3-5 5-3 6v9l2 5 7 6 5 2h13l1-1h11l1-1h12l1-1h11l1-1h12l1-1h11l1-1 24-1 1-1q6-1 10 1l14 9 5 2 2 2 5 2 14 9 5 2 2 2 5 2 2 2 5 2 7 5 20 11v2l-88 51h-8l-1-1h-11l-1-1h-12l-1-1h-11l-1-1H99l-1-1H87l-1-1H74l-1-1H62l-1-1H48l-5 2-7 7-2 5v9l3 6 5 4 8 3 22 1 1 1h12l1 1h11l3 2-72 41-7 7-2 5v7l3 7q3 5 10 7h11l6-3 2-2 5-2 7-5 19-10 35-21 1 1-7 14v2l-10 19v2l-5 9q1 3-1 4l1 8 2 4q4 5 11 7h10l6-3 3-3 10-20v-2l9-17v-2l10-19v-2l10-19v-2l6-12 13-9 5-2 14-9 45-25 7-5 5-2 2-2v105l-59 85-3 9 2 9 2 3 10 6h10l7-4 31-44v87l4 8 6 4 6 2 9-1 5-3 4-5 2-5 1-87 29 43 9 5h10l7-4 4-5 1-7 1-1q-2-2-1-6l-2-4-59-85 1-105 14 9 5 2 2 2 5 2 14 9 5 2 2 2 5 2 14 9 22 12 2 3 6 12v2l10 19v2l9 17v2l20 41 4 3 6 3h10l6-3 4-4 3-8-1-8-22-45 1-2 75 43h11l4-2 5-5 3-7v-6l-2-6-9-9-5-2-14-9-5-2-14-9-32-17 4-2h11l1-1h12l1-1 22-1 8-3 4-4 3-6v-9l-2-5-6-7-5-2h-13l-1 1-24 1-1 1h-11l-1 1h-12l-1 1h-11l-1 1h-12l-1 1h-11l-1 1q-7 1-10-1l-14-9-5-2-14-9-5-2-2-2-5-2-2-2-5-2-7-5-27-15-1-1 89-52h8l1 1h11l1 1h12l1 1h11l1 1h12l1 1h11l1 1h12l1 1h11l1 1h13l5-2 6-6 2-5v-9l-3-6-4-5-8-3-22-1-1-1h-12l-1-1h-11l-4-1 73-42 6-6 2-6v-6l-3-7q-3-6-9-8h-11l-6 3-2 2-5 2-7 5-19 10-35 21h-2l22-46q-1-4 1-4l-1-8-2-4q-4-6-10-8h-10l-6 3-4 4-10 20v2l-10 19v2l-9 17v2l-10 19v2l-6 12-12 8-5 2-40 24-31 17-2 2h-1V185l59-85 3-9-2-9-2-3-9-7h-10l-7 4-31 44-1-86-4-8-7-6z" opacity=".996"/></svg>