<svg xmlns="http://www.w3.org/2000/svg" viewBox="0 0 640 320"><path stroke="#000" d="M10.5 104h5l5.5 3.5.5 1.5 4 1 2-1q1 2 5 1 .8-1.8 4-1l1 1h42l1 1 2-1 2 1q1-2 2 0h17l1 1 3-1 1 1h34l1 1 3-1 2 1 1-1h8l1 1h25l1 1h10l2 1 3-5h6l1-1h15l2 1q1-2 5-1l1 1h49l1 1h11l1 1 2-1 2 1q1.3-2.2 6-1l1 1h29q1-2 2 0h37q1 2 5 1l2.5-1.5 1.5-3.5 2-1h37l1 1h30l1 1 2-1 1 1h73l1 1 2-1q1 2 2 0h13l2 1 2-1q1 2 2 0 4-1 5 1l3-1 2 1h38l1 1h14l2 1q1.3-2.2 6-1l7-5 4.5 2.5 4 12 1 13 1 1v11l1 1q-2 1 0 2v36l-1 1v6l-1 1v7l-2 3q2 1 0 2l-2 7-4.5 4.5-3-1-5-4h-2l-3-2h-3l-3 1-1-1h-36l-2.5-2.5 1.5-1.5h39l1 1h8q2.4-2.1 1.5-7.5l2-3v-12l1-1v-8l1-1v-15l-1-2q1.8-.7 1-4-2-1-1-5 2-1 0-2 .8-3.2-1-4v-11l-1.5-3.5-.5 6.5 1 2q-2 1 0 2l-1 2 1 2-4 1 3 1-.5 1.5q-5.5 1-8-1l-2 1q-1.2-2.2-2.5.5 1.3 2.8 2.5.5h9l1.5 1.5-16 1 3 1-3.5.5-1.5 1.5 1 2-.5 1.5 8.5.5-9 1 1.5 2.5 1-1h12l3.5 1.5-5.5.5-1-1h-6l-4.5 1.5-1 3 2 1-1 2q2 1 0 2l1.5 2.5 3-1h12q2.5 1 1 2l-19.5.5 10.5.5 3 1 3-1 .5 1.5-18.5.5-3-1-6.5.5.5 1.5 26.5.5-.5 1.5h-22l-3-1-.5 1.5 23 1-1.5 1.5h-17l-1-1h-23l-1-1q-1.2 2.3-6 1l-1-1-13.5-.5-.5-2.5h-17l-1.5-1.5 1.5.5 15.5-.5-3-2q.5-3-1.5-3.5l-7.5-.5q-1.7-1.8-1-6l.5-1.5-3.5-.5-.5-2.5-7.5-.5 5.5-.5 1.5-1.5q-2-1 0-2l-.5-1.5-21.5-.5 20.5-.5 1.5-1.5-.5-3.5h-35l-1-1-48.5-.5 54.5-.5 1 1h30l.5-1.5-46.5-.5q-.7-1.7-4-1-1 2-2 0h-46l-2-1q-1 2-2 0l-3 1-1-1-44.5-.5 4.5-1.5q1 2 2 0l2 1 .5-1.5q-1.2-2.7-2.5-.5l-6.5-.5 1-2-1.5-.5-1.5 2.5v12q-2.2 1.2-1 6l1 3-1 1v6l1 2-1 3v9l1 2q-1.7.7-1 4l2.5.5-.5-1.5.5-1.5q.8 1.8 4 1l.5-1.5-5-1 13.5-.5 1 2 2.5-.5-2-1 15.5-.5v1q-3-.5-3.5 1.5l10.5.5v-1l-4.5-.5 5.5-1.5q1 2 2 0l2 1h69l1 1h37l2 1q.8-1.7 4-1l1 1h21l1 1 1-1 3 1 8.5.5.5 1.5 1-2 34.5-.5-.5-1.5-3 1q-1-2-5-1l-2 1-3-1h-32l-2.5-1.5 17.5-.5 1 1 43.5.5-.5 1.5-9.5.5 10 1-1 1-.5 8.5-17.5.5 17 1-.5 1.5h-29l-2-1-2.5 1.5 31 1-55.5.5q-1-2-2 0l-5.5-1.5.5-1.5-5-1q-1 2-5 1l-1-1h-21l-2-1-2 1-1-1h-72v1h39l1 1 39.5.5-53.5.5-2-1-1 1h-13l-1-1h-33l-2-1q-1 2-5 1l-3-1q-1 2-2 0l-24.5-.5 44-1-40.5-.5-1-1h-7l-.5 7.5 23.5.5 1 1q.8-1.7 4-1l2 1q1-2 2 0h26l2 1 1-1h10q1 2 2 0l3 1 3-1q1 2 2 0l5 1q1-2 2 0h36l1 1h56l1.5 1.5-1.5 2.5h-30l-1-1h-35q-1-2-5-1-.7 1.8-4 1l-1-1h-78l-2-1-1 1h-13q-1-2-5-1-1 2-2 0-7 1.5-8.5-2.5l-1.5-7.5h-43l-2-1q-1 2-2 0h-24l-1-1-2 1-3-1-2 1-1-1h-32l-1-1-3 1-1-1h-50q-1.2-2.2-6-1l-7.5-4.5-.5-1.5-2 1h-14l-3-1-5 1-1-1h-19l-2-1-2 1-1-1h-52l-1-1-37-1-2-1q-.7 1.8-4 1l-1-1h-26l-6 6h-6L5 182.5l-1-6-2-3 1-3-2-6v-8l-1-1v-16l1-1v-11l1-1v-7l3-8-1-1 3-3 1.5-2.5zm1.5 3q-2 2 0 3v1l-3-1-3 4-1 8 3 2q1 4-1 6v9l-1 1v7l-1 1-1-3-2 1v14l1 1v8q2 0 1 5l3 5 2-1 4 7h1l-1-1-1-6q-2-1 0-2l-1-1q1-5-1-5v-7l-1-1v-13q-2-1 0-2l-1-2 1-1v-10l1-1v-7l1-1v-7l4-8v-2zm372 4-1 7-1 2h8v-1l8-2-10-1 5-1 3-1 1 1h32q1 2 2 0l2 1-3 1h-21l-1 1-13 1 1 1h34l-2-1 4-1v2h6l1 1h6l1-1 1 1h36q1 2 2 0h8l1 1 4-1-4-1v-1l29 1-24 1 3 1h7l1-1h13l2 1v-1l2-1-1 2h11l1 1 1-1h39l-2-1 8-1-6-1-1-1h-6q-1 2-4 1t-1-2h13l1 1 2-1 2 1h23l3-1v2l-12 1h16l2 1v2h3l-1-1 2-1 1 5h1v-6l-2-3v-2l-55-1-1-1q-4-1-4 1-5 1-5-1l-2 1q-7 1-9-1-1 2-2 0l-3 1h-6l-1-1h-8l-1 1-2-1h-30l-1-1-2 1q-1-2-2 0l-2-1-2 1-3-1h-43l-1-1-2 1-2-1zm-178 1-2 1-3 3v2l-2 3q1 3-1 4v6l-1 1v6l-1 1v24l1 1v10l1 1 1 12 3 1h41l1 1 2-1 2 1h32l1 1 2-1 3 1 3-1 1 1h28q1 2 2 0l1 1h52l3 1v-7l1-1q-2-1-1-4 2-1 0-2l1-2-1-3 1-3q1-4-1-4l1-2v-24l-1-1q2-3 1-9l1-1-1-2v-12q-5-1-5 1h-44l-1-1q-4-1-4 1l-1-1h-25l-1-1-2 1h-7l-1-1-2 1-3-1h-26l-3-1-2 1-2-1-3 1-1-1h-35zm-183 1-2 2q1 3-1 4l1 3v-1l6-1-4-1-1-1 6-1q1 2 2 0l-6-1v-1l30 2-24 1h34l1 1h34l1 1h19l-7-1q-1-2-2 0l-15-1v-1h19l1 1h8l1-1 1 1 21 1-26 1h21q0 2 4 1v1q-4 1-4-1h-8l-2 2h9l1 1h8l1-1 3 1v-1l-6-1-1-1h2l2-1 1 1h21q1 2 5 1 1-2 2 0l3-1 1 1h11q1 0 1-3l1-2h-9q-1 2-4 1-1-2-2 0l-2-1h-41l-1-1-2 1q-4 1-4-1h-25l-1-1-20 1q1 3 8 1v1H81l3-1v-1l-7-1-1-1q-4-1-4 1l-2-1H27q-1-2-4-1Zm606 0q-2 2-5 3l1 3v8l2 2h1l-1-5 5-2 1 4 1 15 1 1-1 2h-1l-2 2v3l-2-4 2-3h-1l-2-4v-8l-2 1 1 3v14l1 1v32l-1 1v10l-1 1-1 12-2 2 1 1q3-2 4-8 1 2 6 1l1-3-2-3h2l1-2v-7l1-1-1-2 1-1v-12l1-1-1-3 1-2-1-1v-16l-1-1q-1-4 1-4l-1-1v-7l-2-6v-5l-2-6-1-1zm-229 3v1h8zm-371 3q-2 1 1 2 1-2 2 0l2-1zm7 0-1 2h18q1-2 2 0l1-1zm24 0-1 2h2v-1zm529 0v1h4zm-574 1q-4 1-3 6l-1 3 1 2-1 1v7h3v-1l-1-1-1-1 2-1v2h2v-6l1-1-1-9zm53 0-1 2 2-1q3-1 4 1l2-1 7 1v-1zm16 0q-2 1 2 2v-1zm4 0q-2 1 1 2h4q-1-3-2-1zm-64 1-1 2h2v-1zm71 0v1h14zm16 0v1l4 1v-1zm6 0q-2 1 1 2v-1zm4 0v2h8v-2l-2 1q-2-2-6-1Zm262 0v12-10l1-1zm197 0v1h3zm5 0v1l4 1v-1h-1zm13 0-1 2h2v-1zm6 0-1 2h4v-1l-1-1q-1 2-2 0Zm10 0q-3 1-1 2h1zm-594 1-2 4-1 14-1 1 1 2q-2 1 1 3l-2 1 1 13q2 1 0 2l3 15q1 2 3 0 6-1 9 1 1-2 2 0 4 1 6-1l1 1h8l2-4v4h9l1 1h43l1 1h32l1 1h37l1 1h14l1 1h3q1-5-1-6v-12l-1-1v-22l1-1v-6l-2 1 1 2-18 1h14q1 2 2 0l1 1v1h-16l-3-1q-1 2-2 0l-1 2h15v1h-24l4-2q0 2 4 1v-1l-17-1q-1-2-2 0l-3-1-4 1q-1-2-2 0l-1-1h-34l-1-1-2 1q-1-2-2 0l-2-1-3 2h30l1 1q4 1 6-1l3 1 21 1h-53v2H89l-1-1 12-1q1 2 2 0l-19-1-1-1H53l-1-1H20q-2-1 1-2h10l1 1h7l-3-1 5-2q1 2 2 0l1 2-2 1h15q1 2 2 0l2 1h34l-21-1-3-1-2 1-1-1H46l-1-1 2-1q1 2 2 0l2 1 3-1 2 1h6v-2q-4-1-4 1l-2-1H35l-2-1-1 2 2 1H20l-1-1 9-1-7-1-2-1q-1-5 1-5zm135 0q-2 1 2 2v-1zm5 0-1 2h2v-1zm3 0q-2 1 1 2v-1zm-61 1-2 2h3v-1zm64 0q-1 2 2 1 1 2 2 0 3-1 4 1v-1zm10 0-1 2h2v-1zm3 0q-2 1 1 2l2-1zm7 0q-2 1 2 2v-1zm4 0v1l3 1v6l-1 1 1 2 1-2q-1-6 1-8zm383 4q-2 1 2 2v-1zm4 3-1 2h2q1-1-1-2Zm-511 1-1 2h2v-1zm516 2-4 2-6 1 1 2 1-1h18v-1l-7-3zm-447 1-1 2q1 1 2-1zm10 0-1 2q1 1 2-1zm409 0-1 2h2v-1zm-489 1v1h2zm4 0v1h3zm5 0v1h5zm14 0-2 2h7v-1zm9 0-1 2h2v-1zm4 0q-3 1-1 2h5q-1-3-4-2Zm8 0-3 2 1 1 2-1zm427 0v1h6zm12 0v1h3zm9 0-1 2h2v-1zm4 0q-3 1-1 2h3zm34 0-2 2h9q1-1-1-2l-2 1zm-482 1q-2 1 1 2h14v-1zm19 0v2h14l-7-1-3-1-1 1zm322 0-1 2h2v-1zm-305 1v1h7zm9 0-1 1 3 1h5v-2l-2 1zm10 0-2 2h4v-1zm4 0-1 2h2v-1zm360 0-2 2h12v-1l-2-1q-1 2-2 0l-3 1zm13 0-2 2h4q1 2 2 0zm-150 1-1 2h2v-1zm9 0-1 2h3v-1zm4 0v2h10l-1-2zm13 0-1 2h3v-1zm8 0v2h3q0-2-3-2Zm122 0v1l3 1v-1zm13 0-1 2h5v-1zm7 0q-3 2 0 3l1-2zm35 0-1 2q1 2 3 0l1 1h11v-1l-11-1zm-170 1-1 2h2v-1zm4 0v2q4 1 5-1zm8 0-1 2h7v-1zm8 0-1 2q1 1 2-1zm3 0q-2 1 1 2v-1zm8 0-1 2h4v-1zm12 0q-3 1-1 2h9l-1-1q-1-2-2 0zm95 0v2q3 1 3-1zm6 0-1 2h6v-1zm8 0-1 2h15v-1zm-96 1v1h4zm10 0v1h4zm9 0v1q3-1 4 1h3q-2-3-7-2Zm9 0v2l3-1zm6 0v2h10l-2-2q-1 2-2 0l-2 1zm29 0-2 1-4 5v9h2l1 2q5 1 7-1 1-4-1-5l-2 3h-1l-3-3q2-2 1-6l4-1v2h2v-4zm-13 1-1 2-3 1-2 5q1 3 7 2l2 4-4 3-2-1-3 2 4 2 5-1 3-4-2-6-5-2-2-1 4-3 4 1v-1l-3-3zm24 1-2 1q-5 2-3 10l3 1 2 3 5-1 2-3q-1-4 1-4l-2-3v-2q-2-3-6-2Zm50 0q-2 1 2 2v-1zm-36 1-2 2q2 1 0 2 2 2 1 9l2 1q4 1 7-1l1-2v-10l-2-1-1 10q0 2-3 1l-2-3v-7zm13 0-1 2 5 1 1 5q1 3-1 5-1 4 1 6h2v-4l1-1q-2-3-1-9l6-2v-1l-1-2zm-28 16q-2 2-6 1l-1 1h-5q-2 3-6 2l-4 3 1 2 6-2q1-2 2 0l3-2h3l-2 1-2 2v8l5 3q1-2 6-1l2-3q0-8-5-10l1-2 2 1 3-1h7l1 1 12 1 2 1q1 2 2 0l7 4v2h2v-4l-9-6-12-1-1-1-3 1-2-1zm-551 1-1 3h1zm-1 3q-3 1-1 3l-1 3 3 2h-2l1 3 2-1v-2l2-1-1-5zm561 0-2 2 1 3 3 2-4 5 1 1 5-3 3 1 3 4h2v-2l-4-4 3-4v-2q-4-1-4 1h-2zm-185 19v1h3zm12 0v2h3q-1-2-3-2Zm6 0-2 2h3q1-1-1-2Zm17 1v1h7zm11 0v1h4zm10 0q-1 2 3 2v-1zm5 0-1 2h4v-1zm6 0-1 2h5v-1zm8 0-1 2h4v-1zm5 0-1 2h2v-1zm6 0-2 2h4v-1zm6 0-1 2h2v-1zm9 0q-3 1-1 2h1zm121 0-1 2h2v-1zm-115 1v2q2 1 3-1zm6 0q-1 3 6 2v-1zm8 0q-2 1 1 2 1-2 2 0l2-1zm9 0q-2 1 1 2l1-1zm14 1v1h9zm12 0q-1 2 2 1 1 2 2 0zm13 0v2h4zm8 1v1h2zm22 0-1 2h6v-1zm8 0-1 2h4v-1zm12 0-1 2h3v-1zm12 0-1 2h2v-1zm-239 1-1 2h2v-1zm0 3v2h6zm131 0-1 2q1 1 2-1zm-120 1v1h2zm13 0v1h2zm7 0-1 2h2v-1zm10 0v2h3q0-2-3-2Zm6 0-1 2h2v-1zm5 0-1 2h2v-1zm3 0-1 2h2v-1zm3 0-1 2h2v-1zm21 1v2l2-1zm7 0q-2 1 1 2v-1zm3 0-1 2h4v-1zm6 0v2q3 0 3-1zm14 0q-2 1 2 2v-1zm4 0-1 2h2v-1zm4 0-1 2h3v-1zm6 1v1h8zm13 0v1h6zm20 0v2h2zm8 0-2 2h4v-1zm5 0-2 2h4v-1zm5 0q-3 1-1 2h1zm-117 1v2l2-1zm122 0-1 2h2v-1zm6 0-1 2h3v-1zm4 0-1 2h5v-1l-2-1q-1 2-2 0Zm6 0-1 2h3v-1zm4 0-1 2h6v-1zm8 0-1 2h2q1-1-1-2Zm5 0-1 2 4 1v-1zm-151 1v1h3zm156 0q-2 1 1 2l2-1zm-40 2v1h10zm13 0-2 2h2q1-2 2 0l1-1zm5 0v2l1-1h7zm53 5-1 3h1zm1 3-1 2q1 1 2-1zm3 0q-3 1-1 2h1z" opacity=".945"/><path stroke="#000" d="m55.5 116 5.5.5-5.5.5zm380 0 10.5.5-3 1 26 1-31.5.5v-1l2.5-.5-4.5-.5z" opacity=".945"/><path stroke="#000" d="m448.5 116 15.5.5-15.5.5zm17 0 2.5.5-2.5.5zm4 0 6.5.5-6.5.5zm-260 1 18.5.5-4 1 1.5 3.5 2-1 1 1h26v-1l-19.5-.5 27.5-.5v1l-5.5.5 4.5 1.5 4-2 1 2h26l2 1 2-1 1 1h15l.5-1.5-20-1 36-1-2-1 14.5-.5v1l-6.5.5 9.5.5 1.5 1.5-.5 1.5q4-1 5 1 2.5-1 1-2l-1.5-.5 25.5-.5v1l-3.5.5.5 1.5 2-1v1l-1.5.5.5 1.5q1.3-2.2 2.5.5v7l-1.5 3.5-3-1q-1 2-2 0-5.4-.9-7.5 1.5l6.5 1.5 3-1q3-.5 3.5 1.5l-13.5.5-1-1h-29l-.5 1.5 30.5.5 2 1q1-2 2 0l7.5.5-7.5.5q-1-2-2 0l-2-1h-60l-1-1h-22l-.5 1.5 34.5.5 1 1 4.5.5-6.5.5-1-1h-32l-1-1-1.5.5 1-2-6.5-.5-1-1-1.5.5 3-2-7.5-.5-1-1-1 1-4.5.5 6 1-49.5.5-1-1h-8q-1 2-2 0l-4.5-.5 3-1-.5-1.5-1.5-.5 2-1-2-1q-.7-3.2 1-4v-6l1.5-3.5h13l2 1q2.5-1 1-2l-10.5-.5 15-1-12.5-.5zm10.5 3q-2 1 1 2l1-1 2 1v-1zm112 0v1h2zm-129 2-1 2h2v-1zm112 0-1 2h16v-1zm17 0-1 2h5v-1zm6 0-1 2h3v-1zm5 0-1 2h2q1-1-1-2Zm12 1q-2 1 1 1 1 2 2 0zm11 0q-2 1 1 2l1-1zm4 0-1 2h2v-1zm-95 13-1 2h4v-1zm-70 1-2 1v1h11l-3-2zm93 0v1h2zm53 0-1 2h2v-1zm4 0q-3 1-1 2h1zm5 0-2 2h3q1-1-1-2Zm-141 1-1 2h2v-1zm3 0q-2 1 1 2v-1zm4 0-1 2h2v-1zm4 0q-3 1-1 2h10l-1-2zm11 0-1 2h16v-1l-2-1q-1 2-2 0-5-1-5 1-2-2-6-1Zm32 1-1 2h7v-1zm8 0q-2 1 1 2h8l3-1-3-1q-1 2-2 0l-3 1q-1-2-4-1Zm13 1v1h10zm12 0v1h7l1 1 8-1zm21 0v2h3z" opacity=".945"/><path stroke="#000" d="m241.5 117 .5 1.5-1.5.5q-1.5-1 1-2Zm258 0 2.5.5-2.5.5zm8 0 4.5.5-4.5.5zm15 0 4.5.5-4.5.5zm7 0 4.5.5-4.5.5zm6 0 20.5.5-20.5.5zm22 0 4.5.5-2.5 1.5-2.5-1.5zm-309 1 10.5.5-10.5.5zm13 0 3.5.5-3.5.5zm16 0 17.5.5-17.5.5zm196 0 4.5.5-4.5.5zm139 0 3.5.5-3.5.5zm-456 1 23.5.5-23.5.5zm30 0 3.5.5-6.5 1.5v-1zm17 0 2.5.5-2.5.5zm23 0 3 1 1.5-.5q-1.2 2.8-2.5.5-3 .5-2-1Zm94 0 4.5.5-4.5.5zm225 0 2 1 17.5.5-22.5.5v-1zm-179 1 6.5.5-6.5.5zm202 0 4.5.5-4.5.5zm-549 20 35.5 1.5-12.5.5-1 1-1-1h-18l-3-1zm39 1 2 1q1.3-2.2 2.5.5l-5.5.5q-1.5-1 1-2Zm6 1 18.5.5-18.5.5zm20 0 1.5.5-.5 1.5q-2.5-1-1-2Zm118 0h13l1 1 54.5.5-54.5.5-1-1h-13zm182 0 10.5 1.5-7.5.5-3-1zm-361 1h8l1.5 1.5-8.5.5q-2.5-1-1-2Zm81 0 3.5.5-2.5 1.5q-2.5-1-1-2Zm5 0h20l1 1 4.5.5-25.5.5zm287 0 35.5.5-.5 1.5-1-1h-34zm37 0 2.5 1.5-1.5-.5q-2.4-.1-1-1Zm-396 1 19.5.5-19.5.5zm27 0 2.5.5-2.5.5zm72 0 19.5.5-19.5.5zm21 0q4.8-.7 6.5 1.5l-1.5.5q-1-2-5-1zm115 0 2.5.5-2.5.5z" opacity=".945"/><path stroke="#000" d="M68.5 145h28l1 1q1-2 2 0l3-1 1 1h27l1 1 23.5.5-40.5.5-1-1h-21l-1-1-2 1-2-1q-1 2-2 0h-17zm97 0 23.5.5-23.5.5zm36 0 4.5.5-4.5.5zm118 0 34.5.5-34.5.5zm36 0 3.5.5-3.5 1.5zm36 0 1 1 51.5.5-58.5.5v-1q4.7 1.2 6-1Zm-366 1 7 1 2-1 1 1 18.5.5-25.5.5-3-1zm194 0 13.5.5-13.5.5zm30 0 6.5.5-6.5.5zm9 0 7.5.5-7.5.5zm10 0 3.5.5-3.5.5zm92 0 8.5.5-8.5.5zm86 0 3 1 2-1q.8 1.8 4 1 1-2 2 0l38.5.5-4.5 1.5-1-1h-38l-1-1q-.7 1.8-4 1-2.5-1-1-2Zm120 0 3.5.5q1.3 5.3-1.5 6.5l-3.5-.5q-1.2-5.2 1.5-6.5Zm66 0 1.5.5-1.5 3.5zm-577 1 2.5.5-2.5.5zm107 0 2.5 1.5-.5 1.5 4.5.5-.5 1.5h-2l-3-2-2 1v-1l1.5-.5zm123 0 17.5.5-17.5.5zm213 0 1.5.5-.5 1.5q-2.5-1-1-2Zm4 0 4 1q1-2 2 0l21.5.5-27.5.5zm-435 1 7.5.5-7.5.5zm9 0 30.5.5-.5 1.5h-14l-1-1h-6q-1 2-2 0h-7zm91 0 16.5.5-16.5.5zm151 0 5.5.5-5.5.5zm8 0 13.5.5-13.5.5zm18 0 2.5.5-2.5.5zm-317 1 8.5.5-8.5.5zm89 0 9.5.5-9.5.5zm11 0 2.5.5-2.5.5zm116 0 3.5.5-3.5.5zm5 0 12.5.5-12.5.5zm154 0 2.5.5-2.5.5zm12 0 15.5.5-15.5.5zm17 0h28l1.5 1.5-1.5.5-1-1h-27zm179 0h9l1.5 1.5-1.5-.5-1 1-8-1zm-563 1 14.5.5-14.5.5zm17 0 3.5.5-3.5.5z" opacity=".945"/><path stroke="#000" d="M74.5 150h8l1 1h25l1 1 18.5.5-30.5.5-3-1h-18l-1-1-1.5.5zm76 0 8.5.5-8.5.5zm20 0q2.5 1 1 2l-1.5-.5zm6 0 4.5.5-.5 1.5q-4.6.8-4-2Zm100 0 4.5.5-4.5.5zm6 0 12.5.5-12.5.5zm19 0 2.5.5-2.5.5zm161 0h40l1 1 1.5-.5-2.5 1.5-1-1h-39zm172 0 .5 7.5h-1zm-431 1 6.5.5-6.5.5zm17 0 4.5.5-4.5.5zm98 0 15.5.5-15.5.5zm38 0 2.5.5-1.5 1.5q-2.5-1-1-2Zm4 0 7.5.5-7.5.5zm28 0 13.5.5-13.5.5zm-365 1 15.5.5-15.5.5zm214 0 2.5.5-2.5.5zm8 0 11.5.5-11.5.5zm168 0 2.5.5-2.5.5zm5 0 2.5.5-2.5.5zm4 0 22.5.5-22.5.5zm24 0 5.5.5-5.5.5zm17 0q2.5 1 1 2l-1.5-.5zm143 0h12l2.5 1.5-4.5.5-1-1h-9zm-557 1 4.5.5-4.5.5zm7 0 5.5.5-5.5.5zm8 0 4.5.5-4.5.5z" opacity=".945"/><path stroke="#000" d="M74.5 153q3.3-.7 4 1h29l1 1q1-2 2 0l6.5.5-14.5.5-2-1-2 1-1-1h-21l-2.5-1.5zm74 0 12.5.5-12.5.5zm15 0 2.5.5-2.5.5zm8 0q1 2 2 0h4l4.5 1.5-4.5.5-1-1-3 1-2.5-.5zm107 0 6.5.5-6.5.5zm9 0 4.5.5-4.5.5zm183 0 25.5.5-25.5.5zm27 0 3.5.5-3.5.5zm-291 1 9.5.5-9.5.5zm105 0 6.5.5-6.5.5zm8 0 6.5.5-6.5.5zm8 0 3.5.5-3.5.5zm32 0 4.5.5-4.5.5zm26 0 10.5.5-6.5.5-2 1-2.5-1.5zm14 0q4.8-.7 6.5 1.5l-2.5.5q-.7-1.7-4-1l-1.5.5zm16 0q2.5 1 1 2l-4.5-.5zm98 0 4.5.5-4.5.5zm6 0 3.5.5-3.5.5zm5 0 4.5.5-4.5.5zm-504 1 15.5.5-15.5.5zm104 0 7.5.5-7.5.5zm112 0 4.5.5q-1.3 2.8-2.5.5-3 .5-2-1Zm6 0 12.5.5-12.5.5zm177 0 10.5.5-10.5.5zm12 0 20.5.5-20.5.5zm183 0q4.1-.6 5.5 1.5l-2.5.5-3-1z" opacity=".945"/><path stroke="#000" d="M51.5 156h27l2 1q1-2 2 0h25l1 1 24.5.5-37.5.5q-1-2-2 0l-3-1q-1 2-2 0l-37-1zm99 0 8.5.5-8.5.5zm13 0h15l2.5 1.5-8.5.5-1-1h-8zm112 0 2.5.5-2.5.5zm5 0 8.5.5-8.5.5zm190 0 2.5.5-2.5.5zm4 0 3.5.5-3.5.5zm5 0 3.5.5-3.5.5zm8 0 7.5.5-7.5.5zm11 0 5.5.5-5.5.5zm14 0 2.5.5-2.5.5zm-310 1 13.5.5-13.5.5zm104 0 13.5.5-13.5.5zm46 0 12.5.5-12.5.5zm14 0 2.5.5-2.5.5zm22 0 9.5.5-9.5.5zm11 0 2.5.5-2.5.5zm118 0 4.5.5-4.5.5zm-495 1 17.5.5-17.5.5zm220 0 3.5.5-3.5.5zm6 0 3.5.5-3.5.5zm172 0 6.5.5-6.5.5zm8 0 11.5.5-11.5.5zm18 0 3.5.5-3.5.5z" opacity=".945"/><path stroke="#000" d="M43.5 159h41l1 1 19.5.5-1 2 24.5.5 2 1 2-1 2 1q1-2 2 0h23l2 1 2-1 1 1h19l.5-1.5-35-1 41.5-.5q1.5 1-1 2l-2.5.5 4 1-1.5 1.5-6.5.5 2 1 .5 1.5q3.3-.7 4 1l.5-1.5-.5-1.5 1.5.5-.5 3.5-1.5.5 2 1-21.5.5q-1-2-2 0l-2-1q-1 2-2 0l-4.5.5 2.5 1.5 24.5.5-27.5.5-1-1-46.5-.5 45-1-20.5-.5-1-1h-29l-1-1-4.5-.5.5-1.5-1.5.5-.5 1.5h-29l-2-1-4.5 1.5 14.5.5 2 1 2-1 1 1 22.5.5-2.5 1.5-1-1h-20l-1-1-2 1-1-1h-41q-1-2-5-1l-2 1-1-1-7.5-.5q1.5-3 7.5-1.5l2 1 2.5-1.5-13-1-1-3 6-1-6-1 27.5-.5 1.5.5-.5-1.5-27.5-.5 1.5-1.5h9q.8 1.8 4 1 1-2 2 0l13.5.5-.5 1.5 2 1h11v-1h-10l-1.5-1.5 5.5-.5 1 1 9.5.5-2 1 5.5.5 1 1h18l.5-1.5-21-1 18-1-18.5-.5-1-1h-24zm45.5 2v1h2zm3 2-1 2 4 1h18v-1l-18-1zm-65 1q-2 1 1 2v-1zm88 0-1 2h15l1 1v-1l-5-1q-1-2-2 0l-1-1zm-74 1q-2 1 1 2v-1zm91 0v1h5zm7 0q-2 1 1 2l1-1 2 1 2-1 2 1 2-1zm12 0-1 2 22 1-1 2h2v-2l5-1-20-1-1-1-2 1zm-90 1-1 2q1 1 2-1zm24 0v2h4q-1-3-4-2Zm95 0-1 2h2v-1zm-65 1v2l2-1zm6 0-1 2q1 1 2-1zm-51 1q-2 1 1 2h1zm11 0q-3 1-1 2h1zm63 0v1h3zm32 0-2 2h3q1-1-1-2Zm-141 1-1 2h3v-1zm4 0-1 2 4 1h16l1-1 3 1v-1l-21-1zm70 0-1 2h3v-1zm4 0-1 2h2v-1zm44 2v1h4zm10 0v1h2zm16 0-1 2h4v-1zm-36.5-12 2.5.5-2.5.5zm5 0 6.5.5-6.5.5z" opacity=".945"/><path stroke="#000" d="M160.5 159h23l4.5 1.5-13.5.5q-.7-1.7-4-1-1 2-2 0h-8zm113 0 6.5.5-6.5.5zm9 0 4.5.5-4.5.5zm190 0 3.5.5-3.5.5zm12 0 14.5.5-14.5.5zm-378 1 3 1 2-1q1 2 5 1 1-2 2 0l18.5.5-30.5.5zm94 0 2.5.5-2.5.5zm5 0 9.5.5-9.5.5zm100 0 14.5.5-14.5.5zm47 0 13.5.5-13.5.5zm35 0 18.5.5-18.5.5zm132 0 9.5.5-9.5.5zm-291 1 18.5.5-18.5.5zm201 0 4.5.5-4.5.5zm6 0 10.5.5-10.5.5zm-167 1 5.5.5-5.5.5zm8 0 5.5.5-5.5.5zm7 0 4.5.5-4.5.5zm16 0 2.5.5-1.5 1.5q-2.5-1-1-2Zm5 0 15.5.5-15.5.5zm179 0 7.5.5-7.5.5zm10 0 5.5.5 1 3-4.5.5 1-3q-4 .8-3-1Zm7 0 15.5.5-15.5.5zm117 0 2.5.5-2.5.5zm-418 1 21.5.5-21.5.5zm139 0 2.5.5-2.5.5zm8 0 20.5.5-20.5.5zm22 0 3.5.5-3.5.5zm20 0 8.5.5-8.5.5zm-157 1 30.5.5-30.5.5zm35 0 1 1 32.5.5-34.5.5q-1.5-1 1-2Zm149 0 4.5.5-4.5.5zm13 0 13.5.5-13.5.5zm15 0 5.5.5-5.5.5zm168 0h5l1 1 4.5.5-9.5.5q-2.5-1-1-2Zm-310 1 24.5.5-24.5.5zm164 0 3.5.5-3.5.5zm10 0 2.5.5-2.5.5zm6 0 12.5.5-12.5.5zm20 0 13.5.5-13.5.5zm20 0 6.5.5-.5 1.5-4-1-1 1q-2.5-1-1-2Z" opacity=".945"/><path stroke="#000" d="M201.5 166h35q.8 1.8 4 1 1-2 2 0l33.5.5-2 2 .5.5 8.5-.5-4-2 1.5.5 1-1 1 1 3.5.5-2 1 5.5.5v-1l-2.5-.5 46.5-.5q1 2 5 1 1-2 2 0l34.5.5-4 1 .5 1.5 2.5.5 1 3-1 1 .5 1.5-8.5.5-.5 1.5-1.5-.5.5-1.5-2.5.5 1 2-1.5-.5-5 1-1-1-7.5-.5.5-1.5-2.5.5.5 1.5-49.5.5 5 1-20.5.5v-1l14.5-.5q-.5-2-3.5-1.5-.7 1.8-4 1l-1-1h-29l-1-1q-.8 1.8-4 1l-1-1h-36l-1-1q-1.2 2.3-2.5-.5l.5-1.5-1.5.5-.5 1.5-8.5-.5-.5-1.5-2.5-.5-1-3q2-1 0-2l.5-1.5 3 1h6q2.5-1 1-2h-8zm10.5 1v2q3 1 3-1zm6 0-1 2h4v-1zm11 0v2h5zm7 1v1h18zm21 0v1h2zm10 0v2h4q-1-3-4-2Zm40 1-1 2h6v-1zm8 0-1 2h2v-1zm5 0-1 2h4v-1h-1zm8 0-1 2h2v-1zm37 1-1 1 3 1 2-1zm-87 1-1 2h2q1-1-1-2Zm90 2q-2 1 1 2v-1zm-53 1-1 2h2q1-1-1-2Zm-96 1-1 2h2v-1zm23 1v1h3zm8 0v1h2zm8 0q-2 1 1 2l1-1zm23 1v1h3zm26 0-2 2h9v-1h-1l-1-1-1 1-1-1-1 1zm11 0-2 2h4v-1zm5 0-1 2h2v-1zm5 0-1 2h2v-1zm6 0-1 2h2q1-1-1-2Zm22 1q-2 1 1 2l2-1z" opacity=".945"/><path stroke="#000" d="m336.5 166 38.5.5-38.5.5zm53 0 7.5.5-7.5.5zm14 0 2.5.5-2.5.5zm155 0 2.5.5-2.5 1.5zm-146 1 3.5.5-3.5.5zm7 0 2.5.5-2.5.5zm7 0 11.5.5-11.5.5zm13 0 6.5.5-6.5.5zm35 1 37.5.5-37.5.5zm39 0 9.5.5-9.5.5zm95 0 13.5.5-13.5.5zm-205 2 12.5.5-12.5.5zm15 0 19.5.5-19.5.5zm26 0 2.5.5-2.5.5zm32 0 1 1 40.5.5-40.5.5q-2.5-1-1-2Zm84 0 3.5 1.5-1.5 2.5q-4.5 1-5.5-1.5l.5-1.5zm-109 1 19.5.5-19.5.5zm-67 1 10.5.5-10.5.5zm14 0 2.5.5-2.5.5zm12 0 2.5 1.5-3.5.5q-1.5-1 1-2Zm6 1 22.5.5-22.5.5zm-386 1 9.5.5-9.5.5zm13 0 3.5.5-3.5.5zm421 0 6.5.5-6.5.5zm13 0 9.5.5-9.5.5zm11 0 4.5.5-4.5.5zm13 0 24.5.5-24.5.5zm28 0 2.5.5-3.5 1.5q-1.5-1 1-2Zm-460 1 2.5.5-2.5.5zm7 0 9.5.5-.5 1.5-3-1-2 1q-.7-1.7-4-1zm310 0 6.5.5-6.5.5zm-296 1h30l2 1 3-1 1 1 28.5.5-40.5.5-2-1q-1 2-2 0h-20zm319 0 7.5.5-7.5.5zm9 0 16.5.5-16.5.5zm18 0 5.5.5-5.5.5zm14 0 2.5.5-2.5.5zm4 0h23l1.5 1.5-9.5.5-2-1-1 1h-11q-2.5-1-1-2Zm26 0q2.5 1 1 2l-1.5-.5zm6 0 1 1 30.5.5-32 1 11.5.5 3 1q1-2 2 0h26l1 1 1.5-.5-1.5 1.5q-1-2-2 0l-2-1h-31l-1-1-9.5-.5 1-1-.5-1.5zm-330 1 2.5 1.5-1.5-.5q-2.4-.1-1-1Zm14 1 9.5.5-9.5.5zm13 0 3.5.5-3.5.5zm200 0h20q1.3 2.3 6 1l1.5-.5q-1.5 3-7.5 1.5l-3-1h-17zm150 0 10.5.5-10.5.5zm-331 1 4.5.5-4.5.5zm210 0 36.5.5-36.5.5zm38 0 32.5.5-32.5.5zm-212 1 2.5.5-2.5.5zm9 0 19.5.5-19.5.5zm22 0 3.5.5-3.5.5zm48 1 1 1 31.5.5-34.5.5v-1zm215 0 27.5.5-27.5.5zm-328 1 6.5.5-6.5.5zm19 0 2.5.5-2.5.5zm4 0 2.5.5-2.5.5zm6 0 6.5.5-6.5.5zm118 0 2.5.5-2.5.5zm4 0 10.5.5-10.5.5zm-101 1 2.5.5-2.5.5zm7 0 19.5.5-19.5.5zm36 1 2.5.5-2.5.5zm6 0 5.5.5-5.5.5zm8 0 3.5.5-3.5.5zm-109 1 9.5.5-9.5.5zm13 0 3.5.5-3.5.5zm22 0 10.5.5-10.5.5zm99 0 8.5.5-8.5.5zm10 0 5.5.5-5.5.5zm7 0 3.5.5-3.5.5zm-91 1 4.5.5-4.5.5zm10 0 2.5.5-2.5.5zm4 0 7.5.5-7.5.5zm33 1 10.5.5-10.5.5zm45 0 3 1 2-1v1l-4 1q-2.5-1-1-2Zm277 2 .5 2.5h-1zm-205 9q2.5 1 1 2l-1.5-.5zm4 0 1 1 6.5.5-7.5.5zm108 0 14.5.5-14.5.5zm-99 1 14.5.5-14.5.5zm20 0 6.5.5-.5 1.5q-1-2-5-1l-1.5.5zm19 0 1.5.5q-1 2.5-2 1zm5 1 4.5.5-4.5.5zm14 0 3.5.5-3.5.5zm20 0 2.5.5-2.5.5zm20 0 1.5.5-.5 1.5-1.5-.5zm6 1 2.5.5-2.5.5zm11 0 12.5.5-3.5 1.5-1-1h-8zm22 0q3-.5 3.5 1.5l-7.5.5v-1q3.3.8 4-1Zm5 1 30.5.5q-1.2 2.8-2.5.5-4-1-5 1l-1-1h-22zm32 0 1.5.5-.5 1.5-1.5-.5zm-47 2 3.5 2.5-.5 1.5-3 1q-2-.5-1.5-3.5z" opacity=".945"/><path fill="#898989" stroke="#898989" d="m295.5 118 1 1 10.5.5-4.5.5-1 1-1-1-18.5-.5 12.5-.5zm-252 1 1.5.5-.5 1.5q-2.5-1-1-2Zm192 0 4.5.5-4.5.5zm10 0 2.5.5-2.5.5zm7 0 5.5.5-5.5.5zm56 0 2.5.5-1.5 1.5q-2.5-1-1-2Zm40 0 4.5 1.5-4.5.5zm7 0 2.5.5-2.5.5zm4 0 2.5.5-2.5.5zm10 0 2.5.5-2.5.5zm29 0 28.5.5-28.5.5zm117 1 2.5.5-2.5.5zm-399 1 1.5.5-.5 1.5q-2.5-1-1-2Zm152 1 4.5.5-4.5.5zm16 0 4.5.5-4.5.5zm30 0 15.5.5-.5 1.5-2-1h-13zm68 1 .5 4.5h-1zm253 11 .5 1.5-1.5.5q-1.5-1 1-2Zm-521 2 10 1 1.5-.5q-1.2 2.8-6.5 1.5-1-2-5-1l-1.5.5zm161 0 1.5.5-.5 1.5-1.5-.5zm299 0 7.5.5-7.5.5zm14 0 2.5.5-2.5.5zm39 0 .5 2.5h-1zm-409 2 1.5.5-.5 1.5-1.5-.5zm13 0q4.5-1 5.5 1.5l-2.5.5-2-1-2 1q-1.5-1 1-2Zm10 0 3.5 1.5-3.5.5zm12 0 1.5.5-.5 1.5-1.5-.5zm128 0q2.8 1.3.5 2.5l1 2-1 1-.5 4.5zm23 0 .5 1.5-1.5.5q-1.5-1 1-2Zm6 0q4.5-1 5.5 1.5l-2.5.5-2-1-2 1q-1.5-1 1-2Zm19 0 1.5.5-.5 1.5-2.5-.5zm136 0 2.5 1.5-3.5.5q-1.5-1 1-2Zm33 1 2.5.5-2.5.5zm11 0 2.5.5-2.5.5zm-196 2q1.5 1-1 2l-15.5-.5 15.5-.5zm-119 1 4.5.5-4.5.5zm98 0 2.5.5-2.5.5zm56 0 12.5.5-12.5.5zm21 0q3-.5 3.5 1.5l-1.5-.5-2 1zm14 0 2.5.5-2.5.5zm83 0 2.5.5-2.5.5zm-79 1 15.5.5-15.5.5zm-244 1 2.5.5-2.5.5zm159 0 10.5.5-8.5.5-1 1q-2.5-1-1-2Zm114 0 13.5.5-13.5.5zm113 1 .5 2.5h-1zm-323 2q2.5 1 1 2l-1.5-.5zm3 0 3.5.5-3.5 1.5zm5 0 4.5.5q-.5 2-3.5 1.5-2.5-1-1-2Zm88 0 7.5.5-7.5.5zm108 0 18.5.5-18.5.5zm-246 2 2 1q1-2 2 0l2-1 2 1 3-1 .5 1.5-15.5.5v-1q3.3.8 4-1Zm-8 1 2.5.5-2.5.5zm65 0 2.5.5-2.5.5zm97 0 11.5.5-11.5.5zm13 0 27.5.5-27.5.5zm-174 2q.7 1.8 4 1 1-2 2 0l7.5.5-22.5.5v-1h8zm195 0 5.5.5-5.5.5-1 1h-24v-1h24zm-139 1 3.5.5-3.5.5zm6 0 4.5.5-4.5.5-1 1q-1.5-1 1-2Zm247 0 2.5.5-2.5.5zm-111 2q5.4-.9 7.5 1.5l-7.5.5zm-208 3 .5 1.5-1.5.5q-1.5-1 1-2Zm5 0 2 1 1-1h15q1.5 1-1 2l-17.5-.5zm30 0 1.5.5-2.5 1.5q-1.5-1 1-2Zm177 0h6q.8 1.8 4 1l1-1h16v1q-4.7-1.2-6 1l-3-1q-1 2-2 0l-9 1-2-1-3 1-1-1-1.5.5zm176 0 .5 3.5-1.5 2.5-.5-2.5zm-185 1 5.5.5-5.5.5zm-198 2 17.5.5-17.5.5zm201 0 25.5.5-3.5 1.5-1-1h-13q-1 2-2 0h-6zm27 0 3.5.5q-1.3 2.8-2.5.5-2.4-.1-1-1Zm-304 2 1 1 5.5.5-10.5.5v-1q3.3.8 4-1Zm229 0 9.5.5-9.5.5zm-333 1 10.5.5-10.5.5zm12 0 5.5.5-5.5.5zm11 0 7.5.5-7.5.5zm14 0 3.5.5-3.5.5zm9 0 1.5.5q-1 2.5-2 1zm94 0 15.5.5-15.5.5zm56 0 5.5.5-5.5.5zm7 0 17.5.5-17.5.5zm81 0 11.5.5-11.5.5zm36 0 4.5.5-4.5.5zm242 2 1.5 2.5q-1 1.5-2-1zm-349 1 8.5.5-8.5.5zm57 0 18.5.5-.5 1.5-1-1h-17zm20 0 11.5.5-11.5.5zm-349 2 1.5 1.5-2.5 2.5-.5-1.5 2-1zm294 0q3-.5 3.5 1.5l-1.5.5-2.5-1.5zm88 0 3.5 1.5-6.5.5v-1zm7 0 11.5.5-10.5.5-2 1q-1.5-1 1-2Zm16 0 5.5.5-5.5.5zm-303 3h7l1 1q1-2 5-1l.5 1.5-12.5.5q-2.5-1-1-2Zm282 0q2.5 1 1 2l-5.5-.5zm7 0 1.5.5q-.7 2.3-4.5 1.5v-1zm9 0 3.5.5q-1.2 2.8-2.5.5-2.4-.1-1-1Zm-277 1 7.5.5-7.5.5zm370 2 18.5.5-18.5.5zm-269 3 14.5.5-14.5.5zm176 0 3.5.5-3.5.5zm8 0 25.5.5-25.5.5zm-47 1 1.5 2.5q-1 1.5-2-1zm23 0 1.5.5q-1 2.5-2 1zm5 0 2.5 1.5-1.5.5q-2.5-1-1-2Zm-125 1 3.5.5q-.5 2-3.5 1.5zm45 0 24.5.5-3.5 1.5-1-1h-20zm26 0 1.5.5-.5 1.5q-2.5-1-1-2Zm-66 3 14.5.5-.5 1.5-15.5-.5zm75 0q1.5 1-1 2l-1.5-.5zm88 0 2.5 1.5-2.5.5zm5 0 2.5.5-.5 1.5-2.5-.5zm6 0 2.5.5-.5 1.5-2.5-.5zm8 0 2.5 1.5-2.5.5zm10 0 1.5.5-.5 1.5-1.5-.5zm-236 3 23.5.5-23.5.5zm30 0 2.5.5-2.5.5zm35 0 13.5.5-13.5.5zm255 0 2.5.5-2.5.5zm-269 3 27.5.5-27.5.5zm343 1q2 .5 1.5 3.5l-1.5 2.5-.5-1.5 1-3zm-3 1-.5 1.5-.5 1.5-.5-1.5zm-57 3q2.5 1 1 2l-1.5-.5zm8 0 3.5.5-.5 1.5-3.5-.5z" opacity=".929"/><path fill="#fcfcfc" stroke="#fcfcfc" d="m13.5 108 1.5.5-1.5 2.5zm-5 3 3 1 1.5.5-2 2q2 1 0 2l-1 3v5l-1 1v15q-1.7.8-1 4l1 2-1 1v7l1 1v14l1 1v4l3 9q-1 1.5-2-1l-1-5-1.5-1.5-1.5.5-.5-1.5-1.5-.5q1-6-2-8v-18l-1-2 1.5-.5v2q3 .5 3.5-1.5v-7l1-1v-14l1-1-2-2-1-6zm195 2q4-1 5 1h35l1 1 3-1q1 2 2 0 4-1 5 1h63l2 1q1-2 2 0l4-1 1 1h48l2-1 .5 6.5-3.5.5.5-1.5-.5-1.5h-56l-1-1q-.7 1.8-4 1l-3-1q-1 2-2 0l-3 1-1-1h-38q-1-2-5-1-1 2-2 0h-26l-2-1-2 1-1-1h-20q-2.5 1-1 2l2.5.5-7 1 .5 1.5-1.5.5-1.5 2.5-.5-1.5 2-6zm423 2 1 2 4.5.5q-2 1 0 2l1 3-1.5-.5q-4-1-5 1-2.2-1.7-1.5-6.5z" opacity=".973"/><path fill="#fcfcfc" stroke="#fcfcfc" d="m210.5 118 9.5.5-9.5.5zm14 0 8.5.5-8.5.5zm39 1 13.5.5-13.5.5zm175 0 3.5.5-3.5.5zm-368 1 3.5.5-3.5.5zm8 0 2.5.5-2.5.5zm232 0 2.5.5-2.5.5zm5 0 4.5.5-4.5.5zm9 0 2.5.5-2.5.5zm12 0 6.5.5-6.5.5zm150 0 2.5.5-2.5.5zm17 0 7.5.5-7.5.5zm25 0h6l1 1 5.5.5-5.5.5q-1-2-2 0-4.9.6-5-2Zm-429 1 7.5.5-7.5.5zm144 0 4.5.5-4.5.5zm107 0 4.5.5-4.5.5zm6 0 2.5.5-2.5.5zm6 0 9.5.5-9.5.5zm190 0 16.5.5-16.5.5zm-409 1 3.5.5-3.5.5zm157 0 6.5.5-6.5.5zm76 1 .5 3.5h-1zm-363 2 .5 3.5-1.5.5-.5-2.5zm185 3 .5 6.5 1 1-1.5.5zm-186 2 3.5.5-2.5 3.5-2.5-.5zm569 4q4.1-.6 5.5 1.5l-11.5.5v-1q4.7 1.3 6-1Zm-507 1 3.5.5-3.5.5zm59 2 2.5.5-2.5.5zm64 1 1 2 3.5 1.5-3 1 1.5 1.5 1.5-.5-3 2 9.5.5 1 1q1-2 2 0h37l1 1h6l2-1 1 1 31.5.5-60.5.5q-1-2-5-1-1 2-2 0h-15l-1-1-1 1-6.5.5.5 1.5q.8-1.7 4-1l1 1h38l3 1 2-1 1 1h45l1 1h54l2 1q.8-1.7 4-1l1 1h15q2.5-1 1-2h-31l-1-1-2 1-2-1q-1 2-2 0l-39.5-.5 48.5-.5q1 2 2 0l3 1 2-1q1 2 5 1 1-2 2 0h12l1-1 2 1 .5-1.5-24.5-.5-1.5-1.5 2.5-.5q1 2 2 0l2 1h19l1-1 1.5.5-.5-1.5-15.5-.5 17-1-.5-1.5-9.5-.5 10.5-.5.5 23.5q-2 1 0 2l-.5 3.5-1-1-11.5-.5 12-1-.5-1.5h-31l-2-1-1.5.5q1.3-2.7 6.5-1.5l1 1h23l2.5-1.5-48.5-.5-2-1q-1 2-2 0h-32l-3-1q-1 2-5 1l-1-1h-48l-1-1h-13q-1 2-2 0l-16.5.5.5 1.5 5-1 1 1 44.5.5-51 1 .5 1.5 4.5.5-5 1 3 1-3 1 .5 6.5 1.5.5-2 1 .5 1.5 2.5.5-3 1 1.5 2.5 2 1h17l1 1 3-1 2 1q1-2 2 0l3-1 1 1h23l1 1q1.2-2.2 6-1l3 1q1-2 2 0h51l1 1h15q1-2 2 0l33.5-.5-10-1 13-2-20-1 22.5-.5 1.5 3.5-1 1-.5 6.5-1-1h-16l-1-1h-36l-1-1q-1 2-2 0h-45q-1-2-5-1-1 2-5 1l-1-1h-42l-2-1q-1 2-2 0l-15.5-.5v-3l-2-4v-16l-1-1zm5.5 13v1q3-1 4 1 4 1 6-1l1 1h23l1 1 2-1 3 1 2-1 1 1h43l1 1h60l1 1 3-1 2 1 2-1 1 1h8v-1l-25-1q-1-2-2 0-7 1-10-1l-3 1-1-1-1 1-1-1h-32l-3-1-2 1-2-1h-56l-3-1h-6l-1 1-1-1zm3 3v1l3 1 29 1v1l-1-1h-17q-1 2-2 0l-17 1 2 1h40l1 1h36v-1l-37-1q-1-2-2 0-2-1 1-2t4 1h53l1 1 3-1q1 2 2 0l1 1h39q1 2 2 0l3 1 2-1 1 1h12q1-2 2 0 3 1 3-1l-39-1q-1-2-2 0l-3-1-2 1-1-1h-34l-1-1h-63l-1-1zm163 0q-2 1 1 2v-1zm-169 3-1 2h2q1-1-1-2Zm83 1-2 2h7l1 1h9q1-2 2 0l2-1 2 1h43l1 1 2-1 3 1h15l1-1-43-1-3-1-2 1-1-1h-33q-1-2-4-1Zm-80 26-2 2h28l1 1 2-1q3-1 4 1h39l1 1 2-1 3 1h63l1 1 3-1q1 2 2 0 3 2 10 1v-1l-41-1-1-1h-56l-3-1-3 1-1-1h-35l-1-1-4 1q-1-2-2 0l-1-1zm161 3-3 2h4v-1zm3.5-49 3.5.5-3.5.5zm5 0 3.5.5-.5 1.5-3-1zm10 0 3.5.5-3.5.5zm5 0 3.5.5-3.5.5zm164 0 2.5.5-2.5.5z" opacity=".973"/><path fill="#fcfcfc" stroke="#fcfcfc" d="m249.5 139 2.5.5-2.5.5zm356 0 2.5.5-2.5.5zm-309 1 2.5.5-2.5.5zm182 0 3.5.5-3.5.5zm5 0 2.5.5-2.5.5zm31 0 1.5.5-.5 1.5q-2.5-1-1-2Zm83 0 3.5.5-3.5.5zm38 0 .5 6.5 1 1v33l-1 1-1.5 7.5-5-2-1 3-.5-20.5 1-2-1-2q2-1 0-2l.5-21.5 1 9 2-1-.5 1.5.5 1.5 2.5.5-2 3v3h2l.5 4.5 1.5-.5v-13l-1-1zm-.5 26v4q2 0 1-3zm-426.5-25 3.5.5-3.5.5zm8 0 8.5.5-8.5.5zm122 0 12.5.5-12.5.5zm47 0 2.5.5-2.5.5zm167 0q4.8-.7 6.5 1.5l-1 1 .5 1.5-3-2h-2l-2.5 7.5 3.5 4.5 2.5-1.5.5-1.5 1.5 2.5q-.7 3.3-5.5 2.5l-4.5-3.5q2.3-1.2 1-6-2-1 0-2zm-307 1 7.5.5-7.5.5zm9 0 13.5.5-13.5.5zm163 0 9.5.5-9.5.5zm12 0 5.5.5-5.5.5zm112 0 4.5 1.5-.5 1.5-3-2-3.5 2.5q-.5 3 1.5 3.5h3l3.5 2.5 1 3-4.5 5.5-3 1-3.5-2.5 4.5-.5 4.5-3.5-2.5-3.5q-5.5 1-6.5-2.5v-2zm-262 1 21.5.5-21.5.5zm35 0 18.5.5-18.5.5zm161 0 2.5.5-2.5.5zm4 0 2.5.5-2.5.5zm4 0 2.5.5-2.5.5zm21 0 4.5.5-4.5.5zm10 0h17l1.5 1.5-1.5-.5h-17zm51 0q5.5-1 6.5 2.5l1 3q-2 1-1 5l-1.5 1.5-5 1q-5.2-1.7-3.5-10.5zm1.5 2q-4 1-3 8 1 2 5 1 3-2 2-7-1-3-4-2Zm-360.5-1h30l1 1 1-1 3 1h36l1 1h65l1.5 1.5-2.5.5-3-1h-61l-3-1q-1 2-2 0h-39l-1-1h-27zm176 0 16.5.5-16 1 .5 1.5 18.5.5-17 1 .5 1.5h28l1 1h15q1-2 2 0l31.5.5-49.5.5-3-1q-1 2-2 0l-5 1-1-1h-15l-.5 1.5 27 1q-2.1 2.4-7.5 1.5l-1-1h-7q-1 2-2 0l-12.5.5.5 1.5h37l1 1 4.5.5-5.5.5-1-1h-33l-.5 1.5 1.5-.5 1 1 31.5.5-36 1 4.5.5 1 1h37v-1l-4.5-.5 5.5-1.5q.8 1.8 4 1 .8-1.7 4-1 1 2 2 0l3 1 .5-1.5-6-1 67.5-.5 1 1h8l2-1 1 1 17.5.5-.5 1.5-2-1q-1 2-2 0h-29q-.8-1.7-4-1-1 2-2 0l-34.5.5.5 1.5h39l1 1h16q1-2 2 0l19.5.5-1 2q2.3 1.3-.5 2.5l-5-1-.5 1.5 7 1-43.5.5-1-1-50.5-.5 29-1-.5-1.5-22.5-.5 28.5-.5 1-1 1 1 17.5.5q-1.2 2.8-2.5.5h-12l-1.5 1.5 35.5.5 2 1 3-1 1 1h7q1.5-1-1-2h-27l-1.5-1.5 14.5-.5 2 1q1-2 2 0l3.5-.5-.5-1.5h-21l-2-1q-1 2-2 0l-3 1-1-1h-62v1h12l4.5 1.5-4.5.5-1-1h-12q-2.5 1-1 2h9l3 1 1.5-.5q-.5 2-3.5 1.5l-1-1h-10l-2.5 1.5 13.5.5 1 1 1-1h7l2 1q1-2 2 0h59l2 1q1-2 2 0l33.5.5-.5 1.5-3-1h-21l-.5 1.5 17 1-42.5.5-2-1q-1 2-2 0h-46l-1-1-2 1q-1-2-2 0l-3-1h-54l-.5 1.5 2.5.5 1.5-.5-3 2 4.5 1.5 13.5.5-13.5.5q-1.2-2.2-6-1l-1.5 1.5q2 1 0 2l.5 1.5 3.5.5-4.5 1.5-.5-13.5 1-1-1-3v-7l1-3q-2.2-1.2-1-6l1-1zm61.5 14v2l2-1 1 1h11v-1zm79 4v2l3-1 9 1q1-1-1-2l-2 1-1-1zm-136 1-1 1 3 1 3-1 1 1h25l1 1q0-2 5-1l1 1v-3l-3 1-1-1zm86 1-1 2h7v-1zm-84 2q-2 1 1 2h27l-1-2zm31 0-2 2h5v-1zm-33 3-1 2q1 1 2-1zm3 0-1 2h50l3 1 3-1 3 1h24v-1l-25-1-1-1-2 1h-10l-1-1q-5-1-5 1l-1-1zm85 1-1 2h27l1 1h19v-1l-35-1-2-1q-1 2-2 0l-2 1q-1-2-5-1Zm104.5-26 1.5.5v9l1.5 1.5 2.5-.5 1-2 .5-8.5 2.5.5v7l-4.5 5.5h-2l-3.5-2.5zm14 0h11l1.5 1.5-6 1-.5 14.5-1.5-1.5-.5-13.5q-4.6.8-4-2Zm-180 1 2.5.5-2.5.5zm4 0 2.5.5-2.5.5zm4 0 26.5.5-26.5.5zm37 1 33.5.5-33.5.5zm41 0 2.5.5-2.5.5zm4 0 29.5.5-.5 1.5q-3.2.8-4-1h-25z" opacity=".973"/><path fill="#fcfcfc" stroke="#fcfcfc" d="m418.5 148 28.5.5-28.5.5zm87 1 26.5.5q-1.2 2.8-2.5.5h-24zm-41 2 28.5.5-28.5.5zm31 0 2 1 3-1 1 1 30.5.5-1 2 .5 1.5-29.5-.5 28-1-1.5-1.5h-28l-2-1-3 1zm-80 2 5 1 3-1 2 1q1-2 2 0l36.5.5-46.5.5-2.5-1.5zm50 1 2.5.5-2.5.5zm4 0 8.5.5-8.5.5zm12 0h12l1 1 6.5.5-6.5.5-1-1h-12zm-51 2 4.5 1.5-3.5.5q-1-2-2 0l-1.5-.5zm129 4h14l1 1 1-1h10l9 3 6.5 4.5-1 1 .5 1.5-4-3-10-4h-10l-1-1h-16l-1 1h-4l-3 2-8 2q-1.5-1 1-2zm-489 3 2.5.5-2.5.5zm89 0 2.5.5-2.5.5zm4 0 8.5.5-8.5.5zm89 0 3.5.5-3.5.5zm10 0h36l3 1 2-1 1 1 33.5.5-2.5 1.5-1-1h-31l-1-1q-1.3 2.3-6 1l-3-1h-31z" opacity=".973"/><path fill="#fcfcfc" stroke="#fcfcfc" d="m558.5 164 4.5.5 3 6v3l-2.5 3.5q-6.5 1-8.5-2.5v-8l1.5-1.5zm-.5 2-1 2h4v-1zm3 3-3 1-2 3 4 2h3q2-1 1-4zm12.5-5 3.5 2.5.5 1.5h3l3-2q2.5 1 1 2l-3.5 2.5.5 1.5 1.5.5 2 4-1.5.5-2-3-4-2-4 3 .5-1.5 1.5-2.5 1.5-.5-.5-1.5-1.5-.5-.5-1.5-1.5-.5zm-454 1 4.5.5-4.5.5zm90 0 21.5.5-21.5.5zm23 0 8.5.5-2.5 1.5q-1.2-2.2-6-1zm10 0h19l3.5 1.5-14.5.5-3-1q-1 2-2 0l-2 1q-2.5-1-1-2Zm24 1 27.5.5-27.5.5zm44 1 5.5.5-5.5.5zm7 0 18.5.5-18.5.5zm-73 1 4.5.5-4.5.5zm-162 3 2.5.5-2.5.5zm22 1 7.5.5-7.5.5zm436 1 5.5.5-5.5.5zm-147 1h61l2 1q1-2 2 0h36l1 1q1-2 5-1l3 1 2-1 1 1 27.5.5-44.5.5-3-1q-.7 1.8-4 1l-2-1q-1 2-2 0h-37q-.7-1.8-4-1l-2 1-1-1h-41zm142 2 3.5.5-.5 1.5-3-1zm-131 1 38.5.5-38.5.5z" opacity=".973"/><path fill="#fcfcfc" stroke="#fcfcfc" d="M444.5 177q5.3-1.2 6.5 1.5l-1.5.5-3-1q-3 .5-2-1Zm9 0 1 1 29.5.5-31.5.5q-1.5-1 1-2Zm91 0 6.5.5-6.5.5zm-337 1 9.5.5-9.5.5zm30 1 16.5.5-16.5.5zm36 0 8.5.5-8.5.5zm10 0 3.5.5-3.5.5zm101 0 10.5.5-10.5.5zm-183 1 7.5.5-7.5.5zm103 0 12.5.5-12.5.5zm109 0 4.5.5-4.5.5zm8 0 19.5.5-19.5.5zm21 0 4.5.5-4.5.5zm-231 1 28.5.5-28.5.5zm30 0q5.3-1.2 6.5 1.5l-1.5-.5h-5zm224 0 28.5.5-28.5.5zm-215 1h58l2 1 3-1 1 1h37l1.5 1.5-1.5-.5h-37l-2-1-3 1-1-1h-58zm255 0 6.5.5-6.5.5zm9 0 11.5.5-11.5.5zm16 0 3.5.5-3.5.5zm8 0 19.5.5-19.5.5zm22 0 2 1h13l1 1 28.5.5-28.5.5q-1-2-2 0l-3-1-12.5-.5zm70 7 .5 5.5 3 3-1 2 .5 1.5-6-2-1 2-.5-1.5 1-1 .5-6.5 2 3zm4 1 .5 2.5h-1z" opacity=".973"/><path stroke="#000" d="M.5 0 640 .5l-.5 144.5-1.5-19.5-1-1-1-9-3.5-8.5q-1.8-1.7-6-1-2 4-7 5-1-2-2 0h-18l-1-1h-38q-.8-1.8-4-1-1 2-2 0h-7l-1 1-1-1h-42l-1-1-3 1-1-1h-49l-1-1h-52l-1-1-1 1h-14l-2.5 1.5-.5 3.5-5 1-1-1h-35l-1-1q-1 2-2 0l-4 1q-1.2-2.2-6-1l-2 1-1-1h-20l-1-1-1 1h-18l-1-1h-25l-2-1-1 1h-19q-1-2-2 0l-2-1h-23q-1.2 2.2-6 1l-2.5 2.5-.5 1.5q-3.2.8-4-1h-20l-3-1-1 1h-9l-1-1h-9q-1 2-2 0h-11q-1-2-5-1l-2 1-1-1h-21l-1-1-1 1h-18l-2-1q-1 2-2 0l-3 1-1-1h-41q-1.2-2.2-6-1-.7 1.8-4 1l-2-1-3 1-2.5-1.5-2.5-3.5q-2.5-2-8-1L4 109.5l-1 8-1 1v4l-1 1L.5 137z" opacity=".004"/><path stroke="#000" d="m384.5 111 2 1h52l1 1h72l1 1q.8-1.7 4-1 1 2 2 0l7 1q1-2 2 0l4-1 1 1h7q1-2 2 0l3-1 1 1h15l3-1 1 1h25l1 1 2-1 1 1h23q1-2 2 0l1.5.5 2 7h-1l-1.5-2.5-5 1v-1l2.5-.5-3.5-2.5-3 2 .5-1.5-.5-1.5q-4.2-.7-5 2h-9q-1-2-2 0h-10l-1-1h-7l-1-1-1 1-10.5.5-.5 1.5-1-2q-6.2 1.2-9-1l-1 1h-20l-2-1q-1.2 2.2-6 1l-2-1-.5 1.5 2 1-8.5.5-1-2-6-1-1.5 1.5.5 1.5-3.5-.5.5-1.5-2-1h-25q-1 2-2 0l-27.5.5-.5 1.5-3.5-.5 3-1-10.5-.5-2-1-.5 1.5 6 1-5.5.5q-1-2-2 0l-6.5-.5 7-1-.5-1.5h-36l-1-1q-1 2-2 0l-6.5 1.5 11 1-11.5.5-3 2-.5-6.5zm133.5 5q-3 1-1 2h1zm-495.5-3 3 1h14l2 1 2-1 2 1 3-1 1 1 34.5.5-50.5.5-1-1h-9v1l3.5.5-5 1-1.5 3.5-.5-2.5zm64 2h17l1 1h25l1 1h26l1 1 2-1 1 1h33l1.5-.5q.8 3.8-1.5 4.5l-5.5-.5 4-1-.5-1.5h-43l-1-1h-22l-2-1q-.7 1.8-4 1-1-2-2 0l-3-1h-24q-.7-1.7-4-1z" opacity=".004"/><path stroke="#000" d="m401.5 116 3.5.5-3.5.5zm-364 1 9.5.5-9.5.5zm32 1 4.5.5-4.5.5zm15 0 2.5.5-2.5.5zm395 0 10.5.5-10.5.5zm15 0 5.5.5-5.5.5zm17 0 2.5.5-2.5.5zm14 0 8.5.5-8.5.5zm64 1 2.5.5-2.5.5zm-436 1 2.5.5-2.5.5zm19 0 4.5.5-2.5 1.5-2.5-1.5zm21 3 1.5.5-1.5 3.5zm429 4 .5 5.5 1 1 1 18 1 2-1 3 1 2v12l-1 3v9l-1 1v6l-1 1-.5 6.5-3.5-1.5 3-1q-1.2-6.2 1-9l-8-1 8-1-.5-1.5h-38l-1-1q-1 2-2 0l-3.5-.5 16.5-.5 1 1h22l.5-1.5-25-1 27-1-.5-1.5-27.5-.5q1-2.5 5.5-1.5l2 1q1-2 2 0l18.5-.5-.5-1.5q-3.2-.7-4 1l-1-1-11.5-.5 20-1-.5-1.5h-13l-3 1q-3-1.5 0-3l2 1h13l.5-1.5-17-1 16.5-.5 1.5-1.5-18-1 15-1-.5-1.5-11.5-.5 14-1-.5-1.5-3.5-.5 3-1-.5-1.5-2 1-.5-1.5 4-1-.5-1.5-3.5-.5 4-1-.5-1.5-3.5-.5 5-1-4-2 4-1-1-2 1-2q-2-1 0-2 1-4-1-5zm-604 4 1 2 5.5.5-6.5.5zm0 5 5.5.5-4.5.5-1.5 1.5 11 1-10 1 2.5 1.5 7.5.5-7 1 2.5 1.5h19l1 1 1-1h7l2.5 1.5.5 1.5 2 1 26.5.5-27.5.5-2.5-1.5-.5-1.5-21-1q-1 2-2 0l-6.5.5 3.5 1.5 24.5.5-26 1 3.5 1.5h31q.8 1.8 4 1l2-1 1 1h26l2 1q1-2 2 0h22l2 1q1-2 2 0h42l1 1h15l.5-1.5-17.5-.5-3-1-1 1h-8l-1-1h-42l-1-1-22.5-.5.5-1.5q4-1 5 1h28q1 2 5 1l2-1 1 1h21v-1l-1.5-.5 7.5-1.5 1 1 6.5.5-7.5.5q-1-2-2 0l-2.5.5 15.5.5q1.3 2.2 6 1l.5-1.5-8-1 21-1-2.5-1.5h-43l-1-1-2 1-2-1q-1 2-2 0h-27q-.7-1.7-4-1-1 2-2 0h-19l-1-1-12.5-.5 14.5-.5 1 1h22l1 1 3-1 1 1h42l1 1q1-2 2 0l35.5-.5-3.5-1.5-55.5-.5 60-1-8-1 8.5-.5.5 22.5h-1l-.5-1.5-6.5-.5 5-1-4.5-.5-1-1h-21l-3-1-.5 1.5 3.5 1.5h8l2-1q2.5 1 1 2h-13l-1-1-7.5-.5 6-1-.5-1.5h-37l-1-1q-.7 1.8-4 1l-1-1h-28l-1-1-3 1-1-1h-25l-1-1-3 1-1-1h-26q-.7-1.7-4-1l-2.5 1.5 5.5.5 1 1q1-2 2 0h42l1 1h18l1 1h26l1.5 1.5-2.5.5-1-1h-7q-1 2-2 0h-15l-1-1-2 1-1-1h-22l-1-1h-38l-2-1q-2.5 1-1 2l4.5.5-5.5.5-1.5 1.5 7 1-7 1 1 7h-1v-3l-2-6 1-2-1-1v-7q-1.7-.7-1-4l2-3-2-1q2.2-1.3 1-6zm5.5 12-1 2h2v-1zm151 2-1 2h9v-1zm-150 1-2 2h3q1 2 2 0l1 1h32l1 1q6 1 9-1l-13-1-1-1-2 1q-1-2-2 0l-1-1H29q-1-2-4-1Zm49 2-1 2h17l1 1 4-1q1 2 2 0l2 1h27l1 1q5 1 7-1l-23-1-1-1H86q-1-2-2 0l-1-1zm63 2v2h23l-7-1-1-1zm26 1v1h8l1 1h10l-2-2z" opacity=".004"/><path stroke="#000" d="m35.5 137 2.5.5-2.5.5zm26 0 4 1 1.5-.5-.5 1.5q-4.9.6-5-2Zm23 1 9.5.5-9.5.5zm102 0 5.5.5-5.5.5zm-156 1 2 1 20.5.5-21.5.5q-2.5-1-1-2Zm77 0 9.5.5-9.5.5zm-52 1h26l1 1h19l1 1 26.5.5-26.5.5-1-1h-19l-1-1-3 1q-1-2-2 0l-21-1zm71 0 3.5.5-3.5.5zm18 0 2.5.5-2.5.5zm12 0q3.3-.7 4 1l2-1q1.5 1-1 2l-5-1zm9 0q2.5 1 1 2l-1.5-.5zm7 0q2.5 1 1 2l-2.5-.5zm-138 2 6.5 1.5-7.5.5q-1.5-1 1-2Zm9 1 21.5.5-21.5.5zm13 2 1 1h28l1 1 2-1 1 1h23l1 1 31.5.5-37.5.5-1-1h-23l-1-1h-25q-2.5-1-1-2Zm553 0 7.5.5-7.5.5zm-3 3 6.5.5-6.5.5zm-2 3 12.5.5-12.5.5zm1 3 11.5.5-3 1 3 2-12.5.5-.5-1.5 1.5.5q6 1.5 7.5-1.5l-7.5-.5zm-487 5 3 1 22.5.5-25.5.5zm-87 1 2.5.5-2.5.5zm8 0 4.5.5-4.5.5zm10 0 2.5.5-2.5.5zm8 0 7.5.5-7.5.5zm88 0 2.5.5-2.5.5zm-13 2 5.5.5-.5 1.5-2-1-2 1q-2.5-1-1-2Zm-132 4 1.5 3.5 1 9 4.5 6.5 4 3 1-1q4.2.7 6-1l5-5h4l1 1h39l2 1q.8-1.7 4-1l1 1h18l1 1h32l1 1h41q1.3 2.3 6 1l2-1 1 1h17l1.5-.5.5 1.5 3.5 1.5 1.5 2.5h6l1 1h19l1 1h68l1 1 2-1q.8 1.8 4 1 1-2 2 0h20l3 1q1-2 2 0h41l1 1q1-2 2 0l2-1 .5 1.5q-2 1 0 2v3l3.5 3.5h6l1 1 3-1 3 1h45l1 1h93l1 1h27l3 1 2-2 .5.5.5 1.5q3.8.8 4.5-1.5.5-3-1.5-3.5-3.2-.7-4 1l-1-1h-24l-2-1q-1 2-2 0h-30l-1-1q-.8 1.8-4 1-1-2-2 0h-28l-2-1-3 1-3-1q-1 2-2 0h-46l-2-1-2 1q-.7-1.7-4-1-1 2-2 0h-20l-1-1-2 1-.5-7.5 1.5.5 1-1 3.5.5-4 2 24.5.5 1 1q1-2 2 0l3-1 1 1h36l2 1 3-1 1 1h45l1 1q1-2 2 0l4.5.5-2 1 2.5.5 1-2h45l1 1h37l1 1 2-1q1 2 5 1 1-2 2 0l14.5-.5-1-2 4.5-.5.5 3.5-2.5 4.5-2-1h-46l-.5 2.5 1.5 1.5h22l2 1 2-1 1 1h18q.8 1.8 4 1l6 5h3l3.5-4.5v-2l4-9 1.5-14.5.5 133.5L.5 320zM388 198v1h9zm12 0v1h13zm22 0q-2 1 1 2l3-1 1 1h11v-1h-1l-7-1q-1 2-2 0-4-1-4 1zm18 1v1h7l1 1q0-2 5-1 1 2 2 0zm17 0-1 2h2l3-1 2 1 2-1q1 2 2 0l2 1v-1zm14 0-1 2h4v-1zm8 0-1 2h2v-1zm4 0q-3 1-1 2h9q-2-3-8-2Zm10 0v2h2zm5 0q-3 1-1 2h9zm14 1q-2 1 1 2v-1zm3 0-1 2h12v-1zm14 0v2l2-1zm4 0-1 2h2v-1zm3 0q-1 2 3 2v-1zm8 0-4 2h6v-1h-1zm4 1v1h2zm7 0v1h7l1 1q4 1 5-1zm18 0-1 2h8v-1l-5-1q-1 2-2 0Zm9 1v1h11q1 2 2 0h8l1 1q3 1 4-1l4 1v-1zm32 0v2l2-1z" opacity=".004"/><path stroke="#000" d="m19.5 172 23.5 1.5q-2.2 1.3.5 2.5l4.5-1.5-2-1 9.5-.5.5 1.5-.5 1.5 3.5-.5-1-2q1-1.5 2 1l.5 1.5 1.5-.5-.5-1.5 2.5.5-.5 1.5h6l3 1 2.5-1.5-3-1 .5-1.5h4l1 1 4.5.5-6 1 .5 1.5q3.3-.7 4 1l1-1h28l2 1q1-2 2 0h12l1 1 1-1h8l1 1 3-1q4.8-1.2 6 1h25l1 1q1-2 5-1l1 1h9q2.5-1 1-2h-17l-1-1-2 1-1-1-21.5-.5 37.5-.5 3 1 5.5-.5-.5-1.5-4.5-.5 6-1-.5-1.5 1.5 1.5v6l1 3-3.5.5-1-1h-14l-1-1h-14l-1-1h-52l-1-1-2 1-1-1h-19l-1-1-3 1-2-1h-19l-3-1-3 1q-2.5-1-1-2l2.5-1.5-5.5-.5-1 4q-1-2-2 0l-3-1-3 1-2-1-2 1q-.7-1.7-4-1-1 2-2 0h-8l-1 1-1.5-1.5zm6.5 1v2h2zm4 1v1h11z" opacity=".004"/><path stroke="#000" d="m92.5 174 13 1q.8-1.7 4-1l1 1h15l2 1 2-1 1 1 6.5.5-7.5.5q-1-2-2 0l-4-1q-1 2-2 0h-25q-.8-1.8-4-1zm48 2 2.5.5-2.5.5zm347 2 11.5.5-11.5.5zm17 0 1 1 1.5-.5-1.5 1.5q-2.5-1-1-2Zm4 1 24.5.5-24.5.5zm36 0q3.3-.7 4 1l3-1 2 1 16.5.5-17.5.5-1-1-1 1-3-1q-4 .8-3-1Zm-144 15 3.5.5-3.5.5zm5 0 21.5.5-21.5.5zm37 1 2.5.5-2.5.5zm5 0 21.5.5-21.5.5zm25 0 4.5.5-4.5.5zm14 1 5.5.5-5.5.5zm8 0 24.5.5-24.5.5zm26 0 2.5.5-2.5.5zm5 0 10.5.5-10.5.5zm12 0 6.5.5-6.5.5zm21 1 8.5.5-8.5.5zm32 0 4.5 1.5-4.5.5zm6 1 13.5.5-13.5.5z" opacity=".004"/><path fill="#c8c8c8" stroke="#c8c8c8" d="m207.5 116 2.5.5-3.5 1.5q-1.5-1 1-2Zm15 0 2.5.5-2.5.5zm11 2 6.5.5-6.5.5zm66 0 4.5.5-4.5.5zm10 0 2.5.5-2.5.5zm-304 1 1.5.5q-1 2.5-2 1zm33 0 2.5.5-2.5.5zm165 1 2.5.5-2.5.5zm4 0 9.5.5-9.5.5zm13 0 2.5.5-2.5.5zm100 0 3.5.5-3.5.5zm23 0 3.5.5-.5 1.5-3-1zm168 0 2.5.5-2.5.5zm24 0 1.5.5-2.5 1.5q-1.5-1 1-2Zm5 0 1 1 10.5.5-10.5.5q-2.5-1-1-2Zm-444 1 2.5.5-2.5.5zm139 0 7.5.5-7.5.5zm13 0 2.5.5-2.5.5zm10 0 2.5.5-2.5.5zm311 0 4.5.5-4.5.5zm-448 1 4.5.5-4.5.5zm12 0 4.5.5-4.5.5zm-118 3-.5 1.5-.5 1.5-.5-1.5zm19 9 3.5.5-3.5.5zm502 1 4.5.5-4.5.5zm-449 1 4.5.5-4.5.5zm110 0 1 2 2.5.5-2.5.5q-2.4-.9-1-3Zm-46 1 2.5.5-2.5.5zm385 0 3.5 1.5-2.5.5q-1-2-2 0l-2.5-.5zm-332 1 8.5.5-8.5.5zm159 0 3.5.5-3.5.5zm181 0 3.5.5-3.5.5zm-95 1 2.5.5-2.5.5zm165 0 2.5.5-2.5.5zm-315 1 3.5.5-3.5.5zm8 0 4.5.5-4.5.5zm-105 1 5.5.5-5.5.5zm131 0 4.5.5-4.5.5zm18 0 10.5.5-10.5.5zm-149 2 2.5.5-.5 1.5q-3.8-.7-2-2Zm99 0 12.5.5-12.5.5zm43 1 2.5.5-2.5.5zm4 0 5.5.5-5.5.5zm-70 1 24.5.5-24.5.5-1 1q-1.5-1 1-2Zm170 0 7.5.5-.5 1.5-1-1h-6zm9 0 33.5.5-32.5.5-1 1zm92 2 .5 5.5h-1zm-259 1 4.5.5-1.5 1.5h-8v-1q4 1 5-1Zm162 0 37.5.5-.5 1.5h-25l-1-1h-11zm44 0 1.5.5-.5 1.5-3.5-.5zm-146 1 4.5.5-4.5.5zm214 1 1.5 3.5q-1 1.5-2-1zm-270 1 16.5.5-16.5.5zm116 0 2.5.5-2.5.5zm53 0 2.5 1.5-1.5.5q-2.5-1-1-2Zm33 0 3.5 1.5-1.5.5-2.5-1.5zm139 0 .5 3.5h-1zm-358 1 7.5.5-7.5.5zm193 0 24.5.5-24.5.5zm86 1q1.5 1-1 2l-1.5-.5zm-267 1 3.5.5-3.5.5zm189 0q3-.5 3.5 1.5l-6.5.5v-1zm16 0 1.5.5q-3 3-10.5 1.5v-1h8zm4 0 4.5.5q-1.3 2.7-2.5.5-3 .5-2-1Zm-225 1 14.5.5-14.5.5zm197 0 2.5.5-2.5.5zm163 0 .5 1.5q-1 2.5-2 1zm-208 1q4.5-1 5.5 1.5l-1.5-.5-2 1-2.5-1.5zm7 0 9.5.5-5.5.5-1 1-3-1zm11 0 3.5.5-3.5.5zm-244 1 1 1 1.5-.5-1.5 1.5q-2.5-1-1-2Zm22 0 15.5.5-15.5.5zm283 0 6.5.5-6.5.5zm-83 2 3.5.5q-2.1 2.4-7.5 1.5v-1q3.3.8 4-1Zm-202 1 11.5.5-11.5.5zm69 0 9.5.5-9.5.5-1 1q-1.5-1 1-2Zm119 0 8.5.5-8.5.5zm92 0 11.5.5-11.5.5-1 1q-1.5-1 1-2Zm-14 1h6l1 1 1.5-.5q-1.2 2.8-2.5.5h-6zm-343 1 3 1 9.5.5-12.5.5zm108 0 6.5.5-.5 1.5q-.7-1.7-4-1l-1 1h-20v-1h18zm10 0 1.5.5-.5 1.5-2.5-.5zm182 0 5.5.5-.5 1.5-5-1zm-376 1 3.5.5-3.5.5zm352 0 3 1 2-1v1l-2 1-3-1zm11 0 11.5.5-11.5.5zm153 0 3.5.5-3.5.5zm-244 1 3 1 1.5.5-1.5.5q-1-2-2 0-2.5-1-1-2Zm-214 1 5.5.5-5.5.5zm15 0 3.5.5-3.5.5zm102 0q2.5 1 1 2l-1-1-1.5.5zm196 0 3 1 1.5-.5-.5 1.5-4-1-1 1h-9v-1h9zm6 0 4.5.5-4.5.5zm120 0 1.5 2.5h-1zm-407 1 15.5.5-15.5.5zm91 0 2.5.5-2.5.5zm52 1 2.5.5-2.5.5zm5 0 5.5.5-5.5.5zm-63 1 2.5.5-2.5.5zm209 0 10.5.5-10.5.5zm17 0 2.5.5-2.5.5zm64 0 3.5.5-3.5.5zm-254 1 4.5.5-4.5.5zm-236 1 2.5.5-2.5.5zm5 0 10.5.5-10.5.5zm326 0 3.5.5-3.5.5zm-303 1 5.5.5-5.5.5zm115 0 .5 1.5-1.5.5q-1.5-1 1-2Zm255 0 2.5.5-3.5 1.5q-1.5-1 1-2Zm83 0 3.5.5q-1.2 2.8-2.5.5-2.4-.1-1-1Zm7 0 6.5.5-6.5.5zm9 0 5.5.5-5.5.5zm7 1 2 2 1.5-.5-1.5 1.5h-10v-1l2-1q1.3 2.3 6 1zm-157 1 2.5 1.5-3.5.5q-1.5-1 1-2Zm1 3 11.5.5-17.5 1.5v-1q4.8 1.3 6-1Zm145 0 3.5 1.5-4.5.5q-1.5-1 1-2Zm5 0 11.5.5-11.5 1.5zm-172 2 2.5.5-2.5.5zm-109 1 8.5.5-8.5.5zm11 0 3.5.5-3.5.5zm18 0 .5 1.5-4.5.5v-1q3.3.8 4-1Zm108 0 1.5.5q-1 2.5-2 1zm-155 2 4.5 1.5-3.5.5q-2.5-1-1-2Zm8 0 4.5.5-4.5 1.5zm246 0 3.5.5-3.5.5zm6 0 2.5.5-2.5.5zm5 0 2.5.5-2.5.5zm6 0 2 1 1.5-.5q-1.2 2.8-2.5.5-2.4-.1-1-1Zm-202 1 1.5.5q-1.7 2.3-6.5 1.5v-1q4 1 5-1Zm226 0 2.5.5-2.5.5zm24 0q1.5 1-1 2l-10.5-.5 10.5-.5zm-132 1 2.5.5-2.5.5zm77 1 2.5.5-2.5.5zm-256 1 6.5.5-6.5.5zm8 0 2.5.5-2.5.5zm62 0 13.5.5-13.5.5zm216 0 6.5.5-6.5.5zm-254 2 3.5.5-3.5.5zm66 0 2.5 1.5-1.5-.5-3 1v-1zm-98 1 13.5.5-13.5.5zm19 0 4.5.5-4.5.5zm250 5 4.5.5-4.5.5zm108 11-.5 1.5-.5 1.5-.5-1.5z" opacity=".949"/><path fill="#585858" stroke="#585858" d="m8.5 110 1.5.5-2.5 1.5q-1.5-1 1-2Zm201 3 33.5.5-33.5.5zm421 0 .5 1.5-.5 1.5 1.5.5-1.5.5q-2.7-1.2-.5-2.5zm-388 4h16l3.5 2.5-3.5.5v-2l-13.5.5-.5 1.5-1-2q-2.4-.1-1-1Zm19 0 3.5.5-3.5.5zm-233 2 3 1 1.5.5-1.5.5q-1-2-2 0-2.5-1-1-2Z" opacity=".941"/><path fill="#585858" stroke="#585858" d="m248.5 119 3.5.5-3.5.5zm96 0 3.5.5-3.5.5zm18 0 6.5.5-6.5.5-1 1q-1.5-1 1-2Zm81 0q1 2 2 0l1.5.5-2.5 1.5q-2.5-1-1-2Zm-408 1 8.5.5-8.5.5zm12 0 3.5.5-3.5.5zm245 0 7.5.5-7.5.5zm146 0 3.5.5-3.5.5zm10 0 27.5.5-27.5.5zm-438 1 .5 2.5h-1zm111 0 4.5.5-4.5.5zm12 0 5.5.5-5.5.5zm134 0 .5 1.5-1.5.5q-1.5-1 1-2Zm-117 1 2.5 1.5-2.5.5zm187 0 2.5.5-2.5 1.5zm-324 1 .5 1.5-1.5.5q-1.5-1 1-2Zm127 0 6.5.5-6.5.5zm157 0 4.5.5-4.5.5zm17 0 13.5.5-13.5.5zm319 3 .5 5.5h-1zm-435 1 1.5 2.5h-1zm-183 4 .5 5.5h-1zm566 2 2.5.5-2.5.5zm-494 2 3.5.5-3.5.5zm13 0 2.5.5-2.5.5zm490 0 1.5.5-.5 1.5q-2.5-1-1-2Zm10 0q2.5 1 1 2-1-2-2 0l-1.5-.5zm-474 1 1.5.5-.5 1.5-2.5-.5zm-114 1 1.5.5-.5 1.5-1.5-.5zm102 0 4.5.5-4.5.5zm82 1 .5 24.5h-1zm29 0 1.5.5-.5 1.5-1.5-.5zm4 0 1.5.5q-1 2.5-2 1zm7 0 1.5.5-.5 1.5q-2.5-1-1-2Zm7 0 3 1q.8-1.7 4-1v1q-3.2-.7-4 1l-3-1zm165 0 1.5.5q-1 2.5-2 1zm7 0 1.5.5-.5 1.5q-2.5-1-1-2Zm-409 1 .5 5.5H6zm272 0q1.5 1-1 2l-1.5-.5zm175 0q1.5 1-1 2l-1.5-.5zm-116 1 10.5.5-10.5.5zm183 0 1.5.5q-1 2.5-2 1zm93 0 3.5.5-3.5.5zm-383 1 11.5.5q-1.2 2.8-2.5.5-3.2-.7-4 1h-19v-1h13zm161 0 21.5.5-15.5.5-2 1-3-1-3 1v-1zm25 0 2.5.5-2.5.5zm4 0 4.5.5-4.5.5zm210 0 .5 1.5q-1 2.5-2 1zm-263 1 7.5.5-7.5.5zm9 0 .5 21.5h-1zm239 0 1 1 1.5-.5-1.5 1.5q-2.5-1-1-2Zm12 0 .5 2.5h-1zm7 0 .5 6.5-1.5.5.5-1.5-1-3zm-427 1 4.5.5-4.5.5zm65 0 2.5.5-3.5 1.5h-17v-1h17zm71 0 10.5.5-10.5.5zm13 0 2.5.5-2.5.5zm92 0 12.5.5-12.5.5zm65 0q1.5 1-1 2l-2.5-.5zm82 0 8.5.5-8.5.5zm-349 1 6.5.5-6.5.5zm68 0q3.8-.7 4.5 1.5l-1.5-.5q-4 .8-3-1Zm99 0 1.5.5q-2.1 2.4-7.5 1.5v-1q4.8 1.3 6-1Zm4 0 13.5.5-9.5.5-1 1-3-1zm-20 1 5.5.5-5.5.5zm-131 1 1 1 17.5.5-26.5.5v-1h7zm-17 1 6.5.5-6.5.5zm164 0 1.5.5-3.5 1.5v-1zm4 0 29.5.5-29.5.5-1 1q-1.5-1 1-2Zm119 0 1.5 2.5q-1 1.5-2-1zm-185 1 4.5.5-4.5.5zm51 0q3.8-.7 4.5 1.5l-1.5-.5q-4 .8-3-1Zm-174 1 12.5.5-12.5.5zm78 1 3.5.5-3.5.5zm6 0 8.5.5-8.5.5-1 1q-1.5-1 1-2Zm12 0 8.5.5-8.5.5zm182 0 22.5.5-22.5.5zm-48 2 2.5 1.5-8.5.5v-1q4.7 1.2 6-1Zm-166 1 20.5.5-2.5 1.5-1-1h-17zm210 0 2 1 1.5-.5-2.5 1.5q-2.5-1-1-2Zm6 0 19.5.5-8.5.5-1 1-1-1h-9zm-506 1 .5 2.5H2zm217 0 2.5.5-2.5.5zm346 2 3.5.5-3.5.5zm-349 1 1 1 17.5.5-32.5.5v-1h13zm135 0 1 1 12.5.5-12.5.5q-2.5-1-1-2Zm47 0 3.5 1.5-11.5.5v-1h7zm52 1 6.5.5-.5 1.5q-1.2-2.2-6-1zm16 0 3.5.5-3.5.5zm-175 1h8l1 1 2-1v1l-2 1-1-1h-8zm14 0 8.5.5-8.5.5zm211 0q1 2 2 0l3.5.5-4.5 1.5q-2.5-1-1-2Zm-317 1 3.5 1.5-3.5.5zm152 0 1 1h13l2-1q1.5 1-1 2h-14q-2.5-1-1-2Zm-146 1 11.5.5-11.5.5zm186 0 8.5.5-8.5.5zm-89 1 2.5 1.5-1.5-.5q-2.4-.1-1-1Zm78 0 .5 2.5h-1zm-307 1 14.5.5-14.5.5zm105 0 5.5.5-.5 1.5q-1-2-5-1zm-14 1 7.5.5-7.5.5zm235 0 2.5.5-2.5.5zm4 0 11.5.5-11.5.5zm50 0 8.5.5-8.5.5zm11 0 4.5.5-4.5.5zm8 0 6.5.5-6.5.5zm9 0 9.5.5-9.5.5-1 1q-1.5-1 1-2Zm-382 1 13.5.5-13.5.5zm48 0 1.5.5-2.5 1.5q-1.5-1 1-2Zm57 0 2.5.5-2.5.5zm91 1 4.5.5-4.5.5zm6 0 7.5.5-7.5.5zm75 0 .5 3.5h-1zm26 0 1 1 5.5.5-19.5.5v-1h12zm48 1 20.5.5-20.5.5zm22 0 17.5.5-17.5.5zm-364 2 2.5 1.5-2.5.5zm202 0 1.5.5-.5 1.5q-2.5-1-1-2Zm79 0 5.5.5-5.5.5zm8 0 2.5.5-2.5.5zm116 0 8.5.5-8.5.5zm24 0 8.5.5-8.5.5zm-76 1 2.5.5-2.5.5zm-87 1 1.5.5 1 4q-1 1.5-2-1l1-1-2-2zm-245 1 5.5.5-5.5.5zm272 0 2.5.5-3.5 1.5q-1.5-1 1-2Zm8 0q1.5 1-1 2l-3.5-.5zm100 0 9.5.5-9.5.5zm-404 1 10.5.5-10.5.5zm342 0 7.5.5-7.5.5zm81 1q1.5 1-1 2l-2.5-.5zm4 0q2.5 1 1 2l-2.5-.5zm-130 1 3.5.5-.5 1.5-3-1zm5 0 24.5.5-24.5.5zm-204 2 3.5.5-3.5.5zm114 0 2.5.5-2.5.5zm45 1q.5 2.5 4 2l3-1 3.5 1.5-8.5.5-2.5-2.5zm43 0 4.5.5-4.5.5zm12 0 3.5.5-3.5.5zm-186 1 2.5 1.5-22.5.5v-1h19zm125 0q1.5 1-1 2l-3.5-.5zm-113 1 2.5.5-2.5.5zm104 0q1.5 1-1 2l-1.5-.5zm105 0 41.5.5-41.5.5-1 1h-23v-1h23zm-249 1 6.5.5-6.5.5-1 1q-1.5-1 1-2Zm101 0 12.5.5-12.5.5zm14 0 24.5.5-24.5.5zm106 0 2.5.5-2.5.5zm-179 1 2.5 1.5-1.5.5q-1-2-2 0l-11.5-.5 11.5-.5zm109 0 2.5 1.5-2.5 1.5zm26 0 .5 2.5h-1zm-21 1 6.5.5-6.5.5zm109 0 1.5.5-.5 1.5-1.5-.5zm110 0 16.5.5-16.5.5zm22 0 4.5.5-4.5.5zm-398 1 9.5.5-9.5.5zm113 0h36l1.5 1.5-1.5-.5q-4.7-1.2-6 1l-1-1h-29zm249 0 7.5.5-7.5.5zm63 1 .5 2.5h-1zm-343 1 13.5.5-13.5.5zm311 0 2 1 1.5-.5-.5 1.5-3.5-.5zm24 0 1.5.5-.5 1.5q-2.5-1-1-2Zm16 0 .5 6.5h-1zm-255 1 1.5.5-.5 1.5-1.5-.5zm210 0 2.5.5-2.5.5zm-169 4 2.5.5-.5 1.5-1-1-1.5.5zm116 2q2.5 1 1 2l-1.5-.5zm89 0 .5 4.5h-1z" opacity=".941"/><path fill="#a8a8a8" stroke="#a8a8a8" d="m255.5 114 24.5.5-24.5.5zm-45 2 11.5.5-11.5.5zm15 0 2.5.5-2.5.5zm223 3 3.5.5-3.5.5zm6 0 15.5.5-15.5.5zm17 0 11.5.5-11.5.5zm15 0 1.5.5-2.5 1.5q-1.5-1 1-2Zm-129 1 2.5.5-2.5.5zm-84 2 10.5.5-10.5.5zm-74 2 .5 2.5h-1zm183 4 .5 2.5h-1zm-6 1 .5 5.5h-1zm-369 4 .5 3.5H7zm190 0 1.5 3.5q-1 1.5-2-1zm430 0 .5 2.5h-1zm-508 3 5.5.5-5.5.5zm463 0 5.5.5-5.5.5zm-443 1 2.5.5-2.5.5zm124 2 3.5.5-3.5.5zm328 0 6.5.5-6.5.5-1 1q-1.5-1 1-2Zm-309 3 3.5.5-3.5.5zm6 0 5.5.5-5.5.5zm149 0 8.5.5-8.5.5zm27 0 1.5.5-.5 1.5q-2.5-1-1-2Zm11 0 1.5.5-2.5 1.5q-1.5-1 1-2Zm-136 1 2.5 1.5-7.5.5v-1q4 1 5-1Zm-21 1 14.5.5-14.5.5zm195 0 2.5.5-2.5.5zm-207 1 3.5.5-3.5.5zm7 2q2.5 1 1 2l-1-1-1.5.5zm6 0q4.5-1 5.5 1.5l-1.5-.5h-4zm7 0 13.5.5-13.5.5zm-31 1 3.5.5-3.5.5zm7 0 3.5.5-3.5.5zm-26 1 4.5.5-4.5.5zm6 0 2.5.5-2.5.5zm-280 1 .5 2.5H2zm247 0 6.5.5-6.5.5zm14 2 10.5.5-10.5.5zm30 2 9.5.5-9.5.5zm212 0 6.5.5-6.5.5zm-246 1 13.5.5-1.5 1.5q-1-2-2 0h-6l-1-1q-1 2-2 0l-2 1q-1.5-1 1-2Zm202 0 2.5.5-2.5.5zm6 0 1 1 1.5-.5-1.5 1.5q-2.5-1-1-2Zm15 0 2.5.5-2.5.5zm153 0 .5 2.5h-1zm-389 1 2.5.5-2.5.5zm204 0 2.5.5-2.5.5zm-48 1 16.5.5-16.5.5zm-129 1 4.5.5-4.5.5zm214 0 6.5.5-6.5.5zm-239 1 3.5.5-3.5.5zm316 0 8.5.5-8.5.5zm-294 2 8.5.5-8.5.5zm-13 1 2.5.5-2.5.5zm5 0 3.5.5-3.5.5zm186 0 3.5.5-3.5.5zm5 0 6.5.5-6.5.5zm12 0 7.5.5-7.5.5zm-268 1 .5 8.5h-1zm218 0 2.5.5-2.5.5zm-312 1 5.5.5-5.5.5zm100 0 8.5.5-4.5 1.5q-.8-1.7-4-1zm144 0 8.5.5-8.5.5zm101 1 3.5.5-3.5.5zm5 0 6.5.5-6.5.5zm-44 1 5.5.5-5.5.5zm10 0 3.5.5-4.5 1.5q-1.5-1 1-2Zm-215 1 3.5.5-3.5.5zm90 0 2.5.5-2.5.5zm-57 1 3.5.5-3.5.5zm-52 1 3.5.5-3.5.5zm-128 1 2.5.5-2.5.5zm18 1 2.5.5-2.5.5zm8 1 20.5.5-20.5.5zm334 0 20.5.5-20.5.5zm-273 1 7.5.5-7.5.5zm245 0 3.5.5-3.5.5zm134 4 4.5.5-4.5.5zm7 0 2.5.5-2.5.5zm-311 1 14.5.5-.5 1.5-1-1h-13zm151 0 3.5.5-3.5.5zm-95 2 1.5.5-2.5 1.5q-1.5-1 1-2Zm6 0 1.5.5-2.5 1.5q-1.5-1 1-2Zm7 0 3.5.5-3.5.5zm94 0 12.5.5-12.5.5zm16 0 4.5.5-4.5.5zm7 0 3.5.5-3.5.5zm-152 1 17.5.5-17.5.5zm250 0 1.5.5-.5 1.5q-2.5-1-1-2Zm5 0 2.5.5-2.5.5zm7 0 6.5.5-6.5.5zm-218 2 6.5.5-6.5.5zm243 0 7.5.5-7.5.5zm36 0 1.5.5-2.5 1.5q-1.5-1 1-2Zm-314 1 2.5.5-2.5.5zm4 0 14.5.5-14.5.5zm23 3 19.5.5-19.5.5z" opacity=".925"/><path fill="#f6f6f6" stroke="#f6f6f6" d="m179.5 161 4.5.5-4.5.5z" opacity=".008"/><path fill="#2d2d2d" stroke="#2d2d2d" d="m205.5 112 2.5.5-2.5.5zm30 5 3.5.5-3.5.5zm30 1 11.5.5-11.5.5zm132 0 30.5.5-30.5.5zm-352 1 1.5.5-.5 1.5-1.5-.5zm-31 1 2.5 4.5h-3l1-3zm249 0 4.5.5q-1.2 2.8-2.5.5-3 .5-2-1Zm7 0h21l1.5 1.5-20.5.5-2.5-1.5zm303 0 2.5.5-2.5.5zm-494 1 2.5.5-2.5.5zm426 0 3.5.5-3.5.5zm83 0 .5 1.5-2.5.5v-1zm17 0 1.5.5-2.5 1.5q-1.5-1 1-2Zm20 0 .5 5.5h-1zm-423 1 1.5.5-.5 1.5-1.5-.5zm107 0 .5 1.5-1.5.5q-1.5-1 1-2Zm-140 1 1.5.5-2.5 1.5q-1.5-1 1-2Zm133 0 4.5.5-4.5.5zm-286 3 .5 3.5h-1zm-2 8 .5 2.5h-1zm28 0 2.5 1.5-1.5.5-1-1-1.5.5zm-8 1 4.5.5-4.5.5zm16 0 2.5.5-2.5.5zm58 0-.5 1.5-.5 1.5-.5-1.5zm452 0 2.5 1.5-1.5-.5-2 1q-1.5-1 1-2Zm74 1 1.5.5-.5 1.5-1.5-.5zm-430 1 6.5.5-6.5.5zm160 0 5.5.5-5.5.5zm167 0 2.5.5-2.5.5zm8 0 2.5.5-2.5.5zm-145 1 1.5.5-.5 1.5-1.5-.5zm-122 1 3.5 1.5-3.5.5zm307 0 2.5 1.5-2.5.5zm-375 1 8.5.5-8.5.5zm59 0q5.3-1.2 6.5 1.5l-1.5-.5-1 1-12.5-.5 7.5-.5zm52 0 1.5.5q-1 2.5-2 1zm17 0 4.5.5-4.5.5zm16 0 12.5.5-12.5.5zm91 0 2.5.5-2.5.5zm8 0 3.5.5-3.5.5zm140 0 2.5.5-2.5.5zm21 0 4.5.5-4.5.5zm9 0 2.5.5-2.5.5zm-372 1 7.5.5-7.5.5zm296 0 2.5.5-2.5.5zm-263 1 .5 1.5q-1 2.5-2 1zm-66 1 3.5.5-3.5.5zm147 0 2.5.5-2.5.5zm76 0 12.5.5-.5 1.5-3-1-2 1-3-1-3 1q-2.5-1-1-2Zm-229 2h26l1 1 15.5.5-15.5.5-1-1h-14q-1 2-2 0l-2 1-2-1q-1 2-2 0h-4zm148 0 .5 1.5-1.5.5q-1.5-1 1-2Zm5 0 13.5.5q-1.2 2.8-2.5.5h-11zm27 0 4.5.5-4.5.5zm6 0 4.5.5-4.5.5zm235 0 .5 2.5h-1zm-75 1 .5 2.5h-1zm-56 1 2.5 1.5-1.5-.5q-2.4-.1-1-1Zm-289 1 14.5.5-.5 1.5h-8l-3-1-2 1q-2.5-1-1-2Zm17 0 3.5.5-.5 1.5-3.5-.5zm132 0h10l2.5 1.5-1.5.5-2-1-1 1-3-1-4 1q-2.5-1-1-2Zm29 0 13.5.5-.5 1.5h-10l-2-1-1.5.5zm15 0 1.5.5-.5 1.5-1.5-.5zm161 0 .5 3.5h-1zm-151 1 3.5.5-3.5.5zm-197 2 4.5 1.5-4.5.5zm127 0 9.5.5-9.5.5zm13 0q3-.5 3.5 1.5l-1.5-.5q-3 .5-2-1Zm15 0 2.5.5-1.5 1.5h-8v-1h6zm12 0 .5 3.5h-1zm27 0 1 1 4.5.5-4.5.5q-1-2-2 0l-18.5-.5 18.5-.5zm-188 1 17.5.5-17.5.5zm-3 2 5 1q1-2 2 0l12.5.5-26.5.5v-1h6zm115 0 8.5.5-8.5.5zm10 0h9l1.5 1.5-1.5-.5h-9zm12 0 2 1 3-1q1 2 5 1l2-1v1q-1.8 1.7-6 1l-3-1q-1 2-2 0-2.4-.1-1-1Zm43 0q2.5 1 1 2l-6.5-.5 4.5-.5zm16 0q1.5 1-1 2l-5.5-.5 5.5-.5zm4 0 2.5 1.5-1.5.5q-2.5-1-1-2Zm-17 1 3.5.5-3.5.5zm198 0 .5 4.5h-1zm-306 1h28l1.5 1.5-1.5-.5h-28zm215 0 3.5.5-3.5.5zm9 0 4.5.5-4.5 1.5zm6 0 9.5.5-9.5.5zm-519 1 .5 2.5H2zm328 0 14.5.5-14.5.5zm16 0 2.5.5-2.5.5zm56 1 17.5.5-17.5.5zm-99 1 1.5.5-.5 1.5q-2.5-1-1-2Zm77 0 .5 2.5h-1zm119 0 16.5.5-16.5.5zm23 0 2.5.5-2.5.5zm-197 1h21l1 1 2-1v1l-2 1-1-1h-21zm81 0 1 1 18.5.5-20.5.5q-1.5-1 1-2Zm-186 1 7.5.5-7.5.5zm-207 1-.5 1.5-.5 1.5-1.5-.5zm275 0h10l1.5 1.5-1.5-.5h-10zm230 0 2.5.5-1.5 1.5q-2.5-1-1-2Zm7 0 3.5.5-5.5 1.5v-1zm36 0 .5 1.5-3.5.5v-1zm-256 1 28.5.5-28.5.5zm157 1 2.5 1.5-1.5-.5q-2.4-.1-1-1Zm-368 1 4.5.5-4.5.5zm232 0 1 1 3-1 3 1q1.2-2.2 2.5.5l-1.5-.5-1 1-24.5-.5 16.5-.5zm-312 1 1.5.5 1 2-.5.5-2.5-2.5zm70 0 2.5.5-2.5 1.5zm450 0 2.5.5-2.5.5zm43 0 2.5 1.5-1.5.5q-2.5-1-1-2Zm-462 1 1.5.5-3 2-.5 1.5-1.5-.5.5-1.5zm57 0 .5 1.5q-1 2.5-2 1zm37 0q1.5 1-1 2l-6.5-.5 6.5-.5zm5 0q1.5 1-1 2l-2.5-.5zm195 0 2.5.5-2.5.5zm-224 1 3.5.5-3.5.5zm32 0 3.5.5-3.5.5zm58 0 4.5.5-4.5.5zm59 0 4.5.5-4.5.5zm6 0 19.5.5-19.5.5zm197 0q1.5 1-1 2l-14.5-.5 14.5-.5zm-437 1v2l4.5.5-16.5.5v-1h10zm219 0 2 1 1.5-.5-.5 1.5-3.5-.5zm8 0 1.5.5-.5 1.5-1.5-.5zm111 1 5.5.5-5.5.5zm9 0 13.5.5-13.5.5zm119 0 .5 3.5h-1zm-525 1 16.5.5-16.5.5zm325 0 1.5.5-2.5 1.5q-1.5-1 1-2Zm162 0 4.5 1.5-5.5.5q-1.5-1 1-2Zm-329 1 .5 2.5h-1zm181 0 .5 6.5h-1zm155 0 3.5.5-3.5.5zm-77 1 1.5.5-.5 1.5q-2.5-1-1-2Zm4 0 16.5.5q-2.1 2.4-7.5 1.5l-1-1h-6l-1 1q-2.5-1-1-2Zm34 1 4.5.5-4.5.5zm63 0 2.5.5-2.5.5zm-341 1 1.5.5-.5 1.5-1.5-.5zm178 0 2.5.5-2.5.5zm189 0 .5 2.5h-1zm-383 1 .5 1.5-2.5.5v-1zm10 0q2.5 1 1 2l-3.5-.5zm45 0 1 1 1.5-.5-1.5 1.5q-2.5-1-1-2Zm188 0 2.5.5-2.5.5zm4 0 2.5 1.5-1.5.5q-2.5-1-1-2Zm-122 1 1.5.5-.5 1.5q-2.5-1-1-2Zm6 0q2.5 1 1 2l-1.5-.5zm13 1 1 1 1.5-.5-1.5 1.5q-2.5-1-1-2Zm-134 1 18.5.5-18.5.5zm80 0q3-.5 3.5 1.5l-1.5-.5q-3 .5-2-1Zm78 0 3.5.5-.5 1.5-3-1zm43 2 2.5.5-1.5 1.5q-4-1-5 1-1.5-1 1-2zm214 0 .5 3.5h-1zm-416 1 8.5.5-8.5.5zm155 0 3.5.5-3.5.5z" opacity=".945"/><path fill="#2d2d2d" stroke="#2d2d2d" d="M406.5 182q2.5 1 1 2l-1-1-1.5.5zm88 0 9.5.5-9.5.5zm-14 1 1.5.5-.5 1.5-1.5-.5zm18 1q1.5 1-1 2l-2.5-.5zm3 0 1 1 5.5.5-5.5.5q-2.5-1-1-2Zm8 0 3 1 1.5.5-1.5.5q-1-2-2 0-2.5-1-1-2Zm51 0q1.5 1-1 2l-2.5-.5zm-341 1 9.5.5-9.5.5zm141 0 5.5.5-5.5.5zm227 1 2.5.5-.5 1.5-2.5-.5zm-384 1 11.5.5-11.5.5zm120 0 21.5.5-21.5.5zm33 0 3.5 1.5-1.5.5-2.5-1.5zm-35 3 34.5.5-34.5.5zm157 2q1.5 1-1 2l-2.5-.5zm11 0 2.5 1.5-1.5.5q-2.5-1-1-2Zm-20 1 3.5.5-3.5.5zm28 0 2.5.5-2.5.5zm47 0 2.5.5-2.5.5zm5 0 2.5.5-2.5.5zm76 6 .5 2.5h-1zm3 0q2.5 1 1 2l-1.5-.5z" opacity=".945"/><path fill="#0f0f0f" stroke="#0f0f0f" d="m6.5 107 .5.5-2.5 2.5-.5-.5zm413 0 29.5.5-29.5.5zm34 1 45.5.5-45.5.5zm-345 3 20.5.5-20.5.5zm23 0 4.5.5-4.5.5zm171 0 18.5.5-18.5.5zm21 0 5.5.5-5.5.5zm63 0 44.5.5-44.5.5zm-217 1 2.5.5-2.5.5zm270 0 39.5.5-39.5.5zm-255 1 8.5.5-8.5.5zm339 0 2.5.5-2.5.5zm-474 1 20.5.5-20.5.5zm23 0 3.5.5-3.5.5zm521 0 23.5.5-23.5.5zm-508 1 4.5 1.5-3.5.5q-2.5-1-1-2Zm344 0 4 2 1-2 1.5.5-2.5 2.5-1-1q-3.8.5-3-2Zm-402 1 5.5 1.5-2.5.5q-1-2-2 0-2.5-1-1-2Zm27 0q1.2 2.2 6 1l1-1 3 1 2-1h17v1l-2.5.5.5 1.5-2-1-2 1q-1-2-2 0-3.2-2.3-10-1-1 2-2 0l-15.5-.5 5.5-.5zm410 0 3 1q1-2 2 0l6.5.5-4.5 1.5-3-1-9.5-.5 4.5-.5zm13 0h25l2.5 1.5-4.5 1.5v-1l1.5-.5-2.5-.5-1 1h-7l-1 1v-2l-2 1h-9l-1 1q-2.4-.9-1-3Zm31 0 2.5.5-2.5.5zm99 0 3.5.5 1.5 2.5 4.5.5-17.5.5v-1l11.5-.5q-.5-2-3.5-1.5l-1.5.5zm-514 1 1 1 15 1q1-2 2 0l7.5.5-19.5.5-6-2-1.5.5zm67 0 18.5.5-18.5.5zm26 0 7.5.5-7.5.5zm200 0 7.5.5-4 1-.5 1.5-7.5-.5.5-1.5 2 1zm22 0 17.5.5-17.5.5zm44 0 3.5.5-3.5.5zm60 0 2.5 1.5-1.5-.5q-2.4-.1-1-1Zm22 0 1 1q4.8-1.3 6 1l1-1h10l2 1q1.5-3.5 3-1l2 1 3-2 1 2 1-2 2 2 3.5.5-22.5.5-2-1q-.7 1.8-4 1l-2-1-3 1-2-1-1 1h-10q-1.5-1 1-2l1 1h8zm-447 1 2.5.5-2.5.5zm59 0 2 1 7.5.5-4.5.5-1 1q-1-2-2 0l-4-1-2 1-1-1-10.5-.5 14.5-.5zm362 0 2.5.5-2.5.5zm63 0h5l1 1 6.5.5-12.5.5zm-550 1 5.5.5-5.5.5zm159 0 9 1 2-1 .5 1.5-5.5 1.5-1-2-2.5.5 2 1-1.5.5-3-1-2 1q-1-2-2 0l-1.5-.5 3.5-1.5 1.5.5zm441 0 .5 1.5-1 2 1 3h-1l-1.5-4.5-1.5-.5 1.5-.5 1.5.5zm-461 1h11l2.5 1.5-1.5.5-1-1h-11zm-159 3 .5 3.5H1zm18 0 .5 1.5-1.5 4.5-.5-3.5zm170 0 3.5.5-3.5.5zm4 4 .5 2.5h-1zm430 3 .5 2.5h-1zm-431 1 1.5.5-1.5 2.5zm446 0 .5 2.5h-1zm-613 2 2.5.5-2.5.5zm166 2 1.5.5-.5 5.5-1.5-.5 1-4zm-167 1 11.5.5q-.5 2-3.5 1.5l-1-1h-7zm20 0 1 1h15l2.5 1.5-2.5.5-1-1h-14l-1-1-2 1v-1zm23 1q1 2 2 0l2 1q1-2 2 0l10.5.5-16.5.5zm27 1 2 1q1-2 2 0l2-1 2 1q1-2 2 0l2.5.5-11.5.5q-2.5-1-1-2Zm80 0 11.5.5-11.5.5zm-142 1 19.5.5-19.5.5zm85 0 3.5.5-3.5.5zm5 0 16.5.5-7.5.5-1 1q-.7-1.7-4-1-1 2-2 0-3 .5-2-1Zm21 0 2.5.5-2.5.5zm-90 1 4.5 1.5-1.5 1.5h-13l-2 1-4.5-1.5 3.5-.5q1 2 2 0l12.5-.5-2-1zm98 0q5-1 6 2l3-2-.5 1.5-.5 1.5h-28l-1 1q-2.5-1-1-2l26.5-.5-4.5-.5zm12 0 1.5.5-.5 1.5-1-1-1.5.5zm3 0 1.5.5-.5 1.5q-2.5-1-1-2Zm3 0 1 1 1.5-.5-2.5 1.5zm4 0 1 1 8.5.5-8.5.5q-2.5-1-1-2Zm-111 1 2.5.5-1.5 1.5q-2.5-1-1-2Zm-30 1 1.5.5-.5 1.5 3.5.5-3.5.5q-2.4-.9-1-3Zm51 0q2.5 1 1 2l-2.5-.5zm3 0 1.5.5-.5 1.5-1.5-.5zm98 0 2.5.5-2.5.5zm4 0 2.5.5-2.5.5zm431 0q3-.5 3.5 1.5l-.5 1.5-1-2q-3 .5-2-1Zm-554 1 2 1 12.5.5-11.5.5-1 1h-10l-2 1-2.5-1.5 2.5-.5 1.5.5.5-1.5h6l3 1v-1q-2.4-.1-1-1Zm91 1q1 2 5 1l1-1h24v1h-21l-1 1-2-1-1 1h-7v-1zm-121 2 7.5.5-7.5.5zm23 1 5 1 1-1h18v1h-6l-1 1-1-1h-7l-1 1h-9q-1.5-1 1-2Zm97 0h6l1.5 1.5 1 2-.5.5-2-2-6.5-.5zm9 0 18.5.5-15.5.5-2 1q-2.5-1-1-2Zm-141 1 1.5.5q-1 2.5-2 1zm29 0 3.5 1.5-8.5.5-1 1h-17v-1q5.5 1 8-1l2 1 1-1h11zm93 0 5.5.5-4 1-.5 1.5h-19l-1.5-1.5 1.5.5 3-1h14zm468 0 4.5.5-4.5.5zm-528 1 .5 1.5-2.5.5v-1zm22 0 8.5.5-8.5.5zm502 0 4.5 1.5-8.5.5v-1q3.3.8 4-1Zm11 0 1.5.5-.5 1.5-1-1-1.5.5zm-558 1 2.5 1.5-3.5.5q-1.5-1 1-2Zm6 0 4 1 1.5-.5-.5 1.5-6.5-.5zm52 0 4.5.5-4.5.5zm54 0 2.5 1.5-2.5.5zm7 0 1.5.5-.5 1.5-1.5-.5zm-157 1 3.5.5-3.5.5zm15 1 12.5.5-3.5 1.5h-20v-1h10zm14 0 2 1 1.5-.5-2.5 1.5q-2.5-1-1-2Zm75 0 4 1 2-1 3 1 2-1h12v1q-3.2-.7-4 1h-24v-1q4 1 5-1Zm33 0 2.5.5-2.5 1.5zm444 0 1 1 9.5.5-10.5.5-1 1 .5-1.5zm14 0 2.5.5-.5 1.5-2.5-1.5zm-557 1q1.8 1.7 6 1l2-1v1q-2.8 2.2-9 1-1.5-1 1-2Zm11 0 2.5 1.5-2.5.5zm5 0 4.5.5-4.5.5zm88 0 4.5.5-.5 1.5-4.5-.5zm12 0 3.5.5-3.5.5zm-157 1 3.5.5-3.5.5zm15 1 15.5.5-2.5 1.5q-1-2-2 0l-3-1-1 1h-16v-1h8zm81 0 6.5.5-6.5.5zm15 0 1.5.5q-2.1 2.4-7.5 1.5v-1q4.8 1.3 6-1Zm4 0 15.5.5-2.5 1.5-2-1-1 1h-10zm483 0 1.5.5-.5 1.5q-2.5-1-1-2Zm-619 1 .5 7.5H0zm605 0 6.5.5-6.5.5zm10 0 2.5 1.5-1.5-.5q-2.4-.1-1-1Zm-593 1 1.5.5-2.5 1.5q-1.5-1 1-2Zm86 0 6.5.5-6.5.5zm-68 1 22.5.5-19.5.5-5 2-3-1q-1 2-2 0l-7.5-.5 13.5-.5zm93 0 24.5.5-6.5.5-2 1-3-1q-1 2-2 0l-2 1h-21v-1h11zm26 0 2.5.5-2.5 1.5zm460 0 2.5.5-2.5.5zm-10 1 6.5.5-6.5.5z" opacity=".353"/><path fill="#0f0f0f" stroke="#0f0f0f" d="m46.5 160 2.5.5-2.5.5zm10 0 1 1h7l1-1 3 1 11.5.5-22.5.5q-2.5-1-1-2Zm106 0 6.5.5-6.5.5zm444 0 2 1 11.5.5-4.5 1.5q-1-2-2 0h-8l-1 1 .5-1.5zm-556 1 2 2 3.5.5-4.5.5q-2.4-.9-1-3Zm33 0 2.5.5-2.5.5zm54 0 22.5.5-21 1 .5 1.5-1.5-.5zm-107 1 15.5.5-15.5.5zm84 0 2.5.5-2.5.5zm4 0h10l2 1 1.5-.5-2.5 1.5-1-1h-10zm-60 1 4.5.5-4.5.5zm132 0 2.5 1.5v8l-1.5 1.5-2.5-1.5 2-1 1-2-1.5-1.5-7.5-.5 6.5-.5 1.5-1.5-4-1zm-171 1 5.5.5-5.5.5z" opacity=".353"/><path fill="#0f0f0f" stroke="#0f0f0f" d="M606.5 164q4.5-1 5.5 1.5l-6.5.5q-1.5-1 1-2Zm11 0 5.5.5-5.5.5zm-616 1 .5 3.5H1zm17 2 .5 2.5h-1zm588 0 15.5.5-15.5.5-1 1q-1.5-1 1-2Zm-586 2 12.5.5-3.5 1.5-1-1h-6l-3 2 .5-1.5zm-18 1 .5 2.5H2zm29 2 4.5.5-4.5.5zm26 1 1.5 2.5-1.5-.5-1 1-2.5-1.5 1.5.5zm3 0 11.5.5-3.5 2.5h-5v-2l-2.5.5.5 1.5q-2.4-.9-1-3Zm99 0 3 1 1-1 1 1 1.5-.5-1.5 1.5q-1-2-2 0l-3-1zm9 0 2.5 1.5-1.5.5-1-1-1.5.5zm-126 1 2.5 1.5-1.5.5q-2.5-1-1-2Zm7 0 .5 2.5h-1zm2 0 1.5.5-1 2 .5 1.5-1.5-.5zm33 0h5l1 1 5.5.5-9.5 1.5-1-2q-2.4-.1-1-1Zm19 0 2.5.5-2.5.5zm69 0h13l4 2 1.5-.5-.5 1.5-5.5-.5.5-1.5h-13zm-100 1 .5 1.5-2.5.5v-1zm58 0 27.5.5-27.5.5zm-127 1 .5 2.5H3zm73 0q4.8-.7 5.5 2.5l-.5.5-2-2q-4 .8-3-1Zm6 0 2.5.5-2.5.5zm-49 1 2.5.5-2.5.5zm23 0 2.5.5-2.5.5zm99 0 2 1 1-1h8l.5 1.5-7.5.5q-1-2-2 0l-12.5-.5 9.5-.5zm38 0 .5 2.5h-1zm400 0 2.5.5-2.5.5z" opacity=".353"/><path fill="#0f0f0f" stroke="#0f0f0f" d="m60.5 178 18.5.5-18.5.5zm120 0 6 1 1.5-.5-1.5 1.5h-9v-1zm319 0 1.5.5-.5 1.5-1-1-1.5.5zm3 0 1.5.5q-1 2.5-2 1zm5 0h25l5 2q1.3-2.3 6-1 .8 1.8 4 1l1.5-.5-1.5 1.5h-16v-1l1.5-.5-25.5-.5zm46 1 12.5.5-12.5.5zm63 0 1.5.5-.5 1.5-2.5-.5zm-479 1 22.5.5-22.5.5zm-115 1 .5.5-4.5 4.5-.5-.5zm6 0 20.5.5-20.5.5zm551 0 2.5.5-2.5.5zm-453 3 19.5.5-19.5.5zm73 5 2.5 1.5-1.5.5q-2.5-1-1-2Zm424 1 .5 5.5h-1zm-396 2 31.5.5-31.5.5zm411 0 .5 3.5h-1zm-251 1 2 1 10.5.5-13.5.5-1 1q-2.5-1-1-2zm-62 1 2.5.5-2.5.5zm102 0 2.5.5-2.5.5zm10 0 2.5.5-2.5 1.5zm41 1h40l1.5 1.5-1.5-.5h-24l-2 1-1-1h-13zm43 0 3.5 1.5-1.5.5-2.5-1.5zm83 0 14.5.5-14.5.5zm-60 1q1 2 5 1l2-1 3 2 1.5-.5-2.5 1.5-1-1h-14q-1 2-2 0l-2 1-2-1q-1 2-2 0l-2 1h-18l-1 1-1-1-4.5-.5 21.5-.5 1-1q1 2 2 0h15zm77 0q2.5 1 1 2l-1.5-.5zm-49 1 1.5.5q-1 2.5-2 1zm7 0 4.5.5-4.5.5zm-190 1 7.5.5-7.5.5zm10 0 13.5.5-13.5.5zm22 0 1.5.5-.5 1.5q-1-2-2 0l-1.5-.5zm6 0 1 1 1.5-.5-.5 1.5q-3.8-.7-2-2Zm183 0 4.5.5-4.5.5zm-152 1q1.5 1-1 2l-1.5-.5zm8 0 2.5 1.5-1.5.5q-2.5-1-1-2Zm4 0 3.5.5-3.5 1.5zm12 0 6.5.5-.5 1.5q-1-2-5-1l-2 1q-1.5-1 1-2Zm10 0 2.5 1.5h-3zm5 0q3.8-.7 4.5 1.5l-1.5-.5q-3.2-.8-4 1-1.5-1 1-2Z" opacity=".353"/><path fill="#0f0f0f" stroke="#0f0f0f" d="m516.5 200 3 1 2-1 2 1q1.3-2.2 2.5.5l-11.5.5v-1zm12 0 1 1 1.5-.5-2.5 1.5zm4 0q2.5 1 1 2l-1.5-.5z" opacity=".353"/><path fill="#0f0f0f" stroke="#0f0f0f" d="m535.5 200 1.5.5-.5 1.5q-2.5-1-1-2Zm62 0 4.5.5-4.5.5zm6 0 14.5.5-14.5.5zm-97 3 29.5.5-29.5.5zm57 1 1 1 1.5-.5-3.5 4.5-2.5-.5 4-2zm49 1 5.5.5-5.5.5zm-174 1 48.5.5-48.5.5zm53 0 4.5.5-4.5.5zm108 3 10.5.5-10.5.5zm14 0 3.5.5-3.5.5zm19 4 .5.5-2.5 2.5-.5-.5z" opacity=".353"/></svg>