<svg xmlns="http://www.w3.org/2000/svg" viewBox="0 0 640 481"><path fill="#0e0906" stroke="#0e0906" d="M347.5 0h34l1 1h10l1 1h6l1 1 10 1 1 1h3l1 1 15 3 1 1h3l9 3h3l1 1h4l5 2h4l5 2h4l9 3 11 6 5.5 5.5 10 23 1 3v8q1.7.8 1 4l6 12 1 6 1 1 1 10 1 1v6l1 1q-1.2 4.8 1 6v6l1 1v6l1 1v6l1 1q-1.2 4.7 1 6v6l1 1v6l1 3 12.5 12.5 6.5 5.5 4 7-3.5 5.5-6.5 5.5-1 2 7 14 6 8 81 89 9 11v3l-9 20-4.5 5.5h-21l-1-1h-10l-1-1h-10l-1-1h-10l-1-1h-10l-1-1h-11l-1-1h-12l-1-1h-8l-.5 2.5 24 47 2 2 10 21 2 2 10 21 1 4-4.5 4.5-17 8h-2l-5 3h-2l-3 2-9 3h-4l-12-4-3-2-8-2-3-2-5-1-3-2-5-1-3-2-5-1-3-2-5-1-3-2-10-3-3-2-15-5-13-6-5-1-8-4-5-1-8-4-3-1h-8l-1 1-24 1-1 1h-52l-1-1h-11l-1-1-14-1-1-1h-5l-6-2h-5l-1-1h-4l-6-2h-6l-31 17-12 8-5 2-75 45-9 4-2 2h-3l-13-8L85 457.5l-1-5 15-30 2-2 5-11 2-2 5-11 2-2 4-9 2-2 27-51-6-10-3.5-3.5h-16l-1-1h-16l-1-1h-15l-1-1h-14l-1-1h-15l-1-1h-15l-1-1-29-1-1-1h-7L0 307.5v-5l5-15 3-6L18.5 271l80-69 26.5-24.5 2-3v-9l1-1v-15l1-1v-15l1-1v-15l1-1v-13l1-1v-12l1-1v-9l1-1v-6q1.8-.7 1-4l3.5-4.5 12-4 3-2 20-6 13-6q9.9-9.6 23-16l8.5-7.5 3.5-5.5 4-3 7-3h3l12-4h5l1-1h9l1-1h18l1-1h13l1-1h9l1-1h9l1-1h13l1-1h16zM337 4l-1 1-25 1-1 1-20 1-1 1h-13l-1 1h-14l-1 1h-8l-1 1h-6l-5 2h-3l-10 5-6 7-8 8-13 9-3 1-10 8-18 7 3 1q1 4-1 6l-8 11 2 6-4 2h-3l-4-2-4-4v-7l3-5 4-3q2-1 1-2l-8 3h-4l-4 2-3 4 1 1 5-4 1 1-3 9-4 3 10 1 8 4 6 1 1 1q5 1 6-3h4l7 9h1l-5-6-1-3v-8l-1-1 1-9 4-7 7-7 23-15 11-5 9-3h3l2-2-1-2h-4l-5 3h-4l2-4 10-8 11-2 1-1h4l1-1h6l1-1h12l1-1h16l1-1h9l1-1h8l1-1h10l1-1h13l1-1h21l1-1h28l1 1h9q1 2 6 1l1 1 9 1 5 2 9 1 9 3h3l1 1h3l1 1h3l4 2 11 2 1 1h7l1 1h4l5 2h3l10 6h1l-3-4-6-3-7-1-1-1h-4l-1-1h-4l-1-1h-4l-1-1-11-2-5-2-15-3-1-1h-3l-8-3-8-1-1-1-13-1-1-1zm62 9-3 3q1 1 4 1l1-2zm17 4-3 1-3 3 2 1 7-1v-2zm-87 1-2 2 1 2 4-1v-1q0-2-3-2Zm35 1-2 3 4 1q4 1 6-1l1-2zm15 1-1 3 3 1h8q1 2 5 1l20 8 8 1 1 1h4v-1l-2-3-12-5-9-1-1-1h-6l-1-1h-5l-8-3zm-76 2v1h2zm-19 2-1 2q2 3 3 0zm29 3-1 1h-4l-5 2h-3l-1 1h-12q-2 2-6 1l-15 5-7 1-6 5-16 7-8 7q-5-1-6 1l-3 7v5l-1 3-5 7 6 4q-2 0-1 4l6 2 6 1 2 4q-1 4 1 6l2 1 14 1-1 4h4l2-3 5 3h2l9 4 8 1 1 1h4l1 1q4 1 6-1l9 1 1 3-3 2-19-1-1-1h-5l-1-1-8-1-4-2-4 2h-7l-3-1-14-8h-2l-3-3-17-8-4-3-2-2q0-4 2-4v-4l-3-7v-6q3-2 2-7l10-5q1-5-1-7l-6 1-8 5-8 10-4 10v9l5 8 15 13 6 2 15 9 6 2h7l4 3h9l3 1 3 3 2-1 6 1 4 3q7 1 10-2h9l6 2h11l5-2q2 0 2 5l-5 2-6 1h33l1 1h8l9-3h7l1-1 15 1-3 2 4 1 1 1 2-2-3-2 10-1v3l2 1q3-1 5 1h13l1-1h15l4 2 3-1-1-1v-1l2 1 10-1 1-1 7-1 5-2q2-1 1-2l-9 3h-3l-1 1h-5l9-5 6-2h4l1 2 2-4q-1-6 1-8l8-7-1-1q-3 0-3-4l8-6q6-3 7-11l4 2h1l-2-6 4-12-2-11-5-10-6-4q-4 0-5 3v7l2 4 5 4h-1l-2 3 5 3-12 21-5 4-4 1q-7 8-16 13l-10 5-6 2h-3l-3 3-3 1-4-1q-4-1-3-5l4-3h5l1-1 6-1 26-14 3-4v-4l2-6 4-1 1 1-1-2v-3l4-5 1-3-5-2q0-4 2-4v-4l-2-4-18-16-5-2q-8-2-10 3 2 4 8 5l18 21-6 11-5 4-1 2h2l1 3-2 2-6 3-8 2-2 2-1 4-5 4-7 1-1 1-11 1-3 1-5 4h-2q-3 0-3-4l-1-1 3-3q3-1 5 1l16-7 9-6q4-3 6-8l2-1 5-5q-1-4 1-4 1-5-1-6-1-7 1-10l-9-6-13-10-11-3-4-3q-5 1-6-1-2 2-6 1-2 1-2 4l5 3h2l12 6 7 5 3 4 3 6v5l-3 6v3l-2 3-4 4-11 6-6 5-7 1-1 1h-4l-1 1h-4l-1 1h-10l-1-1q-3 4-8 6h-14l-1-1h-7l-11 4h-11l-1-1-10-1-1-1h-22q-1-2-4-1-3 0-3-4h-6l-1-1-6-1-14-8 4-1q1 0 1-3l-4-4-5-1-2-2q-3-2 1-3-1-2-3-2-2-1-2-3l4-3 6-1 1-1-2-7 5-1q8-7 20-12h2l3-2 9-3 7-1 1-1h8q1-2 5-1l4-2 11-2 1-1h6v-1l-4-3zm23 0-5 2-2 3h24l1 1h6q0 2 4 1l6 3h6l5-2 1-3-3-3h-15l-1-1h-6l-1-1zm-78 1-1 1h-4l-6 2-15 7h-3l-1 2 3 2 3 1q5 0 7-4l11-3 6-3q3 0 2-4zm217 0-1 4 2 3 4 1 1-2zm-24 3-2 3 15 8 7 2v-1l-12-10-4-2zm43 7-4 3-2 3 4 2 5 6 2 5v9l1 1v12l2 4-8 2q-3 2-2 7l-2 3q-7 6-16 10l-3 3h1l14-7 11-7h6l3-1 4-5-7-17-1-7-1-1v-7l-4-12zm-165 1-1 1h-13l-1 1h-6l-9 3h-7l-4 2q-4 1-4-1l-7 5-7 3-5 5 1 3v2l-5-1-5-3-1 5 3 1q2 1 1 4l-5 2-1 2 8 6v1l-5-2-5 3 3 2 16 4-1 2 1 2 4 2h8l1-1 5 1-5 4 2 1q3-1 5 1 6 1 9-2h3l7 4h3l5-6h3l7 4q5 1 8-1l1-2 5-3 14 4q3-2-1-3l2-2 3 1h8v-4l7 1 1 1h4l2-2 1-5h3l8 4 1-2-2-5v-5l7-11 1-4q-2-3-6-2l-1-3-2-3-7-5-10-2-5-3-3 5-2 1q-3-1-2-5l-3-4h-21l-1-1zm-48 1-1 3h2v-2zm-59 1-5 2-2 3 3 3 4-1q2-2 3-5zm179 31q-3 1-2 5 1 2 6 1v-2zm-2 8v3h1zm-258 6-2 2v11l-1 1v14l-1 1v14l-1 1v16l-1 1v15l-1 1-1 27-2 3q-5 1-6-2h-2l-20 16-86 75-4 4q1 3-1 4l1 2 1-2 1 1h151l3 1 6-10 3-7 2-2 4-9 2-2v-62l1-1v-85l1-1v-7l-12-12-6-2h-3l-1-1h-4l-5-2h-4l-1-1h-4l-1-1q-5 1-6-1Zm42 8-1 1 12 13 1 3v10l3 6q1 2 2 1l-2-4 1-4 3 1 7 6q4 1 6-1l5 3 12 4 2 4-4 2h-6l-6-5-12-3-4-3-2 1 4 3 12 7 4 4 4 1v-1l-1-1v-1l3 2h3l9-4h3l-2-2 4-1v3h2v-4l8-3h3l1-1h9l8 3h7l1 1h18l-11-1-1-1h-8l-1-1h-5l-6-2h-4l-1-1h-6l-1-1h-5l-6-2q-5-1-6 2l-3-1-5-4q-5-1-6 1l-6-4h-2l-14-6-6-5-1-4zm326 1-13 9-5 1-3 2-18 6-3 3q1 4-1 6v21l1 1v14l1 1v12l1 1v11l1 1v11l1 1v12l1 1v11l1 1v11l1 1v7l24 44h2l-1 2 2-1 30 10 3 2 29 9 3 2 44 14 3 2 15 5 5-9v-2l-88-95-20-24-2-6v-5l-1-1v-6q-2-2-1-6l-1-1v-6q-2-2-1-6l-1-1-1-13-1-1v-6l-1-1v-6l-1-1-1-12-1-1v-6l-1-1v-6l-1-1v-7zm-312 41-2 2v18l-1 1v108l-10 19-2 2-5 11-2 2-4 9-2 2-4 9-2 2-5 11-2 2-4 9-2 2-4 9-2 2-11 22-2 2-26 50 2-1h57l1 1 3-4 6-6 8-1 24-8h3l6-2 2-2 11-3 3-2 6-1 8-4 3 1 3-14v7l5 1h5l1 1h6l1 1h7q1 2 6 1l1 1h5l1-2 1 3 1 6 4 1h6l1 1h8l1 1h12l1 1h35l1-1h14l1-1h11l1-1h17l9 4 5 1 3 2 5 1 3 2h2l3 2 5 1 3 2 5 1 8 4 5 1 3 2 5 1 3 2 3-1h88l1-1-16-33-2-2-29-57-2-2-15-30-2-2-5-11-2-2-4-9-2-2-8-15-3-4h-3l-2-1q1-4-1-4v-11l-1-1v-11l-1-1-1-23-1-1v-12l-1-1v-11l-1-1v-11l-1-1v-11l-1-1v-10l-1-1v-10l-11 2-15 5h-11l-1-1h-31l-1-1h-24l-1 1h-21l-1 1-43-1-1-1h-9l-1-1-16-1-1-1h-7l-33 11h-8l-6-2-15-7zm367 292-1 2q1 2 2 1zm-90 2v1h2z" opacity=".992"/><path fill="#0e0906" stroke="#0e0906" d="m347.5 49 1.5.5q.9 4.6 4.5 6.5 7 2 11.5 6.5l1 3-3.5 4.5-14 10-8 3h-4l-3-1-3.5-3.5-.5-1.5-4 5q-1.8 1.7-6 1l-1-1-8-1-1-1h-6l-7 4h-2l-.5-1.5 5-6q-2.5-3.5-7.5-4.5l-5 4h-2l-1.5-3.5 4-1 1-2q-2-1-1-5l4-3 4.5-5.5 9-3h13l1-1h20zM297 66q-2 2 1 3t3-1q-1-3-4-2Zm9 1q-2 3 2 4l2-1v-1zm58.5-12q4.8.3 6.5 3.5l-.5 1.5h-2l-3.5-2.5zm16 10 .5 2.5h-1zm127 21 .5 1.5-2.5 3.5-3 1-.5-1.5zm-135 23h10l4.5 1.5-11.5 4.5h-4l-5 2h-5l-1 1q-4.7-1.3-6 1h-6q-1-3-6-2-2 4-8 4l-4.5-3.5.5-2.5q4 1 5-1h13l5-2h5l1-1q4.7 1.3 6-1h6zm81 2h6l1.5 1.5q.5 3-1.5 3.5l-11 6-17 5-10 7q-3.2-.7-4 1h-23l-1-1-1.5.5 2.5-3.5 3-1 13.5-.5.5-2.5 7 1 7.5-4.5 3.5-4.5h6zm-142 4h7l3 1 4.5 4.5-.5 1.5h-4l-4-2-1 3-3-2q-4.7.8-6.5-1.5-.5-3 1.5-3.5zm89 1q5.3-1.2 6.5 1.5v2l-2.5 3.5-8 3-9 1-1 1h-11l-1 1h-15l-11 5h-5l-3-2h-14l-2.5-1.5-1-3 16.5-1.5 9 4 3-4 9-2 1 1h15l3-2h9q.8-1.7 4-1z" opacity=".992"/><path fill="#816837" stroke="#816837" d="m342.5 4 4.5.5-4.5.5-1 1h-6V5h6zm42 0q3-.5 3.5 1.5l-1.5.5-2.5-1.5zm-58 1 3.5.5-3.5.5zm68 0 1.5.5q-1 2.5-2 1zm-80 1 3.5.5-3.5.5zm5 0 4.5.5-4.5.5zm82 0q1.5 1-1 2l-1.5-.5zm-98 1 2.5.5-2.5.5zm5 0 3.5.5-3.5.5zm-16 1 1.5.5-2.5 1.5q-1.5-1 1-2Zm-13 1 3.5.5q-1 2.5-5.5 1.5v-1zm-16 1 5.5.5-8.5 1.5v-1zm-10 1 2.5.5-3.5 1.5q-1.5-1 1-2Zm-19 4q1.5 1-1 2l-5 2v-1zm164 0 .5 1.5-1.5.5q-1.5-1 1-2Zm-70 3q2.5 1 1 2l-1.5-.5-.5 1.5-.5-1.5zm85 0 3 1 1.5-.5-1 1 .5 1.5-3-1q-2.5-1-1-2Zm-48 1 5 1q1.3-2.2 2.5.5-1.2 2.8-2.5.5-5.5 1-5-2Zm93 1 1.5.5-.5 1.5-2.5-.5zm-71 2 1.5.5q-2.1 2.4-7.5 1.5v-1q4.8 1.3 6-1Zm5 1 1.5.5-2.5 1.5q-1.5-1 1-2Zm79 0 2.5.5-2.5.5zm-188 1 1.5.5q-1 2.5-2 1zm114 0 2.5.5-2.5.5zm7 1 1.5.5-2 1 4.5.5 1 1h4l1.5-.5-.5 1.5 3-1v2l5 2 1.5-.5-1.5 1.5-4 1v-1l1.5-.5-3.5-.5-2 1v-1l1.5-.5-5.5-1.5-1.5.5.5-1.5-3 1v-2l-4-1-1.5.5zm-174 1 2.5.5-2.5.5zm108 1 11.5.5-11.5.5zm-5 1 1 1h25l1.5-.5-.5 1.5q4 1 5-1h11v1l-11.5.5 8 1-2.5 3.5-2 1v-2l-3 1v-2l-4 1v-1l1.5-.5-4.5-1.5h-7q-1.2 2.2-6 1v-1l5.5-.5-16.5-.5q-2.5-1-1-2Zm-114 1q1 2 2 0l2.5.5-3 2 .5 1.5-3-1v2l-2-1v2l-2.5-2.5 1.5-1.5 1 1zm86 0q1 2 5 1l1-1h6l2.5 1.5-1.5.5q-1-2-5-1v2q-.7-1.7-4-1v2q-.7-1.7-4-1v1l1.5.5-1.5.5q-.7-1.8-4-1l-4.5 1.5 2 1-1.5.5q-1.2-2.3-6-1v1l2.5.5-2.5.5-1-1h-6v1l1.5.5-1.5.5q-.7-1.7-4-1v1l1.5.5-1.5.5-3-1v2l-3-1v2l-2.5-1.5 2-1-.5-1.5-2.5-1.5 1.5.5h3l3.5-1.5-.5-1.5q1 2 5 1v-1l-1.5-.5 1.5-.5 1 1h13l4.5-1.5-.5-1.5q.8 1.8 4 1zm-55 1q1 2 5 1l2-1v1l-5.5 2.5.5 1.5-2-1v2q-.7-1.7-4-1l-3.5 1.5.5 1.5-2-1v2l-3-1-2 3q-4-1-5 1l.5-1.5-2-2 .5-.5 3 1v-2l2 1v-2l3 1 2.5-1.5-.5-1.5 2 1v-2l3 1 2.5-1.5-.5-1.5 3 1zm126 1 3.5.5-1.5 2.5-1.5.5.5 1.5q-2.7-1.2-.5-2.5zm74 0 3.5.5-3.5.5zm26 0 2.5 2.5-.5.5-2-2-1.5.5zm-21 1v2l3 1 1.5-.5-.5 1.5 2 1 1.5-.5-.5 1.5 3 2q1.3-2.2 2.5.5l-1.5-.5-2 2-.5-.5.5-1.5-2 1v-2l-2 1v-2l-4-2-1.5.5.5-1.5-2 1v-2l-2 1q-1.5-1 1-2zm-68 2 6.5 1.5.5 2.5 1.5-.5.5-1.5 3-1v2l2-1 1.5 1.5-.5 1.5 5-1v1l-1.5.5 3.5.5 1.5-.5-.5 1.5 2-1v2l2-1v2l2 1 1.5-.5q-1.2 2.8-2.5.5l-7-3h-6l-3 4v-2l-2 1v-2l-2 1v-2l-4-1-1.5.5.5-1.5-2 1v-2l-1.5-.5.5-1.5 1.5-.5-2-1zm-120 2 2.5 1.5-1.5.5q-2.5-1-1-2Zm104 0 2.5.5-2.5.5zm61 0 5.5.5-5.5.5zm-168 1 2.5 1.5-1.5.5q-2.5-1-1-2Zm176 0v2h2l3 3q1.3-2.2 2.5.5l-.5 1.5 2 1q1.3-2.2 2.5.5l-.5 1.5 2 1 1.5-.5q-2.2 1.3.5 2.5l2 1 1-1 2.5 2.5q-2 1 0 2l.5 1.5 1.5-.5q-2.3 1.2-1 6-2.5.5-2 4l1.5-.5 1.5 1.5-.5 1.5 4-1v1l-2.5 1.5 1 2-1.5 1.5-1.5-.5-1 2 .5 1.5-1.5-.5-1 3 2 1-1.5.5-2-1v2l-1.5-.5-1.5 2.5q-5.5.5-7.5 4.5l1 3-1 2 2.5.5 1.5-2.5h-2q.8-2.2 4.5-1.5l1.5 3.5-1.5-.5-1 1-1.5.5.5 1.5-2-1-5.5 3.5.5 1.5-1.5-.5-.5 1.5-.5-1.5 4-4 1-4-1.5.5-3-1-3 4h-3l-3.5-2.5 1.5.5 3.5-.5-.5-1.5 2 1v-2l2 1v-2l2 1-.5-1.5 2.5-2.5 1.5.5-.5-3.5-1.5.5 1-2-3 1 5.5-5.5 1.5.5 1-2-.5-1.5 1.5.5-1-2h2l2-5-.5-1.5 1.5.5-.5-2.5-1.5.5 1-1-3.5-3.5q-1.2 2.3-2.5-.5l1-1-.5-1.5q2.2 4.7 8 6 2.3-.7 1.5-4.5-4.1-7.4-10.5-12.5l-3-1-4 3-2-2q-1.2 2.3-2.5-.5l.5-1.5-2-1-1.5.5.5-1.5-2 1-2.5-2.5 1.5-1.5h8zm-8.5 2q-2 1 1 2l2-1zm6 1q-2 1 1 2h2q0-2-3-2Zm16 35v2q3 1 3-1zM258.5 38l1.5.5-2 1 2.5.5 2-1v1l-3.5 1.5 6 3-1.5-.5h-2l-7.5 4.5.5 1.5-2-1v2q-1-2-2 0l-1.5.5.5 1.5q-1-2-2 0l-1.5.5.5 1.5q-.7-1.8-4-1v1l2.5.5-2.5.5-2-1v2l-1.5-.5.5 2.5 1.5-.5q-2 1 0 2l-.5 2.5-1.5.5 2 1-1.5.5-3-1v2l-3-1-1.5 1.5q2 1 0 2l-.5 1.5-1-2-.5 2.5 1.5 1.5 1.5-.5-.5 1.5 2-1-.5 1.5-.5 3.5-3.5-3.5q-1.7-1.8-1-6l-2.5-3.5q-2.2 1.8-1.5 6.5l-2.5 2.5q-3 .5-3.5-1.5h2l-1-4h1l.5 1.5.5-5.5-1-2h1l.5 1.5.5-2.5-.5-1.5q1.3 2.3 2.5-.5l-.5-1.5 3 1 5-5q1 2 2 0l1.5-.5-.5-1.5 2 1v-2l2 1v-2l2 1v-2l2 1v-2l3 1 2.5-1.5-.5-1.5 2 1v-2l2 1 4.5-3.5-1-1zm61 2q4.8-.7 6.5 1.5l-2.5.5q-.7-1.7-4-1zm29 0 4.5.5-4.5.5zm7 0 2.5.5-2 1 2.5.5q1.2-2.2 2.5.5l-1.5 3.5-5.5-4.5zm135 1q1 2 2 0l1.5.5.5 1.5 1.5-.5-1 2h2l-1 3h2l-1.5 1.5-5-5-1.5-.5 1-1zm-271 1 3.5 1.5-1.5 2.5-1.5.5.5 1.5-3.5-2.5 3-2zm85 0q2.5 2 8 1l1-1h6v1h-3l-4 2-13 1-5 2-2.5 2.5q-1.3 4.8 1 6l-3 3 .5 1.5q-1.5-2.5-3 1l-1.5.5 1 2h-2l.5 3.5 1-2 .5 1.5-2 3 .5 1.5-3-1 .5 1.5-.5 1.5h-2l-8-8q-2.2-1.8-7-1l-5 5-1.5-.5-1.5 4.5-1-1-1.5.5 2-2-.5-1.5 1.5.5 2-5h-2l1-1-2-2 .5-.5 2-1v2l2-1v2l5.5-.5-.5-1.5 1.5.5-2-6 1.5.5 1.5-1.5-.5-1.5q1 2 2 0l4-2-.5 1.5-3 7 6.5 6.5 4 2h3l.5-.5-3-3-2-6 2.5-.5 4 2q2.5-1 1.5-5.5-2.7-4.8-10-5l2-1-1-1 2.5-2.5 3 1 2-1 3 1v-2l1 1h7v-2q.8 1.8 4 1v-1l-1.5-.5 1.5-.5q.8 1.8 4 1v-1q-2.4-.1-1-1Z"/><path fill="#816837" stroke="#816837" d="m341.5 42 8.5.5-1 2 3 2 3.5 6.5q6 1 7-3l2 1 2.5-2.5-.5-1.5 1.5.5 1.5-2.5 1.5.5-.5 1.5q3.3.8 4-1v2l2.5.5-4.5 2.5-3-2-.5 3.5 3 4q-1 2.5-2 1 2.3-1.2-.5-2.5l-2-1-1.5.5.5-1.5q-3-.5-3.5 1.5-.7 4.8 2.5 5.5l1.5-.5-.5 1.5 2-1v2q4.3.8 5-2l.5 1.5-5 4q-.5 3 1.5 3.5 5.3.8 7-2l1 1 3-1 1.5 1.5-5.5 3.5q-6.5.5-10 4h-8l-4 2q-2.5-1-1-2 1 2 2 0l2.5-1.5-.5-1.5q1.5 2.5 3-1l3-2v2l2.5-1.5-1-3q2-1 1-5l-1.5.5-1.5-1.5q2.3-1.2-.5-2.5l-2 1v-2l-2 1v-2l-2 1 .5-1.5-1.5-1.5-2 1v-2l-3.5-2.5q.5-3-1.5-3.5l-2 1-2-1v2q-.7-1.8-4-1v1l1.5.5-1.5.5-1-1h-14l-1 1h-15v-1h14l6-2 3 1 4-3h4l2 1 .5-1.5-3-3zm-49 2 2.5.5-2.5.5zm111 1 4 1 6.5 5.5 8.5 13.5q6.6-1.4 10-6l1.5 8.5h-1q.5-3-1.5-3.5h-2l-3.5 3.5-1 4 1 3-1.5-.5-6-3-2.5-2.5h2l-1-5q1.8-.7 1-4h-2l1-2h-2q2-1 0-2l-1.5-2.5q-1.2 2.3-2.5-.5 2.3-1.2-.5-2.5l-2-1-1.5.5q2.3-1.3-.5-2.5l-2 1v-2q-2.4-.1-1-1Zm69 2 2.5 1.5q-.5 3 1.5 3.5l1.5-.5q-.5-3 1.5-3.5l-.5 1.5 1.5 1.5 1.5-.5q-2 1 0 2l.5 1.5 1.5-.5-1 2h2l-1 3 1.5 2.5 1.5-.5q-1.2 2.8-2.5.5l-3.5.5q-1 4.5 1.5 5.5l2.5-1.5.5-1.5 1 2 1-2 .5 1.5-1 1v6l1 2h-1l-.5-1.5-.5 3.5.5 1.5-1.5-.5 1 2h-2l1 2h-2l1.5 3.5 1.5-.5-2.5 3.5v-2l-3.5 1.5-2 5q2.3 1.3-.5 2.5l-1-1-2 2-.5-.5q3.6-1.9 4-7l-3.5-2.5-5 6 .5-1.5 1-2-.5-1.5 1.5.5-1-2h2l-1-2h2l-1-2h2l-1-2h2l-1-2 1.5.5 1-1q5.3 1.3 6.5-1.5l-.5-2.5q-3.2-.7-4 1l.5-1.5-1-1 1-1-1-2q2.3-1.2-.5-2.5l-1.5-.5 1-2-1-1 .5-1.5-2.5-1.5-.5-1.5-1.5.5 1-2h-2q1.7-.7 1-4l-2-3h2zm2.5 8v3h2v-1zm4 27q-2 1 1 2h1zm-57.5-34 3 2 1.5-.5q-2.2 1.3.5 2.5l2-1 1.5 1.5-.5 1.5 2-1q1.5 1-1 2l-6-1-3.5-3.5zm-210 2 2.5 1.5-1 2h2l-4 3 .5 1.5-3-1-3.5 2.5.5 1.5-1.5-.5 1 2h-2l-1 6q2 1 1 5l-1 3h2l-1 3h2l-1.5 3.5q-4.2-1.7-2.5-9.5 1.8-.7 1-4-.7-2.2-4.5-1.5l-6 5q-2.5-1-1-2l1.5.5-1-3h2l-1-2h2l-1-2h2l1-2-.5-1.5 1 1 5.5-5.5q-2.2-1.3.5-2.5l2 1 4.5-2.5-.5-1.5q.8 1.8 4 1v-1q-2.4-.1-1-1Zm93 1 4.5 1.5-2.5.5-2.5-1.5z"/><path fill="#816837" stroke="#816837" d="m327.5 51 6.5.5-6.5.5zm118 0 3.5 3.5-.5.5-1-1-1.5.5 1-1-2-2zm-56 2 1 2 1.5-.5-1 3 2.5 3.5 4.5.5 1 2h-2l1 2h-2l-1 2 .5 1.5q-2.7-1.2-.5-2.5l-1.5-2.5q-3.5-.5-4 2l-.5-1.5 1-1v-8q-1.7-.7-.5-2.5Zm-210 2 2.5 2.5-1.5 1.5q-1.2-2.2-2.5.5l1 2-1.5-.5-1.5 1.5-1 4 .5 1.5-1.5-.5-.5 9.5q-.7-2.7-5-2-3 .5-2.5 4.5l3 3-1 1 .5 1.5-1.5-.5 1 2-1.5-.5q-3.7.8-4.5-1.5l1.5.5 1.5-.5-.5-1.5 1.5.5q.6-4.1-1.5-5.5l-1.5.5 2-2-.5-1.5q1.3 2.3 2.5-.5l-1-2 1.5.5 1.5-1.5-1-2 1.5.5 1.5-1.5-1-2h2l-1-2h2l-1-2h2q1-4-1-5l1.5.5 2.5-.5-.5-1.5 3 1zm255 3 .5 4.5h-1zm65 0 1.5.5-.5 1.5-1.5-.5zm-119 6 1.5.5-2.5 1.5q-1.5-1 1-2Zm-232 1 2.5 1.5-2 3v2l1 2h-1l-.5-1.5-.5 5.5h2l-1 2 .5 1.5-6.5-1.5 1-1-.5-1.5 1.5.5 1-5-.5-1.5 1.5.5-1.5-3.5-2.5-1.5 1.5.5 2 1 2.5-1.5zm157 2 1.5 2.5q-1 1.5-2-1zm-164 2 .5.5-2.5 2.5-.5-1.5zm361 0-.5 1.5.5 2.5 1.5-.5-1 3h2l-1 3h2l-1 2h2l-1 2h2l-1 2h2l-.5 1.5 1.5.5-.5 1.5-3-3-1 1-2.5 1.5q2.3 1.2-.5 2.5-1.3-2.2-2.5.5l-.5 1.5-3.5.5 5.5.5 1.5-.5q-1.2 2.8-6.5 1.5l-2-1-3 2-.5-.5 2-2-1-1 .5-3.5 1 4 1-6 2.5-.5-.5-1.5q1 2 5 1v-1l-1.5-.5 1.5-.5 1.5.5-.5-3.5-1.5.5q2.3-1.2 1-6h-1l-.5 2.5-.5-2.5q1.7-.7 1-4zM497 87l-1 2q-2 1 1 2l1-3zM392.5 71l.5.5-2 2-.5 1.5-.5-1.5zm41 1 1.5 2.5q-1 1.5-2-1zm-167 1q3-.5 3.5 1.5l-3.5.5zm24 0 6.5 3.5-2.5 3.5-.5-1.5 1-2q-.5-2-3.5-1.5l-3 2q-2.5-1-1-2 1 2 2 0l1.5-.5zm109 0 3 2 1.5-.5-1.5 3.5-1.5-.5q2.3-1.2-.5-2.5l-1.5.5 1-1zm-210 1 1.5 1.5v5l1 3-1.5 2.5-1-4-1 2-.5-1.5 2-4v-3zm29 1 2.5 5.5-2.5 1.5v-2l-2 1 .5-1.5-2-2 .5-.5 1.5.5zm40 0 3 1 9 4 2.5 2.5 1 3-2 4 2 1-1.5.5-3-6-3 1v-2l-5 1v-1l1.5-.5-4.5-.5-1.5.5.5-1.5-3 1v-3l3-1v1l-1.5.5 5.5.5 1.5-2.5-1.5.5-3.5-3.5zm174 0 1.5 1.5-3.5 3.5-1.5-.5-.5 1.5-.5-1.5zm-158 1q3-.5 3.5 1.5l-.5 1.5q-3.7.8-4.5-1.5zm117 0 .5 3.5h-1zm-63 3q1 2 2 0l2.5 2.5-.5 1.5 2-1v2l3.5.5-3.5.5-4-2-1 1-6 1v-1l2.5-.5-.5-1.5 2 1 1.5-2.5zm56 0 1.5.5 2 4q-1 2.5-2 1l.5-1.5-2 1v-2l-3.5.5.5 1.5-1.5-1.5 2.5-2.5zm-147 1q1 2 2 0l2.5.5-3 1 5.5 1.5 1.5-.5-1 3h1l.5-1.5.5 1.5-2.5 1.5-1-2-3.5.5q-.5 3 1.5 3.5l1.5-.5-.5 1.5 2 1 1.5-.5q-1.2 2.8-2.5.5-4.8-1.7-7.5-5.5l-1-2zm64 1 1 1h8l2-1q1.5 1-1 2h-9q-2.5-1-1-2Zm108 0 1.5 1.5-3 3-.5 1.5-6 2q-2.5-1-1-2l2 1v-2l2 1 1.5-1.5-.5-1.5 2 1 1.5-1.5q-2.2-1.2.5-2.5Zm-189 1 8.5 6.5-2.5 1.5v-2q-3.2-.7-4 1v-2l-1.5-.5zm73 0 1 2 1.5.5-2 1q2 1 0 2l-3 4v2l6 4-1.5-.5q-6.8-1.3-10 1v-1l1.5-.5-.5-1.5-1.5.5 1.5-1.5q1 2 2 0l1.5-.5-1-2 .5-1.5-3.5-.5 4-3 1.5-2.5 1.5-.5zm23 0q1.5 1-1 2l-1.5-.5zm-34 1 .5 1.5-1.5 2.5-1.5-.5zm109 0 .5 2.5-2.5 1.5-.5-.5 2-2zm-12 1 1.5 3.5h-1l-.5-1.5-1 3-2.5-.5zm-221 1 2.5 1.5-1.5-.5q-2.4-.1-1-1Zm45 0-.5 1.5-.5 1.5-.5-1.5zm251 2 1.5 2.5h-1zm-262 1 13 13 5 3q2.3-.7 1.5-4.5-3.7-1.7-.5-3.5v2l2-1v2l2-1v2l2-1v2l2-1 .5.5-3 3q.4 5.2 4 7l-.5.5-2-2-2 1v-2l-2 1v-2l-2 1v-2l-2 1v-2l-2 1v-2l-2 1-4.5-4.5q2.3-1.2-.5-2.5l-7.5-6.5-.5-1.5q-1.2 2.3-2.5-.5zm127 0 4.5.5-5.5 6.5-4-1-1.5 2.5.5 1.5-2-3-2.5.5q.8 3.8-1.5 4.5v-2l-2 1v-2l-2 1 .5-1.5 2.5-4.5 5 1zm-2.5 5v1h2zm45.5-5 2.5.5-1 1 .5 1.5h-10l-1.5 1.5-.5 2.5-2 1v-2l-4-1-1.5.5 4.5-2.5h4zm13 2 2.5.5-2.5.5zm-9 1q1.5 1-1 2l-4.5-.5 4.5-.5zm-92 1 4.5.5-4.5.5zm118 0 .5.5-2.5 2.5-.5-.5zm-158 1 1 2 3-1 4.5 5.5-6.5 2.5.5-1.5-2-2-.5-3.5-1 3-.5-2.5zm227 2q3 1.5 0 3l-1.5.5-1 3 5.5.5 4-3-.5 1.5 1 1-2.5 2.5-1.5-.5q-.7 3.8 1.5 4.5l2-1-.5 1.5 1 1-1.5 1.5-1-1-3 3-3-3-1.5.5.5-1.5-3.5-.5 1-2q-.5-3-4.5-2.5l-1 1-1-1-1.5.5 1.5-1.5q1 2 2 0l2.5-1.5q-2.2-1.2.5-2.5 1.5 2.5 3-1l3.5-1.5zm-277 1 2.5 1.5-1.5.5q-2.5-1-1-2Zm196 0 2.5 1.5-1.5-.5q-2.4-.1-1-1Zm-50 1 2.5 1.5-1.5-.5q-2.4-.1-1-1Zm141 0q2.5 1 1 2l-1-1-1.5.5zm-111 1 2 1 1-1h7v1l-7.5.5-2.5 3.5-4 2h-4l-1-1-9.5-.5 9.5-.5q.8 1.8 4 1v-2l2 1-.5-1.5 1.5-1.5q1.2 2.3 2.5-.5zm-100 1 6 1 1.5-.5 2 3-1.5.5-8-3zm-11 1h5l5.5 4.5q-1 2.5-2 1l.5-1.5-2 1-1.5-1.5.5-1.5-1.5.5-2 3 .5 1.5-1.5-2.5 1-2h-2l.5-1.5-2 1q-1.5-1 1-2Zm175 0 1 1 1.5-.5-1 3 4 2-3 1 .5 1.5-6-3h-3l-1.5-1.5 1.5.5 2.5-.5-.5-1.5 2 1 2.5-1.5zm-203 1 1 2 2 1 1.5-.5-.5 1.5 2-1q3 1.5 0 3l-6.5-4.5zm171 0 2.5.5-2.5.5zm-208 1 2.5 2.5-.5.5-2.5-2.5zm108 1 2.5.5-2.5.5zm36 0 2 1 6.5.5q-3 3-10.5 1.5v-1l3.5-.5-2-1zm82 1 2.5.5-2.5.5zm-106 1 2.5.5-2.5.5zm82 0 1.5.5.5 2.5 1-1 2.5 2.5-.5 1.5 3-1 2 1 2.5-2.5-.5-1.5 1.5 1.5-3.5 3.5h-4l-1 1-7 1q-2.5-1-1-2l3 1-.5-1.5 2-2-.5-.5-2 1v-2q-3.2-.8-4 1h-7v-1h6zm-74 1 5.5.5-5.5.5zm88 0 2.5 1.5-1.5.5q-2.5-1-1-2Zm-168 1 1 2 4 2 1.5-.5-.5 1.5 2-1v2l2-1v2l2.5 1.5-2.5 4.5-1-1-5.5-.5 6-1-3-1v-2l-4.5-4.5-3.5-1.5zm37 1 .5 1.5-1.5.5q-1.5-1 1-2Zm86 1q5.3-1.2 6.5 1.5l-1.5.5q-1-2-5-1zm11 0 2.5.5-2.5.5zm46 0 4.5 1.5-1.5.5-3-1v2q-1.3-2.3-2.5.5l.5 1.5-1.5-.5v3l2.5 3.5 2-1q1.5 1-1 2l-3.5 1.5.5 1.5 2.5.5-3 4 .5 1.5-1-1-7.5-.5 2-3-.5-1.5 2 1-.5-1.5 2.5-2.5 1.5.5 1-3h-2l1-2-1.5.5-1.5-1.5 1.5-2.5 3.5-1.5.5-1.5zm-216 1 2 3 2 1 1.5-.5-.5 1.5 5 2 1.5-.5-.5 1.5 2-1v2l3-1v2l2-1v2l3-1v2l2-1v2l2-1-.5 1.5 1.5 1.5 2-1 .5.5-2 2-.5 1.5-2 1v-2l-3 1v-2l-2 1v-2q-3.2-.7-4 1l-3-1-1.5.5.5-1.5-2-1-1 1-2.5-2.5.5-1.5-2-1-2 1q-4.2-2.8-2-10Zm5.5 7-1 1 6 5q2 2 9 1v-1l-7-3-5-3zm150.5-7 3.5 1.5-2.5.5q-2.5-1-1-2Zm-69 1 12.5.5-12.5.5-2 1v-1zm66 0 2.5 1.5-1.5-.5q-2.4-.1-1-1Zm89 0 .5 1.5-4 3 .5 1.5-6.5.5 2 1-1.5.5q-1.2-2.2-2.5.5l.5 1.5-1-1-3 3-.5-.5 1-1-3-3 .5-.5q1 2 2 0l2.5-.5-2-1 1.5-.5 3 1v-2l3 1v-2l2 1 2.5-1.5.5-1.5 1.5.5zm-180 2v2l3-1v2l3-1q1.5 1-1 2-3-.5-3.5 1.5v2l3 3-2.5.5-3-3q-5.4.9-7.5-1.5l.5-2.5 5.5-.5-.5-1.5 2 1-.5-1.5zm43 0 5 4 1.5-.5-2.5 4.5q-1-2-5-1l-2 1q-2.5-1-1-2l2 1-.5-1.5 2-2-1-2zm38 0 6.5.5-6.5.5zm-18 1h7l1.5 1.5h-2l.5 2.5q1.3-2.2 2.5.5-2.2 1.3.5 2.5l1.5.5-4 2 .5 1.5q-7-1.5-8.5 2.5l.5 1.5 1.5-.5-1 2h2l-.5 1.5 1.5.5-7.5.5q-2.5-1-1-2l1.5.5q.8-3.7-1.5-4.5l-2 1v-2l-2 1q-2.7-1.2-.5-2.5l.5-1.5 2 1 1.5-.5-.5 1.5q3 .5 3.5-1.5l.5-1.5q1 2 2 0l1.5.5-2 1 5.5.5v-2l1.5.5-.5-2.5-1.5.5 1-1-3.5-3.5-1.5.5.5-1.5-2 1q-1.5-1 1-2Zm-184 3 .5 2.5h-1zm208 0v2l2-1v2q1.8 1.7 6 1v-1l-1.5-.5 1.5-.5 4.5 1.5-1.5 2.5-2.5.5.5 1.5-2-1-2 1-4-5q-3-.5-3.5 1.5l-1.5 3.5-8.5-.5 1.5-2.5q5.3 1.3 6.5-1.5-2.2-1.2.5-2.5l2 1zm52 0 .5.5-2.5 2.5q-1-2-2 0l-2.5.5.5 1.5-4.5-1.5 7.5-2.5q1.5 2.5 3-1Zm63 0q2.5 1 1 2l-1.5-.5v6l1 1h-3l.5-1.5-3.5.5.5 1.5-1.5-1.5q3.5-1.5 1-3l-1-2 1.5.5 1.5-.5-.5-1.5q1 2 2 0zm-180 1 2.5.5-3.5 1.5q-1.5-1 1-2Zm9 1 3.5.5-4 1 8 1-1 3 2 2-.5.5-3 1v-1l1.5-.5-5.5-.5-1 1h-6v-1l6.5-.5q-2-1 0-2l-2-3zm-92 2 .5 1.5-1.5.5q-1.5-1 1-2Zm50 0 3.5.5-3.5.5zm129 1 2.5 1.5-1.5-.5q-2.4-.1-1-1Zm-150 1 3.5.5-3.5.5zm140 1 8.5.5-8.5.5zm-137 1q3-.5 3.5 1.5l-1.5-.5q-3 .5-2-1Zm209 0 2.5 1.5-2.5.5-4.5 3.5 1 3q-1 2.5-2 1l.5-1.5h-2l-4 4v-2q-3.7.8-4.5-1.5l1.5.5 1-1 3.5-2.5-.5-1.5 2 1v-2l2 1v-2l3 1v-2l2 1zm-159 1 1.5.5-.5 1.5q-2.5-1-1-2Zm29 0 2.5 1.5-1.5-.5q-2.4-.1-1-1Zm87 0 1.5 2.5-3 1 .5 1.5-2-1-2 1q-2.5-1-1-2l2.5-.5-2-1 1.5-.5q.7 1.8 4 1zm-155 1q1 2 5 1l2-1v1l-1.5.5 5.5.5 2-1v1q-6.1.9-9.5 4.5l1 3q-1 2.5-2 1l1-3-.5-.5-2 2-3-1 .5 1.5 1 2-1.5.5-1-2-2 1-.5-3.5 4-2-2-3 4-1z"/><path fill="#816837" stroke="#816837" d="M275.5 127q3-.5 3.5 1.5l-1.5-.5-4 1v-1zm-51 1 4.5 1.5-2.5 1.5v-2l-3 1q-1.5-1 1-2Zm80 0 3.5.5-3.5.5zm78 0 3.5.5-3.5.5zm58 1 2.5 1.5-1.5-.5q-2.4-.1-1-1Zm-177 1 2.5.5-2.5.5zm175 0q2.8 1.3.5 2.5l-.5 1.5-2.5-.5.5-2.5zm-207 2 2.5 2.5-.5.5-2.5-2.5zm44 0 1.5.5-.5 1.5-1.5-.5zm52 0 2.5.5-2.5.5zm-114 1v2l3-1v2l2-1v2l2-1q2.8 1.3.5 2.5l-1.5 2.5-2-2-1.5.5q2.3-1.2-.5-2.5l-2-1-1.5.5.5-1.5-2 1q-1.5-1 1-2zm68 0 6.5 1.5-3.5.5-3-1zm160 0 1.5.5-2.5 1.5q-1.5-1 1-2Zm25 0 .5 4.5h-1zm-175 1 6.5.5-6.5.5zm23 0 22.5.5-22.5.5zm31 0 1.5.5q-1.4 2.1-5.5 1.5v-1q3.3.8 4-1Zm34 0 1.5.5-2.5 1.5q-1.5-1 1-2Zm11 0 2.5 1.5-1.5-.5q-2.4-.1-1-1Zm30 0 2.5 1.5-17.5.5v-1h14zm-20 2 3.5.5-3.5.5zm-173 3 2.5 1.5-1.5.5q-2.5-1-1-2Zm80 3 2.5.5-2.5.5zm41 0 2.5.5-2.5.5zm61 0 3.5.5-3.5.5zm-274 8 .5 2.5h-1zm332 0 .5 3.5h-1zm-281 8 .5 15.5h-1zm282 5 .5 2.5h-1zm2 1 2 3h2l2 2 18 6h3l6 2 5 3 10 3 1-3 1 5 1-2 .5 1.5q-2.2 1.3-1 6h1l.5-1.5.5 1.5q-2 1-1 5h2l-1 2 1.5 2.5 1.5-.5q-2.2 1.3.5 2.5l1.5.5-1 1 2.5 2.5 3.5 2.5-1 1 3.5 3.5 4.5 3.5 9 11 31 33-.5.5-12-12q-1 2-2 0l-19-7h-3l-9-3-5-3-6-2h-3l-18-6-5-3-21-6-1.5-1.5-.5-2.5-1 9-3.5-38.5 1-1v-7h-1l-.5 1.5-.5-3.5 1-1zm-336 2 .5 2.5h-1zm60 12 .5 18.5h-1zm-61 3 .5 3.5h-1zm51 11 .5 20.5 1 1v25l-1 1-.5 6.5-1-7-1 2h-112l-1-1-3 1-12 10-.5-.5 5.5-5.5 33-29 1 1 3.5-3.5 2.5-3.5 1 1 3.5-3.5 2.5-3.5q1.5 2.5 3-1l2.5-1.5q-2.3-1.2.5-2.5 1 2 2 0l2.5-1.5q-2.2-1.2.5-2.5l2 2h64z"/><path fill="#816837" stroke="#816837" d="M131.5 194q1.5 1-1 2l-2.5-.5zm333 27 .5 2.5h-1zm10 7 .5 4.5h-1zm106 34 9.5 9.5-.5.5-9.5-9.5zm-90 27-.5 1.5.5 1.5 1.5-.5-1 2 3.5 5.5 1.5-.5-1 2h2l-1 2h2l-1 2h2l-.5 1.5 1.5.5-.5 1.5 1.5.5q-2 1 0 2l2.5 4.5 1.5.5-.5 1.5 1.5.5-.5 1.5 1.5.5-.5 1.5 1.5.5-.5 1.5 1.5.5 23 44q-1 1.5-2-1l-5.5-10.5q-1 2-2 0h-242l-1 1-4-11q-1 2-5 1l-1-1h-7l-1-1-4.5-.5-.5-1.5-3 5-7 2-2 2-7 2-2 2h-88l-1.5-.5-6.5 11.5.5-1.5 22.5-42.5 1.5-.5-.5-1.5 1.5-.5-.5-1.5 1.5-.5-.5-1.5 2.5-1.5-.5-1.5 1.5-.5-.5-1.5 1.5-.5-.5-1.5 1.5-.5-.5-1.5 1.5.5-1-2h2l3-6-.5-1.5 1.5.5-1-2h2l-1-2h2l-1-2 1.5.5 1.5-1.5.5-1.5.5 1.5-.5 1.5 308.5-.5-1-3z"/><path fill="#a68548" stroke="#a68548" d="m347.5 4 36.5.5-36.5.5zm-17 1 4.5.5-4.5.5zm58 0 5.5.5-5.5.5zm11 1q1.8 1.7 6 1l1 1h4l1.5 1.5-1.5.5-1-1-8-1-2.5-1.5zm-105 2 5.5.5-5.5.5zm-11 1 7.5.5-7.5.5zm130 0 2.5 1.5-1.5-.5q-2.4-.1-1-1Zm-144 1 7.5.5-7.5.5zm-13 1 3.5.5-3.5.5zm163 0 2.5.5-2.5.5zm-172 1 4.5.5-4.5.5zm176 0 2.5.5-2.5.5zm-181 1 3.5.5-10.5 2.5v-1l6-1zm185 0 2.5.5-2.5.5zm-30 1q3-.5 3.5 1.5l-1.5.5-1-1-1.5.5zm34 0 2.5.5-2.5.5zm4 1 2.5.5-2.5.5zm4 1 2.5.5-2.5.5zm4 1 2.5.5-2.5.5zm-114 1 1.5 2.5-2.5.5-.5-1.5zm85 0 4.5 1.5q-1.7 2.3-6.5 1.5l-.5-1.5zm.5 1v1h2zm32.5-1 4.5 1.5-1.5.5-3-1zm-220 1 .5.5-7 7-.5 3.5-1-1-3.5 3.5 1.5.5 7-4h2l2-2h4l.5 1.5-9.5 2.5-15 7q-1.5-1 1-2 6.4-3.1 10.5-8.5zm140 0q3.8-.7 4.5 1.5-1.5 3-7.5 1.5l-.5-1.5 1.5-.5q1 2 5 1v-1q-4 .8-3-1Zm86 0 2.5 1.5-1.5.5q-2.5-1-1-2Zm-74 1 9.5 3.5-1.5.5-1-1h-7l-1.5-1.5zm11 3q1.8 1.7 6 1l1 1h6l1 1 9 1 6 2 5.5 3.5-.5 1.5h-4l-1-1-7-1-11-5-6-2h-3l-2.5-1.5zm14.5 4v1l12 4h3l1 1h2l-1-2h-2l-6-3zm73.5-2 6.5 3.5-1.5-.5-5-2zm-168 3h9l1.5 1.5-3.5 1.5h-4l-1 1-7 1-4 2-21 3-12 4-16 8-5 4-7.5 2.5q-.5 3.5 2 4v3l-5.5 1.5-5.5 3.5 1.5 3.5 3.5 1.5q-1.7.8-1 4l4.5 3.5h4l2.5 2.5-.5 2.5-1-3-5-1-2-2-2.5 3.5 4.5 5.5 1.5-.5-.5-1.5q6.8 6.2 16 10l3 1h5l1 1 3-1 2 4 2 1h19l1 1h6l6 2 13 1q1.3-2.2 6-1l7-3h11l1 1h9l6-2 5-4 1 1h7l1-1h5l1-1h4l1-1 8-1 4-4 14-8 4.5-4.5 5-15-2-6-4.5-5.5-10-7-6-3h-2l-7.5-4.5.5-2.5 3-1h6l5 2 2 2 7 1 6 3 14 11 5.5 2.5-1 7 1 1v10l-5.5 6.5-1.5-.5q-1.8 7.2-7.5 10.5l-16 9-9 3-3-1q-1 2-2 0l-2.5 2.5q1.8.8 1 4l2.5 2.5 1.5.5-1.5.5q-3.7-1.3-4-6l-7 3h-6l-1 1h-7q-1 2-5 1-1.3-2.2-6-1v1l4.5.5-5.5.5-2-1v2l-2 1h-11l-1 1h-7l-2.5 1.5q-.5 3 1.5 3.5l3 2h5l6-4 5 3h4l1-1h5l1-1 10-1 1-1 7-1 6-3h2q1 2 5 1l1-1 4.5-.5-2-1 6.5-4.5q3.3.8 4-1h7l1-1 7-1q4.8-1.7 7.5-5.5l2-3-1-2 8.5-1.5 6-3 2.5-2.5-.5-3.5-1.5-.5q8.1-6.4 11-18l-4-3-7-10-6.5-6.5q-4.8-1.7-7.5-5.5l.5-1.5h9l3 1q5.2 6.3 13 10l6.5 6.5q1.8 2.2 1 7l-2 4 5 3-5 7v3l.5 1.5-2-1-2.5 1.5-2 11-1.5 2.5h-2l-8 5-1.5-.5-1.5 2.5-16 8q-1-2-2 0l-10 2-2.5 2.5v3l3.5 3.5q4.2-.7 6 1l1-2 3-2 12-4v1l-6.5 2.5 6.5.5v-2l2.5-1.5-.5-1.5 1.5.5 1.5-2.5 9-5 10-9 4-1 4.5-3.5 3-4 5-11 5-7-5-3 .5-1.5 5.5 4.5-2 3 4 1q.5 3-1.5 3.5-5.2-1.2-6.5 1.5l-4 9 .5.5 2-2 3.5 2.5-1 4q1 1.5 2-1l1.5-4.5.5 2.5-7.5 8.5-7.5 5.5q-.5 4 2.5 4.5l1.5.5-7 6-2 4q1.1 6.1-1.5 8.5l-1-2-7 1-5 3-7 2q-1-2-2 0l-3 1-.5-1.5 4-3-1.5-.5-7 3-5.5 4.5 4.5 1.5 3-3h2l3 1 4-1q1.5 1-1 2-4-1-5 1l-1-2q-3-.5-3.5 1.5l.5 1.5-7-1-2.5-1.5q5.1-.4 6.5-4.5l10-4 3 1v-1l-1.5-.5 11.5-3.5 6-3 5.5-5.5-2.5-3.5h-5l-18 8q-4-1-5 1l-2-1-6 7-4 2h-6l-2.5-1.5.5-1.5-2.5-.5.5-1.5 3.5-1.5-3-2-1-5 .5-1.5-5 3h-2l-1.5-.5-.5 1.5-1.5-.5-.5 1.5-5 4-3 1h-10l-3 2h-12q-1.3-2.2-6-1-1 2-5 1l-4.5 2.5-2.5 3.5-2-3-1.5.5-.5-1.5-20.5.5-1 2 1.5 2.5 4 2h13l4.5 1.5-7.5.5-1-1h-22q-1 2-5 1v-1h3l4.5-2.5q.5-4-2.5-4.5l-1.5-.5 1.5-.5 3.5 2.5q.8 3.3-1 4l7.5.5v-1l-2.5-1.5-1-3 2.5-2.5 6.5-.5q-2.2-1.2.5-2.5l2.5-.5-5-4 1-3-7.5-.5v1l6.5 5.5q.5 3-1.5 3.5-5.8 1.3-7-2l-2 3h-2l-3-2-1.5 2.5.5 1.5-10 2-1-2q-.7 1.8-4 1l-1-1q-4.8 1.2-6-1h-6l-2 1-2-1v2l-4 1-8-4h-7l-4-3-12-1-3-3h-8l-3-1-23-12L193 91.5l-4-6-1-7 6-15 6.5-7.5 6-4 6-1 2.5 4.5-10 5q-1.7 1.8-1 6l-3 7v7l2.5 2.5.5-.5-2-8h1l2 6v6l-2 3 5.5 5.5 12.5 6.5.5 1.5 2-1 8.5 5.5-.5 1.5 3-1 11.5 6.5.5 1.5q1-2 2 0h7l3-2h2l8 3 11.5 1.5-.5 1.5q2.8-2.2 9-1l1 1h8l4.5-3.5-1.5-2.5-2-1h-15l-1-1h-4l-1-1h-4l-3.5-1.5-.5-1.5-3 1-12.5-6.5 2-1q-1.2-2.7-6.5-1.5v1l2.5 1.5-1 3 3-1-.5 1.5-3 1q-3.2-1.7.5-3.5l-.5-1.5q-2.8-2.2-9-1-.7 1.7-4 1l-3.5-2.5v-4l-2.5-4.5-3.5-1.5q2.3-1.2-.5-2.5l-5-4q-2 .5-1.5 3.5l6 2-3.5.5-3.5-1.5q-.7-4.2 2-5l-7-3q.6-3.9 3.5-5.5l1.5-.5q-2-1 0-2l1-3v-5l2.5-5.5 4-1 1 1 6-6 12-6 4-1 10-7 7-1 2 1v-2l6-2h3l1-1h4l1-1h12l1-1h4zm1.5 1-1 1h-4l-5 2h-3l-1 1h-13l-1 1h-4l-8 3h2l1 2 6-2h3l1-1 12-1 1-1h3l1-1h3l1-1 12-2zm78 6-2 1-1 2 14 6 2-3h6l1 1h2l-2-2-7-1-4-3h-2l-1 2h-1l-1-2zm42 3v1l3 1-2 1q5 2 9 6l5-3-4-5-3-1zm-173 2-6 5-18 8-6 6-3-1-3 3-1 3v5l-2 4h3l2-2q-1-5 2-7l2 4q-1 4 1 6l4 3v-3l-1-1q-4 0-3-4l4-4 7-2-2-6 4-3 5-1 10-7 6-2-3-1-2-1 2-1zm145 5v1l3 1 7 6v-1l-6-6zm48 2-1 1 8 10q1 3-1 4l-3-1-1 1 2 2q-3 10-10 17l1 5-5 4q0 2 4 1l2-2-1-1q2-5 8-5l1-2 3-2 6-10q-4-1-5-3 0-4 2-4 1-5-1-7-4-5-9-8Zm-30 1-1 3 4 3 3 1h3zm-212 4-6 3q-8 5-12 15l1 2 5-4q3-1 4 1l2-8 10-6-1-2zm206 2-1 2q1 2 2 1zm2 3-1 2 2 5-2 6 8 4 1 1-1-3 1-4 4-4h2q2 0 1 4h1l-1-9q-4 5-10 6zM191 75l-2 5 2 6 1-2zm28 0-3 4 4 2h1zm188 10-5 3v1l6-2v-1zm65 3-2 3q1 1 2-1zm-21 1v2l-1 2-3-1-1 3-2 2h1l8-4q1 0 1-3zm-256 1-1 2 8 6zm246 0q-3 2-7 3 1 2 6 1l2-3zm7 0-1 2h3v-1zm-210 4-3 2q-1 4 3 5l5-1-3-4zm-26 4v2q1 3-1 4l-4-3-2 1 3 2 10 5h1l-2-3q-1-4 2-4zm247 0-7 6q4 0 5 3l-1 2h4l4 4 4-4-1-1q-3-1-2-4l3-3v-1l-3 2h-6l1-3zm-198 1v1l8 3h1l-2-3h-1zm101 0q-3 5-9 5v1h4l4-2 2-3zm64 2-8 4q4 0 7 2l5-1-2-1zm-169 1q-2 1 1 2h1zm74 2q-1 2-4 1v1q7 1 10-1zm82 5v1h2zm-2 1-1 2q1 1 2-1zm-174 1-1 1 3 3v2q3 0 5 2l1-3zm47 0v1h12zm31 2-1 2-4-1-1 2h-1l-2 3 5 3h3q0 2 4 2l1-3 3 2h5v-2l-4-5-5-3zm70 0v1h2zm-126 2q-2 3-8 2l-1 3q2 2 8 1l3 3h2l-3-3v-2l4-2zm45 0-4 5h5l1 1-1-2 1-2zm123 2-5 3 3 2 4-4zm-82 1-5 4h-5l-2 3h9l1-3 4-2zm114 0-3 2-1 2q2 1 0 2l5 1v-6zm-67 1v1h2zm-44 1-1 1 4 4 6-2v-1l1-2q-4-1-4 1-5 1-6-1Zm40 0v1h3zm-98 1v2l-1 2 2 1q4-1 7 1l-2-2 1-3zm-14 6v1h2z"/><path fill="#a68548" stroke="#a68548" d="M334.5 28h25l6 2h14l1.5 1.5q.5 3-1.5 3.5l-3 1h-7l-12-4h-6l-1-1-19.5-.5zm.5 1v1h16l1 1h7l12 4 2-3-7-1-6-2zm42 2v3h2l1-2zm-121.5-2 4.5.5-5.5 4.5h-2l-6 3h-3l-7 5h-4l-2.5-1.5 1.5-2.5h2l12-6 6-2h3zm-3.5 2-21 9q1 2 6 1l1-2 9-4h3l6-3zm222.5-2 5.5 4.5-.5 1.5q-3 .5-3.5-1.5l-2-4zm-25 3h5l3 1 11.5 8.5-.5 1.5-18-9q-2.5-1-1-2Zm3.5 1v1l11 6h1q-5-5-12-7Zm-128.5 7 28 1 2-1v2l4-1 2.5 2.5v3l2.5 3.5 3.5-2.5q-.5-3 1.5-3.5l1.5.5-5.5 6.5-2-1q-1 4-7 3l-5-8-1.5-.5 1-2-8.5-.5-.5.5 3 3-.5 1.5q-1.8-1.7-6-1l-4 3h-2q-1-2-2 0-4-1-5 1l-14.5.5 15.5.5 1-1h14l7-3q1.5 1-1 2l-6 2h-13l-1 1h-20l-9 3-1.5-.5-.5 1.5-5.5 4.5-.5 1.5-3.5 2.5 1 6-5.5 2.5q-1.5-1 1-2 3 .5 3.5-1.5l-.5-1.5q-.7 1.8-4 1-6.8-2.7-10.5-8.5l3-7-1.5-.5-5.5 4.5 1 5q-1.2 2.8-6.5 1.5l-4-2-.5.5 3 3 1 2q-1 1.5-2-1l-.5-1.5-2.5-1.5-1-3 1.5-.5 5 3h5l.5-1.5q-1.7-.8-1-4l1.5-2.5 12-6 2.5-2.5.5-1.5 4 2 4-2h7l9-3q4.7 1.3 6-1h10l3 1v-1q-2.4-.1-1-1ZM314 42l-1 1h-6l-5 2h-3l-1 1h-7l-4 2-2-1h-2l-5 4q7 0 10 5 1 4-1 5l-4-2-3 1q1 5 5 8l1-5 7-6q-2-2-1-6l3-3 5-2 13-1 7-2zm43 0-1 1 4 3v-2q0-2-3-2Zm80.5-2q3-.5 3.5 1.5l-2.5.5q-2.5-1-1-2Zm55 0 2.5.5v2l4 9-1.5.5-5-6-3.5-2.5.5-1.5zm.5 1-3 3h2l4 4-2-6zm-272.5 1 3.5.5q.5 4-2.5 4.5l-4 1q-2-.5-1.5-3.5zm.5 1-2 1q-3 2 0 3l3-1 1-2zm-26.5 3 1.5.5-2.5 1.5q-1.5-1 1-2Z"/><path fill="#a68548" stroke="#a68548" d="m370.5 46 7 1 3 2q1-2 2 0l4 1 4.5 3.5 2.5 6.5 5.5.5-2 6-6 10v3q2.8 1.7 2 7l-2.5.5-6-4h-3l-1.5 5.5-1.5 1.5-6.5-.5-.5-1.5-2 1-1-1h-6l-1 1-7.5 1.5 10.5.5v-2l1.5 2.5-12 1 1 3-3.5.5-6-3-7-1-1 2-2.5 1.5-1.5 2.5-5 1-3.5-1.5-.5-1.5-1.5.5-.5-1.5q-1 2-2 0l-4-1-5 6h-3l-8-4-5 2h-8l-2.5-1.5 4.5-4.5.5.5-.5 1.5-2.5 1.5.5 1.5 8.5-.5q-3.8-.2-5-3v-2l4-5-3.5-2.5-4 5-1.5.5 4 1-5.5.5-1 1h-11q-3.2-1.3-3-6l-6-1-1-1h-4l-6.5-3.5q.5-2 3.5-1.5 1.2 2.3 6 1l.5-1.5-8-6 3.5-2.5 1.5.5.5-1.5 1 1 5-5q4.8-.8 7 1l8 8 2.5.5.5 1.5 2 1 4-3 4-1 4.5 3.5-5 7 2.5 1.5 7-4h8v1l-8.5.5 9.5.5q.8-1.7 4-1l1 1h9l4-5 3 4 2 1h9q13.7-5.8 22.5-16.5 1-4.5-1.5-5.5l-8-4-6.5-5.5-1-3q1-1.5 2 1-.5 4 2.5 4.5l10 5-.5-1.5q-.7-3.7 1.5-4.5h2l3 2 .5-1.5q-1.7-.7-1-4l1.5-.5 3 2 3.5-2.5-3.5-1.5h-3zm-5.5 8q-2 3 0 5l4 2h3l-1-3-4-4zm26 1-1 9-1 1 1 1q0-3 4-2l2 3 2-5-4-1zm-17 5-2 2-5-1v2q1 3-1 5l1 2-1 2-2-1-7 5v1l3-1h8l5-3 9-3-1-1 1-1v-4l-3 2 1 3-2-2q-2 3-7 2-2 0-2-3l5-4zM258 71l-2 2q1 2 2 1zm9 2v2h3q0-2-3-2Zm25 1v1h2zm3 1v2l-1 2 1 1 2-3zm-33 1-1 1 2 2-1 2q-5 1-6-1l-2 1 5 2h4l1 1 6 1 1 2 1 3 2-4-1-3-2-3zm13 0-2 2q1 2 5 1v-1q0-3-3-2Zm110 3-4 3 5 1h1l-1-3zm-55 1-1 2-3 2h4q1-2 2 0h2zm-47 3-3 4h2l1-2zm109 0-1 2v1h1zm-68 1v1h2zm11 0v1h3zm44 2-3 3h3zm-59 2-8 5-5-1-3 5 5 2v-3l3-1 1 2v-1l4-3 3 1 4-5zm30 3-4 2 7 2 1-3zm123.5-44h3l4.5 2.5 6 12 1 11q-1.8.8-1 4l-3 5 3 6-2.5.5-2.5-1.5 1.5-.5 1.5.5-2-5 3-5q-.7-3.2 1-4v-6l-1.5-2.5-2 3-2.5-1.5.5-4.5 3.5-.5q-1.2-7.8-6.5-11.5l-1 3-2.5-1.5-.5-2.5-1.5.5-1 3 1.5 4.5 2-1 1.5 2.5-2 1 1.5 2.5 3.5 2.5q-1 2.5-2 1 2.3-1.2-.5-2.5l-3.5-2.5-3-9zm-287 5q1.5 1-1 2l-5.5 4.5-5 9v16l2 5h-1l-2.5-4.5-2 1-1-2-2.5 1.5-1.5 2.5q-5.2 1.3-6.5-1.5l5-2v-3l-2-4 2-1 6-9 2-4v-3l-2-1 8.5-2.5zm-8.5 5-3 1-1 5-3 6-7 9 2 2q0-4 3-5 4-1 5 2v-9l1-3 5-7zm-11 23-1 4-3 2h4v-1q4-3 0-5Zm-12.5-17 1.5.5-3 2-4 7v5l2 3v2l-1.5-.5-9.5-1.5 4-3 3-9-2.5-1.5-4 3-.5-.5 2.5-2.5q1.8-1.7 6-1zm-4.5 3-2 1v2l-2 4v3l-3 4h5l1 1h1l-2-3v-5l3-6zm350.5-2 1.5 2.5v3l3 9 4 7-1.5-.5-3 3-2.5 1.5-1 2 .5 1.5q-5.7-1.2-7 2l-.5-1.5 6-2 4.5-5.5 2.5-1.5-3-6-2.5-8.5-.5 3.5 1 1 1 9-1.5 1.5h-4l-3.5 1.5q1.3 5.8-2 7l1 2-8.5 5.5-.5-1.5 9-8q-1.2-5.2 1.5-6.5l7.5-1.5-1-9-1-1z"/><path fill="#a68548" stroke="#a68548" d="m296.5 67 2.5.5-.5 1.5-2.5-1.5zm10 0 2.5 2.5-.5.5-2.5-1.5zm94 6 2.5.5 1 4h-1q.5-3-1.5-3.5l-1.5.5 2 2-.5.5-1.5-.5-1-2zm53 2 3.5.5q-.5 2-3.5 1.5zm25 7 2.5 1.5-1.5.5q-2.5-1-1-2Zm-238 3 3.5.5-.5 1.5-3-1zm256 2 1.5.5-1.5 3.5q-2.7-1.2-.5-2.5zm10 3 .5.5-2.5 2.5-1.5-.5zm-327 1 4.5 4.5-.5.5-4.5-4.5zm2 8 2.5 2.5-.5.5-2.5-2.5zm9 2 4.5 3.5 1 4 5.5 5.5 8 4 7 2 8 5 1-1h6l4 4h5q1-2 5-1l1 1h5l1 1 6.5.5-2.5 1.5-2-1-1 2-3-1-1 2-2-1-1 2-2.5.5 1 3-.5.5-3-3-3 1v-1l3-1q1.5 2.5 3-1l7.5-3.5-10.5-1.5-4.5 1.5 2 3-4 2 .5 3.5 2-1 .5 1.5-12.5 4.5-1-2-3-1-.5 1.5.5 1.5-16.5-11.5 1.5.5 9 2q5.2 1.8 8 6 4.2-.7 6 1v-2l4.5-.5q1-5.5-2.5-6.5l-18-6-3 1-4-2-7.5-6.5.5-.5 2 2 1.5-.5-2-2 .5-.5h2l5 3 7.5 2.5-.5 1.5-7.5.5 3.5 1.5q.8-1.7 4-1l7 3 1.5-2.5-7.5-4.5h-2l-13-6-4.5-3.5-.5-1.5-.5 6.5 2 4q-1 2.5-2 1 .8-3.2-1-4v-9l-5-7zm39.5 24v1h2zm-5 3v1h2zm-11 7-1 1 7 5 1-2-5-4zm-75.5-31 .5 2.5h-1zm244 4h3l3.5 2.5-1.5-.5-5-1zm89 6 1.5.5-3 2 40.5 13.5 1-4 2 12 1.5-.5q-2.2 1.3-1 6l2 1q-2.2 1.3-1 6l2 1-1 5 2 1-1 4 2 3v6l1 1v6l1 1v6l1 1 1 10 4 6-.5.5-2.5-2.5-2-4v-4l-1-1v-5l-1-1-.5-4.5-1 3-10-3-5-3-6-2h-3l-18-6-5.5-3.5-.5-1.5-1 11-.5-11.5-1-1v-12q-2-1-1-5l1-1v-10l-2-2v-7h1l.5 2.5.5-7.5 1-1 .5-4.5zm-65 1 2.5 4.5-4.5 5.5-2.5 1.5-1 2 7.5.5 1.5-1.5-.5-1.5 1.5 2.5-2.5 1.5h-14l-3 3q-.8-2.7-5-2l-1 1h-16l-1-1h-6l-1-1-2 2q-3.2-.7-4 1l-.5-1.5 6.5-2.5h24l1-1h5l6-2 1.5.5.5-1.5 2 1 5.5-4.5 1-3-2-3zm-9.5 12-1 1-6 1q-2 1 1 2l6-2zm-259.5-7 .5 2.5h-1zm131 11 3.5 1.5-1.5.5-2.5-1.5zm182 0q1.5 1-1 2l-2.5-.5zm-97 1q1.5 1-1 2l-1.5-.5zm-76 1 3.5.5-3.5.5z"/><path fill="#a68548" stroke="#a68548" d="M378.5 133q3-.5 3.5 1.5l-.5 1.5q-3 .5-3.5-1.5zm65 0 2.5.5-2.5.5zm-155 1 2.5.5-2.5.5zm59 0 2.5.5-2.5.5zm46 1 11.5.5-11.5.5zm-257 1 .5 3.5h-1zm215 6 2.5.5-2.5.5zm55 0 2.5.5-2.5.5zm-220 2 .5 13.5h-1zm-49 3 1 7 45.5-.5.5-2.5.5 26.5 1 1v34h-1l-.5-20.5-1 5h-64l-1-1-13 11-.5-.5 5.5-5.5 14-10 5 3 3.5-2.5v-6l1-1 1-9q-2.2-1.2-1-6l2-1v-10l1-1zm-8.5 48v1h2z"/><path fill="#a68548" stroke="#a68548" d="m135.5 153 .5 3.5h-1zm335 24 .5 7.5h-1zm-276 20 .5 29.5h-1zm268 1 .5 2.5h-1zm65 5 2.5 2.5-.5.5-2.5-2.5zm-424 4 .5.5-4.5 4.5-.5-.5zm429 2 3.5 3.5-.5.5-3.5-3.5zm-436 4 .5.5-3.5 3.5-.5-.5zm100 15 1 4 265.5-.5.5-2.5 1 10 1-3 .5 2.5-1 1v9h2l-1 8 2.5 3.5 3-1 3 4 1.5.5q-2.2 1.3.5 2.5l1.5.5-.5 1.5 1.5.5 1.5 4.5 1.5.5 17 32q-1 1.5-2-1l-6.5-12.5-1 2h-308l-1-1-10 17 .5-1.5 21.5-40.5 1.5-.5-.5-1.5 1.5-.5v-27l1-1zm304 81 3.5 5.5q-1 1.5-2-1l-2-4z"/><path fill="#c7a055" stroke="#c7a055" d="m139.5 92 .5 2.5h-1zm199 0 2.5.5-2.5.5zm168 5 1.5 1.5v3l2 3q-1.7.8-1 4l2 3-1 3 2 3v2q-2 1 0 2l1 3v6l1 1v6l1 1v5h-1v-5l-1-1v-5l-1-1-.5-5.5-1 4-40.5-13.5.5-1.5-1.5.5-1.5 12.5-.5-8.5 1-1 .5-4.5 10-3 6-3 1 1 2-2 1.5.5.5-1.5 1 1 2-2 1 1 2-2 1.5.5.5-1.5 1.5.5.5-1.5q1.3 2.3 2.5-.5l.5-1.5 1 1 2.5-2.5zm-116 4 .5.5-2.5 2.5-.5-.5zm-250 1 1 8 43.5-.5.5-3.5.5 20.5 1 1v16l-1 1-.5 33.5-1-27-1 3-45.5-.5-.5-6.5-2 22-.5-11.5 1-1v-16l2-5v-8q-1.7-.7-1-4h2v-12l1-1zm174 11 3.5.5-3.5.5zm45 10 5.5.5-5.5.5zm-109 8 2.5.5-2.5.5zm110 0 8.5.5-8.5.5zm26 0 3.5.5-3.5.5zm81 3 .5 10.5h-1zm-165 8 2.5.5-2.5.5zm52 0 2.5.5-2.5.5zm46 0 5.5.5-5.5.5zm115 3 .5 5.5h-1zm1 8 .5 3.5h-1zm-59 5 .5 6.5h-1zm-261 2 1 9h260l1-1 1 10 1-2 .5 1.5-1 1v10h2l-1 3v8q2.5.5 2 4-2.3 1.3-1 6l2 4v4q-2 1 0 2v6l1 1v12l1 1v9h-1v-9l-1-1-.5-9.5-1 3-265.5-.5-.5-3.5-.5 9.5-1 1-.5 27.5-.5-38.5 1-1v-23l1-1zm-62 15 .5 4.5h-1zm332 77 .5 4.5h-1zm1 6 2.5 1.5-1.5.5q-2.5-1-1-2Zm5 2 2.5 2.5-.5.5-2.5-2.5z"/><path fill="#fbcd6d" stroke="#fbcd6d" d="m140.5 87 7.5 1.5-4.5.5-2-1-1 6zm9 2 3.5.5-3.5.5zm5 1 7.5 1.5-3.5.5q-.7-1.7-4-1zm9 2 2.5.5-2.5.5zm4 1 2.5.5-2.5.5zm4 1 4.5 1.5-1.5.5-3-1zm6 2 9.5 9.5v6h-1v-6l-9-9zm-38 1 .5 7.5h-1zm57 40 5.5 4.5-1.5-.5-3-2-1 4zm257 0 3.5.5-.5 4.5-1-4-9 2v-1l6-1zm-191 2 9.5.5-9.5.5zm11 1 6.5.5-6.5.5zm169 0 2.5.5-5.5 1.5v-1zm-161 1 6.5.5-6.5.5zm-78 1 2.5 1.5-1.5.5q-2.5-1-1-2Zm86 0 10.5.5-10.5.5zm70 0 35.5.5-35.5.5zm76 0 2.5.5-5.5 1.5v-1zm-133 1 54.5.5-54.5.5zm98 0 24.5.5-24.5.5zm57 1 .5 7.5h-1zm-248 1 5.5 2.5-1.5.5-4-2zm34 0 2.5.5-8.5 2.5v-1zm-10 3 2.5.5-2.5.5zm-38 1 .5 25.5h-1zm34 0 2.5.5-2.5.5zm-7 1 5.5.5-5.5.5zm236 6 .5 6.5h-1zm1 13 .5 2.5h-1z"/><path fill="#dfb360" stroke="#dfb360" d="M143.5 87v2q4 1 5-1l1 2q3.3.8 4-1l1 2 7 1 1.5-.5.5 1.5 3-1 1 2 3-1 1 2 4 1 1.5-.5 9 10-1.5 4.5-43.5-.5v-7l-1-1q.7-4.2-1-6l2-2 .5-5.5zm364 10 1.5.5-.5 4.5zm-2 1 .5.5-2.5 2.5-.5-.5zm-366 7 .5 5.5-1.5 3.5-.5-4.5zm370 0 .5 3.5h-1zm-323 7 .5 14.5h-1zm324 0 .5 2.5h-1zm-372 4 .5 7.5h-1zm-1 11 .5 8.5h-1zm316 11 2.5.5.5 3.5 1.5.5q-2.2 2.8-1 9 2.5.5 2 4-3.2 2.3-2 9h1l.5-1.5q2.1 1.4 1.5 5.5l-1.5-.5-1 1-260.5-.5v-8l-1-1v-10q-2.3-1.2-1-6l2-1 .5-3.5 4 3 1.5-.5.5 1.5 1.5-.5-.5 1.5 2-1 1 2 1.5-.5.5 1.5 5 2 1.5-.5.5 1.5 2-1 1 2 2-1 1 2 5.5-.5.5-1.5 3 1 4.5-1.5.5-1.5 3 1 6.5-2.5.5-1.5 2 1 1-2 2 1 1-2 2 1 1-2 2 1 1-2 2 1 1-2 1 1h9l1.5-.5.5 1.5h6l1-1 1 2h6l1-1 1 2h10l2-1 1 2 54.5-.5.5-1.5 2 1h35q1-2 5-1l1 2h24q.8-1.7 4-1l2 2 .5-.5.5-1.5 3 1 3.5-1.5.5-1.5 3 1 3.5-1.5.5-1.5 3 1zm6 34 .5 5.5 1 1v10h-1v-10l-1-1zm-264 3 .5 27.5h-1zm266 16 .5 8.5h-1zm1 13 .5 5.5h-1z"/><path fill="#4e3e21" stroke="#4e3e21" d="M336.5 4 352 5.5l-9.5.5q-1.2-2.3-6-1zm51 0 2.5.5-2.5.5zm-65 1 7.5 1.5-5.5.5-2.5-1.5zm59 0 4.5.5-4.5.5zm-71 1q4.1-.6 5.5 1.5l-3.5.5-2.5-1.5zm81 0 2.5.5-2.5.5zm-92 1q4.1-.6 5.5 1.5l-2.5.5-3-1zm-10 1 2.5.5-2.5.5zm-14 1 3.5.5-3.5.5zm18 0 2.5.5-2.5.5zm-33 1 8.5 1.5-5.5.5-3-1zm22 0 3.5.5-3.5.5zm129 0 2.5.5-2.5.5zm-81 8 1.5 2.5h-1zm-104 1 1 1 1.5-.5-1.5 1.5-1-1-1.5.5zm101 2 2.5.5-2.5.5zm84 0 4.5.5-4.5.5zm53 0 6.5 1.5-.5 1.5-6.5-1.5zm-99 1 4.5.5-4.5.5zm109 1 .5 1.5-1.5.5q-1.5-1 1-2Zm-74 1 2.5.5-2.5.5zm-167 2 1.5 1.5-2.5 2.5-1.5-.5 3-2zm79 1 6.5.5-6.5.5zm23 0 2.5.5-2.5.5zm15 0 5.5.5-5.5.5zm-132 1 .5.5-2.5 2.5-.5-.5zm39 0 2.5.5-2.5.5zm73 1v2l14.5.5-15.5.5-.5-1.5zm146 0 4.5 4.5-.5.5-4.5-4.5zm-217 1 .5.5-2.5 2.5-.5-.5zm61 0 2.5.5-2.5.5zm60 0 1.5 2.5h-1zm-94 1 8.5.5-8.5.5zm67 1 2.5.5-2.5.5zm69 2 4.5.5-4.5.5zm-194 4 1.5.5-1 1 2 2-.5.5q-3.6-1.1-2-4Zm215 0 2.5 2.5-.5.5-2.5-2.5zm-204 1 .5.5-2.5 2.5-.5-.5zm89 0 5.5.5-5.5.5zm-14 1 4.5.5-4.5.5zm25 0 8.5.5-8.5.5zm-32 1 2.5.5-2.5.5zm162 0 1.5 2.5-1.5.5zm20 0-.5 1.5 2 3-.5.5-2.5-2.5zm-256 1 2.5.5-2.5.5zm128 1 .5 2.5h-1zm9 1 2.5 1.5-1.5.5q-2.5-1-1-2Zm-147 1 .5.5-2.5 2.5-.5-.5zm216 1 2.5 2.5-.5.5-2.5-2.5zm34 0 2.5.5-2.5.5zm19 0 3.5 3.5-.5.5-3.5-3.5zm-276 1 2.5 1.5-1.5.5q-2.5-1-1-2Zm149 1q1.5 1-1 2l-1.5-.5zm-31 3 4.5.5-4.5.5zm-25 1 8.5.5-8.5.5zm41 0 3.5 3.5-.5.5-3.5-3.5zm150 3 .5 2.5h-1zm-301 1 .5.5-2.5 2.5-.5-.5zm66 1 .5 2.5h-1zm28 0 .5.5-2.5 2.5-.5-.5zm78 2 .5 1.5-2.5.5v-1zm102 0 3.5 3.5-.5.5-3.5-3.5zm-10 1 .5 1.5q-1 2.5-2 1zm36 0 .5 5.5h-1zm-257 1 .5 2.5q-1 2.5-2 1zm-86 1 1.5.5q-1 2.5-2 1zm99 0 1.5 2.5q-1 1.5-2-1zm-51 1 .5 2.5h-1zm16 1 .5 2.5h-1zm215 2 .5 5.5h-1zm53 2 .5 2.5h-1zm-127 2 .5.5-2.5 2.5-.5-.5zm-212 4 .5 2.5h-1zm147 0 2.5 3.5-4.5 4.5-.5-.5 4-5-2-2zm165 2 1.5 4.5h-1q-1.7-1.7-.5-4.5Zm-247 2 1.5 2.5q-1 1.5-2-1zm89 2 6.5.5-6.5.5zm-149 3 3.5 2.5-1.5.5-2.5-1.5zm15 1 1.5.5-2.5 1.5q-1.5-1 1-2Zm256 1 .5.5-4.5 4.5-.5-.5zm-285 1 1.5.5-2 1-.5 1.5-.5-1.5zm100 0 1.5.5-.5 1.5q-2.5-1-1-2Zm-77 1 3.5.5-3.5.5zm40 1 1.5 2.5q-1 1.5-2-1zm162 0 1.5.5-1 1 .5 1.5q-2.4-.9-1-3Zm15 0 .5.5-2.5 2.5-.5-.5zm-202 1-.5 1.5 3 3-.5.5-3.5-3.5zm108 2 2.5.5-1.5 2.5v-2q-2.4-.1-1-1Zm-93 1 6.5 6.5-.5.5-6.5-6.5zm86 0 2.5.5-2.5.5zm79 0 2.5.5-2.5.5zm-4 2q3 1.5 0 3l-2.5-.5 3-1zm122 1 .5.5-2.5 2.5-.5-.5zm12 0 .5.5-2.5 2.5-.5-.5zm-30 1 .5.5-2.5 2.5-.5-.5zm-85 1 2.5.5-2.5.5zm-187 1q1 2 2 0l1.5 1.5-1 1 3 3-.5.5-5.5-5.5zm103 0 6.5.5-6.5.5zm24 0 .5.5-2.5 2.5-3.5-.5 3.5-.5zm-175 1 .5 2.5h-1zm105 2 4.5.5-4.5.5zm-50 1 2.5 2.5-.5.5-2.5-2.5zm138 0 7.5.5-7.5.5zm-36 1 2.5.5-2.5.5zm119 0 2.5.5-2.5.5zm-7 1 2.5.5-2.5.5zm59 0 1.5 2.5q-1 1.5-2-1zm-279 1 .5 7.5h-1zm10 4 3.5 3.5-.5.5-3.5-3.5zm172 0 2.5.5-2.5.5zm-7 1 2.5.5-2.5.5zm55 0 2.5.5-2.5.5zm39 0 2.5.5-2.5.5zm-100 1 2.5.5-2.5.5zm104 0 1.5 2.5h-1zm6 0 .5.5-2.5 2.5-.5-.5zm-171 2 2.5.5-2.5.5zm51 0 2.5.5-2.5.5zm-209 1 .5 2.5h-1zm195 0 2.5.5-2.5.5zm78 0q.1 3.4 2.5 4.5l-.5.5-2.5-2.5zm-161 1 5.5.5-5.5.5zm153 0 2.5.5-2.5.5zm-133 1 2.5.5-2.5.5zm6 1 2.5.5-2.5.5zm48 0 2.5 2.5-.5.5-2.5-2.5zm38 0 2.5.5-2.5.5zm-78 1 3.5.5-3.5.5zm72 0 2.5.5-2.5.5zm-62 1 3.5.5-3.5.5zm56 0 2.5.5-2.5.5zm-32 1 .5 3.5-1.5.5.5-1.5zm-6 1q3-.5 3.5 1.5l-1.5-.5q-3 .5-2-1Zm15 0q1.5 1-1 2l-2.5-.5zm56 1 6.5.5-6.5.5zm-124 1 3.5 2.5-1.5.5-2.5-2.5zm-60 1 2 4 2.5 1.5.5 1.5 1.5-.5-1.5 1.5-5.5-5.5zm157 0 2.5.5-2.5.5zm6 0 4.5.5-4.5.5zm-120 2 3.5.5-3.5.5zm82 0 9.5.5-9.5.5zm64 1 2.5.5-2.5.5zm27 0 4.5.5-4.5.5zm-117 1 2.5.5-2.5.5zm18 0 1.5 2.5h-1zm60 0 6.5.5-6.5.5zm83 0 .5.5-2.5 2.5q-2.5-1-1-2 1.5 2.5 3-1Zm-322 1 .5 4.5h-1zm124 0 2.5.5-.5 1.5-3.5-.5zm6 1 1.5.5q-1 2.5-2 1zm127 1 .5.5-2.5 2.5-1.5-.5.5-1.5q1.5 2.5 3-1Zm-63 1 10.5.5-10.5.5zm26 0 6.5.5-6.5.5zm89 0 2.5 1.5-1.5-.5q-2.4-.1-1-1Zm-161 1 3.5.5-6.5 1.5v-1zm21 1 2.5.5-2.5.5zm126 0 2.5 1.5q-1 2.5-2 1l.5-1.5-2 1q-1.5-1 1-2Zm-93 1 2.5.5-2.5.5zm-142 1 2.5 2.5-.5.5-2-2-1.5.5zm200 0 3.5.5-3.5.5zm8 0 5.5.5-5.5.5zm62 2 .5 4.5h-1zm-242 1 2.5.5-2.5.5zm-7 1 2.5 2.5-.5.5-2.5-2.5zm4 0 1.5.5q-1 2.5-2 1zm63 0 2.5.5-2.5.5zm10 1 2.5.5-2.5.5zm69 0 24.5.5-24.5.5z"/><path fill="#4e3e21" stroke="#4e3e21" d="m223.5 142 .5 1.5-1.5.5q-1.5-1 1-2Zm87 0 7.5.5-7.5.5zm31 0 6.5.5-6.5.5zm72 0 6.5.5-6.5.5zm-278 4 .5 3.5h-1zm323 0 .5 2.5h-1zm9 8 .5 3.5h-1zm-273 2 .5 21.5h-1zm265 1 .5 2.5h-1zm-325 5 .5 3.5h-1zm334 4 .5 4.5h-1zm-8 3 .5 2.5h-1zm-274 5 .5 24.5h-1zm-53 3 .5 3.5h-1zm336 2 .5 3.5h-1zm52 1 .5 2.5h-1zm-60 1 .5 2.5h-1zm-329 9 .5 1.5q-1 2.5-2 1zm338 0 .5 4.5h-1zm-8 3 .5 2.5h-1zm9 9 .5 5.5h-1zm57 1 2.5 2.5-.5.5-2.5-2.5zm-65 3 .5 2.5h-1zm-361 1 .5.5-2.5 2.5-.5-.5zm431 2 3.5 3.5-.5.5-3.5-3.5zm-438 4 .5.5-2.5 2.5-.5-.5zm377 1 .5 5.5h-1zm2 1 2 4 21 6 5 3 18 6h3l11 5 9 3h3l19 7v-2l4 4 1-1 6.5 6.5-1 1 3.5 3.5 9.5 8.5q-2.2 1.2.5 2.5l10.5 9.5 33 36v2l-6.5 11.5-.5-1.5.5-1.5-93-31-3-2-29-9-.5 1.5.5 1.5-27.5-49.5v-6q2-1 1-5h-1l-.5 3.5-.5-7.5 1-1zm66 2 4.5 4.5-.5.5-4.5-4.5zm-76 1 .5 2.5h-1zm-377 2 .5.5-2.5 2.5-.5-.5zm-7 6 .5.5-3.5 3.5-.5-.5zm469 1 5.5 5.5-.5.5-5.5-5.5zm-84 3 .5 3.5h-1zm-393 3 .5.5-3.5 3.5-.5-.5zm-3 5-.5 1.5 1.5 1.5 112.5-.5.5-1.5 1 7 1-7 .5 22.5-2 2-4 9-13.5 22.5.5-1.5-1.5-2.5h-151l-1-1-2 4-.5-1.5 2-4v-3l3.5-3.5 33-29 1.5.5 6.5-7.5q1 2 2 0l1.5-.5-1-1 4.5-4.5 2 1zm490 0 6.5 6.5-.5.5-6.5-6.5zm-93 4 .5 3.5h-1zm1 12 .5 2.5h-1zm-211 89 1 2 17 2 1.5-.5 3.5 10.5 1-1h242l1 1 1.5-.5 1.5 2.5 1.5-.5-1 2h2l-1 2h2l-1 2h2l-1 2h2l-.5 1.5 1.5.5-.5 1.5 1.5.5-.5 1.5 2.5 1.5 30 59h-1l-2.5-4.5-1 1-88.5.5 5 2-1.5.5-73-28h-17l-1 1h-11l-1 1h-14l-1 1h-35l-1-1h-12l-1-1h-8l-1-1h-6l-3.5-1.5-1-6-1.5-2.5-1 2h-5l-1-1q-4.8 1.3-6-1h-7l-1-1h-6l-1-1h-5l-4.5-1.5-.5-6.5-3 14-3-1-8 4-6 1-3 2-11 3-2 2-6 2h-3l-24 8-8 1-5.5 5.5-3.5 4.5-1-1h-57l-3 4 .5-1.5 6-13 2-2 5-11 2-2 5-11 2-2 6.5-12.5 1.5-.5-.5-1.5 1.5-.5-.5-1.5 1.5-.5q-2-1 0-2l2.5-4.5 1.5-.5-.5-1.5 1.5.5-1-2h2l-1-2h2l-1-2 1.5.5 1.5-1.5-.5-1.5-1.5.5 2.5-3.5 1 1 1.5-.5-.5 1.5h88l2-2 7-2 2-2 7-2 1.5-1.5zm268 10q2.5 1 1 2l-1-1-1.5.5z"/></svg>