<svg xmlns="http://www.w3.org/2000/svg" viewBox="0 0 640 320"><path fill="#803a13" stroke="#803a13" d="M240.5 75q4.8-.8 7 1l2-1 6 3 4.5 4.5 7 8 7 13v10l-6 10-4 13 2.5 4.5 1.5-9.5 6-12 2-10 1-1v-3l4.5-8.5 1.5-.5-.5-1.5 1 1 13-13 4-3h5l1.5 3.5-7 5v3l-2 4-1 9-1.5 4.5-15.5 11.5v2l-10 16-1 4q14.6 12.4 25 29l-1.5-.5-7-2-8-7-2 1-21-18-7-4 .5 1.5 6 20q-.7 2.3-4.5 1.5l-10-5-.5.5 2 2q1.9 6.1 6.5 9.5l13 8 2.5.5-2.5.5-13-8-4.5-4.5-6-10 1.5-.5 11 6h3l.5-1.5-1-1v-3l-3-9-4.5-8.5-1.5-.5.5-1.5 9 4 20 17 .5-1.5-2-4h1l.5 1.5.5-2.5-1.5-2.5-1 2-7.5-16.5 5-15 5-9q-2.2-1.2-1-6l1-2-8.5-13.5q-1.2 2.3-2.5-.5l1-2-2.5-2.5-.5.5 1 2-31.5 32.5-1.5.5-15 16-1 3 3 7q-2.8 1.7-2 7l2 3v2l-5 3 2 10-7 15q2 1 0 2l-.5 9.5-.5-13.5-1-1v-4l-1-1v-4l-1-1-1-10-1-1q.7-4.2-1-6l2-1-3.5-1.5-6.5-.5 8.5-.5 1 1q4.2-.7 6 1l.5-.5-2-2-5.5-6.5-10-7-3.5-.5 3.5-.5 6 4 .5-3.5-1-1-.5-4.5-11 3v-1l14-5 3 9h4l8 4 .5-1.5-2-4v-3q2.5-.5 2-4-2-1-1-5l1-1v-15l-2-6-1-10-1.5-1.5-4.5-3.5 1.5.5 2-1 9-1 8.5-5.5-.5-1.5q1.5 2.5 3-1l4-2q1 2 2 0 1.8-1.7 6-1 1 2 5 1v-1q-4 .8-3-1Zm18.5 8-1 2h2q1-1-1-2Zm18 32-1 3h1zm-63 1-1 9h1zm61 5-1 3h1zm-1 3-5 9q1 3-1 5l1 1 7-11zm-61 1-1 4h1zm1 5-1 3h1zm-2 5-1 3h1zm61 13-1 2 4 9 9 8 4 2h2q-8-12-18-21Zm92.5-72 31 9 21 11 25 8 26 14 31 4 7.5 7.5q7.7 10.8 17.5 19.5 15 7 27 17l19 9 4.5 4.5 20 26-2.5 7.5-15-9-3-3-22-14-28-20-23-13-20-13-41-17-13-10-7-4-21-7-32-24-2.5-2.5zm7.5 4-1 1 3 2h1l-1-2zm4 1v1h2zm0 2-1 1 4 3 20 15 8 2 9 4h2l-8-5-1-1-4-2-3-3h-2l-7-4-4-4-4-1-2-2zm43 25v1h2zm15 9-1 1 3 2 7 4h2l-4-4h-2zm146 86q-2 1 1 2h1zm12 1-1 4h1zm-9 1-1 1 3 2 6 4v-2l-4-4zM357.5 79l93 68 6 2h6l1 1 7 1 6 2 4.5 3.5 3 5 19.5 19.5q1.8 1.7 6 1l1 1h4l1 1h4l1 1h4l6 3 6 4 25 25q11.9 7.1 21.5 16.5l-5.5.5-1-1h-5l-1-1h-6q-.7-1.7-4-1L511 204.5l-1.5-2.5-15.5-10.5-.5-1.5-3-1q-3.2-4.3-8.5-6.5l-.5-1.5-2.5-.5-.5-1.5-3.5-1.5-.5-1.5-3-1-12-10-3-1-16-13-7.5-4.5-.5-1.5-3-1q-3.2-4.3-8.5-6.5l-.5-1.5-7.5-4.5-.5-1.5h-2l-4-4-8-6-3-1-15-12-.5.5 12.5 12.5 2.5 1.5.5 1.5 26.5 21.5-.5.5-2-2-18-13-28.5-28.5-12-17-4-4z" opacity=".988"/><path fill="#803a13" stroke="#803a13" d="m194.5 80 1.5 5.5 1.5 1.5 4.5 2.5 3 7v7l-1 1-.5 4.5-1.5-6.5-2.5-2.5-9-5-9-3-7-1-6-3-5-1-1.5-1.5 1.5-.5 5 2 13 1 7 3q2.8-1.2 1.5-6.5l-.5-1.5 1.5.5.5 1.5 1.5-.5zm123 4 14 10 1-2 14-6 6.5 6.5v2l-2 3 1.5.5 4-2 1 7 10-2 8.5 6.5-.5 7.5q-5 1-7.5 4.5l-3 5-3 10 11 9 9 13 7 13-.5.5-2.5-2.5-10.5-14.5-5.5-4.5-10.5-12.5h-2q-3-5-10-6l-10.5-9.5-3.5-4.5-3.5-2.5 1.5-.5 5 3 .5-.5-6.5-6.5-4.5-3.5 4-1-8-10-1-3 3-1-7-6zm36.5 35v3l8 11 2-9q2-2 0-3l-2 1-3-2-2 1zm7 16-1 1q7 5 12 14l3 1 3 3-5-8zm18 19-1 2q1 2 2 1zm-89.5-68 .5.5-5.5 5.5-.5-.5zm-136 5 1 2 9.5 8.5 1 3h-1l-1.5-3.5-4-3-1.5 1.5 4 4-.5 1.5-4-5-2-1-1 1h-7l-.5-.5 3-3zm-10 10 .5 2.5-8 9v14l2 4v4l-2.5 2.5-13 7-10 8q-1.8 1.7-6 1l-1-1h-27l-1 1h-9l-6-2h-7l-1 1h-3l-5 2h-4l-5 2h-4l-1 1h-4l-1 1-8 1-1 1h-4v-1l50-36h3l1-1h3l1-1h3l1-1h3l1-1h3l1-1h3l1-1 15-3 24-11q4.8 1.3 6-1h9zM127 138l-1 2-1-1-1 1-1-1-4 2-3-1-1 2-1-2-1 2-5 1-3-1-1 2-1-2-1 2-5 1-3-1-1 2-1-2-1 2h-2l-3 1-1-1-1 1-1-1-1 2-1-2-1 2h-2l-1 2-1-1h-1l-1-1-1 1-1-1-1 2-1-1-4 2 5 1 2-1h15l1-1 20 1 1 1 12-8q2-1 0-2h2l3-1q3-1 0-3Zm-72 11v1h2zm8 0v1h2zm-12 1v1h2zm-4 1v1h2zm-5 1v1h2zm-5 1v1h3zm-5 1v1h3zm-9 1q-3 1-1 2h3zm5 0v1h2zm120.5-34 1.5 2.5h-1l-.5-1.5q-3 .5-2.5 4.5l2 2-.5.5-2.5-1.5-1-3zm30 3 .5 1.5-2.5 3.5-5 1-1.5 1.5-1.5 3.5-6-2-5.5 3.5 6 4-1.5.5-6.5-4.5-.5-1.5-3.5 1.5-6.5 10.5-2.5 1.5 1.5 2.5 1.5-.5-1.5 1.5q-1.5-3.5-3-1-4.6.9-6.5 4.5l-.5 3.5-2-1h-8l-1-1-8.5-.5.5-1.5 14-9 8-7 5 8 3.5-1.5 1-4 4-5q-.7-3.7 1.5-4.5l8-3h7l3-2zm-1.5 2-6 2v1h3l3-1zm-8 3-7 3 6 2 2-4zm8.5 7 3.5.5-3.5.5zm-13 5 2.5 1.5-2.5.5z" opacity=".988"/><path fill="#803a13" stroke="#803a13" d="m158.5 142 4.5.5-4.5.5-1 1q-1.5-1 1-2Zm-9 3 6.5.5-7 1-2.5 3.5-.5-.5 2-2zm36 7 1 1 1.5-.5-1 1 4 4-.5.5-1.5.5 9 11q-1.5 3-7.5 1.5v-1l5.5-.5-9-11 2-1-4-5zm-38 1 5.5.5-3 2 .5 7.5 5-3q1.5 1-1 2l-2.5 1.5 3 4v7h-1v-7l-1.5-1.5-2-1-.5 9.5.5 1.5h-2q-4.1-4.4-10.5-6.5 1.7-1.8 1-6l-3-4 1.5-1.5 4.5-.5.5-3.5q4 1 5-1Zm43 19 .5 1.5-1.5.5q-1.5-1 1-2Zm-4 2 1.5.5-1 1 .5 1.5q-2.4-.9-1-3Zm25 2 10 2 1 1h3l1 1h12l1 1 6.5.5-6.5.5-1-1h-13l-1-1h-3l-4-2-6-1zm-38 1-.5 1.5.5 7.5h5l4-3h3q2.5 1 1 2h-5l-14 13q-1-2-2 0l-2.5-2.5-4-7 9-5zm15 1 2.5 3.5q-1 1.5-2-1zm76 2 4.5 1.5-8.5.5-1 1-3.5-1.5 2.5-.5q1 2 2 0 3.3.8 4-1Zm-73 3 2.5 4.5-2 3 9 18h-1l-9-18v-2l2-1-2-4zm-8 10 2.5.5-2.5.5zm-4 1 2.5.5q-2.5 1.5 1 3l3.5 5.5 2-2 .5.5q-2.5 5-5 0l-5-7zm25 5 .5 8.5 1 2h-1l-1-2zm-9 9-.5 1.5-2.5 5.5-.5-1.5zm2 1 4.5 1.5-.5 1.5-3-1q-2.5-1-1-2Zm8 6 .5 4.5-2.5 3.5.5-1.5zm-12 3 2.5 3.5q-1 1.5-2-1zm4 7 2 3 1.5.5q-1 2.5-2 1l-2-4z" opacity=".988"/><path fill="#9e4614" stroke="#9e4614" d="M287.5 57h7l8 7h3l3.5 1.5-8 5-.5 4.5-1.5.5-3.5 4.5-3.5 2.5.5 3.5 1.5-1.5-.5-1.5 1.5 1.5L282.5 97l-2.5 1.5-3 7v3l-1 1-2 10-7 15q1 5.5-1 8l3.5 7.5 1-1 1.5.5-4-6 2-5h-2q1.7-1.8 1-6l6.5-13.5.5 1.5-2 4q1 2.5 2 1l2.5-5.5.5 1.5-4 8q1 1.5 2-1l3-6v-2l2.5-2.5 13.5-9.5 2-13 2-4v-3l1.5-1.5q3.9-.6 5.5-3.5l-1.5-3.5q-6.7-1.2-8 3l-.5-.5 4.5-4.5 4.5-2.5.5-1.5 7-4 1.5.5.5-1.5.5 1.5-3 2 1.5 2.5q5 1 7 5h5v-1q-3 .5-3.5-1.5l-.5-8.5-3.5-.5 1.5-1.5h11l1 1h12l13 5 12 2 19 7h4l1 1 9 1 5 2h4l4 2h3l10 4h3l10 4h3l4 2 7 1 4 2 16 2 78 39 2 2 30.5 15.5 3 9 2 3v2l2 3v2l2 3 1 5 43 56-15.5.5-1 1h-20l-1 1h-19l-1 1h-59l-5-2h-4l-5-2h-4l-5-2h-4l-5-2h-4l-1-1-11-2-4-2-7-1-4-2-7-1-4-2-7-1-4-2-7-1-4-2h-3l-1-1h-3l-1-1h-3l-4-2h-3l-6-2-1 1h-6l-1 1-13 1-3-2-8-2-3-2-11-3-3-2-18-6-8-1-1-1h-4l-5-2h-4l-4-2h-4l-15-5h-3l-1-1-15-3-4-2-7-1-2-2h-19l-1 1-29 1q-2-.5-1.5-3.5 3.1-3.4 4-9l-1-1-1-8 5-3v-2l-2-3v-4l2-3-3.5-8.5-1.5.5 2-5-.5-1.5 1.5.5.5-2.5.5 2.5-2 3v2h1l15.5-17.5 5.5-4.5 27-28-1.5-2.5-1.5-.5-4-5 .5-.5 5 5 .5-.5-4.5-5.5-5.5-2.5.5-1.5h3l13-6 11-10h3l2 3zm1.5 14-1 2-3 1h-14l-1 7-1 2-5-2-2 1 4 7-3-1 4 7 2 1h1l-1 2 2-1 1 2h-2l1 3q1 2 2 1l-1-2 11-14 8-14zm77 5-1 1 3 2 2-1 3 2h2v2l2-1 2 1-3 1 8 3 2 2 4 1 4 4 7 4h2l3 3 4 1v2l10 5 4 1q2 1 1 2l-3-2-9-3-3 1 11 3 7 4-1-3 6 5 17 9v1l-9-4-2 1 4 2h2l5 3h2l5 3 7 2 5 3h2l11 5 20 13 26 15v-2q2 1 0 3l25 17 22 14-1-3 5 4 7 4h2l4 4-1 3h2l2-7-20-26-4-5-19-9q-13-10-27-17-10-9-18-19l-7-8-31-4-26-14-25-8-21-11zm-8 3-1 2 4 4 12 17 4 3 1-1 18 15 3 1 12 10h2v2l8 4v2q5 2 9 6l3 1v2l8 4 16 13 3 1 12 10 3 1v2l4 1v2h3v2q5 2 9 6l3 1v2l16 10 1 3 50 26q3-1 4 1h6l1 1h5l1 1h5q-10-10-21-17l-25-25-6-4-6-3h-4l-1-1h-4l-1-1h-4l-1-1q-5 1-6-1l-20-19-3-5-4-4-6-2-7-1-1-1h-6l-6-2zm13 1-1 1 3 2h1zm4 3-1 1 3 2h1zm-57 1-1 1 3 2h1zm28 2-13 6-1 2-9-6-1 1 2 2-3 1 1 3 8 10-4 1 5 3 6 7-5-3-2 1 4 2 3 5 11 9q7 1 10 6h2l-1-1h3l-9-15 2-1q1 3 3 1l3 2 2-1 2 2-3 7 1 3 2-8 3-5q2-4 8-5v-7l-8-7-10 2-1-7-5 2-2 1 3-4v-2zm34 1-1 1 3 2h1zm4 3-1 1 3 2h1zm4 3-1 1 3 2h1zm4 3-1 1 3 2h1zm4 3q-2 1 1 2h1zm4 3v1l8 3h2zm-126 1-2 3q-1 4 1 6l-5 9 1 2 5-9zm155 11-1 1 3 2h1zm4 3-1 1 3 2h1zm-40 3-1 1 3 2v-1zm44 0q-2 1 1 2h1zm-169 3-1 3h1zm128 0-1 1 7 6h1zm-129 3-1 3h1zm-1 3-1 3h1zm9 1-2 3q1 1 2-1zm130 1-1 1 3 2h1zm-140 1-1 3h1zm8 1-3 4 1 1 2-3zm136 1-1 1 3 2h1zm-45 2-1 1 4 3h1zm-2 1-1 2 7 6zm-118 1-1 2h2l2 4 1 4h1l-1-5q-4-2-1-3zm170 0q-2 1 1 2h1zm-44 3-1 1 4 3v-1zm48 0q-2 1 1 2h1zm-166 1-1 1 3 2h1zm19 2-1 2 13 12zm103 1-1 2q1 2 2 1zm-116 2q-2 1 1 2h1zm113 0-1 2q1 2 2 1zm-121 1-1 3h1zm126 0-1 2 3 2zm-125 3-1 3h1zm12 0-1 1 3 2h1zm111 0q-2 1 1 2h1zm-100 1-1 3h1zm105 0-1 2q1 2 2 1zm-2 1-1 2q1 2 2 1zm-125 1-1 3h1zm129 1-1 2q1 2 2 1zm-112 1q-2 1 1 2h1zm-31 1q-2 2 1 3l2-1zm15 0-1 4h1zm23 0-3 4 4 2-2-2 1-1 5 5h1zm9 2-1 2 3 2zm-45 1-1 2q1 2 2 1zm145 1-2 2 3 5 3 2zm-135 2v1h3zm39 1-1 2 3 2zm-4 3q-2 1 1 2h2zm4 2v1l5 2v-1q-1-3-2-1zm-77 7v1h2zm3 1v1h3zm43 0q-2 1 1 2h1zm-39 1v1l6 1 1 1h13l-12-1-5-2zm42 1v1h2zm4 1q-1 2-4 1v1h8zm311 21-1 1 3 2 6 4h1zm10 7q-2 1 1 2h1zm3 2q-2 1 1 2h1zM232.5 76l1.5.5-2.5 1.5q-1.5-1 1-2Zm7 0 4.5.5-4.5.5zm-15 4 .5.5-2.5 2.5-7 4-9 1-2 1-2.5-1.5.5-2.5h4l5-4h6l3 1zm-35 4 .5 4.5h-1zm-57 11 13.5.5q-3.5 1.5-1 3l-2.5 3.5h-9q-1.2 2.3-6 1l-24 11h-3l-1 1h-3l-1 1h-3l-1 1h-3l-1 1h-3l-1 1h-3l-1 1-15 3L14 159.5l4.5.5 5-2 14-2 5-2h4l9-3h7l6 2h9l1-1h27q1 2 5 1v-1l-2-1-20-1-1 1h-15l-2 1-4.5-1.5 3.5-1.5 1.5.5.5-1.5 1 1 1-1 1 1 1.5-.5.5 1.5 1-2 2.5-.5.5-1.5 1 2 1-2 1 1 1-1 1 1 3-1 2.5-.5.5-1.5 1 2 1-2 3 1 5.5-1.5.5-1.5 1 2 1-2 3 1 5.5-1.5.5-1.5 1 2 1-2 3 1 4-2 1 1 1-1 1.5.5.5-1.5q1 2 2 0l2-1q1.5 1-1 2l-2.5 1.5 1.5.5 7-4q3 1.5 0 3l-7 6-14.5 9.5.5 1.5 17 1 3.5 1.5-1.5 1.5h-9l-1-1h-10l-1-1h-13l-1-1h-37l-1 1h-10l-1 1h-8l-1 1h-10l-1 1h-9l-1 1-17 1q-1.5-1 1-2l47-36 6-6h2l3-2 5-1 3-2 15-5 9-1 15-5h3l9-3 6-4zm-6.5 46-2 1q-3 1-1 2l4-2zm-5 3-3 3h1l3-2zm-4 3q-3 1-1 2l2-1zm-4 3q-3 1-1 2l2-1z" opacity=".973"/><path fill="#9e4614" stroke="#9e4614" d="m371.5 96 2.5 2.5-.5.5-2.5-2.5zm-213 2 4.5 3.5 1.5 3.5 1.5.5-.5 1.5 1.5.5 1 4-2.5 2.5-.5-.5 2-3-1.5-2.5-7.5 3.5-.5 1.5-.5-2.5q3.2-2.3 4-7-1.2-2.7-2.5-.5l-2.5-2.5zm216 2 2.5 2.5-.5.5-2.5-2.5zm-163 9 .5 3.5h-1zm137 4 4.5 4.5-.5.5-4.5-4.5zm-192 1 1 2 2.5 1.5-1.5-.5-2.5-1.5zm120 1 .5 2.5h-1zm-63 1 .5 8.5-1.5 4.5-1.5-4.5h2zm-65 6 2.5 3.5-2.5 3.5q-3-.5-2.5-4.5zm28 4 1.5 2.5-1.5-.5-6 1-1.5 1.5q.5 3-1.5 3.5l-5.5-2.5zm277 1 3.5 1.5-1.5.5-2.5-1.5zm5 2 3.5 1.5-1.5.5-2.5-1.5zm-322 4 .5.5-2.5 2.5-2 1q-1.5-1 1-2zm21 0 1.5.5-2.5 1.5q-1.5-1 1-2Zm34 0 2.5.5v4l2 5-.5.5-2-2-2 1 .5-1.5-1.5-1.5-8-2-1.5.5.5-2.5 2 1zm-37 2 3 4 3 1 1.5-.5-.5 1.5 2.5.5-.5 1.5q-1-2-5-1l-1.5 1.5q2.3 1.3-.5 2.5l-1-1h-6l-4 6-1-1-2 2-.5-.5 1-2q-2.2-1.2.5-2.5l1.5-.5-.5-1.5 1.5.5q1.6-5.9 5.5-9.5zm-100 14 2.5.5-2.5.5zm8 0 2.5.5-2.5.5zm-12 1 2.5.5-2.5.5zm-4 1 2.5.5-2.5.5zm-20 1 .5.5-2.5 2.5-.5-.5zm15 0 2.5.5-2.5.5zm145 0q1 2 2 0l1.5.5.5 1.5h6l3.5 1.5-2 1q1.7 1.8 1 6l1 1v5l1 1 1 9 1 1v4l1 1v13l1 1-1 1v8h2l-1 1v11l-2 3 .5 1.5-1.5.5-1.5 3.5-1.5-.5-2.5-4.5-1.5-.5q2-1 0-2l-3-5 3.5-6.5 2 1 1.5-.5-.5 1.5 3 1 .5-1.5-10-21 2-3-5.5-8.5-1.5-.5q2-1 0-2l1.5-1.5 2.5-.5-2-3 1.5.5h6l1.5-1.5-1.5-1.5-1.5.5 1-1-3-3-1.5-2.5-1.5.5q2.5-1.5-1-3l.5-1.5 1.5-.5-5-5zm-150 1 3.5.5-3.5.5zm117 0 4.5.5-1 2 1 1-2 2 .5 1.5-3.5 1.5.5 1.5q-1-2-2 0l-1.5-.5.5-7.5zm-122 1 3.5.5-3.5.5zm-9 1 2.5 1.5-5.5 1.5v-1zm5 0 2.5.5-2.5.5zm489 5 3.5 2.5-1.5-.5q-3.8-.7-2-2Zm-366 5 3 2 1.5-.5-1 1v7l2 3-1 2 .5 1.5-4.5-1.5-2-3 2-1-1-1zm23 13 .5 2.5h-1zm378 5 14.5 10.5-.5.5-2-2-10-6-2.5-2.5zm-346 5 .5 4.5h-1zm-24 5 4 1q1.2-2.2 2.5.5l1 6h-1l-.5-3.5-1.5 4.5.5 1.5-5.5-7.5 1-1zm410 10q2.3.8 1.5 4.5h-1v-3z" opacity=".973"/><path fill="#b3784f" stroke="#b3784f" d="m159.5 69 1 2 3-1 1 2 3-1q1.5 3.5 3 1l3 2 2-1 1 2 3-1 1 2 2-1q1.5 3.5 3 1l1.5.5.5 1.5 2-1 1 2 3.5 2.5-1.5 3.5-1.5-.5-.5-1.5-1.5.5q-1.2 4.8 1 6l-1.5-.5-1 1-6-2h-6l-1-1h-5l-1-1q-4.2.7-6-1-1.5 1 1 2l5 1 6 3h3l4 2h3l6 2 11.5 7.5 1.5 6.5 1.5-4.5v-8l-3-6 .5-1.5-6.5-3.5 1-3-2-1 1.5-.5 3 4 2.5 1.5 4.5 5.5 2.5 1.5 1 11 1 1v7l1 1v10l-2 3 2 5q-2.8 1.7-2 7l3 5q-1 1.5-2-1l-.5-1.5q-1 2-2 0l-4-2-5.5-.5-1-7-1.5-1.5-19.5 6.5 7.5 1.5 1 1h3q3.8 4.7 10 7l5.5 5.5 2 3-1.5.5-5-2h-9q-1-2-5-1l-.5.5 4 4-.5 1.5-1.5.5 8 9-.5 1.5 1.5.5-7 1 1 2-4 2 7 13-2 1v2l10 19-1.5.5-4-2-3.5 5.5v3l7.5 13.5 5-8 .5 1.5-4.5 7.5-1.5.5 1 2-1 2 2 1-1 2 4.5 3.5 2-1 3 2 1.5-.5 1.5 2.5 1.5-.5.5 1.5 1.5-.5 1.5 2.5 1.5-.5.5 1.5 1.5-.5 4.5 5.5 1-1 6.5 6.5q-1.3 2.8-2.5.5l-3-2-1.5.5-.5-1.5-1 1-2-2-1.5.5-.5-1.5-1.5.5-.5-1.5-2 1-1-2-1.5.5-.5-1.5-1 1-2-2-1.5.5-.5-1.5-1 1-2-2-1.5.5-.5-1.5-1 1q-1.5-3.5-3-1h-2l-3-2-2 1-3-2-3 1q-1.5-3.5-3-1h-2l-3-2-3 1q-1.5-3.5-3-1h-2l-3-2-2 1-3-2-3 1-3-2-2 1-3-2-2 1-3-2-1.5.5 2.5-3.5 1.5.5 1-3-2-1 .5-1.5-1.5-.5 1-3-1-2 2-3q-1.7-.7-1-4l2-3-.5-1.5 2 1 3-2 2 1 1-2 2.5-.5-1-1 10-10-1-1 4.5-4.5 8-7 6.5-1.5-.5-1.5-5.5.5-.5 1.5-1.5-.5-.5 1.5-5.5-.5 1-8-.5-.5-5.5 5.5-.5 1.5-7 3-2 2-3.5-2.5 2-3-1-1-1.5-16.5-2.5-1.5.5-1.5 4.5-3.5 1-6-11.5-.5-4.5 1.5-.5 3.5-5.5.5 3 5-1.5.5-3.5-5.5v-3l2-1 .5-1.5 5-3v2q5.6-.4 7.5-4.5l.5-1.5 8.5-.5.5-2.5 8.5-.5-9-5 1-1-.5-1.5 5-2 3 2h2l3-5q4.8.8 6.5-1.5l2-4-2.5-.5-12 5h-7l-3 1-5.5 3.5v3l-4 4v3l-3.5 3.5-2.5-1.5-4-9 3-3-1-1-1-6-1-1v-11q2-1 0-2l6-6 2-3 1-7q2.5-.5 2-4l-1-1v-6l6-5-1-1 4-4-1-3 1.5-1.5 1.5.5.5-1.5 1.5.5zM154 91l-8 9h10l4 4v2l-3 5 1 2v-1l8-4v2h1v-2l-3-6zm3 22-1 3h1zm-8 8-5 4 3 4 4-1-1-5zm33 72-3 2 5 7 3 2 1-1-2-1 2-5v-3zm7 4-1 5h1zM321.5 69l1.5.5v8l1.5 1.5 2.5.5-3.5.5q-1-2-2 0l-2.5-2.5 3 1v-8zm-33 2 2.5 1.5-8 14-10.5 13.5-2.5-3.5q2-1 0-2l1-3L283.5 74l4.5-1.5zm13 1 .5 2.5q-2.2 1.3.5 2.5l2-2 .5.5-2.5 2.5-1.5-.5-5.5 6.5-3 2-.5-3.5 9-8zm-31 2 2.5.5-2.5.5z" opacity=".996"/><path fill="#b3784f" stroke="#b3784f" d="m138.5 165 .5 2.5h-1zm68 24 .5 2.5h-1zm-1 10 1.5 5.5-1.5 2.5z" opacity=".996"/><path fill="#cb9471" stroke="#cb9471" d="m305.5 68 2 1 1.5-.5 2 3-1.5-.5-1.5.5.5 1.5-1.5-.5-1.5 2.5-4 3q-3.2-1.7.5-3.5l-1-4 2.5-1.5 1.5.5zm13 1q3-.5 3.5 1.5v8l1 1-.5.5-3-3-1.5-.5.5-1.5-1.5-.5q.8-3.2-1-4h2zm-45 5 9.5.5-12 17-1 3 .5 1.5-2.5-3.5-1-5 4-6-.5-1.5 1.5.5 2.5-4.5 2.5-.5-3.5-.5zm-122 6 .5.5-4.5 4.5-.5-.5zm-5 12 .5 2.5h-1zm11 96 3.5 4.5q-1 1.5-2-1l-2-3zm49 4 .5 3.5h-1zm0 8 .5 2.5h-1zm-45 7 .5.5-2.5 2.5-.5-.5zm-14 18 .5 2.5h-1zm-2 10 1.5 2.5q-1 1.5-2-1zm76 14 5.5 5.5-.5.5-5.5-5.5zm11 11 2.5 1.5-1.5-.5q-2.4-.1-1-1Z" opacity=".988"/><path fill="#debca8" stroke="#debca8" d="m310.5 66 9.5.5q-1.2 2.8-2.5.5l-1.5.5-.5 1.5-8 4q-1.5-1 1-2l1.5-.5-1.5-2.5-2 1q-1.5-1 1-2zm7 4-.5 1.5.5 3.5 1.5.5-1.5.5-2.5-1.5-.5-1.5-1.5.5zm-47 5q1 2 2 0l4.5.5-3 1-7 12 1 2h-1l-2-6 6-4v-4z" opacity=".984"/><path fill="#edd9d0" stroke="#edd9d0" d="m263.5 82 3.5 1.5-2.5 1.5z" opacity=".992"/><path fill="#8a5e3c" stroke="#8a5e3c" d="m145.5 91 .5 3.5h-1zm-53 67 4.5.5-4.5.5zm45 7 .5 2.5h-1zm87 17 2.5.5-2.5.5zm-76 30 .5 2.5h-1zm-1 7 .5 2.5h-1zm476 24 2.5.5-2.5.5zm-20 1 2.5.5-2.5.5zm-21 1 3.5.5-3.5.5zm-349 14 3.5 3.5-.5.5-1-1-1.5.5 1-1-2-2z" opacity=".608"/><path fill="#916e5f" stroke="#916e5f" d="m312.5 63 5.5.5-5.5.5zm0 2 2.5.5-2.5.5zm-162 12 .5.5-4.5 4.5-.5-.5zm-7 12 .5 3.5h-1zm66 102 .5 2.5h-1zm-48 12 .5.5-4.5 4.5-.5-.5zm65 47 3.5 3.5-.5.5-3.5-3.5z" opacity=".024"/><path fill="#a40000" stroke="#a40000" d="m134.5 92 3.5.5-3.5.5zm-60 68 5.5.5-5.5.5zm161 24 2.5.5-2.5.5zm-23 1 3.5.5-3.5.5zm-50 12 2.5 2.5-.5.5-2.5-2.5zm471 48 2.5.5-2.5.5zm-20 1 2.5.5-2.5.5zm-21 1 3.5.5-3.5.5z" opacity=".004"/><path fill="#a26001" stroke="#a26001" d="m277.5 55 3.5.5-3.5.5zm-3 3 .5.5-3.5 3.5-.5-.5zm25 0 2.5 2.5-.5.5-2.5-2.5zm23 6 4.5.5-4.5.5zm11 1 3.5.5-3.5.5zm-87 7 3.5.5-3.5.5zm-10 1 3.5.5-3.5.5zm-18 6 2.5.5-2.5.5zm-89 14 2.5.5-2.5.5zm335 6 3.5.5-3.5.5zm8 1 2.5.5-2.5.5zm-428 27 .5.5-2.5 2.5-.5-.5zm-14 11 .5.5-2.5 2.5-.5-.5zm-14 11 .5.5-2.5 2.5-.5-.5zm45 11 3.5.5-3.5.5zm19 0 16.5.5-16.5.5zm-29 1 3.5.5-3.5.5zm56 0 4.5.5-4.5.5zm-66 1 3.5.5-3.5.5zm77 0 5.5.5-5.5.5zm-87 1 3.5.5-3.5.5zm-10 1 3.5.5-3.5.5zm-10 1 3.5.5-3.5.5zm-10 1 3.5.5-3.5.5zm245 17 8.5.5-8.5.5zm-22 1 10.5.5-10.5.5zm376 5 2.5 2.5-.5.5-2.5-2.5zm10 13 2.5 2.5-.5.5-2.5-2.5zm-403 8 .5 3.5h-1zm413 5 2.5 2.5-.5.5-2.5-2.5zm-225 3 3.5.5-3.5.5zm-7 1 3.5.5-3.5.5zm-6 1 2.5.5-2.5.5zm241 25 9.5.5-9.5.5zm-108 1 2.5.5-2.5.5zm88 0 9.5.5-9.5.5zm-21 1 9.5.5-9.5.5z" opacity=".012"/><path fill="#632f13" stroke="#632f13" d="M277.5 57q4.8-.7 5.5 2.5l-.5.5-2-2q-5.3-.8-6 3l-.5-.5zm9 0 .5.5-2.5 2.5-.5-.5zm13 3 2.5 2.5-.5.5-2.5-2.5zm25 6 4.5.5-4.5.5zm10 1 4.5.5-4.5.5zm-90 7 4.5.5-4.5.5zm-9 1 4.5.5-4.5.5zm-83 2 .5.5-2.5 2.5-.5-.5zm60 3 2.5.5-2.5.5zm-8 4 2.5.5-2.5.5zm-59 4 .5 2.5h-1zm-10 6 2.5.5-2.5.5zm330 7 3.5.5-3.5.5zm-411 19 .5 1.5-2.5 2.5-.5-.5zm-10 9 .5.5-2.5 2.5-.5-.5zm-14 11 .5.5-2.5 2.5-.5-.5zm-14 11 .5.5-2.5 2.5-.5-.5zm46 7 4.5.5-4.5.5zm14 0 15.5.5-15.5.5zm-24 1 4.5.5-4.5.5zm53 0 5.5.5-5.5.5zm-63 1 4.5.5-4.5.5zm75 0 4.5.5-4.5.5zm-85 1 4.5.5-4.5.5zm-30 1-.5 1.5-.5 1.5-1.5-.5zm20 0 4.5.5-4.5.5zm-10 1 4.5.5-4.5.5zm-9 1 3.5.5-3.5.5zm143 10 2.5 2.5-.5.5-2.5-2.5zm100 7 9.5.5-9.5.5zm-19 1 10.5.5-10.5.5zm-17 1 4.5.5-4.5.5zm392 11 2.5 2.5-.5.5-2.5-2.5zm-439 2 3.5 2.5-1.5.5-2.5-2.5zm42 0 1.5.5-1 1 .5 1.5q-2.4-.9-1-3Zm118 3 2.5.5-2.5.5zm-157 1 .5.5-8.5 8.5-.5-.5zm446 7 2.5 2.5-.5.5-2.5-2.5zm-407 3 .5 4.5h-1zm191 6 3.5.5-3.5.5zm223 0 2.5 2.5-.5.5-2.5-2.5zm-230 1 3.5.5-3.5.5zm-7 1 3.5.5-3.5.5zm240 2 2.5 2.5-.5.5-2.5-2.5zm7 9 2.5 2.5-.5.5-2.5-2.5zm3 4 2.5 2.5-.5.5-2.5-2.5zm-489 2 2.5 3.5-.5.5-2.5-2.5zm483 8 9.5.5-9.5.5zm-20 1 8.5.5-8.5.5zm-20 1 8.5.5-8.5.5zm-360 7 6.5 6.5-.5.5-6.5-6.5zm11 10 .5 1.5-1.5.5q-1.5-1 1-2Z" opacity=".369"/><path fill="#9f6e46" stroke="#9f6e46" d="m150.5 80 .5.5-3.5 3.5-.5-.5zm56 104 .5 4.5h-1zm16 65 3.5 3.5-.5.5-3.5-3.5z" opacity=".812"/><path fill="#f2d271" stroke="#f2d271" d="m151.5 74 .5 2.5h-1zm13 126 .5.5-2.5 2.5-.5-.5zm66 54 5.5 5.5-.5.5-5.5-5.5z" opacity=".008"/></svg>