<svg xmlns="http://www.w3.org/2000/svg" viewBox="0 0 640 433"><path fill="#00507c" stroke="#00507c" d="m357.5 118 27.5.5.5 1.5 10-1 1 2 7-1 3 2 3-1 3 2 2-1 1 1h4l4.5 1.5.5 1.5 3-1 1 2 3-1 1 2 2-1 1 2 2-1 1 2 2-1 2 2 1-1 2 2 1.5-.5.5 1.5 2-1 1 2 2-1 .5.5-2 2 1 1-4.5 4.5-4.5 3.5 1 1-3.5 3.5-3.5 2.5 1 1-2.5 2.5-3.5 2.5.5 1.5-14-5h-3l-1-1h-3l-9-3h-4l-1-1h-5l-1-1h-6l-1-1h-12l-1-1h-19l-1 1h-14l-1 1h-8l-1 1-12 1-1 1-9 1-1 1-11 2-4 2h-3l-15 5-3 2-5 1-5 3h-2l-22 11-12 8h-3q-.7-2.7-5-2-1.2 2.3-6 1-3.2-1.7.5-3.5l3.5-4.5 1 1 2.5-2.5 2.5-3.5 1 1 2.5-2.5.5-1.5 1 1 2.5-2.5 1.5-2.5q1.3 2.3 2.5-.5l.5-1.5q1.2 2.3 2.5-.5l.5-1.5q1.3 2.3 2.5-.5l1.5-2.5 1.5.5.5-1.5 2.5-.5.5-1.5q1.3 2.3 2.5-.5l.5-1.5 1.5.5.5-1.5q1.3 2.3 2.5-.5l.5-1.5 1.5.5.5-1.5q1.3 2.3 2.5-.5l.5-1.5 1.5.5.5-1.5 1.5.5.5-1.5 1.5.5.5-1.5 1.5.5.5-1.5 1.5.5.5-1.5 1.5.5.5-1.5 1.5.5.5-1.5 1.5.5.5-1.5 1.5.5.5-1.5 2 1 1-2 1.5.5.5-1.5 1.5.5.5-1.5 2 1 1-2 1.5.5.5-1.5 2 1 1-2 1.5.5.5-1.5 2 1 1-2 2 1 1-2 2 1 1-2 2 1 1-2 3 1 1-2 2 1 1-2 3 1 1-2 3 1 1-2 3 1 1-2 4 1 1-2 4 1 1-2 6 1 1-2 6 1 1-2 12 1zm9.5 2-1 1h-8l-1 1-7 1 18 21 6-23zm34 2-1 2 3 8 3 15 2 2 15-22-2-2h-5l-6-2zm-75 4-1 1-8 1-1 1-9 1-1 2 22 11v-16zm-37 10-12 6 4 2h2l11 5 1 1-5-11v-2zm190.5 65h6l7.5 4.5 2 4v4l-4.5 5.5q-3.2 2.3-10 1-4.8-1.7-7.5-5.5-1.8-2.2-1-7l4.5-5.5zm2.5 8-4 4v2q1 3 8 2 3-1 2-5l-3-3zm-399.5-5h6l1 1h15l1-1h10q1.3 3.3 7 2 1-2 5-1l1 2 7-1 1 2 5-1 1 2 4-1 1 2 3-1 1 2 3-1 1 2 2-1q1.5 3.5 3 1l1.5.5.5 1.5 1.5-.5.5 1.5 2-1 1 2 1.5-.5.5 1.5 1.5-.5.5 1.5 1.5-.5.5 1.5 1.5-.5 1.5 2.5 1.5-.5 1 3q-6.2 3.8-9 11 3.5 3 9.5 3.5l3.5 2.5-2 1 1 2-2 1 1 2-2 1 .5 1.5-1.5.5 1 2-2 1 .5 1.5-1.5.5.5 1.5-1.5.5.5 1.5-1.5.5.5 1.5-1.5.5.5 1.5-1.5.5.5 1.5-1.5.5.5 1.5-2.5 1.5.5 1.5-1.5.5.5 1.5-2.5 1.5.5 1.5-1.5.5.5 1.5-2.5 1.5.5 1.5-2.5 1.5.5 1.5-1.5.5q2.3 1.3-.5 2.5l-1.5.5q2.3 1.3-.5 2.5l-2.5 1.5.5 1.5-2.5 1.5.5 1.5-3.5 2.5.5 1.5-2.5 1.5q2.2 1.3-.5 2.5l-2.5 1.5 1 1-2.5 2.5-3.5 2.5 1 1-3.5 3.5-2.5-1.5.5-1.5-1.5-.5.5-1.5-1.5-.5.5-1.5-1.5-.5.5-1.5-1.5-.5.5-1.5-1.5-.5.5-1.5-1.5-.5.5-1.5-1.5-.5.5-1.5-1.5-.5.5-1.5-1.5-.5.5-1.5-1.5-.5.5-1.5-1.5-.5.5-1.5-1.5-.5.5-1.5-1.5-.5.5-1.5-1.5-.5.5-1.5-1.5-.5.5-1.5-1.5-.5.5-1.5-1.5-.5.5-1.5-1.5-.5.5-1.5-1.5-.5.5-1.5-1.5-.5.5-1.5-1.5-.5.5-1.5-1.5-.5.5-1.5-1.5-.5.5-1.5-1.5-.5.5-1.5-1.5-.5.5-1.5-1.5-.5.5-1.5-1.5-.5.5-1.5-1.5-.5.5-1.5-1.5-.5.5-1.5-1.5-.5.5-1.5-1.5-.5.5-1.5-1.5-.5.5-1.5-1.5-.5.5-1.5-1.5-.5 1-2-1.5-2.5-1.5.5 1-2-4.5-8.5-1.5-.5.5-1.5-1.5-.5.5-1.5-1.5-.5.5-1.5-1.5-.5.5-1.5-1.5-.5.5-1.5-1.5-.5.5-1.5-1.5-.5.5-1.5-1.5-.5.5-1.5-1.5-.5.5-1.5-1.5-.5.5-1.5-1.5-.5.5-1.5-1.5-.5 1-2h-2zM97 218l-1 1 17 16 11-1 1-1h6l1-1h7l1-1h6l1-1h6l1-1h7l4-1-5-1-1-1h-6l-1-1-14-1-1-1h-7l-1-1-14-1-1-1-15-1zm65 17-4 2-7 1-4 2-11 2-4 2-11 2-3 2 8 10 5-2 7-5 5-2 22-13zm6 11-34 26 3 8 1 7 2 4 1 7h2l26-51zm65.5 11 12 4h3l4 2 7 1 4 2 15 3 2.5 1.5-2 1 .5 1.5-1.5.5 1 2-2 1 1 2-2 1 1 2-2 1 1 2h-2l1 3-3.5 1.5-1-2-2 1-1-2-2 1-1-2-2 1-1-2-3 1-1-2-2 1-1-2-2 1-1-2-3 1-1-2-3 1-1-2-3 1-1-2-3 1-1-2-3 1-1-2-3 1-1-2-2.5-1.5 2-1-.5-1.5 1.5-.5-.5-1.5 1.5-.5-.5-1.5 1.5-.5-.5-1.5 1.5-.5-.5-1.5 1.5-.5-.5-1.5 1.5-.5-.5-1.5 1.5-.5zm186 14 1.5.5 6 9-.5 1.5 1.5.5q-2.2 1.3.5 2.5l1.5.5-.5 1.5 1.5.5q-2.2 1.3.5 2.5l1.5.5-.5 1.5 1.5.5-.5 1.5 1.5.5q-2.2 1.2.5 2.5l1.5.5-1.5 1.5q-3.2-.7-4 1h-13l-1.5-2.5q2.3-1.2 1-6l-2-1v-6l1-3-2-6z" opacity=".98"/><path fill="#038344" stroke="#038344" d="M469.5 246h19l1 1h8l1 1 15 1 1 1 13 1 1 1 12 1 1 1q4.8-1.3 6 1h6l2.5 1.5-26.5.5-1 1h-17l-1-1h-18l-1-1h-7l-1-1h-4l-6-2-4.5-3.5z" opacity=".996"/><path fill="#00888d" stroke="#00888d" d="m351.5 119 6.5.5-6.5.5zm34 0 5.5.5-5.5.5zm-44 1 3.5.5-3.5.5zm25 0 7.5.5-6.5 23.5-17.5-21.5 6.5-.5 1-1h8zm30 0 3.5.5-3.5.5zm-62 1 3.5.5-3.5.5zm66 1 9 1 6 2h5l2.5 1.5-15.5 22.5-1.5-2.5-3-15-3-8zm-75 4 2.5.5-.5 16.5-21.5-11.5.5-1.5 9-1 1-1 8-1zm125 7 2.5 1.5-3.5 3.5-.5-.5 3-3-.5-.5q-2.4-.1-1-1Zm-162 3 1.5.5v2l5 11-1.5-.5-11-5h-2l-3.5-2.5zm158 5 .5.5-4.5 4.5-.5-.5zm-94 5h19l1 1h12l1 1h6l1 1 10 1 1 1 15 3 10 4h3l3-3 .5.5-3 3 1.5 1.5 7 2 22.5 10.5-19.5 10.5-15.5 14.5-7 12-2.5 9.5q-4.7 1.2-6-1h-8l-1-1h-10l-1-1h-13l-1-1h-19l-1-1h-48l-1 1h-19l-1 1h-13l-1 1h-9l-1 1-17 1-1 1h-6l-1 1h-6l-1 1h-6l-1 1h-5l-1 1q-4.7-1.3-6 1h-5l-1 1h-4l-1 1-14 2-1 1-8 1-1 1-8 1-1 1-.5-.5 2-2 7-9-.5-1.5 2 1 20-19 13-10 7-4 4-4 32-17h2l5-3 5-1 3-2 15-5h3l4-2h3l9-3h4l6-2h5l1-1h6l1-1h8l1-1h14zm-16.5 7-1 1-7 1-5 5-1 3 1 3 7 6 8 4h3l-1-2h-2l-8-4-6-6 1-4 3-3 6-1 1-1h8l1 1q4-1 6 1v-1l-2-2zm42 3-4 2-4 5 1 5q6 8 17 11v-1l-10-6-6-6 1-5 5-3q3 1 5-1l10 1 5 2v-1l-1-2q-4 1-4-1zm-77 12-8 3-4 5q-1 4 1 6 6 7 18 9v-1l-8-3-5-3-4-4v-4l4-4 6-2h12l2 1v-1l-3-2zm113 1-1 1q-5-1-6 1l-4 4v6l1 1v1l-6-2h-5l-8 3-3 4q-1 4 1 7 6 7 16 10v-1l-10-6-5-5v-5l3-3 5-2h7l1 1 7 1q4 5 12 8v-1l-9-6-1-1-1-1-4-6 1-3 4-3q3 1 4-1h6l1 1h4l6 2v-1l-6-3h-6q-1-2-4-1Zm-52 5-1 1-7 1-5 5q-1 4 1 7l9 7 6 2q1 2 2 0l-11-6-5-5v-5l3-3 6-2h7q1 2 6 1l1 1h2l-4-3zm-27 3-9 3-4 4q-1 4 1 7l6 5 8 4h3l-1-2h-2l-8-4-5-5v-5l6-4q3 1 4-1h8l6 2v-1l-1-2zm-73 4-1 1-6 1-5 5v4l6 3h8v-1l-8-1-5-3 1-2 3-3 8-2v-1zm-15 13-8 3q-4 2-4 7l4 3 3 1h7v-1l-8-1-2-1q-2 0-2-3 3-5 11-6v-1zm-31 5-4 2-5 6 1 3 4 2q3-1 5 1l5-1v-2l-2 1-8-1-3-2 1-3 10-5zm223.5-50 .5.5-3.5 3.5-.5-.5zm-210 16 .5.5-2.5 2.5-.5-.5zm-4 3 .5.5-2.5 2.5-.5-.5zm-4 3 .5.5-3.5 3.5-.5-.5zm-6 5 .5.5-3.5 3.5-.5-.5zm-7 6 .5.5-2.5 2.5-.5-.5zm6 3 3.5.5-3.5.5zm-125 19 15.5.5-15.5.5zm28 1 5.5.5-5.5.5zm11 1 3.5.5-3.5.5zm8 1 2.5.5-2.5.5zm6 1 2.5.5-2.5.5zm-46 10 2 1 15 1 1 1 14 1 1 1h7l1 1 14 1 1 1h6l1 1 5.5.5-4.5 1.5h-7l-1 1h-6l-1 1h-6l-1 1h-7l-1 1h-6l-1 1-11 1L96 218.5zm-1 12 6.5 13.5h-1l-6-12zm66 5 3.5.5-22.5 13.5-5 2-7 5-5 2-7.5-10.5 2.5-1.5 11-2 4-2 11-2 4-2 7-1zm6 11 1.5.5-26.5 51.5-1.5-.5-1-7-2-4-1-7-3-8zm58 28 2.5 1.5-2.5.5zm191 7 .5 2.5h-1zm1 10 .5 5.5h-1zm-265 3 .5.5-2.5 2.5-.5-.5zm-3 4 .5.5-2.5 2.5-.5-.5zm287 0 .5 1.5-4.5.5v-1q3.3.8 4-1Zm-290 4 .5.5-2.5 2.5-.5-.5zm-4 5 .5.5-3.5 3.5-.5-.5z" opacity=".996"/><path fill="#43b39b" stroke="#43b39b" d="m335.5 153 6.5.5-6.5.5zm8 2 2.5.5-2.5.5zm6 0 .5 1.5-1.5.5q-1.5-1 1-2Zm30 2 2.5.5-2.5.5zm8 0 2.5.5-2.5.5zm8 0 1.5.5-3.5 1.5v-1zm-22 1q2.5 1 1 2-1.2-2.2-2.5.5l.5 1.5-1.5-1.5zm-3 4 .5 2.5h-1zm-70 6 2.5.5-2.5.5zm9 0 2.5.5-2.5.5zm104 1 3.5.5-3.5.5zm-121 2 1.5 1.5-2.5 2.5-1.5-1.5zm69 3 4.5.5-4.5.5zm-72 1 1.5 2.5h-1zm78 1 2.5.5-2.5.5zm-33 1 5.5.5-5.5.5zm70 1 .5 1.5q-1 2.5-2 1zm-55 2q2.3.8 1.5 4.5-1 2.5-2 1 1.8-.7 1-4zm-88 1 1.5.5-.5 1.5q-2.5-1-1-2Zm131 0 5.5.5-5.5.5zm-69 4 .5 2.5q-1 2.5-2 1zm60 3 .5 2.5h-1zm-133 3 1 1 1.5-.5-1.5 1.5q-2.5-1-1-2Zm8 2 5.5.5-.5 1.5q-1-2-5-1zm-12 1 1.5.5-.5 1.5q-2.5-1-1-2Zm-8 3 1.5 1.5-2.5 2.5-1.5-1.5zm-19 2q1.5 1-1 2l-1.5-.5zm16 2 .5 2.5h-1zm163 2 .5 1.5-1.5.5q-1.5-1 1-2Zm-155 3 4.5.5-4.5.5zm-23 4 1.5.5-.5 1.5q-2.5-1-1-2Zm-4 2 2.5.5-2.5.5zm94 2 16.5.5-16.5.5zm32 0 16.5.5-16.5.5zm-52 1 6.5.5-6.5.5zm82 0 6.5.5-6.5.5zm-96 1 4.5.5-4.5.5zm112 0 4.5.5-4.5.5zm-122 1 3.5.5-3.5.5zm133 0 4.5.5-4.5.5zm-143 1 3.5.5-3.5.5zm154 0 2.5.5-2.5.5zm-162 1 2.5.5-2.5.5zm-21 3 2.5.5-2.5.5zm-18 3 2.5.5-2.5.5zm264 20 3.5.5-3.5.5zm32 12 5.5.5-5.5.5zm24 0 7.5.5-7.5.5z" opacity=".996"/><path fill="#84c5b9" stroke="#84c5b9" d="m345.5 154 1.5.5-.5 1.5q-2.5-1-1-2Zm33 2 1.5.5q-1 2.5-2 1zm12 0q2.5 1 1 2l-1.5-.5zm-66 10 3.5 2.5-.5.5-2-2q-2.4-.1-1-1Zm-21 2q5.3-1.2 6.5 1.5l-7.5.5q-1.5-1 1-2Zm71 1 2.5 3.5h-1l-2-3zm35 1 1.5.5q-1 2.5-2 1zm12 0q2.5 1 1 2l-1.5-.5zm7 2q2.5 1 1 2l-1.5-.5zm-59 3 1.5.5-.5 1.5q-2.5-1-1-2Zm-80 1 1.5 2.5-1.5.5zm63 1 .5 1.5q-1 2.5-2 1zm-61 5 2.5 2.5-.5.5-2.5-2.5zm-39 4q1.5 1-1 2l-1.5-.5zm99 2 3.5 3.5-.5.5-3.5-3.5zm-45 1q2.5 1 1 2l-1.5-.5zm-50 4 2.5 1.5-1.5.5q-2.5-1-1-2Zm129 3 2.5 2.5-.5.5-2.5-2.5zm-143 10q2.5 1 1 2l-1.5-.5zm85 8 14.5.5-14.5.5zm-30 1 4.5.5-4.5.5zm69 0 5.5.5-5.5.5zm-85 1 4.5.5-4.5.5zm102 0 4.5.5-4.5.5zm-113 1 2.5.5-2.5.5zm126 0 2.5.5-2.5.5zm-136 1 2.5.5-2.5.5zm147 0 2.5.5-2.5.5zm-156 1 2.5.5-2.5.5zm165 0 2.5.5-2.5.5zm-173 1 2.5.5-2.5.5zm240 0 2.5.5-2.5.5z" opacity=".996"/><path fill="#a9d16e" stroke="#a9d16e" d="m461.5 174 6 2 28 18 23 18 17 17q1.3-2.2 2.5.5l-1 1 4 4 1.5 2.5 1.5-.5-1 1 3 3 6.5 9.5q1.2-2.3 2.5.5l-1 2 .5 1.5-5 1v-2q-4.2-.7-6 1v-2q-4.2-.7-6 1l-1-2q-4.2-.7-6 1v-2q-4.2-.7-6 1l-1-2q-4.2-.7-6 1l-1-2q-4.8-.8-7 1v-2h-5l-3 1v-2q-5.5-1-8 1l-1-2h-7l-3 1-1-2-10.5.5-.5 1.5q-1.2-2.2-2.5.5l1 2-.5 1.5 2.5 1.5 1.5 2.5 4 1 1.5-.5-.5 1.5 4-1 1 2 5-1 1 2 11-1v2l40.5.5q-1.2 2.8-2.5.5l-2.5.5-.5 1.5-3-1q-1.5 3.5-3 1l-7 1-1 1h-4l-1 1h-4l-2 2-3-1q-1.5 3.5-3 1l-3.5.5-.5 1.5q-.8-1.8-4-1-1.5 3.5-3 1-4.2-.7-5 2-.7-1.8-4-1-1.5 3.5-3 1-4.2-.7-5 2-1-2-5-1v2l-6-1q-1.5 3.5-3 1-5-1-6 2-1-2-5-1-1.5 3.5-3 1h-4l-3 2q-1-2-5-1l-1 2-2.5-2.5-5-10v-2l-6-14v-3l-2-5v-4l-1-1v-16l6-17q6.5-11 16.5-18.5 9.4-7.1 21-12Zm16.5 22-5 2-7 8v7l3 6 6 4 5 2h11l4-2 6-7v-7l-2-4q-3-6-9-8l-3-1z" opacity=".996"/><path fill="#a9d16e" stroke="#a9d16e" d="m544.5 257 3.5.5-.5 1.5-3-1z" opacity=".996"/><path fill="#b4d2c8" stroke="#b4d2c8" d="m332.5 154 12.5.5-12.5.5zm-5 2q1.5 1-1 2l-1.5.5-1.5 5.5-.5-3.5 2.5-3.5zm53 0 9.5.5-9.5.5zm-4 1 1.5.5-6 4v5l4 5-.5.5-2.5-2.5-2-3v-5zm16 0 2.5.5-2.5.5zm-67 10 7.5 5.5-1.5-.5q-5-1.5-6-5Zm-27 2 3.5.5-3.5.5zm12 0 3.5.5-3.5.5zm-15 1 1.5.5-6 4-.5 1.5-.5-1.5zm116 0 9.5.5-9.5.5zm-4 1 1.5.5-5 4q-.7 4.2 1 6l6.5 6.5 2.5 1.5-1.5-.5-5-4-5.5-1.5 3-1q-2.8-1.7-2-7zm-30 1 2 2 7.5 3.5-1.5.5-6-3-2.5-2.5zm-43 1 3.5 1.5-1.5.5-2.5-1.5zm24 2 10.5.5-10.5.5zm-4 1 2.5.5-3.5 1.5q-1.5-1 1-2Zm17 0 2.5.5-2.5.5zm-40 2 12.5.5-12.5.5zm20 0-.5 1.5-1 5 7 8-.5.5-6.5-6.5-1-5zm-61 1 5.5 6.5-.5.5-5.5-5.5zm38 0 1.5.5q-4.3 1.2-6.5 4.5l-.5-.5 3.5-3.5zm17 0 2.5.5-2.5.5zm-86 3 2.5.5-2.5.5zm131 0 10.5.5-10.5.5zm-136 2q1.5 1-1 2l-2 1q-1.5-1 1-2zm131 0 .5.5-2.5 2.5-.5-.5zm-135 4 2 4 3.5 1.5-1.5.5-4.5-3.5zm73 0 6 7 2.5 1.5-1.5-.5-5.5-3.5-2-3zm59 0 .5 2.5h-1zm1 4 6.5 7.5-.5.5-6.5-6.5zm-25 1 2.5 1.5-1.5.5q-2.5-1-1-2Zm-99 1 3.5.5-3.5.5zm-15 1 2.5.5-2.5.5zm-3 1 1.5.5-6 4-.5 1.5-.5-1.5zm92 1 3.5 1.5-1.5.5-2.5-1.5zm-119 3 1.5.5q-4.7 1.3-7 5-.7 3.8 1.5 4.5l1.5.5-1.5.5q-3.2-.7-2.5-5.5zm177 0 6.5 3.5-1.5.5-4-2q-2.5-1-1-2Zm90 0 2.5.5-2.5.5zm-245 3q1.3 3.3 5.5 3.5l-2.5.5-3.5-3.5zm8 4 3.5.5-3.5.5zm251 3 .5 2.5h-1zm-282 1 7.5.5-7.5.5zm89 4h63l1 1h16l1 1 23 1 1 1h8l3.5 1.5-1 1v16l1 1v4l1 1v3l1 1v3l2 6 2 3 2 7 5 10 2 2-4.5.5-1 1-3.5-2.5-4.5-7.5-5.5 4.5-.5 6.5h-10l-1 1h-43l-1-1h-11l-1-1h-9l-1-1-14-1-1-1h-5l-1-1-11-1-1-1-14-2-5-2h-4l-4-2h-3l-1-1-15-3-11-4h-3l-7-3h-4l-36-12-3-2-11-3-2-2q-5.7-.2-8.5-3.5l1.5-1.5h4l5-2 9-1 5-2h5l1-1h4l6-2h5l1-1q4.7 1.2 6-1h6l1-1q4.8 1.3 6-1h7l1-1h7l1-1h8l1-1h9l1-1h12l1-1h15z" opacity=".996"/><path fill="#bedd79" stroke="#bedd79" d="m464.5 173 12 7 33 23 13 11 13.5 13.5 1.5 2.5 1.5.5 4.5 6.5 1.5.5 13 18-1.5-.5-5.5-.5 4-1q-15.3-23.7-36.5-41.5l-23-18-18-12-13.5-7.5zm7 71 10.5.5-10.5.5zm14 1 7.5.5-7.5.5zm10 1 6.5.5-6.5.5zm9 1 5.5.5-5.5.5zm7 1 5.5.5-5.5.5zm8 1 4.5.5-4.5.5zm7 1 4.5.5-4.5.5zm6 1 4.5.5-4.5.5zm-61 1 3 2 5.5 1.5-2.5.5-5-2q-2.5-1-1-2Zm68 0 4.5.5-4.5.5z" opacity=".945"/><path fill="#bedd79" stroke="#bedd79" d="m545.5 253 4.5.5-4.5.5zm-63 3 3.5.5-3.5.5zm6 1 6.5.5-6.5.5zm60 0 5.5.5-5.5 1.5zm-49 1 47.5.5-1.5 1.5-6 1v-2h-40z" opacity=".945"/><path fill="#bedd79" stroke="#bedd79" d="m535.5 260 2.5.5-2.5 1.5zm-4 1 2.5.5q-.5 2-3.5 1.5-1.5-1 1-2Zm-5 1 2.5.5-1.5 1.5h-4l-1 1h-4l-1 1-7 1q-1.5-1 1-2h4l1-1h4zm-20 4 2.5.5q-.5 2-3.5 1.5-1.5-1 1-2Zm-6 1 3.5.5-3.5 1.5zm-5 1 3.5.5-4.5 1.5q-1.5-1 1-2Zm-6 1 3.5.5-4.5 1.5q-1.5-1 1-2Zm-6 1 3.5.5-4.5 1.5q-1.5-1 1-2Zm-6 1 3.5.5-4.5 1.5q-1.5-1 1-2Zm-7 1 4.5.5-3.5 1.5q-2.5-1-1-2Zm-6 1 3.5.5-4.5 1.5q-1.5-1 1-2Zm-7 1 4.5.5q-1.4 2.1-5.5 1.5-1.5-1 1-2Zm-7 1 4.5.5q-1.4 2.1-5.5 1.5-1.5-1 1-2Zm-7 1 4.5.5-5.5 1.5q-1.5-1 1-2Zm-8 1 4.5.5-4.5 1.5z" opacity=".945"/><path fill="#f7fbf8" stroke="#f7fbf8" d="M478.5 196h6q.8 1.7 4 1l6 3 3.5 3.5 3 7v3l-2 5-3.5 3.5-7 3h-7l-8-3-5.5-5.5-2-5v-4l2-5 3.5-3.5zm3.5 4-6 2-4 4-1 3v3l2 4 6 4q3-1 4 1h4l5-2 3-3 1-3-1-5-5-6z" opacity=".98"/><path fill="#f7fbf8" stroke="#f7fbf8" d="M481.5 210q4.5-1 5.5 1.5.8 3.8-1.5 4.5l-3 1-3.5-2.5.5-3.5z" opacity=".98"/><path fill="#87c87c" stroke="#87c87c" d="m437.5 188 .5.5-7.5 7.5-.5-.5zm40 57 4.5.5-4.5.5zm13 1 2.5.5-2.5.5zm10 11 4.5.5-4.5.5zm37 0 6.5.5-6.5.5z" opacity=".996"/><path fill="#5592a5" stroke="#5592a5" d="m418.5 271 .5.5-3.5 3.5-.5-.5z" opacity=".996"/><path fill="#94cfaa" stroke="#94cfaa" d="m369.5 284 2.5.5-2.5.5zm23 0 2.5.5-2.5.5z" opacity=".008"/><path fill="#03ac9d" stroke="#03ac9d" d="m364.5 115 4.5.5-4.5.5zm9 0 4.5.5-4.5.5zm-162 77 1 1 1.5-.5-1.5 1.5q-1-2-2 0l-1.5-.5zm-4 3 1 1 1.5-.5-1.5 1.5q-2.5-1-1-2Zm-4 3 1 1 1.5-.5-2.5 2.5-1.5-1.5zm-95 3 2.5.5-2.5.5zm92 1 .5.5-2.5 2.5-.5-.5zm-8 7 .5.5-12.5 12.5v-3q1.3 2.2 2.5-.5l-1-1 2.5-2.5q1.3 2.3 2.5-.5l-1-1 3.5-3.5q1.5 2.5 3-1Z" opacity=".008"/><path fill="#919247" stroke="#919247" d="m537.5 226 1.5 2.5q-1 1.5-2-1z" opacity=".016"/><path fill="#00a288" stroke="#00a288" d="m453.5 136 .5 1.5q-1 2.5-2 1z" opacity=".012"/><path fill="#d9f0dc" stroke="#d9f0dc" d="m476.5 178 2.5 1.5-1.5-.5q-2.4-.1-1-1Zm-292 62 1.5.5-2.5 1.5q-1.5-1 1-2Zm3 1 1.5.5-2 1 2 1-1.5.5-2.5-1.5zm6 2 3.5 1.5-2 1 .5 1.5-2.5-1.5 2-1-2-1z" opacity=".157"/><path fill="#d9f0dc" stroke="#d9f0dc" d="m198.5 245 1.5.5-2 1 2 1-1.5.5q-3-1.5 0-3Zm6 2 1.5.5-4.5 1.5v-1zm6 2 1.5.5-3.5 1.5v-1zm3 1 1.5.5-3.5 1.5v-1zm3 1 1.5.5-3.5 1.5v-1zm3 1 1.5.5-3.5 1.5v-1zm3 1 1.5.5-3.5 1.5v-1zm6 2 1.5.5-2 1 2.5.5 2-1v1l-4 1-2.5-1.5zm55 15 2.5.5-2.5.5zm4 1 2.5.5-2.5.5zm-5 1 3.5.5-3.5.5zm9 0 3.5.5-4 1 4.5.5q.8-1.7 4-1v1l-3.5.5 4.5.5q.8-1.7 4-1v1l-3.5.5 4 1-3.5.5-1-1h-4l-1-1h-4l-3.5-1.5zm15 3 4.5.5-4.5.5zm6 1 4.5.5-4.5.5zm-4 1 2.5.5-2.5.5zm10 0 4.5.5-4.5.5zm-6 1 4.5.5-4.5.5zm12 0 5.5.5-5.5.5zm-6 1 4.5.5-4.5.5zm13 0 6.5.5-6.5.5zm98 0 4.5.5-4.5.5zm-103 1 3.5.5-3.5.5zm14 0 7.5.5-7.5.5zm-8 1 6.5.5-6.5.5zm18 0 9.5.5-9.5.5zm54 0 8.5.5-8.5.5zm26 0 2.5.5-2.5.5zm-88 1 5.5.5-5.5.5zm25 0 31.5.5-31.5.5zm-11 1 5.5.5-5.5.5zm46 0 7.5.5-7.5.5zm-36 1 2.5.5-2.5.5zm6 0 19.5.5-19.5.5zm23 0 2.5.5-2.5.5z" opacity=".157"/><path fill="#008cd3" stroke="#008cd3" d="M265.5 140q1.5 1-1 2l-1.5-.5zm170 18q3-.5 3.5 1.5l-1.5-.5q-3 .5-2-1Zm18 7 2.5 1.5-1.5.5q-2.5-1-1-2Zm-240 25 1.5.5-2.5 1.5q-1.5-1 1-2Zm-126 11 2.5.5-2.5.5zm17 0 2.5.5-2.5.5z" opacity=".016"/><path fill="#cae27f" stroke="#cae27f" d="m503.5 196 2.5 2.5-1.5 1.5-2.5-2.5zm3 4q1 2 2 0l1.5 1.5-1.5 1.5-2.5-2.5zm6 3 2.5 2.5-1 1 .5 1.5-3.5-3.5zm6 5-.5 1.5 1.5 1.5 1-1 2.5 2.5-1.5 1.5-4.5-4.5zm11 10 6.5 6.5-1 1 2 2-.5.5-8.5-8.5zm11 12 4.5 4.5-1.5 1.5-4.5-4.5zm5 6 2.5 2.5-1 1 2 2-.5.5-3.5-3.5 1-1zm5 6 2.5 2.5-1.5 1.5-2.5-2.5zm7 12 1 1 1.5-.5-1.5 2.5-1.5-2.5zm-7 4 4.5 1.5-1.5.5-3-1zm-4 1 4.5 1.5-1.5.5-3-1zm-9 2 2.5.5-2.5.5zm-9 2 2.5.5-2.5.5zm8 0 2.5.5-2.5.5zm-13 1 2.5.5-2.5.5zm-5 1 2.5.5-2.5.5zm-5 1 2.5.5-2.5.5zm-5 1 2.5.5-2.5.5zm9 0 2.5.5-2.5.5zm-15 1 3.5.5-3.5.5zm-5 1 2.5.5-2.5.5zm10 0 2.5.5-2.5.5zm-16 1 3.5.5-3.5.5zm-6 1 3.5.5-3.5.5zm11 0 2.5.5-2.5.5zm-17 1 3.5.5-3.5.5zm-6 1 3.5.5-3.5.5zm-7 1 3.5.5-3.5.5zm12 0 2.5.5-2.5.5zm-18 1 3.5.5-3.5.5zm11 0 3.5.5-3.5.5zm-18 1 3.5.5-3.5.5zm-8 1 4.5.5-4.5.5zm13 0 3.5.5-3.5.5zm-20 1 4.5.5-4.5.5zm13 0 3.5.5-3.5.5zm-7 1 3.5.5-3.5.5z" opacity=".098"/><path fill="#005d8b" stroke="#005d8b" d="m369.5 115 3.5.5-3.5.5zm-18 1 3.5.5-3.5.5zm34 0 6.5.5-6.5.5zm-26 1 22.5.5-22.5.5zm37 0 4.5.5-4.5.5zm-50 1 5.5.5-5.5.5zm44 0 4.5.5-4.5.5zm15 0 2.5.5-2.5.5zm-77 1 2.5.5-2.5.5zm11 0 2.5.5-2.5.5zm60 0 3.5.5-3.5.5zm-67 1 2.5.5-2.5.5zm74 0 2.5.5-2.5.5zm9 0 1.5.5-4.5 1.5v-1zm-100 2 3.5 1.5-1.5.5-2.5-1.5zm-4 1 3.5 1.5-1.5.5-2.5-1.5zm124 2 1.5.5-3.5 1.5v-1zm-141 3 3.5 1.5-1.5.5-2.5-1.5zm-2 1 2.5 1.5-1.5.5q-2.5-1-1-2Zm-8 3 2.5 1.5-1.5.5q-2.5-1-1-2Zm-5 2 2.5 1.5-1.5.5q-2.5-1-1-2Zm173 2 .5.5-3 3 1 1-5.5 5.5-1.5.5 1 1-4.5 4.5.5-1.5-1-1 4.5-4.5 3.5-2.5-1-1zm-14 16-.5 1.5 1 1-3.5 3.5.5-1.5-1-1zm-206 8q2.5 1 1 2l-1-1-1.5.5zm-4 3 1 1 1.5-.5-1.5 1.5q-2.5-1-1-2Zm-8 6 1 1 1.5-.5-1.5 1.5q-2.5-1-1-2Zm-2 3 .5.5-2.5 2.5-1-1-2 2-.5-.5 2.5-2.5q1.5 2.5 3-1Zm-6 5 .5.5-4.5 4.5-1-1-2 2-.5-.5 4.5-4.5q1.5 2.5 3-1Zm-3 9 5.5.5-5.5.5zm-119 15 13.5.5-13.5.5zm27 1 6.5.5-6.5.5zm-36 1 12.5.5-12 1 1 2h-3zm19 0 13.5.5-13.5.5zm29 0 3.5.5-3.5.5zm-7 1 4.5.5-4.5.5zm15 0 2.5.5-2.5.5zm-6 1 3.5.5-3.5.5zm7 1 2.5.5-2.5.5zm17 2 1.5.5-3.5 1.5v-1zm12 4q1.5 1-1 2l-1.5-.5zm11 6q2.5 1 1 2l-1-1-1.5.5zm-87 11 1 1 1.5-.5-1 2h2l-1 2h2l-1.5 2.5-3.5-6.5zm91 13 1.5 2.5q-1 1.5-2-1zm-1 3 1.5 2.5q-1 1.5-2-1zm-3 7 1.5 2.5q-1 1.5-2-1zm-73 1 1.5 2.5h-3zm127 5-.5 1.5-1.5 2.5q-2.5-1-1-2l1.5.5zm-124 1 .5 1.5q-1 2.5-2 1zm172 12 1.5 3.5h-1zm-1 3 1.5 2.5q-1 1.5-2-1zm-56 1 2.5 1.5-2.5.5zm192 7 .5 7.5h-1zm-255 2 1 1 1.5-.5-1.5 1.5q-2.5-1-1-2Zm254 8 .5 6.5h-1zm-260 1 1.5 1.5-2.5 2.5.5-1.5-1-1zm283 1 .5 1.5q-1 2.5-2 1zm-16 6 11.5.5-11.5.5zm-273 1-.5 1.5 1 1-1.5 1.5.5-1.5-1-1zm284 1 5.5.5-5.5.5zm-287 3 1.5 1.5-3.5 3.5.5-1.5-1-1zm-4 5 .5.5-2 2 1 1-1.5 1.5q-1.5-2.5-3 1l-1.5-1.5 1.5.5z" opacity=".133"/><path fill="#007e91" stroke="#007e91" d="m352.5 118 4.5.5-4.5.5zm33 0 4.5.5-4.5.5zm-43 1 2.5.5-2.5.5zm54 0 2.5.5-2.5.5zm-61 1 2.5.5-2.5.5zm118 13 .5 1.5q-1 2.5-2 1zm-7 9 .5.5-2.5 2.5-.5-.5zm-231 33 .5.5-2.5 2.5-.5-.5zm-8 7-1 3 1.5.5-2.5.5-.5-1.5zm8 4 3.5.5-3.5.5zm-121 17 5.5.5-5.5.5zm22 1 5.5.5-5.5.5zm12 1 2.5.5-2.5.5zm69 0 .5.5-3.5 3.5-.5-.5zm219 86 .5 6.5h-1zm17 9 5.5.5-5.5.5z" opacity=".533"/></svg>