<svg viewBox="0 0 640 613" version="1.1" xmlns="http://www.w3.org/2000/svg" desc="Created with imagetracer.js version 1.2.6" ><path fill="rgb(0,0,0)" stroke="rgb(0,0,0)" stroke-width="1" opacity="0.996078431372549" d="M 316.5 0 L 317 25.5 L 316 26.5 L 316 89.5 L 317 90.5 L 317 115.5 L 318 116.5 L 318 131.5 L 319 132.5 L 320 154.5 L 321.5 158 L 345.5 143 L 365.5 133 L 367.5 133 L 372.5 130 L 374.5 130 L 377.5 128 L 379.5 128 L 382.5 126 L 394.5 122 L 397.5 122 L 401.5 120 L 409.5 119 L 414.5 117 Q 418.5 118 419.5 116 L 426.5 116 L 427.5 115 L 433.5 115 L 434.5 114 L 468.5 114 L 469.5 115 L 483.5 116 L 484.5 117 L 488.5 117 L 489.5 118 L 493.5 118 L 494.5 119 L 501.5 120 L 505.5 122 L 508.5 122 L 517.5 125 L 525.5 129 L 527.5 129 L 543.5 137 L 554.5 144 Q 569 154 580 167.5 L 595 188.5 L 606 209.5 L 606 211.5 L 610 218.5 L 615 233.5 L 617 236.5 L 627 266.5 L 627 269.5 L 629 273.5 L 629 276.5 L 630 277.5 L 630 280.5 L 633 289.5 L 633 293.5 L 635 299.5 L 635 304.5 L 636 305.5 L 636 311.5 L 637 312.5 L 638 329.5 L 639 330.5 L 640 366.5 L 639 367.5 L 639 383.5 L 638 384.5 L 638 394.5 L 637 395.5 L 637 402.5 L 636 403.5 L 636 408.5 L 635 409.5 L 634 420.5 L 633 421.5 L 632 429.5 L 628 441.5 L 628 444.5 L 624 456.5 L 622 459.5 L 622 461.5 L 619 466.5 L 619 468.5 L 601 504.5 L 589 523.5 Q 573.9 544.4 554.5 561 L 531.5 579 L 519.5 587 L 493.5 600 L 481.5 604 L 478.5 604 L 469.5 607 L 465.5 607 L 464.5 608 L 458.5 608 L 457.5 609 L 448.5 609 L 447.5 610 L 416.5 610 L 415.5 609 L 404.5 609 L 403.5 608 L 395.5 608 L 394.5 607 L 388.5 607 L 387.5 606 L 381.5 606 L 380.5 605 L 368.5 604 L 367.5 603 L 357.5 602 L 356.5 601 L 352.5 601 L 351.5 600 L 347.5 600 L 346.5 599 L 342.5 599 L 341.5 598 L 337.5 598 L 336.5 597 L 332.5 597 L 331.5 596 L 327.5 596 L 326.5 595 L 322.5 595 L 317.5 593 L 313.5 593 L 312.5 592 L 304.5 591 L 303.5 592 L 298.5 592 L 297.5 593 L 293.5 593 L 292.5 594 L 288.5 594 L 287.5 595 L 283.5 595 L 282.5 596 L 278.5 596 L 272.5 598 L 261.5 599 L 260.5 600 L 251.5 600 L 250.5 601 L 222.5 601 L 221.5 600 L 214.5 600 L 213.5 599 L 208.5 599 L 207.5 598 L 196.5 596 L 184.5 592 L 181.5 590 L 179.5 590 L 163.5 582 L 146.5 571 L 125.5 555 L 94 525.5 L 68 494.5 L 53 472.5 L 44 457.5 L 39 446.5 L 37 444.5 L 22 410.5 L 21 405.5 L 19 402.5 L 15 390.5 L 15 387.5 L 12 380.5 L 12 377.5 L 10 373.5 L 10 370.5 L 7 361.5 L 7 357.5 L 5 352.5 L 4 342.5 L 3 341.5 L 2 327.5 L 1 326.5 L 1 317.5 L 0 316.5 L 0 287.5 L 1 286.5 L 2 270.5 L 3 269.5 L 3 265.5 L 4 264.5 L 4 260.5 L 5 259.5 L 6 251.5 L 14 227.5 L 17 222.5 L 17 220.5 L 23 209.5 L 23 207.5 L 32 192.5 Q 40.6 180.6 51.5 171 L 65.5 160 L 80.5 151 L 97.5 143 L 102.5 142 L 105.5 140 L 117.5 136 L 120.5 136 L 121.5 135 L 124.5 135 L 133.5 132 L 137.5 132 L 138.5 131 L 150.5 130 L 151.5 129 L 158.5 129 L 159.5 128 L 172.5 128 L 173.5 127 L 210.5 127 L 211.5 128 L 228.5 128 L 229.5 129 L 237.5 129 L 238.5 130 L 251.5 131 L 252.5 132 L 256.5 132 L 257.5 133 L 268.5 135 L 281.5 140 L 282 137.5 L 279 128.5 L 277 125.5 L 274 114.5 L 272 111.5 L 270 103.5 L 268 100.5 L 268 98.5 L 266 95.5 L 262 83.5 L 258 76.5 L 258 74.5 L 244 47.5 Q 237.8 37.7 229 30.5 Q 231.3 23.8 236.5 20 L 247.5 14 L 259.5 10 L 263.5 10 L 264.5 9 L 273.5 8 L 274.5 7 L 279.5 7 L 280.5 6 L 286.5 6 L 287.5 5 L 293.5 5 L 294.5 4 L 300.5 4 L 301.5 3 L 307.5 3 L 316.5 0 Z M 437 132 L 436 133 L 428 133 Q 426 135 422 134 L 421 135 L 417 135 L 408 138 L 405 138 L 404 139 L 401 139 L 389 143 L 386 145 L 384 145 L 381 147 L 379 147 L 349 162 L 324 179 L 327 196 L 328 197 L 318 197 L 317 196 L 311 196 L 299 192 L 290 164 L 278 157 L 263 152 L 256 151 L 255 150 L 245 149 L 244 148 L 238 148 L 237 147 L 228 147 L 227 146 L 210 146 L 209 145 L 175 145 L 174 146 L 161 146 L 160 147 L 153 147 L 152 148 L 141 149 L 136 151 L 128 152 L 104 160 L 84 170 L 67 182 L 51 198 L 45 206 L 34 227 L 34 229 L 31 234 L 24 255 L 23 262 L 22 263 L 22 267 L 21 268 L 21 272 L 20 273 L 20 279 L 19 280 L 19 289 L 18 290 L 18 315 L 19 316 L 19 326 L 20 327 L 20 334 Q 22 335 21 340 L 22 341 L 22 346 L 23 347 L 23 351 L 26 360 L 26 364 L 28 368 L 28 371 L 29 372 L 29 375 L 39 405 L 47 422 L 47 424 L 65 458 L 81 482 L 103 509 Q 131 539 166 562 L 176 568 L 191 575 L 203 579 L 210 580 L 211 581 L 223 582 L 224 583 L 251 583 L 252 582 L 259 582 L 260 581 L 266 581 L 272 579 L 276 579 L 277 578 L 281 578 L 282 577 L 286 577 L 287 576 L 291 576 L 292 575 L 296 575 L 297 574 L 303 574 L 304 573 L 310 573 L 311 574 L 319 575 L 320 576 L 334 578 L 335 579 L 339 579 L 340 580 L 344 580 L 345 581 L 349 581 L 350 582 L 354 582 L 355 583 L 359 583 L 360 584 L 365 584 L 371 586 L 382 587 L 383 588 L 397 589 L 398 590 L 405 590 L 406 591 L 417 591 L 418 592 L 447 592 L 448 591 L 457 591 L 458 590 L 463 590 L 464 589 L 468 589 L 473 587 L 476 587 L 488 583 L 503 576 L 522 564 L 548 543 L 567 523 L 580 505 L 585 495 L 587 493 L 605 456 L 612 435 L 614 424 L 615 423 L 615 419 L 616 418 L 616 414 L 617 413 L 617 409 L 618 408 L 619 394 L 620 393 L 620 384 L 621 383 L 621 364 L 622 363 L 622 353 L 621 352 L 621 332 L 620 331 L 619 314 L 618 313 L 618 308 L 617 307 L 617 302 L 615 296 L 615 292 L 612 283 L 612 280 L 610 276 L 610 273 L 601 246 L 596 235 L 595 230 L 586 212 L 586 210 L 572 187 L 564 177 Q 553 164 539 155 L 522 146 L 515 144 L 512 142 L 503 139 L 500 139 L 499 138 L 496 138 L 495 137 L 492 137 L 491 136 L 488 136 L 487 135 L 477 134 L 476 133 L 469 133 L 468 132 L 437 132 Z " /><path fill="rgb(0,0,0)" stroke="rgb(0,0,0)" stroke-width="1" opacity="0.996078431372549" d="M 414.5 242 L 416.5 245 L 418 245.5 Q 417 249.5 419 250.5 L 419 439.5 L 418 440.5 L 418 448.5 L 414 457.5 L 404.5 468 Q 397.1 473.6 387.5 477 L 379.5 478 L 378.5 479 L 366.5 479 L 365.5 478 L 361.5 478 L 355.5 476 L 346 469.5 L 340 459.5 L 340 454.5 L 339 451.5 Q 341.3 450.3 340 445.5 L 343 438.5 L 355.5 425 L 364.5 420 L 366.5 420 L 369.5 418 L 376.5 417 L 377.5 416 L 392.5 416 L 393.5 417 L 400.5 418 L 407.5 422 L 408 269.5 L 406.5 269 L 405.5 270 L 400.5 270 L 399.5 271 Q 394.8 269.8 393.5 272 L 387.5 272 L 386.5 273 L 381.5 273 L 380.5 274 L 375.5 274 L 374.5 275 Q 369.8 273.8 368.5 276 L 362.5 276 L 361.5 277 L 356.5 277 L 355.5 278 L 350.5 278 L 349.5 279 Q 344.8 277.8 343.5 280 L 337.5 280 L 336.5 281 L 331.5 281 L 330.5 282 L 325.5 282 L 324.5 283 L 313.5 284 L 312.5 285 L 306.5 285 L 305.5 286 L 300.5 286 L 299.5 287 L 294.5 287 L 293.5 288 Q 288.7 286.7 287.5 289 L 281.5 289 L 279 290.5 L 279 464.5 L 274 476.5 L 268.5 483 L 257.5 491 L 250.5 494 L 244.5 495 L 243.5 496 L 238.5 496 L 237.5 497 L 228.5 497 L 227.5 496 L 222.5 496 L 216.5 494 L 206 486.5 L 201 477.5 Q 201.8 474.3 200 473.5 L 200 466.5 L 203 457.5 L 207 451.5 L 213.5 445 L 217.5 442 L 233.5 435 Q 236.7 435.8 237.5 434 L 254.5 434 L 255.5 435 L 261.5 436 L 269.5 440 L 270.5 268 L 272 267.5 L 272.5 265 L 282.5 264 L 283.5 263 L 288.5 263 L 289.5 262 L 294.5 262 L 295.5 261 L 301.5 261 L 302.5 260 L 307.5 260 L 308.5 259 L 313.5 259 L 314.5 258 Q 319.3 259.3 320.5 257 L 326.5 257 L 327.5 256 L 332.5 256 L 333.5 255 L 338.5 255 L 339.5 254 Q 344.3 255.2 345.5 253 L 351.5 253 L 352.5 252 L 357.5 252 L 358.5 251 L 363.5 251 L 364.5 250 L 369.5 250 L 370.5 249 Q 375.2 250.2 376.5 248 L 382.5 248 L 383.5 247 L 388.5 247 L 389.5 246 L 394.5 246 L 395.5 245 Q 400.3 246.3 401.5 244 L 407.5 244 L 408.5 243 Q 413.2 244.2 414.5 242 Z " /><path fill="rgb(117,0,0)" stroke="rgb(117,0,0)" stroke-width="1" opacity="0.996078431372549" d="M 430.5 114 L 434 114.5 L 430.5 115 L 430.5 114 Z " /><path fill="rgb(117,0,0)" stroke="rgb(117,0,0)" stroke-width="1" opacity="0.996078431372549" d="M 423.5 115 L 427 115.5 L 423.5 116 L 423.5 115 Z " /><path fill="rgb(117,0,0)" stroke="rgb(117,0,0)" stroke-width="1" opacity="0.996078431372549" d="M 166.5 127 L 173 127.5 L 166.5 128 L 166.5 127 Z " /><path fill="rgb(117,0,0)" stroke="rgb(117,0,0)" stroke-width="1" opacity="0.996078431372549" d="M 211.5 127 L 220 127.5 L 211.5 128 L 211.5 127 Z " /><path fill="rgb(117,0,0)" stroke="rgb(117,0,0)" stroke-width="1" opacity="0.996078431372549" d="M 155.5 128 L 159 128.5 L 155.5 129 L 155.5 128 Z " /><path fill="rgb(117,0,0)" stroke="rgb(117,0,0)" stroke-width="1" opacity="0.996078431372549" d="M 148.5 129 L 151 129.5 L 148.5 130 L 148.5 129 Z " /><path fill="rgb(117,0,0)" stroke="rgb(117,0,0)" stroke-width="1" opacity="0.996078431372549" d="M 436.5 132 L 441 132.5 L 436.5 133 L 436.5 132 Z " /><path fill="rgb(117,0,0)" stroke="rgb(117,0,0)" stroke-width="1" opacity="0.996078431372549" d="M 462.5 132 L 468 132.5 L 462.5 133 L 462.5 132 Z " /><path fill="rgb(117,0,0)" stroke="rgb(117,0,0)" stroke-width="1" opacity="0.996078431372549" d="M 427.5 133 L 431 133.5 L 427.5 134 L 427.5 133 Z " /><path fill="rgb(117,0,0)" stroke="rgb(117,0,0)" stroke-width="1" opacity="0.996078431372549" d="M 473.5 133 L 476 133.5 L 473.5 134 L 473.5 133 Z " /><path fill="rgb(117,0,0)" stroke="rgb(117,0,0)" stroke-width="1" opacity="0.996078431372549" d="M 421.5 134 L 424 134.5 L 421.5 135 L 421.5 134 Z " /><path fill="rgb(117,0,0)" stroke="rgb(117,0,0)" stroke-width="1" opacity="0.996078431372549" d="M 479.5 134 L 482 134.5 L 479.5 135 L 479.5 134 Z " /><path fill="rgb(117,0,0)" stroke="rgb(117,0,0)" stroke-width="1" opacity="0.996078431372549" d="M 174.5 145 L 209 145.5 L 174.5 146 L 174.5 145 Z " /><path fill="rgb(117,0,0)" stroke="rgb(117,0,0)" stroke-width="1" opacity="0.996078431372549" d="M 160.5 146 L 165 146.5 L 160.5 147 L 160.5 146 Z " /><path fill="rgb(117,0,0)" stroke="rgb(117,0,0)" stroke-width="1" opacity="0.996078431372549" d="M 221.5 146 L 227 146.5 L 221.5 147 L 221.5 146 Z " /><path fill="rgb(117,0,0)" stroke="rgb(117,0,0)" stroke-width="1" opacity="0.996078431372549" d="M 152.5 147 L 155 147.5 L 152.5 148 L 152.5 147 Z " /><path fill="rgb(117,0,0)" stroke="rgb(117,0,0)" stroke-width="1" opacity="0.996078431372549" d="M 233.5 147 L 237 147.5 L 233.5 148 L 233.5 147 Z " /><path fill="rgb(117,0,0)" stroke="rgb(117,0,0)" stroke-width="1" opacity="0.996078431372549" d="M 241.5 148 L 244 148.5 L 241.5 149 L 241.5 148 Z " /><path fill="rgb(117,0,0)" stroke="rgb(117,0,0)" stroke-width="1" opacity="0.996078431372549" d="M 140.5 149 L 143 149.5 L 140.5 150 L 140.5 149 Z " /><path fill="rgb(117,0,0)" stroke="rgb(117,0,0)" stroke-width="1" opacity="0.996078431372549" d="M 247.5 149 L 250 149.5 L 247.5 150 L 247.5 149 Z " /><path fill="rgb(117,0,0)" stroke="rgb(117,0,0)" stroke-width="1" opacity="0.996078431372549" d="M 320.5 150 L 321 154.5 L 320 154.5 L 320.5 150 Z " /><path fill="rgb(117,0,0)" stroke="rgb(117,0,0)" stroke-width="1" opacity="0.996078431372549" d="M 548.5 162 L 551 164.5 L 550.5 165 L 548 162.5 L 548.5 162 Z " /><path fill="rgb(117,0,0)" stroke="rgb(117,0,0)" stroke-width="1" opacity="0.996078431372549" d="M 55.5 167 L 56 167.5 L 52.5 171 L 52 170.5 L 55.5 167 Z " /><path fill="rgb(117,0,0)" stroke="rgb(117,0,0)" stroke-width="1" opacity="0.996078431372549" d="M 554.5 167 L 564 176.5 L 563.5 177 L 554 167.5 L 554.5 167 Z " /><path fill="rgb(117,0,0)" stroke="rgb(117,0,0)" stroke-width="1" opacity="0.996078431372549" d="M 580.5 168 L 583 170.5 L 582.5 171 L 580 168.5 L 580.5 168 Z " /><path fill="rgb(117,0,0)" stroke="rgb(117,0,0)" stroke-width="1" opacity="0.996078431372549" d="M 566.5 180 L 569 182.5 L 568.5 183 L 566 180.5 L 566.5 180 Z " /><path fill="rgb(117,0,0)" stroke="rgb(117,0,0)" stroke-width="1" opacity="0.996078431372549" d="M 66.5 182 L 67 182.5 L 64.5 185 L 64 184.5 L 66.5 182 Z " /><path fill="rgb(117,0,0)" stroke="rgb(117,0,0)" stroke-width="1" opacity="0.996078431372549" d="M 39.5 183 L 40 183.5 L 37.5 186 L 37 185.5 L 39.5 183 Z " /><path fill="rgb(117,0,0)" stroke="rgb(117,0,0)" stroke-width="1" opacity="0.996078431372549" d="M 53.5 195 L 54 195.5 L 51.5 198 L 51 197.5 L 53.5 195 Z " /><path fill="rgb(117,0,0)" stroke="rgb(117,0,0)" stroke-width="1" opacity="0.996078431372549" d="M 307.5 195 L 310 195.5 L 307.5 196 L 307.5 195 Z " /><path fill="rgb(117,0,0)" stroke="rgb(117,0,0)" stroke-width="1" opacity="0.996078431372549" d="M 313.5 196 L 317 196.5 L 313.5 197 L 313.5 196 Z " /><path fill="rgb(117,0,0)" stroke="rgb(117,0,0)" stroke-width="1" opacity="0.996078431372549" d="M 323.5 197 L 328 197.5 L 323.5 198 L 323.5 197 Z " /><path fill="rgb(117,0,0)" stroke="rgb(117,0,0)" stroke-width="1" opacity="0.996078431372549" d="M 411.5 242 L 414 242.5 L 411.5 243 L 411.5 242 Z " /><path fill="rgb(117,0,0)" stroke="rgb(117,0,0)" stroke-width="1" opacity="0.996078431372549" d="M 405.5 243 L 408 243.5 L 405.5 244 L 405.5 243 Z " /><path fill="rgb(117,0,0)" stroke="rgb(117,0,0)" stroke-width="1" opacity="0.996078431372549" d="M 392.5 245 L 395 245.5 L 392.5 246 L 392.5 245 Z " /><path fill="rgb(117,0,0)" stroke="rgb(117,0,0)" stroke-width="1" opacity="0.996078431372549" d="M 386.5 246 L 389 246.5 L 386.5 247 L 386.5 246 Z " /><path fill="rgb(117,0,0)" stroke="rgb(117,0,0)" stroke-width="1" opacity="0.996078431372549" d="M 380.5 247 L 383 247.5 L 380.5 248 L 380.5 247 Z " /><path fill="rgb(117,0,0)" stroke="rgb(117,0,0)" stroke-width="1" opacity="0.996078431372549" d="M 418.5 247 L 419 249.5 L 418 249.5 L 418.5 247 Z " /><path fill="rgb(117,0,0)" stroke="rgb(117,0,0)" stroke-width="1" opacity="0.996078431372549" d="M 367.5 249 L 370 249.5 L 367.5 250 L 367.5 249 Z " /><path fill="rgb(117,0,0)" stroke="rgb(117,0,0)" stroke-width="1" opacity="0.996078431372549" d="M 361.5 250 L 364 250.5 L 361.5 251 L 361.5 250 Z " /><path fill="rgb(117,0,0)" stroke="rgb(117,0,0)" stroke-width="1" opacity="0.996078431372549" d="M 355.5 251 L 358 251.5 L 355.5 252 L 355.5 251 Z " /><path fill="rgb(117,0,0)" stroke="rgb(117,0,0)" stroke-width="1" opacity="0.996078431372549" d="M 349.5 252 L 352 252.5 L 349.5 253 L 349.5 252 Z " /><path fill="rgb(117,0,0)" stroke="rgb(117,0,0)" stroke-width="1" opacity="0.996078431372549" d="M 336.5 254 L 339 254.5 L 336.5 255 L 336.5 254 Z " /><path fill="rgb(117,0,0)" stroke="rgb(117,0,0)" stroke-width="1" opacity="0.996078431372549" d="M 330.5 255 L 333 255.5 L 330.5 256 L 330.5 255 Z " /><path fill="rgb(117,0,0)" stroke="rgb(117,0,0)" stroke-width="1" opacity="0.996078431372549" d="M 324.5 256 L 327 256.5 L 324.5 257 L 324.5 256 Z " /><path fill="rgb(117,0,0)" stroke="rgb(117,0,0)" stroke-width="1" opacity="0.996078431372549" d="M 311.5 258 L 314 258.5 L 311.5 259 L 311.5 258 Z " /><path fill="rgb(117,0,0)" stroke="rgb(117,0,0)" stroke-width="1" opacity="0.996078431372549" d="M 305.5 259 L 308 259.5 L 305.5 260 L 305.5 259 Z " /><path fill="rgb(117,0,0)" stroke="rgb(117,0,0)" stroke-width="1" opacity="0.996078431372549" d="M 299.5 260 L 302 260.5 L 299.5 261 L 299.5 260 Z " /><path fill="rgb(117,0,0)" stroke="rgb(117,0,0)" stroke-width="1" opacity="0.996078431372549" d="M 3.5 262 L 4 264.5 L 3 264.5 L 3.5 262 Z " /><path fill="rgb(117,0,0)" stroke="rgb(117,0,0)" stroke-width="1" opacity="0.996078431372549" d="M 286.5 262 L 289 262.5 L 286.5 263 L 286.5 262 Z " /><path fill="rgb(117,0,0)" stroke="rgb(117,0,0)" stroke-width="1" opacity="0.996078431372549" d="M 280.5 263 L 283 263.5 L 280.5 264 L 280.5 263 Z " /><path fill="rgb(117,0,0)" stroke="rgb(117,0,0)" stroke-width="1" opacity="0.996078431372549" d="M 274.5 264 L 277 264.5 L 274.5 265 L 274.5 264 Z " /><path fill="rgb(117,0,0)" stroke="rgb(117,0,0)" stroke-width="1" opacity="0.996078431372549" d="M 271.5 265 L 272 267.5 L 270 268.5 L 269.5 440 L 269 268.5 L 271.5 265 Z " /><path fill="rgb(117,0,0)" stroke="rgb(117,0,0)" stroke-width="1" opacity="0.996078431372549" d="M 419.5 265 L 420 267.5 L 419 267.5 L 419.5 265 Z " /><path fill="rgb(117,0,0)" stroke="rgb(117,0,0)" stroke-width="1" opacity="0.996078431372549" d="M 400.5 270 L 403 270.5 L 400.5 271 L 400.5 270 Z " /><path fill="rgb(117,0,0)" stroke="rgb(117,0,0)" stroke-width="1" opacity="0.996078431372549" d="M 20.5 272 L 21 274.5 L 20 274.5 L 20.5 272 Z " /><path fill="rgb(117,0,0)" stroke="rgb(117,0,0)" stroke-width="1" opacity="0.996078431372549" d="M 387.5 272 L 390 272.5 L 387.5 273 L 387.5 272 Z " /><path fill="rgb(117,0,0)" stroke="rgb(117,0,0)" stroke-width="1" opacity="0.996078431372549" d="M 381.5 273 L 384 273.5 L 381.5 274 L 381.5 273 Z " /><path fill="rgb(117,0,0)" stroke="rgb(117,0,0)" stroke-width="1" opacity="0.996078431372549" d="M 375.5 274 L 378 274.5 L 375.5 275 L 375.5 274 Z " /><path fill="rgb(117,0,0)" stroke="rgb(117,0,0)" stroke-width="1" opacity="0.996078431372549" d="M 1.5 275 L 2 277.5 L 1 277.5 L 1.5 275 Z " /><path fill="rgb(117,0,0)" stroke="rgb(117,0,0)" stroke-width="1" opacity="0.996078431372549" d="M 362.5 276 L 365 276.5 L 362.5 277 L 362.5 276 Z " /><path fill="rgb(117,0,0)" stroke="rgb(117,0,0)" stroke-width="1" opacity="0.996078431372549" d="M 356.5 277 L 359 277.5 L 356.5 278 L 356.5 277 Z " /><path fill="rgb(117,0,0)" stroke="rgb(117,0,0)" stroke-width="1" opacity="0.996078431372549" d="M 350.5 278 L 353 278.5 L 350.5 279 L 350.5 278 Z " /><path fill="rgb(117,0,0)" stroke="rgb(117,0,0)" stroke-width="1" opacity="0.996078431372549" d="M 19.5 279 L 20 282.5 L 19 282.5 L 19.5 279 Z " /><path fill="rgb(117,0,0)" stroke="rgb(117,0,0)" stroke-width="1" opacity="0.996078431372549" d="M 344.5 279 L 347 279.5 L 344.5 280 L 344.5 279 Z " /><path fill="rgb(117,0,0)" stroke="rgb(117,0,0)" stroke-width="1" opacity="0.996078431372549" d="M 337.5 280 L 340 280.5 L 337.5 281 L 337.5 280 Z " /><path fill="rgb(117,0,0)" stroke="rgb(117,0,0)" stroke-width="1" opacity="0.996078431372549" d="M 331.5 281 L 334 281.5 L 331.5 282 L 331.5 281 Z " /><path fill="rgb(117,0,0)" stroke="rgb(117,0,0)" stroke-width="1" opacity="0.996078431372549" d="M 325.5 282 L 328 282.5 L 325.5 283 L 325.5 282 Z " /><path fill="rgb(117,0,0)" stroke="rgb(117,0,0)" stroke-width="1" opacity="0.996078431372549" d="M 319.5 283 L 322 283.5 L 319.5 284 L 319.5 283 Z " /><path fill="rgb(117,0,0)" stroke="rgb(117,0,0)" stroke-width="1" opacity="0.996078431372549" d="M 306.5 285 L 309 285.5 L 306.5 286 L 306.5 285 Z " /><path fill="rgb(117,0,0)" stroke="rgb(117,0,0)" stroke-width="1" opacity="0.996078431372549" d="M 300.5 286 L 303 286.5 L 300.5 287 L 300.5 286 Z " /><path fill="rgb(117,0,0)" stroke="rgb(117,0,0)" stroke-width="1" opacity="0.996078431372549" d="M 294.5 287 L 297 287.5 L 294.5 288 L 294.5 287 Z " /><path fill="rgb(117,0,0)" stroke="rgb(117,0,0)" stroke-width="1" opacity="0.996078431372549" d="M 18.5 289 L 19 314.5 L 18 314.5 L 18.5 289 Z " /><path fill="rgb(117,0,0)" stroke="rgb(117,0,0)" stroke-width="1" opacity="0.996078431372549" d="M 281.5 289 L 284 289.5 L 281.5 290 L 281.5 289 Z " /><path fill="rgb(117,0,0)" stroke="rgb(117,0,0)" stroke-width="1" opacity="0.996078431372549" d="M 279.5 290 L 280 457.5 L 279 457.5 L 279.5 290 Z " /><path fill="rgb(117,0,0)" stroke="rgb(117,0,0)" stroke-width="1" opacity="0.996078431372549" d="M 616.5 301 L 617 303.5 L 616 303.5 L 616.5 301 Z " /><path fill="rgb(117,0,0)" stroke="rgb(117,0,0)" stroke-width="1" opacity="0.996078431372549" d="M 618.5 313 L 619 315.5 L 618 315.5 L 618.5 313 Z " /><path fill="rgb(117,0,0)" stroke="rgb(117,0,0)" stroke-width="1" opacity="0.996078431372549" d="M 619.5 321 L 620 324.5 L 619 324.5 L 619.5 321 Z " /><path fill="rgb(117,0,0)" stroke="rgb(117,0,0)" stroke-width="1" opacity="0.996078431372549" d="M 19.5 322 L 20 325.5 L 19 325.5 L 19.5 322 Z " /><path fill="rgb(117,0,0)" stroke="rgb(117,0,0)" stroke-width="1" opacity="0.996078431372549" d="M 20.5 330 L 21 333.5 L 20 333.5 L 20.5 330 Z " /><path fill="rgb(117,0,0)" stroke="rgb(117,0,0)" stroke-width="1" opacity="0.996078431372549" d="M 620.5 331 L 621 336.5 L 620 336.5 L 620.5 331 Z " /><path fill="rgb(117,0,0)" stroke="rgb(117,0,0)" stroke-width="1" opacity="0.996078431372549" d="M 21.5 337 L 22 339.5 L 21 339.5 L 21.5 337 Z " /><path fill="rgb(117,0,0)" stroke="rgb(117,0,0)" stroke-width="1" opacity="0.996078431372549" d="M 22.5 343 L 23 345.5 L 22 345.5 L 22.5 343 Z " /><path fill="rgb(117,0,0)" stroke="rgb(117,0,0)" stroke-width="1" opacity="0.996078431372549" d="M 23.5 348 L 24 350.5 L 23 350.5 L 23.5 348 Z " /><path fill="rgb(117,0,0)" stroke="rgb(117,0,0)" stroke-width="1" opacity="0.996078431372549" d="M 621.5 352 L 622 362.5 L 621 362.5 L 621.5 352 Z " /><path fill="rgb(117,0,0)" stroke="rgb(117,0,0)" stroke-width="1" opacity="0.996078431372549" d="M 620.5 377 L 621 382.5 L 620 382.5 L 620.5 377 Z " /><path fill="rgb(117,0,0)" stroke="rgb(117,0,0)" stroke-width="1" opacity="0.996078431372549" d="M 619.5 389 L 620 392.5 L 619 392.5 L 619.5 389 Z " /><path fill="rgb(117,0,0)" stroke="rgb(117,0,0)" stroke-width="1" opacity="0.996078431372549" d="M 618.5 398 L 619 400.5 L 618 400.5 L 618.5 398 Z " /><path fill="rgb(117,0,0)" stroke="rgb(117,0,0)" stroke-width="1" opacity="0.996078431372549" d="M 617.5 405 L 618 407.5 L 617 407.5 L 617.5 405 Z " /><path fill="rgb(117,0,0)" stroke="rgb(117,0,0)" stroke-width="1" opacity="0.996078431372549" d="M 382.5 415 L 389 415.5 L 382.5 416 L 382.5 415 Z " /><path fill="rgb(117,0,0)" stroke="rgb(117,0,0)" stroke-width="1" opacity="0.996078431372549" d="M 393.5 416 L 396 416.5 L 393.5 417 L 393.5 416 Z " /><path fill="rgb(117,0,0)" stroke="rgb(117,0,0)" stroke-width="1" opacity="0.996078431372549" d="M 353.5 426 L 354 426.5 L 346.5 434 L 346 433.5 L 353.5 426 Z " /><path fill="rgb(117,0,0)" stroke="rgb(117,0,0)" stroke-width="1" opacity="0.996078431372549" d="M 241.5 433 L 251 433.5 L 241.5 434 L 241.5 433 Z " /><path fill="rgb(117,0,0)" stroke="rgb(117,0,0)" stroke-width="1" opacity="0.996078431372549" d="M 418.5 440 L 419 445.5 L 418 445.5 L 418.5 440 Z " /><path fill="rgb(117,0,0)" stroke="rgb(117,0,0)" stroke-width="1" opacity="0.996078431372549" d="M 339.5 448 L 340 450.5 L 339 450.5 L 339.5 448 Z " /><path fill="rgb(117,0,0)" stroke="rgb(117,0,0)" stroke-width="1" opacity="0.996078431372549" d="M 339.5 454 L 340 456.5 L 339 456.5 L 339.5 454 Z " /><path fill="rgb(117,0,0)" stroke="rgb(117,0,0)" stroke-width="1" opacity="0.996078431372549" d="M 343.5 466 L 346 468.5 L 345.5 469 L 343 466.5 L 343.5 466 Z " /><path fill="rgb(117,0,0)" stroke="rgb(117,0,0)" stroke-width="1" opacity="0.996078431372549" d="M 347.5 470 L 350 472.5 L 349.5 473 L 347 470.5 L 347.5 470 Z " /><path fill="rgb(117,0,0)" stroke="rgb(117,0,0)" stroke-width="1" opacity="0.996078431372549" d="M 272.5 478 L 273 478.5 L 270.5 481 L 270 480.5 L 272.5 478 Z " /><path fill="rgb(117,0,0)" stroke="rgb(117,0,0)" stroke-width="1" opacity="0.996078431372549" d="M 363.5 478 L 366 478.5 L 363.5 479 L 363.5 478 Z " /><path fill="rgb(117,0,0)" stroke="rgb(117,0,0)" stroke-width="1" opacity="0.996078431372549" d="M 267.5 483 L 268 483.5 L 265.5 486 L 265 485.5 L 267.5 483 Z " /><path fill="rgb(117,0,0)" stroke="rgb(117,0,0)" stroke-width="1" opacity="0.996078431372549" d="M 91.5 494 L 94 496.5 L 93.5 497 L 91 494.5 L 91.5 494 Z " /><path fill="rgb(117,0,0)" stroke="rgb(117,0,0)" stroke-width="1" opacity="0.996078431372549" d="M 225.5 496 L 228 496.5 L 225.5 497 L 225.5 496 Z " /><path fill="rgb(117,0,0)" stroke="rgb(117,0,0)" stroke-width="1" opacity="0.996078431372549" d="M 238.5 496 L 241 496.5 L 238.5 497 L 238.5 496 Z " /><path fill="rgb(117,0,0)" stroke="rgb(117,0,0)" stroke-width="1" opacity="0.996078431372549" d="M 96.5 500 L 99 502.5 L 98.5 503 L 96 500.5 L 96.5 500 Z " /><path fill="rgb(117,0,0)" stroke="rgb(117,0,0)" stroke-width="1" opacity="0.996078431372549" d="M 103.5 508 L 110 514.5 L 109.5 515 L 103 508.5 L 103.5 508 Z " /><path fill="rgb(117,0,0)" stroke="rgb(117,0,0)" stroke-width="1" opacity="0.996078431372549" d="M 566.5 522 L 567 522.5 L 564.5 525 L 564 524.5 L 566.5 522 Z " /><path fill="rgb(117,0,0)" stroke="rgb(117,0,0)" stroke-width="1" opacity="0.996078431372549" d="M 119.5 524 L 127 531.5 L 126.5 532 L 119 524.5 L 119.5 524 Z " /><path fill="rgb(117,0,0)" stroke="rgb(117,0,0)" stroke-width="1" opacity="0.996078431372549" d="M 560.5 529 L 561 529.5 L 547.5 543 L 547 542.5 L 560.5 529 Z " /><path fill="rgb(117,0,0)" stroke="rgb(117,0,0)" stroke-width="1" opacity="0.996078431372549" d="M 580.5 534 L 581 534.5 L 578.5 537 L 578 536.5 L 580.5 534 Z " /><path fill="rgb(117,0,0)" stroke="rgb(117,0,0)" stroke-width="1" opacity="0.996078431372549" d="M 131.5 535 L 134 537.5 L 133.5 538 L 131 535.5 L 131.5 535 Z " /><path fill="rgb(117,0,0)" stroke="rgb(117,0,0)" stroke-width="1" opacity="0.996078431372549" d="M 574.5 541 L 575 541.5 L 558.5 558 L 558 557.5 L 574.5 541 Z " /><path fill="rgb(117,0,0)" stroke="rgb(117,0,0)" stroke-width="1" opacity="0.996078431372549" d="M 541.5 547 L 542 547.5 L 539.5 550 L 539 549.5 L 541.5 547 Z " /><path fill="rgb(117,0,0)" stroke="rgb(117,0,0)" stroke-width="1" opacity="0.996078431372549" d="M 535.5 552 L 536 552.5 L 533.5 555 L 533 554.5 L 535.5 552 Z " /><path fill="rgb(117,0,0)" stroke="rgb(117,0,0)" stroke-width="1" opacity="0.996078431372549" d="M 553.5 561 L 554 561.5 L 551.5 564 L 551 563.5 L 553.5 561 Z " /><path fill="rgb(117,0,0)" stroke="rgb(117,0,0)" stroke-width="1" opacity="0.996078431372549" d="M 547.5 566 L 548 566.5 L 545.5 569 L 545 568.5 L 547.5 566 Z " /><path fill="rgb(117,0,0)" stroke="rgb(117,0,0)" stroke-width="1" opacity="0.996078431372549" d="M 300.5 573 L 303 573.5 L 300.5 574 L 300.5 573 Z " /><path fill="rgb(117,0,0)" stroke="rgb(117,0,0)" stroke-width="1" opacity="0.996078431372549" d="M 263.5 580 L 266 580.5 L 263.5 581 L 263.5 580 Z " /><path fill="rgb(117,0,0)" stroke="rgb(117,0,0)" stroke-width="1" opacity="0.996078431372549" d="M 256.5 581 L 259 581.5 L 256.5 582 L 256.5 581 Z " /><path fill="rgb(117,0,0)" stroke="rgb(117,0,0)" stroke-width="1" opacity="0.996078431372549" d="M 223.5 582 L 228 582.5 L 223.5 583 L 223.5 582 Z " /><path fill="rgb(117,0,0)" stroke="rgb(117,0,0)" stroke-width="1" opacity="0.996078431372549" d="M 245.5 582 L 251 582.5 L 245.5 583 L 245.5 582 Z " /><path fill="rgb(117,0,0)" stroke="rgb(117,0,0)" stroke-width="1" opacity="0.996078431372549" d="M 370.5 585 L 373 585.5 L 370.5 586 L 370.5 585 Z " /><path fill="rgb(117,0,0)" stroke="rgb(117,0,0)" stroke-width="1" opacity="0.996078431372549" d="M 376.5 586 L 379 586.5 L 376.5 587 L 376.5 586 Z " /><path fill="rgb(117,0,0)" stroke="rgb(117,0,0)" stroke-width="1" opacity="0.996078431372549" d="M 382.5 587 L 385 587.5 L 382.5 588 L 382.5 587 Z " /><path fill="rgb(117,0,0)" stroke="rgb(117,0,0)" stroke-width="1" opacity="0.996078431372549" d="M 389.5 588 L 392 588.5 L 389.5 589 L 389.5 588 Z " /><path fill="rgb(117,0,0)" stroke="rgb(117,0,0)" stroke-width="1" opacity="0.996078431372549" d="M 397.5 589 L 400 589.5 L 397.5 590 L 397.5 589 Z " /><path fill="rgb(117,0,0)" stroke="rgb(117,0,0)" stroke-width="1" opacity="0.996078431372549" d="M 460.5 589 L 463 589.5 L 460.5 590 L 460.5 589 Z " /><path fill="rgb(117,0,0)" stroke="rgb(117,0,0)" stroke-width="1" opacity="0.996078431372549" d="M 405.5 590 L 410 590.5 L 405.5 591 L 405.5 590 Z " /><path fill="rgb(117,0,0)" stroke="rgb(117,0,0)" stroke-width="1" opacity="0.996078431372549" d="M 453.5 590 L 457 590.5 L 453.5 591 L 453.5 590 Z " /><path fill="rgb(117,0,0)" stroke="rgb(117,0,0)" stroke-width="1" opacity="0.996078431372549" d="M 304.5 591 L 308 591.5 L 304.5 592 L 304.5 591 Z " /><path fill="rgb(117,0,0)" stroke="rgb(117,0,0)" stroke-width="1" opacity="0.996078431372549" d="M 417.5 591 L 426 591.5 L 417.5 592 L 417.5 591 Z " /><path fill="rgb(117,0,0)" stroke="rgb(117,0,0)" stroke-width="1" opacity="0.996078431372549" d="M 439.5 591 L 447 591.5 L 439.5 592 L 439.5 591 Z " /><path fill="rgb(117,0,0)" stroke="rgb(117,0,0)" stroke-width="1" opacity="0.996078431372549" d="M 315.5 593 L 318 593.5 L 315.5 594 L 315.5 593 Z " /><path fill="rgb(117,0,0)" stroke="rgb(117,0,0)" stroke-width="1" opacity="0.996078431372549" d="M 278.5 596 L 281 596.5 L 278.5 597 L 278.5 596 Z " /><path fill="rgb(117,0,0)" stroke="rgb(117,0,0)" stroke-width="1" opacity="0.996078431372549" d="M 267.5 598 L 270 598.5 L 267.5 599 L 267.5 598 Z " /><path fill="rgb(117,0,0)" stroke="rgb(117,0,0)" stroke-width="1" opacity="0.996078431372549" d="M 261.5 599 L 264 599.5 L 261.5 600 L 261.5 599 Z " /><path fill="rgb(117,0,0)" stroke="rgb(117,0,0)" stroke-width="1" opacity="0.996078431372549" d="M 251.5 600 L 256 600.5 L 251.5 601 L 251.5 600 Z " /><path fill="rgb(117,0,0)" stroke="rgb(117,0,0)" stroke-width="1" opacity="0.996078431372549" d="M 458.5 608 L 461 608.5 L 458.5 609 L 458.5 608 Z " /><path fill="rgb(117,0,0)" stroke="rgb(117,0,0)" stroke-width="1" opacity="0.996078431372549" d="M 448.5 609 L 453 609.5 L 448.5 610 L 448.5 609 Z " /><path fill="rgb(117,0,0)" stroke="rgb(117,0,0)" stroke-width="1" opacity="0.996078431372549" d="M 431.5 610 L 434 610.5 L 431.5 611 L 431.5 610 Z " /><path fill="rgb(230,0,0)" stroke="rgb(230,0,0)" stroke-width="1" opacity="0.996078431372549" d="M 413.5 115 L 423 115.5 L 412.5 117 L 411.5 118 L 396.5 121 L 381.5 126 L 373.5 130 L 371.5 130 L 346.5 142 L 321.5 157 L 320 146.5 L 342.5 134 L 344.5 134 L 349.5 131 L 359.5 128 L 362.5 126 L 368.5 124 L 371.5 124 L 375.5 122 L 386.5 120 L 387.5 119 L 397.5 118 L 398.5 117 L 403.5 117 L 404.5 116 L 412.5 116 L 413.5 115 Z " /><path fill="rgb(230,0,0)" stroke="rgb(230,0,0)" stroke-width="1" opacity="0.996078431372549" d="M 138.5 124 L 192.5 124 L 193.5 125 L 204.5 125 L 205.5 126 L 214 126.5 L 166.5 127 L 165.5 128 L 155.5 128 L 154.5 129 L 148.5 129 L 147.5 130 L 142.5 130 L 141.5 131 L 131.5 132 L 119.5 136 L 116.5 136 L 101.5 141 L 98.5 143 L 96.5 143 L 91.5 146 L 89.5 146 L 69.5 157 L 55.5 167 L 37 185.5 L 27 199.5 L 12 231.5 L 7 246.5 L 4 261.5 L 3 262.5 L 3 267.5 L 2 268.5 L 1.5 275 L 0 270.5 L 1 269.5 L 1 254.5 L 2 253.5 L 2 246.5 L 3 245.5 L 4 234.5 L 5 233.5 L 8 218.5 L 13 203.5 L 22 184.5 Q 28.7 173.7 37.5 165 L 50.5 154 L 59.5 148 L 81.5 137 L 99.5 131 L 110.5 129 L 111.5 128 L 121.5 127 L 122.5 126 L 128.5 126 L 129.5 125 L 137.5 125 L 138.5 124 Z " /><path fill="rgb(230,0,0)" stroke="rgb(230,0,0)" stroke-width="1" opacity="0.996078431372549" d="M 441.5 132 L 461.5 132 L 462.5 133 L 472.5 133 L 473.5 134 L 478.5 134 L 479.5 135 L 484.5 135 L 485.5 136 L 489.5 136 L 490.5 137 L 497.5 138 L 515.5 144 L 534.5 153 L 546.5 161 L 566 179.5 L 577 194.5 L 588 214.5 L 588 216.5 L 592 223.5 L 592 225.5 L 598 238.5 L 611 277.5 L 611 280.5 L 612 281.5 L 612 284.5 L 615 293.5 L 615 297.5 L 616 298.5 L 616 303.5 L 617 304.5 L 618 315.5 L 619 316.5 L 619 324.5 L 620 325.5 L 620 336.5 L 621 337.5 L 621 376.5 L 620 377.5 L 620 388.5 L 619 389.5 L 619 397.5 L 618 398.5 L 618 404.5 L 617 405.5 L 617 410.5 L 616 411.5 L 614 425.5 L 602 461.5 L 586 493.5 L 572 515.5 L 564 525.5 L 542.5 547 L 513.5 569 L 503.5 575 L 483.5 584 L 477.5 586 L 474.5 586 L 473.5 587 L 470.5 587 L 469.5 588 L 466.5 588 L 465.5 589 L 453.5 590 L 452.5 591 L 426.5 592 L 425.5 591 L 410.5 591 L 409.5 590 L 400.5 590 L 399.5 589 L 385.5 588 L 384.5 587 L 379.5 587 L 378.5 586 L 373.5 586 L 372.5 585 L 361.5 584 L 360.5 583 L 356.5 583 L 355.5 582 L 351.5 582 L 350.5 581 L 346.5 581 L 345.5 580 L 341.5 580 L 340.5 579 L 336.5 579 L 335.5 578 L 321.5 576 L 320.5 575 L 312.5 574 L 311.5 573 L 300.5 573 L 299.5 574 L 294.5 574 L 293.5 575 L 289.5 575 L 288.5 576 L 284.5 576 L 283.5 577 L 279.5 577 L 278.5 578 L 274.5 578 L 268.5 580 L 263.5 580 L 262.5 581 L 256.5 581 L 255.5 582 L 245.5 582 L 244.5 583 L 228.5 583 L 227.5 582 L 218.5 582 Q 217.2 579.7 212.5 581 L 211.5 580 L 200.5 578 L 191.5 575 L 174.5 567 L 142.5 545 L 110 515.5 L 89 491.5 L 73 469.5 L 72 466.5 L 59 446.5 L 41 408.5 L 40 403.5 L 38 400.5 L 30 376.5 L 29 369.5 L 25 357.5 L 23 343.5 L 22 342.5 L 21 330.5 L 20 329.5 L 20 322.5 L 19 321.5 L 19 283.5 L 20 282.5 L 20 275.5 L 21 274.5 L 21 269.5 L 22 268.5 L 22 264.5 L 23 263.5 L 25 252.5 L 30 237.5 L 34 229.5 L 34 227.5 L 43 209.5 L 49 200.5 L 63.5 185 L 73.5 177 L 93.5 165 L 95.5 165 L 112.5 157 L 118.5 155 L 121.5 155 L 125.5 153 L 132.5 152 L 133.5 151 L 137.5 151 L 138.5 150 L 142.5 150 L 148.5 148 L 154.5 148 L 155.5 147 L 164.5 147 L 165.5 146 L 220.5 146 L 221.5 147 L 232.5 147 L 233.5 148 L 240.5 148 L 241.5 149 L 252.5 150 L 257.5 152 L 264.5 153 L 276.5 157 L 281.5 160 L 283.5 160 L 290 164.5 L 293 173.5 L 293 176.5 L 295 180.5 L 295 183.5 L 297 187.5 L 297 190.5 L 299.5 193 L 307.5 196 L 327.5 198 L 328 194.5 L 327 193.5 L 324 178.5 L 356.5 158 L 384.5 145 L 405.5 138 L 408.5 138 L 409.5 137 L 413.5 137 L 414.5 136 L 423.5 135 L 424.5 134 L 430.5 134 L 431.5 133 L 440.5 133 L 441.5 132 Z M 412 242 Q 410 244 406 243 L 405 244 L 400 244 L 399 245 L 393 245 Q 391 247 387 246 L 386 247 L 381 247 L 380 248 L 375 248 L 374 249 L 368 249 Q 366 251 362 250 L 361 251 L 356 251 L 355 252 L 350 252 L 349 253 L 344 253 L 343 254 L 337 254 L 336 255 L 331 255 L 330 256 L 319 257 L 318 258 L 312 258 L 311 259 L 306 259 L 305 260 L 300 260 L 299 261 L 287 262 L 286 263 L 281 263 L 280 264 L 275 264 L 272 265 L 269 269 L 269 440 L 263 436 L 257 434 L 252 434 L 251 433 L 242 433 L 241 434 L 232 435 L 216 443 L 205 454 L 200 465 L 200 476 L 204 485 L 214 493 L 226 497 L 241 497 Q 242 495 246 496 L 262 489 L 266 486 L 275 476 L 279 467 L 279 461 Q 281 460 279 459 L 280 458 L 280 291 L 285 289 L 290 289 L 291 288 L 297 288 Q 298 286 303 287 L 304 286 L 309 286 L 310 285 L 315 285 L 316 284 L 322 284 Q 323 282 328 283 L 329 282 L 334 282 L 335 281 L 340 281 L 341 280 L 347 280 Q 348 278 353 279 L 354 278 L 359 278 L 360 277 L 365 277 L 366 276 L 371 276 L 372 275 L 378 275 Q 379 273 384 274 L 385 273 L 390 273 L 391 272 L 396 272 L 397 271 L 403 271 L 404 270 L 408 271 L 408 422 L 402 418 L 396 416 L 390 416 L 389 415 L 383 415 L 382 416 L 376 416 Q 375 418 372 417 L 360 422 L 354 426 Q 347 432 342 440 L 339 449 L 339 457 L 343 467 L 353 475 L 364 479 L 381 479 Q 381 477 386 478 L 400 472 L 409 465 L 415 457 L 419 446 L 419 269 L 420 268 L 419 265 L 419 248 L 418 245 L 417 245 L 416 243 L 412 242 Z M 554 426 L 550 437 L 543 451 L 526 474 L 513 487 L 489 506 L 454 528 L 449 530 L 424 545 Q 421 546 423 547 L 434 545 L 441 542 L 444 542 L 458 536 L 460 536 L 465 533 L 467 533 L 489 521 L 509 506 L 524 491 L 538 472 L 549 450 L 552 441 L 552 438 L 553 437 L 553 434 L 554 433 L 554 426 Z " /><path fill="rgb(230,0,0)" stroke="rgb(230,0,0)" stroke-width="1" opacity="0.996078431372549" d="M 583.5 171 L 596 184.5 L 604 196.5 L 613 214.5 L 613 216.5 L 615 219.5 L 620 234.5 L 620 237.5 L 621 238.5 L 621 241.5 L 624 250.5 L 625 258.5 L 624 258.5 L 617 235.5 L 615 232.5 L 610 217.5 L 606 210.5 L 606 208.5 L 593 184.5 L 583 171.5 L 583.5 171 Z " /><path fill="rgb(230,0,0)" stroke="rgb(230,0,0)" stroke-width="1" opacity="0.996078431372549" d="M 632.5 427 L 633 433.5 L 632 434.5 L 632 441.5 L 631 442.5 L 631 448.5 L 629 454.5 L 629 459.5 L 628 460.5 L 625 475.5 L 621 485.5 L 621 488.5 L 616 503.5 L 614 506.5 L 610 518.5 Q 596.3 546.8 573.5 566 L 546.5 588 L 530.5 598 L 517.5 604 L 505.5 608 L 498.5 609 L 497.5 610 L 485.5 611 L 484.5 612 L 475.5 612 L 474.5 613 L 453.5 613 L 452.5 612 L 441.5 612 L 440.5 611 L 434 610.5 L 452.5 610 L 453.5 609 L 466.5 608 L 467.5 607 L 471.5 607 L 472.5 606 L 479.5 605 L 494.5 600 L 497.5 598 L 499.5 598 L 513.5 591 L 533.5 578 L 558.5 558 L 575 541.5 L 588 525.5 L 602 503.5 L 620 467.5 L 620 465.5 L 624 457.5 L 629 442.5 L 629 439.5 L 631 435.5 L 631 431.5 L 632.5 427 Z " /><path fill="rgb(230,0,0)" stroke="rgb(230,0,0)" stroke-width="1" opacity="0.996078431372549" d="M 300.5 592 L 310.5 592 L 317 594.5 L 312.5 596 L 308.5 596 L 307.5 597 L 303.5 597 L 302.5 598 L 298.5 598 L 297.5 599 L 293.5 599 L 292.5 600 L 286.5 600 L 285.5 601 L 276.5 601 L 275.5 602 L 254.5 602 L 254.5 601 L 256.5 600 L 269.5 599 L 275.5 597 L 280.5 597 L 281.5 596 L 289.5 595 L 290.5 594 L 294.5 594 L 295.5 593 L 299.5 593 L 300.5 592 Z " /><path fill="rgb(243,130,130)" stroke="rgb(243,130,130)" stroke-width="1" opacity="1" d="M 529.5 469 L 530 469.5 L 526.5 473 L 526 472.5 L 529.5 469 Z " /><path fill="rgb(243,130,130)" stroke="rgb(243,130,130)" stroke-width="1" opacity="1" d="M 511.5 487 L 512 487.5 L 508.5 491 L 508 490.5 L 511.5 487 Z " /><path fill="rgb(243,130,130)" stroke="rgb(243,130,130)" stroke-width="1" opacity="1" d="M 523.5 490 L 524 490.5 L 519.5 495 L 519 494.5 L 523.5 490 Z " /><path fill="rgb(243,130,130)" stroke="rgb(243,130,130)" stroke-width="1" opacity="1" d="M 504.5 493 L 505 493.5 L 502.5 496 L 502 495.5 L 504.5 493 Z " /><path fill="rgb(243,130,130)" stroke="rgb(243,130,130)" stroke-width="1" opacity="1" d="M 512.5 501 L 513 501.5 L 508.5 506 L 508 505.5 L 512.5 501 Z " /><path fill="rgb(243,130,130)" stroke="rgb(243,130,130)" stroke-width="1" opacity="1" d="M 423.5 545 L 426 546.5 L 424.5 547 L 423.5 546 L 422 546.5 L 423.5 545 Z " /><path fill="rgb(254,252,252)" stroke="rgb(254,252,252)" stroke-width="1" opacity="1" d="M 553.5 427 L 554 430.5 L 553 431.5 L 553 435.5 L 551 439.5 L 551 442.5 L 549 448.5 L 541 465.5 L 530 482.5 L 513.5 501 L 496.5 515 L 477.5 527 L 453.5 538 L 435.5 544 L 424.5 546 L 423.5 547 Q 422 546 424.5 545 L 459.5 524 L 464.5 522 L 490.5 505 L 508.5 491 L 530 469.5 L 544 449.5 L 550 437.5 L 553.5 427 Z " /><path fill="rgb(243,0,0)" stroke="rgb(243,0,0)" stroke-width="1" opacity="0.06274509803921569" d="M 413.5 112 L 429 112.5 L 413 113.5 L 418 114.5 L 413.5 115 L 412.5 114 L 404.5 114 L 404.5 115 L 408 115.5 L 404.5 116 Q 403.3 113.8 398.5 115 L 398.5 116 L 401 116.5 L 398.5 117 Q 397.3 114.8 392.5 116 L 392.5 117 L 395 117.5 L 392.5 118 L 388 116.5 L 392.5 115 L 397.5 115 L 398.5 114 L 403.5 114 L 404.5 113 L 412.5 113 L 413.5 112 Z " /><path fill="rgb(243,0,0)" stroke="rgb(243,0,0)" stroke-width="1" opacity="0.06274509803921569" d="M 383.5 117 L 387 117.5 L 383 118.5 L 385 119.5 L 383.5 120 Q 382.7 118.3 379.5 119 L 379.5 120 L 381 120.5 L 379.5 121 Q 378.8 119.3 375.5 120 L 375.5 121 L 377 121.5 L 375.5 122 L 372.5 121 L 372.5 123 L 369 121.5 L 375.5 119 L 382.5 118 L 383.5 117 Z " /><path fill="rgb(243,0,0)" stroke="rgb(243,0,0)" stroke-width="1" opacity="0.06274509803921569" d="M 138.5 121 L 192 121.5 L 138 122.5 L 144 123.5 L 138.5 124 L 137.5 123 L 129.5 123 L 129.5 124 L 133 124.5 L 129.5 125 L 128.5 124 L 122.5 124 L 122.5 125 L 125 125.5 L 122.5 126 Q 121.3 123.7 116.5 125 L 116.5 126 L 119 126.5 L 116.5 127 Q 115.5 125 111.5 126 L 111.5 127 L 113 127.5 L 111.5 128 Q 110.8 126.2 107.5 127 L 107.5 128 L 109 128.5 L 107.5 129 Q 106.8 127.3 103.5 128 L 103.5 129 L 105 129.5 L 103.5 130 Q 102.8 128.3 99.5 129 L 99.5 130 L 101 130.5 L 99.5 131 L 96.5 130 L 96.5 132 L 93.5 131 L 93.5 133 L 90 131.5 L 99.5 128 L 110.5 126 L 111.5 125 L 121.5 124 L 122.5 123 L 128.5 123 L 129.5 122 L 137.5 122 L 138.5 121 Z " /><path fill="rgb(243,0,0)" stroke="rgb(243,0,0)" stroke-width="1" opacity="0.06274509803921569" d="M 193.5 122 L 204.5 122 L 205.5 123 L 213.5 123 L 214.5 124 L 220 124.5 L 214.5 125 L 213.5 124 L 205.5 124 Q 204.5 126 200.5 125 L 200.5 124 L 205 123.5 L 193.5 123 L 193.5 122 Z " /><path fill="rgb(243,0,0)" stroke="rgb(243,0,0)" stroke-width="1" opacity="0.06274509803921569" d="M 365.5 122 L 368 122.5 L 365 123.5 L 367 124.5 L 365.5 125 L 362.5 124 L 362.5 125 L 364 125.5 L 362.5 126 L 360.5 125 L 360.5 127 L 357.5 126 L 357.5 128 L 354.5 127 L 354.5 129 L 352.5 128 L 352.5 130 L 349.5 129 L 349.5 131 L 347.5 130 L 347.5 132 L 345.5 131 L 345.5 133 L 343 131.5 L 349.5 128 L 351.5 128 L 365.5 122 Z " /><path fill="rgb(243,0,0)" stroke="rgb(243,0,0)" stroke-width="1" opacity="0.06274509803921569" d="M 183.5 123 L 192 123.5 L 183.5 124 L 183.5 123 Z " /><path fill="rgb(243,0,0)" stroke="rgb(243,0,0)" stroke-width="1" opacity="0.06274509803921569" d="M 210.5 125 L 213 125.5 L 210.5 126 L 210.5 125 Z " /><path fill="rgb(243,0,0)" stroke="rgb(243,0,0)" stroke-width="1" opacity="0.06274509803921569" d="M 87.5 132 L 89 132.5 L 87 133.5 L 87.5 135 L 84.5 134 L 84.5 136 L 82 134.5 L 87.5 132 Z " /><path fill="rgb(243,0,0)" stroke="rgb(243,0,0)" stroke-width="1" opacity="0.06274509803921569" d="M 340.5 132 L 343 133.5 L 341.5 133 L 340 133.5 L 340.5 135 L 338.5 134 L 338.5 136 L 336.5 135 L 336.5 137 L 334.5 136 L 334.5 138 L 332.5 137 L 332.5 139 L 330.5 138 L 330.5 140 Q 327.5 138.5 330.5 137 L 340.5 132 Z " /><path fill="rgb(243,0,0)" stroke="rgb(243,0,0)" stroke-width="1" opacity="0.06274509803921569" d="M 79.5 135 L 81 135.5 L 79 136.5 L 79.5 138 L 77.5 137 L 77.5 139 L 75 137.5 L 79.5 135 Z " /><path fill="rgb(243,0,0)" stroke="rgb(243,0,0)" stroke-width="1" opacity="0.06274509803921569" d="M 70.5 139 L 73 140.5 L 71.5 140 L 70 140.5 L 70.5 142 L 68.5 141 L 68.5 143 Q 65.5 141.5 68.5 140 L 70.5 139 Z " /><path fill="rgb(243,0,0)" stroke="rgb(243,0,0)" stroke-width="1" opacity="0.06274509803921569" d="M 327.5 139 Q 329 140 326.5 141 L 325 141.5 L 325.5 143 L 323.5 142 L 323.5 144 Q 320.5 142.5 323.5 141 L 327.5 139 Z " /><path fill="rgb(243,0,0)" stroke="rgb(243,0,0)" stroke-width="1" opacity="0.06274509803921569" d="M 65.5 142 Q 67 143 64.5 144 L 63 144.5 L 63.5 146 L 61.5 145 L 61.5 147 L 59.5 146 L 60 147.5 L 58.5 149 L 56.5 148 L 56.5 150 Q 55.5 148 54.5 150 L 53 150.5 L 53.5 152 Q 52.5 150 51.5 152 L 50 152.5 Q 52.3 153.8 49.5 155 Q 48.5 153 47.5 155 L 46 155.5 L 47 156.5 L 44.5 159 L 43.5 158 L 40 161.5 L 33.5 169 L 29 172.5 Q 31.3 173.8 28.5 175 L 26 176.5 Q 28.3 177.8 25.5 179 L 23 180.5 L 23.5 182 L 22 181.5 L 21 183.5 L 21.5 185 L 20 185.5 L 20.5 187 L 19 187.5 L 19.5 189 L 18 188.5 L 17 190.5 L 17.5 192 L 16 192.5 L 17 194.5 L 15 194.5 L 16 196.5 L 14 196.5 L 15 198.5 L 13 198.5 L 14 201.5 L 12 201.5 L 13 204.5 L 12 204.5 L 11.5 203 L 11 205.5 L 11.5 207 L 10 206.5 L 11 209.5 L 9 209.5 L 10 212.5 L 8 212.5 L 9 216.5 L 8 216.5 L 7.5 215 L 7 218.5 L 7.5 220 L 6 219.5 L 7 223.5 L 6 223.5 L 5.5 222 L 5 225.5 L 6 227.5 L 5 227.5 L 4.5 226 L 4 229.5 L 5 231.5 L 4 231.5 L 3.5 230 L 3 233.5 L 4 236.5 L 3 236.5 L 2.5 235 L 2 239.5 L 3 242.5 L 2 242.5 L 1.5 240 L 1 245.5 Q 2.7 246.2 2 249.5 L 1 249.5 L 0 240.5 L 1 239.5 L 1 235.5 L 2 234.5 L 2 230.5 L 3 229.5 L 4 222.5 L 12 198.5 Q 22.2 174.7 40.5 159 Q 51.5 149 65.5 142 Z " /><path fill="rgb(243,0,0)" stroke="rgb(243,0,0)" stroke-width="1" opacity="0.06274509803921569" d="M 582.5 167 L 589 172.5 L 596 180.5 L 607 196.5 L 616 214.5 L 616 216.5 L 618 219.5 L 623 234.5 L 623 237.5 L 624 238.5 L 624 241.5 L 627 250.5 L 627 254.5 L 628 255.5 L 628 259.5 L 627 259.5 L 627 255.5 L 626 254.5 L 625.5 250 L 624.5 253 L 624 250.5 Q 625.8 249.8 625 246.5 L 624 246.5 L 623.5 248 L 623 246.5 Q 624.8 245.8 624 242.5 L 623 242.5 L 622.5 244 L 622 242.5 Q 623.8 241.8 623 238.5 L 622 238.5 L 621.5 240 L 621 238.5 Q 622.7 237.8 622 234.5 L 621 234.5 L 620.5 236 L 620 234.5 L 621 231.5 L 619 231.5 L 620 228.5 L 618 228.5 L 619 225.5 L 617 225.5 L 618 222.5 L 616 222.5 L 617 219.5 L 616 219.5 L 615.5 221 L 615 219.5 L 616 217.5 L 614 217.5 L 615 215.5 L 613 214.5 L 614 212.5 L 612 212.5 L 613 210.5 L 611 210.5 L 612 208.5 L 610 208.5 L 611 206.5 L 609 206.5 L 610 204.5 L 608 204.5 L 609 202.5 L 607 202.5 L 607.5 201 L 606 200.5 L 606.5 199 L 605 198.5 L 605.5 197 L 603 195.5 L 603.5 194 L 602 193.5 Q 604 192.5 602 191.5 L 601.5 190 L 600 190.5 Q 602.3 189.3 599.5 188 L 598 187.5 Q 600.3 186.3 597.5 185 L 595 183.5 L 596 182.5 L 593.5 180 L 590 177.5 L 591 176.5 L 582 167.5 L 582.5 167 Z " /><path fill="rgb(243,0,0)" stroke="rgb(243,0,0)" stroke-width="1" opacity="0.06274509803921569" d="M 0.5 254 L 1 259.5 L 0 259.5 L 0.5 254 Z " /><path fill="rgb(243,0,0)" stroke="rgb(243,0,0)" stroke-width="1" opacity="0.06274509803921569" d="M 628.5 261 L 629 263.5 L 628 263.5 L 628.5 261 Z " /><path fill="rgb(243,0,0)" stroke="rgb(243,0,0)" stroke-width="1" opacity="0.06274509803921569" d="M 634.5 418 L 635 422.5 L 634 422.5 L 634.5 418 Z " /><path fill="rgb(243,0,0)" stroke="rgb(243,0,0)" stroke-width="1" opacity="0.06274509803921569" d="M 636.5 419 L 637 422.5 L 636 422.5 L 636.5 419 Z " /><path fill="rgb(243,0,0)" stroke="rgb(243,0,0)" stroke-width="1" opacity="0.06274509803921569" d="M 635.5 424 L 636 432.5 L 635 432.5 L 635.5 424 Z " /><path fill="rgb(243,0,0)" stroke="rgb(243,0,0)" stroke-width="1" opacity="0.06274509803921569" d="M 633.5 429 L 634 432.5 L 633 432.5 L 633.5 429 Z " /><path fill="rgb(243,0,0)" stroke="rgb(243,0,0)" stroke-width="1" opacity="0.06274509803921569" d="M 634.5 434 L 635 440.5 L 634 440.5 L 634.5 434 Z " /><path fill="rgb(243,0,0)" stroke="rgb(243,0,0)" stroke-width="1" opacity="0.06274509803921569" d="M 632.5 438 L 634 442.5 L 634 447.5 L 633 448.5 L 633 453.5 L 632 454.5 L 631 463.5 L 630 464.5 L 628 475.5 L 623 488.5 L 623 491.5 L 619 503.5 L 609 526.5 L 601 539.5 L 594 548.5 L 572.5 570 L 546.5 591 L 537.5 597 L 525.5 603 Q 523 602 524.5 601 L 526.5 602 L 526.5 600 L 528.5 601 L 528.5 599 L 530.5 600 L 530.5 598 Q 531.5 600 532.5 598 L 534 597.5 L 533.5 596 L 535.5 597 L 535.5 595 L 537.5 596 L 537 594.5 L 538.5 593 L 540.5 594 L 540.5 592 Q 541.5 594 542.5 592 L 544 591.5 L 543.5 590 Q 544.5 592 545.5 590 L 547 589.5 Q 544.8 588.3 547.5 587 Q 548.5 589 549.5 587 L 551 586.5 Q 548.8 585.3 551.5 584 Q 553 586.5 554.5 583 L 556 582.5 Q 553.7 581.3 556.5 580 Q 558 582.5 559.5 579 L 561 578.5 Q 558.8 577.3 561.5 576 Q 563 578.5 564.5 575 L 566 574.5 L 565 573.5 L 568.5 570 L 569.5 571 L 572 568.5 L 578.5 561 L 579.5 562 L 587 554.5 L 586 553.5 L 590.5 549 L 592 549.5 L 594 546.5 L 593 545.5 L 595.5 543 L 598 541.5 Q 595.8 540.3 598.5 539 L 600 538.5 Q 597.7 537.3 600.5 536 L 602 535.5 Q 599.8 534.3 602.5 533 L 604 532.5 L 603.5 531 L 605 530.5 Q 602.8 529.3 605.5 528 L 607 527.5 L 606.5 526 L 608 526.5 L 607 524.5 L 609 523.5 L 608.5 522 L 610 521.5 L 609.5 520 L 611 519.5 L 610.5 518 L 612 517.5 L 611 515.5 L 613 515.5 L 612 513.5 L 614 513.5 L 613 510.5 L 615 510.5 L 614 508.5 L 616 508.5 L 615 505.5 L 617 505.5 L 616 502.5 L 618 502.5 L 617 499.5 L 618 499.5 L 618.5 501 L 619 498.5 L 618 496.5 L 619 496.5 L 619.5 498 L 620 495.5 L 619 493.5 L 620 493.5 L 620.5 495 L 621 492.5 L 620 490.5 L 621 490.5 L 621.5 492 L 622 488.5 L 621.5 487 L 623 487.5 L 622 484.5 L 624 484.5 L 623 481.5 L 625 481.5 L 624 477.5 L 625 477.5 L 625.5 479 L 626 476.5 L 625 474.5 L 627 474.5 L 626 470.5 L 627 470.5 L 627.5 472 L 628 468.5 L 627 466.5 L 628 466.5 L 628.5 468 L 629 464.5 L 628 462.5 L 629 462.5 L 629.5 464 L 630 459.5 L 629 457.5 L 630 457.5 L 630.5 459 L 631 454.5 L 630 452.5 L 631 452.5 L 631.5 454 L 632 448.5 L 631 445.5 L 632 445.5 L 632.5 448 L 633 442.5 Q 630.9 441.4 632.5 438 Z " /><path fill="rgb(243,0,0)" stroke="rgb(243,0,0)" stroke-width="1" opacity="0.06274509803921569" d="M 311.5 596 L 317 597.5 L 312.5 599 L 308.5 599 L 307.5 600 L 303.5 600 L 302.5 601 L 298.5 601 L 297.5 602 L 293.5 602 L 292.5 603 L 286.5 603 L 285.5 604 L 276.5 604 L 275.5 605 L 255.5 605 L 255.5 604 L 276 603.5 L 256 602.5 L 275.5 602 L 276.5 603 L 285.5 603 L 285.5 602 L 282 601.5 L 285.5 601 L 286.5 602 L 292.5 602 L 292.5 601 L 290 600.5 L 292.5 600 Q 293.5 602 297.5 601 L 297.5 600 L 296 599.5 L 297.5 599 Q 298.5 601 302.5 600 L 302.5 599 L 301 598.5 L 302.5 598 Q 303.5 600 307.5 599 L 307.5 598 L 306 597.5 L 307.5 597 Q 308.5 599 312.5 598 L 312.5 597 Q 310.1 596.9 311.5 596 Z " /><path fill="rgb(243,0,0)" stroke="rgb(243,0,0)" stroke-width="1" opacity="0.06274509803921569" d="M 521.5 602 L 524 603.5 L 517.5 607 L 505.5 611 L 498.5 612 L 498.5 611 L 502 610.5 L 500 609.5 L 501.5 609 Q 502.3 610.8 505.5 610 L 505.5 609 L 504 608.5 L 505.5 608 L 508.5 609 L 508.5 607 L 511.5 608 L 511.5 606 L 514.5 607 L 514.5 605 L 517.5 606 L 517.5 605 L 516 604.5 L 517.5 604 L 519.5 605 L 519.5 603 L 521.5 604 L 521.5 602 Z " /><path fill="rgb(243,0,0)" stroke="rgb(243,0,0)" stroke-width="1" opacity="0.06274509803921569" d="M 247.5 603 L 254 603.5 L 247.5 604 L 247.5 603 Z " /><path fill="rgb(243,0,0)" stroke="rgb(243,0,0)" stroke-width="1" opacity="0.06274509803921569" d="M 432.5 611 L 435 611.5 L 432.5 612 L 432.5 611 Z " /><path fill="rgb(243,0,0)" stroke="rgb(243,0,0)" stroke-width="1" opacity="0.06274509803921569" d="M 489.5 611 L 497 612.5 L 492.5 613 L 489.5 612 L 489.5 611 Z " /><path fill="rgb(243,0,0)" stroke="rgb(243,0,0)" stroke-width="1" opacity="0.06274509803921569" d="M 441.5 612 L 446 612.5 L 441.5 613 L 441.5 612 Z " /><path fill="rgb(243,0,0)" stroke="rgb(243,0,0)" stroke-width="1" opacity="0.06274509803921569" d="M 481.5 612 L 485 612.5 L 481.5 613 L 481.5 612 Z " /><path fill="rgb(0,0,0)" stroke="rgb(0,0,0)" stroke-width="1" opacity="0" d="M 0.5 0 L 315 0.5 L 310.5 2 L 305.5 2 L 304.5 3 L 298.5 3 L 297.5 4 L 290.5 4 L 289.5 5 L 283.5 5 L 282.5 6 L 271.5 7 L 270.5 8 L 266.5 8 L 265.5 9 L 261.5 9 L 257.5 11 L 254.5 11 L 238.5 18 L 230 26.5 L 229 31.5 L 237 38.5 L 247 53.5 L 258 75.5 L 258 77.5 L 261 82.5 L 261 84.5 L 269 102.5 L 273 115.5 L 275 118.5 L 281 138.5 L 279.5 138 L 270.5 135 L 267.5 135 L 263.5 133 L 255.5 132 L 254.5 131 L 249.5 131 L 248.5 130 Q 243.8 131.3 242.5 129 L 234.5 129 L 233.5 128 L 227.5 128 L 226.5 127 Q 225.5 129 224.5 127 L 213.5 126 L 212.5 125 L 205.5 125 L 204.5 124 L 192.5 124 L 191.5 123 L 138.5 123 L 137.5 124 L 129.5 124 L 128.5 125 L 122.5 125 L 121.5 126 L 111.5 127 L 110.5 128 L 99.5 130 L 84.5 135 L 74.5 140 L 72.5 140 L 59.5 147 L 46.5 156 L 40.5 162 L 41.5 159 L 38 161.5 L 39 162.5 L 34.5 167 L 33.5 166 L 30 169.5 L 30.5 171 L 32.5 169 L 33 169.5 L 28.5 174 Q 27.2 171.8 26 174.5 L 26.5 176 L 28 175.5 L 25.5 178 Q 24.3 175.8 23 178.5 L 23.5 180 L 25 179.5 L 21.5 184 Q 20.3 181.8 19 184.5 L 18 187.5 L 20 187.5 L 17.5 191 L 16 190.5 L 17 192.5 L 15 192.5 L 16 195.5 L 14 198.5 L 14 200.5 L 12 203.5 L 8 215.5 L 8 218.5 L 6 222.5 L 6 225.5 L 5 226.5 L 3.5 234 L 2.5 230 L 2 234.5 Q 4 235.5 3 239.5 L 2 240.5 L 0.5 254 L 0 246.5 Q 2.3 245.3 1 240.5 L 0 239.5 L 0.5 0 Z M 139 121 L 139 122 L 192 122 L 139 121 Z M 130 122 L 130 123 L 138 123 L 130 122 Z M 194 122 L 194 123 L 205 123 L 194 122 Z M 123 123 L 123 124 L 129 124 L 123 123 Z M 206 123 L 206 124 L 214 124 L 206 123 Z M 117 124 L 117 125 L 122 125 L 117 124 Z M 215 124 L 215 125 L 220 125 L 215 124 Z M 112 125 L 112 126 L 116 126 L 112 125 Z M 108 126 L 108 127 L 111 127 L 108 126 Z M 104 127 L 104 128 L 107 128 L 104 127 Z M 100 128 L 100 129 L 103 129 L 100 128 Z M 97 129 L 97 130 L 99 130 L 97 129 Z M 94 130 L 94 131 L 96 131 L 94 130 Z M 91 131 L 91 132 L 93 132 L 91 131 Z M 85 133 L 85 134 L 87 134 L 85 133 Z M 13 198 L 12 201 L 13 201 L 13 198 Z M 11 203 L 10 206 L 11 206 L 11 203 Z M 10 206 L 9 209 L 10 209 L 10 206 Z M 9 209 L 8 212 L 9 212 L 9 209 Z M 8 212 L 7 215 L 8 215 L 8 212 Z M 7 215 L 6 219 L 7 219 L 7 215 Z M 6 219 L 5 222 L 6 222 L 6 219 Z M 5 222 L 4 226 L 5 226 L 5 222 Z M 4 226 L 3 230 L 4 230 L 4 226 Z M 2 235 L 1 240 L 2 240 L 2 235 Z " /><path fill="rgb(0,0,0)" stroke="rgb(0,0,0)" stroke-width="1" opacity="0" d="M 318.5 0 L 640 0.5 L 639.5 336 L 639 324.5 L 638 323.5 L 638 315.5 L 637 314.5 L 637 308.5 L 636 307.5 L 635 296.5 L 634 295.5 L 634 291.5 L 631 282.5 L 631 278.5 L 627 267.5 Q 629 266.5 627 265.5 L 627 261.5 L 625 255.5 L 625 250.5 L 624 249.5 L 621 234.5 L 614 215.5 L 615 215.5 L 615.5 217 L 616 214.5 L 614.5 212 L 613.5 214 L 607 201.5 L 609 201.5 L 605.5 195 Q 604.3 197.3 603 194.5 L 605 194.5 L 603.5 192 Q 602.3 194.2 601 191.5 L 599 188.5 L 601 188.5 L 599.5 186 Q 598.3 188.3 597 185.5 L 599 185.5 L 597.5 183 L 596.5 184 L 593 180.5 L 596 181.5 L 593.5 178 L 592.5 179 L 565.5 152 L 544.5 137 L 526.5 128 L 516.5 125 L 513.5 123 L 510.5 123 L 503.5 120 L 500.5 120 L 491.5 117 L 481.5 116 L 480.5 115 L 474.5 115 L 473.5 114 L 463.5 114 L 462.5 113 L 440.5 113 L 437.5 114 L 435.5 113 L 434.5 114 L 413.5 114 L 412.5 115 L 404.5 115 L 403.5 116 L 392.5 117 L 387.5 119 L 383.5 119 L 382.5 120 L 375.5 121 L 368.5 124 L 362.5 125 L 359.5 127 L 349.5 130 L 344.5 133 L 342.5 133 L 320.5 145 L 321 143.5 L 320 142.5 Q 321 138.5 319 137.5 L 319 124.5 L 318 123.5 L 318 105.5 L 317 104.5 L 317 10.5 L 318 9.5 L 318.5 0 Z M 414 112 L 414 113 L 429 113 L 414 112 Z M 405 113 L 405 114 L 413 114 L 405 113 Z M 399 114 L 399 115 L 404 115 L 399 114 Z M 393 115 L 393 116 L 398 116 L 393 115 Z M 389 116 L 389 117 L 392 117 L 389 116 Z M 384 117 L 384 118 L 387 118 L 384 117 Z M 380 118 L 380 119 L 383 119 L 380 118 Z M 376 119 L 376 120 L 379 120 L 376 119 Z M 373 120 L 373 121 L 375 121 L 373 120 Z M 370 121 L 370 122 L 372 122 L 370 121 Z M 366 122 L 366 123 L 368 123 L 366 122 Z M 363 123 L 363 124 L 365 124 L 363 123 Z M 358 125 L 358 126 L 360 126 L 358 125 Z M 355 126 L 355 127 L 357 127 L 355 126 Z M 350 128 L 350 129 L 352 129 L 350 128 Z M 583 167 L 582 168 L 589 174 L 589 173 L 583 167 Z M 618 219 L 617 222 L 618 222 L 618 219 Z M 619 222 L 618 225 L 619 225 L 619 222 Z M 620 225 L 619 228 L 620 228 L 620 225 Z M 621 228 L 620 231 L 621 231 L 621 228 Z M 622 231 L 621 234 L 622 234 L 622 231 Z M 623 234 L 622 238 L 623 238 L 623 234 Z M 624 238 L 623 242 L 624 242 L 624 238 Z M 625 242 L 624 246 L 625 246 L 625 242 Z M 626 246 L 625 250 L 626 250 L 626 246 Z M 627 250 L 626 255 L 627 255 L 627 250 Z M 628 255 L 627 260 L 628 260 L 628 255 Z M 629 261 L 628 264 L 629 264 L 629 261 Z " /><path fill="rgb(0,0,0)" stroke="rgb(0,0,0)" stroke-width="1" opacity="0" d="M 0.5 323 L 1 331.5 L 2 332.5 L 2 338.5 L 3 339.5 L 3 344.5 L 4 345.5 L 6 359.5 L 7 360.5 L 10 375.5 L 12 379.5 L 12 382.5 L 21 409.5 L 37 445.5 L 39 447.5 L 44 458.5 L 54 473.5 L 55 476.5 L 72 500.5 Q 91.7 525.8 115.5 547 L 148.5 573 L 162.5 582 L 180.5 591 L 182.5 591 L 185.5 593 L 194.5 596 L 197.5 596 L 206.5 599 L 210.5 599 L 211.5 600 Q 216.3 598.7 217.5 601 L 227.5 601 L 228.5 602 L 245.5 602 Q 246.5 600 247.5 602 L 255.5 602 L 256.5 603 L 275.5 603 L 276.5 602 L 285.5 602 L 286.5 601 L 292.5 601 L 293.5 600 L 297.5 600 L 298.5 599 L 312.5 597 L 317.5 595 L 323.5 595 L 324.5 596 L 328.5 596 L 329.5 597 L 333.5 597 L 334.5 598 L 338.5 598 L 339.5 599 L 343.5 599 L 344.5 600 L 348.5 600 L 354.5 602 L 359.5 602 L 365.5 604 L 376.5 605 L 377.5 606 L 383.5 606 L 384.5 607 L 390.5 607 L 391.5 608 L 398.5 608 L 399.5 609 L 408.5 609 L 409.5 610 L 424.5 610 L 425.5 611 L 431.5 611 L 432.5 612 L 441 612.5 L 0.5 613 L 0.5 323 Z M 314 597 L 314 598 L 317 598 L 314 597 Z M 309 598 L 309 599 L 313 599 L 309 598 Z M 304 599 L 304 600 L 308 600 L 304 599 Z M 299 600 L 299 601 L 303 601 L 299 600 Z M 294 601 L 294 602 L 298 602 L 294 601 Z M 287 602 L 287 603 L 293 603 L 287 602 Z M 248 603 L 248 604 L 254 604 L 248 603 Z M 277 603 L 277 604 L 286 604 L 277 603 Z M 256 604 L 256 605 L 276 605 L 256 604 Z " /><path fill="rgb(0,0,0)" stroke="rgb(0,0,0)" stroke-width="1" opacity="0" d="M 639.5 378 L 640 612.5 L 497.5 613 Q 496.5 611 492.5 612 L 491.5 613 L 485.5 613 L 485.5 612 L 491.5 612 L 492.5 611 L 496.5 611 L 497.5 610 L 505.5 609 L 517.5 605 L 530.5 599 L 550.5 586 L 571.5 568 L 571.5 570 L 574 568.5 L 573 567.5 L 591 549.5 L 595.5 544 Q 596.8 546.3 598 543.5 L 597.5 542 L 596 542.5 L 598.5 540 Q 599.8 542.3 601 539.5 L 600.5 538 L 599 538.5 L 600.5 537 Q 601.8 539.3 603 536.5 L 602.5 535 L 601 535.5 L 602.5 534 Q 603.7 536.3 605 533.5 L 606 530.5 L 604 530.5 L 605.5 529 L 607 529.5 L 606 527.5 L 607.5 525 L 608.5 527 L 613 518.5 L 613 516.5 L 612 516.5 L 611.5 518 L 611 516.5 L 613.5 512 L 614.5 514 L 615 511.5 L 614 509.5 L 616.5 504 L 617.5 506 L 619 501.5 L 618 501.5 L 617.5 503 L 617 501.5 L 625.5 476 L 626.5 479 L 628 475.5 L 628 472.5 L 627 472.5 L 626.5 475 L 626 472.5 L 629 463.5 L 629 459.5 L 631 453.5 L 631 448.5 L 632 447.5 L 632 442.5 L 633 441.5 L 634 423.5 L 635 422.5 L 635 413.5 L 636 412.5 L 636 406.5 L 637 405.5 L 637 399.5 L 638 398.5 L 638 390.5 L 639 389.5 L 639.5 378 Z M 637 419 L 636 423 L 637 423 L 637 419 Z M 636 424 L 635 433 L 636 433 L 636 424 Z M 635 434 L 634 441 L 635 441 L 635 434 Z M 634 442 L 633 448 L 634 448 L 634 442 Z M 633 448 L 632 454 L 633 454 L 633 448 Z M 632 454 L 631 459 L 632 459 L 632 454 Z M 631 459 L 630 464 L 631 464 L 631 459 Z M 630 464 L 629 468 L 630 468 L 630 464 Z M 629 468 L 628 472 L 629 472 L 629 468 Z M 626 479 L 625 482 L 626 482 L 626 479 Z M 625 482 L 624 485 L 625 485 L 625 482 Z M 624 485 L 623 488 L 624 488 L 624 485 Z M 623 488 L 622 492 L 623 492 L 623 488 Z M 622 492 L 621 495 L 622 495 L 622 492 Z M 621 495 L 620 498 L 621 498 L 621 495 Z M 620 498 L 619 501 L 620 501 L 620 498 Z M 617 506 L 616 509 L 617 509 L 617 506 Z M 594 547 L 592 550 Q 593 551 594 549 L 594 547 Z M 560 579 Q 557 580 559 581 L 561 580 L 560 579 Z M 516 606 L 516 607 L 518 607 L 516 606 Z M 513 607 L 513 608 L 515 608 L 513 607 Z M 510 608 L 510 609 L 512 609 L 510 608 Z M 507 609 L 507 610 L 509 610 L 507 609 Z M 503 610 L 503 611 L 506 611 L 503 610 Z M 499 611 L 499 612 L 502 612 L 499 611 Z " /><path fill="rgb(0,0,0)" stroke="rgb(0,0,0)" stroke-width="1" opacity="0.4" d="M 317.5 0 L 318 9.5 L 317 9.5 L 317.5 0 Z " /><path fill="rgb(0,0,0)" stroke="rgb(0,0,0)" stroke-width="1" opacity="0.4" d="M 305.5 2 L 308 2.5 L 305.5 3 L 305.5 2 Z " /><path fill="rgb(0,0,0)" stroke="rgb(0,0,0)" stroke-width="1" opacity="0.4" d="M 298.5 3 L 301 3.5 L 298.5 4 L 298.5 3 Z " /><path fill="rgb(0,0,0)" stroke="rgb(0,0,0)" stroke-width="1" opacity="0.4" d="M 290.5 4 L 294 4.5 L 290.5 5 L 290.5 4 Z " /><path fill="rgb(0,0,0)" stroke="rgb(0,0,0)" stroke-width="1" opacity="0.4" d="M 283.5 5 L 287 5.5 L 283.5 6 L 283.5 5 Z " /><path fill="rgb(0,0,0)" stroke="rgb(0,0,0)" stroke-width="1" opacity="0.4" d="M 277.5 6 L 280 6.5 L 277.5 7 L 277.5 6 Z " /><path fill="rgb(0,0,0)" stroke="rgb(0,0,0)" stroke-width="1" opacity="0.4" d="M 271.5 7 L 274 7.5 L 271.5 8 L 271.5 7 Z " /><path fill="rgb(0,0,0)" stroke="rgb(0,0,0)" stroke-width="1" opacity="0.4" d="M 261.5 9 L 264 9.5 L 261.5 10 L 261.5 9 Z " /><path fill="rgb(0,0,0)" stroke="rgb(0,0,0)" stroke-width="1" opacity="0.4" d="M 316.5 26 L 317 89.5 L 316 89.5 L 316.5 26 Z " /><path fill="rgb(0,0,0)" stroke="rgb(0,0,0)" stroke-width="1" opacity="0.4" d="M 317.5 105 L 318 115.5 L 317 115.5 L 317.5 105 Z " /><path fill="rgb(0,0,0)" stroke="rgb(0,0,0)" stroke-width="1" opacity="0.4" d="M 440.5 113 L 463 113.5 L 440.5 114 L 440.5 113 Z " /><path fill="rgb(0,0,0)" stroke="rgb(0,0,0)" stroke-width="1" opacity="0.4" d="M 469.5 114 L 474 114.5 L 469.5 115 L 469.5 114 Z " /><path fill="rgb(0,0,0)" stroke="rgb(0,0,0)" stroke-width="1" opacity="0.4" d="M 477.5 115 L 481 115.5 L 477.5 116 L 477.5 115 Z " /><path fill="rgb(0,0,0)" stroke="rgb(0,0,0)" stroke-width="1" opacity="0.4" d="M 484.5 116 L 487 116.5 L 484.5 117 L 484.5 116 Z " /><path fill="rgb(0,0,0)" stroke="rgb(0,0,0)" stroke-width="1" opacity="0.4" d="M 489.5 117 L 492 117.5 L 489.5 118 L 489.5 117 Z " /><path fill="rgb(0,0,0)" stroke="rgb(0,0,0)" stroke-width="1" opacity="0.4" d="M 318.5 124 L 319 131.5 L 318 131.5 L 318.5 124 Z " /><path fill="rgb(0,0,0)" stroke="rgb(0,0,0)" stroke-width="1" opacity="0.4" d="M 229.5 128 L 234 128.5 L 229.5 129 L 229.5 128 Z " /><path fill="rgb(0,0,0)" stroke="rgb(0,0,0)" stroke-width="1" opacity="0.4" d="M 238.5 129 L 243 129.5 L 238.5 130 L 238.5 129 Z " /><path fill="rgb(0,0,0)" stroke="rgb(0,0,0)" stroke-width="1" opacity="0.4" d="M 246.5 130 L 249 130.5 L 246.5 131 L 246.5 130 Z " /><path fill="rgb(0,0,0)" stroke="rgb(0,0,0)" stroke-width="1" opacity="0.4" d="M 252.5 131 L 255 131.5 L 252.5 132 L 252.5 131 Z " /><path fill="rgb(0,0,0)" stroke="rgb(0,0,0)" stroke-width="1" opacity="0.4" d="M 261.5 133 L 264 133.5 L 261.5 134 L 261.5 133 Z " /><path fill="rgb(0,0,0)" stroke="rgb(0,0,0)" stroke-width="1" opacity="0.4" d="M 281.5 137 L 282 139.5 L 281 139.5 L 281.5 137 Z " /><path fill="rgb(0,0,0)" stroke="rgb(0,0,0)" stroke-width="1" opacity="0.4" d="M 319.5 138 L 320 143.5 L 319 143.5 L 319.5 138 Z " /><path fill="rgb(0,0,0)" stroke="rgb(0,0,0)" stroke-width="1" opacity="0.4" d="M 559.5 147 L 562 149.5 L 561.5 150 L 559 147.5 L 559.5 147 Z " /><path fill="rgb(0,0,0)" stroke="rgb(0,0,0)" stroke-width="1" opacity="0.4" d="M 565.5 152 L 579 165.5 L 578.5 166 L 565 152.5 L 565.5 152 Z " /><path fill="rgb(0,0,0)" stroke="rgb(0,0,0)" stroke-width="1" opacity="0.4" d="M 630.5 278 L 631 280.5 L 630 280.5 L 630.5 278 Z " /><path fill="rgb(0,0,0)" stroke="rgb(0,0,0)" stroke-width="1" opacity="0.4" d="M 0.5 282 L 1 286.5 L 0 286.5 L 0.5 282 Z " /><path fill="rgb(0,0,0)" stroke="rgb(0,0,0)" stroke-width="1" opacity="0.4" d="M 633.5 291 L 634 293.5 L 633 293.5 L 633.5 291 Z " /><path fill="rgb(0,0,0)" stroke="rgb(0,0,0)" stroke-width="1" opacity="0.4" d="M 634.5 296 L 635 298.5 L 634 298.5 L 634.5 296 Z " /><path fill="rgb(0,0,0)" stroke="rgb(0,0,0)" stroke-width="1" opacity="0.4" d="M 635.5 302 L 636 304.5 L 635 304.5 L 635.5 302 Z " /><path fill="rgb(0,0,0)" stroke="rgb(0,0,0)" stroke-width="1" opacity="0.4" d="M 636.5 308 L 637 311.5 L 636 311.5 L 636.5 308 Z " /><path fill="rgb(0,0,0)" stroke="rgb(0,0,0)" stroke-width="1" opacity="0.4" d="M 637.5 315 L 638 319.5 L 637 319.5 L 637.5 315 Z " /><path fill="rgb(0,0,0)" stroke="rgb(0,0,0)" stroke-width="1" opacity="0.4" d="M 0.5 317 L 1 322.5 L 0 322.5 L 0.5 317 Z " /><path fill="rgb(0,0,0)" stroke="rgb(0,0,0)" stroke-width="1" opacity="0.4" d="M 638.5 324 L 639 329.5 L 638 329.5 L 638.5 324 Z " /><path fill="rgb(0,0,0)" stroke="rgb(0,0,0)" stroke-width="1" opacity="0.4" d="M 1.5 327 L 2 331.5 L 1 331.5 L 1.5 327 Z " /><path fill="rgb(0,0,0)" stroke="rgb(0,0,0)" stroke-width="1" opacity="0.4" d="M 2.5 335 L 3 338.5 L 2 338.5 L 2.5 335 Z " /><path fill="rgb(0,0,0)" stroke="rgb(0,0,0)" stroke-width="1" opacity="0.4" d="M 639.5 336 L 640 347.5 L 639 347.5 L 639.5 336 Z " /><path fill="rgb(0,0,0)" stroke="rgb(0,0,0)" stroke-width="1" opacity="0.4" d="M 3.5 342 L 4 344.5 L 3 344.5 L 3.5 342 Z " /><path fill="rgb(0,0,0)" stroke="rgb(0,0,0)" stroke-width="1" opacity="0.4" d="M 4.5 347 L 5 349.5 L 4 349.5 L 4.5 347 Z " /><path fill="rgb(0,0,0)" stroke="rgb(0,0,0)" stroke-width="1" opacity="0.4" d="M 6.5 357 L 7 359.5 L 6 359.5 L 6.5 357 Z " /><path fill="rgb(0,0,0)" stroke="rgb(0,0,0)" stroke-width="1" opacity="0.4" d="M 639.5 367 L 640 377.5 L 639 377.5 L 639.5 367 Z " /><path fill="rgb(0,0,0)" stroke="rgb(0,0,0)" stroke-width="1" opacity="0.4" d="M 638.5 384 L 639 389.5 L 638 389.5 L 638.5 384 Z " /><path fill="rgb(0,0,0)" stroke="rgb(0,0,0)" stroke-width="1" opacity="0.4" d="M 637.5 395 L 638 398.5 L 637 398.5 L 637.5 395 Z " /><path fill="rgb(0,0,0)" stroke="rgb(0,0,0)" stroke-width="1" opacity="0.4" d="M 636.5 403 L 637 405.5 L 636 405.5 L 636.5 403 Z " /><path fill="rgb(0,0,0)" stroke="rgb(0,0,0)" stroke-width="1" opacity="0.4" d="M 635.5 409 L 636 412.5 L 635 412.5 L 635.5 409 Z " /><path fill="rgb(0,0,0)" stroke="rgb(0,0,0)" stroke-width="1" opacity="0.4" d="M 634.5 415 L 635 417.5 L 634 417.5 L 634.5 415 Z " /><path fill="rgb(0,0,0)" stroke="rgb(0,0,0)" stroke-width="1" opacity="0.4" d="M 69.5 496 L 72 498.5 L 71.5 499 L 69 496.5 L 69.5 496 Z " /><path fill="rgb(0,0,0)" stroke="rgb(0,0,0)" stroke-width="1" opacity="0.4" d="M 72.5 500 L 75 502.5 L 74.5 503 L 72 500.5 L 72.5 500 Z " /><path fill="rgb(0,0,0)" stroke="rgb(0,0,0)" stroke-width="1" opacity="0.4" d="M 76.5 505 L 79 507.5 L 78.5 508 L 76 505.5 L 76.5 505 Z " /><path fill="rgb(0,0,0)" stroke="rgb(0,0,0)" stroke-width="1" opacity="0.4" d="M 81.5 511 L 85 514.5 L 84.5 515 L 81 511.5 L 81.5 511 Z " /><path fill="rgb(0,0,0)" stroke="rgb(0,0,0)" stroke-width="1" opacity="0.4" d="M 87.5 518 L 94 524.5 L 93.5 525 L 87 518.5 L 87.5 518 Z " /><path fill="rgb(0,0,0)" stroke="rgb(0,0,0)" stroke-width="1" opacity="0.4" d="M 109.5 540 L 116 546.5 L 115.5 547 L 109 540.5 L 109.5 540 Z " /><path fill="rgb(0,0,0)" stroke="rgb(0,0,0)" stroke-width="1" opacity="0.4" d="M 119.5 549 L 123 552.5 L 122.5 553 L 119 549.5 L 119.5 549 Z " /><path fill="rgb(0,0,0)" stroke="rgb(0,0,0)" stroke-width="1" opacity="0.4" d="M 126.5 555 L 129 557.5 L 128.5 558 L 126 555.5 L 126.5 555 Z " /><path fill="rgb(0,0,0)" stroke="rgb(0,0,0)" stroke-width="1" opacity="0.4" d="M 131.5 559 L 134 561.5 L 133.5 562 L 131 559.5 L 131.5 559 Z " /><path fill="rgb(0,0,0)" stroke="rgb(0,0,0)" stroke-width="1" opacity="0.4" d="M 135.5 562 L 138 564.5 L 137.5 565 L 135 562.5 L 135.5 562 Z " /><path fill="rgb(0,0,0)" stroke="rgb(0,0,0)" stroke-width="1" opacity="0.4" d="M 139.5 565 L 142 567.5 L 141.5 568 L 139 565.5 L 139.5 565 Z " /><path fill="rgb(0,0,0)" stroke="rgb(0,0,0)" stroke-width="1" opacity="0.4" d="M 324.5 595 L 327 595.5 L 324.5 596 L 324.5 595 Z " /><path fill="rgb(0,0,0)" stroke="rgb(0,0,0)" stroke-width="1" opacity="0.4" d="M 329.5 596 L 332 596.5 L 329.5 597 L 329.5 596 Z " /><path fill="rgb(0,0,0)" stroke="rgb(0,0,0)" stroke-width="1" opacity="0.4" d="M 201.5 597 L 204 597.5 L 201.5 598 L 201.5 597 Z " /><path fill="rgb(0,0,0)" stroke="rgb(0,0,0)" stroke-width="1" opacity="0.4" d="M 334.5 597 L 337 597.5 L 334.5 598 L 334.5 597 Z " /><path fill="rgb(0,0,0)" stroke="rgb(0,0,0)" stroke-width="1" opacity="0.4" d="M 339.5 598 L 342 598.5 L 339.5 599 L 339.5 598 Z " /><path fill="rgb(0,0,0)" stroke="rgb(0,0,0)" stroke-width="1" opacity="0.4" d="M 211.5 599 L 214 599.5 L 211.5 600 L 211.5 599 Z " /><path fill="rgb(0,0,0)" stroke="rgb(0,0,0)" stroke-width="1" opacity="0.4" d="M 344.5 599 L 347 599.5 L 344.5 600 L 344.5 599 Z " /><path fill="rgb(0,0,0)" stroke="rgb(0,0,0)" stroke-width="1" opacity="0.4" d="M 217.5 600 L 222 600.5 L 217.5 601 L 217.5 600 Z " /><path fill="rgb(0,0,0)" stroke="rgb(0,0,0)" stroke-width="1" opacity="0.4" d="M 349.5 600 L 352 600.5 L 349.5 601 L 349.5 600 Z " /><path fill="rgb(0,0,0)" stroke="rgb(0,0,0)" stroke-width="1" opacity="0.4" d="M 228.5 601 L 246 601.5 L 228.5 602 L 228.5 601 Z " /><path fill="rgb(0,0,0)" stroke="rgb(0,0,0)" stroke-width="1" opacity="0.4" d="M 354.5 601 L 357 601.5 L 354.5 602 L 354.5 601 Z " /><path fill="rgb(0,0,0)" stroke="rgb(0,0,0)" stroke-width="1" opacity="0.4" d="M 360.5 602 L 363 602.5 L 360.5 603 L 360.5 602 Z " /><path fill="rgb(0,0,0)" stroke="rgb(0,0,0)" stroke-width="1" opacity="0.4" d="M 365.5 603 L 368 603.5 L 365.5 604 L 365.5 603 Z " /><path fill="rgb(0,0,0)" stroke="rgb(0,0,0)" stroke-width="1" opacity="0.4" d="M 371.5 604 L 374 604.5 L 371.5 605 L 371.5 604 Z " /><path fill="rgb(0,0,0)" stroke="rgb(0,0,0)" stroke-width="1" opacity="0.4" d="M 377.5 605 L 381 605.5 L 377.5 606 L 377.5 605 Z " /><path fill="rgb(0,0,0)" stroke="rgb(0,0,0)" stroke-width="1" opacity="0.4" d="M 384.5 606 L 388 606.5 L 384.5 607 L 384.5 606 Z " /><path fill="rgb(0,0,0)" stroke="rgb(0,0,0)" stroke-width="1" opacity="0.4" d="M 391.5 607 L 395 607.5 L 391.5 608 L 391.5 607 Z " /><path fill="rgb(0,0,0)" stroke="rgb(0,0,0)" stroke-width="1" opacity="0.4" d="M 399.5 608 L 404 608.5 L 399.5 609 L 399.5 608 Z " /><path fill="rgb(0,0,0)" stroke="rgb(0,0,0)" stroke-width="1" opacity="0.4" d="M 409.5 609 L 416 609.5 L 409.5 610 L 409.5 609 Z " /><path fill="rgb(0,0,0)" stroke="rgb(0,0,0)" stroke-width="1" opacity="0.4" d="M 425.5 610 L 428 610.5 L 425.5 611 L 425.5 610 Z " /><path fill="rgb(243,0,0)" stroke="rgb(243,0,0)" stroke-width="1" opacity="0.5058823529411764" d="M 418.5 114 L 429 114.5 L 418.5 115 L 418.5 114 Z " /><path fill="rgb(243,0,0)" stroke="rgb(243,0,0)" stroke-width="1" opacity="0.5058823529411764" d="M 408.5 115 L 413 115.5 L 408.5 116 L 408.5 115 Z " /><path fill="rgb(243,0,0)" stroke="rgb(243,0,0)" stroke-width="1" opacity="0.5058823529411764" d="M 401.5 116 L 404 116.5 L 401.5 117 L 401.5 116 Z " /><path fill="rgb(243,0,0)" stroke="rgb(243,0,0)" stroke-width="1" opacity="0.5058823529411764" d="M 395.5 117 L 398 117.5 L 395.5 118 L 395.5 117 Z " /><path fill="rgb(243,0,0)" stroke="rgb(243,0,0)" stroke-width="1" opacity="0.5058823529411764" d="M 144.5 123 L 183 123.5 L 144.5 124 L 144.5 123 Z " /><path fill="rgb(243,0,0)" stroke="rgb(243,0,0)" stroke-width="1" opacity="0.5058823529411764" d="M 133.5 124 L 138 124.5 L 133.5 125 L 133.5 124 Z " /><path fill="rgb(243,0,0)" stroke="rgb(243,0,0)" stroke-width="1" opacity="0.5058823529411764" d="M 193.5 124 L 200 124.5 L 193.5 125 L 193.5 124 Z " /><path fill="rgb(243,0,0)" stroke="rgb(243,0,0)" stroke-width="1" opacity="0.5058823529411764" d="M 125.5 125 L 129 125.5 L 125.5 126 L 125.5 125 Z " /><path fill="rgb(243,0,0)" stroke="rgb(243,0,0)" stroke-width="1" opacity="0.5058823529411764" d="M 205.5 125 L 210 125.5 L 205.5 126 L 205.5 125 Z " /><path fill="rgb(243,0,0)" stroke="rgb(243,0,0)" stroke-width="1" opacity="0.5058823529411764" d="M 119.5 126 L 122 126.5 L 119.5 127 L 119.5 126 Z " /><path fill="rgb(243,0,0)" stroke="rgb(243,0,0)" stroke-width="1" opacity="0.5058823529411764" d="M 214.5 126 L 218 126.5 L 214.5 127 L 214.5 126 Z " /><path fill="rgb(243,0,0)" stroke="rgb(243,0,0)" stroke-width="1" opacity="0.5058823529411764" d="M 113.5 127 L 116 127.5 L 113.5 128 L 113.5 127 Z " /><path fill="rgb(243,0,0)" stroke="rgb(243,0,0)" stroke-width="1" opacity="0.5058823529411764" d="M 221.5 127 L 224 127.5 L 221.5 128 L 221.5 127 Z " /><path fill="rgb(243,0,0)" stroke="rgb(243,0,0)" stroke-width="1" opacity="0.5058823529411764" d="M 48.5 155 L 49 155.5 L 46.5 158 L 46 157.5 L 48.5 155 Z " /><path fill="rgb(243,0,0)" stroke="rgb(243,0,0)" stroke-width="1" opacity="0.5058823529411764" d="M 43.5 159 L 44 159.5 L 38.5 165 L 38 164.5 L 43.5 159 Z " /><path fill="rgb(243,0,0)" stroke="rgb(243,0,0)" stroke-width="1" opacity="0.5058823529411764" d="M 579.5 166 L 590 176.5 L 589.5 177 L 579 166.5 L 579.5 166 Z " /><path fill="rgb(243,0,0)" stroke="rgb(243,0,0)" stroke-width="1" opacity="0.5058823529411764" d="M 35.5 167 L 36 167.5 L 30.5 173 L 30 172.5 L 35.5 167 Z " /><path fill="rgb(243,0,0)" stroke="rgb(243,0,0)" stroke-width="1" opacity="0.5058823529411764" d="M 592.5 180 L 595 182.5 L 594.5 183 L 592 180.5 L 592.5 180 Z " /><path fill="rgb(243,0,0)" stroke="rgb(243,0,0)" stroke-width="1" opacity="0.5058823529411764" d="M 3.5 237 L 4 239.5 L 3 239.5 L 3.5 237 Z " /><path fill="rgb(243,0,0)" stroke="rgb(243,0,0)" stroke-width="1" opacity="0.5058823529411764" d="M 2.5 243 L 3 245.5 L 2 245.5 L 2.5 243 Z " /><path fill="rgb(243,0,0)" stroke="rgb(243,0,0)" stroke-width="1" opacity="0.5058823529411764" d="M 1.5 250 L 2 253.5 L 1 253.5 L 1.5 250 Z " /><path fill="rgb(243,0,0)" stroke="rgb(243,0,0)" stroke-width="1" opacity="0.5058823529411764" d="M 0.5 260 L 1 269.5 L 0 269.5 L 0.5 260 Z " /><path fill="rgb(243,0,0)" stroke="rgb(243,0,0)" stroke-width="1" opacity="0.5058823529411764" d="M 0.5 272 L 1 281.5 L 0 281.5 L 0.5 272 Z " /><path fill="rgb(243,0,0)" stroke="rgb(243,0,0)" stroke-width="1" opacity="0.5058823529411764" d="M 633.5 424 L 634 428.5 L 633 428.5 L 633.5 424 Z " /><path fill="rgb(243,0,0)" stroke="rgb(243,0,0)" stroke-width="1" opacity="0.5058823529411764" d="M 632.5 434 L 633 437.5 L 632 437.5 L 632.5 434 Z " /><path fill="rgb(243,0,0)" stroke="rgb(243,0,0)" stroke-width="1" opacity="0.5058823529411764" d="M 631.5 442 L 632 444.5 L 631 444.5 L 631.5 442 Z " /><path fill="rgb(243,0,0)" stroke="rgb(243,0,0)" stroke-width="1" opacity="0.5058823529411764" d="M 630.5 449 L 631 451.5 L 630 451.5 L 630.5 449 Z " /><path fill="rgb(243,0,0)" stroke="rgb(243,0,0)" stroke-width="1" opacity="0.5058823529411764" d="M 629.5 454 L 630 456.5 L 629 456.5 L 629.5 454 Z " /><path fill="rgb(243,0,0)" stroke="rgb(243,0,0)" stroke-width="1" opacity="0.5058823529411764" d="M 596.5 541 L 597 541.5 L 594.5 544 L 594 543.5 L 596.5 541 Z " /><path fill="rgb(243,0,0)" stroke="rgb(243,0,0)" stroke-width="1" opacity="0.5058823529411764" d="M 592.5 546 L 593 546.5 L 590.5 549 L 590 548.5 L 592.5 546 Z " /><path fill="rgb(243,0,0)" stroke="rgb(243,0,0)" stroke-width="1" opacity="0.5058823529411764" d="M 585.5 554 L 586 554.5 L 579.5 561 L 579 560.5 L 585.5 554 Z " /><path fill="rgb(243,0,0)" stroke="rgb(243,0,0)" stroke-width="1" opacity="0.5058823529411764" d="M 572.5 566 L 573 566.5 L 569.5 570 L 569 569.5 L 572.5 566 Z " /><path fill="rgb(243,0,0)" stroke="rgb(243,0,0)" stroke-width="1" opacity="0.5058823529411764" d="M 565.5 572 L 566 572.5 L 562.5 576 L 562 575.5 L 565.5 572 Z " /><path fill="rgb(243,0,0)" stroke="rgb(243,0,0)" stroke-width="1" opacity="0.5058823529411764" d="M 559.5 577 L 560 577.5 L 557.5 580 L 557 579.5 L 559.5 577 Z " /><path fill="rgb(243,0,0)" stroke="rgb(243,0,0)" stroke-width="1" opacity="0.5058823529411764" d="M 554.5 581 L 555 581.5 L 552.5 584 L 552 583.5 L 554.5 581 Z " /><path fill="rgb(243,0,0)" stroke="rgb(243,0,0)" stroke-width="1" opacity="0.5058823529411764" d="M 317.5 594 L 320 594.5 L 317.5 595 L 317.5 594 Z " /><path fill="rgb(243,0,0)" stroke="rgb(243,0,0)" stroke-width="1" opacity="0.5058823529411764" d="M 308.5 596 L 311 596.5 L 308.5 597 L 308.5 596 Z " /><path fill="rgb(243,0,0)" stroke="rgb(243,0,0)" stroke-width="1" opacity="0.5058823529411764" d="M 303.5 597 L 306 597.5 L 303.5 598 L 303.5 597 Z " /><path fill="rgb(243,0,0)" stroke="rgb(243,0,0)" stroke-width="1" opacity="0.5058823529411764" d="M 298.5 598 L 301 598.5 L 298.5 599 L 298.5 598 Z " /><path fill="rgb(243,0,0)" stroke="rgb(243,0,0)" stroke-width="1" opacity="0.5058823529411764" d="M 293.5 599 L 296 599.5 L 293.5 600 L 293.5 599 Z " /><path fill="rgb(243,0,0)" stroke="rgb(243,0,0)" stroke-width="1" opacity="0.5058823529411764" d="M 286.5 600 L 290 600.5 L 286.5 601 L 286.5 600 Z " /><path fill="rgb(243,0,0)" stroke="rgb(243,0,0)" stroke-width="1" opacity="0.5058823529411764" d="M 249.5 601 L 254 601.5 L 249.5 602 L 249.5 601 Z " /><path fill="rgb(243,0,0)" stroke="rgb(243,0,0)" stroke-width="1" opacity="0.5058823529411764" d="M 276.5 601 L 282 601.5 L 276.5 602 L 276.5 601 Z " /><path fill="rgb(243,0,0)" stroke="rgb(243,0,0)" stroke-width="1" opacity="0.5058823529411764" d="M 428.5 610 L 431 610.5 L 428.5 611 L 428.5 610 Z " /><path fill="rgb(243,0,0)" stroke="rgb(243,0,0)" stroke-width="1" opacity="0.5058823529411764" d="M 492.5 610 L 495 610.5 L 492.5 611 L 492.5 610 Z " /><path fill="rgb(243,0,0)" stroke="rgb(243,0,0)" stroke-width="1" opacity="0.5058823529411764" d="M 435.5 611 L 441 611.5 L 435.5 612 L 435.5 611 Z " /><path fill="rgb(243,0,0)" stroke="rgb(243,0,0)" stroke-width="1" opacity="0.5058823529411764" d="M 485.5 611 L 489 611.5 L 485.5 612 L 485.5 611 Z " /><path fill="rgb(243,0,0)" stroke="rgb(243,0,0)" stroke-width="1" opacity="0.5058823529411764" d="M 446.5 612 L 453 612.5 L 446.5 613 L 446.5 612 Z " /><path fill="rgb(243,0,0)" stroke="rgb(243,0,0)" stroke-width="1" opacity="0.5058823529411764" d="M 475.5 612 L 481 612.5 L 475.5 613 L 475.5 612 Z " /></svg>