<svg viewBox="0 0 599 640" version="1.1" xmlns="http://www.w3.org/2000/svg" desc="Created with imagetracer.js version 1.2.6" ><path fill="rgb(0,0,0)" stroke="rgb(0,0,0)" stroke-width="1" opacity="0.00392156862745098" d="M 0.5 0 L 194 0.5 L 190 2.5 L 188 8.5 L 188 25.5 L 189 26.5 L 189 33.5 L 190 34.5 L 190 39.5 L 191 40.5 L 191 45.5 L 192 46.5 L 192 50.5 L 194 55.5 L 194 59.5 L 195 60.5 L 195 63.5 L 197 67.5 L 197 70.5 L 199 76.5 L 201 78.5 L 199 79.5 Q 200.3 82.3 201.5 80 L 206.5 85 L 221 94.5 L 220.5 96 L 217.5 97 L 211.5 97 L 206.5 95 Q 205.5 97 201.5 96 L 200.5 95 L 193.5 95 L 192.5 94 L 184.5 94 L 183.5 95 L 172.5 96 L 170.5 95 L 164.5 97 Q 163.5 95 162.5 97 L 158.5 98 Q 157 95.5 155.5 99 Q 151.3 98.3 149.5 100 Q 148 97.5 146.5 101 L 142.5 102 L 141.5 101 L 139.5 103 L 138.5 102 L 136.5 104 L 135.5 103 L 133.5 105 Q 132 102.5 130.5 106 L 123.5 109 Q 122 106.5 120.5 110 L 105.5 117 L 103.5 119 L 102 118.5 L 101.5 120 L 98.5 122 L 97 121.5 L 96.5 123 L 93.5 125 Q 92.5 123 91.5 125 L 68.5 125 L 65.5 126 Q 64.5 124 63.5 126 L 52.5 129 L 51.5 128 L 49.5 130 L 48.5 129 L 46.5 131 L 45 130.5 L 44.5 132 L 42.5 132 L 39.5 134 L 38 133.5 L 37.5 135 L 35.5 136 L 34 135.5 L 33.5 137 L 24.5 142 L 14 151.5 L 6.5 163 L 5 163.5 Q 7 164.5 5 165.5 L 4 169.5 L 2 171.5 L 3 173.5 L 1 176.5 L 2 177.5 L 2 187.5 Q -0.5 189 3 190.5 L 2 192.5 L 4 194.5 L 4 196.5 L 6 199.5 L 5.5 201 L 7 201.5 L 12 208.5 L 12.5 211 L 14 211.5 L 14 213.5 L 11 217.5 Q 13 218.5 11 219.5 L 9 227.5 L 7 229.5 L 8 230.5 Q 4.5 232 7 233.5 L 5 236.5 L 6 238.5 Q 2.5 240 5 241.5 Q 5.5 245 3 245.5 L 4 248.5 L 2 251.5 L 3 254.5 L 1 258.5 Q 2.7 259.3 2 262.5 L 0.5 266 L 0.5 0 Z " /><path fill="rgb(0,0,0)" stroke="rgb(0,0,0)" stroke-width="1" opacity="0.00392156862745098" d="M 205.5 0 L 599 0.5 L 598.5 261 Q 596.3 259.3 597 254.5 Q 599 253.5 597 252.5 L 596 248.5 Q 598 247.5 596 246.5 L 594 238.5 Q 596.5 237 593 235.5 L 594 233.5 L 592 230.5 L 593 229.5 L 591 227.5 L 592 226.5 L 590 224.5 L 591 223.5 L 589 221.5 L 590 220.5 L 588 218.5 L 588.5 217 L 587 216.5 L 586 213.5 L 586.5 212 L 585 211.5 L 585 209.5 L 582 204.5 L 582.5 203 L 581 202.5 L 581.5 201 L 580 200.5 L 577 195.5 L 577.5 194 L 576 193.5 L 574 190.5 L 574.5 189 L 572 187.5 L 572.5 186 L 570 184.5 L 562.5 173 L 556 167.5 Q 551.4 158.6 543.5 153 Q 537.3 150.7 534 145.5 L 533.5 144 L 531.5 144 L 528 140.5 L 527.5 139 Q 523.5 139.5 523 136.5 L 522.5 135 Q 519.5 135.5 519 133.5 L 518.5 132 L 517.5 133 L 514.5 130 L 504 123.5 L 503.5 122 Q 502 124.5 500.5 121 L 499 120.5 L 498.5 119 Q 497 121.5 495.5 118 L 480.5 111 L 478.5 109 Q 477.5 111 476.5 109 L 472.5 108 L 468.5 105 Q 467.5 107 466.5 105 L 461.5 104 L 459.5 102 L 458.5 103 Q 457 99.5 455.5 102 L 452.5 100 Q 451.5 102 450.5 100 L 448.5 99 L 446.5 100 Q 445 96.5 443.5 99 L 439.5 97 L 436.5 98 L 433.5 96 Q 432.7 97.7 429.5 97 L 425.5 95 Q 424.2 97.3 419.5 96 L 418.5 95 L 412.5 95 L 411.5 94 L 402.5 94 L 401.5 95 L 388.5 96 Q 387.5 94 386.5 96 L 380.5 97 Q 379.5 95 378.5 97 L 374.5 98 Q 373.5 96 372.5 98 L 369.5 99 Q 368.5 97 367.5 99 L 364.5 100 Q 363 97.5 361.5 101 L 359.5 100 L 356.5 102 Q 355 99.5 353.5 103 L 349.5 104 L 348.5 103 L 346.5 105 L 345.5 104 L 343.5 106 L 342.5 105 L 340.5 107 L 339 106.5 L 338.5 108 L 332.5 110 L 331 109.5 L 330.5 111 L 328.5 111 L 325.5 113 L 324 112.5 L 323.5 114 L 321.5 114 L 318.5 116 L 318 114.5 L 323 110.5 L 323 108.5 L 330.5 100 L 332 99.5 L 332 97.5 L 344.5 83 L 346 82.5 L 346 80.5 L 353.5 72 L 355 71.5 L 355 69.5 L 364 59.5 L 365 55.5 L 364 54.5 L 364.5 53 L 363 52.5 L 363.5 51 L 361 49.5 L 361.5 48 L 351.5 41 L 349.5 42 Q 348.3 39.7 343.5 41 L 342.5 42 L 336.5 43 L 330.5 47 L 314 63.5 L 303.5 77 L 302 77.5 L 303 78.5 L 300.5 81 L 299 81.5 L 300 82.5 L 297 85.5 L 290.5 95 L 289 95.5 Q 291.3 96.8 288.5 98 L 283 95.5 L 282.5 94 Q 281.5 96 280.5 94 L 279 93.5 Q 278.3 90.3 280 89.5 L 280 65.5 L 279 64.5 L 279 57.5 L 278 56.5 L 278 52.5 L 277 51.5 L 276 44.5 L 271 36.5 L 272 34.5 L 270.5 35 L 260.5 25 L 235.5 10 L 233.5 10 L 228.5 7 L 226.5 7 L 217.5 3 L 214.5 3 L 209.5 1 L 205.5 1 L 205.5 0 Z M 282 67 L 281 71 L 282 71 L 282 67 Z M 282 83 L 281 88 L 282 88 L 282 83 Z " /><path fill="rgb(0,0,0)" stroke="rgb(0,0,0)" stroke-width="1" opacity="0.00392156862745098" d="M 598.5 263 L 599 269.5 L 598 269.5 L 598.5 263 Z " /><path fill="rgb(0,0,0)" stroke="rgb(0,0,0)" stroke-width="1" opacity="0.00392156862745098" d="M 0.5 268 L 1 276.5 L 0 276.5 L 0.5 268 Z " /><path fill="rgb(0,0,0)" stroke="rgb(0,0,0)" stroke-width="1" opacity="0.00392156862745098" d="M 0.5 296 L 1 304.5 L 0 304.5 L 0.5 296 Z " /><path fill="rgb(0,0,0)" stroke="rgb(0,0,0)" stroke-width="1" opacity="0.00392156862745098" d="M 598.5 296 L 599 303.5 L 598 303.5 L 598.5 296 Z " /><path fill="rgb(0,0,0)" stroke="rgb(0,0,0)" stroke-width="1" opacity="0.00392156862745098" d="M 598.5 305 L 599 639.5 L 391.5 640 Q 390 639 392.5 638 L 397.5 637 L 400.5 635 L 402 635.5 L 402.5 634 L 406.5 632 L 408 632.5 L 408.5 631 L 411.5 630 L 419.5 624 L 422 623.5 L 423.5 621 L 427.5 618 L 430 617.5 L 433.5 613 L 437 611.5 L 442.5 605 Q 451.4 600.4 457 592.5 Q 460 585 466.5 581 L 468 580.5 Q 469.1 575.1 473.5 573 L 475 572.5 L 475 570.5 L 478.5 567 L 480 566.5 Q 479.5 562.5 482.5 562 L 484 561.5 Q 483.5 557.5 486.5 557 L 488 556.5 L 488 554.5 L 493.5 548 L 495 547.5 Q 494.5 544.5 496.5 544 L 498 543.5 L 497 542.5 L 500 539.5 L 501.5 537 L 503 536.5 L 503 534.5 L 506.5 530 L 508 529.5 Q 505.8 528.2 508.5 527 L 510 526.5 L 510.5 524 L 512 523.5 L 512.5 521 L 514 520.5 L 514.5 518 L 516 517.5 L 516.5 515 L 518 514.5 L 518.5 512 L 520 511.5 Q 517.5 510 521 508.5 L 523.5 504 L 525 503.5 Q 522.5 502 526 500.5 L 528.5 496 L 530 495.5 Q 527.5 494 531 492.5 L 532.5 489 L 534 488.5 L 535.5 484 L 537 483.5 L 536.5 482 L 538 481.5 L 538 479.5 L 540.5 475 L 542 474.5 L 541.5 473 L 543 472.5 Q 540.5 471 544 469.5 L 547.5 462 L 549 461.5 L 548.5 460 L 550 459.5 L 549.5 458 L 551 457.5 L 550.5 456 L 552 455.5 L 551.5 454 L 553 453.5 L 552.5 452 L 554 451.5 L 553.5 450 L 555 449.5 L 554.5 448 L 556 447.5 L 555.5 446 L 557 445.5 Q 555 444.5 557 443.5 L 560.5 435 L 562 434.5 L 561.5 433 L 563 432.5 Q 561 431.5 563 430.5 L 564.5 426 L 566 425.5 L 565.5 424 L 567 423.5 Q 565 422.5 567 421.5 L 567.5 419 L 569 418.5 Q 567 417.5 569 416.5 L 571 413.5 Q 569 412.5 571 411.5 L 573 408.5 Q 571 407.5 573 406.5 L 573.5 404 L 575 403.5 L 574 402.5 L 576 400.5 Q 574 399.5 576 398.5 L 576.5 396 L 578 395.5 L 577 394.5 L 579 392.5 L 578 391.5 L 580 389.5 L 579 388.5 L 581 386.5 L 580 385.5 L 582 383.5 L 581 382.5 L 583 380.5 L 582 379.5 Q 585.5 378 583 376.5 L 583.5 375 L 585 374.5 L 584 372.5 L 586 370.5 L 585 369.5 Q 588.5 368 586 366.5 L 588 363.5 Q 586 362.5 588 361.5 Q 587.3 357.3 590 356.5 L 589 354.5 Q 592.5 353 590 351.5 L 592 347.5 L 591 345.5 Q 594.5 344 592 342.5 L 594 338.5 L 593 336.5 L 595 333.5 L 594 330.5 L 596 327.5 L 595 324.5 L 597 321.5 Q 595.3 320.7 596 317.5 L 598 313.5 Q 596.3 312.8 597 309.5 L 598.5 305 Z " /><path fill="rgb(0,0,0)" stroke="rgb(0,0,0)" stroke-width="1" opacity="0.00392156862745098" d="M 0.5 307 L 2 311.5 L 2 315.5 Q 0 316.5 2 317.5 L 3 323.5 Q 1 324.5 3 325.5 L 4 330.5 Q 1.5 332 5 333.5 L 4 336.5 L 6 339.5 L 6 341.5 Q 3.5 343 7 344.5 L 6 347.5 L 8 350.5 Q 6 351.5 8 352.5 L 9 355.5 Q 6.5 357 10 358.5 L 9 360.5 L 11 363.5 Q 8.5 365 12 366.5 Q 11.3 369.8 13 370.5 Q 10.5 372 14 373.5 L 13 375.5 L 15 377.5 L 17 384.5 L 16 385.5 L 18 387.5 L 17 388.5 L 19 390.5 L 18 391.5 L 20 393.5 L 19 394.5 L 21 396.5 L 20 397.5 L 22 399.5 L 21.5 401 L 23 401.5 L 26 410.5 L 25.5 412 L 27 412.5 L 28 415.5 L 27.5 417 L 29 417.5 L 30 420.5 L 29.5 422 L 31 422.5 L 32 425.5 L 31.5 427 L 33 427.5 L 33 429.5 L 35 432.5 L 34.5 434 L 36 434.5 L 36 436.5 L 38 439.5 L 37.5 441 L 39 441.5 L 38.5 443 L 40 443.5 L 40 445.5 L 44 452.5 L 43.5 454 L 45 454.5 L 44.5 456 L 46 456.5 L 45.5 458 L 47 458.5 L 46.5 460 L 48 460.5 L 47.5 462 L 49 462.5 L 48.5 464 L 50 464.5 L 49.5 466 L 51 466.5 L 50.5 468 L 52 468.5 L 51.5 470 L 53 470.5 L 52.5 472 L 54 472.5 Q 55.9 479.1 60 483.5 L 59.5 485 L 61 485.5 L 64 490.5 L 63.5 492 L 65 492.5 L 68 497.5 L 67.5 499 L 69 499.5 L 71 502.5 L 70.5 504 L 72 504.5 L 74 507.5 L 73.5 509 L 75 509.5 L 77 512.5 L 76.5 514 L 79 515.5 L 78.5 517 L 80 517.5 L 94 538.5 L 94.5 541 L 97 542.5 L 99.5 548 L 102 549.5 L 102.5 552 L 105 553.5 L 108 557.5 L 108.5 560 L 112 562.5 Q 114.9 568.6 120 572.5 L 120.5 575 L 126 579.5 L 126.5 582 L 133 587.5 L 136.5 593 L 152 607.5 L 152.5 609 Q 157.9 610.1 160 614.5 L 160.5 616 L 162.5 616 L 166 619.5 L 166.5 621 Q 169.5 620.5 170 622.5 L 170.5 624 L 172.5 624 L 182 630.5 L 182.5 632 Q 183.5 630 184.5 632 L 194.5 637 L 204 639.5 L 0.5 640 L 0.5 307 Z " /><path fill="rgb(0,0,0)" stroke="rgb(0,0,0)" stroke-width="1" opacity="0.00392156862745098" d="M 294.5 592 L 294.5 594 L 296 594.5 L 296 596.5 L 299 600.5 L 298.5 602 L 300 602.5 L 300.5 605 L 303 606.5 L 302.5 608 L 307 611.5 L 311.5 617 L 320.5 624 L 327 627.5 L 327.5 629 L 329 628.5 L 329.5 630 L 331 629.5 L 331.5 631 Q 332.5 629 333.5 631 L 346.5 635 L 348.5 637 L 350.5 636 Q 352 639.5 353.5 637 L 355.5 637 L 358.5 639 L 361.5 638 L 364 639.5 L 221.5 640 L 221.5 639 L 229.5 639 L 232.5 638 Q 233.5 640 234.5 638 L 245.5 635 L 246.5 636 L 248.5 634 L 249.5 635 L 251.5 633 L 253 633.5 L 253.5 632 L 255.5 632 L 258.5 630 L 260 630.5 L 260.5 629 L 262 629.5 L 262.5 628 L 265.5 627 L 270.5 623 L 273 622.5 L 277.5 617 L 280 615.5 L 286.5 607 L 288 606.5 Q 285.5 605 289 603.5 L 289.5 602 L 291 601.5 L 290.5 600 L 292 599.5 Q 290 598.5 292 597.5 L 293 593.5 L 294.5 592 Z " /><path fill="rgb(0,0,0)" stroke="rgb(0,0,0)" stroke-width="1" opacity="0.00392156862745098" d="M 366.5 639 L 371 639.5 L 366.5 640 L 366.5 639 Z " /><path fill="rgb(0,0,0)" stroke="rgb(0,0,0)" stroke-width="1" opacity="0.00392156862745098" d="M 387.5 639 L 390 639.5 L 387.5 640 L 387.5 639 Z " /><path fill="rgb(3,0,0)" stroke="rgb(3,0,0)" stroke-width="1" opacity="0.996078431372549" d="M 202.5 0 L 205 0.5 L 202.5 1 L 202.5 0 Z " /><path fill="rgb(3,0,0)" stroke="rgb(3,0,0)" stroke-width="1" opacity="0.996078431372549" d="M 188.5 8 L 189 11.5 L 188 11.5 L 188.5 8 Z " /><path fill="rgb(3,0,0)" stroke="rgb(3,0,0)" stroke-width="1" opacity="0.996078431372549" d="M 188.5 20 L 189 25.5 L 188 25.5 L 188.5 20 Z " /><path fill="rgb(3,0,0)" stroke="rgb(3,0,0)" stroke-width="1" opacity="0.996078431372549" d="M 256.5 22 L 259 24.5 L 258.5 25 L 256 22.5 L 256.5 22 Z " /><path fill="rgb(3,0,0)" stroke="rgb(3,0,0)" stroke-width="1" opacity="0.996078431372549" d="M 260.5 25 L 265 29.5 L 264.5 30 L 260 25.5 L 260.5 25 Z " /><path fill="rgb(3,0,0)" stroke="rgb(3,0,0)" stroke-width="1" opacity="0.996078431372549" d="M 215.5 26 L 222 32.5 L 221.5 33 L 215 26.5 L 215.5 26 Z " /><path fill="rgb(3,0,0)" stroke="rgb(3,0,0)" stroke-width="1" opacity="0.996078431372549" d="M 189.5 31 L 190 33.5 L 189 33.5 L 189.5 31 Z " /><path fill="rgb(3,0,0)" stroke="rgb(3,0,0)" stroke-width="1" opacity="0.996078431372549" d="M 268.5 33 L 271 35.5 L 270.5 36 L 268 33.5 L 268.5 33 Z " /><path fill="rgb(3,0,0)" stroke="rgb(3,0,0)" stroke-width="1" opacity="0.996078431372549" d="M 343.5 41 L 352.5 42 L 361 48.5 L 365 55.5 L 365 57.5 L 318 115.5 L 319.5 115 L 333.5 109 L 338.5 108 L 341.5 106 L 347.5 104 L 350.5 104 L 354.5 102 L 365.5 100 L 366.5 99 L 376.5 98 L 377.5 97 L 383.5 97 L 384.5 96 L 393.5 96 L 394.5 95 L 418.5 95 L 419.5 96 L 428.5 96 L 429.5 97 L 441.5 98 L 442.5 99 L 457.5 102 L 469.5 106 L 477.5 110 L 479.5 110 L 495.5 118 L 514.5 130 L 526.5 139 Q 542.3 151.7 556 166.5 Q 573.6 184.9 585 209.5 L 585 211.5 L 587 214.5 L 587 216.5 L 589 219.5 L 592 228.5 L 592 231.5 L 595 240.5 L 595 244.5 L 596 245.5 L 597 257.5 L 596 257.5 L 596 251.5 L 595 250.5 L 595 245.5 L 594 244.5 L 594 240.5 L 593 239.5 L 592 232.5 L 587 217.5 L 585 214.5 L 585 212.5 L 576 194.5 Q 559.3 168.7 536.5 149 L 519.5 135 L 506.5 126 L 496.5 120 L 471.5 108 L 453.5 102 L 445.5 101 L 440.5 99 L 435.5 99 L 434.5 98 L 428.5 98 L 427.5 97 L 416.5 97 L 415.5 96 L 397.5 96 L 396.5 97 L 385.5 97 L 384.5 98 L 372.5 99 L 371.5 100 L 367.5 100 L 366.5 101 L 351.5 104 L 336.5 109 L 333.5 111 L 331.5 111 L 312 120.5 L 315 129.5 L 315 143.5 L 314 144.5 L 313 151.5 L 308 161.5 Q 301.5 172.5 291.5 180 L 276.5 190 L 256.5 198 L 253.5 198 L 248.5 200 L 243.5 200 L 242.5 201 L 234.5 201 L 233.5 202 L 221.5 202 L 220.5 201 L 213.5 201 Q 212.5 199 208.5 200 L 197.5 196 L 189.5 203 L 176.5 210 L 170.5 212 L 167.5 212 L 166.5 213 L 160.5 213 L 159.5 214 L 149.5 214 L 148.5 213 L 142.5 213 L 141.5 212 L 135.5 211 L 131.5 215 L 122.5 221 L 103.5 229 L 100.5 229 L 95.5 231 L 91.5 231 L 90.5 232 L 84.5 232 L 83.5 233 L 62.5 233 L 61.5 232 L 50.5 231 L 49.5 230 L 46.5 230 L 37.5 227 Q 24.8 221.7 15.5 213 L 13 217.5 L 8 232.5 L 8 235.5 L 6 240.5 L 6 244.5 L 5 245.5 L 5 249.5 L 4 250.5 L 4 255.5 L 3 256.5 L 3 264.5 L 2 265.5 L 2 307.5 L 3 308.5 L 3 317.5 L 4 318.5 L 4 325.5 L 5 326.5 L 6 337.5 L 7 338.5 L 9 352.5 L 10 353.5 L 13 368.5 L 16 375.5 L 16 378.5 L 25 405.5 L 27 408.5 L 28 413.5 L 30 416.5 L 34 428.5 L 58 478.5 L 60 480.5 L 63 487.5 L 81 517.5 L 100 545.5 L 126 578.5 L 156.5 610 L 172.5 623 L 188.5 633 L 190.5 633 L 195.5 636 L 201.5 638 L 226.5 638 L 227.5 637 L 238.5 636 L 239.5 635 L 242.5 635 L 254.5 631 Q 269.7 624.7 280 613.5 L 288 602.5 L 291 596.5 L 292 591.5 L 294.5 588 L 299 599.5 Q 305.3 610.3 314.5 618 L 329.5 628 L 344.5 634 L 347.5 634 L 352.5 636 L 356.5 636 L 357.5 637 L 362.5 637 L 363.5 638 L 385.5 639 L 386.5 638 L 390.5 638 L 399.5 635 L 418.5 624 Q 442.4 606.4 462 584.5 L 485 557.5 L 505 530.5 L 521 506.5 L 536 481.5 L 539 474.5 L 541 472.5 L 561 432.5 L 561 430.5 L 564 425.5 L 564 423.5 L 567 418.5 L 567 416.5 L 573 403.5 L 574 398.5 L 576 395.5 L 583 374.5 L 583 371.5 L 585 367.5 L 585 364.5 L 587 360.5 L 587 357.5 L 590 348.5 L 590 344.5 L 591 343.5 L 592 335.5 L 593 334.5 L 593 329.5 L 594 328.5 L 594 323.5 L 595 322.5 L 596 307.5 L 597 306.5 L 597 294.5 L 598 293.5 L 598 271.5 L 597 270.5 L 597 259.5 L 598 259.5 L 598 269.5 L 599 270.5 L 599 295.5 L 598 296.5 L 598 308.5 L 597 309.5 L 597 316.5 L 596 317.5 L 596 323.5 L 595 324.5 L 594 335.5 L 593 336.5 L 593 340.5 L 591 345.5 L 591 349.5 L 590 350.5 L 588 361.5 L 583 375.5 L 583 378.5 L 578 393.5 L 576 396.5 L 575 401.5 L 573 404.5 L 572 409.5 L 570 412.5 L 570 414.5 L 560 435.5 L 560 437.5 L 544 469.5 L 542 471.5 L 538 480.5 L 523 505.5 L 519 510.5 L 518 513.5 L 495 546.5 L 469 578.5 L 443.5 605 L 420.5 624 L 411.5 630 L 397.5 637 L 391.5 639 L 387.5 639 L 386.5 640 L 371.5 640 L 370.5 639 L 362.5 639 L 361.5 638 L 351.5 637 L 350.5 636 L 347.5 636 L 335.5 632 L 320.5 624 L 307 612.5 L 300 603.5 L 294.5 592 L 293 593.5 L 293 595.5 L 289 603.5 L 278.5 617 L 265.5 627 L 247.5 635 L 244.5 635 L 235.5 638 L 230.5 638 L 229.5 639 L 221.5 639 L 220.5 640 L 204.5 640 L 189.5 635 L 171.5 624 Q 150.5 608 133 588.5 L 108 558.5 L 80 518.5 L 62 488.5 L 59 481.5 L 57 479.5 L 33 429.5 L 33 427.5 L 25 409.5 L 23 401.5 L 21 398.5 L 17 386.5 L 17 383.5 L 14 376.5 L 14 373.5 L 12 369.5 L 12 366.5 L 11 365.5 L 11 362.5 L 8 353.5 L 8 349.5 L 7 348.5 L 7 344.5 L 5 338.5 L 5 333.5 L 4 332.5 L 4 327.5 L 3 326.5 L 2 311.5 L 1 310.5 L 1 296.5 L 0 295.5 L 0 277.5 L 1 276.5 L 1 263.5 L 2 262.5 L 2 255.5 L 3 254.5 L 3 249.5 L 5 243.5 L 5 239.5 L 6 238.5 L 7 231.5 L 12 216.5 L 14 213.5 L 14 211.5 Q 6.6 204.4 3 193.5 Q 3.7 190.3 2 189.5 L 2 174.5 L 3 173.5 L 4 167.5 L 8 159.5 L 18.5 147 L 30.5 138 L 47.5 130 L 53.5 129 L 57.5 127 L 67.5 126 L 68.5 125 L 93.5 125 L 105.5 117 L 121.5 109 L 123.5 109 L 126.5 107 L 128.5 107 L 131.5 105 L 140.5 102 L 143.5 102 L 151.5 99 L 160.5 98 L 161.5 97 L 166.5 97 L 167.5 96 L 176.5 96 L 177.5 95 L 200.5 95 L 201.5 96 L 210.5 96 L 211.5 97 L 217.5 97 L 221 95.5 L 221.5 94 L 224.5 95 L 225.5 94 L 228.5 94 L 233.5 92 L 238.5 92 L 239.5 91 L 256.5 90 L 258.5 91 Q 259.5 89 260.5 91 L 272.5 92 L 273.5 93 L 280.5 94 L 288.5 98 L 309 69.5 L 330.5 47 L 336.5 43 L 342.5 42 L 343.5 41 Z M 340 43 L 332 48 L 310 71 L 290 99 L 301 105 Q 307 110 311 119 L 313 119 L 364 57 L 361 51 L 357 46 L 351 43 L 340 43 Z M 241 92 L 240 93 L 235 93 L 234 94 L 231 94 L 230 95 L 220 97 L 201 106 Q 189 113 181 123 L 191 128 Q 199 135 205 145 L 208 152 L 209 160 L 210 161 L 210 171 Q 208 172 209 176 L 204 188 L 200 193 L 199 196 L 210 199 L 215 199 L 216 200 L 241 200 L 242 199 L 252 198 L 256 196 L 259 196 L 265 194 L 270 191 L 272 191 L 290 180 Q 300 172 307 161 L 311 153 L 313 147 L 313 143 L 314 142 L 314 132 Q 312 131 313 127 L 308 116 L 305 112 L 293 101 L 276 94 L 267 93 L 266 92 L 241 92 Z M 181 96 L 180 97 L 170 97 L 169 98 L 163 98 L 157 100 L 153 100 L 152 101 L 145 102 L 130 107 L 105 119 L 95 126 L 106 127 L 114 130 L 117 130 L 120 127 L 131 121 L 140 118 L 144 118 L 145 117 L 164 117 L 165 118 L 169 118 L 170 119 L 176 120 L 179 122 L 193 110 L 202 104 L 210 100 L 212 100 L 213 99 L 209 97 L 198 97 L 197 96 L 181 96 Z M 147 118 L 146 119 L 141 119 L 132 122 L 118 130 L 110 138 L 104 147 L 104 149 L 101 155 L 101 159 L 100 160 L 100 171 Q 102 172 101 176 L 103 182 L 108 191 L 120 202 L 133 209 L 143 211 L 144 212 L 154 212 L 155 213 L 156 212 L 165 212 Q 166 210 170 211 L 179 208 L 192 200 Q 199 194 203 187 L 208 174 L 208 157 L 204 146 L 196 135 L 184 125 L 172 120 L 164 119 L 163 118 L 147 118 Z M 73 126 L 72 127 L 66 127 L 65 128 L 56 129 L 44 133 L 32 139 L 20 148 L 11 158 L 8 163 L 3 178 L 3 187 Q 5 187 4 192 L 8 202 L 13 209 L 24 218 L 37 225 L 39 225 L 45 228 L 52 229 L 53 230 Q 56 229 58 231 L 66 231 L 67 232 L 80 232 L 81 231 L 89 231 L 90 230 L 94 230 L 95 229 L 103 228 L 122 220 L 134 211 L 122 205 L 118 202 L 105 189 L 101 181 L 100 175 L 99 174 L 99 158 L 100 157 L 100 154 L 102 148 L 109 137 L 114 132 L 104 128 L 93 127 L 92 126 L 73 126 Z " /><path fill="rgb(3,0,0)" stroke="rgb(3,0,0)" stroke-width="1" opacity="0.996078431372549" d="M 339.5 45 L 340 47.5 L 339 47.5 L 339.5 45 Z " /><path fill="rgb(3,0,0)" stroke="rgb(3,0,0)" stroke-width="1" opacity="0.996078431372549" d="M 340.5 49 Q 341.9 54 346 56.5 L 345.5 57 L 341 52.5 L 340.5 49 Z " /><path fill="rgb(3,0,0)" stroke="rgb(3,0,0)" stroke-width="1" opacity="0.996078431372549" d="M 278.5 57 L 279 59.5 L 278 59.5 L 278.5 57 Z " /><path fill="rgb(3,0,0)" stroke="rgb(3,0,0)" stroke-width="1" opacity="0.996078431372549" d="M 349.5 58 L 352 58.5 L 349.5 59 L 349.5 58 Z " /><path fill="rgb(3,0,0)" stroke="rgb(3,0,0)" stroke-width="1" opacity="0.996078431372549" d="M 357.5 58 L 361 58.5 L 357.5 59 L 357.5 58 Z " /><path fill="rgb(3,0,0)" stroke="rgb(3,0,0)" stroke-width="1" opacity="0.996078431372549" d="M 279.5 65 L 280 73.5 L 279 73.5 L 279.5 65 Z " /><path fill="rgb(3,0,0)" stroke="rgb(3,0,0)" stroke-width="1" opacity="0.996078431372549" d="M 251.5 75 L 253 77.5 Q 252 79 251 76.5 L 251.5 75 Z " /><path fill="rgb(3,0,0)" stroke="rgb(3,0,0)" stroke-width="1" opacity="0.996078431372549" d="M 201.5 79 L 207 84.5 L 206.5 85 L 201 79.5 L 201.5 79 Z " /><path fill="rgb(3,0,0)" stroke="rgb(3,0,0)" stroke-width="1" opacity="0.996078431372549" d="M 279.5 80 L 280 89.5 L 279 89.5 L 279.5 80 Z " /><path fill="rgb(3,0,0)" stroke="rgb(3,0,0)" stroke-width="1" opacity="0.996078431372549" d="M 378.5 226 L 389.5 227 L 395.5 229 Q 406 234 413 242.5 L 420 252.5 L 425 262.5 L 428 271.5 L 428 274.5 L 430 279.5 L 430 284.5 L 431 285.5 L 431 312.5 L 430 313.5 Q 431 319 429 321.5 L 429.5 322 L 443.5 308 L 448 312.5 L 442.5 319 L 439 321.5 L 439.5 323 L 455.5 310 L 459.5 308 L 463 312.5 L 418 347.5 L 416 351.5 L 405.5 362 L 399.5 366 L 391.5 369 Q 387.5 368 386.5 370 L 378.5 370 L 363.5 365 L 351 354.5 L 342 341.5 L 335 323.5 L 334 315.5 L 333 314.5 L 333 308.5 L 332 307.5 L 332 285.5 L 333 284.5 L 334 274.5 L 335 273.5 L 335 270.5 L 338 261.5 L 346 246.5 L 355.5 236 L 366.5 229 L 372.5 227 L 377.5 227 L 378.5 226 Z M 375 233 L 367 236 L 361 240 Q 350 249 344 264 L 341 273 L 341 276 L 340 277 Q 341 280 339 282 L 339 289 L 338 290 L 338 305 L 339 306 L 339 313 L 340 314 L 341 322 L 344 331 L 350 343 L 356 351 L 361 355 L 370 361 L 376 363 L 382 363 L 383 364 L 384 363 L 390 363 L 393 362 L 402 357 Q 410 351 415 342 L 421 329 L 421 326 L 423 322 L 423 318 L 424 317 L 424 312 L 425 311 L 425 288 L 424 287 L 424 282 L 422 277 L 422 274 L 415 257 L 409 248 Q 403 240 394 235 L 388 233 L 375 233 Z " /><path fill="rgb(3,0,0)" stroke="rgb(3,0,0)" stroke-width="1" opacity="0.996078431372549" d="M 198.5 229 L 207.5 229 L 208.5 230 L 215.5 231 Q 228.1 236.4 236 246.5 L 241 253.5 L 247 265.5 L 250 274.5 L 251 281.5 L 252 282.5 Q 250.7 287.3 253 288.5 L 253 315.5 L 252 316.5 L 252 321.5 L 251 322.5 L 250 329.5 L 243 346.5 L 237 355.5 L 228.5 364 L 218.5 370 L 212.5 372 L 206.5 372 Q 205.8 373.8 202.5 373 L 201.5 372 L 192.5 371 L 184.5 367 L 174 358.5 L 168.5 351 L 166.5 351 L 117 317.5 L 120.5 312 L 122.5 313 L 122 311.5 L 125.5 306 L 131.5 311 L 133.5 311 Q 135.5 307 137.5 311 L 156.5 327 L 157 323.5 L 156 322.5 Q 156.8 319.3 155 318.5 L 155 312.5 L 154 311.5 L 154 287.5 L 155 286.5 L 155 281.5 L 156 280.5 L 157 272.5 L 164 255.5 L 170 246.5 L 179.5 237 L 190.5 231 L 197.5 230 L 198.5 229 Z M 202 235 L 201 236 L 196 236 L 193 237 L 184 242 L 175 251 L 168 262 L 168 264 L 163 275 L 162 283 L 161 284 L 161 291 L 160 292 L 160 309 L 161 310 L 161 316 L 162 317 L 163 325 L 166 334 L 172 346 L 179 355 L 189 362 L 199 366 L 211 366 L 219 363 L 225 359 L 232 352 L 240 339 L 240 337 L 244 328 L 245 321 L 246 320 L 246 314 L 247 313 L 247 292 L 246 291 L 246 285 L 244 280 L 244 277 L 241 268 L 236 258 L 231 251 L 220 240 L 211 236 L 202 235 Z M 124 313 Q 122 314 125 315 L 126 315 L 124 313 Z " /><path fill="rgb(3,0,0)" stroke="rgb(3,0,0)" stroke-width="1" opacity="0.996078431372549" d="M 375.5 251 L 382.5 251 Q 383.3 252.8 386.5 252 Q 394.9 255.1 400 261.5 L 405 268.5 L 410 280.5 L 411 289.5 L 412 290.5 L 412 308.5 L 411 309.5 L 411 314.5 L 407 326.5 L 403 333.5 L 396.5 341 L 388.5 346 L 382.5 347 L 381.5 348 L 376.5 348 Q 375.5 346 371.5 347 L 365.5 344 L 358 337.5 L 353 330.5 L 348 318.5 L 347 310.5 L 346 309.5 L 346 289.5 L 347 288.5 L 348 280.5 L 353 268.5 L 357 262.5 L 362.5 257 L 371.5 252 Q 374.8 252.8 375.5 251 Z " /><path fill="rgb(3,0,0)" stroke="rgb(3,0,0)" stroke-width="1" opacity="0.996078431372549" d="M 203.5 254 L 212.5 254 L 215.5 255 Q 223.9 258.1 229 264.5 L 232 268.5 L 239 284.5 Q 238.3 287.8 240 288.5 L 240 294.5 L 241 295.5 L 241 309.5 L 240 310.5 L 240 315.5 L 239 316.5 L 238 323.5 L 233 334.5 L 222.5 346 L 213.5 350 L 201.5 350 L 194.5 347 L 186 339.5 L 179 327.5 L 176 318.5 Q 177 314.5 175 313.5 L 175 303.5 L 174 301.5 L 175 300.5 L 175 290.5 L 176 289.5 L 177 282.5 L 180 276.5 L 180 274.5 L 184 267.5 L 193.5 258 L 203.5 254 Z " /><path fill="rgb(3,0,0)" stroke="rgb(3,0,0)" stroke-width="1" opacity="0.996078431372549" d="M 383.5 429 L 386 429.5 L 386 431.5 L 383 436.5 L 383 438.5 L 378 448.5 L 378 450.5 L 370 466.5 L 367.5 469 L 346.5 483 L 330.5 496 L 326.5 496 L 325.5 495 L 297.5 494 L 296.5 493 L 273.5 493 L 263 482.5 L 239 450.5 L 243.5 450 L 244.5 449 L 248.5 449 L 249.5 448 L 253.5 448 L 254.5 447 L 264.5 446 L 265.5 445 L 269.5 445 L 270.5 444 L 274.5 444 L 275.5 443 L 279.5 443 L 280.5 442 L 284.5 442 L 285.5 441 L 290.5 441 L 291.5 440 L 295.5 440 L 296.5 439 L 300.5 439 L 301.5 438 L 305.5 438 L 306.5 437 L 310.5 437 L 311.5 436 L 317.5 435 L 318.5 436 L 324.5 436 L 325.5 435 L 335.5 435 L 336.5 434 L 355.5 433 L 356.5 432 L 364.5 432 L 365.5 431 L 373.5 431 L 374.5 430 L 382.5 430 L 383.5 429 Z " /><path fill="rgb(6,57,31)" stroke="rgb(6,57,31)" stroke-width="1" opacity="0.984313725490196" d="M 196.5 0 L 202 0.5 L 196.5 1 L 196.5 0 Z " /><path fill="rgb(6,57,31)" stroke="rgb(6,57,31)" stroke-width="1" opacity="0.984313725490196" d="M 188.5 12 L 189 19.5 L 188 19.5 L 188.5 12 Z " /><path fill="rgb(6,57,31)" stroke="rgb(6,57,31)" stroke-width="1" opacity="0.984313725490196" d="M 225.5 15 L 227 15.5 L 226.5 37 L 224.5 37 L 220 32.5 L 221.5 33 L 224 34.5 L 224.5 36 L 226 35.5 Q 224 34.5 225 30.5 L 226 29.5 L 226 20.5 Q 223.6 19.1 225.5 15 Z " /><path fill="rgb(6,57,31)" stroke="rgb(6,57,31)" stroke-width="1" opacity="0.984313725490196" d="M 209.5 22 L 211 22.5 L 210.5 24 Q 208 23 209.5 22 Z " /><path fill="rgb(6,57,31)" stroke="rgb(6,57,31)" stroke-width="1" opacity="0.984313725490196" d="M 213.5 24 L 215 26.5 Q 214 28 213 25.5 L 213.5 24 Z " /><path fill="rgb(6,57,31)" stroke="rgb(6,57,31)" stroke-width="1" opacity="0.984313725490196" d="M 189.5 27 L 190 30.5 L 189 30.5 L 189.5 27 Z " /><path fill="rgb(6,57,31)" stroke="rgb(6,57,31)" stroke-width="1" opacity="0.984313725490196" d="M 265.5 30 L 268 32.5 L 267.5 33 L 265 30.5 L 265.5 30 Z " /><path fill="rgb(6,57,31)" stroke="rgb(6,57,31)" stroke-width="1" opacity="0.984313725490196" d="M 190.5 35 L 191 37.5 L 190 37.5 L 190.5 35 Z " /><path fill="rgb(6,57,31)" stroke="rgb(6,57,31)" stroke-width="1" opacity="0.984313725490196" d="M 226.5 39 L 229 40.5 L 227.5 41 Q 225 40 226.5 39 Z " /><path fill="rgb(6,57,31)" stroke="rgb(6,57,31)" stroke-width="1" opacity="0.984313725490196" d="M 191.5 41 L 192 43.5 L 191 43.5 L 191.5 41 Z " /><path fill="rgb(6,57,31)" stroke="rgb(6,57,31)" stroke-width="1" opacity="0.984313725490196" d="M 205.5 43 L 217 46.5 L 216.5 48 L 207.5 44 L 205.5 44 L 205.5 43 Z " /><path fill="rgb(6,57,31)" stroke="rgb(6,57,31)" stroke-width="1" opacity="0.984313725490196" d="M 229.5 43 L 232 44.5 L 230.5 45 Q 228 44 229.5 43 Z " /><path fill="rgb(6,57,31)" stroke="rgb(6,57,31)" stroke-width="1" opacity="0.984313725490196" d="M 251.5 43 L 252 74.5 L 250.5 75 Q 248 74 249.5 73 L 251 73.5 L 251.5 43 Z " /><path fill="rgb(6,57,31)" stroke="rgb(6,57,31)" stroke-width="1" opacity="0.984313725490196" d="M 218.5 47 L 231 51.5 L 230.5 53 L 224.5 50 L 219.5 49 Q 217 48 218.5 47 Z " /><path fill="rgb(6,57,31)" stroke="rgb(6,57,31)" stroke-width="1" opacity="0.984313725490196" d="M 234.5 50 L 236 50.5 L 238 53.5 Q 236.5 56.5 235 53.5 L 236 52.5 L 234 50.5 L 234.5 50 Z " /><path fill="rgb(6,57,31)" stroke="rgb(6,57,31)" stroke-width="1" opacity="0.984313725490196" d="M 232.5 52 L 234 52.5 L 233.5 54 Q 231 53 232.5 52 Z " /><path fill="rgb(6,57,31)" stroke="rgb(6,57,31)" stroke-width="1" opacity="0.984313725490196" d="M 239.5 56 Q 242 57 240.5 58 L 239 57.5 L 239.5 56 Z " /><path fill="rgb(6,57,31)" stroke="rgb(6,57,31)" stroke-width="1" opacity="0.984313725490196" d="M 240.5 59 L 242 59.5 L 241.5 61 Q 239 60 240.5 59 Z " /><path fill="rgb(6,57,31)" stroke="rgb(6,57,31)" stroke-width="1" opacity="0.984313725490196" d="M 278.5 60 L 279 62.5 L 278 62.5 L 278.5 60 Z " /><path fill="rgb(6,57,31)" stroke="rgb(6,57,31)" stroke-width="1" opacity="0.984313725490196" d="M 246.5 67 Q 249 68 247.5 69 L 246 68.5 L 246.5 67 Z " /><path fill="rgb(6,57,31)" stroke="rgb(6,57,31)" stroke-width="1" opacity="0.984313725490196" d="M 279.5 74 L 280 79.5 L 279 79.5 L 279.5 74 Z " /><path fill="rgb(6,57,31)" stroke="rgb(6,57,31)" stroke-width="1" opacity="0.984313725490196" d="M 253.5 80 L 255 80.5 L 254.5 82 Q 252 81 253.5 80 Z " /><path fill="rgb(6,57,31)" stroke="rgb(6,57,31)" stroke-width="1" opacity="0.984313725490196" d="M 258.5 87 L 260.5 90 L 263 90.5 L 260.5 91 Q 259.5 89 258.5 91 L 257 90.5 L 259 89.5 Q 257.3 88.8 258.5 87 Z " /><path fill="rgb(6,57,31)" stroke="rgb(6,57,31)" stroke-width="1" opacity="0.984313725490196" d="M 244.5 90 L 249 90.5 L 244.5 91 L 244.5 90 Z " /><path fill="rgb(6,57,31)" stroke="rgb(6,57,31)" stroke-width="1" opacity="0.984313725490196" d="M 236.5 91 L 239 91.5 L 236.5 92 L 236.5 91 Z " /><path fill="rgb(6,57,31)" stroke="rgb(6,57,31)" stroke-width="1" opacity="0.984313725490196" d="M 267.5 91 L 270 91.5 L 267.5 92 L 267.5 91 Z " /><path fill="rgb(6,57,31)" stroke="rgb(6,57,31)" stroke-width="1" opacity="0.984313725490196" d="M 201.5 235 L 205 235.5 L 201.5 236 L 201.5 235 Z " /><path fill="rgb(6,57,31)" stroke="rgb(6,57,31)" stroke-width="1" opacity="0.984313725490196" d="M 174.5 298 L 175 300.5 L 174 300.5 L 174.5 298 Z " /><path fill="rgb(6,57,31)" stroke="rgb(6,57,31)" stroke-width="1" opacity="0.984313725490196" d="M 174.5 303 L 175 305.5 L 174 305.5 L 174.5 303 Z " /><path fill="rgb(6,57,31)" stroke="rgb(6,57,31)" stroke-width="1" opacity="0.984313725490196" d="M 206.5 350 L 210 350.5 L 206.5 351 L 206.5 350 Z " /><path fill="rgb(0,150,70)" stroke="rgb(0,150,70)" stroke-width="1" opacity="0.996078431372549" d="M 194.5 1 L 206 1.5 L 206.5 3 L 210.5 2 L 211.5 4 L 214.5 3 L 215.5 5 L 217.5 4 L 218.5 6 L 220.5 5 L 221.5 7 L 223.5 6 L 224.5 8 L 226.5 7 L 229 8.5 L 229.5 10 L 231 9.5 L 231.5 11 L 233.5 10 L 236 11.5 L 236.5 13 L 238 12.5 L 238.5 14 L 240 13.5 L 240.5 15 L 242 14.5 L 242.5 16 Q 243.5 14 244.5 16 L 247 17.5 L 247.5 19 L 249 18.5 L 249.5 20 Q 250.8 17.8 252 20.5 L 252.5 22 Q 253.8 19.8 255 22.5 L 255.5 24 L 256.5 23 L 259 25.5 L 259.5 27 L 260.5 26 L 270 35.5 Q 267.8 36.8 270.5 38 L 272 38.5 L 271.5 40 L 273 40.5 L 272.5 42 L 274 42.5 L 273.5 44 L 275 44.5 L 274 46.5 L 276 47.5 L 275 50.5 L 277 51.5 L 276 55.5 L 278 56.5 L 277 62.5 L 279 63.5 L 278.5 93 Q 277.5 91 276.5 93 L 274 92.5 L 273.5 91 L 270.5 92 Q 269 88.5 267.5 91 L 263.5 91 Q 263 88.5 259.5 89 L 258 89.5 L 260 87.5 L 259.5 87 L 257 88.5 L 256.5 90 L 249.5 90 Q 248.8 88.3 245.5 89 Q 244.5 92 239.5 91 L 237.5 90 Q 237 92.5 233.5 92 L 231.5 91 L 230.5 93 L 227.5 92 L 226.5 94 L 222.5 93 Q 221.5 95 220.5 93 L 218 91.5 L 217.5 90 Q 216.3 92.3 215 89.5 L 214.5 88 Q 213.2 90.2 212 87.5 L 211.5 86 Q 210.2 88.3 209 85.5 L 207.5 83 L 206.5 84 L 202 79.5 Q 204.3 78.3 201.5 77 L 200 76.5 L 201 74.5 L 199 73.5 L 200 71.5 L 198 70.5 L 199 68.5 L 197 67.5 L 198 64.5 L 196 63.5 L 197 60.5 L 195 59.5 L 196 56.5 L 194 55.5 L 195 52.5 L 193 51.5 L 194 47.5 L 192 46.5 L 193 41.5 L 191 40.5 L 192 35.5 L 190 34.5 L 191 27.5 L 189 26.5 Q 187.8 21.7 190 20.5 L 190 11.5 Q 188.3 10.8 189 7.5 L 191 6.5 L 190 4.5 L 192 3.5 L 192.5 2 L 194 2.5 L 194.5 1 Z M 226 15 L 224 17 L 226 21 L 226 30 L 225 33 L 224 34 L 221 31 L 219 33 L 223 36 L 225 35 L 226 36 L 225 36 Q 223 37 226 38 L 228 36 L 228 17 L 226 15 Z M 210 22 L 211 25 L 212 23 L 210 22 Z M 214 23 L 212 25 L 213 27 Q 215 30 216 27 L 214 23 Z M 227 38 L 225 40 L 228 41 Q 229 43 230 41 L 227 38 Z M 208 42 L 205 44 L 206 45 L 208 44 L 208 42 Z M 230 42 L 228 44 L 231 45 Q 232 47 233 45 L 230 42 Z M 211 43 L 209 44 L 208 46 L 210 45 L 211 47 L 213 46 L 214 48 L 216 47 L 217 49 L 219 48 L 219 47 L 218 47 L 217 45 L 215 46 L 214 44 L 212 45 L 211 43 Z M 252 43 L 250 45 L 250 70 L 249 70 L 249 69 L 248 67 L 245 69 L 247 69 L 246 71 L 248 71 Q 249 73 250 71 L 249 74 L 251 73 L 251 77 L 252 77 L 252 43 Z M 233 46 L 231 48 L 233 48 Q 234 50 235 48 L 233 46 Z M 222 47 L 219 49 L 220 50 L 222 49 L 222 47 Z M 225 48 L 222 50 L 223 51 L 225 50 L 225 48 Z M 228 49 L 226 50 L 225 52 L 227 51 L 228 53 L 230 52 L 231 54 L 233 53 L 234 55 L 236 54 L 236 56 L 237 56 L 239 54 L 238 53 Q 237 51 236 53 L 234 53 L 237 51 L 235 49 L 233 52 L 232 52 L 231 50 L 229 51 L 228 49 Z M 240 56 L 238 58 L 240 58 L 239 60 L 241 61 L 243 60 L 242 59 L 242 58 L 240 56 Z M 243 61 L 241 63 L 243 63 Q 244 65 245 63 L 243 61 Z M 245 64 L 243 66 L 245 66 Q 246 68 247 66 L 245 64 Z M 253 77 L 251 79 L 253 79 L 252 81 L 254 81 Q 255 83 256 81 L 255 80 L 255 79 L 253 77 Z M 256 82 L 254 84 L 256 84 L 255 86 L 257 86 Q 258 88 259 86 L 258 85 L 258 84 L 256 82 Z " /><path fill="rgb(142,4,4)" stroke="rgb(142,4,4)" stroke-width="1" opacity="0.996078431372549" d="M 240.5 92 L 265.5 92 L 266.5 93 L 275.5 94 L 292.5 101 L 305 111.5 L 308 115.5 L 313 126.5 Q 312 130.5 314 131.5 L 314 141.5 L 313 142.5 L 313 146.5 L 311 152.5 L 307 160.5 Q 300.3 171.8 290 179.5 Q 292.3 180.8 289.5 182 L 289.5 180 L 286 182.5 Q 288.3 183.7 285.5 185 L 285.5 183 L 283 184.5 Q 285.3 185.8 282.5 187 L 282.5 185 L 264.5 194 L 258.5 196 L 255.5 196 L 251.5 198 L 241.5 199 L 240.5 200 L 215.5 200 L 214.5 199 L 209.5 199 L 199 195.5 L 200 192.5 L 204 187.5 L 209 175.5 Q 208 171.5 210 170.5 L 210 160.5 L 209 159.5 L 208 151.5 L 205 144.5 L 196.5 134 Q 193.3 135.8 197 137.5 L 197.5 139 Q 198.8 136.8 200 139.5 Q 198 140.5 200 141.5 L 200.5 143 L 202 142.5 L 201.5 144 L 204 145.5 L 205 148.5 L 204 150.5 L 206 150.5 L 205 153.5 L 207 153.5 L 206 158.5 L 207 158.5 L 207.5 156 L 208 159.5 L 207 160.5 L 207 169.5 Q 208.7 170.3 208 173.5 L 207 173.5 L 206.5 172 L 206 175.5 L 207 177.5 L 206 177.5 L 205.5 176 L 205 178.5 L 206 180.5 L 205 180.5 L 204.5 179 L 204 181.5 L 204.5 183 L 203 182.5 L 204 184.5 L 202 184.5 L 203 186.5 L 200 188.5 Q 202.3 189.8 199.5 191 L 198 190.5 L 199 192.5 L 193 198.5 L 194 199.5 L 191.5 202 L 192 200.5 L 190.5 199 L 188 202.5 L 188.5 204 L 185.5 202 L 185.5 204 L 184 203.5 L 183 205.5 L 183.5 207 L 180.5 205 L 181.5 208 L 179.5 207 L 179.5 209 L 175.5 207 L 175.5 209 L 172.5 208 L 172.5 210 L 168.5 209 L 168.5 210 L 170 210.5 L 168.5 211 Q 167.5 209 163.5 210 L 163.5 211 L 165 211.5 L 162.5 212 L 161.5 211 L 147.5 211 Q 146.8 212.8 143.5 212 L 143.5 211 L 146 210.5 L 141.5 210 L 139.5 211 L 139.5 209 L 135.5 210 L 135.5 209 L 137 208.5 L 134.5 208 L 132.5 209 L 132.5 208 L 134 207.5 L 131.5 207 L 130 207.5 L 130.5 206 L 128.5 207 L 128.5 205 L 126.5 206 L 126.5 204 L 124.5 205 L 124.5 203 L 122.5 204 L 121 202.5 L 121.5 201 L 119 202.5 L 121.5 205 L 134 210.5 L 127 216.5 L 127.5 218 L 125.5 217 L 113.5 224 L 111.5 224 L 102.5 228 L 94.5 229 L 93.5 230 L 89.5 230 L 88.5 231 L 80.5 231 L 79.5 232 L 66.5 232 L 65.5 231 L 57.5 231 L 56.5 230 L 52.5 230 L 51.5 229 L 44.5 228 L 26.5 220 L 25 220.5 Q 27.2 219.3 24.5 218 L 23 218.5 L 23.5 220 Q 20.8 218.8 23 217.5 L 19.5 214 L 18 214.5 L 20 216.5 L 19.5 217 L 16 213.5 L 17 212.5 L 13 208.5 L 8 201.5 L 4 191.5 Q 5 187.5 3 186.5 L 3 177.5 L 8 162.5 L 11 157.5 L 19.5 148 L 31.5 139 L 43.5 133 L 55.5 129 L 64.5 128 L 65.5 127 L 71.5 127 L 72.5 126 L 91.5 126 L 92.5 127 L 103.5 128 L 114 131.5 L 109 136.5 L 102 147.5 L 100 153.5 L 100 156.5 L 99 157.5 L 99 173.5 L 100 174.5 L 101 180.5 L 105 188.5 L 107.5 191 L 109 188.5 L 107.5 189 L 106 187.5 L 105 185.5 L 106 183.5 L 104 183.5 L 105 181.5 L 103 181.5 L 104 178.5 L 102 178.5 L 103 174.5 L 102 174.5 L 101.5 176 L 101 173.5 L 102 172.5 L 102 157.5 L 101 154.5 L 102 154.5 L 102.5 156 L 103 153.5 L 102 151.5 L 103 151.5 L 103.5 153 L 104 150.5 L 103.5 149 L 105 149.5 L 104 146.5 L 105.5 145 L 107 145.5 L 106 143.5 L 108 143.5 L 107 141.5 L 108.5 140 L 110 140.5 L 111 138.5 L 110 137.5 L 117 130.5 L 116.5 129 L 119.5 131 L 119 129.5 L 120.5 128 L 122 128.5 L 123 126.5 L 122.5 125 L 125.5 127 L 125.5 125 L 127.5 126 L 127.5 124 L 129.5 125 L 129.5 123 L 131.5 124 L 131.5 122 L 134.5 123 L 134.5 121 L 137.5 122 L 137.5 120 L 141.5 121 L 141.5 120 L 140 119.5 L 142.5 119 L 143.5 120 L 149.5 120 L 149.5 119 L 146 118.5 L 152.5 118 L 154.5 119 L 155.5 118 L 162.5 118 L 162.5 119 L 159 119.5 L 164.5 120 L 167.5 119 L 167.5 120 L 166 120.5 L 169.5 121 L 171.5 120 L 171.5 122 L 174.5 121 L 174.5 123 L 176.5 122 L 176.5 124 L 179.5 123 L 179.5 125 L 181.5 124 L 181.5 126 L 183.5 125 L 185.5 128 L 187 127.5 L 186.5 129 L 188.5 130 L 189.5 129 L 192 131.5 L 193.5 134 L 195 132.5 L 190.5 128 L 181 122.5 Q 189.2 112.7 200.5 106 L 219.5 97 L 229.5 95 L 230.5 94 L 233.5 94 L 234.5 93 L 239.5 93 L 240.5 92 Z M 109 191 L 108 193 L 119 202 L 119 202 L 116 199 L 117 198 L 116 197 L 113 194 L 112 194 L 109 191 Z " /><path fill="rgb(142,4,4)" stroke="rgb(142,4,4)" stroke-width="1" opacity="0.996078431372549" d="M 185.5 96 L 194 96.5 L 185.5 97 L 185.5 96 Z " /><path fill="rgb(142,4,4)" stroke="rgb(142,4,4)" stroke-width="1" opacity="0.996078431372549" d="M 401.5 96 L 412 96.5 L 401.5 97 L 401.5 96 Z " /><path fill="rgb(142,4,4)" stroke="rgb(142,4,4)" stroke-width="1" opacity="0.996078431372549" d="M 206.5 97 L 209 97.5 L 206.5 98 L 206.5 97 Z " /><path fill="rgb(142,4,4)" stroke="rgb(142,4,4)" stroke-width="1" opacity="0.996078431372549" d="M 315.5 134 L 316 138.5 L 315 138.5 L 315.5 134 Z " /><path fill="rgb(142,4,4)" stroke="rgb(142,4,4)" stroke-width="1" opacity="0.996078431372549" d="M 100.5 159 L 101 170.5 L 100 170.5 L 100.5 159 Z " /><path fill="rgb(142,4,4)" stroke="rgb(142,4,4)" stroke-width="1" opacity="0.996078431372549" d="M 300.5 171 L 301 171.5 L 294.5 178 L 294 177.5 L 300.5 171 Z " /><path fill="rgb(142,4,4)" stroke="rgb(142,4,4)" stroke-width="1" opacity="0.996078431372549" d="M 243.5 200 L 246 200.5 L 243.5 201 L 243.5 200 Z " /><path fill="rgb(142,4,4)" stroke="rgb(142,4,4)" stroke-width="1" opacity="0.996078431372549" d="M 217.5 201 L 221 201.5 L 217.5 202 L 217.5 201 Z " /><path fill="rgb(142,4,4)" stroke="rgb(142,4,4)" stroke-width="1" opacity="0.996078431372549" d="M 234.5 201 L 239 201.5 L 234.5 202 L 234.5 201 Z " /><path fill="rgb(142,4,4)" stroke="rgb(142,4,4)" stroke-width="1" opacity="0.996078431372549" d="M 146.5 213 L 149 213.5 L 146.5 214 L 146.5 213 Z " /><path fill="rgb(142,4,4)" stroke="rgb(142,4,4)" stroke-width="1" opacity="0.996078431372549" d="M 160.5 213 L 163 213.5 L 160.5 214 L 160.5 213 Z " /><path fill="rgb(142,4,4)" stroke="rgb(142,4,4)" stroke-width="1" opacity="0.996078431372549" d="M 195.5 229 L 198 229.5 L 195.5 230 L 195.5 229 Z " /><path fill="rgb(142,4,4)" stroke="rgb(142,4,4)" stroke-width="1" opacity="0.996078431372549" d="M 59.5 232 L 62 232.5 L 59.5 233 L 59.5 232 Z " /><path fill="rgb(142,4,4)" stroke="rgb(142,4,4)" stroke-width="1" opacity="0.996078431372549" d="M 84.5 232 L 87 232.5 L 84.5 233 L 84.5 232 Z " /><path fill="rgb(142,4,4)" stroke="rgb(142,4,4)" stroke-width="1" opacity="0.996078431372549" d="M 176.5 239 L 177 239.5 L 172.5 244 L 172 243.5 L 176.5 239 Z " /><path fill="rgb(142,4,4)" stroke="rgb(142,4,4)" stroke-width="1" opacity="0.996078431372549" d="M 230.5 240 L 233 242.5 L 232.5 243 L 230 240.5 L 230.5 240 Z " /><path fill="rgb(142,4,4)" stroke="rgb(142,4,4)" stroke-width="1" opacity="0.996078431372549" d="M 3.5 256 L 4 258.5 L 3 258.5 L 3.5 256 Z " /><path fill="rgb(142,4,4)" stroke="rgb(142,4,4)" stroke-width="1" opacity="0.996078431372549" d="M 2.5 265 L 3 269.5 L 2 269.5 L 2.5 265 Z " /><path fill="rgb(142,4,4)" stroke="rgb(142,4,4)" stroke-width="1" opacity="0.996078431372549" d="M 597.5 281 L 598 283.5 L 597 283.5 L 597.5 281 Z " /><path fill="rgb(142,4,4)" stroke="rgb(142,4,4)" stroke-width="1" opacity="0.996078431372549" d="M 332.5 282 L 333 284.5 L 332 284.5 L 332.5 282 Z " /><path fill="rgb(142,4,4)" stroke="rgb(142,4,4)" stroke-width="1" opacity="0.996078431372549" d="M 430.5 282 L 431 284.5 L 430 284.5 L 430.5 282 Z " /><path fill="rgb(142,4,4)" stroke="rgb(142,4,4)" stroke-width="1" opacity="0.996078431372549" d="M 154.5 284 L 155 286.5 L 154 286.5 L 154.5 284 Z " /><path fill="rgb(142,4,4)" stroke="rgb(142,4,4)" stroke-width="1" opacity="0.996078431372549" d="M 252.5 285 L 253 287.5 L 252 287.5 L 252.5 285 Z " /><path fill="rgb(142,4,4)" stroke="rgb(142,4,4)" stroke-width="1" opacity="0.996078431372549" d="M 431.5 290 L 432 292.5 L 431 292.5 L 431.5 290 Z " /><path fill="rgb(142,4,4)" stroke="rgb(142,4,4)" stroke-width="1" opacity="0.996078431372549" d="M 153.5 294 L 154 304.5 L 153 304.5 L 153.5 294 Z " /><path fill="rgb(142,4,4)" stroke="rgb(142,4,4)" stroke-width="1" opacity="0.996078431372549" d="M 253.5 294 L 254 309.5 L 253 309.5 L 253.5 294 Z " /><path fill="rgb(142,4,4)" stroke="rgb(142,4,4)" stroke-width="1" opacity="0.996078431372549" d="M 331.5 294 L 332 299.5 L 331 299.5 L 331.5 294 Z " /><path fill="rgb(142,4,4)" stroke="rgb(142,4,4)" stroke-width="1" opacity="0.996078431372549" d="M 431.5 295 L 432 308.5 L 431 308.5 L 431.5 295 Z " /><path fill="rgb(142,4,4)" stroke="rgb(142,4,4)" stroke-width="1" opacity="0.996078431372549" d="M 2.5 303 L 3 307.5 L 2 307.5 L 2.5 303 Z " /><path fill="rgb(142,4,4)" stroke="rgb(142,4,4)" stroke-width="1" opacity="0.996078431372549" d="M 123.5 308 L 124 308.5 L 121.5 311 L 121 310.5 L 123.5 308 Z " /><path fill="rgb(142,4,4)" stroke="rgb(142,4,4)" stroke-width="1" opacity="0.996078431372549" d="M 332.5 308 L 333 311.5 L 332 311.5 L 332.5 308 Z " /><path fill="rgb(142,4,4)" stroke="rgb(142,4,4)" stroke-width="1" opacity="0.996078431372549" d="M 444.5 308 L 449 312.5 L 448.5 313 L 444 308.5 L 444.5 308 Z " /><path fill="rgb(142,4,4)" stroke="rgb(142,4,4)" stroke-width="1" opacity="0.996078431372549" d="M 154.5 312 L 155 314.5 L 154 314.5 L 154.5 312 Z " /><path fill="rgb(142,4,4)" stroke="rgb(142,4,4)" stroke-width="1" opacity="0.996078431372549" d="M 124.5 313 L 127 315.5 L 126.5 316 L 124 314.5 L 124.5 313 Z " /><path fill="rgb(142,4,4)" stroke="rgb(142,4,4)" stroke-width="1" opacity="0.996078431372549" d="M 430.5 313 L 431 315.5 L 430 315.5 L 430.5 313 Z " /><path fill="rgb(142,4,4)" stroke="rgb(142,4,4)" stroke-width="1" opacity="0.996078431372549" d="M 595.5 313 L 596 315.5 L 595 315.5 L 595.5 313 Z " /><path fill="rgb(142,4,4)" stroke="rgb(142,4,4)" stroke-width="1" opacity="0.996078431372549" d="M 142.5 314 L 146 317.5 L 145.5 318 L 142 314.5 L 142.5 314 Z " /><path fill="rgb(142,4,4)" stroke="rgb(142,4,4)" stroke-width="1" opacity="0.996078431372549" d="M 3.5 315 L 4 317.5 L 3 317.5 L 3.5 315 Z " /><path fill="rgb(142,4,4)" stroke="rgb(142,4,4)" stroke-width="1" opacity="0.996078431372549" d="M 441.5 319 L 441 320.5 L 439.5 323 L 439 321.5 L 441.5 319 Z " /><path fill="rgb(142,4,4)" stroke="rgb(142,4,4)" stroke-width="1" opacity="0.996078431372549" d="M 594.5 320 L 595 322.5 L 594 322.5 L 594.5 320 Z " /><path fill="rgb(142,4,4)" stroke="rgb(142,4,4)" stroke-width="1" opacity="0.996078431372549" d="M 150.5 321 L 153 323.5 L 152.5 324 L 150 321.5 L 150.5 321 Z " /><path fill="rgb(142,4,4)" stroke="rgb(142,4,4)" stroke-width="1" opacity="0.996078431372549" d="M 4.5 323 L 5 325.5 L 4 325.5 L 4.5 323 Z " /><path fill="rgb(142,4,4)" stroke="rgb(142,4,4)" stroke-width="1" opacity="0.996078431372549" d="M 592.5 332 L 593 334.5 L 592 334.5 L 592.5 332 Z " /><path fill="rgb(142,4,4)" stroke="rgb(142,4,4)" stroke-width="1" opacity="0.996078431372549" d="M 167.5 351 L 170 352.5 L 168.5 352 Q 166.1 351.9 167.5 351 Z " /><path fill="rgb(142,4,4)" stroke="rgb(142,4,4)" stroke-width="1" opacity="0.996078431372549" d="M 348.5 351 L 351 353.5 L 350.5 354 L 348 351.5 L 348.5 351 Z " /><path fill="rgb(142,4,4)" stroke="rgb(142,4,4)" stroke-width="1" opacity="0.996078431372549" d="M 413.5 354 L 414 354.5 L 407.5 361 L 407 360.5 L 413.5 354 Z " /><path fill="rgb(142,4,4)" stroke="rgb(142,4,4)" stroke-width="1" opacity="0.996078431372549" d="M 171.5 355 L 174 357.5 L 173.5 358 L 171 355.5 L 171.5 355 Z " /><path fill="rgb(142,4,4)" stroke="rgb(142,4,4)" stroke-width="1" opacity="0.996078431372549" d="M 177.5 361 L 180 363.5 L 179.5 364 L 177 361.5 L 177.5 361 Z " /><path fill="rgb(142,4,4)" stroke="rgb(142,4,4)" stroke-width="1" opacity="0.996078431372549" d="M 375.5 369 L 378 369.5 L 375.5 370 L 375.5 369 Z " /><path fill="rgb(142,4,4)" stroke="rgb(142,4,4)" stroke-width="1" opacity="0.996078431372549" d="M 387.5 369 L 390 369.5 L 387.5 370 L 387.5 369 Z " /><path fill="rgb(142,4,4)" stroke="rgb(142,4,4)" stroke-width="1" opacity="0.996078431372549" d="M 199.5 372 L 202 372.5 L 199.5 373 L 199.5 372 Z " /><path fill="rgb(142,4,4)" stroke="rgb(142,4,4)" stroke-width="1" opacity="0.996078431372549" d="M 206.5 372 L 210 372.5 L 206.5 373 L 206.5 372 Z " /><path fill="rgb(142,4,4)" stroke="rgb(142,4,4)" stroke-width="1" opacity="0.996078431372549" d="M 16.5 376 L 50 427.5 L 95 488.5 L 129 528.5 L 163.5 563 L 189.5 584 L 216.5 600 L 218.5 600 L 223.5 603 L 232.5 606 L 240.5 607 L 241.5 608 L 261.5 608 L 262.5 607 L 265.5 607 L 271.5 605 L 279.5 601 L 285.5 597 L 292.5 590 L 292 591.5 L 291 596.5 L 288 602.5 L 276.5 617 L 264.5 626 L 254.5 631 L 242.5 635 L 234.5 636 L 233.5 637 L 227.5 637 L 226.5 638 L 201.5 638 L 190.5 633 L 188.5 633 L 172.5 623 Q 151.3 607.2 134 587.5 L 116 566.5 L 95 538.5 L 81 517.5 L 63 487.5 L 42 446.5 L 42 444.5 L 34 428.5 L 34 426.5 L 28 413.5 L 27 408.5 L 25 405.5 L 16 378.5 L 16.5 376 Z " /><path fill="rgb(142,4,4)" stroke="rgb(142,4,4)" stroke-width="1" opacity="0.996078431372549" d="M 380.5 429 L 383 429.5 L 380.5 430 L 380.5 429 Z " /><path fill="rgb(142,4,4)" stroke="rgb(142,4,4)" stroke-width="1" opacity="0.996078431372549" d="M 371.5 430 L 374 430.5 L 371.5 431 L 371.5 430 Z " /><path fill="rgb(142,4,4)" stroke="rgb(142,4,4)" stroke-width="1" opacity="0.996078431372549" d="M 361.5 431 L 365 431.5 L 361.5 432 L 361.5 431 Z " /><path fill="rgb(142,4,4)" stroke="rgb(142,4,4)" stroke-width="1" opacity="0.996078431372549" d="M 352.5 432 L 356 432.5 L 352.5 433 L 352.5 432 Z " /><path fill="rgb(142,4,4)" stroke="rgb(142,4,4)" stroke-width="1" opacity="0.996078431372549" d="M 342.5 433 L 346 433.5 L 342.5 434 L 342.5 433 Z " /><path fill="rgb(142,4,4)" stroke="rgb(142,4,4)" stroke-width="1" opacity="0.996078431372549" d="M 332.5 434 L 336 434.5 L 332.5 435 L 332.5 434 Z " /><path fill="rgb(142,4,4)" stroke="rgb(142,4,4)" stroke-width="1" opacity="0.996078431372549" d="M 321.5 435 L 325 435.5 L 321.5 436 L 321.5 435 Z " /><path fill="rgb(142,4,4)" stroke="rgb(142,4,4)" stroke-width="1" opacity="0.996078431372549" d="M 260.5 479 L 263 481.5 L 262.5 482 L 260 479.5 L 260.5 479 Z " /><path fill="rgb(142,4,4)" stroke="rgb(142,4,4)" stroke-width="1" opacity="0.996078431372549" d="M 266.5 486 L 272 491.5 L 271.5 492 L 266 486.5 L 266.5 486 Z " /><path fill="rgb(142,4,4)" stroke="rgb(142,4,4)" stroke-width="1" opacity="0.996078431372549" d="M 289.5 493 L 297 493.5 L 289.5 494 L 289.5 493 Z " /><path fill="rgb(142,4,4)" stroke="rgb(142,4,4)" stroke-width="1" opacity="0.996078431372549" d="M 306.5 494 L 312 494.5 L 306.5 495 L 306.5 494 Z " /><path fill="rgb(142,4,4)" stroke="rgb(142,4,4)" stroke-width="1" opacity="0.996078431372549" d="M 321.5 495 L 326 495.5 L 321.5 496 L 321.5 495 Z " /><path fill="rgb(142,4,4)" stroke="rgb(142,4,4)" stroke-width="1" opacity="0.996078431372549" d="M 480.5 562 L 481 562.5 L 478.5 565 L 478 564.5 L 480.5 562 Z " /><path fill="rgb(142,4,4)" stroke="rgb(142,4,4)" stroke-width="1" opacity="0.996078431372549" d="M 475.5 568 L 476 568.5 L 473.5 571 L 473 570.5 L 475.5 568 Z " /><path fill="rgb(142,4,4)" stroke="rgb(142,4,4)" stroke-width="1" opacity="0.996078431372549" d="M 469.5 575 L 470 575.5 L 467.5 578 L 467 577.5 L 469.5 575 Z " /><path fill="rgb(142,4,4)" stroke="rgb(142,4,4)" stroke-width="1" opacity="0.996078431372549" d="M 461.5 584 L 462 584.5 L 454.5 592 L 454 591.5 L 461.5 584 Z " /><path fill="rgb(142,4,4)" stroke="rgb(142,4,4)" stroke-width="1" opacity="0.996078431372549" d="M 446.5 599 L 447 599.5 L 439.5 607 L 439 606.5 L 446.5 599 Z " /><path fill="rgb(142,4,4)" stroke="rgb(142,4,4)" stroke-width="1" opacity="0.996078431372549" d="M 306.5 609 L 315 617.5 L 314.5 618 L 306 609.5 L 306.5 609 Z " /><path fill="rgb(142,4,4)" stroke="rgb(142,4,4)" stroke-width="1" opacity="0.996078431372549" d="M 433.5 611 L 434 611.5 L 431.5 614 L 431 613.5 L 433.5 611 Z " /><path fill="rgb(142,4,4)" stroke="rgb(142,4,4)" stroke-width="1" opacity="0.996078431372549" d="M 363.5 637 L 367 637.5 L 363.5 638 L 363.5 637 Z " /><path fill="rgb(142,4,4)" stroke="rgb(142,4,4)" stroke-width="1" opacity="0.996078431372549" d="M 375.5 638 L 386 638.5 L 375.5 639 L 375.5 638 Z " /><path fill="rgb(97,59,23)" stroke="rgb(97,59,23)" stroke-width="1" opacity="0.996078431372549" d="M 337.5 44 L 340 44.5 L 339 47.5 L 341 47.5 L 340 50.5 L 342 50.5 L 341 52.5 L 342.5 52 L 344 53.5 Q 341.8 54.8 344.5 56 L 346 55.5 L 345.5 57 L 348.5 58 L 350 57.5 L 349.5 59 Q 353.5 60 354.5 58 Q 355.8 60.3 360.5 59 L 360.5 57 L 363 57.5 L 327 102.5 L 312.5 119 L 311 118.5 Q 307.1 110.4 300.5 105 L 290 98.5 L 310 70.5 L 331.5 48 L 337.5 44 Z " /><path fill="rgb(97,59,23)" stroke="rgb(97,59,23)" stroke-width="1" opacity="0.996078431372549" d="M 356.5 46 L 361 50.5 L 360.5 51 L 356 46.5 L 356.5 46 Z " /><path fill="rgb(97,59,23)" stroke="rgb(97,59,23)" stroke-width="1" opacity="0.996078431372549" d="M 181.5 96 L 185 96.5 L 181.5 97 L 181.5 96 Z " /><path fill="rgb(97,59,23)" stroke="rgb(97,59,23)" stroke-width="1" opacity="0.996078431372549" d="M 412.5 96 L 415 96.5 L 412.5 97 L 412.5 96 Z " /><path fill="rgb(97,59,23)" stroke="rgb(97,59,23)" stroke-width="1" opacity="0.996078431372549" d="M 189.5 261 L 190 261.5 L 187.5 264 L 187 263.5 L 189.5 261 Z " /><path fill="rgb(97,59,23)" stroke="rgb(97,59,23)" stroke-width="1" opacity="0.996078431372549" d="M 597.5 271 L 598 280.5 L 597 280.5 L 597.5 271 Z " /><path fill="rgb(97,59,23)" stroke="rgb(97,59,23)" stroke-width="1" opacity="0.996078431372549" d="M 597.5 284 L 598 293.5 L 597 293.5 L 597.5 284 Z " /><path fill="rgb(115,113,113)" stroke="rgb(115,113,113)" stroke-width="1" opacity="1" d="M 403.5 242 L 407 245.5 L 406.5 246 L 403 242.5 L 403.5 242 Z " /><path fill="rgb(115,113,113)" stroke="rgb(115,113,113)" stroke-width="1" opacity="1" d="M 224.5 244 L 230 249.5 L 229.5 250 L 224 244.5 L 224.5 244 Z " /><path fill="rgb(115,113,113)" stroke="rgb(115,113,113)" stroke-width="1" opacity="1" d="M 338.5 292 L 339 301.5 L 338 301.5 L 338.5 292 Z " /><path fill="rgb(115,113,113)" stroke="rgb(115,113,113)" stroke-width="1" opacity="1" d="M 160.5 293 L 161 305.5 L 160 305.5 L 160.5 293 Z " /><path fill="rgb(115,113,113)" stroke="rgb(115,113,113)" stroke-width="1" opacity="1" d="M 246.5 293 L 247 296.5 L 246 296.5 L 246.5 293 Z " /><path fill="rgb(115,113,113)" stroke="rgb(115,113,113)" stroke-width="1" opacity="1" d="M 345.5 294 L 346 304.5 L 345 304.5 L 345.5 294 Z " /><path fill="rgb(115,113,113)" stroke="rgb(115,113,113)" stroke-width="1" opacity="1" d="M 412.5 296 L 413 302.5 L 412 302.5 L 412.5 296 Z " /><path fill="rgb(115,113,113)" stroke="rgb(115,113,113)" stroke-width="1" opacity="1" d="M 424.5 306 L 425 308.5 L 424 308.5 L 424.5 306 Z " /><path fill="rgb(115,113,113)" stroke="rgb(115,113,113)" stroke-width="1" opacity="1" d="M 246.5 307 L 247 310.5 L 246 310.5 L 246.5 307 Z " /><path fill="rgb(115,113,113)" stroke="rgb(115,113,113)" stroke-width="1" opacity="1" d="M 228.5 340 L 229 340.5 L 225.5 344 L 225 343.5 L 228.5 340 Z " /><path fill="rgb(115,113,113)" stroke="rgb(115,113,113)" stroke-width="1" opacity="1" d="M 229.5 353 L 230 353.5 L 225.5 358 L 225 357.5 L 229.5 353 Z " /><path fill="rgb(254,3,3)" stroke="rgb(254,3,3)" stroke-width="1" opacity="0.996078431372549" d="M 365.5 101 L 371 102.5 L 370 108.5 L 369 109.5 L 369 113.5 L 368 114.5 L 368 119.5 L 367 120.5 L 367 127.5 L 366 128.5 L 366 159.5 L 367 160.5 L 367 167.5 L 368 168.5 L 368 173.5 L 370 178.5 L 370 182.5 L 372 186.5 L 372 189.5 L 376 201.5 L 386 222.5 L 388 224.5 L 382.5 225 L 381.5 226 L 375.5 226 L 374.5 227 L 371.5 227 L 365.5 229 Q 354.3 234.8 347 244.5 L 343 250.5 L 336 265.5 L 336 268.5 L 333 277.5 L 333 281.5 L 332 282.5 L 332 293.5 Q 329.8 294.7 331 299.5 L 332 300.5 L 332 311.5 L 333 312.5 L 334 321.5 L 336 325.5 L 336 328.5 L 340 336.5 L 340 338.5 L 348 351.5 L 358.5 362 L 371.5 369 Q 374.8 368.3 375.5 370 L 389.5 370 L 403.5 364 L 414 354.5 L 419.5 346 L 463 313.5 L 463 311.5 L 459.5 307 L 441.5 321 L 441 320.5 L 449 312.5 L 444.5 308 L 429.5 322 L 430 320.5 L 431 309.5 L 432 308.5 L 432 290.5 L 431 289.5 L 431 282.5 L 430 279.5 L 431 277.5 L 429 276.5 L 430 272.5 L 429 269.5 L 430 269.5 Q 429.5 272.5 431.5 273 L 443.5 281 L 461.5 290 L 488.5 299 Q 489.5 297 490.5 299 L 493.5 300 L 498.5 300 L 499.5 301 L 505.5 301 L 506.5 302 Q 507.5 300 508.5 302 L 519.5 302 L 520.5 303 L 527.5 303 L 528.5 302 L 539.5 302 L 540.5 301 Q 541.5 303 542.5 301 Q 547.3 302.2 548.5 300 Q 549.5 302 550.5 300 L 554.5 300 L 555.5 299 L 559.5 299 L 567.5 296 L 570.5 296 L 579.5 293 L 582.5 291 L 584.5 291 L 595 285.5 L 595.5 283 L 596 290.5 L 597 291.5 L 597 301.5 L 596 302.5 L 596 312.5 L 595 313.5 L 595 319.5 L 594 320.5 L 594 326.5 L 592 332.5 L 592 337.5 L 590 342.5 L 590 346.5 L 589 347.5 L 589 350.5 L 588 351.5 L 585 366.5 L 582 373.5 L 582 376.5 L 576 394.5 L 574 397.5 L 573 402.5 L 565 420.5 L 565 422.5 L 546 462.5 L 544 464.5 L 539 475.5 L 537 477.5 L 525 499.5 L 496 542.5 L 467 578.5 L 447.5 599 L 420.5 622 L 408.5 630 L 398.5 635 L 392.5 637 L 389.5 637 L 388.5 638 L 367.5 638 L 366.5 637 L 359.5 637 L 358.5 636 L 349.5 635 L 337.5 631 L 334.5 629 L 332.5 629 L 317.5 620 L 304 606.5 Q 297.9 598.6 294.5 588 L 293 588.5 L 285.5 597 L 279.5 601 L 265.5 607 Q 262.3 606.3 261.5 608 L 241.5 608 L 240.5 607 L 232.5 606 L 223.5 603 L 218.5 600 L 216.5 600 L 189.5 584 L 163.5 563 L 129 528.5 L 108 504.5 L 75 462.5 L 50 427.5 L 15 373.5 L 13 363.5 L 12 362.5 L 12 359.5 L 11 358.5 L 11 355.5 L 10 354.5 L 10 351.5 L 9 350.5 L 9 346.5 L 8 345.5 L 8 341.5 L 6 335.5 L 6 330.5 L 5 329.5 L 5 323.5 L 4 322.5 L 4 315.5 L 3 314.5 L 3 303.5 L 2 302.5 L 2 270.5 L 3 269.5 L 3 259.5 L 4 258.5 L 4 252.5 L 5 251.5 L 6 242.5 L 7 241.5 L 9 230.5 L 15.5 213 L 19.5 217 L 28.5 223 L 45.5 230 L 48.5 230 L 53.5 232 L 58.5 232 L 59.5 233 L 86.5 233 L 87.5 232 L 92.5 232 L 93.5 231 L 101.5 230 L 110.5 227 L 115.5 224 L 117.5 224 L 130.5 216 L 136.5 211 L 140.5 213 Q 145.2 211.8 146.5 214 L 162.5 214 L 163.5 213 L 167.5 213 L 168.5 212 L 171.5 212 L 177.5 210 L 191.5 202 L 196.5 197 L 199.5 197 L 206.5 200 L 216.5 201 L 217.5 202 L 238.5 202 L 239.5 201 L 245.5 201 L 246.5 200 L 254.5 199 L 267.5 194 L 269 194.5 L 269.5 193 L 271 193.5 L 271.5 192 L 273.5 193 L 276.5 192 L 279 189.5 L 279.5 188 Q 292.2 181.7 301 171.5 L 309 160.5 L 312 154.5 L 315 145.5 L 316 134.5 L 315 133.5 L 315 127.5 L 313 123.5 L 313 120.5 L 325.5 114 L 327.5 114 L 340.5 108 L 349.5 105 L 352.5 105 L 356.5 103 L 364.5 102 L 365.5 101 Z M 196 229 L 184 234 L 177 239 L 168 249 L 161 261 L 161 263 L 157 272 L 156 279 L 155 280 Q 156 283 154 285 L 154 294 L 153 295 L 154 315 L 155 316 L 156 325 L 157 326 L 157 327 L 137 309 Q 133 309 133 311 L 126 306 L 121 311 L 124 314 L 124 314 L 121 312 Q 118 314 117 318 L 160 346 L 163 349 L 169 352 L 171 356 L 184 367 L 192 371 L 199 372 L 200 373 L 210 373 L 211 372 L 214 372 L 220 370 L 233 361 L 239 354 L 246 342 L 252 324 L 253 311 L 254 310 L 254 295 L 253 294 L 253 286 L 252 285 L 251 277 L 249 273 L 249 270 L 242 255 L 233 243 Q 226 235 217 231 L 211 230 L 210 229 L 196 229 Z M 381 429 L 380 430 L 372 430 L 371 431 L 353 432 L 352 433 L 333 434 L 332 435 L 322 435 L 321 436 L 318 435 L 314 435 L 309 437 L 295 439 L 294 440 L 290 440 L 289 441 L 279 442 L 278 443 L 274 443 L 273 444 L 269 444 L 268 445 L 264 445 L 263 446 L 259 446 L 258 447 L 253 447 L 252 448 L 243 449 L 239 451 L 249 466 L 266 487 L 273 492 Q 274 495 276 493 L 289 493 L 290 494 L 306 494 L 307 495 L 321 495 L 322 496 L 331 496 L 333 495 L 353 479 L 366 470 L 369 469 L 377 454 L 377 452 L 387 430 L 381 429 Z " /><path fill="rgb(254,3,3)" stroke="rgb(254,3,3)" stroke-width="1" opacity="0.996078431372549" d="M 142.5 103 L 145 104.5 Q 143 105.5 145 106.5 L 146 112.5 L 148 114.5 L 147.5 116 L 149 116.5 L 147.5 117 L 144.5 116 L 141.5 118 L 138.5 118 L 129.5 121 L 114.5 130 L 102.5 126 L 97.5 126 L 96 124.5 L 114.5 114 L 116.5 114 L 130.5 107 L 140.5 104 L 142.5 105 L 142.5 103 Z " /><path fill="rgb(254,3,3)" stroke="rgb(254,3,3)" stroke-width="1" opacity="0.996078431372549" d="M 143.5 119 L 150 119.5 L 143.5 120 L 143.5 119 Z " /><path fill="rgb(254,3,3)" stroke="rgb(254,3,3)" stroke-width="1" opacity="0.996078431372549" d="M 159.5 119 L 165 119.5 L 159.5 120 L 159.5 119 Z " /><path fill="rgb(254,3,3)" stroke="rgb(254,3,3)" stroke-width="1" opacity="0.996078431372549" d="M 139.5 120 L 142 120.5 L 139.5 121 L 139.5 120 Z " /><path fill="rgb(254,3,3)" stroke="rgb(254,3,3)" stroke-width="1" opacity="0.996078431372549" d="M 166.5 120 L 170 120.5 L 166.5 121 L 166.5 120 Z " /><path fill="rgb(254,3,3)" stroke="rgb(254,3,3)" stroke-width="1" opacity="0.996078431372549" d="M 135.5 121 L 138 121.5 L 132.5 123 L 123.5 128 Q 122 127 124.5 126 L 135.5 121 Z " /><path fill="rgb(254,3,3)" stroke="rgb(254,3,3)" stroke-width="1" opacity="0.996078431372549" d="M 174.5 122 Q 180.6 122.9 184 126.5 L 182.5 126 L 174.5 123 L 174.5 122 Z " /><path fill="rgb(254,3,3)" stroke="rgb(254,3,3)" stroke-width="1" opacity="0.996078431372549" d="M 185.5 127 L 191 131.5 L 190.5 132 L 187.5 129 Q 183.7 128.3 185.5 127 Z " /><path fill="rgb(254,3,3)" stroke="rgb(254,3,3)" stroke-width="1" opacity="0.996078431372549" d="M 121.5 128 L 122 128.5 L 119.5 131 L 110 139.5 L 104 150.5 L 102.5 156 L 102 153.5 Q 106.9 138.4 118.5 130 L 121.5 128 Z " /><path fill="rgb(254,3,3)" stroke="rgb(254,3,3)" stroke-width="1" opacity="0.996078431372549" d="M 192.5 132 Q 198.3 136.7 202 143.5 Q 201 145 200 142.5 Q 197.1 136.4 192 132.5 L 192.5 132 Z " /><path fill="rgb(254,3,3)" stroke="rgb(254,3,3)" stroke-width="1" opacity="0.996078431372549" d="M 203.5 147 L 206 151.5 L 206 153.5 L 205 153.5 L 205 151.5 L 203 148.5 L 203.5 147 Z " /><path fill="rgb(254,3,3)" stroke="rgb(254,3,3)" stroke-width="1" opacity="0.996078431372549" d="M 206.5 155 L 207 158.5 L 206 158.5 L 206.5 155 Z " /><path fill="rgb(254,3,3)" stroke="rgb(254,3,3)" stroke-width="1" opacity="0.996078431372549" d="M 101.5 157 L 102 172.5 L 101 172.5 L 101.5 157 Z " /><path fill="rgb(254,3,3)" stroke="rgb(254,3,3)" stroke-width="1" opacity="0.996078431372549" d="M 207.5 160 L 208 169.5 L 207 169.5 L 207.5 160 Z " /><path fill="rgb(254,3,3)" stroke="rgb(254,3,3)" stroke-width="1" opacity="0.996078431372549" d="M 206.5 172 L 207 175.5 L 205 181.5 L 201.5 187 L 202 185.5 L 206.5 172 Z " /><path fill="rgb(254,3,3)" stroke="rgb(254,3,3)" stroke-width="1" opacity="0.996078431372549" d="M 102.5 174 L 103 176.5 L 102 176.5 L 102.5 174 Z " /><path fill="rgb(254,3,3)" stroke="rgb(254,3,3)" stroke-width="1" opacity="0.996078431372549" d="M 104.5 181 L 107 185.5 Q 106 187 105 184.5 Q 103.3 183 104.5 181 Z " /><path fill="rgb(254,3,3)" stroke="rgb(254,3,3)" stroke-width="1" opacity="0.996078431372549" d="M 107.5 187 L 115.5 197 Q 125 206 140 209.5 L 137.5 210 L 123.5 204 L 112 194.5 L 108 189.5 L 107.5 187 Z " /><path fill="rgb(254,3,3)" stroke="rgb(254,3,3)" stroke-width="1" opacity="0.996078431372549" d="M 200.5 188 L 201 188.5 L 199 190.5 L 190.5 200 L 190 199.5 L 198 191.5 L 200.5 188 Z " /><path fill="rgb(254,3,3)" stroke="rgb(254,3,3)" stroke-width="1" opacity="0.996078431372549" d="M 188.5 200 L 189 200.5 L 186.5 203 L 184.5 204 Q 183 203 185.5 202 L 188.5 200 Z " /><path fill="rgb(254,3,3)" stroke="rgb(254,3,3)" stroke-width="1" opacity="0.996078431372549" d="M 182.5 204 Q 184 205 181.5 206 L 180 205.5 L 182.5 204 Z " /><path fill="rgb(254,3,3)" stroke="rgb(254,3,3)" stroke-width="1" opacity="0.996078431372549" d="M 177.5 206 L 179 206.5 L 174.5 209 L 172.5 209 L 172.5 208 L 174.5 208 L 177.5 206 Z " /><path fill="rgb(254,3,3)" stroke="rgb(254,3,3)" stroke-width="1" opacity="0.996078431372549" d="M 168.5 209 L 171 209.5 L 167.5 211 L 163.5 211 L 163.5 210 Q 167.5 211 168.5 209 Z " /><path fill="rgb(254,3,3)" stroke="rgb(254,3,3)" stroke-width="1" opacity="0.996078431372549" d="M 141.5 210 L 146 210.5 L 141.5 211 L 141.5 210 Z " /><path fill="rgb(254,3,3)" stroke="rgb(254,3,3)" stroke-width="1" opacity="0.996078431372549" d="M 147.5 211 L 162 211.5 L 147.5 212 L 147.5 211 Z " /><path fill="rgb(254,102,102)" stroke="rgb(254,102,102)" stroke-width="1" opacity="0.996078431372549" d="M 173.5 97 L 178.5 97 L 182 98.5 L 182 101.5 L 186.5 112 L 188 111.5 Q 184.5 113 187 114.5 L 179.5 122 L 176.5 120 L 170.5 118 L 167.5 118 L 166.5 117 L 160.5 117 L 159.5 116 L 147.5 116 L 144.5 117 L 144.5 116 Q 147.5 116.5 148 114.5 L 146 112.5 L 145 106.5 L 144 105.5 L 145 104.5 L 144.5 103 L 150.5 101 L 158.5 100 L 159.5 99 L 172.5 98 L 173.5 97 Z " /><path fill="rgb(254,102,102)" stroke="rgb(254,102,102)" stroke-width="1" opacity="0.996078431372549" d="M 201.5 97 L 204 97.5 L 201.5 98 L 201.5 97 Z " /><path fill="rgb(254,102,102)" stroke="rgb(254,102,102)" stroke-width="1" opacity="0.996078431372549" d="M 391.5 97 L 422.5 97 L 423.5 98 L 431.5 98 L 432.5 99 L 437.5 99 L 438.5 100 L 442.5 100 L 443.5 101 L 448 101.5 L 447.5 103 L 451.5 102 L 451.5 104 L 454.5 103 L 454.5 105 L 458.5 104 L 458.5 105 L 457 105.5 L 459.5 106 L 461.5 105 L 461.5 106 L 460 106.5 L 465 108.5 L 463.5 109 L 462 108.5 L 457 118.5 L 455 124.5 L 455 127.5 L 454 128.5 L 454 132.5 L 453 133.5 L 453 154.5 L 454 155.5 L 454 159.5 L 455 160.5 L 455 163.5 L 457 169.5 L 463 181.5 Q 469.8 192.2 479.5 200 L 486.5 205 L 504.5 213 L 513.5 214 L 514.5 215 L 534.5 215 L 535.5 214 L 539.5 214 L 540.5 213 L 543.5 213 L 549.5 211 L 561.5 205 L 567.5 201 L 573 195.5 L 572 193.5 Q 573 191 574 192.5 L 573 194.5 L 574.5 196 L 576 195.5 L 575 197.5 L 577 197.5 L 576 199.5 L 578 199.5 L 577.5 201 L 579 201.5 Q 577 202.5 579 203.5 L 579.5 205 L 581 205.5 L 580.5 207 L 582 207.5 L 581.5 209 L 583 209.5 L 582.5 211 L 584 211.5 L 592 234.5 L 592 238.5 L 593 239.5 L 594 248.5 L 595 249.5 L 595 254.5 L 596 255.5 L 596 264.5 L 597 265.5 L 597 290.5 L 596 290.5 L 595.5 283 L 594.5 286 L 579.5 293 L 570.5 296 L 567.5 296 L 563.5 298 L 555.5 299 L 554.5 300 L 550.5 300 L 549.5 301 Q 548.5 299 547.5 301 Q 542.8 299.7 541.5 302 Q 540.5 300 539.5 302 L 528.5 302 L 527.5 303 L 520.5 303 L 519.5 302 L 508.5 302 L 507.5 301 Q 506.5 303 505.5 301 L 493.5 300 L 489.5 298 Q 488.5 300 487.5 298 Q 482.9 298.6 481.5 296 L 477.5 296 L 463.5 290 L 461.5 290 L 443.5 281 L 430.5 272 L 429.5 275 Q 423.6 251.4 408.5 237 Q 402.6 231.4 394.5 228 L 388.5 226 L 382 225.5 L 388 224.5 L 386 222.5 L 379 208.5 L 379 206.5 L 376 201.5 L 372 189.5 L 372 186.5 L 370 182.5 L 370 178.5 L 369 177.5 L 368 168.5 L 367 167.5 L 367 160.5 L 366 159.5 L 366 128.5 L 367 127.5 L 367 120.5 L 368 119.5 L 368 114.5 L 369 113.5 L 369 109.5 L 370 108.5 L 371 102.5 L 367 101.5 L 371.5 100 L 375.5 100 L 376.5 99 L 390.5 98 L 391.5 97 Z M 430 269 L 429 272 L 430 272 L 430 269 Z " /><path fill="rgb(254,102,102)" stroke="rgb(254,102,102)" stroke-width="1" opacity="0.996078431372549" d="M 532.5 146 L 535 148.5 L 534.5 149 L 532 146.5 L 532.5 146 Z " /><path fill="rgb(254,102,102)" stroke="rgb(254,102,102)" stroke-width="1" opacity="0.996078431372549" d="M 545.5 158 L 550 162.5 L 549.5 163 L 545 158.5 L 545.5 158 Z " /><path fill="rgb(254,102,102)" stroke="rgb(254,102,102)" stroke-width="1" opacity="0.996078431372549" d="M 278.5 189 L 279 189.5 L 276.5 192 L 272.5 193 L 272.5 192 L 278.5 189 Z " /><path fill="rgb(252,251,251)" stroke="rgb(252,251,251)" stroke-width="1" opacity="0.996078431372549" d="M 204.5 98 L 207 98.5 L 204.5 99 L 204.5 98 Z " /><path fill="rgb(252,251,251)" stroke="rgb(252,251,251)" stroke-width="1" opacity="0.996078431372549" d="M 378.5 233 L 388.5 234 L 397.5 238 L 409 248.5 L 417 261.5 L 417 263.5 L 419 266.5 L 422 275.5 L 423 284.5 L 424 285.5 L 424 295.5 Q 426.3 296.8 425 301.5 L 424 302.5 L 424 312.5 Q 421.8 313.7 423 318.5 L 422 319.5 L 420 329.5 L 415 340.5 L 405.5 353 L 393.5 361 L 387.5 362 L 386.5 363 L 378.5 363 L 365.5 358 L 355 348.5 L 350 341.5 L 345 331.5 L 341 319.5 L 340 308.5 L 339 307.5 L 339 285.5 L 340 284.5 L 340 279.5 L 341 278.5 L 341 275.5 L 342 274.5 L 342 271.5 L 345 262.5 L 351 251.5 L 361.5 240 L 370.5 235 L 377.5 234 L 378.5 233 Z M 373 251 L 368 253 L 361 258 Q 353 265 349 276 L 347 282 L 347 285 L 346 286 L 346 292 L 345 293 L 345 307 L 346 308 L 346 314 Q 348 314 347 318 L 353 332 L 359 340 L 368 346 L 374 348 L 385 348 L 394 344 L 405 332 L 410 321 L 411 314 L 412 313 L 412 307 L 413 306 L 413 294 L 412 293 L 412 287 L 410 282 L 410 279 L 405 268 L 399 260 L 391 253 L 389 253 L 386 251 L 373 251 Z " /><path fill="rgb(252,251,251)" stroke="rgb(252,251,251)" stroke-width="1" opacity="0.996078431372549" d="M 198.5 236 L 207.5 236 L 216.5 239 Q 225.1 243.9 231 251.5 L 239 264.5 L 239 266.5 L 241 269.5 L 244 278.5 L 245 288.5 L 246 289.5 L 246 314.5 L 245 315.5 L 245 320.5 L 244 321.5 L 243 328.5 L 236 344.5 Q 231.1 353.1 223.5 359 L 214.5 364 L 202.5 366 L 201.5 365 L 197.5 365 L 189.5 362 L 178 352.5 L 171 342.5 L 167 334.5 L 163 322.5 L 162 312.5 L 161 311.5 L 161 288.5 L 162 287.5 L 162 281.5 L 163 280.5 L 164 273.5 L 171 257.5 Q 176.3 248.3 184.5 242 L 191.5 238 L 197.5 237 L 198.5 236 Z M 205 253 L 193 258 L 182 270 L 178 278 L 176 284 L 176 287 L 175 288 L 175 292 L 174 293 L 174 312 Q 176 313 175 318 L 178 327 L 183 337 L 187 342 L 194 347 L 203 351 L 213 351 L 224 346 L 233 336 L 238 326 L 240 316 L 241 315 L 241 307 L 242 306 L 242 300 L 241 299 L 241 291 Q 239 289 240 286 L 234 271 L 228 263 L 218 255 L 212 254 L 211 253 L 205 253 Z " /><path fill="rgb(0,181,0)" stroke="rgb(0,181,0)" stroke-width="1" opacity="0.00392156862745098" d="M 281.5 67 L 282 69.5 L 281 69.5 L 281.5 67 Z " /><path fill="rgb(0,181,0)" stroke="rgb(0,181,0)" stroke-width="1" opacity="0.00392156862745098" d="M 281.5 85 L 282 87.5 L 281 87.5 L 281.5 85 Z " /><path fill="rgb(0,184,88)" stroke="rgb(0,184,88)" stroke-width="1" opacity="0.9921568627450981" d="M 189.5 11 L 190 20.5 L 189 20.5 L 189.5 11 Z " /><path fill="rgb(0,184,88)" stroke="rgb(0,184,88)" stroke-width="1" opacity="0.9921568627450981" d="M 227.5 16 L 228 35.5 L 227 35.5 L 227.5 16 Z " /><path fill="rgb(0,184,88)" stroke="rgb(0,184,88)" stroke-width="1" opacity="0.9921568627450981" d="M 213.5 26 L 223 35.5 L 222.5 36 L 213 26.5 L 213.5 26 Z " /><path fill="rgb(0,184,88)" stroke="rgb(0,184,88)" stroke-width="1" opacity="0.9921568627450981" d="M 259.5 26 L 262 28.5 L 261.5 29 L 259 26.5 L 259.5 26 Z " /><path fill="rgb(0,184,88)" stroke="rgb(0,184,88)" stroke-width="1" opacity="0.9921568627450981" d="M 190.5 27 L 191 30.5 L 190 30.5 L 190.5 27 Z " /><path fill="rgb(0,184,88)" stroke="rgb(0,184,88)" stroke-width="1" opacity="0.9921568627450981" d="M 191.5 35 L 192 37.5 L 191 37.5 L 191.5 35 Z " /><path fill="rgb(0,184,88)" stroke="rgb(0,184,88)" stroke-width="1" opacity="0.9921568627450981" d="M 224.5 38 L 227 40.5 L 226.5 41 L 224 38.5 L 224.5 38 Z " /><path fill="rgb(0,184,88)" stroke="rgb(0,184,88)" stroke-width="1" opacity="0.9921568627450981" d="M 192.5 41 L 193 43.5 L 192 43.5 L 192.5 41 Z " /><path fill="rgb(0,184,88)" stroke="rgb(0,184,88)" stroke-width="1" opacity="0.9921568627450981" d="M 250.5 44 L 251 72.5 L 250 72.5 L 249 70.5 L 250 69.5 L 250.5 44 Z " /><path fill="rgb(0,184,88)" stroke="rgb(0,184,88)" stroke-width="1" opacity="0.9921568627450981" d="M 233.5 50 Q 236 51 234.5 52 L 233 51.5 L 233.5 50 Z " /><path fill="rgb(0,184,88)" stroke="rgb(0,184,88)" stroke-width="1" opacity="0.9921568627450981" d="M 236.5 55 L 239 57.5 L 238.5 58 L 236 55.5 L 236.5 55 Z " /><path fill="rgb(0,184,88)" stroke="rgb(0,184,88)" stroke-width="1" opacity="0.9921568627450981" d="M 277.5 60 L 278 62.5 L 277 62.5 L 277.5 60 Z " /><path fill="rgb(0,184,88)" stroke="rgb(0,184,88)" stroke-width="1" opacity="0.9921568627450981" d="M 201.5 77 L 204 79.5 L 203.5 80 L 201 77.5 L 201.5 77 Z " /><path fill="rgb(0,184,88)" stroke="rgb(0,184,88)" stroke-width="1" opacity="0.9921568627450981" d="M 205.5 81 L 209 84.5 L 208.5 85 L 205 81.5 L 205.5 81 Z " /><path fill="rgb(0,184,88)" stroke="rgb(0,184,88)" stroke-width="1" opacity="0.9921568627450981" d="M 245.5 89 L 249 89.5 L 245.5 90 L 245.5 89 Z " /><path fill="rgb(0,184,88)" stroke="rgb(0,184,88)" stroke-width="1" opacity="0.9921568627450981" d="M 222.5 93 L 225 93.5 L 222.5 94 L 222.5 93 Z " /><path fill="rgb(182,55,51)" stroke="rgb(182,55,51)" stroke-width="1" opacity="0.023529411764705882" d="M 404.5 94 L 410 94.5 L 404.5 95 L 404.5 94 Z " /><path fill="rgb(130,3,2)" stroke="rgb(130,3,2)" stroke-width="1" opacity="0.03529411764705882" d="M 543.5 153 L 550 159.5 L 549.5 160 L 543 153.5 L 543.5 153 Z " /><path fill="rgb(130,3,2)" stroke="rgb(130,3,2)" stroke-width="1" opacity="0.03529411764705882" d="M 456.5 592 L 457 592.5 L 447.5 602 L 447 601.5 L 456.5 592 Z " /><path fill="rgb(246,117,117)" stroke="rgb(246,117,117)" stroke-width="1" opacity="0.01568627450980392" d="M 185.5 94 L 192 94.5 L 185.5 95 L 185.5 94 Z " /><path fill="rgb(159,87,60)" stroke="rgb(159,87,60)" stroke-width="1" opacity="0.996078431372549" d="M 340.5 43 L 348.5 43 L 351.5 44 Q 358.3 46.7 362 52.5 L 364 56.5 L 359.5 58 L 350.5 58 L 344 54.5 L 340 46.5 L 340.5 43 Z " /><path fill="rgb(159,87,60)" stroke="rgb(159,87,60)" stroke-width="1" opacity="0.996078431372549" d="M 423.5 97 L 426 97.5 L 423.5 98 L 423.5 97 Z " /><path fill="rgb(159,87,60)" stroke="rgb(159,87,60)" stroke-width="1" opacity="0.996078431372549" d="M 149.5 116 L 160 116.5 L 149.5 117 L 149.5 116 Z " /><path fill="rgb(159,87,60)" stroke="rgb(159,87,60)" stroke-width="1" opacity="0.996078431372549" d="M 539.5 152 L 545 157.5 L 544.5 158 L 539 152.5 L 539.5 152 Z " /><path fill="rgb(159,87,60)" stroke="rgb(159,87,60)" stroke-width="1" opacity="0.996078431372549" d="M 550.5 163 L 555 167.5 L 554.5 168 L 550 163.5 L 550.5 163 Z " /><path fill="rgb(159,87,60)" stroke="rgb(159,87,60)" stroke-width="1" opacity="0.996078431372549" d="M 408.5 237 L 412 240.5 L 411.5 241 L 408 237.5 L 408.5 237 Z " /><path fill="rgb(159,87,60)" stroke="rgb(159,87,60)" stroke-width="1" opacity="0.996078431372549" d="M 596.5 261 L 597 264.5 L 596 264.5 L 596.5 261 Z " /><path fill="rgb(247,171,171)" stroke="rgb(247,171,171)" stroke-width="1" opacity="0.996078431372549" d="M 179.5 97 L 200.5 97 L 206.5 99 Q 207.3 97.2 210.5 98 Q 212 99 209.5 100 L 208 99.5 L 207.5 101 L 206 100.5 L 205.5 102 L 204 101.5 L 203.5 103 Q 191.2 108.7 182.5 118 L 182 117.5 L 187 112.5 L 186 111.5 L 181.5 98 Q 178.5 98.5 179.5 97 Z " /><path fill="rgb(247,171,171)" stroke="rgb(247,171,171)" stroke-width="1" opacity="0.996078431372549" d="M 454.5 104 L 460.5 106 L 463.5 106 L 474.5 111 L 476.5 111 L 500.5 123 Q 533.8 143.7 559 172.5 Q 570 185 578 200.5 Q 577 202 576 199.5 L 573.5 195 L 567.5 201 L 549.5 211 L 543.5 213 L 540.5 213 L 539.5 214 L 535.5 214 L 534.5 215 L 514.5 215 L 513.5 214 L 508.5 214 L 507.5 213 L 504.5 213 L 498.5 211 L 486.5 205 Q 475.8 198.2 468 188.5 L 463 181.5 L 455 163.5 L 454 155.5 L 453 154.5 L 453 133.5 L 454 132.5 L 454 128.5 L 455 127.5 L 455 124.5 L 457 118.5 L 460 111.5 L 463 107.5 L 454.5 105 L 454.5 104 Z " /><path fill="rgb(247,171,171)" stroke="rgb(247,171,171)" stroke-width="1" opacity="0.996078431372549" d="M 578.5 202 L 580 204.5 L 579 204.5 L 578.5 202 Z " /><path fill="rgb(247,171,171)" stroke="rgb(247,171,171)" stroke-width="1" opacity="0.996078431372549" d="M 180.5 245 L 181 245.5 L 178.5 248 L 178 247.5 L 180.5 245 Z " /><path fill="rgb(247,171,171)" stroke="rgb(247,171,171)" stroke-width="1" opacity="0.996078431372549" d="M 204.5 253 L 207 253.5 L 204.5 254 L 204.5 253 Z " /><path fill="rgb(247,171,171)" stroke="rgb(247,171,171)" stroke-width="1" opacity="0.996078431372549" d="M 360.5 258 L 361 258.5 L 358.5 261 L 358 260.5 L 360.5 258 Z " /><path fill="rgb(247,171,171)" stroke="rgb(247,171,171)" stroke-width="1" opacity="0.996078431372549" d="M 424.5 292 L 425 295.5 L 424 295.5 L 424.5 292 Z " /><path fill="rgb(247,171,171)" stroke="rgb(247,171,171)" stroke-width="1" opacity="0.996078431372549" d="M 412.5 293 L 413 295.5 L 412 295.5 L 412.5 293 Z " /><path fill="rgb(247,171,171)" stroke="rgb(247,171,171)" stroke-width="1" opacity="0.996078431372549" d="M 246.5 297 L 247 306.5 L 246 306.5 L 246.5 297 Z " /><path fill="rgb(247,171,171)" stroke="rgb(247,171,171)" stroke-width="1" opacity="0.996078431372549" d="M 241.5 299 L 242 305.5 L 241 305.5 L 241.5 299 Z " /><path fill="rgb(247,171,171)" stroke="rgb(247,171,171)" stroke-width="1" opacity="0.996078431372549" d="M 424.5 302 L 425 305.5 L 424 305.5 L 424.5 302 Z " /><path fill="rgb(247,171,171)" stroke="rgb(247,171,171)" stroke-width="1" opacity="0.996078431372549" d="M 412.5 303 L 413 305.5 L 412 305.5 L 412.5 303 Z " /><path fill="rgb(247,171,171)" stroke="rgb(247,171,171)" stroke-width="1" opacity="0.996078431372549" d="M 187.5 341 L 190 343.5 L 189.5 344 L 187 341.5 L 187.5 341 Z " /></svg>