<svg viewBox="0 0 640 374" version="1.1" xmlns="http://www.w3.org/2000/svg" desc="Created with imagetracer.js version 1.2.6" ><path fill="rgb(0,0,0)" stroke="rgb(0,0,0)" stroke-width="1" opacity="0.00784313725490196" d="M 0.5 0 L 640 0.5 L 639.5 374 L 0 373.5 L 0.5 0 Z M 248 8 L 247 9 L 241 10 L 233 14 L 223 24 L 220 29 L 217 38 L 217 53 L 219 57 L 218 62 L 206 90 L 206 92 L 204 95 L 204 97 L 202 100 L 202 102 L 199 107 L 199 109 L 187 137 L 187 139 L 185 142 L 185 144 L 180 155 L 164 147 L 149 142 L 141 141 L 140 140 L 134 140 L 133 139 L 122 139 L 121 143 L 120 144 L 106 144 L 105 145 L 100 145 L 99 146 L 95 146 L 94 147 L 84 149 L 64 158 L 46 171 L 35 182 L 21 202 L 15 215 L 11 227 L 10 235 L 9 236 L 9 243 L 8 244 L 8 267 L 9 268 L 9 274 L 10 275 L 10 279 L 12 284 L 12 287 L 20 307 L 28 320 L 36 330 L 51 343 L 68 354 L 88 362 L 95 363 L 96 364 L 100 364 L 101 365 L 107 365 L 108 366 L 132 366 L 133 365 L 139 365 L 140 364 L 148 363 L 160 359 L 163 357 L 165 357 L 175 352 L 192 340 Q 202 332 209 321 L 214 323 L 220 314 L 227 300 L 227 298 L 231 289 L 232 282 L 233 281 L 233 277 L 234 276 L 234 271 L 235 270 L 235 257 L 236 256 L 235 254 L 235 241 L 234 240 L 234 234 L 233 233 L 233 230 L 232 229 L 232 226 L 231 225 L 231 222 L 229 216 L 219 195 L 209 181 L 190 163 L 197 147 L 200 148 L 319 253 L 316 260 Q 317 264 315 266 Q 314 269 316 270 L 316 276 L 318 282 L 323 290 L 332 297 L 338 300 L 344 301 L 345 302 L 354 302 L 361 325 L 355 325 L 353 327 L 354 328 L 354 338 L 385 338 L 385 326 L 375 325 L 369 311 L 369 308 L 366 299 L 373 294 L 381 284 L 384 276 L 384 272 L 392 271 L 393 270 L 406 270 L 408 285 L 411 294 L 413 297 L 413 299 L 422 316 L 431 328 L 444 340 L 461 352 L 471 357 L 473 357 L 476 359 L 488 363 L 496 364 L 497 365 L 503 365 L 504 366 L 528 366 L 529 365 L 535 365 L 536 364 L 540 364 L 545 362 L 548 362 L 568 354 L 581 346 L 592 337 L 607 320 L 617 303 L 625 279 L 626 269 L 627 268 L 627 263 L 632 262 L 632 243 L 631 242 L 631 236 L 630 235 L 630 231 L 629 230 L 628 223 L 625 214 L 615 194 L 603 178 L 588 163 L 573 153 L 563 148 L 561 148 L 558 146 L 549 143 L 542 142 L 541 141 L 537 141 L 536 140 L 530 140 L 529 139 L 503 139 L 502 140 L 496 140 L 495 141 L 487 142 L 483 144 L 480 144 L 465 151 L 462 149 L 456 137 L 432 97 L 443 71 L 453 65 L 455 65 L 475 55 L 477 55 L 482 49 Q 483 42 481 40 L 475 34 L 453 34 L 452 33 L 389 33 L 387 34 L 383 40 L 384 45 L 388 48 L 403 55 L 405 57 L 430 69 L 430 72 L 425 81 L 425 83 L 421 90 L 421 92 L 419 95 L 218 95 L 222 83 L 224 80 L 224 78 L 227 73 L 227 71 L 232 60 L 232 57 L 229 50 L 229 41 Q 231 40 230 37 L 234 30 L 242 23 L 250 20 L 259 20 L 260 21 L 267 22 L 271 24 L 274 24 L 275 25 L 278 25 L 279 26 L 282 26 L 288 28 L 290 21 L 290 18 L 291 17 L 289 15 L 274 12 L 273 11 L 270 11 L 266 9 L 262 9 L 261 8 L 248 8 Z " /><path fill="rgb(0,0,0)" stroke="rgb(0,0,0)" stroke-width="1" opacity="0.00784313725490196" d="M 212.5 107 L 413 107.5 L 412 111.5 L 408 118.5 L 408 120.5 L 404 127.5 L 404 129.5 L 391 156.5 L 391 158.5 L 387 165.5 L 387 167.5 L 383 174.5 L 383 176.5 L 379 183.5 L 379 185.5 L 375 192.5 L 375 194.5 L 371 201.5 L 371 203.5 L 367 210.5 L 367 212.5 L 363 219.5 L 363 221.5 L 357.5 233 L 346.5 233 L 345 231.5 L 345 228.5 L 339 210.5 L 349 209.5 L 348.5 198 L 317 198.5 L 317.5 210 L 326 210.5 L 334 236.5 L 325.5 242 L 202 134.5 L 202 132.5 L 204 129.5 L 204 127.5 L 206 124.5 L 206 122.5 L 208 119.5 L 208 117.5 L 212.5 107 Z " /><path fill="rgb(0,0,0)" stroke="rgb(0,0,0)" stroke-width="1" opacity="0.00784313725490196" d="M 425.5 110 L 441 135.5 L 451 154.5 L 453 156.5 Q 437.6 166.6 426 180.5 L 416 194.5 L 406 215.5 L 404 221.5 L 404 224.5 L 403 225.5 L 403 228.5 L 402 229.5 L 402 233.5 L 401 234.5 Q 402.2 239.2 400 240.5 L 400 251.5 L 399 252.5 L 398.5 258 L 387.5 258 L 384.5 259 L 378 246.5 L 370.5 239 L 369 238.5 L 372 229.5 L 376 222.5 L 376 220.5 L 380 213.5 L 380 211.5 L 384 204.5 L 384 202.5 L 388 195.5 L 388 193.5 L 392 186.5 L 392 184.5 L 396 177.5 L 396 175.5 L 400 168.5 L 400 166.5 L 404 159.5 L 404 157.5 L 408 150.5 L 408 148.5 L 412 141.5 L 412 139.5 L 416 132.5 L 416 130.5 L 420 123.5 L 420 121.5 L 425.5 110 Z " /><path fill="rgb(0,0,0)" stroke="rgb(0,0,0)" stroke-width="1" opacity="0.00784313725490196" d="M 107.5 162 L 130.5 162 L 131.5 163 L 141.5 164 L 145.5 166 L 151.5 167 L 156.5 170 L 158.5 170 L 171 177.5 L 164 193.5 L 164 195.5 L 161 200.5 L 161 202.5 L 159 205.5 L 159 207.5 L 157 210.5 L 157 212.5 L 155 215.5 L 151 227.5 L 147 235.5 L 138.5 244 L 130.5 248 Q 127.3 247.3 126.5 249 L 117.5 249 L 114 251.5 Q 112.3 253.3 113 257.5 L 116.5 261 L 129.5 261 L 142.5 256 L 148.5 252 L 155 245.5 L 161 235.5 L 161 233.5 L 164 228.5 L 164 226.5 L 166 223.5 L 166 221.5 L 168 218.5 L 172 206.5 L 175 201.5 L 179 189.5 L 181.5 186 L 187 190.5 L 196 201.5 L 201 209.5 L 209 228.5 L 209 231.5 L 211 236.5 L 211 241.5 L 212 242.5 L 212 267.5 L 211 268.5 L 211 273.5 L 210 274.5 L 209 281.5 L 201 300.5 L 192 313.5 L 177.5 328 L 167.5 335 L 153.5 342 L 144.5 345 L 136.5 346 L 135.5 347 L 129.5 347 L 128.5 348 L 109.5 348 L 108.5 347 L 102.5 347 L 101.5 346 L 97.5 346 L 93.5 344 L 90.5 344 L 72.5 336 L 58.5 326 L 48 315.5 L 38 301.5 L 30 283.5 L 30 280.5 L 27 271.5 L 27 265.5 L 26 264.5 L 26 245.5 L 27 244.5 L 27 238.5 L 28 237.5 L 29 229.5 L 38 208.5 L 47 195.5 L 59.5 183 L 70.5 175 L 84.5 168 L 96.5 164 L 106.5 163 L 107.5 162 Z " /><path fill="rgb(0,0,0)" stroke="rgb(0,0,0)" stroke-width="1" opacity="0.00784313725490196" d="M 504.5 162 L 527.5 162 L 528.5 163 L 538.5 164 L 550.5 168 L 570.5 179 L 588 195.5 L 597 208.5 L 606 229.5 L 607 237.5 L 608 238.5 L 608 244.5 L 609 245.5 L 609 264.5 L 608 265.5 L 608 271.5 L 607 272.5 L 605 283.5 L 597 301.5 L 587 315.5 L 576.5 326 L 562.5 336 L 544.5 344 L 541.5 344 L 532.5 347 L 526.5 347 L 525.5 348 L 506.5 348 L 505.5 347 L 499.5 347 L 498.5 346 L 490.5 345 L 481.5 342 L 467.5 335 Q 453.2 326.3 443 313.5 L 430 292.5 L 430 290.5 L 426 281.5 L 426 278.5 L 424 273.5 L 424 268.5 L 436.5 268 L 437.5 267 L 451.5 267 L 452.5 266 L 466.5 266 L 467.5 265 L 481.5 265 L 482.5 264 L 497.5 264 L 498.5 263 L 505.5 263 L 512.5 268 L 519.5 268 Q 524.3 266.3 527 262.5 L 529 258.5 L 529 251.5 Q 527 246 522.5 243 L 516 241.5 L 501 214.5 L 499 212.5 L 497 207.5 L 488 193.5 L 486 188.5 L 477 174.5 L 476 170.5 L 489.5 165 L 492.5 165 L 497.5 163 L 503.5 163 L 504.5 162 Z " /><path fill="rgb(0,0,0)" stroke="rgb(0,0,0)" stroke-width="1" opacity="0.00784313725490196" d="M 464.5 177 L 505 247.5 L 502.5 251 L 493.5 251 L 492.5 252 L 478.5 252 L 477.5 253 L 463.5 253 L 462.5 254 L 448.5 254 L 447.5 255 L 433.5 255 L 432.5 256 L 423.5 256 L 423 242.5 L 424 241.5 L 424 236.5 L 425 235.5 L 426 228.5 L 434 209.5 L 442 197.5 L 452.5 186 L 464.5 177 Z " /><path fill="rgb(0,0,0)" stroke="rgb(0,0,0)" stroke-width="1" opacity="0.996078431372549" d="M 247.5 8 L 260.5 8 L 261.5 9 L 265.5 9 L 269.5 11 L 272.5 11 L 273.5 12 L 288.5 15 L 291 16.5 L 290 17.5 L 290 20.5 L 287.5 28 L 281.5 26 L 278.5 26 L 277.5 25 L 274.5 25 L 273.5 24 L 270.5 24 L 266.5 22 L 259.5 21 L 258.5 20 L 249.5 20 L 241.5 23 L 234 29.5 L 230 36.5 Q 230.8 39.8 229 40.5 L 229 49.5 L 232 56.5 L 232 59.5 L 227 70.5 L 227 72.5 L 224 77.5 L 224 79.5 L 222 82.5 L 218 94.5 L 418.5 95 L 421 91.5 L 421 89.5 L 425 82.5 L 425 80.5 L 430 71.5 L 430 68.5 L 404.5 57 L 402.5 55 L 387.5 48 L 384 44.5 L 383 39.5 L 386.5 34 L 388.5 33 L 451.5 33 L 452.5 34 L 474.5 34 L 481 39.5 Q 483.2 42.3 482 48.5 L 476.5 55 L 474.5 55 L 454.5 65 L 452.5 65 L 443 70.5 L 432 96.5 L 456 136.5 L 462 148.5 L 464.5 151 L 479.5 144 L 482.5 144 L 486.5 142 L 494.5 141 L 495.5 140 L 501.5 140 L 502.5 139 L 528.5 139 L 529.5 140 L 535.5 140 L 536.5 141 L 540.5 141 L 541.5 142 L 548.5 143 L 557.5 146 L 560.5 148 L 562.5 148 L 572.5 153 L 587.5 163 L 603 177.5 L 615 193.5 L 625 213.5 L 628 222.5 L 629 229.5 L 630 230.5 L 630 234.5 L 631 235.5 L 631 241.5 L 632 242.5 L 632 261.5 L 627 262.5 L 627 267.5 L 626 268.5 L 625 278.5 L 617 302.5 L 607 319.5 L 591.5 337 L 580.5 346 L 567.5 354 L 547.5 362 L 544.5 362 L 539.5 364 L 535.5 364 L 534.5 365 L 528.5 365 L 527.5 366 L 503.5 366 L 502.5 365 L 496.5 365 L 495.5 364 L 487.5 363 L 475.5 359 L 472.5 357 L 470.5 357 L 460.5 352 L 443.5 340 L 431 327.5 L 422 315.5 L 413 298.5 L 413 296.5 L 411 293.5 L 408 284.5 L 405.5 270 L 392.5 270 L 391.5 271 L 384 271.5 L 384 275.5 L 381 283.5 L 372.5 294 L 366 298.5 L 369 307.5 L 369 310.5 L 374.5 325 L 385 325.5 L 384.5 338 L 354 337.5 L 354 327.5 L 353 326.5 L 354.5 325 L 361 324.5 L 353.5 302 L 344.5 302 L 343.5 301 L 337.5 300 L 331.5 297 L 323 289.5 L 318 281.5 L 316 275.5 L 316 269.5 Q 314.3 268.8 315 265.5 Q 317.3 264.3 316 259.5 L 319 252.5 L 199.5 148 L 196.5 147 L 190 162.5 L 209 180.5 L 219 194.5 L 229 215.5 L 231 221.5 L 231 224.5 L 232 225.5 L 232 228.5 L 233 229.5 L 233 232.5 L 234 233.5 L 234 239.5 L 235 240.5 L 235 253.5 L 236 255.5 L 235 256.5 L 235 269.5 L 234 270.5 L 234 275.5 L 233 276.5 L 233 280.5 L 232 281.5 L 231 288.5 L 227 297.5 L 227 299.5 L 220 313.5 L 213.5 323 L 208.5 321 Q 201.6 332.1 191.5 340 L 174.5 352 L 164.5 357 L 162.5 357 L 159.5 359 L 147.5 363 L 139.5 364 L 138.5 365 L 132.5 365 L 131.5 366 L 107.5 366 L 106.5 365 L 100.5 365 L 99.5 364 L 95.5 364 L 94.5 363 L 87.5 362 L 67.5 354 L 50.5 343 L 36 329.5 L 28 319.5 L 20 306.5 L 12 286.5 L 12 283.5 L 10 278.5 L 10 274.5 L 9 273.5 L 9 267.5 L 8 266.5 L 8 243.5 L 9 242.5 L 9 235.5 L 10 234.5 L 11 226.5 L 15 214.5 L 21 201.5 L 35 181.5 L 45.5 171 L 63.5 158 L 83.5 149 L 93.5 147 L 94.5 146 L 98.5 146 L 99.5 145 L 104.5 145 L 105.5 144 L 119.5 144 L 121 142.5 L 121.5 139 L 132.5 139 L 133.5 140 L 139.5 140 L 140.5 141 L 148.5 142 L 163.5 147 L 179.5 155 L 185 143.5 L 185 141.5 L 187 138.5 L 187 136.5 L 199 108.5 L 199 106.5 L 202 101.5 L 202 99.5 L 204 96.5 L 204 94.5 L 206 91.5 L 206 89.5 L 218 61.5 L 219 56.5 L 217 52.5 L 217 37.5 L 220 28.5 L 223 23.5 L 232.5 14 L 240.5 10 L 246.5 9 L 247.5 8 Z M 213 107 L 208 118 L 208 120 L 206 123 L 206 125 L 204 128 L 204 130 L 202 133 L 202 135 L 326 242 L 334 237 L 326 211 L 318 210 L 317 199 L 349 198 L 349 210 L 339 211 L 345 229 L 345 232 L 347 233 L 358 233 L 363 222 L 363 220 L 367 213 L 367 211 L 371 204 L 371 202 L 375 195 L 375 193 L 379 186 L 379 184 L 383 177 L 383 175 L 387 168 L 387 166 L 391 159 L 391 157 L 404 130 L 404 128 L 408 121 L 408 119 L 412 112 L 413 108 L 213 107 Z M 426 110 L 420 122 L 420 124 L 416 131 L 416 133 L 412 140 L 412 142 L 408 149 L 408 151 L 404 158 L 404 160 L 400 167 L 400 169 L 396 176 L 396 178 L 392 185 L 392 187 L 388 194 L 388 196 L 384 203 L 384 205 L 380 212 L 380 214 L 376 221 L 376 223 L 372 230 L 369 239 L 371 239 L 378 247 L 385 259 L 388 258 L 399 258 L 399 253 L 400 252 L 400 241 Q 402 239 401 235 L 402 234 L 402 230 L 403 229 L 403 226 L 404 225 L 404 222 L 406 216 L 416 195 L 426 181 Q 438 167 453 157 L 451 155 L 441 136 L 426 110 Z M 108 162 L 107 163 L 97 164 L 85 168 L 71 175 L 60 183 L 47 196 L 38 209 L 29 230 L 28 238 L 27 239 L 27 245 L 26 246 L 26 265 L 27 266 L 27 272 L 30 281 L 30 284 L 38 302 L 48 316 L 59 326 L 73 336 L 91 344 L 94 344 L 98 346 L 102 346 L 103 347 L 109 347 L 110 348 L 129 348 L 130 347 L 136 347 L 137 346 L 145 345 L 154 342 L 168 335 L 178 328 L 192 314 L 201 301 L 209 282 L 210 275 L 211 274 L 211 269 L 212 268 L 212 243 L 211 242 L 211 237 L 209 232 L 209 229 L 201 210 L 196 202 L 187 191 L 182 186 L 179 190 L 175 202 L 172 207 L 168 219 L 166 222 L 166 224 L 164 227 L 164 229 L 161 234 L 161 236 L 155 246 L 149 252 L 143 256 L 130 261 L 117 261 L 113 258 Q 112 253 114 252 L 118 249 L 127 249 Q 127 247 131 248 L 139 244 L 147 236 L 151 228 L 155 216 L 157 213 L 157 211 L 159 208 L 159 206 L 161 203 L 161 201 L 164 196 L 164 194 L 171 178 L 159 170 L 157 170 L 152 167 L 146 166 L 142 164 L 132 163 L 131 162 L 108 162 Z M 505 162 L 504 163 L 498 163 L 493 165 L 490 165 L 476 171 L 477 175 L 486 189 L 488 194 L 497 208 L 499 213 L 501 215 L 516 242 L 523 243 Q 527 246 529 252 L 529 259 L 527 263 Q 524 266 520 268 L 513 268 L 506 263 L 499 263 L 498 264 L 483 264 L 482 265 L 468 265 L 467 266 L 453 266 L 452 267 L 438 267 L 437 268 L 424 269 L 424 274 L 426 279 L 426 282 L 430 291 L 430 293 L 443 314 Q 453 326 468 335 L 482 342 L 491 345 L 499 346 L 500 347 L 506 347 L 507 348 L 526 348 L 527 347 L 533 347 L 542 344 L 545 344 L 563 336 L 577 326 L 587 316 L 597 302 L 605 284 L 607 273 L 608 272 L 608 266 L 609 265 L 609 246 L 608 245 L 608 239 L 607 238 L 606 230 L 597 209 L 588 196 L 571 179 L 551 168 L 539 164 L 529 163 L 528 162 L 505 162 Z M 465 177 L 453 186 L 442 198 L 434 210 L 426 229 L 425 236 L 424 237 L 424 242 L 423 243 L 424 256 L 433 256 L 434 255 L 448 255 L 449 254 L 463 254 L 464 253 L 478 253 L 479 252 L 493 252 L 494 251 L 503 251 L 505 248 L 465 177 Z " /></svg>