<svg viewBox="0 0 640 427" version="1.1" xmlns="http://www.w3.org/2000/svg" desc="Created with imagetracer.js version 1.2.6" ><path fill="rgb(41,37,37)" stroke="rgb(41,37,37)" stroke-width="1" opacity="0.996078431372549" d="M 254.5 93 L 257 93.5 L 254.5 94 L 254.5 93 Z " /><path fill="rgb(41,37,37)" stroke="rgb(41,37,37)" stroke-width="1" opacity="0.996078431372549" d="M 378.5 96 L 397 96.5 L 394 97.5 L 399.5 98 Q 400.5 96 401.5 98 L 404.5 99 L 406.5 98 Q 407.5 100 408.5 98 Q 413.3 97.2 415.5 99 L 417.5 98 Q 418.5 100 419.5 98 L 422.5 97 Q 424 98 421.5 99 L 417.5 100 L 416 99.5 L 417.5 102 L 419 102.5 L 418 104.5 L 421 106.5 L 419.5 106 L 418 106.5 L 419 108.5 L 417 108.5 L 418 110.5 L 416.5 110 L 414 111.5 L 415 113.5 L 413 114.5 Q 412.5 118 415 118.5 L 413 118.5 L 413.5 120 L 416 119.5 Q 415.5 116.5 417.5 116 L 420 117.5 L 419 119.5 Q 421.3 120.8 418.5 122 L 417.5 119 Q 414.8 120.3 417 121.5 L 414 125.5 L 414.5 127 L 413 126.5 L 412.5 141 L 411.5 114 L 409.5 117 L 407.5 116 L 375.5 116 L 374.5 115 L 338 114.5 L 347 113.5 L 329.5 113 L 328.5 114 L 299.5 114 L 298.5 113 L 260.5 113 L 260 118.5 L 259 119.5 L 259 127.5 L 258 128.5 L 258 137.5 L 257 138.5 L 256 156.5 L 255 157.5 L 255 167.5 L 254 168.5 L 253 187.5 L 252 188.5 L 252 196.5 L 251 197.5 L 251 206.5 L 250 207.5 L 250 215.5 L 249 216.5 L 249 226.5 L 248 227.5 L 248 235.5 L 247 236.5 L 247 246.5 L 246 247.5 L 246 255.5 L 245 256.5 L 245 266.5 L 244 267.5 L 244 276.5 L 243 277.5 L 242 296.5 L 241 297.5 L 241 307.5 L 240 308.5 Q 242.3 309.7 239.5 311 L 238 311.5 L 238.5 313 L 241.5 314 L 254.5 314 L 255.5 315 L 269.5 315 L 270.5 316 L 285.5 316 L 286.5 317 L 297.5 317 L 298.5 318 L 330.5 319 L 332.5 320 Q 333.5 318 334.5 320 L 349.5 320 L 350.5 321 L 362.5 321 L 363.5 322 L 379.5 322 L 380.5 323 L 404.5 324 L 407 322.5 L 407 316.5 L 408 315.5 L 408.5 289 L 409 312.5 L 410 313.5 Q 408 314.5 409 318.5 L 410 318.5 L 410.5 317 L 413.5 316 L 414 319.5 L 413 320.5 L 413.5 322 L 411.5 321 L 410 323.5 L 411.5 324 Q 412.8 321.8 414 324.5 L 411 325.5 L 413 326.5 L 414 330.5 L 412.5 333 L 411.5 330 L 410 330.5 L 411 332.5 L 410 335.5 L 409 337.5 L 409.5 339 L 407.5 338 L 407 339.5 L 413 341.5 L 413.5 343 L 414.5 341 L 416.5 342 L 416.5 340 L 418 341.5 Q 415.8 342.8 418.5 344 L 420.5 343 L 420 344.5 L 420.5 346 L 422 345.5 L 421.5 347 L 423 347.5 L 423.5 350 L 425 349.5 Q 423 350.5 425 351.5 L 424.5 355 L 423 355.5 Q 423.8 359.3 421.5 360 Q 420.5 358 419.5 360 L 418 360.5 Q 418.8 365.3 416.5 367 Q 413.3 369.3 406.5 368 Q 405.5 366 404.5 368 L 402.5 367 Q 401.7 368.8 398.5 368 L 396 366.5 L 395.5 365 L 394.5 366 L 388.5 366 L 387.5 367 L 379.5 367 L 378.5 366 L 351.5 365 L 350.5 364 L 341.5 364 L 339.5 363 L 337.5 364 L 336.5 362 L 326.5 362 L 325.5 363 L 320.5 361 Q 319.5 363 318.5 361 L 316.5 362 Q 315.5 360 314.5 362 L 307.5 362 L 304.5 360 L 301.5 361 Q 300.5 359 299.5 361 L 297.5 360 L 295.5 361 L 289.5 359 L 279.5 359 L 278.5 358 L 277.5 359 L 265.5 359 L 264.5 358 L 249.5 358 L 247.5 356 L 246.5 357 L 236.5 357 L 235.5 356 L 223.5 356 Q 222.8 354.3 219.5 355 L 217 352.5 Q 219 351.5 217 350.5 L 216 346.5 L 217 345.5 L 217.5 335 L 219 334.5 L 218 333.5 L 218 327.5 Q 220.2 326.2 219 321.5 L 221 318.5 L 220 316.5 Q 222 315.5 220 314.5 L 220.5 311 L 223.5 313 L 225 312.5 L 225.5 315 L 227 311.5 Q 225.8 308.8 224.5 311 L 222 309.5 Q 221.5 305.5 224.5 305 L 227 304.5 L 226 302.5 L 228 301.5 L 227 299.5 L 228.5 299 L 230.5 301 L 231 300.5 L 230 297.5 L 231 297.5 L 231.5 299 L 232.5 298 L 234 298.5 L 233.5 296 Q 232.3 298.3 231 295.5 L 231.5 294 L 232.5 296 L 234 293.5 L 233.5 292 L 235 291.5 L 234 289.5 L 237 287.5 L 237 280.5 L 238 277.5 Q 236 276.5 238 275.5 L 236.5 272 L 235 271.5 L 237 269.5 L 236.5 268 Q 237.5 270 238.5 268 L 241 266.5 L 240 264.5 L 241 262.5 L 238 263.5 L 237.5 262 L 235 260.5 L 238 259.5 L 238.5 258 Q 240.2 261.8 242 258.5 Q 240.4 250.4 244 247.5 Q 242.2 246.8 243 243.5 L 244 240.5 L 243.5 239 L 245 238.5 L 245 232.5 L 246 231.5 Q 244 230.5 246 229.5 L 246 220.5 L 247 219.5 Q 245 218.5 247 217.5 L 247 209.5 L 248 208.5 Q 246 207.5 248 206.5 Q 246.8 201.8 249 200.5 Q 247 199.5 249 198.5 L 248 196.5 L 249 195.5 L 249.5 183 L 251 182.5 L 249 180.5 L 250 177.5 L 250 172.5 L 251 171.5 L 251.5 166 L 253 165.5 Q 249.5 164 252 162.5 Q 251 158.5 253 157.5 L 253 148.5 L 254 147.5 L 254 139.5 L 255 138.5 L 255 131.5 L 256 130.5 Q 254 129.5 256 128.5 L 257 110.5 L 258.5 109 L 310.5 109 L 311.5 110 L 353.5 110 L 354.5 111 L 356.5 110 L 357.5 111 L 373.5 111 L 374.5 112 L 375.5 111 L 385 110.5 L 380.5 110 L 379.5 109 L 378.5 110 L 369.5 110 L 369 108.5 L 372 107.5 L 368 106.5 L 367.5 105 L 365.5 109 L 362.5 105 L 361 105.5 L 360 102.5 L 361.5 103 L 363 103.5 L 363.5 105 L 369 103.5 L 368.5 101 L 367.5 103 L 366 102.5 L 365.5 101 L 364 101.5 Q 364.8 98.3 363 97.5 L 364.5 98 L 365.5 97 L 377.5 97 L 378.5 96 Z M 366 98 Q 364 99 367 99 L 368 101 L 369 99 L 366 98 Z M 371 99 L 370 101 L 372 100 L 375 102 L 375 100 L 371 99 Z M 372 103 Q 369 104 371 105 L 372 105 L 372 103 Z M 377 104 L 376 107 Q 377 109 378 108 L 377 104 Z M 416 104 L 415 106 Q 416 107 417 105 L 416 104 Z M 374 106 L 373 108 L 373 109 L 374 109 L 374 106 Z M 408 106 Q 406 107 409 108 L 409 107 L 408 106 Z M 399 109 L 399 112 L 406 112 L 403 110 L 400 111 L 399 109 Z M 261 111 L 261 112 L 289 112 L 261 111 Z M 316 112 L 316 113 L 326 113 L 316 112 Z M 380 114 L 380 115 L 408 115 L 380 114 Z M 415 121 L 414 123 L 416 123 L 416 122 L 415 121 Z M 226 317 L 226 320 Q 229 319 226 317 Z M 411 319 Q 408 320 410 321 L 413 320 L 411 319 Z M 410 328 L 407 330 L 409 332 L 410 330 L 410 328 Z M 343 343 Q 341 344 344 345 L 344 344 L 343 343 Z " /><path fill="rgb(41,37,37)" stroke="rgb(41,37,37)" stroke-width="1" opacity="0.996078431372549" d="M 349.5 100 Q 350.5 102 351.5 100 L 354 100.5 L 350 102.5 L 350.5 104 L 353.5 103 L 357 104.5 L 355.5 107 L 352.5 106 L 351 106.5 L 350.5 105 L 349 105.5 Q 351.3 104.3 348.5 103 L 346 107.5 L 346.5 109 L 345 108.5 L 346.5 103 L 348 102.5 L 349.5 100 Z " /><path fill="rgb(41,37,37)" stroke="rgb(41,37,37)" stroke-width="1" opacity="0.996078431372549" d="M 359.5 106 L 360 108.5 L 358.5 109 L 359 107.5 L 359.5 106 Z " /><path fill="rgb(41,37,37)" stroke="rgb(41,37,37)" stroke-width="1" opacity="0.996078431372549" d="M 340.5 107 Q 343 108 341.5 109 L 340 108.5 L 340.5 107 Z " /><path fill="rgb(41,37,37)" stroke="rgb(41,37,37)" stroke-width="1" opacity="0.996078431372549" d="M 361.5 108 L 363 108.5 L 362.5 110 Q 360 109 361.5 108 Z " /><path fill="rgb(41,37,37)" stroke="rgb(41,37,37)" stroke-width="1" opacity="0.996078431372549" d="M 421.5 109 L 422 110.5 Q 421 113 420 111.5 L 421.5 109 Z " /><path fill="rgb(41,37,37)" stroke="rgb(41,37,37)" stroke-width="1" opacity="0.996078431372549" d="M 422.5 113 L 424 113.5 L 422.5 117 L 422.5 113 Z " /><path fill="rgb(41,37,37)" stroke="rgb(41,37,37)" stroke-width="1" opacity="0.996078431372549" d="M 417.5 124 L 420 125.5 L 418.5 125 Q 416.1 124.9 417.5 124 Z " /><path fill="rgb(41,37,37)" stroke="rgb(41,37,37)" stroke-width="1" opacity="0.996078431372549" d="M 416.5 126 L 419 127.5 L 415.5 129 L 416 127.5 L 416.5 126 Z " /><path fill="rgb(41,37,37)" stroke="rgb(41,37,37)" stroke-width="1" opacity="0.996078431372549" d="M 414.5 135 L 417 136.5 L 415.5 136 Q 413.1 135.9 414.5 135 Z " /><path fill="rgb(41,37,37)" stroke="rgb(41,37,37)" stroke-width="1" opacity="0.996078431372549" d="M 409.5 138 L 410 161.5 L 409 161.5 L 409.5 138 Z " /><path fill="rgb(41,37,37)" stroke="rgb(41,37,37)" stroke-width="1" opacity="0.996078431372549" d="M 412.5 142 L 413 146.5 L 412 146.5 L 412.5 142 Z " /><path fill="rgb(41,37,37)" stroke="rgb(41,37,37)" stroke-width="1" opacity="0.996078431372549" d="M 411.5 157 L 412 181.5 L 411 181.5 L 411.5 157 Z " /><path fill="rgb(41,37,37)" stroke="rgb(41,37,37)" stroke-width="1" opacity="0.996078431372549" d="M 408.5 170 L 409 214.5 L 408 214.5 L 408.5 170 Z " /><path fill="rgb(41,37,37)" stroke="rgb(41,37,37)" stroke-width="1" opacity="0.996078431372549" d="M 411.5 184 L 413 184.5 L 411.5 189 L 411.5 184 Z " /><path fill="rgb(41,37,37)" stroke="rgb(41,37,37)" stroke-width="1" opacity="0.996078431372549" d="M 410.5 213 L 411 215.5 L 410 215.5 L 410.5 213 Z " /><path fill="rgb(41,37,37)" stroke="rgb(41,37,37)" stroke-width="1" opacity="0.996078431372549" d="M 407.5 216 L 408 254.5 Q 407 257 406 255.5 L 407 254.5 L 407.5 216 Z " /><path fill="rgb(41,37,37)" stroke="rgb(41,37,37)" stroke-width="1" opacity="0.996078431372549" d="M 410.5 221 L 411 223.5 L 410 223.5 L 410.5 221 Z " /><path fill="rgb(41,37,37)" stroke="rgb(41,37,37)" stroke-width="1" opacity="0.996078431372549" d="M 410.5 226 L 411 229.5 L 410 229.5 L 410.5 226 Z " /><path fill="rgb(41,37,37)" stroke="rgb(41,37,37)" stroke-width="1" opacity="0.996078431372549" d="M 409.5 240 L 410 259.5 L 409 259.5 L 409.5 240 Z " /><path fill="rgb(41,37,37)" stroke="rgb(41,37,37)" stroke-width="1" opacity="0.996078431372549" d="M 237.5 250 L 239.5 251 L 241 250.5 L 240.5 252 Q 236.7 252.5 237.5 250 Z " /><path fill="rgb(41,37,37)" stroke="rgb(41,37,37)" stroke-width="1" opacity="0.996078431372549" d="M 416.5 256 L 417 258.5 L 416 258.5 L 416.5 256 Z " /><path fill="rgb(41,37,37)" stroke="rgb(41,37,37)" stroke-width="1" opacity="0.996078431372549" d="M 413.5 257 L 415 259.5 Q 414 261 413 258.5 L 413.5 257 Z " /><path fill="rgb(41,37,37)" stroke="rgb(41,37,37)" stroke-width="1" opacity="0.996078431372549" d="M 406.5 258 L 407 297.5 L 406 298.5 L 405.5 321 L 405 297.5 L 406 296.5 L 406.5 258 Z " /><path fill="rgb(41,37,37)" stroke="rgb(41,37,37)" stroke-width="1" opacity="0.996078431372549" d="M 409.5 261 L 410 269.5 L 409 269.5 L 409.5 261 Z " /><path fill="rgb(41,37,37)" stroke="rgb(41,37,37)" stroke-width="1" opacity="0.996078431372549" d="M 409.5 271 L 410 273.5 L 409 273.5 L 409.5 271 Z " /><path fill="rgb(41,37,37)" stroke="rgb(41,37,37)" stroke-width="1" opacity="0.996078431372549" d="M 409.5 278 L 410 280.5 L 409 280.5 L 409.5 278 Z " /><path fill="rgb(41,37,37)" stroke="rgb(41,37,37)" stroke-width="1" opacity="0.996078431372549" d="M 235.5 282 L 236 283.5 Q 235 286 234 284.5 L 235.5 282 Z " /><path fill="rgb(41,37,37)" stroke="rgb(41,37,37)" stroke-width="1" opacity="0.996078431372549" d="M 222.5 292 L 224 295.5 L 224 298.5 L 223.5 300 L 225 300.5 L 224 301.5 L 224.5 303 L 222.5 302 L 222 303.5 L 222.5 305 Q 220.3 304.3 221 300.5 L 223 297.5 Q 220.6 296.1 222.5 292 Z " /><path fill="rgb(41,37,37)" stroke="rgb(41,37,37)" stroke-width="1" opacity="0.996078431372549" d="M 225.5 295 L 228.5 296 L 230 295.5 Q 229.5 297.5 226.5 297 Q 224 296 225.5 295 Z " /><path fill="rgb(41,37,37)" stroke="rgb(41,37,37)" stroke-width="1" opacity="0.996078431372549" d="M 414.5 305 L 414 306.5 L 412.5 310 L 412 308.5 L 414.5 305 Z " /><path fill="rgb(41,37,37)" stroke="rgb(41,37,37)" stroke-width="1" opacity="0.996078431372549" d="M 415.5 311 L 416 313.5 L 415 313.5 L 415.5 311 Z " /><path fill="rgb(41,37,37)" stroke="rgb(41,37,37)" stroke-width="1" opacity="0.996078431372549" d="M 411.5 312 L 414 313.5 L 413.5 315 L 411 312.5 L 411.5 312 Z " /><path fill="rgb(41,37,37)" stroke="rgb(41,37,37)" stroke-width="1" opacity="0.996078431372549" d="M 266.5 313 L 271 313.5 L 266.5 314 L 266.5 313 Z " /><path fill="rgb(41,37,37)" stroke="rgb(41,37,37)" stroke-width="1" opacity="0.996078431372549" d="M 296.5 315 L 303 315.5 L 296.5 316 L 296.5 315 Z " /><path fill="rgb(41,37,37)" stroke="rgb(41,37,37)" stroke-width="1" opacity="0.996078431372549" d="M 310.5 316 L 318 316.5 L 310.5 317 L 310.5 316 Z " /><path fill="rgb(41,37,37)" stroke="rgb(41,37,37)" stroke-width="1" opacity="0.996078431372549" d="M 325.5 317 L 334 317.5 L 325.5 318 L 325.5 317 Z " /><path fill="rgb(41,37,37)" stroke="rgb(41,37,37)" stroke-width="1" opacity="0.996078431372549" d="M 346.5 318 L 350 318.5 L 346.5 319 L 346.5 318 Z " /><path fill="rgb(41,37,37)" stroke="rgb(41,37,37)" stroke-width="1" opacity="0.996078431372549" d="M 357.5 319 L 367 319.5 L 357.5 320 L 357.5 319 Z " /><path fill="rgb(41,37,37)" stroke="rgb(41,37,37)" stroke-width="1" opacity="0.996078431372549" d="M 376.5 320 L 382 320.5 L 376.5 321 L 376.5 320 Z " /><path fill="rgb(41,37,37)" stroke="rgb(41,37,37)" stroke-width="1" opacity="0.996078431372549" d="M 389.5 321 L 400 321.5 L 389.5 322 L 389.5 321 Z " /><path fill="rgb(41,37,37)" stroke="rgb(41,37,37)" stroke-width="1" opacity="0.996078431372549" d="M 411.5 338 L 415 338.5 L 411.5 339 L 411.5 338 Z " /><path fill="rgb(134,0,1)" stroke="rgb(134,0,1)" stroke-width="1" opacity="0.00784313725490196" d="M 429.5 217 L 430 220.5 L 429 220.5 L 429.5 217 Z " /><path fill="rgb(134,0,1)" stroke="rgb(134,0,1)" stroke-width="1" opacity="0.00784313725490196" d="M 428.5 279 L 429 282.5 L 428 282.5 L 428.5 279 Z " /><path fill="rgb(134,0,1)" stroke="rgb(134,0,1)" stroke-width="1" opacity="0.00784313725490196" d="M 427.5 341 L 428 344.5 L 427 344.5 L 427.5 341 Z " /><path fill="rgb(134,0,1)" stroke="rgb(134,0,1)" stroke-width="1" opacity="0.00784313725490196" d="M 227.5 358 L 230 358.5 L 227.5 359 L 227.5 358 Z " /><path fill="rgb(134,0,1)" stroke="rgb(134,0,1)" stroke-width="1" opacity="0.00784313725490196" d="M 397.5 370 L 400 370.5 L 397.5 371 L 397.5 370 Z " /><path fill="rgb(113,113,117)" stroke="rgb(113,113,117)" stroke-width="1" opacity="1" d="M 281.5 113 L 291 113.5 L 281.5 114 L 281.5 113 Z " /><path fill="rgb(113,113,117)" stroke="rgb(113,113,117)" stroke-width="1" opacity="1" d="M 319.5 114 L 330 114.5 L 319.5 115 L 319.5 114 Z " /><path fill="rgb(113,113,117)" stroke="rgb(113,113,117)" stroke-width="1" opacity="1" d="M 357.5 115 L 366 115.5 L 357.5 116 L 357.5 115 Z " /><path fill="rgb(113,113,117)" stroke="rgb(113,113,117)" stroke-width="1" opacity="1" d="M 411.5 115 L 412 120.5 L 410.5 120 L 409 119.5 L 411.5 115 Z " /><path fill="rgb(113,113,117)" stroke="rgb(113,113,117)" stroke-width="1" opacity="1" d="M 395.5 116 L 404 116.5 L 395.5 117 L 395.5 116 Z " /><path fill="rgb(113,113,117)" stroke="rgb(113,113,117)" stroke-width="1" opacity="1" d="M 258.5 131 L 259 133.5 L 258 133.5 L 258.5 131 Z " /><path fill="rgb(113,113,117)" stroke="rgb(113,113,117)" stroke-width="1" opacity="1" d="M 410.5 138 L 411 168.5 L 409.5 169 L 410 167.5 L 410.5 138 Z " /><path fill="rgb(113,113,117)" stroke="rgb(113,113,117)" stroke-width="1" opacity="1" d="M 256.5 150 L 257 152.5 L 256 152.5 L 256.5 150 Z " /><path fill="rgb(113,113,117)" stroke="rgb(113,113,117)" stroke-width="1" opacity="1" d="M 408.5 150 L 409 164.5 L 408 164.5 L 408.5 150 Z " /><path fill="rgb(113,113,117)" stroke="rgb(113,113,117)" stroke-width="1" opacity="1" d="M 254.5 170 L 255 172.5 L 254 172.5 L 254.5 170 Z " /><path fill="rgb(113,113,117)" stroke="rgb(113,113,117)" stroke-width="1" opacity="1" d="M 410.5 170 L 411 172.5 L 410 172.5 L 410.5 170 Z " /><path fill="rgb(113,113,117)" stroke="rgb(113,113,117)" stroke-width="1" opacity="1" d="M 409.5 176 L 410 179.5 L 409 179.5 L 409.5 176 Z " /><path fill="rgb(113,113,117)" stroke="rgb(113,113,117)" stroke-width="1" opacity="1" d="M 253.5 181 L 254 183.5 L 253 183.5 L 253.5 181 Z " /><path fill="rgb(113,113,117)" stroke="rgb(113,113,117)" stroke-width="1" opacity="1" d="M 409.5 181 L 410 196.5 L 409 196.5 L 409.5 181 Z " /><path fill="rgb(113,113,117)" stroke="rgb(113,113,117)" stroke-width="1" opacity="1" d="M 252.5 190 L 253 192.5 L 252 192.5 L 252.5 190 Z " /><path fill="rgb(113,113,117)" stroke="rgb(113,113,117)" stroke-width="1" opacity="1" d="M 407.5 193 L 408 205.5 L 407 205.5 L 407.5 193 Z " /><path fill="rgb(113,113,117)" stroke="rgb(113,113,117)" stroke-width="1" opacity="1" d="M 251.5 200 L 252 202.5 L 251 202.5 L 251.5 200 Z " /><path fill="rgb(113,113,117)" stroke="rgb(113,113,117)" stroke-width="1" opacity="1" d="M 250.5 210 L 251 212.5 L 250 212.5 L 250.5 210 Z " /><path fill="rgb(113,113,117)" stroke="rgb(113,113,117)" stroke-width="1" opacity="1" d="M 249.5 220 L 250 222.5 L 249 222.5 L 249.5 220 Z " /><path fill="rgb(113,113,117)" stroke="rgb(113,113,117)" stroke-width="1" opacity="1" d="M 248.5 230 L 249 232.5 L 248 232.5 L 248.5 230 Z " /><path fill="rgb(113,113,117)" stroke="rgb(113,113,117)" stroke-width="1" opacity="1" d="M 408.5 234 L 409 243.5 L 408 243.5 L 408.5 234 Z " /><path fill="rgb(113,113,117)" stroke="rgb(113,113,117)" stroke-width="1" opacity="1" d="M 406.5 237 L 407 246.5 L 406 246.5 L 406.5 237 Z " /><path fill="rgb(113,113,117)" stroke="rgb(113,113,117)" stroke-width="1" opacity="1" d="M 246.5 249 L 247 252.5 L 246 252.5 L 246.5 249 Z " /><path fill="rgb(113,113,117)" stroke="rgb(113,113,117)" stroke-width="1" opacity="1" d="M 245.5 259 L 246 261.5 L 245 261.5 L 245.5 259 Z " /><path fill="rgb(113,113,117)" stroke="rgb(113,113,117)" stroke-width="1" opacity="1" d="M 244.5 270 L 245 272.5 L 244 272.5 L 244.5 270 Z " /><path fill="rgb(113,113,117)" stroke="rgb(113,113,117)" stroke-width="1" opacity="1" d="M 405.5 278 L 406 289.5 L 405 289.5 L 405.5 278 Z " /><path fill="rgb(113,113,117)" stroke="rgb(113,113,117)" stroke-width="1" opacity="1" d="M 243.5 280 L 244 282.5 L 243 282.5 L 243.5 280 Z " /><path fill="rgb(113,113,117)" stroke="rgb(113,113,117)" stroke-width="1" opacity="1" d="M 242.5 290 L 243 292.5 L 242 292.5 L 242.5 290 Z " /><path fill="rgb(113,113,117)" stroke="rgb(113,113,117)" stroke-width="1" opacity="1" d="M 241.5 300 L 242 302.5 L 241 302.5 L 241.5 300 Z " /><path fill="rgb(113,113,117)" stroke="rgb(113,113,117)" stroke-width="1" opacity="1" d="M 241.5 311 Q 242.5 313 243.5 311 L 245 311.5 Q 244.3 313.8 240.5 313 Q 239 312 241.5 311 Z " /><path fill="rgb(113,113,117)" stroke="rgb(113,113,117)" stroke-width="1" opacity="1" d="M 260.5 312 L 264 312.5 L 260.5 313 L 260.5 312 Z " /><path fill="rgb(113,113,117)" stroke="rgb(113,113,117)" stroke-width="1" opacity="1" d="M 249.5 313 L 256 313.5 L 249.5 314 L 249.5 313 Z " /><path fill="rgb(113,113,117)" stroke="rgb(113,113,117)" stroke-width="1" opacity="1" d="M 277.5 313 L 281 313.5 L 277.5 314 L 277.5 313 Z " /><path fill="rgb(113,113,117)" stroke="rgb(113,113,117)" stroke-width="1" opacity="1" d="M 264.5 314 L 275 314.5 L 264.5 315 L 264.5 314 Z " /><path fill="rgb(113,113,117)" stroke="rgb(113,113,117)" stroke-width="1" opacity="1" d="M 292.5 314 L 297 314.5 L 292.5 315 L 292.5 314 Z " /><path fill="rgb(113,113,117)" stroke="rgb(113,113,117)" stroke-width="1" opacity="1" d="M 279.5 315 L 290 315.5 L 279.5 316 L 279.5 315 Z " /><path fill="rgb(113,113,117)" stroke="rgb(113,113,117)" stroke-width="1" opacity="1" d="M 307.5 315 L 312 315.5 L 307.5 316 L 307.5 315 Z " /><path fill="rgb(113,113,117)" stroke="rgb(113,113,117)" stroke-width="1" opacity="1" d="M 323.5 316 L 328 316.5 L 323.5 317 L 323.5 316 Z " /><path fill="rgb(113,113,117)" stroke="rgb(113,113,117)" stroke-width="1" opacity="1" d="M 339.5 317 L 344 317.5 L 339.5 318 L 339.5 317 Z " /><path fill="rgb(113,113,117)" stroke="rgb(113,113,117)" stroke-width="1" opacity="1" d="M 355.5 318 L 360 318.5 L 355.5 319 L 355.5 318 Z " /><path fill="rgb(113,113,117)" stroke="rgb(113,113,117)" stroke-width="1" opacity="1" d="M 344.5 319 L 349 319.5 L 344.5 320 L 344.5 319 Z " /><path fill="rgb(113,113,117)" stroke="rgb(113,113,117)" stroke-width="1" opacity="1" d="M 372.5 319 L 377 319.5 L 372.5 320 L 372.5 319 Z " /><path fill="rgb(113,113,117)" stroke="rgb(113,113,117)" stroke-width="1" opacity="1" d="M 389.5 320 L 394 320.5 L 389.5 321 L 389.5 320 Z " /><path fill="rgb(172,157,5)" stroke="rgb(172,157,5)" stroke-width="1" opacity="0.00784313725490196" d="M 429.5 214 L 430 216.5 L 429 216.5 L 429.5 214 Z " /><path fill="rgb(172,157,5)" stroke="rgb(172,157,5)" stroke-width="1" opacity="0.00784313725490196" d="M 428.5 276 L 429 278.5 L 428 278.5 L 428.5 276 Z " /><path fill="rgb(236,236,236)" stroke="rgb(236,236,236)" stroke-width="1" opacity="1" d="M 261.5 113 L 262 117.5 L 261 117.5 L 261.5 113 Z " /><path fill="rgb(236,236,236)" stroke="rgb(236,236,236)" stroke-width="1" opacity="1" d="M 263.5 114 L 300 114.5 L 263.5 115 L 263.5 114 Z " /><path fill="rgb(236,236,236)" stroke="rgb(236,236,236)" stroke-width="1" opacity="1" d="M 306.5 115 L 339 115.5 L 306.5 116 L 306.5 115 Z " /><path fill="rgb(236,236,236)" stroke="rgb(236,236,236)" stroke-width="1" opacity="1" d="M 345.5 116 L 379 116.5 L 345.5 117 L 345.5 116 Z " /><path fill="rgb(236,236,236)" stroke="rgb(236,236,236)" stroke-width="1" opacity="1" d="M 381.5 117 L 407.5 117 L 409 118.5 L 408.5 122 L 407.5 118 L 381.5 118 L 381.5 117 Z " /><path fill="rgb(236,236,236)" stroke="rgb(236,236,236)" stroke-width="1" opacity="1" d="M 260.5 119 L 261 126.5 L 260 126.5 L 260.5 119 Z " /><path fill="rgb(236,236,236)" stroke="rgb(236,236,236)" stroke-width="1" opacity="1" d="M 259.5 129 L 260 136.5 L 259 136.5 L 259.5 129 Z " /><path fill="rgb(236,236,236)" stroke="rgb(236,236,236)" stroke-width="1" opacity="1" d="M 407.5 135 L 408 170.5 L 407 170.5 L 407.5 135 Z " /><path fill="rgb(236,236,236)" stroke="rgb(236,236,236)" stroke-width="1" opacity="1" d="M 258.5 138 L 259 146.5 L 258 146.5 L 258.5 138 Z " /><path fill="rgb(236,236,236)" stroke="rgb(236,236,236)" stroke-width="1" opacity="1" d="M 257.5 149 L 258 156.5 L 257 156.5 L 257.5 149 Z " /><path fill="rgb(236,236,236)" stroke="rgb(236,236,236)" stroke-width="1" opacity="1" d="M 256.5 158 L 257 166.5 L 256 166.5 L 256.5 158 Z " /><path fill="rgb(236,236,236)" stroke="rgb(236,236,236)" stroke-width="1" opacity="1" d="M 255.5 168 L 256 176.5 L 255 176.5 L 255.5 168 Z " /><path fill="rgb(236,236,236)" stroke="rgb(236,236,236)" stroke-width="1" opacity="1" d="M 406.5 178 L 407 216.5 L 406 216.5 L 406.5 178 Z " /><path fill="rgb(236,236,236)" stroke="rgb(236,236,236)" stroke-width="1" opacity="1" d="M 254.5 179 L 255 186.5 L 254 186.5 L 254.5 179 Z " /><path fill="rgb(236,236,236)" stroke="rgb(236,236,236)" stroke-width="1" opacity="1" d="M 253.5 189 L 254 196.5 L 253 196.5 L 253.5 189 Z " /><path fill="rgb(236,236,236)" stroke="rgb(236,236,236)" stroke-width="1" opacity="1" d="M 252.5 198 L 253 206.5 L 252 206.5 L 252.5 198 Z " /><path fill="rgb(236,236,236)" stroke="rgb(236,236,236)" stroke-width="1" opacity="1" d="M 251.5 208 L 252 215.5 L 251 215.5 L 251.5 208 Z " /><path fill="rgb(236,236,236)" stroke="rgb(236,236,236)" stroke-width="1" opacity="1" d="M 250.5 218 L 251 226.5 L 250 226.5 L 250.5 218 Z " /><path fill="rgb(236,236,236)" stroke="rgb(236,236,236)" stroke-width="1" opacity="1" d="M 405.5 220 L 406 257.5 L 405 257.5 L 405.5 220 Z " /><path fill="rgb(236,236,236)" stroke="rgb(236,236,236)" stroke-width="1" opacity="1" d="M 249.5 228 L 250 235.5 L 249 235.5 L 249.5 228 Z " /><path fill="rgb(236,236,236)" stroke="rgb(236,236,236)" stroke-width="1" opacity="1" d="M 248.5 239 L 249 246.5 L 248 246.5 L 248.5 239 Z " /><path fill="rgb(236,236,236)" stroke="rgb(236,236,236)" stroke-width="1" opacity="1" d="M 247.5 249 L 248 255.5 L 247 255.5 L 247.5 249 Z " /><path fill="rgb(236,236,236)" stroke="rgb(236,236,236)" stroke-width="1" opacity="1" d="M 246.5 258 L 247 266.5 L 246 266.5 L 246.5 258 Z " /><path fill="rgb(236,236,236)" stroke="rgb(236,236,236)" stroke-width="1" opacity="1" d="M 404.5 263 L 405 297.5 L 404 297.5 L 404.5 263 Z " /><path fill="rgb(236,236,236)" stroke="rgb(236,236,236)" stroke-width="1" opacity="1" d="M 245.5 268 L 246 276.5 L 245 276.5 L 245.5 268 Z " /><path fill="rgb(236,236,236)" stroke="rgb(236,236,236)" stroke-width="1" opacity="1" d="M 244.5 278 L 245 286.5 L 244 286.5 L 244.5 278 Z " /><path fill="rgb(236,236,236)" stroke="rgb(236,236,236)" stroke-width="1" opacity="1" d="M 243.5 288 L 244 296.5 L 243 296.5 L 243.5 288 Z " /><path fill="rgb(236,236,236)" stroke="rgb(236,236,236)" stroke-width="1" opacity="1" d="M 242.5 299 L 243 308.5 L 242 308.5 L 242.5 299 Z " /><path fill="rgb(236,236,236)" stroke="rgb(236,236,236)" stroke-width="1" opacity="1" d="M 403.5 305 L 404 320.5 L 403 320.5 L 403.5 305 Z " /><path fill="rgb(236,236,236)" stroke="rgb(236,236,236)" stroke-width="1" opacity="1" d="M 242.5 310 L 254 310.5 L 242.5 311 L 242.5 310 Z " /><path fill="rgb(236,236,236)" stroke="rgb(236,236,236)" stroke-width="1" opacity="1" d="M 256.5 311 L 272 311.5 L 256.5 312 L 256.5 311 Z " /><path fill="rgb(236,236,236)" stroke="rgb(236,236,236)" stroke-width="1" opacity="1" d="M 274.5 312 L 286 312.5 L 274.5 313 L 274.5 312 Z " /><path fill="rgb(236,236,236)" stroke="rgb(236,236,236)" stroke-width="1" opacity="1" d="M 289.5 313 L 302 313.5 L 289.5 314 L 289.5 313 Z " /><path fill="rgb(236,236,236)" stroke="rgb(236,236,236)" stroke-width="1" opacity="1" d="M 305.5 314 L 318 314.5 L 305.5 315 L 305.5 314 Z " /><path fill="rgb(236,236,236)" stroke="rgb(236,236,236)" stroke-width="1" opacity="1" d="M 321.5 315 L 334 315.5 L 321.5 316 L 321.5 315 Z " /><path fill="rgb(236,236,236)" stroke="rgb(236,236,236)" stroke-width="1" opacity="1" d="M 336.5 316 L 350 316.5 L 336.5 317 L 336.5 316 Z " /><path fill="rgb(236,236,236)" stroke="rgb(236,236,236)" stroke-width="1" opacity="1" d="M 352.5 317 L 366 317.5 L 352.5 318 L 352.5 317 Z " /><path fill="rgb(236,236,236)" stroke="rgb(236,236,236)" stroke-width="1" opacity="1" d="M 368.5 318 L 383 318.5 L 368.5 319 L 368.5 318 Z " /><path fill="rgb(236,236,236)" stroke="rgb(236,236,236)" stroke-width="1" opacity="1" d="M 385.5 319 L 400 319.5 L 385.5 320 L 385.5 319 Z " /><path fill="rgb(91,84,83)" stroke="rgb(91,84,83)" stroke-width="1" opacity="0.2549019607843137" d="M 287.5 93 L 290 93.5 L 287.5 94 L 287.5 93 Z " /><path fill="rgb(91,84,83)" stroke="rgb(91,84,83)" stroke-width="1" opacity="0.2549019607843137" d="M 331.5 94 L 337 94.5 L 331.5 95 L 331.5 94 Z " /><path fill="rgb(91,84,83)" stroke="rgb(91,84,83)" stroke-width="1" opacity="0.2549019607843137" d="M 338.5 94 L 341 94.5 L 338.5 95 L 338.5 94 Z " /><path fill="rgb(91,84,83)" stroke="rgb(91,84,83)" stroke-width="1" opacity="0.2549019607843137" d="M 416.5 96 L 422 96.5 L 416.5 97 L 416.5 96 Z " /><path fill="rgb(91,84,83)" stroke="rgb(91,84,83)" stroke-width="1" opacity="0.2549019607843137" d="M 428.5 124 L 429 134.5 L 428 134.5 L 428.5 124 Z " /><path fill="rgb(91,84,83)" stroke="rgb(91,84,83)" stroke-width="1" opacity="0.2549019607843137" d="M 239.5 129 L 240 131.5 L 239 131.5 L 239.5 129 Z " /><path fill="rgb(91,84,83)" stroke="rgb(91,84,83)" stroke-width="1" opacity="0.2549019607843137" d="M 428.5 137 L 429 152.5 L 428 152.5 L 428.5 137 Z " /><path fill="rgb(91,84,83)" stroke="rgb(91,84,83)" stroke-width="1" opacity="0.2549019607843137" d="M 237.5 147 L 238 150.5 L 237 150.5 L 237.5 147 Z " /><path fill="rgb(91,84,83)" stroke="rgb(91,84,83)" stroke-width="1" opacity="0.2549019607843137" d="M 236.5 156 L 237 159.5 L 236 159.5 L 236.5 156 Z " /><path fill="rgb(91,84,83)" stroke="rgb(91,84,83)" stroke-width="1" opacity="0.2549019607843137" d="M 235.5 165 L 236 167.5 L 235 167.5 L 235.5 165 Z " /><path fill="rgb(91,84,83)" stroke="rgb(91,84,83)" stroke-width="1" opacity="0.2549019607843137" d="M 233.5 183 L 234 186.5 L 233 186.5 L 233.5 183 Z " /><path fill="rgb(91,84,83)" stroke="rgb(91,84,83)" stroke-width="1" opacity="0.2549019607843137" d="M 232.5 192 L 233 195.5 L 232 195.5 L 232.5 192 Z " /><path fill="rgb(91,84,83)" stroke="rgb(91,84,83)" stroke-width="1" opacity="0.2549019607843137" d="M 427.5 208 L 428 221.5 L 427 221.5 L 427.5 208 Z " /><path fill="rgb(91,84,83)" stroke="rgb(91,84,83)" stroke-width="1" opacity="0.2549019607843137" d="M 229.5 220 L 230 224.5 L 229 224.5 L 229.5 220 Z " /><path fill="rgb(91,84,83)" stroke="rgb(91,84,83)" stroke-width="1" opacity="0.2549019607843137" d="M 228.5 230 L 229 232.5 L 228 232.5 L 228.5 230 Z " /><path fill="rgb(91,84,83)" stroke="rgb(91,84,83)" stroke-width="1" opacity="0.2549019607843137" d="M 227.5 238 L 228 240.5 L 227 240.5 L 227.5 238 Z " /><path fill="rgb(91,84,83)" stroke="rgb(91,84,83)" stroke-width="1" opacity="0.2549019607843137" d="M 226.5 248 L 227 250.5 L 226 250.5 L 226.5 248 Z " /><path fill="rgb(91,84,83)" stroke="rgb(91,84,83)" stroke-width="1" opacity="0.2549019607843137" d="M 223.5 276 L 224 279.5 L 223 279.5 L 223.5 276 Z " /><path fill="rgb(91,84,83)" stroke="rgb(91,84,83)" stroke-width="1" opacity="0.2549019607843137" d="M 426.5 276 L 427 280.5 L 426 280.5 L 426.5 276 Z " /><path fill="rgb(91,84,83)" stroke="rgb(91,84,83)" stroke-width="1" opacity="0.2549019607843137" d="M 268.5 359 L 272 359.5 L 268.5 360 L 268.5 359 Z " /><path fill="rgb(91,84,83)" stroke="rgb(91,84,83)" stroke-width="1" opacity="0.2549019607843137" d="M 282.5 360 L 287 360.5 L 282.5 361 L 282.5 360 Z " /><path fill="rgb(91,84,83)" stroke="rgb(91,84,83)" stroke-width="1" opacity="0.2549019607843137" d="M 311.5 362 L 315 362.5 L 311.5 363 L 311.5 362 Z " /><path fill="rgb(91,84,83)" stroke="rgb(91,84,83)" stroke-width="1" opacity="0.2549019607843137" d="M 326.5 363 L 329 363.5 L 326.5 364 L 326.5 363 Z " /><path fill="rgb(74,70,73)" stroke="rgb(74,70,73)" stroke-width="1" opacity="0.7803921568627451" d="M 258.5 93 L 274 93.5 L 258.5 94 L 258.5 93 Z " /><path fill="rgb(74,70,73)" stroke="rgb(74,70,73)" stroke-width="1" opacity="0.7803921568627451" d="M 304.5 94 L 321 94.5 L 304.5 95 L 304.5 94 Z " /><path fill="rgb(74,70,73)" stroke="rgb(74,70,73)" stroke-width="1" opacity="0.7803921568627451" d="M 352.5 95 L 362 95.5 L 352.5 96 L 352.5 95 Z " /><path fill="rgb(74,70,73)" stroke="rgb(74,70,73)" stroke-width="1" opacity="0.7803921568627451" d="M 397.5 96 L 409 96.5 L 397.5 97 L 397.5 96 Z " /><path fill="rgb(74,70,73)" stroke="rgb(74,70,73)" stroke-width="1" opacity="0.7803921568627451" d="M 428.5 101 L 429 120.5 L 428 120.5 L 428.5 101 Z " /><path fill="rgb(74,70,73)" stroke="rgb(74,70,73)" stroke-width="1" opacity="0.7803921568627451" d="M 242.5 107 L 243 109.5 L 242 109.5 L 242.5 107 Z " /><path fill="rgb(74,70,73)" stroke="rgb(74,70,73)" stroke-width="1" opacity="0.7803921568627451" d="M 366.5 115 L 370 115.5 L 366.5 116 L 366.5 115 Z " /><path fill="rgb(74,70,73)" stroke="rgb(74,70,73)" stroke-width="1" opacity="0.7803921568627451" d="M 240.5 123 L 241 126.5 L 240 126.5 L 240.5 123 Z " /><path fill="rgb(74,70,73)" stroke="rgb(74,70,73)" stroke-width="1" opacity="0.7803921568627451" d="M 239.5 132 L 240 135.5 L 239 135.5 L 239.5 132 Z " /><path fill="rgb(74,70,73)" stroke="rgb(74,70,73)" stroke-width="1" opacity="0.7803921568627451" d="M 237.5 151 L 238 153.5 L 237 153.5 L 237.5 151 Z " /><path fill="rgb(74,70,73)" stroke="rgb(74,70,73)" stroke-width="1" opacity="0.7803921568627451" d="M 236.5 160 L 237 163.5 L 236 163.5 L 236.5 160 Z " /><path fill="rgb(74,70,73)" stroke="rgb(74,70,73)" stroke-width="1" opacity="0.7803921568627451" d="M 235.5 169 L 236 172.5 L 235 172.5 L 235.5 169 Z " /><path fill="rgb(74,70,73)" stroke="rgb(74,70,73)" stroke-width="1" opacity="0.7803921568627451" d="M 427.5 170 L 428 191.5 L 427 191.5 L 427.5 170 Z " /><path fill="rgb(74,70,73)" stroke="rgb(74,70,73)" stroke-width="1" opacity="0.7803921568627451" d="M 409.5 173 L 411 173.5 L 409.5 176 L 409.5 173 Z " /><path fill="rgb(74,70,73)" stroke="rgb(74,70,73)" stroke-width="1" opacity="0.7803921568627451" d="M 234.5 178 L 235 181.5 L 234 181.5 L 234.5 178 Z " /><path fill="rgb(74,70,73)" stroke="rgb(74,70,73)" stroke-width="1" opacity="0.7803921568627451" d="M 233.5 187 L 234 190.5 L 233 190.5 L 233.5 187 Z " /><path fill="rgb(74,70,73)" stroke="rgb(74,70,73)" stroke-width="1" opacity="0.7803921568627451" d="M 232.5 197 L 233 199.5 L 232 199.5 L 232.5 197 Z " /><path fill="rgb(74,70,73)" stroke="rgb(74,70,73)" stroke-width="1" opacity="0.7803921568627451" d="M 231.5 206 L 232 209.5 L 231 209.5 L 231.5 206 Z " /><path fill="rgb(74,70,73)" stroke="rgb(74,70,73)" stroke-width="1" opacity="0.7803921568627451" d="M 230.5 215 L 231 218.5 L 230 218.5 L 230.5 215 Z " /><path fill="rgb(74,70,73)" stroke="rgb(74,70,73)" stroke-width="1" opacity="0.7803921568627451" d="M 229.5 225 L 230 228.5 L 229 228.5 L 229.5 225 Z " /><path fill="rgb(74,70,73)" stroke="rgb(74,70,73)" stroke-width="1" opacity="0.7803921568627451" d="M 228.5 234 L 229 237.5 L 228 237.5 L 228.5 234 Z " /><path fill="rgb(74,70,73)" stroke="rgb(74,70,73)" stroke-width="1" opacity="0.7803921568627451" d="M 426.5 234 L 427 251.5 L 426 251.5 L 426.5 234 Z " /><path fill="rgb(74,70,73)" stroke="rgb(74,70,73)" stroke-width="1" opacity="0.7803921568627451" d="M 227.5 243 L 228 246.5 L 227 246.5 L 227.5 243 Z " /><path fill="rgb(74,70,73)" stroke="rgb(74,70,73)" stroke-width="1" opacity="0.7803921568627451" d="M 408.5 244 L 409 252.5 L 408 252.5 L 408.5 244 Z " /><path fill="rgb(74,70,73)" stroke="rgb(74,70,73)" stroke-width="1" opacity="0.7803921568627451" d="M 226.5 252 L 227 255.5 L 226 255.5 L 226.5 252 Z " /><path fill="rgb(74,70,73)" stroke="rgb(74,70,73)" stroke-width="1" opacity="0.7803921568627451" d="M 225.5 262 L 226 264.5 L 225 264.5 L 225.5 262 Z " /><path fill="rgb(74,70,73)" stroke="rgb(74,70,73)" stroke-width="1" opacity="0.7803921568627451" d="M 224.5 271 L 225 274.5 L 224 274.5 L 224.5 271 Z " /><path fill="rgb(74,70,73)" stroke="rgb(74,70,73)" stroke-width="1" opacity="0.7803921568627451" d="M 407.5 272 L 408 282.5 L 407 282.5 L 407.5 272 Z " /><path fill="rgb(74,70,73)" stroke="rgb(74,70,73)" stroke-width="1" opacity="0.7803921568627451" d="M 223.5 280 L 224 283.5 L 223 283.5 L 223.5 280 Z " /><path fill="rgb(74,70,73)" stroke="rgb(74,70,73)" stroke-width="1" opacity="0.7803921568627451" d="M 407.5 284 L 408 293.5 L 407 293.5 L 407.5 284 Z " /><path fill="rgb(74,70,73)" stroke="rgb(74,70,73)" stroke-width="1" opacity="0.7803921568627451" d="M 425.5 297 L 426 311.5 L 425 311.5 L 425.5 297 Z " /><path fill="rgb(74,70,73)" stroke="rgb(74,70,73)" stroke-width="1" opacity="0.7803921568627451" d="M 246.5 313 L 249 313.5 L 246.5 314 L 246.5 313 Z " /><path fill="rgb(74,70,73)" stroke="rgb(74,70,73)" stroke-width="1" opacity="0.7803921568627451" d="M 262.5 358 L 265 358.5 L 262.5 359 L 262.5 358 Z " /><path fill="rgb(74,70,73)" stroke="rgb(74,70,73)" stroke-width="1" opacity="0.7803921568627451" d="M 276.5 359 L 281 359.5 L 276.5 360 L 276.5 359 Z " /><path fill="rgb(74,70,73)" stroke="rgb(74,70,73)" stroke-width="1" opacity="0.7803921568627451" d="M 291.5 360 L 294 360.5 L 291.5 361 L 291.5 360 Z " /><path fill="rgb(74,70,73)" stroke="rgb(74,70,73)" stroke-width="1" opacity="0.7803921568627451" d="M 319.5 362 L 323 362.5 L 319.5 363 L 319.5 362 Z " /><path fill="rgb(74,70,73)" stroke="rgb(74,70,73)" stroke-width="1" opacity="0.7803921568627451" d="M 334.5 363 L 337 363.5 L 334.5 364 L 334.5 363 Z " /><path fill="rgb(74,70,73)" stroke="rgb(74,70,73)" stroke-width="1" opacity="0.7803921568627451" d="M 348.5 364 L 351 364.5 L 348.5 365 L 348.5 364 Z " /><path fill="rgb(74,70,73)" stroke="rgb(74,70,73)" stroke-width="1" opacity="0.7803921568627451" d="M 391.5 367 L 396 367.5 L 391.5 368 L 391.5 367 Z " /><path fill="rgb(251,226,207)" stroke="rgb(251,226,207)" stroke-width="1" opacity="0.0196078431372549" d="M 245.5 91 L 247 91.5 L 245 92.5 L 246 93.5 L 243.5 96 L 242 95.5 L 245.5 91 Z " /><path fill="rgb(251,226,207)" stroke="rgb(251,226,207)" stroke-width="1" opacity="0.0196078431372549" d="M 253.5 92 L 258 92.5 L 253.5 93 L 253.5 92 Z " /><path fill="rgb(115,104,100)" stroke="rgb(115,104,100)" stroke-width="1" opacity="0.03137254901960784" d="M 280.5 91 L 287 91.5 L 280.5 92 L 280.5 91 Z " /><path fill="rgb(115,104,100)" stroke="rgb(115,104,100)" stroke-width="1" opacity="0.03137254901960784" d="M 315.5 92 L 321 92.5 L 315.5 93 L 315.5 92 Z " /><path fill="rgb(115,104,100)" stroke="rgb(115,104,100)" stroke-width="1" opacity="0.03137254901960784" d="M 327.5 92 L 336 92.5 L 327.5 93 L 327.5 92 Z " /><path fill="rgb(115,104,100)" stroke="rgb(115,104,100)" stroke-width="1" opacity="0.03137254901960784" d="M 298.5 93 L 302 93.5 L 298.5 94 L 298.5 93 Z " /><path fill="rgb(115,104,100)" stroke="rgb(115,104,100)" stroke-width="1" opacity="0.03137254901960784" d="M 345.5 94 L 350 94.5 L 345.5 95 L 345.5 94 Z " /><path fill="rgb(115,104,100)" stroke="rgb(115,104,100)" stroke-width="1" opacity="0.03137254901960784" d="M 415.5 94 L 422 94.5 L 415.5 95 L 415.5 94 Z " /><path fill="rgb(115,104,100)" stroke="rgb(115,104,100)" stroke-width="1" opacity="0.03137254901960784" d="M 430.5 137 L 431 147.5 L 430 147.5 L 430.5 137 Z " /><path fill="rgb(115,104,100)" stroke="rgb(115,104,100)" stroke-width="1" opacity="0.03137254901960784" d="M 428.5 155 L 429 161.5 L 428 161.5 L 428.5 155 Z " /><path fill="rgb(115,104,100)" stroke="rgb(115,104,100)" stroke-width="1" opacity="0.03137254901960784" d="M 428.5 165 L 429 167.5 L 428 167.5 L 428.5 165 Z " /><path fill="rgb(115,104,100)" stroke="rgb(115,104,100)" stroke-width="1" opacity="0.03137254901960784" d="M 429.5 187 L 430 189.5 L 429 189.5 L 429.5 187 Z " /><path fill="rgb(115,104,100)" stroke="rgb(115,104,100)" stroke-width="1" opacity="0.03137254901960784" d="M 429.5 199 L 430 212.5 L 429 212.5 L 429.5 199 Z " /><path fill="rgb(115,104,100)" stroke="rgb(115,104,100)" stroke-width="1" opacity="0.03137254901960784" d="M 427.5 226 L 428 230.5 L 427 230.5 L 427.5 226 Z " /><path fill="rgb(115,104,100)" stroke="rgb(115,104,100)" stroke-width="1" opacity="0.03137254901960784" d="M 228.5 227 L 229 229.5 L 228 229.5 L 228.5 227 Z " /><path fill="rgb(115,104,100)" stroke="rgb(115,104,100)" stroke-width="1" opacity="0.03137254901960784" d="M 428.5 245 L 429 254.5 L 428 254.5 L 428.5 245 Z " /><path fill="rgb(115,104,100)" stroke="rgb(115,104,100)" stroke-width="1" opacity="0.03137254901960784" d="M 428.5 263 L 429 272.5 L 428 272.5 L 428.5 263 Z " /><path fill="rgb(115,104,100)" stroke="rgb(115,104,100)" stroke-width="1" opacity="0.03137254901960784" d="M 427.5 309 L 428 316.5 L 427 316.5 L 427.5 309 Z " /><path fill="rgb(115,104,100)" stroke="rgb(115,104,100)" stroke-width="1" opacity="0.03137254901960784" d="M 427.5 328 L 428 334.5 L 427 334.5 L 427.5 328 Z " /><path fill="rgb(115,104,100)" stroke="rgb(115,104,100)" stroke-width="1" opacity="0.03137254901960784" d="M 271.5 361 L 274 361.5 L 271.5 362 L 271.5 361 Z " /><path fill="rgb(115,104,100)" stroke="rgb(115,104,100)" stroke-width="1" opacity="0.03137254901960784" d="M 299.5 363 L 302 363.5 L 299.5 364 L 299.5 363 Z " /><path fill="rgb(115,104,100)" stroke="rgb(115,104,100)" stroke-width="1" opacity="0.03137254901960784" d="M 313.5 364 L 317 364.5 L 313.5 365 L 313.5 364 Z " /><path fill="rgb(0,150,189)" stroke="rgb(0,150,189)" stroke-width="1" opacity="0.00392156862745098" d="M 289.5 91 L 292 91.5 L 289.5 92 L 289.5 91 Z " /><path fill="rgb(0,150,189)" stroke="rgb(0,150,189)" stroke-width="1" opacity="0.00392156862745098" d="M 336.5 92 L 340 92.5 L 336.5 93 L 336.5 92 Z " /><path fill="rgb(90,110,120)" stroke="rgb(90,110,120)" stroke-width="1" opacity="0.5882352941176471" d="M 242.5 103 L 243 106.5 L 242 106.5 L 242.5 103 Z " /><path fill="rgb(90,110,120)" stroke="rgb(90,110,120)" stroke-width="1" opacity="0.5882352941176471" d="M 241.5 112 L 242 115.5 L 241 115.5 L 241.5 112 Z " /><path fill="rgb(172,168,169)" stroke="rgb(172,168,169)" stroke-width="1" opacity="0.996078431372549" d="M 271.5 113 L 281 113.5 L 271.5 114 L 271.5 113 Z " /><path fill="rgb(172,168,169)" stroke="rgb(172,168,169)" stroke-width="1" opacity="0.996078431372549" d="M 260.5 114 L 261 116.5 L 260 116.5 L 260.5 114 Z " /><path fill="rgb(172,168,169)" stroke="rgb(172,168,169)" stroke-width="1" opacity="0.996078431372549" d="M 308.5 114 L 319 114.5 L 308.5 115 L 308.5 114 Z " /><path fill="rgb(172,168,169)" stroke="rgb(172,168,169)" stroke-width="1" opacity="0.996078431372549" d="M 347.5 115 L 357 115.5 L 347.5 116 L 347.5 115 Z " /><path fill="rgb(172,168,169)" stroke="rgb(172,168,169)" stroke-width="1" opacity="0.996078431372549" d="M 386.5 116 L 395 116.5 L 386.5 117 L 386.5 116 Z " /><path fill="rgb(172,168,169)" stroke="rgb(172,168,169)" stroke-width="1" opacity="0.996078431372549" d="M 259.5 123 L 260 125.5 L 259 125.5 L 259.5 123 Z " /><path fill="rgb(172,168,169)" stroke="rgb(172,168,169)" stroke-width="1" opacity="0.996078431372549" d="M 408.5 138 L 409 149.5 L 408 149.5 L 408.5 138 Z " /><path fill="rgb(172,168,169)" stroke="rgb(172,168,169)" stroke-width="1" opacity="0.996078431372549" d="M 257.5 143 L 258 145.5 L 257 145.5 L 257.5 143 Z " /><path fill="rgb(172,168,169)" stroke="rgb(172,168,169)" stroke-width="1" opacity="0.996078431372549" d="M 256.5 153 L 257 155.5 L 256 155.5 L 256.5 153 Z " /><path fill="rgb(172,168,169)" stroke="rgb(172,168,169)" stroke-width="1" opacity="0.996078431372549" d="M 255.5 163 L 256 165.5 L 255 165.5 L 255.5 163 Z " /><path fill="rgb(172,168,169)" stroke="rgb(172,168,169)" stroke-width="1" opacity="0.996078431372549" d="M 254.5 173 L 255 175.5 L 254 175.5 L 254.5 173 Z " /><path fill="rgb(172,168,169)" stroke="rgb(172,168,169)" stroke-width="1" opacity="0.996078431372549" d="M 407.5 182 L 408 192.5 L 407 192.5 L 407.5 182 Z " /><path fill="rgb(172,168,169)" stroke="rgb(172,168,169)" stroke-width="1" opacity="0.996078431372549" d="M 252.5 193 L 253 195.5 L 252 195.5 L 252.5 193 Z " /><path fill="rgb(172,168,169)" stroke="rgb(172,168,169)" stroke-width="1" opacity="0.996078431372549" d="M 251.5 203 L 252 205.5 L 251 205.5 L 251.5 203 Z " /><path fill="rgb(172,168,169)" stroke="rgb(172,168,169)" stroke-width="1" opacity="0.996078431372549" d="M 250.5 213 L 251 215.5 L 250 215.5 L 250.5 213 Z " /><path fill="rgb(172,168,169)" stroke="rgb(172,168,169)" stroke-width="1" opacity="0.996078431372549" d="M 249.5 223 L 250 225.5 L 249 225.5 L 249.5 223 Z " /><path fill="rgb(172,168,169)" stroke="rgb(172,168,169)" stroke-width="1" opacity="0.996078431372549" d="M 406.5 225 L 407 236.5 L 406 236.5 L 406.5 225 Z " /><path fill="rgb(172,168,169)" stroke="rgb(172,168,169)" stroke-width="1" opacity="0.996078431372549" d="M 248.5 233 L 249 235.5 L 248 235.5 L 248.5 233 Z " /><path fill="rgb(172,168,169)" stroke="rgb(172,168,169)" stroke-width="1" opacity="0.996078431372549" d="M 247.5 242 L 248 244.5 L 247 244.5 L 247.5 242 Z " /><path fill="rgb(172,168,169)" stroke="rgb(172,168,169)" stroke-width="1" opacity="0.996078431372549" d="M 246.5 253 L 247 255.5 L 246 255.5 L 246.5 253 Z " /><path fill="rgb(172,168,169)" stroke="rgb(172,168,169)" stroke-width="1" opacity="0.996078431372549" d="M 245.5 262 L 246 265.5 L 245 265.5 L 245.5 262 Z " /><path fill="rgb(172,168,169)" stroke="rgb(172,168,169)" stroke-width="1" opacity="0.996078431372549" d="M 405.5 266 L 406 277.5 L 405 277.5 L 405.5 266 Z " /><path fill="rgb(172,168,169)" stroke="rgb(172,168,169)" stroke-width="1" opacity="0.996078431372549" d="M 244.5 273 L 245 275.5 L 244 275.5 L 244.5 273 Z " /><path fill="rgb(172,168,169)" stroke="rgb(172,168,169)" stroke-width="1" opacity="0.996078431372549" d="M 243.5 283 L 244 285.5 L 243 285.5 L 243.5 283 Z " /><path fill="rgb(172,168,169)" stroke="rgb(172,168,169)" stroke-width="1" opacity="0.996078431372549" d="M 242.5 293 L 243 295.5 L 242 295.5 L 242.5 293 Z " /><path fill="rgb(172,168,169)" stroke="rgb(172,168,169)" stroke-width="1" opacity="0.996078431372549" d="M 241.5 303 L 242 306.5 L 241 306.5 L 241.5 303 Z " /><path fill="rgb(172,168,169)" stroke="rgb(172,168,169)" stroke-width="1" opacity="0.996078431372549" d="M 404.5 308 L 405 316.5 L 404 316.5 L 404.5 308 Z " /><path fill="rgb(172,168,169)" stroke="rgb(172,168,169)" stroke-width="1" opacity="0.996078431372549" d="M 245.5 311 L 252 311.5 L 245.5 312 L 245.5 311 Z " /><path fill="rgb(172,168,169)" stroke="rgb(172,168,169)" stroke-width="1" opacity="0.996078431372549" d="M 264.5 312 L 271 312.5 L 264.5 313 L 264.5 312 Z " /><path fill="rgb(172,168,169)" stroke="rgb(172,168,169)" stroke-width="1" opacity="0.996078431372549" d="M 281.5 313 L 285 313.5 L 281.5 314 L 281.5 313 Z " /><path fill="rgb(172,168,169)" stroke="rgb(172,168,169)" stroke-width="1" opacity="0.996078431372549" d="M 297.5 314 L 301 314.5 L 297.5 315 L 297.5 314 Z " /><path fill="rgb(172,168,169)" stroke="rgb(172,168,169)" stroke-width="1" opacity="0.996078431372549" d="M 312.5 315 L 317 315.5 L 312.5 316 L 312.5 315 Z " /><path fill="rgb(172,168,169)" stroke="rgb(172,168,169)" stroke-width="1" opacity="0.996078431372549" d="M 328.5 316 L 333 316.5 L 328.5 317 L 328.5 316 Z " /><path fill="rgb(172,168,169)" stroke="rgb(172,168,169)" stroke-width="1" opacity="0.996078431372549" d="M 344.5 317 L 348 317.5 L 344.5 318 L 344.5 317 Z " /><path fill="rgb(172,168,169)" stroke="rgb(172,168,169)" stroke-width="1" opacity="0.996078431372549" d="M 360.5 318 L 365 318.5 L 360.5 319 L 360.5 318 Z " /><path fill="rgb(172,168,169)" stroke="rgb(172,168,169)" stroke-width="1" opacity="0.996078431372549" d="M 377.5 319 L 381 319.5 L 377.5 320 L 377.5 319 Z " /><path fill="rgb(172,168,169)" stroke="rgb(172,168,169)" stroke-width="1" opacity="0.996078431372549" d="M 394.5 320 L 398 320.5 L 394.5 321 L 394.5 320 Z " /><path fill="rgb(172,168,169)" stroke="rgb(172,168,169)" stroke-width="1" opacity="0.996078431372549" d="M 404.5 321 L 406 321.5 L 405.5 323 Q 403 322 404.5 321 Z " /><path fill="rgb(67,81,80)" stroke="rgb(67,81,80)" stroke-width="1" opacity="0.027450980392156862" d="M 273.5 91 L 280 91.5 L 273.5 92 L 273.5 91 Z " /><path fill="rgb(67,81,80)" stroke="rgb(67,81,80)" stroke-width="1" opacity="0.027450980392156862" d="M 321.5 92 L 327 92.5 L 321.5 93 L 321.5 92 Z " /><path fill="rgb(67,81,80)" stroke="rgb(67,81,80)" stroke-width="1" opacity="0.027450980392156862" d="M 290.5 93 L 298 93.5 L 290.5 94 L 290.5 93 Z " /><path fill="rgb(67,81,80)" stroke="rgb(67,81,80)" stroke-width="1" opacity="0.027450980392156862" d="M 366.5 93 L 373 93.5 L 366.5 94 L 366.5 93 Z " /><path fill="rgb(67,81,80)" stroke="rgb(67,81,80)" stroke-width="1" opacity="0.027450980392156862" d="M 375.5 93 L 379 93.5 L 375.5 94 L 375.5 93 Z " /><path fill="rgb(67,81,80)" stroke="rgb(67,81,80)" stroke-width="1" opacity="0.027450980392156862" d="M 341.5 94 L 345 94.5 L 341.5 95 L 341.5 94 Z " /><path fill="rgb(67,81,80)" stroke="rgb(67,81,80)" stroke-width="1" opacity="0.027450980392156862" d="M 410.5 94 L 415 94.5 L 410.5 95 L 410.5 94 Z " /><path fill="rgb(67,81,80)" stroke="rgb(67,81,80)" stroke-width="1" opacity="0.027450980392156862" d="M 384.5 95 L 392 95.5 L 384.5 96 L 384.5 95 Z " /><path fill="rgb(67,81,80)" stroke="rgb(67,81,80)" stroke-width="1" opacity="0.027450980392156862" d="M 238.5 121 L 239 123.5 L 238 123.5 L 238.5 121 Z " /><path fill="rgb(67,81,80)" stroke="rgb(67,81,80)" stroke-width="1" opacity="0.027450980392156862" d="M 430.5 122 L 431 136.5 L 430 136.5 L 430.5 122 Z " /><path fill="rgb(67,81,80)" stroke="rgb(67,81,80)" stroke-width="1" opacity="0.027450980392156862" d="M 429.5 183 L 430 186.5 L 429 186.5 L 429.5 183 Z " /><path fill="rgb(67,81,80)" stroke="rgb(67,81,80)" stroke-width="1" opacity="0.027450980392156862" d="M 429.5 190 L 430 198.5 L 429 198.5 L 429.5 190 Z " /><path fill="rgb(67,81,80)" stroke="rgb(67,81,80)" stroke-width="1" opacity="0.027450980392156862" d="M 428.5 255 L 429 262.5 L 428 262.5 L 428.5 255 Z " /><path fill="rgb(67,81,80)" stroke="rgb(67,81,80)" stroke-width="1" opacity="0.027450980392156862" d="M 427.5 317 L 428 327.5 L 427 327.5 L 427.5 317 Z " /><path fill="rgb(67,81,80)" stroke="rgb(67,81,80)" stroke-width="1" opacity="0.027450980392156862" d="M 425.5 349 L 426 354.5 L 425 354.5 L 425.5 349 Z " /><path fill="rgb(67,81,80)" stroke="rgb(67,81,80)" stroke-width="1" opacity="0.027450980392156862" d="M 287.5 362 L 290 362.5 L 287.5 363 L 287.5 362 Z " /><path fill="rgb(67,81,80)" stroke="rgb(67,81,80)" stroke-width="1" opacity="0.027450980392156862" d="M 330.5 365 L 333 365.5 L 330.5 366 L 330.5 365 Z " /><path fill="rgb(67,81,80)" stroke="rgb(67,81,80)" stroke-width="1" opacity="0.027450980392156862" d="M 403.5 370 L 410 370.5 L 403.5 371 L 403.5 370 Z " /><path fill="rgb(75,61,55)" stroke="rgb(75,61,55)" stroke-width="1" opacity="0.3333333333333333" d="M 274.5 93 L 287 93.5 L 274.5 94 L 274.5 93 Z " /><path fill="rgb(75,61,55)" stroke="rgb(75,61,55)" stroke-width="1" opacity="0.3333333333333333" d="M 321.5 94 L 324 94.5 L 321.5 95 L 321.5 94 Z " /><path fill="rgb(75,61,55)" stroke="rgb(75,61,55)" stroke-width="1" opacity="0.3333333333333333" d="M 362.5 95 L 384 95.5 L 362.5 96 L 362.5 95 Z " /><path fill="rgb(75,61,55)" stroke="rgb(75,61,55)" stroke-width="1" opacity="0.3333333333333333" d="M 409.5 96 L 416 96.5 L 409.5 97 L 409.5 96 Z " /><path fill="rgb(75,61,55)" stroke="rgb(75,61,55)" stroke-width="1" opacity="0.3333333333333333" d="M 238.5 139 L 239 141.5 L 238 141.5 L 238.5 139 Z " /><path fill="rgb(75,61,55)" stroke="rgb(75,61,55)" stroke-width="1" opacity="0.3333333333333333" d="M 427.5 192 L 428 207.5 L 427 207.5 L 427.5 192 Z " /><path fill="rgb(75,61,55)" stroke="rgb(75,61,55)" stroke-width="1" opacity="0.3333333333333333" d="M 426.5 252 L 427 275.5 L 426 275.5 L 426.5 252 Z " /><path fill="rgb(75,61,55)" stroke="rgb(75,61,55)" stroke-width="1" opacity="0.3333333333333333" d="M 225.5 259 L 226 261.5 L 225 261.5 L 225.5 259 Z " /><path fill="rgb(75,61,55)" stroke="rgb(75,61,55)" stroke-width="1" opacity="0.3333333333333333" d="M 426.5 281 L 427 285.5 L 426 285.5 L 426.5 281 Z " /><path fill="rgb(75,61,55)" stroke="rgb(75,61,55)" stroke-width="1" opacity="0.3333333333333333" d="M 222.5 287 L 223 289.5 L 222 289.5 L 222.5 287 Z " /><path fill="rgb(75,61,55)" stroke="rgb(75,61,55)" stroke-width="1" opacity="0.3333333333333333" d="M 221.5 295 L 222 298.5 L 221 298.5 L 221.5 295 Z " /><path fill="rgb(75,61,55)" stroke="rgb(75,61,55)" stroke-width="1" opacity="0.3333333333333333" d="M 220.5 303 L 221 308.5 L 220 308.5 L 220.5 303 Z " /><path fill="rgb(75,61,55)" stroke="rgb(75,61,55)" stroke-width="1" opacity="0.3333333333333333" d="M 219.5 312 L 220 316.5 L 219 316.5 L 219.5 312 Z " /><path fill="rgb(75,61,55)" stroke="rgb(75,61,55)" stroke-width="1" opacity="0.3333333333333333" d="M 425.5 312 L 426 341.5 L 425 341.5 L 425.5 312 Z " /><path fill="rgb(75,61,55)" stroke="rgb(75,61,55)" stroke-width="1" opacity="0.3333333333333333" d="M 218.5 321 L 219 325.5 L 218 325.5 L 218.5 321 Z " /><path fill="rgb(75,61,55)" stroke="rgb(75,61,55)" stroke-width="1" opacity="0.3333333333333333" d="M 217.5 330 L 218 334.5 L 217 334.5 L 217.5 330 Z " /><path fill="rgb(75,61,55)" stroke="rgb(75,61,55)" stroke-width="1" opacity="0.3333333333333333" d="M 216.5 340 L 217 345.5 L 216 345.5 L 216.5 340 Z " /><path fill="rgb(75,61,55)" stroke="rgb(75,61,55)" stroke-width="1" opacity="0.3333333333333333" d="M 425.5 344 L 426 348.5 L 425 348.5 L 425.5 344 Z " /><path fill="rgb(75,61,55)" stroke="rgb(75,61,55)" stroke-width="1" opacity="0.3333333333333333" d="M 227.5 356 L 234 356.5 L 227.5 357 L 227.5 356 Z " /><path fill="rgb(75,61,55)" stroke="rgb(75,61,55)" stroke-width="1" opacity="0.3333333333333333" d="M 240.5 357 L 248 357.5 L 240.5 358 L 240.5 357 Z " /><path fill="rgb(75,61,55)" stroke="rgb(75,61,55)" stroke-width="1" opacity="0.3333333333333333" d="M 254.5 358 L 262 358.5 L 254.5 359 L 254.5 358 Z " /><path fill="rgb(75,61,55)" stroke="rgb(75,61,55)" stroke-width="1" opacity="0.3333333333333333" d="M 272.5 359 L 276 359.5 L 272.5 360 L 272.5 359 Z " /><path fill="rgb(75,61,55)" stroke="rgb(75,61,55)" stroke-width="1" opacity="0.3333333333333333" d="M 287.5 360 L 291 360.5 L 287.5 361 L 287.5 360 Z " /><path fill="rgb(75,61,55)" stroke="rgb(75,61,55)" stroke-width="1" opacity="0.3333333333333333" d="M 423.5 360 L 424 361.5 Q 423 364 422 362.5 L 423.5 360 Z " /><path fill="rgb(75,61,55)" stroke="rgb(75,61,55)" stroke-width="1" opacity="0.3333333333333333" d="M 301.5 361 L 305 361.5 L 301.5 362 L 301.5 361 Z " /><path fill="rgb(75,61,55)" stroke="rgb(75,61,55)" stroke-width="1" opacity="0.3333333333333333" d="M 315.5 362 L 319 362.5 L 315.5 363 L 315.5 362 Z " /><path fill="rgb(75,61,55)" stroke="rgb(75,61,55)" stroke-width="1" opacity="0.3333333333333333" d="M 329.5 363 L 334 363.5 L 329.5 364 L 329.5 363 Z " /><path fill="rgb(75,61,55)" stroke="rgb(75,61,55)" stroke-width="1" opacity="0.3333333333333333" d="M 342.5 364 L 348 364.5 L 342.5 365 L 342.5 364 Z " /><path fill="rgb(75,61,55)" stroke="rgb(75,61,55)" stroke-width="1" opacity="0.3333333333333333" d="M 354.5 365 L 363 365.5 L 354.5 366 L 354.5 365 Z " /><path fill="rgb(75,61,55)" stroke="rgb(75,61,55)" stroke-width="1" opacity="0.3333333333333333" d="M 368.5 366 L 377 366.5 L 368.5 367 L 368.5 366 Z " /><path fill="rgb(75,61,55)" stroke="rgb(75,61,55)" stroke-width="1" opacity="0.3333333333333333" d="M 383.5 367 L 391 367.5 L 383.5 368 L 383.5 367 Z " /><path fill="rgb(75,61,55)" stroke="rgb(75,61,55)" stroke-width="1" opacity="0.3333333333333333" d="M 399.5 368 L 413 368.5 L 399.5 369 L 399.5 368 Z " /><path fill="rgb(0,0,0)" stroke="rgb(0,0,0)" stroke-width="1" opacity="0" d="M 0.5 0 L 640 0.5 L 639.5 427 L 0 426.5 L 0.5 0 Z M 272 91 L 272 92 L 292 92 L 272 91 Z M 250 92 Q 249 94 246 93 L 244 95 Q 242 93 241 96 L 242 98 L 242 97 L 243 97 L 242 100 L 242 108 L 241 109 L 241 117 L 240 118 L 240 126 L 239 127 L 239 135 L 238 136 L 238 144 L 237 145 L 237 153 L 236 154 L 236 163 L 235 164 L 235 172 L 234 173 L 234 181 L 233 182 L 233 190 L 232 191 L 232 199 L 231 200 L 231 209 L 230 210 L 230 218 L 229 219 L 229 227 L 228 228 L 228 236 L 227 237 L 227 246 L 226 247 L 226 255 L 225 256 L 225 264 L 224 265 L 224 273 L 223 274 L 223 283 L 222 284 L 222 292 L 221 293 L 221 301 L 220 302 L 219 320 L 218 321 L 218 328 L 217 329 L 217 338 L 216 339 L 216 351 L 218 355 L 225 357 L 252 358 L 253 359 L 266 359 L 267 360 L 280 360 L 281 361 L 294 361 L 295 362 L 308 362 L 309 363 L 323 363 L 324 364 L 337 364 L 338 365 L 352 365 L 353 366 L 366 366 L 367 367 L 380 367 L 381 368 L 395 368 L 396 369 L 414 369 L 424 364 L 423 363 L 425 360 Q 424 355 426 355 L 426 298 L 427 297 L 427 236 L 428 235 L 428 173 L 429 172 L 429 100 L 427 97 L 424 96 L 397 96 L 396 95 L 352 95 L 351 94 L 306 94 L 305 93 L 259 93 L 258 92 L 250 92 Z M 315 92 L 315 93 L 340 93 L 315 92 Z M 367 93 L 367 94 L 379 94 L 367 93 Z M 411 94 L 411 95 L 423 95 L 411 94 Z M 241 99 L 240 106 L 241 106 L 241 99 Z M 240 108 L 239 115 L 240 115 L 240 108 Z M 239 118 L 238 124 L 239 124 L 239 118 Z M 431 120 L 430 160 L 431 160 L 431 120 Z M 238 127 L 237 133 L 238 133 L 238 127 Z M 237 137 L 236 142 L 237 142 L 237 137 Z M 236 146 L 235 151 L 236 151 L 236 146 Z M 235 155 L 234 161 L 235 161 L 235 155 Z M 234 165 L 233 171 L 234 171 L 234 165 Z M 233 174 L 232 179 L 233 179 L 233 174 Z M 232 183 L 231 189 L 232 189 L 232 183 Z M 430 183 L 429 221 L 430 221 L 430 183 Z M 231 192 L 230 198 L 231 198 L 231 192 Z M 230 201 L 229 207 L 230 207 L 230 201 Z M 229 211 L 228 216 L 229 216 L 229 211 Z M 228 220 L 227 226 L 228 226 L 228 220 Z M 227 229 L 226 235 L 227 235 L 227 229 Z M 226 238 L 225 244 L 226 244 L 226 238 Z M 429 244 L 428 283 L 429 283 L 429 244 Z M 225 247 L 224 253 L 225 253 L 225 247 Z M 224 256 L 223 263 L 224 263 L 224 256 Z M 223 266 L 222 271 L 223 271 L 223 266 Z M 222 275 L 221 281 L 222 281 L 222 275 Z M 221 284 L 220 290 L 221 290 L 221 284 Z M 220 294 L 219 299 L 220 299 L 220 294 Z M 219 305 L 218 309 L 219 309 L 219 305 Z M 428 309 L 427 345 L 428 345 L 428 309 Z M 218 314 L 217 318 L 218 318 L 218 314 Z M 217 323 L 216 326 L 217 326 L 217 323 Z M 216 332 L 215 336 L 216 336 L 216 332 Z M 215 342 L 214 346 L 215 346 L 215 342 Z M 228 358 L 228 359 L 234 359 L 228 358 Z M 243 359 L 243 360 L 249 360 L 243 359 Z M 256 360 L 256 361 L 262 361 L 256 360 Z M 270 361 L 270 362 L 276 362 L 270 361 Z M 284 362 L 284 363 L 292 363 L 284 362 Z M 298 363 L 298 364 L 306 364 L 298 363 Z M 313 364 L 313 365 L 320 365 L 313 364 Z M 327 365 L 327 366 L 334 366 L 327 365 Z M 341 366 L 341 367 L 348 367 L 341 366 Z M 356 367 L 356 368 L 362 368 L 356 367 Z M 372 368 L 372 369 L 377 369 L 372 368 Z M 385 369 L 385 370 L 392 370 L 385 369 Z M 397 370 L 397 371 L 412 371 L 397 370 Z " /><path fill="rgb(163,173,178)" stroke="rgb(163,173,178)" stroke-width="1" opacity="0.03137254901960784" d="M 249.5 92 L 253 92.5 L 249.5 93 L 249.5 92 Z " /><path fill="rgb(163,173,178)" stroke="rgb(163,173,178)" stroke-width="1" opacity="0.03137254901960784" d="M 302.5 93 L 305 93.5 L 302.5 94 L 302.5 93 Z " /><path fill="rgb(163,173,178)" stroke="rgb(163,173,178)" stroke-width="1" opacity="0.03137254901960784" d="M 242.5 100 L 243 102.5 L 242 102.5 L 242.5 100 Z " /><path fill="rgb(163,173,178)" stroke="rgb(163,173,178)" stroke-width="1" opacity="0.03137254901960784" d="M 430.5 148 L 431 154.5 L 430 154.5 L 430.5 148 Z " /><path fill="rgb(219,219,219)" stroke="rgb(219,219,219)" stroke-width="1" opacity="1" d="M 262.5 113 L 271 113.5 L 263 114.5 L 299.5 115 L 300.5 114 L 307.5 114 L 307.5 115 L 306 115.5 L 338.5 116 L 339.5 115 L 346.5 115 L 346.5 116 L 345 116.5 L 378.5 117 L 379.5 116 L 385.5 116 L 385.5 117 L 381 117.5 L 407.5 118 L 409 117.5 Q 407.3 118.3 408 121.5 L 409 124.5 L 408.5 138 L 407.5 135 L 407 170.5 L 408 171.5 L 408 181.5 L 407 181.5 L 406.5 178 L 406 216.5 L 407 217.5 L 407 224.5 L 406 224.5 L 405.5 220 L 405 257.5 L 406 258.5 L 406 265.5 L 405 265.5 L 404.5 263 L 404 297.5 L 405 298.5 L 405 307.5 L 404 307.5 L 403.5 305 L 402.5 321 L 398 320.5 L 400 319.5 L 385.5 319 Q 384.7 320.8 381.5 320 L 381.5 319 L 383 318.5 L 368.5 318 L 365.5 319 L 365.5 317 L 352.5 317 Q 351.8 318.8 348.5 318 L 348.5 317 L 350 316.5 L 336.5 316 L 333.5 317 L 333.5 315 L 321.5 315 Q 320.7 316.8 317.5 316 L 317.5 314 L 305.5 314 Q 304.8 315.8 301.5 315 L 301.5 313 L 289.5 313 Q 288.8 314.8 285.5 314 L 285.5 312 L 274.5 312 L 271.5 313 L 271.5 311 L 256.5 311 L 254.5 312 L 253.5 310 L 242.5 310 L 241.5 311 L 242 309.5 L 241 308.5 L 241.5 307 L 242.5 309 L 243 299.5 L 242 296.5 L 244 296.5 Q 245.3 289.7 243 286.5 L 245 286.5 Q 246.3 279.7 244 276.5 L 246 276.5 Q 247.3 269.7 245 266.5 L 247 266.5 Q 248.3 259.7 246 256.5 L 248 255.5 L 248 249.5 Q 246.2 248.8 247 245.5 L 248 245.5 L 248.5 247 L 249 239.5 L 248 236.5 L 250 235.5 Q 251.2 229.3 249 226.5 L 251 226.5 Q 252.3 219.7 250 216.5 L 252 215.5 Q 253.2 209.3 251 206.5 L 253 206.5 Q 254.3 199.7 252 196.5 L 254 196.5 L 254 189.5 L 253 186.5 L 255 186.5 L 255 179.5 L 254 176.5 L 256 176.5 Q 257.3 169.7 255 166.5 L 257 166.5 Q 258.3 159.7 256 156.5 L 258 156.5 L 258 149.5 L 257 146.5 L 259 146.5 Q 260.3 139.7 258 136.5 L 260 136.5 L 260 129.5 L 259 126.5 L 261 126.5 Q 262.2 120.3 260 117.5 L 262 117.5 L 262.5 113 Z " /><path fill="rgb(49,51,57)" stroke="rgb(49,51,57)" stroke-width="1" opacity="0.996078431372549" d="M 249.5 93 L 256.5 94 Q 257.5 92 258.5 94 L 303.5 94 L 304.5 95 L 327.5 95 L 329.5 96 L 330.5 95 L 348.5 95 Q 349.5 97 350.5 95 L 352.5 96 L 378 96.5 L 365 97.5 L 369 98.5 L 368 100.5 L 369 103.5 L 363 105.5 L 365.5 109 L 367.5 105 L 368.5 107 Q 371.8 106.3 372.5 108 L 373.5 106 L 374 108.5 L 372.5 109 L 369.5 108 L 369 109.5 L 378.5 110 Q 379.5 108 380.5 110 L 385 110.5 L 375.5 111 L 374.5 112 L 373.5 111 L 357.5 111 L 355.5 110 Q 354.5 112 353.5 110 L 311.5 110 L 310.5 109 L 258.5 109 L 257 110.5 L 257 119.5 L 256 120.5 L 256 128.5 L 255 129.5 Q 257 130.5 255 131.5 L 254 147.5 L 253 148.5 L 253 157.5 L 251 163.5 L 253 165.5 L 252.5 166 L 251 166.5 L 251 171.5 L 250 172.5 Q 251.2 177.3 249 178.5 L 250.5 183 L 249 183.5 L 249 195.5 L 248 196.5 L 249 198.5 L 248 201.5 Q 249.3 206.3 247 207.5 Q 249 208.5 247 209.5 L 247 217.5 L 246 218.5 Q 248 219.5 246 220.5 L 246 229.5 L 245 230.5 Q 247 231.5 245 232.5 L 244.5 239 L 243 239.5 L 244 242.5 Q 242.2 243.3 243 246.5 Q 245 247.5 243 248.5 Q 240.7 251.7 242 258.5 L 240.5 260 L 238.5 258 L 238 258.5 L 237.5 260 L 235 260.5 L 238 262.5 L 238.5 264 L 240.5 262 L 241 262.5 L 240 265.5 Q 242.3 266.8 239.5 268 L 235 271.5 L 236.5 272 L 238 271.5 L 237 273.5 L 238 275.5 Q 236 276.5 238 277.5 L 237 280.5 L 237 287.5 L 235.5 289 L 234 289.5 L 236 292.5 L 234.5 292 L 233 292.5 L 234 294.5 Q 232 295.5 234 296.5 L 233.5 299 Q 232.3 296.8 231 299.5 L 230.5 301 L 227.5 299 L 228 300.5 L 227.5 302 L 226 302.5 L 227 304.5 Q 223.2 304.7 222 307.5 Q 221.5 310.5 223.5 311 L 225 310.5 L 224.5 309 L 227 311.5 L 226 312.5 L 225.5 315 L 224.5 312 Q 223.5 314 222.5 312 L 220 310.5 Q 222.3 309.3 221 304.5 L 222.5 302 L 225 300.5 L 222 298.5 L 222.5 297 L 223.5 299 L 224 295.5 L 223 294.5 L 223 284.5 L 224 283.5 L 225 265.5 L 226 264.5 L 226 256.5 L 227 255.5 L 227 247.5 L 228 246.5 L 228 238.5 L 229 237.5 L 229 229.5 L 230 228.5 L 230 219.5 L 231 218.5 L 231 210.5 L 232 209.5 L 232 200.5 L 233 199.5 L 233 191.5 L 234 190.5 L 234 182.5 L 235 181.5 L 235 173.5 L 236 172.5 L 236 164.5 L 237 163.5 L 238 144.5 L 239 143.5 L 240 127.5 L 241 126.5 L 241 118.5 L 242 117.5 L 242 110.5 L 243 109.5 L 243 100.5 Q 244.8 99.8 244 96.5 L 246.5 94 L 249.5 93 Z M 365 98 L 364 102 L 366 101 L 367 103 L 368 103 L 367 100 L 365 98 Z M 352 100 L 352 101 L 354 101 L 352 100 Z M 349 101 L 348 103 Q 349 105 350 104 L 349 101 Z M 347 103 L 345 109 L 347 109 L 346 108 L 348 104 L 347 103 Z M 352 103 L 350 105 L 351 107 L 353 106 L 356 107 L 357 105 L 352 103 Z M 362 103 L 362 106 L 363 104 L 362 103 Z M 360 106 L 359 108 L 359 109 L 360 109 L 360 106 Z M 341 107 L 340 109 L 342 109 Q 343 108 341 107 Z M 362 108 Q 360 109 363 110 L 363 109 L 362 108 Z M 241 250 L 239 251 L 239 252 L 241 252 L 241 250 Z M 227 296 L 227 297 L 229 297 L 227 296 Z " /><path fill="rgb(49,51,57)" stroke="rgb(49,51,57)" stroke-width="1" opacity="0.996078431372549" d="M 394.5 97 L 400 97.5 L 394.5 98 L 394.5 97 Z " /><path fill="rgb(49,51,57)" stroke="rgb(49,51,57)" stroke-width="1" opacity="0.996078431372549" d="M 401.5 97 L 421.5 97 L 422.5 98 Q 423.5 96 424.5 98 L 428 100.5 L 428 160.5 L 427 162.5 L 428 163.5 L 427 164.5 L 428 167.5 L 427 170.5 L 427 229.5 L 426 231.5 L 427 233.5 L 426 234.5 L 426 296.5 L 425 297.5 L 425 348.5 L 424 349.5 L 424.5 351 L 422.5 347 L 420 345.5 L 419.5 344 L 414.5 341 L 413.5 343 L 412.5 341 L 407 339.5 L 407.5 338 L 410 336.5 L 411 334.5 L 410 331.5 L 409.5 330 L 408.5 332 L 407 329.5 L 409.5 328 L 410.5 330 L 412 329.5 L 413 326.5 L 411 325.5 L 414 324.5 Q 412.8 321.8 411.5 324 L 409.5 325 L 410 323.5 L 411 321.5 L 409.5 321 L 408 321.5 Q 411.5 320 409 318.5 Q 408 314.5 410 313.5 L 409 312.5 L 409 289.5 L 407 283.5 L 408 282.5 L 408 272.5 L 407 270.5 L 408 268.5 L 407 267.5 L 407 258.5 L 406 256.5 Q 408 255.5 406 254.5 L 406.5 247 L 407.5 255 L 408.5 253 L 409.5 260 L 410 240.5 L 409 239.5 L 409 230.5 L 408 229.5 L 408 216.5 L 407 215.5 L 407 206.5 L 408 206.5 L 408.5 215 L 410.5 216 L 411 213.5 L 409 213.5 L 411 210.5 L 409 210.5 L 410 206.5 L 409 204.5 L 410 202.5 Q 408 201.5 410 200.5 L 409 197.5 L 410 196.5 L 410 181.5 Q 408 180.5 410 179.5 L 410.5 175 L 411.5 182 L 412 157.5 L 411 155.5 Q 413 154.5 411 153.5 L 410.5 134 L 409.5 138 L 409 130.5 L 410 128.5 L 409 127.5 L 409 120.5 L 410.5 120 Q 413.3 121.3 411 122.5 L 412 124.5 L 412.5 141 L 413 126.5 L 416 123.5 L 414.5 123 L 413 123.5 L 414.5 121 L 416 120.5 L 413 119.5 L 414 117.5 L 413 114.5 L 415 113.5 L 414 111.5 L 417 109.5 L 418.5 106 L 420 105.5 L 418 104.5 L 419 102.5 L 416.5 101 L 415.5 103 L 415 101.5 L 416 99.5 Q 413.9 97.1 408.5 98 Q 407.5 100 406.5 98 L 404.5 99 L 401.5 98 L 401.5 97 Z M 417 98 Q 415 99 418 100 L 419 100 L 417 98 Z M 420 98 L 420 99 L 422 99 L 420 98 Z M 423 113 L 423 117 L 424 114 L 423 113 Z M 418 116 Q 416 117 416 120 L 418 119 L 419 122 Q 421 121 419 120 L 420 118 L 418 116 Z M 417 126 L 417 128 L 419 128 L 417 126 Z M 413 142 L 412 147 L 413 147 L 413 142 Z M 412 184 L 412 189 L 413 185 L 412 184 Z M 411 221 L 410 224 L 411 224 L 411 221 Z M 411 226 L 410 230 L 411 230 L 411 226 Z M 417 256 L 416 259 L 417 259 L 417 256 Z M 410 261 L 409 270 L 410 270 L 410 261 Z M 410 271 L 409 274 L 410 274 L 410 271 Z M 410 278 L 409 281 L 410 281 L 410 278 Z M 416 311 L 415 314 L 416 314 L 416 311 Z M 413 313 Q 411 314 414 315 L 414 314 L 413 313 Z M 413 316 L 413 318 L 411 317 L 410 319 L 414 320 L 414 317 L 413 316 Z M 412 320 Q 410 321 413 322 L 414 322 L 412 320 Z M 414 328 L 412 331 L 413 333 L 414 331 L 414 328 Z M 412 338 L 412 339 L 415 339 L 412 338 Z " /><path fill="rgb(49,51,57)" stroke="rgb(49,51,57)" stroke-width="1" opacity="0.996078431372549" d="M 370.5 99 L 375 99.5 L 374.5 102 L 371.5 100 L 370 100.5 L 370.5 99 Z " /><path fill="rgb(49,51,57)" stroke="rgb(49,51,57)" stroke-width="1" opacity="0.996078431372549" d="M 372.5 102 L 372 103.5 L 371.5 105 L 370 104.5 L 372.5 102 Z " /><path fill="rgb(49,51,57)" stroke="rgb(49,51,57)" stroke-width="1" opacity="0.996078431372549" d="M 376.5 104 L 378 107.5 Q 377 110 376 108.5 Q 378 107.5 376 106.5 L 376.5 104 Z " /><path fill="rgb(49,51,57)" stroke="rgb(49,51,57)" stroke-width="1" opacity="0.996078431372549" d="M 415.5 104 L 417 104.5 Q 416 107 415 105.5 L 415.5 104 Z " /><path fill="rgb(49,51,57)" stroke="rgb(49,51,57)" stroke-width="1" opacity="0.996078431372549" d="M 407.5 106 L 409 106.5 L 410 108.5 L 407.5 110 L 407.5 109 L 409 108.5 L 407 106.5 L 407.5 106 Z " /><path fill="rgb(49,51,57)" stroke="rgb(49,51,57)" stroke-width="1" opacity="0.996078431372549" d="M 398.5 109 L 399.5 111 L 402.5 110 L 406 111.5 L 398.5 112 L 398.5 109 Z " /><path fill="rgb(49,51,57)" stroke="rgb(49,51,57)" stroke-width="1" opacity="0.996078431372549" d="M 260.5 111 L 289 111.5 L 260.5 112 L 260.5 111 Z " /><path fill="rgb(49,51,57)" stroke="rgb(49,51,57)" stroke-width="1" opacity="0.996078431372549" d="M 315.5 112 L 326 112.5 L 315.5 113 L 315.5 112 Z " /><path fill="rgb(49,51,57)" stroke="rgb(49,51,57)" stroke-width="1" opacity="0.996078431372549" d="M 291.5 113 L 299 113.5 L 291.5 114 L 291.5 113 Z " /><path fill="rgb(49,51,57)" stroke="rgb(49,51,57)" stroke-width="1" opacity="0.996078431372549" d="M 329.5 113 L 347 113.5 L 338.5 114 L 337.5 115 L 331.5 115 L 329 113.5 L 329.5 113 Z " /><path fill="rgb(49,51,57)" stroke="rgb(49,51,57)" stroke-width="1" opacity="0.996078431372549" d="M 379.5 114 L 407.5 114 L 409 115.5 Q 408.3 117.8 404.5 117 L 404.5 116 L 408 115.5 L 379.5 115 L 379.5 114 Z " /><path fill="rgb(49,51,57)" stroke="rgb(49,51,57)" stroke-width="1" opacity="0.996078431372549" d="M 370.5 115 L 375 115.5 L 370.5 116 L 370.5 115 Z " /><path fill="rgb(49,51,57)" stroke="rgb(49,51,57)" stroke-width="1" opacity="0.996078431372549" d="M 258.5 128 L 259 130.5 L 258 130.5 L 258.5 128 Z " /><path fill="rgb(49,51,57)" stroke="rgb(49,51,57)" stroke-width="1" opacity="0.996078431372549" d="M 255.5 157 L 256 159.5 L 255 159.5 L 255.5 157 Z " /><path fill="rgb(49,51,57)" stroke="rgb(49,51,57)" stroke-width="1" opacity="0.996078431372549" d="M 409.5 162 L 410 167.5 L 408.5 168 L 408 165.5 L 409.5 162 Z " /><path fill="rgb(49,51,57)" stroke="rgb(49,51,57)" stroke-width="1" opacity="0.996078431372549" d="M 408.5 169 Q 410.5 169.5 410 172.5 L 409 172.5 L 408.5 169 Z " /><path fill="rgb(49,51,57)" stroke="rgb(49,51,57)" stroke-width="1" opacity="0.996078431372549" d="M 253.5 178 L 254 180.5 L 253 180.5 L 253.5 178 Z " /><path fill="rgb(49,51,57)" stroke="rgb(49,51,57)" stroke-width="1" opacity="0.996078431372549" d="M 251.5 197 L 252 199.5 L 251 199.5 L 251.5 197 Z " /><path fill="rgb(49,51,57)" stroke="rgb(49,51,57)" stroke-width="1" opacity="0.996078431372549" d="M 249.5 216 L 250 218.5 L 249 218.5 L 249.5 216 Z " /><path fill="rgb(49,51,57)" stroke="rgb(49,51,57)" stroke-width="1" opacity="0.996078431372549" d="M 247.5 236 L 248 238.5 L 247 238.5 L 247.5 236 Z " /><path fill="rgb(49,51,57)" stroke="rgb(49,51,57)" stroke-width="1" opacity="0.996078431372549" d="M 243.5 277 L 244 279.5 L 243 279.5 L 243.5 277 Z " /><path fill="rgb(49,51,57)" stroke="rgb(49,51,57)" stroke-width="1" opacity="0.996078431372549" d="M 242.5 287 L 243 289.5 L 242 289.5 L 242.5 287 Z " /><path fill="rgb(49,51,57)" stroke="rgb(49,51,57)" stroke-width="1" opacity="0.996078431372549" d="M 405.5 291 L 406 296.5 L 405 296.5 L 405.5 291 Z " /><path fill="rgb(49,51,57)" stroke="rgb(49,51,57)" stroke-width="1" opacity="0.996078431372549" d="M 407.5 294 L 408 315.5 L 406.5 320 L 406 298.5 L 407.5 294 Z " /><path fill="rgb(49,51,57)" stroke="rgb(49,51,57)" stroke-width="1" opacity="0.996078431372549" d="M 241.5 297 L 242 299.5 L 241 299.5 L 241.5 297 Z " /><path fill="rgb(49,51,57)" stroke="rgb(49,51,57)" stroke-width="1" opacity="0.996078431372549" d="M 240.5 310 L 241 311.5 L 238.5 313 L 238 311.5 L 240.5 310 Z " /><path fill="rgb(49,51,57)" stroke="rgb(49,51,57)" stroke-width="1" opacity="0.996078431372549" d="M 244.5 312 L 259.5 312 L 260.5 313 L 266 313.5 L 262.5 315 L 255.5 315 L 255.5 313 L 246.5 313 Q 245.5 315 241.5 314 L 241.5 313 L 244.5 312 Z " /><path fill="rgb(49,51,57)" stroke="rgb(49,51,57)" stroke-width="1" opacity="0.996078431372549" d="M 271.5 313 L 283 314.5 L 278.5 315 L 277.5 316 L 270.5 316 L 270.5 315 L 275 314.5 L 271.5 314 L 271.5 313 Z " /><path fill="rgb(49,51,57)" stroke="rgb(49,51,57)" stroke-width="1" opacity="0.996078431372549" d="M 285.5 314 L 290.5 314 L 291.5 315 L 296 315.5 L 294.5 317 L 286.5 317 L 286.5 316 L 290 315.5 L 285.5 315 L 285.5 314 Z " /><path fill="rgb(49,51,57)" stroke="rgb(49,51,57)" stroke-width="1" opacity="0.996078431372549" d="M 303.5 315 L 306.5 315 L 314.5 318 L 318.5 316 L 321.5 316 L 325.5 318 L 333.5 318 Q 334.3 316.3 337.5 317 Q 338.5 319 342.5 318 L 344 319.5 L 342.5 320 Q 341.5 318 340.5 320 L 334.5 320 L 333.5 319 L 331.5 320 L 330.5 319 L 298.5 318 L 297 316.5 L 299.5 316 Q 300.5 318 301.5 316 L 303.5 315 Z " /><path fill="rgb(49,51,57)" stroke="rgb(49,51,57)" stroke-width="1" opacity="0.996078431372549" d="M 219.5 318 L 221 318.5 L 219.5 321 L 219.5 318 Z " /><path fill="rgb(49,51,57)" stroke="rgb(49,51,57)" stroke-width="1" opacity="0.996078431372549" d="M 350.5 318 L 353.5 318 L 361 320.5 L 350.5 321 Q 347.5 319.5 350.5 318 Z " /><path fill="rgb(49,51,57)" stroke="rgb(49,51,57)" stroke-width="1" opacity="0.996078431372549" d="M 367.5 319 L 376 320.5 L 375.5 322 L 363.5 322 L 362 320.5 L 363.5 320 L 365.5 321 L 367.5 319 Z " /><path fill="rgb(49,51,57)" stroke="rgb(49,51,57)" stroke-width="1" opacity="0.996078431372549" d="M 382.5 320 Q 388.3 318.8 389.5 322 L 399.5 322 L 402.5 321 L 405 323.5 L 404.5 324 L 380.5 323 L 379 321.5 L 382.5 320 Z " /><path fill="rgb(49,51,57)" stroke="rgb(49,51,57)" stroke-width="1" opacity="0.996078431372549" d="M 423.5 355 L 424 359.5 L 418.5 366 L 417 365.5 L 418 364.5 L 418.5 360 L 420.5 359 Q 421.8 361.2 423 358.5 L 423.5 355 Z " /><path fill="rgb(49,51,57)" stroke="rgb(49,51,57)" stroke-width="1" opacity="0.996078431372549" d="M 281.5 359 L 290 359.5 L 281.5 360 L 281.5 359 Z " /><path fill="rgb(49,51,57)" stroke="rgb(49,51,57)" stroke-width="1" opacity="0.996078431372549" d="M 326.5 362 L 337 362.5 L 326.5 363 L 326.5 362 Z " /><path fill="rgb(49,51,57)" stroke="rgb(49,51,57)" stroke-width="1" opacity="0.996078431372549" d="M 395.5 365 L 396.5 367 L 398 367.5 L 396.5 368 L 395.5 367 L 388 366.5 L 394.5 366 L 395.5 365 Z " /><path fill="rgb(102,95,8)" stroke="rgb(102,95,8)" stroke-width="1" opacity="0.0196078431372549" d="M 428.5 273 L 429 275.5 L 428 275.5 L 428.5 273 Z " /><path fill="rgb(102,95,8)" stroke="rgb(102,95,8)" stroke-width="1" opacity="0.0196078431372549" d="M 427.5 335 L 428 338.5 L 427 338.5 L 427.5 335 Z " /><path fill="rgb(102,95,8)" stroke="rgb(102,95,8)" stroke-width="1" opacity="0.0196078431372549" d="M 357.5 367 L 361 367.5 L 357.5 368 L 357.5 367 Z " /></svg>