<svg viewBox="0 0 640 640" version="1.1" xmlns="http://www.w3.org/2000/svg" desc="Created with imagetracer.js version 1.2.6" ><path fill="rgb(0,0,0)" stroke="rgb(0,0,0)" stroke-width="1" opacity="0.9411764705882353" d="M 301.5 0 L 338.5 0 L 339.5 1 L 350.5 1 L 351.5 2 L 367.5 3 L 368.5 4 L 373.5 4 L 374.5 5 L 384.5 6 L 389.5 8 L 393.5 8 L 394.5 9 L 401.5 10 L 440.5 23 L 454.5 30 L 456.5 30 L 479.5 42 L 504.5 58 Q 533.4 78.6 557 104.5 L 582 135.5 L 595 155.5 L 610 183.5 L 610 185.5 L 614 192.5 L 614 194.5 L 619 204.5 L 621 212.5 L 623 215.5 L 626 224.5 L 626 227.5 L 628 231.5 L 628 234.5 L 630 238.5 L 631 245.5 L 632 246.5 L 632 250.5 L 634 255.5 L 634 260.5 L 636 266.5 L 636 271.5 L 637 272.5 L 638 288.5 L 639 289.5 L 639 300.5 L 640 301.5 L 640 338.5 L 639 339.5 L 639 350.5 L 638 351.5 L 637 367.5 L 636 368.5 L 636 373.5 L 635 374.5 L 634 384.5 L 632 389.5 L 632 393.5 L 631 394.5 L 630 401.5 L 628 405.5 L 628 408.5 L 626 412.5 L 626 415.5 L 623 424.5 L 621 427.5 L 619 435.5 L 614 445.5 L 614 447.5 L 610 454.5 L 610 456.5 L 595 484.5 L 579 508.5 Q 559.6 535.1 535.5 557 L 504.5 582 L 484.5 595 L 456.5 610 L 454.5 610 L 447.5 614 L 445.5 614 L 440.5 617 L 430.5 620 L 427.5 622 L 415.5 626 L 412.5 626 L 408.5 628 L 405.5 628 L 401.5 630 L 398.5 630 L 393.5 632 L 389.5 632 L 384.5 634 L 379.5 634 L 373.5 636 L 368.5 636 L 367.5 637 L 351.5 638 L 350.5 639 L 339.5 639 L 338.5 640 L 301.5 640 L 300.5 639 L 289.5 639 L 288.5 638 L 272.5 637 L 271.5 636 L 266.5 636 L 265.5 635 L 255.5 634 L 250.5 632 L 246.5 632 L 245.5 631 L 238.5 630 L 234.5 628 L 231.5 628 L 227.5 626 L 224.5 626 L 212.5 622 L 209.5 620 L 204.5 619 L 194.5 614 L 192.5 614 L 185.5 610 L 183.5 610 L 160.5 598 L 135.5 582 Q 106.6 561.4 83 535.5 L 58 504.5 L 45 484.5 L 30 456.5 L 30 454.5 L 26 447.5 L 26 445.5 L 23 440.5 L 20 430.5 L 18 427.5 L 14 415.5 L 14 412.5 L 12 408.5 L 12 405.5 L 10 401.5 L 10 398.5 L 8 393.5 L 8 389.5 L 6 384.5 L 6 379.5 L 4 373.5 L 4 368.5 L 3 367.5 L 2 351.5 L 1 350.5 L 1 339.5 L 0 338.5 L 0 301.5 L 1 300.5 L 1 289.5 L 2 288.5 L 3 272.5 L 4 271.5 L 4 266.5 L 5 265.5 L 6 255.5 L 8 250.5 L 8 246.5 L 9 245.5 L 10 238.5 L 12 234.5 L 12 231.5 L 14 227.5 L 14 224.5 L 18 212.5 L 20 209.5 L 21 204.5 L 26 194.5 L 26 192.5 L 30 185.5 L 30 183.5 L 42 160.5 L 58 135.5 Q 78.6 106.6 104.5 83 Q 124.4 64.9 147.5 50 L 150.5 49 L 160.5 42 L 169.5 38 L 171.5 36 L 199.5 23 L 201.5 23 L 204.5 21 L 209.5 20 L 212.5 18 L 224.5 14 L 227.5 14 L 231.5 12 L 234.5 12 L 246.5 8 L 250.5 8 L 255.5 6 L 260.5 6 L 266.5 4 L 271.5 4 L 272.5 3 L 288.5 2 L 289.5 1 L 300.5 1 L 301.5 0 Z M 306 10 L 305 11 L 292 11 L 291 12 L 282 12 L 281 13 L 275 13 L 274 14 L 269 14 L 268 15 L 263 15 L 262 16 L 254 17 L 253 18 L 249 18 L 237 22 L 234 22 L 227 25 L 224 25 L 218 28 L 200 34 L 173 47 L 164 53 L 159 55 L 129 76 L 108 94 L 85 118 L 67 141 L 52 164 L 37 193 L 37 195 L 30 210 L 29 215 L 27 218 L 24 227 L 24 230 L 22 234 L 22 237 L 20 241 L 19 248 L 18 249 L 18 253 L 17 254 L 16 262 L 15 263 L 15 268 L 14 269 L 14 274 L 13 275 L 13 281 L 12 282 L 12 291 L 11 292 L 11 305 L 10 306 L 10 335 L 11 336 L 11 349 L 12 350 L 12 359 L 13 360 L 13 366 L 14 367 L 14 372 L 15 373 L 15 378 L 16 379 L 17 387 L 18 388 L 18 392 L 19 393 L 20 400 L 22 404 L 22 407 L 24 411 L 24 414 L 27 423 L 29 426 L 34 441 L 37 446 L 37 448 L 55 482 L 76 512 L 94 533 L 118 555 L 141 573 L 159 585 L 193 603 L 195 603 L 210 610 L 218 612 L 221 614 L 227 615 L 234 618 L 237 618 L 241 620 L 248 621 L 249 622 L 253 622 L 258 624 L 262 624 L 263 625 L 268 625 L 269 626 L 274 626 L 275 627 L 281 627 L 282 628 L 291 628 L 292 629 L 305 629 L 306 630 L 335 630 L 336 629 L 349 629 L 350 628 L 366 627 L 367 626 L 378 625 L 379 624 L 383 624 L 388 622 L 392 622 L 397 620 L 400 620 L 404 618 L 414 616 L 423 612 L 431 610 L 446 603 L 448 603 L 482 585 L 512 564 L 533 546 L 555 523 L 573 500 L 589 475 L 603 448 L 603 446 L 610 431 L 612 423 L 614 420 L 615 414 L 618 407 L 618 404 L 620 400 L 621 393 L 622 392 L 622 388 L 624 383 L 624 379 L 625 378 L 625 373 L 626 372 L 626 367 L 627 366 L 628 350 L 629 349 L 629 336 L 630 335 L 630 306 L 629 305 L 629 292 L 628 291 L 627 275 L 626 274 L 625 263 L 624 262 L 624 258 L 622 253 L 622 249 L 620 244 L 620 241 L 618 237 L 616 227 L 612 218 L 610 210 L 603 195 L 603 193 L 585 159 L 564 129 L 546 108 L 523 85 L 500 67 L 468 47 L 441 34 L 439 34 L 431 30 L 426 29 L 423 27 L 414 24 L 411 24 L 400 20 L 393 19 L 392 18 L 388 18 L 383 16 L 379 16 L 378 15 L 373 15 Q 371 13 367 14 L 366 13 L 360 13 L 359 12 L 350 12 L 349 11 L 336 11 L 335 10 L 306 10 Z " /><path fill="rgb(0,0,0)" stroke="rgb(0,0,0)" stroke-width="1" opacity="0.9411764705882353" d="M 303.5 26 L 336.5 26 L 337.5 27 L 349.5 27 L 350.5 28 L 364.5 29 L 365.5 30 L 376.5 31 L 377.5 32 L 381.5 32 L 382.5 33 L 385.5 33 L 386.5 34 L 401.5 37 L 422.5 44 L 425.5 46 L 430.5 47 L 465.5 64 L 490.5 80 L 515.5 100 L 540 124.5 Q 556.4 143.1 570 164.5 L 590 202.5 L 590 204.5 L 596 217.5 L 603 238.5 L 603 241.5 L 604 242.5 L 607 257.5 L 608 258.5 L 608 262.5 L 609 263.5 L 610 274.5 L 611 275.5 L 612 289.5 L 613 290.5 L 613 302.5 L 614 303.5 L 614 336.5 L 613 337.5 L 613 349.5 L 612 350.5 L 612 357.5 L 611 358.5 L 611 364.5 L 610 365.5 L 610 370.5 L 609 371.5 L 608 381.5 L 607 382.5 L 607 385.5 L 606 386.5 L 603 401.5 L 596 422.5 L 590 435.5 L 590 437.5 L 577 463.5 L 560 490.5 L 540 515.5 L 515.5 540 Q 496.9 556.4 475.5 570 L 437.5 590 L 435.5 590 L 422.5 596 L 401.5 603 L 398.5 603 L 397.5 604 L 394.5 604 L 393.5 605 L 390.5 605 L 381.5 608 L 377.5 608 L 376.5 609 L 365.5 610 L 364.5 611 L 350.5 612 L 349.5 613 L 337.5 613 L 336.5 614 L 303.5 614 L 302.5 613 L 290.5 613 L 289.5 612 L 282.5 612 L 281.5 611 L 275.5 611 L 274.5 610 L 269.5 610 L 268.5 609 L 258.5 608 L 257.5 607 L 254.5 607 L 253.5 606 L 238.5 603 L 217.5 596 L 204.5 590 L 202.5 590 L 176.5 577 L 149.5 560 L 124.5 540 L 100 515.5 Q 83.6 496.9 70 475.5 L 50 437.5 L 50 435.5 L 44 422.5 L 37 401.5 L 37 398.5 L 36 397.5 L 36 394.5 L 35 393.5 L 35 390.5 L 32 381.5 L 32 377.5 L 31 376.5 L 30 365.5 L 29 364.5 L 28 350.5 L 27 349.5 L 27 337.5 L 26 336.5 L 26 303.5 L 27 302.5 L 27 290.5 L 28 289.5 L 28 282.5 L 29 281.5 L 29 275.5 L 30 274.5 L 30 269.5 L 31 268.5 L 32 258.5 L 33 257.5 L 33 254.5 L 34 253.5 L 37 238.5 L 44 217.5 L 50 204.5 L 50 202.5 L 64 174.5 L 80 149.5 L 100 124.5 L 124.5 100 Q 143.1 83.6 164.5 70 L 202.5 50 L 204.5 50 L 217.5 44 L 238.5 37 L 241.5 37 L 242.5 36 L 257.5 33 L 258.5 32 L 268.5 31 L 269.5 30 L 274.5 30 L 275.5 29 L 281.5 29 L 282.5 28 L 289.5 28 L 290.5 27 L 302.5 27 L 303.5 26 Z M 305 28 L 304 29 L 292 29 L 291 30 L 283 30 L 282 31 L 276 31 L 275 32 L 270 32 L 264 34 L 260 34 L 259 35 L 255 35 L 246 38 L 243 38 L 239 40 L 236 40 L 221 45 L 218 47 L 213 48 L 185 61 L 169 70 L 148 84 L 127 101 Q 103 122 84 148 L 67 174 L 54 199 L 54 201 L 51 206 L 47 218 L 45 221 L 40 236 L 40 239 L 38 243 L 36 254 L 35 255 L 33 269 L 32 270 L 32 275 L 31 276 L 31 282 L 30 283 L 30 291 L 29 292 L 29 304 L 28 305 L 28 336 L 29 337 L 29 349 L 30 350 L 31 365 L 32 366 L 32 371 L 33 372 L 33 376 L 34 377 L 34 381 L 35 382 L 35 386 L 38 395 L 38 398 L 40 402 L 40 405 L 45 420 L 51 433 L 51 435 L 54 440 L 54 442 L 67 467 L 84 493 L 101 514 Q 122 537 148 556 L 174 573 L 199 586 L 201 586 L 206 589 L 218 593 L 221 595 L 236 600 L 239 600 L 243 602 L 254 604 L 255 605 L 269 607 L 270 608 L 275 608 L 276 609 L 282 609 L 283 610 L 291 610 L 292 611 L 304 611 L 305 612 L 336 612 L 337 611 L 349 611 L 350 610 L 365 609 L 366 608 L 371 608 L 372 607 L 376 607 L 377 606 L 381 606 L 382 605 L 386 605 L 395 602 L 398 602 L 402 600 L 405 600 L 420 595 L 433 589 L 435 589 L 440 586 L 442 586 L 467 573 L 493 556 L 514 539 Q 537 518 556 493 L 573 467 L 586 442 L 586 440 L 589 435 L 593 423 L 595 420 L 600 405 L 600 402 L 602 398 L 604 387 L 605 386 L 607 372 L 608 371 L 608 366 L 609 365 L 609 359 L 610 358 L 610 350 L 611 349 L 611 337 L 612 336 L 612 305 L 611 304 L 611 292 L 610 291 L 609 276 L 608 275 L 608 270 L 607 269 L 607 265 L 606 264 L 606 260 L 605 259 L 605 255 L 602 246 L 602 243 L 600 239 L 600 236 L 595 221 L 589 208 L 589 206 L 586 201 L 586 199 L 573 174 L 556 148 L 539 127 L 514 101 L 486 79 L 460 63 L 428 48 L 398 38 L 387 36 L 386 35 L 382 35 L 381 34 L 377 34 L 376 33 L 372 33 L 371 32 L 366 32 L 365 31 L 350 30 L 349 29 L 337 29 L 336 28 L 305 28 Z " /><path fill="rgb(0,0,0)" stroke="rgb(0,0,0)" stroke-width="1" opacity="0.9411764705882353" d="M 299.5 33 L 340.5 33 L 341.5 34 L 351.5 34 L 352.5 35 L 359.5 35 L 360.5 36 L 365.5 36 L 366.5 37 L 371.5 37 L 372.5 38 L 386.5 40 L 387.5 41 L 390.5 41 L 394.5 43 L 401.5 44 L 419.5 50 L 422.5 52 L 434.5 56 L 460.5 69 L 475.5 78 L 501.5 97 L 529 122.5 L 547 143.5 L 567 172.5 L 583 203.5 L 583 205.5 L 590 220.5 L 596 238.5 L 597 245.5 L 599 249.5 L 599 253.5 L 600 254.5 L 601 262.5 L 602 263.5 L 602 267.5 L 603 268.5 L 604 279.5 L 605 280.5 L 605 287.5 L 606 288.5 L 606 298.5 L 607 299.5 L 607 340.5 L 606 341.5 L 606 351.5 L 605 352.5 L 605 359.5 L 604 360.5 L 604 365.5 L 603 366.5 L 603 371.5 L 602 372.5 L 601 381.5 L 599 386.5 L 599 390.5 L 597 394.5 L 597 397.5 L 595 401.5 L 595 404.5 L 590 419.5 L 583 434.5 L 583 436.5 L 571 460.5 L 558 481.5 L 538 507.5 L 516.5 530 L 496.5 547 L 467.5 567 L 434.5 584 L 432.5 584 L 419.5 590 L 401.5 596 L 394.5 597 L 390.5 599 L 382.5 600 L 381.5 601 L 377.5 601 L 376.5 602 L 372.5 602 L 371.5 603 L 367.5 603 L 366.5 604 L 360.5 604 L 359.5 605 L 352.5 605 L 351.5 606 L 341.5 606 L 340.5 607 L 299.5 607 L 298.5 606 L 288.5 606 L 287.5 605 L 280.5 605 L 279.5 604 L 274.5 604 L 273.5 603 L 268.5 603 L 267.5 602 L 258.5 601 L 253.5 599 L 249.5 599 L 245.5 597 L 242.5 597 L 238.5 595 L 235.5 595 L 220.5 590 L 217.5 588 L 205.5 584 L 179.5 571 L 158.5 558 L 132.5 538 L 111 517.5 L 93 496.5 L 73 467.5 L 57 436.5 L 57 434.5 L 50 419.5 L 45 404.5 L 45 401.5 L 43 397.5 L 43 394.5 L 41 390.5 L 41 386.5 L 40 385.5 L 39 377.5 L 38 376.5 L 38 372.5 L 37 371.5 L 36 360.5 L 35 359.5 L 35 352.5 L 34 351.5 L 34 341.5 L 33 340.5 L 33 299.5 L 34 298.5 L 34 288.5 L 35 287.5 L 35 280.5 L 36 279.5 L 36 274.5 L 37 273.5 L 37 268.5 L 38 267.5 L 39 258.5 L 41 253.5 L 41 249.5 L 43 245.5 L 43 242.5 L 45 238.5 L 45 235.5 L 50 220.5 L 57 205.5 L 57 203.5 L 69 179.5 L 82 158.5 L 102 132.5 L 122.5 111 L 143.5 93 L 164.5 78 L 179.5 69 L 205.5 56 L 207.5 56 L 220.5 50 L 235.5 45 L 238.5 45 L 242.5 43 L 245.5 43 L 249.5 41 L 253.5 41 L 254.5 40 L 262.5 39 L 263.5 38 L 267.5 38 L 268.5 37 L 279.5 36 L 280.5 35 L 287.5 35 L 288.5 34 L 298.5 34 L 299.5 33 Z M 302 37 L 301 38 L 290 38 L 289 39 L 275 40 L 269 42 L 260 43 L 259 44 L 255 44 L 243 48 L 240 48 L 222 54 L 214 58 L 212 58 L 183 72 L 181 74 L 171 79 Q 148 93 130 110 L 110 130 L 89 156 L 72 183 L 61 205 L 61 207 L 54 222 L 48 240 L 48 243 L 46 247 L 45 254 L 44 255 L 44 259 L 42 264 L 42 269 L 41 270 L 41 274 L 40 275 L 39 289 L 38 290 L 38 301 L 37 302 L 37 339 L 38 340 L 38 351 L 39 352 L 40 366 L 41 367 L 42 377 L 44 382 L 44 386 L 46 391 L 46 394 L 48 398 L 48 401 L 54 419 L 61 434 L 61 436 L 79 470 Q 93 492 110 511 L 130 530 L 156 551 L 183 568 L 205 579 L 207 579 L 222 586 L 240 592 L 243 592 L 247 594 L 254 595 L 255 596 L 259 596 L 264 598 L 269 598 L 270 599 L 274 599 L 275 600 L 289 601 L 290 602 L 300 602 L 301 603 L 340 603 L 341 602 L 351 602 L 352 601 L 366 600 L 367 599 L 372 599 L 373 598 L 377 598 L 382 596 L 386 596 L 391 594 L 394 594 L 398 592 L 401 592 L 419 586 L 432 580 L 434 580 L 470 561 Q 492 547 511 530 L 530 511 L 551 485 L 568 458 L 579 436 L 579 434 L 586 419 L 592 401 L 592 398 L 594 394 L 595 387 L 596 386 L 596 382 L 598 377 L 598 372 L 599 371 L 599 367 L 600 366 L 601 352 L 602 351 L 602 340 L 603 339 L 603 302 L 602 301 L 602 290 L 601 289 L 600 275 L 599 274 L 598 264 L 596 259 L 596 255 L 594 250 L 594 247 L 592 243 L 592 240 L 586 222 L 579 207 L 579 205 L 561 171 Q 547 148 530 130 L 511 110 L 485 89 L 458 72 L 429 58 L 427 58 L 419 54 L 401 48 L 398 48 L 394 46 L 387 45 L 386 44 L 382 44 L 377 42 L 373 42 L 372 41 L 367 41 L 366 40 L 352 39 L 351 38 L 340 38 L 339 37 L 302 37 Z " /><path fill="rgb(0,0,0)" stroke="rgb(0,0,0)" stroke-width="1" opacity="0.9411764705882353" d="M 310.5 43 L 329.5 43 L 330.5 44 L 345.5 44 L 346.5 45 L 354.5 45 L 355.5 46 L 361.5 46 L 362.5 47 L 373.5 48 L 378.5 50 L 382.5 50 L 383.5 51 L 394.5 53 L 401.5 56 L 404.5 56 L 413.5 60 L 418.5 61 L 421.5 63 L 423.5 63 L 426.5 65 L 428.5 65 L 449.5 75 L 474.5 90 L 499.5 109 L 523 131.5 L 536 146.5 L 557 176.5 L 571 202.5 L 571 204.5 L 579 221.5 L 587 245.5 L 587 248.5 L 590 257.5 L 590 261.5 L 591 262.5 L 591 266.5 L 592 267.5 L 592 271.5 L 593 272.5 L 594 284.5 L 595 285.5 L 595 294.5 L 596 295.5 L 597 328.5 L 596 329.5 L 596 344.5 L 595 345.5 L 595 354.5 L 594 355.5 L 594 361.5 L 593 362.5 L 593 367.5 L 592 368.5 L 590 382.5 L 589 383.5 L 587 394.5 L 584 401.5 L 584 404.5 L 582 410.5 L 580 413.5 L 575 428.5 L 571 435.5 L 571 437.5 L 560 458.5 L 545 481.5 L 531 499.5 L 508.5 523 L 493.5 536 L 463.5 557 L 437.5 571 L 435.5 571 L 428.5 575 L 413.5 580 L 410.5 582 L 404.5 584 L 401.5 584 L 394.5 587 L 383.5 589 L 382.5 590 L 378.5 590 L 377.5 591 L 368.5 592 L 367.5 593 L 362.5 593 L 361.5 594 L 346.5 595 L 345.5 596 L 330.5 596 L 329.5 597 L 310.5 597 L 309.5 596 L 295.5 596 L 294.5 595 L 285.5 595 L 284.5 594 L 278.5 594 L 277.5 593 L 272.5 593 L 271.5 592 L 257.5 590 L 256.5 589 L 245.5 587 L 238.5 584 L 235.5 584 L 229.5 582 L 226.5 580 L 211.5 575 L 204.5 571 L 202.5 571 L 181.5 560 L 158.5 545 Q 135.7 528.8 117 508.5 L 104 493.5 L 83 463.5 L 69 437.5 L 69 435.5 L 65 428.5 L 60 413.5 L 58 410.5 L 56 404.5 L 56 401.5 L 53 394.5 L 51 383.5 L 50 382.5 L 50 378.5 L 49 377.5 L 48 368.5 L 47 367.5 L 47 362.5 L 46 361.5 L 45 346.5 L 44 345.5 L 44 330.5 L 43 329.5 L 43 310.5 L 44 309.5 L 44 294.5 L 45 293.5 L 45 285.5 L 46 284.5 L 46 278.5 L 47 277.5 L 47 272.5 L 48 271.5 L 48 266.5 L 50 261.5 L 50 257.5 L 51 256.5 L 53 245.5 L 56 238.5 L 56 235.5 L 58 229.5 L 60 226.5 L 65 211.5 L 69 204.5 L 69 202.5 Q 93.1 152.6 131.5 117 L 146.5 104 L 168.5 88 L 171.5 87 L 181.5 80 L 188.5 77 L 190.5 75 L 211.5 65 L 213.5 65 L 216.5 63 L 218.5 63 L 221.5 61 L 226.5 60 L 235.5 56 L 238.5 56 L 245.5 53 L 248.5 53 L 257.5 50 L 261.5 50 L 262.5 49 L 266.5 49 L 272.5 47 L 277.5 47 L 278.5 46 L 284.5 46 L 285.5 45 L 294.5 45 L 295.5 44 L 309.5 44 L 310.5 43 Z M 313 47 L 312 48 L 297 48 L 296 49 L 287 49 L 286 50 L 280 50 L 279 51 L 274 51 L 273 52 L 263 53 L 258 55 L 247 57 L 243 59 L 240 59 L 231 62 L 228 64 L 223 65 L 220 67 L 218 67 L 215 69 L 213 69 L 194 78 L 192 80 L 175 89 L 151 106 L 138 117 L 117 138 L 97 163 L 83 185 L 73 204 L 73 206 L 69 213 L 65 225 L 63 228 L 59 240 L 59 243 L 57 247 L 54 262 L 53 263 L 52 273 L 51 274 L 51 279 L 50 280 L 50 286 L 49 287 L 49 295 L 48 296 L 48 312 L 47 313 L 48 345 L 49 346 L 50 361 L 51 362 L 52 373 L 53 374 L 53 378 L 56 387 L 56 390 L 57 391 L 57 394 L 59 398 L 59 401 L 63 413 L 69 426 L 69 428 L 73 435 L 73 437 L 89 466 L 106 490 L 117 503 L 138 523 L 163 543 L 185 557 L 204 567 L 206 567 L 213 571 L 228 576 L 231 578 L 240 581 L 243 581 L 247 583 L 262 586 L 263 587 L 273 588 L 274 589 L 279 589 L 280 590 L 286 590 L 287 591 L 296 591 L 297 592 L 312 592 L 313 593 L 345 592 L 346 591 L 361 590 L 362 589 L 373 588 L 374 587 L 378 587 L 387 584 L 390 584 L 391 583 L 394 583 L 398 581 L 401 581 L 413 577 L 426 571 L 428 571 L 435 567 L 437 567 L 466 551 L 490 534 L 503 523 L 523 503 L 543 478 L 557 456 L 567 437 L 567 435 L 571 428 L 576 413 L 578 410 L 581 401 L 581 398 L 583 394 L 586 379 L 587 378 L 588 368 L 589 367 L 589 362 L 590 361 L 590 355 L 591 354 L 591 345 L 592 344 L 592 328 L 593 327 L 593 314 L 592 313 L 592 297 L 591 296 L 591 287 L 590 286 L 590 280 L 589 279 L 588 268 L 587 267 L 587 263 L 585 258 L 583 247 L 581 243 L 581 240 L 577 228 L 571 215 L 571 213 L 567 206 L 567 204 L 551 175 L 534 151 L 523 138 L 503 117 L 478 97 L 456 83 L 428 69 L 426 69 L 413 63 L 401 59 L 398 59 L 394 57 L 379 54 L 378 53 L 374 53 L 373 52 L 362 51 L 361 50 L 355 50 L 354 49 L 346 49 L 345 48 L 313 47 Z " /><path fill="rgb(0,0,0)" stroke="rgb(0,0,0)" stroke-width="1" opacity="0.9411764705882353" d="M 298.5 61 L 341.5 61 L 342.5 62 L 351.5 62 L 352.5 63 L 358.5 63 L 359.5 64 L 370.5 65 L 371.5 66 L 379.5 67 L 391.5 71 L 394.5 71 L 409.5 76 L 422.5 82 L 424.5 82 Q 479.1 106.9 516 149.5 L 531 168.5 L 547 193.5 L 558 215.5 L 558 217.5 L 564 230.5 L 569 245.5 L 569 248.5 L 573 260.5 L 573 264.5 L 575 269.5 L 575 274.5 L 576 275.5 Q 574.7 280.3 577 281.5 L 577 287.5 L 578 288.5 L 578 297.5 L 579 298.5 L 579 341.5 L 578 342.5 L 578 351.5 L 577 352.5 L 577 358.5 L 576 359.5 L 575 370.5 L 574 371.5 L 573 379.5 L 569 391.5 L 569 394.5 L 564 409.5 L 558 422.5 L 558 424.5 L 547 446.5 L 531 471.5 L 521 484.5 L 490.5 516 L 471.5 531 L 446.5 547 L 424.5 558 L 422.5 558 L 409.5 564 L 394.5 569 L 391.5 569 L 387.5 571 L 384.5 571 L 379.5 573 L 375.5 573 L 370.5 575 L 365.5 575 L 364.5 576 Q 359.8 574.7 358.5 577 L 352.5 577 L 351.5 578 L 342.5 578 L 341.5 579 L 298.5 579 L 297.5 578 L 288.5 578 L 287.5 577 L 281.5 577 L 280.5 576 L 269.5 575 L 268.5 574 L 260.5 573 L 248.5 569 L 245.5 569 L 230.5 564 L 217.5 558 L 215.5 558 L 193.5 547 L 168.5 531 L 155.5 521 L 124 490.5 L 104 464.5 L 103 461.5 L 93 446.5 L 82 424.5 L 82 422.5 L 76 409.5 L 71 394.5 L 71 391.5 L 69 387.5 L 69 384.5 L 67 379.5 L 67 375.5 L 65 370.5 L 64 359.5 L 63 358.5 L 63 352.5 L 62 351.5 L 62 342.5 L 61 341.5 L 61 298.5 L 62 297.5 L 62 288.5 L 63 287.5 L 63 281.5 L 64 280.5 L 65 269.5 L 66 268.5 L 67 260.5 L 71 248.5 L 71 245.5 L 76 230.5 L 82 217.5 L 82 215.5 L 93 193.5 L 103 178.5 L 104 175.5 L 119 155.5 L 149.5 124 L 175.5 104 L 178.5 103 L 193.5 93 L 215.5 82 L 217.5 82 L 230.5 76 L 245.5 71 L 248.5 71 L 252.5 69 L 259.5 68 L 260.5 67 L 264.5 67 L 269.5 65 L 280.5 64 L 281.5 63 L 287.5 63 L 288.5 62 L 297.5 62 L 298.5 61 Z M 300 67 L 299 68 L 290 68 L 289 69 L 283 69 L 282 70 L 277 70 L 276 71 L 267 72 L 266 73 L 262 73 L 250 77 L 247 77 L 235 81 L 232 83 L 227 84 L 224 86 L 222 86 L 203 95 L 201 97 L 184 106 L 167 118 L 149 133 L 133 149 L 115 171 L 100 194 L 91 211 L 91 213 L 86 222 L 83 232 L 81 235 L 77 247 L 77 250 L 75 254 L 74 261 L 73 262 L 73 266 L 71 271 L 70 282 L 69 283 L 69 289 L 68 290 L 68 299 L 67 300 L 67 341 L 68 342 L 68 351 L 69 352 L 69 358 L 70 359 L 70 364 L 71 365 L 72 374 L 73 375 L 73 379 L 74 380 L 75 387 L 77 391 L 77 394 L 81 406 L 83 409 L 86 419 L 91 428 L 91 430 L 106 457 L 118 474 L 134 493 Q 151 510 171 525 L 194 540 L 211 549 L 213 549 L 222 554 L 232 557 L 235 559 L 247 563 L 250 563 L 254 565 L 261 566 L 262 567 L 266 567 L 271 569 L 282 570 L 283 571 L 289 571 L 290 572 L 299 572 L 300 573 L 341 573 L 342 572 L 351 572 L 352 571 L 358 571 L 359 570 L 364 570 L 365 569 L 374 568 L 375 567 L 379 567 L 380 566 L 387 565 L 391 563 L 394 563 L 406 559 L 419 553 L 421 553 L 428 549 L 430 549 L 452 537 L 474 522 L 493 506 Q 510 489 525 470 L 540 447 L 549 430 L 549 428 L 553 421 L 557 409 L 559 406 L 563 394 L 563 391 L 565 387 L 566 380 L 567 379 L 567 375 L 569 370 L 570 359 L 571 358 L 571 352 L 572 351 L 572 342 L 573 341 L 573 300 L 572 299 L 572 290 L 571 289 L 571 283 L 570 282 L 570 277 L 569 276 L 568 267 L 567 266 L 567 262 L 566 261 L 565 254 L 563 250 L 563 247 L 559 235 L 557 232 L 554 222 L 549 213 L 549 211 L 537 189 L 522 167 L 506 148 L 484 126 L 463 110 L 438 95 L 414 84 L 387 75 L 380 74 L 379 73 L 375 73 L 370 71 L 359 70 L 358 69 L 352 69 L 351 68 L 342 68 L 341 67 L 300 67 Z " /><path fill="rgb(0,0,0)" stroke="rgb(0,0,0)" stroke-width="1" opacity="0.9411764705882353" d="M 305.5 84 L 334.5 84 L 335.5 85 L 345.5 85 L 346.5 86 L 360.5 87 L 361.5 88 L 370.5 89 L 371.5 90 L 382.5 92 L 386.5 94 L 389.5 94 L 401.5 98 L 409.5 102 L 411.5 102 L 439.5 116 L 460.5 130 Q 480.6 144.9 497 163.5 L 507 175.5 L 512.5 184 Q 516.5 183.5 517 186.5 L 516 188.5 L 525 202.5 L 534 219.5 L 534 221.5 L 542 238.5 L 546 250.5 L 546 253.5 L 548 257.5 L 548 260.5 L 551 269.5 L 551 273.5 L 552 274.5 L 552 279.5 L 553 280.5 Q 551.7 285.2 554 286.5 L 554 293.5 L 555 294.5 L 555 304.5 L 556 305.5 L 556 334.5 L 555 335.5 L 555 345.5 L 554 346.5 L 554 353.5 L 553 354.5 L 552 365.5 L 551 366.5 L 551 370.5 L 550 371.5 L 548 382.5 L 546 386.5 L 546 389.5 L 542 401.5 L 534 418.5 L 534 420.5 L 519 447.5 L 507 464.5 Q 493.2 482.2 476.5 497 L 464.5 507 L 447.5 519 L 432.5 527 L 430.5 529 L 401.5 542 L 389.5 546 L 386.5 546 L 382.5 548 L 379.5 548 L 370.5 551 L 366.5 551 L 365.5 552 L 361.5 552 L 360.5 553 L 346.5 554 L 345.5 555 L 335.5 555 L 334.5 556 L 305.5 556 L 304.5 555 L 294.5 555 L 293.5 554 L 286.5 554 L 285.5 553 L 274.5 552 L 273.5 551 L 269.5 551 L 268.5 550 L 257.5 548 L 253.5 546 L 250.5 546 L 238.5 542 L 221.5 534 L 219.5 534 L 192.5 519 L 175.5 507 Q 157.8 493.2 143 476.5 L 127 456.5 L 116 439.5 L 106 420.5 L 106 418.5 L 98 401.5 L 94 389.5 L 94 386.5 L 92 382.5 L 92 379.5 L 89 370.5 L 89 366.5 L 88 365.5 L 88 361.5 L 87 360.5 L 86 346.5 L 85 345.5 L 85 335.5 L 84 334.5 L 84 305.5 L 85 304.5 L 85 294.5 L 86 293.5 L 87 279.5 L 88 278.5 L 88 274.5 L 89 273.5 L 89 269.5 L 90 268.5 L 92 257.5 L 94 253.5 L 94 250.5 L 98 238.5 L 106 221.5 L 106 219.5 L 116 200.5 L 133 175.5 Q 146.8 157.8 163.5 143 Q 177 131 192.5 121 L 207.5 113 L 209.5 111 L 228.5 102 L 230.5 102 L 233.5 100 L 235.5 100 L 238.5 98 L 250.5 94 L 253.5 94 L 257.5 92 L 260.5 92 L 269.5 89 L 279.5 88 L 280.5 87 L 285.5 87 L 286.5 86 L 293.5 86 L 294.5 85 L 304.5 85 L 305.5 84 Z M 308 90 L 307 91 L 297 92 L 308 115 L 319 91 L 308 90 Z M 326 90 L 311 123 L 325 156 L 330 156 L 330 91 L 326 90 Z M 338 91 L 337 157 L 342 158 L 346 158 L 346 93 L 345 91 L 338 91 Z M 288 92 L 287 93 L 282 93 L 281 94 L 271 95 L 262 98 L 259 98 L 255 100 L 252 100 L 243 104 L 238 105 L 235 107 L 233 107 L 229 110 L 244 137 L 246 139 L 248 144 L 250 146 L 252 151 L 263 167 L 272 163 L 275 163 L 279 161 L 289 159 L 297 141 L 297 139 L 301 132 L 301 130 L 304 125 L 304 122 L 300 115 L 300 113 L 296 106 L 296 104 L 291 93 L 288 92 Z M 353 92 L 352 159 L 354 160 L 362 161 L 366 163 L 369 163 L 378 166 L 401 177 L 433 120 L 413 109 L 398 104 L 395 102 L 389 100 L 386 100 L 382 98 L 379 98 L 378 97 L 375 97 L 374 96 L 371 96 L 370 95 L 361 94 L 360 93 L 354 93 L 353 92 Z M 222 112 L 216 116 L 217 117 L 217 125 L 218 126 L 218 134 L 219 135 L 220 150 L 251 172 L 256 169 L 241 144 L 239 139 L 237 137 L 235 132 L 230 125 L 228 120 L 226 118 L 224 113 L 222 112 Z M 210 118 L 198 125 L 192 130 L 212 144 L 213 144 L 213 136 L 212 135 L 211 119 L 210 118 Z M 439 123 L 425 146 L 423 151 L 421 153 L 419 158 L 417 160 L 415 165 L 413 167 L 411 172 L 409 174 L 406 181 Q 428 193 444 212 L 465 197 L 468 196 L 473 196 L 474 195 L 479 195 L 480 194 L 485 194 L 486 193 L 491 193 L 494 191 L 507 187 L 500 177 L 487 162 L 459 136 L 439 123 Z M 308 131 L 296 157 L 297 158 L 300 157 L 309 157 L 310 156 L 319 156 L 308 131 Z M 187 133 L 177 140 L 162 153 L 144 172 L 130 191 L 130 193 L 132 196 L 149 219 L 151 220 Q 154 219 156 221 L 164 221 L 165 222 L 174 222 L 175 223 L 183 223 Q 184 225 188 224 L 195 214 L 219 191 L 218 190 L 218 182 L 217 181 L 217 173 L 216 172 L 216 164 L 215 163 L 215 155 L 211 150 L 187 133 Z M 222 159 Q 220 162 222 163 L 222 171 L 223 172 L 223 180 L 224 181 L 225 187 Q 232 180 243 176 L 243 175 L 226 161 L 222 159 Z M 311 162 L 310 163 L 301 163 L 300 164 L 294 164 L 293 165 L 289 165 L 288 166 L 280 167 L 262 173 L 257 176 L 255 176 L 238 185 L 229 191 L 213 204 L 204 213 L 191 229 L 182 243 L 175 257 L 166 284 L 165 293 L 164 294 L 164 300 L 163 301 L 163 310 L 162 311 L 162 330 L 163 331 L 163 340 L 164 341 L 164 347 L 166 353 L 166 357 L 167 358 L 167 361 L 169 365 L 169 368 L 171 374 L 175 382 L 175 384 L 180 391 L 189 383 Q 202 371 212 356 L 216 352 L 222 349 L 224 349 L 233 344 L 235 344 L 244 339 L 246 339 L 255 334 L 257 334 L 266 329 L 268 329 L 277 324 L 279 324 L 288 319 L 290 319 L 299 314 L 301 314 L 310 309 L 312 309 L 438 217 L 436 213 L 428 204 L 412 191 L 396 181 L 379 173 L 361 167 L 353 166 L 352 165 L 348 165 L 347 164 L 341 164 L 340 163 L 331 163 L 330 162 L 311 162 Z M 508 190 L 493 196 L 484 197 L 483 198 L 478 198 L 477 199 L 472 199 L 471 200 Q 466 199 465 201 L 439 221 L 435 223 L 315 311 Q 311 314 309 319 L 309 323 L 311 327 L 316 330 L 323 330 L 332 325 L 343 317 L 346 316 L 382 292 L 385 291 L 435 258 L 438 257 L 446 251 L 449 250 L 460 242 L 463 241 L 474 233 L 483 228 L 487 223 L 497 205 L 509 191 L 508 190 Z M 512 194 L 506 201 L 504 203 L 505 203 L 514 198 L 513 195 L 512 194 Z M 126 197 L 115 216 L 119 217 L 137 218 L 138 219 L 142 219 L 126 197 Z M 516 203 L 508 209 L 497 215 L 493 219 L 488 228 L 485 231 L 465 244 L 466 245 L 501 224 L 506 220 L 509 219 L 514 215 L 517 214 L 522 210 L 519 205 Q 519 202 516 203 Z M 524 216 L 469 251 L 469 253 L 472 258 L 479 279 L 480 287 L 481 288 L 481 292 L 482 293 L 482 299 L 484 303 L 549 303 L 548 288 L 547 287 L 546 276 L 545 275 L 545 271 L 542 262 L 542 259 L 535 238 L 526 218 L 524 216 Z M 113 222 L 109 228 L 109 230 L 107 233 L 107 235 L 105 238 L 105 240 L 103 243 L 100 252 L 100 255 L 98 259 L 96 270 L 95 271 L 94 280 L 93 281 L 92 295 L 91 297 L 97 300 L 99 300 L 113 307 L 115 307 L 122 311 L 125 311 L 128 309 L 130 309 L 153 298 L 157 297 L 158 296 L 159 288 L 160 287 L 160 283 L 163 275 L 163 272 L 169 257 L 148 227 L 145 225 L 137 225 L 136 224 L 127 224 L 126 223 L 118 223 Q 116 221 113 222 Z M 157 227 L 157 230 L 171 249 L 173 249 Q 176 238 183 231 L 182 229 L 174 229 L 173 228 L 164 228 L 163 227 L 157 227 Z M 459 247 L 448 255 L 434 263 L 384 296 L 381 297 L 342 323 L 339 324 L 328 332 L 323 334 L 233 388 L 213 388 L 212 389 L 204 389 L 203 390 L 195 391 L 194 392 L 190 392 L 186 394 Q 182 395 182 393 L 180 394 L 191 412 L 204 428 L 213 436 L 229 449 L 238 455 L 255 464 L 257 464 L 270 470 L 276 471 L 280 473 L 283 473 L 284 474 L 293 475 L 294 476 L 300 476 L 301 477 L 310 477 L 311 478 L 330 478 L 331 477 L 340 477 L 341 476 L 347 476 L 353 474 L 357 474 L 365 471 L 371 470 L 384 464 L 386 464 L 403 455 L 428 436 L 436 428 L 449 412 L 455 403 L 464 386 L 468 374 L 470 371 L 471 365 L 473 361 L 473 358 L 474 357 L 475 348 L 476 347 L 476 341 L 477 340 L 477 330 L 478 329 L 478 311 L 477 310 L 477 301 L 476 300 L 476 294 L 474 288 L 474 284 L 471 276 L 470 270 L 461 249 L 459 247 Z M 157 303 L 152 306 L 150 306 L 131 315 L 156 326 L 156 310 L 157 309 L 157 303 Z M 92 304 L 90 307 L 91 326 L 110 317 L 112 317 L 115 315 L 92 304 Z M 485 309 L 484 318 L 550 318 L 550 310 L 485 309 Z M 306 315 L 218 355 L 202 376 L 189 387 Q 186 388 188 389 L 195 388 L 196 387 L 200 387 L 205 385 L 220 385 L 221 384 L 232 384 L 287 351 L 292 349 L 304 341 L 316 335 L 316 334 L 313 332 L 307 327 L 306 324 Q 305 318 307 316 L 306 315 Z M 123 318 L 109 325 L 100 328 L 90 334 Q 92 335 91 340 L 157 340 L 157 334 L 152 330 L 150 330 L 136 323 L 134 323 Q 129 319 123 318 Z M 485 324 L 484 331 L 483 333 L 550 333 L 550 326 L 549 324 L 485 324 Z M 484 340 L 482 342 L 482 348 L 481 349 L 481 353 L 480 354 L 479 362 L 471 386 L 528 418 L 531 413 L 533 406 L 535 403 L 542 382 L 544 371 L 545 370 L 545 366 L 546 365 L 546 360 Q 548 358 547 354 L 548 353 L 548 346 Q 550 345 549 341 L 484 340 Z M 93 346 L 92 353 L 93 354 L 93 360 L 95 366 L 95 370 L 96 371 L 98 382 L 100 386 L 100 389 L 103 398 L 107 404 L 164 370 L 161 362 L 158 347 L 93 346 Z M 165 376 L 109 410 L 109 413 L 113 418 L 167 386 L 169 384 L 166 377 L 165 376 Z M 171 390 L 115 424 L 119 431 L 123 430 L 173 400 L 175 398 L 175 396 L 172 391 L 171 390 Z M 469 391 L 466 394 L 462 403 L 460 405 L 462 406 L 467 407 L 470 409 L 524 427 L 525 424 L 510 414 L 496 407 L 494 405 L 471 393 L 469 391 Z M 179 403 L 125 435 Q 120 438 125 440 L 146 433 L 154 429 L 159 428 L 162 426 L 164 426 L 167 424 L 172 423 L 175 421 L 180 420 L 187 417 L 179 403 Z M 456 412 L 445 427 Q 429 446 406 460 L 410 466 L 450 509 L 452 509 L 464 500 L 479 487 L 495 470 L 504 458 L 470 424 L 456 412 Z M 470 415 L 469 416 L 508 453 Q 515 444 520 433 L 470 415 Z M 192 423 L 146 470 L 153 479 L 171 495 L 180 502 L 182 500 L 183 497 L 187 492 L 188 489 L 192 484 L 193 481 L 197 476 L 215 446 L 214 445 L 195 426 L 192 423 Z M 179 426 L 163 433 L 153 436 L 150 438 L 132 444 L 128 447 L 140 464 L 142 465 L 179 428 L 179 426 Z M 220 450 L 185 506 Q 188 509 193 511 L 227 456 Q 224 452 220 450 Z M 232 459 L 212 492 L 208 497 L 207 500 L 203 505 L 202 508 L 198 513 L 198 515 Q 199 516 202 516 L 246 467 L 236 460 L 232 459 Z M 398 464 L 394 467 L 392 467 L 383 472 L 381 472 L 378 474 L 369 477 L 366 477 L 358 480 L 354 480 L 353 481 L 349 481 L 348 482 L 342 482 L 341 483 L 332 483 L 331 484 L 326 485 L 327 491 L 329 495 L 329 498 L 330 499 L 330 502 L 331 503 L 331 506 L 332 507 L 332 510 L 336 522 L 336 525 L 337 526 L 337 529 L 338 530 L 338 533 L 340 537 L 342 548 L 344 549 L 346 548 L 353 548 L 354 547 L 360 547 L 366 545 L 370 545 L 379 542 L 382 542 L 386 540 L 389 540 L 398 536 L 403 535 L 406 533 L 408 533 L 411 531 L 413 531 L 418 528 L 417 522 L 414 515 L 414 512 L 404 482 L 404 479 L 401 472 L 400 466 L 398 464 Z M 253 470 L 247 487 L 247 490 L 243 500 L 243 503 L 238 516 L 238 519 L 234 529 L 234 532 L 233 533 L 246 538 L 252 540 L 255 540 L 259 542 L 270 544 L 271 545 L 275 545 L 276 546 L 287 547 L 288 548 L 295 548 L 296 549 L 296 483 L 279 479 L 275 477 L 272 477 L 263 473 L 258 472 L 255 470 L 253 470 Z M 409 473 L 408 474 L 411 481 L 411 484 L 414 491 L 414 494 L 417 501 L 417 504 L 421 514 L 421 517 L 425 525 L 444 514 L 440 508 L 410 474 L 409 473 Z M 243 480 L 208 518 L 207 521 L 226 530 L 228 530 L 236 505 L 236 502 L 240 492 L 240 489 L 243 482 L 243 480 Z M 303 483 L 302 549 L 307 549 L 308 546 L 308 541 L 309 540 L 310 530 L 311 529 L 311 524 L 312 523 L 313 513 L 314 512 L 314 507 L 315 506 L 316 496 L 317 495 L 318 485 L 310 484 L 309 483 L 303 483 Z M 323 497 L 321 502 L 321 507 L 320 508 L 319 518 L 318 519 L 317 530 L 315 536 L 315 541 L 313 547 L 314 550 L 333 550 L 336 549 L 334 538 L 332 534 L 329 519 L 327 515 L 324 500 L 323 497 Z " /><path fill="rgb(0,0,0)" stroke="rgb(0,0,0)" stroke-width="1" opacity="0.9411764705882353" d="M 318.5 315 L 321.5 315 L 325 318.5 L 325 321.5 L 321.5 325 L 318.5 325 L 315 321.5 L 315 318.5 L 318.5 315 Z M 320 319 L 319 321 L 321 321 L 321 320 L 320 319 Z " /><path fill="rgb(128,128,128)" stroke="rgb(128,128,128)" stroke-width="1" opacity="1" d="M 208.5 384 L 212 384.5 L 208.5 385 L 208.5 384 Z " /><path fill="rgb(254,254,254)" stroke="rgb(254,254,254)" stroke-width="1" opacity="1" d="M 506.5 191 L 508 191.5 L 496 204.5 L 485 224.5 L 481.5 228 L 478.5 229 L 467.5 237 L 453.5 245 L 442.5 253 L 439.5 254 L 428.5 262 L 425.5 263 L 414.5 271 L 400.5 279 L 325.5 328 Q 322.3 330.3 315.5 329 L 311 325.5 Q 309.2 323.3 310 318.5 L 311 315.5 L 315.5 311 L 464.5 202 L 470.5 200 L 475.5 200 L 476.5 199 L 481.5 199 L 482.5 198 L 491.5 197 L 503.5 193 L 506.5 191 Z M 318 315 Q 314 316 315 323 Q 316 326 323 325 Q 326 324 325 318 Q 324 314 318 315 Z " /><path fill="rgb(254,254,254)" stroke="rgb(254,254,254)" stroke-width="1" opacity="1" d="M 305.5 316 L 306 317.5 Q 304 318.5 305 322.5 L 307 327.5 L 312.5 333 L 315 333.5 L 232.5 383 L 225.5 383 L 224.5 384 L 205.5 384 L 204.5 385 L 189.5 388 L 189.5 387 L 202 376.5 L 217.5 356 L 305.5 316 Z " /><path fill="rgb(254,254,254)" stroke="rgb(254,254,254)" stroke-width="1" opacity="1" d="M 319.5 319 L 321 319.5 L 320.5 321 L 319 320.5 L 319.5 319 Z " /><path fill="rgb(34,34,34)" stroke="rgb(34,34,34)" stroke-width="1" opacity="1" d="M 508.5 191 L 509 191.5 L 506.5 194 L 506 193.5 L 508.5 191 Z " /><path fill="rgb(34,34,34)" stroke="rgb(34,34,34)" stroke-width="1" opacity="1" d="M 199.5 377 L 200 377.5 L 197.5 380 L 197 379.5 L 199.5 377 Z " /><path fill="rgb(34,34,34)" stroke="rgb(34,34,34)" stroke-width="1" opacity="1" d="M 216.5 384 L 220 384.5 L 216.5 385 L 216.5 384 Z " /><path fill="rgb(75,75,75)" stroke="rgb(75,75,75)" stroke-width="1" opacity="1" d="M 309.5 319 L 310 321.5 L 309 321.5 L 309.5 319 Z " /><path fill="rgb(75,75,75)" stroke="rgb(75,75,75)" stroke-width="1" opacity="1" d="M 212.5 384 L 216 384.5 L 212.5 385 L 212.5 384 Z " /><path fill="rgb(194,194,194)" stroke="rgb(194,194,194)" stroke-width="1" opacity="1" d="M 317.5 329 L 321 329.5 L 317.5 330 L 317.5 329 Z " /><path fill="rgb(194,194,194)" stroke="rgb(194,194,194)" stroke-width="1" opacity="1" d="M 225.5 383 L 230 383.5 L 225.5 384 L 225.5 383 Z " /><path fill="rgb(194,194,194)" stroke="rgb(194,194,194)" stroke-width="1" opacity="1" d="M 192.5 384 L 193 384.5 L 190.5 387 L 190 386.5 L 192.5 384 Z " /><path fill="rgb(194,194,194)" stroke="rgb(194,194,194)" stroke-width="1" opacity="1" d="M 205.5 384 L 208 384.5 L 205.5 385 L 205.5 384 Z " /><path fill="rgb(0,0,0)" stroke="rgb(0,0,0)" stroke-width="1" opacity="0.00784313725490196" d="M 0.5 0 L 301 0.5 L 289.5 1 L 288.5 2 L 280.5 2 L 279.5 3 L 272.5 3 L 271.5 4 L 266.5 4 L 265.5 5 L 255.5 6 L 250.5 8 L 246.5 8 L 245.5 9 L 238.5 10 L 234.5 12 L 231.5 12 L 227.5 14 L 224.5 14 L 212.5 18 L 209.5 20 L 204.5 21 L 194.5 26 L 192.5 26 L 185.5 30 L 183.5 30 L 160.5 42 L 135.5 58 Q 106.6 78.6 83 104.5 Q 64.9 124.4 50 147.5 L 49 150.5 L 42 160.5 L 38 169.5 L 36 171.5 L 23 199.5 L 23 201.5 L 21 204.5 L 20 209.5 L 18 212.5 L 14 224.5 L 14 227.5 L 10 238.5 L 10 241.5 L 8 246.5 L 8 250.5 L 6 255.5 L 6 260.5 L 4 266.5 L 4 271.5 L 3 272.5 L 3 279.5 L 2 280.5 L 2 288.5 L 1 289.5 L 0.5 301 L 0.5 0 Z " /><path fill="rgb(0,0,0)" stroke="rgb(0,0,0)" stroke-width="1" opacity="0.00784313725490196" d="M 339.5 0 L 640 0.5 L 639.5 301 L 639 289.5 L 638 288.5 L 638 280.5 L 637 279.5 L 637 272.5 L 636 271.5 L 636 266.5 L 635 265.5 L 634 255.5 L 632 250.5 L 632 246.5 L 631 245.5 L 630 238.5 L 628 234.5 L 628 231.5 L 626 227.5 L 626 224.5 L 623 215.5 L 621 212.5 L 619 204.5 L 614 194.5 L 614 192.5 L 610 185.5 L 610 183.5 L 595 155.5 L 582 135.5 Q 561.4 106.6 535.5 83 Q 515.6 64.9 492.5 50 L 489.5 49 L 479.5 42 L 470.5 38 L 468.5 36 L 440.5 23 L 438.5 23 L 435.5 21 L 430.5 20 L 427.5 18 L 415.5 14 L 412.5 14 L 408.5 12 L 405.5 12 L 393.5 8 L 389.5 8 L 388.5 7 L 379.5 6 L 373.5 4 L 368.5 4 L 367.5 3 L 351.5 2 L 350.5 1 L 339.5 1 L 339.5 0 Z " /><path fill="rgb(0,0,0)" stroke="rgb(0,0,0)" stroke-width="1" opacity="0.00784313725490196" d="M 305.5 10 L 334.5 10 L 335.5 11 L 348.5 11 L 349.5 12 L 358.5 12 L 359.5 13 L 365.5 13 L 366.5 14 Q 371.3 12.8 372.5 15 L 377.5 15 L 378.5 16 L 382.5 16 L 387.5 18 L 391.5 18 L 392.5 19 L 399.5 20 L 410.5 24 L 413.5 24 L 422.5 27 L 425.5 29 L 430.5 30 L 438.5 34 L 440.5 34 L 467.5 47 L 499.5 67 L 522.5 85 L 546 107.5 L 564 128.5 L 585 158.5 L 603 192.5 L 603 194.5 L 610 209.5 L 612 217.5 L 616 226.5 L 618 236.5 L 620 240.5 L 620 243.5 L 622 248.5 L 622 252.5 L 624 257.5 L 624 261.5 L 625 262.5 L 626 273.5 L 627 274.5 L 628 290.5 L 629 291.5 L 629 304.5 L 630 305.5 L 630 334.5 L 629 335.5 L 629 348.5 L 628 349.5 L 627 365.5 L 626 366.5 L 626 371.5 L 625 372.5 L 625 377.5 L 624 378.5 L 624 382.5 L 622 387.5 L 622 391.5 L 621 392.5 L 620 399.5 L 618 403.5 L 618 406.5 L 615 413.5 L 614 419.5 L 612 422.5 L 610 430.5 L 603 445.5 L 603 447.5 L 589 474.5 L 573 499.5 L 555 522.5 L 532.5 546 L 511.5 564 L 481.5 585 L 447.5 603 L 445.5 603 L 430.5 610 L 422.5 612 L 413.5 616 L 403.5 618 L 399.5 620 L 396.5 620 L 391.5 622 L 387.5 622 L 382.5 624 L 378.5 624 L 377.5 625 L 366.5 626 L 365.5 627 L 349.5 628 L 348.5 629 L 335.5 629 L 334.5 630 L 305.5 630 L 304.5 629 L 291.5 629 L 290.5 628 L 281.5 628 L 280.5 627 L 274.5 627 L 273.5 626 L 268.5 626 L 267.5 625 L 262.5 625 L 261.5 624 L 257.5 624 L 252.5 622 L 248.5 622 L 247.5 621 L 240.5 620 L 236.5 618 L 233.5 618 L 226.5 615 L 220.5 614 L 217.5 612 L 209.5 610 L 194.5 603 L 192.5 603 L 158.5 585 L 140.5 573 L 117.5 555 L 94 532.5 L 76 511.5 L 55 481.5 L 37 447.5 L 37 445.5 L 34 440.5 L 29 425.5 L 27 422.5 L 24 413.5 L 24 410.5 L 22 406.5 L 22 403.5 L 20 399.5 L 19 392.5 L 18 391.5 L 18 387.5 L 17 386.5 L 16 378.5 L 15 377.5 L 15 372.5 L 14 371.5 L 14 366.5 L 13 365.5 L 13 359.5 L 12 358.5 L 12 349.5 L 11 348.5 L 11 335.5 L 10 334.5 L 10 305.5 L 11 304.5 L 11 291.5 L 12 290.5 L 12 281.5 L 13 280.5 L 13 274.5 L 14 273.5 L 14 268.5 L 15 267.5 L 15 262.5 L 16 261.5 L 17 253.5 L 18 252.5 L 18 248.5 L 19 247.5 L 20 240.5 L 22 236.5 L 22 233.5 L 24 229.5 L 24 226.5 L 27 217.5 L 29 214.5 L 30 209.5 L 37 194.5 L 37 192.5 L 52 163.5 L 67 140.5 L 85 117.5 L 107.5 94 L 128.5 76 L 158.5 55 L 163.5 53 L 172.5 47 L 199.5 34 L 217.5 28 L 223.5 25 L 226.5 25 L 233.5 22 L 236.5 22 L 248.5 18 L 252.5 18 L 253.5 17 L 261.5 16 L 262.5 15 L 267.5 15 L 268.5 14 L 273.5 14 L 274.5 13 L 280.5 13 L 281.5 12 L 290.5 12 L 291.5 11 L 304.5 11 L 305.5 10 Z M 304 26 L 303 27 L 291 27 L 290 28 L 283 28 L 282 29 L 276 29 L 275 30 L 270 30 L 269 31 L 259 32 L 258 33 L 243 36 L 242 37 L 239 37 L 218 44 L 205 50 L 203 50 L 165 70 Q 143 84 125 100 L 100 125 L 80 150 L 64 175 L 50 203 L 50 205 L 44 218 L 37 239 L 34 254 L 33 255 L 33 258 L 32 259 L 31 269 L 30 270 L 30 275 L 29 276 L 29 282 L 28 283 L 28 290 L 27 291 L 27 303 L 26 304 L 26 337 L 27 338 L 27 350 L 28 351 L 29 365 L 30 366 L 31 377 L 32 378 L 32 382 L 35 391 L 35 394 L 36 395 L 36 398 L 37 399 L 37 402 L 44 423 L 50 436 L 50 438 L 70 476 Q 84 497 100 516 L 125 540 L 150 560 L 177 577 L 203 590 L 205 590 L 218 596 L 239 603 L 254 606 L 255 607 L 258 607 L 259 608 L 269 609 L 270 610 L 275 610 L 276 611 L 282 611 L 283 612 L 290 612 L 291 613 L 303 613 L 304 614 L 337 614 L 338 613 L 350 613 L 351 612 L 365 611 L 366 610 L 377 609 L 378 608 L 382 608 L 391 605 L 394 605 L 395 604 L 398 604 L 399 603 L 402 603 L 423 596 L 436 590 L 438 590 L 476 570 Q 497 556 516 540 L 540 516 L 560 491 L 577 464 L 590 438 L 590 436 L 596 423 L 603 402 L 606 387 L 607 386 L 607 383 L 608 382 L 609 372 L 610 371 L 610 366 L 611 365 L 611 359 L 612 358 L 612 351 L 613 350 L 613 338 L 614 337 L 614 304 L 613 303 L 613 291 L 612 290 L 611 276 L 610 275 L 609 264 L 608 263 L 608 259 L 607 258 L 604 243 L 603 242 L 603 239 L 596 218 L 590 205 L 590 203 L 570 165 Q 556 143 540 125 L 516 100 L 491 80 L 466 64 L 431 47 L 426 46 L 423 44 L 402 37 L 387 34 L 386 33 L 383 33 L 382 32 L 378 32 L 377 31 L 366 30 L 365 29 L 351 28 L 350 27 L 338 27 L 337 26 L 304 26 Z " /><path fill="rgb(0,0,0)" stroke="rgb(0,0,0)" stroke-width="1" opacity="0.00784313725490196" d="M 304.5 28 L 335.5 28 L 336.5 29 L 348.5 29 L 349.5 30 L 364.5 31 L 365.5 32 L 370.5 32 L 371.5 33 L 375.5 33 L 376.5 34 L 380.5 34 L 381.5 35 L 385.5 35 L 386.5 36 L 397.5 38 L 427.5 48 L 459.5 63 L 485.5 79 L 513.5 101 L 539 126.5 L 556 147.5 L 573 173.5 L 586 198.5 L 586 200.5 L 589 205.5 L 589 207.5 L 595 220.5 L 600 235.5 L 600 238.5 L 602 242.5 L 602 245.5 L 605 254.5 L 605 258.5 L 606 259.5 L 606 263.5 L 607 264.5 L 607 268.5 L 608 269.5 L 608 274.5 L 609 275.5 L 610 290.5 L 611 291.5 L 611 303.5 L 612 304.5 L 612 335.5 L 611 336.5 L 611 348.5 L 610 349.5 L 610 357.5 L 609 358.5 L 609 364.5 L 608 365.5 L 608 370.5 L 607 371.5 L 605 385.5 L 604 386.5 L 602 397.5 L 600 401.5 L 600 404.5 L 595 419.5 L 593 422.5 L 589 434.5 L 586 439.5 L 586 441.5 L 573 466.5 L 556 492.5 Q 537.1 518.1 513.5 539 L 492.5 556 L 466.5 573 L 441.5 586 L 439.5 586 L 434.5 589 L 432.5 589 L 419.5 595 L 404.5 600 L 401.5 600 L 397.5 602 L 394.5 602 L 385.5 605 L 381.5 605 L 380.5 606 L 376.5 606 L 375.5 607 L 371.5 607 L 370.5 608 L 365.5 608 L 364.5 609 L 349.5 610 L 348.5 611 L 336.5 611 L 335.5 612 L 304.5 612 L 303.5 611 L 291.5 611 L 290.5 610 L 282.5 610 L 281.5 609 L 275.5 609 L 274.5 608 L 269.5 608 L 268.5 607 L 254.5 605 L 253.5 604 L 242.5 602 L 238.5 600 L 235.5 600 L 220.5 595 L 217.5 593 L 205.5 589 L 200.5 586 L 198.5 586 L 173.5 573 L 147.5 556 Q 121.9 537.1 101 513.5 L 84 492.5 L 67 466.5 L 54 441.5 L 54 439.5 L 51 434.5 L 51 432.5 L 45 419.5 L 40 404.5 L 40 401.5 L 38 397.5 L 38 394.5 L 35 385.5 L 35 381.5 L 34 380.5 L 34 376.5 L 33 375.5 L 33 371.5 L 32 370.5 L 32 365.5 L 31 364.5 L 30 349.5 L 29 348.5 L 29 336.5 L 28 335.5 L 28 304.5 L 29 303.5 L 29 291.5 L 30 290.5 L 30 282.5 L 31 281.5 L 31 275.5 L 32 274.5 L 32 269.5 L 33 268.5 L 35 254.5 L 36 253.5 L 38 242.5 L 40 238.5 L 40 235.5 L 45 220.5 L 47 217.5 L 51 205.5 L 54 200.5 L 54 198.5 L 67 173.5 L 84 147.5 Q 102.9 121.9 126.5 101 L 147.5 84 L 168.5 70 L 184.5 61 L 212.5 48 L 217.5 47 L 220.5 45 L 235.5 40 L 238.5 40 L 242.5 38 L 245.5 38 L 254.5 35 L 258.5 35 L 259.5 34 L 263.5 34 L 269.5 32 L 274.5 32 L 275.5 31 L 281.5 31 L 282.5 30 L 290.5 30 L 291.5 29 L 303.5 29 L 304.5 28 Z M 300 33 L 299 34 L 289 34 L 288 35 L 281 35 L 280 36 L 269 37 L 268 38 L 264 38 L 263 39 L 255 40 L 254 41 L 250 41 L 246 43 L 243 43 L 239 45 L 236 45 L 221 50 L 208 56 L 206 56 L 180 69 L 165 78 L 144 93 L 123 111 L 102 133 L 82 159 L 69 180 L 57 204 L 57 206 L 50 221 L 45 236 L 45 239 L 43 243 L 43 246 L 41 250 L 41 254 L 39 259 L 38 268 L 37 269 L 37 274 L 36 275 L 36 280 L 35 281 L 35 288 L 34 289 L 34 299 L 33 300 L 33 341 L 34 342 L 34 352 L 35 353 L 35 360 L 36 361 L 37 372 L 38 373 L 38 377 L 39 378 L 40 386 L 41 387 L 41 391 L 43 395 L 43 398 L 45 402 L 45 405 L 50 420 L 57 435 L 57 437 L 73 468 L 93 497 L 111 518 L 133 538 L 159 558 L 180 571 L 206 584 L 218 588 L 221 590 L 236 595 L 239 595 L 243 597 L 246 597 L 250 599 L 254 599 L 259 601 L 268 602 L 269 603 L 274 603 L 275 604 L 280 604 L 281 605 L 288 605 L 289 606 L 299 606 L 300 607 L 341 607 L 342 606 L 352 606 L 353 605 L 360 605 L 361 604 L 367 604 L 368 603 L 372 603 L 373 602 L 377 602 L 378 601 L 382 601 L 383 600 L 391 599 L 395 597 L 402 596 L 420 590 L 433 584 L 435 584 L 468 567 L 497 547 L 517 530 L 538 508 L 558 482 L 571 461 L 583 437 L 583 435 L 590 420 L 595 405 L 595 402 L 597 398 L 597 395 L 599 391 L 599 387 L 601 382 L 602 373 L 603 372 L 603 367 L 604 366 L 604 361 L 605 360 L 605 353 L 606 352 L 606 342 L 607 341 L 607 300 L 606 299 L 606 289 L 605 288 L 605 281 L 604 280 L 603 269 L 602 268 L 602 264 L 601 263 L 600 255 L 599 254 L 599 250 L 597 246 L 596 239 L 590 221 L 583 206 L 583 204 L 567 173 L 547 144 L 529 123 L 502 97 L 476 78 L 461 69 L 435 56 L 423 52 L 420 50 L 402 44 L 395 43 L 391 41 L 388 41 L 387 40 L 373 38 L 372 37 L 367 37 L 366 36 L 361 36 L 360 35 L 353 35 L 352 34 L 342 34 L 341 33 L 300 33 Z " /><path fill="rgb(0,0,0)" stroke="rgb(0,0,0)" stroke-width="1" opacity="0.00784313725490196" d="M 301.5 37 L 338.5 37 L 339.5 38 L 350.5 38 L 351.5 39 L 365.5 40 L 366.5 41 L 371.5 41 L 372.5 42 L 376.5 42 L 381.5 44 L 385.5 44 L 386.5 45 L 393.5 46 L 397.5 48 L 400.5 48 L 418.5 54 L 426.5 58 L 428.5 58 L 457.5 72 L 484.5 89 L 510.5 110 L 530 129.5 Q 547.1 148.4 561 170.5 L 579 204.5 L 579 206.5 L 586 221.5 L 592 239.5 L 592 242.5 L 594 246.5 L 594 249.5 L 596 254.5 L 596 258.5 L 598 263.5 L 599 273.5 L 600 274.5 L 601 288.5 L 602 289.5 L 602 300.5 L 603 301.5 L 603 338.5 L 602 339.5 L 602 350.5 L 601 351.5 L 600 365.5 L 599 366.5 L 599 370.5 L 598 371.5 L 598 376.5 L 596 381.5 L 596 385.5 L 595 386.5 L 594 393.5 L 592 397.5 L 592 400.5 L 586 418.5 L 579 433.5 L 579 435.5 L 568 457.5 L 551 484.5 L 530 510.5 L 510.5 530 Q 491.6 547.1 469.5 561 L 433.5 580 L 431.5 580 L 418.5 586 L 400.5 592 L 397.5 592 L 393.5 594 L 390.5 594 L 385.5 596 L 381.5 596 L 376.5 598 L 372.5 598 L 371.5 599 L 366.5 599 L 365.5 600 L 351.5 601 L 350.5 602 L 340.5 602 L 339.5 603 L 300.5 603 L 299.5 602 L 289.5 602 L 288.5 601 L 274.5 600 L 273.5 599 L 269.5 599 L 268.5 598 L 263.5 598 L 258.5 596 L 254.5 596 L 253.5 595 L 246.5 594 L 242.5 592 L 239.5 592 L 221.5 586 L 206.5 579 L 204.5 579 L 182.5 568 L 155.5 551 L 129.5 530 L 110 510.5 Q 92.9 491.6 79 469.5 L 61 435.5 L 61 433.5 L 54 418.5 L 48 400.5 L 48 397.5 L 46 393.5 L 46 390.5 L 44 385.5 L 44 381.5 L 42 376.5 L 41 366.5 L 40 365.5 L 39 351.5 L 38 350.5 L 38 339.5 L 37 338.5 L 37 301.5 L 38 300.5 L 38 289.5 L 39 288.5 L 40 274.5 L 41 273.5 L 41 269.5 L 42 268.5 L 42 263.5 L 44 258.5 L 44 254.5 L 45 253.5 L 46 246.5 L 48 242.5 L 48 239.5 L 54 221.5 L 61 206.5 L 61 204.5 L 72 182.5 L 89 155.5 L 110 129.5 L 129.5 110 Q 148.4 92.9 170.5 79 L 180.5 74 L 182.5 72 L 211.5 58 L 213.5 58 L 221.5 54 L 239.5 48 L 242.5 48 L 254.5 44 L 258.5 44 L 259.5 43 L 268.5 42 L 274.5 40 L 288.5 39 L 289.5 38 L 300.5 38 L 301.5 37 Z M 311 43 L 310 44 L 296 44 L 295 45 L 286 45 L 285 46 L 279 46 L 278 47 L 273 47 L 267 49 L 263 49 L 262 50 L 258 50 L 249 53 L 246 53 L 239 56 L 236 56 L 227 60 L 222 61 L 219 63 L 217 63 L 214 65 L 212 65 L 191 75 L 189 77 L 182 80 L 172 87 L 169 88 L 147 104 L 132 117 Q 93 153 69 203 L 69 205 L 65 212 L 60 227 L 58 230 L 56 236 L 56 239 L 53 246 L 51 257 L 50 258 L 50 262 L 48 267 L 48 272 L 47 273 L 47 278 L 46 279 L 46 285 L 45 286 L 45 294 L 44 295 L 44 310 L 43 311 L 43 330 L 44 331 L 44 346 L 45 347 L 46 362 L 47 363 L 47 368 L 48 369 L 49 378 L 50 379 L 50 383 L 51 384 L 53 395 L 56 402 L 56 405 L 58 411 L 60 414 L 65 429 L 69 436 L 69 438 L 83 464 L 104 494 L 117 509 Q 136 529 159 545 L 182 560 L 203 571 L 205 571 L 212 575 L 227 580 L 230 582 L 236 584 L 239 584 L 246 587 L 257 589 L 258 590 L 272 592 L 273 593 L 278 593 L 279 594 L 285 594 L 286 595 L 295 595 L 296 596 L 310 596 L 311 597 L 330 597 L 331 596 L 346 596 L 347 595 L 362 594 L 363 593 L 368 593 L 369 592 L 378 591 L 379 590 L 383 590 L 384 589 L 395 587 L 402 584 L 405 584 L 411 582 L 414 580 L 429 575 L 436 571 L 438 571 L 464 557 L 494 536 L 509 523 L 531 500 L 545 482 L 560 459 L 571 438 L 571 436 L 575 429 L 580 414 L 582 411 L 584 405 L 584 402 L 587 395 L 589 384 L 590 383 L 592 369 L 593 368 L 593 363 L 594 362 L 594 356 L 595 355 L 595 346 L 596 345 L 596 330 L 597 329 L 596 296 L 595 295 L 595 286 L 594 285 L 593 273 L 592 272 L 592 268 L 591 267 L 591 263 L 590 262 L 590 258 L 587 249 L 587 246 L 579 222 L 571 205 L 571 203 L 557 177 L 536 147 L 523 132 L 500 109 L 475 90 L 450 75 L 429 65 L 427 65 L 424 63 L 422 63 L 419 61 L 414 60 L 405 56 L 402 56 L 395 53 L 384 51 L 383 50 L 379 50 L 374 48 L 363 47 L 362 46 L 356 46 L 355 45 L 347 45 L 346 44 L 331 44 L 330 43 L 311 43 Z " /><path fill="rgb(0,0,0)" stroke="rgb(0,0,0)" stroke-width="1" opacity="0.00784313725490196" d="M 312.5 47 L 344.5 48 L 345.5 49 L 353.5 49 L 354.5 50 L 360.5 50 L 361.5 51 L 372.5 52 L 373.5 53 L 377.5 53 L 378.5 54 L 393.5 57 L 397.5 59 L 400.5 59 L 412.5 63 L 425.5 69 L 427.5 69 L 455.5 83 L 477.5 97 L 502.5 117 L 523 137.5 L 534 150.5 L 551 174.5 L 567 203.5 L 567 205.5 L 571 212.5 L 571 214.5 L 577 227.5 L 581 239.5 L 581 242.5 L 583 246.5 L 585 257.5 L 587 262.5 L 587 266.5 L 588 267.5 L 589 278.5 L 590 279.5 L 590 285.5 L 591 286.5 L 591 295.5 L 592 296.5 L 592 312.5 L 593 313.5 L 593 326.5 L 592 327.5 L 592 343.5 L 591 344.5 L 591 353.5 L 590 354.5 L 590 360.5 L 589 361.5 L 589 366.5 L 588 367.5 L 587 377.5 L 586 378.5 L 583 393.5 L 581 397.5 L 581 400.5 L 578 409.5 L 576 412.5 L 571 427.5 L 567 434.5 L 567 436.5 L 557 455.5 L 543 477.5 L 523 502.5 L 502.5 523 L 489.5 534 L 465.5 551 L 436.5 567 L 434.5 567 L 427.5 571 L 425.5 571 L 412.5 577 L 400.5 581 L 397.5 581 L 393.5 583 L 390.5 583 L 389.5 584 L 386.5 584 L 377.5 587 L 373.5 587 L 372.5 588 L 361.5 589 L 360.5 590 L 345.5 591 L 344.5 592 L 312.5 593 L 311.5 592 L 296.5 592 L 295.5 591 L 286.5 591 L 285.5 590 L 279.5 590 L 278.5 589 L 273.5 589 L 272.5 588 L 262.5 587 L 261.5 586 L 246.5 583 L 242.5 581 L 239.5 581 L 230.5 578 L 227.5 576 L 212.5 571 L 205.5 567 L 203.5 567 L 184.5 557 L 162.5 543 L 137.5 523 L 117 502.5 L 106 489.5 L 89 465.5 L 73 436.5 L 73 434.5 L 69 427.5 L 69 425.5 L 63 412.5 L 59 400.5 L 59 397.5 L 57 393.5 L 57 390.5 L 56 389.5 L 56 386.5 L 53 377.5 L 53 373.5 L 52 372.5 L 51 361.5 L 50 360.5 L 49 345.5 L 48 344.5 L 47 312.5 L 48 311.5 L 48 295.5 L 49 294.5 L 49 286.5 L 50 285.5 L 50 279.5 L 51 278.5 L 51 273.5 L 52 272.5 L 53 262.5 L 54 261.5 L 57 246.5 L 59 242.5 L 59 239.5 L 63 227.5 L 65 224.5 L 69 212.5 L 73 205.5 L 73 203.5 L 83 184.5 L 97 162.5 L 117 137.5 L 137.5 117 L 150.5 106 L 174.5 89 L 191.5 80 L 193.5 78 L 212.5 69 L 214.5 69 L 217.5 67 L 219.5 67 L 222.5 65 L 227.5 64 L 230.5 62 L 239.5 59 L 242.5 59 L 246.5 57 L 257.5 55 L 262.5 53 L 272.5 52 L 273.5 51 L 278.5 51 L 279.5 50 L 285.5 50 L 286.5 49 L 295.5 49 L 296.5 48 L 311.5 48 L 312.5 47 Z M 299 61 L 298 62 L 289 62 L 288 63 L 282 63 L 281 64 L 270 65 L 265 67 L 261 67 L 260 68 L 253 69 L 249 71 L 246 71 L 231 76 L 218 82 L 216 82 L 194 93 L 179 103 L 176 104 L 150 124 L 119 156 L 104 176 L 103 179 L 93 194 L 82 216 L 82 218 L 76 231 L 71 246 L 71 249 L 67 261 L 66 269 L 65 270 L 64 281 L 63 282 L 63 288 L 62 289 L 62 298 L 61 299 L 61 342 L 62 343 L 62 352 L 63 353 L 63 359 L 64 360 L 65 371 L 67 376 L 67 380 L 69 385 L 69 388 L 71 392 L 71 395 L 76 410 L 82 423 L 82 425 L 93 447 L 103 462 L 104 465 L 124 491 L 156 521 L 169 531 L 194 547 L 216 558 L 218 558 L 231 564 L 246 569 L 249 569 L 261 573 L 269 574 L 270 575 L 281 576 L 282 577 L 288 577 L 289 578 L 298 578 L 299 579 L 342 579 L 343 578 L 352 578 L 353 577 L 359 577 Q 360 575 365 576 L 366 575 L 371 575 L 376 573 L 380 573 L 385 571 L 388 571 L 392 569 L 395 569 L 410 564 L 423 558 L 425 558 L 447 547 L 472 531 L 491 516 L 521 485 L 531 472 L 547 447 L 558 425 L 558 423 L 564 410 L 569 395 L 569 392 L 573 380 L 574 372 L 575 371 L 576 360 L 577 359 L 577 353 L 578 352 L 578 343 L 579 342 L 579 299 L 578 298 L 578 289 L 577 288 L 577 282 Q 575 280 576 276 L 575 275 L 575 270 L 573 265 L 573 261 L 569 249 L 569 246 L 564 231 L 558 218 L 558 216 L 547 194 L 531 169 L 516 150 Q 479 107 425 82 L 423 82 L 410 76 L 395 71 L 392 71 L 380 67 L 372 66 L 371 65 L 360 64 L 359 63 L 353 63 L 352 62 L 343 62 L 342 61 L 299 61 Z " /><path fill="rgb(0,0,0)" stroke="rgb(0,0,0)" stroke-width="1" opacity="0.00784313725490196" d="M 299.5 67 L 340.5 67 L 341.5 68 L 350.5 68 L 351.5 69 L 357.5 69 L 358.5 70 L 369.5 71 L 374.5 73 L 378.5 73 L 379.5 74 L 386.5 75 L 413.5 84 L 437.5 95 L 462.5 110 L 483.5 126 L 506 147.5 L 522 166.5 L 537 188.5 L 549 210.5 L 549 212.5 L 554 221.5 L 557 231.5 L 559 234.5 L 563 246.5 L 563 249.5 L 565 253.5 L 566 260.5 L 567 261.5 L 567 265.5 L 568 266.5 L 569 275.5 L 570 276.5 L 570 281.5 L 571 282.5 L 571 288.5 L 572 289.5 L 572 298.5 L 573 299.5 L 573 340.5 L 572 341.5 L 572 350.5 L 571 351.5 L 571 357.5 L 570 358.5 L 569 369.5 L 567 374.5 L 567 378.5 L 566 379.5 L 565 386.5 L 563 390.5 L 563 393.5 L 559 405.5 L 557 408.5 L 553 420.5 L 549 427.5 L 549 429.5 L 540 446.5 L 525 469.5 Q 510.4 489.4 492.5 506 L 473.5 522 L 451.5 537 L 429.5 549 L 427.5 549 L 420.5 553 L 418.5 553 L 405.5 559 L 393.5 563 L 390.5 563 L 386.5 565 L 379.5 566 L 378.5 567 L 374.5 567 L 373.5 568 L 364.5 569 L 363.5 570 L 358.5 570 L 357.5 571 L 351.5 571 L 350.5 572 L 341.5 572 L 340.5 573 L 299.5 573 L 298.5 572 L 289.5 572 L 288.5 571 L 282.5 571 L 281.5 570 L 270.5 569 L 265.5 567 L 261.5 567 L 260.5 566 L 253.5 565 L 249.5 563 L 246.5 563 L 234.5 559 L 231.5 557 L 221.5 554 L 212.5 549 L 210.5 549 L 193.5 540 L 170.5 525 Q 150.6 510.4 134 492.5 L 118 473.5 L 106 456.5 L 91 429.5 L 91 427.5 L 86 418.5 L 83 408.5 L 81 405.5 L 77 393.5 L 77 390.5 L 75 386.5 L 74 379.5 L 73 378.5 L 73 374.5 L 72 373.5 L 71 364.5 L 70 363.5 L 70 358.5 L 69 357.5 L 69 351.5 L 68 350.5 L 68 341.5 L 67 340.5 L 67 299.5 L 68 298.5 L 68 289.5 L 69 288.5 L 69 282.5 L 70 281.5 L 71 270.5 L 73 265.5 L 73 261.5 L 74 260.5 L 75 253.5 L 77 249.5 L 77 246.5 L 81 234.5 L 83 231.5 L 86 221.5 L 91 212.5 L 91 210.5 L 100 193.5 L 115 170.5 L 133 148.5 L 148.5 133 L 166.5 118 L 183.5 106 L 200.5 97 L 202.5 95 L 221.5 86 L 223.5 86 L 226.5 84 L 231.5 83 L 234.5 81 L 246.5 77 L 249.5 77 L 261.5 73 L 265.5 73 L 266.5 72 L 275.5 71 L 276.5 70 L 281.5 70 L 282.5 69 L 288.5 69 L 289.5 68 L 298.5 68 L 299.5 67 Z M 306 84 L 305 85 L 295 85 L 294 86 L 287 86 L 286 87 L 281 87 L 280 88 L 270 89 L 261 92 L 258 92 L 254 94 L 251 94 L 239 98 L 236 100 L 234 100 L 231 102 L 229 102 L 210 111 L 208 113 L 193 121 Q 177 131 164 143 Q 147 158 133 176 L 116 201 L 106 220 L 106 222 L 98 239 L 94 251 L 94 254 L 92 258 L 90 269 L 89 270 L 89 274 L 88 275 L 88 279 L 87 280 L 86 294 L 85 295 L 85 305 L 84 306 L 84 335 L 85 336 L 85 346 L 86 347 L 87 361 L 88 362 L 88 366 L 89 367 L 89 371 L 92 380 L 92 383 L 94 387 L 94 390 L 98 402 L 106 419 L 106 421 L 116 440 L 127 457 L 143 477 Q 158 493 176 507 L 193 519 L 220 534 L 222 534 L 239 542 L 251 546 L 254 546 L 258 548 L 269 550 L 270 551 L 274 551 L 275 552 L 286 553 L 287 554 L 294 554 L 295 555 L 305 555 L 306 556 L 335 556 L 336 555 L 346 555 L 347 554 L 361 553 L 362 552 L 366 552 L 367 551 L 371 551 L 380 548 L 383 548 L 387 546 L 390 546 L 402 542 L 431 529 L 433 527 L 448 519 L 465 507 L 477 497 Q 493 482 507 465 L 519 448 L 534 421 L 534 419 L 542 402 L 546 390 L 546 387 L 548 383 L 550 372 L 551 371 L 551 367 L 552 366 L 553 355 L 554 354 L 554 347 L 555 346 L 555 336 L 556 335 L 556 306 L 555 305 L 555 295 L 554 294 L 554 287 Q 552 285 553 281 L 552 280 L 552 275 L 551 274 L 551 270 L 548 261 L 548 258 L 546 254 L 546 251 L 542 239 L 534 222 L 534 220 L 525 203 L 516 189 L 517 187 Q 517 183 513 184 L 507 176 L 497 164 Q 481 145 461 130 L 440 116 L 412 102 L 410 102 L 402 98 L 390 94 L 387 94 L 383 92 L 372 90 L 371 89 L 362 88 L 361 87 L 347 86 L 346 85 L 336 85 L 335 84 L 306 84 Z " /><path fill="rgb(0,0,0)" stroke="rgb(0,0,0)" stroke-width="1" opacity="0.00784313725490196" d="M 307.5 90 L 319 90.5 L 307.5 115 L 297 91.5 L 306.5 91 L 307.5 90 Z " /><path fill="rgb(0,0,0)" stroke="rgb(0,0,0)" stroke-width="1" opacity="0.00784313725490196" d="M 325.5 90 L 330 90.5 L 329.5 156 L 325 155.5 L 311 122.5 L 325.5 90 Z " /><path fill="rgb(0,0,0)" stroke="rgb(0,0,0)" stroke-width="1" opacity="0.00784313725490196" d="M 337.5 91 L 344.5 91 L 346 92.5 L 345.5 158 L 341.5 158 L 337 156.5 L 337.5 91 Z " /><path fill="rgb(0,0,0)" stroke="rgb(0,0,0)" stroke-width="1" opacity="0.00784313725490196" d="M 287.5 92 L 291 92.5 L 296 103.5 L 296 105.5 L 300 112.5 L 300 114.5 L 304 121.5 L 304 124.5 L 301 129.5 L 301 131.5 L 297 138.5 L 297 140.5 L 288.5 159 L 278.5 161 L 274.5 163 L 271.5 163 L 262.5 167 L 252 150.5 L 250 145.5 L 248 143.5 L 246 138.5 L 244 136.5 L 229 109.5 L 232.5 107 L 234.5 107 L 237.5 105 L 242.5 104 L 251.5 100 L 254.5 100 L 258.5 98 L 261.5 98 L 270.5 95 L 280.5 94 L 281.5 93 L 286.5 93 L 287.5 92 Z " /><path fill="rgb(0,0,0)" stroke="rgb(0,0,0)" stroke-width="1" opacity="0.00784313725490196" d="M 352.5 92 L 353.5 93 L 359.5 93 L 360.5 94 L 369.5 95 L 370.5 96 L 373.5 96 L 374.5 97 L 377.5 97 L 378.5 98 L 381.5 98 L 385.5 100 L 388.5 100 L 394.5 102 L 397.5 104 L 412.5 109 L 433 119.5 L 400.5 177 L 377.5 166 L 368.5 163 L 365.5 163 L 361.5 161 L 353.5 160 L 352 158.5 L 352.5 92 Z " /><path fill="rgb(0,0,0)" stroke="rgb(0,0,0)" stroke-width="1" opacity="0.00784313725490196" d="M 221.5 112 L 224 112.5 L 226 117.5 L 228 119.5 L 230 124.5 L 235 131.5 L 237 136.5 L 239 138.5 L 241 143.5 L 256 168.5 L 250.5 172 L 220 149.5 L 219 134.5 L 218 133.5 L 218 125.5 L 217 124.5 L 217 116.5 L 216 115.5 L 221.5 112 Z " /><path fill="rgb(0,0,0)" stroke="rgb(0,0,0)" stroke-width="1" opacity="0.00784313725490196" d="M 209.5 118 L 211 118.5 L 212 134.5 L 213 135.5 L 213 143.5 L 211.5 144 L 192 129.5 L 197.5 125 L 209.5 118 Z " /><path fill="rgb(0,0,0)" stroke="rgb(0,0,0)" stroke-width="1" opacity="0.00784313725490196" d="M 438.5 123 L 458.5 136 L 487 161.5 L 500 176.5 L 507 186.5 L 493.5 191 L 490.5 193 L 485.5 193 L 484.5 194 L 479.5 194 L 478.5 195 L 473.5 195 L 472.5 196 L 467.5 196 L 464.5 197 L 443.5 212 Q 427.7 193.3 406 180.5 L 409 173.5 L 411 171.5 L 413 166.5 L 415 164.5 L 417 159.5 L 419 157.5 L 421 152.5 L 423 150.5 L 425 145.5 L 438.5 123 Z " /><path fill="rgb(0,0,0)" stroke="rgb(0,0,0)" stroke-width="1" opacity="0.00784313725490196" d="M 307.5 131 L 319 155.5 L 309.5 156 L 308.5 157 L 299.5 157 L 296.5 158 L 296 156.5 L 307.5 131 Z " /><path fill="rgb(0,0,0)" stroke="rgb(0,0,0)" stroke-width="1" opacity="0.00784313725490196" d="M 186.5 133 L 210.5 150 L 215 154.5 L 215 162.5 L 216 163.5 L 216 171.5 L 217 172.5 L 217 180.5 L 218 181.5 L 218 189.5 L 219 190.5 L 195 213.5 L 187.5 224 Q 183.5 225 182.5 223 L 174.5 223 L 173.5 222 L 164.5 222 L 163.5 221 L 155.5 221 Q 154.5 219 150.5 220 L 149 218.5 L 132 195.5 L 130 192.5 L 130 190.5 L 144 171.5 L 161.5 153 L 176.5 140 L 186.5 133 Z " /><path fill="rgb(0,0,0)" stroke="rgb(0,0,0)" stroke-width="1" opacity="0.00784313725490196" d="M 221.5 159 L 225.5 161 L 243 174.5 L 242.5 176 Q 232.1 180.1 224.5 187 L 224 180.5 L 223 179.5 L 223 171.5 L 222 170.5 L 222 162.5 Q 220.1 161.6 221.5 159 Z " /><path fill="rgb(0,0,0)" stroke="rgb(0,0,0)" stroke-width="1" opacity="0.00784313725490196" d="M 310.5 162 L 329.5 162 L 330.5 163 L 339.5 163 L 340.5 164 L 346.5 164 L 347.5 165 L 351.5 165 L 352.5 166 L 360.5 167 L 378.5 173 L 395.5 181 L 411.5 191 L 427.5 204 L 436 212.5 L 438 216.5 L 311.5 309 L 309.5 309 L 300.5 314 L 298.5 314 L 289.5 319 L 287.5 319 L 278.5 324 L 276.5 324 L 267.5 329 L 265.5 329 L 256.5 334 L 254.5 334 L 245.5 339 L 243.5 339 L 234.5 344 L 232.5 344 L 223.5 349 L 221.5 349 L 215.5 352 L 212 355.5 Q 202.2 371.2 188.5 383 L 179.5 391 L 175 383.5 L 175 381.5 L 171 373.5 L 169 367.5 L 169 364.5 L 167 360.5 L 167 357.5 L 166 356.5 L 166 352.5 L 164 346.5 L 164 340.5 L 163 339.5 L 163 330.5 L 162 329.5 L 162 310.5 L 163 309.5 L 163 300.5 L 164 299.5 L 164 293.5 L 165 292.5 L 166 283.5 L 175 256.5 L 182 242.5 L 191 228.5 L 204 212.5 L 212.5 204 L 228.5 191 L 237.5 185 L 254.5 176 L 256.5 176 L 261.5 173 L 279.5 167 L 287.5 166 L 288.5 165 L 292.5 165 L 293.5 164 L 299.5 164 L 300.5 163 L 309.5 163 L 310.5 162 Z " /><path fill="rgb(0,0,0)" stroke="rgb(0,0,0)" stroke-width="1" opacity="0.00784313725490196" d="M 511.5 194 L 513 194.5 L 514 197.5 L 503.5 204 L 503 203.5 L 506 200.5 L 511.5 194 Z " /><path fill="rgb(0,0,0)" stroke="rgb(0,0,0)" stroke-width="1" opacity="0.00784313725490196" d="M 125.5 197 L 142 218.5 L 137.5 219 L 136.5 218 L 118.5 217 L 115 215.5 L 125.5 197 Z " /><path fill="rgb(0,0,0)" stroke="rgb(0,0,0)" stroke-width="1" opacity="0.00784313725490196" d="M 515.5 203 Q 518.5 202.5 519 204.5 L 522 209.5 L 516.5 214 L 513.5 215 L 508.5 219 L 505.5 220 L 500.5 224 L 465.5 245 L 465 243.5 L 484.5 231 L 488 227.5 L 493 218.5 L 496.5 215 L 507.5 209 L 515.5 203 Z " /><path fill="rgb(0,0,0)" stroke="rgb(0,0,0)" stroke-width="1" opacity="0.00784313725490196" d="M 523.5 216 L 526 217.5 L 535 237.5 L 542 258.5 L 542 261.5 L 545 270.5 L 545 274.5 L 546 275.5 L 547 286.5 L 548 287.5 L 549 302.5 L 483.5 303 L 482 298.5 L 482 292.5 L 481 291.5 L 481 287.5 L 480 286.5 L 479 278.5 L 472 257.5 L 469 252.5 L 469 250.5 L 523.5 216 Z " /><path fill="rgb(0,0,0)" stroke="rgb(0,0,0)" stroke-width="1" opacity="0.00784313725490196" d="M 112.5 222 Q 116.5 221 117.5 223 L 125.5 223 L 126.5 224 L 135.5 224 L 136.5 225 L 144.5 225 L 148 226.5 L 169 256.5 L 163 271.5 L 163 274.5 L 160 282.5 L 160 286.5 L 159 287.5 L 158 295.5 L 156.5 297 L 152.5 298 L 129.5 309 L 127.5 309 L 124.5 311 L 121.5 311 L 114.5 307 L 112.5 307 L 98.5 300 L 96.5 300 L 91 296.5 L 92 294.5 L 93 280.5 L 94 279.5 L 95 270.5 L 96 269.5 L 98 258.5 L 100 254.5 L 100 251.5 L 103 242.5 L 105 239.5 L 105 237.5 L 107 234.5 L 107 232.5 L 109 229.5 L 109 227.5 L 112.5 222 Z " /><path fill="rgb(0,0,0)" stroke="rgb(0,0,0)" stroke-width="1" opacity="0.00784313725490196" d="M 156.5 227 L 162.5 227 L 163.5 228 L 172.5 228 L 173.5 229 L 181.5 229 L 183 230.5 Q 176.4 238.4 172.5 249 L 171 248.5 L 157 229.5 L 156.5 227 Z " /><path fill="rgb(0,0,0)" stroke="rgb(0,0,0)" stroke-width="1" opacity="0.00784313725490196" d="M 458.5 247 L 461 248.5 L 470 269.5 L 471 275.5 L 474 283.5 L 474 287.5 L 476 293.5 L 476 299.5 L 477 300.5 L 477 309.5 L 478 310.5 L 478 328.5 L 477 329.5 L 477 339.5 L 476 340.5 L 476 346.5 L 475 347.5 L 474 356.5 L 473 357.5 L 473 360.5 L 471 364.5 L 470 370.5 L 468 373.5 L 464 385.5 L 455 402.5 L 449 411.5 L 436 427.5 L 427.5 436 L 402.5 455 L 385.5 464 L 383.5 464 L 370.5 470 L 364.5 471 L 356.5 474 L 352.5 474 L 346.5 476 L 340.5 476 L 339.5 477 L 330.5 477 L 329.5 478 L 310.5 478 L 309.5 477 L 300.5 477 L 299.5 476 L 293.5 476 L 292.5 475 L 283.5 474 L 282.5 473 L 279.5 473 L 275.5 471 L 269.5 470 L 256.5 464 L 254.5 464 L 237.5 455 L 228.5 449 L 212.5 436 L 204 427.5 L 191 411.5 L 180 393.5 L 181.5 393 Q 182.2 394.8 185.5 394 L 189.5 392 L 193.5 392 L 194.5 391 L 202.5 390 L 203.5 389 L 211.5 389 L 212.5 388 L 232.5 388 L 322.5 334 L 327.5 332 L 338.5 324 L 341.5 323 L 380.5 297 L 383.5 296 L 433.5 263 L 447.5 255 L 458.5 247 Z " /><path fill="rgb(0,0,0)" stroke="rgb(0,0,0)" stroke-width="1" opacity="0.00784313725490196" d="M 156.5 303 L 157 308.5 L 156 309.5 L 155.5 326 L 131 314.5 L 149.5 306 L 151.5 306 L 156.5 303 Z " /><path fill="rgb(0,0,0)" stroke="rgb(0,0,0)" stroke-width="1" opacity="0.00784313725490196" d="M 91.5 304 L 115 314.5 L 111.5 317 L 109.5 317 L 90.5 326 L 90 306.5 L 91.5 304 Z " /><path fill="rgb(0,0,0)" stroke="rgb(0,0,0)" stroke-width="1" opacity="0.00784313725490196" d="M 484.5 309 L 550 309.5 L 549.5 318 L 484 317.5 L 484.5 309 Z " /><path fill="rgb(0,0,0)" stroke="rgb(0,0,0)" stroke-width="1" opacity="0.00784313725490196" d="M 122.5 318 Q 129.3 319.2 133.5 323 L 135.5 323 L 149.5 330 L 151.5 330 L 157 333.5 L 156.5 340 L 91 339.5 Q 92.2 334.8 90 333.5 L 99.5 328 L 108.5 325 L 122.5 318 Z " /><path fill="rgb(0,0,0)" stroke="rgb(0,0,0)" stroke-width="1" opacity="0.00784313725490196" d="M 484.5 324 L 548.5 324 L 550 325.5 L 549.5 333 L 483 332.5 L 484 330.5 L 484.5 324 Z " /><path fill="rgb(0,0,0)" stroke="rgb(0,0,0)" stroke-width="1" opacity="0.00784313725490196" d="M 0.5 339 L 1 350.5 L 2 351.5 L 2 359.5 L 3 360.5 L 3 367.5 L 4 368.5 L 4 373.5 L 5 374.5 L 6 384.5 L 8 389.5 L 8 393.5 L 9 394.5 L 10 401.5 L 12 405.5 L 12 408.5 L 14 412.5 L 14 415.5 L 18 427.5 L 20 430.5 L 21 435.5 L 26 445.5 L 26 447.5 L 30 454.5 L 30 456.5 L 42 479.5 L 58 504.5 Q 78.6 533.4 104.5 557 Q 124.4 575.1 147.5 590 L 150.5 591 L 160.5 598 L 169.5 602 L 171.5 604 L 199.5 617 L 201.5 617 L 204.5 619 L 209.5 620 L 212.5 622 L 224.5 626 L 227.5 626 L 231.5 628 L 234.5 628 L 238.5 630 L 241.5 630 L 246.5 632 L 250.5 632 L 255.5 634 L 260.5 634 L 261.5 635 L 271.5 636 L 272.5 637 L 279.5 637 L 280.5 638 L 288.5 638 L 289.5 639 L 301 639.5 L 0.5 640 L 0.5 339 Z " /><path fill="rgb(0,0,0)" stroke="rgb(0,0,0)" stroke-width="1" opacity="0.00784313725490196" d="M 639.5 339 L 640 639.5 L 339.5 640 L 339.5 639 L 350.5 639 L 351.5 638 L 367.5 637 L 368.5 636 L 373.5 636 L 374.5 635 L 378.5 635 L 379.5 634 L 384.5 634 L 389.5 632 L 393.5 632 L 394.5 631 L 401.5 630 L 405.5 628 L 408.5 628 L 412.5 626 L 415.5 626 L 427.5 622 L 430.5 620 L 435.5 619 L 445.5 614 L 447.5 614 L 454.5 610 L 456.5 610 L 484.5 595 L 504.5 582 Q 533.4 561.4 557 535.5 L 573 516.5 L 590 492.5 L 599 477.5 L 602 470.5 L 604 468.5 L 617 440.5 L 617 438.5 L 619 435.5 L 621 427.5 L 623 424.5 L 626 415.5 L 626 412.5 L 628 408.5 L 628 405.5 L 630 401.5 L 630 398.5 L 632 393.5 L 632 389.5 L 634 384.5 L 634 379.5 L 635 378.5 L 636 368.5 L 637 367.5 L 637 360.5 L 638 359.5 L 638 351.5 L 639 350.5 L 639.5 339 Z " /><path fill="rgb(0,0,0)" stroke="rgb(0,0,0)" stroke-width="1" opacity="0.00784313725490196" d="M 483.5 340 L 549 340.5 Q 550 344.5 548 345.5 L 548 352.5 L 547 353.5 Q 548.3 358.3 546 359.5 L 546 364.5 L 545 365.5 L 545 369.5 L 544 370.5 L 542 381.5 L 535 402.5 L 533 405.5 L 531 412.5 L 527.5 418 L 471 385.5 L 479 361.5 L 480 353.5 L 481 352.5 L 481 348.5 L 482 347.5 L 482 341.5 L 483.5 340 Z " /><path fill="rgb(0,0,0)" stroke="rgb(0,0,0)" stroke-width="1" opacity="0.00784313725490196" d="M 92.5 346 L 158 346.5 L 161 361.5 L 164 369.5 L 106.5 404 L 103 397.5 L 100 388.5 L 100 385.5 L 98 381.5 L 96 370.5 L 95 369.5 L 95 365.5 L 93 359.5 L 93 353.5 L 92 352.5 L 92.5 346 Z " /><path fill="rgb(0,0,0)" stroke="rgb(0,0,0)" stroke-width="1" opacity="0.00784313725490196" d="M 164.5 376 L 166 376.5 L 169 383.5 L 166.5 386 L 112.5 418 L 109 412.5 L 109 409.5 L 164.5 376 Z " /><path fill="rgb(0,0,0)" stroke="rgb(0,0,0)" stroke-width="1" opacity="0.00784313725490196" d="M 170.5 390 L 172 390.5 L 175 395.5 L 175 397.5 L 172.5 400 L 122.5 430 L 118.5 431 L 115 423.5 L 170.5 390 Z " /><path fill="rgb(0,0,0)" stroke="rgb(0,0,0)" stroke-width="1" opacity="0.00784313725490196" d="M 468.5 391 L 470.5 393 L 493.5 405 L 495.5 407 L 509.5 414 L 525 423.5 L 523.5 427 L 469.5 409 L 466.5 407 L 461.5 406 L 460 404.5 L 462 402.5 L 466 393.5 L 468.5 391 Z " /><path fill="rgb(0,0,0)" stroke="rgb(0,0,0)" stroke-width="1" opacity="0.00784313725490196" d="M 178.5 403 L 187 416.5 L 179.5 420 L 174.5 421 L 171.5 423 L 166.5 424 L 163.5 426 L 161.5 426 L 158.5 428 L 153.5 429 L 145.5 433 L 124.5 440 Q 119.5 437.5 124.5 435 L 178.5 403 Z " /><path fill="rgb(0,0,0)" stroke="rgb(0,0,0)" stroke-width="1" opacity="0.00784313725490196" d="M 455.5 412 L 469.5 424 L 504 457.5 L 495 469.5 L 478.5 487 L 463.5 500 L 451.5 509 L 449.5 509 L 410 465.5 L 406 459.5 Q 428.6 446.1 445 426.5 L 455.5 412 Z " /><path fill="rgb(0,0,0)" stroke="rgb(0,0,0)" stroke-width="1" opacity="0.00784313725490196" d="M 469.5 415 L 520 432.5 Q 515.1 444.1 507.5 453 L 469 415.5 L 469.5 415 Z " /><path fill="rgb(0,0,0)" stroke="rgb(0,0,0)" stroke-width="1" opacity="0.00784313725490196" d="M 191.5 423 L 195 425.5 L 213.5 445 L 215 445.5 L 197 475.5 L 193 480.5 L 192 483.5 L 188 488.5 L 187 491.5 L 183 496.5 L 182 499.5 L 179.5 502 L 170.5 495 L 153 478.5 L 146 469.5 L 191.5 423 Z " /><path fill="rgb(0,0,0)" stroke="rgb(0,0,0)" stroke-width="1" opacity="0.00784313725490196" d="M 178.5 426 L 179 427.5 L 141.5 465 L 140 463.5 L 128 446.5 L 131.5 444 L 149.5 438 L 152.5 436 L 162.5 433 L 178.5 426 Z " /><path fill="rgb(0,0,0)" stroke="rgb(0,0,0)" stroke-width="1" opacity="0.00784313725490196" d="M 219.5 450 Q 224.3 451.7 227 455.5 L 192.5 511 Q 187.7 509.3 185 505.5 L 219.5 450 Z " /><path fill="rgb(0,0,0)" stroke="rgb(0,0,0)" stroke-width="1" opacity="0.00784313725490196" d="M 231.5 459 L 235.5 460 L 246 466.5 L 201.5 516 Q 198.5 516.5 198 514.5 L 198 512.5 L 202 507.5 L 203 504.5 L 207 499.5 L 208 496.5 L 212 491.5 L 231.5 459 Z " /><path fill="rgb(0,0,0)" stroke="rgb(0,0,0)" stroke-width="1" opacity="0.00784313725490196" d="M 397.5 464 L 400 465.5 L 401 471.5 L 404 478.5 L 404 481.5 L 414 511.5 L 414 514.5 L 417 521.5 L 418 527.5 L 412.5 531 L 410.5 531 L 407.5 533 L 405.5 533 L 402.5 535 L 397.5 536 L 388.5 540 L 385.5 540 L 381.5 542 L 378.5 542 L 369.5 545 L 365.5 545 L 359.5 547 L 353.5 547 L 352.5 548 L 345.5 548 L 343.5 549 L 342 547.5 L 340 536.5 L 338 532.5 L 338 529.5 L 337 528.5 L 337 525.5 L 336 524.5 L 336 521.5 L 332 509.5 L 332 506.5 L 331 505.5 L 331 502.5 L 330 501.5 L 330 498.5 L 329 497.5 L 329 494.5 L 327 490.5 L 326 484.5 L 330.5 484 L 331.5 483 L 340.5 483 L 341.5 482 L 347.5 482 L 348.5 481 L 352.5 481 L 353.5 480 L 357.5 480 L 365.5 477 L 368.5 477 L 377.5 474 L 380.5 472 L 382.5 472 L 391.5 467 L 393.5 467 L 397.5 464 Z " /><path fill="rgb(0,0,0)" stroke="rgb(0,0,0)" stroke-width="1" opacity="0.00784313725490196" d="M 252.5 470 L 254.5 470 L 257.5 472 L 262.5 473 L 271.5 477 L 274.5 477 L 278.5 479 L 296 482.5 L 295.5 549 L 294.5 548 L 287.5 548 L 286.5 547 L 275.5 546 L 274.5 545 L 270.5 545 L 269.5 544 L 258.5 542 L 254.5 540 L 251.5 540 L 245.5 538 L 233 532.5 L 234 531.5 L 234 528.5 L 238 518.5 L 238 515.5 L 243 502.5 L 243 499.5 L 247 489.5 L 247 486.5 L 252.5 470 Z " /><path fill="rgb(0,0,0)" stroke="rgb(0,0,0)" stroke-width="1" opacity="0.00784313725490196" d="M 408.5 473 L 410 473.5 L 440 507.5 L 444 513.5 L 424.5 525 L 421 516.5 L 421 513.5 L 417 503.5 L 417 500.5 L 414 493.5 L 414 490.5 L 411 483.5 L 411 480.5 L 408 473.5 L 408.5 473 Z " /><path fill="rgb(0,0,0)" stroke="rgb(0,0,0)" stroke-width="1" opacity="0.00784313725490196" d="M 242.5 480 L 243 481.5 L 240 488.5 L 240 491.5 L 236 501.5 L 236 504.5 L 227.5 530 L 225.5 530 L 207 520.5 L 208 517.5 L 242.5 480 Z " /><path fill="rgb(0,0,0)" stroke="rgb(0,0,0)" stroke-width="1" opacity="0.00784313725490196" d="M 302.5 483 L 308.5 483 L 309.5 484 L 318 484.5 L 317 494.5 L 316 495.5 L 315 505.5 L 314 506.5 L 314 511.5 L 313 512.5 L 312 522.5 L 311 523.5 L 311 528.5 L 310 529.5 L 309 539.5 L 308 540.5 L 308 545.5 L 306.5 549 L 302 548.5 L 302.5 483 Z " /><path fill="rgb(0,0,0)" stroke="rgb(0,0,0)" stroke-width="1" opacity="0.00784313725490196" d="M 322.5 497 L 324 499.5 L 327 514.5 L 329 518.5 L 332 533.5 L 334 537.5 L 336 548.5 L 332.5 550 L 313.5 550 L 313 546.5 L 315 540.5 L 315 535.5 L 317 529.5 L 318 518.5 L 319 517.5 L 320 507.5 L 321 506.5 L 321 501.5 L 322.5 497 Z " /></svg>