<svg viewBox="0 0 320 640" version="1.1" xmlns="http://www.w3.org/2000/svg" desc="Created with imagetracer.js version 1.2.6" ><path fill="rgb(0,0,0)" stroke="rgb(0,0,0)" stroke-width="1" opacity="0" d="M 0.5 0 L 320 0.5 L 319.5 640 L 179 639.5 L 179 544.5 L 172 533.5 L 167 522.5 L 165 520.5 L 159.5 508 L 144 539.5 L 140 545.5 L 139.5 640 L 0 639.5 L 0.5 0 Z M 160 1 L 142 54 L 142 57 L 136 73 L 136 76 L 131 89 L 131 92 L 122 117 L 124 122 L 159 174 L 160 176 L 162 174 L 172 157 L 197 120 L 197 116 L 191 100 L 191 97 L 178 60 L 178 57 L 160 1 Z M 172 31 L 171 34 L 172 34 L 172 31 Z M 197 108 L 196 111 L 197 111 L 197 108 Z M 156 205 L 156 206 L 158 206 L 156 205 Z M 161 205 L 161 206 L 164 206 L 161 205 Z M 168 206 L 168 207 L 172 207 L 168 206 Z M 153 207 L 152 208 L 146 208 L 145 209 L 142 209 L 141 210 L 138 210 L 132 212 L 122 217 L 110 226 L 99 238 L 92 249 L 92 251 L 87 262 L 86 269 L 85 270 L 85 276 L 84 277 L 85 295 L 86 296 L 86 300 L 88 305 L 88 308 L 94 321 L 102 332 Q 114 345 132 353 L 138 355 L 141 355 L 145 357 Q 149 356 151 358 L 159 358 L 160 359 L 173 358 L 174 357 L 178 357 L 183 355 L 186 355 L 200 348 L 212 339 Q 222 329 229 316 L 234 301 L 235 290 L 236 288 Q 234 287 236 286 Q 237 281 235 281 L 235 272 L 234 271 L 234 267 L 232 262 L 232 259 L 226 246 L 218 235 Q 211 225 201 219 L 184 211 L 177 210 L 176 209 L 172 209 L 171 208 L 165 208 L 164 207 L 156 207 L 155 208 L 153 207 Z M 175 207 L 175 208 L 177 208 L 175 207 Z M 179 208 L 179 209 L 181 209 L 179 208 Z M 235 261 L 234 264 L 235 264 L 235 261 Z M 236 265 L 235 269 L 236 269 L 236 265 Z M 237 271 L 236 276 L 237 276 L 237 271 Z M 238 280 L 237 285 L 238 285 L 238 280 Z M 83 283 L 82 287 L 83 287 L 83 283 Z M 84 290 L 83 295 L 84 295 L 84 290 Z M 85 297 L 84 301 L 85 301 L 85 297 Z M 86 302 L 85 305 L 86 305 L 86 302 Z M 141 357 L 141 358 L 143 358 L 141 357 Z M 145 358 L 145 359 L 147 359 L 145 358 Z M 150 359 L 150 360 L 154 360 L 150 359 Z M 122 390 L 119 391 L 118 392 L 122 396 L 122 475 L 118 480 L 123 480 L 124 481 L 141 481 L 142 480 L 146 480 L 145 479 L 141 475 L 142 431 L 152 446 L 153 449 L 165 466 L 172 478 L 176 481 L 177 480 L 188 480 L 189 481 L 197 480 L 197 480 L 193 476 L 193 397 L 197 393 L 197 390 L 191 390 L 190 391 L 170 391 L 169 392 L 174 397 L 174 440 L 167 432 L 166 429 L 156 415 L 155 412 L 147 401 L 142 392 L 123 391 L 122 390 Z M 139 545 L 138 639 L 139 639 L 139 545 Z " /><path fill="rgb(0,0,0)" stroke="rgb(0,0,0)" stroke-width="1" opacity="0" d="M 159.5 622 L 178 639.5 L 144.5 640 Q 143.5 638 142.5 640 L 141 639.5 L 159.5 622 Z " /><path fill="rgb(0,0,0)" stroke="rgb(0,0,0)" stroke-width="1" opacity="0.996078431372549" d="M 159.5 2 L 160 175.5 L 159 175.5 L 159 173.5 L 124 121.5 L 122 116.5 L 132 88.5 L 132 85.5 L 150 31.5 L 150 28.5 L 155 15.5 L 155 12.5 L 158 3.5 L 159.5 2 Z " /><path fill="rgb(0,0,0)" stroke="rgb(0,0,0)" stroke-width="1" opacity="0.996078431372549" d="M 159.5 207 L 160 244.5 L 161.5 246 L 166.5 246 L 167.5 247 L 174.5 248 L 180.5 251 L 189 258.5 L 195 268.5 L 196 274.5 L 197 275.5 L 197 279.5 L 198.5 283 L 235 283.5 L 234 296.5 L 233 297.5 L 232 304.5 L 228 313.5 L 228 315.5 Q 221.8 328.8 211.5 338 Q 202.4 346.4 190.5 352 L 178.5 356 L 167.5 357 L 166.5 358 L 160.5 358 L 159.5 359 L 160 357.5 L 160 321.5 L 158.5 320 L 152.5 320 L 143.5 317 L 131 307.5 L 125 297.5 L 125 294.5 L 123 289.5 L 123 283.5 L 160 282.5 L 159.5 245 L 147.5 247 L 140.5 250 L 129 260.5 L 126 265.5 L 123 274.5 L 123 279.5 L 121.5 283 L 85 282.5 L 86 269.5 L 93 248.5 L 100 237.5 L 109.5 227 L 121.5 218 L 131.5 213 L 140.5 210 L 143.5 210 L 144.5 209 L 158.5 208 L 159.5 207 Z M 162 282 L 160 284 L 161 321 L 169 320 L 175 318 L 182 314 L 193 302 L 197 292 L 198 284 L 164 283 L 162 282 Z " /><path fill="rgb(0,0,0)" stroke="rgb(0,0,0)" stroke-width="1" opacity="0.996078431372549" d="M 191.5 390 Q 192.3 391.8 195.5 391 L 197 390.5 L 197 392.5 L 193 396.5 L 193 475.5 L 197 479.5 L 196.5 480 L 189.5 481 L 188.5 480 L 174.5 480 L 172 477.5 L 167 468.5 L 155 451.5 L 154 448.5 L 141.5 431 L 141 474.5 L 145 479.5 L 140.5 481 L 136.5 481 L 135.5 480 L 128.5 480 Q 127.5 482 123.5 481 L 122.5 480 L 118 479.5 L 122 474.5 L 122 395.5 L 118 391.5 L 118.5 391 L 142 391.5 L 154 411.5 L 164 425.5 L 165 428.5 L 173.5 440 L 174 396.5 L 170 391.5 L 190.5 391 L 191.5 390 Z " /><path fill="rgb(0,0,0)" stroke="rgb(0,0,0)" stroke-width="1" opacity="0.996078431372549" d="M 160.5 511 L 173 535.5 L 179 544.5 L 179 639.5 L 178.5 640 L 160 621.5 L 160.5 511 Z " /><path fill="rgb(144,144,144)" stroke="rgb(144,144,144)" stroke-width="1" opacity="0.9215686274509803" d="M 159.5 338 L 160 356.5 L 159 356.5 L 159.5 338 Z " /><path fill="rgb(253,253,253)" stroke="rgb(253,253,253)" stroke-width="1" opacity="0.996078431372549" d="M 160.5 7 L 181 68.5 L 181 71.5 L 194 108.5 L 194 111.5 L 196 115.5 L 196 119.5 L 160.5 173 L 160.5 7 Z " /><path fill="rgb(253,253,253)" stroke="rgb(253,253,253)" stroke-width="1" opacity="0.996078431372549" d="M 160.5 208 L 163.5 209 L 170.5 209 Q 171.5 211 175.5 210 L 176.5 211 L 179.5 211 L 188.5 214 L 203.5 222 L 217 234.5 L 225 245.5 L 231 258.5 L 231 261.5 L 233 266.5 L 233 270.5 L 234 271.5 L 234 280.5 L 235 281.5 L 198.5 282 L 196 269.5 L 193 263.5 L 181.5 251 L 173.5 247 L 160 244.5 L 160.5 208 Z " /><path fill="rgb(253,253,253)" stroke="rgb(253,253,253)" stroke-width="1" opacity="0.996078431372549" d="M 155.5 246 L 159 246.5 L 158.5 282 L 123 281.5 L 125 269.5 L 129 261.5 L 138.5 252 L 146.5 248 L 154.5 247 L 155.5 246 Z " /><path fill="rgb(253,253,253)" stroke="rgb(253,253,253)" stroke-width="1" opacity="0.996078431372549" d="M 85.5 283 L 122 283.5 L 123 292.5 L 128 304.5 L 137.5 314 L 144.5 318 L 159 321.5 L 158.5 357 L 150.5 357 L 149.5 356 L 145.5 356 L 144.5 355 L 141.5 355 L 140.5 354 L 137.5 354 L 131.5 352 Q 115 345 104 332.5 L 95 320.5 L 90 310.5 L 88 300.5 L 87 299.5 L 87 295.5 L 86 294.5 L 86 285.5 Q 84.3 284.8 85.5 283 Z " /><path fill="rgb(253,253,253)" stroke="rgb(253,253,253)" stroke-width="1" opacity="0.996078431372549" d="M 161.5 283 L 197 283.5 L 197 288.5 L 196 289.5 L 196 292.5 L 194 298.5 L 185.5 310 L 180.5 314 L 172.5 318 L 166.5 319 L 165.5 320 L 160.5 320 L 161 318.5 L 161.5 283 Z " /><path fill="rgb(253,253,253)" stroke="rgb(253,253,253)" stroke-width="1" opacity="0.996078431372549" d="M 158.5 511 L 160 511.5 L 159 512.5 L 159 621.5 L 147.5 633 L 141.5 638 L 141 545.5 L 148 531.5 L 150 529.5 L 158.5 511 Z " /><path fill="rgb(152,152,152)" stroke="rgb(152,152,152)" stroke-width="1" opacity="0.027450980392156862" d="M 101.5 332 L 104 334.5 L 103.5 335 L 101 332.5 L 101.5 332 Z " /><path fill="rgb(152,152,152)" stroke="rgb(152,152,152)" stroke-width="1" opacity="0.027450980392156862" d="M 138.5 546 L 139 548.5 L 138 548.5 L 138.5 546 Z " /><path fill="rgb(152,152,152)" stroke="rgb(152,152,152)" stroke-width="1" opacity="0.027450980392156862" d="M 147.5 635 L 148 635.5 L 145.5 638 L 145 637.5 L 147.5 635 Z " /><path fill="rgb(186,186,186)" stroke="rgb(186,186,186)" stroke-width="1" opacity="0.9882352941176471" d="M 163.5 208 L 166 208.5 L 163.5 209 L 163.5 208 Z " /><path fill="rgb(186,186,186)" stroke="rgb(186,186,186)" stroke-width="1" opacity="0.9882352941176471" d="M 159.5 246 L 160 278.5 L 159 278.5 L 159.5 246 Z " /><path fill="rgb(186,186,186)" stroke="rgb(186,186,186)" stroke-width="1" opacity="0.9882352941176471" d="M 134.5 255 L 135 255.5 L 132.5 258 L 132 257.5 L 134.5 255 Z " /><path fill="rgb(186,186,186)" stroke="rgb(186,186,186)" stroke-width="1" opacity="0.9882352941176471" d="M 234.5 278 L 235 280.5 L 234 280.5 L 234.5 278 Z " /><path fill="rgb(186,186,186)" stroke="rgb(186,186,186)" stroke-width="1" opacity="0.9882352941176471" d="M 123.5 282 L 155 282.5 L 123.5 283 L 123.5 282 Z " /><path fill="rgb(186,186,186)" stroke="rgb(186,186,186)" stroke-width="1" opacity="0.9882352941176471" d="M 198.5 282 L 234 282.5 L 198.5 283 L 198.5 282 Z " /><path fill="rgb(186,186,186)" stroke="rgb(186,186,186)" stroke-width="1" opacity="0.9882352941176471" d="M 85.5 285 L 86 288.5 L 85 288.5 L 85.5 285 Z " /><path fill="rgb(186,186,186)" stroke="rgb(186,186,186)" stroke-width="1" opacity="0.9882352941176471" d="M 160.5 286 L 161 318.5 L 160 318.5 L 160.5 286 Z " /><path fill="rgb(186,186,186)" stroke="rgb(186,186,186)" stroke-width="1" opacity="0.9882352941176471" d="M 156.5 357 L 159 357.5 L 156.5 358 L 156.5 357 Z " /><path fill="rgb(186,186,186)" stroke="rgb(186,186,186)" stroke-width="1" opacity="0.9882352941176471" d="M 159.5 512 L 160 616.5 L 159 616.5 L 159.5 512 Z " /><path fill="rgb(186,186,186)" stroke="rgb(186,186,186)" stroke-width="1" opacity="0.9882352941176471" d="M 146.5 633 L 147 633.5 L 141.5 639 L 141 638.5 L 146.5 633 Z " /><path fill="rgb(245,245,245)" stroke="rgb(245,245,245)" stroke-width="1" opacity="0.011764705882352941" d="M 171.5 160 L 171 161.5 L 169.5 164 L 170 162.5 L 171.5 160 Z " /><path fill="rgb(245,245,245)" stroke="rgb(245,245,245)" stroke-width="1" opacity="0.011764705882352941" d="M 209.5 224 L 212 226.5 L 211.5 227 L 209 224.5 L 209.5 224 Z " /><path fill="rgb(245,245,245)" stroke="rgb(245,245,245)" stroke-width="1" opacity="0.011764705882352941" d="M 109.5 226 L 110 226.5 L 107.5 229 L 107 228.5 L 109.5 226 Z " /><path fill="rgb(245,245,245)" stroke="rgb(245,245,245)" stroke-width="1" opacity="0.011764705882352941" d="M 214.5 229 L 217 231.5 L 216.5 232 L 214 229.5 L 214.5 229 Z " /><path fill="rgb(245,245,245)" stroke="rgb(245,245,245)" stroke-width="1" opacity="0.011764705882352941" d="M 228.5 248 L 230 250.5 L 229 250.5 L 228.5 248 Z " /><path fill="rgb(245,245,245)" stroke="rgb(245,245,245)" stroke-width="1" opacity="0.011764705882352941" d="M 104.5 335 L 109 339.5 L 108.5 340 L 104 335.5 L 104.5 335 Z " /><path fill="rgb(245,245,245)" stroke="rgb(245,245,245)" stroke-width="1" opacity="0.011764705882352941" d="M 156.5 510 L 157 511.5 L 152.5 519 L 153 517.5 L 156.5 510 Z " /><path fill="rgb(245,245,245)" stroke="rgb(245,245,245)" stroke-width="1" opacity="0.011764705882352941" d="M 141.5 540 L 141 541.5 L 139.5 544 L 140 542.5 L 141.5 540 Z " /><path fill="rgb(245,245,245)" stroke="rgb(245,245,245)" stroke-width="1" opacity="0.011764705882352941" d="M 156.5 626 L 157 626.5 L 148.5 635 L 148 634.5 L 156.5 626 Z " /><path fill="rgb(84,84,84)" stroke="rgb(84,84,84)" stroke-width="1" opacity="0.03529411764705882" d="M 160.5 205 L 164 205.5 L 160.5 206 L 160.5 205 Z " /><path fill="rgb(84,84,84)" stroke="rgb(84,84,84)" stroke-width="1" opacity="0.03529411764705882" d="M 169.5 206 L 172 206.5 L 169.5 207 L 169.5 206 Z " /><path fill="rgb(84,84,84)" stroke="rgb(84,84,84)" stroke-width="1" opacity="0.03529411764705882" d="M 236.5 271 L 237 273.5 L 236 273.5 L 236.5 271 Z " /><path fill="rgb(84,84,84)" stroke="rgb(84,84,84)" stroke-width="1" opacity="0.03529411764705882" d="M 84.5 278 L 85 280.5 L 84 280.5 L 84.5 278 Z " /><path fill="rgb(84,84,84)" stroke="rgb(84,84,84)" stroke-width="1" opacity="0.03529411764705882" d="M 237.5 281 L 238 284.5 L 237 284.5 L 237.5 281 Z " /><path fill="rgb(84,84,84)" stroke="rgb(84,84,84)" stroke-width="1" opacity="0.03529411764705882" d="M 82.5 283 L 83 285.5 L 82 285.5 L 82.5 283 Z " /><path fill="rgb(84,84,84)" stroke="rgb(84,84,84)" stroke-width="1" opacity="0.03529411764705882" d="M 215.5 334 L 217 335.5 L 214.5 338 L 213 336.5 L 215.5 334 Z " /><path fill="rgb(84,84,84)" stroke="rgb(84,84,84)" stroke-width="1" opacity="0.03529411764705882" d="M 138.5 549 L 139 638.5 L 138 638.5 L 138.5 549 Z " /><path fill="rgb(78,78,78)" stroke="rgb(78,78,78)" stroke-width="1" opacity="0.792156862745098" d="M 213.5 230 L 216 232.5 L 215.5 233 L 213 230.5 L 213.5 230 Z " /><path fill="rgb(78,78,78)" stroke="rgb(78,78,78)" stroke-width="1" opacity="0.792156862745098" d="M 157.5 245 L 160 245.5 L 157.5 246 L 157.5 245 Z " /><path fill="rgb(78,78,78)" stroke="rgb(78,78,78)" stroke-width="1" opacity="0.792156862745098" d="M 122.5 280 L 123 283.5 L 122 283.5 L 122.5 280 Z " /><path fill="rgb(78,78,78)" stroke="rgb(78,78,78)" stroke-width="1" opacity="0.792156862745098" d="M 156.5 282 L 160 282.5 L 156.5 283 L 156.5 282 Z " /><path fill="rgb(78,78,78)" stroke="rgb(78,78,78)" stroke-width="1" opacity="0.792156862745098" d="M 197.5 283 L 198 286.5 L 197 286.5 L 197.5 283 Z " /><path fill="rgb(78,78,78)" stroke="rgb(78,78,78)" stroke-width="1" opacity="0.792156862745098" d="M 160.5 320 L 164 320.5 L 160.5 321 L 160.5 320 Z " /><path fill="rgb(78,78,78)" stroke="rgb(78,78,78)" stroke-width="1" opacity="0.792156862745098" d="M 105.5 334 L 109 337.5 L 108.5 338 L 105 334.5 L 105.5 334 Z " /><path fill="rgb(78,78,78)" stroke="rgb(78,78,78)" stroke-width="1" opacity="0.792156862745098" d="M 156.5 624 L 157 624.5 L 152.5 629 L 152 628.5 L 156.5 624 Z " /><path fill="rgb(35,35,35)" stroke="rgb(35,35,35)" stroke-width="1" opacity="0.44313725490196076" d="M 160.5 207 L 164 207.5 L 160.5 208 L 160.5 207 Z " /><path fill="rgb(35,35,35)" stroke="rgb(35,35,35)" stroke-width="1" opacity="0.44313725490196076" d="M 148.5 208 L 151 208.5 L 148.5 209 L 148.5 208 Z " /><path fill="rgb(35,35,35)" stroke="rgb(35,35,35)" stroke-width="1" opacity="0.44313725490196076" d="M 112.5 224 L 113 224.5 L 110.5 227 L 110 226.5 L 112.5 224 Z " /><path fill="rgb(35,35,35)" stroke="rgb(35,35,35)" stroke-width="1" opacity="0.44313725490196076" d="M 103.5 233 L 104 233.5 L 101.5 236 L 101 235.5 L 103.5 233 Z " /><path fill="rgb(35,35,35)" stroke="rgb(35,35,35)" stroke-width="1" opacity="0.44313725490196076" d="M 85.5 272 L 86 274.5 L 85 274.5 L 85.5 272 Z " /><path fill="rgb(35,35,35)" stroke="rgb(35,35,35)" stroke-width="1" opacity="0.44313725490196076" d="M 84.5 281 L 85 285.5 L 84 285.5 L 84.5 281 Z " /><path fill="rgb(35,35,35)" stroke="rgb(35,35,35)" stroke-width="1" opacity="0.44313725490196076" d="M 235.5 281 L 236 283.5 L 235 283.5 L 235.5 281 Z " /><path fill="rgb(35,35,35)" stroke="rgb(35,35,35)" stroke-width="1" opacity="0.44313725490196076" d="M 234.5 290 L 235 292.5 L 234 292.5 L 234.5 290 Z " /><path fill="rgb(35,35,35)" stroke="rgb(35,35,35)" stroke-width="1" opacity="0.44313725490196076" d="M 102.5 331 L 105 333.5 L 104.5 334 L 102 331.5 L 102.5 331 Z " /><path fill="rgb(35,35,35)" stroke="rgb(35,35,35)" stroke-width="1" opacity="0.44313725490196076" d="M 109.5 338 L 112 340.5 L 111.5 341 L 109 338.5 L 109.5 338 Z " /><path fill="rgb(35,35,35)" stroke="rgb(35,35,35)" stroke-width="1" opacity="0.44313725490196076" d="M 210.5 338 L 211 338.5 L 207.5 342 L 207 341.5 L 210.5 338 Z " /><path fill="rgb(35,35,35)" stroke="rgb(35,35,35)" stroke-width="1" opacity="0.44313725490196076" d="M 174.5 356 L 177 356.5 L 174.5 357 L 174.5 356 Z " /><path fill="rgb(35,35,35)" stroke="rgb(35,35,35)" stroke-width="1" opacity="0.44313725490196076" d="M 167.5 357 L 171 357.5 L 167.5 358 L 167.5 357 Z " /><path fill="rgb(35,35,35)" stroke="rgb(35,35,35)" stroke-width="1" opacity="0.44313725490196076" d="M 192.5 390 L 196 390.5 L 192.5 391 L 192.5 390 Z " /><path fill="rgb(35,35,35)" stroke="rgb(35,35,35)" stroke-width="1" opacity="0.44313725490196076" d="M 128.5 480 L 136 480.5 L 128.5 481 L 128.5 480 Z " /><path fill="rgb(35,35,35)" stroke="rgb(35,35,35)" stroke-width="1" opacity="0.44313725490196076" d="M 140.5 545 L 141 639.5 L 140 639.5 L 140.5 545 Z " /><path fill="rgb(35,35,35)" stroke="rgb(35,35,35)" stroke-width="1" opacity="0.44313725490196076" d="M 151.5 629 L 152 629.5 L 145.5 636 L 145 635.5 L 151.5 629 Z " /><path fill="rgb(117,117,117)" stroke="rgb(117,117,117)" stroke-width="1" opacity="0.8313725490196079" d="M 159.5 322 L 160 337.5 L 159 337.5 L 159.5 322 Z " /></svg>