<svg viewBox="0 0 640 597" version="1.1" xmlns="http://www.w3.org/2000/svg" desc="Created with imagetracer.js version 1.2.6" ><path fill="rgb(0,0,0)" stroke="rgb(0,0,0)" stroke-width="1" opacity="0" d="M 0.5 0 L 326 0.5 L 315.5 3 L 307.5 7 L 293 20.5 L 287 31.5 L 285 37.5 L 285 40.5 L 281 49.5 L 281 52.5 L 277 64.5 L 274 79.5 L 272 83.5 L 272 86.5 L 268 98.5 L 265 113.5 L 263 117.5 L 260 132.5 L 258 136.5 L 256 147.5 L 254 151.5 L 254 154.5 L 251 163.5 L 251 166.5 L 249 170.5 L 246 185.5 L 244 189.5 L 241 204.5 L 239 208.5 L 239 211.5 L 235 223.5 L 232 238.5 L 230 242.5 L 227 257.5 L 224.5 263 L 57.5 97 L 54.5 96 L 1 148.5 L 0.5 150 L 0.5 0 Z " /><path fill="rgb(0,0,0)" stroke="rgb(0,0,0)" stroke-width="1" opacity="0" d="M 341.5 0 L 640 0.5 L 639.5 150 L 587.5 97 L 584.5 96 L 580.5 98 L 437 241.5 L 436.5 243 L 434 237.5 L 434 234.5 L 431 226.5 L 430 219.5 L 428 215.5 L 427 208.5 L 425 204.5 L 423 193.5 L 421 189.5 L 420 182.5 L 418 178.5 L 417 171.5 L 415 167.5 L 414 160.5 L 412 156.5 L 412 153.5 L 409 145.5 L 408 138.5 L 406 134.5 L 405 127.5 L 403 123.5 L 402 116.5 L 400 112.5 L 398 101.5 L 396 97.5 L 396 94.5 L 393 86.5 L 392 79.5 L 390 75.5 L 390 72.5 L 387 64.5 L 386 57.5 L 384 53.5 L 382 37.5 L 376 23.5 L 367.5 13 L 359.5 7 L 351.5 3 L 345.5 1 L 341.5 1 L 341.5 0 Z " /><path fill="rgb(0,0,0)" stroke="rgb(0,0,0)" stroke-width="1" opacity="0" d="M 0.5 154 L 201 353.5 L 139 589.5 L 142.5 594 L 145.5 594 L 149 591.5 L 152 582.5 L 154 579.5 L 154 577.5 L 161 562.5 L 161 560.5 L 168 545.5 L 168 543.5 L 171 538.5 L 175 526.5 L 178 521.5 L 178 519.5 L 180 516.5 L 184 504.5 L 187 499.5 L 191 487.5 L 194 482.5 L 198 470.5 L 201 465.5 L 205 453.5 L 208 448.5 L 212 436.5 L 215 431.5 L 219 419.5 L 222 414.5 L 226 402.5 L 233.5 386 L 318.5 470 L 323.5 470 L 429.5 364 L 430 364.5 L 433 373.5 L 435 376.5 L 435 378.5 L 437 381.5 L 437 383.5 L 439 386.5 L 439 388.5 L 441 391.5 L 442 396.5 L 444 399.5 L 444 401.5 L 446 404.5 L 446 406.5 L 448 409.5 L 448 411.5 L 450 414.5 L 450 416.5 L 452 419.5 L 452 421.5 L 454 424.5 L 454 426.5 L 466 454.5 L 467 459.5 L 469 462.5 L 469 464.5 L 471 467.5 L 471 469.5 L 473 472.5 L 473 474.5 L 475 477.5 L 475 479.5 L 477 482.5 L 477 484.5 L 489 512.5 L 490 517.5 L 492 520.5 L 492 522.5 L 494 525.5 L 494 527.5 L 496 530.5 L 496 532.5 L 498 535.5 L 498 537.5 L 500 540.5 L 500 542.5 L 502 545.5 L 502 547.5 L 504 550.5 L 504 552.5 L 506 555.5 L 506 557.5 L 508 560.5 L 512 572.5 L 514 575.5 L 519 590.5 L 523 596.5 L 0.5 597 L 0.5 154 Z " /><path fill="rgb(0,0,0)" stroke="rgb(0,0,0)" stroke-width="1" opacity="0" d="M 639.5 154 L 640 596.5 L 528.5 597 L 528 596.5 L 530 594.5 L 531 591.5 L 528 583.5 L 527 576.5 L 525 572.5 L 525 569.5 L 521 557.5 L 520 550.5 L 518 546.5 L 517 539.5 L 515 535.5 L 514 528.5 L 512 524.5 L 511 517.5 L 509 513.5 L 508 506.5 L 506 502.5 L 505 495.5 L 503 491.5 L 502 484.5 L 500 480.5 L 498 469.5 L 496 465.5 L 495 458.5 L 493 454.5 L 493 451.5 L 490 443.5 L 489 436.5 L 487 432.5 L 486 425.5 L 484 421.5 L 483 414.5 L 481 410.5 L 480 403.5 L 478 399.5 L 477 392.5 L 475 388.5 L 475 385.5 L 471 373.5 L 470 366.5 L 468 362.5 L 467 355.5 L 465 351.5 L 464 344.5 L 462 340.5 L 461 332.5 L 639.5 154 Z " /><path fill="rgb(0,0,0)" stroke="rgb(0,0,0)" stroke-width="1" opacity="0" d="M 333.5 196 L 341.5 196 L 342.5 197 L 348.5 198 L 356.5 202 L 370 213.5 L 397 281.5 L 320.5 359 L 267 306.5 L 268 300.5 L 273 290.5 L 277 278.5 L 280 273.5 L 280 271.5 L 282 268.5 L 286 256.5 L 289 251.5 L 293 239.5 L 296 234.5 L 300 222.5 L 303 217.5 L 305 210.5 L 308.5 207 L 322.5 199 L 328.5 197 L 332.5 197 L 333.5 196 Z " /><path fill="rgb(128,0,0)" stroke="rgb(128,0,0)" stroke-width="1" opacity="1" d="M 328.5 5 L 338.5 5 L 339.5 6 L 344.5 6 L 350.5 8 Q 362.8 13.3 370 23.5 L 375 32.5 L 377 38.5 L 377 41.5 L 378 42.5 L 378 56.5 L 377 57.5 L 376 64.5 L 371 74.5 L 362.5 84 L 353.5 90 L 351.5 90 L 345.5 93 Q 342.3 92.3 341.5 94 L 326.5 94 L 325.5 93 L 318.5 92 L 308.5 87 L 300 79.5 L 295 72.5 L 290 60.5 Q 291 56.5 289 55.5 L 289 43.5 L 290 42.5 L 290 38.5 L 292 32.5 L 295 26.5 L 306.5 14 L 316.5 8 L 322.5 6 L 327.5 6 L 328.5 5 Z M 330 30 L 322 34 L 317 39 L 314 46 L 314 54 L 317 61 Q 321 66 329 69 L 339 69 L 344 67 L 351 60 L 353 55 L 353 46 L 350 39 Q 347 33 341 31 L 338 30 L 330 30 Z " /><path fill="rgb(128,0,0)" stroke="rgb(128,0,0)" stroke-width="1" opacity="1" d="M 330.5 35 Q 342.2 34.3 346 41.5 L 348 45.5 L 348 53.5 L 347 56.5 L 340.5 63 L 338.5 64 L 329.5 64 L 326.5 63 L 321 57.5 L 319 53.5 L 319 46.5 L 321 41.5 L 325.5 37 L 330.5 35 Z " /><path fill="rgb(128,0,0)" stroke="rgb(128,0,0)" stroke-width="1" opacity="1" d="M 284.5 58 L 288 68.5 L 288 71.5 L 291 76.5 L 291 78.5 L 295 85.5 L 295 87.5 L 299 94.5 L 299 96.5 L 303 103.5 L 303 105.5 L 307 112.5 L 307 114.5 L 311 121.5 L 311 123.5 L 315 130.5 L 315 132.5 L 319 139.5 L 319 141.5 L 323 148.5 L 323 150.5 L 327 157.5 L 327 159.5 L 331 166.5 L 331 168.5 L 335 175.5 L 335 177.5 L 339 184.5 L 341 190.5 L 332.5 191 L 331.5 192 L 327.5 192 L 321.5 194 L 311.5 199 L 301 207.5 L 145.5 586 L 145 584.5 L 148 576.5 L 150 565.5 L 152 561.5 L 154 550.5 L 156 546.5 L 159 531.5 L 161 527.5 L 164 512.5 L 166 508.5 L 169 493.5 L 171 489.5 L 173 478.5 L 175 474.5 L 178 459.5 L 180 455.5 L 183 440.5 L 185 436.5 L 188 421.5 L 190 417.5 L 192 406.5 L 194 402.5 L 197 387.5 L 199 383.5 L 202 368.5 L 204 364.5 L 206 353.5 L 208 349.5 L 211 334.5 L 213 330.5 L 216 315.5 L 218 311.5 L 221 296.5 L 223 292.5 L 225 281.5 L 227 277.5 L 230 262.5 L 232 258.5 L 235 243.5 L 237 239.5 L 239 228.5 L 241 224.5 L 244 209.5 L 246 205.5 L 249 190.5 L 251 186.5 L 254 171.5 L 256 167.5 L 258 156.5 L 260 152.5 L 263 137.5 L 265 133.5 L 268 118.5 L 270 114.5 L 272 103.5 L 274 99.5 L 277 84.5 L 279 80.5 L 279 77.5 L 280 76.5 L 280 73.5 L 281 72.5 L 281 69.5 L 282 68.5 L 282 65.5 L 284.5 58 Z " /><path fill="rgb(128,0,0)" stroke="rgb(128,0,0)" stroke-width="1" opacity="1" d="M 381.5 63 L 384 69.5 L 384 72.5 L 387 80.5 L 389 91.5 L 391 95.5 L 392 102.5 L 394 106.5 L 395 113.5 L 397 117.5 L 398 124.5 L 400 128.5 L 401 135.5 L 403 139.5 L 404 146.5 L 406 150.5 L 407 157.5 L 409 161.5 L 409 164.5 L 412 172.5 L 414 183.5 L 416 187.5 L 417 194.5 L 419 198.5 L 420 205.5 L 422 209.5 L 423 216.5 L 425 220.5 L 426 227.5 L 428 231.5 L 428 234.5 L 429 235.5 L 429 238.5 L 432 247.5 L 401.5 278 L 400 276.5 L 400 274.5 L 398 271.5 L 398 269.5 L 396 266.5 L 392 254.5 L 384 236.5 L 383 231.5 L 381 228.5 L 381 226.5 L 379 223.5 L 375 211.5 L 367.5 204 L 356.5 196 L 347.5 193 L 346 191.5 L 346 189.5 L 342 182.5 L 342 180.5 L 338 173.5 L 338 171.5 L 334 164.5 L 334 162.5 L 330 155.5 L 330 153.5 L 326 146.5 L 323 137.5 L 319 130.5 L 319 128.5 L 315 121.5 L 315 119.5 L 311 112.5 L 311 110.5 L 307 103.5 L 307 101.5 L 300 86.5 L 300.5 86 L 304.5 90 L 315.5 96 L 321.5 98 Q 325.5 97 326.5 99 L 341.5 99 L 356.5 94 L 361.5 91 L 371 82.5 Q 377.9 74.4 381.5 63 Z " /><path fill="rgb(128,0,0)" stroke="rgb(128,0,0)" stroke-width="1" opacity="1" d="M 455.5 338 L 457 338.5 L 457 341.5 L 462 356.5 L 464 367.5 L 466 371.5 L 467 378.5 L 469 382.5 L 470 389.5 L 472 393.5 L 473 400.5 L 475 404.5 L 476 411.5 L 478 415.5 L 479 422.5 L 481 426.5 L 482 433.5 L 484 437.5 L 484 440.5 L 487 448.5 L 489 459.5 L 491 463.5 L 492 470.5 L 494 474.5 L 495 481.5 L 497 485.5 L 498 492.5 L 500 496.5 L 501 503.5 L 503 507.5 L 504 514.5 L 506 518.5 L 507 525.5 L 509 529.5 L 510 536.5 L 512 540.5 L 514 551.5 L 516 555.5 L 517 562.5 L 519 566.5 L 519 569.5 L 520 570.5 L 520 573.5 L 522 577.5 L 522 580.5 L 524 586.5 L 523 586.5 L 521 579.5 L 519 576.5 L 519 574.5 L 507 546.5 L 507 544.5 L 505 541.5 L 504 536.5 L 502 533.5 L 502 531.5 L 500 528.5 L 500 526.5 L 498 523.5 L 498 521.5 L 496 518.5 L 496 516.5 L 484 488.5 L 484 486.5 L 482 483.5 L 481 478.5 L 479 475.5 L 479 473.5 L 477 470.5 L 477 468.5 L 475 465.5 L 475 463.5 L 473 460.5 L 473 458.5 L 471 455.5 L 471 453.5 L 469 450.5 L 469 448.5 L 457 420.5 L 456 415.5 L 454 412.5 L 454 410.5 L 452 407.5 L 452 405.5 L 450 402.5 L 450 400.5 L 448 397.5 L 448 395.5 L 446 392.5 L 446 390.5 L 434 362.5 L 434 359.5 L 455.5 338 Z " /><path fill="rgb(0,0,0)" stroke="rgb(0,0,0)" stroke-width="1" opacity="0.6588235294117647" d="M 326.5 0 L 333 0.5 L 326.5 1 L 326.5 0 Z " /><path fill="rgb(0,0,0)" stroke="rgb(0,0,0)" stroke-width="1" opacity="0.6588235294117647" d="M 334.5 0 L 341 0.5 L 334.5 1 L 334.5 0 Z " /><path fill="rgb(0,0,0)" stroke="rgb(0,0,0)" stroke-width="1" opacity="0.6588235294117647" d="M 343.5 1 L 346 1.5 L 343.5 2 L 343.5 1 Z " /><path fill="rgb(0,0,0)" stroke="rgb(0,0,0)" stroke-width="1" opacity="0.6588235294117647" d="M 304.5 9 L 305 9.5 L 302.5 12 L 302 11.5 L 304.5 9 Z " /><path fill="rgb(0,0,0)" stroke="rgb(0,0,0)" stroke-width="1" opacity="0.6588235294117647" d="M 367.5 13 L 370 15.5 L 369.5 16 L 367 13.5 L 367.5 13 Z " /><path fill="rgb(0,0,0)" stroke="rgb(0,0,0)" stroke-width="1" opacity="0.6588235294117647" d="M 295.5 18 L 296 18.5 L 293.5 21 L 293 20.5 L 295.5 18 Z " /><path fill="rgb(0,0,0)" stroke="rgb(0,0,0)" stroke-width="1" opacity="0.6588235294117647" d="M 382.5 41 L 383 45.5 L 382 45.5 L 382.5 41 Z " /><path fill="rgb(0,0,0)" stroke="rgb(0,0,0)" stroke-width="1" opacity="0.6588235294117647" d="M 52.5 97 L 53 97.5 L 1.5 149 L 1 148.5 L 52.5 97 Z " /><path fill="rgb(0,0,0)" stroke="rgb(0,0,0)" stroke-width="1" opacity="0.6588235294117647" d="M 587.5 97 L 639 148.5 L 638.5 149 L 587 97.5 L 587.5 97 Z " /><path fill="rgb(0,0,0)" stroke="rgb(0,0,0)" stroke-width="1" opacity="0.6588235294117647" d="M 580.5 98 L 581 98.5 L 437.5 242 L 437 241.5 L 580.5 98 Z " /><path fill="rgb(0,0,0)" stroke="rgb(0,0,0)" stroke-width="1" opacity="0.6588235294117647" d="M 0.5 150 L 2 154.5 Q 1 156 0 153.5 L 0.5 150 Z " /><path fill="rgb(0,0,0)" stroke="rgb(0,0,0)" stroke-width="1" opacity="0.6588235294117647" d="M 639.5 150 L 640 153.5 L 461 332.5 L 460.5 335 L 460 332.5 L 639 153.5 L 639.5 150 Z " /><path fill="rgb(0,0,0)" stroke="rgb(0,0,0)" stroke-width="1" opacity="0.6588235294117647" d="M 254.5 151 L 255 153.5 L 254 153.5 L 254.5 151 Z " /><path fill="rgb(0,0,0)" stroke="rgb(0,0,0)" stroke-width="1" opacity="0.6588235294117647" d="M 8.5 161 L 101 253.5 L 100.5 254 L 8 161.5 L 8.5 161 Z " /><path fill="rgb(0,0,0)" stroke="rgb(0,0,0)" stroke-width="1" opacity="0.6588235294117647" d="M 330.5 196 L 333 196.5 L 330.5 197 L 330.5 196 Z " /><path fill="rgb(0,0,0)" stroke="rgb(0,0,0)" stroke-width="1" opacity="0.6588235294117647" d="M 342.5 196 L 345 196.5 L 342.5 197 L 342.5 196 Z " /><path fill="rgb(0,0,0)" stroke="rgb(0,0,0)" stroke-width="1" opacity="0.6588235294117647" d="M 361.5 205 L 365 208.5 L 364.5 209 L 361 205.5 L 361.5 205 Z " /><path fill="rgb(0,0,0)" stroke="rgb(0,0,0)" stroke-width="1" opacity="0.6588235294117647" d="M 225.5 261 L 226 263.5 L 224.5 264 L 225 262.5 L 225.5 261 Z " /><path fill="rgb(0,0,0)" stroke="rgb(0,0,0)" stroke-width="1" opacity="0.6588235294117647" d="M 396.5 282 L 397 282.5 L 321.5 358 L 321 357.5 L 396.5 282 Z " /><path fill="rgb(0,0,0)" stroke="rgb(0,0,0)" stroke-width="1" opacity="0.6588235294117647" d="M 153.5 305 L 202 353.5 L 201.5 354 L 153 305.5 L 153.5 305 Z " /><path fill="rgb(0,0,0)" stroke="rgb(0,0,0)" stroke-width="1" opacity="0.6588235294117647" d="M 428.5 364 L 429 364.5 L 323.5 470 L 323 469.5 L 428.5 364 Z " /><path fill="rgb(0,0,0)" stroke="rgb(0,0,0)" stroke-width="1" opacity="0.6588235294117647" d="M 233.5 385 L 247 398.5 L 246.5 399 L 233 385.5 L 233.5 385 Z " /><path fill="rgb(0,0,0)" stroke="rgb(0,0,0)" stroke-width="1" opacity="0.6588235294117647" d="M 188.5 401 L 189 403.5 L 188 403.5 L 188.5 401 Z " /><path fill="rgb(0,0,0)" stroke="rgb(0,0,0)" stroke-width="1" opacity="0.6588235294117647" d="M 298.5 449 L 319 469.5 L 318.5 470 L 298 449.5 L 298.5 449 Z " /><path fill="rgb(0,0,0)" stroke="rgb(0,0,0)" stroke-width="1" opacity="0.6588235294117647" d="M 139.5 587 L 140 589.5 L 139 589.5 L 139.5 587 Z " /><path fill="rgb(0,0,0)" stroke="rgb(0,0,0)" stroke-width="1" opacity="0.6588235294117647" d="M 140.5 591 L 142.5 593 L 146 593.5 L 142.5 594 L 140 591.5 L 140.5 591 Z " /><path fill="rgb(0,0,0)" stroke="rgb(0,0,0)" stroke-width="1" opacity="0.6588235294117647" d="M 521.5 594 L 525 596.5 L 523.5 597 L 521 594.5 L 521.5 594 Z " /><path fill="rgb(0,0,0)" stroke="rgb(0,0,0)" stroke-width="1" opacity="0.6588235294117647" d="M 529.5 594 L 530 594.5 L 527.5 597 L 526 596.5 L 529.5 594 Z " /><path fill="rgb(0,0,0)" stroke="rgb(0,0,0)" stroke-width="1" opacity="0.996078431372549" d="M 333.5 0 L 334.5 1 L 342.5 1 L 343.5 2 L 346.5 2 L 352.5 4 L 364.5 11 L 372 18.5 L 375 22.5 L 381 35.5 L 384 55.5 L 386 59.5 L 387 66.5 L 389 70.5 L 390 77.5 L 392 81.5 L 393 88.5 L 395 92.5 L 396 99.5 L 398 103.5 L 398 106.5 L 401 114.5 L 403 125.5 L 405 129.5 L 406 136.5 L 408 140.5 L 409 147.5 L 411 151.5 L 412 158.5 L 414 162.5 L 415 169.5 L 417 173.5 L 418 180.5 L 420 184.5 L 421 191.5 L 423 195.5 L 424 202.5 L 426 206.5 L 428 217.5 L 430 221.5 L 431 228.5 L 433 232.5 L 433 235.5 L 435.5 243 L 582.5 97 L 586.5 97 L 639 149.5 L 639 153.5 L 460 332.5 L 460 334.5 L 464 346.5 L 465 353.5 L 467 357.5 L 468 364.5 L 470 368.5 L 471 375.5 L 473 379.5 L 474 386.5 L 476 390.5 L 476 393.5 L 480 405.5 L 481 412.5 L 483 416.5 L 484 423.5 L 486 427.5 L 487 434.5 L 489 438.5 L 490 445.5 L 492 449.5 L 493 456.5 L 495 460.5 L 496 467.5 L 498 471.5 L 499 478.5 L 501 482.5 L 503 493.5 L 505 497.5 L 505 500.5 L 508 508.5 L 509 515.5 L 511 519.5 L 512 526.5 L 514 530.5 L 515 537.5 L 517 541.5 L 518 548.5 L 520 552.5 L 521 559.5 L 523 563.5 L 524 570.5 L 526 574.5 L 528 585.5 L 530 589.5 L 530 593.5 L 525.5 597 L 521 593.5 L 518 584.5 L 516 581.5 L 516 579.5 L 514 576.5 L 514 574.5 L 512 571.5 L 512 569.5 L 510 566.5 L 510 564.5 L 508 561.5 L 508 559.5 L 506 556.5 L 505 551.5 L 503 548.5 L 503 546.5 L 501 543.5 L 501 541.5 L 499 538.5 L 499 536.5 L 497 533.5 L 497 531.5 L 485 503.5 L 485 501.5 L 483 498.5 L 482 493.5 L 480 490.5 L 480 488.5 L 478 485.5 L 478 483.5 L 476 480.5 L 476 478.5 L 474 475.5 L 474 473.5 L 472 470.5 L 472 468.5 L 470 465.5 L 470 463.5 L 458 435.5 L 457 430.5 L 455 427.5 L 455 425.5 L 453 422.5 L 453 420.5 L 451 417.5 L 451 415.5 L 449 412.5 L 449 410.5 L 447 407.5 L 447 405.5 L 445 402.5 L 445 400.5 L 433 372.5 L 432 367.5 L 429.5 364 L 322.5 470 L 319.5 470 L 233.5 385 L 230 391.5 L 226 403.5 L 223 408.5 L 219 420.5 L 216 425.5 L 212 437.5 L 209 442.5 L 205 454.5 L 202 459.5 L 198 471.5 L 195 476.5 L 191 488.5 L 188 493.5 L 188 495.5 L 186 498.5 L 182 510.5 L 179 515.5 L 179 517.5 L 172 532.5 L 168 544.5 L 165 549.5 L 161 561.5 L 158 566.5 L 154 578.5 L 151 583.5 L 149 590.5 L 146.5 593 Q 141 594 140 590.5 L 140 585.5 L 142 581.5 L 145 566.5 L 147 562.5 L 150 547.5 L 152 543.5 L 154 532.5 L 156 528.5 L 159 513.5 L 161 509.5 L 164 494.5 L 166 490.5 L 169 475.5 L 171 471.5 L 173 460.5 L 175 456.5 L 178 441.5 L 180 437.5 L 183 422.5 L 185 418.5 L 187 407.5 L 189 403.5 L 192 388.5 L 194 384.5 L 197 369.5 L 199 365.5 L 199 362.5 L 202 353.5 L 2 155.5 Q 0.3 153.7 1 149.5 L 53.5 97 L 57.5 97 L 225.5 264 L 227 256.5 L 228 255.5 L 228 252.5 L 229 251.5 L 229 248.5 L 230 247.5 L 230 244.5 L 234 232.5 L 234 229.5 L 235 228.5 L 235 225.5 L 237 221.5 L 239 210.5 L 241 206.5 L 244 191.5 L 246 187.5 L 249 172.5 L 251 168.5 L 253 157.5 L 255 153.5 L 258 138.5 L 260 134.5 L 263 119.5 L 265 115.5 L 268 100.5 L 270 96.5 L 272 85.5 L 274 81.5 L 277 66.5 L 279 62.5 L 281 51.5 L 285 42.5 L 287 32.5 L 291 24.5 L 301.5 12 L 314.5 4 L 320.5 2 L 323.5 2 L 324.5 1 L 332.5 1 L 333.5 0 Z M 329 5 L 328 6 L 323 6 L 317 8 L 307 14 L 295 27 L 292 33 L 290 39 L 290 43 L 289 44 L 289 56 Q 291 57 290 61 L 295 73 L 300 80 L 309 87 L 319 92 L 326 93 L 327 94 L 342 94 Q 342 92 346 93 L 352 90 L 354 90 L 363 84 L 371 75 L 376 65 L 377 58 L 378 57 L 378 43 L 377 42 L 377 39 L 375 33 L 370 24 Q 363 13 351 8 L 345 6 L 340 6 L 339 5 L 329 5 Z M 285 58 L 282 66 L 282 69 L 281 70 L 281 73 L 280 74 L 280 77 L 279 78 L 279 81 L 277 85 L 274 100 L 272 104 L 270 115 L 268 119 L 265 134 L 263 138 L 260 153 L 258 157 L 256 168 L 254 172 L 251 187 L 249 191 L 246 206 L 244 210 L 241 225 L 239 229 L 237 240 L 235 244 L 232 259 L 230 263 L 227 278 L 225 282 L 223 293 L 221 297 L 218 312 L 216 316 L 213 331 L 211 335 L 208 350 L 206 354 L 204 365 L 202 369 L 199 384 L 197 388 L 194 403 L 192 407 L 190 418 L 188 422 L 185 437 L 183 441 L 180 456 L 178 460 L 175 475 L 173 479 L 171 490 L 169 494 L 166 509 L 164 513 L 161 528 L 159 532 L 156 547 L 154 551 L 152 562 L 150 566 L 148 577 L 146 581 L 147 584 L 301 208 L 312 199 L 322 194 L 328 192 L 332 192 L 333 191 L 341 191 L 339 185 L 335 178 L 335 176 L 331 169 L 331 167 L 327 160 L 327 158 L 323 151 L 323 149 L 319 142 L 319 140 L 315 133 L 315 131 L 311 124 L 311 122 L 307 115 L 307 113 L 303 106 L 303 104 L 299 97 L 299 95 L 295 88 L 295 86 L 291 79 L 291 77 L 288 72 L 288 69 L 285 58 Z M 382 63 Q 378 74 371 83 L 362 91 L 357 94 L 342 99 L 327 99 Q 325 97 322 98 L 316 96 L 305 90 L 301 86 L 300 87 L 307 102 L 307 104 L 311 111 L 311 113 L 315 120 L 315 122 L 319 129 L 319 131 L 323 138 L 326 147 L 330 154 L 330 156 L 334 163 L 334 165 L 338 172 L 338 174 L 342 181 L 342 183 L 346 190 L 346 192 L 348 193 L 357 196 L 368 204 L 375 212 L 379 224 L 381 227 L 381 229 L 383 232 L 384 237 L 392 255 L 396 267 L 398 270 L 398 272 L 400 275 L 400 277 L 402 278 L 432 248 L 429 239 L 429 236 L 428 235 L 428 232 L 426 228 L 425 221 L 423 217 L 422 210 L 420 206 L 419 199 L 417 195 L 416 188 L 414 184 L 412 173 L 409 165 L 409 162 L 407 158 L 406 151 L 404 147 L 403 140 L 401 136 L 400 129 L 398 125 L 397 118 L 395 114 L 394 107 L 392 103 L 391 96 L 389 92 L 387 81 L 384 73 L 384 70 L 382 63 Z M 331 196 L 330 197 L 324 198 L 316 202 L 307 208 L 304 212 L 300 224 L 297 229 L 293 241 L 290 246 L 288 253 L 284 261 L 284 263 L 281 268 L 277 280 L 274 285 L 270 297 L 266 305 L 320 359 L 397 283 L 397 280 L 385 252 L 384 247 L 382 244 L 382 242 L 380 239 L 380 237 L 378 234 L 378 232 L 376 229 L 376 227 L 374 224 L 371 215 L 362 205 L 348 197 L 345 196 L 331 196 Z M 456 338 L 434 360 L 434 363 L 446 391 L 446 393 L 448 396 L 448 398 L 450 401 L 450 403 L 452 406 L 452 408 L 454 411 L 454 413 L 456 416 L 457 421 L 469 449 L 469 451 L 471 454 L 471 456 L 473 459 L 473 461 L 475 464 L 475 466 L 477 469 L 477 471 L 479 474 L 479 476 L 481 479 L 482 484 L 484 487 L 484 489 L 496 517 L 496 519 L 498 522 L 498 524 L 500 527 L 500 529 L 502 532 L 502 534 L 504 537 L 505 542 L 507 545 L 507 547 L 519 575 L 519 577 L 521 580 L 523 587 L 524 587 L 522 581 L 522 578 L 520 574 L 520 571 L 519 570 L 519 567 L 517 563 L 516 556 L 514 552 L 512 541 L 510 537 L 509 530 L 507 526 L 506 519 L 504 515 L 503 508 L 501 504 L 500 497 L 498 493 L 497 486 L 495 482 L 494 475 L 492 471 L 491 464 L 489 460 L 487 449 L 484 441 L 484 438 L 482 434 L 481 427 L 479 423 L 478 416 L 476 412 L 475 405 L 473 401 L 472 394 L 470 390 L 469 383 L 467 379 L 466 372 L 464 368 L 462 357 L 457 342 L 457 339 L 456 338 Z " /><path fill="rgb(0,0,0)" stroke="rgb(0,0,0)" stroke-width="1" opacity="0.996078431372549" d="M 329.5 30 L 337.5 30 L 340.5 31 Q 346.7 33.3 350 38.5 L 353 45.5 L 353 54.5 L 351 59.5 L 343.5 67 L 338.5 69 L 328.5 69 Q 321.1 66.4 317 60.5 L 314 53.5 L 314 45.5 L 317 38.5 L 321.5 34 L 329.5 30 Z M 331 35 L 326 37 L 321 42 L 319 47 L 319 54 L 321 58 L 327 63 L 330 64 L 339 64 L 341 63 L 347 57 L 348 54 L 348 46 L 346 42 Q 342 34 331 35 Z " /></svg>