<svg viewBox="0 0 552 640" version="1.1" xmlns="http://www.w3.org/2000/svg" desc="Created with imagetracer.js version 1.2.6" ><path fill="rgb(0,0,0)" stroke="rgb(0,0,0)" stroke-width="1" opacity="0.9333333333333333" d="M 98.5 0 L 108.5 0 L 109.5 1 L 115.5 1 L 121.5 3 L 130.5 4 L 131.5 5 L 142.5 7 L 157.5 12 L 169.5 18 L 182.5 28 L 195.5 32 L 201.5 35 Q 211.9 41.1 219 50.5 L 225 60.5 L 227 66.5 L 227 70.5 Q 225.3 75.3 221.5 78 L 214.5 81 L 206.5 81 L 197.5 78 L 185.5 78 L 178.5 81 L 174 85.5 Q 170.3 89.3 170 96.5 Q 173 101 178.5 103 L 188 112.5 L 193 120.5 L 193 122.5 L 196 128.5 L 197 135.5 L 198 136.5 L 198 157.5 L 197 158.5 L 197 162.5 L 194 171.5 L 185 185.5 L 184 188.5 L 184 196.5 L 185.5 196 L 196.5 196 L 202 201.5 L 201 211.5 L 209.5 212 L 210.5 211 L 224.5 211 L 225.5 210 L 233.5 210 L 234.5 209 L 240.5 209 L 241.5 208 L 249.5 208 L 250.5 207 L 264.5 207 L 265.5 206 L 311.5 206 L 312.5 207 L 326.5 207 L 327.5 208 L 335.5 208 L 336.5 209 L 341.5 209 L 342.5 210 L 345.5 210 L 354.5 213 L 368.5 220 L 379.5 227 Q 390.8 235.2 400 245.5 L 405 252.5 L 407 256.5 L 407 259.5 L 381 298.5 L 358 327.5 L 348 338.5 L 345 342.5 L 344 346.5 L 349.5 347 Q 350.3 345.2 353.5 346 L 357 342.5 Q 357.7 336.2 362.5 334 L 364.5 333 L 374.5 333 L 380.5 338 L 386.5 334 L 390.5 334 L 391 336.5 Q 388.4 337.9 389 342.5 L 392.5 343 L 394 344.5 L 390 350.5 L 394 355.5 Q 390.8 356.8 390.5 361 L 381.5 358 Q 378 364.5 368.5 365 L 359.5 359 L 356.5 358 L 348.5 358 L 347.5 359 L 332.5 360 L 330 361.5 L 327 376.5 L 324 382.5 L 320.5 386 L 312.5 389 L 308.5 389 L 302.5 391 L 297.5 391 L 296.5 392 L 291.5 392 L 288 393.5 L 292 396.5 L 294 399.5 L 294 404.5 L 288.5 409 Q 285.3 408.3 284.5 410 L 281.5 409 L 279 406.5 L 278 404.5 L 277.5 395 L 275.5 396 L 248.5 396 L 243.5 394 L 234.5 385 L 231.5 384 Q 230.5 386 226.5 385 L 220 379.5 Q 217.8 376.7 219 370.5 Q 221 365 225.5 362 L 228 360.5 L 229 358.5 L 229 345.5 L 230 344.5 L 231 334.5 L 232 333.5 L 232 330.5 L 234 324.5 L 237.5 318 L 240.5 318 L 252.5 328 L 258 315.5 L 261.5 311 L 263.5 311 L 269 316.5 L 276.5 326 L 278 325.5 Q 282.7 320.2 285 312.5 L 287.5 310 L 290.5 310 L 294 312.5 L 302.5 324 L 313 314.5 L 316.5 310 L 319 310.5 L 326 331.5 Q 325 335.5 327 336.5 L 327 346.5 L 329.5 349 L 340 339.5 L 381 288.5 L 390 276.5 L 397 264.5 L 394.5 263 L 393.5 264 L 384.5 264 L 383.5 265 L 360.5 265 L 359.5 266 L 290.5 266 L 289.5 267 L 251.5 267 L 250.5 268 L 232.5 268 L 231.5 269 L 222.5 269 Q 221.2 271.3 216.5 270 L 209 276.5 L 191 299.5 L 184 310.5 L 161 337.5 L 117 393.5 L 118.5 394 L 119.5 393 L 123.5 393 L 124.5 392 L 128.5 392 L 129.5 391 L 133.5 391 L 134.5 390 L 138.5 390 L 139.5 389 L 143.5 389 L 144.5 388 L 148.5 388 L 149.5 387 L 157.5 386 L 167.5 379 L 173.5 379 Q 177.3 380.3 176 386.5 L 169.5 394 Q 167.7 395.7 163.5 395 L 159.5 390 L 155.5 390 L 149 392.5 L 153 397.5 L 153 402.5 L 148.5 406 L 139.5 406 L 136 401.5 L 136 396.5 L 137 394.5 L 134.5 394 L 133.5 395 L 125.5 396 L 120 398.5 L 123.5 401 L 130.5 403 L 153.5 413 L 166.5 417 L 169 412.5 L 165 409.5 L 165 404.5 L 170.5 398 L 176.5 396 L 180 398.5 L 180 402.5 L 175 409.5 L 183.5 410 L 184 398.5 L 183 397.5 L 182 389.5 Q 178.3 380.7 172 374.5 L 166 362.5 L 166 357.5 L 169.5 354 L 175.5 351 L 183.5 350 L 184.5 349 L 196.5 349 L 201.5 351 L 206 354.5 L 205 360.5 L 199 373.5 L 202.5 374 L 204 372.5 L 204 369.5 L 206 365.5 L 208.5 363 L 213.5 361 L 217 363.5 L 218 367.5 L 217 370.5 L 212 375.5 L 212 379.5 L 213.5 382 Q 218.1 382.9 220 386.5 Q 218.9 391.9 214.5 394 Q 212 396 206.5 395 L 203 392.5 Q 203.8 388.8 201.5 388 L 196.5 387 L 195 389.5 L 195 398.5 Q 196.8 400.8 201.5 400 L 204.5 403 L 206.5 403 L 210.5 400 L 215.5 400 L 220 404.5 L 220 406.5 Q 218.3 411.3 214.5 414 Q 212.3 415.8 207.5 415 L 203 410.5 L 202.5 408 L 197 412.5 L 197.5 414 Q 204 413 206 416.5 L 206 419.5 L 200.5 425 L 193 428.5 L 200.5 432 L 202.5 432 L 209.5 436 L 211.5 436 L 235.5 448 L 238.5 448 L 247.5 445 L 251.5 445 L 256.5 443 L 259.5 443 L 260.5 442 L 263.5 442 L 264.5 441 L 267.5 441 L 268.5 440 L 271.5 440 L 272.5 439 L 275.5 439 L 276.5 438 L 291.5 435 L 295.5 433 L 302.5 432 L 316.5 427 L 319.5 427 L 358.5 414 L 361.5 414 L 400.5 401 L 411 396.5 L 410.5 395 L 402.5 394 L 399 391.5 L 399.5 390 L 408.5 390 L 409.5 391 L 416.5 392 L 421.5 394 L 424 396.5 Q 425.8 398.7 425 403.5 L 426 404.5 L 426 412.5 L 427 413.5 L 427 421.5 L 428 422.5 L 428 434.5 L 429 435.5 L 430 468.5 L 431 469.5 L 431 493.5 L 432 494.5 L 432 524.5 L 431 525.5 L 431 531.5 L 429.5 533 L 415.5 539 L 413.5 539 L 408.5 542 L 406.5 542 L 401.5 545 L 399.5 545 L 392.5 549 L 390.5 549 L 375.5 556 L 327.5 572 L 324.5 574 L 313.5 577 L 286.5 589 L 265.5 596 L 258.5 597 L 254.5 599 L 251.5 599 L 247.5 601 L 244.5 601 L 240.5 603 L 237.5 603 L 225.5 607 Q 218.1 601.4 208.5 598 L 181.5 581 L 105 522.5 L 105 512.5 L 104 511.5 L 104 485.5 L 105 484.5 L 105 451.5 L 106 450.5 L 106 429.5 L 107 428.5 L 107 413.5 L 108 412.5 L 108 404.5 L 90.5 394 L 80.5 385 L 79 386.5 L 79 399.5 L 78 400.5 L 77 410.5 L 76 411.5 L 74 421.5 L 68.5 433 L 56.5 433 L 55 434.5 L 52 441.5 L 41.5 455 L 35.5 456 L 27 451.5 L 24 445.5 Q 25.3 440.8 23 439.5 L 23 430.5 L 24 429.5 L 24 422.5 L 23.5 422 L 21.5 424 L 18.5 426 Q 14.5 425 13.5 427 Q 12.5 425 8.5 426 L 4 421.5 L 0 415.5 L 0 393.5 L 1 392.5 L 1 379.5 L 18 330.5 L 18 327.5 L 21 319.5 L 22 310.5 L 23 309.5 Q 21.7 304.8 24 303.5 L 24 295.5 L 25 294.5 L 25 278.5 L 26 277.5 L 26 249.5 L 27 248.5 L 27 231.5 L 28 230.5 L 28 222.5 L 29 221.5 L 29 216.5 L 31 211.5 L 31 207.5 L 32 206.5 L 33 199.5 L 35 195.5 L 35 192.5 L 38 183.5 L 40 180.5 L 44 168.5 L 48 161.5 L 48 159.5 L 51 154.5 L 56 139.5 L 58 136.5 L 60 128.5 L 62 125.5 L 67 110.5 L 68 101.5 L 62 96.5 L 60.5 93 Q 57.2 92.3 56.5 94 L 43.5 94 Q 40.9 91.6 42 85.5 L 40.5 84 Q 33.8 81.8 30 76.5 L 30 70.5 L 35.5 63 L 39 60.5 L 32 54.5 L 31 49.5 Q 33.3 42.8 38.5 39 L 51 31.5 L 46 25.5 L 45 19.5 L 46 16.5 L 51.5 11 L 57.5 10 L 58.5 9 L 68.5 9 L 69.5 10 L 76.5 10 L 88.5 3 L 94.5 1 L 97.5 1 L 98.5 0 Z M 108 4 L 107 5 L 96 7 L 84 11 L 79 15 L 57 15 L 49 20 L 49 22 L 52 26 L 59 29 Q 65 28 68 30 L 68 32 L 65 34 L 59 34 L 53 36 L 44 41 L 37 48 L 36 52 L 42 56 L 50 56 L 51 55 L 54 55 L 60 53 L 60 56 L 57 59 L 46 62 L 39 66 Q 34 68 34 75 L 38 78 L 41 79 L 44 79 Q 50 74 59 71 L 60 76 L 58 78 L 48 83 L 45 87 L 50 90 L 53 90 L 60 87 L 64 82 Q 66 79 67 82 L 67 85 L 64 90 Q 66 90 65 94 Q 65 96 70 96 L 77 87 L 85 72 L 85 70 L 87 67 L 91 55 L 91 52 L 94 43 L 97 41 L 98 46 L 97 56 L 94 65 L 81 89 L 76 95 L 75 101 L 74 102 L 74 107 L 72 112 L 72 116 L 70 121 L 70 124 L 68 128 L 68 131 L 65 138 L 65 141 L 61 153 L 59 156 L 56 166 L 53 171 L 53 173 L 43 192 L 43 194 L 40 199 L 37 208 L 36 216 L 35 217 L 35 221 L 34 222 L 33 238 L 32 239 L 32 246 L 31 247 L 31 255 L 30 256 L 30 294 L 29 295 L 29 303 Q 27 304 28 309 L 27 310 L 26 319 L 24 324 L 24 328 L 21 337 L 21 340 L 20 341 L 20 344 L 19 345 L 19 348 L 18 349 L 18 352 L 15 359 L 15 362 L 13 368 L 11 371 L 8 380 L 8 383 L 5 391 L 5 395 L 4 396 L 4 406 Q 6 407 5 411 L 6 412 L 7 418 L 11 423 Q 15 424 17 422 L 22 417 L 26 411 L 29 402 L 29 399 L 30 398 L 31 389 L 33 383 L 36 380 L 37 382 L 37 389 L 35 395 L 35 399 L 34 400 L 34 404 L 33 405 L 32 416 L 31 417 L 31 424 L 30 425 L 30 445 L 32 450 L 35 452 L 40 451 Q 44 446 47 440 L 50 431 L 50 428 L 51 427 L 51 418 L 52 417 L 52 394 L 53 393 L 53 385 L 55 384 L 56 386 Q 55 389 57 390 L 57 427 L 58 429 L 61 430 L 63 429 L 65 427 L 69 419 L 71 413 L 71 410 L 72 409 Q 71 404 73 404 L 73 397 L 74 396 L 74 379 L 59 360 L 47 337 L 42 322 L 42 312 L 41 311 L 42 288 L 46 276 L 46 273 L 47 272 L 48 259 L 49 258 L 49 248 L 50 247 Q 49 240 51 238 L 53 237 L 54 240 L 54 252 L 53 253 L 53 260 L 55 260 L 57 257 Q 56 253 58 253 L 58 247 L 59 246 L 59 235 L 60 234 L 60 217 L 62 215 L 62 220 L 63 221 L 64 248 L 67 247 L 71 240 Q 70 236 72 236 Q 71 231 73 230 L 73 219 L 74 218 L 74 200 L 76 197 L 77 198 L 77 228 L 76 229 L 76 236 L 75 237 L 76 238 L 78 238 L 84 235 L 86 232 L 87 220 L 88 219 L 88 188 L 87 187 L 87 180 L 89 179 L 90 182 Q 89 185 91 186 L 91 192 L 92 193 L 93 222 L 97 217 Q 98 211 101 208 L 101 206 L 103 203 L 107 191 L 108 184 L 109 183 L 110 172 L 111 171 L 111 165 L 112 164 L 112 157 L 113 156 L 113 147 L 114 146 L 114 108 L 115 107 L 116 102 L 117 104 L 119 110 L 119 117 L 120 118 L 120 129 L 119 130 L 119 150 L 118 151 L 118 160 L 117 161 L 117 168 L 116 169 L 116 174 L 114 180 L 114 184 L 113 185 L 112 192 L 107 207 L 101 219 L 95 227 L 96 228 L 105 225 L 108 225 L 109 224 L 112 224 L 113 223 L 122 222 L 123 221 L 128 221 L 129 220 L 133 220 L 134 219 L 140 218 Q 143 217 142 211 L 144 210 L 144 215 L 146 216 L 153 216 L 154 215 L 172 215 L 175 214 L 177 211 Q 176 207 178 207 L 178 199 L 179 198 L 179 178 L 178 177 L 178 163 L 177 162 L 177 153 L 176 152 L 176 145 L 175 144 L 175 137 Q 173 135 174 131 L 173 130 L 173 125 L 172 124 L 172 120 L 169 111 L 169 108 L 167 104 L 167 101 L 153 100 Q 151 98 147 99 L 139 96 L 135 93 L 132 86 L 132 77 L 133 74 Q 136 67 141 64 L 144 57 L 153 48 L 156 47 L 174 28 L 148 14 L 142 12 L 134 11 L 133 10 L 125 9 L 124 8 L 121 8 L 120 7 L 117 7 L 108 4 Z M 177 33 L 171 38 L 165 45 L 152 54 L 146 62 L 146 68 L 149 69 L 159 69 L 165 67 L 177 66 L 178 65 L 186 65 L 187 64 L 195 64 Q 195 66 199 65 L 215 73 L 220 72 L 222 68 L 221 62 L 217 55 Q 210 47 202 41 L 186 34 L 177 33 Z M 185 69 L 184 70 L 179 70 L 174 72 L 166 73 L 165 74 L 160 74 L 159 75 L 147 75 L 143 72 L 140 72 L 136 79 L 136 85 L 140 92 L 145 95 L 156 95 Q 156 93 160 94 L 164 91 L 164 90 L 177 77 L 181 75 L 184 74 L 205 74 L 204 72 L 198 71 L 197 70 Q 192 71 192 69 L 185 69 Z M 175 107 L 174 110 L 176 115 L 176 119 L 177 120 L 177 125 L 178 126 L 178 132 L 179 133 L 180 148 L 181 149 L 181 160 L 182 161 L 182 170 L 183 173 L 185 173 L 190 163 L 191 156 L 192 155 L 192 147 L 193 146 L 193 140 L 192 139 L 192 133 L 191 130 L 187 121 L 181 112 L 175 107 Z M 190 200 L 186 202 L 182 209 Q 181 213 184 214 L 194 212 L 197 208 L 197 203 Q 196 199 190 200 Z M 268 212 L 267 213 L 243 213 L 242 214 L 228 214 L 227 215 L 197 216 L 196 217 L 183 217 L 182 218 L 171 218 L 170 219 L 164 219 L 163 221 L 171 224 L 179 226 L 193 233 L 212 247 L 224 246 L 225 245 L 235 245 L 236 244 L 269 244 L 270 243 L 289 243 Q 291 243 290 240 L 294 237 Q 297 238 298 236 L 316 236 L 323 241 L 339 241 L 340 240 L 365 240 L 366 239 L 380 239 L 382 238 L 375 231 L 357 221 L 333 213 Q 328 214 327 212 L 268 212 Z M 144 223 L 143 224 L 131 225 L 126 227 L 122 227 L 121 228 L 115 229 L 114 231 L 129 232 L 130 233 L 141 235 L 148 238 L 151 238 L 166 243 L 174 247 L 176 247 L 189 254 L 191 254 L 209 264 L 232 264 L 233 263 L 267 263 L 268 262 L 304 262 L 305 261 L 336 261 L 337 260 L 363 260 L 364 259 L 382 259 L 383 258 L 394 258 L 395 257 L 399 257 L 392 247 L 391 245 L 359 245 L 358 244 L 336 244 L 335 245 L 326 245 L 323 249 L 323 251 L 319 255 L 313 258 L 303 258 L 295 254 L 288 247 Q 283 246 283 248 L 249 248 L 248 249 L 226 249 L 225 250 L 214 250 L 213 251 L 210 251 L 194 238 L 178 230 L 160 224 Q 155 225 154 223 L 144 223 Z M 115 235 L 114 236 L 103 236 L 102 237 L 98 237 L 93 239 L 90 239 L 81 243 L 71 250 L 58 266 L 51 280 L 47 292 Q 48 295 46 297 L 46 306 L 45 307 Q 44 310 46 311 L 46 320 L 47 321 L 47 325 L 50 334 L 60 352 L 79 377 L 95 391 L 105 397 L 108 397 L 113 392 L 126 374 L 162 330 L 189 292 L 205 274 L 207 270 L 191 259 L 158 244 L 146 240 L 143 240 L 139 238 L 136 238 L 135 237 L 124 236 L 123 235 L 115 235 Z M 310 239 L 308 241 L 308 249 L 307 250 L 304 247 L 305 242 L 306 240 L 298 241 L 293 245 L 294 247 L 305 252 Q 311 253 314 251 L 318 246 L 317 241 Q 315 238 310 239 Z M 290 316 L 279 332 L 277 333 Q 272 330 270 325 L 263 318 L 255 336 L 253 338 L 242 326 L 240 324 L 237 331 L 236 341 L 234 347 L 234 363 L 235 364 L 236 373 L 237 374 L 239 384 L 243 387 L 253 391 L 268 391 L 269 390 L 278 390 Q 279 388 284 389 L 285 388 L 291 388 L 292 387 L 297 387 L 298 386 L 306 385 L 315 381 L 321 374 L 323 368 L 323 345 L 322 344 L 322 338 L 321 337 L 320 327 L 318 321 L 317 319 L 309 328 L 305 331 L 303 330 L 290 316 Z M 366 335 L 361 340 L 359 348 L 358 349 L 349 349 L 348 350 L 333 351 L 328 354 L 331 358 L 344 357 L 345 356 L 352 356 Q 353 354 358 355 L 359 354 L 368 361 L 371 361 L 374 359 L 378 354 L 378 346 L 376 340 L 371 335 L 366 335 Z M 385 339 L 383 341 L 383 352 L 386 356 L 388 355 Q 389 351 387 351 L 387 349 L 389 346 L 388 345 Q 385 344 386 340 L 385 339 Z M 180 354 L 174 356 L 171 359 L 171 365 L 182 380 L 186 388 Q 185 391 187 393 L 187 401 L 189 403 L 192 402 L 192 380 L 197 370 L 197 366 L 196 365 Q 193 365 193 361 L 196 359 L 200 361 L 201 358 L 199 355 L 196 354 L 180 354 Z M 197 361 Q 194 362 196 363 L 197 363 L 197 361 Z M 211 364 Q 207 366 206 371 Q 207 373 212 372 L 216 368 L 216 365 L 211 364 Z M 228 365 L 223 371 L 224 376 L 227 380 Q 231 381 232 378 L 231 370 L 229 366 L 228 365 Z M 205 375 L 201 377 L 197 383 L 199 385 L 203 385 L 207 383 Q 209 381 210 378 L 207 375 L 205 375 Z M 170 381 L 169 383 L 171 386 L 164 390 L 166 392 L 169 391 L 174 385 L 173 383 Q 173 381 170 381 Z M 213 384 L 207 389 L 208 392 Q 212 393 214 391 Q 216 390 215 386 L 213 384 Z M 144 394 L 142 395 Q 138 396 139 403 L 143 405 L 150 404 L 151 403 L 150 398 Q 148 394 144 394 Z M 284 396 L 282 397 L 280 400 L 280 405 L 284 408 L 289 407 L 292 403 L 291 399 Q 290 395 284 396 Z M 173 400 L 170 402 L 167 406 L 168 407 Q 172 408 175 406 L 177 402 Q 176 399 173 400 Z M 200 401 L 195 404 L 193 404 L 189 408 Q 188 411 191 412 L 195 411 L 201 404 L 200 401 Z M 114 402 L 112 405 L 112 419 L 111 420 L 111 442 L 110 443 L 110 461 L 109 462 L 109 483 L 108 484 L 108 517 L 109 519 L 144 546 L 189 579 L 210 593 L 219 598 L 223 599 L 224 598 L 224 591 L 225 590 L 226 563 L 227 562 L 227 543 L 228 542 L 228 491 L 229 490 L 229 476 L 230 475 L 230 460 L 231 459 L 231 453 L 222 447 L 220 447 L 213 443 L 211 443 L 206 440 L 204 440 L 195 436 L 193 437 L 195 442 L 190 448 L 193 454 L 193 456 L 197 459 L 203 462 L 212 465 L 215 465 L 216 466 L 219 466 L 220 468 L 220 483 L 221 484 L 220 486 L 220 523 L 219 524 L 219 536 L 218 537 L 218 545 L 217 546 L 217 554 L 216 555 L 216 559 L 215 562 L 209 561 L 188 550 L 186 548 L 181 546 L 156 531 L 137 518 L 124 511 L 120 508 Q 118 506 119 502 L 118 501 L 118 424 L 120 422 L 135 429 L 142 430 L 143 429 L 143 423 L 144 420 L 146 417 L 135 410 L 133 410 L 128 407 L 126 407 L 123 405 L 114 402 Z M 211 402 L 206 407 Q 205 411 208 412 L 211 412 L 215 410 L 218 407 L 218 405 Q 217 401 211 402 Z M 415 402 L 394 409 L 391 409 L 375 415 L 372 415 L 359 420 L 356 420 L 346 424 L 343 424 L 336 427 L 333 427 L 323 431 L 320 431 L 313 434 L 310 434 L 299 438 L 288 440 L 284 442 L 269 445 L 268 446 L 265 446 L 261 448 L 254 449 L 239 454 L 236 457 L 236 476 L 235 477 L 235 507 L 234 508 L 234 528 L 233 529 L 233 545 L 232 546 L 231 574 L 230 575 L 230 592 L 229 593 L 230 600 L 240 598 L 273 587 L 296 577 L 298 577 L 303 574 L 305 574 L 312 570 L 314 570 L 344 555 L 346 555 L 351 552 L 353 552 L 356 550 L 358 550 L 361 548 L 370 545 L 371 546 L 369 548 L 350 557 L 348 557 L 344 560 L 345 561 L 353 560 L 365 556 L 368 554 L 376 552 L 384 548 L 386 548 L 403 539 L 408 538 L 426 530 L 426 519 L 427 518 L 427 491 L 426 490 L 426 477 L 425 476 L 425 461 L 424 460 L 424 445 L 423 444 L 423 427 L 422 426 L 422 413 L 421 412 Q 422 406 420 404 Q 419 401 415 402 Z M 178 411 L 175 412 L 171 416 Q 170 420 173 421 Q 177 422 179 420 L 183 415 L 182 413 L 178 411 Z M 190 415 L 185 417 L 179 423 L 186 426 L 187 420 L 191 418 L 190 415 Z M 202 416 L 201 418 L 195 418 L 188 423 L 190 425 L 196 425 L 202 422 L 204 418 L 202 416 Z M 150 419 L 146 423 Q 145 428 149 429 L 153 428 L 155 426 L 156 423 L 155 421 Q 154 418 150 419 Z M 160 421 L 159 426 L 154 432 L 154 437 L 159 441 L 161 441 L 177 449 L 180 449 L 178 443 L 180 437 L 183 434 L 183 432 L 180 429 L 178 429 L 171 425 L 169 425 L 160 421 Z M 127 432 L 125 434 L 125 441 L 124 442 L 124 461 L 123 462 L 123 505 L 140 516 L 162 528 L 207 555 L 209 552 Q 208 547 210 547 L 210 540 L 211 539 L 212 518 L 213 517 L 213 508 L 214 507 L 214 500 L 215 499 L 215 487 L 216 486 L 216 473 L 212 469 L 205 467 L 192 460 L 190 461 L 190 464 L 193 469 L 192 473 L 189 477 L 189 486 L 183 490 Q 182 494 184 496 L 183 501 L 180 504 L 171 504 L 168 509 L 164 512 Q 159 513 157 511 L 153 506 L 153 502 L 147 501 L 143 497 L 143 488 L 138 483 L 138 476 L 139 475 Q 140 470 137 470 L 137 462 L 138 461 L 138 457 L 135 453 Q 136 446 140 443 L 140 441 L 135 436 L 127 432 Z M 145 432 L 142 435 Q 141 440 144 441 L 148 440 Q 150 438 151 435 L 148 432 L 145 432 Z M 188 434 L 182 441 Q 181 444 184 445 Q 184 443 188 444 L 191 441 L 191 439 L 188 434 Z M 150 443 L 149 444 L 152 448 Q 153 452 151 454 L 147 457 L 151 463 L 151 465 L 148 470 L 152 476 Q 153 480 151 482 L 157 490 L 160 492 Q 166 491 169 493 L 169 491 L 176 486 L 176 480 L 179 474 Q 180 470 178 470 L 181 460 L 176 455 L 169 452 L 167 450 L 163 449 L 152 443 L 150 443 Z M 144 446 L 142 447 L 138 452 L 140 454 Q 144 455 147 453 L 149 449 Q 148 445 144 446 Z M 184 449 L 182 451 Q 181 455 183 457 Q 184 459 188 458 Q 190 457 189 452 Q 188 448 184 449 Z M 142 460 L 139 464 L 139 467 Q 139 470 144 469 L 147 464 L 147 461 L 142 460 Z M 184 463 L 181 467 L 182 472 L 185 473 L 188 472 Q 190 471 189 467 L 186 463 L 184 463 Z M 144 473 Q 140 475 141 482 Q 142 485 146 484 L 148 481 L 149 476 Q 148 472 144 473 Z M 182 476 L 179 480 L 180 485 Q 180 487 184 486 Q 187 485 186 480 L 182 476 Z M 150 487 Q 144 489 146 498 L 149 499 L 152 498 Q 155 496 154 490 Q 153 486 150 487 Z M 176 489 L 171 495 L 173 500 L 176 501 Q 180 502 180 499 Q 181 493 179 491 Q 179 489 176 489 Z M 162 494 Q 155 497 157 508 Q 158 510 162 510 Q 165 507 167 503 L 166 496 Q 165 493 162 494 Z " /><path fill="rgb(0,0,0)" stroke="rgb(0,0,0)" stroke-width="1" opacity="0.9333333333333333" d="M 125.5 34 Q 131.9 34.1 134 38.5 L 137 43.5 L 135 49.5 L 130.5 54 Q 128.3 55.8 123.5 55 L 119 51.5 L 117 47.5 L 117 43.5 L 118 40.5 L 123.5 35 L 125.5 34 Z M 126 38 L 122 42 Q 123 45 121 47 L 122 50 L 125 52 L 129 51 L 131 49 L 132 46 L 130 40 L 126 38 Z " /><path fill="rgb(0,0,0)" stroke="rgb(0,0,0)" stroke-width="1" opacity="0.9333333333333333" d="M 167.5 46 L 174.5 46 Q 175.3 47.8 178.5 47 L 180 48.5 L 175.5 52 Q 172.3 51.3 171.5 53 L 164.5 53 L 161 50.5 L 163.5 47 Q 166.8 47.8 167.5 46 Z " /><path fill="rgb(0,0,0)" stroke="rgb(0,0,0)" stroke-width="1" opacity="0.9333333333333333" d="M 144.5 116 L 147 117.5 Q 147.5 121.5 144.5 122 L 143 117.5 L 144.5 116 Z " /><path fill="rgb(0,0,0)" stroke="rgb(0,0,0)" stroke-width="1" opacity="0.9333333333333333" d="M 153.5 121 Q 156.5 120.5 157 122.5 L 156.5 127 L 153 124.5 L 153.5 121 Z " /><path fill="rgb(0,0,0)" stroke="rgb(0,0,0)" stroke-width="1" opacity="0.9333333333333333" d="M 140.5 127 Q 142.5 127.5 142 130.5 L 139.5 132 L 139 128.5 L 140.5 127 Z " /><path fill="rgb(0,0,0)" stroke="rgb(0,0,0)" stroke-width="1" opacity="0.9333333333333333" d="M 146.5 127 L 149 128.5 L 149 130.5 L 146.5 134 L 145 133.5 L 144 130.5 L 146.5 127 Z " /><path fill="rgb(0,0,0)" stroke="rgb(0,0,0)" stroke-width="1" opacity="0.9333333333333333" d="M 151.5 135 L 153 135.5 L 152.5 141 L 150 139.5 L 151.5 135 Z " /><path fill="rgb(0,0,0)" stroke="rgb(0,0,0)" stroke-width="1" opacity="0.9333333333333333" d="M 134.5 139 L 137 139.5 Q 138 144 135.5 145 L 133 143.5 Q 132.3 139.8 134.5 139 Z " /><path fill="rgb(0,0,0)" stroke="rgb(0,0,0)" stroke-width="1" opacity="0.9333333333333333" d="M 144.5 140 L 146 140.5 L 147 145.5 L 144.5 146 L 143 142.5 L 144.5 140 Z " /><path fill="rgb(0,0,0)" stroke="rgb(0,0,0)" stroke-width="1" opacity="0.9333333333333333" d="M 161.5 141 Q 163.5 141.5 163 144.5 L 161.5 145 L 160 142.5 L 161.5 141 Z " /><path fill="rgb(0,0,0)" stroke="rgb(0,0,0)" stroke-width="1" opacity="0.9333333333333333" d="M 141.5 152 L 144 153.5 Q 144.5 157.5 141.5 158 Q 139.3 157.3 140 153.5 L 141.5 152 Z " /><path fill="rgb(0,0,0)" stroke="rgb(0,0,0)" stroke-width="1" opacity="0.9333333333333333" d="M 156.5 152 Q 158.9 154.1 158 159.5 L 155.5 161 Q 153.3 159.3 154 154.5 L 156.5 152 Z " /><path fill="rgb(0,0,0)" stroke="rgb(0,0,0)" stroke-width="1" opacity="0.9333333333333333" d="M 163.5 152 L 166 153.5 Q 166.8 157.3 164.5 158 L 162 154.5 L 163.5 152 Z " /><path fill="rgb(0,0,0)" stroke="rgb(0,0,0)" stroke-width="1" opacity="0.9333333333333333" d="M 129.5 156 L 132 156.5 Q 133.3 161.8 130.5 163 L 129 162.5 L 129.5 156 Z " /><path fill="rgb(0,0,0)" stroke="rgb(0,0,0)" stroke-width="1" opacity="0.9333333333333333" d="M 150.5 161 Q 152.9 163.1 152 168.5 L 150.5 169 Q 147.8 167.8 149 162.5 L 150.5 161 Z " /><path fill="rgb(0,0,0)" stroke="rgb(0,0,0)" stroke-width="1" opacity="0.9333333333333333" d="M 136.5 164 Q 139 165 138 169.5 Q 137 172 136 170.5 L 135 166.5 L 136.5 164 Z " /><path fill="rgb(0,0,0)" stroke="rgb(0,0,0)" stroke-width="1" opacity="0.9333333333333333" d="M 160.5 166 L 163 167.5 Q 164.5 173.5 161.5 175 L 160 174.5 Q 158.2 172.3 159 167.5 L 160.5 166 Z " /><path fill="rgb(0,0,0)" stroke="rgb(0,0,0)" stroke-width="1" opacity="0.9333333333333333" d="M 169.5 166 L 172 167.5 L 173 171.5 L 170.5 173 L 168 169.5 L 168 167.5 L 169.5 166 Z " /><path fill="rgb(0,0,0)" stroke="rgb(0,0,0)" stroke-width="1" opacity="0.9333333333333333" d="M 129.5 174 L 131 174.5 L 130.5 182 L 129 181.5 L 129.5 174 Z " /><path fill="rgb(0,0,0)" stroke="rgb(0,0,0)" stroke-width="1" opacity="0.9333333333333333" d="M 142.5 176 L 144 176.5 L 143.5 182 L 141 180.5 Q 140.3 176.8 142.5 176 Z " /><path fill="rgb(0,0,0)" stroke="rgb(0,0,0)" stroke-width="1" opacity="0.9333333333333333" d="M 155.5 180 L 158 181.5 L 158 183.5 L 155.5 187 Q 153 186 154 181.5 L 155.5 180 Z " /><path fill="rgb(0,0,0)" stroke="rgb(0,0,0)" stroke-width="1" opacity="0.9333333333333333" d="M 123.5 182 Q 126 183 125 187.5 Q 123.5 190.5 122 187.5 Q 121 183 123.5 182 Z " /><path fill="rgb(0,0,0)" stroke="rgb(0,0,0)" stroke-width="1" opacity="0.9333333333333333" d="M 147.5 184 Q 150.5 183.5 151 185.5 L 149.5 189 L 147 188.5 L 147.5 184 Z " /><path fill="rgb(0,0,0)" stroke="rgb(0,0,0)" stroke-width="1" opacity="0.9333333333333333" d="M 164.5 186 Q 167.5 185.5 168 187.5 Q 168.8 191.3 166.5 192 Q 162.7 190.7 164.5 186 Z " /><path fill="rgb(0,0,0)" stroke="rgb(0,0,0)" stroke-width="1" opacity="0.9333333333333333" d="M 131.5 191 L 134 192.5 L 132.5 197 L 131 196.5 L 131.5 191 Z " /><path fill="rgb(0,0,0)" stroke="rgb(0,0,0)" stroke-width="1" opacity="0.9333333333333333" d="M 149.5 194 L 151 194.5 L 152 199.5 L 150.5 202 L 148 201.5 Q 146.5 195.5 149.5 194 Z " /><path fill="rgb(0,0,0)" stroke="rgb(0,0,0)" stroke-width="1" opacity="0.9333333333333333" d="M 120.5 196 Q 123 197 122 201.5 Q 120.5 204.5 119 201.5 Q 118.4 197.4 120.5 196 Z " /><path fill="rgb(0,0,0)" stroke="rgb(0,0,0)" stroke-width="1" opacity="0.9333333333333333" d="M 139.5 196 L 142 197.5 L 141.5 202 L 138 199.5 L 139.5 196 Z " /><path fill="rgb(0,0,0)" stroke="rgb(0,0,0)" stroke-width="1" opacity="0.9333333333333333" d="M 159.5 199 L 162 199.5 Q 163 204 160.5 205 L 158 203.5 L 159.5 199 Z " /><path fill="rgb(0,0,0)" stroke="rgb(0,0,0)" stroke-width="1" opacity="0.9333333333333333" d="M 169.5 200 L 172 203.5 L 172 205.5 L 169.5 208 L 168 206.5 Q 166.8 201.3 169.5 200 Z " /><path fill="rgb(0,0,0)" stroke="rgb(0,0,0)" stroke-width="1" opacity="0.9333333333333333" d="M 130.5 207 L 133 207.5 L 131.5 212 L 129 208.5 L 130.5 207 Z " /><path fill="rgb(0,0,0)" stroke="rgb(0,0,0)" stroke-width="1" opacity="0.9333333333333333" d="M 153.5 208 L 155 208.5 L 156 211.5 L 153.5 213 L 152 210.5 L 153.5 208 Z " /><path fill="rgb(0,0,0)" stroke="rgb(0,0,0)" stroke-width="1" opacity="0.9333333333333333" d="M 163.5 208 L 166 210.5 L 164.5 212 L 163 211.5 L 163.5 208 Z " /><path fill="rgb(0,0,0)" stroke="rgb(0,0,0)" stroke-width="1" opacity="0.9333333333333333" d="M 120.5 212 L 123 212.5 Q 123.6 216.6 121.5 218 L 120 217.5 L 120.5 212 Z " /><path fill="rgb(0,0,0)" stroke="rgb(0,0,0)" stroke-width="1" opacity="0.9333333333333333" d="M 114.5 254 L 134.5 254 L 140.5 256 L 162.5 267 L 175 276.5 L 176 279.5 L 143 324.5 L 119 352.5 L 115 358.5 L 104.5 369 L 100.5 368 L 90.5 360 L 72 341.5 L 66 330.5 L 63 321.5 L 62 311.5 L 61 310.5 L 61 296.5 L 65 284.5 L 75.5 273 L 85.5 265 L 94.5 260 L 96.5 260 L 105.5 256 L 113.5 255 L 114.5 254 Z M 114 259 L 113 260 L 109 260 L 108 261 L 105 261 L 99 263 Q 88 267 81 274 L 70 287 L 66 298 L 66 312 L 67 313 L 67 316 L 69 322 L 80 341 L 90 353 L 102 362 L 106 362 L 147 313 Q 156 297 168 284 L 170 279 L 163 273 L 138 261 L 130 260 L 129 259 L 114 259 Z " /><path fill="rgb(0,0,0)" stroke="rgb(0,0,0)" stroke-width="1" opacity="0.9333333333333333" d="M 329.5 270 L 330 273.5 L 325.5 281 L 325 277.5 L 327 272.5 L 329.5 270 Z " /><path fill="rgb(0,0,0)" stroke="rgb(0,0,0)" stroke-width="1" opacity="0.9333333333333333" d="M 336.5 270 L 337 276.5 L 333.5 282 L 331 281.5 Q 332.3 274.3 336.5 270 Z " /><path fill="rgb(0,0,0)" stroke="rgb(0,0,0)" stroke-width="1" opacity="0.9333333333333333" d="M 345.5 270 L 346 272.5 L 341 281.5 L 335.5 287 L 335 284.5 L 341 274.5 L 345.5 270 Z " /><path fill="rgb(0,0,0)" stroke="rgb(0,0,0)" stroke-width="1" opacity="0.9333333333333333" d="M 351.5 271 L 353 271.5 L 353 274.5 L 350 280.5 L 343.5 289 L 342 288.5 Q 345.4 278.4 351.5 271 Z " /><path fill="rgb(0,0,0)" stroke="rgb(0,0,0)" stroke-width="1" opacity="0.9333333333333333" d="M 241.5 272 L 242 275.5 L 234.5 285 L 232 284.5 Q 234.6 277.6 239.5 273 L 241.5 272 Z " /><path fill="rgb(0,0,0)" stroke="rgb(0,0,0)" stroke-width="1" opacity="0.9333333333333333" d="M 251.5 272 L 253 272.5 Q 251.6 280.1 246.5 284 L 245 281.5 L 248 275.5 L 251.5 272 Z " /><path fill="rgb(0,0,0)" stroke="rgb(0,0,0)" stroke-width="1" opacity="0.9333333333333333" d="M 360.5 273 L 363 273.5 L 352 293.5 L 345.5 302 L 345 299.5 L 350 289.5 L 360.5 273 Z " /><path fill="rgb(0,0,0)" stroke="rgb(0,0,0)" stroke-width="1" opacity="0.9333333333333333" d="M 373.5 273 L 375 273.5 L 366 289.5 L 353.5 306 L 353 303.5 L 373.5 273 Z " /><path fill="rgb(0,0,0)" stroke="rgb(0,0,0)" stroke-width="1" opacity="0.9333333333333333" d="M 216.5 274 L 218 274.5 L 190 316.5 L 186.5 320 L 185 319.5 L 187 314.5 L 195 302.5 L 198 299.5 L 212 278.5 L 216.5 274 Z " /><path fill="rgb(0,0,0)" stroke="rgb(0,0,0)" stroke-width="1" opacity="0.9333333333333333" d="M 224.5 274 L 227 274.5 L 221 284.5 L 207.5 302 L 207 298.5 L 224.5 274 Z " /><path fill="rgb(0,0,0)" stroke="rgb(0,0,0)" stroke-width="1" opacity="0.9333333333333333" d="M 231.5 274 L 233 274.5 Q 228.8 285.3 221.5 293 L 220 292.5 Q 223.7 281.2 231.5 274 Z " /><path fill="rgb(0,0,0)" stroke="rgb(0,0,0)" stroke-width="1" opacity="0.9333333333333333" d="M 185.5 359 L 188 359.5 Q 188.8 364.3 185.5 365 Q 183.3 364.3 184 360.5 L 185.5 359 Z " /><path fill="rgb(0,0,0)" stroke="rgb(0,0,0)" stroke-width="1" opacity="0.9333333333333333" d="M 176.5 360 L 179 360.5 Q 179.8 365.3 177.5 367 L 175 365.5 Q 174 361 176.5 360 Z " /><path fill="rgb(0,0,0)" stroke="rgb(0,0,0)" stroke-width="1" opacity="0.9333333333333333" d="M 314.5 362 L 317.5 363 L 320 365.5 L 320 369.5 L 316.5 373 Q 311.3 374.3 310 371.5 Q 308.9 365.4 311.5 363 L 314.5 362 Z M 315 365 L 313 368 L 315 370 Q 317 369 316 366 L 315 365 Z " /><path fill="rgb(0,0,0)" stroke="rgb(0,0,0)" stroke-width="1" opacity="0.9333333333333333" d="M 294.5 366 Q 300.8 364.8 302 368.5 Q 301.8 373.3 298.5 375 L 293.5 376 Q 290 375 291 369.5 L 294.5 366 Z M 297 368 L 294 371 L 295 372 Q 298 373 298 371 L 297 368 Z " /><path fill="rgb(0,0,0)" stroke="rgb(0,0,0)" stroke-width="1" opacity="0.9333333333333333" d="M 346.5 366 Q 356.3 364.3 359 369.5 L 360 372.5 L 359 375.5 L 356.5 378 L 353.5 380 L 346.5 381 L 345.5 382 L 340.5 380 L 338 377.5 L 337 374.5 L 342.5 368 L 346.5 366 Z M 350 368 L 344 371 L 340 375 L 341 377 L 345 377 L 353 373 L 355 370 Q 354 367 350 368 Z M 355 375 L 348 378 L 348 379 L 351 379 L 355 377 L 355 375 Z " /><path fill="rgb(0,0,0)" stroke="rgb(0,0,0)" stroke-width="1" opacity="0.9333333333333333" d="M 277.5 368 L 280.5 368 L 284 369.5 L 285 372.5 L 282.5 376 Q 280.7 377.7 276.5 377 L 273 374.5 Q 272.3 369.8 275.5 369 L 277.5 368 Z M 279 371 L 278 374 L 280 374 L 281 372 L 279 371 Z " /><path fill="rgb(0,0,0)" stroke="rgb(0,0,0)" stroke-width="1" opacity="0.9333333333333333" d="M 242.5 370 Q 248.8 368.8 250 372.5 Q 251 378 247.5 379 Q 243 380 242 377.5 L 241 372.5 L 242.5 370 Z M 246 373 L 245 376 L 246 376 L 246 373 Z " /><path fill="rgb(0,0,0)" stroke="rgb(0,0,0)" stroke-width="1" opacity="0.9333333333333333" d="M 259.5 371 L 265.5 371 L 267 372.5 Q 268 378 264.5 379 L 258 378.5 L 257 374.5 L 259.5 371 Z M 263 373 L 261 376 L 263 376 Q 266 375 263 373 Z " /><path fill="rgb(0,0,0)" stroke="rgb(0,0,0)" stroke-width="1" opacity="0.9333333333333333" d="M 366.5 379 Q 375.2 377.3 378 381.5 L 379 385.5 L 373.5 392 Q 370.7 394.2 364.5 393 L 361 389.5 L 361 384.5 L 364.5 380 L 366.5 379 Z M 369 381 L 366 383 L 363 388 L 365 390 L 370 390 L 374 388 Q 376 387 375 383 Q 374 380 369 381 Z " /><path fill="rgb(0,0,0)" stroke="rgb(0,0,0)" stroke-width="1" opacity="0.9333333333333333" d="M 390.5 383 Q 395.3 382.3 396 385.5 L 397 389.5 L 396 392.5 L 390.5 398 L 384.5 400 L 380 396.5 L 379 392.5 L 383.5 387 L 390.5 383 Z M 391 386 L 387 388 L 382 394 Q 382 397 384 397 L 389 397 L 392 395 Q 395 393 394 388 L 391 386 Z " /><path fill="rgb(0,0,0)" stroke="rgb(0,0,0)" stroke-width="1" opacity="0.9333333333333333" d="M 334.5 386 L 343.5 387 L 349 391.5 Q 349.5 395.5 346.5 396 L 341.5 398 L 331.5 399 L 328.5 398 L 326 395.5 Q 324.8 389.3 328.5 388 L 334.5 386 Z M 339 388 L 330 391 Q 328 392 328 395 L 332 397 L 338 397 L 342 395 L 345 391 L 344 389 L 339 388 Z " /><path fill="rgb(0,0,0)" stroke="rgb(0,0,0)" stroke-width="1" opacity="0.9333333333333333" d="M 225.5 391 L 234.5 391 L 239 394.5 Q 239.5 397.5 237.5 398 L 230.5 402 L 223.5 403 L 220 400.5 L 219 396.5 L 221.5 393 L 225.5 391 Z M 227 393 L 222 399 L 226 401 L 233 399 L 236 396 Q 234 392 227 393 Z " /><path fill="rgb(0,0,0)" stroke="rgb(0,0,0)" stroke-width="1" opacity="0.9333333333333333" d="M 308.5 393 L 313.5 394 L 318 398.5 Q 319.5 407.5 314.5 410 L 310.5 412 L 306.5 412 L 303.5 411 L 301 408.5 L 300 404.5 Q 301.7 403.8 301 400.5 L 304.5 395 L 308.5 393 Z M 309 395 L 307 396 L 303 402 L 304 407 L 309 409 L 315 406 Q 316 400 314 398 L 311 395 L 309 395 Z " /><path fill="rgb(0,0,0)" stroke="rgb(0,0,0)" stroke-width="1" opacity="0.9333333333333333" d="M 361.5 396 L 365.5 396 L 372 400.5 L 372 402.5 L 368.5 407 L 359.5 410 L 350 410.5 L 347.5 414 L 342.5 416 L 332.5 416 L 331 414.5 L 330 408.5 L 333.5 404 L 337.5 402 L 345.5 402 Q 346 404.5 349.5 404 L 353.5 399 L 361.5 396 Z M 360 400 L 357 402 L 355 405 Q 355 407 357 408 L 362 408 L 365 407 Q 368 406 367 402 Q 365 399 360 400 Z M 338 404 L 336 405 L 333 409 Q 332 413 336 414 L 340 414 L 343 412 L 346 409 L 346 407 Q 344 403 338 404 Z " /><path fill="rgb(0,0,0)" stroke="rgb(0,0,0)" stroke-width="1" opacity="0.9333333333333333" d="M 253.5 400 Q 265 398 268 404.5 L 268 409.5 L 264.5 414 L 257.5 416 L 254.5 415 L 251 411.5 L 249 405.5 L 251.5 401 L 253.5 400 Z M 256 401 L 253 404 L 253 411 L 256 413 Q 264 413 266 408 L 265 404 L 261 401 L 256 401 Z " /><path fill="rgb(0,0,0)" stroke="rgb(0,0,0)" stroke-width="1" opacity="0.9333333333333333" d="M 235.5 405 Q 240.9 404.1 243 406.5 L 245 414.5 L 243 419.5 L 240.5 422 Q 237.7 424.2 231.5 423 L 227 418.5 L 227 411.5 L 229.5 408 L 235.5 405 Z M 238 407 L 234 409 L 230 416 L 231 420 L 237 420 L 240 419 L 242 416 Q 243 411 241 409 L 238 407 Z " /><path fill="rgb(0,0,0)" stroke="rgb(0,0,0)" stroke-width="1" opacity="0.9333333333333333" d="M 321.5 410 L 326 411.5 L 329 418.5 L 322.5 424 L 319.5 425 L 314.5 425 Q 311.3 423.3 311 418.5 L 316.5 412 L 321.5 410 Z M 319 414 L 316 417 Q 317 420 315 421 L 316 423 L 320 423 L 325 421 L 326 418 L 325 415 L 319 414 Z " /><path fill="rgb(0,0,0)" stroke="rgb(0,0,0)" stroke-width="1" opacity="0.9333333333333333" d="M 275.5 414 L 278 414.5 L 279 416.5 L 278 419.5 L 274.5 423 L 273 423.5 L 281.5 425 L 286 428.5 Q 286.5 431.5 284.5 432 L 274.5 436 L 263.5 436 Q 260.8 434.8 262 429.5 L 264 427.5 L 263.5 427 L 258.5 426 L 257 424.5 Q 256.5 420.5 259.5 420 L 265.5 417 L 271.5 415 L 274.5 415 L 275.5 414 Z M 272 417 L 264 420 L 261 423 L 263 425 L 268 424 L 274 421 L 275 419 L 272 417 Z M 273 426 L 269 428 L 265 432 L 268 434 L 274 434 L 279 432 L 282 428 L 275 427 L 273 426 Z " /><path fill="rgb(0,0,0)" stroke="rgb(0,0,0)" stroke-width="1" opacity="0.9333333333333333" d="M 296.5 416 L 302.5 416 L 308 420.5 L 304.5 425 L 298.5 427 L 288.5 427 L 288 420.5 L 296.5 416 Z M 297 419 Q 296 421 292 420 L 289 423 L 291 425 L 300 425 L 303 424 L 305 421 L 301 419 L 297 419 Z " /><path fill="rgb(0,0,0)" stroke="rgb(0,0,0)" stroke-width="1" opacity="0.9333333333333333" d="M 213.5 417 Q 220.8 415.8 223 419.5 Q 224.8 421.7 224 426.5 L 218.5 432 Q 216.3 433.8 211.5 433 L 209 431.5 L 207 425.5 L 209 420.5 L 211.5 418 L 213.5 417 Z M 216 419 L 210 424 Q 209 430 213 431 Q 219 430 221 426 L 220 421 L 216 419 Z " /><path fill="rgb(0,0,0)" stroke="rgb(0,0,0)" stroke-width="1" opacity="0.9333333333333333" d="M 404.5 424 Q 409 423 410 425.5 L 410 440.5 L 411 441.5 L 411 522.5 L 409.5 525 L 396.5 529 L 373.5 539 L 346.5 548 L 343.5 550 L 328.5 555 L 325.5 555 L 315.5 559 L 312.5 559 L 305.5 562 L 302.5 562 L 294.5 565 L 291.5 565 L 273.5 571 L 260.5 577 L 254.5 577 L 253 574.5 L 253 563.5 L 252 562.5 L 252 542.5 L 251 541.5 L 251 482.5 L 252 481.5 L 252 468.5 L 253.5 467 L 265.5 463 L 268.5 463 L 272.5 461 L 275.5 461 L 283.5 458 L 286.5 458 L 294.5 455 L 297.5 455 L 305.5 452 L 308.5 452 L 312.5 450 L 315.5 450 L 319.5 448 L 322.5 448 L 326.5 446 L 329.5 446 L 333.5 444 L 336.5 444 L 340.5 442 L 343.5 442 L 347.5 440 L 350.5 440 L 354.5 438 L 357.5 438 L 361.5 436 L 364.5 436 L 368.5 434 L 371.5 434 L 379.5 431 L 386.5 430 L 404.5 424 Z M 397 434 L 388 437 L 385 437 L 384 438 L 381 438 L 380 439 L 377 439 L 376 440 L 373 440 L 372 441 L 369 441 L 366 443 L 366 451 Q 368 452 367 457 L 368 458 L 368 463 L 370 469 L 370 473 L 371 474 L 371 478 L 372 479 L 372 483 L 373 484 L 373 490 L 374 491 L 374 501 L 372 505 L 368 509 L 359 512 L 356 512 L 355 513 L 351 513 L 350 514 L 344 514 L 336 510 L 331 502 L 331 493 L 329 487 L 329 483 L 328 482 L 328 478 L 327 477 L 327 473 L 326 472 L 326 468 L 325 467 L 324 456 L 323 454 L 320 454 L 316 456 L 313 456 L 298 461 L 295 461 L 291 463 L 284 464 L 280 466 L 260 470 L 258 472 L 258 498 L 257 499 L 257 513 L 258 514 L 258 552 L 259 553 L 259 566 L 261 569 L 264 569 L 267 567 L 273 566 L 277 564 L 280 564 L 284 562 L 299 559 L 300 558 L 303 558 L 304 557 L 307 557 L 318 553 L 321 553 L 345 545 L 348 543 L 363 538 L 368 535 L 370 535 L 375 532 L 377 532 L 382 529 L 384 529 L 389 526 L 391 526 L 396 523 L 398 523 L 403 520 L 405 520 L 405 514 L 406 513 L 406 494 L 407 493 L 407 474 L 406 473 L 406 460 L 405 459 L 405 453 Q 403 451 404 447 L 403 446 L 402 435 L 397 434 Z M 357 444 L 356 445 L 352 445 L 347 447 L 344 447 L 340 449 L 337 449 L 333 451 L 330 451 L 328 453 L 329 456 L 329 461 L 330 462 L 330 467 L 331 468 L 331 472 L 332 473 L 332 477 L 333 478 L 333 483 L 334 484 L 334 489 L 335 490 L 335 494 L 336 495 L 336 499 L 337 500 L 338 506 L 343 509 L 353 509 L 354 508 L 360 508 L 364 506 L 364 504 Q 360 503 360 505 L 350 505 L 348 504 L 343 498 L 343 481 L 344 478 L 351 472 L 359 472 L 363 477 L 365 483 L 365 493 L 368 500 L 369 500 L 369 487 L 368 486 L 368 480 L 367 479 L 367 475 L 366 474 L 366 470 L 365 469 L 365 465 L 364 464 L 364 460 L 363 459 L 363 455 L 362 454 L 362 449 L 361 446 L 357 444 Z M 353 475 L 351 476 L 348 479 L 347 482 L 348 487 L 358 486 L 359 485 Q 360 479 358 477 Q 357 474 353 475 Z M 355 489 Q 354 491 351 490 L 347 493 L 348 499 L 352 502 L 360 501 L 362 499 L 360 490 L 355 489 Z " /><path fill="rgb(0,0,0)" stroke="rgb(0,0,0)" stroke-width="1" opacity="0.9333333333333333" d="M 241.5 428 L 247.5 428 L 253 432.5 L 254 435.5 L 248.5 442 L 244.5 444 L 236.5 444 Q 231.5 442.5 233 434.5 Q 236 430 241.5 428 Z M 244 430 L 242 431 L 236 438 L 237 442 L 244 442 Q 248 440 251 437 L 250 432 Q 248 429 244 430 Z " /><path fill="rgb(0,0,0)" stroke="rgb(0,0,0)" stroke-width="1" opacity="0.9333333333333333" d="M 348.5 454 L 353 454.5 L 350.5 458 L 347.5 459 L 339.5 459 Q 338 458 340.5 457 L 342.5 457 L 348.5 454 Z " /><path fill="rgb(0,0,0)" stroke="rgb(0,0,0)" stroke-width="1" opacity="0.9333333333333333" d="M 445.5 457 L 457.5 457 L 458.5 458 L 462.5 458 L 468.5 460 L 485.5 468 L 495.5 474 L 511.5 474 L 512.5 473 L 521.5 473 Q 522.5 471 526.5 472 L 533.5 469 L 541.5 468 L 542.5 467 L 548.5 467 L 552 469.5 L 550.5 472 L 540.5 476 L 536.5 476 L 530.5 478 L 523.5 478 L 522.5 479 L 498.5 479 L 497.5 478 L 490.5 477 L 478.5 473 L 457.5 464 L 442.5 464 L 439.5 465 L 438 462.5 L 441.5 458 Q 444.8 458.8 445.5 457 Z " /><path fill="rgb(0,0,0)" stroke="rgb(0,0,0)" stroke-width="1" opacity="0.9333333333333333" d="M 86.5 458 Q 92.5 456.5 94 459.5 L 93.5 462 L 81.5 465 L 73.5 469 L 65.5 476 L 52.5 481 L 13.5 481 L 12.5 480 L 2.5 480 L 0 478.5 L 2.5 476 L 46.5 476 L 57.5 472 L 74.5 461 L 80.5 459 L 85.5 459 L 86.5 458 Z " /><path fill="rgb(0,0,0)" stroke="rgb(0,0,0)" stroke-width="1" opacity="0.9333333333333333" d="M 468.5 499 L 484.5 499 L 485.5 500 L 488.5 500 L 503.5 505 L 506.5 507 L 515.5 508 L 516.5 509 L 528.5 509 L 530 510.5 L 526.5 513 L 508.5 513 L 507.5 512 L 503.5 512 L 483.5 505 L 473.5 505 L 465.5 508 L 454.5 509 L 454 506.5 L 460.5 502 L 468.5 499 Z " /><path fill="rgb(0,0,0)" stroke="rgb(0,0,0)" stroke-width="1" opacity="0.9333333333333333" d="M 65.5 515 L 85.5 515 Q 86.5 517 90.5 516 L 94 518.5 L 91.5 522 Q 88.3 521.3 87.5 523 L 81.5 523 L 80.5 524 L 60.5 524 L 52.5 527 Q 49.2 526.3 48.5 528 L 41.5 528 L 40.5 529 L 17.5 529 L 17 526.5 L 20.5 524 L 27.5 524 L 28.5 523 L 39.5 522 L 40.5 521 L 44.5 521 L 45.5 520 L 49.5 520 L 50.5 519 L 58.5 518 L 65.5 515 Z " /><path fill="rgb(0,0,0)" stroke="rgb(0,0,0)" stroke-width="1" opacity="0.9333333333333333" d="M 405.5 554 L 417.5 554 L 418.5 555 L 423.5 555 L 424.5 556 L 434.5 557 L 435.5 558 L 438.5 558 L 439.5 559 L 442.5 559 L 448.5 561 L 456.5 565 L 459.5 565 L 462 567.5 L 448.5 568 L 431.5 560 L 391.5 560 L 390 558.5 L 390.5 557 Q 392.3 555.3 396.5 556 L 397.5 555 L 404.5 555 L 405.5 554 Z " /><path fill="rgb(0,0,0)" stroke="rgb(0,0,0)" stroke-width="1" opacity="0.9333333333333333" d="M 120.5 556 L 133.5 556 Q 134.8 558.2 139.5 557 L 146 560.5 L 145.5 563 L 126.5 562 L 117.5 567 L 115.5 567 L 112.5 569 L 105.5 570 L 104.5 571 L 96.5 571 L 95.5 572 L 76.5 572 L 75.5 571 L 70.5 571 L 67.5 570 L 57 564.5 L 57.5 563 L 61.5 562 L 62.5 563 L 69.5 563 L 81.5 567 L 90.5 567 L 94.5 565 L 97.5 565 L 106.5 562 L 120.5 556 Z " /><path fill="rgb(0,0,0)" stroke="rgb(0,0,0)" stroke-width="1" opacity="0.9333333333333333" d="M 351.5 571 L 367.5 571 L 368.5 572 L 372.5 572 L 373.5 573 L 380.5 574 L 393.5 579 L 400.5 579 L 402 580.5 L 401.5 582 L 399.5 583 L 384.5 583 L 363.5 576 L 354.5 575 L 345.5 578 L 341.5 578 L 341 575.5 L 346.5 572 Q 350.5 573 351.5 571 Z " /><path fill="rgb(0,0,0)" stroke="rgb(0,0,0)" stroke-width="1" opacity="0.9333333333333333" d="M 312.5 586 L 323.5 586 L 324.5 587 L 331.5 588 L 340.5 592 Q 345.3 590.8 346.5 593 L 355.5 593 L 362 595.5 L 354.5 598 L 348.5 598 L 347.5 597 L 338.5 596 L 332.5 593 L 326.5 591 L 323.5 591 L 322.5 590 L 312.5 590 L 311.5 591 L 307.5 591 L 306.5 592 L 300.5 593 Q 296.3 596.8 289.5 598 Q 287.5 597.5 288 594.5 L 290.5 592 L 297.5 589 L 300.5 589 L 305.5 587 L 311.5 587 L 312.5 586 Z " /><path fill="rgb(0,0,0)" stroke="rgb(0,0,0)" stroke-width="1" opacity="0.9333333333333333" d="M 319.5 618 L 335.5 619 L 336.5 620 L 341.5 620 L 342.5 621 L 351.5 622 L 352.5 623 L 363.5 625 L 367.5 627 L 370.5 627 L 379.5 630 L 383.5 630 L 389.5 632 L 395.5 632 L 396.5 633 L 402.5 633 Q 403.3 634.7 406.5 634 L 410 636.5 L 409.5 639 L 407.5 640 L 387.5 640 L 378.5 636 L 373.5 635 L 370.5 633 L 358.5 629 L 355.5 629 L 351.5 627 L 347.5 627 L 346.5 626 L 338.5 625 L 337.5 624 L 332.5 624 L 331.5 623 L 316.5 623 L 315.5 624 L 312.5 624 L 308.5 626 L 302.5 627 L 302 624.5 L 306.5 621 L 312.5 620 L 313.5 619 L 318.5 619 L 319.5 618 Z " /><path fill="rgb(0,0,0)" stroke="rgb(0,0,0)" stroke-width="1" opacity="0.00784313725490196" d="M 0.5 0 L 98 0.5 L 88.5 3 L 76.5 10 L 69.5 10 L 68.5 9 L 58.5 9 L 57.5 10 L 51.5 11 L 46 16.5 L 45 22.5 L 46 25.5 L 51 31.5 L 42.5 36 L 34 43.5 Q 31 46.5 31 52.5 L 37.5 60 L 39 60.5 L 33 65.5 L 30 70.5 L 30 76.5 L 34.5 81 L 42 85.5 Q 40.9 91.6 43.5 94 L 56.5 94 Q 57.2 92.3 60.5 93 Q 62.1 98.4 66.5 101 L 68 101.5 L 68 106.5 L 67 107.5 L 67 110.5 L 62 125.5 L 60 128.5 L 58 136.5 L 56 139.5 L 51 154.5 L 48 159.5 L 48 161.5 L 44 168.5 L 44 170.5 L 38 183.5 L 35 192.5 L 35 195.5 L 33 199.5 L 32 206.5 L 31 207.5 L 31 211.5 L 30 212.5 L 29 221.5 L 28 222.5 L 28 230.5 L 27 231.5 L 27 248.5 L 26 249.5 L 26 277.5 L 25 278.5 L 25 294.5 L 24 295.5 L 24 303.5 L 23 304.5 L 23 309.5 L 22 310.5 L 22 314.5 L 21 315.5 L 21 319.5 L 18 327.5 L 18 330.5 L 1 379.5 L 0.5 393 L 0.5 0 Z " /><path fill="rgb(0,0,0)" stroke="rgb(0,0,0)" stroke-width="1" opacity="0.00784313725490196" d="M 109.5 0 L 552 0.5 L 551.5 469 Q 549.2 465.8 542.5 467 L 541.5 468 L 537.5 468 L 536.5 469 L 533.5 469 L 521.5 473 L 512.5 473 L 511.5 474 L 495.5 474 L 485.5 468 L 468.5 460 L 462.5 458 L 458.5 458 L 457.5 457 L 445.5 457 Q 444.8 458.8 441.5 458 L 439 460.5 L 438 463.5 Q 438.5 465.5 441.5 465 L 442.5 464 L 457.5 464 L 478.5 473 L 490.5 477 L 497.5 478 L 498.5 479 L 522.5 479 L 523.5 478 L 530.5 478 L 531.5 477 L 540.5 476 L 551.5 471 L 552 639.5 L 408.5 640 L 408.5 639 L 410 638.5 Q 410.5 635.5 408.5 635 L 402.5 633 L 396.5 633 L 395.5 632 L 389.5 632 L 388.5 631 L 379.5 630 L 378.5 629 L 367.5 627 L 363.5 625 L 360.5 625 L 351.5 622 L 347.5 622 L 346.5 621 L 342.5 621 L 341.5 620 Q 336.7 621.3 335.5 619 L 327.5 619 L 326.5 618 L 319.5 618 L 318.5 619 L 313.5 619 L 312.5 620 L 306.5 621 L 302 624.5 L 302.5 627 L 308.5 626 L 316.5 623 L 331.5 623 L 332.5 624 L 337.5 624 L 338.5 625 L 342.5 625 L 343.5 626 L 358.5 629 L 387 639.5 L 0.5 640 L 0 479.5 L 1.5 479 L 2.5 480 L 12.5 480 L 13.5 481 L 52.5 481 L 65.5 476 L 73.5 469 L 81.5 465 L 94 461.5 Q 94.5 458.5 92.5 458 L 86.5 458 L 85.5 459 L 80.5 459 L 74.5 461 L 57.5 472 L 46.5 476 L 2.5 476 L 0.5 478 L 0 416.5 Q 1 415 2 417.5 Q 4 423 8.5 426 Q 12.5 425 13.5 427 Q 14.5 425 18.5 426 L 23.5 422 L 24 429.5 L 23 430.5 L 23 439.5 Q 25.3 440.8 24 445.5 L 28.5 453 L 35.5 456 L 38.5 456 L 41.5 455 L 45 451.5 L 56.5 433 L 69 432.5 L 74 421.5 L 76 411.5 L 77 410.5 L 78 400.5 L 79 399.5 L 79 386.5 L 80.5 385 L 90.5 394 L 108 404.5 L 108 412.5 L 107 413.5 L 107 428.5 L 106 429.5 L 106 450.5 L 105 451.5 L 105 484.5 L 104 485.5 L 104 511.5 L 105 512.5 L 105 522.5 L 106.5 524 L 122.5 535 L 159.5 565 L 181.5 581 L 208.5 598 L 226.5 607 L 227.5 606 L 230.5 606 L 237.5 603 L 240.5 603 L 258.5 597 L 265.5 596 L 286.5 589 L 313.5 577 L 324.5 574 L 327.5 572 L 375.5 556 L 390.5 549 L 392.5 549 L 399.5 545 L 401.5 545 L 406.5 542 L 408.5 542 L 413.5 539 L 415.5 539 L 425.5 534 L 427.5 534 L 431 531.5 L 431 525.5 L 432 524.5 L 432 494.5 L 431 493.5 L 431 469.5 L 430 468.5 L 430 451.5 L 429 450.5 L 429 435.5 L 428 434.5 L 428 422.5 L 427 421.5 L 427 413.5 L 426 412.5 L 426 404.5 Q 423.8 403.3 425 398.5 L 421.5 394 L 416.5 392 L 409.5 391 L 408.5 390 L 399.5 390 L 399 391.5 L 402.5 394 L 406.5 394 L 411 395.5 L 410.5 397 L 361.5 414 L 358.5 414 L 345.5 419 L 342.5 419 L 332.5 423 L 329.5 423 L 302.5 432 L 295.5 433 L 291.5 435 L 288.5 435 L 287.5 436 L 284.5 436 L 283.5 437 L 280.5 437 L 279.5 438 L 276.5 438 L 275.5 439 L 272.5 439 L 271.5 440 L 268.5 440 L 267.5 441 L 264.5 441 L 255.5 444 L 252.5 444 L 251.5 445 L 247.5 445 L 246.5 446 L 235.5 448 L 211.5 436 L 209.5 436 L 202.5 432 L 200.5 432 L 193 428.5 L 200.5 425 L 206 419.5 Q 206.8 415.8 204.5 415 L 197 413.5 L 199.5 410 L 202.5 408 L 203 410.5 L 207.5 415 L 212.5 415 L 218 410.5 L 220 404.5 L 215.5 400 L 210.5 400 Q 208.8 402.8 204.5 403 L 201.5 400 Q 196.8 400.8 195 398.5 L 195 389.5 L 196.5 387 L 201.5 388 L 203 389.5 Q 202.3 393.3 204.5 394 Q 207 396 212.5 395 L 219 389.5 L 220 386.5 Q 217.7 382.8 213 381.5 Q 211.3 379.7 212 375.5 L 217 370.5 L 218 365.5 L 215.5 362 L 212.5 361 L 206 365.5 L 204 369.5 L 204 372.5 L 202.5 374 L 199 373.5 L 205 360.5 L 206 354.5 L 201.5 351 L 196.5 349 L 184.5 349 L 183.5 350 L 175.5 351 L 169.5 354 L 166 357.5 L 166 362.5 L 172 374.5 Q 178.2 380.8 182 389.5 L 183 397.5 L 184 398.5 L 184 409.5 L 175.5 410 L 175 408.5 Q 180.2 406.2 180 398.5 L 176.5 396 L 174.5 396 Q 169.7 397.7 167 401.5 L 165 404.5 L 165 409.5 L 169 412.5 L 166.5 417 L 153.5 413 L 150.5 411 L 148.5 411 L 145.5 409 L 143.5 409 L 140.5 407 L 138.5 407 L 135.5 405 L 123.5 401 L 120 398.5 L 125.5 396 L 136.5 394 L 137 395.5 Q 134.8 396.8 136 401.5 L 139.5 406 L 148.5 406 L 153 402.5 L 153 397.5 L 149 392.5 L 155.5 390 L 159.5 390 L 163.5 395 Q 167.7 395.7 169.5 394 L 175 388.5 Q 176.8 386.3 176 381.5 Q 174.5 377.5 167.5 379 L 157.5 386 L 117.5 394 L 117 392.5 L 122 387.5 L 161 337.5 L 184 310.5 L 204 282.5 L 214.5 271 Q 216.7 269.2 221.5 270 L 222.5 269 L 231.5 269 L 232.5 268 L 250.5 268 L 251.5 267 L 289.5 267 L 290.5 266 L 359.5 266 L 360.5 265 L 383.5 265 L 384.5 264 L 393.5 264 L 395.5 263 L 397 265.5 L 390 276.5 L 374 297.5 Q 355.8 317.3 340 339.5 L 331.5 348 L 329.5 349 L 327 346.5 L 327 336.5 Q 325 335.5 326 331.5 L 325 330.5 L 325 327.5 L 324 326.5 L 324 323.5 L 321 314.5 L 318.5 310 L 316.5 310 L 313 313.5 L 303.5 324 L 300 321.5 L 292.5 311 L 287.5 310 L 285 312.5 Q 282.6 320.6 277.5 326 L 273 322.5 Q 269.3 315.7 263.5 311 L 261 311.5 L 258 315.5 L 252.5 328 L 243.5 320 L 240.5 318 L 237.5 318 L 232 330.5 L 231 338.5 L 230 339.5 L 230 344.5 L 229 345.5 L 229 358.5 L 226.5 362 L 221 366.5 L 219 370.5 L 219 377.5 L 224.5 384 Q 226.3 385.7 230.5 385 L 232.5 384 L 243.5 394 L 248.5 396 L 275.5 396 L 277.5 395 L 278 404.5 L 281.5 409 L 284.5 410 Q 285.3 408.3 288.5 409 L 294 404.5 L 294 399.5 L 291.5 396 L 288 393.5 L 291.5 392 L 296.5 392 L 297.5 391 L 302.5 391 L 303.5 390 L 307.5 390 L 308.5 389 L 316.5 388 Q 321.3 386.3 324 382.5 L 327 376.5 L 328 368.5 L 329 367.5 L 329 363.5 L 330.5 361 Q 333.3 358.8 339.5 360 L 340.5 359 L 347.5 359 L 348.5 358 L 356.5 358 L 368.5 365 L 372.5 365 Q 378.3 362.8 381.5 358 L 383.5 358 L 388.5 361 L 390.5 361 L 391 358.5 L 394 354.5 L 390 349.5 L 394 344.5 L 392.5 343 L 389 342.5 L 389 339.5 L 391 336.5 L 391 334.5 L 386.5 334 L 380.5 338 L 374.5 333 L 364.5 333 L 358 338.5 L 357 342.5 L 353.5 346 L 344.5 347 L 344 344.5 L 381 298.5 L 405 263.5 L 407 259.5 L 407 256.5 Q 400.4 243.6 389.5 235 L 368.5 220 L 354.5 213 L 345.5 210 L 342.5 210 L 341.5 209 Q 336.7 210.3 335.5 208 L 327.5 208 L 326.5 207 L 312.5 207 L 311.5 206 L 265.5 206 L 264.5 207 L 250.5 207 L 249.5 208 L 241.5 208 L 240.5 209 L 225.5 210 L 224.5 211 L 210.5 211 L 209.5 212 L 201.5 212 L 201 207.5 Q 203.2 206.3 202 201.5 L 196.5 196 L 185.5 196 L 184 196.5 L 184 188.5 L 185 185.5 L 193 173.5 L 197 162.5 Q 196 158.5 198 157.5 L 198 136.5 L 192 118.5 Q 186.7 109.3 178.5 103 Q 173 101 170 96.5 L 170 93.5 L 172 88.5 L 178.5 81 L 185.5 78 L 197.5 78 L 206.5 81 L 214.5 81 L 221.5 78 L 225 74.5 L 227 70.5 L 227 66.5 Q 221.2 48.8 207.5 39 L 195.5 32 L 182.5 28 L 169.5 18 L 157.5 12 L 142.5 7 L 131.5 5 L 130.5 4 L 126.5 4 L 125.5 3 L 121.5 3 L 115.5 1 L 109.5 1 L 109.5 0 Z M 330 270 L 327 273 L 325 278 L 326 281 L 330 274 L 330 270 Z M 337 270 Q 332 274 331 282 L 334 282 L 337 277 L 337 270 Z M 346 270 L 341 275 L 335 285 L 336 287 L 341 282 L 346 273 L 346 270 Z M 352 271 Q 345 278 342 289 L 344 289 L 350 281 L 353 275 L 353 272 L 352 271 Z M 242 272 L 240 273 Q 235 278 232 285 L 235 285 L 242 276 L 242 272 Z M 252 272 L 248 276 L 245 282 L 247 284 Q 252 280 253 273 L 252 272 Z M 361 273 L 350 290 L 345 300 L 346 302 L 352 294 L 363 274 L 361 273 Z M 374 273 L 353 304 L 354 306 L 366 290 L 375 274 L 374 273 Z M 217 274 L 212 279 L 198 300 L 195 303 L 187 315 L 185 320 L 187 320 L 190 317 L 218 275 L 217 274 Z M 225 274 L 207 299 L 208 302 L 221 285 L 227 275 L 225 274 Z M 232 274 Q 224 281 220 293 L 222 293 Q 229 285 233 275 L 232 274 Z M 347 366 L 343 368 L 337 375 L 338 378 L 341 380 L 346 382 L 347 381 L 354 380 L 357 378 L 359 376 L 360 373 L 359 370 Q 356 364 347 366 Z M 367 379 L 365 380 L 361 385 L 361 390 L 365 393 Q 371 394 374 392 L 379 386 L 378 382 Q 375 377 367 379 Z M 391 383 L 384 387 L 379 393 L 380 397 L 385 400 L 391 398 L 396 393 L 397 390 L 396 386 Q 395 382 391 383 Z M 335 386 L 329 388 Q 325 389 326 396 L 329 398 L 332 399 L 342 398 L 347 396 Q 350 396 349 392 L 344 387 L 335 386 Z M 226 391 L 222 393 L 219 397 L 220 401 L 224 403 L 231 402 L 238 398 Q 240 398 239 395 L 235 391 L 226 391 Z M 309 393 L 305 395 L 301 401 Q 302 404 300 405 L 301 409 L 304 411 L 307 412 L 311 412 L 315 410 Q 320 408 318 399 L 314 394 L 309 393 Z M 362 396 L 354 399 L 350 404 Q 346 404 346 402 L 338 402 L 334 404 L 330 409 L 331 415 L 333 416 L 343 416 L 348 414 L 350 411 L 360 410 L 369 407 L 372 403 L 372 401 L 366 396 L 362 396 Z M 254 400 L 252 401 L 249 406 L 251 412 L 255 415 L 258 416 L 265 414 L 268 410 L 268 405 Q 265 398 254 400 Z M 236 405 L 230 408 L 227 412 L 227 419 L 232 423 Q 238 424 241 422 L 243 420 L 245 415 L 243 407 Q 241 404 236 405 Z M 322 410 L 317 412 L 311 419 Q 311 423 315 425 L 320 425 L 323 424 L 329 419 L 326 412 L 322 410 Z M 276 414 L 275 415 L 272 415 L 266 417 L 260 420 Q 257 421 257 425 L 259 426 L 264 427 L 264 428 L 262 430 Q 261 435 264 436 L 275 436 L 285 432 Q 287 432 286 429 L 282 425 L 273 424 L 275 423 L 278 420 L 279 417 L 278 415 L 276 414 Z M 297 416 L 288 421 L 289 427 L 299 427 L 305 425 L 308 421 L 303 416 L 297 416 Z M 214 417 L 212 418 L 209 421 L 207 426 L 209 432 L 212 433 Q 216 434 219 432 L 224 427 Q 225 422 223 420 Q 221 416 214 417 Z M 242 428 Q 236 430 233 435 Q 231 443 237 444 L 245 444 L 249 442 L 254 436 L 253 433 L 248 428 L 242 428 Z M 469 499 L 461 502 L 454 507 L 455 509 L 466 508 L 474 505 L 484 505 L 504 512 L 508 512 L 509 513 L 527 513 L 530 511 L 529 509 L 517 509 L 516 508 L 507 507 L 504 505 L 489 500 L 486 500 L 485 499 L 469 499 Z M 66 515 L 59 518 L 51 519 L 50 520 L 46 520 L 45 521 L 41 521 L 40 522 L 29 523 L 28 524 L 21 524 L 17 527 L 18 529 L 41 529 L 42 528 L 49 528 Q 49 526 53 527 L 61 524 L 81 524 L 82 523 L 88 523 Q 88 521 92 522 L 94 519 L 91 516 Q 86 517 86 515 L 66 515 Z M 406 554 L 405 555 L 398 555 L 397 556 Q 392 555 391 557 L 390 559 L 392 560 L 432 560 L 449 568 L 462 568 L 460 565 L 457 565 L 449 561 L 443 559 L 440 559 L 439 558 L 436 558 L 435 557 L 425 556 L 424 555 L 419 555 L 418 554 L 406 554 Z M 121 556 L 107 562 L 98 565 L 95 565 L 91 567 L 82 567 L 70 563 L 63 563 L 62 562 L 58 563 L 57 565 L 68 570 L 71 571 L 76 571 L 77 572 L 96 572 L 97 571 L 105 571 L 106 570 L 113 569 L 116 567 L 118 567 L 127 562 L 146 563 L 146 561 L 140 557 Q 135 558 134 556 L 121 556 Z M 352 571 Q 351 573 347 572 L 341 576 L 342 578 L 346 578 L 355 575 L 364 576 L 385 583 L 400 583 L 402 582 L 402 581 L 401 579 L 394 579 L 381 574 L 374 573 L 373 572 L 369 572 L 368 571 L 352 571 Z M 313 586 L 312 587 L 306 587 L 301 589 L 298 589 L 291 592 L 288 595 Q 288 598 290 598 Q 296 597 301 593 L 307 592 L 308 591 L 312 591 L 313 590 L 323 590 L 324 591 L 327 591 L 333 593 L 339 596 L 348 597 L 349 598 L 355 598 L 362 596 L 356 593 L 347 593 Q 345 591 341 592 L 332 588 L 325 587 L 324 586 L 313 586 Z " /><path fill="rgb(0,0,0)" stroke="rgb(0,0,0)" stroke-width="1" opacity="0.00784313725490196" d="M 107.5 4 L 116.5 7 L 119.5 7 L 120.5 8 L 123.5 8 L 124.5 9 L 132.5 10 L 133.5 11 L 141.5 12 L 147.5 14 L 174 27.5 L 155.5 47 L 152.5 48 L 144 56.5 L 141 63.5 Q 135.5 67 133 73.5 L 132 76.5 L 132 85.5 L 135 92.5 L 138.5 96 L 146.5 99 Q 151.3 97.7 152.5 100 L 167 100.5 L 167 103.5 L 169 107.5 L 169 110.5 L 172 119.5 L 172 123.5 L 173 124.5 L 173 129.5 L 174 130.5 Q 172.8 135.3 175 136.5 L 175 143.5 L 176 144.5 L 176 151.5 L 177 152.5 L 177 161.5 L 178 162.5 L 178 176.5 L 179 177.5 L 179 197.5 L 178 198.5 L 178 206.5 Q 176.3 207.3 177 210.5 L 174.5 214 L 171.5 215 L 153.5 215 L 152.5 216 L 145.5 216 L 144 214.5 L 143.5 210 L 142 210.5 Q 143.3 216.8 139.5 218 L 133.5 219 L 132.5 220 L 128.5 220 L 127.5 221 L 122.5 221 L 121.5 222 L 112.5 223 L 111.5 224 L 108.5 224 L 107.5 225 L 104.5 225 L 95.5 228 L 95 226.5 L 101 218.5 L 107 206.5 L 112 191.5 L 113 184.5 L 114 183.5 L 114 179.5 L 116 173.5 L 116 168.5 L 117 167.5 L 117 160.5 L 118 159.5 L 118 150.5 L 119 149.5 L 119 129.5 L 120 128.5 L 120 117.5 L 119 116.5 L 119 109.5 L 117 103.5 L 115.5 102 L 115 106.5 L 114 107.5 L 114 145.5 L 113 146.5 L 113 155.5 L 112 156.5 L 112 163.5 L 111 164.5 L 111 170.5 L 110 171.5 L 109 182.5 L 108 183.5 L 107 190.5 L 103 202.5 L 101 205.5 L 101 207.5 Q 97.9 210.9 97 216.5 L 92.5 222 L 92 192.5 L 91 191.5 L 91 185.5 Q 89.3 184.8 90 181.5 L 88.5 179 L 87 179.5 L 87 186.5 L 88 187.5 L 88 218.5 L 87 219.5 L 86 231.5 L 83.5 235 L 77.5 238 L 75.5 238 L 75 236.5 L 76 235.5 L 76 228.5 L 77 227.5 L 77 197.5 L 75.5 197 L 74 199.5 L 74 217.5 L 73 218.5 L 73 229.5 Q 70.8 230.7 72 235.5 Q 70.3 236.3 71 239.5 L 66.5 247 L 63.5 248 L 63 220.5 L 62 219.5 L 61.5 215 L 60 216.5 L 60 233.5 L 59 234.5 L 59 245.5 L 58 246.5 L 58 252.5 Q 56.3 253.3 57 256.5 L 54.5 260 L 53 259.5 L 53 252.5 L 54 251.5 L 54 239.5 L 52.5 237 L 51 237.5 Q 48.8 240.3 50 246.5 L 49 247.5 L 49 257.5 L 48 258.5 L 47 271.5 L 46 272.5 L 46 275.5 L 42 287.5 L 41 310.5 L 42 311.5 L 42 321.5 L 47 336.5 L 59 359.5 L 74 378.5 L 74 395.5 L 73 396.5 L 73 403.5 Q 71 404.5 72 408.5 L 71 409.5 L 71 412.5 L 69 418.5 L 65 426.5 L 62.5 429 L 60.5 430 L 58 428.5 L 57 426.5 L 57 389.5 Q 55.3 388.8 56 385.5 L 54.5 384 L 53 384.5 L 53 392.5 L 52 393.5 L 52 416.5 L 51 417.5 L 51 426.5 L 50 427.5 L 50 430.5 L 47 439.5 Q 44.4 446.4 39.5 451 L 34.5 452 L 32 449.5 L 30 444.5 L 30 424.5 L 31 423.5 L 31 416.5 L 32 415.5 L 33 404.5 L 34 403.5 L 34 399.5 L 35 398.5 L 35 394.5 L 37 388.5 L 37 381.5 L 35.5 380 L 33 382.5 L 31 388.5 L 30 397.5 L 29 398.5 L 29 401.5 L 26 410.5 L 22 416.5 L 16.5 422 Q 14.7 423.7 10.5 423 L 7 417.5 L 6 411.5 L 5 410.5 Q 6 406.5 4 405.5 L 4 395.5 L 5 394.5 L 5 390.5 L 8 382.5 L 8 379.5 L 11 370.5 L 13 367.5 L 15 361.5 L 15 358.5 L 18 351.5 L 18 348.5 L 19 347.5 L 19 344.5 L 20 343.5 L 20 340.5 L 21 339.5 L 21 336.5 L 24 327.5 L 24 323.5 L 26 318.5 L 27 309.5 L 28 308.5 Q 26.8 303.8 29 302.5 L 29 294.5 L 30 293.5 L 30 255.5 L 31 254.5 L 31 246.5 L 32 245.5 L 32 238.5 L 33 237.5 L 34 221.5 L 35 220.5 L 35 216.5 L 36 215.5 L 37 207.5 L 40 198.5 L 43 193.5 L 43 191.5 L 53 172.5 L 53 170.5 L 56 165.5 L 59 155.5 L 61 152.5 L 65 140.5 L 65 137.5 L 68 130.5 L 68 127.5 L 70 123.5 L 70 120.5 L 72 115.5 L 72 111.5 L 74 106.5 L 74 101.5 L 75 100.5 L 76 94.5 L 81 88.5 L 94 64.5 L 97 55.5 L 98 45.5 L 96.5 41 L 94 42.5 L 91 51.5 L 91 54.5 L 87 66.5 L 85 69.5 L 85 71.5 L 77 86.5 L 69.5 96 Q 65.5 96.5 65 93.5 Q 65.8 90.3 64 89.5 L 67 84.5 L 67 81.5 Q 65.5 78.5 64 81.5 L 59.5 87 L 52.5 90 L 49.5 90 L 45 86.5 L 47.5 83 L 57.5 78 L 60 75.5 L 58.5 71 Q 49.9 73.9 43.5 79 L 40.5 79 L 37.5 78 L 34 74.5 Q 34.1 68.1 38.5 66 L 45.5 62 L 56.5 59 L 60 55.5 L 59.5 53 L 53.5 55 L 50.5 55 L 49.5 56 L 41.5 56 L 36 51.5 L 37 47.5 L 43.5 41 L 52.5 36 L 58.5 34 L 64.5 34 L 68 31.5 L 67.5 30 Q 64.7 27.8 58.5 29 L 52 25.5 L 49 21.5 L 49 19.5 L 56.5 15 L 78.5 15 L 83.5 11 L 95.5 7 L 106.5 5 L 107.5 4 Z M 126 34 L 124 35 L 118 41 L 117 44 L 117 48 L 119 52 L 124 55 Q 128 56 131 54 L 135 50 L 137 44 L 134 39 Q 132 34 126 34 Z M 145 116 L 143 118 L 145 122 Q 148 121 147 118 L 145 116 Z M 154 121 L 153 125 L 157 127 L 157 123 Q 157 121 154 121 Z M 141 127 L 139 129 L 140 132 L 142 131 Q 143 128 141 127 Z M 147 127 L 144 131 L 145 134 L 147 134 L 149 131 L 149 129 L 147 127 Z M 152 135 L 150 140 L 153 141 L 153 136 L 152 135 Z M 135 139 Q 132 140 133 144 L 136 145 Q 138 144 137 140 L 135 139 Z M 145 140 L 143 143 L 145 146 L 147 146 L 146 141 L 145 140 Z M 162 141 L 160 143 L 162 145 L 163 145 Q 163 142 162 141 Z M 142 152 L 140 154 Q 139 157 142 158 Q 144 158 144 154 L 142 152 Z M 157 152 L 154 155 Q 153 159 156 161 L 158 160 Q 159 154 157 152 Z M 164 152 L 162 155 L 165 158 Q 167 157 166 154 L 164 152 Z M 130 156 L 129 163 L 131 163 Q 133 162 132 157 L 130 156 Z M 151 161 L 149 163 Q 148 168 151 169 L 152 169 Q 153 163 151 161 Z M 137 164 L 135 167 L 136 171 Q 137 172 138 170 Q 139 165 137 164 Z M 161 166 L 159 168 Q 158 172 160 175 L 162 175 Q 165 174 163 168 L 161 166 Z M 170 166 L 168 168 L 168 170 L 171 173 L 173 172 L 172 168 L 170 166 Z M 130 174 L 129 182 L 131 182 L 131 175 L 130 174 Z M 143 176 Q 140 177 141 181 L 144 182 L 144 177 L 143 176 Z M 156 180 L 154 182 Q 153 186 156 187 L 158 184 L 158 182 L 156 180 Z M 124 182 Q 121 183 122 188 Q 124 191 125 188 Q 126 183 124 182 Z M 148 184 L 147 189 L 150 189 L 151 186 Q 151 184 148 184 Z M 165 186 Q 163 191 167 192 Q 169 191 168 188 Q 168 186 165 186 Z M 132 191 L 131 197 L 133 197 L 134 193 L 132 191 Z M 150 194 Q 147 195 148 202 L 151 202 L 152 200 L 151 195 L 150 194 Z M 121 196 Q 118 197 119 202 Q 121 205 122 202 Q 123 197 121 196 Z M 140 196 L 138 200 L 142 202 L 142 198 L 140 196 Z M 160 199 L 158 204 L 161 205 Q 163 204 162 200 L 160 199 Z M 170 200 Q 167 201 168 207 L 170 208 L 172 206 L 172 204 L 170 200 Z M 131 207 L 129 209 L 132 212 L 133 208 L 131 207 Z M 154 208 L 152 211 L 154 213 L 156 212 L 155 209 L 154 208 Z M 164 208 L 163 212 L 165 212 L 166 211 L 164 208 Z M 121 212 L 120 218 L 122 218 Q 124 217 123 213 L 121 212 Z " /><path fill="rgb(0,0,0)" stroke="rgb(0,0,0)" stroke-width="1" opacity="0.00784313725490196" d="M 176.5 33 L 185.5 34 L 201.5 41 Q 210.5 46.5 217 54.5 L 221 61.5 L 222 67.5 L 219.5 72 L 214.5 73 L 198.5 65 Q 195.3 65.8 194.5 64 L 186.5 64 L 185.5 65 L 177.5 65 L 176.5 66 L 164.5 67 L 158.5 69 L 148.5 69 L 146 67.5 L 146 61.5 L 151.5 54 L 165 44.5 L 170.5 38 L 176.5 33 Z M 168 46 Q 167 48 164 47 L 161 51 L 165 53 L 172 53 Q 172 51 176 52 L 180 49 L 179 47 Q 175 48 175 46 L 168 46 Z " /><path fill="rgb(0,0,0)" stroke="rgb(0,0,0)" stroke-width="1" opacity="0.00784313725490196" d="M 125.5 38 L 130 39.5 L 132 45.5 L 131 48.5 L 128.5 51 L 124.5 52 L 122 49.5 L 121 46.5 Q 123 45.5 122 41.5 L 125.5 38 Z " /><path fill="rgb(0,0,0)" stroke="rgb(0,0,0)" stroke-width="1" opacity="0.00784313725490196" d="M 184.5 69 L 191.5 69 Q 192.5 71 196.5 70 L 197.5 71 L 203.5 72 L 205 73.5 L 183.5 74 L 180.5 75 L 176.5 77 L 164 89.5 L 163.5 91 L 159.5 94 Q 156.3 93.3 155.5 95 L 144.5 95 L 140 91.5 L 136 84.5 L 136 78.5 L 139.5 72 L 142.5 72 L 146.5 75 L 158.5 75 L 159.5 74 L 164.5 74 L 165.5 73 L 173.5 72 L 178.5 70 L 183.5 70 L 184.5 69 Z " /><path fill="rgb(0,0,0)" stroke="rgb(0,0,0)" stroke-width="1" opacity="0.00784313725490196" d="M 174.5 107 L 181 111.5 L 187 120.5 L 191 129.5 L 192 132.5 L 192 138.5 L 193 139.5 L 193 145.5 L 192 146.5 L 192 154.5 L 191 155.5 L 190 162.5 L 184.5 173 L 183 172.5 L 182 169.5 L 182 160.5 L 181 159.5 L 181 148.5 L 180 147.5 L 179 132.5 L 178 131.5 L 178 125.5 L 177 124.5 L 177 119.5 L 176 118.5 L 176 114.5 L 174 109.5 L 174.5 107 Z " /><path fill="rgb(0,0,0)" stroke="rgb(0,0,0)" stroke-width="1" opacity="0.00784313725490196" d="M 189.5 200 Q 195.8 198.8 197 202.5 L 197 207.5 L 193.5 212 L 183.5 214 Q 181 213 182 208.5 L 185.5 202 L 189.5 200 Z " /><path fill="rgb(0,0,0)" stroke="rgb(0,0,0)" stroke-width="1" opacity="0.00784313725490196" d="M 267.5 212 L 326.5 212 Q 327.8 214.3 332.5 213 L 356.5 221 L 374.5 231 L 382 237.5 L 379.5 239 L 365.5 239 L 364.5 240 L 339.5 240 L 338.5 241 L 322.5 241 L 315.5 236 L 297.5 236 Q 296.8 237.8 293.5 237 L 290 239.5 Q 290.5 242.5 288.5 243 L 269.5 243 L 268.5 244 L 235.5 244 L 234.5 245 L 224.5 245 L 223.5 246 L 211.5 247 L 192.5 233 L 178.5 226 L 170.5 224 L 163 220.5 L 163.5 219 L 169.5 219 L 170.5 218 L 181.5 218 L 182.5 217 L 195.5 217 L 196.5 216 L 226.5 215 L 227.5 214 L 241.5 214 L 242.5 213 L 266.5 213 L 267.5 212 Z " /><path fill="rgb(0,0,0)" stroke="rgb(0,0,0)" stroke-width="1" opacity="0.00784313725490196" d="M 143.5 223 L 153.5 223 Q 154.8 225.2 159.5 224 L 177.5 230 L 193.5 238 L 209.5 251 L 212.5 251 L 213.5 250 L 224.5 250 L 225.5 249 L 247.5 249 L 248.5 248 L 282.5 248 Q 283.5 246 287.5 247 L 294.5 254 L 302.5 258 L 312.5 258 L 318.5 255 L 323 250.5 L 323 248.5 L 325.5 245 L 334.5 245 L 335.5 244 L 357.5 244 L 358.5 245 L 390.5 245 L 392 246.5 L 399 256.5 L 394.5 257 L 393.5 258 L 382.5 258 L 381.5 259 L 363.5 259 L 362.5 260 L 336.5 260 L 335.5 261 L 304.5 261 L 303.5 262 L 267.5 262 L 266.5 263 L 232.5 263 L 231.5 264 L 208.5 264 L 190.5 254 L 188.5 254 L 175.5 247 L 173.5 247 L 165.5 243 L 150.5 238 L 147.5 238 L 140.5 235 L 129.5 233 L 128.5 232 L 114 230.5 L 114.5 229 L 120.5 228 L 121.5 227 L 125.5 227 L 130.5 225 L 142.5 224 L 143.5 223 Z " /><path fill="rgb(0,0,0)" stroke="rgb(0,0,0)" stroke-width="1" opacity="0.00784313725490196" d="M 114.5 235 L 122.5 235 L 123.5 236 L 134.5 237 L 135.5 238 L 138.5 238 L 142.5 240 L 145.5 240 L 157.5 244 L 190.5 259 L 207 269.5 L 205 273.5 L 189 291.5 L 162 329.5 L 126 373.5 L 113 391.5 L 107.5 397 L 104.5 397 L 94.5 391 L 79 376.5 L 60 351.5 L 50 333.5 L 47 324.5 L 47 320.5 L 46 319.5 L 46 310.5 Q 44.3 309.8 45 306.5 L 46 305.5 L 46 296.5 Q 48 295.5 47 291.5 L 51 279.5 L 58 265.5 L 70.5 250 L 80.5 243 L 89.5 239 L 92.5 239 L 97.5 237 L 101.5 237 L 102.5 236 L 113.5 236 L 114.5 235 Z M 115 254 L 114 255 L 106 256 L 97 260 L 95 260 L 86 265 L 76 273 L 65 285 L 61 297 L 61 311 L 62 312 L 63 322 L 66 331 L 72 342 L 91 360 L 101 368 L 105 369 L 115 359 L 119 353 L 143 325 L 176 280 L 175 277 L 163 267 L 141 256 L 135 254 L 115 254 Z " /><path fill="rgb(0,0,0)" stroke="rgb(0,0,0)" stroke-width="1" opacity="0.00784313725490196" d="M 309.5 239 Q 314.9 238.1 317 240.5 L 318 245.5 L 313.5 251 Q 310.7 253.2 304.5 252 L 294 246.5 L 293 244.5 L 297.5 241 L 305.5 240 L 305 241.5 L 304 246.5 L 306.5 250 L 308 248.5 L 308 240.5 L 309.5 239 Z " /><path fill="rgb(0,0,0)" stroke="rgb(0,0,0)" stroke-width="1" opacity="0.00784313725490196" d="M 113.5 259 L 128.5 259 L 129.5 260 L 137.5 261 L 162.5 273 L 170 278.5 L 168 283.5 Q 156.2 296.7 147 312.5 L 105.5 362 L 101.5 362 L 90 352.5 L 80 340.5 L 69 321.5 L 67 315.5 L 67 312.5 L 66 311.5 L 66 297.5 L 70 286.5 L 80.5 274 Q 88.4 267.4 98.5 263 L 104.5 261 L 107.5 261 L 108.5 260 L 112.5 260 L 113.5 259 Z " /><path fill="rgb(0,0,0)" stroke="rgb(0,0,0)" stroke-width="1" opacity="0.00784313725490196" d="M 289.5 316 L 302.5 330 L 304.5 331 L 309 327.5 L 316.5 319 L 318 320.5 L 320 326.5 L 321 336.5 L 322 337.5 L 322 343.5 L 323 344.5 L 323 367.5 L 321 373.5 L 314.5 381 L 305.5 385 L 297.5 386 L 296.5 387 L 291.5 387 L 290.5 388 L 284.5 388 L 283.5 389 Q 278.8 387.8 277.5 390 L 268.5 390 L 267.5 391 L 252.5 391 L 242.5 387 L 239 383.5 L 237 373.5 L 236 372.5 L 235 363.5 L 234 362.5 L 234 346.5 L 236 340.5 L 237 330.5 L 239.5 324 L 242 325.5 L 252.5 338 L 255 335.5 L 262.5 318 L 270 324.5 Q 272 330 276.5 333 L 279 331.5 L 289.5 316 Z M 315 362 L 312 363 Q 309 365 310 372 Q 311 374 317 373 L 320 370 L 320 366 L 318 363 L 315 362 Z M 295 366 L 291 370 Q 290 375 294 376 L 299 375 Q 302 373 302 369 Q 301 365 295 366 Z M 278 368 L 276 369 Q 272 370 273 375 L 277 377 Q 281 378 283 376 L 285 373 L 284 370 L 281 368 L 278 368 Z M 243 370 L 241 373 L 242 378 Q 243 380 248 379 Q 251 378 250 373 Q 249 369 243 370 Z M 260 371 L 257 375 L 258 379 L 265 379 Q 268 378 267 373 L 266 371 L 260 371 Z " /><path fill="rgb(0,0,0)" stroke="rgb(0,0,0)" stroke-width="1" opacity="0.00784313725490196" d="M 365.5 335 L 370.5 335 L 376 339.5 L 378 345.5 L 378 353.5 L 373.5 359 L 370.5 361 L 367.5 361 L 358.5 354 L 357.5 355 Q 352.8 353.8 351.5 356 L 344.5 356 L 343.5 357 L 330.5 358 L 328 353.5 L 332.5 351 L 347.5 350 L 348.5 349 L 357.5 349 L 359 347.5 L 361 339.5 L 365.5 335 Z " /><path fill="rgb(0,0,0)" stroke="rgb(0,0,0)" stroke-width="1" opacity="0.00784313725490196" d="M 384.5 339 L 386 339.5 Q 385 344 387.5 345 L 389 345.5 L 387 348.5 L 387 350.5 Q 388.8 351.3 388 354.5 L 385.5 356 L 383 351.5 L 383 340.5 L 384.5 339 Z " /><path fill="rgb(0,0,0)" stroke="rgb(0,0,0)" stroke-width="1" opacity="0.00784313725490196" d="M 179.5 354 L 195.5 354 L 198.5 355 L 201 357.5 L 199.5 361 L 195.5 359 L 193 360.5 Q 192.5 364.5 195.5 365 L 197 365.5 L 197 369.5 L 192 379.5 L 191.5 402 L 188.5 403 L 187 400.5 L 187 392.5 Q 185 391.5 186 387.5 L 182 379.5 L 171 364.5 L 171 358.5 L 173.5 356 L 179.5 354 Z M 186 359 L 184 361 Q 183 364 186 365 Q 189 364 188 360 L 186 359 Z M 177 360 Q 174 361 175 366 L 178 367 Q 180 365 179 361 L 177 360 Z " /><path fill="rgb(0,0,0)" stroke="rgb(0,0,0)" stroke-width="1" opacity="0.00784313725490196" d="M 196.5 361 L 197 362.5 L 195.5 363 Q 194 362 196.5 361 Z " /><path fill="rgb(0,0,0)" stroke="rgb(0,0,0)" stroke-width="1" opacity="0.00784313725490196" d="M 210.5 364 L 216 364.5 L 216 367.5 L 211.5 372 Q 207 373 206 370.5 Q 206.9 365.9 210.5 364 Z " /><path fill="rgb(0,0,0)" stroke="rgb(0,0,0)" stroke-width="1" opacity="0.00784313725490196" d="M 227.5 365 L 229 365.5 L 231 369.5 L 232 377.5 Q 231.3 380.8 226.5 380 L 224 375.5 L 223 370.5 L 227.5 365 Z " /><path fill="rgb(0,0,0)" stroke="rgb(0,0,0)" stroke-width="1" opacity="0.00784313725490196" d="M 314.5 365 L 316 365.5 Q 316.8 369.3 314.5 370 L 313 367.5 L 314.5 365 Z " /><path fill="rgb(0,0,0)" stroke="rgb(0,0,0)" stroke-width="1" opacity="0.00784313725490196" d="M 296.5 368 L 298 370.5 Q 297.5 372.5 294.5 372 L 294 370.5 L 296.5 368 Z " /><path fill="rgb(0,0,0)" stroke="rgb(0,0,0)" stroke-width="1" opacity="0.00784313725490196" d="M 349.5 368 Q 354 367 355 369.5 L 352.5 373 L 344.5 377 L 340.5 377 L 340 374.5 L 343.5 371 L 349.5 368 Z " /><path fill="rgb(0,0,0)" stroke="rgb(0,0,0)" stroke-width="1" opacity="0.00784313725490196" d="M 278.5 371 L 281 371.5 L 279.5 374 L 278 373.5 L 278.5 371 Z " /><path fill="rgb(0,0,0)" stroke="rgb(0,0,0)" stroke-width="1" opacity="0.00784313725490196" d="M 245.5 373 L 246 375.5 L 245 375.5 L 245.5 373 Z " /><path fill="rgb(0,0,0)" stroke="rgb(0,0,0)" stroke-width="1" opacity="0.00784313725490196" d="M 262.5 373 Q 265.5 374.5 262.5 376 L 261 375.5 L 262.5 373 Z " /><path fill="rgb(0,0,0)" stroke="rgb(0,0,0)" stroke-width="1" opacity="0.00784313725490196" d="M 204.5 375 L 206.5 375 L 210 377.5 Q 209.4 381.4 206.5 383 L 202.5 385 L 198.5 385 L 197 382.5 L 200.5 377 L 204.5 375 Z " /><path fill="rgb(0,0,0)" stroke="rgb(0,0,0)" stroke-width="1" opacity="0.00784313725490196" d="M 354.5 375 L 355 376.5 L 350.5 379 L 347.5 379 L 347.5 378 L 354.5 375 Z " /><path fill="rgb(0,0,0)" stroke="rgb(0,0,0)" stroke-width="1" opacity="0.00784313725490196" d="M 169.5 381 Q 172.5 380.5 173 382.5 L 174 384.5 L 168.5 391 L 165.5 392 L 164 389.5 L 171 385.5 L 169 382.5 L 169.5 381 Z " /><path fill="rgb(0,0,0)" stroke="rgb(0,0,0)" stroke-width="1" opacity="0.00784313725490196" d="M 368.5 381 Q 373.8 379.8 375 382.5 Q 376 387 373.5 388 L 369.5 390 L 364.5 390 L 363 387.5 L 365.5 383 L 368.5 381 Z " /><path fill="rgb(0,0,0)" stroke="rgb(0,0,0)" stroke-width="1" opacity="0.00784313725490196" d="M 212.5 384 L 215 385.5 Q 216 390 213.5 391 Q 211.7 392.7 207.5 392 L 207 388.5 L 212.5 384 Z " /><path fill="rgb(0,0,0)" stroke="rgb(0,0,0)" stroke-width="1" opacity="0.00784313725490196" d="M 390.5 386 L 394 387.5 Q 394.8 393.3 391.5 395 L 388.5 397 L 383.5 397 Q 381.5 396.5 382 393.5 L 386.5 388 L 390.5 386 Z " /><path fill="rgb(0,0,0)" stroke="rgb(0,0,0)" stroke-width="1" opacity="0.00784313725490196" d="M 338.5 388 L 343.5 389 L 345 390.5 L 341.5 395 L 337.5 397 L 331.5 397 L 328 394.5 Q 327.5 391.5 329.5 391 L 338.5 388 Z " /><path fill="rgb(0,0,0)" stroke="rgb(0,0,0)" stroke-width="1" opacity="0.00784313725490196" d="M 226.5 393 Q 233.8 391.8 236 395.5 L 232.5 399 L 225.5 401 L 222 398.5 L 226.5 393 Z " /><path fill="rgb(0,0,0)" stroke="rgb(0,0,0)" stroke-width="1" opacity="0.00784313725490196" d="M 143.5 394 Q 148.3 394.3 150 397.5 L 151 402.5 L 149.5 404 L 142.5 405 L 139 402.5 Q 137.8 396.3 141.5 395 L 143.5 394 Z " /><path fill="rgb(0,0,0)" stroke="rgb(0,0,0)" stroke-width="1" opacity="0.00784313725490196" d="M 308.5 395 L 310.5 395 L 314 397.5 Q 316 400 315 405.5 L 308.5 409 L 304 406.5 L 303 401.5 L 306.5 396 L 308.5 395 Z " /><path fill="rgb(0,0,0)" stroke="rgb(0,0,0)" stroke-width="1" opacity="0.00784313725490196" d="M 283.5 396 Q 289.8 394.8 291 398.5 L 292 402.5 L 288.5 407 L 283.5 408 L 280 404.5 L 280 399.5 L 281.5 397 L 283.5 396 Z " /><path fill="rgb(0,0,0)" stroke="rgb(0,0,0)" stroke-width="1" opacity="0.00784313725490196" d="M 172.5 400 Q 176.3 399.3 177 401.5 L 174.5 406 Q 172.3 407.8 167.5 407 L 167 405.5 L 169.5 402 L 172.5 400 Z " /><path fill="rgb(0,0,0)" stroke="rgb(0,0,0)" stroke-width="1" opacity="0.00784313725490196" d="M 359.5 400 Q 365.5 398.5 367 401.5 Q 367.8 406.3 364.5 407 L 361.5 408 L 356.5 408 Q 354.5 407.5 355 404.5 L 356.5 402 L 359.5 400 Z " /><path fill="rgb(0,0,0)" stroke="rgb(0,0,0)" stroke-width="1" opacity="0.00784313725490196" d="M 199.5 401 L 201 403.5 L 194.5 411 L 190.5 412 Q 188.3 411.3 189 407.5 L 192.5 404 L 194.5 404 L 199.5 401 Z " /><path fill="rgb(0,0,0)" stroke="rgb(0,0,0)" stroke-width="1" opacity="0.00784313725490196" d="M 255.5 401 L 260.5 401 L 265 403.5 L 266 407.5 Q 263.6 413.1 255.5 413 L 253 410.5 L 253 403.5 L 255.5 401 Z " /><path fill="rgb(0,0,0)" stroke="rgb(0,0,0)" stroke-width="1" opacity="0.00784313725490196" d="M 113.5 402 L 122.5 405 L 125.5 407 L 127.5 407 L 132.5 410 L 134.5 410 L 146 416.5 L 144 419.5 L 143 422.5 L 143 428.5 L 141.5 430 L 134.5 429 L 119.5 422 L 118 423.5 L 118 500.5 L 119 501.5 Q 118.3 505.7 120 507.5 L 123.5 511 L 136.5 518 L 155.5 531 L 180.5 546 L 185.5 548 L 187.5 550 L 208.5 561 L 214.5 562 L 216 558.5 L 216 554.5 L 217 553.5 L 217 545.5 L 218 544.5 L 218 536.5 L 219 535.5 L 219 523.5 L 220 522.5 L 220 485.5 L 221 483.5 L 220 482.5 L 220 467.5 L 218.5 466 L 215.5 466 L 214.5 465 L 211.5 465 L 202.5 462 L 196.5 459 L 193 455.5 L 193 453.5 L 190 447.5 L 195 441.5 L 193 436.5 L 194.5 436 L 203.5 440 L 205.5 440 L 210.5 443 L 212.5 443 L 219.5 447 L 221.5 447 L 231 452.5 L 231 458.5 L 230 459.5 L 230 474.5 L 229 475.5 L 229 489.5 L 228 490.5 L 228 541.5 L 227 542.5 L 227 561.5 L 226 562.5 L 225 589.5 L 224 590.5 L 224 597.5 L 222.5 599 L 218.5 598 L 209.5 593 L 188.5 579 L 143.5 546 L 109 518.5 L 108 516.5 L 108 483.5 L 109 482.5 L 109 461.5 L 110 460.5 L 110 442.5 L 111 441.5 L 111 419.5 L 112 418.5 L 112 404.5 L 113.5 402 Z " /><path fill="rgb(0,0,0)" stroke="rgb(0,0,0)" stroke-width="1" opacity="0.00784313725490196" d="M 210.5 402 Q 216.8 400.8 218 404.5 L 218 406.5 L 214.5 410 L 210.5 412 L 207.5 412 Q 205 411 206 406.5 L 210.5 402 Z " /><path fill="rgb(0,0,0)" stroke="rgb(0,0,0)" stroke-width="1" opacity="0.00784313725490196" d="M 414.5 402 Q 419 401 420 403.5 Q 422 406 421 411.5 L 422 412.5 L 422 425.5 L 423 426.5 L 423 443.5 L 424 444.5 L 424 459.5 L 425 460.5 L 425 475.5 L 426 476.5 L 426 489.5 L 427 490.5 L 427 517.5 L 426 518.5 L 425.5 530 L 407.5 538 L 402.5 539 L 385.5 548 L 383.5 548 L 375.5 552 L 367.5 554 L 364.5 556 L 352.5 560 L 344.5 561 L 344 559.5 L 347.5 557 L 349.5 557 L 368.5 548 L 371 545.5 L 369.5 545 L 360.5 548 L 357.5 550 L 355.5 550 L 352.5 552 L 350.5 552 L 345.5 555 L 343.5 555 L 313.5 570 L 311.5 570 L 304.5 574 L 302.5 574 L 297.5 577 L 295.5 577 L 272.5 587 L 239.5 598 L 229.5 600 L 229 592.5 L 230 591.5 L 230 574.5 L 231 573.5 L 232 545.5 L 233 544.5 L 233 528.5 L 234 527.5 L 234 507.5 L 235 506.5 L 235 476.5 L 236 475.5 L 236 456.5 L 238.5 454 L 253.5 449 L 260.5 448 L 264.5 446 L 267.5 446 L 268.5 445 L 283.5 442 L 287.5 440 L 298.5 438 L 309.5 434 L 312.5 434 L 319.5 431 L 322.5 431 L 332.5 427 L 335.5 427 L 342.5 424 L 345.5 424 L 355.5 420 L 358.5 420 L 371.5 415 L 374.5 415 L 390.5 409 L 393.5 409 L 414.5 402 Z M 405 424 L 387 430 L 380 431 L 372 434 L 369 434 L 365 436 L 362 436 L 358 438 L 355 438 L 351 440 L 348 440 L 344 442 L 341 442 L 337 444 L 334 444 L 330 446 L 327 446 L 323 448 L 320 448 L 316 450 L 313 450 L 309 452 L 306 452 L 298 455 L 295 455 L 287 458 L 284 458 L 276 461 L 273 461 L 269 463 L 266 463 L 254 467 L 252 469 L 252 482 L 251 483 L 251 542 L 252 543 L 252 563 L 253 564 L 253 575 L 255 577 L 261 577 L 274 571 L 292 565 L 295 565 L 303 562 L 306 562 L 313 559 L 316 559 L 326 555 L 329 555 L 344 550 L 347 548 L 374 539 L 397 529 L 410 525 L 411 523 L 411 442 L 410 441 L 410 426 Q 409 423 405 424 Z " /><path fill="rgb(0,0,0)" stroke="rgb(0,0,0)" stroke-width="1" opacity="0.00784313725490196" d="M 337.5 404 Q 344.5 402.5 346 406.5 L 346 408.5 L 342.5 412 L 339.5 414 L 335.5 414 Q 332.3 413.3 333 408.5 L 335.5 405 L 337.5 404 Z " /><path fill="rgb(0,0,0)" stroke="rgb(0,0,0)" stroke-width="1" opacity="0.00784313725490196" d="M 237.5 407 L 241 408.5 Q 242.8 410.7 242 415.5 L 239.5 419 L 236.5 420 L 230.5 420 L 230 415.5 L 233.5 409 L 237.5 407 Z " /><path fill="rgb(0,0,0)" stroke="rgb(0,0,0)" stroke-width="1" opacity="0.00784313725490196" d="M 177.5 411 L 182 412.5 L 183 414.5 L 178.5 420 Q 176.7 421.7 172.5 421 Q 170 420 171 415.5 L 174.5 412 L 177.5 411 Z " /><path fill="rgb(0,0,0)" stroke="rgb(0,0,0)" stroke-width="1" opacity="0.00784313725490196" d="M 318.5 414 L 325 414.5 L 326 417.5 L 324.5 421 L 319.5 423 L 315.5 423 L 315 420.5 Q 316.8 419.8 316 416.5 L 318.5 414 Z " /><path fill="rgb(0,0,0)" stroke="rgb(0,0,0)" stroke-width="1" opacity="0.00784313725490196" d="M 189.5 415 L 191 417.5 L 187 419.5 L 185.5 426 L 179 422.5 L 184.5 417 L 189.5 415 Z " /><path fill="rgb(0,0,0)" stroke="rgb(0,0,0)" stroke-width="1" opacity="0.00784313725490196" d="M 200.5 415 L 204 417.5 L 201.5 422 L 195.5 425 L 189.5 425 L 188 422.5 L 194.5 418 L 201 417.5 L 200.5 415 Z " /><path fill="rgb(0,0,0)" stroke="rgb(0,0,0)" stroke-width="1" opacity="0.00784313725490196" d="M 271.5 417 L 275 418.5 L 273.5 421 L 267.5 424 L 262.5 425 L 261 422.5 L 263.5 420 L 271.5 417 Z " /><path fill="rgb(0,0,0)" stroke="rgb(0,0,0)" stroke-width="1" opacity="0.00784313725490196" d="M 149.5 419 Q 154 418 155 420.5 L 156 422.5 L 155 425.5 L 152.5 428 L 148.5 429 Q 145 428 146 422.5 L 149.5 419 Z " /><path fill="rgb(0,0,0)" stroke="rgb(0,0,0)" stroke-width="1" opacity="0.00784313725490196" d="M 215.5 419 L 220 420.5 L 221 425.5 Q 218.8 430.3 212.5 431 Q 208.8 429.8 210 423.5 L 215.5 419 Z " /><path fill="rgb(0,0,0)" stroke="rgb(0,0,0)" stroke-width="1" opacity="0.00784313725490196" d="M 296.5 419 L 300.5 419 L 305 420.5 L 302.5 424 L 299.5 425 L 290.5 425 L 289 422.5 L 291.5 420 Q 295.5 421 296.5 419 Z " /><path fill="rgb(0,0,0)" stroke="rgb(0,0,0)" stroke-width="1" opacity="0.00784313725490196" d="M 159.5 421 L 168.5 425 L 170.5 425 L 177.5 429 L 179.5 429 L 183 431.5 L 183 433.5 L 180 436.5 L 178 442.5 L 180 448.5 L 176.5 449 L 160.5 441 L 158.5 441 L 154 436.5 L 154 431.5 L 159 425.5 L 159.5 421 Z " /><path fill="rgb(0,0,0)" stroke="rgb(0,0,0)" stroke-width="1" opacity="0.00784313725490196" d="M 272.5 426 L 274.5 427 L 282 427.5 L 278.5 432 L 273.5 434 L 267.5 434 L 265 431.5 L 268.5 428 L 272.5 426 Z " /><path fill="rgb(0,0,0)" stroke="rgb(0,0,0)" stroke-width="1" opacity="0.00784313725490196" d="M 243.5 430 Q 248.3 429.3 250 431.5 L 251 436.5 Q 248.3 440.3 243.5 442 L 236.5 442 L 236 437.5 L 241.5 431 L 243.5 430 Z " /><path fill="rgb(0,0,0)" stroke="rgb(0,0,0)" stroke-width="1" opacity="0.00784313725490196" d="M 126.5 432 L 134.5 436 L 140 440.5 L 140 442.5 Q 136.2 446.2 135 452.5 L 138 456.5 L 138 460.5 L 137 461.5 L 137 469.5 Q 139.8 470.3 139 474.5 L 138 475.5 L 138 482.5 L 143 487.5 L 143 496.5 L 146.5 501 L 153 501.5 L 153 505.5 L 156.5 511 Q 158.7 512.8 163.5 512 L 168 508.5 L 170.5 504 L 179.5 504 L 183 500.5 L 184 495.5 Q 181.8 494.3 183 489.5 L 189 485.5 L 189 476.5 L 192 472.5 L 193 468.5 L 190 463.5 L 190 460.5 L 191.5 460 L 204.5 467 L 211.5 469 L 216 472.5 L 216 485.5 L 215 486.5 L 215 498.5 L 214 499.5 L 214 506.5 L 213 507.5 L 213 516.5 L 212 517.5 L 211 538.5 L 210 539.5 L 210 546.5 Q 208 547.5 209 551.5 L 206.5 555 L 161.5 528 L 139.5 516 L 123 504.5 L 123 461.5 L 124 460.5 L 124 441.5 L 125 440.5 L 125 433.5 L 126.5 432 Z " /><path fill="rgb(0,0,0)" stroke="rgb(0,0,0)" stroke-width="1" opacity="0.00784313725490196" d="M 144.5 432 L 147.5 432 L 151 434.5 Q 150.4 438.4 147.5 440 L 143.5 441 Q 140.8 439.8 142 434.5 L 144.5 432 Z " /><path fill="rgb(0,0,0)" stroke="rgb(0,0,0)" stroke-width="1" opacity="0.00784313725490196" d="M 187.5 434 L 191 438.5 L 191 440.5 L 187.5 444 Q 184.3 443.3 183.5 445 Q 181.3 444.3 182 440.5 L 187.5 434 Z " /><path fill="rgb(0,0,0)" stroke="rgb(0,0,0)" stroke-width="1" opacity="0.00784313725490196" d="M 396.5 434 L 402 434.5 L 403 445.5 L 404 446.5 Q 402.8 451.3 405 452.5 L 405 458.5 L 406 459.5 L 406 472.5 L 407 473.5 L 407 492.5 L 406 493.5 L 406 512.5 L 405 513.5 L 404.5 520 L 402.5 520 L 397.5 523 L 395.5 523 L 390.5 526 L 388.5 526 L 383.5 529 L 381.5 529 L 376.5 532 L 374.5 532 L 369.5 535 L 367.5 535 L 362.5 538 L 347.5 543 L 344.5 545 L 320.5 553 L 317.5 553 L 306.5 557 L 303.5 557 L 302.5 558 L 299.5 558 L 298.5 559 L 283.5 562 L 279.5 564 L 276.5 564 L 272.5 566 L 266.5 567 L 263.5 569 L 260.5 569 L 259 565.5 L 259 552.5 L 258 551.5 L 258 513.5 L 257 512.5 L 257 498.5 L 258 497.5 L 258 471.5 L 259.5 470 L 279.5 466 L 283.5 464 L 290.5 463 L 294.5 461 L 297.5 461 L 312.5 456 L 315.5 456 L 319.5 454 L 322.5 454 L 324 455.5 L 325 466.5 L 326 467.5 L 326 471.5 L 327 472.5 L 327 476.5 L 328 477.5 L 328 481.5 L 329 482.5 L 329 486.5 L 331 492.5 L 331 501.5 L 335.5 510 L 343.5 514 L 349.5 514 L 350.5 513 L 354.5 513 L 355.5 512 L 358.5 512 L 367.5 509 L 372 504.5 L 374 500.5 L 374 490.5 L 373 489.5 L 373 483.5 L 372 482.5 L 372 478.5 L 371 477.5 L 371 473.5 L 370 472.5 L 370 468.5 L 368 462.5 L 368 457.5 L 367 456.5 Q 368.2 451.8 366 450.5 L 366 442.5 L 368.5 441 L 371.5 441 L 372.5 440 L 375.5 440 L 376.5 439 L 379.5 439 L 380.5 438 L 383.5 438 L 384.5 437 L 387.5 437 L 396.5 434 Z " /><path fill="rgb(0,0,0)" stroke="rgb(0,0,0)" stroke-width="1" opacity="0.00784313725490196" d="M 149.5 443 L 151.5 443 L 162.5 449 L 166.5 450 L 168.5 452 L 175.5 455 L 181 459.5 L 178 469.5 Q 179.8 470.3 179 473.5 L 176 479.5 L 175.5 486 L 169 490.5 L 168.5 493 Q 165.7 490.8 159.5 492 L 157 489.5 L 151 481.5 Q 153.2 480.3 152 475.5 L 148 469.5 L 151 464.5 L 151 462.5 L 147 456.5 L 151 453.5 Q 152.7 451.7 152 447.5 L 149 443.5 L 149.5 443 Z " /><path fill="rgb(0,0,0)" stroke="rgb(0,0,0)" stroke-width="1" opacity="0.00784313725490196" d="M 356.5 444 L 361 445.5 L 362 448.5 L 362 453.5 L 363 454.5 L 363 458.5 L 364 459.5 L 364 463.5 L 365 464.5 L 365 468.5 L 366 469.5 L 366 473.5 L 367 474.5 L 367 478.5 L 368 479.5 L 368 485.5 L 369 486.5 L 369 499.5 L 367.5 500 L 365 492.5 L 365 482.5 L 363 476.5 L 358.5 472 L 350.5 472 L 344 477.5 L 343 480.5 L 343 497.5 L 347.5 504 L 349.5 505 L 359.5 505 Q 360.3 503.3 363.5 504 L 364 505.5 L 359.5 508 L 353.5 508 L 352.5 509 L 342.5 509 L 338 505.5 L 337 499.5 L 336 498.5 L 336 494.5 L 335 493.5 L 335 489.5 L 334 488.5 L 334 483.5 L 333 482.5 L 333 477.5 L 332 476.5 L 332 472.5 L 331 471.5 L 331 467.5 L 330 466.5 L 330 461.5 L 329 460.5 L 329 455.5 L 328 452.5 L 329.5 451 L 332.5 451 L 336.5 449 L 339.5 449 L 343.5 447 L 346.5 447 L 351.5 445 L 355.5 445 L 356.5 444 Z M 349 454 L 343 457 L 341 457 Q 338 458 340 459 L 348 459 L 351 458 L 353 455 L 349 454 Z " /><path fill="rgb(0,0,0)" stroke="rgb(0,0,0)" stroke-width="1" opacity="0.00784313725490196" d="M 143.5 446 Q 148.3 445.3 149 448.5 L 146.5 453 Q 144.3 454.8 139.5 454 L 138 451.5 L 141.5 447 L 143.5 446 Z " /><path fill="rgb(0,0,0)" stroke="rgb(0,0,0)" stroke-width="1" opacity="0.00784313725490196" d="M 183.5 449 Q 188.3 448.3 189 451.5 Q 190.3 456.8 187.5 458 Q 183.8 458.8 183 456.5 Q 181.3 454.7 182 450.5 L 183.5 449 Z " /><path fill="rgb(0,0,0)" stroke="rgb(0,0,0)" stroke-width="1" opacity="0.00784313725490196" d="M 141.5 460 L 147 460.5 L 147 463.5 L 143.5 469 Q 139.5 469.5 139 466.5 L 139 463.5 L 141.5 460 Z " /><path fill="rgb(0,0,0)" stroke="rgb(0,0,0)" stroke-width="1" opacity="0.00784313725490196" d="M 183.5 463 L 185.5 463 L 189 466.5 Q 190 471 187.5 472 L 184.5 473 L 182 471.5 L 181 466.5 L 183.5 463 Z " /><path fill="rgb(0,0,0)" stroke="rgb(0,0,0)" stroke-width="1" opacity="0.00784313725490196" d="M 143.5 473 Q 148.3 472.3 149 475.5 L 148 480.5 L 145.5 484 Q 141.5 484.5 141 481.5 Q 139.5 474.5 143.5 473 Z " /><path fill="rgb(0,0,0)" stroke="rgb(0,0,0)" stroke-width="1" opacity="0.00784313725490196" d="M 352.5 475 Q 356.6 474.4 358 476.5 Q 360 479 359 484.5 L 357.5 486 L 347.5 487 L 347 481.5 L 348 478.5 L 350.5 476 L 352.5 475 Z " /><path fill="rgb(0,0,0)" stroke="rgb(0,0,0)" stroke-width="1" opacity="0.00784313725490196" d="M 181.5 476 L 186 479.5 Q 187 485 183.5 486 Q 180.5 486.5 180 484.5 L 179 479.5 L 181.5 476 Z " /><path fill="rgb(0,0,0)" stroke="rgb(0,0,0)" stroke-width="1" opacity="0.00784313725490196" d="M 149.5 487 Q 153.5 486.5 154 489.5 Q 155 496 151.5 498 L 148.5 499 L 146 497.5 Q 144.3 488.8 149.5 487 Z " /><path fill="rgb(0,0,0)" stroke="rgb(0,0,0)" stroke-width="1" opacity="0.00784313725490196" d="M 175.5 489 Q 178.5 488.5 179 490.5 Q 181 493 180 498.5 Q 179.5 501.5 175.5 501 L 173 499.5 L 171 494.5 L 175.5 489 Z " /><path fill="rgb(0,0,0)" stroke="rgb(0,0,0)" stroke-width="1" opacity="0.00784313725490196" d="M 354.5 489 L 360 489.5 L 362 498.5 L 359.5 501 L 351.5 502 L 348 498.5 L 347 492.5 L 350.5 490 Q 353.8 490.8 354.5 489 Z " /><path fill="rgb(0,0,0)" stroke="rgb(0,0,0)" stroke-width="1" opacity="0.00784313725490196" d="M 161.5 494 Q 165.3 493.3 166 495.5 L 167 502.5 Q 165.3 507.3 161.5 510 Q 157.5 510.5 157 507.5 Q 155.2 496.7 161.5 494 Z " /></svg>