<svg viewBox="0 0 640 640" version="1.1" xmlns="http://www.w3.org/2000/svg" desc="Created with imagetracer.js version 1.2.6" ><path fill="rgb(0,0,0)" stroke="rgb(0,0,0)" stroke-width="1" opacity="0.9254901960784314" d="M 319.5 0 L 640 319.5 L 320.5 640 L 0 320.5 L 319.5 0 Z M 320 6 L 165 161 L 165 163 L 321 317 L 475 163 L 475 161 L 320 6 Z M 161 165 L 6 321 L 161 475 L 163 475 L 317 320 L 163 165 L 161 165 Z M 478 165 L 323 321 L 478 475 L 480 475 L 634 320 L 480 165 L 478 165 Z M 320 324 L 165 479 L 320 633 L 475 479 L 320 324 Z " /><path fill="rgb(0,0,54)" stroke="rgb(0,0,54)" stroke-width="1" opacity="0.996078431372549" d="M 160.5 165 L 161 165.5 L 7 319.5 L 161 474.5 L 160.5 475 L 6 320.5 L 160.5 165 Z " /><path fill="rgb(0,0,54)" stroke="rgb(0,0,54)" stroke-width="1" opacity="0.996078431372549" d="M 162.5 165 L 317 320.5 L 162.5 475 L 162 474.5 L 316 319.5 L 162 165.5 L 162.5 165 Z " /><path fill="rgb(0,0,254)" stroke="rgb(0,0,254)" stroke-width="1" opacity="0.8352941176470589" d="M 161.5 165 L 316 320.5 L 161.5 475 L 7 320.5 L 161.5 165 Z M 158 252 L 157 253 L 150 253 L 145 255 L 142 255 L 136 258 L 134 258 L 122 265 L 116 270 L 103 286 L 97 299 L 96 305 L 95 306 L 95 311 L 94 312 L 94 329 L 95 330 L 96 339 L 103 355 L 111 366 L 122 375 L 134 382 L 136 382 L 142 385 L 149 386 L 150 387 L 157 387 L 158 388 L 174 387 L 175 386 L 179 386 L 188 383 Q 198 378 207 371 L 219 357 L 225 345 L 227 339 L 227 336 L 228 335 L 228 331 L 229 330 L 229 311 L 228 310 L 227 302 L 219 284 L 213 276 Q 203 265 190 258 L 188 258 L 179 254 L 175 254 L 174 253 L 158 252 Z " /><path fill="rgb(59,0,0)" stroke="rgb(59,0,0)" stroke-width="1" opacity="0.996078431372549" d="M 319.5 6 L 475 160.5 L 474.5 161 L 320.5 7 L 165.5 161 L 165 160.5 L 319.5 6 Z " /><path fill="rgb(59,0,0)" stroke="rgb(59,0,0)" stroke-width="1" opacity="0.996078431372549" d="M 165.5 162 L 320.5 316 L 474.5 162 L 475 162.5 L 319.5 317 L 165 162.5 L 165.5 162 Z " /><path fill="rgb(83,83,0)" stroke="rgb(83,83,0)" stroke-width="1" opacity="0.996078431372549" d="M 477.5 165 L 478 165.5 L 324 319.5 L 383 379.5 L 382.5 380 L 323 320.5 L 477.5 165 Z " /><path fill="rgb(83,83,0)" stroke="rgb(83,83,0)" stroke-width="1" opacity="0.996078431372549" d="M 419.5 416 L 478 474.5 L 477.5 475 L 419 416.5 L 419.5 416 Z " /><path fill="rgb(254,0,0)" stroke="rgb(254,0,0)" stroke-width="1" opacity="0.7176470588235294" d="M 319.5 7 L 475 161.5 L 319.5 316 L 165 161.5 L 319.5 7 Z " /><path fill="rgb(254,254,0)" stroke="rgb(254,254,0)" stroke-width="1" opacity="0.803921568627451" d="M 478.5 165 L 633 320.5 L 478.5 475 L 324 320.5 L 478.5 165 Z M 469 258 L 468 259 L 464 259 L 455 262 L 440 271 L 429 282 L 423 291 L 418 304 L 417 313 L 416 314 L 416 327 L 417 328 L 418 337 L 423 350 L 429 359 Q 436 368 447 374 L 455 378 L 464 381 L 468 381 L 469 382 L 489 382 L 494 380 L 497 380 L 509 375 L 518 369 Q 526 362 532 353 L 539 337 L 540 326 L 541 325 L 541 316 L 540 315 L 539 304 L 532 288 L 527 281 L 514 268 L 500 261 L 490 259 L 489 258 L 469 258 Z " /><path fill="rgb(255,255,0)" stroke="rgb(255,255,0)" stroke-width="1" opacity="0.2901960784313726" d="M 468.5 258 L 488.5 258 L 489.5 259 L 499.5 261 L 513.5 268 L 527 280.5 L 532 287.5 L 539 303.5 L 540 314.5 L 541 315.5 L 541 324.5 L 540 325.5 L 539 336.5 L 532 352.5 Q 526 362 517.5 369 L 508.5 375 L 496.5 380 L 493.5 380 L 488.5 382 L 468.5 382 L 467.5 381 L 463.5 381 L 454.5 378 L 446.5 374 Q 436.4 367.6 429 358.5 L 423 349.5 L 418 336.5 L 417 327.5 L 416 326.5 L 416 313.5 L 417 312.5 L 418 303.5 L 423 290.5 L 429 281.5 L 439.5 271 L 454.5 262 L 463.5 259 L 467.5 259 L 468.5 258 Z " /><path fill="rgb(0,0,255)" stroke="rgb(0,0,255)" stroke-width="1" opacity="0.3607843137254902" d="M 157.5 252 L 173.5 253 L 174.5 254 L 178.5 254 L 187.5 258 L 189.5 258 Q 203.5 264.5 213 275.5 L 219 283.5 L 227 301.5 L 228 309.5 L 229 310.5 L 229 329.5 L 228 330.5 L 228 334.5 L 227 335.5 L 227 338.5 L 225 344.5 L 219 356.5 L 206.5 371 Q 198.4 378.4 187.5 383 L 178.5 386 L 174.5 386 L 173.5 387 L 157.5 388 L 156.5 387 L 149.5 387 L 148.5 386 L 141.5 385 L 135.5 382 L 133.5 382 L 121.5 375 L 111 365.5 L 103 354.5 L 96 338.5 L 95 329.5 L 94 328.5 L 94 311.5 L 95 310.5 L 95 305.5 L 96 304.5 L 97 298.5 L 103 285.5 L 115.5 270 L 121.5 265 L 133.5 258 L 135.5 258 L 141.5 255 L 144.5 255 L 149.5 253 L 156.5 253 L 157.5 252 Z " /><path fill="rgb(54,54,0)" stroke="rgb(54,54,0)" stroke-width="1" opacity="0.996078431372549" d="M 479.5 165 L 634 320.5 L 479.5 475 L 479 474.5 L 633 319.5 L 479 165.5 L 479.5 165 Z " /><path fill="rgb(54,54,0)" stroke="rgb(54,54,0)" stroke-width="1" opacity="0.996078431372549" d="M 383.5 380 L 419 415.5 L 418.5 416 L 383 380.5 L 383.5 380 Z " /><path fill="rgb(0,0,0)" stroke="rgb(0,0,0)" stroke-width="1" opacity="0" d="M 0.5 0 L 319 0.5 L 0.5 319 L 0 318.5 L 0.5 0 Z " /><path fill="rgb(0,0,0)" stroke="rgb(0,0,0)" stroke-width="1" opacity="0" d="M 321.5 0 L 640 0.5 L 639.5 319 L 321 0.5 L 321.5 0 Z " /><path fill="rgb(0,0,0)" stroke="rgb(0,0,0)" stroke-width="1" opacity="0" d="M 0.5 321 L 319 639.5 L 318.5 640 L 0 639.5 L 0.5 321 Z " /><path fill="rgb(0,0,0)" stroke="rgb(0,0,0)" stroke-width="1" opacity="0" d="M 639.5 321 L 640 639.5 L 321.5 640 L 321 639.5 L 639.5 321 Z " /><path fill="rgb(0,0,0)" stroke="rgb(0,0,0)" stroke-width="1" opacity="0" d="M 319.5 324 L 475 478.5 L 319.5 633 L 165 478.5 L 319.5 324 Z " /></svg>