<svg viewBox="0 0 554 640" version="1.1" xmlns="http://www.w3.org/2000/svg" desc="Created with imagetracer.js version 1.2.6" ><path fill="rgb(0,0,254)" stroke="rgb(0,0,254)" stroke-width="1" opacity="0.9725490196078431" d="M 370.5 160 L 399.5 160 L 401 161.5 L 410 178.5 L 423 199.5 L 425 204.5 L 438 225.5 L 440 230.5 L 453 251.5 L 455 256.5 L 468 277.5 L 470 282.5 L 475 289.5 L 477 294.5 L 472 301.5 L 462.5 319 L 460 317.5 L 450 298.5 L 445 291.5 L 435 272.5 L 430 265.5 L 420 246.5 L 415 239.5 L 405 220.5 L 400 213.5 L 394 201.5 L 370 161.5 L 370.5 160 Z " /><path fill="rgb(0,0,254)" stroke="rgb(0,0,254)" stroke-width="1" opacity="0.9725490196078431" d="M 431.5 160 L 462 160.5 L 475 184.5 L 480 191.5 L 490 210.5 L 508 240.5 L 492.5 266 L 476 238.5 L 474 233.5 L 472 231.5 L 470 226.5 L 465 219.5 L 455 200.5 L 450 193.5 L 440 174.5 L 431 160.5 L 431.5 160 Z " /><path fill="rgb(0,0,254)" stroke="rgb(0,0,254)" stroke-width="1" opacity="0.9725490196078431" d="M 493.5 160 L 522.5 160 L 524 161.5 L 536 183.5 L 538 185.5 L 538 188.5 L 523.5 213 L 507 185.5 L 505 180.5 L 503 178.5 L 501 173.5 L 496 166.5 L 493 160.5 L 493.5 160 Z " /><path fill="rgb(0,0,254)" stroke="rgb(0,0,254)" stroke-width="1" opacity="0.9725490196078431" d="M 353.5 188 L 355 188.5 L 430 319.5 L 400.5 320 L 387 297.5 L 385 292.5 L 383 290.5 L 381 285.5 L 376 278.5 L 374 273.5 L 372 271.5 L 370 266.5 L 368 264.5 L 366 259.5 L 361 252.5 L 351 233.5 L 346 226.5 L 339 212.5 L 353.5 188 Z " /><path fill="rgb(0,0,254)" stroke="rgb(0,0,254)" stroke-width="1" opacity="0.9725490196078431" d="M 322.5 241 L 324 241.5 L 369 319.5 L 339.5 320 L 337 317.5 L 335 312.5 L 333 310.5 L 331 305.5 L 326 298.5 L 324 293.5 L 322 291.5 L 320 286.5 L 308 266.5 L 322.5 241 Z " /><path fill="rgb(0,0,254)" stroke="rgb(0,0,254)" stroke-width="1" opacity="0.9725490196078431" d="M 292.5 294 L 307 319.5 L 277.5 320 L 277 319.5 L 279 317.5 L 281 312.5 L 292.5 294 Z " /><path fill="rgb(0,0,254)" stroke="rgb(0,0,254)" stroke-width="1" opacity="0.9725490196078431" d="M 93.5 320 L 122.5 320 L 124 321.5 L 200 453.5 L 189 471.5 L 187 476.5 L 184.5 479 L 171 456.5 L 169 451.5 L 167 449.5 L 165 444.5 L 160 437.5 L 158 432.5 L 156 430.5 L 154 425.5 L 149 418.5 L 139 399.5 L 134 392.5 L 124 373.5 L 119 366.5 L 109 347.5 L 104 340.5 L 98 328.5 L 93 321.5 L 93.5 320 Z " /><path fill="rgb(0,0,254)" stroke="rgb(0,0,254)" stroke-width="1" opacity="0.9725490196078431" d="M 154.5 320 L 185 320.5 L 198 344.5 L 203 351.5 L 213 370.5 L 230 398.5 L 230 401.5 L 215.5 426 L 199 398.5 L 197 393.5 L 195 391.5 L 193 386.5 L 188 379.5 L 178 360.5 L 173 353.5 L 163 334.5 L 154 320.5 L 154.5 320 Z " /><path fill="rgb(0,0,254)" stroke="rgb(0,0,254)" stroke-width="1" opacity="0.9725490196078431" d="M 216.5 320 L 245.5 320 L 247 321.5 L 259 343.5 L 261 345.5 L 261 347.5 L 246.5 372 L 245 371.5 L 239 359.5 L 219 326.5 L 216 320.5 L 216.5 320 Z " /><path fill="rgb(0,0,254)" stroke="rgb(0,0,254)" stroke-width="1" opacity="0.9725490196078431" d="M 76.5 347 L 84 358.5 L 86 363.5 L 99 384.5 L 101 389.5 L 114 410.5 L 116 415.5 L 129 436.5 L 131 441.5 L 133 443.5 L 153 479.5 L 123.5 480 L 110 457.5 L 108 452.5 L 106 450.5 L 104 445.5 L 99 438.5 L 97 433.5 L 95 431.5 L 93 426.5 L 91 424.5 L 89 419.5 L 84 412.5 L 74 393.5 L 65 379.5 L 62 373.5 L 62 371.5 L 64 369.5 L 76.5 347 Z " /><path fill="rgb(0,0,254)" stroke="rgb(0,0,254)" stroke-width="1" opacity="0.9725490196078431" d="M 45.5 401 L 47 401.5 L 92 479.5 L 62.5 480 L 60 477.5 L 54 465.5 L 49 458.5 L 39 439.5 L 34 432.5 L 31 425.5 L 45.5 401 Z " /><path fill="rgb(0,0,254)" stroke="rgb(0,0,254)" stroke-width="1" opacity="0.9725490196078431" d="M 15.5 454 L 30 479.5 L 0.5 480 L 1 478.5 L 13 456.5 L 15.5 454 Z " /><path fill="rgb(0,254,0)" stroke="rgb(0,254,0)" stroke-width="1" opacity="0.996078431372549" d="M 31.5 160 L 61 160.5 L 30.5 213 L 21 195.5 L 16 188.5 L 16 185.5 L 31.5 160 Z " /><path fill="rgb(0,254,0)" stroke="rgb(0,254,0)" stroke-width="1" opacity="0.996078431372549" d="M 92.5 160 L 122 160.5 L 112 179.5 L 107 186.5 L 97 205.5 L 92 212.5 L 90 217.5 L 88 219.5 L 86 224.5 L 84 226.5 L 82 231.5 L 77 238.5 L 75 243.5 L 61.5 266 L 46 240.5 L 92.5 160 Z " /><path fill="rgb(0,254,0)" stroke="rgb(0,254,0)" stroke-width="1" opacity="0.996078431372549" d="M 154.5 160 L 184 160.5 L 92.5 319 L 91 318.5 L 89 313.5 L 77 293.5 L 154.5 160 Z " /><path fill="rgb(0,254,0)" stroke="rgb(0,254,0)" stroke-width="1" opacity="0.996078431372549" d="M 199.5 188 L 202 189.5 L 215 213.5 L 153.5 320 L 124 319.5 L 199.5 188 Z " /><path fill="rgb(0,254,0)" stroke="rgb(0,254,0)" stroke-width="1" opacity="0.996078431372549" d="M 230.5 241 L 232 241.5 L 234 246.5 L 246 266.5 L 231 291.5 L 229 296.5 L 227 298.5 L 225 303.5 L 223 305.5 L 221 310.5 L 214.5 320 L 185 319.5 L 230.5 241 Z " /><path fill="rgb(0,254,0)" stroke="rgb(0,254,0)" stroke-width="1" opacity="0.996078431372549" d="M 261.5 294 L 277 319.5 L 247.5 320 L 247 318.5 L 249 316.5 L 261.5 294 Z " /><path fill="rgb(0,254,0)" stroke="rgb(0,254,0)" stroke-width="1" opacity="0.996078431372549" d="M 308.5 320 L 338 320.5 L 308.5 372 L 306 370.5 L 297 353.5 L 295 351.5 L 293 345.5 L 308.5 320 Z " /><path fill="rgb(0,254,0)" stroke="rgb(0,254,0)" stroke-width="1" opacity="0.996078431372549" d="M 369.5 320 L 400 320.5 L 395 327.5 L 385 346.5 L 380 353.5 L 374 365.5 L 369 372.5 L 367 377.5 L 365 379.5 L 363 384.5 L 361 386.5 L 359 391.5 L 354 398.5 L 352 403.5 L 338.5 426 L 325 403.5 L 324 398.5 L 333 384.5 L 335 379.5 L 337 377.5 L 339 372.5 L 348 358.5 L 350 353.5 L 352 351.5 L 369.5 320 Z " /><path fill="rgb(0,254,0)" stroke="rgb(0,254,0)" stroke-width="1" opacity="0.996078431372549" d="M 431.5 320 L 461 320.5 L 369.5 479 L 354 453.5 L 431.5 320 Z " /><path fill="rgb(0,254,0)" stroke="rgb(0,254,0)" stroke-width="1" opacity="0.996078431372549" d="M 477.5 347 L 492 373.5 L 430.5 480 L 401 479.5 L 421 443.5 L 430 429.5 L 432 424.5 L 434 422.5 L 436 417.5 L 441 410.5 L 447 398.5 L 452 391.5 L 462 372.5 L 477.5 347 Z " /><path fill="rgb(0,254,0)" stroke="rgb(0,254,0)" stroke-width="1" opacity="0.996078431372549" d="M 507.5 401 L 509 401.5 L 523 426.5 L 511 446.5 L 509 451.5 L 504 458.5 L 502 463.5 L 500 465.5 L 498 470.5 L 496 472.5 L 494 477.5 L 491.5 480 L 462 479.5 L 507.5 401 Z " /><path fill="rgb(0,254,0)" stroke="rgb(0,254,0)" stroke-width="1" opacity="0.996078431372549" d="M 538.5 454 L 554 479.5 L 524.5 480 L 524 478.5 L 526 476.5 L 538.5 454 Z " /><path fill="rgb(0,254,254)" stroke="rgb(0,254,254)" stroke-width="1" opacity="0.996078431372549" d="M 261.5 27 L 293 27.5 L 307 52.5 L 247.5 53 L 247 51.5 L 261.5 27 Z " /><path fill="rgb(0,254,254)" stroke="rgb(0,254,254)" stroke-width="1" opacity="0.996078431372549" d="M 231.5 80 L 322.5 80 L 325 82.5 L 327 87.5 L 338 105.5 L 216.5 106 L 217 104.5 L 229 82.5 L 231.5 80 Z " /><path fill="rgb(0,254,254)" stroke="rgb(0,254,254)" stroke-width="1" opacity="0.996078431372549" d="M 199.5 134 L 355 134.5 L 357 139.5 L 369 159.5 L 185.5 160 L 186 158.5 L 199.5 134 Z " /><path fill="rgb(0,254,254)" stroke="rgb(0,254,254)" stroke-width="1" opacity="0.996078431372549" d="M 201.5 187 L 353 187.5 L 338.5 213 L 215 212.5 L 203 190.5 L 201 188.5 L 201.5 187 Z " /><path fill="rgb(0,254,254)" stroke="rgb(0,254,254)" stroke-width="1" opacity="0.996078431372549" d="M 231.5 240 L 323 240.5 L 307.5 266 L 246.5 266 L 245 264.5 L 233 242.5 L 231 240.5 L 231.5 240 Z " /><path fill="rgb(0,254,254)" stroke="rgb(0,254,254)" stroke-width="1" opacity="0.996078431372549" d="M 262.5 294 L 292 294.5 L 287 301.5 L 277.5 319 L 276 318.5 L 274 313.5 L 262 294.5 L 262.5 294 Z " /><path fill="rgb(0,254,254)" stroke="rgb(0,254,254)" stroke-width="1" opacity="0.996078431372549" d="M 261.5 347 L 293 347.5 L 307 372.5 L 247.5 373 L 248 371.5 L 261.5 347 Z " /><path fill="rgb(0,254,254)" stroke="rgb(0,254,254)" stroke-width="1" opacity="0.996078431372549" d="M 231.5 400 L 322.5 400 L 324 401.5 L 338 425.5 L 216.5 426 L 216 425.5 L 218 423.5 L 228 404.5 L 231.5 400 Z " /><path fill="rgb(0,254,254)" stroke="rgb(0,254,254)" stroke-width="1" opacity="0.996078431372549" d="M 200.5 454 L 353.5 454 L 356 456.5 L 358 461.5 L 369 479.5 L 185.5 480 L 186 478.5 L 198 456.5 L 200.5 454 Z " /><path fill="rgb(0,254,254)" stroke="rgb(0,254,254)" stroke-width="1" opacity="0.996078431372549" d="M 201.5 507 L 353 507.5 L 351 512.5 L 338.5 533 L 215.5 533 L 214 531.5 L 212 526.5 L 203 512.5 L 201 508.5 L 201.5 507 Z " /><path fill="rgb(0,254,254)" stroke="rgb(0,254,254)" stroke-width="1" opacity="0.996078431372549" d="M 231.5 560 L 323 560.5 L 312 578.5 L 310 583.5 L 307.5 586 L 246.5 586 L 244 583.5 L 242 578.5 L 233 564.5 L 231 560.5 L 231.5 560 Z " /><path fill="rgb(0,254,254)" stroke="rgb(0,254,254)" stroke-width="1" opacity="0.996078431372549" d="M 262.5 614 L 292 614.5 L 277.5 639 L 276 638.5 L 265 618.5 L 263 616.5 L 262.5 614 Z " /><path fill="rgb(94,158,159)" stroke="rgb(94,158,159)" stroke-width="1" opacity="0.9725490196078431" d="M 216.5 106 L 338 106.5 L 216.5 107 L 216.5 106 Z " /><path fill="rgb(94,158,159)" stroke="rgb(94,158,159)" stroke-width="1" opacity="0.9725490196078431" d="M 200.5 133 L 354 133.5 L 200.5 134 L 200.5 133 Z " /><path fill="rgb(94,158,159)" stroke="rgb(94,158,159)" stroke-width="1" opacity="0.9725490196078431" d="M 246.5 266 L 308 266.5 L 246.5 267 L 246.5 266 Z " /><path fill="rgb(94,158,159)" stroke="rgb(94,158,159)" stroke-width="1" opacity="0.9725490196078431" d="M 262.5 293 L 292 293.5 L 262.5 294 L 262.5 293 Z " /><path fill="rgb(94,158,159)" stroke="rgb(94,158,159)" stroke-width="1" opacity="0.9725490196078431" d="M 215.5 426 L 339 426.5 L 215.5 427 L 215.5 426 Z " /><path fill="rgb(94,158,159)" stroke="rgb(94,158,159)" stroke-width="1" opacity="0.9725490196078431" d="M 199.5 452 L 200.5 453 L 353.5 453 L 355 452.5 L 353.5 454 L 200.5 454 Q 198 453 199.5 452 Z " /><path fill="rgb(94,158,159)" stroke="rgb(94,158,159)" stroke-width="1" opacity="0.9725490196078431" d="M 246.5 586 L 308 586.5 L 246.5 587 L 246.5 586 Z " /><path fill="rgb(94,158,159)" stroke="rgb(94,158,159)" stroke-width="1" opacity="0.9725490196078431" d="M 262.5 613 L 292 613.5 L 262.5 614 L 262.5 613 Z " /><path fill="rgb(254,0,0)" stroke="rgb(254,0,0)" stroke-width="1" opacity="0.996078431372549" d="M 276.5 1 L 278 1.5 L 287 18.5 L 292 25.5 L 262.5 26 L 262 25.5 L 264 23.5 L 276.5 1 Z " /><path fill="rgb(254,0,0)" stroke="rgb(254,0,0)" stroke-width="1" opacity="0.996078431372549" d="M 246.5 54 L 307.5 54 L 309 55.5 L 323 79.5 L 231.5 80 L 232 78.5 L 243 58.5 L 246.5 54 Z " /><path fill="rgb(254,0,0)" stroke="rgb(254,0,0)" stroke-width="1" opacity="0.996078431372549" d="M 215.5 107 L 339 107.5 L 353 132.5 L 201.5 133 L 201 131.5 L 215.5 107 Z " /><path fill="rgb(254,0,0)" stroke="rgb(254,0,0)" stroke-width="1" opacity="0.996078431372549" d="M 185.5 160 L 369 160.5 L 358 178.5 L 356 183.5 L 353.5 186 L 200.5 186 L 198 183.5 L 188 164.5 L 186 162.5 L 185.5 160 Z " /><path fill="rgb(254,0,0)" stroke="rgb(254,0,0)" stroke-width="1" opacity="0.996078431372549" d="M 216.5 214 L 338 214.5 L 322.5 240 L 231.5 240 L 230 238.5 L 218 216.5 L 216 214.5 L 216.5 214 Z " /><path fill="rgb(254,0,0)" stroke="rgb(254,0,0)" stroke-width="1" opacity="0.996078431372549" d="M 247.5 267 L 307 267.5 L 292.5 293 L 261 292.5 L 252 275.5 L 250 273.5 L 247 267.5 L 247.5 267 Z " /><path fill="rgb(254,0,0)" stroke="rgb(254,0,0)" stroke-width="1" opacity="0.996078431372549" d="M 276.5 321 L 278 321.5 L 287 338.5 L 292 345.5 L 262.5 346 L 262 345.5 L 264 343.5 L 276.5 321 Z " /><path fill="rgb(254,0,0)" stroke="rgb(254,0,0)" stroke-width="1" opacity="0.996078431372549" d="M 246.5 374 L 307.5 374 L 309 375.5 L 323 399.5 L 231.5 400 L 231 399.5 L 233 397.5 L 243 378.5 L 246.5 374 Z " /><path fill="rgb(254,0,0)" stroke="rgb(254,0,0)" stroke-width="1" opacity="0.996078431372549" d="M 215.5 427 L 339 427.5 L 353 452.5 L 201.5 453 L 201 451.5 L 215.5 427 Z " /><path fill="rgb(254,0,0)" stroke="rgb(254,0,0)" stroke-width="1" opacity="0.996078431372549" d="M 185.5 480 L 369 480.5 L 358 498.5 L 356 503.5 L 353.5 506 L 200.5 506 L 198 503.5 L 196 498.5 L 187 484.5 L 185 480.5 L 185.5 480 Z " /><path fill="rgb(254,0,0)" stroke="rgb(254,0,0)" stroke-width="1" opacity="0.996078431372549" d="M 216.5 534 L 338 534.5 L 322.5 560 L 231.5 560 L 230 558.5 L 219 538.5 L 217 536.5 L 216.5 534 Z " /><path fill="rgb(254,0,0)" stroke="rgb(254,0,0)" stroke-width="1" opacity="0.996078431372549" d="M 247.5 587 L 307 587.5 L 292.5 613 L 261 612.5 L 252 595.5 L 247 588.5 L 247.5 587 Z " /><path fill="rgb(254,0,254)" stroke="rgb(254,0,254)" stroke-width="1" opacity="0.996078431372549" d="M 0.5 160 L 30 160.5 L 15.5 186 L 0 160.5 L 0.5 160 Z " /><path fill="rgb(254,0,254)" stroke="rgb(254,0,254)" stroke-width="1" opacity="0.996078431372549" d="M 62.5 160 L 92 160.5 L 46.5 239 L 45 238.5 L 31 213.5 L 42 193.5 L 47 186.5 L 49 181.5 L 51 179.5 L 53 174.5 L 58 167.5 L 60 162.5 L 62.5 160 Z " /><path fill="rgb(254,0,254)" stroke="rgb(254,0,254)" stroke-width="1" opacity="0.996078431372549" d="M 123.5 160 L 153 160.5 L 151 165.5 L 146 172.5 L 136 191.5 L 131 198.5 L 125 210.5 L 120 217.5 L 118 222.5 L 116 224.5 L 114 229.5 L 112 231.5 L 110 236.5 L 105 243.5 L 103 248.5 L 101 250.5 L 99 255.5 L 97 257.5 L 95 262.5 L 90 269.5 L 77.5 292 L 75 290.5 L 62 266.5 L 123.5 160 Z " /><path fill="rgb(254,0,254)" stroke="rgb(254,0,254)" stroke-width="1" opacity="0.996078431372549" d="M 184.5 161 L 187 163.5 L 189 168.5 L 200 186.5 L 122.5 320 L 93 319.5 L 184.5 161 Z " /><path fill="rgb(254,0,254)" stroke="rgb(254,0,254)" stroke-width="1" opacity="0.996078431372549" d="M 215.5 214 L 229 236.5 L 230 241.5 L 184.5 320 L 154 319.5 L 156 317.5 L 162 305.5 L 167 298.5 L 177 279.5 L 182 272.5 L 192 253.5 L 197 246.5 L 199 241.5 L 215.5 214 Z " /><path fill="rgb(254,0,254)" stroke="rgb(254,0,254)" stroke-width="1" opacity="0.996078431372549" d="M 245.5 268 L 248 269.5 L 257 286.5 L 259 288.5 L 261 294.5 L 245.5 320 L 216 319.5 L 245.5 268 Z " /><path fill="rgb(254,0,254)" stroke="rgb(254,0,254)" stroke-width="1" opacity="0.996078431372549" d="M 277.5 320 L 307 320.5 L 292.5 346 L 277 320.5 L 277.5 320 Z " /><path fill="rgb(254,0,254)" stroke="rgb(254,0,254)" stroke-width="1" opacity="0.996078431372549" d="M 339.5 320 L 369 320.5 L 323.5 399 L 321 396.5 L 319 391.5 L 308 373.5 L 320 353.5 L 322 348.5 L 324 346.5 L 326 341.5 L 328 339.5 L 330 334.5 L 335 327.5 L 337 322.5 L 339.5 320 Z " /><path fill="rgb(254,0,254)" stroke="rgb(254,0,254)" stroke-width="1" opacity="0.996078431372549" d="M 400.5 320 L 430 320.5 L 428 325.5 L 423 332.5 L 413 351.5 L 408 358.5 L 398 377.5 L 393 384.5 L 391 389.5 L 389 391.5 L 387 396.5 L 382 403.5 L 380 408.5 L 378 410.5 L 376 415.5 L 374 417.5 L 372 422.5 L 367 429.5 L 354.5 452 L 353 451.5 L 339 426.5 L 400.5 320 Z " /><path fill="rgb(254,0,254)" stroke="rgb(254,0,254)" stroke-width="1" opacity="0.996078431372549" d="M 461.5 321 L 464 323.5 L 477 346.5 L 399.5 480 L 370 479.5 L 461.5 321 Z " /><path fill="rgb(254,0,254)" stroke="rgb(254,0,254)" stroke-width="1" opacity="0.996078431372549" d="M 492.5 374 L 505 394.5 L 507 398.5 L 507 401.5 L 461.5 480 L 431 479.5 L 433 477.5 L 439 465.5 L 444 458.5 L 454 439.5 L 459 432.5 L 469 413.5 L 474 406.5 L 476 401.5 L 492.5 374 Z " /><path fill="rgb(254,0,254)" stroke="rgb(254,0,254)" stroke-width="1" opacity="0.996078431372549" d="M 523.5 427 L 533 444.5 L 535 446.5 L 538 452.5 L 538 454.5 L 522.5 480 L 493 479.5 L 523.5 427 Z " /><path fill="rgb(254,1,255)" stroke="rgb(254,1,255)" stroke-width="1" opacity="0.023529411764705882" d="M 0.5 157 L 31 157.5 L 0.5 158 L 0.5 157 Z " /><path fill="rgb(254,1,255)" stroke="rgb(254,1,255)" stroke-width="1" opacity="0.023529411764705882" d="M 62.5 157 L 92 157.5 L 62.5 158 L 62.5 157 Z " /><path fill="rgb(254,1,255)" stroke="rgb(254,1,255)" stroke-width="1" opacity="0.023529411764705882" d="M 123.5 157 L 154 157.5 L 123.5 158 L 123.5 157 Z " /><path fill="rgb(254,1,255)" stroke="rgb(254,1,255)" stroke-width="1" opacity="0.023529411764705882" d="M 0.5 159 L 31 159.5 L 0.5 160 L 0.5 159 Z " /><path fill="rgb(254,1,255)" stroke="rgb(254,1,255)" stroke-width="1" opacity="0.023529411764705882" d="M 62.5 159 L 92 159.5 L 62.5 160 L 62.5 159 Z " /><path fill="rgb(254,1,255)" stroke="rgb(254,1,255)" stroke-width="1" opacity="0.023529411764705882" d="M 123.5 159 L 154 159.5 L 123.5 160 L 123.5 159 Z " /><path fill="rgb(254,1,255)" stroke="rgb(254,1,255)" stroke-width="1" opacity="0.023529411764705882" d="M 0.5 163 L 2 163.5 L 1.5 165 L 3 165.5 Q 0.5 167 4 168.5 L 4.5 170 L 6 170.5 L 5.5 172 L 7 172.5 Q 4.8 173.8 7.5 175 L 9 175.5 L 8.5 177 L 10 177.5 Q 8 178.5 10 179.5 L 11.5 182 L 13 182.5 L 12.5 184 L 14 184.5 Q 12.5 187.5 11 184.5 L 5 172.5 L 0 165.5 L 0.5 163 Z " /><path fill="rgb(254,1,255)" stroke="rgb(254,1,255)" stroke-width="1" opacity="0.023529411764705882" d="M 29.5 214 L 30.5 216 L 32 215.5 L 31.5 217 L 33 217.5 Q 30.5 219 34 220.5 L 34.5 222 L 36 222.5 L 35.5 224 L 37 224.5 Q 34.8 225.8 37.5 227 L 39 227.5 L 38.5 229 L 40 229.5 Q 38 230.5 40 231.5 L 41.5 234 L 43 234.5 L 42.5 236 L 44 236.5 Q 42 237.5 44 238.5 L 43.5 240 L 31 217.5 L 29 215.5 L 29.5 214 Z " /><path fill="rgb(254,1,255)" stroke="rgb(254,1,255)" stroke-width="1" opacity="0.023529411764705882" d="M 59.5 266 L 60.5 268 L 62 267.5 L 61.5 269 L 63 269.5 Q 60.7 270.7 63.5 272 L 65 272.5 L 64.5 274 L 66 274.5 L 65.5 276 L 67 276.5 Q 64.8 277.8 67.5 279 L 69 279.5 L 68.5 281 L 70 281.5 Q 68 282.5 70 283.5 L 71.5 286 L 73 286.5 L 72.5 288 L 74 288.5 Q 71.5 290 75 291.5 L 74.5 293 L 59 267.5 L 59.5 266 Z " /><path fill="rgb(254,1,255)" stroke="rgb(254,1,255)" stroke-width="1" opacity="0.023529411764705882" d="M 464.5 320 L 478 343.5 L 477.5 344 L 475.5 342 L 474 341.5 L 474.5 340 L 473 339.5 L 473.5 338 L 472 337.5 Q 474.3 336.2 471.5 335 L 470 334.5 L 470.5 333 L 469 332.5 Q 471 331.5 469 330.5 L 467.5 328 L 466 327.5 L 466.5 326 L 465 325.5 Q 467.5 324 464 322.5 L 464.5 320 Z " /><path fill="rgb(254,1,255)" stroke="rgb(254,1,255)" stroke-width="1" opacity="0.023529411764705882" d="M 494.5 374 L 496 374.5 L 510 399.5 L 509 399.5 L 508.5 398 L 507 398.5 L 507.5 397 L 506 396.5 Q 508.5 395 505 393.5 L 504.5 392 L 503 391.5 L 503.5 390 L 502 389.5 Q 504.2 388.3 501.5 387 L 500 386.5 L 500.5 385 L 499 384.5 Q 501 383.5 499 382.5 L 497.5 380 L 496 379.5 L 496.5 378 L 495 377.5 L 496 376.5 L 494 374.5 L 494.5 374 Z " /><path fill="rgb(254,1,255)" stroke="rgb(254,1,255)" stroke-width="1" opacity="0.023529411764705882" d="M 524.5 426 L 528 429.5 L 541 453.5 L 540 453.5 L 538.5 451 L 537 450.5 L 537.5 449 L 536 448.5 Q 538.5 447 535 445.5 L 534.5 444 L 533 443.5 L 533.5 442 L 532 441.5 Q 534.3 440.3 531.5 439 L 530 438.5 L 530.5 437 L 529 436.5 Q 531 435.5 529 434.5 L 527.5 432 L 526 431.5 L 526.5 430 L 525 429.5 L 526 428.5 L 524 426.5 L 524.5 426 Z " /><path fill="rgb(254,1,255)" stroke="rgb(254,1,255)" stroke-width="1" opacity="0.023529411764705882" d="M 370.5 480 L 400 480.5 L 370.5 481 L 370.5 480 Z " /><path fill="rgb(254,1,255)" stroke="rgb(254,1,255)" stroke-width="1" opacity="0.023529411764705882" d="M 431.5 480 L 461 480.5 L 431.5 481 L 431.5 480 Z " /><path fill="rgb(254,1,255)" stroke="rgb(254,1,255)" stroke-width="1" opacity="0.023529411764705882" d="M 492.5 480 L 523 480.5 L 492.5 481 L 492.5 480 Z " /><path fill="rgb(254,1,255)" stroke="rgb(254,1,255)" stroke-width="1" opacity="0.023529411764705882" d="M 370.5 482 L 400 482.5 L 370.5 483 L 370.5 482 Z " /><path fill="rgb(254,1,255)" stroke="rgb(254,1,255)" stroke-width="1" opacity="0.023529411764705882" d="M 431.5 482 L 462 482.5 L 431.5 483 L 431.5 482 Z " /><path fill="rgb(254,1,255)" stroke="rgb(254,1,255)" stroke-width="1" opacity="0.023529411764705882" d="M 493.5 482 L 523 482.5 L 493.5 483 L 493.5 482 Z " /><path fill="rgb(254,254,0)" stroke="rgb(254,254,0)" stroke-width="1" opacity="0.996078431372549" d="M 401.5 160 L 431 160.5 L 443 182.5 L 452 196.5 L 454 201.5 L 456 203.5 L 458 208.5 L 467 222.5 L 469 227.5 L 478 241.5 L 480 246.5 L 482 248.5 L 484 253.5 L 489 260.5 L 492 267.5 L 477.5 293 L 462 267.5 L 452 248.5 L 447 241.5 L 441 229.5 L 436 222.5 L 426 203.5 L 421 196.5 L 411 177.5 L 402 163.5 L 401.5 160 Z " /><path fill="rgb(254,254,0)" stroke="rgb(254,254,0)" stroke-width="1" opacity="0.996078431372549" d="M 462.5 160 L 491.5 160 L 494 162.5 L 496 167.5 L 509 188.5 L 523 214.5 L 518 221.5 L 508.5 239 L 507 238.5 L 487 202.5 L 474 181.5 L 472 176.5 L 463 162.5 L 462.5 160 Z " /><path fill="rgb(254,254,0)" stroke="rgb(254,254,0)" stroke-width="1" opacity="0.996078431372549" d="M 524.5 160 L 554 160.5 L 538.5 186 L 526 163.5 L 524 161.5 L 524.5 160 Z " /><path fill="rgb(254,254,0)" stroke="rgb(254,254,0)" stroke-width="1" opacity="0.996078431372549" d="M 369.5 161 L 461 319.5 L 431.5 320 L 354 186.5 L 365 168.5 L 367 163.5 L 369.5 161 Z " /><path fill="rgb(254,254,0)" stroke="rgb(254,254,0)" stroke-width="1" opacity="0.996078431372549" d="M 338.5 214 L 352 236.5 L 354 241.5 L 359 248.5 L 361 253.5 L 363 255.5 L 365 260.5 L 367 262.5 L 369 267.5 L 374 274.5 L 384 293.5 L 389 300.5 L 395 312.5 L 400 319.5 L 369.5 320 L 352 288.5 L 350 286.5 L 348 281.5 L 339 267.5 L 337 262.5 L 328 248.5 L 326 243.5 L 324 241.5 L 324 238.5 L 338.5 214 Z " /><path fill="rgb(254,254,0)" stroke="rgb(254,254,0)" stroke-width="1" opacity="0.996078431372549" d="M 307.5 268 L 309 268.5 L 311 273.5 L 313 275.5 L 315 280.5 L 317 282.5 L 319 287.5 L 324 294.5 L 326 299.5 L 338 319.5 L 308.5 320 L 293 294.5 L 293 292.5 L 307.5 268 Z " /><path fill="rgb(254,254,0)" stroke="rgb(254,254,0)" stroke-width="1" opacity="0.996078431372549" d="M 124.5 320 L 154 320.5 L 166 342.5 L 175 356.5 L 177 361.5 L 179 363.5 L 181 368.5 L 190 382.5 L 192 387.5 L 194 389.5 L 196 394.5 L 209 415.5 L 211 420.5 L 213 422.5 L 215 427.5 L 200.5 452 L 199 451.5 L 190 434.5 L 177 413.5 L 175 408.5 L 151 368.5 L 149 363.5 L 136 342.5 L 134 337.5 L 125 323.5 Q 123.3 322 124.5 320 Z " /><path fill="rgb(254,254,0)" stroke="rgb(254,254,0)" stroke-width="1" opacity="0.996078431372549" d="M 185.5 320 L 214.5 320 L 217 322.5 L 219 327.5 L 221 329.5 L 223 334.5 L 225 336.5 L 227 341.5 L 232 348.5 L 234 353.5 L 246 373.5 L 231.5 399 L 230 398.5 L 210 362.5 L 201 348.5 L 199 343.5 L 197 341.5 L 195 336.5 L 186 322.5 L 185.5 320 Z " /><path fill="rgb(254,254,0)" stroke="rgb(254,254,0)" stroke-width="1" opacity="0.996078431372549" d="M 247.5 320 L 277 320.5 L 261.5 346 L 249 323.5 L 247 321.5 L 247.5 320 Z " /><path fill="rgb(254,254,0)" stroke="rgb(254,254,0)" stroke-width="1" opacity="0.996078431372549" d="M 91.5 321 L 93 321.5 L 184 479.5 L 154.5 480 L 77 346.5 L 91.5 321 Z " /><path fill="rgb(254,254,0)" stroke="rgb(254,254,0)" stroke-width="1" opacity="0.996078431372549" d="M 61.5 374 L 75 396.5 L 77 401.5 L 82 408.5 L 84 413.5 L 86 415.5 L 88 420.5 L 90 422.5 L 92 427.5 L 97 434.5 L 103 446.5 L 108 453.5 L 122 479.5 L 92.5 480 L 46 399.5 L 61.5 374 Z " /><path fill="rgb(254,254,0)" stroke="rgb(254,254,0)" stroke-width="1" opacity="0.996078431372549" d="M 30.5 427 L 61 479.5 L 31.5 480 L 16 454.5 L 16 451.5 L 21 444.5 L 30.5 427 Z " /><path fill="rgb(0,0,0)" stroke="rgb(0,0,0)" stroke-width="1" opacity="0" d="M 0.5 0 L 274 0.5 L 272 4.5 L 274 4.5 L 272.5 6 L 271 5.5 L 272 7.5 L 270.5 7 L 269 8.5 L 268 11.5 L 270 11.5 L 268.5 13 L 267 12.5 L 268 14.5 L 266.5 14 L 265 15.5 L 264 18.5 L 266 18.5 L 264.5 20 Q 263.3 17.8 262 20.5 L 260 25.5 L 262 25.5 L 260.5 27 Q 259.3 24.8 258 27.5 L 257 30.5 L 259 30.5 L 257.5 32 L 256 31.5 L 257 33.5 L 255.5 33 L 254 34.5 L 253 37.5 L 255 37.5 L 253.5 39 L 252 38.5 L 253 40.5 L 251.5 40 L 250 41.5 L 249 44.5 L 251 44.5 L 249.5 46 Q 248.3 43.8 247 46.5 L 246 49.5 L 248 49.5 L 245.5 53 Q 244.3 50.8 243 53.5 L 242 56.5 L 244 56.5 L 242.5 58 L 241 57.5 L 242 59.5 L 240.5 59 L 239 60.5 L 238 63.5 L 240 63.5 L 238.5 65 L 237 64.5 L 238 66.5 L 236.5 66 L 235 67.5 L 234 70.5 L 236 70.5 L 234.5 72 L 233 71.5 L 234 73.5 L 232.5 73 L 231 74.5 L 231.5 76 L 233 75.5 L 230.5 79 Q 229.3 76.8 228 79.5 L 227 82.5 L 229 82.5 L 227.5 84 L 226 83.5 L 227 85.5 L 225.5 85 L 224 86.5 L 223 89.5 L 225 89.5 L 223.5 91 L 222 90.5 L 223 92.5 L 221.5 92 L 220 93.5 L 219 96.5 L 221 96.5 L 219.5 98 Q 218.3 95.7 217 98.5 L 216 101.5 L 218 101.5 L 215.5 105 Q 214.3 102.8 213 105.5 L 212 108.5 L 214 108.5 L 212.5 110 L 211 109.5 L 212 111.5 L 210.5 111 L 209 112.5 L 208 115.5 L 210 115.5 L 208.5 117 L 207 116.5 L 208 118.5 L 206.5 118 L 205 119.5 L 204 122.5 L 206 122.5 L 204.5 124 L 203 123.5 L 204 125.5 L 202.5 125 L 201 126.5 L 201.5 128 L 203 127.5 L 200.5 131 Q 199.3 128.8 198 131.5 L 197 134.5 L 199 134.5 L 197.5 136 L 196 135.5 L 197 137.5 L 195.5 137 L 194 138.5 L 193 141.5 L 195 141.5 L 193.5 143 L 192 142.5 L 193 144.5 L 191.5 144 L 190 145.5 L 189 148.5 L 191 148.5 L 189.5 150 Q 188.3 147.7 187 150.5 L 186 153.5 L 188 153.5 L 185.5 157 Q 184.5 155 183.5 157 L 62 157.5 L 185 158.5 L 0.5 159 L 0.5 158 L 61 157.5 L 0 156.5 L 0.5 0 Z " /><path fill="rgb(0,0,0)" stroke="rgb(0,0,0)" stroke-width="1" opacity="0" d="M 280.5 0 L 554 0.5 L 553.5 157 L 493 157.5 L 554 158.5 L 369.5 159 L 369.5 158 L 492 157.5 L 370.5 157 L 369.5 156 Q 368.3 158.3 367 155.5 L 366 153.5 L 368 153.5 L 365.5 149 Q 364.3 151.3 363 148.5 L 365 148.5 L 362.5 144 L 361 144.5 L 362 142.5 L 360.5 143 L 359 141.5 L 361 141.5 L 358.5 137 L 357 137.5 L 358 135.5 L 356.5 136 L 355 134.5 L 357 134.5 L 354.5 130 Q 353.3 132.3 352 129.5 L 351 127.5 L 353 127.5 L 350.5 123 Q 349.3 125.2 348 122.5 L 350 122.5 L 347.5 118 L 346 118.5 L 347 116.5 L 345.5 117 L 344 115.5 L 346 115.5 L 343.5 111 L 342 111.5 L 343 109.5 L 341.5 110 L 340 108.5 L 342 108.5 L 339.5 104 Q 338.3 106.3 337 103.5 L 336 101.5 L 338 101.5 L 336.5 99 L 335 99.5 L 336 97.5 L 334.5 98 L 333 96.5 L 335 96.5 L 332.5 92 L 331 92.5 L 332 90.5 L 330.5 91 L 329 89.5 L 331 89.5 L 328.5 85 L 327 85.5 L 328 83.5 L 326.5 84 L 325 82.5 L 327 82.5 L 324.5 78 Q 323.3 80.3 322 77.5 L 321 75.5 L 323 75.5 L 320.5 71 Q 319.3 73.3 318 70.5 L 320 70.5 L 317.5 66 L 316 66.5 L 317 64.5 L 315.5 65 L 314 63.5 L 316 63.5 L 313.5 59 L 312 59.5 L 313 57.5 L 311.5 58 L 310 56.5 L 312 56.5 L 309.5 52 Q 308.2 54.3 307 51.5 L 309 51.5 L 306.5 47 L 305 47.5 L 306 45.5 L 304.5 46 L 303 44.5 L 305 44.5 L 302.5 40 L 301 40.5 L 302 38.5 L 300.5 39 L 299 37.5 L 301 37.5 L 298.5 33 Q 297.3 35.3 296 32.5 L 295 30.5 L 297 30.5 L 294.5 26 Q 293.3 28.3 292 25.5 L 294 25.5 L 291.5 21 L 290 21.5 L 291 19.5 L 289.5 20 L 288 18.5 L 290 18.5 L 287.5 14 L 286 14.5 L 287 12.5 L 285.5 13 L 284 11.5 L 286 11.5 L 283.5 7 Q 282.3 9.3 281 6.5 L 280 4.5 L 282 4.5 L 280 0.5 L 280.5 0 Z " /><path fill="rgb(0,0,0)" stroke="rgb(0,0,0)" stroke-width="1" opacity="0" d="M 0.5 166 Q 1.5 168 2.5 166 L 4 167.5 L 2 167.5 L 4.5 172 L 6 171.5 L 5 173.5 L 6.5 173 L 8 174.5 L 6 174.5 L 8.5 179 Q 9.8 176.8 11 179.5 L 12 181.5 L 10 181.5 L 12.5 186 Q 13.8 183.8 15 186.5 L 16 188.5 L 14 188.5 L 16.5 193 Q 17.8 190.7 19 193.5 L 17 193.5 L 19.5 198 L 21 197.5 L 20 199.5 L 21.5 199 L 23 200.5 L 21 200.5 L 23.5 205 Q 24.8 202.8 26 205.5 L 27 207.5 L 25 207.5 L 27.5 212 Q 28.8 209.8 30 212.5 L 28 212.5 L 30.5 217 L 32 216.5 L 31 218.5 L 32.5 218 L 34 219.5 L 32 219.5 L 34.5 224 L 36 223.5 L 35 225.5 L 36.5 225 L 38 226.5 L 36 226.5 L 38.5 231 Q 39.8 228.8 41 231.5 L 42 233.5 L 40 233.5 L 42.5 238 Q 43.8 235.8 45 238.5 L 43 238.5 L 45.5 243 L 47 242.5 L 46 244.5 L 47.5 244 L 49 245.5 L 47 245.5 L 49.5 250 L 51 249.5 L 50 251.5 L 51.5 251 L 53 252.5 L 51 252.5 L 53.5 257 Q 54.8 254.8 56 257.5 L 57 259.5 L 55 259.5 L 57.5 264 Q 58.8 261.8 60 264.5 L 61 266.5 L 59 266.5 L 60.5 269 L 62 268.5 L 61 270.5 L 62.5 270 L 64 271.5 L 62 271.5 L 64.5 276 L 66 275.5 L 65 277.5 L 66.5 277 L 68 278.5 L 66 278.5 L 68.5 283 Q 69.8 280.8 71 283.5 L 72 285.5 L 70 285.5 L 72.5 290 Q 73.8 287.8 75 290.5 L 73 290.5 L 75.5 295 L 77 294.5 L 76 296.5 L 77.5 296 L 79 297.5 L 77 297.5 L 79.5 302 L 81 301.5 L 80 303.5 L 81.5 303 L 83 304.5 L 81 304.5 L 83.5 309 Q 84.8 306.8 86 309.5 L 84 309.5 L 87.5 316 Q 88.7 313.8 90 316.5 L 88 316.5 L 89 321.5 L 88 323.5 L 90 323.5 L 88.5 325 Q 87.3 322.8 86 325.5 L 85 328.5 L 87 328.5 L 84.5 332 Q 83.3 329.8 82 332.5 L 81 335.5 L 83 335.5 L 81.5 337 L 80 336.5 L 81 338.5 L 79.5 338 L 78 339.5 L 77 342.5 L 79 342.5 L 77.5 344 L 76 343.5 L 77 345.5 L 75.5 345 L 74 346.5 L 73 349.5 L 75 349.5 L 73.5 351 Q 72.3 348.7 71 351.5 L 70 354.5 L 72 354.5 L 69.5 358 Q 68.3 355.8 67 358.5 L 66 361.5 L 68 361.5 L 66.5 363 L 65 362.5 L 66 364.5 L 64.5 364 L 63 365.5 L 62 368.5 L 64 368.5 L 62.5 370 L 61 369.5 L 62 371.5 L 60.5 371 L 59 372.5 L 58 375.5 L 60 375.5 L 58.5 377 Q 57.3 374.8 56 377.5 L 55 380.5 L 57 380.5 L 54.5 384 Q 53.2 381.8 52 384.5 L 51 387.5 L 53 387.5 L 51.5 389 L 50 388.5 L 51 390.5 L 49.5 390 L 48 391.5 L 47 394.5 L 49 394.5 L 47.5 396 L 46 395.5 L 47 397.5 L 45.5 397 L 44 398.5 L 43 401.5 L 45 401.5 L 43.5 403 Q 42.3 400.8 41 403.5 L 40 406.5 L 42 406.5 L 39.5 410 Q 38.3 407.8 37 410.5 L 36 413.5 L 38 413.5 L 36.5 415 L 35 414.5 L 36 416.5 L 34.5 416 L 33 417.5 L 32 420.5 L 34 420.5 L 32.5 422 L 31 421.5 L 32 423.5 L 30.5 423 L 29 424.5 L 28 427.5 L 30 427.5 L 28.5 429 Q 27.2 426.7 26 429.5 L 25 432.5 L 27 432.5 L 24.5 436 Q 23.3 433.8 22 436.5 L 21 439.5 L 23 439.5 L 21.5 441 L 20 440.5 L 21 442.5 L 19.5 442 L 18 443.5 L 17 446.5 L 19 446.5 L 17.5 448 L 16 447.5 L 17 449.5 L 15.5 449 L 14 450.5 L 14.5 452 L 16 451.5 L 13.5 455 Q 12.3 452.8 11 455.5 L 10 458.5 L 12 458.5 L 9.5 462 Q 8.3 459.8 7 462.5 L 6 465.5 L 8 465.5 L 6.5 467 L 5 466.5 L 6 468.5 L 4.5 468 L 3 469.5 L 2 472.5 L 4 472.5 L 2.5 474 L 1.5 473 L 0 473.5 L 0.5 166 Z " /><path fill="rgb(0,0,0)" stroke="rgb(0,0,0)" stroke-width="1" opacity="0" d="M 551.5 166 L 552.5 167 L 554 166.5 L 553.5 474 Q 552.5 472 551.5 474 L 550 472.5 L 552 472.5 L 549.5 468 L 548 468.5 L 549 466.5 L 547.5 467 L 546 465.5 L 548 465.5 L 545.5 461 Q 544.3 463.2 543 460.5 L 542 458.5 L 544 458.5 L 541.5 454 Q 540.3 456.3 539 453.5 L 538 451.5 L 540 451.5 L 538.5 449 L 537 449.5 L 538 447.5 L 536.5 448 L 535 446.5 L 537 446.5 L 534.5 442 L 533 442.5 L 534 440.5 L 532.5 441 L 531 439.5 L 533 439.5 L 530.5 435 Q 529.3 437.3 528 434.5 L 527 432.5 L 529 432.5 L 526.5 428 Q 525.3 430.3 524 427.5 L 526 427.5 L 523.5 423 L 522 423.5 L 523 421.5 L 521.5 422 L 520 420.5 L 522 420.5 L 519.5 416 L 518 416.5 L 519 414.5 L 517.5 415 L 516 413.5 L 518 413.5 L 515.5 409 Q 514.3 411.3 513 408.5 L 512 406.5 L 514 406.5 L 511.5 402 Q 510.3 404.3 509 401.5 L 511 401.5 L 508.5 397 L 507 397.5 L 508 395.5 L 506.5 396 L 505 394.5 L 507 394.5 L 504.5 390 L 503 390.5 L 504 388.5 L 502.5 389 L 501 387.5 L 503 387.5 L 500.5 383 Q 499.3 385.3 498 382.5 L 497 380.5 L 499 380.5 L 496.5 376 Q 495.3 378.3 494 375.5 L 496 375.5 L 493.5 371 L 492 371.5 L 493 369.5 L 491.5 370 L 490 368.5 L 492 368.5 L 489.5 364 L 488 364.5 L 489 362.5 L 487.5 363 L 486 361.5 L 488 361.5 L 485.5 357 Q 484.3 359.3 483 356.5 L 482 354.5 L 484 354.5 L 481.5 350 Q 480.3 352.3 479 349.5 L 481 349.5 L 478.5 345 L 477 345.5 L 478 343.5 L 476.5 344 L 475 342.5 L 477 342.5 L 474.5 338 L 473 338.5 L 474 336.5 L 472.5 337 L 471 335.5 L 473 335.5 L 470.5 331 Q 469.3 333.2 468 330.5 L 467 328.5 L 469 328.5 L 466.5 324 Q 465.3 326.3 464 323.5 L 466 323.5 L 465 318.5 L 466 316.5 L 464 316.5 L 465.5 315 L 467 315.5 L 466 313.5 L 467.5 314 L 469 312.5 L 470 309.5 L 468 309.5 L 469.5 308 Q 470.8 310.3 472 307.5 L 473 304.5 L 471 304.5 L 473.5 301 Q 474.8 303.3 476 300.5 L 477 297.5 L 475 297.5 L 476.5 296 L 478 296.5 L 477 294.5 L 478.5 295 L 480 293.5 L 481 290.5 L 479 290.5 L 480.5 289 Q 481.8 291.3 483 288.5 L 484 285.5 L 482 285.5 L 484.5 282 Q 485.8 284.3 487 281.5 L 488 278.5 L 486 278.5 L 487.5 277 L 489 277.5 L 488 275.5 L 489.5 276 L 491 274.5 L 492 271.5 L 490 271.5 L 491.5 270 L 493 270.5 L 492 268.5 L 493.5 269 L 495 267.5 L 496 264.5 L 494 264.5 L 495.5 263 Q 496.8 265.3 498 262.5 L 499 259.5 L 497 259.5 L 499.5 256 Q 500.8 258.2 502 255.5 L 503 252.5 L 501 252.5 L 502.5 251 L 504 251.5 L 503 249.5 L 504.5 250 L 506 248.5 L 507 245.5 L 505 245.5 L 506.5 244 L 508 244.5 L 507 242.5 L 508.5 243 L 510 241.5 L 511 238.5 L 509 238.5 L 510.5 237 Q 511.8 239.3 513 236.5 L 514 233.5 L 512 233.5 L 514.5 230 Q 515.8 232.3 517 229.5 L 518 226.5 L 516 226.5 L 517.5 225 L 519 225.5 L 518 223.5 L 519.5 224 L 521 222.5 L 522 219.5 L 520 219.5 L 521.5 218 L 523 218.5 L 522 216.5 L 523.5 217 L 525 215.5 L 526 212.5 L 524 212.5 L 525.5 211 Q 526.8 213.3 528 210.5 L 529 207.5 L 527 207.5 L 529.5 204 Q 530.8 206.3 532 203.5 L 533 200.5 L 531 200.5 L 532.5 199 L 534 199.5 L 533 197.5 L 534.5 198 L 536 196.5 L 537 193.5 L 535 193.5 L 536.5 192 L 538 192.5 L 537 190.5 L 538.5 191 L 540 189.5 L 539.5 188 L 538 188.5 L 540.5 185 Q 541.8 187.3 543 184.5 L 544 181.5 L 542 181.5 L 544.5 178 Q 545.8 180.3 547 177.5 L 548 174.5 L 546 174.5 L 547.5 173 L 549 173.5 L 548 171.5 L 549.5 172 L 551 170.5 L 552 167.5 L 550 167.5 L 551.5 166 Z " /><path fill="rgb(0,0,0)" stroke="rgb(0,0,0)" stroke-width="1" opacity="0" d="M 0.5 481 L 185 481.5 L 62 482.5 L 183.5 483 L 184.5 484 Q 185.8 481.8 187 484.5 L 188 486.5 L 186 486.5 L 187.5 489 L 189 488.5 L 188 490.5 L 189.5 490 L 191 491.5 L 189 491.5 L 191.5 496 L 193 495.5 L 192 497.5 L 193.5 497 L 195 498.5 L 193 498.5 L 195.5 503 L 197 502.5 L 196 504.5 L 197.5 504 L 199 505.5 L 197 505.5 L 199.5 510 Q 200.8 507.7 202 510.5 L 203 512.5 L 201 512.5 L 203.5 517 Q 204.8 514.8 206 517.5 L 204 517.5 L 206.5 522 L 208 521.5 L 207 523.5 L 208.5 523 L 210 524.5 L 208 524.5 L 210.5 529 L 212 528.5 L 211 530.5 L 212.5 530 L 214 531.5 L 212 531.5 L 214.5 536 Q 215.8 533.8 217 536.5 L 215 536.5 L 217.5 541 L 219 540.5 L 218 542.5 L 219.5 542 L 221 543.5 L 219 543.5 L 221.5 548 L 223 547.5 L 222 549.5 L 223.5 549 L 225 550.5 L 223 550.5 L 225.5 555 L 227 554.5 L 226 556.5 L 227.5 556 L 229 557.5 L 227 557.5 L 229.5 562 Q 230.8 559.8 232 562.5 L 233 564.5 L 231 564.5 L 233.5 569 Q 234.8 566.8 236 569.5 L 234 569.5 L 236.5 574 L 238 573.5 L 237 575.5 L 238.5 575 L 240 576.5 L 238 576.5 L 240.5 581 L 242 580.5 L 241 582.5 L 242.5 582 L 244 583.5 L 242 583.5 L 244.5 588 Q 245.8 585.8 247 588.5 L 245 588.5 L 247.5 593 L 249 592.5 L 248 594.5 L 249.5 594 L 251 595.5 L 249 595.5 L 251.5 600 L 253 599.5 L 252 601.5 L 253.5 601 L 255 602.5 L 253 602.5 L 255.5 607 Q 256.8 604.8 258 607.5 L 259 609.5 L 257 609.5 L 259.5 614 Q 260.8 611.8 262 614.5 L 263 616.5 L 261 616.5 L 263.5 621 Q 264.8 618.8 266 621.5 L 264 621.5 L 266.5 626 L 268 625.5 L 267 627.5 L 268.5 627 L 270 628.5 L 268 628.5 L 270.5 633 L 272 632.5 L 271 634.5 L 272.5 634 L 274 635.5 L 272 635.5 L 274 639.5 L 0.5 640 L 0 483.5 L 61 482.5 L 0.5 482 L 0.5 481 Z " /><path fill="rgb(0,0,0)" stroke="rgb(0,0,0)" stroke-width="1" opacity="0" d="M 369.5 481 L 554 481.5 L 493 482.5 L 554 483.5 L 553.5 640 L 280 639.5 L 282 635.5 L 280 635.5 L 282.5 632 Q 283.8 634.3 285 631.5 L 286 628.5 L 284 628.5 L 285.5 627 L 287 627.5 L 286 625.5 L 287.5 626 L 289 624.5 L 290 621.5 L 288 621.5 L 289.5 620 L 291 620.5 L 290 618.5 L 291.5 619 L 293 617.5 L 294 614.5 L 292 614.5 L 293.5 613 Q 294.8 615.3 296 612.5 L 297 609.5 L 295 609.5 L 297.5 606 Q 298.8 608.3 300 605.5 L 301 602.5 L 299 602.5 L 300.5 601 L 302 601.5 L 301 599.5 L 302.5 600 L 304 598.5 L 305 595.5 L 303 595.5 L 304.5 594 L 306 594.5 L 305 592.5 L 306.5 593 L 308 591.5 L 309 588.5 L 307 588.5 L 308.5 587 Q 309.7 589.3 311 586.5 L 312 583.5 L 310 583.5 L 312.5 580 Q 313.8 582.3 315 579.5 L 316 576.5 L 314 576.5 L 315.5 575 L 317 575.5 L 316 573.5 L 317.5 574 L 319 572.5 L 320 569.5 L 318 569.5 L 319.5 568 L 321 568.5 L 320 566.5 L 321.5 567 L 323 565.5 L 324 562.5 L 322 562.5 L 323.5 561 Q 324.8 563.3 326 560.5 L 327 557.5 L 325 557.5 L 326.5 556 L 328 556.5 L 327 554.5 L 328.5 555 L 330 553.5 L 331 550.5 L 329 550.5 L 330.5 549 L 332 549.5 L 331 547.5 L 332.5 548 L 334 546.5 L 335 543.5 L 333 543.5 L 334.5 542 L 336 542.5 L 335 540.5 L 336.5 541 L 338 539.5 L 337.5 538 L 336 538.5 L 338.5 535 Q 339.8 537.3 341 534.5 L 342 531.5 L 340 531.5 L 341.5 530 L 343 530.5 L 342 528.5 L 343.5 529 L 345 527.5 L 346 524.5 L 344 524.5 L 345.5 523 L 347 523.5 L 346 521.5 L 347.5 522 L 349 520.5 L 350 517.5 L 348 517.5 L 349.5 516 L 351 516.5 L 350 514.5 L 351.5 515 L 353 513.5 L 352.5 512 L 351 512.5 L 353.5 509 Q 354.8 511.2 356 508.5 L 357 505.5 L 355 505.5 L 356.5 504 L 358 504.5 L 357 502.5 L 358.5 503 L 360 501.5 L 361 498.5 L 359 498.5 L 360.5 497 L 362 497.5 L 361 495.5 L 362.5 496 L 364 494.5 L 365 491.5 L 363 491.5 L 364.5 490 Q 365.8 492.2 367 489.5 L 368 486.5 L 366 486.5 L 368.5 483 Q 369.5 485 370.5 483 L 492 482.5 L 369.5 482 L 369.5 481 Z " /><path fill="rgb(0,254,253)" stroke="rgb(0,254,253)" stroke-width="1" opacity="0.03137254901960784" d="M 258.5 27 L 261 27.5 L 259.5 30 L 258 30.5 Q 260 31.5 258 32.5 L 255.5 37 L 254 37.5 Q 256 38.5 254 39.5 L 252.5 42 L 251 42.5 L 251.5 44 L 250 44.5 Q 252 45.5 250 46.5 L 248.5 49 L 247 49.5 L 247.5 51 L 246.5 50 L 245 50.5 L 258.5 27 Z " /><path fill="rgb(0,254,253)" stroke="rgb(0,254,253)" stroke-width="1" opacity="0.03137254901960784" d="M 293.5 27 L 296 27.5 L 298 32.5 L 309 50.5 L 306.5 51 L 306.5 49 L 304 47.5 L 303 45.5 L 303.5 44 L 302 43.5 L 302.5 42 L 300 40.5 L 299 38.5 L 299.5 37 L 297 35.5 L 296 33.5 L 297 31.5 L 295 31.5 L 295.5 30 L 293 28.5 L 293.5 27 Z " /><path fill="rgb(0,254,253)" stroke="rgb(0,254,253)" stroke-width="1" opacity="0.03137254901960784" d="M 228.5 80 L 229.5 81 L 231 80.5 L 228 82.5 Q 230 83.5 228 84.5 L 225.5 89 L 224 89.5 Q 226 90.5 224 91.5 L 222.5 94 L 221 94.5 L 221.5 96 L 220 96.5 Q 222 97.5 220 98.5 L 218.5 101 L 217 101.5 L 217.5 103 L 216 102.5 L 217 104.5 L 215.5 106 L 214.5 105 L 213 105.5 L 228.5 80 Z " /><path fill="rgb(0,254,253)" stroke="rgb(0,254,253)" stroke-width="1" opacity="0.03137254901960784" d="M 323.5 80 Q 324.5 82 325.5 80 L 327 81.5 L 336 98.5 L 341 105.5 L 339.5 105 L 338.5 106 L 337 104.5 L 338 102.5 L 336 102.5 L 336.5 101 L 334 99.5 L 333 97.5 L 333.5 96 L 332 95.5 L 332.5 94 L 330 92.5 L 329 90.5 L 329.5 89 L 327 87.5 L 325 83.5 L 325.5 82 Q 321.7 81.3 323.5 80 Z " /><path fill="rgb(0,254,253)" stroke="rgb(0,254,253)" stroke-width="1" opacity="0.03137254901960784" d="M 197.5 133 L 200 133.5 L 198 134.5 Q 200 135.5 198 136.5 L 195.5 141 L 194 141.5 Q 196 142.5 194 143.5 L 192.5 146 L 191 146.5 L 191.5 148 L 190 148.5 Q 192 149.5 190 150.5 L 188.5 153 L 187 153.5 L 187.5 155 L 186 154.5 L 187 156.5 L 185.5 159 L 183 157.5 L 185 155.5 L 197.5 133 Z " /><path fill="rgb(0,254,253)" stroke="rgb(0,254,253)" stroke-width="1" opacity="0.03137254901960784" d="M 354.5 133 L 357 133.5 L 362 143.5 L 371 157.5 L 368.5 159 L 367 156.5 L 368 154.5 L 366 154.5 L 366.5 153 L 364 151.5 L 363 149.5 L 363.5 148 L 362 147.5 L 362.5 146 L 360 144.5 L 359 142.5 L 359.5 141 L 357 139.5 L 355 135.5 L 355.5 134 Q 353.1 133.9 354.5 133 Z " /><path fill="rgb(0,254,253)" stroke="rgb(0,254,253)" stroke-width="1" opacity="0.03137254901960784" d="M 198.5 507 L 200.5 510 L 202 509.5 L 201 511.5 L 203 511.5 L 202.5 513 L 205 514.5 L 206 516.5 L 205.5 518 L 207 518.5 L 206.5 520 L 209 521.5 L 210 523.5 L 209.5 525 L 212 526.5 L 214 530.5 L 213.5 532 L 215 532.5 L 212.5 533 L 200 510.5 L 198 508.5 L 198.5 507 Z " /><path fill="rgb(0,254,253)" stroke="rgb(0,254,253)" stroke-width="1" opacity="0.03137254901960784" d="M 355.5 507 L 356 508.5 L 351 515.5 L 341.5 533 L 339 532.5 L 341 531.5 Q 339 530.5 341 529.5 L 343.5 525 L 345 524.5 Q 343 523.5 345 522.5 L 346.5 520 L 348 519.5 L 347.5 518 L 349 517.5 Q 347 516.5 349 515.5 L 350.5 513 L 352 512.5 L 351.5 511 L 353 511.5 L 352 509.5 L 353.5 510 L 355 508.5 L 355.5 507 Z " /><path fill="rgb(0,254,253)" stroke="rgb(0,254,253)" stroke-width="1" opacity="0.03137254901960784" d="M 228.5 560 Q 229.5 562 230.5 560 L 232 561.5 L 231 563.5 L 233 563.5 L 232.5 565 L 235 566.5 L 236 568.5 L 235.5 570 L 237 570.5 L 236.5 572 L 239 573.5 L 240 575.5 L 239.5 577 L 242 578.5 L 244 582.5 L 243.5 584 L 246 585.5 L 245.5 587 L 244.5 585 L 243.5 587 L 230 562.5 L 228 560.5 L 228.5 560 Z " /><path fill="rgb(0,254,253)" stroke="rgb(0,254,253)" stroke-width="1" opacity="0.03137254901960784" d="M 323.5 560 L 324.5 561 L 326 560.5 L 321 567.5 L 310.5 587 L 309.5 585 L 308.5 587 L 308 585.5 L 311 583.5 L 310.5 582 L 312 582.5 L 311 580.5 L 313.5 577 L 315 576.5 Q 313 575.5 315 574.5 L 316.5 572 L 318 571.5 L 317.5 570 L 319 569.5 Q 317 568.5 319 567.5 L 320.5 565 L 322 564.5 L 321.5 563 L 323 562.5 Q 320.7 561.3 323.5 560 Z " /><path fill="rgb(0,254,253)" stroke="rgb(0,254,253)" stroke-width="1" opacity="0.03137254901960784" d="M 260.5 615 L 261.5 616 L 263 615.5 L 262.5 617 L 265 618.5 L 266 620.5 L 265.5 622 L 267 622.5 L 266.5 624 L 269 625.5 L 270 627.5 L 269.5 629 L 272 630.5 L 274 634.5 L 273.5 636 L 276 637.5 L 276.5 639 L 278 638.5 L 279.5 636 L 281 635.5 L 280.5 634 L 282 634.5 L 281 632.5 L 283.5 629 L 285 628.5 Q 283 627.5 285 626.5 L 287.5 622 L 289 621.5 Q 287 620.5 289 619.5 L 290.5 617 L 292 616.5 L 291.5 615 L 292.5 616 L 294 615.5 L 279.5 640 Q 278.5 638 277.5 640 L 275.5 639 Q 274.3 641.2 273 638.5 L 267 626.5 L 262 619.5 L 260 615.5 L 260.5 615 Z " /><path fill="rgb(38,38,237)" stroke="rgb(38,38,237)" stroke-width="1" opacity="0.0784313725490196" d="M 371.5 157 L 400 157.5 L 371.5 158 L 371.5 157 Z " /><path fill="rgb(38,38,237)" stroke="rgb(38,38,237)" stroke-width="1" opacity="0.0784313725490196" d="M 431.5 157 L 462 157.5 L 431.5 158 L 431.5 157 Z " /><path fill="rgb(38,38,237)" stroke="rgb(38,38,237)" stroke-width="1" opacity="0.0784313725490196" d="M 493.5 157 L 523 157.5 L 493.5 158 L 493.5 157 Z " /><path fill="rgb(38,38,237)" stroke="rgb(38,38,237)" stroke-width="1" opacity="0.0784313725490196" d="M 369.5 159 L 400 159.5 L 369.5 160 L 369.5 159 Z " /><path fill="rgb(38,38,237)" stroke="rgb(38,38,237)" stroke-width="1" opacity="0.0784313725490196" d="M 431.5 159 L 461 159.5 L 431.5 160 L 431.5 159 Z " /><path fill="rgb(38,38,237)" stroke="rgb(38,38,237)" stroke-width="1" opacity="0.0784313725490196" d="M 492.5 159 L 523 159.5 L 492.5 160 L 492.5 159 Z " /><path fill="rgb(38,38,237)" stroke="rgb(38,38,237)" stroke-width="1" opacity="0.0784313725490196" d="M 540.5 186 L 541 187.5 L 530 205.5 L 528 210.5 L 524.5 214 L 525 212.5 L 524 211.5 L 525.5 210 L 527 209.5 L 526.5 208 L 528 207.5 L 527.5 206 L 529 206.5 L 528 204.5 L 531 202.5 L 530.5 201 L 532 200.5 Q 529.8 199.3 532.5 198 L 534 197.5 L 533.5 196 L 535 195.5 L 534.5 194 L 536 193.5 Q 533.8 192.3 536.5 191 L 538 190.5 L 537.5 189 L 539 188.5 L 538.5 187 L 540 187.5 L 540.5 186 Z " /><path fill="rgb(38,38,237)" stroke="rgb(38,38,237)" stroke-width="1" opacity="0.0784313725490196" d="M 509.5 240 L 510 241.5 L 508 243.5 L 495.5 266 L 493 265.5 L 495 264.5 Q 492.8 263.3 495.5 262 L 497 261.5 L 496.5 260 L 498 259.5 L 497.5 258 L 499 258.5 L 498 256.5 L 501 254.5 L 500.5 253 L 502 252.5 Q 499.8 251.3 502.5 250 L 504 249.5 L 503.5 248 L 505 247.5 L 504.5 246 L 506 245.5 Q 503.7 244.3 506.5 243 L 508 242.5 L 507.5 241 L 509 241.5 L 509.5 240 Z " /><path fill="rgb(38,38,237)" stroke="rgb(38,38,237)" stroke-width="1" opacity="0.0784313725490196" d="M 475.5 296 L 476.5 297 L 478 296.5 L 464.5 320 L 463 317.5 L 465 316.5 Q 462.7 315.3 465.5 314 L 467 313.5 L 466.5 312 L 468 311.5 L 467.5 310 L 469 309.5 Q 466.7 308.2 469.5 307 L 471 306.5 L 470.5 305 L 472 304.5 L 471.5 303 L 473 303.5 L 472 301.5 L 475 299.5 L 474.5 298 L 476 297.5 L 475.5 296 Z " /><path fill="rgb(38,38,237)" stroke="rgb(38,38,237)" stroke-width="1" opacity="0.0784313725490196" d="M 74.5 347 Q 77 348 75.5 349 L 74 349.5 Q 76.2 350.8 73.5 352 L 72 352.5 L 72.5 354 L 71 354.5 L 71.5 356 L 70 355.5 L 71 357.5 L 68 359.5 L 68.5 361 L 67 361.5 Q 69.3 362.8 66.5 364 L 65 364.5 L 65.5 366 L 64 366.5 L 64.5 368 L 63 368.5 Q 65.3 369.8 62.5 371 L 61 371.5 L 61.5 373 L 60 372.5 L 59.5 374 L 59 372.5 L 74.5 347 Z " /><path fill="rgb(38,38,237)" stroke="rgb(38,38,237)" stroke-width="1" opacity="0.0784313725490196" d="M 43.5 400 L 45 402.5 L 42 404.5 L 42.5 406 L 41 406.5 L 41.5 408 L 40 407.5 L 41 409.5 L 38 411.5 L 38.5 413 L 37 413.5 Q 39.3 414.8 36.5 416 L 35 416.5 L 35.5 418 L 34 418.5 L 34.5 420 L 33 420.5 Q 35.3 421.8 32.5 423 L 31 423.5 L 31.5 425 L 30 424.5 L 31 426.5 Q 30 428 29 425.5 L 43.5 400 Z " /><path fill="rgb(38,38,237)" stroke="rgb(38,38,237)" stroke-width="1" opacity="0.0784313725490196" d="M 12.5 454 L 13.5 455 L 15 454.5 L 12 456.5 L 12.5 458 L 11 458.5 L 11.5 460 L 10 459.5 L 11 461.5 L 8 463.5 L 8.5 465 L 7 465.5 Q 9.3 466.8 6.5 468 L 5 468.5 L 5.5 470 L 4 470.5 L 4.5 472 L 3 472.5 Q 5.2 473.7 2.5 475 L 1 475.5 L 1.5 477 L 0 476.5 L 0 474.5 L 12.5 454 Z " /><path fill="rgb(38,38,237)" stroke="rgb(38,38,237)" stroke-width="1" opacity="0.0784313725490196" d="M 0.5 480 L 31 480.5 L 0.5 481 L 0.5 480 Z " /><path fill="rgb(38,38,237)" stroke="rgb(38,38,237)" stroke-width="1" opacity="0.0784313725490196" d="M 62.5 480 L 92 480.5 L 62.5 481 L 62.5 480 Z " /><path fill="rgb(38,38,237)" stroke="rgb(38,38,237)" stroke-width="1" opacity="0.0784313725490196" d="M 123.5 480 L 154 480.5 L 123.5 481 L 123.5 480 Z " /><path fill="rgb(38,38,237)" stroke="rgb(38,38,237)" stroke-width="1" opacity="0.0784313725490196" d="M 0.5 482 L 31 482.5 L 0.5 483 L 0.5 482 Z " /><path fill="rgb(38,38,237)" stroke="rgb(38,38,237)" stroke-width="1" opacity="0.0784313725490196" d="M 62.5 482 L 92 482.5 L 62.5 483 L 62.5 482 Z " /><path fill="rgb(38,38,237)" stroke="rgb(38,38,237)" stroke-width="1" opacity="0.0784313725490196" d="M 123.5 482 L 154 482.5 L 123.5 483 L 123.5 482 Z " /><path fill="rgb(0,254,0)" stroke="rgb(0,254,0)" stroke-width="1" opacity="0.043137254901960784" d="M 31.5 157 L 61 157.5 L 31.5 158 L 31.5 157 Z " /><path fill="rgb(0,254,0)" stroke="rgb(0,254,0)" stroke-width="1" opacity="0.043137254901960784" d="M 92.5 157 L 123 157.5 L 92.5 158 L 92.5 157 Z " /><path fill="rgb(0,254,0)" stroke="rgb(0,254,0)" stroke-width="1" opacity="0.043137254901960784" d="M 154.5 157 L 183 157.5 L 154.5 158 L 154.5 157 Z " /><path fill="rgb(0,254,0)" stroke="rgb(0,254,0)" stroke-width="1" opacity="0.043137254901960784" d="M 31.5 159 L 62 159.5 L 31.5 160 L 31.5 159 Z " /><path fill="rgb(0,254,0)" stroke="rgb(0,254,0)" stroke-width="1" opacity="0.043137254901960784" d="M 93.5 159 L 123 159.5 L 93.5 160 L 93.5 159 Z " /><path fill="rgb(0,254,0)" stroke="rgb(0,254,0)" stroke-width="1" opacity="0.043137254901960784" d="M 154.5 159 L 185 159.5 L 154.5 160 L 154.5 159 Z " /><path fill="rgb(0,254,0)" stroke="rgb(0,254,0)" stroke-width="1" opacity="0.043137254901960784" d="M 13.5 187 L 14.5 188 L 16 187.5 L 15.5 189 L 18 190.5 L 19 192.5 L 18.5 194 L 21 195.5 L 23 199.5 L 22.5 201 L 25 202.5 L 26 204.5 L 25 206.5 L 27 206.5 L 26.5 208 L 29 209.5 L 30 211.5 L 29 212.5 L 29.5 214 L 26 210.5 L 20 198.5 L 15 191.5 L 13 187.5 L 13.5 187 Z " /><path fill="rgb(0,254,0)" stroke="rgb(0,254,0)" stroke-width="1" opacity="0.043137254901960784" d="M 44.5 240 L 45.5 242 Q 46.8 239.8 48 242.5 L 49 244.5 L 48.5 246 L 51 247.5 L 53 251.5 L 52.5 253 L 55 254.5 L 56 256.5 L 55 258.5 L 57 258.5 L 56.5 260 L 59 261.5 L 60 263.5 L 58.5 266 L 46 243.5 L 44 241.5 L 44.5 240 Z " /><path fill="rgb(0,254,0)" stroke="rgb(0,254,0)" stroke-width="1" opacity="0.043137254901960784" d="M 76.5 296 L 77.5 297 L 79 296.5 L 78.5 298 L 81 299.5 L 83 303.5 L 82.5 305 L 85 306.5 L 86 308.5 L 85.5 310 L 87 310.5 L 86.5 312 L 89 313.5 L 90 315.5 L 89.5 317 L 91 317.5 L 89.5 320 L 80 302.5 L 78 300.5 L 76 296.5 L 76.5 296 Z " /><path fill="rgb(0,254,0)" stroke="rgb(0,254,0)" stroke-width="1" opacity="0.043137254901960784" d="M 479.5 347 L 483 351.5 L 495 373.5 L 494 373.5 L 493.5 372 Q 492.2 374.3 491 371.5 L 490 369.5 L 490.5 368 L 488 366.5 L 486 362.5 L 486.5 361 L 484 359.5 L 483 357.5 L 484 355.5 L 482 355.5 L 482.5 354 L 480 352.5 L 479 350.5 L 479.5 349 L 478 348.5 L 479.5 347 Z " /><path fill="rgb(0,254,0)" stroke="rgb(0,254,0)" stroke-width="1" opacity="0.043137254901960784" d="M 510.5 400 L 525 425.5 L 524 425.5 L 523.5 424 Q 522.3 426.3 521 423.5 L 520 421.5 L 520.5 420 L 518 418.5 L 516 414.5 L 516.5 413 L 514 411.5 L 513 409.5 L 514 407.5 L 512 407.5 L 512.5 406 L 510 404.5 L 509 402.5 L 510.5 400 Z " /><path fill="rgb(0,254,0)" stroke="rgb(0,254,0)" stroke-width="1" opacity="0.043137254901960784" d="M 539.5 454 Q 540.5 456 541.5 454 L 543 455.5 L 549 467.5 L 554 474.5 L 554 476.5 L 552.5 477 L 550 473.5 L 550.5 472 L 549 471.5 L 549.5 470 L 547 468.5 L 546 466.5 L 546.5 465 L 544 463.5 L 543 461.5 L 544 459.5 L 542 459.5 L 542.5 458 L 540 456.5 L 539.5 454 Z " /><path fill="rgb(0,254,0)" stroke="rgb(0,254,0)" stroke-width="1" opacity="0.043137254901960784" d="M 400.5 480 L 431 480.5 L 400.5 481 L 400.5 480 Z " /><path fill="rgb(0,254,0)" stroke="rgb(0,254,0)" stroke-width="1" opacity="0.043137254901960784" d="M 462.5 480 L 492 480.5 L 462.5 481 L 462.5 480 Z " /><path fill="rgb(0,254,0)" stroke="rgb(0,254,0)" stroke-width="1" opacity="0.043137254901960784" d="M 523.5 480 L 554 480.5 L 523.5 481 L 523.5 480 Z " /><path fill="rgb(0,254,0)" stroke="rgb(0,254,0)" stroke-width="1" opacity="0.043137254901960784" d="M 400.5 482 L 431 482.5 L 400.5 483 L 400.5 482 Z " /><path fill="rgb(0,254,0)" stroke="rgb(0,254,0)" stroke-width="1" opacity="0.043137254901960784" d="M 462.5 482 L 492 482.5 L 462.5 483 L 462.5 482 Z " /><path fill="rgb(0,254,0)" stroke="rgb(0,254,0)" stroke-width="1" opacity="0.043137254901960784" d="M 523.5 482 L 554 482.5 L 523.5 483 L 523.5 482 Z " /><path fill="rgb(172,88,102)" stroke="rgb(172,88,102)" stroke-width="1" opacity="0.9764705882352941" d="M 262.5 26 L 292 26.5 L 262.5 27 L 262.5 26 Z " /><path fill="rgb(172,88,102)" stroke="rgb(172,88,102)" stroke-width="1" opacity="0.9764705882352941" d="M 246.5 53 L 308 53.5 L 246.5 54 L 246.5 53 Z " /><path fill="rgb(172,88,102)" stroke="rgb(172,88,102)" stroke-width="1" opacity="0.9764705882352941" d="M 200.5 186 L 353.5 186 L 355 187.5 L 353.5 187 L 200.5 187 L 199.5 188 Q 198 187 200.5 186 Z " /><path fill="rgb(172,88,102)" stroke="rgb(172,88,102)" stroke-width="1" opacity="0.9764705882352941" d="M 215.5 213 L 339 213.5 L 215.5 214 L 215.5 213 Z " /><path fill="rgb(172,88,102)" stroke="rgb(172,88,102)" stroke-width="1" opacity="0.9764705882352941" d="M 262.5 346 L 292 346.5 L 262.5 347 L 262.5 346 Z " /><path fill="rgb(172,88,102)" stroke="rgb(172,88,102)" stroke-width="1" opacity="0.9764705882352941" d="M 308.5 372 Q 310 373 307.5 374 L 246 373.5 L 307.5 373 L 308.5 372 Z " /><path fill="rgb(172,88,102)" stroke="rgb(172,88,102)" stroke-width="1" opacity="0.9764705882352941" d="M 200.5 506 L 354 506.5 L 200.5 507 L 200.5 506 Z " /><path fill="rgb(172,88,102)" stroke="rgb(172,88,102)" stroke-width="1" opacity="0.9764705882352941" d="M 216.5 533 L 338 533.5 L 216.5 534 L 216.5 533 Z " /><path fill="rgb(254,254,0)" stroke="rgb(254,254,0)" stroke-width="1" opacity="0.054901960784313725" d="M 400.5 157 L 431 157.5 L 400.5 158 L 400.5 157 Z " /><path fill="rgb(254,254,0)" stroke="rgb(254,254,0)" stroke-width="1" opacity="0.054901960784313725" d="M 462.5 157 L 492 157.5 L 462.5 158 L 462.5 157 Z " /><path fill="rgb(254,254,0)" stroke="rgb(254,254,0)" stroke-width="1" opacity="0.054901960784313725" d="M 523.5 157 L 554 157.5 L 523.5 158 L 523.5 157 Z " /><path fill="rgb(254,254,0)" stroke="rgb(254,254,0)" stroke-width="1" opacity="0.054901960784313725" d="M 400.5 159 L 431 159.5 L 400.5 160 L 400.5 159 Z " /><path fill="rgb(254,254,0)" stroke="rgb(254,254,0)" stroke-width="1" opacity="0.054901960784313725" d="M 462.5 159 L 492 159.5 L 462.5 160 L 462.5 159 Z " /><path fill="rgb(254,254,0)" stroke="rgb(254,254,0)" stroke-width="1" opacity="0.054901960784313725" d="M 523.5 159 L 554 159.5 L 523.5 160 L 523.5 159 Z " /><path fill="rgb(254,254,0)" stroke="rgb(254,254,0)" stroke-width="1" opacity="0.054901960784313725" d="M 552.5 163 L 554 163.5 L 554 165.5 L 541.5 186 L 540.5 185 L 539 185.5 L 541.5 182 L 543 181.5 L 542.5 180 L 544 180.5 L 543 178.5 L 545.5 175 L 547 174.5 Q 545 173.5 547 172.5 L 549.5 168 L 551 167.5 Q 549 166.5 551 165.5 L 552.5 163 Z " /><path fill="rgb(254,254,0)" stroke="rgb(254,254,0)" stroke-width="1" opacity="0.054901960784313725" d="M 524.5 214 L 525 215.5 L 523 217.5 L 510.5 240 L 509 237.5 L 511.5 234 L 513 233.5 L 512.5 232 L 514 232.5 L 513 230.5 L 515.5 227 L 517 226.5 Q 515 225.5 517 224.5 L 519.5 220 L 521 219.5 Q 519 218.5 521 217.5 L 522.5 215 L 524 215.5 L 524.5 214 Z " /><path fill="rgb(254,254,0)" stroke="rgb(254,254,0)" stroke-width="1" opacity="0.054901960784313725" d="M 494.5 266 L 495 267.5 L 479.5 293 Q 477 292 478.5 291 L 480 290.5 Q 478 289.5 480 288.5 L 481.5 286 L 483 285.5 L 482.5 284 L 484 284.5 L 483 282.5 L 485.5 279 L 487 278.5 Q 485 277.5 487 276.5 L 489.5 272 L 491 271.5 Q 489 270.5 491 269.5 L 492.5 267 L 494 267.5 L 494.5 266 Z " /><path fill="rgb(254,254,0)" stroke="rgb(254,254,0)" stroke-width="1" opacity="0.054901960784313725" d="M 89.5 320 L 91 322.5 L 89 323.5 Q 91 324.5 89 325.5 L 87.5 328 L 86 328.5 L 86.5 330 L 85 329.5 L 86 331.5 L 83.5 335 L 82 335.5 Q 84 336.5 82 337.5 L 79.5 342 L 78 342.5 L 78.5 344 L 77.5 343 L 76 343.5 L 89.5 320 Z " /><path fill="rgb(254,254,0)" stroke="rgb(254,254,0)" stroke-width="1" opacity="0.054901960784313725" d="M 58.5 374 L 61 374.5 L 59 375.5 Q 61 376.5 59 377.5 L 57.5 380 L 56 380.5 L 56.5 382 L 55 381.5 L 56 383.5 L 53.5 387 L 52 387.5 Q 54 388.5 52 389.5 L 49.5 394 L 48 394.5 Q 50 395.5 48 396.5 L 46.5 399 L 45 398.5 L 44.5 400 L 44 398.5 L 46 396.5 L 58.5 374 Z " /><path fill="rgb(254,254,0)" stroke="rgb(254,254,0)" stroke-width="1" opacity="0.054901960784313725" d="M 29.5 426 L 29 427.5 L 30 428.5 L 29 429.5 L 27.5 432 L 26 432.5 L 26.5 434 L 25 433.5 L 26 435.5 L 23.5 439 L 22 439.5 Q 24 440.5 22 441.5 L 19.5 446 L 18 446.5 Q 20 447.5 18 448.5 L 16.5 451 L 15 451.5 L 15.5 453 L 14 452.5 L 13.5 454 L 13 452.5 L 24 434.5 L 26 429.5 L 29.5 426 Z " /><path fill="rgb(254,254,0)" stroke="rgb(254,254,0)" stroke-width="1" opacity="0.054901960784313725" d="M 31.5 480 L 62 480.5 L 31.5 481 L 31.5 480 Z " /><path fill="rgb(254,254,0)" stroke="rgb(254,254,0)" stroke-width="1" opacity="0.054901960784313725" d="M 93.5 480 L 123 480.5 L 93.5 481 L 93.5 480 Z " /><path fill="rgb(254,254,0)" stroke="rgb(254,254,0)" stroke-width="1" opacity="0.054901960784313725" d="M 154.5 480 L 185 480.5 L 154.5 481 L 154.5 480 Z " /><path fill="rgb(254,254,0)" stroke="rgb(254,254,0)" stroke-width="1" opacity="0.054901960784313725" d="M 31.5 482 L 61 482.5 L 31.5 483 L 31.5 482 Z " /><path fill="rgb(254,254,0)" stroke="rgb(254,254,0)" stroke-width="1" opacity="0.054901960784313725" d="M 92.5 482 L 123 482.5 L 92.5 483 L 92.5 482 Z " /><path fill="rgb(254,254,0)" stroke="rgb(254,254,0)" stroke-width="1" opacity="0.054901960784313725" d="M 154.5 482 L 184 482.5 L 154.5 483 L 154.5 482 Z " /><path fill="rgb(254,0,0)" stroke="rgb(254,0,0)" stroke-width="1" opacity="0.023529411764705882" d="M 274.5 0 Q 277 1 275.5 2 L 274 2.5 L 274.5 4 L 272 5.5 L 272.5 7 L 271 7.5 L 271.5 9 L 270 9.5 L 270.5 11 L 268 12.5 L 268.5 14 L 267 14.5 L 267.5 16 L 266 16.5 L 266.5 18 L 264 19.5 L 264.5 21 L 263 21.5 L 263.5 23 L 262 23.5 L 262.5 25 L 261.5 24 L 260 24.5 L 274.5 0 Z " /><path fill="rgb(254,0,0)" stroke="rgb(254,0,0)" stroke-width="1" opacity="0.023529411764705882" d="M 279.5 0 L 294 24.5 L 291 24.5 L 291.5 23 L 290 22.5 L 290.5 21 L 289 20.5 Q 291.3 19.2 288.5 18 L 287 17.5 L 287.5 16 L 286 15.5 L 286.5 14 L 285 13.5 Q 287.3 12.3 284.5 11 L 283 10.5 L 283.5 9 L 282 8.5 Q 284 7.5 282 6.5 L 281.5 5 L 280 5.5 L 280.5 4 L 279 3.5 L 279.5 2 L 278 1.5 L 279.5 0 Z " /><path fill="rgb(254,0,0)" stroke="rgb(254,0,0)" stroke-width="1" opacity="0.023529411764705882" d="M 243.5 53 L 245 55.5 L 242 57.5 L 242.5 59 L 241 59.5 L 241.5 61 L 240 61.5 L 240.5 63 L 238 64.5 L 238.5 66 L 237 66.5 L 237.5 68 L 236 68.5 L 236.5 70 L 234 71.5 L 234.5 73 L 233 73.5 L 233.5 75 L 232 75.5 L 232.5 77 L 231 76.5 L 230 78.5 L 230.5 80 L 229.5 79 L 228 79.5 L 233 72.5 L 243.5 53 Z " /><path fill="rgb(254,0,0)" stroke="rgb(254,0,0)" stroke-width="1" opacity="0.023529411764705882" d="M 310.5 53 L 324 77.5 L 326 79.5 L 323 79.5 Q 325 78.5 323 77.5 L 322.5 76 L 321 76.5 L 321.5 75 L 320 74.5 L 320.5 73 L 319 72.5 Q 321.3 71.3 318.5 70 L 317 69.5 L 317.5 68 L 316 67.5 L 316.5 66 L 315 65.5 Q 317.3 64.3 314.5 63 L 313 62.5 L 313.5 61 L 312 60.5 L 312.5 59 L 311 58.5 Q 313.3 57.3 310.5 56 L 309 55.5 L 310.5 53 Z " /><path fill="rgb(254,0,0)" stroke="rgb(254,0,0)" stroke-width="1" opacity="0.023529411764705882" d="M 212.5 107 L 215 107.5 L 212 109.5 L 212.5 111 L 211 111.5 L 211.5 113 L 210 113.5 L 210.5 115 L 208 116.5 L 208.5 118 L 207 118.5 L 207.5 120 L 206 120.5 L 206.5 122 L 204 123.5 L 204.5 125 L 203 125.5 L 203.5 127 L 202 127.5 L 202.5 129 L 201 128.5 L 198.5 133 L 198 131.5 L 203 124.5 L 212.5 107 Z " /><path fill="rgb(254,0,0)" stroke="rgb(254,0,0)" stroke-width="1" opacity="0.023529411764705882" d="M 339.5 107 L 342 107.5 L 356 132.5 L 355 132.5 L 352.5 128 L 351 128.5 L 351.5 127 L 350 126.5 L 350.5 125 L 349 124.5 Q 351.3 123.3 348.5 122 L 347 121.5 L 347.5 120 L 346 119.5 L 346.5 118 L 345 117.5 Q 347.3 116.3 344.5 115 L 343 114.5 L 343.5 113 L 342 112.5 L 342.5 111 L 341 110.5 Q 343.3 109.3 340.5 108 Q 338.1 107.9 339.5 107 Z " /><path fill="rgb(254,0,0)" stroke="rgb(254,0,0)" stroke-width="1" opacity="0.023529411764705882" d="M 185.5 482 L 185 483.5 L 186 484.5 L 186.5 486 L 188 485.5 L 187.5 487 L 189 487.5 L 188.5 489 L 190 489.5 Q 187.8 490.8 190.5 492 L 192 492.5 L 191.5 494 L 193 494.5 L 192.5 496 L 194 496.5 Q 191.8 497.8 194.5 499 L 196 499.5 L 195.5 501 L 197 501.5 L 196.5 503 L 198 503.5 Q 195.8 504.7 198.5 506 L 200 506.5 L 197.5 507 L 184 483.5 L 185.5 482 Z " /><path fill="rgb(254,0,0)" stroke="rgb(254,0,0)" stroke-width="1" opacity="0.023529411764705882" d="M 368.5 482 Q 371.3 483.3 369 484.5 L 356.5 507 L 354 506.5 L 357 504.5 L 356.5 503 L 358 502.5 L 357.5 501 L 359 500.5 L 358.5 499 L 361 497.5 L 360.5 496 L 362 495.5 L 361.5 494 L 363 493.5 L 362.5 492 L 365 490.5 L 364.5 489 L 366 488.5 L 365.5 487 L 367 486.5 L 366.5 485 L 368 485.5 L 369 483.5 L 368.5 482 Z " /><path fill="rgb(254,0,0)" stroke="rgb(254,0,0)" stroke-width="1" opacity="0.023529411764705882" d="M 213.5 534 L 214.5 535 L 216 534.5 Q 213.8 535.8 216.5 537 L 218 537.5 L 217.5 539 L 219 539.5 L 218.5 541 L 220 541.5 Q 217.7 542.8 220.5 544 L 222 544.5 L 221.5 546 L 223 546.5 L 222.5 548 L 224 548.5 Q 221.8 549.8 224.5 551 L 226 551.5 L 225.5 553 L 227 553.5 L 226.5 555 L 228 555.5 Q 225.7 556.8 228.5 558 L 230 558.5 Q 228.5 561.5 227 558.5 L 218 541.5 L 213 534.5 L 213.5 534 Z " /><path fill="rgb(254,0,0)" stroke="rgb(254,0,0)" stroke-width="1" opacity="0.023529411764705882" d="M 338.5 534 L 339.5 535 L 341 534.5 L 325.5 560 Q 323 559 324.5 558 L 327 556.5 L 326.5 555 L 328 554.5 L 327.5 553 L 329 552.5 L 328.5 551 L 331 549.5 L 330.5 548 L 332 547.5 L 331.5 546 L 333 545.5 L 332.5 544 L 335 542.5 L 334.5 541 L 336 540.5 L 335.5 539 L 337 538.5 L 336.5 537 L 338 537.5 L 339 535.5 L 338.5 534 Z " /><path fill="rgb(254,0,0)" stroke="rgb(254,0,0)" stroke-width="1" opacity="0.023529411764705882" d="M 245.5 589 L 248 589.5 L 247.5 591 L 249 591.5 L 248.5 593 L 250 593.5 Q 247.7 594.8 250.5 596 L 252 596.5 L 251.5 598 L 253 598.5 L 252.5 600 L 254 600.5 Q 251.8 601.8 254.5 603 L 256 603.5 L 255.5 605 L 257 605.5 Q 255 606.5 257 607.5 L 257.5 609 L 259 608.5 L 258.5 610 L 260 610.5 L 259.5 612 L 261 612.5 L 258.5 613 L 248 593.5 L 246 591.5 L 245.5 589 Z " /><path fill="rgb(254,0,0)" stroke="rgb(254,0,0)" stroke-width="1" opacity="0.023529411764705882" d="M 306.5 589 L 309 589.5 L 295.5 613 L 293 612.5 L 295 611.5 L 294.5 610 L 297 608.5 L 298 606.5 L 297.5 605 L 299 604.5 L 298.5 603 L 301 601.5 L 300.5 600 L 302 599.5 L 301.5 598 L 303 597.5 L 302.5 596 L 305 594.5 L 304.5 593 L 306 592.5 L 305.5 591 L 307 590.5 L 306.5 589 Z " /></svg>