<svg viewBox="0 0 640 632" version="1.1" xmlns="http://www.w3.org/2000/svg" desc="Created with imagetracer.js version 1.2.6" ><path fill="rgb(0,0,0)" stroke="rgb(0,0,0)" stroke-width="1" opacity="1" d="M 471.5 53 L 486.5 53 L 487.5 54 L 492.5 54 L 501.5 57 L 512.5 63 L 523 72.5 L 530 82.5 L 534 91.5 L 534 94.5 L 536 99.5 L 536 105.5 L 537 106.5 L 537 113.5 L 536 114.5 L 535 125.5 L 529 139.5 Q 523.9 147.9 516.5 154 Q 508.1 161.1 496.5 165 L 488.5 166 L 487.5 167 L 470.5 167 L 452.5 161 L 443.5 155 L 434 145.5 L 430 139.5 L 424 125.5 L 423 116.5 L 422 115.5 L 422 104.5 L 423 103.5 L 424 94.5 L 430 80.5 Q 435.1 72.1 442.5 66 L 449.5 61 L 459.5 56 L 465.5 55 L 466.5 54 L 470.5 54 L 471.5 53 Z " /><path fill="rgb(0,0,0)" stroke="rgb(0,0,0)" stroke-width="1" opacity="1" d="M 121.5 424 L 131.5 424 L 132.5 425 L 137.5 425 L 138.5 426 L 141.5 426 L 147.5 428 Q 162.7 434.3 172 446.5 L 180 460.5 L 182 466.5 L 182 470.5 L 183 471.5 L 183 479.5 L 184 482.5 L 183 483.5 L 182.5 493 L 181.5 488 L 180 492.5 L 180 496.5 L 174 510.5 Q 168.7 519.7 160.5 526 L 153.5 531 L 142.5 536 L 139.5 536 L 134.5 538 L 125.5 538 L 124.5 539 L 123.5 538 L 115.5 538 Q 114.5 536 110.5 537 L 104.5 534 L 102.5 534 Q 91.1 528.4 83 519.5 L 76 509.5 L 71 497.5 L 70 489.5 L 69 488.5 L 69 474.5 L 70 473.5 L 70 469.5 L 71 468.5 L 71 465.5 L 73 459.5 L 77 451.5 L 88.5 438 L 102.5 429 L 104.5 429 L 110.5 426 Q 113.7 426.7 114.5 425 L 120.5 425 L 121.5 424 Z " /><path fill="rgb(110,110,110)" stroke="rgb(110,110,110)" stroke-width="1" opacity="1" d="M 437.5 149 L 440 151.5 L 439.5 152 L 437 149.5 L 437.5 149 Z " /><path fill="rgb(110,110,110)" stroke="rgb(110,110,110)" stroke-width="1" opacity="1" d="M 477.5 167 L 482 167.5 L 477.5 168 L 477.5 167 Z " /><path fill="rgb(139,139,131)" stroke="rgb(139,139,131)" stroke-width="1" opacity="0.7215686274509804" d="M 589.5 34 Q 596.9 38.1 602 44.5 Q 609.4 52.6 614 63.5 L 617 72.5 L 617 75.5 L 618 76.5 L 618 80.5 L 619 81.5 L 619 550.5 L 618 551.5 L 618 556.5 L 617 557.5 L 617 560.5 L 615 566.5 L 610 576.5 L 604 585.5 L 594.5 595 L 586.5 601 L 574.5 607 L 568.5 609 L 565.5 609 L 564.5 610 L 560.5 610 L 559.5 611 L 546.5 611 L 545.5 612 L 103.5 612 L 102.5 611 L 89.5 611 L 88.5 610 L 83.5 610 L 82.5 609 L 75 607.5 L 75.5 606 L 68 605.5 L 531 604.5 L 460 603.5 L 465.5 603 L 466.5 602 L 537.5 602 L 538.5 601 L 543.5 601 L 549.5 599 L 549.5 600 L 540 602.5 L 544.5 603 L 545.5 602 L 552.5 601 L 565.5 595 L 574.5 589 L 588 575.5 L 598 558.5 L 602 546.5 Q 601 542.5 603 541.5 L 603 533.5 L 604 532.5 L 604 75.5 L 603 74.5 L 603 66.5 Q 601 65.5 602 61.5 L 601 60.5 L 601 57.5 L 599 51.5 L 593 39.5 L 589 34.5 L 589.5 34 Z M 535 603 L 535 604 L 540 604 L 535 603 Z " /><path fill="rgb(139,139,131)" stroke="rgb(139,139,131)" stroke-width="1" opacity="0.7215686274509804" d="M 63.5 604 L 66 604.5 L 63.5 605 L 63.5 604 Z " /><path fill="rgb(190,190,200)" stroke="rgb(190,190,200)" stroke-width="1" opacity="1" d="M 68.5 480 L 69 482.5 L 68 482.5 L 68.5 480 Z " /><path fill="rgb(190,190,200)" stroke="rgb(190,190,200)" stroke-width="1" opacity="1" d="M 594.5 558 L 595 559.5 L 593 562.5 L 593.5 564 L 591 563.5 L 594.5 558 Z " /><path fill="rgb(190,190,200)" stroke="rgb(190,190,200)" stroke-width="1" opacity="1" d="M 580.5 578 L 581 578.5 L 578.5 581 L 578 580.5 L 580.5 578 Z " /><path fill="rgb(190,190,200)" stroke="rgb(190,190,200)" stroke-width="1" opacity="1" d="M 24.5 580 L 32 586.5 L 31.5 588 L 30.5 586 L 29 586.5 L 29.5 588 L 28 586.5 Q 30.3 585.3 27.5 584 L 24 581.5 L 24.5 580 Z " /><path fill="rgb(190,190,200)" stroke="rgb(190,190,200)" stroke-width="1" opacity="1" d="M 39.5 594 L 42 595.5 L 40.5 596 Q 38 595 39.5 594 Z " /><path fill="rgb(190,190,200)" stroke="rgb(190,190,200)" stroke-width="1" opacity="1" d="M 53.5 596 L 54 597.5 L 52.5 598 Q 51 597 53.5 596 Z " /><path fill="rgb(190,190,200)" stroke="rgb(190,190,200)" stroke-width="1" opacity="1" d="M 55.5 596 L 56.5 597 L 546.5 597 L 549.5 596 Q 552 597 550.5 598 L 547.5 597 L 547.5 599 L 544.5 598 L 543.5 600 L 540.5 599 Q 539.8 601.8 535.5 601 Q 534.5 599 533.5 601 Q 528.8 599.8 527.5 602 L 73.5 602 L 72.5 601 L 64.5 601 L 63.5 600 L 59 599.5 L 58.5 598 L 55.5 599 L 55.5 596 Z " /><path fill="rgb(200,190,190)" stroke="rgb(200,190,190)" stroke-width="1" opacity="0.996078431372549" d="M 592.5 564 Q 595 565 593.5 566 L 591.5 567 L 592 565.5 L 592.5 564 Z " /><path fill="rgb(200,190,190)" stroke="rgb(200,190,190)" stroke-width="1" opacity="0.996078431372549" d="M 23.5 579 Q 23.7 582.8 26.5 584 L 30 586.5 L 28.5 586 L 22 580.5 L 23.5 579 Z " /><path fill="rgb(200,190,190)" stroke="rgb(200,190,190)" stroke-width="1" opacity="0.996078431372549" d="M 56.5 596 L 547 596.5 L 56.5 597 L 56.5 596 Z " /><path fill="rgb(212,209,209)" stroke="rgb(212,209,209)" stroke-width="1" opacity="0.9882352941176471" d="M 66.5 3 L 68.5 4 L 534.5 4 L 536.5 3 Q 537.3 5.8 541.5 5 L 543 4.5 L 543.5 6 L 546.5 5 L 547.5 7 L 555.5 9 L 565.5 14 L 579.5 25 L 581 24.5 L 580 25.5 L 585 30.5 L 585.5 32 L 587 31.5 Q 584.5 33 588 34.5 L 588.5 36 L 590 35.5 Q 588 36.5 590 37.5 L 590.5 39 L 592 38.5 L 591.5 40 L 593 40.5 Q 591 41.5 593 42.5 L 595.5 48 L 597 48.5 L 596.5 50 L 598 50.5 L 597 52.5 L 599 53.5 L 598 55.5 L 600 55.5 L 599 58.5 L 601 59.5 Q 599.3 60.3 600 63.5 L 602 63.5 Q 600.3 65.3 601 69.5 L 603 69.5 L 602 72.5 L 602 534.5 Q 603.7 535.3 603 538.5 L 601 538.5 Q 600.3 542.7 602 544.5 L 600 544.5 L 601 547.5 L 596.5 559 L 596 557.5 L 598 553.5 L 598 550.5 L 597 550.5 L 596.5 552 L 596 550.5 L 598 546.5 Q 597.3 543.3 599 542.5 L 599 536.5 L 600 535.5 L 600 71.5 L 599 70.5 L 599 64.5 Q 597.3 63.8 598 60.5 L 595 51.5 L 590 41.5 Q 583.6 30.9 574.5 23 L 557.5 12 L 555.5 12 L 546.5 8 L 538.5 7 L 537.5 6 L 66.5 6 L 65.5 7 L 61.5 7 L 60.5 8 L 57.5 8 L 48.5 11 L 40.5 15 Q 28.6 22.1 20 32.5 L 9 50.5 L 6 59.5 L 6 62.5 L 5 63.5 L 5 67.5 L 4 68.5 L 4 538.5 L 5 539.5 L 5 543.5 L 6 544.5 L 8 554.5 L 14 566.5 L 20.5 574 L 21.5 573 L 582.5 573 L 584 574.5 L 573.5 585 L 564.5 591 L 565.5 588 L 37 588.5 L 40 590.5 L 38.5 590 L 31.5 586 L 20 575.5 L 16.5 571 L 16 572.5 Q 20.4 581.1 28 586.5 L 27.5 587 L 16 575.5 L 15.5 573 L 14 572.5 L 13.5 570 L 12 569.5 Q 14 568.5 12 567.5 L 9.5 562 L 8 562.5 L 9 560.5 L 6.5 555 L 5 555.5 L 6 553.5 L 4 552.5 L 5 549.5 L 3 548.5 L 4 545.5 L 2 544.5 Q 4 543.5 3 539.5 L 1 539.5 L 2 536.5 L 2 71.5 L 1 68.5 L 3 67.5 L 2 62.5 L 4 62.5 L 3 58.5 L 5 58.5 L 6 52.5 L 13 38.5 Q 19.8 27.8 29.5 20 L 45.5 10 L 57 6.5 L 57.5 5 L 60.5 6 L 61.5 4 Q 62.2 5.8 65.5 5 L 66.5 3 Z " /><path fill="rgb(212,209,209)" stroke="rgb(212,209,209)" stroke-width="1" opacity="0.9882352941176471" d="M 421.5 108 L 422 111.5 L 421 111.5 L 421.5 108 Z " /><path fill="rgb(212,209,209)" stroke="rgb(212,209,209)" stroke-width="1" opacity="0.9882352941176471" d="M 84.5 521 L 87 523.5 L 86.5 524 L 84 521.5 L 84.5 521 Z " /><path fill="rgb(205,204,204)" stroke="rgb(205,204,204)" stroke-width="1" opacity="0.996078431372549" d="M 597.5 550 L 599 554.5 L 597 554.5 L 596 558.5 L 596.5 560 L 595 559.5 L 594 557.5 L 597.5 550 Z " /><path fill="rgb(205,204,204)" stroke="rgb(205,204,204)" stroke-width="1" opacity="0.996078431372549" d="M 594.5 561 L 596 561.5 Q 595 564 594 562.5 L 594.5 561 Z " /><path fill="rgb(205,204,204)" stroke="rgb(205,204,204)" stroke-width="1" opacity="0.996078431372549" d="M 16.5 571 L 23 579.5 L 21.5 580 L 17 574.5 Q 15.3 573 16.5 571 Z " /><path fill="rgb(205,204,204)" stroke="rgb(205,204,204)" stroke-width="1" opacity="0.996078431372549" d="M 27.5 582 L 30 584.5 L 29.5 585 L 27 582.5 L 27.5 582 Z " /><path fill="rgb(205,204,204)" stroke="rgb(205,204,204)" stroke-width="1" opacity="0.996078431372549" d="M 28.5 587 L 33 590.5 L 32.5 591 L 30.5 589 Q 26.7 588.3 28.5 587 Z " /><path fill="rgb(205,204,204)" stroke="rgb(205,204,204)" stroke-width="1" opacity="0.996078431372549" d="M 35.5 588 Q 36.5 590 37.5 588 L 566 588.5 L 563.5 592 L 562 591.5 L 561.5 593 L 560 592.5 L 559.5 594 L 544.5 599 L 544.5 598 L 550 596.5 L 53.5 596 L 51.5 597 L 40 591.5 L 39.5 590 L 38 590.5 L 38.5 589 L 36.5 590 Q 34 589 35.5 588 Z " /><path fill="rgb(205,204,204)" stroke="rgb(205,204,204)" stroke-width="1" opacity="0.996078431372549" d="M 540.5 599 L 543 599.5 L 540.5 600 L 540.5 599 Z " /><path fill="rgb(234,233,233)" stroke="rgb(234,233,233)" stroke-width="1" opacity="0.996078431372549" d="M 68.5 3 L 535 3.5 L 68.5 4 L 68.5 3 Z " /><path fill="rgb(234,233,233)" stroke="rgb(234,233,233)" stroke-width="1" opacity="0.996078431372549" d="M 537.5 3 L 542 4.5 L 538.5 5 Q 536 4 537.5 3 Z " /><path fill="rgb(234,233,233)" stroke="rgb(234,233,233)" stroke-width="1" opacity="0.996078431372549" d="M 62.5 4 L 66 4.5 L 62.5 5 L 62.5 4 Z " /><path fill="rgb(234,233,233)" stroke="rgb(234,233,233)" stroke-width="1" opacity="0.996078431372549" d="M 58.5 5 L 61 5.5 L 58.5 6 L 58.5 5 Z " /><path fill="rgb(234,233,233)" stroke="rgb(234,233,233)" stroke-width="1" opacity="0.996078431372549" d="M 543.5 5 L 546 5.5 L 543.5 6 L 543.5 5 Z " /><path fill="rgb(234,233,233)" stroke="rgb(234,233,233)" stroke-width="1" opacity="0.996078431372549" d="M 53.5 6 L 57 6.5 L 46.5 10 L 46.5 9 L 53.5 6 Z " /><path fill="rgb(234,233,233)" stroke="rgb(234,233,233)" stroke-width="1" opacity="0.996078431372549" d="M 66.5 6 L 537.5 6 L 538.5 7 L 546.5 8 L 561.5 14 L 574.5 23 L 582 30.5 Q 590 39.5 595 51.5 L 598 60.5 Q 597.3 63.8 599 64.5 L 599 70.5 L 600 71.5 L 600 535.5 L 599 536.5 L 599 542.5 L 598 543.5 L 598 546.5 L 595 555.5 L 590 565.5 L 581.5 576 L 582.5 573 L 21.5 573 L 20.5 574 L 14 566.5 L 8 554.5 L 6 544.5 L 5 543.5 L 5 539.5 L 4 538.5 L 4 68.5 L 5 67.5 L 6 59.5 L 12 44.5 L 20 32.5 L 30.5 22 Q 38.4 15.4 48.5 11 L 57.5 8 L 60.5 8 L 61.5 7 L 65.5 7 L 66.5 6 Z M 474 52 L 473 53 L 464 54 L 458 57 L 456 57 L 442 66 L 435 73 L 427 85 L 422 100 L 422 108 L 421 109 Q 420 112 422 113 L 422 121 L 423 122 L 423 125 L 425 131 L 428 138 L 434 147 Q 441 154 450 160 L 464 166 L 473 167 L 474 168 L 486 168 L 487 167 L 496 166 L 508 161 L 518 154 L 529 141 L 534 131 L 536 121 L 537 120 L 537 101 L 535 96 L 535 93 L 529 80 L 522 71 L 508 59 L 499 55 L 493 54 L 492 53 L 486 53 L 485 52 L 474 52 Z M 127 423 L 126 424 L 117 424 L 116 425 L 112 425 L 106 427 L 96 432 L 88 438 L 79 448 L 72 461 L 70 467 L 70 470 L 69 471 L 69 477 L 68 478 L 69 493 L 70 494 L 70 497 L 72 503 L 77 513 L 84 522 L 96 531 L 106 536 L 116 538 L 117 539 L 133 539 L 134 538 L 142 537 Q 153 533 162 526 Q 169 520 174 512 L 179 502 L 181 495 L 181 497 L 183 497 L 183 492 L 184 491 L 184 473 Q 182 471 183 468 L 178 455 L 172 446 Q 163 434 150 428 L 141 425 L 138 425 L 137 424 L 128 424 L 127 423 Z " /><path fill="rgb(234,233,233)" stroke="rgb(234,233,233)" stroke-width="1" opacity="0.996078431372549" d="M 547.5 6 L 555.5 8 L 567.5 14 Q 578.2 20.8 586 30.5 L 592 39.5 Q 591 41 590 38.5 Q 584.6 27.9 575.5 21 L 565.5 14 L 555.5 9 L 547.5 7 L 547.5 6 Z " /><path fill="rgb(234,233,233)" stroke="rgb(234,233,233)" stroke-width="1" opacity="0.996078431372549" d="M 43.5 10 L 45 10.5 L 40.5 13 Q 39 12 41.5 11 L 43.5 10 Z " /><path fill="rgb(234,233,233)" stroke="rgb(234,233,233)" stroke-width="1" opacity="0.996078431372549" d="M 38.5 13 Q 40 14 37.5 15 Q 25.7 21.2 18 31.5 L 8 47.5 L 4.5 59 L 4 55.5 L 9 43.5 L 16 32.5 L 30.5 18 L 38.5 13 Z " /><path fill="rgb(234,233,233)" stroke="rgb(234,233,233)" stroke-width="1" opacity="0.996078431372549" d="M 592.5 41 L 596 47.5 L 595 47.5 L 592 41.5 L 592.5 41 Z " /><path fill="rgb(234,233,233)" stroke="rgb(234,233,233)" stroke-width="1" opacity="0.996078431372549" d="M 3.5 60 L 4 62.5 L 3 62.5 L 3.5 60 Z " /><path fill="rgb(234,233,233)" stroke="rgb(234,233,233)" stroke-width="1" opacity="0.996078431372549" d="M 600.5 60 L 601 63.5 L 600 63.5 L 600.5 60 Z " /><path fill="rgb(234,233,233)" stroke="rgb(234,233,233)" stroke-width="1" opacity="0.996078431372549" d="M 2.5 64 L 3 67.5 L 2 67.5 L 2.5 64 Z " /><path fill="rgb(234,233,233)" stroke="rgb(234,233,233)" stroke-width="1" opacity="0.996078431372549" d="M 601.5 65 L 602 69.5 L 601 69.5 L 601.5 65 Z " /><path fill="rgb(234,233,233)" stroke="rgb(234,233,233)" stroke-width="1" opacity="0.996078431372549" d="M 1.5 71 L 2 536.5 L 1 536.5 L 1.5 71 Z " /><path fill="rgb(234,233,233)" stroke="rgb(234,233,233)" stroke-width="1" opacity="0.996078431372549" d="M 602.5 72 L 603 534.5 L 602 534.5 L 602.5 72 Z " /><path fill="rgb(234,233,233)" stroke="rgb(234,233,233)" stroke-width="1" opacity="0.996078431372549" d="M 601.5 538 L 602 542.5 L 601 542.5 L 601.5 538 Z " /><path fill="rgb(234,233,233)" stroke="rgb(234,233,233)" stroke-width="1" opacity="0.996078431372549" d="M 2.5 539 L 3 543.5 L 2 543.5 L 2.5 539 Z " /><path fill="rgb(234,233,233)" stroke="rgb(234,233,233)" stroke-width="1" opacity="0.996078431372549" d="M 600.5 544 L 601 546.5 L 600 546.5 L 600.5 544 Z " /><path fill="rgb(234,233,233)" stroke="rgb(234,233,233)" stroke-width="1" opacity="0.996078431372549" d="M 3.5 545 L 4 547.5 L 3 547.5 L 3.5 545 Z " /><path fill="rgb(234,233,233)" stroke="rgb(234,233,233)" stroke-width="1" opacity="0.996078431372549" d="M 4.5 549 L 5 551.5 L 4 551.5 L 4.5 549 Z " /><path fill="rgb(234,233,233)" stroke="rgb(234,233,233)" stroke-width="1" opacity="0.996078431372549" d="M 5.5 553 L 13 568.5 Q 12 570 11 567.5 L 6 557.5 L 5.5 553 Z " /><path fill="rgb(60,60,60)" stroke="rgb(60,60,60)" stroke-width="1" opacity="0.011764705882352941" d="M 548.5 2 L 552 2.5 L 548.5 3 L 548.5 2 Z " /><path fill="rgb(60,60,60)" stroke="rgb(60,60,60)" stroke-width="1" opacity="0.011764705882352941" d="M 559.5 3 L 563 3.5 L 559.5 4 L 559.5 3 Z " /><path fill="rgb(60,60,60)" stroke="rgb(60,60,60)" stroke-width="1" opacity="0.011764705882352941" d="M 587.5 11 L 592 13.5 L 590.5 13 L 587.5 12 L 587.5 11 Z " /><path fill="rgb(60,60,60)" stroke="rgb(60,60,60)" stroke-width="1" opacity="0.011764705882352941" d="M 593.5 14 Q 608.6 22.4 619 35.5 L 623 41.5 L 622.5 42 L 620 39.5 Q 614.7 30.3 606.5 24 L 594.5 16 Q 592 15 593.5 14 Z " /><path fill="rgb(60,60,60)" stroke="rgb(60,60,60)" stroke-width="1" opacity="0.011764705882352941" d="M 623.5 43 L 626 46.5 Q 625 48 624 45.5 L 623.5 43 Z " /><path fill="rgb(60,60,60)" stroke="rgb(60,60,60)" stroke-width="1" opacity="0.011764705882352941" d="M 626.5 48 L 630 54.5 L 629 54.5 L 626 48.5 L 626.5 48 Z " /><path fill="rgb(60,60,60)" stroke="rgb(60,60,60)" stroke-width="1" opacity="0.011764705882352941" d="M 635.5 71 L 636 73.5 L 635 73.5 L 635.5 71 Z " /><path fill="rgb(60,60,60)" stroke="rgb(60,60,60)" stroke-width="1" opacity="0.011764705882352941" d="M 636.5 76 L 637 79.5 L 636 79.5 L 636.5 76 Z " /><path fill="rgb(60,60,60)" stroke="rgb(60,60,60)" stroke-width="1" opacity="0.011764705882352941" d="M 637.5 85 L 638 546.5 L 637 546.5 L 637.5 85 Z " /><path fill="rgb(60,60,60)" stroke="rgb(60,60,60)" stroke-width="1" opacity="0.011764705882352941" d="M 636.5 552 L 637 555.5 L 636 555.5 L 636.5 552 Z " /><path fill="rgb(60,60,60)" stroke="rgb(60,60,60)" stroke-width="1" opacity="0.011764705882352941" d="M 635.5 558 L 636 560.5 L 635 560.5 L 635.5 558 Z " /><path fill="rgb(60,60,60)" stroke="rgb(60,60,60)" stroke-width="1" opacity="0.011764705882352941" d="M 630.5 575 L 631 576.5 L 628.5 581 L 628 579.5 L 630.5 575 Z " /><path fill="rgb(60,60,60)" stroke="rgb(60,60,60)" stroke-width="1" opacity="0.011764705882352941" d="M 627.5 582 L 627 583.5 L 625.5 586 L 626 584.5 L 627.5 582 Z " /><path fill="rgb(60,60,60)" stroke="rgb(60,60,60)" stroke-width="1" opacity="0.011764705882352941" d="M 23.5 587 Q 31.3 599.7 42.5 609 L 53 616.5 L 51.5 616 L 43.5 611 L 30 597.5 L 24 589.5 L 23.5 587 Z " /><path fill="rgb(60,60,60)" stroke="rgb(60,60,60)" stroke-width="1" opacity="0.011764705882352941" d="M 624.5 587 L 624 588.5 L 619 596.5 L 604.5 611 L 595.5 617 Q 594 616 596.5 615 Q 608.6 608.1 617 597.5 L 624.5 587 Z " /><path fill="rgb(60,60,60)" stroke="rgb(60,60,60)" stroke-width="1" opacity="0.011764705882352941" d="M 54.5 617 L 58 619.5 L 56.5 619 Q 52.7 618.3 54.5 617 Z " /><path fill="rgb(60,60,60)" stroke="rgb(60,60,60)" stroke-width="1" opacity="0.011764705882352941" d="M 593.5 617 Q 595 618 592.5 619 L 590.5 620 Q 589 619 591.5 618 L 593.5 617 Z " /><path fill="rgb(60,60,60)" stroke="rgb(60,60,60)" stroke-width="1" opacity="0.011764705882352941" d="M 59.5 620 L 65 622.5 L 63.5 623 L 59.5 621 L 59.5 620 Z " /><path fill="rgb(60,60,60)" stroke="rgb(60,60,60)" stroke-width="1" opacity="0.011764705882352941" d="M 587.5 620 L 589 620.5 L 583.5 623 L 583.5 622 L 587.5 620 Z " /><path fill="rgb(60,60,60)" stroke="rgb(60,60,60)" stroke-width="1" opacity="0.011764705882352941" d="M 79.5 627 L 82 627.5 L 79.5 628 L 79.5 627 Z " /><path fill="rgb(60,60,60)" stroke="rgb(60,60,60)" stroke-width="1" opacity="0.011764705882352941" d="M 84.5 628 L 87 628.5 L 84.5 629 L 84.5 628 Z " /><path fill="rgb(60,60,60)" stroke="rgb(60,60,60)" stroke-width="1" opacity="0.011764705882352941" d="M 561.5 628 L 565 628.5 L 561.5 629 L 561.5 628 Z " /><path fill="rgb(60,60,60)" stroke="rgb(60,60,60)" stroke-width="1" opacity="0.011764705882352941" d="M 92.5 629 L 104 629.5 L 92.5 630 L 92.5 629 Z " /><path fill="rgb(60,60,60)" stroke="rgb(60,60,60)" stroke-width="1" opacity="0.011764705882352941" d="M 544.5 629 L 556 629.5 L 544.5 630 L 544.5 629 Z " /><path fill="rgb(66,66,66)" stroke="rgb(66,66,66)" stroke-width="1" opacity="1" d="M 165.5 439 L 169 442.5 L 168.5 443 L 165 439.5 L 165.5 439 Z " /><path fill="rgb(66,66,66)" stroke="rgb(66,66,66)" stroke-width="1" opacity="1" d="M 183.5 476 L 184 479.5 L 183 479.5 L 183.5 476 Z " /><path fill="rgb(66,66,66)" stroke="rgb(66,66,66)" stroke-width="1" opacity="1" d="M 183.5 483 L 184 485.5 L 183 485.5 L 183.5 483 Z " /><path fill="rgb(66,66,66)" stroke="rgb(66,66,66)" stroke-width="1" opacity="1" d="M 120.5 538 L 124 538.5 L 120.5 539 L 120.5 538 Z " /><path fill="rgb(66,66,66)" stroke="rgb(66,66,66)" stroke-width="1" opacity="1" d="M 125.5 538 L 129 538.5 L 125.5 539 L 125.5 538 Z " /><path fill="rgb(139,140,130)" stroke="rgb(139,140,130)" stroke-width="1" opacity="0.4980392156862745" d="M 582.5 23 L 587.5 27 L 590 27.5 L 590.5 29 L 593 29.5 L 593.5 31 L 598 33.5 L 598.5 35 L 601 36.5 L 602.5 39 L 608 43.5 L 608.5 46 L 611 47.5 L 611.5 50 L 613 50.5 L 618 59.5 L 618 61.5 L 621 67.5 L 621 70.5 L 623 74.5 L 623 81.5 L 624 82.5 L 625 91.5 L 624 93.5 L 625 94.5 L 625 538.5 Q 623 539.5 625 540.5 Q 625.8 543.8 624 544.5 L 624 550.5 L 623 551.5 Q 625 552.5 623 553.5 L 622 556.5 Q 624 557.5 622 558.5 L 622 561.5 L 620 567.5 L 618 569.5 Q 620 570.5 618 571.5 L 615.5 577 L 614 577.5 L 614.5 579 L 613 579.5 L 612.5 582 L 611 582.5 L 611 584.5 L 605.5 591 L 604 591.5 L 600.5 596 L 599 596.5 L 595.5 601 L 592 602.5 L 591.5 604 L 580.5 610 L 578.5 610 L 573.5 613 L 569.5 613 L 566.5 615 L 564.5 614 L 561.5 616 Q 555.3 614.8 552.5 617 L 550.5 616 L 548.5 617 Q 547.8 615.3 544.5 616 L 543.5 617 L 104.5 617 Q 103.8 615.3 100.5 616 L 98.5 617 L 96.5 616 Q 95.5 618 94.5 616 Q 90.5 617 89.5 615 L 88.5 616 L 85.5 615 L 83.5 614 L 81.5 615 L 78.5 613 L 72.5 612 L 70.5 610 Q 69.5 612 68.5 610 L 59 605.5 L 62.5 604 L 68.5 606 L 76 606.5 L 75.5 608 L 78.5 608 L 83.5 610 L 88.5 610 L 89.5 611 L 102.5 611 L 103.5 612 L 545.5 612 L 546.5 611 L 559.5 611 L 560.5 610 L 564.5 610 L 565.5 609 L 568.5 609 L 574.5 607 L 589.5 599 L 604 585.5 L 615 566.5 L 617 560.5 L 617 557.5 L 618 556.5 L 618 551.5 L 619 550.5 L 619 81.5 L 618 80.5 L 618 76.5 L 617 75.5 L 617 72.5 L 614 63.5 L 610 55.5 Q 604 45.5 595.5 38 L 587 31.5 L 581 24.5 L 582.5 23 Z " /><path fill="rgb(229,229,229)" stroke="rgb(229,229,229)" stroke-width="1" opacity="0.7372549019607844" d="M 72.5 2 L 531 2.5 L 72.5 3 L 72.5 2 Z " /><path fill="rgb(229,229,229)" stroke="rgb(229,229,229)" stroke-width="1" opacity="0.7372549019607844" d="M 26.5 21 L 27 21.5 L 20.5 28 L 20 27.5 L 26.5 21 Z " /><path fill="rgb(229,229,229)" stroke="rgb(229,229,229)" stroke-width="1" opacity="0.7372549019607844" d="M 0.5 74 L 1 533.5 L 0 533.5 L 0.5 74 Z " /><path fill="rgb(182,182,181)" stroke="rgb(182,182,181)" stroke-width="1" opacity="0.9764705882352941" d="M 476.5 52 L 483 52.5 L 476.5 53 L 476.5 52 Z " /><path fill="rgb(182,182,181)" stroke="rgb(182,182,181)" stroke-width="1" opacity="0.9764705882352941" d="M 440.5 67 L 441 67.5 L 437.5 71 L 437 70.5 L 440.5 67 Z " /><path fill="rgb(182,182,181)" stroke="rgb(182,182,181)" stroke-width="1" opacity="0.9764705882352941" d="M 603.5 75 L 604 532.5 L 603 532.5 L 603.5 75 Z " /><path fill="rgb(182,182,181)" stroke="rgb(182,182,181)" stroke-width="1" opacity="0.9764705882352941" d="M 482.5 167 L 485 167.5 L 482.5 168 L 482.5 167 Z " /><path fill="rgb(182,182,181)" stroke="rgb(182,182,181)" stroke-width="1" opacity="0.9764705882352941" d="M 590.5 566 L 590 567.5 L 592 569.5 L 591.5 570 Q 590.3 567.8 589 570.5 L 590 572.5 L 587 574.5 L 588 575.5 L 574.5 589 L 565.5 595 L 552.5 601 L 545.5 602 L 544.5 603 L 540.5 603 L 539.5 604 L 534.5 604 L 534.5 603 L 539.5 603 L 544 601.5 L 539 600.5 L 546.5 599 L 549.5 600 L 549.5 599 L 548 598.5 L 553.5 597 L 565.5 591 L 581 578.5 L 590.5 566 Z M 545 600 L 545 601 L 547 601 L 545 600 Z " /><path fill="rgb(182,182,181)" stroke="rgb(182,182,181)" stroke-width="1" opacity="0.9764705882352941" d="M 30.5 586 L 31.5 588 Q 33 585.5 34.5 589 L 49.5 597 L 55.5 599 L 58.5 599 L 59.5 600 Q 63.5 599 64.5 601 L 72.5 601 L 73.5 602 L 466 602.5 L 460 603.5 L 531 604.5 L 66.5 605 L 65.5 604 L 61.5 604 L 60.5 603 L 53.5 602 L 41 596.5 L 41.5 595 L 39.5 596 L 36.5 592 L 30 587.5 L 30.5 586 Z " /><path fill="rgb(182,182,181)" stroke="rgb(182,182,181)" stroke-width="1" opacity="0.9764705882352941" d="M 528.5 601 L 538 601.5 L 528.5 602 L 528.5 601 Z " /><path fill="rgb(180,70,70)" stroke="rgb(180,70,70)" stroke-width="1" opacity="0.011764705882352941" d="M 14.5 576 L 15 590.5 L 14 590.5 L 14.5 576 Z " /><path fill="rgb(248,248,248)" stroke="rgb(248,248,248)" stroke-width="1" opacity="0.00392156862745098" d="M 65.5 0 L 69 0.5 L 65.5 1 L 65.5 0 Z " /><path fill="rgb(248,248,248)" stroke="rgb(248,248,248)" stroke-width="1" opacity="0.00392156862745098" d="M 77.5 0 L 84 0.5 L 77.5 1 L 77.5 0 Z " /><path fill="rgb(248,248,248)" stroke="rgb(248,248,248)" stroke-width="1" opacity="0.00392156862745098" d="M 101.5 0 L 527 0.5 L 101.5 1 L 101.5 0 Z " /><path fill="rgb(248,248,248)" stroke="rgb(248,248,248)" stroke-width="1" opacity="0.00392156862745098" d="M 537.5 0 L 545.5 0 L 546.5 1 L 561.5 1 L 562.5 2 L 567.5 2 L 568.5 3 L 571.5 3 L 572.5 4 L 575.5 4 L 584.5 7 Q 606.2 16.3 620 33.5 Q 627.8 42.8 632.5 55 L 640 55.5 L 633 56.5 L 635 61.5 L 638 76.5 L 639 77.5 L 639 85.5 L 640 86.5 L 640 545.5 L 639 546.5 L 639 554.5 Q 637 555.5 638 559.5 L 636 563.5 L 636 567.5 L 633 576.5 L 627 588.5 L 621 597.5 L 611.5 608 L 601.5 616 L 587.5 624 L 585.5 624 L 576.5 628 L 569.5 629 L 568.5 630 Q 564.5 629 563.5 631 L 553.5 631 L 552.5 632 L 95.5 632 L 94.5 631 L 85.5 631 Q 84.2 628.7 79.5 630 L 78.5 629 L 75.5 629 L 74.5 628 L 71.5 628 L 65.5 626 L 49.5 618 L 35 606.5 L 25 594.5 L 15 576.5 L 15.5 576 L 20 580.5 L 19 582.5 L 22 585.5 L 23 588.5 L 31 599.5 L 40.5 609 L 52.5 618 L 64.5 624 L 76.5 628 L 80.5 628 L 81.5 629 Q 86.2 627.8 87.5 630 L 100.5 630 L 101.5 631 L 546.5 631 L 547.5 630 L 560.5 630 L 561.5 629 L 566.5 629 L 567.5 628 L 571.5 628 L 575.5 626 L 578.5 626 L 595.5 618 L 606 610.5 L 606.5 609 L 618 598.5 L 626 587.5 L 632 575.5 L 635 566.5 L 636 559.5 L 637 558.5 L 637 553.5 L 638 552.5 L 638 80.5 L 637 79.5 L 637 73.5 L 636 72.5 L 635 65.5 L 631 56.5 L 631 54.5 L 627 46.5 L 616.5 32 L 615 31.5 L 608.5 24 L 593.5 13 L 580.5 7 L 574.5 5 L 571.5 5 L 570.5 4 L 566.5 4 L 565.5 3 L 559.5 3 L 558.5 2 L 544.5 2 L 542.5 1 L 542.5 3 L 536 2.5 L 539 1.5 L 537 0.5 L 537.5 0 Z " /><path fill="rgb(248,248,248)" stroke="rgb(248,248,248)" stroke-width="1" opacity="0.00392156862745098" d="M 60.5 1 L 68 2.5 L 57.5 4 L 48.5 8 L 46.5 8 L 31.5 16 L 21 25.5 L 15 32.5 L 9.5 42 L 8 41.5 L 9 43.5 L 5 49.5 L 5 52.5 L 1.5 63 L 0 59.5 L 0 56.5 L 3 55.5 L 0 54.5 L 0.5 20 L 26 19.5 L 0 18.5 L 0.5 16 L 31 15.5 L 0 14.5 L 0.5 8 L 44 7.5 L 0 6.5 L 0.5 4 L 54 3.5 L 0 2.5 L 58.5 2 L 60 2.5 L 60.5 1 Z " /><path fill="rgb(248,248,248)" stroke="rgb(248,248,248)" stroke-width="1" opacity="0.00392156862745098" d="M 1.5 544 L 5 557.5 L 10 567.5 L 15 574.5 L 14 575.5 L 13.5 591 L 12 590.5 L 11.5 572 L 10.5 591 L 10 570.5 Q 12.3 569.3 9.5 568 L 8.5 591 L 8 568.5 Q 10.3 567.3 7.5 566 L 6.5 591 L 5 590.5 L 4.5 560 L 3.5 591 L 1 590.5 L 1 549.5 L 0 548.5 L 1 545.5 L 1.5 544 Z " /><path fill="rgb(248,248,248)" stroke="rgb(248,248,248)" stroke-width="1" opacity="0.00392156862745098" d="M 25.5 586 L 29 589.5 L 28.5 590 L 25 587.5 L 25.5 586 Z " /><path fill="rgb(0,0,0)" stroke="rgb(0,0,0)" stroke-width="1" opacity="0" d="M 0.5 0 L 64.5 0 L 65.5 1 L 538 1.5 L 65.5 2 Q 64.5 0 60.5 1 L 59.5 2 L 0.5 2 L 0.5 0 Z " /><path fill="rgb(0,0,0)" stroke="rgb(0,0,0)" stroke-width="1" opacity="0" d="M 547.5 0 L 640 0.5 L 639.5 55 L 632 54.5 Q 623.4 33.1 606.5 20 L 596.5 13 L 579.5 5 L 572.5 4 L 567.5 2 L 562.5 2 L 561.5 1 L 547.5 1 L 547.5 0 Z " /><path fill="rgb(0,0,0)" stroke="rgb(0,0,0)" stroke-width="1" opacity="0" d="M 555.5 6 L 558 7.5 L 556.5 8 Q 554 7 555.5 6 Z " /><path fill="rgb(0,0,0)" stroke="rgb(0,0,0)" stroke-width="1" opacity="0" d="M 633.5 56 L 640 56.5 L 639.5 86 L 639 77.5 L 637 72.5 L 636 64.5 L 633 57.5 L 633.5 56 Z " /><path fill="rgb(0,0,0)" stroke="rgb(0,0,0)" stroke-width="1" opacity="0" d="M 639.5 546 L 640 631.5 L 554.5 632 L 554.5 631 L 563.5 631 Q 564.5 629 568.5 630 L 569.5 629 L 576.5 628 L 585.5 624 L 587.5 624 L 604.5 614 L 616 603.5 L 627 588.5 L 633 576.5 L 636 567.5 L 637 560.5 L 638 559.5 L 639.5 546 Z " /><path fill="rgb(0,0,0)" stroke="rgb(0,0,0)" stroke-width="1" opacity="0" d="M 0.5 549 L 1.5 591 L 4 590.5 L 4.5 560 L 5.5 591 L 7 590.5 L 7.5 566 L 8.5 591 L 15 590.5 L 15.5 578 L 25 594.5 L 37.5 609 L 49.5 618 L 65.5 626 L 71.5 628 L 74.5 628 L 75.5 629 L 78.5 629 L 79.5 630 L 94 631.5 L 0.5 632 L 0.5 549 Z " /><path fill="rgb(235,234,234)" stroke="rgb(235,234,234)" stroke-width="1" opacity="0.3568627450980392" d="M 68.5 2 L 72 2.5 L 68.5 3 L 68.5 2 Z " /><path fill="rgb(235,234,234)" stroke="rgb(235,234,234)" stroke-width="1" opacity="0.3568627450980392" d="M 531.5 2 L 536 2.5 L 531.5 3 L 531.5 2 Z " /><path fill="rgb(235,234,234)" stroke="rgb(235,234,234)" stroke-width="1" opacity="0.3568627450980392" d="M 540.5 3 L 543 3.5 L 540.5 4 L 540.5 3 Z " /><path fill="rgb(235,234,234)" stroke="rgb(235,234,234)" stroke-width="1" opacity="0.3568627450980392" d="M 30.5 17 L 31 17.5 L 28.5 20 L 28 19.5 L 30.5 17 Z " /><path fill="rgb(235,234,234)" stroke="rgb(235,234,234)" stroke-width="1" opacity="0.3568627450980392" d="M 23.5 23 L 24 23.5 L 21.5 26 L 21 25.5 L 23.5 23 Z " /><path fill="rgb(235,234,234)" stroke="rgb(235,234,234)" stroke-width="1" opacity="0.3568627450980392" d="M 17.5 30 L 18 30.5 L 15.5 33 L 15 32.5 L 17.5 30 Z " /><path fill="rgb(235,234,234)" stroke="rgb(235,234,234)" stroke-width="1" opacity="0.3568627450980392" d="M 1.5 63 L 2 65.5 L 1 65.5 L 1.5 63 Z " /><path fill="rgb(235,234,234)" stroke="rgb(235,234,234)" stroke-width="1" opacity="0.3568627450980392" d="M 0.5 69 L 1 71.5 L 0 71.5 L 0.5 69 Z " /><path fill="rgb(235,234,234)" stroke="rgb(235,234,234)" stroke-width="1" opacity="0.3568627450980392" d="M 0.5 535 L 1 538.5 L 0 538.5 L 0.5 535 Z " /><path fill="rgb(88,86,102)" stroke="rgb(88,86,102)" stroke-width="1" opacity="0.03137254901960784" d="M 552.5 2 L 559 2.5 L 552.5 3 L 552.5 2 Z " /><path fill="rgb(88,86,102)" stroke="rgb(88,86,102)" stroke-width="1" opacity="0.03137254901960784" d="M 563.5 3 L 566 3.5 L 565.5 5 L 563 3.5 L 563.5 3 Z " /><path fill="rgb(88,86,102)" stroke="rgb(88,86,102)" stroke-width="1" opacity="0.03137254901960784" d="M 568.5 4 L 571 4.5 L 568.5 5 L 568.5 4 Z " /><path fill="rgb(88,86,102)" stroke="rgb(88,86,102)" stroke-width="1" opacity="0.03137254901960784" d="M 572.5 5 L 575 5.5 L 572.5 6 L 572.5 5 Z " /><path fill="rgb(88,86,102)" stroke="rgb(88,86,102)" stroke-width="1" opacity="0.03137254901960784" d="M 564.5 11 L 567 12.5 L 565.5 12 Q 563.1 11.9 564.5 11 Z " /><path fill="rgb(88,86,102)" stroke="rgb(88,86,102)" stroke-width="1" opacity="0.03137254901960784" d="M 622.5 42 L 625 43.5 L 623.5 43 Q 621.1 42.9 622.5 42 Z " /><path fill="rgb(88,86,102)" stroke="rgb(88,86,102)" stroke-width="1" opacity="0.03137254901960784" d="M 637.5 80 L 638 84.5 L 637 84.5 L 637.5 80 Z " /><path fill="rgb(88,86,102)" stroke="rgb(88,86,102)" stroke-width="1" opacity="0.03137254901960784" d="M 637.5 547 L 638 552.5 L 637 552.5 L 637.5 547 Z " /><path fill="rgb(88,86,102)" stroke="rgb(88,86,102)" stroke-width="1" opacity="0.03137254901960784" d="M 636.5 556 L 637 558.5 L 636 558.5 L 636.5 556 Z " /><path fill="rgb(88,86,102)" stroke="rgb(88,86,102)" stroke-width="1" opacity="0.03137254901960784" d="M 634.5 565 L 635 566.5 L 633.5 567 Q 632 566 634.5 565 Z " /><path fill="rgb(88,86,102)" stroke="rgb(88,86,102)" stroke-width="1" opacity="0.03137254901960784" d="M 20.5 583 L 24 586.5 L 23.5 587 L 22 586.5 L 20 583.5 L 20.5 583 Z " /><path fill="rgb(88,86,102)" stroke="rgb(88,86,102)" stroke-width="1" opacity="0.03137254901960784" d="M 36.5 602 L 39 604.5 L 38.5 605 L 36 602.5 L 36.5 602 Z " /><path fill="rgb(88,86,102)" stroke="rgb(88,86,102)" stroke-width="1" opacity="0.03137254901960784" d="M 76.5 627 L 79 627.5 L 76.5 628 L 76.5 627 Z " /><path fill="rgb(88,86,102)" stroke="rgb(88,86,102)" stroke-width="1" opacity="0.03137254901960784" d="M 81.5 628 L 84 628.5 L 81.5 629 L 81.5 628 Z " /><path fill="rgb(88,86,102)" stroke="rgb(88,86,102)" stroke-width="1" opacity="0.03137254901960784" d="M 87.5 628 L 92 629.5 L 87.5 630 L 87.5 628 Z " /><path fill="rgb(88,86,102)" stroke="rgb(88,86,102)" stroke-width="1" opacity="0.03137254901960784" d="M 556.5 629 L 561 629.5 L 556.5 630 L 556.5 629 Z " /><path fill="rgb(88,86,102)" stroke="rgb(88,86,102)" stroke-width="1" opacity="0.03137254901960784" d="M 104.5 630 L 544 630.5 L 104.5 631 L 104.5 630 Z " /><path fill="rgb(135,136,130)" stroke="rgb(135,136,130)" stroke-width="1" opacity="0.10588235294117647" d="M 84.5 0 L 101 0.5 L 84.5 1 L 84.5 0 Z " /><path fill="rgb(135,136,130)" stroke="rgb(135,136,130)" stroke-width="1" opacity="0.10588235294117647" d="M 544.5 2 L 546.5 2 L 549.5 4 L 550.5 3 L 558.5 3 L 559.5 4 L 564.5 4 L 565.5 5 L 569.5 5 L 575.5 7 L 577 6.5 L 577.5 8 L 579.5 7 L 580.5 9 L 583.5 10 L 585 9.5 L 585.5 12 L 586.5 10 L 587.5 12 L 591.5 14 L 593 13.5 L 593.5 15 L 595 14.5 L 594.5 16 L 596 16.5 L 596.5 18 L 599 18.5 L 599.5 20 L 602.5 21 Q 603.7 18.8 605 21.5 L 603 21.5 L 603.5 23 L 608.5 26 L 609.5 25 L 614 29.5 L 613 30.5 L 616 33.5 L 618.5 37 L 620 36.5 Q 618 37.5 620 38.5 L 620.5 41 L 622 41.5 L 624.5 46 L 626 45.5 L 625.5 47 L 627 47.5 Q 625 48.5 627 49.5 L 629.5 55 L 631 55.5 Q 629 56.5 631 57.5 L 631.5 60 L 633 60.5 Q 631 61.5 633 62.5 L 633.5 66 L 635 65.5 L 634 69.5 L 636 69.5 Q 634.3 70.3 635 73.5 L 637 73.5 L 635 77.5 Q 638 79.5 637 85.5 Q 635 86.5 637 87.5 L 637 544.5 L 636 545.5 Q 638.3 546.8 637 551.5 L 636 552.5 L 635 562.5 L 631 573.5 L 631.5 575 L 630 575.5 L 625.5 585 L 624 585.5 L 626 586.5 L 624 587.5 L 624.5 589 L 623 588.5 L 622 590.5 L 622.5 592 L 621 591.5 L 620 593.5 Q 622.3 594.8 619.5 596 Q 618.3 593.8 617 596.5 L 616 598.5 L 617 599.5 L 608.5 608 Q 607 605.5 605.5 609 L 602 610.5 L 602.5 612 L 604 611.5 L 602.5 613 Q 601.5 611 600.5 613 L 599 613.5 L 599.5 615 Q 598.5 613 597.5 615 L 596 615.5 L 596.5 617 L 595 616.5 L 594.5 618 Q 593.5 616 592.5 618 L 583 622.5 L 582.5 624 L 580.5 623 L 578 624.5 L 577.5 626 L 575.5 625 Q 574.8 626.8 571.5 626 L 569.5 628 L 568.5 626 L 566.5 628 Q 561.8 626.8 560.5 629 L 544 629.5 L 546 630.5 L 544.5 631 L 543.5 630 L 104.5 630 L 102.5 631 L 102.5 630 L 104 629.5 L 88.5 629 Q 87.3 626.8 82.5 628 L 81.5 627 L 73.5 626 L 66.5 623 L 65 623.5 L 64.5 622 L 55 617.5 L 54.5 616 L 53.5 618 L 52.5 616 L 51 616.5 L 51.5 615 L 49.5 614 L 48 614.5 Q 50.3 613.3 47.5 612 L 45.5 613 Q 43 612 44.5 611 L 46 611.5 L 45.5 610 L 40.5 607 L 39.5 608 L 32 600.5 Q 34.5 599 31 597.5 L 30.5 596 Q 29.3 598.3 28 595.5 Q 30 594.5 28 593.5 L 24 587.5 L 25.5 588 L 28.5 590 L 30 589.5 L 29.5 591 L 32 591.5 L 32.5 593 L 34 592.5 L 35.5 595 L 37 594.5 L 37.5 596 L 40.5 598 L 42 597.5 L 42.5 599 Q 43.5 597 44.5 599 L 48 600.5 L 49.5 603 L 54.5 607 L 69.5 615 L 71.5 615 L 74.5 617 L 78.5 617 L 79.5 618 L 88.5 619 L 89.5 620 L 558.5 620 L 561.5 619 L 564.5 619 L 565.5 618 L 575.5 616 L 590.5 609 L 606 596.5 L 615 585.5 L 623 570.5 L 625 564.5 L 625 561.5 L 627 557.5 L 627 552.5 L 628 551.5 L 628 81.5 L 627 80.5 L 627 74.5 Q 625.3 73.8 626 70.5 L 624 67.5 L 620 55.5 L 618 53.5 L 618 51.5 L 610 40.5 L 599.5 30 L 598 29.5 L 597.5 28 L 582.5 20 L 580.5 18 L 570.5 15 L 563.5 10 L 562 10.5 L 561.5 9 L 560 9.5 L 559.5 8 L 555.5 6 L 553.5 7 L 543 3.5 L 544.5 2 Z M 36 602 L 35 603 L 39 606 L 39 605 L 36 602 Z M 610 604 L 608 607 L 609 607 L 611 605 L 610 604 Z " /><path fill="rgb(135,136,130)" stroke="rgb(135,136,130)" stroke-width="1" opacity="0.10588235294117647" d="M 0.5 3 L 54 3.5 L 0.5 4 L 0.5 3 Z " /><path fill="rgb(135,136,130)" stroke="rgb(135,136,130)" stroke-width="1" opacity="0.10588235294117647" d="M 0.5 7 L 44 7.5 L 0.5 8 L 0.5 7 Z " /><path fill="rgb(135,136,130)" stroke="rgb(135,136,130)" stroke-width="1" opacity="0.10588235294117647" d="M 0.5 15 L 31 15.5 L 0.5 16 L 0.5 15 Z " /><path fill="rgb(135,136,130)" stroke="rgb(135,136,130)" stroke-width="1" opacity="0.10588235294117647" d="M 0.5 19 L 26 19.5 L 0.5 20 L 0.5 19 Z " /><path fill="rgb(135,136,130)" stroke="rgb(135,136,130)" stroke-width="1" opacity="0.10588235294117647" d="M 0.5 55 L 3 55.5 L 0.5 56 L 0.5 55 Z " /><path fill="rgb(135,136,130)" stroke="rgb(135,136,130)" stroke-width="1" opacity="0.10588235294117647" d="M 0.5 61 L 1 66.5 L 0 66.5 L 0.5 61 Z " /><path fill="rgb(135,136,130)" stroke="rgb(135,136,130)" stroke-width="1" opacity="0.10588235294117647" d="M 0.5 540 L 1 545.5 L 0 545.5 L 0.5 540 Z " /><path fill="rgb(135,136,130)" stroke="rgb(135,136,130)" stroke-width="1" opacity="0.10588235294117647" d="M 9.5 569 L 11 569.5 L 10 570.5 L 9.5 591 L 9.5 569 Z " /><path fill="rgb(135,136,130)" stroke="rgb(135,136,130)" stroke-width="1" opacity="0.10588235294117647" d="M 11.5 572 L 12 590.5 L 11 590.5 L 11.5 572 Z " /><path fill="rgb(135,136,130)" stroke="rgb(135,136,130)" stroke-width="1" opacity="0.10588235294117647" d="M 19.5 582 L 21.5 582 L 25 585.5 L 23.5 586 L 22.5 584 L 19.5 583 L 19.5 582 Z " /><path fill="rgb(132,136,129)" stroke="rgb(132,136,129)" stroke-width="1" opacity="0.35294117647058826" d="M 572.5 15 L 575.5 17 L 580.5 18 L 598 28.5 L 598.5 30 L 610 40.5 L 620 55.5 L 620 57.5 L 626 70.5 Q 625.3 73.8 627 74.5 L 627 80.5 L 628 81.5 L 628 551.5 L 627 552.5 L 627 557.5 L 625 561.5 L 625 564.5 L 619 578.5 Q 615.8 580.8 615 585.5 L 604.5 598 L 590.5 609 L 575.5 616 L 565.5 618 L 564.5 619 L 561.5 619 L 560.5 620 Q 559.5 618 558.5 620 L 89.5 620 L 88.5 619 L 83.5 619 L 82.5 618 L 74.5 617 L 71.5 615 L 69.5 615 L 54.5 607 L 48 601.5 L 48.5 600 L 51.5 602 L 61 604.5 L 59 605.5 L 69.5 611 Q 71 608.5 72.5 612 L 78.5 613 L 82.5 615 Q 83.5 613 84.5 615 L 86.5 616 L 87.5 615 L 90.5 616 Q 94.5 615 95.5 617 L 97.5 616 L 99.5 617 Q 100.3 615.3 103.5 616 L 104.5 617 L 543.5 617 Q 544.3 615.3 547.5 616 L 549.5 617 L 551.5 616 L 553.5 617 L 554.5 616 L 561.5 616 L 565.5 614 Q 566.5 616 567.5 614 Q 569.3 612.3 573.5 613 L 592 603.5 L 592.5 602 Q 597.1 601.1 599 597.5 L 599.5 596 L 604 592.5 L 604.5 591 L 609 587.5 L 611.5 582 L 613 581.5 L 613.5 579 L 615 578.5 L 614.5 577 L 616 576.5 L 619 570.5 Q 616.5 569 620 567.5 L 622 561.5 L 622 558.5 L 623 557.5 Q 621 556.5 623 555.5 L 624 552.5 Q 622 551.5 624 550.5 L 624 544.5 Q 625.8 543.8 625 540.5 Q 623 539.5 625 538.5 L 625 94.5 L 624 92.5 Q 625.8 91.8 625 88.5 L 624 87.5 L 623 74.5 L 621 70.5 L 621 67.5 L 618 61.5 L 618 59.5 L 612.5 50 L 611 49.5 Q 611.5 46.5 609.5 46 L 608 45.5 L 608 43.5 L 603.5 39 L 601 37.5 L 599.5 35 L 598 34.5 L 596.5 32 L 593 30.5 L 592.5 29 L 590 28.5 L 589.5 27 L 587.5 27 L 583.5 24 Q 582.5 26 581.5 24 L 573 17.5 L 572.5 15 Z " /><path fill="rgb(204,204,203)" stroke="rgb(204,204,203)" stroke-width="1" opacity="0.5294117647058824" d="M 69.5 0 L 73 0.5 L 69.5 1 L 69.5 0 Z " /><path fill="rgb(204,204,203)" stroke="rgb(204,204,203)" stroke-width="1" opacity="0.5294117647058824" d="M 527.5 0 L 536 0.5 L 527.5 1 L 527.5 0 Z " /><path fill="rgb(204,204,203)" stroke="rgb(204,204,203)" stroke-width="1" opacity="0.5294117647058824" d="M 576.5 20 L 579 22.5 L 578.5 23 L 576 20.5 L 576.5 20 Z " /><path fill="rgb(204,204,203)" stroke="rgb(204,204,203)" stroke-width="1" opacity="0.5294117647058824" d="M 17.5 577 L 29 588.5 L 28.5 589 L 25.5 586 L 24 586.5 L 25 585.5 L 17 577.5 L 17.5 577 Z " /></svg>