<svg viewBox="0 0 640 640" version="1.1" xmlns="http://www.w3.org/2000/svg" desc="Created with imagetracer.js version 1.2.6" ><path fill="rgb(0,0,0)" stroke="rgb(0,0,0)" stroke-width="1" opacity="0.9921568627450981" d="M 355.5 5 L 369 19.5 L 391 51.5 L 400 68.5 L 402 70.5 L 425 118.5 L 425 120.5 L 427 123.5 L 428 128.5 L 430 131.5 L 431 136.5 L 433 139.5 L 437 151.5 L 437 154.5 L 440 161.5 L 440 164.5 L 444 176.5 L 444 180.5 L 445 181.5 L 445 185.5 L 447 191.5 L 447 196.5 L 448 197.5 L 448 203.5 L 449 204.5 L 449 214.5 L 450 215.5 L 450 236.5 L 449 237.5 L 449 249.5 L 448 250.5 L 448 257.5 L 447 258.5 L 447 263.5 L 446 264.5 L 446 268.5 L 445 269.5 L 444 277.5 L 441 286.5 L 439 289.5 L 439 291.5 L 433 303.5 L 415 328.5 L 388.5 355 Q 363 376 341 400.5 L 319 429.5 L 306 453.5 L 306 455.5 L 301.5 466 Q 266.3 445.3 240 415.5 L 229 401.5 L 217 382.5 L 211 370.5 L 211 368.5 L 209 365.5 L 209 363.5 L 207 360.5 L 203 348.5 L 203 345.5 L 202 344.5 L 202 341.5 L 199 332.5 L 199 327.5 L 198 326.5 Q 199.3 321.8 197 320.5 L 197 311.5 L 196 310.5 L 196 277.5 L 197 276.5 L 197 270.5 L 198 269.5 L 198 265.5 L 200 261.5 L 200 258.5 L 204 246.5 L 206 243.5 L 206 241.5 L 209 236.5 L 209 234.5 L 221 211.5 L 239 183.5 L 253 164.5 L 277 135.5 Q 298 111.5 321 89.5 L 330 78.5 L 341 61.5 L 345 53.5 L 345 51.5 L 347 48.5 L 350 39.5 L 350 36.5 L 352 31.5 L 352 27.5 L 353 26.5 L 353 21.5 L 354 20.5 L 354 10.5 L 355 9.5 L 355.5 5 Z " /><path fill="rgb(0,0,0)" stroke="rgb(0,0,0)" stroke-width="1" opacity="0.9921568627450981" d="M 476.5 165 L 497 184.5 L 516 211.5 L 527 233.5 L 527 235.5 L 530 240.5 L 531 245.5 L 533 248.5 L 536 257.5 L 536 260.5 L 538 264.5 L 538 267.5 L 541 276.5 L 542 286.5 L 543 287.5 L 543 292.5 L 544 293.5 L 544 301.5 L 545 302.5 L 545 337.5 L 544 338.5 L 544 344.5 L 543 345.5 L 542 355.5 L 538 367.5 L 538 370.5 L 530 388.5 L 525 395.5 L 506.5 414 L 483.5 430 L 467.5 438 L 455.5 442 L 452.5 442 L 443.5 445 L 439.5 445 L 438.5 446 L 428.5 447 L 427.5 448 L 422.5 448 L 421.5 449 L 416.5 449 L 415.5 450 L 410.5 450 L 409.5 451 L 404.5 451 L 403.5 452 L 398.5 452 L 397.5 453 L 383.5 455 L 382.5 456 L 371.5 458 L 367.5 460 L 364.5 460 L 352.5 465 L 351 462.5 L 351 451.5 L 352 450.5 Q 350.7 445.8 353 444.5 L 353 438.5 L 355 432.5 L 360 423.5 L 374 404.5 L 391.5 386 Q 409.9 371.9 425 354.5 L 455 318.5 L 464 305.5 L 475 285.5 L 475 283.5 L 479 274.5 L 480 264.5 L 481 263.5 L 481 255.5 L 482 254.5 L 482 233.5 L 483 231.5 L 482 230.5 L 482 207.5 L 481 206.5 L 481 197.5 L 480 196.5 L 479 182.5 L 478 181.5 L 478 176.5 L 477 175.5 Q 478.3 170.8 476 169.5 L 476.5 165 Z " /><path fill="rgb(0,0,0)" stroke="rgb(0,0,0)" stroke-width="1" opacity="0.9921568627450981" d="M 174.5 233 L 175 234.5 L 169 251.5 L 168 258.5 L 167 259.5 L 167 263.5 L 166 264.5 L 165 275.5 L 164 276.5 L 163 292.5 L 162 293.5 L 162 305.5 L 161 306.5 L 161 321.5 L 162 322.5 L 162 334.5 L 163 335.5 L 163 343.5 L 164 344.5 L 164 351.5 L 165 352.5 L 166 364.5 L 167 365.5 L 167 368.5 L 171 380.5 L 177 392.5 L 185 404.5 L 201.5 423 Q 225.2 445.3 255 461.5 L 242.5 462 L 241.5 461 L 232.5 461 L 231.5 460 L 225.5 460 L 224.5 459 L 219.5 459 L 218.5 458 L 209.5 457 L 197.5 453 L 194.5 453 L 185.5 450 L 182.5 448 L 180.5 448 L 175.5 445 L 173.5 445 Q 145.2 431.8 126 409.5 L 114 392.5 L 106 375.5 L 104 369.5 L 104 366.5 L 103 365.5 L 103 362.5 L 102 361.5 L 102 357.5 L 101 356.5 L 101 347.5 Q 99.3 346.8 100 343.5 L 101 342.5 L 101 332.5 L 102 331.5 L 103 322.5 L 105 318.5 L 106 312.5 L 113 296.5 L 128 273.5 L 146.5 254 Q 159.3 242.3 174.5 233 Z " /><path fill="rgb(0,0,0)" stroke="rgb(0,0,0)" stroke-width="1" opacity="0.9921568627450981" d="M 513.5 472 L 516.5 472 L 529.5 478 L 539 485.5 L 544 493.5 Q 543.3 496.8 545 497.5 L 545 504.5 L 544 505.5 L 543 511.5 L 541.5 513 L 538.5 513 L 533.5 515 L 529.5 515 L 528.5 516 L 524.5 516 L 519.5 518 L 515.5 518 L 510.5 520 L 506.5 520 L 501.5 522 L 497.5 522 L 492.5 524 L 483.5 525 L 478.5 527 L 474.5 527 L 469.5 529 L 465.5 529 L 464.5 530 L 453.5 532 L 452.5 531 L 446.5 531 L 445.5 530 L 433.5 529 L 432.5 528 L 422.5 527 L 421.5 526 L 417.5 526 L 416.5 525 L 402.5 523 L 397.5 521 L 393.5 521 L 392.5 520 L 389.5 520 L 388.5 519 L 385.5 519 L 384.5 518 L 381.5 518 L 380.5 517 L 377.5 517 L 376.5 516 L 361.5 513 L 342 506.5 L 361.5 499 L 364.5 499 L 368.5 497 L 371.5 497 L 383.5 493 L 387.5 493 L 388.5 492 L 392.5 492 L 393.5 491 L 397.5 491 L 403.5 489 L 408.5 489 L 409.5 488 L 414.5 488 L 415.5 487 L 421.5 487 L 422.5 486 L 428.5 486 L 429.5 485 L 436.5 485 L 437.5 484 L 443.5 484 L 444.5 483 L 451.5 483 L 452.5 482 L 457.5 482 L 458.5 481 L 463.5 481 L 464.5 480 L 469.5 480 L 470.5 479 L 475.5 479 L 476.5 478 L 481.5 478 L 482.5 477 Q 487.3 478.3 488.5 476 L 494.5 476 L 495.5 475 L 500.5 475 L 501.5 474 L 506.5 474 L 507.5 473 Q 512.2 474.2 513.5 472 Z " /><path fill="rgb(0,0,0)" stroke="rgb(0,0,0)" stroke-width="1" opacity="0.9921568627450981" d="M 127.5 483 Q 129.7 484.8 134.5 484 L 135.5 485 L 142.5 485 L 143.5 486 L 149.5 486 L 150.5 487 L 157.5 487 L 158.5 488 L 164.5 488 L 165.5 489 L 171.5 489 L 172.5 490 L 179.5 490 L 180.5 491 L 186.5 491 L 187.5 492 L 202.5 493 L 203.5 494 L 209.5 494 L 210.5 495 L 224.5 496 L 225.5 497 L 231.5 497 L 232.5 498 L 246.5 499 L 247.5 500 L 253.5 500 L 254.5 501 L 260.5 501 L 261.5 502 L 267.5 502 L 268.5 503 L 274.5 503 L 275.5 504 L 286.5 505 L 287.5 506 L 296.5 507 L 297.5 508 L 308.5 510 L 312.5 512 L 315.5 512 L 345.5 522 L 348.5 522 L 349.5 523 L 352.5 523 L 353.5 524 L 356.5 524 L 365.5 527 L 369.5 527 L 378.5 530 L 382.5 530 L 387.5 532 L 391.5 532 L 396.5 534 L 405.5 535 L 410.5 537 L 414.5 537 L 415.5 538 L 419.5 538 L 420.5 539 L 424.5 539 L 430.5 541 L 435.5 541 L 436.5 542 L 440.5 542 L 446.5 544 L 451.5 544 L 452.5 545 L 457.5 545 L 458.5 546 L 469.5 547 L 470.5 548 L 484.5 549 L 485.5 550 L 493.5 550 L 494.5 551 L 506.5 551 L 510 552.5 L 508.5 555 Q 494.8 559.2 487 569.5 L 482 579.5 Q 483 583.5 481 584.5 L 481 594.5 L 482 595.5 L 482 600.5 L 483 601.5 L 483 604.5 L 485 610.5 L 480.5 611 L 479.5 610 L 475.5 610 L 474.5 609 L 467.5 608 L 438.5 598 L 430.5 597 L 429.5 596 L 413.5 595 L 412.5 594 L 406.5 594 L 405.5 593 L 392.5 592 L 391.5 591 Q 386.7 592.3 385.5 590 L 379.5 590 L 378.5 589 L 372.5 589 L 371.5 588 L 365.5 588 L 364.5 587 L 358.5 587 L 357.5 586 L 350.5 586 L 349.5 585 L 343.5 585 L 342.5 584 L 336.5 584 L 335.5 583 L 328.5 583 L 327.5 582 L 320.5 582 L 319.5 581 L 313.5 581 L 312.5 580 L 307.5 580 L 306.5 579 L 297.5 578 L 296.5 577 L 289.5 576 L 282.5 573 L 279.5 573 L 270.5 570 L 267.5 568 L 246.5 561 L 243.5 559 L 222.5 552 L 212.5 550 L 211.5 549 L 207.5 549 L 206.5 548 L 202.5 548 L 196.5 546 L 191.5 546 L 190.5 545 L 185.5 545 L 184.5 544 L 179.5 544 L 178.5 543 L 173.5 543 L 172.5 542 L 166.5 542 L 165.5 541 L 149.5 540 L 148.5 539 L 140.5 539 L 139.5 538 L 131.5 538 L 130.5 537 L 121.5 537 L 120.5 536 L 111.5 536 L 107 534.5 L 106 525.5 L 105 524.5 L 105 514.5 L 106 513.5 L 106 509.5 L 109 501.5 Q 114.1 493.1 121.5 487 L 127.5 483 Z " /><path fill="rgb(0,0,0)" stroke="rgb(0,0,0)" stroke-width="1" opacity="0.9921568627450981" d="M 168.5 554 L 171.5 555 L 181.5 555 L 182.5 556 L 187.5 556 L 188.5 557 L 197.5 558 L 201.5 560 L 204.5 560 L 208.5 562 L 211.5 562 L 229.5 568 L 232.5 570 L 245.5 574 L 253.5 578 L 265 581.5 L 264.5 583 L 255.5 586 L 252.5 588 L 250.5 588 L 247.5 590 L 245.5 590 L 242.5 592 L 240.5 592 L 237.5 594 L 235.5 594 L 232.5 596 L 230.5 596 L 227.5 598 L 225.5 598 L 222.5 600 L 220.5 600 L 217.5 602 L 215.5 602 L 212.5 604 L 210.5 604 L 207.5 606 L 205.5 606 L 202.5 608 L 200.5 608 L 197.5 610 L 195.5 610 L 192.5 612 L 190.5 612 L 187.5 614 L 185.5 614 L 182.5 616 L 180.5 616 L 177.5 618 L 175.5 618 L 172.5 620 L 170.5 620 L 167.5 622 L 165.5 622 L 162.5 624 L 160.5 624 L 157.5 626 L 155.5 626 L 152.5 628 L 152 626.5 L 153 625.5 L 153 622.5 L 155 617.5 L 155 613.5 L 156 612.5 L 156 596.5 L 155 595.5 L 154 589.5 L 150 582.5 L 140.5 573 L 129 566.5 L 129.5 565 L 136.5 564 L 140.5 562 L 143.5 562 L 150.5 559 L 153.5 559 L 168.5 554 Z " /><path fill="rgb(0,0,0)" stroke="rgb(0,0,0)" stroke-width="1" opacity="0.9921568627450981" d="M 525.5 559 L 534.5 559 L 539.5 561 L 545 565.5 L 551 577.5 Q 550.3 580.8 552 581.5 L 552 593.5 L 548 603.5 L 539.5 612 L 526.5 617 L 515.5 617 L 507.5 614 L 501 607.5 L 498 598.5 L 498 586.5 L 503 574.5 L 509.5 567 L 513.5 564 L 525.5 559 Z " /><path fill="rgb(0,0,0)" stroke="rgb(0,0,0)" stroke-width="1" opacity="0.9921568627450981" d="M 108.5 575 L 117.5 575 Q 118.5 577 122.5 576 L 130.5 579 L 137 584.5 L 142 594.5 Q 141 598.5 143 599.5 L 143 610.5 L 142 611.5 L 141 618.5 L 138 624.5 L 132.5 630 L 122.5 634 L 111.5 635 L 110.5 634 L 103.5 634 L 100.5 633 L 92.5 629 L 88 624.5 L 85 619.5 L 84 613.5 L 83 612.5 L 83 598.5 L 87 587.5 L 91.5 582 L 99.5 577 L 102.5 576 L 107.5 576 L 108.5 575 Z " /><path fill="rgb(0,0,0)" stroke="rgb(0,0,0)" stroke-width="1" opacity="0" d="M 0.5 0 L 640 0.5 L 639.5 640 L 0 639.5 L 0.5 0 Z M 356 5 L 355 10 L 354 11 L 354 21 L 353 22 L 353 27 L 352 28 L 352 32 L 350 37 L 350 40 L 347 49 L 345 52 L 345 54 L 341 62 L 330 79 L 321 90 Q 298 111 277 136 L 253 165 L 239 184 L 221 212 L 209 235 L 209 237 L 206 242 L 206 244 L 204 247 L 200 259 L 200 262 L 198 266 L 198 270 L 197 271 L 197 277 L 196 278 L 196 311 L 197 312 L 197 321 Q 199 322 198 327 L 199 328 L 199 333 L 202 342 L 202 345 L 203 346 L 203 349 L 207 361 L 209 364 L 209 366 L 211 369 L 211 371 L 217 383 L 229 402 L 240 416 Q 266 445 302 466 L 306 456 L 306 454 L 319 430 L 341 401 Q 363 376 389 355 L 415 329 L 433 304 L 439 292 L 439 290 L 441 287 L 444 278 L 445 270 L 446 269 L 446 265 L 447 264 L 447 259 L 448 258 L 448 251 L 449 250 L 449 238 L 450 237 L 450 216 L 449 215 L 449 205 L 448 204 L 448 198 L 447 197 L 447 192 L 445 186 L 445 182 L 444 181 L 444 177 L 440 165 L 440 162 L 437 155 L 437 152 L 433 140 L 431 137 L 430 132 L 428 129 L 427 124 L 425 121 L 425 119 L 402 71 L 400 69 L 391 52 L 369 20 L 356 5 Z M 477 165 L 476 170 Q 478 171 477 176 L 478 177 L 478 182 L 479 183 L 480 197 L 481 198 L 481 207 L 482 208 L 482 231 L 483 232 L 482 234 L 482 255 L 481 256 L 481 264 L 480 265 L 479 275 L 475 284 L 475 286 L 464 306 L 455 319 L 425 355 Q 410 372 392 386 L 374 405 L 360 424 L 355 433 L 353 439 L 353 445 Q 351 446 352 451 L 351 452 L 351 463 L 353 465 L 365 460 L 368 460 L 372 458 L 383 456 L 384 455 L 398 453 L 399 452 L 404 452 L 405 451 L 410 451 L 411 450 L 416 450 L 417 449 L 422 449 L 423 448 L 428 448 L 429 447 L 439 446 L 440 445 L 444 445 L 453 442 L 456 442 L 468 438 L 484 430 L 507 414 L 525 396 L 530 389 L 538 371 L 538 368 L 542 356 L 543 346 L 544 345 L 544 339 L 545 338 L 545 303 L 544 302 L 544 294 L 543 293 L 543 288 L 542 287 L 541 277 L 538 268 L 538 265 L 536 261 L 536 258 L 533 249 L 531 246 L 530 241 L 527 236 L 527 234 L 516 212 L 497 185 L 477 165 Z M 175 233 Q 159 242 147 254 L 128 274 L 113 297 L 106 313 L 105 319 L 103 323 L 102 332 L 101 333 L 101 343 L 100 344 Q 99 347 101 348 L 101 357 L 102 358 L 102 362 L 103 363 L 103 366 L 104 367 L 104 370 L 106 376 L 114 393 L 126 410 Q 145 432 174 445 L 176 445 L 181 448 L 183 448 L 186 450 L 195 453 L 198 453 L 210 457 L 219 458 L 220 459 L 225 459 L 226 460 L 232 460 L 233 461 L 242 461 L 243 462 L 255 462 Q 225 445 202 423 L 185 405 L 177 393 L 171 381 L 167 369 L 167 366 L 166 365 L 165 353 L 164 352 L 164 345 L 163 344 L 163 336 L 162 335 L 162 323 L 161 322 L 161 307 L 162 306 L 162 294 L 163 293 L 164 277 L 165 276 L 166 265 L 167 264 L 167 260 L 168 259 L 169 252 L 175 235 L 175 233 Z M 514 472 Q 512 474 508 473 L 507 474 L 502 474 L 501 475 L 496 475 L 495 476 L 489 476 Q 487 478 483 477 L 482 478 L 477 478 L 476 479 L 471 479 L 470 480 L 465 480 L 464 481 L 459 481 L 458 482 L 453 482 L 452 483 L 445 483 L 444 484 L 438 484 L 437 485 L 430 485 L 429 486 L 423 486 L 422 487 L 416 487 L 415 488 L 410 488 L 409 489 L 404 489 L 398 491 L 394 491 L 393 492 L 389 492 L 388 493 L 384 493 L 372 497 L 369 497 L 365 499 L 362 499 L 342 507 L 362 513 L 377 516 L 378 517 L 381 517 L 382 518 L 385 518 L 386 519 L 389 519 L 390 520 L 393 520 L 394 521 L 398 521 L 403 523 L 417 525 L 418 526 L 422 526 L 423 527 L 433 528 L 434 529 L 446 530 L 447 531 L 453 531 L 454 532 L 465 530 L 466 529 L 470 529 L 475 527 L 479 527 L 484 525 L 493 524 L 498 522 L 502 522 L 507 520 L 511 520 L 516 518 L 520 518 L 525 516 L 529 516 L 530 515 L 534 515 L 539 513 L 542 513 L 543 512 L 544 506 L 545 505 L 545 498 Q 543 497 544 494 L 539 486 L 530 478 L 517 472 L 514 472 Z M 128 483 L 122 487 Q 114 493 109 502 L 106 510 L 106 514 L 105 515 L 105 525 L 106 526 L 107 535 L 112 536 L 121 536 L 122 537 L 131 537 L 132 538 L 140 538 L 141 539 L 149 539 L 150 540 L 166 541 L 167 542 L 173 542 L 174 543 L 179 543 L 180 544 L 185 544 L 186 545 L 191 545 L 192 546 L 197 546 L 203 548 L 207 548 L 208 549 L 212 549 L 213 550 L 223 552 L 244 559 L 247 561 L 268 568 L 271 570 L 280 573 L 283 573 L 290 576 L 297 577 L 298 578 L 307 579 L 308 580 L 313 580 L 314 581 L 320 581 L 321 582 L 328 582 L 329 583 L 336 583 L 337 584 L 343 584 L 344 585 L 350 585 L 351 586 L 358 586 L 359 587 L 365 587 L 366 588 L 372 588 L 373 589 L 379 589 L 380 590 L 386 590 Q 387 592 392 591 L 393 592 L 406 593 L 407 594 L 413 594 L 414 595 L 430 596 L 431 597 L 439 598 L 468 608 L 475 609 L 476 610 L 480 610 L 481 611 L 485 611 L 483 605 L 483 602 L 482 601 L 482 596 L 481 595 L 481 585 Q 483 583 482 580 L 487 570 Q 495 559 509 555 L 510 553 L 507 551 L 495 551 L 494 550 L 486 550 L 485 549 L 471 548 L 470 547 L 459 546 L 458 545 L 453 545 L 452 544 L 447 544 L 441 542 L 437 542 L 436 541 L 431 541 L 425 539 L 421 539 L 420 538 L 416 538 L 415 537 L 411 537 L 406 535 L 397 534 L 392 532 L 388 532 L 383 530 L 379 530 L 370 527 L 366 527 L 357 524 L 354 524 L 353 523 L 350 523 L 349 522 L 346 522 L 316 512 L 313 512 L 309 510 L 298 508 L 297 507 L 288 506 L 287 505 L 276 504 L 275 503 L 269 503 L 268 502 L 262 502 L 261 501 L 255 501 L 254 500 L 248 500 L 247 499 L 233 498 L 232 497 L 226 497 L 225 496 L 211 495 L 210 494 L 204 494 L 203 493 L 188 492 L 187 491 L 181 491 L 180 490 L 173 490 L 172 489 L 166 489 L 165 488 L 159 488 L 158 487 L 151 487 L 150 486 L 144 486 L 143 485 L 136 485 L 135 484 Q 130 485 128 483 Z M 169 554 L 154 559 L 151 559 L 144 562 L 141 562 L 137 564 L 130 565 L 129 567 L 141 573 L 150 583 L 154 590 L 155 596 L 156 597 L 156 613 L 155 614 L 155 618 L 153 623 L 153 626 L 152 627 L 153 628 L 156 626 L 158 626 L 161 624 L 163 624 L 166 622 L 168 622 L 171 620 L 173 620 L 176 618 L 178 618 L 181 616 L 183 616 L 186 614 L 188 614 L 191 612 L 193 612 L 196 610 L 198 610 L 201 608 L 203 608 L 206 606 L 208 606 L 211 604 L 213 604 L 216 602 L 218 602 L 221 600 L 223 600 L 226 598 L 228 598 L 231 596 L 233 596 L 236 594 L 238 594 L 241 592 L 243 592 L 246 590 L 248 590 L 251 588 L 253 588 L 256 586 L 265 583 L 265 582 L 254 578 L 246 574 L 233 570 L 230 568 L 212 562 L 209 562 L 205 560 L 202 560 L 198 558 L 189 557 L 188 556 L 183 556 L 182 555 L 172 555 L 169 554 Z M 526 559 L 514 564 L 510 567 L 503 575 L 498 587 L 498 599 L 501 608 L 508 614 L 516 617 L 527 617 L 540 612 L 548 604 L 552 594 L 552 582 Q 550 581 551 578 L 545 566 L 540 561 L 535 559 L 526 559 Z M 109 575 L 108 576 L 103 576 L 100 577 L 92 582 L 87 588 L 83 599 L 83 613 L 84 614 L 85 620 L 88 625 L 93 629 L 101 633 L 104 634 L 111 634 L 112 635 L 123 634 L 133 630 L 138 625 L 141 619 L 142 612 L 143 611 L 143 600 Q 141 599 142 595 L 137 585 L 131 579 L 123 576 Q 118 577 118 575 L 109 575 Z " /></svg>