<svg viewBox="0 0 640 334" version="1.1" xmlns="http://www.w3.org/2000/svg" desc="Created with imagetracer.js version 1.2.6" ><path fill="rgb(40,14,17)" stroke="rgb(40,14,17)" stroke-width="1" opacity="0.996078431372549" d="M 382.5 4 L 383 6.5 L 381 7.5 L 384 8.5 L 373.5 12 L 363.5 17 L 356.5 22 L 356 21.5 L 358.5 19 L 371.5 9 L 382.5 4 Z " /><path fill="rgb(40,14,17)" stroke="rgb(40,14,17)" stroke-width="1" opacity="0.996078431372549" d="M 429.5 4 L 438.5 7 Q 447.1 11.9 453 19.5 L 456 23.5 L 454.5 23 L 442.5 15 L 426 8.5 L 428.5 8 L 430.5 9 L 430 7.5 L 429.5 4 Z " /><path fill="rgb(40,14,17)" stroke="rgb(40,14,17)" stroke-width="1" opacity="0.996078431372549" d="M 385.5 7 L 388 7.5 L 385.5 8 L 385.5 7 Z " /><path fill="rgb(40,14,17)" stroke="rgb(40,14,17)" stroke-width="1" opacity="0.996078431372549" d="M 422.5 7 L 425 7.5 L 422.5 8 L 422.5 7 Z " /><path fill="rgb(40,14,17)" stroke="rgb(40,14,17)" stroke-width="1" opacity="0.996078431372549" d="M 206.5 32 L 232.5 32 L 233.5 33 L 239.5 33 L 240.5 34 L 245.5 34 L 246.5 35 L 251.5 35 L 256.5 37 L 259.5 37 L 272 41.5 L 254.5 42 L 253.5 43 L 247.5 43 L 246.5 44 L 239.5 45 L 239.5 44 L 245 42.5 L 241.5 42 L 238.5 39 L 228.5 35 L 214.5 35 L 202.5 40 L 194 48.5 L 190 55.5 L 189 61.5 L 188 62.5 L 188 73.5 L 189.5 73 L 196.5 67 L 197 67.5 L 184 80.5 L 172 97.5 L 165.5 112 L 164 110.5 L 164 93.5 L 165 92.5 L 165 80.5 L 166 79.5 L 166 73.5 L 167 72.5 L 167 68.5 L 170 59.5 L 176 48.5 L 182.5 42 L 194.5 35 L 200.5 34 L 201.5 33 L 205.5 33 L 206.5 32 Z " /><path fill="rgb(40,14,17)" stroke="rgb(40,14,17)" stroke-width="1" opacity="0.996078431372549" d="M 344.5 46 L 353 59.5 L 374 87.5 L 398.5 115 L 405.5 111 L 417.5 107 Q 421.5 108 422.5 106 L 435.5 106 L 436.5 107 L 443.5 108 L 449.5 111 L 464 124.5 L 472 137.5 L 471.5 138 L 469.5 136 L 459.5 131 L 454 129.5 L 456.5 129 L 468.5 134 L 469 133.5 L 467 131.5 Q 465.3 126.7 461.5 124 L 451.5 117 L 442.5 113 L 433.5 112 L 432.5 111 L 424.5 111 Q 423.3 113.3 418.5 112 L 407.5 116 L 402.5 119 L 393 127.5 L 385 140.5 L 384 146.5 L 382 150.5 L 382 155.5 L 389.5 178 L 391 178.5 Q 377.8 190.3 367.5 205 L 367 204.5 L 369 202.5 L 371 198.5 L 368.5 197 L 363 204.5 L 356.5 218 L 356 216.5 L 367 196.5 L 384 177.5 L 387 173.5 L 387 171.5 L 385 168.5 L 381 156.5 L 380 142.5 L 381 141.5 L 382 133.5 L 385 127.5 L 392.5 119 L 395 117.5 L 394.5 116 L 393 115.5 L 374 95.5 L 362 80.5 L 353 66.5 L 345 50.5 L 344.5 46 Z " /><path fill="rgb(40,14,17)" stroke="rgb(40,14,17)" stroke-width="1" opacity="0.996078431372549" d="M 293.5 60 L 307 88.5 L 313 106.5 L 314 113.5 L 316 117.5 L 316 121.5 L 318 126.5 L 318 131.5 L 319 132.5 L 319 137.5 L 320 138.5 L 320 145.5 L 321 146.5 L 321 170.5 L 320 171.5 L 320 175.5 L 316 186.5 L 315 194.5 L 314 195.5 L 314 199.5 L 313 200.5 L 312 216.5 L 311 217.5 L 310.5 231 L 310 217.5 L 311 216.5 L 311 206.5 L 310.5 206 L 307.5 209 L 307 208.5 L 306.5 205 L 305.5 217 L 305 194.5 L 306 193.5 L 306 188.5 L 310 178.5 L 311 170.5 L 312 169.5 L 312 163.5 L 313 162.5 L 313 139.5 L 312 138.5 L 312 130.5 L 311 129.5 L 311 124.5 L 310 123.5 L 309 114.5 L 308 113.5 L 308 110.5 L 307 109.5 L 307 106.5 L 306 105.5 L 303 90.5 L 301 86.5 L 301 83.5 L 297 71.5 L 292 61.5 L 293.5 60 Z M 312 202 L 311 206 L 312 206 L 312 202 Z " /><path fill="rgb(40,14,17)" stroke="rgb(40,14,17)" stroke-width="1" opacity="0.996078431372549" d="M 533.5 80 L 535 80.5 L 528.5 85 L 511 102.5 Q 504.8 109.3 501 118.5 L 500 125.5 L 499 126.5 L 499 135.5 L 500 136.5 L 500 144.5 L 501 145.5 L 501 150.5 L 502 151.5 L 502 155.5 L 503 156.5 L 505 167.5 L 507 171.5 L 507 174.5 L 512 189.5 L 518 203.5 L 517 203.5 L 512.5 193 L 511 197.5 L 513 202.5 L 512 202.5 L 508 193.5 L 501 172.5 L 501 169.5 L 500 168.5 L 500 165.5 L 497 156.5 L 497 152.5 L 496 151.5 L 496 145.5 L 495 144.5 L 495 135.5 Q 493.3 134.8 494 131.5 L 495 130.5 L 495 123.5 Q 496.8 122.8 496 119.5 L 500 110.5 Q 506.9 98.9 517.5 91 L 533.5 80 Z " /><path fill="rgb(40,14,17)" stroke="rgb(40,14,17)" stroke-width="1" opacity="0.996078431372549" d="M 569.5 99 L 571 99.5 L 558 119.5 L 552 132.5 L 551 139.5 L 549.5 141 L 549 137.5 L 550 136.5 L 550 133.5 L 552 127.5 L 559 113.5 L 569.5 99 Z " /><path fill="rgb(40,14,17)" stroke="rgb(40,14,17)" stroke-width="1" opacity="0.996078431372549" d="M 573.5 116 L 582.5 116 L 585.5 117 L 594 123.5 L 597 129.5 L 598 137.5 L 597 137.5 L 596.5 135 L 596 138.5 L 597 141.5 L 596 141.5 L 595.5 139 L 594.5 142 L 594 139.5 Q 596.3 138.3 595 133.5 L 593 127.5 L 586.5 121 L 581.5 119 L 574.5 119 L 569.5 121 L 564 126.5 L 561 133.5 L 561 137.5 L 562 140.5 L 561 140.5 L 560.5 139 L 559.5 141 L 558 137.5 L 558 133.5 L 562 123.5 L 565.5 120 L 573.5 116 Z " /><path fill="rgb(40,14,17)" stroke="rgb(40,14,17)" stroke-width="1" opacity="0.996078431372549" d="M 80.5 127 L 84 127.5 L 77.5 129 L 68.5 134 Q 67 133 69.5 132 L 80.5 127 Z " /><path fill="rgb(40,14,17)" stroke="rgb(40,14,17)" stroke-width="1" opacity="0.996078431372549" d="M 166.5 128 L 168 129.5 L 168 132.5 L 171 139.5 L 171 142.5 L 174 150.5 L 175 159.5 L 176 160.5 L 176 168.5 L 177 169.5 L 177 183.5 L 176 184.5 L 176 195.5 L 175 196.5 L 175 202.5 L 174 203.5 L 174 207.5 L 172.5 211 L 169 210.5 L 170 207.5 L 170 201.5 L 171 200.5 L 171 189.5 L 172 188.5 L 172 173.5 L 171 172.5 L 171 161.5 L 170 160.5 L 169 148.5 L 168 147.5 L 168 143.5 L 167 142.5 L 167 139.5 L 166 138.5 L 166 135.5 L 164 129.5 L 166.5 128 Z M 172 203 L 170 210 L 172 210 L 173 207 Q 174 204 172 203 Z " /><path fill="rgb(40,14,17)" stroke="rgb(40,14,17)" stroke-width="1" opacity="0.996078431372549" d="M 42.5 131 L 47 131.5 L 41.5 133 L 30 143.5 L 29.5 145 L 28 145.5 L 21 157.5 L 18 166.5 Q 18.8 169.8 17 170.5 L 17 188.5 L 18 189.5 L 18 193.5 L 20 199.5 L 25 209.5 L 34.5 221 L 45.5 229 L 54.5 233 L 57.5 233 L 62.5 235 L 70.5 235 L 73.5 236 L 74.5 235 L 80 234.5 L 70 228.5 L 71.5 229 L 78.5 233 L 80.5 233 L 85.5 236 L 93 238.5 L 87.5 241 L 79.5 242 L 78.5 243 L 72.5 243 L 71.5 244 L 50.5 244 L 49.5 243 L 40.5 242 L 26.5 236 L 14 225.5 L 9 218.5 L 3 204.5 L 2 196.5 L 1 195.5 L 1 189.5 L 0 188.5 L 0 177.5 L 1 176.5 L 1 171.5 L 2 170.5 L 3 164.5 L 8 154.5 L 18.5 143 L 27.5 137 L 42.5 131 Z " /><path fill="rgb(40,14,17)" stroke="rgb(40,14,17)" stroke-width="1" opacity="0.996078431372549" d="M 577.5 131 L 579 131.5 L 575 133.5 Q 573.3 135.3 574 139.5 L 576 142.5 Q 575 144 574 141.5 Q 572.3 139.7 573 135.5 L 575.5 132 L 577.5 131 Z " /><path fill="rgb(40,14,17)" stroke="rgb(40,14,17)" stroke-width="1" opacity="0.996078431372549" d="M 579.5 133 L 580 135.5 L 579 135.5 L 579.5 133 Z " /><path fill="rgb(40,14,17)" stroke="rgb(40,14,17)" stroke-width="1" opacity="0.996078431372549" d="M 66.5 134 L 67 134.5 L 64.5 137 L 64 136.5 L 66.5 134 Z " /><path fill="rgb(40,14,17)" stroke="rgb(40,14,17)" stroke-width="1" opacity="0.996078431372549" d="M 122.5 134 L 126 136.5 L 128 142.5 L 128 145.5 L 129 146.5 L 129 149.5 L 130 150.5 L 130 154.5 L 132 160.5 L 132 165.5 L 133 166.5 L 134 181.5 L 135 182.5 L 135 196.5 Q 137.2 197.8 136 202.5 L 135 202.5 L 133.5 191 L 132 193.5 L 131.5 202 L 131 194.5 L 130 193.5 L 130 185.5 L 129 184.5 L 129 177.5 L 128 176.5 L 128 169.5 L 127 168.5 L 126 156.5 L 125 155.5 L 125 150.5 L 124 149.5 L 123 139.5 L 122 138.5 L 122.5 134 Z " /><path fill="rgb(40,14,17)" stroke="rgb(40,14,17)" stroke-width="1" opacity="0.996078431372549" d="M 62.5 137 L 63 137.5 L 58.5 142 L 58 141.5 L 62.5 137 Z " /><path fill="rgb(40,14,17)" stroke="rgb(40,14,17)" stroke-width="1" opacity="0.996078431372549" d="M 454.5 153 L 464.5 153 Q 465.5 155 469.5 154 L 476.5 157 L 482 161.5 L 472 174.5 L 470.5 179 L 469.5 176 L 454.5 181 L 451 183.5 L 454 184.5 L 451.5 185 Q 450.5 183 446.5 184 L 443.5 186 L 438.5 187 L 435.5 189 L 430.5 190 L 418 195.5 L 422 197.5 L 420.5 198 L 413 194.5 L 415 193.5 L 416 189.5 Q 413.8 188.2 415 183.5 Q 417 182.5 416 178.5 L 419 172.5 L 427.5 164 L 439.5 157 L 445.5 155 L 448.5 155 L 449.5 154 L 453.5 154 L 454.5 153 Z " /><path fill="rgb(40,14,17)" stroke="rgb(40,14,17)" stroke-width="1" opacity="0.996078431372549" d="M 392.5 179 L 398.5 186 L 404 189.5 L 402.5 189 Q 395.7 186.3 392 180.5 L 392.5 179 Z " /><path fill="rgb(40,14,17)" stroke="rgb(40,14,17)" stroke-width="1" opacity="0.996078431372549" d="M 408.5 181 L 410 183.5 Q 409 185 408 182.5 L 408.5 181 Z " /><path fill="rgb(40,14,17)" stroke="rgb(40,14,17)" stroke-width="1" opacity="0.996078431372549" d="M 405.5 190 L 410 192.5 L 408.5 193 L 405 190.5 L 405.5 190 Z " /><path fill="rgb(40,14,17)" stroke="rgb(40,14,17)" stroke-width="1" opacity="0.996078431372549" d="M 556.5 193 L 558.5 195 L 559 194.5 L 559.5 193 L 574 214.5 L 578 218.5 L 578 220.5 Q 577 222 576 219.5 L 559 198.5 L 556 193.5 L 556.5 193 Z " /><path fill="rgb(40,14,17)" stroke="rgb(40,14,17)" stroke-width="1" opacity="0.996078431372549" d="M 513.5 204 L 516 208.5 Q 515 210 514 207.5 Q 512.3 206 513.5 204 Z " /><path fill="rgb(40,14,17)" stroke="rgb(40,14,17)" stroke-width="1" opacity="0.996078431372549" d="M 48.5 209 L 51 211.5 L 50.5 212 L 48 209.5 L 48.5 209 Z " /><path fill="rgb(40,14,17)" stroke="rgb(40,14,17)" stroke-width="1" opacity="0.996078431372549" d="M 364.5 209 L 364 210.5 L 362.5 213 L 363 211.5 L 364.5 209 Z " /><path fill="rgb(40,14,17)" stroke="rgb(40,14,17)" stroke-width="1" opacity="0.996078431372549" d="M 361.5 214 L 361 215.5 L 359.5 218 L 360 216.5 L 361.5 214 Z " /><path fill="rgb(40,14,17)" stroke="rgb(40,14,17)" stroke-width="1" opacity="0.996078431372549" d="M 53.5 215 L 57 218.5 L 56.5 219 L 53 215.5 L 53.5 215 Z " /><path fill="rgb(40,14,17)" stroke="rgb(40,14,17)" stroke-width="1" opacity="0.996078431372549" d="M 58.5 219 L 66 225.5 L 65.5 226 L 63.5 224 L 58 219.5 L 58.5 219 Z " /><path fill="rgb(40,14,17)" stroke="rgb(40,14,17)" stroke-width="1" opacity="0.996078431372549" d="M 306.5 219 L 307 232.5 L 306 232.5 L 306.5 219 Z " /><path fill="rgb(40,14,17)" stroke="rgb(40,14,17)" stroke-width="1" opacity="0.996078431372549" d="M 164.5 220 L 165 227.5 L 166 228.5 L 166 236.5 L 167 237.5 L 168 243.5 Q 170.9 251.6 177.5 256 L 181 258.5 L 180.5 259 L 178.5 257 L 174.5 254 L 174 257.5 L 180 269.5 L 186.5 276 L 193.5 280 L 199.5 281 L 200.5 282 L 212.5 282 L 213.5 281 L 219.5 280 L 226 276.5 L 216 274.5 L 219.5 274 L 220.5 275 L 227.5 275 L 228.5 276 L 253.5 276 L 254.5 275 L 261.5 275 L 262.5 274 L 267.5 274 L 268.5 273 L 279.5 271 L 291.5 267 L 294.5 265 L 296.5 265 L 301.5 262 Q 303 263 300.5 264 L 274.5 279 L 272.5 279 L 269.5 281 L 267.5 281 L 264.5 283 L 252.5 287 L 249.5 287 L 244.5 289 L 240.5 289 L 239.5 290 L 235.5 290 L 234.5 291 L 215.5 292 L 214.5 291 L 205.5 291 Q 204.3 288.8 199.5 290 L 198.5 289 L 195.5 289 L 186.5 286 L 173.5 279 L 165 271.5 L 161 265.5 L 158 256.5 L 158 242.5 L 159 241.5 L 159 237.5 L 160 236.5 L 161 229.5 L 164.5 220 Z " /><path fill="rgb(40,14,17)" stroke="rgb(40,14,17)" stroke-width="1" opacity="0.996078431372549" d="M 401.5 271 L 414 271.5 L 413.5 282 L 412.5 273 L 411 273.5 L 406 284.5 Q 407 288.5 405 289.5 L 405 297.5 L 406 298.5 L 406 301.5 L 408 307.5 L 412 313.5 L 418.5 320 L 428.5 325 Q 432.5 324 433.5 326 L 442.5 326 Q 443.3 324.3 446.5 325 L 450.5 322 L 451 322.5 L 447.5 326 L 441.5 330 L 433.5 333 L 422.5 334 L 410.5 330 L 402 322.5 L 397 313.5 L 395 307.5 L 395 300.5 Q 393 299.5 394 295.5 L 395 294.5 L 395 288.5 L 396 287.5 L 397 280.5 L 399 274.5 L 401.5 271 Z " /><path fill="rgb(40,14,17)" stroke="rgb(40,14,17)" stroke-width="1" opacity="0.996078431372549" d="M 466.5 301 L 468 301.5 L 465.5 303 Q 464 302 466.5 301 Z " /><path fill="rgb(63,60,14)" stroke="rgb(63,60,14)" stroke-width="1" opacity="1" d="M 389.5 111 L 392 113.5 L 391.5 114 L 389 111.5 L 389.5 111 Z " /><path fill="rgb(63,60,14)" stroke="rgb(63,60,14)" stroke-width="1" opacity="1" d="M 585.5 135 L 587 135.5 Q 587.8 141.3 584.5 143 L 582 139.5 L 582 137.5 L 583 137.5 L 583.5 139 L 586 137.5 L 585.5 135 Z " /><path fill="rgb(63,60,14)" stroke="rgb(63,60,14)" stroke-width="1" opacity="1" d="M 578.5 137 L 579 142.5 L 578 142.5 L 578.5 137 Z " /><path fill="rgb(63,60,14)" stroke="rgb(63,60,14)" stroke-width="1" opacity="1" d="M 560.5 139 L 561 140.5 Q 560 143 559 141.5 L 560.5 139 Z " /><path fill="rgb(63,60,14)" stroke="rgb(63,60,14)" stroke-width="1" opacity="1" d="M 470.5 175 Q 473 176 471.5 177 L 470 176.5 L 471 179.5 L 467.5 186 L 464.5 187 L 458.5 187 L 455.5 185 L 454 185.5 L 453.5 184 Q 450.5 183.5 450 185.5 L 450.5 187 L 452 186.5 L 452.5 188 Q 453.5 186 454.5 188 L 465 192.5 L 466 195.5 L 464.5 197 L 457.5 197 L 456.5 196 L 450.5 196 L 439 200.5 L 439.5 202 L 443 202.5 L 439.5 203 L 438.5 202 L 434.5 202 L 433.5 201 L 430.5 201 L 429.5 200 L 422 198.5 L 421.5 197 L 419.5 198 L 419.5 196 L 418 195.5 L 430.5 190 L 435.5 189 L 438.5 187 L 443.5 186 L 446.5 184 L 450.5 184 L 454.5 181 L 459.5 180 L 470.5 175 Z M 462 192 L 455 195 Q 458 197 465 196 L 465 195 L 462 192 Z " /><path fill="rgb(63,60,14)" stroke="rgb(63,60,14)" stroke-width="1" opacity="1" d="M 557.5 190 L 559 192.5 L 557.5 193 L 557.5 190 Z " /><path fill="rgb(63,60,14)" stroke="rgb(63,60,14)" stroke-width="1" opacity="1" d="M 444.5 203 L 448 203.5 L 444.5 204 L 444.5 203 Z " /><path fill="rgb(79,25,20)" stroke="rgb(79,25,20)" stroke-width="1" opacity="0.996078431372549" d="M 399.5 0 L 413.5 0 L 414.5 1 L 420.5 1 L 421.5 2 L 425.5 2 L 429 3.5 L 429 5.5 L 431 8.5 L 428.5 10 L 428.5 8 L 425.5 9 L 424.5 7 L 420.5 8 L 419.5 7 Q 414.7 8.3 413.5 6 L 396.5 6 L 393.5 7 Q 392.5 5 391.5 7 L 388.5 8 L 385.5 7 L 385.5 9 L 381 7.5 L 383 6.5 Q 382.5 3.5 384.5 3 L 391.5 2 L 392.5 1 L 398.5 1 L 399.5 0 Z " /><path fill="rgb(79,25,20)" stroke="rgb(79,25,20)" stroke-width="1" opacity="0.996078431372549" d="M 214.5 35 L 228.5 35 L 238.5 39 L 241.5 42 L 245 42.5 L 242 43.5 L 244 44.5 L 242.5 45 L 239.5 44 L 239.5 46 L 236.5 45 L 235.5 47 Q 234 44.5 232.5 48 L 225.5 50 L 213.5 56 L 199 65.5 L 196.5 69 L 195.5 68 L 190.5 73 L 188.5 74 L 188 62.5 L 192 51.5 L 202.5 40 L 214.5 35 Z " /><path fill="rgb(79,25,20)" stroke="rgb(79,25,20)" stroke-width="1" opacity="0.996078431372549" d="M 513.5 94 L 514 94.5 L 507.5 101 L 507 100.5 L 513.5 94 Z " /><path fill="rgb(79,25,20)" stroke="rgb(79,25,20)" stroke-width="1" opacity="0.996078431372549" d="M 424.5 111 L 432.5 111 L 433.5 112 L 442.5 113 L 451.5 117 L 457.5 121 L 458 120.5 L 455 117.5 L 456 116.5 L 455.5 115 L 462 121.5 L 460 123.5 L 460.5 124 L 463.5 126 Q 464.8 123.7 466 126.5 L 465 128.5 L 466.5 130 L 468 129.5 L 467 131.5 L 469 133.5 L 468.5 134 L 462.5 132 L 461 132.5 L 461.5 131 L 459.5 132 L 459.5 130 L 456.5 131 L 456.5 129 L 453.5 130 L 452.5 128 L 449.5 129 L 448.5 127 L 444.5 128 Q 443 124.5 441.5 127 L 432.5 127 L 426.5 129 Q 418.4 132.9 413 139.5 L 408 148.5 L 408 151.5 L 406 155.5 L 405 168.5 L 406 169.5 Q 404.8 174.3 407 175.5 L 406 176.5 L 408 178.5 L 407.5 180 L 409 180.5 L 408 182.5 L 410.5 186 L 412 186.5 Q 409.8 187.8 412.5 189 L 414 189.5 L 413.5 191 L 415 191.5 L 416 194.5 Q 415 197 414 195.5 L 414.5 194 L 412.5 195 L 411.5 193 L 410 193.5 L 409.5 192 L 405.5 190 L 404 190.5 L 403.5 189 L 402 189.5 L 402.5 188 L 400.5 187 L 399 187.5 L 399.5 186 L 396.5 184 Q 395.3 186.3 394 183.5 Q 396.5 182 393 180.5 L 392.5 179 L 391 179.5 L 390.5 178 L 389 177.5 Q 387.3 175.7 388 171.5 L 385.5 166 L 384 166.5 L 385 163.5 L 382 155.5 L 382 150.5 L 384 146.5 L 385 140.5 L 388 134.5 L 397.5 123 L 409.5 115 L 418.5 112 L 423.5 112 L 424.5 111 Z " /><path fill="rgb(79,25,20)" stroke="rgb(79,25,20)" stroke-width="1" opacity="0.996078431372549" d="M 396.5 112 L 400 114.5 L 397.5 116 L 398 114.5 L 396 112.5 L 396.5 112 Z " /><path fill="rgb(79,25,20)" stroke="rgb(79,25,20)" stroke-width="1" opacity="0.996078431372549" d="M 60.5 127 L 79.5 127 L 81 128.5 L 79.5 128 L 77 128.5 L 77.5 130 L 75.5 129 L 75.5 131 L 73.5 130 L 69 132.5 L 69.5 134 L 68 133.5 L 66.5 136 Q 65.3 133.7 64 136.5 L 62.5 139 L 61.5 138 L 58 141.5 Q 49.8 150.8 44 162.5 L 41 171.5 L 41 175.5 L 40 176.5 L 40 189.5 L 41 191.5 Q 38.5 193 42 194.5 L 41 196.5 L 43 197.5 Q 40.5 199 44 200.5 L 45.5 205 L 47 205.5 Q 44.8 206.7 47.5 208 L 49 208.5 L 48 209.5 L 50.5 212 L 58 218.5 L 61.5 223 L 63 222.5 L 62.5 224 L 65.5 226 L 67 225.5 L 68.5 228 L 70 227.5 L 70.5 229 L 72 228.5 L 71.5 230 L 75.5 232 L 77 231.5 L 76.5 233 L 78.5 232 L 78.5 234 L 82 235.5 L 80.5 236 Q 79.3 233.7 74.5 235 L 71.5 236 L 70.5 235 L 62.5 235 L 61.5 234 L 58.5 234 L 49.5 231 Q 38.8 225.8 31 217.5 L 25 209.5 L 18 193.5 Q 19 189.5 17 188.5 L 17 170.5 L 18 169.5 L 18 166.5 L 21 157.5 L 28.5 145 L 30 144.5 L 37.5 136 L 41.5 133 L 47 131.5 L 45 130.5 L 49.5 129 L 53.5 129 L 54.5 128 L 59.5 128 L 60.5 127 Z " /><path fill="rgb(79,25,20)" stroke="rgb(79,25,20)" stroke-width="1" opacity="0.996078431372549" d="M 494.5 128 L 495 130.5 L 494 130.5 L 494.5 128 Z " /><path fill="rgb(79,25,20)" stroke="rgb(79,25,20)" stroke-width="1" opacity="0.996078431372549" d="M 578.5 132 L 580 132.5 L 577 134.5 L 581 136.5 L 584 143.5 L 582.5 143 L 580 143.5 L 582 144.5 L 578.5 145 L 579 143.5 L 578.5 137 L 578 142.5 L 576.5 144 L 574.5 140 L 573 140.5 Q 575 139.5 574 135.5 L 573.5 134 L 575 134.5 L 575.5 133 L 578.5 132 Z " /><path fill="rgb(79,25,20)" stroke="rgb(79,25,20)" stroke-width="1" opacity="0.996078431372549" d="M 569.5 133 L 570 140.5 L 569 140.5 L 569.5 133 Z " /><path fill="rgb(79,25,20)" stroke="rgb(79,25,20)" stroke-width="1" opacity="0.996078431372549" d="M 494.5 135 L 495 138.5 L 494 138.5 L 494.5 135 Z " /><path fill="rgb(79,25,20)" stroke="rgb(79,25,20)" stroke-width="1" opacity="0.996078431372549" d="M 596.5 135 L 598 139.5 L 596 139.5 L 597 142.5 L 595 143.5 Q 597 144.5 595 145.5 L 590.5 151 L 587.5 153 L 587.5 151 L 582.5 153 L 576.5 153 L 576.5 152 L 582.5 152 L 585.5 151 L 591 146.5 L 593.5 142 L 595 141.5 L 594 138.5 L 596 138.5 L 596.5 135 Z " /><path fill="rgb(79,25,20)" stroke="rgb(79,25,20)" stroke-width="1" opacity="0.996078431372549" d="M 585.5 136 L 586 137.5 L 583.5 139 L 583 137.5 L 585 137.5 L 585.5 136 Z " /><path fill="rgb(79,25,20)" stroke="rgb(79,25,20)" stroke-width="1" opacity="0.996078431372549" d="M 312.5 139 L 313 141.5 L 312 141.5 L 312.5 139 Z " /><path fill="rgb(79,25,20)" stroke="rgb(79,25,20)" stroke-width="1" opacity="0.996078431372549" d="M 549.5 141 L 550 144.5 L 549 144.5 L 549.5 141 Z " /><path fill="rgb(79,25,20)" stroke="rgb(79,25,20)" stroke-width="1" opacity="0.996078431372549" d="M 312.5 160 L 313 162.5 L 312 162.5 L 312.5 160 Z " /><path fill="rgb(79,25,20)" stroke="rgb(79,25,20)" stroke-width="1" opacity="0.996078431372549" d="M 176.5 166 L 177 168.5 L 176 168.5 L 176.5 166 Z " /><path fill="rgb(79,25,20)" stroke="rgb(79,25,20)" stroke-width="1" opacity="0.996078431372549" d="M 613.5 179 L 616 179.5 L 613.5 180 L 613.5 179 Z " /><path fill="rgb(79,25,20)" stroke="rgb(79,25,20)" stroke-width="1" opacity="0.996078431372549" d="M 176.5 184 L 177 188.5 L 176 188.5 L 176.5 184 Z " /><path fill="rgb(79,25,20)" stroke="rgb(79,25,20)" stroke-width="1" opacity="0.996078431372549" d="M 133.5 191 L 134 197.5 L 136 203.5 L 136 218.5 L 132.5 220 L 132 207.5 Q 130 206.5 131 202.5 L 132 201.5 L 132 193.5 L 133.5 191 Z " /><path fill="rgb(79,25,20)" stroke="rgb(79,25,20)" stroke-width="1" opacity="0.996078431372549" d="M 555.5 192 L 558.5 193 L 560 192.5 L 558.5 195 L 555 192.5 L 555.5 192 Z " /><path fill="rgb(79,25,20)" stroke="rgb(79,25,20)" stroke-width="1" opacity="0.996078431372549" d="M 512.5 193 L 514.5 198 L 516 197.5 L 515 199.5 L 517.5 204 L 519 204.5 Q 516.5 206 520 207.5 L 521.5 210 L 525 212.5 L 533.5 222 L 548 234.5 L 546.5 235 L 518 212.5 L 516.5 210 L 515 209.5 Q 517 208.5 515 207.5 L 513.5 204 L 512 203.5 L 513 201.5 L 511 201.5 L 512 198.5 L 510 194.5 L 512 194.5 L 512.5 193 Z M 530 219 L 529 221 L 531 221 Q 532 220 530 219 Z " /><path fill="rgb(79,25,20)" stroke="rgb(79,25,20)" stroke-width="1" opacity="0.996078431372549" d="M 135.5 194 L 136 196.5 L 135 196.5 L 135.5 194 Z " /><path fill="rgb(79,25,20)" stroke="rgb(79,25,20)" stroke-width="1" opacity="0.996078431372549" d="M 369.5 196 L 369.5 198 L 372.5 196 L 373.5 197 L 375 196.5 L 373.5 198 Q 372.2 195.8 371 198.5 L 370 200.5 L 370.5 202 L 369 201.5 L 368 203.5 Q 370.3 204.8 367.5 206 L 365 207.5 L 365.5 209 L 363 210.5 L 362 212.5 L 362.5 214 L 361 214.5 L 361.5 216 L 360 215.5 L 359 217.5 Q 361 218.5 359 219.5 L 354 230.5 L 349.5 246 L 348.5 244 L 348 246.5 L 349 249.5 L 348 249.5 L 347.5 248 L 346.5 252 L 346 248.5 L 347 247.5 L 347 243.5 L 348 242.5 L 348 239.5 L 350 235.5 L 350 232.5 L 353 223.5 L 356 219.5 L 355.5 218 L 357 217.5 L 359 212.5 L 358.5 211 L 360 211.5 L 359 209.5 L 361 209.5 L 363 204.5 L 369.5 196 Z " /><path fill="rgb(79,25,20)" stroke="rgb(79,25,20)" stroke-width="1" opacity="0.996078431372549" d="M 311.5 202 L 312 205.5 L 311 206.5 L 311 216.5 L 312 218.5 L 311 218.5 L 310.5 217 L 310 230.5 L 311 231.5 L 311 237.5 L 310 238.5 L 310 249.5 L 309 250.5 L 309.5 252 L 307.5 250 L 306 250.5 L 308 245.5 L 306 241.5 L 306 233.5 L 307 232.5 L 307 219.5 L 306 219.5 L 305.5 223 L 305 217.5 L 306 216.5 L 306.5 205 L 307.5 209 Q 311.6 207.6 311.5 202 Z " /><path fill="rgb(79,25,20)" stroke="rgb(79,25,20)" stroke-width="1" opacity="0.996078431372549" d="M 171.5 203 Q 173.5 203.5 173 206.5 L 171.5 210 L 170 209.5 L 169 207.5 L 171 207.5 L 171.5 203 Z " /><path fill="rgb(79,25,20)" stroke="rgb(79,25,20)" stroke-width="1" opacity="0.996078431372549" d="M 565.5 204 L 566.5 205 L 568 204.5 L 566.5 206 Q 564 205 565.5 204 Z " /><path fill="rgb(79,25,20)" stroke="rgb(79,25,20)" stroke-width="1" opacity="0.996078431372549" d="M 165.5 220 L 166 227.5 L 165 227.5 L 165.5 220 Z " /><path fill="rgb(79,25,20)" stroke="rgb(79,25,20)" stroke-width="1" opacity="0.996078431372549" d="M 171.5 249 L 178 255.5 L 177.5 257 L 180.5 259 Q 181.8 256.8 183 259.5 L 183.5 261 Q 184.8 258.8 186 261.5 L 186.5 263 Q 188 260.5 189.5 264 L 202.5 270 L 208.5 272 L 211.5 272 L 213.5 274 L 215.5 273 L 216.5 275 L 221.5 274 L 221.5 275 L 220 275.5 L 226 276.5 L 219.5 280 L 213.5 281 L 212.5 282 L 200.5 282 L 189.5 278 L 180 269.5 L 175 260.5 L 174 254.5 L 173 253.5 L 174 252.5 L 171 249.5 L 171.5 249 Z " /><path fill="rgb(79,25,20)" stroke="rgb(79,25,20)" stroke-width="1" opacity="0.996078431372549" d="M 345.5 253 L 346 257.5 L 345 257.5 L 345.5 253 Z " /><path fill="rgb(79,25,20)" stroke="rgb(79,25,20)" stroke-width="1" opacity="0.996078431372549" d="M 411.5 273 L 413 273.5 L 413.5 282 L 415 282.5 L 414 285.5 L 416 286.5 L 418 291.5 L 425.5 299 L 435.5 304 L 441.5 305 L 442.5 306 L 455.5 306 L 457.5 305 L 459 305.5 L 459.5 304 L 461.5 305 L 462.5 303 L 464 303.5 L 464.5 302 Q 465.5 304 466.5 302 L 468 302.5 Q 462.6 315.1 452.5 323 L 448.5 326 L 448.5 324 L 442.5 326 L 433.5 326 L 432.5 325 L 428.5 325 L 425.5 323 L 423.5 323 L 418.5 320 L 412 313.5 L 408 307.5 L 406 301.5 Q 406.8 298.3 405 297.5 L 405 289.5 L 406 288.5 L 407 281.5 L 411.5 273 Z " /><path fill="rgb(79,25,20)" stroke="rgb(79,25,20)" stroke-width="1" opacity="0.996078431372549" d="M 228.5 275 L 232 275.5 L 228.5 276 L 228.5 275 Z " /><path fill="rgb(79,25,20)" stroke="rgb(79,25,20)" stroke-width="1" opacity="0.996078431372549" d="M 251.5 275 L 254 275.5 L 251.5 276 L 251.5 275 Z " /><path fill="rgb(121,71,25)" stroke="rgb(121,71,25)" stroke-width="1" opacity="0.996078431372549" d="M 396.5 6 L 400 6.5 L 396.5 7 L 396.5 6 Z " /><path fill="rgb(121,71,25)" stroke="rgb(121,71,25)" stroke-width="1" opacity="0.996078431372549" d="M 411.5 6 L 414 6.5 L 411.5 7 L 411.5 6 Z " /><path fill="rgb(121,71,25)" stroke="rgb(121,71,25)" stroke-width="1" opacity="0.996078431372549" d="M 256.5 42 L 259 42.5 L 256.5 43 L 256.5 42 Z " /><path fill="rgb(121,71,25)" stroke="rgb(121,71,25)" stroke-width="1" opacity="0.996078431372549" d="M 195.5 69 L 196 69.5 L 193.5 72 L 193 71.5 L 195.5 69 Z " /><path fill="rgb(121,71,25)" stroke="rgb(121,71,25)" stroke-width="1" opacity="0.996078431372549" d="M 187.5 77 L 188 77.5 L 185.5 80 L 185 79.5 L 187.5 77 Z " /><path fill="rgb(121,71,25)" stroke="rgb(121,71,25)" stroke-width="1" opacity="0.996078431372549" d="M 426.5 105 L 432 105.5 L 426.5 106 L 426.5 105 Z " /><path fill="rgb(121,71,25)" stroke="rgb(121,71,25)" stroke-width="1" opacity="0.996078431372549" d="M 574.5 127 L 577 127.5 L 575 128.5 L 576 131.5 L 573 134.5 Q 571.5 142.5 576.5 144 L 578 144.5 L 576 145.5 L 580 147.5 L 577.5 148 L 571 144.5 L 570.5 142 L 569 141.5 L 570 140.5 L 570 133.5 L 569.5 132 L 572 130.5 Q 569.8 129.3 572.5 128 L 574 128.5 L 574.5 127 Z " /><path fill="rgb(121,71,25)" stroke="rgb(121,71,25)" stroke-width="1" opacity="0.996078431372549" d="M 418.5 134 L 419 134.5 L 413.5 140 L 413 139.5 L 418.5 134 Z " /><path fill="rgb(121,71,25)" stroke="rgb(121,71,25)" stroke-width="1" opacity="0.996078431372549" d="M 568.5 135 L 569 138.5 L 568 138.5 L 568.5 135 Z " /><path fill="rgb(121,71,25)" stroke="rgb(121,71,25)" stroke-width="1" opacity="0.996078431372549" d="M 61.5 139 L 62 139.5 L 59.5 142 L 59 141.5 L 61.5 139 Z " /><path fill="rgb(121,71,25)" stroke="rgb(121,71,25)" stroke-width="1" opacity="0.996078431372549" d="M 312.5 142 L 313 146.5 L 312 146.5 L 312.5 142 Z " /><path fill="rgb(121,71,25)" stroke="rgb(121,71,25)" stroke-width="1" opacity="0.996078431372549" d="M 57.5 143 L 58 143.5 L 54.5 147 L 54 146.5 L 57.5 143 Z " /><path fill="rgb(121,71,25)" stroke="rgb(121,71,25)" stroke-width="1" opacity="0.996078431372549" d="M 591.5 147 L 592 147.5 L 589 150.5 Q 591.2 151.8 588.5 153 L 587 152.5 L 586.5 154 L 582.5 155 L 580.5 154 L 578.5 155 L 574 152.5 L 575.5 152 L 576.5 153 L 582.5 153 L 586 151.5 L 585.5 150 L 587.5 151 L 589 149.5 L 588.5 148 Q 590 150.5 591.5 147 Z " /><path fill="rgb(121,71,25)" stroke="rgb(121,71,25)" stroke-width="1" opacity="0.996078431372549" d="M 312.5 156 L 313 159.5 L 312 159.5 L 312.5 156 Z " /><path fill="rgb(121,71,25)" stroke="rgb(121,71,25)" stroke-width="1" opacity="0.996078431372549" d="M 405.5 161 L 406 168.5 L 405 168.5 L 405.5 161 Z " /><path fill="rgb(121,71,25)" stroke="rgb(121,71,25)" stroke-width="1" opacity="0.996078431372549" d="M 623.5 175 L 626 175.5 L 624 176.5 L 627 177.5 L 618.5 180 L 617 177.5 L 618.5 178 L 620.5 176 L 623.5 175 Z " /><path fill="rgb(121,71,25)" stroke="rgb(121,71,25)" stroke-width="1" opacity="0.996078431372549" d="M 463.5 191 L 463 192.5 L 464.5 194 L 466 193.5 L 464.5 196 L 457.5 196 L 456 197.5 L 456.5 199 L 458 198.5 L 459.5 201 L 461 201.5 L 460.5 205 L 448 204.5 L 447.5 203 L 442.5 204 L 442.5 202 L 437.5 203 L 437.5 202 L 439 201.5 L 439.5 200 L 444.5 199 L 450.5 196 L 457 195.5 L 455 194.5 L 460.5 193 L 463.5 191 Z " /><path fill="rgb(121,71,25)" stroke="rgb(121,71,25)" stroke-width="1" opacity="0.996078431372549" d="M 130.5 196 L 131 198.5 L 130 198.5 L 130.5 196 Z " /><path fill="rgb(121,71,25)" stroke="rgb(121,71,25)" stroke-width="1" opacity="0.996078431372549" d="M 131.5 207 L 132 211.5 L 131 211.5 L 131.5 207 Z " /><path fill="rgb(121,71,25)" stroke="rgb(121,71,25)" stroke-width="1" opacity="0.996078431372549" d="M 526.5 216 L 530.5 220 L 531.5 219 L 534 221.5 L 533 222.5 L 536 225.5 L 535.5 226 L 533.5 224 Q 532.2 226.3 531 223.5 Q 533.3 222.3 530.5 221 L 528.5 222 Q 526 221 527.5 220 L 529 220.5 L 526 216.5 L 526.5 216 Z " /><path fill="rgb(121,71,25)" stroke="rgb(121,71,25)" stroke-width="1" opacity="0.996078431372549" d="M 305.5 223 L 306 227.5 L 305 227.5 L 305.5 223 Z " /><path fill="rgb(121,71,25)" stroke="rgb(121,71,25)" stroke-width="1" opacity="0.996078431372549" d="M 537.5 226 L 540 228.5 L 539.5 229 L 537.5 227 L 536 227.5 L 537.5 226 Z " /><path fill="rgb(121,71,25)" stroke="rgb(121,71,25)" stroke-width="1" opacity="0.996078431372549" d="M 349.5 235 L 351 237.5 L 350 237.5 L 349.5 235 Z " /><path fill="rgb(121,71,25)" stroke="rgb(121,71,25)" stroke-width="1" opacity="0.996078431372549" d="M 349.5 240 L 351 243.5 L 350 243.5 L 349.5 240 Z " /><path fill="rgb(121,71,25)" stroke="rgb(121,71,25)" stroke-width="1" opacity="0.996078431372549" d="M 306.5 242 L 307 249.5 L 306 249.5 L 306.5 242 Z " /><path fill="rgb(121,71,25)" stroke="rgb(121,71,25)" stroke-width="1" opacity="0.996078431372549" d="M 348.5 244 L 350 247.5 Q 349 249 348 246.5 L 348.5 244 Z " /><path fill="rgb(121,71,25)" stroke="rgb(121,71,25)" stroke-width="1" opacity="0.996078431372549" d="M 346.5 247 L 349 250.5 L 349 252.5 L 348 253.5 L 348 260.5 L 346.5 262 L 344 260.5 L 344.5 258 L 346 257.5 Q 347 253.5 345 252.5 L 347 251.5 L 347 248.5 L 346.5 247 Z " /><path fill="rgb(121,71,25)" stroke="rgb(121,71,25)" stroke-width="1" opacity="0.996078431372549" d="M 232.5 275 L 235 275.5 L 232.5 276 L 232.5 275 Z " /><path fill="rgb(121,71,25)" stroke="rgb(121,71,25)" stroke-width="1" opacity="0.996078431372549" d="M 247.5 275 L 251 275.5 L 247.5 276 L 247.5 275 Z " /><path fill="rgb(150,123,122)" stroke="rgb(150,123,122)" stroke-width="1" opacity="0.996078431372549" d="M 378.5 100 L 382 103.5 L 381.5 104 L 378 100.5 L 378.5 100 Z " /><path fill="rgb(150,123,122)" stroke="rgb(150,123,122)" stroke-width="1" opacity="0.996078431372549" d="M 551.5 144 L 552 155.5 L 550.5 158 L 549 149.5 L 551 148.5 L 551.5 144 Z " /><path fill="rgb(150,123,122)" stroke="rgb(150,123,122)" stroke-width="1" opacity="0.996078431372549" d="M 321.5 155 L 322 162.5 L 321 162.5 L 321.5 155 Z " /><path fill="rgb(150,123,122)" stroke="rgb(150,123,122)" stroke-width="1" opacity="0.996078431372549" d="M 552.5 175 L 553.5 177 L 555 176.5 L 556 183.5 L 554.5 186 L 553.5 183 L 552 183.5 L 552.5 175 Z " /><path fill="rgb(150,123,122)" stroke="rgb(150,123,122)" stroke-width="1" opacity="0.996078431372549" d="M 135.5 188 L 136 190.5 L 135 190.5 L 135.5 188 Z " /><path fill="rgb(150,123,122)" stroke="rgb(150,123,122)" stroke-width="1" opacity="0.996078431372549" d="M 310.5 247 L 311 251.5 L 310 251.5 L 310.5 247 Z " /><path fill="rgb(224,24,1)" stroke="rgb(224,24,1)" stroke-width="1" opacity="0.00784313725490196" d="M 360.5 14 L 361 14.5 L 358.5 17 L 358 16.5 L 360.5 14 Z " /><path fill="rgb(224,24,1)" stroke="rgb(224,24,1)" stroke-width="1" opacity="0.00784313725490196" d="M 355.5 19 L 355.5 22 L 354 21.5 L 355.5 19 Z " /><path fill="rgb(224,24,1)" stroke="rgb(224,24,1)" stroke-width="1" opacity="0.00784313725490196" d="M 350.5 25 Q 353 26 351.5 27 L 350 26.5 L 349.5 28 L 349 26.5 L 350.5 25 Z " /><path fill="rgb(224,24,1)" stroke="rgb(224,24,1)" stroke-width="1" opacity="0.00784313725490196" d="M 161.5 99 L 162 106.5 L 161 106.5 L 161.5 99 Z " /><path fill="rgb(224,24,1)" stroke="rgb(224,24,1)" stroke-width="1" opacity="0.00784313725490196" d="M 61.5 124 L 64 124.5 L 61.5 125 L 61.5 124 Z " /><path fill="rgb(224,24,1)" stroke="rgb(224,24,1)" stroke-width="1" opacity="0.00784313725490196" d="M 84.5 124 L 87 124.5 L 84.5 125 L 84.5 124 Z " /><path fill="rgb(224,24,1)" stroke="rgb(224,24,1)" stroke-width="1" opacity="0.00784313725490196" d="M 164.5 125 Q 167 126 165.5 127 L 164.5 126 L 163 126.5 L 164.5 125 Z " /><path fill="rgb(243,122,32)" stroke="rgb(243,122,32)" stroke-width="1" opacity="0.996078431372549" d="M 394.5 7 L 416.5 7 L 417.5 8 L 421.5 8 L 422.5 9 L 429.5 10 L 446.5 18 L 458 27.5 L 462 39.5 L 461 39.5 L 459.5 37 L 457 39.5 L 457.5 40 L 460 40.5 L 456.5 41 L 451.5 39 L 439.5 38 L 438.5 37 L 429.5 37 L 428.5 36 Q 427.5 38 426.5 36 L 402.5 36 Q 401.3 38.3 396.5 37 L 396.5 36 L 399 35.5 L 386 21.5 L 381.5 12 L 376.5 13 L 376.5 12 L 384.5 9 L 388.5 9 L 394.5 7 Z " /><path fill="rgb(243,122,32)" stroke="rgb(243,122,32)" stroke-width="1" opacity="0.996078431372549" d="M 230.5 49 L 232 49.5 L 228 51.5 L 230 56.5 L 231 73.5 L 230 74.5 L 230 82.5 L 229 83.5 Q 229.7 87.7 228 89.5 L 228.5 90 L 230.5 88 L 239.5 83 L 240 83.5 L 237.5 86 L 229.5 90 L 185.5 119 L 178.5 122 L 176.5 124 L 174.5 124 L 168.5 127 L 166 122.5 L 165 114.5 L 172 98.5 L 179 87.5 L 198.5 67 L 216.5 55 L 230.5 49 Z " /><path fill="rgb(243,122,32)" stroke="rgb(243,122,32)" stroke-width="1" opacity="0.996078431372549" d="M 513.5 93 L 514 93.5 L 503 104.5 L 498 112.5 L 494 124.5 L 494 143.5 L 495 144.5 L 496 155.5 L 497 156.5 L 500 171.5 L 507 192.5 L 515 210.5 L 519.5 215 L 546 235.5 L 518.5 248 L 513.5 249 L 502.5 254 L 490.5 258 L 487.5 258 L 480.5 261 L 473.5 262 L 471 263.5 L 471 290.5 L 470 291.5 L 469 298.5 L 467.5 300 L 460.5 304 Q 457.2 303.3 456.5 305 L 441.5 305 L 433 301.5 L 434.5 301 L 438.5 303 L 441.5 303 L 441.5 302 L 437.5 301 L 428 291.5 L 422 281.5 L 419 272.5 L 421 271.5 L 397.5 271 L 396.5 270 L 386.5 270 L 385.5 269 L 378.5 269 L 377.5 268 L 372.5 268 L 371.5 267 L 362.5 266 L 361.5 265 L 350.5 263 L 348 261.5 L 349 249.5 L 350 248.5 L 352 237.5 L 361 216.5 L 373 198.5 L 390.5 179 L 398.5 188 L 415.5 197 L 424.5 200 L 427.5 200 L 431.5 202 L 439.5 203 L 440.5 204 L 458.5 206 L 462 203.5 L 459.5 199 L 457 197.5 L 458.5 197 Q 459.5 199 463.5 198 L 466 196.5 L 466 193.5 L 462.5 190 L 453 186.5 L 455.5 186 L 456.5 187 L 466.5 187 L 470 183.5 L 474 172.5 L 482 161.5 L 477.5 157 L 471.5 154 Q 468.3 154.8 467.5 153 L 451.5 153 L 450.5 154 L 443.5 155 L 432.5 160 Q 424.5 164.5 419 171.5 L 415 180.5 L 414.5 190 L 410 183.5 L 410 181.5 L 407 175.5 Q 408 171.5 406 170.5 L 406 159.5 L 407 158.5 L 407 154.5 L 410 145.5 L 418.5 135 L 419 135.5 L 416 138.5 L 416.5 140 L 424.5 136 L 430.5 135 L 431.5 134 Q 435.5 135 436.5 133 L 450.5 133 L 451.5 134 L 455.5 134 L 467.5 138 L 467.5 137 L 459.5 133 L 451 130.5 L 453.5 130 L 459.5 132 L 472.5 139 L 473 137.5 L 465 124.5 L 453.5 113 L 447.5 109 L 439.5 106 Q 435.5 107 434.5 105 L 423.5 105 L 422.5 106 L 418.5 106 L 417.5 107 L 414.5 107 L 408.5 109 L 398.5 114 L 393 107.5 L 393.5 107 L 395.5 109 L 409.5 108 L 413.5 106 L 421.5 105 L 422.5 104 L 441.5 104 L 442.5 103 Q 443.5 105 444.5 103 Q 449.2 104.3 450.5 102 Q 451.5 104 452.5 102 L 465.5 101 L 466.5 100 L 472.5 100 L 473.5 99 L 483.5 99 L 484.5 98 L 491.5 98 L 492.5 97 L 499.5 97 L 500.5 96 L 507.5 96 L 508.5 97 L 511.5 94 L 513.5 93 Z M 469 138 Q 467 139 470 140 L 471 140 L 469 138 Z M 472 140 Q 470 141 473 141 L 473 143 Q 474 145 475 144 L 474 141 L 472 140 Z " /><path fill="rgb(243,122,32)" stroke="rgb(243,122,32)" stroke-width="1" opacity="0.996078431372549" d="M 308.5 118 L 309 122.5 L 310 123.5 L 310 128.5 L 311 129.5 L 311 136.5 L 312 137.5 L 312 164.5 L 311 165.5 L 311 170.5 L 310 171.5 L 309 179.5 L 305 189.5 L 305 195.5 L 304 196.5 L 304 213.5 L 305 214.5 L 305 233.5 L 306 234.5 L 306 250.5 L 307.5 252 Q 311.6 251.4 313 253.5 L 308.5 258 L 297.5 264 L 295.5 264 L 287.5 268 L 284.5 268 L 277.5 271 L 269.5 272 L 268.5 273 L 264.5 273 L 263.5 274 L 256.5 274 L 255.5 275 L 228.5 275 L 228.5 274 L 235 273.5 L 227.5 271 L 225.5 269 L 218.5 266 L 202.5 256 L 195.5 253 L 193.5 251 L 169.5 238 L 168.5 241 L 167 237.5 L 167 232.5 L 166 231.5 L 166 215.5 L 168.5 211 L 180.5 213 L 200.5 220 L 203.5 220 L 210.5 223 L 213.5 223 L 223.5 227 L 226.5 227 L 233.5 230 L 240.5 231 L 257.5 237 L 260.5 237 L 260.5 236 L 258 235.5 L 259 223.5 L 260 222.5 L 260 218.5 L 261 217.5 L 262 209.5 L 264 205.5 L 264 202.5 L 267 193.5 L 272 183.5 L 272 181.5 L 277 171.5 L 288 154.5 Q 297.3 141.3 309 130.5 L 309 125.5 L 308 125.5 L 306.5 128 Q 304.7 126.3 300.5 127 L 299.5 126 L 296.5 127 L 293.5 126 L 290.5 127 Q 289.5 125 288.5 127 L 285.5 126 Q 284.5 128 283.5 126 L 281.5 127 Q 280.5 125 276.5 126 Q 275.5 128 274.5 126 L 272.5 127 L 272 125.5 L 279.5 125 L 280.5 124 L 287.5 124 L 293.5 122 L 306.5 121 L 307.5 123 L 308.5 118 Z M 310 131 L 309 137 L 310 137 L 310 131 Z M 262 237 L 262 238 L 264 238 L 262 237 Z " /><path fill="rgb(243,122,32)" stroke="rgb(243,122,32)" stroke-width="1" opacity="0.996078431372549" d="M 264.5 126 L 268 126.5 L 264.5 127 L 264.5 126 Z " /><path fill="rgb(243,122,32)" stroke="rgb(243,122,32)" stroke-width="1" opacity="0.996078431372549" d="M 256.5 127 L 261 127.5 L 256.5 128 L 256.5 127 Z " /><path fill="rgb(243,122,32)" stroke="rgb(243,122,32)" stroke-width="1" opacity="0.996078431372549" d="M 248.5 128 L 253 128.5 L 248.5 129 L 248.5 128 Z " /><path fill="rgb(243,122,32)" stroke="rgb(243,122,32)" stroke-width="1" opacity="0.996078431372549" d="M 297.5 128 L 300 128.5 L 297.5 129 L 297.5 128 Z " /><path fill="rgb(243,122,32)" stroke="rgb(243,122,32)" stroke-width="1" opacity="0.996078431372549" d="M 440.5 128 L 445 128.5 L 440.5 129 L 440.5 128 Z " /><path fill="rgb(243,122,32)" stroke="rgb(243,122,32)" stroke-width="1" opacity="0.996078431372549" d="M 240.5 129 L 245 129.5 L 240.5 130 L 240.5 129 Z " /><path fill="rgb(243,122,32)" stroke="rgb(243,122,32)" stroke-width="1" opacity="0.996078431372549" d="M 289.5 129 L 292 129.5 L 289.5 130 L 289.5 129 Z " /><path fill="rgb(243,122,32)" stroke="rgb(243,122,32)" stroke-width="1" opacity="0.996078431372549" d="M 446.5 129 L 450 129.5 L 446.5 130 L 446.5 129 Z " /><path fill="rgb(243,122,32)" stroke="rgb(243,122,32)" stroke-width="1" opacity="0.996078431372549" d="M 610.5 129 Q 622.5 137.5 632 148.5 L 638 158.5 L 638 163.5 L 635.5 168 L 630.5 172 L 621.5 176 L 611.5 178 L 610.5 179 L 605 179.5 L 605.5 181 L 615.5 181 L 616.5 180 L 622.5 180 L 634.5 176 L 639.5 173 L 640 177.5 L 634.5 184 L 616.5 198 L 601.5 208 L 579.5 220 L 569 206.5 L 560 191.5 Q 569.9 188.4 575 180.5 L 579 169.5 L 579 161.5 L 577 156.5 L 585.5 155 Q 591.3 152.3 595 147.5 L 598 141.5 L 599 134.5 Q 597.3 133.7 598 130.5 L 599 130.5 L 600.5 137 L 601.5 135 L 611.5 135 Q 612.5 137 616.5 136 L 617 135.5 L 614.5 133 L 610 129.5 L 610.5 129 Z " /><path fill="rgb(243,122,32)" stroke="rgb(243,122,32)" stroke-width="1" opacity="0.996078431372549" d="M 232.5 130 L 237 130.5 L 232.5 131 L 232.5 130 Z " /><path fill="rgb(243,122,32)" stroke="rgb(243,122,32)" stroke-width="1" opacity="0.996078431372549" d="M 224.5 131 L 229 131.5 L 224.5 132 L 224.5 131 Z " /><path fill="rgb(243,122,32)" stroke="rgb(243,122,32)" stroke-width="1" opacity="0.996078431372549" d="M 216.5 132 L 221 132.5 L 216.5 133 L 216.5 132 Z " /><path fill="rgb(243,122,32)" stroke="rgb(243,122,32)" stroke-width="1" opacity="0.996078431372549" d="M 422.5 132 L 423 132.5 L 420.5 135 L 420 134.5 L 422.5 132 Z " /><path fill="rgb(243,122,32)" stroke="rgb(243,122,32)" stroke-width="1" opacity="0.996078431372549" d="M 208.5 133 L 213 133.5 L 208.5 134 L 208.5 133 Z " /><path fill="rgb(243,122,32)" stroke="rgb(243,122,32)" stroke-width="1" opacity="0.996078431372549" d="M 200.5 134 L 205 134.5 L 200.5 135 L 200.5 134 Z " /><path fill="rgb(243,122,32)" stroke="rgb(243,122,32)" stroke-width="1" opacity="0.996078431372549" d="M 193.5 135 L 197 135.5 L 193.5 136 L 193.5 135 Z " /><path fill="rgb(243,122,32)" stroke="rgb(243,122,32)" stroke-width="1" opacity="0.996078431372549" d="M 61.5 140 L 62 140.5 L 56 146.5 L 54 149.5 L 57.5 150 L 64.5 147 Q 65.5 149 66.5 147 Q 69.8 147.8 70.5 146 L 72.5 147 L 73.5 146 L 86.5 146 L 87.5 147 L 98.5 148 L 107.5 151 L 116.5 155 L 118.5 157 L 120.5 157 L 123 159.5 L 123.5 162 L 124.5 156 L 125 160.5 L 126 161.5 L 126 167.5 L 127 168.5 L 127 174.5 L 128 175.5 L 128 182.5 L 129 183.5 L 130 201.5 L 131 202.5 L 131 217.5 L 132 220.5 L 102.5 236 L 100.5 236 L 97.5 238 L 92.5 238 L 72.5 229 L 58.5 219 L 52 212.5 L 45 202.5 L 41 191.5 L 41 174.5 L 42 173.5 L 42 170.5 L 44 164.5 L 49 154.5 Q 54.1 146.1 61.5 140 Z " /><path fill="rgb(243,122,32)" stroke="rgb(243,122,32)" stroke-width="1" opacity="0.996078431372549" d="M 123.5 151 L 124 154.5 L 123 154.5 L 123.5 151 Z " /><path fill="rgb(243,122,32)" stroke="rgb(243,122,32)" stroke-width="1" opacity="0.996078431372549" d="M 222.5 273 L 225 273.5 L 222.5 274 L 222.5 273 Z " /><path fill="rgb(235,120,85)" stroke="rgb(235,120,85)" stroke-width="1" opacity="0.996078431372549" d="M 484.5 51 L 488.5 52 L 507.5 62 L 528.5 76 L 531.5 77 L 534 79.5 Q 522.8 84.8 514.5 93 L 507.5 96 L 500.5 96 L 499.5 97 L 492.5 97 L 491.5 98 L 484.5 98 L 483.5 99 L 473.5 99 L 472.5 100 L 458.5 101 L 457.5 102 Q 452.7 100.8 451.5 103 Q 450.5 101 449.5 103 Q 444.8 101.8 443.5 104 Q 442.5 102 441.5 104 L 422.5 104 L 421.5 105 L 413.5 106 L 409.5 108 L 395.5 109 L 394.5 108 L 393 108.5 L 393.5 107 L 383 97.5 L 359 66.5 L 359.5 66 L 364 70.5 L 365.5 73 L 369.5 71 L 384.5 70 L 385.5 69 L 391.5 69 L 392.5 68 L 399.5 68 L 400.5 67 L 407.5 67 L 408.5 66 L 416.5 66 L 417.5 65 L 424.5 65 L 425.5 64 L 433.5 64 L 434.5 63 L 442.5 63 L 443.5 62 L 460.5 61 L 461.5 60 L 469.5 60 L 470.5 59 L 477.5 59 L 478.5 58 L 485.5 58 L 486.5 57 L 494 56.5 L 490.5 54 L 484.5 52 L 484.5 51 Z " /><path fill="rgb(235,120,85)" stroke="rgb(235,120,85)" stroke-width="1" opacity="0.996078431372549" d="M 296.5 74 L 302 89.5 L 302 92.5 L 303 93.5 L 303 96.5 L 304 97.5 L 304 100.5 L 305 101.5 L 305 104.5 L 308 113.5 L 308 119.5 L 306.5 121 L 296.5 121 Q 295.5 119 294.5 121 L 285.5 121 L 284.5 120 Q 283.5 122 282.5 120 L 280.5 121 Q 279.5 119 278.5 121 L 277 120.5 L 276.5 119 L 275.5 121 L 273.5 120 L 267.5 122 L 265.5 121 L 264.5 122 L 257.5 122 L 256.5 123 L 250.5 123 L 249.5 124 L 242.5 124 L 241.5 125 L 234.5 125 L 233.5 126 L 226.5 126 L 225.5 127 L 218.5 127 L 217.5 128 L 210.5 128 L 209.5 129 L 202.5 129 L 201.5 130 L 194.5 130 L 193.5 131 L 186.5 131 L 185.5 132 Q 181.3 131.3 179.5 133 L 173.5 130 L 171.5 130 L 168 127.5 L 185.5 119 L 217.5 98 L 235.5 88 L 238.5 89 L 239.5 88 L 246.5 88 L 247.5 87 L 254.5 87 L 255.5 86 L 262.5 86 L 263.5 85 L 270.5 85 L 271.5 84 L 278.5 84 L 279.5 83 L 286.5 83 L 287.5 82 Q 293.7 83.2 296.5 81 L 298 81.5 L 296 75.5 L 296.5 74 Z " /><path fill="rgb(235,120,85)" stroke="rgb(235,120,85)" stroke-width="1" opacity="0.996078431372549" d="M 586.5 132 L 588 132.5 L 588.5 134 L 590 133.5 Q 587.8 134.8 589 139.5 L 589.5 141 L 588 140.5 L 586.5 143 L 587 141.5 Q 588.7 139.7 588 135.5 L 586 132.5 L 586.5 132 Z " /><path fill="rgb(235,120,85)" stroke="rgb(235,120,85)" stroke-width="1" opacity="0.996078431372549" d="M 552.5 139 L 553.5 140 L 558 140.5 Q 560.9 148.6 567.5 153 L 577 156.5 L 579 161.5 L 579 169.5 L 575 180.5 L 567.5 188 L 564.5 190 L 559.5 191 L 557 188.5 L 556 183.5 L 558 183.5 L 558.5 182 Q 559.5 184 560.5 182 L 566 178.5 L 570 171.5 L 571 166.5 L 570 163.5 L 569.5 162 L 568 161.5 L 569 159.5 L 562.5 154 L 556.5 153 L 554 151.5 L 553.5 150 L 552.5 153 L 552.5 139 Z " /><path fill="rgb(247,182,179)" stroke="rgb(247,182,179)" stroke-width="1" opacity="0.996078431372549" d="M 553.5 150 L 554.5 152 L 562.5 154 L 569 159.5 L 568 161.5 L 570 162.5 L 571 164.5 Q 569 165.5 571 166.5 L 570 171.5 L 564.5 180 L 559.5 183 L 558 182.5 L 557.5 184 L 556 182.5 L 556 177.5 L 553.5 170 L 551.5 169 L 550.5 172 L 549.5 170 L 548 169.5 L 547 164.5 L 549 162.5 L 549.5 159 L 550.5 163 L 553 161.5 L 553.5 150 Z " /><path fill="rgb(254,195,0)" stroke="rgb(254,195,0)" stroke-width="1" opacity="0.00784313725490196" d="M 342.5 39 L 343 40.5 Q 342 43 341 41.5 L 342.5 39 Z " /><path fill="rgb(254,195,0)" stroke="rgb(254,195,0)" stroke-width="1" opacity="0.00784313725490196" d="M 280.5 42 L 283 43.5 L 281.5 44 Q 279 43 280.5 42 Z " /><path fill="rgb(254,195,0)" stroke="rgb(254,195,0)" stroke-width="1" opacity="0.00784313725490196" d="M 163.5 119 L 164 121.5 L 163 121.5 L 163.5 119 Z " /><path fill="rgb(254,195,0)" stroke="rgb(254,195,0)" stroke-width="1" opacity="0.00784313725490196" d="M 165.5 122 L 165 123.5 L 164.5 125 L 164 123.5 L 165.5 122 Z " /><path fill="rgb(254,195,0)" stroke="rgb(254,195,0)" stroke-width="1" opacity="0.00784313725490196" d="M 632.5 187 L 633 187.5 L 630.5 190 L 602.5 210 Q 599.5 208.5 602.5 207 L 604.5 208 L 604.5 206 Q 605.5 208 606.5 206 L 608 205.5 L 607.5 204 Q 608.5 206 609.5 204 L 611 203.5 L 610.5 202 Q 611.5 204 612.5 202 L 614 201.5 L 613.5 200 Q 615 202.5 616.5 199 L 632.5 187 Z " /><path fill="rgb(254,195,0)" stroke="rgb(254,195,0)" stroke-width="1" opacity="0.00784313725490196" d="M 599.5 209 Q 602.5 210.5 599.5 212 L 597.5 213 Q 596 212 598.5 211 L 600 210.5 L 599.5 209 Z " /><path fill="rgb(254,195,0)" stroke="rgb(254,195,0)" stroke-width="1" opacity="0.00784313725490196" d="M 595.5 213 Q 597 214 594.5 215 L 586.5 219 Q 585 218 587.5 217 L 595.5 213 Z " /><path fill="rgb(254,195,0)" stroke="rgb(254,195,0)" stroke-width="1" opacity="0.00784313725490196" d="M 130.5 223 Q 132 224 129.5 225 L 124.5 227 L 124.5 226 L 130.5 223 Z " /><path fill="rgb(254,195,0)" stroke="rgb(254,195,0)" stroke-width="1" opacity="0.00784313725490196" d="M 117.5 230 Q 119 231 116.5 232 L 111.5 234 L 111.5 233 L 117.5 230 Z " /><path fill="rgb(254,195,0)" stroke="rgb(254,195,0)" stroke-width="1" opacity="0.00784313725490196" d="M 109.5 234 Q 111 235 108.5 236 L 105.5 237 Q 103 236 104.5 235 L 106.5 236 L 109.5 234 Z " /><path fill="rgb(254,195,0)" stroke="rgb(254,195,0)" stroke-width="1" opacity="0.00784313725490196" d="M 543.5 238 L 545 238.5 L 542.5 240 Q 541 239 543.5 238 Z " /><path fill="rgb(254,195,0)" stroke="rgb(254,195,0)" stroke-width="1" opacity="0.00784313725490196" d="M 518.5 249 L 520 249.5 L 516.5 251 L 516.5 250 L 518.5 249 Z " /><path fill="rgb(254,195,0)" stroke="rgb(254,195,0)" stroke-width="1" opacity="0.00784313725490196" d="M 510.5 251 L 512.5 252 L 514.5 251 L 514.5 252 L 511.5 253 Q 509 252 510.5 251 Z " /><path fill="rgb(254,195,0)" stroke="rgb(254,195,0)" stroke-width="1" opacity="0.00784313725490196" d="M 508.5 253 Q 510 254 507.5 255 L 505 254.5 L 508.5 253 Z " /><path fill="rgb(254,195,0)" stroke="rgb(254,195,0)" stroke-width="1" opacity="0.00784313725490196" d="M 502.5 255 L 504 255.5 L 500.5 257 L 500.5 256 L 502.5 255 Z " /><path fill="rgb(254,195,0)" stroke="rgb(254,195,0)" stroke-width="1" opacity="0.00784313725490196" d="M 310.5 256 L 311.5 257 L 313 256.5 L 308.5 260 L 308 258.5 L 310.5 256 Z " /><path fill="rgb(254,195,0)" stroke="rgb(254,195,0)" stroke-width="1" opacity="0.00784313725490196" d="M 490.5 259 L 493 259.5 L 484.5 262 Q 482 261 483.5 260 L 486.5 261 L 490.5 259 Z " /><path fill="rgb(254,195,0)" stroke="rgb(254,195,0)" stroke-width="1" opacity="0.00784313725490196" d="M 479.5 261 L 483 262.5 L 477.5 264 L 477.5 263 L 480 262.5 L 479.5 261 Z " /><path fill="rgb(254,195,0)" stroke="rgb(254,195,0)" stroke-width="1" opacity="0.00784313725490196" d="M 348.5 264 L 358.5 266 L 359.5 267 L 362.5 267 L 364 268.5 L 362.5 268 L 351.5 266 L 348.5 265 L 348.5 264 Z " /><path fill="rgb(254,195,0)" stroke="rgb(254,195,0)" stroke-width="1" opacity="0.00784313725490196" d="M 473.5 264 L 476 264.5 L 473.5 265 L 473.5 264 Z " /><path fill="rgb(254,195,0)" stroke="rgb(254,195,0)" stroke-width="1" opacity="0.00784313725490196" d="M 471.5 265 L 472 268.5 L 471 268.5 L 471.5 265 Z " /><path fill="rgb(254,195,0)" stroke="rgb(254,195,0)" stroke-width="1" opacity="0.00784313725490196" d="M 473.5 266 L 474 284.5 L 473 284.5 L 473.5 266 Z " /><path fill="rgb(254,195,0)" stroke="rgb(254,195,0)" stroke-width="1" opacity="0.00784313725490196" d="M 368.5 269 L 386 271.5 L 379.5 272 L 378.5 271 L 368.5 270 L 368.5 269 Z " /><path fill="rgb(254,195,0)" stroke="rgb(254,195,0)" stroke-width="1" opacity="0.00784313725490196" d="M 388.5 272 L 398 272.5 L 388.5 273 L 388.5 272 Z " /><path fill="rgb(254,195,0)" stroke="rgb(254,195,0)" stroke-width="1" opacity="0.00784313725490196" d="M 473.5 286 L 474 288.5 L 473 288.5 L 473.5 286 Z " /><path fill="rgb(254,195,0)" stroke="rgb(254,195,0)" stroke-width="1" opacity="0.00784313725490196" d="M 471.5 289 Q 474 290 473 294.5 L 472 294.5 L 472 290.5 L 471.5 289 Z " /><path fill="rgb(254,195,0)" stroke="rgb(254,195,0)" stroke-width="1" opacity="0.00784313725490196" d="M 471.5 296 L 472 298.5 L 471 298.5 L 471.5 296 Z " /><path fill="rgb(218,201,195)" stroke="rgb(218,201,195)" stroke-width="1" opacity="0.996078431372549" d="M 521.5 92 L 522 92.5 L 517.5 97 L 517 96.5 L 521.5 92 Z " /><path fill="rgb(218,201,195)" stroke="rgb(218,201,195)" stroke-width="1" opacity="0.996078431372549" d="M 567.5 123 L 568 123.5 L 565.5 126 L 565 125.5 L 567.5 123 Z " /><path fill="rgb(218,201,195)" stroke="rgb(218,201,195)" stroke-width="1" opacity="0.996078431372549" d="M 590.5 135 L 591 138.5 L 590 138.5 L 590.5 135 Z " /><path fill="rgb(218,201,195)" stroke="rgb(218,201,195)" stroke-width="1" opacity="0.996078431372549" d="M 548.5 144 L 549 146.5 L 548 146.5 L 548.5 144 Z " /><path fill="rgb(218,201,195)" stroke="rgb(218,201,195)" stroke-width="1" opacity="0.996078431372549" d="M 578.5 148 L 581 148.5 L 578.5 149 L 578.5 148 Z " /><path fill="rgb(218,201,195)" stroke="rgb(218,201,195)" stroke-width="1" opacity="0.996078431372549" d="M 549.5 156 L 550 158.5 L 549 158.5 L 549.5 156 Z " /><path fill="rgb(218,201,195)" stroke="rgb(218,201,195)" stroke-width="1" opacity="0.996078431372549" d="M 547.5 160 L 549 160.5 Q 549.5 164 547 164.5 L 547 167.5 L 548.5 170 L 550 170.5 L 551 173.5 L 549.5 173 L 546 170.5 L 544 165.5 L 547.5 160 Z " /><path fill="rgb(218,201,195)" stroke="rgb(218,201,195)" stroke-width="1" opacity="0.996078431372549" d="M 551.5 178 L 552 180.5 L 551 180.5 L 551.5 178 Z " /><path fill="rgb(218,201,195)" stroke="rgb(218,201,195)" stroke-width="1" opacity="0.996078431372549" d="M 136.5 202 L 137 217.5 L 136 217.5 L 136.5 202 Z " /><path fill="rgb(218,201,195)" stroke="rgb(218,201,195)" stroke-width="1" opacity="0.996078431372549" d="M 311.5 227 L 312 229.5 L 311 229.5 L 311.5 227 Z " /><path fill="rgb(254,250,241)" stroke="rgb(254,250,241)" stroke-width="1" opacity="0.996078431372549" d="M 340.5 46 L 343 46.5 L 351 64.5 L 364 84.5 L 394 117.5 L 388 122.5 L 383 129.5 L 383 131.5 L 381 134.5 L 380 137.5 L 380 145.5 L 379 146.5 L 380 147.5 L 380 155.5 Q 381.8 156.3 381 159.5 L 383 165.5 L 387 172.5 L 371 190.5 L 361 204.5 L 353 221.5 L 348 236.5 L 348 239.5 L 346 244.5 L 346 248.5 L 345 249.5 L 345 253.5 L 344 254.5 L 344 259.5 L 342.5 261 L 332.5 259 L 331.5 258 L 328.5 258 L 327.5 257 L 324.5 257 L 312.5 253 L 311 251.5 L 311 230.5 L 312 229.5 L 312 215.5 L 313 214.5 L 313 206.5 L 314 205.5 L 314 199.5 L 315 198.5 L 316 189.5 L 321 174.5 L 321 168.5 L 322 167.5 L 322 150.5 L 321 149.5 L 321 140.5 L 320 139.5 L 320 133.5 L 319 132.5 L 317 118.5 L 312 103.5 L 312 100.5 L 308 91.5 L 307 86.5 L 305 83.5 L 305 81.5 L 295 60.5 L 301.5 57 L 316.5 52 L 319.5 52 L 323.5 50 L 326.5 50 L 335.5 47 L 339.5 47 L 340.5 46 Z " /><path fill="rgb(254,250,241)" stroke="rgb(254,250,241)" stroke-width="1" opacity="0.996078431372549" d="M 536.5 80 L 545.5 86 L 553.5 90 L 555.5 90 L 569 97.5 Q 559.1 110.1 552 125.5 L 552 127.5 L 550 130.5 L 549 137.5 L 548 138.5 L 548 146.5 L 549 147.5 L 549 159.5 L 546 161.5 L 544 166.5 L 548.5 173 L 551 174.5 L 552 185.5 L 556 195.5 L 576 219.5 L 576 221.5 L 552.5 233 L 548.5 234 L 524 211.5 L 517 200.5 L 517 198.5 L 512 187.5 L 509 178.5 L 509 175.5 L 506 168.5 L 506 165.5 L 503 156.5 L 503 152.5 L 502 151.5 L 502 147.5 L 501 146.5 L 501 139.5 L 500 138.5 L 500 124.5 L 501 123.5 L 502 117.5 L 508 107.5 L 529.5 85 L 536.5 80 Z " /><path fill="rgb(254,250,241)" stroke="rgb(254,250,241)" stroke-width="1" opacity="0.996078431372549" d="M 573.5 120 L 582.5 120 L 590 124.5 L 594 132.5 L 594 139.5 L 591 145.5 L 587.5 149 L 583.5 151 Q 579.3 150.3 577.5 152 L 576.5 151 Q 572.3 151.7 570.5 150 L 565 145.5 L 562 138.5 L 562 132.5 L 564 127.5 L 569.5 122 L 573.5 120 Z M 576 126 L 574 127 L 568 134 L 568 141 L 570 145 L 575 148 Q 578 147 579 149 L 586 147 L 589 144 L 591 139 L 591 136 L 589 131 Q 586 124 576 126 Z " /><path fill="rgb(254,250,241)" stroke="rgb(254,250,241)" stroke-width="1" opacity="0.996078431372549" d="M 162.5 129 L 164 130.5 L 164 133.5 L 167 142.5 L 167 146.5 L 169 152.5 L 169 158.5 L 170 159.5 L 170 167.5 L 171 168.5 L 171 192.5 L 170 193.5 L 169 208.5 L 167.5 211 L 161.5 211 L 160.5 212 L 155.5 212 L 154.5 213 L 147.5 214 L 136.5 219 L 137 217.5 L 137 202.5 L 136 201.5 L 136 185.5 L 135 184.5 L 135 175.5 L 134 174.5 L 134 168.5 L 133 167.5 L 133 161.5 L 132 160.5 L 131 151.5 L 130 150.5 L 130 147.5 L 129 146.5 L 129 143.5 L 126 134.5 L 142.5 134 L 143.5 133 L 148.5 133 L 149.5 132 L 157.5 131 L 162.5 129 Z " /><path fill="rgb(254,250,241)" stroke="rgb(254,250,241)" stroke-width="1" opacity="0.996078431372549" d="M 582.5 132 L 585 133.5 Q 585.5 136.5 583.5 137 L 580 134.5 L 582.5 132 Z " /><path fill="rgb(191,168,165)" stroke="rgb(191,168,165)" stroke-width="1" opacity="0.996078431372549" d="M 524.5 89 L 525 89.5 L 522.5 92 L 522 91.5 L 524.5 89 Z " /><path fill="rgb(191,168,165)" stroke="rgb(191,168,165)" stroke-width="1" opacity="0.996078431372549" d="M 516.5 97 L 517 97.5 L 514.5 100 L 514 99.5 L 516.5 97 Z " /><path fill="rgb(191,168,165)" stroke="rgb(191,168,165)" stroke-width="1" opacity="0.996078431372549" d="M 576.5 119 L 580 119.5 L 576.5 120 L 576.5 119 Z " /><path fill="rgb(191,168,165)" stroke="rgb(191,168,165)" stroke-width="1" opacity="0.996078431372549" d="M 548.5 139 L 549 143.5 L 548 143.5 L 548.5 139 Z " /><path fill="rgb(191,168,165)" stroke="rgb(191,168,165)" stroke-width="1" opacity="0.996078431372549" d="M 321.5 152 L 322 154.5 L 321 154.5 L 321.5 152 Z " /><path fill="rgb(191,168,165)" stroke="rgb(191,168,165)" stroke-width="1" opacity="0.996078431372549" d="M 549.5 152 L 550 155.5 L 549 155.5 L 549.5 152 Z " /><path fill="rgb(191,168,165)" stroke="rgb(191,168,165)" stroke-width="1" opacity="0.996078431372549" d="M 552.5 153 L 553 161.5 L 550.5 163 L 550 158.5 L 552.5 153 Z " /><path fill="rgb(191,168,165)" stroke="rgb(191,168,165)" stroke-width="1" opacity="0.996078431372549" d="M 321.5 163 L 322 165.5 L 321 165.5 L 321.5 163 Z " /><path fill="rgb(191,168,165)" stroke="rgb(191,168,165)" stroke-width="1" opacity="0.996078431372549" d="M 551.5 169 L 554 170.5 L 555 175.5 Q 554 178 553 176.5 L 552.5 175 L 551.5 178 L 551.5 169 Z " /><path fill="rgb(191,168,165)" stroke="rgb(191,168,165)" stroke-width="1" opacity="0.996078431372549" d="M 555.5 177 L 556 179.5 L 555 179.5 L 555.5 177 Z " /><path fill="rgb(191,168,165)" stroke="rgb(191,168,165)" stroke-width="1" opacity="0.996078431372549" d="M 311.5 224 L 312 226.5 L 311 226.5 L 311.5 224 Z " /><path fill="rgb(172,100,34)" stroke="rgb(172,100,34)" stroke-width="1" opacity="0.984313725490196" d="M 400.5 6 L 411 6.5 L 400.5 7 L 400.5 6 Z " /><path fill="rgb(172,100,34)" stroke="rgb(172,100,34)" stroke-width="1" opacity="0.984313725490196" d="M 192.5 72 L 193 72.5 L 188.5 77 L 188 76.5 L 192.5 72 Z " /><path fill="rgb(172,100,34)" stroke="rgb(172,100,34)" stroke-width="1" opacity="0.984313725490196" d="M 576.5 126 L 579.5 127 L 581.5 126 L 588 130.5 L 590 134.5 L 590 139.5 L 589 139.5 L 589 134.5 L 585.5 129 L 583.5 131 L 583 130.5 L 582.5 129 L 575.5 131 L 575.5 128 L 577 127.5 L 576.5 126 Z " /><path fill="rgb(172,100,34)" stroke="rgb(172,100,34)" stroke-width="1" opacity="0.984313725490196" d="M 587.5 136 L 588 139.5 L 587 139.5 L 587.5 136 Z " /><path fill="rgb(172,100,34)" stroke="rgb(172,100,34)" stroke-width="1" opacity="0.984313725490196" d="M 586.5 141 L 587.5 142 L 589 141.5 L 584.5 147 Q 583 144.5 581.5 148 L 576 145.5 L 581.5 145 L 583 145.5 L 584.5 143 L 586.5 144 L 587 142.5 L 586.5 141 Z " /><path fill="rgb(172,100,34)" stroke="rgb(172,100,34)" stroke-width="1" opacity="0.984313725490196" d="M 312.5 147 L 313 155.5 L 312 155.5 L 312.5 147 Z " /><path fill="rgb(172,100,34)" stroke="rgb(172,100,34)" stroke-width="1" opacity="0.984313725490196" d="M 593.5 148 L 594 148.5 L 590.5 152 L 590 151.5 L 593.5 148 Z " /><path fill="rgb(172,100,34)" stroke="rgb(172,100,34)" stroke-width="1" opacity="0.984313725490196" d="M 576.5 155 L 582 155.5 L 576.5 156 L 576.5 155 Z " /><path fill="rgb(172,100,34)" stroke="rgb(172,100,34)" stroke-width="1" opacity="0.984313725490196" d="M 630.5 172 L 630 173.5 L 631.5 175 L 633 175.5 L 627.5 178 L 624 176.5 L 626 175.5 L 625.5 174 L 627.5 174 L 630.5 172 Z " /><path fill="rgb(172,100,34)" stroke="rgb(172,100,34)" stroke-width="1" opacity="0.984313725490196" d="M 40.5 178 L 41 181.5 L 40 181.5 L 40.5 178 Z " /><path fill="rgb(172,100,34)" stroke="rgb(172,100,34)" stroke-width="1" opacity="0.984313725490196" d="M 605.5 179 L 606.5 180 L 616 180.5 L 605.5 181 L 605.5 179 Z " /><path fill="rgb(172,100,34)" stroke="rgb(172,100,34)" stroke-width="1" opacity="0.984313725490196" d="M 40.5 183 L 41 187.5 L 40 187.5 L 40.5 183 Z " /><path fill="rgb(172,100,34)" stroke="rgb(172,100,34)" stroke-width="1" opacity="0.984313725490196" d="M 386.5 183 L 387 183.5 L 383.5 187 L 383 186.5 L 386.5 183 Z " /><path fill="rgb(172,100,34)" stroke="rgb(172,100,34)" stroke-width="1" opacity="0.984313725490196" d="M 451.5 185 L 453 185.5 L 452.5 187 Q 450 186 451.5 185 Z " /><path fill="rgb(172,100,34)" stroke="rgb(172,100,34)" stroke-width="1" opacity="0.984313725490196" d="M 129.5 189 L 130 191.5 L 129 191.5 L 129.5 189 Z " /><path fill="rgb(172,100,34)" stroke="rgb(172,100,34)" stroke-width="1" opacity="0.984313725490196" d="M 304.5 197 L 305 211.5 L 304 211.5 L 304.5 197 Z " /><path fill="rgb(172,100,34)" stroke="rgb(172,100,34)" stroke-width="1" opacity="0.984313725490196" d="M 459.5 197 L 464 197.5 L 459.5 198 L 459.5 197 Z " /><path fill="rgb(172,100,34)" stroke="rgb(172,100,34)" stroke-width="1" opacity="0.984313725490196" d="M 130.5 199 L 131 201.5 L 130 201.5 L 130.5 199 Z " /><path fill="rgb(172,100,34)" stroke="rgb(172,100,34)" stroke-width="1" opacity="0.984313725490196" d="M 453.5 205 L 459 205.5 L 453.5 206 L 453.5 205 Z " /><path fill="rgb(172,100,34)" stroke="rgb(172,100,34)" stroke-width="1" opacity="0.984313725490196" d="M 515.5 210 L 520 214.5 L 519.5 215 L 515 210.5 L 515.5 210 Z " /><path fill="rgb(172,100,34)" stroke="rgb(172,100,34)" stroke-width="1" opacity="0.984313725490196" d="M 131.5 212 L 132 216.5 L 131 216.5 L 131.5 212 Z " /><path fill="rgb(172,100,34)" stroke="rgb(172,100,34)" stroke-width="1" opacity="0.984313725490196" d="M 305.5 228 L 306 232.5 L 305 232.5 L 305.5 228 Z " /><path fill="rgb(172,100,34)" stroke="rgb(172,100,34)" stroke-width="1" opacity="0.984313725490196" d="M 348.5 253 L 349 255.5 L 348 255.5 L 348.5 253 Z " /><path fill="rgb(172,100,34)" stroke="rgb(172,100,34)" stroke-width="1" opacity="0.984313725490196" d="M 256.5 274 L 259 274.5 L 256.5 275 L 256.5 274 Z " /><path fill="rgb(172,100,34)" stroke="rgb(172,100,34)" stroke-width="1" opacity="0.984313725490196" d="M 238.5 275 L 242 275.5 L 238.5 276 L 238.5 275 Z " /><path fill="rgb(172,100,34)" stroke="rgb(172,100,34)" stroke-width="1" opacity="0.984313725490196" d="M 243.5 275 L 247 275.5 L 243.5 276 L 243.5 275 Z " /><path fill="rgb(254,251,244)" stroke="rgb(254,251,244)" stroke-width="1" opacity="0.15294117647058825" d="M 337.5 44 L 340 44.5 L 337 45.5 L 340 46.5 L 337.5 47 Q 336.5 45 332.5 46 L 332.5 47 L 335 47.5 L 332.5 48 Q 331.8 46.2 328.5 47 L 328.5 48 L 331 48.5 L 328.5 49 Q 327.8 47.3 324.5 48 L 324.5 49 L 327 49.5 L 324.5 50 L 321 48.5 L 328.5 46 L 331.5 46 L 332.5 45 L 336.5 45 L 337.5 44 Z " /><path fill="rgb(254,251,244)" stroke="rgb(254,251,244)" stroke-width="1" opacity="0.15294117647058825" d="M 317.5 49 L 323 50.5 L 317.5 52 L 314.5 51 L 314.5 52 L 316 52.5 L 314.5 53 L 311 51.5 L 317.5 49 Z M 318 50 L 318 51 L 320 51 L 318 50 Z " /><path fill="rgb(254,251,244)" stroke="rgb(254,251,244)" stroke-width="1" opacity="0.15294117647058825" d="M 538.5 79 L 541 80.5 L 539.5 80 Q 537.1 79.9 538.5 79 Z " /><path fill="rgb(254,251,244)" stroke="rgb(254,251,244)" stroke-width="1" opacity="0.15294117647058825" d="M 551.5 86 L 556 88.5 L 554.5 88 L 551.5 87 L 551.5 86 Z " /><path fill="rgb(254,251,244)" stroke="rgb(254,251,244)" stroke-width="1" opacity="0.15294117647058825" d="M 557.5 89 L 562 91.5 L 560.5 91 L 557.5 90 L 557.5 89 Z " /><path fill="rgb(254,251,244)" stroke="rgb(254,251,244)" stroke-width="1" opacity="0.15294117647058825" d="M 563.5 92 L 566 93.5 L 564.5 93 Q 562.1 92.9 563.5 92 Z " /><path fill="rgb(254,251,244)" stroke="rgb(254,251,244)" stroke-width="1" opacity="0.15294117647058825" d="M 159.5 127 L 163 127.5 L 159 128.5 L 162 129.5 L 159.5 130 Q 158.8 128.3 155.5 129 L 155.5 130 L 158 130.5 L 155.5 131 Q 154.5 129 150.5 130 L 150.5 131 L 153 131.5 L 150.5 132 Q 149.5 130 145.5 131 L 145.5 132 L 149 132.5 L 145.5 133 L 144.5 132 L 138 131.5 L 144.5 131 L 150.5 129 L 154.5 129 L 159.5 127 Z " /><path fill="rgb(254,251,244)" stroke="rgb(254,251,244)" stroke-width="1" opacity="0.15294117647058825" d="M 131.5 132 L 136.5 132 L 137.5 133 L 143 133.5 L 137.5 134 Q 136.2 131.7 131.5 133 L 131.5 132 Z " /><path fill="rgb(254,251,244)" stroke="rgb(254,251,244)" stroke-width="1" opacity="0.15294117647058825" d="M 161.5 211 L 167 211.5 L 161.5 212 L 161.5 211 Z " /><path fill="rgb(254,251,244)" stroke="rgb(254,251,244)" stroke-width="1" opacity="0.15294117647058825" d="M 155.5 212 L 164 213.5 L 159.5 214 L 158.5 215 L 154.5 215 L 154.5 214 L 159 213.5 L 155.5 213 L 155.5 212 Z " /><path fill="rgb(254,251,244)" stroke="rgb(254,251,244)" stroke-width="1" opacity="0.15294117647058825" d="M 147.5 214 L 153 215.5 L 140.5 220 L 140.5 219 L 142 218.5 L 140 217.5 L 143.5 216 L 146.5 217 L 146.5 216 L 145 215.5 L 147.5 214 Z M 148 215 L 148 216 L 150 216 L 148 215 Z " /><path fill="rgb(254,251,244)" stroke="rgb(254,251,244)" stroke-width="1" opacity="0.15294117647058825" d="M 569.5 226 Q 571 227 568.5 228 L 567 227.5 L 569.5 226 Z " /><path fill="rgb(254,251,244)" stroke="rgb(254,251,244)" stroke-width="1" opacity="0.15294117647058825" d="M 565.5 228 Q 567 229 564.5 230 L 561.5 231 L 561.5 230 L 565.5 228 Z " /><path fill="rgb(254,251,244)" stroke="rgb(254,251,244)" stroke-width="1" opacity="0.15294117647058825" d="M 556.5 232 Q 558 233 555.5 234 L 551.5 236 Q 550 235 552.5 234 L 556.5 232 Z " /><path fill="rgb(254,251,244)" stroke="rgb(254,251,244)" stroke-width="1" opacity="0.15294117647058825" d="M 319.5 255 L 321 255.5 L 319 256.5 L 321.5 257 L 323.5 256 L 323.5 257 L 322 257.5 L 324.5 258 L 327.5 257 L 327.5 258 L 325 258.5 L 328.5 259 L 331.5 258 L 331.5 259 L 329 259.5 L 332.5 260 L 335.5 259 L 335.5 260 L 333 260.5 L 336.5 261 Q 337.3 259.3 340.5 260 L 340.5 261 L 337 261.5 L 341.5 262 L 343 261.5 L 342 262.5 L 342.5 264 L 341.5 263 L 337.5 263 L 336.5 262 L 325.5 260 L 316 256.5 L 319.5 255 Z " /><path fill="rgb(64,23,19)" stroke="rgb(64,23,19)" stroke-width="1" opacity="0.6235294117647059" d="M 396.5 0 L 399 0.5 L 396.5 1 L 396.5 0 Z " /><path fill="rgb(64,23,19)" stroke="rgb(64,23,19)" stroke-width="1" opacity="0.6235294117647059" d="M 414.5 0 L 417 0.5 L 414.5 1 L 414.5 0 Z " /><path fill="rgb(64,23,19)" stroke="rgb(64,23,19)" stroke-width="1" opacity="0.6235294117647059" d="M 447.5 13 L 451 16.5 L 450.5 17 L 447 13.5 L 447.5 13 Z " /><path fill="rgb(64,23,19)" stroke="rgb(64,23,19)" stroke-width="1" opacity="0.6235294117647059" d="M 363.5 14 L 364 14.5 L 359.5 19 L 359 18.5 L 363.5 14 Z " /><path fill="rgb(64,23,19)" stroke="rgb(64,23,19)" stroke-width="1" opacity="0.6235294117647059" d="M 210.5 31 L 228 31.5 L 210.5 32 L 210.5 31 Z " /><path fill="rgb(64,23,19)" stroke="rgb(64,23,19)" stroke-width="1" opacity="0.6235294117647059" d="M 203.5 32 L 206 32.5 L 203.5 33 L 203.5 32 Z " /><path fill="rgb(64,23,19)" stroke="rgb(64,23,19)" stroke-width="1" opacity="0.6235294117647059" d="M 233.5 32 L 237 32.5 L 233.5 33 L 233.5 32 Z " /><path fill="rgb(64,23,19)" stroke="rgb(64,23,19)" stroke-width="1" opacity="0.6235294117647059" d="M 240.5 33 L 244 33.5 L 240.5 34 L 240.5 33 Z " /><path fill="rgb(64,23,19)" stroke="rgb(64,23,19)" stroke-width="1" opacity="0.6235294117647059" d="M 246.5 34 L 249 34.5 L 246.5 35 L 246.5 34 Z " /><path fill="rgb(64,23,19)" stroke="rgb(64,23,19)" stroke-width="1" opacity="0.6235294117647059" d="M 165.5 76 L 166 79.5 L 165 79.5 L 165.5 76 Z " /><path fill="rgb(64,23,19)" stroke="rgb(64,23,19)" stroke-width="1" opacity="0.6235294117647059" d="M 164.5 86 L 165 92.5 L 164 92.5 L 164.5 86 Z " /><path fill="rgb(64,23,19)" stroke="rgb(64,23,19)" stroke-width="1" opacity="0.6235294117647059" d="M 164.5 111 L 165 114.5 L 164 114.5 L 164.5 111 Z " /><path fill="rgb(64,23,19)" stroke="rgb(64,23,19)" stroke-width="1" opacity="0.6235294117647059" d="M 67.5 126 L 80 126.5 L 67.5 127 L 67.5 126 Z " /><path fill="rgb(64,23,19)" stroke="rgb(64,23,19)" stroke-width="1" opacity="0.6235294117647059" d="M 57.5 127 L 60 127.5 L 57.5 128 L 57.5 127 Z " /><path fill="rgb(64,23,19)" stroke="rgb(64,23,19)" stroke-width="1" opacity="0.6235294117647059" d="M 51.5 128 L 54 128.5 L 51.5 129 L 51.5 128 Z " /><path fill="rgb(64,23,19)" stroke="rgb(64,23,19)" stroke-width="1" opacity="0.6235294117647059" d="M 0.5 173 L 1 176.5 L 0 176.5 L 0.5 173 Z " /><path fill="rgb(64,23,19)" stroke="rgb(64,23,19)" stroke-width="1" opacity="0.6235294117647059" d="M 0.5 189 L 1 192.5 L 0 192.5 L 0.5 189 Z " /><path fill="rgb(64,23,19)" stroke="rgb(64,23,19)" stroke-width="1" opacity="0.6235294117647059" d="M 20.5 231 L 23 233.5 L 22.5 234 L 20 231.5 L 20.5 231 Z " /><path fill="rgb(64,23,19)" stroke="rgb(64,23,19)" stroke-width="1" opacity="0.6235294117647059" d="M 158.5 239 L 159 241.5 L 158 241.5 L 158.5 239 Z " /><path fill="rgb(64,23,19)" stroke="rgb(64,23,19)" stroke-width="1" opacity="0.6235294117647059" d="M 47.5 243 L 50 243.5 L 47.5 244 L 47.5 243 Z " /><path fill="rgb(64,23,19)" stroke="rgb(64,23,19)" stroke-width="1" opacity="0.6235294117647059" d="M 72.5 243 L 75 243.5 L 72.5 244 L 72.5 243 Z " /><path fill="rgb(64,23,19)" stroke="rgb(64,23,19)" stroke-width="1" opacity="0.6235294117647059" d="M 57.5 244 L 65 244.5 L 57.5 245 L 57.5 244 Z " /><path fill="rgb(64,23,19)" stroke="rgb(64,23,19)" stroke-width="1" opacity="0.6235294117647059" d="M 157.5 248 L 158 250.5 L 157 250.5 L 157.5 248 Z " /><path fill="rgb(64,23,19)" stroke="rgb(64,23,19)" stroke-width="1" opacity="0.6235294117647059" d="M 170.5 276 L 173 278.5 L 172.5 279 L 170 276.5 L 170.5 276 Z " /><path fill="rgb(64,23,19)" stroke="rgb(64,23,19)" stroke-width="1" opacity="0.6235294117647059" d="M 240.5 289 L 243 289.5 L 240.5 290 L 240.5 289 Z " /><path fill="rgb(64,23,19)" stroke="rgb(64,23,19)" stroke-width="1" opacity="0.6235294117647059" d="M 202.5 290 L 205 290.5 L 202.5 291 L 202.5 290 Z " /><path fill="rgb(64,23,19)" stroke="rgb(64,23,19)" stroke-width="1" opacity="0.6235294117647059" d="M 209.5 291 L 215 291.5 L 209.5 292 L 209.5 291 Z " /><path fill="rgb(64,23,19)" stroke="rgb(64,23,19)" stroke-width="1" opacity="0.6235294117647059" d="M 224.5 291 L 230 291.5 L 224.5 292 L 224.5 291 Z " /><path fill="rgb(64,23,19)" stroke="rgb(64,23,19)" stroke-width="1" opacity="0.6235294117647059" d="M 394.5 291 L 395 294.5 L 394 294.5 L 394.5 291 Z " /><path fill="rgb(64,23,19)" stroke="rgb(64,23,19)" stroke-width="1" opacity="0.6235294117647059" d="M 394.5 300 L 395 304.5 L 394 304.5 L 394.5 300 Z " /><path fill="rgb(64,23,19)" stroke="rgb(64,23,19)" stroke-width="1" opacity="0.6235294117647059" d="M 458.5 317 L 459 317.5 L 455.5 321 L 455 320.5 L 458.5 317 Z " /><path fill="rgb(64,23,19)" stroke="rgb(64,23,19)" stroke-width="1" opacity="0.6235294117647059" d="M 419.5 333 L 422 333.5 L 419.5 334 L 419.5 333 Z " /><path fill="rgb(64,23,19)" stroke="rgb(64,23,19)" stroke-width="1" opacity="0.6235294117647059" d="M 429.5 333 L 432 333.5 L 429.5 334 L 429.5 333 Z " /><path fill="rgb(0,0,0)" stroke="rgb(0,0,0)" stroke-width="1" opacity="0" d="M 0.5 0 L 384.5 0 L 385.5 1 Q 386.7 -1.3 391.5 0 L 391.5 1 L 381.5 3 L 369.5 9 L 355.5 21 L 354 20.5 L 355 22.5 L 351.5 26 Q 350.3 23.7 349 26.5 L 349.5 28 L 351 27.5 L 349.5 29 Q 348.3 26.8 347 29.5 L 347.5 31 L 349 30.5 L 347.5 32 L 346 31.5 L 347 33.5 L 345.5 33 L 344 34.5 L 342 40.5 L 343 40.5 L 343.5 39 L 344 40.5 L 341.5 44 Q 340.5 42 339.5 44 L 337 44.5 L 342 45.5 L 337.5 46 L 336.5 47 L 332.5 47 L 323.5 50 L 320.5 50 L 300.5 57 L 298 54.5 Q 300.3 53.2 297.5 52 L 296 52.5 L 296.5 54 L 291.5 50 L 276.5 42 L 274.5 42 L 269.5 39 L 263.5 38 L 259.5 36 L 256.5 36 L 251.5 34 L 246.5 34 L 245.5 33 L 240.5 33 L 239.5 32 L 233.5 32 L 232.5 31 L 206.5 31 L 205.5 32 L 201.5 32 L 200.5 33 L 194.5 34 L 186.5 38 L 175 48.5 L 168 61.5 L 167 67.5 L 166 68.5 L 166 72.5 L 165 73.5 L 165 79.5 L 164 80.5 L 164 92.5 L 163 93.5 L 163 110.5 L 164 111.5 L 165 122.5 L 167 127.5 L 163.5 129 L 155.5 130 L 154.5 131 L 145.5 132 L 144.5 133 L 127.5 134 L 125.5 133 Q 124.5 135 123.5 133 L 117.5 133 L 116.5 132 L 113.5 132 L 104.5 129 L 100.5 129 L 99.5 128 L 95.5 128 L 94.5 127 L 84.5 127 L 83.5 126 L 61.5 126 L 60.5 127 L 49.5 128 L 48.5 129 L 41.5 130 L 35.5 133 L 33.5 133 Q 18.6 139.6 9 151.5 L 4 159.5 L 0.5 171 L 0 166.5 Q 2 165.5 0 164.5 L 0.5 0 Z M 215 29 L 215 30 L 224 30 L 215 29 Z M 333 45 L 333 46 L 337 46 L 333 45 Z M 329 46 L 329 47 L 332 47 L 329 46 Z M 325 47 L 325 48 L 328 48 L 325 47 Z M 321 48 L 321 49 L 324 49 L 321 48 Z M 318 49 L 318 50 L 320 50 L 318 49 Z M 315 50 L 315 51 L 317 51 L 315 50 Z M 311 51 L 311 52 L 314 52 L 311 51 Z M 308 52 L 308 53 L 310 53 L 308 52 Z M 305 53 L 305 54 L 307 54 L 305 53 Z M 163 83 L 162 86 L 163 86 L 163 83 Z M 162 99 L 161 107 L 162 107 L 162 99 Z M 163 114 L 162 118 L 163 118 L 163 114 Z M 164 118 L 163 122 L 164 122 L 164 118 Z M 165 123 L 164 126 L 165 126 L 165 123 Z M 62 124 L 62 125 L 65 125 L 62 124 Z M 84 124 L 84 125 L 87 125 L 84 124 Z M 89 125 L 89 126 L 95 126 L 89 125 Z M 96 126 L 96 127 L 100 127 L 96 126 Z M 102 127 L 102 128 L 105 128 L 102 127 Z M 160 127 L 160 128 L 163 128 L 160 127 Z M 106 128 L 106 129 L 109 129 L 106 128 Z M 156 128 L 156 129 L 159 129 L 156 128 Z M 110 129 L 110 130 L 113 130 L 110 129 Z M 151 129 L 151 130 L 155 130 L 151 129 Z M 114 130 L 114 131 L 117 131 L 114 130 Z M 146 130 L 146 131 L 150 131 L 146 130 Z M 118 131 L 118 132 L 122 132 L 118 131 Z M 138 131 L 138 132 L 145 132 L 138 131 Z M 129 132 L 129 133 L 137 133 L 129 132 Z " /><path fill="rgb(0,0,0)" stroke="rgb(0,0,0)" stroke-width="1" opacity="0" d="M 421.5 0 L 427.5 0 L 428.5 1 L 429.5 0 L 639.5 0 L 640 155.5 L 639 157.5 Q 641.3 158.7 640 163.5 L 639 164.5 L 638.5 169 L 638 164.5 Q 640.2 163.3 639 158.5 L 637 155.5 L 639 155.5 L 636.5 151 L 635.5 152 L 633 149.5 L 635 149.5 L 633.5 147 L 632.5 148 L 619.5 135 L 613 129.5 Q 615.3 128.3 612.5 127 L 611 127.5 L 611.5 129 L 590 110.5 Q 592.3 109.3 589.5 108 L 588 108.5 L 588.5 110 L 576.5 101 L 566.5 95 L 541.5 83 L 536.5 79 L 528.5 75 L 520.5 69 L 500.5 57 L 479.5 47 L 465.5 43 L 464 41.5 Q 465.8 40.8 465 37.5 L 464 37.5 L 463.5 40 L 461 32.5 L 462 29.5 L 458.5 24 L 457 24.5 L 458 22.5 L 456.5 23 L 455 21.5 L 455.5 20 L 444.5 10 L 438.5 6 L 425.5 1 L 421.5 1 L 421.5 0 Z M 464 34 L 463 37 L 464 37 L 464 34 Z M 466 41 L 466 42 L 468 42 L 466 41 Z M 475 44 L 475 45 L 477 45 L 475 44 Z M 478 45 L 478 46 L 480 46 L 478 45 Z M 485 48 L 485 49 L 487 49 L 485 48 Z M 605 121 Q 603 122 606 123 L 607 123 L 605 121 Z " /><path fill="rgb(0,0,0)" stroke="rgb(0,0,0)" stroke-width="1" opacity="0" d="M 638.5 181 L 640 182.5 L 640 333.5 L 439.5 334 Q 438.5 332 437.5 334 L 434 333.5 L 445.5 329 L 464 313.5 Q 461.8 312.3 464.5 311 L 466 311.5 L 465 309.5 L 469 302.5 L 469 299.5 L 471 295.5 L 471 290.5 L 472 289.5 L 472 265.5 Q 469.8 264.3 472.5 263 L 483.5 261 L 510.5 252 L 518.5 248 L 520.5 248 L 545.5 236 L 547.5 236 L 560.5 229 L 562.5 229 L 575.5 222 L 577.5 222 L 579.5 220 L 585.5 218 L 600.5 209 L 602.5 210 L 602 208.5 L 603.5 207 Q 612.6 202.6 619.5 196 L 619.5 198 L 622 196.5 L 621 195.5 L 624.5 192 L 628.5 189 L 628.5 191 L 631 189.5 L 630 188.5 L 633.5 185 L 638.5 181 Z M 533 243 L 533 244 L 535 244 L 533 243 Z M 519 249 L 519 250 L 521 250 L 519 249 Z M 514 251 L 514 252 L 516 252 L 514 251 Z M 509 253 L 509 254 L 511 254 L 509 253 Z M 506 254 L 506 255 L 508 255 L 506 254 Z M 503 255 L 503 256 L 505 256 L 503 255 Z M 491 259 L 491 260 L 493 260 L 491 259 Z M 488 260 L 488 261 L 490 261 L 488 260 Z M 485 261 L 485 262 L 487 262 L 485 261 Z M 481 262 L 481 263 L 484 263 L 481 262 Z M 478 263 L 478 264 L 480 264 L 478 263 Z M 474 264 L 474 290 L 474 266 L 476 265 L 474 264 Z M 473 290 L 472 296 L 473 296 L 473 290 Z M 472 296 L 471 299 L 472 299 L 472 296 Z " /><path fill="rgb(0,0,0)" stroke="rgb(0,0,0)" stroke-width="1" opacity="0" d="M 0.5 196 L 2 204.5 L 8 218.5 Q 12.9 227.1 20.5 233 L 34.5 241 L 40.5 243 L 43.5 243 L 44.5 244 Q 49.3 242.8 50.5 245 L 71.5 245 L 72.5 244 L 83.5 243 L 84.5 242 L 91.5 241 L 94.5 239 L 99.5 238 L 120.5 228 L 122.5 226 L 134.5 220 L 136.5 220 L 144.5 216 L 153.5 213 L 166.5 212 L 166.5 213 L 159 213.5 L 163.5 214 L 164.5 215 L 166 214.5 Q 164.3 215.3 165 218.5 L 163 220.5 L 160 229.5 L 160 232.5 L 158 236.5 Q 159.3 241.3 157 242.5 L 157 256.5 L 161 267.5 L 170.5 278 L 186.5 287 L 195.5 290 L 204.5 291 L 205.5 292 L 215.5 292 L 216.5 293 L 222.5 293 L 223.5 292 L 233.5 292 L 234.5 291 L 244.5 290 L 245.5 289 L 252.5 288 L 264.5 284 L 267.5 282 L 274.5 280 L 291.5 271 L 307.5 259 L 307.5 261 L 310 259.5 L 309 258.5 L 313.5 254 L 325.5 258 L 328.5 258 L 337.5 261 L 341.5 261 L 342.5 262 L 346.5 262 L 347.5 263 L 350.5 263 L 351.5 264 L 354.5 264 L 363.5 267 L 367.5 267 L 373.5 269 L 378.5 269 L 379.5 270 L 386.5 270 L 387.5 271 L 400 271.5 L 387 272.5 L 399 273.5 L 394 287.5 L 394 295.5 L 393 298.5 L 394 299.5 L 394 307.5 L 396 313.5 Q 399.8 323.2 407.5 329 L 417 333.5 L 413.5 334 Q 412.5 332 411.5 334 L 0 333.5 L 0.5 196 Z M 155 214 L 155 215 L 159 215 L 155 214 Z M 151 215 L 151 216 L 153 216 L 151 215 Z M 164 215 L 163 218 L 164 218 L 164 215 Z M 148 216 L 148 217 L 150 217 L 148 216 Z M 145 217 L 145 218 L 147 218 L 145 217 Z M 135 221 L 135 222 L 137 222 L 135 221 Z M 76 245 L 76 246 L 78 246 L 76 245 Z M 66 246 L 66 247 L 68 247 L 66 246 Z M 316 256 L 316 257 L 319 257 L 316 256 Z M 320 257 L 320 258 L 322 258 L 320 257 Z M 323 258 L 323 259 L 325 259 L 323 258 Z M 326 259 L 326 260 L 329 260 L 326 259 Z M 330 260 L 330 261 L 333 261 L 330 260 Z M 334 261 L 334 262 L 337 262 L 334 261 Z M 338 262 L 338 263 L 342 263 L 338 262 Z M 343 263 L 343 264 L 346 264 L 343 263 Z M 348 264 L 348 265 L 351 265 L 348 264 Z M 352 265 L 352 266 L 355 266 L 352 265 Z M 356 266 L 356 267 L 359 267 L 356 266 Z M 360 267 L 360 268 L 363 268 L 360 267 Z M 364 268 L 364 269 L 367 269 L 364 268 Z M 368 269 L 368 270 L 373 270 L 368 269 Z M 374 270 L 374 271 L 379 271 L 374 270 Z M 380 271 L 380 272 L 387 272 L 380 271 Z " /><path fill="rgb(245,120,89)" stroke="rgb(245,120,89)" stroke-width="1" opacity="0.5019607843137255" d="M 501.5 58 L 505 60.5 L 503.5 60 Q 499.7 59.3 501.5 58 Z " /><path fill="rgb(251,123,36)" stroke="rgb(251,123,36)" stroke-width="1" opacity="0.3607843137254902" d="M 277.5 43 L 286 47.5 L 284.5 47 L 277.5 44 L 277.5 43 Z " /><path fill="rgb(251,123,36)" stroke="rgb(251,123,36)" stroke-width="1" opacity="0.3607843137254902" d="M 586.5 108 L 589 110.5 L 588.5 111 L 586 108.5 L 586.5 108 Z " /><path fill="rgb(251,123,36)" stroke="rgb(251,123,36)" stroke-width="1" opacity="0.3607843137254902" d="M 591.5 112 L 594 114.5 L 593.5 115 L 591 112.5 L 591.5 112 Z " /><path fill="rgb(251,123,36)" stroke="rgb(251,123,36)" stroke-width="1" opacity="0.3607843137254902" d="M 595.5 115 L 599 118.5 L 598.5 119 L 595 115.5 L 595.5 115 Z " /><path fill="rgb(251,123,36)" stroke="rgb(251,123,36)" stroke-width="1" opacity="0.3607843137254902" d="M 165.5 119 L 166 121.5 L 165 121.5 L 165.5 119 Z " /><path fill="rgb(251,123,36)" stroke="rgb(251,123,36)" stroke-width="1" opacity="0.3607843137254902" d="M 601.5 120 L 606 124.5 L 605.5 125 L 601 120.5 L 601.5 120 Z " /><path fill="rgb(251,123,36)" stroke="rgb(251,123,36)" stroke-width="1" opacity="0.3607843137254902" d="M 608.5 126 L 612 129.5 L 611.5 130 L 608 126.5 L 608.5 126 Z " /><path fill="rgb(251,123,36)" stroke="rgb(251,123,36)" stroke-width="1" opacity="0.3607843137254902" d="M 89.5 127 L 94 127.5 L 89.5 128 L 89.5 127 Z " /><path fill="rgb(251,123,36)" stroke="rgb(251,123,36)" stroke-width="1" opacity="0.3607843137254902" d="M 96.5 128 L 100 128.5 L 96.5 129 L 96.5 128 Z " /><path fill="rgb(251,123,36)" stroke="rgb(251,123,36)" stroke-width="1" opacity="0.3607843137254902" d="M 101.5 129 L 104 129.5 L 101.5 130 L 101.5 129 Z " /><path fill="rgb(251,123,36)" stroke="rgb(251,123,36)" stroke-width="1" opacity="0.3607843137254902" d="M 614.5 131 L 619 135.5 L 618.5 136 L 614 131.5 L 614.5 131 Z " /><path fill="rgb(251,123,36)" stroke="rgb(251,123,36)" stroke-width="1" opacity="0.3607843137254902" d="M 118.5 133 L 121 133.5 L 118.5 134 L 118.5 133 Z " /><path fill="rgb(251,123,36)" stroke="rgb(251,123,36)" stroke-width="1" opacity="0.3607843137254902" d="M 622.5 138 L 631 146.5 L 630.5 147 L 622 138.5 L 622.5 138 Z " /><path fill="rgb(251,123,36)" stroke="rgb(251,123,36)" stroke-width="1" opacity="0.3607843137254902" d="M 637.5 156 Q 639.8 157.8 639 162.5 L 638 162.5 L 638 158.5 Q 636.3 157.8 637.5 156 Z " /><path fill="rgb(251,123,36)" stroke="rgb(251,123,36)" stroke-width="1" opacity="0.3607843137254902" d="M 637.5 164 L 638 168.5 L 637 168.5 L 637.5 164 Z " /><path fill="rgb(251,123,36)" stroke="rgb(251,123,36)" stroke-width="1" opacity="0.3607843137254902" d="M 637.5 181 L 638 181.5 L 635.5 184 L 635 183.5 L 637.5 181 Z " /><path fill="rgb(251,123,36)" stroke="rgb(251,123,36)" stroke-width="1" opacity="0.3607843137254902" d="M 633.5 184 L 634 184.5 L 631.5 187 L 631 186.5 L 633.5 184 Z " /><path fill="rgb(251,123,36)" stroke="rgb(251,123,36)" stroke-width="1" opacity="0.3607843137254902" d="M 628.5 188 L 629 188.5 L 626.5 191 L 626 190.5 L 628.5 188 Z " /><path fill="rgb(251,123,36)" stroke="rgb(251,123,36)" stroke-width="1" opacity="0.3607843137254902" d="M 130.5 221 Q 132 222 129.5 223 L 128 222.5 L 130.5 221 Z " /><path fill="rgb(251,123,36)" stroke="rgb(251,123,36)" stroke-width="1" opacity="0.3607843137254902" d="M 126.5 223 Q 128 224 125.5 225 L 123.5 226 Q 122 225 124.5 224 L 126.5 223 Z " /><path fill="rgb(251,123,36)" stroke="rgb(251,123,36)" stroke-width="1" opacity="0.3607843137254902" d="M 541.5 237 L 543 237.5 L 537.5 240 L 537.5 239 L 541.5 237 Z " /><path fill="rgb(251,123,36)" stroke="rgb(251,123,36)" stroke-width="1" opacity="0.3607843137254902" d="M 523.5 245 L 525 245.5 L 521.5 247 L 521.5 246 L 523.5 245 Z " /><path fill="rgb(251,123,36)" stroke="rgb(251,123,36)" stroke-width="1" opacity="0.3607843137254902" d="M 364.5 266 L 367 266.5 L 364.5 267 L 364.5 266 Z " /><path fill="rgb(251,123,36)" stroke="rgb(251,123,36)" stroke-width="1" opacity="0.3607843137254902" d="M 369.5 267 L 372 267.5 L 369.5 268 L 369.5 267 Z " /><path fill="rgb(251,123,36)" stroke="rgb(251,123,36)" stroke-width="1" opacity="0.3607843137254902" d="M 374.5 268 L 378 268.5 L 374.5 269 L 374.5 268 Z " /><path fill="rgb(251,123,36)" stroke="rgb(251,123,36)" stroke-width="1" opacity="0.3607843137254902" d="M 381.5 269 L 386 269.5 L 381.5 270 L 381.5 269 Z " /><path fill="rgb(251,123,36)" stroke="rgb(251,123,36)" stroke-width="1" opacity="0.3607843137254902" d="M 390.5 270 L 397 270.5 L 390.5 271 L 390.5 270 Z " /><path fill="rgb(251,123,36)" stroke="rgb(251,123,36)" stroke-width="1" opacity="0.3607843137254902" d="M 471.5 270 L 472 286.5 L 471 286.5 L 471.5 270 Z " /><path fill="rgb(251,123,36)" stroke="rgb(251,123,36)" stroke-width="1" opacity="0.3607843137254902" d="M 470.5 291 L 471 294.5 L 470 294.5 L 470.5 291 Z " /><path fill="rgb(251,123,36)" stroke="rgb(251,123,36)" stroke-width="1" opacity="0.3607843137254902" d="M 469.5 296 L 470 298.5 L 469 298.5 L 469.5 296 Z " /><path fill="rgb(192,99,17)" stroke="rgb(192,99,17)" stroke-width="1" opacity="0.03529411764705882" d="M 360.5 16 L 361 16.5 L 356.5 21 L 356 20.5 L 360.5 16 Z " /><path fill="rgb(192,99,17)" stroke="rgb(192,99,17)" stroke-width="1" opacity="0.03529411764705882" d="M 347.5 30 L 347 31.5 L 346 33.5 L 346.5 35 L 345 35.5 L 345.5 37 Q 342.8 35.8 345 34.5 L 347.5 30 Z " /><path fill="rgb(192,99,17)" stroke="rgb(192,99,17)" stroke-width="1" opacity="0.03529411764705882" d="M 295.5 51 Q 298 52 296.5 53 L 295.5 52 L 294 52.5 L 295.5 51 Z " /><path fill="rgb(192,99,17)" stroke="rgb(192,99,17)" stroke-width="1" opacity="0.03529411764705882" d="M 589.5 110 L 590.5 111 L 592 110.5 L 590.5 112 Q 588 111 589.5 110 Z " /><path fill="rgb(192,99,17)" stroke="rgb(192,99,17)" stroke-width="1" opacity="0.03529411764705882" d="M 599.5 118 L 600.5 119 L 602 118.5 L 600.5 120 Q 598 119 599.5 118 Z " /><path fill="rgb(192,99,17)" stroke="rgb(192,99,17)" stroke-width="1" opacity="0.03529411764705882" d="M 612.5 129 L 613.5 130 L 615 129.5 L 613.5 131 Q 611 130 612.5 129 Z " /><path fill="rgb(192,99,17)" stroke="rgb(192,99,17)" stroke-width="1" opacity="0.03529411764705882" d="M 619.5 135 Q 620.5 137 621.5 135 L 623 136.5 L 621.5 138 L 619 135.5 L 619.5 135 Z " /><path fill="rgb(192,99,17)" stroke="rgb(192,99,17)" stroke-width="1" opacity="0.03529411764705882" d="M 638.5 182 L 639 182.5 L 636.5 185 L 636 184.5 L 638.5 182 Z " /><path fill="rgb(103,68,66)" stroke="rgb(103,68,66)" stroke-width="1" opacity="0.996078431372549" d="M 382.5 104 L 389 110.5 L 388.5 111 L 382 104.5 L 382.5 104 Z " /><path fill="rgb(103,68,66)" stroke="rgb(103,68,66)" stroke-width="1" opacity="0.996078431372549" d="M 499.5 128 L 500 134.5 L 499 134.5 L 499.5 128 Z " /><path fill="rgb(103,68,66)" stroke="rgb(103,68,66)" stroke-width="1" opacity="0.996078431372549" d="M 594.5 133 L 595 137.5 L 594 137.5 L 594.5 133 Z " /><path fill="rgb(103,68,66)" stroke="rgb(103,68,66)" stroke-width="1" opacity="0.996078431372549" d="M 561.5 134 L 562 136.5 L 561 136.5 L 561.5 134 Z " /><path fill="rgb(103,68,66)" stroke="rgb(103,68,66)" stroke-width="1" opacity="0.996078431372549" d="M 560.5 141 L 561.5 142 L 563 141.5 L 562 143.5 L 564 143.5 L 563.5 145 L 569.5 150 L 578 154.5 L 572.5 155 Q 565.1 152.4 561 146.5 L 560 144.5 L 560.5 143 L 559 142.5 L 560.5 141 Z " /><path fill="rgb(103,68,66)" stroke="rgb(103,68,66)" stroke-width="1" opacity="0.996078431372549" d="M 550.5 142 L 551 148.5 L 549.5 149 L 549 145.5 L 550.5 142 Z " /><path fill="rgb(103,68,66)" stroke="rgb(103,68,66)" stroke-width="1" opacity="0.996078431372549" d="M 171.5 175 L 172 186.5 L 171 186.5 L 171.5 175 Z " /><path fill="rgb(103,68,66)" stroke="rgb(103,68,66)" stroke-width="1" opacity="0.996078431372549" d="M 613.5 178 Q 617.3 177.3 618 179.5 L 616.5 180 L 613.5 179 L 613.5 178 Z " /><path fill="rgb(103,68,66)" stroke="rgb(103,68,66)" stroke-width="1" opacity="0.996078431372549" d="M 553.5 183 L 554.5 186 L 555.5 184 Q 556 188.5 559 190.5 L 557 190.5 L 556.5 192 L 554 190.5 Q 556.5 189 553 187.5 L 553.5 183 Z " /><path fill="rgb(103,68,66)" stroke="rgb(103,68,66)" stroke-width="1" opacity="0.996078431372549" d="M 135.5 191 L 136 193.5 L 135 193.5 L 135.5 191 Z " /><path fill="rgb(103,68,66)" stroke="rgb(103,68,66)" stroke-width="1" opacity="0.996078431372549" d="M 525.5 213 L 531 218.5 L 530.5 219 L 525 213.5 L 525.5 213 Z " /><path fill="rgb(103,68,66)" stroke="rgb(103,68,66)" stroke-width="1" opacity="0.996078431372549" d="M 311.5 219 L 312 221.5 L 311 221.5 L 311.5 219 Z " /><path fill="rgb(103,68,66)" stroke="rgb(103,68,66)" stroke-width="1" opacity="0.996078431372549" d="M 310.5 238 L 311 246.5 L 310 246.5 L 310.5 238 Z " /><path fill="rgb(216,91,69)" stroke="rgb(216,91,69)" stroke-width="1" opacity="0.996078431372549" d="M 468.5 45 L 469.5 47 L 470.5 45 L 472.5 47 L 474 46.5 L 474.5 48 L 476.5 47 L 485 50.5 L 484.5 52 L 486.5 51 L 486.5 53 L 490.5 54 L 494 56.5 L 486.5 57 L 485.5 58 L 478.5 58 L 477.5 59 L 470.5 59 L 469.5 60 L 461.5 60 L 460.5 61 L 443.5 62 L 442.5 63 L 434.5 63 L 433.5 64 L 425.5 64 L 424.5 65 L 417.5 65 L 416.5 66 L 408.5 66 L 407.5 67 L 400.5 67 L 399.5 68 L 392.5 68 L 391.5 69 L 385.5 69 L 384.5 70 L 369.5 71 L 365.5 73 L 364.5 72 L 363 72.5 L 364 70.5 L 362.5 69 L 361 69.5 L 362 68.5 L 359.5 66 L 358 65.5 L 356 61.5 L 357.5 60 Q 362.3 61.3 363.5 59 L 370.5 59 L 371.5 58 L 378.5 58 L 379.5 57 L 386.5 57 L 387.5 56 L 394.5 56 L 395.5 55 L 402.5 55 L 403.5 54 L 410.5 54 L 411.5 53 L 418.5 53 L 419.5 52 L 426.5 52 L 427.5 51 L 434.5 51 L 435.5 50 L 442.5 50 L 443.5 49 L 450.5 49 L 451.5 48 L 458.5 48 L 459.5 47 L 466.5 47 L 468.5 45 Z " /><path fill="rgb(216,91,69)" stroke="rgb(216,91,69)" stroke-width="1" opacity="0.996078431372549" d="M 292.5 68 L 296 70.5 L 297 73.5 L 296 75.5 L 298 81.5 L 296.5 81 L 294.5 82 L 287.5 82 L 286.5 83 L 279.5 83 L 278.5 84 L 271.5 84 L 270.5 85 L 263.5 85 L 262.5 86 L 255.5 86 L 254.5 87 L 247.5 87 L 246.5 88 L 239.5 88 L 236.5 89 Q 235.5 87 234.5 89 L 233 88.5 L 249.5 80 L 251.5 78 L 255.5 77 L 257.5 75 L 259.5 75 L 264.5 72 L 267.5 71 L 275.5 71 L 276.5 70 L 283.5 70 L 284.5 69 L 291.5 69 L 292.5 68 Z " /><path fill="rgb(216,91,69)" stroke="rgb(216,91,69)" stroke-width="1" opacity="0.996078431372549" d="M 390.5 105 L 393 107.5 L 392.5 108 L 390 105.5 L 390.5 105 Z " /><path fill="rgb(216,91,69)" stroke="rgb(216,91,69)" stroke-width="1" opacity="0.996078431372549" d="M 276.5 119 L 277.5 121 L 279.5 120 Q 280.5 122 281.5 120 L 283.5 121 Q 284.5 119 285.5 121 L 294.5 121 L 295.5 120 L 296.5 121 L 301 121.5 L 293.5 122 L 287.5 124 L 280.5 124 L 279.5 125 L 272.5 125 L 271.5 126 L 264.5 126 L 263.5 127 L 256.5 127 L 255.5 128 L 248.5 128 L 247.5 129 L 240.5 129 L 239.5 130 L 232.5 130 L 231.5 131 L 224.5 131 L 223.5 132 L 216.5 132 L 215.5 133 L 208.5 133 L 207.5 134 L 200.5 134 L 199.5 135 L 193.5 135 L 190.5 137 L 180 133.5 L 181 132.5 L 180.5 131 Q 181.5 133 185.5 132 L 186.5 131 L 193.5 131 L 194.5 130 L 201.5 130 L 202.5 129 L 209.5 129 L 210.5 128 L 217.5 128 L 218.5 127 L 225.5 127 L 226.5 126 L 233.5 126 L 234.5 125 L 241.5 125 L 242.5 124 L 249.5 124 L 250.5 123 L 264.5 122 L 266.5 121 Q 267.5 123 268.5 121 Q 272.7 121.7 274.5 120 L 276 120.5 L 276.5 119 Z " /><path fill="rgb(216,91,69)" stroke="rgb(216,91,69)" stroke-width="1" opacity="0.996078431372549" d="M 585.5 129 L 587 131.5 L 585.5 132 Q 582.5 130.5 585.5 129 Z " /><path fill="rgb(216,91,69)" stroke="rgb(216,91,69)" stroke-width="1" opacity="0.996078431372549" d="M 552.5 138 L 558 138.5 Q 557.3 140.8 553.5 140 L 552 139.5 L 551.5 144 L 551 139.5 L 552.5 138 Z " /><path fill="rgb(216,91,69)" stroke="rgb(216,91,69)" stroke-width="1" opacity="0.996078431372549" d="M 585.5 143 L 587 143.5 L 584.5 145 Q 583 144 585.5 143 Z " /><path fill="rgb(224,76,40)" stroke="rgb(224,76,40)" stroke-width="1" opacity="0.996078431372549" d="M 377.5 11 Q 378.2 12.7 381.5 12 L 383 11.5 L 382 13.5 Q 387.9 27.1 399 35.5 L 396 36.5 L 401.5 37 L 402.5 36 L 426.5 36 L 429.5 37 L 438.5 37 L 439.5 38 L 445.5 38 L 446.5 39 L 451.5 39 L 452.5 40 L 459.5 41 L 459.5 40 L 457 39.5 L 459.5 37 L 461 38.5 L 461.5 40 L 463 40.5 L 463.5 43 L 468.5 44 L 470 45.5 L 469.5 47 L 468.5 45 L 466.5 47 L 459.5 47 L 458.5 48 L 451.5 48 L 450.5 49 L 443.5 49 L 442.5 50 L 435.5 50 L 434.5 51 L 427.5 51 L 426.5 52 L 419.5 52 L 418.5 53 L 411.5 53 L 410.5 54 L 403.5 54 L 402.5 55 L 395.5 55 L 394.5 56 L 387.5 56 L 386.5 57 L 379.5 57 L 378.5 58 L 371.5 58 L 370.5 59 L 363.5 59 L 362.5 60 Q 357.7 59.2 355.5 61 L 344.5 45 L 343 45.5 Q 346.4 31.4 355.5 23 L 364.5 17 L 373.5 13 L 375 13.5 L 375.5 12 L 377.5 13 L 377.5 11 Z " /><path fill="rgb(224,76,40)" stroke="rgb(224,76,40)" stroke-width="1" opacity="0.996078431372549" d="M 260.5 42 L 269.5 42 L 270.5 43 L 276.5 43 L 288.5 49 L 299 56.5 L 298.5 58 L 292 60.5 L 292 62.5 L 295 68.5 L 293.5 68 Q 290.7 70.2 284.5 69 L 283.5 70 L 276.5 70 L 275.5 71 L 267.5 71 L 259.5 75 L 257.5 75 L 255.5 77 L 251.5 78 L 238.5 86 L 238.5 84 L 234 86.5 L 234.5 88 L 232.5 87 L 229 89.5 L 229.5 91 L 228 88.5 L 230 82.5 L 231 65.5 L 230 64.5 L 230 56.5 L 228 51.5 L 230 50.5 L 229.5 49 L 231.5 50 L 231.5 48 L 234.5 49 L 234.5 47 L 236.5 48 L 237.5 46 L 240.5 46 L 245.5 44 L 250.5 44 L 251.5 43 L 259.5 43 L 260.5 42 Z " /><path fill="rgb(224,76,40)" stroke="rgb(224,76,40)" stroke-width="1" opacity="0.996078431372549" d="M 509.5 95 L 510 95.5 L 505.5 100 L 505 99.5 L 509.5 95 Z " /><path fill="rgb(224,76,40)" stroke="rgb(224,76,40)" stroke-width="1" opacity="0.996078431372549" d="M 571.5 100 L 573.5 100 L 585.5 108 L 610 128.5 L 611.5 131 Q 612.8 128.8 614 131.5 L 613.5 133 L 620 138.5 L 619.5 139 L 616.5 136 Q 612.5 137 611.5 135 L 601.5 135 L 600.5 137 L 598.5 130 L 597 129.5 L 598 127.5 L 596 126.5 L 592.5 121 L 584.5 116 L 576.5 115 L 567.5 118 L 561 124.5 L 558 130.5 L 557.5 138 L 553 137.5 L 552 134.5 L 556 126.5 L 556 124.5 Q 560.1 120.1 562 113.5 L 571.5 100 Z " /><path fill="rgb(224,76,40)" stroke="rgb(224,76,40)" stroke-width="1" opacity="0.996078431372549" d="M 503.5 102 L 503.5 105 L 502.5 104 L 501 104.5 L 503.5 102 Z " /><path fill="rgb(224,76,40)" stroke="rgb(224,76,40)" stroke-width="1" opacity="0.996078431372549" d="M 500.5 106 Q 503 107 501.5 108 L 500.5 107 L 499 107.5 L 500.5 106 Z " /><path fill="rgb(224,76,40)" stroke="rgb(224,76,40)" stroke-width="1" opacity="0.996078431372549" d="M 307.5 120 L 308 122.5 L 307 122.5 L 307.5 120 Z " /><path fill="rgb(224,76,40)" stroke="rgb(224,76,40)" stroke-width="1" opacity="0.996078431372549" d="M 308.5 125 L 309 130.5 L 310 131.5 L 310 136.5 L 309 136.5 L 308.5 131 Q 297 141.5 288 154.5 L 277 171.5 L 272 181.5 L 272 183.5 L 267 193.5 L 264 202.5 L 264 205.5 L 262 209.5 L 261 217.5 L 260 218.5 L 260 222.5 L 259 223.5 L 258 235.5 L 264 237.5 L 261.5 238 L 240.5 231 L 237.5 231 L 226.5 227 L 223.5 227 L 213.5 223 L 210.5 223 L 203.5 220 L 200.5 220 L 190.5 216 L 187.5 216 L 180.5 213 L 173 211.5 L 174 210.5 L 175 200.5 L 176 199.5 L 176 192.5 L 177 191.5 L 177 163.5 L 176 162.5 L 176 157.5 L 175 156.5 L 175 152.5 L 174 151.5 L 172 140.5 L 168 129.5 L 170.5 129 L 175.5 132 L 190.5 137 L 191.5 136 Q 196.3 137.2 197.5 135 L 204.5 135 L 205.5 134 L 212.5 134 L 213.5 133 L 220.5 133 L 221.5 132 L 228.5 132 L 229.5 131 L 236.5 131 L 237.5 130 L 244.5 130 L 245.5 129 L 252.5 129 L 253.5 128 L 260.5 128 L 261.5 127 L 267.5 127 Q 268.3 125.3 271.5 126 Q 272.5 128 273.5 126 L 275.5 127 Q 276.5 125 280.5 126 Q 281.5 128 282.5 126 L 284.5 127 L 286.5 126 L 288.5 127 Q 289.5 125 290.5 127 L 293.5 126 L 296.5 127 L 299.5 126 Q 300.5 128 304.5 127 L 306.5 126 L 308 126.5 L 308.5 125 Z M 298 128 L 298 129 L 300 129 L 298 128 Z M 290 129 L 290 130 L 292 130 L 290 129 Z " /><path fill="rgb(224,76,40)" stroke="rgb(224,76,40)" stroke-width="1" opacity="0.996078431372549" d="M 87.5 127 L 89.5 128 L 100.5 129 L 101.5 130 L 105.5 130 L 106.5 131 L 109.5 131 L 110.5 132 L 113.5 132 L 121 134.5 L 124 150.5 Q 122.2 151.3 123 154.5 L 125 154.5 L 123.5 162 Q 123.3 158.2 120.5 157 L 118.5 157 L 112.5 153 L 110.5 153 L 107.5 151 L 98.5 148 L 87.5 147 L 86.5 146 L 73.5 146 L 71.5 147 Q 70.5 145 69.5 147 Q 66.3 146.2 65.5 148 Q 64.5 146 63.5 148 L 60.5 148 L 53.5 151 L 53.5 148 Q 54.8 150.2 56 147.5 L 64.5 137 L 76.5 130 L 82.5 128 L 86.5 128 L 87.5 127 Z " /><path fill="rgb(224,76,40)" stroke="rgb(224,76,40)" stroke-width="1" opacity="0.996078431372549" d="M 434.5 127 L 441 127.5 L 440.5 129 Q 444.7 129.7 446.5 128 L 446.5 130 L 451.5 129 L 451.5 131 L 454.5 130 L 454.5 132 L 457.5 131 L 457.5 133 L 460.5 132 L 460.5 134 L 462.5 133 L 462.5 135 L 464.5 134 L 464.5 136 L 466.5 135 L 466.5 137 L 468.5 136 L 468.5 138 L 470.5 137 L 470 138.5 L 471.5 140 L 474 140.5 L 475 143.5 Q 474 145 473 142.5 L 472.5 141 L 467.5 138 L 455.5 134 Q 451.5 135 450.5 133 L 436.5 133 L 435.5 134 L 431.5 134 L 430.5 135 L 424.5 136 L 416.5 140 L 414 142.5 L 412.5 145 Q 410 144 411.5 143 L 413 143.5 L 412 141.5 L 413.5 140 Q 414.8 142.3 416 139.5 L 420.5 133 Q 421.8 135.3 423 132.5 L 423.5 131 L 425 131.5 L 425.5 130 L 427 130.5 L 427.5 129 L 429.5 130 L 430.5 128 L 433.5 129 L 434.5 127 Z " /><path fill="rgb(224,76,40)" stroke="rgb(224,76,40)" stroke-width="1" opacity="0.996078431372549" d="M 598.5 134 L 599 136.5 L 598 136.5 L 598.5 134 Z " /><path fill="rgb(224,76,40)" stroke="rgb(224,76,40)" stroke-width="1" opacity="0.996078431372549" d="M 50.5 152 L 51.5 153 L 53 152.5 L 51.5 154 Q 49 153 50.5 152 Z " /><path fill="rgb(224,76,40)" stroke="rgb(224,76,40)" stroke-width="1" opacity="0.996078431372549" d="M 636.5 166 L 639 173.5 L 633.5 176 L 629 172.5 L 631 172.5 L 634.5 168 L 636 167.5 L 636.5 166 Z " /><path fill="rgb(224,76,40)" stroke="rgb(224,76,40)" stroke-width="1" opacity="0.996078431372549" d="M 169.5 238 L 193.5 251 L 195.5 253 L 202.5 256 L 218.5 266 L 225.5 269 L 227.5 271 L 235 273.5 L 225.5 275 L 224.5 273 L 218.5 274 L 217.5 273 L 214.5 273 L 213.5 272 L 203.5 270 L 188.5 263 Q 178.3 257.2 171 248.5 L 170 246.5 L 170.5 245 L 169 244.5 L 170 242.5 L 168 242.5 L 169.5 238 Z " /><path fill="rgb(224,76,40)" stroke="rgb(224,76,40)" stroke-width="1" opacity="0.996078431372549" d="M 415.5 271 L 421 271.5 L 419 272.5 L 424 285.5 Q 429.3 294.7 437.5 301 L 442 302.5 L 437.5 304 L 437.5 302 L 434.5 303 L 434.5 301 L 432.5 302 L 431.5 300 L 430 300.5 L 429.5 299 L 428 299.5 L 427.5 298 L 426.5 299 L 423.5 296 L 420 293.5 L 415 284.5 L 414 273.5 L 416 273.5 L 415.5 271 Z " /><path fill="rgb(224,76,40)" stroke="rgb(224,76,40)" stroke-width="1" opacity="0.996078431372549" d="M 444.5 305 L 453 305.5 L 444.5 306 L 444.5 305 Z " /><path fill="rgb(101,27,15)" stroke="rgb(101,27,15)" stroke-width="1" opacity="0.1568627450980392" d="M 393.5 0 L 396 0.5 L 393.5 1 L 393.5 0 Z " /><path fill="rgb(101,27,15)" stroke="rgb(101,27,15)" stroke-width="1" opacity="0.1568627450980392" d="M 417.5 0 L 420 0.5 L 417.5 1 L 417.5 0 Z " /><path fill="rgb(101,27,15)" stroke="rgb(101,27,15)" stroke-width="1" opacity="0.1568627450980392" d="M 451.5 17 L 453.5 19 L 455 18.5 L 453.5 20 L 451 17.5 L 451.5 17 Z " /><path fill="rgb(101,27,15)" stroke="rgb(101,27,15)" stroke-width="1" opacity="0.1568627450980392" d="M 455.5 20 Q 458.4 21.6 459 25.5 L 457.5 26 L 458 24.5 L 457 23.5 L 456.5 22 L 455 22.5 L 456 21.5 L 455.5 20 Z " /><path fill="rgb(101,27,15)" stroke="rgb(101,27,15)" stroke-width="1" opacity="0.1568627450980392" d="M 214.5 29 L 224 29.5 L 214.5 30 L 214.5 29 Z " /><path fill="rgb(101,27,15)" stroke="rgb(101,27,15)" stroke-width="1" opacity="0.1568627450980392" d="M 207.5 31 L 210 31.5 L 207.5 32 L 207.5 31 Z " /><path fill="rgb(101,27,15)" stroke="rgb(101,27,15)" stroke-width="1" opacity="0.1568627450980392" d="M 228.5 31 L 232 31.5 L 228.5 32 L 228.5 31 Z " /><path fill="rgb(101,27,15)" stroke="rgb(101,27,15)" stroke-width="1" opacity="0.1568627450980392" d="M 237.5 32 L 240 32.5 L 237.5 33 L 237.5 32 Z " /><path fill="rgb(101,27,15)" stroke="rgb(101,27,15)" stroke-width="1" opacity="0.1568627450980392" d="M 181.5 40 L 183 41.5 L 176.5 48 Q 174 47 175.5 46 L 176.5 47 L 182 41.5 L 181.5 40 Z " /><path fill="rgb(101,27,15)" stroke="rgb(101,27,15)" stroke-width="1" opacity="0.1568627450980392" d="M 171.5 52 Q 174 53 172.5 54 L 171.5 53 L 170 53.5 L 171.5 52 Z " /><path fill="rgb(101,27,15)" stroke="rgb(101,27,15)" stroke-width="1" opacity="0.1568627450980392" d="M 168.5 57 L 170 59.5 Q 169 61 168 58.5 L 168.5 57 Z " /><path fill="rgb(101,27,15)" stroke="rgb(101,27,15)" stroke-width="1" opacity="0.1568627450980392" d="M 164.5 82 L 165 85.5 L 164 85.5 L 164.5 82 Z " /><path fill="rgb(101,27,15)" stroke="rgb(101,27,15)" stroke-width="1" opacity="0.1568627450980392" d="M 163.5 97 L 164 107.5 L 163 107.5 L 163.5 97 Z " /><path fill="rgb(101,27,15)" stroke="rgb(101,27,15)" stroke-width="1" opacity="0.1568627450980392" d="M 62.5 126 L 67 126.5 L 62.5 127 L 62.5 126 Z " /><path fill="rgb(101,27,15)" stroke="rgb(101,27,15)" stroke-width="1" opacity="0.1568627450980392" d="M 80.5 126 L 84 126.5 L 80.5 127 L 80.5 126 Z " /><path fill="rgb(101,27,15)" stroke="rgb(101,27,15)" stroke-width="1" opacity="0.1568627450980392" d="M 17.5 141 L 19 142.5 L 10.5 151 Q 8 150 9.5 149 L 10.5 150 L 17 143.5 Q 14.7 142.3 17.5 141 Z " /><path fill="rgb(101,27,15)" stroke="rgb(101,27,15)" stroke-width="1" opacity="0.1568627450980392" d="M 5.5 155 Q 8 156 6.5 157 L 5.5 156 L 4 156.5 L 5.5 155 Z " /><path fill="rgb(101,27,15)" stroke="rgb(101,27,15)" stroke-width="1" opacity="0.1568627450980392" d="M 10.5 221 Q 13 222 11.5 223 L 10.5 222 L 9 222.5 L 10.5 221 Z " /><path fill="rgb(101,27,15)" stroke="rgb(101,27,15)" stroke-width="1" opacity="0.1568627450980392" d="M 13.5 225 L 20 231.5 L 18.5 233 L 19 231.5 L 13 225.5 L 13.5 225 Z " /><path fill="rgb(101,27,15)" stroke="rgb(101,27,15)" stroke-width="1" opacity="0.1568627450980392" d="M 75.5 243 L 78 243.5 L 75.5 244 L 75.5 243 Z " /><path fill="rgb(101,27,15)" stroke="rgb(101,27,15)" stroke-width="1" opacity="0.1568627450980392" d="M 157.5 243 L 158 247.5 L 157 247.5 L 157.5 243 Z " /><path fill="rgb(101,27,15)" stroke="rgb(101,27,15)" stroke-width="1" opacity="0.1568627450980392" d="M 52.5 244 L 57 244.5 L 52.5 245 L 52.5 244 Z " /><path fill="rgb(101,27,15)" stroke="rgb(101,27,15)" stroke-width="1" opacity="0.1568627450980392" d="M 65.5 244 L 70 244.5 L 65.5 245 L 65.5 244 Z " /><path fill="rgb(101,27,15)" stroke="rgb(101,27,15)" stroke-width="1" opacity="0.1568627450980392" d="M 65.5 246 L 68 246.5 L 65.5 247 L 65.5 246 Z " /><path fill="rgb(101,27,15)" stroke="rgb(101,27,15)" stroke-width="1" opacity="0.1568627450980392" d="M 157.5 251 L 158 254.5 L 157 254.5 L 157.5 251 Z " /><path fill="rgb(101,27,15)" stroke="rgb(101,27,15)" stroke-width="1" opacity="0.1568627450980392" d="M 164.5 271 L 170 276.5 L 169 277.5 L 169.5 279 Q 166.8 277.8 169 276.5 L 164.5 272 L 163 272.5 L 164.5 271 Z " /><path fill="rgb(101,27,15)" stroke="rgb(101,27,15)" stroke-width="1" opacity="0.1568627450980392" d="M 206.5 291 L 209 291.5 L 206.5 292 L 206.5 291 Z " /><path fill="rgb(101,27,15)" stroke="rgb(101,27,15)" stroke-width="1" opacity="0.1568627450980392" d="M 230.5 291 L 233 291.5 L 230.5 292 L 230.5 291 Z " /><path fill="rgb(101,27,15)" stroke="rgb(101,27,15)" stroke-width="1" opacity="0.1568627450980392" d="M 467.5 304 L 469 306.5 L 467.5 309 L 466 306.5 L 468 306.5 L 467.5 304 Z " /><path fill="rgb(101,27,15)" stroke="rgb(101,27,15)" stroke-width="1" opacity="0.1568627450980392" d="M 396.5 313 L 396 314.5 L 395.5 316 L 395 314.5 L 396.5 313 Z " /><path fill="rgb(101,27,15)" stroke="rgb(101,27,15)" stroke-width="1" opacity="0.1568627450980392" d="M 461.5 314 Q 464 315 462.5 316 L 461.5 315 L 459.5 317 L 459 316.5 L 461.5 314 Z " /><path fill="rgb(101,27,15)" stroke="rgb(101,27,15)" stroke-width="1" opacity="0.1568627450980392" d="M 396.5 317 L 397.5 318 L 399 317.5 L 397.5 319 Q 395 318 396.5 317 Z " /><path fill="rgb(101,27,15)" stroke="rgb(101,27,15)" stroke-width="1" opacity="0.1568627450980392" d="M 399.5 319 Q 402 320 400.5 321 L 399.5 320 L 398 320.5 L 399.5 319 Z " /><path fill="rgb(101,27,15)" stroke="rgb(101,27,15)" stroke-width="1" opacity="0.1568627450980392" d="M 454.5 321 L 455 321.5 L 453 323.5 L 453.5 325 L 452 323.5 L 454.5 321 Z " /><path fill="rgb(101,27,15)" stroke="rgb(101,27,15)" stroke-width="1" opacity="0.1568627450980392" d="M 400.5 323 Q 401.5 325 402.5 323 L 408 328.5 L 405 328.5 L 406 327.5 L 402.5 324 L 401.5 325 Q 399 324 400.5 323 Z " /><path fill="rgb(249,143,78)" stroke="rgb(249,143,78)" stroke-width="1" opacity="0.043137254901960784" d="M 477.5 45 L 479 45.5 L 476.5 47 Q 475 46 477.5 45 Z " /><path fill="rgb(249,143,78)" stroke="rgb(249,143,78)" stroke-width="1" opacity="0.043137254901960784" d="M 508.5 60 Q 511 61 509.5 62 L 508.5 61 L 507 61.5 L 508.5 60 Z " /><path fill="rgb(249,143,78)" stroke="rgb(249,143,78)" stroke-width="1" opacity="0.043137254901960784" d="M 513.5 63 Q 516 64 514.5 65 L 513.5 64 L 512 64.5 L 513.5 63 Z " /><path fill="rgb(249,143,78)" stroke="rgb(249,143,78)" stroke-width="1" opacity="0.043137254901960784" d="M 521.5 68 Q 524 69 522.5 70 L 521.5 69 L 520 69.5 L 521.5 68 Z " /><path fill="rgb(249,143,78)" stroke="rgb(249,143,78)" stroke-width="1" opacity="0.043137254901960784" d="M 524.5 70 Q 527 71 525.5 72 L 524.5 71 L 523 71.5 L 524.5 70 Z " /><path fill="rgb(249,143,78)" stroke="rgb(249,143,78)" stroke-width="1" opacity="0.043137254901960784" d="M 532.5 75 Q 535 76 533.5 77 L 532.5 76 L 531 76.5 L 532.5 75 Z " /><path fill="rgb(249,143,78)" stroke="rgb(249,143,78)" stroke-width="1" opacity="0.043137254901960784" d="M 219.5 292 L 222 292.5 L 219.5 293 L 219.5 292 Z " /></svg>