<svg viewBox="0 0 640 339" version="1.1" xmlns="http://www.w3.org/2000/svg" desc="Created with imagetracer.js version 1.2.6" ><path fill="rgb(2,2,3)" stroke="rgb(2,2,3)" stroke-width="1" opacity="0.9921568627450981" d="M 238.5 0 L 242.5 0 L 248.5 3 L 259.5 11 L 298 49.5 L 312.5 65 L 319.5 69 Q 324.2 67.8 325.5 70 L 333.5 70 L 334.5 69 L 342.5 69 L 343 70.5 L 341.5 70 L 339.5 72 Q 338.5 70 337.5 72 L 310.5 81 L 307.5 83 L 299.5 85 L 296.5 87 L 285.5 90 L 271.5 96 L 259.5 99 L 242.5 108 L 240.5 108 L 225.5 115 L 225 114.5 L 230 109.5 L 243 92.5 L 247 82.5 L 247 78.5 L 246 77.5 L 246 72.5 L 242 60.5 L 242 57.5 L 237 43.5 Q 238.3 38.8 236 37.5 L 236 21.5 Q 234.3 20.8 235 17.5 L 236 16.5 L 236 4.5 L 238.5 0 Z " /><path fill="rgb(2,2,3)" stroke="rgb(2,2,3)" stroke-width="1" opacity="0.9921568627450981" d="M 576.5 41 L 619.5 41 L 620.5 42 L 629.5 43 L 637 46.5 Q 635.8 52.3 631.5 55 L 624.5 59 L 616.5 61 L 613.5 63 L 544.5 85 L 542.5 87 L 541.5 85 L 540 85.5 Q 540.8 89.3 538.5 90 Q 538 87.5 534.5 88 L 534 89.5 L 534.5 91 L 532 88.5 L 531.5 85 L 529 85.5 L 529 89.5 L 532.5 93 Q 539.5 94.5 541 90.5 L 541.5 88 L 542 90.5 Q 540.5 95.5 532.5 94 L 528.5 91 L 525.5 91 L 522.5 92 L 522.5 91 L 525 90.5 L 514.5 86 L 505.5 86 L 497.5 89 L 490 95.5 L 486 102.5 L 488.5 103 L 490.5 102 L 490.5 103 L 441.5 119 L 427.5 125 L 415.5 129 L 412.5 129 L 406.5 121 L 406 122.5 L 414 134.5 Q 413 136 412 133.5 L 410.5 131 L 400.5 133 L 392.5 122 L 392 123.5 L 400 135.5 L 398.5 135 L 395.5 135 L 389.5 137 L 380.5 125 L 380 126.5 L 389 140.5 L 388.5 141 L 386.5 139 L 377.5 142 L 367.5 128 L 366 128.5 L 376 143.5 L 374.5 143 Q 355.1 149.1 342.5 162 L 322.5 170 L 319.5 170 L 304.5 175 L 300.5 175 L 299.5 176 L 296.5 176 L 291.5 178 L 287.5 178 L 282.5 180 L 278.5 180 L 277.5 181 L 273.5 181 L 272.5 182 L 268.5 182 L 267.5 183 L 263.5 183 L 262.5 184 L 253.5 185 L 252.5 186 L 247.5 186 L 241.5 188 L 236.5 188 L 230.5 190 L 225.5 190 L 224.5 191 L 219.5 191 L 218.5 192 L 209.5 193 L 206 195.5 L 206 198.5 L 209 202.5 L 210 206.5 L 209 207.5 L 209 210.5 L 207 216.5 L 205 219.5 L 205 221.5 L 197.5 239 Q 194.5 239.5 194 237.5 L 193 235.5 L 193 215.5 L 192 214.5 L 192 207.5 Q 190 206.5 191 202.5 L 188.5 200 L 181.5 200 L 177.5 203 L 175.5 203 L 173 199.5 L 171 192.5 L 167.5 186 Q 163.8 182.2 157.5 181 L 157 184.5 L 158 185.5 L 158 202.5 L 157 203.5 L 157 219.5 L 154 226.5 L 151.5 229 L 148.5 231 L 142.5 232 L 140 230.5 L 139 228.5 L 140 227.5 L 140 221.5 L 139 220.5 L 139 213.5 L 138 212.5 L 138 207.5 L 137 206.5 L 136 197.5 L 135 196.5 L 135 193.5 L 134 192.5 L 134 189.5 L 133 188.5 L 133 185.5 L 132 184.5 L 132 181.5 L 130 175.5 L 118.5 163 L 74.5 127 L 32.5 95 L 6.5 77 L 0 70.5 L 0.5 69 L 15.5 74 L 45.5 88 L 47.5 88 L 110.5 118 L 124.5 128 L 138.5 141 L 141.5 140 L 145 136.5 L 146 131.5 L 145 130.5 L 145 124.5 Q 146.8 122.3 151.5 123 Q 159 126.5 164 132.5 L 162.5 135 L 135.5 144 L 132.5 146 L 129 146.5 L 127 151.5 L 127 156.5 L 130.5 161 L 135.5 164 L 147.5 168 L 153.5 168 L 154.5 169 L 164.5 169 L 166.5 167 L 171.5 166 L 174.5 164 L 180.5 163 L 185.5 160 L 191.5 159 L 199.5 155 L 205.5 154 L 210.5 151 L 221.5 148 L 227.5 145 L 230.5 145 L 235.5 142 L 246.5 139 L 249.5 137 L 271.5 130 L 285.5 124 L 296.5 121 L 299.5 119 L 332.5 108 L 346.5 102 L 357.5 99 L 371.5 93 L 382.5 90 L 385.5 88 L 395.5 86 L 396.5 85 L 399.5 85 L 403.5 83 L 414.5 81 L 418.5 79 L 421.5 79 L 425.5 77 L 428.5 77 L 429.5 76 L 432.5 76 L 438.5 74 L 447.5 68 Q 448.5 70 452.5 69 L 453.5 68 L 459.5 68 L 460.5 67 L 465.5 67 L 466.5 66 Q 471.2 67.3 472.5 65 L 478.5 65 L 479.5 64 L 484.5 64 L 485.5 63 L 497.5 62 L 498.5 61 L 503.5 61 L 504.5 60 L 509.5 60 L 510.5 59 L 516.5 59 L 517.5 58 L 523 57.5 Q 517.6 55.9 515 51.5 L 516.5 49 L 518 48.5 L 504.5 48 L 503.5 49 L 488.5 49 L 487.5 50 L 475.5 50 L 474.5 51 L 467.5 51 L 467 50.5 L 470.5 47 L 484.5 47 L 485.5 46 L 502.5 46 L 503.5 45 L 525.5 45 L 526.5 44 L 546.5 44 L 547.5 43 L 562.5 43 L 563.5 42 L 575.5 42 L 576.5 41 Z M 596 42 L 595 43 L 576 43 L 575 44 L 561 44 L 560 45 L 548 45 L 547 46 L 535 46 L 534 47 L 518 48 L 536 48 L 540 50 L 549 51 L 554 53 L 559 53 L 564 55 L 578 57 L 579 58 L 583 58 L 588 60 L 596 61 L 597 62 L 601 62 L 602 63 L 607 63 L 613 61 L 626 55 L 631 50 L 631 47 L 621 43 L 606 43 L 605 42 L 596 42 Z M 535 86 L 535 87 L 537 87 L 535 86 Z " /><path fill="rgb(2,2,3)" stroke="rgb(2,2,3)" stroke-width="1" opacity="0.9921568627450981" d="M 344.5 68 L 347 68.5 L 344.5 69 L 344.5 68 Z " /><path fill="rgb(2,2,3)" stroke="rgb(2,2,3)" stroke-width="1" opacity="0.9921568627450981" d="M 586.5 100 L 588 100.5 L 587.5 103 L 545.5 122 L 545.5 121 L 565.5 112 L 567.5 110 Q 578.2 106.2 586.5 100 Z " /><path fill="rgb(2,2,3)" stroke="rgb(2,2,3)" stroke-width="1" opacity="0.9921568627450981" d="M 542.5 122 L 544 122.5 L 540.5 124 L 540.5 123 L 542.5 122 Z " /><path fill="rgb(2,2,3)" stroke="rgb(2,2,3)" stroke-width="1" opacity="0.9921568627450981" d="M 379.5 176 L 392.5 176 L 393.5 177 L 400.5 177 L 401.5 178 L 406.5 178 L 407.5 179 L 415 180.5 L 414.5 182 Q 401.4 189.4 392 200.5 L 371 225.5 L 363 237.5 L 356 251.5 L 339 275.5 L 306 314.5 L 281.5 339 L 280 338.5 L 280 332.5 L 282 328.5 L 282 325.5 L 286 316.5 L 287 311.5 L 289 308.5 L 289 306.5 L 294 296.5 L 294 294.5 L 308 265.5 L 308 263.5 L 328 223.5 L 330 217.5 L 330 214.5 L 331 213.5 L 331 205.5 L 328 201.5 L 328 199.5 L 331.5 196 L 345.5 190 L 347.5 190 L 350.5 188 L 352.5 188 L 362.5 183 L 369.5 178 L 378.5 177 L 379.5 176 Z " /><path fill="rgb(29,31,45)" stroke="rgb(29,31,45)" stroke-width="1" opacity="0.996078431372549" d="M 595.5 42 L 605 42.5 L 595.5 43 L 595.5 42 Z " /><path fill="rgb(29,31,45)" stroke="rgb(29,31,45)" stroke-width="1" opacity="0.996078431372549" d="M 575.5 43 L 585 43.5 L 575.5 44 L 575.5 43 Z " /><path fill="rgb(29,31,45)" stroke="rgb(29,31,45)" stroke-width="1" opacity="0.996078431372549" d="M 613.5 43 L 620.5 43 L 631 46.5 L 631 49.5 L 625.5 55 L 612.5 61 L 606.5 63 L 601.5 63 L 600.5 62 L 596.5 62 L 595.5 61 L 587.5 60 L 582.5 58 L 578.5 58 L 577.5 57 L 563.5 55 L 558.5 53 L 553.5 53 L 548.5 51 L 539.5 50 L 535.5 48 L 518.5 48 L 515 50.5 L 519.5 56 L 524 58.5 L 522.5 58 L 510.5 59 L 509.5 60 L 504.5 60 L 503.5 61 Q 498.7 59.7 497.5 62 L 491.5 62 L 490.5 63 L 485.5 63 L 484.5 64 Q 479.7 62.8 478.5 65 L 472.5 65 L 471.5 66 L 466.5 66 L 465.5 67 L 460.5 67 L 459.5 68 L 448.5 69 L 446.5 68 L 446.5 70 Q 445.5 68 444.5 70 L 438.5 74 L 432.5 76 L 425.5 77 L 414.5 81 L 411.5 81 L 399.5 85 L 396.5 85 L 395.5 86 L 385.5 88 L 382.5 90 L 371.5 93 L 368.5 95 L 346.5 102 L 332.5 108 L 321.5 111 L 318.5 113 L 310.5 115 L 296.5 121 L 260.5 133 L 246.5 139 L 235.5 142 L 230.5 145 L 224.5 146 L 221.5 148 L 210.5 151 L 205.5 154 L 202.5 154 L 191.5 159 L 185.5 160 L 180.5 163 L 174.5 164 L 171.5 166 L 166.5 167 L 164.5 169 L 154.5 169 L 153.5 168 L 147.5 168 Q 146.8 166.3 143.5 167 L 138 164.5 L 137.5 163 L 135.5 164 L 132 161.5 L 131.5 160 L 130.5 161 L 128 158.5 Q 126.2 156.3 127 151.5 L 129.5 146 L 132.5 146 L 135.5 144 L 157.5 137 L 160.5 135 L 162.5 135 L 164.5 133 L 165.5 134 L 172.5 134 L 173.5 133 L 184.5 131 L 191.5 128 L 194.5 128 L 203.5 124 L 208.5 123 L 226.5 114 L 233.5 112 L 240.5 108 L 242.5 108 L 259.5 99 L 271.5 96 L 274.5 94 L 296.5 87 L 299.5 85 L 307.5 83 L 310.5 81 L 318.5 79 L 321.5 77 L 332.5 74 L 338.5 71 L 339.5 72 L 341.5 70 L 343 70.5 L 343.5 69 L 346.5 69 L 350.5 67 L 355.5 67 L 356.5 66 L 365.5 65 L 366.5 64 L 370.5 64 L 371.5 63 L 375.5 63 L 380.5 61 L 389.5 60 L 390.5 59 L 398.5 58 L 399.5 57 L 403.5 57 L 404.5 56 L 412.5 55 L 413.5 54 L 418.5 54 L 419.5 53 Q 424.2 54.3 425.5 52 L 431.5 52 L 432.5 51 L 438.5 51 L 439.5 50 L 447.5 50 L 448.5 49 L 466.5 48 L 467.5 49 L 469 48.5 L 467 50.5 L 467.5 51 L 474.5 51 L 475.5 50 L 487.5 50 L 488.5 49 L 503.5 49 L 504.5 48 L 517.5 48 L 518.5 47 L 533.5 47 L 534.5 46 L 546.5 46 L 547.5 45 L 559.5 45 L 560.5 44 L 568.5 44 L 569.5 45 L 581.5 45 L 582.5 46 L 583.5 45 L 586.5 46 L 594.5 46 L 595.5 45 Q 596.5 47 597.5 45 Q 600.8 45.8 601.5 44 L 612.5 44 L 613.5 43 Z M 562 45 L 562 46 L 564 46 L 562 45 Z M 416 64 L 415 65 L 406 65 L 405 66 L 397 67 L 396 68 L 391 68 Q 390 70 389 68 L 384 70 L 376 71 L 375 72 L 370 72 L 365 74 L 357 75 L 356 76 L 352 76 L 351 77 L 348 77 L 344 79 L 336 81 L 343 83 Q 346 82 348 84 L 355 84 L 356 85 L 369 85 L 376 82 L 383 81 L 387 79 L 390 79 L 393 77 L 403 75 L 422 68 L 422 67 L 427 66 L 426 64 L 418 64 Q 417 66 416 64 Z " /><path fill="rgb(29,31,45)" stroke="rgb(29,31,45)" stroke-width="1" opacity="0.996078431372549" d="M 505.5 86 L 514.5 86 L 520.5 88 L 526 91.5 L 524.5 91 L 522 91.5 L 522.5 93 L 517.5 94 L 517.5 93 L 519 92.5 L 510.5 92 L 506.5 94 Q 505.5 92 504.5 94 L 502.5 94 L 495 99.5 L 497.5 100 L 502.5 98 L 502.5 99 L 494.5 102 L 493.5 101 Q 492 104.5 490.5 102 L 486.5 103 L 487 101.5 Q 489.3 94.8 494.5 91 L 501.5 87 Q 504.7 87.8 505.5 86 Z " /><path fill="rgb(29,31,45)" stroke="rgb(29,31,45)" stroke-width="1" opacity="0.996078431372549" d="M 534.5 86 L 537 86.5 L 534.5 87 L 534.5 86 Z " /><path fill="rgb(29,31,45)" stroke="rgb(29,31,45)" stroke-width="1" opacity="0.996078431372549" d="M 534.5 89 Q 537 90 535.5 91 L 534.5 90 L 533 90.5 L 534.5 89 Z " /><path fill="rgb(29,31,45)" stroke="rgb(29,31,45)" stroke-width="1" opacity="0.996078431372549" d="M 366.5 128 L 369 129.5 L 367.5 129 Q 365.1 128.9 366.5 128 Z " /><path fill="rgb(122,128,139)" stroke="rgb(122,128,139)" stroke-width="1" opacity="0.996078431372549" d="M 536.5 88 L 537 90.5 Q 536 93 535 91.5 L 536.5 88 Z " /><path fill="rgb(122,128,139)" stroke="rgb(122,128,139)" stroke-width="1" opacity="0.996078431372549" d="M 394.5 125 L 397 127.5 L 396.5 128 L 394 125.5 L 394.5 125 Z " /><path fill="rgb(122,128,139)" stroke="rgb(122,128,139)" stroke-width="1" opacity="0.996078431372549" d="M 531.5 126 Q 533 127 530.5 128 L 527 127.5 L 531.5 126 Z " /><path fill="rgb(122,128,139)" stroke="rgb(122,128,139)" stroke-width="1" opacity="0.996078431372549" d="M 381.5 127 L 384 129.5 L 383.5 130 L 382 129.5 L 381.5 127 Z " /><path fill="rgb(122,128,139)" stroke="rgb(122,128,139)" stroke-width="1" opacity="0.996078431372549" d="M 418.5 143 L 421 144.5 L 419.5 145 Q 417 144 418.5 143 Z " /><path fill="rgb(122,128,139)" stroke="rgb(122,128,139)" stroke-width="1" opacity="0.996078431372549" d="M 404.5 144 L 407 145.5 L 405.5 146 Q 403 145 404.5 144 Z " /><path fill="rgb(122,128,139)" stroke="rgb(122,128,139)" stroke-width="1" opacity="0.996078431372549" d="M 391.5 146 L 394 147.5 L 392.5 148 Q 390 147 391.5 146 Z " /><path fill="rgb(122,128,139)" stroke="rgb(122,128,139)" stroke-width="1" opacity="0.996078431372549" d="M 421.5 147 L 424 148.5 L 427 152.5 L 426.5 153 L 421 147.5 L 421.5 147 Z " /><path fill="rgb(122,128,139)" stroke="rgb(122,128,139)" stroke-width="1" opacity="0.996078431372549" d="M 407.5 148 L 410 149.5 L 413 153.5 L 412.5 154 L 407 148.5 L 407.5 148 Z " /><path fill="rgb(122,128,139)" stroke="rgb(122,128,139)" stroke-width="1" opacity="0.996078431372549" d="M 394.5 150 L 397 151.5 L 401 157.5 L 400.5 158 L 398 155.5 L 394 150.5 L 394.5 150 Z " /><path fill="rgb(122,128,139)" stroke="rgb(122,128,139)" stroke-width="1" opacity="0.996078431372549" d="M 380.5 152 L 383 153.5 L 381.5 154 Q 379 153 380.5 152 Z " /><path fill="rgb(122,128,139)" stroke="rgb(122,128,139)" stroke-width="1" opacity="0.996078431372549" d="M 384.5 156 L 389 161.5 L 388.5 162 L 384 157.5 L 384.5 156 Z " /><path fill="rgb(122,128,139)" stroke="rgb(122,128,139)" stroke-width="1" opacity="0.996078431372549" d="M 396.5 176 L 399 176.5 L 396.5 177 L 396.5 176 Z " /><path fill="rgb(122,128,139)" stroke="rgb(122,128,139)" stroke-width="1" opacity="0.996078431372549" d="M 396.5 196 L 397 196.5 L 392.5 201 L 392 200.5 L 396.5 196 Z " /><path fill="rgb(172,183,209)" stroke="rgb(172,183,209)" stroke-width="1" opacity="0.996078431372549" d="M 634.5 52 L 635 52.5 L 632.5 55 L 632 54.5 L 634.5 52 Z " /><path fill="rgb(172,183,209)" stroke="rgb(172,183,209)" stroke-width="1" opacity="0.996078431372549" d="M 482.5 106 L 485 107.5 L 483 108.5 L 479.5 113 L 452.5 129 L 431.5 143 L 426 145.5 L 429 149.5 L 428.5 150 L 426 147.5 L 414 131.5 L 415.5 129 L 417.5 130 L 418.5 128 L 420.5 129 L 421.5 127 L 423.5 128 L 424.5 126 L 426.5 127 L 427.5 125 L 429.5 126 L 433 124.5 L 432.5 123 L 434.5 124 L 435.5 122 L 437.5 123 L 444 120.5 L 443.5 119 L 446.5 120 L 446.5 118 L 449.5 119 L 449.5 117 L 452.5 118 L 452.5 116 L 455.5 117 L 455.5 115 L 458.5 116 L 458.5 114 L 461.5 115 L 461.5 113 L 464.5 114 L 464.5 112 L 467.5 113 L 467.5 111 L 470.5 112 L 470.5 110 L 473.5 111 L 473.5 109 L 476.5 110 L 476.5 108 L 479.5 109 L 479.5 107 L 482.5 108 L 482.5 106 Z " /><path fill="rgb(172,183,209)" stroke="rgb(172,183,209)" stroke-width="1" opacity="0.996078431372549" d="M 526.5 127 Q 529 128 527.5 129 L 524 128.5 L 526.5 127 Z " /><path fill="rgb(172,183,209)" stroke="rgb(172,183,209)" stroke-width="1" opacity="0.996078431372549" d="M 409.5 131 L 411 131.5 Q 409 132.5 411 133.5 L 411.5 135 L 413 134.5 Q 411 135.5 413 136.5 L 419.5 147 L 421.5 145 L 422 145.5 Q 418.5 147 421 148.5 L 423 151.5 L 422.5 152 L 420.5 150 L 417 151.5 L 418 154.5 L 417.5 155 L 414 151.5 L 402 134.5 Q 403.3 131.8 404.5 134 L 406 133.5 L 406.5 132 L 408.5 133 L 409.5 131 Z " /><path fill="rgb(172,183,209)" stroke="rgb(172,183,209)" stroke-width="1" opacity="0.996078431372549" d="M 398.5 135 L 398 136.5 L 399 137.5 L 400.5 140 L 402 140.5 Q 399.5 142 403 143.5 L 405.5 148 L 407.5 146 L 408 146.5 Q 404 148.5 408 150.5 L 408.5 152 L 410.5 150 L 411 150.5 L 410 151.5 L 412.5 154 L 420 159.5 L 418.5 160 L 412.5 155 L 406 158.5 L 406.5 160 L 392 141.5 L 391 137.5 L 392.5 138 L 394 137.5 L 394.5 136 L 396.5 137 L 398.5 135 Z " /><path fill="rgb(172,183,209)" stroke="rgb(172,183,209)" stroke-width="1" opacity="0.996078431372549" d="M 385.5 139 L 392.5 150 L 394.5 148 L 395 148.5 Q 391 150.5 395 152.5 L 395.5 154 L 397.5 152 L 398 152.5 L 397 155.5 L 400.5 159 L 401 157.5 L 400.5 156 L 406.5 162 L 408 161.5 L 407.5 163 L 403.5 161 Q 402.8 162.8 399.5 162 L 385.5 172 L 383 172.5 L 388 173.5 L 379.5 174 L 378.5 175 L 373 175.5 L 373.5 177 L 370.5 176 L 367 177.5 L 367.5 179 L 365.5 178 L 364 179.5 L 364.5 181 Q 363.5 179 362.5 181 L 361 181.5 L 361.5 183 L 359.5 182 L 359.5 184 L 357.5 183 L 357.5 185 L 355.5 184 L 355.5 186 L 353.5 185 L 353.5 187 L 350.5 186 L 348 187.5 L 348.5 189 L 345.5 188 L 343 189.5 L 343.5 191 L 340.5 190 L 340.5 192 L 338.5 191 L 335 192.5 L 335.5 194 L 333.5 193 L 333.5 195 L 331.5 194 L 331.5 196 Q 330.5 194 329.5 196 L 328 196.5 L 328.5 198 L 327 197.5 L 326 201.5 L 328 204.5 L 305.5 205 L 304.5 206 L 296.5 206 L 294.5 205 Q 293.5 207 289.5 206 L 289.5 204 L 240.5 205 L 239.5 204 L 231.5 204 L 230.5 206 L 226.5 205 L 225.5 207 L 224 206.5 L 223.5 208 Q 222.3 205.8 221 208.5 L 218.5 212 L 217.5 211 L 215 213.5 L 216 214.5 L 213.5 217 L 211 218.5 Q 213.3 219.8 210.5 221 L 209 221.5 L 209.5 223 L 207 224.5 L 207.5 226 L 206 226.5 L 206.5 228 L 205 228.5 L 205.5 230 L 204 230.5 L 204.5 232 L 203 232.5 L 203.5 234 L 201.5 235 Q 199 234 200.5 233 L 202 232.5 L 201.5 231 L 203 230.5 L 202 228.5 L 204 227.5 L 203.5 226 L 205 225.5 L 204 223.5 L 206 222.5 L 205.5 221 L 207 220.5 L 206 218.5 L 208 217.5 L 209 214.5 L 208.5 213 L 210 212.5 L 209 210.5 L 211 209.5 L 210 204.5 L 211 202.5 L 207 199.5 L 207.5 198 L 206 197.5 L 206.5 196 Q 207.8 198.3 209 195.5 L 208.5 194 L 211.5 195 L 212.5 193 L 217.5 194 L 218.5 192 Q 219.3 193.7 222.5 193 L 223.5 191 L 228.5 192 L 229.5 190 L 234.5 191 L 234.5 189 L 239.5 190 L 240.5 188 L 245.5 189 L 246.5 187 Q 247.3 188.8 250.5 188 L 251.5 186 L 255.5 187 L 256.5 185 L 261.5 186 L 262.5 184 Q 263.3 185.8 266.5 185 L 267.5 183 Q 268.3 184.8 271.5 184 L 272.5 182 Q 273.3 183.8 276.5 183 L 277.5 181 L 280.5 182 L 281.5 180 L 285.5 181 L 286.5 179 Q 287.3 180.8 290.5 180 L 291.5 178 L 294.5 179 L 295.5 177 L 298.5 178 L 299.5 176 L 302.5 177 L 303.5 175 L 306.5 176 L 307.5 174 L 310.5 175 L 311.5 173 L 314.5 174 L 315.5 172 L 317.5 173 L 318.5 171 L 321.5 172 L 322.5 170 L 324.5 171 L 325.5 169 L 327.5 170 L 328.5 168 L 330.5 169 L 331.5 167 L 333 167.5 L 333.5 166 L 335.5 167 L 336.5 165 L 338 165.5 L 338.5 164 L 340 164.5 L 340.5 163 L 342 163.5 L 342.5 162 L 343.5 163 L 346 160.5 L 347.5 158 L 348.5 159 L 351 156.5 L 351.5 155 Q 352.8 157.2 354 154.5 L 354.5 153 Q 355.5 155 356.5 153 L 362 150.5 L 361.5 149 L 363.5 150 L 370 146.5 L 370.5 145 L 372.5 146 L 372.5 144 L 376 145.5 Q 373.8 146.8 376.5 148 L 378 148.5 Q 375.8 149.8 378.5 151 L 380 151.5 L 379 152.5 L 381.5 155 L 383.5 154 L 383 155.5 L 384 156.5 L 383 157.5 L 388.5 163 L 389 161.5 L 386 158.5 L 386.5 158 L 393.5 165 L 394 164.5 L 378 142.5 L 380 142.5 L 380.5 141 L 382.5 142 L 383.5 140 L 385 140.5 L 385.5 139 Z " /><path fill="rgb(172,183,209)" stroke="rgb(172,183,209)" stroke-width="1" opacity="0.996078431372549" d="M 424.5 151 L 432 157.5 L 431.5 158 L 429.5 156 L 424 151.5 L 424.5 151 Z " /><path fill="rgb(172,183,209)" stroke="rgb(172,183,209)" stroke-width="1" opacity="0.996078431372549" d="M 381.5 175 L 390 175.5 L 381.5 176 L 381.5 175 Z " /><path fill="rgb(172,183,209)" stroke="rgb(172,183,209)" stroke-width="1" opacity="0.996078431372549" d="M 317.5 206 L 323 206.5 L 317.5 207 L 317.5 206 Z " /><path fill="rgb(193,202,226)" stroke="rgb(193,202,226)" stroke-width="1" opacity="0.996078431372549" d="M 580.5 75 L 583 76.5 L 555.5 94 L 552.5 95 L 547.5 99 L 544.5 100 L 539.5 104 L 536.5 105 L 531.5 102 L 530 102.5 Q 529.4 98.6 526.5 97 L 524 95.5 L 525.5 93 L 529.5 95 L 530.5 93 L 531 94.5 L 530.5 96 Q 532.7 97.8 537.5 97 L 538.5 95 Q 539.5 97 540.5 95 L 542 94.5 L 541.5 93 L 543 93.5 L 544 91.5 L 543.5 90 L 553.5 85 L 565 81.5 L 565.5 80 L 568.5 81 L 568.5 79 L 570.5 80 L 571.5 78 L 573.5 79 L 574.5 77 L 576.5 78 L 577.5 76 L 580.5 77 L 580.5 75 Z " /><path fill="rgb(193,202,226)" stroke="rgb(193,202,226)" stroke-width="1" opacity="0.996078431372549" d="M 501.5 101 L 502.5 102 L 504 101.5 L 501.5 105 L 500.5 104 L 496 108.5 L 498 110.5 L 497.5 111 L 495.5 109 L 495 109.5 L 494 115.5 L 493 116.5 L 493 132.5 L 491.5 134 Q 487.3 134.8 485.5 138 L 483.5 138 L 477.5 143 L 475.5 143 L 469.5 148 L 467.5 148 L 461.5 153 L 459.5 153 L 453.5 158 L 451.5 158 L 445.5 163 L 443.5 163 L 437.5 168 L 435.5 168 L 417.5 180 L 416.5 178 L 412.5 177 L 411 177.5 L 410.5 176 L 408 175.5 L 432 159.5 L 422 150.5 L 422.5 149 L 430.5 158 L 432 157.5 L 431.5 156 L 433 156.5 L 432 158.5 L 434.5 159 L 487 125.5 L 485 121.5 L 486 119.5 L 485 116.5 Q 484.3 113.3 486 112.5 L 485 110.5 L 487.5 107 L 489 106.5 L 488.5 105 L 491.5 106 L 491.5 104 L 493.5 105 L 495.5 103 L 496.5 104 L 498.5 102 Q 500 104.5 501.5 101 Z " /><path fill="rgb(193,202,226)" stroke="rgb(193,202,226)" stroke-width="1" opacity="0.996078431372549" d="M 456.5 115 L 459 115.5 L 436.5 123 L 436.5 122 L 456.5 115 Z " /><path fill="rgb(193,202,226)" stroke="rgb(193,202,226)" stroke-width="1" opacity="0.996078431372549" d="M 433.5 123 L 435 123.5 L 428.5 126 L 428.5 125 L 433.5 123 Z " /><path fill="rgb(193,202,226)" stroke="rgb(193,202,226)" stroke-width="1" opacity="0.996078431372549" d="M 410.5 132 L 412 134.5 L 411 134.5 L 410.5 132 Z " /><path fill="rgb(193,202,226)" stroke="rgb(193,202,226)" stroke-width="1" opacity="0.996078431372549" d="M 397.5 135 L 400 138.5 L 399 138.5 L 397.5 136 L 395.5 137 L 395.5 136 L 397.5 135 Z " /><path fill="rgb(193,202,226)" stroke="rgb(193,202,226)" stroke-width="1" opacity="0.996078431372549" d="M 386.5 139 L 396 153.5 L 404 161.5 L 403.5 162 L 395 153.5 L 386 140.5 L 386.5 139 Z " /><path fill="rgb(193,202,226)" stroke="rgb(193,202,226)" stroke-width="1" opacity="0.996078431372549" d="M 373.5 144 Q 375 145 372.5 146 L 371 145.5 L 373.5 144 Z " /><path fill="rgb(193,202,226)" stroke="rgb(193,202,226)" stroke-width="1" opacity="0.996078431372549" d="M 419.5 145 L 421 147.5 Q 420 149 419 146.5 L 419.5 145 Z " /><path fill="rgb(193,202,226)" stroke="rgb(193,202,226)" stroke-width="1" opacity="0.996078431372549" d="M 368.5 146 L 370 146.5 L 355.5 154 Q 354 153 356.5 152 L 368.5 146 Z " /><path fill="rgb(193,202,226)" stroke="rgb(193,202,226)" stroke-width="1" opacity="0.996078431372549" d="M 405.5 146 Q 409.9 154.1 417 159.5 L 416.5 160 L 408 151.5 L 405 147.5 L 405.5 146 Z " /><path fill="rgb(193,202,226)" stroke="rgb(193,202,226)" stroke-width="1" opacity="0.996078431372549" d="M 379.5 152 L 382 154.5 L 381.5 155 L 379 152.5 L 379.5 152 Z " /><path fill="rgb(193,202,226)" stroke="rgb(193,202,226)" stroke-width="1" opacity="0.996078431372549" d="M 350.5 156 L 351 156.5 L 347.5 160 L 347 159.5 L 350.5 156 Z " /><path fill="rgb(193,202,226)" stroke="rgb(193,202,226)" stroke-width="1" opacity="0.996078431372549" d="M 382.5 156 L 388 161.5 L 387.5 162 L 382 156.5 L 382.5 156 Z " /><path fill="rgb(193,202,226)" stroke="rgb(193,202,226)" stroke-width="1" opacity="0.996078431372549" d="M 417.5 156 L 419 158.5 L 418 158.5 L 417.5 156 Z " /><path fill="rgb(193,202,226)" stroke="rgb(193,202,226)" stroke-width="1" opacity="0.996078431372549" d="M 345.5 160 L 346 160.5 L 343.5 163 L 343 162.5 L 345.5 160 Z " /><path fill="rgb(193,202,226)" stroke="rgb(193,202,226)" stroke-width="1" opacity="0.996078431372549" d="M 319.5 171 L 322 171.5 L 319.5 172 L 319.5 171 Z " /><path fill="rgb(193,202,226)" stroke="rgb(193,202,226)" stroke-width="1" opacity="0.996078431372549" d="M 312.5 173 L 315 173.5 L 312.5 174 L 312.5 173 Z " /><path fill="rgb(193,202,226)" stroke="rgb(193,202,226)" stroke-width="1" opacity="0.996078431372549" d="M 308.5 174 L 311 174.5 L 308.5 175 L 308.5 174 Z " /><path fill="rgb(193,202,226)" stroke="rgb(193,202,226)" stroke-width="1" opacity="0.996078431372549" d="M 380.5 174 L 392 174.5 L 391.5 176 L 390.5 175 L 380.5 175 L 379 175.5 L 380.5 174 Z " /><path fill="rgb(193,202,226)" stroke="rgb(193,202,226)" stroke-width="1" opacity="0.996078431372549" d="M 373.5 175 L 375 175.5 L 372.5 177 Q 371 176 373.5 175 Z " /><path fill="rgb(193,202,226)" stroke="rgb(193,202,226)" stroke-width="1" opacity="0.996078431372549" d="M 300.5 176 L 303 176.5 L 300.5 177 L 300.5 176 Z " /><path fill="rgb(193,202,226)" stroke="rgb(193,202,226)" stroke-width="1" opacity="0.996078431372549" d="M 296.5 177 L 299 177.5 L 296.5 178 L 296.5 177 Z " /><path fill="rgb(193,202,226)" stroke="rgb(193,202,226)" stroke-width="1" opacity="0.996078431372549" d="M 292.5 178 L 295 178.5 L 292.5 179 L 292.5 178 Z " /><path fill="rgb(193,202,226)" stroke="rgb(193,202,226)" stroke-width="1" opacity="0.996078431372549" d="M 365.5 178 L 366 179.5 L 364.5 180 Q 363 179 365.5 178 Z " /><path fill="rgb(193,202,226)" stroke="rgb(193,202,226)" stroke-width="1" opacity="0.996078431372549" d="M 287.5 179 L 291 179.5 L 287.5 180 L 287.5 179 Z " /><path fill="rgb(193,202,226)" stroke="rgb(193,202,226)" stroke-width="1" opacity="0.996078431372549" d="M 283.5 180 L 286 180.5 L 283.5 181 L 283.5 180 Z " /><path fill="rgb(193,202,226)" stroke="rgb(193,202,226)" stroke-width="1" opacity="0.996078431372549" d="M 278.5 181 L 281 181.5 L 278.5 182 L 278.5 181 Z " /><path fill="rgb(193,202,226)" stroke="rgb(193,202,226)" stroke-width="1" opacity="0.996078431372549" d="M 273.5 182 L 277 182.5 L 273.5 183 L 273.5 182 Z " /><path fill="rgb(193,202,226)" stroke="rgb(193,202,226)" stroke-width="1" opacity="0.996078431372549" d="M 268.5 183 L 272 183.5 L 268.5 184 L 268.5 183 Z " /><path fill="rgb(193,202,226)" stroke="rgb(193,202,226)" stroke-width="1" opacity="0.996078431372549" d="M 263.5 184 L 267 184.5 L 263.5 185 L 263.5 184 Z " /><path fill="rgb(193,202,226)" stroke="rgb(193,202,226)" stroke-width="1" opacity="0.996078431372549" d="M 258.5 185 L 262 185.5 L 258.5 186 L 258.5 185 Z " /><path fill="rgb(193,202,226)" stroke="rgb(193,202,226)" stroke-width="1" opacity="0.996078431372549" d="M 253.5 186 L 256 186.5 L 253.5 187 L 253.5 186 Z " /><path fill="rgb(193,202,226)" stroke="rgb(193,202,226)" stroke-width="1" opacity="0.996078431372549" d="M 350.5 186 L 352 186.5 Q 351 189 350 187.5 L 350.5 186 Z " /><path fill="rgb(193,202,226)" stroke="rgb(193,202,226)" stroke-width="1" opacity="0.996078431372549" d="M 247.5 187 L 251 187.5 L 247.5 188 L 247.5 187 Z " /><path fill="rgb(193,202,226)" stroke="rgb(193,202,226)" stroke-width="1" opacity="0.996078431372549" d="M 242.5 188 L 246 188.5 L 242.5 189 L 242.5 188 Z " /><path fill="rgb(193,202,226)" stroke="rgb(193,202,226)" stroke-width="1" opacity="0.996078431372549" d="M 236.5 189 L 240 189.5 L 236.5 190 L 236.5 189 Z " /><path fill="rgb(193,202,226)" stroke="rgb(193,202,226)" stroke-width="1" opacity="0.996078431372549" d="M 231.5 190 L 235 190.5 L 231.5 191 L 231.5 190 Z " /><path fill="rgb(193,202,226)" stroke="rgb(193,202,226)" stroke-width="1" opacity="0.996078431372549" d="M 225.5 191 L 229 191.5 L 225.5 192 L 225.5 191 Z " /><path fill="rgb(193,202,226)" stroke="rgb(193,202,226)" stroke-width="1" opacity="0.996078431372549" d="M 219.5 192 L 223 192.5 L 219.5 193 L 219.5 192 Z " /><path fill="rgb(193,202,226)" stroke="rgb(193,202,226)" stroke-width="1" opacity="0.996078431372549" d="M 214.5 193 L 218 193.5 L 214.5 194 L 214.5 193 Z " /><path fill="rgb(193,202,226)" stroke="rgb(193,202,226)" stroke-width="1" opacity="0.996078431372549" d="M 209.5 194 L 212 194.5 Q 208.6 194.6 207.5 197 L 207 195.5 L 209.5 194 Z " /><path fill="rgb(193,202,226)" stroke="rgb(193,202,226)" stroke-width="1" opacity="0.996078431372549" d="M 328.5 196 L 330 196.5 L 328 197.5 L 326.5 200 L 327 198.5 L 328.5 196 Z " /><path fill="rgb(193,202,226)" stroke="rgb(193,202,226)" stroke-width="1" opacity="0.996078431372549" d="M 208.5 200 L 211 203.5 L 210 203.5 L 208 200.5 L 208.5 200 Z " /><path fill="rgb(193,202,226)" stroke="rgb(193,202,226)" stroke-width="1" opacity="0.996078431372549" d="M 231.5 204 L 240 204.5 L 231.5 205 L 231.5 204 Z " /><path fill="rgb(193,202,226)" stroke="rgb(193,202,226)" stroke-width="1" opacity="0.996078431372549" d="M 266.5 204 L 290 204.5 L 266.5 205 L 266.5 204 Z " /><path fill="rgb(193,202,226)" stroke="rgb(193,202,226)" stroke-width="1" opacity="0.996078431372549" d="M 305.5 205 L 329 205.5 L 305.5 206 L 305.5 205 Z " /><path fill="rgb(193,202,226)" stroke="rgb(193,202,226)" stroke-width="1" opacity="0.996078431372549" d="M 210.5 207 L 211 209.5 L 210 209.5 L 210.5 207 Z " /><path fill="rgb(193,202,226)" stroke="rgb(193,202,226)" stroke-width="1" opacity="0.996078431372549" d="M 218.5 210 L 219 210.5 L 214.5 215 L 214 214.5 L 218.5 210 Z " /><path fill="rgb(193,202,226)" stroke="rgb(193,202,226)" stroke-width="1" opacity="0.996078431372549" d="M 208.5 214 L 209 215.5 L 207.5 218 L 207 216.5 L 208.5 214 Z " /><path fill="rgb(193,202,226)" stroke="rgb(193,202,226)" stroke-width="1" opacity="0.996078431372549" d="M 200.5 234 L 201.5 235 L 203 234.5 L 200.5 237 L 200 236.5 L 200.5 234 Z " /><path fill="rgb(215,217,222)" stroke="rgb(215,217,222)" stroke-width="1" opacity="0.9921568627450981" d="M 637.5 47 L 640 51.5 Q 638.3 52.3 639 55.5 L 635 61.5 L 620.5 76 L 590.5 98 L 584.5 100 L 571.5 108 L 547.5 120 L 545.5 120 L 535.5 125 L 529.5 127 L 526.5 127 L 524 128.5 L 528.5 129 L 540.5 125 L 548.5 121 L 550.5 121 L 555.5 118 L 557.5 118 L 586.5 104 L 587 105.5 Q 583.4 113.9 576.5 119 L 507.5 164 L 497.5 169 L 483.5 178 L 463.5 188 L 454.5 191 L 443.5 193 L 442.5 194 L 433.5 195 L 432.5 196 L 427.5 196 L 426.5 197 Q 421.8 195.8 420.5 198 L 414.5 198 L 413.5 199 L 407.5 199 L 406.5 200 L 393.5 201 L 393 200.5 L 401.5 192 L 410.5 185 L 417 181.5 L 416.5 180 L 407 177.5 L 410.5 177 L 417.5 180 L 493 132.5 L 493 116.5 Q 494.8 115.8 494 112.5 L 495 109.5 L 501.5 103 L 503 103.5 L 504 101.5 L 501.5 101 L 492.5 104 L 492.5 103 L 525.5 92 L 528.5 92 Q 531 93 529.5 94 Q 528.7 92.3 525.5 93 L 523 94.5 L 529 99.5 L 530.5 103 Q 531.5 101 532.5 103 L 537.5 105 L 581.5 77 L 587 74.5 L 584.5 74 L 583.5 75 L 580.5 75 L 547.5 86 L 547.5 85 L 621.5 61 L 631.5 56 L 635 52.5 L 637.5 47 Z M 591 72 L 591 73 L 593 73 L 591 72 Z M 588 73 L 588 74 L 590 74 L 588 73 Z " /><path fill="rgb(215,217,222)" stroke="rgb(215,217,222)" stroke-width="1" opacity="0.9921568627450981" d="M 529.5 86 L 531 86.5 L 531 88.5 L 534.5 92 L 536.5 92 L 540 89.5 L 540.5 86 L 541 89.5 L 536.5 93 L 533.5 93 L 530 90.5 L 529.5 86 Z " /><path fill="rgb(215,217,222)" stroke="rgb(215,217,222)" stroke-width="1" opacity="0.9921568627450981" d="M 543.5 86 L 546 86.5 L 544 87.5 Q 543.6 93.1 539.5 95 Q 537.3 96.8 532.5 96 Q 530 95 531.5 94 Q 532.8 96.3 537.5 95 L 542 91.5 L 543.5 86 Z " /><path fill="rgb(215,217,222)" stroke="rgb(215,217,222)" stroke-width="1" opacity="0.9921568627450981" d="M 410.5 127 L 412.5 130 L 414 130.5 Q 421.9 144.1 432 155.5 L 430.5 156 L 422 146.5 L 411 129.5 L 410.5 127 Z " /><path fill="rgb(215,217,222)" stroke="rgb(215,217,222)" stroke-width="1" opacity="0.9921568627450981" d="M 396.5 128 L 400.5 134 L 402 134.5 L 418 157.5 L 417.5 158 L 412 152.5 L 400 135.5 L 396 128.5 L 396.5 128 Z " /><path fill="rgb(215,217,222)" stroke="rgb(215,217,222)" stroke-width="1" opacity="0.9921568627450981" d="M 383.5 130 L 406 160.5 L 405.5 161 L 399 154.5 L 387 137.5 L 383 130.5 L 383.5 130 Z " /><path fill="rgb(215,217,222)" stroke="rgb(215,217,222)" stroke-width="1" opacity="0.9921568627450981" d="M 371.5 135 L 393 163.5 L 392.5 164 L 385 156.5 L 372 137.5 L 371.5 135 Z " /><path fill="rgb(215,217,222)" stroke="rgb(215,217,222)" stroke-width="1" opacity="0.9921568627450981" d="M 375.5 175 L 379 175.5 L 375.5 176 L 375.5 175 Z " /><path fill="rgb(215,217,222)" stroke="rgb(215,217,222)" stroke-width="1" opacity="0.9921568627450981" d="M 392.5 175 L 400 175.5 L 392.5 176 L 392.5 175 Z " /><path fill="rgb(215,217,222)" stroke="rgb(215,217,222)" stroke-width="1" opacity="0.9921568627450981" d="M 401.5 176 L 406 176.5 L 401.5 177 L 401.5 176 Z " /><path fill="rgb(89,95,100)" stroke="rgb(89,95,100)" stroke-width="1" opacity="0.06274509803921569" d="M 296.5 206 L 300 206.5 L 296.5 207 L 296.5 206 Z " /><path fill="rgb(15,22,51)" stroke="rgb(15,22,51)" stroke-width="1" opacity="0.1843137254901961" d="M 610.5 40 L 613 40.5 L 610.5 41 L 610.5 40 Z " /><path fill="rgb(15,22,51)" stroke="rgb(15,22,51)" stroke-width="1" opacity="0.1843137254901961" d="M 462.5 47 L 469 47.5 L 462.5 48 L 462.5 47 Z " /><path fill="rgb(15,22,51)" stroke="rgb(15,22,51)" stroke-width="1" opacity="0.1843137254901961" d="M 452.5 48 L 458 48.5 L 452.5 49 L 452.5 48 Z " /><path fill="rgb(15,22,51)" stroke="rgb(15,22,51)" stroke-width="1" opacity="0.1843137254901961" d="M 443.5 49 L 448 49.5 L 443.5 50 L 443.5 49 Z " /><path fill="rgb(15,22,51)" stroke="rgb(15,22,51)" stroke-width="1" opacity="0.1843137254901961" d="M 435.5 50 L 439 50.5 L 435.5 51 L 435.5 50 Z " /><path fill="rgb(15,22,51)" stroke="rgb(15,22,51)" stroke-width="1" opacity="0.1843137254901961" d="M 428.5 51 L 432 51.5 L 428.5 52 L 428.5 51 Z " /><path fill="rgb(15,22,51)" stroke="rgb(15,22,51)" stroke-width="1" opacity="0.1843137254901961" d="M 421.5 52 L 425 52.5 L 421.5 53 L 421.5 52 Z " /><path fill="rgb(15,22,51)" stroke="rgb(15,22,51)" stroke-width="1" opacity="0.1843137254901961" d="M 416.5 53 L 419 53.5 L 416.5 54 L 416.5 53 Z " /><path fill="rgb(15,22,51)" stroke="rgb(15,22,51)" stroke-width="1" opacity="0.1843137254901961" d="M 410.5 54 L 413 54.5 L 410.5 55 L 410.5 54 Z " /><path fill="rgb(15,22,51)" stroke="rgb(15,22,51)" stroke-width="1" opacity="0.1843137254901961" d="M 401.5 56 L 404 56.5 L 401.5 57 L 401.5 56 Z " /><path fill="rgb(15,22,51)" stroke="rgb(15,22,51)" stroke-width="1" opacity="0.1843137254901961" d="M 396.5 57 L 399 57.5 L 396.5 58 L 396.5 57 Z " /><path fill="rgb(15,22,51)" stroke="rgb(15,22,51)" stroke-width="1" opacity="0.1843137254901961" d="M 387.5 59 L 390 59.5 L 387.5 60 L 387.5 59 Z " /><path fill="rgb(15,22,51)" stroke="rgb(15,22,51)" stroke-width="1" opacity="0.1843137254901961" d="M 382.5 60 L 385 60.5 L 382.5 61 L 382.5 60 Z " /><path fill="rgb(15,22,51)" stroke="rgb(15,22,51)" stroke-width="1" opacity="0.1843137254901961" d="M 377.5 61 L 380 61.5 L 377.5 62 L 377.5 61 Z " /><path fill="rgb(15,22,51)" stroke="rgb(15,22,51)" stroke-width="1" opacity="0.1843137254901961" d="M 373.5 62 L 376 62.5 L 373.5 63 L 373.5 62 Z " /><path fill="rgb(15,22,51)" stroke="rgb(15,22,51)" stroke-width="1" opacity="0.1843137254901961" d="M 368.5 63 L 371 63.5 L 368.5 64 L 368.5 63 Z " /><path fill="rgb(15,22,51)" stroke="rgb(15,22,51)" stroke-width="1" opacity="0.1843137254901961" d="M 363.5 64 L 366 64.5 L 363.5 65 L 363.5 64 Z " /><path fill="rgb(15,22,51)" stroke="rgb(15,22,51)" stroke-width="1" opacity="0.1843137254901961" d="M 358.5 65 L 361 65.5 L 358.5 66 L 358.5 65 Z " /><path fill="rgb(15,22,51)" stroke="rgb(15,22,51)" stroke-width="1" opacity="0.1843137254901961" d="M 352.5 66 L 356 66.5 L 352.5 67 L 352.5 66 Z " /><path fill="rgb(15,22,51)" stroke="rgb(15,22,51)" stroke-width="1" opacity="0.1843137254901961" d="M 346.5 67 L 350 67.5 L 346.5 68 L 346.5 67 Z " /><path fill="rgb(15,22,51)" stroke="rgb(15,22,51)" stroke-width="1" opacity="0.1843137254901961" d="M 340.5 68 L 344 68.5 L 340.5 69 L 340.5 68 Z " /><path fill="rgb(15,22,51)" stroke="rgb(15,22,51)" stroke-width="1" opacity="0.1843137254901961" d="M 166.5 133 L 173 133.5 L 166.5 134 L 166.5 133 Z " /><path fill="rgb(0,0,0)" stroke="rgb(0,0,0)" stroke-width="1" opacity="0" d="M 0.5 0 L 238 0.5 L 236 4.5 L 236 16.5 Q 234.3 17.3 235 20.5 L 236 21.5 L 236 37.5 Q 238.3 38.8 237 43.5 L 244 64.5 L 244 67.5 L 246 72.5 L 247 82.5 L 245 88.5 L 239 98.5 L 225.5 114 L 214.5 120 L 212.5 120 L 209.5 122 L 204.5 123 L 201.5 125 L 189.5 129 L 186.5 129 L 174.5 133 L 165.5 133 L 155.5 125 L 151.5 123 L 147.5 123 L 145 124.5 Q 144 130 146 132.5 Q 144.3 133.3 145 136.5 L 143.5 138 L 140.5 140 L 136.5 140 Q 125.5 127 110.5 118 L 47.5 88 L 45.5 88 L 15.5 74 L 13.5 74 L 10.5 72 L 0 68.5 L 0.5 0 Z " /><path fill="rgb(0,0,0)" stroke="rgb(0,0,0)" stroke-width="1" opacity="0" d="M 243.5 0 L 640 0.5 L 640 45.5 L 639 46.5 L 639.5 48 L 637.5 46 L 622.5 41 L 620.5 42 L 619.5 41 L 613.5 41 L 610.5 40 L 609.5 41 L 590.5 41 L 588.5 40 L 587.5 41 L 576.5 41 L 573.5 42 L 571.5 41 L 570.5 42 L 563.5 42 Q 562.8 43.8 559.5 43 L 557.5 42 L 556.5 43 L 547.5 43 Q 546.5 45 542.5 44 Q 541.5 42 540.5 44 L 526.5 44 L 525.5 45 L 503.5 45 L 502.5 46 L 485.5 46 L 484.5 47 L 470.5 47 L 469.5 48 L 468.5 47 L 462.5 47 L 461.5 48 L 452.5 48 L 451.5 49 L 443.5 49 L 442.5 50 L 435.5 50 L 434.5 51 L 421.5 52 L 420.5 53 L 416.5 53 L 415.5 54 L 410.5 54 L 405.5 56 L 396.5 57 L 391.5 59 L 377.5 61 L 372.5 63 L 363.5 64 L 357.5 66 L 352.5 66 L 351.5 67 L 346.5 67 L 345.5 68 L 340.5 68 L 339.5 69 L 333.5 69 L 332.5 70 L 330.5 69 Q 329.5 71 325.5 70 Q 324.2 67.8 319.5 69 L 312.5 65 L 298 50.5 L 259.5 11 L 248.5 3 L 243.5 1 L 243.5 0 Z " /><path fill="rgb(0,0,0)" stroke="rgb(0,0,0)" stroke-width="1" opacity="0" d="M 638.5 58 L 640 59.5 L 640 338.5 L 282.5 339 L 282 338.5 L 306 314.5 L 339 275.5 L 356 251.5 L 363 237.5 L 371 225.5 L 382 211.5 L 391.5 202 L 402.5 201 L 403.5 200 L 410.5 200 L 411.5 199 L 417.5 199 L 418.5 198 L 424.5 198 L 430.5 196 L 435.5 196 L 436.5 195 L 440.5 195 L 441.5 194 L 445.5 194 L 446.5 193 L 453.5 192 L 462.5 189 L 465.5 187 L 467.5 187 L 493.5 173 L 513.5 160 L 521.5 156 L 529.5 150 L 532.5 149 L 570.5 124 L 583.5 113 Q 584.7 115.2 586 112.5 L 585.5 111 L 584 111.5 L 585.5 110 Q 586.8 112.3 588 109.5 L 589 105.5 L 588 105.5 L 587.5 107 L 587 105.5 L 590 100.5 L 588 99.5 L 603.5 90 L 615.5 81 L 635.5 62 L 636.5 63 L 639 60.5 L 638.5 59 L 636.5 61 L 636 60.5 L 638.5 58 Z M 461 190 L 461 191 L 463 191 L 461 190 Z M 458 191 L 458 192 L 460 192 L 458 191 Z M 455 192 L 455 193 L 457 193 L 455 192 Z M 451 193 L 451 194 L 454 194 L 451 193 Z M 447 194 L 447 195 L 450 195 L 447 194 Z M 442 195 L 442 196 L 446 196 L 442 195 Z M 437 196 L 437 197 L 441 197 L 437 196 Z M 432 197 L 432 198 L 436 198 L 432 197 Z M 426 198 L 426 199 L 430 199 L 426 198 Z M 420 199 L 420 200 L 424 200 L 420 199 Z M 413 200 L 413 201 L 418 201 L 413 200 Z M 405 201 L 405 202 L 411 202 L 405 201 Z M 398 202 L 398 203 L 403 203 L 398 202 Z M 393 203 L 393 204 L 395 204 L 393 203 Z " /><path fill="rgb(0,0,0)" stroke="rgb(0,0,0)" stroke-width="1" opacity="0" d="M 0.5 71 L 6.5 77 L 32.5 95 L 74.5 127 L 111.5 157 L 129 173.5 L 132 181.5 L 135 196.5 L 136 197.5 L 136 201.5 L 138 207.5 L 138 212.5 L 139 213.5 L 140 227.5 Q 138 228.5 140 229.5 L 140.5 231 L 145.5 232 L 148.5 231 L 154 226.5 L 157 219.5 L 158 185.5 Q 156.3 184.8 157 181.5 L 159.5 181 L 168 186.5 L 173 197.5 L 173 199.5 L 175.5 203 L 177.5 203 L 181.5 200 L 188.5 200 L 191 202.5 Q 190 206.5 192 207.5 L 192 214.5 L 193 215.5 L 193 235.5 L 195.5 239 L 198.5 240 L 202.5 237 Q 203.8 239.3 205 236.5 L 204.5 235 L 203 235.5 L 204.5 234 Q 205.8 236.3 207 233.5 L 211 224.5 L 209 224.5 L 210.5 223 Q 211.7 225.3 213 222.5 L 212.5 221 L 211 221.5 L 212.5 220 Q 213.8 222.3 215 219.5 L 214.5 218 L 213 218.5 L 217.5 213 L 222.5 209 L 230.5 206 L 294.5 206 L 295.5 207 L 331 207.5 L 331 213.5 L 326 228.5 L 308 263.5 L 308 265.5 L 302 276.5 L 302 278.5 L 297 287.5 L 297 289.5 L 287 311.5 L 280 332.5 L 279.5 339 L 0 338.5 L 0.5 71 Z M 232 207 L 232 208 L 290 208 L 232 207 Z M 227 208 L 227 209 L 230 209 L 227 208 Z M 297 208 L 297 209 L 330 209 L 297 208 Z " /><path fill="rgb(40,47,63)" stroke="rgb(40,47,63)" stroke-width="1" opacity="0.996078431372549" d="M 585.5 43 L 613 43.5 L 601.5 44 L 596.5 46 Q 595.5 44 594.5 46 L 586.5 46 L 585.5 45 L 584.5 46 L 581.5 45 L 569 44.5 L 584.5 44 L 585.5 43 Z " /><path fill="rgb(40,47,63)" stroke="rgb(40,47,63)" stroke-width="1" opacity="0.996078431372549" d="M 561.5 45 L 564 45.5 L 561.5 46 L 561.5 45 Z " /><path fill="rgb(40,47,63)" stroke="rgb(40,47,63)" stroke-width="1" opacity="0.996078431372549" d="M 415.5 64 Q 416.5 66 417.5 64 L 425.5 64 L 427 65.5 L 422 66.5 L 421.5 68 L 402.5 75 L 392.5 77 L 389.5 79 L 386.5 79 L 382.5 81 L 375.5 82 L 368.5 85 L 355.5 85 L 354.5 84 L 347.5 84 Q 346.5 82 342.5 83 L 336.5 81 L 335 79.5 L 336.5 80 L 339.5 80 L 340.5 79 L 343.5 79 L 347.5 77 L 355.5 76 L 360.5 74 L 364.5 74 L 369.5 72 L 374.5 72 L 379.5 70 L 383.5 70 L 388.5 68 Q 389.5 70 390.5 68 L 395.5 68 L 396.5 67 L 404.5 66 L 405.5 65 L 414.5 65 L 415.5 64 Z " /><path fill="rgb(40,47,63)" stroke="rgb(40,47,63)" stroke-width="1" opacity="0.996078431372549" d="M 540.5 85 L 543 88.5 Q 542 90 541 87.5 L 540.5 85 Z " /><path fill="rgb(40,47,63)" stroke="rgb(40,47,63)" stroke-width="1" opacity="0.996078431372549" d="M 510.5 92 L 518.5 92 L 520 93.5 L 518.5 93 L 517 93.5 L 516.5 95 L 513.5 95 L 506.5 98 L 505.5 97 Q 504 100.5 502.5 98 L 501 98.5 L 501.5 100 L 498.5 99 L 498.5 101 L 495 99.5 L 502.5 94 L 505.5 93 Q 506.5 95 507.5 93 L 510.5 92 Z " /><path fill="rgb(40,47,63)" stroke="rgb(40,47,63)" stroke-width="1" opacity="0.996078431372549" d="M 534.5 125 Q 536 126 533.5 127 L 532 126.5 L 534.5 125 Z " /><path fill="rgb(40,47,63)" stroke="rgb(40,47,63)" stroke-width="1" opacity="0.996078431372549" d="M 379.5 149 L 382 152.5 L 381.5 153 L 379 150.5 L 379.5 149 Z " /><path fill="rgb(40,47,63)" stroke="rgb(40,47,63)" stroke-width="1" opacity="0.996078431372549" d="M 399.5 193 L 400 193.5 L 397.5 196 L 397 195.5 L 399.5 193 Z " /><path fill="rgb(192,199,209)" stroke="rgb(192,199,209)" stroke-width="1" opacity="0.9882352941176471" d="M 587.5 73 L 589 73.5 L 578.5 77 L 578.5 76 L 587.5 73 Z " /><path fill="rgb(192,199,209)" stroke="rgb(192,199,209)" stroke-width="1" opacity="0.9882352941176471" d="M 569.5 79 L 571 79.5 L 566.5 81 L 566.5 80 L 569.5 79 Z " /><path fill="rgb(192,199,209)" stroke="rgb(192,199,209)" stroke-width="1" opacity="0.9882352941176471" d="M 562.5 81 L 565 81.5 L 548.5 87 L 544.5 90 L 544 87.5 L 547 86.5 L 546.5 85 L 549.5 86 L 549.5 84 L 552.5 85 L 552.5 83 L 555.5 84 L 555.5 82 L 558.5 83 L 562.5 81 Z " /><path fill="rgb(192,199,209)" stroke="rgb(192,199,209)" stroke-width="1" opacity="0.9882352941176471" d="M 543.5 91 L 543 92.5 L 541.5 95 L 539.5 96 Q 538 95 540.5 94 L 542 93.5 L 543.5 91 Z " /><path fill="rgb(192,199,209)" stroke="rgb(192,199,209)" stroke-width="1" opacity="0.9882352941176471" d="M 526.5 93 L 528.5 93 L 531.5 95 L 533 94.5 L 532.5 96 L 538 96.5 L 532.5 97 L 531.5 98 L 531.5 96 L 528.5 94 L 526.5 94 L 526.5 93 Z " /><path fill="rgb(192,199,209)" stroke="rgb(192,199,209)" stroke-width="1" opacity="0.9882352941176471" d="M 491.5 103 L 494 104.5 L 486 108.5 L 485 111.5 Q 487 112.5 485 113.5 Q 484.3 116.8 486 117.5 Q 484 118.5 486 119.5 L 485 121.5 L 487 125.5 L 434.5 159 L 433.5 158 L 429.5 162 L 418.5 168 L 408 175.5 L 411 176.5 L 407.5 177 Q 406.3 174.8 401.5 176 L 400 176.5 L 400.5 175 L 392.5 175 L 391.5 174 L 383 172.5 L 385.5 172 L 399.5 162 L 405.5 162 L 407.5 163 L 408 161.5 L 406 160.5 L 407 159.5 L 406.5 158 L 409.5 156 L 412.5 156 L 416.5 160 L 418 159.5 L 418.5 161 Q 421.3 159.8 419 158.5 L 417 155.5 Q 419 154.5 417 153.5 L 417.5 151 L 421.5 149 L 421 150.5 L 422.5 152 L 428.5 157 Q 429.8 154.8 431 157.5 L 430.5 159 L 433 157.5 L 428 150.5 Q 430 149.5 428 148.5 L 426 145.5 L 431.5 143 L 436.5 139 L 439.5 138 L 444.5 134 L 479.5 113 L 483 109.5 L 483.5 108 L 486.5 106 L 492 104.5 L 491.5 103 Z " /><path fill="rgb(192,199,209)" stroke="rgb(192,199,209)" stroke-width="1" opacity="0.9882352941176471" d="M 412.5 177 L 417 178.5 L 415.5 179 L 412.5 178 L 412.5 177 Z " /><path fill="rgb(192,199,209)" stroke="rgb(192,199,209)" stroke-width="1" opacity="0.9882352941176471" d="M 409.5 187 L 410 187.5 L 407.5 190 L 407 189.5 L 409.5 187 Z " /><path fill="rgb(192,199,209)" stroke="rgb(192,199,209)" stroke-width="1" opacity="0.9882352941176471" d="M 402.5 191 L 403.5 192 L 405 191.5 L 401.5 195 L 401 194.5 L 403 192.5 L 402.5 191 Z " /><path fill="rgb(138,145,179)" stroke="rgb(138,145,179)" stroke-width="1" opacity="0.050980392156862744" d="M 300.5 206 L 303 206.5 L 300.5 207 L 300.5 206 Z " /><path fill="rgb(138,145,179)" stroke="rgb(138,145,179)" stroke-width="1" opacity="0.050980392156862744" d="M 238.5 207 L 241 207.5 L 238.5 208 L 238.5 207 Z " /><path fill="rgb(138,145,179)" stroke="rgb(138,145,179)" stroke-width="1" opacity="0.050980392156862744" d="M 265.5 207 L 271 207.5 L 265.5 208 L 265.5 207 Z " /><path fill="rgb(138,145,179)" stroke="rgb(138,145,179)" stroke-width="1" opacity="0.050980392156862744" d="M 298.5 208 L 304 208.5 L 298.5 209 L 298.5 208 Z " /><path fill="rgb(166,177,195)" stroke="rgb(166,177,195)" stroke-width="1" opacity="0.5568627450980392" d="M 631.5 65 L 632 65.5 L 627.5 70 L 627 69.5 L 631.5 65 Z " /><path fill="rgb(166,177,195)" stroke="rgb(166,177,195)" stroke-width="1" opacity="0.5568627450980392" d="M 231.5 205 L 239 205.5 L 231.5 206 L 231.5 205 Z " /><path fill="rgb(166,177,195)" stroke="rgb(166,177,195)" stroke-width="1" opacity="0.5568627450980392" d="M 268.5 205 L 289 205.5 L 268.5 206 L 268.5 205 Z " /><path fill="rgb(166,177,195)" stroke="rgb(166,177,195)" stroke-width="1" opacity="0.5568627450980392" d="M 309.5 206 L 317 206.5 L 309.5 207 L 309.5 206 Z " /><path fill="rgb(166,177,195)" stroke="rgb(166,177,195)" stroke-width="1" opacity="0.5568627450980392" d="M 323.5 206 L 330 206.5 L 323.5 207 L 323.5 206 Z " /><path fill="rgb(166,177,195)" stroke="rgb(166,177,195)" stroke-width="1" opacity="0.5568627450980392" d="M 202.5 235 L 203 235.5 L 199.5 239 L 199 238.5 L 202.5 235 Z " /><path fill="rgb(216,223,223)" stroke="rgb(216,223,223)" stroke-width="1" opacity="0.023529411764705882" d="M 636.5 62 L 637 62.5 L 634.5 65 L 634 64.5 L 636.5 62 Z " /><path fill="rgb(216,223,223)" stroke="rgb(216,223,223)" stroke-width="1" opacity="0.023529411764705882" d="M 619.5 78 L 620 78.5 L 617.5 81 L 617 80.5 L 619.5 78 Z " /><path fill="rgb(216,223,223)" stroke="rgb(216,223,223)" stroke-width="1" opacity="0.023529411764705882" d="M 581.5 116 L 582 116.5 L 579.5 119 L 579 118.5 L 581.5 116 Z " /><path fill="rgb(216,223,223)" stroke="rgb(216,223,223)" stroke-width="1" opacity="0.023529411764705882" d="M 241.5 207 L 265 207.5 L 241.5 208 L 241.5 207 Z " /><path fill="rgb(216,223,223)" stroke="rgb(216,223,223)" stroke-width="1" opacity="0.023529411764705882" d="M 271.5 207 L 274 207.5 L 271.5 208 L 271.5 207 Z " /><path fill="rgb(216,223,223)" stroke="rgb(216,223,223)" stroke-width="1" opacity="0.023529411764705882" d="M 304.5 208 L 308 208.5 L 304.5 209 L 304.5 208 Z " /><path fill="rgb(216,223,223)" stroke="rgb(216,223,223)" stroke-width="1" opacity="0.023529411764705882" d="M 213.5 220 L 214 220.5 L 212 222.5 L 210.5 225 L 211 223.5 L 213.5 220 Z " /><path fill="rgb(169,172,179)" stroke="rgb(169,172,179)" stroke-width="1" opacity="0.21176470588235294" d="M 634.5 62 L 635 62.5 L 632.5 65 L 632 64.5 L 634.5 62 Z " /><path fill="rgb(169,172,179)" stroke="rgb(169,172,179)" stroke-width="1" opacity="0.21176470588235294" d="M 626.5 70 L 627 70.5 L 623.5 74 L 623 73.5 L 626.5 70 Z " /><path fill="rgb(169,172,179)" stroke="rgb(169,172,179)" stroke-width="1" opacity="0.21176470588235294" d="M 581.5 114 L 582 114.5 L 579.5 117 L 579 116.5 L 581.5 114 Z " /><path fill="rgb(169,172,179)" stroke="rgb(169,172,179)" stroke-width="1" opacity="0.21176470588235294" d="M 239.5 205 L 268 205.5 L 239.5 206 L 239.5 205 Z " /><path fill="rgb(169,172,179)" stroke="rgb(169,172,179)" stroke-width="1" opacity="0.21176470588235294" d="M 303.5 206 L 309 206.5 L 303.5 207 L 303.5 206 Z " /><path fill="rgb(255,255,255)" stroke="rgb(255,255,255)" stroke-width="1" opacity="0.00784313725490196" d="M 633.5 65 L 634 65.5 L 629.5 70 L 629 69.5 L 633.5 65 Z " /><path fill="rgb(255,255,255)" stroke="rgb(255,255,255)" stroke-width="1" opacity="0.00784313725490196" d="M 627.5 71 L 628 71.5 L 625.5 74 L 625 73.5 L 627.5 71 Z " /><path fill="rgb(255,255,255)" stroke="rgb(255,255,255)" stroke-width="1" opacity="0.00784313725490196" d="M 616.5 81 Q 618 82 615.5 83 L 614 82.5 L 616.5 81 Z " /><path fill="rgb(255,255,255)" stroke="rgb(255,255,255)" stroke-width="1" opacity="0.00784313725490196" d="M 606.5 88 L 608 88.5 L 604.5 91 L 604 90.5 L 606.5 88 Z " /><path fill="rgb(255,255,255)" stroke="rgb(255,255,255)" stroke-width="1" opacity="0.00784313725490196" d="M 593.5 97 L 594 97.5 L 591.5 100 L 591 99.5 L 593.5 97 Z " /><path fill="rgb(255,255,255)" stroke="rgb(255,255,255)" stroke-width="1" opacity="0.00784313725490196" d="M 587.5 107 L 589 107.5 L 587.5 110 L 586 109.5 L 587.5 107 Z " /><path fill="rgb(255,255,255)" stroke="rgb(255,255,255)" stroke-width="1" opacity="0.00784313725490196" d="M 585.5 111 L 586 112.5 L 584.5 113 Q 583 112 585.5 111 Z " /><path fill="rgb(255,255,255)" stroke="rgb(255,255,255)" stroke-width="1" opacity="0.00784313725490196" d="M 569.5 125 L 571 125.5 L 560.5 132 L 560.5 131 L 569.5 125 Z " /><path fill="rgb(255,255,255)" stroke="rgb(255,255,255)" stroke-width="1" opacity="0.00784313725490196" d="M 557.5 133 L 559 133.5 L 551.5 138 L 551.5 137 L 557.5 133 Z " /><path fill="rgb(255,255,255)" stroke="rgb(255,255,255)" stroke-width="1" opacity="0.00784313725490196" d="M 534.5 148 L 535 148.5 L 532.5 151 L 531 150.5 L 534.5 148 Z " /><path fill="rgb(255,255,255)" stroke="rgb(255,255,255)" stroke-width="1" opacity="0.00784313725490196" d="M 528.5 152 Q 530 153 527.5 154 L 526 153.5 L 528.5 152 Z " /><path fill="rgb(255,255,255)" stroke="rgb(255,255,255)" stroke-width="1" opacity="0.00784313725490196" d="M 520.5 157 Q 522 158 519.5 159 L 518 158.5 L 520.5 157 Z " /><path fill="rgb(255,255,255)" stroke="rgb(255,255,255)" stroke-width="1" opacity="0.00784313725490196" d="M 510.5 163 L 511 163.5 L 508.5 166 L 508 165.5 L 510.5 163 Z " /><path fill="rgb(255,255,255)" stroke="rgb(255,255,255)" stroke-width="1" opacity="0.00784313725490196" d="M 505.5 166 L 507 166.5 L 497.5 172 L 497.5 171 L 505.5 166 Z " /><path fill="rgb(255,255,255)" stroke="rgb(255,255,255)" stroke-width="1" opacity="0.00784313725490196" d="M 490.5 175 Q 492 176 489.5 177 L 487.5 178 Q 486 177 488.5 176 L 490.5 175 Z " /><path fill="rgb(255,255,255)" stroke="rgb(255,255,255)" stroke-width="1" opacity="0.00784313725490196" d="M 485.5 178 Q 487 179 484.5 180 L 483 179.5 L 485.5 178 Z " /><path fill="rgb(255,255,255)" stroke="rgb(255,255,255)" stroke-width="1" opacity="0.00784313725490196" d="M 476.5 183 Q 478 184 475.5 185 L 468.5 188 L 468.5 187 L 476.5 183 Z " /><path fill="rgb(255,255,255)" stroke="rgb(255,255,255)" stroke-width="1" opacity="0.00784313725490196" d="M 460.5 190 L 462 190.5 L 459.5 192 Q 458 191 460.5 190 Z " /><path fill="rgb(255,255,255)" stroke="rgb(255,255,255)" stroke-width="1" opacity="0.00784313725490196" d="M 454.5 192 L 456 192.5 L 453.5 194 Q 452 193 454.5 192 Z " /><path fill="rgb(255,255,255)" stroke="rgb(255,255,255)" stroke-width="1" opacity="0.00784313725490196" d="M 446.5 194 Q 448 195 445.5 196 L 444 195.5 L 446.5 194 Z " /><path fill="rgb(255,255,255)" stroke="rgb(255,255,255)" stroke-width="1" opacity="0.00784313725490196" d="M 436.5 196 L 438 196.5 L 435.5 198 Q 434 197 436.5 196 Z " /><path fill="rgb(255,255,255)" stroke="rgb(255,255,255)" stroke-width="1" opacity="0.00784313725490196" d="M 404.5 201 L 407 201.5 L 404.5 202 L 404.5 201 Z " /><path fill="rgb(255,255,255)" stroke="rgb(255,255,255)" stroke-width="1" opacity="0.00784313725490196" d="M 231.5 207 L 234 207.5 L 231.5 208 L 231.5 207 Z " /><path fill="rgb(255,255,255)" stroke="rgb(255,255,255)" stroke-width="1" opacity="0.00784313725490196" d="M 274.5 207 L 278 207.5 L 274.5 208 L 274.5 207 Z " /><path fill="rgb(255,255,255)" stroke="rgb(255,255,255)" stroke-width="1" opacity="0.00784313725490196" d="M 285.5 207 L 290 207.5 L 285.5 208 L 285.5 207 Z " /><path fill="rgb(255,255,255)" stroke="rgb(255,255,255)" stroke-width="1" opacity="0.00784313725490196" d="M 315.5 208 L 328 208.5 L 315.5 209 L 315.5 208 Z " /><path fill="rgb(255,255,255)" stroke="rgb(255,255,255)" stroke-width="1" opacity="0.00784313725490196" d="M 209.5 225 L 210 226.5 Q 209 229 208 227.5 L 209.5 225 Z " /></svg>