<svg viewBox="0 0 640 355" version="1.1" xmlns="http://www.w3.org/2000/svg" desc="Created with imagetracer.js version 1.2.6" ><path fill="rgb(0,0,0)" stroke="rgb(0,0,0)" stroke-width="1" opacity="0" d="M 0.5 0 L 640 0.5 L 639.5 119 L 553.5 119 L 552.5 118 Q 551.8 119.8 548.5 119 L 548.5 118 L 554.5 116 L 581.5 102 L 594.5 93 L 605 82.5 L 607 77.5 L 603.5 73 L 588.5 73 L 587.5 74 L 579.5 75 L 561.5 81 L 535.5 93 L 517.5 104 L 510.5 110 L 510.5 108 L 508 109.5 L 509 110.5 L 504 115.5 L 503.5 117 Q 501 116 502.5 115 L 504 114.5 Q 502.8 111.8 501.5 114 L 496.5 109 L 476.5 95 L 450.5 82 L 420.5 72 Q 416.5 73 415.5 71 L 402.5 71 L 399.5 73 Q 398.3 70.8 397 73.5 L 397.5 75 L 399 74.5 L 398 77.5 L 400 80.5 L 398 80.5 L 399.5 83 L 400.5 82 L 409.5 91 L 434.5 107 L 451.5 115 L 458.5 117 L 460 118.5 L 458.5 119 L 456.5 118 L 455.5 119 L 0.5 119 L 0.5 0 Z M 403 69 L 403 70 L 416 70 L 403 69 Z M 417 70 L 417 71 L 421 71 L 417 70 Z M 422 71 L 422 72 L 425 72 L 422 71 Z M 589 71 L 589 72 L 595 72 L 589 71 Z M 601 71 L 601 72 L 603 72 L 601 71 Z M 426 72 L 426 73 L 428 73 L 426 72 Z M 584 72 L 584 73 L 587 73 L 584 72 Z M 430 73 L 430 74 L 432 74 L 430 73 Z M 580 73 L 580 74 L 583 74 L 580 73 Z M 433 74 L 433 75 L 435 75 L 433 74 Z M 577 74 L 577 75 L 579 75 L 577 74 Z M 436 75 L 436 76 L 438 76 L 436 75 Z M 574 75 L 574 76 L 576 76 L 574 75 Z M 444 78 L 444 79 L 446 79 L 444 78 Z M 565 78 L 565 79 L 567 79 L 565 78 Z M 562 79 L 562 80 L 564 80 L 562 79 Z M 548 85 L 548 86 L 550 86 L 548 85 Z " /><path fill="rgb(0,0,0)" stroke="rgb(0,0,0)" stroke-width="1" opacity="0" d="M 404.5 75 L 412.5 75 L 413.5 76 L 417.5 76 L 418.5 77 L 425.5 78 L 434.5 81 L 437.5 83 L 439.5 83 L 442.5 85 L 444.5 85 L 447.5 87 L 449.5 87 L 458.5 92 L 460.5 92 L 486.5 107 L 499 118.5 L 497.5 118 L 496.5 119 L 476.5 119 L 475.5 118 L 472.5 118 L 466.5 116 L 458.5 112 L 456.5 112 L 433.5 101 L 431.5 99 L 421.5 94 Q 411.3 88.2 404 79.5 L 406 79.5 L 404.5 77 L 403 77.5 L 404.5 75 Z M 407 76 L 407 77 L 411 77 L 407 76 Z M 414 77 L 414 78 L 417 78 L 414 77 Z M 419 78 L 419 79 L 421 79 L 419 78 Z M 423 79 L 423 80 L 425 80 L 423 79 Z M 426 80 L 426 81 L 428 81 L 426 80 Z M 462 112 L 462 113 L 464 113 L 462 112 Z M 470 115 L 470 116 L 472 116 L 470 115 Z M 473 116 L 473 117 L 475 117 L 473 116 Z " /><path fill="rgb(0,0,0)" stroke="rgb(0,0,0)" stroke-width="1" opacity="0" d="M 589.5 77 L 600.5 77 L 602 78.5 L 601.5 80 L 600.5 78 L 592 78.5 L 600 79.5 L 599 81.5 L 601 81.5 L 594.5 88 L 581.5 97 L 550.5 113 L 548.5 113 L 534.5 119 L 510.5 119 L 509.5 118 L 508 118.5 L 513.5 112 L 528.5 102 L 547.5 92 L 549.5 92 L 556.5 88 L 571.5 83 L 574.5 81 L 577.5 81 L 589.5 77 Z M 588 79 L 588 80 L 591 80 L 588 79 Z M 584 80 L 584 81 L 586 81 L 584 80 Z M 544 113 L 544 114 L 546 114 L 544 113 Z M 539 115 L 539 116 L 541 116 L 539 115 Z M 536 116 L 536 117 L 538 117 L 536 116 Z " /><path fill="rgb(0,0,0)" stroke="rgb(0,0,0)" stroke-width="1" opacity="0" d="M 0.5 120 L 373 120.5 L 372.5 131 L 353.5 131 L 349.5 128 L 347.5 129 L 346.5 127 L 344 127.5 L 343.5 130 L 342.5 128 Q 337.7 126.8 336.5 129 L 214.5 129 L 209.5 127 L 205.5 127 L 204 127.5 L 203.5 126 L 196.5 126 L 190 131.5 L 190.5 160 L 191.5 136 L 192.5 160 L 201 159.5 L 201.5 144 L 202.5 160 L 205 159.5 L 205.5 149 L 206.5 160 L 208 159.5 L 208.5 149 L 209.5 160 L 213 159.5 L 213.5 153 L 214.5 160 L 220 159.5 L 220.5 156 L 221.5 160 L 222.5 157 L 223.5 160 L 224.5 158 L 225.5 161 L 226.5 159 L 235.5 164 L 239 164.5 L 174 165.5 L 173.5 200 L 172.5 165 L 171.5 174 L 150.5 174 Q 148.6 169.9 141.5 171 L 140.5 174 L 139.5 172 L 136 172.5 L 135.5 175 L 134.5 173 L 131.5 174 L 48.5 174 L 47.5 175 L 46.5 173 L 44.5 174 L 43.5 172 L 40.5 173 L 39.5 171 L 36 171.5 L 35.5 173 L 34.5 170 L 29.5 170 L 24 174.5 L 23.5 199 L 12 199.5 L 11.5 201 L 10 201.5 L 10.5 324 L 12 323.5 L 12.5 226 L 19 226.5 L 17 228.5 L 17 323.5 L 18.5 323 L 157.5 323 L 158.5 324 L 179.5 324 L 180.5 200 L 181.5 324 L 259.5 324 Q 260.8 326.2 265.5 325 L 266.5 324 L 278.5 324 Q 279.7 326.2 284.5 325 L 285.5 324 L 361 323.5 L 361.5 200 L 363 200.5 L 363.5 324 L 364.5 200 L 370 200.5 L 370.5 324 L 383 323.5 L 383.5 163 L 384.5 325 L 386.5 324 L 485.5 324 L 486.5 325 L 492.5 325 L 495.5 324 L 509.5 324 L 510.5 325 L 517.5 325 L 520.5 324 L 614.5 324 L 615.5 325 L 617 323.5 L 617.5 163 L 618.5 324 L 619.5 163 L 627 162.5 L 519 161.5 L 627 160.5 L 627.5 120 L 628.5 161 L 629.5 120 L 640 120.5 L 639.5 355 L 0 354.5 L 0.5 120 Z M 230 162 L 229 163 L 175 163 L 175 164 L 233 164 L 230 162 Z M 14 228 L 13 324 L 14 324 L 14 228 Z M 16 228 L 15 324 L 16 324 L 16 228 Z M 79 325 L 79 326 L 83 326 L 79 325 Z M 94 325 L 94 326 L 97 326 L 94 325 Z M 183 326 L 183 327 L 361 327 L 183 326 Z M 386 326 L 386 327 L 616 327 L 386 326 Z " /><path fill="rgb(0,0,0)" stroke="rgb(0,0,0)" stroke-width="1" opacity="0" d="M 374.5 120 L 375.5 161 L 486 161.5 L 375 162.5 L 382 163.5 L 381.5 197 L 370 197.5 L 369.5 199 L 285 198.5 L 369 197.5 L 368.5 165 L 310 164.5 L 333.5 153 Q 344.3 146.8 352 137.5 L 353.5 133 L 373 133.5 L 372.5 135 L 354 135.5 L 354.5 137 L 355.5 136 L 372.5 136 L 373.5 161 L 374.5 120 Z M 354 137 L 346 146 L 347 160 L 354 160 L 354 137 Z M 344 147 L 342 149 L 343 150 L 343 160 L 344 160 L 344 147 Z M 342 149 L 341 160 L 342 160 L 342 149 Z M 340 150 L 338 152 L 339 160 L 340 160 L 340 150 Z M 337 152 L 335 154 L 336 160 L 337 160 L 337 152 Z M 334 154 L 333 160 L 334 160 L 334 154 Z M 332 155 L 330 157 L 331 160 L 332 160 L 332 155 Z M 329 157 L 328 160 L 329 160 L 329 157 Z M 319 162 L 317 163 L 317 164 L 369 164 L 320 163 L 319 162 Z " /><path fill="rgb(0,0,0)" stroke="rgb(0,0,0)" stroke-width="1" opacity="0" d="M 196.5 132 L 205 132.5 L 199.5 133 L 198.5 134 L 197.5 133 L 196 133.5 L 196.5 132 Z " /><path fill="rgb(0,0,0)" stroke="rgb(0,0,0)" stroke-width="1" opacity="0" d="M 208.5 133 L 210 133.5 L 208.5 139 L 208.5 133 Z " /><path fill="rgb(0,0,0)" stroke="rgb(0,0,0)" stroke-width="1" opacity="0" d="M 228.5 133 L 321 133.5 L 229.5 134 L 228.5 135 L 228.5 133 Z " /><path fill="rgb(0,0,0)" stroke="rgb(0,0,0)" stroke-width="1" opacity="0" d="M 341.5 133 Q 347.5 131.5 349 134.5 L 348.5 136 L 347.5 135 L 343.5 139 L 343 138.5 L 342.5 135 L 339 135.5 L 339 142.5 L 337.5 144 L 336.5 136 L 335 136.5 L 334.5 146 L 333.5 137 L 331 137.5 L 331.5 147 L 332.5 138 L 333 146.5 L 331.5 149 L 330 147.5 L 329.5 138 L 328 138.5 L 327.5 150 L 326 149.5 L 326 140.5 L 327 139.5 L 325.5 139 L 324.5 151 L 323.5 140 L 322.5 152 L 321.5 141 L 320 141.5 L 319.5 154 L 318.5 142 L 317.5 155 L 316.5 143 L 315 143.5 L 314.5 156 L 313.5 144 L 312.5 157 L 311.5 145 L 311 157.5 L 308.5 161 L 298.5 165 L 277.5 165 L 277 164.5 L 280.5 161 L 290.5 154 L 311.5 143 L 313.5 143 L 326.5 137 L 332.5 136 L 336.5 134 L 340.5 134 L 341.5 133 Z M 309 146 L 301 150 L 299 152 L 299 160 L 305 160 L 306 161 L 309 160 L 310 158 L 310 147 L 309 146 Z M 298 152 L 297 160 L 298 160 L 298 152 Z M 296 153 L 295 160 L 296 160 L 296 153 Z M 294 154 L 293 160 L 294 160 L 294 154 Z M 291 156 L 290 160 L 291 160 L 291 156 Z M 289 157 L 287 159 L 288 160 L 289 160 L 289 157 Z M 303 161 L 303 162 L 305 162 L 303 161 Z M 282 162 Q 279 163 281 164 L 299 164 L 283 163 L 282 162 Z M 300 162 L 300 163 L 302 163 L 300 162 Z " /><path fill="rgb(0,0,0)" stroke="rgb(0,0,0)" stroke-width="1" opacity="0" d="M 203.5 134 L 205 134.5 L 204.5 136 L 203 135.5 L 203.5 134 Z " /><path fill="rgb(0,0,0)" stroke="rgb(0,0,0)" stroke-width="1" opacity="0" d="M 212.5 134 L 213 140.5 L 212 140.5 L 212.5 134 Z " /><path fill="rgb(0,0,0)" stroke="rgb(0,0,0)" stroke-width="1" opacity="0" d="M 214.5 137 L 215 145.5 L 214 145.5 L 214.5 137 Z " /><path fill="rgb(0,0,0)" stroke="rgb(0,0,0)" stroke-width="1" opacity="0" d="M 221.5 137 L 222 149.5 L 221 149.5 L 221.5 137 Z " /><path fill="rgb(0,0,0)" stroke="rgb(0,0,0)" stroke-width="1" opacity="0" d="M 224.5 138 L 225 151.5 L 224 151.5 L 224.5 138 Z " /><path fill="rgb(0,0,0)" stroke="rgb(0,0,0)" stroke-width="1" opacity="0" d="M 205.5 140 L 209 140.5 L 205.5 142 L 205.5 140 Z " /><path fill="rgb(0,0,0)" stroke="rgb(0,0,0)" stroke-width="1" opacity="0" d="M 231.5 141 L 232 154.5 L 230.5 155 L 230 143.5 L 231.5 141 Z " /><path fill="rgb(0,0,0)" stroke="rgb(0,0,0)" stroke-width="1" opacity="0" d="M 251.5 151 L 252.5 160 L 256 159.5 L 256.5 154 L 257.5 160 L 259 159.5 L 259.5 156 L 260.5 160 L 263.5 161 L 264.5 160 L 269 164.5 L 250.5 165 L 240 160.5 L 241.5 160 L 243.5 161 L 244.5 160 L 251 159.5 L 251.5 151 Z M 248 162 L 248 163 L 250 163 L 248 162 Z M 266 162 L 265 163 L 250 164 L 267 164 Q 268 163 266 162 Z " /><path fill="rgb(0,0,0)" stroke="rgb(0,0,0)" stroke-width="1" opacity="0" d="M 271.5 160 L 272.5 161 L 273.5 160 L 274.5 161 L 276 160.5 L 273.5 163 L 271 160.5 L 271.5 160 Z " /><path fill="rgb(0,0,0)" stroke="rgb(0,0,0)" stroke-width="1" opacity="0" d="M 494.5 161 L 511 161.5 L 494.5 162 L 494.5 161 Z " /><path fill="rgb(0,0,0)" stroke="rgb(0,0,0)" stroke-width="1" opacity="0" d="M 30.5 175 L 33 175.5 L 32.5 178 L 29 176.5 L 30.5 175 Z " /><path fill="rgb(0,0,0)" stroke="rgb(0,0,0)" stroke-width="1" opacity="0" d="M 55.5 176 L 123 176.5 L 56.5 177 L 55.5 178 L 55.5 176 Z " /><path fill="rgb(0,0,0)" stroke="rgb(0,0,0)" stroke-width="1" opacity="0" d="M 142.5 176 L 147 177.5 L 143.5 179 Q 142.8 177.3 139.5 178 L 139 181.5 L 140 183.5 L 137 183.5 L 136.5 179 L 135 179.5 L 134.5 186 L 133.5 180 L 131 180.5 L 130.5 182 Q 129.5 180 128.5 182 L 126 182.5 L 125.5 191 L 124.5 183 L 123 183.5 L 122.5 192 L 121.5 184 L 120.5 193 L 119.5 185 L 118.5 194 L 118 186.5 L 117 184.5 L 127.5 180 L 133.5 178 L 136.5 178 L 137.5 177 L 141.5 177 L 142.5 176 Z " /><path fill="rgb(0,0,0)" stroke="rgb(0,0,0)" stroke-width="1" opacity="0" d="M 152.5 177 L 172 177.5 L 152.5 178 L 152.5 177 Z " /><path fill="rgb(0,0,0)" stroke="rgb(0,0,0)" stroke-width="1" opacity="0" d="M 38.5 178 L 39 182.5 L 38 182.5 L 38.5 178 Z " /><path fill="rgb(0,0,0)" stroke="rgb(0,0,0)" stroke-width="1" opacity="0" d="M 149.5 178 L 150.5 180 L 172 180.5 L 149.5 181 L 144 186.5 L 143.5 199 L 142 198.5 L 141.5 188 L 140 189.5 L 139.5 199 L 138.5 190 L 137 191.5 L 136.5 199 L 135.5 192 L 134 193.5 L 133.5 199 L 132.5 194 L 131.5 199 L 130.5 195 L 129.5 199 L 128.5 196 L 127.5 199 L 126.5 197 L 121.5 200 L 119.5 200 L 119.5 199 Q 137.5 192.5 149 179.5 L 149.5 178 Z " /><path fill="rgb(0,0,0)" stroke="rgb(0,0,0)" stroke-width="1" opacity="0" d="M 43.5 180 L 45 187.5 L 44 187.5 Q 41.9 184.9 43.5 180 Z " /><path fill="rgb(0,0,0)" stroke="rgb(0,0,0)" stroke-width="1" opacity="0" d="M 50.5 180 L 51 189.5 L 50 189.5 L 50.5 180 Z " /><path fill="rgb(0,0,0)" stroke="rgb(0,0,0)" stroke-width="1" opacity="0" d="M 46.5 181 L 47 188.5 L 46 188.5 L 46.5 181 Z " /><path fill="rgb(0,0,0)" stroke="rgb(0,0,0)" stroke-width="1" opacity="0" d="M 132.5 181 L 133 186.5 L 132 186.5 L 132.5 181 Z " /><path fill="rgb(0,0,0)" stroke="rgb(0,0,0)" stroke-width="1" opacity="0" d="M 55.5 182 L 56 191.5 L 55 191.5 L 55.5 182 Z " /><path fill="rgb(0,0,0)" stroke="rgb(0,0,0)" stroke-width="1" opacity="0" d="M 32.5 184 L 33 198.5 L 32 198.5 L 32.5 184 Z " /><path fill="rgb(0,0,0)" stroke="rgb(0,0,0)" stroke-width="1" opacity="0" d="M 113.5 186 L 114 195.5 L 113 195.5 L 113.5 186 Z " /><path fill="rgb(0,0,0)" stroke="rgb(0,0,0)" stroke-width="1" opacity="0" d="M 36.5 187 L 37 198.5 L 36 198.5 L 36.5 187 Z " /><path fill="rgb(0,0,0)" stroke="rgb(0,0,0)" stroke-width="1" opacity="0" d="M 111.5 187 L 112 196.5 L 111 196.5 L 111.5 187 Z " /><path fill="rgb(0,0,0)" stroke="rgb(0,0,0)" stroke-width="1" opacity="0" d="M 109.5 188 L 110 197.5 L 109 197.5 L 109.5 188 Z " /><path fill="rgb(0,0,0)" stroke="rgb(0,0,0)" stroke-width="1" opacity="0" d="M 39.5 189 L 40 198.5 L 39 198.5 L 39.5 189 Z " /><path fill="rgb(0,0,0)" stroke="rgb(0,0,0)" stroke-width="1" opacity="0" d="M 107.5 189 L 108 190.5 L 105 192.5 L 104.5 199 L 103.5 193 L 102.5 199 L 101.5 194 L 100 195.5 L 99.5 199 L 98.5 196 L 96.5 199 Q 95.3 196.8 94 199.5 L 93.5 201 L 91 200.5 L 97.5 195 L 107.5 189 Z " /><path fill="rgb(0,0,0)" stroke="rgb(0,0,0)" stroke-width="1" opacity="0" d="M 73.5 191 L 74 198.5 L 73 198.5 L 73.5 191 Z " /><path fill="rgb(0,0,0)" stroke="rgb(0,0,0)" stroke-width="1" opacity="0" d="M 44.5 192 L 45 198.5 L 44 198.5 L 44.5 192 Z " /><path fill="rgb(0,0,0)" stroke="rgb(0,0,0)" stroke-width="1" opacity="0" d="M 46.5 193 L 47 198.5 L 46 198.5 L 46.5 193 Z " /><path fill="rgb(0,0,0)" stroke="rgb(0,0,0)" stroke-width="1" opacity="0" d="M 76.5 193 L 77 198.5 L 76 198.5 L 76.5 193 Z " /><path fill="rgb(0,0,0)" stroke="rgb(0,0,0)" stroke-width="1" opacity="0" d="M 79.5 195 L 80 198.5 L 79 198.5 L 79.5 195 Z " /><path fill="rgb(0,0,0)" stroke="rgb(0,0,0)" stroke-width="1" opacity="0" d="M 56.5 198 L 57 200.5 L 56 200.5 L 56.5 198 Z " /><path fill="rgb(0,0,0)" stroke="rgb(0,0,0)" stroke-width="1" opacity="0" d="M 175.5 198 L 260 198.5 L 175.5 199 L 175.5 198 Z " /><path fill="rgb(0,0,0)" stroke="rgb(0,0,0)" stroke-width="1" opacity="0" d="M 266.5 198 L 279 198.5 L 266.5 199 L 266.5 198 Z " /><path fill="rgb(0,0,0)" stroke="rgb(0,0,0)" stroke-width="1" opacity="0" d="M 175.5 200 L 179 200.5 L 178.5 229 L 175 228.5 L 175.5 200 Z " /><path fill="rgb(0,0,0)" stroke="rgb(0,0,0)" stroke-width="1" opacity="0" d="M 173.5 201 L 174 226.5 L 173 226.5 L 173.5 201 Z " /><path fill="rgb(0,0,0)" stroke="rgb(0,0,0)" stroke-width="1" opacity="0" d="M 155.5 226 L 163 226.5 L 155.5 227 L 155.5 226 Z " /><path fill="rgb(0,0,0)" stroke="rgb(0,0,0)" stroke-width="1" opacity="0" d="M 161.5 228 L 174 228.5 L 161.5 229 L 161.5 228 Z " /><path fill="rgb(148,0,0)" stroke="rgb(148,0,0)" stroke-width="1" opacity="0.996078431372549" d="M 406.5 72 L 417.5 73 L 418.5 74 L 422.5 74 L 430.5 77 L 433.5 77 L 447.5 83 L 449.5 83 L 456.5 87 L 458.5 87 L 460.5 89 L 462.5 89 L 484.5 101 L 501 114.5 L 503.5 118 L 506 116.5 L 508.5 113 L 526.5 100 L 558.5 84 L 560.5 84 L 563.5 82 L 578.5 77 L 585.5 76 L 586.5 75 Q 591.3 76.3 592.5 74 L 602.5 74 L 606 76.5 L 606 79.5 L 604 83.5 L 596.5 91 L 582.5 101 L 565.5 110 L 548.5 118 L 545.5 119 L 540.5 119 L 540.5 118 L 542.5 118 L 552.5 113 L 554.5 113 L 581.5 99 L 594.5 90 L 603 81.5 L 604 78.5 L 600.5 76 L 592.5 76 L 591.5 77 L 587.5 77 L 586.5 78 L 579.5 79 L 567.5 83 L 546.5 93 L 544.5 93 L 524.5 104 L 507 117.5 L 506.5 119 L 500.5 119 Q 492.5 109.5 481.5 103 L 453.5 88 L 451.5 88 L 446.5 85 L 444.5 85 L 441.5 83 L 439.5 83 L 436.5 81 L 424.5 77 L 421.5 77 L 416.5 75 L 410.5 75 Q 409.8 73.3 406.5 74 L 402 76.5 L 403 79.5 L 410.5 87 L 427.5 99 L 434.5 102 L 436.5 104 L 438.5 104 L 440.5 106 L 446.5 108 L 455.5 113 L 457.5 113 L 460.5 115 L 471 118.5 L 463.5 119 L 450.5 113 L 448.5 113 L 430.5 104 L 410.5 91 L 401 81.5 Q 399.3 79.7 400 75.5 L 402.5 73 Q 405.8 73.8 406.5 72 Z " /><path fill="rgb(148,0,0)" stroke="rgb(148,0,0)" stroke-width="1" opacity="0.996078431372549" d="M 376.5 120 L 486 120.5 L 485.5 160 L 376 159.5 L 376.5 120 Z " /><path fill="rgb(148,0,0)" stroke="rgb(148,0,0)" stroke-width="1" opacity="0.996078431372549" d="M 494.5 120 L 511 120.5 L 510.5 160 L 494 159.5 L 494.5 120 Z " /><path fill="rgb(148,0,0)" stroke="rgb(148,0,0)" stroke-width="1" opacity="0.996078431372549" d="M 518.5 120 L 626 120.5 L 626 134.5 L 608.5 158 L 604 158.5 L 607 159.5 L 519.5 160 L 518.5 161 L 518.5 120 Z " /><path fill="rgb(148,0,0)" stroke="rgb(148,0,0)" stroke-width="1" opacity="0.996078431372549" d="M 195.5 130 L 206.5 130 Q 207.5 132 211.5 131 L 232.5 138 L 252.5 148 L 254.5 150 L 256.5 150 L 266.5 157 L 272 162.5 L 273.5 166 L 277.5 161 L 296.5 148 L 317.5 138 L 332.5 133 L 335.5 133 L 336.5 132 Q 340.5 133 341.5 131 L 351.5 131 L 353 134.5 Q 350.3 141.3 344.5 145 L 327.5 156 L 313.5 163 L 306.5 165 L 305 166.5 L 367.5 167 L 369 166.5 L 368.5 182 L 367.5 176 L 367 179.5 L 354.5 196 L 350 196.5 L 367.5 197 L 369 196.5 L 367.5 198 L 285.5 198 L 285 166.5 L 286.5 167 L 298.5 167 L 301.5 165 L 313.5 161 L 334.5 150 L 344.5 143 L 350 137.5 L 351 134.5 L 349.5 133 L 339.5 133 L 338.5 134 L 335.5 134 L 334.5 135 L 331.5 135 L 322.5 138 L 298.5 149 L 282.5 159 L 276 165.5 L 276.5 167 L 280 167.5 L 279 168.5 L 279 195.5 Q 281.3 196.8 278.5 198 L 266 197.5 L 266.5 166 Q 267.3 167.8 270.5 167 L 271 165.5 L 263.5 158 L 254.5 152 L 235.5 142 L 233.5 142 L 228.5 139 L 226.5 139 L 223.5 137 L 211.5 133 L 203.5 132 L 202.5 131 L 197.5 131 Q 195.5 131.5 196 134.5 L 199.5 139 L 214.5 150 L 218.5 151 L 227.5 157 L 229.5 157 L 236.5 161 L 238.5 161 L 252.5 167 L 261 167.5 L 261 196.5 L 259.5 198 L 175 197.5 L 175.5 167 L 244 166.5 L 242.5 165 L 230.5 161 L 211.5 151 Q 201.3 145.2 194 136.5 Q 192.8 131.3 195.5 130 Z " /><path fill="rgb(148,0,0)" stroke="rgb(148,0,0)" stroke-width="1" opacity="0.996078431372549" d="M 518.5 163 L 519.5 164 L 616 164.5 L 615.5 324 L 518 323.5 L 518.5 163 Z " /><path fill="rgb(148,0,0)" stroke="rgb(148,0,0)" stroke-width="1" opacity="0.996078431372549" d="M 386.5 164 L 486 164.5 L 485.5 324 L 386 323.5 L 386.5 164 Z " /><path fill="rgb(148,0,0)" stroke="rgb(148,0,0)" stroke-width="1" opacity="0.996078431372549" d="M 494.5 164 L 511 164.5 L 510.5 324 L 494 323.5 L 494.5 164 Z " /><path fill="rgb(148,0,0)" stroke="rgb(148,0,0)" stroke-width="1" opacity="0.996078431372549" d="M 28.5 174 L 38.5 174 L 39.5 175 L 46.5 176 L 49.5 178 L 54.5 179 L 69.5 186 L 71.5 188 L 73.5 188 L 82.5 194 L 88 199.5 L 88.5 201 L 96.5 194 L 115.5 183 L 117.5 183 L 122.5 180 L 134.5 176 L 137.5 176 L 138.5 175 L 148.5 175 L 149 178.5 L 143.5 185 L 131.5 193 L 113 201.5 L 162 202.5 Q 163 206.5 161 207.5 L 161.5 209 L 160 208.5 L 160 212.5 L 151.5 224 L 148 224.5 L 156 225.5 L 97.5 226 L 97 202.5 L 108.5 202 L 114.5 199 L 116.5 199 L 134.5 190 L 146 181.5 L 148 177.5 L 146.5 176 L 139.5 176 L 138.5 177 L 128.5 179 L 106.5 189 L 95.5 196 L 90 201.5 L 93 202.5 L 92.5 226 L 83 225.5 L 83.5 202 L 87 201.5 L 80.5 195 L 59.5 183 L 57.5 183 L 44.5 177 L 41.5 177 L 36.5 175 L 29.5 175 L 29 177.5 L 35.5 184 L 42.5 189 L 46.5 190 L 48.5 192 L 65.5 200 L 71.5 202 L 79 202.5 L 78.5 226 L 13 225.5 L 13.5 202 L 66 201.5 L 58.5 199 L 42.5 191 L 32.5 184 L 28 179.5 L 27 175.5 L 28.5 174 Z " /><path fill="rgb(148,0,0)" stroke="rgb(148,0,0)" stroke-width="1" opacity="0.996078431372549" d="M 183.5 200 L 261 200.5 L 260.5 324 L 182 323.5 L 183 322.5 L 183.5 200 Z " /><path fill="rgb(148,0,0)" stroke="rgb(148,0,0)" stroke-width="1" opacity="0.996078431372549" d="M 266.5 200 Q 267.5 202 268.5 200 L 278.5 200 L 280 201.5 L 279 202.5 L 279 320.5 L 280 321.5 L 279 322.5 L 279.5 324 L 266 323.5 L 266.5 200 Z " /><path fill="rgb(148,0,0)" stroke="rgb(148,0,0)" stroke-width="1" opacity="0.996078431372549" d="M 285.5 200 Q 286.5 202 287.5 200 L 361 200.5 L 360.5 324 L 285 323.5 L 285.5 200 Z " /><path fill="rgb(148,0,0)" stroke="rgb(148,0,0)" stroke-width="1" opacity="0.996078431372549" d="M 19.5 228 L 79 228.5 L 78.5 323 L 19 322.5 L 19.5 228 Z " /><path fill="rgb(148,0,0)" stroke="rgb(148,0,0)" stroke-width="1" opacity="0.996078431372549" d="M 83.5 228 L 93 228.5 L 92.5 323 L 83 322.5 L 83.5 228 Z " /><path fill="rgb(148,0,0)" stroke="rgb(148,0,0)" stroke-width="1" opacity="0.996078431372549" d="M 97.5 228 L 156 228.5 L 156 321.5 L 154.5 323 L 97 322.5 L 97.5 228 Z " /><path fill="rgb(193,84,84)" stroke="rgb(193,84,84)" stroke-width="1" opacity="0.9019607843137255" d="M 594.5 73 L 600 73.5 L 594.5 74 L 594.5 73 Z " /><path fill="rgb(193,84,84)" stroke="rgb(193,84,84)" stroke-width="1" opacity="0.9019607843137255" d="M 538.5 118 Q 540 119 537.5 120 L 519 119.5 L 537.5 119 L 538.5 118 Z " /><path fill="rgb(193,84,84)" stroke="rgb(193,84,84)" stroke-width="1" opacity="0.9019607843137255" d="M 376.5 119 L 470 119.5 L 376 120.5 L 375.5 158 L 375 120.5 L 376.5 119 Z " /><path fill="rgb(193,84,84)" stroke="rgb(193,84,84)" stroke-width="1" opacity="0.9019607843137255" d="M 471.5 119 L 486 119.5 L 471.5 120 L 471.5 119 Z " /><path fill="rgb(193,84,84)" stroke="rgb(193,84,84)" stroke-width="1" opacity="0.9019607843137255" d="M 494.5 119 L 503 119.5 L 494.5 120 L 494.5 119 Z " /><path fill="rgb(193,84,84)" stroke="rgb(193,84,84)" stroke-width="1" opacity="0.9019607843137255" d="M 504.5 119 L 511 119.5 L 504.5 120 L 504.5 119 Z " /><path fill="rgb(193,84,84)" stroke="rgb(193,84,84)" stroke-width="1" opacity="0.9019607843137255" d="M 541.5 119 L 626 119.5 L 541.5 120 L 541.5 119 Z " /><path fill="rgb(193,84,84)" stroke="rgb(193,84,84)" stroke-width="1" opacity="0.9019607843137255" d="M 348.5 138 L 349 138.5 L 345.5 142 L 345 141.5 L 348.5 138 Z " /><path fill="rgb(193,84,84)" stroke="rgb(193,84,84)" stroke-width="1" opacity="0.9019607843137255" d="M 19.5 227 L 77 227.5 L 19.5 228 L 19.5 227 Z " /><path fill="rgb(193,84,84)" stroke="rgb(193,84,84)" stroke-width="1" opacity="0.9019607843137255" d="M 84.5 227 L 92 227.5 L 84.5 228 L 84.5 227 Z " /><path fill="rgb(193,84,84)" stroke="rgb(193,84,84)" stroke-width="1" opacity="0.9019607843137255" d="M 98.5 227 L 155 227.5 L 98.5 228 L 98.5 227 Z " /><path fill="rgb(193,84,84)" stroke="rgb(193,84,84)" stroke-width="1" opacity="0.9019607843137255" d="M 18.5 230 L 19 321.5 L 18 321.5 L 18.5 230 Z " /><path fill="rgb(239,0,0)" stroke="rgb(239,0,0)" stroke-width="1" opacity="0" d="M 466.5 88 L 469 89.5 L 467.5 90 Q 465 89 466.5 88 Z " /><path fill="rgb(239,0,0)" stroke="rgb(239,0,0)" stroke-width="1" opacity="0" d="M 424.5 93 L 427 95.5 L 426.5 96 L 424 93.5 L 424.5 93 Z " /><path fill="rgb(239,0,0)" stroke="rgb(239,0,0)" stroke-width="1" opacity="0" d="M 477.5 94 L 480 95.5 L 478.5 96 Q 476 95 477.5 94 Z " /><path fill="rgb(239,0,0)" stroke="rgb(239,0,0)" stroke-width="1" opacity="0" d="M 344.5 127 L 347 127.5 L 346.5 129 L 344 128.5 L 344.5 127 Z " /><path fill="rgb(239,0,0)" stroke="rgb(239,0,0)" stroke-width="1" opacity="0" d="M 213.5 128 L 215 130.5 L 214 130.5 L 213.5 128 Z " /><path fill="rgb(239,0,0)" stroke="rgb(239,0,0)" stroke-width="1" opacity="0" d="M 219.5 130 L 329 130.5 L 326.5 132 L 325.5 131 L 221.5 131 L 219.5 132 L 219.5 130 Z " /><path fill="rgb(239,0,0)" stroke="rgb(239,0,0)" stroke-width="1" opacity="0" d="M 354.5 131 L 373 131.5 L 354.5 132 L 354.5 131 Z " /><path fill="rgb(239,0,0)" stroke="rgb(239,0,0)" stroke-width="1" opacity="0" d="M 197.5 133 L 199.5 136 L 203 136.5 L 198.5 137 L 197 134.5 L 197.5 133 Z " /><path fill="rgb(239,0,0)" stroke="rgb(239,0,0)" stroke-width="1" opacity="0" d="M 231.5 135 L 316 135.5 L 310.5 138 L 239 138.5 L 238.5 140 L 236.5 137 L 235 137.5 L 234.5 136 L 231.5 137 L 231.5 135 Z " /><path fill="rgb(239,0,0)" stroke="rgb(239,0,0)" stroke-width="1" opacity="0" d="M 215.5 136 L 219 136.5 L 216 137.5 L 216 146.5 L 218 149.5 Q 217 151 216 148.5 L 215 146.5 L 215.5 136 Z " /><path fill="rgb(239,0,0)" stroke="rgb(239,0,0)" stroke-width="1" opacity="0" d="M 325.5 139 L 326 150.5 L 325 150.5 L 325.5 139 Z " /><path fill="rgb(239,0,0)" stroke="rgb(239,0,0)" stroke-width="1" opacity="0" d="M 226.5 140 L 229 140.5 L 227 141.5 L 226.5 155 L 226.5 140 Z " /><path fill="rgb(239,0,0)" stroke="rgb(239,0,0)" stroke-width="1" opacity="0" d="M 229.5 142 L 230 153.5 L 229 153.5 L 229.5 142 Z " /><path fill="rgb(239,0,0)" stroke="rgb(239,0,0)" stroke-width="1" opacity="0" d="M 246.5 142 L 248 142.5 L 247.5 144 L 246 143.5 L 246.5 142 Z " /><path fill="rgb(239,0,0)" stroke="rgb(239,0,0)" stroke-width="1" opacity="0" d="M 233.5 143 L 234.5 156 L 237 156.5 L 234.5 158 L 233 155.5 L 233.5 143 Z " /><path fill="rgb(239,0,0)" stroke="rgb(239,0,0)" stroke-width="1" opacity="0" d="M 212.5 145 L 214 147.5 Q 213 149 212 146.5 L 212.5 145 Z " /><path fill="rgb(239,0,0)" stroke="rgb(239,0,0)" stroke-width="1" opacity="0" d="M 252.5 145 L 254 147.5 Q 253 149 252 146.5 L 252.5 145 Z " /><path fill="rgb(239,0,0)" stroke="rgb(239,0,0)" stroke-width="1" opacity="0" d="M 202.5 146 L 203 159.5 L 202 159.5 L 202.5 146 Z " /><path fill="rgb(239,0,0)" stroke="rgb(239,0,0)" stroke-width="1" opacity="0" d="M 308.5 146 L 309 158.5 L 308 158.5 L 308.5 146 Z " /><path fill="rgb(239,0,0)" stroke="rgb(239,0,0)" stroke-width="1" opacity="0" d="M 240.5 147 L 241.5 159 L 242.5 148 L 243 159.5 L 241.5 160 L 240 158.5 L 240.5 147 Z " /><path fill="rgb(239,0,0)" stroke="rgb(239,0,0)" stroke-width="1" opacity="0" d="M 306.5 147 L 307 159.5 L 306 159.5 L 306.5 147 Z " /><path fill="rgb(239,0,0)" stroke="rgb(239,0,0)" stroke-width="1" opacity="0" d="M 343.5 147 L 344 159.5 L 343 159.5 L 343.5 147 Z " /><path fill="rgb(239,0,0)" stroke="rgb(239,0,0)" stroke-width="1" opacity="0" d="M 257.5 148 L 261 150.5 L 260.5 152 L 257 149.5 L 257.5 148 Z " /><path fill="rgb(239,0,0)" stroke="rgb(239,0,0)" stroke-width="1" opacity="0" d="M 304.5 148 L 305 159.5 L 304 159.5 L 304.5 148 Z " /><path fill="rgb(239,0,0)" stroke="rgb(239,0,0)" stroke-width="1" opacity="0" d="M 302.5 149 L 303 159.5 L 302 159.5 L 302.5 149 Z " /><path fill="rgb(239,0,0)" stroke="rgb(239,0,0)" stroke-width="1" opacity="0" d="M 221.5 150 L 223 152.5 Q 222 154 221 151.5 L 221.5 150 Z " /><path fill="rgb(239,0,0)" stroke="rgb(239,0,0)" stroke-width="1" opacity="0" d="M 300.5 150 L 301 159.5 L 300 159.5 L 300.5 150 Z " /><path fill="rgb(239,0,0)" stroke="rgb(239,0,0)" stroke-width="1" opacity="0" d="M 253.5 154 L 254 159.5 L 253 159.5 L 253.5 154 Z " /><path fill="rgb(239,0,0)" stroke="rgb(239,0,0)" stroke-width="1" opacity="0" d="M 218.5 156 L 220 156.5 L 218.5 160 L 218.5 156 Z " /><path fill="rgb(239,0,0)" stroke="rgb(239,0,0)" stroke-width="1" opacity="0" d="M 146.5 171 L 148 173.5 Q 147 175 146 172.5 L 146.5 171 Z " /><path fill="rgb(239,0,0)" stroke="rgb(239,0,0)" stroke-width="1" opacity="0" d="M 150.5 174 L 172 174.5 L 150.5 175 L 150.5 174 Z " /><path fill="rgb(239,0,0)" stroke="rgb(239,0,0)" stroke-width="1" opacity="0" d="M 37.5 177 L 42 177.5 L 42 184.5 L 40.5 186 L 39 183.5 L 41 183.5 L 40.5 178 L 38 178.5 L 37.5 184 L 35 182.5 L 35.5 181 L 37 180.5 L 37.5 177 Z " /><path fill="rgb(239,0,0)" stroke="rgb(239,0,0)" stroke-width="1" opacity="0" d="M 57.5 177 L 121 177.5 L 59 178.5 L 58.5 180 L 57 177.5 L 57.5 177 Z " /><path fill="rgb(239,0,0)" stroke="rgb(239,0,0)" stroke-width="1" opacity="0" d="M 25.5 178 L 26 198.5 L 25 198.5 L 25.5 178 Z " /><path fill="rgb(239,0,0)" stroke="rgb(239,0,0)" stroke-width="1" opacity="0" d="M 61.5 179 L 116 179.5 L 114 180.5 L 113.5 183 L 112.5 181 L 111.5 184 L 110.5 182 L 109.5 185 L 108.5 183 L 96.5 190 L 89.5 196 L 87.5 196 L 85.5 194 L 84 194.5 Q 84.5 191.5 82.5 191 L 81.5 193 L 79.5 189 L 75.5 187 L 74 187.5 L 73.5 185 L 71.5 184 L 70.5 186 L 69.5 183 L 67.5 184 L 66.5 182 L 62 181.5 L 61.5 179 Z " /><path fill="rgb(239,0,0)" stroke="rgb(239,0,0)" stroke-width="1" opacity="0" d="M 131.5 180 L 132 187.5 L 131 187.5 L 131.5 180 Z " /><path fill="rgb(239,0,0)" stroke="rgb(239,0,0)" stroke-width="1" opacity="0" d="M 28.5 182 L 30 182.5 L 29 183.5 L 28.5 199 L 28.5 182 Z " /><path fill="rgb(239,0,0)" stroke="rgb(239,0,0)" stroke-width="1" opacity="0" d="M 52.5 182 L 53 190.5 L 54 192.5 L 53 192.5 L 52.5 191 L 51 191.5 L 52 189.5 L 52.5 182 Z " /><path fill="rgb(239,0,0)" stroke="rgb(239,0,0)" stroke-width="1" opacity="0" d="M 33.5 186 L 34 198.5 L 33 198.5 L 33.5 186 Z " /><path fill="rgb(239,0,0)" stroke="rgb(239,0,0)" stroke-width="1" opacity="0" d="M 61.5 186 L 62.5 195 L 63.5 187 L 64 195.5 L 60.5 196 L 60 194.5 L 61 193.5 L 61.5 186 Z " /><path fill="rgb(239,0,0)" stroke="rgb(239,0,0)" stroke-width="1" opacity="0" d="M 116.5 186 L 117 194.5 L 116 194.5 L 116.5 186 Z " /><path fill="rgb(239,0,0)" stroke="rgb(239,0,0)" stroke-width="1" opacity="0" d="M 65.5 188 L 66.5 196 L 67.5 189 L 68.5 197 L 70 197.5 L 69.5 199 L 68 198.5 L 67.5 197 L 65.5 198 L 65.5 188 Z " /><path fill="rgb(239,0,0)" stroke="rgb(239,0,0)" stroke-width="1" opacity="0" d="M 71.5 191 L 73 192.5 L 73.5 199 L 74.5 193 L 75 198.5 Q 74.5 200.5 71.5 200 L 71.5 191 Z " /><path fill="rgb(239,0,0)" stroke="rgb(239,0,0)" stroke-width="1" opacity="0" d="M 106.5 191 L 107 200.5 L 105.5 201 L 105 199.5 L 106 198.5 L 106.5 191 Z " /><path fill="rgb(239,0,0)" stroke="rgb(239,0,0)" stroke-width="1" opacity="0" d="M 47.5 195 L 48 198.5 L 47 198.5 L 47.5 195 Z " /><path fill="rgb(239,0,0)" stroke="rgb(239,0,0)" stroke-width="1" opacity="0" d="M 49.5 196 L 52 196.5 L 51.5 199 L 50.5 197 L 49.5 199 L 49.5 196 Z " /><path fill="rgb(239,0,0)" stroke="rgb(239,0,0)" stroke-width="1" opacity="0" d="M 172.5 197 L 173 199.5 L 172 199.5 L 172.5 197 Z " /><path fill="rgb(239,0,0)" stroke="rgb(239,0,0)" stroke-width="1" opacity="0" d="M 370.5 197 L 382 197.5 L 381.5 199 L 370 198.5 L 370.5 197 Z " /><path fill="rgb(239,0,0)" stroke="rgb(239,0,0)" stroke-width="1" opacity="0" d="M 163.5 201 L 173 201.5 L 163.5 202 L 163.5 201 Z " /><path fill="rgb(239,0,0)" stroke="rgb(239,0,0)" stroke-width="1" opacity="0" d="M 174.5 201 L 175 227.5 L 174 227.5 L 174.5 201 Z " /><path fill="rgb(239,0,0)" stroke="rgb(239,0,0)" stroke-width="1" opacity="0" d="M 157.5 229 L 161 229.5 L 160.5 323 Q 157.5 323.5 157 321.5 L 157.5 229 Z " /><path fill="rgb(213,153,153)" stroke="rgb(213,153,153)" stroke-width="1" opacity="0.9803921568627451" d="M 600.5 83 L 601 83.5 L 596.5 88 L 596 87.5 L 600.5 83 Z " /><path fill="rgb(213,153,153)" stroke="rgb(213,153,153)" stroke-width="1" opacity="0.9803921568627451" d="M 511.5 119 L 512 323.5 L 511 323.5 L 511.5 119 Z " /><path fill="rgb(213,153,153)" stroke="rgb(213,153,153)" stroke-width="1" opacity="0.9803921568627451" d="M 265.5 166 L 266 321.5 L 265 321.5 L 265.5 166 Z " /><path fill="rgb(213,153,153)" stroke="rgb(213,153,153)" stroke-width="1" opacity="0.9803921568627451" d="M 284.5 166 L 285 323.5 L 284 323.5 L 284.5 166 Z " /><path fill="rgb(213,153,153)" stroke="rgb(213,153,153)" stroke-width="1" opacity="0.9803921568627451" d="M 91.5 197 L 92 197.5 L 89.5 200 L 89 199.5 L 91.5 197 Z " /><path fill="rgb(213,153,153)" stroke="rgb(213,153,153)" stroke-width="1" opacity="0.9803921568627451" d="M 82.5 202 L 83 321.5 Q 82.5 323.5 79.5 323 L 79.5 322 L 82 321.5 L 82.5 202 Z " /><path fill="rgb(213,153,153)" stroke="rgb(213,153,153)" stroke-width="1" opacity="0.9803921568627451" d="M 93.5 202 L 94 225.5 L 93 225.5 L 93.5 202 Z " /><path fill="rgb(213,153,153)" stroke="rgb(213,153,153)" stroke-width="1" opacity="0.9803921568627451" d="M 93.5 227 L 94.5 322 L 97 322.5 L 94.5 323 L 93 321.5 L 93.5 227 Z " /><path fill="rgb(252,252,252)" stroke="rgb(252,252,252)" stroke-width="1" opacity="0.996078431372549" d="M 487.5 120 L 493 120.5 L 492.5 324 L 491.5 323 L 487 322.5 L 487.5 120 Z " /><path fill="rgb(252,252,252)" stroke="rgb(252,252,252)" stroke-width="1" opacity="0.996078431372549" d="M 512.5 120 L 518 120.5 L 517.5 323 L 512 322.5 L 512.5 120 Z " /><path fill="rgb(252,252,252)" stroke="rgb(252,252,252)" stroke-width="1" opacity="0.996078431372549" d="M 261.5 166 L 263.5 167 L 265 166.5 L 264.5 323 L 261.5 324 L 261.5 166 Z " /><path fill="rgb(252,252,252)" stroke="rgb(252,252,252)" stroke-width="1" opacity="0.996078431372549" d="M 280.5 166 L 282.5 167 L 284 166.5 L 283.5 323 L 280.5 324 L 280.5 166 Z " /><path fill="rgb(252,252,252)" stroke="rgb(252,252,252)" stroke-width="1" opacity="0.996078431372549" d="M 79.5 202 L 82 202.5 L 81.5 322 L 79 321.5 L 79.5 202 Z " /><path fill="rgb(252,252,252)" stroke="rgb(252,252,252)" stroke-width="1" opacity="0.996078431372549" d="M 94.5 202 L 97 202.5 L 96.5 322 L 94 321.5 L 94.5 202 Z " /><path fill="rgb(199,95,95)" stroke="rgb(199,95,95)" stroke-width="1" opacity="0.01568627450980392" d="M 406.5 69 L 414 69.5 L 406.5 70 L 406.5 69 Z " /><path fill="rgb(199,95,95)" stroke="rgb(199,95,95)" stroke-width="1" opacity="0.01568627450980392" d="M 464.5 113 L 466 113.5 L 463.5 115 Q 462 114 464.5 113 Z " /><path fill="rgb(199,95,95)" stroke="rgb(199,95,95)" stroke-width="1" opacity="0.01568627450980392" d="M 628.5 119 L 640 119.5 L 628.5 120 L 628.5 119 Z " /><path fill="rgb(199,95,95)" stroke="rgb(199,95,95)" stroke-width="1" opacity="0.01568627450980392" d="M 198.5 126 L 201 126.5 L 200.5 128 L 198 127.5 L 198.5 126 Z " /><path fill="rgb(199,95,95)" stroke="rgb(199,95,95)" stroke-width="1" opacity="0.01568627450980392" d="M 206.5 127 L 209 127.5 L 208.5 129 L 206 128.5 L 206.5 127 Z " /><path fill="rgb(199,95,95)" stroke="rgb(199,95,95)" stroke-width="1" opacity="0.01568627450980392" d="M 211.5 128 L 214 129.5 L 212.5 129 Q 210.1 128.9 211.5 128 Z " /><path fill="rgb(199,95,95)" stroke="rgb(199,95,95)" stroke-width="1" opacity="0.01568627450980392" d="M 215.5 129 L 217 131.5 Q 216 133 215 130.5 L 215.5 129 Z " /><path fill="rgb(199,95,95)" stroke="rgb(199,95,95)" stroke-width="1" opacity="0.01568627450980392" d="M 336.5 129 L 338 129.5 Q 337 132 336 130.5 L 336.5 129 Z " /><path fill="rgb(199,95,95)" stroke="rgb(199,95,95)" stroke-width="1" opacity="0.01568627450980392" d="M 218.5 130 L 219.5 132 L 221.5 131 L 223 133.5 L 221.5 133 Q 218.5 133.5 218 131.5 L 218.5 130 Z " /><path fill="rgb(199,95,95)" stroke="rgb(199,95,95)" stroke-width="1" opacity="0.01568627450980392" d="M 229.5 134 L 231 136.5 L 230 136.5 L 229.5 134 Z " /><path fill="rgb(199,95,95)" stroke="rgb(199,95,95)" stroke-width="1" opacity="0.01568627450980392" d="M 347.5 135 L 348 137.5 L 347 137.5 L 347.5 135 Z " /><path fill="rgb(199,95,95)" stroke="rgb(199,95,95)" stroke-width="1" opacity="0.01568627450980392" d="M 236.5 137 L 238 139.5 Q 237 141 236 138.5 L 236.5 137 Z " /><path fill="rgb(199,95,95)" stroke="rgb(199,95,95)" stroke-width="1" opacity="0.01568627450980392" d="M 239.5 140 L 242 140.5 L 241.5 142 L 239 140.5 L 239.5 140 Z " /><path fill="rgb(199,95,95)" stroke="rgb(199,95,95)" stroke-width="1" opacity="0.01568627450980392" d="M 250.5 144 L 252 146.5 L 250.5 146 L 249 145.5 L 250.5 144 Z " /><path fill="rgb(199,95,95)" stroke="rgb(199,95,95)" stroke-width="1" opacity="0.01568627450980392" d="M 233.5 156 L 234.5 158 L 236 157.5 L 237 159.5 L 235.5 159 L 233 157.5 L 233.5 156 Z " /><path fill="rgb(199,95,95)" stroke="rgb(199,95,95)" stroke-width="1" opacity="0.01568627450980392" d="M 242.5 160 L 244 160.5 L 241.5 162 Q 240 161 242.5 160 Z " /><path fill="rgb(199,95,95)" stroke="rgb(199,95,95)" stroke-width="1" opacity="0.01568627450980392" d="M 175.5 163 L 231 163.5 L 175.5 164 L 175.5 163 Z " /><path fill="rgb(199,95,95)" stroke="rgb(199,95,95)" stroke-width="1" opacity="0.01568627450980392" d="M 251.5 163 L 266 163.5 L 251.5 164 L 251.5 163 Z " /><path fill="rgb(199,95,95)" stroke="rgb(199,95,95)" stroke-width="1" opacity="0.01568627450980392" d="M 281.5 163 L 298 163.5 L 281.5 164 L 281.5 163 Z " /><path fill="rgb(199,95,95)" stroke="rgb(199,95,95)" stroke-width="1" opacity="0.01568627450980392" d="M 317.5 163 L 368 163.5 L 317.5 164 L 317.5 163 Z " /><path fill="rgb(199,95,95)" stroke="rgb(199,95,95)" stroke-width="1" opacity="0.01568627450980392" d="M 382.5 163 L 383 323.5 L 382 323.5 L 381.5 200 L 361 199.5 L 382 198.5 L 382.5 163 Z " /><path fill="rgb(199,95,95)" stroke="rgb(199,95,95)" stroke-width="1" opacity="0.01568627450980392" d="M 172.5 167 L 173 196.5 L 172 196.5 L 172.5 167 Z " /><path fill="rgb(199,95,95)" stroke="rgb(199,95,95)" stroke-width="1" opacity="0.01568627450980392" d="M 37.5 171 L 39 171.5 L 38.5 174 Q 36.1 173.1 37.5 171 Z " /><path fill="rgb(199,95,95)" stroke="rgb(199,95,95)" stroke-width="1" opacity="0.01568627450980392" d="M 51.5 175 L 52.5 177 L 54.5 176 L 55 177.5 L 52.5 178 L 49 176.5 L 51.5 175 Z " /><path fill="rgb(199,95,95)" stroke="rgb(199,95,95)" stroke-width="1" opacity="0.01568627450980392" d="M 24.5 176 L 27 177.5 L 26.5 179 L 25.5 177 Q 23.1 176.9 24.5 176 Z " /><path fill="rgb(199,95,95)" stroke="rgb(199,95,95)" stroke-width="1" opacity="0.01568627450980392" d="M 59.5 180 L 62 180.5 L 59.5 181 L 59.5 180 Z " /><path fill="rgb(199,95,95)" stroke="rgb(199,95,95)" stroke-width="1" opacity="0.01568627450980392" d="M 57.5 193 L 58.5 195 L 60 194.5 L 60.5 196 L 65 196.5 L 65.5 198 L 67.5 197 L 68 198.5 L 65.5 199 L 57 194.5 L 57.5 193 Z " /><path fill="rgb(199,95,95)" stroke="rgb(199,95,95)" stroke-width="1" opacity="0.01568627450980392" d="M 179.5 200 L 180 323.5 L 179 323.5 L 179.5 200 Z " /><path fill="rgb(199,95,95)" stroke="rgb(199,95,95)" stroke-width="1" opacity="0.01568627450980392" d="M 10.5 201 L 12 201.5 L 11.5 324 L 10 323.5 L 10.5 201 Z " /><path fill="rgb(250,242,242)" stroke="rgb(250,242,242)" stroke-width="1" opacity="0.047058823529411764" d="M 399.5 71 Q 402.5 72.5 399.5 74 L 398.5 73 L 397 73.5 L 399.5 71 Z " /><path fill="rgb(250,242,242)" stroke="rgb(250,242,242)" stroke-width="1" opacity="0.047058823529411764" d="M 398.5 75 L 399 77.5 L 398 77.5 L 398.5 75 Z " /><path fill="rgb(250,242,242)" stroke="rgb(250,242,242)" stroke-width="1" opacity="0.047058823529411764" d="M 600.5 82 L 601 82.5 L 595.5 88 L 595 87.5 L 600.5 82 Z " /><path fill="rgb(250,242,242)" stroke="rgb(250,242,242)" stroke-width="1" opacity="0.047058823529411764" d="M 593.5 86 L 593 87.5 L 594 88.5 L 591.5 91 L 592 89.5 L 591 88.5 L 593.5 86 Z " /><path fill="rgb(250,242,242)" stroke="rgb(250,242,242)" stroke-width="1" opacity="0.047058823529411764" d="M 587.5 91 L 588.5 92 L 590 91.5 L 588.5 93 Q 586 92 587.5 91 Z " /><path fill="rgb(250,242,242)" stroke="rgb(250,242,242)" stroke-width="1" opacity="0.047058823529411764" d="M 517.5 104 L 518 104.5 L 515.5 107 L 515 106.5 L 517.5 104 Z " /><path fill="rgb(250,242,242)" stroke="rgb(250,242,242)" stroke-width="1" opacity="0.047058823529411764" d="M 511.5 107 L 512.5 108 L 514 107.5 L 511.5 110 L 511 109.5 L 512 108.5 L 511.5 107 Z " /><path fill="rgb(250,242,242)" stroke="rgb(250,242,242)" stroke-width="1" opacity="0.047058823529411764" d="M 507.5 110 L 508.5 111 L 510 110.5 L 504.5 116 L 504 115.5 L 508 111.5 L 507.5 110 Z " /><path fill="rgb(250,242,242)" stroke="rgb(250,242,242)" stroke-width="1" opacity="0.047058823529411764" d="M 194.5 127 L 195 129.5 L 194 129.5 L 194.5 127 Z " /><path fill="rgb(250,242,242)" stroke="rgb(250,242,242)" stroke-width="1" opacity="0.047058823529411764" d="M 333.5 129 L 335 129.5 L 333.5 132 L 333.5 129 Z " /><path fill="rgb(250,242,242)" stroke="rgb(250,242,242)" stroke-width="1" opacity="0.047058823529411764" d="M 344.5 129 Q 350.5 127.5 352 130.5 L 350.5 130 L 344.5 130 L 344.5 129 Z " /><path fill="rgb(250,242,242)" stroke="rgb(250,242,242)" stroke-width="1" opacity="0.047058823529411764" d="M 190.5 131 L 193 131.5 L 190.5 132 L 190.5 131 Z " /><path fill="rgb(250,242,242)" stroke="rgb(250,242,242)" stroke-width="1" opacity="0.047058823529411764" d="M 327.5 131 L 328 132.5 L 323.5 135 L 324 133.5 L 324.5 132 L 327.5 131 Z " /><path fill="rgb(250,242,242)" stroke="rgb(250,242,242)" stroke-width="1" opacity="0.047058823529411764" d="M 316.5 135 L 317 136.5 Q 316 139 315 137.5 L 316.5 135 Z " /><path fill="rgb(250,242,242)" stroke="rgb(250,242,242)" stroke-width="1" opacity="0.047058823529411764" d="M 313.5 136 L 314 138.5 L 313 138.5 L 313.5 136 Z " /><path fill="rgb(250,242,242)" stroke="rgb(250,242,242)" stroke-width="1" opacity="0.047058823529411764" d="M 346.5 136 L 347 137.5 L 344.5 139 L 344 138.5 L 346.5 136 Z " /><path fill="rgb(250,242,242)" stroke="rgb(250,242,242)" stroke-width="1" opacity="0.047058823529411764" d="M 309.5 138 L 310 140.5 L 306.5 142 L 307 140.5 L 307.5 139 L 309.5 138 Z " /><path fill="rgb(250,242,242)" stroke="rgb(250,242,242)" stroke-width="1" opacity="0.047058823529411764" d="M 344.5 140 L 345 140.5 L 341.5 144 L 341 141.5 L 344.5 140 Z " /><path fill="rgb(250,242,242)" stroke="rgb(250,242,242)" stroke-width="1" opacity="0.047058823529411764" d="M 301.5 142 Q 304 143 302.5 144 L 297.5 147 L 297 144.5 L 299 144.5 L 299.5 143 L 301 143.5 L 301.5 142 Z " /><path fill="rgb(250,242,242)" stroke="rgb(250,242,242)" stroke-width="1" opacity="0.047058823529411764" d="M 339.5 142 L 340 144.5 Q 339 147 338 145.5 L 339.5 142 Z " /><path fill="rgb(250,242,242)" stroke="rgb(250,242,242)" stroke-width="1" opacity="0.047058823529411764" d="M 336.5 144 L 337 146.5 Q 336 149 335 147.5 L 336.5 144 Z " /><path fill="rgb(250,242,242)" stroke="rgb(250,242,242)" stroke-width="1" opacity="0.047058823529411764" d="M 295.5 145 L 296 147.5 L 295 147.5 L 295.5 145 Z " /><path fill="rgb(250,242,242)" stroke="rgb(250,242,242)" stroke-width="1" opacity="0.047058823529411764" d="M 327.5 150 Q 330 151 328.5 152 L 326.5 153 L 327 151.5 L 327.5 150 Z " /><path fill="rgb(250,242,242)" stroke="rgb(250,242,242)" stroke-width="1" opacity="0.047058823529411764" d="M 324.5 151 L 325 153.5 L 324 153.5 L 324.5 151 Z " /><path fill="rgb(250,242,242)" stroke="rgb(250,242,242)" stroke-width="1" opacity="0.047058823529411764" d="M 322.5 152 L 323 154.5 L 322 154.5 L 322.5 152 Z " /><path fill="rgb(250,242,242)" stroke="rgb(250,242,242)" stroke-width="1" opacity="0.047058823529411764" d="M 282.5 153 L 283 155.5 L 280.5 158 L 280 157.5 L 280.5 155 L 282 155.5 L 282.5 153 Z " /><path fill="rgb(250,242,242)" stroke="rgb(250,242,242)" stroke-width="1" opacity="0.047058823529411764" d="M 320.5 153 L 321 155.5 L 320 155.5 L 320.5 153 Z " /><path fill="rgb(250,242,242)" stroke="rgb(250,242,242)" stroke-width="1" opacity="0.047058823529411764" d="M 318.5 154 L 319 156.5 L 318 156.5 L 318.5 154 Z " /><path fill="rgb(250,242,242)" stroke="rgb(250,242,242)" stroke-width="1" opacity="0.047058823529411764" d="M 316.5 155 L 317 157.5 L 316 157.5 L 316.5 155 Z " /><path fill="rgb(250,242,242)" stroke="rgb(250,242,242)" stroke-width="1" opacity="0.047058823529411764" d="M 278.5 158 L 279 158.5 L 273.5 164 L 273 163.5 L 278.5 158 Z " /><path fill="rgb(250,242,242)" stroke="rgb(250,242,242)" stroke-width="1" opacity="0.047058823529411764" d="M 310.5 158 L 311 159.5 Q 310 162 309 160.5 L 310.5 158 Z " /><path fill="rgb(250,242,242)" stroke="rgb(250,242,242)" stroke-width="1" opacity="0.047058823529411764" d="M 142.5 171 L 143 173.5 L 141.5 174 L 142 172.5 L 142.5 171 Z " /><path fill="rgb(250,242,242)" stroke="rgb(250,242,242)" stroke-width="1" opacity="0.047058823529411764" d="M 26.5 172 Q 29.5 173.5 26.5 175 L 24 174.5 L 26.5 172 Z " /><path fill="rgb(250,242,242)" stroke="rgb(250,242,242)" stroke-width="1" opacity="0.047058823529411764" d="M 132.5 173 L 134 173.5 L 132.5 176 L 132.5 173 Z " /><path fill="rgb(250,242,242)" stroke="rgb(250,242,242)" stroke-width="1" opacity="0.047058823529411764" d="M 47.5 175 L 51 175.5 L 47.5 176 L 47.5 175 Z " /><path fill="rgb(250,242,242)" stroke="rgb(250,242,242)" stroke-width="1" opacity="0.047058823529411764" d="M 123.5 176 L 125 176.5 L 123.5 179 L 123.5 176 Z " /><path fill="rgb(250,242,242)" stroke="rgb(250,242,242)" stroke-width="1" opacity="0.047058823529411764" d="M 55.5 178 L 58 178.5 L 55.5 179 L 55.5 178 Z " /><path fill="rgb(250,242,242)" stroke="rgb(250,242,242)" stroke-width="1" opacity="0.047058823529411764" d="M 118.5 178 L 120 178.5 L 118.5 181 L 118.5 178 Z " /><path fill="rgb(250,242,242)" stroke="rgb(250,242,242)" stroke-width="1" opacity="0.047058823529411764" d="M 146.5 178 L 147 178.5 L 141.5 184 L 141 181.5 L 143 180.5 L 143.5 179 L 146.5 178 Z " /><path fill="rgb(250,242,242)" stroke="rgb(250,242,242)" stroke-width="1" opacity="0.047058823529411764" d="M 116.5 179 L 117 181.5 L 116 181.5 L 116.5 179 Z " /><path fill="rgb(250,242,242)" stroke="rgb(250,242,242)" stroke-width="1" opacity="0.047058823529411764" d="M 104.5 185 L 105 187.5 L 104 187.5 L 104.5 185 Z " /><path fill="rgb(250,242,242)" stroke="rgb(250,242,242)" stroke-width="1" opacity="0.047058823529411764" d="M 133.5 186 L 134 188.5 L 133 188.5 L 133.5 186 Z " /><path fill="rgb(250,242,242)" stroke="rgb(250,242,242)" stroke-width="1" opacity="0.047058823529411764" d="M 101.5 187 L 102 189.5 L 101 189.5 L 101.5 187 Z " /><path fill="rgb(250,242,242)" stroke="rgb(250,242,242)" stroke-width="1" opacity="0.047058823529411764" d="M 99.5 188 L 100 190.5 Q 99 193 98 191.5 L 99.5 188 Z " /><path fill="rgb(250,242,242)" stroke="rgb(250,242,242)" stroke-width="1" opacity="0.047058823529411764" d="M 96.5 190 L 97 192.5 Q 96 195 95 193.5 L 96.5 190 Z " /><path fill="rgb(250,242,242)" stroke="rgb(250,242,242)" stroke-width="1" opacity="0.047058823529411764" d="M 92.5 193 L 93 195.5 L 89.5 199 L 89 198.5 L 92.5 193 Z " /><path fill="rgb(250,242,242)" stroke="rgb(250,242,242)" stroke-width="1" opacity="0.047058823529411764" d="M 118.5 194 L 119 196.5 L 118 196.5 L 118.5 194 Z " /><path fill="rgb(250,242,242)" stroke="rgb(250,242,242)" stroke-width="1" opacity="0.047058823529411764" d="M 115.5 195 L 117 195.5 L 115.5 198 L 115.5 195 Z " /><path fill="rgb(250,242,242)" stroke="rgb(250,242,242)" stroke-width="1" opacity="0.047058823529411764" d="M 110.5 197 L 112 197.5 L 110.5 200 L 110.5 197 Z " /><path fill="rgb(250,242,242)" stroke="rgb(250,242,242)" stroke-width="1" opacity="0.047058823529411764" d="M 79.5 199 L 82 199.5 L 81.5 201 L 79 200.5 L 79.5 199 Z " /><path fill="rgb(250,242,242)" stroke="rgb(250,242,242)" stroke-width="1" opacity="0.047058823529411764" d="M 95.5 199 L 97 199.5 L 96.5 201 L 95 200.5 L 95.5 199 Z " /><path fill="rgb(250,242,242)" stroke="rgb(250,242,242)" stroke-width="1" opacity="0.047058823529411764" d="M 71.5 200 L 74 200.5 L 71.5 201 L 71.5 200 Z " /><path fill="rgb(250,242,242)" stroke="rgb(250,242,242)" stroke-width="1" opacity="0.047058823529411764" d="M 17.5 228 L 18 323.5 L 17 323.5 L 17.5 228 Z " /><path fill="rgb(163,42,42)" stroke="rgb(163,42,42)" stroke-width="1" opacity="0.9607843137254902" d="M 403.5 72 L 406 72.5 L 403.5 73 L 403.5 72 Z " /><path fill="rgb(163,42,42)" stroke="rgb(163,42,42)" stroke-width="1" opacity="0.9607843137254902" d="M 411.5 72 L 416 72.5 L 411.5 73 L 411.5 72 Z " /><path fill="rgb(163,42,42)" stroke="rgb(163,42,42)" stroke-width="1" opacity="0.9607843137254902" d="M 418.5 73 L 421 73.5 L 418.5 74 L 418.5 73 Z " /><path fill="rgb(163,42,42)" stroke="rgb(163,42,42)" stroke-width="1" opacity="0.9607843137254902" d="M 589.5 74 L 592 74.5 L 589.5 75 L 589.5 74 Z " /><path fill="rgb(163,42,42)" stroke="rgb(163,42,42)" stroke-width="1" opacity="0.9607843137254902" d="M 459.5 87 L 462 88.5 L 460.5 89 Q 458 88 459.5 87 Z " /><path fill="rgb(163,42,42)" stroke="rgb(163,42,42)" stroke-width="1" opacity="0.9607843137254902" d="M 471.5 93 L 475 95.5 L 473.5 95 Q 469.7 94.3 471.5 93 Z " /><path fill="rgb(163,42,42)" stroke="rgb(163,42,42)" stroke-width="1" opacity="0.9607843137254902" d="M 423.5 95 L 430 99.5 L 428.5 99 Q 423.9 97.8 423.5 95 Z " /><path fill="rgb(163,42,42)" stroke="rgb(163,42,42)" stroke-width="1" opacity="0.9607843137254902" d="M 435.5 102 L 438 103.5 L 436.5 104 Q 434 103 435.5 102 Z " /><path fill="rgb(163,42,42)" stroke="rgb(163,42,42)" stroke-width="1" opacity="0.9607843137254902" d="M 442.5 106 L 446 107.5 L 444.5 108 L 442 106.5 L 442.5 106 Z " /><path fill="rgb(163,42,42)" stroke="rgb(163,42,42)" stroke-width="1" opacity="0.9607843137254902" d="M 539.5 118 Q 542 119 540.5 120 L 538 119.5 L 539.5 118 Z " /><path fill="rgb(163,42,42)" stroke="rgb(163,42,42)" stroke-width="1" opacity="0.9607843137254902" d="M 493.5 119 L 494 160.5 L 493 160.5 L 493.5 119 Z " /><path fill="rgb(163,42,42)" stroke="rgb(163,42,42)" stroke-width="1" opacity="0.9607843137254902" d="M 486.5 120 L 487 160.5 L 486 160.5 L 486.5 120 Z " /><path fill="rgb(163,42,42)" stroke="rgb(163,42,42)" stroke-width="1" opacity="0.9607843137254902" d="M 197.5 129 L 205 129.5 L 197.5 130 L 197.5 129 Z " /><path fill="rgb(163,42,42)" stroke="rgb(163,42,42)" stroke-width="1" opacity="0.9607843137254902" d="M 207.5 130 L 210 130.5 L 207.5 131 L 207.5 130 Z " /><path fill="rgb(163,42,42)" stroke="rgb(163,42,42)" stroke-width="1" opacity="0.9607843137254902" d="M 345.5 130 L 348 130.5 L 345.5 131 L 345.5 130 Z " /><path fill="rgb(163,42,42)" stroke="rgb(163,42,42)" stroke-width="1" opacity="0.9607843137254902" d="M 338.5 131 L 341 131.5 L 338.5 132 L 338.5 131 Z " /><path fill="rgb(163,42,42)" stroke="rgb(163,42,42)" stroke-width="1" opacity="0.9607843137254902" d="M 193.5 132 L 194 135.5 L 193 135.5 L 193.5 132 Z " /><path fill="rgb(163,42,42)" stroke="rgb(163,42,42)" stroke-width="1" opacity="0.9607843137254902" d="M 625.5 135 L 626 159.5 L 607.5 160 L 604 158.5 L 608.5 158 L 610 156.5 L 625.5 135 Z " /><path fill="rgb(163,42,42)" stroke="rgb(163,42,42)" stroke-width="1" opacity="0.9607843137254902" d="M 247.5 145 L 250 146.5 L 248.5 146 Q 246.1 145.9 247.5 145 Z " /><path fill="rgb(163,42,42)" stroke="rgb(163,42,42)" stroke-width="1" opacity="0.9607843137254902" d="M 213.5 148 L 218 150.5 L 216.5 151 L 213 148.5 L 213.5 148 Z " /><path fill="rgb(163,42,42)" stroke="rgb(163,42,42)" stroke-width="1" opacity="0.9607843137254902" d="M 253.5 148 L 256 149.5 L 254.5 150 Q 252 149 253.5 148 Z " /><path fill="rgb(163,42,42)" stroke="rgb(163,42,42)" stroke-width="1" opacity="0.9607843137254902" d="M 225.5 155 L 229 156.5 L 227.5 157 L 225 155.5 L 225.5 155 Z " /><path fill="rgb(163,42,42)" stroke="rgb(163,42,42)" stroke-width="1" opacity="0.9607843137254902" d="M 386.5 163 L 487 163.5 L 486.5 324 L 485.5 164 L 386 164.5 L 385.5 324 L 385 164.5 L 386.5 163 Z " /><path fill="rgb(163,42,42)" stroke="rgb(163,42,42)" stroke-width="1" opacity="0.9607843137254902" d="M 493.5 163 L 511 163.5 L 494 164.5 L 493.5 324 L 493.5 163 Z " /><path fill="rgb(163,42,42)" stroke="rgb(163,42,42)" stroke-width="1" opacity="0.9607843137254902" d="M 519.5 163 L 616 163.5 L 519.5 164 L 519.5 163 Z " /><path fill="rgb(163,42,42)" stroke="rgb(163,42,42)" stroke-width="1" opacity="0.9607843137254902" d="M 242.5 165 Q 245 166 243.5 167 L 175 166.5 L 241.5 166 L 242.5 165 Z " /><path fill="rgb(163,42,42)" stroke="rgb(163,42,42)" stroke-width="1" opacity="0.9607843137254902" d="M 306.5 165 L 307.5 166 L 368 166.5 L 305.5 167 Q 304 166 306.5 165 Z " /><path fill="rgb(163,42,42)" stroke="rgb(163,42,42)" stroke-width="1" opacity="0.9607843137254902" d="M 252.5 166 L 261 166.5 L 252.5 167 L 252.5 166 Z " /><path fill="rgb(163,42,42)" stroke="rgb(163,42,42)" stroke-width="1" opacity="0.9607843137254902" d="M 267.5 166 L 271 166.5 L 267.5 167 L 267.5 166 Z " /><path fill="rgb(163,42,42)" stroke="rgb(163,42,42)" stroke-width="1" opacity="0.9607843137254902" d="M 276.5 166 L 280 166.5 L 276.5 167 L 276.5 166 Z " /><path fill="rgb(163,42,42)" stroke="rgb(163,42,42)" stroke-width="1" opacity="0.9607843137254902" d="M 286.5 166 L 299 166.5 L 286.5 167 L 286.5 166 Z " /><path fill="rgb(163,42,42)" stroke="rgb(163,42,42)" stroke-width="1" opacity="0.9607843137254902" d="M 279.5 168 L 280 195.5 L 279 195.5 L 279.5 168 Z " /><path fill="rgb(163,42,42)" stroke="rgb(163,42,42)" stroke-width="1" opacity="0.9607843137254902" d="M 30.5 173 L 36 173.5 L 30.5 174 L 30.5 173 Z " /><path fill="rgb(163,42,42)" stroke="rgb(163,42,42)" stroke-width="1" opacity="0.9607843137254902" d="M 142.5 174 L 148 174.5 L 142.5 175 L 142.5 174 Z " /><path fill="rgb(163,42,42)" stroke="rgb(163,42,42)" stroke-width="1" opacity="0.9607843137254902" d="M 367.5 176 L 368 195.5 L 365.5 197 L 350.5 197 L 350.5 196 Q 355 197 356 194.5 L 367 179.5 L 367.5 176 Z " /><path fill="rgb(163,42,42)" stroke="rgb(163,42,42)" stroke-width="1" opacity="0.9607843137254902" d="M 42.5 188 L 46 189.5 L 44.5 190 L 42 188.5 L 42.5 188 Z " /><path fill="rgb(163,42,42)" stroke="rgb(163,42,42)" stroke-width="1" opacity="0.9607843137254902" d="M 182.5 200 L 183 322.5 L 182 322.5 L 182.5 200 Z " /><path fill="rgb(163,42,42)" stroke="rgb(163,42,42)" stroke-width="1" opacity="0.9607843137254902" d="M 279.5 202 L 280 320.5 L 279 320.5 L 279.5 202 Z " /><path fill="rgb(163,42,42)" stroke="rgb(163,42,42)" stroke-width="1" opacity="0.9607843137254902" d="M 160.5 208 L 161 223.5 L 160 224.5 L 160.5 226 L 148 224.5 L 152 223.5 L 160 212.5 L 160.5 208 Z " /><path fill="rgb(240,164,164)" stroke="rgb(240,164,164)" stroke-width="1" opacity="0.00392156862745098" d="M 600.5 79 L 600 80.5 L 594.5 87 L 594 86.5 L 599 81.5 L 600.5 79 Z " /><path fill="rgb(240,164,164)" stroke="rgb(240,164,164)" stroke-width="1" opacity="0.00392156862745098" d="M 552.5 83 L 554 83.5 L 551.5 85 Q 550 84 552.5 83 Z " /><path fill="rgb(240,164,164)" stroke="rgb(240,164,164)" stroke-width="1" opacity="0.00392156862745098" d="M 575.5 98 L 577 98.5 L 574.5 100 Q 573 99 575.5 98 Z " /><path fill="rgb(240,164,164)" stroke="rgb(240,164,164)" stroke-width="1" opacity="0.00392156862745098" d="M 553.5 109 L 555 109.5 L 552.5 111 Q 551 110 553.5 109 Z " /><path fill="rgb(240,164,164)" stroke="rgb(240,164,164)" stroke-width="1" opacity="0.00392156862745098" d="M 506.5 111 L 507 111.5 L 503.5 115 L 503 114.5 L 506.5 111 Z " /><path fill="rgb(240,164,164)" stroke="rgb(240,164,164)" stroke-width="1" opacity="0.00392156862745098" d="M 0.5 119 L 375 119.5 L 0.5 120 L 0.5 119 Z " /><path fill="rgb(240,164,164)" stroke="rgb(240,164,164)" stroke-width="1" opacity="0.00392156862745098" d="M 197.5 126 L 199 128.5 Q 198 130 197 127.5 L 197.5 126 Z " /><path fill="rgb(240,164,164)" stroke="rgb(240,164,164)" stroke-width="1" opacity="0.00392156862745098" d="M 201.5 126 L 203 126.5 L 204 128.5 L 202.5 128 L 201 127.5 L 201.5 126 Z " /><path fill="rgb(240,164,164)" stroke="rgb(240,164,164)" stroke-width="1" opacity="0.00392156862745098" d="M 193.5 128 L 194 129.5 L 191.5 131 L 191 130.5 L 193.5 128 Z " /><path fill="rgb(240,164,164)" stroke="rgb(240,164,164)" stroke-width="1" opacity="0.00392156862745098" d="M 209.5 129 L 213 129.5 L 209.5 130 L 209.5 129 Z " /><path fill="rgb(240,164,164)" stroke="rgb(240,164,164)" stroke-width="1" opacity="0.00392156862745098" d="M 330.5 130 L 333 130.5 L 332.5 132 L 330 131.5 L 330.5 130 Z " /><path fill="rgb(240,164,164)" stroke="rgb(240,164,164)" stroke-width="1" opacity="0.00392156862745098" d="M 190.5 133 L 192 133.5 L 191 134.5 L 190.5 160 L 190.5 133 Z " /><path fill="rgb(240,164,164)" stroke="rgb(240,164,164)" stroke-width="1" opacity="0.00392156862745098" d="M 321.5 133 L 324 133.5 L 320.5 136 L 318.5 136 L 318 134.5 L 321.5 133 Z " /><path fill="rgb(240,164,164)" stroke="rgb(240,164,164)" stroke-width="1" opacity="0.00392156862745098" d="M 314.5 136 L 316 136.5 Q 315 139 314 137.5 L 314.5 136 Z " /><path fill="rgb(240,164,164)" stroke="rgb(240,164,164)" stroke-width="1" opacity="0.00392156862745098" d="M 311.5 137 L 313 137.5 L 310.5 140 L 310 139.5 L 311.5 137 Z " /><path fill="rgb(240,164,164)" stroke="rgb(240,164,164)" stroke-width="1" opacity="0.00392156862745098" d="M 305.5 140 L 307 140.5 L 303.5 143 L 303 141.5 L 305.5 140 Z " /><path fill="rgb(240,164,164)" stroke="rgb(240,164,164)" stroke-width="1" opacity="0.00392156862745098" d="M 338.5 143 L 339 144.5 Q 338 147 337 145.5 L 338.5 143 Z " /><path fill="rgb(240,164,164)" stroke="rgb(240,164,164)" stroke-width="1" opacity="0.00392156862745098" d="M 293.5 146 L 295 146.5 L 294.5 148 L 292.5 149 L 292 147.5 L 293.5 146 Z " /><path fill="rgb(240,164,164)" stroke="rgb(240,164,164)" stroke-width="1" opacity="0.00392156862745098" d="M 333.5 146 L 334 147.5 Q 333 150 332 148.5 L 333.5 146 Z " /><path fill="rgb(240,164,164)" stroke="rgb(240,164,164)" stroke-width="1" opacity="0.00392156862745098" d="M 288.5 149 L 290 149.5 L 289.5 151 L 287.5 152 L 287 150.5 L 288.5 149 Z " /><path fill="rgb(240,164,164)" stroke="rgb(240,164,164)" stroke-width="1" opacity="0.00392156862745098" d="M 328.5 149 L 330 149.5 L 329.5 151 L 328 150.5 L 328.5 149 Z " /><path fill="rgb(240,164,164)" stroke="rgb(240,164,164)" stroke-width="1" opacity="0.00392156862745098" d="M 326.5 150 L 327 151.5 Q 326 154 325 152.5 L 326.5 150 Z " /><path fill="rgb(240,164,164)" stroke="rgb(240,164,164)" stroke-width="1" opacity="0.00392156862745098" d="M 314.5 156 L 316 156.5 L 315.5 158 L 311.5 160 L 311 158.5 L 314.5 156 Z " /><path fill="rgb(240,164,164)" stroke="rgb(240,164,164)" stroke-width="1" opacity="0.00392156862745098" d="M 277.5 157 L 278 158.5 L 274.5 161 L 274 160.5 L 277.5 157 Z " /><path fill="rgb(240,164,164)" stroke="rgb(240,164,164)" stroke-width="1" opacity="0.00392156862745098" d="M 30.5 170 L 34 170.5 L 33.5 173 Q 30.5 173.5 30 171.5 L 30.5 170 Z " /><path fill="rgb(240,164,164)" stroke="rgb(240,164,164)" stroke-width="1" opacity="0.00392156862745098" d="M 143.5 171 L 145 171.5 L 146 173.5 L 144.5 173 L 143 172.5 L 143.5 171 Z " /><path fill="rgb(240,164,164)" stroke="rgb(240,164,164)" stroke-width="1" opacity="0.00392156862745098" d="M 46.5 173 L 47 174.5 L 45.5 175 Q 44 174 46.5 173 Z " /><path fill="rgb(240,164,164)" stroke="rgb(240,164,164)" stroke-width="1" opacity="0.00392156862745098" d="M 129.5 174 L 131 174.5 L 130.5 176 L 129 175.5 L 129.5 174 Z " /><path fill="rgb(240,164,164)" stroke="rgb(240,164,164)" stroke-width="1" opacity="0.00392156862745098" d="M 126.5 175 L 128 175.5 L 127.5 177 L 126 176.5 L 126.5 175 Z " /><path fill="rgb(240,164,164)" stroke="rgb(240,164,164)" stroke-width="1" opacity="0.00392156862745098" d="M 106.5 184 L 107 185.5 Q 106 188 105 186.5 L 106.5 184 Z " /><path fill="rgb(240,164,164)" stroke="rgb(240,164,164)" stroke-width="1" opacity="0.00392156862745098" d="M 95.5 191 L 96 192.5 Q 95 195 94 193.5 L 95.5 191 Z " /><path fill="rgb(240,164,164)" stroke="rgb(240,164,164)" stroke-width="1" opacity="0.00392156862745098" d="M 90.5 195 L 91 196.5 Q 90 199 89 197.5 L 90.5 195 Z " /><path fill="rgb(240,164,164)" stroke="rgb(240,164,164)" stroke-width="1" opacity="0.00392156862745098" d="M 113.5 196 L 115 196.5 L 114.5 198 L 113 197.5 L 113.5 196 Z " /><path fill="rgb(240,164,164)" stroke="rgb(240,164,164)" stroke-width="1" opacity="0.00392156862745098" d="M 68.5 199 L 71 199.5 L 68.5 200 L 68.5 199 Z " /><path fill="rgb(240,164,164)" stroke="rgb(240,164,164)" stroke-width="1" opacity="0.00392156862745098" d="M 163.5 220 L 164 224.5 L 163 224.5 L 163.5 220 Z " /><path fill="rgb(244,205,205)" stroke="rgb(244,205,205)" stroke-width="1" opacity="0.6901960784313725" d="M 265.5 322 Q 267 323 264.5 324 L 262 323.5 L 265.5 322 Z " /><path fill="rgb(244,205,205)" stroke="rgb(244,205,205)" stroke-width="1" opacity="0.6901960784313725" d="M 281.5 323 L 284 323.5 L 281.5 324 L 281.5 323 Z " /><path fill="rgb(244,205,205)" stroke="rgb(244,205,205)" stroke-width="1" opacity="0.6901960784313725" d="M 487.5 323 L 492 323.5 L 487.5 324 L 487.5 323 Z " /><path fill="rgb(244,205,205)" stroke="rgb(244,205,205)" stroke-width="1" opacity="0.6901960784313725" d="M 512.5 323 L 517 323.5 L 512.5 324 L 512.5 323 Z " /><path fill="rgb(126,251,251)" stroke="rgb(126,251,251)" stroke-width="1" opacity="0" d="M 175.5 199 L 181 199.5 L 175.5 200 L 175.5 199 Z " /><path fill="rgb(126,251,251)" stroke="rgb(126,251,251)" stroke-width="1" opacity="0" d="M 74.5 200 L 79 200.5 L 74.5 201 L 74.5 200 Z " /><path fill="rgb(126,251,251)" stroke="rgb(126,251,251)" stroke-width="1" opacity="0" d="M 117.5 200 L 172 200.5 L 117.5 201 L 117.5 200 Z " /><path fill="rgb(229,166,166)" stroke="rgb(229,166,166)" stroke-width="1" opacity="0.7098039215686275" d="M 508.5 112 L 509 112.5 L 505.5 116 L 505 115.5 L 508.5 112 Z " /><path fill="rgb(229,166,166)" stroke="rgb(229,166,166)" stroke-width="1" opacity="0.7098039215686275" d="M 79.5 201 L 82 201.5 L 79.5 202 L 79.5 201 Z " /><path fill="rgb(229,166,166)" stroke="rgb(229,166,166)" stroke-width="1" opacity="0.7098039215686275" d="M 94.5 201 L 97 201.5 L 94.5 202 L 94.5 201 Z " /><path fill="rgb(211,115,115)" stroke="rgb(211,115,115)" stroke-width="1" opacity="0.5529411764705883" d="M 405.5 71 L 413 71.5 L 405.5 72 L 405.5 71 Z " /><path fill="rgb(211,115,115)" stroke="rgb(211,115,115)" stroke-width="1" opacity="0.5529411764705883" d="M 488.5 119 L 493 119.5 L 488.5 120 L 488.5 119 Z " /><path fill="rgb(211,115,115)" stroke="rgb(211,115,115)" stroke-width="1" opacity="0.5529411764705883" d="M 512.5 119 L 517 119.5 L 512.5 120 L 512.5 119 Z " /><path fill="rgb(211,115,115)" stroke="rgb(211,115,115)" stroke-width="1" opacity="0.5529411764705883" d="M 260.5 198 Q 262 199 259.5 200 L 182 199.5 L 259.5 199 L 260.5 198 Z " /><path fill="rgb(211,115,115)" stroke="rgb(211,115,115)" stroke-width="1" opacity="0.5529411764705883" d="M 267.5 199 L 278 199.5 L 267.5 200 L 267.5 199 Z " /><path fill="rgb(211,115,115)" stroke="rgb(211,115,115)" stroke-width="1" opacity="0.5529411764705883" d="M 286.5 199 L 360 199.5 L 286.5 200 L 286.5 199 Z " /><path fill="rgb(191,76,76)" stroke="rgb(191,76,76)" stroke-width="1" opacity="0.6235294117647059" d="M 348.5 130 L 351 130.5 L 348.5 131 L 348.5 130 Z " /><path fill="rgb(191,76,76)" stroke="rgb(191,76,76)" stroke-width="1" opacity="0.6235294117647059" d="M 261.5 165 L 266 165.5 L 261.5 166 L 261.5 165 Z " /><path fill="rgb(191,76,76)" stroke="rgb(191,76,76)" stroke-width="1" opacity="0.6235294117647059" d="M 280.5 165 L 284 165.5 L 280.5 166 L 280.5 165 Z " /><path fill="rgb(191,76,76)" stroke="rgb(191,76,76)" stroke-width="1" opacity="0.6235294117647059" d="M 174.5 169 L 175 195.5 L 174 195.5 L 174.5 169 Z " /><path fill="rgb(191,76,76)" stroke="rgb(191,76,76)" stroke-width="1" opacity="0.6235294117647059" d="M 14.5 201 L 64 201.5 L 14.5 202 L 14.5 201 Z " /><path fill="rgb(191,76,76)" stroke="rgb(191,76,76)" stroke-width="1" opacity="0.6235294117647059" d="M 72.5 201 L 76 201.5 L 72.5 202 L 72.5 201 Z " /><path fill="rgb(191,76,76)" stroke="rgb(191,76,76)" stroke-width="1" opacity="0.6235294117647059" d="M 83.5 201 L 86 201.5 L 83.5 202 L 83.5 201 Z " /><path fill="rgb(191,76,76)" stroke="rgb(191,76,76)" stroke-width="1" opacity="0.6235294117647059" d="M 100.5 201 L 107 201.5 L 100.5 202 L 100.5 201 Z " /><path fill="rgb(191,76,76)" stroke="rgb(191,76,76)" stroke-width="1" opacity="0.6235294117647059" d="M 115.5 201 L 160 201.5 L 115.5 202 L 115.5 201 Z " /><path fill="rgb(191,76,76)" stroke="rgb(191,76,76)" stroke-width="1" opacity="0.6235294117647059" d="M 12.5 202 L 13 223.5 L 12 223.5 L 12.5 202 Z " /><path fill="rgb(45,59,59)" stroke="rgb(45,59,59)" stroke-width="1" opacity="0.09803921568627451" d="M 33.5 176 L 38 176.5 L 33.5 177 L 33.5 176 Z " /><path fill="rgb(45,59,59)" stroke="rgb(45,59,59)" stroke-width="1" opacity="0.09803921568627451" d="M 19.5 226 L 78 226.5 L 19.5 227 L 19.5 226 Z " /><path fill="rgb(45,59,59)" stroke="rgb(45,59,59)" stroke-width="1" opacity="0.09803921568627451" d="M 84.5 226 L 92 226.5 L 84.5 227 L 84.5 226 Z " /><path fill="rgb(45,59,59)" stroke="rgb(45,59,59)" stroke-width="1" opacity="0.09803921568627451" d="M 98.5 226 L 155 226.5 L 98.5 227 L 98.5 226 Z " /><path fill="rgb(80,30,30)" stroke="rgb(80,30,30)" stroke-width="1" opacity="0.6745098039215687" d="M 406.5 74 L 410 74.5 L 406.5 75 L 406.5 74 Z " /><path fill="rgb(80,30,30)" stroke="rgb(80,30,30)" stroke-width="1" opacity="0.6745098039215687" d="M 414.5 75 L 417 75.5 L 414.5 76 L 414.5 75 Z " /><path fill="rgb(80,30,30)" stroke="rgb(80,30,30)" stroke-width="1" opacity="0.6745098039215687" d="M 592.5 76 L 601 76.5 L 592.5 77 L 592.5 76 Z " /><path fill="rgb(80,30,30)" stroke="rgb(80,30,30)" stroke-width="1" opacity="0.6745098039215687" d="M 509.5 115 L 510 115.5 L 507.5 118 L 507 117.5 L 509.5 115 Z " /><path fill="rgb(80,30,30)" stroke="rgb(80,30,30)" stroke-width="1" opacity="0.6745098039215687" d="M 626.5 119 L 627 160.5 L 519 161.5 L 518.5 163 L 518 161.5 L 519.5 160 L 626 159.5 L 626.5 119 Z " /><path fill="rgb(80,30,30)" stroke="rgb(80,30,30)" stroke-width="1" opacity="0.6745098039215687" d="M 197.5 131 L 203 131.5 L 197.5 132 L 197.5 131 Z " /><path fill="rgb(80,30,30)" stroke="rgb(80,30,30)" stroke-width="1" opacity="0.6745098039215687" d="M 197.5 136 L 200 138.5 L 199.5 139 L 197 136.5 L 197.5 136 Z " /><path fill="rgb(80,30,30)" stroke="rgb(80,30,30)" stroke-width="1" opacity="0.6745098039215687" d="M 376.5 160 L 486 160.5 L 376.5 161 L 376.5 160 Z " /><path fill="rgb(80,30,30)" stroke="rgb(80,30,30)" stroke-width="1" opacity="0.6745098039215687" d="M 494.5 160 L 511 160.5 L 494.5 161 L 494.5 160 Z " /><path fill="rgb(80,30,30)" stroke="rgb(80,30,30)" stroke-width="1" opacity="0.6745098039215687" d="M 616.5 163 L 617 323.5 L 616 323.5 L 616.5 163 Z " /><path fill="rgb(80,30,30)" stroke="rgb(80,30,30)" stroke-width="1" opacity="0.6745098039215687" d="M 368.5 185 L 369 195.5 L 368 195.5 L 368.5 185 Z " /><path fill="rgb(80,30,30)" stroke="rgb(80,30,30)" stroke-width="1" opacity="0.6745098039215687" d="M 161.5 209 L 162 225.5 L 161 225.5 L 161.5 209 Z " /><path fill="rgb(80,30,30)" stroke="rgb(80,30,30)" stroke-width="1" opacity="0.6745098039215687" d="M 261.5 324 L 266 324.5 L 261.5 325 L 261.5 324 Z " /><path fill="rgb(80,30,30)" stroke="rgb(80,30,30)" stroke-width="1" opacity="0.6745098039215687" d="M 280.5 324 L 285 324.5 L 280.5 325 L 280.5 324 Z " /><path fill="rgb(80,30,30)" stroke="rgb(80,30,30)" stroke-width="1" opacity="0.6745098039215687" d="M 487.5 324 L 493 324.5 L 487.5 325 L 487.5 324 Z " /><path fill="rgb(80,30,30)" stroke="rgb(80,30,30)" stroke-width="1" opacity="0.6745098039215687" d="M 512.5 324 L 518 324.5 L 512.5 325 L 512.5 324 Z " /><path fill="rgb(217,136,136)" stroke="rgb(217,136,136)" stroke-width="1" opacity="0.25098039215686274" d="M 199.5 128 L 203 128.5 L 199.5 129 L 199.5 128 Z " /><path fill="rgb(217,136,136)" stroke="rgb(217,136,136)" stroke-width="1" opacity="0.25098039215686274" d="M 386.5 162 L 486 162.5 L 386.5 163 L 386.5 162 Z " /><path fill="rgb(217,136,136)" stroke="rgb(217,136,136)" stroke-width="1" opacity="0.25098039215686274" d="M 496.5 162 L 509 162.5 L 496.5 163 L 496.5 162 Z " /><path fill="rgb(217,136,136)" stroke="rgb(217,136,136)" stroke-width="1" opacity="0.25098039215686274" d="M 520.5 162 L 615 162.5 L 520.5 163 L 520.5 162 Z " /><path fill="rgb(217,136,136)" stroke="rgb(217,136,136)" stroke-width="1" opacity="0.25098039215686274" d="M 384.5 163 L 385 323.5 L 384 323.5 L 384.5 163 Z " /><path fill="rgb(217,136,136)" stroke="rgb(217,136,136)" stroke-width="1" opacity="0.25098039215686274" d="M 175.5 165 L 239 165.5 L 175.5 166 L 175.5 165 Z " /><path fill="rgb(217,136,136)" stroke="rgb(217,136,136)" stroke-width="1" opacity="0.25098039215686274" d="M 252.5 165 L 261 165.5 L 252.5 166 L 252.5 165 Z " /><path fill="rgb(217,136,136)" stroke="rgb(217,136,136)" stroke-width="1" opacity="0.25098039215686274" d="M 266.5 165 L 270 165.5 L 266.5 166 L 266.5 165 Z " /><path fill="rgb(217,136,136)" stroke="rgb(217,136,136)" stroke-width="1" opacity="0.25098039215686274" d="M 277.5 165 L 280 165.5 L 277.5 166 L 277.5 165 Z " /><path fill="rgb(217,136,136)" stroke="rgb(217,136,136)" stroke-width="1" opacity="0.25098039215686274" d="M 285.5 165 L 298 165.5 L 285.5 166 L 285.5 165 Z " /><path fill="rgb(217,136,136)" stroke="rgb(217,136,136)" stroke-width="1" opacity="0.25098039215686274" d="M 310.5 165 L 368 165.5 L 310.5 166 L 310.5 165 Z " /><path fill="rgb(217,136,136)" stroke="rgb(217,136,136)" stroke-width="1" opacity="0.25098039215686274" d="M 181.5 200 L 182 323.5 L 181 323.5 L 181.5 200 Z " /><path fill="rgb(138,0,0)" stroke="rgb(138,0,0)" stroke-width="1" opacity="0.00784313725490196" d="M 605.5 73 L 608 75.5 L 607.5 76 Q 606.5 74 605.5 76 L 604 74.5 L 605.5 73 Z " /><path fill="rgb(138,0,0)" stroke="rgb(138,0,0)" stroke-width="1" opacity="0.00784313725490196" d="M 406.5 76 L 410 76.5 L 406.5 77 L 406.5 76 Z " /><path fill="rgb(138,0,0)" stroke="rgb(138,0,0)" stroke-width="1" opacity="0.00784313725490196" d="M 404.5 77 L 411.5 85 L 413 85.5 L 411.5 86 Q 410.5 84 409.5 86 L 404 80.5 L 405 78.5 L 403 78.5 L 404.5 77 Z " /><path fill="rgb(138,0,0)" stroke="rgb(138,0,0)" stroke-width="1" opacity="0.00784313725490196" d="M 413.5 77 L 417 77.5 L 413.5 78 L 413.5 77 Z " /><path fill="rgb(138,0,0)" stroke="rgb(138,0,0)" stroke-width="1" opacity="0.00784313725490196" d="M 418.5 78 L 421 78.5 L 418.5 79 L 418.5 78 Z " /><path fill="rgb(138,0,0)" stroke="rgb(138,0,0)" stroke-width="1" opacity="0.00784313725490196" d="M 592.5 78 L 600 78.5 L 592.5 79 L 592.5 78 Z " /><path fill="rgb(138,0,0)" stroke="rgb(138,0,0)" stroke-width="1" opacity="0.00784313725490196" d="M 422.5 79 L 425 79.5 L 422.5 80 L 422.5 79 Z " /><path fill="rgb(138,0,0)" stroke="rgb(138,0,0)" stroke-width="1" opacity="0.00784313725490196" d="M 587.5 79 L 591 79.5 L 587.5 80 L 587.5 79 Z " /><path fill="rgb(138,0,0)" stroke="rgb(138,0,0)" stroke-width="1" opacity="0.00784313725490196" d="M 583.5 80 L 586 80.5 L 583.5 81 L 583.5 80 Z " /><path fill="rgb(138,0,0)" stroke="rgb(138,0,0)" stroke-width="1" opacity="0.00784313725490196" d="M 607.5 80 L 608 81.5 L 597.5 93 L 597 92.5 L 605 84.5 L 607.5 80 Z " /><path fill="rgb(138,0,0)" stroke="rgb(138,0,0)" stroke-width="1" opacity="0.00784313725490196" d="M 399.5 81 L 410 90.5 L 409.5 92 L 411.5 93 Q 412.8 90.8 414 93.5 L 413.5 95 L 415.5 96 L 417 95.5 L 416 96.5 L 416.5 98 Q 407.5 92.5 401 84.5 Q 403.3 83.3 400.5 82 L 399 82.5 L 399.5 81 Z " /><path fill="rgb(138,0,0)" stroke="rgb(138,0,0)" stroke-width="1" opacity="0.00784313725490196" d="M 437.5 82 L 437.5 84 L 439 84.5 L 437.5 85 L 435 83.5 L 437.5 82 Z " /><path fill="rgb(138,0,0)" stroke="rgb(138,0,0)" stroke-width="1" opacity="0.00784313725490196" d="M 442.5 84 L 444 84.5 L 440.5 86 L 440.5 85 L 442.5 84 Z " /><path fill="rgb(138,0,0)" stroke="rgb(138,0,0)" stroke-width="1" opacity="0.00784313725490196" d="M 447.5 86 L 447.5 88 L 449 88.5 L 447.5 89 L 445 87.5 L 447.5 86 Z " /><path fill="rgb(138,0,0)" stroke="rgb(138,0,0)" stroke-width="1" opacity="0.00784313725490196" d="M 412.5 87 L 415.5 88 L 421 91.5 Q 420 94 419 92.5 L 419.5 91 L 417.5 90 L 416 90.5 L 416.5 89 L 414.5 88 L 413.5 89 Q 411 88 412.5 87 Z " /><path fill="rgb(138,0,0)" stroke="rgb(138,0,0)" stroke-width="1" opacity="0.00784313725490196" d="M 454.5 89 L 454.5 91 L 456.5 90 L 456.5 92 L 458.5 91 L 458.5 93 L 460 93.5 L 458.5 94 L 452 90.5 L 454.5 89 Z " /><path fill="rgb(138,0,0)" stroke="rgb(138,0,0)" stroke-width="1" opacity="0.00784313725490196" d="M 468.5 96 L 468.5 98 L 470.5 97 L 470.5 99 L 472.5 98 L 472.5 101 L 467 97.5 L 468.5 96 Z " /><path fill="rgb(138,0,0)" stroke="rgb(138,0,0)" stroke-width="1" opacity="0.00784313725490196" d="M 421.5 98 L 423 99.5 L 422.5 101 L 424.5 100 L 424.5 103 L 421 100.5 L 422 99.5 L 421.5 98 Z " /><path fill="rgb(138,0,0)" stroke="rgb(138,0,0)" stroke-width="1" opacity="0.00784313725490196" d="M 477.5 101 L 477.5 103 L 479.5 102 Q 482.5 103.5 479.5 105 L 476 102.5 L 477.5 101 Z " /><path fill="rgb(138,0,0)" stroke="rgb(138,0,0)" stroke-width="1" opacity="0.00784313725490196" d="M 427.5 102 L 427.5 104 L 429.5 103 L 429.5 106 L 426 103.5 L 427.5 102 Z " /><path fill="rgb(138,0,0)" stroke="rgb(138,0,0)" stroke-width="1" opacity="0.00784313725490196" d="M 442.5 103 L 446 105.5 L 444.5 105 Q 440.7 104.3 442.5 103 Z " /><path fill="rgb(138,0,0)" stroke="rgb(138,0,0)" stroke-width="1" opacity="0.00784313725490196" d="M 492.5 104 L 496 107.5 L 495.5 108 Q 494.5 106 493.5 108 L 492 106.5 L 493 105.5 L 492.5 104 Z " /><path fill="rgb(138,0,0)" stroke="rgb(138,0,0)" stroke-width="1" opacity="0.00784313725490196" d="M 488.5 108 L 490 109.5 L 489.5 111 L 491.5 112 L 492.5 111 L 499 117.5 L 496 117.5 Q 498.2 116.3 495.5 115 L 494 115.5 Q 496.3 114.3 493.5 113 Q 492 115.5 490.5 112 L 487 109.5 L 488.5 108 Z " /><path fill="rgb(138,0,0)" stroke="rgb(138,0,0)" stroke-width="1" opacity="0.00784313725490196" d="M 497.5 108 L 503 114.5 L 501.5 115 L 496 109.5 L 497.5 108 Z " /><path fill="rgb(138,0,0)" stroke="rgb(138,0,0)" stroke-width="1" opacity="0.00784313725490196" d="M 451.5 114 L 451.5 116 L 453 116.5 L 451.5 117 L 449 115.5 L 451.5 114 Z " /><path fill="rgb(138,0,0)" stroke="rgb(138,0,0)" stroke-width="1" opacity="0.00784313725490196" d="M 627.5 119 L 629 120.5 L 629 160.5 L 628 160.5 L 628 120.5 L 627.5 119 Z " /><path fill="rgb(138,0,0)" stroke="rgb(138,0,0)" stroke-width="1" opacity="0.00784313725490196" d="M 373.5 120 L 374 160.5 L 373 160.5 L 372.5 136 L 355.5 136 L 354 137.5 L 353.5 160 L 346 159.5 L 346 145.5 L 353 138.5 L 354.5 135 L 373 134.5 L 372.5 133 L 353.5 133 L 352 131.5 L 353.5 131 L 354.5 132 L 372.5 132 L 373.5 120 Z " /><path fill="rgb(138,0,0)" stroke="rgb(138,0,0)" stroke-width="1" opacity="0.00784313725490196" d="M 216.5 129 L 333 129.5 L 217.5 130 L 216.5 131 L 216.5 129 Z " /><path fill="rgb(138,0,0)" stroke="rgb(138,0,0)" stroke-width="1" opacity="0.00784313725490196" d="M 222.5 131 L 326 131.5 L 322.5 133 L 226.5 133 L 225.5 134 L 224.5 132 L 222.5 133 L 222.5 131 Z " /><path fill="rgb(138,0,0)" stroke="rgb(138,0,0)" stroke-width="1" opacity="0.00784313725490196" d="M 205.5 132 L 208 133.5 L 208.5 139 L 210.5 133 L 212 134.5 L 212.5 141 L 213.5 134 L 217 135.5 L 214 137.5 L 214 145.5 L 215.5 147 L 216.5 137 L 219.5 136 L 221 137.5 L 221 151.5 L 220 151.5 L 219.5 149 L 218 149.5 L 216.5 147 L 215.5 149 L 214 148.5 Q 214.5 144.5 211.5 144 L 210.5 146 L 208.5 143 L 206.5 144 L 206 141.5 L 209 140.5 L 205.5 140 L 204.5 142 L 199 137.5 L 203 136.5 L 199.5 136 L 198 134.5 L 199.5 133 Q 204.3 134.2 205.5 132 Z M 204 134 L 203 136 L 205 136 L 205 135 L 204 134 Z " /><path fill="rgb(138,0,0)" stroke="rgb(138,0,0)" stroke-width="1" opacity="0.00784313725490196" d="M 230.5 134 L 318 134.5 L 230.5 135 L 230.5 134 Z " /><path fill="rgb(138,0,0)" stroke="rgb(138,0,0)" stroke-width="1" opacity="0.00784313725490196" d="M 191.5 135 L 193.5 138 L 194.5 137 L 201 143.5 L 200.5 160 L 192 159.5 L 192 136.5 L 191.5 135 Z " /><path fill="rgb(138,0,0)" stroke="rgb(138,0,0)" stroke-width="1" opacity="0.00784313725490196" d="M 339.5 135 L 343 135.5 Q 344 141 340.5 142 L 339 141.5 L 339.5 135 Z " /><path fill="rgb(138,0,0)" stroke="rgb(138,0,0)" stroke-width="1" opacity="0.00784313725490196" d="M 335.5 136 L 337 136.5 L 337 143.5 L 335.5 145 L 335.5 136 Z " /><path fill="rgb(138,0,0)" stroke="rgb(138,0,0)" stroke-width="1" opacity="0.00784313725490196" d="M 222.5 137 L 224 138.5 L 224 152.5 L 223 152.5 L 222 150.5 L 222.5 137 Z " /><path fill="rgb(138,0,0)" stroke="rgb(138,0,0)" stroke-width="1" opacity="0.00784313725490196" d="M 331.5 137 L 334 137.5 L 333.5 146 L 332.5 138 L 331.5 147 L 331.5 137 Z " /><path fill="rgb(138,0,0)" stroke="rgb(138,0,0)" stroke-width="1" opacity="0.00784313725490196" d="M 225.5 138 L 228 139.5 L 226 140.5 L 225.5 154 L 225.5 138 Z " /><path fill="rgb(138,0,0)" stroke="rgb(138,0,0)" stroke-width="1" opacity="0.00784313725490196" d="M 239.5 138 L 309 138.5 L 298.5 143 L 287 150.5 L 286.5 153 L 285.5 151 L 274.5 160 L 271 160.5 L 273 162.5 L 272.5 163 L 267 157.5 Q 269 156.5 267 155.5 L 266.5 154 L 265 154.5 L 264.5 156 L 260 152.5 L 261 150.5 L 256.5 147 L 255.5 149 L 254 148.5 Q 254.5 144.5 251.5 144 L 249.5 143 L 248.5 145 L 247.5 142 L 245.5 143 L 244.5 141 L 243 141.5 L 242.5 140 L 240.5 139 L 239 139.5 L 239.5 138 Z " /><path fill="rgb(138,0,0)" stroke="rgb(138,0,0)" stroke-width="1" opacity="0.00784313725490196" d="M 328.5 138 L 330 138.5 L 329.5 149 L 328 148.5 L 328.5 138 Z " /><path fill="rgb(138,0,0)" stroke="rgb(138,0,0)" stroke-width="1" opacity="0.00784313725490196" d="M 229.5 140 L 231 142.5 L 229 142.5 L 228.5 156 L 227 154.5 L 227 141.5 L 229.5 140 Z " /><path fill="rgb(138,0,0)" stroke="rgb(138,0,0)" stroke-width="1" opacity="0.00784313725490196" d="M 323.5 140 L 324 151.5 L 323 151.5 L 323.5 140 Z " /><path fill="rgb(138,0,0)" stroke="rgb(138,0,0)" stroke-width="1" opacity="0.00784313725490196" d="M 232.5 141 L 251 150.5 L 250.5 160 L 243 159.5 L 242.5 148 L 241.5 159 L 240.5 147 L 239.5 160 L 238.5 158 L 236.5 159 L 236 157.5 L 236.5 156 L 234 155.5 L 233.5 143 L 232.5 157 L 232.5 141 Z " /><path fill="rgb(138,0,0)" stroke="rgb(138,0,0)" stroke-width="1" opacity="0.00784313725490196" d="M 320.5 141 L 322 141.5 L 321.5 153 L 320 152.5 L 320.5 141 Z " /><path fill="rgb(138,0,0)" stroke="rgb(138,0,0)" stroke-width="1" opacity="0.00784313725490196" d="M 318.5 142 L 319 153.5 L 318 153.5 L 318.5 142 Z " /><path fill="rgb(138,0,0)" stroke="rgb(138,0,0)" stroke-width="1" opacity="0.00784313725490196" d="M 315.5 143 L 317 143.5 L 317 154.5 L 315.5 156 L 315.5 143 Z " /><path fill="rgb(138,0,0)" stroke="rgb(138,0,0)" stroke-width="1" opacity="0.00784313725490196" d="M 313.5 144 L 314 156.5 L 313 156.5 L 313.5 144 Z " /><path fill="rgb(138,0,0)" stroke="rgb(138,0,0)" stroke-width="1" opacity="0.00784313725490196" d="M 202.5 145 L 205 146.5 L 204.5 160 L 203 159.5 L 203 146.5 L 202.5 145 Z " /><path fill="rgb(138,0,0)" stroke="rgb(138,0,0)" stroke-width="1" opacity="0.00784313725490196" d="M 311.5 145 L 312 157.5 L 311 157.5 L 311.5 145 Z " /><path fill="rgb(138,0,0)" stroke="rgb(138,0,0)" stroke-width="1" opacity="0.00784313725490196" d="M 309.5 146 L 310 157.5 L 309 157.5 L 309.5 146 Z " /><path fill="rgb(138,0,0)" stroke="rgb(138,0,0)" stroke-width="1" opacity="0.00784313725490196" d="M 307.5 147 L 308 158.5 L 307 158.5 L 307.5 147 Z " /><path fill="rgb(138,0,0)" stroke="rgb(138,0,0)" stroke-width="1" opacity="0.00784313725490196" d="M 206.5 148 L 208 148.5 L 207.5 160 L 206 159.5 L 206.5 148 Z " /><path fill="rgb(138,0,0)" stroke="rgb(138,0,0)" stroke-width="1" opacity="0.00784313725490196" d="M 305.5 148 L 306 159.5 L 305 159.5 L 305.5 148 Z " /><path fill="rgb(138,0,0)" stroke="rgb(138,0,0)" stroke-width="1" opacity="0.00784313725490196" d="M 342.5 148 L 342 149.5 L 341.5 160 L 341 149.5 L 342.5 148 Z " /><path fill="rgb(138,0,0)" stroke="rgb(138,0,0)" stroke-width="1" opacity="0.00784313725490196" d="M 303.5 149 L 304 159.5 L 303 159.5 L 303.5 149 Z " /><path fill="rgb(138,0,0)" stroke="rgb(138,0,0)" stroke-width="1" opacity="0.00784313725490196" d="M 209.5 150 L 220 155.5 L 218 156.5 L 217.5 160 L 214 159.5 L 213.5 153 L 212.5 160 L 209 159.5 L 209.5 150 Z " /><path fill="rgb(138,0,0)" stroke="rgb(138,0,0)" stroke-width="1" opacity="0.00784313725490196" d="M 301.5 150 L 302 159.5 L 301 159.5 L 301.5 150 Z " /><path fill="rgb(138,0,0)" stroke="rgb(138,0,0)" stroke-width="1" opacity="0.00784313725490196" d="M 339.5 150 L 340 159.5 L 338.5 160 L 338 151.5 L 339.5 150 Z " /><path fill="rgb(138,0,0)" stroke="rgb(138,0,0)" stroke-width="1" opacity="0.00784313725490196" d="M 252.5 151 L 256 153.5 L 255.5 160 L 254 159.5 L 253.5 153 L 252.5 160 L 252.5 151 Z " /><path fill="rgb(138,0,0)" stroke="rgb(138,0,0)" stroke-width="1" opacity="0.00784313725490196" d="M 299.5 151 L 300 159.5 L 299 159.5 L 299.5 151 Z " /><path fill="rgb(138,0,0)" stroke="rgb(138,0,0)" stroke-width="1" opacity="0.00784313725490196" d="M 297.5 152 L 298 159.5 L 297 159.5 L 297.5 152 Z " /><path fill="rgb(138,0,0)" stroke="rgb(138,0,0)" stroke-width="1" opacity="0.00784313725490196" d="M 336.5 152 L 337 159.5 L 335.5 160 L 335 153.5 L 336.5 152 Z " /><path fill="rgb(138,0,0)" stroke="rgb(138,0,0)" stroke-width="1" opacity="0.00784313725490196" d="M 295.5 153 L 296 159.5 L 295 159.5 L 295.5 153 Z " /><path fill="rgb(138,0,0)" stroke="rgb(138,0,0)" stroke-width="1" opacity="0.00784313725490196" d="M 293.5 154 L 294 159.5 L 293 159.5 L 293.5 154 Z " /><path fill="rgb(138,0,0)" stroke="rgb(138,0,0)" stroke-width="1" opacity="0.00784313725490196" d="M 333.5 154 L 334 159.5 L 333 159.5 L 333.5 154 Z " /><path fill="rgb(138,0,0)" stroke="rgb(138,0,0)" stroke-width="1" opacity="0.00784313725490196" d="M 257.5 155 L 259 155.5 L 258.5 160 L 257 159.5 L 257.5 155 Z " /><path fill="rgb(138,0,0)" stroke="rgb(138,0,0)" stroke-width="1" opacity="0.00784313725490196" d="M 331.5 155 L 332 159.5 L 330.5 160 L 330 156.5 L 331.5 155 Z " /><path fill="rgb(138,0,0)" stroke="rgb(138,0,0)" stroke-width="1" opacity="0.00784313725490196" d="M 221.5 156 L 222 159.5 L 221 159.5 L 221.5 156 Z " /><path fill="rgb(138,0,0)" stroke="rgb(138,0,0)" stroke-width="1" opacity="0.00784313725490196" d="M 290.5 156 L 291 159.5 L 290 159.5 L 290.5 156 Z " /><path fill="rgb(138,0,0)" stroke="rgb(138,0,0)" stroke-width="1" opacity="0.00784313725490196" d="M 219.5 157 L 220 159.5 L 219 159.5 L 219.5 157 Z " /><path fill="rgb(138,0,0)" stroke="rgb(138,0,0)" stroke-width="1" opacity="0.00784313725490196" d="M 223.5 157 L 224 159.5 L 223 159.5 L 223.5 157 Z " /><path fill="rgb(138,0,0)" stroke="rgb(138,0,0)" stroke-width="1" opacity="0.00784313725490196" d="M 260.5 157 Q 266.7 159.3 270 164.5 L 269.5 165 L 267.5 163 L 266.5 164 L 264 161.5 L 264.5 160 L 260 159.5 L 260.5 157 Z " /><path fill="rgb(138,0,0)" stroke="rgb(138,0,0)" stroke-width="1" opacity="0.00784313725490196" d="M 288.5 157 L 289 159.5 L 287.5 160 L 287 158.5 L 288.5 157 Z " /><path fill="rgb(138,0,0)" stroke="rgb(138,0,0)" stroke-width="1" opacity="0.00784313725490196" d="M 328.5 157 L 329 159.5 L 328 159.5 L 328.5 157 Z " /><path fill="rgb(138,0,0)" stroke="rgb(138,0,0)" stroke-width="1" opacity="0.00784313725490196" d="M 225.5 158 L 226 160.5 L 225 160.5 L 225.5 158 Z " /><path fill="rgb(138,0,0)" stroke="rgb(138,0,0)" stroke-width="1" opacity="0.00784313725490196" d="M 376.5 162 L 384 162.5 L 376.5 163 L 376.5 162 Z " /><path fill="rgb(138,0,0)" stroke="rgb(138,0,0)" stroke-width="1" opacity="0.00784313725490196" d="M 617.5 162 L 627 162.5 L 617.5 163 L 617.5 162 Z " /><path fill="rgb(138,0,0)" stroke="rgb(138,0,0)" stroke-width="1" opacity="0.00784313725490196" d="M 618.5 164 L 619 323.5 L 618 323.5 L 618.5 164 Z " /><path fill="rgb(138,0,0)" stroke="rgb(138,0,0)" stroke-width="1" opacity="0.00784313725490196" d="M 148.5 172 L 150.5 175 L 172 175.5 L 171.5 177 L 152 177.5 L 172 178.5 L 171.5 180 L 150 179.5 Q 150.8 175.3 148 174.5 L 148.5 172 Z " /><path fill="rgb(138,0,0)" stroke="rgb(138,0,0)" stroke-width="1" opacity="0.00784313725490196" d="M 49.5 174 L 129 174.5 L 126 175.5 L 125.5 178 L 124.5 176 L 53.5 176 L 52.5 177 L 51.5 175 Q 48.5 175.5 49.5 174 Z " /><path fill="rgb(138,0,0)" stroke="rgb(138,0,0)" stroke-width="1" opacity="0.00784313725490196" d="M 24.5 177 L 26 177.5 L 25 178.5 L 25 198.5 L 26 198.5 L 26.5 179 L 32 183.5 L 32.5 199 L 34 198.5 L 34 186.5 L 33 185.5 L 34.5 185 L 36 186.5 L 36.5 199 L 37.5 188 L 39 188.5 L 39.5 199 L 40.5 190 L 44 191.5 L 44.5 199 L 45.5 192 L 46.5 199 L 48 198.5 L 49 195.5 L 47 194.5 L 48.5 194 L 51 195.5 L 49 196.5 L 49.5 199 L 50.5 197 L 51.5 199 L 52.5 196 L 56 198.5 L 55.5 201 L 15 200.5 L 15.5 199 L 24 198.5 L 24.5 177 Z M 29 182 L 29 199 L 29 184 L 30 183 L 29 182 Z " /><path fill="rgb(138,0,0)" stroke="rgb(138,0,0)" stroke-width="1" opacity="0.00784313725490196" d="M 29.5 177 L 32.5 178 Q 33.3 176.3 36.5 177 L 37 180.5 L 33.5 182 L 29 177.5 L 29.5 177 Z " /><path fill="rgb(138,0,0)" stroke="rgb(138,0,0)" stroke-width="1" opacity="0.00784313725490196" d="M 43.5 177 L 45.5 179 Q 46.5 177 47.5 179 L 50 180.5 L 50 188.5 L 48.5 191 L 47 187.5 L 46.5 181 L 45.5 187 L 44 186.5 L 43.5 188 L 40 186.5 L 42 184.5 Q 41.1 179.1 43.5 177 Z M 44 180 L 43 186 L 44 186 L 44 180 Z " /><path fill="rgb(138,0,0)" stroke="rgb(138,0,0)" stroke-width="1" opacity="0.00784313725490196" d="M 39.5 178 L 41 178.5 L 40.5 184 L 39 183.5 L 38.5 185 L 37 184.5 L 39 182.5 L 39.5 178 Z " /><path fill="rgb(138,0,0)" stroke="rgb(138,0,0)" stroke-width="1" opacity="0.00784313725490196" d="M 59.5 178 L 118 178.5 L 61.5 179 L 59.5 180 L 59.5 178 Z " /><path fill="rgb(138,0,0)" stroke="rgb(138,0,0)" stroke-width="1" opacity="0.00784313725490196" d="M 139.5 178 L 143 178.5 L 140.5 182 L 139 181.5 L 139.5 178 Z " /><path fill="rgb(138,0,0)" stroke="rgb(138,0,0)" stroke-width="1" opacity="0.00784313725490196" d="M 135.5 179 L 137 179.5 L 136.5 185 L 135 184.5 L 135.5 179 Z " /><path fill="rgb(138,0,0)" stroke="rgb(138,0,0)" stroke-width="1" opacity="0.00784313725490196" d="M 51.5 180 L 55 182.5 L 54.5 194 L 53.5 191 L 52.5 193 L 52 191.5 L 53 190.5 L 53 182.5 L 52 182.5 Q 53.3 189.3 50.5 192 L 50 190.5 L 51 189.5 L 51.5 180 Z " /><path fill="rgb(138,0,0)" stroke="rgb(138,0,0)" stroke-width="1" opacity="0.00784313725490196" d="M 132.5 180 L 134 180.5 L 133.5 186 L 133 181.5 L 132.5 180 Z " /><path fill="rgb(138,0,0)" stroke="rgb(138,0,0)" stroke-width="1" opacity="0.00784313725490196" d="M 129.5 181 Q 132.3 182.3 131 187.5 L 126.5 190 L 126 182.5 L 129.5 181 Z " /><path fill="rgb(138,0,0)" stroke="rgb(138,0,0)" stroke-width="1" opacity="0.00784313725490196" d="M 149.5 181 L 172 181.5 L 171.5 200 L 122 199.5 L 126.5 197 L 127.5 199 L 128.5 196 L 129.5 199 L 130.5 195 L 131.5 199 L 132.5 194 L 133.5 199 L 134 193.5 L 135.5 192 L 136.5 199 L 137 191.5 L 138.5 190 L 139.5 199 L 140 189.5 L 141.5 188 L 142.5 199 L 144 198.5 L 144 186.5 L 149.5 181 Z " /><path fill="rgb(138,0,0)" stroke="rgb(138,0,0)" stroke-width="1" opacity="0.00784313725490196" d="M 56.5 182 L 71 189.5 L 70.5 198 L 68 196.5 L 67.5 189 L 66.5 196 L 66 189.5 L 66.5 188 L 65 188.5 L 64.5 196 L 64 188.5 L 64.5 187 L 63 187.5 L 62.5 195 L 62 187.5 L 62.5 186 L 61 186.5 L 60.5 194 L 56 192.5 L 56.5 182 Z " /><path fill="rgb(138,0,0)" stroke="rgb(138,0,0)" stroke-width="1" opacity="0.00784313725490196" d="M 68.5 183 L 70 183.5 L 69.5 185 L 68 184.5 L 68.5 183 Z " /><path fill="rgb(138,0,0)" stroke="rgb(138,0,0)" stroke-width="1" opacity="0.00784313725490196" d="M 123.5 183 L 125 183.5 L 125 190.5 L 123.5 192 L 123.5 183 Z " /><path fill="rgb(138,0,0)" stroke="rgb(138,0,0)" stroke-width="1" opacity="0.00784313725490196" d="M 71.5 184 L 73 186.5 Q 72 188 71 185.5 L 71.5 184 Z " /><path fill="rgb(138,0,0)" stroke="rgb(138,0,0)" stroke-width="1" opacity="0.00784313725490196" d="M 121.5 184 L 122 192.5 L 121 192.5 L 121.5 184 Z " /><path fill="rgb(138,0,0)" stroke="rgb(138,0,0)" stroke-width="1" opacity="0.00784313725490196" d="M 116.5 185 L 118 186.5 L 118 196.5 L 117 196.5 L 117 186.5 L 116.5 185 Z " /><path fill="rgb(138,0,0)" stroke="rgb(138,0,0)" stroke-width="1" opacity="0.00784313725490196" d="M 119.5 185 L 120 195.5 L 119 195.5 L 119.5 185 Z " /><path fill="rgb(138,0,0)" stroke="rgb(138,0,0)" stroke-width="1" opacity="0.00784313725490196" d="M 114.5 186 L 116 187.5 L 116 194.5 Q 115 197 114 195.5 L 114.5 186 Z " /><path fill="rgb(138,0,0)" stroke="rgb(138,0,0)" stroke-width="1" opacity="0.00784313725490196" d="M 75.5 187 L 81 190.5 L 80.5 192 L 75 188.5 L 75.5 187 Z " /><path fill="rgb(138,0,0)" stroke="rgb(138,0,0)" stroke-width="1" opacity="0.00784313725490196" d="M 112.5 187 L 113 198.5 L 112 198.5 L 112.5 187 Z " /><path fill="rgb(138,0,0)" stroke="rgb(138,0,0)" stroke-width="1" opacity="0.00784313725490196" d="M 110.5 188 L 111 196.5 L 110 196.5 L 110.5 188 Z " /><path fill="rgb(138,0,0)" stroke="rgb(138,0,0)" stroke-width="1" opacity="0.00784313725490196" d="M 108.5 189 L 109 197.5 L 107.5 198 L 107 191.5 L 108.5 189 Z " /><path fill="rgb(138,0,0)" stroke="rgb(138,0,0)" stroke-width="1" opacity="0.00784313725490196" d="M 74.5 192 L 76 192.5 L 76.5 199 L 77.5 194 L 79 194.5 L 78.5 200 L 74 199.5 Q 76.3 198.2 75 193.5 L 74.5 192 Z " /><path fill="rgb(138,0,0)" stroke="rgb(138,0,0)" stroke-width="1" opacity="0.00784313725490196" d="M 83.5 192 L 84.5 195 Q 86 192.5 87.5 196 L 89 196.5 L 87.5 199 L 83 194.5 L 83.5 192 Z " /><path fill="rgb(138,0,0)" stroke="rgb(138,0,0)" stroke-width="1" opacity="0.00784313725490196" d="M 105.5 192 L 106 198.5 L 104.5 201 L 97 200.5 Q 96.3 196.8 98.5 196 L 99.5 199 L 100 195.5 L 101.5 194 L 102.5 199 L 103.5 193 L 104.5 199 L 105.5 192 Z " /><path fill="rgb(138,0,0)" stroke="rgb(138,0,0)" stroke-width="1" opacity="0.00784313725490196" d="M 80.5 196 L 86 200.5 L 82.5 201 L 81.5 199 L 80 198.5 L 80.5 196 Z " /><path fill="rgb(138,0,0)" stroke="rgb(138,0,0)" stroke-width="1" opacity="0.00784313725490196" d="M 57.5 198 L 61 200.5 L 57.5 201 L 57.5 198 Z " /><path fill="rgb(138,0,0)" stroke="rgb(138,0,0)" stroke-width="1" opacity="0.00784313725490196" d="M 363.5 200 L 364 323.5 L 363 323.5 L 363.5 200 Z " /><path fill="rgb(138,0,0)" stroke="rgb(138,0,0)" stroke-width="1" opacity="0.00784313725490196" d="M 370.5 200 L 382 200.5 L 381.5 324 L 370 323.5 L 370.5 200 Z " /><path fill="rgb(138,0,0)" stroke="rgb(138,0,0)" stroke-width="1" opacity="0.00784313725490196" d="M 162.5 201 L 163.5 202 L 173 202.5 L 173 226.5 L 175.5 229 L 179 229.5 L 178.5 324 L 158.5 324 L 156 322.5 L 156.5 227 L 163 226.5 L 162 225.5 L 162.5 201 Z M 164 220 L 163 225 L 164 225 L 164 220 Z M 162 228 L 162 229 L 174 229 L 162 228 Z M 158 229 L 157 322 Q 158 323 161 323 L 161 230 L 158 229 Z " /><path fill="rgb(138,0,0)" stroke="rgb(138,0,0)" stroke-width="1" opacity="0.00784313725490196" d="M 13.5 228 L 14 323.5 L 13 323.5 L 13.5 228 Z " /><path fill="rgb(138,0,0)" stroke="rgb(138,0,0)" stroke-width="1" opacity="0.00784313725490196" d="M 15.5 228 L 16 323.5 L 15 323.5 L 15.5 228 Z " /><path fill="rgb(138,0,0)" stroke="rgb(138,0,0)" stroke-width="1" opacity="0.00784313725490196" d="M 78.5 325 L 83 325.5 L 78.5 326 L 78.5 325 Z " /><path fill="rgb(138,0,0)" stroke="rgb(138,0,0)" stroke-width="1" opacity="0.00784313725490196" d="M 93.5 325 L 97 325.5 L 93.5 326 L 93.5 325 Z " /><path fill="rgb(138,0,0)" stroke="rgb(138,0,0)" stroke-width="1" opacity="0.00784313725490196" d="M 182.5 326 L 361 326.5 L 182.5 327 L 182.5 326 Z " /><path fill="rgb(138,0,0)" stroke="rgb(138,0,0)" stroke-width="1" opacity="0.00784313725490196" d="M 385.5 326 L 616 326.5 L 385.5 327 L 385.5 326 Z " /></svg>