<svg viewBox="0 0 640 640" version="1.1" xmlns="http://www.w3.org/2000/svg" desc="Created with imagetracer.js version 1.2.6" ><path fill="rgb(0,0,0)" stroke="rgb(0,0,0)" stroke-width="1" opacity="0.996078431372549" d="M 307.5 0 L 331.5 0 L 332.5 1 L 347.5 1 L 348.5 2 L 357.5 2 L 358.5 3 L 364.5 3 L 365.5 4 L 377.5 5 L 378.5 6 L 387.5 7 L 388.5 8 L 391.5 8 L 392.5 9 L 407.5 12 L 411.5 14 L 414.5 14 L 426.5 18 L 429.5 20 L 434.5 21 L 442.5 25 L 444.5 25 L 471.5 38 L 502.5 57 L 529.5 78 L 552 99.5 L 575 126.5 L 594 154.5 L 612 188.5 L 612 190.5 L 615 195.5 L 615 197.5 L 621 210.5 L 626 225.5 L 626 228.5 L 628 232.5 L 628 235.5 L 630 239.5 L 630 242.5 L 632 247.5 L 632 251.5 L 633 252.5 L 633 256.5 L 634 257.5 L 634 261.5 L 635 262.5 L 636 273.5 L 637 274.5 L 638 291.5 L 639 292.5 L 639 305.5 L 640 306.5 L 640 334.5 L 639 335.5 L 639 348.5 L 638 349.5 L 638 358.5 L 637 359.5 L 636 372.5 L 635 373.5 L 635 377.5 L 634 378.5 L 634 383.5 L 632 388.5 L 632 392.5 L 631 393.5 L 629 404.5 L 627 408.5 L 627 411.5 L 621 429.5 L 619 432.5 L 618 437.5 L 613 447.5 L 613 449.5 L 600 475.5 L 581 505.5 L 556 536.5 L 536.5 556 L 508.5 579 L 477.5 599 L 447.5 614 L 445.5 614 L 432.5 620 L 427.5 621 L 424.5 623 L 418.5 625 L 415.5 625 L 408.5 628 L 401.5 629 L 397.5 631 L 393.5 631 L 392.5 632 L 384.5 633 L 383.5 634 L 379.5 634 L 378.5 635 L 374.5 635 L 373.5 636 L 360.5 637 L 359.5 638 L 351.5 638 L 350.5 639 L 338.5 639 L 337.5 640 L 302.5 640 L 301.5 639 L 289.5 639 L 288.5 638 L 280.5 638 L 279.5 637 L 266.5 636 L 265.5 635 L 255.5 634 L 250.5 632 L 246.5 632 L 245.5 631 L 238.5 630 L 234.5 628 L 224.5 626 L 215.5 623 L 212.5 621 L 204.5 619 L 183.5 609 L 181.5 609 L 155.5 595 L 131.5 579 Q 104.9 559.6 83 535.5 L 61 508.5 L 45 484.5 L 31 458.5 L 31 456.5 L 26 447.5 L 26 445.5 L 20 432.5 L 18 424.5 L 16 421.5 L 16 418.5 L 12 408.5 L 12 405.5 L 11 404.5 L 8 389.5 L 7 388.5 L 7 384.5 L 5 378.5 L 5 373.5 L 4 372.5 L 4 367.5 L 3 366.5 L 3 360.5 L 2 359.5 L 2 350.5 L 1 349.5 L 1 337.5 L 0 336.5 L 0 303.5 L 1 302.5 L 1 290.5 L 2 289.5 L 3 273.5 L 4 272.5 L 4 267.5 L 5 266.5 L 5 261.5 L 6 260.5 L 7 251.5 L 8 250.5 L 11 235.5 L 13 231.5 L 13 228.5 L 19 210.5 L 21 207.5 L 22 202.5 L 27 192.5 L 27 190.5 L 44 157.5 L 59 134.5 Q 77.6 108.6 100.5 87 L 122.5 68 L 149.5 49 L 164.5 41 L 166.5 39 L 195.5 25 L 197.5 25 L 205.5 21 L 210.5 20 L 213.5 18 L 225.5 14 L 228.5 14 L 232.5 12 L 235.5 12 L 239.5 10 L 243.5 10 L 244.5 9 L 251.5 8 L 252.5 7 L 261.5 6 L 262.5 5 L 267.5 5 L 268.5 4 L 274.5 4 L 275.5 3 L 281.5 3 L 282.5 2 L 291.5 2 L 292.5 1 L 306.5 1 L 307.5 0 Z M 318 20 L 317 21 L 296 21 L 295 22 L 288 23 L 298 29 L 300 29 L 300 28 L 305 24 L 319 24 L 320 25 L 327 23 L 327 21 L 326 21 Q 323 19 318 20 Z M 347 22 L 347 23 L 354 26 L 359 25 L 360 24 L 356 23 L 355 22 L 347 22 Z M 366 24 L 366 26 Q 367 30 365 33 L 359 38 L 348 44 L 344 49 L 344 53 L 359 54 L 365 57 L 367 57 L 391 74 L 400 79 L 401 79 L 397 70 L 397 63 L 398 62 L 395 55 L 386 44 L 387 40 L 393 40 L 394 41 L 402 42 L 408 46 L 417 49 L 431 49 L 442 55 L 453 64 L 459 64 L 463 66 L 467 73 L 467 82 L 464 84 Q 457 83 454 80 L 441 92 L 442 93 L 444 93 L 450 87 Q 454 86 456 88 Q 460 91 462 97 L 467 101 L 470 102 L 474 101 L 477 98 L 477 99 L 475 106 L 472 108 L 466 108 L 465 107 Q 460 106 459 108 L 454 115 L 453 122 L 446 124 Q 441 127 439 133 L 439 143 Q 441 144 440 149 L 441 150 L 441 158 L 440 161 Q 437 166 429 166 L 423 172 L 423 182 L 425 188 L 435 208 L 435 213 Q 434 215 430 214 L 423 207 L 416 196 Q 412 189 404 186 L 388 186 L 377 194 Q 368 196 366 191 L 359 191 L 349 195 L 340 205 L 336 216 L 336 233 L 337 234 L 338 240 L 344 252 Q 347 256 353 258 L 364 258 L 375 253 Q 382 248 385 239 L 396 238 L 399 242 L 400 245 L 399 247 L 398 256 L 394 268 Q 393 272 395 275 L 399 278 L 418 278 L 420 279 L 424 285 L 425 292 L 426 293 L 426 298 L 427 299 L 428 308 L 432 315 L 438 318 L 453 318 L 459 316 L 469 310 L 482 300 L 490 296 L 499 296 L 503 298 L 509 305 L 519 303 L 520 302 L 525 302 L 526 301 L 537 301 L 540 302 L 549 307 L 569 326 Q 572 328 579 327 L 583 329 L 585 332 L 588 339 L 590 353 L 592 358 L 598 363 L 601 364 L 616 364 L 617 363 L 617 357 L 618 356 L 618 347 L 619 346 L 619 329 L 620 328 L 619 295 L 618 294 L 617 278 L 616 277 L 615 266 L 614 265 L 613 256 L 610 247 L 610 244 L 609 243 L 609 240 L 607 236 L 607 233 L 602 218 L 596 205 L 596 203 L 592 196 L 592 194 L 574 161 L 554 133 L 542 119 Q 526 101 508 86 L 480 66 L 463 57 L 461 55 L 438 44 L 436 44 L 428 40 L 423 39 L 420 37 L 408 33 L 405 33 L 401 31 L 386 28 L 385 27 L 381 27 L 375 25 L 366 24 Z M 204 44 L 188 51 L 185 54 L 182 54 L 178 56 L 176 58 L 161 66 L 138 82 L 120 97 Q 95 119 76 146 L 61 169 L 46 198 L 46 200 L 39 215 L 32 236 L 32 239 L 30 243 L 29 250 L 28 251 L 28 255 L 26 260 L 26 264 L 25 265 L 25 270 L 24 271 L 24 276 L 23 277 L 22 293 L 21 294 L 21 308 L 20 309 L 20 332 L 21 333 L 21 347 L 22 348 L 22 357 L 23 358 L 23 364 L 24 365 L 24 370 L 25 371 L 25 376 L 27 382 L 27 386 L 28 387 L 31 402 L 34 409 L 34 412 L 36 418 L 38 421 L 39 426 L 45 439 L 45 441 L 58 467 L 73 491 L 95 519 L 123 546 L 147 565 L 174 582 L 200 595 L 202 595 L 212 600 L 217 601 L 220 603 L 232 607 L 235 607 L 239 609 L 254 612 L 255 613 L 269 615 L 270 616 L 275 616 L 276 617 L 282 617 L 283 618 L 292 618 L 293 619 L 306 619 L 307 620 L 334 620 L 335 619 L 348 619 L 349 618 L 365 617 L 366 616 L 371 616 L 372 615 L 386 613 L 395 610 L 398 610 L 399 609 L 402 609 L 417 604 L 420 601 L 425 592 L 449 560 L 456 547 L 475 520 L 484 504 L 487 495 L 487 482 L 484 475 L 476 469 L 468 462 L 461 451 L 452 430 L 452 428 L 448 421 L 448 419 L 439 405 L 444 397 L 444 391 L 445 390 L 445 380 L 448 372 L 455 365 L 458 364 L 462 357 L 463 350 L 464 349 L 464 336 L 462 330 L 458 325 Q 451 324 449 327 L 443 326 L 431 320 L 401 295 L 388 288 L 381 287 L 380 286 L 376 286 L 370 281 L 358 276 L 350 275 L 349 274 L 344 274 L 343 273 L 338 273 L 332 271 L 328 271 L 327 270 L 324 270 L 318 268 L 299 257 L 292 250 L 280 224 L 274 215 L 268 209 L 264 206 L 252 186 L 249 183 L 246 183 L 243 188 L 250 204 L 252 206 L 260 221 L 260 223 L 250 214 L 244 205 L 210 137 L 210 127 Q 212 126 211 123 L 218 108 L 222 96 L 222 90 L 221 89 L 225 86 L 225 81 L 213 60 L 212 57 L 212 51 L 211 49 Q 209 44 204 44 Z M 512 549 L 486 568 L 483 571 L 484 571 L 498 562 L 512 551 L 512 549 Z M 482 571 L 481 573 Q 482 574 483 572 L 482 571 Z " /><path fill="rgb(97,97,97)" stroke="rgb(97,97,97)" stroke-width="1" opacity="1" d="M 317.5 20 L 324 20.5 L 317.5 21 L 317.5 20 Z " /><path fill="rgb(97,97,97)" stroke="rgb(97,97,97)" stroke-width="1" opacity="1" d="M 295.5 21 L 299 21.5 L 295.5 22 L 295.5 21 Z " /><path fill="rgb(97,97,97)" stroke="rgb(97,97,97)" stroke-width="1" opacity="1" d="M 352.5 22 L 355 22.5 L 352.5 23 L 352.5 22 Z " /><path fill="rgb(97,97,97)" stroke="rgb(97,97,97)" stroke-width="1" opacity="1" d="M 307.5 23 L 312 23.5 L 307.5 24 L 307.5 23 Z " /><path fill="rgb(97,97,97)" stroke="rgb(97,97,97)" stroke-width="1" opacity="1" d="M 319.5 24 L 322 24.5 L 319.5 25 L 319.5 24 Z " /><path fill="rgb(97,97,97)" stroke="rgb(97,97,97)" stroke-width="1" opacity="1" d="M 353.5 25 L 356 25.5 L 353.5 26 L 353.5 25 Z " /><path fill="rgb(97,97,97)" stroke="rgb(97,97,97)" stroke-width="1" opacity="1" d="M 366.5 27 L 367 29.5 L 366 29.5 L 366.5 27 Z " /><path fill="rgb(97,97,97)" stroke="rgb(97,97,97)" stroke-width="1" opacity="1" d="M 203.5 44 L 206 44.5 L 203.5 45 L 203.5 44 Z " /><path fill="rgb(97,97,97)" stroke="rgb(97,97,97)" stroke-width="1" opacity="1" d="M 347.5 44 L 348 44.5 L 345.5 47 L 345 46.5 L 347.5 44 Z " /><path fill="rgb(97,97,97)" stroke="rgb(97,97,97)" stroke-width="1" opacity="1" d="M 207.5 45 L 211 48.5 L 210.5 49 L 207 45.5 L 207.5 45 Z " /><path fill="rgb(97,97,97)" stroke="rgb(97,97,97)" stroke-width="1" opacity="1" d="M 416.5 48 L 419 48.5 L 416.5 49 L 416.5 48 Z " /><path fill="rgb(97,97,97)" stroke="rgb(97,97,97)" stroke-width="1" opacity="1" d="M 421.5 48 L 428 48.5 L 421.5 49 L 421.5 48 Z " /><path fill="rgb(97,97,97)" stroke="rgb(97,97,97)" stroke-width="1" opacity="1" d="M 187.5 51 L 188 51.5 L 185.5 54 L 185 53.5 L 187.5 51 Z " /><path fill="rgb(97,97,97)" stroke="rgb(97,97,97)" stroke-width="1" opacity="1" d="M 181.5 54 L 184 54.5 L 181.5 55 L 181.5 54 Z " /><path fill="rgb(97,97,97)" stroke="rgb(97,97,97)" stroke-width="1" opacity="1" d="M 467.5 75 L 468 79.5 L 467 79.5 L 467.5 75 Z " /><path fill="rgb(97,97,97)" stroke="rgb(97,97,97)" stroke-width="1" opacity="1" d="M 221.5 89 L 222 95.5 L 221 95.5 L 221.5 89 Z " /><path fill="rgb(97,97,97)" stroke="rgb(97,97,97)" stroke-width="1" opacity="1" d="M 127.5 90 L 128 90.5 L 125.5 93 L 125 92.5 L 127.5 90 Z " /><path fill="rgb(97,97,97)" stroke="rgb(97,97,97)" stroke-width="1" opacity="1" d="M 119.5 97 L 120 97.5 L 116.5 101 L 116 100.5 L 119.5 97 Z " /><path fill="rgb(97,97,97)" stroke="rgb(97,97,97)" stroke-width="1" opacity="1" d="M 521.5 98 L 526 102.5 L 525.5 103 L 521 98.5 L 521.5 98 Z " /><path fill="rgb(97,97,97)" stroke="rgb(97,97,97)" stroke-width="1" opacity="1" d="M 460.5 107 L 465 107.5 L 460.5 108 L 460.5 107 Z " /><path fill="rgb(97,97,97)" stroke="rgb(97,97,97)" stroke-width="1" opacity="1" d="M 537.5 114 L 542 118.5 L 541.5 119 L 537 114.5 L 537.5 114 Z " /><path fill="rgb(97,97,97)" stroke="rgb(97,97,97)" stroke-width="1" opacity="1" d="M 100.5 116 L 101 116.5 L 97.5 120 L 97 119.5 L 100.5 116 Z " /><path fill="rgb(97,97,97)" stroke="rgb(97,97,97)" stroke-width="1" opacity="1" d="M 92.5 125 L 93 125.5 L 90.5 128 L 90 127.5 L 92.5 125 Z " /><path fill="rgb(97,97,97)" stroke="rgb(97,97,97)" stroke-width="1" opacity="1" d="M 439.5 140 L 440 142.5 L 439 142.5 L 439.5 140 Z " /><path fill="rgb(97,97,97)" stroke="rgb(97,97,97)" stroke-width="1" opacity="1" d="M 371.5 194 L 375 194.5 L 371.5 195 L 371.5 194 Z " /><path fill="rgb(97,97,97)" stroke="rgb(97,97,97)" stroke-width="1" opacity="1" d="M 268.5 209 L 274 214.5 L 273.5 215 L 268 209.5 L 268.5 209 Z " /><path fill="rgb(97,97,97)" stroke="rgb(97,97,97)" stroke-width="1" opacity="1" d="M 430.5 214 L 433 214.5 L 430.5 215 L 430.5 214 Z " /><path fill="rgb(97,97,97)" stroke="rgb(97,97,97)" stroke-width="1" opacity="1" d="M 251.5 215 L 258 221.5 L 257.5 222 L 251 215.5 L 251.5 215 Z " /><path fill="rgb(97,97,97)" stroke="rgb(97,97,97)" stroke-width="1" opacity="1" d="M 388.5 237 L 393 237.5 L 388.5 238 L 388.5 237 Z " /><path fill="rgb(97,97,97)" stroke="rgb(97,97,97)" stroke-width="1" opacity="1" d="M 399.5 246 L 400 248.5 L 399 248.5 L 399.5 246 Z " /><path fill="rgb(97,97,97)" stroke="rgb(97,97,97)" stroke-width="1" opacity="1" d="M 394.5 267 L 395 272.5 L 394 272.5 L 394.5 267 Z " /><path fill="rgb(97,97,97)" stroke="rgb(97,97,97)" stroke-width="1" opacity="1" d="M 410.5 277 L 415 277.5 L 410.5 278 L 410.5 277 Z " /><path fill="rgb(97,97,97)" stroke="rgb(97,97,97)" stroke-width="1" opacity="1" d="M 21.5 293 L 22 295.5 L 21 295.5 L 21.5 293 Z " /><path fill="rgb(97,97,97)" stroke="rgb(97,97,97)" stroke-width="1" opacity="1" d="M 618.5 294 L 619 297.5 L 618 297.5 L 618.5 294 Z " /><path fill="rgb(97,97,97)" stroke="rgb(97,97,97)" stroke-width="1" opacity="1" d="M 492.5 295 L 496 295.5 L 492.5 296 L 492.5 295 Z " /><path fill="rgb(97,97,97)" stroke="rgb(97,97,97)" stroke-width="1" opacity="1" d="M 409.5 302 L 412 304.5 L 411.5 305 L 409 302.5 L 409.5 302 Z " /><path fill="rgb(97,97,97)" stroke="rgb(97,97,97)" stroke-width="1" opacity="1" d="M 20.5 308 L 21 331.5 L 20 331.5 L 20.5 308 Z " /><path fill="rgb(97,97,97)" stroke="rgb(97,97,97)" stroke-width="1" opacity="1" d="M 552.5 310 L 563 320.5 L 562.5 321 L 552 310.5 L 552.5 310 Z " /><path fill="rgb(97,97,97)" stroke="rgb(97,97,97)" stroke-width="1" opacity="1" d="M 619.5 312 L 620 327.5 L 619 327.5 L 619.5 312 Z " /><path fill="rgb(97,97,97)" stroke="rgb(97,97,97)" stroke-width="1" opacity="1" d="M 447.5 317 L 453 317.5 L 447.5 318 L 447.5 317 Z " /><path fill="rgb(97,97,97)" stroke="rgb(97,97,97)" stroke-width="1" opacity="1" d="M 570.5 326 L 576 326.5 L 570.5 327 L 570.5 326 Z " /><path fill="rgb(97,97,97)" stroke="rgb(97,97,97)" stroke-width="1" opacity="1" d="M 618.5 342 L 619 345.5 L 618 345.5 L 618.5 342 Z " /><path fill="rgb(97,97,97)" stroke="rgb(97,97,97)" stroke-width="1" opacity="1" d="M 21.5 344 L 22 346.5 L 21 346.5 L 21.5 344 Z " /><path fill="rgb(97,97,97)" stroke="rgb(97,97,97)" stroke-width="1" opacity="1" d="M 617.5 353 L 618 355.5 L 617 355.5 L 617.5 353 Z " /><path fill="rgb(97,97,97)" stroke="rgb(97,97,97)" stroke-width="1" opacity="1" d="M 22.5 354 L 23 356.5 L 22 356.5 L 22.5 354 Z " /><path fill="rgb(97,97,97)" stroke="rgb(97,97,97)" stroke-width="1" opacity="1" d="M 451.5 367 L 452 367.5 L 449.5 370 L 449 369.5 L 451.5 367 Z " /><path fill="rgb(97,97,97)" stroke="rgb(97,97,97)" stroke-width="1" opacity="1" d="M 444.5 385 L 445 389.5 L 444 389.5 L 444.5 385 Z " /><path fill="rgb(97,97,97)" stroke="rgb(97,97,97)" stroke-width="1" opacity="1" d="M 95.5 518 L 98 520.5 L 97.5 521 L 95 518.5 L 95.5 518 Z " /><path fill="rgb(97,97,97)" stroke="rgb(97,97,97)" stroke-width="1" opacity="1" d="M 119.5 542 L 123 545.5 L 122.5 546 L 119 542.5 L 119.5 542 Z " /><path fill="rgb(97,97,97)" stroke="rgb(97,97,97)" stroke-width="1" opacity="1" d="M 511.5 549 L 512 550.5 Q 511 553 510 551.5 L 511.5 549 Z " /><path fill="rgb(97,97,97)" stroke="rgb(97,97,97)" stroke-width="1" opacity="1" d="M 481.5 571 L 483 571.5 Q 482 574 481 572.5 L 481.5 571 Z " /><path fill="rgb(97,97,97)" stroke="rgb(97,97,97)" stroke-width="1" opacity="1" d="M 275.5 616 L 278 616.5 L 275.5 617 L 275.5 616 Z " /><path fill="rgb(97,97,97)" stroke="rgb(97,97,97)" stroke-width="1" opacity="1" d="M 362.5 616 L 365 616.5 L 362.5 617 L 362.5 616 Z " /><path fill="rgb(97,97,97)" stroke="rgb(97,97,97)" stroke-width="1" opacity="1" d="M 282.5 617 L 285 617.5 L 282.5 618 L 282.5 617 Z " /><path fill="rgb(97,97,97)" stroke="rgb(97,97,97)" stroke-width="1" opacity="1" d="M 292.5 618 L 295 618.5 L 292.5 619 L 292.5 618 Z " /><path fill="rgb(97,97,97)" stroke="rgb(97,97,97)" stroke-width="1" opacity="1" d="M 345.5 618 L 348 618.5 L 345.5 619 L 345.5 618 Z " /><path fill="rgb(97,97,97)" stroke="rgb(97,97,97)" stroke-width="1" opacity="1" d="M 306.5 619 L 319 619.5 L 306.5 620 L 306.5 619 Z " /><path fill="rgb(97,97,97)" stroke="rgb(97,97,97)" stroke-width="1" opacity="1" d="M 321.5 619 L 334 619.5 L 321.5 620 L 321.5 619 Z " /><path fill="rgb(254,254,254)" stroke="rgb(254,254,254)" stroke-width="1" opacity="1" d="M 304.5 21 L 327 21.5 Q 324.2 25.7 315.5 24 L 314.5 23 L 305.5 23 L 300 26.5 L 298.5 29 L 289 22.5 L 303.5 22 L 304.5 21 Z " /><path fill="rgb(254,254,254)" stroke="rgb(254,254,254)" stroke-width="1" opacity="1" d="M 347.5 22 L 350.5 23 L 359 23.5 Q 357.8 26.3 352.5 25 L 347.5 23 L 347.5 22 Z " /><path fill="rgb(254,254,254)" stroke="rgb(254,254,254)" stroke-width="1" opacity="1" d="M 366.5 25 L 371.5 25 L 372.5 26 L 386.5 28 L 387.5 29 L 398.5 31 L 402.5 33 L 405.5 33 L 423.5 39 L 436.5 45 L 438.5 45 L 457.5 54 L 459.5 56 L 468.5 60 L 478.5 67 L 481.5 68 L 501.5 82 Q 524.7 99.8 544 121.5 Q 560.4 140.1 574 161.5 L 591 192.5 L 591 194.5 L 595 201.5 L 595 203.5 L 601 216.5 L 607 234.5 L 607 237.5 L 609 241.5 L 609 244.5 L 612 253.5 L 612 257.5 L 613 258.5 L 613 262.5 L 614 263.5 L 614 267.5 L 615 268.5 L 615 273.5 L 616 274.5 L 617 289.5 L 618 290.5 L 618 302.5 L 619 303.5 L 619 337.5 L 618 338.5 L 618 349.5 L 617 350.5 L 617 358.5 L 616 359.5 L 615.5 364 L 614.5 363 L 608.5 363 Q 607.2 365.2 602.5 364 Q 601.8 362.3 598.5 363 L 594 359.5 L 591 353.5 L 590 344.5 L 589 343.5 L 589 339.5 L 587 333.5 L 583.5 329 L 577.5 326 L 569.5 326 L 549.5 307 L 543.5 303 L 538.5 301 L 529.5 300 L 528.5 301 L 521.5 301 L 520.5 302 L 516.5 302 L 515.5 303 L 508.5 304 L 503.5 298 L 497.5 295 L 491.5 295 L 480.5 300 L 459.5 315 L 453.5 317 L 445.5 317 Q 444.5 319 440.5 318 L 434.5 316 L 431 312.5 L 428 305.5 L 426 289.5 L 424 283.5 L 421.5 280 L 415.5 277 L 409.5 277 L 408.5 278 L 400.5 278 L 396 275.5 Q 393.7 272.3 395 265.5 L 396 264.5 L 396 261.5 L 400 249.5 L 400 242.5 L 396.5 238 L 393.5 237 L 386.5 237 L 384 239.5 L 384 241.5 L 382 244.5 L 373.5 253 L 365.5 257 Q 362.3 256.3 361.5 258 L 354.5 258 L 349.5 256 L 344 250.5 L 337 234.5 Q 338.2 229.7 336 228.5 L 336 219.5 L 337 218.5 L 337 213.5 L 339 207.5 L 345.5 198 L 349.5 195 L 356.5 192 L 365.5 192 L 370.5 195 L 375.5 195 L 386.5 187 L 400.5 186 L 408.5 189 L 416 196.5 L 423 207.5 L 429.5 215 Q 433.6 215.6 435 213.5 L 436 209.5 L 434 203.5 L 426 188.5 L 424 182.5 L 424 179.5 L 423 178.5 L 423 173.5 L 426.5 168 L 430.5 166 L 433.5 166 L 439 162.5 L 441 159.5 L 442 152.5 L 441 151.5 L 441 145.5 L 440 144.5 L 440 138.5 L 439 135.5 L 441 129.5 L 445.5 125 L 454 121.5 Q 453.5 111.5 459.5 108 L 467.5 108 L 470.5 109 L 476 104.5 L 478 97.5 L 477.5 97 L 475.5 99 L 471.5 101 L 467.5 101 L 457.5 89 L 452.5 86 L 450.5 86 L 442.5 93 L 442 91.5 L 447.5 85 L 453.5 81 L 459.5 84 L 465.5 84 Q 469.3 81.8 468 74.5 L 466 69.5 L 461.5 65 L 454.5 63 L 453.5 64 L 450.5 61 L 439.5 53 L 431.5 49 L 428.5 48 L 415.5 48 Q 414.8 46.2 411.5 47 L 400.5 41 L 396.5 41 L 395.5 40 L 390.5 40 L 387.5 39 L 385 40.5 L 386 44.5 L 395 55.5 L 397 59.5 L 397 64.5 L 396 66.5 Q 398 67.5 397 71.5 L 400 77.5 L 398.5 78 L 385.5 70 L 369.5 58 L 363.5 55 L 357.5 54 L 356.5 53 L 345.5 53 L 344 51.5 Q 344.5 46 348.5 44 L 359.5 38 L 366 31.5 L 367 26.5 L 366.5 25 Z " /><path fill="rgb(254,254,254)" stroke="rgb(254,254,254)" stroke-width="1" opacity="1" d="M 201.5 45 L 206.5 45 L 211 49.5 L 211 54.5 L 214 63.5 L 222 75.5 L 225 84.5 L 221 87.5 L 221 97.5 L 210 124.5 L 209 134.5 Q 210.8 135.2 210 138.5 L 215 148.5 L 217 150.5 L 240 198.5 L 250 214.5 L 258.5 223 L 261 222.5 L 257 213.5 L 255 211.5 L 246 194.5 L 246 192.5 L 244 189.5 L 244 186.5 L 246.5 183 Q 251.1 183.9 253 187.5 L 264 206.5 L 266.5 209 L 275 216.5 L 280 224.5 L 281 228.5 L 291 248.5 L 301.5 260 L 318.5 269 L 328.5 271 L 329.5 272 L 333.5 272 L 334.5 273 L 338.5 273 L 339.5 274 L 344.5 274 L 345.5 275 L 350.5 275 L 351.5 276 L 358.5 277 L 368.5 281 L 376.5 287 L 381.5 287 L 382.5 288 L 388.5 289 L 402.5 297 L 420.5 313 L 434.5 323 L 447.5 328 L 452.5 325 L 456.5 325 L 460 327.5 L 463 333.5 L 463 340.5 L 464 341.5 L 463 342.5 L 463 351.5 Q 461.2 352.3 462 355.5 L 459 361.5 L 456.5 364 L 453.5 365 L 448 370.5 L 444 382.5 L 444 392.5 Q 442 393.5 443 397.5 L 439 403.5 L 439 405.5 L 447 417.5 L 447 419.5 L 451 426.5 L 451 428.5 L 461 451.5 L 469 463.5 L 473.5 468 L 484 475.5 L 487 483.5 L 487 490.5 L 486 491.5 L 485 499.5 L 477 515.5 L 456 545.5 L 447 561.5 L 428 586.5 L 417.5 603 L 399.5 609 L 388.5 611 L 387.5 612 L 383.5 612 L 382.5 613 L 378.5 613 L 372.5 615 L 367.5 615 L 366.5 616 L 360.5 616 L 359.5 617 L 352.5 617 L 351.5 618 L 341.5 618 L 340.5 619 L 299.5 619 L 298.5 618 L 288.5 618 L 287.5 617 L 273.5 616 L 272.5 615 L 267.5 615 L 266.5 614 L 252.5 612 L 251.5 611 L 240.5 609 L 236.5 607 L 233.5 607 L 218.5 602 L 215.5 600 L 210.5 599 L 200.5 594 L 198.5 594 L 174.5 582 L 147.5 565 L 124.5 547 L 102 525.5 L 84 504.5 L 62 472.5 L 46 441.5 L 46 439.5 L 43 434.5 L 40 424.5 L 38 421.5 L 34 409.5 L 34 406.5 L 32 402.5 L 32 399.5 L 30 395.5 L 29 388.5 L 28 387.5 L 28 383.5 L 27 382.5 L 27 378.5 L 25 372.5 L 25 367.5 L 24 366.5 L 24 360.5 L 23 359.5 L 23 352.5 L 22 351.5 L 22 340.5 L 21 339.5 L 21 300.5 L 22 299.5 L 22 289.5 L 23 288.5 L 24 273.5 L 25 272.5 L 25 267.5 L 26 266.5 L 27 257.5 L 29 252.5 L 29 248.5 L 30 247.5 L 30 244.5 L 32 240.5 L 32 237.5 L 35 230.5 L 35 227.5 L 37 221.5 L 39 218.5 L 40 213.5 L 47 198.5 L 47 196.5 L 61 169.5 L 76 146.5 Q 96.4 117.9 122.5 95 Q 140.6 79.1 161.5 66 L 178.5 57 L 180.5 55 L 184.5 55 L 188.5 51 L 197.5 48 L 201.5 45 Z " /><path fill="rgb(254,254,254)" stroke="rgb(254,254,254)" stroke-width="1" opacity="1" d="M 507.5 552 L 508 552.5 L 504.5 556 L 489.5 567 L 489 566.5 L 492.5 563 L 507.5 552 Z " /><path fill="rgb(181,181,181)" stroke="rgb(181,181,181)" stroke-width="1" opacity="1" d="M 299.5 21 L 304 21.5 L 299.5 22 L 299.5 21 Z " /><path fill="rgb(181,181,181)" stroke="rgb(181,181,181)" stroke-width="1" opacity="1" d="M 312.5 23 L 315 23.5 L 312.5 24 L 312.5 23 Z " /><path fill="rgb(181,181,181)" stroke="rgb(181,181,181)" stroke-width="1" opacity="1" d="M 387.5 39 L 390 39.5 L 387.5 40 L 387.5 39 Z " /><path fill="rgb(181,181,181)" stroke="rgb(181,181,181)" stroke-width="1" opacity="1" d="M 211.5 50 L 212 54.5 L 211 54.5 L 211.5 50 Z " /><path fill="rgb(181,181,181)" stroke="rgb(181,181,181)" stroke-width="1" opacity="1" d="M 454.5 63 L 457 63.5 L 454.5 64 L 454.5 63 Z " /><path fill="rgb(181,181,181)" stroke="rgb(181,181,181)" stroke-width="1" opacity="1" d="M 515.5 93 L 518 95.5 L 517.5 96 L 515 93.5 L 515.5 93 Z " /><path fill="rgb(181,181,181)" stroke="rgb(181,181,181)" stroke-width="1" opacity="1" d="M 115.5 101 L 116 101.5 L 101.5 116 L 101 115.5 L 115.5 101 Z " /><path fill="rgb(181,181,181)" stroke="rgb(181,181,181)" stroke-width="1" opacity="1" d="M 526.5 103 L 537 113.5 L 536.5 114 L 526 103.5 L 526.5 103 Z " /><path fill="rgb(181,181,181)" stroke="rgb(181,181,181)" stroke-width="1" opacity="1" d="M 468.5 108 L 471 108.5 L 468.5 109 L 468.5 108 Z " /><path fill="rgb(181,181,181)" stroke="rgb(181,181,181)" stroke-width="1" opacity="1" d="M 544.5 122 L 547 124.5 L 546.5 125 L 544 122.5 L 544.5 122 Z " /><path fill="rgb(181,181,181)" stroke="rgb(181,181,181)" stroke-width="1" opacity="1" d="M 444.5 125 L 445 125.5 L 441.5 129 L 441 128.5 L 444.5 125 Z " /><path fill="rgb(181,181,181)" stroke="rgb(181,181,181)" stroke-width="1" opacity="1" d="M 209.5 129 L 210 134.5 L 209 134.5 L 209.5 129 Z " /><path fill="rgb(181,181,181)" stroke="rgb(181,181,181)" stroke-width="1" opacity="1" d="M 441.5 152 L 442 155.5 L 441 155.5 L 441.5 152 Z " /><path fill="rgb(181,181,181)" stroke="rgb(181,181,181)" stroke-width="1" opacity="1" d="M 360.5 191 L 365 191.5 L 360.5 192 L 360.5 191 Z " /><path fill="rgb(181,181,181)" stroke="rgb(181,181,181)" stroke-width="1" opacity="1" d="M 411.5 191 L 414 193.5 L 413.5 194 L 411 191.5 L 411.5 191 Z " /><path fill="rgb(181,181,181)" stroke="rgb(181,181,181)" stroke-width="1" opacity="1" d="M 435.5 209 L 436 211.5 L 435 211.5 L 435.5 209 Z " /><path fill="rgb(181,181,181)" stroke="rgb(181,181,181)" stroke-width="1" opacity="1" d="M 427.5 212 L 430 214.5 L 429.5 215 L 427 212.5 L 427.5 212 Z " /><path fill="rgb(181,181,181)" stroke="rgb(181,181,181)" stroke-width="1" opacity="1" d="M 380.5 246 L 381 246.5 L 376.5 251 L 376 250.5 L 380.5 246 Z " /><path fill="rgb(181,181,181)" stroke="rgb(181,181,181)" stroke-width="1" opacity="1" d="M 345.5 252 L 348 254.5 L 347.5 255 L 345 252.5 L 345.5 252 Z " /><path fill="rgb(181,181,181)" stroke="rgb(181,181,181)" stroke-width="1" opacity="1" d="M 22.5 286 L 23 288.5 L 22 288.5 L 22.5 286 Z " /><path fill="rgb(181,181,181)" stroke="rgb(181,181,181)" stroke-width="1" opacity="1" d="M 617.5 287 L 618 289.5 L 617 289.5 L 617.5 287 Z " /><path fill="rgb(181,181,181)" stroke="rgb(181,181,181)" stroke-width="1" opacity="1" d="M 21.5 296 L 22 299.5 L 21 299.5 L 21.5 296 Z " /><path fill="rgb(181,181,181)" stroke="rgb(181,181,181)" stroke-width="1" opacity="1" d="M 503.5 298 L 507 301.5 L 506.5 302 L 503 298.5 L 503.5 298 Z " /><path fill="rgb(181,181,181)" stroke="rgb(181,181,181)" stroke-width="1" opacity="1" d="M 618.5 298 L 619 302.5 L 618 302.5 L 618.5 298 Z " /><path fill="rgb(181,181,181)" stroke="rgb(181,181,181)" stroke-width="1" opacity="1" d="M 529.5 300 L 533 300.5 L 529.5 301 L 529.5 300 Z " /><path fill="rgb(181,181,181)" stroke="rgb(181,181,181)" stroke-width="1" opacity="1" d="M 549.5 307 L 552 309.5 L 551.5 310 L 549 307.5 L 549.5 307 Z " /><path fill="rgb(181,181,181)" stroke="rgb(181,181,181)" stroke-width="1" opacity="1" d="M 463.5 337 L 464 340.5 L 463 340.5 L 463.5 337 Z " /><path fill="rgb(181,181,181)" stroke="rgb(181,181,181)" stroke-width="1" opacity="1" d="M 618.5 338 L 619 341.5 L 618 341.5 L 618.5 338 Z " /><path fill="rgb(181,181,181)" stroke="rgb(181,181,181)" stroke-width="1" opacity="1" d="M 21.5 340 L 22 343.5 L 21 343.5 L 21.5 340 Z " /><path fill="rgb(181,181,181)" stroke="rgb(181,181,181)" stroke-width="1" opacity="1" d="M 463.5 342 L 464 346.5 L 463 346.5 L 463.5 342 Z " /><path fill="rgb(181,181,181)" stroke="rgb(181,181,181)" stroke-width="1" opacity="1" d="M 617.5 350 L 618 352.5 L 617 352.5 L 617.5 350 Z " /><path fill="rgb(181,181,181)" stroke="rgb(181,181,181)" stroke-width="1" opacity="1" d="M 608.5 363 L 615 363.5 L 608.5 364 L 608.5 363 Z " /><path fill="rgb(181,181,181)" stroke="rgb(181,181,181)" stroke-width="1" opacity="1" d="M 444.5 382 L 445 384.5 L 444 384.5 L 444.5 382 Z " /><path fill="rgb(181,181,181)" stroke="rgb(181,181,181)" stroke-width="1" opacity="1" d="M 469.5 463 L 474 467.5 L 473.5 468 L 469 463.5 L 469.5 463 Z " /><path fill="rgb(181,181,181)" stroke="rgb(181,181,181)" stroke-width="1" opacity="1" d="M 98.5 521 L 102 524.5 L 101.5 525 L 98 521.5 L 98.5 521 Z " /><path fill="rgb(181,181,181)" stroke="rgb(181,181,181)" stroke-width="1" opacity="1" d="M 115.5 538 L 119 541.5 L 118.5 542 L 115 538.5 L 115.5 538 Z " /><path fill="rgb(181,181,181)" stroke="rgb(181,181,181)" stroke-width="1" opacity="1" d="M 498.5 558 Q 501 559 499.5 560 L 498.5 559 L 497 559.5 L 498.5 558 Z " /><path fill="rgb(181,181,181)" stroke="rgb(181,181,181)" stroke-width="1" opacity="1" d="M 489.5 565 L 489 566.5 L 488.5 568 L 488 566.5 L 489.5 565 Z " /><path fill="rgb(181,181,181)" stroke="rgb(181,181,181)" stroke-width="1" opacity="1" d="M 484.5 569 L 486 569.5 L 483.5 571 Q 482 570 484.5 569 Z " /><path fill="rgb(181,181,181)" stroke="rgb(181,181,181)" stroke-width="1" opacity="1" d="M 285.5 617 L 288 617.5 L 285.5 618 L 285.5 617 Z " /><path fill="rgb(181,181,181)" stroke="rgb(181,181,181)" stroke-width="1" opacity="1" d="M 352.5 617 L 355 617.5 L 352.5 618 L 352.5 617 Z " /><path fill="rgb(181,181,181)" stroke="rgb(181,181,181)" stroke-width="1" opacity="1" d="M 295.5 618 L 299 618.5 L 295.5 619 L 295.5 618 Z " /><path fill="rgb(181,181,181)" stroke="rgb(181,181,181)" stroke-width="1" opacity="1" d="M 341.5 618 L 345 618.5 L 341.5 619 L 341.5 618 Z " /><path fill="rgb(0,0,0)" stroke="rgb(0,0,0)" stroke-width="1" opacity="0" d="M 0.5 0 L 307 0.5 L 292.5 1 L 291.5 2 L 282.5 2 L 281.5 3 L 268.5 4 L 267.5 5 L 262.5 5 L 261.5 6 L 252.5 7 L 243.5 10 L 239.5 10 L 235.5 12 L 232.5 12 L 228.5 14 L 225.5 14 L 213.5 18 L 210.5 20 L 205.5 21 L 190.5 28 L 188.5 28 L 159.5 43 L 130.5 62 Q 106.9 79.4 87 100.5 L 68 122.5 L 47 152.5 L 42 162.5 L 40 164.5 L 24 197.5 L 24 199.5 L 22 202.5 L 21 207.5 L 19 210.5 L 13 228.5 L 13 231.5 L 11 235.5 L 11 238.5 L 10 239.5 L 10 242.5 L 7 251.5 L 6 260.5 L 5 261.5 L 5 266.5 L 4 267.5 L 4 272.5 L 3 273.5 L 3 280.5 L 2 281.5 L 2 289.5 L 1 290.5 L 0.5 303 L 0.5 0 Z " /><path fill="rgb(0,0,0)" stroke="rgb(0,0,0)" stroke-width="1" opacity="0" d="M 332.5 0 L 640 0.5 L 639.5 306 L 639 292.5 L 638 291.5 L 637 274.5 L 636 273.5 L 636 268.5 L 635 267.5 L 635 262.5 L 634 261.5 L 632 247.5 L 631 246.5 L 630 239.5 L 628 235.5 L 628 232.5 L 626 228.5 L 626 225.5 L 621 210.5 L 619 207.5 L 615 195.5 L 612 190.5 L 612 188.5 L 601 166.5 L 583 137.5 L 562 110.5 L 541.5 89 L 518.5 69 L 493.5 51 L 490.5 50 L 480.5 43 L 473.5 40 L 471.5 38 L 444.5 25 L 442.5 25 L 434.5 21 L 429.5 20 L 426.5 18 L 414.5 14 L 411.5 14 L 407.5 12 L 404.5 12 L 403.5 11 L 388.5 8 L 387.5 7 L 383.5 7 L 377.5 5 L 372.5 5 L 371.5 4 L 365.5 4 L 364.5 3 L 358.5 3 L 357.5 2 L 348.5 2 L 347.5 1 L 332.5 1 L 332.5 0 Z " /><path fill="rgb(0,0,0)" stroke="rgb(0,0,0)" stroke-width="1" opacity="0" d="M 639.5 335 L 640 639.5 L 338.5 640 L 338.5 639 L 350.5 639 L 351.5 638 L 359.5 638 L 360.5 637 L 373.5 636 L 374.5 635 L 388.5 633 L 393.5 631 L 397.5 631 L 401.5 629 L 408.5 628 L 415.5 625 L 418.5 625 L 424.5 623 L 427.5 621 L 432.5 620 L 435.5 618 L 447.5 614 L 456.5 609 L 458.5 609 L 477.5 599 L 508.5 579 L 536.5 556 L 556 536.5 L 572 517.5 L 593 487.5 L 598 477.5 L 600 475.5 L 616 442.5 L 616 440.5 L 618 437.5 L 619 432.5 L 621 429.5 L 627 411.5 L 627 408.5 L 629 404.5 L 629 401.5 L 632 392.5 L 632 388.5 L 634 383.5 L 634 378.5 L 635 377.5 L 636 366.5 L 637 365.5 L 637 359.5 L 638 358.5 L 638 349.5 L 639 348.5 L 639.5 335 Z " /><path fill="rgb(0,0,0)" stroke="rgb(0,0,0)" stroke-width="1" opacity="0" d="M 0.5 337 L 1 349.5 L 2 350.5 L 2 359.5 L 3 360.5 L 3 366.5 L 4 367.5 L 5 378.5 L 6 379.5 L 7 388.5 L 8 389.5 L 8 392.5 L 9 393.5 L 12 408.5 L 20 432.5 L 22 435.5 L 26 447.5 L 31 456.5 L 31 458.5 L 45 484.5 L 61 508.5 Q 80.4 535.1 104.5 557 L 123.5 573 L 147.5 590 L 162.5 599 L 169.5 602 L 171.5 604 L 199.5 617 L 201.5 617 L 204.5 619 L 212.5 621 L 215.5 623 L 224.5 626 L 227.5 626 L 231.5 628 L 234.5 628 L 238.5 630 L 241.5 630 L 246.5 632 L 250.5 632 L 255.5 634 L 260.5 634 L 261.5 635 L 272.5 636 L 273.5 637 L 279.5 637 L 280.5 638 L 288.5 638 L 289.5 639 L 302 639.5 L 0.5 640 L 0.5 337 Z " /></svg>