<svg viewBox="0 0 640 426" version="1.1" xmlns="http://www.w3.org/2000/svg" desc="Created with imagetracer.js version 1.2.6" ><path fill="rgb(0,0,0)" stroke="rgb(0,0,0)" stroke-width="1" opacity="0" d="M 0.5 0 L 640 0.5 L 639.5 426 L 0 425.5 L 0.5 0 Z M 359 155 L 349 159 L 345 162 Q 340 164 339 170 L 338 170 L 336 167 L 330 160 L 322 156 L 310 156 L 304 159 L 295 169 Q 295 172 293 173 L 293 176 Q 291 177 293 178 L 292 179 L 292 187 L 291 188 L 295 199 L 304 207 L 328 223 L 335 232 L 337 238 L 339 238 L 340 234 L 343 230 L 358 216 L 373 207 L 382 197 L 382 195 L 384 192 L 384 187 L 385 186 L 384 184 L 385 181 L 384 177 Q 382 176 384 175 L 381 170 L 381 168 L 376 162 L 368 156 L 359 155 Z M 41 158 L 40 159 L 43 163 L 42 162 L 39 162 L 35 164 L 30 164 L 29 165 L 24 165 L 14 169 L 13 171 L 33 188 Q 37 190 38 197 L 32 203 L 14 216 L 13 220 L 15 221 L 20 222 L 23 224 L 29 224 L 30 225 L 42 225 L 43 226 L 58 226 L 59 227 L 69 227 L 70 228 L 84 228 L 85 229 L 97 229 L 98 230 L 99 229 L 105 229 L 111 226 Q 118 221 121 213 L 131 204 Q 132 202 137 203 L 140 201 L 198 201 L 199 202 L 253 202 L 254 203 Q 258 204 260 202 Q 263 201 265 203 Q 268 204 270 202 L 281 202 L 283 198 L 282 194 L 260 193 L 259 192 L 184 192 L 183 193 L 163 193 Q 162 191 161 193 L 154 193 L 153 192 L 150 193 L 135 193 L 131 191 L 127 186 L 124 183 L 116 167 L 112 163 L 106 162 L 105 161 L 87 161 L 86 159 Q 81 158 80 160 Q 76 161 75 159 L 60 160 Q 59 162 58 160 L 52 161 L 51 162 L 48 162 L 41 158 Z M 558 170 L 557 173 L 560 178 L 559 180 L 561 180 L 565 190 L 562 190 Q 560 193 559 191 L 556 192 Q 552 193 552 191 L 542 191 Q 541 189 540 191 L 530 191 L 529 190 Q 525 189 525 191 Q 521 192 521 190 L 520 191 L 512 191 L 511 192 L 508 191 L 502 192 L 502 190 L 496 192 L 475 192 L 472 190 L 471 191 L 452 191 Q 451 193 450 191 L 448 192 L 435 192 L 434 191 Q 430 190 430 192 L 422 192 L 422 191 L 420 190 L 419 192 L 416 191 L 397 192 L 397 194 L 396 196 Q 398 197 397 202 L 407 202 L 408 203 Q 411 204 413 202 L 437 202 L 438 203 L 440 202 L 441 203 L 562 203 Q 563 205 564 203 L 566 204 L 564 206 L 557 221 L 558 222 L 565 219 L 568 219 L 571 217 L 574 217 L 578 215 L 582 215 L 584 213 L 587 213 Q 587 210 591 211 Q 592 209 593 211 L 604 206 L 607 207 L 609 206 L 609 205 L 612 203 L 613 205 L 618 201 L 624 199 L 627 200 L 628 198 L 621 194 L 619 194 L 612 190 L 605 188 L 598 184 L 593 183 L 572 174 L 564 173 L 558 170 Z M 444 190 L 444 191 L 447 191 L 444 190 Z M 489 190 L 489 191 L 495 191 L 489 190 Z " /><path fill="rgb(0,0,0)" stroke="rgb(0,0,0)" stroke-width="1" opacity="0" d="M 54.5 164 L 58.5 165 Q 60 162.5 61.5 166 L 64 167.5 L 62.5 167 L 61 167.5 L 64.5 171 L 65.5 170 L 74 178.5 L 73.5 179 L 70.5 176 L 70 176.5 L 73.5 181 L 74.5 180 L 78 183.5 L 85 193.5 L 83.5 194 L 80 190.5 Q 80.5 187.5 78.5 187 L 56.5 167 L 54 164.5 L 54.5 164 Z " /><path fill="rgb(0,0,0)" stroke="rgb(0,0,0)" stroke-width="1" opacity="0" d="M 76.5 164 L 82.5 167 L 85 169.5 L 90 175.5 L 91 178.5 L 96 183.5 L 101 192.5 L 99.5 194 L 96 190.5 L 95.5 189 L 94 188.5 L 89.5 181 L 86 178.5 L 83.5 174 L 82 173.5 Q 84.3 172.3 81.5 171 L 80 171.5 L 81 169.5 Q 76.3 169.2 75 165.5 L 76.5 164 Z " /><path fill="rgb(0,0,0)" stroke="rgb(0,0,0)" stroke-width="1" opacity="0" d="M 87.5 165 L 90.5 166 L 97 172.5 L 98.5 176 L 101 177.5 L 104 181.5 L 105.5 186 L 108 187.5 L 110 193.5 L 108.5 194 L 102 188.5 L 87 168.5 L 87.5 165 Z " /><path fill="rgb(0,0,0)" stroke="rgb(0,0,0)" stroke-width="1" opacity="0" d="M 37.5 167 L 40.5 167 L 49 172.5 Q 48.5 175.5 50.5 176 L 53 177.5 L 55.5 181 L 58 182.5 Q 55.8 183.7 58.5 185 L 59.5 183 L 63.5 190 L 65 189.5 L 65.5 191 L 67 191.5 L 68 193.5 Q 66.8 196.2 65.5 194 L 63.5 194 L 59.5 191 L 46 177.5 L 45.5 176 L 44 175.5 L 41.5 171 L 39 169.5 L 38.5 168 Q 36.1 167.9 37.5 167 Z " /><path fill="rgb(0,0,0)" stroke="rgb(0,0,0)" stroke-width="1" opacity="0" d="M 99.5 168 L 104 171.5 Q 105 176.5 109 178.5 L 105.5 179 L 104.5 177 L 103 176.5 Q 102.2 171.8 99 169.5 L 99.5 168 Z " /><path fill="rgb(0,0,0)" stroke="rgb(0,0,0)" stroke-width="1" opacity="0" d="M 52.5 169 L 55.5 170 L 66 180.5 L 71 187.5 L 70.5 189 L 72.5 188 L 76 193.5 L 74.5 194 L 70 190.5 L 68.5 187 L 62 182.5 L 53 171.5 L 52.5 169 Z M 57 173 Q 55 174 58 175 L 58 174 L 57 173 Z " /><path fill="rgb(0,0,0)" stroke="rgb(0,0,0)" stroke-width="1" opacity="0" d="M 34.5 172 L 39 174.5 L 39.5 177 Q 42.5 176.5 43 178.5 L 45.5 182 L 47 182.5 L 46 184.5 L 47.5 185 Q 48.8 182.8 50 185.5 Q 49.5 188.5 51.5 189 L 56 191.5 L 57 194.5 L 55.5 194 L 51.5 193 L 42 183.5 L 34 173.5 L 34.5 172 Z " /><path fill="rgb(0,0,0)" stroke="rgb(0,0,0)" stroke-width="1" opacity="0" d="M 106.5 180 Q 107.5 182 108.5 180 L 114 185.5 L 115 188.5 L 113.5 189 L 108.5 182 Q 104.7 181.3 106.5 180 Z " /><path fill="rgb(0,0,0)" stroke="rgb(0,0,0)" stroke-width="1" opacity="0" d="M 42.5 200 L 44 201.5 L 35.5 210 L 25.5 218 L 20.5 219 Q 19.5 217 18.5 219 L 17 218.5 L 23 214.5 L 23.5 212 L 27 211.5 L 27.5 209 L 29.5 209 Q 30.7 205.7 35 205.5 L 34.5 204 Q 38.6 204.6 40 202.5 L 39.5 201 L 42.5 200 Z " /><path fill="rgb(0,0,0)" stroke="rgb(0,0,0)" stroke-width="1" opacity="0" d="M 73.5 200 L 75 200.5 L 74 204.5 L 60.5 223 L 56 222.5 L 60 218.5 L 59 217.5 L 61.5 215 L 63 214.5 L 62 212.5 L 64 211.5 L 64.5 210 L 66 209.5 L 66.5 207 L 68 206.5 Q 65.7 205.2 68.5 204 L 71 202.5 L 71.5 201 L 73.5 200 Z " /><path fill="rgb(0,0,0)" stroke="rgb(0,0,0)" stroke-width="1" opacity="0" d="M 91.5 200 L 94 201.5 L 88 212.5 L 82.5 220 L 81 220.5 Q 83 221.5 81 222.5 L 80.5 224 L 75 223.5 L 79 218.5 L 79.5 216 L 81 215.5 L 80 213.5 L 83 211.5 Q 82.4 207.4 84.5 206 L 86 206.5 Q 85.5 203.5 87.5 203 L 89 202.5 L 89.5 201 L 91.5 200 Z " /><path fill="rgb(0,0,0)" stroke="rgb(0,0,0)" stroke-width="1" opacity="0" d="M 119.5 200 L 122 201.5 L 109.5 218 L 109 214.5 L 111 213.5 L 110 211.5 L 112 210.5 L 112.5 207 L 114 206.5 L 113 204.5 L 116 203.5 L 117.5 201 L 119 201.5 L 119.5 200 Z " /><path fill="rgb(0,0,0)" stroke="rgb(0,0,0)" stroke-width="1" opacity="0" d="M 51.5 202 L 51 203.5 L 51 205.5 L 49 207.5 L 46 214.5 L 40.5 220 L 34.5 222 L 33.5 221 L 29 220.5 L 33 217.5 L 35.5 214 L 38 213.5 L 38.5 211 L 42 209.5 L 43.5 207 Q 44.7 209.3 46 206.5 L 44 205.5 L 49 204.5 L 49.5 203 L 51.5 202 Z " /><path fill="rgb(0,0,0)" stroke="rgb(0,0,0)" stroke-width="1" opacity="0" d="M 82.5 202 L 83 203.5 L 76 214.5 L 68.5 222 L 68 220.5 Q 69.8 219.8 69 216.5 L 70.5 215 L 72 214.5 L 71 213.5 L 75 209.5 L 76.5 206 L 81 204.5 L 80.5 203 L 82.5 202 Z " /><path fill="rgb(0,0,0)" stroke="rgb(0,0,0)" stroke-width="1" opacity="0" d="M 107.5 203 L 109 203.5 L 107 212.5 L 104 218.5 L 99.5 223 L 97.5 224 L 97 223.5 L 99 221.5 L 99 218.5 L 102 215.5 Q 100 214.5 102 213.5 L 103.5 209 L 105 209.5 L 104 207.5 L 108 204.5 L 107.5 203 Z " /><path fill="rgb(0,0,0)" stroke="rgb(0,0,0)" stroke-width="1" opacity="0.9882352941176471" d="M 312.5 156 L 318.5 156 Q 319.3 157.8 322.5 157 Q 330.6 159.9 335 166.5 L 337.5 171 L 339 170.5 L 340 167.5 L 345.5 162 L 351.5 158 L 356.5 157 L 356.5 158 L 351.5 159 L 342 167.5 L 338.5 175 L 335 168.5 L 327.5 161 L 321.5 158 L 309.5 158 L 303.5 161 L 299 165.5 L 294 176.5 L 293.5 189 L 293 176.5 L 297 166.5 L 304.5 159 L 312.5 156 Z " /><path fill="rgb(0,0,0)" stroke="rgb(0,0,0)" stroke-width="1" opacity="0.9882352941176471" d="M 358.5 156 L 362 156.5 L 358.5 157 L 358.5 156 Z " /><path fill="rgb(0,0,0)" stroke="rgb(0,0,0)" stroke-width="1" opacity="0.9882352941176471" d="M 364.5 157 Q 373.1 157.9 377 163.5 L 381 169.5 L 383 175.5 L 383 178.5 L 382 178.5 Q 380.4 165.6 371.5 160 L 367.5 158 L 364.5 158 L 364.5 157 Z " /><path fill="rgb(0,0,0)" stroke="rgb(0,0,0)" stroke-width="1" opacity="0.9882352941176471" d="M 42.5 160 L 48.5 163 Q 49.5 161 53.5 162 L 53 163.5 L 59.5 171 L 79 189.5 L 83.5 195 L 86 193.5 L 80 186.5 L 78 182.5 L 62.5 165 L 55 162.5 L 55.5 161 L 73.5 160 L 74.5 161 L 84.5 161 L 85.5 162 L 103.5 162 Q 104.8 164.2 109.5 163 L 116 167.5 L 121 180.5 Q 126.4 184.1 128.5 191 L 134.5 194 L 180.5 194 L 181.5 193 L 233.5 193 Q 234.5 195 235.5 193 L 281 193.5 L 280.5 201 L 244.5 201 L 242.5 202 L 241.5 201 L 190.5 201 L 189.5 200 L 182.5 200 Q 181.8 201.8 178.5 201 L 177.5 200 L 141.5 200 L 140.5 201 L 133.5 202 L 127.5 205 L 121 211.5 Q 118.4 218.4 113.5 223 L 104.5 228 Q 100.5 227 99.5 229 L 91.5 229 L 90.5 228 L 81.5 228 L 80.5 227 L 68.5 227 L 67.5 226 L 53.5 226 L 52.5 225 L 38.5 225 L 37.5 224 L 26.5 224 L 14 219.5 L 14.5 216 L 19.5 213 L 28.5 205 L 32.5 203 L 38 197.5 L 39 195.5 Q 37.3 190.7 33.5 188 L 14 170.5 L 14.5 169 L 16.5 169 L 22.5 166 L 33.5 165 L 37.5 163 L 44 162.5 L 42 160.5 L 42.5 160 Z M 76 163 L 75 167 L 92 186 L 93 189 L 96 190 L 100 195 L 102 194 L 99 187 L 91 178 L 88 172 L 87 171 L 85 169 L 76 163 Z M 88 165 L 86 167 L 93 179 L 103 191 L 109 195 L 111 194 L 110 190 L 101 177 L 100 176 L 98 174 L 100 174 L 100 173 L 96 170 L 92 166 L 88 165 Z M 38 166 L 36 169 L 38 169 L 46 179 Q 54 189 67 196 L 69 193 L 64 188 L 62 186 L 54 178 L 53 176 L 51 175 L 49 172 Q 49 170 46 170 L 43 167 L 38 166 Z M 50 166 L 49 168 L 62 184 L 68 188 L 69 191 L 75 195 L 77 194 L 71 185 L 69 183 L 61 174 Q 56 169 50 166 Z M 98 166 L 97 169 L 101 173 L 100 175 L 102 175 Q 105 183 112 188 Q 113 193 117 195 L 119 194 L 116 190 L 115 186 L 106 175 L 105 172 L 101 167 L 98 166 Z M 29 167 L 28 169 L 35 177 L 37 177 L 42 185 L 52 194 L 58 195 L 58 193 Q 56 189 52 188 L 50 185 L 46 181 L 45 180 L 44 179 L 43 178 L 41 176 L 40 175 L 38 172 L 36 172 L 31 169 L 30 168 L 29 167 Z M 42 199 L 40 200 L 38 203 L 35 203 L 32 205 L 31 207 L 27 209 L 26 211 L 23 212 L 22 215 L 16 218 L 18 220 Q 23 221 26 219 L 46 202 Q 46 198 42 199 Z M 73 199 L 70 203 L 69 203 L 65 207 L 64 211 L 63 211 Q 60 212 62 214 L 59 217 L 59 219 L 53 224 Q 54 226 57 225 Q 58 223 59 225 L 61 224 L 74 206 L 76 201 Q 76 199 73 199 Z M 92 199 L 88 202 L 84 206 L 82 209 L 82 211 L 79 214 L 77 220 L 76 220 L 75 223 L 72 225 L 73 226 Q 75 224 80 225 L 85 219 L 95 202 L 92 199 Z M 120 199 L 116 201 L 115 203 L 113 204 Q 110 205 111 210 Q 107 211 110 213 L 108 215 L 109 217 L 107 220 L 108 222 L 120 206 L 122 203 L 122 201 L 120 199 Z M 52 200 L 50 201 L 48 204 L 43 206 L 42 208 L 39 210 L 37 213 L 36 213 L 33 217 L 31 219 L 26 221 L 27 222 L 39 222 L 41 221 L 46 216 L 53 203 L 53 201 L 52 200 Z M 85 200 L 82 201 L 79 205 L 78 205 L 74 210 L 70 214 L 71 215 L 70 215 L 68 217 L 68 221 L 66 224 L 66 225 L 70 223 L 76 216 L 86 201 L 85 200 Z M 108 201 L 106 206 L 105 206 L 102 210 L 102 213 Q 99 213 100 217 L 98 219 L 98 222 L 94 225 L 95 226 L 99 225 L 99 224 L 101 223 Q 105 220 107 215 L 110 202 L 108 201 Z " /><path fill="rgb(0,0,0)" stroke="rgb(0,0,0)" stroke-width="1" opacity="0.9882352941176471" d="M 558.5 171 L 561.5 173 L 564.5 174 L 569.5 174 L 585.5 181 L 590.5 182 L 597.5 185 L 599.5 187 L 607.5 189 L 616.5 194 L 618.5 194 L 626 197.5 L 600.5 206 L 598.5 208 Q 593.9 207.4 592.5 210 Q 591.5 208 590.5 210 L 585.5 211 L 572.5 217 Q 571.5 215 570.5 217 L 558.5 221 L 558 219.5 L 560 216.5 L 560 214.5 L 562 212.5 L 562 210.5 L 566 204.5 L 566 202.5 L 535.5 202 Q 534.5 204 533.5 202 L 398 201.5 L 398.5 193 L 406.5 193 Q 407.5 191 411.5 192 L 412.5 193 L 430.5 193 L 433.5 192 L 434.5 193 L 440.5 193 L 443.5 192 Q 444.3 193.7 447.5 193 L 449.5 192 Q 450.5 194 451.5 192 L 458.5 192 Q 459.3 190.3 462.5 191 L 463.5 193 L 465 192.5 L 465.5 191 L 466.5 192 L 477.5 192 Q 478.8 194.2 483.5 193 Q 484.5 191 485.5 193 L 504.5 192 L 507.5 193 L 508.5 192 L 517.5 192 L 520.5 191 L 521.5 192 L 535.5 192 Q 536.5 190 540.5 191 L 541.5 192 L 560.5 192 L 561.5 191 L 566 190.5 L 561 179.5 L 561 177.5 L 558 172.5 L 558.5 171 Z " /><path fill="rgb(0,0,0)" stroke="rgb(0,0,0)" stroke-width="1" opacity="0.9882352941176471" d="M 383.5 180 L 384 183.5 L 383 183.5 L 383.5 180 Z " /><path fill="rgb(0,0,0)" stroke="rgb(0,0,0)" stroke-width="1" opacity="0.9882352941176471" d="M 296.5 196 L 303.5 204 L 322.5 216 L 336 229.5 L 337.5 233 L 339 232.5 L 341 228.5 L 352.5 217 Q 355 218 353.5 219 L 352 218.5 L 343 228.5 L 338.5 236 L 337 235.5 L 337 233.5 L 335 230.5 L 328.5 223 L 324 219.5 L 322.5 217 L 318 215.5 L 316.5 213 L 310.5 209 L 304.5 207 L 297 199.5 L 296.5 196 Z " /><path fill="rgb(87,26,28)" stroke="rgb(87,26,28)" stroke-width="1" opacity="0.9921568627450981" d="M 357.5 157 L 364 157.5 L 357.5 158 L 357.5 157 Z " /><path fill="rgb(87,26,28)" stroke="rgb(87,26,28)" stroke-width="1" opacity="0.9921568627450981" d="M 303.5 161 L 304 161.5 L 299.5 166 L 299 165.5 L 303.5 161 Z " /><path fill="rgb(87,26,28)" stroke="rgb(87,26,28)" stroke-width="1" opacity="0.9921568627450981" d="M 383.5 184 L 384 187.5 L 383 187.5 L 383.5 184 Z " /><path fill="rgb(87,26,28)" stroke="rgb(87,26,28)" stroke-width="1" opacity="0.9921568627450981" d="M 381.5 189 L 383 192.5 Q 382 194 381 191.5 L 381.5 189 Z " /><path fill="rgb(87,26,28)" stroke="rgb(87,26,28)" stroke-width="1" opacity="0.9921568627450981" d="M 380.5 193 Q 383.2 194.3 381 195.5 L 380 198.5 L 371.5 207 L 352.5 219 L 353 217.5 L 354.5 215 L 356 215.5 L 357.5 213 L 359 213.5 L 359.5 212 L 374 203.5 L 377.5 198 L 380 196.5 Q 378 195.5 380 194.5 L 380.5 193 Z " /><path fill="rgb(87,26,28)" stroke="rgb(87,26,28)" stroke-width="1" opacity="0.9921568627450981" d="M 298.5 198 L 302 201.5 L 301.5 202 L 298 198.5 L 298.5 198 Z " /><path fill="rgb(87,26,28)" stroke="rgb(87,26,28)" stroke-width="1" opacity="0.9921568627450981" d="M 328.5 221 L 334 226.5 L 333.5 227 L 328 221.5 L 328.5 221 Z " /><path fill="rgb(212,64,70)" stroke="rgb(212,64,70)" stroke-width="1" opacity="0.9921568627450981" d="M 346.5 163 L 347 163.5 L 344.5 166 L 344 165.5 L 346.5 163 Z " /><path fill="rgb(212,64,70)" stroke="rgb(212,64,70)" stroke-width="1" opacity="0.9921568627450981" d="M 323.5 216 L 326 218.5 L 325.5 219 L 323 216.5 L 323.5 216 Z " /><path fill="rgb(240,70,80)" stroke="rgb(240,70,80)" stroke-width="1" opacity="0.996078431372549" d="M 312.5 158 L 318.5 158 L 326.5 161 L 335 169.5 L 337.5 176 L 339 175.5 Q 341.8 165.8 349.5 161 L 356.5 158 L 365.5 158 Q 373.6 160.9 378 167.5 L 381 174.5 L 383 185.5 L 381 186.5 L 381 191.5 Q 378.4 198.4 373.5 203 L 352.5 216 L 341 227.5 L 338.5 231 L 336 229.5 L 323.5 216 L 308.5 207 L 298 197.5 L 296 194.5 L 295 188.5 L 294 187.5 L 294 180.5 L 295 179.5 L 296 172.5 L 299 166.5 L 304.5 161 L 312.5 158 Z " /><path fill="rgb(2,0,0)" stroke="rgb(2,0,0)" stroke-width="1" opacity="0.7686274509803922" d="M 362.5 156 L 366 156.5 L 362.5 157 L 362.5 156 Z " /><path fill="rgb(2,0,0)" stroke="rgb(2,0,0)" stroke-width="1" opacity="0.7686274509803922" d="M 62.5 160 L 65 160.5 L 62.5 161 L 62.5 160 Z " /><path fill="rgb(2,0,0)" stroke="rgb(2,0,0)" stroke-width="1" opacity="0.7686274509803922" d="M 74.5 160 L 84 160.5 L 74.5 161 L 74.5 160 Z " /><path fill="rgb(2,0,0)" stroke="rgb(2,0,0)" stroke-width="1" opacity="0.7686274509803922" d="M 302.5 160 L 303 160.5 L 298.5 165 L 298 164.5 L 302.5 160 Z " /><path fill="rgb(2,0,0)" stroke="rgb(2,0,0)" stroke-width="1" opacity="0.7686274509803922" d="M 85.5 161 L 88 161.5 L 85.5 162 L 85.5 161 Z " /><path fill="rgb(2,0,0)" stroke="rgb(2,0,0)" stroke-width="1" opacity="0.7686274509803922" d="M 104.5 162 L 107 162.5 L 104.5 163 L 104.5 162 Z " /><path fill="rgb(2,0,0)" stroke="rgb(2,0,0)" stroke-width="1" opacity="0.7686274509803922" d="M 56.5 163 L 59 163.5 L 56.5 164 L 56.5 163 Z " /><path fill="rgb(2,0,0)" stroke="rgb(2,0,0)" stroke-width="1" opacity="0.7686274509803922" d="M 53.5 164 L 57 167.5 L 56.5 168 L 53 164.5 L 53.5 164 Z " /><path fill="rgb(2,0,0)" stroke="rgb(2,0,0)" stroke-width="1" opacity="0.7686274509803922" d="M 49.5 166 L 52 167.5 Q 50.5 170.5 49 167.5 L 49.5 166 Z " /><path fill="rgb(2,0,0)" stroke="rgb(2,0,0)" stroke-width="1" opacity="0.7686274509803922" d="M 91.5 166 L 94 168.5 L 93.5 169 L 91 166.5 L 91.5 166 Z " /><path fill="rgb(2,0,0)" stroke="rgb(2,0,0)" stroke-width="1" opacity="0.7686274509803922" d="M 97.5 166 L 102 168.5 L 100.5 168 L 98 168.5 L 98.5 170 Q 96 169 97.5 166 Z " /><path fill="rgb(2,0,0)" stroke="rgb(2,0,0)" stroke-width="1" opacity="0.7686274509803922" d="M 28.5 167 L 30 167.5 Q 27.8 168.8 30.5 170 L 32 169.5 L 31 170.5 L 34 173.5 L 33.5 174 L 28 168.5 L 28.5 167 Z " /><path fill="rgb(2,0,0)" stroke="rgb(2,0,0)" stroke-width="1" opacity="0.7686274509803922" d="M 66.5 170 L 69 172.5 L 68.5 173 L 66 170.5 L 66.5 170 Z " /><path fill="rgb(2,0,0)" stroke="rgb(2,0,0)" stroke-width="1" opacity="0.7686274509803922" d="M 96.5 170 L 100 172.5 L 100.5 174 L 102 173.5 L 103 175.5 L 101.5 175 L 99 173.5 L 98.5 172 L 97 172.5 L 96.5 170 Z " /><path fill="rgb(2,0,0)" stroke="rgb(2,0,0)" stroke-width="1" opacity="0.7686274509803922" d="M 63.5 173 L 73 182.5 L 72.5 183 L 63 173.5 L 63.5 173 Z " /><path fill="rgb(2,0,0)" stroke="rgb(2,0,0)" stroke-width="1" opacity="0.7686274509803922" d="M 18.5 174 L 26 181.5 L 25.5 182 L 18 174.5 L 18.5 174 Z " /><path fill="rgb(2,0,0)" stroke="rgb(2,0,0)" stroke-width="1" opacity="0.7686274509803922" d="M 63.5 177 L 66 179.5 L 65.5 180 L 63 177.5 L 63.5 177 Z " /><path fill="rgb(2,0,0)" stroke="rgb(2,0,0)" stroke-width="1" opacity="0.7686274509803922" d="M 46.5 178 L 50 181.5 L 49.5 182 L 46 178.5 L 46.5 178 Z " /><path fill="rgb(2,0,0)" stroke="rgb(2,0,0)" stroke-width="1" opacity="0.7686274509803922" d="M 102.5 179 L 104.5 181 Q 105.8 178.8 107 181.5 L 105.5 181 L 104.5 182 L 102 179.5 L 102.5 179 Z " /><path fill="rgb(2,0,0)" stroke="rgb(2,0,0)" stroke-width="1" opacity="0.7686274509803922" d="M 46.5 181 L 50 184.5 L 49.5 185 L 46 181.5 L 46.5 181 Z " /><path fill="rgb(2,0,0)" stroke="rgb(2,0,0)" stroke-width="1" opacity="0.7686274509803922" d="M 111.5 182 L 115 185.5 L 114.5 186 L 111 182.5 L 111.5 182 Z " /><path fill="rgb(2,0,0)" stroke="rgb(2,0,0)" stroke-width="1" opacity="0.7686274509803922" d="M 62.5 183 L 69 188.5 L 67.5 188 L 62 183.5 L 62.5 183 Z " /><path fill="rgb(2,0,0)" stroke="rgb(2,0,0)" stroke-width="1" opacity="0.7686274509803922" d="M 42.5 184 L 47 188.5 L 46.5 189 L 42 184.5 L 42.5 184 Z " /><path fill="rgb(2,0,0)" stroke="rgb(2,0,0)" stroke-width="1" opacity="0.7686274509803922" d="M 61.5 185 L 63 187.5 Q 62 189 61 186.5 L 61.5 185 Z " /><path fill="rgb(2,0,0)" stroke="rgb(2,0,0)" stroke-width="1" opacity="0.7686274509803922" d="M 598.5 185 L 601 186.5 L 599.5 187 Q 597 186 598.5 185 Z " /><path fill="rgb(2,0,0)" stroke="rgb(2,0,0)" stroke-width="1" opacity="0.7686274509803922" d="M 33.5 188 L 37 191.5 L 36.5 192 L 33 188.5 L 33.5 188 Z " /><path fill="rgb(2,0,0)" stroke="rgb(2,0,0)" stroke-width="1" opacity="0.7686274509803922" d="M 292.5 189 L 294 189.5 L 293.5 192 Q 291.1 191.1 292.5 189 Z " /><path fill="rgb(2,0,0)" stroke="rgb(2,0,0)" stroke-width="1" opacity="0.7686274509803922" d="M 565.5 189 Q 567 190 564.5 191 L 563 190.5 L 565.5 189 Z " /><path fill="rgb(2,0,0)" stroke="rgb(2,0,0)" stroke-width="1" opacity="0.7686274509803922" d="M 48.5 190 L 52 193.5 L 51.5 194 L 48 190.5 L 48.5 190 Z " /><path fill="rgb(2,0,0)" stroke="rgb(2,0,0)" stroke-width="1" opacity="0.7686274509803922" d="M 79.5 190 L 84.5 194 L 85 192.5 L 84.5 191 L 86 193.5 L 83.5 195 L 79 190.5 L 79.5 190 Z " /><path fill="rgb(2,0,0)" stroke="rgb(2,0,0)" stroke-width="1" opacity="0.7686274509803922" d="M 527.5 190 L 528 191.5 L 525.5 192 L 525.5 191 L 527.5 190 Z " /><path fill="rgb(2,0,0)" stroke="rgb(2,0,0)" stroke-width="1" opacity="0.7686274509803922" d="M 452.5 191 L 459 191.5 L 452.5 192 L 452.5 191 Z " /><path fill="rgb(2,0,0)" stroke="rgb(2,0,0)" stroke-width="1" opacity="0.7686274509803922" d="M 463.5 191 L 465 191.5 L 464.5 193 L 463 192.5 L 463.5 191 Z " /><path fill="rgb(2,0,0)" stroke="rgb(2,0,0)" stroke-width="1" opacity="0.7686274509803922" d="M 466.5 191 L 472 191.5 L 466.5 192 L 466.5 191 Z " /><path fill="rgb(2,0,0)" stroke="rgb(2,0,0)" stroke-width="1" opacity="0.7686274509803922" d="M 515.5 191 L 518 191.5 L 515.5 192 L 515.5 191 Z " /><path fill="rgb(2,0,0)" stroke="rgb(2,0,0)" stroke-width="1" opacity="0.7686274509803922" d="M 541.5 191 L 544 191.5 L 541.5 192 L 541.5 191 Z " /><path fill="rgb(2,0,0)" stroke="rgb(2,0,0)" stroke-width="1" opacity="0.7686274509803922" d="M 68.5 192 L 69 193.5 L 65.5 196 L 65.5 195 L 68 193.5 L 68.5 192 Z " /><path fill="rgb(2,0,0)" stroke="rgb(2,0,0)" stroke-width="1" opacity="0.7686274509803922" d="M 114.5 192 L 117.5 194 L 119 193.5 L 116.5 195 L 114 192.5 L 114.5 192 Z " /><path fill="rgb(2,0,0)" stroke="rgb(2,0,0)" stroke-width="1" opacity="0.7686274509803922" d="M 185.5 192 L 233.5 192 L 235 193.5 L 233.5 193 L 185.5 193 L 185.5 192 Z " /><path fill="rgb(2,0,0)" stroke="rgb(2,0,0)" stroke-width="1" opacity="0.7686274509803922" d="M 412.5 192 L 416 192.5 L 412.5 193 L 412.5 192 Z " /><path fill="rgb(2,0,0)" stroke="rgb(2,0,0)" stroke-width="1" opacity="0.7686274509803922" d="M 444.5 192 L 448 192.5 L 444.5 193 L 444.5 192 Z " /><path fill="rgb(2,0,0)" stroke="rgb(2,0,0)" stroke-width="1" opacity="0.7686274509803922" d="M 478.5 192 L 484 192.5 L 478.5 193 L 478.5 192 Z " /><path fill="rgb(2,0,0)" stroke="rgb(2,0,0)" stroke-width="1" opacity="0.7686274509803922" d="M 485.5 192 L 494 192.5 L 485.5 193 L 485.5 192 Z " /><path fill="rgb(2,0,0)" stroke="rgb(2,0,0)" stroke-width="1" opacity="0.7686274509803922" d="M 505.5 192 L 508 192.5 L 505.5 193 L 505.5 192 Z " /><path fill="rgb(2,0,0)" stroke="rgb(2,0,0)" stroke-width="1" opacity="0.7686274509803922" d="M 134.5 193 L 150 193.5 L 134.5 194 L 134.5 193 Z " /><path fill="rgb(2,0,0)" stroke="rgb(2,0,0)" stroke-width="1" opacity="0.7686274509803922" d="M 177.5 193 L 181 193.5 L 177.5 194 L 177.5 193 Z " /><path fill="rgb(2,0,0)" stroke="rgb(2,0,0)" stroke-width="1" opacity="0.7686274509803922" d="M 294.5 193 L 297 197.5 L 297 199.5 L 296 199.5 L 294 195.5 L 294.5 193 Z " /><path fill="rgb(2,0,0)" stroke="rgb(2,0,0)" stroke-width="1" opacity="0.7686274509803922" d="M 41.5 199 L 44 199.5 L 38.5 202 Q 37 201 39.5 200 L 41.5 199 Z " /><path fill="rgb(2,0,0)" stroke="rgb(2,0,0)" stroke-width="1" opacity="0.7686274509803922" d="M 72.5 199 L 73 199.5 L 71 201.5 L 69.5 204 L 68 203.5 L 70 202.5 L 72.5 199 Z " /><path fill="rgb(2,0,0)" stroke="rgb(2,0,0)" stroke-width="1" opacity="0.7686274509803922" d="M 91.5 199 L 95 201.5 L 94.5 202 L 92.5 200 Q 90.1 199.9 91.5 199 Z " /><path fill="rgb(2,0,0)" stroke="rgb(2,0,0)" stroke-width="1" opacity="0.7686274509803922" d="M 84.5 200 L 86 200.5 L 83.5 204 L 84 202.5 L 83 201.5 L 84.5 200 Z " /><path fill="rgb(2,0,0)" stroke="rgb(2,0,0)" stroke-width="1" opacity="0.7686274509803922" d="M 141.5 200 L 144 200.5 L 141.5 201 L 141.5 200 Z " /><path fill="rgb(2,0,0)" stroke="rgb(2,0,0)" stroke-width="1" opacity="0.7686274509803922" d="M 149.5 200 L 166 200.5 L 149.5 201 L 149.5 200 Z " /><path fill="rgb(2,0,0)" stroke="rgb(2,0,0)" stroke-width="1" opacity="0.7686274509803922" d="M 171.5 200 L 178 200.5 L 171.5 201 L 171.5 200 Z " /><path fill="rgb(2,0,0)" stroke="rgb(2,0,0)" stroke-width="1" opacity="0.7686274509803922" d="M 182.5 200 L 190 200.5 L 182.5 201 L 182.5 200 Z " /><path fill="rgb(2,0,0)" stroke="rgb(2,0,0)" stroke-width="1" opacity="0.7686274509803922" d="M 81.5 201 L 82 201.5 L 80 203.5 L 78.5 206 L 77 205.5 L 79 204.5 L 81.5 201 Z " /><path fill="rgb(2,0,0)" stroke="rgb(2,0,0)" stroke-width="1" opacity="0.7686274509803922" d="M 212.5 201 L 217 201.5 L 212.5 202 L 212.5 201 Z " /><path fill="rgb(2,0,0)" stroke="rgb(2,0,0)" stroke-width="1" opacity="0.7686274509803922" d="M 232.5 201 L 238 201.5 L 232.5 202 L 232.5 201 Z " /><path fill="rgb(2,0,0)" stroke="rgb(2,0,0)" stroke-width="1" opacity="0.7686274509803922" d="M 244.5 201 L 247 201.5 L 244.5 202 L 244.5 201 Z " /><path fill="rgb(2,0,0)" stroke="rgb(2,0,0)" stroke-width="1" opacity="0.7686274509803922" d="M 267.5 201 L 281 201.5 L 267.5 202 L 267.5 201 Z " /><path fill="rgb(2,0,0)" stroke="rgb(2,0,0)" stroke-width="1" opacity="0.7686274509803922" d="M 377.5 201 L 378 201.5 L 375.5 204 L 375 203.5 L 377.5 201 Z " /><path fill="rgb(2,0,0)" stroke="rgb(2,0,0)" stroke-width="1" opacity="0.7686274509803922" d="M 408.5 202 L 411 202.5 L 408.5 203 L 408.5 202 Z " /><path fill="rgb(2,0,0)" stroke="rgb(2,0,0)" stroke-width="1" opacity="0.7686274509803922" d="M 523.5 202 L 534 202.5 L 523.5 203 L 523.5 202 Z " /><path fill="rgb(2,0,0)" stroke="rgb(2,0,0)" stroke-width="1" opacity="0.7686274509803922" d="M 535.5 202 L 566 202.5 L 535.5 203 L 535.5 202 Z " /><path fill="rgb(2,0,0)" stroke="rgb(2,0,0)" stroke-width="1" opacity="0.7686274509803922" d="M 86.5 203 L 86 204.5 L 85.5 206 L 84 205.5 L 86.5 203 Z " /><path fill="rgb(2,0,0)" stroke="rgb(2,0,0)" stroke-width="1" opacity="0.7686274509803922" d="M 39.5 206 L 40 206.5 L 37.5 209 L 37 208.5 L 39.5 206 Z " /><path fill="rgb(2,0,0)" stroke="rgb(2,0,0)" stroke-width="1" opacity="0.7686274509803922" d="M 111.5 206 L 112 208.5 L 111 208.5 L 111.5 206 Z " /><path fill="rgb(2,0,0)" stroke="rgb(2,0,0)" stroke-width="1" opacity="0.7686274509803922" d="M 600.5 206 L 602 206.5 L 599.5 208 Q 598 207 600.5 206 Z " /><path fill="rgb(2,0,0)" stroke="rgb(2,0,0)" stroke-width="1" opacity="0.7686274509803922" d="M 83.5 207 L 83 208.5 Q 83.5 211.5 81.5 212 L 82 210.5 Q 81.5 207.5 83.5 207 Z " /><path fill="rgb(2,0,0)" stroke="rgb(2,0,0)" stroke-width="1" opacity="0.7686274509803922" d="M 305.5 207 L 309 209.5 L 307.5 209 Q 303.7 208.3 305.5 207 Z " /><path fill="rgb(2,0,0)" stroke="rgb(2,0,0)" stroke-width="1" opacity="0.7686274509803922" d="M 102.5 209 L 103 211.5 L 102 211.5 L 102.5 209 Z " /><path fill="rgb(2,0,0)" stroke="rgb(2,0,0)" stroke-width="1" opacity="0.7686274509803922" d="M 310.5 209 L 318 214.5 L 317.5 216 L 310 210.5 L 310.5 209 Z " /><path fill="rgb(2,0,0)" stroke="rgb(2,0,0)" stroke-width="1" opacity="0.7686274509803922" d="M 110.5 210 L 110 211.5 L 111 212.5 L 108.5 215 L 108 214.5 L 110 212.5 L 109 211.5 L 110.5 210 Z " /><path fill="rgb(2,0,0)" stroke="rgb(2,0,0)" stroke-width="1" opacity="0.7686274509803922" d="M 32.5 212 L 33 212.5 L 30.5 215 L 30 214.5 L 32.5 212 Z " /><path fill="rgb(2,0,0)" stroke="rgb(2,0,0)" stroke-width="1" opacity="0.7686274509803922" d="M 17.5 216 L 19 216.5 L 16.5 218 Q 15 217 17.5 216 Z " /><path fill="rgb(2,0,0)" stroke="rgb(2,0,0)" stroke-width="1" opacity="0.7686274509803922" d="M 27.5 216 L 28 216.5 L 25.5 219 L 25 218.5 L 27.5 216 Z " /><path fill="rgb(2,0,0)" stroke="rgb(2,0,0)" stroke-width="1" opacity="0.7686274509803922" d="M 85.5 216 L 85 217.5 L 83.5 220 L 84 218.5 L 85.5 216 Z " /><path fill="rgb(2,0,0)" stroke="rgb(2,0,0)" stroke-width="1" opacity="0.7686274509803922" d="M 319.5 216 L 324 218.5 L 323.5 220 L 319 216.5 L 319.5 216 Z " /><path fill="rgb(2,0,0)" stroke="rgb(2,0,0)" stroke-width="1" opacity="0.7686274509803922" d="M 13.5 217 L 14 219.5 L 13 219.5 L 13.5 217 Z " /><path fill="rgb(2,0,0)" stroke="rgb(2,0,0)" stroke-width="1" opacity="0.7686274509803922" d="M 104.5 218 L 105 218.5 L 102.5 221 L 102 220.5 L 104.5 218 Z " /><path fill="rgb(2,0,0)" stroke="rgb(2,0,0)" stroke-width="1" opacity="0.7686274509803922" d="M 62.5 221 L 63 221.5 L 60.5 224 L 58.5 225 Q 57 224 59.5 223 L 62.5 221 Z " /><path fill="rgb(2,0,0)" stroke="rgb(2,0,0)" stroke-width="1" opacity="0.7686274509803922" d="M 97.5 222 L 97.5 224 L 99 224.5 L 97.5 225 Q 94.5 223.5 97.5 222 Z " /><path fill="rgb(2,0,0)" stroke="rgb(2,0,0)" stroke-width="1" opacity="0.7686274509803922" d="M 328.5 223 L 331 225.5 L 330.5 226 L 328 223.5 L 328.5 223 Z " /><path fill="rgb(2,0,0)" stroke="rgb(2,0,0)" stroke-width="1" opacity="0.7686274509803922" d="M 348.5 223 L 349 223.5 L 343.5 229 L 343 228.5 L 348.5 223 Z " /><path fill="rgb(2,0,0)" stroke="rgb(2,0,0)" stroke-width="1" opacity="0.7686274509803922" d="M 34.5 224 L 38 224.5 L 34.5 225 L 34.5 224 Z " /><path fill="rgb(2,0,0)" stroke="rgb(2,0,0)" stroke-width="1" opacity="0.7686274509803922" d="M 54.5 224 L 57 224.5 L 54.5 225 L 54.5 224 Z " /><path fill="rgb(2,0,0)" stroke="rgb(2,0,0)" stroke-width="1" opacity="0.7686274509803922" d="M 72.5 224 Q 75 225 73.5 226 L 72 225.5 L 72.5 224 Z " /><path fill="rgb(2,0,0)" stroke="rgb(2,0,0)" stroke-width="1" opacity="0.7686274509803922" d="M 75.5 224 L 80 224.5 L 75.5 225 L 75.5 224 Z " /><path fill="rgb(2,0,0)" stroke="rgb(2,0,0)" stroke-width="1" opacity="0.7686274509803922" d="M 48.5 225 L 53 225.5 L 48.5 226 L 48.5 225 Z " /><path fill="rgb(2,0,0)" stroke="rgb(2,0,0)" stroke-width="1" opacity="0.7686274509803922" d="M 64.5 226 L 68 226.5 L 64.5 227 L 64.5 226 Z " /><path fill="rgb(2,0,0)" stroke="rgb(2,0,0)" stroke-width="1" opacity="0.7686274509803922" d="M 77.5 227 L 81 227.5 L 77.5 228 L 77.5 227 Z " /><path fill="rgb(2,0,0)" stroke="rgb(2,0,0)" stroke-width="1" opacity="0.7686274509803922" d="M 87.5 228 L 91 228.5 L 87.5 229 L 87.5 228 Z " /><path fill="rgb(0,0,0)" stroke="rgb(0,0,0)" stroke-width="1" opacity="0.42745098039215684" d="M 40.5 158 L 43 159.5 L 41.5 159 Q 39.1 158.9 40.5 158 Z " /><path fill="rgb(0,0,0)" stroke="rgb(0,0,0)" stroke-width="1" opacity="0.42745098039215684" d="M 68.5 159 L 75 159.5 L 68.5 160 L 68.5 159 Z " /><path fill="rgb(0,0,0)" stroke="rgb(0,0,0)" stroke-width="1" opacity="0.42745098039215684" d="M 80.5 159 L 86 159.5 L 85.5 161 L 80.5 160 L 80.5 159 Z " /><path fill="rgb(0,0,0)" stroke="rgb(0,0,0)" stroke-width="1" opacity="0.42745098039215684" d="M 59.5 160 L 62 160.5 L 59.5 161 L 59.5 160 Z " /><path fill="rgb(0,0,0)" stroke="rgb(0,0,0)" stroke-width="1" opacity="0.42745098039215684" d="M 329.5 160 L 336 166.5 L 335.5 167 L 329 160.5 L 329.5 160 Z " /><path fill="rgb(0,0,0)" stroke="rgb(0,0,0)" stroke-width="1" opacity="0.42745098039215684" d="M 88.5 161 L 105 161.5 L 88.5 162 L 88.5 161 Z " /><path fill="rgb(0,0,0)" stroke="rgb(0,0,0)" stroke-width="1" opacity="0.42745098039215684" d="M 38.5 162 L 42 162.5 L 38.5 163 L 38.5 162 Z " /><path fill="rgb(0,0,0)" stroke="rgb(0,0,0)" stroke-width="1" opacity="0.42745098039215684" d="M 344.5 162 L 345 162.5 L 340.5 167 L 340 166.5 L 344.5 162 Z " /><path fill="rgb(0,0,0)" stroke="rgb(0,0,0)" stroke-width="1" opacity="0.42745098039215684" d="M 53.5 163 L 56 163.5 L 53.5 164 L 53.5 163 Z " /><path fill="rgb(0,0,0)" stroke="rgb(0,0,0)" stroke-width="1" opacity="0.42745098039215684" d="M 29.5 164 L 32 164.5 L 29.5 165 L 29.5 164 Z " /><path fill="rgb(0,0,0)" stroke="rgb(0,0,0)" stroke-width="1" opacity="0.42745098039215684" d="M 37.5 166 L 40 166.5 L 37.5 167 L 37.5 166 Z " /><path fill="rgb(0,0,0)" stroke="rgb(0,0,0)" stroke-width="1" opacity="0.42745098039215684" d="M 57.5 167 L 63 172.5 L 62.5 173 L 57 168.5 L 57.5 167 Z " /><path fill="rgb(0,0,0)" stroke="rgb(0,0,0)" stroke-width="1" opacity="0.42745098039215684" d="M 61.5 167 L 66 169.5 L 65 170.5 L 68.5 174 L 70 173.5 L 69 174.5 L 73.5 179 L 76 180.5 L 74.5 180 L 73.5 181 L 70 177.5 L 61 167.5 L 61.5 167 Z " /><path fill="rgb(0,0,0)" stroke="rgb(0,0,0)" stroke-width="1" opacity="0.42745098039215684" d="M 29.5 168 L 34 171.5 L 33.5 173 L 32.5 171 L 29 168.5 L 29.5 168 Z " /><path fill="rgb(0,0,0)" stroke="rgb(0,0,0)" stroke-width="1" opacity="0.42745098039215684" d="M 37.5 168 L 39 168.5 L 38.5 170 Q 36 169 37.5 168 Z " /><path fill="rgb(0,0,0)" stroke="rgb(0,0,0)" stroke-width="1" opacity="0.42745098039215684" d="M 43.5 168 L 47 170.5 L 45.5 171 L 43 168.5 L 43.5 168 Z " /><path fill="rgb(0,0,0)" stroke="rgb(0,0,0)" stroke-width="1" opacity="0.42745098039215684" d="M 51.5 168 L 53 168.5 L 52 169.5 L 52.5 171 Q 50.1 170.1 51.5 168 Z " /><path fill="rgb(0,0,0)" stroke="rgb(0,0,0)" stroke-width="1" opacity="0.42745098039215684" d="M 77.5 168 L 81 169.5 L 79.5 171 L 77 168.5 L 77.5 168 Z " /><path fill="rgb(0,0,0)" stroke="rgb(0,0,0)" stroke-width="1" opacity="0.42745098039215684" d="M 94.5 169 L 97 171.5 L 96.5 172 L 94 169.5 L 94.5 169 Z " /><path fill="rgb(0,0,0)" stroke="rgb(0,0,0)" stroke-width="1" opacity="0.42745098039215684" d="M 56.5 170 L 63 176.5 L 62.5 177 L 58.5 173 L 57 173.5 L 58 172.5 L 56 170.5 L 56.5 170 Z " /><path fill="rgb(0,0,0)" stroke="rgb(0,0,0)" stroke-width="1" opacity="0.42745098039215684" d="M 85.5 170 L 89 173.5 L 88.5 174 L 85 170.5 L 85.5 170 Z " /><path fill="rgb(0,0,0)" stroke="rgb(0,0,0)" stroke-width="1" opacity="0.42745098039215684" d="M 81.5 171 L 83 172.5 L 82.5 174 L 84 174.5 L 82.5 175 Q 80 174 81.5 171 Z " /><path fill="rgb(0,0,0)" stroke="rgb(0,0,0)" stroke-width="1" opacity="0.42745098039215684" d="M 55.5 172 L 55 173.5 L 58 176.5 L 57.5 177 L 54 173.5 L 55.5 172 Z " /><path fill="rgb(0,0,0)" stroke="rgb(0,0,0)" stroke-width="1" opacity="0.42745098039215684" d="M 98.5 172 L 98 173.5 L 99 174.5 L 98.5 176 L 97 173.5 L 98.5 172 Z " /><path fill="rgb(0,0,0)" stroke="rgb(0,0,0)" stroke-width="1" opacity="0.42745098039215684" d="M 49.5 173 L 50.5 175 L 53 176.5 L 51.5 176 L 49 174.5 L 49.5 173 Z " /><path fill="rgb(0,0,0)" stroke="rgb(0,0,0)" stroke-width="1" opacity="0.42745098039215684" d="M 34.5 174 L 37 176.5 L 36.5 177 L 34 174.5 L 34.5 174 Z " /><path fill="rgb(0,0,0)" stroke="rgb(0,0,0)" stroke-width="1" opacity="0.42745098039215684" d="M 559.5 176 L 559.5 178 L 561 178.5 L 560.5 180 L 559 179.5 L 558 177.5 L 559.5 176 Z " /><path fill="rgb(0,0,0)" stroke="rgb(0,0,0)" stroke-width="1" opacity="0.42745098039215684" d="M 120.5 177 L 122 179.5 L 121 179.5 L 120.5 177 Z " /><path fill="rgb(0,0,0)" stroke="rgb(0,0,0)" stroke-width="1" opacity="0.42745098039215684" d="M 37.5 178 L 42 182.5 L 41.5 183 L 37 178.5 L 37.5 178 Z " /><path fill="rgb(0,0,0)" stroke="rgb(0,0,0)" stroke-width="1" opacity="0.42745098039215684" d="M 53.5 178 L 55 178.5 L 56 180.5 L 55.5 181 L 53 178.5 L 53.5 178 Z " /><path fill="rgb(0,0,0)" stroke="rgb(0,0,0)" stroke-width="1" opacity="0.42745098039215684" d="M 91.5 178 Q 93 181.5 94.5 179 L 97 181.5 L 95.5 181 L 94.5 182 L 91 178.5 L 91.5 178 Z " /><path fill="rgb(0,0,0)" stroke="rgb(0,0,0)" stroke-width="1" opacity="0.42745098039215684" d="M 292.5 178 L 293 188.5 L 291.5 189 L 291 187.5 L 292 186.5 L 292.5 178 Z " /><path fill="rgb(0,0,0)" stroke="rgb(0,0,0)" stroke-width="1" opacity="0.42745098039215684" d="M 43.5 179 L 46 181.5 L 45.5 182 L 43 179.5 L 43.5 179 Z " /><path fill="rgb(0,0,0)" stroke="rgb(0,0,0)" stroke-width="1" opacity="0.42745098039215684" d="M 105.5 179 Q 109.6 178.4 111 180.5 L 110.5 182 L 108.5 180 Q 107.5 182 106.5 180 Q 104.1 179.9 105.5 179 Z " /><path fill="rgb(0,0,0)" stroke="rgb(0,0,0)" stroke-width="1" opacity="0.42745098039215684" d="M 57.5 181 Q 59.5 181.5 59 184.5 Q 58 186 57 183.5 L 58 182.5 L 57.5 181 Z " /><path fill="rgb(0,0,0)" stroke="rgb(0,0,0)" stroke-width="1" opacity="0.42745098039215684" d="M 66.5 181 L 71 185.5 L 70.5 186 Q 69.5 184 68.5 186 L 67 184.5 L 68 183.5 L 66 181.5 L 66.5 181 Z " /><path fill="rgb(0,0,0)" stroke="rgb(0,0,0)" stroke-width="1" opacity="0.42745098039215684" d="M 26.5 182 L 29 184.5 L 28.5 185 L 26 182.5 L 26.5 182 Z " /><path fill="rgb(0,0,0)" stroke="rgb(0,0,0)" stroke-width="1" opacity="0.42745098039215684" d="M 50.5 182 L 57 188.5 L 56.5 189 L 50 182.5 L 50.5 182 Z " /><path fill="rgb(0,0,0)" stroke="rgb(0,0,0)" stroke-width="1" opacity="0.42745098039215684" d="M 46.5 183 L 48 183.5 L 47.5 185 L 46 184.5 L 46.5 183 Z " /><path fill="rgb(0,0,0)" stroke="rgb(0,0,0)" stroke-width="1" opacity="0.42745098039215684" d="M 73.5 183 L 80 188.5 L 79.5 190 L 73 183.5 L 73.5 183 Z " /><path fill="rgb(0,0,0)" stroke="rgb(0,0,0)" stroke-width="1" opacity="0.42745098039215684" d="M 105.5 184 Q 108 185 106.5 186 L 105 185.5 L 105.5 184 Z " /><path fill="rgb(0,0,0)" stroke="rgb(0,0,0)" stroke-width="1" opacity="0.42745098039215684" d="M 109.5 184 L 112 186.5 L 111.5 187 L 109 184.5 L 109.5 184 Z " /><path fill="rgb(0,0,0)" stroke="rgb(0,0,0)" stroke-width="1" opacity="0.42745098039215684" d="M 99.5 185 L 102 187.5 L 101.5 188 L 99 185.5 L 99.5 185 Z " /><path fill="rgb(0,0,0)" stroke="rgb(0,0,0)" stroke-width="1" opacity="0.42745098039215684" d="M 114.5 186 L 116.5 192 L 118 192.5 Q 117 195 116 193.5 L 115.5 192 L 113 190.5 L 112 188.5 L 113.5 189 L 115 188.5 Q 113.3 187.8 114.5 186 Z " /><path fill="rgb(0,0,0)" stroke="rgb(0,0,0)" stroke-width="1" opacity="0.42745098039215684" d="M 71.5 187 L 74 188.5 L 73 190.5 L 75 190.5 Q 73.5 193.5 72 190.5 L 71.5 189 L 69.5 190 L 69 189.5 L 71.5 187 Z " /><path fill="rgb(0,0,0)" stroke="rgb(0,0,0)" stroke-width="1" opacity="0.42745098039215684" d="M 63.5 188 L 68 191.5 L 67.5 193 L 66.5 191 L 65 190.5 L 64.5 189 L 63 189.5 L 63.5 188 Z " /><path fill="rgb(0,0,0)" stroke="rgb(0,0,0)" stroke-width="1" opacity="0.42745098039215684" d="M 81.5 188 L 84 190.5 L 83.5 191 L 81 188.5 L 81.5 188 Z " /><path fill="rgb(0,0,0)" stroke="rgb(0,0,0)" stroke-width="1" opacity="0.42745098039215684" d="M 53.5 189 Q 56 190 54.5 191 L 53.5 190 L 52 190.5 L 53.5 189 Z " /><path fill="rgb(0,0,0)" stroke="rgb(0,0,0)" stroke-width="1" opacity="0.42745098039215684" d="M 109.5 190 L 111 193.5 Q 110 196 109 194.5 L 110 192.5 Q 108.3 191.8 109.5 190 Z " /><path fill="rgb(0,0,0)" stroke="rgb(0,0,0)" stroke-width="1" opacity="0.42745098039215684" d="M 419.5 190 L 420.5 191 L 422 190.5 L 421.5 192 L 429 192.5 L 416.5 193 L 415.5 192 L 407 191.5 L 415.5 191 L 418.5 192 L 419.5 190 Z " /><path fill="rgb(0,0,0)" stroke="rgb(0,0,0)" stroke-width="1" opacity="0.42745098039215684" d="M 471.5 190 L 474 191.5 L 472.5 192 Q 470 191 471.5 190 Z " /><path fill="rgb(0,0,0)" stroke="rgb(0,0,0)" stroke-width="1" opacity="0.42745098039215684" d="M 488.5 190 L 495 190.5 L 488.5 191 L 488.5 190 Z " /><path fill="rgb(0,0,0)" stroke="rgb(0,0,0)" stroke-width="1" opacity="0.42745098039215684" d="M 499.5 190 L 502 190.5 Q 501 193 496.5 192 L 496.5 191 L 499.5 190 Z " /><path fill="rgb(0,0,0)" stroke="rgb(0,0,0)" stroke-width="1" opacity="0.42745098039215684" d="M 525.5 190 L 527 190.5 L 522.5 192 L 522.5 191 L 525.5 190 Z " /><path fill="rgb(0,0,0)" stroke="rgb(0,0,0)" stroke-width="1" opacity="0.42745098039215684" d="M 528.5 190 L 529.5 191 L 534 191.5 L 528.5 192 L 528.5 190 Z " /><path fill="rgb(0,0,0)" stroke="rgb(0,0,0)" stroke-width="1" opacity="0.42745098039215684" d="M 561.5 190 L 563 190.5 L 560.5 192 Q 559 191 561.5 190 Z " /><path fill="rgb(0,0,0)" stroke="rgb(0,0,0)" stroke-width="1" opacity="0.42745098039215684" d="M 56.5 191 L 58 193.5 Q 57 195 56 192.5 L 56.5 191 Z " /><path fill="rgb(0,0,0)" stroke="rgb(0,0,0)" stroke-width="1" opacity="0.42745098039215684" d="M 70.5 191 L 74 193.5 L 72.5 194 L 70 191.5 L 70.5 191 Z " /><path fill="rgb(0,0,0)" stroke="rgb(0,0,0)" stroke-width="1" opacity="0.42745098039215684" d="M 96.5 191 L 99.5 194 L 101.5 192 L 102 192.5 L 101.5 194 L 99.5 195 L 96 191.5 L 96.5 191 Z " /><path fill="rgb(0,0,0)" stroke="rgb(0,0,0)" stroke-width="1" opacity="0.42745098039215684" d="M 131.5 191 L 134 192.5 L 132.5 193 Q 130 192 131.5 191 Z " /><path fill="rgb(0,0,0)" stroke="rgb(0,0,0)" stroke-width="1" opacity="0.42745098039215684" d="M 292.5 191 Q 294.5 191.5 294 194.5 L 293 194.5 L 292.5 191 Z " /><path fill="rgb(0,0,0)" stroke="rgb(0,0,0)" stroke-width="1" opacity="0.42745098039215684" d="M 505.5 191 L 508 191.5 L 505.5 192 L 505.5 191 Z " /><path fill="rgb(0,0,0)" stroke="rgb(0,0,0)" stroke-width="1" opacity="0.42745098039215684" d="M 511.5 191 L 515 191.5 L 511.5 192 L 511.5 191 Z " /><path fill="rgb(0,0,0)" stroke="rgb(0,0,0)" stroke-width="1" opacity="0.42745098039215684" d="M 544.5 191 L 550 191.5 L 544.5 192 L 544.5 191 Z " /><path fill="rgb(0,0,0)" stroke="rgb(0,0,0)" stroke-width="1" opacity="0.42745098039215684" d="M 556.5 191 L 559 191.5 L 556.5 192 L 556.5 191 Z " /><path fill="rgb(0,0,0)" stroke="rgb(0,0,0)" stroke-width="1" opacity="0.42745098039215684" d="M 150.5 192 L 153.5 193 L 160.5 193 Q 161.5 191 162.5 193 L 177 193.5 L 150.5 194 L 150.5 192 Z " /><path fill="rgb(0,0,0)" stroke="rgb(0,0,0)" stroke-width="1" opacity="0.42745098039215684" d="M 234.5 192 L 259 192.5 L 234.5 193 L 234.5 192 Z " /><path fill="rgb(0,0,0)" stroke="rgb(0,0,0)" stroke-width="1" opacity="0.42745098039215684" d="M 396.5 192 L 405 192.5 L 398 193.5 L 397.5 202 L 397 196.5 L 396 195.5 L 397 193.5 L 396.5 192 Z " /><path fill="rgb(0,0,0)" stroke="rgb(0,0,0)" stroke-width="1" opacity="0.42745098039215684" d="M 435.5 192 L 439 192.5 L 435.5 193 L 435.5 192 Z " /><path fill="rgb(0,0,0)" stroke="rgb(0,0,0)" stroke-width="1" opacity="0.42745098039215684" d="M 281.5 193 L 283 197.5 L 281.5 201 L 281.5 193 Z " /><path fill="rgb(0,0,0)" stroke="rgb(0,0,0)" stroke-width="1" opacity="0.42745098039215684" d="M 627.5 197 L 628 198.5 L 625.5 200 L 625 198.5 L 627.5 197 Z " /><path fill="rgb(0,0,0)" stroke="rgb(0,0,0)" stroke-width="1" opacity="0.42745098039215684" d="M 36.5 198 L 37 198.5 L 33.5 202 L 33 201.5 L 36.5 198 Z " /><path fill="rgb(0,0,0)" stroke="rgb(0,0,0)" stroke-width="1" opacity="0.42745098039215684" d="M 43.5 200 L 45 200.5 L 40.5 206 L 40 205.5 L 44 201.5 L 43.5 200 Z " /><path fill="rgb(0,0,0)" stroke="rgb(0,0,0)" stroke-width="1" opacity="0.42745098039215684" d="M 52.5 200 L 53 201.5 L 51 202.5 L 51.5 204 L 49.5 203 L 48.5 205 L 45 204.5 L 47.5 204 L 52.5 200 Z " /><path fill="rgb(0,0,0)" stroke="rgb(0,0,0)" stroke-width="1" opacity="0.42745098039215684" d="M 75.5 200 L 76 201.5 L 74.5 204 L 74 202.5 L 75.5 200 Z " /><path fill="rgb(0,0,0)" stroke="rgb(0,0,0)" stroke-width="1" opacity="0.42745098039215684" d="M 117.5 200 Q 120 201 118.5 202 Q 117.3 199.8 116 202.5 L 115.5 204 L 115 202.5 L 117.5 200 Z " /><path fill="rgb(0,0,0)" stroke="rgb(0,0,0)" stroke-width="1" opacity="0.42745098039215684" d="M 144.5 200 L 149 200.5 L 144.5 201 L 144.5 200 Z " /><path fill="rgb(0,0,0)" stroke="rgb(0,0,0)" stroke-width="1" opacity="0.42745098039215684" d="M 166.5 200 L 171 200.5 L 166.5 201 L 166.5 200 Z " /><path fill="rgb(0,0,0)" stroke="rgb(0,0,0)" stroke-width="1" opacity="0.42745098039215684" d="M 82.5 201 Q 85 202 83.5 203 L 82.5 202 L 81 202.5 L 82.5 201 Z " /><path fill="rgb(0,0,0)" stroke="rgb(0,0,0)" stroke-width="1" opacity="0.42745098039215684" d="M 108.5 201 L 109 202.5 L 107 203.5 Q 109.3 204.8 106.5 206 L 106 203.5 L 108.5 201 Z " /><path fill="rgb(0,0,0)" stroke="rgb(0,0,0)" stroke-width="1" opacity="0.42745098039215684" d="M 137.5 201 L 139 201.5 L 134.5 203 L 134.5 202 L 137.5 201 Z " /><path fill="rgb(0,0,0)" stroke="rgb(0,0,0)" stroke-width="1" opacity="0.42745098039215684" d="M 198.5 201 L 212 201.5 L 198.5 202 L 198.5 201 Z " /><path fill="rgb(0,0,0)" stroke="rgb(0,0,0)" stroke-width="1" opacity="0.42745098039215684" d="M 217.5 201 L 232 201.5 L 217.5 202 L 217.5 201 Z " /><path fill="rgb(0,0,0)" stroke="rgb(0,0,0)" stroke-width="1" opacity="0.42745098039215684" d="M 247.5 201 Q 253.7 199.8 256.5 202 L 257.5 201 L 266.5 201 L 269 202.5 L 264.5 203 Q 263.5 201 259.5 202 Q 258.3 204.3 253.5 203 Q 252.2 200.8 247.5 202 L 247.5 201 Z " /><path fill="rgb(0,0,0)" stroke="rgb(0,0,0)" stroke-width="1" opacity="0.42745098039215684" d="M 616.5 201 L 617 201.5 L 614.5 204 L 612.5 205 L 612 203.5 L 616.5 201 Z " /><path fill="rgb(0,0,0)" stroke="rgb(0,0,0)" stroke-width="1" opacity="0.42745098039215684" d="M 38.5 202 L 40 202.5 L 35.5 204 L 35.5 203 L 38.5 202 Z " /><path fill="rgb(0,0,0)" stroke="rgb(0,0,0)" stroke-width="1" opacity="0.42745098039215684" d="M 440.5 202 L 523 202.5 L 440.5 203 L 440.5 202 Z " /><path fill="rgb(0,0,0)" stroke="rgb(0,0,0)" stroke-width="1" opacity="0.42745098039215684" d="M 33.5 204 Q 36 205 34.5 206 L 32.5 206 L 29.5 209 L 29 208.5 L 33.5 204 Z " /><path fill="rgb(0,0,0)" stroke="rgb(0,0,0)" stroke-width="1" opacity="0.42745098039215684" d="M 67.5 204 L 67.5 207 L 66 207.5 L 65.5 210 L 64 209.5 L 67.5 204 Z " /><path fill="rgb(0,0,0)" stroke="rgb(0,0,0)" stroke-width="1" opacity="0.42745098039215684" d="M 80.5 204 L 81.5 205 L 83 204.5 L 81.5 206 Q 79 205 80.5 204 Z " /><path fill="rgb(0,0,0)" stroke="rgb(0,0,0)" stroke-width="1" opacity="0.42745098039215684" d="M 301.5 204 L 304 206.5 L 303.5 207 L 301 204.5 L 301.5 204 Z " /><path fill="rgb(0,0,0)" stroke="rgb(0,0,0)" stroke-width="1" opacity="0.42745098039215684" d="M 374.5 204 L 375 204.5 L 372.5 207 L 372 206.5 L 374.5 204 Z " /><path fill="rgb(0,0,0)" stroke="rgb(0,0,0)" stroke-width="1" opacity="0.42745098039215684" d="M 607.5 204 L 609 204.5 L 608.5 206 L 606.5 207 L 604 205.5 L 607.5 204 Z " /><path fill="rgb(0,0,0)" stroke="rgb(0,0,0)" stroke-width="1" opacity="0.42745098039215684" d="M 112.5 205 Q 115 206 113.5 207 L 112 206.5 L 112.5 205 Z " /><path fill="rgb(0,0,0)" stroke="rgb(0,0,0)" stroke-width="1" opacity="0.42745098039215684" d="M 43.5 206 L 46 206.5 L 44.5 208 L 43.5 207 L 42 207.5 L 43.5 206 Z " /><path fill="rgb(0,0,0)" stroke="rgb(0,0,0)" stroke-width="1" opacity="0.42745098039215684" d="M 75.5 207 Q 78 208 76.5 209 L 75 208.5 L 73.5 211 L 74 209.5 L 75.5 207 Z " /><path fill="rgb(0,0,0)" stroke="rgb(0,0,0)" stroke-width="1" opacity="0.42745098039215684" d="M 125.5 207 L 126 207.5 L 123.5 210 L 123 209.5 L 125.5 207 Z " /><path fill="rgb(0,0,0)" stroke="rgb(0,0,0)" stroke-width="1" opacity="0.42745098039215684" d="M 103.5 208 L 105 208.5 L 104.5 210 Q 102 209 103.5 208 Z " /><path fill="rgb(0,0,0)" stroke="rgb(0,0,0)" stroke-width="1" opacity="0.42745098039215684" d="M 596.5 208 L 599 208.5 L 596.5 209 L 596.5 208 Z " /><path fill="rgb(0,0,0)" stroke="rgb(0,0,0)" stroke-width="1" opacity="0.42745098039215684" d="M 37.5 211 L 38 213.5 L 36.5 214 L 37 212.5 L 37.5 211 Z " /><path fill="rgb(0,0,0)" stroke="rgb(0,0,0)" stroke-width="1" opacity="0.42745098039215684" d="M 587.5 211 Q 589 212 586.5 213 L 584 212.5 L 587.5 211 Z " /><path fill="rgb(0,0,0)" stroke="rgb(0,0,0)" stroke-width="1" opacity="0.42745098039215684" d="M 62.5 213 L 63 214.5 L 59.5 217 L 59 216.5 L 62.5 213 Z " /><path fill="rgb(0,0,0)" stroke="rgb(0,0,0)" stroke-width="1" opacity="0.42745098039215684" d="M 101.5 213 L 101 214.5 L 102 215.5 L 99 218.5 L 98.5 220 L 98 218.5 L 101 215.5 Q 98.8 214.3 101.5 213 Z " /><path fill="rgb(0,0,0)" stroke="rgb(0,0,0)" stroke-width="1" opacity="0.42745098039215684" d="M 582.5 213 Q 584 214 581.5 215 L 579 214.5 L 582.5 213 Z " /><path fill="rgb(0,0,0)" stroke="rgb(0,0,0)" stroke-width="1" opacity="0.42745098039215684" d="M 79.5 214 L 81 214.5 L 80.5 216 L 79 216.5 L 79 218.5 L 75.5 222 L 75 221.5 L 77 219.5 L 79.5 214 Z " /><path fill="rgb(0,0,0)" stroke="rgb(0,0,0)" stroke-width="1" opacity="0.42745098039215684" d="M 112.5 214 L 113 214.5 L 110.5 217 L 110 216.5 L 112.5 214 Z " /><path fill="rgb(0,0,0)" stroke="rgb(0,0,0)" stroke-width="1" opacity="0.42745098039215684" d="M 74.5 216 L 75 216.5 L 66.5 225 L 65 224.5 L 67.5 221 L 68.5 222 L 74.5 216 Z " /><path fill="rgb(0,0,0)" stroke="rgb(0,0,0)" stroke-width="1" opacity="0.42745098039215684" d="M 43.5 217 L 44 217.5 L 41.5 220 L 41 219.5 L 43.5 217 Z " /><path fill="rgb(0,0,0)" stroke="rgb(0,0,0)" stroke-width="1" opacity="0.42745098039215684" d="M 19.5 218 L 23 219.5 L 19.5 220 L 19.5 218 Z " /><path fill="rgb(0,0,0)" stroke="rgb(0,0,0)" stroke-width="1" opacity="0.42745098039215684" d="M 64.5 218 L 65 218.5 L 62.5 221 L 62 220.5 L 64.5 218 Z " /><path fill="rgb(0,0,0)" stroke="rgb(0,0,0)" stroke-width="1" opacity="0.42745098039215684" d="M 108.5 218 L 110 218.5 L 108.5 221 L 108.5 218 Z " /><path fill="rgb(0,0,0)" stroke="rgb(0,0,0)" stroke-width="1" opacity="0.42745098039215684" d="M 26.5 220 L 29 220.5 L 28.5 222 L 26 221.5 L 26.5 220 Z " /><path fill="rgb(0,0,0)" stroke="rgb(0,0,0)" stroke-width="1" opacity="0.42745098039215684" d="M 81.5 220 L 83 220.5 L 81.5 223 L 81.5 220 Z " /><path fill="rgb(0,0,0)" stroke="rgb(0,0,0)" stroke-width="1" opacity="0.42745098039215684" d="M 324.5 220 L 327 222.5 L 326.5 223 L 324 220.5 L 324.5 220 Z " /><path fill="rgb(0,0,0)" stroke="rgb(0,0,0)" stroke-width="1" opacity="0.42745098039215684" d="M 55.5 222 L 59 223.5 L 55.5 224 L 55.5 222 Z " /><path fill="rgb(0,0,0)" stroke="rgb(0,0,0)" stroke-width="1" opacity="0.42745098039215684" d="M 29.5 224 L 34 224.5 L 29.5 225 L 29.5 224 Z " /><path fill="rgb(0,0,0)" stroke="rgb(0,0,0)" stroke-width="1" opacity="0.42745098039215684" d="M 95.5 224 L 97 224.5 Q 96 227 95 225.5 L 95.5 224 Z " /><path fill="rgb(0,0,0)" stroke="rgb(0,0,0)" stroke-width="1" opacity="0.42745098039215684" d="M 42.5 225 L 48 225.5 L 42.5 226 L 42.5 225 Z " /><path fill="rgb(0,0,0)" stroke="rgb(0,0,0)" stroke-width="1" opacity="0.42745098039215684" d="M 58.5 226 L 64 226.5 L 58.5 227 L 58.5 226 Z " /><path fill="rgb(0,0,0)" stroke="rgb(0,0,0)" stroke-width="1" opacity="0.42745098039215684" d="M 69.5 227 L 77 227.5 L 69.5 228 L 69.5 227 Z " /><path fill="rgb(0,0,0)" stroke="rgb(0,0,0)" stroke-width="1" opacity="0.42745098039215684" d="M 331.5 227 L 334 229.5 L 333.5 230 L 331 227.5 L 331.5 227 Z " /><path fill="rgb(0,0,0)" stroke="rgb(0,0,0)" stroke-width="1" opacity="0.42745098039215684" d="M 84.5 228 L 87 228.5 L 84.5 229 L 84.5 228 Z " /><path fill="rgb(0,0,0)" stroke="rgb(0,0,0)" stroke-width="1" opacity="0.42745098039215684" d="M 101.5 228 L 105 228.5 L 101.5 229 L 101.5 228 Z " /><path fill="rgb(176,54,56)" stroke="rgb(176,54,56)" stroke-width="1" opacity="0.9921568627450981" d="M 381.5 186 Q 383.8 186.8 383 190.5 L 382 190.5 Q 380.3 188.8 381.5 186 Z " /><path fill="rgb(176,54,56)" stroke="rgb(176,54,56)" stroke-width="1" opacity="0.9921568627450981" d="M 380.5 192 L 382 192.5 L 381.5 194 Q 379 193 380.5 192 Z " /><path fill="rgb(176,54,56)" stroke="rgb(176,54,56)" stroke-width="1" opacity="0.9921568627450981" d="M 351.5 217 L 352 217.5 L 348.5 221 L 348 220.5 L 351.5 217 Z " /><path fill="rgb(176,54,56)" stroke="rgb(176,54,56)" stroke-width="1" opacity="0.9921568627450981" d="M 346.5 222 L 347 222.5 L 342.5 227 L 342 226.5 L 346.5 222 Z " /><path fill="rgb(120,9,13)" stroke="rgb(120,9,13)" stroke-width="1" opacity="0.0392156862745098" d="M 358.5 155 L 361 155.5 L 358.5 156 L 358.5 155 Z " /><path fill="rgb(120,9,13)" stroke="rgb(120,9,13)" stroke-width="1" opacity="0.0392156862745098" d="M 379.5 201 L 380 201.5 L 375.5 206 L 375 205.5 L 379.5 201 Z " /></svg>