<svg viewBox="0 0 640 640" version="1.1" xmlns="http://www.w3.org/2000/svg" desc="Created with imagetracer.js version 1.2.6" ><path fill="rgb(0,0,0)" stroke="rgb(0,0,0)" stroke-width="1" opacity="0.9921568627450981" d="M 316.5 38 L 329.5 38 Q 330.3 39.8 333.5 39 L 338.5 41 L 345 46.5 L 346 48.5 L 346 66.5 Q 348.3 67.8 347 72.5 Q 345 73.5 347 74.5 L 346 77.5 L 347 78.5 L 347 143.5 L 348 144.5 L 348 186.5 L 349 188.5 L 348 189.5 L 348 197.5 L 349 198.5 L 349 250.5 L 350 251.5 L 350 279.5 L 351 280.5 L 351 315.5 L 352 316.5 L 352 340.5 Q 353.8 341.3 353 344.5 L 355.5 348 L 362 352.5 L 364 357.5 L 364 362.5 L 363 363.5 L 362 372.5 L 364 375.5 L 364 389.5 L 363 390.5 L 362 396.5 L 356 409.5 L 356 415.5 L 359 421.5 L 359 423.5 L 362 427.5 L 362 431.5 L 357.5 438 L 354 440.5 Q 351.8 443.3 353 449.5 L 352 450.5 L 352 461.5 L 353 464.5 L 358.5 470 L 363.5 469 L 368.5 471 L 381.5 472 L 382.5 473 L 385.5 473 L 394.5 476 Q 410.1 482.4 420 494.5 L 424 500.5 L 430 514.5 L 431 522.5 L 432 523.5 L 432 542.5 L 431 543.5 L 431 548.5 L 429 554.5 L 424 565.5 L 418 573.5 L 408.5 583 L 392.5 593 L 390.5 593 L 381.5 597 L 377.5 597 L 372.5 599 Q 367.8 597.8 366.5 600 L 356.5 600 L 355.5 601 L 339.5 601 L 338.5 602 L 317.5 602 L 316.5 603 L 296.5 603 L 294.5 604 L 293.5 603 L 281.5 603 L 280.5 602 L 276.5 602 L 275.5 601 L 265.5 599 L 249.5 590 L 240 580.5 L 236 574.5 L 230 560.5 L 229 551.5 L 228 550.5 L 228 543.5 L 227 542.5 L 227 530.5 L 228 529.5 L 228 523.5 L 230 517.5 L 234 510.5 L 234 508.5 L 240 499.5 L 247.5 492 Q 256.2 484.7 267.5 480 L 273.5 478 L 276.5 478 L 277.5 477 L 281.5 477 L 282.5 476 L 295.5 475 L 298.5 473 L 307 471.5 L 308 468.5 L 308 452.5 Q 306 451.5 308 450.5 L 306 441.5 L 298 432.5 L 298 427.5 L 303 418.5 L 303 410.5 L 299 402.5 L 296 393.5 L 296 390.5 L 295 389.5 L 295 375.5 L 297 370.5 L 294 365.5 L 294 354.5 L 297.5 350 L 304 346.5 L 304 339.5 L 305 338.5 L 304 337.5 L 304 293.5 L 303 292.5 L 303 215.5 L 302 214.5 L 302 165.5 L 300.5 164 L 298.5 163 L 286.5 163 L 280.5 166 L 259.5 167 L 258.5 168 L 240.5 169 L 239.5 170 L 227.5 170 L 221.5 168 L 217 164.5 L 215 160.5 L 215 101.5 L 214 99.5 Q 216.3 98.3 215 93.5 L 217.5 90 L 220.5 88 L 227.5 88 L 237.5 92 L 257.5 92 Q 258.8 89.8 263.5 91 L 265 89.5 L 266.5 86 L 270.5 84 L 289.5 84 L 290.5 83 L 298.5 82 L 300 80.5 L 301 77.5 L 301 48.5 L 306.5 42 L 316.5 38 Z M 362 503 L 361 504 L 355 504 Q 354 506 351 505 L 337 510 L 332 510 L 329 511 L 327 510 L 316 509 L 315 508 L 310 508 L 309 507 L 292 507 L 291 508 L 285 508 L 284 509 L 278 510 L 272 514 L 261 526 L 258 535 L 258 543 L 257 544 L 258 545 L 258 552 L 260 558 L 264 565 L 269 569 L 278 575 L 287 578 L 303 578 L 312 575 L 315 575 L 319 573 L 326 572 L 327 571 L 334 571 Q 335 573 339 572 L 343 574 L 351 575 L 352 576 L 368 576 Q 368 574 372 575 L 388 567 L 396 558 L 399 552 L 401 546 L 401 542 L 402 541 L 402 531 Q 400 529 401 526 L 396 516 L 392 511 L 381 505 L 374 504 L 373 503 L 362 503 Z " /><path fill="rgb(0,0,0)" stroke="rgb(0,0,0)" stroke-width="1" opacity="0" d="M 0.5 0 L 640 0.5 L 639.5 640 L 0 639.5 L 0.5 0 Z M 317 38 L 307 42 L 301 49 L 301 78 L 300 81 L 299 82 L 291 83 L 290 84 L 271 84 L 267 86 L 265 90 L 264 91 Q 259 90 258 92 L 238 92 L 228 88 L 221 88 L 218 90 L 215 94 Q 216 98 214 100 L 215 102 L 215 161 L 217 165 L 222 168 L 228 170 L 240 170 L 241 169 L 259 168 L 260 167 L 281 166 L 287 163 L 299 163 L 301 164 L 302 166 L 302 215 L 303 216 L 303 293 L 304 294 L 304 338 L 305 339 L 304 340 L 304 347 L 298 350 L 294 355 L 294 366 L 297 371 L 295 376 L 295 390 L 296 391 L 296 394 L 299 403 L 303 411 L 303 419 L 298 428 L 298 433 L 306 442 L 308 451 Q 306 452 308 453 L 308 469 L 307 472 L 299 473 L 296 475 L 283 476 L 282 477 L 278 477 L 277 478 L 274 478 L 268 480 Q 256 485 248 492 L 240 500 L 234 509 L 234 511 L 230 518 L 228 524 L 228 530 L 227 531 L 227 543 L 228 544 L 228 551 L 229 552 L 230 561 L 236 575 L 240 581 L 250 590 L 266 599 L 276 601 L 277 602 L 281 602 L 282 603 L 294 603 L 295 604 L 297 603 L 317 603 L 318 602 L 339 602 L 340 601 L 356 601 L 357 600 L 367 600 Q 368 598 373 599 L 378 597 L 382 597 L 391 593 L 393 593 L 409 583 L 418 574 L 424 566 L 429 555 L 431 549 L 431 544 L 432 543 L 432 524 L 431 523 L 430 515 L 424 501 L 420 495 Q 410 482 395 476 L 386 473 L 383 473 L 382 472 L 369 471 L 364 469 L 359 470 L 353 465 L 352 462 L 352 451 L 353 450 Q 352 443 354 441 L 358 438 L 362 432 L 362 428 L 359 424 L 359 422 L 356 416 L 356 410 L 362 397 L 363 391 L 364 390 L 364 376 L 362 373 L 363 364 L 364 363 L 364 358 L 362 353 L 356 348 L 353 345 Q 354 341 352 341 L 352 317 L 351 316 L 351 281 L 350 280 L 350 252 L 349 251 L 349 199 L 348 198 L 348 190 L 349 189 L 348 187 L 348 145 L 347 144 L 347 79 L 346 78 L 347 75 Q 345 74 347 73 Q 348 68 346 67 L 346 49 L 345 47 L 339 41 L 334 39 Q 330 40 330 38 L 317 38 Z " /><path fill="rgb(0,0,0)" stroke="rgb(0,0,0)" stroke-width="1" opacity="0" d="M 361.5 503 L 372.5 503 L 373.5 504 L 380.5 505 L 391.5 511 L 396 515.5 L 401 525.5 Q 400 529.5 402 530.5 L 402 540.5 L 401 541.5 L 401 545.5 L 399 551.5 L 396 557.5 L 387.5 567 L 371.5 575 Q 368.3 574.3 367.5 576 L 351.5 576 L 350.5 575 L 342.5 574 L 338.5 572 Q 334.5 573 333.5 571 L 326.5 571 L 325.5 572 L 318.5 573 L 314.5 575 L 311.5 575 L 302.5 578 L 286.5 578 L 277.5 575 L 268.5 569 L 264 564.5 L 260 557.5 L 258 551.5 L 258 544.5 L 257 543.5 L 258 542.5 L 258 534.5 L 261 525.5 L 271.5 514 L 277.5 510 L 283.5 509 L 284.5 508 L 290.5 508 L 291.5 507 L 308.5 507 L 309.5 508 L 314.5 508 L 315.5 509 L 326.5 510 L 328.5 511 L 331.5 510 L 336.5 510 L 350.5 505 Q 353.8 505.8 354.5 504 L 360.5 504 L 361.5 503 Z " /></svg>