<svg viewBox="0 0 402 640" version="1.1" xmlns="http://www.w3.org/2000/svg" desc="Created with imagetracer.js version 1.2.6" ><path fill="rgb(0,0,0)" stroke="rgb(0,0,0)" stroke-width="1" opacity="0.03137254901960784" d="M 0.5 0 L 300 0.5 L 293.5 1 L 292.5 2 Q 291.5 0 290.5 2 L 258.5 2 L 257.5 3 L 239.5 3 L 238.5 4 L 223.5 4 L 222.5 5 L 208.5 5 L 207.5 6 L 194.5 6 Q 193.8 7.8 190.5 7 L 188.5 6 L 185 8.5 L 184 10.5 L 189.5 17 L 197 18.5 L 195 24.5 L 195 27.5 L 186 52.5 L 186 55.5 L 174 89.5 L 174 92.5 L 171 99.5 L 171 102.5 L 169 106.5 L 169 109.5 L 168 110.5 L 168 113.5 L 165 122.5 L 163 125.5 L 157 143.5 L 155 146.5 L 154 151.5 L 152 154.5 L 139 194.5 L 137 197.5 L 131 215.5 L 131 218.5 L 116 261.5 L 116 264.5 L 112 276.5 L 110 279.5 L 96 321.5 L 96 324.5 L 86 352.5 L 86 355.5 L 77 382.5 L 75 385.5 L 64 420.5 L 62 423.5 L 50 460.5 L 48 463.5 L 31 514.5 L 29 517.5 L 24 534.5 L 22 537.5 L 0.5 602 L 0.5 0 Z " /><path fill="rgb(0,0,0)" stroke="rgb(0,0,0)" stroke-width="1" opacity="0.03137254901960784" d="M 312.5 0 L 402 0.5 L 401.5 600 L 400 596.5 L 400 591.5 L 399 590.5 L 399 585.5 L 398 584.5 L 398 579.5 L 397 578.5 L 397 573.5 L 396 572.5 L 396 567.5 L 395 566.5 L 395 561.5 L 394 560.5 L 394 555.5 L 393 554.5 L 393 549.5 L 392 548.5 L 391 537.5 L 390 536.5 L 390 530.5 L 389 529.5 L 389 524.5 L 388 523.5 L 388 518.5 L 387 517.5 Q 388.2 512.8 386 511.5 L 386 506.5 L 385 505.5 L 384 494.5 L 383 493.5 L 383 487.5 L 382 486.5 L 382 481.5 L 381 480.5 L 381 475.5 L 380 474.5 L 380 469.5 L 379 468.5 Q 380.3 463.7 378 462.5 L 378 456.5 L 377 455.5 L 377 450.5 L 376 449.5 L 376 444.5 L 375 443.5 L 375 438.5 L 374 437.5 Q 375.2 432.8 373 431.5 L 373 425.5 L 372 424.5 L 372 419.5 L 371 418.5 L 371 413.5 L 370 412.5 L 370 407.5 L 369 406.5 Q 370.3 401.8 368 400.5 L 368 394.5 L 367 393.5 L 367 388.5 L 366 387.5 L 366 382.5 L 365 381.5 L 365 376.5 L 364 375.5 Q 365.2 370.8 363 369.5 L 363 363.5 L 362 362.5 L 362 357.5 L 361 356.5 L 361 351.5 L 360 350.5 L 360 345.5 L 359 344.5 Q 360.3 339.7 358 338.5 L 358 332.5 L 357 331.5 L 357 326.5 L 356 325.5 L 356 320.5 L 355 319.5 L 355 314.5 L 354 313.5 L 354 308.5 L 353 307.5 L 353 302.5 L 352 301.5 Q 353.2 296.8 351 295.5 L 351 289.5 L 350 288.5 L 350 283.5 L 349 282.5 L 349 277.5 L 348 276.5 L 348 271.5 L 347 270.5 L 347 265.5 L 346 264.5 L 346 259.5 L 345 258.5 L 345 253.5 L 344 252.5 L 344 247.5 L 343 246.5 L 343 241.5 L 342 240.5 L 342 235.5 L 341 234.5 L 341 229.5 L 340 228.5 L 340 223.5 L 339 222.5 Q 340.3 217.8 338 216.5 L 338 206.5 L 337 205.5 L 336 195.5 L 335 194.5 L 335 189.5 L 334 188.5 L 334 182.5 L 333 181.5 L 333 175.5 L 332 174.5 L 332 168.5 L 331 167.5 L 331 161.5 L 330 160.5 L 330 153.5 L 329 152.5 L 329 146.5 L 328 145.5 L 328 139.5 L 327 138.5 L 326 127.5 L 337.5 127 L 338.5 128 L 350.5 128 Q 355.5 125.5 354 116.5 L 352.5 115 L 345.5 114 L 344.5 113 L 323.5 113 L 322 111.5 L 321 102.5 L 320 101.5 L 320 96.5 L 319 95.5 L 319 90.5 L 318 89.5 L 318 83.5 L 317 82.5 L 317 76.5 L 316 75.5 L 316 69.5 L 315 68.5 L 315 62.5 L 314 61.5 L 314 55.5 L 313 54.5 L 312 43.5 L 311 42.5 L 311 38.5 L 310 37.5 Q 310.7 33.3 309 31.5 L 311 27.5 L 311.5 14 L 321.5 14 L 325 10.5 L 326 6.5 L 324.5 3 L 321.5 3 L 316.5 1 L 312.5 1 L 312.5 0 Z " /><path fill="rgb(0,0,0)" stroke="rgb(0,0,0)" stroke-width="1" opacity="0.03137254901960784" d="M 305.5 3 Q 308.3 5.2 314.5 4 L 322 6.5 L 321.5 9 L 311.5 9 L 310.5 8 L 300.5 7 L 299 5.5 L 299.5 4 Q 304.3 5.3 305.5 3 Z " /><path fill="rgb(0,0,0)" stroke="rgb(0,0,0)" stroke-width="1" opacity="0.03137254901960784" d="M 286.5 4 L 296 4.5 L 295.5 7 L 282.5 7 L 278.5 9 L 259.5 9 L 258.5 10 L 213.5 10 L 212.5 11 L 192.5 12 Q 189.5 10.5 192.5 9 L 206.5 9 L 207.5 8 L 221.5 8 L 222.5 7 L 237.5 7 L 238.5 6 L 255.5 6 L 256.5 5 L 285.5 5 L 286.5 4 Z " /><path fill="rgb(0,0,0)" stroke="rgb(0,0,0)" stroke-width="1" opacity="0.03137254901960784" d="M 281.5 11 L 284 11.5 L 283 21.5 Q 285 22.5 283 23.5 L 283 27.5 L 281 32.5 L 281 36.5 L 280 37.5 L 280 41.5 L 278 47.5 L 278 51.5 L 276 56.5 L 275 65.5 L 274 66.5 L 272 80.5 L 270 85.5 L 270 89.5 L 269 90.5 L 269 94.5 L 268 95.5 L 268 99.5 L 267 100.5 L 267 104.5 L 266 105.5 L 266 109.5 L 265 110.5 L 265 114.5 L 264 115.5 L 264 119.5 L 262 125.5 L 262 130.5 L 261 131.5 L 260 140.5 L 259 141.5 L 259 146.5 L 258 147.5 L 258 152.5 L 256 158.5 L 256 163.5 L 255 164.5 Q 256.2 169.2 254 170.5 L 254 176.5 L 253 177.5 Q 254.2 182.3 252 183.5 L 251 195.5 L 249 198.5 L 247 204.5 L 247 207.5 L 246 208.5 L 244 226.5 L 243 227.5 L 243 231.5 L 242 232.5 L 242 236.5 L 240 242.5 L 240 247.5 L 239 248.5 L 238 257.5 L 237 258.5 L 237 262.5 L 236 263.5 L 236 267.5 L 235 268.5 L 235 272.5 L 234 273.5 L 234 277.5 L 233 278.5 L 233 282.5 L 232 283.5 L 232 287.5 L 231 288.5 L 231 292.5 L 230 293.5 L 230 297.5 L 229 298.5 L 229 302.5 L 227 308.5 L 227 313.5 L 225 319.5 L 224 329.5 L 223 330.5 Q 224.5 333.5 226 330.5 L 226 326.5 L 228 320.5 L 228 315.5 L 229 314.5 L 229 310.5 L 231 304.5 L 231 299.5 L 232 298.5 L 232 294.5 L 233 293.5 L 233 289.5 L 234 288.5 L 234 284.5 L 235 283.5 L 235 279.5 L 236 278.5 L 236 274.5 L 237 273.5 L 237 269.5 L 238 268.5 L 238 264.5 L 239 263.5 L 239 259.5 L 240 258.5 L 240 254.5 L 241 253.5 L 241 249.5 L 242 248.5 L 242 244.5 L 243 243.5 L 245 229.5 L 246 228.5 L 248 210.5 L 252.5 197 Q 255.5 196.5 256 198.5 L 254.5 203 L 252 204.5 L 251 207.5 L 251 222.5 L 250 223.5 L 249 235.5 L 248 236.5 L 247 246.5 L 245 252.5 L 245 257.5 L 244 258.5 L 244 262.5 L 243 263.5 L 243 267.5 L 242 268.5 L 242 272.5 L 240 278.5 L 240 283.5 L 238 289.5 L 238 294.5 L 237 295.5 L 236 306.5 L 231 312.5 L 231 319.5 L 232 320.5 L 232 326.5 L 231 327.5 L 230 337.5 L 229 338.5 L 229 342.5 L 227 348.5 L 227 353.5 L 225 359.5 L 225 364.5 L 224 365.5 L 224 369.5 L 222 375.5 L 222 380.5 L 221 381.5 L 220 391.5 L 218 397.5 L 217 408.5 L 216 409.5 L 216 413.5 L 214.5 417 L 211 419.5 L 212 434.5 L 210 440.5 L 210 445.5 L 209 446.5 L 209 450.5 L 207 456.5 L 207 461.5 L 206 462.5 L 206 466.5 L 205 467.5 L 205 471.5 L 204 472.5 L 204 476.5 L 203 477.5 L 203 481.5 L 202 482.5 L 200 496.5 L 194 508.5 L 191 511.5 L 192.5 514 L 196 515.5 L 193 527.5 L 189 532.5 L 189 538.5 Q 190 541 194.5 540 L 197 536.5 L 197 533.5 L 194 530.5 L 195 529.5 L 195 527.5 L 197 524.5 L 198 517.5 L 202 511.5 L 202 495.5 L 203 494.5 L 203 490.5 L 204 489.5 L 204 485.5 L 205 484.5 L 205 480.5 L 207 474.5 L 207 469.5 L 208 468.5 L 208 464.5 L 209 463.5 L 209 459.5 L 210 458.5 L 210 454.5 L 212 448.5 L 212 443.5 L 214 437.5 L 214 432.5 Q 217.2 430.8 218 426.5 Q 214 424.5 218 422.5 L 218 412.5 L 219 411.5 L 220 400.5 L 222 394.5 L 222 389.5 L 224 383.5 L 224 378.5 L 226 372.5 L 226 367.5 L 227 366.5 L 227 362.5 L 229 356.5 L 229 351.5 L 230 350.5 L 230 346.5 L 232 340.5 L 232 335.5 L 234 329.5 L 234 324.5 L 235.5 321 L 238 320.5 L 239 318.5 L 239 309.5 L 238 306.5 L 239 305.5 L 239 300.5 L 240 299.5 L 240 294.5 L 242 288.5 L 242 283.5 L 243 282.5 L 243 278.5 L 245 272.5 L 245 267.5 L 246 266.5 L 246 262.5 L 247 261.5 L 248 252.5 L 249 251.5 L 249 246.5 L 251 240.5 L 251 235.5 L 252 234.5 L 252 229.5 L 253 228.5 L 253 222.5 L 254 221.5 L 254.5 216 Q 258.5 216.5 259 213.5 L 258 196.5 L 260 191.5 L 260 187.5 L 261 186.5 L 261 182.5 L 262 181.5 L 262 177.5 L 263 176.5 L 263 172.5 L 265 166.5 L 265 161.5 L 267 155.5 L 267 150.5 L 268 149.5 L 268 145.5 L 270 139.5 L 270 134.5 L 272 128.5 L 273 119.5 L 278 112.5 L 278 105.5 Q 275.7 104.2 277 99.5 Q 279 98.5 278 94.5 Q 276.5 91.5 275 94.5 L 275 98.5 L 273.5 103 L 271 104.5 L 270 109.5 L 271 110.5 L 271 119.5 L 269 124.5 L 269 129.5 L 268 130.5 L 268 134.5 L 267 135.5 L 267 139.5 L 265 145.5 L 265 150.5 L 263 156.5 L 263 161.5 L 262 162.5 L 262 166.5 L 261 167.5 L 261 171.5 L 260 172.5 L 260 176.5 L 259 177.5 L 257 191.5 L 254.5 196 Q 251.8 194.8 254 193.5 L 254 187.5 L 255 186.5 L 255 180.5 L 256 179.5 L 256 174.5 L 257 173.5 L 257 168.5 L 258 167.5 L 258 161.5 L 260 155.5 L 261 144.5 L 262 143.5 L 262 139.5 L 264 133.5 L 264 128.5 L 265 127.5 L 265 123.5 L 266 122.5 L 266 118.5 L 267 117.5 L 267 113.5 L 268 112.5 L 268 108.5 L 269 107.5 L 269 103.5 L 270 102.5 L 270 98.5 L 271 97.5 L 271 93.5 L 272 92.5 L 272 88.5 L 273 87.5 L 274 78.5 L 276 73.5 L 276 69.5 L 277 68.5 L 277 64.5 L 278 63.5 L 278 59.5 L 279 58.5 L 279 54.5 L 281 49.5 L 281 45.5 L 282 44.5 L 282 40.5 L 283 39.5 L 283 35.5 L 284 34.5 L 284 30.5 L 285 29.5 L 285.5 25 L 291.5 30 L 294 30.5 L 293 35.5 L 294 37.5 L 293 38.5 L 293 41.5 L 290 50.5 L 290 54.5 L 289 55.5 L 289 59.5 L 287 65.5 L 287 70.5 L 285 76.5 L 285 81.5 L 284 82.5 L 284 87.5 L 283 88.5 L 283 94.5 L 282 95.5 Q 283.3 100.3 281 101.5 L 281 107.5 L 278 115.5 L 277 127.5 L 276 128.5 L 276 132.5 L 273 141.5 L 273 145.5 L 272 146.5 L 272 150.5 L 271 151.5 L 271 155.5 L 270 156.5 L 270 160.5 L 268 166.5 L 268 171.5 L 267 172.5 L 266 182.5 L 265 183.5 L 265 188.5 L 264 189.5 L 264 194.5 L 263 195.5 L 263 201.5 L 261 205.5 L 261 212.5 L 258 221.5 L 258 230.5 L 257 231.5 L 257 235.5 L 256 236.5 L 256 240.5 L 255 241.5 L 253 255.5 L 251 260.5 L 251 264.5 L 250 265.5 L 250 269.5 L 249 270.5 L 249 274.5 L 248 275.5 L 248 279.5 L 247 280.5 L 247 284.5 L 245 290.5 L 245 295.5 L 244 296.5 L 244 301.5 L 243 302.5 L 243 307.5 L 242 308.5 Q 243.2 313.3 241 314.5 L 241 320.5 L 240 321.5 L 240 327.5 L 237 334.5 L 236 344.5 L 235 345.5 L 234 355.5 L 233 356.5 L 232 366.5 L 231 367.5 L 231 372.5 L 230 373.5 L 230 378.5 L 229 379.5 L 229 383.5 L 228 384.5 L 227 392.5 L 225 397.5 L 225 401.5 L 223 406.5 L 223 410.5 L 222 411.5 L 222 415.5 L 221 416.5 L 221 420.5 L 220 421.5 L 220 425.5 L 219 426.5 L 219 430.5 L 218 431.5 L 218 435.5 L 217 436.5 L 217 440.5 L 215 446.5 L 215 451.5 L 214 452.5 L 214 456.5 L 212 462.5 L 212 467.5 L 211 468.5 L 211 472.5 L 209 478.5 L 209 483.5 L 207 489.5 L 207 494.5 L 205 500.5 L 205 505.5 L 204 506.5 L 204 510.5 L 202 516.5 L 202 521.5 L 201 522.5 L 199 536.5 L 198 537.5 L 198 542.5 L 197 543.5 L 197 547.5 L 196 548.5 L 194 562.5 L 192 567.5 L 190 581.5 L 188 586.5 L 186 600.5 L 184 605.5 L 184 609.5 L 183 610.5 L 183 614.5 L 182 615.5 L 182 619.5 L 181 620.5 L 179 634.5 L 177.5 637 L 170.5 637 L 169.5 636 L 159 635.5 Q 160.7 633.7 160 629.5 L 161 628.5 L 161 624.5 L 162 623.5 L 162 618.5 L 163 617.5 L 163 612.5 L 164 611.5 L 164 607.5 L 165 606.5 L 165 602.5 L 166 601.5 L 168 587.5 L 170 582.5 L 170 578.5 L 171 577.5 L 171 573.5 L 172 572.5 L 172 568.5 L 173 567.5 L 173 563.5 L 175 557.5 L 175 552.5 L 176 551.5 Q 174.8 546.8 177 545.5 L 177 538.5 L 180 531.5 L 181 520.5 L 183 515.5 L 183 511.5 L 184 510.5 L 184 507.5 L 186 502.5 L 186 498.5 L 188 493.5 L 188 489.5 L 189 488.5 L 189 484.5 L 190 483.5 L 190 479.5 L 192 474.5 L 192 469.5 L 193 468.5 L 193 464.5 L 195 458.5 L 195 453.5 L 197 447.5 L 197 442.5 L 198 441.5 L 198 436.5 L 199 435.5 L 199 429.5 L 202 420.5 L 202 414.5 L 205 405.5 L 205 401.5 L 206 400.5 L 206 396.5 L 207 395.5 L 207 391.5 L 208 390.5 L 208 386.5 L 209 385.5 L 209 381.5 L 210 380.5 L 210 376.5 L 212 370.5 L 212 365.5 L 213 364.5 L 213 360.5 L 215 354.5 L 215 349.5 L 216 348.5 L 217 338.5 L 218 337.5 L 218 333.5 L 220 327.5 L 220 322.5 L 221 321.5 L 221 317.5 L 223 312.5 L 223 307.5 L 225 303.5 L 226 295.5 L 227 294.5 L 228 281.5 L 229 280.5 L 229 274.5 L 232 267.5 Q 231.3 264.2 233 263.5 L 233 255.5 L 235 253.5 Q 234 249.5 236 248.5 L 236 243.5 L 237 242.5 L 237 238.5 L 239 232.5 L 239 222.5 L 242 216.5 L 242 210.5 L 243 209.5 Q 241 208.5 243 207.5 L 244 201.5 L 245 200.5 L 245 196.5 L 246 195.5 L 246 189.5 L 247 186.5 Q 245 185.5 247 184.5 L 249 179.5 L 250 166.5 L 253 159.5 L 253 155.5 L 254 154.5 L 254 150.5 L 256 144.5 L 257 132.5 L 259 127.5 L 260 118.5 L 262 114.5 L 262 107.5 L 263 106.5 L 264 96.5 L 266 91.5 L 266 87.5 L 268 82.5 L 268 78.5 L 269 77.5 L 269 73.5 L 270 72.5 L 272 58.5 L 273 57.5 L 273 52.5 L 275 46.5 L 275 41.5 L 276 40.5 L 276 35.5 L 277 34.5 L 277 29.5 L 278 28.5 L 279 17.5 L 281 15.5 L 281.5 11 Z M 223 339 L 221 342 L 220 350 L 219 351 L 220 356 L 221 355 L 222 346 L 224 340 L 223 339 Z M 219 362 L 216 367 L 214 381 L 216 381 L 217 378 L 217 372 L 219 367 L 219 362 Z M 213 386 L 211 390 L 211 395 L 209 401 L 209 406 L 207 412 L 207 416 L 206 417 L 206 422 L 204 428 L 204 432 L 203 433 L 203 437 L 202 438 L 202 443 L 200 449 L 200 453 L 199 454 L 199 458 L 198 459 L 198 463 L 197 464 L 197 468 L 196 469 L 196 473 L 195 474 L 195 478 L 194 479 L 194 483 L 193 484 L 193 488 L 192 489 L 192 493 L 191 494 L 191 498 L 189 503 L 187 517 L 186 518 L 188 520 L 190 513 L 192 499 L 193 498 L 193 494 L 194 493 L 194 489 L 195 488 L 195 484 L 197 479 L 199 465 L 200 464 L 200 459 L 202 453 L 202 449 L 203 448 L 203 444 L 204 443 L 204 439 L 205 438 L 205 434 L 206 433 L 206 428 L 208 422 L 208 418 L 209 417 L 209 413 L 210 412 L 210 407 L 212 401 L 212 396 L 213 395 L 214 387 L 213 386 Z M 186 524 L 184 526 Q 185 529 183 530 L 181 544 L 180 545 L 180 549 L 179 550 L 179 554 L 178 555 L 178 559 L 177 560 L 177 564 L 176 565 L 176 570 L 174 576 L 174 580 L 173 581 L 173 585 L 172 586 L 172 590 L 171 591 L 171 595 L 170 596 L 170 600 L 169 601 L 169 605 L 168 606 L 168 610 L 167 611 L 167 615 L 166 616 Q 166 619 168 619 L 169 618 L 170 611 L 171 610 L 173 596 L 174 595 L 174 591 L 175 590 L 175 585 L 177 579 L 177 575 L 178 574 L 178 570 L 179 569 L 179 565 L 180 564 L 180 560 L 181 559 L 181 555 L 182 554 L 182 549 L 184 543 L 184 539 L 185 538 L 185 534 L 186 533 L 186 529 L 187 528 Q 188 525 186 524 Z " /><path fill="rgb(0,0,0)" stroke="rgb(0,0,0)" stroke-width="1" opacity="0.03137254901960784" d="M 202.5 16 Q 204.5 16.5 204 19.5 L 201 23.5 L 201 28.5 L 188 65.5 L 188 68.5 L 184 78.5 L 184 81.5 L 181 88.5 L 179 98.5 L 176 103.5 L 175 109.5 L 171.5 117 L 170 116.5 L 175 101.5 L 175 98.5 L 177 94.5 L 177 91.5 L 198 29.5 L 198 26.5 L 201 17.5 L 202.5 16 Z " /><path fill="rgb(0,0,0)" stroke="rgb(0,0,0)" stroke-width="1" opacity="0.03137254901960784" d="M 273.5 16 Q 276.5 15.5 277 17.5 L 276 18.5 L 276 23.5 L 275 24.5 L 275 29.5 L 274 30.5 L 274 35.5 L 273 36.5 Q 274.3 41.2 272 42.5 L 272 47.5 L 270 53.5 L 270 58.5 L 268 64.5 L 268 68.5 L 267 69.5 L 265 83.5 L 263 88.5 L 262 96.5 L 260.5 98 Q 257.3 97.2 256.5 99 L 232.5 99 L 232 69.5 L 231 68.5 L 231 53.5 L 230 52.5 L 230 35.5 L 231 34.5 Q 230 30.5 232 29.5 L 232 22.5 L 233.5 19 L 252.5 19 L 253.5 18 L 264.5 18 L 265.5 17 L 272.5 17 L 273.5 16 Z " /><path fill="rgb(0,0,0)" stroke="rgb(0,0,0)" stroke-width="1" opacity="0.03137254901960784" d="M 203.5 29 L 208.5 35 L 212 37.5 L 199 75.5 L 199 78.5 L 196 85.5 L 196 88.5 L 194 92.5 L 193 99.5 L 191.5 101 L 188 100.5 L 190 89.5 L 188.5 89 L 184.5 101 L 181.5 102 L 181 97.5 L 184 90.5 L 184 87.5 L 190 70.5 L 190 67.5 L 203.5 29 Z " /><path fill="rgb(0,0,0)" stroke="rgb(0,0,0)" stroke-width="1" opacity="0.03137254901960784" d="M 302.5 33 L 307 33.5 L 307 37.5 L 309 43.5 L 309 48.5 L 310 49.5 L 310 54.5 L 311 55.5 L 311 61.5 L 312 62.5 L 312 68.5 L 313 69.5 L 313 75.5 L 314 76.5 L 315 89.5 L 316 90.5 L 317 101.5 L 318 102.5 L 318 107.5 L 319 108.5 Q 318.3 112.7 320 114.5 L 317 116.5 L 317.5 120 L 321 121.5 L 322 131.5 L 323 132.5 L 323 137.5 L 324 138.5 L 324 144.5 L 325 145.5 L 325 151.5 L 326 152.5 L 326 158.5 L 327 159.5 L 327 166.5 L 328 167.5 L 328 173.5 L 329 174.5 L 330 187.5 L 331 188.5 L 331 193.5 L 332 194.5 L 332 199.5 L 333 200.5 Q 331.8 205.2 334 206.5 L 331 211.5 L 332.5 214 L 335 214.5 L 336 223.5 L 337 224.5 L 337 229.5 L 338 230.5 L 338 235.5 L 339 236.5 L 339 241.5 L 340 242.5 L 340 247.5 L 341 248.5 L 341 253.5 L 342 254.5 L 342 260.5 L 343 261.5 L 344 272.5 L 345 273.5 L 345 278.5 L 346 279.5 L 346 284.5 L 347 285.5 L 347 290.5 L 348 291.5 L 348 296.5 L 349 297.5 L 349 302.5 L 350 303.5 L 350 308.5 L 351 309.5 L 351 315.5 L 352 316.5 L 352 321.5 L 353 322.5 L 353 327.5 L 354 328.5 L 354 333.5 L 355 334.5 Q 353.8 339.3 356 340.5 L 356 346.5 L 357 347.5 L 357 352.5 L 358 353.5 L 358 358.5 L 359 359.5 L 359 364.5 L 360 365.5 Q 358.7 370.3 361 371.5 L 361 377.5 L 362 378.5 L 362 383.5 L 363 384.5 L 363 389.5 L 364 390.5 L 364 395.5 L 365 396.5 L 365 401.5 L 366 402.5 Q 364.8 407.2 367 408.5 L 367 414.5 L 368 415.5 L 368 420.5 L 369 421.5 L 369 426.5 L 370 427.5 L 370 432.5 L 371 433.5 Q 369.7 438.3 372 439.5 L 372 445.5 L 373 446.5 L 373 451.5 L 374 452.5 L 374 457.5 L 375 458.5 L 375 463.5 L 376 464.5 Q 374.8 469.3 377 470.5 L 377 476.5 L 378 477.5 L 378 482.5 L 379 483.5 L 379 488.5 L 380 489.5 L 380 494.5 L 381 495.5 Q 379.8 500.3 382 501.5 L 382 507.5 L 383 508.5 L 383 513.5 L 384 514.5 L 384 519.5 L 385 520.5 L 385 525.5 L 386 526.5 L 386 531.5 L 387 532.5 L 387 537.5 L 388 538.5 Q 386.8 543.3 389 544.5 L 389 550.5 L 390 551.5 L 390 556.5 L 391 557.5 L 391 562.5 L 392 563.5 L 392 568.5 L 393 569.5 L 393 574.5 L 394 575.5 L 394 580.5 L 395 581.5 L 395 586.5 L 396 587.5 L 397 598.5 L 398 599.5 L 396.5 602 L 394 600.5 Q 392.2 598.3 393 593.5 L 392 592.5 L 392 587.5 L 391 586.5 L 391 581.5 L 390 580.5 L 390 575.5 L 389 574.5 L 389 568.5 L 388 567.5 L 388 562.5 L 387 561.5 L 387 556.5 L 386 555.5 L 386 550.5 L 385 549.5 L 384 538.5 L 383 537.5 L 383 532.5 L 382 531.5 L 382 526.5 L 381 525.5 L 381 520.5 L 380 519.5 L 380 514.5 L 379 513.5 L 379 507.5 L 378 506.5 L 378 501.5 L 377 500.5 L 377 495.5 L 376 494.5 L 376 489.5 L 375 488.5 L 375 483.5 L 374 482.5 L 374 477.5 L 373 476.5 L 372 465.5 L 371 464.5 L 371 459.5 L 370 458.5 L 370 453.5 L 369 452.5 L 369 446.5 L 368 445.5 L 368 440.5 L 367 439.5 L 367 434.5 L 366 433.5 L 366 428.5 L 365 427.5 L 365 422.5 L 364 421.5 L 364 416.5 L 363 415.5 L 363 410.5 L 362 409.5 L 361 398.5 L 360 397.5 L 360 392.5 L 359 391.5 L 359 386.5 L 358 385.5 L 358 379.5 L 357 378.5 L 357 373.5 L 356 372.5 L 356 367.5 L 355 366.5 L 355 361.5 L 354 360.5 L 354 355.5 L 353 354.5 L 353 349.5 L 352 348.5 L 352 343.5 L 351 342.5 Q 352.3 337.7 350 336.5 L 350 330.5 L 349 329.5 L 349 324.5 L 348 323.5 L 348 318.5 L 347 317.5 L 347 312.5 L 346 311.5 L 346 306.5 L 345 305.5 L 345 300.5 L 344 299.5 L 344 294.5 L 343 293.5 Q 344.3 288.7 342 287.5 L 342 281.5 L 341 280.5 L 341 275.5 L 340 274.5 L 340 269.5 L 339 268.5 L 339 263.5 L 338 262.5 L 338 257.5 L 337 256.5 Q 338.2 251.8 336 250.5 L 336 244.5 L 335 243.5 L 335 238.5 L 334 237.5 L 334 232.5 L 333 231.5 L 333 226.5 L 332 225.5 Q 333.3 220.8 331 219.5 L 331 213.5 L 330 212.5 L 330 207.5 L 329 206.5 L 329 201.5 L 328 200.5 L 328 195.5 L 327 194.5 Q 328.3 189.8 326 188.5 L 326 182.5 L 325 181.5 L 325 176.5 L 324 175.5 L 324 170.5 L 323 169.5 Q 324.3 164.8 322 163.5 L 322 157.5 L 321 156.5 L 321 151.5 L 320 150.5 Q 321.3 145.8 319 144.5 L 319 138.5 L 318 137.5 L 318 132.5 Q 315.8 131.3 317 126.5 L 316 125.5 L 316 119.5 L 315 118.5 L 314 107.5 L 313 106.5 L 313 100.5 L 312 99.5 L 311 88.5 L 310 87.5 L 310 81.5 L 309 80.5 L 308 69.5 L 307 68.5 L 307 62.5 L 306 61.5 Q 307.3 56.7 305 55.5 L 305 49.5 L 304 48.5 L 304 43.5 L 303 42.5 L 303 36.5 Q 301.1 35.6 302.5 33 Z " /><path fill="rgb(0,0,0)" stroke="rgb(0,0,0)" stroke-width="1" opacity="0.03137254901960784" d="M 298.5 34 L 300 34.5 L 301 44.5 L 302 45.5 L 302 51.5 L 303 52.5 L 303 57.5 L 304 58.5 Q 302.7 63.3 305 64.5 L 305 70.5 L 306 71.5 Q 304.8 76.3 307 77.5 L 307 83.5 L 308 84.5 L 309 95.5 L 310 96.5 L 310 102.5 L 311 103.5 L 312 114.5 L 313 115.5 L 313 121.5 L 314 122.5 L 315 133.5 L 316 134.5 Q 314.8 139.2 317 140.5 L 317 146.5 L 318 147.5 L 319 158.5 L 320 159.5 L 320 165.5 L 321 166.5 L 321 171.5 L 322 172.5 L 322 177.5 L 323 178.5 Q 321.7 183.3 324 184.5 L 324 190.5 L 325 191.5 L 325 196.5 L 326 197.5 L 326 202.5 L 327 203.5 L 327 208.5 L 328 209.5 Q 326.8 214.3 329 215.5 L 329 221.5 L 330 222.5 L 330 227.5 L 331 228.5 L 331 233.5 L 332 234.5 L 332 239.5 L 333 240.5 Q 331.8 245.3 334 246.5 L 334 252.5 L 335 253.5 L 335 258.5 L 336 259.5 L 336 264.5 L 337 265.5 L 337 270.5 L 338 271.5 L 338 276.5 L 339 277.5 Q 337.8 282.3 340 283.5 L 340 289.5 L 341 290.5 L 341 295.5 L 342 296.5 L 342 301.5 L 343 302.5 L 343 307.5 L 344 308.5 L 344 313.5 L 345 314.5 L 345 319.5 L 346 320.5 Q 344.8 325.3 347 326.5 L 347 332.5 L 348 333.5 L 348 338.5 L 349 339.5 L 349 344.5 L 350 345.5 L 350 350.5 L 351 351.5 L 351 356.5 L 352 357.5 L 352 362.5 L 353 363.5 L 353 368.5 L 354 369.5 L 354 374.5 L 355 375.5 Q 353.8 380.3 356 381.5 L 356 387.5 L 357 388.5 L 357 393.5 L 358 394.5 L 358 399.5 L 359 400.5 L 359 405.5 L 360 406.5 L 360 411.5 L 361 412.5 L 361 417.5 L 362 418.5 L 362 423.5 L 363 424.5 L 363 429.5 L 364 430.5 L 364 435.5 L 365 436.5 L 365 441.5 L 366 442.5 Q 364.8 447.2 367 448.5 L 367 454.5 L 368 455.5 L 368 460.5 L 369 461.5 L 369 466.5 L 370 467.5 L 370 472.5 L 371 473.5 L 371 478.5 L 372 479.5 L 372 484.5 L 373 485.5 L 373 490.5 L 374 491.5 L 374 496.5 L 375 497.5 L 375 502.5 L 376 503.5 Q 374.8 508.3 377 509.5 L 377 515.5 L 378 516.5 L 378 521.5 L 379 522.5 L 379 527.5 L 380 528.5 L 380 533.5 L 381 534.5 L 381 539.5 L 382 540.5 L 382 545.5 L 383 546.5 L 383 551.5 L 384 552.5 L 384 557.5 L 385 558.5 L 386 569.5 L 387 570.5 L 387 576.5 L 388 577.5 L 388 582.5 L 389 583.5 L 389 588.5 L 390 589.5 L 391 600.5 L 388.5 602 Q 388.4 598.6 386 597.5 L 386 591.5 L 385 590.5 L 385 583.5 L 384 582.5 L 384 576.5 L 383 575.5 L 383 568.5 L 382 567.5 Q 383.3 562.8 381 561.5 L 381 555.5 L 380 554.5 L 380 549.5 L 379 548.5 L 379 543.5 L 378 542.5 L 378 537.5 L 377 536.5 L 376 527.5 L 375 526.5 L 374 518.5 L 372 513.5 L 372 501.5 L 371 500.5 L 371 494.5 L 370 493.5 L 369 484.5 L 368 483.5 L 368 480.5 L 365 471.5 L 365 466.5 L 364 465.5 L 364 458.5 L 363 457.5 L 363 451.5 L 362 450.5 L 362 443.5 L 361 442.5 L 361 436.5 L 360 435.5 L 360 429.5 L 359 428.5 L 358 415.5 L 357 414.5 L 356 402.5 L 355 401.5 Q 356.3 396.8 354 395.5 L 354 389.5 L 353 388.5 Q 354.2 383.8 352 382.5 L 352 376.5 L 351 375.5 L 351 370.5 L 350 369.5 L 350 364.5 L 349 363.5 L 349 358.5 L 348 357.5 L 348 352.5 L 347 351.5 L 347 346.5 L 346 345.5 L 346 340.5 L 345 339.5 L 345 334.5 L 344 333.5 L 344 328.5 L 343 327.5 L 343 322.5 L 342 321.5 L 342 316.5 L 341 315.5 L 341 310.5 L 340 309.5 L 340 304.5 L 339 303.5 L 339 298.5 L 338 297.5 L 338 292.5 L 337 291.5 L 337 286.5 L 336 285.5 L 336 280.5 L 335 279.5 L 335 274.5 L 334 273.5 L 334 268.5 L 333 267.5 L 333 262.5 L 332 261.5 L 332 256.5 L 331 255.5 L 331 250.5 L 330 249.5 Q 331.3 244.7 329 243.5 L 329 237.5 L 328 236.5 L 328 231.5 L 327 230.5 L 327 225.5 L 326 224.5 Q 327.2 219.8 325 218.5 L 325 208.5 L 323 203.5 L 323 197.5 L 321 194.5 L 321 182.5 L 320 181.5 L 320 173.5 L 316 162.5 L 316 147.5 L 315 146.5 L 315 141.5 L 314 140.5 L 314 135.5 L 313 134.5 L 313 129.5 L 312 128.5 Q 313.2 123.7 311 122.5 L 311 117.5 L 310 116.5 L 309 108.5 L 308 107.5 L 308 101.5 L 307 100.5 L 307 93.5 L 306 92.5 L 306 85.5 L 305 84.5 L 305 78.5 L 304 77.5 L 303 63.5 L 302 62.5 L 302 57.5 L 301 56.5 L 301 52.5 L 300 51.5 L 300 47.5 L 299 46.5 L 297 36.5 L 298.5 34 Z " /><path fill="rgb(0,0,0)" stroke="rgb(0,0,0)" stroke-width="1" opacity="0.03137254901960784" d="M 223.5 38 L 227 39.5 L 227 53.5 L 228 54.5 L 228 68.5 L 229 69.5 L 229 99.5 L 226.5 100 L 225 98.5 L 225 83.5 L 224 82.5 L 224 61.5 L 223 60.5 L 223.5 38 Z " /><path fill="rgb(0,0,0)" stroke="rgb(0,0,0)" stroke-width="1" opacity="0.03137254901960784" d="M 214.5 39 L 215 58.5 L 216 59.5 L 216 78.5 L 217 79.5 L 217 99.5 L 195.5 100 L 196 98.5 L 196 95.5 L 203 74.5 L 203 71.5 L 214.5 39 Z " /><path fill="rgb(0,0,0)" stroke="rgb(0,0,0)" stroke-width="1" opacity="0.03137254901960784" d="M 218.5 40 L 220 40.5 L 220 50.5 L 221 51.5 L 221 71.5 L 222 72.5 L 222 94.5 Q 224 95.5 223 99.5 L 220.5 100 L 220 83.5 L 219 82.5 L 219 64.5 L 218 63.5 L 218.5 40 Z " /><path fill="rgb(0,0,0)" stroke="rgb(0,0,0)" stroke-width="1" opacity="0.03137254901960784" d="M 295.5 42 L 298 49.5 L 299 59.5 L 300 60.5 L 300 65.5 L 301 66.5 L 301 72.5 L 302 73.5 L 302 80.5 L 303 81.5 L 303 88.5 L 304 89.5 L 304 96.5 L 305 97.5 L 306 110.5 L 302.5 111 L 301.5 110 L 291.5 110 L 290.5 109 L 283 108.5 L 284 106.5 L 284 100.5 L 285 99.5 L 286 87.5 L 287 86.5 L 287 81.5 L 288 80.5 L 288 75.5 L 289 74.5 L 289 69.5 L 290 68.5 L 290 64.5 L 291 63.5 L 291 59.5 L 293 53.5 L 293 49.5 L 295.5 42 Z " /><path fill="rgb(0,0,0)" stroke="rgb(0,0,0)" stroke-width="1" opacity="0.03137254901960784" d="M 257.5 101 L 261 101.5 L 260.5 106 L 258 105.5 Q 256.3 103.8 257.5 101 Z " /><path fill="rgb(0,0,0)" stroke="rgb(0,0,0)" stroke-width="1" opacity="0.03137254901960784" d="M 217.5 102 Q 218.7 104.3 223.5 103 L 224.5 102 L 253.5 102 L 255 105.5 L 248.5 106 L 247.5 107 L 211.5 107 L 210.5 108 L 180.5 108 Q 177.8 106.8 180 105.5 L 180.5 104 L 195.5 104 L 196.5 103 L 216.5 103 L 217.5 102 Z " /><path fill="rgb(0,0,0)" stroke="rgb(0,0,0)" stroke-width="1" opacity="0.03137254901960784" d="M 176.5 112 L 181 113.5 L 175 127.5 L 172 138.5 L 170 141.5 L 163 162.5 L 163 165.5 L 156 186.5 L 152.5 194 L 150 192.5 L 150 189.5 L 153 181.5 L 153 178.5 L 157 166.5 L 159 163.5 L 163 149.5 L 165 146.5 L 169 134.5 L 169 131.5 L 171 127.5 L 172 121.5 L 176.5 112 Z " /><path fill="rgb(0,0,0)" stroke="rgb(0,0,0)" stroke-width="1" opacity="0.03137254901960784" d="M 282.5 112 L 293.5 112 L 294.5 113 L 307 113.5 L 309 121.5 L 301.5 122 L 300.5 121 L 293.5 121 L 292.5 120 L 281.5 120 L 280 118.5 Q 282 117.5 281 113.5 L 282.5 112 Z " /><path fill="rgb(0,0,0)" stroke="rgb(0,0,0)" stroke-width="1" opacity="0.03137254901960784" d="M 227.5 113 L 231 113.5 Q 230.3 115.8 226.5 115 Q 225 114 227.5 113 Z " /><path fill="rgb(0,0,0)" stroke="rgb(0,0,0)" stroke-width="1" opacity="0.03137254901960784" d="M 234.5 113 L 239 113.5 L 238.5 115 L 234 114.5 L 234.5 113 Z " /><path fill="rgb(0,0,0)" stroke="rgb(0,0,0)" stroke-width="1" opacity="0.03137254901960784" d="M 196.5 114 L 215 114.5 L 196.5 115 L 196.5 114 Z " /><path fill="rgb(0,0,0)" stroke="rgb(0,0,0)" stroke-width="1" opacity="0.03137254901960784" d="M 183.5 115 L 184 119.5 L 183 121.5 Q 185 122.5 184 126.5 L 181 132.5 L 176 149.5 L 174 152.5 L 160.5 194 L 156.5 195 L 156 192.5 L 158 189.5 L 167 162.5 L 167 159.5 L 172 144.5 L 174 141.5 L 178 127.5 L 183.5 115 Z " /><path fill="rgb(0,0,0)" stroke="rgb(0,0,0)" stroke-width="1" opacity="0.03137254901960784" d="M 323.5 116 L 338.5 116 L 339.5 117 L 346.5 117 L 350 118.5 L 349.5 124 L 334.5 124 L 333.5 123 L 323 122.5 L 323.5 116 Z " /><path fill="rgb(0,0,0)" stroke="rgb(0,0,0)" stroke-width="1" opacity="0.03137254901960784" d="M 186.5 117 L 258 117.5 L 256.5 126 L 250.5 126 L 249.5 125 L 236.5 125 Q 235.8 126.8 232.5 126 L 231.5 125 L 186 124.5 L 186.5 117 Z " /><path fill="rgb(0,0,0)" stroke="rgb(0,0,0)" stroke-width="1" opacity="0.03137254901960784" d="M 169.5 121 L 169 122.5 L 167 132.5 L 162 147.5 L 160 150.5 L 156 164.5 L 154 167.5 L 147 192.5 L 145 194.5 L 145 196.5 L 143 199.5 L 142 208.5 L 133 229.5 L 127 247.5 L 127 250.5 L 123 260.5 L 123 263.5 L 120 269.5 L 112 293.5 L 111 300.5 L 108 305.5 L 108 311.5 L 107 314.5 L 104 319.5 L 103 324.5 L 99 332.5 L 96 343.5 L 94 346.5 L 88 364.5 L 88 367.5 L 83 380.5 L 83 383.5 L 81 387.5 L 81 390.5 L 79 394.5 L 79 397.5 L 77 403.5 L 73 409.5 L 73 414.5 L 69 421.5 L 69 423.5 L 63 436.5 L 61 444.5 L 59 447.5 L 53 465.5 L 53 468.5 L 47 484.5 L 47 487.5 L 43 497.5 L 43 500.5 L 41 506.5 L 39 508.5 L 39 510.5 L 37 513.5 L 37 516.5 L 35 522.5 L 29 536.5 L 8 600.5 L 3.5 611 L 3 602.5 L 13 572.5 L 15 569.5 L 23 543.5 L 25 540.5 L 30 523.5 L 32 520.5 L 37 503.5 L 39 500.5 L 43 486.5 L 45 483.5 L 49 469.5 L 51 466.5 L 55 452.5 L 57 449.5 L 63 429.5 L 65 426.5 L 73 400.5 L 75 397.5 L 92 346.5 L 92 343.5 L 101 318.5 L 101 315.5 L 110 288.5 L 112 285.5 L 116 271.5 L 119 266.5 L 123 254.5 L 123 251.5 L 149 173.5 L 151 170.5 L 154 159.5 L 156 156.5 L 164 132.5 L 166 129.5 L 168 122.5 L 169.5 121 Z " /><path fill="rgb(0,0,0)" stroke="rgb(0,0,0)" stroke-width="1" opacity="0.03137254901960784" d="M 279.5 123 L 283 123.5 L 281.5 126 L 279 125.5 L 279.5 123 Z " /><path fill="rgb(0,0,0)" stroke="rgb(0,0,0)" stroke-width="1" opacity="0.03137254901960784" d="M 286.5 123 Q 290.5 122 291.5 124 L 299.5 124 L 300.5 125 L 307.5 125 L 309 126.5 L 309 130.5 L 311 136.5 L 311 141.5 L 312 142.5 L 312 148.5 L 313 149.5 L 313 163.5 L 310 171.5 L 310 175.5 L 309 176.5 L 309 181.5 L 308 182.5 L 308 187.5 L 307 188.5 L 307 193.5 L 306 194.5 L 306 199.5 L 305 200.5 L 304.5 205 L 283.5 205 L 282.5 204 L 265 203.5 L 266 194.5 L 267 193.5 L 267 187.5 L 268 186.5 L 268 181.5 L 269 180.5 L 270 170.5 L 272 164.5 L 272 159.5 L 273 158.5 L 274 149.5 L 275 148.5 L 276 140.5 L 277 139.5 L 278 131.5 L 279.5 128 Q 284 129 285 126.5 Q 284.5 123.5 286.5 123 Z " /><path fill="rgb(0,0,0)" stroke="rgb(0,0,0)" stroke-width="1" opacity="0.03137254901960784" d="M 222.5 127 L 224 127.5 L 225 130.5 L 225 154.5 L 226 155.5 L 226 179.5 L 227 180.5 L 227 198.5 L 225.5 199 L 225 188.5 L 224 187.5 L 224 165.5 L 223 164.5 L 223 140.5 L 222 139.5 L 222.5 127 Z " /><path fill="rgb(0,0,0)" stroke="rgb(0,0,0)" stroke-width="1" opacity="0.03137254901960784" d="M 227.5 127 Q 230.5 126.5 231 128.5 Q 230.3 131.8 232 132.5 L 232 154.5 L 233 155.5 L 233 161.5 L 234 162.5 L 234 189.5 L 235 190.5 L 235 198.5 L 229.5 199 L 229 169.5 L 228 168.5 L 228 145.5 L 227 144.5 L 227.5 127 Z " /><path fill="rgb(0,0,0)" stroke="rgb(0,0,0)" stroke-width="1" opacity="0.03137254901960784" d="M 186.5 128 L 219 128.5 L 219 137.5 L 220 138.5 L 220 160.5 L 221 161.5 L 221 185.5 L 222 186.5 L 222 198.5 L 201.5 199 L 200.5 198 L 194.5 198 L 193.5 197 L 176.5 197 L 175.5 196 L 166.5 196 L 163 194.5 L 177 152.5 L 179 149.5 L 184 132.5 L 186.5 128 Z " /><path fill="rgb(0,0,0)" stroke="rgb(0,0,0)" stroke-width="1" opacity="0.03137254901960784" d="M 235.5 128 L 253.5 128 L 255 129.5 L 255 134.5 L 254 135.5 L 254 140.5 L 253 141.5 Q 254.2 146.3 252 147.5 L 252 152.5 L 251 153.5 L 249 163.5 L 247.5 165 L 245 160.5 L 241 146.5 L 236 137.5 L 235 130.5 L 234 129.5 L 235.5 128 Z " /><path fill="rgb(0,0,0)" stroke="rgb(0,0,0)" stroke-width="1" opacity="0.03137254901960784" d="M 235.5 141 L 238 145.5 L 244 164.5 L 247 168.5 L 247 177.5 L 245.5 182 L 244 181.5 L 240 169.5 L 236 162.5 Q 237.2 157.8 235 156.5 L 235.5 141 Z " /><path fill="rgb(0,0,0)" stroke="rgb(0,0,0)" stroke-width="1" opacity="0.03137254901960784" d="M 236.5 169 L 238 170.5 L 240 178.5 L 244 185.5 L 244 192.5 L 241.5 200 L 237 198.5 L 237 189.5 L 236 188.5 L 236.5 169 Z " /><path fill="rgb(0,0,0)" stroke="rgb(0,0,0)" stroke-width="1" opacity="0.03137254901960784" d="M 314.5 169 L 316 169.5 Q 315 173.5 317 174.5 L 317 181.5 L 318 182.5 L 318 192.5 L 315 198.5 Q 316.1 204.6 313.5 207 L 308 206.5 L 308 202.5 L 310 196.5 L 310 190.5 L 311 189.5 L 311 184.5 L 312 183.5 L 312 178.5 L 313 177.5 L 313 173.5 L 314.5 169 Z " /><path fill="rgb(0,0,0)" stroke="rgb(0,0,0)" stroke-width="1" opacity="0.03137254901960784" d="M 319.5 196 L 321 199.5 L 321 206.5 L 317.5 207 L 318 205.5 Q 316.7 198.7 319.5 196 Z " /><path fill="rgb(0,0,0)" stroke="rgb(0,0,0)" stroke-width="1" opacity="0.03137254901960784" d="M 196.5 201 L 203.5 201 L 204.5 202 L 235 202.5 L 234.5 207 L 163.5 207 L 162.5 208 L 156.5 208 L 155.5 207 L 146 206.5 L 147.5 202 L 195.5 202 L 196.5 201 Z " /><path fill="rgb(0,0,0)" stroke="rgb(0,0,0)" stroke-width="1" opacity="0.03137254901960784" d="M 237.5 202 L 242 202.5 L 240.5 207 L 238 206.5 L 237.5 202 Z " /><path fill="rgb(0,0,0)" stroke="rgb(0,0,0)" stroke-width="1" opacity="0.03137254901960784" d="M 144.5 210 L 147 210.5 L 135 248.5 L 133 251.5 L 126 272.5 L 126 275.5 L 121 288.5 L 121 291.5 L 117.5 302 L 113 301.5 L 114 294.5 L 122 270.5 L 124 267.5 L 127 258.5 L 127 255.5 L 137 225.5 L 139 222.5 L 141 215.5 L 144.5 210 Z " /><path fill="rgb(0,0,0)" stroke="rgb(0,0,0)" stroke-width="1" opacity="0.03137254901960784" d="M 265.5 211 L 273.5 211 L 274.5 212 L 285.5 212 L 286.5 213 L 298.5 213 L 303 214.5 L 302 220.5 L 301 221.5 L 301 225.5 L 300 226.5 L 300 231.5 L 299 232.5 Q 300.3 237.3 298 238.5 L 298 244.5 L 297 245.5 L 297 250.5 L 296 251.5 Q 297.3 256.3 295 257.5 L 295 262.5 L 294 263.5 L 294 267.5 L 293 268.5 L 292 275.5 L 290.5 277 L 282 258.5 L 271 225.5 L 265 213.5 L 265.5 211 Z " /><path fill="rgb(0,0,0)" stroke="rgb(0,0,0)" stroke-width="1" opacity="0.03137254901960784" d="M 150.5 212 L 154 212.5 L 126 296.5 L 126 299.5 L 123.5 303 L 121 302.5 L 122 295.5 L 130 272.5 L 130 269.5 L 134 257.5 L 136 254.5 L 149 213.5 L 150.5 212 Z " /><path fill="rgb(0,0,0)" stroke="rgb(0,0,0)" stroke-width="1" opacity="0.03137254901960784" d="M 157.5 212 L 223 212.5 L 223 224.5 L 224 225.5 L 224 255.5 L 225 256.5 L 225 264.5 L 226 265.5 L 227 274.5 L 226 275.5 L 226 281.5 L 225 282.5 L 225 288.5 L 224 289.5 L 223 299.5 Q 221.2 300.3 222 303.5 L 220.5 305 Q 217.3 304.3 216.5 306 L 210.5 306 L 209.5 305 L 199.5 305 L 198.5 304 L 175.5 304 L 174.5 303 L 136.5 303 L 135.5 302 L 128 301.5 L 133 286.5 L 133 283.5 L 137 271.5 L 139 268.5 L 147 244.5 L 147 241.5 L 154 222.5 L 154 219.5 L 156 213.5 L 157.5 212 Z " /><path fill="rgb(0,0,0)" stroke="rgb(0,0,0)" stroke-width="1" opacity="0.03137254901960784" d="M 226.5 212 L 229 212.5 L 229 239.5 L 230 240.5 L 231 258.5 L 230 259.5 L 229.5 266 L 228 264.5 L 228 255.5 L 227 254.5 L 227 222.5 L 226 221.5 L 226.5 212 Z " /><path fill="rgb(0,0,0)" stroke="rgb(0,0,0)" stroke-width="1" opacity="0.03137254901960784" d="M 231.5 212 L 236 212.5 L 237 226.5 L 236 227.5 L 236 234.5 L 235 235.5 L 235 239.5 L 234 240.5 L 234 244.5 L 232.5 248 L 232 239.5 L 231 238.5 L 231.5 212 Z " /><path fill="rgb(0,0,0)" stroke="rgb(0,0,0)" stroke-width="1" opacity="0.03137254901960784" d="M 238.5 212 L 239 216.5 L 238 216.5 L 238.5 212 Z " /><path fill="rgb(0,0,0)" stroke="rgb(0,0,0)" stroke-width="1" opacity="0.03137254901960784" d="M 262.5 214 L 264 215.5 L 264 217.5 L 269 227.5 L 270 232.5 L 272 235.5 L 275 246.5 L 277 249.5 L 284 270.5 L 290 281.5 L 290 284.5 L 291 285.5 L 291 288.5 L 293 294.5 L 298 301.5 L 306 327.5 L 308 330.5 L 311 341.5 L 313 344.5 L 314 349.5 L 316 352.5 L 318 360.5 L 325 376.5 L 326 381.5 L 330 389.5 L 331 394.5 L 333 397.5 L 333 399.5 L 335 402.5 L 335 404.5 L 337 407.5 L 337 409.5 L 339 412.5 L 339 414.5 L 341 417.5 L 345 429.5 L 348 434.5 L 352 446.5 L 355 451.5 L 357 458.5 L 362 468.5 L 364 478.5 L 365 479.5 L 365 482.5 L 366 483.5 L 366 486.5 L 367 487.5 L 367 491.5 L 368 492.5 L 369 504.5 L 368 504.5 L 363 493.5 L 363 491.5 L 360 486.5 L 360 484.5 L 358 481.5 L 354 469.5 L 352 466.5 L 351 461.5 L 349 458.5 L 343 440.5 L 341 437.5 L 340 432.5 L 336 424.5 L 335 419.5 L 333 416.5 L 332 411.5 L 330 408.5 L 323 387.5 L 321 384.5 L 321 382.5 L 319 379.5 L 319 377.5 L 317 374.5 L 317 372.5 L 315 369.5 L 315 367.5 L 313 364.5 L 313 362.5 L 311 359.5 L 307 347.5 L 296 324.5 L 296 319.5 L 295 318.5 L 294 312.5 L 289 305.5 L 289 302.5 L 286 295.5 L 286 292.5 L 281 277.5 L 279 274.5 L 277 266.5 L 261 229.5 L 261 218.5 L 262.5 214 Z " /><path fill="rgb(0,0,0)" stroke="rgb(0,0,0)" stroke-width="1" opacity="0.03137254901960784" d="M 307.5 214 L 312 214.5 L 312 219.5 L 311 220.5 L 311 225.5 L 310 226.5 L 310 231.5 L 309 232.5 L 309 237.5 L 308 238.5 L 308 243.5 L 307 244.5 Q 308.3 249.3 306 250.5 L 306 255.5 L 305 256.5 L 304 266.5 L 303 267.5 L 303 271.5 L 302 272.5 L 302 276.5 L 301 277.5 L 301 281.5 L 300 282.5 L 297.5 295 L 296 294.5 L 293 286.5 L 293 279.5 L 295 275.5 L 295 272.5 L 297 267.5 L 297 263.5 L 298 262.5 L 298 258.5 L 299 257.5 L 299 251.5 L 300 250.5 Q 298.7 245.7 301 244.5 L 301 238.5 L 302 237.5 L 303 226.5 L 305 221.5 L 305 217.5 L 307.5 214 Z " /><path fill="rgb(0,0,0)" stroke="rgb(0,0,0)" stroke-width="1" opacity="0.03137254901960784" d="M 316.5 214 L 322 214.5 Q 323.8 216.7 323 221.5 L 324 222.5 L 324 228.5 L 325 229.5 L 326 240.5 L 327 241.5 L 327 246.5 L 328 247.5 L 328 252.5 L 329 253.5 L 329 258.5 L 330 259.5 L 330 264.5 L 331 265.5 L 331 270.5 L 332 271.5 L 332 276.5 L 333 277.5 L 333 282.5 L 334 283.5 L 334 288.5 L 335 289.5 L 335 294.5 L 336 295.5 L 336 300.5 L 337 301.5 L 337 306.5 L 338 307.5 L 338 312.5 L 339 313.5 L 339 318.5 L 340 319.5 L 340 324.5 L 341 325.5 L 341 330.5 L 342 331.5 L 342 336.5 L 343 337.5 L 343 342.5 L 344 343.5 L 344 348.5 L 345 349.5 L 345 354.5 L 346 355.5 L 346 361.5 L 347 362.5 L 347 367.5 L 348 368.5 L 349 379.5 L 350 380.5 L 350 386.5 L 351 387.5 L 351 392.5 L 352 393.5 Q 350.7 398.2 353 399.5 L 353 405.5 L 354 406.5 L 354 412.5 L 355 413.5 Q 353.8 418.3 356 419.5 L 356 425.5 L 357 426.5 L 357 432.5 L 358 433.5 L 358 439.5 L 359 440.5 L 359 447.5 L 360 448.5 L 360 454.5 Q 361.8 455.3 361 458.5 L 360 458.5 L 351 437.5 L 351 435.5 L 349 432.5 L 349 430.5 L 346 425.5 L 346 423.5 L 334 395.5 L 333 390.5 L 329 382.5 L 328 377.5 L 324 369.5 L 320 356.5 L 318 353.5 L 316 345.5 L 314 342.5 L 304 311.5 L 300 302.5 L 300 296.5 L 301 295.5 L 302 287.5 L 304 282.5 L 304 278.5 L 305 277.5 L 305 273.5 L 307 267.5 L 307 262.5 L 309 256.5 L 309 251.5 L 310 250.5 L 310 245.5 L 311 244.5 L 311 239.5 L 312 238.5 L 312 233.5 L 313 232.5 L 313 227.5 L 314 226.5 L 314 221.5 L 315 220.5 L 315 215.5 L 316.5 214 Z " /><path fill="rgb(0,0,0)" stroke="rgb(0,0,0)" stroke-width="1" opacity="0.03137254901960784" d="M 259.5 234 L 261 234.5 L 270 255.5 L 270 257.5 L 272 260.5 L 276 273.5 L 278 276.5 L 285 297.5 L 285 300.5 L 287 304.5 L 287 310.5 L 286 311.5 L 285 319.5 L 284 320.5 L 284 323.5 L 282 328.5 L 282 332.5 L 280 337.5 L 280 341.5 L 279 342.5 L 279 346.5 L 278 347.5 L 278 351.5 L 277 352.5 L 277 356.5 L 276 357.5 L 276 361.5 L 275 362.5 L 275 366.5 L 274 367.5 L 274 371.5 L 272 377.5 L 272 382.5 L 271 383.5 L 271 387.5 L 269 393.5 L 269 398.5 L 268 399.5 L 268 403.5 L 266 409.5 L 266 414.5 L 265 415.5 L 265 419.5 L 263 425.5 L 263 430.5 L 262 431.5 L 262 435.5 L 261 436.5 L 261 440.5 L 260 441.5 L 260 445.5 L 259 446.5 L 259 450.5 L 258 451.5 L 258 455.5 L 257 456.5 L 256 465.5 L 255 466.5 L 255 470.5 L 254 471.5 L 253 479.5 L 252 480.5 L 250.5 488 L 250 479.5 L 249 478.5 L 249 462.5 L 248 461.5 L 248 440.5 L 247 439.5 L 247 412.5 L 246 411.5 L 246 385.5 L 245 384.5 L 245 365.5 L 244 364.5 L 244 349.5 L 243 348.5 L 242 325.5 L 243 324.5 L 243 318.5 L 244 317.5 L 244 311.5 L 245 310.5 L 245 305.5 L 246 304.5 L 247 293.5 L 248 292.5 L 248 288.5 L 249 287.5 L 249 283.5 L 250 282.5 L 250 278.5 L 251 277.5 L 251 273.5 L 252 272.5 L 252 268.5 L 253 267.5 L 253 263.5 L 254 262.5 L 254 258.5 L 255 257.5 L 255 253.5 L 257 248.5 L 257 244.5 L 258 243.5 L 258 239.5 L 259 238.5 L 259.5 234 Z " /><path fill="rgb(0,0,0)" stroke="rgb(0,0,0)" stroke-width="1" opacity="0.03137254901960784" d="M 113.5 305 L 134.5 305 L 135.5 306 L 170.5 306 L 171.5 307 L 196.5 307 L 197.5 308 L 208.5 308 Q 209.3 309.8 212.5 309 L 214 310.5 L 213.5 313 L 165.5 312 L 164.5 311 L 122.5 310 L 121.5 309 L 112 308.5 Q 111.5 305.5 113.5 305 Z " /><path fill="rgb(0,0,0)" stroke="rgb(0,0,0)" stroke-width="1" opacity="0.03137254901960784" d="M 217.5 308 L 221 308.5 L 219.5 313 L 217 312.5 L 216 309.5 L 217.5 308 Z " /><path fill="rgb(0,0,0)" stroke="rgb(0,0,0)" stroke-width="1" opacity="0.03137254901960784" d="M 110.5 311 L 113 312.5 L 84 401.5 L 81.5 405 L 79 404.5 L 80 398.5 L 82 394.5 L 82 391.5 L 84 387.5 L 84 384.5 L 87 377.5 L 87 374.5 L 99 338.5 L 101 335.5 L 102 330.5 L 110.5 311 Z " /><path fill="rgb(0,0,0)" stroke="rgb(0,0,0)" stroke-width="1" opacity="0.03137254901960784" d="M 289.5 313 L 291 315.5 L 293 325.5 L 292 326.5 L 292 330.5 L 290 335.5 L 290 339.5 L 289 340.5 L 289 344.5 L 288 345.5 L 286 359.5 L 284 364.5 L 284 368.5 L 283 369.5 L 283 373.5 L 282 374.5 L 282 378.5 L 281 379.5 L 281 383.5 L 280 384.5 L 280 388.5 L 279 389.5 L 279 393.5 L 277 399.5 L 277 404.5 L 276 405.5 L 276 409.5 L 275 410.5 L 275 414.5 L 274 415.5 L 274 419.5 L 273 420.5 L 273 424.5 L 272 425.5 L 272 429.5 L 271 430.5 L 271 434.5 L 270 435.5 L 270 439.5 L 269 440.5 L 269 444.5 L 268 445.5 L 268 449.5 L 267 450.5 L 267 454.5 L 266 455.5 L 266 459.5 L 265 460.5 L 265 464.5 L 264 465.5 L 264 469.5 L 263 470.5 L 263 474.5 L 262 475.5 L 262 479.5 L 261 480.5 L 261 484.5 L 260 485.5 L 260 489.5 L 259 490.5 L 257 504.5 L 255 509.5 L 255 513.5 L 254 514.5 L 254 518.5 L 253 519.5 L 253 523.5 L 251.5 527 L 251 520.5 L 250 519.5 L 250 507.5 L 251 506.5 L 251 496.5 L 252 495.5 L 252 492.5 L 254 487.5 L 254 483.5 L 256 478.5 L 256 474.5 L 258 469.5 L 258 465.5 L 259 464.5 L 259 460.5 L 260 459.5 L 260 455.5 L 261 454.5 L 261 450.5 L 262 449.5 L 262 445.5 L 263 444.5 L 263 440.5 L 265 434.5 L 265 429.5 L 266 428.5 L 266 424.5 L 268 418.5 L 268 413.5 L 269 412.5 L 269 408.5 L 271 402.5 L 271 397.5 L 272 396.5 L 272 392.5 L 274 386.5 L 274 381.5 L 275 380.5 L 275 376.5 L 276 375.5 L 276 371.5 L 277 370.5 L 277 366.5 L 278 365.5 L 278 361.5 L 279 360.5 L 279 356.5 L 280 355.5 L 280 351.5 L 281 350.5 L 283 336.5 L 285 331.5 L 285 327.5 L 286 326.5 L 288 315.5 L 289.5 313 Z " /><path fill="rgb(0,0,0)" stroke="rgb(0,0,0)" stroke-width="1" opacity="0.03137254901960784" d="M 116.5 314 L 120 314.5 L 120 317.5 L 114 333.5 L 114 336.5 L 97 384.5 L 97 387.5 L 93 397.5 L 92 403.5 L 90.5 405 L 86 404.5 L 96 374.5 L 96 371.5 L 98 368.5 L 115 315.5 L 116.5 314 Z " /><path fill="rgb(0,0,0)" stroke="rgb(0,0,0)" stroke-width="1" opacity="0.03137254901960784" d="M 123.5 314 L 143.5 314 L 144.5 315 L 164.5 315 L 165.5 316 L 189.5 316 L 190.5 317 L 217.5 317 L 219 318.5 L 218 321.5 L 218 327.5 L 216 331.5 L 215 341.5 L 214 342.5 L 214 346.5 L 212 352.5 L 212 357.5 L 211 358.5 L 211 362.5 L 209 368.5 L 209 373.5 L 208 374.5 L 208 378.5 L 207 379.5 L 207 383.5 L 206 384.5 L 206 388.5 L 205 389.5 L 203 403.5 L 200.5 411 L 193.5 412 L 192.5 411 L 183.5 411 L 182.5 410 L 170.5 410 L 169.5 409 L 155.5 409 L 154.5 408 L 138.5 408 L 137.5 407 L 122.5 407 L 121.5 406 L 107.5 406 L 106.5 405 L 95.5 405 L 94 403.5 L 120 325.5 L 120 322.5 L 123.5 314 Z " /><path fill="rgb(0,0,0)" stroke="rgb(0,0,0)" stroke-width="1" opacity="0.03137254901960784" d="M 295.5 328 L 303 344.5 L 303 346.5 L 306 351.5 L 306 353.5 L 308 356.5 L 308 358.5 L 310 361.5 L 310 363.5 L 312 366.5 L 312 368.5 L 314 371.5 L 318 383.5 L 320 386.5 L 321 391.5 L 323 394.5 L 324 399.5 L 331 415.5 L 332 420.5 L 334 423.5 L 335 428.5 L 337 431.5 L 338 436.5 L 340 439.5 L 341 444.5 L 343 447.5 L 344 452.5 L 348 460.5 L 349 465.5 L 351 468.5 L 351 470.5 L 353 473.5 L 357 485.5 L 360 490.5 L 360 492.5 L 365 502.5 L 365 504.5 L 369 511.5 L 369 515.5 L 371 520.5 L 371 524.5 L 373 529.5 L 374 539.5 L 376 545.5 L 376 551.5 L 377 552.5 Q 375.8 557.3 378 558.5 L 378 564.5 L 379 565.5 L 379 571.5 L 380 572.5 L 380 578.5 L 381 579.5 L 381 586.5 L 382 587.5 L 382 593.5 L 383 594.5 L 383 602.5 L 385.5 607 L 392.5 608 Q 393.5 606 397.5 607 L 401.5 604 L 402 639.5 L 180.5 640 L 181 638.5 L 181 634.5 L 183 629.5 L 183 625.5 L 184 624.5 L 184 620.5 L 185 619.5 L 185 615.5 L 186 614.5 L 186 610.5 L 187 609.5 L 187 605.5 L 188 604.5 L 188 600.5 L 189 599.5 L 191 585.5 L 193 580.5 L 193 576.5 L 195 571.5 L 195 567.5 L 196 566.5 L 196 562.5 L 197 561.5 L 197 557.5 L 198 556.5 L 198 552.5 L 199 551.5 L 199 547.5 L 200 546.5 L 200 542.5 L 202 536.5 L 202 531.5 L 203 530.5 L 203 526.5 L 204 525.5 L 204 521.5 L 206 515.5 L 206 510.5 L 207 509.5 L 208 499.5 L 210 493.5 L 210 488.5 L 211 487.5 L 211 483.5 L 213 477.5 L 213 472.5 L 215 466.5 L 215 461.5 L 216 460.5 L 216 456.5 L 218 450.5 L 218 445.5 L 219 444.5 L 219 440.5 L 220 439.5 L 220 435.5 L 221 434.5 L 221 430.5 L 222 429.5 L 222 425.5 L 223 424.5 L 225 410.5 L 227 405.5 L 227 401.5 L 228 400.5 L 228 396.5 L 229 395.5 L 230.5 388 L 232 392.5 L 232 405.5 L 233 406.5 L 234 477.5 L 235 478.5 L 235 492.5 L 236 493.5 L 236 503.5 L 237 504.5 L 237 519.5 L 238 520.5 L 238 529.5 L 237 530.5 L 237 562.5 L 238 563.5 L 238 572.5 Q 240 573.5 239 577.5 L 243.5 586 L 247.5 588 Q 248.3 586.3 251.5 587 L 254 584.5 L 254 554.5 L 253 553.5 L 253 533.5 L 254 532.5 L 254 528.5 L 256 523.5 L 257 514.5 L 259 509.5 L 259 505.5 L 260 504.5 L 260 500.5 L 261 499.5 L 263 485.5 L 265 480.5 L 265 475.5 L 266 474.5 L 266 470.5 L 267 469.5 L 267 465.5 L 268 464.5 L 268 460.5 L 269 459.5 L 269 455.5 L 270 454.5 L 270 450.5 L 271 449.5 L 271 445.5 L 272 444.5 L 272 440.5 L 273 439.5 L 273 435.5 L 274 434.5 L 274 430.5 L 275 429.5 L 275 425.5 L 276 424.5 L 276 420.5 L 277 419.5 L 277 415.5 L 278 414.5 L 278 410.5 L 279 409.5 L 279 405.5 L 280 404.5 L 280 400.5 L 281 399.5 L 283 385.5 L 284 384.5 L 284 379.5 L 285 378.5 L 285 374.5 L 287 369.5 L 287 365.5 L 288 364.5 L 288 360.5 L 289 359.5 L 289 355.5 L 290 354.5 L 292 340.5 L 293 339.5 L 294 331.5 L 295.5 328 Z " /><path fill="rgb(0,0,0)" stroke="rgb(0,0,0)" stroke-width="1" opacity="0.03137254901960784" d="M 239.5 335 L 240 340.5 L 241 341.5 L 241 354.5 L 242 355.5 L 242 372.5 L 243 373.5 L 243 395.5 L 244 396.5 L 244 423.5 L 245 424.5 L 245 449.5 L 246 450.5 L 246 469.5 L 247 470.5 L 247 484.5 L 248 485.5 L 248 523.5 L 249 524.5 L 249 529.5 L 250 532.5 L 249 533.5 L 249 553.5 L 250 554.5 L 250 582.5 L 246.5 583 L 246 575.5 L 245 574.5 L 245 545.5 L 244 544.5 L 244 516.5 L 243 515.5 L 243 488.5 L 242 487.5 L 242 463.5 L 241 462.5 L 241 439.5 L 240 438.5 L 240 419.5 L 239 418.5 L 239 399.5 L 238 398.5 L 238 382.5 L 237 381.5 L 237 365.5 L 236 364.5 L 236 351.5 L 237 350.5 L 237 346.5 L 238 345.5 L 238 340.5 L 239 339.5 L 239.5 335 Z " /><path fill="rgb(0,0,0)" stroke="rgb(0,0,0)" stroke-width="1" opacity="0.03137254901960784" d="M 233.5 368 L 235 368.5 L 235 385.5 L 236 386.5 L 236 402.5 L 237 403.5 L 237 423.5 L 238 424.5 L 238 444.5 L 239 445.5 L 239 467.5 L 240 468.5 L 240 493.5 L 241 494.5 L 241 521.5 L 242 522.5 L 242 551.5 L 243 552.5 L 243 578.5 L 242 578.5 L 241 569.5 L 240 568.5 L 240 510.5 L 239 509.5 L 239 500.5 L 238 499.5 L 238 487.5 L 237 486.5 L 237 467.5 L 236 466.5 L 236 421.5 L 235 420.5 L 235 399.5 L 234 398.5 L 234 387.5 Q 232 386.5 233 382.5 L 231 380.5 L 232 379.5 L 232 374.5 L 233 373.5 L 233.5 368 Z " /><path fill="rgb(0,0,0)" stroke="rgb(0,0,0)" stroke-width="1" opacity="0.03137254901960784" d="M 78.5 407 L 94.5 407 L 95.5 408 L 106.5 408 L 107.5 409 L 120.5 409 L 121.5 410 L 137.5 410 L 138.5 411 L 153.5 411 L 154.5 412 L 168.5 412 L 169.5 413 L 181.5 413 L 182.5 414 L 193 414.5 L 194 419.5 L 178.5 420 L 177.5 419 L 162.5 419 L 161.5 418 L 148.5 418 L 147.5 417 L 134.5 417 L 133.5 416 L 120.5 416 L 119.5 415 L 89.5 414 L 88.5 413 L 79.5 413 L 77 411.5 L 78.5 407 Z " /><path fill="rgb(0,0,0)" stroke="rgb(0,0,0)" stroke-width="1" opacity="0.03137254901960784" d="M 196.5 414 L 200 414.5 Q 200.8 419.3 198.5 421 L 196 419.5 L 195 415.5 L 196.5 414 Z " /><path fill="rgb(0,0,0)" stroke="rgb(0,0,0)" stroke-width="1" opacity="0.03137254901960784" d="M 75.5 415 L 79 415.5 L 73 433.5 L 71 436.5 L 69 444.5 L 67 447.5 L 50 498.5 L 50 501.5 L 48 507.5 L 46.5 509 L 43 508.5 L 44 501.5 L 49 488.5 L 49 485.5 L 53 475.5 L 53 472.5 L 62 445.5 L 64 442.5 L 65 437.5 L 67 434.5 L 71 422.5 L 75.5 415 Z " /><path fill="rgb(0,0,0)" stroke="rgb(0,0,0)" stroke-width="1" opacity="0.03137254901960784" d="M 82.5 417 L 86 417.5 L 83 426.5 L 83 429.5 L 80 438.5 L 78 441.5 L 75 452.5 L 73 455.5 L 71 463.5 L 69 466.5 L 67 474.5 L 65 477.5 L 55.5 509 L 51 508.5 L 53 498.5 L 69 450.5 L 71 447.5 L 73 439.5 L 75 436.5 L 81 418.5 L 82.5 417 Z " /><path fill="rgb(0,0,0)" stroke="rgb(0,0,0)" stroke-width="1" opacity="0.03137254901960784" d="M 88.5 418 L 118.5 419 L 119.5 420 L 131.5 420 L 132.5 421 L 159.5 422 L 160.5 423 L 175.5 423 L 176.5 424 L 195.5 424 L 198 425.5 Q 196.2 427.7 197 432.5 L 196 433.5 L 195 445.5 L 193 451.5 L 193 456.5 L 192 457.5 L 192 461.5 L 190 467.5 L 189 477.5 L 187 482.5 L 186 491.5 L 184 496.5 L 184 500.5 L 183 501.5 L 182 509.5 L 181 510.5 L 181 513.5 L 180 514.5 L 178.5 522 L 165.5 522 L 164.5 521 L 157.5 521 L 156.5 520 L 149.5 520 L 148.5 519 L 140.5 519 L 139.5 518 L 132.5 518 L 131.5 517 L 113.5 516 L 112.5 515 L 94.5 514 L 93.5 513 L 85.5 513 L 84.5 512 L 75.5 512 L 74.5 511 L 66.5 511 L 65.5 510 L 58 509.5 L 60 503.5 L 60 500.5 L 70 470.5 L 72 467.5 L 74 459.5 L 80 445.5 L 88.5 418 Z " /><path fill="rgb(0,0,0)" stroke="rgb(0,0,0)" stroke-width="1" opacity="0.03137254901960784" d="M 214.5 419 L 216 420.5 L 213.5 423 L 213 421.5 L 214.5 419 Z " /><path fill="rgb(0,0,0)" stroke="rgb(0,0,0)" stroke-width="1" opacity="0.03137254901960784" d="M 42.5 511 L 57.5 512 L 58.5 513 L 66.5 513 L 67.5 514 L 76.5 514 L 77.5 515 L 85.5 515 L 86.5 516 L 94.5 516 L 95.5 517 L 104.5 517 L 105.5 518 L 113.5 518 L 114.5 519 L 132.5 520 L 133.5 521 L 149.5 522 L 150.5 523 L 157.5 523 L 158.5 524 L 165.5 524 L 166.5 525 L 172 525.5 L 171.5 531 Q 167.5 532 166.5 530 L 159.5 530 L 158.5 529 L 150.5 529 L 149.5 528 L 141.5 528 L 140.5 527 L 122.5 526 L 121.5 525 L 103.5 524 L 102.5 523 L 93.5 523 L 92.5 522 L 74.5 521 L 73.5 520 L 64.5 520 L 63.5 519 L 55.5 519 L 54.5 518 L 44.5 518 L 40 515.5 L 42.5 511 Z " /><path fill="rgb(0,0,0)" stroke="rgb(0,0,0)" stroke-width="1" opacity="0.03137254901960784" d="M 38.5 519 Q 41.5 518.5 42 520.5 Q 40.3 522.3 41 526.5 L 42.5 527 L 45.5 522 L 50 522.5 L 27 591.5 L 25 594.5 L 23 602.5 L 18.5 613 L 10.5 614 L 6 612.5 L 23 561.5 L 25 558.5 L 30 541.5 L 32 538.5 L 38.5 519 Z " /><path fill="rgb(0,0,0)" stroke="rgb(0,0,0)" stroke-width="1" opacity="0.03137254901960784" d="M 53.5 523 L 62.5 523 L 63.5 524 L 81.5 525 L 82.5 526 L 90.5 526 L 91.5 527 L 100.5 527 L 101.5 528 L 110.5 528 L 111.5 529 L 119.5 529 L 120.5 530 L 129.5 530 L 130.5 531 L 138.5 531 L 139.5 532 L 147.5 532 L 148.5 533 L 165.5 534 L 166.5 535 L 172.5 535 L 175 536.5 Q 175.7 539.8 174 540.5 L 174 546.5 L 173 547.5 L 173 552.5 L 172 553.5 L 172 558.5 L 171 559.5 L 171 563.5 L 170 564.5 L 168 578.5 L 166 583.5 L 164 597.5 L 162 602.5 L 162 607.5 L 161 608.5 L 160 618.5 L 159 619.5 L 159 624.5 L 158 625.5 L 158 629.5 L 157 630.5 L 156 637.5 L 158.5 639 L 173 639.5 L 0.5 640 L 0 613.5 L 1 613.5 L 2.5 616 L 5.5 617 L 19.5 617 L 22 615.5 L 29 594.5 L 31 591.5 L 53.5 523 Z " /><path fill="rgb(0,0,0)" stroke="rgb(0,0,0)" stroke-width="1" opacity="0.03137254901960784" d="M 175.5 526 L 178 526.5 Q 178.8 530.3 176.5 531 L 175 530.5 L 175.5 526 Z " /><path fill="rgb(0,0,0)" stroke="rgb(0,0,0)" stroke-width="1" opacity="0.03137254901960784" d="M 191.5 533 L 195 534.5 L 192.5 538 Q 189.8 536.8 191.5 533 Z " /><path fill="rgb(0,0,0)" stroke="rgb(0,0,0)" stroke-width="1" opacity="0.9764705882352941" d="M 300.5 0 L 311.5 0 L 312.5 1 L 316.5 1 L 317.5 2 L 325 3.5 L 326 8.5 L 321.5 14 L 311 14.5 L 311 27.5 L 309 32.5 L 310 33.5 L 310 37.5 L 312 43.5 L 312 48.5 L 313 49.5 L 313 54.5 L 314 55.5 L 314 61.5 L 315 62.5 L 315 68.5 L 316 69.5 L 316 75.5 L 317 76.5 L 317 82.5 L 318 83.5 L 318 89.5 L 319 90.5 L 319 95.5 L 320 96.5 L 321 107.5 Q 322.8 108.3 322 111.5 L 323.5 113 L 344.5 113 L 345.5 114 L 352.5 115 L 354 116.5 Q 355.5 125.5 350.5 128 L 326.5 127 L 326 132.5 L 327 133.5 Q 325.8 138.3 328 139.5 L 328 145.5 L 329 146.5 L 329 152.5 L 330 153.5 L 330 160.5 L 331 161.5 L 331 167.5 L 332 168.5 L 332 174.5 L 333 175.5 L 334 188.5 L 335 189.5 L 336 200.5 L 338 206.5 L 338 216.5 L 339 217.5 L 339 222.5 L 340 223.5 L 340 228.5 L 341 229.5 L 341 234.5 L 342 235.5 L 342 240.5 L 343 241.5 L 343 246.5 L 344 247.5 L 344 252.5 L 345 253.5 L 345 258.5 L 346 259.5 L 346 264.5 L 347 265.5 L 347 270.5 L 348 271.5 L 348 276.5 L 349 277.5 L 349 282.5 L 350 283.5 Q 348.7 288.3 351 289.5 L 351 295.5 L 352 296.5 L 352 301.5 L 353 302.5 L 353 307.5 L 354 308.5 L 354 313.5 L 355 314.5 L 355 319.5 L 356 320.5 L 356 325.5 L 357 326.5 Q 355.8 331.3 358 332.5 L 358 338.5 L 359 339.5 L 359 344.5 L 360 345.5 L 360 350.5 L 361 351.5 L 361 356.5 L 362 357.5 Q 360.8 362.3 363 363.5 L 363 369.5 L 364 370.5 L 364 375.5 L 365 376.5 L 365 381.5 L 366 382.5 L 366 387.5 L 367 388.5 Q 365.8 393.3 368 394.5 L 368 400.5 L 369 401.5 L 369 406.5 L 370 407.5 L 370 412.5 L 371 413.5 L 371 418.5 L 372 419.5 Q 370.7 424.2 373 425.5 L 373 431.5 L 374 432.5 L 374 437.5 L 375 438.5 L 375 443.5 L 376 444.5 L 376 449.5 L 377 450.5 Q 375.8 455.3 378 456.5 L 378 462.5 L 379 463.5 L 379 468.5 L 380 469.5 L 380 474.5 L 381 475.5 L 381 480.5 L 382 481.5 Q 380.8 486.3 383 487.5 L 383 493.5 L 384 494.5 L 384 499.5 L 385 500.5 L 385 505.5 L 386 506.5 L 386 511.5 L 387 512.5 L 387 517.5 L 388 518.5 L 388 523.5 L 389 524.5 Q 387.8 529.3 390 530.5 L 390 536.5 L 391 537.5 L 391 542.5 L 392 543.5 L 392 548.5 L 393 549.5 L 393 554.5 L 394 555.5 L 394 560.5 L 395 561.5 L 395 566.5 L 396 567.5 L 396 572.5 L 397 573.5 L 397 578.5 L 398 579.5 L 398 584.5 L 399 585.5 L 399 590.5 L 400 591.5 L 400 596.5 L 402 600.5 L 402 603.5 L 397.5 607 L 390.5 608 Q 389.5 606 385.5 607 L 384 605.5 L 383 602.5 L 382 587.5 L 381 586.5 L 381 579.5 L 380 578.5 L 380 572.5 L 379 571.5 L 379 565.5 L 378 564.5 L 378 558.5 L 377 557.5 Q 378.3 552.7 376 551.5 L 376 545.5 L 375 544.5 L 375 540.5 L 374 539.5 L 374 534.5 L 373 533.5 L 373 529.5 L 371 524.5 L 371 520.5 L 369 515.5 L 369 511.5 L 365 504.5 L 365 502.5 L 362 497.5 L 360 490.5 L 357 485.5 L 357 483.5 L 349 465.5 L 348 460.5 L 344 452.5 L 343 447.5 L 341 444.5 L 340 439.5 L 338 436.5 L 337 431.5 L 335 428.5 L 334 423.5 L 332 420.5 L 331 415.5 L 324 399.5 L 323 394.5 L 321 391.5 L 320 386.5 L 318 383.5 L 318 381.5 L 316 378.5 L 316 376.5 L 314 373.5 L 314 371.5 L 312 368.5 L 312 366.5 L 310 363.5 L 306 351.5 L 303 346.5 L 303 344.5 L 295.5 328 L 294 331.5 L 293 339.5 L 292 340.5 L 292 344.5 L 291 345.5 L 291 349.5 L 290 350.5 L 290 354.5 L 289 355.5 L 287 369.5 L 285 374.5 L 284 384.5 L 283 385.5 L 283 389.5 L 282 390.5 L 282 394.5 L 281 395.5 L 281 399.5 L 280 400.5 L 280 404.5 L 279 405.5 L 279 409.5 L 278 410.5 L 278 414.5 L 277 415.5 L 277 419.5 L 276 420.5 L 276 424.5 L 275 425.5 L 275 429.5 L 274 430.5 L 274 434.5 L 273 435.5 L 273 439.5 L 272 440.5 L 272 444.5 L 271 445.5 L 271 449.5 L 270 450.5 L 270 454.5 L 269 455.5 L 269 459.5 L 268 460.5 L 266 474.5 L 265 475.5 L 265 480.5 L 263 485.5 L 263 489.5 L 262 490.5 L 262 494.5 L 261 495.5 L 259 509.5 L 258 510.5 L 257 518.5 L 256 519.5 L 256 523.5 L 255 524.5 L 254 532.5 L 253 533.5 L 253 553.5 L 254 554.5 L 254 584.5 L 251.5 587 Q 248.3 586.3 247.5 588 L 242 584.5 L 239 577.5 Q 240 573.5 238 572.5 L 238 563.5 L 237 562.5 L 237 530.5 L 238 529.5 L 238 520.5 L 237 519.5 L 237 504.5 L 236 503.5 L 236 493.5 L 235 492.5 L 235 478.5 L 234 477.5 L 233 406.5 L 232 405.5 L 232 392.5 L 230.5 388 L 229 395.5 L 228 396.5 L 227 405.5 L 225 410.5 L 225 414.5 L 224 415.5 L 224 419.5 L 223 420.5 L 223 424.5 L 222 425.5 L 222 429.5 L 221 430.5 L 219 444.5 L 218 445.5 L 218 450.5 L 217 451.5 L 217 455.5 L 215 461.5 L 215 466.5 L 213 472.5 L 213 477.5 L 212 478.5 L 212 482.5 L 210 488.5 L 210 493.5 L 208 499.5 L 208 504.5 L 206 510.5 L 206 515.5 L 205 516.5 L 205 520.5 L 204 521.5 L 204 525.5 L 202 531.5 L 202 536.5 L 201 537.5 L 201 541.5 L 200 542.5 L 200 546.5 L 199 547.5 L 199 551.5 L 198 552.5 L 198 556.5 L 197 557.5 L 195 571.5 L 194 572.5 L 193 580.5 L 191 585.5 L 191 589.5 L 190 590.5 L 190 594.5 L 189 595.5 L 189 599.5 L 188 600.5 L 188 604.5 L 187 605.5 L 187 609.5 L 186 610.5 L 186 614.5 L 185 615.5 L 183 629.5 L 181 634.5 L 181 638.5 L 179.5 640 L 173.5 640 L 172.5 639 L 158.5 639 L 156 637.5 L 157 630.5 L 158 629.5 L 158 625.5 L 159 624.5 L 160 613.5 L 162 607.5 L 162 602.5 L 164 597.5 L 166 583.5 L 168 578.5 L 168 574.5 L 169 573.5 L 169 569.5 L 170 568.5 L 170 564.5 L 172 558.5 L 172 553.5 L 173 552.5 L 173 547.5 L 174 546.5 L 174 540.5 Q 175.7 539.8 175 536.5 L 172.5 535 L 166.5 535 L 165.5 534 L 157.5 534 L 156.5 533 L 148.5 533 L 147.5 532 L 139.5 532 L 138.5 531 L 130.5 531 L 129.5 530 L 120.5 530 L 119.5 529 L 111.5 529 L 110.5 528 L 101.5 528 L 100.5 527 L 91.5 527 L 90.5 526 L 82.5 526 L 81.5 525 L 72.5 525 L 71.5 524 L 63.5 524 L 62.5 523 L 53.5 523 L 31 591.5 L 29 594.5 L 27 602.5 L 25 605.5 L 21.5 616 L 19.5 617 L 5.5 617 L 1 614.5 L 0 612.5 L 0 602.5 L 13 563.5 L 15 560.5 L 22 537.5 L 24 534.5 L 29 517.5 L 31 514.5 L 36 497.5 L 38 494.5 L 42 480.5 L 44 477.5 L 48 463.5 L 50 460.5 L 55 443.5 L 57 440.5 L 62 423.5 L 64 420.5 L 75 385.5 L 77 382.5 L 86 355.5 L 86 352.5 L 96 324.5 L 96 321.5 L 110 279.5 L 112 276.5 L 116 264.5 L 116 261.5 L 131 218.5 L 131 215.5 L 137 197.5 L 139 194.5 L 152 154.5 L 154 151.5 L 155 146.5 L 157 143.5 L 163 125.5 L 165 122.5 L 168 113.5 L 169 106.5 L 171 102.5 L 171 99.5 L 174 92.5 L 174 89.5 L 186 55.5 L 186 52.5 L 195 27.5 L 195 24.5 L 197 18.5 L 189.5 17 L 185 12.5 L 184 10.5 L 186.5 7 L 189.5 6 Q 190.3 7.8 193.5 7 L 194.5 6 L 222.5 5 L 223.5 4 L 238.5 4 L 239.5 3 L 257.5 3 L 258.5 2 L 290.5 2 L 291.5 1 Q 292.5 3 293.5 1 L 299.5 1 L 300.5 0 Z M 306 3 Q 304 5 300 4 L 299 6 L 301 7 L 311 8 L 312 9 L 322 9 L 322 7 L 315 4 Q 308 5 306 3 Z M 287 4 L 286 5 L 257 5 L 256 6 L 239 6 L 238 7 L 223 7 L 222 8 L 208 8 L 207 9 L 193 9 Q 190 11 193 12 L 213 11 L 214 10 L 259 10 L 260 9 L 279 9 L 283 7 L 296 7 L 296 5 L 287 4 Z M 282 11 L 281 16 L 279 18 L 278 29 L 277 30 L 277 35 L 276 36 L 276 41 L 275 42 L 275 47 L 273 53 L 273 58 L 272 59 L 270 73 L 269 74 L 269 78 L 268 79 L 268 83 L 266 88 L 266 92 L 264 97 L 263 107 L 262 108 L 262 115 L 260 119 L 259 128 L 257 133 L 256 145 L 254 151 L 254 155 L 253 156 L 253 160 L 250 167 L 249 180 L 247 185 Q 245 186 247 187 L 246 190 L 246 196 L 245 197 L 245 201 L 244 202 L 243 208 Q 241 209 243 210 L 242 211 L 242 217 L 239 223 L 239 233 L 237 239 L 237 243 L 236 244 L 236 249 Q 234 249 235 254 L 233 256 L 233 264 Q 231 264 232 268 L 229 275 L 229 281 L 228 282 L 227 295 L 226 296 L 225 304 L 223 308 L 223 313 L 221 318 L 221 322 L 220 323 L 220 328 L 218 334 L 218 338 L 217 339 L 216 349 L 215 350 L 215 355 L 213 361 L 213 365 L 212 366 L 212 371 L 210 377 L 210 381 L 209 382 L 209 386 L 208 387 L 208 391 L 207 392 L 207 396 L 206 397 L 206 401 L 205 402 L 205 406 L 202 415 L 202 421 L 199 430 L 199 436 L 198 437 L 198 442 L 197 443 L 197 448 L 195 454 L 195 459 L 193 465 L 193 469 L 192 470 L 192 475 L 190 480 L 190 484 L 189 485 L 189 489 L 188 490 L 188 494 L 186 499 L 186 503 L 184 508 L 184 511 L 183 512 L 183 516 L 181 521 L 180 532 L 177 539 L 177 546 Q 175 547 176 552 L 175 553 L 175 558 L 173 564 L 173 568 L 172 569 L 172 573 L 171 574 L 171 578 L 170 579 L 170 583 L 168 588 L 166 602 L 165 603 L 165 607 L 164 608 L 164 612 L 163 613 L 163 618 L 162 619 L 162 624 L 161 625 L 161 629 L 160 630 Q 161 634 159 636 L 170 636 L 171 637 L 178 637 L 179 635 L 181 621 L 182 620 L 182 616 L 183 615 L 183 611 L 184 610 L 184 606 L 186 601 L 188 587 L 190 582 L 192 568 L 194 563 L 196 549 L 197 548 L 197 544 L 198 543 L 198 538 L 199 537 L 201 523 L 202 522 L 202 517 L 204 511 L 204 507 L 205 506 L 205 501 L 207 495 L 207 490 L 209 484 L 209 479 L 211 473 L 211 469 L 212 468 L 212 463 L 214 457 L 214 453 L 215 452 L 215 447 L 217 441 L 217 437 L 218 436 L 218 432 L 219 431 L 219 427 L 220 426 L 220 422 L 221 421 L 221 417 L 222 416 L 222 412 L 223 411 L 223 407 L 225 402 L 225 398 L 227 393 L 228 385 L 229 384 L 229 380 L 230 379 L 230 374 L 231 373 L 231 368 L 232 367 L 233 357 L 234 356 L 235 346 L 236 345 L 237 335 L 240 328 L 240 322 L 241 321 L 241 315 Q 243 313 242 309 L 243 308 L 243 303 L 244 302 L 244 297 L 245 296 L 245 291 L 247 285 L 247 281 L 248 280 L 248 276 L 249 275 L 249 271 L 250 270 L 250 266 L 251 265 L 251 261 L 253 256 L 255 242 L 256 241 L 256 237 L 257 236 L 257 232 L 258 231 L 258 222 L 261 213 L 261 206 L 263 202 L 263 196 L 264 195 L 264 190 L 265 189 L 265 184 L 266 183 L 267 173 L 268 172 L 268 167 L 270 161 L 270 157 L 271 156 L 271 152 L 272 151 L 272 147 L 273 146 L 273 142 L 276 133 L 276 129 L 277 128 L 278 116 L 281 108 L 281 102 Q 283 100 282 96 L 283 95 L 283 89 L 284 88 L 284 83 L 285 82 L 285 77 L 287 71 L 287 66 L 289 60 L 289 56 L 290 55 L 290 51 L 293 42 L 293 39 L 294 38 L 293 36 L 294 31 L 292 30 L 286 25 L 285 30 L 284 31 L 284 35 L 283 36 L 283 40 L 282 41 L 282 45 L 281 46 L 281 50 L 279 55 L 279 59 L 278 60 L 278 64 L 277 65 L 277 69 L 276 70 L 276 74 L 274 79 L 273 88 L 272 89 L 272 93 L 271 94 L 271 98 L 270 99 L 270 103 L 269 104 L 269 108 L 268 109 L 268 113 L 267 114 L 267 118 L 266 119 L 266 123 L 265 124 L 265 128 L 264 129 L 264 134 L 262 140 L 262 144 L 261 145 L 260 156 L 258 162 L 258 168 L 257 169 L 257 174 L 256 175 L 256 180 L 255 181 L 255 187 L 254 188 L 254 194 Q 252 195 255 196 L 257 192 L 259 178 L 260 177 L 260 173 L 261 172 L 261 168 L 262 167 L 262 163 L 263 162 L 263 157 L 265 151 L 265 146 L 267 140 L 267 136 L 268 135 L 268 131 L 269 130 L 269 125 L 271 120 L 271 111 L 270 110 L 271 105 L 274 103 L 275 99 L 275 95 Q 277 92 278 95 Q 279 98 277 100 Q 276 104 278 106 L 278 113 L 273 120 L 272 129 L 270 135 L 270 140 L 268 146 L 268 150 L 267 151 L 267 156 L 265 162 L 265 167 L 263 173 L 263 177 L 262 178 L 262 182 L 261 183 L 261 187 L 260 188 L 260 192 L 258 197 L 259 214 Q 259 217 255 216 L 254 222 L 253 223 L 253 229 L 252 230 L 252 235 L 251 236 L 251 241 L 249 247 L 249 252 L 248 253 L 247 262 L 246 263 L 246 267 L 245 268 L 245 273 L 243 279 L 243 283 L 242 284 L 242 289 L 240 295 L 240 300 L 239 301 L 239 306 L 238 307 L 239 310 L 239 319 L 238 321 L 236 321 L 234 325 L 234 330 L 232 336 L 232 341 L 230 347 L 230 351 L 229 352 L 229 357 L 227 363 L 227 367 L 226 368 L 226 373 L 224 379 L 224 384 L 222 390 L 222 395 L 220 401 L 219 412 L 218 413 L 218 423 Q 214 425 218 427 Q 217 431 214 433 L 214 438 L 212 444 L 212 449 L 210 455 L 210 459 L 209 460 L 209 464 L 208 465 L 208 469 L 207 470 L 207 475 L 205 481 L 205 485 L 204 486 L 204 490 L 203 491 L 203 495 L 202 496 L 202 512 L 198 518 L 197 525 L 195 528 L 195 530 L 194 531 L 197 534 L 197 537 L 195 540 Q 190 541 189 539 L 189 533 L 193 528 L 196 516 L 193 514 L 191 512 L 194 509 L 200 497 L 202 483 L 203 482 L 203 478 L 204 477 L 204 473 L 205 472 L 205 468 L 206 467 L 206 463 L 207 462 L 207 457 L 209 451 L 209 447 L 210 446 L 210 441 L 212 435 L 211 420 L 215 417 L 216 414 L 216 410 L 217 409 L 218 398 L 220 392 L 221 382 L 222 381 L 222 376 L 224 370 L 224 366 L 225 365 L 225 360 L 227 354 L 227 349 L 229 343 L 229 339 L 230 338 L 231 328 L 232 327 L 232 321 L 231 320 L 231 313 L 236 307 L 237 296 L 238 295 L 238 290 L 240 284 L 240 279 L 242 273 L 242 269 L 243 268 L 243 264 L 244 263 L 244 259 L 245 258 L 245 253 L 247 247 L 248 237 L 249 236 L 250 224 L 251 223 L 251 208 L 252 205 L 255 203 L 256 199 Q 255 197 253 197 L 248 211 L 246 229 L 245 230 L 243 244 L 242 245 L 242 249 L 241 250 L 241 254 L 240 255 L 240 259 L 239 260 L 239 264 L 238 265 L 238 269 L 237 270 L 237 274 L 236 275 L 236 279 L 235 280 L 235 284 L 234 285 L 234 289 L 233 290 L 233 294 L 232 295 L 232 299 L 231 300 L 231 305 L 229 311 L 229 315 L 228 316 L 228 321 L 226 327 L 226 331 Q 225 334 223 331 L 224 330 L 225 320 L 227 314 L 227 309 L 229 303 L 229 299 L 230 298 L 230 294 L 231 293 L 231 289 L 232 288 L 232 284 L 233 283 L 233 279 L 234 278 L 234 274 L 235 273 L 235 269 L 236 268 L 236 264 L 237 263 L 237 259 L 238 258 L 239 249 L 240 248 L 240 243 L 242 237 L 242 233 L 243 232 L 243 228 L 244 227 L 246 209 L 247 208 L 247 205 L 249 199 L 251 196 L 252 184 Q 254 182 253 178 L 254 177 L 254 171 Q 256 169 255 165 L 256 164 L 256 159 L 258 153 L 258 148 L 259 147 L 259 142 L 260 141 L 261 132 L 262 131 L 262 126 L 264 120 L 264 116 L 265 115 L 265 111 L 266 110 L 266 106 L 267 105 L 267 101 L 268 100 L 268 96 L 269 95 L 269 91 L 270 90 L 270 86 L 272 81 L 274 67 L 275 66 L 276 57 L 278 52 L 278 48 L 280 42 L 280 38 L 281 37 L 281 33 L 283 28 L 283 24 Q 285 23 283 22 L 284 12 L 282 11 Z M 203 16 L 201 18 L 198 27 L 198 30 L 177 92 L 177 95 L 175 99 L 175 102 L 170 117 L 172 117 L 175 110 L 176 104 L 179 99 L 181 89 L 184 82 L 184 79 L 188 69 L 188 66 L 201 29 L 201 24 L 204 20 Q 205 17 203 16 Z M 274 16 L 273 17 L 266 17 L 265 18 L 254 18 L 253 19 L 234 19 L 232 23 L 232 30 Q 230 31 231 35 L 230 36 L 230 53 L 231 54 L 231 69 L 232 70 L 233 99 L 257 99 Q 257 97 261 98 L 262 97 L 263 89 L 265 84 L 267 70 L 268 69 L 268 65 L 270 59 L 270 54 L 272 48 L 272 43 Q 274 41 273 37 L 274 36 L 274 31 L 275 30 L 275 25 L 276 24 L 276 19 L 277 18 Q 277 16 274 16 Z M 204 29 L 190 68 L 190 71 L 184 88 L 184 91 L 181 98 L 182 102 L 185 101 L 189 89 L 190 90 L 188 101 L 192 101 L 193 100 L 194 93 L 196 89 L 196 86 L 199 79 L 199 76 L 212 38 L 209 35 L 204 29 Z M 303 33 Q 301 36 303 37 L 303 43 L 304 44 L 304 49 L 305 50 L 305 56 Q 307 57 306 62 L 307 63 L 307 69 L 308 70 L 309 81 L 310 82 L 310 88 L 311 89 L 312 100 L 313 101 L 313 107 L 314 108 L 315 119 L 316 120 L 316 126 L 317 127 Q 316 131 318 133 L 318 138 L 319 139 L 319 145 Q 321 146 320 151 L 321 152 L 321 157 L 322 158 L 322 164 Q 324 165 323 170 L 324 171 L 324 176 L 325 177 L 325 182 L 326 183 L 326 189 Q 328 190 327 195 L 328 196 L 328 201 L 329 202 L 329 207 L 330 208 L 330 213 L 331 214 L 331 220 Q 333 221 332 226 L 333 227 L 333 232 L 334 233 L 334 238 L 335 239 L 335 244 L 336 245 L 336 251 Q 338 252 337 257 L 338 258 L 338 263 L 339 264 L 339 269 L 340 270 L 340 275 L 341 276 L 341 281 L 342 282 L 342 288 Q 344 289 343 294 L 344 295 L 344 300 L 345 301 L 345 306 L 346 307 L 346 312 L 347 313 L 347 318 L 348 319 L 348 324 L 349 325 L 349 330 L 350 331 L 350 337 Q 352 338 351 343 L 352 344 L 352 349 L 353 350 L 353 355 L 354 356 L 354 361 L 355 362 L 355 367 L 356 368 L 356 373 L 357 374 L 357 379 L 358 380 L 358 386 L 359 387 L 359 392 L 360 393 L 360 398 L 361 399 L 362 410 L 363 411 L 363 416 L 364 417 L 364 422 L 365 423 L 365 428 L 366 429 L 366 434 L 367 435 L 367 440 L 368 441 L 368 446 L 369 447 L 369 453 L 370 454 L 370 459 L 371 460 L 371 465 L 372 466 L 373 477 L 374 478 L 374 483 L 375 484 L 375 489 L 376 490 L 376 495 L 377 496 L 377 501 L 378 502 L 378 507 L 379 508 L 379 514 L 380 515 L 380 520 L 381 521 L 381 526 L 382 527 L 382 532 L 383 533 L 383 538 L 384 539 L 385 550 L 386 551 L 386 556 L 387 557 L 387 562 L 388 563 L 388 568 L 389 569 L 389 575 L 390 576 L 390 581 L 391 582 L 391 587 L 392 588 L 392 593 L 393 594 Q 392 598 394 601 L 397 602 L 398 600 L 397 599 L 396 588 L 395 587 L 395 582 L 394 581 L 394 576 L 393 575 L 393 570 L 392 569 L 392 564 L 391 563 L 391 558 L 390 557 L 390 552 L 389 551 L 389 545 Q 387 543 388 539 L 387 538 L 387 533 L 386 532 L 386 527 L 385 526 L 385 521 L 384 520 L 384 515 L 383 514 L 383 509 L 382 508 L 382 502 Q 380 500 381 496 L 380 495 L 380 490 L 379 489 L 379 484 L 378 483 L 378 478 L 377 477 L 377 471 Q 375 469 376 465 L 375 464 L 375 459 L 374 458 L 374 453 L 373 452 L 373 447 L 372 446 L 372 440 Q 370 438 371 434 L 370 433 L 370 428 L 369 427 L 369 422 L 368 421 L 368 416 L 367 415 L 367 409 Q 365 407 366 403 L 365 402 L 365 397 L 364 396 L 364 391 L 363 390 L 363 385 L 362 384 L 362 379 L 361 378 L 361 372 Q 359 370 360 366 L 359 365 L 359 360 L 358 359 L 358 354 L 357 353 L 357 348 L 356 347 L 356 341 Q 354 339 355 335 L 354 334 L 354 329 L 353 328 L 353 323 L 352 322 L 352 317 L 351 316 L 351 310 L 350 309 L 350 304 L 349 303 L 349 298 L 348 297 L 348 292 L 347 291 L 347 286 L 346 285 L 346 280 L 345 279 L 345 274 L 344 273 L 343 262 L 342 261 L 342 255 L 341 254 L 341 249 L 340 248 L 340 243 L 339 242 L 339 237 L 338 236 L 338 231 L 337 230 L 337 225 L 336 224 L 335 215 L 333 214 L 331 212 L 334 207 Q 332 205 333 201 L 332 200 L 332 195 L 331 194 L 331 189 L 330 188 L 329 175 L 328 174 L 328 168 L 327 167 L 327 160 L 326 159 L 326 153 L 325 152 L 325 146 L 324 145 L 324 139 L 323 138 L 323 133 L 322 132 L 321 122 L 318 120 L 317 117 L 320 115 Q 318 113 319 109 L 318 108 L 318 103 L 317 102 L 316 91 L 315 90 L 314 77 L 313 76 L 313 70 L 312 69 L 312 63 L 311 62 L 311 56 L 310 55 L 310 50 L 309 49 L 309 44 L 307 38 L 307 34 L 303 33 Z M 299 34 L 297 37 L 299 47 L 300 48 L 300 52 L 301 53 L 301 57 L 302 58 L 302 63 L 303 64 L 304 78 L 305 79 L 305 85 L 306 86 L 306 93 L 307 94 L 307 101 L 308 102 L 308 108 L 309 109 L 310 117 L 311 118 L 311 123 Q 313 124 312 129 L 313 130 L 313 135 L 314 136 L 314 141 L 315 142 L 315 147 L 316 148 L 316 163 L 320 174 L 320 182 L 321 183 L 321 195 L 323 198 L 323 204 L 325 209 L 325 219 Q 327 220 326 225 L 327 226 L 327 231 L 328 232 L 328 237 L 329 238 L 329 244 Q 331 245 330 250 L 331 251 L 331 256 L 332 257 L 332 262 L 333 263 L 333 268 L 334 269 L 334 274 L 335 275 L 335 280 L 336 281 L 336 286 L 337 287 L 337 292 L 338 293 L 338 298 L 339 299 L 339 304 L 340 305 L 340 310 L 341 311 L 341 316 L 342 317 L 342 322 L 343 323 L 343 328 L 344 329 L 344 334 L 345 335 L 345 340 L 346 341 L 346 346 L 347 347 L 347 352 L 348 353 L 348 358 L 349 359 L 349 364 L 350 365 L 350 370 L 351 371 L 351 376 L 352 377 L 352 383 Q 354 384 353 389 L 354 390 L 354 396 Q 356 397 355 402 L 356 403 L 357 415 L 358 416 L 359 429 L 360 430 L 360 436 L 361 437 L 361 443 L 362 444 L 362 451 L 363 452 L 363 458 L 364 459 L 364 466 L 365 467 L 365 472 L 368 481 L 368 484 L 369 485 L 370 494 L 371 495 L 371 501 L 372 502 L 372 514 L 374 519 L 375 527 L 376 528 L 377 537 L 378 538 L 378 543 L 379 544 L 379 549 L 380 550 L 380 555 L 381 556 L 381 562 Q 383 563 382 568 L 383 569 L 383 576 L 384 577 L 384 583 L 385 584 L 385 591 L 386 592 L 386 598 Q 388 599 389 602 L 391 601 L 390 590 L 389 589 L 389 584 L 388 583 L 388 578 L 387 577 L 387 571 L 386 570 L 385 559 L 384 558 L 384 553 L 383 552 L 383 547 L 382 546 L 382 541 L 381 540 L 381 535 L 380 534 L 380 529 L 379 528 L 379 523 L 378 522 L 378 517 L 377 516 L 377 510 Q 375 508 376 504 L 375 503 L 375 498 L 374 497 L 374 492 L 373 491 L 373 486 L 372 485 L 372 480 L 371 479 L 371 474 L 370 473 L 370 468 L 369 467 L 369 462 L 368 461 L 368 456 L 367 455 L 367 449 Q 365 447 366 443 L 365 442 L 365 437 L 364 436 L 364 431 L 363 430 L 363 425 L 362 424 L 362 419 L 361 418 L 361 413 L 360 412 L 360 407 L 359 406 L 359 401 L 358 400 L 358 395 L 357 394 L 357 389 L 356 388 L 356 382 Q 354 380 355 376 L 354 375 L 354 370 L 353 369 L 353 364 L 352 363 L 352 358 L 351 357 L 351 352 L 350 351 L 350 346 L 349 345 L 349 340 L 348 339 L 348 334 L 347 333 L 347 327 Q 345 325 346 321 L 345 320 L 345 315 L 344 314 L 344 309 L 343 308 L 343 303 L 342 302 L 342 297 L 341 296 L 341 291 L 340 290 L 340 284 Q 338 282 339 278 L 338 277 L 338 272 L 337 271 L 337 266 L 336 265 L 336 260 L 335 259 L 335 254 L 334 253 L 334 247 Q 332 245 333 241 L 332 240 L 332 235 L 331 234 L 331 229 L 330 228 L 330 223 L 329 222 L 329 216 Q 327 214 328 210 L 327 209 L 327 204 L 326 203 L 326 198 L 325 197 L 325 192 L 324 191 L 324 185 Q 322 183 323 179 L 322 178 L 322 173 L 321 172 L 321 167 L 320 166 L 320 160 L 319 159 L 318 148 L 317 147 L 317 141 Q 315 139 316 135 L 315 134 L 314 123 L 313 122 L 313 116 L 312 115 L 311 104 L 310 103 L 310 97 L 309 96 L 308 85 L 307 84 L 307 78 Q 305 76 306 72 L 305 71 L 305 65 Q 303 63 304 59 L 303 58 L 303 53 L 302 52 L 302 46 L 301 45 L 300 35 L 299 34 Z M 224 38 L 223 61 L 224 62 L 224 83 L 225 84 L 225 99 L 227 100 L 229 100 L 229 70 L 228 69 L 228 55 L 227 54 L 227 40 L 224 38 Z M 215 39 L 203 72 L 203 75 L 196 96 L 196 99 L 196 100 L 217 100 L 217 80 L 216 79 L 216 60 L 215 59 L 215 39 Z M 219 40 L 218 64 L 219 65 L 219 83 L 220 84 L 221 100 L 223 100 Q 224 95 222 95 L 222 73 L 221 72 L 221 52 L 220 51 L 220 41 L 219 40 Z M 296 42 L 293 50 L 293 54 L 291 60 L 291 64 L 290 65 L 290 69 L 289 70 L 289 75 L 288 76 L 288 81 L 287 82 L 287 87 L 286 88 L 285 100 L 284 101 L 284 107 L 283 109 L 291 109 L 292 110 L 302 110 L 303 111 L 306 111 L 305 98 L 304 97 L 304 90 L 303 89 L 303 82 L 302 81 L 302 74 L 301 73 L 301 67 L 300 66 L 300 61 L 299 60 L 298 50 L 296 42 Z M 258 101 Q 256 104 258 106 L 261 106 L 261 102 L 258 101 Z M 218 102 L 217 103 L 197 103 L 196 104 L 181 104 L 180 106 Q 178 107 181 108 L 211 108 L 212 107 L 248 107 L 249 106 L 255 106 L 254 102 L 225 102 L 224 103 Q 219 104 218 102 Z M 177 112 L 172 122 L 171 128 L 169 132 L 169 135 L 165 147 L 163 150 L 159 164 L 157 167 L 153 179 L 153 182 L 150 190 L 150 193 L 153 194 L 156 187 L 163 166 L 163 163 L 170 142 L 172 139 L 175 128 L 181 114 L 177 112 Z M 283 112 L 281 114 Q 282 117 280 119 L 282 120 L 293 120 L 294 121 L 301 121 L 302 122 L 309 122 L 307 114 L 295 113 L 294 112 L 283 112 Z M 228 113 Q 225 114 227 115 Q 230 116 231 114 L 228 113 Z M 235 113 L 234 115 L 239 115 L 239 114 L 235 113 Z M 197 114 L 197 115 L 215 115 L 197 114 Z M 184 115 L 178 128 L 174 142 L 172 145 L 167 160 L 167 163 L 158 190 L 156 193 L 157 195 L 161 194 L 174 153 L 176 150 L 181 133 L 184 127 Q 185 122 183 122 L 184 120 L 184 115 Z M 324 116 L 323 123 L 334 123 L 335 124 L 350 124 L 350 119 L 347 117 L 340 117 L 339 116 L 324 116 Z M 187 117 L 186 125 L 232 125 L 233 126 Q 236 127 237 125 L 250 125 L 251 126 L 257 126 L 258 118 L 187 117 Z M 169 122 L 164 133 L 163 138 L 161 141 L 160 146 L 158 149 L 156 157 L 154 160 L 151 171 L 149 174 L 123 252 L 123 255 L 119 267 L 116 272 L 112 286 L 110 289 L 101 316 L 101 319 L 92 344 L 92 347 L 75 398 L 73 401 L 65 427 L 63 430 L 57 450 L 55 453 L 51 467 L 49 470 L 45 484 L 43 487 L 39 501 L 37 504 L 32 521 L 30 524 L 25 541 L 23 544 L 15 570 L 13 573 L 3 603 L 4 611 L 8 601 L 29 537 L 35 523 L 37 517 L 37 514 L 39 511 L 39 509 L 41 507 L 43 501 L 43 498 L 47 488 L 47 485 L 53 469 L 53 466 L 59 448 L 61 445 L 63 437 L 69 424 L 69 422 L 73 415 L 73 410 L 77 404 L 79 398 L 79 395 L 81 391 L 81 388 L 83 384 L 83 381 L 88 368 L 88 365 L 94 347 L 96 344 L 99 333 L 103 325 L 104 320 L 107 315 L 108 312 L 108 306 L 111 301 L 112 294 L 120 270 L 123 264 L 123 261 L 127 251 L 127 248 L 133 230 L 135 227 L 136 222 L 141 212 L 142 206 L 143 205 L 143 200 L 145 197 L 145 195 L 147 193 L 149 187 L 149 184 L 151 180 L 151 177 L 154 168 L 156 165 L 160 151 L 162 148 L 167 133 L 167 130 L 169 126 L 169 122 Z M 280 123 L 279 126 L 282 126 L 283 124 L 280 123 Z M 287 123 Q 285 124 285 127 Q 284 129 280 128 L 278 132 L 277 140 L 276 141 L 275 149 L 274 150 L 273 159 L 272 160 L 272 165 L 270 171 L 269 181 L 268 182 L 268 187 L 267 188 L 267 194 L 266 195 L 265 204 L 283 204 L 284 205 L 305 205 L 305 201 L 306 200 L 306 195 L 307 194 L 307 189 L 308 188 L 308 183 L 309 182 L 309 177 L 310 176 L 310 172 L 313 164 L 313 150 L 312 149 L 312 143 L 311 142 L 311 137 L 309 131 L 309 127 L 308 125 L 301 125 L 300 124 L 292 124 Q 291 122 287 123 Z M 223 127 L 222 140 L 223 141 L 223 165 L 224 166 L 224 188 L 225 189 L 226 199 L 227 199 L 227 181 L 226 180 L 226 156 L 225 155 L 225 131 L 224 128 L 223 127 Z M 228 127 L 227 145 L 228 146 L 228 169 L 229 170 L 230 199 L 235 199 L 235 191 L 234 190 L 234 163 L 233 162 L 233 156 L 232 155 L 232 133 Q 230 132 231 129 Q 231 127 228 127 Z M 187 128 L 184 133 L 179 150 L 177 153 L 163 195 L 167 196 L 176 196 L 177 197 L 194 197 L 195 198 L 201 198 L 202 199 L 222 199 L 222 187 L 221 186 L 221 162 L 220 161 L 220 139 L 219 138 L 219 129 L 187 128 Z M 236 128 L 234 130 L 235 131 L 236 138 L 241 147 L 245 161 L 248 165 L 249 164 L 251 154 L 252 153 L 252 148 Q 254 146 253 142 L 254 141 L 254 136 L 255 135 L 255 130 L 254 128 L 236 128 Z M 236 141 L 235 157 Q 237 158 236 163 L 240 170 L 244 182 L 246 182 L 247 178 L 247 169 L 244 165 L 238 146 L 236 141 Z M 237 169 L 236 189 L 237 190 L 237 199 L 242 200 L 244 193 L 244 186 L 240 179 L 238 171 L 237 169 Z M 315 169 L 313 174 L 313 178 L 312 179 L 312 184 L 311 185 L 311 190 L 310 191 L 310 197 L 308 203 L 308 207 L 314 207 Q 316 205 315 199 L 318 193 L 318 183 L 317 182 L 317 175 Q 315 174 316 170 L 315 169 Z M 320 196 Q 317 199 318 206 L 318 207 L 321 207 L 321 200 L 320 196 Z M 197 201 L 196 202 L 148 202 L 146 207 L 156 207 L 157 208 L 163 208 L 164 207 L 235 207 L 235 203 L 205 202 L 204 201 L 197 201 Z M 238 202 L 238 207 L 241 207 L 242 203 L 238 202 Z M 145 210 L 141 216 L 139 223 L 137 226 L 127 256 L 127 259 L 124 268 L 122 271 L 114 295 L 113 302 L 118 302 L 121 292 L 121 289 L 126 276 L 126 273 L 133 252 L 135 249 L 147 211 L 145 210 Z M 266 211 L 265 214 L 271 226 L 282 259 L 291 277 L 292 276 L 293 269 L 294 268 L 294 264 L 295 263 L 295 258 Q 297 256 296 252 L 297 251 L 297 246 L 298 245 L 298 239 Q 300 237 299 233 L 300 232 L 300 227 L 301 226 L 301 222 L 302 221 L 303 215 L 299 213 L 287 213 L 286 212 L 275 212 L 274 211 L 266 211 Z M 151 212 L 149 214 L 136 255 L 134 258 L 130 270 L 130 273 L 122 296 L 121 303 L 124 303 L 126 300 L 126 297 L 154 213 L 151 212 Z M 158 212 L 156 214 L 154 220 L 154 223 L 147 242 L 147 245 L 139 269 L 137 272 L 133 284 L 133 287 L 128 302 L 136 302 L 137 303 L 175 303 L 176 304 L 199 304 L 200 305 L 210 305 L 211 306 L 217 306 Q 217 304 221 305 L 222 304 Q 221 300 223 300 L 224 290 L 225 289 L 225 283 L 226 282 L 226 276 L 227 275 L 226 266 L 225 265 L 225 257 L 224 256 L 224 226 L 223 225 L 223 213 L 158 212 Z M 227 212 L 226 222 L 227 223 L 227 255 L 228 256 L 228 265 L 230 266 L 230 260 L 231 259 L 230 241 L 229 240 L 229 213 L 227 212 Z M 232 212 L 231 239 L 232 240 L 233 248 L 234 245 L 234 241 L 235 240 L 235 236 L 236 235 L 236 228 L 237 227 L 236 213 L 232 212 Z M 239 212 L 238 217 L 239 217 L 239 212 Z M 263 214 L 261 219 L 261 230 L 277 267 L 279 275 L 281 278 L 286 293 L 286 296 L 289 303 L 289 306 L 294 313 L 295 319 L 296 320 L 296 325 L 307 348 L 311 360 L 313 363 L 313 365 L 315 368 L 315 370 L 317 373 L 317 375 L 319 378 L 319 380 L 321 383 L 321 385 L 323 388 L 330 409 L 332 412 L 333 417 L 335 420 L 336 425 L 340 433 L 341 438 L 343 441 L 349 459 L 351 462 L 352 467 L 354 470 L 358 482 L 360 485 L 360 487 L 363 492 L 363 494 L 368 505 L 369 505 L 368 493 L 367 492 L 367 488 L 366 487 L 366 484 L 365 483 L 365 480 L 364 479 L 362 469 L 357 459 L 355 452 L 352 447 L 348 435 L 345 430 L 341 418 L 339 415 L 339 413 L 337 410 L 337 408 L 335 405 L 335 403 L 333 400 L 333 398 L 331 395 L 330 390 L 326 382 L 325 377 L 318 361 L 316 353 L 314 350 L 313 345 L 311 342 L 308 331 L 306 328 L 298 302 L 293 295 L 291 289 L 291 286 L 290 285 L 290 282 L 284 271 L 277 250 L 275 247 L 272 236 L 270 233 L 269 228 L 264 218 L 264 216 L 263 214 Z M 308 214 L 305 218 L 305 222 L 303 227 L 302 238 L 301 239 L 301 245 Q 299 246 300 251 L 299 252 L 299 258 L 298 259 L 298 263 L 297 264 L 297 268 L 295 273 L 295 276 L 293 280 L 293 287 L 296 295 L 298 295 L 300 283 L 301 282 L 301 278 L 302 277 L 302 273 L 303 272 L 303 268 L 304 267 L 305 257 L 306 256 L 306 251 Q 308 249 307 245 L 308 244 L 308 239 L 309 238 L 309 233 L 310 232 L 310 227 L 311 226 L 311 221 L 312 220 L 312 215 L 308 214 Z M 317 214 L 315 216 L 315 221 L 314 222 L 314 227 L 313 228 L 313 233 L 312 234 L 312 239 L 311 240 L 311 245 L 310 246 L 310 251 L 309 252 L 309 257 L 307 263 L 307 268 L 305 274 L 305 278 L 304 279 L 304 283 L 302 288 L 301 296 L 300 297 L 300 303 L 304 312 L 314 343 L 316 346 L 318 354 L 320 357 L 324 370 L 328 378 L 329 383 L 333 391 L 334 396 L 346 424 L 346 426 L 349 431 L 349 433 L 351 436 L 351 438 L 360 459 L 361 459 Q 362 455 360 455 L 360 449 L 359 448 L 359 441 L 358 440 L 358 434 L 357 433 L 357 427 L 356 426 L 356 420 Q 354 418 355 414 L 354 413 L 354 407 L 353 406 L 353 400 Q 351 398 352 394 L 351 393 L 351 388 L 350 387 L 350 381 L 349 380 L 348 369 L 347 368 L 347 363 L 346 362 L 346 356 L 345 355 L 345 350 L 344 349 L 344 344 L 343 343 L 343 338 L 342 337 L 342 332 L 341 331 L 341 326 L 340 325 L 340 320 L 339 319 L 339 314 L 338 313 L 338 308 L 337 307 L 337 302 L 336 301 L 336 296 L 335 295 L 335 290 L 334 289 L 334 284 L 333 283 L 333 278 L 332 277 L 332 272 L 331 271 L 331 266 L 330 265 L 330 260 L 329 259 L 329 254 L 328 253 L 328 248 L 327 247 L 327 242 L 326 241 L 325 230 L 324 229 L 324 223 L 323 222 Q 324 217 322 215 L 317 214 Z M 260 234 L 259 239 L 258 240 L 258 244 L 257 245 L 257 249 L 255 254 L 255 258 L 254 259 L 254 263 L 253 264 L 253 268 L 252 269 L 252 273 L 251 274 L 251 278 L 250 279 L 250 283 L 249 284 L 249 288 L 248 289 L 248 293 L 247 294 L 246 305 L 245 306 L 245 311 L 244 312 L 244 318 L 243 319 L 243 325 L 242 326 L 243 349 L 244 350 L 244 365 L 245 366 L 245 385 L 246 386 L 246 412 L 247 413 L 247 440 L 248 441 L 248 462 L 249 463 L 249 479 L 250 480 L 251 488 L 252 481 L 253 480 L 254 472 L 255 471 L 255 467 L 256 466 L 257 457 L 258 456 L 258 452 L 259 451 L 259 447 L 260 446 L 260 442 L 261 441 L 261 437 L 262 436 L 262 432 L 263 431 L 263 426 L 265 420 L 265 416 L 266 415 L 266 410 L 268 404 L 268 400 L 269 399 L 269 394 L 271 388 L 271 384 L 272 383 L 272 378 L 274 372 L 274 368 L 275 367 L 275 363 L 276 362 L 276 358 L 277 357 L 277 353 L 278 352 L 278 348 L 279 347 L 279 343 L 280 342 L 280 338 L 282 333 L 282 329 L 284 324 L 284 321 L 285 320 L 286 312 L 287 311 L 287 305 L 285 301 L 285 298 L 278 277 L 276 274 L 272 261 L 270 258 L 270 256 L 261 235 L 260 234 Z M 114 305 Q 112 306 112 309 L 122 309 L 123 310 L 165 311 L 166 312 L 214 313 L 214 311 L 213 309 Q 209 310 209 308 L 198 308 L 197 307 L 172 307 L 171 306 L 136 306 L 135 305 L 114 305 Z M 218 308 L 216 310 L 217 313 L 220 313 L 221 309 L 218 308 Z M 111 311 L 102 331 L 101 336 L 99 339 L 87 375 L 87 378 L 84 385 L 84 388 L 82 392 L 82 395 L 80 399 L 79 405 L 82 405 L 84 402 L 113 313 L 111 311 Z M 290 313 L 288 316 L 286 327 L 285 328 L 285 332 L 283 337 L 281 351 L 280 352 L 280 356 L 279 357 L 279 361 L 278 362 L 278 366 L 277 367 L 277 371 L 276 372 L 276 376 L 275 377 L 275 381 L 274 382 L 274 387 L 272 393 L 272 397 L 271 398 L 271 403 L 269 409 L 269 413 L 268 414 L 268 419 L 266 425 L 266 429 L 265 430 L 265 435 L 263 441 L 263 445 L 262 446 L 262 450 L 261 451 L 261 455 L 260 456 L 260 460 L 259 461 L 259 465 L 258 466 L 258 470 L 256 475 L 256 479 L 254 484 L 254 488 L 252 493 L 252 496 L 251 497 L 251 507 L 250 508 L 250 520 L 251 521 L 252 527 L 253 524 L 253 520 L 254 519 L 254 515 L 255 514 L 255 510 L 257 505 L 259 491 L 260 490 L 260 486 L 261 485 L 261 481 L 262 480 L 262 476 L 263 475 L 263 471 L 264 470 L 264 466 L 265 465 L 265 461 L 266 460 L 266 456 L 267 455 L 267 451 L 268 450 L 268 446 L 269 445 L 269 441 L 270 440 L 270 436 L 271 435 L 271 431 L 272 430 L 272 426 L 273 425 L 273 421 L 274 420 L 274 416 L 275 415 L 275 411 L 276 410 L 276 406 L 277 405 L 277 400 L 279 394 L 279 390 L 280 389 L 280 385 L 281 384 L 281 380 L 282 379 L 282 375 L 283 374 L 283 370 L 284 369 L 284 365 L 286 360 L 288 346 L 289 345 L 289 341 L 290 340 L 290 336 L 292 331 L 292 327 L 293 326 L 291 316 L 290 313 Z M 117 314 L 115 316 L 98 369 L 96 372 L 96 375 L 86 405 L 91 405 L 92 404 L 93 398 L 97 388 L 97 385 L 114 337 L 114 334 L 120 318 L 120 315 L 117 314 Z M 124 314 L 120 323 L 120 326 L 94 404 L 96 405 L 107 405 L 108 406 L 122 406 L 123 407 L 138 407 L 139 408 L 155 408 L 156 409 L 170 409 L 171 410 L 183 410 L 184 411 L 193 411 L 194 412 L 201 411 L 203 404 L 205 390 L 206 389 L 206 385 L 207 384 L 207 380 L 208 379 L 208 375 L 209 374 L 209 369 L 211 363 L 211 359 L 212 358 L 212 353 L 214 347 L 214 343 L 215 342 L 216 332 L 218 328 L 218 322 L 219 319 L 218 317 L 191 317 L 190 316 L 166 316 L 165 315 L 145 315 L 144 314 L 124 314 Z M 240 335 L 239 340 L 238 341 L 238 346 L 237 347 L 237 351 L 236 352 L 236 365 L 237 366 L 237 382 L 238 383 L 238 399 L 239 400 L 239 419 L 240 420 L 240 439 L 241 440 L 241 463 L 242 464 L 242 488 L 243 489 L 243 516 L 244 517 L 244 545 L 245 546 L 245 575 L 246 576 L 247 583 L 250 583 L 250 555 L 249 554 L 249 534 L 250 533 L 249 530 L 249 525 L 248 524 L 248 486 L 247 485 L 247 471 L 246 470 L 246 451 L 245 450 L 245 425 L 244 424 L 244 397 L 243 396 L 243 374 L 242 373 L 242 356 L 241 355 L 241 342 L 240 341 L 240 335 Z M 234 368 L 233 374 L 232 375 L 232 380 L 231 381 L 233 383 Q 232 386 234 388 L 234 399 L 235 400 L 235 421 L 236 422 L 236 467 L 237 468 L 237 487 L 238 488 L 238 500 L 239 501 L 239 510 L 240 511 L 240 569 L 241 570 L 242 579 L 243 579 L 243 553 L 242 552 L 242 523 L 241 522 L 241 495 L 240 494 L 240 469 L 239 468 L 239 446 L 238 445 L 238 425 L 237 424 L 237 404 L 236 403 L 236 387 L 235 386 L 235 369 L 234 368 Z M 79 407 L 77 412 L 80 413 L 89 413 L 90 414 L 120 415 L 121 416 L 134 416 L 135 417 L 148 417 L 149 418 L 162 418 L 163 419 L 178 419 L 179 420 L 194 420 L 193 415 L 183 414 L 182 413 L 170 413 L 169 412 L 155 412 L 154 411 L 139 411 L 138 410 L 122 410 L 121 409 L 108 409 L 107 408 L 96 408 L 95 407 L 79 407 Z M 197 414 L 195 416 L 196 420 L 199 421 Q 201 419 200 415 L 197 414 Z M 76 415 L 71 423 L 67 435 L 65 438 L 64 443 L 62 446 L 53 473 L 53 476 L 49 486 L 49 489 L 44 502 L 43 509 L 47 509 L 48 508 L 50 502 L 50 499 L 67 448 L 69 445 L 71 437 L 73 434 L 79 416 L 76 415 Z M 83 417 L 81 419 L 75 437 L 73 440 L 71 448 L 69 451 L 53 499 L 51 509 L 56 509 L 65 478 L 67 475 L 69 467 L 71 464 L 73 456 L 75 453 L 78 442 L 80 439 L 83 430 L 83 427 L 86 418 L 83 417 Z M 89 418 L 80 446 L 74 460 L 72 468 L 70 471 L 60 501 L 60 504 L 58 510 L 66 510 L 67 511 L 75 511 L 76 512 L 85 512 L 86 513 L 94 513 L 95 514 L 113 515 L 114 516 L 132 517 L 133 518 L 140 518 L 141 519 L 149 519 L 150 520 L 157 520 L 158 521 L 165 521 L 166 522 L 179 522 L 180 515 L 181 514 L 181 511 L 182 510 L 183 502 L 184 501 L 184 497 L 186 492 L 187 483 L 189 478 L 190 468 L 192 462 L 192 458 L 193 457 L 193 452 L 195 446 L 196 434 L 197 433 Q 196 428 198 426 L 196 424 L 177 424 L 176 423 L 161 423 L 160 422 L 133 421 L 132 420 L 120 420 L 119 419 L 89 418 Z M 215 419 L 213 422 L 214 423 L 216 421 L 215 419 Z M 43 511 L 40 516 L 45 518 L 55 518 L 56 519 L 64 519 L 65 520 L 74 520 L 75 521 L 93 522 L 94 523 L 103 523 L 104 524 L 122 525 L 123 526 L 141 527 L 142 528 L 150 528 L 151 529 L 159 529 L 160 530 L 167 530 Q 167 532 172 531 L 172 526 L 167 525 L 166 524 L 159 524 L 158 523 L 151 523 L 150 522 L 134 521 L 133 520 L 115 519 L 114 518 L 106 518 L 105 517 L 96 517 L 95 516 L 87 516 L 86 515 L 78 515 L 77 514 L 68 514 L 67 513 L 59 513 L 58 512 L 43 511 Z M 39 519 L 32 539 L 30 542 L 25 559 L 23 562 L 6 613 L 11 614 L 19 613 L 23 603 L 25 595 L 27 592 L 50 523 L 46 522 L 43 527 L 41 527 Q 40 522 42 521 Q 42 519 39 519 Z M 176 526 L 175 531 L 177 531 Q 179 530 178 527 L 176 526 Z M 192 533 Q 190 537 193 538 L 195 535 L 192 533 Z " /><path fill="rgb(0,0,0)" stroke="rgb(0,0,0)" stroke-width="1" opacity="0.9764705882352941" d="M 222.5 339 L 224 339.5 L 222 345.5 L 221 354.5 L 219.5 356 L 219 350.5 L 220 349.5 L 221 341.5 L 222.5 339 Z " /><path fill="rgb(0,0,0)" stroke="rgb(0,0,0)" stroke-width="1" opacity="0.9764705882352941" d="M 218.5 362 L 219 366.5 L 217 371.5 L 217 377.5 L 215.5 381 L 214 380.5 L 216 366.5 L 218.5 362 Z " /><path fill="rgb(0,0,0)" stroke="rgb(0,0,0)" stroke-width="1" opacity="0.9764705882352941" d="M 212.5 386 L 214 386.5 L 213 394.5 L 212 395.5 L 212 400.5 L 210 406.5 L 210 411.5 L 209 412.5 L 209 416.5 L 208 417.5 L 208 421.5 L 206 427.5 L 206 432.5 L 205 433.5 L 205 437.5 L 204 438.5 L 204 442.5 L 203 443.5 L 203 447.5 L 202 448.5 L 202 452.5 L 200 458.5 L 200 463.5 L 199 464.5 L 197 478.5 L 195 483.5 L 195 487.5 L 194 488.5 L 194 492.5 L 193 493.5 L 193 497.5 L 192 498.5 L 190 512.5 L 187.5 520 L 186 517.5 L 187 516.5 L 189 502.5 L 191 497.5 L 191 493.5 L 192 492.5 L 192 488.5 L 193 487.5 L 193 483.5 L 194 482.5 L 194 478.5 L 195 477.5 L 195 473.5 L 196 472.5 L 196 468.5 L 197 467.5 L 197 463.5 L 198 462.5 L 198 458.5 L 199 457.5 L 199 453.5 L 200 452.5 L 200 448.5 L 202 442.5 L 202 437.5 L 203 436.5 L 203 432.5 L 204 431.5 L 204 427.5 L 206 421.5 L 206 416.5 L 207 415.5 L 207 411.5 L 209 405.5 L 209 400.5 L 211 394.5 L 211 389.5 L 212.5 386 Z " /><path fill="rgb(0,0,0)" stroke="rgb(0,0,0)" stroke-width="1" opacity="0.9764705882352941" d="M 185.5 524 Q 187.5 524.5 187 527.5 L 186 528.5 L 186 532.5 L 185 533.5 L 185 537.5 L 184 538.5 L 184 542.5 L 182 548.5 L 182 553.5 L 181 554.5 L 181 558.5 L 180 559.5 L 180 563.5 L 179 564.5 L 179 568.5 L 178 569.5 L 178 573.5 L 177 574.5 L 177 578.5 L 175 584.5 L 175 589.5 L 174 590.5 L 174 594.5 L 173 595.5 L 171 609.5 L 170 610.5 L 169 617.5 L 167.5 619 Q 165.5 618.5 166 615.5 L 167 614.5 L 167 610.5 L 168 609.5 L 168 605.5 L 169 604.5 L 169 600.5 L 170 599.5 L 170 595.5 L 171 594.5 L 171 590.5 L 172 589.5 L 172 585.5 L 173 584.5 L 173 580.5 L 174 579.5 L 174 575.5 L 176 569.5 L 176 564.5 L 177 563.5 L 177 559.5 L 178 558.5 L 178 554.5 L 179 553.5 L 179 549.5 L 180 548.5 L 180 544.5 L 181 543.5 L 183 529.5 Q 184.8 528.7 184 525.5 L 185.5 524 Z " /></svg>