<svg viewBox="0 0 640 640" version="1.1" xmlns="http://www.w3.org/2000/svg" desc="Created with imagetracer.js version 1.2.6" ><path fill="rgb(0,0,0)" stroke="rgb(0,0,0)" stroke-width="1" opacity="0" d="M 0.5 0 L 640 0.5 L 639.5 640 L 0 639.5 L 0.5 0 Z M 302 154 L 302 155 L 308 155 L 302 154 Z M 358 154 L 358 155 L 364 155 L 358 154 Z M 298 155 L 298 156 L 300 156 L 298 155 Z M 310 155 L 310 156 L 312 156 L 310 155 Z M 301 156 L 292 160 L 287 164 L 287 166 L 286 167 L 284 167 L 285 169 L 283 174 L 283 230 L 282 174 L 281 230 L 218 231 L 283 232 L 219 232 Q 218 234 214 233 L 208 236 L 202 242 L 201 241 L 198 246 L 200 246 L 199 248 L 198 247 L 197 247 L 198 250 L 192 281 L 191 278 L 190 278 Q 189 281 191 283 L 186 310 L 185 307 L 184 307 Q 183 310 185 312 L 180 339 L 179 336 L 178 336 Q 177 339 179 341 L 178 349 L 177 350 L 177 354 L 176 355 L 176 359 L 175 360 L 175 364 L 174 365 L 174 369 L 172 374 L 170 388 L 169 389 L 169 393 L 168 394 L 168 398 L 166 403 L 166 407 L 165 408 L 165 412 L 164 413 L 164 417 L 163 418 L 163 422 L 162 423 L 162 427 L 161 431 L 160 428 L 159 428 Q 158 431 160 433 L 159 441 L 158 442 L 158 446 L 157 447 L 157 451 L 156 452 L 156 456 L 155 457 L 155 462 L 157 467 L 157 468 L 156 466 L 155 469 L 157 470 L 158 470 L 157 472 L 159 471 L 161 474 L 160 473 L 159 475 L 162 477 L 163 476 L 162 478 L 165 479 L 165 477 L 167 479 L 174 482 L 467 482 L 474 479 L 477 476 L 476 478 L 478 478 L 481 474 L 479 474 Q 480 471 482 473 L 483 471 L 481 471 L 483 469 L 484 470 L 483 468 Q 485 466 484 462 L 485 461 L 483 447 L 482 446 L 482 442 L 481 441 Q 480 437 482 437 L 482 432 L 481 436 L 479 432 L 479 428 L 478 427 L 478 423 L 477 422 L 477 418 L 476 417 L 476 413 L 475 412 Q 474 408 476 408 L 476 403 L 475 407 L 473 403 L 473 399 L 472 398 L 472 394 L 471 393 L 471 389 L 470 388 L 470 384 L 469 383 Q 468 379 470 379 L 470 374 L 469 378 L 467 374 L 467 370 L 466 369 L 466 365 L 465 364 L 465 360 L 464 359 L 464 355 L 463 354 Q 462 350 464 350 L 464 345 L 463 349 L 461 345 L 461 341 L 460 340 L 460 336 L 459 335 L 459 331 L 458 330 L 458 326 L 457 325 L 457 321 L 455 316 L 455 312 L 454 311 L 454 307 L 453 306 L 453 302 L 452 301 L 452 297 L 451 296 L 451 292 L 449 287 L 447 273 L 446 272 L 446 268 L 445 267 L 445 263 L 444 262 Q 443 258 445 258 L 445 253 L 444 257 L 442 253 Q 441 249 443 249 L 443 246 L 442 248 L 440 246 L 442 246 L 442 245 L 441 243 L 439 244 L 440 242 Q 439 239 438 241 L 431 235 L 422 232 L 347 232 L 422 231 L 350 230 L 349 174 L 348 230 L 347 230 L 347 175 L 349 170 Q 352 166 357 164 L 365 164 L 370 167 Q 374 168 375 165 L 374 161 L 369 157 Q 365 158 365 156 L 357 156 L 350 159 L 347 162 L 345 162 L 345 164 L 343 166 L 341 166 L 342 168 L 340 171 L 340 175 L 339 179 L 291 179 Q 290 174 292 172 L 294 172 L 293 170 Q 296 166 301 164 L 309 164 L 314 167 L 318 166 L 318 162 L 316 159 L 309 156 L 301 156 Z M 301 165 L 301 166 L 304 166 L 301 165 Z M 306 165 L 306 166 L 309 166 L 306 165 Z M 357 165 L 357 166 L 365 166 L 357 165 Z M 314 168 L 314 169 L 316 169 L 314 168 Z M 283 170 L 282 173 L 283 173 L 283 170 Z M 339 171 L 338 174 L 339 174 L 339 171 Z M 293 173 L 292 177 L 293 177 L 293 173 Z M 214 231 L 214 232 L 217 232 L 214 231 Z M 424 231 L 424 232 L 427 232 L 424 231 Z M 197 249 L 196 252 L 197 252 L 197 249 Z M 444 249 L 443 253 L 444 253 L 444 249 Z M 196 253 L 195 257 L 196 257 L 196 253 Z M 195 257 L 194 262 L 195 262 L 195 257 Z M 446 258 L 445 262 L 446 262 L 446 258 Z M 194 262 L 193 267 L 194 267 L 194 262 Z M 447 263 L 446 267 L 447 267 L 447 263 Z M 193 267 L 192 272 L 193 272 L 193 267 Z M 448 267 L 447 272 L 448 272 L 448 267 Z M 192 272 L 191 277 L 192 277 L 192 272 Z M 449 272 L 448 277 L 449 277 L 449 272 Z M 450 277 L 449 282 L 450 282 L 450 277 Z M 190 282 L 189 286 L 190 286 L 190 282 Z M 451 282 L 450 287 L 451 287 L 451 282 Z M 189 287 L 188 291 L 189 291 L 189 287 Z M 452 287 L 451 291 L 452 291 L 452 287 Z M 188 291 L 187 296 L 188 296 L 188 291 Z M 453 292 L 452 296 L 453 296 L 453 292 Z M 187 296 L 186 301 L 187 301 L 187 296 Z M 454 296 L 453 301 L 454 301 L 454 296 Z M 186 301 L 185 306 L 186 306 L 186 301 Z M 455 301 L 454 306 L 455 306 L 455 301 Z M 456 306 L 455 311 L 456 311 L 456 306 Z M 184 311 L 183 315 L 184 315 L 184 311 Z M 457 311 L 456 316 L 457 316 L 457 311 Z M 183 316 L 182 320 L 183 320 L 183 316 Z M 458 316 L 457 320 L 458 320 L 458 316 Z M 182 320 L 181 325 L 182 325 L 182 320 Z M 459 321 L 458 325 L 459 325 L 459 321 Z M 181 325 L 180 330 L 181 330 L 181 325 Z M 460 325 L 459 330 L 460 330 L 460 325 Z M 180 330 L 179 335 L 180 335 L 180 330 Z M 461 330 L 460 335 L 461 335 L 461 330 Z M 462 335 L 461 340 L 462 340 L 462 335 Z M 178 340 L 177 344 L 178 344 L 178 340 Z M 463 340 L 462 345 L 463 345 L 463 340 Z M 177 345 L 176 349 L 177 349 L 177 345 Z M 176 349 L 175 354 L 176 354 L 176 349 Z M 465 350 L 464 354 L 465 354 L 465 350 Z M 175 354 L 174 359 L 175 359 L 175 354 Z M 466 354 L 465 359 L 466 359 L 466 354 Z M 174 359 L 173 364 L 174 364 L 174 359 Z M 467 359 L 466 364 L 467 364 L 467 359 Z M 173 364 L 172 369 L 173 369 L 173 364 Z M 468 364 L 467 369 L 468 369 L 468 364 Z M 172 369 L 171 373 L 172 373 L 172 369 Z M 469 369 L 468 374 L 469 374 L 469 369 Z M 171 374 L 170 378 L 171 378 L 171 374 Z M 170 378 L 169 383 L 170 383 L 170 378 Z M 471 379 L 470 383 L 471 383 L 471 379 Z M 169 383 L 168 388 L 169 388 L 169 383 Z M 472 384 L 471 388 L 472 388 L 472 384 Z M 168 388 L 167 393 L 168 393 L 168 388 Z M 473 388 L 472 393 L 473 393 L 473 388 Z M 167 393 L 166 398 L 167 398 L 167 393 Z M 474 393 L 473 398 L 474 398 L 474 393 Z M 166 398 L 165 402 L 166 402 L 166 398 Z M 475 398 L 474 403 L 475 403 L 475 398 Z M 165 403 L 164 407 L 165 407 L 165 403 Z M 164 407 L 163 412 L 164 412 L 164 407 Z M 477 408 L 476 412 L 477 412 L 477 408 Z M 163 412 L 162 417 L 163 417 L 163 412 Z M 478 413 L 477 417 L 478 417 L 478 413 Z M 162 417 L 161 422 L 162 422 L 162 417 Z M 479 417 L 478 422 L 479 422 L 479 417 Z M 161 422 L 160 427 L 161 427 L 161 422 Z M 480 422 L 479 427 L 480 427 L 480 422 Z M 481 427 L 480 432 L 481 432 L 481 427 Z M 159 432 L 158 436 L 159 436 L 159 432 Z M 158 436 L 157 441 L 158 441 L 158 436 Z M 483 437 L 482 441 L 483 441 L 483 437 Z M 157 441 L 156 446 L 157 446 L 157 441 Z M 484 442 L 483 446 L 484 446 L 484 442 Z M 156 446 L 155 451 L 156 451 L 156 446 Z M 485 446 L 484 451 L 485 451 L 485 446 Z M 155 451 L 154 456 L 155 456 L 155 451 Z M 486 451 L 485 456 L 486 456 L 486 451 Z M 154 456 L 153 462 L 154 462 L 154 456 Z M 487 457 L 486 461 L 487 461 L 487 457 Z M 486 461 L 485 466 L 486 466 L 486 461 Z M 155 462 L 154 466 L 155 466 L 155 462 Z M 171 482 L 171 483 L 173 483 L 171 482 Z M 468 482 L 468 483 L 470 483 L 468 482 Z M 174 483 L 174 484 L 467 484 L 174 483 Z " /><path fill="rgb(0,0,0)" stroke="rgb(0,0,0)" stroke-width="1" opacity="0" d="M 291.5 180 L 339 180.5 L 291.5 181 L 291.5 180 Z " /><path fill="rgb(0,0,0)" stroke="rgb(0,0,0)" stroke-width="1" opacity="0" d="M 291.5 189 L 339 189.5 L 338.5 205 L 291 204.5 L 291.5 189 Z " /><path fill="rgb(0,0,0)" stroke="rgb(0,0,0)" stroke-width="1" opacity="0" d="M 291.5 206 L 339 206.5 L 291.5 207 L 291.5 206 Z " /><path fill="rgb(0,0,0)" stroke="rgb(0,0,0)" stroke-width="1" opacity="0" d="M 291.5 214 L 339 214.5 L 291.5 215 L 291.5 214 Z " /><path fill="rgb(0,0,0)" stroke="rgb(0,0,0)" stroke-width="1" opacity="0" d="M 291.5 216 L 339 216.5 L 338.5 230 L 291 229.5 L 291.5 216 Z " /><path fill="rgb(0,0,0)" stroke="rgb(0,0,0)" stroke-width="1" opacity="0" d="M 290.5 231 L 340 231.5 L 290.5 232 L 290.5 231 Z " /><path fill="rgb(22,129,179)" stroke="rgb(22,129,179)" stroke-width="1" opacity="0.996078431372549" d="M 283.5 233 L 284 275.5 L 283 275.5 L 283.5 233 Z " /><path fill="rgb(22,129,179)" stroke="rgb(22,129,179)" stroke-width="1" opacity="0.996078431372549" d="M 346.5 233 L 347 275.5 L 346 275.5 L 346.5 233 Z " /><path fill="rgb(22,129,179)" stroke="rgb(22,129,179)" stroke-width="1" opacity="0.996078431372549" d="M 290.5 239 L 340 239.5 L 290.5 240 L 290.5 239 Z " /><path fill="rgb(22,129,179)" stroke="rgb(22,129,179)" stroke-width="1" opacity="0.996078431372549" d="M 290.5 265 L 340 265.5 L 290.5 266 L 290.5 265 Z " /><path fill="rgb(0,170,250)" stroke="rgb(0,170,250)" stroke-width="1" opacity="0.996078431372549" d="M 216.5 233 L 283 233.5 L 283 275.5 L 284.5 278 L 287.5 279 L 290 276.5 L 290.5 266 L 340 266.5 L 340 276.5 L 342.5 279 L 346 277.5 L 347 275.5 L 347.5 233 L 423.5 233 L 429.5 235 L 438 242.5 L 442 251.5 L 442 255.5 L 443 256.5 L 443 260.5 L 444 261.5 L 446 275.5 L 448 280.5 L 448 284.5 L 449 285.5 L 449 289.5 L 450 290.5 L 452 304.5 L 454 309.5 L 454 313.5 L 455 314.5 L 455 318.5 L 456 319.5 L 458 333.5 L 460 338.5 L 460 342.5 L 461 343.5 L 461 347.5 L 462 348.5 L 464 362.5 L 466 367.5 L 466 371.5 L 467 372.5 L 467 376.5 L 468 377.5 L 468 381.5 L 469 382.5 L 471 396.5 L 473 401.5 L 473 405.5 L 474 406.5 L 474 410.5 L 475 411.5 L 477 425.5 L 479 430.5 L 479 434.5 L 480 435.5 L 480 439.5 L 481 440.5 L 481 444.5 L 482 445.5 L 482 449.5 L 484 455.5 L 484 462.5 L 481 470.5 L 476.5 476 L 470.5 480 L 467.5 481 L 462.5 481 L 461.5 482 L 178.5 482 L 177.5 481 L 172.5 481 L 169.5 480 L 161 473.5 L 157 466.5 Q 157.8 463.3 156 462.5 L 156 454.5 L 157 453.5 L 157 449.5 L 159 444.5 L 159 440.5 L 160 439.5 L 160 435.5 L 161 434.5 L 163 420.5 L 165 415.5 L 165 411.5 L 166 410.5 L 166 406.5 L 167 405.5 L 169 391.5 L 171 386.5 L 171 382.5 L 172 381.5 L 172 377.5 L 173 376.5 L 175 362.5 L 177 357.5 L 177 353.5 L 178 352.5 L 178 348.5 L 179 347.5 L 181 333.5 L 183 328.5 L 183 324.5 L 184 323.5 L 184 319.5 L 185 318.5 L 187 304.5 L 189 299.5 L 189 295.5 L 190 294.5 L 190 290.5 L 191 289.5 L 191 285.5 L 192 284.5 L 194 270.5 L 196 265.5 L 198 251.5 L 200 245.5 L 207.5 237 L 216.5 233 Z M 232 322 L 228 325 L 229 329 L 242 331 L 250 336 L 257 337 L 258 338 L 265 338 Q 266 336 270 337 L 284 330 Q 287 331 289 329 L 298 330 L 309 336 L 316 337 L 317 338 L 324 338 Q 325 336 329 337 L 336 334 L 340 331 L 347 330 L 348 329 L 357 330 L 368 336 L 375 337 L 376 338 L 383 338 Q 383 336 388 337 L 395 334 L 399 331 L 405 330 L 406 329 L 410 329 L 412 327 L 411 324 L 409 322 L 400 323 L 387 330 Q 382 329 382 331 L 376 331 Q 375 329 372 330 L 361 324 L 354 323 L 353 322 L 342 323 L 328 330 Q 323 329 323 331 L 313 330 L 302 324 L 295 323 L 294 322 L 283 323 L 269 330 Q 264 329 264 331 L 254 330 L 241 323 L 232 322 Z M 230 368 L 228 371 L 229 374 L 232 375 L 238 375 L 241 376 L 252 382 Q 255 381 256 383 L 267 383 Q 267 381 271 382 L 285 375 L 297 375 L 311 382 Q 314 381 315 383 L 326 383 Q 326 381 330 382 L 344 375 L 356 375 L 363 378 L 367 381 L 373 382 L 374 383 L 385 383 Q 385 381 389 382 L 400 376 L 403 375 L 409 375 L 411 374 L 412 372 L 411 368 L 401 368 L 392 372 L 390 374 L 384 376 L 375 376 Q 374 374 371 375 L 363 370 L 357 368 L 343 368 Q 342 370 339 369 L 329 375 Q 325 374 325 376 L 316 376 Q 315 374 312 375 L 304 370 L 298 368 L 284 368 L 276 371 L 270 375 Q 266 374 266 376 L 257 376 L 251 374 L 249 372 L 240 368 L 230 368 Z M 231 413 Q 228 414 228 418 L 231 420 L 237 420 L 243 422 L 251 427 Q 254 426 255 428 L 269 428 L 286 420 L 296 420 L 310 427 Q 313 426 314 428 L 327 428 Q 327 426 331 427 L 339 422 L 345 420 L 355 420 L 372 428 L 386 428 L 396 424 L 400 421 Q 403 422 404 420 L 410 420 L 412 418 Q 413 414 410 413 L 403 413 Q 402 415 399 414 L 385 421 L 373 421 L 360 414 Q 356 415 356 413 L 344 413 Q 343 415 340 414 L 326 421 L 315 421 L 301 414 Q 297 415 297 413 L 285 413 Q 284 415 281 414 L 268 421 L 256 421 L 242 414 Q 238 415 238 413 L 231 413 Z " /><path fill="rgb(0,170,250)" stroke="rgb(0,170,250)" stroke-width="1" opacity="0.996078431372549" d="M 290.5 240 L 340 240.5 L 339.5 259 L 290 258.5 L 290.5 240 Z " /><path fill="rgb(0,208,254)" stroke="rgb(0,208,254)" stroke-width="1" opacity="0.06666666666666667" d="M 220.5 230 L 281 230.5 L 220.5 231 L 220.5 230 Z " /><path fill="rgb(0,208,254)" stroke="rgb(0,208,254)" stroke-width="1" opacity="0.06666666666666667" d="M 349.5 230 L 420 230.5 L 349.5 231 L 349.5 230 Z " /><path fill="rgb(0,208,254)" stroke="rgb(0,208,254)" stroke-width="1" opacity="0.06666666666666667" d="M 214.5 231 L 217 231.5 L 214.5 232 L 214.5 231 Z " /><path fill="rgb(0,208,254)" stroke="rgb(0,208,254)" stroke-width="1" opacity="0.06666666666666667" d="M 423.5 231 L 426 231.5 L 423.5 232 L 423.5 231 Z " /><path fill="rgb(0,208,254)" stroke="rgb(0,208,254)" stroke-width="1" opacity="0.06666666666666667" d="M 211.5 232 L 216 233.5 L 213.5 234 L 211.5 233 L 211.5 235 L 209.5 234 L 209.5 236 Q 206.5 234.5 209.5 233 L 211.5 232 Z " /><path fill="rgb(0,208,254)" stroke="rgb(0,208,254)" stroke-width="1" opacity="0.06666666666666667" d="M 218.5 232 L 281 232.5 L 218.5 233 L 218.5 232 Z " /><path fill="rgb(0,208,254)" stroke="rgb(0,208,254)" stroke-width="1" opacity="0.06666666666666667" d="M 291.5 232 L 339 232.5 L 291.5 233 L 291.5 232 Z " /><path fill="rgb(0,208,254)" stroke="rgb(0,208,254)" stroke-width="1" opacity="0.06666666666666667" d="M 349.5 232 L 422 232.5 L 349.5 233 L 349.5 232 Z " /><path fill="rgb(0,208,254)" stroke="rgb(0,208,254)" stroke-width="1" opacity="0.06666666666666667" d="M 427.5 232 Q 435.6 234.9 440 241.5 L 442 245.5 Q 441 248 440 246.5 L 440.5 245 L 439 244.5 Q 441.3 243.3 438.5 242 L 437 241.5 L 438 240.5 L 434.5 237 L 433 237.5 L 433.5 236 L 429.5 234 L 428 234.5 L 428.5 233 L 425.5 234 L 425.5 233 L 427.5 232 Z " /><path fill="rgb(0,208,254)" stroke="rgb(0,208,254)" stroke-width="1" opacity="0.06666666666666667" d="M 206.5 235 L 207 235.5 L 202 240.5 Q 204.3 241.8 201.5 243 L 200 243.5 L 200.5 245 L 199 245.5 L 199.5 247 L 198 246.5 L 199 248.5 Q 198 250 197 247.5 Q 199.9 239.4 206.5 235 Z " /><path fill="rgb(0,208,254)" stroke="rgb(0,208,254)" stroke-width="1" opacity="0.06666666666666667" d="M 442.5 247 L 444 249.5 L 445 256.5 L 444 256.5 L 443.5 253 L 442 253.5 Q 443.8 252.8 443 249.5 L 441 248.5 L 442.5 247 Z " /><path fill="rgb(0,208,254)" stroke="rgb(0,208,254)" stroke-width="1" opacity="0.06666666666666667" d="M 196.5 249 L 197 251.5 L 196 251.5 L 196.5 249 Z " /><path fill="rgb(0,208,254)" stroke="rgb(0,208,254)" stroke-width="1" opacity="0.06666666666666667" d="M 195.5 253 L 197 258.5 L 196 258.5 Q 194.1 256.5 195.5 253 Z " /><path fill="rgb(0,208,254)" stroke="rgb(0,208,254)" stroke-width="1" opacity="0.06666666666666667" d="M 194.5 258 L 196 263.5 L 195 263.5 Q 193.1 261.5 194.5 258 Z " /><path fill="rgb(0,208,254)" stroke="rgb(0,208,254)" stroke-width="1" opacity="0.06666666666666667" d="M 445.5 258 L 446 261.5 L 444.5 264 L 444 262.5 L 445.5 258 Z " /><path fill="rgb(0,208,254)" stroke="rgb(0,208,254)" stroke-width="1" opacity="0.06666666666666667" d="M 193.5 263 L 195 267.5 L 193 267.5 Q 192 271.5 194 272.5 L 192 272.5 Q 191 276.5 193 277.5 L 191 277.5 L 192 282.5 L 191 282.5 L 190 277.5 L 191 276.5 L 191 272.5 L 192 271.5 L 192 267.5 L 193.5 263 Z " /><path fill="rgb(0,208,254)" stroke="rgb(0,208,254)" stroke-width="1" opacity="0.06666666666666667" d="M 446.5 263 L 447 266.5 Q 446 269 445 267.5 L 446.5 263 Z " /><path fill="rgb(0,208,254)" stroke="rgb(0,208,254)" stroke-width="1" opacity="0.06666666666666667" d="M 447.5 270 L 448 271.5 L 446.5 274 L 446 272.5 L 447.5 270 Z " /><path fill="rgb(0,208,254)" stroke="rgb(0,208,254)" stroke-width="1" opacity="0.06666666666666667" d="M 448.5 273 L 452 290.5 L 450.5 293 L 450 291.5 Q 451.7 290.8 451 287.5 L 449 287.5 Q 451 286.5 450 282.5 L 448 282.5 Q 450 281.5 449 277.5 L 447 277.5 L 448.5 273 Z " /><path fill="rgb(0,208,254)" stroke="rgb(0,208,254)" stroke-width="1" opacity="0.06666666666666667" d="M 189.5 283 L 191 287.5 L 190 287.5 Q 188.3 285.8 189.5 283 Z " /><path fill="rgb(0,208,254)" stroke="rgb(0,208,254)" stroke-width="1" opacity="0.06666666666666667" d="M 188.5 287 L 190 292.5 L 189 292.5 Q 187.1 290.5 188.5 287 Z " /><path fill="rgb(0,208,254)" stroke="rgb(0,208,254)" stroke-width="1" opacity="0.06666666666666667" d="M 187.5 292 L 189 296.5 L 187 296.5 Q 186 300.5 188 301.5 L 186 301.5 Q 185 305.5 187 306.5 L 185 306.5 L 186 311.5 L 185 311.5 L 184 306.5 L 185 305.5 L 185 301.5 L 186 300.5 L 186 296.5 L 187.5 292 Z " /><path fill="rgb(0,208,254)" stroke="rgb(0,208,254)" stroke-width="1" opacity="0.06666666666666667" d="M 452.5 292 L 453 295.5 L 452 295.5 L 452.5 292 Z " /><path fill="rgb(0,208,254)" stroke="rgb(0,208,254)" stroke-width="1" opacity="0.06666666666666667" d="M 453.5 299 L 454 300.5 L 452.5 303 L 452 301.5 L 453.5 299 Z " /><path fill="rgb(0,208,254)" stroke="rgb(0,208,254)" stroke-width="1" opacity="0.06666666666666667" d="M 454.5 302 L 458 319.5 L 456.5 322 L 456 320.5 Q 457.7 319.8 457 316.5 L 455 316.5 Q 457 315.5 456 311.5 L 454 311.5 Q 456 310.5 455 306.5 L 453 306.5 L 454.5 302 Z " /><path fill="rgb(0,208,254)" stroke="rgb(0,208,254)" stroke-width="1" opacity="0.06666666666666667" d="M 183.5 312 L 185 316.5 L 184 316.5 Q 182.3 314.8 183.5 312 Z " /><path fill="rgb(0,208,254)" stroke="rgb(0,208,254)" stroke-width="1" opacity="0.06666666666666667" d="M 182.5 316 L 184 321.5 L 183 321.5 Q 181.1 319.5 182.5 316 Z " /><path fill="rgb(0,208,254)" stroke="rgb(0,208,254)" stroke-width="1" opacity="0.06666666666666667" d="M 458.5 321 L 459 324.5 L 457.5 327 L 457 325.5 L 458.5 321 Z " /><path fill="rgb(0,208,254)" stroke="rgb(0,208,254)" stroke-width="1" opacity="0.06666666666666667" d="M 181.5 323 L 183 325.5 Q 182 327 181 324.5 L 181.5 323 Z " /><path fill="rgb(0,208,254)" stroke="rgb(0,208,254)" stroke-width="1" opacity="0.06666666666666667" d="M 180.5 326 L 182 330.5 L 180 330.5 Q 179 334.5 181 335.5 L 179 335.5 L 180 340.5 L 179 340.5 L 178 335.5 L 179 334.5 L 179 330.5 L 180.5 326 Z " /><path fill="rgb(0,208,254)" stroke="rgb(0,208,254)" stroke-width="1" opacity="0.06666666666666667" d="M 459.5 326 L 460 329.5 L 458.5 332 L 458 330.5 L 459.5 326 Z " /><path fill="rgb(0,208,254)" stroke="rgb(0,208,254)" stroke-width="1" opacity="0.06666666666666667" d="M 460.5 331 L 464 348.5 L 462.5 351 L 462 349.5 Q 463.8 348.8 463 345.5 L 461 345.5 Q 463 344.5 462 340.5 L 460 340.5 Q 462 339.5 461 335.5 L 459 335.5 L 460.5 331 Z " /><path fill="rgb(0,208,254)" stroke="rgb(0,208,254)" stroke-width="1" opacity="0.06666666666666667" d="M 177.5 340 L 178 343.5 L 177 343.5 L 177.5 340 Z " /><path fill="rgb(0,208,254)" stroke="rgb(0,208,254)" stroke-width="1" opacity="0.06666666666666667" d="M 176.5 345 L 178 350.5 L 177 350.5 Q 175.1 348.5 176.5 345 Z " /><path fill="rgb(0,208,254)" stroke="rgb(0,208,254)" stroke-width="1" opacity="0.06666666666666667" d="M 464.5 350 L 465 353.5 L 463.5 356 L 463 354.5 L 464.5 350 Z " /><path fill="rgb(0,208,254)" stroke="rgb(0,208,254)" stroke-width="1" opacity="0.06666666666666667" d="M 175.5 352 L 177 355.5 L 176 355.5 L 175.5 354 L 175 358.5 L 175.5 360 L 174 359.5 Q 173 363.5 175 364.5 L 173 364.5 L 172.5 368 L 172 364.5 L 173 363.5 L 174 354.5 L 175.5 352 Z " /><path fill="rgb(0,208,254)" stroke="rgb(0,208,254)" stroke-width="1" opacity="0.06666666666666667" d="M 465.5 355 L 466 358.5 L 464.5 361 L 464 359.5 L 465.5 355 Z " /><path fill="rgb(0,208,254)" stroke="rgb(0,208,254)" stroke-width="1" opacity="0.06666666666666667" d="M 466.5 360 L 470 377.5 L 468.5 380 L 468 378.5 Q 469.8 377.8 469 374.5 L 467 374.5 Q 469 373.5 468 369.5 L 466 369.5 Q 468 368.5 467 364.5 L 465 364.5 L 466.5 360 Z " /><path fill="rgb(0,208,254)" stroke="rgb(0,208,254)" stroke-width="1" opacity="0.06666666666666667" d="M 171.5 369 L 173 374.5 L 172 374.5 Q 170.1 372.5 171.5 369 Z " /><path fill="rgb(0,208,254)" stroke="rgb(0,208,254)" stroke-width="1" opacity="0.06666666666666667" d="M 170.5 374 L 172 379.5 L 171 379.5 Q 169.1 377.5 170.5 374 Z " /><path fill="rgb(0,208,254)" stroke="rgb(0,208,254)" stroke-width="1" opacity="0.06666666666666667" d="M 169.5 379 L 171 384.5 L 170 384.5 L 169.5 383 L 169 387.5 L 169.5 389 L 168 388.5 Q 167 392.5 169 393.5 L 167 393.5 Q 166 397.5 168 398.5 L 166 398.5 L 167 403.5 L 166 403.5 L 165 398.5 L 166 397.5 L 166 393.5 L 167 392.5 L 167 388.5 L 168 387.5 L 168 383.5 L 169.5 379 Z " /><path fill="rgb(0,208,254)" stroke="rgb(0,208,254)" stroke-width="1" opacity="0.06666666666666667" d="M 470.5 379 L 471 382.5 L 469.5 385 L 469 383.5 L 470.5 379 Z " /><path fill="rgb(0,208,254)" stroke="rgb(0,208,254)" stroke-width="1" opacity="0.06666666666666667" d="M 471.5 384 L 472 387.5 L 470.5 390 L 470 388.5 L 471.5 384 Z " /><path fill="rgb(0,208,254)" stroke="rgb(0,208,254)" stroke-width="1" opacity="0.06666666666666667" d="M 472.5 389 L 476 406.5 L 474.5 409 L 474 407.5 Q 475.8 406.8 475 403.5 L 473 403.5 Q 475 402.5 474 398.5 L 472 398.5 Q 474 397.5 473 393.5 L 472 393.5 L 471.5 395 L 471 393.5 L 472.5 389 Z " /><path fill="rgb(0,208,254)" stroke="rgb(0,208,254)" stroke-width="1" opacity="0.06666666666666667" d="M 164.5 403 L 166 408.5 L 165 408.5 Q 163.1 406.5 164.5 403 Z " /><path fill="rgb(0,208,254)" stroke="rgb(0,208,254)" stroke-width="1" opacity="0.06666666666666667" d="M 163.5 408 L 165 413.5 L 164 413.5 Q 162.1 411.5 163.5 408 Z " /><path fill="rgb(0,208,254)" stroke="rgb(0,208,254)" stroke-width="1" opacity="0.06666666666666667" d="M 476.5 408 L 477 411.5 L 475.5 414 L 475 412.5 L 476.5 408 Z " /><path fill="rgb(0,208,254)" stroke="rgb(0,208,254)" stroke-width="1" opacity="0.06666666666666667" d="M 162.5 413 L 164 418.5 L 163 418.5 L 162.5 417 L 162 421.5 L 163 423.5 L 162 423.5 L 161.5 422 L 161 426.5 L 161.5 428 L 160 427.5 L 161 432.5 L 160 432.5 L 159 427.5 L 160 426.5 L 160 422.5 L 161 421.5 L 161 417.5 L 162.5 413 Z " /><path fill="rgb(0,208,254)" stroke="rgb(0,208,254)" stroke-width="1" opacity="0.06666666666666667" d="M 477.5 413 L 478 416.5 L 476.5 419 L 476 417.5 L 477.5 413 Z " /><path fill="rgb(0,208,254)" stroke="rgb(0,208,254)" stroke-width="1" opacity="0.06666666666666667" d="M 478.5 420 L 480 422.5 L 480 426.5 L 481 427.5 L 482 435.5 L 481 435.5 L 480.5 432 L 479 432.5 Q 481 431.5 480 427.5 L 478 427.5 Q 480 426.5 479 422.5 L 478 422.5 L 477.5 424 L 477 422.5 L 478.5 420 Z " /><path fill="rgb(0,208,254)" stroke="rgb(0,208,254)" stroke-width="1" opacity="0.06666666666666667" d="M 158.5 432 L 160 437.5 L 159 437.5 Q 157.1 435.5 158.5 432 Z " /><path fill="rgb(0,208,254)" stroke="rgb(0,208,254)" stroke-width="1" opacity="0.06666666666666667" d="M 157.5 437 L 159 442.5 L 158 442.5 Q 156.1 440.5 157.5 437 Z " /><path fill="rgb(0,208,254)" stroke="rgb(0,208,254)" stroke-width="1" opacity="0.06666666666666667" d="M 482.5 437 L 483 440.5 L 482 440.5 L 482.5 437 Z " /><path fill="rgb(0,208,254)" stroke="rgb(0,208,254)" stroke-width="1" opacity="0.06666666666666667" d="M 156.5 442 L 158 446.5 L 156 446.5 Q 155 450.5 157 451.5 L 155 451.5 L 154.5 455 L 154 451.5 L 155 450.5 L 155 446.5 L 156.5 442 Z " /><path fill="rgb(0,208,254)" stroke="rgb(0,208,254)" stroke-width="1" opacity="0.06666666666666667" d="M 483.5 442 L 484 445.5 L 482.5 448 L 482 446.5 L 483.5 442 Z " /><path fill="rgb(0,208,254)" stroke="rgb(0,208,254)" stroke-width="1" opacity="0.06666666666666667" d="M 484.5 449 L 485 450.5 L 483.5 453 L 483 451.5 L 484.5 449 Z " /><path fill="rgb(0,208,254)" stroke="rgb(0,208,254)" stroke-width="1" opacity="0.06666666666666667" d="M 485.5 452 L 486 455.5 L 485 455.5 L 485.5 452 Z " /><path fill="rgb(0,208,254)" stroke="rgb(0,208,254)" stroke-width="1" opacity="0.06666666666666667" d="M 155.5 456 L 156 461.5 L 154.5 464 L 154 462.5 L 155 461.5 L 155.5 456 Z " /><path fill="rgb(0,208,254)" stroke="rgb(0,208,254)" stroke-width="1" opacity="0.06666666666666667" d="M 153.5 457 L 154 460.5 L 153 460.5 L 153.5 457 Z " /><path fill="rgb(0,208,254)" stroke="rgb(0,208,254)" stroke-width="1" opacity="0.06666666666666667" d="M 484.5 457 L 486 461.5 L 486 465.5 L 484.5 468 L 483 465.5 L 485 465.5 L 484.5 457 Z " /><path fill="rgb(0,208,254)" stroke="rgb(0,208,254)" stroke-width="1" opacity="0.06666666666666667" d="M 486.5 457 L 487 459.5 L 486 459.5 L 486.5 457 Z " /><path fill="rgb(0,208,254)" stroke="rgb(0,208,254)" stroke-width="1" opacity="0.06666666666666667" d="M 154.5 465 L 155.5 466 L 157 465.5 L 156 467.5 L 158 468.5 L 157.5 470 L 159 470.5 Q 156.5 472 160 473.5 L 159.5 475 L 154 465.5 L 154.5 465 Z " /><path fill="rgb(0,208,254)" stroke="rgb(0,208,254)" stroke-width="1" opacity="0.06666666666666667" d="M 480.5 471 L 481.5 472 L 483 471.5 L 477.5 478 L 473.5 481 L 466.5 484 L 173.5 484 L 166.5 481 L 161 476.5 L 161.5 474 L 162.5 477 L 164 476.5 L 165.5 479 L 167 478.5 L 166.5 480 L 169.5 481 L 171.5 480 L 171.5 481 L 170 481.5 L 172.5 482 L 174 481.5 L 173.5 483 L 467 482.5 L 466.5 481 L 469.5 482 L 469.5 481 L 468 480.5 L 469.5 480 L 471.5 481 L 471.5 479 L 473.5 480 L 473.5 478 L 474.5 479 L 477 476.5 L 477.5 475 L 481 472.5 L 480.5 471 Z " /><path fill="rgb(67,193,250)" stroke="rgb(67,193,250)" stroke-width="1" opacity="1" d="M 231.5 322 L 235 322.5 L 231.5 323 L 231.5 322 Z " /><path fill="rgb(67,193,250)" stroke="rgb(67,193,250)" stroke-width="1" opacity="1" d="M 287.5 322 L 294 322.5 L 287.5 323 L 287.5 322 Z " /><path fill="rgb(67,193,250)" stroke="rgb(67,193,250)" stroke-width="1" opacity="1" d="M 346.5 322 L 353 322.5 L 346.5 323 L 346.5 322 Z " /><path fill="rgb(67,193,250)" stroke="rgb(67,193,250)" stroke-width="1" opacity="1" d="M 405.5 322 L 409 322.5 L 405.5 323 L 405.5 322 Z " /><path fill="rgb(67,193,250)" stroke="rgb(67,193,250)" stroke-width="1" opacity="1" d="M 257.5 337 L 265 337.5 L 257.5 338 L 257.5 337 Z " /><path fill="rgb(67,193,250)" stroke="rgb(67,193,250)" stroke-width="1" opacity="1" d="M 316.5 337 L 324 337.5 L 316.5 338 L 316.5 337 Z " /><path fill="rgb(67,193,250)" stroke="rgb(67,193,250)" stroke-width="1" opacity="1" d="M 375.5 337 L 383 337.5 L 375.5 338 L 375.5 337 Z " /><path fill="rgb(67,193,250)" stroke="rgb(67,193,250)" stroke-width="1" opacity="1" d="M 231.5 374 L 234 374.5 L 231.5 375 L 231.5 374 Z " /><path fill="rgb(67,193,250)" stroke="rgb(67,193,250)" stroke-width="1" opacity="1" d="M 288.5 374 L 293 374.5 L 288.5 375 L 288.5 374 Z " /><path fill="rgb(67,193,250)" stroke="rgb(67,193,250)" stroke-width="1" opacity="1" d="M 347.5 374 L 352 374.5 L 347.5 375 L 347.5 374 Z " /><path fill="rgb(67,193,250)" stroke="rgb(67,193,250)" stroke-width="1" opacity="1" d="M 406.5 374 L 409 374.5 L 406.5 375 L 406.5 374 Z " /><path fill="rgb(146,219,250)" stroke="rgb(146,219,250)" stroke-width="1" opacity="1" d="M 257.5 382 L 266 382.5 L 257.5 383 L 257.5 382 Z " /><path fill="rgb(146,219,250)" stroke="rgb(146,219,250)" stroke-width="1" opacity="1" d="M 315.5 382 L 324 382.5 L 315.5 383 L 315.5 382 Z " /><path fill="rgb(146,219,250)" stroke="rgb(146,219,250)" stroke-width="1" opacity="1" d="M 374.5 382 L 383 382.5 L 374.5 383 L 374.5 382 Z " /><path fill="rgb(146,219,250)" stroke="rgb(146,219,250)" stroke-width="1" opacity="1" d="M 234.5 413 L 237 413.5 L 234.5 414 L 234.5 413 Z " /><path fill="rgb(146,219,250)" stroke="rgb(146,219,250)" stroke-width="1" opacity="1" d="M 285.5 413 L 288 413.5 L 285.5 414 L 285.5 413 Z " /><path fill="rgb(146,219,250)" stroke="rgb(146,219,250)" stroke-width="1" opacity="1" d="M 293.5 413 L 296 413.5 L 293.5 414 L 293.5 413 Z " /><path fill="rgb(146,219,250)" stroke="rgb(146,219,250)" stroke-width="1" opacity="1" d="M 344.5 413 L 347 413.5 L 344.5 414 L 344.5 413 Z " /><path fill="rgb(146,219,250)" stroke="rgb(146,219,250)" stroke-width="1" opacity="1" d="M 352.5 413 L 355 413.5 L 352.5 414 L 352.5 413 Z " /><path fill="rgb(146,219,250)" stroke="rgb(146,219,250)" stroke-width="1" opacity="1" d="M 403.5 413 L 406 413.5 L 403.5 414 L 403.5 413 Z " /><path fill="rgb(146,219,250)" stroke="rgb(146,219,250)" stroke-width="1" opacity="1" d="M 231.5 419 L 234 419.5 L 231.5 420 L 231.5 419 Z " /><path fill="rgb(146,219,250)" stroke="rgb(146,219,250)" stroke-width="1" opacity="1" d="M 288.5 419 L 293 419.5 L 288.5 420 L 288.5 419 Z " /><path fill="rgb(146,219,250)" stroke="rgb(146,219,250)" stroke-width="1" opacity="1" d="M 347.5 419 L 352 419.5 L 347.5 420 L 347.5 419 Z " /><path fill="rgb(146,219,250)" stroke="rgb(146,219,250)" stroke-width="1" opacity="1" d="M 406.5 419 L 409 419.5 L 406.5 420 L 406.5 419 Z " /><path fill="rgb(146,219,250)" stroke="rgb(146,219,250)" stroke-width="1" opacity="1" d="M 257.5 421 L 265 421.5 L 257.5 422 L 257.5 421 Z " /><path fill="rgb(146,219,250)" stroke="rgb(146,219,250)" stroke-width="1" opacity="1" d="M 316.5 421 L 324 421.5 L 316.5 422 L 316.5 421 Z " /><path fill="rgb(146,219,250)" stroke="rgb(146,219,250)" stroke-width="1" opacity="1" d="M 375.5 421 L 383 421.5 L 375.5 422 L 375.5 421 Z " /><path fill="rgb(250,253,254)" stroke="rgb(250,253,254)" stroke-width="1" opacity="1" d="M 230.5 323 L 237.5 323 Q 238.2 324.8 241.5 324 L 255.5 331 L 266.5 331 L 280.5 324 Q 283.8 324.8 284.5 323 L 296.5 323 Q 297.3 324.8 300.5 324 L 314.5 331 L 325.5 331 L 339.5 324 Q 342.8 324.8 343.5 323 L 355.5 323 Q 356.3 324.8 359.5 324 L 373.5 331 L 384.5 331 L 398.5 324 Q 401.7 324.8 402.5 323 L 409.5 323 Q 411.8 323.8 411 327.5 L 409.5 329 L 402.5 329 L 399.5 330 L 391.5 335 L 385.5 337 L 372.5 337 Q 371.8 335.3 368.5 336 L 360.5 331 L 354.5 329 L 343.5 329 L 336.5 332 L 332.5 335 L 326.5 337 L 313.5 337 L 307.5 335 L 303.5 332 L 296.5 329 L 284.5 329 L 273.5 335 L 267.5 337 L 254.5 337 L 248.5 335 L 240.5 330 L 237.5 329 L 230.5 329 L 229 327.5 Q 228.3 323.8 230.5 323 Z " /><path fill="rgb(250,253,254)" stroke="rgb(250,253,254)" stroke-width="1" opacity="1" d="M 230.5 368 L 236.5 368 Q 237.3 369.8 240.5 369 L 254.5 376 L 267.5 376 L 281.5 369 Q 285.5 370 286.5 368 L 295.5 368 L 296.5 369 L 302.5 370 L 306.5 373 L 313.5 376 L 326.5 376 L 340.5 369 Q 343.8 369.8 344.5 368 L 353.5 368 Q 354.5 370 358.5 369 L 372.5 376 L 385.5 376 L 396.5 370 L 402.5 369 L 403.5 368 L 409.5 368 Q 411.8 368.8 411 372.5 L 409.5 374 L 400.5 375 L 386.5 382 L 371.5 382 L 357.5 375 Q 354.3 375.8 353.5 374 L 345.5 374 Q 344.8 375.8 341.5 375 L 327.5 382 L 312.5 382 L 298.5 375 Q 295.3 375.8 294.5 374 L 286.5 374 Q 285.8 375.8 282.5 375 L 268.5 382 L 253.5 382 L 239.5 375 L 230.5 374 L 229 372.5 Q 228.3 368.8 230.5 368 Z " /><path fill="rgb(250,253,254)" stroke="rgb(250,253,254)" stroke-width="1" opacity="1" d="M 231.5 413 L 242.5 415 L 253.5 421 Q 256.7 420.3 257.5 422 L 264.5 422 L 265.5 421 L 271.5 420 L 273.5 418 L 282.5 414 L 292.5 413 L 293.5 414 L 298.5 414 L 301.5 415 L 312.5 421 Q 315.8 420.3 316.5 422 L 323.5 422 Q 324.3 420.3 327.5 421 L 341.5 414 L 351.5 413 L 352.5 414 L 357.5 414 L 360.5 415 L 371.5 421 Q 374.8 420.3 375.5 422 L 382.5 422 Q 383.3 420.3 386.5 421 L 397.5 415 L 408.5 413 L 411 414.5 Q 411.8 418.3 409.5 419 L 398.5 421 L 387.5 427 Q 383.5 426 382.5 428 L 374.5 428 L 373.5 427 L 367.5 426 L 356.5 420 L 347.5 419 L 346.5 420 L 339.5 421 L 335.5 424 L 328.5 427 Q 324.5 426 323.5 428 L 316.5 428 L 315.5 427 L 308.5 426 L 297.5 420 L 288.5 419 Q 287.5 421 283.5 420 L 269.5 427 Q 266.3 426.3 265.5 428 L 257.5 428 L 256.5 427 L 249.5 426 L 241.5 421 L 230.5 419 L 229 417.5 L 229.5 414 L 231.5 413 Z " /><path fill="rgb(0,164,165)" stroke="rgb(0,164,165)" stroke-width="1" opacity="0.00784313725490196" d="M 293.5 230 L 337 230.5 L 293.5 231 L 293.5 230 Z " /><path fill="rgb(129,157,156)" stroke="rgb(129,157,156)" stroke-width="1" opacity="0.00784313725490196" d="M 293.5 215 L 337 215.5 L 293.5 216 L 293.5 215 Z " /><path fill="rgb(69,73,86)" stroke="rgb(69,73,86)" stroke-width="1" opacity="0.047058823529411764" d="M 303.5 154 L 306 154.5 L 303.5 155 L 303.5 154 Z " /><path fill="rgb(69,73,86)" stroke="rgb(69,73,86)" stroke-width="1" opacity="0.047058823529411764" d="M 306.5 156 L 309 156.5 L 306.5 157 L 306.5 156 Z " /><path fill="rgb(69,73,86)" stroke="rgb(69,73,86)" stroke-width="1" opacity="0.047058823529411764" d="M 291.5 160 L 292 160.5 L 288.5 164 L 288 163.5 L 291.5 160 Z " /><path fill="rgb(69,73,86)" stroke="rgb(69,73,86)" stroke-width="1" opacity="0.047058823529411764" d="M 374.5 162 L 375 164.5 L 372.5 167 L 372 166.5 Q 374.4 165.4 374.5 162 Z " /><path fill="rgb(69,73,86)" stroke="rgb(69,73,86)" stroke-width="1" opacity="0.047058823529411764" d="M 302.5 163 L 306 163.5 L 302.5 164 L 302.5 163 Z " /><path fill="rgb(69,73,86)" stroke="rgb(69,73,86)" stroke-width="1" opacity="0.047058823529411764" d="M 359.5 163 L 363 163.5 L 359.5 164 L 359.5 163 Z " /><path fill="rgb(69,73,86)" stroke="rgb(69,73,86)" stroke-width="1" opacity="0.047058823529411764" d="M 365.5 164 L 367 164.5 L 363.5 166 L 363.5 165 L 365.5 164 Z " /><path fill="rgb(69,73,86)" stroke="rgb(69,73,86)" stroke-width="1" opacity="0.047058823529411764" d="M 294.5 167 L 295.5 168 L 297 167.5 L 294.5 170 L 293 168.5 L 294.5 167 Z " /><path fill="rgb(69,73,86)" stroke="rgb(69,73,86)" stroke-width="1" opacity="0.047058823529411764" d="M 352.5 167 L 353 167.5 L 350.5 170 L 350 169.5 L 352.5 167 Z " /><path fill="rgb(69,73,86)" stroke="rgb(69,73,86)" stroke-width="1" opacity="0.047058823529411764" d="M 290.5 175 L 291.5 179 L 339 178.5 L 339.5 175 L 340 180.5 L 338.5 180 L 291.5 180 L 290.5 181 L 290.5 175 Z " /><path fill="rgb(69,73,86)" stroke="rgb(69,73,86)" stroke-width="1" opacity="0.047058823529411764" d="M 348.5 175 L 349 229.5 L 348 229.5 L 348.5 175 Z " /><path fill="rgb(69,73,86)" stroke="rgb(69,73,86)" stroke-width="1" opacity="0.047058823529411764" d="M 281.5 176 L 282 229.5 L 281 229.5 L 281.5 176 Z " /><path fill="rgb(69,73,86)" stroke="rgb(69,73,86)" stroke-width="1" opacity="0.047058823529411764" d="M 290.5 188 L 340 188.5 L 339.5 207 L 338.5 189 L 291 189.5 L 290.5 207 L 290.5 188 Z " /><path fill="rgb(69,73,86)" stroke="rgb(69,73,86)" stroke-width="1" opacity="0.047058823529411764" d="M 290.5 214 L 291 230.5 L 290 230.5 L 290.5 214 Z " /><path fill="rgb(69,73,86)" stroke="rgb(69,73,86)" stroke-width="1" opacity="0.047058823529411764" d="M 339.5 214 L 340 230.5 L 339 230.5 L 339.5 214 Z " /><path fill="rgb(100,102,102)" stroke="rgb(100,102,102)" stroke-width="1" opacity="0.011764705882352941" d="M 286.5 164 L 288 164.5 L 285 166.5 L 285.5 168 L 284 166.5 L 286.5 164 Z " /><path fill="rgb(100,102,102)" stroke="rgb(100,102,102)" stroke-width="1" opacity="0.011764705882352941" d="M 350.5 170 L 350 171.5 L 349.5 173 L 349 171.5 L 350.5 170 Z " /><path fill="rgb(100,102,102)" stroke="rgb(100,102,102)" stroke-width="1" opacity="0.011764705882352941" d="M 293.5 205 L 337 205.5 L 293.5 206 L 293.5 205 Z " /><path fill="rgb(2,166,242)" stroke="rgb(2,166,242)" stroke-width="1" opacity="0.2" d="M 206.5 237 L 207 237.5 L 203.5 241 L 203 240.5 L 206.5 237 Z " /><path fill="rgb(2,166,242)" stroke="rgb(2,166,242)" stroke-width="1" opacity="0.2" d="M 434.5 238 L 437 240.5 L 436.5 241 L 434 238.5 L 434.5 238 Z " /><path fill="rgb(2,166,242)" stroke="rgb(2,166,242)" stroke-width="1" opacity="0.2" d="M 445.5 268 L 446 270.5 L 445 270.5 L 445.5 268 Z " /><path fill="rgb(2,166,242)" stroke="rgb(2,166,242)" stroke-width="1" opacity="0.2" d="M 188.5 297 L 189 299.5 L 188 299.5 L 188.5 297 Z " /><path fill="rgb(2,166,242)" stroke="rgb(2,166,242)" stroke-width="1" opacity="0.2" d="M 182.5 326 L 183 328.5 L 182 328.5 L 182.5 326 Z " /><path fill="rgb(2,166,242)" stroke="rgb(2,166,242)" stroke-width="1" opacity="0.2" d="M 174.5 481 L 178 481.5 L 174.5 482 L 174.5 481 Z " /><path fill="rgb(2,166,242)" stroke="rgb(2,166,242)" stroke-width="1" opacity="0.2" d="M 462.5 481 L 466 481.5 L 462.5 482 L 462.5 481 Z " /><path fill="rgb(60,79,80)" stroke="rgb(60,79,80)" stroke-width="1" opacity="0.5019607843137255" d="M 302.5 156 L 306 156.5 L 302.5 157 L 302.5 156 Z " /><path fill="rgb(60,79,80)" stroke="rgb(60,79,80)" stroke-width="1" opacity="0.5019607843137255" d="M 358.5 156 L 363 156.5 L 358.5 157 L 358.5 156 Z " /><path fill="rgb(60,79,80)" stroke="rgb(60,79,80)" stroke-width="1" opacity="0.5019607843137255" d="M 312.5 158 L 315 159.5 L 313.5 159 Q 311.1 158.9 312.5 158 Z " /><path fill="rgb(60,79,80)" stroke="rgb(60,79,80)" stroke-width="1" opacity="0.5019607843137255" d="M 293.5 159 L 294 159.5 L 291.5 162 L 291 161.5 L 293.5 159 Z " /><path fill="rgb(60,79,80)" stroke="rgb(60,79,80)" stroke-width="1" opacity="0.5019607843137255" d="M 371.5 159 L 374 161.5 L 373.5 162 L 371 159.5 L 371.5 159 Z " /><path fill="rgb(60,79,80)" stroke="rgb(60,79,80)" stroke-width="1" opacity="0.5019607843137255" d="M 348.5 160 L 349 160.5 L 343.5 166 L 343 165.5 L 348.5 160 Z " /><path fill="rgb(60,79,80)" stroke="rgb(60,79,80)" stroke-width="1" opacity="0.5019607843137255" d="M 306.5 163 L 309 163.5 L 306.5 164 L 306.5 163 Z " /><path fill="rgb(60,79,80)" stroke="rgb(60,79,80)" stroke-width="1" opacity="0.5019607843137255" d="M 356.5 163 L 359 163.5 L 356.5 164 L 356.5 163 Z " /><path fill="rgb(60,79,80)" stroke="rgb(60,79,80)" stroke-width="1" opacity="0.5019607843137255" d="M 352.5 165 L 353 165.5 L 348.5 170 L 348 169.5 L 352.5 165 Z " /><path fill="rgb(60,79,80)" stroke="rgb(60,79,80)" stroke-width="1" opacity="0.5019607843137255" d="M 346.5 174 L 347 232.5 L 346 232.5 L 346.5 174 Z " /><path fill="rgb(60,79,80)" stroke="rgb(60,79,80)" stroke-width="1" opacity="0.5019607843137255" d="M 283.5 175 L 284 232.5 L 283 232.5 L 283.5 175 Z " /><path fill="rgb(60,79,80)" stroke="rgb(60,79,80)" stroke-width="1" opacity="0.5019607843137255" d="M 290.5 181 L 340 181.5 L 290.5 182 L 290.5 181 Z " /><path fill="rgb(60,79,80)" stroke="rgb(60,79,80)" stroke-width="1" opacity="0.5019607843137255" d="M 290.5 207 L 340 207.5 L 290.5 208 L 290.5 207 Z " /><path fill="rgb(60,79,80)" stroke="rgb(60,79,80)" stroke-width="1" opacity="0.5019607843137255" d="M 291.5 213 L 339 213.5 L 291.5 214 L 291.5 213 Z " /><path fill="rgb(57,72,78)" stroke="rgb(57,72,78)" stroke-width="1" opacity="0.9882352941176471" d="M 300.5 157 L 308.5 157 L 315.5 160 L 318 162.5 L 315.5 166 L 313.5 166 L 308.5 163 L 300.5 163 Q 295 165 292 169.5 L 290 173.5 L 290 181.5 L 339.5 182 L 341 170.5 Q 343.7 163.7 349.5 160 L 356.5 157 L 365.5 157 L 370.5 159 L 374 162.5 Q 374.5 165.5 372.5 166 L 369.5 166 L 364.5 163 L 356.5 163 Q 351 165 348 169.5 L 346 174.5 L 346 232.5 L 345 233.5 L 344.5 277 L 341.5 278 L 340 276.5 L 339.5 264 L 290 264.5 L 289 267.5 L 289 275.5 Q 291.3 276.8 288.5 278 L 285 276.5 L 285 233.5 L 284 232.5 L 284 173.5 L 286 167.5 L 290.5 162 L 294.5 159 L 300.5 157 Z M 291 188 L 290 208 L 340 208 L 340 189 L 291 188 Z M 292 213 L 290 215 L 290 233 L 340 233 L 340 215 L 339 213 L 292 213 Z M 291 238 L 289 242 L 289 257 L 290 259 L 340 259 L 340 239 L 291 238 Z " /><path fill="rgb(64,60,51)" stroke="rgb(64,60,51)" stroke-width="1" opacity="1" d="M 284.5 233 L 285.5 277 Q 288.5 277.5 289 275.5 L 289.5 267 L 290 275.5 Q 289.5 278.5 285.5 278 L 284 276.5 L 284.5 233 Z " /><path fill="rgb(64,60,51)" stroke="rgb(64,60,51)" stroke-width="1" opacity="1" d="M 345.5 233 L 346 276.5 Q 345.5 278.5 342.5 278 Q 340 277 341.5 276 L 344.5 277 L 345.5 233 Z " /><path fill="rgb(64,60,51)" stroke="rgb(64,60,51)" stroke-width="1" opacity="1" d="M 290.5 238 L 340 238.5 L 290.5 239 L 290.5 238 Z " /><path fill="rgb(64,60,51)" stroke="rgb(64,60,51)" stroke-width="1" opacity="1" d="M 289.5 241 L 290 256.5 L 289 256.5 L 289.5 241 Z " /><path fill="rgb(64,60,51)" stroke="rgb(64,60,51)" stroke-width="1" opacity="1" d="M 290.5 264 L 340 264.5 L 290.5 265 L 290.5 264 Z " /></svg>