<svg viewBox="0 0 562 640" version="1.1" xmlns="http://www.w3.org/2000/svg" desc="Created with imagetracer.js version 1.2.6" ><path fill="rgb(230,230,230)" stroke="rgb(230,230,230)" stroke-width="1" opacity="0.996078431372549" d="M 204.5 1 L 205 2.5 L 202.5 3 L 202.5 2 L 204.5 1 Z " /><path fill="rgb(230,230,230)" stroke="rgb(230,230,230)" stroke-width="1" opacity="0.996078431372549" d="M 207.5 1 L 211 1.5 L 207.5 2 L 207.5 1 Z " /><path fill="rgb(230,230,230)" stroke="rgb(230,230,230)" stroke-width="1" opacity="0.996078431372549" d="M 218.5 1 L 221 1.5 L 218.5 2 L 218.5 1 Z " /><path fill="rgb(230,230,230)" stroke="rgb(230,230,230)" stroke-width="1" opacity="0.996078431372549" d="M 224.5 1 L 227 2.5 L 224.5 3 L 224.5 1 Z " /><path fill="rgb(230,230,230)" stroke="rgb(230,230,230)" stroke-width="1" opacity="0.996078431372549" d="M 200.5 2 L 201 3.5 L 199.5 4 Q 198 3 200.5 2 Z " /><path fill="rgb(230,230,230)" stroke="rgb(230,230,230)" stroke-width="1" opacity="0.996078431372549" d="M 228.5 2 Q 231 3 229.5 4 L 228 3.5 L 228.5 2 Z " /><path fill="rgb(230,230,230)" stroke="rgb(230,230,230)" stroke-width="1" opacity="0.996078431372549" d="M 197.5 3 L 198 4.5 L 190.5 8 Q 189 7 191.5 6 L 197.5 3 Z " /><path fill="rgb(230,230,230)" stroke="rgb(230,230,230)" stroke-width="1" opacity="0.996078431372549" d="M 231.5 3 Q 245 8.5 253 19.5 L 256 24.5 Q 255 26 254 23.5 L 252 19.5 L 243.5 11 L 237.5 7 L 231 4.5 L 231.5 3 Z " /><path fill="rgb(230,230,230)" stroke="rgb(230,230,230)" stroke-width="1" opacity="0.996078431372549" d="M 188.5 8 Q 190 9 187.5 10 L 154 42.5 L 166.5 49 L 178.5 57 L 194 70.5 L 209 88.5 L 216 99.5 L 220.5 109 L 231.5 98 L 232 98.5 L 221 109.5 L 221 111.5 L 225 119.5 L 228 128.5 L 229 135.5 L 230 136.5 L 230 140.5 L 231 141.5 Q 229.7 146.3 232 147.5 L 232 155.5 L 233 156.5 L 233 176.5 L 232 177.5 L 232 185.5 L 231 186.5 L 231 191.5 L 230 192.5 L 230 196.5 L 229 197.5 L 228 204.5 L 225 213.5 L 223 216.5 L 223 218.5 L 221 221.5 L 221 223.5 L 206 248.5 L 192.5 263 L 125.5 197 L 116.5 201 L 105.5 202 L 104.5 201 L 98.5 201 L 88.5 197 L 82.5 193 L 77 187.5 L 73 181.5 L 69 171.5 L 68 159.5 L 69 158.5 L 70 149.5 L 73 143.5 L 1 70.5 L 9.5 62 L 21.5 53 L 37.5 44 L 51.5 38 L 57.5 36 L 60.5 36 L 61.5 35 L 64.5 35 L 65.5 34 L 68.5 34 L 69.5 33 Q 73.5 34 74.5 32 L 81.5 32 L 82.5 31 L 111.5 31 L 112.5 32 L 119.5 32 L 120.5 33 L 124.5 33 L 125.5 34 L 136.5 36 L 150.5 42 L 153.5 42 L 180.5 14 L 188.5 8 Z " /><path fill="rgb(230,230,230)" stroke="rgb(230,230,230)" stroke-width="1" opacity="0.996078431372549" d="M 260.5 37 L 262 39.5 L 260.5 40 L 260.5 37 Z " /><path fill="rgb(230,230,230)" stroke="rgb(230,230,230)" stroke-width="1" opacity="0.996078431372549" d="M 261.5 43 L 262 53.5 L 261 53.5 L 261.5 43 Z " /><path fill="rgb(230,230,230)" stroke="rgb(230,230,230)" stroke-width="1" opacity="0.996078431372549" d="M 260.5 57 L 262 57.5 Q 261 60 260 58.5 L 260.5 57 Z " /><path fill="rgb(230,230,230)" stroke="rgb(230,230,230)" stroke-width="1" opacity="0.996078431372549" d="M 259.5 61 L 261 61.5 Q 260 64 259 62.5 L 259.5 61 Z " /><path fill="rgb(230,230,230)" stroke="rgb(230,230,230)" stroke-width="1" opacity="0.996078431372549" d="M 257.5 67 L 258 68.5 L 255.5 72 L 256 70.5 L 257.5 67 Z " /><path fill="rgb(230,230,230)" stroke="rgb(230,230,230)" stroke-width="1" opacity="0.996078431372549" d="M 253.5 75 L 254 75.5 L 252 77.5 L 247.5 83 L 247 82.5 L 251 78.5 L 253.5 75 Z " /><path fill="rgb(230,230,230)" stroke="rgb(230,230,230)" stroke-width="1" opacity="0.996078431372549" d="M 247.5 85 L 285 110.5 L 284.5 112 L 265.5 98 L 252.5 90 L 247 85.5 L 247.5 85 Z " /><path fill="rgb(230,230,230)" stroke="rgb(230,230,230)" stroke-width="1" opacity="0.996078431372549" d="M 233.5 99 L 251 111.5 L 249.5 111 L 235.5 102 L 233 99.5 L 233.5 99 Z " /><path fill="rgb(230,230,230)" stroke="rgb(230,230,230)" stroke-width="1" opacity="0.996078431372549" d="M 252.5 112 L 498.5 282 Q 501.8 273.8 508.5 269 L 510 268.5 L 508.5 266 L 315 132.5 L 316.5 133 L 368.5 168 L 397.5 189 L 410.5 197 L 452.5 227 L 465.5 235 L 507.5 265 L 510.5 267 L 513.5 267 L 519.5 264 Q 523.5 265 524.5 263 L 532.5 263 L 533.5 264 L 540.5 265 L 546.5 268 L 554 274.5 L 557 278.5 L 561 288.5 Q 560.2 291.8 562 292.5 L 562 299.5 L 561 300.5 L 561 304.5 L 559 310.5 L 556 315.5 L 547.5 324 L 536.5 329 Q 533.3 328.3 532.5 330 L 524.5 330 L 523.5 329 Q 519.3 329.7 517.5 328 L 516 328.5 L 514.5 326 L 509.5 324 L 501 315.5 L 496 304.5 L 495 293.5 Q 497.3 292.3 496 287.5 L 498 283.5 L 491.5 278 L 452.5 252 L 442.5 244 L 436.5 241 L 394.5 211 L 381.5 203 L 339.5 173 L 258.5 118 L 252 112.5 L 252.5 112 Z " /><path fill="rgb(230,230,230)" stroke="rgb(230,230,230)" stroke-width="1" opacity="0.996078431372549" d="M 286.5 112 L 314 130.5 L 313.5 132 L 287.5 114 Q 285 113 286.5 112 Z " /><path fill="rgb(230,230,230)" stroke="rgb(230,230,230)" stroke-width="1" opacity="0.996078431372549" d="M 534.5 333 L 536 333.5 Q 535 336 534 334.5 L 534.5 333 Z " /><path fill="rgb(230,230,230)" stroke="rgb(230,230,230)" stroke-width="1" opacity="0.996078431372549" d="M 514.5 334 L 515 335.5 L 513.5 336 Q 512 335 514.5 334 Z " /><path fill="rgb(230,230,230)" stroke="rgb(230,230,230)" stroke-width="1" opacity="0.996078431372549" d="M 513.5 337 L 514 338.5 L 512.5 339 Q 511 338 513.5 337 Z " /><path fill="rgb(230,230,230)" stroke="rgb(230,230,230)" stroke-width="1" opacity="0.996078431372549" d="M 530.5 346 L 532 346.5 Q 531 349 530 347.5 L 530.5 346 Z " /><path fill="rgb(230,230,230)" stroke="rgb(230,230,230)" stroke-width="1" opacity="0.996078431372549" d="M 510.5 347 L 511 348.5 L 509.5 349 Q 508 348 510.5 347 Z " /><path fill="rgb(230,230,230)" stroke="rgb(230,230,230)" stroke-width="1" opacity="0.996078431372549" d="M 509.5 350 L 510 351.5 L 508.5 352 Q 507 351 509.5 350 Z " /><path fill="rgb(230,230,230)" stroke="rgb(230,230,230)" stroke-width="1" opacity="0.996078431372549" d="M 526.5 359 L 528 359.5 Q 527 362 526 360.5 L 526.5 359 Z " /><path fill="rgb(230,230,230)" stroke="rgb(230,230,230)" stroke-width="1" opacity="0.996078431372549" d="M 506.5 360 L 507 361.5 L 505.5 362 Q 504 361 506.5 360 Z " /><path fill="rgb(230,230,230)" stroke="rgb(230,230,230)" stroke-width="1" opacity="0.996078431372549" d="M 505.5 363 L 506 364.5 L 504.5 365 Q 503 364 505.5 363 Z " /><path fill="rgb(230,230,230)" stroke="rgb(230,230,230)" stroke-width="1" opacity="0.996078431372549" d="M 522.5 372 L 524 372.5 Q 523 375 522 373.5 L 522.5 372 Z " /><path fill="rgb(230,230,230)" stroke="rgb(230,230,230)" stroke-width="1" opacity="0.996078431372549" d="M 502.5 373 L 503 374.5 L 501.5 375 Q 500 374 502.5 373 Z " /><path fill="rgb(230,230,230)" stroke="rgb(230,230,230)" stroke-width="1" opacity="0.996078431372549" d="M 501.5 376 L 502 377.5 L 500.5 378 Q 499 377 501.5 376 Z " /><path fill="rgb(230,230,230)" stroke="rgb(230,230,230)" stroke-width="1" opacity="0.996078431372549" d="M 518.5 385 L 520 385.5 Q 519 388 518 386.5 L 518.5 385 Z " /><path fill="rgb(230,230,230)" stroke="rgb(230,230,230)" stroke-width="1" opacity="0.996078431372549" d="M 498.5 386 L 499 387.5 L 497.5 388 Q 496 387 498.5 386 Z " /><path fill="rgb(230,230,230)" stroke="rgb(230,230,230)" stroke-width="1" opacity="0.996078431372549" d="M 497.5 389 L 498 390.5 L 496.5 391 Q 495 390 497.5 389 Z " /><path fill="rgb(230,230,230)" stroke="rgb(230,230,230)" stroke-width="1" opacity="0.996078431372549" d="M 514.5 398 L 516 398.5 Q 515 401 514 399.5 L 514.5 398 Z " /><path fill="rgb(230,230,230)" stroke="rgb(230,230,230)" stroke-width="1" opacity="0.996078431372549" d="M 494.5 399 L 495 400.5 L 493.5 401 Q 492 400 494.5 399 Z " /><path fill="rgb(230,230,230)" stroke="rgb(230,230,230)" stroke-width="1" opacity="0.996078431372549" d="M 493.5 402 L 494 403.5 L 492.5 404 Q 491 403 493.5 402 Z " /><path fill="rgb(230,230,230)" stroke="rgb(230,230,230)" stroke-width="1" opacity="0.996078431372549" d="M 510.5 411 L 512 411.5 Q 511 414 510 412.5 L 510.5 411 Z " /><path fill="rgb(230,230,230)" stroke="rgb(230,230,230)" stroke-width="1" opacity="0.996078431372549" d="M 490.5 412 L 491 413.5 L 489.5 414 Q 488 413 490.5 412 Z " /><path fill="rgb(230,230,230)" stroke="rgb(230,230,230)" stroke-width="1" opacity="0.996078431372549" d="M 489.5 415 L 490 416.5 L 488.5 417 Q 487 416 489.5 415 Z " /><path fill="rgb(230,230,230)" stroke="rgb(230,230,230)" stroke-width="1" opacity="0.996078431372549" d="M 506.5 424 L 508 424.5 Q 507 427 506 425.5 L 506.5 424 Z " /><path fill="rgb(230,230,230)" stroke="rgb(230,230,230)" stroke-width="1" opacity="0.996078431372549" d="M 486.5 425 L 487 426.5 L 485.5 427 Q 484 426 486.5 425 Z " /><path fill="rgb(230,230,230)" stroke="rgb(230,230,230)" stroke-width="1" opacity="0.996078431372549" d="M 485.5 428 L 486 429.5 L 484.5 430 Q 483 429 485.5 428 Z " /><path fill="rgb(230,230,230)" stroke="rgb(230,230,230)" stroke-width="1" opacity="0.996078431372549" d="M 502.5 437 L 504 437.5 Q 503 440 502 438.5 L 502.5 437 Z " /><path fill="rgb(230,230,230)" stroke="rgb(230,230,230)" stroke-width="1" opacity="0.996078431372549" d="M 482.5 438 L 483 439.5 L 481.5 440 Q 480 439 482.5 438 Z " /><path fill="rgb(230,230,230)" stroke="rgb(230,230,230)" stroke-width="1" opacity="0.996078431372549" d="M 481.5 441 L 482 442.5 L 480.5 443 Q 479 442 481.5 441 Z " /><path fill="rgb(230,230,230)" stroke="rgb(230,230,230)" stroke-width="1" opacity="0.996078431372549" d="M 498.5 450 L 500 450.5 Q 499 453 498 451.5 L 498.5 450 Z " /><path fill="rgb(230,230,230)" stroke="rgb(230,230,230)" stroke-width="1" opacity="0.996078431372549" d="M 478.5 451 L 479 452.5 L 477.5 453 Q 476 452 478.5 451 Z " /><path fill="rgb(230,230,230)" stroke="rgb(230,230,230)" stroke-width="1" opacity="0.996078431372549" d="M 477.5 454 L 478 455.5 L 476.5 456 Q 475 455 477.5 454 Z " /><path fill="rgb(230,230,230)" stroke="rgb(230,230,230)" stroke-width="1" opacity="0.996078431372549" d="M 494.5 463 L 496 463.5 Q 495 466 494 464.5 L 494.5 463 Z " /><path fill="rgb(230,230,230)" stroke="rgb(230,230,230)" stroke-width="1" opacity="0.996078431372549" d="M 474.5 464 L 475 465.5 L 473.5 466 Q 472 465 474.5 464 Z " /><path fill="rgb(230,230,230)" stroke="rgb(230,230,230)" stroke-width="1" opacity="0.996078431372549" d="M 473.5 467 L 474 468.5 L 472.5 469 Q 471 468 473.5 467 Z " /><path fill="rgb(230,230,230)" stroke="rgb(230,230,230)" stroke-width="1" opacity="0.996078431372549" d="M 490.5 476 L 492 476.5 Q 491 479 490 477.5 L 490.5 476 Z " /><path fill="rgb(230,230,230)" stroke="rgb(230,230,230)" stroke-width="1" opacity="0.996078431372549" d="M 470.5 477 L 471 478.5 L 469.5 479 Q 468 478 470.5 477 Z " /><path fill="rgb(230,230,230)" stroke="rgb(230,230,230)" stroke-width="1" opacity="0.996078431372549" d="M 469.5 480 L 470 481.5 L 468.5 482 Q 467 481 469.5 480 Z " /><path fill="rgb(230,230,230)" stroke="rgb(230,230,230)" stroke-width="1" opacity="0.996078431372549" d="M 486.5 489 L 488 489.5 Q 487 492 486 490.5 L 486.5 489 Z " /><path fill="rgb(230,230,230)" stroke="rgb(230,230,230)" stroke-width="1" opacity="0.996078431372549" d="M 466.5 490 L 467 491.5 L 465.5 492 Q 464 491 466.5 490 Z " /><path fill="rgb(230,230,230)" stroke="rgb(230,230,230)" stroke-width="1" opacity="0.996078431372549" d="M 465.5 493 L 466 494.5 L 464.5 495 Q 463 494 465.5 493 Z " /><path fill="rgb(230,230,230)" stroke="rgb(230,230,230)" stroke-width="1" opacity="0.996078431372549" d="M 482.5 502 L 484 502.5 Q 483 505 482 503.5 L 482.5 502 Z " /><path fill="rgb(230,230,230)" stroke="rgb(230,230,230)" stroke-width="1" opacity="0.996078431372549" d="M 461.5 506 L 462 507.5 L 460.5 508 Q 459 507 461.5 506 Z " /><path fill="rgb(230,230,230)" stroke="rgb(230,230,230)" stroke-width="1" opacity="0.996078431372549" d="M 478.5 515 L 480 515.5 Q 479 518 478 516.5 L 478.5 515 Z " /><path fill="rgb(230,230,230)" stroke="rgb(230,230,230)" stroke-width="1" opacity="0.996078431372549" d="M 457.5 519 L 458 520.5 L 456.5 521 Q 455 520 457.5 519 Z " /><path fill="rgb(230,230,230)" stroke="rgb(230,230,230)" stroke-width="1" opacity="0.996078431372549" d="M 474.5 528 L 476 528.5 Q 475 531 474 529.5 L 474.5 528 Z " /><path fill="rgb(230,230,230)" stroke="rgb(230,230,230)" stroke-width="1" opacity="0.996078431372549" d="M 453.5 532 L 454 533.5 L 452.5 534 Q 451 533 453.5 532 Z " /><path fill="rgb(230,230,230)" stroke="rgb(230,230,230)" stroke-width="1" opacity="0.996078431372549" d="M 470.5 541 L 472 541.5 Q 471 544 470 542.5 L 470.5 541 Z " /><path fill="rgb(230,230,230)" stroke="rgb(230,230,230)" stroke-width="1" opacity="0.996078431372549" d="M 469.5 544 L 471 544.5 Q 470 547 469 545.5 L 469.5 544 Z " /><path fill="rgb(230,230,230)" stroke="rgb(230,230,230)" stroke-width="1" opacity="0.996078431372549" d="M 449.5 545 L 450 546.5 L 448.5 547 Q 447 546 449.5 545 Z " /><path fill="rgb(230,230,230)" stroke="rgb(230,230,230)" stroke-width="1" opacity="0.996078431372549" d="M 466.5 554 L 468 554.5 Q 467 557 466 555.5 L 466.5 554 Z " /><path fill="rgb(230,230,230)" stroke="rgb(230,230,230)" stroke-width="1" opacity="0.996078431372549" d="M 465.5 557 L 467 557.5 Q 466 560 465 558.5 L 465.5 557 Z " /><path fill="rgb(230,230,230)" stroke="rgb(230,230,230)" stroke-width="1" opacity="0.996078431372549" d="M 445.5 558 L 446 559.5 L 444.5 560 Q 443 559 445.5 558 Z " /><path fill="rgb(230,230,230)" stroke="rgb(230,230,230)" stroke-width="1" opacity="0.996078431372549" d="M 462.5 567 L 464 567.5 Q 463 570 462 568.5 L 462.5 567 Z " /><path fill="rgb(230,230,230)" stroke="rgb(230,230,230)" stroke-width="1" opacity="0.996078431372549" d="M 461.5 570 L 463 570.5 Q 462 573 461 571.5 L 461.5 570 Z " /><path fill="rgb(230,230,230)" stroke="rgb(230,230,230)" stroke-width="1" opacity="0.996078431372549" d="M 441.5 571 L 442 572.5 L 440.5 573 Q 439 572 441.5 571 Z " /><path fill="rgb(230,230,230)" stroke="rgb(230,230,230)" stroke-width="1" opacity="0.996078431372549" d="M 438.5 581 L 439.5 583 L 509.5 583 L 521.5 587 L 527.5 591 L 534 597.5 L 540 607.5 L 541 613.5 L 542 614.5 L 542 639.5 L 348.5 640 L 348 615.5 L 349 614.5 L 349 611.5 L 351 605.5 L 356 597.5 L 361.5 592 L 373.5 585 L 379.5 584 L 380.5 583 L 436.5 583 L 438.5 581 Z " /><path fill="rgb(233,233,233)" stroke="rgb(233,233,233)" stroke-width="1" opacity="0.4117647058823529" d="M 206.5 0 L 209 0.5 L 206.5 1 L 206.5 0 Z " /><path fill="rgb(233,233,233)" stroke="rgb(233,233,233)" stroke-width="1" opacity="0.4117647058823529" d="M 220.5 0 L 223 0.5 L 220.5 1 L 220.5 0 Z " /><path fill="rgb(233,233,233)" stroke="rgb(233,233,233)" stroke-width="1" opacity="0.4117647058823529" d="M 185.5 9 L 186 9.5 L 183.5 12 L 183 11.5 L 185.5 9 Z " /><path fill="rgb(233,233,233)" stroke="rgb(233,233,233)" stroke-width="1" opacity="0.4117647058823529" d="M 243.5 9 L 248 13.5 L 247.5 14 L 243 9.5 L 243.5 9 Z " /><path fill="rgb(233,233,233)" stroke="rgb(233,233,233)" stroke-width="1" opacity="0.4117647058823529" d="M 250.5 16 L 253 18.5 L 252.5 19 L 250 16.5 L 250.5 16 Z " /><path fill="rgb(233,233,233)" stroke="rgb(233,233,233)" stroke-width="1" opacity="0.4117647058823529" d="M 87.5 30 L 107 30.5 L 87.5 31 L 87.5 30 Z " /><path fill="rgb(233,233,233)" stroke="rgb(233,233,233)" stroke-width="1" opacity="0.4117647058823529" d="M 78.5 31 L 82 31.5 L 78.5 32 L 78.5 31 Z " /><path fill="rgb(233,233,233)" stroke="rgb(233,233,233)" stroke-width="1" opacity="0.4117647058823529" d="M 112.5 31 L 116 31.5 L 112.5 32 L 112.5 31 Z " /><path fill="rgb(233,233,233)" stroke="rgb(233,233,233)" stroke-width="1" opacity="0.4117647058823529" d="M 262.5 42 L 263 54.5 L 262 54.5 L 262.5 42 Z " /><path fill="rgb(233,233,233)" stroke="rgb(233,233,233)" stroke-width="1" opacity="0.4117647058823529" d="M 12.5 59 L 13 59.5 L 10.5 62 L 10 61.5 L 12.5 59 Z " /><path fill="rgb(233,233,233)" stroke="rgb(233,233,233)" stroke-width="1" opacity="0.4117647058823529" d="M 5.5 65 L 6 65.5 L 1 70.5 L 73 144.5 L 72 144.5 L 0 70.5 L 5.5 65 Z " /><path fill="rgb(233,233,233)" stroke="rgb(233,233,233)" stroke-width="1" opacity="0.4117647058823529" d="M 258.5 67 L 259 68.5 L 257.5 71 L 257 69.5 L 258.5 67 Z " /><path fill="rgb(233,233,233)" stroke="rgb(233,233,233)" stroke-width="1" opacity="0.4117647058823529" d="M 251.5 79 L 252 79.5 L 248 83.5 L 249 85.5 Q 248 87 247 84.5 L 251.5 79 Z " /><path fill="rgb(233,233,233)" stroke="rgb(233,233,233)" stroke-width="1" opacity="0.4117647058823529" d="M 231.5 99 L 232 99.5 L 221.5 110 L 221 109.5 L 231.5 99 Z " /><path fill="rgb(233,233,233)" stroke="rgb(233,233,233)" stroke-width="1" opacity="0.4117647058823529" d="M 231.5 144 L 232 146.5 L 231 146.5 L 231.5 144 Z " /><path fill="rgb(233,233,233)" stroke="rgb(233,233,233)" stroke-width="1" opacity="0.4117647058823529" d="M 232.5 151 L 233 155.5 L 232 155.5 L 232.5 151 Z " /><path fill="rgb(233,233,233)" stroke="rgb(233,233,233)" stroke-width="1" opacity="0.4117647058823529" d="M 68.5 155 L 69 158.5 L 68 158.5 L 68.5 155 Z " /><path fill="rgb(233,233,233)" stroke="rgb(233,233,233)" stroke-width="1" opacity="0.4117647058823529" d="M 68.5 166 L 69 168.5 L 68 168.5 L 68.5 166 Z " /><path fill="rgb(233,233,233)" stroke="rgb(233,233,233)" stroke-width="1" opacity="0.4117647058823529" d="M 232.5 177 L 233 181.5 L 232 181.5 L 232.5 177 Z " /><path fill="rgb(233,233,233)" stroke="rgb(233,233,233)" stroke-width="1" opacity="0.4117647058823529" d="M 231.5 186 L 232 188.5 L 231 188.5 L 231.5 186 Z " /><path fill="rgb(233,233,233)" stroke="rgb(233,233,233)" stroke-width="1" opacity="0.4117647058823529" d="M 230.5 192 L 231 194.5 L 230 194.5 L 230.5 192 Z " /><path fill="rgb(233,233,233)" stroke="rgb(233,233,233)" stroke-width="1" opacity="0.4117647058823529" d="M 125.5 197 L 192 262.5 L 191.5 263 L 126.5 198 Q 124.1 197.9 125.5 197 Z " /><path fill="rgb(233,233,233)" stroke="rgb(233,233,233)" stroke-width="1" opacity="0.4117647058823529" d="M 101.5 201 L 105 201.5 L 101.5 202 L 101.5 201 Z " /><path fill="rgb(233,233,233)" stroke="rgb(233,233,233)" stroke-width="1" opacity="0.4117647058823529" d="M 111.5 201 L 115 201.5 L 111.5 202 L 111.5 201 Z " /><path fill="rgb(233,233,233)" stroke="rgb(233,233,233)" stroke-width="1" opacity="0.4117647058823529" d="M 204.5 250 L 205 250.5 L 202.5 253 L 202 252.5 L 204.5 250 Z " /><path fill="rgb(233,233,233)" stroke="rgb(233,233,233)" stroke-width="1" opacity="0.4117647058823529" d="M 199.5 256 L 200 256.5 L 193.5 263 L 193 262.5 L 199.5 256 Z " /><path fill="rgb(233,233,233)" stroke="rgb(233,233,233)" stroke-width="1" opacity="0.4117647058823529" d="M 521.5 263 L 524 263.5 L 521.5 264 L 521.5 263 Z " /><path fill="rgb(233,233,233)" stroke="rgb(233,233,233)" stroke-width="1" opacity="0.4117647058823529" d="M 533.5 263 L 536 263.5 L 533.5 264 L 533.5 263 Z " /><path fill="rgb(233,233,233)" stroke="rgb(233,233,233)" stroke-width="1" opacity="0.4117647058823529" d="M 495.5 281 L 498 283.5 L 497.5 284 L 495 281.5 L 495.5 281 Z " /><path fill="rgb(233,233,233)" stroke="rgb(233,233,233)" stroke-width="1" opacity="0.4117647058823529" d="M 561.5 289 L 562 291.5 L 561 291.5 L 561.5 289 Z " /><path fill="rgb(233,233,233)" stroke="rgb(233,233,233)" stroke-width="1" opacity="0.4117647058823529" d="M 495.5 290 L 496 292.5 L 495 292.5 L 495.5 290 Z " /><path fill="rgb(233,233,233)" stroke="rgb(233,233,233)" stroke-width="1" opacity="0.4117647058823529" d="M 495.5 300 L 496 302.5 L 495 302.5 L 495.5 300 Z " /><path fill="rgb(233,233,233)" stroke="rgb(233,233,233)" stroke-width="1" opacity="0.4117647058823529" d="M 561.5 300 L 562 302.5 L 561 302.5 L 561.5 300 Z " /><path fill="rgb(233,233,233)" stroke="rgb(233,233,233)" stroke-width="1" opacity="0.4117647058823529" d="M 502.5 317 L 508 322.5 L 507.5 323 L 502 317.5 L 502.5 317 Z " /><path fill="rgb(233,233,233)" stroke="rgb(233,233,233)" stroke-width="1" opacity="0.4117647058823529" d="M 554.5 317 L 555 317.5 L 549.5 323 L 549 322.5 L 554.5 317 Z " /><path fill="rgb(233,233,233)" stroke="rgb(233,233,233)" stroke-width="1" opacity="0.4117647058823529" d="M 514.5 326 L 516 328.5 L 515 328.5 L 514.5 326 Z " /><path fill="rgb(233,233,233)" stroke="rgb(233,233,233)" stroke-width="1" opacity="0.4117647058823529" d="M 459.5 581 L 460.5 582 L 507 582.5 L 459.5 583 L 459.5 581 Z " /><path fill="rgb(233,233,233)" stroke="rgb(233,233,233)" stroke-width="1" opacity="0.4117647058823529" d="M 384.5 582 L 437 582.5 L 384.5 583 L 384.5 582 Z " /><path fill="rgb(233,233,233)" stroke="rgb(233,233,233)" stroke-width="1" opacity="0.4117647058823529" d="M 510.5 583 L 513 583.5 L 510.5 584 L 510.5 583 Z " /><path fill="rgb(233,233,233)" stroke="rgb(233,233,233)" stroke-width="1" opacity="0.4117647058823529" d="M 364.5 589 L 365 589.5 L 362.5 592 L 362 591.5 L 364.5 589 Z " /><path fill="rgb(233,233,233)" stroke="rgb(233,233,233)" stroke-width="1" opacity="0.4117647058823529" d="M 529.5 592 L 533 595.5 L 532.5 596 L 529 592.5 L 529.5 592 Z " /><path fill="rgb(233,233,233)" stroke="rgb(233,233,233)" stroke-width="1" opacity="0.4117647058823529" d="M 542.5 617 L 543 639.5 L 542 639.5 L 542.5 617 Z " /><path fill="rgb(233,233,233)" stroke="rgb(233,233,233)" stroke-width="1" opacity="0.4117647058823529" d="M 347.5 619 L 348 639.5 L 347 639.5 L 347.5 619 Z " /><path fill="rgb(0,0,0)" stroke="rgb(0,0,0)" stroke-width="1" opacity="0" d="M 0.5 0 L 197.5 0 L 199.5 1 Q 200.5 -1 204.5 0 L 204.5 1 L 201.5 1 L 195.5 3 L 186.5 8 L 183.5 11 L 183.5 9 L 181 10.5 L 182 11.5 L 152.5 41 L 150.5 41 L 147.5 39 L 132.5 34 L 124.5 33 L 123.5 32 L 119.5 32 L 118.5 31 L 111.5 31 L 110.5 30 L 83.5 30 L 82.5 31 L 75.5 31 L 74.5 32 L 70.5 32 L 69.5 33 L 61.5 34 L 57.5 36 L 54.5 36 L 51.5 38 L 39.5 42 L 22.5 52 L 20.5 51 L 21 52.5 L 18.5 55 L 15.5 57 L 15.5 55 L 13 56.5 L 14 57.5 L 10.5 61 L 0.5 70 L 1.5 67 L 0 66.5 L 0.5 0 Z M 196 1 L 196 2 L 198 2 L 196 1 Z M 84 28 L 84 29 L 111 29 L 84 28 Z M 76 29 L 76 30 L 82 30 L 76 29 Z M 113 29 L 113 30 L 119 30 L 113 29 Z M 71 30 L 71 31 L 75 31 L 71 30 Z M 120 30 L 120 31 L 124 31 L 120 30 Z M 66 31 L 66 32 L 69 32 L 66 31 Z M 126 31 L 126 32 L 129 32 L 126 31 Z M 62 32 L 62 33 L 65 33 L 62 32 Z M 130 32 L 130 33 L 133 33 L 130 32 Z M 59 33 L 59 34 L 61 34 L 59 33 Z M 134 33 L 134 34 L 136 34 L 134 33 Z M 55 34 L 55 35 L 58 35 L 55 34 Z M 137 34 L 137 35 L 139 35 L 137 34 Z M 47 37 L 47 38 L 49 38 L 47 37 Z M 146 37 L 146 38 L 148 38 L 146 37 Z M 151 39 L 151 40 L 153 40 L 151 39 Z " /><path fill="rgb(0,0,0)" stroke="rgb(0,0,0)" stroke-width="1" opacity="0" d="M 224.5 0 L 230.5 1 L 231.5 0 L 561.5 0 L 562 282.5 L 561 284.5 L 562 287.5 L 561 287.5 L 560 283.5 L 561 280.5 L 559.5 279 Q 558.3 281.3 557 278.5 L 559 278.5 L 557.5 276 Q 556.3 278.3 555 275.5 L 557 275.5 L 554.5 272 L 553.5 273 L 551 270.5 Q 553.3 269.3 550.5 268 L 549 268.5 L 549.5 270 L 546.5 267 L 540.5 264 L 532.5 263 L 531.5 262 L 525.5 262 Q 524.2 264.3 519.5 263 L 513.5 266 L 510.5 266 L 476 241.5 L 476.5 240 L 474.5 241 L 421 203.5 L 421.5 202 L 419.5 203 L 269 98.5 L 269.5 97 L 267.5 98 L 248 84.5 L 252.5 79 Q 253.8 81.3 255 78.5 L 254 76.5 L 255.5 75 Q 256.8 77.3 258 74.5 L 259 71.5 L 257 71.5 L 260.5 65 L 261.5 67 L 262 64.5 L 261 61.5 L 263 56.5 L 263 40.5 L 262 39.5 L 262 35.5 L 260 30.5 L 261 28.5 L 259 28.5 L 260 26.5 L 258 26.5 L 259 24.5 L 257.5 25 L 256 23.5 L 255 21.5 L 256 19.5 L 254.5 20 L 251 16.5 L 253 16.5 L 249.5 12 L 248 12.5 Q 250.3 11.3 247.5 10 L 246 10.5 L 246.5 12 L 239.5 6 Q 233.5 2 224.5 1 L 224.5 0 Z M 232 1 L 232 2 L 234 2 L 232 1 Z M 263 32 L 262 35 L 263 35 L 263 32 Z M 264 36 L 263 40 L 264 40 L 264 36 Z M 265 40 L 264 56 L 265 56 L 265 40 Z M 264 57 L 263 61 L 264 61 L 264 57 Z M 263 61 L 262 64 L 263 64 L 263 61 Z M 526 260 L 526 261 L 532 261 L 526 260 Z M 520 261 L 520 262 L 524 262 L 520 261 Z M 534 261 L 534 262 L 537 262 L 534 261 Z M 517 262 L 517 263 L 519 263 L 517 262 Z M 539 262 L 539 263 L 541 263 L 539 262 Z M 511 264 L 511 265 L 514 265 L 511 264 Z " /><path fill="rgb(0,0,0)" stroke="rgb(0,0,0)" stroke-width="1" opacity="0" d="M 0.5 72 L 72 144.5 L 68 153.5 Q 69.2 159.7 67 162.5 L 68 163.5 L 68 170.5 L 70 176.5 L 69 179.5 L 71.5 183 Q 72.8 180.8 74 183.5 L 72 183.5 L 73.5 186 Q 74.8 183.8 76 186.5 L 74 186.5 L 76.5 190 L 77.5 189 L 82.5 194 L 90.5 199 L 99.5 202 L 115.5 202 L 126.5 198 L 193.5 264 L 202.5 254 Q 203.8 256.3 205 253.5 L 204.5 252 L 203 252.5 L 206.5 249 Q 207.8 251.3 209 248.5 L 208.5 247 L 207 247.5 L 208.5 246 Q 209.8 248.3 211 245.5 L 210.5 244 L 209 244.5 L 210.5 243 Q 211.7 245.3 213 242.5 L 212.5 241 L 211 241.5 L 212.5 240 Q 213.8 242.3 215 239.5 L 214.5 238 L 213 238.5 L 214.5 237 Q 215.8 239.3 217 236.5 L 218 233.5 L 216 233.5 L 218.5 230 L 220 230.5 L 219 228.5 L 221 228.5 L 220 226.5 L 222 226.5 L 221 223.5 L 225.5 214 L 226.5 216 L 227 213.5 L 226 211.5 L 228.5 205 L 229.5 207 L 230 204.5 L 229 201.5 L 230 200.5 L 231 192.5 L 232 191.5 L 232 186.5 L 233 185.5 L 233 175.5 L 234 174.5 L 234 158.5 L 233 157.5 L 233 148.5 L 232 147.5 L 232 141.5 L 231 140.5 L 230 133.5 Q 231.8 132.8 231 129.5 L 230 129.5 L 229.5 132 L 228 126.5 L 229 123.5 L 228 123.5 L 227.5 125 L 227 123.5 L 228 120.5 L 227 120.5 L 226.5 122 L 224 115.5 L 225 112.5 L 224 112.5 L 223.5 114 L 222 111.5 L 224 111.5 L 223.5 109 L 222 109.5 L 231.5 100 L 232 100.5 L 231.5 102 L 233.5 101 L 274 129.5 L 273.5 131 L 275.5 130 L 287 138.5 L 286.5 140 L 288.5 139 L 329 167.5 L 328.5 169 L 330.5 168 L 384 205.5 L 383.5 207 L 385.5 206 L 439 243.5 L 438.5 245 L 440.5 244 L 497 283.5 L 495 283.5 L 496 287.5 L 495 288.5 L 494 298.5 L 495 299.5 L 495 304.5 L 497 309.5 L 496 311.5 L 498 311.5 L 497 313.5 L 498.5 313 L 500 314.5 L 498 314.5 L 499.5 317 L 500.5 316 L 509.5 325 L 515 327.5 L 513 328.5 L 514 331.5 L 513 331.5 L 512.5 329 L 512 332.5 L 513 335.5 L 509 345.5 L 509 348.5 L 505 358.5 L 505 361.5 L 501 371.5 L 501 374.5 L 497 384.5 L 497 387.5 L 493 397.5 L 493 400.5 L 489 410.5 L 489 413.5 L 485 423.5 L 485 426.5 L 481 436.5 L 481 439.5 L 477 449.5 L 477 452.5 L 473 462.5 L 473 465.5 L 469 475.5 L 469 478.5 L 460.5 504 L 459.5 501 L 459 504.5 L 460 507.5 L 456.5 517 L 455.5 514 L 455 517.5 L 456 520.5 L 452.5 530 L 451.5 527 L 451 530.5 L 452 533.5 L 448.5 543 L 447.5 540 L 447 543.5 L 448 546.5 L 444.5 556 L 443.5 553 L 443 556.5 L 444 559.5 L 440.5 569 L 439.5 566 L 439 569.5 L 440 572.5 L 438 578.5 L 436.5 580 Q 435.5 578 434.5 580 L 381 580.5 L 437 581.5 L 381.5 582 L 380.5 583 L 373.5 584 L 365.5 588 L 356.5 596 L 355.5 595 L 353 597.5 L 353.5 599 L 355 598.5 L 353.5 600 Q 352.3 597.7 351 600.5 L 351.5 602 L 353 601.5 L 349 608.5 L 348 614.5 L 347 615.5 L 346.5 640 L 345.5 616 L 344.5 640 L 0 639.5 L 0 74.5 L 1 73.5 L 0.5 72 Z M 227 117 L 226 120 L 227 120 L 227 117 Z M 230 126 L 229 129 L 230 129 L 230 126 Z M 232 133 L 231 137 L 232 137 L 232 133 Z M 233 137 L 232 141 L 233 141 L 233 137 Z M 234 142 L 233 148 L 234 148 L 234 142 Z M 69 147 L 68 150 L 69 150 L 69 147 Z M 235 148 L 234 157 L 235 157 L 235 148 Z M 68 150 L 67 153 L 68 153 L 68 150 Z M 67 153 L 66 160 L 67 160 L 67 153 Z M 236 158 L 235 175 L 236 175 L 236 158 Z M 66 161 L 65 164 L 66 164 L 66 161 Z M 67 164 L 66 171 L 67 171 L 67 164 Z M 68 171 L 67 175 L 68 175 L 68 171 Z M 235 176 L 234 185 L 235 185 L 235 176 Z M 234 186 L 233 191 L 234 191 L 234 186 Z M 233 192 L 232 196 L 233 196 L 233 192 Z M 232 197 L 231 201 L 232 201 L 232 197 Z M 121 201 L 121 202 L 123 202 L 121 201 Z M 231 201 L 230 204 L 231 204 L 231 201 Z M 96 202 L 96 203 L 99 203 L 96 202 Z M 118 202 L 118 203 L 120 203 L 118 202 Z M 100 203 L 100 204 L 106 204 L 100 203 Z M 110 203 L 110 204 L 117 204 L 110 203 Z M 229 208 L 228 211 L 229 211 L 229 208 Z M 226 216 L 225 219 L 226 219 L 226 216 Z M 199 259 L 195 264 L 196 264 L 199 261 L 199 259 Z M 495 285 L 494 288 L 495 288 L 495 285 Z M 494 288 L 493 293 L 494 293 L 494 288 Z M 493 294 L 492 299 L 493 299 L 493 294 Z M 494 300 L 493 305 L 494 305 L 494 300 Z M 495 305 L 494 308 L 495 308 L 495 305 Z M 502 318 L 501 320 L 506 323 L 506 323 L 502 318 Z M 512 333 L 511 336 L 512 336 L 512 333 Z M 511 336 L 510 339 L 511 339 L 511 336 Z M 510 339 L 509 342 L 510 342 L 510 339 Z M 509 342 L 508 345 L 509 345 L 509 342 Z M 508 346 L 507 349 L 508 349 L 508 346 Z M 507 349 L 506 352 L 507 352 L 507 349 Z M 506 352 L 505 355 L 506 355 L 506 352 Z M 505 355 L 504 358 L 505 358 L 505 355 Z M 504 359 L 503 362 L 504 362 L 504 359 Z M 503 362 L 502 365 L 503 365 L 503 362 Z M 502 365 L 501 368 L 502 368 L 502 365 Z M 501 368 L 500 371 L 501 371 L 501 368 Z M 500 372 L 499 375 L 500 375 L 500 372 Z M 499 375 L 498 378 L 499 378 L 499 375 Z M 498 378 L 497 381 L 498 381 L 498 378 Z M 497 381 L 496 384 L 497 384 L 497 381 Z M 496 385 L 495 388 L 496 388 L 496 385 Z M 495 388 L 494 391 L 495 391 L 495 388 Z M 494 391 L 493 394 L 494 394 L 494 391 Z M 493 394 L 492 397 L 493 397 L 493 394 Z M 492 398 L 491 401 L 492 401 L 492 398 Z M 491 401 L 490 404 L 491 404 L 491 401 Z M 490 404 L 489 407 L 490 407 L 490 404 Z M 489 407 L 488 410 L 489 410 L 489 407 Z M 488 411 L 487 414 L 488 414 L 488 411 Z M 487 414 L 486 417 L 487 417 L 487 414 Z M 486 417 L 485 420 L 486 420 L 486 417 Z M 485 420 L 484 423 L 485 423 L 485 420 Z M 484 424 L 483 427 L 484 427 L 484 424 Z M 483 427 L 482 430 L 483 430 L 483 427 Z M 482 430 L 481 433 L 482 433 L 482 430 Z M 481 433 L 480 436 L 481 436 L 481 433 Z M 480 437 L 479 440 L 480 440 L 480 437 Z M 479 440 L 478 443 L 479 443 L 479 440 Z M 478 443 L 477 446 L 478 446 L 478 443 Z M 477 446 L 476 449 L 477 449 L 477 446 Z M 476 450 L 475 453 L 476 453 L 476 450 Z M 475 453 L 474 456 L 475 456 L 475 453 Z M 474 456 L 473 459 L 474 459 L 474 456 Z M 473 459 L 472 462 L 473 462 L 473 459 Z M 472 462 L 471 466 L 472 466 L 472 462 Z M 471 466 L 470 469 L 471 469 L 471 466 Z M 470 469 L 469 472 L 470 472 L 470 469 Z M 469 472 L 468 475 L 469 475 L 469 472 Z M 468 475 L 467 479 L 468 479 L 468 475 Z M 467 479 L 466 482 L 467 482 L 467 479 Z M 466 482 L 465 485 L 466 485 L 466 482 Z M 465 485 L 464 488 L 465 488 L 465 485 Z M 464 488 L 463 492 L 464 492 L 464 488 Z M 463 492 L 462 495 L 463 495 L 463 492 Z M 462 495 L 461 498 L 462 498 L 462 495 Z M 461 498 L 460 501 L 461 501 L 461 498 Z M 459 505 L 458 508 L 459 508 L 459 505 Z M 458 508 L 457 511 L 458 511 L 458 508 Z M 457 511 L 456 514 L 457 514 L 457 511 Z M 455 518 L 454 521 L 455 521 L 455 518 Z M 454 521 L 453 524 L 454 524 L 454 521 Z M 453 524 L 452 527 L 453 527 L 453 524 Z M 451 531 L 450 534 L 451 534 L 451 531 Z M 450 534 L 449 537 L 450 537 L 450 534 Z M 449 537 L 448 540 L 449 540 L 449 537 Z M 447 544 L 446 547 L 447 547 L 447 544 Z M 446 547 L 445 550 L 446 550 L 446 547 Z M 445 550 L 444 553 L 445 553 L 445 550 Z M 443 557 L 442 560 L 443 560 L 443 557 Z M 442 560 L 441 563 L 442 563 L 442 560 Z M 441 563 L 440 566 L 441 566 L 441 563 Z M 439 570 L 438 573 L 439 573 L 439 570 Z M 438 573 L 437 576 L 438 576 L 438 573 Z M 437 576 L 436 579 L 437 579 L 437 576 Z M 377 581 L 377 582 L 380 582 L 377 581 Z M 374 582 L 374 583 L 376 583 L 374 582 Z M 348 608 L 347 611 L 348 611 L 348 608 Z M 347 611 L 346 615 L 347 615 L 347 611 Z " /><path fill="rgb(0,0,0)" stroke="rgb(0,0,0)" stroke-width="1" opacity="0" d="M 561.5 305 L 562 307.5 L 561 309.5 L 562 310.5 L 562 639.5 L 545.5 640 L 544.5 614 L 543.5 640 L 543 614.5 L 541 608.5 L 542 605.5 L 539.5 602 L 538 602.5 L 539 600.5 L 537.5 601 L 535 598.5 L 537 598.5 L 535.5 596 L 534.5 597 L 527.5 590 L 521.5 586 L 509.5 582 L 460 581.5 L 510 580.5 L 463 579.5 L 462.5 577 L 461.5 580 L 461 577.5 L 462.5 574 L 463.5 577 L 464 573.5 L 463 570.5 L 466.5 561 L 467.5 564 L 468 560.5 L 467 557.5 L 470.5 548 L 471.5 551 L 472 547.5 L 471 544.5 L 475.5 532 L 476.5 534 L 477 531.5 L 476 528.5 L 479.5 519 L 480.5 521 L 481 518.5 L 480 515.5 L 483.5 506 L 484.5 508 L 485 505.5 L 484 502.5 L 487.5 493 L 488.5 495 L 489 492.5 L 488 489.5 L 491.5 480 L 492.5 482 L 493 479.5 L 492 476.5 L 495.5 467 L 496.5 469 L 497 466.5 L 496 463.5 L 499.5 454 L 500.5 456 L 501 453.5 L 500 450.5 L 503.5 441 L 504.5 443 L 505 440.5 L 504 437.5 L 507.5 428 L 508.5 430 L 509 427.5 L 508 424.5 L 511.5 415 L 512.5 417 L 513 414.5 L 512 411.5 L 515.5 402 L 516.5 405 L 517 401.5 L 516 398.5 L 519.5 389 L 520.5 392 L 521 388.5 L 520 385.5 L 523.5 376 L 524.5 379 L 525 375.5 L 524 372.5 L 527.5 363 L 528.5 366 L 529 362.5 L 528 359.5 L 531.5 350 L 532.5 353 L 533 349.5 L 532 346.5 L 535.5 337 L 536.5 340 L 537 336.5 L 536 333.5 L 537.5 331 L 538.5 333 L 540 330.5 L 538 329.5 L 547.5 325 L 556.5 316 Q 557.8 318.3 559 315.5 L 558.5 314 L 557 314.5 L 561.5 305 Z M 554 320 L 551 323 L 552 323 L 554 322 L 554 320 Z M 538 333 L 537 336 L 538 336 L 538 333 Z M 536 340 L 535 343 L 536 343 L 536 340 Z M 535 343 L 534 346 L 535 346 L 535 343 Z M 534 346 L 533 349 L 534 349 L 534 346 Z M 532 353 L 531 356 L 532 356 L 532 353 Z M 531 356 L 530 359 L 531 359 L 531 356 Z M 530 359 L 529 362 L 530 362 L 530 359 Z M 528 366 L 527 369 L 528 369 L 528 366 Z M 527 369 L 526 372 L 527 372 L 527 369 Z M 526 372 L 525 375 L 526 375 L 526 372 Z M 524 379 L 523 382 L 524 382 L 524 379 Z M 523 382 L 522 385 L 523 385 L 523 382 Z M 522 385 L 521 388 L 522 388 L 522 385 Z M 520 392 L 519 395 L 520 395 L 520 392 Z M 519 395 L 518 398 L 519 398 L 519 395 Z M 518 398 L 517 401 L 518 401 L 518 398 Z M 516 405 L 515 408 L 516 408 L 516 405 Z M 515 408 L 514 411 L 515 411 L 515 408 Z M 514 411 L 513 414 L 514 414 L 514 411 Z M 512 418 L 511 421 L 512 421 L 512 418 Z M 511 421 L 510 424 L 511 424 L 511 421 Z M 510 424 L 509 427 L 510 427 L 510 424 Z M 508 431 L 507 434 L 508 434 L 508 431 Z M 507 434 L 506 437 L 507 437 L 507 434 Z M 506 437 L 505 440 L 506 440 L 506 437 Z M 504 444 L 503 447 L 504 447 L 504 444 Z M 503 447 L 502 450 L 503 450 L 503 447 Z M 502 450 L 501 453 L 502 453 L 502 450 Z M 500 457 L 499 460 L 500 460 L 500 457 Z M 499 460 L 498 463 L 499 463 L 499 460 Z M 498 463 L 497 466 L 498 466 L 498 463 Z M 496 470 L 495 473 L 496 473 L 496 470 Z M 495 473 L 494 476 L 495 476 L 495 473 Z M 494 476 L 493 479 L 494 479 L 494 476 Z M 492 483 L 491 486 L 492 486 L 492 483 Z M 491 486 L 490 489 L 491 489 L 491 486 Z M 490 489 L 489 492 L 490 492 L 490 489 Z M 488 496 L 487 499 L 488 499 L 488 496 Z M 487 499 L 486 502 L 487 502 L 487 499 Z M 486 502 L 485 505 L 486 505 L 486 502 Z M 484 509 L 483 512 L 484 512 L 484 509 Z M 483 512 L 482 515 L 483 515 L 483 512 Z M 482 515 L 481 518 L 482 518 L 482 515 Z M 480 522 L 479 525 L 480 525 L 480 522 Z M 479 525 L 478 528 L 479 528 L 479 525 Z M 478 528 L 477 531 L 478 531 L 478 528 Z M 476 535 L 475 538 L 476 538 L 476 535 Z M 475 538 L 474 541 L 475 541 L 475 538 Z M 474 541 L 473 544 L 474 544 L 474 541 Z M 473 544 L 472 547 L 473 547 L 473 544 Z M 471 551 L 470 554 L 471 554 L 471 551 Z M 470 554 L 469 557 L 470 557 L 470 554 Z M 469 557 L 468 560 L 469 560 L 469 557 Z M 467 564 L 466 567 L 467 567 L 467 564 Z M 466 567 L 465 570 L 466 570 L 466 567 Z M 465 570 L 464 573 L 465 573 L 465 570 Z M 511 581 L 511 582 L 514 582 L 511 581 Z M 515 582 L 515 583 L 517 583 L 515 582 Z M 544 610 L 543 614 L 544 614 L 544 610 Z " /><path fill="rgb(241,241,241)" stroke="rgb(241,241,241)" stroke-width="1" opacity="0.027450980392156862" d="M 198.5 0 Q 200 1 197.5 2 L 195 2.5 L 195.5 4 Q 192.5 2.5 195.5 1 L 198.5 0 Z " /><path fill="rgb(241,241,241)" stroke="rgb(241,241,241)" stroke-width="1" opacity="0.027450980392156862" d="M 232.5 1 L 239 4.5 Q 238 7 237 5.5 L 237.5 4 L 235.5 5 L 235.5 3 L 232.5 2 L 232.5 1 Z " /><path fill="rgb(241,241,241)" stroke="rgb(241,241,241)" stroke-width="1" opacity="0.027450980392156862" d="M 189.5 4 L 192 5.5 L 190.5 5 Q 188.1 4.9 189.5 4 Z " /><path fill="rgb(241,241,241)" stroke="rgb(241,241,241)" stroke-width="1" opacity="0.027450980392156862" d="M 240.5 5 L 246 9.5 L 245.5 10 L 242.5 7 Q 238.7 6.3 240.5 5 Z " /><path fill="rgb(241,241,241)" stroke="rgb(241,241,241)" stroke-width="1" opacity="0.027450980392156862" d="M 184.5 8 L 185 8.5 L 182.5 11 L 182 9.5 L 184.5 8 Z " /><path fill="rgb(241,241,241)" stroke="rgb(241,241,241)" stroke-width="1" opacity="0.027450980392156862" d="M 247.5 10 Q 250 11 248.5 12 L 247 11.5 L 247.5 10 Z " /><path fill="rgb(241,241,241)" stroke="rgb(241,241,241)" stroke-width="1" opacity="0.027450980392156862" d="M 180.5 11 L 180 12.5 L 181 13.5 L 178.5 16 L 178 15.5 L 180 13.5 L 179 12.5 L 180.5 11 Z " /><path fill="rgb(241,241,241)" stroke="rgb(241,241,241)" stroke-width="1" opacity="0.027450980392156862" d="M 249.5 13 L 253 15.5 L 254 17.5 Q 253 19 252 16.5 L 251.5 15 L 250 15.5 L 249.5 13 Z " /><path fill="rgb(241,241,241)" stroke="rgb(241,241,241)" stroke-width="1" opacity="0.027450980392156862" d="M 174.5 19 L 175 19.5 L 168.5 26 L 168 25.5 L 174.5 19 Z " /><path fill="rgb(241,241,241)" stroke="rgb(241,241,241)" stroke-width="1" opacity="0.027450980392156862" d="M 253.5 19 L 254.5 20 L 256 19.5 L 255.5 21 Q 251.7 20.3 253.5 19 Z " /><path fill="rgb(241,241,241)" stroke="rgb(241,241,241)" stroke-width="1" opacity="0.027450980392156862" d="M 259.5 26 L 261 29.5 L 259.5 30 L 259.5 28 L 258 27.5 L 259.5 26 Z " /><path fill="rgb(241,241,241)" stroke="rgb(241,241,241)" stroke-width="1" opacity="0.027450980392156862" d="M 166.5 27 L 167 27.5 L 163.5 31 L 163 30.5 L 166.5 27 Z " /><path fill="rgb(241,241,241)" stroke="rgb(241,241,241)" stroke-width="1" opacity="0.027450980392156862" d="M 83.5 28 L 86 28.5 L 83.5 29 L 83.5 28 Z " /><path fill="rgb(241,241,241)" stroke="rgb(241,241,241)" stroke-width="1" opacity="0.027450980392156862" d="M 87.5 28 L 107 28.5 L 87.5 29 L 87.5 28 Z " /><path fill="rgb(241,241,241)" stroke="rgb(241,241,241)" stroke-width="1" opacity="0.027450980392156862" d="M 108.5 28 L 111 28.5 L 108.5 29 L 108.5 28 Z " /><path fill="rgb(241,241,241)" stroke="rgb(241,241,241)" stroke-width="1" opacity="0.027450980392156862" d="M 75.5 29 L 75.5 31 L 78 31.5 L 75.5 32 L 74.5 31 L 70 30.5 L 74.5 30 L 75.5 29 Z " /><path fill="rgb(241,241,241)" stroke="rgb(241,241,241)" stroke-width="1" opacity="0.027450980392156862" d="M 77.5 29 L 82 29.5 L 77.5 30 L 77.5 29 Z " /><path fill="rgb(241,241,241)" stroke="rgb(241,241,241)" stroke-width="1" opacity="0.027450980392156862" d="M 112.5 29 L 118.5 29 L 119.5 30 L 124 30.5 L 116.5 32 L 116.5 31 L 119 30.5 L 112.5 30 L 112.5 29 Z " /><path fill="rgb(241,241,241)" stroke="rgb(241,241,241)" stroke-width="1" opacity="0.027450980392156862" d="M 83.5 30 L 87 30.5 L 83.5 31 L 83.5 30 Z " /><path fill="rgb(241,241,241)" stroke="rgb(241,241,241)" stroke-width="1" opacity="0.027450980392156862" d="M 107.5 30 L 111 30.5 L 107.5 31 L 107.5 30 Z " /><path fill="rgb(241,241,241)" stroke="rgb(241,241,241)" stroke-width="1" opacity="0.027450980392156862" d="M 65.5 31 L 69 31.5 L 65.5 32 L 65.5 31 Z " /><path fill="rgb(241,241,241)" stroke="rgb(241,241,241)" stroke-width="1" opacity="0.027450980392156862" d="M 125.5 31 L 132.5 32 L 139 34.5 L 135.5 36 L 135.5 34 L 131.5 35 L 131.5 34 L 133 33.5 L 129.5 33 L 127.5 34 L 127.5 33 L 129 32.5 L 125.5 32 L 125.5 31 Z " /><path fill="rgb(241,241,241)" stroke="rgb(241,241,241)" stroke-width="1" opacity="0.027450980392156862" d="M 261.5 31 Q 263.5 31.5 263 34.5 L 261.5 37 L 261 35.5 L 262 32.5 L 260 32.5 L 261.5 31 Z " /><path fill="rgb(241,241,241)" stroke="rgb(241,241,241)" stroke-width="1" opacity="0.027450980392156862" d="M 61.5 32 L 64 32.5 L 61 33.5 L 63 34.5 L 61.5 35 L 58.5 34 L 58.5 36 Q 57.8 34.3 54.5 35 L 54.5 36 L 56 36.5 L 54.5 37 L 52 35.5 L 61.5 32 Z " /><path fill="rgb(241,241,241)" stroke="rgb(241,241,241)" stroke-width="1" opacity="0.027450980392156862" d="M 49.5 36 L 51 36.5 L 49 37.5 L 49.5 39 L 46.5 38 L 46.5 40 L 44.5 39 L 44.5 41 L 42 39.5 L 49.5 36 Z " /><path fill="rgb(241,241,241)" stroke="rgb(241,241,241)" stroke-width="1" opacity="0.027450980392156862" d="M 143.5 36 L 152 39.5 L 149.5 41 L 149.5 39 L 147.5 40 L 147.5 38 L 144.5 39 L 144.5 37 Q 142.1 36.9 143.5 36 Z " /><path fill="rgb(241,241,241)" stroke="rgb(241,241,241)" stroke-width="1" opacity="0.027450980392156862" d="M 263.5 36 L 265 41.5 L 264 41.5 L 263.5 40 L 262.5 42 L 262 40.5 L 263.5 36 Z " /><path fill="rgb(241,241,241)" stroke="rgb(241,241,241)" stroke-width="1" opacity="0.027450980392156862" d="M 39.5 40 L 41 40.5 L 39 41.5 L 39.5 43 L 37.5 42 L 37.5 44 L 35.5 43 L 35.5 45 L 33.5 44 L 33.5 46 L 31.5 45 L 31.5 47 Q 30.5 45 29.5 47 L 28 47.5 L 28.5 49 L 26.5 48 L 26.5 50 Q 25.5 48 24.5 50 L 23 50.5 L 23.5 52 L 22 51.5 L 20.5 54 Q 19.5 52 18.5 54 L 17 54.5 L 17.5 56 Q 16 53.5 14.5 57 L 13 57.5 L 13.5 59 Q 12 56.5 10.5 60 L 9 60.5 L 10 61.5 L 6.5 65 L 5.5 64 L 0.5 69 L 0 68.5 L 0.5 67 L 6.5 62 Q 7.8 64.3 9 61.5 Q 6.8 60.3 9.5 59 L 26.5 47 L 39.5 40 Z " /><path fill="rgb(241,241,241)" stroke="rgb(241,241,241)" stroke-width="1" opacity="0.027450980392156862" d="M 153.5 40 Q 155 41 152.5 42 L 151 41.5 L 153.5 40 Z " /><path fill="rgb(241,241,241)" stroke="rgb(241,241,241)" stroke-width="1" opacity="0.027450980392156862" d="M 264.5 43 L 265 54.5 L 264 54.5 L 264.5 43 Z " /><path fill="rgb(241,241,241)" stroke="rgb(241,241,241)" stroke-width="1" opacity="0.027450980392156862" d="M 263.5 57 L 264 60.5 L 263 60.5 L 263.5 57 Z " /><path fill="rgb(241,241,241)" stroke="rgb(241,241,241)" stroke-width="1" opacity="0.027450980392156862" d="M 260.5 63 L 262 66.5 L 259.5 71 L 259 69.5 L 260 67.5 L 259.5 66 L 261 66.5 L 260.5 63 Z " /><path fill="rgb(241,241,241)" stroke="rgb(241,241,241)" stroke-width="1" opacity="0.027450980392156862" d="M 256.5 72 L 259 72.5 L 257.5 75 L 256 74.5 L 257 73.5 L 256.5 72 Z " /><path fill="rgb(241,241,241)" stroke="rgb(241,241,241)" stroke-width="1" opacity="0.027450980392156862" d="M 0.5 73 L 72 145.5 L 70 145.5 L 71 147.5 L 69 147.5 L 70 150.5 L 68 150.5 L 69 154.5 L 68 154.5 L 67.5 153 L 66.5 160 L 66 153.5 L 70 143.5 L 0 73.5 L 0.5 73 Z " /><path fill="rgb(241,241,241)" stroke="rgb(241,241,241)" stroke-width="1" opacity="0.027450980392156862" d="M 253.5 77 L 255 77.5 L 252.5 79 Q 251 78 253.5 77 Z " /><path fill="rgb(241,241,241)" stroke="rgb(241,241,241)" stroke-width="1" opacity="0.027450980392156862" d="M 252.5 80 L 253 80.5 L 249.5 84 L 249 83.5 L 252.5 80 Z " /><path fill="rgb(241,241,241)" stroke="rgb(241,241,241)" stroke-width="1" opacity="0.027450980392156862" d="M 251.5 85 L 259 90.5 L 256 90.5 L 256.5 89 L 251.5 86 L 251.5 85 Z " /><path fill="rgb(241,241,241)" stroke="rgb(241,241,241)" stroke-width="1" opacity="0.027450980392156862" d="M 267.5 96 L 272 99.5 L 271.5 100 L 269.5 98 Q 265.7 97.3 267.5 96 Z " /><path fill="rgb(241,241,241)" stroke="rgb(241,241,241)" stroke-width="1" opacity="0.027450980392156862" d="M 231.5 101 L 234 102.5 L 232.5 102 L 224 109.5 L 225 114.5 L 227 117.5 L 231 129.5 L 233 140.5 L 231.5 144 L 231 141.5 Q 232.8 140.8 232 137.5 L 231 137.5 L 230.5 139 L 230 137.5 Q 231.8 136.8 231 133.5 L 229 133.5 L 230 129.5 L 228 129.5 L 229 126.5 L 227 126.5 L 228 123.5 L 226 123.5 L 227 120.5 L 225 120.5 L 226 117.5 L 224 117.5 L 225 115.5 L 223 115.5 L 224 112.5 L 222 112.5 L 223 109.5 L 231.5 101 Z " /><path fill="rgb(241,241,241)" stroke="rgb(241,241,241)" stroke-width="1" opacity="0.027450980392156862" d="M 275.5 101 L 279 103.5 L 277.5 104 L 276.5 103 L 275 103.5 L 276 102.5 L 275.5 101 Z " /><path fill="rgb(241,241,241)" stroke="rgb(241,241,241)" stroke-width="1" opacity="0.027450980392156862" d="M 238.5 106 L 240.5 107 L 242 106.5 Q 240.8 109.3 239.5 107 Q 237.1 106.9 238.5 106 Z " /><path fill="rgb(241,241,241)" stroke="rgb(241,241,241)" stroke-width="1" opacity="0.027450980392156862" d="M 282.5 106 L 292 112.5 L 290.5 113 L 289.5 112 L 288 112.5 L 288.5 111 L 286.5 110 L 285 110.5 L 285.5 109 L 282 106.5 L 282.5 106 Z " /><path fill="rgb(241,241,241)" stroke="rgb(241,241,241)" stroke-width="1" opacity="0.027450980392156862" d="M 242.5 108 L 243.5 109 L 245 108.5 L 244.5 110 L 250 113.5 L 248.5 114 L 242 108.5 L 242.5 108 Z " /><path fill="rgb(241,241,241)" stroke="rgb(241,241,241)" stroke-width="1" opacity="0.027450980392156862" d="M 293.5 114 L 301 119.5 L 298 119.5 L 298.5 118 L 293.5 115 L 293.5 114 Z " /><path fill="rgb(241,241,241)" stroke="rgb(241,241,241)" stroke-width="1" opacity="0.027450980392156862" d="M 251.5 115 L 253.5 116 L 255 115.5 L 254 116.5 L 254.5 118 L 251 115.5 L 251.5 115 Z " /><path fill="rgb(241,241,241)" stroke="rgb(241,241,241)" stroke-width="1" opacity="0.027450980392156862" d="M 306.5 123 L 314 128.5 L 311 128.5 L 311.5 127 L 306.5 124 L 306.5 123 Z " /><path fill="rgb(241,241,241)" stroke="rgb(241,241,241)" stroke-width="1" opacity="0.027450980392156862" d="M 264.5 124 L 266.5 125 L 268 124.5 L 267 125.5 L 267.5 127 L 264 124.5 L 264.5 124 Z " /><path fill="rgb(241,241,241)" stroke="rgb(241,241,241)" stroke-width="1" opacity="0.027450980392156862" d="M 271.5 128 L 276 131.5 L 274.5 131 L 271 128.5 L 271.5 128 Z " /><path fill="rgb(241,241,241)" stroke="rgb(241,241,241)" stroke-width="1" opacity="0.027450980392156862" d="M 280.5 135 L 282.5 136 L 284 135.5 Q 282.8 138.3 281.5 136 Q 279.1 135.9 280.5 135 Z " /><path fill="rgb(241,241,241)" stroke="rgb(241,241,241)" stroke-width="1" opacity="0.027450980392156862" d="M 324.5 135 L 327 137.5 L 326.5 138 L 324 135.5 L 324.5 135 Z " /><path fill="rgb(241,241,241)" stroke="rgb(241,241,241)" stroke-width="1" opacity="0.027450980392156862" d="M 284.5 137 L 285.5 138 L 287 137.5 L 286.5 139 L 289 140.5 L 287.5 140 L 284 137.5 L 284.5 137 Z " /><path fill="rgb(241,241,241)" stroke="rgb(241,241,241)" stroke-width="1" opacity="0.027450980392156862" d="M 330.5 139 L 334 141.5 L 332.5 142 L 331.5 141 L 330 141.5 L 331 140.5 L 330.5 139 Z " /><path fill="rgb(241,241,241)" stroke="rgb(241,241,241)" stroke-width="1" opacity="0.027450980392156862" d="M 293.5 144 L 295.5 145 L 297 144.5 Q 295.7 147.3 294.5 145 Q 292.1 144.9 293.5 144 Z " /><path fill="rgb(241,241,241)" stroke="rgb(241,241,241)" stroke-width="1" opacity="0.027450980392156862" d="M 337.5 144 L 347 150.5 L 345.5 151 L 344.5 150 L 343 150.5 L 343.5 149 L 341.5 148 L 340 148.5 L 340.5 147 L 337 144.5 L 337.5 144 Z " /><path fill="rgb(241,241,241)" stroke="rgb(241,241,241)" stroke-width="1" opacity="0.027450980392156862" d="M 297.5 146 L 298.5 147 L 300 146.5 L 299.5 148 L 305 151.5 L 303.5 152 L 297 146.5 L 297.5 146 Z " /><path fill="rgb(241,241,241)" stroke="rgb(241,241,241)" stroke-width="1" opacity="0.027450980392156862" d="M 233.5 147 L 235 149.5 L 234 149.5 L 233.5 148 L 232.5 151 L 232 148.5 L 233.5 147 Z " /><path fill="rgb(241,241,241)" stroke="rgb(241,241,241)" stroke-width="1" opacity="0.027450980392156862" d="M 234.5 151 L 235 156.5 L 234 156.5 L 234.5 151 Z " /><path fill="rgb(241,241,241)" stroke="rgb(241,241,241)" stroke-width="1" opacity="0.027450980392156862" d="M 348.5 152 L 356 157.5 L 353 157.5 L 353.5 156 L 348.5 153 L 348.5 152 Z " /><path fill="rgb(241,241,241)" stroke="rgb(241,241,241)" stroke-width="1" opacity="0.027450980392156862" d="M 306.5 153 L 308.5 154 L 310 153.5 L 309 154.5 L 309.5 156 L 306 153.5 L 306.5 153 Z " /><path fill="rgb(241,241,241)" stroke="rgb(241,241,241)" stroke-width="1" opacity="0.027450980392156862" d="M 233.5 158 L 234 174.5 L 233 174.5 L 233.5 158 Z " /><path fill="rgb(241,241,241)" stroke="rgb(241,241,241)" stroke-width="1" opacity="0.027450980392156862" d="M 235.5 158 L 236 171.5 L 235 171.5 L 235.5 158 Z " /><path fill="rgb(241,241,241)" stroke="rgb(241,241,241)" stroke-width="1" opacity="0.027450980392156862" d="M 65.5 161 L 67 164.5 L 67.5 171 L 68.5 169 L 69 170.5 Q 67.3 171.3 68 174.5 L 69 174.5 L 69.5 173 L 70 174.5 L 69 176.5 L 71 176.5 L 70 178.5 L 72 179.5 L 71.5 181 L 73 181.5 Q 70.8 182.8 73.5 184 L 75 184.5 Q 72.8 185.8 75.5 187 L 83 193.5 L 82.5 195 L 84.5 196 L 86 195.5 L 85.5 197 L 87.5 198 L 89 197.5 L 88.5 199 L 90.5 198 L 90.5 200 L 92 200.5 L 90.5 201 Q 80.5 196 74 187.5 L 67 174.5 Q 67.8 171.3 66 170.5 L 66 164.5 L 65 163.5 L 65.5 161 Z " /><path fill="rgb(241,241,241)" stroke="rgb(241,241,241)" stroke-width="1" opacity="0.027450980392156862" d="M 319.5 162 L 321.5 163 L 323 162.5 L 322.5 164 L 324.5 165 L 326 164.5 Q 324.8 167.3 323.5 165 L 319.5 163 L 319.5 162 Z " /><path fill="rgb(241,241,241)" stroke="rgb(241,241,241)" stroke-width="1" opacity="0.027450980392156862" d="M 364.5 163 L 368 165.5 Q 367 168 366 166.5 L 366.5 165 Q 362.7 164.3 364.5 163 Z " /><path fill="rgb(241,241,241)" stroke="rgb(241,241,241)" stroke-width="1" opacity="0.027450980392156862" d="M 326.5 166 L 331 169.5 L 329.5 169 L 326 166.5 L 326.5 166 Z " /><path fill="rgb(241,241,241)" stroke="rgb(241,241,241)" stroke-width="1" opacity="0.027450980392156862" d="M 370.5 167 L 376 170.5 L 374.5 171 L 373.5 170 L 372 170.5 L 372.5 169 L 370.5 168 L 369 168.5 L 370.5 167 Z " /><path fill="rgb(241,241,241)" stroke="rgb(241,241,241)" stroke-width="1" opacity="0.027450980392156862" d="M 332.5 171 L 334.5 172 L 336 171.5 L 335.5 173 L 337.5 174 L 339 173.5 Q 337.8 176.3 336.5 174 L 332.5 172 L 332.5 171 Z " /><path fill="rgb(241,241,241)" stroke="rgb(241,241,241)" stroke-width="1" opacity="0.027450980392156862" d="M 339.5 175 L 340.5 176 L 342 175.5 L 341.5 177 L 344 178.5 L 342.5 178 L 339 175.5 L 339.5 175 Z " /><path fill="rgb(241,241,241)" stroke="rgb(241,241,241)" stroke-width="1" opacity="0.027450980392156862" d="M 234.5 176 L 235 184.5 L 234 184.5 L 234.5 176 Z " /><path fill="rgb(241,241,241)" stroke="rgb(241,241,241)" stroke-width="1" opacity="0.027450980392156862" d="M 385.5 177 L 389 179.5 L 387.5 180 L 386.5 179 L 385 179.5 L 386 178.5 L 385.5 177 Z " /><path fill="rgb(241,241,241)" stroke="rgb(241,241,241)" stroke-width="1" opacity="0.027450980392156862" d="M 232.5 182 L 234 186.5 L 234 190.5 L 233 190.5 L 232.5 182 Z " /><path fill="rgb(241,241,241)" stroke="rgb(241,241,241)" stroke-width="1" opacity="0.027450980392156862" d="M 348.5 182 L 350.5 183 L 352 182.5 L 351.5 184 L 353.5 185 L 355 184.5 Q 353.8 187.3 352.5 185 L 348.5 183 L 348.5 182 Z " /><path fill="rgb(241,241,241)" stroke="rgb(241,241,241)" stroke-width="1" opacity="0.027450980392156862" d="M 392.5 182 L 402 188.5 L 400.5 189 L 399.5 188 L 398 188.5 L 398.5 187 L 396.5 186 L 395 186.5 L 395.5 185 L 392 182.5 L 392.5 182 Z " /><path fill="rgb(241,241,241)" stroke="rgb(241,241,241)" stroke-width="1" opacity="0.027450980392156862" d="M 355.5 186 L 360 189.5 L 358.5 190 L 355 186.5 L 355.5 186 Z " /><path fill="rgb(241,241,241)" stroke="rgb(241,241,241)" stroke-width="1" opacity="0.027450980392156862" d="M 231.5 189 L 233 192.5 L 233 195.5 L 232 195.5 L 231.5 189 Z " /><path fill="rgb(241,241,241)" stroke="rgb(241,241,241)" stroke-width="1" opacity="0.027450980392156862" d="M 361.5 191 L 363.5 192 L 365 191.5 L 364 192.5 L 364.5 194 L 361 191.5 L 361.5 191 Z " /><path fill="rgb(241,241,241)" stroke="rgb(241,241,241)" stroke-width="1" opacity="0.027450980392156862" d="M 406.5 192 L 411 195.5 L 408 195.5 L 408.5 194 Q 404.7 193.3 406.5 192 Z " /><path fill="rgb(241,241,241)" stroke="rgb(241,241,241)" stroke-width="1" opacity="0.027450980392156862" d="M 368.5 195 L 371 197.5 L 370.5 198 L 368 195.5 L 368.5 195 Z " /><path fill="rgb(241,241,241)" stroke="rgb(241,241,241)" stroke-width="1" opacity="0.027450980392156862" d="M 231.5 197 L 232 200.5 L 231 200.5 L 231.5 197 Z " /><path fill="rgb(241,241,241)" stroke="rgb(241,241,241)" stroke-width="1" opacity="0.027450980392156862" d="M 124.5 198 L 191.5 264 L 193.5 263 L 194.5 264 L 197 261.5 L 201 256.5 L 200 255.5 L 202.5 253 L 206 250.5 L 205.5 249 L 207 249.5 L 209 246.5 L 208.5 245 L 211 243.5 L 210.5 242 L 213 240.5 L 212.5 239 L 215 237.5 L 214.5 236 L 216 235.5 L 215.5 234 L 217 233.5 L 216.5 232 L 218 232.5 L 219 230.5 L 218.5 229 L 220 228.5 L 221 226.5 L 220.5 225 L 222 224.5 L 221 222.5 L 224 222.5 L 217 236.5 L 209 248.5 L 193.5 266 L 125.5 200 L 116.5 204 L 109.5 204 L 109.5 203 L 116.5 203 L 120 201.5 L 119.5 200 L 122.5 201 L 122.5 199 L 124.5 200 L 124.5 198 Z " /><path fill="rgb(241,241,241)" stroke="rgb(241,241,241)" stroke-width="1" opacity="0.027450980392156862" d="M 95.5 200 L 97 200.5 L 95 201.5 L 98.5 202 L 100.5 201 L 100.5 202 L 99 202.5 L 106 203.5 L 99.5 204 L 93 201.5 L 95.5 200 Z " /><path fill="rgb(241,241,241)" stroke="rgb(241,241,241)" stroke-width="1" opacity="0.027450980392156862" d="M 374.5 200 L 376.5 201 L 378 200.5 L 377 201.5 L 377.5 203 L 374 200.5 L 374.5 200 Z " /><path fill="rgb(241,241,241)" stroke="rgb(241,241,241)" stroke-width="1" opacity="0.027450980392156862" d="M 419.5 201 L 423 203.5 L 420 203.5 L 419.5 201 Z " /><path fill="rgb(241,241,241)" stroke="rgb(241,241,241)" stroke-width="1" opacity="0.027450980392156862" d="M 230.5 202 L 231 203.5 L 229.5 207 L 228 203.5 L 230 203.5 L 230.5 202 Z " /><path fill="rgb(241,241,241)" stroke="rgb(241,241,241)" stroke-width="1" opacity="0.027450980392156862" d="M 381.5 204 L 386 207.5 L 384.5 207 L 381 204.5 L 381.5 204 Z " /><path fill="rgb(241,241,241)" stroke="rgb(241,241,241)" stroke-width="1" opacity="0.027450980392156862" d="M 227.5 206 L 229 210.5 L 224.5 221 L 223 218.5 L 225 218.5 L 224 215.5 L 226 215.5 L 225 212.5 L 227 212.5 L 226 210.5 L 228 210.5 L 227.5 206 Z " /><path fill="rgb(241,241,241)" stroke="rgb(241,241,241)" stroke-width="1" opacity="0.027450980392156862" d="M 387.5 209 L 389.5 210 L 391 209.5 L 390.5 211 L 392.5 212 L 394 211.5 Q 392.8 214.3 391.5 212 L 387.5 210 L 387.5 209 Z " /><path fill="rgb(241,241,241)" stroke="rgb(241,241,241)" stroke-width="1" opacity="0.027450980392156862" d="M 434.5 211 L 437 213.5 L 436.5 214 L 434 211.5 L 434.5 211 Z " /><path fill="rgb(241,241,241)" stroke="rgb(241,241,241)" stroke-width="1" opacity="0.027450980392156862" d="M 394.5 213 L 395.5 214 L 397 213.5 L 396.5 215 L 402.5 219 L 404 218.5 L 403.5 220 L 405.5 221 L 407 220.5 L 406 221.5 L 406.5 223 L 396.5 216 L 394 213.5 L 394.5 213 Z " /><path fill="rgb(241,241,241)" stroke="rgb(241,241,241)" stroke-width="1" opacity="0.027450980392156862" d="M 438.5 214 L 444 217.5 L 442.5 218 L 441.5 217 L 440 217.5 L 440.5 216 L 438.5 215 L 437 215.5 L 438.5 214 Z " /><path fill="rgb(241,241,241)" stroke="rgb(241,241,241)" stroke-width="1" opacity="0.027450980392156862" d="M 448.5 221 L 457 226.5 L 455.5 227 L 454.5 226 L 453 226.5 L 453.5 225 L 451.5 224 L 450 224.5 L 450.5 223 Q 446.7 222.3 448.5 221 Z " /><path fill="rgb(241,241,241)" stroke="rgb(241,241,241)" stroke-width="1" opacity="0.027450980392156862" d="M 409.5 222 L 409.5 224 L 415.5 228 L 417 227.5 L 416.5 229 L 418.5 230 L 420 229.5 L 419 230.5 L 419.5 232 L 408 223.5 L 409.5 222 Z " /><path fill="rgb(241,241,241)" stroke="rgb(241,241,241)" stroke-width="1" opacity="0.027450980392156862" d="M 461.5 230 L 465 232.5 Q 464 235 463 233.5 L 463.5 232 Q 459.7 231.3 461.5 230 Z " /><path fill="rgb(241,241,241)" stroke="rgb(241,241,241)" stroke-width="1" opacity="0.027450980392156862" d="M 423.5 233 L 426 235.5 L 425.5 236 L 423 233.5 L 423.5 233 Z " /><path fill="rgb(241,241,241)" stroke="rgb(241,241,241)" stroke-width="1" opacity="0.027450980392156862" d="M 429.5 238 L 431.5 239 L 433 238.5 L 432 239.5 L 432.5 241 L 429 238.5 L 429.5 238 Z " /><path fill="rgb(241,241,241)" stroke="rgb(241,241,241)" stroke-width="1" opacity="0.027450980392156862" d="M 474.5 239 L 478 241.5 L 476.5 241 Q 472.7 240.3 474.5 239 Z " /><path fill="rgb(241,241,241)" stroke="rgb(241,241,241)" stroke-width="1" opacity="0.027450980392156862" d="M 436.5 242 L 437.5 243 L 439 242.5 L 438.5 244 L 441 245.5 L 439.5 245 L 436 242.5 L 436.5 242 Z " /><path fill="rgb(241,241,241)" stroke="rgb(241,241,241)" stroke-width="1" opacity="0.027450980392156862" d="M 482.5 244 L 486 246.5 L 484.5 247 L 483.5 246 L 482 246.5 L 483 245.5 L 482.5 244 Z " /><path fill="rgb(241,241,241)" stroke="rgb(241,241,241)" stroke-width="1" opacity="0.027450980392156862" d="M 442.5 247 L 444.5 248 L 446 247.5 L 445.5 249 L 447.5 250 L 449 249.5 Q 447.8 252.2 446.5 250 L 442.5 248 L 442.5 247 Z " /><path fill="rgb(241,241,241)" stroke="rgb(241,241,241)" stroke-width="1" opacity="0.027450980392156862" d="M 489.5 249 L 499 255.5 L 497.5 256 L 496.5 255 L 495 255.5 L 495.5 254 L 493.5 253 L 492 253.5 L 492.5 252 L 489 249.5 L 489.5 249 Z " /><path fill="rgb(241,241,241)" stroke="rgb(241,241,241)" stroke-width="1" opacity="0.027450980392156862" d="M 449.5 251 L 450.5 252 L 452 251.5 L 451.5 253 L 457.5 257 L 459 256.5 L 458.5 258 L 460.5 259 L 462 258.5 L 461 259.5 L 461.5 261 L 451.5 254 L 449 251.5 L 449.5 251 Z " /><path fill="rgb(241,241,241)" stroke="rgb(241,241,241)" stroke-width="1" opacity="0.027450980392156862" d="M 503.5 259 L 508 262.5 L 505 262.5 L 505.5 261 Q 501.7 260.3 503.5 259 Z " /><path fill="rgb(241,241,241)" stroke="rgb(241,241,241)" stroke-width="1" opacity="0.027450980392156862" d="M 525.5 260 L 529 260.5 L 525.5 261 L 525.5 260 Z " /><path fill="rgb(241,241,241)" stroke="rgb(241,241,241)" stroke-width="1" opacity="0.027450980392156862" d="M 519.5 261 L 524 261.5 L 519 262.5 L 521 263.5 L 519.5 264 Q 516.5 262.5 519.5 261 Z " /><path fill="rgb(241,241,241)" stroke="rgb(241,241,241)" stroke-width="1" opacity="0.027450980392156862" d="M 533.5 261 L 537 261.5 L 533.5 262 L 533.5 261 Z " /><path fill="rgb(241,241,241)" stroke="rgb(241,241,241)" stroke-width="1" opacity="0.027450980392156862" d="M 516.5 262 L 516.5 264 L 518 264.5 L 516.5 265 L 514.5 264 L 514.5 266 L 511 264.5 L 516.5 262 Z " /><path fill="rgb(241,241,241)" stroke="rgb(241,241,241)" stroke-width="1" opacity="0.027450980392156862" d="M 525.5 262 L 532 262.5 L 525.5 263 L 525.5 262 Z " /><path fill="rgb(241,241,241)" stroke="rgb(241,241,241)" stroke-width="1" opacity="0.027450980392156862" d="M 538.5 262 L 540.5 262 L 546 265.5 Q 545 268 544 266.5 L 544.5 265 L 542.5 266 L 542.5 264 L 538.5 263 L 538.5 262 Z " /><path fill="rgb(241,241,241)" stroke="rgb(241,241,241)" stroke-width="1" opacity="0.027450980392156862" d="M 466.5 263 L 470 265.5 L 468.5 266 L 466 263.5 L 466.5 263 Z " /><path fill="rgb(241,241,241)" stroke="rgb(241,241,241)" stroke-width="1" opacity="0.027450980392156862" d="M 547.5 266 L 557 274.5 L 559 277.5 L 556.5 278 L 557 276.5 L 555.5 275 L 550 270.5 L 548.5 268 L 547 268.5 L 548 267.5 L 547.5 266 Z " /><path fill="rgb(241,241,241)" stroke="rgb(241,241,241)" stroke-width="1" opacity="0.027450980392156862" d="M 471.5 267 L 473.5 268 L 475 267.5 L 474 268.5 L 474.5 270 L 471 267.5 L 471.5 267 Z " /><path fill="rgb(241,241,241)" stroke="rgb(241,241,241)" stroke-width="1" opacity="0.027450980392156862" d="M 478.5 271 L 481 273.5 L 480.5 274 L 478 271.5 L 478.5 271 Z " /><path fill="rgb(241,241,241)" stroke="rgb(241,241,241)" stroke-width="1" opacity="0.027450980392156862" d="M 484.5 276 L 486.5 277 L 488 276.5 L 487 277.5 L 487.5 279 L 484 276.5 L 484.5 276 Z " /><path fill="rgb(241,241,241)" stroke="rgb(241,241,241)" stroke-width="1" opacity="0.027450980392156862" d="M 559.5 279 L 561 280.5 L 562 284.5 Q 561 287 560 285.5 L 561 283.5 L 559 282.5 L 559.5 281 L 558 280.5 L 559.5 279 Z " /><path fill="rgb(241,241,241)" stroke="rgb(241,241,241)" stroke-width="1" opacity="0.027450980392156862" d="M 491.5 280 L 492.5 281 L 494 280.5 L 493.5 282 L 497 284.5 L 496.5 286 L 494.5 283 L 491 280.5 L 491.5 280 Z " /><path fill="rgb(241,241,241)" stroke="rgb(241,241,241)" stroke-width="1" opacity="0.027450980392156862" d="M 494.5 285 L 496 289.5 L 495 289.5 L 494.5 288 L 493.5 293 L 493 288.5 L 494.5 285 Z " /><path fill="rgb(241,241,241)" stroke="rgb(241,241,241)" stroke-width="1" opacity="0.027450980392156862" d="M 492.5 294 L 493 298.5 L 492 298.5 L 492.5 294 Z " /><path fill="rgb(241,241,241)" stroke="rgb(241,241,241)" stroke-width="1" opacity="0.027450980392156862" d="M 494.5 294 L 495 297.5 L 494 297.5 L 494.5 294 Z " /><path fill="rgb(241,241,241)" stroke="rgb(241,241,241)" stroke-width="1" opacity="0.027450980392156862" d="M 493.5 300 L 494 304.5 L 493 304.5 L 493.5 300 Z " /><path fill="rgb(241,241,241)" stroke="rgb(241,241,241)" stroke-width="1" opacity="0.027450980392156862" d="M 496.5 307 L 496 308.5 L 496.5 310 L 498 310.5 L 497.5 312 L 500 313.5 L 499.5 315 L 502 316.5 Q 499.5 318 503 319.5 L 503.5 321 L 505 321.5 L 504.5 323 L 500 317.5 L 500.5 316 L 498 315.5 L 495 308.5 L 496.5 307 Z " /><path fill="rgb(241,241,241)" stroke="rgb(241,241,241)" stroke-width="1" opacity="0.027450980392156862" d="M 559.5 309 L 560.5 310 L 562 309.5 L 559.5 313 Q 557 312 558.5 311 L 560 311.5 L 559.5 309 Z " /><path fill="rgb(241,241,241)" stroke="rgb(241,241,241)" stroke-width="1" opacity="0.027450980392156862" d="M 557.5 313 L 559 315.5 L 552.5 323 L 548.5 326 L 548.5 323 L 549.5 324 L 556 317.5 Q 553.7 316.3 556.5 315 L 558 315.5 L 557.5 313 Z " /><path fill="rgb(241,241,241)" stroke="rgb(241,241,241)" stroke-width="1" opacity="0.027450980392156862" d="M 506.5 323 L 507.5 324 L 509 323.5 Q 506.8 324.8 509.5 326 L 511.5 325 L 511.5 327 L 513.5 326 L 513.5 328 L 515 328.5 L 514.5 330 L 513 329.5 L 512 335.5 L 512.5 337 Q 510.5 336.5 511 333.5 L 513 328.5 L 509.5 327 L 506 323.5 L 506.5 323 Z " /><path fill="rgb(241,241,241)" stroke="rgb(241,241,241)" stroke-width="1" opacity="0.027450980392156862" d="M 541.5 327 L 544 328.5 L 538.5 332 Q 536 331 537.5 330 L 540 329.5 L 538 328.5 L 539.5 328 L 541.5 329 L 541.5 327 Z " /><path fill="rgb(241,241,241)" stroke="rgb(241,241,241)" stroke-width="1" opacity="0.027450980392156862" d="M 537.5 334 L 538 335.5 L 535.5 343 L 534 339.5 L 536 339.5 Q 535.4 335.4 537.5 334 Z " /><path fill="rgb(241,241,241)" stroke="rgb(241,241,241)" stroke-width="1" opacity="0.027450980392156862" d="M 509.5 339 L 511 342.5 L 509 342.5 L 508.5 345 L 508 342.5 L 509.5 339 Z " /><path fill="rgb(241,241,241)" stroke="rgb(241,241,241)" stroke-width="1" opacity="0.027450980392156862" d="M 507.5 346 L 509 349.5 Q 508 351 507 348.5 L 507.5 346 Z " /><path fill="rgb(241,241,241)" stroke="rgb(241,241,241)" stroke-width="1" opacity="0.027450980392156862" d="M 533.5 347 L 534 348.5 L 531.5 356 L 530 352.5 L 532 352.5 Q 531.4 348.4 533.5 347 Z " /><path fill="rgb(241,241,241)" stroke="rgb(241,241,241)" stroke-width="1" opacity="0.027450980392156862" d="M 505.5 352 L 507 355.5 L 505 355.5 L 504.5 358 L 504 355.5 L 505.5 352 Z " /><path fill="rgb(241,241,241)" stroke="rgb(241,241,241)" stroke-width="1" opacity="0.027450980392156862" d="M 503.5 359 L 505 362.5 Q 504 364 503 361.5 L 503.5 359 Z " /><path fill="rgb(241,241,241)" stroke="rgb(241,241,241)" stroke-width="1" opacity="0.027450980392156862" d="M 529.5 360 L 530 361.5 L 527.5 369 L 526 365.5 L 528 365.5 L 527 361.5 L 529 361.5 L 529.5 360 Z " /><path fill="rgb(241,241,241)" stroke="rgb(241,241,241)" stroke-width="1" opacity="0.027450980392156862" d="M 501.5 365 L 503 368.5 L 501 368.5 L 502 371.5 Q 501 373 500 370.5 L 501.5 365 Z " /><path fill="rgb(241,241,241)" stroke="rgb(241,241,241)" stroke-width="1" opacity="0.027450980392156862" d="M 499.5 372 L 501 375.5 L 499 375.5 L 498.5 377 L 498 375.5 L 499.5 372 Z " /><path fill="rgb(241,241,241)" stroke="rgb(241,241,241)" stroke-width="1" opacity="0.027450980392156862" d="M 525.5 373 L 526 374.5 L 523.5 382 L 522 378.5 L 524 378.5 L 523 374.5 L 525 374.5 L 525.5 373 Z " /><path fill="rgb(241,241,241)" stroke="rgb(241,241,241)" stroke-width="1" opacity="0.027450980392156862" d="M 497.5 378 L 499 381.5 L 497 381.5 L 498 384.5 Q 497 386 496 383.5 L 497.5 378 Z " /><path fill="rgb(241,241,241)" stroke="rgb(241,241,241)" stroke-width="1" opacity="0.027450980392156862" d="M 495.5 385 L 497 388.5 L 495 388.5 L 494.5 390 L 494 388.5 L 495.5 385 Z " /><path fill="rgb(241,241,241)" stroke="rgb(241,241,241)" stroke-width="1" opacity="0.027450980392156862" d="M 521.5 386 L 522 387.5 L 519.5 395 L 518 391.5 L 520 391.5 Q 520.8 388.3 519 387.5 L 521 387.5 L 521.5 386 Z " /><path fill="rgb(241,241,241)" stroke="rgb(241,241,241)" stroke-width="1" opacity="0.027450980392156862" d="M 493.5 391 L 494 393.5 L 493 396.5 L 493.5 398 Q 491.5 397.5 492 394.5 L 493.5 391 Z " /><path fill="rgb(241,241,241)" stroke="rgb(241,241,241)" stroke-width="1" opacity="0.027450980392156862" d="M 491.5 398 L 493 401.5 L 491 401.5 L 492 404.5 L 490 404.5 L 489 409.5 L 489.5 411 Q 487.5 410.5 488 407.5 L 491.5 398 Z " /><path fill="rgb(241,241,241)" stroke="rgb(241,241,241)" stroke-width="1" opacity="0.027450980392156862" d="M 517.5 399 L 518 400.5 L 515.5 408 L 514 404.5 L 516 404.5 Q 516.8 401.2 515 400.5 L 517 400.5 L 517.5 399 Z " /><path fill="rgb(241,241,241)" stroke="rgb(241,241,241)" stroke-width="1" opacity="0.027450980392156862" d="M 487.5 411 L 489 414.5 L 487 414.5 L 488 417.5 L 486 417.5 L 485.5 419 L 485 417.5 L 487.5 411 Z " /><path fill="rgb(241,241,241)" stroke="rgb(241,241,241)" stroke-width="1" opacity="0.027450980392156862" d="M 513.5 412 L 514 413.5 L 512.5 417 L 511 413.5 L 513 413.5 L 513.5 412 Z " /><path fill="rgb(241,241,241)" stroke="rgb(241,241,241)" stroke-width="1" opacity="0.027450980392156862" d="M 510.5 417 Q 512.5 417.5 512 420.5 L 511 420.5 L 510.5 417 Z " /><path fill="rgb(241,241,241)" stroke="rgb(241,241,241)" stroke-width="1" opacity="0.027450980392156862" d="M 484.5 420 L 486 423.5 Q 485 425 484 422.5 L 484.5 420 Z " /><path fill="rgb(241,241,241)" stroke="rgb(241,241,241)" stroke-width="1" opacity="0.027450980392156862" d="M 483.5 424 L 485 427.5 L 483 427.5 L 484 430.5 L 482 430.5 L 481.5 432 L 481 430.5 L 483.5 424 Z " /><path fill="rgb(241,241,241)" stroke="rgb(241,241,241)" stroke-width="1" opacity="0.027450980392156862" d="M 509.5 425 L 510 426.5 L 508.5 430 L 507 426.5 L 509 426.5 L 509.5 425 Z " /><path fill="rgb(241,241,241)" stroke="rgb(241,241,241)" stroke-width="1" opacity="0.027450980392156862" d="M 506.5 430 Q 508.5 430.5 508 433.5 L 507 433.5 L 506.5 430 Z " /><path fill="rgb(241,241,241)" stroke="rgb(241,241,241)" stroke-width="1" opacity="0.027450980392156862" d="M 480.5 433 L 482 436.5 Q 481 438 480 435.5 L 480.5 433 Z " /><path fill="rgb(241,241,241)" stroke="rgb(241,241,241)" stroke-width="1" opacity="0.027450980392156862" d="M 479.5 437 L 481 440.5 L 479 440.5 L 480 443.5 L 478 443.5 L 477.5 445 L 477 443.5 L 479.5 437 Z " /><path fill="rgb(241,241,241)" stroke="rgb(241,241,241)" stroke-width="1" opacity="0.027450980392156862" d="M 505.5 438 L 506 439.5 L 504.5 443 L 503 439.5 L 505 439.5 L 505.5 438 Z " /><path fill="rgb(241,241,241)" stroke="rgb(241,241,241)" stroke-width="1" opacity="0.027450980392156862" d="M 502.5 443 Q 504.5 443.5 504 446.5 L 503 446.5 L 502.5 443 Z " /><path fill="rgb(241,241,241)" stroke="rgb(241,241,241)" stroke-width="1" opacity="0.027450980392156862" d="M 476.5 446 L 478 449.5 Q 477 451 476 448.5 L 476.5 446 Z " /><path fill="rgb(241,241,241)" stroke="rgb(241,241,241)" stroke-width="1" opacity="0.027450980392156862" d="M 475.5 450 L 477 453.5 L 475 453.5 L 476 456.5 Q 475 458 474 455.5 L 475.5 450 Z " /><path fill="rgb(241,241,241)" stroke="rgb(241,241,241)" stroke-width="1" opacity="0.027450980392156862" d="M 501.5 451 L 502 452.5 L 500.5 456 L 499 452.5 L 501 452.5 L 501.5 451 Z " /><path fill="rgb(241,241,241)" stroke="rgb(241,241,241)" stroke-width="1" opacity="0.027450980392156862" d="M 498.5 456 Q 500.5 456.5 500 459.5 L 499 459.5 L 498.5 456 Z " /><path fill="rgb(241,241,241)" stroke="rgb(241,241,241)" stroke-width="1" opacity="0.027450980392156862" d="M 472.5 459 L 474 462.5 L 472 462.5 Q 471.3 465.8 473 466.5 L 471 466.5 L 472 469.5 Q 471 471 470 468.5 L 472.5 459 Z " /><path fill="rgb(241,241,241)" stroke="rgb(241,241,241)" stroke-width="1" opacity="0.027450980392156862" d="M 498.5 461 L 499 462.5 L 496.5 469 L 495 465.5 L 497 465.5 L 496 462.5 L 498 462.5 L 498.5 461 Z " /><path fill="rgb(241,241,241)" stroke="rgb(241,241,241)" stroke-width="1" opacity="0.027450980392156862" d="M 494.5 469 Q 496.5 469.5 496 472.5 L 495 472.5 L 494.5 469 Z " /><path fill="rgb(241,241,241)" stroke="rgb(241,241,241)" stroke-width="1" opacity="0.027450980392156862" d="M 468.5 472 L 470 475.5 L 468 475.5 Q 467.2 478.8 469 479.5 L 467 479.5 L 468 482.5 Q 467 484 466 481.5 L 468.5 472 Z " /><path fill="rgb(241,241,241)" stroke="rgb(241,241,241)" stroke-width="1" opacity="0.027450980392156862" d="M 494.5 474 L 495 475.5 L 492.5 482 L 491 478.5 L 493 478.5 L 492 475.5 L 494 475.5 L 494.5 474 Z " /><path fill="rgb(241,241,241)" stroke="rgb(241,241,241)" stroke-width="1" opacity="0.027450980392156862" d="M 490.5 482 Q 492.5 482.5 492 485.5 L 491 485.5 L 490.5 482 Z " /><path fill="rgb(241,241,241)" stroke="rgb(241,241,241)" stroke-width="1" opacity="0.027450980392156862" d="M 464.5 485 L 466 488.5 L 464 488.5 Q 463.3 491.8 465 492.5 L 463 492.5 L 464 495.5 Q 463 497 462 494.5 L 464.5 485 Z " /><path fill="rgb(241,241,241)" stroke="rgb(241,241,241)" stroke-width="1" opacity="0.027450980392156862" d="M 490.5 487 L 491 488.5 L 488.5 495 L 487 491.5 L 489 491.5 L 488 488.5 L 490 488.5 L 490.5 487 Z " /><path fill="rgb(241,241,241)" stroke="rgb(241,241,241)" stroke-width="1" opacity="0.027450980392156862" d="M 486.5 495 Q 488.5 495.5 488 498.5 L 487 498.5 L 486.5 495 Z " /><path fill="rgb(241,241,241)" stroke="rgb(241,241,241)" stroke-width="1" opacity="0.027450980392156862" d="M 460.5 498 L 462 501.5 L 460 501.5 L 461 505.5 L 459 505.5 L 460 508.5 Q 459 510 458 507.5 L 460.5 498 Z " /><path fill="rgb(241,241,241)" stroke="rgb(241,241,241)" stroke-width="1" opacity="0.027450980392156862" d="M 486.5 500 L 487 501.5 L 484.5 508 L 483 504.5 L 485 504.5 L 484 501.5 L 486 501.5 L 486.5 500 Z " /><path fill="rgb(241,241,241)" stroke="rgb(241,241,241)" stroke-width="1" opacity="0.027450980392156862" d="M 482.5 508 Q 484.5 508.5 484 511.5 L 483 511.5 L 482.5 508 Z " /><path fill="rgb(241,241,241)" stroke="rgb(241,241,241)" stroke-width="1" opacity="0.027450980392156862" d="M 456.5 511 L 458 514.5 L 456 514.5 L 457 518.5 L 455 518.5 L 456 521.5 Q 455 523 454 520.5 L 456.5 511 Z " /><path fill="rgb(241,241,241)" stroke="rgb(241,241,241)" stroke-width="1" opacity="0.027450980392156862" d="M 482.5 513 L 483 514.5 L 480.5 521 L 479 517.5 L 481 517.5 L 480 514.5 L 482 514.5 L 482.5 513 Z " /><path fill="rgb(241,241,241)" stroke="rgb(241,241,241)" stroke-width="1" opacity="0.027450980392156862" d="M 478.5 521 Q 480.5 521.5 480 524.5 L 479 524.5 L 478.5 521 Z " /><path fill="rgb(241,241,241)" stroke="rgb(241,241,241)" stroke-width="1" opacity="0.027450980392156862" d="M 452.5 524 L 454 527.5 L 452 527.5 L 453 531.5 L 451 531.5 L 452 534.5 Q 451 536 450 533.5 L 452.5 524 Z " /><path fill="rgb(241,241,241)" stroke="rgb(241,241,241)" stroke-width="1" opacity="0.027450980392156862" d="M 478.5 526 L 479 527.5 L 477.5 531 L 476 527.5 L 478 527.5 L 478.5 526 Z " /><path fill="rgb(241,241,241)" stroke="rgb(241,241,241)" stroke-width="1" opacity="0.027450980392156862" d="M 475.5 530 L 477 533.5 L 476 533.5 L 475.5 530 Z " /><path fill="rgb(241,241,241)" stroke="rgb(241,241,241)" stroke-width="1" opacity="0.027450980392156862" d="M 474.5 534 Q 476.5 534.5 476 537.5 L 475 537.5 L 474.5 534 Z " /><path fill="rgb(241,241,241)" stroke="rgb(241,241,241)" stroke-width="1" opacity="0.027450980392156862" d="M 448.5 537 L 449 539.5 L 448 542.5 L 449 544.5 L 447 544.5 L 446.5 546 L 446 544.5 L 448.5 537 Z " /><path fill="rgb(241,241,241)" stroke="rgb(241,241,241)" stroke-width="1" opacity="0.027450980392156862" d="M 474.5 539 L 475 540.5 L 473.5 544 L 472 540.5 L 474 540.5 L 474.5 539 Z " /><path fill="rgb(241,241,241)" stroke="rgb(241,241,241)" stroke-width="1" opacity="0.027450980392156862" d="M 472.5 545 L 473 546.5 L 469.5 557 L 468 553.5 L 470 553.5 L 471 548.5 L 470.5 547 L 472 546.5 L 472.5 545 Z " /><path fill="rgb(241,241,241)" stroke="rgb(241,241,241)" stroke-width="1" opacity="0.027450980392156862" d="M 444.5 550 L 445 552.5 L 444 555.5 L 445 557.5 L 443 557.5 L 442.5 559 L 442 557.5 L 444.5 550 Z " /><path fill="rgb(241,241,241)" stroke="rgb(241,241,241)" stroke-width="1" opacity="0.027450980392156862" d="M 468.5 558 L 469 559.5 L 465.5 569 L 464 566.5 L 466 566.5 L 465 563.5 L 467 563.5 L 466 560.5 L 468 559.5 L 468.5 558 Z " /><path fill="rgb(241,241,241)" stroke="rgb(241,241,241)" stroke-width="1" opacity="0.027450980392156862" d="M 440.5 563 L 442 566.5 L 440 566.5 Q 439.2 569.8 441 570.5 L 439 570.5 L 438.5 572 L 438 570.5 L 440.5 563 Z " /><path fill="rgb(241,241,241)" stroke="rgb(241,241,241)" stroke-width="1" opacity="0.027450980392156862" d="M 464.5 571 L 465 572.5 L 464 573.5 L 463 579.5 L 510 580.5 L 461.5 581 Q 459 580 460.5 579 L 462 579.5 L 461 576.5 L 463 576.5 L 462 573.5 L 464 572.5 L 464.5 571 Z " /><path fill="rgb(241,241,241)" stroke="rgb(241,241,241)" stroke-width="1" opacity="0.027450980392156862" d="M 436.5 576 L 437 578.5 L 436 579.5 L 436.5 581 L 381 580.5 L 434.5 580 L 436 578.5 L 436.5 576 Z " /><path fill="rgb(241,241,241)" stroke="rgb(241,241,241)" stroke-width="1" opacity="0.027450980392156862" d="M 376.5 581 L 380 581.5 L 376 582.5 L 378 583.5 L 376.5 584 L 373.5 583 L 373.5 585 L 371.5 584 L 371.5 586 Q 368.5 584.5 371.5 583 L 376.5 581 Z " /><path fill="rgb(241,241,241)" stroke="rgb(241,241,241)" stroke-width="1" opacity="0.027450980392156862" d="M 511.5 581 L 516 582.5 L 513.5 584 L 513.5 582 Q 510.5 582.5 511.5 581 Z " /><path fill="rgb(241,241,241)" stroke="rgb(241,241,241)" stroke-width="1" opacity="0.027450980392156862" d="M 381.5 582 L 384 582.5 L 381.5 583 L 381.5 582 Z " /><path fill="rgb(241,241,241)" stroke="rgb(241,241,241)" stroke-width="1" opacity="0.027450980392156862" d="M 507.5 582 L 510 582.5 L 507.5 583 L 507.5 582 Z " /><path fill="rgb(241,241,241)" stroke="rgb(241,241,241)" stroke-width="1" opacity="0.027450980392156862" d="M 517.5 583 L 519 583.5 L 516.5 585 Q 515 584 517.5 583 Z " /><path fill="rgb(241,241,241)" stroke="rgb(241,241,241)" stroke-width="1" opacity="0.027450980392156862" d="M 367.5 585 L 370 586.5 L 368.5 586 L 367 586.5 L 367.5 588 L 365.5 587 L 365.5 589 Q 364 586.5 362.5 590 L 361 589.5 L 367.5 585 Z " /><path fill="rgb(241,241,241)" stroke="rgb(241,241,241)" stroke-width="1" opacity="0.027450980392156862" d="M 522.5 585 L 528 588.5 L 526.5 589 L 525.5 588 L 524 588.5 L 524.5 587 Q 520.7 586.3 522.5 585 Z " /><path fill="rgb(241,241,241)" stroke="rgb(241,241,241)" stroke-width="1" opacity="0.027450980392156862" d="M 527.5 590 Q 528.5 592 529.5 590 L 535 595.5 L 534.5 597 L 537 597.5 L 539 600.5 L 536 600.5 Q 538.3 599.3 535.5 598 L 533 596.5 L 534 595.5 L 529.5 591 L 528.5 592 Q 526 591 527.5 590 Z " /><path fill="rgb(241,241,241)" stroke="rgb(241,241,241)" stroke-width="1" opacity="0.027450980392156862" d="M 359.5 591 L 360.5 592 L 362 591.5 L 353 599.5 L 353.5 601 L 352 601.5 L 352.5 603 L 351 602.5 L 352 604.5 L 350 604.5 L 351 606.5 Q 350 608 349 605.5 Q 350.6 599.6 354.5 596 L 357 595.5 L 356 594.5 L 359.5 591 Z " /><path fill="rgb(241,241,241)" stroke="rgb(241,241,241)" stroke-width="1" opacity="0.027450980392156862" d="M 539.5 602 L 542 606.5 L 540.5 609 L 540 607.5 L 540.5 606 L 539 605.5 L 540 603.5 L 538 603.5 L 539.5 602 Z " /><path fill="rgb(241,241,241)" stroke="rgb(241,241,241)" stroke-width="1" opacity="0.027450980392156862" d="M 348.5 607 Q 351 608 349.5 609 L 348 608.5 L 347.5 610 L 347 608.5 L 348.5 607 Z " /><path fill="rgb(241,241,241)" stroke="rgb(241,241,241)" stroke-width="1" opacity="0.027450980392156862" d="M 542.5 608 L 545 614.5 Q 544 616 543 613.5 L 542.5 610 L 541.5 612 L 541 610.5 L 542.5 608 Z " /><path fill="rgb(241,241,241)" stroke="rgb(241,241,241)" stroke-width="1" opacity="0.027450980392156862" d="M 346.5 611 L 347 613.5 L 346 613.5 L 346.5 611 Z " /><path fill="rgb(241,241,241)" stroke="rgb(241,241,241)" stroke-width="1" opacity="0.027450980392156862" d="M 347.5 615 L 348 618.5 L 347 618.5 L 347.5 615 Z " /><path fill="rgb(241,241,241)" stroke="rgb(241,241,241)" stroke-width="1" opacity="0.027450980392156862" d="M 345.5 616 L 346 639.5 L 345 639.5 L 345.5 616 Z " /><path fill="rgb(241,241,241)" stroke="rgb(241,241,241)" stroke-width="1" opacity="0.027450980392156862" d="M 544.5 616 L 545 639.5 L 544 639.5 L 544.5 616 Z " /><path fill="rgb(163,163,163)" stroke="rgb(163,163,163)" stroke-width="1" opacity="0.011764705882352941" d="M 247.5 12 L 250 14.5 L 249.5 15 L 247 12.5 L 247.5 12 Z " /><path fill="rgb(163,163,163)" stroke="rgb(163,163,163)" stroke-width="1" opacity="0.011764705882352941" d="M 178.5 13 L 179 13.5 L 177 15.5 L 177.5 17 Q 176.3 14.7 175 17.5 L 175.5 19 L 174.5 18 L 167 25.5 L 167.5 27 L 166.5 26 L 162 30.5 L 162.5 32 Q 161.3 29.8 160 32.5 L 161 33.5 L 154.5 40 L 153.5 39 L 152 39.5 L 178.5 13 Z " /><path fill="rgb(200,200,200)" stroke="rgb(200,200,200)" stroke-width="1" opacity="0.996078431372549" d="M 209.5 0 L 220 0.5 L 218 1.5 L 220.5 2 L 223.5 1 L 224.5 3 L 227.5 2 L 228.5 4 L 230.5 3 L 231.5 5 L 237.5 7 L 247.5 15 Q 248.8 12.8 250 15.5 L 249 16.5 L 252 19.5 L 252.5 21 L 254 20.5 Q 252 21.5 254 22.5 L 255.5 25 L 257 25.5 L 256.5 27 L 258 27.5 L 257 29.5 L 259 29.5 L 258 31.5 L 260 32.5 L 259 34.5 L 261 35.5 L 260 39.5 L 262 40.5 L 261 43.5 L 261 53.5 L 262 56.5 L 260 57.5 L 261 60.5 L 259 61.5 L 260 64.5 L 258 64.5 L 259 66.5 L 257 67.5 L 256 70.5 Q 258.2 71.8 255.5 73 L 254 73.5 L 254.5 75 L 252 76.5 L 252.5 78 L 251 77.5 L 247 82.5 L 247 85.5 L 284.5 112 L 286 111.5 L 287.5 114 L 313.5 132 L 315 131.5 L 316.5 134 L 419.5 205 L 421 204.5 L 420.5 206 L 430.5 212 L 433.5 215 L 443.5 221 L 446.5 224 L 456.5 230 L 459.5 233 L 472.5 241 L 475.5 244 L 510 267.5 L 509.5 269 L 502 275.5 L 498.5 282 L 443.5 244 L 442 244.5 L 442.5 243 L 429.5 235 L 426.5 232 L 416.5 226 L 413.5 223 L 403.5 217 L 400.5 214 L 374.5 197 L 371.5 194 L 361.5 188 L 358.5 185 L 332.5 168 L 329.5 165 L 319.5 159 L 316.5 156 L 306.5 150 L 303.5 147 L 293.5 141 L 290.5 138 L 277.5 130 L 252.5 112 L 251 112.5 L 248.5 109 L 233.5 99 L 232 99.5 L 231.5 98 L 220.5 109 L 220 108.5 L 216 99.5 L 209 88.5 L 193.5 70 L 178.5 57 L 166.5 49 L 155.5 44 L 153 41.5 L 154.5 42 L 182 14.5 Q 179.8 13.3 182.5 12 L 183.5 13 L 186.5 10 L 189 8.5 L 189.5 7 Q 190.5 9 191.5 7 L 198 4.5 L 198.5 3 L 200.5 4 L 201.5 2 L 204.5 3 L 205.5 1 L 210.5 2 L 210.5 1 Q 208.1 0.9 209.5 0 Z " /><path fill="rgb(200,200,200)" stroke="rgb(200,200,200)" stroke-width="1" opacity="0.996078431372549" d="M 517.5 328 Q 519.3 329.7 523.5 329 L 524.5 330 L 532.5 330 Q 533.3 328.3 536.5 329 L 537 330.5 L 535 330.5 L 536 332.5 L 534 333.5 L 535 336.5 L 533 337.5 L 534 339.5 L 532 340.5 L 533 342.5 L 531 343.5 L 532 345.5 L 530 346.5 L 531 349.5 L 529 350.5 L 530 352.5 L 528 353.5 L 529 355.5 L 527 356.5 L 528 358.5 L 526 359.5 L 527 362.5 L 525 363.5 L 526 365.5 L 524 366.5 L 525 368.5 L 523 369.5 L 524 371.5 L 522 372.5 L 523 375.5 L 521 375.5 L 522 378.5 L 520 379.5 L 521 381.5 L 519 382.5 L 520 384.5 L 518 385.5 L 519 388.5 L 517 388.5 L 518 391.5 L 516 392.5 L 517 394.5 L 515 395.5 L 516 397.5 L 514 398.5 L 515 401.5 L 513 401.5 L 514 404.5 L 512 405.5 L 513 407.5 L 511 408.5 L 512 410.5 L 510 411.5 L 511 414.5 L 509 414.5 L 510 417.5 L 508 418.5 L 509 420.5 L 507 421.5 L 508 423.5 L 506 424.5 L 507 427.5 L 505 427.5 L 506 430.5 L 504 431.5 L 505 433.5 L 503 434.5 L 504 436.5 L 502 437.5 L 503 440.5 L 501 440.5 L 502 443.5 L 500 444.5 L 501 446.5 L 499 447.5 L 500 449.5 L 498 450.5 L 499 453.5 L 497 453.5 L 498 456.5 L 496 457.5 L 497 459.5 L 495 460.5 L 496 462.5 L 494 463.5 L 495 466.5 L 493 466.5 L 494 469.5 L 492 470.5 L 493 472.5 L 491 473.5 L 492 475.5 L 490 476.5 L 491 479.5 L 489 479.5 L 490 482.5 L 488 483.5 L 489 485.5 L 487 486.5 L 488 488.5 L 486 489.5 L 487 492.5 L 485 492.5 L 486 495.5 L 484 496.5 L 485 498.5 L 483 499.5 L 484 501.5 L 482 502.5 L 483 505.5 L 481 505.5 L 482 508.5 L 480 509.5 L 481 511.5 L 479 512.5 L 480 514.5 L 478 515.5 L 479 518.5 L 477 518.5 L 478 521.5 L 476 522.5 L 477 524.5 L 475 525.5 L 476 527.5 L 474 528.5 L 475 531.5 L 473 531.5 L 474 534.5 L 472 535.5 L 473 537.5 L 471 538.5 L 472 540.5 L 470 541.5 L 471 543.5 L 469 544.5 L 470 547.5 L 468 548.5 L 469 550.5 L 467 551.5 L 468 553.5 L 466 554.5 L 467 556.5 L 465 557.5 L 466 560.5 L 464 561.5 L 465 563.5 L 463 564.5 L 464 566.5 L 462 567.5 L 463 569.5 L 461 570.5 L 462 573.5 L 460 574.5 L 461 576.5 L 459 577.5 L 460 580.5 L 458 580.5 L 459 582.5 L 439.5 583 L 438.5 581 L 437 581.5 L 438.5 579 L 440 578.5 L 439 576.5 L 441 575.5 L 440 573.5 L 442 572.5 L 441 569.5 L 443 569.5 L 442 566.5 L 444 565.5 L 443 563.5 L 445 562.5 L 444 560.5 L 446 559.5 L 445 556.5 L 447 556.5 L 446 553.5 L 448 552.5 L 447 550.5 L 449 549.5 L 448 547.5 L 450 546.5 L 449 543.5 L 451 543.5 L 450 540.5 L 452 539.5 L 451 537.5 L 453 536.5 L 452 534.5 L 454 533.5 L 453 530.5 L 455 530.5 L 454 527.5 L 456 526.5 L 455 524.5 L 457 523.5 L 456 521.5 L 458 520.5 L 457 517.5 L 459 517.5 L 458 514.5 L 460 513.5 L 459 511.5 L 461 510.5 L 460 508.5 L 462 507.5 L 461 504.5 L 463 504.5 L 462 501.5 L 464 500.5 L 463 498.5 L 465 497.5 L 464 495.5 L 466 494.5 L 465 492.5 L 467 491.5 L 466 488.5 L 468 487.5 L 467 485.5 L 469 484.5 L 468 482.5 L 470 481.5 L 469 479.5 L 471 478.5 L 470 475.5 L 472 474.5 L 471 472.5 L 473 471.5 L 472 469.5 L 474 468.5 L 473 466.5 L 475 465.5 L 474 462.5 L 476 461.5 L 475 459.5 L 477 458.5 L 476 456.5 L 478 455.5 L 477 453.5 L 479 452.5 L 478 449.5 L 480 448.5 L 479 446.5 L 481 445.5 L 480 443.5 L 482 442.5 L 481 440.5 L 483 439.5 L 482 436.5 L 484 435.5 L 483 433.5 L 485 432.5 L 484 430.5 L 486 429.5 L 485 427.5 L 487 426.5 L 486 423.5 L 488 422.5 L 487 420.5 L 489 419.5 L 488 417.5 L 490 416.5 L 489 414.5 L 491 413.5 L 490 410.5 L 492 409.5 L 491 407.5 L 493 406.5 L 492 404.5 L 494 403.5 L 493 401.5 L 495 400.5 L 494 397.5 L 496 396.5 L 495 394.5 L 497 393.5 L 496 391.5 L 498 390.5 L 497 388.5 L 499 387.5 L 498 384.5 L 500 383.5 L 499 381.5 L 501 380.5 L 500 378.5 L 502 377.5 L 501 375.5 L 503 374.5 L 502 371.5 L 504 370.5 L 503 368.5 L 505 367.5 L 504 365.5 L 506 364.5 L 505 362.5 L 507 361.5 L 506 358.5 L 508 357.5 L 507 355.5 L 509 354.5 L 508 352.5 L 510 351.5 L 509 349.5 L 511 348.5 L 510 345.5 L 512 344.5 L 511 342.5 L 513 341.5 L 512 339.5 L 514 338.5 L 513 336.5 L 515 335.5 L 514 332.5 L 516 331.5 L 515 329.5 L 517.5 328 Z " /></svg>