<svg viewBox="0 0 578 640" version="1.1" xmlns="http://www.w3.org/2000/svg" desc="Created with imagetracer.js version 1.2.6" ><path fill="rgb(0,0,0)" stroke="rgb(0,0,0)" stroke-width="1" opacity="0.9647058823529412" d="M 301.5 0 L 318.5 0 L 319.5 1 L 330.5 1 L 331.5 2 L 341.5 2 L 342.5 3 L 348.5 3 L 349.5 4 L 352.5 4 L 361.5 7 L 369.5 11 L 374.5 12 L 389.5 20 L 403.5 30 L 428 53.5 L 435 63.5 L 447 86.5 L 449 92.5 L 449 95.5 L 450 96.5 L 450 99.5 L 453 106.5 L 453 109.5 L 457 118.5 L 457 121.5 L 458 122.5 L 459.5 130 L 465.5 129 L 492.5 138 L 498.5 142 L 503.5 143 L 511 149.5 L 514 154.5 L 515 160.5 L 516 161.5 L 516 174.5 L 511 186.5 L 501.5 196 L 496.5 200 L 485 204.5 L 485 214.5 L 484 216.5 L 486 220.5 L 486 227.5 Q 483.4 228.9 484 233.5 L 485 234.5 Q 483.8 239.2 486 240.5 L 485 241.5 L 485 247.5 L 483 251.5 L 485 254.5 L 485 267.5 L 486 268.5 L 486 298.5 Q 483.4 299.9 484 304.5 L 485 305.5 L 485 314.5 Q 483.3 315.3 484 318.5 L 485 319.5 L 485 328.5 L 482 335.5 L 484 340.5 L 484 348.5 L 482 352.5 L 482 356.5 Q 483.8 357.3 483 360.5 L 480 367.5 Q 484.3 370.7 484 378.5 L 483 379.5 Q 484.2 384.2 482 385.5 L 484 389.5 L 484 397.5 L 482 401.5 L 482 406.5 L 483 407.5 L 483 416.5 L 481 419.5 L 483 422.5 L 483 433.5 Q 481 434.5 482 438.5 L 484 440.5 L 485 445.5 L 483 451.5 L 483 463.5 Q 481.3 464.3 482 467.5 L 484 470.5 L 484 481.5 L 482 484.5 Q 485.2 486.8 484 493.5 L 483 494.5 L 483 512.5 Q 481.3 513.3 482 516.5 L 484.5 522 L 498.5 528 L 507.5 536 L 514.5 536 L 515.5 535 L 520.5 535 L 521.5 534 L 524.5 534 L 525.5 533 L 528.5 533 L 529.5 532 L 532.5 532 L 538.5 530 L 544.5 527 L 548 523.5 L 549 521.5 L 550 511.5 L 548 507.5 L 548 500.5 L 552 491.5 L 556.5 486 L 565.5 480 L 572.5 479 L 573 482.5 L 570.5 485 L 565.5 486 L 562.5 488 L 556 494.5 L 555 496.5 L 555 522.5 Q 552.4 529.4 547.5 534 L 543.5 537 L 531.5 542 L 503.5 542 L 497.5 544 L 488.5 544 L 487.5 545 L 476.5 545 L 475.5 546 L 455.5 546 L 450.5 548 L 418.5 548 L 417.5 547 L 409.5 547 L 403.5 545 L 395.5 545 L 394.5 544 L 390.5 544 L 389.5 543 L 382.5 542 L 366.5 534 L 359.5 529 L 359 536.5 L 363.5 543 L 373.5 548 L 384.5 551 L 387.5 553 L 391.5 553 L 392.5 554 L 407.5 555 L 408.5 556 L 422.5 556 L 423.5 557 L 435.5 557 L 436.5 558 L 442.5 558 L 443.5 557 L 455.5 557 L 456.5 556 L 466.5 556 L 467.5 555 L 475.5 555 L 476.5 554 L 494.5 553 L 495.5 552 L 501.5 552 L 502.5 551 L 506.5 551 L 507.5 550 L 511.5 550 L 517.5 548 L 524.5 548 L 537.5 543 L 542.5 543 L 546.5 541 L 555 532.5 L 560 521.5 L 560 515.5 L 559 514.5 L 559 499.5 L 561 494.5 L 566.5 489 Q 568.3 487.3 572.5 488 Q 575.3 489.3 574 494.5 L 570.5 499 L 566 502.5 L 567 505.5 L 567 526.5 L 558.5 540 L 547.5 546 L 542.5 547 L 539.5 549 L 536.5 549 L 527.5 552 L 523.5 552 L 522.5 553 L 517.5 553 L 515 555.5 Q 516 559.5 514 560.5 L 514 568.5 L 512 571.5 L 512 573.5 L 500.5 586 L 494.5 590 L 477.5 598 L 474.5 598 L 469.5 600 L 463.5 600 L 462.5 601 L 457 601.5 Q 457.7 604.8 456 605.5 L 456 627.5 L 453.5 630 L 448.5 631 L 439.5 636 L 432.5 637 L 428.5 639 L 422.5 639 L 421.5 640 L 401.5 640 L 394.5 637 L 388.5 636 L 386.5 634 L 379 630.5 L 379 626.5 L 377 622.5 L 377 597.5 L 375.5 596 L 358.5 593 L 349.5 589 L 344.5 588 L 340.5 586 L 323 571.5 L 318 563.5 L 318 557.5 L 317 556.5 L 317 547.5 L 319 541.5 L 332.5 528 L 339.5 524 L 354 520.5 L 354 517.5 L 356 513.5 L 356 498.5 L 355 497.5 L 355 487.5 Q 357.3 486.3 356 481.5 L 355 480.5 L 355 454.5 Q 356.8 453.8 356 450.5 L 354 446.5 L 354 440.5 L 355 439.5 Q 353.8 434.8 356 433.5 L 354 429.5 L 354 421.5 L 356 417.5 L 356 413.5 L 354 409.5 L 354 399.5 Q 357.2 397.2 356 390.5 Q 354 389.5 355 385.5 L 357 381.5 L 357 378.5 L 355 374.5 L 355 369.5 L 357 365.5 L 357 362.5 Q 353.4 359.6 355 351.5 Q 357 350.5 355 349.5 Q 355.8 344.7 354 342.5 L 355 341.5 L 356 331.5 L 353 326.5 L 353 316.5 Q 354.8 315.8 354 312.5 L 353 311.5 L 353 304.5 L 356 297.5 L 353 294.5 L 352 291.5 L 352 286.5 L 355 279.5 Q 350.7 277.3 352 269.5 Q 354.6 268.1 354 263.5 Q 350.4 260.6 352 252.5 Q 354.6 251.1 354 246.5 L 352 241.5 L 352 236.5 L 353 235.5 Q 352.2 230.7 354 228.5 L 352 226.5 L 350.5 217 L 340.5 215 L 330.5 211 L 327.5 211 L 326.5 210 L 323.5 210 L 322.5 209 L 319.5 209 L 318.5 208 L 315.5 208 L 314.5 207 L 311.5 207 L 310.5 206 L 295.5 203 L 291.5 201 L 288.5 201 L 284.5 199 L 281.5 199 L 274.5 196 L 271.5 196 L 265.5 194 L 264.5 195 L 259.5 195 L 256 196.5 Q 257.6 204.6 254 207.5 L 256 211.5 L 256 220.5 L 253 224.5 L 255 227.5 L 255 237.5 L 253 240.5 Q 255.8 242.2 255 247.5 L 252 253.5 L 252 255.5 L 255 259.5 L 255 268.5 L 253 272.5 L 255 276.5 L 255 285.5 Q 253 286.5 255 287.5 L 256 292.5 L 252 301.5 L 255 306.5 L 255 313.5 Q 252.2 315.2 253 320.5 L 254 321.5 L 254 331.5 Q 252.2 332.3 253 335.5 L 255 338.5 L 255 340.5 L 252 346.5 L 255 351.5 L 255 356.5 L 252.5 361 L 249 363.5 L 254 369.5 L 255 376.5 L 253 382.5 L 254 383.5 Q 252.7 388.3 255 389.5 L 253 395.5 Q 257 397.5 257 403.5 L 253 411.5 L 256 415.5 L 256 424.5 L 253 428.5 Q 257.5 430 256 437.5 L 252 444.5 L 256 449.5 L 256 455.5 L 253 460.5 L 255 463.5 L 255 472.5 L 253 476.5 L 257 482.5 L 257 490.5 L 254 495.5 Q 257.2 497.8 256 504.5 Q 253.7 505.7 255 510.5 L 257 513.5 L 257.5 521 L 263.5 522 L 265.5 524 L 271.5 526 L 281 534.5 L 285 542.5 L 285 545.5 L 287 550.5 L 287 560.5 Q 283.6 571.1 275.5 577 L 273.5 577 L 265.5 582 L 257.5 584 L 252.5 587 L 246.5 588 L 245.5 589 L 241.5 589 L 236.5 591 L 232.5 591 L 228 593.5 L 227 596.5 L 227 609.5 L 228 610.5 L 228 619.5 L 225.5 623 L 210.5 630 Q 205.7 628.7 204.5 631 L 195.5 631 L 194.5 632 L 185.5 632 L 184.5 631 L 176.5 631 L 175.5 630 L 172.5 630 L 163.5 627 L 154.5 622 L 151 618.5 Q 151.8 615.3 150 614.5 L 150 605.5 L 151 604.5 L 151 596.5 L 148.5 595 L 137.5 593 L 119.5 586 L 112.5 585 L 102.5 579 L 93 571.5 L 87 560.5 L 86 557.5 L 86 550.5 L 87 549.5 L 89 539.5 L 94 531.5 L 92.5 531 L 86.5 534 L 84.5 534 L 75.5 539 L 62 551.5 L 57.5 557 L 48.5 562 L 41.5 563 L 36.5 566 Q 31.7 564.8 30.5 567 L 19.5 567 L 18.5 566 L 4.5 566 L 1 564.5 L 0 560.5 L 1.5 559 L 16.5 559 L 17.5 558 L 32.5 558 Q 33.5 556 37.5 557 L 47.5 553 L 53 548.5 L 67.5 533 L 75.5 528 L 78.5 527 L 83.5 527 L 84.5 526 L 92.5 525 L 93.5 524 L 107.5 523 L 108.5 522 L 133 521.5 Q 133.8 515.7 130.5 514 L 113.5 515 L 112.5 516 L 104.5 516 L 103.5 517 L 97.5 517 L 96.5 518 L 92.5 518 L 91.5 519 L 87.5 519 L 86.5 520 L 79.5 521 L 61.5 530 L 54 536.5 Q 50.6 543.6 44.5 548 L 40.5 551 Q 34.5 550 32.5 553 L 9.5 553 Q 8.5 555 4.5 554 Q 2.5 553.5 3 550.5 L 6.5 548 L 20.5 548 Q 21.7 550.3 26.5 549 L 27.5 548 L 34.5 547 L 44 540.5 Q 47.4 533.4 53.5 529 L 60.5 524 L 77.5 517 L 85.5 516 L 86.5 515 L 94.5 514 L 95.5 513 L 99.5 513 L 100.5 512 L 106.5 512 L 107.5 511 L 113.5 511 L 114.5 510 L 121.5 510 L 122.5 509 L 131.5 509 L 133 507.5 L 132 506.5 L 132 498.5 L 134 492.5 L 132 487.5 L 132 483.5 L 133 482.5 L 133 478.5 L 135 475.5 L 135 473.5 L 133 467.5 L 135 462.5 L 133 459.5 L 133 447.5 Q 135.3 446.2 134 441.5 L 133 440.5 L 133 433.5 L 135 429.5 L 135 425.5 L 134 424.5 L 134 412.5 L 136 408.5 L 133 402.5 L 133 397.5 L 134 396.5 L 134 390.5 Q 132 389.5 133 385.5 Q 135 384.5 134 380.5 L 133 379.5 L 133 369.5 Q 135.3 368.3 134 363.5 L 133 362.5 L 133 338.5 L 134 337.5 L 134 330.5 L 133 329.5 L 133 322.5 L 135 316.5 L 133 312.5 L 133 309.5 L 134 308.5 L 135 301.5 L 134 300.5 L 134 292.5 Q 135.8 291.8 135 288.5 L 133 284.5 L 133 275.5 L 135 270.5 L 133 266.5 L 133 262.5 Q 134.8 261.8 134 258.5 L 136 256.5 L 136 254.5 L 133 250.5 L 133 236.5 L 132 235.5 L 132 229.5 Q 133.8 228.8 133 225.5 L 132 224.5 L 132 212.5 Q 134.2 211.3 133 206.5 L 130 199.5 Q 131.8 198.8 131 195.5 L 122.5 192 L 118.5 192 L 115.5 190 L 113.5 190 Q 108 188 105 183.5 L 97 170.5 L 96 164.5 L 95 163.5 L 95 157.5 L 100 144.5 L 105.5 138 L 109.5 135 L 121.5 131 L 131.5 130 L 132.5 129 L 137.5 129 L 138.5 128 L 142.5 128 L 143.5 127 L 147.5 127 L 148.5 126 L 152.5 126 L 157 124.5 Q 158.8 122.3 158 117.5 L 161 108.5 L 161 105.5 L 163 101.5 L 163 98.5 L 170 80.5 L 172 78.5 L 175 71.5 L 179 67.5 L 185 58.5 L 189 50.5 L 204.5 34 L 222.5 22 L 244.5 12 L 265.5 5 L 268.5 5 L 269.5 4 L 275.5 4 L 276.5 3 L 282.5 3 L 283.5 2 L 289.5 2 L 290.5 1 L 300.5 1 L 301.5 0 Z M 303 6 L 302 7 L 293 7 L 292 8 L 286 8 L 277 11 L 266 11 L 258 14 L 252 15 L 235 24 L 233 24 L 225 28 L 210 39 L 198 51 L 188 65 L 183 75 L 181 77 L 173 93 L 170 102 L 170 105 L 169 106 L 169 109 L 166 116 L 165 125 L 164 126 Q 163 130 165 132 L 165 141 Q 166 143 171 142 L 172 138 L 172 134 L 173 133 L 173 120 L 175 116 L 175 113 L 179 101 L 187 87 L 188 82 L 190 80 L 191 76 L 201 64 L 203 59 L 216 46 L 231 35 L 242 30 L 255 22 L 265 20 L 266 19 L 270 19 L 271 18 L 272 19 L 270 21 Q 263 22 259 26 L 254 32 L 252 37 L 252 41 L 254 45 L 258 46 L 264 44 L 267 44 L 268 43 L 271 43 L 284 38 L 291 37 L 294 35 L 301 35 L 302 34 L 319 34 L 320 35 L 330 35 Q 331 37 335 36 L 336 37 L 339 37 L 354 42 L 363 47 Q 368 48 369 46 L 365 42 L 351 35 L 343 33 L 339 30 L 324 27 L 323 26 L 320 26 L 317 25 L 318 23 Q 321 22 323 24 L 330 24 L 331 25 L 336 25 L 337 26 L 341 26 L 346 28 L 349 28 L 374 38 L 374 36 L 367 29 L 361 26 L 356 25 L 349 21 L 338 18 L 335 16 L 320 14 L 321 12 L 338 13 L 339 14 L 343 14 L 347 16 L 350 16 L 354 18 L 357 18 L 363 20 L 376 26 L 396 39 L 406 50 L 416 64 L 423 75 L 428 87 L 430 89 L 437 110 L 437 113 L 440 120 L 442 131 L 443 132 L 444 142 L 445 143 L 446 153 L 448 153 L 454 150 L 453 133 L 452 132 L 451 123 L 448 115 L 448 112 L 447 111 L 447 108 L 446 107 L 446 104 L 444 98 L 432 72 L 425 61 L 415 49 L 402 35 L 389 26 L 363 14 L 357 12 L 354 12 L 353 11 L 350 11 L 349 10 L 346 10 L 345 9 L 342 9 L 341 8 L 336 8 L 335 7 L 328 7 L 327 6 L 303 6 Z M 385 39 L 374 55 L 375 62 L 383 68 Q 387 68 389 65 L 389 63 L 384 57 Q 384 54 386 53 L 389 53 L 394 57 L 395 56 Q 394 51 396 51 L 393 47 L 385 39 Z M 232 41 L 223 50 L 221 54 Q 220 60 222 63 L 227 66 L 234 66 L 237 65 L 243 61 L 236 56 L 232 52 Q 231 45 233 42 L 232 41 Z M 292 63 L 291 64 L 287 64 L 286 65 L 283 65 L 277 67 Q 272 71 266 72 L 260 76 L 258 76 L 251 81 Q 241 89 235 100 L 230 111 L 230 115 Q 227 116 228 121 L 225 126 L 225 140 L 227 141 L 230 131 L 230 121 Q 232 120 231 117 L 236 106 L 241 98 L 248 92 L 250 88 L 257 81 L 270 74 L 282 70 L 285 70 L 286 69 L 290 69 L 291 68 Q 295 69 297 67 L 312 67 L 314 66 L 300 65 L 299 64 L 292 63 Z M 301 73 L 300 74 L 295 74 L 294 75 L 289 75 L 284 77 L 281 77 L 272 81 L 270 81 L 263 85 L 261 88 L 254 92 L 250 96 L 241 111 L 241 114 L 239 117 L 237 124 L 263 131 L 277 138 L 286 149 L 289 158 Q 290 161 288 163 L 288 171 L 285 178 L 300 183 L 307 184 L 308 185 L 312 185 L 317 187 L 321 187 L 326 189 L 330 189 L 335 191 L 339 191 L 340 192 L 345 192 L 346 193 L 346 192 L 338 187 L 333 183 L 330 175 L 330 164 L 333 155 L 335 152 Q 341 145 349 140 L 366 132 L 372 131 L 373 130 L 377 130 L 378 129 L 371 112 L 365 103 L 357 94 L 335 78 L 328 77 L 317 73 L 301 73 Z M 152 131 L 147 133 L 142 133 L 141 134 L 132 134 Q 131 136 128 135 L 124 137 L 121 137 L 111 142 L 105 148 L 104 154 L 103 155 L 103 164 Q 105 164 104 168 L 109 179 L 125 189 L 128 189 L 125 186 L 119 181 L 119 179 L 117 176 L 117 171 L 115 168 L 115 160 Q 118 151 125 146 L 127 146 L 130 149 L 136 153 L 133 162 L 133 172 L 135 176 L 140 180 L 146 182 L 148 182 L 146 180 L 141 176 L 140 173 L 141 168 L 145 161 L 150 157 Q 153 156 154 159 L 150 167 L 150 172 L 153 178 Q 154 181 152 182 L 154 183 L 162 183 L 163 184 L 170 184 L 171 185 L 183 185 Q 185 184 184 182 L 181 180 L 170 179 L 166 177 L 169 175 L 186 175 Q 188 175 187 172 L 180 171 L 179 170 L 171 170 L 168 169 L 165 167 L 167 165 L 191 165 L 192 164 L 213 164 Q 214 162 219 163 L 220 162 L 227 162 L 228 161 L 237 161 L 238 160 L 242 160 L 247 158 L 250 158 L 257 155 L 261 155 L 272 148 L 276 148 L 276 150 L 274 150 L 273 165 L 267 177 L 267 179 L 264 181 L 263 183 L 259 187 L 249 191 L 249 192 L 260 189 L 273 182 L 276 179 L 276 177 L 280 172 L 282 166 L 282 158 L 277 146 L 267 139 L 266 140 L 262 140 L 261 141 L 253 142 L 252 143 L 246 143 L 245 144 L 236 145 L 231 147 L 226 151 L 219 152 L 218 153 L 211 153 L 210 154 L 185 154 L 184 153 L 173 152 L 165 148 L 158 140 Q 159 135 157 133 L 152 131 Z M 380 136 L 376 138 L 368 138 L 367 139 L 361 140 L 352 144 L 342 151 L 340 153 L 338 159 L 338 163 L 337 164 L 337 170 L 338 171 L 338 175 L 340 180 L 344 182 L 344 173 L 349 163 L 353 160 L 357 160 L 358 161 L 364 162 L 366 165 Q 367 170 364 172 L 364 179 L 366 183 L 373 188 L 375 188 L 375 186 L 372 181 L 373 175 L 379 169 L 384 167 Q 389 166 390 169 L 386 175 Q 387 178 385 179 Q 384 185 386 188 L 390 191 Q 393 190 395 192 L 402 192 L 403 193 L 409 193 L 410 194 L 417 193 L 423 190 L 422 188 L 414 188 L 413 187 L 404 186 L 401 185 L 398 183 L 401 181 Q 405 180 407 182 L 426 182 Q 426 180 430 181 L 431 180 L 429 178 L 416 178 L 415 177 L 409 177 L 408 176 L 400 175 L 399 174 L 404 171 L 437 171 L 438 170 L 447 170 L 448 169 L 454 169 L 455 168 L 460 168 L 461 167 L 467 167 L 473 165 L 477 165 L 481 163 L 484 163 L 495 158 L 500 153 L 502 154 L 501 175 L 497 184 L 491 190 L 489 190 L 483 195 L 480 196 L 480 197 L 498 192 L 505 185 L 509 178 Q 508 174 510 174 L 510 166 L 506 155 L 497 146 L 490 146 L 485 148 L 481 148 L 470 152 L 458 154 L 439 161 L 413 161 L 412 160 L 404 160 L 386 154 L 383 151 L 382 142 Q 380 141 381 138 L 380 136 Z M 287 186 L 285 188 L 285 190 L 288 194 L 294 197 L 300 199 L 315 202 L 316 203 L 319 203 L 320 204 L 323 204 L 324 205 L 327 205 L 328 206 L 331 206 L 332 207 L 343 208 L 349 210 L 353 210 L 354 211 L 358 211 L 366 214 L 380 216 L 381 217 L 385 217 L 386 218 L 391 218 L 396 220 L 457 220 L 458 219 L 466 219 Q 466 217 470 218 L 480 214 Q 482 207 478 205 Q 475 207 471 206 L 470 207 L 466 207 L 458 213 L 452 213 L 451 214 L 434 214 L 428 212 L 419 212 L 418 211 L 409 211 L 408 210 L 399 210 L 398 209 L 390 209 L 389 208 L 376 207 L 375 206 L 371 206 L 362 203 L 359 203 L 350 199 L 335 196 L 334 195 L 330 195 L 325 193 L 321 193 L 312 190 L 309 190 L 308 189 L 305 189 L 304 188 L 301 188 L 300 187 L 296 187 L 295 186 L 287 186 Z M 136 198 Q 134 201 136 204 L 145 210 Q 149 209 151 211 L 159 211 L 160 212 L 167 212 L 168 213 L 179 213 L 180 214 L 217 213 L 218 212 L 229 211 L 238 208 L 242 208 L 243 207 L 246 208 L 249 207 L 252 203 Q 252 200 251 199 L 239 200 L 225 206 L 208 207 L 207 208 L 202 207 L 199 204 L 182 203 L 181 202 L 165 202 L 164 201 L 155 201 L 154 200 L 143 199 L 142 198 L 136 198 Z M 248 210 L 243 213 L 235 214 L 231 218 L 226 220 L 218 221 L 217 222 L 209 222 L 208 223 L 199 222 L 198 221 L 197 219 Q 193 220 193 218 L 176 218 L 175 217 L 165 217 L 164 216 L 157 216 L 156 215 L 151 215 L 150 214 L 146 214 L 145 213 Q 140 214 139 212 Q 135 214 136 221 L 139 223 L 150 224 L 159 227 L 172 227 L 173 228 L 198 228 L 199 227 L 212 227 L 213 226 L 221 226 L 222 225 L 229 225 Q 230 223 235 224 L 236 223 L 244 223 Q 244 221 248 222 L 252 217 L 250 211 L 248 210 Z M 478 221 L 474 223 L 465 224 L 464 226 L 461 228 L 458 229 L 453 229 L 452 230 L 435 230 Q 434 228 431 229 L 426 226 L 412 226 L 404 229 L 382 229 L 381 228 L 370 228 L 369 227 L 363 227 L 362 226 L 358 227 L 361 229 L 367 230 L 378 234 Q 382 233 384 235 L 394 235 L 395 236 L 404 236 L 405 237 L 415 237 L 416 238 L 427 238 L 428 237 L 444 237 L 445 236 L 457 236 L 458 235 L 464 235 Q 464 233 468 234 L 474 231 L 479 231 L 481 227 L 481 223 Q 481 220 478 221 Z M 247 225 L 242 228 L 234 229 L 233 232 L 231 234 L 220 235 L 219 236 L 203 236 L 198 233 L 187 233 L 186 232 L 164 232 L 163 231 L 157 231 L 156 230 L 148 229 L 140 226 L 138 228 L 137 234 L 136 235 L 137 237 L 143 239 L 152 240 L 157 242 L 162 242 L 163 243 L 218 243 L 219 242 L 229 242 Q 229 240 234 241 L 245 237 Q 245 239 249 238 L 251 235 L 251 231 L 248 226 L 247 225 Z M 479 237 L 468 241 L 464 241 L 458 246 Q 454 245 454 247 L 448 247 L 447 248 L 435 248 Q 433 246 430 247 L 428 245 L 427 243 L 405 242 L 404 241 L 395 241 L 394 240 L 388 240 L 387 241 L 368 240 L 363 238 L 357 239 L 358 245 L 362 247 L 370 249 L 373 251 L 381 252 L 382 253 L 397 253 L 398 254 L 419 254 L 420 255 L 451 255 L 452 254 L 460 254 Q 461 252 466 253 L 467 252 L 472 252 L 478 250 L 480 247 L 480 239 L 479 237 Z M 140 243 L 138 245 Q 137 249 139 252 L 143 255 L 154 257 L 155 258 L 169 258 L 170 259 L 181 259 L 182 260 L 194 260 L 195 259 L 209 259 L 210 258 L 226 258 L 227 257 L 235 257 L 240 254 L 246 253 L 250 249 Q 251 244 249 243 L 245 243 L 240 245 L 237 245 L 234 249 L 230 251 Q 226 250 226 252 L 220 252 L 219 253 L 206 253 L 203 252 L 200 249 L 199 250 L 197 249 L 187 249 L 186 248 L 168 248 L 167 247 L 158 247 L 157 246 L 152 246 L 151 245 L 147 245 L 146 244 Q 141 245 140 243 Z M 361 251 L 357 254 L 357 259 L 358 262 L 361 264 L 364 264 L 374 269 L 386 270 L 387 271 L 393 271 L 394 272 L 400 272 L 401 273 L 411 273 L 412 274 L 443 274 L 444 273 L 456 273 L 457 272 L 463 272 L 468 270 L 471 270 L 477 267 L 479 267 L 480 266 L 480 258 L 479 256 L 478 257 L 467 258 L 465 259 L 463 262 L 459 264 Q 454 263 454 265 L 447 265 L 446 266 L 436 266 L 435 265 Q 430 266 429 264 L 427 262 L 426 260 L 419 260 L 418 259 L 393 259 L 392 258 L 385 258 L 384 257 L 379 257 L 378 256 L 370 255 L 361 251 Z M 140 259 Q 136 260 138 267 L 143 270 L 149 271 L 150 272 L 162 273 L 163 274 L 173 274 L 174 275 L 201 275 L 202 274 L 214 274 L 215 273 Q 218 272 220 274 L 224 274 L 228 272 Q 232 273 234 271 L 241 271 L 245 269 L 249 269 L 250 268 Q 252 261 248 259 L 234 261 L 232 264 L 230 266 L 223 267 L 222 268 L 203 268 L 199 264 L 165 264 L 164 263 L 155 263 L 154 262 L 149 262 L 140 259 Z M 359 269 L 357 271 L 357 273 L 361 280 L 371 284 L 377 286 L 380 286 L 381 287 L 385 287 L 386 288 L 399 289 L 400 290 L 409 290 L 410 291 L 432 291 L 433 292 L 435 291 L 451 291 Q 452 289 457 290 L 458 289 L 462 289 L 467 287 L 470 287 L 476 284 L 480 284 L 481 281 Q 482 275 479 274 L 476 274 L 469 277 L 463 278 L 462 280 L 458 282 Q 453 281 452 283 L 430 283 L 429 282 L 427 279 L 416 279 L 415 278 L 404 278 L 403 277 L 395 277 L 394 276 L 383 275 L 382 274 L 378 274 L 373 272 L 370 272 L 364 269 L 359 269 Z M 140 275 Q 136 277 138 283 L 141 285 L 149 286 L 150 287 L 154 287 L 155 288 L 169 289 L 170 290 L 187 290 L 188 291 L 200 291 L 201 290 L 223 290 L 224 289 L 233 289 Q 234 287 239 288 L 242 286 L 249 285 L 250 283 Q 251 277 249 275 L 236 276 L 234 280 L 228 282 L 214 282 L 213 283 Q 202 285 199 279 L 196 280 L 178 280 L 177 279 L 163 279 L 162 278 L 155 278 L 154 277 L 145 276 L 144 275 L 140 275 Z M 359 284 L 357 286 L 357 289 L 359 294 L 367 299 L 375 302 L 383 303 L 384 304 L 389 304 L 390 305 L 394 305 L 395 306 L 407 306 L 408 307 L 439 307 L 440 306 L 451 306 L 452 305 L 460 305 Q 461 303 466 304 L 473 301 L 476 301 L 481 297 Q 482 292 480 291 L 472 292 L 468 294 L 464 294 L 460 298 L 454 299 L 453 300 L 447 300 L 446 301 L 435 301 Q 433 299 430 300 L 428 298 L 427 296 L 406 296 L 405 295 L 399 295 Q 397 293 393 294 L 392 293 L 387 293 L 386 292 L 382 292 L 377 290 L 374 290 L 361 284 L 359 284 Z M 141 291 Q 138 293 139 299 L 142 301 L 148 301 L 157 304 L 161 304 L 166 306 L 169 306 L 170 307 L 217 307 L 218 306 L 226 306 Q 227 304 232 305 L 236 303 L 246 301 L 251 294 L 250 291 L 246 291 L 241 293 L 237 293 L 234 298 L 230 299 L 203 299 L 198 296 Q 193 297 192 295 L 170 295 L 169 294 L 161 294 Q 159 292 155 293 L 154 292 L 149 292 L 148 291 L 141 291 Z M 360 302 Q 357 304 358 310 L 363 313 L 365 313 L 368 315 L 377 318 L 384 319 L 385 320 L 390 320 L 391 321 L 396 321 L 397 322 L 403 322 L 404 323 L 413 323 L 414 324 L 423 324 L 424 323 L 449 323 Q 450 321 455 322 L 456 321 L 463 320 L 469 317 L 473 313 Q 476 312 478 314 L 480 313 L 480 306 L 477 306 L 474 308 L 468 309 L 467 310 L 464 310 L 460 314 L 457 315 L 451 315 L 450 316 L 435 316 L 434 317 L 429 316 L 428 315 L 427 313 L 421 313 L 420 312 L 406 312 L 405 311 L 397 311 L 396 310 L 384 309 L 383 308 L 376 307 L 367 304 L 364 302 L 360 302 Z M 140 306 L 138 309 L 139 315 L 146 318 L 154 319 L 155 320 Q 159 319 161 321 L 169 321 L 170 322 L 187 322 L 188 323 L 213 323 L 214 322 L 220 322 L 221 321 L 229 321 L 230 320 L 235 320 L 236 319 L 240 319 L 246 317 L 250 314 Q 251 307 249 306 L 244 308 L 236 309 L 228 315 Q 224 314 224 316 L 218 316 L 217 317 L 208 317 Q 207 315 203 316 L 200 313 L 189 313 L 188 312 L 173 312 L 172 311 L 165 311 L 164 310 L 156 309 L 155 308 L 151 308 L 146 306 L 140 306 Z M 359 318 L 358 326 L 359 328 L 361 329 L 363 329 L 375 335 L 382 336 L 383 337 L 387 337 L 388 338 L 394 338 L 395 339 L 410 340 L 411 341 L 426 341 L 427 340 L 437 340 L 438 339 L 453 339 L 454 338 L 462 338 Q 463 336 468 337 L 474 334 L 476 334 L 479 330 Q 480 323 477 322 L 469 325 L 463 326 L 462 331 L 459 332 L 455 332 L 454 333 L 450 333 L 449 334 L 443 334 L 442 335 L 434 335 Q 433 333 430 334 L 427 332 L 431 331 L 429 329 L 412 329 L 411 328 L 402 328 L 401 327 L 395 327 L 394 326 L 390 326 L 389 325 L 385 325 L 380 323 L 377 323 L 364 318 L 359 318 Z M 140 321 L 138 323 L 138 330 L 156 335 L 161 338 L 172 339 L 173 340 L 216 340 L 225 337 L 228 337 L 229 336 L 232 336 L 242 332 L 245 332 L 249 330 L 249 322 L 248 323 L 244 323 L 243 324 L 235 325 L 233 328 L 229 330 L 220 331 L 219 332 L 204 332 L 202 331 L 201 330 L 199 328 L 178 328 L 177 327 L 168 327 L 167 326 L 161 326 L 160 325 L 150 324 L 149 323 L 146 323 L 140 321 Z M 362 335 L 359 340 L 360 344 L 364 346 L 371 348 L 381 353 L 389 354 L 390 355 L 399 355 L 404 357 L 405 356 L 433 356 L 434 355 L 453 355 L 454 354 L 458 354 L 459 353 L 463 353 L 464 352 L 472 351 L 473 350 L 477 350 L 479 348 Q 480 342 477 340 L 465 343 L 458 348 Q 453 347 453 349 L 443 349 L 442 350 L 431 350 L 428 347 L 425 346 L 408 346 L 407 345 L 393 344 L 392 343 L 383 342 L 375 339 L 372 339 Q 368 336 362 335 Z M 140 336 Q 137 338 138 345 L 142 347 L 148 349 L 156 350 L 157 351 L 172 354 L 173 355 L 194 355 L 195 356 L 205 356 L 211 354 L 218 354 L 224 352 L 228 352 L 229 351 L 232 351 L 241 348 L 246 345 L 248 345 L 250 341 L 249 337 L 245 337 L 235 341 L 233 344 L 230 346 L 223 347 L 222 348 L 215 348 L 214 349 L 202 349 L 200 347 L 190 346 L 189 345 L 169 345 L 168 344 L 164 344 L 163 343 L 160 343 L 151 340 L 143 336 L 140 336 Z M 248 351 L 235 356 L 234 358 L 232 360 L 229 361 L 219 362 L 218 363 L 211 363 L 210 364 L 203 364 L 197 361 L 185 361 L 184 360 L 174 360 Q 172 358 168 359 L 167 358 L 163 358 L 158 356 L 154 356 L 147 353 L 141 352 Q 137 354 138 361 L 140 362 L 143 362 L 152 366 L 156 366 L 161 368 L 165 368 L 166 369 L 178 370 L 179 371 L 206 371 L 207 370 L 216 370 L 217 369 L 227 368 L 233 366 L 240 362 L 243 362 L 247 360 L 250 356 L 250 353 L 248 351 Z M 361 353 Q 359 357 361 360 L 368 364 L 374 366 L 377 366 L 378 367 L 381 367 L 382 368 Q 386 367 388 369 L 399 369 L 400 370 L 409 370 L 414 372 L 417 371 L 431 371 Q 432 369 437 370 L 438 369 L 459 369 L 460 368 L 465 368 L 466 367 L 474 366 L 478 364 Q 479 359 477 357 L 474 355 L 465 358 L 464 361 L 463 362 L 459 362 L 453 365 Q 448 364 447 366 L 429 366 L 422 362 L 397 361 L 396 360 L 392 360 L 391 359 L 383 358 L 382 357 L 374 356 L 368 353 L 361 353 Z M 141 368 Q 137 370 138 377 L 142 377 L 151 381 L 160 382 L 161 383 L 175 384 L 176 385 L 184 385 L 185 386 L 191 386 L 196 388 L 202 388 L 203 387 L 211 387 L 212 386 L 225 385 L 226 384 L 230 384 L 231 383 L 239 382 L 244 379 L 249 379 L 249 371 L 247 368 L 235 370 Q 232 371 232 375 L 229 376 L 225 376 L 224 377 L 220 377 L 219 378 L 214 378 L 213 379 L 201 379 L 195 376 L 177 376 L 176 375 L 171 375 L 165 373 L 161 373 L 160 372 L 156 372 L 155 371 L 152 371 L 151 370 L 141 368 Z M 362 368 L 360 370 L 360 374 L 363 380 L 366 382 L 373 383 L 374 384 L 378 384 L 379 385 L 392 386 L 393 387 L 406 387 L 407 388 L 437 388 L 438 387 L 457 386 L 458 385 L 468 384 L 469 383 L 474 383 L 478 378 Q 479 373 477 372 L 473 372 L 468 374 L 463 374 L 456 378 Q 452 377 452 379 L 445 379 L 444 380 L 430 380 L 427 379 L 426 378 L 420 377 L 419 376 L 406 376 L 405 375 L 388 374 L 382 372 L 378 372 L 377 371 L 373 371 L 366 368 L 362 368 Z M 141 384 Q 138 385 139 390 L 145 395 L 156 400 L 162 401 L 166 403 L 170 403 L 171 404 L 184 404 L 185 405 L 195 405 L 196 404 L 213 404 Q 213 402 218 403 L 221 401 L 227 399 L 230 399 L 231 398 L 234 398 L 249 392 L 250 390 Q 251 387 249 386 L 245 386 L 244 387 L 234 389 L 225 394 L 213 395 L 212 396 L 202 396 L 197 393 Q 193 394 193 392 L 177 391 L 176 390 L 169 390 L 168 389 L 163 389 L 162 388 L 157 388 L 152 386 L 149 386 L 145 384 L 141 384 Z M 362 386 L 360 388 L 362 394 Q 365 397 370 399 L 373 399 L 381 402 L 385 402 L 386 403 L 399 404 L 400 405 L 410 405 L 411 406 L 430 406 L 431 407 Q 435 408 437 406 L 446 406 L 447 405 L 461 405 L 462 404 L 468 403 L 473 400 L 475 400 L 478 396 Q 479 391 477 389 L 474 390 L 467 390 L 462 392 L 459 395 Q 455 394 455 396 Q 450 395 449 397 L 440 397 L 435 399 L 430 398 L 427 395 L 393 393 L 392 392 L 386 392 L 385 391 L 377 390 L 366 386 L 362 386 Z M 245 399 Q 241 402 236 403 L 230 408 L 224 408 L 220 410 Q 216 409 216 411 L 210 411 L 209 412 L 203 412 L 199 410 L 190 410 L 189 409 L 174 409 L 173 408 L 167 408 L 143 400 L 138 401 L 141 409 L 143 410 L 145 410 L 148 412 L 150 412 L 153 414 L 162 417 L 173 418 L 174 419 L 180 419 L 181 420 L 212 420 L 213 419 L 218 419 L 219 418 L 225 418 L 226 417 L 235 416 L 247 410 L 252 404 L 251 401 Q 250 398 245 399 Z M 361 401 L 359 403 L 359 409 L 361 413 L 365 415 L 371 417 L 378 418 L 379 419 L 383 419 L 392 422 L 402 422 L 403 423 L 450 423 L 451 422 L 462 421 L 463 420 L 470 420 L 475 417 L 477 417 L 478 415 Q 479 410 477 408 L 475 406 L 469 407 L 463 410 L 460 413 L 455 415 Q 450 414 449 416 L 434 416 L 431 417 L 428 414 L 427 412 L 418 412 L 417 411 L 405 411 L 404 410 L 387 409 L 381 407 L 377 407 L 366 402 L 361 401 Z M 140 416 L 139 425 L 142 427 L 151 430 L 159 431 L 160 432 L 165 432 L 166 433 L 171 433 L 172 434 L 177 434 L 178 435 L 211 435 L 212 434 L 218 434 L 224 432 L 228 432 L 229 431 L 233 431 L 234 430 L 243 429 L 247 426 L 249 426 L 251 424 Q 252 417 250 416 L 235 421 L 234 423 L 232 425 L 227 427 L 216 428 L 215 429 L 203 429 L 199 426 L 183 426 L 182 425 L 169 424 L 163 422 L 159 422 L 147 418 L 144 416 L 140 416 Z M 362 419 Q 357 421 359 429 L 364 432 L 374 434 L 381 437 Q 385 436 387 438 L 396 438 L 397 439 L 407 439 Q 408 441 413 440 L 414 441 L 417 440 L 439 440 L 440 439 L 454 439 L 455 438 L 463 438 L 464 437 L 468 437 L 469 436 L 475 435 L 478 433 L 478 426 L 477 424 L 461 428 L 457 431 L 450 432 L 449 433 L 443 433 L 442 434 L 432 434 L 429 433 L 428 430 L 404 429 L 403 428 L 394 428 L 386 425 L 382 425 L 373 422 L 370 422 L 366 419 L 362 419 Z M 140 432 Q 137 433 138 439 L 142 442 L 149 445 L 163 447 L 168 449 L 182 450 L 183 451 L 186 450 L 209 450 L 210 449 L 221 449 L 222 450 L 226 448 L 233 447 L 249 440 L 252 436 L 248 433 L 235 436 L 227 441 L 218 442 L 217 443 L 201 443 L 198 441 L 172 439 L 171 438 L 166 438 L 165 437 L 157 436 L 156 435 L 152 435 L 144 432 L 140 432 Z M 362 436 L 359 441 L 359 446 L 363 449 L 372 452 L 380 453 L 381 454 L 386 454 L 395 457 L 399 457 L 400 458 L 410 458 L 411 459 L 434 459 L 435 458 L 458 457 L 459 456 L 462 456 L 463 455 L 473 453 L 478 449 L 478 442 L 473 442 L 468 444 L 464 444 L 459 448 L 454 450 Q 449 449 448 451 L 440 451 L 439 452 Q 431 453 428 451 L 429 448 L 425 447 L 424 446 L 409 446 L 408 445 L 399 445 L 398 444 L 385 443 L 376 440 L 373 440 L 366 437 L 363 437 L 362 436 Z M 140 448 L 138 450 L 138 457 L 143 459 L 153 461 L 167 466 Q 171 465 173 467 L 183 467 L 184 468 L 192 468 L 193 469 L 202 469 L 203 468 L 209 468 L 210 467 L 220 466 L 225 464 L 229 464 L 234 462 L 237 462 L 243 459 L 248 458 L 251 454 Q 252 449 250 448 L 235 451 L 232 454 L 225 457 L 215 458 L 214 459 L 203 459 L 202 460 L 197 456 L 178 456 L 177 455 L 169 455 L 163 453 L 159 453 L 144 448 L 140 448 Z M 361 455 Q 359 461 361 464 L 366 467 L 373 468 L 380 471 L 388 472 L 389 473 L 394 473 L 395 474 L 403 474 L 404 475 L 434 475 L 435 474 L 441 474 L 442 475 L 449 474 L 450 473 L 456 473 L 457 472 L 467 471 L 476 467 L 478 464 L 478 459 L 468 460 L 462 462 L 459 466 L 456 468 L 448 468 L 447 469 L 431 469 L 429 468 Q 426 467 427 465 L 408 464 L 407 463 L 392 462 L 386 460 L 382 460 L 381 459 L 377 459 L 366 455 L 361 455 Z M 248 464 L 242 467 L 233 468 L 232 472 L 229 474 L 215 476 L 214 477 L 202 477 L 199 474 L 187 474 L 186 473 L 175 473 L 174 472 L 168 472 L 167 471 L 163 471 L 154 468 L 151 468 L 145 465 Q 140 464 139 467 L 139 472 L 141 475 L 143 476 L 149 477 L 163 482 L 172 483 L 173 484 L 178 484 L 179 485 L 187 485 L 188 486 L 205 486 L 206 485 L 217 484 L 218 483 L 225 483 L 226 482 L 230 482 L 239 479 L 249 474 L 251 471 L 250 466 L 248 464 Z M 361 470 L 359 473 L 360 479 L 370 485 L 388 491 Q 392 490 394 492 L 404 492 L 405 493 L 418 493 L 419 494 L 420 493 L 437 493 L 438 492 L 446 492 L 447 491 L 460 490 L 461 489 L 465 489 L 471 487 L 478 483 L 480 480 Q 481 475 479 474 L 476 474 L 470 477 L 466 477 L 460 481 L 461 483 L 457 485 Q 453 484 453 486 L 447 486 L 446 487 L 427 487 L 426 483 L 420 482 L 419 481 L 404 481 L 403 480 L 390 479 L 389 478 L 385 478 L 380 476 L 377 476 L 368 473 L 363 470 L 361 470 Z M 139 481 L 138 489 L 141 491 L 149 495 L 161 499 L 172 500 L 173 501 L 184 501 L 185 502 L 199 502 L 200 503 L 202 502 L 212 502 L 213 501 L 220 501 Q 220 499 225 500 L 234 497 L 238 497 L 247 493 L 250 490 L 251 487 Q 252 482 249 481 L 241 485 L 236 486 L 234 489 L 231 491 L 228 491 L 220 494 L 203 494 L 199 491 L 183 491 L 182 490 L 175 490 L 174 489 L 169 489 L 160 486 L 157 486 L 144 481 L 139 481 Z M 361 487 L 359 489 L 360 494 L 366 498 L 382 505 L 388 507 L 391 507 L 392 508 L 398 508 L 402 510 L 409 510 L 410 511 L 418 511 L 419 510 L 440 510 L 441 509 L 448 509 L 457 506 L 460 506 L 461 505 L 464 505 L 474 501 Q 478 498 480 493 L 479 490 L 469 494 L 458 495 L 457 496 L 452 496 L 451 497 L 445 497 L 444 498 L 439 498 Q 437 499 440 500 L 448 500 Q 448 498 453 499 L 456 497 L 460 497 L 461 500 L 453 503 L 444 504 L 440 507 L 436 507 L 433 505 L 428 504 L 427 502 Q 428 500 431 500 L 431 499 L 404 498 L 403 497 L 396 497 L 395 496 L 391 496 L 390 495 L 382 494 L 364 487 L 361 487 Z M 139 497 Q 136 500 137 507 L 140 509 L 149 513 L 155 514 L 156 515 L 162 515 L 163 516 L 199 516 L 200 515 L 220 515 L 221 514 L 227 514 L 228 513 L 232 513 L 237 511 L 240 511 L 248 508 L 251 504 L 251 499 L 245 500 L 241 502 L 238 502 L 237 503 L 234 503 Q 231 504 233 506 L 230 509 L 225 509 L 219 511 L 201 511 L 198 508 L 189 508 L 188 507 L 176 507 L 175 506 L 163 505 L 139 497 Z M 363 503 L 361 505 L 362 510 L 368 515 L 370 515 L 379 520 L 385 522 L 388 522 L 396 525 L 405 525 L 406 526 L 418 526 L 419 527 L 430 527 L 431 526 L 440 526 L 441 525 L 450 525 L 453 523 L 464 521 L 476 514 L 478 511 L 478 506 L 457 513 L 453 513 L 452 514 L 447 514 L 446 515 L 438 516 L 438 517 L 449 516 L 450 515 L 455 515 L 456 514 L 460 515 L 458 517 L 455 518 Q 451 517 451 519 L 443 519 L 442 520 L 432 520 L 430 519 L 429 518 L 432 517 L 407 516 L 406 515 L 393 514 L 392 513 L 385 512 L 384 511 L 380 511 L 374 509 L 365 503 L 363 503 Z M 248 513 L 243 516 L 240 516 L 235 518 L 228 523 Q 223 522 222 524 L 214 524 L 213 525 L 199 525 L 200 523 L 180 522 L 179 521 L 162 521 L 161 520 L 153 519 L 141 515 L 140 523 L 143 525 L 155 529 L 162 530 L 163 531 L 176 531 L 177 532 L 193 532 L 194 531 L 205 531 L 206 530 L 222 529 L 223 528 L 228 528 L 229 527 L 237 526 L 248 522 L 252 518 L 252 515 L 248 513 Z M 361 516 L 359 518 Q 358 522 360 524 L 363 526 L 378 535 L 390 539 Q 393 538 395 540 L 402 540 L 403 541 L 440 541 L 441 540 L 446 540 L 454 537 L 461 536 L 468 533 L 472 530 L 475 530 L 479 525 Q 480 521 478 520 L 464 527 L 460 527 L 455 529 L 446 530 L 445 531 L 440 531 L 439 532 L 410 532 L 409 531 L 396 530 L 395 529 L 388 528 L 376 524 L 367 519 L 365 519 L 361 516 Z M 353 526 L 343 530 L 338 537 Q 338 540 340 541 L 340 544 L 337 546 Q 334 544 333 541 L 331 539 L 325 548 L 325 554 L 324 555 Q 326 557 325 562 L 327 566 L 333 570 L 335 568 L 335 557 Q 337 556 336 553 L 339 550 L 349 552 L 353 556 L 352 560 L 349 564 L 349 568 L 354 576 L 358 578 L 358 571 L 360 566 Q 363 562 368 560 L 373 560 L 376 561 Q 378 562 377 568 L 374 569 L 371 573 Q 370 577 372 580 L 375 582 Q 380 583 384 586 Q 388 585 390 587 L 399 587 L 400 588 L 414 588 L 415 587 L 423 586 L 424 585 L 417 584 L 416 583 L 408 583 L 407 582 L 401 581 L 397 578 L 398 577 L 401 577 L 405 579 L 417 579 L 418 578 L 427 578 L 428 577 L 427 575 L 419 575 L 418 574 L 409 574 Q 408 572 404 573 L 399 570 L 448 569 L 449 568 L 459 568 L 460 567 L 467 566 L 471 562 L 474 562 L 474 560 L 464 560 L 463 561 L 439 561 L 438 562 L 411 562 L 410 561 L 397 560 L 396 559 L 393 559 L 392 558 L 389 558 L 388 557 L 385 557 L 379 555 L 361 546 L 355 540 L 355 529 L 356 528 Q 356 526 353 526 Z M 247 528 L 244 530 L 236 531 L 234 534 L 230 536 L 223 537 L 222 538 L 215 538 L 214 539 L 203 539 L 200 537 L 182 537 L 181 536 L 166 536 L 165 535 L 159 535 L 154 533 L 151 533 L 142 529 L 138 529 L 136 532 L 137 537 L 141 539 L 153 543 L 163 544 L 164 545 L 170 545 L 171 546 L 183 546 L 184 547 L 199 547 L 200 546 L 210 546 L 211 545 L 217 545 L 218 544 L 222 544 L 223 543 L 231 542 L 232 541 L 238 541 L 248 536 L 251 531 L 251 529 L 247 528 Z M 477 533 L 470 539 L 471 540 L 477 539 L 479 536 L 479 534 L 477 533 Z M 118 535 L 117 536 Q 112 535 111 537 L 110 541 Q 105 542 104 539 L 99 539 L 94 546 L 94 558 L 97 565 L 101 567 L 102 568 L 101 566 L 101 555 L 104 548 L 110 543 L 116 545 L 123 551 L 120 560 L 120 563 L 122 569 L 124 570 L 125 563 L 127 559 L 132 554 L 134 555 L 134 558 L 132 560 Q 133 563 131 564 L 131 567 L 133 572 L 137 574 L 148 575 L 149 576 L 168 576 L 168 575 L 160 573 L 152 570 Q 149 569 152 567 L 164 568 L 165 569 L 172 569 L 166 565 L 161 565 L 160 564 L 154 563 L 150 561 L 152 558 L 155 559 L 160 559 L 161 560 L 167 560 L 168 561 L 203 561 L 204 560 L 216 560 L 217 559 L 225 559 L 226 558 L 232 558 L 233 557 L 241 557 Q 242 555 247 556 L 248 555 L 259 553 L 260 552 L 264 552 L 266 555 L 266 568 L 258 575 L 259 576 L 263 576 L 272 571 Q 278 567 281 559 L 281 553 L 279 548 L 279 545 L 277 539 L 274 535 L 270 535 L 254 544 L 249 545 L 240 549 L 230 550 L 224 552 L 220 552 L 219 553 L 197 553 L 196 554 Q 191 555 191 553 L 178 553 L 177 552 L 171 552 L 165 550 L 156 549 L 155 548 L 151 548 L 140 544 L 136 544 Q 132 542 132 538 L 130 535 L 118 535 Z M 501 561 L 500 567 L 499 568 L 499 574 L 496 580 L 499 580 L 508 568 L 508 564 L 504 561 L 501 561 Z M 169 607 L 167 608 L 166 621 L 174 624 L 181 624 L 180 623 L 181 622 L 181 610 L 178 607 L 169 607 Z M 186 608 L 185 622 Q 183 622 184 626 L 192 626 L 193 625 L 193 610 Q 191 607 186 608 Z M 157 609 Q 154 615 159 617 L 159 612 L 160 611 Q 160 609 157 609 Z M 402 612 L 399 613 L 397 615 L 397 629 L 396 630 L 397 632 L 408 635 L 413 635 L 414 634 L 414 613 L 402 612 Z M 419 612 L 418 633 L 420 635 L 425 633 L 425 625 L 426 624 L 426 615 Q 424 611 419 612 Z M 391 615 L 388 618 L 388 627 L 390 628 L 392 624 L 392 617 L 391 615 Z " /><path fill="rgb(0,0,0)" stroke="rgb(0,0,0)" stroke-width="1" opacity="0.9647058823529412" d="M 576.5 490 L 578 492.5 L 576.5 493 L 576.5 490 Z " /><path fill="rgb(0,0,0)" stroke="rgb(0,0,0)" stroke-width="1" opacity="0.00784313725490196" d="M 0.5 0 L 301 0.5 L 290.5 1 L 289.5 2 L 283.5 2 L 282.5 3 L 269.5 4 L 268.5 5 L 265.5 5 L 244.5 12 L 236.5 16 L 234.5 16 L 212.5 28 Q 209.7 32.2 204.5 34 L 192 46.5 L 179 67.5 L 175 71.5 L 168 84.5 L 161 105.5 L 161 108.5 L 158 117.5 L 158 122.5 L 156.5 125 L 148.5 126 L 147.5 127 L 143.5 127 L 142.5 128 L 138.5 128 L 137.5 129 L 132.5 129 L 131.5 130 L 121.5 131 L 109.5 135 L 102 141.5 L 96 153.5 Q 96.8 156.8 95 157.5 L 95 163.5 L 99 174.5 L 105 183.5 L 109.5 188 L 118.5 192 L 122.5 192 L 131 195.5 L 130 200.5 L 133 206.5 L 133 211.5 L 132 212.5 L 132 224.5 Q 133.8 225.3 133 228.5 L 132 229.5 L 132 235.5 L 133 236.5 L 133 250.5 L 136 254.5 L 136 256.5 L 134 258.5 L 133 266.5 L 135 271.5 L 133 275.5 L 133 284.5 L 135 288.5 L 135 291.5 L 134 292.5 L 134 300.5 Q 135.8 301.3 135 304.5 L 134 305.5 L 133 312.5 L 135 318.5 L 133 322.5 L 133 329.5 L 134 330.5 L 134 337.5 L 133 338.5 L 133 362.5 Q 135.3 363.7 134 368.5 L 133 369.5 L 133 379.5 Q 135 380.5 134 384.5 Q 132 385.5 133 389.5 L 134 390.5 L 134 396.5 Q 131.7 397.7 133 402.5 L 136 409.5 L 134 412.5 L 134 424.5 Q 136 425.5 135 429.5 L 133 433.5 L 133 440.5 Q 135.3 441.7 134 446.5 L 133 447.5 L 133 459.5 L 135 462.5 L 134 463.5 L 133 469.5 L 135 475.5 L 133 478.5 L 132 487.5 L 133 488.5 L 134 494.5 L 132 498.5 L 132 506.5 Q 134.3 507.7 131.5 509 L 122.5 509 L 121.5 510 L 114.5 510 L 113.5 511 L 100.5 512 L 99.5 513 L 95.5 513 L 94.5 514 L 90.5 514 L 85.5 516 L 77.5 517 L 60.5 524 Q 52.7 528.7 47 535.5 L 42.5 542 L 34.5 547 L 27.5 548 L 26.5 549 L 21.5 549 L 20.5 548 L 6.5 548 L 3 550.5 Q 2.5 553.5 4.5 554 Q 8.5 555 9.5 553 L 32.5 553 Q 34.5 550 40.5 551 L 51 541.5 Q 53.7 535.7 58.5 532 L 66.5 527 L 79.5 521 L 82.5 521 L 87.5 519 L 91.5 519 L 92.5 518 L 96.5 518 L 97.5 517 L 103.5 517 L 104.5 516 L 112.5 516 L 113.5 515 L 130.5 514 Q 133.8 515.7 133 521.5 L 108.5 522 L 107.5 523 L 100.5 523 L 99.5 524 L 88.5 525 L 83.5 527 L 78.5 527 L 67.5 533 L 53 547.5 L 51.5 550 L 43.5 555 L 37.5 557 L 33.5 557 L 32.5 558 L 17.5 558 L 16.5 559 L 1.5 559 L 0.5 560 L 0.5 0 Z " /><path fill="rgb(0,0,0)" stroke="rgb(0,0,0)" stroke-width="1" opacity="0.00784313725490196" d="M 319.5 0 L 578 0.5 L 577.5 492 L 576.5 490 L 576 492.5 L 578 493.5 L 577.5 640 L 422 639.5 L 428.5 639 L 432.5 637 L 439.5 636 L 448.5 631 L 453.5 630 L 456 627.5 L 456 605.5 L 457.5 601 L 469.5 600 L 470.5 599 L 473.5 599 L 482.5 596 L 500.5 586 L 511 575.5 L 514 568.5 L 514 560.5 Q 516 559.5 515 555.5 L 517.5 553 L 522.5 553 L 523.5 552 L 527.5 552 L 528.5 551 L 532.5 551 L 536.5 549 L 539.5 549 L 553.5 543 L 560 538.5 L 560 536.5 L 564 532.5 L 567 526.5 L 567 505.5 L 566 502.5 L 571 498.5 L 574 494.5 L 574 489.5 Q 573 487 568.5 488 L 561 494.5 L 559 499.5 L 559 514.5 L 560 515.5 L 560 521.5 L 555 532.5 L 546.5 541 L 542.5 543 L 537.5 543 L 524.5 548 L 517.5 548 L 516.5 549 L 507.5 550 L 501.5 552 L 486.5 553 L 485.5 554 L 476.5 554 L 475.5 555 L 467.5 555 L 466.5 556 L 456.5 556 L 455.5 557 L 443.5 557 L 442.5 558 L 436.5 558 L 435.5 557 L 408.5 556 L 407.5 555 L 399.5 555 L 398.5 554 L 387.5 553 L 384.5 551 L 373.5 548 L 363.5 543 L 361 540.5 L 359 536.5 L 359 529.5 L 360.5 529 L 366.5 534 L 382.5 542 L 385.5 542 L 390.5 544 Q 394.5 543 395.5 545 L 403.5 545 L 404.5 546 Q 408.5 545 409.5 547 L 417.5 547 L 418.5 548 L 450.5 548 L 455.5 546 L 475.5 546 L 476.5 545 L 497.5 544 L 503.5 542 L 531.5 542 L 543.5 537 L 549 532.5 L 555 522.5 L 555 496.5 L 562.5 488 L 565.5 486 L 570.5 485 L 573 482.5 L 572.5 479 L 565.5 480 L 556 486.5 L 549 497.5 L 548 500.5 L 548 507.5 L 550 511.5 L 550 515.5 Q 547.8 516.8 549 521.5 L 544.5 527 L 538.5 530 L 532.5 532 L 529.5 532 L 528.5 533 L 525.5 533 L 524.5 534 L 521.5 534 L 520.5 535 L 507.5 536 L 498.5 528 L 484 521.5 L 482 516.5 L 482 513.5 L 483 512.5 L 483 494.5 L 484 493.5 L 484 487.5 L 482 484.5 L 484 481.5 L 484 470.5 Q 481.4 469.1 482 464.5 L 483 463.5 L 483 451.5 L 484 450.5 Q 483.3 446.3 485 444.5 Q 483.3 443.8 484 440.5 L 482 438.5 L 482 434.5 L 483 433.5 L 483 422.5 L 481 418.5 L 483 416.5 L 483 407.5 Q 480.8 406.3 482 401.5 L 484 397.5 L 484 389.5 L 482 385.5 L 483 384.5 L 484 374.5 L 480 366.5 L 482 364.5 L 483 357.5 Q 481 356.5 482 352.5 L 484 348.5 L 484 340.5 L 482 334.5 L 485 328.5 L 485 319.5 Q 483.3 318.8 484 315.5 L 485 314.5 L 485 305.5 Q 483.3 304.8 484 301.5 L 486 298.5 L 486 268.5 L 485 267.5 L 485 254.5 L 483 250.5 L 485 247.5 L 485 241.5 L 486 240.5 L 485 239.5 L 484 230.5 Q 487.4 227.9 486 220.5 L 484 215.5 L 485 214.5 L 485.5 204 L 496.5 200 L 511 186.5 L 516 174.5 L 516 161.5 L 513 152.5 L 506.5 145 L 503.5 143 L 498.5 142 L 496.5 140 L 487.5 136 L 469.5 130 L 462.5 129 L 459.5 130 L 458 122.5 L 457 121.5 L 457 118.5 L 454 112.5 L 453 106.5 L 450 99.5 L 449 92.5 L 444 81.5 L 444 79.5 L 440 74.5 L 432 58.5 L 412.5 38 Q 396.3 22.2 374.5 12 L 369.5 11 L 361.5 7 L 352.5 4 L 349.5 4 L 348.5 3 L 342.5 3 L 341.5 2 L 331.5 2 L 330.5 1 L 319.5 1 L 319.5 0 Z " /><path fill="rgb(0,0,0)" stroke="rgb(0,0,0)" stroke-width="1" opacity="0.00784313725490196" d="M 302.5 6 L 326.5 6 L 327.5 7 L 334.5 7 L 335.5 8 L 340.5 8 L 341.5 9 L 344.5 9 L 345.5 10 L 348.5 10 L 349.5 11 L 352.5 11 L 353.5 12 L 356.5 12 L 362.5 14 L 388.5 26 L 401.5 35 L 415 48.5 L 425 60.5 L 432 71.5 L 444 97.5 L 446 103.5 L 446 106.5 L 447 107.5 L 447 110.5 L 448 111.5 L 448 114.5 L 451 122.5 L 452 131.5 L 453 132.5 L 454 149.5 L 447.5 153 L 445.5 153 L 445 142.5 L 444 141.5 L 443 131.5 L 442 130.5 L 440 119.5 L 437 112.5 L 437 109.5 L 430 88.5 L 428 86.5 L 423 74.5 L 416 63.5 L 406 49.5 L 395.5 39 L 375.5 26 L 362.5 20 L 356.5 18 L 353.5 18 L 349.5 16 L 346.5 16 L 342.5 14 L 338.5 14 L 337.5 13 L 320.5 12 L 320 13.5 L 334.5 16 L 337.5 18 L 348.5 21 L 355.5 25 L 360.5 26 L 366.5 29 L 374 35.5 L 373.5 38 L 348.5 28 L 345.5 28 L 340.5 26 L 336.5 26 L 335.5 25 L 330.5 25 L 329.5 24 L 322.5 24 Q 321.5 22 317.5 23 L 317 24.5 L 319.5 26 L 322.5 26 L 323.5 27 L 338.5 30 L 342.5 33 L 350.5 35 L 364.5 42 L 369 45.5 Q 367.8 48.3 362.5 47 L 353.5 42 L 338.5 37 L 335.5 37 L 334.5 36 Q 330.5 37 329.5 35 L 319.5 35 L 318.5 34 L 301.5 34 L 300.5 35 L 293.5 35 L 290.5 37 L 283.5 38 L 270.5 43 L 267.5 43 L 266.5 44 L 263.5 44 L 257.5 46 L 254 44.5 L 252 40.5 L 252 36.5 L 254 31.5 L 258.5 26 Q 262.7 22.2 269.5 21 L 272 18.5 L 270.5 18 L 269.5 19 L 265.5 19 L 264.5 20 L 254.5 22 L 241.5 30 L 230.5 35 L 215.5 46 L 203 58.5 L 201 63.5 L 191 75.5 L 190 79.5 L 188 81.5 L 187 86.5 L 179 100.5 L 175 112.5 L 175 115.5 L 173 119.5 L 173 132.5 L 172 133.5 L 172 137.5 L 170.5 142 Q 166.4 142.6 165 140.5 L 165 131.5 Q 162.8 130.2 164 125.5 L 165 124.5 L 166 115.5 L 169 108.5 L 169 105.5 L 170 104.5 L 170 101.5 L 173 92.5 L 181 76.5 L 183 74.5 L 188 64.5 L 198 50.5 L 209.5 39 L 224.5 28 L 232.5 24 L 234.5 24 L 251.5 15 L 257.5 14 L 265.5 11 L 276.5 11 L 285.5 8 L 291.5 8 L 292.5 7 L 301.5 7 L 302.5 6 Z " /><path fill="rgb(0,0,0)" stroke="rgb(0,0,0)" stroke-width="1" opacity="0.00784313725490196" d="M 384.5 39 L 393 46.5 L 396 50.5 Q 394 51.5 395 55.5 L 393.5 57 L 388.5 53 L 385.5 53 Q 383.5 53.5 384 56.5 L 389 62.5 L 389 64.5 Q 387.3 67.8 382.5 68 L 375 61.5 L 374 54.5 L 384.5 39 Z " /><path fill="rgb(0,0,0)" stroke="rgb(0,0,0)" stroke-width="1" opacity="0.00784313725490196" d="M 233.5 40 L 233 41.5 Q 230.7 44.7 232 51.5 L 235.5 56 L 243 60.5 L 236.5 65 L 233.5 66 L 226.5 66 L 222 62.5 Q 219.8 59.7 221 53.5 L 223 49.5 L 231.5 41 L 233.5 40 Z " /><path fill="rgb(0,0,0)" stroke="rgb(0,0,0)" stroke-width="1" opacity="0.00784313725490196" d="M 291.5 63 L 298.5 64 L 299.5 65 L 314 65.5 L 311.5 67 L 296.5 67 Q 295.3 69.2 290.5 68 L 289.5 69 L 285.5 69 L 284.5 70 L 281.5 70 L 269.5 74 L 256.5 81 L 250 87.5 L 247.5 92 L 241 97.5 L 236 105.5 L 231 116.5 Q 231.8 119.8 230 120.5 L 230 130.5 L 226.5 141 L 225 139.5 L 225 125.5 L 228 120.5 Q 227.4 115.9 230 114.5 L 230 110.5 L 235 99.5 Q 241.3 88.8 250.5 81 L 257.5 76 L 259.5 76 L 265.5 72 Q 272.3 70.8 276.5 67 L 282.5 65 L 285.5 65 L 286.5 64 L 290.5 64 L 291.5 63 Z " /><path fill="rgb(0,0,0)" stroke="rgb(0,0,0)" stroke-width="1" opacity="0.00784313725490196" d="M 300.5 73 L 316.5 73 L 327.5 77 L 334.5 78 L 356.5 94 L 365 102.5 L 371 111.5 L 378 128.5 L 376.5 130 L 372.5 130 L 371.5 131 L 365.5 132 L 348.5 140 Q 340.5 144.5 335 151.5 L 333 154.5 L 330 163.5 L 330 174.5 L 333 182.5 L 337.5 187 L 346 191.5 L 345.5 193 L 344.5 192 L 339.5 192 L 338.5 191 L 334.5 191 L 329.5 189 L 325.5 189 L 320.5 187 L 316.5 187 L 311.5 185 L 307.5 185 L 306.5 184 L 299.5 183 L 285 177.5 L 288 170.5 L 288 162.5 Q 290 161.5 289 157.5 L 286 148.5 L 276.5 138 L 262.5 131 L 237 123.5 L 239 116.5 L 241 113.5 L 241 110.5 L 250 95.5 L 253.5 92 L 261 87.5 L 262.5 85 L 269.5 81 L 271.5 81 L 280.5 77 L 283.5 77 L 288.5 75 L 293.5 75 L 294.5 74 L 299.5 74 L 300.5 73 Z " /><path fill="rgb(0,0,0)" stroke="rgb(0,0,0)" stroke-width="1" opacity="0.00784313725490196" d="M 151.5 131 L 157 132.5 Q 158.8 134.7 158 139.5 L 164.5 148 L 172.5 152 L 183.5 153 L 184.5 154 L 209.5 154 L 210.5 153 L 217.5 153 L 218.5 152 L 225.5 151 L 230.5 147 L 235.5 145 L 244.5 144 L 245.5 143 L 251.5 143 L 252.5 142 L 260.5 141 L 261.5 140 L 265.5 140 L 266.5 139 L 277 145.5 L 282 157.5 L 282 165.5 L 280 171.5 L 276 176.5 L 276 178.5 L 272.5 182 L 259.5 189 L 248.5 192 L 248.5 191 L 258.5 187 L 263 182.5 L 263.5 181 L 267 178.5 L 267 176.5 L 273 164.5 L 273.5 150 L 276 149.5 L 275.5 148 L 271.5 148 L 260.5 155 L 256.5 155 L 249.5 158 L 246.5 158 L 241.5 160 L 237.5 160 L 236.5 161 L 227.5 161 L 226.5 162 L 219.5 162 L 218.5 163 Q 213.8 161.7 212.5 164 L 191.5 164 L 190.5 165 L 166.5 165 L 165 166.5 L 167.5 169 L 170.5 170 L 178.5 170 L 179.5 171 L 187 171.5 Q 187.5 174.5 185.5 175 L 168.5 175 L 166 176.5 L 169.5 179 L 180.5 180 L 184 181.5 Q 184.5 184.5 182.5 185 L 170.5 185 L 169.5 184 L 162.5 184 L 161.5 183 L 153.5 183 L 152 181.5 Q 153.8 180.8 153 177.5 L 150 171.5 L 150 166.5 L 154 158.5 Q 153.3 156.3 149.5 157 L 145 160.5 L 141 167.5 L 140 172.5 L 141 175.5 L 145.5 180 L 148 181.5 L 145.5 182 L 139.5 180 L 135 175.5 L 133 171.5 L 133 161.5 L 136 152.5 L 129.5 149 L 126.5 146 L 124.5 146 Q 118.1 151.1 115 159.5 L 115 167.5 L 117 170.5 L 117 175.5 L 119 178.5 L 119 180.5 L 124.5 186 L 128 188.5 L 124.5 189 L 109 178.5 L 104 167.5 Q 104.8 164.3 103 163.5 L 103 154.5 L 104 153.5 L 105 147.5 L 110.5 142 L 120.5 137 L 123.5 137 L 127.5 135 Q 130.8 135.8 131.5 134 L 140.5 134 L 141.5 133 L 146.5 133 L 151.5 131 Z " /><path fill="rgb(0,0,0)" stroke="rgb(0,0,0)" stroke-width="1" opacity="0.00784313725490196" d="M 379.5 136 L 381 137.5 Q 380.3 140.8 382 141.5 L 383 150.5 L 385.5 154 L 403.5 160 L 411.5 160 L 412.5 161 L 438.5 161 L 457.5 154 L 469.5 152 L 480.5 148 L 484.5 148 L 489.5 146 L 496.5 146 L 506 154.5 L 510 165.5 L 510 173.5 Q 508.3 174.2 509 177.5 L 505 184.5 L 497.5 192 L 488.5 195 L 485.5 195 L 478.5 198 Q 477 197 479.5 196 L 482.5 195 L 488.5 190 L 490.5 190 L 497 183.5 L 501 174.5 L 502 153.5 L 499.5 153 L 494.5 158 L 483.5 163 L 480.5 163 L 476.5 165 L 472.5 165 L 466.5 167 L 460.5 167 L 459.5 168 L 454.5 168 L 453.5 169 L 447.5 169 L 446.5 170 L 437.5 170 L 436.5 171 L 403.5 171 L 399 173.5 L 399.5 175 L 407.5 176 L 408.5 177 L 414.5 177 L 415.5 178 L 428.5 178 L 431 179.5 L 429.5 181 Q 426.2 180.3 425.5 182 L 406.5 182 Q 405.3 179.8 400.5 181 L 398 182.5 L 400.5 185 L 403.5 186 L 412.5 187 L 413.5 188 L 421.5 188 L 423 189.5 L 416.5 193 L 409.5 194 L 408.5 193 L 402.5 193 L 401.5 192 L 394.5 192 Q 393.5 190 389.5 191 L 386 187.5 Q 383.8 184.7 385 178.5 Q 386.8 177.8 386 174.5 L 390 168.5 Q 388.8 165.8 383.5 167 L 378.5 169 L 373 174.5 L 372 180.5 L 375 185.5 L 375 187.5 L 372.5 188 L 366 182.5 L 364 178.5 L 364 171.5 Q 366.8 169.8 366 164.5 L 363.5 162 L 357.5 161 L 356.5 160 L 352.5 160 L 349 162.5 L 344 172.5 L 343.5 182 L 340 179.5 L 338 174.5 L 338 170.5 L 337 169.5 L 337 163.5 L 338 162.5 L 338 158.5 L 340 152.5 L 341.5 151 L 351.5 144 L 360.5 140 L 366.5 139 L 367.5 138 L 375.5 138 L 379.5 136 Z " /><path fill="rgb(0,0,0)" stroke="rgb(0,0,0)" stroke-width="1" opacity="0.00784313725490196" d="M 286.5 186 L 294.5 186 L 295.5 187 L 299.5 187 L 300.5 188 L 303.5 188 L 304.5 189 L 307.5 189 L 308.5 190 L 311.5 190 L 320.5 193 L 324.5 193 L 329.5 195 L 333.5 195 L 334.5 196 L 349.5 199 L 358.5 203 L 361.5 203 L 370.5 206 L 374.5 206 L 375.5 207 L 388.5 208 L 389.5 209 L 397.5 209 L 398.5 210 L 407.5 210 L 408.5 211 L 417.5 211 L 418.5 212 L 427.5 212 L 433.5 214 L 450.5 214 L 451.5 213 L 457.5 213 L 465.5 207 L 469.5 207 L 470.5 206 Q 475.3 206.8 477.5 205 Q 481.5 206.5 480 213.5 L 469.5 218 Q 466.3 217.2 465.5 219 L 457.5 219 L 456.5 220 L 395.5 220 L 390.5 218 L 385.5 218 L 384.5 217 L 380.5 217 L 379.5 216 L 365.5 214 L 357.5 211 L 353.5 211 L 352.5 210 L 348.5 210 L 342.5 208 L 331.5 207 L 330.5 206 L 327.5 206 L 326.5 205 L 323.5 205 L 322.5 204 L 319.5 204 L 318.5 203 L 315.5 203 L 314.5 202 L 299.5 199 L 293.5 197 L 288 193.5 L 285 189.5 L 285 187.5 L 286.5 186 Z " /><path fill="rgb(0,0,0)" stroke="rgb(0,0,0)" stroke-width="1" opacity="0.00784313725490196" d="M 265.5 194 L 271.5 196 L 274.5 196 L 281.5 199 L 284.5 199 L 288.5 201 L 291.5 201 L 295.5 203 L 298.5 203 L 299.5 204 L 302.5 204 L 303.5 205 L 306.5 205 L 307.5 206 L 310.5 206 L 311.5 207 L 314.5 207 L 315.5 208 L 330.5 211 L 340.5 215 L 343.5 215 L 351 217.5 L 351 222.5 L 354 229.5 L 353 230.5 L 352 241.5 L 353 242.5 L 354 249.5 Q 350.4 252.4 352 260.5 Q 354.6 261.9 354 266.5 Q 350.8 268.8 352 275.5 L 355 280.5 L 352 286.5 L 352 291.5 L 356 298.5 L 353 304.5 L 353 311.5 Q 354.8 312.3 354 315.5 L 353 316.5 L 353 326.5 L 356 331.5 L 356 335.5 L 355 336.5 Q 355.8 341.3 354 343.5 L 355 344.5 Q 353.8 349.2 356 350.5 L 355 351.5 L 355 359.5 Q 357.6 360.9 357 365.5 L 355 369.5 L 355 374.5 L 357 378.5 L 357 381.5 L 355 385.5 L 355 389.5 L 356 390.5 L 356 396.5 L 354 399.5 L 354 409.5 L 356 413.5 L 356 417.5 L 354 421.5 L 354 429.5 L 356 433.5 L 355 434.5 Q 356.3 439.2 354 440.5 L 354 446.5 L 356 450.5 L 356 453.5 L 355 454.5 L 355 480.5 Q 357.3 481.8 356 486.5 L 355 487.5 L 355 497.5 L 356 498.5 L 356 513.5 L 353.5 521 L 345.5 522 L 335.5 526 L 319 541.5 L 317 547.5 L 317 556.5 L 318 557.5 L 318 563.5 L 320 567.5 L 327.5 576 L 344.5 588 L 349.5 589 L 358.5 593 L 375.5 596 L 377 597.5 L 377 622.5 L 379 626.5 L 379.5 631 L 386.5 634 L 388.5 636 L 394.5 637 L 401 639.5 L 0.5 640 L 0 562.5 L 1 562.5 L 1.5 565 L 4.5 566 L 18.5 566 L 19.5 567 L 30.5 567 Q 31.7 564.8 36.5 566 L 41.5 563 L 48.5 562 Q 56.9 558.9 62 552.5 L 71.5 542 L 78.5 537 L 93.5 531 L 94 532.5 L 88 542.5 L 88 545.5 L 86 550.5 L 86 557.5 L 91 568.5 L 95.5 574 L 98.5 575 L 102.5 579 L 112.5 585 L 119.5 586 L 125.5 589 L 137.5 593 L 148.5 595 L 151 596.5 L 150 614.5 Q 151.8 615.3 151 618.5 L 154.5 622 L 163.5 627 L 172.5 630 Q 175.8 629.3 176.5 631 L 184.5 631 L 185.5 632 L 194.5 632 L 195.5 631 L 204.5 631 Q 205.7 628.7 210.5 630 L 227 621.5 L 228 619.5 L 228 610.5 L 227 609.5 L 227 596.5 L 229.5 592 L 249.5 588 L 257.5 584 L 265.5 582 L 273.5 577 L 275.5 577 L 282 570.5 L 287 560.5 L 287 550.5 L 286 549.5 L 285 542.5 L 281 534.5 L 274.5 528 L 267.5 524 L 265.5 524 L 263.5 522 L 257 520.5 L 257 513.5 Q 254 511.5 255 505.5 L 256 504.5 L 256 498.5 L 254 494.5 L 257 490.5 L 257 482.5 L 253 476.5 L 255 472.5 L 255 463.5 L 253 459.5 Q 257.3 457.3 256 449.5 L 252 443.5 L 256 437.5 L 256 431.5 L 253 428.5 L 255 426.5 L 256 424.5 L 256 415.5 L 253 411.5 Q 256.7 407.7 257 400.5 L 253 395.5 L 253 393.5 L 255 389.5 L 254 388.5 L 254 383.5 L 253 380.5 L 255 376.5 L 255 373.5 L 253 367.5 L 249 363.5 L 253 360.5 L 255 356.5 L 255 351.5 L 252 345.5 L 255 340.5 L 255 338.5 Q 252.4 337.1 253 332.5 L 254 331.5 L 254 321.5 Q 252 320.5 253 316.5 Q 256.4 313.9 255 306.5 L 252 300.5 Q 255.1 297.1 256 291.5 L 254 286.5 L 255 285.5 L 255 276.5 L 253 271.5 L 255 268.5 L 255 259.5 L 252 255.5 L 252 253.5 L 255 247.5 L 255 243.5 L 253 240.5 L 255 237.5 L 255 227.5 L 253 223.5 L 256 220.5 L 256 211.5 L 254 207.5 L 256 204.5 L 256.5 196 L 259.5 195 L 264.5 195 L 265.5 194 Z " /><path fill="rgb(0,0,0)" stroke="rgb(0,0,0)" stroke-width="1" opacity="0.00784313725490196" d="M 135.5 198 L 141.5 198 L 142.5 199 L 153.5 200 L 154.5 201 L 163.5 201 L 164.5 202 L 180.5 202 L 181.5 203 L 199 203.5 L 201.5 207 L 206.5 208 L 207.5 207 L 224.5 206 L 238.5 200 L 250.5 199 Q 252.5 199.5 252 202.5 L 248.5 207 L 245.5 208 L 242.5 207 L 241.5 208 L 237.5 208 L 228.5 211 L 217.5 212 L 216.5 213 L 179.5 214 L 178.5 213 L 167.5 213 L 166.5 212 L 159.5 212 L 158.5 211 L 150.5 211 Q 149.2 208.8 144.5 210 L 136 203.5 Q 134.1 201.5 135.5 198 Z " /><path fill="rgb(0,0,0)" stroke="rgb(0,0,0)" stroke-width="1" opacity="0.00784313725490196" d="M 247.5 210 L 250 210.5 L 252 216.5 L 247.5 222 Q 244.3 221.2 243.5 223 L 235.5 223 L 234.5 224 Q 229.7 222.7 228.5 225 L 221.5 225 L 220.5 226 L 212.5 226 L 211.5 227 L 198.5 227 L 197.5 228 L 172.5 228 L 171.5 227 L 158.5 227 L 149.5 224 L 138.5 223 L 136 220.5 Q 135 214 138.5 212 Q 140.3 213.7 144.5 213 L 145.5 214 L 149.5 214 L 150.5 215 L 155.5 215 L 156.5 216 L 163.5 216 L 164.5 217 L 174.5 217 L 175.5 218 L 192.5 218 Q 193.3 219.8 196.5 219 L 198 220.5 L 198.5 222 L 207.5 223 L 208.5 222 L 216.5 222 L 217.5 221 L 225.5 220 L 230.5 218 L 234.5 214 L 242.5 213 L 247.5 210 Z " /><path fill="rgb(0,0,0)" stroke="rgb(0,0,0)" stroke-width="1" opacity="0.00784313725490196" d="M 477.5 221 Q 480.5 220.5 481 222.5 L 481 226.5 L 478.5 231 L 473.5 231 L 467.5 234 Q 464.3 233.3 463.5 235 L 457.5 235 L 456.5 236 L 444.5 236 L 443.5 237 L 427.5 237 L 426.5 238 L 415.5 238 L 414.5 237 L 404.5 237 L 403.5 236 L 394.5 236 L 393.5 235 L 383.5 235 Q 382.3 232.8 377.5 234 L 366.5 230 L 360.5 229 L 358 226.5 L 361.5 226 L 362.5 227 L 368.5 227 L 369.5 228 L 380.5 228 L 381.5 229 L 403.5 229 L 411.5 226 L 425.5 226 L 430.5 229 Q 433.8 228.3 434.5 230 L 451.5 230 L 452.5 229 L 457.5 229 L 460.5 228 L 464 225.5 L 464.5 224 L 473.5 223 L 477.5 221 Z " /><path fill="rgb(0,0,0)" stroke="rgb(0,0,0)" stroke-width="1" opacity="0.00784313725490196" d="M 246.5 225 L 248 225.5 L 251 230.5 L 251 234.5 L 248.5 238 Q 245.3 238.8 244.5 237 L 233.5 241 Q 229.5 240 228.5 242 L 218.5 242 L 217.5 243 L 162.5 243 L 161.5 242 L 156.5 242 L 151.5 240 L 142.5 239 L 137 236.5 L 136 234.5 L 137 233.5 L 138 227.5 L 139.5 226 L 147.5 229 L 155.5 230 L 156.5 231 L 162.5 231 L 163.5 232 L 185.5 232 L 186.5 233 L 197.5 233 L 202.5 236 L 218.5 236 L 219.5 235 L 230.5 234 L 233 231.5 L 233.5 229 L 241.5 228 L 246.5 225 Z " /><path fill="rgb(0,0,0)" stroke="rgb(0,0,0)" stroke-width="1" opacity="0.00784313725490196" d="M 478.5 237 L 480 238.5 L 480 246.5 L 477.5 250 L 471.5 252 L 466.5 252 L 465.5 253 Q 460.7 251.8 459.5 254 L 451.5 254 L 450.5 255 L 419.5 255 L 418.5 254 L 397.5 254 L 396.5 253 L 381.5 253 L 380.5 252 L 372.5 251 L 369.5 249 L 361.5 247 L 358 244.5 L 357 238.5 L 362.5 238 L 367.5 240 L 386.5 241 L 387.5 240 L 393.5 240 L 394.5 241 L 403.5 241 L 404.5 242 L 426.5 243 L 428 244.5 L 429.5 247 Q 433.5 246 434.5 248 L 446.5 248 L 447.5 247 L 453.5 247 Q 454.3 245.3 457.5 246 L 463.5 241 L 467.5 241 L 478.5 237 Z " /><path fill="rgb(0,0,0)" stroke="rgb(0,0,0)" stroke-width="1" opacity="0.00784313725490196" d="M 139.5 243 Q 141.3 244.7 145.5 244 L 146.5 245 L 150.5 245 L 151.5 246 L 156.5 246 L 157.5 247 L 166.5 247 L 167.5 248 L 185.5 248 L 186.5 249 L 196.5 249 L 198.5 250 L 199.5 249 L 202.5 252 L 205.5 253 L 218.5 253 L 219.5 252 L 225.5 252 Q 226.3 250.3 229.5 251 L 234 248.5 L 236.5 245 L 239.5 245 L 244.5 243 L 248.5 243 Q 251 244 250 248.5 L 245.5 253 L 239.5 254 L 234.5 257 L 226.5 257 L 225.5 258 L 209.5 258 L 208.5 259 L 194.5 259 L 193.5 260 L 181.5 260 L 180.5 259 L 169.5 259 L 168.5 258 L 154.5 258 L 153.5 257 L 142.5 255 L 139 251.5 Q 137.2 249.3 138 244.5 L 139.5 243 Z " /><path fill="rgb(0,0,0)" stroke="rgb(0,0,0)" stroke-width="1" opacity="0.00784313725490196" d="M 360.5 251 L 369.5 255 L 377.5 256 L 378.5 257 L 383.5 257 L 384.5 258 L 391.5 258 L 392.5 259 L 417.5 259 L 418.5 260 L 425.5 260 L 427 261.5 L 428.5 264 Q 430.3 265.7 434.5 265 L 435.5 266 L 445.5 266 L 446.5 265 L 453.5 265 Q 454.5 263 458.5 264 L 463 261.5 L 464.5 259 L 466.5 258 L 477.5 257 L 478.5 256 L 480 257.5 L 480 265.5 L 478.5 267 L 476.5 267 L 470.5 270 L 467.5 270 L 462.5 272 L 456.5 272 L 455.5 273 L 443.5 273 L 442.5 274 L 411.5 274 L 410.5 273 L 400.5 273 L 399.5 272 L 393.5 272 L 392.5 271 L 386.5 271 L 385.5 270 L 373.5 269 L 363.5 264 L 360.5 264 L 358 261.5 L 357 258.5 L 357 253.5 L 360.5 251 Z " /><path fill="rgb(0,0,0)" stroke="rgb(0,0,0)" stroke-width="1" opacity="0.00784313725490196" d="M 139.5 259 L 148.5 262 L 153.5 262 L 154.5 263 L 163.5 263 L 164.5 264 L 198.5 264 L 202.5 268 L 221.5 268 L 222.5 267 L 229.5 266 L 232 263.5 L 233.5 261 L 247.5 259 Q 251.5 260.5 250 267.5 L 248.5 269 L 244.5 269 L 240.5 271 L 233.5 271 Q 232.2 273.3 227.5 272 L 223.5 274 L 219.5 274 Q 218.5 272 214.5 273 L 213.5 274 L 201.5 274 L 200.5 275 L 173.5 275 L 172.5 274 L 162.5 274 L 161.5 273 L 149.5 272 L 148.5 271 L 142.5 270 L 138 266.5 Q 136.5 260.5 139.5 259 Z " /><path fill="rgb(0,0,0)" stroke="rgb(0,0,0)" stroke-width="1" opacity="0.00784313725490196" d="M 358.5 269 L 363.5 269 L 369.5 272 L 372.5 272 L 377.5 274 L 381.5 274 L 382.5 275 L 393.5 276 L 394.5 277 L 402.5 277 L 403.5 278 L 414.5 278 L 415.5 279 L 426.5 279 L 429 281.5 L 429.5 283 L 451.5 283 Q 452.7 280.8 457.5 282 L 462 279.5 L 462.5 278 L 468.5 277 L 475.5 274 L 478.5 274 Q 482 275 481 280.5 L 479.5 284 L 475.5 284 L 469.5 287 L 466.5 287 L 461.5 289 L 457.5 289 L 456.5 290 Q 451.8 288.8 450.5 291 L 434.5 291 L 432.5 292 L 431.5 291 L 409.5 291 L 408.5 290 L 399.5 290 L 398.5 289 L 385.5 288 L 384.5 287 L 380.5 287 L 379.5 286 L 376.5 286 L 370.5 284 L 361 279.5 L 357 272.5 L 357 270.5 L 358.5 269 Z " /><path fill="rgb(0,0,0)" stroke="rgb(0,0,0)" stroke-width="1" opacity="0.00784313725490196" d="M 139.5 275 L 143.5 275 L 144.5 276 L 153.5 277 L 154.5 278 L 161.5 278 L 162.5 279 L 176.5 279 L 177.5 280 L 195.5 280 L 198.5 279 Q 201.5 285 212.5 283 L 213.5 282 L 227.5 282 L 234 279.5 L 235.5 276 L 248.5 275 Q 250.9 277.1 250 282.5 L 248.5 285 L 241.5 286 L 238.5 288 Q 233.7 286.7 232.5 289 L 223.5 289 L 222.5 290 L 200.5 290 L 199.5 291 L 187.5 291 L 186.5 290 L 169.5 290 L 168.5 289 L 154.5 288 L 153.5 287 L 149.5 287 L 148.5 286 L 140.5 285 L 138 282.5 Q 136.5 276.5 139.5 275 Z " /><path fill="rgb(0,0,0)" stroke="rgb(0,0,0)" stroke-width="1" opacity="0.00784313725490196" d="M 358.5 284 L 360.5 284 L 373.5 290 L 376.5 290 L 381.5 292 L 385.5 292 L 386.5 293 L 391.5 293 L 392.5 294 Q 397.3 292.8 398.5 295 L 404.5 295 L 405.5 296 L 426.5 296 L 428 297.5 L 429.5 300 Q 433.5 299 434.5 301 L 445.5 301 L 446.5 300 L 452.5 300 L 453.5 299 L 459.5 298 L 463.5 294 L 467.5 294 L 471.5 292 L 479.5 291 Q 482 292 481 296.5 L 475.5 301 L 472.5 301 L 465.5 304 Q 460.7 302.7 459.5 305 L 451.5 305 L 450.5 306 L 439.5 306 L 438.5 307 L 407.5 307 L 406.5 306 L 394.5 306 L 393.5 305 L 389.5 305 L 388.5 304 L 383.5 304 L 382.5 303 L 374.5 302 L 366.5 299 L 359 293.5 L 357 288.5 L 357 285.5 L 358.5 284 Z " /><path fill="rgb(0,0,0)" stroke="rgb(0,0,0)" stroke-width="1" opacity="0.00784313725490196" d="M 140.5 291 L 147.5 291 L 148.5 292 L 153.5 292 L 154.5 293 Q 159.3 291.8 160.5 294 L 168.5 294 L 169.5 295 L 191.5 295 Q 192.8 297.3 197.5 296 L 202.5 299 L 229.5 299 L 234 297.5 L 236.5 293 L 240.5 293 L 245.5 291 L 249.5 291 L 251 293.5 L 245.5 301 L 235.5 303 L 231.5 305 Q 226.7 303.8 225.5 306 L 217.5 306 L 216.5 307 L 169.5 307 L 168.5 306 L 165.5 306 L 160.5 304 L 156.5 304 L 147.5 301 L 141.5 301 L 139 298.5 Q 137.5 292.5 140.5 291 Z " /><path fill="rgb(0,0,0)" stroke="rgb(0,0,0)" stroke-width="1" opacity="0.00784313725490196" d="M 359.5 302 L 363.5 302 L 366.5 304 L 375.5 307 L 382.5 308 L 383.5 309 L 395.5 310 L 396.5 311 L 404.5 311 L 405.5 312 L 419.5 312 L 420.5 313 L 426.5 313 L 428 314.5 L 428.5 316 L 433.5 317 L 434.5 316 L 449.5 316 L 450.5 315 L 456.5 315 L 459.5 314 L 463.5 310 L 466.5 310 L 467.5 309 L 473.5 308 L 476.5 306 L 479.5 306 L 480 312.5 L 477.5 314 Q 476.5 312 472.5 313 L 468.5 317 L 462.5 320 L 455.5 321 L 454.5 322 Q 449.7 320.8 448.5 323 L 423.5 323 L 422.5 324 L 413.5 324 L 412.5 323 L 403.5 323 L 402.5 322 L 396.5 322 L 395.5 321 L 390.5 321 L 389.5 320 L 384.5 320 L 383.5 319 L 376.5 318 L 367.5 315 L 364.5 313 L 362.5 313 L 358 309.5 Q 357.1 304.1 359.5 302 Z " /><path fill="rgb(0,0,0)" stroke="rgb(0,0,0)" stroke-width="1" opacity="0.00784313725490196" d="M 139.5 306 L 145.5 306 L 150.5 308 L 154.5 308 L 155.5 309 L 163.5 310 L 164.5 311 L 171.5 311 L 172.5 312 L 187.5 312 L 188.5 313 L 199.5 313 L 202.5 316 Q 206.5 315 207.5 317 L 216.5 317 L 217.5 316 L 223.5 316 Q 224.3 314.3 227.5 315 L 235.5 309 L 243.5 308 L 248.5 306 Q 251.5 307.5 250 313.5 L 245.5 317 L 239.5 319 L 235.5 319 L 234.5 320 L 229.5 320 L 228.5 321 L 220.5 321 L 219.5 322 L 213.5 322 L 212.5 323 L 187.5 323 L 186.5 322 L 169.5 322 L 168.5 321 L 160.5 321 Q 159.3 318.8 154.5 320 L 153.5 319 L 145.5 318 L 139 314.5 L 138 308.5 L 139.5 306 Z " /><path fill="rgb(0,0,0)" stroke="rgb(0,0,0)" stroke-width="1" opacity="0.00784313725490196" d="M 358.5 318 L 363.5 318 L 376.5 323 L 379.5 323 L 384.5 325 L 388.5 325 L 389.5 326 L 393.5 326 L 394.5 327 L 400.5 327 L 401.5 328 L 410.5 328 L 411.5 329 L 428.5 329 L 431 330.5 L 427 331.5 L 429.5 334 Q 432.7 333.2 433.5 335 L 441.5 335 L 442.5 334 L 448.5 334 L 449.5 333 L 453.5 333 L 454.5 332 L 458.5 332 L 462 330.5 L 462.5 326 L 468.5 325 L 476.5 322 Q 480.3 323.3 479 329.5 L 475.5 334 L 473.5 334 L 467.5 337 Q 462.7 335.7 461.5 338 L 453.5 338 L 452.5 339 L 437.5 339 L 436.5 340 L 426.5 340 L 425.5 341 L 410.5 341 L 409.5 340 L 394.5 339 L 393.5 338 L 387.5 338 L 386.5 337 L 382.5 337 L 381.5 336 L 374.5 335 L 362.5 329 L 360.5 329 L 359 327.5 L 358 325.5 L 358.5 318 Z " /><path fill="rgb(0,0,0)" stroke="rgb(0,0,0)" stroke-width="1" opacity="0.00784313725490196" d="M 139.5 321 L 145.5 323 L 148.5 323 L 149.5 324 L 159.5 325 L 160.5 326 L 166.5 326 L 167.5 327 L 176.5 327 L 177.5 328 L 198.5 328 L 201 329.5 L 201.5 331 L 203.5 332 L 218.5 332 L 219.5 331 L 228.5 330 L 233 327.5 L 234.5 325 L 242.5 324 L 243.5 323 L 247.5 323 L 248.5 322 L 249 329.5 L 244.5 332 L 241.5 332 L 231.5 336 L 228.5 336 L 227.5 337 L 224.5 337 L 215.5 340 L 172.5 340 L 171.5 339 L 160.5 338 L 155.5 335 L 138 329.5 L 138 322.5 L 139.5 321 Z " /><path fill="rgb(0,0,0)" stroke="rgb(0,0,0)" stroke-width="1" opacity="0.00784313725490196" d="M 361.5 335 Q 368 335.5 371.5 339 L 374.5 339 L 382.5 342 L 391.5 343 L 392.5 344 L 406.5 345 L 407.5 346 L 424.5 346 L 427.5 347 L 430.5 350 L 441.5 350 L 442.5 349 L 452.5 349 Q 453.5 347 457.5 348 L 464.5 343 L 476.5 340 Q 479.8 341.7 479 347.5 L 476.5 350 L 472.5 350 L 471.5 351 L 463.5 352 L 462.5 353 L 458.5 353 L 457.5 354 L 453.5 354 L 452.5 355 L 433.5 355 L 432.5 356 L 404.5 356 L 403.5 357 L 398.5 355 L 389.5 355 L 388.5 354 L 380.5 353 L 370.5 348 L 363.5 346 L 360 343.5 L 359 339.5 L 361.5 335 Z " /><path fill="rgb(0,0,0)" stroke="rgb(0,0,0)" stroke-width="1" opacity="0.00784313725490196" d="M 139.5 336 L 142.5 336 L 150.5 340 L 159.5 343 L 162.5 343 L 163.5 344 L 167.5 344 L 168.5 345 L 188.5 345 L 189.5 346 L 200 346.5 L 201.5 349 L 213.5 349 L 214.5 348 L 221.5 348 L 222.5 347 L 229.5 346 L 233 343.5 L 234.5 341 L 244.5 337 L 248.5 337 L 250 340.5 L 247.5 345 L 245.5 345 L 240.5 348 L 231.5 351 L 228.5 351 L 227.5 352 L 223.5 352 L 217.5 354 L 210.5 354 L 204.5 356 L 194.5 356 L 193.5 355 L 172.5 355 L 171.5 354 L 156.5 351 L 155.5 350 L 147.5 349 L 141.5 347 L 138 344.5 Q 136.9 338.4 139.5 336 Z " /><path fill="rgb(0,0,0)" stroke="rgb(0,0,0)" stroke-width="1" opacity="0.00784313725490196" d="M 247.5 351 L 250 352.5 L 250 355.5 L 246.5 360 L 242.5 362 L 239.5 362 L 232.5 366 L 226.5 368 L 216.5 369 L 215.5 370 L 206.5 370 L 205.5 371 L 178.5 371 L 177.5 370 L 165.5 369 L 164.5 368 L 160.5 368 L 155.5 366 L 151.5 366 L 142.5 362 L 139.5 362 L 138 360.5 Q 137 354 140.5 352 L 146.5 353 L 153.5 356 L 157.5 356 L 162.5 358 L 166.5 358 L 167.5 359 Q 172.3 357.8 173.5 360 L 183.5 360 L 184.5 361 L 196.5 361 L 202.5 364 L 209.5 364 L 210.5 363 L 217.5 363 L 218.5 362 L 228.5 361 L 231.5 360 L 234 357.5 L 234.5 356 L 247.5 351 Z " /><path fill="rgb(0,0,0)" stroke="rgb(0,0,0)" stroke-width="1" opacity="0.00784313725490196" d="M 360.5 353 L 367.5 353 L 373.5 356 L 381.5 357 L 382.5 358 L 390.5 359 L 391.5 360 L 395.5 360 L 396.5 361 L 421.5 362 L 428.5 366 L 446.5 366 Q 447.8 363.8 452.5 365 L 458.5 362 L 462.5 362 L 464 360.5 L 464.5 358 L 473.5 355 L 477 356.5 Q 478.8 358.7 478 363.5 L 473.5 366 L 465.5 367 L 464.5 368 L 459.5 368 L 458.5 369 L 437.5 369 L 436.5 370 Q 431.8 368.8 430.5 371 L 416.5 371 L 413.5 372 L 408.5 370 L 399.5 370 L 398.5 369 L 387.5 369 Q 386.3 366.8 381.5 368 L 380.5 367 L 377.5 367 L 376.5 366 L 373.5 366 L 367.5 364 L 361 359.5 Q 359 357.2 360.5 353 Z " /><path fill="rgb(0,0,0)" stroke="rgb(0,0,0)" stroke-width="1" opacity="0.00784313725490196" d="M 140.5 368 L 150.5 370 L 151.5 371 L 154.5 371 L 155.5 372 L 159.5 372 L 160.5 373 L 164.5 373 L 170.5 375 L 175.5 375 L 176.5 376 L 194.5 376 L 200.5 379 L 212.5 379 L 213.5 378 L 218.5 378 L 219.5 377 L 223.5 377 L 224.5 376 L 228.5 376 L 232 374.5 Q 231.5 370.5 234.5 370 L 246.5 368 L 249 370.5 L 249 378.5 L 243.5 379 L 238.5 382 L 230.5 383 L 229.5 384 L 225.5 384 L 224.5 385 L 211.5 386 L 210.5 387 L 202.5 387 L 201.5 388 L 195.5 388 L 190.5 386 L 184.5 386 L 183.5 385 L 175.5 385 L 174.5 384 L 160.5 383 L 159.5 382 L 150.5 381 L 141.5 377 L 138 376.5 Q 136.5 369.5 140.5 368 Z " /><path fill="rgb(0,0,0)" stroke="rgb(0,0,0)" stroke-width="1" opacity="0.00784313725490196" d="M 361.5 368 L 365.5 368 L 372.5 371 L 376.5 371 L 377.5 372 L 381.5 372 L 387.5 374 L 404.5 375 L 405.5 376 L 418.5 376 L 419.5 377 L 426 377.5 L 426.5 379 L 429.5 380 L 443.5 380 L 444.5 379 L 451.5 379 Q 452.3 377.3 455.5 378 L 462.5 374 L 467.5 374 L 472.5 372 L 476.5 372 Q 478.6 373.4 478 377.5 L 473.5 383 L 468.5 383 L 467.5 384 L 457.5 385 L 456.5 386 L 437.5 387 L 436.5 388 L 406.5 388 L 405.5 387 L 392.5 387 L 391.5 386 L 378.5 385 L 377.5 384 L 373.5 384 L 372.5 383 L 365.5 382 L 363 379.5 L 360 373.5 L 360 369.5 L 361.5 368 Z " /><path fill="rgb(0,0,0)" stroke="rgb(0,0,0)" stroke-width="1" opacity="0.00784313725490196" d="M 140.5 384 L 144.5 384 L 148.5 386 L 151.5 386 L 156.5 388 L 161.5 388 L 162.5 389 L 167.5 389 L 168.5 390 L 175.5 390 L 176.5 391 L 192.5 392 Q 193.3 393.8 196.5 393 L 201.5 396 L 211.5 396 L 212.5 395 L 224.5 394 L 233.5 389 L 243.5 387 L 244.5 386 L 248.5 386 Q 250.5 386.5 250 389.5 L 248.5 392 L 233.5 398 L 230.5 398 L 229.5 399 L 226.5 399 L 220.5 401 L 217.5 403 Q 213.5 402 212.5 404 L 195.5 404 L 194.5 405 L 184.5 405 L 183.5 404 L 170.5 404 L 169.5 403 L 165.5 403 L 161.5 401 L 155.5 400 L 144.5 395 L 139 389.5 Q 138 385 140.5 384 Z " /><path fill="rgb(0,0,0)" stroke="rgb(0,0,0)" stroke-width="1" opacity="0.00784313725490196" d="M 361.5 386 L 365.5 386 L 376.5 390 L 384.5 391 L 385.5 392 L 391.5 392 L 392.5 393 L 427 394.5 L 429.5 398 L 434.5 399 L 439.5 397 L 448.5 397 Q 449.7 394.7 454.5 396 Q 455.3 394.3 458.5 395 L 461.5 392 L 466.5 390 L 473.5 390 L 476.5 389 Q 478.8 390.8 478 395.5 L 474.5 400 L 472.5 400 L 467.5 403 L 461.5 404 L 460.5 405 L 446.5 405 L 445.5 406 L 436.5 406 Q 435.2 408.3 430.5 407 L 429.5 406 L 410.5 406 L 409.5 405 L 399.5 405 L 398.5 404 L 385.5 403 L 384.5 402 L 380.5 402 L 372.5 399 L 369.5 399 Q 364.7 397.3 362 393.5 L 360 387.5 L 361.5 386 Z " /><path fill="rgb(0,0,0)" stroke="rgb(0,0,0)" stroke-width="1" opacity="0.00784313725490196" d="M 244.5 399 Q 249.8 397.8 251 400.5 L 252 403.5 L 246.5 410 L 234.5 416 L 225.5 417 L 224.5 418 L 218.5 418 L 217.5 419 L 212.5 419 L 211.5 420 L 180.5 420 L 179.5 419 L 173.5 419 L 172.5 418 L 161.5 417 L 152.5 414 L 149.5 412 L 147.5 412 L 144.5 410 L 142.5 410 L 141 408.5 L 138 400.5 L 142.5 400 L 166.5 408 L 172.5 408 L 173.5 409 L 188.5 409 L 189.5 410 L 198.5 410 L 202.5 412 L 208.5 412 L 209.5 411 L 215.5 411 Q 216.3 409.3 219.5 410 L 223.5 408 L 229.5 408 L 235.5 403 Q 241.1 402.1 244.5 399 Z " /><path fill="rgb(0,0,0)" stroke="rgb(0,0,0)" stroke-width="1" opacity="0.00784313725490196" d="M 360.5 401 L 365.5 402 L 376.5 407 L 380.5 407 L 386.5 409 L 403.5 410 L 404.5 411 L 416.5 411 L 417.5 412 L 426.5 412 L 428 413.5 L 430.5 417 L 433.5 416 L 448.5 416 Q 449.7 413.8 454.5 415 L 459.5 413 L 462.5 410 L 468.5 407 L 474.5 406 L 477 407.5 Q 478.8 409.7 478 414.5 L 476.5 417 L 474.5 417 L 469.5 420 L 462.5 420 L 461.5 421 L 450.5 422 L 449.5 423 L 402.5 423 L 401.5 422 L 391.5 422 L 382.5 419 L 378.5 419 L 377.5 418 L 370.5 417 L 364.5 415 L 361 412.5 L 359 408.5 L 359 402.5 L 360.5 401 Z " /><path fill="rgb(0,0,0)" stroke="rgb(0,0,0)" stroke-width="1" opacity="0.00784313725490196" d="M 139.5 416 L 143.5 416 L 146.5 418 L 158.5 422 L 162.5 422 L 168.5 424 L 181.5 425 L 182.5 426 L 198.5 426 L 202.5 429 L 214.5 429 L 215.5 428 L 226.5 427 L 231.5 425 L 234 422.5 L 234.5 421 L 249.5 416 Q 252.5 417.5 251 423.5 L 248.5 426 L 246.5 426 L 242.5 429 L 233.5 430 L 232.5 431 L 228.5 431 L 227.5 432 L 223.5 432 L 217.5 434 L 211.5 434 L 210.5 435 L 177.5 435 L 176.5 434 L 171.5 434 L 170.5 433 L 165.5 433 L 164.5 432 L 159.5 432 L 158.5 431 L 150.5 430 L 141.5 427 L 139 424.5 L 139.5 416 Z " /><path fill="rgb(0,0,0)" stroke="rgb(0,0,0)" stroke-width="1" opacity="0.00784313725490196" d="M 361.5 419 L 365.5 419 L 369.5 422 L 372.5 422 L 381.5 425 L 385.5 425 L 393.5 428 L 402.5 428 L 403.5 429 L 428 429.5 L 428.5 433 L 431.5 434 L 441.5 434 L 442.5 433 L 448.5 433 L 449.5 432 L 456.5 431 L 460.5 428 L 476.5 424 L 478 425.5 L 478 432.5 L 474.5 435 L 468.5 436 L 467.5 437 L 463.5 437 L 462.5 438 L 454.5 438 L 453.5 439 L 439.5 439 L 438.5 440 L 416.5 440 L 413.5 441 L 412.5 440 Q 407.8 441.2 406.5 439 L 396.5 439 L 395.5 438 L 386.5 438 Q 385.3 435.7 380.5 437 L 373.5 434 L 363.5 432 L 359 428.5 Q 357.3 420.8 361.5 419 Z " /><path fill="rgb(0,0,0)" stroke="rgb(0,0,0)" stroke-width="1" opacity="0.00784313725490196" d="M 139.5 432 L 143.5 432 L 151.5 435 L 155.5 435 L 156.5 436 L 164.5 437 L 165.5 438 L 170.5 438 L 171.5 439 L 197.5 441 L 200.5 443 L 216.5 443 L 217.5 442 L 226.5 441 L 234.5 436 L 247.5 433 L 252 435.5 L 248.5 440 L 232.5 447 L 225.5 448 L 221.5 450 L 220.5 449 L 209.5 449 L 208.5 450 L 185.5 450 L 182.5 451 L 181.5 450 L 167.5 449 L 162.5 447 L 148.5 445 L 141.5 442 L 138 438.5 Q 136.8 433.3 139.5 432 Z " /><path fill="rgb(0,0,0)" stroke="rgb(0,0,0)" stroke-width="1" opacity="0.00784313725490196" d="M 361.5 436 L 362.5 437 L 365.5 437 L 372.5 440 L 375.5 440 L 384.5 443 L 397.5 444 L 398.5 445 L 407.5 445 L 408.5 446 L 423.5 446 L 424.5 447 L 429 447.5 L 428 450.5 Q 431 453.5 438.5 452 L 439.5 451 L 447.5 451 Q 448.7 448.8 453.5 450 L 458.5 448 L 463.5 444 L 467.5 444 L 472.5 442 L 477.5 442 L 478 448.5 L 472.5 453 L 462.5 455 L 461.5 456 L 458.5 456 L 457.5 457 L 434.5 458 L 433.5 459 L 410.5 459 L 409.5 458 L 399.5 458 L 398.5 457 L 394.5 457 L 385.5 454 L 380.5 454 L 379.5 453 L 371.5 452 L 362.5 449 L 359 445.5 L 359 440.5 L 361.5 436 Z " /><path fill="rgb(0,0,0)" stroke="rgb(0,0,0)" stroke-width="1" opacity="0.00784313725490196" d="M 139.5 448 L 143.5 448 L 158.5 453 L 162.5 453 L 168.5 455 L 176.5 455 L 177.5 456 L 196.5 456 L 201.5 460 L 202.5 459 L 213.5 459 L 214.5 458 L 224.5 457 L 231.5 454 L 234.5 451 L 249.5 448 Q 251.6 449.4 251 453.5 L 247.5 458 L 242.5 459 L 236.5 462 L 233.5 462 L 228.5 464 L 224.5 464 L 219.5 466 L 209.5 467 L 208.5 468 L 202.5 468 L 201.5 469 L 192.5 469 L 191.5 468 L 183.5 468 L 182.5 467 L 172.5 467 Q 171.3 464.8 166.5 466 L 152.5 461 L 142.5 459 L 138 456.5 L 138 449.5 L 139.5 448 Z " /><path fill="rgb(0,0,0)" stroke="rgb(0,0,0)" stroke-width="1" opacity="0.00784313725490196" d="M 360.5 455 L 365.5 455 L 376.5 459 L 380.5 459 L 381.5 460 L 385.5 460 L 391.5 462 L 406.5 463 L 407.5 464 L 427 464.5 Q 426.5 467.5 428.5 468 L 430.5 469 L 446.5 469 L 447.5 468 L 455.5 468 L 459 465.5 L 461.5 462 L 467.5 460 L 477.5 459 L 478 463.5 L 475.5 467 L 466.5 471 L 456.5 472 L 455.5 473 L 449.5 473 L 448.5 474 L 441.5 475 L 440.5 474 L 434.5 474 L 433.5 475 L 403.5 475 L 402.5 474 L 394.5 474 L 393.5 473 L 388.5 473 L 387.5 472 L 379.5 471 L 372.5 468 L 365.5 467 L 361 463.5 Q 358.7 460.6 360.5 455 Z " /><path fill="rgb(0,0,0)" stroke="rgb(0,0,0)" stroke-width="1" opacity="0.00784313725490196" d="M 247.5 464 L 250 465.5 L 251 470.5 L 248.5 474 L 238.5 479 L 229.5 482 L 225.5 482 L 224.5 483 L 217.5 483 L 216.5 484 L 205.5 485 L 204.5 486 L 187.5 486 L 186.5 485 L 178.5 485 L 177.5 484 L 172.5 484 L 171.5 483 L 162.5 482 L 148.5 477 L 142.5 476 L 141 474.5 L 139 471.5 L 139 466.5 Q 140 464 144.5 465 L 150.5 468 L 153.5 468 L 162.5 471 L 166.5 471 L 167.5 472 L 173.5 472 L 174.5 473 L 185.5 473 L 186.5 474 L 198.5 474 L 201.5 477 L 213.5 477 L 214.5 476 L 228.5 474 L 232 471.5 L 232.5 468 L 241.5 467 L 247.5 464 Z " /><path fill="rgb(0,0,0)" stroke="rgb(0,0,0)" stroke-width="1" opacity="0.00784313725490196" d="M 360.5 470 L 362.5 470 L 367.5 473 L 376.5 476 L 379.5 476 L 384.5 478 L 388.5 478 L 389.5 479 L 402.5 480 L 403.5 481 L 418.5 481 L 419.5 482 L 426 482.5 L 426.5 487 L 445.5 487 L 446.5 486 L 452.5 486 Q 453.2 484.3 456.5 485 L 461 482.5 L 460 480.5 L 465.5 477 L 469.5 477 L 475.5 474 L 478.5 474 Q 480.6 475.4 480 479.5 L 477.5 483 L 470.5 487 L 464.5 489 L 460.5 489 L 459.5 490 L 446.5 491 L 445.5 492 L 437.5 492 L 436.5 493 L 419.5 493 L 418.5 494 L 417.5 493 L 404.5 493 L 403.5 492 L 393.5 492 Q 392.3 489.8 387.5 491 L 369.5 485 L 360 478.5 L 359 472.5 L 360.5 470 Z " /><path fill="rgb(0,0,0)" stroke="rgb(0,0,0)" stroke-width="1" opacity="0.00784313725490196" d="M 138.5 481 L 143.5 481 L 156.5 486 L 159.5 486 L 168.5 489 L 173.5 489 L 174.5 490 L 181.5 490 L 182.5 491 L 198.5 491 L 202.5 494 L 219.5 494 L 227.5 491 L 230.5 491 L 234 488.5 L 235.5 486 L 240.5 485 L 248.5 481 Q 251.8 481.8 251 486.5 L 250 489.5 L 246.5 493 L 237.5 497 L 233.5 497 L 224.5 500 Q 220.5 499 219.5 501 L 212.5 501 L 211.5 502 L 201.5 502 L 199.5 503 L 198.5 502 L 184.5 502 L 183.5 501 L 172.5 501 L 171.5 500 L 160.5 499 L 148.5 495 L 140.5 491 L 138 488.5 L 138.5 481 Z " /><path fill="rgb(0,0,0)" stroke="rgb(0,0,0)" stroke-width="1" opacity="0.00784313725490196" d="M 360.5 487 L 363.5 487 L 381.5 494 L 389.5 495 L 390.5 496 L 394.5 496 L 395.5 497 L 402.5 497 L 403.5 498 L 431 498.5 L 430.5 500 Q 427.5 499.5 427 501.5 L 427.5 504 L 432.5 505 L 435.5 507 L 439.5 507 L 443.5 504 L 452.5 503 L 461 499.5 L 459.5 497 L 455.5 497 L 452.5 499 Q 448.5 498 447.5 500 L 439.5 500 Q 437 499 438.5 498 L 443.5 498 L 444.5 497 L 450.5 497 L 451.5 496 L 456.5 496 L 457.5 495 L 468.5 494 L 478.5 490 L 480 492.5 Q 478 498 473.5 501 L 463.5 505 L 460.5 505 L 459.5 506 L 456.5 506 L 447.5 509 L 440.5 509 L 439.5 510 L 418.5 510 L 417.5 511 L 409.5 511 L 408.5 510 L 401.5 510 L 397.5 508 L 391.5 508 L 390.5 507 L 387.5 507 L 381.5 505 L 365.5 498 L 360 493.5 L 359 488.5 L 360.5 487 Z " /><path fill="rgb(0,0,0)" stroke="rgb(0,0,0)" stroke-width="1" opacity="0.00784313725490196" d="M 138.5 497 L 162.5 505 L 174.5 506 L 175.5 507 L 187.5 507 L 188.5 508 L 197.5 508 L 200.5 511 L 218.5 511 L 224.5 509 L 229.5 509 L 233 505.5 Q 230.8 504.2 233.5 503 L 236.5 503 L 237.5 502 L 240.5 502 L 244.5 500 L 250.5 499 L 251 503.5 L 247.5 508 L 239.5 511 L 236.5 511 L 231.5 513 L 227.5 513 L 226.5 514 L 220.5 514 L 219.5 515 L 199.5 515 L 198.5 516 L 162.5 516 L 161.5 515 L 155.5 515 L 154.5 514 L 148.5 513 L 139.5 509 L 137 506.5 Q 135.7 499.7 138.5 497 Z " /><path fill="rgb(0,0,0)" stroke="rgb(0,0,0)" stroke-width="1" opacity="0.00784313725490196" d="M 362.5 503 L 364.5 503 L 373.5 509 L 379.5 511 L 383.5 511 L 384.5 512 L 391.5 513 L 392.5 514 L 405.5 515 L 406.5 516 L 432 516.5 L 429 517.5 L 429.5 519 L 431.5 520 L 441.5 520 L 442.5 519 L 450.5 519 Q 451.2 517.3 454.5 518 L 457.5 517 L 460 514.5 L 455.5 514 L 454.5 515 L 449.5 515 L 448.5 516 L 437.5 517 L 437.5 516 L 445.5 515 L 446.5 514 L 451.5 514 L 452.5 513 L 456.5 513 L 477.5 506 L 478 510.5 L 475.5 514 L 463.5 521 L 452.5 523 L 449.5 525 L 440.5 525 L 439.5 526 L 430.5 526 L 429.5 527 L 418.5 527 L 417.5 526 L 405.5 526 L 404.5 525 L 395.5 525 L 387.5 522 L 384.5 522 L 378.5 520 L 369.5 515 L 367.5 515 L 362 509.5 L 361 504.5 L 362.5 503 Z " /><path fill="rgb(0,0,0)" stroke="rgb(0,0,0)" stroke-width="1" opacity="0.00784313725490196" d="M 247.5 513 L 252 514.5 L 252 517.5 L 247.5 522 L 236.5 526 L 228.5 527 L 227.5 528 L 222.5 528 L 221.5 529 L 205.5 530 L 204.5 531 L 193.5 531 L 192.5 532 L 176.5 532 L 175.5 531 L 162.5 531 L 161.5 530 L 154.5 529 L 142.5 525 L 140 522.5 L 140.5 515 L 152.5 519 L 160.5 520 L 161.5 521 L 178.5 521 L 179.5 522 L 200 522.5 L 199 524.5 L 212.5 525 L 213.5 524 L 221.5 524 Q 222.8 521.8 227.5 523 L 234.5 518 L 239.5 516 L 242.5 516 L 247.5 513 Z " /><path fill="rgb(0,0,0)" stroke="rgb(0,0,0)" stroke-width="1" opacity="0.00784313725490196" d="M 360.5 516 L 364.5 519 L 366.5 519 L 375.5 524 L 387.5 528 L 394.5 529 L 395.5 530 L 408.5 531 L 409.5 532 L 438.5 532 L 439.5 531 L 444.5 531 L 445.5 530 L 454.5 529 L 459.5 527 L 463.5 527 L 477.5 520 Q 479.8 520.8 479 524.5 L 474.5 530 L 471.5 530 L 467.5 533 L 460.5 536 L 453.5 537 L 445.5 540 L 440.5 540 L 439.5 541 L 402.5 541 L 401.5 540 L 394.5 540 Q 393.5 538 389.5 539 L 377.5 535 L 362.5 526 L 360 523.5 Q 358.3 521.7 359 517.5 L 360.5 516 Z " /><path fill="rgb(0,0,0)" stroke="rgb(0,0,0)" stroke-width="1" opacity="0.00784313725490196" d="M 352.5 526 Q 355.5 525.5 356 527.5 L 355 528.5 L 355 539.5 L 360.5 546 L 378.5 555 L 384.5 557 L 387.5 557 L 388.5 558 L 391.5 558 L 392.5 559 L 395.5 559 L 396.5 560 L 409.5 561 L 410.5 562 L 437.5 562 L 438.5 561 L 462.5 561 L 463.5 560 L 473.5 560 L 474 561.5 L 470.5 562 L 466.5 566 L 459.5 567 L 458.5 568 L 448.5 568 L 447.5 569 L 399 569.5 L 403.5 573 Q 407.5 572 408.5 574 L 417.5 574 L 418.5 575 L 426.5 575 L 428 576.5 L 426.5 578 L 417.5 578 L 416.5 579 L 404.5 579 L 400.5 577 L 397.5 577 L 397 577.5 L 400.5 581 L 406.5 582 L 407.5 583 L 415.5 583 L 416.5 584 L 424 584.5 L 422.5 586 L 414.5 587 L 413.5 588 L 399.5 588 L 398.5 587 L 389.5 587 Q 388.3 584.8 383.5 586 Q 380.1 582.9 374.5 582 L 372 579.5 Q 370.2 577.3 371 572.5 L 373.5 569 L 377 567.5 Q 378.3 562.3 375.5 561 L 372.5 560 L 367.5 560 Q 362.7 561.7 360 565.5 L 358 570.5 L 357.5 578 L 354 575.5 L 349 567.5 L 349 563.5 L 352 559.5 L 353 555.5 L 348.5 552 L 338.5 550 L 336 552.5 Q 336.8 555.8 335 556.5 L 335 567.5 L 332.5 570 L 327 565.5 L 325 561.5 Q 325.8 556.7 324 554.5 L 325 553.5 L 325 547.5 L 330.5 539 L 333 540.5 Q 333.6 544.4 336.5 546 L 340 543.5 L 340 540.5 Q 337.5 540 338 536.5 L 342.5 530 L 352.5 526 Z " /><path fill="rgb(0,0,0)" stroke="rgb(0,0,0)" stroke-width="1" opacity="0.00784313725490196" d="M 246.5 528 L 251 528.5 L 251 530.5 L 247.5 536 L 237.5 541 L 231.5 541 L 230.5 542 L 222.5 543 L 221.5 544 L 217.5 544 L 216.5 545 L 210.5 545 L 209.5 546 L 199.5 546 L 198.5 547 L 183.5 547 L 182.5 546 L 170.5 546 L 169.5 545 L 163.5 545 L 162.5 544 L 152.5 543 L 140.5 539 L 137 536.5 L 136 531.5 L 137.5 529 L 141.5 529 L 150.5 533 L 153.5 533 L 158.5 535 L 164.5 535 L 165.5 536 L 180.5 536 L 181.5 537 L 199.5 537 L 202.5 539 L 213.5 539 L 214.5 538 L 221.5 538 L 222.5 537 L 229.5 536 L 234 533.5 L 235.5 531 L 243.5 530 L 246.5 528 Z " /><path fill="rgb(0,0,0)" stroke="rgb(0,0,0)" stroke-width="1" opacity="0.00784313725490196" d="M 476.5 533 L 479 533.5 L 479 535.5 L 476.5 539 L 470.5 540 L 470 538.5 L 476.5 533 Z " /><path fill="rgb(0,0,0)" stroke="rgb(0,0,0)" stroke-width="1" opacity="0.00784313725490196" d="M 117.5 535 L 129.5 535 L 132 537.5 Q 132.3 542.3 135.5 544 L 139.5 544 L 150.5 548 L 154.5 548 L 155.5 549 L 164.5 550 L 170.5 552 L 176.5 552 L 177.5 553 L 190.5 553 Q 191.5 555 195.5 554 L 196.5 553 L 218.5 553 L 219.5 552 L 223.5 552 L 229.5 550 L 239.5 549 L 248.5 545 L 253.5 544 L 269.5 535 L 273.5 535 L 277 538.5 L 279 544.5 L 279 547.5 L 281 552.5 L 281 558.5 Q 278.1 566.6 271.5 571 L 262.5 576 L 258.5 576 L 258 574.5 L 266 567.5 L 266 554.5 L 263.5 552 L 259.5 552 L 258.5 553 L 247.5 555 L 246.5 556 Q 241.8 554.8 240.5 557 L 232.5 557 L 231.5 558 L 225.5 558 L 224.5 559 L 216.5 559 L 215.5 560 L 203.5 560 L 202.5 561 L 167.5 561 L 166.5 560 L 160.5 560 L 159.5 559 L 154.5 559 L 151.5 558 L 150 560.5 L 153.5 563 L 159.5 564 L 160.5 565 L 165.5 565 L 172 568.5 L 164.5 569 L 163.5 568 L 151.5 567 Q 148.5 568.5 151.5 570 L 159.5 573 L 168 574.5 L 167.5 576 L 148.5 576 L 147.5 575 L 136.5 574 L 133 571.5 L 131 566.5 L 131 563.5 Q 132.8 562.8 132 559.5 L 134 557.5 L 134 554.5 L 131.5 554 L 127 558.5 L 125 562.5 L 123.5 570 L 122 568.5 L 120 562.5 L 120 559.5 L 123 550.5 L 115.5 545 L 109.5 543 L 104 547.5 L 101 554.5 L 101 565.5 L 102 567.5 L 100.5 567 L 97 564.5 L 94 557.5 L 94 545.5 L 98.5 539 L 103.5 539 Q 104.5 542 109.5 541 L 110.5 537 Q 112.3 535.3 116.5 536 L 117.5 535 Z " /><path fill="rgb(0,0,0)" stroke="rgb(0,0,0)" stroke-width="1" opacity="0.00784313725490196" d="M 500.5 561 L 503.5 561 L 508 563.5 L 508 567.5 L 498.5 580 L 496 579.5 L 499 573.5 L 499 567.5 L 500 566.5 L 500.5 561 Z " /><path fill="rgb(0,0,0)" stroke="rgb(0,0,0)" stroke-width="1" opacity="0.00784313725490196" d="M 168.5 607 L 177.5 607 L 181 609.5 L 181 621.5 L 180 622.5 L 180.5 624 L 173.5 624 L 166 620.5 L 166.5 608 L 168.5 607 Z " /><path fill="rgb(0,0,0)" stroke="rgb(0,0,0)" stroke-width="1" opacity="0.00784313725490196" d="M 185.5 608 Q 190.9 607.1 193 609.5 L 193 624.5 L 191.5 626 L 184 625.5 Q 183.3 622.3 185 621.5 L 185.5 608 Z " /><path fill="rgb(0,0,0)" stroke="rgb(0,0,0)" stroke-width="1" opacity="0.00784313725490196" d="M 156.5 609 Q 159.5 608.5 160 610.5 L 159 611.5 L 158.5 617 Q 154.3 615.3 156.5 609 Z " /><path fill="rgb(0,0,0)" stroke="rgb(0,0,0)" stroke-width="1" opacity="0.00784313725490196" d="M 401.5 612 L 414 612.5 L 414 633.5 L 412.5 635 L 407.5 635 L 397 631.5 L 396 629.5 L 397 628.5 L 397 614.5 L 398.5 613 L 401.5 612 Z " /><path fill="rgb(0,0,0)" stroke="rgb(0,0,0)" stroke-width="1" opacity="0.00784313725490196" d="M 418.5 612 Q 424.3 611.2 426 614.5 L 426 623.5 L 425 624.5 L 424.5 633 L 419.5 635 L 418 632.5 L 418.5 612 Z " /><path fill="rgb(0,0,0)" stroke="rgb(0,0,0)" stroke-width="1" opacity="0.00784313725490196" d="M 390.5 615 L 392 616.5 L 392 623.5 L 389.5 628 L 388 626.5 L 388 617.5 L 390.5 615 Z " /></svg>