<svg viewBox="0 0 640 586" version="1.1" xmlns="http://www.w3.org/2000/svg" desc="Created with imagetracer.js version 1.2.6" ><path fill="rgb(0,0,0)" stroke="rgb(0,0,0)" stroke-width="1" opacity="0.00392156862745098" d="M 0.5 0 L 319 0.5 Q 303.2 2.7 296 13.5 L 271 58.5 L 269 60.5 L 267 65.5 L 265 67.5 L 263 72.5 L 261 74.5 L 259 79.5 L 257 81.5 L 255 86.5 L 253 88.5 L 251 93.5 L 249 95.5 L 246 102.5 L 232 125.5 L 230 130.5 L 224 139.5 L 221 146.5 L 219 148.5 L 205 174.5 L 195 190.5 L 192 197.5 L 190 199.5 L 176 225.5 L 166 241.5 L 163 248.5 L 161 250.5 L 147 276.5 L 141 285.5 L 138 292.5 L 124 315.5 L 114 334.5 L 112 336.5 L 109 343.5 L 107 345.5 L 105 350.5 L 103 352.5 L 101 357.5 L 83 387.5 L 80 394.5 L 78 396.5 L 76 401.5 L 58 431.5 L 55 438.5 L 53 440.5 L 31 480.5 L 29 482.5 L 26 489.5 L 13 510.5 L 3 529.5 L 0.5 539 L 0.5 0 Z " /><path fill="rgb(0,0,0)" stroke="rgb(0,0,0)" stroke-width="1" opacity="0.00392156862745098" d="M 327.5 0 L 640 0.5 L 639.5 539 L 639 534.5 L 634 522.5 L 628 513.5 L 606 472.5 L 604 470.5 L 601 463.5 L 599 461.5 L 576 418.5 L 570 409.5 L 542 357.5 L 536 348.5 L 513 305.5 L 507 296.5 L 479 244.5 L 473 235.5 L 445 183.5 L 439 174.5 L 416 131.5 L 410 122.5 L 382 70.5 L 376 61.5 L 353 18.5 L 350 13.5 L 343.5 7 L 334.5 2 L 327.5 1 L 327.5 0 Z " /><path fill="rgb(0,0,0)" stroke="rgb(0,0,0)" stroke-width="1" opacity="0.00392156862745098" d="M 639.5 550 L 640 585.5 L 607.5 586 L 607.5 585 L 611.5 585 L 622.5 580 L 630 573.5 L 636 564.5 L 639 555.5 L 639.5 550 Z " /><path fill="rgb(0,0,0)" stroke="rgb(0,0,0)" stroke-width="1" opacity="0.00392156862745098" d="M 0.5 553 L 1 557.5 L 5 567.5 L 16.5 580 L 24.5 584 L 32 585.5 L 0.5 586 L 0.5 553 Z " /><path fill="rgb(0,0,0)" stroke="rgb(0,0,0)" stroke-width="1" opacity="0.996078431372549" d="M 319.5 0 L 326.5 0 L 327.5 1 L 334.5 2 Q 344.2 5.8 350 13.5 L 371 52.5 L 373 54.5 L 376 61.5 L 378 63.5 L 390 86.5 L 392 88.5 L 395 95.5 L 397 97.5 L 400 104.5 L 402 106.5 L 405 113.5 L 407 115.5 L 410 122.5 L 416 131.5 L 429 156.5 L 431 158.5 L 434 165.5 L 436 167.5 L 439 174.5 L 445 183.5 L 458 208.5 L 460 210.5 L 463 217.5 L 465 219.5 L 468 226.5 L 470 228.5 L 473 235.5 L 475 237.5 L 497 278.5 L 499 280.5 L 502 287.5 L 504 289.5 L 507 296.5 L 509 298.5 L 531 339.5 L 533 341.5 L 536 348.5 L 542 357.5 L 570 409.5 L 576 418.5 L 604 470.5 L 606 472.5 L 628 513.5 L 634 522.5 L 639 534.5 Q 638 538.5 640 539.5 L 640 549.5 L 639 550.5 L 639 555.5 L 636 564.5 L 626.5 577 L 614.5 584 L 607.5 585 L 606.5 586 L 32.5 586 L 31.5 585 L 24.5 584 L 16.5 580 L 7 570.5 L 3 563.5 L 1 557.5 Q 2 553.5 0 552.5 L 0 539.5 L 1 538.5 L 1 535.5 L 3 529.5 L 13 510.5 L 26 489.5 L 29 482.5 L 31 480.5 L 53 440.5 L 55 438.5 L 58 431.5 L 60 429.5 L 62 424.5 L 80 394.5 L 83 387.5 L 85 385.5 L 87 380.5 L 89 378.5 L 91 373.5 L 109 343.5 L 112 336.5 L 114 334.5 L 128 308.5 L 138 292.5 L 141 285.5 L 143 283.5 L 157 257.5 L 163 248.5 L 166 241.5 L 168 239.5 L 182 213.5 L 192 197.5 L 195 190.5 L 197 188.5 L 211 162.5 L 221 146.5 L 224 139.5 L 226 137.5 L 240 111.5 L 246 102.5 L 249 95.5 L 259 79.5 L 273 53.5 L 275 51.5 L 278 44.5 L 280 42.5 L 294 16.5 L 303.5 6 L 311.5 2 L 318.5 1 L 319.5 0 Z M 320 9 Q 319 11 316 10 L 307 15 L 298 28 L 295 35 L 277 65 L 275 70 L 273 72 L 271 77 L 269 79 L 266 86 L 256 102 L 242 128 L 240 130 L 237 137 L 231 146 L 217 172 L 215 174 L 212 181 L 202 197 L 188 223 L 186 225 L 183 232 L 173 248 L 159 274 L 157 276 L 154 283 L 148 292 L 134 318 L 132 320 L 129 327 L 111 357 L 109 362 L 107 364 L 105 369 L 103 371 L 100 378 L 82 408 L 80 413 L 78 415 L 76 420 L 74 422 L 71 429 L 53 459 L 51 464 L 49 466 L 46 473 L 44 475 L 26 508 L 20 517 L 11 534 L 10 540 L 9 541 L 9 552 Q 11 552 10 557 L 16 568 L 23 573 L 33 577 L 607 577 Q 607 575 611 576 L 620 571 L 628 561 L 630 555 L 630 551 L 631 550 L 631 540 L 626 527 L 611 502 L 583 450 L 577 441 L 549 389 L 543 380 L 540 373 L 538 371 L 535 364 L 533 362 L 511 321 L 509 319 L 506 312 L 504 310 L 482 269 L 480 267 L 477 260 L 475 258 L 472 251 L 470 249 L 448 208 L 446 206 L 443 199 L 441 197 L 419 156 L 417 154 L 414 147 L 412 145 L 409 138 L 407 136 L 404 129 L 402 127 L 385 95 L 383 93 L 380 86 L 378 84 L 375 77 L 373 75 L 370 68 L 368 66 L 365 59 L 363 57 L 342 18 Q 337 13 331 10 Q 327 11 327 9 L 320 9 Z " /><path fill="rgb(0,0,0)" stroke="rgb(0,0,0)" stroke-width="1" opacity="0.996078431372549" d="M 319.5 21 L 328.5 21 L 335 25.5 L 358 69.5 L 360 71.5 L 365 82.5 L 367 84.5 L 372 95.5 L 374 97.5 L 385 119.5 L 387 121.5 L 392 132.5 L 394 134.5 L 399 145.5 L 401 147.5 L 406 158.5 L 408 160.5 L 413 171.5 L 415 173.5 L 420 184.5 L 422 186.5 L 440 221.5 L 442 223.5 L 447 234.5 L 449 236.5 L 454 247.5 L 456 249.5 L 461 260.5 L 463 262.5 L 468 273.5 L 470 275.5 L 495 323.5 L 497 325.5 L 502 336.5 L 504 338.5 L 509 349.5 L 511 351.5 L 516 362.5 L 518 364.5 L 523 375.5 L 525 377.5 L 550 425.5 L 552 427.5 L 557 438.5 L 559 440.5 L 564 451.5 L 566 453.5 L 571 464.5 L 573 466.5 L 578 477.5 L 580 479.5 L 605 527.5 L 607 529.5 L 612 540.5 L 614 542.5 L 618 550.5 L 618 557.5 L 612.5 564 L 609.5 565 L 23.5 565 L 20.5 564 L 16 559.5 L 15 556.5 L 15 551.5 L 36 513.5 L 38 511.5 L 41 504.5 L 55 481.5 L 58 474.5 L 76 444.5 L 79 437.5 L 93 414.5 L 96 407.5 L 110 384.5 L 113 377.5 L 131 347.5 L 134 340.5 L 148 317.5 L 151 310.5 L 165 287.5 L 168 280.5 L 186 250.5 L 189 243.5 L 207 213.5 L 210 206.5 L 224 183.5 L 227 176.5 L 241 153.5 L 244 146.5 L 262 116.5 L 265 109.5 L 279 86.5 L 282 79.5 L 300 49.5 L 303 42.5 L 305 40.5 L 311 28.5 L 315.5 23 L 319.5 21 Z M 324 52 L 46 542 L 46 543 L 589 543 L 586 539 L 581 528 L 579 526 L 574 515 L 572 513 L 567 502 L 565 500 L 561 491 L 559 489 L 554 478 L 552 476 L 547 465 L 545 463 L 540 452 L 538 450 L 533 439 L 531 437 L 526 426 L 524 424 L 519 413 L 517 411 L 512 400 L 504 387 L 471 324 L 469 322 L 464 311 L 456 298 L 437 261 L 435 259 L 416 222 L 414 220 L 409 209 L 401 196 L 396 185 L 394 183 L 382 159 L 380 157 L 375 146 L 373 144 L 368 133 L 366 131 L 361 120 L 359 118 L 354 107 L 346 94 L 327 57 L 325 55 L 325 53 L 324 52 Z " /><path fill="rgb(0,0,0)" stroke="rgb(0,0,0)" stroke-width="1" opacity="0.996078431372549" d="M 323.5 236 L 326.5 237 L 339.5 237 L 340.5 238 L 347.5 238 L 348.5 239 L 352.5 239 L 353.5 240 L 361.5 241 L 370.5 244 L 373.5 246 L 375.5 246 Q 395.3 254.7 408 270.5 L 417 285.5 L 417 287.5 L 419 290.5 L 420 297.5 L 421 298.5 L 420 299.5 L 420 309.5 L 419 310.5 L 419 319.5 L 418 320.5 L 418 329.5 L 417 330.5 L 417 339.5 L 416 340.5 L 416 350.5 L 415 351.5 L 415 360.5 L 414 361.5 L 413 380.5 L 412 381.5 L 412 391.5 L 411 392.5 L 411 401.5 L 410 402.5 L 409 421.5 L 408 422.5 L 408 432.5 L 407 433.5 L 407 442.5 L 406 443.5 L 405 462.5 L 404 463.5 L 404 473.5 L 403 474.5 L 403 483.5 L 402 484.5 L 402 493.5 L 401 494.5 L 401 503.5 L 400 504.5 L 399.5 510 L 382.5 509 L 381.5 508 L 372.5 508 L 371.5 507 L 362.5 507 L 361.5 506 L 352.5 506 L 349 504.5 Q 348.3 501.2 350 500.5 L 350 494.5 L 351 493.5 L 351 487.5 L 352 486.5 L 352 480.5 L 353 479.5 L 353 473.5 L 354 472.5 L 355 458.5 L 356 457.5 L 356 451.5 L 357 450.5 L 357 444.5 L 358 443.5 L 358 436.5 L 359 435.5 L 360 422.5 L 361 421.5 L 361 414.5 L 362 413.5 L 362 407.5 L 363 406.5 L 363 399.5 L 364 398.5 L 364 391.5 L 365 390.5 L 365 384.5 L 366 383.5 L 366 376.5 L 367 375.5 L 367 368.5 L 368 367.5 L 369 352.5 L 370 351.5 L 370 343.5 L 371 342.5 L 371 334.5 L 372 333.5 L 372 325.5 L 373 324.5 L 373 315.5 L 374 314.5 L 375 293.5 L 372 285.5 L 365.5 279 L 360.5 276 L 354.5 274 L 351.5 274 L 350.5 273 L 346.5 273 L 345.5 272 L 303.5 272 L 302.5 273 L 297.5 273 L 296.5 274 L 290.5 275 Q 282.1 278.1 277 284.5 L 274 291.5 L 274 309.5 L 275 310.5 L 276 329.5 L 277 330.5 L 277 338.5 L 278 339.5 L 278 346.5 L 279 347.5 L 279 355.5 L 280 356.5 L 280 363.5 L 281 364.5 L 281 371.5 L 282 372.5 L 283 387.5 L 284 388.5 L 285 402.5 L 286 403.5 L 286 409.5 L 287 410.5 L 287 417.5 L 288 418.5 L 288 424.5 L 289 425.5 L 289 432.5 L 290 433.5 L 290 439.5 L 291 440.5 L 291 446.5 L 292 447.5 L 292 454.5 L 293 455.5 L 293 461.5 L 294 462.5 L 294 468.5 L 295 469.5 L 295 475.5 L 296 476.5 L 296 482.5 L 297 483.5 L 297 489.5 L 298 490.5 L 298 496.5 L 299 497.5 L 299 503.5 L 300 504.5 L 296.5 506 L 287.5 506 L 286.5 507 L 277.5 507 L 276.5 508 L 267.5 508 L 266.5 509 L 248.5 510 L 248 499.5 L 247 498.5 L 247 489.5 L 246 488.5 L 246 479.5 L 245 478.5 L 245 468.5 L 244 467.5 L 244 458.5 L 243 457.5 L 243 448.5 L 242 447.5 L 242 438.5 L 241 437.5 L 240 417.5 L 239 416.5 L 239 407.5 L 238 406.5 L 238 397.5 L 237 396.5 L 236 376.5 L 235 375.5 L 235 366.5 L 234 365.5 L 234 356.5 L 233 355.5 L 233 345.5 L 232 344.5 L 232 335.5 L 231 334.5 L 230 315.5 L 229 314.5 L 228 295.5 L 231 286.5 L 237 275.5 Q 242.7 266.7 250.5 260 L 266.5 249 L 287.5 241 L 290.5 241 L 295.5 239 L 300.5 239 L 301.5 238 L 307.5 238 L 308.5 237 L 322.5 237 L 323.5 236 Z M 289 465 L 288 466 L 282 466 L 281 467 L 275 467 L 274 468 L 268 468 L 267 469 L 253 470 L 250 472 L 251 473 L 251 479 L 252 480 L 252 486 L 253 487 L 254 501 L 256 503 L 272 502 L 273 501 L 281 501 L 282 500 L 289 500 L 293 499 L 292 484 L 291 483 L 291 476 L 290 475 L 290 469 L 289 465 Z M 362 467 L 360 472 L 360 479 L 359 480 L 359 487 L 358 488 L 358 494 L 357 495 L 357 501 L 363 501 L 364 502 L 372 502 L 373 503 L 381 503 L 382 504 L 390 504 Q 391 506 396 505 L 396 498 L 397 497 L 397 491 L 398 490 L 398 483 L 399 482 L 399 476 L 400 473 L 362 467 Z " /><path fill="rgb(29,24,12)" stroke="rgb(29,24,12)" stroke-width="1" opacity="1" d="M 306.5 15 L 307 15.5 L 304.5 18 L 304 17.5 L 306.5 15 Z " /><path fill="rgb(29,24,12)" stroke="rgb(29,24,12)" stroke-width="1" opacity="1" d="M 317.5 236 L 323 236.5 L 317.5 237 L 317.5 236 Z " /><path fill="rgb(29,24,12)" stroke="rgb(29,24,12)" stroke-width="1" opacity="1" d="M 326.5 236 L 331 236.5 L 326.5 237 L 326.5 236 Z " /><path fill="rgb(29,24,12)" stroke="rgb(29,24,12)" stroke-width="1" opacity="1" d="M 399.5 261 L 404 265.5 L 403.5 266 L 399 261.5 L 399.5 261 Z " /><path fill="rgb(29,24,12)" stroke="rgb(29,24,12)" stroke-width="1" opacity="1" d="M 374.5 293 L 375 302.5 L 374 302.5 L 374.5 293 Z " /><path fill="rgb(29,24,12)" stroke="rgb(29,24,12)" stroke-width="1" opacity="1" d="M 420.5 299 L 421 301.5 L 420 301.5 L 420.5 299 Z " /><path fill="rgb(29,24,12)" stroke="rgb(29,24,12)" stroke-width="1" opacity="1" d="M 228.5 304 L 229 306.5 L 228 306.5 L 228.5 304 Z " /><path fill="rgb(29,24,12)" stroke="rgb(29,24,12)" stroke-width="1" opacity="1" d="M 274.5 307 L 275 309.5 L 274 309.5 L 274.5 307 Z " /><path fill="rgb(29,24,12)" stroke="rgb(29,24,12)" stroke-width="1" opacity="1" d="M 230.5 325 L 231 327.5 L 230 327.5 L 230.5 325 Z " /><path fill="rgb(29,24,12)" stroke="rgb(29,24,12)" stroke-width="1" opacity="1" d="M 417.5 330 L 418 332.5 L 417 332.5 L 417.5 330 Z " /><path fill="rgb(29,24,12)" stroke="rgb(29,24,12)" stroke-width="1" opacity="1" d="M 231.5 335 L 232 337.5 L 231 337.5 L 231.5 335 Z " /><path fill="rgb(29,24,12)" stroke="rgb(29,24,12)" stroke-width="1" opacity="1" d="M 416.5 340 L 417 342.5 L 416 342.5 L 416.5 340 Z " /><path fill="rgb(29,24,12)" stroke="rgb(29,24,12)" stroke-width="1" opacity="1" d="M 232.5 345 L 233 347.5 L 232 347.5 L 232.5 345 Z " /><path fill="rgb(29,24,12)" stroke="rgb(29,24,12)" stroke-width="1" opacity="1" d="M 234.5 366 L 235 368.5 L 234 368.5 L 234.5 366 Z " /><path fill="rgb(29,24,12)" stroke="rgb(29,24,12)" stroke-width="1" opacity="1" d="M 413.5 371 L 414 373.5 L 413 373.5 L 413.5 371 Z " /><path fill="rgb(29,24,12)" stroke="rgb(29,24,12)" stroke-width="1" opacity="1" d="M 235.5 376 L 236 378.5 L 235 378.5 L 235.5 376 Z " /><path fill="rgb(29,24,12)" stroke="rgb(29,24,12)" stroke-width="1" opacity="1" d="M 412.5 381 L 413 383.5 L 412 383.5 L 412.5 381 Z " /><path fill="rgb(29,24,12)" stroke="rgb(29,24,12)" stroke-width="1" opacity="1" d="M 236.5 386 L 237 388.5 L 236 388.5 L 236.5 386 Z " /><path fill="rgb(29,24,12)" stroke="rgb(29,24,12)" stroke-width="1" opacity="1" d="M 238.5 407 L 239 409.5 L 238 409.5 L 238.5 407 Z " /><path fill="rgb(29,24,12)" stroke="rgb(29,24,12)" stroke-width="1" opacity="1" d="M 409.5 412 L 410 414.5 L 409 414.5 L 409.5 412 Z " /><path fill="rgb(29,24,12)" stroke="rgb(29,24,12)" stroke-width="1" opacity="1" d="M 239.5 417 L 240 419.5 L 239 419.5 L 239.5 417 Z " /><path fill="rgb(29,24,12)" stroke="rgb(29,24,12)" stroke-width="1" opacity="1" d="M 408.5 422 L 409 424.5 L 408 424.5 L 408.5 422 Z " /><path fill="rgb(29,24,12)" stroke="rgb(29,24,12)" stroke-width="1" opacity="1" d="M 240.5 427 L 241 429.5 L 240 429.5 L 240.5 427 Z " /><path fill="rgb(29,24,12)" stroke="rgb(29,24,12)" stroke-width="1" opacity="1" d="M 242.5 448 L 243 450.5 L 242 450.5 L 242.5 448 Z " /><path fill="rgb(29,24,12)" stroke="rgb(29,24,12)" stroke-width="1" opacity="1" d="M 405.5 453 L 406 455.5 L 405 455.5 L 405.5 453 Z " /><path fill="rgb(29,24,12)" stroke="rgb(29,24,12)" stroke-width="1" opacity="1" d="M 243.5 458 L 244 460.5 L 243 460.5 L 243.5 458 Z " /><path fill="rgb(29,24,12)" stroke="rgb(29,24,12)" stroke-width="1" opacity="1" d="M 404.5 463 L 405 465.5 L 404 465.5 L 404.5 463 Z " /><path fill="rgb(29,24,12)" stroke="rgb(29,24,12)" stroke-width="1" opacity="1" d="M 244.5 468 L 245 470.5 L 244 470.5 L 244.5 468 Z " /><path fill="rgb(29,24,12)" stroke="rgb(29,24,12)" stroke-width="1" opacity="1" d="M 246.5 489 L 247 491.5 L 246 491.5 L 246.5 489 Z " /><path fill="rgb(29,24,12)" stroke="rgb(29,24,12)" stroke-width="1" opacity="1" d="M 401.5 494 L 402 496.5 L 401 496.5 L 401.5 494 Z " /><path fill="rgb(29,24,12)" stroke="rgb(29,24,12)" stroke-width="1" opacity="1" d="M 247.5 499 L 248 501.5 L 247 501.5 L 247.5 499 Z " /><path fill="rgb(29,24,12)" stroke="rgb(29,24,12)" stroke-width="1" opacity="1" d="M 400.5 504 L 401 506.5 L 400 506.5 L 400.5 504 Z " /><path fill="rgb(29,24,12)" stroke="rgb(29,24,12)" stroke-width="1" opacity="1" d="M 297.5 505 L 300 505.5 L 297.5 506 L 297.5 505 Z " /><path fill="rgb(29,24,12)" stroke="rgb(29,24,12)" stroke-width="1" opacity="1" d="M 349.5 505 L 352 505.5 L 349.5 506 L 349.5 505 Z " /><path fill="rgb(29,24,12)" stroke="rgb(29,24,12)" stroke-width="1" opacity="1" d="M 287.5 506 L 290 506.5 L 287.5 507 L 287.5 506 Z " /><path fill="rgb(29,24,12)" stroke="rgb(29,24,12)" stroke-width="1" opacity="1" d="M 359.5 506 L 362 506.5 L 359.5 507 L 359.5 506 Z " /><path fill="rgb(29,24,12)" stroke="rgb(29,24,12)" stroke-width="1" opacity="1" d="M 277.5 507 L 280 507.5 L 277.5 508 L 277.5 507 Z " /><path fill="rgb(29,24,12)" stroke="rgb(29,24,12)" stroke-width="1" opacity="1" d="M 369.5 507 L 372 507.5 L 369.5 508 L 369.5 507 Z " /><path fill="rgb(29,24,12)" stroke="rgb(29,24,12)" stroke-width="1" opacity="1" d="M 267.5 508 L 270 508.5 L 267.5 509 L 267.5 508 Z " /><path fill="rgb(29,24,12)" stroke="rgb(29,24,12)" stroke-width="1" opacity="1" d="M 379.5 508 L 382 508.5 L 379.5 509 L 379.5 508 Z " /><path fill="rgb(29,24,12)" stroke="rgb(29,24,12)" stroke-width="1" opacity="1" d="M 257.5 509 L 260 509.5 L 257.5 510 L 257.5 509 Z " /><path fill="rgb(29,24,12)" stroke="rgb(29,24,12)" stroke-width="1" opacity="1" d="M 389.5 509 L 392 509.5 L 389.5 510 L 389.5 509 Z " /><path fill="rgb(29,24,12)" stroke="rgb(29,24,12)" stroke-width="1" opacity="1" d="M 630.5 547 L 631 549.5 L 630 549.5 L 630.5 547 Z " /><path fill="rgb(29,24,12)" stroke="rgb(29,24,12)" stroke-width="1" opacity="1" d="M 16.5 567 L 20 570.5 L 19.5 571 L 16 567.5 L 16.5 567 Z " /><path fill="rgb(142,112,0)" stroke="rgb(142,112,0)" stroke-width="1" opacity="1" d="M 313.5 236 L 317 236.5 L 313.5 237 L 313.5 236 Z " /><path fill="rgb(142,112,0)" stroke="rgb(142,112,0)" stroke-width="1" opacity="1" d="M 331.5 236 L 335 236.5 L 331.5 237 L 331.5 236 Z " /><path fill="rgb(142,112,0)" stroke="rgb(142,112,0)" stroke-width="1" opacity="1" d="M 342.5 237 L 345 237.5 L 342.5 238 L 342.5 237 Z " /><path fill="rgb(142,112,0)" stroke="rgb(142,112,0)" stroke-width="1" opacity="1" d="M 304.5 272 L 307 272.5 L 304.5 273 L 304.5 272 Z " /><path fill="rgb(142,112,0)" stroke="rgb(142,112,0)" stroke-width="1" opacity="1" d="M 341.5 272 L 344 272.5 L 341.5 273 L 341.5 272 Z " /><path fill="rgb(142,112,0)" stroke="rgb(142,112,0)" stroke-width="1" opacity="1" d="M 227.5 297 L 228 299.5 L 227 299.5 L 227.5 297 Z " /><path fill="rgb(142,112,0)" stroke="rgb(142,112,0)" stroke-width="1" opacity="1" d="M 274.5 302 L 275 306.5 L 274 306.5 L 274.5 302 Z " /><path fill="rgb(142,112,0)" stroke="rgb(142,112,0)" stroke-width="1" opacity="1" d="M 420.5 302 L 421 304.5 L 420 304.5 L 420.5 302 Z " /><path fill="rgb(142,112,0)" stroke="rgb(142,112,0)" stroke-width="1" opacity="1" d="M 228.5 307 L 229 309.5 L 228 309.5 L 228.5 307 Z " /><path fill="rgb(142,112,0)" stroke="rgb(142,112,0)" stroke-width="1" opacity="1" d="M 373.5 309 L 374 312.5 L 373 312.5 L 373.5 309 Z " /><path fill="rgb(142,112,0)" stroke="rgb(142,112,0)" stroke-width="1" opacity="1" d="M 419.5 312 L 420 314.5 L 419 314.5 L 419.5 312 Z " /><path fill="rgb(142,112,0)" stroke="rgb(142,112,0)" stroke-width="1" opacity="1" d="M 275.5 315 L 276 317.5 L 275 317.5 L 275.5 315 Z " /><path fill="rgb(142,112,0)" stroke="rgb(142,112,0)" stroke-width="1" opacity="1" d="M 229.5 317 L 230 319.5 L 229 319.5 L 229.5 317 Z " /><path fill="rgb(142,112,0)" stroke="rgb(142,112,0)" stroke-width="1" opacity="1" d="M 372.5 320 L 373 322.5 L 372 322.5 L 372.5 320 Z " /><path fill="rgb(142,112,0)" stroke="rgb(142,112,0)" stroke-width="1" opacity="1" d="M 418.5 322 L 419 324.5 L 418 324.5 L 418.5 322 Z " /><path fill="rgb(142,112,0)" stroke="rgb(142,112,0)" stroke-width="1" opacity="1" d="M 276.5 325 L 277 327.5 L 276 327.5 L 276.5 325 Z " /><path fill="rgb(142,112,0)" stroke="rgb(142,112,0)" stroke-width="1" opacity="1" d="M 417.5 333 L 418 335.5 L 417 335.5 L 417.5 333 Z " /><path fill="rgb(142,112,0)" stroke="rgb(142,112,0)" stroke-width="1" opacity="1" d="M 277.5 334 L 278 336.5 L 277 336.5 L 277.5 334 Z " /><path fill="rgb(142,112,0)" stroke="rgb(142,112,0)" stroke-width="1" opacity="1" d="M 231.5 338 L 232 340.5 L 231 340.5 L 231.5 338 Z " /><path fill="rgb(142,112,0)" stroke="rgb(142,112,0)" stroke-width="1" opacity="1" d="M 416.5 343 L 417 345.5 L 416 345.5 L 416.5 343 Z " /><path fill="rgb(142,112,0)" stroke="rgb(142,112,0)" stroke-width="1" opacity="1" d="M 369.5 347 L 370 349.5 L 369 349.5 L 369.5 347 Z " /><path fill="rgb(142,112,0)" stroke="rgb(142,112,0)" stroke-width="1" opacity="1" d="M 232.5 348 L 233 350.5 L 232 350.5 L 232.5 348 Z " /><path fill="rgb(142,112,0)" stroke="rgb(142,112,0)" stroke-width="1" opacity="1" d="M 279.5 351 L 280 353.5 L 279 353.5 L 279.5 351 Z " /><path fill="rgb(142,112,0)" stroke="rgb(142,112,0)" stroke-width="1" opacity="1" d="M 415.5 353 L 416 355.5 L 415 355.5 L 415.5 353 Z " /><path fill="rgb(142,112,0)" stroke="rgb(142,112,0)" stroke-width="1" opacity="1" d="M 233.5 358 L 234 360.5 L 233 360.5 L 233.5 358 Z " /><path fill="rgb(142,112,0)" stroke="rgb(142,112,0)" stroke-width="1" opacity="1" d="M 414.5 363 L 415 365.5 L 414 365.5 L 414.5 363 Z " /><path fill="rgb(142,112,0)" stroke="rgb(142,112,0)" stroke-width="1" opacity="1" d="M 413.5 374 L 414 376.5 L 413 376.5 L 413.5 374 Z " /><path fill="rgb(142,112,0)" stroke="rgb(142,112,0)" stroke-width="1" opacity="1" d="M 235.5 379 L 236 381.5 L 235 381.5 L 235.5 379 Z " /><path fill="rgb(142,112,0)" stroke="rgb(142,112,0)" stroke-width="1" opacity="1" d="M 412.5 384 L 413 386.5 L 412 386.5 L 412.5 384 Z " /><path fill="rgb(142,112,0)" stroke="rgb(142,112,0)" stroke-width="1" opacity="1" d="M 364.5 387 L 365 389.5 L 364 389.5 L 364.5 387 Z " /><path fill="rgb(142,112,0)" stroke="rgb(142,112,0)" stroke-width="1" opacity="1" d="M 236.5 389 L 237 391.5 L 236 391.5 L 236.5 389 Z " /><path fill="rgb(142,112,0)" stroke="rgb(142,112,0)" stroke-width="1" opacity="1" d="M 411.5 394 L 412 396.5 L 411 396.5 L 411.5 394 Z " /><path fill="rgb(142,112,0)" stroke="rgb(142,112,0)" stroke-width="1" opacity="1" d="M 237.5 399 L 238 401.5 L 237 401.5 L 237.5 399 Z " /><path fill="rgb(142,112,0)" stroke="rgb(142,112,0)" stroke-width="1" opacity="1" d="M 410.5 404 L 411 406.5 L 410 406.5 L 410.5 404 Z " /><path fill="rgb(142,112,0)" stroke="rgb(142,112,0)" stroke-width="1" opacity="1" d="M 286.5 406 L 287 408.5 L 286 408.5 L 286.5 406 Z " /><path fill="rgb(142,112,0)" stroke="rgb(142,112,0)" stroke-width="1" opacity="1" d="M 409.5 415 L 410 417.5 L 409 417.5 L 409.5 415 Z " /><path fill="rgb(142,112,0)" stroke="rgb(142,112,0)" stroke-width="1" opacity="1" d="M 239.5 420 L 240 422.5 L 239 422.5 L 239.5 420 Z " /><path fill="rgb(142,112,0)" stroke="rgb(142,112,0)" stroke-width="1" opacity="1" d="M 408.5 425 L 409 427.5 L 408 427.5 L 408.5 425 Z " /><path fill="rgb(142,112,0)" stroke="rgb(142,112,0)" stroke-width="1" opacity="1" d="M 240.5 430 L 241 432.5 L 240 432.5 L 240.5 430 Z " /><path fill="rgb(142,112,0)" stroke="rgb(142,112,0)" stroke-width="1" opacity="1" d="M 358.5 432 L 359 434.5 L 358 434.5 L 358.5 432 Z " /><path fill="rgb(142,112,0)" stroke="rgb(142,112,0)" stroke-width="1" opacity="1" d="M 407.5 435 L 408 437.5 L 407 437.5 L 407.5 435 Z " /><path fill="rgb(142,112,0)" stroke="rgb(142,112,0)" stroke-width="1" opacity="1" d="M 241.5 440 L 242 442.5 L 241 442.5 L 241.5 440 Z " /><path fill="rgb(142,112,0)" stroke="rgb(142,112,0)" stroke-width="1" opacity="1" d="M 406.5 445 L 407 447.5 L 406 447.5 L 406.5 445 Z " /><path fill="rgb(142,112,0)" stroke="rgb(142,112,0)" stroke-width="1" opacity="1" d="M 405.5 456 L 406 458.5 L 405 458.5 L 405.5 456 Z " /><path fill="rgb(142,112,0)" stroke="rgb(142,112,0)" stroke-width="1" opacity="1" d="M 243.5 461 L 244 463.5 L 243 463.5 L 243.5 461 Z " /><path fill="rgb(142,112,0)" stroke="rgb(142,112,0)" stroke-width="1" opacity="1" d="M 404.5 466 L 405 468.5 L 404 468.5 L 404.5 466 Z " /><path fill="rgb(142,112,0)" stroke="rgb(142,112,0)" stroke-width="1" opacity="1" d="M 244.5 471 L 245 473.5 L 244 473.5 L 244.5 471 Z " /><path fill="rgb(142,112,0)" stroke="rgb(142,112,0)" stroke-width="1" opacity="1" d="M 397.5 472 L 400 473.5 L 398.5 473 Q 396.1 472.9 397.5 472 Z " /><path fill="rgb(142,112,0)" stroke="rgb(142,112,0)" stroke-width="1" opacity="1" d="M 403.5 476 L 404 478.5 L 403 478.5 L 403.5 476 Z " /><path fill="rgb(142,112,0)" stroke="rgb(142,112,0)" stroke-width="1" opacity="1" d="M 245.5 481 L 246 483.5 L 245 483.5 L 245.5 481 Z " /><path fill="rgb(142,112,0)" stroke="rgb(142,112,0)" stroke-width="1" opacity="1" d="M 402.5 486 L 403 488.5 L 402 488.5 L 402.5 486 Z " /><path fill="rgb(142,112,0)" stroke="rgb(142,112,0)" stroke-width="1" opacity="1" d="M 401.5 497 L 402 499.5 L 401 499.5 L 401.5 497 Z " /><path fill="rgb(142,112,0)" stroke="rgb(142,112,0)" stroke-width="1" opacity="1" d="M 276.5 500 L 279 500.5 L 276.5 501 L 276.5 500 Z " /><path fill="rgb(142,112,0)" stroke="rgb(142,112,0)" stroke-width="1" opacity="1" d="M 267.5 501 L 270 501.5 L 267.5 502 L 267.5 501 Z " /><path fill="rgb(142,112,0)" stroke="rgb(142,112,0)" stroke-width="1" opacity="1" d="M 365.5 501 L 368 501.5 L 365.5 502 L 365.5 501 Z " /><path fill="rgb(142,112,0)" stroke="rgb(142,112,0)" stroke-width="1" opacity="1" d="M 247.5 502 L 248 504.5 L 247 504.5 L 247.5 502 Z " /><path fill="rgb(142,112,0)" stroke="rgb(142,112,0)" stroke-width="1" opacity="1" d="M 258.5 502 L 261 502.5 L 258.5 503 L 258.5 502 Z " /><path fill="rgb(142,112,0)" stroke="rgb(142,112,0)" stroke-width="1" opacity="1" d="M 374.5 502 L 377 502.5 L 374.5 503 L 374.5 502 Z " /><path fill="rgb(142,112,0)" stroke="rgb(142,112,0)" stroke-width="1" opacity="1" d="M 383.5 503 L 386 503.5 L 383.5 504 L 383.5 503 Z " /><path fill="rgb(142,112,0)" stroke="rgb(142,112,0)" stroke-width="1" opacity="1" d="M 356.5 506 L 359 506.5 L 356.5 507 L 356.5 506 Z " /><path fill="rgb(142,112,0)" stroke="rgb(142,112,0)" stroke-width="1" opacity="1" d="M 366.5 507 L 369 507.5 L 366.5 508 L 366.5 507 Z " /><path fill="rgb(142,112,0)" stroke="rgb(142,112,0)" stroke-width="1" opacity="1" d="M 400.5 507 L 401 509.5 L 400 509.5 L 400.5 507 Z " /><path fill="rgb(142,112,0)" stroke="rgb(142,112,0)" stroke-width="1" opacity="1" d="M 376.5 508 L 379 508.5 L 376.5 509 L 376.5 508 Z " /><path fill="rgb(142,112,0)" stroke="rgb(142,112,0)" stroke-width="1" opacity="1" d="M 386.5 509 L 389 509.5 L 386.5 510 L 386.5 509 Z " /><path fill="rgb(142,112,0)" stroke="rgb(142,112,0)" stroke-width="1" opacity="1" d="M 396.5 510 L 399 510.5 L 396.5 511 L 396.5 510 Z " /><path fill="rgb(109,109,109)" stroke="rgb(109,109,109)" stroke-width="1" opacity="1" d="M 320.5 9 L 325 9.5 L 320.5 10 L 320.5 9 Z " /><path fill="rgb(109,109,109)" stroke="rgb(109,109,109)" stroke-width="1" opacity="1" d="M 9.5 541 L 10 550.5 L 9 550.5 L 9.5 541 Z " /><path fill="rgb(109,109,109)" stroke="rgb(109,109,109)" stroke-width="1" opacity="1" d="M 630.5 541 L 631 546.5 L 630 546.5 L 630.5 541 Z " /><path fill="rgb(109,109,109)" stroke="rgb(109,109,109)" stroke-width="1" opacity="1" d="M 618.5 552 L 619 555.5 L 618 555.5 L 618.5 552 Z " /><path fill="rgb(109,109,109)" stroke="rgb(109,109,109)" stroke-width="1" opacity="1" d="M 622.5 567 L 623 567.5 L 620.5 570 L 620 569.5 L 622.5 567 Z " /><path fill="rgb(109,109,109)" stroke="rgb(109,109,109)" stroke-width="1" opacity="1" d="M 34.5 576 L 605 576.5 L 34.5 577 L 34.5 576 Z " /><path fill="rgb(202,161,0)" stroke="rgb(202,161,0)" stroke-width="1" opacity="1" d="M 335.5 236 L 338 236.5 L 335.5 237 L 335.5 236 Z " /><path fill="rgb(202,161,0)" stroke="rgb(202,161,0)" stroke-width="1" opacity="1" d="M 249.5 260 L 250 260.5 L 243.5 267 L 243 266.5 L 249.5 260 Z " /><path fill="rgb(202,161,0)" stroke="rgb(202,161,0)" stroke-width="1" opacity="1" d="M 307.5 272 L 311 272.5 L 307.5 273 L 307.5 272 Z " /><path fill="rgb(202,161,0)" stroke="rgb(202,161,0)" stroke-width="1" opacity="1" d="M 321.5 272 L 327 272.5 L 321.5 273 L 321.5 272 Z " /><path fill="rgb(202,161,0)" stroke="rgb(202,161,0)" stroke-width="1" opacity="1" d="M 338.5 272 L 341 272.5 L 338.5 273 L 338.5 272 Z " /><path fill="rgb(202,161,0)" stroke="rgb(202,161,0)" stroke-width="1" opacity="1" d="M 367.5 281 L 370 283.5 L 369.5 284 L 367 281.5 L 367.5 281 Z " /><path fill="rgb(202,161,0)" stroke="rgb(202,161,0)" stroke-width="1" opacity="1" d="M 274.5 293 L 275 295.5 L 274 295.5 L 274.5 293 Z " /><path fill="rgb(202,161,0)" stroke="rgb(202,161,0)" stroke-width="1" opacity="1" d="M 274.5 297 L 275 301.5 L 274 301.5 L 274.5 297 Z " /><path fill="rgb(202,161,0)" stroke="rgb(202,161,0)" stroke-width="1" opacity="1" d="M 230.5 330 L 231 332.5 L 230 332.5 L 230.5 330 Z " /><path fill="rgb(202,161,0)" stroke="rgb(202,161,0)" stroke-width="1" opacity="1" d="M 234.5 371 L 235 373.5 L 234 373.5 L 234.5 371 Z " /><path fill="rgb(202,161,0)" stroke="rgb(202,161,0)" stroke-width="1" opacity="1" d="M 238.5 412 L 239 414.5 L 238 414.5 L 238.5 412 Z " /><path fill="rgb(202,161,0)" stroke="rgb(202,161,0)" stroke-width="1" opacity="1" d="M 242.5 453 L 243 455.5 L 242 455.5 L 242.5 453 Z " /><path fill="rgb(202,161,0)" stroke="rgb(202,161,0)" stroke-width="1" opacity="1" d="M 246.5 494 L 247 496.5 L 246 496.5 L 246.5 494 Z " /><path fill="rgb(202,161,0)" stroke="rgb(202,161,0)" stroke-width="1" opacity="1" d="M 292.5 506 L 295 506.5 L 292.5 507 L 292.5 506 Z " /><path fill="rgb(202,161,0)" stroke="rgb(202,161,0)" stroke-width="1" opacity="1" d="M 282.5 507 L 285 507.5 L 282.5 508 L 282.5 507 Z " /><path fill="rgb(202,161,0)" stroke="rgb(202,161,0)" stroke-width="1" opacity="1" d="M 272.5 508 L 275 508.5 L 272.5 509 L 272.5 508 Z " /><path fill="rgb(202,161,0)" stroke="rgb(202,161,0)" stroke-width="1" opacity="1" d="M 262.5 509 L 265 509.5 L 262.5 510 L 262.5 509 Z " /><path fill="rgb(202,161,0)" stroke="rgb(202,161,0)" stroke-width="1" opacity="1" d="M 587.5 541 L 588 542.5 L 46.5 543 L 46.5 542 L 586.5 542 L 587.5 541 Z " /><path fill="rgb(254,200,0)" stroke="rgb(254,200,0)" stroke-width="1" opacity="1" d="M 323.5 53 L 329 61.5 L 334 72.5 L 336 74.5 L 341 85.5 L 343 87.5 L 348 98.5 L 350 100.5 L 375 148.5 L 377 150.5 L 382 161.5 L 384 163.5 L 389 174.5 L 391 176.5 L 417 226.5 L 425 239.5 L 430 250.5 L 432 252.5 L 437 263.5 L 439 265.5 L 444 276.5 L 446 278.5 L 472 328.5 L 480 341.5 L 485 352.5 L 487 354.5 L 492 365.5 L 494 367.5 L 499 378.5 L 501 380.5 L 506 391.5 L 508 393.5 L 513 404.5 L 515 406.5 L 527 430.5 L 535 443.5 L 540 454.5 L 542 456.5 L 547 467.5 L 549 469.5 L 554 480.5 L 556 482.5 L 561 493.5 L 563 495.5 L 587 541.5 L 46.5 542 L 46 541.5 L 48 539.5 L 59 518.5 L 77 488.5 L 80 481.5 L 94 458.5 L 97 451.5 L 111 428.5 L 114 421.5 L 132 391.5 L 135 384.5 L 149 361.5 L 152 354.5 L 170 324.5 L 173 317.5 L 187 294.5 L 190 287.5 L 208 257.5 L 211 250.5 L 225 227.5 L 228 220.5 L 242 197.5 L 245 190.5 L 263 160.5 L 266 153.5 L 268 151.5 L 270 146.5 L 272 144.5 L 283 123.5 L 285 121.5 L 287 116.5 L 289 114.5 L 291 109.5 L 293 107.5 L 295 102.5 L 297 100.5 L 304 86.5 L 306 84.5 L 323.5 53 Z M 312 236 L 311 237 L 304 237 L 303 238 L 293 239 L 292 240 L 289 240 L 288 241 L 285 241 L 279 243 L 264 250 L 250 260 Q 241 267 235 278 L 230 288 L 228 294 L 228 297 L 227 298 Q 226 302 228 303 L 228 312 L 229 313 L 229 322 L 230 323 L 230 333 L 231 334 L 231 343 L 232 344 L 232 353 L 233 354 L 233 363 L 234 364 L 235 384 L 236 385 L 236 394 L 237 395 L 237 404 L 238 405 L 239 425 L 240 426 L 240 435 L 241 436 L 241 445 L 242 446 L 242 456 L 243 457 L 243 466 L 244 467 L 244 476 L 245 477 L 245 486 L 246 487 L 247 507 L 249 511 Q 253 512 255 510 L 265 510 L 266 509 L 275 509 L 276 508 L 285 508 L 286 507 L 295 507 L 296 506 L 300 506 L 299 493 L 298 492 L 298 486 L 297 485 L 297 479 L 296 478 L 296 472 L 295 471 L 295 465 L 294 464 L 294 457 L 293 456 L 293 450 L 292 449 L 292 443 L 291 442 L 291 436 L 290 435 L 290 428 L 289 427 L 289 421 L 288 420 L 288 413 L 287 412 L 287 406 L 286 405 L 286 398 L 285 397 L 285 391 L 284 390 L 283 375 L 282 374 L 282 367 L 281 366 L 281 359 L 280 358 L 280 351 L 279 350 L 278 333 L 277 332 L 277 324 L 276 323 L 276 314 L 275 313 L 275 298 L 274 297 L 275 296 L 275 291 L 276 288 L 278 285 L 286 278 L 293 275 L 301 274 L 302 273 L 311 273 L 312 272 L 321 272 L 322 273 Q 326 274 328 272 L 348 273 L 349 274 L 353 274 L 359 276 L 365 279 L 372 287 L 374 293 L 374 307 L 373 308 L 373 318 L 372 319 L 372 328 L 371 329 L 370 345 L 369 346 L 369 354 L 368 355 L 367 370 L 366 371 L 366 378 L 365 379 L 365 386 L 364 387 L 364 394 L 363 395 L 363 401 L 362 402 L 362 409 L 361 410 L 361 416 L 360 417 L 360 424 L 359 425 L 358 438 L 357 439 L 357 446 L 356 447 L 356 453 L 355 454 L 355 460 L 354 461 L 353 474 L 352 475 L 352 482 L 351 483 L 351 489 L 350 490 L 350 496 L 349 497 L 349 503 L 348 506 L 354 506 L 355 507 L 364 507 L 365 508 L 374 508 L 375 509 L 384 509 L 385 510 L 394 510 L 395 511 L 401 511 L 401 503 L 402 502 L 402 492 L 403 491 L 403 482 L 404 481 L 404 472 L 405 471 L 405 462 L 406 461 L 407 441 L 408 440 L 408 431 L 409 430 L 409 421 L 410 420 L 411 400 L 412 399 L 412 390 L 413 389 L 413 380 L 414 379 L 414 369 L 415 368 L 415 359 L 416 358 L 416 349 L 417 348 L 417 339 L 418 338 L 418 328 L 419 327 L 419 318 L 420 317 L 420 308 L 421 307 L 421 295 L 419 289 L 413 277 L 408 270 L 392 254 L 373 244 L 361 240 L 353 239 L 352 238 L 347 238 L 346 237 L 339 237 L 338 236 L 312 236 Z " /><path fill="rgb(254,200,0)" stroke="rgb(254,200,0)" stroke-width="1" opacity="1" d="M 287.5 466 L 289 466.5 L 290 480.5 L 291 481.5 L 291 488.5 L 292 489.5 Q 291 495 293 497.5 L 291.5 499 L 283.5 499 L 282.5 500 L 274.5 500 L 273.5 501 L 265.5 501 L 264.5 502 Q 258.3 500.8 255.5 503 L 255 496.5 L 254 495.5 L 254 488.5 L 253 487.5 L 253 481.5 L 252 480.5 L 252 473.5 L 251 471.5 L 256.5 471 L 257.5 470 L 264.5 470 L 265.5 469 L 271.5 469 L 272.5 468 L 278.5 468 L 279.5 467 L 286.5 467 L 287.5 466 Z " /><path fill="rgb(254,200,0)" stroke="rgb(254,200,0)" stroke-width="1" opacity="1" d="M 362.5 468 Q 365.8 467.2 366.5 469 L 372.5 469 L 373.5 470 L 380.5 470 L 381.5 471 L 387.5 471 L 388.5 472 L 394.5 472 L 399 473.5 Q 399.8 476.7 398 477.5 L 398 483.5 L 397 484.5 L 397 491.5 L 396 492.5 L 396 498.5 L 395 499.5 L 394.5 504 L 387.5 504 L 386.5 503 L 379.5 503 L 378.5 502 L 370.5 502 L 369.5 501 L 361.5 501 L 357 499.5 L 358 498.5 L 358 492.5 L 359 491.5 L 359 485.5 L 360 484.5 L 361 470.5 L 362.5 468 Z " /><path fill="rgb(253,253,253)" stroke="rgb(253,253,253)" stroke-width="1" opacity="1" d="M 318.5 10 L 327.5 10 Q 328.3 11.8 331.5 11 L 342 18.5 L 345 25.5 L 347 27.5 L 355 43.5 L 361 52.5 L 389 104.5 L 395 113.5 L 423 165.5 L 429 174.5 L 457 226.5 L 463 235.5 L 486 278.5 L 492 287.5 L 520 339.5 L 526 348.5 L 554 400.5 L 556 402.5 L 578 443.5 L 580 445.5 L 583 452.5 L 589 461.5 L 617 513.5 L 623 522.5 L 629 534.5 Q 628.3 537.8 630 538.5 L 630 551.5 L 626 562.5 L 618.5 571 L 611.5 575 Q 608.3 574.3 607.5 576 L 31.5 576 L 23.5 573 L 16 566.5 L 11 557.5 Q 11.8 554.3 10 553.5 L 10 538.5 L 13 532.5 L 13 530.5 L 15 528.5 L 19 519.5 L 25 510.5 L 39 484.5 L 41 482.5 L 44 475.5 L 46 473.5 L 48 468.5 L 50 466.5 L 52 461.5 L 70 431.5 L 73 424.5 L 75 422.5 L 77 417.5 L 79 415.5 L 81 410.5 L 99 380.5 L 102 373.5 L 104 371.5 L 106 366.5 L 124 336.5 L 127 329.5 L 129 327.5 L 143 301.5 L 153 285.5 L 156 278.5 L 158 276.5 L 172 250.5 L 182 234.5 L 185 227.5 L 187 225.5 L 201 199.5 L 207 190.5 L 210 183.5 L 212 181.5 L 226 155.5 L 236 139.5 L 239 132.5 L 257 102.5 L 263 90.5 L 265 88.5 L 268 81.5 L 270 79.5 L 272 74.5 L 290 44.5 L 301 23.5 L 307.5 15 L 314.5 11 Q 317.8 11.8 318.5 10 Z M 322 20 L 316 22 L 312 26 L 306 38 L 304 40 L 301 47 L 283 77 L 280 84 L 266 107 L 263 114 L 245 144 L 242 151 L 228 174 L 225 181 L 223 183 L 209 209 L 207 211 L 204 218 L 190 241 L 187 248 L 173 271 L 170 278 L 152 308 L 149 315 L 135 338 L 132 345 L 130 347 L 116 373 L 114 375 L 111 382 L 97 405 L 94 412 L 80 435 L 77 442 L 63 465 L 61 470 L 59 472 L 56 479 L 54 481 L 39 509 L 21 539 L 14 553 L 14 556 L 16 561 L 20 564 L 25 566 L 609 566 L 614 564 L 618 560 L 619 557 L 619 552 L 612 538 L 610 536 L 605 525 L 603 523 L 578 475 L 576 473 L 571 462 L 569 460 L 564 449 L 562 447 L 557 436 L 555 434 L 550 423 L 548 421 L 543 410 L 541 408 L 523 373 L 521 371 L 516 360 L 514 358 L 509 347 L 507 345 L 502 334 L 500 332 L 495 321 L 493 319 L 475 284 L 473 282 L 468 271 L 466 269 L 461 258 L 459 256 L 454 245 L 452 243 L 447 232 L 445 230 L 440 219 L 438 217 L 433 206 L 431 204 L 420 182 L 418 180 L 413 169 L 411 167 L 406 156 L 404 154 L 399 143 L 397 141 L 392 130 L 390 128 L 385 117 L 383 115 L 378 104 L 376 102 L 371 91 L 369 89 L 365 80 L 363 78 L 358 67 L 356 65 L 351 54 L 349 52 L 335 25 L 331 21 L 322 20 Z " /><path fill="rgb(180,180,180)" stroke="rgb(180,180,180)" stroke-width="1" opacity="1" d="M 321.5 20 L 327 20.5 L 321.5 21 L 321.5 20 Z " /><path fill="rgb(180,180,180)" stroke="rgb(180,180,180)" stroke-width="1" opacity="1" d="M 315.5 22 L 316 22.5 L 312.5 26 L 312 25.5 L 315.5 22 Z " /><path fill="rgb(180,180,180)" stroke="rgb(180,180,180)" stroke-width="1" opacity="1" d="M 14.5 552 L 15 555.5 L 14 555.5 L 14.5 552 Z " /><path fill="rgb(180,180,180)" stroke="rgb(180,180,180)" stroke-width="1" opacity="1" d="M 24.5 565 L 609 565.5 L 24.5 566 L 24.5 565 Z " /></svg>