<svg viewBox="0 0 561 640" version="1.1" xmlns="http://www.w3.org/2000/svg" desc="Created with imagetracer.js version 1.2.6" ><path fill="rgb(0,0,0)" stroke="rgb(0,0,0)" stroke-width="1" opacity="0.0196078431372549" d="M 0.5 0 L 294 0.5 L 293.5 3 L 284.5 4 L 282 6.5 L 282.5 8 L 284.5 8 L 287.5 6 L 292.5 12 L 294 12.5 L 295.5 15 L 299.5 17 L 300.5 12 L 307 15.5 L 307.5 17 L 310 16.5 L 309.5 15 L 319.5 11 L 329.5 11 L 335 14.5 L 336.5 18 L 342.5 16 L 350.5 15 L 352 13.5 L 350.5 13 L 347.5 14 Q 343.3 14.8 342.5 12 L 338.5 12 L 330.5 5 L 324.5 4 L 323.5 6 L 319.5 8 L 318.5 4 L 315.5 7 L 311.5 8 Q 310.5 6 306.5 7 L 304.5 8 L 299 5.5 L 298.5 4 L 297.5 8 Q 295.5 7.5 296 4.5 L 297 2.5 L 295 0.5 L 295.5 0 L 561 0.5 L 560.5 102 L 556 94.5 Q 560.3 92.3 555.5 90 L 553.5 92 L 544.5 93 L 543 94.5 L 542 96.5 L 545.5 97 L 548.5 95 Q 551.3 96.2 551.5 100 L 557.5 105 L 561 106.5 L 560.5 640 L 334 639.5 L 338.5 639 L 345 632.5 L 345 630.5 L 339.5 624 L 335 622.5 L 335.5 621 L 340.5 620 Q 341.3 621.8 344.5 621 L 345.5 620 L 352.5 619 L 353.5 620 L 358.5 620 L 361.5 622 L 363.5 622 L 366.5 620 L 371.5 620 L 379 616.5 L 378 614.5 Q 379.3 611.8 380.5 614 L 388.5 618 L 391.5 618 L 392 616.5 L 387 612.5 L 386.5 611 Q 382.3 610.3 380.5 607 L 377 606.5 L 379.5 606 L 386 600.5 L 386 597.5 L 380.5 591 L 376.5 589 L 369.5 589 L 369 589.5 L 371.5 592 Q 376.1 592.9 378 596.5 L 376 596.5 L 375 598.5 L 378 600.5 L 368 604.5 L 369.5 606 L 374.5 607 L 376 606.5 L 375.5 608 L 370.5 609 L 364.5 613 L 361.5 612 L 360.5 614 L 350.5 614 L 347.5 615 L 346 614.5 L 345.5 616 L 342 613.5 L 337.5 608 L 334.5 607 L 334 609.5 L 336 612.5 L 336 614.5 L 338 616.5 L 336.5 617 Q 335.8 615.3 332.5 616 Q 331.5 618 327.5 617 L 325.5 614 L 323.5 617 L 315.5 616 Q 314.8 617.8 311.5 617 L 311 613.5 L 306.5 609 Q 302.3 609.7 300.5 608 L 300 609.5 L 304 616.5 L 303 616.5 L 302.5 615 L 300.5 616 L 293.5 611 L 293 612.5 L 301.5 619 L 307.5 619 Q 308.5 617 309.5 619 L 317.5 623 L 320.5 622 Q 322 625.5 328.5 624 L 334.5 627 L 337 629.5 L 335 629.5 L 334 631.5 L 336 632.5 L 334.5 635 L 328.5 636 L 326 637.5 L 330 639.5 L 0.5 640 L 0.5 0 Z M 355 3 L 354 4 L 351 4 L 342 7 L 342 8 Q 346 9 348 7 Q 351 7 352 9 L 356 9 L 357 12 L 365 18 Q 368 17 369 19 L 376 19 L 380 13 L 378 7 L 374 5 L 372 5 Q 371 10 374 12 L 373 16 L 369 14 L 368 16 L 367 16 L 360 8 L 360 6 L 359 4 L 355 3 Z M 270 4 L 269 5 L 259 7 Q 256 8 258 9 L 266 8 L 267 10 L 269 9 L 281 19 L 282 19 L 279 12 L 275 8 L 275 6 Q 274 3 270 4 Z M 379 4 L 378 6 L 386 11 L 384 14 L 386 17 L 384 18 L 378 19 L 377 21 L 381 22 L 388 22 L 388 24 L 399 30 L 404 28 L 410 23 L 413 24 L 413 26 L 415 26 L 415 25 L 422 21 L 424 26 L 427 27 L 428 31 Q 428 33 432 32 Q 433 34 434 32 Q 437 31 438 33 L 444 31 L 445 34 L 453 37 L 453 39 L 456 39 L 456 38 L 460 35 L 462 35 L 465 31 L 465 26 L 464 28 L 459 30 L 457 29 Q 452 28 452 30 L 448 29 L 445 26 L 444 28 L 437 27 Q 434 26 436 25 L 434 23 L 433 25 L 430 23 L 429 22 L 424 19 L 425 17 L 425 13 Q 424 17 419 16 Q 418 18 417 16 Q 412 15 412 17 L 410 13 L 406 15 L 405 14 Q 404 12 403 15 L 404 20 L 401 22 L 400 21 L 398 20 L 397 22 L 392 19 L 395 17 L 395 14 L 391 8 L 385 4 L 381 4 Q 380 6 379 4 Z M 253 9 L 245 19 L 244 18 L 242 17 L 241 19 L 240 19 Q 235 17 234 12 L 232 10 L 229 15 Q 230 19 233 22 L 228 25 L 226 25 L 225 24 L 224 24 L 222 23 L 221 26 L 212 21 L 209 22 L 221 30 L 225 30 L 235 23 L 243 27 L 247 25 Q 251 28 253 33 L 257 31 L 266 30 L 267 33 L 272 36 L 273 35 L 282 35 L 285 34 L 281 30 Q 276 31 275 29 L 275 28 L 274 26 L 272 27 L 264 21 L 260 22 L 263 27 L 263 29 L 254 26 L 251 23 L 255 16 L 253 9 Z M 291 19 L 290 22 L 293 27 L 294 28 L 288 26 L 286 24 L 284 25 Q 287 29 294 31 L 300 29 L 300 25 L 296 20 Q 291 21 291 19 Z M 374 21 Q 372 24 375 26 L 375 30 L 378 30 L 379 32 Q 378 37 381 39 L 376 40 L 375 42 L 377 41 Q 383 40 385 43 L 388 42 L 391 47 L 398 51 L 399 52 L 398 48 L 396 46 L 396 44 L 392 39 Q 391 36 386 37 L 386 36 L 385 33 L 385 27 L 384 25 L 377 21 L 374 21 Z M 314 22 L 314 24 L 313 25 L 308 26 L 303 29 Q 300 30 302 31 L 309 30 L 310 29 L 314 29 L 318 32 L 326 33 L 328 35 L 333 35 Q 334 32 339 33 L 343 39 L 348 37 L 356 36 L 357 35 L 364 38 L 364 40 L 363 41 L 355 42 L 352 45 L 353 46 L 359 44 L 361 49 L 364 50 L 365 53 L 370 55 L 371 53 L 369 50 L 369 48 L 366 45 L 367 42 L 365 39 L 369 38 L 372 35 L 373 32 L 372 27 L 370 24 L 367 23 L 365 24 L 365 27 L 367 31 Q 367 34 366 34 L 362 33 L 362 35 L 360 35 Q 356 33 355 29 L 353 26 L 352 27 L 352 30 L 355 34 L 353 35 L 349 33 L 346 33 Q 342 31 346 30 L 345 28 L 338 27 L 334 25 L 333 27 L 330 25 L 329 27 L 327 28 L 320 26 L 317 23 L 316 23 L 314 22 Z M 198 27 L 198 31 L 194 32 L 187 32 L 181 36 L 182 39 L 185 39 L 190 36 L 193 36 L 194 38 L 197 37 L 199 40 L 200 45 L 202 45 L 206 41 L 207 42 L 214 39 L 220 44 L 226 48 L 220 51 L 218 50 Q 213 49 213 51 L 208 49 L 206 47 L 205 48 L 206 54 L 209 56 L 213 57 L 214 60 L 217 60 L 217 59 L 225 55 L 227 51 L 227 48 L 231 47 L 238 42 L 243 44 L 247 44 L 248 46 L 255 45 L 256 49 L 259 50 L 260 53 L 265 55 L 266 55 L 264 49 L 267 46 L 273 45 L 274 47 L 277 46 L 279 49 Q 278 53 281 54 L 285 51 L 285 47 L 281 43 L 287 40 Q 290 41 289 45 L 298 51 L 299 51 L 299 48 L 295 41 Q 298 37 305 36 L 307 39 L 310 38 L 312 42 L 312 44 L 315 45 Q 318 44 317 38 L 311 32 L 303 32 Q 302 34 299 33 L 296 35 L 294 35 L 292 37 L 283 38 L 280 41 L 278 40 Q 274 39 274 41 L 267 41 L 262 44 L 261 44 L 263 42 L 261 39 L 259 41 Q 254 40 254 42 L 250 42 L 253 37 L 251 34 L 251 32 L 247 30 L 245 30 L 246 40 L 245 40 L 244 39 L 243 39 L 242 38 L 237 39 L 233 32 L 231 35 L 235 41 L 230 43 L 230 42 L 227 40 L 226 42 L 227 43 L 225 43 L 218 39 L 218 37 L 213 38 L 212 37 L 210 35 L 209 37 L 206 34 L 201 28 L 198 27 Z M 409 32 L 408 34 L 410 40 L 413 43 L 413 43 L 412 42 L 406 42 L 407 40 L 405 38 L 404 40 L 395 33 L 391 34 L 399 46 Q 400 48 403 47 Q 404 49 405 47 L 408 48 Q 410 46 415 47 Q 416 45 417 47 L 422 45 L 425 45 Q 428 47 430 52 L 434 50 L 445 50 L 448 52 L 452 50 L 457 50 L 460 48 Q 462 49 460 51 L 463 51 L 465 55 L 465 58 L 467 62 L 471 64 L 471 57 L 472 56 L 470 53 L 471 50 L 470 47 L 467 46 L 474 42 Q 478 41 479 44 L 482 43 L 484 47 L 484 50 L 486 51 L 489 48 L 489 44 L 487 41 L 486 40 L 485 39 L 483 37 L 471 38 L 468 40 L 465 44 L 461 42 L 458 44 L 451 44 L 450 43 L 448 42 L 447 44 L 435 44 L 434 45 L 432 45 L 429 42 L 421 38 L 420 42 L 416 38 L 409 32 Z M 175 39 L 171 41 L 168 41 L 162 43 L 162 44 L 167 44 L 170 43 L 170 45 L 175 45 L 177 48 L 176 49 L 179 56 L 182 57 L 183 61 Q 184 63 187 62 Q 188 64 189 62 L 192 63 L 190 64 L 188 64 Q 187 68 190 69 L 190 73 L 193 73 L 194 75 L 194 79 L 196 83 L 200 86 L 201 83 L 207 90 L 219 90 L 222 89 L 222 88 L 218 85 L 214 85 L 212 81 L 209 82 L 202 77 L 200 76 L 200 69 L 194 65 L 199 63 L 209 63 Q 210 66 215 65 L 216 67 L 215 69 L 215 70 Q 219 71 221 68 Q 224 68 223 73 L 225 73 L 231 81 L 239 86 L 244 86 L 248 84 L 253 86 L 253 88 L 256 88 L 256 87 L 263 83 L 265 80 L 265 75 L 262 78 L 259 79 L 257 78 Q 252 77 252 79 L 248 78 L 245 75 L 244 76 Q 240 77 240 75 L 237 76 Q 238 80 241 83 L 241 84 L 240 83 L 239 83 L 234 81 Q 231 80 233 79 L 233 76 L 229 69 Q 227 67 230 66 L 229 64 L 234 62 L 241 62 L 240 64 L 244 66 L 248 67 Q 249 69 250 67 Q 253 67 254 69 L 259 69 Q 259 66 263 67 L 263 69 L 266 70 Q 268 71 267 74 L 271 75 Q 272 77 273 75 Q 276 74 277 76 Q 278 74 283 75 L 285 74 L 283 71 L 276 70 Q 273 69 275 68 L 273 66 L 272 68 L 272 68 L 269 66 L 272 64 L 271 62 Q 267 63 267 61 L 260 61 L 259 62 L 258 61 L 256 59 L 254 62 L 251 62 L 247 59 L 241 57 L 241 56 L 238 55 L 238 57 L 228 61 L 225 64 L 226 65 L 222 65 L 221 66 Q 215 61 208 59 L 206 57 L 205 57 L 203 56 L 203 58 L 202 59 L 196 57 L 192 57 Q 189 56 191 55 L 190 53 L 187 54 L 183 49 L 183 47 L 179 42 L 175 39 Z M 327 41 L 327 45 L 329 47 L 329 49 L 324 51 L 324 50 L 323 49 Q 322 51 321 49 L 320 51 L 310 46 L 307 47 L 311 50 L 319 55 L 324 55 L 332 50 Q 334 51 333 54 L 338 56 L 340 55 L 343 56 L 346 55 L 348 56 L 351 55 L 351 54 L 349 51 L 342 50 L 341 47 L 338 48 Q 334 42 327 41 Z M 476 49 L 473 55 L 476 61 L 485 66 L 489 66 L 494 63 L 498 58 L 500 59 L 499 63 L 501 64 L 491 69 L 497 71 Q 497 69 502 70 L 503 74 L 512 79 Q 516 80 518 78 L 525 86 L 526 88 L 534 87 L 535 86 L 539 86 L 542 85 L 534 84 L 528 82 L 521 77 L 526 69 L 525 64 L 524 62 Q 521 64 520 68 L 516 71 L 515 70 L 513 69 L 512 71 L 509 70 L 507 68 L 510 63 L 505 56 L 500 53 L 497 49 L 494 53 L 493 53 L 493 55 L 489 59 L 488 58 L 486 56 L 485 59 L 483 58 L 476 49 Z M 148 51 Q 146 56 148 59 L 156 62 L 156 64 L 159 64 L 159 63 L 163 60 L 165 60 L 166 59 L 169 63 L 168 66 L 171 66 L 172 68 L 174 76 L 170 77 L 166 80 L 164 80 L 164 79 L 163 78 Q 162 80 161 78 L 160 80 L 149 75 L 147 76 L 155 82 L 157 82 L 162 85 L 170 81 L 175 77 L 178 79 L 179 76 L 179 70 L 178 69 Q 177 65 179 65 L 178 62 L 171 57 L 169 57 L 168 51 L 167 53 L 162 55 L 160 54 Q 155 53 155 55 L 151 54 L 148 51 Z M 303 52 L 301 54 L 298 54 L 290 59 L 291 60 L 296 60 L 300 58 L 303 60 L 305 59 L 307 59 L 314 63 L 318 63 L 316 60 L 315 59 L 313 57 L 311 56 L 306 52 L 303 52 Z M 275 56 L 275 60 L 282 67 L 284 70 L 288 68 L 292 68 L 293 67 Q 297 68 299 66 L 299 65 Q 294 64 293 66 L 290 64 L 285 63 L 283 61 L 275 56 Z M 145 64 L 144 66 L 132 66 L 130 67 L 129 69 L 132 70 Q 130 72 125 71 L 122 73 L 119 77 L 120 78 L 123 78 L 128 75 Q 132 74 133 77 L 136 76 L 137 79 Q 139 80 137 81 L 140 84 L 143 81 L 143 77 L 139 73 L 140 72 L 142 72 L 145 74 L 149 72 L 154 72 L 161 69 L 161 68 L 159 66 L 148 66 L 147 65 L 145 64 Z M 181 79 L 179 81 L 176 81 L 168 86 L 169 87 Q 175 88 178 85 L 181 87 L 183 86 L 185 86 L 192 90 L 196 90 L 195 88 L 193 86 L 191 84 L 189 83 L 184 79 L 181 79 Z M 115 83 L 102 90 L 103 91 L 108 91 L 112 89 L 115 91 L 117 90 L 119 90 L 126 94 L 130 94 L 128 91 L 118 83 L 115 83 Z M 130 85 Q 128 89 130 92 L 136 95 L 138 95 L 138 97 L 141 97 L 141 96 L 146 93 Q 151 96 154 103 L 160 101 L 168 100 Q 170 99 169 98 Q 165 97 165 99 L 155 96 L 153 94 L 149 92 L 150 89 L 150 85 L 147 87 L 145 87 L 143 89 L 141 88 Q 140 86 139 88 L 133 87 L 130 85 Z M 227 89 L 220 92 L 219 94 L 216 94 L 215 93 L 213 92 L 212 94 L 202 94 L 197 97 L 201 99 L 210 100 L 213 102 L 213 104 L 210 105 L 206 105 L 201 102 L 197 102 Q 194 101 196 100 L 195 98 L 193 99 L 190 98 L 188 96 L 184 93 L 178 93 L 177 92 L 164 96 L 164 97 L 172 96 L 173 98 L 176 97 L 179 102 L 186 107 L 188 107 L 187 104 L 187 102 Q 189 103 188 106 Q 188 108 192 107 Q 193 109 194 107 Q 197 106 198 108 L 201 107 L 202 110 L 208 108 L 210 113 L 212 113 L 214 117 L 218 118 L 219 119 L 218 112 L 215 109 L 216 106 L 214 103 L 218 100 L 223 100 L 230 97 L 226 95 L 230 93 L 232 96 L 235 94 L 239 102 L 241 101 L 243 99 L 242 98 L 243 96 L 237 89 L 227 89 Z M 111 95 L 110 96 L 112 100 Q 110 102 106 101 L 104 99 L 103 98 L 101 101 Q 96 102 96 100 L 88 102 L 89 105 L 87 104 L 85 105 L 86 109 L 88 110 L 87 113 L 90 113 L 91 115 L 92 123 L 101 133 L 102 135 L 117 132 L 117 130 Q 113 129 113 131 L 111 131 L 108 129 L 105 129 L 100 125 L 98 124 L 98 117 L 97 116 Q 96 112 98 112 L 97 110 L 92 106 L 92 105 L 95 107 L 97 106 L 101 108 Q 106 109 108 106 L 111 107 Q 112 104 117 105 L 117 108 L 121 109 Q 122 111 123 109 Q 126 108 127 110 L 135 108 L 135 108 L 133 106 L 137 104 L 140 106 L 143 106 L 146 111 L 148 111 L 150 115 L 150 116 L 156 116 L 159 115 Q 160 112 162 116 L 165 115 L 167 115 L 170 117 L 170 119 L 167 121 L 168 122 L 172 122 L 176 120 Q 179 120 180 122 L 183 120 L 190 124 L 194 129 L 202 128 L 209 126 L 201 125 Q 199 122 195 123 L 193 121 L 187 117 L 184 114 Q 178 113 177 116 L 165 108 L 162 108 L 160 110 L 154 112 L 146 101 L 141 101 L 133 104 L 126 104 L 125 102 L 123 100 L 122 102 L 119 100 L 118 99 L 113 95 L 111 95 Z M 111 111 L 110 115 L 112 119 L 119 123 L 117 123 L 117 125 L 120 131 L 122 131 L 124 135 L 127 137 L 136 137 L 136 141 L 139 145 L 140 146 L 132 143 L 131 145 L 139 149 L 146 147 L 146 143 Q 144 138 137 138 L 142 136 L 138 132 Q 133 133 132 131 L 132 130 L 131 128 L 129 129 L 123 125 L 122 123 L 130 119 L 132 115 L 132 111 L 128 114 L 126 114 Q 125 116 124 114 Q 119 113 118 115 L 113 113 L 111 111 Z M 151 117 Q 149 122 152 125 L 151 129 L 147 127 L 146 129 L 147 130 L 143 128 L 139 122 Q 138 119 137 121 L 138 126 L 145 131 L 151 133 L 154 132 Q 157 131 158 126 L 159 127 L 158 130 L 162 130 L 163 134 L 163 137 L 166 142 L 159 144 L 159 145 L 167 144 L 168 146 L 171 145 L 174 150 L 181 155 L 183 155 L 176 143 L 175 141 L 171 140 L 169 141 Q 168 136 170 135 L 168 132 L 169 127 L 163 122 L 158 121 L 156 119 L 151 117 Z M 72 123 L 71 125 L 80 135 L 81 137 L 85 135 L 89 135 L 96 133 L 89 132 L 83 130 Q 79 125 72 123 Z M 58 132 L 57 135 L 59 138 L 65 142 L 67 146 Q 70 147 71 145 L 74 147 L 73 150 L 76 151 L 77 153 L 78 158 L 80 161 L 79 162 Q 74 161 73 163 L 64 161 L 63 158 L 60 159 L 58 158 L 56 156 L 50 152 L 48 153 L 52 161 L 55 162 L 55 165 L 58 167 L 69 167 L 70 169 L 72 169 L 77 166 L 81 166 L 82 168 L 86 167 Q 88 168 87 173 L 85 174 L 85 175 Q 91 176 94 173 Q 97 172 98 174 L 100 173 L 103 173 L 109 176 L 113 176 L 109 172 L 101 169 L 100 166 L 105 164 L 109 164 Q 110 166 111 164 L 115 164 L 117 166 Q 120 165 121 167 L 124 167 L 119 162 L 115 161 Q 112 160 114 159 L 117 161 L 119 160 L 125 163 L 129 161 L 130 169 L 137 171 L 138 174 Q 140 175 138 176 L 145 179 L 150 179 L 152 181 Q 157 182 158 179 L 167 178 L 170 176 L 166 173 L 160 173 L 159 174 L 156 173 L 155 172 L 153 171 L 153 173 L 143 173 Q 141 175 140 173 L 142 171 L 148 169 L 150 166 L 150 161 L 147 163 Q 146 165 145 163 L 143 165 L 142 164 Q 137 163 136 165 Q 134 161 133 164 L 130 161 L 132 161 L 138 159 L 141 157 L 135 154 L 132 155 L 127 155 L 126 154 L 124 153 L 123 155 Q 118 156 117 154 L 116 155 Q 111 154 110 156 Q 107 157 109 159 L 96 165 L 95 166 L 97 168 L 94 170 L 93 168 Q 91 162 85 161 L 84 154 L 83 153 L 83 147 Q 83 145 80 145 L 79 144 L 83 143 L 89 152 Q 90 154 93 153 Q 94 155 95 153 Q 98 152 99 154 Q 100 152 105 153 L 107 152 L 102 148 L 98 148 Q 95 147 97 146 L 95 144 L 94 146 L 87 140 L 82 139 L 82 141 L 82 142 L 75 142 L 69 140 L 65 136 Q 60 135 58 132 Z M 183 132 L 182 135 L 186 140 L 186 141 L 185 140 L 184 140 Q 178 139 176 135 L 175 137 L 179 140 L 185 143 L 192 142 L 192 137 L 189 133 L 183 132 Z M 99 138 L 98 140 L 104 144 L 112 148 L 119 145 L 126 140 L 126 138 L 119 141 L 117 143 L 115 143 L 114 142 L 113 142 L 111 141 L 111 143 L 109 143 L 105 140 L 99 138 Z M 149 145 L 148 147 L 138 151 L 135 154 L 136 154 L 143 153 L 144 152 L 155 152 L 157 154 L 160 155 L 156 156 L 151 160 L 152 163 L 156 162 L 158 160 L 163 159 L 163 161 Q 165 164 167 160 L 169 163 Q 168 167 171 168 L 175 166 L 175 161 Q 173 156 167 155 Q 166 153 165 155 L 157 149 L 153 148 L 151 146 L 149 145 Z M 36 168 L 35 170 L 39 176 L 41 176 L 44 180 L 44 182 Q 50 181 51 186 L 47 193 L 44 196 L 42 194 L 41 193 L 39 196 L 31 186 L 28 191 L 30 197 L 38 203 L 36 204 L 32 204 L 26 206 Q 23 207 25 208 L 33 207 L 34 209 L 37 208 L 40 213 L 48 218 L 49 218 L 42 206 L 39 204 L 46 202 L 47 205 L 49 205 Q 51 205 50 209 L 54 211 L 57 210 L 59 211 L 65 211 L 68 210 L 68 209 L 65 206 Q 60 207 59 205 L 58 202 L 56 203 L 50 199 L 52 197 L 52 195 L 54 192 L 52 189 L 53 187 L 56 192 L 62 190 L 66 190 L 67 189 Q 70 188 72 190 Q 78 191 80 188 L 82 189 L 85 187 L 91 192 L 94 193 L 99 192 Q 101 191 100 189 L 106 186 Q 109 186 110 188 L 112 187 L 114 187 L 121 191 L 125 191 L 123 188 L 113 180 L 110 180 L 100 185 L 96 182 Q 91 183 91 181 L 90 184 Q 88 182 84 183 L 83 182 Q 81 184 77 183 L 75 180 L 73 183 Q 68 184 67 182 Q 65 184 61 183 L 58 185 L 52 182 L 54 180 L 57 180 L 60 179 L 53 178 L 47 176 Q 42 171 36 168 Z M 127 171 L 115 175 L 115 176 L 123 175 L 124 177 L 128 176 L 130 180 L 137 185 L 137 187 L 130 191 L 131 192 L 138 191 L 139 190 Q 142 190 143 192 L 146 190 L 155 195 L 158 195 L 157 193 L 154 190 L 153 189 Q 149 187 147 184 Q 141 183 140 186 L 132 173 Q 131 170 127 171 Z M 110 190 L 109 192 L 112 198 L 115 199 Q 117 200 116 203 L 120 205 L 125 204 L 125 206 L 125 207 L 131 207 L 134 206 L 135 205 L 138 208 L 140 206 L 148 210 L 152 210 L 151 208 L 140 199 Q 135 198 135 201 L 130 200 Q 129 198 128 200 L 125 199 L 124 197 L 122 195 L 121 197 L 119 196 L 117 194 L 112 190 L 110 190 Z M 67 193 L 66 197 Q 69 197 68 202 L 71 203 L 72 205 Q 71 210 74 212 L 69 216 L 70 219 L 80 215 L 82 218 L 85 216 L 89 224 L 93 222 L 95 225 L 100 223 L 103 229 L 107 231 L 110 237 L 114 236 L 116 244 L 122 250 L 125 250 L 126 249 L 129 249 L 135 247 L 135 246 Q 130 245 129 247 L 129 246 L 127 243 L 126 245 L 125 245 L 122 242 L 115 236 L 126 233 L 126 232 Q 121 231 121 233 Q 117 233 117 231 L 113 231 Q 109 226 102 224 L 104 222 L 110 221 L 110 220 Q 105 219 104 221 L 101 219 L 96 218 Q 91 213 85 210 L 83 211 Q 79 212 78 210 L 79 208 Q 77 205 78 199 L 71 194 L 67 193 Z M 96 196 L 95 198 L 84 198 L 80 201 L 88 204 L 93 204 L 96 206 L 100 204 L 109 203 L 112 201 L 112 200 L 110 198 L 99 198 L 98 197 L 96 196 Z M 103 206 Q 101 208 103 210 L 111 218 L 112 220 L 119 219 L 122 226 L 130 231 L 135 231 L 140 228 Q 143 225 145 221 L 143 214 L 135 224 L 134 223 L 132 221 L 131 224 L 130 224 L 125 220 L 125 218 L 127 217 L 124 216 Q 122 212 120 216 L 113 213 L 111 211 L 109 210 L 106 207 L 103 206 Z M 54 216 L 53 219 L 45 222 L 43 224 Q 41 224 41 221 L 39 218 L 36 217 L 34 218 L 34 221 L 36 227 L 34 228 Q 32 226 31 229 L 29 229 L 26 227 L 23 222 Q 22 219 21 221 L 22 226 L 26 229 L 32 232 L 38 232 L 41 229 L 41 227 L 45 225 L 48 225 L 51 223 L 52 224 L 60 224 L 63 226 L 68 226 L 66 223 L 57 219 L 57 218 L 54 216 Z M 69 226 L 69 228 L 59 228 L 54 231 L 58 233 L 67 234 L 69 236 Q 74 237 75 234 Q 78 233 79 235 L 86 231 L 82 228 L 73 228 L 72 227 L 69 226 Z M 46 232 L 45 234 L 54 240 L 51 242 L 54 244 L 50 246 L 47 246 L 48 243 L 43 237 L 39 237 L 37 237 Q 38 241 41 244 L 41 245 L 35 243 L 29 238 L 24 238 L 22 238 Q 22 243 26 245 L 26 246 L 20 244 L 16 240 L 14 241 Q 18 246 26 249 L 32 247 L 33 246 L 33 244 L 41 248 L 44 247 L 44 249 L 48 250 L 53 250 L 59 247 L 63 242 L 64 243 L 63 246 L 66 246 L 67 248 L 68 254 L 72 259 L 74 258 L 80 260 L 80 262 L 83 262 L 83 261 L 90 258 L 92 256 L 93 253 L 93 250 L 90 252 L 88 252 L 86 254 L 83 252 L 79 254 Q 78 251 75 252 L 73 249 L 73 243 L 69 239 L 62 237 L 61 239 L 58 236 L 52 232 L 46 232 Z M 87 232 L 86 234 L 90 240 L 90 241 L 89 240 L 88 240 L 82 237 L 81 239 L 89 243 L 96 242 Q 98 241 97 239 L 100 238 L 102 243 L 109 247 L 111 249 L 111 249 L 110 242 L 107 239 L 108 236 L 106 232 L 105 234 L 101 234 L 100 235 L 95 235 L 93 233 L 87 232 Z M 97 249 L 96 251 L 98 257 L 101 260 L 101 262 L 105 264 L 107 263 L 109 264 L 107 265 Q 105 266 108 267 L 118 265 L 119 267 L 122 265 L 131 270 L 135 270 L 128 262 L 126 262 L 124 260 L 119 259 Q 118 261 117 259 Q 116 261 112 260 L 111 259 L 109 257 L 108 259 L 107 259 L 104 255 L 97 249 Z M 13 252 L 13 257 L 22 267 Q 25 268 26 266 L 30 268 Q 29 273 25 275 L 23 272 L 21 275 L 20 275 L 12 265 L 10 268 L 10 273 L 12 277 L 17 281 L 15 282 L 11 282 L 4 285 L 5 286 Q 6 284 11 285 L 12 284 L 14 287 L 17 286 L 20 291 L 27 295 L 28 296 Q 27 287 21 284 L 32 278 L 36 271 L 37 272 Q 38 275 36 276 L 40 276 Q 42 278 41 283 L 45 289 L 42 290 L 38 290 L 35 293 L 36 296 L 32 299 L 31 298 L 29 297 L 28 299 L 27 299 L 19 290 L 17 293 L 17 297 L 19 301 L 28 307 L 31 307 L 38 303 L 42 297 L 41 294 L 43 293 L 44 297 L 47 298 L 48 301 L 52 302 L 53 304 L 55 301 L 57 301 L 62 304 L 72 299 Q 74 300 73 303 L 78 305 Q 78 303 82 304 Q 83 306 84 304 L 87 305 L 85 306 Q 82 307 84 308 L 91 307 L 94 305 L 95 306 L 103 306 L 106 308 L 111 308 L 109 305 L 100 301 L 100 300 L 97 298 L 96 301 L 92 303 L 87 299 L 82 299 Q 79 298 81 297 L 80 295 L 78 296 L 70 290 L 68 290 L 67 288 Q 65 287 67 286 L 66 283 L 66 277 L 65 275 L 58 271 L 54 272 L 54 274 L 57 277 L 56 280 L 59 280 L 60 282 L 60 286 L 62 290 L 66 293 L 67 292 L 69 297 L 66 299 L 63 298 L 61 299 L 59 299 L 53 296 L 49 292 Q 53 289 49 287 L 47 288 L 47 287 L 47 279 L 46 278 L 47 273 Q 46 270 43 270 L 42 269 L 34 267 L 37 266 L 37 265 L 34 262 L 27 261 L 27 260 L 27 258 L 24 259 L 18 254 L 13 252 Z M 44 253 L 43 254 L 33 256 Q 30 257 32 258 L 39 257 L 40 256 L 42 259 L 45 258 L 47 262 L 54 267 L 58 268 L 59 270 L 64 270 L 73 264 L 75 262 L 75 261 L 73 261 L 65 265 L 63 266 L 64 264 L 63 263 Q 62 265 61 263 L 60 266 L 56 264 L 49 255 Q 48 252 44 253 Z M 92 262 L 90 264 L 87 264 L 82 267 L 79 270 L 80 270 L 86 270 L 89 269 L 90 268 L 93 271 L 95 269 L 103 273 L 107 273 L 106 271 L 104 269 L 102 267 L 100 266 L 95 262 L 92 262 Z M 68 269 L 67 270 L 70 276 L 70 278 L 72 278 L 73 282 L 77 284 L 84 281 L 89 281 L 94 286 L 93 285 L 91 288 L 93 288 L 93 290 L 89 292 L 86 292 L 84 294 L 89 296 L 96 295 L 102 290 L 102 287 L 100 284 L 102 282 Q 105 283 106 281 L 117 281 L 119 283 Q 122 282 123 284 L 126 284 L 119 278 L 115 277 L 113 275 L 111 274 L 110 276 L 99 281 L 91 277 Q 90 279 86 278 L 85 280 L 83 280 L 82 279 L 80 277 L 79 279 L 76 276 Q 74 270 68 269 Z M 113 288 L 111 290 L 109 290 L 103 293 L 100 296 L 101 296 L 112 295 L 112 297 L 113 297 L 115 295 L 117 295 L 123 299 L 128 300 L 128 299 L 122 292 L 120 292 L 118 290 L 115 288 Q 114 290 113 288 Z M 3 302 L 2 304 L 5 308 L 5 310 L 7 310 L 9 314 L 14 317 Q 14 315 18 316 L 19 320 L 28 326 L 31 326 L 33 331 L 40 333 L 40 335 L 43 335 L 43 334 L 50 331 L 55 339 Q 56 341 59 340 Q 60 342 61 340 Q 64 339 65 341 L 71 339 L 74 339 L 79 342 L 85 342 L 88 339 L 89 336 L 88 331 L 83 327 L 81 328 Q 80 333 83 335 L 82 339 L 78 337 L 77 339 L 78 340 L 74 338 L 70 332 Q 69 329 68 331 Q 67 334 69 335 L 69 336 Q 68 334 64 335 Q 61 334 63 333 L 61 331 L 58 332 L 52 327 L 53 326 L 53 323 L 47 326 Q 43 327 43 325 L 41 326 Q 36 327 35 325 L 39 322 L 42 317 Q 43 312 41 312 Q 42 309 47 310 L 48 312 L 51 311 L 54 316 L 60 320 L 63 321 L 65 324 L 68 323 L 73 323 L 80 321 L 72 320 Q 70 317 66 318 L 64 316 Q 64 314 61 314 L 54 306 L 46 307 L 40 309 L 35 317 L 32 319 L 31 317 L 30 316 L 28 319 L 28 319 L 24 316 L 27 315 L 25 312 L 21 311 L 19 309 L 17 310 L 17 309 L 16 307 L 14 308 L 6 302 L 3 302 Z M 117 305 L 116 311 Q 118 312 117 317 L 116 317 L 115 316 L 114 316 L 113 315 L 112 318 L 110 317 Q 106 315 105 311 Q 104 308 103 310 L 104 315 L 107 317 L 116 321 L 121 320 L 124 314 L 122 309 L 117 305 Z M 89 308 L 87 310 L 78 311 L 76 314 L 76 315 L 83 314 Q 85 314 84 318 L 87 319 Q 90 320 90 325 L 96 323 L 98 328 L 100 328 L 103 332 L 100 335 L 101 335 L 107 335 L 110 334 Q 111 332 113 335 L 115 334 L 117 334 L 124 338 L 128 338 L 127 336 L 125 334 L 123 332 L 121 331 L 116 327 Q 111 326 111 329 L 107 329 Q 106 325 103 324 L 104 319 L 102 317 L 101 319 L 94 320 L 93 318 L 90 314 Q 87 312 91 311 L 89 308 Z M 15 325 L 14 327 L 11 329 L 9 329 L 3 332 Q 0 333 2 334 L 6 334 L 10 332 L 15 332 Q 16 334 17 332 L 20 332 L 27 335 L 30 335 L 28 332 L 19 328 Q 16 327 18 326 L 17 325 Q 16 327 15 325 Z M 99 337 L 99 341 L 102 344 L 102 346 L 101 345 L 100 345 L 95 342 L 93 343 L 94 345 L 97 345 L 101 348 L 105 348 L 106 354 Q 109 355 110 360 L 113 361 L 124 358 L 124 357 Q 120 356 120 358 L 119 356 L 117 354 L 116 356 L 112 352 L 107 348 Q 110 347 109 343 L 105 338 L 99 337 Z M 31 338 L 31 342 L 34 346 L 33 345 L 32 346 L 27 343 L 25 344 L 33 349 L 40 348 Q 42 347 41 344 Q 39 338 31 338 Z M 41 339 L 40 340 L 43 342 Q 46 343 48 346 L 47 349 L 49 349 L 49 351 L 39 355 L 44 357 L 54 355 Q 55 353 56 355 Q 57 353 61 354 L 64 352 Q 67 354 74 353 L 78 355 L 82 355 L 76 350 L 70 348 L 69 347 L 67 345 L 66 348 L 58 351 L 58 350 L 53 342 L 48 339 L 41 339 Z M 79 343 Q 77 346 80 348 L 80 352 L 83 352 L 86 362 L 90 365 L 91 364 L 94 369 L 98 371 L 100 370 L 103 371 L 108 370 L 109 374 L 112 375 L 112 377 L 107 379 L 105 378 Q 100 377 100 379 L 96 378 L 94 377 L 93 371 L 91 368 L 88 367 L 86 368 Q 85 372 88 374 L 88 377 L 86 378 L 86 376 L 83 377 L 83 379 L 81 379 Q 77 377 76 373 L 74 370 L 73 371 L 73 374 L 75 377 L 78 379 L 85 382 L 89 382 L 93 380 L 93 382 Q 95 385 101 386 L 101 388 L 104 388 L 104 387 L 112 383 L 115 376 L 117 377 L 117 379 L 120 379 L 120 378 L 125 375 L 127 375 L 129 371 L 129 367 L 123 370 L 120 369 L 118 370 L 115 370 L 108 366 Q 107 364 106 366 L 101 365 L 102 363 L 100 361 L 99 363 L 97 362 L 90 355 L 90 349 L 85 344 L 79 343 Z M 16 345 L 15 348 L 19 353 L 19 354 L 18 353 L 17 353 Q 11 352 9 348 L 8 350 L 12 353 L 18 356 L 22 356 L 25 355 L 25 351 L 23 348 L 22 346 L 16 345 Z M 33 356 L 32 358 L 34 364 L 37 367 L 37 367 L 31 367 L 25 365 L 21 361 L 15 358 L 13 358 L 13 360 L 16 364 L 20 366 L 23 371 L 31 370 L 36 368 L 41 371 L 50 368 Q 53 367 55 369 L 57 368 L 63 371 L 68 369 Q 69 367 70 369 L 76 367 L 79 365 L 72 362 Q 69 364 65 363 L 64 362 L 62 361 L 61 363 Q 56 364 56 362 Q 54 364 50 363 L 47 365 L 45 364 L 44 366 L 40 362 L 33 356 Z M 6 373 L 5 374 L 8 376 L 17 382 L 23 382 L 28 379 L 29 378 L 32 382 L 31 385 L 34 385 L 36 389 L 36 392 L 38 396 L 41 398 L 42 396 L 42 388 L 41 387 L 42 383 L 36 377 L 34 377 L 32 376 L 34 374 L 34 373 L 26 376 L 24 378 L 22 378 L 22 377 L 19 376 L 19 378 L 15 377 L 11 374 L 6 373 Z M 37 375 L 36 376 L 39 378 L 48 384 L 52 384 L 61 378 L 66 387 L 64 387 L 63 386 L 57 383 L 55 384 L 56 388 L 58 389 L 57 392 L 60 393 L 66 405 L 68 404 L 68 406 Q 72 410 79 413 L 87 409 L 90 406 L 91 403 Q 92 398 90 397 L 89 396 Q 86 396 86 401 L 81 405 L 80 403 L 77 405 L 67 395 L 68 389 L 70 390 L 82 386 L 82 385 L 76 386 L 76 385 L 74 383 L 73 385 L 72 385 L 64 375 L 61 375 L 53 380 L 52 377 L 50 378 L 49 380 L 42 376 L 37 375 Z M 89 388 Q 88 390 84 389 L 79 393 L 80 396 L 82 396 L 87 393 L 91 393 L 92 395 L 96 394 Q 98 395 97 400 L 99 401 L 103 399 L 105 399 L 110 402 L 117 399 L 124 393 L 127 393 L 128 396 L 136 402 L 137 402 Q 136 395 131 392 L 131 390 L 129 388 L 125 388 L 124 389 L 114 391 L 114 392 Q 119 393 122 391 L 122 393 L 113 397 L 112 396 L 111 396 L 109 395 L 109 397 L 105 396 L 97 388 L 89 388 Z M 29 391 L 28 393 L 24 393 L 23 394 L 19 394 L 16 397 L 17 398 L 23 397 L 25 401 L 28 402 L 29 405 L 34 408 L 35 406 L 33 400 L 30 397 L 31 393 L 29 391 Z M 36 398 L 35 403 L 36 406 L 44 409 L 44 411 L 47 411 L 47 410 L 55 405 L 59 408 L 61 408 L 64 412 L 61 414 L 64 416 L 60 418 L 56 418 L 54 420 L 57 425 L 56 429 L 55 429 L 54 428 L 53 428 L 52 427 L 51 429 L 52 430 L 49 429 L 44 423 L 46 422 L 45 420 L 42 417 L 41 416 Q 37 414 35 411 L 31 411 Q 29 414 25 413 L 18 418 L 19 419 L 26 418 L 27 417 Q 30 417 31 419 L 34 417 L 38 420 L 42 421 L 42 425 L 45 429 L 40 431 L 38 430 Q 33 429 33 431 L 29 430 L 26 427 L 25 428 L 26 435 L 34 438 L 34 440 L 37 440 L 37 439 L 45 435 L 47 430 L 57 433 L 68 441 L 73 441 L 82 435 L 93 441 L 103 436 L 105 432 L 109 434 L 116 431 L 123 426 L 123 424 L 116 427 L 114 429 L 112 429 L 111 428 L 110 428 L 108 427 L 108 429 L 106 429 L 104 424 L 101 426 L 96 424 L 95 426 L 99 428 L 99 430 L 95 433 L 94 432 L 92 431 L 91 433 L 90 433 L 86 430 L 86 428 L 89 427 L 90 423 L 86 418 L 83 417 L 79 418 L 82 423 L 81 425 L 76 423 L 74 421 L 73 423 Q 75 425 79 426 L 80 428 L 81 433 L 73 437 L 72 436 L 70 435 L 69 437 L 59 433 L 63 426 L 62 423 L 64 421 L 68 420 L 73 415 L 70 410 Q 67 406 63 404 L 56 404 L 56 403 L 56 399 L 50 402 L 48 401 Q 43 400 43 402 L 39 401 L 36 398 Z M 109 405 L 106 412 L 98 407 L 98 409 L 95 411 L 92 411 L 87 414 Q 84 415 86 416 L 91 416 Q 92 413 98 414 Q 99 416 100 414 Q 104 413 106 416 L 109 416 L 117 422 Q 121 421 123 423 L 133 419 L 136 422 L 138 420 L 140 423 Q 139 427 142 428 L 146 426 L 146 422 L 144 419 L 140 415 L 130 415 L 132 412 L 130 405 L 123 414 L 119 412 L 118 414 L 116 414 L 109 405 Z M 129 428 L 128 434 L 129 435 Q 130 439 128 440 L 127 437 L 126 439 L 124 438 L 124 440 L 124 441 L 122 440 L 116 432 L 114 435 L 116 438 Q 119 439 117 441 Q 116 445 119 446 L 119 449 L 122 449 Q 124 451 123 456 L 125 459 L 124 462 L 126 461 L 128 462 L 132 460 L 132 462 L 137 462 L 139 466 Q 142 469 147 471 L 148 472 L 147 468 L 144 463 L 150 460 L 152 464 L 161 471 L 162 471 L 161 465 L 158 461 Q 156 459 159 458 L 157 454 L 156 456 L 154 457 L 146 458 L 143 462 L 140 457 Q 135 456 134 458 L 129 458 Q 128 454 130 454 L 129 451 Q 127 450 129 449 L 128 444 L 130 443 L 131 446 L 141 442 L 144 445 L 146 443 L 148 446 Q 147 450 150 451 L 154 449 L 154 445 L 152 442 L 150 439 L 145 437 L 144 438 L 138 438 L 135 439 L 135 438 Q 136 433 134 432 L 129 428 Z M 55 435 L 53 437 L 44 438 L 41 441 L 42 442 Q 46 443 48 440 L 50 445 L 59 451 L 60 451 L 60 448 L 56 441 Q 54 439 57 438 L 55 435 Z M 102 443 L 93 447 L 91 449 L 88 448 L 86 444 L 84 445 L 83 447 L 76 450 L 71 448 L 69 448 L 70 459 L 69 459 L 68 458 L 67 458 L 66 457 L 65 460 L 63 459 Q 60 457 59 454 L 57 451 L 56 452 L 56 455 L 58 458 L 69 463 L 74 462 L 77 456 L 76 454 L 81 451 L 82 452 L 90 452 L 93 454 L 98 454 L 94 451 L 98 449 L 101 449 L 102 451 L 105 449 L 114 454 L 118 454 L 112 447 L 109 446 L 107 444 L 102 443 Z M 48 452 L 45 454 L 40 455 L 33 460 L 36 461 L 37 460 L 45 459 L 46 461 L 49 459 L 56 463 L 61 464 L 61 463 L 55 456 L 52 455 L 51 454 L 48 452 Z M 91 459 L 89 461 L 86 461 Q 85 463 82 463 L 80 465 L 78 464 L 74 464 L 73 465 L 63 467 L 62 469 L 64 469 L 63 472 L 59 475 L 58 474 L 56 473 L 55 475 L 54 475 Q 50 473 49 469 L 46 466 L 44 470 L 44 473 L 46 477 L 57 483 L 65 479 L 69 473 L 69 470 Q 67 468 70 467 L 71 470 L 73 469 L 75 469 L 86 479 L 87 479 L 83 471 L 80 468 L 85 467 L 89 465 L 90 468 L 91 468 L 93 466 L 95 466 L 102 470 L 106 470 L 106 470 L 104 468 L 110 466 L 111 465 L 114 468 L 116 466 L 118 466 L 124 470 L 129 470 L 123 463 L 121 463 L 116 459 Q 112 458 112 461 L 109 461 L 103 465 L 97 462 L 94 459 L 91 459 Z M 92 468 L 90 470 L 93 474 L 93 477 L 96 477 L 99 488 L 103 490 L 103 483 L 104 482 L 102 479 L 103 474 L 95 468 L 92 468 Z M 110 473 L 106 475 L 115 482 L 114 481 L 112 484 L 114 484 L 114 486 L 104 490 L 110 492 Q 111 490 116 491 L 123 485 L 129 488 L 136 485 L 140 482 L 143 482 Q 145 486 147 482 L 154 486 L 157 487 L 162 487 L 163 488 L 174 484 L 174 483 L 169 484 L 168 483 L 166 481 L 165 483 L 161 479 Q 159 475 155 474 L 153 474 L 155 481 L 156 482 L 149 476 L 144 476 L 132 482 Q 131 480 130 482 L 128 481 L 128 483 L 124 482 L 118 476 L 112 473 L 110 473 Z M 80 478 L 78 480 L 79 483 L 81 484 L 80 488 L 83 488 L 85 492 L 85 495 L 87 499 L 90 501 Q 91 499 96 500 L 100 498 L 101 501 L 102 501 L 104 499 Q 108 499 110 502 L 118 504 L 120 506 L 124 506 L 133 500 L 143 506 L 149 506 L 153 501 L 158 507 L 171 507 L 173 506 Q 175 507 174 512 L 177 512 L 178 514 L 178 518 L 180 522 L 184 525 L 185 520 L 190 517 L 193 519 L 195 518 L 197 518 L 204 522 L 208 522 L 206 519 L 196 511 L 193 511 L 191 513 L 188 513 L 185 515 L 184 508 L 178 504 L 188 501 L 188 500 Q 183 499 182 501 L 182 500 L 181 499 L 180 497 L 179 499 L 178 499 L 175 496 L 169 490 L 167 491 L 169 498 L 172 501 L 172 503 L 163 501 L 163 500 L 162 498 L 160 499 L 154 494 L 147 491 L 145 492 Q 144 497 147 499 L 146 502 L 145 502 L 145 501 L 144 500 L 143 502 L 142 501 L 141 503 L 138 502 L 136 500 Q 134 499 136 498 L 135 497 L 133 494 L 132 498 L 125 502 L 124 499 L 122 500 L 121 502 L 108 495 L 107 494 L 105 492 L 102 492 L 100 494 L 97 494 L 92 497 L 91 491 L 90 490 L 90 484 Q 89 482 87 482 L 86 481 L 80 478 Z M 68 483 L 62 485 L 53 490 L 53 491 L 60 491 Q 60 489 64 490 Q 66 494 68 490 L 79 495 L 81 495 L 79 492 L 77 490 L 75 488 L 73 487 L 68 483 Z M 82 496 L 80 498 L 71 499 L 68 502 L 69 503 L 76 502 L 77 506 L 80 507 L 81 510 L 86 512 L 87 512 L 86 507 L 82 501 Q 86 498 82 496 Z M 103 506 L 102 507 L 93 508 L 90 510 L 88 513 L 86 514 L 83 514 L 75 517 L 76 518 Q 77 516 82 517 L 83 516 L 85 519 L 88 518 L 91 523 L 98 527 L 99 528 Q 97 519 92 515 L 95 512 L 100 511 L 100 513 Q 102 516 104 512 L 106 515 Q 105 519 108 520 L 112 518 L 112 514 L 110 511 L 108 508 L 103 506 Z M 132 511 L 131 512 L 136 516 Q 135 519 132 518 L 131 516 L 128 518 L 126 518 L 119 514 L 117 514 L 115 514 L 119 522 Q 120 526 118 527 L 117 524 L 114 528 L 112 527 L 106 519 L 104 520 L 104 522 L 106 525 L 109 527 L 118 531 L 123 529 L 126 522 L 128 523 L 131 523 L 138 518 L 141 518 L 146 521 L 158 514 L 164 519 L 162 522 L 164 523 L 161 525 L 155 525 L 154 524 L 152 525 Q 151 529 154 530 L 154 533 Q 155 535 157 533 L 160 543 Q 162 544 160 545 L 161 549 L 170 545 L 173 547 L 176 546 L 178 550 Q 177 553 179 554 L 176 555 L 176 556 L 184 555 L 184 557 L 189 557 L 191 561 L 197 566 L 191 569 L 188 572 L 189 572 Q 195 573 198 570 Q 201 569 202 572 L 204 571 L 206 571 L 213 575 L 217 575 L 211 568 Q 206 567 205 564 Q 200 563 200 565 Q 199 562 197 561 L 197 559 L 193 554 L 189 551 L 184 553 L 182 553 Q 185 552 184 548 L 178 541 L 175 540 L 174 541 L 167 541 Q 165 543 164 541 L 165 539 Q 163 535 164 529 L 167 528 L 172 524 L 173 522 L 170 517 L 167 513 L 165 513 L 162 511 L 158 511 L 150 516 L 147 515 L 143 516 L 143 515 L 139 514 L 132 511 Z M 200 526 L 191 530 L 189 532 L 184 531 L 184 530 L 184 528 L 182 529 L 181 531 L 169 536 Q 166 537 168 538 L 175 537 L 179 535 L 180 536 L 188 536 L 190 538 Q 194 537 196 539 L 197 539 Q 195 536 192 535 L 191 534 L 199 532 L 200 534 L 203 532 L 206 541 L 216 546 L 226 541 L 229 535 L 227 530 L 226 529 L 223 534 L 218 538 L 218 537 L 216 536 L 209 529 L 207 529 L 205 527 L 200 526 Z M 125 527 L 125 531 L 131 538 L 121 543 L 120 542 L 119 542 L 114 538 L 105 534 L 105 533 L 103 532 L 101 532 L 102 534 L 90 539 Q 87 540 89 541 L 96 540 L 97 539 L 105 539 L 116 547 L 121 547 L 131 540 L 135 541 L 136 543 Q 135 547 137 549 L 145 552 L 148 562 L 150 564 L 150 564 L 147 563 Q 145 565 141 564 L 139 561 L 137 562 L 136 564 Q 131 565 131 563 Q 129 565 125 564 L 122 566 L 125 568 Q 129 567 130 570 L 132 569 L 136 571 Q 141 572 143 569 L 145 570 L 152 567 L 154 568 L 160 567 L 161 566 L 165 567 L 169 573 L 183 570 Q 185 569 184 568 L 182 569 L 177 569 Q 175 566 171 567 Q 166 562 160 559 L 158 560 L 159 562 L 157 563 L 153 559 L 149 555 L 147 553 L 155 549 L 157 546 L 157 541 Q 156 545 151 544 Q 150 546 149 544 Q 144 543 144 545 L 137 543 L 138 541 Q 141 540 142 542 L 143 541 Q 147 542 149 540 L 149 539 L 145 536 L 141 536 L 139 532 L 136 533 L 130 528 L 125 527 Z M 188 541 L 187 542 L 191 548 L 191 550 L 193 550 L 198 556 L 201 555 L 211 560 Q 217 559 219 562 L 222 560 L 227 560 L 230 558 L 235 557 L 235 556 L 233 554 Q 228 555 227 553 Q 225 555 221 554 L 220 553 L 218 552 L 217 554 L 213 554 L 212 553 L 210 551 L 206 551 L 202 550 L 203 548 L 201 546 L 200 548 L 194 543 L 188 541 Z M 238 541 L 236 543 L 227 544 L 224 547 L 225 548 L 231 547 L 233 551 L 236 552 L 237 555 L 239 555 L 241 558 Q 240 562 243 564 L 242 564 L 242 566 L 237 563 L 235 564 Q 238 568 245 570 L 251 568 L 253 568 L 256 570 Q 261 571 263 568 L 265 569 L 271 567 L 274 565 L 267 562 Q 264 564 260 563 L 258 560 L 256 563 L 252 563 L 247 559 L 242 559 L 243 557 L 242 552 L 238 546 Q 242 543 238 541 Z M 116 549 L 115 553 L 117 557 L 122 559 L 124 559 L 126 562 Q 128 558 135 557 L 137 553 L 137 549 L 135 550 Q 133 553 132 551 L 130 553 Q 128 551 124 552 Q 122 555 121 551 L 120 552 L 116 549 Z M 524 556 L 523 557 L 520 557 L 514 559 L 514 560 Q 518 561 520 559 L 523 561 L 526 561 L 529 566 L 537 571 L 538 571 L 534 563 L 531 560 L 531 558 Q 529 555 524 556 Z M 218 569 Q 216 573 219 576 Q 220 579 218 580 L 217 578 L 214 579 L 214 581 L 211 580 Q 208 578 207 575 L 205 572 L 204 573 L 204 576 L 207 580 L 216 584 L 221 584 L 224 581 Q 224 578 226 577 L 233 582 Q 238 583 241 581 L 242 580 Q 240 579 242 578 L 239 574 L 233 571 L 231 572 Q 232 576 235 579 L 235 580 L 234 579 L 233 579 L 231 579 L 228 577 L 224 573 L 222 570 L 218 569 Z M 276 570 L 275 573 L 279 578 L 278 578 Q 277 576 276 578 Q 270 576 268 572 L 267 574 L 272 578 L 278 581 Q 281 582 282 580 L 284 581 L 282 582 Q 280 583 283 584 L 293 582 L 294 584 L 297 582 Q 301 586 308 587 L 316 593 L 322 593 L 331 587 Q 334 588 333 594 L 336 594 L 337 596 L 337 600 Q 339 600 339 604 L 343 607 L 344 603 L 343 601 L 344 599 Q 342 596 343 590 L 333 584 L 327 586 L 323 589 L 321 589 L 318 587 L 318 589 Q 313 589 312 586 L 310 586 L 303 579 L 301 579 L 299 576 L 294 576 L 286 580 L 285 576 L 282 572 L 276 570 Z M 505 570 L 504 573 L 507 578 L 508 579 L 502 577 L 500 575 L 498 576 L 499 578 L 505 581 L 511 581 L 514 580 L 514 576 L 510 571 L 505 570 Z M 141 571 L 140 573 L 144 579 L 146 579 L 150 585 L 159 584 L 160 587 L 163 588 L 164 592 L 166 593 L 174 593 L 176 600 L 181 602 L 183 602 L 185 605 L 186 603 L 193 600 L 196 595 L 196 592 L 193 594 L 191 594 L 189 596 L 185 594 L 182 596 Q 180 594 177 594 L 182 592 L 178 588 L 173 588 Q 170 587 172 586 L 171 584 L 169 585 L 166 584 Q 163 583 165 582 Q 162 581 161 579 L 159 579 Q 157 577 156 580 L 152 579 Q 147 574 141 571 Z M 185 573 L 184 576 L 174 580 L 171 583 L 172 583 L 179 582 L 182 580 Q 185 582 192 581 L 196 583 L 200 583 L 196 579 L 187 576 L 188 574 L 187 574 L 185 573 Z M 259 575 L 258 576 L 254 576 L 246 579 L 246 580 L 254 579 L 255 581 L 258 580 L 260 581 L 261 584 L 269 590 L 270 590 L 263 577 L 259 575 Z M 479 578 Q 477 582 479 585 L 485 588 L 487 588 L 487 590 L 490 590 L 490 589 L 495 586 L 497 586 L 499 583 L 499 578 L 497 580 Q 493 579 493 581 Q 489 582 489 580 L 486 582 L 484 580 L 482 580 L 479 578 Z M 234 583 L 233 585 L 235 589 L 240 595 L 241 598 L 238 599 L 236 598 Q 231 597 231 599 L 227 597 L 229 594 L 227 589 L 223 586 L 221 587 L 222 597 L 221 597 L 220 595 L 217 596 L 217 598 L 214 597 L 209 590 L 208 590 L 204 585 L 199 585 L 198 586 L 195 586 L 189 588 L 189 589 Q 193 590 196 588 L 196 590 L 201 590 L 204 595 L 212 600 L 213 598 L 219 601 L 224 601 Q 226 604 231 605 L 233 608 L 242 603 L 243 601 L 246 598 L 255 598 L 256 597 L 266 604 L 271 604 L 279 598 L 281 598 L 281 600 L 284 600 L 284 599 L 292 595 L 293 598 L 295 598 Q 297 599 296 602 L 300 604 L 303 604 Q 304 602 305 604 L 311 604 L 312 603 L 316 611 L 320 613 L 324 611 L 330 610 Q 332 609 331 608 L 326 609 L 325 608 L 323 606 L 322 608 L 319 605 L 312 598 L 310 599 L 305 598 L 304 595 L 302 596 L 299 595 L 297 593 L 296 592 L 294 588 Q 293 590 290 589 L 288 591 Q 284 592 284 590 L 282 591 L 276 590 L 274 588 L 272 589 L 274 596 L 276 597 L 271 600 L 270 597 L 268 598 L 267 600 L 262 597 L 260 597 L 255 593 Q 250 594 249 592 L 248 589 L 245 590 L 243 589 L 241 587 L 238 584 L 234 583 Z M 451 584 L 439 588 L 439 589 L 447 588 L 447 590 L 452 590 L 458 598 L 455 598 L 450 602 L 448 601 L 441 601 Q 439 603 436 602 L 434 603 L 437 597 L 435 592 L 431 589 L 429 590 Q 428 595 431 597 L 430 600 L 429 600 L 428 598 L 426 599 L 425 601 L 422 600 L 418 594 L 415 590 L 411 594 L 411 596 L 407 599 L 406 598 L 404 597 L 403 599 L 402 599 Q 397 597 396 592 L 394 590 L 392 593 L 392 597 L 394 601 L 399 605 L 389 607 L 387 609 L 388 611 L 394 609 L 396 614 L 398 615 L 395 616 L 408 624 L 412 624 L 422 617 L 427 617 L 436 611 L 438 609 L 438 608 L 436 608 L 427 613 L 426 612 L 424 610 L 423 613 L 414 608 L 410 609 L 420 616 L 413 620 L 411 620 L 412 618 L 411 618 L 409 617 L 408 620 L 406 619 L 404 613 L 401 610 L 401 608 Q 402 605 404 607 Q 410 606 414 602 L 417 597 L 421 601 L 427 604 L 431 604 L 430 606 L 431 609 L 433 609 L 438 606 Q 443 605 444 608 L 447 607 Q 449 608 448 613 L 450 614 Q 453 615 454 612 Q 455 606 451 605 L 453 603 Q 456 604 457 602 Q 460 601 461 604 L 464 602 L 473 607 L 476 607 L 475 605 L 472 602 L 471 601 Q 467 599 465 596 L 462 596 L 459 593 L 465 592 L 469 590 Q 472 590 473 592 L 475 591 L 478 591 L 480 593 L 485 595 L 488 595 L 486 592 L 477 584 L 473 584 Q 471 587 467 586 L 462 590 L 459 591 Q 456 591 456 587 L 455 585 L 451 584 Z M 359 590 Q 357 595 360 598 L 359 601 L 358 601 L 355 600 L 354 602 L 351 601 L 347 595 Q 346 592 345 594 L 346 599 L 353 604 L 356 605 L 362 605 L 366 599 L 364 593 L 359 590 Z M 199 602 L 198 607 L 199 610 L 201 611 L 207 613 L 207 615 L 210 615 L 210 614 L 215 611 L 217 611 L 219 607 L 219 603 L 213 606 L 210 605 L 207 606 L 200 604 L 199 602 Z M 254 603 L 253 606 Q 252 608 248 607 L 242 611 L 240 610 L 234 613 Q 230 614 230 612 L 228 613 L 222 612 L 220 610 L 218 611 L 218 614 L 220 618 L 227 620 L 227 622 L 230 622 L 230 621 L 237 618 L 239 614 Q 240 611 247 612 L 250 610 Q 253 609 254 611 Q 257 612 258 610 L 267 613 L 268 615 L 274 615 L 277 613 L 279 613 L 280 615 L 282 614 L 285 614 L 292 618 L 296 618 L 290 611 Q 285 610 284 607 L 280 607 L 278 609 L 275 609 L 270 612 L 256 606 L 257 604 L 256 603 Q 255 605 254 603 Z M 244 613 L 243 615 L 252 621 L 249 623 L 252 625 L 249 627 L 243 628 L 242 630 L 246 631 L 251 631 L 256 629 L 259 626 L 264 626 L 266 624 L 272 623 L 273 625 L 276 624 L 278 627 L 279 632 L 281 631 L 292 638 L 302 632 Q 303 634 308 633 L 310 635 Q 315 636 316 633 L 321 633 L 327 630 L 324 627 L 314 627 L 313 626 L 311 625 L 310 627 L 305 627 L 303 622 L 302 621 Q 298 623 297 628 L 294 630 L 292 627 L 290 630 L 288 629 Q 285 627 284 624 Q 281 620 277 618 Q 273 617 273 619 L 266 619 L 261 622 L 256 617 L 250 613 L 244 613 Z M 388 619 L 387 621 L 379 622 L 375 625 L 376 627 L 382 625 L 384 629 L 393 636 L 394 634 L 389 625 L 390 621 L 388 619 Z M 357 625 L 356 628 L 359 633 L 360 634 L 354 632 L 352 630 L 350 631 Q 353 635 360 637 L 365 636 L 367 632 L 362 626 Q 357 627 357 625 Z " /><path fill="rgb(0,0,0)" stroke="rgb(0,0,0)" stroke-width="1" opacity="0.0196078431372549" d="M 89.5 185 L 93 187.5 L 94 189.5 L 92.5 189 Q 88.4 189.6 87 187.5 L 87.5 186 L 89.5 185 Z " /><path fill="rgb(0,0,0)" stroke="rgb(0,0,0)" stroke-width="1" opacity="0.0196078431372549" d="M 212.5 537 L 215 537.5 L 212.5 538 L 212.5 537 Z " /><path fill="rgb(0,0,0)" stroke="rgb(0,0,0)" stroke-width="1" opacity="0.0196078431372549" d="M 115.5 541 Q 118 542 116.5 543 L 115 542.5 L 115.5 541 Z " /><path fill="rgb(0,0,0)" stroke="rgb(0,0,0)" stroke-width="1" opacity="0.0196078431372549" d="M 372.5 613 L 375 613.5 L 372.5 614 L 372.5 613 Z " /><path fill="rgb(0,0,0)" stroke="rgb(0,0,0)" stroke-width="1" opacity="0.9803921568627451" d="M 294.5 0 L 297 3.5 L 296 6.5 Q 297 9 298 7.5 L 298.5 4 L 299.5 6 L 305.5 8 Q 306.5 6 310.5 7 L 312.5 8 L 315.5 7 L 318.5 4 L 319.5 8 L 324 5.5 L 324.5 4 L 330.5 5 L 338.5 12 L 342.5 12 Q 343.3 14.8 347.5 14 L 350.5 13 L 352 13.5 L 350.5 15 L 342.5 16 L 336.5 18 L 333.5 13 L 329.5 11 L 319.5 11 L 309 15.5 L 309.5 17 L 307 16.5 L 306.5 15 L 300.5 12 L 299.5 17 L 294 13.5 L 293.5 12 L 291 10.5 L 287.5 6 L 284.5 8 L 282.5 8 L 282 6.5 L 284.5 4 L 294 2.5 L 294.5 0 Z " /><path fill="rgb(0,0,0)" stroke="rgb(0,0,0)" stroke-width="1" opacity="0.9803921568627451" d="M 354.5 3 L 358.5 4 L 360 5.5 L 360 7.5 L 366.5 16 L 368 15.5 L 368.5 14 L 369.5 15 L 371.5 13 L 372 13.5 Q 369.8 14.8 372.5 16 L 374 11.5 Q 371.2 9.8 372 4.5 L 373.5 5 L 377.5 6 L 378.5 4 Q 379.5 6 380.5 4 L 384.5 4 L 391 7.5 L 395 13.5 L 395 16.5 L 392 18.5 L 396.5 22 L 397.5 20 L 400 20.5 L 400.5 22 L 404 19.5 L 403 14.5 Q 404 12 405 13.5 L 405.5 15 L 409.5 13 L 411.5 17 Q 412.5 15 416.5 16 Q 417.5 18 418.5 16 Q 423.7 16.7 424.5 13 L 425 16.5 L 424 18.5 L 429 21.5 L 429.5 23 L 432.5 25 L 433.5 23 L 436 24.5 Q 433.8 25.8 436.5 27 L 443.5 28 L 444.5 26 L 447.5 29 L 451.5 30 Q 452.5 28 456.5 29 L 458.5 30 L 464 27.5 L 464.5 26 L 465 30.5 L 461.5 35 L 459.5 35 L 456 37.5 L 455.5 39 L 453 38.5 L 452.5 37 L 445 33.5 L 443.5 31 L 437.5 33 Q 436.8 31.3 433.5 32 Q 432.5 34 431.5 32 Q 428.5 32.5 428 30.5 L 426.5 27 L 424 25.5 L 421.5 21 L 415 24.5 L 414.5 26 L 413 25.5 L 412.5 24 L 409.5 23 L 403.5 28 L 398.5 30 L 388 23.5 L 387.5 22 L 380 22.5 L 384 24.5 L 385 26.5 L 385 32.5 L 386 35.5 L 385.5 37 Q 390.8 35.8 392 38.5 L 396 43.5 L 396 45.5 L 398 47.5 L 399 51.5 L 397.5 51 L 391 46.5 L 387.5 42 L 384.5 43 Q 383 39.5 376.5 41 L 375 41.5 L 375.5 40 L 381 38.5 Q 378.2 36.8 379 31.5 L 377.5 30 L 375 29.5 L 375 25.5 Q 372.5 25 373 21.5 L 377 20.5 L 377.5 19 L 383.5 18 L 386 16.5 L 384 13.5 L 386 10.5 L 378.5 6 L 378 7.5 L 380 12.5 L 375.5 19 L 368.5 19 Q 367.8 17.3 364.5 18 L 357 11.5 L 355.5 9 L 351.5 9 Q 351 6.5 347.5 7 Q 346.2 9.2 341.5 8 L 341.5 7 L 350.5 4 L 353.5 4 L 354.5 3 Z M 378 21 L 378 22 L 380 22 L 378 21 Z " /><path fill="rgb(0,0,0)" stroke="rgb(0,0,0)" stroke-width="1" opacity="0.9803921568627451" d="M 269.5 4 Q 273.6 3.4 275 5.5 L 275 7.5 L 279 11.5 L 282 18.5 L 280.5 19 L 268.5 9 L 266.5 10 L 265.5 8 L 257.5 9 Q 256 8 258.5 7 L 268.5 5 L 269.5 4 Z " /><path fill="rgb(0,0,0)" stroke="rgb(0,0,0)" stroke-width="1" opacity="0.9803921568627451" d="M 252.5 9 L 255 15.5 L 251 22.5 L 253.5 26 L 262.5 29 L 263 26.5 L 260 21.5 L 263.5 21 L 271.5 27 L 273.5 26 L 275 27.5 L 274.5 29 Q 276.3 30.7 280.5 30 L 285 33.5 L 281.5 35 L 272.5 35 L 271.5 36 L 267 32.5 L 265.5 30 L 256.5 31 L 252.5 33 L 251.5 31 L 251 33.5 L 253 36.5 L 250 41.5 L 253.5 42 Q 254.5 40 258.5 41 L 260.5 39 L 263 41.5 L 261 43.5 L 261.5 44 L 266.5 41 L 273.5 41 Q 274.3 39.3 277.5 40 L 279.5 41 L 282.5 38 L 291.5 37 L 293.5 35 L 295.5 35 L 298.5 33 Q 301.8 33.8 302.5 32 L 310.5 32 L 317 37.5 Q 318.3 43.8 314.5 45 L 312 43.5 L 312 41.5 L 309.5 38 L 306.5 39 L 304.5 36 Q 298.4 36.9 295 40.5 L 299 47.5 L 299 50.5 L 297.5 51 L 289 44.5 Q 289.5 40.5 286.5 40 L 281 42.5 L 285 46.5 L 285 50.5 L 280.5 54 Q 278.4 52.6 279 48.5 L 276.5 46 L 273.5 47 L 272.5 45 L 266.5 46 L 264 48.5 L 266 54.5 L 264.5 55 L 260 52.5 L 258.5 50 L 256 48.5 L 254.5 45 L 247.5 46 L 246.5 44 L 242.5 44 L 237.5 42 L 230.5 47 L 227 47.5 L 227 50.5 L 224.5 55 L 217 58.5 L 216.5 60 L 214 59.5 L 212.5 57 L 208.5 56 L 206 53.5 L 205 47.5 L 205.5 47 L 207.5 49 L 212.5 51 Q 213.5 49 217.5 50 L 219.5 51 L 226 47.5 L 219.5 44 L 213.5 39 L 206.5 42 L 205.5 41 L 201.5 45 L 200 44.5 L 199 39.5 L 196.5 37 L 193.5 38 L 192.5 36 L 189.5 36 L 184.5 39 L 181.5 39 L 181 35.5 L 186.5 32 L 193.5 32 L 198 30.5 L 197 27.5 L 198.5 27 L 206 33.5 L 208.5 37 L 209.5 35 L 212 36.5 L 212.5 38 L 217.5 37 L 217.5 39 L 224.5 43 L 226.5 43 L 226 41.5 L 226.5 40 L 230 41.5 L 229.5 43 L 235 40.5 L 231 34.5 L 232.5 32 L 236.5 39 L 241.5 38 L 242.5 39 L 244 38.5 L 244.5 40 L 246 39.5 L 245 29.5 L 246.5 30 L 250.5 31 L 251 29.5 L 245.5 25 L 242.5 27 L 234.5 23 L 224.5 30 L 220.5 30 L 209 21.5 L 211.5 21 L 220.5 26 L 221.5 23 L 223.5 24 L 225 23.5 L 225.5 25 L 227.5 25 L 233 21.5 Q 229.8 19.2 229 14.5 L 231.5 10 L 234 11.5 Q 235.1 16.9 239.5 19 L 241 18.5 L 241.5 17 L 244 17.5 L 244.5 19 L 252.5 9 Z " /><path fill="rgb(0,0,0)" stroke="rgb(0,0,0)" stroke-width="1" opacity="0.9803921568627451" d="M 290.5 19 Q 291.5 21 295.5 20 L 300 24.5 L 299.5 29 L 293.5 31 Q 286.1 28.4 282 22.5 L 282.5 22 L 284.5 24 L 289.5 27 L 292.5 27 L 293 25.5 L 290 21.5 L 290.5 19 Z " /><path fill="rgb(0,0,0)" stroke="rgb(0,0,0)" stroke-width="1" opacity="0.9803921568627451" d="M 313.5 22 L 315.5 23 L 317 22.5 L 319.5 26 L 326.5 28 L 329 26.5 L 329.5 25 L 332.5 27 L 333.5 25 L 337.5 27 L 344.5 28 L 346 29.5 Q 342.3 31.3 345.5 33 L 348.5 33 L 352.5 35 L 355 33.5 L 352 29.5 L 352 26.5 L 352.5 26 L 355 28.5 Q 355.9 33.1 359.5 35 L 362 34.5 L 361.5 33 L 364.5 32 L 364.5 34 L 367 32.5 L 365 26.5 L 365 23.5 L 366.5 23 L 369.5 24 L 372 26.5 L 373 31.5 L 372 34.5 L 368.5 38 L 365 38.5 L 367 41.5 L 366 44.5 L 369 47.5 L 369 49.5 L 371 52.5 L 369.5 55 L 365 52.5 L 363.5 50 L 361 48.5 L 358.5 44 L 352.5 46 L 352 44.5 L 354.5 42 L 362.5 41 L 364 39.5 L 363.5 38 L 356.5 35 L 355.5 36 L 347.5 37 L 342.5 39 L 338.5 33 Q 333.5 32 332.5 35 L 327.5 35 L 325.5 33 L 317.5 32 L 313.5 29 L 309.5 29 L 308.5 30 L 301.5 31 Q 300 30 302.5 29 L 307.5 26 L 312.5 25 L 314 23.5 L 313.5 22 Z " /><path fill="rgb(0,0,0)" stroke="rgb(0,0,0)" stroke-width="1" opacity="0.9803921568627451" d="M 408.5 32 L 416 37.5 L 419.5 42 L 420.5 38 L 428.5 42 L 431.5 45 L 433.5 45 L 434.5 44 L 447 43.5 L 447.5 42 L 450 42.5 L 450.5 44 L 457.5 44 L 460.5 42 L 464.5 44 L 467.5 40 L 470.5 38 L 482.5 37 L 485 38.5 L 485.5 40 L 487 40.5 L 489 43.5 L 489 47.5 L 485.5 51 L 484 49.5 L 484 46.5 L 481.5 43 L 478.5 44 Q 477.8 41.3 473.5 42 L 467 45.5 L 470 46.5 L 471 49.5 L 470 52.5 L 472 55.5 L 471 56.5 L 470.5 64 L 467 61.5 L 465 57.5 L 465 54.5 L 462.5 51 L 460 50.5 Q 462.3 49.3 459.5 48 L 456.5 50 L 451.5 50 L 447.5 52 L 444.5 50 L 433.5 50 L 429.5 52 Q 428.2 47.3 424.5 45 L 421.5 45 L 416.5 47 Q 415.5 45 414.5 47 Q 409.7 46.2 407.5 48 L 404.5 47 Q 403.5 49 402.5 47 Q 399.5 47.5 399 45.5 L 391 33.5 L 394.5 33 L 403.5 40 L 404.5 38 L 407 39.5 L 406 41.5 L 411.5 42 L 412 41.5 L 410 39.5 L 408 33.5 L 408.5 32 Z " /><path fill="rgb(0,0,0)" stroke="rgb(0,0,0)" stroke-width="1" opacity="0.9803921568627451" d="M 174.5 39 L 179 41.5 L 183 46.5 L 183 48.5 L 186.5 54 L 189.5 53 L 191 54.5 Q 188.8 55.8 191.5 57 L 195.5 57 L 201.5 59 L 203 57.5 L 202.5 56 L 204.5 57 L 206 56.5 L 207.5 59 Q 215.2 61.3 220.5 66 L 221.5 65 L 226 64.5 L 225 63.5 L 227.5 61 L 238 56.5 L 237.5 55 L 241 55.5 L 240.5 57 L 246.5 59 L 250.5 62 L 253.5 62 L 255.5 59 L 258 60.5 L 258.5 62 L 259.5 61 L 266.5 61 Q 267.3 62.8 270.5 62 L 272 63.5 L 269 65.5 L 271.5 68 L 272 67.5 L 272.5 66 L 275 67.5 Q 272.8 68.8 275.5 70 L 282.5 71 L 285 73.5 L 282.5 75 Q 278.3 74.3 276.5 76 Q 275.8 74.3 272.5 75 Q 271.5 77 270.5 75 L 267 73.5 Q 267.5 70.5 265.5 70 L 263 68.5 L 262.5 67 Q 259 66.5 258.5 69 L 253.5 69 Q 253 66.5 249.5 67 Q 248.5 69 247.5 67 L 243.5 66 L 240 63.5 L 240.5 62 L 233.5 62 L 229 63.5 L 230 65.5 Q 226.5 67 229 68.5 L 233 75.5 L 233 78.5 Q 230.8 79.8 233.5 81 L 238.5 83 Q 241.3 81.7 239 80.5 L 237 75.5 L 239.5 75 Q 240.3 76.8 243.5 76 L 244.5 75 L 247.5 78 L 251.5 79 Q 252.5 77 256.5 78 L 258.5 79 L 261.5 78 L 264.5 75 L 265 79.5 L 262.5 83 L 256 86.5 L 255.5 88 L 253 87.5 L 252.5 86 L 247.5 84 L 243.5 86 L 238.5 86 L 231 80.5 L 224.5 73 L 223 72.5 Q 223.5 68.5 220.5 68 Q 219.1 70.6 214.5 70 L 215 68.5 L 216 66.5 L 214.5 65 Q 209.9 65.6 208.5 63 L 198.5 63 L 194 64.5 L 200 68.5 L 200 75.5 L 201.5 77 L 208.5 82 L 211.5 81 L 213.5 85 L 217.5 85 L 222 87.5 L 221.5 89 L 218.5 90 L 206.5 90 L 200.5 83 L 199.5 86 L 196 82.5 L 194 78.5 L 194 74.5 L 192.5 73 L 190 72.5 L 190 68.5 L 188 66.5 Q 188.8 62.8 186.5 62 Q 183.5 62.5 183 60.5 L 181.5 57 L 179 55.5 L 176 48.5 L 177 47.5 L 174.5 45 L 170 44.5 L 169.5 43 L 166.5 44 L 161.5 44 L 161.5 43 L 167.5 41 L 170.5 41 L 174.5 39 Z M 189 62 Q 187 63 190 64 L 192 63 L 189 62 Z " /><path fill="rgb(0,0,0)" stroke="rgb(0,0,0)" stroke-width="1" opacity="0.9803921568627451" d="M 326.5 41 Q 334.3 42.3 337.5 48 L 340.5 47 L 341.5 50 L 348.5 51 L 351 53.5 L 350.5 55 L 347.5 56 L 345.5 55 L 342.5 56 L 339.5 55 L 337.5 56 L 333 53.5 Q 333.5 50.5 331.5 50 L 323.5 55 L 318.5 55 L 310.5 50 L 307 46.5 L 309.5 46 L 319.5 51 L 320.5 49 Q 321.5 51 322.5 49 L 324 49.5 L 323.5 51 L 329 48.5 L 329 46.5 L 327 44.5 L 326.5 41 Z " /><path fill="rgb(0,0,0)" stroke="rgb(0,0,0)" stroke-width="1" opacity="0.9803921568627451" d="M 475.5 49 L 482.5 58 L 484.5 59 L 485.5 56 L 488 57.5 L 488.5 59 L 493 54.5 L 492.5 53 L 494 52.5 L 496.5 49 L 499.5 53 L 505 55.5 L 510 62.5 L 507 67.5 L 508.5 70 L 511.5 71 L 512.5 69 L 515 69.5 L 515.5 71 L 520 67.5 Q 520.6 63.6 523.5 62 L 525 63.5 L 526 68.5 L 521 76.5 L 527.5 82 L 533.5 84 L 542 84.5 L 538.5 86 L 534.5 86 L 533.5 87 L 525.5 88 L 525 85.5 L 517.5 78 Q 515.7 79.7 511.5 79 L 503 73.5 L 501.5 70 Q 497.5 69 496.5 71 L 491 68.5 L 501 63.5 L 499 62.5 L 500 58.5 L 497.5 58 L 493.5 63 L 488.5 66 L 484.5 66 L 476 60.5 L 473 54.5 L 475.5 49 Z " /><path fill="rgb(0,0,0)" stroke="rgb(0,0,0)" stroke-width="1" opacity="0.9803921568627451" d="M 147.5 51 L 150.5 54 L 154.5 55 Q 155.5 53 159.5 54 L 161.5 55 L 167 52.5 L 167.5 51 L 168.5 57 L 170.5 57 L 178 61.5 L 179 64.5 Q 177.3 65.3 178 68.5 L 179 69.5 L 179 75.5 L 177.5 79 L 174.5 77 L 169.5 81 L 161.5 85 L 156.5 82 L 154.5 82 L 147 75.5 L 148.5 75 L 159.5 80 L 160.5 78 Q 161.5 80 162.5 78 L 164 78.5 L 163.5 80 L 165.5 80 L 169.5 77 L 174 75.5 L 172 67.5 L 170.5 66 L 168 65.5 L 169 62.5 L 165.5 59 L 164.5 60 L 162.5 60 L 159 62.5 L 158.5 64 L 156 63.5 L 155.5 62 L 148 58.5 Q 145.9 55.9 147.5 51 Z " /><path fill="rgb(0,0,0)" stroke="rgb(0,0,0)" stroke-width="1" opacity="0.9803921568627451" d="M 302.5 52 L 305.5 52 L 310.5 56 L 313 56.5 L 314.5 59 L 316 59.5 L 318 62.5 L 313.5 63 L 306.5 59 L 304.5 59 L 302.5 60 L 299.5 58 L 295.5 60 L 290.5 60 L 290 58.5 L 297.5 54 L 300.5 54 L 302.5 52 Z " /><path fill="rgb(0,0,0)" stroke="rgb(0,0,0)" stroke-width="1" opacity="0.9803921568627451" d="M 273.5 55 L 283 60.5 L 284.5 63 L 289.5 64 L 292.5 66 Q 293.8 63.7 298.5 65 L 298.5 66 Q 296.7 67.7 292.5 67 L 291.5 68 L 287.5 68 L 283.5 70 L 282 66.5 L 275 59.5 L 273 55.5 L 273.5 55 Z " /><path fill="rgb(0,0,0)" stroke="rgb(0,0,0)" stroke-width="1" opacity="0.9803921568627451" d="M 144.5 64 L 147 64.5 L 147.5 66 L 158.5 66 L 161 67.5 L 160.5 69 L 153.5 72 L 148.5 72 L 144.5 74 L 141.5 72 L 139.5 72 L 139 72.5 L 143 76.5 L 143 80.5 L 139.5 84 L 137 80.5 Q 139 79.5 137 78.5 L 135.5 76 L 132.5 77 Q 131.8 74.3 127.5 75 L 122.5 78 L 119.5 78 L 119 76.5 L 121.5 73 L 124.5 71 Q 129.9 71.9 132 69.5 L 129 68.5 L 129.5 67 L 131.5 66 L 144 65.5 L 144.5 64 Z " /><path fill="rgb(0,0,0)" stroke="rgb(0,0,0)" stroke-width="1" opacity="0.9803921568627451" d="M 180.5 79 L 183.5 79 L 188.5 83 L 191 83.5 L 192.5 86 L 195 87.5 L 196 89.5 L 191.5 90 L 184.5 86 L 182.5 86 L 180.5 87 L 177.5 85 Q 175.2 88.2 168.5 87 L 168 85.5 L 175.5 81 L 178.5 81 L 180.5 79 Z " /><path fill="rgb(0,0,0)" stroke="rgb(0,0,0)" stroke-width="1" opacity="0.9803921568627451" d="M 114.5 83 L 117.5 83 L 128 90.5 L 130 93.5 L 125.5 94 L 118.5 90 L 116.5 90 L 114.5 91 L 111.5 89 L 107.5 91 L 102.5 91 L 102 89.5 L 114.5 83 Z " /><path fill="rgb(0,0,0)" stroke="rgb(0,0,0)" stroke-width="1" opacity="0.9803921568627451" d="M 129.5 85 L 132.5 87 L 138.5 88 Q 139.5 86 140.5 88 L 142.5 89 L 144.5 87 L 146.5 87 L 149.5 85 L 150 88.5 L 149 91.5 L 153 93.5 L 154.5 96 L 164.5 99 Q 165.3 97.2 168.5 98 Q 170 99 167.5 100 L 159.5 101 L 153.5 103 Q 151.3 96.2 145.5 93 L 141 95.5 L 140.5 97 L 138 96.5 L 137.5 95 L 135.5 95 L 130 91.5 Q 128 89.2 129.5 85 Z " /><path fill="rgb(0,0,0)" stroke="rgb(0,0,0)" stroke-width="1" opacity="0.9803921568627451" d="M 226.5 89 L 236.5 89 L 243 95.5 L 242 97.5 L 243 98.5 L 240.5 101 L 238.5 102 L 234.5 94 L 231.5 96 L 229.5 93 L 226 94.5 L 230 96.5 L 222.5 100 L 217.5 100 L 214 102.5 L 216 105.5 L 215 108.5 L 218 111.5 L 219 118.5 L 217.5 118 L 214 116.5 L 211.5 113 L 210 112.5 L 207.5 108 L 201.5 110 L 200.5 107 L 197.5 108 Q 196.8 106.3 193.5 107 Q 192.5 109 191.5 107 L 188.5 106 L 185.5 107 L 179 101.5 L 175.5 97 L 172.5 98 L 171.5 96 L 163.5 97 L 163.5 96 L 176.5 92 L 177.5 93 L 183.5 93 L 188 95.5 L 189.5 98 L 192.5 99 L 194.5 98 L 196 99.5 Q 193.8 100.8 196.5 102 L 200.5 102 L 205.5 105 L 209.5 105 L 213 103.5 L 212.5 102 L 209.5 100 L 200.5 99 L 197 96.5 L 201.5 94 L 212 93.5 L 212.5 92 L 215 92.5 L 215.5 94 L 219 93.5 L 219.5 92 L 226.5 89 Z M 188 103 L 187 106 L 188 106 L 188 103 Z " /><path fill="rgb(0,0,0)" stroke="rgb(0,0,0)" stroke-width="1" opacity="0.9803921568627451" d="M 555.5 90 L 558 92.5 Q 554.5 94 557 95.5 L 561 102.5 L 561 105.5 L 559.5 106 L 551 99.5 Q 551.5 95.5 548.5 95 Q 547.1 97.6 542.5 97 L 543 95.5 L 544.5 93 L 553.5 92 L 555.5 90 Z " /><path fill="rgb(0,0,0)" stroke="rgb(0,0,0)" stroke-width="1" opacity="0.9803921568627451" d="M 110.5 95 L 112.5 95 L 118 98.5 L 118.5 100 L 121.5 102 L 122.5 100 L 125 101.5 L 125.5 104 L 132.5 104 L 140.5 101 L 145.5 101 L 153.5 112 L 159.5 110 L 161.5 108 L 164.5 108 L 176.5 116 Q 178.2 113.2 183.5 114 L 186.5 117 L 193 120.5 L 194.5 123 Q 199.1 122.4 200.5 125 L 209 125.5 L 201.5 128 L 193.5 129 L 189.5 124 L 182.5 120 L 179.5 122 Q 179 119.5 175.5 120 L 171.5 122 L 167.5 122 L 167 120.5 L 170 118.5 L 169.5 117 L 166.5 115 L 164.5 115 L 161.5 116 Q 160 112.5 158.5 115 L 155.5 116 L 149.5 116 L 150 114.5 L 147.5 111 L 146 110.5 L 142.5 106 L 139.5 106 L 136.5 104 L 133 105.5 L 135 107.5 L 134.5 108 L 126.5 110 Q 125.8 108.2 122.5 109 Q 121.5 111 120.5 109 L 117 107.5 L 116.5 105 Q 111.9 104.4 110.5 107 L 107.5 106 Q 106.2 109.3 100.5 108 L 96.5 106 L 94 107.5 L 97 109.5 L 98 111.5 Q 96.3 112.3 97 115.5 L 98 116.5 L 98 123.5 L 99.5 125 L 104.5 129 L 107.5 129 L 110.5 131 L 112.5 131 Q 113.3 129.3 116.5 130 L 117 131.5 L 101.5 135 L 101 132.5 L 92 122.5 L 91 114.5 L 89.5 113 L 87 112.5 L 88 109.5 L 86 108.5 L 85 104.5 L 86.5 104 L 88.5 105 L 87.5 102 L 95.5 100 Q 96.5 102 100.5 101 L 102.5 98 L 104 98.5 L 105.5 101 Q 110.3 101.8 112 99.5 L 110 95.5 L 110.5 95 Z " /><path fill="rgb(0,0,0)" stroke="rgb(0,0,0)" stroke-width="1" opacity="0.9803921568627451" d="M 110.5 111 L 112.5 113 L 117.5 115 Q 118.7 112.7 123.5 114 Q 124.5 116 125.5 114 L 127.5 114 L 131.5 111 L 132 114.5 L 129.5 119 L 122 122.5 L 122.5 125 L 128.5 129 L 130.5 128 L 132 129.5 L 131.5 131 Q 133.3 132.7 137.5 132 L 142 135.5 L 137 137.5 Q 143.5 138 146 142.5 L 146.5 147 L 148 146.5 L 148.5 145 L 151 145.5 L 152.5 148 L 156.5 149 L 164.5 155 Q 165.5 153 166.5 155 Q 172.9 155.7 175 160.5 L 174.5 166 L 170.5 168 Q 168.4 166.6 169 162.5 L 166.5 160 Q 164.8 163.8 163 160.5 L 162.5 159 L 157.5 160 L 155.5 162 L 151.5 163 L 151 159.5 L 155.5 156 L 160 154.5 L 156.5 154 L 154.5 152 L 143.5 152 L 142.5 153 L 135 154.5 L 141 156.5 L 137.5 159 L 131.5 161 L 130 160.5 L 132.5 164 Q 134 161.5 135.5 165 Q 137.3 163.3 141.5 164 L 142.5 165 L 144.5 163 Q 145.5 165 146.5 163 L 149.5 161 L 150 165.5 L 147.5 169 L 141.5 171 L 140 172.5 Q 141.3 175.3 142.5 173 L 153 172.5 L 152.5 171 L 155 171.5 L 155.5 173 L 158.5 174 L 159.5 173 L 165.5 173 L 170 175.5 L 166.5 178 L 157.5 179 Q 156.5 182 151.5 181 L 149.5 179 L 144.5 179 L 138 175.5 Q 140 174.5 138 173.5 L 136.5 171 L 130 168.5 L 128.5 161 L 124.5 163 L 118.5 160 L 116 161.5 L 118.5 162 L 124 166.5 L 120.5 167 Q 119.8 165.3 116.5 166 L 114.5 164 L 110.5 164 Q 109.5 166 108.5 164 L 104.5 164 L 100 165.5 L 100.5 169 L 108.5 172 L 113 175.5 L 108.5 176 L 102.5 173 L 99.5 173 L 97.5 174 Q 96.8 172.3 93.5 173 Q 91.2 176.2 84.5 175 L 84.5 174 L 87 172.5 Q 87.6 168.4 85.5 167 L 81.5 168 L 80.5 166 L 76.5 166 L 71.5 169 L 69.5 169 L 68.5 167 L 57.5 167 L 55 164.5 L 54.5 162 L 52 160.5 L 48 152.5 L 49.5 152 L 56 155.5 L 57.5 158 L 59.5 159 L 62.5 158 L 63.5 161 L 72.5 163 Q 73.8 160.8 78.5 162 L 80 160.5 L 78 157.5 L 77 152.5 L 75.5 151 L 73 149.5 L 74 146.5 L 70.5 145 Q 69.8 146.8 66.5 146 L 64.5 142 L 59 137.5 L 57 134.5 L 57 132.5 L 57.5 132 L 59.5 134 Q 65.6 135.4 68.5 140 L 74.5 142 L 81.5 142 L 82 140.5 L 81.5 139 L 86.5 140 L 93.5 146 L 94.5 144 L 97 145.5 Q 94.8 146.8 97.5 148 L 101.5 148 L 107 151.5 L 104.5 153 Q 99.8 151.8 98.5 154 Q 97.7 152.3 94.5 153 Q 93.5 155 92.5 153 Q 89.5 153.5 89 151.5 L 82.5 143 L 79 143.5 L 79.5 145 Q 82.5 144.5 83 146.5 L 83 152.5 L 84 153.5 L 84.5 161 Q 90.6 162.4 93 167.5 L 93.5 170 L 97 167.5 L 95 165.5 L 95.5 165 L 109 158.5 Q 106.8 157.3 109.5 156 Q 111.3 154.3 115.5 155 L 116.5 154 Q 117.8 156.3 122.5 155 L 123.5 153 L 126 153.5 L 126.5 155 L 131.5 155 L 134.5 154 Q 136.7 150.7 141 149.5 L 131 144.5 L 128 140.5 L 128.5 140 L 131.5 143 L 139.5 146 L 139 144.5 L 136 140.5 L 135.5 137 L 126.5 137 L 124 134.5 L 121.5 131 L 120 130.5 L 117 124.5 L 117 122.5 L 117.5 121 L 112 118.5 L 110 114.5 L 110.5 111 Z M 142 148 L 142 149 L 144 149 L 142 148 Z " /><path fill="rgb(0,0,0)" stroke="rgb(0,0,0)" stroke-width="1" opacity="0.9803921568627451" d="M 150.5 117 L 155.5 119 L 157.5 121 L 162.5 122 L 169 126.5 L 168 131.5 L 170 134.5 Q 167.7 135.7 169 140.5 L 170.5 140 L 174.5 141 L 176 142.5 L 183 154.5 L 180.5 155 L 174 149.5 L 170.5 145 L 167.5 146 L 166.5 144 L 158.5 145 L 158.5 144 L 166 141.5 L 163 136.5 L 163 133.5 L 161.5 130 L 158 129.5 L 159 126.5 L 157.5 126 Q 157.2 130.7 153.5 132 L 150.5 133 L 144.5 131 L 138 125.5 L 137 120.5 Q 138 119 139 121.5 L 142.5 128 L 145.5 129 L 146.5 127 L 147.5 128 L 149.5 126 L 150 126.5 Q 147.7 127.7 150.5 129 L 152 124.5 Q 148.8 122.3 150.5 117 Z " /><path fill="rgb(0,0,0)" stroke="rgb(0,0,0)" stroke-width="1" opacity="0.9803921568627451" d="M 71.5 123 Q 78.8 124.7 82.5 130 L 88.5 132 L 96 132.5 L 88.5 135 L 84.5 135 L 80.5 137 L 80 134.5 L 71 124.5 L 71.5 123 Z " /><path fill="rgb(0,0,0)" stroke="rgb(0,0,0)" stroke-width="1" opacity="0.9803921568627451" d="M 182.5 132 L 188.5 133 L 192 136.5 L 191.5 142 L 184.5 143 L 178.5 140 L 175 136.5 L 174 134.5 L 174.5 134 L 178.5 138 L 183.5 140 L 185 137.5 L 182 134.5 L 182.5 132 Z " /><path fill="rgb(0,0,0)" stroke="rgb(0,0,0)" stroke-width="1" opacity="0.9803921568627451" d="M 98.5 138 L 104.5 140 L 108.5 143 L 110.5 143 L 110.5 141 L 112.5 142 L 114 141.5 L 114.5 143 L 116.5 143 L 118.5 141 L 125.5 138 L 126 139.5 L 118.5 145 L 111.5 148 L 103.5 144 L 98 139.5 L 98.5 138 Z " /><path fill="rgb(0,0,0)" stroke="rgb(0,0,0)" stroke-width="1" opacity="0.9803921568627451" d="M 35.5 168 Q 42.3 170.7 46.5 176 L 52.5 178 L 60 178.5 L 56.5 180 L 53.5 180 L 52 181.5 L 57.5 185 L 60.5 183 Q 64.7 183.7 66.5 182 Q 67.8 184.3 72.5 183 L 74.5 180 L 76.5 183 Q 80.7 183.7 82.5 182 L 83.5 183 Q 88.3 181.8 89.5 184 L 90.5 181 Q 91.5 183 95.5 182 L 99.5 185 L 109.5 180 L 112.5 180 L 123 187.5 L 125 190.5 L 120.5 191 L 113.5 187 L 111.5 187 L 109.5 188 Q 109 185.5 105.5 186 L 100 188.5 Q 100.5 191.5 98.5 192 L 93.5 193 L 90.5 192 L 84.5 187 L 81.5 189 L 79.5 188 Q 77.5 191 71.5 190 Q 70.5 188 66.5 189 L 65.5 190 L 61.5 190 L 55.5 192 L 52.5 187 L 52 188.5 L 54 191.5 L 52 194.5 L 52 196.5 L 50 198.5 L 55.5 203 L 57.5 202 L 58.5 205 Q 60.3 206.7 64.5 206 L 68 208.5 L 67.5 210 L 64.5 211 L 58.5 211 L 56.5 210 L 53.5 211 L 50 208.5 Q 50.5 205.5 48.5 205 L 47 204.5 L 45.5 202 L 39 203.5 L 42 205.5 L 49 217.5 L 47.5 218 L 40 212.5 L 36.5 208 L 33.5 209 L 32.5 207 L 24.5 208 Q 23 207 25.5 206 L 31.5 204 L 35.5 204 L 38 202.5 L 30 196.5 L 28 190.5 L 30.5 186 L 38.5 196 L 40.5 193 L 42 193.5 L 43.5 196 L 47 192.5 L 51 185.5 Q 49.6 181.4 44 181.5 L 44 179.5 L 40.5 176 L 39 175.5 L 35 169.5 L 35.5 168 Z M 90 185 L 88 186 L 87 188 Q 88 190 93 189 L 93 188 L 90 185 Z " /><path fill="rgb(0,0,0)" stroke="rgb(0,0,0)" stroke-width="1" opacity="0.9803921568627451" d="M 126.5 171 Q 130.6 170.4 132 172.5 L 139.5 186 Q 141.2 183.2 146.5 184 Q 148.7 187.4 153 188.5 L 153.5 190 L 157 192.5 L 158 194.5 L 154.5 195 L 145.5 190 L 142.5 192 Q 142 189.5 138.5 190 L 137.5 191 L 130.5 192 L 130 190.5 L 137 186.5 L 136.5 185 L 130 179.5 L 127.5 176 L 123.5 177 L 122.5 175 L 114.5 176 L 114.5 175 L 126.5 171 Z " /><path fill="rgb(0,0,0)" stroke="rgb(0,0,0)" stroke-width="1" opacity="0.9803921568627451" d="M 109.5 190 L 111.5 190 L 117 193.5 L 118.5 196 L 120.5 197 L 121.5 195 L 124 196.5 L 124.5 199 L 127.5 200 Q 128.5 198 129.5 200 L 134.5 201 Q 135.3 198.3 139.5 199 L 151 207.5 L 152 209.5 L 147.5 210 L 139.5 206 L 137.5 208 L 134.5 205 L 133.5 206 L 130.5 207 L 124.5 207 L 125 205.5 L 124.5 204 L 119.5 205 L 116 202.5 Q 116.5 199.5 114.5 199 L 112 197.5 L 109 191.5 L 109.5 190 Z " /><path fill="rgb(0,0,0)" stroke="rgb(0,0,0)" stroke-width="1" opacity="0.9803921568627451" d="M 66.5 193 L 70.5 194 L 78 198.5 Q 76.8 204.7 79 207.5 L 78 209.5 Q 78.8 211.8 82.5 211 L 84.5 210 Q 91.3 212.7 95.5 218 L 100.5 219 L 103.5 221 Q 104.8 218.7 109.5 220 L 109.5 221 L 103.5 222 L 102 223.5 Q 108.6 225.9 112.5 231 L 116.5 231 Q 117 233.5 120.5 233 Q 121.5 231 125.5 232 L 125.5 233 L 115 235.5 L 122 241.5 L 124.5 245 L 126 244.5 L 126.5 243 L 129 245.5 L 128.5 247 Q 130.3 245.3 134.5 246 L 134.5 247 L 128.5 249 L 125.5 249 L 124.5 250 L 121.5 250 L 116 243.5 L 113.5 236 L 109.5 237 L 108.5 234 L 107 238.5 L 110 241.5 L 111 248.5 L 110.5 249 L 108.5 247 L 102 242.5 L 99.5 238 L 97 238.5 Q 97.5 241.5 95.5 242 L 88.5 243 L 81 238.5 L 77.5 234 Q 73.3 233.3 72.5 236 L 68.5 236 L 66.5 234 L 57.5 233 L 54 230.5 L 58.5 228 L 69 227.5 L 67.5 226 Q 61.5 227 59.5 224 L 51.5 224 L 50.5 223 L 47.5 225 L 44.5 225 L 41 226.5 L 41 228.5 L 37.5 232 L 31.5 232 L 25.5 229 L 22 225.5 L 21 220.5 Q 22 219 23 221.5 L 25.5 227 L 28.5 229 L 30.5 229 L 30.5 227 L 31.5 228 L 33.5 226 L 34 226.5 L 33.5 228 L 36 226.5 L 34 220.5 L 34 217.5 L 35.5 217 L 38.5 218 L 41 220.5 Q 40.5 223.5 42.5 224 L 44.5 222 L 53 218.5 L 53.5 216 L 57 217.5 L 56.5 219 L 65.5 223 L 68.5 226 L 72 226.5 L 72.5 228 L 81.5 228 L 86 230.5 L 79 234.5 L 82.5 238 L 87.5 240 L 89 237.5 L 86 232.5 L 88.5 232 Q 89.3 233.7 92.5 233 L 94.5 235 L 99.5 235 L 100.5 234 L 105 233.5 L 105.5 232 L 107.5 234 L 108 233.5 L 106.5 231 L 103 228.5 L 99.5 223 L 94.5 225 L 92.5 222 L 88.5 224 L 84.5 216 L 81.5 218 L 79.5 215 L 69.5 219 L 69 215.5 L 74 211.5 Q 71.2 209.8 72 204.5 L 70.5 203 L 68 201.5 Q 68.8 197.3 66 196.5 L 66.5 193 Z " /><path fill="rgb(0,0,0)" stroke="rgb(0,0,0)" stroke-width="1" opacity="0.9803921568627451" d="M 95.5 196 L 98 196.5 L 98.5 198 L 109.5 198 L 112 199.5 L 111.5 201 L 108.5 203 L 99.5 204 L 95.5 206 L 92.5 204 L 87.5 204 L 80 200.5 L 83.5 198 L 95 197.5 L 95.5 196 Z " /><path fill="rgb(0,0,0)" stroke="rgb(0,0,0)" stroke-width="1" opacity="0.9803921568627451" d="M 102.5 206 L 105.5 207 L 108.5 210 L 111 210.5 L 112.5 213 L 119.5 216 Q 121.5 212 123.5 216 L 127 216.5 L 125 217.5 L 125 219.5 L 129.5 224 L 131 223.5 L 131.5 221 L 134 222.5 L 134.5 224 L 142.5 214 L 145 220.5 Q 143.3 225.3 139.5 228 L 134.5 231 L 129.5 231 L 122 225.5 L 118.5 219 L 111.5 220 L 111 217.5 L 103 209.5 Q 101.3 208 102.5 206 Z " /><path fill="rgb(0,0,0)" stroke="rgb(0,0,0)" stroke-width="1" opacity="0.9803921568627451" d="M 45.5 232 L 51.5 232 L 58 235.5 L 60.5 239 L 61.5 237 L 68.5 239 L 73 242.5 L 73 248.5 L 74.5 252 Q 78 251.5 78.5 254 L 82.5 252 L 85.5 254 L 87.5 252 L 89.5 252 L 92.5 250 L 93 252.5 L 92 255.5 L 89.5 258 L 83 260.5 L 82.5 262 L 80 261.5 L 79.5 260 L 73.5 258 L 71.5 259 L 68 253.5 L 67 247.5 L 65.5 246 L 63 245.5 L 64 242.5 L 62.5 242 L 58.5 247 L 52.5 250 L 47.5 250 L 44 248.5 L 43.5 247 L 40.5 248 L 32.5 244 L 33 245.5 L 31.5 247 L 25.5 249 Q 18.1 246.4 14 240.5 L 15.5 240 L 19.5 244 L 25.5 246 L 26 244.5 Q 22.4 242.6 22 237.5 L 23.5 238 L 28.5 238 L 34.5 243 L 40.5 245 L 41 243.5 Q 37.8 241.2 37 236.5 L 38.5 237 L 42.5 237 L 48 242.5 L 47 245.5 L 49.5 246 L 54 243.5 L 51 241.5 L 54 239.5 L 45 233.5 L 45.5 232 Z " /><path fill="rgb(0,0,0)" stroke="rgb(0,0,0)" stroke-width="1" opacity="0.9803921568627451" d="M 96.5 249 L 104 254.5 L 106.5 259 L 108 258.5 L 108.5 257 L 111 258.5 L 111.5 260 Q 115.5 261 116.5 259 Q 117.5 261 118.5 259 L 124 259.5 L 125.5 262 L 127.5 262 L 135 269.5 L 130.5 270 L 121.5 265 L 118.5 267 L 117.5 265 L 107.5 267 Q 105 266 106.5 265 L 109 263.5 L 106.5 263 L 104.5 264 L 101 261.5 L 101 259.5 L 98 256.5 L 96 250.5 L 96.5 249 Z " /><path fill="rgb(0,0,0)" stroke="rgb(0,0,0)" stroke-width="1" opacity="0.9803921568627451" d="M 12.5 252 L 17.5 254 L 23.5 259 L 26.5 258 L 27 259.5 L 26.5 261 L 33.5 262 L 37 264.5 L 36.5 266 L 34 266.5 L 42 268.5 L 42.5 270 Q 46.5 269.5 47 272.5 L 46 277.5 L 47 278.5 L 47 286.5 L 46.5 288 L 48.5 287 Q 53.3 289.3 49 291.5 L 52.5 296 L 58.5 299 L 60.5 299 L 60.5 297 L 62.5 298 L 64 297.5 L 63.5 299 L 65.5 299 L 69 296.5 L 66.5 292 L 65.5 293 L 62 289.5 L 60 285.5 L 60 281.5 L 58.5 280 L 56 279.5 L 57 276.5 L 54 273.5 L 54 271.5 L 57.5 271 L 65 274.5 L 66 276.5 L 66 282.5 L 67 285.5 Q 65 286.5 67 287.5 L 67.5 290 L 69.5 290 L 77.5 296 L 79.5 295 L 81 296.5 Q 78.8 297.8 81.5 299 L 86.5 299 L 91.5 303 L 96 300.5 L 96.5 298 L 100 299.5 L 99.5 301 L 108.5 305 L 112 308.5 L 110.5 308 L 105.5 308 L 102.5 306 L 94.5 306 L 93.5 305 L 90.5 307 L 83.5 308 Q 82 307 84.5 306 L 87 304.5 L 83.5 304 Q 82.5 306 81.5 304 Q 78.3 303.3 77.5 305 L 73 302.5 Q 73.5 299.5 71.5 299 L 61.5 304 L 56.5 301 L 54.5 301 L 52.5 304 L 51.5 302 L 48 300.5 L 46.5 298 L 44 296.5 L 42.5 293 L 41 293.5 L 42 296.5 L 37.5 303 L 30.5 307 L 27.5 307 L 19 300.5 L 17 296.5 L 17 292.5 L 18.5 290 L 20 290.5 L 16.5 286 L 13.5 287 L 11.5 284 L 10.5 285 Q 5.7 283.8 4.5 286 L 4 284.5 L 10.5 282 L 14.5 282 L 17 280.5 L 12 276.5 L 10 272.5 L 10 267.5 L 11.5 265 L 19.5 275 L 21 274.5 L 22.5 272 L 24.5 275 Q 28.9 272.9 30 267.5 L 25.5 266 Q 24.8 267.8 21.5 267 L 13 256.5 L 12.5 252 Z M 36 271 L 33 275 L 33 277 Q 28 281 21 284 L 25 288 L 28 295 L 28 296 L 22 291 L 20 292 L 22 295 L 28 299 L 28 298 L 31 297 L 32 299 L 36 296 L 35 293 L 38 290 L 42 290 L 45 289 L 41 283 Q 42 278 40 277 L 36 276 Q 38 275 37 272 L 36 271 Z " /><path fill="rgb(0,0,0)" stroke="rgb(0,0,0)" stroke-width="1" opacity="0.9803921568627451" d="M 43.5 253 Q 48 252 49 254.5 L 55.5 264 L 59.5 266 L 60.5 263 Q 61.5 265 62.5 263 L 64 263.5 L 63 265.5 L 64.5 265 L 72.5 261 L 74.5 261 L 75 261.5 L 72.5 264 L 63.5 270 L 58.5 270 L 57.5 268 L 53.5 267 L 47 261.5 L 44.5 258 L 41.5 259 L 39.5 256 L 38.5 257 L 31.5 258 Q 30 257 32.5 256 L 42.5 254 L 43.5 253 Z " /><path fill="rgb(0,0,0)" stroke="rgb(0,0,0)" stroke-width="1" opacity="0.9803921568627451" d="M 91.5 262 L 94.5 262 L 99.5 266 L 102 266.5 L 103.5 269 L 106 270.5 L 107 272.5 L 102.5 273 L 94.5 269 L 92.5 271 L 89.5 268 L 88.5 269 L 85.5 270 L 79.5 270 L 79 269.5 L 81.5 267 L 86.5 264 L 89.5 264 L 91.5 262 Z " /><path fill="rgb(0,0,0)" stroke="rgb(0,0,0)" stroke-width="1" opacity="0.9803921568627451" d="M 67.5 269 Q 73.6 270.4 76 275.5 L 78.5 279 L 79.5 277 L 82 278.5 L 82.5 280 L 85 279.5 L 85.5 278 Q 89.5 279 90.5 277 L 98.5 281 L 110 275.5 L 110.5 274 L 113 274.5 L 114.5 277 L 118.5 278 L 126 283.5 L 122.5 284 Q 121.8 282.3 118.5 283 L 116.5 281 L 105.5 281 Q 104.8 282.8 101.5 282 L 100 283.5 L 102 286.5 L 102 289.5 L 95.5 295 L 88.5 296 L 84 293.5 L 85.5 292 L 88.5 292 L 93 289.5 L 92.5 288 L 91 287.5 L 93 284.5 L 88.5 281 L 83.5 281 L 76.5 284 L 73 281.5 L 71.5 278 L 70 277.5 L 70 275.5 L 67 269.5 L 67.5 269 Z " /><path fill="rgb(0,0,0)" stroke="rgb(0,0,0)" stroke-width="1" opacity="0.9803921568627451" d="M 112.5 288 Q 113.5 290 114.5 288 L 118 289.5 L 119.5 292 L 121.5 292 L 128 298.5 L 127.5 300 L 122.5 299 L 116.5 295 L 114.5 295 L 112.5 297 L 112 296.5 L 111.5 295 L 100.5 296 L 100 295.5 L 102.5 293 L 108.5 290 L 110.5 290 L 112.5 288 Z " /><path fill="rgb(0,0,0)" stroke="rgb(0,0,0)" stroke-width="1" opacity="0.9803921568627451" d="M 2.5 302 L 5.5 302 L 13.5 308 L 15.5 307 L 17 308.5 L 16.5 310 L 18.5 309 L 20.5 311 L 24.5 312 L 27 314.5 L 24 315.5 L 27.5 319 L 28 318.5 L 29.5 316 L 31 316.5 L 31.5 319 L 35 316.5 L 39.5 309 L 45.5 307 L 53.5 306 L 60.5 314 Q 63.5 313.5 64 315.5 L 65.5 318 Q 70.1 317.4 71.5 320 L 80 320.5 L 72.5 323 L 67.5 323 L 64.5 324 L 62.5 321 L 59.5 320 L 54 315.5 L 50.5 311 L 47.5 312 L 46.5 310 Q 42 309 41 311.5 Q 43 312.5 42 316.5 L 38.5 322 L 35 324.5 Q 36.4 326.6 40.5 326 L 42.5 325 Q 43.3 326.7 46.5 326 L 52.5 323 L 53 325.5 L 52 326.5 L 57.5 332 L 60.5 331 L 63 332.5 Q 60.7 333.8 63.5 335 Q 67.5 334 68.5 336 L 69 334.5 Q 67.3 333.8 68 330.5 Q 69 329 70 331.5 L 73.5 338 L 76.5 339 L 77.5 337 L 78.5 338 L 80.5 336 L 81 336.5 Q 78.8 337.8 81.5 339 L 83 334.5 Q 80.2 332.8 81 327.5 L 82.5 327 L 88 330.5 L 89 335.5 L 88 338.5 L 84.5 342 L 78.5 342 L 73.5 339 L 70.5 339 L 64.5 341 Q 63.8 339.3 60.5 340 Q 59.5 342 58.5 340 Q 55.5 340.5 55 338.5 L 49.5 331 L 43 333.5 L 42.5 335 L 40 334.5 L 39.5 333 L 33 330.5 L 30.5 326 L 27.5 326 L 19 319.5 L 17.5 316 Q 14.3 315.3 13.5 317 L 9 313.5 L 6.5 310 L 5 309.5 L 5 307.5 L 2 303.5 L 2.5 302 Z " /><path fill="rgb(0,0,0)" stroke="rgb(0,0,0)" stroke-width="1" opacity="0.9803921568627451" d="M 116.5 305 L 122 308.5 L 124 313.5 L 120.5 320 L 115.5 321 L 106.5 317 L 104 314.5 L 103 309.5 Q 104 308 105 310.5 Q 105.9 315.1 109.5 317 L 111.5 318 L 112.5 315 L 113.5 316 L 115 315.5 L 115.5 317 L 117 316.5 Q 118.2 311.8 116 310.5 L 116.5 305 Z " /><path fill="rgb(0,0,0)" stroke="rgb(0,0,0)" stroke-width="1" opacity="0.9803921568627451" d="M 88.5 308 L 91 310.5 Q 87.5 312 90 313.5 L 93 317.5 L 93.5 320 L 101 318.5 L 101.5 317 L 104 318.5 L 103 323.5 Q 106.3 324.8 106.5 329 L 110.5 329 Q 111.3 326.3 115.5 327 L 120.5 331 L 123 331.5 L 124.5 334 L 127 335.5 L 128 337.5 L 123.5 338 L 116.5 334 L 114.5 334 L 112.5 335 Q 111 331.5 109.5 334 L 106.5 335 L 100.5 335 L 100 334.5 L 103 331.5 L 99.5 328 L 98 327.5 L 95.5 323 L 89.5 325 Q 89.7 320.3 86.5 319 L 84 317.5 Q 84.5 314.5 82.5 314 L 75.5 315 L 76 313.5 L 77.5 311 L 86.5 310 L 88.5 308 Z " /><path fill="rgb(0,0,0)" stroke="rgb(0,0,0)" stroke-width="1" opacity="0.9803921568627451" d="M 14.5 325 Q 15.5 327 16.5 325 L 18 325.5 Q 15.8 326.8 18.5 328 L 27.5 332 L 30 334.5 L 26.5 335 L 19.5 332 L 16.5 332 Q 15.5 334 14.5 332 L 9.5 332 L 5.5 334 L 1.5 334 Q 0 333 2.5 332 L 8.5 329 L 10.5 329 L 14 326.5 L 14.5 325 Z " /><path fill="rgb(0,0,0)" stroke="rgb(0,0,0)" stroke-width="1" opacity="0.9803921568627451" d="M 98.5 337 L 104.5 338 L 109 342.5 Q 109.8 346.8 107 347.5 L 112 351.5 L 115.5 356 L 116.5 354 L 119 355.5 L 119.5 358 Q 120.3 356.3 123.5 357 L 123.5 358 L 112.5 361 L 110 359.5 Q 109.3 355.3 106 353.5 L 104.5 348 L 100.5 348 L 96.5 345 L 94 344.5 L 90 339.5 L 90.5 339 L 93.5 342 L 99.5 345 L 101 344.5 L 101.5 346 L 102 343.5 L 99 340.5 L 98.5 337 Z " /><path fill="rgb(0,0,0)" stroke="rgb(0,0,0)" stroke-width="1" opacity="0.9803921568627451" d="M 30.5 338 Q 38.6 337.9 41 343.5 Q 41.8 347.3 39.5 348 L 32.5 349 Q 26.1 345.9 22 340.5 L 22.5 340 L 25.5 343 L 31.5 346 L 32.5 345 L 34 345.5 L 31 341.5 L 30.5 338 Z " /><path fill="rgb(0,0,0)" stroke="rgb(0,0,0)" stroke-width="1" opacity="0.9803921568627451" d="M 40.5 339 L 47.5 339 L 53 341.5 L 58 349.5 L 57.5 351 L 66 347.5 L 66.5 345 L 68.5 346 L 70 345.5 L 69 347.5 L 73.5 350 L 75.5 350 L 82 354.5 L 77.5 355 L 73.5 353 Q 66.7 354.3 63.5 352 L 60.5 354 Q 56.5 353 55.5 355 Q 54.5 353 53.5 355 L 43.5 357 L 39 354.5 L 49 350.5 L 48.5 349 L 47 348.5 L 48 345.5 Q 46.4 342.6 42.5 342 L 40 339.5 L 40.5 339 Z " /><path fill="rgb(0,0,0)" stroke="rgb(0,0,0)" stroke-width="1" opacity="0.9803921568627451" d="M 78.5 343 L 84.5 344 L 90 348.5 L 90 354.5 L 96.5 362 L 98.5 363 L 99.5 361 L 102 362.5 L 101 364.5 L 105.5 366 Q 106.5 364 107.5 366 L 114.5 370 L 117.5 370 L 119.5 369 L 122.5 370 L 128.5 367 L 129 370.5 L 126.5 375 L 124.5 375 L 120 377.5 L 119.5 379 L 117 378.5 L 116.5 377 L 114.5 376 L 111.5 383 L 104 386.5 L 103.5 388 L 101 387.5 L 100.5 386 Q 95.5 385 93 381.5 L 92.5 380 L 88.5 382 L 84.5 382 L 77.5 379 L 75 376.5 L 73 373.5 L 73 370.5 L 73.5 370 L 76 372.5 Q 76.9 377.1 80.5 379 L 83 378.5 L 82.5 377 L 85.5 376 L 85.5 378 L 88 376.5 L 88 373.5 Q 85.4 372.1 86 367.5 L 87.5 367 L 90.5 368 L 93 370.5 L 94 376.5 L 95.5 378 L 99.5 379 Q 100.5 377 104.5 378 L 106.5 379 L 112 376.5 L 111.5 375 L 109 373.5 L 107.5 370 L 102.5 371 L 99.5 370 L 97.5 371 L 94 368.5 L 90.5 364 L 89.5 365 L 86 361.5 L 82.5 352 L 80 351.5 L 80 347.5 Q 76.9 346.4 78.5 343 Z " /><path fill="rgb(0,0,0)" stroke="rgb(0,0,0)" stroke-width="1" opacity="0.9803921568627451" d="M 15.5 345 L 21.5 346 L 23 347.5 L 25 350.5 L 25 354.5 L 21.5 356 L 17.5 356 L 11.5 353 L 8 349.5 L 7 347.5 L 7.5 347 L 11.5 351 L 16.5 353 Q 19.2 351.8 17 350.5 L 15 347.5 L 15.5 345 Z " /><path fill="rgb(0,0,0)" stroke="rgb(0,0,0)" stroke-width="1" opacity="0.9803921568627451" d="M 32.5 356 L 40 361.5 L 43.5 366 L 44.5 364 L 46.5 365 L 49.5 363 Q 53.7 363.7 55.5 362 Q 56.5 364 60.5 363 L 61.5 361 L 64 361.5 L 64.5 363 Q 69.3 363.8 71.5 362 L 79 364.5 L 75.5 367 L 69.5 369 Q 68.5 367 67.5 369 L 62.5 371 L 56.5 368 L 54.5 369 Q 53.5 367 49.5 368 L 40.5 371 L 35.5 368 L 30.5 370 L 22.5 371 L 19.5 366 L 16 363.5 L 13 359.5 L 13 357.5 L 14.5 358 L 20.5 361 L 24.5 365 L 30.5 367 L 36.5 367 L 37 366.5 L 34 363.5 L 32 357.5 L 32.5 356 Z " /><path fill="rgb(0,0,0)" stroke="rgb(0,0,0)" stroke-width="1" opacity="0.9803921568627451" d="M 5.5 373 L 10.5 374 L 14.5 377 L 18.5 378 L 18.5 376 L 22 376.5 L 21.5 378 L 23.5 378 L 25.5 376 L 33.5 373 L 34 373.5 L 32 375.5 L 33.5 377 L 35.5 377 L 42 382.5 L 41 386.5 L 42 387.5 L 42 395.5 L 40.5 398 L 38 395.5 L 36 391.5 L 36 388.5 L 33.5 385 L 31 384.5 L 32 381.5 L 28.5 378 L 27.5 379 L 22.5 382 L 16.5 382 L 7.5 376 L 5 373.5 L 5.5 373 Z " /><path fill="rgb(0,0,0)" stroke="rgb(0,0,0)" stroke-width="1" opacity="0.9803921568627451" d="M 36.5 375 L 41.5 376 L 48.5 380 L 49 378.5 L 48.5 377 L 50.5 378 L 52 377.5 L 52.5 380 L 60.5 375 L 63.5 375 L 71.5 385 L 73 384.5 L 73.5 383 L 76 384.5 L 75.5 386 L 81.5 385 L 81.5 386 L 69.5 390 L 67.5 389 L 67 394.5 L 76.5 405 L 79.5 403 L 80.5 405 L 86 400.5 Q 85.5 396.5 88.5 396 L 90 396.5 Q 91.7 398.3 91 402.5 L 90 405.5 L 86.5 409 L 78.5 413 Q 72 410.5 68 405.5 L 67.5 404 L 65 405.5 L 70 409.5 L 73 414.5 L 67.5 420 L 63.5 421 L 62 422.5 L 63 425.5 L 59 432.5 L 68.5 437 L 69.5 435 L 72 435.5 L 72.5 437 L 81 432.5 L 80 427.5 L 78.5 426 Q 74.6 425.4 73 422.5 L 71 419.5 L 71.5 419 L 75.5 423 L 80.5 425 L 82 422.5 L 79 417.5 L 82.5 417 L 85.5 418 L 90 422.5 L 88.5 427 L 86 427.5 L 86 429.5 L 89.5 433 L 91 432.5 L 91.5 431 L 94 431.5 L 94.5 433 L 99 429.5 L 98.5 428 L 95 425.5 L 95.5 424 L 100.5 426 L 103.5 424 L 105.5 429 L 108 428.5 L 107.5 427 L 109.5 428 L 111 427.5 L 111.5 429 L 113.5 429 L 115.5 427 L 122.5 424 L 123 425.5 L 115.5 431 L 108.5 434 L 104.5 432 L 102.5 436 L 92.5 441 L 81.5 435 L 72.5 441 L 67.5 441 L 56.5 433 L 46.5 430 L 44.5 435 L 37 438.5 L 36.5 440 L 34 439.5 L 33.5 438 L 26 434.5 L 25 427.5 L 25.5 427 L 28.5 430 L 32.5 431 Q 33.5 429 37.5 430 L 39.5 431 L 45 428.5 L 42 424.5 L 41.5 421 L 37.5 420 L 33.5 417 L 30.5 419 Q 30 416.5 26.5 417 L 25.5 418 L 18.5 419 L 18 417.5 L 24.5 413 Q 29.1 413.6 30.5 411 L 34.5 411 Q 36.6 414.3 41 415.5 L 41.5 417 L 45 419.5 L 46 421.5 L 44 422.5 L 48.5 429 L 51.5 430 L 51 428.5 L 51.5 427 L 52.5 428 L 54 427.5 L 54.5 429 L 56 428.5 L 57 424.5 L 54 419.5 L 55.5 418 L 59.5 418 L 64 415.5 L 61 413.5 L 64 411.5 L 60.5 408 L 58.5 408 L 54.5 405 L 47 409.5 L 46.5 411 L 44 410.5 L 43.5 409 L 36 405.5 L 35 398.5 L 35.5 398 L 38.5 401 L 42.5 402 Q 43.5 400 47.5 401 L 49.5 402 L 55.5 399 L 56 402.5 L 55.5 404 Q 61.7 402.8 64.5 405 L 64 403.5 L 61 394.5 L 59.5 393 L 57 391.5 L 58 388.5 L 56 387.5 L 55 383.5 L 56.5 383 L 63 385.5 L 63.5 387 L 66 386.5 L 60.5 378 L 51.5 384 L 47.5 384 L 38.5 378 L 36 375.5 L 36.5 375 Z " /><path fill="rgb(0,0,0)" stroke="rgb(0,0,0)" stroke-width="1" opacity="0.9803921568627451" d="M 88.5 388 L 96.5 388 L 104.5 396 L 108.5 397 L 108.5 395 L 110.5 396 L 112 395.5 L 112.5 397 L 122 392.5 L 121.5 391 Q 119 393 113.5 392 L 113.5 391 L 123.5 389 L 124.5 388 L 128.5 388 L 131 389.5 L 131 391.5 L 135 395.5 L 138 402.5 L 136.5 402 Q 130.4 400.6 128 395.5 L 126.5 393 L 123.5 393 L 116.5 399 L 109.5 402 L 104.5 399 L 102.5 399 L 98.5 401 L 97 399.5 Q 97.6 395.4 95.5 394 L 91.5 395 L 90.5 393 L 86.5 393 L 81.5 396 L 79.5 396 L 79 392.5 L 83.5 389 Q 87.5 390 88.5 388 Z " /><path fill="rgb(0,0,0)" stroke="rgb(0,0,0)" stroke-width="1" opacity="0.9803921568627451" d="M 28.5 391 L 31 392.5 L 30 396.5 L 33 399.5 L 35 405.5 L 33.5 408 L 29 404.5 L 27.5 402 L 25 400.5 L 22.5 397 L 16.5 398 L 16 396.5 L 18.5 394 L 22.5 394 L 23.5 393 L 28 392.5 L 28.5 391 Z " /><path fill="rgb(0,0,0)" stroke="rgb(0,0,0)" stroke-width="1" opacity="0.9803921568627451" d="M 108.5 405 L 115.5 414 L 118 413.5 L 118.5 412 L 122.5 414 L 129.5 405 L 132 411.5 L 130 414.5 L 139.5 415 L 144 418.5 L 146 421.5 L 146 425.5 L 141.5 428 Q 139 427 140 422.5 L 137.5 420 L 135.5 422 L 132.5 419 L 122.5 423 Q 121.3 420.8 116.5 422 L 108.5 416 L 105.5 416 Q 104.1 413.4 99.5 414 Q 98.5 416 97.5 414 Q 92.2 413.2 90.5 416 L 85.5 416 Q 84 415 86.5 414 L 91.5 411 L 94.5 411 L 98 408.5 L 97.5 407 L 99.5 408 L 101 407.5 Q 98.8 408.8 101.5 410 L 105.5 412 L 108.5 405 Z " /><path fill="rgb(0,0,0)" stroke="rgb(0,0,0)" stroke-width="1" opacity="0.9803921568627451" d="M 128.5 428 L 134 431.5 Q 135.7 433.3 135 437.5 L 134.5 439 L 137.5 438 L 143.5 438 L 144.5 437 L 149.5 439 L 152 441.5 L 154 444.5 L 154 448.5 L 149.5 451 Q 147 450 148 445.5 L 145.5 443 L 143.5 445 L 140.5 442 L 130.5 446 L 129.5 443 L 128 443.5 L 129 448.5 Q 127 449.5 129 450.5 L 130 453.5 Q 128.3 454.3 129 457.5 L 133.5 458 Q 134.8 455.8 139.5 457 L 142.5 462 L 145.5 458 L 153.5 457 L 156 455.5 L 156.5 454 L 159 457.5 Q 155.5 459 158 460.5 L 161 464.5 L 162 470.5 L 160.5 471 L 152 463.5 L 149.5 460 L 144 462.5 L 147 467.5 L 148 471.5 L 146.5 471 Q 141.7 469.3 139 465.5 L 136.5 462 L 132 461.5 L 131.5 460 L 127.5 462 L 125.5 461 L 124 461.5 L 125 458.5 L 123 455.5 Q 123.8 450.8 121.5 449 L 119 448.5 L 119 445.5 Q 116.3 444.8 117 440.5 Q 119.5 439 116 437.5 L 114 434.5 L 115.5 432 L 121.5 440 L 123.5 441 L 124 439.5 L 123.5 438 L 125.5 439 L 126.5 437 L 127.5 440 Q 130 439 129 434.5 L 128 433.5 L 128.5 428 Z " /><path fill="rgb(0,0,0)" stroke="rgb(0,0,0)" stroke-width="1" opacity="0.9803921568627451" d="M 54.5 435 L 57 437.5 Q 53.5 439 56 440.5 L 60 447.5 L 60 450.5 L 58.5 451 L 50 444.5 L 47.5 440 Q 46.1 442.6 41.5 442 L 41 440.5 L 43.5 438 L 52.5 437 L 54.5 435 Z " /><path fill="rgb(0,0,0)" stroke="rgb(0,0,0)" stroke-width="1" opacity="0.9803921568627451" d="M 101.5 443 L 107 443.5 L 108.5 446 L 111.5 447 L 118 453.5 L 113.5 454 L 104.5 449 L 101.5 451 L 100.5 449 L 97.5 449 L 94 450.5 L 99 454.5 L 97.5 454 L 92.5 454 L 89.5 452 L 81.5 452 L 80.5 451 L 76 453.5 L 77 455.5 L 73.5 462 L 68.5 463 L 58 457.5 L 56 454.5 L 56 451.5 L 56.5 451 L 59 453.5 Q 59.6 457.4 62.5 459 L 64.5 460 L 65.5 457 L 66.5 458 L 68 457.5 L 68.5 459 L 70 458.5 L 69 447.5 L 70.5 448 L 75.5 450 L 83 446.5 L 82 444.5 L 83.5 445 L 85.5 444 L 87.5 448 L 90.5 449 L 92.5 447 L 101.5 443 Z " /><path fill="rgb(0,0,0)" stroke="rgb(0,0,0)" stroke-width="1" opacity="0.9803921568627451" d="M 47.5 452 L 51 453.5 L 51.5 455 L 54.5 456 L 61 462.5 L 60.5 464 L 55.5 463 L 48.5 459 L 45.5 461 L 44.5 459 L 36.5 460 L 35.5 461 L 33 459.5 L 39.5 455 L 44.5 454 L 47.5 452 Z " /><path fill="rgb(0,0,0)" stroke="rgb(0,0,0)" stroke-width="1" opacity="0.9803921568627451" d="M 90.5 459 L 93.5 459 L 96.5 462 L 102.5 465 L 108.5 461 L 111.5 461 Q 112 458.5 115.5 459 L 120.5 463 L 122.5 463 L 129 469.5 L 123.5 470 L 117.5 466 L 115.5 466 L 113.5 468 L 110.5 465 L 109.5 466 L 104 467.5 L 106 469.5 L 105.5 470 L 101.5 470 L 94.5 466 L 92.5 466 Q 90 467 91.5 468 L 94.5 468 L 103 473.5 L 102 478.5 L 104 481.5 L 103 482.5 L 102.5 490 L 99 487.5 L 95.5 477 L 93 476.5 L 93 473.5 L 90 469.5 Q 92 468.5 90 467.5 L 88.5 465 L 84.5 467 L 80 467.5 L 83 470.5 L 87 478.5 L 85.5 479 L 74.5 469 L 72.5 469 L 71 469.5 L 69.5 467 Q 66.8 468.3 69 469.5 L 69 472.5 L 64.5 479 L 56.5 483 L 46 476.5 L 44 472.5 L 44 469.5 L 45.5 466 L 49 468.5 Q 49.9 473.1 53.5 475 L 55 474.5 L 55.5 473 L 58 473.5 L 58.5 475 L 63 471.5 L 64 468.5 L 62 468.5 L 62.5 467 L 72.5 465 L 73.5 464 L 77.5 464 L 79.5 465 L 81.5 463 Q 85 463.5 85.5 461 L 88.5 461 L 90.5 459 Z " /><path fill="rgb(0,0,0)" stroke="rgb(0,0,0)" stroke-width="1" opacity="0.9803921568627451" d="M 109.5 473 L 111.5 473 L 117.5 476 L 123.5 482 L 127.5 483 L 127.5 481 L 129.5 482 Q 130.5 480 131.5 482 L 143.5 476 L 148.5 476 L 154.5 481 L 155 478.5 L 153 473.5 L 154.5 474 Q 159.1 474.9 161 478.5 L 164.5 483 L 165.5 481 L 168 482.5 L 168.5 484 L 173.5 483 L 173.5 484 L 162.5 488 L 161.5 487 L 156.5 487 L 153.5 486 L 146.5 482 Q 144.5 486 142.5 482 L 139.5 482 L 135.5 485 L 128.5 488 L 122.5 485 L 115.5 491 Q 111.3 490.3 109.5 492 L 104 489.5 L 114 485.5 L 113.5 484 L 112 483.5 L 114 480.5 L 106 474.5 L 109.5 473 Z " /><path fill="rgb(0,0,0)" stroke="rgb(0,0,0)" stroke-width="1" opacity="0.9803921568627451" d="M 79.5 478 L 86 480.5 L 86.5 482 Q 89.5 481.5 90 483.5 L 90 489.5 L 91 490.5 L 91.5 497 L 96.5 494 L 99.5 494 L 101.5 492 L 104.5 492 L 107 493.5 L 107.5 495 L 120.5 502 L 121 500.5 L 120.5 499 L 122.5 500 L 124 499.5 L 124.5 502 L 132 497.5 L 132.5 494 L 134.5 497 L 136 497.5 Q 134 498.5 136 499.5 L 137.5 502 L 140.5 503 L 141.5 501 L 143 501.5 L 143.5 500 L 145 500.5 L 144.5 502 L 146 501.5 L 147 498.5 Q 144.2 496.8 145 491.5 L 146.5 491 L 153.5 494 L 159.5 499 L 161.5 498 L 163 499.5 L 162.5 501 L 171.5 503 L 172 500.5 L 169 497.5 L 167 490.5 L 168.5 490 L 175 495.5 L 177.5 499 L 179 498.5 L 179.5 497 L 180.5 499 L 182 499.5 L 181.5 501 Q 183.3 499.3 187.5 500 L 187.5 501 L 178 503.5 L 184 507.5 L 184.5 515 L 187.5 513 L 190.5 513 L 192.5 511 L 195.5 511 L 206 518.5 L 208 521.5 L 203.5 522 L 196.5 518 L 194.5 518 L 192.5 519 L 189.5 517 L 185 519.5 L 183.5 525 L 180 521.5 L 178 517.5 L 178 513.5 L 176.5 512 L 174 511.5 Q 175 507 172.5 506 L 170.5 507 L 157.5 507 L 152.5 501 L 148.5 506 L 142.5 506 L 132.5 500 L 123.5 506 L 119.5 506 L 117.5 504 L 109.5 502 Q 107.9 499.2 103.5 499 L 101.5 501 L 101 500.5 L 99.5 498 L 95.5 500 Q 91.3 499.3 89.5 501 L 87 498.5 L 85 494.5 L 85 491.5 L 82.5 488 L 80 487.5 L 81 483.5 L 79 482.5 L 78 479.5 L 79.5 478 Z " /><path fill="rgb(0,0,0)" stroke="rgb(0,0,0)" stroke-width="1" opacity="0.9803921568627451" d="M 67.5 483 L 72.5 487 L 75 487.5 L 76.5 490 L 79 491.5 L 81 494.5 L 78.5 495 L 67.5 490 Q 65.5 494 63.5 490 Q 60.3 489.2 59.5 491 L 52.5 491 L 52.5 490 L 61.5 485 L 67.5 483 Z " /><path fill="rgb(0,0,0)" stroke="rgb(0,0,0)" stroke-width="1" opacity="0.9803921568627451" d="M 81.5 496 Q 86.3 498.3 82 500.5 L 86 506.5 L 87 511.5 L 85.5 512 L 81 509.5 L 79.5 507 L 77 505.5 L 75.5 502 L 68.5 503 L 68 501.5 L 70.5 499 L 79.5 498 L 81.5 496 Z " /><path fill="rgb(0,0,0)" stroke="rgb(0,0,0)" stroke-width="1" opacity="0.9803921568627451" d="M 102.5 506 L 107.5 508 L 110 510.5 L 112 513.5 L 112 517.5 L 107 520.5 Q 107.9 525.1 111.5 527 L 113.5 528 L 114 526.5 L 113.5 525 L 114.5 526 L 116.5 524 L 117 524.5 L 117.5 527 Q 120 526 119 521.5 L 115 513.5 L 116.5 514 L 118.5 514 L 125.5 518 L 127.5 518 L 127.5 516 L 129.5 517 L 131 516.5 L 131.5 518 Q 135.5 518.5 136 515.5 L 131 511.5 L 132.5 511 L 138.5 514 L 143 514.5 L 142.5 516 L 145 515.5 L 144.5 514 L 146.5 515 L 148 514.5 L 147.5 516 L 149.5 516 L 157.5 511 L 161.5 511 L 164.5 513 L 166.5 513 L 170 516.5 L 173 521.5 L 171.5 524 L 166.5 528 L 164 528.5 Q 162.7 535.3 165 538.5 L 164 540.5 Q 165.3 543.3 166.5 541 L 173.5 541 L 174.5 540 L 177.5 541 L 184 547.5 Q 184.8 551.8 182 552.5 L 183.5 553 L 188.5 551 L 193 553.5 L 197 558.5 L 197 560.5 Q 199.4 561.6 199.5 565 Q 200.5 563 204.5 564 Q 206.3 567.3 210.5 568 L 217 574.5 L 212.5 575 L 205.5 571 L 203.5 571 L 201.5 572 Q 201 569.5 197.5 570 Q 195.2 573.2 188.5 572 L 188 571.5 L 190.5 569 L 197 565.5 L 191 560.5 L 188.5 557 L 184 556.5 L 183.5 555 L 175.5 556 L 175.5 555 L 179 553.5 Q 177.3 552.8 178 549.5 L 175.5 546 L 172.5 547 L 169.5 545 L 160.5 549 L 160 544.5 Q 162 543.5 160 542.5 L 156.5 533 Q 155.3 535.2 154 532.5 L 154 529.5 Q 151.3 528.8 152 524.5 L 153.5 524 L 154.5 525 L 160.5 525 L 164 522.5 L 162 521.5 L 164 518.5 L 157.5 514 L 145.5 521 L 140.5 518 L 137.5 518 L 130.5 523 L 127.5 523 L 125.5 522 L 124 526.5 L 129.5 528 L 135.5 533 L 138.5 532 L 140.5 536 L 144.5 536 L 149 538.5 L 148.5 540 Q 146.7 541.7 142.5 541 L 141.5 542 Q 140.8 540.3 137.5 541 L 137 542.5 L 143.5 545 Q 144.5 543 148.5 544 Q 149.5 546 150.5 544 Q 155.7 544.7 156.5 541 L 157 545.5 L 154.5 549 L 147 552.5 L 148.5 555 L 153 558.5 L 156.5 563 L 158 562.5 L 157.5 561 L 159 561.5 L 158 559.5 L 159.5 559 Q 166.3 561.7 170.5 567 Q 175.1 566.4 176.5 569 L 181.5 569 L 183.5 568 Q 185 569 182.5 570 L 168.5 573 L 164.5 567 L 160.5 566 L 159.5 567 L 153.5 568 L 151.5 567 L 144.5 570 L 142.5 569 L 140 570.5 L 147.5 575 L 151.5 579 L 155.5 580 Q 157 576.5 158.5 579 L 160.5 579 Q 161.6 581.4 165 581.5 Q 162.8 582.8 165.5 584 L 168.5 585 L 170.5 584 L 172 585.5 Q 169.8 586.8 172.5 588 L 177.5 588 L 182 591.5 L 177 593.5 Q 180.4 593.6 181.5 596 L 184.5 594 L 188.5 596 L 190.5 594 L 192.5 594 L 195.5 592 L 196 594.5 L 192.5 600 L 186 602.5 L 184.5 605 L 182.5 602 L 180.5 602 L 176 599.5 L 173.5 593 L 165.5 593 L 164 591.5 L 162.5 588 L 160 586.5 L 158.5 584 L 149.5 585 L 145.5 579 L 144 578.5 L 139.5 571 L 135.5 571 L 131.5 569 L 129.5 570 Q 128.8 567.3 124.5 568 L 122 565.5 L 124.5 564 Q 128.7 564.7 130.5 563 Q 131.5 565 135.5 564 L 136.5 562 L 138.5 561 L 140.5 564 Q 144.7 564.7 146.5 563 L 149.5 564 L 150 563.5 L 148 561.5 L 144.5 552 L 137.5 549 Q 137.3 554.3 134.5 557 Q 128.3 557.7 125.5 562 L 123.5 559 L 121.5 559 L 117 556.5 L 115 552.5 L 115 549.5 L 116.5 549 L 119.5 552 L 120.5 551 Q 122 554.5 123.5 552 Q 128.3 550.8 129.5 553 L 131.5 551 Q 133 553.5 134.5 550 L 137 548.5 Q 135.3 546.7 136 542.5 L 134.5 541 L 130.5 540 L 120.5 547 L 115.5 547 L 104.5 539 L 96.5 539 L 95.5 540 L 88.5 541 Q 87 540 89.5 539 L 102 533.5 L 101 531.5 L 102.5 532 L 105 532.5 L 104.5 534 L 113.5 538 L 118.5 542 L 120 541.5 L 120.5 543 L 131 537.5 L 127 533.5 L 123.5 527 L 122.5 529 L 117.5 531 L 108.5 527 L 106 524.5 L 104 521.5 L 104 519.5 L 105.5 519 L 107 519.5 L 106 514.5 L 103.5 512 Q 101.7 515.8 100 512.5 L 99.5 511 L 94.5 512 L 92 514.5 Q 97.2 519.3 99 527.5 L 97.5 527 L 91 522.5 L 87.5 518 L 84.5 519 L 82.5 516 L 81.5 517 Q 76.7 515.8 75.5 518 L 75 516.5 L 82.5 514 L 85.5 514 L 88 512.5 L 89.5 510 L 92.5 508 L 101.5 507 L 102.5 506 Z M 116 541 L 115 543 L 117 543 Q 118 542 116 541 Z " /><path fill="rgb(0,0,0)" stroke="rgb(0,0,0)" stroke-width="1" opacity="0.9803921568627451" d="M 199.5 526 L 205 526.5 L 206.5 529 L 208.5 529 L 215.5 536 L 218 536.5 L 217.5 538 L 223 533.5 L 225.5 529 L 227 529.5 L 229 534.5 L 225.5 541 L 215.5 546 L 206 540.5 L 202.5 532 L 199.5 534 L 198.5 532 L 191 533.5 L 191.5 535 Q 195.4 535.6 197 538.5 L 195.5 539 Q 194.3 536.7 189.5 538 L 187.5 536 L 179.5 536 L 178.5 535 L 174.5 537 L 167.5 538 Q 166 537 168.5 536 L 181 530.5 L 180 528.5 L 181.5 529 L 183.5 528 L 184 529.5 L 183.5 531 L 188.5 532 L 190.5 530 L 199.5 526 Z M 213 537 L 213 538 L 215 538 L 213 537 Z " /><path fill="rgb(0,0,0)" stroke="rgb(0,0,0)" stroke-width="1" opacity="0.9803921568627451" d="M 187.5 541 L 193.5 543 L 199.5 548 L 200.5 546 L 203 547.5 L 202 549.5 L 205.5 551 L 209.5 551 L 212 552.5 L 212.5 554 L 217 553.5 L 217.5 552 L 220 552.5 L 220.5 554 Q 225.3 555.2 226.5 553 Q 227.8 555.2 232.5 554 L 235 555.5 L 234.5 557 L 229.5 558 L 226.5 560 L 221.5 560 L 218.5 562 Q 216.5 559 210.5 560 L 200.5 555 L 197.5 556 L 192.5 550 L 191 549.5 L 191 547.5 L 187 541.5 L 187.5 541 Z " /><path fill="rgb(0,0,0)" stroke="rgb(0,0,0)" stroke-width="1" opacity="0.9803921568627451" d="M 237.5 541 Q 242.3 543.3 238 545.5 L 242 551.5 L 243 556.5 L 242 558.5 L 246.5 559 L 251.5 563 L 255.5 563 L 257.5 560 L 259.5 563 Q 264.3 563.8 266.5 562 L 274 564.5 L 270.5 567 L 264.5 569 L 262.5 568 Q 260.8 570.8 255.5 570 L 252.5 568 L 250.5 568 L 244.5 570 Q 237.1 567.4 233 561.5 L 233.5 561 L 235.5 563 L 241.5 566 L 241.5 564 L 243 563.5 Q 240.4 562.1 241 557.5 L 238.5 555 L 237 554.5 L 235.5 552 L 233 550.5 L 230.5 547 L 224.5 548 L 224 546.5 L 226.5 544 L 235.5 543 L 237.5 541 Z " /><path fill="rgb(0,0,0)" stroke="rgb(0,0,0)" stroke-width="1" opacity="0.9803921568627451" d="M 523.5 556 Q 528.9 555.1 531 557.5 L 531 559.5 L 534 562.5 L 538 570.5 L 536.5 571 L 529 565.5 L 525.5 561 L 522.5 561 L 519.5 559 Q 518.3 561.2 513.5 560 L 513.5 559 L 519.5 557 L 522.5 557 L 523.5 556 Z " /><path fill="rgb(0,0,0)" stroke="rgb(0,0,0)" stroke-width="1" opacity="0.9803921568627451" d="M 217.5 569 L 221.5 570 L 224 572.5 L 227.5 577 L 230.5 579 L 232.5 579 Q 235.2 577.8 233 576.5 L 231 571.5 L 232.5 571 L 239 573.5 L 242 577.5 Q 240 578.5 242 579.5 L 240.5 581 Q 238 583 232.5 582 L 225.5 577 Q 223.5 577.5 224 580.5 L 220.5 584 L 215.5 584 L 207 579.5 L 204 575.5 L 204 572.5 L 204.5 572 L 207 574.5 Q 207.6 578.4 210.5 580 L 213.5 581 L 213.5 579 L 216.5 578 L 217.5 580 Q 219.8 579.3 219 575.5 Q 215.9 573.5 217.5 569 Z " /><path fill="rgb(0,0,0)" stroke="rgb(0,0,0)" stroke-width="1" opacity="0.9803921568627451" d="M 275.5 570 L 282 571.5 L 285 575.5 L 285.5 580 L 293.5 576 L 298.5 576 L 300.5 579 L 302.5 579 L 309.5 586 L 311.5 586 Q 313.2 588.8 317.5 589 L 317.5 587 L 319.5 588 L 321 587.5 L 320.5 589 L 322.5 589 L 326.5 586 L 332.5 584 L 343 589.5 Q 341.8 595.7 344 598.5 L 343 600.5 L 344 602.5 L 342.5 607 L 339 603.5 Q 339.5 600 337 599.5 L 337 595.5 L 335.5 594 L 333 593.5 Q 334 588 330.5 587 L 321.5 593 L 315.5 593 L 307.5 587 Q 300.7 585.8 296.5 582 L 293.5 584 L 292.5 582 L 282.5 584 Q 280 583 281.5 582 L 284 580.5 L 281.5 580 Q 280.8 581.8 277.5 581 L 271.5 578 L 267 573.5 L 267.5 572 Q 270.3 576.2 275.5 578 Q 276.5 576 277.5 578 L 279 577.5 L 275 572.5 L 275.5 570 Z " /><path fill="rgb(0,0,0)" stroke="rgb(0,0,0)" stroke-width="1" opacity="0.9803921568627451" d="M 504.5 570 L 509.5 571 L 514 575.5 L 513.5 580 L 510.5 581 L 504.5 581 L 499.5 578 L 499 582.5 L 496.5 586 L 494.5 586 L 490 588.5 L 489.5 590 L 487 589.5 L 486.5 588 L 484.5 588 L 479 584.5 Q 477.3 582.7 478 578.5 L 479.5 579 L 483.5 580 L 485.5 582 L 488.5 580 Q 489.3 581.8 492.5 581 Q 493.3 579.3 496.5 580 L 499 577.5 L 496 573.5 L 496.5 573 L 498.5 575 Q 501.9 578.1 507.5 579 L 507 577.5 L 504 572.5 L 504.5 570 Z " /><path fill="rgb(0,0,0)" stroke="rgb(0,0,0)" stroke-width="1" opacity="0.9803921568627451" d="M 184.5 573 L 186.5 574 L 188 573.5 L 187 575.5 L 195.5 579 L 200 582.5 L 195.5 583 L 191.5 581 Q 184.7 582.3 181.5 580 L 178.5 582 L 171.5 583 L 171 582.5 L 173.5 580 L 184 575.5 L 184.5 573 Z " /><path fill="rgb(0,0,0)" stroke="rgb(0,0,0)" stroke-width="1" opacity="0.9803921568627451" d="M 258.5 575 L 263 576.5 L 270 589.5 L 268.5 590 L 261 583.5 L 259.5 581 L 257.5 580 L 254.5 581 L 253.5 579 L 245.5 580 L 245.5 579 L 253.5 576 L 257.5 576 L 258.5 575 Z " /><path fill="rgb(0,0,0)" stroke="rgb(0,0,0)" stroke-width="1" opacity="0.9803921568627451" d="M 233.5 583 L 237.5 584 L 241 586.5 L 242.5 589 L 244.5 590 L 247.5 589 L 248.5 592 Q 250.3 593.7 254.5 593 L 259.5 597 L 261.5 597 L 266.5 600 L 267 598.5 L 266.5 597 L 268.5 598 L 270 597.5 L 270.5 600 L 276 596.5 L 274 595.5 L 272 588.5 L 273.5 588 L 275.5 590 L 281.5 591 L 283.5 590 Q 284.3 591.8 287.5 591 L 289.5 589 Q 292.8 589.8 293.5 588 L 295.5 592 L 297 592.5 L 298.5 595 L 301.5 596 L 303.5 595 L 304.5 598 L 309.5 599 L 311.5 598 L 319 604.5 L 321.5 608 L 322.5 606 L 325 607.5 L 325.5 609 L 330.5 608 Q 332 609 329.5 610 L 323.5 611 L 319.5 613 L 316 610.5 L 311.5 603 L 310.5 604 L 304.5 604 Q 303.5 602 302.5 604 L 299.5 604 L 296 601.5 Q 296.5 598.5 294.5 598 L 293 597.5 L 291.5 595 L 284 598.5 L 283.5 600 L 281 599.5 L 280.5 598 L 278.5 598 L 270.5 604 L 265.5 604 L 255.5 597 L 254.5 598 L 245.5 598 L 243 600.5 L 241.5 603 L 232.5 608 L 230.5 605 Q 225.8 604.2 223.5 601 L 218.5 601 L 212.5 598 L 211.5 600 L 204 594.5 L 200.5 590 L 196 589.5 L 195.5 588 Q 193.3 589.8 188.5 589 L 188.5 588 L 194.5 586 L 197.5 586 L 198.5 585 L 203.5 585 L 207.5 590 L 209 589.5 L 213.5 597 L 216.5 598 L 216.5 596 L 219.5 595 L 220.5 597 L 222 596.5 L 221 586.5 L 222.5 586 L 227 588.5 L 229 593.5 L 227 596.5 L 230.5 599 Q 231.5 597 235.5 598 L 237.5 599 L 241 597.5 L 240 594.5 L 235 588.5 L 233 584.5 L 233.5 583 Z " /><path fill="rgb(0,0,0)" stroke="rgb(0,0,0)" stroke-width="1" opacity="0.9803921568627451" d="M 450.5 584 L 454.5 585 L 456 586.5 Q 455.5 590.5 458.5 591 L 461.5 590 L 466.5 586 Q 471.1 586.6 472.5 584 L 476.5 584 L 486 591.5 L 488 594.5 L 484.5 595 L 479.5 593 L 477.5 591 L 474.5 591 L 472.5 592 Q 472 589.5 468.5 590 L 464.5 592 L 459 592.5 L 461.5 596 L 464.5 596 Q 466.7 599.3 471 600.5 L 471.5 602 L 475 604.5 L 476 606.5 L 472.5 607 L 463.5 602 L 460.5 604 Q 460 601.5 456.5 602 Q 455.8 603.7 452.5 603 L 451 604.5 Q 455 605.5 454 611.5 Q 453.5 614.5 449.5 614 L 448 612.5 Q 449 608 446.5 607 L 443.5 608 Q 442.5 605 437.5 606 L 435 607.5 L 438 608.5 L 426.5 617 L 421.5 617 L 411.5 624 L 407.5 624 L 395 615.5 L 398 614.5 L 396 613.5 L 393.5 609 L 388.5 610 L 387 611.5 L 387.5 613 L 392 616.5 L 391.5 618 L 388.5 618 L 379.5 613 L 378 615.5 L 378.5 617 L 371.5 620 L 366.5 620 L 363.5 622 L 361.5 622 L 358.5 620 L 349.5 619 L 348.5 620 L 341.5 621 L 339.5 620 L 335 621.5 L 335.5 623 L 337.5 623 L 341 625.5 L 345 630.5 L 345 632.5 L 338.5 639 L 330.5 640 L 326 637.5 L 328.5 636 L 334.5 635 L 336 633.5 L 335.5 632 L 334 631.5 L 336 628.5 L 328.5 624 L 322.5 624 Q 322 621.5 318.5 622 Q 317.5 624 316.5 622 L 312.5 621 L 308.5 618 L 307.5 619 L 301.5 619 L 293 612.5 L 292 610.5 L 292.5 610 L 296.5 614 L 301.5 616 L 303 613.5 L 300 608.5 L 301.5 608 Q 302.5 610 306.5 609 L 311 613.5 L 311.5 617 L 318.5 616 Q 319.5 618 323.5 617 L 325.5 614 L 327.5 617 L 335.5 616 L 337.5 617 L 338 616.5 L 336 614.5 L 334 607.5 L 335.5 607 L 342 612.5 L 344.5 616 L 346 615.5 L 346.5 614 L 349.5 615 L 350.5 614 L 361 613.5 L 361.5 612 L 364.5 613 L 370.5 609 L 376 607.5 L 375.5 606 L 372.5 607 L 368 604.5 L 378 600.5 L 375 598.5 L 377 595.5 L 369 589.5 L 376.5 589 Q 381.3 590.7 384 594.5 L 386 597.5 L 386 600.5 L 379.5 606 L 377 606.5 L 380.5 607 Q 382.3 610.3 386.5 611 L 388.5 607 L 399 604.5 L 394 600.5 L 392 596.5 L 392 592.5 L 393.5 590 L 396 591.5 Q 397.1 596.9 401.5 599 L 403 598.5 L 403.5 597 L 406 597.5 L 406.5 599 L 411 595.5 L 411 593.5 L 414.5 590 L 418 593.5 L 421.5 600 L 424.5 601 L 425.5 599 L 427.5 598 L 428.5 600 L 430 599.5 L 431 596.5 Q 428.2 594.8 429 589.5 L 430.5 589 L 435 591.5 L 437 596.5 L 435 601.5 L 439.5 602 L 440.5 601 L 447.5 601 L 449.5 602 L 454.5 598 L 458 597.5 L 451.5 590 L 447 589.5 L 446.5 588 L 438.5 589 L 438.5 588 L 450.5 584 Z M 417 597 L 415 601 L 410 605 L 404 607 Q 402 605 401 608 L 401 610 L 404 613 L 405 619 L 408 620 L 408 618 L 410 618 L 412 617 L 412 619 L 412 620 L 420 616 L 411 609 L 411 608 L 417 609 L 423 613 L 423 611 L 425 611 L 427 610 L 426 612 L 427 613 L 433 610 L 430 609 Q 429 605 431 605 Q 421 604 417 597 Z M 373 613 L 373 614 L 375 614 L 373 613 Z " /><path fill="rgb(0,0,0)" stroke="rgb(0,0,0)" stroke-width="1" opacity="0.9803921568627451" d="M 358.5 590 L 364 592.5 L 366 598.5 L 361.5 605 L 355.5 605 L 352.5 604 L 346 598.5 L 345 593.5 Q 346 592 347 594.5 L 350.5 601 L 353.5 602 L 354.5 600 L 355.5 601 L 357.5 599 L 358 599.5 L 357.5 601 L 359 600.5 L 360 597.5 Q 356.8 595.3 358.5 590 Z " /><path fill="rgb(0,0,0)" stroke="rgb(0,0,0)" stroke-width="1" opacity="0.9803921568627451" d="M 198.5 602 L 199.5 604 L 206.5 606 L 209.5 605 L 212.5 606 L 218.5 603 L 219 606.5 L 216.5 611 L 214.5 611 L 210 613.5 L 209.5 615 L 207 614.5 L 206.5 613 L 200.5 611 L 199 609.5 L 198 606.5 L 198.5 602 Z " /><path fill="rgb(0,0,0)" stroke="rgb(0,0,0)" stroke-width="1" opacity="0.9803921568627451" d="M 253.5 603 Q 254.5 605 255.5 603 L 257 603.5 L 256 605.5 L 269.5 612 L 274.5 609 L 277.5 609 L 279.5 607 L 283.5 607 Q 285.3 610.3 289.5 611 L 296 617.5 L 291.5 618 L 284.5 614 L 281.5 614 L 279.5 615 L 278.5 613 L 276.5 613 L 273.5 615 L 267.5 615 L 266.5 613 L 257.5 610 Q 256.7 611.8 253.5 611 Q 252.8 609.3 249.5 610 L 246.5 612 Q 240.5 610.5 239 613.5 L 236.5 618 L 230 620.5 L 229.5 622 L 227 621.5 L 226.5 620 L 220 617.5 L 218 613.5 L 218 610.5 L 219.5 610 L 221.5 612 L 227.5 613 L 229.5 612 Q 230.3 613.8 233.5 613 L 239.5 610 L 241.5 611 L 247.5 607 Q 251.6 607.6 253 605.5 L 253.5 603 Z " /><path fill="rgb(0,0,0)" stroke="rgb(0,0,0)" stroke-width="1" opacity="0.9803921568627451" d="M 243.5 613 L 249.5 613 L 256 616.5 L 260.5 622 L 265.5 619 L 272.5 619 Q 273.3 617.3 276.5 618 Q 281.3 619.7 284 623.5 Q 284.6 627.4 287.5 629 L 289.5 630 L 291.5 627 L 293.5 630 L 297 627.5 Q 297.9 622.9 301.5 621 L 303 621.5 L 304.5 627 L 310 626.5 L 310.5 625 L 313 625.5 L 313.5 627 L 323.5 627 L 327 629.5 L 320.5 633 L 315.5 633 Q 314.5 636 309.5 635 L 307.5 633 Q 302.7 634.2 301.5 632 L 291.5 638 L 280.5 631 L 279 631.5 L 278 626.5 L 275.5 624 L 272.5 625 L 271.5 623 L 265.5 624 L 263.5 626 L 258.5 626 L 255.5 629 L 250.5 631 L 245.5 631 L 242 629.5 L 242.5 628 L 248.5 627 L 252 624.5 L 249 622.5 L 252 620.5 L 243 614.5 L 243.5 613 Z " /><path fill="rgb(0,0,0)" stroke="rgb(0,0,0)" stroke-width="1" opacity="0.9803921568627451" d="M 387.5 619 L 390 620.5 L 389 624.5 L 394 633.5 L 392.5 636 L 384 628.5 L 381.5 625 L 375.5 627 L 375 624.5 L 378.5 622 L 387 620.5 L 387.5 619 Z " /><path fill="rgb(0,0,0)" stroke="rgb(0,0,0)" stroke-width="1" opacity="0.9803921568627451" d="M 356.5 625 Q 357.5 627 361.5 626 L 367 631.5 L 364.5 636 L 359.5 637 Q 352.1 634.4 348 628.5 L 348.5 628 L 350.5 630 L 355.5 633 L 358.5 633 L 359 631.5 L 356 627.5 L 356.5 625 Z " /></svg>