<svg viewBox="0 0 640 635" version="1.1" xmlns="http://www.w3.org/2000/svg" desc="Created with imagetracer.js version 1.2.6" ><path fill="rgb(0,0,0)" stroke="rgb(0,0,0)" stroke-width="1" opacity="0.9333333333333333" d="M 395.5 0 L 403.5 0 Q 404.3 1.8 407.5 1 L 417.5 7 L 423 12.5 Q 431 21.5 436 33.5 L 438 39.5 L 438 42.5 L 439 43.5 L 439 47.5 L 440 48.5 L 440 55.5 L 441 56.5 L 441 66.5 Q 439 67.5 440 71.5 L 449.5 80 L 452.5 80 L 453.5 79 L 462.5 78 L 463.5 77 L 480.5 76 L 481.5 77 L 489.5 77 L 490.5 78 L 500.5 80 L 510.5 85 L 520 92.5 L 527 102.5 L 528 108.5 L 529 109.5 L 529 117.5 L 525 127.5 L 520.5 133 L 513.5 138 L 503.5 142 L 499 145.5 L 500 151.5 L 503 159.5 L 503 162.5 L 504 163.5 L 504 166.5 L 505 167.5 L 506 179.5 L 507 180.5 L 507 191.5 L 508 192.5 L 508 212.5 L 507 213.5 L 507 224.5 L 506 225.5 L 506 232.5 L 505 233.5 L 504 244.5 L 503 245.5 L 503 248.5 L 500 257.5 L 500 260.5 L 494 278.5 L 492 281.5 L 492 283.5 L 482 303.5 L 476 312.5 Q 467.5 324.5 456.5 334 L 447.5 341 L 431.5 351 L 416.5 358 L 411.5 359 L 408 361.5 Q 416.6 366.9 423 374.5 L 437.5 393 L 447.5 399 L 456.5 400 L 457.5 401 L 462.5 401 L 463.5 400 L 469.5 400 L 481.5 395 L 493 385.5 L 498 378.5 L 504 363.5 L 505 355.5 L 506 354.5 L 507 342.5 L 508 341.5 L 508 336.5 L 509 335.5 L 512 320.5 L 519 305.5 L 528.5 294 L 535.5 289 L 549.5 283 Q 553.5 284 554.5 282 L 566.5 282 L 578.5 286 L 588 293.5 L 591 297.5 L 596 308.5 Q 595 312.5 597 313.5 L 597 322.5 L 593 333.5 L 589.5 337 Q 585.8 337.8 585 335.5 Q 583.3 333.7 584 329.5 L 583 328.5 L 583 315.5 L 580 309.5 L 577.5 307 L 574.5 305 L 566.5 303 L 557.5 306 L 548 312.5 L 548 318.5 Q 546.3 319.3 547 322.5 L 543 331.5 L 548 340.5 L 548 350.5 L 546 354.5 L 549 358.5 L 551 364.5 L 551 372.5 Q 549.3 373.3 550 376.5 L 546 382.5 L 546 388.5 L 547 391.5 Q 545 392.5 546 396.5 L 543 402.5 L 537.5 408 L 534 409.5 L 534 414.5 L 532 419.5 L 524.5 428 L 518.5 432 L 514 433.5 Q 512.8 439.3 508.5 442 L 502 445.5 L 502.5 447 L 509.5 448 L 510.5 449 L 516.5 449 L 517.5 450 L 541.5 450 L 542.5 449 L 551.5 448 L 568.5 441 L 585 427.5 L 592 418.5 L 599 404.5 L 600 397.5 L 601 396.5 L 601 379.5 L 598 371.5 L 592.5 365 L 587.5 362 Q 584.3 362.7 583.5 361 L 575.5 361 L 567.5 364 L 564.5 364 Q 562 363 563 358.5 L 567.5 353 L 571.5 350 L 583.5 345 L 596.5 345 L 610.5 351 Q 619.7 356.3 626 364.5 Q 631.5 371 632 382.5 Q 636.8 385.7 639 391.5 Q 638.3 394.8 640 395.5 L 640 404.5 L 635 413.5 L 635 416.5 L 637 421.5 L 637 426.5 L 634 434.5 L 628.5 441 L 622 444.5 L 622 450.5 L 618 458.5 L 613.5 463 L 607.5 466 L 601.5 467 L 600 468.5 L 599 472.5 L 593.5 479 L 586.5 483 L 574 483.5 L 569 490.5 L 569 495.5 L 567 500.5 L 556.5 512 L 553.5 514 L 546 515.5 L 542.5 521 L 531.5 527 L 524.5 527 L 521.5 530 L 515.5 533 L 503.5 535 Q 502.3 532.8 497.5 534 L 493.5 536 L 477.5 536 L 476 535.5 L 476 540.5 L 480 547.5 Q 479.3 550.8 481 551.5 L 481 562.5 L 479 565.5 L 479 567.5 L 481 572.5 L 481 580.5 L 477 590.5 L 469 598.5 L 469 601.5 L 467 606.5 L 460.5 615 L 450.5 621 L 445.5 622 Q 441.6 627.1 435.5 630 L 432.5 631 L 427.5 631 L 426.5 632 L 419.5 632 L 412.5 635 L 406.5 635 Q 405.8 633.3 402.5 634 L 397.5 631 L 392.5 631 L 389.5 630 L 380 621.5 L 376 612.5 L 375 604.5 L 376 603.5 L 376 598.5 L 378 595.5 L 378 593.5 L 385.5 585 L 392.5 582 L 402 581.5 L 400 577.5 L 386.5 564 L 358.5 545 L 356 552.5 L 353 556.5 L 353 566.5 L 352 567.5 L 351 573.5 Q 349.2 578.7 345 581.5 L 343 586.5 L 343 589.5 L 339 597.5 L 330.5 606 L 327 607.5 Q 323.4 616.9 315.5 622 L 310.5 625 L 303.5 627 L 297.5 632 L 291.5 634 L 279.5 635 L 278.5 634 L 271.5 634 Q 270.7 632.3 267.5 633 L 256.5 628 L 244 616.5 Q 240 612.5 240 604.5 Q 240.8 602.3 244.5 603 L 253.5 610 L 259.5 611 L 260.5 612 L 270.5 612 L 271.5 611 L 278.5 610 L 286.5 606 L 299 594.5 L 303 588.5 L 309 574.5 Q 308.2 571.3 310 570.5 L 310 555.5 L 309 554.5 L 309 550.5 L 306 541.5 L 301 530.5 L 299 528.5 L 296.5 521 Q 287.4 518.5 283 511.5 L 280 505.5 L 279 500.5 L 277.5 499 L 275.5 499 L 268.5 495 L 265.5 495 L 248.5 507 L 235.5 514 L 233.5 514 L 228.5 517 L 218.5 520 L 215.5 522 L 210.5 523 L 207.5 525 L 180.5 534 L 170.5 540 L 167 543.5 Q 163.3 547.3 163 554.5 L 165 559.5 L 171.5 566 L 181.5 571 L 187.5 572 L 188.5 573 L 201.5 573 Q 207.6 571.1 211 566.5 L 213.5 563 Q 217.3 562.3 218 564.5 L 219 569.5 L 218 570.5 L 218 574.5 L 215 582.5 L 202.5 596 L 195.5 600 L 186.5 603 L 171.5 603 L 168.5 602 L 167.5 603 L 157.5 603 L 151.5 601 L 146.5 597 L 140.5 597 L 139.5 596 L 133.5 595 Q 126.7 592.3 123 586.5 L 121.5 583 Q 110.8 580.7 106 572.5 L 103 566.5 L 103 558.5 Q 98.3 554.7 96 548.5 Q 96.8 545.3 95 544.5 L 95 537.5 Q 96.8 536.8 96 533.5 L 99 528.5 L 97 523.5 L 97 518.5 L 98 517.5 L 98 513.5 L 100 508.5 L 107 500.5 L 108 494.5 L 115 484.5 L 111.5 483 L 108.5 483 L 101.5 486 L 95.5 486 L 94.5 485 L 89.5 485 L 86.5 484 Q 81.3 482.2 78.5 478 L 73.5 480 L 66.5 480 L 56.5 476 L 51 470.5 Q 50.4 466.6 47.5 465 L 40.5 465 L 37.5 464 L 28 455.5 L 24.5 446 L 18.5 444 L 10 436.5 L 6 426.5 L 6 416.5 L 3 413.5 L 0 405.5 L 0 395.5 L 5 385.5 L 4 384.5 L 4 376.5 L 9 365.5 L 19 354.5 L 22 349.5 L 32.5 339 L 46.5 333 L 60.5 333 L 68.5 336 L 79 344.5 L 85 355.5 Q 84.3 358.8 86 359.5 L 86 369.5 L 82 379.5 L 75.5 387 L 66.5 392 L 60.5 392 L 57 389.5 L 57.5 385 Q 64.9 382.9 69 377.5 L 71 374.5 L 72 366.5 L 69 358.5 L 63.5 353 L 58.5 351 L 52.5 351 L 45.5 354 L 39 360.5 L 35 369.5 Q 36 373.5 34 374.5 L 34 381.5 L 35 382.5 L 35 388.5 Q 36.8 389.3 36 392.5 L 43 408.5 Q 50.2 419.8 60.5 428 L 76.5 437 L 82.5 439 L 85.5 439 L 86.5 440 L 89.5 440 L 90.5 441 Q 95.3 439.8 96.5 442 L 121.5 442 L 122.5 441 L 129.5 441 L 130.5 440 L 140.5 439 L 145.5 437 L 153.5 436 L 156 434.5 L 150.5 428 L 139.5 424 L 132 416.5 L 129.5 412 L 123.5 410 L 117 404.5 L 112 396.5 L 111 389.5 L 108.5 387 L 102 381.5 L 98 372.5 L 98 367.5 L 100 361.5 L 96 356.5 L 95 350.5 L 94 349.5 L 94 345.5 Q 95.8 344.8 95 341.5 L 99 335.5 L 96 329.5 L 96 319.5 L 98 314.5 L 103 309.5 L 103 298.5 L 104 295.5 L 108 290.5 L 108 288.5 L 107 287.5 L 107 284.5 L 105 278.5 L 100.5 273 L 94.5 270 L 88.5 270 L 85.5 271 L 81 275.5 L 79 279.5 L 79 286.5 L 83.5 295 Q 88.3 295.3 90 298.5 Q 90.8 302.3 88.5 303 L 83.5 304 L 77.5 302 L 72 297.5 L 67 288.5 Q 67.8 285.3 66 284.5 L 66 277.5 Q 68 276.5 67 272.5 L 71 264.5 L 76.5 258 L 87.5 251 L 100.5 249 L 101.5 250 L 107.5 250 Q 108.3 251.7 111.5 251 L 117.5 254 L 119.5 254 L 126.5 258 L 134 264.5 L 137 268.5 L 141 278.5 Q 139.8 283.3 142 284.5 L 142 302.5 L 141 303.5 L 141 314.5 L 140 315.5 L 140 338.5 L 141 339.5 L 142 347.5 L 147 358.5 Q 152.7 368.3 161.5 375 L 172.5 381 L 178.5 383 L 181.5 383 L 182.5 384 Q 187.3 382.7 188.5 385 L 206.5 385 L 207.5 384 L 215.5 383 L 224.5 379 L 236 368.5 L 238 364.5 L 238 359.5 L 232.5 356 L 230.5 356 L 208.5 345 L 197.5 338 L 184.5 328 L 168 311.5 L 158 297.5 L 150 281.5 L 150 279.5 L 148 276.5 L 142 258.5 L 142 255.5 L 139 246.5 L 139 242.5 L 138 241.5 L 138 237.5 L 137 236.5 L 136 224.5 L 135 223.5 L 135 215.5 L 134 214.5 L 134 178.5 L 135 177.5 L 135 170.5 L 136 169.5 L 136 164.5 L 137 163.5 L 137 159.5 L 138 158.5 L 140 147.5 L 145 132.5 L 155 111.5 L 166 94.5 L 174 84.5 L 190.5 68 L 204.5 57 L 218.5 48 L 238.5 38 L 240.5 38 L 243.5 36 L 245.5 36 L 248.5 34 L 257.5 31 L 260.5 31 L 264.5 29 L 272.5 28 L 277.5 26 L 282.5 26 L 283.5 25 Q 288.3 26.2 289.5 24 L 297.5 24 L 298.5 23 L 334.5 23 L 335.5 24 L 343.5 24 L 344.5 25 L 356.5 26 L 357.5 27 L 361.5 27 L 362.5 28 L 366.5 28 L 367.5 29 L 374.5 30 L 375 25.5 L 377 21.5 L 377 18.5 L 381 10.5 L 387.5 4 L 395.5 0 Z M 397 6 L 391 9 Q 386 13 383 20 L 381 26 L 381 30 L 380 31 L 379 44 L 375 53 L 369 58 L 358 64 L 352 70 L 350 75 L 350 81 L 352 87 L 356 93 L 366 101 L 376 106 L 382 107 L 383 108 L 387 108 L 388 109 L 399 109 L 402 108 L 401 105 L 401 98 L 400 97 L 402 87 L 409 77 L 409 75 Q 406 71 402 69 L 399 68 L 394 68 L 393 67 L 383 68 L 374 72 L 372 72 L 381 67 L 390 66 L 391 65 L 396 65 L 397 66 L 404 67 L 412 74 L 414 74 L 419 71 L 413 53 L 413 51 L 418 61 L 420 67 L 420 70 L 434 70 L 435 67 L 435 54 L 434 53 L 433 44 L 430 35 L 422 21 L 409 8 L 404 6 L 397 6 Z M 299 29 L 298 30 L 290 30 L 289 31 L 284 31 L 283 32 L 279 32 L 278 33 L 274 33 L 269 35 L 266 35 L 259 38 L 253 39 L 240 45 L 238 45 L 219 55 L 204 65 L 193 74 L 177 90 L 167 103 L 158 118 L 156 124 L 152 131 L 145 152 L 144 160 L 143 161 L 143 165 L 142 166 L 141 179 L 140 180 L 140 197 L 139 198 L 140 199 L 140 217 L 141 218 L 142 231 L 143 232 L 143 236 L 144 237 L 145 245 L 146 246 L 146 250 L 148 254 L 148 257 L 154 275 L 164 296 L 178 314 L 200 332 L 201 332 L 187 310 L 176 287 L 176 285 L 172 277 L 168 265 L 168 262 L 166 258 L 165 250 L 164 249 L 164 244 L 163 243 L 163 237 L 162 236 L 162 208 L 163 207 L 164 197 L 165 196 L 165 193 L 166 192 L 166 189 L 168 183 L 178 162 L 186 150 L 196 138 Q 208 125 222 115 L 239 104 L 261 93 L 263 93 L 271 89 L 286 84 L 289 84 L 301 80 L 315 78 L 316 77 L 322 77 L 323 76 L 338 75 L 339 74 L 347 74 L 348 73 L 350 67 L 355 62 L 369 53 L 373 47 L 374 37 L 367 34 L 364 34 L 363 33 L 353 32 L 352 31 L 347 31 L 346 30 L 339 30 L 338 29 L 299 29 Z M 423 73 L 414 77 Q 407 82 404 91 L 404 103 L 409 113 L 416 118 L 425 121 L 436 120 L 442 117 L 449 109 L 452 100 L 451 90 L 448 84 Q 444 77 437 74 L 434 73 L 423 73 Z M 341 77 L 340 78 L 324 79 L 323 80 L 317 80 L 311 82 L 307 82 L 306 83 L 302 83 L 290 87 L 287 87 L 275 91 L 272 93 L 267 94 L 237 109 L 225 117 L 210 129 L 191 149 L 180 165 L 170 187 L 170 190 L 168 194 L 168 198 L 167 199 L 167 203 L 166 204 L 166 212 L 165 213 L 165 232 L 166 233 L 167 248 L 168 249 L 168 253 L 169 254 L 170 261 L 172 265 L 172 268 L 174 274 L 180 287 L 180 289 L 190 309 L 206 335 L 212 340 L 242 354 L 257 359 L 268 361 L 269 362 L 283 364 L 284 365 L 290 365 L 291 366 L 301 366 L 302 367 L 338 367 L 339 366 L 352 366 L 353 365 L 369 364 L 370 363 L 381 362 L 382 361 L 386 361 L 395 358 L 398 358 L 399 357 L 402 357 L 421 350 L 428 343 L 440 328 L 450 312 L 456 300 L 456 298 L 458 295 L 463 280 L 464 273 L 465 272 L 465 268 L 466 267 L 466 263 L 467 262 L 467 255 L 468 254 L 468 218 L 467 217 L 467 209 L 466 208 L 465 197 L 464 196 L 464 191 L 462 186 L 462 182 L 461 181 L 460 175 L 459 173 L 454 172 L 445 167 Q 437 161 432 153 L 424 136 L 424 133 L 422 129 L 422 125 L 412 119 L 404 111 Q 399 110 399 112 L 387 112 Q 385 110 381 111 L 372 107 L 370 107 L 361 101 L 350 90 L 347 82 L 347 78 L 341 77 Z M 473 82 L 472 83 L 467 83 L 466 84 L 461 84 L 460 85 L 453 86 L 454 93 L 455 94 L 455 98 L 457 99 L 461 99 L 466 101 L 469 101 L 469 102 L 458 101 L 456 100 L 453 107 L 455 108 L 457 108 L 465 112 L 474 123 L 477 131 L 477 137 L 478 138 L 477 141 L 476 133 L 474 127 L 468 118 L 458 111 L 452 110 L 448 116 L 452 121 L 454 127 L 454 136 L 452 126 L 447 117 L 437 123 L 434 124 L 425 125 L 430 142 L 435 152 L 440 159 L 449 166 L 462 171 L 471 171 Q 471 169 475 170 L 482 166 L 485 162 L 488 156 L 488 154 L 494 143 L 500 138 L 518 128 L 521 124 L 523 119 L 523 110 L 519 101 Q 512 91 500 86 L 494 84 L 491 84 L 490 83 L 484 83 L 483 82 L 473 82 Z M 494 151 L 487 165 Q 483 170 476 173 L 463 175 L 465 181 L 466 189 L 467 190 L 467 194 L 468 195 L 469 206 L 470 207 L 470 215 L 471 216 L 471 252 L 470 253 L 470 261 Q 468 262 469 267 L 468 268 L 468 272 L 465 281 L 465 284 L 461 296 L 459 299 L 459 301 L 450 319 L 435 340 L 430 345 L 431 345 Q 443 339 453 330 L 465 318 L 471 310 L 478 299 L 487 280 L 487 278 L 489 275 L 493 263 L 493 260 L 495 256 L 496 248 L 498 243 L 499 232 L 500 231 L 500 224 L 501 223 L 501 212 L 502 211 L 502 194 L 501 193 L 501 182 L 500 181 L 500 175 L 499 174 L 499 169 L 498 168 L 497 159 L 495 153 L 494 151 Z M 93 256 L 84 260 L 75 270 L 72 278 L 73 285 L 74 276 L 77 271 L 84 264 L 93 260 L 102 260 L 110 264 L 115 270 L 118 275 L 120 281 L 120 284 L 121 285 L 121 306 L 120 307 L 120 311 L 118 316 L 118 319 L 117 320 L 116 328 L 115 329 L 115 334 L 114 335 L 114 359 Q 116 359 115 364 L 118 373 L 123 383 L 130 393 Q 140 405 155 414 L 163 418 L 175 422 L 178 422 L 182 424 L 187 424 L 206 410 Q 215 401 223 391 L 229 385 L 229 384 L 216 389 L 205 390 L 204 391 L 192 391 L 191 390 L 184 390 L 179 388 L 176 388 L 162 382 L 154 376 L 143 364 L 138 354 L 135 345 L 135 340 L 134 339 L 134 315 L 135 314 L 135 299 L 136 298 L 136 288 L 135 287 L 135 280 L 131 271 L 124 263 L 114 258 L 108 257 L 107 256 L 93 256 Z M 94 263 Q 92 264 95 265 L 101 266 L 110 274 L 112 275 L 110 280 L 111 286 L 116 291 L 118 290 L 116 279 L 111 271 L 103 264 L 94 263 Z M 558 288 L 557 289 L 552 289 L 546 291 L 535 297 L 527 305 L 523 311 L 518 322 L 516 332 L 515 333 L 515 337 L 514 338 L 514 343 L 513 344 L 513 349 L 512 350 L 512 355 L 511 356 L 510 365 L 503 382 L 498 389 Q 492 395 485 400 L 479 403 L 473 405 L 470 405 L 469 406 L 452 406 L 444 403 L 441 404 L 448 414 Q 458 426 472 435 L 475 435 L 487 431 Q 498 426 507 419 Q 520 409 527 393 L 531 381 Q 530 376 532 376 L 532 366 L 533 365 L 533 356 L 532 355 L 532 329 L 533 328 L 533 324 L 534 323 L 534 320 L 536 314 L 540 307 L 549 298 L 560 293 L 571 293 L 577 296 Q 587 303 589 318 L 590 318 L 589 309 L 584 299 Q 580 293 573 290 L 566 289 L 565 288 L 558 288 Z M 117 292 L 114 293 L 109 298 L 108 301 L 108 307 L 109 310 Q 110 313 115 312 L 117 308 L 118 293 L 117 292 Z M 562 296 L 551 301 L 545 307 L 546 307 L 558 300 L 564 298 L 571 298 L 572 299 L 574 299 L 569 296 L 562 296 Z M 542 311 L 538 318 L 537 325 L 536 326 L 537 331 L 540 327 L 543 320 L 543 312 L 542 311 Z M 108 313 L 106 314 L 103 317 L 101 322 L 101 328 L 103 333 L 108 336 L 111 336 L 111 331 L 112 330 L 112 325 L 113 324 L 113 320 L 115 315 Q 113 312 108 313 Z M 537 333 L 535 335 L 535 347 L 536 348 L 536 372 L 535 373 L 535 379 L 534 380 L 532 390 L 526 402 Q 524 403 527 404 L 534 404 L 537 402 L 541 395 L 541 386 L 537 383 L 541 381 L 544 378 L 546 373 L 546 365 L 545 362 L 541 357 L 538 357 L 537 356 L 541 354 L 543 350 L 543 341 L 542 338 L 537 333 Z M 105 337 L 100 343 L 100 353 L 102 357 L 107 360 L 111 360 Q 112 355 110 355 L 110 339 L 106 338 L 105 337 Z M 48 339 L 38 343 L 34 346 L 27 353 L 23 359 L 18 373 L 18 395 L 19 396 L 20 405 L 29 425 L 36 435 Q 49 450 69 459 L 71 459 L 77 462 L 88 464 L 89 465 Q 93 464 95 466 L 109 466 L 110 467 L 112 466 L 127 466 L 128 465 L 136 465 L 137 464 L 143 464 L 144 463 L 158 462 L 159 461 L 166 461 L 167 460 L 174 460 L 175 459 L 189 458 L 190 457 L 195 457 L 200 455 L 203 455 L 212 452 L 226 445 L 242 433 L 251 424 L 253 420 L 254 408 L 255 407 L 255 401 L 256 400 L 256 396 L 258 390 L 265 378 L 274 367 L 267 365 L 266 364 L 263 364 L 262 363 L 259 363 L 258 362 L 254 362 L 250 365 L 214 407 L 194 424 L 172 436 L 154 442 L 143 444 L 142 445 L 132 446 L 131 447 L 123 447 L 122 448 L 99 448 L 98 447 L 92 447 L 91 446 L 83 445 L 66 438 L 52 428 Q 44 421 38 412 L 31 397 L 30 390 L 29 389 L 29 383 L 28 382 L 28 375 L 29 374 L 30 365 L 36 355 L 43 349 L 54 345 L 62 346 L 68 349 L 74 356 L 77 363 L 77 374 L 76 375 L 77 377 L 80 369 L 80 362 Q 78 361 79 358 L 75 350 Q 71 343 63 340 L 60 339 L 48 339 Z M 585 351 L 577 354 Q 574 355 576 356 L 578 355 Q 581 354 582 356 L 588 356 L 596 360 L 602 367 L 606 375 Q 605 378 607 379 L 607 386 L 608 387 L 607 390 L 607 398 L 606 399 L 606 402 L 604 408 L 600 417 L 591 430 Q 583 439 572 446 L 552 454 L 543 455 L 542 456 L 519 456 L 518 455 L 512 455 L 511 454 L 503 453 L 499 451 L 496 451 L 482 445 L 459 429 L 443 413 L 420 380 Q 411 369 399 362 L 394 362 L 393 363 L 388 363 L 382 365 L 378 365 L 377 366 L 373 366 L 372 368 L 378 372 Q 385 379 391 389 L 398 403 L 398 405 L 400 408 L 400 410 L 402 413 L 402 415 L 404 418 L 407 427 Q 417 438 430 447 L 453 460 L 455 460 L 458 462 L 473 467 L 480 468 L 481 469 L 485 469 L 490 471 L 501 472 L 502 473 L 509 473 L 510 474 L 524 474 L 525 475 L 545 474 L 546 473 L 551 473 L 552 472 L 559 471 L 568 468 L 585 459 L 594 452 Q 607 440 615 423 L 618 414 L 618 411 L 619 410 Q 618 405 620 405 L 620 397 L 621 396 Q 622 391 620 391 L 620 382 L 618 377 L 618 374 L 613 364 Q 608 356 600 352 Q 596 353 596 351 L 585 351 Z M 111 361 L 106 363 L 103 370 Q 105 371 104 375 L 107 380 L 115 385 L 120 385 L 115 375 L 112 366 L 112 363 L 111 361 Z M 619 364 L 618 366 L 622 375 L 624 383 Q 627 384 627 382 L 626 376 Q 623 369 619 364 Z M 15 367 L 9 377 L 9 385 L 13 386 L 13 380 L 14 379 L 14 373 L 15 372 L 15 367 Z M 279 367 Q 267 376 261 390 L 259 396 L 259 402 L 258 403 L 258 414 L 257 415 L 256 429 L 253 438 L 253 441 L 247 455 L 240 465 L 233 472 L 221 480 L 197 491 L 182 496 L 177 499 L 175 499 L 159 507 L 143 518 L 131 531 L 127 542 L 127 548 Q 129 548 128 552 L 134 564 Q 141 572 151 578 L 168 585 L 177 586 L 178 587 L 192 587 L 193 586 L 198 586 L 207 583 L 210 578 L 210 576 L 208 576 L 205 578 L 201 578 L 200 579 L 190 579 Q 189 577 185 578 L 179 575 L 177 575 L 168 570 L 160 563 L 158 558 L 158 549 L 162 541 L 168 535 L 182 527 L 215 516 L 218 514 L 226 512 L 243 504 L 256 496 L 265 489 Q 278 478 287 463 L 297 444 L 297 442 L 300 437 L 301 432 L 305 423 L 304 414 L 303 413 L 303 405 L 302 404 Q 301 399 303 399 L 303 392 L 310 371 L 288 369 L 287 368 L 282 368 L 279 367 Z M 365 367 L 364 368 L 353 368 L 352 369 L 341 369 L 338 371 L 348 383 L 355 397 L 358 406 L 358 409 L 359 410 L 361 424 L 362 425 L 362 429 L 365 438 L 367 441 L 367 443 L 374 457 L 390 479 L 410 497 L 423 506 L 435 512 L 437 512 L 440 514 L 449 517 L 456 518 L 457 519 Q 461 518 463 520 L 475 520 L 476 521 L 500 519 L 501 518 L 505 518 L 506 517 L 513 516 L 522 513 L 533 508 L 539 504 L 547 496 L 540 492 L 538 492 L 536 494 L 530 496 L 520 496 L 516 494 L 509 497 Q 505 496 505 498 L 498 498 L 497 499 L 487 499 L 486 498 L 479 498 L 478 497 L 470 496 L 452 488 L 448 485 Q 426 466 411 442 L 403 426 L 399 414 L 397 411 L 397 409 L 393 402 L 393 400 L 381 381 L 370 369 L 365 367 Z M 315 370 L 310 380 L 307 389 L 307 393 L 306 394 L 306 410 L 307 411 L 308 423 L 309 424 L 309 430 L 310 431 L 310 438 L 311 439 L 311 460 L 312 461 L 312 473 Q 314 474 313 479 L 314 480 L 314 483 L 318 495 L 325 508 L 331 516 L 347 530 L 376 549 L 392 561 L 407 578 L 413 592 L 413 605 L 411 610 L 412 611 L 419 609 L 431 602 Q 440 595 445 583 L 445 571 Q 442 561 436 555 L 422 541 L 375 510 L 358 493 L 353 483 L 352 476 L 351 475 L 351 462 Q 353 460 352 456 L 354 452 L 356 441 L 359 433 L 359 426 L 358 425 L 357 416 L 353 404 L 353 401 L 348 390 L 340 378 L 333 370 L 315 370 Z M 121 385 L 119 386 L 116 390 L 117 396 L 119 399 L 126 405 L 130 407 L 135 407 L 135 412 L 138 417 L 143 420 L 150 423 Q 154 423 156 420 L 157 428 L 163 432 L 167 432 L 173 430 L 179 427 L 164 422 L 150 415 L 143 410 Q 129 400 121 385 Z M 625 386 L 624 402 Q 622 403 623 408 L 622 409 L 623 412 Q 628 413 631 411 L 635 405 L 635 395 L 633 390 L 629 386 L 625 386 Z M 12 388 L 10 389 L 5 395 L 5 407 L 10 414 Q 13 415 15 413 L 18 414 L 16 414 L 12 418 L 11 421 L 11 428 L 14 434 L 22 440 L 32 442 L 30 445 L 30 449 L 32 453 L 39 459 L 42 460 L 51 460 L 56 457 L 41 445 L 28 431 L 19 414 L 16 405 L 16 402 L 15 401 L 14 390 L 12 388 Z M 525 404 Q 518 414 509 422 L 512 427 L 516 427 L 520 425 Q 526 421 529 414 L 529 410 L 525 404 Z M 622 414 L 617 428 L 611 437 L 616 439 Q 622 440 625 438 L 629 434 L 632 427 L 632 421 L 630 417 Q 628 413 622 414 Z M 508 422 L 497 430 L 486 435 L 481 436 L 480 438 L 491 443 L 496 443 L 504 439 L 509 434 L 510 431 L 510 428 L 508 422 Z M 251 428 L 237 441 L 218 453 L 216 453 L 213 455 L 204 458 L 197 459 L 196 460 L 191 460 Q 189 462 185 461 L 184 462 L 177 462 L 176 463 L 168 463 L 167 464 L 160 464 Q 159 466 156 465 L 121 488 L 114 495 L 112 500 L 112 505 L 109 507 L 104 513 L 103 519 L 102 520 Q 102 527 106 531 L 105 531 L 101 535 L 100 538 L 100 544 L 101 547 Q 103 553 109 557 L 108 560 L 108 565 L 111 571 Q 115 578 126 578 L 127 580 L 128 585 L 132 588 L 141 592 L 146 592 L 150 590 L 142 586 L 133 580 Q 125 573 119 565 L 115 557 L 112 548 L 112 543 L 111 542 L 111 534 Q 113 532 112 528 L 117 516 L 121 510 L 134 497 L 155 484 L 157 484 L 162 481 L 164 481 L 173 477 L 184 475 L 185 474 L 189 474 L 190 473 L 194 473 L 195 472 L 199 472 L 200 471 L 203 471 L 204 470 L 207 470 L 208 469 L 211 469 L 217 467 L 231 460 L 239 454 L 244 449 L 247 443 L 250 434 L 250 431 L 251 430 L 251 428 Z M 306 431 L 305 435 L 303 438 L 300 447 L 305 447 L 306 448 L 308 448 Q 309 444 307 444 L 307 432 L 306 431 Z M 362 436 L 360 438 L 360 441 L 356 453 L 355 466 L 369 473 L 378 476 L 381 476 L 382 477 L 384 477 L 371 459 L 365 447 L 362 436 Z M 413 436 L 412 438 L 423 455 L 436 469 L 443 469 L 446 468 L 452 463 L 439 456 L 428 449 L 413 436 Z M 611 438 L 603 448 L 592 458 L 599 462 L 608 461 L 611 459 Q 615 456 617 451 L 617 444 L 611 438 Z M 300 449 L 294 459 L 295 462 L 304 470 L 308 472 L 308 451 L 305 449 L 300 449 Z M 57 457 L 54 462 L 54 465 L 56 469 L 59 471 L 68 475 L 73 475 L 76 474 L 81 470 L 83 476 L 91 480 L 104 480 L 110 476 L 112 476 L 118 480 L 124 480 L 146 468 L 146 467 L 132 468 L 131 469 L 120 469 L 119 470 L 100 470 L 99 469 L 91 469 Q 89 467 85 468 L 84 467 L 81 467 L 69 463 L 57 457 Z M 590 459 L 577 468 L 570 471 L 561 474 L 558 474 L 557 475 L 554 475 L 553 476 Q 548 475 547 477 L 539 477 L 538 478 L 516 478 L 515 477 L 506 477 L 505 476 L 499 476 L 498 475 L 494 475 L 489 473 L 485 473 L 480 471 L 477 471 L 473 469 L 470 469 L 455 464 L 452 468 L 452 471 L 458 476 L 468 481 L 470 480 L 473 476 L 479 482 L 492 487 L 502 487 L 504 486 L 508 482 L 508 480 L 510 479 L 511 485 L 516 489 L 521 491 L 529 491 L 534 489 L 540 482 L 541 485 Q 544 488 549 490 L 557 490 L 564 487 Q 569 483 572 476 L 576 478 L 586 478 L 590 476 L 595 471 L 596 468 L 596 465 L 594 462 Q 594 458 590 459 Z M 235 460 Q 232 461 234 462 L 235 462 L 235 460 Z M 232 462 L 230 464 L 218 470 L 212 472 L 205 473 L 204 474 L 200 474 L 199 475 L 195 475 L 190 477 L 186 477 L 185 478 L 182 478 L 178 480 L 175 480 L 166 483 L 147 492 L 137 499 L 123 513 L 117 524 L 115 530 L 115 546 Q 117 546 116 550 L 121 562 L 125 568 L 137 579 L 145 584 L 147 584 L 155 588 L 162 589 L 163 590 L 171 590 L 172 591 L 183 591 L 179 590 L 178 589 L 171 589 L 170 588 L 167 588 L 158 585 Q 147 580 139 573 L 129 562 L 124 549 L 124 540 Q 126 539 125 536 L 132 523 L 144 511 L 160 500 L 181 490 L 183 490 L 196 484 L 198 484 L 203 481 L 205 481 L 219 474 L 228 468 L 233 463 L 232 462 Z M 293 463 L 283 478 L 298 500 L 308 518 L 308 520 L 311 525 L 314 534 L 315 541 L 316 542 L 316 548 L 317 549 L 317 563 L 316 564 L 316 570 L 314 575 L 314 578 Q 310 589 303 599 Q 296 607 287 613 L 276 617 L 270 617 L 269 618 L 263 618 Q 261 616 257 617 L 256 616 L 253 617 L 258 620 L 264 622 L 268 622 L 269 623 L 277 623 L 278 622 L 283 622 L 284 621 L 290 620 L 300 615 L 308 609 L 316 601 L 325 588 L 332 574 L 335 565 L 335 562 L 336 561 L 336 558 L 337 557 L 337 551 L 338 550 L 338 536 Q 336 534 337 530 L 325 517 L 315 502 L 310 489 L 308 476 Q 299 471 293 463 Z M 357 471 L 357 478 L 371 491 L 384 501 L 420 524 Q 429 531 435 542 L 441 553 L 441 555 L 447 565 L 449 571 L 449 583 L 444 594 L 440 599 L 435 604 L 425 611 L 423 611 L 417 614 L 413 614 L 412 615 L 405 615 L 397 612 L 391 607 L 389 602 L 389 598 L 391 593 L 395 589 L 395 588 L 389 590 L 385 594 L 382 602 Q 384 603 383 608 L 385 612 L 392 618 L 401 622 L 417 622 Q 417 620 421 621 L 434 615 L 438 612 L 451 598 L 458 583 L 459 576 L 460 575 L 460 569 L 461 568 L 461 557 L 460 556 L 459 546 L 453 532 L 449 526 L 444 520 L 432 516 L 421 510 L 401 495 L 390 484 L 388 481 L 373 478 L 357 471 Z M 281 481 L 272 491 L 285 498 L 284 501 Q 285 507 289 511 L 294 514 L 300 516 L 303 519 L 302 522 L 310 538 L 311 542 L 312 542 L 311 535 L 308 526 L 306 523 L 306 521 L 295 501 L 283 483 L 281 481 Z M 362 486 L 361 488 L 366 495 Q 374 503 384 510 L 409 526 Q 417 535 429 541 L 431 543 L 431 543 L 425 534 L 416 525 L 384 505 L 372 496 L 362 486 Z M 473 486 L 472 487 L 467 488 L 474 490 L 478 490 L 479 491 L 483 491 L 473 486 Z M 560 494 L 556 496 L 552 496 L 548 501 L 536 511 L 524 517 L 512 521 L 504 522 L 503 523 L 499 523 L 498 524 L 492 524 L 491 525 L 471 526 L 472 528 L 475 530 L 481 530 L 482 531 L 491 531 L 494 530 L 497 527 L 500 529 L 510 529 L 520 525 L 523 520 L 526 522 L 530 522 L 537 519 L 541 515 L 542 509 L 545 510 L 549 510 L 553 508 L 561 500 L 563 495 L 560 494 Z M 450 522 L 449 523 L 457 534 L 460 541 L 462 551 L 463 552 L 463 559 L 464 560 L 464 568 L 463 569 L 463 576 Q 461 577 462 581 L 456 596 L 450 605 Q 442 614 432 620 L 418 625 L 402 625 Q 401 623 398 624 L 389 619 Q 384 617 383 612 L 382 612 L 382 614 L 386 621 Q 389 624 394 626 L 396 625 L 399 625 L 405 629 L 414 629 L 420 625 L 426 627 L 434 625 L 437 623 L 440 619 L 443 616 L 449 616 L 455 613 L 463 604 Q 465 601 464 595 L 468 593 L 472 589 L 476 579 Q 477 570 472 567 L 475 564 L 476 561 L 476 553 L 473 545 L 471 543 L 470 535 L 465 527 L 462 524 L 450 522 Z M 341 532 L 341 534 L 341 549 L 340 550 L 340 557 L 339 558 L 338 566 L 334 578 L 329 588 L 321 600 Q 312 610 301 618 L 291 623 L 285 624 L 284 625 L 280 625 L 279 626 L 268 626 L 267 625 L 265 626 L 267 627 L 275 628 L 276 629 L 288 629 Q 289 627 293 628 Q 298 626 302 621 L 307 621 L 314 617 L 321 609 L 322 604 L 324 602 L 329 601 L 336 593 L 339 585 L 338 581 L 343 578 L 347 571 Q 346 567 348 567 L 348 559 L 345 556 L 348 554 L 352 549 L 353 542 L 341 532 Z M 313 542 L 312 545 L 313 545 L 313 542 Z M 201 588 L 192 592 L 183 593 L 182 594 L 169 594 L 168 593 L 162 593 L 161 592 L 151 590 L 150 593 L 154 596 L 159 598 L 168 598 L 170 597 Q 171 595 173 598 L 183 598 Q 183 596 187 597 L 197 593 L 202 589 L 201 588 Z M 398 593 L 394 598 L 395 604 Q 397 609 405 609 L 406 606 L 406 596 Q 404 592 398 593 Z " /><path fill="rgb(0,0,0)" stroke="rgb(0,0,0)" stroke-width="1" opacity="0.9333333333333333" d="M 230.5 171 L 235.5 171 L 240 174.5 Q 241 181 237.5 183 L 231.5 186 L 221.5 186 Q 218 185 219 179.5 L 223.5 174 L 230.5 171 Z " /><path fill="rgb(0,0,0)" stroke="rgb(0,0,0)" stroke-width="1" opacity="0.9333333333333333" d="M 409.5 176 L 412.5 176 L 417.5 178 L 425 185.5 Q 426.7 187.3 426 191.5 Q 424.8 195.3 418.5 194 L 412.5 192 L 406 186.5 Q 404.3 184.7 405 180.5 L 407.5 177 L 409.5 176 Z " /><path fill="rgb(0,0,0)" stroke="rgb(0,0,0)" stroke-width="1" opacity="0.9333333333333333" d="M 233.5 214 L 242.5 214 L 243.5 215 L 250.5 216 L 260.5 221 L 269 228.5 L 275 239.5 L 278 248.5 Q 277 252.5 279 253.5 L 279 267.5 L 274 282.5 L 264.5 294 L 260.5 297 L 249.5 302 Q 245.5 301 244.5 303 L 233.5 303 L 232.5 302 L 225.5 301 L 219.5 298 L 208 288.5 L 200 274.5 L 200 271.5 L 198 266.5 L 198 252.5 Q 200.3 251.2 199 246.5 L 191.5 245 L 184 237.5 L 182 230.5 L 183.5 228 L 192.5 239 L 198.5 241 L 203 238.5 L 205 234.5 Q 198.2 232.3 195 226.5 L 192 220.5 L 192 216.5 L 194.5 215 Q 196.4 221.1 201.5 224 L 208.5 227 L 218.5 219 L 233.5 214 Z M 235 222 L 234 223 L 230 223 L 224 225 L 217 229 L 207 240 L 202 254 L 202 266 Q 204 266 203 271 L 210 285 L 221 294 L 236 299 L 248 298 L 256 295 L 262 291 L 267 286 L 271 280 L 275 268 L 275 255 Q 273 254 274 251 L 271 245 L 271 243 L 267 237 Q 261 228 251 224 L 244 223 L 243 222 L 235 222 Z " /><path fill="rgb(0,0,0)" stroke="rgb(0,0,0)" stroke-width="1" opacity="0.9333333333333333" d="M 403.5 219 L 409.5 219 L 410.5 220 L 419.5 221 L 427.5 225 L 434.5 232 L 437.5 233 L 443.5 231 L 448 227.5 L 451.5 222 L 453 222.5 L 454 227.5 Q 452.3 228.3 453 231.5 L 448.5 236 L 440 238.5 L 446.5 246 L 448.5 247 L 457.5 247 Q 463.3 243.3 465.5 236 L 467 236.5 L 467 242.5 L 462.5 250 L 455.5 254 L 446 254.5 L 447 257.5 L 447 273.5 L 442 287.5 Q 437.5 295.5 430.5 301 L 424.5 305 L 416.5 308 Q 412.5 307 411.5 309 L 400.5 309 L 399.5 308 L 392.5 307 L 384.5 303 L 373 292.5 L 368 283.5 L 366 277.5 Q 367 273.5 365 272.5 L 365 258.5 L 366 257.5 L 367 249.5 L 373 236.5 L 380.5 228 L 393.5 221 L 402.5 220 L 403.5 219 Z M 402 228 L 401 229 L 398 229 L 392 231 L 384 236 L 375 246 L 371 254 L 370 260 L 369 261 L 369 274 L 370 275 L 371 281 L 376 290 L 386 299 L 394 303 L 400 304 L 401 305 L 411 305 Q 411 303 416 304 L 428 298 Q 435 292 439 285 L 439 283 L 442 277 L 442 273 L 443 272 L 443 260 L 442 259 L 442 256 L 440 250 L 436 243 L 430 236 L 419 230 L 412 229 L 411 228 L 402 228 Z " /><path fill="rgb(0,0,0)" stroke="rgb(0,0,0)" stroke-width="1" opacity="0.9333333333333333" d="M 235.5 227 L 243.5 227 L 244.5 228 L 250.5 229 Q 258.8 233.2 264 240.5 L 269 253.5 L 269 265.5 L 266 274.5 L 262 280.5 L 256.5 286 L 246.5 291 L 236.5 292 L 235.5 291 L 231.5 291 L 228.5 289 L 226.5 289 L 216 279.5 L 212 272.5 L 211 266.5 L 210 265.5 L 210 251.5 L 214 241.5 L 221.5 233 L 228.5 229 L 234.5 228 L 235.5 227 Z M 226 237 L 224 238 L 218 245 Q 217 251 219 254 L 225 259 Q 228 258 229 260 L 235 259 L 239 255 L 241 250 Q 241 243 238 241 L 233 237 L 226 237 Z M 244 265 L 242 266 Q 240 267 240 270 Q 241 273 246 272 Q 248 271 247 268 L 244 265 Z " /><path fill="rgb(0,0,0)" stroke="rgb(0,0,0)" stroke-width="1" opacity="0.9333333333333333" d="M 400.5 233 L 407.5 233 L 408.5 234 L 412.5 234 L 418.5 236 L 423.5 239 L 430 245.5 L 435 254.5 Q 434.3 257.8 436 258.5 L 436 273.5 L 431 284.5 L 422.5 293 L 414.5 297 Q 410.5 296 409.5 298 L 401.5 298 L 392.5 295 L 384 288.5 L 381 284.5 L 376 273.5 Q 376.7 270.3 375 269.5 L 375 257.5 L 379 246.5 L 384.5 240 L 390.5 236 L 392.5 236 L 395.5 234 L 399.5 234 L 400.5 233 Z M 393 240 Q 392 242 389 241 L 384 244 L 381 248 Q 382 251 380 252 L 382 259 L 388 264 L 391 265 L 395 265 L 401 262 L 404 258 Q 403 254 405 254 L 403 247 L 399 242 L 393 240 Z M 408 268 L 406 269 Q 403 270 404 274 Q 405 277 410 276 Q 412 275 411 271 L 408 268 Z " /><path fill="rgb(0,0,0)" stroke="rgb(0,0,0)" stroke-width="1" opacity="0.9333333333333333" d="M 314.5 289 L 325.5 289 L 332.5 292 L 336 295.5 L 334.5 296 L 333.5 295 Q 328.7 296.2 327.5 294 L 307 293.5 L 309.5 291 L 314.5 289 Z " /><path fill="rgb(0,0,0)" stroke="rgb(0,0,0)" stroke-width="1" opacity="0.9333333333333333" d="M 353.5 306 L 355 306.5 L 355 309.5 L 353 315.5 L 348.5 321 L 341.5 326 L 334.5 329 Q 331.3 328.3 330.5 330 L 313.5 330 L 312.5 329 L 306.5 328 L 298.5 324 L 290 316.5 L 286 308.5 L 288.5 307 Q 291.6 313.9 297.5 318 L 306.5 323 L 312.5 325 Q 316.5 324 317.5 326 L 327.5 326 L 328.5 325 L 335.5 324 L 341.5 321 L 349 314.5 L 353.5 306 Z " /><path fill="rgb(0,0,0)" stroke="rgb(0,0,0)" stroke-width="1" opacity="0.9333333333333333" d="M 304.5 332 L 311.5 337 L 317.5 338 L 318.5 339 L 323.5 339 Q 324.3 337.3 327.5 338 L 334.5 334 L 335 335.5 L 327.5 341 L 324.5 342 L 317.5 342 L 310.5 339 L 304 332.5 L 304.5 332 Z " /><path fill="rgb(0,0,0)" stroke="rgb(0,0,0)" stroke-width="1" opacity="0.00392156862745098" d="M 0.5 0 L 395 0.5 Q 385.8 3.3 381 10.5 L 377 18.5 L 377 21.5 L 375 25.5 L 374.5 30 L 367.5 29 L 366.5 28 L 362.5 28 L 361.5 27 L 357.5 27 L 356.5 26 L 344.5 25 L 343.5 24 L 335.5 24 L 334.5 23 L 298.5 23 L 297.5 24 L 289.5 24 L 288.5 25 L 283.5 25 L 282.5 26 L 277.5 26 L 272.5 28 L 268.5 28 L 238.5 38 L 218.5 48 L 204.5 57 Q 187.5 69 174 84.5 L 166 94.5 L 155 111.5 L 145 132.5 L 140 147.5 L 140 150.5 L 137 159.5 L 137 163.5 L 136 164.5 L 135 177.5 L 134 178.5 L 134 214.5 L 135 215.5 L 135 223.5 L 136 224.5 L 136 230.5 L 137 231.5 L 137 236.5 L 138 237.5 L 139 246.5 L 142 255.5 L 142 258.5 L 148 276.5 L 150 279.5 L 150 281.5 L 162 303.5 L 168 311.5 L 184.5 328 L 208.5 345 L 230.5 356 L 232.5 356 L 238 359.5 L 238 364.5 L 236 368.5 L 227.5 377 L 218.5 382 L 212.5 383 L 211.5 384 Q 207.5 383 206.5 385 L 188.5 385 L 187.5 384 L 178.5 383 L 164.5 377 L 151 364.5 L 144 352.5 L 141 343.5 Q 142 339.5 140 338.5 L 140 315.5 L 141 314.5 L 141 303.5 L 142 302.5 L 142 284.5 L 141 283.5 L 141 278.5 L 139 272.5 L 137 268.5 L 130.5 261 L 121.5 255 L 114.5 252 L 108.5 251 L 107.5 250 L 101.5 250 Q 100.8 248.3 97.5 249 L 96.5 250 L 87.5 251 L 81.5 254 L 74 260.5 L 67 272.5 Q 68 276.5 66 277.5 L 66 284.5 L 67 285.5 L 68 291.5 L 73.5 299 L 77.5 302 L 83.5 304 L 86.5 304 L 90 301.5 Q 90.8 296.8 87.5 296 L 83.5 295 L 82 293.5 L 79 286.5 L 79 279.5 Q 81 274 85.5 271 L 88.5 270 L 94.5 270 L 97.5 271 L 103 275.5 L 105 278.5 L 108 290.5 L 104 295.5 L 103 298.5 L 103 309.5 L 98 314.5 L 96 319.5 L 96 329.5 L 99 335.5 L 95 341.5 L 94 349.5 L 95 350.5 L 96 356.5 L 100 361.5 L 100 363.5 L 98 367.5 L 98 372.5 L 102 381.5 L 107.5 387 L 111 389.5 L 112 396.5 L 119.5 407 L 131 413.5 L 132 416.5 L 139.5 424 L 151 428.5 L 156 434.5 L 149.5 437 L 145.5 437 L 144.5 438 L 136.5 439 L 135.5 440 L 130.5 440 L 129.5 441 L 122.5 441 L 121.5 442 L 96.5 442 L 95.5 441 L 90.5 441 L 89.5 440 L 82.5 439 L 66.5 432 Q 55.5 425.5 48 415.5 L 43 408.5 L 38 398.5 L 36 392.5 L 36 389.5 L 35 388.5 L 34 374.5 L 35 373.5 L 35 369.5 L 37 363.5 L 45.5 354 L 52.5 351 L 58.5 351 L 63.5 353 L 69 358.5 L 71 362.5 L 72 370.5 Q 70.3 371.3 71 374.5 L 65.5 381 L 57 385.5 Q 56 390 58.5 391 Q 61 393 66.5 392 Q 74.9 388.9 80 382.5 L 85 373.5 Q 84.3 370.3 86 369.5 L 86 359.5 L 83 350.5 L 74.5 340 L 68.5 336 L 60.5 333 L 46.5 333 L 32.5 339 L 22 349.5 L 19 354.5 L 9 365.5 L 4 376.5 L 4 384.5 L 5 386.5 Q 1.6 389.6 0.5 395 L 0.5 0 Z " /><path fill="rgb(0,0,0)" stroke="rgb(0,0,0)" stroke-width="1" opacity="0.00392156862745098" d="M 404.5 0 L 640 0.5 L 639.5 395 Q 638.3 386.3 632 382.5 L 631 374.5 L 628 367.5 L 616.5 355 L 600.5 346 Q 597.3 346.8 596.5 345 L 583.5 345 L 571.5 350 L 564 356.5 Q 562.3 358.3 563 362.5 Q 563.8 364.8 567.5 364 L 575.5 361 L 583.5 361 L 589.5 363 L 596 368.5 L 601 379.5 L 601 396.5 L 600 397.5 L 599 404.5 L 595 413.5 L 590 421.5 L 580.5 432 L 568.5 441 L 551.5 448 L 542.5 449 L 541.5 450 L 517.5 450 L 516.5 449 L 510.5 449 L 509.5 448 L 505.5 448 L 502 446.5 L 502.5 445 Q 508.6 443.1 512 438.5 L 514.5 433 L 518.5 432 L 529 423.5 L 533 417.5 L 534.5 409 Q 540.6 407.6 543 402.5 L 546 396.5 L 547 389.5 L 546 388.5 L 546 382.5 L 550 376.5 Q 549.3 373.3 551 372.5 L 551 364.5 L 546 353.5 L 548 350.5 L 548 340.5 L 543 330.5 L 546 325.5 L 547 319.5 L 548 318.5 L 548 312.5 L 549.5 311 L 561.5 304 Q 565.7 304.7 567.5 303 L 568.5 304 L 574.5 305 L 580 309.5 L 583 315.5 L 583 328.5 Q 585 329.5 584 333.5 L 586.5 337 L 589.5 337 L 593 333.5 L 597 322.5 L 597 313.5 L 596 312.5 L 595 305.5 L 591 297.5 L 585.5 291 L 578.5 286 L 570.5 283 Q 567.3 283.8 566.5 282 L 554.5 282 L 553.5 283 L 549.5 283 L 543.5 285 L 535.5 289 L 525 297.5 L 519 305.5 L 512 320.5 L 512 323.5 L 510 327.5 L 510 331.5 L 508 336.5 L 508 341.5 L 507 342.5 L 507 347.5 L 506 348.5 L 505 359.5 L 504 360.5 L 504 363.5 L 501 372.5 Q 496.4 382.9 488.5 390 L 475.5 398 L 469.5 400 L 457.5 401 L 456.5 400 L 447.5 399 L 437 392.5 L 423 374.5 L 415.5 367 L 408 361.5 L 411.5 359 L 416.5 358 L 438.5 347 L 456.5 334 L 469 321.5 L 482 303.5 L 492 283.5 L 492 281.5 L 494 278.5 L 500 260.5 L 500 257.5 L 501 256.5 L 501 253.5 L 504 244.5 L 504 239.5 L 505 238.5 Q 503.7 233.7 506 232.5 L 506 225.5 L 507 224.5 L 507 213.5 L 508 212.5 L 508 192.5 L 507 191.5 L 507 180.5 L 506 179.5 L 505 167.5 L 504 166.5 L 504 163.5 L 503 162.5 L 503 159.5 L 502 158.5 L 502 155.5 L 500 151.5 L 499 145.5 L 503.5 142 L 513.5 138 L 522 131.5 L 528 121.5 Q 527.3 118.3 529 117.5 L 529 109.5 L 526 100.5 L 518.5 91 Q 509.9 83.1 497.5 79 L 494.5 79 L 489.5 77 L 472.5 76 L 471.5 77 L 463.5 77 L 462.5 78 L 457.5 78 L 456.5 79 L 449.5 80 L 440 71.5 Q 439 67.5 441 66.5 L 441 56.5 L 440 55.5 L 440 48.5 Q 438 47.5 439 43.5 L 438 42.5 L 438 39.5 L 436 33.5 Q 429.3 17.7 417.5 7 L 407.5 1 L 404.5 1 L 404.5 0 Z " /><path fill="rgb(0,0,0)" stroke="rgb(0,0,0)" stroke-width="1" opacity="0.00392156862745098" d="M 396.5 6 L 403.5 6 L 408.5 8 L 422 20.5 L 430 34.5 L 433 43.5 L 434 52.5 L 435 53.5 L 435 66.5 L 433.5 70 L 420 69.5 L 420 66.5 L 418 60.5 L 414.5 54 L 414 56.5 L 416 59.5 L 418 65.5 L 418 69.5 L 419 70.5 L 413.5 74 L 411.5 74 L 403.5 67 L 396.5 66 L 395.5 65 L 390.5 65 L 389.5 66 L 380.5 67 L 376 69.5 L 378.5 70 L 382.5 68 L 392.5 67 L 393.5 68 L 398.5 68 L 401.5 69 Q 406.3 70.7 409 74.5 L 409 76.5 L 402 86.5 L 400 96.5 L 401 97.5 L 401 104.5 L 402 107.5 L 398.5 109 L 387.5 109 L 386.5 108 L 382.5 108 L 381.5 107 L 375.5 106 L 365.5 101 L 356 92.5 L 352 86.5 L 350 80.5 L 350 74.5 L 352 69.5 L 357.5 64 L 368.5 58 L 375 52.5 L 379 43.5 L 380 30.5 L 381 29.5 L 381 25.5 L 383 19.5 Q 385.5 13 390.5 9 L 396.5 6 Z " /><path fill="rgb(0,0,0)" stroke="rgb(0,0,0)" stroke-width="1" opacity="0.00392156862745098" d="M 298.5 29 L 337.5 29 L 338.5 30 L 345.5 30 L 346.5 31 L 351.5 31 L 352.5 32 L 362.5 33 L 363.5 34 L 366.5 34 L 374 36.5 L 373 46.5 L 368.5 53 L 354.5 62 L 350 66.5 L 348 72.5 L 346.5 74 L 338.5 74 L 337.5 75 L 322.5 76 L 321.5 77 L 315.5 77 L 314.5 78 L 300.5 80 L 288.5 84 L 285.5 84 L 270.5 89 L 262.5 93 L 260.5 93 L 238.5 104 L 221.5 115 Q 207.6 125.1 196 137.5 L 186 149.5 L 178 161.5 L 168 182.5 L 166 188.5 L 166 191.5 L 165 192.5 L 165 195.5 L 164 196.5 L 163 206.5 L 162 207.5 L 162 235.5 L 163 236.5 L 163 242.5 L 164 243.5 L 164 248.5 L 165 249.5 L 166 257.5 L 168 261.5 L 168 264.5 L 172 276.5 L 176 284.5 L 176 286.5 L 187 309.5 L 202 332.5 L 200.5 332 L 191.5 326 L 178 313.5 L 164 295.5 L 154 274.5 L 148 256.5 L 148 253.5 L 146 249.5 L 146 245.5 L 145 244.5 L 144 236.5 L 143 235.5 L 143 231.5 L 142 230.5 L 141 217.5 L 140 216.5 L 140 198.5 L 139 197.5 L 140 196.5 L 140 179.5 L 141 178.5 L 142 165.5 L 143 164.5 L 143 160.5 L 144 159.5 L 145 151.5 L 152 130.5 L 156 123.5 L 158 117.5 L 167 102.5 L 177 89.5 L 192.5 74 L 203.5 65 L 218.5 55 L 237.5 45 L 239.5 45 L 252.5 39 L 258.5 38 L 265.5 35 L 268.5 35 L 273.5 33 L 277.5 33 L 278.5 32 L 282.5 32 L 283.5 31 L 288.5 31 L 289.5 30 L 297.5 30 L 298.5 29 Z " /><path fill="rgb(0,0,0)" stroke="rgb(0,0,0)" stroke-width="1" opacity="0.00392156862745098" d="M 422.5 73 L 433.5 73 L 436.5 74 Q 443.6 77.4 448 83.5 L 451 89.5 L 452 99.5 L 449 108.5 L 441.5 117 L 435.5 120 L 424.5 121 L 415.5 118 L 409 112.5 L 404 102.5 L 404 90.5 Q 406.8 81.8 413.5 77 L 422.5 73 Z " /><path fill="rgb(0,0,0)" stroke="rgb(0,0,0)" stroke-width="1" opacity="0.00392156862745098" d="M 340.5 77 L 347 77.5 L 347 81.5 L 350 89.5 L 360.5 101 L 369.5 107 L 371.5 107 L 380.5 111 Q 385.3 109.8 386.5 112 L 398.5 112 Q 399.5 110 403.5 111 L 411.5 119 L 422 124.5 L 422 128.5 L 424 132.5 L 424 135.5 L 432 152.5 Q 436.9 161.1 444.5 167 L 453.5 172 L 458.5 173 L 460 174.5 L 461 180.5 L 462 181.5 L 462 185.5 L 464 190.5 L 464 195.5 L 465 196.5 L 466 207.5 L 467 208.5 L 467 216.5 L 468 217.5 L 468 253.5 L 467 254.5 L 467 261.5 L 466 262.5 L 466 266.5 L 465 267.5 L 465 271.5 L 464 272.5 L 463 279.5 L 458 294.5 L 456 297.5 L 456 299.5 L 450 311.5 L 440 327.5 L 428 342.5 L 420.5 350 L 401.5 357 L 398.5 357 L 397.5 358 L 394.5 358 L 385.5 361 L 381.5 361 L 380.5 362 L 369.5 363 L 368.5 364 L 352.5 365 L 351.5 366 L 338.5 366 L 337.5 367 L 301.5 367 L 300.5 366 L 290.5 366 L 289.5 365 L 283.5 365 L 282.5 364 L 268.5 362 L 267.5 361 L 256.5 359 L 241.5 354 L 211.5 340 L 206 334.5 L 190 308.5 L 180 288.5 L 180 286.5 L 174 273.5 L 172 267.5 L 172 264.5 L 170 260.5 L 169 253.5 L 168 252.5 L 168 248.5 L 167 247.5 L 166 232.5 L 165 231.5 L 165 212.5 L 166 211.5 L 166 203.5 L 167 202.5 L 167 198.5 L 168 197.5 L 168 193.5 L 170 189.5 L 170 186.5 L 180 164.5 L 191 148.5 L 209.5 129 L 224.5 117 L 236.5 109 L 266.5 94 L 271.5 93 L 274.5 91 L 286.5 87 L 289.5 87 L 301.5 83 L 305.5 83 L 306.5 82 L 310.5 82 L 316.5 80 L 322.5 80 L 323.5 79 L 339.5 78 L 340.5 77 Z M 231 171 L 224 174 L 219 180 Q 218 185 222 186 L 232 186 L 238 183 Q 241 181 240 175 L 236 171 L 231 171 Z M 410 176 L 408 177 L 405 181 Q 404 185 406 187 L 413 192 L 419 194 Q 425 195 426 192 Q 427 187 425 186 L 418 178 L 413 176 L 410 176 Z M 234 214 L 219 219 L 209 227 L 202 224 Q 196 221 195 215 L 192 217 L 192 221 L 195 227 Q 198 232 205 235 L 203 239 L 199 241 L 193 239 L 184 228 L 182 231 L 184 238 L 192 245 L 199 247 Q 200 251 198 253 L 198 267 L 200 272 L 200 275 L 208 289 L 220 298 L 226 301 L 233 302 L 234 303 L 245 303 Q 246 301 250 302 L 261 297 L 265 294 L 274 283 L 279 268 L 279 254 Q 277 253 278 249 L 275 240 L 269 229 L 261 221 L 251 216 L 244 215 L 243 214 L 234 214 Z M 404 219 L 403 220 L 394 221 L 381 228 L 373 237 L 367 250 L 366 258 L 365 259 L 365 273 Q 367 274 366 278 L 368 284 L 373 293 L 385 303 L 393 307 L 400 308 L 401 309 L 412 309 Q 412 307 417 308 L 425 305 L 431 301 Q 438 295 442 288 L 447 274 L 447 258 L 446 255 L 456 254 L 463 250 L 467 243 L 467 237 L 466 236 Q 463 243 458 247 L 449 247 L 447 246 L 440 239 L 449 236 L 453 232 Q 452 228 454 228 L 453 223 L 452 222 L 448 228 L 444 231 L 438 233 L 435 232 L 428 225 L 420 221 L 411 220 L 410 219 L 404 219 Z M 315 289 L 310 291 L 307 294 L 328 294 Q 329 296 334 295 L 335 296 L 336 296 L 333 292 L 326 289 L 315 289 Z M 354 306 L 349 315 L 342 321 L 336 324 L 329 325 L 328 326 L 318 326 Q 316 324 313 325 L 307 323 L 298 318 Q 292 314 289 307 L 286 309 L 290 317 L 299 324 L 307 328 L 313 329 L 314 330 L 331 330 Q 331 328 335 329 L 342 326 L 349 321 L 353 316 L 355 310 L 355 307 L 354 306 Z M 307 334 L 306 335 L 311 339 L 318 342 L 325 342 L 328 341 L 335 336 L 335 334 L 328 338 Q 324 337 324 339 L 315 338 L 307 334 Z " /><path fill="rgb(0,0,0)" stroke="rgb(0,0,0)" stroke-width="1" opacity="0.00392156862745098" d="M 472.5 82 L 482.5 82 L 483.5 83 L 489.5 83 L 490.5 84 L 493.5 84 L 499.5 86 Q 511.8 90.8 519 100.5 L 523 109.5 L 523 118.5 L 521 123.5 L 517.5 128 L 499.5 138 L 494 142.5 L 488 153.5 L 488 155.5 L 485 161.5 L 481.5 166 L 474.5 170 Q 471.3 169.3 470.5 171 L 461.5 171 L 448.5 166 L 440 158.5 L 435 151.5 L 430 141.5 L 425 124.5 L 433.5 124 L 436.5 123 L 446.5 117 L 452 125.5 L 453.5 136 L 454 126.5 L 452 120.5 L 448 115.5 L 451.5 110 L 457.5 111 L 468 117.5 L 474 126.5 L 476 132.5 L 476.5 141 L 478 137.5 L 477 136.5 L 477 130.5 L 474 122.5 L 464.5 112 L 456.5 108 L 454.5 108 L 453 106.5 L 455.5 100 L 457.5 101 L 468.5 102 L 468.5 101 L 465.5 101 L 460.5 99 L 456.5 99 L 455 97.5 L 455 93.5 L 454 92.5 L 453 85.5 L 459.5 85 L 460.5 84 L 465.5 84 L 466.5 83 L 471.5 83 L 472.5 82 Z " /><path fill="rgb(0,0,0)" stroke="rgb(0,0,0)" stroke-width="1" opacity="0.00392156862745098" d="M 493.5 151 L 495 152.5 L 497 158.5 L 498 167.5 L 499 168.5 L 499 173.5 L 500 174.5 L 500 180.5 L 501 181.5 L 501 192.5 L 502 193.5 L 502 210.5 L 501 211.5 L 501 222.5 L 500 223.5 L 500 230.5 L 499 231.5 L 498 242.5 L 496 247.5 L 495 255.5 L 493 259.5 L 493 262.5 L 489 274.5 L 487 277.5 L 487 279.5 L 478 298.5 L 471 309.5 L 465 317.5 L 452.5 330 Q 442.5 338.5 430.5 345 L 430 344.5 L 435 339.5 L 450 318.5 L 459 300.5 L 459 298.5 L 461 295.5 L 465 283.5 L 465 280.5 L 468 271.5 L 468 267.5 L 469 266.5 Q 467.7 261.8 470 260.5 L 470 252.5 L 471 251.5 L 471 215.5 L 470 214.5 L 470 206.5 L 469 205.5 L 468 194.5 L 467 193.5 L 467 189.5 L 466 188.5 L 465 180.5 L 463 174.5 L 475.5 173 Q 482.9 170.4 487 164.5 L 493.5 151 Z " /><path fill="rgb(0,0,0)" stroke="rgb(0,0,0)" stroke-width="1" opacity="0.00392156862745098" d="M 234.5 222 L 242.5 222 L 243.5 223 L 250.5 224 Q 260.8 228.2 267 236.5 L 271 242.5 L 271 244.5 L 274 250.5 Q 273.3 253.8 275 254.5 L 275 267.5 L 271 279.5 L 267 285.5 L 261.5 291 L 255.5 295 L 247.5 298 L 235.5 299 L 220.5 294 L 210 284.5 L 203 270.5 Q 204 266.5 202 265.5 L 202 253.5 L 207 239.5 L 216.5 229 L 223.5 225 L 229.5 223 L 233.5 223 L 234.5 222 Z M 236 227 L 235 228 L 229 229 L 222 233 L 214 242 L 210 252 L 210 266 L 211 267 L 212 273 L 216 280 L 227 289 L 229 289 L 232 291 L 236 291 L 237 292 L 247 291 L 257 286 L 262 281 L 266 275 L 269 266 L 269 254 L 264 241 Q 259 233 251 229 L 245 228 L 244 227 L 236 227 Z " /><path fill="rgb(0,0,0)" stroke="rgb(0,0,0)" stroke-width="1" opacity="0.00392156862745098" d="M 401.5 228 L 410.5 228 L 411.5 229 L 418.5 230 L 429.5 236 L 436 242.5 L 440 249.5 L 442 255.5 L 442 258.5 L 443 259.5 L 443 271.5 L 442 272.5 L 442 276.5 L 439 282.5 L 439 284.5 Q 434.5 292.5 427.5 298 L 415.5 304 Q 411.5 303 410.5 305 L 400.5 305 L 399.5 304 L 393.5 303 L 385.5 299 L 376 289.5 L 371 280.5 L 370 274.5 L 369 273.5 L 369 260.5 L 370 259.5 L 371 253.5 L 375 245.5 L 383.5 236 L 391.5 231 L 397.5 229 L 400.5 229 L 401.5 228 Z M 401 233 L 400 234 L 396 234 L 393 236 L 391 236 L 385 240 L 379 247 L 375 258 L 375 270 Q 377 270 376 274 L 381 285 L 384 289 L 393 295 L 402 298 L 410 298 Q 410 296 415 297 L 423 293 L 431 285 L 436 274 L 436 259 Q 434 258 435 255 L 430 246 L 424 239 L 419 236 L 413 234 L 409 234 L 408 233 L 401 233 Z " /><path fill="rgb(0,0,0)" stroke="rgb(0,0,0)" stroke-width="1" opacity="0.00392156862745098" d="M 225.5 237 L 232.5 237 L 238 240.5 Q 241 243.5 241 249.5 L 239 254.5 L 234.5 259 L 228.5 260 Q 227.8 258.3 224.5 259 L 219 253.5 Q 216.8 250.7 218 244.5 L 223.5 238 L 225.5 237 Z " /><path fill="rgb(0,0,0)" stroke="rgb(0,0,0)" stroke-width="1" opacity="0.00392156862745098" d="M 392.5 240 L 398.5 242 L 403 246.5 L 405 253.5 Q 403.3 254.3 404 257.5 L 400.5 262 L 394.5 265 L 390.5 265 L 387.5 264 L 382 258.5 L 380 251.5 Q 381.8 250.8 381 247.5 L 383.5 244 L 388.5 241 Q 391.8 241.8 392.5 240 Z " /><path fill="rgb(0,0,0)" stroke="rgb(0,0,0)" stroke-width="1" opacity="0.00392156862745098" d="M 92.5 256 L 106.5 256 L 107.5 257 L 113.5 258 L 123.5 263 L 131 270.5 L 135 279.5 L 135 286.5 L 136 287.5 L 136 297.5 L 135 298.5 L 135 313.5 L 134 314.5 L 134 338.5 L 135 339.5 L 135 344.5 L 138 353.5 L 143 363.5 L 153.5 376 L 161.5 382 L 175.5 388 L 178.5 388 L 183.5 390 L 190.5 390 L 191.5 391 L 203.5 391 L 204.5 390 L 215.5 389 L 228.5 384 L 229 384.5 L 223 390.5 Q 215.4 401.4 205.5 410 L 186.5 424 L 181.5 424 L 177.5 422 L 174.5 422 L 162.5 418 L 154.5 414 Q 140.2 405.3 130 392.5 L 123 382.5 L 118 372.5 L 115 363.5 Q 116 359.5 114 358.5 L 114 334.5 L 115 333.5 L 115 328.5 L 116 327.5 L 117 319.5 L 118 318.5 L 118 315.5 L 120 310.5 L 120 306.5 L 121 305.5 L 121 284.5 L 120 283.5 L 120 280.5 L 118 274.5 L 115 269.5 L 109.5 264 L 101.5 260 L 92.5 260 L 83.5 264 L 77 270.5 L 74 275.5 L 72.5 285 L 72 277.5 L 75 269.5 L 83.5 260 L 92.5 256 Z " /><path fill="rgb(0,0,0)" stroke="rgb(0,0,0)" stroke-width="1" opacity="0.00392156862745098" d="M 93.5 263 L 102.5 264 L 111 270.5 L 116 278.5 L 118 289.5 L 115.5 291 L 111 285.5 L 110 279.5 L 112 274.5 L 109.5 274 L 100.5 266 L 94.5 265 Q 92 264 93.5 263 Z " /><path fill="rgb(0,0,0)" stroke="rgb(0,0,0)" stroke-width="1" opacity="0.00392156862745098" d="M 243.5 265 L 247 267.5 Q 247.8 271.3 245.5 272 Q 240.8 272.8 240 269.5 Q 239.5 266.5 241.5 266 L 243.5 265 Z " /><path fill="rgb(0,0,0)" stroke="rgb(0,0,0)" stroke-width="1" opacity="0.00392156862745098" d="M 407.5 268 L 411 270.5 Q 412 275 409.5 276 Q 404.8 276.8 404 273.5 Q 403.3 269.8 405.5 269 L 407.5 268 Z " /><path fill="rgb(0,0,0)" stroke="rgb(0,0,0)" stroke-width="1" opacity="0.00392156862745098" d="M 557.5 288 L 564.5 288 L 565.5 289 L 572.5 290 Q 579.6 292.9 584 298.5 L 589 308.5 L 590 317.5 L 589 317.5 Q 586.5 303 576.5 296 L 570.5 293 L 559.5 293 L 548.5 298 L 540 306.5 L 536 313.5 L 534 319.5 L 534 322.5 L 533 323.5 L 533 327.5 L 532 328.5 L 532 354.5 L 533 355.5 L 533 364.5 L 532 365.5 L 532 375.5 Q 530 376.5 531 380.5 L 527 392.5 Q 519.7 408.7 506.5 419 Q 497.8 426.3 486.5 431 L 474.5 435 L 471.5 435 Q 458.1 425.9 448 413.5 L 441 403.5 L 443.5 403 L 451.5 406 L 468.5 406 L 469.5 405 L 472.5 405 L 478.5 403 L 484.5 400 Q 492.3 395.3 498 388.5 L 503 381.5 L 510 364.5 L 511 355.5 L 512 354.5 L 512 349.5 L 513 348.5 L 513 343.5 L 514 342.5 L 514 337.5 L 515 336.5 L 515 332.5 L 516 331.5 L 518 321.5 L 523 310.5 L 527 304.5 L 534.5 297 L 545.5 291 L 551.5 289 L 556.5 289 L 557.5 288 Z " /><path fill="rgb(0,0,0)" stroke="rgb(0,0,0)" stroke-width="1" opacity="0.00392156862745098" d="M 116.5 292 L 118 292.5 L 117 307.5 L 114.5 312 Q 109.8 312.8 109 309.5 L 108 306.5 L 108 300.5 L 109 297.5 L 113.5 293 L 116.5 292 Z " /><path fill="rgb(0,0,0)" stroke="rgb(0,0,0)" stroke-width="1" opacity="0.00392156862745098" d="M 561.5 296 L 568.5 296 L 576 299.5 L 574.5 300 L 570.5 298 L 563.5 298 L 555.5 301 L 544.5 308 L 544 307.5 L 550.5 301 L 561.5 296 Z " /><path fill="rgb(0,0,0)" stroke="rgb(0,0,0)" stroke-width="1" opacity="0.00392156862745098" d="M 541.5 311 L 543 311.5 L 543 319.5 L 540 326.5 L 536.5 331 L 536 325.5 L 537 324.5 L 538 317.5 L 541.5 311 Z " /><path fill="rgb(0,0,0)" stroke="rgb(0,0,0)" stroke-width="1" opacity="0.00392156862745098" d="M 107.5 313 Q 112.9 312.1 115 314.5 L 113 319.5 L 113 323.5 L 112 324.5 L 112 329.5 L 111 330.5 L 110.5 336 L 107.5 336 L 103 332.5 L 101 327.5 L 101 321.5 L 103 316.5 L 105.5 314 L 107.5 313 Z " /><path fill="rgb(0,0,0)" stroke="rgb(0,0,0)" stroke-width="1" opacity="0.00392156862745098" d="M 536.5 333 L 542 337.5 L 543 340.5 L 543 349.5 L 540.5 354 L 537 355.5 L 537.5 357 L 540.5 357 L 545 361.5 L 546 364.5 L 546 372.5 L 544 377.5 L 540.5 381 L 537 382.5 L 541 385.5 L 541 394.5 L 536.5 402 L 533.5 404 L 526.5 404 Q 523.8 402.8 526 401.5 L 532 389.5 L 534 379.5 L 535 378.5 L 535 372.5 L 536 371.5 L 536 347.5 L 535 346.5 L 535 334.5 L 536.5 333 Z " /><path fill="rgb(0,0,0)" stroke="rgb(0,0,0)" stroke-width="1" opacity="0.00392156862745098" d="M 104.5 337 L 105.5 338 L 110 338.5 L 110 354.5 Q 112 355.5 111 359.5 L 106.5 360 L 102 356.5 L 100 352.5 L 100 342.5 L 104.5 337 Z " /><path fill="rgb(0,0,0)" stroke="rgb(0,0,0)" stroke-width="1" opacity="0.00392156862745098" d="M 47.5 339 L 59.5 339 L 62.5 340 Q 70.6 342.9 75 349.5 L 79 357.5 Q 78.3 360.8 80 361.5 L 80 368.5 Q 78.3 369.3 79 372.5 L 74.5 380 L 75 378.5 L 77 373.5 L 77 362.5 L 74 355.5 L 67.5 349 L 61.5 346 L 53.5 345 L 42.5 349 L 36 354.5 L 30 364.5 L 29 373.5 L 28 374.5 L 28 381.5 L 29 382.5 L 29 388.5 L 30 389.5 L 31 396.5 L 38 411.5 Q 43.6 420.9 51.5 428 L 65.5 438 L 82.5 445 L 90.5 446 L 91.5 447 L 97.5 447 L 98.5 448 L 121.5 448 L 122.5 447 L 130.5 447 L 131.5 446 L 141.5 445 L 142.5 444 L 153.5 442 L 171.5 436 L 193.5 424 L 214 406.5 L 249.5 365 L 253.5 362 L 257.5 362 L 258.5 363 L 261.5 363 L 262.5 364 L 265.5 364 L 266.5 365 L 274 366.5 L 265 377.5 L 258 389.5 L 256 395.5 L 256 399.5 L 255 400.5 L 255 406.5 L 254 407.5 L 253 419.5 L 251 423.5 L 241.5 433 L 225.5 445 L 211.5 452 L 202.5 455 L 199.5 455 L 194.5 457 L 189.5 457 L 188.5 458 L 174.5 459 L 173.5 460 L 166.5 460 L 165.5 461 L 158.5 461 L 157.5 462 L 143.5 463 L 142.5 464 L 136.5 464 L 135.5 465 L 127.5 465 L 126.5 466 L 111.5 466 L 109.5 467 L 108.5 466 L 94.5 466 Q 93.3 463.7 88.5 465 L 87.5 464 L 76.5 462 L 70.5 459 L 68.5 459 Q 48.7 450.3 36 434.5 L 29 424.5 L 20 404.5 L 19 395.5 L 18 394.5 L 18 372.5 L 23 358.5 L 27 352.5 L 33.5 346 L 37.5 343 L 47.5 339 Z " /><path fill="rgb(0,0,0)" stroke="rgb(0,0,0)" stroke-width="1" opacity="0.00392156862745098" d="M 584.5 351 L 595.5 351 Q 596.3 352.8 599.5 352 Q 607.8 356.2 613 363.5 L 618 373.5 L 618 376.5 L 620 381.5 L 620 390.5 Q 622 391.5 621 395.5 L 620 396.5 L 620 404.5 Q 618 405.5 619 409.5 L 618 410.5 L 618 413.5 L 615 422.5 Q 607 440 593.5 452 L 584.5 459 L 567.5 468 L 558.5 471 L 551.5 472 L 550.5 473 L 545.5 473 L 544.5 474 L 524.5 475 L 523.5 474 L 509.5 474 L 508.5 473 L 501.5 473 L 500.5 472 L 489.5 471 L 484.5 469 L 480.5 469 L 479.5 468 L 472.5 467 L 457.5 462 L 454.5 460 L 452.5 460 L 429.5 447 Q 416.9 438.1 407 426.5 L 404 417.5 L 402 414.5 L 402 412.5 L 400 409.5 L 400 407.5 L 398 404.5 L 398 402.5 L 391 388.5 Q 385.4 379.1 377.5 372 L 372 367.5 L 372.5 366 L 376.5 366 L 377.5 365 L 381.5 365 L 387.5 363 L 392.5 363 L 393.5 362 L 398.5 362 Q 411.4 368.6 420 379.5 L 443 412.5 L 458.5 429 L 481.5 445 L 495.5 451 L 498.5 451 L 502.5 453 L 510.5 454 L 511.5 455 L 517.5 455 L 518.5 456 L 541.5 456 L 542.5 455 L 551.5 454 L 571.5 446 Q 582.8 439.3 591 429.5 L 600 416.5 L 604 407.5 L 606 401.5 L 606 398.5 L 607 397.5 L 607 389.5 L 608 386.5 L 607 385.5 L 607 378.5 Q 605.3 377.8 606 374.5 L 602 366.5 L 595.5 360 L 587.5 356 L 581.5 356 Q 580.8 354.3 577.5 355 L 575.5 356 Q 574 355 576.5 354 L 584.5 351 Z " /><path fill="rgb(0,0,0)" stroke="rgb(0,0,0)" stroke-width="1" opacity="0.00392156862745098" d="M 110.5 361 L 112 362.5 L 112 365.5 L 115 374.5 L 120 384.5 Q 129.1 399.4 142.5 410 L 149.5 415 L 163.5 422 L 179 426.5 L 172.5 430 L 166.5 432 L 162.5 432 L 157 427.5 L 155.5 420 Q 153.8 422.8 149.5 423 L 142.5 420 L 138 416.5 L 135 411.5 L 134.5 407 L 129.5 407 L 125.5 405 L 119 398.5 L 117 395.5 L 116 389.5 L 118.5 386 L 120 385.5 L 114.5 385 L 107 379.5 L 104 374.5 Q 105 370.5 103 369.5 L 105.5 363 L 110.5 361 Z " /><path fill="rgb(0,0,0)" stroke="rgb(0,0,0)" stroke-width="1" opacity="0.00392156862745098" d="M 617.5 363 L 623 369.5 L 626 375.5 L 627 381.5 Q 626.5 383.5 623.5 383 L 622 374.5 L 617 363.5 L 617.5 363 Z " /><path fill="rgb(0,0,0)" stroke="rgb(0,0,0)" stroke-width="1" opacity="0.00392156862745098" d="M 14.5 367 L 15 371.5 L 14 372.5 L 14 378.5 L 13 379.5 L 12.5 386 L 9 384.5 L 9 376.5 L 14.5 367 Z " /><path fill="rgb(0,0,0)" stroke="rgb(0,0,0)" stroke-width="1" opacity="0.00392156862745098" d="M 278.5 367 L 281.5 368 L 286.5 368 L 287.5 369 L 310 370.5 L 303 391.5 L 303 398.5 Q 301 399.5 302 403.5 L 303 404.5 L 303 412.5 L 304 413.5 L 305 422.5 L 301 431.5 L 300 436.5 L 297 441.5 L 297 443.5 L 287 462.5 Q 277.6 477.6 264.5 489 L 255.5 496 L 242.5 504 L 225.5 512 L 217.5 514 L 214.5 516 L 181.5 527 L 167.5 535 L 162 540.5 L 158 548.5 L 158 557.5 L 160 562.5 L 167.5 570 L 176.5 575 L 178.5 575 L 184.5 578 Q 188.5 577 189.5 579 L 199.5 579 L 200.5 578 L 204.5 578 L 207.5 576 L 209.5 576 L 210 577.5 L 206.5 583 L 197.5 586 L 192.5 586 L 191.5 587 L 177.5 587 L 176.5 586 L 167.5 585 L 150.5 578 Q 140.7 572.3 134 563.5 L 128 551.5 Q 128.8 548.3 127 547.5 L 127 541.5 L 131 530.5 L 142.5 518 L 158.5 507 L 174.5 499 L 176.5 499 L 181.5 496 L 196.5 491 L 220.5 480 L 232.5 472 L 240 464.5 L 247 454.5 L 253 440.5 L 253 437.5 L 256 428.5 L 257 414.5 L 258 413.5 L 258 402.5 L 259 401.5 L 259 395.5 L 261 389.5 Q 267.1 375.6 278.5 367 Z " /><path fill="rgb(0,0,0)" stroke="rgb(0,0,0)" stroke-width="1" opacity="0.00392156862745098" d="M 364.5 367 L 369.5 369 L 381 380.5 L 393 399.5 L 393 401.5 L 397 408.5 L 397 410.5 L 399 413.5 L 403 425.5 L 411 441.5 Q 426.3 466.2 447.5 485 L 451.5 488 L 469.5 496 L 477.5 497 L 478.5 498 L 485.5 498 L 486.5 499 L 496.5 499 L 497.5 498 L 504.5 498 Q 505.3 496.3 508.5 497 L 515.5 494 L 519.5 496 L 529.5 496 L 535.5 494 L 537.5 492 L 539.5 492 L 547 495.5 L 538.5 504 L 532.5 508 L 521.5 513 L 512.5 516 L 505.5 517 L 504.5 518 L 500.5 518 L 499.5 519 L 475.5 521 L 474.5 520 L 462.5 520 Q 461.3 517.8 456.5 519 L 455.5 518 L 448.5 517 L 439.5 514 L 436.5 512 L 434.5 512 L 422.5 506 L 409.5 497 L 390 478.5 L 374 456.5 L 367 442.5 L 367 440.5 L 365 437.5 L 362 428.5 L 362 424.5 L 361 423.5 L 359 409.5 L 358 408.5 L 358 405.5 L 355 396.5 L 348 382.5 L 338 370.5 L 340.5 369 L 351.5 369 L 352.5 368 L 363.5 368 L 364.5 367 Z " /><path fill="rgb(0,0,0)" stroke="rgb(0,0,0)" stroke-width="1" opacity="0.00392156862745098" d="M 314.5 370 L 332.5 370 L 340 377.5 L 348 389.5 L 353 400.5 L 353 403.5 L 357 415.5 L 358 424.5 L 359 425.5 L 359 432.5 L 356 440.5 L 354 451.5 L 352 455.5 Q 353.2 460.2 351 461.5 L 351 474.5 L 352 475.5 L 353 482.5 L 358 492.5 L 374.5 510 L 421.5 541 L 436 554.5 Q 441.9 561.1 445 570.5 L 445 582.5 Q 440.3 594.8 430.5 602 L 418.5 609 L 411.5 611 L 411 609.5 L 413 604.5 L 413 591.5 L 407 577.5 L 391.5 561 L 375.5 549 L 346.5 530 L 331 515.5 L 325 507.5 L 318 494.5 L 314 482.5 L 314 479.5 L 313 478.5 Q 314.3 473.7 312 472.5 L 312 460.5 L 311 459.5 L 311 438.5 L 310 437.5 L 310 430.5 L 309 429.5 L 309 423.5 L 308 422.5 L 307 410.5 L 306 409.5 L 306 393.5 L 307 392.5 L 307 388.5 L 310 379.5 L 314.5 370 Z " /><path fill="rgb(0,0,0)" stroke="rgb(0,0,0)" stroke-width="1" opacity="0.00392156862745098" d="M 624.5 386 L 628.5 386 L 633 389.5 L 635 394.5 L 635 404.5 L 630.5 411 Q 628 413 622.5 412 L 622 408.5 L 623 407.5 Q 621.8 402.8 624 401.5 L 624.5 386 Z " /><path fill="rgb(0,0,0)" stroke="rgb(0,0,0)" stroke-width="1" opacity="0.00392156862745098" d="M 11.5 388 L 14 389.5 L 15 400.5 L 16 401.5 L 16 404.5 L 19 413.5 L 28 430.5 L 40.5 445 L 54.5 456 L 68.5 463 L 80.5 467 L 89.5 468 L 90.5 469 L 98.5 469 L 99.5 470 L 118.5 470 L 119.5 469 L 130.5 469 L 131.5 468 L 145.5 467 L 145.5 468 L 123.5 480 L 117.5 480 L 111.5 476 L 109.5 476 L 103.5 480 L 90.5 480 L 83 475.5 L 80.5 470 L 75.5 474 L 72.5 475 L 67.5 475 L 58.5 471 L 56 468.5 L 54 464.5 L 54 461.5 L 55 458.5 L 53.5 458 L 50.5 460 L 41.5 460 L 38.5 459 L 32 452.5 L 30 448.5 L 30 444.5 L 32 441.5 L 21.5 440 L 14 433.5 L 11 427.5 L 11 420.5 L 12 417.5 L 15.5 414 L 18 413.5 L 14.5 413 Q 13.5 415 9.5 414 L 5 406.5 L 5 394.5 L 9.5 389 L 11.5 388 Z " /><path fill="rgb(0,0,0)" stroke="rgb(0,0,0)" stroke-width="1" opacity="0.00392156862745098" d="M 524.5 404 L 529 409.5 L 529 413.5 Q 526 421 519.5 425 L 515.5 427 L 511.5 427 L 509 421.5 Q 518.3 414.3 524.5 404 Z " /><path fill="rgb(0,0,0)" stroke="rgb(0,0,0)" stroke-width="1" opacity="0.00392156862745098" d="M 639.5 405 L 640 634.5 L 413.5 635 L 413.5 634 Q 418.1 634.6 419.5 632 L 426.5 632 L 427.5 631 L 432.5 631 L 435.5 630 Q 441.6 627.1 445.5 622 Q 456 620 462 613.5 L 468 604.5 L 469 598.5 Q 476.6 593.6 480 584.5 Q 479.3 581.3 481 580.5 L 481 572.5 L 480 571.5 L 479 565.5 L 481 562.5 L 481 551.5 Q 479.3 550.8 480 547.5 L 476 540.5 L 476 535.5 L 477.5 536 L 493.5 536 L 497.5 534 L 502.5 534 L 505.5 535 L 506.5 534 L 515.5 533 L 521.5 530 L 524.5 527 L 531.5 527 L 534.5 525 L 536.5 525 L 543 520.5 L 546.5 515 L 553.5 514 L 565 503.5 L 569 495.5 L 569 490.5 L 574.5 483 L 586.5 483 Q 593 480.5 597 475.5 L 601.5 467 Q 612.9 465.9 618 458.5 L 622 450.5 L 622.5 444 Q 628.6 442.1 632 437.5 L 636 430.5 L 637 421.5 L 636 420.5 L 635 413.5 Q 638.4 410.4 639.5 405 Z " /><path fill="rgb(0,0,0)" stroke="rgb(0,0,0)" stroke-width="1" opacity="0.00392156862745098" d="M 0.5 406 L 3 413.5 L 6 416.5 L 6 426.5 Q 7.8 427.3 7 430.5 Q 9.6 437.9 15.5 442 L 25 446.5 Q 26.6 457.4 34.5 462 L 40.5 465 L 47.5 465 L 50 467.5 Q 51.4 473.6 56.5 476 L 66.5 480 L 73.5 480 L 78.5 478 Q 81.3 482.2 86.5 484 L 89.5 485 L 94.5 485 L 95.5 486 L 101.5 486 L 108.5 483 L 111.5 483 L 115 484.5 L 109 492.5 L 107 497.5 L 107 500.5 L 99 510.5 L 98 517.5 L 97 518.5 L 97 523.5 L 99 528.5 L 96 533.5 Q 96.8 536.8 95 537.5 L 95 544.5 L 98 552.5 L 103 558.5 L 103 566.5 L 106 572.5 L 113.5 580 L 122 583.5 L 123 586.5 L 129.5 593 L 140.5 597 L 146.5 597 L 153.5 602 Q 156.8 601.3 157.5 603 L 167.5 603 L 170.5 602 L 171.5 603 L 186.5 603 L 195.5 600 L 202.5 596 L 213 585.5 L 218 574.5 L 219 566.5 L 216.5 563 Q 211.8 562.3 211 565.5 L 207.5 570 L 201.5 573 L 188.5 573 L 187.5 572 L 181.5 571 L 171.5 566 L 165 559.5 L 163 554.5 L 163 551.5 L 165 546.5 L 170.5 540 L 176.5 536 L 187.5 531 L 207.5 525 L 210.5 523 L 215.5 522 L 218.5 520 L 223.5 519 L 233.5 514 L 235.5 514 L 248.5 507 L 265.5 495 L 268.5 495 L 279 500.5 Q 281 512.5 289.5 518 L 297 521.5 L 299 528.5 L 304 536.5 L 304 538.5 L 306 541.5 L 309 550.5 Q 308 554.5 310 555.5 L 310 570.5 L 309 571.5 L 309 574.5 L 307 580.5 L 303 588.5 Q 297.7 597.7 289.5 604 L 275.5 611 Q 271.5 610 270.5 612 L 260.5 612 L 251.5 609 L 244.5 603 L 241.5 603 Q 239 604 240 608.5 Q 244.2 619.8 253.5 626 L 264.5 632 L 270.5 633 L 271.5 634 L 279 634.5 L 0.5 635 L 0.5 406 Z " /><path fill="rgb(0,0,0)" stroke="rgb(0,0,0)" stroke-width="1" opacity="0.00392156862745098" d="M 621.5 414 Q 628 413 630 416.5 L 632 420.5 L 632 426.5 L 629 433.5 L 624.5 438 Q 621.7 440.2 615.5 439 L 612.5 438 L 612 438.5 L 617 443.5 L 617 450.5 Q 615 456 610.5 459 L 607.5 461 L 598.5 462 L 592 457.5 L 603 447.5 L 610.5 438 L 612 437.5 Q 609.5 436 613 434.5 Q 613.8 429.8 617 427.5 L 621.5 414 Z " /><path fill="rgb(0,0,0)" stroke="rgb(0,0,0)" stroke-width="1" opacity="0.00392156862745098" d="M 507.5 422 L 510 427.5 L 510 430.5 L 509 433.5 L 503.5 439 L 495.5 443 L 490.5 443 L 480 437.5 L 480.5 436 L 485.5 435 L 496.5 430 L 507.5 422 Z " /><path fill="rgb(0,0,0)" stroke="rgb(0,0,0)" stroke-width="1" opacity="0.00392156862745098" d="M 250.5 428 L 251 429.5 L 250 430.5 L 250 433.5 L 247 442.5 L 244 448.5 L 238.5 454 L 230.5 460 L 216.5 467 L 210.5 469 L 207.5 469 L 206.5 470 L 203.5 470 L 202.5 471 L 199.5 471 L 198.5 472 L 194.5 472 L 193.5 473 L 189.5 473 L 188.5 474 L 184.5 474 L 183.5 475 L 172.5 477 L 163.5 481 L 161.5 481 L 156.5 484 L 154.5 484 L 133.5 497 L 121 509.5 L 117 515.5 L 112 527.5 Q 113.3 532.3 111 533.5 L 111 541.5 L 112 542.5 L 112 547.5 L 115 556.5 L 119 564.5 Q 124.5 573.5 132.5 580 L 141.5 586 L 153.5 591 L 156.5 591 L 161.5 593 L 167.5 593 L 168.5 594 L 181.5 594 L 182.5 593 L 191.5 592 L 201.5 588 L 202 588.5 L 199.5 591 L 192.5 595 L 186.5 597 Q 183.3 596.3 182.5 598 L 172.5 598 Q 171 594.5 169.5 597 L 167.5 598 L 158.5 598 L 153.5 596 L 150 592.5 L 149.5 590 L 145.5 592 L 140.5 592 L 131.5 588 L 128 584.5 L 127 579.5 L 125.5 578 Q 114.8 577.8 111 570.5 L 108 564.5 L 108 559.5 L 109 556.5 Q 103.5 553 101 546.5 L 100 543.5 L 100 537.5 L 101 534.5 L 104.5 531 L 106 530.5 Q 102.3 526.7 102 519.5 L 103 518.5 L 104 512.5 L 108.5 507 L 112 504.5 L 112 499.5 L 114 494.5 L 120.5 488 L 155.5 465 Q 158.8 465.8 159.5 464 L 166.5 464 L 167.5 463 L 175.5 463 L 176.5 462 L 183.5 462 L 184.5 461 Q 189.3 462.2 190.5 460 L 195.5 460 L 196.5 459 L 203.5 458 L 212.5 455 L 215.5 453 L 217.5 453 L 236.5 441 L 250.5 428 Z " /><path fill="rgb(0,0,0)" stroke="rgb(0,0,0)" stroke-width="1" opacity="0.00392156862745098" d="M 305.5 431 L 307 431.5 L 307 443.5 Q 308.8 444.3 308 447.5 L 305.5 448 L 304.5 447 L 300 446.5 L 303 437.5 L 305 434.5 L 305.5 431 Z " /><path fill="rgb(0,0,0)" stroke="rgb(0,0,0)" stroke-width="1" opacity="0.00392156862745098" d="M 361.5 436 L 365 446.5 L 371 458.5 L 384 476.5 L 381.5 477 L 380.5 476 L 377.5 476 L 368.5 473 L 355 465.5 L 356 452.5 L 360 440.5 L 360 437.5 L 361.5 436 Z " /><path fill="rgb(0,0,0)" stroke="rgb(0,0,0)" stroke-width="1" opacity="0.00392156862745098" d="M 412.5 436 L 427.5 449 L 438.5 456 L 452 462.5 L 445.5 468 L 442.5 469 L 435.5 469 L 423 454.5 L 412 437.5 L 412.5 436 Z " /><path fill="rgb(0,0,0)" stroke="rgb(0,0,0)" stroke-width="1" opacity="0.00392156862745098" d="M 299.5 449 L 304.5 449 L 308 450.5 L 307.5 472 L 303.5 470 L 295 461.5 L 294 458.5 L 299.5 449 Z " /><path fill="rgb(0,0,0)" stroke="rgb(0,0,0)" stroke-width="1" opacity="0.00392156862745098" d="M 589.5 459 Q 593.5 458.5 594 461.5 L 596 464.5 L 596 467.5 L 595 470.5 L 589.5 476 L 585.5 478 L 575.5 478 L 571.5 476 Q 569.3 483.3 563.5 487 L 556.5 490 L 548.5 490 Q 543.7 488.3 541 484.5 L 539.5 482 L 533.5 489 L 528.5 491 L 520.5 491 L 515.5 489 L 511 484.5 L 509.5 479 L 508 479.5 L 508 481.5 L 503.5 486 L 501.5 487 L 491.5 487 L 478.5 482 L 472.5 476 L 469.5 480 L 467.5 481 L 457.5 476 L 452 470.5 L 452 467.5 L 454.5 464 L 469.5 469 L 472.5 469 L 476.5 471 L 479.5 471 L 484.5 473 L 488.5 473 L 493.5 475 L 497.5 475 L 498.5 476 L 504.5 476 L 505.5 477 L 514.5 477 L 515.5 478 L 537.5 478 L 538.5 477 L 546.5 477 Q 547.8 474.8 552.5 476 L 553.5 475 L 556.5 475 L 557.5 474 L 560.5 474 L 569.5 471 L 576.5 468 L 589.5 459 Z " /><path fill="rgb(0,0,0)" stroke="rgb(0,0,0)" stroke-width="1" opacity="0.00392156862745098" d="M 234.5 460 L 235 461.5 L 218.5 474 L 204.5 481 L 202.5 481 L 197.5 484 L 195.5 484 L 182.5 490 L 180.5 490 L 159.5 500 L 143.5 511 L 132 522.5 L 125 535.5 Q 125.8 538.8 124 539.5 L 124 548.5 L 129 561.5 L 138.5 573 Q 146.6 580.4 157.5 585 L 166.5 588 L 169.5 588 L 170.5 589 L 177.5 589 L 178.5 590 L 183 590.5 L 171.5 591 L 170.5 590 L 162.5 590 L 161.5 589 L 154.5 588 L 146.5 584 L 144.5 584 L 136.5 579 L 125 567.5 L 121 561.5 L 116 549.5 Q 116.8 546.3 115 545.5 L 115 529.5 L 117 523.5 L 123 512.5 L 136.5 499 L 146.5 492 L 165.5 483 L 174.5 480 L 177.5 480 L 181.5 478 L 184.5 478 L 185.5 477 L 189.5 477 L 194.5 475 L 198.5 475 L 199.5 474 L 203.5 474 L 204.5 473 L 211.5 472 L 229.5 464 L 234.5 460 Z " /><path fill="rgb(0,0,0)" stroke="rgb(0,0,0)" stroke-width="1" opacity="0.00392156862745098" d="M 292.5 463 Q 298.8 470.8 308 475.5 L 310 488.5 L 315 501.5 L 325 516.5 L 337 529.5 Q 335.7 534.3 338 535.5 L 338 549.5 L 337 550.5 L 337 556.5 L 336 557.5 L 336 560.5 L 335 561.5 L 335 564.5 L 332 573.5 L 325 587.5 L 316 600.5 L 307.5 609 L 299.5 615 L 289.5 620 L 283.5 621 L 282.5 622 L 277.5 622 L 276.5 623 L 268.5 623 L 267.5 622 L 263.5 622 L 257.5 620 L 252 615.5 L 253.5 616 L 256.5 617 L 261.5 617 L 262.5 618 L 268.5 618 L 269.5 617 L 275.5 617 L 286.5 613 Q 296.3 607.3 303 598.5 Q 309.8 589.3 314 577.5 L 314 574.5 L 316 569.5 L 316 563.5 L 317 562.5 L 317 548.5 L 316 547.5 L 316 541.5 L 315 540.5 L 314 533.5 L 311 524.5 L 308 519.5 L 308 517.5 L 298 499.5 L 283 477.5 L 292.5 463 Z " /><path fill="rgb(0,0,0)" stroke="rgb(0,0,0)" stroke-width="1" opacity="0.00392156862745098" d="M 356.5 471 L 372.5 478 L 387.5 481 L 390 483.5 L 400.5 495 L 420.5 510 L 431.5 516 L 443.5 520 L 449 525.5 L 453 531.5 L 459 545.5 L 460 555.5 L 461 556.5 L 461 567.5 L 460 568.5 L 460 574.5 L 459 575.5 L 458 582.5 L 451 597.5 L 437.5 612 L 433.5 615 L 420.5 621 Q 417.2 620.3 416.5 622 L 400.5 622 L 391.5 618 L 385 611.5 L 383 607.5 Q 384.3 602.8 382 601.5 L 385 593.5 L 388.5 590 L 395.5 587 L 396 587.5 L 391 592.5 L 389 597.5 L 389 601.5 L 391 606.5 L 396.5 612 L 404.5 615 L 411.5 615 L 412.5 614 L 416.5 614 L 422.5 611 L 424.5 611 L 434.5 604 L 440 598.5 L 444 593.5 L 449 582.5 L 449 570.5 L 447 564.5 L 441 554.5 L 441 552.5 L 435 541.5 Q 428.6 531.4 419.5 524 L 383.5 501 L 370.5 491 L 357 477.5 L 356.5 471 Z " /><path fill="rgb(0,0,0)" stroke="rgb(0,0,0)" stroke-width="1" opacity="0.00392156862745098" d="M 280.5 481 L 283 482.5 L 295 500.5 L 306 520.5 L 306 522.5 L 308 525.5 L 311 534.5 L 313 544.5 L 312 544.5 L 310 537.5 L 302 521.5 L 303 518.5 L 299.5 516 L 293.5 514 L 289 510.5 Q 285.2 506.8 284 500.5 L 285 497.5 L 272 490.5 L 280.5 481 Z " /><path fill="rgb(0,0,0)" stroke="rgb(0,0,0)" stroke-width="1" opacity="0.00392156862745098" d="M 361.5 486 L 371.5 496 L 383.5 505 L 415.5 525 L 425 533.5 L 432 543.5 L 431.5 544 L 428.5 541 Q 417.3 534.7 408.5 526 L 383.5 510 Q 373.7 503.3 366 494.5 L 361 487.5 L 361.5 486 Z " /><path fill="rgb(0,0,0)" stroke="rgb(0,0,0)" stroke-width="1" opacity="0.00392156862745098" d="M 472.5 486 L 480.5 490 L 482.5 490 L 484 491.5 L 482.5 491 L 473.5 490 L 467 487.5 L 471.5 487 L 472.5 486 Z " /><path fill="rgb(0,0,0)" stroke="rgb(0,0,0)" stroke-width="1" opacity="0.00392156862745098" d="M 559.5 494 L 563 494.5 L 561 499.5 L 552.5 508 L 548.5 510 L 544.5 510 L 541.5 509 L 541 514.5 L 536.5 519 L 529.5 522 L 525.5 522 L 522.5 520 L 519.5 525 L 509.5 529 L 499.5 529 L 496.5 527 L 493.5 530 L 490.5 531 L 481.5 531 L 480.5 530 L 474.5 530 L 472 527.5 L 471 525.5 L 490.5 525 L 491.5 524 L 497.5 524 L 498.5 523 L 502.5 523 L 503.5 522 L 511.5 521 L 523.5 517 L 535.5 511 L 548 500.5 L 551.5 496 L 555.5 496 L 559.5 494 Z " /><path fill="rgb(0,0,0)" stroke="rgb(0,0,0)" stroke-width="1" opacity="0.00392156862745098" d="M 449.5 522 L 461.5 524 L 465 526.5 L 470 534.5 L 470.5 543 L 473 544.5 L 476 552.5 L 476 560.5 L 475 563.5 L 472 566.5 Q 476.5 570 476 578.5 L 472 588.5 L 467.5 593 L 464 594.5 Q 465.2 600.7 463 603.5 L 454.5 613 L 448.5 616 L 442.5 616 L 440 618.5 L 436.5 623 L 433.5 625 L 425.5 627 L 419.5 625 L 413.5 629 L 404.5 629 L 398.5 625 L 395.5 625 L 393.5 626 Q 388.7 624.3 386 620.5 L 381 610.5 Q 382 609 383 611.5 Q 384.1 616.9 388.5 619 L 397.5 624 Q 400.8 623.3 401.5 625 L 417.5 625 L 431.5 620 Q 442.3 613.8 450 604.5 L 456 595.5 L 462 580.5 Q 461 576.5 463 575.5 L 463 568.5 L 464 567.5 L 464 559.5 L 463 558.5 L 463 551.5 L 462 550.5 L 460 540.5 L 457 533.5 L 449 522.5 L 449.5 522 Z " /><path fill="rgb(0,0,0)" stroke="rgb(0,0,0)" stroke-width="1" opacity="0.00392156862745098" d="M 340.5 532 L 353 541.5 L 352 548.5 L 347.5 554 L 345 555.5 L 348 558.5 L 348 566.5 Q 346.3 567.3 347 570.5 L 342.5 578 L 338 580.5 L 339 584.5 L 336 592.5 L 328.5 601 L 323.5 602 L 322 603.5 L 321 608.5 L 313.5 617 L 306.5 621 L 301.5 621 Q 298.3 625.8 292.5 628 Q 288.5 627 287.5 629 L 275.5 629 L 274.5 628 L 266.5 627 L 265 625.5 L 266.5 625 L 267.5 626 L 278.5 626 L 279.5 625 L 283.5 625 L 284.5 624 L 290.5 623 L 300.5 618 Q 312.4 610.4 321 599.5 L 329 587.5 L 334 577.5 L 338 565.5 L 339 557.5 L 340 556.5 L 340 549.5 L 341 548.5 L 341 533.5 L 340.5 532 Z " /><path fill="rgb(0,0,0)" stroke="rgb(0,0,0)" stroke-width="1" opacity="0.00392156862745098" d="M 358.5 545 L 386.5 564 L 400 577.5 L 403 582.5 L 401.5 582 L 392.5 582 L 389.5 583 Q 383.3 585.3 380 590.5 L 376 598.5 L 375 607.5 L 376 608.5 L 377 615.5 L 380 621.5 L 386.5 628 L 389.5 630 L 392.5 631 L 397.5 631 Q 400.2 634.2 406 634.5 L 285.5 635 L 285.5 634 L 291.5 634 L 297.5 632 L 303.5 627 L 310.5 625 L 315.5 622 L 324 613.5 L 327.5 607 L 330.5 606 L 339 597.5 L 343 589.5 L 344 583.5 L 351 573.5 L 352 567.5 L 353 566.5 L 353 556.5 L 356 552.5 L 358.5 545 Z " /><path fill="rgb(0,0,0)" stroke="rgb(0,0,0)" stroke-width="1" opacity="0.00392156862745098" d="M 397.5 593 Q 404 592 406 595.5 L 406 605.5 L 404.5 609 Q 397.2 608.8 395 603.5 L 394 597.5 L 397.5 593 Z " /></svg>