<svg viewBox="0 0 640 320" version="1.1" xmlns="http://www.w3.org/2000/svg" desc="Created with imagetracer.js version 1.2.6" ><path fill="rgb(0,0,0)" stroke="rgb(0,0,0)" stroke-width="1" opacity="0" d="M 0.5 0 L 640 0.5 L 639.5 129 L 621 129.5 L 640 130.5 L 639.5 132 L 622 132.5 L 621.5 134 L 618.5 128 L 437 128.5 L 434 138.5 L 441 139.5 L 442 141.5 L 440 142.5 L 441.5 144 L 443 143.5 Q 440.8 144.8 443.5 146 L 444.5 144 L 446.5 146 L 457.5 146 L 458.5 145 L 467.5 144 L 468.5 143 L 471.5 143 L 480.5 140 L 606.5 140 L 617 147.5 L 615.5 147 L 614.5 148 L 577 148.5 L 617 149.5 L 576.5 150 L 573.5 147 L 106 146.5 L 105.5 145 Q 102.3 144.3 101.5 146 L 88.5 146 L 87.5 147 L 73.5 147 L 72.5 148 L 66.5 148 L 65.5 149 L 60.5 149 L 54.5 151 L 44.5 152 L 43.5 153 L 40.5 153 L 39.5 154 L 36.5 154 L 35.5 155 L 32.5 155 L 28.5 157 L 21 158.5 Q 21.5 161.5 19.5 162 L 18 161.5 L 17.5 164 L 16.5 162 L 15 162.5 L 13.5 165 L 8.5 166 L 8.5 165 L 12 164.5 L 6.5 164 L 2 165.5 L 1.5 168 L 0 167.5 L 0.5 0 Z M 439 126 L 439 127 L 619 127 L 439 126 Z M 436 140 L 435 144 L 436 144 L 436 140 Z M 467 145 L 467 146 L 469 146 L 467 145 Z M 568 145 L 568 146 L 574 146 L 568 145 Z " /><path fill="rgb(0,0,0)" stroke="rgb(0,0,0)" stroke-width="1" opacity="0" d="M 623.5 133 L 640 133.5 L 639.5 135 L 623 135.5 L 640 136.5 L 624 137.5 L 640 138.5 L 639.5 140 L 625.5 140 L 624.5 139 L 623 139.5 L 622 135.5 L 623.5 133 Z " /><path fill="rgb(0,0,0)" stroke="rgb(0,0,0)" stroke-width="1" opacity="0" d="M 624.5 141 L 640 141.5 L 639.5 143 L 626.5 143 L 625.5 142 L 624 142.5 L 624.5 141 Z " /><path fill="rgb(0,0,0)" stroke="rgb(0,0,0)" stroke-width="1" opacity="0" d="M 625.5 144 L 640 144.5 L 639.5 146 L 627 146.5 L 640 147.5 L 628 148.5 L 640 149.5 L 639.5 151 L 629 151.5 L 640 152.5 L 639.5 154 L 630.5 154 L 629.5 153 L 628 153.5 L 625 144.5 L 625.5 144 Z " /><path fill="rgb(0,0,0)" stroke="rgb(0,0,0)" stroke-width="1" opacity="0" d="M 92.5 147 L 100 147.5 L 92.5 148 L 92.5 147 Z " /><path fill="rgb(0,0,0)" stroke="rgb(0,0,0)" stroke-width="1" opacity="0" d="M 78.5 148 L 86 148.5 L 78.5 149 L 78.5 148 Z " /><path fill="rgb(0,0,0)" stroke="rgb(0,0,0)" stroke-width="1" opacity="0" d="M 68.5 149 L 72 149.5 L 68.5 150 L 68.5 149 Z " /><path fill="rgb(0,0,0)" stroke="rgb(0,0,0)" stroke-width="1" opacity="0" d="M 62.5 150 L 65 150.5 L 62.5 151 L 62.5 150 Z " /><path fill="rgb(0,0,0)" stroke="rgb(0,0,0)" stroke-width="1" opacity="0" d="M 57.5 151 L 60 151.5 L 57.5 152 L 57.5 151 Z " /><path fill="rgb(0,0,0)" stroke="rgb(0,0,0)" stroke-width="1" opacity="0" d="M 51.5 152 L 54 152.5 L 51.5 153 L 51.5 152 Z " /><path fill="rgb(0,0,0)" stroke="rgb(0,0,0)" stroke-width="1" opacity="0" d="M 46.5 153 L 49 153.5 L 46.5 154 L 46.5 153 Z " /><path fill="rgb(0,0,0)" stroke="rgb(0,0,0)" stroke-width="1" opacity="0" d="M 41.5 154 L 44 154.5 L 41.5 155 L 41.5 154 Z " /><path fill="rgb(0,0,0)" stroke="rgb(0,0,0)" stroke-width="1" opacity="0" d="M 629.5 155 L 640 155.5 L 639.5 159 L 632 159.5 L 631.5 162 L 629 155.5 L 629.5 155 Z " /><path fill="rgb(0,0,0)" stroke="rgb(0,0,0)" stroke-width="1" opacity="0" d="M 22.5 159 L 25 159.5 L 22.5 160 L 22.5 159 Z " /><path fill="rgb(0,0,0)" stroke="rgb(0,0,0)" stroke-width="1" opacity="0" d="M 633.5 160 L 640 160.5 L 639.5 162 L 633 161.5 L 633.5 160 Z " /><path fill="rgb(0,0,0)" stroke="rgb(0,0,0)" stroke-width="1" opacity="0" d="M 632.5 163 L 640 163.5 L 639.5 165 L 632 164.5 L 632.5 163 Z " /><path fill="rgb(0,0,0)" stroke="rgb(0,0,0)" stroke-width="1" opacity="0" d="M 3.5 166 L 6 166.5 L 3.5 167 L 3.5 166 Z " /><path fill="rgb(0,0,0)" stroke="rgb(0,0,0)" stroke-width="1" opacity="0" d="M 635.5 166 L 640 166.5 L 639.5 170 L 636 169.5 L 635.5 168 L 634.5 170 L 634 168.5 L 635.5 166 Z " /><path fill="rgb(0,0,0)" stroke="rgb(0,0,0)" stroke-width="1" opacity="0" d="M 0.5 171 L 6 172.5 L 2 173.5 L 6 174.5 L 6.5 183 L 9 182.5 L 9.5 175 L 12 174.5 L 9 173.5 L 11.5 173 L 12.5 174 L 18.5 175 L 20 176.5 L 20.5 178 L 26 179.5 L 22 180.5 L 22.5 183 L 23.5 181 L 26 181.5 L 26.5 183 L 27.5 180 L 33 181.5 L 30 182.5 L 33 183.5 L 33.5 185 L 36.5 184 L 38 184.5 L 38.5 183 L 45 184.5 L 41 185.5 L 41.5 187 Q 42.3 185.3 45.5 186 L 47 186.5 L 47.5 185 L 56 186.5 L 51 187.5 L 55.5 188 L 56.5 189 L 61.5 189 L 62.5 190 L 66.5 190 L 67.5 191 Q 68.8 187.8 74.5 189 L 75.5 190 L 90 190.5 L 77 191.5 L 90.5 192 L 91.5 193 L 104.5 193 L 105.5 194 L 107.5 193 L 108.5 194 L 196.5 194 Q 197.5 192 198.5 194 L 591.5 194 L 592.5 193 L 631 192.5 L 593 191.5 L 594 189.5 L 592 188.5 L 629.5 188 L 631.5 190 L 638.5 190 L 640 189.5 L 639.5 320 L 0 319.5 L 0.5 171 Z M 596 189 Q 593 190 595 191 L 631 191 Q 630 188 629 190 L 628 189 L 596 189 Z " /><path fill="rgb(0,0,0)" stroke="rgb(0,0,0)" stroke-width="1" opacity="0" d="M 635.5 171 L 640 171.5 L 639.5 173 L 636.5 172 L 635 172.5 L 635.5 171 Z " /><path fill="rgb(0,0,0)" stroke="rgb(0,0,0)" stroke-width="1" opacity="0" d="M 636.5 174 L 640 174.5 L 639.5 176 L 638 176.5 L 637.5 178 L 636 175.5 L 636.5 174 Z " /><path fill="rgb(0,0,0)" stroke="rgb(0,0,0)" stroke-width="1" opacity="0" d="M 639.5 177 L 640 178.5 L 638.5 181 L 638 179.5 L 639.5 177 Z " /><path fill="rgb(0,0,0)" stroke="rgb(0,0,0)" stroke-width="1" opacity="0" d="M 58.5 187 L 61 187.5 L 58.5 188 L 58.5 187 Z " /><path fill="rgb(0,0,0)" stroke="rgb(0,0,0)" stroke-width="1" opacity="0" d="M 64.5 188 L 67 188.5 L 64.5 189 L 64.5 188 Z " /><path fill="rgb(0,0,0)" stroke="rgb(0,0,0)" stroke-width="1" opacity="0" d="M 96.5 191 L 104 191.5 L 96.5 192 L 96.5 191 Z " /><path fill="rgb(12,49,74)" stroke="rgb(12,49,74)" stroke-width="1" opacity="0.9921568627450981" d="M 435.5 135 L 436.5 136 L 441 136.5 L 435.5 137 L 434.5 138 L 435 136.5 L 435.5 135 Z " /><path fill="rgb(12,49,74)" stroke="rgb(12,49,74)" stroke-width="1" opacity="0.9921568627450981" d="M 457.5 136 L 621 136.5 L 457.5 137 L 457.5 136 Z " /><path fill="rgb(12,49,74)" stroke="rgb(12,49,74)" stroke-width="1" opacity="0.9921568627450981" d="M 530.5 139 L 572 139.5 L 530.5 140 L 530.5 139 Z " /><path fill="rgb(12,49,74)" stroke="rgb(12,49,74)" stroke-width="1" opacity="0.9921568627450981" d="M 449.5 145 L 454 145.5 L 449.5 146 L 449.5 145 Z " /><path fill="rgb(12,49,74)" stroke="rgb(12,49,74)" stroke-width="1" opacity="0.9921568627450981" d="M 95.5 148 L 99 148.5 L 95.5 149 L 95.5 148 Z " /><path fill="rgb(12,49,74)" stroke="rgb(12,49,74)" stroke-width="1" opacity="0.9921568627450981" d="M 106.5 148 L 107 150.5 L 106 150.5 L 106.5 148 Z " /><path fill="rgb(12,49,74)" stroke="rgb(12,49,74)" stroke-width="1" opacity="0.9921568627450981" d="M 197.5 148 L 198 151.5 L 197 151.5 L 197.5 148 Z " /><path fill="rgb(12,49,74)" stroke="rgb(12,49,74)" stroke-width="1" opacity="0.9921568627450981" d="M 80.5 149 L 85 149.5 L 80.5 150 L 80.5 149 Z " /><path fill="rgb(12,49,74)" stroke="rgb(12,49,74)" stroke-width="1" opacity="0.9921568627450981" d="M 69.5 150 L 69 151.5 L 68.5 155 L 68 151.5 L 69.5 150 Z " /><path fill="rgb(12,49,74)" stroke="rgb(12,49,74)" stroke-width="1" opacity="0.9921568627450981" d="M 116.5 150 L 118 150.5 L 115.5 152 Q 114 151 116.5 150 Z " /><path fill="rgb(12,49,74)" stroke="rgb(12,49,74)" stroke-width="1" opacity="0.9921568627450981" d="M 131.5 150 Q 135.6 149.4 137 151.5 L 138 154.5 L 135.5 157 L 135 156.5 L 137 153.5 Q 136.3 150.3 131.5 151 L 130 151.5 L 131.5 150 Z " /><path fill="rgb(12,49,74)" stroke="rgb(12,49,74)" stroke-width="1" opacity="0.9921568627450981" d="M 146.5 150 Q 150.6 149.4 152 151.5 L 153 154.5 L 152 154.5 L 149.5 151 L 144.5 152 L 144.5 151 L 146.5 150 Z " /><path fill="rgb(12,49,74)" stroke="rgb(12,49,74)" stroke-width="1" opacity="0.9921568627450981" d="M 161.5 150 Q 165.6 149.4 167 151.5 L 168 154.5 L 167 154.5 L 164.5 151 L 159.5 152 L 159.5 151 L 161.5 150 Z " /><path fill="rgb(12,49,74)" stroke="rgb(12,49,74)" stroke-width="1" opacity="0.9921568627450981" d="M 176.5 150 Q 180.6 149.4 182 151.5 L 180.5 152 Q 179.7 150.3 176.5 151 L 174.5 152 L 174.5 151 L 176.5 150 Z " /><path fill="rgb(12,49,74)" stroke="rgb(12,49,74)" stroke-width="1" opacity="0.9921568627450981" d="M 121.5 151 L 123 154.5 L 120.5 157 L 120 156.5 L 122 153.5 Q 120.3 152.8 121.5 151 Z " /><path fill="rgb(12,49,74)" stroke="rgb(12,49,74)" stroke-width="1" opacity="0.9921568627450981" d="M 113.5 152 L 114 154.5 L 113 154.5 L 113.5 152 Z " /><path fill="rgb(12,49,74)" stroke="rgb(12,49,74)" stroke-width="1" opacity="0.9921568627450981" d="M 128.5 152 L 129 154.5 L 128 154.5 L 128.5 152 Z " /><path fill="rgb(12,49,74)" stroke="rgb(12,49,74)" stroke-width="1" opacity="0.9921568627450981" d="M 619.5 154 L 620 155.5 Q 619.3 157.8 615.5 157 L 615.5 156 L 619 155.5 L 619.5 154 Z " /><path fill="rgb(12,49,74)" stroke="rgb(12,49,74)" stroke-width="1" opacity="0.9921568627450981" d="M 584.5 156 L 588 156.5 L 584.5 157 L 584.5 156 Z " /><path fill="rgb(12,49,74)" stroke="rgb(12,49,74)" stroke-width="1" opacity="0.9921568627450981" d="M 594.5 156 L 609 156.5 L 594.5 157 L 594.5 156 Z " /><path fill="rgb(12,49,74)" stroke="rgb(12,49,74)" stroke-width="1" opacity="0.9921568627450981" d="M 621.5 161 Q 623 162 620.5 163 L 615 162.5 L 620.5 162 L 621.5 161 Z " /><path fill="rgb(12,49,74)" stroke="rgb(12,49,74)" stroke-width="1" opacity="0.9921568627450981" d="M 67.5 162 L 68 177.5 L 67 177.5 L 67.5 162 Z " /><path fill="rgb(12,49,74)" stroke="rgb(12,49,74)" stroke-width="1" opacity="0.9921568627450981" d="M 105.5 162 L 106 176.5 L 105 176.5 L 105.5 162 Z " /><path fill="rgb(12,49,74)" stroke="rgb(12,49,74)" stroke-width="1" opacity="0.9921568627450981" d="M 586.5 162 L 590 162.5 L 586.5 163 L 586.5 162 Z " /><path fill="rgb(12,49,74)" stroke="rgb(12,49,74)" stroke-width="1" opacity="0.9921568627450981" d="M 592.5 162 L 612 162.5 L 592.5 163 L 592.5 162 Z " /><path fill="rgb(12,49,74)" stroke="rgb(12,49,74)" stroke-width="1" opacity="0.9921568627450981" d="M 116.5 163 L 119 163.5 Q 115.2 163.7 114 166.5 L 113.5 170 L 113 166.5 L 116.5 163 Z " /><path fill="rgb(12,49,74)" stroke="rgb(12,49,74)" stroke-width="1" opacity="0.9921568627450981" d="M 131.5 163 L 134 163.5 Q 130.2 163.7 129 166.5 L 128.5 170 L 128 166.5 L 131.5 163 Z " /><path fill="rgb(12,49,74)" stroke="rgb(12,49,74)" stroke-width="1" opacity="0.9921568627450981" d="M 145.5 164 L 146 164.5 L 144 166.5 L 143.5 170 L 143 166.5 L 145.5 164 Z " /><path fill="rgb(12,49,74)" stroke="rgb(12,49,74)" stroke-width="1" opacity="0.9921568627450981" d="M 160.5 164 L 161 164.5 L 159 166.5 L 158.5 170 L 158 166.5 L 160.5 164 Z " /><path fill="rgb(12,49,74)" stroke="rgb(12,49,74)" stroke-width="1" opacity="0.9921568627450981" d="M 165.5 164 Q 168.5 164.5 168 168.5 L 167 168.5 L 167 166.5 L 165 164.5 L 165.5 164 Z " /><path fill="rgb(12,49,74)" stroke="rgb(12,49,74)" stroke-width="1" opacity="0.9921568627450981" d="M 175.5 164 L 176 164.5 L 174 166.5 L 173.5 170 L 173 166.5 L 175.5 164 Z " /><path fill="rgb(12,49,74)" stroke="rgb(12,49,74)" stroke-width="1" opacity="0.9921568627450981" d="M 180.5 164 Q 183.5 164.5 183 168.5 L 182 168.5 L 182 166.5 L 180 164.5 L 180.5 164 Z " /><path fill="rgb(12,49,74)" stroke="rgb(12,49,74)" stroke-width="1" opacity="0.9921568627450981" d="M 19.5 165 L 20 173.5 L 19 173.5 L 19.5 165 Z " /><path fill="rgb(12,49,74)" stroke="rgb(12,49,74)" stroke-width="1" opacity="0.9921568627450981" d="M 137.5 166 L 138 168.5 L 137 168.5 L 137.5 166 Z " /><path fill="rgb(12,49,74)" stroke="rgb(12,49,74)" stroke-width="1" opacity="0.9921568627450981" d="M 152.5 166 L 153 168.5 L 152 168.5 L 152.5 166 Z " /><path fill="rgb(12,49,74)" stroke="rgb(12,49,74)" stroke-width="1" opacity="0.9921568627450981" d="M 197.5 166 L 198 169.5 L 197 169.5 L 197.5 166 Z " /><path fill="rgb(12,49,74)" stroke="rgb(12,49,74)" stroke-width="1" opacity="0.9921568627450981" d="M 122.5 167 L 123 168.5 L 120.5 172 L 119 171.5 L 121 170.5 L 122.5 167 Z " /><path fill="rgb(12,49,74)" stroke="rgb(12,49,74)" stroke-width="1" opacity="0.9921568627450981" d="M 585.5 167 L 589 168.5 L 587 169.5 L 586.5 171 L 585 169.5 L 586 168.5 L 585.5 167 Z " /><path fill="rgb(12,49,74)" stroke="rgb(12,49,74)" stroke-width="1" opacity="0.9921568627450981" d="M 602.5 168 L 609 168.5 L 602.5 169 L 602.5 168 Z " /><path fill="rgb(12,49,74)" stroke="rgb(12,49,74)" stroke-width="1" opacity="0.9921568627450981" d="M 136.5 170 Q 138 171 135.5 172 L 134 171.5 L 136.5 170 Z " /><path fill="rgb(12,49,74)" stroke="rgb(12,49,74)" stroke-width="1" opacity="0.9921568627450981" d="M 587.5 172 L 589 174.5 Q 588 176 587 173.5 L 587.5 172 Z " /><path fill="rgb(12,49,74)" stroke="rgb(12,49,74)" stroke-width="1" opacity="0.9921568627450981" d="M 588.5 176 L 592 181.5 Q 591 184 590 182.5 Q 592.5 181 589 179.5 Q 587.3 178 588.5 176 Z " /><path fill="rgb(12,49,74)" stroke="rgb(12,49,74)" stroke-width="1" opacity="0.9921568627450981" d="M 627.5 179 L 629 180.5 L 628 181.5 L 630 183.5 L 629.5 184 Q 625.8 182.8 627.5 179 Z " /><path fill="rgb(12,49,74)" stroke="rgb(12,49,74)" stroke-width="1" opacity="0.9921568627450981" d="M 609.5 181 L 612 181.5 L 609.5 182 L 609.5 181 Z " /><path fill="rgb(12,49,74)" stroke="rgb(12,49,74)" stroke-width="1" opacity="0.9921568627450981" d="M 68.5 184 L 69 187.5 L 68 187.5 L 68.5 184 Z " /><path fill="rgb(12,49,74)" stroke="rgb(12,49,74)" stroke-width="1" opacity="0.9921568627450981" d="M 106.5 184 L 107 186.5 L 106 186.5 L 106.5 184 Z " /><path fill="rgb(12,49,74)" stroke="rgb(12,49,74)" stroke-width="1" opacity="0.9921568627450981" d="M 116.5 184 L 120 184.5 L 116.5 185 L 116.5 184 Z " /><path fill="rgb(12,49,74)" stroke="rgb(12,49,74)" stroke-width="1" opacity="0.9921568627450981" d="M 131.5 184 L 135 184.5 L 131.5 185 L 131.5 184 Z " /><path fill="rgb(12,49,74)" stroke="rgb(12,49,74)" stroke-width="1" opacity="0.9921568627450981" d="M 146.5 184 L 150 184.5 L 146.5 185 L 146.5 184 Z " /><path fill="rgb(12,49,74)" stroke="rgb(12,49,74)" stroke-width="1" opacity="0.9921568627450981" d="M 161.5 184 L 165 184.5 L 161.5 185 L 161.5 184 Z " /><path fill="rgb(12,49,74)" stroke="rgb(12,49,74)" stroke-width="1" opacity="0.9921568627450981" d="M 176.5 184 L 180 184.5 L 176.5 185 L 176.5 184 Z " /><path fill="rgb(12,49,74)" stroke="rgb(12,49,74)" stroke-width="1" opacity="0.9921568627450981" d="M 639.5 185 L 640 187.5 L 639 187.5 L 639.5 185 Z " /><path fill="rgb(12,49,74)" stroke="rgb(12,49,74)" stroke-width="1" opacity="0.9921568627450981" d="M 197.5 186 L 198 190.5 L 197 190.5 L 197.5 186 Z " /><path fill="rgb(12,49,74)" stroke="rgb(12,49,74)" stroke-width="1" opacity="0.9921568627450981" d="M 70.5 188 L 74 188.5 L 70.5 189 L 70.5 188 Z " /><path fill="rgb(12,49,74)" stroke="rgb(12,49,74)" stroke-width="1" opacity="0.9921568627450981" d="M 106.5 188 L 108 190.5 L 106.5 191 L 106.5 188 Z " /><path fill="rgb(12,49,74)" stroke="rgb(12,49,74)" stroke-width="1" opacity="0.9921568627450981" d="M 113.5 188 L 121.5 188 L 123 189.5 L 121 189.5 L 120.5 191 Q 113.3 192.3 113.5 188 Z M 116 189 L 116 190 L 120 190 L 116 189 Z " /><path fill="rgb(12,49,74)" stroke="rgb(12,49,74)" stroke-width="1" opacity="0.9921568627450981" d="M 128.5 188 L 136.5 188 L 138 189.5 L 136 189.5 L 135.5 191 Q 128.3 192.3 128.5 188 Z M 131 189 L 131 190 L 135 190 L 131 189 Z " /><path fill="rgb(12,49,74)" stroke="rgb(12,49,74)" stroke-width="1" opacity="0.9921568627450981" d="M 143.5 188 L 151.5 188 L 153 189.5 L 151.5 189 L 145 189.5 L 151 190.5 L 145.5 191 L 143 188.5 L 143.5 188 Z " /><path fill="rgb(12,49,74)" stroke="rgb(12,49,74)" stroke-width="1" opacity="0.9921568627450981" d="M 158.5 188 L 166.5 188 L 168 189.5 L 166.5 189 L 160 189.5 L 166 190.5 L 160.5 191 L 158 188.5 L 158.5 188 Z " /><path fill="rgb(12,49,74)" stroke="rgb(12,49,74)" stroke-width="1" opacity="0.9921568627450981" d="M 173.5 188 L 183 188.5 L 182.5 190 L 181.5 189 L 173.5 189 L 173.5 188 Z " /><path fill="rgb(12,49,74)" stroke="rgb(12,49,74)" stroke-width="1" opacity="0.9921568627450981" d="M 84.5 189 L 88 189.5 L 84.5 190 L 84.5 189 Z " /><path fill="rgb(12,49,74)" stroke="rgb(12,49,74)" stroke-width="1" opacity="0.9921568627450981" d="M 98.5 190 L 103 190.5 L 98.5 191 L 98.5 190 Z " /><path fill="rgb(12,49,74)" stroke="rgb(12,49,74)" stroke-width="1" opacity="0.9921568627450981" d="M 175.5 190 L 181 190.5 L 175.5 191 L 175.5 190 Z " /><path fill="rgb(0,0,0)" stroke="rgb(0,0,0)" stroke-width="1" opacity="0.803921568627451" d="M 437.5 128 L 618.5 128 L 620 129.5 L 618.5 129 L 437.5 129 L 437.5 128 Z " /><path fill="rgb(0,0,0)" stroke="rgb(0,0,0)" stroke-width="1" opacity="0.803921568627451" d="M 434.5 138 L 441 138.5 L 434.5 139 L 434.5 138 Z " /><path fill="rgb(0,0,0)" stroke="rgb(0,0,0)" stroke-width="1" opacity="0.803921568627451" d="M 455.5 145 L 458 145.5 L 455.5 146 L 455.5 145 Z " /><path fill="rgb(0,0,0)" stroke="rgb(0,0,0)" stroke-width="1" opacity="0.803921568627451" d="M 100.5 147 L 107 147.5 L 100.5 148 L 100.5 147 Z " /><path fill="rgb(0,0,0)" stroke="rgb(0,0,0)" stroke-width="1" opacity="0.803921568627451" d="M 567.5 147 L 574 147.5 L 567.5 148 L 567.5 147 Z " /><path fill="rgb(0,0,0)" stroke="rgb(0,0,0)" stroke-width="1" opacity="0.803921568627451" d="M 86.5 148 L 92 148.5 L 86.5 149 L 86.5 148 Z " /><path fill="rgb(0,0,0)" stroke="rgb(0,0,0)" stroke-width="1" opacity="0.803921568627451" d="M 72.5 149 L 77 149.5 L 72.5 150 L 72.5 149 Z " /><path fill="rgb(0,0,0)" stroke="rgb(0,0,0)" stroke-width="1" opacity="0.803921568627451" d="M 578.5 150 L 582 150.5 L 578.5 151 L 578.5 150 Z " /><path fill="rgb(0,0,0)" stroke="rgb(0,0,0)" stroke-width="1" opacity="0.803921568627451" d="M 19.5 162 L 20 163.5 Q 19 166 14.5 165 L 14.5 164 L 19 163.5 L 19.5 162 Z " /><path fill="rgb(0,0,0)" stroke="rgb(0,0,0)" stroke-width="1" opacity="0.803921568627451" d="M 16.5 174 Q 19.5 173.5 20 175.5 L 18.5 175 Q 15.5 175.5 16.5 174 Z " /><path fill="rgb(0,0,0)" stroke="rgb(0,0,0)" stroke-width="1" opacity="0.803921568627451" d="M 61.5 187 L 64 187.5 L 61.5 188 L 61.5 187 Z " /><path fill="rgb(0,0,0)" stroke="rgb(0,0,0)" stroke-width="1" opacity="0.803921568627451" d="M 592.5 187 L 631 187.5 L 630.5 189 L 629.5 188 L 592.5 188 L 592.5 187 Z " /><path fill="rgb(0,0,0)" stroke="rgb(0,0,0)" stroke-width="1" opacity="0.803921568627451" d="M 75.5 189 L 81 189.5 L 75.5 190 L 75.5 189 Z " /><path fill="rgb(0,0,0)" stroke="rgb(0,0,0)" stroke-width="1" opacity="0.803921568627451" d="M 592.5 189 L 593 191.5 L 181.5 192 L 181.5 191 L 592 190.5 L 592.5 189 Z " /><path fill="rgb(0,0,0)" stroke="rgb(0,0,0)" stroke-width="1" opacity="0.803921568627451" d="M 90.5 190 L 95 190.5 L 90.5 191 L 90.5 190 Z " /><path fill="rgb(0,0,0)" stroke="rgb(0,0,0)" stroke-width="1" opacity="0.803921568627451" d="M 104.5 191 L 115 191.5 L 104.5 192 L 104.5 191 Z " /><path fill="rgb(0,0,0)" stroke="rgb(0,0,0)" stroke-width="1" opacity="0.803921568627451" d="M 116.5 191 L 120 191.5 L 116.5 192 L 116.5 191 Z " /><path fill="rgb(0,0,0)" stroke="rgb(0,0,0)" stroke-width="1" opacity="0.803921568627451" d="M 121.5 191 L 130 191.5 L 121.5 192 L 121.5 191 Z " /><path fill="rgb(0,0,0)" stroke="rgb(0,0,0)" stroke-width="1" opacity="0.803921568627451" d="M 131.5 191 L 135 191.5 L 131.5 192 L 131.5 191 Z " /><path fill="rgb(0,0,0)" stroke="rgb(0,0,0)" stroke-width="1" opacity="0.803921568627451" d="M 136.5 191 L 145 191.5 L 136.5 192 L 136.5 191 Z " /><path fill="rgb(0,0,0)" stroke="rgb(0,0,0)" stroke-width="1" opacity="0.803921568627451" d="M 146.5 191 L 150 191.5 L 146.5 192 L 146.5 191 Z " /><path fill="rgb(0,0,0)" stroke="rgb(0,0,0)" stroke-width="1" opacity="0.803921568627451" d="M 151.5 191 L 160 191.5 L 151.5 192 L 151.5 191 Z " /><path fill="rgb(0,0,0)" stroke="rgb(0,0,0)" stroke-width="1" opacity="0.803921568627451" d="M 161.5 191 L 165 191.5 L 161.5 192 L 161.5 191 Z " /><path fill="rgb(0,0,0)" stroke="rgb(0,0,0)" stroke-width="1" opacity="0.803921568627451" d="M 166.5 191 L 175 191.5 L 166.5 192 L 166.5 191 Z " /><path fill="rgb(0,0,0)" stroke="rgb(0,0,0)" stroke-width="1" opacity="0.803921568627451" d="M 176.5 191 L 180 191.5 L 176.5 192 L 176.5 191 Z " /><path fill="rgb(27,112,180)" stroke="rgb(27,112,180)" stroke-width="1" opacity="0.996078431372549" d="M 438.5 129 L 619 129.5 L 621 135.5 L 436.5 136 L 436 133.5 L 438.5 129 Z " /><path fill="rgb(27,112,180)" stroke="rgb(27,112,180)" stroke-width="1" opacity="0.996078431372549" d="M 435.5 137 L 459.5 137 L 461 138.5 L 460.5 143 L 458 143.5 L 457.5 145 L 446.5 145 L 442 140.5 L 440.5 138 L 435.5 138 L 435.5 137 Z " /><path fill="rgb(27,112,180)" stroke="rgb(27,112,180)" stroke-width="1" opacity="0.996078431372549" d="M 100.5 148 L 106 148.5 L 103.5 152 L 102.5 151 L 89.5 151 L 88.5 152 L 78.5 152 L 77.5 151 L 70.5 151 L 69 151.5 L 70.5 150 L 78.5 150 Q 79.3 151.8 82.5 151 L 83.5 150 L 85 150.5 L 85.5 149 L 99.5 149 L 100.5 148 Z " /><path fill="rgb(27,112,180)" stroke="rgb(27,112,180)" stroke-width="1" opacity="0.996078431372549" d="M 107.5 148 L 197 148.5 L 196 149.5 L 196.5 151 L 194.5 152 L 193.5 151 L 181.5 151 Q 180.3 148.7 175.5 150 L 174.5 151 L 166.5 151 Q 165.3 148.7 160.5 150 L 159.5 151 L 150.5 151 Q 149.8 152.8 146.5 152 L 146.5 151 L 150 150.5 L 145.5 150 L 144.5 151 L 135.5 151 Q 134.8 152.8 131.5 152 L 131.5 151 L 135 150.5 L 130.5 150 L 129.5 151 L 122.5 151 Q 121 148.5 119.5 152 L 116 151.5 L 120 150.5 L 115.5 150 L 114.5 151 Q 109.7 149.8 108.5 152 L 107 149.5 L 107.5 148 Z " /><path fill="rgb(27,112,180)" stroke="rgb(27,112,180)" stroke-width="1" opacity="0.996078431372549" d="M 199.5 148 L 573.5 148 L 576 150.5 Q 574.8 153.3 573.5 151 L 200.5 151 L 199.5 152 L 198 149.5 L 199.5 148 Z " /><path fill="rgb(27,112,180)" stroke="rgb(27,112,180)" stroke-width="1" opacity="0.996078431372549" d="M 161.5 151 L 165 151.5 L 161.5 152 L 161.5 151 Z " /><path fill="rgb(27,112,180)" stroke="rgb(27,112,180)" stroke-width="1" opacity="0.996078431372549" d="M 176.5 151 L 180 151.5 L 176.5 152 L 176.5 151 Z " /><path fill="rgb(27,112,180)" stroke="rgb(27,112,180)" stroke-width="1" opacity="0.996078431372549" d="M 578.5 151 L 583 151.5 L 584 155.5 L 580.5 156 L 578 152.5 L 578.5 151 Z " /><path fill="rgb(27,112,180)" stroke="rgb(27,112,180)" stroke-width="1" opacity="0.996078431372549" d="M 581.5 157 L 585 157.5 L 586 160.5 L 583.5 162 L 581 157.5 L 581.5 157 Z " /><path fill="rgb(27,112,180)" stroke="rgb(27,112,180)" stroke-width="1" opacity="0.996078431372549" d="M 584.5 163 L 588 163.5 L 587 165.5 L 587.5 167 L 585 166.5 L 584.5 165 L 583 165.5 L 584.5 163 Z " /><path fill="rgb(27,112,180)" stroke="rgb(27,112,180)" stroke-width="1" opacity="0.996078431372549" d="M 601.5 163 L 608 163.5 L 601.5 164 L 601.5 163 Z " /><path fill="rgb(27,112,180)" stroke="rgb(27,112,180)" stroke-width="1" opacity="0.996078431372549" d="M 43.5 164 L 45 167.5 L 45 171.5 L 43.5 172 L 43.5 164 Z " /><path fill="rgb(27,112,180)" stroke="rgb(27,112,180)" stroke-width="1" opacity="0.996078431372549" d="M 196.5 164 L 197 173.5 L 196 173.5 L 196.5 164 Z " /><path fill="rgb(27,112,180)" stroke="rgb(27,112,180)" stroke-width="1" opacity="0.996078431372549" d="M 121.5 166 L 123 169.5 Q 122 171 121 168.5 L 121.5 166 Z " /><path fill="rgb(27,112,180)" stroke="rgb(27,112,180)" stroke-width="1" opacity="0.996078431372549" d="M 601.5 169 L 611 169.5 L 601.5 170 L 601.5 169 Z " /><path fill="rgb(27,112,180)" stroke="rgb(27,112,180)" stroke-width="1" opacity="0.996078431372549" d="M 117.5 171 L 120 172.5 L 118.5 172 L 116.5 173 Q 115 172 117.5 171 Z " /><path fill="rgb(27,112,180)" stroke="rgb(27,112,180)" stroke-width="1" opacity="0.996078431372549" d="M 132.5 171 L 135 172.5 L 133.5 172 L 131.5 173 Q 130 172 132.5 171 Z " /><path fill="rgb(27,112,180)" stroke="rgb(27,112,180)" stroke-width="1" opacity="0.996078431372549" d="M 147.5 171 L 150 172.5 L 148.5 172 L 146.5 173 Q 145 172 147.5 171 Z " /><path fill="rgb(27,112,180)" stroke="rgb(27,112,180)" stroke-width="1" opacity="0.996078431372549" d="M 162.5 171 L 165 172.5 L 163.5 172 L 161.5 173 Q 160 172 162.5 171 Z " /><path fill="rgb(27,112,180)" stroke="rgb(27,112,180)" stroke-width="1" opacity="0.996078431372549" d="M 177.5 171 L 180 172.5 L 178.5 172 L 176.5 173 Q 175 172 177.5 171 Z " /><path fill="rgb(27,112,180)" stroke="rgb(27,112,180)" stroke-width="1" opacity="0.996078431372549" d="M 587.5 171 L 590 172.5 L 588.5 173 Q 586 172 587.5 171 Z " /><path fill="rgb(27,112,180)" stroke="rgb(27,112,180)" stroke-width="1" opacity="0.996078431372549" d="M 605.5 174 L 608.5 175 L 611.5 174 Q 614 175 612.5 176 L 606.5 176 L 605.5 175 L 604 175.5 L 605.5 174 Z " /><path fill="rgb(27,112,180)" stroke="rgb(27,112,180)" stroke-width="1" opacity="0.996078431372549" d="M 589.5 177 L 591 177.5 L 590.5 179 Q 588 178 589.5 177 Z " /><path fill="rgb(27,112,180)" stroke="rgb(27,112,180)" stroke-width="1" opacity="0.996078431372549" d="M 603.5 180 L 615 180.5 L 603.5 181 L 603.5 180 Z " /><path fill="rgb(27,112,180)" stroke="rgb(27,112,180)" stroke-width="1" opacity="0.996078431372549" d="M 591.5 183 L 593 183.5 L 592.5 185 L 591 184.5 L 591.5 183 Z " /><path fill="rgb(27,112,180)" stroke="rgb(27,112,180)" stroke-width="1" opacity="0.996078431372549" d="M 196.5 185 L 197 186.5 L 196 188.5 L 197 190.5 L 181.5 191 L 181.5 190 L 183 189.5 L 182.5 188 L 173 188.5 L 173.5 190 L 175 190.5 L 166.5 191 L 166.5 190 L 168 189.5 L 167.5 188 L 158 188.5 L 158.5 190 L 160 190.5 L 151.5 191 L 151.5 190 L 153 189.5 L 152.5 188 L 143 188.5 L 143.5 190 L 145 190.5 L 136.5 191 L 136.5 190 L 138 189.5 L 136.5 188 L 128.5 188 L 128 189.5 L 130 190.5 L 121.5 191 L 121.5 190 L 123 189.5 L 121.5 188 L 113.5 188 L 113 189.5 L 113.5 191 L 108 190.5 L 107 187.5 L 196 186.5 L 196.5 185 Z " /><path fill="rgb(27,112,180)" stroke="rgb(27,112,180)" stroke-width="1" opacity="0.996078431372549" d="M 71.5 186 L 72.5 187 L 106 187.5 L 105 189.5 L 105.5 191 L 103.5 190 L 75.5 189 L 71 187.5 L 71.5 186 Z " /><path fill="rgb(27,112,180)" stroke="rgb(27,112,180)" stroke-width="1" opacity="0.996078431372549" d="M 590.5 186 L 592 190.5 L 198.5 191 L 198 187.5 L 589.5 187 L 590.5 186 Z " /><path fill="rgb(27,112,180)" stroke="rgb(27,112,180)" stroke-width="1" opacity="0.996078431372549" d="M 116.5 189 L 120 189.5 L 116.5 190 L 116.5 189 Z " /><path fill="rgb(27,112,180)" stroke="rgb(27,112,180)" stroke-width="1" opacity="0.996078431372549" d="M 131.5 189 L 135 189.5 L 131.5 190 L 131.5 189 Z " /><path fill="rgb(27,112,180)" stroke="rgb(27,112,180)" stroke-width="1" opacity="0.996078431372549" d="M 146.5 189 L 150 189.5 L 146.5 190 L 146.5 189 Z " /><path fill="rgb(27,112,180)" stroke="rgb(27,112,180)" stroke-width="1" opacity="0.996078431372549" d="M 161.5 189 L 165 189.5 L 161.5 190 L 161.5 189 Z " /><path fill="rgb(27,112,180)" stroke="rgb(27,112,180)" stroke-width="1" opacity="0.996078431372549" d="M 176.5 189 L 180 189.5 L 176.5 190 L 176.5 189 Z " /><path fill="rgb(38,159,221)" stroke="rgb(38,159,221)" stroke-width="1" opacity="0.996078431372549" d="M 542.5 137 L 571 137.5 L 542.5 138 L 542.5 137 Z " /><path fill="rgb(38,159,221)" stroke="rgb(38,159,221)" stroke-width="1" opacity="0.996078431372549" d="M 462.5 142 L 465 142.5 L 462.5 143 L 462.5 142 Z " /><path fill="rgb(38,159,221)" stroke="rgb(38,159,221)" stroke-width="1" opacity="0.996078431372549" d="M 458.5 143 L 461 143.5 L 458.5 144 L 458.5 143 Z " /><path fill="rgb(38,159,221)" stroke="rgb(38,159,221)" stroke-width="1" opacity="0.996078431372549" d="M 79.5 150 L 83 150.5 L 79.5 151 L 79.5 150 Z " /><path fill="rgb(38,159,221)" stroke="rgb(38,159,221)" stroke-width="1" opacity="0.996078431372549" d="M 107.5 150 L 108 153.5 L 107 153.5 L 107.5 150 Z " /><path fill="rgb(38,159,221)" stroke="rgb(38,159,221)" stroke-width="1" opacity="0.996078431372549" d="M 121.5 150 L 124 152.5 L 123.5 153 L 121 150.5 L 121.5 150 Z " /><path fill="rgb(38,159,221)" stroke="rgb(38,159,221)" stroke-width="1" opacity="0.996078431372549" d="M 67.5 151 L 68 152.5 L 61.5 153 L 60.5 154 Q 59 153 61.5 152 Q 66.3 153.2 67.5 151 Z " /><path fill="rgb(38,159,221)" stroke="rgb(38,159,221)" stroke-width="1" opacity="0.996078431372549" d="M 70.5 151 L 73 151.5 L 70.5 152 L 70.5 151 Z " /><path fill="rgb(38,159,221)" stroke="rgb(38,159,221)" stroke-width="1" opacity="0.996078431372549" d="M 173.5 151 L 173 152.5 L 172.5 154 L 172 152.5 L 173.5 151 Z " /><path fill="rgb(38,159,221)" stroke="rgb(38,159,221)" stroke-width="1" opacity="0.996078431372549" d="M 182.5 151 L 184 153.5 L 183 153.5 L 182.5 151 Z " /><path fill="rgb(38,159,221)" stroke="rgb(38,159,221)" stroke-width="1" opacity="0.996078431372549" d="M 195.5 151 L 196 153.5 L 195 153.5 L 195.5 151 Z " /><path fill="rgb(38,159,221)" stroke="rgb(38,159,221)" stroke-width="1" opacity="0.996078431372549" d="M 601.5 151 L 605 152.5 L 604.5 155 L 597 154.5 L 597.5 153 L 601.5 151 Z " /><path fill="rgb(38,159,221)" stroke="rgb(38,159,221)" stroke-width="1" opacity="0.996078431372549" d="M 616.5 151 L 618 151.5 L 617.5 154 L 616 151.5 L 616.5 151 Z " /><path fill="rgb(38,159,221)" stroke="rgb(38,159,221)" stroke-width="1" opacity="0.996078431372549" d="M 119.5 152 L 121 152.5 L 120.5 154 Q 118 153 119.5 152 Z " /><path fill="rgb(38,159,221)" stroke="rgb(38,159,221)" stroke-width="1" opacity="0.996078431372549" d="M 134.5 152 L 136 152.5 L 135.5 154 Q 133 153 134.5 152 Z " /><path fill="rgb(38,159,221)" stroke="rgb(38,159,221)" stroke-width="1" opacity="0.996078431372549" d="M 149.5 152 L 151 152.5 L 150.5 154 Q 148 153 149.5 152 Z " /><path fill="rgb(38,159,221)" stroke="rgb(38,159,221)" stroke-width="1" opacity="0.996078431372549" d="M 164.5 152 L 166 152.5 L 165.5 154 Q 163 153 164.5 152 Z " /><path fill="rgb(38,159,221)" stroke="rgb(38,159,221)" stroke-width="1" opacity="0.996078431372549" d="M 596.5 157 L 608 157.5 L 606 158.5 L 607 160.5 L 598.5 161 L 598 159.5 L 601 158.5 L 596.5 158 L 596.5 157 Z " /><path fill="rgb(38,159,221)" stroke="rgb(38,159,221)" stroke-width="1" opacity="0.996078431372549" d="M 104.5 164 L 105 171.5 L 103 171.5 L 102.5 173 L 101.5 171 L 70 171.5 L 69.5 173 L 68 166.5 L 69.5 165 L 102.5 165 L 104 165.5 L 104.5 164 Z " /><path fill="rgb(38,159,221)" stroke="rgb(38,159,221)" stroke-width="1" opacity="0.996078431372549" d="M 116.5 164 L 121 167.5 L 119.5 170 Q 116.3 169.3 115.5 171 L 115.5 169 L 114 168.5 L 114.5 166 L 117 165.5 L 116.5 164 Z " /><path fill="rgb(38,159,221)" stroke="rgb(38,159,221)" stroke-width="1" opacity="0.996078431372549" d="M 131.5 164 L 137 167.5 L 134.5 170 Q 131.3 169.3 130.5 171 L 130.5 169 L 129 168.5 L 129.5 166 L 132 165.5 L 131.5 164 Z " /><path fill="rgb(38,159,221)" stroke="rgb(38,159,221)" stroke-width="1" opacity="0.996078431372549" d="M 146.5 164 L 152 167.5 L 149.5 170 Q 146.3 169.3 145.5 171 L 145.5 169 L 144 168.5 L 144.5 166 L 147 165.5 L 146.5 164 Z " /><path fill="rgb(38,159,221)" stroke="rgb(38,159,221)" stroke-width="1" opacity="0.996078431372549" d="M 161.5 164 L 167 167.5 L 166.5 169 L 161.5 170 L 159 172.5 L 159.5 174 L 157 172.5 L 156.5 171 L 154.5 171 L 151.5 174 L 151.5 171 L 153 171.5 L 154 168.5 Q 152 167.5 154 166.5 L 154.5 165 L 157 165.5 L 158 168.5 L 157 170.5 L 158.5 170 L 159.5 171 L 161 169.5 L 159 168.5 L 159.5 166 Q 160.8 168.3 162 165.5 L 161.5 164 Z " /><path fill="rgb(38,159,221)" stroke="rgb(38,159,221)" stroke-width="1" opacity="0.996078431372549" d="M 176.5 164 L 182 167.5 L 181.5 169 L 176.5 170 L 174 168.5 L 174.5 167 L 177 165.5 L 176.5 164 Z " /><path fill="rgb(38,159,221)" stroke="rgb(38,159,221)" stroke-width="1" opacity="0.996078431372549" d="M 604.5 164 L 609 165.5 L 608.5 167 L 600 166.5 L 600.5 165 Q 603.7 165.8 604.5 164 Z " /><path fill="rgb(38,159,221)" stroke="rgb(38,159,221)" stroke-width="1" opacity="0.996078431372549" d="M 620.5 164 L 622 164.5 L 621.5 166 Q 619 165 620.5 164 Z " /><path fill="rgb(38,159,221)" stroke="rgb(38,159,221)" stroke-width="1" opacity="0.996078431372549" d="M 15.5 165 L 17 165.5 L 16.5 173 Q 14 172 15 167.5 L 16 166.5 L 15.5 165 Z " /><path fill="rgb(38,159,221)" stroke="rgb(38,159,221)" stroke-width="1" opacity="0.996078431372549" d="M 21.5 165 L 42 165.5 L 41.5 174 L 40.5 171 L 22 171.5 L 21.5 174 L 21.5 165 Z " /><path fill="rgb(38,159,221)" stroke="rgb(38,159,221)" stroke-width="1" opacity="0.996078431372549" d="M 46.5 165 L 67 165.5 L 66.5 174 L 65.5 171 L 64.5 174 L 63.5 171 L 47 171.5 L 46.5 174 L 46.5 165 Z " /><path fill="rgb(38,159,221)" stroke="rgb(38,159,221)" stroke-width="1" opacity="0.996078431372549" d="M 107.5 165 L 112 165.5 L 113 168.5 L 112 170.5 L 114 170.5 L 113 171.5 L 115 173.5 L 114.5 174 L 112 172.5 L 111.5 171 L 107 170.5 L 107.5 165 Z " /><path fill="rgb(38,159,221)" stroke="rgb(38,159,221)" stroke-width="1" opacity="0.996078431372549" d="M 124.5 165 L 127 165.5 L 128 168.5 L 127 170.5 L 129 170.5 L 128 171.5 L 130 173.5 L 129.5 174 L 127 172.5 L 126.5 171 L 124.5 171 L 120.5 174 L 120.5 173 L 122 172.5 L 121.5 171 L 123 171.5 L 124.5 165 Z " /><path fill="rgb(38,159,221)" stroke="rgb(38,159,221)" stroke-width="1" opacity="0.996078431372549" d="M 139.5 165 L 142 165.5 L 143 168.5 L 142 170.5 L 144 170.5 L 143 171.5 L 145 173.5 L 144.5 174 L 142 172.5 L 141.5 171 L 139.5 171 L 136.5 174 L 136.5 171 L 138 171.5 L 139.5 165 Z " /><path fill="rgb(38,159,221)" stroke="rgb(38,159,221)" stroke-width="1" opacity="0.996078431372549" d="M 169.5 165 L 172 165.5 L 173 168.5 L 172.5 170 L 175 171.5 L 174 172.5 L 174.5 174 L 172 172.5 L 171.5 171 L 169.5 171 L 166.5 174 L 167 172.5 L 166 171.5 L 167.5 170 L 169 169.5 L 168 167.5 L 169.5 165 Z " /><path fill="rgb(38,159,221)" stroke="rgb(38,159,221)" stroke-width="1" opacity="0.996078431372549" d="M 184.5 165 L 195 165.5 L 196 168.5 L 195 169.5 L 194.5 174 L 193.5 171 L 184 171.5 L 183.5 173 L 181.5 174 L 182 172.5 L 181 171.5 L 182.5 170 L 184 169.5 L 183 167.5 L 184.5 165 Z " /><path fill="rgb(38,159,221)" stroke="rgb(38,159,221)" stroke-width="1" opacity="0.996078431372549" d="M 199.5 165 L 581.5 165 L 584 166.5 Q 582 167.5 584 168.5 L 584.5 172 L 586 171.5 L 584.5 174 L 582.5 171 L 200 171.5 L 199.5 174 L 199.5 165 Z " /><path fill="rgb(38,159,221)" stroke="rgb(38,159,221)" stroke-width="1" opacity="0.996078431372549" d="M 586.5 167 L 589 167.5 L 586.5 168 L 586.5 167 Z " /><path fill="rgb(38,159,221)" stroke="rgb(38,159,221)" stroke-width="1" opacity="0.996078431372549" d="M 607.5 170 L 611 172.5 L 602.5 173 L 602 171.5 L 606.5 171 L 607.5 170 Z " /><path fill="rgb(38,159,221)" stroke="rgb(38,159,221)" stroke-width="1" opacity="0.996078431372549" d="M 604.5 177 L 613 177.5 L 611.5 179 L 604.5 179 L 604.5 177 Z " /><path fill="rgb(38,159,221)" stroke="rgb(38,159,221)" stroke-width="1" opacity="0.996078431372549" d="M 605.5 183 L 614 183.5 L 613 185.5 L 617 186.5 L 605.5 187 L 605.5 186 L 610 185.5 L 606.5 185 Q 604 184 605.5 183 Z " /><path fill="rgb(38,159,221)" stroke="rgb(38,159,221)" stroke-width="1" opacity="0.996078431372549" d="M 637.5 183 Q 639.6 184.4 639 188.5 L 638 188.5 L 637.5 183 Z " /><path fill="rgb(38,159,221)" stroke="rgb(38,159,221)" stroke-width="1" opacity="0.996078431372549" d="M 626.5 185 L 629 185.5 L 626.5 186 L 626.5 185 Z " /><path fill="rgb(38,159,221)" stroke="rgb(38,159,221)" stroke-width="1" opacity="0.996078431372549" d="M 64.5 186 L 68 186.5 L 64.5 187 L 64.5 186 Z " /><path fill="rgb(56,184,240)" stroke="rgb(56,184,240)" stroke-width="1" opacity="0.996078431372549" d="M 530.5 137 L 541.5 137 L 542.5 138 L 570.5 138 L 571.5 137 L 583.5 137 L 583.5 138 L 581.5 139 L 525.5 139 L 525.5 138 Q 529.5 139 530.5 137 Z " /><path fill="rgb(56,184,240)" stroke="rgb(56,184,240)" stroke-width="1" opacity="0.996078431372549" d="M 595.5 151 L 601 151.5 L 596.5 153 Q 594 152 595.5 151 Z " /><path fill="rgb(56,184,240)" stroke="rgb(56,184,240)" stroke-width="1" opacity="0.996078431372549" d="M 603.5 151 L 607 151.5 Q 606.3 154.8 608 155.5 L 596.5 156 L 596.5 155 L 605 154.5 L 604.5 152 Q 602.1 151.9 603.5 151 Z " /><path fill="rgb(56,184,240)" stroke="rgb(56,184,240)" stroke-width="1" opacity="0.996078431372549" d="M 597.5 158 L 601 158.5 L 597.5 159 L 597.5 158 Z " /><path fill="rgb(56,184,240)" stroke="rgb(56,184,240)" stroke-width="1" opacity="0.996078431372549" d="M 606.5 158 L 609 158.5 Q 607 159.5 609 160.5 L 608.5 162 L 598 161.5 L 607 160.5 L 606.5 158 Z " /><path fill="rgb(56,184,240)" stroke="rgb(56,184,240)" stroke-width="1" opacity="0.996078431372549" d="M 20.5 163 L 22.5 164 L 41.5 164 L 43 163.5 L 42.5 175 L 41.5 165 L 21 165.5 L 20.5 175 L 20.5 163 Z " /><path fill="rgb(56,184,240)" stroke="rgb(56,184,240)" stroke-width="1" opacity="0.996078431372549" d="M 45.5 163 L 46.5 164 L 65.5 164 L 67 163.5 L 66.5 165 L 46 165.5 L 45.5 174 L 45.5 163 Z " /><path fill="rgb(56,184,240)" stroke="rgb(56,184,240)" stroke-width="1" opacity="0.996078431372549" d="M 69.5 163 L 70.5 164 L 102.5 164 L 104 163.5 L 103.5 166 L 102.5 165 L 69.5 165 L 68 165.5 L 69.5 163 Z " /><path fill="rgb(56,184,240)" stroke="rgb(56,184,240)" stroke-width="1" opacity="0.996078431372549" d="M 106.5 163 Q 107.7 165.3 112.5 164 L 114.5 163 L 115 163.5 L 113 165.5 L 112.5 167 L 111.5 165 L 107 165.5 L 107.5 171 L 112 170.5 L 112.5 169 L 114.5 172 L 119.5 173 L 122 171.5 Q 123.7 169.7 123 165.5 L 121 163.5 L 121.5 163 Q 122.8 165.3 127.5 164 L 129.5 163 L 130 163.5 L 128 165.5 L 127.5 167 L 126.5 165 L 124 165.5 Q 124.7 169.7 123 171.5 L 124.5 171 L 127 170.5 L 127.5 169 L 129.5 172 L 134.5 173 L 137 171.5 Q 138.7 169.7 138 165.5 L 136 163.5 L 136.5 163 Q 137.8 165.3 142.5 164 L 144.5 163 L 145 163.5 L 143 165.5 L 142.5 167 L 141.5 165 L 139 165.5 Q 139.7 169.7 138 171.5 L 139.5 171 L 142 170.5 L 142.5 169 L 144.5 172 L 149.5 173 L 152 171.5 L 153.5 168 L 154 169.5 L 153 171.5 L 154.5 171 L 157 170.5 L 157.5 169 L 159.5 172 L 164.5 173 L 167.5 171 Q 168.5 173 169.5 171 L 172 171.5 L 172.5 173 L 174 172.5 L 173.5 171 Q 174.9 173.6 179.5 173 L 182.5 171 L 182.5 173 L 184 172.5 L 184.5 171 L 194 171.5 L 193.5 174 L 182.5 174 L 181.5 173 Q 180.3 175.3 175.5 174 Q 174.5 172 173.5 174 L 167.5 174 L 166.5 173 Q 165.3 175.3 160.5 174 Q 159.5 172 158.5 174 L 152.5 174 L 151.5 173 Q 150.3 175.3 145.5 174 Q 144.5 172 143.5 174 L 137.5 174 L 136.5 173 Q 135.3 175.3 130.5 174 Q 129.5 172 128.5 174 Q 123 175 120.5 173 Q 119.5 175 115.5 174 Q 114.5 172 113.5 174 L 106 173.5 L 106.5 163 Z M 113 171 L 112 173 L 114 173 Q 115 172 113 171 Z M 128 171 L 127 173 L 129 173 Q 130 172 128 171 Z M 143 171 L 142 173 L 144 173 Q 145 172 143 171 Z M 158 171 L 157 173 L 159 173 Q 160 172 158 171 Z " /><path fill="rgb(56,184,240)" stroke="rgb(56,184,240)" stroke-width="1" opacity="0.996078431372549" d="M 151.5 163 L 152.5 164 L 158.5 164 L 160 163.5 L 157.5 167 L 156.5 165 L 154 165.5 L 153.5 167 L 151 163.5 L 151.5 163 Z " /><path fill="rgb(56,184,240)" stroke="rgb(56,184,240)" stroke-width="1" opacity="0.996078431372549" d="M 166.5 163 L 167.5 164 L 173.5 164 L 175 163.5 L 172.5 167 L 171.5 165 L 169 165.5 L 168.5 167 L 166 163.5 L 166.5 163 Z " /><path fill="rgb(56,184,240)" stroke="rgb(56,184,240)" stroke-width="1" opacity="0.996078431372549" d="M 181.5 163 L 182.5 164 L 194.5 164 L 196 163.5 L 195.5 167 L 194.5 165 L 184 165.5 L 183.5 167 L 181 163.5 L 181.5 163 Z " /><path fill="rgb(56,184,240)" stroke="rgb(56,184,240)" stroke-width="1" opacity="0.996078431372549" d="M 198.5 163 L 199.5 164 L 580.5 164 Q 581.8 161.8 583 164.5 L 582.5 166 L 581.5 165 L 199.5 165 L 198.5 175 L 198.5 163 Z " /><path fill="rgb(56,184,240)" stroke="rgb(56,184,240)" stroke-width="1" opacity="0.996078431372549" d="M 117.5 164 L 121 165.5 L 120.5 167 L 117.5 165 L 115.5 166 L 115.5 165 L 117.5 164 Z " /><path fill="rgb(56,184,240)" stroke="rgb(56,184,240)" stroke-width="1" opacity="0.996078431372549" d="M 132.5 164 L 136 165.5 L 135.5 167 L 132.5 165 L 130.5 166 L 130.5 165 L 132.5 164 Z " /><path fill="rgb(56,184,240)" stroke="rgb(56,184,240)" stroke-width="1" opacity="0.996078431372549" d="M 147.5 164 L 151 165.5 L 150.5 167 L 147.5 165 L 145.5 166 L 145.5 165 L 147.5 164 Z " /><path fill="rgb(56,184,240)" stroke="rgb(56,184,240)" stroke-width="1" opacity="0.996078431372549" d="M 162.5 164 L 166 165.5 L 165.5 167 L 162.5 165 L 160.5 167 L 160 166.5 L 160.5 165 L 162.5 164 Z " /><path fill="rgb(56,184,240)" stroke="rgb(56,184,240)" stroke-width="1" opacity="0.996078431372549" d="M 177.5 164 L 181 165.5 L 180.5 167 L 177.5 165 L 175.5 167 L 175 166.5 L 175.5 165 L 177.5 164 Z " /><path fill="rgb(56,184,240)" stroke="rgb(56,184,240)" stroke-width="1" opacity="0.996078431372549" d="M 599.5 164 L 604 164.5 L 599.5 165 L 599.5 164 Z " /><path fill="rgb(56,184,240)" stroke="rgb(56,184,240)" stroke-width="1" opacity="0.996078431372549" d="M 607.5 164 L 610 164.5 L 611 167.5 L 600.5 168 L 600.5 167 L 609 166.5 L 608.5 165 Q 606.1 164.9 607.5 164 Z " /><path fill="rgb(56,184,240)" stroke="rgb(56,184,240)" stroke-width="1" opacity="0.996078431372549" d="M 68.5 169 L 69.5 173 L 70.5 171 L 102 171.5 L 102.5 173 L 103.5 171 L 105 173.5 L 68.5 174 L 68.5 169 Z " /><path fill="rgb(56,184,240)" stroke="rgb(56,184,240)" stroke-width="1" opacity="0.996078431372549" d="M 115.5 169 Q 116.3 170.8 119.5 170 L 121 169.5 Q 120.3 171.8 116.5 171 Q 114 170 115.5 169 Z " /><path fill="rgb(56,184,240)" stroke="rgb(56,184,240)" stroke-width="1" opacity="0.996078431372549" d="M 130.5 169 Q 131.3 170.8 134.5 170 L 136 169.5 Q 135.3 171.8 131.5 171 Q 129 170 130.5 169 Z " /><path fill="rgb(56,184,240)" stroke="rgb(56,184,240)" stroke-width="1" opacity="0.996078431372549" d="M 145.5 169 Q 146.3 170.8 149.5 170 L 151 169.5 Q 150.3 171.8 146.5 171 Q 144 170 145.5 169 Z " /><path fill="rgb(56,184,240)" stroke="rgb(56,184,240)" stroke-width="1" opacity="0.996078431372549" d="M 160.5 169 Q 161.3 170.8 164.5 170 L 166 169.5 Q 165.3 171.8 161.5 171 Q 159 170 160.5 169 Z " /><path fill="rgb(56,184,240)" stroke="rgb(56,184,240)" stroke-width="1" opacity="0.996078431372549" d="M 175.5 169 Q 176.3 170.8 179.5 170 L 181 169.5 Q 180.3 171.8 176.5 171 Q 174 170 175.5 169 Z " /><path fill="rgb(56,184,240)" stroke="rgb(56,184,240)" stroke-width="1" opacity="0.996078431372549" d="M 195.5 169 L 196 174.5 L 195 174.5 L 195.5 169 Z " /><path fill="rgb(56,184,240)" stroke="rgb(56,184,240)" stroke-width="1" opacity="0.996078431372549" d="M 584.5 169 L 587 174.5 Q 586 176 585 173.5 L 584.5 172 L 583.5 174 L 200 173.5 L 200.5 171 L 582.5 171 L 583.5 172 L 584.5 169 Z " /><path fill="rgb(56,184,240)" stroke="rgb(56,184,240)" stroke-width="1" opacity="0.996078431372549" d="M 601.5 170 L 607 170.5 L 601.5 171 L 601.5 170 Z " /><path fill="rgb(56,184,240)" stroke="rgb(56,184,240)" stroke-width="1" opacity="0.996078431372549" d="M 608.5 170 L 612 170.5 L 613 173.5 L 602.5 174 L 602.5 173 L 611 172.5 L 608 170.5 L 608.5 170 Z " /><path fill="rgb(56,184,240)" stroke="rgb(56,184,240)" stroke-width="1" opacity="0.996078431372549" d="M 22.5 171 L 41 171.5 L 40.5 174 L 22 173.5 L 22.5 171 Z " /><path fill="rgb(56,184,240)" stroke="rgb(56,184,240)" stroke-width="1" opacity="0.996078431372549" d="M 47.5 171 L 64 171.5 L 63.5 174 L 47 173.5 L 47.5 171 Z " /><path fill="rgb(56,184,240)" stroke="rgb(56,184,240)" stroke-width="1" opacity="0.996078431372549" d="M 65.5 171 L 66 173.5 L 65 173.5 L 65.5 171 Z " /><path fill="rgb(56,184,240)" stroke="rgb(56,184,240)" stroke-width="1" opacity="0.996078431372549" d="M 603.5 176 L 614 176.5 L 615 179.5 L 604.5 180 L 604.5 179 L 611.5 179 L 613 177.5 L 603.5 177 L 603.5 176 Z " /><path fill="rgb(56,184,240)" stroke="rgb(56,184,240)" stroke-width="1" opacity="0.996078431372549" d="M 604.5 182 L 616 182.5 L 617 185.5 L 613.5 186 L 614 184.5 L 613.5 183 L 604.5 183 L 604.5 182 Z " /><path fill="rgb(56,184,240)" stroke="rgb(56,184,240)" stroke-width="1" opacity="0.996078431372549" d="M 606.5 185 L 610 185.5 L 606.5 186 L 606.5 185 Z " /><path fill="rgb(38,34,8)" stroke="rgb(38,34,8)" stroke-width="1" opacity="0.8509803921568627" d="M 12.5 166 L 13 170.5 L 12 170.5 L 12.5 166 Z " /><path fill="rgb(134,118,28)" stroke="rgb(134,118,28)" stroke-width="1" opacity="0.9882352941176471" d="M 1.5 168 L 2 170.5 L 1 170.5 L 1.5 168 Z " /><path fill="rgb(88,134,184)" stroke="rgb(88,134,184)" stroke-width="1" opacity="0.996078431372549" d="M 460.5 137 L 467.5 137 L 473 139.5 L 467 141.5 L 467.5 143 L 462.5 142 L 461.5 144 L 461 138.5 L 460.5 137 Z " /><path fill="rgb(88,134,184)" stroke="rgb(88,134,184)" stroke-width="1" opacity="0.996078431372549" d="M 73.5 151 Q 77.5 150 78.5 152 L 88.5 152 L 89.5 151 L 102.5 151 Q 104.5 151.5 104 154.5 L 102.5 154 L 69 153.5 L 69.5 152 Q 72.8 152.8 73.5 151 Z " /><path fill="rgb(88,134,184)" stroke="rgb(88,134,184)" stroke-width="1" opacity="0.996078431372549" d="M 109.5 151 L 114 151.5 L 112 152.5 L 113 154.5 L 111.5 154 L 108 153.5 L 109.5 151 Z " /><path fill="rgb(88,134,184)" stroke="rgb(88,134,184)" stroke-width="1" opacity="0.996078431372549" d="M 123.5 151 L 129 151.5 L 127 152.5 L 127.5 154 L 124.5 155 L 123.5 151 Z " /><path fill="rgb(88,134,184)" stroke="rgb(88,134,184)" stroke-width="1" opacity="0.996078431372549" d="M 138.5 151 L 144 151.5 L 142 152.5 L 142.5 154 L 139 153.5 L 138.5 151 Z " /><path fill="rgb(88,134,184)" stroke="rgb(88,134,184)" stroke-width="1" opacity="0.996078431372549" d="M 153.5 151 L 159 151.5 L 157 152.5 L 157.5 154 L 154 153.5 L 153.5 151 Z " /><path fill="rgb(88,134,184)" stroke="rgb(88,134,184)" stroke-width="1" opacity="0.996078431372549" d="M 168.5 151 L 173 151.5 L 171.5 154 L 169 153.5 L 168.5 151 Z " /><path fill="rgb(88,134,184)" stroke="rgb(88,134,184)" stroke-width="1" opacity="0.996078431372549" d="M 183.5 151 L 193.5 151 L 195 152.5 L 194.5 154 L 184 153.5 L 183.5 151 Z " /><path fill="rgb(88,134,184)" stroke="rgb(88,134,184)" stroke-width="1" opacity="0.996078431372549" d="M 200.5 151 L 573.5 151 L 577 152.5 L 575.5 154 L 200.5 154 L 199.5 155 L 199 152.5 L 200.5 151 Z " /><path fill="rgb(88,134,184)" stroke="rgb(88,134,184)" stroke-width="1" opacity="0.996078431372549" d="M 583.5 151 L 586 154.5 Q 585 157 584 155.5 L 583.5 151 Z " /><path fill="rgb(88,134,184)" stroke="rgb(88,134,184)" stroke-width="1" opacity="0.996078431372549" d="M 117.5 152 L 120 153.5 L 119.5 155 L 115 153.5 L 117.5 152 Z " /><path fill="rgb(88,134,184)" stroke="rgb(88,134,184)" stroke-width="1" opacity="0.996078431372549" d="M 132.5 152 L 135 153.5 L 134.5 155 L 130 153.5 L 132.5 152 Z " /><path fill="rgb(88,134,184)" stroke="rgb(88,134,184)" stroke-width="1" opacity="0.996078431372549" d="M 147.5 152 L 150 153.5 L 149.5 155 L 145 153.5 L 147.5 152 Z " /><path fill="rgb(88,134,184)" stroke="rgb(88,134,184)" stroke-width="1" opacity="0.996078431372549" d="M 162.5 152 L 165 153.5 L 164.5 155 L 163.5 154 L 159 153.5 L 162.5 152 Z " /><path fill="rgb(88,134,184)" stroke="rgb(88,134,184)" stroke-width="1" opacity="0.996078431372549" d="M 177.5 152 L 182 153.5 L 179.5 155 L 178.5 154 L 174 153.5 L 177.5 152 Z " /><path fill="rgb(88,134,184)" stroke="rgb(88,134,184)" stroke-width="1" opacity="0.996078431372549" d="M 616.5 152 L 617.5 154 L 619 154.5 L 616.5 155 L 616.5 152 Z " /><path fill="rgb(88,134,184)" stroke="rgb(88,134,184)" stroke-width="1" opacity="0.996078431372549" d="M 61.5 153 L 68 153.5 L 67.5 157 L 66.5 154 L 61.5 154 L 61.5 153 Z " /><path fill="rgb(88,134,184)" stroke="rgb(88,134,184)" stroke-width="1" opacity="0.996078431372549" d="M 121.5 153 L 123 155.5 Q 122 157 121 154.5 L 121.5 153 Z " /><path fill="rgb(88,134,184)" stroke="rgb(88,134,184)" stroke-width="1" opacity="0.996078431372549" d="M 196.5 154 L 197 163.5 L 196 163.5 L 196.5 154 Z " /><path fill="rgb(88,134,184)" stroke="rgb(88,134,184)" stroke-width="1" opacity="0.996078431372549" d="M 585.5 157 L 588 157.5 L 586 158.5 L 588 159.5 L 587.5 161 L 586 160.5 Q 584.3 159 585.5 157 Z " /><path fill="rgb(88,134,184)" stroke="rgb(88,134,184)" stroke-width="1" opacity="0.996078431372549" d="M 616.5 157 L 619 157.5 L 619.5 160 L 621 160.5 L 618.5 161 L 617.5 158 Q 615.1 157.9 616.5 157 Z " /><path fill="rgb(88,134,184)" stroke="rgb(88,134,184)" stroke-width="1" opacity="0.996078431372549" d="M 630.5 162 L 630 163.5 L 629.5 165 L 629 163.5 L 630.5 162 Z " /><path fill="rgb(88,134,184)" stroke="rgb(88,134,184)" stroke-width="1" opacity="0.996078431372549" d="M 588.5 163 L 591 163.5 L 588 164.5 L 590 166.5 L 589.5 167 L 587 165.5 L 588.5 163 Z " /><path fill="rgb(88,134,184)" stroke="rgb(88,134,184)" stroke-width="1" opacity="0.996078431372549" d="M 592.5 163 L 601 163.5 L 592.5 164 L 592.5 163 Z " /><path fill="rgb(88,134,184)" stroke="rgb(88,134,184)" stroke-width="1" opacity="0.996078431372549" d="M 616.5 163 L 620 163.5 L 616.5 164 L 616.5 163 Z " /><path fill="rgb(88,134,184)" stroke="rgb(88,134,184)" stroke-width="1" opacity="0.996078431372549" d="M 620.5 165 Q 623 166 621.5 167 L 620 166.5 L 620.5 165 Z " /><path fill="rgb(88,134,184)" stroke="rgb(88,134,184)" stroke-width="1" opacity="0.996078431372549" d="M 630.5 166 L 632.5 171 L 634 170.5 L 633 173.5 L 635 173.5 L 634 175.5 L 636.5 182 L 638 181.5 L 637 184.5 L 639 184.5 L 637.5 188 Q 632.8 186.8 631.5 189 L 632 187.5 L 631.5 184 L 630 184.5 L 631 181.5 L 629 176.5 L 630 176.5 L 630.5 178 L 631 169.5 Q 629.1 168.6 630.5 166 Z " /><path fill="rgb(88,134,184)" stroke="rgb(88,134,184)" stroke-width="1" opacity="0.996078431372549" d="M 13.5 167 L 14 170.5 L 13 170.5 L 13.5 167 Z " /><path fill="rgb(88,134,184)" stroke="rgb(88,134,184)" stroke-width="1" opacity="0.996078431372549" d="M 590.5 169 L 601 169.5 L 590 170.5 L 592 172.5 L 591.5 173 L 588 170.5 L 590.5 169 Z " /><path fill="rgb(88,134,184)" stroke="rgb(88,134,184)" stroke-width="1" opacity="0.996078431372549" d="M 611.5 169 L 621 169.5 L 611.5 170 L 611.5 169 Z " /><path fill="rgb(88,134,184)" stroke="rgb(88,134,184)" stroke-width="1" opacity="0.996078431372549" d="M 621.5 171 L 624 172.5 L 621.5 173 L 621.5 171 Z " /><path fill="rgb(88,134,184)" stroke="rgb(88,134,184)" stroke-width="1" opacity="0.996078431372549" d="M 196.5 174 L 197 184.5 L 196 184.5 L 196.5 174 Z " /><path fill="rgb(88,134,184)" stroke="rgb(88,134,184)" stroke-width="1" opacity="0.996078431372549" d="M 594.5 174 L 597 175.5 L 594.5 176 L 594.5 174 Z " /><path fill="rgb(88,134,184)" stroke="rgb(88,134,184)" stroke-width="1" opacity="0.996078431372549" d="M 616.5 174 L 619 175.5 L 616.5 176 L 616.5 174 Z " /><path fill="rgb(88,134,184)" stroke="rgb(88,134,184)" stroke-width="1" opacity="0.996078431372549" d="M 591.5 177 L 593 177.5 L 592.5 179 L 591 178.5 L 591.5 177 Z " /><path fill="rgb(88,134,184)" stroke="rgb(88,134,184)" stroke-width="1" opacity="0.996078431372549" d="M 623.5 177 L 626 177.5 L 625.5 179 L 623 178.5 L 623.5 177 Z " /><path fill="rgb(88,134,184)" stroke="rgb(88,134,184)" stroke-width="1" opacity="0.996078431372549" d="M 106.5 178 L 107 180.5 L 106 181.5 L 105.5 187 L 72.5 187 L 71.5 186 Q 70.3 188.3 69 185.5 Q 70.3 182.8 71.5 185 L 105 184.5 L 105 181.5 L 106.5 178 Z " /><path fill="rgb(88,134,184)" stroke="rgb(88,134,184)" stroke-width="1" opacity="0.996078431372549" d="M 68.5 179 L 69 181.5 L 67.5 186 L 62.5 187 L 62 185.5 L 67 184.5 L 68.5 179 Z " /><path fill="rgb(88,134,184)" stroke="rgb(88,134,184)" stroke-width="1" opacity="0.996078431372549" d="M 595.5 180 L 600 180.5 L 595.5 181 L 595.5 180 Z " /><path fill="rgb(88,134,184)" stroke="rgb(88,134,184)" stroke-width="1" opacity="0.996078431372549" d="M 616.5 180 L 622 180.5 L 616.5 181 L 616.5 180 Z " /><path fill="rgb(88,134,184)" stroke="rgb(88,134,184)" stroke-width="1" opacity="0.996078431372549" d="M 45.5 181 L 46 182.5 L 43.5 184 L 43 183.5 L 45.5 181 Z " /><path fill="rgb(88,134,184)" stroke="rgb(88,134,184)" stroke-width="1" opacity="0.996078431372549" d="M 592.5 182 L 595 183.5 L 596 186.5 L 594.5 187 L 593 185.5 L 592.5 182 Z " /><path fill="rgb(88,134,184)" stroke="rgb(88,134,184)" stroke-width="1" opacity="0.996078431372549" d="M 119.5 183 L 121.5 185 Q 128.3 183.7 131.5 186 L 133.5 185 L 135.5 186 L 134.5 183 L 136.5 185 Q 143.3 183.7 146.5 186 L 148.5 185 L 150.5 186 L 151.5 185 L 159.5 185 L 161.5 186 L 163.5 185 L 165.5 186 L 166.5 185 L 174.5 185 L 176.5 186 L 178.5 185 L 180.5 186 L 181.5 185 L 194.5 185 L 195 186.5 L 107.5 187 L 107 185.5 L 114.5 185 L 116.5 186 L 118.5 185 L 120.5 186 L 119.5 183 Z " /><path fill="rgb(88,134,184)" stroke="rgb(88,134,184)" stroke-width="1" opacity="0.996078431372549" d="M 625.5 183 L 628 184.5 L 625.5 185 L 625.5 183 Z " /><path fill="rgb(88,134,184)" stroke="rgb(88,134,184)" stroke-width="1" opacity="0.996078431372549" d="M 199.5 184 L 200.5 185 L 588.5 185 L 590 186.5 L 198.5 187 L 199 185.5 L 199.5 184 Z " /><path fill="rgb(88,134,184)" stroke="rgb(88,134,184)" stroke-width="1" opacity="0.996078431372549" d="M 625.5 186 L 629 186.5 L 625.5 187 L 625.5 186 Z " /><path fill="rgb(105,174,225)" stroke="rgb(105,174,225)" stroke-width="1" opacity="0.996078431372549" d="M 468.5 137 L 474.5 137 L 478 138.5 L 475 139.5 L 474.5 141 L 472.5 139 L 468.5 138 L 468.5 137 Z " /><path fill="rgb(105,174,225)" stroke="rgb(105,174,225)" stroke-width="1" opacity="0.996078431372549" d="M 510.5 137 L 530 137.5 L 525.5 138 L 524.5 139 L 517.5 139 L 516.5 138 L 510.5 138 L 510.5 137 Z " /><path fill="rgb(105,174,225)" stroke="rgb(105,174,225)" stroke-width="1" opacity="0.996078431372549" d="M 584.5 137 L 589 137.5 Q 587.3 139.8 582.5 139 L 582.5 138 L 584.5 137 Z " /><path fill="rgb(105,174,225)" stroke="rgb(105,174,225)" stroke-width="1" opacity="0.996078431372549" d="M 621.5 137 L 621 138.5 L 621.5 140 L 623 140.5 L 622 142.5 L 624 143.5 L 623 145.5 L 625 146.5 Q 622.5 148 626 149.5 L 634 172.5 L 633 172.5 L 630.5 166 L 630 168.5 L 631 169.5 L 631 177.5 L 630 180.5 L 632.5 188 L 638 188.5 L 632.5 189 L 631 187.5 L 631 184.5 L 629 181.5 L 625 169.5 L 626 168.5 Q 622.5 167 625 165.5 L 624.5 164 L 623 163.5 L 624 161.5 L 622 160.5 L 623 158.5 L 621 157.5 L 622 155.5 L 620 154.5 L 621 152.5 L 619 151.5 L 620 149.5 L 619 146.5 L 616.5 144 L 615 144.5 L 616 143.5 L 615.5 142 L 617 142.5 L 617.5 138 Q 620.8 138.8 621.5 137 Z " /><path fill="rgb(105,174,225)" stroke="rgb(105,174,225)" stroke-width="1" opacity="0.996078431372549" d="M 470.5 140 L 472 140.5 Q 471.3 142.8 467.5 142 L 467.5 141 L 470.5 140 Z " /><path fill="rgb(105,174,225)" stroke="rgb(105,174,225)" stroke-width="1" opacity="0.996078431372549" d="M 584.5 151 L 586 151.5 L 587 155.5 L 585.5 156 L 586 154.5 L 584 151.5 L 584.5 151 Z " /><path fill="rgb(105,174,225)" stroke="rgb(105,174,225)" stroke-width="1" opacity="0.996078431372549" d="M 593.5 151 L 597 153.5 L 595.5 156 L 592 154.5 Q 591.5 151.5 593.5 151 Z " /><path fill="rgb(105,174,225)" stroke="rgb(105,174,225)" stroke-width="1" opacity="0.996078431372549" d="M 607.5 151 L 609 155.5 Q 608 157 607 154.5 L 607.5 151 Z " /><path fill="rgb(105,174,225)" stroke="rgb(105,174,225)" stroke-width="1" opacity="0.996078431372549" d="M 614.5 151 L 616 151.5 Q 615.3 154.8 617 155.5 L 615.5 155 L 613 154.5 Q 612.5 151.5 614.5 151 Z " /><path fill="rgb(105,174,225)" stroke="rgb(105,174,225)" stroke-width="1" opacity="0.996078431372549" d="M 57.5 153 L 67 154.5 L 65.5 157 L 47 156.5 L 50.5 154 L 56.5 154 L 57.5 153 Z " /><path fill="rgb(105,174,225)" stroke="rgb(105,174,225)" stroke-width="1" opacity="0.996078431372549" d="M 104.5 153 L 105 154.5 L 103.5 157 L 70 156.5 L 69 154.5 L 102.5 154 L 104 154.5 L 104.5 153 Z " /><path fill="rgb(105,174,225)" stroke="rgb(105,174,225)" stroke-width="1" opacity="0.996078431372549" d="M 114.5 153 L 119 154.5 L 118.5 157 L 116 156.5 L 115.5 155 L 114 154.5 L 114.5 153 Z " /><path fill="rgb(105,174,225)" stroke="rgb(105,174,225)" stroke-width="1" opacity="0.996078431372549" d="M 123.5 153 L 124.5 155 L 127.5 154 L 127 155.5 L 126.5 157 L 123 156.5 Q 125 155.5 123 154.5 L 123.5 153 Z " /><path fill="rgb(105,174,225)" stroke="rgb(105,174,225)" stroke-width="1" opacity="0.996078431372549" d="M 138.5 153 L 143 154.5 L 141.5 157 L 138 156.5 Q 140 155.5 138 154.5 L 138.5 153 Z " /><path fill="rgb(105,174,225)" stroke="rgb(105,174,225)" stroke-width="1" opacity="0.996078431372549" d="M 153.5 153 L 158 154.5 L 157 155.5 L 157.5 157 L 153 156.5 Q 155 155.5 153 154.5 L 153.5 153 Z " /><path fill="rgb(105,174,225)" stroke="rgb(105,174,225)" stroke-width="1" opacity="0.996078431372549" d="M 168.5 153 L 173 154.5 L 172 155.5 L 172.5 157 L 168 156.5 Q 170 155.5 168 154.5 L 168.5 153 Z " /><path fill="rgb(105,174,225)" stroke="rgb(105,174,225)" stroke-width="1" opacity="0.996078431372549" d="M 198.5 153 L 199.5 155 L 200.5 154 L 575.5 154 L 576.5 153 Q 578.5 153.5 578 156.5 L 199.5 157 L 198 154.5 L 198.5 153 Z " /><path fill="rgb(105,174,225)" stroke="rgb(105,174,225)" stroke-width="1" opacity="0.996078431372549" d="M 107.5 154 L 112 154.5 L 111.5 157 Q 108.3 157.8 107.5 156 L 106 156.5 L 107.5 154 Z " /><path fill="rgb(105,174,225)" stroke="rgb(105,174,225)" stroke-width="1" opacity="0.996078431372549" d="M 129.5 154 L 134 154.5 L 133.5 157 L 129.5 155 L 129.5 154 Z " /><path fill="rgb(105,174,225)" stroke="rgb(105,174,225)" stroke-width="1" opacity="0.996078431372549" d="M 144.5 154 L 149 154.5 L 148.5 157 L 144.5 155 L 144.5 154 Z " /><path fill="rgb(105,174,225)" stroke="rgb(105,174,225)" stroke-width="1" opacity="0.996078431372549" d="M 159.5 154 L 164 154.5 L 163.5 157 L 159.5 155 L 159.5 154 Z " /><path fill="rgb(105,174,225)" stroke="rgb(105,174,225)" stroke-width="1" opacity="0.996078431372549" d="M 174.5 154 Q 178.5 153 179.5 155 L 181.5 154 L 181.5 155 L 177.5 157 L 174 154.5 L 174.5 154 Z " /><path fill="rgb(105,174,225)" stroke="rgb(105,174,225)" stroke-width="1" opacity="0.996078431372549" d="M 183.5 154 L 196 154.5 L 194.5 157 L 183 156.5 L 184 155.5 L 183.5 154 Z " /><path fill="rgb(105,174,225)" stroke="rgb(105,174,225)" stroke-width="1" opacity="0.996078431372549" d="M 588.5 157 L 588 158.5 L 589 159.5 L 587.5 162 L 588 160.5 L 587.5 159 L 586 158.5 L 588.5 157 Z " /><path fill="rgb(105,174,225)" stroke="rgb(105,174,225)" stroke-width="1" opacity="0.996078431372549" d="M 591.5 157 Q 597 156 598 159.5 L 597.5 162 L 593 160.5 L 593.5 159 L 595 158.5 L 591.5 158 L 591.5 157 Z " /><path fill="rgb(105,174,225)" stroke="rgb(105,174,225)" stroke-width="1" opacity="0.996078431372549" d="M 608.5 157 L 611 157.5 L 610 159.5 Q 612.3 160.8 609.5 162 L 608 159.5 L 609 158.5 L 608.5 157 Z " /><path fill="rgb(105,174,225)" stroke="rgb(105,174,225)" stroke-width="1" opacity="0.996078431372549" d="M 614.5 157 L 618 158.5 L 618.5 161 L 620 161.5 L 618.5 162 L 615 160.5 L 616 158.5 L 614 157.5 L 614.5 157 Z " /><path fill="rgb(105,174,225)" stroke="rgb(105,174,225)" stroke-width="1" opacity="0.996078431372549" d="M 68.5 160 L 69.5 162 L 103.5 162 L 104.5 161 L 105 163.5 L 103.5 163 L 102.5 164 L 70.5 164 L 69.5 163 L 68 163.5 L 68.5 160 Z " /><path fill="rgb(105,174,225)" stroke="rgb(105,174,225)" stroke-width="1" opacity="0.996078431372549" d="M 27.5 161 L 29.5 162 L 42.5 162 L 44 161.5 L 43.5 163 L 41.5 164 L 22.5 164 L 22 162.5 L 26.5 162 L 27.5 161 Z " /><path fill="rgb(105,174,225)" stroke="rgb(105,174,225)" stroke-width="1" opacity="0.996078431372549" d="M 119.5 161 L 120.5 162 L 133.5 162 Q 134.5 160 135.5 162 L 148.5 162 L 149.5 161 L 150.5 162 L 163.5 162 Q 164.5 160 165.5 162 L 175.5 162 L 176.5 161 L 178.5 162 Q 179.5 160 180.5 162 L 196 162.5 L 194.5 164 L 182.5 164 L 181.5 163 L 174.5 163 L 173.5 164 L 167.5 164 L 166.5 163 L 159.5 163 L 158.5 164 L 152.5 164 L 151.5 163 L 143.5 163 Q 142.2 165.3 137.5 164 L 136.5 163 L 128.5 163 Q 127.3 165.3 122.5 164 L 121.5 163 L 113.5 163 Q 112.3 165.3 107.5 164 Q 105 163 106.5 162 L 118.5 162 L 119.5 161 Z " /><path fill="rgb(105,174,225)" stroke="rgb(105,174,225)" stroke-width="1" opacity="0.996078431372549" d="M 199.5 161 L 200.5 162 L 580.5 162 L 582 161.5 L 580.5 164 L 199.5 164 L 198 162.5 L 199.5 161 Z " /><path fill="rgb(105,174,225)" stroke="rgb(105,174,225)" stroke-width="1" opacity="0.996078431372549" d="M 45.5 162 L 67 162.5 L 65.5 164 L 46.5 164 Q 44 163 45.5 162 Z " /><path fill="rgb(105,174,225)" stroke="rgb(105,174,225)" stroke-width="1" opacity="0.996078431372549" d="M 588.5 164 L 591 165.5 L 589.5 168 L 590 166.5 L 588 164.5 L 588.5 164 Z " /><path fill="rgb(105,174,225)" stroke="rgb(105,174,225)" stroke-width="1" opacity="0.996078431372549" d="M 597.5 164 L 600 165.5 L 599.5 168 L 595 166.5 L 595.5 165 L 597.5 164 Z " /><path fill="rgb(105,174,225)" stroke="rgb(105,174,225)" stroke-width="1" opacity="0.996078431372549" d="M 610.5 164 L 613 166.5 L 611.5 168 L 610 165.5 L 610.5 164 Z " /><path fill="rgb(105,174,225)" stroke="rgb(105,174,225)" stroke-width="1" opacity="0.996078431372549" d="M 618.5 164 L 620 164.5 L 621 167.5 L 619.5 167 L 617 166.5 L 618.5 164 Z " /><path fill="rgb(105,174,225)" stroke="rgb(105,174,225)" stroke-width="1" opacity="0.996078431372549" d="M 590.5 170 L 593 172.5 L 591.5 174 L 590 173.5 L 592 172.5 L 590 170.5 L 590.5 170 Z " /><path fill="rgb(105,174,225)" stroke="rgb(105,174,225)" stroke-width="1" opacity="0.996078431372549" d="M 599.5 170 L 602 171.5 L 601.5 174 L 597 172.5 L 597.5 171 L 599.5 170 Z " /><path fill="rgb(105,174,225)" stroke="rgb(105,174,225)" stroke-width="1" opacity="0.996078431372549" d="M 612.5 170 L 615 172.5 L 613.5 174 Q 611 173 612.5 170 Z " /><path fill="rgb(105,174,225)" stroke="rgb(105,174,225)" stroke-width="1" opacity="0.996078431372549" d="M 620.5 170 L 622 170.5 L 621 172.5 L 623 173.5 L 621.5 174 L 619 172.5 L 620.5 170 Z " /><path fill="rgb(105,174,225)" stroke="rgb(105,174,225)" stroke-width="1" opacity="0.996078431372549" d="M 21.5 174 L 41.5 174 L 43 175.5 L 41.5 179 L 31.5 179 Q 30.7 177.3 27.5 178 L 26 178.5 L 26.5 177 Q 23.3 176.3 22.5 178 L 21.5 176 L 20 175.5 L 21.5 174 Z " /><path fill="rgb(105,174,225)" stroke="rgb(105,174,225)" stroke-width="1" opacity="0.996078431372549" d="M 45.5 174 L 67 174.5 L 65.5 179 L 46 178.5 L 45.5 174 Z " /><path fill="rgb(105,174,225)" stroke="rgb(105,174,225)" stroke-width="1" opacity="0.996078431372549" d="M 68.5 174 L 105 174.5 L 103.5 179 L 70 178.5 L 69.5 177 L 68.5 179 L 68.5 174 Z " /><path fill="rgb(105,174,225)" stroke="rgb(105,174,225)" stroke-width="1" opacity="0.996078431372549" d="M 106.5 174 L 194.5 174 L 196 175.5 L 194.5 179 L 183.5 179 Q 182.3 174.8 175.5 176 L 171.5 179 L 168.5 179 Q 167.3 174.8 160.5 176 L 156.5 179 L 153.5 179 Q 152.3 174.8 145.5 176 L 141.5 179 L 138.5 179 Q 137.3 174.8 130.5 176 L 126.5 179 L 123.5 179 Q 122.3 174.8 115.5 176 L 111.5 179 L 108.5 179 L 107.5 177 L 106 177.5 L 106.5 174 Z " /><path fill="rgb(105,174,225)" stroke="rgb(105,174,225)" stroke-width="1" opacity="0.996078431372549" d="M 199.5 174 L 585.5 174 L 587 175.5 L 586.5 179 L 199 178.5 L 198 175.5 L 199.5 174 Z " /><path fill="rgb(105,174,225)" stroke="rgb(105,174,225)" stroke-width="1" opacity="0.996078431372549" d="M 591.5 176 L 594 177.5 L 593.5 180 L 592 179.5 L 593 177.5 L 591 176.5 L 591.5 176 Z " /><path fill="rgb(105,174,225)" stroke="rgb(105,174,225)" stroke-width="1" opacity="0.996078431372549" d="M 601.5 176 L 604 177.5 L 603.5 180 L 599.5 179 L 598 177.5 L 601.5 176 Z " /><path fill="rgb(105,174,225)" stroke="rgb(105,174,225)" stroke-width="1" opacity="0.996078431372549" d="M 614.5 176 Q 616.5 176.5 616 179.5 Q 615 181 614 178.5 L 614.5 176 Z " /><path fill="rgb(105,174,225)" stroke="rgb(105,174,225)" stroke-width="1" opacity="0.996078431372549" d="M 622.5 176 L 624 176.5 L 623 178.5 L 625 179.5 L 623.5 180 L 620 177.5 L 622.5 176 Z " /><path fill="rgb(105,174,225)" stroke="rgb(105,174,225)" stroke-width="1" opacity="0.996078431372549" d="M 603.5 182 L 606 185.5 Q 605.3 187.8 601.5 187 L 601.5 186 L 603 185.5 L 600 183.5 L 603.5 182 Z " /><path fill="rgb(105,174,225)" stroke="rgb(105,174,225)" stroke-width="1" opacity="0.996078431372549" d="M 624.5 182 L 626 182.5 L 625 184.5 Q 627.3 185.8 624.5 187 L 622 186.5 L 624 185.5 L 622 183.5 L 622.5 183 L 624.5 182 Z " /><path fill="rgb(105,174,225)" stroke="rgb(105,174,225)" stroke-width="1" opacity="0.996078431372549" d="M 53.5 183 L 65.5 183 L 67 184.5 L 58.5 186 L 53.5 184 L 52 184.5 L 53.5 183 Z " /><path fill="rgb(105,174,225)" stroke="rgb(105,174,225)" stroke-width="1" opacity="0.996078431372549" d="M 70.5 183 L 103.5 183 L 105 184.5 L 71.5 185 Q 69 184 70.5 183 Z " /><path fill="rgb(105,174,225)" stroke="rgb(105,174,225)" stroke-width="1" opacity="0.996078431372549" d="M 108.5 183 Q 111.8 182.3 112.5 184 Q 114 181.5 115.5 185 L 117 185.5 L 115.5 186 L 114.5 185 L 107 184.5 L 108.5 183 Z " /><path fill="rgb(105,174,225)" stroke="rgb(105,174,225)" stroke-width="1" opacity="0.996078431372549" d="M 123.5 183 L 126.5 183 L 132 185.5 L 130.5 186 L 129.5 185 L 121.5 185 L 119.5 186 L 119.5 185 L 123.5 183 Z " /><path fill="rgb(105,174,225)" stroke="rgb(105,174,225)" stroke-width="1" opacity="0.996078431372549" d="M 139.5 183 L 147 185.5 L 145.5 186 L 144.5 185 L 136.5 185 L 134.5 186 L 134.5 185 L 139.5 183 Z " /><path fill="rgb(105,174,225)" stroke="rgb(105,174,225)" stroke-width="1" opacity="0.996078431372549" d="M 154.5 183 L 162 185.5 L 160.5 186 L 159.5 185 L 151.5 185 L 149.5 186 L 149.5 185 L 154.5 183 Z " /><path fill="rgb(105,174,225)" stroke="rgb(105,174,225)" stroke-width="1" opacity="0.996078431372549" d="M 169.5 183 L 177 185.5 L 175.5 186 L 174.5 185 L 166.5 185 L 164.5 186 L 164.5 185 L 169.5 183 Z " /><path fill="rgb(105,174,225)" stroke="rgb(105,174,225)" stroke-width="1" opacity="0.996078431372549" d="M 184.5 183 L 194.5 183 L 196 184.5 L 195.5 186 L 194.5 185 L 181.5 185 L 179.5 186 L 179.5 185 L 184.5 183 Z " /><path fill="rgb(105,174,225)" stroke="rgb(105,174,225)" stroke-width="1" opacity="0.996078431372549" d="M 199.5 183 L 587.5 183 L 590 184.5 L 589.5 186 L 588.5 185 L 200.5 185 Q 198 184 199.5 183 Z " /><path fill="rgb(105,174,225)" stroke="rgb(105,174,225)" stroke-width="1" opacity="0.996078431372549" d="M 595.5 183 L 597 186.5 Q 596 188 595 185.5 L 595.5 183 Z " /><path fill="rgb(105,174,225)" stroke="rgb(105,174,225)" stroke-width="1" opacity="0.996078431372549" d="M 616.5 183 L 618 183.5 L 619 186.5 L 617.5 187 L 616 184.5 L 616.5 183 Z " /><path fill="rgb(151,198,236)" stroke="rgb(151,198,236)" stroke-width="1" opacity="0.996078431372549" d="M 475.5 137 L 509.5 137 L 510.5 138 L 517 138.5 L 479.5 139 Q 478.8 140.8 475.5 140 L 475.5 139 L 478 138.5 L 475.5 138 L 475.5 137 Z " /><path fill="rgb(151,198,236)" stroke="rgb(151,198,236)" stroke-width="1" opacity="0.996078431372549" d="M 589.5 137 L 620.5 137 L 622 138.5 L 621.5 140 L 620.5 138 L 617 138.5 Q 618 142.5 616 143.5 L 619 146.5 L 620 150.5 L 619 150.5 L 618 146.5 L 615.5 144 L 612.5 143 L 607.5 139 L 587 138.5 L 589.5 137 Z " /><path fill="rgb(151,198,236)" stroke="rgb(151,198,236)" stroke-width="1" opacity="0.996078431372549" d="M 586.5 151 L 593 151.5 L 592 154.5 L 595 155.5 L 587.5 156 L 586 152.5 L 586.5 151 Z " /><path fill="rgb(151,198,236)" stroke="rgb(151,198,236)" stroke-width="1" opacity="0.996078431372549" d="M 608.5 151 L 614 151.5 L 613 154.5 L 616 155.5 L 609.5 156 L 608 152.5 L 608.5 151 Z " /><path fill="rgb(151,198,236)" stroke="rgb(151,198,236)" stroke-width="1" opacity="0.996078431372549" d="M 46.5 155 L 49 155.5 L 47 156.5 L 65.5 157 L 67 156.5 L 66.5 162 L 45 161.5 L 45 158.5 L 46.5 155 Z " /><path fill="rgb(151,198,236)" stroke="rgb(151,198,236)" stroke-width="1" opacity="0.996078431372549" d="M 69.5 155 L 70.5 157 L 104 156.5 L 104.5 155 L 105 160.5 L 103.5 162 L 69.5 162 L 69.5 155 Z " /><path fill="rgb(151,198,236)" stroke="rgb(151,198,236)" stroke-width="1" opacity="0.996078431372549" d="M 112.5 155 L 113.5 157 Q 115.7 158.8 120.5 158 L 123.5 155 L 124 155.5 L 123.5 157 L 127 156.5 L 127.5 155 Q 128.8 159.2 135.5 158 L 138.5 155 L 139 155.5 L 138.5 157 L 142 156.5 L 142.5 155 Q 143.8 159.2 150.5 158 L 153.5 155 L 154 155.5 L 153.5 157 L 158 156.5 L 157.5 155 Q 158.8 159.2 165.5 158 L 168.5 155 L 169 155.5 L 168.5 157 L 173 156.5 L 172.5 155 Q 173.8 159.2 180.5 158 L 183.5 155 L 184 155.5 L 183.5 157 L 195 156.5 L 195.5 155 L 196 161.5 L 180.5 162 Q 179.5 160 178.5 162 L 176.5 161 L 175.5 162 L 165.5 162 Q 164.5 160 163.5 162 L 150.5 162 L 149.5 161 L 148.5 162 L 135.5 162 Q 134.5 160 133.5 162 L 120.5 162 L 119.5 161 L 118.5 162 L 106.5 162 L 106 157.5 Q 107.3 154.8 108.5 157 L 112 156.5 L 112.5 155 Z " /><path fill="rgb(151,198,236)" stroke="rgb(151,198,236)" stroke-width="1" opacity="0.996078431372549" d="M 198.5 155 L 199.5 157 L 577.5 157 L 578.5 156 L 582 162.5 L 580.5 162 L 200.5 162 L 199.5 161 L 198 161.5 L 198.5 155 Z " /><path fill="rgb(151,198,236)" stroke="rgb(151,198,236)" stroke-width="1" opacity="0.996078431372549" d="M 40.5 156 L 44 156.5 Q 45 161 42.5 162 L 29.5 162 L 27.5 161 L 21.5 163 L 21 161.5 L 28.5 160 L 32.5 158 L 36.5 158 L 40.5 156 Z " /><path fill="rgb(151,198,236)" stroke="rgb(151,198,236)" stroke-width="1" opacity="0.996078431372549" d="M 589.5 157 L 595 158.5 L 593 159.5 L 593.5 161 L 597 161.5 L 588.5 162 L 589 160.5 L 588 158.5 L 589.5 157 Z " /><path fill="rgb(151,198,236)" stroke="rgb(151,198,236)" stroke-width="1" opacity="0.996078431372549" d="M 611.5 157 L 616 158.5 L 615 160.5 L 618 161.5 L 610.5 162 L 611 160.5 L 610 159.5 L 611.5 157 Z " /><path fill="rgb(151,198,236)" stroke="rgb(151,198,236)" stroke-width="1" opacity="0.996078431372549" d="M 591.5 163 L 592.5 164 L 597 164.5 L 595 165.5 L 595.5 167 L 599 167.5 L 590.5 168 L 591 166.5 L 590 164.5 L 591.5 163 Z " /><path fill="rgb(151,198,236)" stroke="rgb(151,198,236)" stroke-width="1" opacity="0.996078431372549" d="M 614.5 163 L 618 164.5 L 617 166.5 L 620 167.5 L 612.5 168 L 613 166.5 L 611 164.5 L 611.5 164 L 614.5 163 Z " /><path fill="rgb(151,198,236)" stroke="rgb(151,198,236)" stroke-width="1" opacity="0.996078431372549" d="M 17.5 165 L 19 165.5 L 18.5 173 L 17 172.5 L 17.5 165 Z " /><path fill="rgb(151,198,236)" stroke="rgb(151,198,236)" stroke-width="1" opacity="0.996078431372549" d="M 14.5 166 L 15 172.5 L 14 172.5 L 14.5 166 Z " /><path fill="rgb(151,198,236)" stroke="rgb(151,198,236)" stroke-width="1" opacity="0.996078431372549" d="M 591.5 170 L 599 170.5 L 597 171.5 L 597.5 173 L 600 173.5 L 592.5 174 L 593 172.5 L 591 170.5 L 591.5 170 Z " /><path fill="rgb(151,198,236)" stroke="rgb(151,198,236)" stroke-width="1" opacity="0.996078431372549" d="M 613.5 170 L 620 170.5 L 619 172.5 L 621 173.5 L 614.5 174 L 615 172.5 L 613 170.5 L 613.5 170 Z " /><path fill="rgb(151,198,236)" stroke="rgb(151,198,236)" stroke-width="1" opacity="0.996078431372549" d="M 42.5 176 L 44 179.5 L 44 182.5 L 41.5 183 L 40.5 182 L 37.5 182 L 33.5 180 L 30.5 180 L 23 177.5 L 26.5 177 L 31.5 179 L 41.5 179 L 42.5 176 Z " /><path fill="rgb(151,198,236)" stroke="rgb(151,198,236)" stroke-width="1" opacity="0.996078431372549" d="M 45.5 176 L 46.5 179 L 66 178.5 L 66.5 177 L 67 183.5 L 65.5 183 L 53 183.5 L 55 184.5 L 53.5 185 L 52.5 184 L 46 183.5 L 45 180.5 L 45.5 176 Z " /><path fill="rgb(151,198,236)" stroke="rgb(151,198,236)" stroke-width="1" opacity="0.996078431372549" d="M 104.5 176 L 105 183.5 L 103.5 183 L 70 183.5 L 69.5 185 L 69 177.5 L 70 177.5 L 70.5 179 L 104 178.5 L 104.5 176 Z " /><path fill="rgb(151,198,236)" stroke="rgb(151,198,236)" stroke-width="1" opacity="0.996078431372549" d="M 115.5 176 L 120.5 176 L 123.5 179 L 126.5 179 L 130.5 176 L 135.5 176 Q 136.3 179.7 141.5 179 L 145.5 176 L 150.5 176 L 153.5 179 L 156.5 179 L 160.5 176 L 165.5 176 L 168.5 179 L 171.5 179 L 175.5 176 L 180.5 176 L 183.5 179 L 194.5 179 L 195.5 176 L 196 183.5 L 194.5 183 L 184.5 183 L 182.5 184 L 183 182.5 Q 183.8 177.8 180.5 177 Q 174.3 175.8 173 179.5 Q 172.3 182.8 174 183.5 L 172.5 184 L 169.5 183 L 167.5 184 L 168 182.5 Q 168.8 177.8 165.5 177 Q 159.3 175.8 158 179.5 Q 157.3 182.8 159 183.5 L 157.5 184 L 154.5 183 L 152.5 184 L 153 182.5 Q 153.8 177.8 150.5 177 Q 144.3 175.8 143 179.5 Q 142.3 182.8 144 183.5 L 142.5 184 L 139.5 183 L 137.5 184 L 138 182.5 Q 138.8 177.8 135.5 177 Q 129.3 175.8 128 179.5 Q 127.3 182.8 129 183.5 L 127.5 184 Q 126.8 182.3 123.5 183 L 122 183.5 Q 123.7 182.8 123 179.5 Q 121.8 175.8 115.5 177 L 113 179.5 L 112.5 184 Q 111.8 182.3 108.5 183 L 107 183.5 L 107.5 177 L 108.5 179 L 111.5 179 L 115.5 176 Z " /><path fill="rgb(151,198,236)" stroke="rgb(151,198,236)" stroke-width="1" opacity="0.996078431372549" d="M 198.5 176 L 199.5 179 L 587 178.5 L 587.5 177 L 590 183.5 L 588.5 184 L 587.5 183 L 199.5 183 L 198.5 185 L 198.5 176 Z " /><path fill="rgb(151,198,236)" stroke="rgb(151,198,236)" stroke-width="1" opacity="0.996078431372549" d="M 593.5 176 L 601 176.5 L 598 177.5 L 602 179.5 L 594.5 180 L 593.5 176 Z " /><path fill="rgb(151,198,236)" stroke="rgb(151,198,236)" stroke-width="1" opacity="0.996078431372549" d="M 615.5 176 L 622 176.5 L 620 177.5 L 623 179.5 L 616.5 180 L 615.5 176 Z " /><path fill="rgb(151,198,236)" stroke="rgb(151,198,236)" stroke-width="1" opacity="0.996078431372549" d="M 115.5 179 L 121 179.5 L 122 181.5 L 117.5 184 L 114 181.5 L 115.5 179 Z " /><path fill="rgb(151,198,236)" stroke="rgb(151,198,236)" stroke-width="1" opacity="0.996078431372549" d="M 130.5 179 L 136 179.5 L 137 181.5 L 132.5 184 L 129 181.5 L 130.5 179 Z " /><path fill="rgb(151,198,236)" stroke="rgb(151,198,236)" stroke-width="1" opacity="0.996078431372549" d="M 145.5 179 L 151 179.5 L 152 181.5 L 147.5 184 L 144 181.5 L 145.5 179 Z " /><path fill="rgb(151,198,236)" stroke="rgb(151,198,236)" stroke-width="1" opacity="0.996078431372549" d="M 160.5 179 Q 165.8 177.8 167 180.5 L 165.5 183 L 162.5 184 L 159 181.5 L 160.5 179 Z " /><path fill="rgb(151,198,236)" stroke="rgb(151,198,236)" stroke-width="1" opacity="0.996078431372549" d="M 175.5 179 Q 180.8 177.8 182 180.5 L 180.5 183 L 177.5 184 L 174 181.5 L 175.5 179 Z " /><path fill="rgb(151,198,236)" stroke="rgb(151,198,236)" stroke-width="1" opacity="0.996078431372549" d="M 594.5 182 L 603 182.5 L 600 183.5 L 603 185.5 Q 601.6 187.6 597.5 187 L 595.5 183 Q 593.1 182.9 594.5 182 Z " /><path fill="rgb(151,198,236)" stroke="rgb(151,198,236)" stroke-width="1" opacity="0.996078431372549" d="M 616.5 182 L 624 182.5 L 622 183.5 L 624 185.5 L 623.5 186 L 619.5 187 L 617.5 183 Q 615.1 182.9 616.5 182 Z " /><path fill="rgb(246,233,17)" stroke="rgb(246,233,17)" stroke-width="1" opacity="0.9921568627450981" d="M 2.5 169 L 12 169.5 L 11.5 171 L 2 170.5 L 2.5 169 Z " /><path fill="rgb(252,224,80)" stroke="rgb(252,224,80)" stroke-width="1" opacity="0.996078431372549" d="M 7.5 167 L 12 167.5 L 11.5 169 L 8.5 168 Q 7.3 170.2 2.5 169 L 2.5 168 Q 6.5 169 7.5 167 Z " /><path fill="rgb(252,224,80)" stroke="rgb(252,224,80)" stroke-width="1" opacity="0.996078431372549" d="M 7.5 171 L 12 171.5 L 7.5 172 L 7.5 171 Z " /><path fill="rgb(255,255,255)" stroke="rgb(255,255,255)" stroke-width="1" opacity="0" d="M 627.5 146 L 640 146.5 L 627.5 147 L 627.5 146 Z " /><path fill="rgb(255,255,255)" stroke="rgb(255,255,255)" stroke-width="1" opacity="0" d="M 615.5 147 L 616 148.5 L 605.5 149 L 605.5 148 L 614.5 148 L 615.5 147 Z " /><path fill="rgb(255,255,255)" stroke="rgb(255,255,255)" stroke-width="1" opacity="0" d="M 583.5 148 L 597 148.5 L 583.5 149 L 583.5 148 Z " /><path fill="rgb(255,255,255)" stroke="rgb(255,255,255)" stroke-width="1" opacity="0" d="M 56.5 150 L 62 150.5 L 56.5 151 L 56.5 150 Z " /><path fill="rgb(255,255,255)" stroke="rgb(255,255,255)" stroke-width="1" opacity="0" d="M 33.5 155 L 37 155.5 L 33.5 156 L 33.5 155 Z " /><path fill="rgb(255,255,255)" stroke="rgb(255,255,255)" stroke-width="1" opacity="0" d="M 635.5 168 L 636 170.5 L 635 170.5 L 635.5 168 Z " /><path fill="rgb(255,255,255)" stroke="rgb(255,255,255)" stroke-width="1" opacity="0" d="M 639.5 179 L 640 181.5 L 639 181.5 L 639.5 179 Z " /><path fill="rgb(255,255,255)" stroke="rgb(255,255,255)" stroke-width="1" opacity="0" d="M 34.5 183 L 38 183.5 L 34.5 185 L 34.5 183 Z " /><path fill="rgb(255,255,255)" stroke="rgb(255,255,255)" stroke-width="1" opacity="0" d="M 52.5 187 L 58 187.5 L 52.5 188 L 52.5 187 Z " /><path fill="rgb(62,82,101)" stroke="rgb(62,82,101)" stroke-width="1" opacity="0.9921568627450981" d="M 598.5 139 L 607 139.5 L 598.5 140 L 598.5 139 Z " /><path fill="rgb(62,82,101)" stroke="rgb(62,82,101)" stroke-width="1" opacity="0.9921568627450981" d="M 105.5 150 L 107 153.5 L 106 153.5 Q 104.3 152 105.5 150 Z " /><path fill="rgb(62,82,101)" stroke="rgb(62,82,101)" stroke-width="1" opacity="0.9921568627450981" d="M 44.5 155 L 46 155.5 Q 45 158 44 156.5 L 44.5 155 Z " /><path fill="rgb(62,82,101)" stroke="rgb(62,82,101)" stroke-width="1" opacity="0.9921568627450981" d="M 68.5 156 L 69 157.5 L 67.5 160 L 67 157.5 L 68.5 156 Z " /><path fill="rgb(62,82,101)" stroke="rgb(62,82,101)" stroke-width="1" opacity="0.9921568627450981" d="M 197.5 156 L 198 164.5 L 197 164.5 L 197.5 156 Z " /><path fill="rgb(62,82,101)" stroke="rgb(62,82,101)" stroke-width="1" opacity="0.9921568627450981" d="M 44.5 164 L 45 166.5 L 44 166.5 L 44.5 164 Z " /><path fill="rgb(62,82,101)" stroke="rgb(62,82,101)" stroke-width="1" opacity="0.9921568627450981" d="M 592.5 168 L 595 168.5 L 592.5 169 L 592.5 168 Z " /><path fill="rgb(62,82,101)" stroke="rgb(62,82,101)" stroke-width="1" opacity="0.9921568627450981" d="M 613.5 168 L 617 168.5 L 613.5 169 L 613.5 168 Z " /><path fill="rgb(62,82,101)" stroke="rgb(62,82,101)" stroke-width="1" opacity="0.9921568627450981" d="M 116.5 171 L 119 172.5 L 117.5 173 Q 115 172 116.5 171 Z " /><path fill="rgb(62,82,101)" stroke="rgb(62,82,101)" stroke-width="1" opacity="0.9921568627450981" d="M 131.5 171 L 134 172.5 L 132.5 173 Q 130 172 131.5 171 Z " /><path fill="rgb(62,82,101)" stroke="rgb(62,82,101)" stroke-width="1" opacity="0.9921568627450981" d="M 146.5 171 L 149 172.5 L 147.5 173 Q 145 172 146.5 171 Z " /><path fill="rgb(62,82,101)" stroke="rgb(62,82,101)" stroke-width="1" opacity="0.9921568627450981" d="M 43.5 172 L 45 172.5 L 44.5 176 L 43.5 172 Z " /><path fill="rgb(62,82,101)" stroke="rgb(62,82,101)" stroke-width="1" opacity="0.9921568627450981" d="M 591.5 174 L 594 174.5 L 593.5 176 L 591 175.5 L 591.5 174 Z " /><path fill="rgb(62,82,101)" stroke="rgb(62,82,101)" stroke-width="1" opacity="0.9921568627450981" d="M 596.5 174 L 604.5 174 L 606 175.5 L 604.5 175 L 603.5 176 L 597.5 176 Q 595 175 596.5 174 Z " /><path fill="rgb(62,82,101)" stroke="rgb(62,82,101)" stroke-width="1" opacity="0.9921568627450981" d="M 612.5 174 L 616 174.5 L 615.5 176 Q 611.7 176.5 612.5 174 Z " /><path fill="rgb(62,82,101)" stroke="rgb(62,82,101)" stroke-width="1" opacity="0.9921568627450981" d="M 618.5 174 Q 624.5 172.5 626 175.5 L 619.5 176 Q 617 175 618.5 174 Z " /><path fill="rgb(62,82,101)" stroke="rgb(62,82,101)" stroke-width="1" opacity="0.9921568627450981" d="M 197.5 175 L 198 183.5 L 197 183.5 L 197.5 175 Z " /><path fill="rgb(62,82,101)" stroke="rgb(62,82,101)" stroke-width="1" opacity="0.9921568627450981" d="M 105.5 179 L 107 182.5 L 106 182.5 Q 104.3 181 105.5 179 Z " /><path fill="rgb(62,82,101)" stroke="rgb(62,82,101)" stroke-width="1" opacity="0.9921568627450981" d="M 67.5 180 L 69 183.5 L 68 183.5 Q 66.3 182 67.5 180 Z " /><path fill="rgb(62,82,101)" stroke="rgb(62,82,101)" stroke-width="1" opacity="0.9921568627450981" d="M 591.5 180 L 599.5 181 L 602.5 180 L 603.5 181 L 608 181.5 L 594.5 182 L 591.5 181 L 591.5 180 Z " /><path fill="rgb(62,82,101)" stroke="rgb(62,82,101)" stroke-width="1" opacity="0.9921568627450981" d="M 615.5 180 Q 616.8 182.3 621.5 181 Q 622.5 179 626.5 180 L 626.5 181 L 623.5 182 L 612.5 182 L 612.5 181 L 615.5 180 Z " /><path fill="rgb(62,82,101)" stroke="rgb(62,82,101)" stroke-width="1" opacity="0.9921568627450981" d="M 173.5 182 L 176 183.5 L 175.5 185 L 174.5 183 Q 172.1 182.9 173.5 182 Z " /><path fill="rgb(62,82,101)" stroke="rgb(62,82,101)" stroke-width="1" opacity="0.9921568627450981" d="M 181.5 182 L 183 182.5 L 181 183.5 L 180.5 185 L 180 183.5 L 181.5 182 Z " /><path fill="rgb(44,65,81)" stroke="rgb(44,65,81)" stroke-width="1" opacity="0.9764705882352941" d="M 481.5 139 L 530 139.5 L 481.5 140 L 481.5 139 Z " /><path fill="rgb(44,65,81)" stroke="rgb(44,65,81)" stroke-width="1" opacity="0.9764705882352941" d="M 572.5 139 L 575 139.5 L 572.5 140 L 572.5 139 Z " /><path fill="rgb(44,65,81)" stroke="rgb(44,65,81)" stroke-width="1" opacity="0.9764705882352941" d="M 576.5 139 L 596 139.5 L 576.5 140 L 576.5 139 Z " /><path fill="rgb(44,65,81)" stroke="rgb(44,65,81)" stroke-width="1" opacity="0.9764705882352941" d="M 106.5 151 L 106 152.5 L 105.5 155 L 105 152.5 L 106.5 151 Z " /><path fill="rgb(44,65,81)" stroke="rgb(44,65,81)" stroke-width="1" opacity="0.9764705882352941" d="M 197.5 152 L 198 155.5 L 197 155.5 L 197.5 152 Z " /><path fill="rgb(44,65,81)" stroke="rgb(44,65,81)" stroke-width="1" opacity="0.9764705882352941" d="M 143.5 155 Q 145.5 157.5 150 157.5 L 146.5 158 L 143 155.5 L 143.5 155 Z " /><path fill="rgb(44,65,81)" stroke="rgb(44,65,81)" stroke-width="1" opacity="0.9764705882352941" d="M 181.5 155 L 182 156.5 Q 180.6 158.6 176.5 158 L 174 156.5 L 175.5 156 Q 176.3 157.8 179.5 157 L 181.5 155 Z " /><path fill="rgb(44,65,81)" stroke="rgb(44,65,81)" stroke-width="1" opacity="0.9764705882352941" d="M 130.5 156 L 134 157.5 L 131.5 158 Q 129 157 130.5 156 Z " /><path fill="rgb(44,65,81)" stroke="rgb(44,65,81)" stroke-width="1" opacity="0.9764705882352941" d="M 159.5 156 L 165 157.5 L 161.5 158 L 159 156.5 L 159.5 156 Z " /><path fill="rgb(44,65,81)" stroke="rgb(44,65,81)" stroke-width="1" opacity="0.9764705882352941" d="M 588.5 156 L 594 156.5 L 588.5 157 L 588.5 156 Z " /><path fill="rgb(44,65,81)" stroke="rgb(44,65,81)" stroke-width="1" opacity="0.9764705882352941" d="M 609.5 156 L 615 156.5 L 609.5 157 L 609.5 156 Z " /><path fill="rgb(44,65,81)" stroke="rgb(44,65,81)" stroke-width="1" opacity="0.9764705882352941" d="M 44.5 157 L 45 163.5 L 44 163.5 L 44.5 157 Z " /><path fill="rgb(44,65,81)" stroke="rgb(44,65,81)" stroke-width="1" opacity="0.9764705882352941" d="M 105.5 157 L 106 161.5 L 105 161.5 L 105.5 157 Z " /><path fill="rgb(44,65,81)" stroke="rgb(44,65,81)" stroke-width="1" opacity="0.9764705882352941" d="M 116.5 157 L 119 157.5 L 116.5 158 L 116.5 157 Z " /><path fill="rgb(44,65,81)" stroke="rgb(44,65,81)" stroke-width="1" opacity="0.9764705882352941" d="M 612.5 162 L 615 162.5 L 612.5 163 L 612.5 162 Z " /><path fill="rgb(44,65,81)" stroke="rgb(44,65,81)" stroke-width="1" opacity="0.9764705882352941" d="M 589.5 168 L 592 168.5 L 589.5 169 L 589.5 168 Z " /><path fill="rgb(44,65,81)" stroke="rgb(44,65,81)" stroke-width="1" opacity="0.9764705882352941" d="M 595.5 168 L 602 168.5 L 595.5 169 L 595.5 168 Z " /><path fill="rgb(44,65,81)" stroke="rgb(44,65,81)" stroke-width="1" opacity="0.9764705882352941" d="M 609.5 168 L 613 168.5 L 609.5 169 L 609.5 168 Z " /><path fill="rgb(44,65,81)" stroke="rgb(44,65,81)" stroke-width="1" opacity="0.9764705882352941" d="M 617.5 168 L 621 168.5 L 617.5 169 L 617.5 168 Z " /><path fill="rgb(44,65,81)" stroke="rgb(44,65,81)" stroke-width="1" opacity="0.9764705882352941" d="M 197.5 170 L 198 174.5 L 197 174.5 L 197.5 170 Z " /><path fill="rgb(44,65,81)" stroke="rgb(44,65,81)" stroke-width="1" opacity="0.9764705882352941" d="M 589.5 174 L 591 174.5 L 590.5 176 L 589 175.5 L 589.5 174 Z " /><path fill="rgb(44,65,81)" stroke="rgb(44,65,81)" stroke-width="1" opacity="0.9764705882352941" d="M 116.5 177 L 119 177.5 L 114.5 179 L 114.5 178 L 116.5 177 Z " /><path fill="rgb(44,65,81)" stroke="rgb(44,65,81)" stroke-width="1" opacity="0.9764705882352941" d="M 131.5 177 L 134 177.5 L 129.5 179 L 129.5 178 L 131.5 177 Z " /><path fill="rgb(44,65,81)" stroke="rgb(44,65,81)" stroke-width="1" opacity="0.9764705882352941" d="M 146.5 177 Q 148 178 145.5 179 L 144 178.5 L 146.5 177 Z " /><path fill="rgb(44,65,81)" stroke="rgb(44,65,81)" stroke-width="1" opacity="0.9764705882352941" d="M 161.5 177 Q 163 178 160.5 179 L 159 178.5 L 161.5 177 Z " /><path fill="rgb(44,65,81)" stroke="rgb(44,65,81)" stroke-width="1" opacity="0.9764705882352941" d="M 176.5 177 Q 178 178 175.5 179 L 174 178.5 L 176.5 177 Z " /><path fill="rgb(44,65,81)" stroke="rgb(44,65,81)" stroke-width="1" opacity="0.9764705882352941" d="M 44.5 179 L 45 181.5 L 44 181.5 L 44.5 179 Z " /><path fill="rgb(44,65,81)" stroke="rgb(44,65,81)" stroke-width="1" opacity="0.9764705882352941" d="M 151.5 179 L 153 181.5 L 152 181.5 L 151.5 179 Z " /><path fill="rgb(44,65,81)" stroke="rgb(44,65,81)" stroke-width="1" opacity="0.9764705882352941" d="M 166.5 179 L 168 181.5 L 167 181.5 L 166.5 179 Z " /><path fill="rgb(44,65,81)" stroke="rgb(44,65,81)" stroke-width="1" opacity="0.9764705882352941" d="M 181.5 179 L 183 181.5 L 182 181.5 L 181.5 179 Z " /><path fill="rgb(44,65,81)" stroke="rgb(44,65,81)" stroke-width="1" opacity="0.9764705882352941" d="M 122.5 180 L 123 181.5 L 120.5 184 L 120 183.5 L 122.5 180 Z " /><path fill="rgb(44,65,81)" stroke="rgb(44,65,81)" stroke-width="1" opacity="0.9764705882352941" d="M 624.5 181 L 627 181.5 L 624.5 182 L 624.5 181 Z " /><path fill="rgb(44,65,81)" stroke="rgb(44,65,81)" stroke-width="1" opacity="0.9764705882352941" d="M 633.5 189 L 638 189.5 L 633.5 190 L 633.5 189 Z " /><path fill="rgb(255,170,0)" stroke="rgb(255,170,0)" stroke-width="1" opacity="0" d="M 2.5 165 L 8 165.5 L 3.5 166 L 2.5 167 L 2.5 165 Z " /><path fill="rgb(80,0,0)" stroke="rgb(80,0,0)" stroke-width="1" opacity="0" d="M 6.5 174 L 7 182.5 L 6 182.5 L 6.5 174 Z " /><path fill="rgb(8,33,50)" stroke="rgb(8,33,50)" stroke-width="1" opacity="0.8588235294117647" d="M 441.5 136 L 457 136.5 L 441.5 137 L 441.5 136 Z " /><path fill="rgb(8,33,50)" stroke="rgb(8,33,50)" stroke-width="1" opacity="0.8588235294117647" d="M 107.5 147 L 197 147.5 L 107.5 148 L 107.5 147 Z " /><path fill="rgb(8,33,50)" stroke="rgb(8,33,50)" stroke-width="1" opacity="0.8588235294117647" d="M 198.5 147 L 567 147.5 L 198.5 148 L 198.5 147 Z " /><path fill="rgb(8,33,50)" stroke="rgb(8,33,50)" stroke-width="1" opacity="0.8588235294117647" d="M 92.5 148 L 95 148.5 L 92.5 149 L 92.5 148 Z " /><path fill="rgb(8,33,50)" stroke="rgb(8,33,50)" stroke-width="1" opacity="0.8588235294117647" d="M 77.5 149 L 80 149.5 L 77.5 150 L 77.5 149 Z " /><path fill="rgb(8,33,50)" stroke="rgb(8,33,50)" stroke-width="1" opacity="0.8588235294117647" d="M 582.5 150 L 617 150.5 L 582.5 151 L 582.5 150 Z " /><path fill="rgb(8,33,50)" stroke="rgb(8,33,50)" stroke-width="1" opacity="0.8588235294117647" d="M 579.5 155 L 581 157.5 L 580 157.5 L 579.5 155 Z " /><path fill="rgb(8,33,50)" stroke="rgb(8,33,50)" stroke-width="1" opacity="0.8588235294117647" d="M 582.5 161 L 584 163.5 L 583 163.5 L 582.5 161 Z " /><path fill="rgb(8,33,50)" stroke="rgb(8,33,50)" stroke-width="1" opacity="0.8588235294117647" d="M 81.5 189 L 84 189.5 L 81.5 190 L 81.5 189 Z " /><path fill="rgb(8,33,50)" stroke="rgb(8,33,50)" stroke-width="1" opacity="0.8588235294117647" d="M 95.5 190 L 98 190.5 L 95.5 191 L 95.5 190 Z " /><path fill="rgb(0,255,255)" stroke="rgb(0,255,255)" stroke-width="1" opacity="0" d="M 623.5 135 L 640 135.5 L 623.5 136 L 623.5 135 Z " /><path fill="rgb(0,255,255)" stroke="rgb(0,255,255)" stroke-width="1" opacity="0" d="M 105.5 145 L 106 146.5 L 91.5 147 L 91.5 146 L 104.5 146 L 105.5 145 Z " /><path fill="rgb(0,255,255)" stroke="rgb(0,255,255)" stroke-width="1" opacity="0" d="M 67.5 148 L 78 148.5 L 67.5 149 L 67.5 148 Z " /><path fill="rgb(0,255,255)" stroke="rgb(0,255,255)" stroke-width="1" opacity="0" d="M 578.5 148 L 583 148.5 L 578.5 149 L 578.5 148 Z " /><path fill="rgb(0,255,255)" stroke="rgb(0,255,255)" stroke-width="1" opacity="0" d="M 597.5 148 L 605 148.5 L 597.5 149 L 597.5 148 Z " /><path fill="rgb(0,255,255)" stroke="rgb(0,255,255)" stroke-width="1" opacity="0" d="M 63.5 189 L 69 189.5 L 63.5 190 L 63.5 189 Z " /><path fill="rgb(0,255,255)" stroke="rgb(0,255,255)" stroke-width="1" opacity="0" d="M 80.5 191 L 96 191.5 L 80.5 192 L 80.5 191 Z " /><path fill="rgb(0,160,160)" stroke="rgb(0,160,160)" stroke-width="1" opacity="0" d="M 90.5 146 Q 93 147 91.5 148 L 76 147.5 L 89.5 147 L 90.5 146 Z " /><path fill="rgb(0,160,160)" stroke="rgb(0,160,160)" stroke-width="1" opacity="0" d="M 638.5 176 L 640 176.5 L 638.5 179 L 638.5 176 Z " /><path fill="rgb(0,160,160)" stroke="rgb(0,160,160)" stroke-width="1" opacity="0" d="M 594.5 190 L 631 190.5 L 594.5 191 L 594.5 190 Z " /><path fill="rgb(0,160,160)" stroke="rgb(0,160,160)" stroke-width="1" opacity="0" d="M 94.5 192 L 631 192.5 L 94.5 193 L 94.5 192 Z " /><path fill="rgb(0,110,112)" stroke="rgb(0,110,112)" stroke-width="1" opacity="0" d="M 625.5 140 L 640 140.5 L 625.5 141 L 625.5 140 Z " /><path fill="rgb(0,110,112)" stroke="rgb(0,110,112)" stroke-width="1" opacity="0" d="M 61.5 149 L 68 149.5 L 61.5 150 L 61.5 149 Z " /><path fill="rgb(0,110,112)" stroke="rgb(0,110,112)" stroke-width="1" opacity="0" d="M 50.5 151 L 57 151.5 L 50.5 152 L 50.5 151 Z " /><path fill="rgb(0,110,112)" stroke="rgb(0,110,112)" stroke-width="1" opacity="0" d="M 629.5 151 L 640 151.5 L 629.5 152 L 629.5 151 Z " /><path fill="rgb(0,110,112)" stroke="rgb(0,110,112)" stroke-width="1" opacity="0" d="M 633.5 162 L 640 162.5 L 633.5 163 L 633.5 162 Z " /><path fill="rgb(0,110,112)" stroke="rgb(0,110,112)" stroke-width="1" opacity="0" d="M 637.5 173 L 640 173.5 L 637.5 174 L 637.5 173 Z " /><path fill="rgb(0,110,112)" stroke="rgb(0,110,112)" stroke-width="1" opacity="0" d="M 57.5 188 L 64 188.5 L 57.5 189 L 57.5 188 Z " /><path fill="rgb(210,177,57)" stroke="rgb(210,177,57)" stroke-width="1" opacity="0.996078431372549" d="M 8.5 168 L 11 168.5 L 8.5 169 L 8.5 168 Z " /><path fill="rgb(0,25,80)" stroke="rgb(0,25,80)" stroke-width="1" opacity="0.011764705882352941" d="M 438.5 126 L 619 126.5 L 438.5 127 L 438.5 126 Z " /><path fill="rgb(0,25,80)" stroke="rgb(0,25,80)" stroke-width="1" opacity="0.011764705882352941" d="M 624.5 137 L 640 137.5 L 624.5 138 L 624.5 137 Z " /><path fill="rgb(0,25,80)" stroke="rgb(0,25,80)" stroke-width="1" opacity="0.011764705882352941" d="M 435.5 140 L 436 143.5 L 435 143.5 L 435.5 140 Z " /><path fill="rgb(0,25,80)" stroke="rgb(0,25,80)" stroke-width="1" opacity="0.011764705882352941" d="M 628.5 148 L 640 148.5 L 628.5 149 L 628.5 148 Z " /><path fill="rgb(0,25,80)" stroke="rgb(0,25,80)" stroke-width="1" opacity="0.011764705882352941" d="M 36.5 154 L 40 154.5 L 36.5 155 L 36.5 154 Z " /><path fill="rgb(0,25,80)" stroke="rgb(0,25,80)" stroke-width="1" opacity="0.011764705882352941" d="M 632.5 159 L 640 159.5 L 633 160.5 L 632.5 163 L 632.5 159 Z " /><path fill="rgb(0,25,80)" stroke="rgb(0,25,80)" stroke-width="1" opacity="0.011764705882352941" d="M 15.5 162 L 17 162.5 L 16.5 164 L 15 163.5 L 15.5 162 Z " /><path fill="rgb(0,25,80)" stroke="rgb(0,25,80)" stroke-width="1" opacity="0.011764705882352941" d="M 636.5 170 L 640 170.5 L 636.5 171 L 636.5 170 Z " /><path fill="rgb(0,25,80)" stroke="rgb(0,25,80)" stroke-width="1" opacity="0.011764705882352941" d="M 599.5 189 L 628 189.5 L 599.5 190 L 599.5 189 Z " /><path fill="rgb(0,25,80)" stroke="rgb(0,25,80)" stroke-width="1" opacity="0.011764705882352941" d="M 91.5 192 L 94 192.5 L 91.5 193 L 91.5 192 Z " /><path fill="rgb(0,25,80)" stroke="rgb(0,25,80)" stroke-width="1" opacity="0.011764705882352941" d="M 108.5 193 L 197 193.5 L 108.5 194 L 108.5 193 Z " /><path fill="rgb(0,25,80)" stroke="rgb(0,25,80)" stroke-width="1" opacity="0.011764705882352941" d="M 198.5 193 L 592 193.5 L 198.5 194 L 198.5 193 Z " /><path fill="rgb(81,89,50)" stroke="rgb(81,89,50)" stroke-width="1" opacity="0" d="M 6.5 164 L 12 164.5 L 6.5 165 L 6.5 164 Z " /><path fill="rgb(81,89,50)" stroke="rgb(81,89,50)" stroke-width="1" opacity="0" d="M 2.5 173 L 8.5 173 L 12 174.5 L 9 175.5 L 8.5 183 L 7 182.5 L 6.5 174 L 2.5 174 L 2.5 173 Z " /><path fill="rgb(111,103,116)" stroke="rgb(111,103,116)" stroke-width="1" opacity="0" d="M 40.5 153 L 45 153.5 L 40.5 155 L 40.5 153 Z " /><path fill="rgb(111,103,116)" stroke="rgb(111,103,116)" stroke-width="1" opacity="0" d="M 29.5 156 L 34 156.5 L 26.5 158 L 25.5 159 L 22.5 159 L 21.5 160 L 21 158.5 L 28.5 157 L 29.5 156 Z " /><path fill="rgb(111,103,116)" stroke="rgb(111,103,116)" stroke-width="1" opacity="0" d="M 22.5 180 L 27 180.5 L 26.5 183 L 25.5 181 L 23 181.5 L 22.5 183 L 22.5 180 Z " /><path fill="rgb(165,165,163)" stroke="rgb(165,165,163)" stroke-width="1" opacity="0" d="M 626.5 143 L 640 143.5 L 626.5 144 L 626.5 143 Z " /><path fill="rgb(165,165,163)" stroke="rgb(165,165,163)" stroke-width="1" opacity="0" d="M 45.5 152 L 51 152.5 L 46.5 153 L 45.5 154 L 45.5 152 Z " /><path fill="rgb(165,165,163)" stroke="rgb(165,165,163)" stroke-width="1" opacity="0" d="M 630.5 154 L 640 154.5 L 630.5 155 L 630.5 154 Z " /><path fill="rgb(165,165,163)" stroke="rgb(165,165,163)" stroke-width="1" opacity="0" d="M 634.5 165 L 640 165.5 L 635 166.5 L 634.5 168 L 634.5 165 Z " /><path fill="rgb(165,165,163)" stroke="rgb(165,165,163)" stroke-width="1" opacity="0" d="M 30.5 182 L 35 182.5 L 30.5 183 L 30.5 182 Z " /><path fill="rgb(165,165,163)" stroke="rgb(165,165,163)" stroke-width="1" opacity="0" d="M 41.5 185 L 47 185.5 L 42.5 186 L 41.5 187 L 41.5 185 Z " /><path fill="rgb(0,0,139)" stroke="rgb(0,0,139)" stroke-width="1" opacity="0" d="M 621.5 129 L 640 129.5 L 621.5 130 L 621.5 129 Z " /><path fill="rgb(0,0,139)" stroke="rgb(0,0,139)" stroke-width="1" opacity="0" d="M 622.5 132 L 640 132.5 L 623 133.5 L 622.5 135 L 622.5 132 Z " /><path fill="rgb(0,0,139)" stroke="rgb(0,0,139)" stroke-width="1" opacity="0" d="M 440.5 142 L 442 142.5 L 442.5 144 L 444 144.5 L 442.5 145 L 440 142.5 L 440.5 142 Z " /></svg>