<svg viewBox="0 0 640 640" version="1.1" xmlns="http://www.w3.org/2000/svg" desc="Created with imagetracer.js version 1.2.6" ><path fill="rgb(0,0,0)" stroke="rgb(0,0,0)" stroke-width="1" opacity="0.027450980392156862" d="M 0.5 0 L 640 0.5 L 639.5 640 L 0 639.5 L 0.5 0 Z M 158 43 L 157 44 L 143 44 L 142 45 L 131 45 L 130 46 L 120 46 L 119 47 L 102 48 L 101 49 L 94 49 L 93 50 L 85 50 L 84 51 L 70 52 L 69 53 L 62 53 L 61 54 L 55 54 L 54 55 L 48 55 L 47 56 L 41 56 L 40 57 L 31 58 L 29 60 L 28 70 L 27 71 L 27 76 L 26 77 L 26 82 L 25 83 L 24 96 L 23 97 L 23 104 L 22 105 L 22 112 L 21 113 L 21 122 L 20 123 L 20 136 L 19 137 L 19 175 L 20 176 L 20 184 L 24 193 L 33 200 L 39 203 L 48 204 L 49 205 L 59 204 L 65 202 L 71 198 L 74 194 L 85 187 L 92 186 L 93 185 L 99 185 L 100 184 L 107 184 L 108 185 L 119 186 L 129 190 L 137 195 Q 147 203 153 217 L 156 226 L 156 229 L 157 230 Q 156 234 158 236 L 158 245 L 159 246 L 159 257 L 158 258 L 158 268 L 157 269 L 156 280 L 152 292 L 146 303 L 133 315 L 120 320 L 104 320 L 99 318 L 96 318 L 84 311 L 79 305 L 74 299 L 64 295 L 56 295 Q 55 297 52 296 L 44 300 L 33 312 L 27 327 L 26 336 L 25 337 L 25 343 L 24 344 L 24 353 L 23 354 L 23 366 L 22 367 L 22 392 L 21 393 L 21 452 L 22 453 L 22 491 L 23 492 L 23 517 L 24 518 L 24 538 L 25 539 L 25 554 L 27 555 Q 30 554 31 556 L 41 557 L 42 558 L 47 558 L 48 559 L 53 559 L 54 560 L 59 560 L 60 561 L 73 562 L 74 563 L 82 563 L 83 564 L 92 564 L 93 565 L 108 565 L 109 566 L 131 566 L 132 565 L 142 565 L 143 564 L 150 563 L 155 560 L 160 554 L 165 542 L 165 525 Q 163 524 164 521 L 161 515 L 152 505 L 150 501 L 148 495 L 148 492 L 147 491 L 147 486 L 146 485 L 146 472 L 147 471 L 147 465 Q 149 464 148 461 L 150 455 L 157 442 L 171 429 L 181 424 L 187 422 L 190 422 L 191 421 L 196 421 L 197 420 L 225 420 L 226 421 L 236 422 L 248 426 L 261 434 L 267 441 L 272 449 L 272 451 L 275 457 L 275 461 L 276 462 L 276 478 L 275 479 L 274 486 L 272 489 L 272 491 L 267 499 L 260 504 L 253 515 Q 254 518 252 520 L 252 528 L 257 541 Q 264 550 276 555 L 282 557 L 285 557 L 286 558 Q 290 557 292 559 L 300 559 L 301 560 L 328 560 L 329 559 L 342 559 L 343 558 L 353 558 L 354 557 L 363 557 L 364 556 L 371 556 L 372 555 L 379 555 L 380 554 L 386 554 Q 387 552 392 553 L 393 552 L 399 552 Q 400 550 405 551 L 406 550 L 411 550 L 412 549 L 417 549 L 418 548 L 423 548 L 429 546 L 434 546 L 440 544 L 444 544 L 445 543 L 449 543 L 450 542 L 454 542 L 455 541 L 459 541 L 460 540 L 464 540 L 469 538 L 473 538 L 474 537 L 474 531 Q 472 529 473 525 L 472 524 L 471 511 L 470 510 L 470 503 L 469 502 L 469 495 L 468 494 L 468 487 L 467 486 L 466 469 L 465 468 L 465 460 L 464 459 L 464 451 L 463 450 L 463 440 L 462 439 L 462 426 L 461 425 L 461 404 L 460 403 L 461 377 L 462 376 L 462 371 L 463 368 L 467 360 L 473 354 L 479 351 Q 483 352 485 350 Q 488 349 489 351 L 495 351 L 504 354 L 517 361 L 523 369 L 535 380 L 544 386 L 554 390 L 562 391 L 563 392 L 576 392 L 577 391 L 585 390 L 599 384 L 605 380 L 618 367 L 624 358 L 633 337 L 634 330 L 635 329 L 635 325 L 636 324 L 636 318 L 637 317 L 637 283 L 636 282 L 636 275 L 635 274 L 635 269 L 634 268 L 633 260 L 624 237 L 613 222 Q 604 212 591 206 L 582 203 Q 577 204 577 202 L 570 202 L 569 201 L 560 201 L 559 202 L 552 202 L 551 203 L 543 204 L 537 206 L 526 212 L 517 221 L 510 236 L 500 245 L 491 248 L 482 248 L 470 243 Q 464 239 461 233 L 460 224 L 459 223 L 459 216 L 458 215 L 458 198 L 457 197 L 457 170 L 458 169 L 458 144 L 459 143 L 459 126 L 460 125 L 461 99 L 462 98 L 462 88 L 463 87 L 463 77 L 464 76 L 465 58 L 466 57 L 466 48 L 456 47 L 455 46 L 433 46 L 432 45 L 404 45 L 403 44 L 317 44 L 316 45 L 308 45 Q 307 47 304 46 L 297 50 L 291 57 L 288 65 L 288 72 L 291 81 L 309 100 L 314 110 L 315 117 L 316 118 L 316 135 L 315 136 L 314 144 L 308 158 L 302 167 L 291 178 L 279 186 L 263 192 L 253 193 L 252 194 L 232 194 Q 230 192 226 193 L 210 187 L 200 180 L 194 175 L 187 165 L 182 153 L 181 145 L 180 144 L 180 127 L 182 122 L 182 119 L 188 109 L 199 101 L 204 96 L 210 87 L 214 76 Q 213 71 215 70 L 214 59 L 211 53 L 205 46 L 196 43 L 158 43 Z " /><path fill="rgb(0,0,0)" stroke="rgb(0,0,0)" stroke-width="1" opacity="1" d="M 157.5 43 L 195.5 43 L 204.5 46 L 211 52.5 L 214 58.5 L 215 69.5 Q 212.8 70.8 214 75.5 L 210 86.5 L 204 95.5 L 198.5 101 L 188 108.5 L 182 118.5 L 182 121.5 L 180 126.5 L 180 143.5 L 181 144.5 L 182 152.5 L 187 164.5 L 194 174.5 L 199.5 180 L 209.5 187 L 225.5 193 Q 230.3 191.8 231.5 194 L 251.5 194 L 252.5 193 L 262.5 192 L 278.5 186 L 290.5 178 L 302 166.5 L 308 157.5 L 314 143.5 L 315 135.5 L 316 134.5 L 316 117.5 L 315 116.5 L 314 109.5 L 309 99.5 L 291 80.5 L 288 71.5 L 288 64.5 L 291 56.5 L 296.5 50 L 303.5 46 Q 306.7 46.8 307.5 45 L 315.5 45 L 316.5 44 L 402.5 44 L 403.5 45 L 431.5 45 L 432.5 46 L 454.5 46 L 455.5 47 L 466 47.5 L 466 56.5 L 465 57.5 L 464 75.5 L 463 76.5 L 463 86.5 L 462 87.5 L 462 97.5 L 461 98.5 L 460 124.5 L 459 125.5 L 459 142.5 L 458 143.5 L 458 168.5 L 457 169.5 L 457 196.5 L 458 197.5 L 458 214.5 L 459 215.5 L 459 222.5 L 460 223.5 L 461 232.5 Q 463.7 239.3 469.5 243 L 481.5 248 L 490.5 248 L 499.5 245 L 510 235.5 L 517 220.5 L 525.5 212 L 536.5 206 L 542.5 204 L 550.5 203 L 551.5 202 L 558.5 202 L 559.5 201 L 568.5 201 L 569.5 202 L 576.5 202 Q 577.5 204 581.5 203 L 590.5 206 Q 603.7 211.8 613 221.5 L 624 236.5 L 633 259.5 L 634 267.5 L 635 268.5 L 635 273.5 L 636 274.5 L 636 281.5 L 637 282.5 L 637 316.5 L 636 317.5 L 636 323.5 L 635 324.5 L 635 328.5 L 634 329.5 L 633 336.5 L 624 357.5 L 618 366.5 L 604.5 380 L 598.5 384 L 584.5 390 L 576.5 391 L 575.5 392 L 562.5 392 L 561.5 391 L 553.5 390 L 543.5 386 L 534.5 380 L 523 368.5 L 516.5 361 L 503.5 354 L 494.5 351 L 488.5 351 Q 487.8 349.3 484.5 350 Q 483.3 352.3 478.5 351 L 472.5 354 L 467 359.5 L 463 367.5 L 462 370.5 L 462 375.5 L 461 376.5 L 460 402.5 L 461 403.5 L 461 424.5 L 462 425.5 L 462 438.5 L 463 439.5 L 463 449.5 L 464 450.5 L 464 458.5 L 465 459.5 L 465 467.5 L 466 468.5 L 467 485.5 L 468 486.5 L 468 493.5 L 469 494.5 L 469 501.5 L 470 502.5 L 470 509.5 L 471 510.5 L 472 523.5 L 473 524.5 Q 471.7 529.3 474 530.5 L 474 536.5 L 472.5 538 L 468.5 538 L 463.5 540 L 459.5 540 L 458.5 541 L 454.5 541 L 453.5 542 L 449.5 542 L 448.5 543 L 444.5 543 L 443.5 544 L 439.5 544 L 433.5 546 L 428.5 546 L 422.5 548 L 417.5 548 L 416.5 549 L 411.5 549 L 410.5 550 L 405.5 550 L 404.5 551 Q 399.7 549.7 398.5 552 L 392.5 552 L 391.5 553 Q 386.7 551.7 385.5 554 L 379.5 554 L 378.5 555 L 371.5 555 L 370.5 556 L 363.5 556 L 362.5 557 L 353.5 557 L 352.5 558 L 342.5 558 L 341.5 559 L 328.5 559 L 327.5 560 L 300.5 560 L 299.5 559 L 291.5 559 Q 290.3 556.8 285.5 558 L 284.5 557 L 281.5 557 L 275.5 555 Q 263.9 550.1 257 540.5 L 252 527.5 L 252 519.5 Q 254 518.5 253 514.5 L 259.5 504 L 267 498.5 L 272 490.5 L 272 488.5 L 274 485.5 L 275 478.5 L 276 477.5 L 276 461.5 L 275 460.5 L 275 456.5 L 272 450.5 L 272 448.5 L 267 440.5 L 260.5 434 L 247.5 426 L 235.5 422 L 225.5 421 L 224.5 420 L 196.5 420 L 195.5 421 L 190.5 421 L 189.5 422 L 186.5 422 L 180.5 424 L 170.5 429 L 157 441.5 L 150 454.5 L 148 460.5 Q 148.8 463.7 147 464.5 L 147 470.5 L 146 471.5 L 146 484.5 L 147 485.5 L 147 490.5 L 148 491.5 L 148 494.5 L 150 500.5 L 152 504.5 L 161 514.5 L 164 520.5 Q 163.3 523.8 165 524.5 L 165 541.5 L 160 553.5 L 154.5 560 L 149.5 563 L 142.5 564 L 141.5 565 L 131.5 565 L 130.5 566 L 108.5 566 L 107.5 565 L 92.5 565 L 91.5 564 L 82.5 564 L 81.5 563 L 73.5 563 L 72.5 562 L 59.5 561 L 58.5 560 L 53.5 560 L 52.5 559 L 47.5 559 L 46.5 558 L 41.5 558 L 40.5 557 L 30.5 556 Q 29.7 554.3 26.5 555 L 25 553.5 L 25 538.5 L 24 537.5 L 24 517.5 L 23 516.5 L 23 491.5 L 22 490.5 L 22 452.5 L 21 451.5 L 21 392.5 L 22 391.5 L 22 366.5 L 23 365.5 L 23 353.5 L 24 352.5 L 24 343.5 L 25 342.5 L 25 336.5 L 26 335.5 L 27 326.5 L 33 311.5 L 43.5 300 L 51.5 296 Q 54.8 296.8 55.5 295 L 63.5 295 L 73.5 299 L 79 304.5 L 83.5 311 L 95.5 318 L 98.5 318 L 103.5 320 L 119.5 320 L 132.5 315 L 146 302.5 L 152 291.5 L 156 279.5 L 157 268.5 L 158 267.5 L 158 257.5 L 159 256.5 L 159 245.5 L 158 244.5 L 158 235.5 Q 155.8 234.3 157 229.5 L 156 228.5 L 156 225.5 L 153 216.5 Q 147.3 203.3 136.5 195 L 128.5 190 L 118.5 186 L 107.5 185 L 106.5 184 L 99.5 184 L 98.5 185 L 92.5 185 L 91.5 186 L 84.5 187 L 74 193.5 L 70.5 198 L 64.5 202 L 58.5 204 L 48.5 205 L 47.5 204 L 38.5 203 L 32.5 200 L 24 192.5 L 20 183.5 L 20 175.5 L 19 174.5 L 19 136.5 L 20 135.5 L 20 122.5 L 21 121.5 L 21 112.5 L 22 111.5 L 22 104.5 L 23 103.5 L 23 96.5 L 24 95.5 L 25 82.5 L 26 81.5 L 26 76.5 L 27 75.5 L 27 70.5 L 28 69.5 L 29 59.5 L 30.5 58 L 39.5 57 L 40.5 56 L 46.5 56 L 47.5 55 L 53.5 55 L 54.5 54 L 60.5 54 L 61.5 53 L 68.5 53 L 69.5 52 L 83.5 51 L 84.5 50 L 92.5 50 L 93.5 49 L 100.5 49 L 101.5 48 L 118.5 47 L 119.5 46 L 129.5 46 L 130.5 45 L 141.5 45 L 142.5 44 L 156.5 44 L 157.5 43 Z " /></svg>