<svg viewBox="0 0 609 640" version="1.1" xmlns="http://www.w3.org/2000/svg" desc="Created with imagetracer.js version 1.2.6" ><path fill="rgb(0,0,1)" stroke="rgb(0,0,1)" stroke-width="1" opacity="0.996078431372549" d="M 149.5 0 L 166.5 0 Q 167.5 2 171.5 1 L 172.5 2 L 178.5 3 L 186.5 7 L 189.5 10 L 190.5 9 L 194.5 9 L 199.5 7 L 211.5 6 L 212.5 5 L 240.5 5 L 241.5 6 L 250.5 7 L 263.5 12 Q 272.1 16.9 278 24.5 L 283 33.5 L 285 39.5 L 285 44.5 L 286.5 49 L 609 49.5 L 609 521.5 L 600 548.5 L 588 572.5 L 573 593.5 L 555.5 611 L 540.5 622 L 525.5 630 L 523.5 630 L 512.5 635 L 509.5 635 L 501.5 638 L 492.5 639 L 491.5 640 L 47.5 640 L 47 232.5 L 45.5 231 L 35.5 230 L 26.5 226 L 24.5 226 Q 14.5 221 8 212.5 L 3 203.5 L 1 197.5 Q 2 193.5 0 192.5 L 0 178.5 L 1 177.5 L 2 167.5 L 6 155.5 L 14 138.5 L 17 134.5 L 17 132.5 L 15 129.5 L 14 123.5 L 13 122.5 L 13 109.5 L 14 108.5 L 14 104.5 L 17 95.5 L 24 81.5 Q 37 60.5 55.5 45 L 70.5 33 L 82.5 25 L 102.5 14 L 104.5 14 L 111.5 10 L 116.5 9 L 125.5 5 L 132.5 4 L 137.5 2 L 141.5 2 L 142.5 1 L 148.5 1 L 149.5 0 Z M 143 11 L 142 12 L 136 12 L 127 15 L 124 15 L 115 18 L 110 21 L 108 21 L 87 32 L 65 48 Q 51 60 40 75 L 30 93 L 28 99 L 28 102 L 27 103 L 27 116 Q 29 116 28 120 L 31 125 L 38 131 L 51 136 L 72 136 L 73 135 L 78 135 L 83 133 L 86 133 L 98 129 L 124 116 Q 140 106 154 93 L 172 72 L 178 62 L 178 60 L 181 55 L 183 49 L 183 46 L 184 45 L 184 33 Q 182 32 183 29 L 179 22 L 176 18 L 167 13 L 159 12 L 158 11 L 143 11 Z M 206 15 L 205 16 L 197 16 L 195 18 L 198 24 Q 197 28 199 30 L 198 43 L 193 58 L 183 75 L 170 91 L 148 111 L 131 123 L 121 128 L 119 130 L 107 136 L 105 136 L 100 139 L 95 140 L 89 143 L 86 143 L 78 146 L 74 146 L 73 147 L 69 147 L 68 148 L 59 148 L 58 149 L 50 149 L 49 148 L 42 148 Q 41 146 38 147 L 32 145 L 23 140 L 17 152 L 17 155 L 14 164 L 14 171 L 13 172 L 14 184 L 16 190 L 23 201 L 35 209 L 37 209 L 46 213 Q 49 212 51 214 L 58 214 L 59 215 L 73 215 L 74 214 L 83 214 L 84 213 L 94 212 L 95 211 L 106 209 L 121 204 L 136 197 L 138 197 L 168 181 L 198 160 L 212 148 Q 233 129 249 105 L 260 84 L 263 75 L 263 72 L 264 71 L 264 68 L 265 67 L 265 48 L 264 47 L 263 41 L 259 34 L 250 24 L 240 19 L 234 17 L 230 17 L 229 16 L 223 16 L 222 15 L 206 15 Z M 285 66 L 283 68 L 282 75 L 277 86 L 277 88 L 266 108 Q 254 127 238 143 L 207 171 L 185 187 L 182 188 L 162 201 L 138 213 L 136 213 L 131 216 L 129 216 L 126 218 L 121 219 L 112 223 L 109 223 L 94 228 L 85 229 L 84 230 L 64 232 L 63 623 L 157 623 L 157 622 L 150 617 Q 135 605 125 589 L 120 579 L 116 567 L 116 564 L 115 563 L 115 558 L 114 557 L 114 535 L 115 534 L 115 529 L 116 528 L 116 525 L 117 524 L 117 521 L 119 515 L 129 495 L 140 480 L 149 471 L 149 472 L 146 478 L 145 485 L 144 486 L 144 492 L 143 493 L 143 508 L 144 509 L 144 514 L 146 519 L 146 522 L 151 533 L 157 540 L 178 528 L 180 528 L 185 525 L 200 520 L 207 519 L 208 518 L 212 518 L 213 517 L 217 517 L 218 516 L 224 516 L 225 515 L 235 515 L 236 514 L 258 514 L 259 515 L 270 515 L 271 516 L 283 517 L 284 518 L 288 518 L 297 521 L 300 521 L 301 522 L 304 522 L 325 529 L 348 540 L 350 540 L 352 542 L 370 551 L 392 565 Q 394 566 393 567 L 384 564 L 381 564 L 380 563 L 377 563 L 376 562 L 373 562 L 372 561 L 369 561 L 368 560 L 354 558 L 353 557 L 342 556 L 341 555 L 334 555 L 333 554 L 325 554 L 324 553 L 309 553 L 308 552 L 289 552 L 288 553 L 274 553 L 273 554 L 265 554 L 264 555 L 253 556 L 252 557 L 248 557 L 239 560 L 236 560 L 218 566 L 197 576 L 185 584 L 180 589 L 181 593 L 188 603 Q 199 615 216 623 L 481 623 L 482 622 L 492 621 L 513 614 L 525 608 L 541 597 L 560 578 L 575 556 L 587 530 L 591 518 L 592 511 L 593 510 L 593 67 L 285 66 Z " /><path fill="rgb(0,0,1)" stroke="rgb(0,0,1)" stroke-width="1" opacity="0.996078431372549" d="M 502.5 162 L 518 177.5 L 532 195.5 L 550 224.5 L 561 246.5 L 561 248.5 L 568 263.5 L 575 284.5 L 577 295.5 L 578 296.5 L 579 306.5 L 580 307.5 L 580 314.5 L 581 315.5 L 581 330.5 L 580 331.5 L 579 340.5 L 572.5 351 L 566.5 354 L 556.5 354 L 544.5 349 L 535.5 343 L 517 325.5 L 501 305.5 L 491 290.5 L 482 273.5 L 480 271.5 L 466 241.5 L 466 239.5 L 464 236.5 L 457 215.5 L 457 212.5 L 454 203.5 L 454 199.5 L 452 193.5 L 452 186.5 L 451 185.5 L 451 170.5 L 452 170.5 L 452.5 179 L 453.5 177 L 455 177.5 L 455 174.5 L 459.5 168 L 460 168.5 L 458 170.5 L 456 174.5 L 456 188.5 L 457 189.5 L 457 193.5 L 458 194.5 L 460 204.5 L 470 226.5 L 480 241.5 L 491.5 254 L 495 256.5 L 494.5 257 L 492.5 255 L 481.5 245 L 476.5 249 L 475 248.5 L 479 258.5 L 494 286.5 L 511 310.5 L 527.5 328 L 537.5 336 L 544.5 340 L 553.5 343 L 559.5 343 L 564.5 341 L 569 336.5 L 573 327.5 Q 571.7 322.8 574 321.5 L 574 307.5 L 573 306.5 L 573 299.5 L 572 298.5 L 572 294.5 L 571 293.5 L 571 289.5 L 570 288.5 L 569 281.5 L 562 260.5 L 560 257.5 L 560 255.5 L 547 228.5 L 532.5 206 L 511.5 222 L 510 221.5 L 512 227.5 L 512 230.5 L 513 231.5 L 513 234.5 L 514 235.5 L 514 240.5 L 513 240.5 L 513 235.5 L 512 234.5 L 511 227.5 L 507 218.5 L 507 216.5 L 503 209.5 L 503 207.5 L 490 186.5 L 477.5 173 L 474 170.5 L 474.5 170 L 476.5 172 L 480.5 175 L 481.5 174 L 489.5 174 L 490.5 173 L 500.5 173 L 501.5 172 L 511 171.5 L 502 162.5 L 502.5 162 Z " /><path fill="rgb(0,0,1)" stroke="rgb(0,0,1)" stroke-width="1" opacity="0.996078431372549" d="M 470.5 168 L 473 169.5 L 471.5 169 Q 469.1 168.9 470.5 168 Z " /><path fill="rgb(0,0,1)" stroke="rgb(0,0,1)" stroke-width="1" opacity="0.996078431372549" d="M 284.5 219 L 294.5 219 Q 295.3 220.7 298.5 220 L 314.5 227 Q 333.7 239.3 348 256.5 L 365 278.5 L 380 302.5 L 385 313.5 L 390 321.5 L 390 323.5 L 401 346.5 L 402 351.5 L 404 354.5 L 411 375.5 L 411 378.5 L 413 382.5 L 413 385.5 L 416 394.5 L 417 403.5 L 418 404.5 L 419 416.5 L 420 417.5 L 420 427.5 L 421 428.5 L 421 448.5 L 420 449.5 L 420 456.5 Q 418 457.5 419 461.5 L 418 462.5 L 418 465.5 L 416 471.5 Q 412.2 481.2 404.5 487 L 396.5 491 Q 391 490 388.5 492 L 387.5 491 L 381.5 491 Q 380.8 489.2 377.5 490 L 364.5 484 L 350.5 474 L 330 453.5 L 313 431.5 L 297 405.5 L 284 379.5 L 284 377.5 L 280 370.5 L 275 355.5 L 273 352.5 L 269 340.5 L 269 337.5 L 267 333.5 L 267 330.5 L 265 326.5 L 265 323.5 L 263 318.5 L 263 314.5 L 261 309.5 L 260 298.5 L 259 297.5 L 259 290.5 L 258 289.5 L 258 256.5 L 259 255.5 L 259 250.5 L 260 249.5 L 260 246.5 L 263 237.5 Q 267 228.5 274.5 223 L 284.5 219 Z M 276 246 L 272 248 L 269 251 L 265 261 L 265 281 L 266 282 L 266 287 L 267 288 L 267 291 L 270 299 L 271 305 L 283 331 L 294 347 L 308 360 L 312 362 Q 314 363 313 364 L 303 357 L 291 343 L 289 345 L 280 349 L 287 370 L 303 403 L 319 428 L 337 450 L 355 465 L 371 474 L 377 476 L 390 476 L 398 472 Q 405 467 408 458 L 410 448 L 411 447 L 411 441 L 412 440 L 412 418 L 411 417 L 411 409 L 410 408 L 410 403 L 409 402 L 408 392 L 405 383 L 405 380 L 403 376 L 403 373 L 397 355 L 390 340 L 390 338 L 378 314 L 372 303 L 371 305 L 336 322 L 337 333 L 338 334 L 338 349 L 337 334 L 336 333 L 335 323 L 334 322 L 334 319 L 333 318 L 333 315 L 331 309 L 318 281 L 306 264 L 292 250 L 283 246 L 276 246 Z M 336 318 L 335 321 L 336 321 L 336 318 Z M 280 345 L 279 348 L 280 348 L 280 345 Z " /><path fill="rgb(0,0,1)" stroke="rgb(0,0,1)" stroke-width="1" opacity="0.996078431372549" d="M 514.5 243 L 515 247.5 L 514 247.5 L 514.5 243 Z " /><path fill="rgb(0,0,1)" stroke="rgb(0,0,1)" stroke-width="1" opacity="0.996078431372549" d="M 513.5 250 L 514 252.5 L 513 252.5 L 513.5 250 Z " /><path fill="rgb(0,0,1)" stroke="rgb(0,0,1)" stroke-width="1" opacity="0.996078431372549" d="M 512.5 254 L 513 255.5 Q 512 258 511 256.5 L 512.5 254 Z " /><path fill="rgb(0,0,1)" stroke="rgb(0,0,1)" stroke-width="1" opacity="0.996078431372549" d="M 496.5 257 L 501 259.5 L 499.5 260 L 496 257.5 L 496.5 257 Z " /><path fill="rgb(0,0,1)" stroke="rgb(0,0,1)" stroke-width="1" opacity="0.996078431372549" d="M 502.5 260 L 507 260.5 L 502.5 261 L 502.5 260 Z " /><path fill="rgb(0,0,1)" stroke="rgb(0,0,1)" stroke-width="1" opacity="0.996078431372549" d="M 336.5 351 L 337 353.5 L 336 353.5 L 336.5 351 Z " /><path fill="rgb(0,0,1)" stroke="rgb(0,0,1)" stroke-width="1" opacity="0.996078431372549" d="M 335.5 355 L 336 356.5 Q 334 362 329.5 365 L 329 364.5 L 333 360.5 L 335.5 355 Z " /><path fill="rgb(0,0,1)" stroke="rgb(0,0,1)" stroke-width="1" opacity="0.996078431372549" d="M 320.5 366 L 325 366.5 L 320.5 367 L 320.5 366 Z " /><path fill="rgb(29,25,80)" stroke="rgb(29,25,80)" stroke-width="1" opacity="1" d="M 463.5 166 L 466 166.5 L 462.5 168 Q 461 167 463.5 166 Z " /><path fill="rgb(29,25,80)" stroke="rgb(29,25,80)" stroke-width="1" opacity="1" d="M 504.5 167 L 511 171.5 L 481 174.5 L 481.5 176 L 478.5 173 L 477 173.5 L 478 171.5 L 476 171.5 L 477.5 170 Q 482.2 171.2 483.5 169 L 493.5 169 L 494.5 168 L 503.5 168 L 504.5 167 Z " /><path fill="rgb(29,25,80)" stroke="rgb(29,25,80)" stroke-width="1" opacity="1" d="M 453.5 172 L 455 172.5 L 454.5 178 L 453 177.5 L 452.5 179 L 452 174.5 L 453.5 172 Z " /><path fill="rgb(29,25,80)" stroke="rgb(29,25,80)" stroke-width="1" opacity="1" d="M 531.5 205 L 543 221.5 L 557 249.5 L 556.5 251 L 558 251.5 L 557 253.5 L 559 253.5 L 560 256.5 L 559 258.5 L 561 258.5 L 562 261.5 L 559.5 265 L 508.5 304 Q 507.5 302 506.5 304 L 504 301.5 L 504.5 300 L 502 298.5 L 502.5 297 L 500 295.5 L 488 276.5 L 476 252.5 L 475 248.5 L 476.5 249 L 478.5 247 L 481 245.5 L 477 240.5 L 477.5 240 L 481 243.5 L 483.5 247 L 485 246.5 L 484 247.5 L 490.5 254 L 492 253.5 L 491.5 255 L 494.5 257 L 496 256.5 L 497.5 259 L 500.5 260 L 502 259.5 L 502.5 261 L 507 260.5 L 507.5 259 Q 508.8 261.3 510 258.5 L 510.5 257 L 513 255.5 L 514 250.5 L 513 248.5 L 515 247.5 L 514.5 243 L 513 243.5 L 514 240.5 L 514 235.5 L 512 235.5 Q 513.8 234.8 513 231.5 L 511.5 227 L 510 227.5 L 511 224.5 L 509 224.5 L 510 221.5 L 508 221.5 L 509.5 219 L 511.5 222 L 527.5 209 L 532 206.5 L 531.5 205 Z " /><path fill="rgb(29,25,80)" stroke="rgb(29,25,80)" stroke-width="1" opacity="1" d="M 562.5 263 L 563 264.5 L 561.5 267 L 561 265.5 L 562.5 263 Z " /><path fill="rgb(29,25,80)" stroke="rgb(29,25,80)" stroke-width="1" opacity="1" d="M 257.5 267 L 258 275.5 L 257 275.5 L 257.5 267 Z " /><path fill="rgb(29,25,80)" stroke="rgb(29,25,80)" stroke-width="1" opacity="1" d="M 572.5 299 L 573 301.5 L 572 301.5 L 572.5 299 Z " /><path fill="rgb(29,25,80)" stroke="rgb(29,25,80)" stroke-width="1" opacity="1" d="M 370.5 302 L 378 313.5 L 390 337.5 L 390 339.5 L 393 344.5 L 393 346.5 L 395 349.5 L 399 361.5 L 398.5 363 L 400 363.5 L 401 367.5 L 400 369.5 L 402 369.5 L 401 373.5 L 402 373.5 L 402.5 372 L 403 373.5 Q 401.3 374.3 402 377.5 L 403 377.5 L 403.5 376 L 404 377.5 L 402.5 380 L 394.5 384 L 392.5 384 L 315.5 422 L 316 420.5 L 315 419.5 L 314.5 418 L 313 418.5 L 314 416.5 L 312.5 417 L 311 415.5 L 311.5 414 L 309 412.5 L 308 410.5 L 308.5 409 L 306 407.5 L 290 376.5 L 290 374.5 L 283 359.5 L 279 345.5 L 280 345.5 L 280.5 348 L 286.5 346 L 290 343.5 L 288 341.5 L 288.5 341 L 302.5 357 L 306.5 360 L 308 359.5 L 307.5 361 L 312.5 364 L 314 363.5 L 314.5 365 L 316 364.5 L 316.5 366 L 318.5 365 Q 319.5 368 324.5 367 L 328 365.5 L 328.5 364 L 329.5 365 L 334 360.5 L 336 355.5 L 335.5 354 L 337 353.5 L 336 350.5 L 338 348.5 L 338 333.5 L 336 333.5 L 337 332.5 L 337 326.5 L 336 325.5 L 335 318.5 L 336 318.5 L 336.5 321 L 371 304.5 L 370.5 302 Z " /><path fill="rgb(29,25,80)" stroke="rgb(29,25,80)" stroke-width="1" opacity="1" d="M 507.5 305 L 510 307.5 L 509.5 308 L 507 305.5 L 507.5 305 Z " /><path fill="rgb(29,25,80)" stroke="rgb(29,25,80)" stroke-width="1" opacity="1" d="M 573.5 307 L 574 313.5 L 573 313.5 L 573.5 307 Z " /><path fill="rgb(29,25,80)" stroke="rgb(29,25,80)" stroke-width="1" opacity="1" d="M 511.5 310 L 514 312.5 L 513.5 313 L 511 310.5 L 511.5 310 Z " /><path fill="rgb(29,25,80)" stroke="rgb(29,25,80)" stroke-width="1" opacity="1" d="M 517.5 317 L 528 327.5 L 527.5 328 L 517 317.5 L 517.5 317 Z " /><path fill="rgb(29,25,80)" stroke="rgb(29,25,80)" stroke-width="1" opacity="1" d="M 573.5 318 L 574 321.5 L 573 321.5 L 573.5 318 Z " /><path fill="rgb(29,25,80)" stroke="rgb(29,25,80)" stroke-width="1" opacity="1" d="M 286.5 338 L 287.5 339 L 289 338.5 L 287.5 340 Q 285 339 286.5 338 Z " /><path fill="rgb(29,25,80)" stroke="rgb(29,25,80)" stroke-width="1" opacity="1" d="M 553.5 342 L 560 342.5 L 553.5 343 L 553.5 342 Z " /><path fill="rgb(29,25,80)" stroke="rgb(29,25,80)" stroke-width="1" opacity="1" d="M 407.5 391 L 408 393.5 L 407 393.5 L 407.5 391 Z " /><path fill="rgb(29,25,80)" stroke="rgb(29,25,80)" stroke-width="1" opacity="1" d="M 408.5 396 L 409 398.5 L 408 398.5 L 408.5 396 Z " /><path fill="rgb(29,25,80)" stroke="rgb(29,25,80)" stroke-width="1" opacity="1" d="M 409.5 402 L 410 404.5 L 409 404.5 L 409.5 402 Z " /><path fill="rgb(29,25,80)" stroke="rgb(29,25,80)" stroke-width="1" opacity="1" d="M 410.5 408 L 411 411.5 L 410 411.5 L 410.5 408 Z " /><path fill="rgb(29,25,80)" stroke="rgb(29,25,80)" stroke-width="1" opacity="1" d="M 411.5 417 L 412 423.5 L 411 423.5 L 411.5 417 Z " /><path fill="rgb(29,25,80)" stroke="rgb(29,25,80)" stroke-width="1" opacity="1" d="M 411.5 435 L 412 439.5 L 411 439.5 L 411.5 435 Z " /><path fill="rgb(29,25,80)" stroke="rgb(29,25,80)" stroke-width="1" opacity="1" d="M 329.5 440 L 332 442.5 L 331.5 443 L 329 440.5 L 329.5 440 Z " /><path fill="rgb(29,25,80)" stroke="rgb(29,25,80)" stroke-width="1" opacity="1" d="M 337.5 449 L 344 455.5 L 343.5 456 L 337 449.5 L 337.5 449 Z " /><path fill="rgb(29,25,80)" stroke="rgb(29,25,80)" stroke-width="1" opacity="1" d="M 288.5 552 L 291 552.5 L 288.5 553 L 288.5 552 Z " /><path fill="rgb(29,25,80)" stroke="rgb(29,25,80)" stroke-width="1" opacity="1" d="M 305.5 552 L 308 552.5 L 305.5 553 L 305.5 552 Z " /><path fill="rgb(89,52,0)" stroke="rgb(89,52,0)" stroke-width="1" opacity="1" d="M 142.5 11 L 145 11.5 L 142.5 12 L 142.5 11 Z " /><path fill="rgb(89,52,0)" stroke="rgb(89,52,0)" stroke-width="1" opacity="1" d="M 205.5 15 L 211 15.5 L 205.5 16 L 205.5 15 Z " /><path fill="rgb(89,52,0)" stroke="rgb(89,52,0)" stroke-width="1" opacity="1" d="M 216.5 15 L 222 15.5 L 216.5 16 L 216.5 15 Z " /><path fill="rgb(89,52,0)" stroke="rgb(89,52,0)" stroke-width="1" opacity="1" d="M 175.5 18 L 179 21.5 L 178.5 22 L 175 18.5 L 175.5 18 Z " /><path fill="rgb(89,52,0)" stroke="rgb(89,52,0)" stroke-width="1" opacity="1" d="M 198.5 26 L 199 28.5 L 198 28.5 L 198.5 26 Z " /><path fill="rgb(89,52,0)" stroke="rgb(89,52,0)" stroke-width="1" opacity="1" d="M 64.5 48 L 65 48.5 L 62.5 51 L 62 50.5 L 64.5 48 Z " /><path fill="rgb(89,52,0)" stroke="rgb(89,52,0)" stroke-width="1" opacity="1" d="M 158.5 87 L 159 87.5 L 153.5 93 L 153 92.5 L 158.5 87 Z " /><path fill="rgb(89,52,0)" stroke="rgb(89,52,0)" stroke-width="1" opacity="1" d="M 172.5 87 L 173 87.5 L 170.5 90 L 170 89.5 L 172.5 87 Z " /><path fill="rgb(89,52,0)" stroke="rgb(89,52,0)" stroke-width="1" opacity="1" d="M 159.5 100 L 160 100.5 L 157.5 103 L 157 102.5 L 159.5 100 Z " /><path fill="rgb(89,52,0)" stroke="rgb(89,52,0)" stroke-width="1" opacity="1" d="M 228.5 130 L 229 130.5 L 225.5 134 L 225 133.5 L 228.5 130 Z " /><path fill="rgb(89,52,0)" stroke="rgb(89,52,0)" stroke-width="1" opacity="1" d="M 214.5 144 L 215 144.5 L 211.5 148 L 211 147.5 L 214.5 144 Z " /><path fill="rgb(89,52,0)" stroke="rgb(89,52,0)" stroke-width="1" opacity="1" d="M 46.5 148 L 49 148.5 L 46.5 149 L 46.5 148 Z " /><path fill="rgb(89,52,0)" stroke="rgb(89,52,0)" stroke-width="1" opacity="1" d="M 58.5 148 L 62 148.5 L 58.5 149 L 58.5 148 Z " /><path fill="rgb(89,52,0)" stroke="rgb(89,52,0)" stroke-width="1" opacity="1" d="M 13.5 171 L 14 176.5 L 13 176.5 L 13.5 171 Z " /><path fill="rgb(89,52,0)" stroke="rgb(89,52,0)" stroke-width="1" opacity="1" d="M 80.5 213 L 83 213.5 L 80.5 214 L 80.5 213 Z " /><path fill="rgb(89,52,0)" stroke="rgb(89,52,0)" stroke-width="1" opacity="1" d="M 58.5 214 L 73 214.5 L 58.5 215 L 58.5 214 Z " /><path fill="rgb(166,99,0)" stroke="rgb(166,99,0)" stroke-width="1" opacity="1" d="M 145.5 11 L 156 11.5 L 145.5 12 L 145.5 11 Z " /><path fill="rgb(166,99,0)" stroke="rgb(166,99,0)" stroke-width="1" opacity="1" d="M 211.5 15 L 216 15.5 L 211.5 16 L 211.5 15 Z " /><path fill="rgb(166,99,0)" stroke="rgb(166,99,0)" stroke-width="1" opacity="1" d="M 198.5 16 L 201 16.5 L 198.5 17 L 198.5 16 Z " /><path fill="rgb(166,99,0)" stroke="rgb(166,99,0)" stroke-width="1" opacity="1" d="M 183.5 33 L 184 35.5 L 183 35.5 L 183.5 33 Z " /><path fill="rgb(166,99,0)" stroke="rgb(166,99,0)" stroke-width="1" opacity="1" d="M 183.5 40 L 184 42.5 L 183 42.5 L 183.5 40 Z " /><path fill="rgb(166,99,0)" stroke="rgb(166,99,0)" stroke-width="1" opacity="1" d="M 61.5 51 L 62 51.5 L 58.5 55 L 58 54.5 L 61.5 51 Z " /><path fill="rgb(166,99,0)" stroke="rgb(166,99,0)" stroke-width="1" opacity="1" d="M 52.5 60 L 53 60.5 L 49.5 64 L 49 63.5 L 52.5 60 Z " /><path fill="rgb(166,99,0)" stroke="rgb(166,99,0)" stroke-width="1" opacity="1" d="M 175.5 84 L 176 84.5 L 173.5 87 L 173 86.5 L 175.5 84 Z " /><path fill="rgb(166,99,0)" stroke="rgb(166,99,0)" stroke-width="1" opacity="1" d="M 148.5 96 L 149 96.5 L 146.5 99 L 146 98.5 L 148.5 96 Z " /><path fill="rgb(166,99,0)" stroke="rgb(166,99,0)" stroke-width="1" opacity="1" d="M 224.5 134 L 225 134.5 L 215.5 144 L 215 143.5 L 224.5 134 Z " /><path fill="rgb(166,99,0)" stroke="rgb(166,99,0)" stroke-width="1" opacity="1" d="M 43.5 148 L 46 148.5 L 43.5 149 L 43.5 148 Z " /><path fill="rgb(166,99,0)" stroke="rgb(166,99,0)" stroke-width="1" opacity="1" d="M 62.5 148 L 65 148.5 L 62.5 149 L 62.5 148 Z " /><path fill="rgb(166,99,0)" stroke="rgb(166,99,0)" stroke-width="1" opacity="1" d="M 207.5 150 L 208 150.5 L 205.5 153 L 205 152.5 L 207.5 150 Z " /><path fill="rgb(88,110,143)" stroke="rgb(88,110,143)" stroke-width="1" opacity="1" d="M 459.5 148 L 460 148.5 L 457.5 151 L 457 150.5 L 459.5 148 Z " /><path fill="rgb(88,110,143)" stroke="rgb(88,110,143)" stroke-width="1" opacity="1" d="M 63.5 234 L 64 620.5 L 63 620.5 L 63.5 234 Z " /><path fill="rgb(88,110,143)" stroke="rgb(88,110,143)" stroke-width="1" opacity="1" d="M 143.5 497 L 144 502.5 L 143 502.5 L 143.5 497 Z " /><path fill="rgb(132,178,254)" stroke="rgb(132,178,254)" stroke-width="1" opacity="1" d="M 235.5 145 L 236 145.5 L 232.5 149 L 232 148.5 L 235.5 145 Z " /><path fill="rgb(132,178,254)" stroke="rgb(132,178,254)" stroke-width="1" opacity="1" d="M 83.5 301 L 87.5 302 L 89 303.5 L 87.5 304 L 83.5 302 L 83.5 301 Z " /><path fill="rgb(132,178,254)" stroke="rgb(132,178,254)" stroke-width="1" opacity="1" d="M 80.5 303 L 85.5 306 L 92 307.5 L 92.5 309 L 100.5 311 L 102.5 313 L 108 314.5 L 108.5 316 L 111.5 316 L 115 317.5 L 115.5 319 L 120.5 320 L 122.5 322 L 127.5 323 L 132.5 326 L 138 327.5 L 138.5 329 L 144.5 330 L 152.5 335 L 159 336.5 L 159.5 338 L 164.5 339 L 169.5 342 L 175 343.5 L 175.5 345 L 178.5 345 L 182 346.5 L 182.5 348 L 187.5 349 L 189.5 351 L 194.5 352 L 196.5 354 L 205 356.5 L 205.5 358 L 209.5 358 L 213.5 361 L 216.5 361 L 220 362.5 L 219.5 364 L 227 365.5 L 226.5 367 L 235.5 370 Q 238 369 236.5 368 L 233 366.5 L 236.5 366 L 239 368.5 L 238.5 369 L 236 370.5 L 242 372.5 L 242.5 374 L 249.5 375 L 252.5 378 L 253.5 377 L 255.5 379 L 257 378.5 L 257.5 381 L 259.5 379 L 260 379.5 Q 257.8 380.8 260.5 382 L 263.5 381 L 265.5 383 L 267 382.5 L 266.5 384 L 272 385.5 L 272.5 387 Q 273.5 385 274.5 387 L 276.5 387 L 282.5 391 Q 283.5 389 284.5 391 L 287 390.5 L 283.5 388 L 281.5 388 L 268 381.5 Q 269 379 270 380.5 L 270.5 382 L 272.5 383 L 273.5 382 L 275.5 384 L 277 383.5 L 277.5 385 L 282.5 387 L 284 384.5 L 281 378.5 L 282 378.5 L 283.5 382 L 285 381.5 L 284 383.5 L 286 383.5 L 285 385.5 L 287 385.5 L 286 387.5 L 291.5 398 L 293 397.5 L 292 399.5 L 294 399.5 L 293 401.5 L 295 401.5 L 294 403.5 L 298.5 411 L 300 410.5 L 299 412.5 L 301.5 416 L 303 415.5 L 302 417.5 L 304.5 421 L 306 420.5 Q 304 421.5 306 422.5 L 306.5 424 L 308 423.5 L 307 425.5 L 314.5 436 L 316 435.5 Q 314 436.5 316 437.5 L 317.5 440 L 319 439.5 Q 317 440.5 319 441.5 L 320.5 444 L 322 443.5 Q 319.5 445 323 446.5 L 323.5 448 L 325 447.5 L 324 448.5 L 327 451.5 L 328.5 454 Q 329.8 451.7 331 454.5 L 330 455.5 L 335 460.5 L 342.5 469 L 348.5 474 Q 349.8 471.8 351 474.5 L 350.5 476 L 357.5 481 L 359 480.5 L 358.5 482 L 360.5 483 L 362 482.5 L 361.5 484 L 365.5 486 L 367 485.5 L 366.5 487 L 368.5 486 L 368.5 488 L 370.5 487 L 370.5 489 L 372.5 488 L 373.5 490 L 380.5 492 L 382 491.5 L 382.5 493 L 395.5 493 L 405 488.5 L 404.5 487 L 405.5 488 L 412 481.5 L 411.5 480 L 413 480.5 L 414 478.5 L 413.5 477 L 415 477.5 L 414 475.5 L 416 475.5 L 415 473.5 L 417 473.5 L 418 469.5 L 417.5 468 L 419 468.5 L 420 462.5 L 419.5 461 L 421 461.5 Q 420 457.5 422 456.5 L 422 449.5 L 423 448.5 L 423.5 430 L 424 447.5 L 426 449.5 L 424.5 450 L 423 449.5 L 423.5 452 L 445 460.5 L 445.5 462 L 451.5 463 L 459.5 468 L 466 469.5 L 466.5 471 L 471.5 472 L 476.5 475 L 482 476.5 L 482.5 478 L 485.5 478 L 489 479.5 L 489.5 481 L 494.5 482 L 496.5 484 L 501.5 485 L 506.5 488 L 512 489.5 L 512.5 491 L 518.5 492 L 526.5 497 L 533 498.5 L 533.5 500 L 538.5 501 L 543.5 504 L 549 505.5 L 549.5 507 L 552.5 507 L 556 508.5 L 556.5 510 L 561.5 511 L 563.5 513 L 568.5 514 L 570.5 516 L 573.5 516 L 574 514.5 L 570 512.5 L 571.5 512 L 574.5 514 L 575.5 511 L 576 513.5 L 568 529.5 L 568 531.5 L 554 554.5 Q 542.4 570.9 527.5 584 L 506.5 599 L 494.5 605 L 492.5 605 L 489.5 607 L 480.5 610 L 198.5 610 L 197.5 611 Q 186.4 602.1 180 588.5 L 194.5 578 L 201.5 575 L 203.5 573 L 207.5 572 L 219.5 566 L 234.5 561 L 237.5 561 L 246.5 558 L 250.5 558 L 251.5 557 L 255.5 557 L 256.5 556 L 261.5 556 L 262.5 555 L 269.5 555 L 270.5 554 L 281.5 554 L 282.5 553 L 293.5 553 L 294.5 554 L 303.5 554 L 304.5 553 L 313.5 553 L 314.5 554 Q 319.3 553.2 321.5 555 Q 322.5 553 326.5 554 L 331.5 556 L 334.5 555 L 339.5 557 L 342.5 556 Q 343 558.5 346.5 558 L 348.5 557 Q 349 559.5 352.5 559 L 354.5 558 L 357.5 560 L 359.5 559 L 362.5 561 L 364.5 560 L 367.5 562 Q 369 559.5 370.5 563 L 373.5 562 L 374.5 564 L 377.5 563 L 378.5 565 L 381.5 564 L 382.5 566 L 384.5 565 L 387.5 567 L 388.5 566 L 390.5 568 L 391.5 567 Q 393 570.5 394.5 568 L 396 567.5 L 394 566.5 L 393.5 565 L 391 564.5 L 389.5 562 L 388 562.5 L 386.5 560 L 385 560.5 L 383.5 558 L 382 558.5 L 381.5 557 L 379 556.5 L 378.5 555 L 377 555.5 L 375.5 553 L 374 553.5 L 373.5 552 L 370.5 550 L 369 550.5 L 368.5 549 L 367 549.5 L 365.5 547 L 364 547.5 L 363.5 546 L 362 546.5 L 361.5 545 L 360 545.5 L 359.5 544 L 354.5 541 L 353 541.5 L 352.5 540 L 351 540.5 L 350.5 539 L 349 539.5 L 348.5 538 L 347 538.5 L 346.5 537 L 345 537.5 L 344.5 536 L 342.5 536 L 339.5 534 L 338 534.5 L 337.5 533 L 336 533.5 L 335.5 532 L 334.5 533 L 332.5 531 L 331 531.5 L 330.5 530 L 329 530.5 L 328.5 529 L 326.5 530 L 325.5 528 L 324.5 529 L 322.5 527 L 321 527.5 L 320.5 526 L 318.5 527 L 317.5 525 L 316.5 526 L 314.5 524 L 313.5 525 Q 312 521.5 310.5 524 L 309 523.5 L 308.5 522 L 306.5 523 L 305.5 521 L 303.5 522 L 300.5 520 L 299 520.5 L 298.5 519 L 295.5 520 L 294.5 518 L 291.5 519 L 288.5 517 L 286.5 518 L 285.5 516 L 281.5 517 Q 281 514.5 277.5 515 L 275.5 516 L 272.5 514 L 270.5 514 L 267.5 515 Q 265.8 512.2 260.5 513 L 259.5 514 L 252.5 514 L 251.5 513 L 241.5 513 L 240.5 514 L 233.5 514 L 230.5 513 L 229.5 514 L 223.5 515 Q 222.5 513 221.5 515 L 216.5 516 Q 215.5 514 214.5 516 L 211.5 517 Q 210.5 515 209.5 517 L 203.5 519 L 200.5 519 L 199.5 520 Q 198 517.5 196.5 521 L 180.5 526 L 156.5 539 L 153 534.5 L 146 518.5 L 145 510.5 L 144 509.5 L 144 495.5 Q 146 494.5 144 493.5 L 144 490.5 L 146 486.5 L 145 484.5 L 147 481.5 L 146 480.5 Q 149.5 479 147 477.5 L 149 474.5 L 148.5 473 L 150 472.5 L 149.5 469 L 141 476.5 L 138.5 481 L 136 482.5 Q 136.5 485.5 134.5 486 L 133 486.5 L 133 488.5 L 127 496.5 L 120 510.5 L 120 512.5 L 116 521.5 L 115 529.5 L 114 530.5 L 114 536.5 L 113 537.5 L 113 553.5 L 114 554.5 L 115 565.5 L 119 577.5 L 130 597.5 L 141 609.5 L 80.5 610 L 80.5 303 Z " /><path fill="rgb(132,178,254)" stroke="rgb(132,178,254)" stroke-width="1" opacity="1" d="M 92.5 305 L 96 306.5 L 94.5 307 L 92 305.5 L 92.5 305 Z " /><path fill="rgb(132,178,254)" stroke="rgb(132,178,254)" stroke-width="1" opacity="1" d="M 99.5 308 L 103.5 309 L 105 310.5 L 103.5 311 L 99.5 309 L 99.5 308 Z " /><path fill="rgb(132,178,254)" stroke="rgb(132,178,254)" stroke-width="1" opacity="1" d="M 106.5 311 L 110.5 312 L 112 313.5 L 110.5 314 L 106.5 312 L 106.5 311 Z " /><path fill="rgb(132,178,254)" stroke="rgb(132,178,254)" stroke-width="1" opacity="1" d="M 113.5 314 L 117.5 315 L 119 316.5 L 117.5 317 L 113.5 315 L 113.5 314 Z " /><path fill="rgb(132,178,254)" stroke="rgb(132,178,254)" stroke-width="1" opacity="1" d="M 120.5 317 L 124.5 318 L 126 319.5 L 124.5 320 L 120.5 318 L 120.5 317 Z " /><path fill="rgb(132,178,254)" stroke="rgb(132,178,254)" stroke-width="1" opacity="1" d="M 581.5 319 L 582 322.5 L 581 322.5 L 581.5 319 Z " /><path fill="rgb(132,178,254)" stroke="rgb(132,178,254)" stroke-width="1" opacity="1" d="M 129.5 321 L 133.5 322 L 135 323.5 L 133.5 324 L 129.5 322 L 129.5 321 Z " /><path fill="rgb(132,178,254)" stroke="rgb(132,178,254)" stroke-width="1" opacity="1" d="M 136.5 324 L 140.5 325 L 142 326.5 L 140.5 327 L 136.5 325 L 136.5 324 Z " /><path fill="rgb(132,178,254)" stroke="rgb(132,178,254)" stroke-width="1" opacity="1" d="M 581.5 324 L 582 327.5 L 581 327.5 L 581.5 324 Z " /><path fill="rgb(132,178,254)" stroke="rgb(132,178,254)" stroke-width="1" opacity="1" d="M 143.5 327 L 147.5 328 L 149 329.5 L 147.5 330 L 143.5 328 L 143.5 327 Z " /><path fill="rgb(132,178,254)" stroke="rgb(132,178,254)" stroke-width="1" opacity="1" d="M 150.5 330 L 154.5 331 L 156 332.5 L 154.5 333 L 150.5 331 L 150.5 330 Z " /><path fill="rgb(132,178,254)" stroke="rgb(132,178,254)" stroke-width="1" opacity="1" d="M 159.5 334 L 163 335.5 L 161.5 336 L 159 334.5 L 159.5 334 Z " /><path fill="rgb(132,178,254)" stroke="rgb(132,178,254)" stroke-width="1" opacity="1" d="M 166.5 337 L 168.5 337 L 172 339.5 L 170.5 340 L 166.5 338 L 166.5 337 Z " /><path fill="rgb(132,178,254)" stroke="rgb(132,178,254)" stroke-width="1" opacity="1" d="M 173.5 340 L 177.5 341 L 179 342.5 L 177.5 343 L 173.5 341 L 173.5 340 Z " /><path fill="rgb(132,178,254)" stroke="rgb(132,178,254)" stroke-width="1" opacity="1" d="M 180.5 343 L 184.5 344 L 186 345.5 L 184.5 346 L 180.5 344 L 180.5 343 Z " /><path fill="rgb(132,178,254)" stroke="rgb(132,178,254)" stroke-width="1" opacity="1" d="M 187.5 346 L 191.5 347 L 193 348.5 L 191.5 349 L 187.5 347 L 187.5 346 Z " /><path fill="rgb(132,178,254)" stroke="rgb(132,178,254)" stroke-width="1" opacity="1" d="M 196.5 350 L 200 351.5 L 198.5 352 L 196 350.5 L 196.5 350 Z " /><path fill="rgb(132,178,254)" stroke="rgb(132,178,254)" stroke-width="1" opacity="1" d="M 203.5 353 L 205.5 354 L 206.5 353 L 208.5 355 L 210 354.5 L 210.5 356 L 215.5 358 L 217 357.5 L 217.5 359 L 219.5 359 L 224.5 362 L 230 363.5 L 229.5 365 L 226.5 363 L 221.5 362 L 219.5 360 L 207.5 356 L 206 356.5 L 206.5 355 L 203.5 354 L 203.5 353 Z " /><path fill="rgb(132,178,254)" stroke="rgb(132,178,254)" stroke-width="1" opacity="1" d="M 274.5 361 L 275.5 363 L 277 362.5 L 275.5 365 L 274 362.5 L 274.5 361 Z " /><path fill="rgb(132,178,254)" stroke="rgb(132,178,254)" stroke-width="1" opacity="1" d="M 240.5 369 L 245.5 371 L 247 370.5 L 247.5 372 L 259.5 376 L 262 378.5 L 260.5 378 L 251.5 375 L 249.5 373 L 244.5 372 L 240.5 370 L 240.5 369 Z " /><path fill="rgb(132,178,254)" stroke="rgb(132,178,254)" stroke-width="1" opacity="1" d="M 279.5 373 L 280.5 375 L 282 374.5 L 280.5 377 L 279 374.5 L 279.5 373 Z " /><path fill="rgb(132,178,254)" stroke="rgb(132,178,254)" stroke-width="1" opacity="1" d="M 263.5 379 L 265.5 380 L 267 379.5 L 266.5 381 L 263.5 380 L 263.5 379 Z " /><path fill="rgb(132,178,254)" stroke="rgb(132,178,254)" stroke-width="1" opacity="1" d="M 421.5 413 L 422 415.5 L 421 415.5 L 421.5 413 Z " /><path fill="rgb(132,178,254)" stroke="rgb(132,178,254)" stroke-width="1" opacity="1" d="M 422.5 420 L 423 425.5 L 422 425.5 L 422.5 420 Z " /><path fill="rgb(132,178,254)" stroke="rgb(132,178,254)" stroke-width="1" opacity="1" d="M 421.5 430 L 422 434.5 L 421 434.5 L 421.5 430 Z " /><path fill="rgb(132,178,254)" stroke="rgb(132,178,254)" stroke-width="1" opacity="1" d="M 421.5 443 L 422 446.5 L 421 446.5 L 421.5 443 Z " /><path fill="rgb(132,178,254)" stroke="rgb(132,178,254)" stroke-width="1" opacity="1" d="M 427.5 450 L 431.5 451 L 433 452.5 L 431.5 453 L 427.5 451 L 427.5 450 Z " /><path fill="rgb(132,178,254)" stroke="rgb(132,178,254)" stroke-width="1" opacity="1" d="M 436.5 454 L 440.5 455 L 442 456.5 L 440.5 457 L 436.5 455 L 436.5 454 Z " /><path fill="rgb(132,178,254)" stroke="rgb(132,178,254)" stroke-width="1" opacity="1" d="M 443.5 457 L 447.5 458 L 449 459.5 L 447.5 460 L 443.5 458 L 443.5 457 Z " /><path fill="rgb(132,178,254)" stroke="rgb(132,178,254)" stroke-width="1" opacity="1" d="M 450.5 460 L 454.5 461 L 456 462.5 L 454.5 463 L 450.5 461 L 450.5 460 Z " /><path fill="rgb(132,178,254)" stroke="rgb(132,178,254)" stroke-width="1" opacity="1" d="M 457.5 463 L 461.5 464 L 463 465.5 L 461.5 466 L 457.5 464 L 457.5 463 Z " /><path fill="rgb(132,178,254)" stroke="rgb(132,178,254)" stroke-width="1" opacity="1" d="M 466.5 467 L 470 468.5 L 468.5 469 L 466 467.5 L 466.5 467 Z " /><path fill="rgb(132,178,254)" stroke="rgb(132,178,254)" stroke-width="1" opacity="1" d="M 473.5 470 L 475.5 470 L 479 472.5 L 477.5 473 L 473.5 471 L 473.5 470 Z " /><path fill="rgb(132,178,254)" stroke="rgb(132,178,254)" stroke-width="1" opacity="1" d="M 480.5 473 L 484.5 474 L 486 475.5 L 484.5 476 L 480.5 474 L 480.5 473 Z " /><path fill="rgb(132,178,254)" stroke="rgb(132,178,254)" stroke-width="1" opacity="1" d="M 487.5 476 L 491.5 477 L 493 478.5 L 491.5 479 L 487.5 477 L 487.5 476 Z " /><path fill="rgb(132,178,254)" stroke="rgb(132,178,254)" stroke-width="1" opacity="1" d="M 494.5 479 L 498.5 480 L 500 481.5 L 498.5 482 L 494.5 480 L 494.5 479 Z " /><path fill="rgb(132,178,254)" stroke="rgb(132,178,254)" stroke-width="1" opacity="1" d="M 503.5 483 L 507.5 484 L 509 485.5 L 507.5 486 L 503.5 484 L 503.5 483 Z " /><path fill="rgb(132,178,254)" stroke="rgb(132,178,254)" stroke-width="1" opacity="1" d="M 510.5 486 L 514.5 487 L 516 488.5 L 514.5 489 L 510.5 487 L 510.5 486 Z " /><path fill="rgb(132,178,254)" stroke="rgb(132,178,254)" stroke-width="1" opacity="1" d="M 517.5 489 L 521.5 490 L 523 491.5 L 521.5 492 L 517.5 490 L 517.5 489 Z " /><path fill="rgb(132,178,254)" stroke="rgb(132,178,254)" stroke-width="1" opacity="1" d="M 524.5 492 L 528.5 493 L 530 494.5 L 528.5 495 L 524.5 493 L 524.5 492 Z " /><path fill="rgb(132,178,254)" stroke="rgb(132,178,254)" stroke-width="1" opacity="1" d="M 533.5 496 L 537 497.5 L 535.5 498 L 533 496.5 L 533.5 496 Z " /><path fill="rgb(132,178,254)" stroke="rgb(132,178,254)" stroke-width="1" opacity="1" d="M 540.5 499 L 542.5 499 L 546 501.5 L 544.5 502 L 540.5 500 L 540.5 499 Z " /><path fill="rgb(132,178,254)" stroke="rgb(132,178,254)" stroke-width="1" opacity="1" d="M 547.5 502 L 551.5 503 L 553 504.5 L 551.5 505 L 547.5 503 L 547.5 502 Z " /><path fill="rgb(132,178,254)" stroke="rgb(132,178,254)" stroke-width="1" opacity="1" d="M 554.5 505 L 558.5 506 L 560 507.5 L 558.5 508 L 554.5 506 L 554.5 505 Z " /><path fill="rgb(132,178,254)" stroke="rgb(132,178,254)" stroke-width="1" opacity="1" d="M 561.5 508 L 565.5 509 L 567 510.5 L 565.5 511 L 561.5 509 L 561.5 508 Z " /><path fill="rgb(153,202,254)" stroke="rgb(153,202,254)" stroke-width="1" opacity="1" d="M 285.5 67 L 590.5 67 L 592 68.5 L 592 510.5 L 591 511.5 L 591 514.5 L 589 518.5 L 589 521.5 L 587 527.5 L 577.5 549 L 576 549.5 Q 578.5 551 575 552.5 L 573 557.5 L 564.5 570 L 563 570.5 L 563 572.5 L 557.5 579 L 555 580.5 Q 552.7 586.7 547.5 590 L 543 592.5 L 540.5 596 L 537 597.5 L 535.5 600 L 530 602.5 L 529.5 604 L 505.5 616 L 499.5 618 L 496.5 618 L 492.5 620 L 488.5 620 L 487.5 621 L 480.5 622 Q 479.5 620 478.5 622 L 215.5 622 L 204 615.5 L 203.5 614 Q 200.5 614.5 200 612.5 L 199.5 611 L 198 610.5 L 480.5 610 L 489.5 607 L 492.5 605 L 494.5 605 L 511.5 596 Q 529.4 584.4 543 568.5 L 554 554.5 L 563 540.5 L 574 518.5 L 574 516.5 L 570.5 516 L 568.5 514 L 563.5 513 L 561.5 511 L 556 509.5 L 555.5 508 L 549 506.5 L 548.5 505 L 543.5 504 L 538.5 501 L 533 499.5 L 532.5 498 L 526.5 497 L 518.5 492 L 512 490.5 L 511.5 489 L 506.5 488 L 501.5 485 L 496.5 484 L 494.5 482 L 489 480.5 L 488.5 479 L 482 477.5 L 481.5 476 L 476.5 475 L 471.5 472 L 466 470.5 L 465.5 469 L 459.5 468 L 451.5 463 L 445 461.5 L 444.5 460 L 439.5 459 L 423 451.5 L 422.5 449 L 422 456.5 L 421 457.5 L 421 461.5 L 420 462.5 L 420 465.5 L 418 471.5 Q 413.5 482.5 404.5 489 L 395.5 493 L 382.5 493 L 382.5 492 L 395.5 492 L 398.5 491 Q 407.3 487.8 412 480.5 L 416 473.5 L 420 461.5 Q 418.7 456.8 421 455.5 L 421 447.5 L 422 446.5 L 422 430.5 L 421 429.5 L 421 419.5 L 420 418.5 L 419 405.5 L 418 404.5 L 417 395.5 L 416 394.5 L 413 379.5 L 410 372.5 L 410 369.5 L 407 360.5 L 405 357.5 L 403 349.5 L 401 346.5 L 401 344.5 L 395 332.5 L 395 330.5 L 383 306.5 L 381 304.5 L 378.5 298 L 377 297.5 L 371 287.5 L 370.5 285 L 369 284.5 L 355.5 264 L 353 262.5 L 351.5 259 L 348 256.5 L 343.5 250 L 333 240.5 L 332.5 239 L 328.5 237 L 317.5 228 L 306.5 222 L 297.5 219 L 293.5 219 L 292.5 218 L 285.5 218 L 276.5 221 L 267 229.5 L 261 240.5 L 259 250.5 L 258 251.5 L 258 257.5 L 257 258.5 L 257 286.5 L 258 287.5 L 259 302.5 L 260 303.5 L 260 307.5 L 261 308.5 L 261 312.5 L 262 313.5 L 262 317.5 L 263 318.5 L 265 329.5 L 267 333.5 L 267 336.5 L 273 354.5 L 275 357.5 L 276 362.5 L 281 372.5 L 281 374.5 L 284 379.5 L 284 381.5 L 299 410.5 L 315 435.5 L 329 453.5 L 350.5 475 L 361.5 483 L 372 488.5 L 370.5 489 L 361.5 484 L 350.5 476 L 335 461.5 L 319 442.5 L 307 425.5 L 295 405.5 L 287.5 390 L 283.5 392 L 281.5 390 L 280 390.5 L 280.5 389 L 274.5 387 Q 273.3 389.3 272 386.5 L 271.5 385 L 266.5 384 L 263.5 381 L 261.5 381 L 260.5 382 L 258.5 380 L 257 380.5 L 256.5 378 L 255.5 379 L 253.5 377 L 252.5 378 L 251.5 377 L 250 377.5 Q 252.2 376.2 249.5 375 L 242 373.5 L 241.5 372 L 236.5 371 L 231.5 368 L 226 366.5 L 226.5 365 L 222.5 365 L 219 363.5 L 219.5 362 L 213.5 361 L 209.5 358 L 205 357.5 L 204.5 356 L 196.5 354 L 194.5 352 L 189.5 351 L 187.5 349 L 182 347.5 L 181.5 346 L 175 344.5 L 174.5 343 L 169.5 342 L 164.5 339 L 159 337.5 L 158.5 336 L 152.5 335 L 144.5 330 L 138 328.5 L 137.5 327 L 132.5 326 L 127.5 323 L 122.5 322 L 120.5 320 L 115 318.5 L 114.5 317 L 108 315.5 L 107.5 314 L 102.5 313 L 100.5 311 L 92 308.5 L 91.5 307 L 85.5 306 L 80.5 303 L 80 609.5 L 141.5 610 L 145 613.5 L 145.5 615 L 151 618.5 L 151.5 620 L 154 620.5 L 152.5 622 L 65.5 622 L 64 620.5 L 64 234.5 L 65 233.5 L 64.5 232 Q 65.5 234 66.5 232 L 75.5 232 L 76.5 231 L 82.5 231 L 83.5 230 L 92.5 229 L 93.5 228 L 100.5 227 L 104.5 225 L 107.5 225 L 119.5 221 L 132.5 215 L 134.5 215 L 139.5 212 L 141.5 212 L 157.5 204 L 181.5 189 L 184 188.5 L 184.5 187 L 191.5 183 L 206.5 171 L 210 169.5 L 211.5 167 L 219.5 161 L 236 145.5 L 243.5 137 L 246 135.5 L 250.5 129 L 252 128.5 L 254.5 124 L 256 123.5 Q 255.5 120.5 257.5 120 L 259 119.5 L 259 117.5 L 266.5 107 L 268 106.5 L 268 104.5 L 271 100.5 L 279 84.5 L 284 68.5 L 285.5 67 Z M 297 78 L 295 80 L 293 88 L 288 98 L 288 100 L 277 120 L 268 133 L 250 154 L 245 159 L 247 160 L 253 160 L 254 159 L 264 159 L 265 158 L 274 158 L 275 157 L 285 157 L 286 156 L 295 156 L 296 155 L 306 155 L 307 154 L 316 154 L 317 153 L 327 153 L 328 152 L 337 152 L 338 151 L 348 151 L 349 150 L 358 150 L 359 149 L 369 149 L 370 148 L 379 148 L 380 147 L 390 147 L 391 146 L 400 146 L 401 145 L 411 145 L 412 144 L 421 144 L 422 143 L 432 143 L 433 142 L 442 142 L 443 141 L 453 141 L 454 140 L 463 140 L 464 139 L 474 139 L 475 138 L 484 138 L 485 137 L 495 137 L 496 136 L 505 136 L 506 135 L 516 135 L 517 134 L 526 134 L 527 133 L 537 133 L 538 132 L 547 132 L 548 131 L 558 131 L 559 130 L 568 130 L 569 129 L 579 129 L 580 128 L 581 130 L 581 79 L 297 78 Z M 467 143 L 464 144 L 464 146 L 462 145 L 462 147 L 461 146 L 459 147 L 457 150 Q 453 151 456 153 L 455 152 L 453 155 L 454 157 L 452 157 L 453 159 L 451 160 L 452 163 L 450 164 Q 449 167 451 168 L 450 171 L 450 183 L 451 184 L 451 192 L 452 193 L 453 203 L 456 212 L 456 215 L 458 219 L 458 222 L 461 231 L 463 234 L 464 239 L 466 242 L 466 244 L 469 249 L 469 251 L 482 277 Q 485 278 483 280 L 485 280 L 486 285 L 488 285 L 489 290 L 491 290 Q 495 299 501 306 L 501 308 L 503 308 Q 504 309 504 312 L 506 312 L 508 317 L 510 317 L 517 327 Q 527 337 539 346 L 549 352 L 558 355 L 567 355 L 571 353 Q 576 349 579 343 L 580 337 L 581 336 L 581 329 L 582 328 L 582 320 L 581 319 L 581 310 L 580 309 L 580 303 L 579 302 L 579 298 L 576 289 L 576 286 L 574 282 L 574 279 L 571 270 L 569 267 L 568 262 L 566 259 L 566 257 L 554 232 L 554 230 L 553 229 L 542 210 L 532 195 L 526 188 L 526 186 L 525 185 L 522 181 L 521 180 L 517 177 L 517 175 L 513 171 L 506 164 L 502 159 L 501 160 Q 498 159 500 158 L 499 157 Q 497 153 496 156 Q 493 155 495 154 L 494 153 Q 493 151 492 153 L 492 152 L 491 151 Q 490 149 489 151 L 488 150 L 487 150 L 487 148 L 485 149 L 485 147 L 483 148 L 483 146 L 481 147 L 481 145 L 478 146 L 476 146 L 478 145 L 478 144 Q 474 143 474 145 L 467 145 L 474 144 L 467 143 Z M 243 160 L 239 164 L 240 164 L 244 161 L 243 160 Z M 86 302 L 85 303 L 88 304 L 89 304 Q 89 302 86 302 Z M 102 309 L 101 310 L 104 311 L 105 311 Q 105 309 102 309 Z M 109 312 L 108 313 L 111 314 L 112 314 Q 112 312 109 312 Z M 116 315 L 115 316 L 118 317 L 119 317 Q 119 315 116 315 Z M 123 318 L 122 319 L 125 320 L 126 320 Q 126 318 123 318 Z M 132 322 L 131 323 L 134 324 L 135 324 Q 135 322 132 322 Z M 139 325 L 138 326 L 141 327 L 142 327 Q 141 325 139 325 Z M 146 328 L 145 329 L 148 330 L 149 330 Q 149 328 146 328 Z M 153 331 L 152 332 L 155 333 L 156 333 Q 156 331 153 331 Z M 167 337 L 167 338 L 171 340 L 172 340 L 169 337 L 167 337 Z M 176 341 L 175 342 L 178 343 L 179 343 Q 179 341 176 341 Z M 183 344 L 182 345 L 185 346 L 186 346 Q 186 344 183 344 Z M 190 347 L 189 348 L 192 349 L 193 349 Q 193 347 190 347 Z M 207 353 L 205 355 L 210 356 L 210 355 L 209 355 L 207 353 Z M 213 357 L 213 358 L 217 359 L 217 358 L 216 358 L 213 357 Z M 218 359 L 218 360 L 220 360 L 218 359 Z M 221 360 Q 219 361 222 362 L 224 362 L 221 360 Z M 225 362 L 225 363 L 227 363 L 225 362 Z M 228 363 Q 226 364 230 365 L 230 364 L 228 363 Z M 234 366 L 234 367 L 238 369 L 239 369 Q 238 365 234 366 Z M 243 370 L 243 371 L 247 372 L 247 371 L 246 371 L 243 370 Z M 248 372 L 248 373 L 250 373 L 248 372 Z M 251 373 Q 249 374 252 375 L 254 375 L 251 373 Z M 255 375 L 255 376 L 257 376 L 255 375 Z M 258 376 Q 256 377 259 378 L 261 378 Q 261 376 258 376 Z M 267 379 Q 264 380 266 381 L 267 381 L 267 379 Z M 270 380 Q 267 381 269 382 L 270 382 L 270 380 Z M 274 382 L 272 384 L 277 385 L 277 384 L 276 384 L 274 382 Z M 280 386 L 280 387 L 284 388 L 284 387 L 283 387 L 280 386 Z M 286 386 L 284 389 L 286 389 L 287 390 L 286 386 Z M 422 413 L 421 416 L 422 416 L 422 413 Z M 423 420 L 422 426 L 423 426 L 423 420 Z M 424 430 L 423 449 L 425 450 L 426 450 L 424 448 L 424 430 Z M 430 451 L 429 452 L 432 453 L 433 453 Q 432 451 430 451 Z M 439 455 L 438 456 L 441 457 L 442 457 Q 442 455 439 455 Z M 446 458 L 445 459 L 448 460 L 449 460 Q 448 458 446 458 Z M 453 461 L 452 462 L 455 463 L 456 463 Q 456 460 453 461 Z M 460 464 L 459 465 L 462 466 L 463 466 Q 463 464 460 464 Z M 474 470 L 474 471 L 478 473 L 479 473 L 476 470 L 474 470 Z M 483 474 L 482 475 L 485 476 L 486 476 Q 486 474 483 474 Z M 490 477 L 489 478 L 492 479 L 493 479 Q 492 476 490 477 Z M 497 480 L 496 481 L 499 482 L 500 482 Q 500 480 497 480 Z M 506 484 L 505 485 L 508 486 L 509 486 Q 509 484 506 484 Z M 513 487 L 512 488 L 515 489 L 516 489 Q 516 487 513 487 Z M 520 490 L 519 491 L 522 492 L 523 492 Q 523 490 520 490 Z M 527 493 L 526 494 L 529 495 L 530 495 Q 530 492 527 493 Z M 541 499 L 541 500 L 545 502 L 546 502 L 543 499 L 541 499 Z M 550 503 L 549 504 L 552 505 L 553 505 Q 553 503 550 503 Z M 557 506 L 556 507 L 559 508 L 560 508 Q 559 506 557 506 Z M 564 509 L 563 510 L 566 511 L 567 511 Q 567 509 564 509 Z M 576 511 L 575 514 L 576 514 L 576 511 Z " /><path fill="rgb(153,202,254)" stroke="rgb(153,202,254)" stroke-width="1" opacity="1" d="M 144.5 473 L 145 473.5 L 141.5 477 L 141 476.5 L 144.5 473 Z " /><path fill="rgb(153,202,254)" stroke="rgb(153,202,254)" stroke-width="1" opacity="1" d="M 373.5 489 L 381 491.5 L 378.5 492 L 373.5 490 L 373.5 489 Z " /><path fill="rgb(153,202,254)" stroke="rgb(153,202,254)" stroke-width="1" opacity="1" d="M 230.5 513 L 233 513.5 L 230.5 514 L 230.5 513 Z " /><path fill="rgb(153,202,254)" stroke="rgb(153,202,254)" stroke-width="1" opacity="1" d="M 260.5 513 L 265 513.5 L 260.5 514 L 260.5 513 Z " /><path fill="rgb(153,202,254)" stroke="rgb(153,202,254)" stroke-width="1" opacity="1" d="M 270.5 514 L 273 514.5 L 270.5 515 L 270.5 514 Z " /><path fill="rgb(153,202,254)" stroke="rgb(153,202,254)" stroke-width="1" opacity="1" d="M 277.5 515 L 280 515.5 L 277.5 516 L 277.5 515 Z " /><path fill="rgb(153,202,254)" stroke="rgb(153,202,254)" stroke-width="1" opacity="1" d="M 283.5 516 L 286 516.5 L 283.5 517 L 283.5 516 Z " /><path fill="rgb(153,202,254)" stroke="rgb(153,202,254)" stroke-width="1" opacity="1" d="M 292.5 518 L 295 518.5 L 292.5 519 L 292.5 518 Z " /><path fill="rgb(153,202,254)" stroke="rgb(153,202,254)" stroke-width="1" opacity="1" d="M 294.5 553 L 304 553.5 L 294.5 554 L 294.5 553 Z " /><path fill="rgb(153,202,254)" stroke="rgb(153,202,254)" stroke-width="1" opacity="1" d="M 344.5 557 L 347 557.5 L 344.5 558 L 344.5 557 Z " /><path fill="rgb(153,202,254)" stroke="rgb(153,202,254)" stroke-width="1" opacity="1" d="M 350.5 558 L 353 558.5 L 350.5 559 L 350.5 558 Z " /><path fill="rgb(254,152,3)" stroke="rgb(254,152,3)" stroke-width="1" opacity="1" d="M 139.5 12 L 160.5 12 Q 161.3 13.8 164.5 13 L 171.5 16 L 179 22.5 L 183 30.5 L 184 39.5 L 183 40.5 L 183 46.5 Q 181.3 47.3 182 50.5 L 174 67.5 Q 163.6 83.6 149.5 96 Q 137 107 122.5 116 L 98.5 128 L 83.5 133 L 75.5 134 L 74.5 135 L 68.5 135 L 67.5 136 L 54.5 136 L 53.5 135 L 48.5 135 L 42.5 133 L 33 126.5 L 28 117.5 L 27 106.5 L 28 105.5 L 28 100.5 L 31 91.5 L 36 81.5 Q 45.3 66.8 57.5 55 L 75.5 40 L 92.5 29 L 113.5 19 L 125.5 15 L 128.5 15 L 133.5 13 L 138.5 13 L 139.5 12 Z M 137 21 L 136 22 L 130 22 L 121 25 L 118 25 L 105 31 L 103 31 L 87 40 L 72 51 L 54 69 L 45 82 L 40 93 L 39 101 L 38 102 L 39 112 L 43 119 L 49 123 L 60 127 L 76 127 L 77 126 L 82 126 L 83 125 L 86 125 L 87 124 L 90 124 L 96 122 L 104 118 L 106 118 L 121 110 L 139 97 L 156 80 L 163 70 L 166 63 L 165 63 L 165 62 L 138 23 L 141 22 L 137 21 Z " /><path fill="rgb(254,152,3)" stroke="rgb(254,152,3)" stroke-width="1" opacity="1" d="M 201.5 16 L 225.5 16 L 226.5 17 L 230.5 17 L 231.5 18 L 238.5 19 L 248.5 24 L 257 31.5 L 261 37.5 L 264 45.5 Q 263 49.5 265 50.5 L 265 62.5 L 264 63.5 L 264 68.5 L 263 69.5 L 262 76.5 L 260 79.5 L 259 84.5 L 249 103.5 Q 231.9 129.9 208.5 150 L 187.5 167 L 166.5 181 L 154.5 187 L 152.5 189 L 124.5 202 L 106.5 208 L 103.5 208 L 99.5 210 L 91.5 211 L 90.5 212 L 78.5 213 L 77.5 214 L 54.5 214 L 53.5 213 L 48.5 213 L 47.5 212 L 44.5 212 L 38.5 210 L 30.5 206 L 22 198.5 L 19 194.5 L 15 184.5 Q 15.8 181.2 14 180.5 L 14 166.5 L 15 165.5 L 15 161.5 L 16 160.5 L 18 150.5 L 23.5 140 L 26.5 143 L 38.5 148 Q 42.5 147 43.5 149 L 64.5 149 L 65.5 148 L 70.5 148 L 71.5 147 L 75.5 147 L 76.5 146 L 83.5 145 L 95.5 141 L 98.5 139 L 105.5 137 L 126.5 126 Q 154.9 108.9 176 84.5 L 187 69.5 L 196 51.5 L 198 41.5 L 199 40.5 L 199 25.5 L 196 17.5 L 200.5 17 L 201.5 16 Z M 159 114 L 134 132 L 109 146 L 107 146 L 100 150 L 95 151 L 89 154 L 86 154 L 78 157 L 74 157 L 73 158 L 66 158 L 65 159 L 53 159 L 52 158 L 46 158 L 45 157 L 42 157 L 36 155 L 30 152 L 27 158 L 26 169 L 25 170 L 26 183 L 29 190 L 32 194 L 41 200 L 43 200 L 49 203 L 53 203 L 54 204 L 79 204 L 80 203 L 86 203 L 87 202 L 91 202 L 92 201 L 96 201 L 101 199 L 104 199 L 108 197 L 111 197 L 120 194 L 123 192 L 133 189 L 138 186 L 140 186 L 162 175 L 181 163 L 188 157 L 187 154 L 162 117 L 159 114 Z " /><path fill="rgb(255,184,80)" stroke="rgb(255,184,80)" stroke-width="1" opacity="1" d="M 136.5 21 L 141 21.5 L 138 22.5 L 165.5 62 L 167 61.5 Q 162.6 71.6 156 79.5 L 138.5 97 L 137 96.5 L 133.5 101 L 133.5 99 L 131.5 100 L 132 98.5 L 130 96.5 L 95 43.5 L 90 38.5 Q 91 36 92 37.5 L 91.5 39 L 94 37.5 L 93.5 36 L 95.5 37 L 95 35.5 L 96.5 34 L 117.5 25 L 120.5 25 L 129.5 22 L 135.5 22 L 136.5 21 Z " /><path fill="rgb(255,184,80)" stroke="rgb(255,184,80)" stroke-width="1" opacity="1" d="M 76.5 47 L 77 47.5 L 74.5 50 L 74 49.5 L 76.5 47 Z " /><path fill="rgb(255,184,80)" stroke="rgb(255,184,80)" stroke-width="1" opacity="1" d="M 71.5 51 L 72 51.5 L 68.5 55 L 68 54.5 L 71.5 51 Z " /><path fill="rgb(255,184,80)" stroke="rgb(255,184,80)" stroke-width="1" opacity="1" d="M 56.5 66 L 57 66.5 L 54.5 69 L 54 68.5 L 56.5 66 Z " /><path fill="rgb(255,184,80)" stroke="rgb(255,184,80)" stroke-width="1" opacity="1" d="M 38.5 101 L 39 106.5 L 38 106.5 L 38.5 101 Z " /><path fill="rgb(255,184,80)" stroke="rgb(255,184,80)" stroke-width="1" opacity="1" d="M 131.5 101 L 132 101.5 L 129.5 104 L 129 103.5 L 131.5 101 Z " /><path fill="rgb(255,184,80)" stroke="rgb(255,184,80)" stroke-width="1" opacity="1" d="M 161.5 112 L 162 112.5 L 160 114.5 L 162 116.5 L 187 153.5 L 187.5 156 L 190.5 154 Q 192 155 189.5 156 L 168.5 171 L 149.5 181 L 147.5 180 L 147.5 182 L 145.5 181 L 145.5 183 L 143.5 182 L 143.5 184 L 140.5 183 L 139 183.5 L 140 181.5 L 114.5 145 L 113 145.5 L 114 144.5 L 113.5 143 L 115.5 144 L 115.5 142 L 117.5 143 L 117 141.5 L 118.5 140 L 133.5 132 L 161.5 112 Z " /><path fill="rgb(255,184,80)" stroke="rgb(255,184,80)" stroke-width="1" opacity="1" d="M 43.5 118 L 46 120.5 L 45.5 121 L 43 118.5 L 43.5 118 Z " /><path fill="rgb(255,184,80)" stroke="rgb(255,184,80)" stroke-width="1" opacity="1" d="M 49.5 158 L 52 158.5 L 49.5 159 L 49.5 158 Z " /><path fill="rgb(255,184,80)" stroke="rgb(255,184,80)" stroke-width="1" opacity="1" d="M 65.5 158 L 68 158.5 L 65.5 159 L 65.5 158 Z " /><path fill="rgb(255,184,80)" stroke="rgb(255,184,80)" stroke-width="1" opacity="1" d="M 25.5 169 L 26 176.5 L 25 176.5 L 25.5 169 Z " /><path fill="rgb(255,184,80)" stroke="rgb(255,184,80)" stroke-width="1" opacity="1" d="M 32.5 193 L 35 195.5 L 34.5 196 L 32 193.5 L 32.5 193 Z " /><path fill="rgb(255,184,80)" stroke="rgb(255,184,80)" stroke-width="1" opacity="1" d="M 76.5 203 L 79 203.5 L 76.5 204 L 76.5 203 Z " /><path fill="rgb(255,216,159)" stroke="rgb(255,216,159)" stroke-width="1" opacity="1" d="M 96.5 35 Q 98 36 95.5 37 L 91 39.5 L 95 43.5 L 117 77.5 L 132.5 99 L 135.5 97 L 136 97.5 L 132.5 101 L 114.5 113 L 96.5 121 L 94.5 120 L 94.5 122 L 91.5 121 L 91.5 123 L 87.5 122 L 87.5 123 L 89 123.5 L 87.5 124 Q 86.5 122 82.5 123 L 80.5 124 L 80.5 123 L 82 122.5 L 77 113.5 L 74 110.5 L 51.5 77 Q 49.8 80.8 48 77.5 L 49.5 78 L 51 76.5 L 50 74.5 L 51.5 75 L 53 73.5 L 52 71.5 L 58 66.5 L 57 65.5 L 67.5 55 L 81.5 44 L 96.5 35 Z " /><path fill="rgb(255,216,159)" stroke="rgb(255,216,159)" stroke-width="1" opacity="1" d="M 139.5 94 L 140 94.5 L 137.5 97 L 137 96.5 L 139.5 94 Z " /><path fill="rgb(255,216,159)" stroke="rgb(255,216,159)" stroke-width="1" opacity="1" d="M 61.5 126 L 65 126.5 L 61.5 127 L 61.5 126 Z " /><path fill="rgb(255,216,159)" stroke="rgb(255,216,159)" stroke-width="1" opacity="1" d="M 69.5 126 L 74 126.5 L 69.5 127 L 69.5 126 Z " /><path fill="rgb(255,216,159)" stroke="rgb(255,216,159)" stroke-width="1" opacity="1" d="M 118.5 141 Q 120 142 117.5 143 L 114 144.5 L 117 147.5 L 140.5 183 L 142.5 183 L 148.5 180 L 148.5 181 L 123.5 192 L 105.5 198 L 102.5 198 L 96.5 200 L 94.5 199 L 93.5 201 L 88.5 200 L 88.5 201 L 90 201.5 L 87.5 202 L 86.5 201 L 80.5 201 Q 79.5 203 75.5 202 L 75.5 201 L 78 200.5 L 51.5 161 L 47 160.5 L 54.5 160 L 55.5 159 L 63.5 159 Q 64.5 161 68.5 160 L 68.5 158 L 74.5 158 L 75.5 157 L 78.5 157 L 79.5 156 L 82.5 156 L 83.5 155 L 86.5 155 L 95.5 152 L 118.5 141 Z " /><path fill="rgb(255,216,159)" stroke="rgb(255,216,159)" stroke-width="1" opacity="1" d="M 81.5 202 L 84 202.5 L 81.5 203 L 81.5 202 Z " /><path fill="rgb(255,216,159)" stroke="rgb(255,216,159)" stroke-width="1" opacity="1" d="M 55.5 203 L 58 203.5 L 55.5 204 L 55.5 203 Z " /><path fill="rgb(255,216,159)" stroke="rgb(255,216,159)" stroke-width="1" opacity="1" d="M 72.5 203 L 76 203.5 L 72.5 204 L 72.5 203 Z " /><path fill="rgb(233,243,252)" stroke="rgb(233,243,252)" stroke-width="1" opacity="1" d="M 59.5 64 L 60 64.5 L 55.5 69 L 55 68.5 L 59.5 64 Z " /><path fill="rgb(233,243,252)" stroke="rgb(233,243,252)" stroke-width="1" opacity="1" d="M 54.5 70 L 55 70.5 L 53 72.5 L 51 76.5 L 54 79.5 L 82.5 123 L 89.5 122 L 89.5 123 L 83.5 124 L 82.5 125 L 78.5 125 L 77.5 126 L 69.5 126 Q 68.8 127.7 65.5 127 L 64.5 126 L 57.5 126 Q 56.8 124.3 53.5 125 Q 46.1 122.4 42 116.5 L 39 109.5 L 39 99.5 L 40 98.5 L 41 91.5 L 47 79.5 L 54.5 70 Z " /><path fill="rgb(233,243,252)" stroke="rgb(233,243,252)" stroke-width="1" opacity="1" d="M 296.5 78 L 581 78.5 L 580.5 130 L 579.5 128 L 578.5 129 L 568.5 129 L 567.5 130 L 558.5 130 L 557.5 131 L 547.5 131 L 546.5 132 L 537.5 132 L 536.5 133 L 526.5 133 L 525.5 134 L 516.5 134 L 515.5 135 L 505.5 135 L 504.5 136 L 495.5 136 L 494.5 137 L 484.5 137 L 483.5 138 L 474.5 138 L 473.5 139 L 463.5 139 L 462.5 140 L 453.5 140 L 452.5 141 L 442.5 141 L 441.5 142 L 432.5 142 L 431.5 143 L 421.5 143 L 420.5 144 L 411.5 144 L 410.5 145 L 400.5 145 L 399.5 146 L 390.5 146 L 389.5 147 L 379.5 147 L 378.5 148 L 369.5 148 L 368.5 149 L 358.5 149 L 357.5 150 L 348.5 150 L 347.5 151 L 337.5 151 L 336.5 152 L 327.5 152 L 326.5 153 L 316.5 153 L 315.5 154 L 306.5 154 L 305.5 155 L 295.5 155 L 294.5 156 L 285.5 156 L 284.5 157 L 274.5 157 L 273.5 158 L 264.5 158 L 263.5 159 L 253.5 159 L 252.5 160 L 246.5 160 L 245.5 159 L 240.5 164 L 236.5 167 L 236 166.5 L 242.5 160 L 250 153.5 L 268 132.5 L 277 119.5 L 288 99.5 L 288 97.5 L 293 87.5 L 295 79.5 L 296.5 78 Z " /><path fill="rgb(233,243,252)" stroke="rgb(233,243,252)" stroke-width="1" opacity="1" d="M 466.5 143 L 473.5 143 Q 474.3 144.7 477.5 144 L 488 149.5 L 486.5 149 L 477.5 145 Q 474.3 145.8 473.5 144 L 467.5 144 L 461.5 146 L 455 152.5 L 452.5 158 L 452 156.5 L 458.5 147 L 466.5 143 Z " /><path fill="rgb(233,243,252)" stroke="rgb(233,243,252)" stroke-width="1" opacity="1" d="M 489.5 150 Q 499.1 155.4 506 163.5 L 505.5 164 L 499.5 158 L 490.5 152 Q 488 151 489.5 150 Z " /><path fill="rgb(233,243,252)" stroke="rgb(233,243,252)" stroke-width="1" opacity="1" d="M 29.5 153 L 42.5 158 L 55 159.5 L 47 160.5 L 51.5 161 L 53 162.5 L 78 200.5 L 75 201.5 L 79.5 202 L 80.5 201 L 86.5 201 L 86.5 202 Q 81.8 200.8 80.5 203 L 72.5 203 L 71.5 204 L 58.5 204 L 57.5 203 L 51.5 203 L 50.5 202 L 44.5 201 Q 36.1 197.9 31 191.5 L 28 186.5 L 27 180.5 L 26 179.5 L 26 166.5 L 27 165.5 L 27 160.5 L 29.5 153 Z " /><path fill="rgb(233,243,252)" stroke="rgb(233,243,252)" stroke-width="1" opacity="1" d="M 64.5 159 L 69 159.5 L 64.5 160 L 64.5 159 Z " /><path fill="rgb(233,243,252)" stroke="rgb(233,243,252)" stroke-width="1" opacity="1" d="M 451.5 159 L 452 161.5 L 451 161.5 L 451.5 159 Z " /><path fill="rgb(233,243,252)" stroke="rgb(233,243,252)" stroke-width="1" opacity="1" d="M 450.5 163 L 451 166.5 L 450 166.5 L 450.5 163 Z " /><path fill="rgb(233,243,252)" stroke="rgb(233,243,252)" stroke-width="1" opacity="1" d="M 462.5 168 L 467.5 168 L 473.5 171 L 486 182.5 L 498 199.5 L 509 223.5 L 511 233.5 L 512 234.5 L 512 238.5 L 513 239.5 L 513 250.5 Q 511.2 251.3 512 254.5 L 507.5 259 L 501.5 259 L 495.5 256 L 484 245.5 L 475 233.5 L 469 223.5 L 463 210.5 L 458 195.5 L 456 179.5 L 457 178.5 L 458 171.5 L 460.5 169 L 462.5 168 Z " /><path fill="rgb(233,243,252)" stroke="rgb(233,243,252)" stroke-width="1" opacity="1" d="M 513.5 171 L 517 174.5 L 516.5 175 L 513 171.5 L 513.5 171 Z " /><path fill="rgb(233,243,252)" stroke="rgb(233,243,252)" stroke-width="1" opacity="1" d="M 88.5 200 L 92 200.5 L 88.5 201 L 88.5 200 Z " /><path fill="rgb(233,243,252)" stroke="rgb(233,243,252)" stroke-width="1" opacity="1" d="M 278.5 246 Q 280.3 247.7 284.5 247 L 293.5 252 L 307 265.5 L 318 281.5 L 330 307.5 L 331 313.5 L 334 321.5 L 334 324.5 L 335 325.5 L 335 330.5 L 336 331.5 L 336 351.5 L 333 359.5 L 328.5 364 Q 325.3 366.3 318.5 365 L 308.5 360 L 299 351.5 L 291 341.5 L 282 327.5 L 272 305.5 L 270 299.5 L 270 296.5 L 268 292.5 L 268 289.5 L 267 288.5 L 267 284.5 L 266 283.5 L 266 276.5 L 265 275.5 L 265 263.5 L 266 262.5 L 267 255.5 Q 268.7 250.7 272.5 248 L 278.5 246 Z " /><path fill="rgb(233,243,252)" stroke="rgb(233,243,252)" stroke-width="1" opacity="1" d="M 343.5 250 L 346 252.5 L 345.5 253 L 343 250.5 L 343.5 250 Z " /><path fill="rgb(49,44,134)" stroke="rgb(49,44,134)" stroke-width="1" opacity="1" d="M 560.5 260 L 564 267.5 L 567 276.5 L 567 279.5 L 569 283.5 L 570 290.5 L 571 291.5 L 572 301.5 L 573 302.5 L 573 313.5 L 574 315.5 L 573 318.5 L 573 325.5 L 572 326.5 L 571 332.5 L 565.5 340 L 561.5 342 L 550.5 342 L 541.5 338 L 531.5 331 L 514 313.5 L 504 300.5 L 504.5 300 L 508.5 304 L 509.5 303 L 561 263.5 Q 559.3 262 560.5 260 Z " /><path fill="rgb(49,44,134)" stroke="rgb(49,44,134)" stroke-width="1" opacity="1" d="M 401.5 371 L 405 381.5 L 406 388.5 L 407 389.5 L 407 393.5 L 409 399.5 L 409 404.5 L 410 405.5 L 410 411.5 L 411 412.5 L 411 423.5 L 412 424.5 L 412 434.5 L 411 435.5 L 411 444.5 L 410 445.5 L 410 449.5 L 409 450.5 L 408 456.5 L 404 464.5 L 399.5 470 L 391.5 475 Q 388.3 474.3 387.5 476 L 378.5 476 L 377.5 475 L 374.5 475 L 368.5 473 L 353.5 464 L 332 443.5 L 318 425.5 L 311 414.5 L 311.5 414 L 314 416.5 L 316.5 421 L 403 379.5 L 401 373.5 L 401.5 371 Z " /><path fill="rgb(49,44,134)" stroke="rgb(49,44,134)" stroke-width="1" opacity="1" d="M 113.5 543 L 114 547.5 L 113 547.5 L 113.5 543 Z " /><path fill="rgb(150,150,150)" stroke="rgb(150,150,150)" stroke-width="1" opacity="1" d="M 297.5 255 L 304 261.5 L 303.5 262 L 297 255.5 L 297.5 255 Z " /><path fill="rgb(150,150,150)" stroke="rgb(150,150,150)" stroke-width="1" opacity="1" d="M 336.5 338 L 337 345.5 L 336 345.5 L 336.5 338 Z " /><path fill="rgb(150,150,150)" stroke="rgb(150,150,150)" stroke-width="1" opacity="1" d="M 321.5 365 L 324 365.5 L 321.5 366 L 321.5 365 Z " /><path fill="rgb(44,48,55)" stroke="rgb(44,48,55)" stroke-width="1" opacity="1" d="M 592.5 67 L 593 508.5 L 592 508.5 L 592.5 67 Z " /><path fill="rgb(44,48,55)" stroke="rgb(44,48,55)" stroke-width="1" opacity="1" d="M 242.5 137 L 243 137.5 L 240.5 140 L 240 139.5 L 242.5 137 Z " /><path fill="rgb(44,48,55)" stroke="rgb(44,48,55)" stroke-width="1" opacity="1" d="M 468.5 145 L 472 145.5 L 468.5 146 L 468.5 145 Z " /><path fill="rgb(44,48,55)" stroke="rgb(44,48,55)" stroke-width="1" opacity="1" d="M 460.5 148 L 461 148.5 L 458 151.5 L 458.5 153 L 467.5 153 L 468.5 152 L 477.5 152 L 478.5 151 L 485 150.5 L 481 148.5 L 482.5 148 Q 493.1 152.9 501 160.5 L 508 168.5 L 507.5 169 L 505.5 167 L 503.5 168 L 483.5 169 L 482.5 170 L 477 170.5 L 477.5 172 L 472.5 169 L 471 169.5 L 471.5 168 L 469.5 169 L 469.5 167 L 465.5 168 L 465.5 166 L 463 166.5 L 463.5 168 L 460.5 167 L 461 168.5 L 458.5 171 L 457 170.5 L 455.5 174 L 454.5 172 L 453 172.5 L 452.5 174 L 451 167.5 L 453 164.5 L 452 162.5 L 456 152.5 L 460.5 148 Z " /><path fill="rgb(44,48,55)" stroke="rgb(44,48,55)" stroke-width="1" opacity="1" d="M 336.5 244 L 341 248.5 L 340.5 249 L 336 244.5 L 336.5 244 Z " /><path fill="rgb(44,48,55)" stroke="rgb(44,48,55)" stroke-width="1" opacity="1" d="M 257.5 264 L 258 266.5 L 257 266.5 L 257.5 264 Z " /><path fill="rgb(44,48,55)" stroke="rgb(44,48,55)" stroke-width="1" opacity="1" d="M 257.5 276 L 258 279.5 L 257 279.5 L 257.5 276 Z " /><path fill="rgb(44,48,55)" stroke="rgb(44,48,55)" stroke-width="1" opacity="1" d="M 560.5 354 L 564 354.5 L 560.5 355 L 560.5 354 Z " /><path fill="rgb(44,48,55)" stroke="rgb(44,48,55)" stroke-width="1" opacity="1" d="M 335.5 459 L 340 463.5 L 339.5 464 L 335 459.5 L 335.5 459 Z " /><path fill="rgb(44,48,55)" stroke="rgb(44,48,55)" stroke-width="1" opacity="1" d="M 341.5 465 L 345 468.5 L 344.5 469 L 341 465.5 L 341.5 465 Z " /><path fill="rgb(44,48,55)" stroke="rgb(44,48,55)" stroke-width="1" opacity="1" d="M 291.5 552 L 302 552.5 L 291.5 553 L 291.5 552 Z " /><path fill="rgb(44,48,55)" stroke="rgb(44,48,55)" stroke-width="1" opacity="1" d="M 137.5 605 L 140 607.5 L 139.5 608 L 137 605.5 L 137.5 605 Z " /><path fill="rgb(44,48,55)" stroke="rgb(44,48,55)" stroke-width="1" opacity="1" d="M 142.5 610 L 145 612.5 L 144.5 613 L 142 610.5 L 142.5 610 Z " /><path fill="rgb(0,0,0)" stroke="rgb(0,0,0)" stroke-width="1" opacity="0.00392156862745098" d="M 0.5 0 L 149 0.5 L 142.5 1 L 141.5 2 L 137.5 2 L 136.5 3 L 125.5 5 L 116.5 9 L 111.5 10 L 94.5 18 L 66.5 36 Q 50.3 48.3 37 63.5 L 24 81.5 L 17 95.5 L 14 104.5 L 14 108.5 L 13 109.5 L 13 122.5 L 17 134.5 L 14 138.5 L 6 155.5 L 2 167.5 L 0.5 178 L 0.5 0 Z " /><path fill="rgb(0,0,0)" stroke="rgb(0,0,0)" stroke-width="1" opacity="0.00392156862745098" d="M 167.5 0 L 609 0.5 L 608.5 49 L 286 48.5 Q 284 26 269.5 16 L 261.5 11 L 246.5 6 Q 241.8 7.3 240.5 5 L 212.5 5 L 211.5 6 L 199.5 7 L 198.5 8 L 190.5 9 L 189.5 10 L 186.5 7 L 178.5 3 L 172.5 2 L 171.5 1 L 167.5 1 L 167.5 0 Z " /><path fill="rgb(0,0,0)" stroke="rgb(0,0,0)" stroke-width="1" opacity="0.00392156862745098" d="M 0.5 193 Q 3.5 212 16.5 221 L 29.5 228 L 35.5 230 L 39.5 230 L 40.5 231 L 45.5 231 L 47 232.5 L 46.5 640 L 0 639.5 L 0.5 193 Z " /><path fill="rgb(0,0,0)" stroke="rgb(0,0,0)" stroke-width="1" opacity="0.00392156862745098" d="M 608.5 522 L 609 639.5 L 492.5 640 L 492.5 639 L 496.5 639 L 497.5 638 L 501.5 638 L 509.5 635 L 512.5 635 L 533.5 626 L 546.5 618 L 555.5 611 L 573 593.5 L 588 572.5 L 597 555.5 L 597 553.5 L 600 548.5 L 603 538.5 L 605 535.5 L 605 532.5 L 608.5 522 Z " /><path fill="rgb(113,144,190)" stroke="rgb(113,144,190)" stroke-width="1" opacity="1" d="M 450.5 172 L 451 180.5 L 450 180.5 L 450.5 172 Z " /><path fill="rgb(113,144,190)" stroke="rgb(113,144,190)" stroke-width="1" opacity="1" d="M 287.5 218 L 292 218.5 L 287.5 219 L 287.5 218 Z " /><path fill="rgb(113,144,190)" stroke="rgb(113,144,190)" stroke-width="1" opacity="1" d="M 519.5 328 L 527 335.5 L 526.5 336 L 519 328.5 L 519.5 328 Z " /><path fill="rgb(113,144,190)" stroke="rgb(113,144,190)" stroke-width="1" opacity="1" d="M 421.5 435 L 422 442.5 L 421 442.5 L 421.5 435 Z " /><path fill="rgb(113,144,190)" stroke="rgb(113,144,190)" stroke-width="1" opacity="1" d="M 241.5 513 L 252 513.5 L 241.5 514 L 241.5 513 Z " /><path fill="rgb(113,144,190)" stroke="rgb(113,144,190)" stroke-width="1" opacity="1" d="M 279.5 553 L 282 553.5 L 279.5 554 L 279.5 553 Z " /><path fill="rgb(113,144,190)" stroke="rgb(113,144,190)" stroke-width="1" opacity="1" d="M 314.5 553 L 317 553.5 L 314.5 554 L 314.5 553 Z " /><path fill="rgb(68,94,120)" stroke="rgb(68,94,120)" stroke-width="1" opacity="1" d="M 286.5 66 L 591 66.5 L 286.5 67 L 286.5 66 Z " /><path fill="rgb(68,94,120)" stroke="rgb(68,94,120)" stroke-width="1" opacity="1" d="M 466.5 145 L 471.5 146 L 473.5 145 L 476.5 147 L 478 146.5 L 478.5 148 L 480.5 147 L 481.5 149 L 486 151.5 L 484.5 151 L 478.5 151 L 477.5 152 L 468.5 152 L 467.5 153 L 458.5 153 L 456.5 155 Q 454 154 455.5 153 Q 456.8 155.3 458 152.5 L 461.5 147 L 463 147.5 L 463.5 146 L 465.5 147 L 466.5 145 Z " /><path fill="rgb(68,94,120)" stroke="rgb(68,94,120)" stroke-width="1" opacity="1" d="M 505.5 164 L 513 171.5 L 512.5 172 L 505 164.5 L 505.5 164 Z " /><path fill="rgb(68,94,120)" stroke="rgb(68,94,120)" stroke-width="1" opacity="1" d="M 479.5 175 L 483 178.5 L 482.5 179 L 479 175.5 L 479.5 175 Z " /><path fill="rgb(68,94,120)" stroke="rgb(68,94,120)" stroke-width="1" opacity="1" d="M 333.5 241 L 336 243.5 L 335.5 244 L 333 241.5 L 333.5 241 Z " /><path fill="rgb(68,94,120)" stroke="rgb(68,94,120)" stroke-width="1" opacity="1" d="M 257.5 280 L 258 282.5 L 257 282.5 L 257.5 280 Z " /><path fill="rgb(68,94,120)" stroke="rgb(68,94,120)" stroke-width="1" opacity="1" d="M 113.5 540 L 114 542.5 L 113 542.5 L 113.5 540 Z " /><path fill="rgb(68,94,120)" stroke="rgb(68,94,120)" stroke-width="1" opacity="1" d="M 113.5 548 L 114 550.5 L 113 550.5 L 113.5 548 Z " /><path fill="rgb(68,94,120)" stroke="rgb(68,94,120)" stroke-width="1" opacity="1" d="M 65.5 622 L 155 622.5 L 65.5 623 L 65.5 622 Z " /><path fill="rgb(68,94,120)" stroke="rgb(68,94,120)" stroke-width="1" opacity="1" d="M 216.5 622 L 480 622.5 L 216.5 623 L 216.5 622 Z " /></svg>