<svg viewBox="0 0 640 452" version="1.1" xmlns="http://www.w3.org/2000/svg" desc="Created with imagetracer.js version 1.2.6" ><path fill="rgb(0,0,0)" stroke="rgb(0,0,0)" stroke-width="1" opacity="0.9137254901960784" d="M 441.5 0 L 443.5 0 L 447 3.5 L 491 70.5 L 498 79.5 L 502 88.5 L 509.5 98 Q 513.7 98.7 515.5 97 L 520.5 104 L 525.5 105 L 542.5 98 L 548.5 98 L 557.5 91 L 581.5 68 L 608.5 59 L 611.5 59 L 615.5 57 L 623.5 56 L 624.5 55 L 631.5 55 Q 634.5 55.5 634 59.5 Q 631.3 66.3 626 70.5 L 626 72.5 L 617 83.5 L 613 90.5 L 585 129.5 L 605 174.5 L 606 181.5 L 609 190.5 L 622 219.5 L 624 225.5 L 624 229.5 L 622 230.5 L 625 241.5 L 628 247.5 L 628 253.5 L 624.5 257 L 605.5 268 L 599 273.5 L 603 285.5 L 603 288.5 L 605 292.5 L 605 295.5 L 606 296.5 L 606 299.5 L 607 300.5 L 607 303.5 L 608 304.5 L 608 307.5 L 609 308.5 L 609 311.5 L 610 312.5 L 610 315.5 L 613 324.5 L 614 336.5 L 616 338.5 L 619 347.5 L 619 350.5 L 624 365.5 L 624 368.5 L 628 380.5 L 630 391.5 L 632 395.5 L 632 398.5 L 633 399.5 L 633 402.5 L 634 403.5 L 634 406.5 L 635 407.5 L 635 410.5 L 636 411.5 L 636 414.5 L 637 415.5 L 637 418.5 L 640 427.5 L 640 432.5 L 630.5 439 L 620.5 441 L 617.5 440 L 617 443.5 L 615.5 445 L 606.5 448 L 599.5 449 L 598.5 450 L 594.5 450 L 593.5 451 L 586.5 451 L 585.5 452 L 571.5 452 L 570.5 451 L 565.5 451 L 557.5 448 L 554.5 448 Q 553 450.5 551.5 447 L 540.5 442 L 538.5 442 L 533.5 439 L 531.5 439 L 508.5 429 L 503.5 428 L 488.5 421 L 486.5 421 L 483.5 419 L 481.5 419 L 478.5 417 L 476.5 417 L 473.5 415 L 471.5 415 L 468.5 413 L 466.5 413 L 463.5 411 L 461.5 411 L 458.5 409 L 456.5 409 L 428.5 397 L 426.5 397 L 411.5 390 L 408.5 389 L 401.5 389 L 393.5 384 L 391.5 384 L 388.5 382 L 370.5 376 L 367.5 376 L 358.5 373 L 347.5 373 L 326.5 383 L 324.5 383 L 319.5 386 L 310.5 389 L 303.5 393 L 301.5 393 L 296.5 396 L 287.5 399 L 280.5 403 L 278.5 403 L 273.5 406 L 264.5 409 L 257.5 413 L 255.5 413 L 250.5 416 L 241.5 419 L 234.5 423 L 232.5 423 L 220.5 429 L 218.5 429 L 211.5 433 L 209.5 433 L 190.5 442 L 185.5 443 L 180 430.5 L 173.5 411 L 170.5 411 L 169.5 412 L 166.5 412 L 165.5 413 L 162.5 413 L 161.5 414 L 158.5 414 L 157.5 415 L 154.5 415 L 153.5 416 L 150.5 416 L 142.5 419 L 134.5 420 L 133.5 421 L 124.5 422 L 123.5 423 L 119.5 423 L 113.5 425 L 108.5 425 L 107.5 426 L 102.5 426 L 101.5 427 L 96.5 427 L 95.5 428 L 89.5 428 L 88.5 429 L 82.5 429 L 81.5 430 L 74.5 430 L 73.5 431 L 65.5 431 L 64.5 432 L 54.5 432 L 53.5 433 L 27.5 433 L 23.5 431 Q 22.5 433 18.5 432 Q 15.9 428.1 10.5 427 L 3 419.5 L 0 412.5 L 0 402.5 L 4 392.5 L 9 385.5 L 35.5 358 L 50.5 345 L 75.5 326 L 109.5 304 L 123 296.5 L 119 284.5 L 115 277.5 L 115 275.5 L 110 266.5 L 110 264.5 L 107 258.5 L 114.5 254 L 116.5 254 L 140.5 242 L 142.5 242 L 149.5 238 L 151.5 238 L 158.5 234 L 160.5 234 L 194.5 218 L 196.5 218 L 203.5 214 L 212.5 211 L 237.5 199 L 239.5 199 L 262.5 188 L 271.5 185 L 278.5 181 L 280.5 181 L 296.5 173 L 305.5 170 L 312.5 166 L 314.5 166 L 320.5 163 L 323 160.5 L 338 133.5 L 338 131.5 L 349 109.5 L 349 107.5 L 353 100.5 L 356 91.5 L 362 81.5 L 362 79.5 L 377 48.5 L 380 39.5 L 386 27.5 L 389.5 23 L 401.5 15 L 417.5 7 L 424.5 6 L 441.5 0 Z M 438 6 L 427 10 L 458 77 L 482 66 L 475 52 L 462 34 L 447 9 L 445 6 L 438 6 Z M 420 12 L 402 20 L 395 25 L 390 30 L 384 42 L 384 44 L 367 79 L 367 81 L 362 90 L 362 92 L 358 99 L 358 101 L 339 141 L 338 145 L 343 148 L 347 149 L 352 137 L 355 127 L 357 124 L 361 111 L 365 103 L 366 98 L 370 90 L 371 85 L 375 77 L 376 72 L 378 69 L 378 67 L 380 64 L 380 62 L 382 59 L 382 57 L 384 54 L 384 52 L 393 31 L 404 22 L 422 13 L 420 12 Z M 425 15 L 406 24 L 399 29 L 395 34 L 393 40 L 389 47 L 385 59 L 383 62 L 383 64 L 381 67 L 381 69 L 379 72 L 379 74 L 377 77 L 376 82 L 372 90 L 371 95 L 369 98 L 368 103 L 364 111 L 357 132 L 353 140 L 352 145 L 350 148 L 351 149 L 375 138 L 377 138 L 382 135 L 384 135 L 389 132 L 391 132 L 396 129 L 398 129 L 403 126 L 410 124 L 412 128 L 412 130 L 418 141 L 420 147 L 429 160 L 433 159 Q 436 157 435 151 L 438 147 Q 454 132 473 120 L 464 101 L 464 99 L 460 92 L 460 90 L 456 83 L 456 81 L 452 74 L 452 72 L 448 65 L 448 63 L 444 56 L 444 54 L 440 47 L 440 45 L 436 38 L 436 36 L 432 29 L 432 27 L 428 20 L 427 16 L 425 15 Z M 624 60 L 623 61 L 614 62 L 607 65 L 604 65 L 601 67 L 591 70 L 588 73 L 587 78 L 584 83 L 510 155 L 487 178 L 478 193 L 478 196 Q 476 197 479 198 L 496 190 L 498 190 L 536 170 L 538 168 L 538 167 L 525 172 Q 522 173 521 171 L 523 167 L 542 146 L 592 86 L 595 83 L 597 83 L 607 78 L 609 78 L 619 73 Q 625 68 628 61 L 624 60 Z M 484 69 L 460 80 L 460 83 L 463 88 L 465 95 L 476 117 L 479 117 L 490 110 L 505 103 Q 506 98 504 97 L 485 70 L 484 69 Z M 583 74 L 566 89 L 494 158 L 480 170 L 468 185 L 462 199 Q 461 202 464 203 L 469 202 L 472 200 L 476 194 L 476 191 L 478 185 L 488 173 Q 518 141 551 112 L 582 81 L 584 78 L 584 75 L 583 74 Z M 613 79 L 598 85 L 587 96 L 562 126 L 564 128 L 578 128 Q 578 126 582 127 L 599 104 L 607 91 L 614 83 L 615 80 L 613 79 Z M 513 102 L 474 123 L 444 146 L 436 155 L 447 178 L 447 180 L 457 197 L 460 196 L 462 193 L 465 184 L 468 179 Q 496 150 526 124 L 526 121 L 517 105 Q 517 102 513 102 Z M 535 106 L 524 112 L 525 113 L 528 113 L 532 109 L 538 107 L 535 106 Z M 542 106 L 541 108 Q 542 109 543 107 L 542 106 Z M 534 111 L 532 114 L 535 114 L 536 112 L 534 111 Z M 527 115 L 526 117 L 529 118 L 529 117 L 527 115 Z M 406 131 L 392 137 L 390 137 L 385 140 L 383 140 L 378 143 L 376 143 L 371 146 L 369 146 L 362 150 L 360 150 L 341 159 L 338 162 L 343 172 L 343 174 L 359 203 L 368 200 L 382 193 L 384 193 L 400 185 L 409 182 L 425 174 L 427 174 L 428 173 L 409 133 Q 409 131 406 131 Z M 558 131 L 537 156 L 528 165 L 529 166 L 541 162 L 566 149 L 572 142 L 578 132 L 558 131 Z M 582 135 L 581 140 L 582 143 L 588 156 L 588 158 L 591 163 L 591 165 L 595 172 L 595 174 L 598 179 Q 600 182 601 179 L 600 174 L 591 155 L 591 153 L 582 135 Z M 577 142 L 576 146 L 580 158 L 587 172 L 591 176 L 592 181 Q 593 183 594 182 L 593 176 L 588 166 L 588 164 L 579 145 L 577 142 Z M 572 149 L 570 151 L 572 158 L 580 175 Q 582 178 583 175 L 583 172 L 580 166 L 580 164 L 573 150 L 572 149 Z M 566 155 L 565 159 L 566 162 L 574 179 Q 575 180 576 178 L 575 171 L 568 156 L 566 155 Z M 561 158 L 560 162 L 561 165 L 568 180 Q 569 182 570 181 L 569 175 L 561 158 Z M 336 162 L 318 170 L 316 170 L 311 173 L 304 175 L 299 178 L 297 178 L 292 181 L 290 181 L 265 193 L 271 207 L 271 209 L 273 212 L 273 214 L 275 217 L 275 219 L 277 222 L 277 224 L 282 234 L 285 236 L 292 234 L 299 230 L 301 230 L 308 226 L 310 226 L 317 222 L 319 222 L 326 218 L 328 218 L 354 206 L 336 162 Z M 434 162 L 430 165 L 436 183 L 457 226 L 457 228 L 486 286 L 492 292 L 501 289 L 504 289 L 505 288 L 508 288 L 509 287 L 512 287 L 513 286 L 516 286 L 517 285 L 520 285 L 521 284 L 524 284 L 525 283 L 528 283 L 529 282 L 532 282 L 533 281 L 541 280 L 542 279 L 556 277 L 557 276 L 561 276 L 562 275 L 566 275 L 567 274 L 572 274 L 573 273 L 578 273 L 579 272 L 584 272 L 585 271 L 595 270 L 610 261 L 613 258 L 613 257 L 595 264 L 592 264 L 589 262 L 586 256 L 582 244 L 580 241 L 577 242 L 577 244 L 584 252 L 584 253 L 581 251 L 568 237 L 550 245 L 539 248 L 530 252 L 527 252 L 510 258 L 503 259 L 502 260 L 496 260 L 495 261 L 491 261 L 490 260 L 483 259 L 477 253 L 471 241 L 469 234 L 467 231 L 466 223 L 465 222 L 467 216 L 480 206 L 511 189 Q 513 188 512 187 L 510 187 L 501 192 L 499 192 L 492 196 L 490 196 L 475 203 L 466 206 L 462 206 L 450 193 L 436 164 L 434 162 Z M 556 162 L 555 165 L 556 168 L 568 192 Q 569 194 570 193 L 566 181 L 560 169 L 556 162 Z M 552 163 Q 550 168 553 169 L 554 169 Q 555 164 552 163 Z M 543 169 L 541 171 L 544 174 Q 546 174 545 171 L 543 169 Z M 539 172 L 538 174 Q 539 176 540 175 L 539 172 Z M 551 173 L 502 197 L 500 199 L 474 213 L 468 220 L 468 226 L 469 229 L 481 256 L 486 257 L 501 257 L 502 256 L 511 255 L 515 253 L 518 253 L 533 248 L 536 246 L 546 243 L 551 240 L 553 240 L 558 237 L 560 237 L 567 233 L 569 233 L 578 228 L 580 228 L 601 217 L 606 209 L 605 207 L 599 207 L 598 206 L 592 207 L 571 217 L 569 217 L 562 201 L 560 191 L 558 187 L 558 184 L 554 174 L 551 173 Z M 587 176 L 576 181 L 572 185 L 573 191 L 575 192 L 589 191 L 591 190 L 590 183 L 587 176 Z M 528 178 L 528 181 L 530 180 L 530 179 L 528 178 Z M 430 180 L 421 184 L 419 184 L 409 190 L 410 192 L 430 183 L 431 181 L 430 180 Z M 599 184 L 598 186 L 602 195 L 602 197 L 616 226 L 617 226 L 616 221 L 608 204 L 608 202 L 599 184 Z M 432 186 L 419 192 L 417 192 L 412 196 L 412 200 L 415 206 L 415 214 L 411 218 L 405 220 L 405 222 L 412 236 L 415 238 L 420 237 L 422 240 L 428 254 L 429 255 L 422 262 L 423 266 Q 424 268 429 267 Q 431 267 430 264 L 438 260 L 440 263 L 444 270 L 465 260 L 467 260 L 468 259 L 468 257 L 461 244 L 461 242 L 434 187 L 432 186 Z M 564 188 Q 562 193 565 195 L 566 195 L 564 188 Z M 595 189 L 594 195 L 596 200 L 597 200 Q 598 193 596 190 L 595 189 Z M 582 194 L 580 197 L 582 197 L 583 195 L 582 194 Z M 261 195 L 188 227 L 208 270 L 213 269 L 222 264 L 224 264 L 233 259 L 235 259 L 244 254 L 246 254 L 255 249 L 257 249 L 268 243 L 270 243 L 281 238 L 281 236 L 275 225 L 275 223 L 262 196 L 261 195 Z M 403 195 L 400 196 L 396 200 L 396 204 L 401 207 L 406 206 L 408 204 L 409 201 L 408 199 Q 406 196 403 195 Z M 575 195 Q 572 196 573 199 L 577 199 L 577 197 L 575 195 Z M 592 196 L 591 199 L 594 203 L 595 203 L 594 199 L 592 196 Z M 569 197 L 568 199 Q 569 201 570 200 L 569 197 Z M 375 199 Q 372 200 374 201 L 376 200 L 375 199 Z M 388 199 L 374 205 L 372 205 L 362 210 L 360 210 L 355 213 L 353 213 L 346 217 L 337 220 L 332 223 L 330 223 L 309 233 L 307 233 L 300 237 L 291 240 L 284 244 L 282 244 L 280 246 L 283 255 L 285 258 L 285 260 L 287 263 L 287 265 L 293 277 L 293 279 L 301 295 L 301 297 L 308 310 L 309 314 L 313 318 L 315 317 Q 313 316 314 313 L 319 309 L 321 309 L 333 303 L 335 301 L 335 300 L 327 302 L 321 305 L 319 304 L 319 302 L 313 290 L 323 284 L 324 282 L 319 281 L 316 278 L 317 274 L 321 271 L 326 273 L 326 272 L 318 267 L 315 264 L 312 255 L 312 252 L 311 251 L 311 245 L 313 241 L 313 239 L 306 241 L 299 245 L 297 245 L 286 250 L 284 250 L 296 243 L 298 243 L 307 238 L 309 238 L 316 234 L 318 234 L 325 230 L 327 230 L 334 226 L 336 226 L 354 217 L 356 217 L 378 206 L 380 206 L 391 200 L 388 199 Z M 582 199 L 580 201 L 583 202 L 586 208 L 587 208 L 587 205 L 585 201 Q 584 199 582 199 Z M 588 200 L 587 202 L 590 203 L 590 202 L 588 200 Z M 577 201 L 572 205 L 576 211 L 577 211 L 577 201 Z M 580 204 L 579 206 L 582 207 L 582 205 L 580 204 Z M 389 205 L 378 210 L 376 210 L 371 213 L 369 213 L 364 216 L 362 216 L 357 219 L 355 219 L 347 224 L 351 236 L 338 242 Q 335 235 331 231 L 326 232 L 323 235 L 325 236 L 330 237 L 334 242 L 337 248 L 337 254 L 326 264 L 328 268 L 334 265 L 339 260 L 340 255 L 342 260 L 341 263 Q 343 266 348 266 L 349 267 L 343 256 L 340 246 L 342 245 L 350 262 L 357 258 L 355 250 L 352 243 L 350 243 L 347 245 L 343 245 Q 346 240 354 239 L 359 252 L 360 258 Q 362 259 359 261 L 360 264 L 359 269 L 355 272 Q 354 276 357 277 L 360 277 L 369 272 L 375 284 L 375 286 Q 372 289 368 291 L 362 291 L 358 288 L 356 290 L 356 293 L 354 296 L 352 297 L 348 301 L 349 301 L 364 296 L 369 293 L 371 293 L 398 281 Q 397 273 391 270 L 384 256 L 383 252 L 389 249 L 388 246 L 385 242 L 380 242 L 368 220 L 373 217 L 383 214 L 386 218 L 386 214 Q 387 211 393 212 L 396 218 Q 397 221 402 220 L 402 218 L 401 217 L 398 215 L 395 208 Q 394 204 389 205 Z M 411 206 L 406 209 Q 400 208 399 211 L 405 215 L 410 214 L 412 211 Q 413 207 411 206 Z M 571 207 L 570 212 L 572 212 Q 574 211 573 209 L 571 207 Z M 391 215 L 390 218 L 391 221 L 401 242 Q 402 244 403 243 L 400 233 L 391 215 Z M 606 215 L 604 217 L 606 224 L 610 229 L 612 229 L 611 223 L 608 217 L 606 215 Z M 379 218 L 376 219 L 373 222 L 374 226 L 380 235 L 382 234 L 381 229 L 385 226 L 384 222 Q 382 219 379 218 Z M 600 221 L 599 226 L 601 230 Q 604 235 606 230 L 604 224 Q 604 221 600 221 Z M 402 223 L 401 228 L 402 231 L 409 243 L 411 243 L 410 236 L 404 224 L 402 223 Z M 595 223 L 593 225 Q 594 231 598 234 L 599 234 L 599 229 L 597 225 L 595 223 Z M 589 226 L 587 229 L 588 233 L 591 235 L 593 235 L 592 230 L 590 227 L 589 226 Z M 187 227 L 114 260 L 118 272 L 120 275 L 120 277 L 125 286 L 125 288 L 133 304 L 136 306 L 137 306 L 136 304 L 139 301 L 151 295 L 153 295 L 160 291 L 162 291 L 169 287 L 171 287 L 178 283 L 180 283 L 206 271 L 187 227 Z M 342 228 L 337 232 Q 336 236 339 237 L 342 237 L 347 234 L 346 230 Q 345 227 342 228 Z M 388 229 L 384 232 L 387 241 L 393 250 L 395 250 L 398 248 L 398 244 L 393 232 Q 392 228 388 229 Z M 585 230 L 583 232 L 585 236 L 586 236 Q 587 231 585 230 Z M 616 230 L 599 236 L 596 236 L 592 238 L 586 239 L 584 241 L 594 262 L 596 262 L 606 257 L 608 257 L 625 250 L 624 245 L 620 238 L 618 232 L 616 230 Z M 579 232 L 577 234 L 578 237 Q 581 238 581 236 L 580 233 L 579 232 Z M 572 235 L 571 237 L 574 238 L 574 237 L 572 235 Z M 382 237 Q 379 239 382 240 L 383 238 L 382 237 Z M 322 238 L 315 243 L 313 246 L 313 252 L 314 255 L 319 259 Q 322 258 323 260 Q 327 261 329 259 L 330 257 L 325 253 Q 324 248 328 247 L 330 248 L 333 254 L 335 250 L 333 243 L 330 240 L 327 244 L 327 246 L 325 246 Q 321 245 322 241 Q 324 239 322 238 Z M 416 240 Q 409 243 411 255 L 407 257 L 405 256 L 401 251 L 399 251 L 394 254 L 390 252 L 388 253 L 388 257 L 390 260 L 390 262 L 395 268 L 402 263 L 404 263 L 417 256 L 419 256 L 426 252 L 421 242 Q 420 239 416 240 Z M 278 242 L 277 244 Q 278 245 279 243 L 278 242 Z M 404 246 L 403 248 L 407 253 L 408 253 L 407 248 Q 407 245 404 246 Z M 275 248 L 262 255 L 267 265 L 267 267 L 271 272 L 277 270 L 284 266 L 282 259 L 277 249 L 275 248 Z M 255 257 L 252 259 L 242 262 L 238 265 L 247 283 L 265 275 L 257 258 L 255 257 Z M 418 262 L 407 267 L 405 267 L 398 272 L 400 274 L 410 271 L 416 268 L 419 265 L 418 262 Z M 320 264 Q 318 265 321 266 L 323 266 Q 323 264 320 264 Z M 436 264 L 433 267 Q 432 270 435 271 Q 438 272 439 270 L 438 266 L 436 264 Z M 471 264 L 398 296 L 398 298 L 402 306 L 415 325 L 418 325 L 424 323 L 429 320 L 436 318 L 443 314 L 445 314 L 452 310 L 454 310 L 461 306 L 470 303 L 487 295 L 483 286 L 481 284 L 471 264 Z M 354 265 L 353 267 L 356 268 L 356 267 L 354 265 Z M 233 267 L 210 277 L 219 295 L 225 293 L 232 289 L 234 289 L 241 285 L 233 267 Z M 339 267 L 339 268 L 345 270 L 348 277 L 348 284 L 347 287 L 349 287 L 350 287 Q 349 290 344 291 Q 343 295 347 296 L 351 295 L 354 291 L 354 287 L 353 286 L 352 280 L 347 270 Q 345 266 339 267 Z M 285 270 L 269 277 L 267 277 L 262 280 L 260 280 L 246 287 L 244 287 L 210 303 L 201 306 L 187 313 L 185 313 L 178 317 L 176 317 L 164 323 L 162 323 L 148 329 L 147 328 L 165 319 L 158 301 L 148 304 L 140 308 L 138 308 L 136 310 L 150 339 L 160 336 L 170 331 L 170 328 L 164 329 L 150 335 L 149 334 L 184 317 L 186 317 L 193 313 L 195 313 L 202 309 L 204 309 L 218 302 L 220 302 L 234 295 L 236 295 L 263 282 L 265 282 L 276 276 L 282 274 L 286 271 L 285 270 Z M 428 271 L 427 274 L 430 276 L 430 276 L 428 271 Z M 341 272 L 340 274 L 343 275 L 343 273 L 341 272 Z M 424 272 L 424 275 L 426 274 L 424 272 Z M 330 273 L 328 275 L 328 283 L 330 287 L 335 291 L 334 296 L 340 299 L 342 299 L 339 294 L 339 290 L 336 287 Q 332 284 330 280 L 330 273 Z M 321 274 L 319 277 Q 320 279 323 278 L 324 276 Q 324 274 321 274 Z M 334 274 L 332 277 L 335 278 L 336 276 L 334 274 Z M 286 275 L 277 279 L 274 282 L 276 283 L 282 282 L 288 279 Q 290 279 289 276 L 286 275 Z M 365 276 L 363 278 L 364 280 L 362 280 Q 360 278 359 281 L 364 289 L 371 286 L 371 282 L 369 279 Q 369 275 365 276 Z M 415 277 L 401 283 L 399 283 L 394 286 L 392 286 L 387 289 L 385 289 L 380 292 L 378 292 L 373 295 L 371 295 L 366 298 L 364 298 L 342 309 L 340 309 L 332 314 L 333 315 L 354 306 L 356 306 L 379 295 L 381 295 L 405 283 L 407 283 L 416 278 L 415 277 Z M 585 277 L 584 278 L 575 278 L 574 279 L 567 279 L 566 280 L 559 280 Q 557 282 553 281 L 551 283 L 555 292 L 555 294 L 558 299 L 558 301 L 561 306 L 561 308 L 564 313 L 564 315 L 580 349 L 580 351 L 584 358 L 584 360 L 589 369 L 589 371 L 594 380 L 594 382 L 599 391 L 599 393 L 614 423 L 614 425 L 617 431 L 622 436 L 626 436 L 635 431 L 635 427 L 633 423 L 630 408 L 629 407 L 629 404 L 628 403 L 628 400 L 627 399 L 627 396 L 626 395 L 626 392 L 625 391 L 625 388 L 624 387 L 624 384 L 622 380 L 619 365 L 617 361 L 617 358 L 614 350 L 614 347 L 613 346 L 612 338 L 583 350 L 582 349 L 610 335 L 608 329 L 608 326 L 605 319 L 604 312 L 603 311 L 601 297 L 600 296 L 600 293 L 599 292 L 599 289 L 598 288 L 598 285 L 596 279 L 595 277 L 585 277 Z M 197 278 Q 194 279 196 280 L 197 280 L 197 278 Z M 207 278 L 188 288 L 193 298 L 193 300 L 197 305 L 215 297 L 214 292 L 210 285 L 208 279 L 207 278 Z M 340 279 L 339 283 L 342 283 Q 344 283 343 280 L 340 279 Z M 290 281 L 271 290 L 269 290 L 262 294 L 253 297 L 246 301 L 237 304 L 230 308 L 221 311 L 214 315 L 212 315 L 207 318 L 205 318 L 191 325 L 189 325 L 184 328 L 182 328 L 168 335 L 166 335 L 161 338 L 159 338 L 151 342 L 151 344 L 153 347 L 158 362 L 161 367 L 161 369 L 173 391 L 184 384 L 186 384 L 196 379 L 198 379 L 203 376 L 205 376 L 208 374 Q 209 370 207 370 Q 206 365 208 364 L 211 363 Q 212 361 213 363 L 217 362 L 220 359 L 242 348 L 244 348 L 262 339 L 271 336 L 287 328 L 289 328 L 296 324 L 298 324 L 307 319 L 306 314 L 303 309 L 303 307 L 299 300 L 299 298 L 292 283 L 290 281 Z M 544 281 L 539 283 L 535 283 L 526 286 L 518 287 L 510 290 L 507 290 L 491 296 L 494 302 L 495 307 L 490 310 L 488 310 L 481 314 L 479 314 L 472 318 L 470 318 L 463 322 L 461 322 L 454 326 L 452 326 L 445 330 L 443 330 L 436 334 L 434 334 L 427 338 L 425 338 L 420 341 L 418 341 L 411 345 L 409 345 L 402 349 L 396 351 L 395 353 L 401 356 L 403 356 L 414 361 L 415 364 L 435 374 L 435 375 L 393 354 L 389 354 L 382 358 L 380 358 L 373 362 L 371 362 L 359 368 L 363 369 L 367 369 L 371 371 L 374 371 L 377 373 L 385 375 L 398 381 L 400 381 L 409 386 L 412 386 L 424 390 L 427 392 L 429 392 L 432 394 L 437 395 L 447 400 L 459 404 L 462 406 L 464 406 L 467 408 L 469 408 L 472 410 L 474 410 L 477 412 L 479 412 L 482 414 L 484 414 L 487 416 L 489 416 L 494 419 L 496 419 L 524 431 L 526 431 L 529 433 L 531 433 L 534 435 L 536 435 L 539 437 L 541 437 L 544 439 L 546 439 Q 550 443 557 444 L 559 446 L 562 445 L 565 445 L 569 447 L 586 447 L 587 446 L 599 445 L 604 443 L 607 443 L 613 440 L 613 438 L 604 438 L 598 440 L 592 440 L 591 441 L 577 441 L 576 440 L 583 439 L 584 438 L 593 438 Q 594 436 599 437 L 600 436 L 603 436 L 604 435 L 607 435 L 614 433 L 598 399 L 598 397 L 593 388 L 593 386 L 589 379 L 589 377 L 584 368 L 584 366 L 580 359 L 580 357 L 575 348 L 575 346 L 570 337 L 570 335 L 565 326 L 565 324 L 560 315 L 560 313 L 552 298 L 552 296 L 546 284 L 544 281 Z M 266 284 L 258 288 L 256 288 L 251 292 L 252 294 L 257 293 L 269 287 L 269 285 L 266 284 Z M 324 287 L 318 289 L 316 291 L 322 302 L 333 297 L 329 289 Q 328 286 324 287 Z M 181 290 L 165 297 L 163 297 L 161 299 L 170 317 L 172 317 L 190 308 L 190 306 L 183 291 L 181 290 Z M 244 294 L 238 296 L 231 300 L 229 300 L 223 304 L 224 306 L 227 306 L 235 302 L 237 302 L 243 299 L 245 297 L 244 294 Z M 394 298 L 389 301 L 380 304 L 373 308 L 371 308 L 364 312 L 362 312 L 355 316 L 353 316 L 346 320 L 344 320 L 337 324 L 335 324 L 325 329 L 326 334 L 329 339 L 331 346 L 334 351 L 334 353 L 337 359 L 340 361 L 380 342 L 382 342 L 389 338 L 391 338 L 400 333 L 402 333 L 410 329 L 412 327 L 396 300 L 394 298 Z M 486 300 L 472 306 L 470 306 L 465 309 L 463 309 L 458 312 L 456 312 L 451 315 L 449 315 L 444 318 L 442 318 L 437 321 L 435 321 L 430 324 L 428 324 L 423 327 L 421 327 L 415 331 L 418 336 L 425 334 L 459 318 L 461 318 L 470 313 L 472 313 L 491 303 L 488 300 L 486 300 Z M 124 302 L 106 312 L 83 327 L 52 350 L 45 357 L 44 360 Q 43 363 45 364 L 45 370 L 46 371 L 47 378 L 51 387 L 51 389 L 57 401 L 69 419 L 70 423 L 68 424 L 60 424 L 59 425 L 50 425 L 49 426 L 38 426 Q 37 428 34 427 Q 32 428 35 429 L 63 428 L 64 427 L 72 427 L 73 426 L 80 426 L 81 425 L 88 425 Q 89 423 94 424 L 95 423 L 106 422 L 112 420 L 122 419 L 127 417 L 131 417 L 136 415 L 140 415 L 141 414 L 156 411 L 157 410 L 160 410 L 164 408 L 167 408 L 172 406 L 172 404 L 164 405 L 163 406 L 158 406 L 157 407 L 147 407 L 143 399 L 137 401 L 129 402 L 128 403 L 125 403 L 124 404 L 121 404 L 120 405 L 112 406 L 111 407 L 107 407 L 102 409 L 88 411 L 87 412 L 82 412 L 81 413 L 76 413 L 75 414 L 68 414 L 70 412 L 81 410 L 82 409 L 86 409 L 91 407 L 95 407 L 100 405 L 104 405 L 109 403 L 113 403 L 118 401 L 122 401 L 127 399 L 131 399 L 132 398 L 142 396 L 149 404 L 157 404 Q 158 402 163 403 L 169 401 L 169 394 L 166 385 L 164 382 L 164 380 L 162 377 L 162 375 L 153 356 L 153 354 L 148 345 L 148 343 L 141 330 L 141 328 L 129 306 Q 127 303 124 302 Z M 336 305 L 320 312 L 316 316 L 318 317 L 322 316 L 324 314 L 340 306 L 336 305 Z M 216 306 L 203 312 L 200 315 L 202 316 Q 213 314 220 307 L 216 306 Z M 192 317 L 186 320 L 184 320 L 174 326 L 175 327 L 182 326 L 193 321 L 195 318 L 192 317 Z M 313 322 L 301 326 L 298 328 L 296 328 L 293 330 L 291 330 L 288 332 L 286 332 L 274 338 L 272 338 L 265 342 L 263 342 L 238 354 L 236 354 L 222 362 L 223 364 L 231 362 L 254 351 L 256 351 L 313 324 L 313 322 Z M 319 331 L 297 341 L 295 341 L 288 345 L 286 345 L 281 348 L 279 348 L 274 351 L 272 351 L 267 354 L 265 354 L 260 357 L 258 357 L 253 360 L 251 360 L 249 362 L 249 365 L 254 376 L 260 395 L 265 394 L 299 378 L 301 378 L 308 374 L 310 374 L 317 370 L 319 370 L 326 366 L 328 366 L 335 362 L 321 332 L 319 331 Z M 410 332 L 376 348 L 374 348 L 367 352 L 365 352 L 358 356 L 356 356 L 349 360 L 347 360 L 341 364 L 342 368 L 344 369 L 353 366 L 360 362 L 362 362 L 369 358 L 371 358 L 378 354 L 380 354 L 387 350 L 389 350 L 415 338 L 413 334 Q 413 332 410 332 Z M 38 363 L 35 365 L 15 386 L 19 396 L 19 388 L 21 385 L 30 378 L 33 384 L 33 385 L 31 383 Q 30 380 29 382 Q 28 387 31 389 L 31 396 L 34 397 L 34 401 L 30 403 L 26 402 L 25 403 L 28 405 L 38 404 L 35 396 L 36 394 L 41 406 L 38 407 L 34 407 L 29 409 L 26 409 L 24 407 L 23 407 L 23 409 L 29 419 L 36 419 L 37 418 L 51 418 L 51 420 L 58 420 Q 58 418 62 419 L 63 418 L 59 417 L 58 416 L 60 415 L 60 413 L 56 408 L 51 398 L 51 396 L 44 381 L 40 365 L 38 363 Z M 219 363 L 219 366 L 221 365 L 219 363 Z M 244 363 L 237 367 L 235 367 L 228 371 L 226 371 L 219 375 L 217 375 L 210 379 L 208 379 L 201 383 L 199 383 L 174 395 L 184 430 L 191 426 L 193 426 L 227 410 L 229 410 L 236 406 L 238 406 L 245 402 L 247 402 L 254 398 L 256 398 L 257 397 L 246 364 L 244 363 Z M 336 366 L 322 372 L 320 372 L 295 384 L 293 384 L 263 399 L 265 403 L 271 402 L 288 394 L 290 394 L 339 371 Q 341 370 340 367 L 336 366 Z M 11 391 L 4 404 L 4 411 L 7 418 L 13 423 L 24 429 L 27 429 L 21 419 L 19 413 L 15 406 L 12 397 L 12 394 L 11 391 Z M 20 396 L 19 399 L 20 399 L 20 396 Z M 21 399 L 20 402 L 22 406 L 23 406 L 23 404 L 21 399 Z M 259 399 L 252 403 L 250 403 L 216 419 L 214 419 L 207 423 L 205 423 L 198 427 L 196 427 L 186 433 L 188 438 L 191 438 L 224 422 L 226 422 L 235 417 L 237 417 L 246 412 L 248 412 L 257 407 L 259 407 L 262 405 L 260 400 L 259 399 Z M 67 417 L 65 419 L 66 421 L 67 421 L 67 417 Z M 39 421 L 39 424 L 42 422 L 39 421 Z " /><path fill="rgb(0,0,0)" stroke="rgb(0,0,0)" stroke-width="1" opacity="0.9137254901960784" d="M 594.5 212 L 598 212.5 Q 598.8 216.3 596.5 217 Q 594.7 218.7 590.5 218 L 585.5 221 L 583 217.5 L 587.5 214 Q 593.3 215.3 594.5 212 Z " /><path fill="rgb(0,0,0)" stroke="rgb(0,0,0)" stroke-width="1" opacity="0.9137254901960784" d="M 576.5 219 Q 580.3 218.3 581 220.5 Q 581.5 224.5 578.5 225 Q 574 226 573 223.5 L 574.5 220 L 576.5 219 Z " /><path fill="rgb(0,0,0)" stroke="rgb(0,0,0)" stroke-width="1" opacity="0.9137254901960784" d="M 315.5 247 Q 319.3 246.3 320 248.5 L 321 251.5 L 319.5 254 Q 315.8 254.8 315 252.5 L 314 248.5 L 315.5 247 Z " /><path fill="rgb(0,0,0)" stroke="rgb(0,0,0)" stroke-width="1" opacity="0.9137254901960784" d="M 296.5 257 L 299 258.5 L 311 285.5 L 309.5 287 L 303.5 289 L 299 281.5 L 299 279.5 L 290 260.5 L 296.5 257 Z M 296 260 L 294 262 L 295 268 L 301 281 L 304 283 L 305 282 L 305 277 L 302 270 L 298 266 L 298 262 L 296 260 Z " /><path fill="rgb(0,0,0)" stroke="rgb(0,0,0)" stroke-width="1" opacity="0.9137254901960784" d="M 125.5 326 L 128 326.5 L 132 335.5 L 132 339.5 L 124.5 342 L 120 334.5 L 120 329.5 L 125.5 326 Z M 126 330 L 121 333 L 125 339 L 128 338 Q 130 337 129 333 L 126 330 Z " /><path fill="rgb(0,0,0)" stroke="rgb(0,0,0)" stroke-width="1" opacity="0.9137254901960784" d="M 90.5 328 L 95 328.5 Q 94.4 332.4 91.5 334 L 90 334.5 L 89 339.5 L 86 344.5 L 86 353.5 Q 84 359 79.5 362 L 76 364.5 L 75.5 366 Q 72.5 366.5 72 364.5 L 72 359.5 L 75 350.5 L 77 347.5 L 77 345.5 L 82 336.5 L 88.5 329 L 90.5 328 Z M 85 338 L 84 340 Q 82 341 85 342 L 85 341 Q 87 339 85 338 Z M 81 347 L 78 351 L 78 353 L 74 362 L 76 362 Q 82 358 83 348 L 81 347 Z " /><path fill="rgb(0,0,0)" stroke="rgb(0,0,0)" stroke-width="1" opacity="0.9137254901960784" d="M 132.5 343 Q 135.5 342.5 136 344.5 L 139 353.5 L 136.5 356 L 130.5 357 L 126 346.5 L 132.5 343 Z M 133 347 L 129 349 L 129 352 L 132 355 L 136 353 L 136 349 Q 136 347 133 347 Z " /><path fill="rgb(0,0,0)" stroke="rgb(0,0,0)" stroke-width="1" opacity="0.9137254901960784" d="M 86.5 368 L 91.5 369 L 97 374.5 L 99.5 379 L 106.5 382 L 119.5 382 L 121 383.5 L 124 390.5 L 117.5 393 L 110.5 393 Q 108.5 392.5 109 389.5 L 110.5 389 L 111.5 390 L 117.5 390 L 120 388.5 L 118.5 385 Q 112.5 384 110.5 387 L 109 386.5 Q 107.3 388.3 108 392.5 L 106.5 394 L 99.5 393 L 94 389.5 L 95 384.5 Q 94 383 93 385.5 L 91.5 388 Q 82.7 382.3 76 374.5 L 76.5 371 L 79.5 371 L 86.5 368 Z M 86 372 Q 85 374 82 373 L 80 376 L 88 382 L 92 383 L 95 379 L 95 376 L 93 373 L 86 372 Z M 101 383 Q 98 385 97 389 L 99 390 L 105 390 L 106 386 Q 105 382 101 383 Z " /><path fill="rgb(0,0,0)" stroke="rgb(0,0,0)" stroke-width="1" opacity="0.9137254901960784" d="M 438.5 374 L 448.5 379 L 450.5 379 L 517.5 413 L 519.5 413 L 571 439.5 L 570.5 441 L 567.5 441 L 560.5 436 Q 554.9 435.1 551.5 432 L 549.5 432 L 547.5 430 L 531.5 422 L 529.5 422 L 497.5 405 L 495.5 405 L 458.5 386 L 456.5 386 L 446.5 381 L 438 375.5 L 438.5 374 Z " /><path fill="rgb(0,0,0)" stroke="rgb(0,0,0)" stroke-width="1" opacity="0.9137254901960784" d="M 38.5 380 Q 40.5 380.5 40 383.5 L 38.5 384 L 37 381.5 L 38.5 380 Z " /><path fill="rgb(0,0,0)" stroke="rgb(0,0,0)" stroke-width="1" opacity="0.9137254901960784" d="M 39.5 386 L 42 386.5 L 43 390.5 L 40.5 391 Q 37.8 389.8 39.5 386 Z " /><path fill="rgb(0,0,0)" stroke="rgb(0,0,0)" stroke-width="1" opacity="0.9137254901960784" d="M 42.5 393 L 46 395.5 Q 46.5 398.5 44.5 399 Q 40.7 397.7 42.5 393 Z " /><path fill="rgb(0,0,0)" stroke="rgb(0,0,0)" stroke-width="1" opacity="0.00392156862745098" d="M 0.5 0 L 441 0.5 L 424.5 6 L 417.5 7 L 401.5 15 L 388 24.5 L 380 39.5 L 380 41.5 L 362 79.5 L 362 81.5 L 356 91.5 L 356 93.5 L 342 122.5 L 342 124.5 L 338 131.5 L 338 133.5 L 335 137.5 L 325 157.5 L 320.5 163 L 298.5 173 L 296.5 173 L 289.5 177 L 287.5 177 L 280.5 181 L 278.5 181 L 271.5 185 L 262.5 188 L 255.5 192 L 253.5 192 L 246.5 196 L 237.5 199 L 212.5 211 L 203.5 214 L 196.5 218 L 194.5 218 L 187.5 222 L 185.5 222 L 151.5 238 L 149.5 238 L 142.5 242 L 140.5 242 L 116.5 254 L 114.5 254 L 107 258.5 L 110 264.5 L 110 266.5 L 115 275.5 L 115 277.5 L 119 284.5 L 123 296.5 L 90.5 316 L 60.5 337 Q 35.3 356.3 14 379.5 L 4 392.5 L 0.5 402 L 0.5 0 Z " /><path fill="rgb(0,0,0)" stroke="rgb(0,0,0)" stroke-width="1" opacity="0.00392156862745098" d="M 444.5 0 L 640 0.5 L 639.5 427 L 638 419.5 L 637 418.5 L 637 415.5 L 636 414.5 L 636 411.5 L 635 410.5 L 635 407.5 L 634 406.5 L 634 403.5 L 633 402.5 L 633 399.5 L 632 398.5 L 632 395.5 L 628 383.5 L 628 380.5 L 626 376.5 L 624 365.5 L 622 361.5 L 621 354.5 L 619 350.5 L 619 347.5 L 616 338.5 L 614 336.5 L 613 324.5 L 612 323.5 L 612 320.5 L 611 319.5 L 611 316.5 L 610 315.5 L 610 312.5 L 609 311.5 L 609 308.5 L 608 307.5 L 605 292.5 L 603 288.5 L 603 285.5 L 599 273.5 L 602.5 270 L 618.5 261 L 628 253.5 L 628 247.5 L 625 241.5 L 622 230.5 L 624 229.5 L 624 225.5 L 622 219.5 L 609 190.5 L 606 181.5 L 605 174.5 L 585 129.5 L 613 90.5 L 617 83.5 L 626 72.5 L 626 70.5 L 632 63.5 L 634 57.5 L 631.5 55 L 624.5 55 L 623.5 56 L 619.5 56 L 611.5 59 L 608.5 59 L 581.5 68 L 557.5 91 L 548.5 98 L 542.5 98 L 528.5 104 L 522.5 105 L 520 103.5 L 515.5 97 Q 513.7 98.7 509.5 98 L 502 88.5 L 498 79.5 L 487 64.5 L 452 10.5 L 444 0.5 L 444.5 0 Z " /><path fill="rgb(0,0,0)" stroke="rgb(0,0,0)" stroke-width="1" opacity="0.00392156862745098" d="M 437.5 6 L 444.5 6 L 447 8.5 L 462 33.5 L 475 51.5 L 482 65.5 L 457.5 77 L 427 9.5 L 437.5 6 Z " /><path fill="rgb(0,0,0)" stroke="rgb(0,0,0)" stroke-width="1" opacity="0.00392156862745098" d="M 419.5 12 L 422 12.5 L 403.5 22 L 393 30.5 L 384 51.5 L 384 53.5 L 382 56.5 L 382 58.5 L 380 61.5 L 380 63.5 L 378 66.5 L 378 68.5 L 376 71.5 L 375 76.5 L 371 84.5 L 370 89.5 L 366 97.5 L 365 102.5 L 361 110.5 L 357 123.5 L 355 126.5 L 352 136.5 L 346.5 149 L 342.5 148 L 338 144.5 L 339 140.5 L 358 100.5 L 358 98.5 L 362 91.5 L 362 89.5 L 367 80.5 L 367 78.5 L 384 43.5 L 384 41.5 L 390 29.5 L 394.5 25 L 401.5 20 L 419.5 12 Z " /><path fill="rgb(0,0,0)" stroke="rgb(0,0,0)" stroke-width="1" opacity="0.00392156862745098" d="M 424.5 15 L 427 15.5 L 428 19.5 L 432 26.5 L 432 28.5 L 436 35.5 L 436 37.5 L 440 44.5 L 440 46.5 L 444 53.5 L 444 55.5 L 448 62.5 L 448 64.5 L 452 71.5 L 452 73.5 L 456 80.5 L 456 82.5 L 460 89.5 L 460 91.5 L 464 98.5 L 464 100.5 L 473 119.5 Q 454.4 131.9 438 146.5 L 435 150.5 Q 436 157 432.5 159 L 428.5 160 L 420 146.5 L 418 140.5 L 412 129.5 L 412 127.5 L 409.5 124 L 402.5 126 L 397.5 129 L 395.5 129 L 390.5 132 L 388.5 132 L 383.5 135 L 381.5 135 L 376.5 138 L 374.5 138 L 350.5 149 L 350 147.5 L 352 144.5 L 353 139.5 L 357 131.5 L 364 110.5 L 368 102.5 L 369 97.5 L 371 94.5 L 372 89.5 L 376 81.5 L 377 76.5 L 379 73.5 L 379 71.5 L 381 68.5 L 381 66.5 L 383 63.5 L 383 61.5 L 385 58.5 L 389 46.5 L 393 39.5 L 395 33.5 L 398.5 29 L 405.5 24 L 424.5 15 Z " /><path fill="rgb(0,0,0)" stroke="rgb(0,0,0)" stroke-width="1" opacity="0.00392156862745098" d="M 623.5 60 L 628 60.5 Q 624.8 68.3 618.5 73 L 608.5 78 L 606.5 78 L 596.5 83 L 594.5 83 L 592 85.5 L 542 145.5 L 523 166.5 L 521 170.5 Q 521.5 172.5 524.5 172 L 537.5 167 L 538 167.5 L 535.5 170 L 497.5 190 L 495.5 190 L 478.5 198 Q 475.8 196.8 478 195.5 L 478 192.5 L 487 177.5 L 509.5 155 L 584 82.5 L 587 77.5 L 588 72.5 L 590.5 70 L 600.5 67 L 603.5 65 L 606.5 65 L 613.5 62 L 622.5 61 L 623.5 60 Z " /><path fill="rgb(0,0,0)" stroke="rgb(0,0,0)" stroke-width="1" opacity="0.00392156862745098" d="M 483.5 69 L 485 69.5 L 504 96.5 Q 505.7 98.3 505 102.5 L 489.5 110 L 478.5 117 L 475.5 117 L 465 94.5 L 463 87.5 L 460 82.5 L 460 79.5 L 483.5 69 Z " /><path fill="rgb(0,0,0)" stroke="rgb(0,0,0)" stroke-width="1" opacity="0.00392156862745098" d="M 582.5 74 L 584 74.5 L 584 77.5 L 582 80.5 L 550.5 112 Q 518.2 141.2 488 172.5 L 478 184.5 L 476 190.5 L 476 193.5 L 471.5 200 L 468.5 202 L 463.5 203 Q 461.3 202.3 462 198.5 L 468 184.5 L 479.5 170 L 493.5 158 L 565.5 89 L 582.5 74 Z " /><path fill="rgb(0,0,0)" stroke="rgb(0,0,0)" stroke-width="1" opacity="0.00392156862745098" d="M 612.5 79 L 615 79.5 L 614 82.5 L 607 90.5 L 599 103.5 L 581.5 127 Q 578.2 126.2 577.5 128 L 563.5 128 L 562 125.5 L 587 95.5 L 597.5 85 L 612.5 79 Z " /><path fill="rgb(0,0,0)" stroke="rgb(0,0,0)" stroke-width="1" opacity="0.00392156862745098" d="M 512.5 102 Q 516.5 101.5 517 104.5 L 526 120.5 L 526 123.5 Q 495.6 149.6 468 178.5 L 465 183.5 L 462 192.5 L 459.5 196 L 456.5 197 L 447 179.5 L 447 177.5 L 436 154.5 L 443.5 146 L 473.5 123 L 512.5 102 Z " /><path fill="rgb(0,0,0)" stroke="rgb(0,0,0)" stroke-width="1" opacity="0.00392156862745098" d="M 534.5 106 L 538 106.5 L 531.5 109 L 527.5 113 L 524.5 113 L 524 111.5 L 534.5 106 Z " /><path fill="rgb(0,0,0)" stroke="rgb(0,0,0)" stroke-width="1" opacity="0.00392156862745098" d="M 541.5 106 L 543 106.5 Q 542 109 541 107.5 L 541.5 106 Z " /><path fill="rgb(0,0,0)" stroke="rgb(0,0,0)" stroke-width="1" opacity="0.00392156862745098" d="M 533.5 111 L 536 111.5 L 534.5 114 L 532 113.5 L 533.5 111 Z " /><path fill="rgb(0,0,0)" stroke="rgb(0,0,0)" stroke-width="1" opacity="0.00392156862745098" d="M 526.5 115 L 529 116.5 L 528.5 118 L 526 116.5 L 526.5 115 Z " /><path fill="rgb(0,0,0)" stroke="rgb(0,0,0)" stroke-width="1" opacity="0.00392156862745098" d="M 405.5 131 Q 408.5 130.5 409 132.5 L 428 172.5 L 426.5 174 L 424.5 174 L 408.5 182 L 399.5 185 L 383.5 193 L 381.5 193 L 367.5 200 L 358.5 203 L 343 173.5 L 343 171.5 L 338 161.5 L 340.5 159 L 359.5 150 L 361.5 150 L 368.5 146 L 370.5 146 L 375.5 143 L 377.5 143 L 382.5 140 L 384.5 140 L 389.5 137 L 391.5 137 L 405.5 131 Z " /><path fill="rgb(0,0,0)" stroke="rgb(0,0,0)" stroke-width="1" opacity="0.00392156862745098" d="M 557.5 131 L 578 131.5 L 572 141.5 L 565.5 149 L 540.5 162 L 528.5 166 L 528 164.5 L 537 155.5 L 557.5 131 Z " /><path fill="rgb(0,0,0)" stroke="rgb(0,0,0)" stroke-width="1" opacity="0.00392156862745098" d="M 581.5 135 L 591 152.5 L 591 154.5 L 600 173.5 L 601 178.5 Q 599.5 181.5 598 178.5 L 595 173.5 L 595 171.5 L 591 164.5 L 591 162.5 L 588 157.5 L 588 155.5 L 582 142.5 L 581 139.5 L 581.5 135 Z " /><path fill="rgb(0,0,0)" stroke="rgb(0,0,0)" stroke-width="1" opacity="0.00392156862745098" d="M 576.5 142 L 579 144.5 L 588 163.5 L 588 165.5 L 593 175.5 L 594 181.5 Q 593 183 592 180.5 L 591 175.5 L 587 171.5 L 580 157.5 L 576 145.5 L 576.5 142 Z " /><path fill="rgb(0,0,0)" stroke="rgb(0,0,0)" stroke-width="1" opacity="0.00392156862745098" d="M 571.5 149 L 573 149.5 L 580 163.5 L 580 165.5 L 583 171.5 L 583 174.5 Q 581.5 177.5 580 174.5 L 572 157.5 L 570 150.5 L 571.5 149 Z " /><path fill="rgb(0,0,0)" stroke="rgb(0,0,0)" stroke-width="1" opacity="0.00392156862745098" d="M 565.5 155 L 568 155.5 L 575 170.5 L 576 177.5 Q 575 180 574 178.5 L 566 161.5 L 565 158.5 L 565.5 155 Z " /><path fill="rgb(0,0,0)" stroke="rgb(0,0,0)" stroke-width="1" opacity="0.00392156862745098" d="M 560.5 158 L 569 174.5 L 570 180.5 Q 569 182 568 179.5 L 561 164.5 L 560 161.5 L 560.5 158 Z " /><path fill="rgb(0,0,0)" stroke="rgb(0,0,0)" stroke-width="1" opacity="0.00392156862745098" d="M 554.5 161 L 560 168.5 L 566 180.5 L 570 192.5 Q 569 194 568 191.5 L 559 174.5 L 559 172.5 L 554 161.5 L 554.5 161 Z " /><path fill="rgb(0,0,0)" stroke="rgb(0,0,0)" stroke-width="1" opacity="0.00392156862745098" d="M 335.5 162 L 354 205.5 L 327.5 218 L 325.5 218 L 318.5 222 L 316.5 222 L 309.5 226 L 307.5 226 L 300.5 230 L 298.5 230 L 291.5 234 L 284.5 236 L 282 233.5 L 277 223.5 L 277 221.5 L 275 218.5 L 275 216.5 L 273 213.5 L 273 211.5 L 271 208.5 L 271 206.5 L 265 192.5 L 289.5 181 L 291.5 181 L 296.5 178 L 298.5 178 L 303.5 175 L 310.5 173 L 315.5 170 L 317.5 170 L 335.5 162 Z " /><path fill="rgb(0,0,0)" stroke="rgb(0,0,0)" stroke-width="1" opacity="0.00392156862745098" d="M 433.5 162 L 436 163.5 L 450 192.5 L 461.5 206 L 465.5 206 L 474.5 203 L 489.5 196 L 491.5 196 L 498.5 192 L 500.5 192 L 516.5 184 Q 518 185 515.5 186 L 479.5 206 L 467 215.5 L 465 221.5 L 466 222.5 L 467 230.5 L 469 233.5 L 471 240.5 L 477 252.5 L 482.5 259 L 489.5 260 L 490.5 261 L 494.5 261 L 495.5 260 L 501.5 260 L 502.5 259 L 509.5 258 L 526.5 252 L 529.5 252 L 538.5 248 L 549.5 245 L 567.5 237 L 580.5 251 L 583.5 253 L 584 251.5 L 577 243.5 L 577 241.5 L 579.5 241 L 582 243.5 L 586 255.5 L 589 261.5 L 591.5 264 L 594.5 264 L 612.5 257 L 613 257.5 L 609.5 261 L 594.5 270 L 584.5 271 L 583.5 272 L 578.5 272 L 577.5 273 L 572.5 273 L 571.5 274 L 566.5 274 L 565.5 275 L 561.5 275 L 560.5 276 L 556.5 276 L 555.5 277 L 541.5 279 L 540.5 280 L 532.5 281 L 531.5 282 L 528.5 282 L 527.5 283 L 524.5 283 L 523.5 284 L 520.5 284 L 519.5 285 L 516.5 285 L 515.5 286 L 512.5 286 L 511.5 287 L 508.5 287 L 507.5 288 L 504.5 288 L 503.5 289 L 500.5 289 L 491.5 292 L 486 285.5 L 457 227.5 L 457 225.5 L 436 182.5 L 430 164.5 L 433.5 162 Z " /><path fill="rgb(0,0,0)" stroke="rgb(0,0,0)" stroke-width="1" opacity="0.00392156862745098" d="M 551.5 163 Q 554.8 163.8 554 168.5 L 552.5 169 Q 549.6 167.6 551.5 163 Z " /><path fill="rgb(0,0,0)" stroke="rgb(0,0,0)" stroke-width="1" opacity="0.00392156862745098" d="M 547.5 167 L 549 169.5 Q 548 171 547 168.5 L 547.5 167 Z " /><path fill="rgb(0,0,0)" stroke="rgb(0,0,0)" stroke-width="1" opacity="0.00392156862745098" d="M 542.5 169 L 545 170.5 Q 545.5 173.5 543.5 174 L 541 170.5 L 542.5 169 Z " /><path fill="rgb(0,0,0)" stroke="rgb(0,0,0)" stroke-width="1" opacity="0.00392156862745098" d="M 538.5 172 L 540 174.5 Q 539 176 538 173.5 L 538.5 172 Z " /><path fill="rgb(0,0,0)" stroke="rgb(0,0,0)" stroke-width="1" opacity="0.00392156862745098" d="M 550.5 173 L 554 173.5 L 558 183.5 L 558 186.5 L 560 190.5 L 562 200.5 L 568.5 217 L 570.5 217 L 591.5 207 L 597.5 206 L 598.5 207 L 604.5 207 L 606 208.5 L 600.5 217 L 579.5 228 L 577.5 228 L 568.5 233 L 566.5 233 L 559.5 237 L 557.5 237 L 552.5 240 L 550.5 240 L 545.5 243 L 535.5 246 L 532.5 248 L 517.5 253 L 514.5 253 L 510.5 255 L 501.5 256 L 500.5 257 L 485.5 257 L 481 255.5 L 469 228.5 L 468 225.5 L 468 219.5 L 473.5 213 L 499.5 199 L 501.5 197 L 550.5 173 Z M 595 212 Q 593 215 588 214 L 583 218 L 586 221 L 591 218 Q 595 219 597 217 Q 599 216 598 213 L 595 212 Z M 577 219 L 575 220 L 573 224 Q 574 226 579 225 Q 581 225 581 221 Q 580 218 577 219 Z " /><path fill="rgb(0,0,0)" stroke="rgb(0,0,0)" stroke-width="1" opacity="0.00392156862745098" d="M 586.5 176 L 590 182.5 L 591 189.5 L 588.5 191 L 574.5 192 L 573 190.5 L 572 184.5 L 575.5 181 L 586.5 176 Z " /><path fill="rgb(0,0,0)" stroke="rgb(0,0,0)" stroke-width="1" opacity="0.00392156862745098" d="M 527.5 178 L 530 178.5 L 529.5 180 L 527.5 181 L 527.5 178 Z " /><path fill="rgb(0,0,0)" stroke="rgb(0,0,0)" stroke-width="1" opacity="0.00392156862745098" d="M 429.5 180 L 431 180.5 L 429.5 183 L 409.5 192 L 409 189.5 L 418.5 184 L 420.5 184 L 429.5 180 Z " /><path fill="rgb(0,0,0)" stroke="rgb(0,0,0)" stroke-width="1" opacity="0.00392156862745098" d="M 598.5 184 L 608 201.5 L 608 203.5 L 616 220.5 L 617 225.5 L 616 225.5 L 602 196.5 L 602 194.5 L 598 185.5 L 598.5 184 Z " /><path fill="rgb(0,0,0)" stroke="rgb(0,0,0)" stroke-width="1" opacity="0.00392156862745098" d="M 431.5 186 L 434 186.5 L 461 241.5 L 461 243.5 L 468 256.5 L 468 258.5 L 466.5 260 L 464.5 260 L 443.5 270 L 440 262.5 L 437.5 260 L 430 263.5 Q 430.5 266.5 428.5 267 Q 424 268 423 265.5 L 422 261.5 L 429 254.5 L 428 253.5 L 422 239.5 L 419.5 237 L 414.5 238 L 412 235.5 L 405 221.5 L 405 219.5 L 410.5 218 L 415 213.5 L 415 205.5 L 412 199.5 L 412 195.5 L 416.5 192 L 418.5 192 L 431.5 186 Z " /><path fill="rgb(0,0,0)" stroke="rgb(0,0,0)" stroke-width="1" opacity="0.00392156862745098" d="M 563.5 188 L 566 194.5 L 564.5 195 Q 561.9 192.7 563.5 188 Z " /><path fill="rgb(0,0,0)" stroke="rgb(0,0,0)" stroke-width="1" opacity="0.00392156862745098" d="M 594.5 189 L 596 189.5 Q 598.3 192.7 597 199.5 L 596 199.5 L 594 194.5 L 594.5 189 Z " /><path fill="rgb(0,0,0)" stroke="rgb(0,0,0)" stroke-width="1" opacity="0.00392156862745098" d="M 581.5 194 L 583 194.5 L 581.5 197 L 580 196.5 L 581.5 194 Z " /><path fill="rgb(0,0,0)" stroke="rgb(0,0,0)" stroke-width="1" opacity="0.00392156862745098" d="M 260.5 195 L 262 195.5 L 275 222.5 L 275 224.5 L 281 235.5 L 281 237.5 L 269.5 243 L 267.5 243 L 256.5 249 L 254.5 249 L 245.5 254 L 243.5 254 L 234.5 259 L 232.5 259 L 223.5 264 L 221.5 264 L 212.5 269 L 207.5 270 L 188 226.5 L 260.5 195 Z " /><path fill="rgb(0,0,0)" stroke="rgb(0,0,0)" stroke-width="1" opacity="0.00392156862745098" d="M 402.5 195 Q 406.4 195.6 408 198.5 L 409 200.5 L 408 203.5 L 405.5 206 L 400.5 207 L 396 203.5 L 396 199.5 L 399.5 196 L 402.5 195 Z " /><path fill="rgb(0,0,0)" stroke="rgb(0,0,0)" stroke-width="1" opacity="0.00392156862745098" d="M 574.5 195 L 577 196.5 L 576.5 199 L 573 198.5 Q 572.5 195.5 574.5 195 Z " /><path fill="rgb(0,0,0)" stroke="rgb(0,0,0)" stroke-width="1" opacity="0.00392156862745098" d="M 591.5 196 L 594 198.5 L 595 202.5 L 593.5 203 L 591 198.5 L 591.5 196 Z " /><path fill="rgb(0,0,0)" stroke="rgb(0,0,0)" stroke-width="1" opacity="0.00392156862745098" d="M 568.5 197 L 570 199.5 Q 569 201 568 198.5 L 568.5 197 Z " /><path fill="rgb(0,0,0)" stroke="rgb(0,0,0)" stroke-width="1" opacity="0.00392156862745098" d="M 600.5 198 L 603 201.5 Q 602 203 601 200.5 L 600.5 198 Z " /><path fill="rgb(0,0,0)" stroke="rgb(0,0,0)" stroke-width="1" opacity="0.00392156862745098" d="M 374.5 199 L 376 199.5 L 373.5 201 Q 372 200 374.5 199 Z " /><path fill="rgb(0,0,0)" stroke="rgb(0,0,0)" stroke-width="1" opacity="0.00392156862745098" d="M 387.5 199 L 391 199.5 L 379.5 206 L 377.5 206 L 355.5 217 L 353.5 217 L 335.5 226 L 333.5 226 L 326.5 230 L 324.5 230 L 317.5 234 L 315.5 234 L 308.5 238 L 306.5 238 L 297.5 243 L 295.5 243 L 284 249.5 L 285.5 250 L 296.5 245 L 298.5 245 L 305.5 241 L 312.5 239 L 313 240.5 L 311 244.5 L 311 250.5 L 312 251.5 L 312 254.5 L 315 263.5 L 317.5 267 L 326 271.5 L 325.5 273 L 320.5 271 L 317 273.5 L 316 277.5 L 318.5 281 L 324 281.5 L 322.5 284 L 313 289.5 L 319 301.5 L 319 303.5 L 320.5 305 L 326.5 302 L 334.5 300 L 335 300.5 L 332.5 303 L 320.5 309 L 318.5 309 L 314 312.5 Q 313.3 315.8 315 316.5 L 312.5 318 L 309 313.5 L 308 309.5 L 301 296.5 L 301 294.5 L 293 278.5 L 293 276.5 L 287 264.5 L 287 262.5 L 285 259.5 L 285 257.5 L 283 254.5 L 280 245.5 L 281.5 244 L 283.5 244 L 290.5 240 L 299.5 237 L 306.5 233 L 308.5 233 L 329.5 223 L 331.5 223 L 336.5 220 L 345.5 217 L 352.5 213 L 354.5 213 L 359.5 210 L 361.5 210 L 371.5 205 L 373.5 205 L 387.5 199 Z M 297 257 L 290 261 L 299 280 L 299 282 L 304 289 L 310 287 L 311 286 L 299 259 L 297 257 Z " /><path fill="rgb(0,0,0)" stroke="rgb(0,0,0)" stroke-width="1" opacity="0.00392156862745098" d="M 581.5 199 Q 584.5 198.5 585 200.5 L 587 204.5 L 587 207.5 L 585.5 208 L 582.5 202 L 580 200.5 L 581.5 199 Z " /><path fill="rgb(0,0,0)" stroke="rgb(0,0,0)" stroke-width="1" opacity="0.00392156862745098" d="M 587.5 200 L 590 201.5 L 589.5 203 L 587 201.5 L 587.5 200 Z " /><path fill="rgb(0,0,0)" stroke="rgb(0,0,0)" stroke-width="1" opacity="0.00392156862745098" d="M 576.5 201 L 577 210.5 L 575.5 211 L 573.5 208 L 571.5 212 L 570 211.5 L 570.5 207 L 572.5 208 L 573 206.5 L 572 204.5 L 576.5 201 Z " /><path fill="rgb(0,0,0)" stroke="rgb(0,0,0)" stroke-width="1" opacity="0.00392156862745098" d="M 579.5 204 L 582 204.5 L 581.5 207 L 579 205.5 L 579.5 204 Z " /><path fill="rgb(0,0,0)" stroke="rgb(0,0,0)" stroke-width="1" opacity="0.00392156862745098" d="M 388.5 205 Q 394 204 395 207.5 L 398 214.5 L 400.5 217 L 402 217.5 L 401.5 220 Q 396.8 220.8 396 217.5 L 392.5 212 Q 387.3 210.8 386 213.5 L 386 217.5 L 388 221.5 L 387 221.5 L 382.5 214 L 372.5 217 L 368 219.5 L 379.5 242 L 384.5 242 L 388 245.5 L 389 248.5 L 383 251.5 L 384 255.5 L 391 269.5 Q 396.8 272.8 398 280.5 L 370.5 293 L 368.5 293 L 363.5 296 L 348.5 301 L 348 300.5 L 351.5 297 L 354 295.5 L 356 292.5 L 356 289.5 L 357.5 288 L 361.5 291 L 367.5 291 Q 372.3 289.3 375 285.5 L 375 283.5 L 368.5 272 L 359.5 277 L 356.5 277 Q 354 276 355 271.5 L 359 268.5 L 360 263.5 L 359 260.5 Q 362.5 259 360 257.5 L 359 251.5 L 353.5 239 Q 346.4 239.9 343 244.5 L 346.5 245 L 349.5 243 L 351.5 243 L 355 249.5 L 357 257.5 L 349.5 262 L 341.5 245 L 340 245.5 L 343 255.5 L 349 266.5 L 347.5 266 Q 342.8 265.8 341 262.5 L 342 259.5 L 339.5 255 L 339 259.5 L 333.5 265 L 327.5 268 L 326 263.5 L 337 253.5 L 337 247.5 L 334 241.5 L 329.5 237 L 324.5 236 L 323 234.5 L 325.5 232 L 330.5 231 Q 335.2 235.3 337.5 242 L 351 235.5 L 347 223.5 L 354.5 219 L 356.5 219 L 361.5 216 L 363.5 216 L 368.5 213 L 370.5 213 L 375.5 210 L 377.5 210 L 388.5 205 Z " /><path fill="rgb(0,0,0)" stroke="rgb(0,0,0)" stroke-width="1" opacity="0.00392156862745098" d="M 410.5 206 Q 412.8 206.8 412 210.5 L 409.5 214 L 404.5 215 L 399 210.5 Q 400.3 207.8 405.5 209 L 410.5 206 Z " /><path fill="rgb(0,0,0)" stroke="rgb(0,0,0)" stroke-width="1" opacity="0.00392156862745098" d="M 390.5 215 L 400 232.5 L 403 242.5 Q 402 244 401 241.5 L 391 220.5 L 390 217.5 L 390.5 215 Z " /><path fill="rgb(0,0,0)" stroke="rgb(0,0,0)" stroke-width="1" opacity="0.00392156862745098" d="M 605.5 215 L 608 216.5 L 611 222.5 L 612 228.5 L 609.5 229 L 606 223.5 L 604 216.5 L 605.5 215 Z " /><path fill="rgb(0,0,0)" stroke="rgb(0,0,0)" stroke-width="1" opacity="0.00392156862745098" d="M 378.5 218 Q 382.4 218.6 384 221.5 L 385 225.5 L 381 228.5 L 382 233.5 L 379.5 235 L 374 225.5 L 373 221.5 L 375.5 219 L 378.5 218 Z " /><path fill="rgb(0,0,0)" stroke="rgb(0,0,0)" stroke-width="1" opacity="0.00392156862745098" d="M 599.5 221 Q 603.5 220.5 604 223.5 L 606 229.5 Q 603.5 234.5 601 229.5 L 599 225.5 L 599.5 221 Z " /><path fill="rgb(0,0,0)" stroke="rgb(0,0,0)" stroke-width="1" opacity="0.00392156862745098" d="M 401.5 223 L 404 223.5 L 410 235.5 L 411 242.5 L 408.5 243 L 402 230.5 L 401 227.5 L 401.5 223 Z " /><path fill="rgb(0,0,0)" stroke="rgb(0,0,0)" stroke-width="1" opacity="0.00392156862745098" d="M 594.5 223 L 597 224.5 L 599 228.5 L 599 233.5 L 597.5 234 Q 593.9 230.6 593 224.5 L 594.5 223 Z " /><path fill="rgb(0,0,0)" stroke="rgb(0,0,0)" stroke-width="1" opacity="0.00392156862745098" d="M 588.5 226 L 590 226.5 L 592 229.5 L 593 234.5 L 590.5 235 L 588 232.5 L 587 228.5 L 588.5 226 Z " /><path fill="rgb(0,0,0)" stroke="rgb(0,0,0)" stroke-width="1" opacity="0.00392156862745098" d="M 186.5 227 L 206 270.5 L 179.5 283 L 177.5 283 L 170.5 287 L 168.5 287 L 161.5 291 L 159.5 291 L 152.5 295 L 150.5 295 L 138.5 301 L 136 303.5 L 137 305.5 L 135.5 306 L 133 303.5 L 125 287.5 L 125 285.5 L 120 276.5 L 120 274.5 L 118 271.5 L 114 259.5 L 186.5 227 Z " /><path fill="rgb(0,0,0)" stroke="rgb(0,0,0)" stroke-width="1" opacity="0.00392156862745098" d="M 341.5 228 Q 345.3 227.3 346 229.5 L 347 233.5 L 341.5 237 L 338.5 237 Q 336.4 235.6 337 231.5 L 341.5 228 Z " /><path fill="rgb(0,0,0)" stroke="rgb(0,0,0)" stroke-width="1" opacity="0.00392156862745098" d="M 387.5 229 Q 392.3 228.3 393 231.5 L 398 243.5 L 398 247.5 L 394.5 250 L 392.5 250 L 387 240.5 L 384 231.5 L 387.5 229 Z " /><path fill="rgb(0,0,0)" stroke="rgb(0,0,0)" stroke-width="1" opacity="0.00392156862745098" d="M 584.5 230 Q 586.6 231.4 586 235.5 L 584.5 236 L 583 231.5 L 584.5 230 Z " /><path fill="rgb(0,0,0)" stroke="rgb(0,0,0)" stroke-width="1" opacity="0.00392156862745098" d="M 615.5 230 L 618 231.5 L 620 237.5 L 624 244.5 L 625 249.5 L 607.5 257 L 605.5 257 L 595.5 262 L 593.5 262 L 584 240.5 L 585.5 239 L 591.5 238 L 595.5 236 L 598.5 236 L 615.5 230 Z " /><path fill="rgb(0,0,0)" stroke="rgb(0,0,0)" stroke-width="1" opacity="0.00392156862745098" d="M 578.5 232 L 580 232.5 L 581 235.5 Q 580.5 237.5 577.5 237 L 577 233.5 L 578.5 232 Z " /><path fill="rgb(0,0,0)" stroke="rgb(0,0,0)" stroke-width="1" opacity="0.00392156862745098" d="M 571.5 235 L 574 236.5 L 573.5 238 L 571 236.5 L 571.5 235 Z " /><path fill="rgb(0,0,0)" stroke="rgb(0,0,0)" stroke-width="1" opacity="0.00392156862745098" d="M 381.5 237 L 383 237.5 L 381.5 240 Q 378.5 238.5 381.5 237 Z " /><path fill="rgb(0,0,0)" stroke="rgb(0,0,0)" stroke-width="1" opacity="0.00392156862745098" d="M 321.5 238 Q 324.3 239.3 322 240.5 Q 321.3 245.3 324.5 246 L 327 245.5 L 327 243.5 L 329.5 240 L 333 242.5 L 335 249.5 L 332.5 254 L 329.5 248 L 327.5 247 Q 324.3 247.8 325 252.5 L 330 256.5 L 328.5 259 Q 326.7 260.7 322.5 260 Q 321.8 258.3 318.5 259 L 314 254.5 L 313 251.5 L 313 245.5 L 314.5 243 L 321.5 238 Z M 316 247 L 314 249 L 315 253 Q 316 255 320 254 L 321 252 L 320 249 Q 319 246 316 247 Z " /><path fill="rgb(0,0,0)" stroke="rgb(0,0,0)" stroke-width="1" opacity="0.00392156862745098" d="M 415.5 240 Q 420 239 421 241.5 L 426 251.5 L 418.5 256 L 416.5 256 L 403.5 263 L 401.5 263 L 394.5 268 L 390 261.5 L 390 259.5 L 388 256.5 L 388 252.5 L 389.5 252 L 393.5 254 L 398.5 251 L 400.5 251 L 404.5 256 L 406.5 257 L 411 254.5 Q 409 243 415.5 240 Z " /><path fill="rgb(0,0,0)" stroke="rgb(0,0,0)" stroke-width="1" opacity="0.00392156862745098" d="M 277.5 242 L 279 242.5 Q 278 245 277 243.5 L 277.5 242 Z " /><path fill="rgb(0,0,0)" stroke="rgb(0,0,0)" stroke-width="1" opacity="0.00392156862745098" d="M 403.5 246 Q 406.5 245.5 407 247.5 L 408 252.5 L 406.5 253 L 403 247.5 L 403.5 246 Z " /><path fill="rgb(0,0,0)" stroke="rgb(0,0,0)" stroke-width="1" opacity="0.00392156862745098" d="M 274.5 248 L 277 248.5 L 282 258.5 L 284 265.5 L 276.5 270 L 270.5 272 L 267 266.5 L 267 264.5 L 262 254.5 L 274.5 248 Z " /><path fill="rgb(0,0,0)" stroke="rgb(0,0,0)" stroke-width="1" opacity="0.00392156862745098" d="M 254.5 257 L 257 257.5 L 265 274.5 L 246.5 283 L 238 264.5 L 241.5 262 L 251.5 259 L 254.5 257 Z " /><path fill="rgb(0,0,0)" stroke="rgb(0,0,0)" stroke-width="1" opacity="0.00392156862745098" d="M 295.5 260 L 298 261.5 L 298 265.5 L 302 269.5 L 305 276.5 L 305 281.5 L 303.5 283 L 301 280.5 L 295 267.5 L 294 261.5 L 295.5 260 Z " /><path fill="rgb(0,0,0)" stroke="rgb(0,0,0)" stroke-width="1" opacity="0.00392156862745098" d="M 417.5 262 L 419 264.5 L 415.5 268 L 409.5 271 L 399.5 274 L 398 271.5 L 404.5 267 L 406.5 267 L 417.5 262 Z " /><path fill="rgb(0,0,0)" stroke="rgb(0,0,0)" stroke-width="1" opacity="0.00392156862745098" d="M 319.5 264 Q 322.5 263.5 323 265.5 L 320.5 266 Q 318 265 319.5 264 Z " /><path fill="rgb(0,0,0)" stroke="rgb(0,0,0)" stroke-width="1" opacity="0.00392156862745098" d="M 435.5 264 L 438 265.5 L 439 269.5 Q 438.3 271.8 434.5 271 Q 432.3 270.3 433 266.5 L 435.5 264 Z " /><path fill="rgb(0,0,0)" stroke="rgb(0,0,0)" stroke-width="1" opacity="0.00392156862745098" d="M 470.5 264 L 481 283.5 L 483 285.5 L 487 294.5 L 469.5 303 L 460.5 306 L 453.5 310 L 451.5 310 L 444.5 314 L 442.5 314 L 435.5 318 L 428.5 320 L 423.5 323 L 417.5 325 L 414.5 325 L 402 305.5 L 398 297.5 L 398 295.5 L 470.5 264 Z " /><path fill="rgb(0,0,0)" stroke="rgb(0,0,0)" stroke-width="1" opacity="0.00392156862745098" d="M 353.5 265 L 356 266.5 L 355.5 268 L 353 266.5 L 353.5 265 Z " /><path fill="rgb(0,0,0)" stroke="rgb(0,0,0)" stroke-width="1" opacity="0.00392156862745098" d="M 232.5 267 L 241 284.5 L 233.5 289 L 231.5 289 L 224.5 293 L 218.5 295 L 210 276.5 L 232.5 267 Z " /><path fill="rgb(0,0,0)" stroke="rgb(0,0,0)" stroke-width="1" opacity="0.00392156862745098" d="M 338.5 267 Q 345 266 347 269.5 L 352 279.5 L 353 285.5 L 354 286.5 L 354 290.5 L 350.5 295 L 346.5 296 Q 343.3 295.3 344 290.5 Q 347.8 290.3 349 287.5 L 347 286.5 L 348 283.5 L 348 276.5 L 344.5 270 L 338.5 268 L 338.5 267 Z " /><path fill="rgb(0,0,0)" stroke="rgb(0,0,0)" stroke-width="1" opacity="0.00392156862745098" d="M 284.5 270 L 286 270.5 L 281.5 274 L 275.5 276 L 264.5 282 L 262.5 282 L 235.5 295 L 233.5 295 L 219.5 302 L 217.5 302 L 203.5 309 L 201.5 309 L 194.5 313 L 192.5 313 L 185.5 317 L 183.5 317 L 149 333.5 L 149.5 335 L 163.5 329 L 169.5 328 L 170 330.5 L 159.5 336 L 149.5 339 L 136 309.5 L 137.5 308 L 139.5 308 L 147.5 304 L 157.5 301 L 165 318.5 L 147 327.5 L 147.5 329 L 161.5 323 L 163.5 323 L 175.5 317 L 177.5 317 L 184.5 313 L 186.5 313 L 200.5 306 L 209.5 303 L 243.5 287 L 245.5 287 L 259.5 280 L 261.5 280 L 266.5 277 L 268.5 277 L 284.5 270 Z " /><path fill="rgb(0,0,0)" stroke="rgb(0,0,0)" stroke-width="1" opacity="0.00392156862745098" d="M 415.5 271 L 417 271.5 L 413.5 273 L 413.5 272 L 415.5 271 Z " /><path fill="rgb(0,0,0)" stroke="rgb(0,0,0)" stroke-width="1" opacity="0.00392156862745098" d="M 427.5 271 L 430 275.5 L 429.5 276 L 427 273.5 L 427.5 271 Z " /><path fill="rgb(0,0,0)" stroke="rgb(0,0,0)" stroke-width="1" opacity="0.00392156862745098" d="M 340.5 272 L 343 272.5 L 342.5 275 L 340 273.5 L 340.5 272 Z " /><path fill="rgb(0,0,0)" stroke="rgb(0,0,0)" stroke-width="1" opacity="0.00392156862745098" d="M 423.5 272 L 426 273.5 L 423.5 275 L 423.5 272 Z " /><path fill="rgb(0,0,0)" stroke="rgb(0,0,0)" stroke-width="1" opacity="0.00392156862745098" d="M 329.5 273 L 330 279.5 Q 331.7 284.3 335.5 287 L 339 289.5 L 339 293.5 L 342 298.5 L 339.5 299 L 334 295.5 L 335 290.5 L 330 286.5 L 328 282.5 L 328 274.5 L 329.5 273 Z " /><path fill="rgb(0,0,0)" stroke="rgb(0,0,0)" stroke-width="1" opacity="0.00392156862745098" d="M 320.5 274 Q 323.5 273.5 324 275.5 L 322.5 278 Q 319.5 278.5 319 276.5 L 320.5 274 Z " /><path fill="rgb(0,0,0)" stroke="rgb(0,0,0)" stroke-width="1" opacity="0.00392156862745098" d="M 333.5 274 L 336 275.5 L 334.5 278 L 332 276.5 L 333.5 274 Z " /><path fill="rgb(0,0,0)" stroke="rgb(0,0,0)" stroke-width="1" opacity="0.00392156862745098" d="M 285.5 275 L 289 275.5 Q 289.5 278.5 287.5 279 L 281.5 282 L 275.5 283 L 274 281.5 L 276.5 279 L 285.5 275 Z " /><path fill="rgb(0,0,0)" stroke="rgb(0,0,0)" stroke-width="1" opacity="0.00392156862745098" d="M 364.5 276 Q 368.5 275.5 369 278.5 L 371 281.5 L 371 285.5 L 363.5 289 L 359 280.5 Q 360.3 277.8 361.5 280 L 364 279.5 L 363 277.5 L 364.5 276 Z " /><path fill="rgb(0,0,0)" stroke="rgb(0,0,0)" stroke-width="1" opacity="0.00392156862745098" d="M 414.5 277 L 416 277.5 L 406.5 283 L 404.5 283 L 380.5 295 L 378.5 295 L 355.5 306 L 353.5 306 L 332.5 315 L 332 313.5 L 339.5 309 L 341.5 309 L 363.5 298 L 365.5 298 L 370.5 295 L 372.5 295 L 377.5 292 L 379.5 292 L 384.5 289 L 386.5 289 L 391.5 286 L 393.5 286 L 398.5 283 L 400.5 283 L 414.5 277 Z " /><path fill="rgb(0,0,0)" stroke="rgb(0,0,0)" stroke-width="1" opacity="0.00392156862745098" d="M 584.5 277 L 594.5 277 L 596 278.5 L 598 284.5 L 598 287.5 L 599 288.5 L 599 291.5 L 600 292.5 L 600 295.5 L 601 296.5 L 603 310.5 L 604 311.5 L 605 318.5 L 608 325.5 L 608 328.5 L 610 334.5 L 582 348.5 L 582.5 350 L 611.5 338 L 613 345.5 L 614 346.5 L 614 349.5 L 617 357.5 L 617 360.5 L 619 364.5 L 622 379.5 L 624 383.5 L 624 386.5 L 625 387.5 L 625 390.5 L 626 391.5 L 626 394.5 L 627 395.5 L 627 398.5 L 628 399.5 L 628 402.5 L 629 403.5 L 629 406.5 L 630 407.5 L 633 422.5 L 635 426.5 L 635 430.5 L 625.5 436 L 621.5 436 L 617 430.5 L 614 424.5 L 614 422.5 L 599 392.5 L 599 390.5 L 594 381.5 L 594 379.5 L 589 370.5 L 589 368.5 L 584 359.5 L 584 357.5 L 580 350.5 L 580 348.5 L 564 314.5 L 564 312.5 L 561 307.5 L 561 305.5 L 558 300.5 L 558 298.5 L 555 293.5 L 555 291.5 L 551 282.5 L 552.5 281 Q 557.3 282.3 558.5 280 L 565.5 280 L 566.5 279 L 573.5 279 L 574.5 278 L 583.5 278 L 584.5 277 Z " /><path fill="rgb(0,0,0)" stroke="rgb(0,0,0)" stroke-width="1" opacity="0.00392156862745098" d="M 196.5 278 L 197 279.5 L 195.5 280 Q 194 279 196.5 278 Z " /><path fill="rgb(0,0,0)" stroke="rgb(0,0,0)" stroke-width="1" opacity="0.00392156862745098" d="M 206.5 278 L 208 278.5 L 210 284.5 L 214 291.5 L 215 296.5 L 196.5 305 L 193 299.5 L 193 297.5 L 188 287.5 L 206.5 278 Z " /><path fill="rgb(0,0,0)" stroke="rgb(0,0,0)" stroke-width="1" opacity="0.00392156862745098" d="M 339.5 279 L 343 279.5 Q 343.5 282.5 341.5 283 L 339 282.5 L 339.5 279 Z " /><path fill="rgb(0,0,0)" stroke="rgb(0,0,0)" stroke-width="1" opacity="0.00392156862745098" d="M 289.5 281 L 292 282.5 L 299 297.5 L 299 299.5 L 303 306.5 L 303 308.5 L 306 313.5 L 307 318.5 L 297.5 324 L 295.5 324 L 288.5 328 L 286.5 328 L 270.5 336 L 261.5 339 L 243.5 348 L 241.5 348 L 219.5 359 L 216.5 362 L 212.5 363 Q 211.5 361 210.5 363 L 208 363.5 Q 206.3 365.3 207 369.5 Q 208.7 370.3 208 373.5 L 204.5 376 L 202.5 376 L 197.5 379 L 195.5 379 L 185.5 384 L 183.5 384 L 172.5 391 L 161 368.5 L 161 366.5 L 158 361.5 L 153 346.5 L 151 343.5 L 151 341.5 L 158.5 338 L 160.5 338 L 165.5 335 L 167.5 335 L 181.5 328 L 183.5 328 L 188.5 325 L 190.5 325 L 204.5 318 L 206.5 318 L 211.5 315 L 213.5 315 L 220.5 311 L 229.5 308 L 236.5 304 L 245.5 301 L 252.5 297 L 261.5 294 L 268.5 290 L 270.5 290 L 289.5 281 Z " /><path fill="rgb(0,0,0)" stroke="rgb(0,0,0)" stroke-width="1" opacity="0.00392156862745098" d="M 543.5 281 L 546 283.5 L 552 295.5 L 552 297.5 L 560 312.5 L 560 314.5 L 565 323.5 L 565 325.5 L 570 334.5 L 570 336.5 L 575 345.5 L 575 347.5 L 580 356.5 L 580 358.5 L 584 365.5 L 584 367.5 L 589 376.5 L 589 378.5 L 593 385.5 L 593 387.5 L 598 396.5 L 598 398.5 L 614 432.5 L 606.5 435 L 603.5 435 L 602.5 436 L 599.5 436 L 598.5 437 Q 593.8 435.7 592.5 438 L 583.5 438 L 582.5 439 L 576 439.5 L 576.5 441 L 590.5 441 L 591.5 440 L 597.5 440 L 603.5 438 L 612.5 438 L 613 439.5 L 606.5 443 L 603.5 443 L 598.5 445 L 586.5 446 L 585.5 447 L 568.5 447 L 564.5 445 L 561.5 445 L 558.5 446 L 556.5 444 Q 549.7 442.8 545.5 439 L 543.5 439 L 540.5 437 L 538.5 437 L 535.5 435 L 533.5 435 L 530.5 433 L 528.5 433 L 525.5 431 L 523.5 431 L 495.5 419 L 493.5 419 L 488.5 416 L 486.5 416 L 483.5 414 L 481.5 414 L 478.5 412 L 476.5 412 L 473.5 410 L 471.5 410 L 468.5 408 L 466.5 408 L 463.5 406 L 461.5 406 L 458.5 404 L 446.5 400 L 436.5 395 L 431.5 394 L 428.5 392 L 426.5 392 L 423.5 390 L 411.5 386 L 408.5 386 L 399.5 381 L 397.5 381 L 384.5 375 L 376.5 373 L 373.5 371 L 370.5 371 L 366.5 369 L 362.5 369 L 359 367.5 L 370.5 362 L 372.5 362 L 379.5 358 L 381.5 358 L 388.5 354 L 392.5 354 L 434.5 375 L 435 373.5 L 415 363.5 L 413.5 361 L 402.5 356 L 400.5 356 L 395 352.5 L 395.5 351 L 401.5 349 L 408.5 345 L 410.5 345 L 417.5 341 L 419.5 341 L 424.5 338 L 426.5 338 L 433.5 334 L 435.5 334 L 442.5 330 L 444.5 330 L 451.5 326 L 453.5 326 L 460.5 322 L 462.5 322 L 469.5 318 L 471.5 318 L 478.5 314 L 480.5 314 L 487.5 310 L 489.5 310 L 495 306.5 L 494 301.5 L 491 295.5 L 506.5 290 L 509.5 290 L 517.5 287 L 525.5 286 L 534.5 283 L 538.5 283 L 543.5 281 Z M 439 374 L 438 376 L 447 381 L 457 386 L 459 386 L 496 405 L 498 405 L 530 422 L 532 422 L 548 430 L 550 432 L 552 432 Q 555 435 561 436 L 568 441 L 571 441 L 571 440 L 520 413 L 518 413 L 451 379 L 449 379 L 439 374 Z " /><path fill="rgb(0,0,0)" stroke="rgb(0,0,0)" stroke-width="1" opacity="0.00392156862745098" d="M 265.5 284 L 269 284.5 L 268.5 287 L 256.5 293 L 251.5 294 L 251 291.5 L 255.5 288 L 257.5 288 L 265.5 284 Z " /><path fill="rgb(0,0,0)" stroke="rgb(0,0,0)" stroke-width="1" opacity="0.00392156862745098" d="M 323.5 287 Q 328 286 329 288.5 L 333 296.5 L 321.5 302 L 316 290.5 L 317.5 289 L 323.5 287 Z " /><path fill="rgb(0,0,0)" stroke="rgb(0,0,0)" stroke-width="1" opacity="0.00392156862745098" d="M 172.5 289 L 174 289.5 L 171.5 291 Q 170 290 172.5 289 Z " /><path fill="rgb(0,0,0)" stroke="rgb(0,0,0)" stroke-width="1" opacity="0.00392156862745098" d="M 180.5 290 L 183 290.5 L 190 305.5 L 190 307.5 L 171.5 317 L 169.5 317 L 161 298.5 L 162.5 297 L 164.5 297 L 180.5 290 Z " /><path fill="rgb(0,0,0)" stroke="rgb(0,0,0)" stroke-width="1" opacity="0.00392156862745098" d="M 243.5 294 L 245 296.5 L 242.5 299 L 236.5 302 L 234.5 302 L 226.5 306 L 223.5 306 L 223 303.5 L 228.5 300 L 230.5 300 L 237.5 296 L 243.5 294 Z " /><path fill="rgb(0,0,0)" stroke="rgb(0,0,0)" stroke-width="1" opacity="0.00392156862745098" d="M 393.5 298 L 396 299.5 L 412 326.5 L 409.5 329 L 401.5 333 L 399.5 333 L 390.5 338 L 388.5 338 L 381.5 342 L 379.5 342 L 339.5 361 L 337 358.5 L 334 352.5 L 334 350.5 L 331 345.5 L 329 338.5 L 326 333.5 L 325 328.5 L 334.5 324 L 336.5 324 L 343.5 320 L 345.5 320 L 352.5 316 L 354.5 316 L 361.5 312 L 363.5 312 L 370.5 308 L 372.5 308 L 379.5 304 L 388.5 301 L 393.5 298 Z " /><path fill="rgb(0,0,0)" stroke="rgb(0,0,0)" stroke-width="1" opacity="0.00392156862745098" d="M 485.5 300 L 487.5 300 L 491 302.5 L 471.5 313 L 469.5 313 L 460.5 318 L 458.5 318 L 424.5 334 L 417.5 336 L 415 330.5 L 420.5 327 L 422.5 327 L 427.5 324 L 429.5 324 L 434.5 321 L 436.5 321 L 441.5 318 L 443.5 318 L 448.5 315 L 450.5 315 L 455.5 312 L 457.5 312 L 462.5 309 L 464.5 309 L 469.5 306 L 471.5 306 L 485.5 300 Z " /><path fill="rgb(0,0,0)" stroke="rgb(0,0,0)" stroke-width="1" opacity="0.00392156862745098" d="M 123.5 302 Q 127.4 302.6 129 305.5 L 141 327.5 L 141 329.5 L 148 342.5 L 148 344.5 L 153 353.5 L 153 355.5 L 162 374.5 L 162 376.5 L 164 379.5 L 164 381.5 L 166 384.5 L 169 393.5 L 169 400.5 L 162.5 403 Q 157.8 401.8 156.5 404 L 148.5 404 L 141.5 396 L 131.5 398 L 130.5 399 L 126.5 399 L 121.5 401 L 117.5 401 L 112.5 403 L 108.5 403 L 103.5 405 L 99.5 405 L 94.5 407 L 90.5 407 L 85.5 409 L 81.5 409 L 80.5 410 L 69.5 412 L 68 413.5 L 74.5 414 L 75.5 413 L 80.5 413 L 81.5 412 L 86.5 412 L 87.5 411 L 101.5 409 L 106.5 407 L 110.5 407 L 111.5 406 L 119.5 405 L 120.5 404 L 123.5 404 L 124.5 403 L 127.5 403 L 128.5 402 L 136.5 401 L 142.5 399 L 146.5 407 L 156.5 407 L 157.5 406 L 162.5 406 L 163.5 405 L 171.5 404 L 172 405.5 L 166.5 408 L 163.5 408 L 159.5 410 L 156.5 410 L 155.5 411 L 140.5 414 L 139.5 415 L 135.5 415 L 130.5 417 L 126.5 417 L 121.5 419 L 111.5 420 L 105.5 422 L 94.5 423 L 93.5 424 Q 88.8 422.7 87.5 425 L 80.5 425 L 79.5 426 L 72.5 426 L 71.5 427 L 63.5 427 L 62.5 428 L 34.5 429 Q 32 428 33.5 427 Q 36.8 427.8 37.5 426 L 48.5 426 L 49.5 425 L 58.5 425 L 59.5 424 L 67.5 424 L 70 422.5 L 70 420.5 L 67.5 417 L 66.5 421 L 65 420.5 L 65 418.5 L 67 415.5 L 57 400.5 L 51 388.5 L 51 386.5 L 47 377.5 L 46 370.5 L 45 369.5 L 45 363.5 Q 43.3 362.8 44 359.5 L 45 356.5 L 51.5 350 L 82.5 327 L 105.5 312 L 123.5 302 Z M 126 326 L 120 330 L 120 335 L 125 342 L 132 340 L 132 336 L 128 327 L 126 326 Z M 91 328 L 89 329 L 82 337 L 77 346 L 77 348 L 75 351 L 72 360 L 72 365 Q 73 367 76 366 L 76 365 L 80 362 Q 84 359 86 354 L 86 345 L 89 340 L 90 335 L 92 334 Q 94 332 95 329 L 91 328 Z M 133 343 L 126 347 L 131 357 L 137 356 L 139 354 L 136 345 Q 136 343 133 343 Z M 87 368 L 80 371 L 77 371 L 76 375 Q 83 382 92 388 L 96 382 L 97 382 L 94 387 L 94 390 L 100 393 L 107 394 L 108 393 Q 107 388 109 387 L 111 387 Q 113 384 119 385 L 120 389 L 118 390 L 112 390 L 111 389 L 109 390 Q 109 392 111 393 L 118 393 L 124 391 L 121 384 L 120 382 L 107 382 L 100 379 L 97 375 L 92 369 L 87 368 Z " /><path fill="rgb(0,0,0)" stroke="rgb(0,0,0)" stroke-width="1" opacity="0.00392156862745098" d="M 335.5 305 L 340 305.5 L 323.5 314 L 321.5 316 L 317.5 317 L 316 315.5 L 319.5 312 L 335.5 305 Z " /><path fill="rgb(0,0,0)" stroke="rgb(0,0,0)" stroke-width="1" opacity="0.00392156862745098" d="M 215.5 306 L 220 306.5 Q 213.2 313.7 201.5 316 L 200 314.5 L 202.5 312 L 215.5 306 Z " /><path fill="rgb(0,0,0)" stroke="rgb(0,0,0)" stroke-width="1" opacity="0.00392156862745098" d="M 191.5 317 L 195 317.5 L 192.5 321 L 181.5 326 L 174.5 327 L 174 325.5 L 183.5 320 L 185.5 320 L 191.5 317 Z " /><path fill="rgb(0,0,0)" stroke="rgb(0,0,0)" stroke-width="1" opacity="0.00392156862745098" d="M 324.5 321 L 326 321.5 L 322.5 323 L 322.5 322 L 324.5 321 Z " /><path fill="rgb(0,0,0)" stroke="rgb(0,0,0)" stroke-width="1" opacity="0.00392156862745098" d="M 312.5 322 L 313 323.5 L 255.5 351 L 253.5 351 L 230.5 362 L 222.5 364 L 222 361.5 L 235.5 354 L 237.5 354 L 262.5 342 L 264.5 342 L 271.5 338 L 273.5 338 L 285.5 332 L 287.5 332 L 290.5 330 L 292.5 330 L 295.5 328 L 297.5 328 L 300.5 326 L 312.5 322 Z " /><path fill="rgb(0,0,0)" stroke="rgb(0,0,0)" stroke-width="1" opacity="0.00392156862745098" d="M 125.5 330 L 129 332.5 Q 130 337 127.5 338 L 124.5 339 L 121 332.5 L 125.5 330 Z " /><path fill="rgb(0,0,0)" stroke="rgb(0,0,0)" stroke-width="1" opacity="0.00392156862745098" d="M 318.5 331 L 321 331.5 L 335 361.5 L 327.5 366 L 325.5 366 L 318.5 370 L 316.5 370 L 309.5 374 L 307.5 374 L 300.5 378 L 298.5 378 L 264.5 394 L 259.5 395 L 254 375.5 L 249 364.5 L 249 361.5 L 250.5 360 L 252.5 360 L 257.5 357 L 259.5 357 L 264.5 354 L 266.5 354 L 271.5 351 L 273.5 351 L 278.5 348 L 280.5 348 L 285.5 345 L 287.5 345 L 294.5 341 L 296.5 341 L 318.5 331 Z " /><path fill="rgb(0,0,0)" stroke="rgb(0,0,0)" stroke-width="1" opacity="0.00392156862745098" d="M 409.5 332 Q 412.5 331.5 413 333.5 L 415 337.5 L 388.5 350 L 386.5 350 L 379.5 354 L 377.5 354 L 370.5 358 L 368.5 358 L 361.5 362 L 359.5 362 L 352.5 366 L 343.5 369 L 342 367.5 L 341 363.5 L 346.5 360 L 348.5 360 L 355.5 356 L 357.5 356 L 364.5 352 L 366.5 352 L 373.5 348 L 375.5 348 L 409.5 332 Z " /><path fill="rgb(0,0,0)" stroke="rgb(0,0,0)" stroke-width="1" opacity="0.00392156862745098" d="M 84.5 338 Q 87.3 339.2 85 340.5 L 84.5 342 Q 81.7 340.8 84 339.5 L 84.5 338 Z " /><path fill="rgb(0,0,0)" stroke="rgb(0,0,0)" stroke-width="1" opacity="0.00392156862745098" d="M 80.5 347 L 83 347.5 Q 82.2 357.7 75.5 362 L 74 361.5 L 78 352.5 L 78 350.5 L 80.5 347 Z " /><path fill="rgb(0,0,0)" stroke="rgb(0,0,0)" stroke-width="1" opacity="0.00392156862745098" d="M 132.5 347 Q 135.5 346.5 136 348.5 L 135.5 353 L 131.5 355 L 129 351.5 L 129 348.5 L 132.5 347 Z " /><path fill="rgb(0,0,0)" stroke="rgb(0,0,0)" stroke-width="1" opacity="0.00392156862745098" d="M 37.5 363 L 40 364.5 L 44 380.5 L 51 395.5 L 51 397.5 L 56 407.5 L 60 412.5 L 60 414.5 L 58 415.5 L 58.5 417 L 63 417.5 L 61.5 419 Q 58.3 418.3 57.5 420 L 50.5 420 L 50.5 418 L 36.5 418 L 35.5 419 L 28.5 419 L 20 401.5 L 15 385.5 L 34.5 365 L 37.5 363 Z M 29 378 L 25 381 L 19 388 L 19 396 L 23 404 L 23 406 L 26 409 L 33 408 L 34 407 L 38 407 L 41 406 L 37 397 L 36 397 L 38 404 L 28 405 L 25 403 L 26 402 L 29 403 L 33 402 Q 35 401 34 398 L 33 397 L 31 396 L 31 389 L 29 386 L 30 381 L 31 384 Q 32 386 33 385 L 31 380 L 29 378 Z M 39 380 L 37 382 L 39 384 L 40 384 Q 41 381 39 380 Z M 40 386 Q 38 390 41 391 L 43 391 L 42 387 L 40 386 Z M 43 393 Q 41 398 45 399 Q 47 399 46 396 L 43 393 Z " /><path fill="rgb(0,0,0)" stroke="rgb(0,0,0)" stroke-width="1" opacity="0.00392156862745098" d="M 218.5 363 L 221 364.5 L 218.5 366 L 218.5 363 Z " /><path fill="rgb(0,0,0)" stroke="rgb(0,0,0)" stroke-width="1" opacity="0.00392156862745098" d="M 243.5 363 L 246 363.5 L 257 396.5 L 255.5 398 L 253.5 398 L 246.5 402 L 244.5 402 L 237.5 406 L 235.5 406 L 228.5 410 L 226.5 410 L 192.5 426 L 190.5 426 L 183.5 430 L 174 394.5 L 198.5 383 L 200.5 383 L 207.5 379 L 209.5 379 L 216.5 375 L 218.5 375 L 225.5 371 L 227.5 371 L 234.5 367 L 236.5 367 L 243.5 363 Z " /><path fill="rgb(0,0,0)" stroke="rgb(0,0,0)" stroke-width="1" opacity="0.00392156862745098" d="M 335.5 366 L 340 366.5 Q 340.8 370.3 338.5 371 L 289.5 394 L 287.5 394 L 270.5 402 L 264.5 403 L 263 398.5 L 292.5 384 L 294.5 384 L 319.5 372 L 321.5 372 L 335.5 366 Z " /><path fill="rgb(0,0,0)" stroke="rgb(0,0,0)" stroke-width="1" opacity="0.00392156862745098" d="M 85.5 372 L 92.5 373 L 95 375.5 L 95 378.5 L 91.5 383 L 87.5 382 L 80 375.5 L 81.5 373 Q 84.8 373.8 85.5 372 Z " /><path fill="rgb(0,0,0)" stroke="rgb(0,0,0)" stroke-width="1" opacity="0.00392156862745098" d="M 347.5 373 L 358.5 373 L 359.5 374 L 370.5 376 L 388.5 382 L 391.5 384 L 393.5 384 L 401.5 389 L 408.5 389 L 411.5 390 L 426.5 397 L 428.5 397 L 431.5 399 L 433.5 399 L 436.5 401 L 438.5 401 L 441.5 403 L 443.5 403 L 446.5 405 L 448.5 405 L 451.5 407 L 453.5 407 L 456.5 409 L 458.5 409 L 461.5 411 L 463.5 411 L 466.5 413 L 468.5 413 L 471.5 415 L 473.5 415 L 476.5 417 L 488.5 421 L 493.5 424 L 495.5 424 L 503.5 428 L 508.5 429 L 511.5 431 L 513.5 431 L 516.5 433 L 518.5 433 L 521.5 435 L 533.5 439 L 538.5 442 L 547.5 445 L 553.5 449 Q 554.3 447.3 557.5 448 L 561.5 450 L 571 451.5 L 0.5 452 L 0 413.5 L 1 413.5 L 3 419.5 L 10.5 427 Q 15.9 428.1 18.5 432 L 22.5 432 L 24.5 431 L 27.5 433 L 53.5 433 L 54.5 432 L 73.5 431 L 74.5 430 L 81.5 430 L 82.5 429 L 88.5 429 L 89.5 428 L 95.5 428 L 96.5 427 L 101.5 427 L 102.5 426 L 113.5 425 L 114.5 424 L 118.5 424 L 119.5 423 L 133.5 421 L 134.5 420 L 142.5 419 L 146.5 417 L 149.5 417 L 150.5 416 L 153.5 416 L 154.5 415 L 169.5 412 L 170.5 411 L 173.5 411 L 177 422.5 L 179 425.5 L 180 430.5 L 185.5 443 L 190.5 442 L 195.5 439 L 197.5 439 L 209.5 433 L 211.5 433 L 218.5 429 L 220.5 429 L 232.5 423 L 234.5 423 L 241.5 419 L 243.5 419 L 255.5 413 L 257.5 413 L 264.5 409 L 266.5 409 L 271.5 406 L 280.5 403 L 287.5 399 L 289.5 399 L 294.5 396 L 303.5 393 L 310.5 389 L 312.5 389 L 317.5 386 L 326.5 383 L 347.5 373 Z " /><path fill="rgb(0,0,0)" stroke="rgb(0,0,0)" stroke-width="1" opacity="0.00392156862745098" d="M 100.5 383 Q 105.3 382.3 106 385.5 L 104.5 390 L 98.5 390 L 97 388.5 Q 97.6 384.6 100.5 383 Z " /><path fill="rgb(0,0,0)" stroke="rgb(0,0,0)" stroke-width="1" opacity="0.00392156862745098" d="M 10.5 391 L 12 393.5 L 12 396.5 L 15 405.5 L 19 412.5 L 21 418.5 L 27 428.5 L 23.5 429 L 12.5 423 L 7 417.5 L 4 410.5 L 4 403.5 L 10.5 391 Z " /><path fill="rgb(0,0,0)" stroke="rgb(0,0,0)" stroke-width="1" opacity="0.00392156862745098" d="M 258.5 399 L 260 399.5 L 262 404.5 L 258.5 407 L 256.5 407 L 247.5 412 L 245.5 412 L 236.5 417 L 234.5 417 L 225.5 422 L 223.5 422 L 190.5 438 L 187.5 438 L 186 432.5 L 195.5 427 L 197.5 427 L 204.5 423 L 206.5 423 L 213.5 419 L 215.5 419 L 249.5 403 L 251.5 403 L 258.5 399 Z " /><path fill="rgb(0,0,0)" stroke="rgb(0,0,0)" stroke-width="1" opacity="0.00392156862745098" d="M 18.5 407 L 21 410.5 Q 20 412 19 409.5 L 18.5 407 Z " /><path fill="rgb(0,0,0)" stroke="rgb(0,0,0)" stroke-width="1" opacity="0.00392156862745098" d="M 38.5 421 L 42 421.5 L 38.5 424 L 38.5 421 Z " /><path fill="rgb(0,0,0)" stroke="rgb(0,0,0)" stroke-width="1" opacity="0.00392156862745098" d="M 639.5 433 L 640 451.5 L 586.5 452 L 586.5 451 L 593.5 451 Q 594.5 449 598.5 450 L 610.5 446 L 613.5 446 L 617 443.5 L 617.5 440 L 623.5 441 L 624.5 440 L 630.5 439 L 639.5 433 Z " /></svg>