<svg viewBox="0 0 320 640" version="1.1" xmlns="http://www.w3.org/2000/svg" desc="Created with imagetracer.js version 1.2.6" ><path fill="rgb(0,0,0)" stroke="rgb(0,0,0)" stroke-width="1" opacity="0.9921568627450981" d="M 160.5 0 L 162.5 0 L 166.5 3 L 184 19.5 L 208 47.5 L 226 73.5 L 245 108.5 L 245 110.5 L 249 117.5 L 253 129.5 L 255 132.5 L 257 140.5 L 259 143.5 L 259 146.5 L 263 156.5 L 263 159.5 L 265 163.5 L 265 166.5 L 268 175.5 L 268 179.5 L 269 180.5 L 269 184.5 L 271 190.5 L 271 195.5 L 272 196.5 L 272 201.5 L 273 202.5 L 273 208.5 L 274 209.5 L 274 217.5 L 275 218.5 L 275 229.5 L 276 230.5 L 276 280.5 L 275 281.5 L 275 293.5 L 274 294.5 L 274 302.5 L 273 303.5 L 272 317.5 L 271 318.5 L 271 323.5 L 269 329.5 L 269 334.5 L 268 335.5 L 268 339.5 L 267 340.5 L 267 344.5 L 264 353.5 L 263 361.5 L 261 365.5 L 261 368.5 L 258 376.5 L 258 379.5 L 255 386.5 L 255 389.5 L 248 410.5 L 246 413.5 L 245 418.5 L 243 421.5 L 238 436.5 L 235 441.5 L 235 443.5 L 226.5 462 L 93 461.5 L 87 448.5 L 87 446.5 L 84 441.5 L 84 439.5 L 78 426.5 L 77 421.5 L 75 418.5 L 65 388.5 L 65 385.5 L 62 378.5 L 62 375.5 L 61 374.5 L 61 371.5 L 60 370.5 L 60 367.5 L 58 363.5 L 58 359.5 L 55 350.5 L 55 346.5 L 54 345.5 L 54 341.5 L 53 340.5 L 53 336.5 L 51 330.5 L 51 325.5 L 50 324.5 L 50 319.5 L 49 318.5 L 48 304.5 L 47 303.5 L 47 294.5 L 46 293.5 L 46 281.5 L 45 280.5 L 45 235.5 L 46 234.5 L 46 222.5 L 47 221.5 L 48 205.5 L 49 204.5 L 49 199.5 L 50 198.5 L 50 193.5 L 51 192.5 L 53 178.5 L 54 177.5 L 57 162.5 L 60 155.5 L 60 152.5 L 64 140.5 L 66 137.5 L 67 132.5 L 74 117.5 L 74 115.5 L 87 89.5 L 103 63.5 L 121 39.5 L 143.5 15 L 160.5 0 Z M 161 10 L 156 14 L 131 39 L 114 61 L 97 88 L 85 112 L 85 114 L 80 125 L 151 125 L 152 126 L 242 126 L 240 118 L 235 108 L 235 106 L 220 79 L 203 55 L 180 28 L 163 10 L 161 10 Z M 151 175 L 150 176 L 146 176 L 140 178 L 130 183 L 123 188 Q 113 195 107 206 L 100 221 L 99 228 L 98 229 L 98 248 Q 100 248 99 253 L 106 269 L 110 275 Q 119 285 131 292 L 142 297 L 145 297 L 149 299 L 154 299 L 155 300 L 171 300 Q 172 298 176 299 L 191 293 L 201 286 Q 209 279 215 269 L 219 261 L 222 252 L 222 248 L 223 247 L 223 227 Q 221 226 222 223 L 217 210 L 208 197 L 197 186 L 191 182 L 180 177 L 173 176 L 172 175 L 151 175 Z M 85 424 L 84 427 L 85 430 L 87 433 L 90 443 L 96 457 L 150 457 L 150 426 L 149 424 L 85 424 Z M 171 425 L 170 457 L 224 457 L 225 456 L 229 444 L 232 439 L 232 437 L 237 426 L 171 425 Z " /><path fill="rgb(0,0,0)" stroke="rgb(0,0,0)" stroke-width="1" opacity="0.9921568627450981" d="M 167.5 23 L 187 43.5 L 202 63.5 L 217 87.5 L 231 115.5 L 180.5 116 L 180 115.5 L 182 113.5 L 186 106.5 L 188 100.5 L 188 80.5 L 187 79.5 L 187 74.5 L 186 73.5 L 184 62.5 L 181 53.5 L 174 38.5 L 174 36.5 L 167 23.5 L 167.5 23 Z " /><path fill="rgb(0,0,0)" stroke="rgb(0,0,0)" stroke-width="1" opacity="0.9921568627450981" d="M 154.5 212 L 166.5 212 L 169.5 213 Q 176.6 215.9 181 221.5 L 186 231.5 L 186 242.5 L 182 251.5 L 174.5 259 L 164.5 263 L 157.5 263 L 145.5 258 L 140 252.5 L 135 242.5 L 135 233.5 L 139 223.5 L 146.5 216 L 154.5 212 Z " /><path fill="rgb(0,0,0)" stroke="rgb(0,0,0)" stroke-width="1" opacity="0.9921568627450981" d="M 43.5 345 L 47 345.5 L 49 351.5 L 49 354.5 L 51 358.5 L 52 365.5 L 54 369.5 L 54 372.5 L 56 376.5 L 57 383.5 L 61 394.5 L 61 397.5 L 59.5 397 L 52.5 396 Q 45.8 398.3 42 403.5 L 36 414.5 L 32 426.5 L 32 429.5 L 29 438.5 L 29 442.5 L 28 443.5 L 27 454.5 L 26 455.5 L 25 469.5 L 24 470.5 L 24 479.5 L 23 480.5 L 23 491.5 L 22 492.5 L 22 506.5 L 21 507.5 L 21 534.5 Q 18.7 535.8 20 540.5 L 20.5 542 L 19 541.5 L 19 537.5 L 17 532.5 L 17 528.5 L 16 527.5 L 16 523.5 L 15 522.5 L 15 518.5 L 13 512.5 L 13 508.5 L 12 507.5 L 12 502.5 L 11 501.5 L 11 496.5 L 10 495.5 Q 11.2 490.7 9 489.5 L 9 483.5 L 8 482.5 L 8 475.5 L 7 474.5 L 7 466.5 L 6 465.5 L 6 454.5 L 5 453.5 L 5 411.5 L 6 410.5 L 6 402.5 L 7 401.5 L 8 391.5 L 9 390.5 L 10 383.5 L 14 374.5 L 14 372.5 L 21 360.5 L 30.5 351 L 39.5 346 Q 42.8 346.8 43.5 345 Z " /><path fill="rgb(0,0,0)" stroke="rgb(0,0,0)" stroke-width="1" opacity="0.9921568627450981" d="M 274.5 346 L 281.5 347 L 287.5 350 L 298 359.5 L 305 370.5 L 305 372.5 L 308 377.5 L 310 383.5 L 310 386.5 L 311 387.5 L 311 390.5 L 312 391.5 L 312 395.5 L 313 396.5 L 314 409.5 L 315 410.5 L 315 452.5 L 314 453.5 L 314 464.5 L 313 465.5 L 313 472.5 L 312 473.5 L 312 480.5 L 311 481.5 L 311 487.5 L 310 488.5 L 310 493.5 L 309 494.5 L 308 505.5 L 307 506.5 L 307 510.5 L 306 511.5 L 304 525.5 L 303 526.5 L 302 534.5 L 301 535.5 L 299.5 543 L 299 527.5 L 298 526.5 L 298 501.5 L 297 500.5 L 297 486.5 L 296 485.5 L 296 474.5 L 295 473.5 L 295 465.5 L 294 464.5 L 294 457.5 L 293 456.5 L 292 445.5 L 291 444.5 L 291 440.5 L 290 439.5 L 290 435.5 L 289 434.5 L 287 423.5 L 284 417.5 L 284 415.5 L 279 405.5 L 272.5 399 L 268.5 397 L 262.5 397 L 259.5 398 L 259 396.5 L 261 392.5 L 261 389.5 L 263 385.5 L 263 382.5 L 265 378.5 L 265 375.5 L 267 371.5 L 267 368.5 L 269 364.5 L 269 361.5 L 271 357.5 L 273 347.5 L 274.5 346 Z " /><path fill="rgb(0,0,0)" stroke="rgb(0,0,0)" stroke-width="1" opacity="0.9921568627450981" d="M 98.5 470 L 207.5 470 L 208.5 471 L 222 471.5 L 222 480.5 L 221 481.5 L 221 489.5 L 220 490.5 L 219 501.5 L 218 502.5 L 218 506.5 L 217 507.5 L 216 514.5 L 211 529.5 L 205 541.5 L 184 570.5 L 173 591.5 L 163 621.5 L 163 625.5 L 162 626.5 L 159.5 639 L 158 631.5 L 157 630.5 L 157 627.5 L 156 626.5 L 156 622.5 L 152 611.5 L 152 608.5 L 149 599.5 L 147 596.5 L 147 594.5 L 145 591.5 L 145 589.5 L 135 570.5 L 117 545.5 L 110 531.5 L 108 525.5 L 108 522.5 L 106 518.5 L 106 515.5 L 104 510.5 L 104 506.5 L 103 505.5 L 103 501.5 L 102 500.5 L 102 496.5 L 101 495.5 L 100 483.5 L 99 482.5 L 99 476.5 L 98 475.5 L 98.5 470 Z " /><path fill="rgb(0,0,0)" stroke="rgb(0,0,0)" stroke-width="1" opacity="0.00392156862745098" d="M 0.5 0 L 160 0.5 L 138 20.5 L 117 44.5 L 94 77.5 L 74 115.5 L 74 117.5 L 71 122.5 L 66 137.5 L 64 140.5 L 60 152.5 L 60 155.5 L 57 162.5 L 54 177.5 L 53 178.5 L 53 182.5 L 52 183.5 L 52 187.5 L 50 193.5 L 50 198.5 L 49 199.5 L 49 204.5 L 48 205.5 L 47 221.5 L 46 222.5 L 46 234.5 L 45 235.5 L 45 280.5 L 46 281.5 L 46 293.5 L 47 294.5 L 47 303.5 L 48 304.5 L 48 311.5 L 49 312.5 L 49 318.5 L 50 319.5 L 51 330.5 L 52 331.5 L 52 335.5 L 53 336.5 L 55 350.5 L 56 351.5 L 56 354.5 L 57 355.5 L 58 363.5 L 60 367.5 L 62 378.5 L 78 426.5 L 93.5 462 L 227 461.5 L 242 426.5 L 246 413.5 L 248 410.5 L 255 389.5 L 255 386.5 L 258 379.5 L 258 376.5 L 260 372.5 L 260 369.5 L 263 361.5 L 264 353.5 L 267 344.5 L 267 340.5 L 269 334.5 L 269 329.5 L 271 323.5 L 271 318.5 L 272 317.5 L 272 311.5 L 273 310.5 L 274 294.5 L 275 293.5 L 275 281.5 L 276 280.5 L 276 230.5 L 275 229.5 L 275 218.5 L 274 217.5 L 273 202.5 L 272 201.5 L 271 190.5 L 270 189.5 L 270 185.5 L 269 184.5 L 269 180.5 L 268 179.5 L 268 175.5 L 267 174.5 L 265 163.5 L 259 146.5 L 259 143.5 L 257 140.5 L 255 132.5 L 253 129.5 L 249 117.5 L 245 110.5 L 245 108.5 L 232 83.5 L 216 58.5 L 195 31.5 L 177.5 13 L 163 0.5 L 319.5 0 L 320 639.5 L 0.5 640 L 0.5 0 Z M 44 345 Q 43 347 40 346 L 31 351 L 21 361 L 14 373 L 14 375 L 10 384 L 9 391 L 8 392 L 7 402 L 6 403 L 6 411 L 5 412 L 5 454 L 6 455 L 6 466 L 7 467 L 7 475 L 8 476 L 8 483 L 9 484 L 9 490 Q 11 491 10 496 L 11 497 L 11 502 L 12 503 L 12 508 L 13 509 L 13 513 L 15 519 L 15 523 L 16 524 L 16 528 L 17 529 L 17 533 L 19 538 L 19 542 L 21 542 L 20 541 Q 19 536 21 535 L 21 508 L 22 507 L 22 493 L 23 492 L 23 481 L 24 480 L 24 471 L 25 470 L 26 456 L 27 455 L 28 444 L 29 443 L 29 439 L 32 430 L 32 427 L 36 415 L 42 404 Q 46 398 53 396 L 60 397 L 61 398 L 61 395 L 57 384 L 56 377 L 54 373 L 54 370 L 52 366 L 51 359 L 49 355 L 49 352 L 47 346 L 44 345 Z M 275 346 L 273 348 L 271 358 L 269 362 L 269 365 L 267 369 L 267 372 L 265 376 L 265 379 L 263 383 L 263 386 L 261 390 L 261 393 L 259 397 L 260 398 L 263 397 L 269 397 L 273 399 L 279 406 L 284 416 L 284 418 L 287 424 L 289 435 L 290 436 L 290 440 L 291 441 L 291 445 L 292 446 L 293 457 L 294 458 L 294 465 L 295 466 L 295 474 L 296 475 L 296 486 L 297 487 L 297 501 L 298 502 L 298 527 L 299 528 L 300 543 L 301 536 L 302 535 L 303 527 L 304 526 L 306 512 L 307 511 L 307 507 L 308 506 L 309 495 L 310 494 L 310 489 L 311 488 L 311 482 L 312 481 L 312 474 L 313 473 L 313 466 L 314 465 L 314 454 L 315 453 L 315 411 L 314 410 L 313 397 L 312 396 L 312 392 L 311 391 L 311 388 L 310 387 L 310 384 L 308 378 L 305 373 L 305 371 L 298 360 L 288 350 L 282 347 L 275 346 Z M 99 470 L 98 476 L 99 477 L 99 483 L 100 484 L 101 496 L 102 497 L 102 501 L 103 502 L 103 506 L 104 507 L 104 511 L 106 516 L 106 519 L 108 523 L 108 526 L 110 532 L 117 546 L 135 571 L 145 590 L 145 592 L 147 595 L 147 597 L 149 600 L 152 609 L 152 612 L 156 623 L 156 627 L 157 628 L 157 631 L 158 632 L 160 639 L 162 627 L 163 626 L 163 622 L 173 592 L 184 571 L 205 542 L 211 530 L 216 515 L 217 508 L 218 507 L 218 503 L 219 502 L 220 491 L 221 490 L 221 482 L 222 481 L 222 472 L 209 471 L 208 470 L 99 470 Z " /><path fill="rgb(0,0,0)" stroke="rgb(0,0,0)" stroke-width="1" opacity="0.00392156862745098" d="M 160.5 10 L 162.5 10 L 180 27.5 L 203 54.5 L 220 78.5 L 235 105.5 L 235 107.5 L 240 117.5 L 242 125.5 L 151.5 126 L 150.5 125 L 80 124.5 L 85 113.5 L 85 111.5 L 97 87.5 L 114 60.5 L 131 38.5 L 155.5 14 L 160.5 10 Z M 169 24 L 168 26 L 174 37 L 174 39 L 181 54 L 184 63 L 186 74 L 187 75 L 187 80 L 188 81 L 188 101 L 186 107 L 182 114 L 180 116 L 181 116 L 231 116 L 217 88 L 202 64 L 187 44 L 169 24 Z " /><path fill="rgb(0,0,0)" stroke="rgb(0,0,0)" stroke-width="1" opacity="0.00392156862745098" d="M 150.5 175 L 171.5 175 L 172.5 176 L 179.5 177 L 190.5 182 L 196.5 186 L 208 196.5 L 217 209.5 L 222 222.5 Q 221.2 225.8 223 226.5 L 223 246.5 L 222 247.5 L 222 251.5 L 219 260.5 L 215 268.5 Q 209.2 278.7 200.5 286 L 190.5 293 L 175.5 299 Q 171.5 298 170.5 300 L 154.5 300 L 153.5 299 L 148.5 299 L 144.5 297 L 141.5 297 L 130.5 292 Q 118.6 284.9 110 274.5 L 106 268.5 L 99 252.5 Q 100 248.5 98 247.5 L 98 228.5 L 99 227.5 L 100 220.5 L 107 205.5 Q 113.4 195.4 122.5 188 L 129.5 183 L 139.5 178 L 145.5 176 L 149.5 176 L 150.5 175 Z M 155 212 L 147 216 L 139 224 L 135 234 L 135 243 L 140 253 L 146 258 L 158 263 L 165 263 L 175 259 L 182 252 L 186 243 L 186 232 L 181 222 Q 177 216 170 213 L 167 212 L 155 212 Z " /><path fill="rgb(0,0,0)" stroke="rgb(0,0,0)" stroke-width="1" opacity="0.00392156862745098" d="M 84.5 424 L 148.5 424 L 150 425.5 L 149.5 457 L 96 456.5 L 90 442.5 L 87 432.5 L 85 429.5 L 84 426.5 L 84.5 424 Z " /><path fill="rgb(0,0,0)" stroke="rgb(0,0,0)" stroke-width="1" opacity="0.00392156862745098" d="M 170.5 425 L 237 425.5 L 232 436.5 L 232 438.5 L 229 443.5 L 225 455.5 L 223.5 457 L 170 456.5 L 170.5 425 Z " /></svg>