<svg viewBox="0 0 583 640" version="1.1" xmlns="http://www.w3.org/2000/svg" desc="Created with imagetracer.js version 1.2.6" ><path fill="rgb(0,0,0)" stroke="rgb(0,0,0)" stroke-width="1" opacity="0.16862745098039217" d="M 154.5 512 L 187.5 544 L 217.5 569 L 252.5 593 L 281.5 608 L 285.5 611 Q 286.5 609 287.5 611 L 290.5 613 L 292.5 613 L 296.5 610 L 298 610.5 L 298.5 609 L 300 609.5 L 300.5 608 L 306.5 606 L 308.5 604 L 327.5 594 L 364.5 568 L 390.5 546 L 421.5 516 L 422 516.5 L 419 519.5 L 419.5 521 L 424.5 522 L 444.5 531 L 456.5 539 L 465 547.5 L 469 555.5 L 470 563.5 L 466 573.5 L 458.5 582 L 445.5 591 L 423.5 601 L 411.5 605 L 408.5 605 L 404.5 607 L 401.5 607 L 400.5 608 L 397.5 608 L 388.5 611 L 374.5 613 L 373.5 614 L 368.5 614 L 367.5 615 Q 362.7 613.8 361.5 616 L 355.5 616 L 354.5 617 L 347.5 617 L 346.5 618 L 327.5 619 L 326.5 620 L 312.5 620 L 311.5 621 L 248.5 621 L 247.5 620 L 233.5 620 L 232.5 619 L 222.5 619 L 221.5 618 L 213.5 618 L 212.5 617 L 205.5 617 L 204.5 616 L 191.5 615 L 190.5 614 L 186.5 614 L 185.5 613 L 180.5 613 L 179.5 612 L 175.5 612 L 170.5 610 L 166.5 610 L 154.5 606 L 151.5 606 L 147.5 604 L 144.5 604 L 135.5 600 L 130.5 599 L 115.5 592 L 104.5 585 L 94 574.5 L 90 566.5 L 90 556.5 L 93 549.5 L 101.5 540 L 111.5 533 L 129.5 524 L 134.5 523 L 137.5 521 L 146.5 518 L 149.5 518 L 157 515.5 L 154 512.5 L 154.5 512 Z " /><path fill="rgb(139,140,130)" stroke="rgb(139,140,130)" stroke-width="1" opacity="0.9921568627450981" d="M 283.5 0 L 288.5 0 L 293.5 4 L 307.5 11 L 309.5 13 L 353.5 35 L 355.5 35 L 366.5 41 L 368.5 41 L 395.5 54 L 397.5 54 L 423.5 66 L 430.5 68 L 447.5 76 L 449.5 76 L 452.5 78 L 454.5 78 L 457.5 80 L 459.5 80 L 462.5 82 L 464.5 82 L 467.5 84 L 469.5 84 L 472.5 86 L 474.5 86 L 477.5 88 L 479.5 88 L 482.5 90 L 484.5 90 L 512.5 102 L 517.5 103 L 538.5 112 L 543.5 113 L 546.5 115 L 551.5 116 L 554.5 118 L 559.5 119 L 570.5 124 L 575.5 125 L 582 129.5 L 583 133.5 L 582 134.5 L 582 140.5 L 581 141.5 L 580 154.5 L 579 155.5 L 579 160.5 L 578 161.5 L 578 167.5 L 577 168.5 L 577 173.5 L 575 179.5 L 575 184.5 L 574 185.5 L 574 189.5 L 572 195.5 L 572 200.5 L 570 205.5 L 569 214.5 L 567 219.5 L 567 223.5 L 566 224.5 L 566 227.5 L 565 228.5 L 565 231.5 L 564 232.5 L 561 247.5 L 560 248.5 L 560 251.5 L 558 255.5 L 557 262.5 L 554 269.5 L 554 272.5 L 551 279.5 L 551 282.5 L 543 306.5 L 541 309.5 L 536 325.5 L 534 328.5 L 534 330.5 L 532 333.5 L 528 345.5 L 521 359.5 L 521 361.5 L 499 405.5 L 497 407.5 L 482 434.5 L 464 461.5 Q 437 499.5 404.5 532 L 372.5 561 L 340.5 585 L 314.5 601 L 296.5 610 L 289.5 611 L 279.5 606 L 277.5 606 L 260.5 597 L 230.5 578 L 210.5 563 L 177 533.5 L 176.5 532 L 166 522.5 L 135 487.5 L 119 466.5 L 100 438.5 L 85 413.5 L 83 408.5 L 81 406.5 L 57 357.5 L 57 355.5 L 54 350.5 L 54 348.5 L 44 325.5 L 43 320.5 L 41 317.5 L 31 287.5 L 31 284.5 L 28 277.5 L 28 274.5 L 24 263.5 L 23 256.5 L 21 252.5 L 21 249.5 L 19 244.5 L 19 240.5 L 18 239.5 L 18 236.5 L 15 227.5 L 14 218.5 L 12 213.5 L 12 209.5 L 11 208.5 L 11 203.5 L 10 202.5 L 9 193.5 L 8 192.5 L 8 187.5 L 7 186.5 L 7 181.5 L 6 180.5 L 6 175.5 L 5 174.5 Q 6.3 169.7 4 168.5 L 4 162.5 L 3 161.5 L 3 155.5 L 2 154.5 L 2 146.5 L 1 145.5 L 1 140.5 L 0 137.5 L 2.5 133 L 12.5 129 L 15.5 129 L 45.5 119 L 48.5 117 L 78.5 107 L 81.5 105 L 83.5 105 L 86.5 103 L 88.5 103 L 91.5 101 L 96.5 100 L 111.5 93 L 118.5 91 L 123.5 88 L 125.5 88 L 137.5 82 L 139.5 82 L 146.5 78 L 148.5 78 L 159.5 72 L 161.5 72 L 223.5 40 L 248.5 24 L 251.5 23 L 276.5 6 L 283.5 0 Z M 287 16 L 258 36 L 255 37 L 240 47 L 235 49 L 219 59 L 176 81 L 174 81 L 150 93 L 148 93 L 141 97 L 139 97 L 134 100 L 132 100 L 127 103 L 115 107 L 100 114 L 95 115 L 87 119 L 74 123 L 71 125 L 63 127 L 60 129 L 16 144 L 16 152 L 17 153 L 17 159 L 18 160 L 18 166 Q 20 167 19 172 L 20 173 L 21 185 L 22 186 L 23 196 L 25 202 L 25 206 L 26 207 L 26 211 L 27 212 L 27 216 L 29 221 L 29 225 L 31 230 L 31 234 L 32 235 L 35 250 L 36 251 L 36 254 L 38 258 L 39 265 L 41 269 L 41 272 L 44 279 L 44 282 L 56 318 L 58 321 L 59 326 L 67 344 L 67 346 L 73 358 L 73 360 L 95 404 L 123 449 L 154 489 L 179 516 L 213 546 L 235 563 L 262 581 L 291 596 L 293 596 L 307 589 L 333 573 L 351 560 L 382 534 Q 421 498 452 455 L 481 410 L 504 366 L 504 364 L 509 355 L 509 353 L 515 341 L 519 329 L 521 326 L 521 324 L 523 321 L 524 316 L 526 313 L 538 277 L 538 274 L 543 260 L 543 257 L 545 253 L 545 250 L 546 249 L 549 234 L 550 233 L 550 230 L 551 229 L 551 226 L 552 225 L 552 222 L 553 221 L 553 217 L 555 212 L 555 208 L 557 203 L 559 189 L 560 188 L 560 183 L 562 177 L 562 172 L 563 171 L 563 166 L 564 165 L 564 160 L 565 159 L 565 153 L 566 152 L 567 140 L 568 139 L 565 136 L 544 129 L 528 122 L 523 121 L 510 115 L 505 114 L 492 108 L 490 108 L 487 106 L 482 105 L 467 98 L 455 94 L 452 92 L 450 92 L 447 90 L 445 90 L 442 88 L 440 88 L 430 83 L 428 83 L 416 77 L 409 75 L 404 72 L 402 72 L 395 68 L 386 65 L 370 57 L 368 57 L 357 51 L 355 51 L 340 43 L 338 43 L 310 29 L 308 27 L 287 16 Z " /><path fill="rgb(240,42,42)" stroke="rgb(240,42,42)" stroke-width="1" opacity="1" d="M 474.5 236 L 475 238.5 L 474 238.5 L 474.5 236 Z " /><path fill="rgb(240,42,42)" stroke="rgb(240,42,42)" stroke-width="1" opacity="1" d="M 475.5 241 L 476 243.5 L 475 243.5 L 475.5 241 Z " /><path fill="rgb(240,42,42)" stroke="rgb(240,42,42)" stroke-width="1" opacity="1" d="M 476.5 245 L 477 249.5 L 476 249.5 L 476.5 245 Z " /><path fill="rgb(240,42,42)" stroke="rgb(240,42,42)" stroke-width="1" opacity="1" d="M 477.5 251 L 478 257.5 L 479 258.5 L 479 267.5 L 480 268.5 L 480 291.5 L 479 292.5 L 479 302.5 L 478 303.5 L 478 309.5 L 477 310.5 L 476.5 315 L 476 310.5 L 477 309.5 L 478 295.5 L 477 295.5 L 476.5 299 L 471.5 299 L 468.5 298 Q 462.3 295.7 459 290.5 L 456 283.5 L 456 276.5 L 459 269.5 L 463.5 265 L 469.5 262 L 476.5 261 L 477.5 267 L 478 258.5 L 477 257.5 L 477.5 251 Z " /><path fill="rgb(240,42,42)" stroke="rgb(240,42,42)" stroke-width="1" opacity="1" d="M 285.5 256 L 297.5 256 L 304.5 259 L 310 263.5 L 313 267.5 L 316 275.5 L 316 284.5 L 313 292.5 L 306.5 300 L 298.5 304 Q 295.3 303.3 294.5 305 L 288.5 305 L 279.5 302 L 272 295.5 L 268 288.5 Q 268.8 285.3 267 284.5 L 267 275.5 L 270 267.5 L 274.5 262 L 278.5 259 L 285.5 256 Z " /><path fill="rgb(240,42,42)" stroke="rgb(240,42,42)" stroke-width="1" opacity="1" d="M 438.5 256 L 439 258.5 L 438 258.5 L 438.5 256 Z " /><path fill="rgb(240,42,42)" stroke="rgb(240,42,42)" stroke-width="1" opacity="1" d="M 395.5 260 L 396 262.5 L 395 262.5 L 395.5 260 Z " /><path fill="rgb(240,42,42)" stroke="rgb(240,42,42)" stroke-width="1" opacity="1" d="M 439.5 262 L 440 267.5 L 439 267.5 L 439.5 262 Z " /><path fill="rgb(240,42,42)" stroke="rgb(240,42,42)" stroke-width="1" opacity="1" d="M 396.5 266 L 397 272.5 L 396 272.5 L 396.5 266 Z " /><path fill="rgb(240,42,42)" stroke="rgb(240,42,42)" stroke-width="1" opacity="1" d="M 357.5 270 L 358 274.5 L 357 274.5 L 357.5 270 Z " /><path fill="rgb(240,42,42)" stroke="rgb(240,42,42)" stroke-width="1" opacity="1" d="M 374.5 270 Q 385.3 268.2 388 274.5 Q 390.2 277.3 389 283.5 L 383.5 290 L 376.5 291 L 370 286.5 L 368 282.5 L 368 277.5 L 371.5 272 L 374.5 270 Z " /><path fill="rgb(240,42,42)" stroke="rgb(240,42,42)" stroke-width="1" opacity="1" d="M 440.5 272 L 441 287.5 L 440 287.5 L 440.5 272 Z " /><path fill="rgb(240,42,42)" stroke="rgb(240,42,42)" stroke-width="1" opacity="1" d="M 357.5 286 L 358 289.5 L 357 289.5 L 357.5 286 Z " /><path fill="rgb(240,42,42)" stroke="rgb(240,42,42)" stroke-width="1" opacity="1" d="M 396.5 287 L 397 293.5 L 396 293.5 L 396.5 287 Z " /><path fill="rgb(240,42,42)" stroke="rgb(240,42,42)" stroke-width="1" opacity="1" d="M 439.5 292 L 440 297.5 L 439 297.5 L 439.5 292 Z " /><path fill="rgb(240,42,42)" stroke="rgb(240,42,42)" stroke-width="1" opacity="1" d="M 395.5 297 L 396 299.5 L 395 299.5 L 395.5 297 Z " /><path fill="rgb(240,42,42)" stroke="rgb(240,42,42)" stroke-width="1" opacity="1" d="M 438.5 301 L 439 304.5 L 438 304.5 L 438.5 301 Z " /><path fill="rgb(240,42,42)" stroke="rgb(240,42,42)" stroke-width="1" opacity="1" d="M 475.5 316 L 476 319.5 L 475 319.5 L 475.5 316 Z " /><path fill="rgb(239,75,74)" stroke="rgb(239,75,74)" stroke-width="1" opacity="1" d="M 452.5 183 L 455 186.5 Q 454 188 453 185.5 L 452.5 183 Z " /><path fill="rgb(239,75,74)" stroke="rgb(239,75,74)" stroke-width="1" opacity="1" d="M 455.5 188 L 465 205.5 L 465 207.5 L 470 218.5 L 469 219.5 Q 472.5 221 470 222.5 L 470.5 224 L 472 224.5 L 471 226.5 L 473 227.5 L 472 230.5 L 474 231.5 L 473 234.5 L 475 234.5 L 474 239.5 L 476 239.5 Q 474 240.5 475 244.5 L 476 244.5 L 476.5 243 L 477 244.5 L 476 245.5 L 475.5 250 L 474.5 247 L 470.5 247 L 469.5 248 L 466.5 248 L 460.5 250 L 455.5 253 L 448 260.5 L 444 267.5 L 443 273.5 L 442 274.5 L 442 286.5 L 447 298.5 L 456.5 308 L 464.5 312 Q 467.8 311.3 468.5 313 L 474.5 313 L 475.5 311 L 476 314.5 Q 474 315.5 475 319.5 L 476 321.5 L 475 321.5 L 474.5 320 L 474 324.5 L 474.5 326 L 473 325.5 L 474 329.5 L 472 329.5 L 473 332.5 L 471 333.5 L 472 335.5 L 470 337.5 L 471 338.5 L 469 340.5 L 470 341.5 L 468 343.5 Q 470 344.5 468 345.5 L 468 347.5 L 462 359.5 L 462 361.5 L 451.5 379 L 452 377.5 L 457 367.5 L 441.5 363 L 429.5 357 L 422.5 352 L 416.5 361 L 417 359.5 L 426 343.5 L 426 341.5 L 431 331.5 L 432 326.5 L 434 324.5 Q 431.5 323 435 321.5 L 434 319.5 L 436 318.5 L 435 315.5 L 437 314.5 L 436 311.5 L 438 310.5 L 437 305.5 L 439 305.5 Q 439.8 300.7 438 298.5 L 439 298.5 L 439.5 300 L 440 292.5 L 441 291.5 L 441 269.5 L 440 268.5 L 439.5 260 L 438.5 262 L 438 260.5 Q 440.3 259.3 439 254.5 L 437 254.5 L 438 249.5 L 436 249.5 L 437 245.5 L 435 244.5 L 436 242.5 L 434 240.5 Q 436.5 239 433 237.5 L 434 235.5 L 432 234.5 L 432 231.5 L 430 228.5 L 428 221.5 L 419 204.5 Q 420 203 421 205.5 L 423.5 210 L 430.5 205 L 440.5 200 L 458 194.5 L 455 188.5 L 455.5 188 Z " /><path fill="rgb(239,75,74)" stroke="rgb(239,75,74)" stroke-width="1" opacity="1" d="M 382.5 226 L 390 239.5 L 390 241.5 L 393 247.5 Q 390.5 249 394 250.5 L 393 253.5 L 395 254.5 L 394 257.5 L 396 258.5 Q 394.3 260.3 395 264.5 L 396 264.5 L 396.5 263 L 397 264.5 L 396 265.5 L 395.5 274 L 394.5 269 L 392 267.5 L 391.5 266 L 384.5 262 Q 380.3 262.7 378.5 261 L 377.5 262 L 373.5 262 L 368.5 264 L 363 269.5 L 360 276.5 L 360 283.5 L 363 290.5 L 368.5 296 L 375.5 299 L 381.5 299 L 387.5 297 L 395 291.5 Q 393 290.5 395 289.5 L 395.5 286 L 396 294.5 L 397 296.5 L 396 296.5 L 395.5 295 L 395 300.5 L 395.5 302 L 394 302.5 L 395 305.5 L 393 308.5 L 394 309.5 L 392 311.5 Q 394 312.5 392 313.5 L 388 325.5 L 381.5 336 L 382 334.5 L 384 329.5 L 382.5 330 L 373.5 330 Q 372.2 327.8 367.5 329 L 361.5 327 L 352.5 322 L 351 322.5 Q 353.3 321.3 350.5 320 L 348 318.5 L 347.5 317 L 341.5 324 L 341 323.5 L 345 319.5 L 350 311.5 L 353 303.5 L 355 301.5 L 354 299.5 L 356 298.5 L 355 296.5 L 357 295.5 L 356 291.5 L 358 291.5 L 359 276.5 L 358 276.5 L 357.5 284 L 357 276.5 L 358 275.5 L 358 268.5 L 357 268.5 L 356.5 270 L 356 268.5 Q 357.8 267.8 357 264.5 L 355 263.5 L 356 261.5 L 354 260.5 L 355 258.5 L 353 257.5 Q 355.5 256 352 254.5 Q 347.8 242.2 339 234.5 L 339.5 234 L 345 239.5 L 347.5 243 L 349 242.5 L 349.5 241 L 359.5 235 L 362.5 235 L 366.5 233 Q 371.3 234.3 372.5 232 L 383.5 232 L 385 232.5 L 382 226.5 L 382.5 226 Z " /><path fill="rgb(239,75,74)" stroke="rgb(239,75,74)" stroke-width="1" opacity="1" d="M 290.5 255 L 293 255.5 L 290.5 256 L 290.5 255 Z " /><path fill="rgb(239,75,74)" stroke="rgb(239,75,74)" stroke-width="1" opacity="1" d="M 479.5 264 L 480 266.5 L 479 266.5 L 479.5 264 Z " /><path fill="rgb(239,75,74)" stroke="rgb(239,75,74)" stroke-width="1" opacity="1" d="M 439.5 270 L 440 275.5 L 439 275.5 L 439.5 270 Z " /><path fill="rgb(239,75,74)" stroke="rgb(239,75,74)" stroke-width="1" opacity="1" d="M 397.5 272 L 398 275.5 L 397 275.5 L 397.5 272 Z " /><path fill="rgb(239,75,74)" stroke="rgb(239,75,74)" stroke-width="1" opacity="1" d="M 397.5 284 L 398 288.5 L 397 288.5 L 397.5 284 Z " /><path fill="rgb(239,75,74)" stroke="rgb(239,75,74)" stroke-width="1" opacity="1" d="M 439.5 285 L 440 289.5 L 439 289.5 L 439.5 285 Z " /><path fill="rgb(239,75,74)" stroke="rgb(239,75,74)" stroke-width="1" opacity="1" d="M 479.5 293 L 480 295.5 L 479 295.5 L 479.5 293 Z " /><path fill="rgb(239,75,74)" stroke="rgb(239,75,74)" stroke-width="1" opacity="1" d="M 450.5 380 L 450 381.5 L 448.5 384 L 449 382.5 L 450.5 380 Z " /><path fill="rgb(240,70,60)" stroke="rgb(240,70,60)" stroke-width="1" opacity="1" d="M 472.5 228 L 473 230.5 L 472 230.5 L 472.5 228 Z " /><path fill="rgb(240,70,60)" stroke="rgb(240,70,60)" stroke-width="1" opacity="1" d="M 436.5 245 L 437 247.5 L 436 247.5 L 436.5 245 Z " /><path fill="rgb(240,70,60)" stroke="rgb(240,70,60)" stroke-width="1" opacity="1" d="M 470.5 247 L 475 247.5 L 475.5 250 L 478 250.5 L 477 251.5 L 477 257.5 L 479 257.5 L 478 258.5 L 477.5 267 L 476.5 261 L 466.5 263 L 459 269.5 L 456 276.5 L 456 283.5 L 459 290.5 L 464.5 296 L 471.5 299 L 476.5 299 L 477.5 295 L 478 301.5 L 477 302.5 L 477 309.5 L 474.5 313 L 468.5 313 Q 467.8 311.3 464.5 312 L 456.5 308 L 447 298.5 L 442 286.5 L 442 274.5 L 446 263.5 L 455.5 253 L 460.5 250 L 466.5 248 L 469.5 248 L 470.5 247 Z " /><path fill="rgb(240,70,60)" stroke="rgb(240,70,60)" stroke-width="1" opacity="1" d="M 394.5 255 L 395 257.5 L 394 257.5 L 394.5 255 Z " /><path fill="rgb(240,70,60)" stroke="rgb(240,70,60)" stroke-width="1" opacity="1" d="M 438.5 259 L 440 261.5 L 439 261.5 L 438.5 259 Z " /><path fill="rgb(240,70,60)" stroke="rgb(240,70,60)" stroke-width="1" opacity="1" d="M 378.5 261 Q 380.3 262.7 384.5 262 L 392 266.5 L 393.5 269 L 395 269.5 L 395.5 274 L 397 273.5 L 398 276.5 L 398 283.5 L 396.5 287 L 395 286.5 Q 395.8 289.8 394 290.5 L 394.5 292 L 385.5 298 Q 382.3 297.3 381.5 299 L 375.5 299 L 368.5 296 L 363 290.5 L 360 283.5 L 360 276.5 L 363 269.5 L 368.5 264 L 373.5 262 L 377.5 262 L 378.5 261 Z M 375 270 L 372 272 L 368 278 L 368 283 L 370 287 L 377 291 L 384 290 L 389 284 Q 390 277 388 275 Q 385 268 375 270 Z " /><path fill="rgb(240,70,60)" stroke="rgb(240,70,60)" stroke-width="1" opacity="1" d="M 395.5 263 L 397 265.5 Q 396 267 395 264.5 L 395.5 263 Z " /><path fill="rgb(240,70,60)" stroke="rgb(240,70,60)" stroke-width="1" opacity="1" d="M 356.5 267 L 358 269.5 L 357 269.5 L 356.5 267 Z " /><path fill="rgb(240,70,60)" stroke="rgb(240,70,60)" stroke-width="1" opacity="1" d="M 439.5 268 Q 441.5 268.5 441 271.5 L 440 271.5 L 439.5 268 Z " /><path fill="rgb(240,70,60)" stroke="rgb(240,70,60)" stroke-width="1" opacity="1" d="M 357.5 275 L 359 276.5 L 359 284.5 Q 358 287 357 285.5 Q 359.2 282.7 358 276.5 L 357.5 275 Z " /><path fill="rgb(240,70,60)" stroke="rgb(240,70,60)" stroke-width="1" opacity="1" d="M 440.5 288 L 441 291.5 L 439.5 292 L 439 290.5 L 440.5 288 Z " /><path fill="rgb(240,70,60)" stroke="rgb(240,70,60)" stroke-width="1" opacity="1" d="M 396.5 294 L 396 295.5 L 395.5 297 L 395 295.5 L 396.5 294 Z " /><path fill="rgb(240,70,60)" stroke="rgb(240,70,60)" stroke-width="1" opacity="1" d="M 439.5 298 L 440 299.5 Q 439 302 438 300.5 L 439.5 298 Z " /><path fill="rgb(240,70,60)" stroke="rgb(240,70,60)" stroke-width="1" opacity="1" d="M 394.5 302 L 395 304.5 L 394 304.5 L 394.5 302 Z " /><path fill="rgb(240,70,60)" stroke="rgb(240,70,60)" stroke-width="1" opacity="1" d="M 436.5 312 L 437 314.5 L 436 314.5 L 436.5 312 Z " /><path fill="rgb(240,70,60)" stroke="rgb(240,70,60)" stroke-width="1" opacity="1" d="M 435.5 316 L 436 318.5 L 435 318.5 L 435.5 316 Z " /><path fill="rgb(240,70,60)" stroke="rgb(240,70,60)" stroke-width="1" opacity="1" d="M 472.5 329 L 473 331.5 L 472 331.5 L 472.5 329 Z " /><path fill="rgb(235,131,129)" stroke="rgb(235,131,129)" stroke-width="1" opacity="1" d="M 398.5 125 L 413.5 136 L 429 150.5 L 449 175.5 L 448.5 177 L 451 178.5 L 450.5 180 L 452 180.5 L 451.5 182 L 454 183.5 L 453 185.5 L 455 185.5 L 454.5 187 L 457 188.5 L 456 190.5 L 458 190.5 L 457 192.5 L 459 192.5 L 458 194.5 L 460 194.5 L 458.5 197 L 457.5 195 L 451.5 196 L 442.5 200 L 440.5 200 L 430.5 205 L 423.5 210 L 421.5 207 L 420 207.5 L 421 205.5 L 419 205.5 L 419.5 204 L 417 202.5 L 417.5 201 L 415 199.5 L 415.5 198 L 413 196.5 L 413.5 195 L 411 193.5 L 411.5 192 L 408 189.5 Q 400 177 388.5 168 L 374.5 157 L 364 150.5 L 365.5 151 L 368.5 150 L 378.5 142 L 380 142.5 L 382.5 138 L 390.5 133 L 401 128.5 L 398 125.5 L 398.5 125 Z " /><path fill="rgb(235,131,129)" stroke="rgb(235,131,129)" stroke-width="1" opacity="1" d="M 342.5 187 Q 361.9 197.1 375 213.5 L 378 217.5 L 377.5 219 L 380 220.5 L 379.5 222 L 382 223.5 L 381.5 225 L 384 226.5 L 383 228.5 L 385 228.5 L 384 230.5 L 386 230.5 L 385 232.5 L 387 232.5 Q 385.3 235.8 383.5 232 L 372.5 232 Q 371.3 234.3 366.5 233 L 362.5 235 L 359.5 235 L 349 241.5 L 348.5 243 L 346.5 242 L 345 242.5 Q 347 241.5 345 240.5 L 344.5 239 L 343.5 240 L 340 236.5 Q 342.3 235.2 339.5 234 L 326.5 224 L 314.5 218 L 305 215.5 L 308.5 215 L 316.5 207 L 333.5 196 L 346 190.5 L 342 187.5 L 342.5 187 Z " /><path fill="rgb(235,131,129)" stroke="rgb(235,131,129)" stroke-width="1" opacity="1" d="M 301.5 214 L 304 214.5 L 301.5 215 L 301.5 214 Z " /><path fill="rgb(235,131,129)" stroke="rgb(235,131,129)" stroke-width="1" opacity="1" d="M 287.5 255 L 290 255.5 L 287.5 256 L 287.5 255 Z " /><path fill="rgb(235,131,129)" stroke="rgb(235,131,129)" stroke-width="1" opacity="1" d="M 293.5 255 L 296 255.5 L 293.5 256 L 293.5 255 Z " /><path fill="rgb(235,131,129)" stroke="rgb(235,131,129)" stroke-width="1" opacity="1" d="M 479.5 261 L 480 263.5 L 479 263.5 L 479.5 261 Z " /><path fill="rgb(235,131,129)" stroke="rgb(235,131,129)" stroke-width="1" opacity="1" d="M 438.5 262 L 439 264.5 L 438 264.5 L 438.5 262 Z " /><path fill="rgb(235,131,129)" stroke="rgb(235,131,129)" stroke-width="1" opacity="1" d="M 397.5 268 L 398 271.5 L 397 271.5 L 397.5 268 Z " /><path fill="rgb(235,131,129)" stroke="rgb(235,131,129)" stroke-width="1" opacity="1" d="M 439.5 276 L 440 284.5 L 439 284.5 L 439.5 276 Z " /><path fill="rgb(235,131,129)" stroke="rgb(235,131,129)" stroke-width="1" opacity="1" d="M 266.5 279 L 267 281.5 L 266 281.5 L 266.5 279 Z " /><path fill="rgb(235,131,129)" stroke="rgb(235,131,129)" stroke-width="1" opacity="1" d="M 316.5 279 L 317 281.5 L 316 281.5 L 316.5 279 Z " /><path fill="rgb(235,131,129)" stroke="rgb(235,131,129)" stroke-width="1" opacity="1" d="M 356.5 288 L 357 290.5 L 356 290.5 L 356.5 288 Z " /><path fill="rgb(235,131,129)" stroke="rgb(235,131,129)" stroke-width="1" opacity="1" d="M 397.5 289 L 398 291.5 L 397 291.5 L 397.5 289 Z " /><path fill="rgb(235,131,129)" stroke="rgb(235,131,129)" stroke-width="1" opacity="1" d="M 438.5 295 L 439 297.5 L 438 297.5 L 438.5 295 Z " /><path fill="rgb(235,131,129)" stroke="rgb(235,131,129)" stroke-width="1" opacity="1" d="M 479.5 296 L 480 298.5 L 479 298.5 L 479.5 296 Z " /><path fill="rgb(235,131,129)" stroke="rgb(235,131,129)" stroke-width="1" opacity="1" d="M 346.5 316 L 349.5 320 L 357.5 325 L 367.5 329 Q 372.2 327.8 373.5 330 L 382.5 330 L 385.5 326 L 385 327.5 L 385.5 329 L 387 328.5 L 385.5 330 L 384 329.5 L 385 331.5 L 383 331.5 L 384 333.5 L 382 333.5 L 383 335.5 L 380 337.5 Q 382.3 338.8 379.5 340 L 378 340.5 L 379 341.5 L 376 344.5 Q 370.9 352.9 363.5 359 L 350.5 369 L 336.5 376 L 336.5 375 L 341 372.5 L 337.5 372 L 324.5 365 L 306 348.5 L 305.5 346 L 302 345.5 L 312.5 343 L 323.5 338 Q 334.3 331.3 343 322.5 L 342 321.5 L 344.5 319 Q 345.7 321.3 347 318.5 L 346.5 317 L 345 317.5 L 346.5 316 Z " /><path fill="rgb(235,131,129)" stroke="rgb(235,131,129)" stroke-width="1" opacity="1" d="M 422.5 349 L 424 351.5 L 423.5 353 L 441.5 363 L 453.5 367 L 456.5 367 Q 457.7 364.8 459 367.5 L 457 367.5 L 458 369.5 L 456 369.5 L 457 371.5 L 455 371.5 L 456 373.5 L 454 373.5 L 453 375.5 L 453.5 377 L 452 376.5 L 453 378.5 L 450 380.5 L 450.5 382 L 449 381.5 L 448 383.5 Q 450 384.5 448 385.5 Q 435.1 405.6 417.5 421 L 402.5 433 L 384.5 444 Q 383 443 385.5 442 L 388 440.5 L 382.5 438 L 377.5 433 Q 369.7 429.3 364 423.5 L 365 422.5 L 360.5 418 L 355.5 415 L 350.5 417 L 350.5 416 L 363.5 410 L 377.5 401 Q 392.9 389.9 405 375.5 L 408.5 371 L 410 370.5 Q 407.8 369.3 410.5 368 L 413 366.5 Q 410.7 365.3 413.5 364 L 415 363.5 Q 412.7 362.3 415.5 361 L 417 360.5 L 416.5 359 L 418 359.5 L 417 357.5 L 418.5 356 L 420 356.5 L 419 354.5 L 420.5 355 L 422 353.5 L 423 350.5 L 422.5 349 Z " /><path fill="rgb(221,200,196)" stroke="rgb(221,200,196)" stroke-width="1" opacity="1" d="M 283.5 66 L 284 132.5 L 271.5 133 L 268.5 134 L 268.5 133 L 270 132.5 L 271 128.5 L 274 125.5 L 274 123.5 L 278 118.5 L 276.5 118 L 271.5 124 L 271 123.5 L 274 120.5 L 283 105.5 L 278.5 105 L 277.5 106 L 260.5 106 L 259.5 107 L 251.5 107 L 250.5 108 L 244.5 108 L 243.5 109 L 238.5 109 L 237.5 110 L 227.5 111 L 226.5 112 L 215.5 114 L 211.5 116 L 208.5 116 L 196.5 120 L 188.5 124 L 186.5 124 L 167.5 133 L 148.5 145 Q 134.4 154.9 123 167.5 L 110 184.5 L 100 204.5 L 97 213.5 L 97 216.5 L 96 217.5 L 95 228.5 L 94 229.5 L 94 247.5 L 95 248.5 L 95 254.5 L 96 255.5 L 97 263.5 L 101 275.5 L 108 289.5 Q 120 309.5 137.5 324 L 161.5 341 L 178.5 350 L 180.5 350 L 192.5 356 L 210.5 362 L 213.5 362 L 217.5 364 L 224.5 365 L 225.5 366 L 229.5 366 L 235.5 368 L 240.5 368 L 241.5 369 L 246.5 369 L 247.5 370 L 263.5 371 L 264 370.5 L 262 368.5 L 256 358.5 L 258 357.5 L 254 352.5 L 254 350.5 L 248 338.5 L 248 335.5 L 245 331.5 L 246 329.5 L 245 327.5 L 245.5 327 L 249.5 331 L 256.5 336 L 266.5 341 L 272.5 343 L 275.5 343 L 276.5 344 L 280.5 344 L 281.5 345 L 293.5 346 L 294.5 345 L 301.5 345 L 306 346.5 L 306 348.5 L 312.5 355 Q 319.6 358.9 324.5 365 L 337.5 372 L 341 372.5 L 340.5 374 L 342.5 373 Q 344 374 341.5 375 L 330.5 380 L 321.5 383 L 318.5 383 L 317.5 384 L 307.5 385 L 306.5 386 L 290.5 386 L 291 384.5 L 289.5 383 L 286 380.5 L 285.5 378 L 285 385.5 L 284 386.5 L 284 426.5 L 285.5 428 L 298.5 428 L 299.5 427 L 309.5 427 L 310.5 426 L 316.5 426 L 317.5 425 L 321.5 425 L 322.5 424 L 333.5 422 L 342.5 419 L 345.5 417 L 347.5 417 L 355.5 413 L 355.5 414 L 352 415.5 L 354.5 416 L 356.5 415 L 365 422.5 L 364 423.5 L 366.5 426 L 377.5 433 L 382.5 438 L 388 440.5 L 387.5 442 L 392.5 439 Q 394 440 391.5 441 L 371.5 452 L 369.5 452 L 364.5 455 L 362.5 455 L 351.5 460 L 348.5 460 L 341.5 463 L 338.5 463 L 333.5 465 L 329.5 465 L 328.5 466 L 324.5 466 L 323.5 467 Q 318.8 465.8 317.5 468 L 305.5 468 L 303.5 469 L 301.5 467 L 301 467.5 L 300.5 469 L 286 454.5 L 286.5 454 L 300.5 467 L 301 466.5 L 286 451.5 Q 288 450.5 286 449.5 L 285.5 448 L 285 535.5 L 286 535.5 L 286.5 502 L 304.5 502 L 305.5 501 L 317.5 501 L 318.5 500 L 326.5 500 L 327.5 499 L 340.5 498 L 341.5 497 L 346.5 497 L 347.5 496 L 361.5 494 L 362.5 493 L 377.5 490 L 381.5 488 L 384.5 488 L 388.5 486 L 391.5 486 L 403.5 482 L 406.5 480 L 411.5 479 L 416 474.5 L 438 446.5 L 459.5 414 L 459 415.5 Q 430.8 462.8 393.5 501 L 392 501.5 L 384.5 510 L 362.5 530 L 335.5 551 L 312.5 566 L 290.5 577 L 277.5 571 L 275.5 569 L 258.5 560 L 228.5 539 L 202.5 517 L 175 489.5 L 153 463.5 L 136 440.5 L 123 420.5 Q 124 419 125 421.5 L 137 440.5 L 151 459.5 L 174.5 487 Q 175.5 485 176.5 487 L 179.5 487 L 183.5 489 L 186.5 489 L 187.5 490 L 202.5 493 L 203.5 494 L 207.5 494 L 208.5 495 L 210 493.5 L 187 470.5 L 187.5 470 L 215 497.5 Q 212.8 498.7 215.5 500 L 218.5 502 L 219.5 501 L 224 505.5 L 223.5 507 L 225.5 508 L 226.5 507 L 230 510.5 L 229.5 512 L 231.5 513 L 232.5 512 L 235 514.5 L 234.5 516 L 236.5 517 Q 237.8 514.8 239 517.5 L 238.5 519 L 240.5 520 L 241.5 519 L 244 521.5 L 244.5 523 Q 245.8 520.8 247 523.5 L 246.5 525 L 248.5 524 L 251.5 528 Q 252.8 525.8 254 528.5 L 253.5 530 L 255.5 529 L 257 530.5 L 256.5 532 L 258.5 531 L 260.5 534 L 262 533.5 L 261.5 535 L 263.5 534 L 265.5 537 Q 266.8 534.8 268 537.5 L 268.5 539 L 270 538.5 L 270.5 540 L 272 539.5 L 272.5 541 Q 273.5 539 274.5 541 L 277 542.5 L 277.5 544 L 279 543.5 L 279.5 545 L 281 544.5 L 281.5 546 L 283 545.5 L 283.5 547 L 284 444.5 L 283 444.5 L 282.5 452 L 261.5 452 L 260.5 451 L 247.5 451 L 246.5 450 L 237.5 450 L 236.5 449 L 221.5 448 L 220.5 447 L 215.5 447 L 214.5 446 L 209.5 446 L 208.5 445 L 204.5 445 L 203.5 444 L 189.5 442 L 188.5 441 L 177.5 439 L 173.5 437 L 170.5 437 L 158.5 433 L 158.5 435 L 154 429.5 L 156 429.5 L 154.5 427 L 153.5 428 L 151 425.5 L 153 425.5 L 151.5 423 Q 150.3 425.3 149 422.5 L 150 420.5 L 148.5 421 L 147 419.5 L 148 417.5 L 146.5 418 L 145 416.5 L 146 414.5 L 144.5 415 L 143 413.5 L 129 391.5 L 115 364.5 L 113 362.5 L 112 358.5 L 97 328.5 L 93 316.5 L 86 301.5 L 85 296.5 L 83 293.5 L 71 257.5 L 69 247.5 L 66 240.5 L 64 229.5 L 61 221.5 L 61 218.5 L 59 213.5 L 59 209.5 L 56 200.5 L 56 196.5 L 55 195.5 L 55 191.5 L 54 190.5 L 54 186.5 L 53 185.5 L 53 181.5 L 52 180.5 L 52 176.5 L 51 175.5 L 50 167.5 L 54.5 167 L 55.5 166 L 59.5 166 L 68.5 163 L 71.5 163 L 75.5 161 L 78.5 161 L 102.5 153 L 113.5 148 L 118.5 147 L 131.5 141 L 133.5 141 L 138.5 138 L 140.5 138 L 145.5 135 L 147.5 135 L 184.5 117 L 186.5 117 L 236.5 92 L 238.5 90 L 253.5 83 L 255.5 81 L 266.5 76 L 268.5 74 Q 277.1 71.1 283.5 66 Z " /><path fill="rgb(221,200,196)" stroke="rgb(221,200,196)" stroke-width="1" opacity="1" d="M 334.5 97 L 341.5 98 L 345.5 100 L 348.5 100 L 360.5 104 L 363.5 106 L 365.5 106 L 387.5 117 L 401 126.5 L 400 127.5 L 400.5 129 L 398.5 129 L 390.5 133 L 382 138.5 L 378.5 144 L 376.5 143 L 370 148.5 L 370.5 150 Q 369.5 148 368.5 150 L 367 150.5 L 369 151.5 L 367 152.5 L 367.5 154 L 366 152.5 L 366.5 151 L 364.5 152 L 359 148.5 L 358.5 147 L 357 147.5 L 356.5 146 L 354.5 147 L 342.5 141 L 333.5 138 L 330.5 138 L 326.5 136 L 322.5 136 L 321.5 135 L 312.5 134 L 311.5 133 L 304.5 133 L 303.5 132 L 297 131.5 L 303.5 131 L 308 126.5 L 320.5 113 L 323 111.5 L 323.5 110 L 331 104.5 L 335.5 99 L 337 98.5 L 334.5 98 L 334.5 97 Z " /><path fill="rgb(221,200,196)" stroke="rgb(221,200,196)" stroke-width="1" opacity="1" d="M 405.5 129 L 408 131.5 L 407.5 132 L 405 129.5 L 405.5 129 Z " /><path fill="rgb(221,200,196)" stroke="rgb(221,200,196)" stroke-width="1" opacity="1" d="M 410.5 133 L 413 135.5 L 412.5 136 L 410 133.5 L 410.5 133 Z " /><path fill="rgb(221,200,196)" stroke="rgb(221,200,196)" stroke-width="1" opacity="1" d="M 416.5 138 L 422 143.5 L 421.5 144 L 416 138.5 L 416.5 138 Z " /><path fill="rgb(221,200,196)" stroke="rgb(221,200,196)" stroke-width="1" opacity="1" d="M 429.5 151 L 434 155.5 L 433.5 156 L 429 151.5 L 429.5 151 Z " /><path fill="rgb(221,200,196)" stroke="rgb(221,200,196)" stroke-width="1" opacity="1" d="M 388.5 168 L 393 172.5 L 392.5 173 L 388 168.5 L 388.5 168 Z " /><path fill="rgb(221,200,196)" stroke="rgb(221,200,196)" stroke-width="1" opacity="1" d="M 301.5 175 L 309.5 175 L 310.5 176 L 315.5 176 L 323.5 179 L 326.5 179 L 329.5 181 L 336.5 183 L 344 187.5 L 343.5 189 L 345.5 188 L 345.5 191 L 339.5 193 L 325.5 201 L 316.5 207 L 308.5 215 L 302.5 216 L 302.5 215 L 304 214.5 L 301.5 214 L 300.5 215 L 280.5 215 Q 279.5 217 275.5 216 L 263.5 220 L 258.5 223 L 258 222.5 L 260.5 220 L 262 219.5 L 267 208.5 L 276 194.5 L 275.5 193 L 277 193.5 L 277.5 192 L 280 190.5 L 280.5 189 L 282 188.5 Q 279.5 187 283 185.5 L 283.5 184 L 284 188.5 L 285.5 190 L 301 176.5 L 301.5 175 Z " /><path fill="rgb(221,200,196)" stroke="rgb(221,200,196)" stroke-width="1" opacity="1" d="M 399.5 179 L 403 182.5 L 402.5 183 L 399 179.5 L 399.5 179 Z " /><path fill="rgb(221,200,196)" stroke="rgb(221,200,196)" stroke-width="1" opacity="1" d="M 362.5 200 L 372 209.5 L 371.5 210 L 362 200.5 L 362.5 200 Z " /><path fill="rgb(221,200,196)" stroke="rgb(221,200,196)" stroke-width="1" opacity="1" d="M 335.5 231 L 340 235.5 L 339.5 236 L 335 231.5 L 335.5 231 Z " /><path fill="rgb(221,200,196)" stroke="rgb(221,200,196)" stroke-width="1" opacity="1" d="M 438.5 265 L 439 267.5 L 438 267.5 L 438.5 265 Z " /><path fill="rgb(221,200,196)" stroke="rgb(221,200,196)" stroke-width="1" opacity="1" d="M 480.5 271 L 481 289.5 L 480 289.5 L 480.5 271 Z " /><path fill="rgb(221,200,196)" stroke="rgb(221,200,196)" stroke-width="1" opacity="1" d="M 266.5 276 L 267 278.5 L 266 278.5 L 266.5 276 Z " /><path fill="rgb(221,200,196)" stroke="rgb(221,200,196)" stroke-width="1" opacity="1" d="M 316.5 276 L 317 278.5 L 316 278.5 L 316.5 276 Z " /><path fill="rgb(221,200,196)" stroke="rgb(221,200,196)" stroke-width="1" opacity="1" d="M 438.5 292 L 439 294.5 L 438 294.5 L 438.5 292 Z " /><path fill="rgb(221,200,196)" stroke="rgb(221,200,196)" stroke-width="1" opacity="1" d="M 479.5 299 L 480 301.5 L 479 301.5 L 479.5 299 Z " /><path fill="rgb(221,200,196)" stroke="rgb(221,200,196)" stroke-width="1" opacity="1" d="M 478.5 307 L 479 309.5 L 478 309.5 L 478.5 307 Z " /><path fill="rgb(221,200,196)" stroke="rgb(221,200,196)" stroke-width="1" opacity="1" d="M 341.5 322 L 342 322.5 L 339.5 325 L 339 324.5 L 341.5 322 Z " /><path fill="rgb(221,200,196)" stroke="rgb(221,200,196)" stroke-width="1" opacity="1" d="M 336.5 327 L 337 327.5 L 333.5 331 L 333 330.5 L 336.5 327 Z " /><path fill="rgb(221,200,196)" stroke="rgb(221,200,196)" stroke-width="1" opacity="1" d="M 303.5 344 L 306 344.5 L 303.5 345 L 303.5 344 Z " /><path fill="rgb(221,200,196)" stroke="rgb(221,200,196)" stroke-width="1" opacity="1" d="M 373.5 348 L 374 348.5 L 371.5 351 L 371 350.5 L 373.5 348 Z " /><path fill="rgb(221,200,196)" stroke="rgb(221,200,196)" stroke-width="1" opacity="1" d="M 493.5 349 L 494 350.5 L 491.5 355 L 491 353.5 L 493.5 349 Z " /><path fill="rgb(221,200,196)" stroke="rgb(221,200,196)" stroke-width="1" opacity="1" d="M 362.5 359 L 363 359.5 L 360.5 362 L 360 361.5 L 362.5 359 Z " /><path fill="rgb(221,200,196)" stroke="rgb(221,200,196)" stroke-width="1" opacity="1" d="M 487.5 362 L 488 363.5 L 478.5 381 L 479 379.5 L 487.5 362 Z " /><path fill="rgb(221,200,196)" stroke="rgb(221,200,196)" stroke-width="1" opacity="1" d="M 408.5 370 L 409 370.5 L 406.5 373 L 406 372.5 L 408.5 370 Z " /><path fill="rgb(221,200,196)" stroke="rgb(221,200,196)" stroke-width="1" opacity="1" d="M 404.5 375 L 405 375.5 L 400.5 380 L 400 379.5 L 404.5 375 Z " /><path fill="rgb(221,200,196)" stroke="rgb(221,200,196)" stroke-width="1" opacity="1" d="M 475.5 386 L 475 387.5 L 470.5 396 L 471 394.5 L 475.5 386 Z " /><path fill="rgb(221,200,196)" stroke="rgb(221,200,196)" stroke-width="1" opacity="1" d="M 105.5 389 L 109 394.5 Q 108 396 107 393.5 L 105 389.5 L 105.5 389 Z " /><path fill="rgb(221,200,196)" stroke="rgb(221,200,196)" stroke-width="1" opacity="1" d="M 390.5 389 L 391 389.5 L 386.5 394 L 386 393.5 L 390.5 389 Z " /><path fill="rgb(221,200,196)" stroke="rgb(221,200,196)" stroke-width="1" opacity="1" d="M 383.5 395 L 384 395.5 L 381.5 398 L 381 397.5 L 383.5 395 Z " /><path fill="rgb(221,200,196)" stroke="rgb(221,200,196)" stroke-width="1" opacity="1" d="M 469.5 397 L 469 398.5 L 466.5 403 L 467 401.5 L 469.5 397 Z " /><path fill="rgb(221,200,196)" stroke="rgb(221,200,196)" stroke-width="1" opacity="1" d="M 379.5 398 L 380 398.5 L 377.5 401 L 377 400.5 L 379.5 398 Z " /><path fill="rgb(221,200,196)" stroke="rgb(221,200,196)" stroke-width="1" opacity="1" d="M 111.5 400 L 114 403.5 Q 113 405 112 402.5 L 111.5 400 Z " /><path fill="rgb(221,200,196)" stroke="rgb(221,200,196)" stroke-width="1" opacity="1" d="M 436.5 401 L 437 401.5 L 433.5 405 L 433 404.5 L 436.5 401 Z " /><path fill="rgb(221,200,196)" stroke="rgb(221,200,196)" stroke-width="1" opacity="1" d="M 465.5 404 L 465 405.5 L 463.5 408 L 464 406.5 L 465.5 404 Z " /><path fill="rgb(221,200,196)" stroke="rgb(221,200,196)" stroke-width="1" opacity="1" d="M 114.5 405 L 123 418.5 Q 122 420 121 417.5 L 114 405.5 L 114.5 405 Z " /><path fill="rgb(221,200,196)" stroke="rgb(221,200,196)" stroke-width="1" opacity="1" d="M 364.5 408 Q 366 409 363.5 410 L 359.5 412 Q 358 411 360.5 410 L 364.5 408 Z " /><path fill="rgb(221,200,196)" stroke="rgb(221,200,196)" stroke-width="1" opacity="1" d="M 462.5 409 L 462 410.5 L 460.5 413 L 461 411.5 L 462.5 409 Z " /><path fill="rgb(221,200,196)" stroke="rgb(221,200,196)" stroke-width="1" opacity="1" d="M 428.5 410 L 429 410.5 L 422.5 417 L 422 416.5 L 428.5 410 Z " /><path fill="rgb(221,200,196)" stroke="rgb(221,200,196)" stroke-width="1" opacity="1" d="M 416.5 421 L 417 421.5 L 412.5 426 L 412 425.5 L 416.5 421 Z " /><path fill="rgb(221,200,196)" stroke="rgb(221,200,196)" stroke-width="1" opacity="1" d="M 410.5 426 L 411 426.5 L 407.5 430 L 407 429.5 L 410.5 426 Z " /><path fill="rgb(221,200,196)" stroke="rgb(221,200,196)" stroke-width="1" opacity="1" d="M 405.5 430 L 406 430.5 L 403.5 433 L 403 432.5 L 405.5 430 Z " /><path fill="rgb(221,200,196)" stroke="rgb(221,200,196)" stroke-width="1" opacity="1" d="M 159.5 436 L 162 438.5 L 161.5 439 L 159 436.5 L 159.5 436 Z " /><path fill="rgb(221,200,196)" stroke="rgb(221,200,196)" stroke-width="1" opacity="1" d="M 162.5 440 L 165 442.5 L 164.5 443 L 162 440.5 L 162.5 440 Z " /><path fill="rgb(221,200,196)" stroke="rgb(221,200,196)" stroke-width="1" opacity="1" d="M 166.5 445 L 169 447.5 L 168.5 448 L 166 445.5 L 166.5 445 Z " /><path fill="rgb(221,200,196)" stroke="rgb(221,200,196)" stroke-width="1" opacity="1" d="M 169.5 449 L 173 452.5 L 172.5 453 L 169 449.5 L 169.5 449 Z " /><path fill="rgb(221,200,196)" stroke="rgb(221,200,196)" stroke-width="1" opacity="1" d="M 174.5 455 L 179 459.5 L 178.5 460 L 174 455.5 L 174.5 455 Z " /><path fill="rgb(221,200,196)" stroke="rgb(221,200,196)" stroke-width="1" opacity="1" d="M 179.5 461 L 185 466.5 L 184.5 467 L 179 461.5 L 179.5 461 Z " /><path fill="rgb(221,200,196)" stroke="rgb(221,200,196)" stroke-width="1" opacity="1" d="M 325.5 575 L 326 576.5 L 324.5 577 Q 323 576 325.5 575 Z " /><path fill="rgb(221,200,196)" stroke="rgb(221,200,196)" stroke-width="1" opacity="1" d="M 322.5 577 L 323 578.5 L 320 579.5 L 319.5 581 L 319 579.5 L 322.5 577 Z " /><path fill="rgb(221,200,196)" stroke="rgb(221,200,196)" stroke-width="1" opacity="1" d="M 317.5 580 Q 319 581 316.5 582 L 315 582.5 L 314.5 584 L 313.5 583 L 312 583.5 L 317.5 580 Z " /><path fill="rgb(221,200,196)" stroke="rgb(221,200,196)" stroke-width="1" opacity="1" d="M 267.5 582 L 271 584.5 L 269.5 585 L 267 583.5 L 267.5 582 Z " /><path fill="rgb(221,200,196)" stroke="rgb(221,200,196)" stroke-width="1" opacity="1" d="M 310.5 584 Q 312 585 309.5 586 L 308 586.5 L 307.5 588 L 306 587.5 L 305.5 589 Q 304.5 587 303.5 589 L 295.5 593 Q 294 592 296.5 591 L 310.5 584 Z " /><path fill="rgb(221,200,196)" stroke="rgb(221,200,196)" stroke-width="1" opacity="1" d="M 278.5 588 L 286.5 592 L 292.5 593 L 294 592.5 L 293.5 594 L 291.5 595 L 289.5 594 L 288 594.5 L 287.5 593 L 286 593.5 L 285.5 592 L 284 592.5 L 283.5 591 L 282 591.5 L 281.5 590 L 280 590.5 L 279.5 589 L 278 589.5 L 278.5 588 Z " /><path fill="rgb(229,231,227)" stroke="rgb(229,231,227)" stroke-width="1" opacity="1" d="M 286.5 16 L 297.5 23 L 334.5 42 L 336.5 42 L 353.5 51 L 355.5 51 L 364.5 56 L 366.5 56 L 375.5 61 L 377.5 61 L 384.5 65 L 393.5 68 L 400.5 72 L 402.5 72 L 414.5 78 L 421.5 80 L 426.5 83 L 433.5 85 L 438.5 88 L 450.5 92 L 455.5 95 L 457.5 95 L 460.5 97 L 462.5 97 L 490.5 109 L 495.5 110 L 513.5 118 L 518.5 119 L 539.5 128 L 560.5 135 L 567 138.5 L 566 147.5 L 565 148.5 L 565 154.5 L 564 155.5 L 564 160.5 L 563 161.5 L 562 173.5 L 560 179.5 L 560 184.5 L 559 185.5 L 559 189.5 L 558 190.5 L 558 194.5 L 557 195.5 L 557 199.5 L 556 200.5 L 554 214.5 L 551 223.5 L 551 227.5 L 550 228.5 L 550 231.5 L 549 232.5 L 546 247.5 L 543 255.5 L 543 258.5 L 541 262.5 L 541 265.5 L 538 272.5 L 538 275.5 L 526 311.5 L 524 314.5 L 523 319.5 L 521 322.5 L 521 324.5 L 519 327.5 L 518 332.5 L 515 337.5 L 513 344.5 L 506 358.5 L 506 360.5 L 483 405.5 L 458 445.5 L 425 488.5 L 388.5 527 L 358.5 553 L 335.5 570 L 330 572.5 L 329.5 574 L 327 574.5 L 326.5 576 Q 325.3 573.8 324 576.5 L 323.5 578 Q 322.5 576 321.5 578 L 320 578.5 L 320.5 580 L 319 579.5 L 317.5 582 L 315.5 581 L 315.5 583 L 313.5 582 L 314 583.5 L 312.5 585 L 310.5 586 L 308.5 585 L 308.5 587 L 306.5 586 L 306.5 588 L 304.5 587 L 305 588.5 L 303.5 590 L 291.5 596 L 289 594.5 L 290.5 594 Q 291.5 596 292.5 594 L 296 592.5 L 293.5 592 Q 292.8 593.8 289.5 593 L 286.5 592 L 285 592.5 L 285.5 591 L 283.5 592 L 283.5 590 L 281.5 591 L 281.5 589 L 279.5 590 L 279.5 588 L 277.5 589 L 276.5 587 L 275 587.5 L 274.5 586 L 273 586.5 L 272.5 585 L 271 585.5 L 269.5 583 L 267.5 582 L 266 582.5 L 265.5 581 L 261.5 580 L 251.5 573 L 248.5 572 L 215.5 548 Q 188.5 526 165 500.5 L 138 468.5 L 112 431.5 L 97 406.5 L 93 397.5 L 91 395.5 L 69 349.5 L 69 347.5 L 59 324.5 L 58 319.5 L 56 316.5 L 44 280.5 L 44 277.5 L 42 273.5 L 40 263.5 L 38 259.5 L 38 256.5 L 37 255.5 L 37 252.5 L 36 251.5 L 36 248.5 L 35 247.5 L 32 232.5 L 31 231.5 L 31 227.5 L 29 222.5 L 29 218.5 L 28 217.5 L 28 213.5 L 27 212.5 L 27 208.5 L 26 207.5 L 24 193.5 L 23 192.5 L 23 187.5 L 22 186.5 L 22 181.5 L 21 180.5 L 21 175.5 L 20 174.5 Q 21.3 169.7 19 168.5 L 19 162.5 L 18 161.5 L 18 155.5 L 17 154.5 L 16 143.5 L 55.5 131 L 58.5 129 L 66.5 127 L 69.5 125 L 90.5 118 L 93.5 116 L 95.5 116 L 98.5 114 L 100.5 114 L 103.5 112 L 105.5 112 L 108.5 110 L 120.5 106 L 139.5 97 L 141.5 97 L 176.5 80 L 178.5 80 L 238.5 48 L 259.5 35 L 286.5 16 Z M 284 66 Q 277 71 269 74 L 267 76 L 256 81 L 254 83 L 239 90 L 237 92 L 187 117 L 185 117 L 148 135 L 146 135 L 141 138 L 139 138 L 134 141 L 132 141 L 119 147 L 114 148 L 103 153 L 79 161 L 76 161 L 72 163 L 69 163 L 60 166 L 56 166 L 55 167 L 50 168 L 51 176 L 52 177 L 52 181 L 53 182 L 53 186 L 54 187 L 54 191 L 55 192 L 55 196 L 56 197 L 56 201 L 59 210 L 59 214 L 61 219 L 61 222 L 64 230 L 66 241 L 69 248 L 71 258 L 83 294 L 95 322 L 95 324 L 97 327 L 97 329 L 112 359 L 113 363 L 115 365 L 121 378 L 123 380 L 135 402 L 162 441 L 187 471 Q 210 497 240 518 L 243 522 L 243 522 L 216 500 L 210 494 L 209 495 L 208 494 L 204 494 L 203 493 L 188 490 L 187 489 L 184 489 L 180 487 L 177 487 L 176 488 L 178 490 L 178 490 L 176 488 L 175 490 L 184 498 L 185 497 L 195 508 L 194 509 L 212 525 L 244 550 L 269 566 L 291 577 L 313 566 L 336 551 L 363 530 L 385 510 L 392 502 L 392 501 L 389 504 L 388 504 L 401 491 L 402 492 L 407 486 L 405 486 L 410 481 L 411 482 L 414 479 L 414 477 L 412 479 L 407 480 L 404 482 L 392 486 L 389 486 L 385 488 L 382 488 L 378 490 L 363 493 L 362 494 L 348 496 L 347 497 L 335 498 L 334 499 L 328 499 L 327 500 L 319 500 L 318 501 L 306 501 L 305 502 L 287 502 L 286 536 L 285 536 L 286 448 L 286 450 Q 288 451 286 452 L 304 469 L 306 468 L 318 468 L 319 467 L 324 467 L 325 466 L 329 466 L 330 465 L 334 465 L 339 463 L 342 463 L 349 460 L 355 459 L 370 452 L 372 452 L 389 443 L 404 433 L 423 417 Q 436 404 447 389 L 456 375 L 466 355 L 466 353 L 471 342 L 473 336 L 473 333 L 475 329 L 475 325 L 477 320 L 478 311 L 479 310 L 479 303 L 480 302 L 480 291 L 481 290 L 481 272 L 480 271 L 480 260 L 479 259 L 479 252 L 478 251 L 478 246 L 477 245 L 477 241 L 474 232 L 474 229 L 469 214 L 459 192 L 457 190 L 452 180 L 434 156 L 417 138 L 393 120 L 366 106 L 342 98 Q 337 97 336 99 L 331 105 L 324 110 L 323 112 L 321 113 L 308 127 L 304 131 L 297 132 L 304 132 L 305 133 L 312 133 L 313 134 L 322 135 L 323 136 L 327 136 L 348 143 L 371 155 L 385 165 L 394 173 L 410 192 L 421 209 L 426 219 L 426 221 L 429 226 L 434 241 L 435 248 L 436 249 L 436 253 L 437 254 L 437 259 L 438 260 L 438 268 L 439 269 L 439 292 L 438 293 L 438 301 L 437 302 L 436 312 L 435 313 L 435 316 L 434 317 L 434 320 L 433 321 L 433 324 L 431 330 L 421 352 L 415 362 L 400 381 Q 389 392 377 401 L 357 413 L 355 413 L 348 417 L 346 417 L 343 419 L 334 422 L 323 424 L 322 425 L 318 425 L 317 426 L 311 426 L 310 427 L 300 427 L 299 428 L 286 428 L 284 427 L 284 387 L 285 386 L 286 378 L 286 381 L 290 383 L 291 385 L 291 386 L 307 386 L 308 385 L 313 385 L 314 384 L 322 383 L 331 380 L 347 372 L 361 362 Q 374 350 384 335 L 391 321 L 395 309 L 396 301 L 397 300 L 397 295 L 398 294 L 398 267 L 397 266 L 397 261 L 396 260 L 395 252 L 392 243 L 390 240 L 390 238 L 386 230 L 372 210 Q 357 193 337 183 L 316 176 Q 311 177 310 175 L 302 175 L 301 177 L 286 190 L 284 189 L 284 184 L 283 186 Q 279 187 282 189 L 281 189 L 280 191 L 278 192 L 267 209 L 262 220 L 261 220 Q 258 221 260 222 L 272 217 L 280 216 L 281 215 L 302 215 Q 302 217 307 216 L 316 219 L 332 228 L 343 240 L 349 249 L 355 264 Q 354 267 356 268 L 356 274 L 357 275 L 357 286 L 356 287 L 356 293 L 354 298 L 354 301 L 348 314 L 339 326 L 331 333 L 317 341 L 308 344 Q 304 343 303 345 L 295 345 L 294 346 L 282 345 L 281 344 L 277 344 L 276 343 L 273 343 L 267 341 L 257 336 L 250 331 L 246 327 L 245 328 L 246 330 L 245 332 L 248 336 L 248 339 L 254 351 L 254 353 L 258 358 L 256 359 L 262 369 L 264 371 L 264 371 L 248 370 L 247 369 L 242 369 L 241 368 L 236 368 L 230 366 L 226 366 L 225 365 L 218 364 L 214 362 L 211 362 L 193 356 L 181 350 L 179 350 L 162 341 L 138 324 Q 120 310 108 290 L 101 276 L 97 264 L 96 256 L 95 255 L 95 249 L 94 248 L 94 230 L 95 229 L 96 218 L 97 217 L 97 214 L 100 205 L 110 185 L 123 168 Q 134 155 149 145 L 168 133 L 187 124 L 189 124 L 197 120 L 209 116 L 212 116 L 216 114 L 227 112 L 228 111 L 238 110 L 239 109 L 244 109 L 245 108 L 251 108 L 252 107 L 260 107 L 261 106 L 278 106 L 279 105 L 283 106 L 274 120 L 275 121 L 277 118 L 278 119 L 274 124 L 274 126 L 271 129 L 270 133 L 269 133 L 269 134 L 272 133 L 284 133 L 284 66 Z M 335 97 L 335 98 L 337 98 L 335 97 Z M 287 255 L 278 259 L 270 267 L 266 277 L 266 284 Q 268 284 267 288 L 271 296 L 279 302 L 286 305 L 298 305 L 308 300 L 314 293 L 317 284 L 317 277 L 313 267 L 303 257 L 297 255 L 287 255 Z M 456 420 L 454 423 Q 455 424 456 422 L 456 420 Z M 444 438 L 442 441 Q 443 442 444 440 L 444 438 Z M 436 449 L 434 452 Q 435 453 436 451 L 436 449 Z M 433 453 L 431 456 Q 432 457 433 455 L 433 453 Z M 430 457 L 428 460 Q 429 461 430 459 L 430 457 Z M 427 461 L 424 465 L 425 465 L 427 463 L 427 461 Z M 154 462 L 153 464 L 156 466 L 156 466 L 154 462 Z M 423 466 L 420 470 L 421 470 L 423 468 L 423 466 Z M 158 467 L 157 469 L 160 471 L 160 471 L 158 467 Z M 300 467 Q 298 468 301 469 L 301 468 L 300 467 Z M 419 471 L 416 475 L 417 475 L 419 473 L 419 471 Z M 163 473 L 162 475 L 165 477 L 165 477 L 163 473 Z M 168 479 L 167 481 L 171 484 L 171 484 L 168 479 Z M 394 499 Q 391 500 393 501 L 394 501 L 394 499 Z " /><path fill="rgb(229,231,227)" stroke="rgb(229,231,227)" stroke-width="1" opacity="1" d="M 244.5 522 L 250 526.5 L 249.5 527 L 247.5 525 L 244 522.5 L 244.5 522 Z " /><path fill="rgb(229,231,227)" stroke="rgb(229,231,227)" stroke-width="1" opacity="1" d="M 251.5 527 L 259 532.5 L 257.5 532 Q 252.5 530.5 251.5 527 Z " /><path fill="rgb(229,231,227)" stroke="rgb(229,231,227)" stroke-width="1" opacity="1" d="M 260.5 533 L 264 535.5 L 262.5 535 Q 258.7 534.3 260.5 533 Z " /><path fill="rgb(197,201,195)" stroke="rgb(197,201,195)" stroke-width="1" opacity="1" d="M 16.5 149 L 17 151.5 L 16 151.5 L 16.5 149 Z " /><path fill="rgb(197,201,195)" stroke="rgb(197,201,195)" stroke-width="1" opacity="1" d="M 564.5 156 L 565 158.5 L 564 158.5 L 564.5 156 Z " /><path fill="rgb(197,201,195)" stroke="rgb(197,201,195)" stroke-width="1" opacity="1" d="M 20.5 176 L 21 178.5 L 20 178.5 L 20.5 176 Z " /><path fill="rgb(197,201,195)" stroke="rgb(197,201,195)" stroke-width="1" opacity="1" d="M 21.5 182 L 22 184.5 L 21 184.5 L 21.5 182 Z " /><path fill="rgb(197,201,195)" stroke="rgb(197,201,195)" stroke-width="1" opacity="1" d="M 144.5 413 L 158.5 433 L 170.5 437 L 173.5 437 L 177.5 439 L 188.5 441 L 189.5 442 L 193.5 442 L 194.5 443 L 198.5 443 L 199.5 444 L 203.5 444 L 209.5 446 L 214.5 446 L 215.5 447 L 220.5 447 L 221.5 448 L 228.5 448 L 229.5 449 L 236.5 449 L 237.5 450 L 246.5 450 L 247.5 451 L 260.5 451 L 261.5 452 L 282.5 452 L 283.5 444 L 284 545.5 L 282.5 545 L 260.5 533 L 236.5 516 L 218.5 501 L 185 467.5 L 159 435.5 L 145 415.5 L 144.5 413 Z " /><path fill="rgb(197,201,195)" stroke="rgb(197,201,195)" stroke-width="1" opacity="1" d="M 161.5 496 L 164 498.5 L 163.5 499 L 161 496.5 L 161.5 496 Z " /><path fill="rgb(197,201,195)" stroke="rgb(197,201,195)" stroke-width="1" opacity="1" d="M 412.5 502 L 413 502.5 L 409.5 506 L 409 505.5 L 412.5 502 Z " /><path fill="rgb(197,201,195)" stroke="rgb(197,201,195)" stroke-width="1" opacity="1" d="M 385.5 529 L 386 529.5 L 381.5 534 L 381 533.5 L 385.5 529 Z " /><path fill="rgb(197,201,195)" stroke="rgb(197,201,195)" stroke-width="1" opacity="1" d="M 195.5 530 L 198 532.5 L 197.5 533 L 195 530.5 L 195.5 530 Z " /><path fill="rgb(197,201,195)" stroke="rgb(197,201,195)" stroke-width="1" opacity="1" d="M 374.5 539 L 375 539.5 L 372.5 542 L 372 541.5 L 374.5 539 Z " /><path fill="rgb(197,201,195)" stroke="rgb(197,201,195)" stroke-width="1" opacity="1" d="M 367.5 545 L 368 545.5 L 365.5 548 L 365 547.5 L 367.5 545 Z " /><path fill="rgb(90,91,90)" stroke="rgb(90,91,90)" stroke-width="1" opacity="0.30980392156862746" d="M 141.5 497 L 143 499.5 L 142 499.5 L 141.5 497 Z " /><path fill="rgb(90,91,90)" stroke="rgb(90,91,90)" stroke-width="1" opacity="0.30980392156862746" d="M 152.5 508 L 158 513.5 L 157.5 514 L 152 508.5 L 152.5 508 Z " /><path fill="rgb(90,91,90)" stroke="rgb(90,91,90)" stroke-width="1" opacity="0.30980392156862746" d="M 183.5 539 L 188 543.5 L 187.5 544 L 183 539.5 L 183.5 539 Z " /><path fill="rgb(90,91,90)" stroke="rgb(90,91,90)" stroke-width="1" opacity="0.30980392156862746" d="M 394.5 541 L 395 541.5 L 390.5 546 L 390 545.5 L 394.5 541 Z " /><path fill="rgb(90,91,90)" stroke="rgb(90,91,90)" stroke-width="1" opacity="0.30980392156862746" d="M 193.5 548 L 197 551.5 L 196.5 552 L 193 548.5 L 193.5 548 Z " /><path fill="rgb(90,91,90)" stroke="rgb(90,91,90)" stroke-width="1" opacity="0.30980392156862746" d="M 384.5 550 L 385 550.5 L 381.5 554 L 381 553.5 L 384.5 550 Z " /><path fill="rgb(90,91,90)" stroke="rgb(90,91,90)" stroke-width="1" opacity="0.30980392156862746" d="M 200.5 554 L 203 556.5 L 202.5 557 L 200 554.5 L 200.5 554 Z " /><path fill="rgb(90,91,90)" stroke="rgb(90,91,90)" stroke-width="1" opacity="0.30980392156862746" d="M 206.5 559 L 209 561.5 L 208.5 562 L 206 559.5 L 206.5 559 Z " /><path fill="rgb(90,91,90)" stroke="rgb(90,91,90)" stroke-width="1" opacity="0.30980392156862746" d="M 289.5 611 L 294 611.5 L 289.5 612 L 289.5 611 Z " /><path fill="rgb(127,135,127)" stroke="rgb(127,135,127)" stroke-width="1" opacity="0.0392156862745098" d="M 582.5 149 L 583 152.5 L 582 152.5 L 582.5 149 Z " /><path fill="rgb(127,135,127)" stroke="rgb(127,135,127)" stroke-width="1" opacity="0.0392156862745098" d="M 0.5 155 L 1 157.5 L 0 157.5 L 0.5 155 Z " /><path fill="rgb(127,135,127)" stroke="rgb(127,135,127)" stroke-width="1" opacity="0.0392156862745098" d="M 64.5 377 L 66 380.5 L 65 380.5 Q 63.3 379 64.5 377 Z " /><path fill="rgb(127,135,127)" stroke="rgb(127,135,127)" stroke-width="1" opacity="0.0392156862745098" d="M 71.5 392 L 73 394.5 L 72 394.5 L 71.5 392 Z " /><path fill="rgb(127,135,127)" stroke="rgb(127,135,127)" stroke-width="1" opacity="0.0392156862745098" d="M 502.5 401 L 503 402.5 Q 502 405 501 403.5 L 502.5 401 Z " /><path fill="rgb(127,135,127)" stroke="rgb(127,135,127)" stroke-width="1" opacity="0.0392156862745098" d="M 82.5 412 L 85 413.5 L 83.5 414 Q 81 413 82.5 412 Z " /><path fill="rgb(127,135,127)" stroke="rgb(127,135,127)" stroke-width="1" opacity="0.0392156862745098" d="M 495.5 414 L 496 415.5 Q 495 418 494 416.5 L 495.5 414 Z " /><path fill="rgb(127,135,127)" stroke="rgb(127,135,127)" stroke-width="1" opacity="0.0392156862745098" d="M 99.5 438 L 99 439.5 L 100.5 441 L 102 441.5 L 100.5 442 L 98 439.5 L 99.5 438 Z " /><path fill="rgb(127,135,127)" stroke="rgb(127,135,127)" stroke-width="1" opacity="0.0392156862745098" d="M 107.5 452 L 110 453.5 L 108.5 454 Q 106 453 107.5 452 Z " /><path fill="rgb(127,135,127)" stroke="rgb(127,135,127)" stroke-width="1" opacity="0.0392156862745098" d="M 114.5 462 L 117 463.5 L 115.5 464 Q 113 463 114.5 462 Z " /><path fill="rgb(127,135,127)" stroke="rgb(127,135,127)" stroke-width="1" opacity="0.0392156862745098" d="M 122.5 473 L 126 475.5 L 124.5 475 Q 120.7 474.3 122.5 473 Z " /><path fill="rgb(127,135,127)" stroke="rgb(127,135,127)" stroke-width="1" opacity="0.0392156862745098" d="M 453.5 476 Q 456 477 454.5 478 L 453.5 477 L 452 477.5 L 453.5 476 Z " /><path fill="rgb(127,135,127)" stroke="rgb(127,135,127)" stroke-width="1" opacity="0.0392156862745098" d="M 129.5 482 L 131 484.5 L 130 484.5 L 129.5 482 Z " /><path fill="rgb(127,135,127)" stroke="rgb(127,135,127)" stroke-width="1" opacity="0.0392156862745098" d="M 132.5 486 L 134 488.5 L 133 488.5 L 132.5 486 Z " /><path fill="rgb(127,135,127)" stroke="rgb(127,135,127)" stroke-width="1" opacity="0.0392156862745098" d="M 439.5 495 L 439 496.5 L 437.5 499 L 436.5 498 L 435 498.5 L 436.5 497 L 438 497.5 L 439.5 495 Z " /><path fill="rgb(127,135,127)" stroke="rgb(127,135,127)" stroke-width="1" opacity="0.0392156862745098" d="M 145.5 500 L 148 502.5 L 147.5 503 L 145 500.5 L 145.5 500 Z " /><path fill="rgb(127,135,127)" stroke="rgb(127,135,127)" stroke-width="1" opacity="0.0392156862745098" d="M 435.5 500 L 436 500.5 L 433.5 503 L 433 502.5 L 435.5 500 Z " /><path fill="rgb(127,135,127)" stroke="rgb(127,135,127)" stroke-width="1" opacity="0.0392156862745098" d="M 431.5 503 L 432 503.5 L 429.5 506 L 429 505.5 L 431.5 503 Z " /><path fill="rgb(154,154,152)" stroke="rgb(154,154,152)" stroke-width="1" opacity="0.054901960784313725" d="M 292.5 0 L 295 1.5 L 293.5 2 Q 291 1 292.5 0 Z " /><path fill="rgb(154,154,152)" stroke="rgb(154,154,152)" stroke-width="1" opacity="0.054901960784313725" d="M 277.5 2 Q 279 3 276.5 4 L 275 4.5 L 275.5 6 Q 272.5 4.5 275.5 3 L 277.5 2 Z " /><path fill="rgb(154,154,152)" stroke="rgb(154,154,152)" stroke-width="1" opacity="0.054901960784313725" d="M 311.5 11 L 313 11.5 L 310.5 13 Q 309 12 311.5 11 Z " /><path fill="rgb(154,154,152)" stroke="rgb(154,154,152)" stroke-width="1" opacity="0.054901960784313725" d="M 252.5 19 Q 255 20 253.5 21 Q 252.5 19 251.5 21 L 250 21.5 L 250.5 23 Q 247.5 21.5 250.5 20 L 252.5 19 Z " /><path fill="rgb(154,154,152)" stroke="rgb(154,154,152)" stroke-width="1" opacity="0.054901960784313725" d="M 242.5 25 L 244 25.5 L 242 26.5 L 242.5 28 Q 239.5 26.5 242.5 25 Z " /><path fill="rgb(154,154,152)" stroke="rgb(154,154,152)" stroke-width="1" opacity="0.054901960784313725" d="M 348.5 29 L 352 31.5 Q 351 34 350 32.5 L 350.5 31 L 348.5 32 L 348.5 29 Z " /><path fill="rgb(154,154,152)" stroke="rgb(154,154,152)" stroke-width="1" opacity="0.054901960784313725" d="M 360.5 35 L 362 35.5 L 359.5 37 Q 358 36 360.5 35 Z " /><path fill="rgb(154,154,152)" stroke="rgb(154,154,152)" stroke-width="1" opacity="0.054901960784313725" d="M 363.5 36 L 366 37.5 L 363.5 39 L 363.5 36 Z " /><path fill="rgb(154,154,152)" stroke="rgb(154,154,152)" stroke-width="1" opacity="0.054901960784313725" d="M 382.5 45 L 384 45.5 L 381.5 47 Q 380 46 382.5 45 Z " /><path fill="rgb(154,154,152)" stroke="rgb(154,154,152)" stroke-width="1" opacity="0.054901960784313725" d="M 200.5 49 L 203 50.5 L 201.5 50 Q 199.1 49.9 200.5 49 Z " /><path fill="rgb(154,154,152)" stroke="rgb(154,154,152)" stroke-width="1" opacity="0.054901960784313725" d="M 391.5 49 L 393 49.5 L 390.5 51 Q 389 50 391.5 49 Z " /><path fill="rgb(154,154,152)" stroke="rgb(154,154,152)" stroke-width="1" opacity="0.054901960784313725" d="M 172.5 63 L 175 64.5 L 173.5 64 Q 171.1 63.9 172.5 63 Z " /><path fill="rgb(154,154,152)" stroke="rgb(154,154,152)" stroke-width="1" opacity="0.054901960784313725" d="M 426.5 64 L 428 64.5 L 425.5 66 Q 424 65 426.5 64 Z " /><path fill="rgb(154,154,152)" stroke="rgb(154,154,152)" stroke-width="1" opacity="0.054901960784313725" d="M 433.5 67 L 436 68.5 Q 435 71 434 69.5 L 434.5 68 L 432.5 69 Q 431 68 433.5 67 Z " /><path fill="rgb(154,154,152)" stroke="rgb(154,154,152)" stroke-width="1" opacity="0.054901960784313725" d="M 153.5 72 L 156 73.5 L 154.5 73 Q 152.1 72.9 153.5 72 Z " /><path fill="rgb(154,154,152)" stroke="rgb(154,154,152)" stroke-width="1" opacity="0.054901960784313725" d="M 450.5 74 L 453 75.5 Q 452 78 451 76.5 L 451.5 75 L 449.5 76 Q 448 75 450.5 74 Z " /><path fill="rgb(154,154,152)" stroke="rgb(154,154,152)" stroke-width="1" opacity="0.054901960784313725" d="M 495.5 92 L 498 93.5 Q 497 96 496 94.5 L 496.5 93 Q 494.1 92.9 495.5 92 Z " /><path fill="rgb(154,154,152)" stroke="rgb(154,154,152)" stroke-width="1" opacity="0.054901960784313725" d="M 500.5 94 L 503 95.5 Q 502 98 501 96.5 L 501.5 95 Q 499.1 94.9 500.5 94 Z " /><path fill="rgb(154,154,152)" stroke="rgb(154,154,152)" stroke-width="1" opacity="0.054901960784313725" d="M 510.5 98 L 512 98.5 L 509.5 100 Q 508 99 510.5 98 Z " /><path fill="rgb(154,154,152)" stroke="rgb(154,154,152)" stroke-width="1" opacity="0.054901960784313725" d="M 84.5 101 L 86 101.5 L 84 102.5 L 84.5 104 Q 81.5 102.5 84.5 101 Z " /><path fill="rgb(154,154,152)" stroke="rgb(154,154,152)" stroke-width="1" opacity="0.054901960784313725" d="M 518.5 101 L 521 102.5 Q 520 105 519 103.5 L 519.5 102 Q 517.1 101.9 518.5 101 Z " /><path fill="rgb(154,154,152)" stroke="rgb(154,154,152)" stroke-width="1" opacity="0.054901960784313725" d="M 79.5 103 L 82 104.5 L 80.5 104 Q 78.1 103.9 79.5 103 Z " /><path fill="rgb(154,154,152)" stroke="rgb(154,154,152)" stroke-width="1" opacity="0.054901960784313725" d="M 531.5 106 L 534 107.5 Q 533 110 532 108.5 L 532.5 107 Q 530.1 106.9 531.5 106 Z " /><path fill="rgb(154,154,152)" stroke="rgb(154,154,152)" stroke-width="1" opacity="0.054901960784313725" d="M 68.5 107 L 70 107.5 L 68 108.5 L 68.5 110 Q 65.5 108.5 68.5 107 Z " /><path fill="rgb(154,154,152)" stroke="rgb(154,154,152)" stroke-width="1" opacity="0.054901960784313725" d="M 544.5 111 L 547 112.5 Q 546 115 545 113.5 L 545.5 112 Q 543.1 111.9 544.5 111 Z " /><path fill="rgb(154,154,152)" stroke="rgb(154,154,152)" stroke-width="1" opacity="0.054901960784313725" d="M 552.5 114 L 555 115.5 Q 554 118 553 116.5 L 553.5 115 Q 551.1 114.9 552.5 114 Z " /><path fill="rgb(154,154,152)" stroke="rgb(154,154,152)" stroke-width="1" opacity="0.054901960784313725" d="M 43.5 116 L 45 116.5 L 43 117.5 L 43.5 119 Q 40.5 117.5 43.5 116 Z " /><path fill="rgb(154,154,152)" stroke="rgb(154,154,152)" stroke-width="1" opacity="0.054901960784313725" d="M 560.5 117 L 563 118.5 Q 562 121 561 119.5 L 561.5 118 Q 559.1 117.9 560.5 117 Z " /><path fill="rgb(154,154,152)" stroke="rgb(154,154,152)" stroke-width="1" opacity="0.054901960784313725" d="M 19.5 124 L 19.5 127 L 16 125.5 L 19.5 124 Z " /><path fill="rgb(154,154,152)" stroke="rgb(154,154,152)" stroke-width="1" opacity="0.054901960784313725" d="M 1.5 151 L 2 153.5 L 1 153.5 L 1.5 151 Z " /><path fill="rgb(154,154,152)" stroke="rgb(154,154,152)" stroke-width="1" opacity="0.054901960784313725" d="M 2.5 158 L 3 160.5 L 2 160.5 L 2.5 158 Z " /><path fill="rgb(154,154,152)" stroke="rgb(154,154,152)" stroke-width="1" opacity="0.054901960784313725" d="M 579.5 158 L 580 160.5 L 579 160.5 L 579.5 158 Z " /><path fill="rgb(154,154,152)" stroke="rgb(154,154,152)" stroke-width="1" opacity="0.054901960784313725" d="M 1.5 162 L 2 164.5 L 1 164.5 L 1.5 162 Z " /><path fill="rgb(154,154,152)" stroke="rgb(154,154,152)" stroke-width="1" opacity="0.054901960784313725" d="M 3.5 165 L 4 167.5 L 3 167.5 L 3.5 165 Z " /><path fill="rgb(154,154,152)" stroke="rgb(154,154,152)" stroke-width="1" opacity="0.054901960784313725" d="M 579.5 168 L 580 171.5 L 579 171.5 L 579.5 168 Z " /><path fill="rgb(154,154,152)" stroke="rgb(154,154,152)" stroke-width="1" opacity="0.054901960784313725" d="M 2.5 169 L 3 172.5 L 2 172.5 L 2.5 169 Z " /><path fill="rgb(154,154,152)" stroke="rgb(154,154,152)" stroke-width="1" opacity="0.054901960784313725" d="M 4.5 181 L 5 183.5 L 4 183.5 L 4.5 181 Z " /><path fill="rgb(154,154,152)" stroke="rgb(154,154,152)" stroke-width="1" opacity="0.054901960784313725" d="M 576.5 186 L 577 188.5 L 576 188.5 L 576.5 186 Z " /><path fill="rgb(154,154,152)" stroke="rgb(154,154,152)" stroke-width="1" opacity="0.054901960784313725" d="M 574.5 188 L 576 192.5 L 575 192.5 L 574.5 188 Z " /><path fill="rgb(154,154,152)" stroke="rgb(154,154,152)" stroke-width="1" opacity="0.054901960784313725" d="M 8.5 196 L 9 197.5 L 7.5 202 L 7 198.5 L 8.5 196 Z " /><path fill="rgb(154,154,152)" stroke="rgb(154,154,152)" stroke-width="1" opacity="0.054901960784313725" d="M 572.5 206 L 573 208.5 L 572 208.5 L 572.5 206 Z " /><path fill="rgb(154,154,152)" stroke="rgb(154,154,152)" stroke-width="1" opacity="0.054901960784313725" d="M 11.5 219 L 12 221.5 L 11 221.5 L 11.5 219 Z " /><path fill="rgb(154,154,152)" stroke="rgb(154,154,152)" stroke-width="1" opacity="0.054901960784313725" d="M 568.5 224 L 569 226.5 L 568 226.5 L 568.5 224 Z " /><path fill="rgb(154,154,152)" stroke="rgb(154,154,152)" stroke-width="1" opacity="0.054901960784313725" d="M 13.5 228 L 14 230.5 L 13 230.5 L 13.5 228 Z " /><path fill="rgb(154,154,152)" stroke="rgb(154,154,152)" stroke-width="1" opacity="0.054901960784313725" d="M 17.5 245 L 18 247.5 L 17 247.5 L 17.5 245 Z " /><path fill="rgb(154,154,152)" stroke="rgb(154,154,152)" stroke-width="1" opacity="0.054901960784313725" d="M 559.5 254 L 561 256.5 L 560 256.5 L 559.5 254 Z " /><path fill="rgb(154,154,152)" stroke="rgb(154,154,152)" stroke-width="1" opacity="0.054901960784313725" d="M 21.5 255 L 21 256.5 L 20.5 258 L 20 256.5 L 21.5 255 Z " /><path fill="rgb(154,154,152)" stroke="rgb(154,154,152)" stroke-width="1" opacity="0.054901960784313725" d="M 554.5 277 L 555 278.5 L 553.5 282 L 552 278.5 L 554 278.5 L 554.5 277 Z " /><path fill="rgb(154,154,152)" stroke="rgb(154,154,152)" stroke-width="1" opacity="0.054901960784313725" d="M 549.5 287 L 551 289.5 Q 550 291 549 288.5 L 549.5 287 Z " /><path fill="rgb(154,154,152)" stroke="rgb(154,154,152)" stroke-width="1" opacity="0.054901960784313725" d="M 31.5 289 L 32 290.5 Q 31 293 30 291.5 L 31.5 289 Z " /><path fill="rgb(154,154,152)" stroke="rgb(154,154,152)" stroke-width="1" opacity="0.054901960784313725" d="M 548.5 290 L 550 292.5 Q 549 294 548 291.5 L 548.5 290 Z " /><path fill="rgb(154,154,152)" stroke="rgb(154,154,152)" stroke-width="1" opacity="0.054901960784313725" d="M 546.5 296 L 548 298.5 Q 547 300 546 297.5 L 546.5 296 Z " /><path fill="rgb(154,154,152)" stroke="rgb(154,154,152)" stroke-width="1" opacity="0.054901960784313725" d="M 544.5 307 L 545 308.5 L 543.5 311 L 542 308.5 L 544 308.5 L 544.5 307 Z " /><path fill="rgb(154,154,152)" stroke="rgb(154,154,152)" stroke-width="1" opacity="0.054901960784313725" d="M 38.5 310 L 39 311.5 Q 38 314 37 312.5 L 38.5 310 Z " /><path fill="rgb(154,154,152)" stroke="rgb(154,154,152)" stroke-width="1" opacity="0.054901960784313725" d="M 541.5 311 L 543 313.5 L 542 313.5 L 541.5 311 Z " /><path fill="rgb(154,154,152)" stroke="rgb(154,154,152)" stroke-width="1" opacity="0.054901960784313725" d="M 38.5 315 L 39.5 317 L 41 316.5 L 39.5 319 L 38 316.5 L 38.5 315 Z " /><path fill="rgb(154,154,152)" stroke="rgb(154,154,152)" stroke-width="1" opacity="0.054901960784313725" d="M 539.5 316 L 541 319.5 L 539.5 322 L 538 319.5 L 540 319.5 Q 538.3 318 539.5 316 Z " /><path fill="rgb(154,154,152)" stroke="rgb(154,154,152)" stroke-width="1" opacity="0.054901960784313725" d="M 42.5 327 L 43.5 328 L 45 327.5 L 43.5 329 Q 41 328 42.5 327 Z " /><path fill="rgb(154,154,152)" stroke="rgb(154,154,152)" stroke-width="1" opacity="0.054901960784313725" d="M 45.5 330 L 45 331.5 L 45.5 333 L 47 332.5 L 45.5 335 L 44 331.5 L 45.5 330 Z " /><path fill="rgb(154,154,152)" stroke="rgb(154,154,152)" stroke-width="1" opacity="0.054901960784313725" d="M 535.5 331 L 536 332.5 Q 534.5 335.5 533 332.5 L 535 332.5 L 535.5 331 Z " /><path fill="rgb(154,154,152)" stroke="rgb(154,154,152)" stroke-width="1" opacity="0.054901960784313725" d="M 47.5 335 L 47 336.5 L 47.5 338 L 49 337.5 L 47.5 340 L 46 336.5 L 47.5 335 Z " /><path fill="rgb(154,154,152)" stroke="rgb(154,154,152)" stroke-width="1" opacity="0.054901960784313725" d="M 533.5 336 L 534 337.5 Q 532.5 340.5 531 337.5 L 533 337.5 L 533.5 336 Z " /><path fill="rgb(154,154,152)" stroke="rgb(154,154,152)" stroke-width="1" opacity="0.054901960784313725" d="M 49.5 340 L 49 341.5 L 49.5 343 L 51 342.5 L 49.5 345 L 48 341.5 L 49.5 340 Z " /><path fill="rgb(154,154,152)" stroke="rgb(154,154,152)" stroke-width="1" opacity="0.054901960784313725" d="M 528.5 344 L 530 346.5 L 529 346.5 L 528.5 344 Z " /><path fill="rgb(154,154,152)" stroke="rgb(154,154,152)" stroke-width="1" opacity="0.054901960784313725" d="M 51.5 345 L 51 346.5 L 51.5 348 L 53 347.5 Q 51.5 350.5 50 347.5 L 51.5 345 Z " /><path fill="rgb(154,154,152)" stroke="rgb(154,154,152)" stroke-width="1" opacity="0.054901960784313725" d="M 525.5 351 L 527 353.5 L 526 353.5 L 525.5 351 Z " /><path fill="rgb(154,154,152)" stroke="rgb(154,154,152)" stroke-width="1" opacity="0.054901960784313725" d="M 54.5 352 L 54 353.5 L 54.5 355 L 56 354.5 Q 54.5 357.5 53 354.5 L 54.5 352 Z " /><path fill="rgb(154,154,152)" stroke="rgb(154,154,152)" stroke-width="1" opacity="0.054901960784313725" d="M 522.5 358 L 523.5 359 L 525 358.5 L 523.5 360 Q 521 359 522.5 358 Z " /><path fill="rgb(154,154,152)" stroke="rgb(154,154,152)" stroke-width="1" opacity="0.054901960784313725" d="M 57.5 359 L 57 360.5 L 56.5 362 L 56 360.5 L 57.5 359 Z " /><path fill="rgb(154,154,152)" stroke="rgb(154,154,152)" stroke-width="1" opacity="0.054901960784313725" d="M 521.5 360 L 523 362.5 L 522 362.5 L 521.5 360 Z " /><path fill="rgb(154,154,152)" stroke="rgb(154,154,152)" stroke-width="1" opacity="0.054901960784313725" d="M 57.5 363 L 58.5 364 L 60 363.5 L 58.5 365 Q 56 364 57.5 363 Z " /><path fill="rgb(154,154,152)" stroke="rgb(154,154,152)" stroke-width="1" opacity="0.054901960784313725" d="M 62.5 370 L 62 371.5 L 61.5 373 L 61 371.5 L 62.5 370 Z " /><path fill="rgb(154,154,152)" stroke="rgb(154,154,152)" stroke-width="1" opacity="0.054901960784313725" d="M 96.5 436 L 97.5 437 L 99 436.5 L 97.5 438 Q 95 437 96.5 436 Z " /><path fill="rgb(154,154,152)" stroke="rgb(154,154,152)" stroke-width="1" opacity="0.054901960784313725" d="M 465.5 462 L 466 462.5 L 464 464.5 L 461.5 468 Q 458.5 466.5 461.5 465 L 463 465.5 L 465.5 462 Z " /><path fill="rgb(154,154,152)" stroke="rgb(154,154,152)" stroke-width="1" opacity="0.054901960784313725" d="M 126.5 478 L 129 479.5 L 127.5 479 Q 125.1 478.9 126.5 478 Z " /><path fill="rgb(154,154,152)" stroke="rgb(154,154,152)" stroke-width="1" opacity="0.054901960784313725" d="M 441.5 491 L 441 492.5 L 442 493.5 L 440.5 495 L 441 493.5 L 440 492.5 L 441.5 491 Z " /><path fill="rgb(154,154,152)" stroke="rgb(154,154,152)" stroke-width="1" opacity="0.054901960784313725" d="M 139.5 493 L 142 495.5 L 141.5 496 L 139.5 494 L 138 494.5 L 139.5 493 Z " /><path fill="rgb(225,225,220)" stroke="rgb(225,225,220)" stroke-width="1" opacity="0.00784313725490196" d="M 262.5 12 L 263 12.5 L 260.5 15 L 258.5 16 Q 257 15 259.5 14 L 262.5 12 Z " /><path fill="rgb(225,225,220)" stroke="rgb(225,225,220)" stroke-width="1" opacity="0.00784313725490196" d="M 225.5 35 L 227 35.5 L 224.5 37 Q 223 36 225.5 35 Z " /><path fill="rgb(225,225,220)" stroke="rgb(225,225,220)" stroke-width="1" opacity="0.00784313725490196" d="M 218.5 39 L 220 39.5 L 217.5 41 Q 216 40 218.5 39 Z " /><path fill="rgb(225,225,220)" stroke="rgb(225,225,220)" stroke-width="1" opacity="0.00784313725490196" d="M 443.5 71 L 446 72.5 L 444.5 72 Q 442.1 71.9 443.5 71 Z " /><path fill="rgb(225,225,220)" stroke="rgb(225,225,220)" stroke-width="1" opacity="0.00784313725490196" d="M 465.5 80 L 468 81.5 L 466.5 81 Q 464.1 80.9 465.5 80 Z " /><path fill="rgb(225,225,220)" stroke="rgb(225,225,220)" stroke-width="1" opacity="0.00784313725490196" d="M 470.5 82 L 473 83.5 L 471.5 83 Q 469.1 82.9 470.5 82 Z " /><path fill="rgb(225,225,220)" stroke="rgb(225,225,220)" stroke-width="1" opacity="0.00784313725490196" d="M 475.5 84 L 478 85.5 L 476.5 85 Q 474.1 84.9 475.5 84 Z " /><path fill="rgb(225,225,220)" stroke="rgb(225,225,220)" stroke-width="1" opacity="0.00784313725490196" d="M 480.5 86 L 483 87.5 L 481.5 87 Q 479.1 86.9 480.5 86 Z " /><path fill="rgb(225,225,220)" stroke="rgb(225,225,220)" stroke-width="1" opacity="0.00784313725490196" d="M 485.5 88 L 488 89.5 L 486.5 89 Q 484.1 88.9 485.5 88 Z " /><path fill="rgb(225,225,220)" stroke="rgb(225,225,220)" stroke-width="1" opacity="0.00784313725490196" d="M 104.5 93 L 107 93.5 L 103.5 95 Q 102 94 104.5 93 Z " /><path fill="rgb(225,225,220)" stroke="rgb(225,225,220)" stroke-width="1" opacity="0.00784313725490196" d="M 99.5 95 L 102 95.5 L 99.5 96 L 99.5 95 Z " /><path fill="rgb(225,225,220)" stroke="rgb(225,225,220)" stroke-width="1" opacity="0.00784313725490196" d="M 94.5 97 L 96 97.5 L 93.5 99 Q 92 98 94.5 97 Z " /><path fill="rgb(225,225,220)" stroke="rgb(225,225,220)" stroke-width="1" opacity="0.00784313725490196" d="M 89.5 99 L 91 99.5 L 87.5 101 L 87.5 100 L 89.5 99 Z " /><path fill="rgb(225,225,220)" stroke="rgb(225,225,220)" stroke-width="1" opacity="0.00784313725490196" d="M 513.5 99 L 516 100.5 L 514.5 100 Q 512.1 99.9 513.5 99 Z " /><path fill="rgb(225,225,220)" stroke="rgb(225,225,220)" stroke-width="1" opacity="0.00784313725490196" d="M 525.5 104 Q 528.5 103.5 529 105.5 L 527.5 105 Q 524.5 105.5 525.5 104 Z " /><path fill="rgb(225,225,220)" stroke="rgb(225,225,220)" stroke-width="1" opacity="0.00784313725490196" d="M 539.5 109 L 543 110.5 L 541.5 111 L 539 109.5 L 539.5 109 Z " /><path fill="rgb(225,225,220)" stroke="rgb(225,225,220)" stroke-width="1" opacity="0.00784313725490196" d="M 57.5 111 L 60 111.5 L 57.5 112 L 57.5 111 Z " /><path fill="rgb(225,225,220)" stroke="rgb(225,225,220)" stroke-width="1" opacity="0.00784313725490196" d="M 547.5 112 L 550 113.5 L 548.5 113 Q 546.1 112.9 547.5 112 Z " /><path fill="rgb(225,225,220)" stroke="rgb(225,225,220)" stroke-width="1" opacity="0.00784313725490196" d="M 555.5 115 L 558 116.5 L 556.5 116 Q 554.1 115.9 555.5 115 Z " /><path fill="rgb(225,225,220)" stroke="rgb(225,225,220)" stroke-width="1" opacity="0.00784313725490196" d="M 563.5 118 L 566 119.5 L 564.5 119 Q 562.1 118.9 563.5 118 Z " /><path fill="rgb(225,225,220)" stroke="rgb(225,225,220)" stroke-width="1" opacity="0.00784313725490196" d="M 34.5 119 L 36 119.5 L 28.5 122 L 28.5 121 L 34.5 119 Z " /><path fill="rgb(225,225,220)" stroke="rgb(225,225,220)" stroke-width="1" opacity="0.00784313725490196" d="M 570.5 121 L 573 121.5 L 570.5 122 L 570.5 121 Z " /><path fill="rgb(225,225,220)" stroke="rgb(225,225,220)" stroke-width="1" opacity="0.00784313725490196" d="M 6.5 128 L 9 128.5 L 6.5 129 L 6.5 128 Z " /><path fill="rgb(225,225,220)" stroke="rgb(225,225,220)" stroke-width="1" opacity="0.00784313725490196" d="M 4.5 129 Q 6 130 3.5 131 L 2 130.5 L 4.5 129 Z " /><path fill="rgb(225,225,220)" stroke="rgb(225,225,220)" stroke-width="1" opacity="0.00784313725490196" d="M 22.5 265 L 24 267.5 Q 23 269 22 266.5 L 22.5 265 Z " /><path fill="rgb(225,225,220)" stroke="rgb(225,225,220)" stroke-width="1" opacity="0.00784313725490196" d="M 555.5 274 L 556 275.5 Q 555 278 554 276.5 L 555.5 274 Z " /><path fill="rgb(225,225,220)" stroke="rgb(225,225,220)" stroke-width="1" opacity="0.00784313725490196" d="M 513.5 378 Q 516.3 379.3 514 380.5 L 513.5 382 L 513 380.5 L 514 379.5 L 513.5 378 Z " /><path fill="rgb(225,225,220)" stroke="rgb(225,225,220)" stroke-width="1" opacity="0.00784313725490196" d="M 74.5 397 L 77 401.5 L 76 401.5 L 74 397.5 L 74.5 397 Z " /><path fill="rgb(225,225,220)" stroke="rgb(225,225,220)" stroke-width="1" opacity="0.00784313725490196" d="M 504.5 398 L 504 399.5 L 503.5 402 L 503 399.5 L 504.5 398 Z " /><path fill="rgb(225,225,220)" stroke="rgb(225,225,220)" stroke-width="1" opacity="0.00784313725490196" d="M 80.5 408 L 83 411.5 Q 82 413 81 410.5 L 80.5 408 Z " /><path fill="rgb(225,225,220)" stroke="rgb(225,225,220)" stroke-width="1" opacity="0.00784313725490196" d="M 498.5 409 L 498 410.5 L 497.5 412 L 497 410.5 L 498.5 409 Z " /><path fill="rgb(225,225,220)" stroke="rgb(225,225,220)" stroke-width="1" opacity="0.00784313725490196" d="M 85.5 417 L 87 419.5 L 86 419.5 L 85.5 417 Z " /><path fill="rgb(225,225,220)" stroke="rgb(225,225,220)" stroke-width="1" opacity="0.00784313725490196" d="M 87.5 421 L 90 424.5 L 89 424.5 L 87 421.5 L 87.5 421 Z " /><path fill="rgb(225,225,220)" stroke="rgb(225,225,220)" stroke-width="1" opacity="0.00784313725490196" d="M 90.5 426 L 93 429.5 L 92 429.5 L 90 426.5 L 90.5 426 Z " /><path fill="rgb(225,225,220)" stroke="rgb(225,225,220)" stroke-width="1" opacity="0.00784313725490196" d="M 486.5 430 L 487 430.5 L 485 432.5 L 483.5 435 L 482 434.5 L 484 433.5 L 486.5 430 Z " /><path fill="rgb(225,225,220)" stroke="rgb(225,225,220)" stroke-width="1" opacity="0.00784313725490196" d="M 99.5 441 L 102 443.5 L 101.5 444 L 99 441.5 L 99.5 441 Z " /><path fill="rgb(225,225,220)" stroke="rgb(225,225,220)" stroke-width="1" opacity="0.00784313725490196" d="M 479.5 441 L 480 441.5 L 478 443.5 L 476.5 446 L 477 444.5 L 479.5 441 Z " /><path fill="rgb(225,225,220)" stroke="rgb(225,225,220)" stroke-width="1" opacity="0.00784313725490196" d="M 456.5 472 L 459 472.5 L 456.5 473 L 456.5 472 Z " /><path fill="rgb(146,148,144)" stroke="rgb(146,148,144)" stroke-width="1" opacity="0.47843137254901963" d="M 278.5 3 L 279 3.5 L 276.5 6 L 276 5.5 L 278.5 3 Z " /><path fill="rgb(146,148,144)" stroke="rgb(146,148,144)" stroke-width="1" opacity="0.47843137254901963" d="M 162.5 70 L 164 70.5 L 160.5 72 L 160.5 71 L 162.5 70 Z " /><path fill="rgb(146,148,144)" stroke="rgb(146,148,144)" stroke-width="1" opacity="0.47843137254901963" d="M 4.5 131 L 6 131.5 L 3.5 133 Q 2 132 4.5 131 Z " /><path fill="rgb(146,148,144)" stroke="rgb(146,148,144)" stroke-width="1" opacity="0.47843137254901963" d="M 582.5 134 L 583 136.5 L 582 136.5 L 582.5 134 Z " /><path fill="rgb(146,148,144)" stroke="rgb(146,148,144)" stroke-width="1" opacity="0.47843137254901963" d="M 0.5 140 L 1 142.5 L 0 142.5 L 0.5 140 Z " /><path fill="rgb(146,148,144)" stroke="rgb(146,148,144)" stroke-width="1" opacity="0.47843137254901963" d="M 581.5 141 L 582 144.5 L 581 144.5 L 581.5 141 Z " /><path fill="rgb(146,148,144)" stroke="rgb(146,148,144)" stroke-width="1" opacity="0.47843137254901963" d="M 1.5 146 L 2 150.5 L 1 150.5 L 1.5 146 Z " /><path fill="rgb(146,148,144)" stroke="rgb(146,148,144)" stroke-width="1" opacity="0.47843137254901963" d="M 580.5 148 L 581 151.5 L 580 151.5 L 580.5 148 Z " /><path fill="rgb(146,148,144)" stroke="rgb(146,148,144)" stroke-width="1" opacity="0.47843137254901963" d="M 2.5 155 L 3 157.5 L 2 157.5 L 2.5 155 Z " /><path fill="rgb(146,148,144)" stroke="rgb(146,148,144)" stroke-width="1" opacity="0.47843137254901963" d="M 579.5 155 L 580 157.5 L 579 157.5 L 579.5 155 Z " /><path fill="rgb(146,148,144)" stroke="rgb(146,148,144)" stroke-width="1" opacity="0.47843137254901963" d="M 578.5 161 L 579 164.5 L 578 164.5 L 578.5 161 Z " /><path fill="rgb(146,148,144)" stroke="rgb(146,148,144)" stroke-width="1" opacity="0.47843137254901963" d="M 3.5 162 L 4 164.5 L 3 164.5 L 3.5 162 Z " /><path fill="rgb(146,148,144)" stroke="rgb(146,148,144)" stroke-width="1" opacity="0.47843137254901963" d="M 577.5 168 L 578 170.5 L 577 170.5 L 577.5 168 Z " /><path fill="rgb(146,148,144)" stroke="rgb(146,148,144)" stroke-width="1" opacity="0.47843137254901963" d="M 4.5 169 L 5 171.5 L 4 171.5 L 4.5 169 Z " /><path fill="rgb(146,148,144)" stroke="rgb(146,148,144)" stroke-width="1" opacity="0.47843137254901963" d="M 576.5 174 L 577 176.5 L 576 176.5 L 576.5 174 Z " /><path fill="rgb(146,148,144)" stroke="rgb(146,148,144)" stroke-width="1" opacity="0.47843137254901963" d="M 5.5 175 L 6 177.5 L 5 177.5 L 5.5 175 Z " /><path fill="rgb(146,148,144)" stroke="rgb(146,148,144)" stroke-width="1" opacity="0.47843137254901963" d="M 575.5 179 L 576 181.5 L 575 181.5 L 575.5 179 Z " /><path fill="rgb(146,148,144)" stroke="rgb(146,148,144)" stroke-width="1" opacity="0.47843137254901963" d="M 6.5 181 L 7 183.5 L 6 183.5 L 6.5 181 Z " /><path fill="rgb(146,148,144)" stroke="rgb(146,148,144)" stroke-width="1" opacity="0.47843137254901963" d="M 574.5 185 L 575 187.5 L 574 187.5 L 574.5 185 Z " /><path fill="rgb(146,148,144)" stroke="rgb(146,148,144)" stroke-width="1" opacity="0.47843137254901963" d="M 7.5 187 L 8 189.5 L 7 189.5 L 7.5 187 Z " /><path fill="rgb(146,148,144)" stroke="rgb(146,148,144)" stroke-width="1" opacity="0.47843137254901963" d="M 573.5 190 L 574 192.5 L 573 192.5 L 573.5 190 Z " /><path fill="rgb(146,148,144)" stroke="rgb(146,148,144)" stroke-width="1" opacity="0.47843137254901963" d="M 8.5 193 L 9 195.5 L 8 195.5 L 8.5 193 Z " /><path fill="rgb(146,148,144)" stroke="rgb(146,148,144)" stroke-width="1" opacity="0.47843137254901963" d="M 572.5 195 L 573 197.5 L 572 197.5 L 572.5 195 Z " /><path fill="rgb(146,148,144)" stroke="rgb(146,148,144)" stroke-width="1" opacity="0.47843137254901963" d="M 9.5 198 L 10 200.5 L 9 200.5 L 9.5 198 Z " /><path fill="rgb(146,148,144)" stroke="rgb(146,148,144)" stroke-width="1" opacity="0.47843137254901963" d="M 10.5 203 L 11 205.5 L 10 205.5 L 10.5 203 Z " /><path fill="rgb(146,148,144)" stroke="rgb(146,148,144)" stroke-width="1" opacity="0.47843137254901963" d="M 570.5 205 L 571 207.5 L 570 207.5 L 570.5 205 Z " /><path fill="rgb(146,148,144)" stroke="rgb(146,148,144)" stroke-width="1" opacity="0.47843137254901963" d="M 13.5 218 L 14 220.5 L 13 220.5 L 13.5 218 Z " /><path fill="rgb(146,148,144)" stroke="rgb(146,148,144)" stroke-width="1" opacity="0.47843137254901963" d="M 567.5 219 L 568 221.5 L 567 221.5 L 567.5 219 Z " /><path fill="rgb(146,148,144)" stroke="rgb(146,148,144)" stroke-width="1" opacity="0.47843137254901963" d="M 17.5 236 L 18 238.5 L 17 238.5 L 17.5 236 Z " /><path fill="rgb(146,148,144)" stroke="rgb(146,148,144)" stroke-width="1" opacity="0.47843137254901963" d="M 18.5 240 L 19 242.5 L 18 242.5 L 18.5 240 Z " /><path fill="rgb(146,148,144)" stroke="rgb(146,148,144)" stroke-width="1" opacity="0.47843137254901963" d="M 129.5 480 L 132 482.5 L 131.5 483 L 129 480.5 L 129.5 480 Z " /><path fill="rgb(146,148,144)" stroke="rgb(146,148,144)" stroke-width="1" opacity="0.47843137254901963" d="M 137.5 490 L 140 492.5 L 139.5 493 L 137 490.5 L 137.5 490 Z " /><path fill="rgb(146,148,144)" stroke="rgb(146,148,144)" stroke-width="1" opacity="0.47843137254901963" d="M 439.5 493 L 440 493.5 L 437.5 496 L 437 495.5 L 439.5 493 Z " /><path fill="rgb(146,148,144)" stroke="rgb(146,148,144)" stroke-width="1" opacity="0.47843137254901963" d="M 142.5 496 L 146 499.5 L 145.5 500 L 142 496.5 L 142.5 496 Z " /><path fill="rgb(146,148,144)" stroke="rgb(146,148,144)" stroke-width="1" opacity="0.47843137254901963" d="M 434.5 499 L 435 499.5 L 431.5 503 L 431 502.5 L 434.5 499 Z " /><path fill="rgb(146,148,144)" stroke="rgb(146,148,144)" stroke-width="1" opacity="0.47843137254901963" d="M 148.5 503 L 153 507.5 L 152.5 508 L 148 503.5 L 148.5 503 Z " /><path fill="rgb(146,148,144)" stroke="rgb(146,148,144)" stroke-width="1" opacity="0.47843137254901963" d="M 428.5 506 L 429 506.5 L 424.5 511 L 424 510.5 L 428.5 506 Z " /><path fill="rgb(146,148,144)" stroke="rgb(146,148,144)" stroke-width="1" opacity="0.47843137254901963" d="M 158.5 514 L 166 521.5 L 165.5 522 L 158 514.5 L 158.5 514 Z " /><path fill="rgb(146,148,144)" stroke="rgb(146,148,144)" stroke-width="1" opacity="0.47843137254901963" d="M 418.5 517 L 419 517.5 L 407.5 529 L 407 528.5 L 418.5 517 Z " /><path fill="rgb(146,148,144)" stroke="rgb(146,148,144)" stroke-width="1" opacity="0.47843137254901963" d="M 403.5 532 L 404 532.5 L 395.5 541 L 395 540.5 L 403.5 532 Z " /><path fill="rgb(146,148,144)" stroke="rgb(146,148,144)" stroke-width="1" opacity="0.47843137254901963" d="M 179.5 535 L 183 538.5 L 182.5 539 L 179 535.5 L 179.5 535 Z " /><path fill="rgb(0,0,0)" stroke="rgb(0,0,0)" stroke-width="1" opacity="0.00784313725490196" d="M 0.5 0 L 278.5 0 L 280.5 1 L 282 0.5 L 251.5 22 L 248.5 23 L 223.5 39 L 161.5 71 L 159.5 71 L 130.5 85 L 128.5 85 L 123.5 88 L 116.5 90 L 111.5 93 L 109.5 93 L 91.5 101 L 86.5 102 L 83.5 104 L 65.5 110 L 62.5 112 L 51.5 115 L 48.5 117 L 12.5 129 L 6.5 130 L 1.5 133 L 0 131.5 L 0.5 0 Z M 105 93 L 105 94 L 107 94 L 105 93 Z M 100 95 L 100 96 L 102 96 L 100 95 Z M 58 111 L 58 112 L 60 112 L 58 111 Z M 41 117 L 41 118 L 43 118 L 41 117 Z M 38 118 L 38 119 L 40 119 L 38 118 Z M 35 119 L 35 120 L 37 120 L 35 119 Z M 32 120 L 32 121 L 34 121 L 32 120 Z M 29 121 L 29 122 L 31 122 L 29 121 Z M 26 122 L 26 123 L 28 123 L 26 122 Z M 23 123 L 23 124 L 25 124 L 23 123 Z M 20 124 L 20 125 L 22 125 L 20 124 Z M 17 125 L 17 126 L 19 126 L 17 125 Z M 7 128 L 7 129 L 9 129 L 7 128 Z " /><path fill="rgb(0,0,0)" stroke="rgb(0,0,0)" stroke-width="1" opacity="0.00784313725490196" d="M 290.5 0 L 292.5 1 L 293.5 0 L 582.5 0 L 583 126.5 L 582 127.5 L 582.5 129 L 575.5 124 L 559.5 119 L 556.5 117 L 538.5 111 L 535.5 109 L 530.5 108 L 517.5 102 L 502.5 97 L 499.5 95 L 494.5 94 L 491.5 92 L 489.5 92 L 486.5 90 L 484.5 90 L 481.5 88 L 479.5 88 L 476.5 86 L 474.5 86 L 471.5 84 L 459.5 80 L 454.5 77 L 442.5 73 L 437.5 70 L 430.5 68 L 397.5 53 L 395.5 53 L 388.5 49 L 386.5 49 L 379.5 45 L 377.5 45 L 370.5 41 L 368.5 41 L 355.5 34 L 353.5 34 L 309.5 12 L 307.5 10 L 293.5 3 L 290 0.5 L 290.5 0 Z M 508 97 L 508 98 L 510 98 L 508 97 Z M 526 104 L 526 105 L 528 105 L 526 104 Z M 547 112 L 547 113 L 549 113 L 547 112 Z M 555 115 L 555 116 L 557 116 L 555 115 Z M 563 118 L 563 119 L 565 119 L 563 118 Z M 571 121 L 571 122 L 573 122 L 571 121 Z " /><path fill="rgb(0,0,0)" stroke="rgb(0,0,0)" stroke-width="1" opacity="0.00784313725490196" d="M 582.5 140 L 583 147.5 Q 580.8 148.8 582 153.5 L 583 154.5 L 583 639.5 L 0.5 640 L 0 161.5 L 1 160.5 L 1 154.5 L 0 153.5 L 0 146.5 L 1 146.5 L 1 153.5 L 2 154.5 L 2 160.5 L 3 161.5 L 4 174.5 L 5 175.5 L 5 180.5 L 6 181.5 Q 4.7 186.2 7 187.5 L 7 192.5 L 8 193.5 L 8 197.5 L 10 203.5 L 10 207.5 L 11 208.5 L 11 212.5 L 13 218.5 L 13 222.5 L 15 227.5 L 15 231.5 L 16 232.5 L 16 235.5 L 17 236.5 L 17 239.5 L 18 240.5 L 21 255.5 L 22 256.5 L 23 263.5 L 30 284.5 L 30 287.5 L 43 324.5 L 42 327.5 L 43 327.5 L 43.5 326 L 53 349.5 L 52 352.5 L 53 352.5 L 53.5 351 L 56 356.5 L 55 358.5 L 57 358.5 L 60 365.5 L 59 367.5 L 61 367.5 L 60 369.5 L 62 369.5 L 76 397.5 L 74 397.5 L 76.5 402 L 78 401.5 L 77 403.5 L 79 403.5 L 78 405.5 L 79.5 405 L 81 406.5 L 82 408.5 L 80 408.5 L 82.5 413 L 84 412.5 L 83 414.5 L 84.5 414 L 86 415.5 L 87 417.5 L 85 417.5 L 86.5 420 L 88 419.5 L 87 421.5 L 88.5 421 L 90 422.5 L 88 422.5 L 89.5 425 L 91 424.5 L 90 426.5 L 91.5 426 L 93 427.5 L 91 427.5 L 92.5 430 L 94 429.5 L 93 431.5 L 94.5 431 L 96 432.5 L 94 432.5 L 95.5 435 Q 96.8 432.8 98 435.5 L 99 437.5 L 98 439.5 L 99.5 439 L 101 440.5 L 99 440.5 L 100.5 443 Q 101.8 440.8 103 443.5 L 101 443.5 L 102.5 446 Q 103.8 443.8 105 446.5 L 103 446.5 L 104.5 449 Q 105.8 446.8 107 449.5 L 105 449.5 L 106.5 452 Q 107.8 449.8 109 452.5 L 107 452.5 L 108.5 455 Q 109.8 452.8 111 455.5 L 109 455.5 L 110.5 458 Q 111.8 455.8 113 458.5 L 112 460.5 L 113.5 460 L 116 462.5 L 114 462.5 L 115.5 465 Q 116.8 462.7 118 465.5 L 117 467.5 L 118.5 467 L 121 469.5 L 119 469.5 L 120.5 472 L 121.5 471 L 124 473.5 L 122 473.5 L 123.5 476 L 124.5 475 L 127 477.5 L 125 477.5 L 126.5 480 L 127.5 479 L 131 482.5 L 129 482.5 L 130.5 485 L 131.5 484 L 135 487.5 L 132 486.5 L 134.5 490 L 135.5 489 L 139 492.5 L 137 492.5 L 138.5 495 L 139.5 494 L 145 499.5 Q 153.3 511.2 164 520.5 L 163.5 521 L 157.5 515 L 156.5 516 L 146.5 518 L 137.5 521 L 134.5 523 L 129.5 524 L 122.5 528 L 120.5 528 L 105.5 537 L 96 545.5 L 93 549.5 L 90 556.5 L 90 566.5 L 94 574.5 L 104.5 585 L 115.5 592 L 138.5 602 L 144.5 604 L 147.5 604 L 151.5 606 L 154.5 606 L 158.5 608 L 165.5 609 L 166.5 610 L 170.5 610 L 175.5 612 L 185.5 613 L 191.5 615 L 197.5 615 L 198.5 616 L 204.5 616 L 205.5 617 L 212.5 617 L 213.5 618 L 221.5 618 L 222.5 619 L 232.5 619 L 233.5 620 L 247.5 620 L 248.5 621 L 311.5 621 L 312.5 620 L 326.5 620 L 327.5 619 L 337.5 619 L 338.5 618 L 346.5 618 L 347.5 617 L 361.5 616 L 362.5 615 L 367.5 615 L 368.5 614 L 373.5 614 L 374.5 613 L 388.5 611 L 389.5 610 L 404.5 607 L 408.5 605 L 411.5 605 L 423.5 601 L 431.5 597 L 433.5 597 L 445.5 591 L 453.5 586 L 463 577.5 L 469 567.5 L 470 559.5 L 467 550.5 L 456.5 539 L 444.5 531 L 434.5 526 L 432.5 526 L 429.5 524 L 419 520.5 L 418.5 519 L 410.5 527 L 410 526.5 L 431.5 504 L 435 502.5 L 434.5 501 L 433 501.5 L 437.5 497 L 438.5 498 L 441 495.5 L 440.5 494 L 438.5 496 L 438 495.5 L 442.5 491 Q 443.8 493.3 445 490.5 L 444.5 489 L 443 489.5 L 446.5 486 Q 447.8 488.3 449 485.5 L 448.5 484 L 447 484.5 L 449.5 482 Q 450.8 484.3 452 481.5 L 451.5 480 L 450 480.5 L 453.5 477 Q 454.8 479.3 456 476.5 L 455.5 475 L 454 475.5 L 456.5 473 Q 457.7 475.3 459 472.5 L 458.5 471 L 457 471.5 L 459.5 469 L 461 469.5 L 460 467.5 L 461.5 466 Q 462.8 468.3 464 465.5 L 463.5 464 L 462 464.5 L 464.5 462 L 466 462.5 L 465 460.5 L 466.5 459 Q 467.8 461.3 469 458.5 L 468.5 457 L 467 457.5 L 468.5 456 Q 469.8 458.3 471 455.5 L 470.5 454 L 469 454.5 L 476.5 444 Q 477.8 446.3 479 443.5 L 478.5 442 L 477 442.5 L 478.5 441 Q 479.8 443.3 481 440.5 L 480.5 439 L 479 439.5 L 480.5 438 L 482 438.5 L 481 436.5 L 482.5 435 L 484 435.5 L 483 433.5 L 484.5 434 L 486 432.5 L 485.5 431 L 484 431.5 L 485.5 430 L 487 430.5 L 486 428.5 L 487.5 429 L 489 427.5 L 488.5 426 L 487 426.5 L 488.5 425 L 490 425.5 L 489 423.5 L 491.5 420 L 493 420.5 L 492 418.5 L 493.5 419 L 495 417.5 L 494.5 416 L 493 416.5 L 495.5 413 L 497 413.5 L 496 411.5 L 497.5 412 L 499 410.5 L 498.5 409 L 497 409.5 L 499.5 406 L 501 406.5 L 500 404.5 L 502 404.5 L 501 402.5 L 502.5 403 L 504 401.5 L 505 398.5 L 503 398.5 L 507.5 391 L 509 391.5 L 508 389.5 L 510 389.5 L 509 387.5 L 511 387.5 L 510 385.5 L 512 385.5 L 511 383.5 L 513 383.5 L 512 381.5 L 514 381.5 L 513 379.5 L 515 379.5 L 514 376.5 L 520.5 364 L 522 364.5 L 521 361.5 L 524.5 355 L 525.5 357 L 526 354.5 L 525 352.5 L 528 347.5 L 528 345.5 L 531 340.5 L 531 338.5 L 536.5 326 L 537.5 328 L 538 325.5 L 537 323.5 L 540 317.5 L 542 309.5 L 544 306.5 L 552 282.5 L 552 279.5 L 555 272.5 L 555 269.5 L 557 265.5 L 557 262.5 L 559 258.5 L 559 255.5 L 561 251.5 L 561 248.5 L 562 247.5 L 562 244.5 L 563 243.5 L 566 228.5 L 567 227.5 L 567 223.5 L 570 214.5 L 570 210.5 L 571 209.5 L 571 205.5 L 572 204.5 L 572 200.5 L 573 199.5 L 573 195.5 L 574 194.5 L 574 190.5 L 576 184.5 L 576 179.5 L 577 178.5 L 577 173.5 L 578 172.5 L 578 167.5 L 579 166.5 Q 577.8 161.8 580 160.5 L 580 154.5 L 581 153.5 L 582.5 140 Z M 582 155 L 581 160 L 582 160 L 582 155 Z M 581 161 L 580 167 L 581 167 L 581 161 Z M 2 162 L 1 167 L 2 167 L 2 162 Z M 3 168 L 2 174 L 3 174 L 3 168 Z M 580 168 L 579 173 L 580 173 L 580 168 Z M 579 174 L 578 178 L 579 178 L 579 174 Z M 4 175 L 3 180 L 4 180 L 4 175 Z M 578 179 L 577 184 L 578 184 L 578 179 Z M 5 181 L 4 186 L 5 186 L 5 181 Z M 577 185 L 576 189 L 577 189 L 577 185 Z M 6 187 L 5 192 L 6 192 L 6 187 Z M 576 190 L 575 195 L 576 195 L 576 190 Z M 7 193 L 6 197 L 7 197 L 7 193 Z M 575 196 L 574 200 L 575 200 L 575 196 Z M 8 198 L 7 203 L 8 203 L 8 198 Z M 574 201 L 573 205 L 574 205 L 574 201 Z M 9 204 L 8 208 L 9 208 L 9 204 Z M 573 205 L 572 209 L 573 209 L 573 205 Z M 10 209 L 9 213 L 10 213 L 10 209 Z M 572 210 L 571 214 L 572 214 L 572 210 Z M 11 214 L 10 218 L 11 218 L 11 214 Z M 571 215 L 570 219 L 571 219 L 571 215 Z M 12 218 L 11 222 L 12 222 L 12 218 Z M 570 219 L 569 223 L 570 223 L 570 219 Z M 13 223 L 12 227 L 13 227 L 13 223 Z M 569 224 L 568 227 L 569 227 L 569 224 Z M 14 228 L 13 231 L 14 231 L 14 228 Z M 568 228 L 567 231 L 568 231 L 568 228 Z M 15 232 L 14 236 L 15 236 L 15 232 Z M 567 232 L 566 235 L 567 235 L 567 232 Z M 16 236 L 15 240 L 16 240 L 16 236 Z M 566 236 L 565 239 L 566 239 L 566 236 Z M 565 240 L 564 243 L 565 243 L 565 240 Z M 17 241 L 16 244 L 17 244 L 17 241 Z M 564 244 L 563 247 L 564 247 L 564 244 Z M 18 245 L 17 248 L 18 248 L 18 245 Z M 563 248 L 562 251 L 563 251 L 563 248 Z M 19 249 L 18 252 L 19 252 L 19 249 Z M 562 252 L 561 255 L 562 255 L 562 252 Z M 20 253 L 19 256 L 20 256 L 20 253 Z M 561 255 L 560 258 L 561 258 L 561 255 Z M 21 256 L 20 259 L 21 259 L 21 256 Z M 560 259 L 559 262 L 560 262 L 560 259 Z M 22 260 L 21 263 L 22 263 L 22 260 Z M 23 264 L 22 267 L 23 267 L 23 264 Z M 558 266 L 557 269 L 558 269 L 558 266 Z M 24 267 L 23 270 L 24 270 L 24 267 Z M 557 269 L 556 272 L 557 272 L 557 269 Z M 25 271 L 24 274 L 25 274 L 25 271 Z M 556 273 L 555 276 L 556 276 L 556 273 Z M 26 274 L 25 277 L 26 277 L 26 274 Z M 555 276 L 554 279 L 555 279 L 555 276 Z M 27 278 L 26 281 L 27 281 L 27 278 Z M 554 279 L 553 282 L 554 282 L 554 279 Z M 28 281 L 27 284 L 28 284 L 28 281 Z M 29 284 L 28 287 L 29 287 L 29 284 Z M 32 294 L 31 297 L 32 297 L 32 294 Z M 33 297 L 32 300 L 33 300 L 33 297 Z M 34 300 L 33 303 L 34 303 L 34 300 Z M 35 303 L 34 306 L 35 306 L 35 303 Z M 544 309 L 543 312 L 544 312 L 544 309 Z M 40 317 L 39 320 L 40 320 L 40 317 Z M 540 320 L 539 323 L 540 323 L 540 320 Z M 46 333 L 45 336 L 46 336 L 46 333 Z M 48 338 L 47 341 L 48 341 L 48 338 Z M 143 498 L 142 500 L 144 500 Q 145 499 143 498 Z " /><path fill="rgb(0,0,0)" stroke="rgb(0,0,0)" stroke-width="1" opacity="0.00784313725490196" d="M 290.5 612 L 293 612.5 L 290.5 613 L 290.5 612 Z " /></svg>