<svg viewBox="0 0 564 640" version="1.1" xmlns="http://www.w3.org/2000/svg" desc="Created with imagetracer.js version 1.2.6" ><path fill="rgb(0,0,0)" stroke="rgb(0,0,0)" stroke-width="1" opacity="0.011764705882352941" d="M 0.5 0 L 276 0.5 L 266.5 3 L 254 12.5 L 249 19.5 L 245 30.5 L 244.5 61 L 240.5 58 L 228.5 53 L 212.5 53 L 200.5 58 L 192 65.5 L 186 75.5 L 184 81.5 L 184 87.5 Q 182.3 88.3 183 91.5 L 184 92.5 L 184 98.5 L 188 108.5 L 245 190.5 L 245 254.5 L 243.5 255 L 188 222.5 L 145 131.5 L 137.5 123 L 127.5 117 L 121.5 115 L 114.5 115 L 113.5 114 L 112.5 115 L 105.5 115 L 96.5 118 Q 88.5 122.5 83 129.5 L 79 136.5 L 77 142.5 Q 78 146.5 76 147.5 L 76 155.5 L 77 157.5 L 75.5 158 L 51.5 144 L 45.5 142 L 29.5 142 L 20.5 145 L 15.5 148 L 6 157.5 L 2 165.5 L 0.5 172 L 0.5 0 Z " /><path fill="rgb(0,0,0)" stroke="rgb(0,0,0)" stroke-width="1" opacity="0.011764705882352941" d="M 288.5 0 L 564 0.5 L 563.5 172 L 562 165.5 L 558 157.5 L 548.5 148 L 543.5 145 L 534.5 142 L 518.5 142 L 506.5 147 L 499.5 152 L 487.5 158 L 487 156.5 L 488 155.5 L 488 147.5 L 483 132.5 L 473.5 122 L 462.5 116 Q 459.3 116.8 458.5 115 L 451.5 115 L 450.5 114 L 449.5 115 L 442.5 115 L 436.5 117 L 430.5 120 L 422 127.5 L 419 131.5 L 410 149.5 L 410 151.5 L 400 170.5 L 400 172.5 L 381 210.5 L 381 212.5 L 374.5 224 L 338.5 244 L 324.5 253 L 319.5 255 L 319 190.5 L 376 108.5 L 380 98.5 L 380 92.5 Q 381.8 91.8 381 88.5 L 380 87.5 L 380 81.5 L 378 75.5 L 375 69.5 L 367.5 61 L 363.5 58 L 351.5 53 L 335.5 53 L 329.5 55 L 319.5 61 L 319 30.5 L 315 19.5 L 306.5 9 L 299.5 4 L 291.5 1 L 288.5 1 L 288.5 0 Z " /><path fill="rgb(0,0,0)" stroke="rgb(0,0,0)" stroke-width="1" opacity="0.011764705882352941" d="M 279.5 19 L 288.5 20 L 296 25.5 L 300 33.5 L 300.5 120 L 331.5 76 L 338.5 72 L 348.5 72 L 358 78.5 L 360 81.5 L 362 90.5 L 359 99.5 L 300 184.5 L 300 288.5 L 300.5 289 L 302.5 287 L 333.5 270 L 373.5 246 L 378.5 244 L 391 235.5 L 397 223.5 L 397 221.5 L 407 202.5 L 407 200.5 L 416 183.5 L 416 181.5 L 426 162.5 L 426 160.5 L 436 140.5 L 439.5 137 L 445.5 134 L 455.5 134 Q 462.3 136.3 466 141.5 L 468 145.5 L 469 153.5 Q 467.2 154.3 468 157.5 L 446 203.5 L 447.5 204 L 482.5 183 L 501.5 173 L 508.5 168 L 513.5 166 L 515.5 164 L 521.5 161 L 532.5 161 Q 538.7 163.3 542 168.5 L 545 175.5 L 545 181.5 L 543 187.5 L 536.5 194 L 464 235.5 L 467.5 237 L 478.5 237 L 479.5 238 L 491.5 238 L 492.5 239 L 514.5 240 L 522.5 243 L 527 247.5 L 530 253.5 L 530 262.5 L 528 267.5 L 521.5 274 L 516.5 276 L 503.5 276 L 502.5 275 L 491.5 275 L 490.5 274 L 478.5 274 L 477.5 273 L 466.5 273 L 465.5 272 L 453.5 272 L 452.5 271 L 441.5 271 L 440.5 270 L 428.5 270 L 427.5 269 L 416.5 269 L 415.5 268 L 407.5 268 L 319 319.5 L 319.5 321 L 346.5 336 L 353.5 341 L 358.5 343 L 360.5 345 L 365.5 347 L 367.5 349 L 372.5 351 L 386.5 360 L 391.5 362 L 405.5 371 Q 408.7 373.3 415.5 372 L 416.5 371 L 427.5 371 L 428.5 370 L 440.5 370 L 441.5 369 L 452.5 369 L 453.5 368 L 465.5 368 L 466.5 367 L 477.5 367 L 478.5 366 L 502.5 365 L 503.5 364 L 516.5 364 L 521.5 366 L 528 372.5 L 530 377.5 L 530 386.5 L 527 392.5 L 522.5 397 L 514.5 400 L 492.5 401 L 491.5 402 L 479.5 402 L 478.5 403 L 467.5 403 L 464 404.5 L 495.5 422 L 509.5 431 L 514.5 433 L 528.5 442 L 533.5 444 L 543 452.5 L 545 458.5 L 545 464.5 L 542 471.5 L 536.5 477 L 532.5 479 L 521.5 479 L 446.5 436 L 446 437.5 L 468 482.5 L 469 490.5 L 466 498.5 L 461.5 503 L 455.5 506 L 445.5 506 L 439.5 503 L 436 499.5 L 416 458.5 L 416 456.5 L 407 439.5 L 407 437.5 L 397 418.5 L 397 416.5 L 391 404.5 L 388.5 402 L 366.5 390 L 352.5 381 L 347.5 379 L 345.5 377 L 340.5 375 L 326.5 366 L 321.5 364 L 319.5 362 L 314.5 360 L 300.5 351 L 300 455.5 L 359 540.5 L 361 544.5 Q 360.3 548.7 362 550.5 L 361 551.5 L 360 558.5 L 355.5 564 L 348.5 568 L 338.5 568 L 330 562.5 L 300.5 520 L 300 606.5 L 298 611.5 L 293.5 617 L 288.5 620 L 279.5 621 L 273.5 619 L 268 614.5 L 264 606.5 L 263.5 520 L 232.5 564 L 225.5 568 L 215.5 568 L 206 561.5 L 204 558.5 L 202 549.5 L 205 540.5 L 264 455.5 L 264 351.5 L 263.5 351 L 261.5 353 L 256.5 355 L 249.5 360 L 204.5 385 L 190.5 394 L 185.5 396 L 173 404.5 L 167 416.5 L 167 418.5 L 157 437.5 L 157 439.5 L 147 458.5 L 147 460.5 L 138 477.5 L 138 479.5 L 128 499.5 L 124.5 503 L 118.5 506 L 108.5 506 Q 101.8 503.8 98 498.5 L 96 494.5 L 95 486.5 Q 96.8 485.8 96 482.5 L 101 473.5 L 101 471.5 L 111 452.5 L 111 450.5 L 118 436.5 L 116.5 436 L 81.5 457 L 62.5 467 L 55.5 472 L 50.5 474 L 48.5 476 L 42.5 479 L 31.5 479 Q 25.3 476.7 22 471.5 L 19 464.5 L 19 457.5 L 21 452.5 L 27.5 446 L 100 404.5 L 96.5 403 L 85.5 403 L 84.5 402 L 72.5 402 L 71.5 401 L 49.5 400 L 41.5 397 L 37 392.5 L 34 386.5 L 34 377.5 L 36 372.5 L 42.5 366 L 47.5 364 L 60.5 364 L 61.5 365 L 72.5 365 L 73.5 366 L 85.5 366 L 86.5 367 L 97.5 367 L 98.5 368 L 110.5 368 L 111.5 369 L 122.5 369 L 123.5 370 L 135.5 370 L 136.5 371 L 147.5 371 L 148.5 372 L 156.5 372 L 245 320.5 L 244.5 319 L 224.5 308 L 217.5 303 L 212.5 301 L 210.5 299 L 205.5 297 L 203.5 295 L 198.5 293 L 184.5 284 L 179.5 282 L 177.5 280 L 172.5 278 L 158.5 269 Q 155.3 266.7 148.5 268 L 147.5 269 L 123.5 270 L 122.5 271 L 111.5 271 L 110.5 272 L 98.5 272 L 97.5 273 L 86.5 273 L 85.5 274 L 73.5 274 L 72.5 275 L 61.5 275 L 60.5 276 L 47.5 276 L 42.5 274 L 36 267.5 L 34 262.5 L 34 253.5 L 37 247.5 L 41.5 243 L 49.5 240 L 71.5 239 L 72.5 238 L 84.5 238 L 85.5 237 L 96.5 237 L 100 235.5 L 75.5 222 L 68.5 217 L 63.5 215 L 61.5 213 L 56.5 211 L 54.5 209 L 49.5 207 L 35.5 198 L 30.5 196 L 21 187.5 L 19 182.5 L 19 175.5 L 22 168.5 L 27.5 163 L 31.5 161 L 42.5 161 L 117.5 204 L 118 202.5 L 96 157.5 L 95 149.5 L 98 141.5 L 102.5 137 L 108.5 134 L 118.5 134 L 124.5 137 L 128 140.5 L 147 179.5 L 147 181.5 L 157 200.5 L 157 202.5 L 167 221.5 L 167 223.5 L 173 235.5 L 175.5 238 L 204.5 254 L 218.5 263 L 223.5 265 L 225.5 267 L 230.5 269 L 244.5 278 L 249.5 280 L 263.5 289 L 264 184.5 L 205 99.5 L 203 95.5 Q 203.7 91.3 202 89.5 L 203 88.5 L 204 81.5 L 208.5 76 L 215.5 72 L 225.5 72 L 234 77.5 L 263.5 120 L 264 33.5 L 266 28.5 L 270.5 23 L 275.5 20 Q 278.8 20.8 279.5 19 Z " /><path fill="rgb(0,0,0)" stroke="rgb(0,0,0)" stroke-width="1" opacity="0.011764705882352941" d="M 563.5 184 L 564 454.5 L 563 454.5 L 562 448.5 L 558 440.5 L 547.5 430 L 525 417.5 L 525.5 416 Q 536.4 412.9 542 404.5 L 547 395.5 L 549 389.5 L 549 374.5 L 544 362.5 L 534.5 352 L 525.5 347 L 519.5 345 L 500.5 345 L 499.5 346 L 488.5 346 L 487.5 347 L 476.5 347 L 475.5 348 L 463.5 348 L 462.5 349 L 450.5 349 L 449.5 350 L 438.5 350 L 437.5 351 L 411.5 352 L 357 320.5 L 357.5 319 L 411.5 288 L 424.5 288 L 425.5 289 L 437.5 289 L 438.5 290 L 449.5 290 L 450.5 291 L 462.5 291 L 463.5 292 L 475.5 292 L 476.5 293 L 499.5 294 L 500.5 295 L 519.5 295 L 531.5 290 L 542 280.5 L 548 269.5 Q 547.3 266.3 549 265.5 L 549 250.5 L 544 238.5 L 534.5 228 L 525 223.5 L 525.5 222 L 548.5 209 L 558 199.5 L 562 191.5 L 563.5 184 Z " /><path fill="rgb(0,0,0)" stroke="rgb(0,0,0)" stroke-width="1" opacity="0.011764705882352941" d="M 0.5 185 L 2 191.5 L 6 199.5 L 15.5 209 L 39 222.5 L 38.5 224 Q 27.6 227.1 22 235.5 L 17 244.5 L 15 250.5 L 15 265.5 L 20 277.5 L 29.5 288 L 38.5 293 L 44.5 295 L 63.5 295 L 64.5 294 L 75.5 294 L 76.5 293 L 88.5 293 L 89.5 292 L 100.5 292 L 101.5 291 L 125.5 290 L 126.5 289 L 152.5 288 L 207 319.5 L 206.5 321 L 152.5 352 L 139.5 352 L 138.5 351 L 126.5 351 L 125.5 350 L 114.5 350 L 113.5 349 L 101.5 349 L 100.5 348 L 89.5 348 L 88.5 347 L 64.5 346 L 63.5 345 L 44.5 345 L 32.5 350 L 22 359.5 L 16 370.5 Q 16.8 373.8 15 374.5 L 15 389.5 L 20 401.5 L 29.5 412 L 39 416.5 L 38.5 418 L 16.5 430 L 10 435.5 L 6 440.5 L 2 448.5 L 0.5 455 L 0.5 185 Z " /><path fill="rgb(0,0,0)" stroke="rgb(0,0,0)" stroke-width="1" opacity="0.011764705882352941" d="M 243.5 385 L 245 385.5 L 245 449.5 L 188 531.5 L 184 541.5 L 184 547.5 Q 182.3 548.3 183 551.5 L 184 552.5 L 184 558.5 L 186 564.5 L 189 570.5 L 196.5 579 L 200.5 582 L 212.5 587 L 228.5 587 L 234.5 585 L 244.5 579 L 245 609.5 L 249 620.5 L 257.5 631 L 269.5 638 L 276 639.5 L 0.5 640 L 0 468.5 L 1 468.5 L 2 474.5 L 6 482.5 L 15.5 492 L 20.5 495 L 29.5 498 L 45.5 498 L 55.5 494 L 57.5 492 L 76.5 482 L 77 483.5 L 76 484.5 L 76 492.5 L 81 507.5 L 90.5 518 L 96.5 522 L 105.5 525 L 121.5 525 L 133.5 520 L 142 512.5 L 145 508.5 L 154 490.5 L 154 488.5 L 183 429.5 L 183 427.5 L 189.5 416 L 243.5 385 Z " /><path fill="rgb(0,0,0)" stroke="rgb(0,0,0)" stroke-width="1" opacity="0.011764705882352941" d="M 319.5 385 L 331.5 391 L 338.5 396 L 357.5 406 L 376 417.5 L 419 508.5 L 426.5 517 L 430.5 520 L 442.5 525 L 458.5 525 L 467.5 522 Q 475.5 517.5 481 510.5 L 485 503.5 L 487 497.5 Q 486 493.5 488 492.5 L 488 484.5 L 487 482.5 L 488.5 482 L 512.5 496 L 518.5 498 L 534.5 498 L 543.5 495 L 548.5 492 L 558 482.5 L 562 474.5 L 563.5 468 L 564 639.5 L 288.5 640 L 288.5 639 L 291.5 639 L 297.5 637 L 310 627.5 L 315 620.5 L 319 609.5 L 319.5 579 L 323.5 582 L 335.5 587 L 351.5 587 L 363.5 582 L 372 574.5 L 378 564.5 L 380 558.5 L 380 552.5 Q 381.8 551.8 381 548.5 L 380 547.5 L 380 541.5 L 376 531.5 L 319 449.5 L 319.5 385 Z " /><path fill="rgb(0,0,0)" stroke="rgb(0,0,0)" stroke-width="1" opacity="0.996078431372549" d="M 276.5 0 L 287.5 0 L 288.5 1 L 291.5 1 L 297.5 3 L 310 12.5 L 315 19.5 L 319 30.5 L 319.5 61 L 323.5 58 L 335.5 53 L 351.5 53 L 363.5 58 L 372 65.5 L 378 75.5 L 380 81.5 L 380 87.5 Q 381.8 88.3 381 91.5 L 380 92.5 L 380 98.5 L 376 108.5 L 319 190.5 L 319 254.5 L 320.5 255 L 376 222.5 L 419 131.5 L 426.5 123 L 436.5 117 L 442.5 115 L 449.5 115 L 450.5 114 L 451.5 115 L 458.5 115 L 467.5 118 Q 475.5 122.5 481 129.5 L 485 136.5 L 487 142.5 Q 486 146.5 488 147.5 L 488 155.5 L 487 157.5 L 488.5 158 L 512.5 144 L 518.5 142 L 534.5 142 L 543.5 145 L 548.5 148 L 558 157.5 L 562 165.5 L 563 171.5 L 564 172.5 L 564 183.5 L 563 184.5 L 562 191.5 L 558 199.5 L 548.5 209 L 525 222.5 L 525.5 224 Q 536.4 227.1 542 235.5 L 547 244.5 L 549 250.5 L 549 265.5 L 544 277.5 L 534.5 288 L 525.5 293 L 519.5 295 L 500.5 295 L 499.5 294 L 488.5 294 L 487.5 293 L 476.5 293 L 475.5 292 L 463.5 292 L 462.5 291 L 450.5 291 L 449.5 290 L 438.5 290 L 437.5 289 L 411.5 288 L 357 319.5 L 357.5 321 L 411.5 352 L 424.5 352 L 425.5 351 L 437.5 351 L 438.5 350 L 449.5 350 L 450.5 349 L 462.5 349 L 463.5 348 L 475.5 348 L 476.5 347 L 499.5 346 L 500.5 345 L 519.5 345 L 531.5 350 L 542 359.5 L 548 370.5 Q 547.3 373.8 549 374.5 L 549 389.5 L 544 401.5 L 534.5 412 L 525 416.5 L 525.5 418 L 547.5 430 L 558 440.5 L 562 448.5 L 563 454.5 L 564 455.5 L 564 467.5 L 563 468.5 L 562 474.5 L 558 482.5 L 548.5 492 L 543.5 495 L 534.5 498 L 518.5 498 L 508.5 494 L 506.5 492 L 487.5 482 L 487 483.5 L 488 484.5 L 488 492.5 L 483 507.5 L 473.5 518 L 467.5 522 L 458.5 525 L 442.5 525 L 430.5 520 L 422 512.5 L 419 508.5 L 410 490.5 L 410 488.5 L 400 469.5 L 400 467.5 L 381 429.5 L 381 427.5 L 374.5 416 L 338.5 396 L 324.5 387 L 319.5 385 L 319 449.5 L 376 531.5 L 380 541.5 L 380 547.5 Q 381.8 548.3 381 551.5 L 380 552.5 L 380 558.5 L 378 564.5 L 375 570.5 L 367.5 579 L 363.5 582 L 351.5 587 L 335.5 587 L 329.5 585 L 319.5 579 L 319 609.5 L 315 620.5 L 306.5 631 L 297.5 637 L 291.5 639 Q 288.3 638.3 287.5 640 L 276.5 640 L 275.5 639 L 269.5 638 L 261.5 634 L 254 627.5 L 249 620.5 L 245 609.5 L 244.5 579 L 240.5 582 L 228.5 587 L 212.5 587 L 200.5 582 L 192 574.5 L 186 564.5 L 184 558.5 L 184 552.5 Q 182.3 551.8 183 548.5 L 184 547.5 L 184 541.5 L 188 531.5 L 245 449.5 L 245 385.5 L 243.5 385 L 188 417.5 L 145 508.5 L 137.5 517 L 127.5 523 L 121.5 525 L 105.5 525 L 96.5 522 Q 88.5 517.5 83 510.5 L 79 503.5 L 77 497.5 Q 78 493.5 76 492.5 L 76 484.5 L 77 482.5 L 75.5 482 L 51.5 496 L 45.5 498 L 29.5 498 L 20.5 495 L 15.5 492 L 6 482.5 L 2 474.5 L 1 468.5 L 0 467.5 L 0 455.5 L 1 454.5 L 2 448.5 L 6 440.5 L 11.5 434 L 16.5 430 L 39 417.5 L 38.5 416 Q 27.6 412.9 22 404.5 L 17 395.5 L 15 389.5 L 15 374.5 L 20 362.5 L 29.5 352 L 38.5 347 L 44.5 345 L 63.5 345 L 64.5 346 L 75.5 346 L 76.5 347 L 88.5 347 L 89.5 348 L 100.5 348 L 101.5 349 L 125.5 350 L 126.5 351 L 152.5 352 L 207 320.5 L 206.5 319 L 152.5 288 L 139.5 288 L 138.5 289 L 126.5 289 L 125.5 290 L 114.5 290 L 113.5 291 L 101.5 291 L 100.5 292 L 89.5 292 L 88.5 293 L 64.5 294 L 63.5 295 L 44.5 295 L 32.5 290 L 22 280.5 L 16 269.5 Q 16.8 266.3 15 265.5 L 15 250.5 L 20 238.5 L 29.5 228 L 39 223.5 L 38.5 222 L 15.5 209 L 6 199.5 L 2 191.5 L 1 185.5 L 0 184.5 L 0 172.5 L 1 171.5 L 2 165.5 L 6 157.5 L 15.5 148 L 20.5 145 L 29.5 142 L 45.5 142 L 57.5 147 L 64.5 152 L 76.5 158 L 77 156.5 L 76 155.5 L 76 147.5 L 81 132.5 L 90.5 122 L 101.5 116 Q 104.8 116.8 105.5 115 L 112.5 115 L 113.5 114 L 114.5 115 L 121.5 115 L 127.5 117 L 133.5 120 L 142 127.5 L 145 131.5 L 154 149.5 L 154 151.5 L 183 210.5 L 183 212.5 L 189.5 224 L 225.5 244 L 239.5 253 L 244.5 255 L 245 190.5 L 188 108.5 L 184 98.5 L 184 92.5 Q 182.3 91.8 183 88.5 L 184 87.5 L 184 81.5 L 186 75.5 L 189 69.5 L 196.5 61 L 200.5 58 L 212.5 53 L 228.5 53 L 234.5 55 L 244.5 61 L 245 30.5 L 249 19.5 L 257.5 9 L 266.5 3 L 272.5 1 L 275.5 1 L 276.5 0 Z M 280 19 Q 279 21 276 20 L 271 23 L 266 29 L 264 34 L 264 120 L 234 78 L 226 72 L 216 72 L 209 76 L 204 82 L 203 89 L 202 90 Q 204 91 203 96 L 205 100 L 264 185 L 264 289 L 250 280 L 245 278 L 231 269 L 226 267 L 224 265 L 219 263 L 205 254 L 176 238 L 173 236 L 167 224 L 167 222 L 157 203 L 157 201 L 147 182 L 147 180 L 128 141 L 125 137 L 119 134 L 109 134 L 103 137 L 98 142 L 95 150 L 96 158 L 118 203 L 118 204 L 43 161 L 32 161 L 28 163 L 22 169 L 19 176 L 19 183 L 21 188 L 31 196 L 36 198 L 50 207 L 55 209 L 57 211 L 62 213 L 64 215 L 69 217 L 76 222 L 100 236 L 97 237 L 86 237 L 85 238 L 73 238 L 72 239 L 50 240 L 42 243 L 37 248 L 34 254 L 34 263 L 36 268 L 43 274 L 48 276 L 61 276 L 62 275 L 73 275 L 74 274 L 86 274 L 87 273 L 98 273 L 99 272 L 111 272 L 112 271 L 123 271 L 124 270 L 148 269 L 149 268 Q 155 267 159 269 L 173 278 L 178 280 L 180 282 L 185 284 L 199 293 L 204 295 L 206 297 L 211 299 L 213 301 L 218 303 L 225 308 L 245 319 L 245 321 L 157 372 L 149 372 L 148 371 L 137 371 L 136 370 L 124 370 L 123 369 L 112 369 L 111 368 L 99 368 L 98 367 L 87 367 L 86 366 L 74 366 L 73 365 L 62 365 L 61 364 L 48 364 L 43 366 L 36 373 L 34 378 L 34 387 L 37 393 L 42 397 L 50 400 L 72 401 L 73 402 L 85 402 L 86 403 L 97 403 L 100 405 L 28 446 L 21 453 L 19 458 L 19 465 L 22 472 Q 25 477 32 479 L 43 479 L 49 476 L 51 474 L 56 472 L 63 467 L 82 457 L 117 436 L 118 437 L 111 451 L 111 453 L 101 472 L 101 474 L 96 483 Q 97 486 95 487 L 96 495 L 98 499 Q 102 504 109 506 L 119 506 L 125 503 L 128 500 L 138 480 L 138 478 L 147 461 L 147 459 L 157 440 L 157 438 L 167 419 L 167 417 L 173 405 L 186 396 L 191 394 L 205 385 L 250 360 L 257 355 L 262 353 L 264 351 L 264 352 L 264 456 L 205 541 L 202 550 L 204 559 L 206 562 L 216 568 L 226 568 L 233 564 L 264 520 L 264 607 L 268 615 L 274 619 L 280 621 L 289 620 L 294 617 L 298 612 L 300 607 L 301 520 L 330 563 L 339 568 L 349 568 L 356 564 L 360 559 L 361 552 L 362 551 Q 360 549 361 545 L 359 541 L 300 456 L 301 351 L 315 360 L 320 362 L 322 364 L 327 366 L 341 375 L 346 377 L 348 379 L 353 381 L 367 390 L 389 402 L 391 405 L 397 417 L 397 419 L 407 438 L 407 440 L 416 457 L 416 459 L 436 500 L 440 503 L 446 506 L 456 506 L 462 503 L 466 499 L 469 491 L 468 483 L 446 438 L 447 436 L 522 479 L 533 479 L 537 477 L 542 472 L 545 465 L 545 459 L 543 453 L 534 444 L 529 442 L 515 433 L 510 431 L 496 422 L 464 405 L 468 403 L 479 403 L 480 402 L 492 402 L 493 401 L 515 400 L 523 397 L 527 393 L 530 387 L 530 378 L 528 373 L 522 366 L 517 364 L 504 364 L 503 365 L 479 366 L 478 367 L 467 367 L 466 368 L 454 368 L 453 369 L 442 369 L 441 370 L 429 370 L 428 371 L 417 371 L 416 372 Q 409 373 406 371 L 392 362 L 387 360 L 373 351 L 368 349 L 366 347 L 361 345 L 359 343 L 354 341 L 347 336 L 320 321 L 319 320 L 408 268 L 416 268 L 417 269 L 428 269 L 429 270 L 441 270 L 442 271 L 453 271 L 454 272 L 466 272 L 467 273 L 478 273 L 479 274 L 491 274 L 492 275 L 503 275 L 504 276 L 517 276 L 522 274 L 528 268 L 530 263 L 530 254 L 527 248 L 523 243 L 515 240 L 493 239 L 492 238 L 480 238 L 479 237 L 468 237 L 464 236 L 537 194 L 543 188 L 545 182 L 545 176 L 542 169 Q 539 163 533 161 L 522 161 L 516 164 L 514 166 L 509 168 L 502 173 L 483 183 L 448 204 L 446 204 L 468 158 Q 467 154 469 154 L 468 146 L 466 142 Q 462 136 456 134 L 446 134 L 440 137 L 436 141 L 426 161 L 426 163 L 416 182 L 416 184 L 407 201 L 407 203 L 397 222 L 397 224 L 391 236 L 379 244 L 374 246 L 334 270 L 303 287 L 301 289 L 300 289 L 300 185 L 359 100 L 362 91 L 360 82 L 358 79 L 349 72 L 339 72 L 332 76 L 301 120 L 300 34 L 296 26 L 289 20 L 280 19 Z " /></svg>