<svg viewBox="0 0 640 320" version="1.1" xmlns="http://www.w3.org/2000/svg" desc="Created with imagetracer.js version 1.2.6" ><path fill="rgb(0,0,0)" stroke="rgb(0,0,0)" stroke-width="1" opacity="0.00392156862745098" d="M 0.5 0 L 640 0.5 L 639.5 320 L 0 319.5 L 0.5 148 L 68 214.5 L 67 217.5 L 67 222.5 L 66 223.5 L 66 227.5 L 65 228.5 L 65 233.5 L 63 239.5 L 62 250.5 L 60 256.5 L 59 267.5 L 57 273.5 L 56 284.5 L 54 290.5 L 53 301.5 L 52 302.5 Q 52.7 306.7 51 308.5 L 52.5 308 L 136.5 265 L 161.5 278 L 163.5 280 L 176.5 286 L 178.5 288 L 191.5 294 L 193.5 296 L 204.5 301 L 206.5 303 L 219.5 309 L 220 304.5 L 219 303.5 L 219 298.5 L 218 297.5 L 218 292.5 L 217 291.5 L 217 286.5 L 216 285.5 L 216 280.5 L 215 279.5 Q 216.3 274.8 214 273.5 L 214 267.5 L 213 266.5 L 213 261.5 L 212 260.5 L 212 255.5 L 211 254.5 L 211 249.5 L 210 248.5 L 210 243.5 L 209 242.5 L 209 237.5 L 208 236.5 L 208 231.5 L 207 230.5 L 207 225.5 L 206 224.5 L 205 215.5 L 273 149.5 L 271.5 148 L 265.5 148 L 264.5 147 L 258.5 147 L 257.5 146 Q 252.7 147.2 251.5 145 L 245.5 145 L 244.5 144 Q 239.8 145.3 238.5 143 L 226.5 142 L 225.5 141 L 219.5 141 L 218.5 140 L 212.5 140 L 211.5 139 Q 206.8 140.3 205.5 138 L 199.5 138 L 198.5 137 Q 193.7 138.3 192.5 136 L 180.5 135 L 178 132.5 L 137.5 49 L 94.5 134 Q 91.3 133.3 90.5 135 L 84.5 135 L 83.5 136 L 77.5 136 L 76.5 137 L 70.5 137 L 69.5 138 L 63.5 138 L 62.5 139 L 48.5 140 L 47.5 141 L 41.5 141 L 40.5 142 L 34.5 142 L 33.5 143 L 27.5 143 L 26.5 144 L 20.5 144 L 19.5 145 L 12.5 145 L 11.5 146 L 0.5 147 L 0.5 0 Z M 636 10 L 632 12 L 625 13 L 621 15 L 614 16 L 610 18 L 603 19 L 599 21 L 592 22 L 588 24 L 581 25 L 577 27 L 570 28 L 566 30 L 559 31 L 555 33 L 548 34 L 544 36 L 537 37 L 533 39 L 526 40 L 522 42 L 515 43 L 511 45 L 504 46 L 500 48 L 493 49 L 489 51 L 482 52 L 478 54 L 471 55 L 463 58 L 460 58 L 456 60 L 449 61 L 445 63 L 442 63 L 434 66 L 427 67 L 423 69 L 416 70 L 405 74 L 398 75 L 394 77 L 387 78 L 383 80 L 376 81 L 372 83 L 365 84 L 361 86 L 354 87 L 350 89 L 343 90 L 339 92 L 332 93 L 328 95 L 321 96 L 317 98 L 310 99 L 306 101 L 299 102 L 295 104 L 288 105 L 284 107 L 277 108 L 273 110 L 266 111 L 262 113 L 255 114 L 251 116 L 244 117 L 240 119 L 233 120 L 229 122 L 226 122 L 218 125 L 208 127 L 208 128 L 223 125 L 224 124 L 228 124 L 237 121 L 240 121 L 241 120 L 245 120 L 254 117 L 257 117 L 258 116 L 262 116 L 271 113 L 274 113 L 275 112 L 279 112 L 288 109 L 292 109 L 301 106 L 304 106 L 305 105 L 309 105 L 318 102 L 321 102 L 322 101 L 326 101 L 335 98 L 338 98 L 339 97 L 343 97 L 352 94 L 355 94 L 356 93 L 360 93 L 369 90 L 372 90 L 373 89 L 377 89 L 386 86 L 390 86 L 399 83 L 402 83 L 403 82 L 407 82 L 416 79 L 419 79 L 420 78 L 424 78 L 433 75 L 436 75 L 437 74 L 441 74 L 450 71 L 453 71 L 454 70 L 458 70 L 467 67 L 470 67 L 471 66 L 475 66 L 484 63 L 487 63 L 488 62 L 492 62 L 501 59 L 505 59 L 514 56 L 517 56 L 518 55 L 522 55 L 531 52 L 534 52 L 535 51 L 539 51 L 548 48 L 551 48 L 552 47 L 556 47 L 565 44 L 568 44 L 569 43 L 573 43 L 582 40 L 585 40 L 586 39 L 594 38 L 595 37 L 596 38 L 568 84 L 562 96 L 610 123 L 612 126 L 568 165 L 564 169 L 602 207 L 602 207 Q 597 208 596 206 L 582 206 L 581 205 L 567 205 L 566 204 L 552 204 L 551 203 L 537 203 L 536 202 L 522 202 L 521 201 L 507 201 L 506 200 L 492 200 L 491 199 L 477 199 L 476 198 L 462 198 L 461 197 L 447 197 L 446 196 L 432 196 L 431 195 L 417 195 L 416 194 L 403 194 L 402 193 L 388 193 L 387 192 L 373 192 L 372 191 L 358 191 L 357 190 L 327 189 L 326 188 L 313 188 L 312 187 L 298 187 L 297 186 L 284 186 L 283 185 L 273 186 L 282 186 L 283 187 L 293 187 L 294 188 L 304 188 L 305 189 L 315 189 L 316 190 L 325 190 L 326 191 L 336 191 L 337 192 L 347 192 L 348 193 L 357 193 L 358 194 L 368 194 L 369 195 L 378 195 L 379 196 L 389 196 L 390 197 L 400 197 L 401 198 L 410 198 L 411 199 L 432 200 L 433 201 L 442 201 L 443 202 L 464 203 L 465 204 L 474 204 L 475 205 L 485 205 L 486 206 L 495 206 L 496 207 L 517 208 L 518 209 L 527 209 L 528 210 L 549 211 L 550 212 L 559 212 L 560 213 L 581 214 L 582 215 L 591 215 L 592 216 L 613 217 L 614 218 L 623 218 L 624 219 L 634 219 L 635 220 L 639 220 L 573 170 L 619 137 L 635 127 L 635 126 L 620 118 L 618 118 L 607 112 L 605 112 L 594 106 L 592 106 L 581 100 L 579 100 L 569 95 L 638 11 L 636 10 Z M 204 128 L 204 129 L 207 129 L 204 128 Z " /><path fill="rgb(0,0,0)" stroke="rgb(0,0,0)" stroke-width="1" opacity="0.00392156862745098" d="M 133.5 61 L 139 71.5 L 139 73.5 L 150 96.5 L 150 98.5 L 157 112.5 L 157 114.5 L 160 119.5 L 160 121.5 L 164 128.5 L 164 130.5 L 167.5 138 L 247 149.5 Q 224.7 175.2 200 198.5 L 188 212.5 L 189 213.5 L 189 220.5 L 190 221.5 L 190 227.5 L 191 228.5 L 191 234.5 L 192 235.5 L 192 242.5 L 193 243.5 L 193 249.5 L 194 250.5 L 194 256.5 L 195 257.5 L 195 264.5 L 196 265.5 L 196 271.5 L 197 272.5 L 198 286.5 L 199 287.5 Q 198 293 200 295.5 L 198.5 296 L 129.5 257 L 57.5 298 L 57 294.5 L 58 293.5 L 58 288.5 L 59 287.5 L 60 277.5 L 62 271.5 L 62 266.5 L 64 260.5 L 64 255.5 L 66 249.5 L 66 244.5 L 67 243.5 L 67 239.5 L 69 233.5 L 69 228.5 L 71 222.5 L 72 212.5 L 16 153.5 L 23.5 151 L 28.5 151 L 29.5 150 L 34.5 150 L 35.5 149 L 40.5 149 L 41.5 148 L 46.5 148 L 47.5 147 L 52.5 147 L 53.5 146 L 58.5 146 L 59.5 145 Q 64.3 146.3 65.5 144 L 70.5 144 L 71.5 143 L 82.5 142 L 83.5 141 L 88.5 141 Q 89.5 139 93.5 140 L 97 137.5 L 133.5 61 Z " /><path fill="rgb(0,0,0)" stroke="rgb(0,0,0)" stroke-width="1" opacity="0.9882352941176471" d="M 634.5 11 L 637 11.5 L 570 91.5 L 568 95.5 L 634 125.5 L 633.5 127 L 581.5 162 L 572 169.5 L 637 218.5 L 629.5 219 L 628.5 218 L 618.5 218 L 617.5 217 L 608.5 217 L 607.5 216 L 586.5 215 L 585.5 214 L 576.5 214 L 575.5 213 L 554.5 212 L 553.5 211 L 544.5 211 L 543.5 210 L 522.5 209 L 521.5 208 L 512.5 208 L 511.5 207 L 501.5 207 L 500.5 206 L 491.5 206 L 490.5 205 L 480.5 205 L 479.5 204 L 469.5 204 L 468.5 203 L 459.5 203 L 458.5 202 L 448.5 202 L 447.5 201 L 437.5 201 L 436.5 200 L 427.5 200 L 426.5 199 L 416.5 199 L 415.5 198 L 405.5 198 L 404.5 197 L 395.5 197 L 394.5 196 L 384.5 196 L 383.5 195 L 373.5 195 L 372.5 194 L 363.5 194 L 362.5 193 L 352.5 193 L 351.5 192 L 342.5 192 L 341.5 191 L 331.5 191 L 330.5 190 L 320 189.5 L 333.5 189 L 334.5 190 L 347.5 190 L 348.5 191 L 362.5 191 L 363.5 192 L 377.5 192 L 378.5 193 L 392.5 193 L 393.5 194 L 407.5 194 L 408.5 195 L 422.5 195 L 423.5 196 L 437.5 196 L 438.5 197 L 452.5 197 L 453.5 198 L 467.5 198 L 468.5 199 L 482.5 199 L 483.5 200 L 497.5 200 L 498.5 201 L 512.5 201 L 513.5 202 L 527.5 202 L 528.5 203 L 542.5 203 L 543.5 204 L 557.5 204 L 558.5 205 L 572.5 205 L 573.5 206 L 601.5 207 L 602 206.5 L 565 169.5 L 571.5 162 L 613 125.5 L 612.5 124 L 607.5 122 L 593.5 113 L 569.5 100 L 562 94.5 L 591 47.5 L 593 42.5 L 597 37.5 L 592.5 37 L 591.5 38 L 587.5 38 L 586.5 39 L 583.5 39 L 574.5 42 L 570.5 42 L 569.5 43 L 566.5 43 L 557.5 46 L 553.5 46 L 552.5 47 L 549.5 47 L 540.5 50 L 536.5 50 L 535.5 51 L 532.5 51 L 523.5 54 L 519.5 54 L 510.5 57 L 506.5 57 L 505.5 58 L 502.5 58 L 493.5 61 L 489.5 61 L 488.5 62 L 485.5 62 L 476.5 65 L 472.5 65 L 471.5 66 L 468.5 66 L 459.5 69 L 455.5 69 L 454.5 70 L 451.5 70 L 442.5 73 L 438.5 73 L 437.5 74 L 434.5 74 L 425.5 77 L 421.5 77 L 412.5 80 L 408.5 80 L 407.5 81 L 404.5 81 L 395.5 84 L 391.5 84 L 390.5 85 L 387.5 85 L 378.5 88 L 374.5 88 L 373.5 89 L 370.5 89 L 361.5 92 L 357.5 92 L 356.5 93 L 353.5 93 L 344.5 96 L 340.5 96 L 339.5 97 L 336.5 97 L 327.5 100 L 323.5 100 L 322.5 101 L 319.5 101 L 310.5 104 L 306.5 104 L 297.5 107 L 293.5 107 L 292.5 108 L 289.5 108 L 280.5 111 L 276.5 111 L 275.5 112 L 272.5 112 L 263.5 115 L 259.5 115 L 258.5 116 L 255.5 116 L 254.5 117 L 251.5 117 L 250.5 118 L 242.5 119 L 241.5 120 L 238.5 120 L 237.5 121 L 227.5 123 L 227.5 122 L 237.5 120 L 238.5 119 L 241.5 119 L 249.5 116 L 252.5 116 L 256.5 114 L 263.5 113 L 267.5 111 L 274.5 110 L 278.5 108 L 285.5 107 L 289.5 105 L 296.5 104 L 300.5 102 L 307.5 101 L 311.5 99 L 318.5 98 L 322.5 96 L 329.5 95 L 333.5 93 L 340.5 92 L 344.5 90 L 351.5 89 L 355.5 87 L 362.5 86 L 366.5 84 L 373.5 83 L 377.5 81 L 384.5 80 L 388.5 78 L 395.5 77 L 406.5 73 L 413.5 72 L 417.5 70 L 424.5 69 L 428.5 67 L 435.5 66 L 439.5 64 L 446.5 63 L 450.5 61 L 457.5 60 L 461.5 58 L 468.5 57 L 472.5 55 L 479.5 54 L 483.5 52 L 490.5 51 L 494.5 49 L 501.5 48 L 505.5 46 L 512.5 45 L 516.5 43 L 523.5 42 L 527.5 40 L 534.5 39 L 538.5 37 L 545.5 36 L 549.5 34 L 556.5 33 L 560.5 31 L 567.5 30 L 571.5 28 L 578.5 27 L 582.5 25 L 589.5 24 L 593.5 22 L 600.5 21 L 604.5 19 L 611.5 18 L 615.5 16 L 622.5 15 L 634.5 11 Z " /><path fill="rgb(0,0,0)" stroke="rgb(0,0,0)" stroke-width="1" opacity="0.9882352941176471" d="M 137.5 50 L 167 109.5 L 167 111.5 L 179.5 135 L 182.5 136 L 188.5 136 L 189.5 137 L 195.5 137 L 196.5 138 L 201.5 138 L 202.5 139 L 208.5 139 L 209.5 140 Q 214.3 138.8 215.5 141 L 228.5 142 L 229.5 143 Q 234.3 141.7 235.5 144 L 241.5 144 L 242.5 145 Q 247.2 143.8 248.5 146 L 261.5 147 L 262.5 148 L 267.5 148 L 272 149.5 L 204 215.5 L 205 216.5 L 205 221.5 L 206 222.5 L 206 227.5 L 207 228.5 L 207 233.5 L 208 234.5 L 208 239.5 L 209 240.5 Q 207.8 245.3 210 246.5 L 210 252.5 L 211 253.5 L 211 258.5 L 212 259.5 L 212 264.5 L 213 265.5 L 213 270.5 L 214 271.5 L 214 276.5 L 215 277.5 L 215 282.5 L 216 283.5 L 216 288.5 L 217 289.5 L 217 294.5 L 218 295.5 L 218 300.5 L 219 301.5 Q 218.2 306.3 220 308.5 L 218.5 308 L 166.5 281 L 164.5 279 L 151.5 273 L 149.5 271 L 137.5 265 L 134.5 265 L 52.5 308 L 52 305.5 L 53 304.5 L 54 293.5 L 55 292.5 L 56 282.5 L 57 281.5 L 57 276.5 L 59 270.5 L 60 259.5 L 62 253.5 L 62 248.5 L 64 242.5 L 65 231.5 L 67 225.5 L 68 214.5 L 2 147.5 L 8.5 147 L 9.5 146 L 15.5 146 L 16.5 145 L 22.5 145 L 23.5 144 L 37.5 143 L 38.5 142 L 44.5 142 L 45.5 141 L 51.5 141 L 52.5 140 L 58.5 140 L 59.5 139 L 65.5 139 L 66.5 138 L 73.5 138 L 74.5 137 L 87.5 136 Q 88.8 133.8 93.5 135 L 96 132.5 L 137.5 50 Z M 134 61 L 130 67 L 130 69 L 119 90 L 119 92 L 96 139 L 92 139 L 91 140 L 86 140 L 85 141 L 81 141 L 80 142 L 75 142 L 74 143 L 69 143 L 68 144 L 63 144 L 62 145 L 57 145 L 56 146 L 51 146 L 50 147 L 45 147 L 44 148 L 39 148 L 38 149 L 33 149 L 32 150 L 27 150 L 26 151 L 21 151 L 16 153 L 20 159 L 72 214 L 71 215 L 71 220 L 69 226 L 69 231 L 67 237 L 67 242 L 65 248 L 65 252 L 64 253 L 64 258 L 62 264 L 62 269 L 60 275 L 60 280 L 58 286 L 58 291 L 56 297 L 57 299 L 129 258 L 156 272 L 165 278 L 197 295 L 199 297 L 200 297 L 199 284 L 198 283 L 198 276 L 197 275 L 197 269 L 196 268 L 196 262 L 195 261 L 195 254 L 194 253 L 194 247 L 193 246 L 193 240 L 192 239 L 192 232 L 191 231 L 191 225 L 190 224 L 190 218 L 189 217 L 189 212 L 191 209 L 246 152 L 248 151 L 248 150 L 244 149 L 243 148 L 237 148 L 236 147 L 230 147 L 229 146 L 223 146 L 222 145 L 216 145 L 215 144 L 209 144 L 208 143 L 202 143 L 201 142 L 195 142 L 194 141 L 188 141 L 187 140 L 181 140 L 180 139 L 169 138 L 157 114 L 157 112 L 150 98 L 150 96 L 143 82 L 143 80 L 136 66 L 135 62 L 134 61 Z " /><path fill="rgb(0,0,0)" stroke="rgb(0,0,0)" stroke-width="1" opacity="0.9882352941176471" d="M 223.5 123 L 226 123.5 L 223.5 124 L 223.5 123 Z " /><path fill="rgb(0,0,0)" stroke="rgb(0,0,0)" stroke-width="1" opacity="0.9882352941176471" d="M 299.5 187 L 305 187.5 L 299.5 188 L 299.5 187 Z " /><path fill="rgb(0,0,0)" stroke="rgb(0,0,0)" stroke-width="1" opacity="0.9882352941176471" d="M 309.5 188 L 319 188.5 L 309.5 189 L 309.5 188 Z " /><path fill="rgb(0,0,0)" stroke="rgb(0,0,0)" stroke-width="1" opacity="0.7686274509803922" d="M 635.5 10 L 638 10.5 L 635.5 11 L 635.5 10 Z " /><path fill="rgb(0,0,0)" stroke="rgb(0,0,0)" stroke-width="1" opacity="0.7686274509803922" d="M 635.5 13 L 636 13.5 L 632.5 17 L 632 16.5 L 635.5 13 Z " /><path fill="rgb(0,0,0)" stroke="rgb(0,0,0)" stroke-width="1" opacity="0.7686274509803922" d="M 630.5 19 L 631 19.5 L 627.5 23 L 627 22.5 L 630.5 19 Z " /><path fill="rgb(0,0,0)" stroke="rgb(0,0,0)" stroke-width="1" opacity="0.7686274509803922" d="M 625.5 25 L 626 25.5 L 623.5 28 L 623 27.5 L 625.5 25 Z " /><path fill="rgb(0,0,0)" stroke="rgb(0,0,0)" stroke-width="1" opacity="0.7686274509803922" d="M 620.5 31 L 621 31.5 L 618.5 34 L 618 33.5 L 620.5 31 Z " /><path fill="rgb(0,0,0)" stroke="rgb(0,0,0)" stroke-width="1" opacity="0.7686274509803922" d="M 616.5 36 L 617 36.5 L 613.5 40 L 613 39.5 L 616.5 36 Z " /><path fill="rgb(0,0,0)" stroke="rgb(0,0,0)" stroke-width="1" opacity="0.7686274509803922" d="M 587.5 38 L 590 38.5 L 587.5 39 L 587.5 38 Z " /><path fill="rgb(0,0,0)" stroke="rgb(0,0,0)" stroke-width="1" opacity="0.7686274509803922" d="M 570.5 42 L 573 42.5 L 570.5 43 L 570.5 42 Z " /><path fill="rgb(0,0,0)" stroke="rgb(0,0,0)" stroke-width="1" opacity="0.7686274509803922" d="M 611.5 42 L 612 42.5 L 608.5 46 L 608 45.5 L 611.5 42 Z " /><path fill="rgb(0,0,0)" stroke="rgb(0,0,0)" stroke-width="1" opacity="0.7686274509803922" d="M 553.5 46 L 556 46.5 L 553.5 47 L 553.5 46 Z " /><path fill="rgb(0,0,0)" stroke="rgb(0,0,0)" stroke-width="1" opacity="0.7686274509803922" d="M 606.5 48 L 607 48.5 L 604.5 51 L 604 50.5 L 606.5 48 Z " /><path fill="rgb(0,0,0)" stroke="rgb(0,0,0)" stroke-width="1" opacity="0.7686274509803922" d="M 536.5 50 L 539 50.5 L 536.5 51 L 536.5 50 Z " /><path fill="rgb(0,0,0)" stroke="rgb(0,0,0)" stroke-width="1" opacity="0.7686274509803922" d="M 519.5 54 L 522 54.5 L 519.5 55 L 519.5 54 Z " /><path fill="rgb(0,0,0)" stroke="rgb(0,0,0)" stroke-width="1" opacity="0.7686274509803922" d="M 601.5 54 L 602 54.5 L 599.5 57 L 599 56.5 L 601.5 54 Z " /><path fill="rgb(0,0,0)" stroke="rgb(0,0,0)" stroke-width="1" opacity="0.7686274509803922" d="M 506.5 57 L 509 57.5 L 506.5 58 L 506.5 57 Z " /><path fill="rgb(0,0,0)" stroke="rgb(0,0,0)" stroke-width="1" opacity="0.7686274509803922" d="M 502.5 58 L 505 58.5 L 502.5 59 L 502.5 58 Z " /><path fill="rgb(0,0,0)" stroke="rgb(0,0,0)" stroke-width="1" opacity="0.7686274509803922" d="M 596.5 60 L 597 60.5 L 594.5 63 L 594 62.5 L 596.5 60 Z " /><path fill="rgb(0,0,0)" stroke="rgb(0,0,0)" stroke-width="1" opacity="0.7686274509803922" d="M 489.5 61 L 492 61.5 L 489.5 62 L 489.5 61 Z " /><path fill="rgb(0,0,0)" stroke="rgb(0,0,0)" stroke-width="1" opacity="0.7686274509803922" d="M 131.5 64 L 132 65.5 L 130.5 68 L 130 66.5 L 131.5 64 Z " /><path fill="rgb(0,0,0)" stroke="rgb(0,0,0)" stroke-width="1" opacity="0.7686274509803922" d="M 472.5 65 L 475 65.5 L 472.5 66 L 472.5 65 Z " /><path fill="rgb(0,0,0)" stroke="rgb(0,0,0)" stroke-width="1" opacity="0.7686274509803922" d="M 592.5 65 L 593 65.5 L 589.5 69 L 589 68.5 L 592.5 65 Z " /><path fill="rgb(0,0,0)" stroke="rgb(0,0,0)" stroke-width="1" opacity="0.7686274509803922" d="M 455.5 69 L 458 69.5 L 455.5 70 L 455.5 69 Z " /><path fill="rgb(0,0,0)" stroke="rgb(0,0,0)" stroke-width="1" opacity="0.7686274509803922" d="M 587.5 71 L 588 71.5 L 584.5 75 L 584 74.5 L 587.5 71 Z " /><path fill="rgb(0,0,0)" stroke="rgb(0,0,0)" stroke-width="1" opacity="0.7686274509803922" d="M 438.5 73 L 441 73.5 L 438.5 74 L 438.5 73 Z " /><path fill="rgb(0,0,0)" stroke="rgb(0,0,0)" stroke-width="1" opacity="0.7686274509803922" d="M 151.5 77 L 153 80.5 L 152 80.5 L 151.5 77 Z " /><path fill="rgb(0,0,0)" stroke="rgb(0,0,0)" stroke-width="1" opacity="0.7686274509803922" d="M 421.5 77 L 424 77.5 L 421.5 78 L 421.5 77 Z " /><path fill="rgb(0,0,0)" stroke="rgb(0,0,0)" stroke-width="1" opacity="0.7686274509803922" d="M 582.5 77 L 583 77.5 L 580.5 80 L 580 79.5 L 582.5 77 Z " /><path fill="rgb(0,0,0)" stroke="rgb(0,0,0)" stroke-width="1" opacity="0.7686274509803922" d="M 408.5 80 L 411 80.5 L 408.5 81 L 408.5 80 Z " /><path fill="rgb(0,0,0)" stroke="rgb(0,0,0)" stroke-width="1" opacity="0.7686274509803922" d="M 404.5 81 L 407 81.5 L 404.5 82 L 404.5 81 Z " /><path fill="rgb(0,0,0)" stroke="rgb(0,0,0)" stroke-width="1" opacity="0.7686274509803922" d="M 577.5 83 L 578 83.5 L 575.5 86 L 575 85.5 L 577.5 83 Z " /><path fill="rgb(0,0,0)" stroke="rgb(0,0,0)" stroke-width="1" opacity="0.7686274509803922" d="M 391.5 84 L 394 84.5 L 391.5 85 L 391.5 84 Z " /><path fill="rgb(0,0,0)" stroke="rgb(0,0,0)" stroke-width="1" opacity="0.7686274509803922" d="M 387.5 85 L 390 85.5 L 387.5 86 L 387.5 85 Z " /><path fill="rgb(0,0,0)" stroke="rgb(0,0,0)" stroke-width="1" opacity="0.7686274509803922" d="M 374.5 88 L 377 88.5 L 374.5 89 L 374.5 88 Z " /><path fill="rgb(0,0,0)" stroke="rgb(0,0,0)" stroke-width="1" opacity="0.7686274509803922" d="M 573.5 88 L 574 88.5 L 570.5 92 L 570 91.5 L 573.5 88 Z " /><path fill="rgb(0,0,0)" stroke="rgb(0,0,0)" stroke-width="1" opacity="0.7686274509803922" d="M 357.5 92 L 360 92.5 L 357.5 93 L 357.5 92 Z " /><path fill="rgb(0,0,0)" stroke="rgb(0,0,0)" stroke-width="1" opacity="0.7686274509803922" d="M 568.5 94 Q 571 95 569.5 96 L 568 95.5 L 568.5 94 Z " /><path fill="rgb(0,0,0)" stroke="rgb(0,0,0)" stroke-width="1" opacity="0.7686274509803922" d="M 340.5 96 L 343 96.5 L 340.5 97 L 340.5 96 Z " /><path fill="rgb(0,0,0)" stroke="rgb(0,0,0)" stroke-width="1" opacity="0.7686274509803922" d="M 323.5 100 L 326 100.5 L 323.5 101 L 323.5 100 Z " /><path fill="rgb(0,0,0)" stroke="rgb(0,0,0)" stroke-width="1" opacity="0.7686274509803922" d="M 306.5 104 L 309 104.5 L 306.5 105 L 306.5 104 Z " /><path fill="rgb(0,0,0)" stroke="rgb(0,0,0)" stroke-width="1" opacity="0.7686274509803922" d="M 293.5 107 L 296 107.5 L 293.5 108 L 293.5 107 Z " /><path fill="rgb(0,0,0)" stroke="rgb(0,0,0)" stroke-width="1" opacity="0.7686274509803922" d="M 289.5 108 L 292 108.5 L 289.5 109 L 289.5 108 Z " /><path fill="rgb(0,0,0)" stroke="rgb(0,0,0)" stroke-width="1" opacity="0.7686274509803922" d="M 167.5 110 L 169 113.5 L 168 113.5 L 167.5 110 Z " /><path fill="rgb(0,0,0)" stroke="rgb(0,0,0)" stroke-width="1" opacity="0.7686274509803922" d="M 276.5 111 L 279 111.5 L 276.5 112 L 276.5 111 Z " /><path fill="rgb(0,0,0)" stroke="rgb(0,0,0)" stroke-width="1" opacity="0.7686274509803922" d="M 259.5 115 L 262 115.5 L 259.5 116 L 259.5 115 Z " /><path fill="rgb(0,0,0)" stroke="rgb(0,0,0)" stroke-width="1" opacity="0.7686274509803922" d="M 240.5 118 L 245 119.5 L 242.5 120 L 240 118.5 L 240.5 118 Z " /><path fill="rgb(0,0,0)" stroke="rgb(0,0,0)" stroke-width="1" opacity="0.7686274509803922" d="M 236.5 119 L 240 120.5 L 238.5 121 L 236 119.5 L 236.5 119 Z " /><path fill="rgb(0,0,0)" stroke="rgb(0,0,0)" stroke-width="1" opacity="0.7686274509803922" d="M 232.5 120 L 236 121.5 L 234.5 122 L 232 120.5 L 232.5 120 Z " /><path fill="rgb(0,0,0)" stroke="rgb(0,0,0)" stroke-width="1" opacity="0.7686274509803922" d="M 229.5 121 L 232 122.5 L 230.5 123 Q 228 122 229.5 121 Z " /><path fill="rgb(0,0,0)" stroke="rgb(0,0,0)" stroke-width="1" opacity="0.7686274509803922" d="M 225.5 122 L 228 123.5 L 226.5 124 Q 224 123 225.5 122 Z " /><path fill="rgb(0,0,0)" stroke="rgb(0,0,0)" stroke-width="1" opacity="0.7686274509803922" d="M 221.5 123 L 223 123.5 L 222.5 125 L 221 124.5 L 221.5 123 Z " /><path fill="rgb(0,0,0)" stroke="rgb(0,0,0)" stroke-width="1" opacity="0.7686274509803922" d="M 610.5 123 L 613 124.5 L 608.5 130 L 608 129.5 L 612 125.5 L 610 123.5 L 610.5 123 Z " /><path fill="rgb(0,0,0)" stroke="rgb(0,0,0)" stroke-width="1" opacity="0.7686274509803922" d="M 218.5 124 L 220 124.5 L 218.5 126 L 203.5 129 L 203.5 128 L 206.5 128 L 218.5 124 Z " /><path fill="rgb(0,0,0)" stroke="rgb(0,0,0)" stroke-width="1" opacity="0.7686274509803922" d="M 604.5 132 L 605 132.5 L 599.5 138 L 599 137.5 L 604.5 132 Z " /><path fill="rgb(0,0,0)" stroke="rgb(0,0,0)" stroke-width="1" opacity="0.7686274509803922" d="M 91.5 134 L 94 134.5 L 91.5 135 L 91.5 134 Z " /><path fill="rgb(0,0,0)" stroke="rgb(0,0,0)" stroke-width="1" opacity="0.7686274509803922" d="M 84.5 135 L 88 135.5 L 84.5 136 L 84.5 135 Z " /><path fill="rgb(0,0,0)" stroke="rgb(0,0,0)" stroke-width="1" opacity="0.7686274509803922" d="M 182.5 135 L 186 135.5 L 182.5 136 L 182.5 135 Z " /><path fill="rgb(0,0,0)" stroke="rgb(0,0,0)" stroke-width="1" opacity="0.7686274509803922" d="M 77.5 136 L 81 136.5 L 77.5 137 L 77.5 136 Z " /><path fill="rgb(0,0,0)" stroke="rgb(0,0,0)" stroke-width="1" opacity="0.7686274509803922" d="M 189.5 136 L 193 136.5 L 189.5 137 L 189.5 136 Z " /><path fill="rgb(0,0,0)" stroke="rgb(0,0,0)" stroke-width="1" opacity="0.7686274509803922" d="M 70.5 137 L 74 137.5 L 70.5 138 L 70.5 137 Z " /><path fill="rgb(0,0,0)" stroke="rgb(0,0,0)" stroke-width="1" opacity="0.7686274509803922" d="M 196.5 137 L 199 137.5 L 196.5 138 L 196.5 137 Z " /><path fill="rgb(0,0,0)" stroke="rgb(0,0,0)" stroke-width="1" opacity="0.7686274509803922" d="M 63.5 138 L 66 138.5 L 63.5 139 L 63.5 138 Z " /><path fill="rgb(0,0,0)" stroke="rgb(0,0,0)" stroke-width="1" opacity="0.7686274509803922" d="M 170.5 138 L 173 138.5 L 170.5 139 L 170.5 138 Z " /><path fill="rgb(0,0,0)" stroke="rgb(0,0,0)" stroke-width="1" opacity="0.7686274509803922" d="M 202.5 138 L 206 138.5 L 202.5 139 L 202.5 138 Z " /><path fill="rgb(0,0,0)" stroke="rgb(0,0,0)" stroke-width="1" opacity="0.7686274509803922" d="M 55.5 139 L 59 139.5 L 55.5 140 L 55.5 139 Z " /><path fill="rgb(0,0,0)" stroke="rgb(0,0,0)" stroke-width="1" opacity="0.7686274509803922" d="M 91.5 139 L 94 139.5 L 91.5 140 L 91.5 139 Z " /><path fill="rgb(0,0,0)" stroke="rgb(0,0,0)" stroke-width="1" opacity="0.7686274509803922" d="M 177.5 139 L 180 139.5 L 177.5 140 L 177.5 139 Z " /><path fill="rgb(0,0,0)" stroke="rgb(0,0,0)" stroke-width="1" opacity="0.7686274509803922" d="M 209.5 139 L 212 139.5 L 209.5 140 L 209.5 139 Z " /><path fill="rgb(0,0,0)" stroke="rgb(0,0,0)" stroke-width="1" opacity="0.7686274509803922" d="M 48.5 140 L 52 140.5 L 48.5 141 L 48.5 140 Z " /><path fill="rgb(0,0,0)" stroke="rgb(0,0,0)" stroke-width="1" opacity="0.7686274509803922" d="M 85.5 140 L 89 140.5 L 85.5 141 L 85.5 140 Z " /><path fill="rgb(0,0,0)" stroke="rgb(0,0,0)" stroke-width="1" opacity="0.7686274509803922" d="M 184.5 140 L 187 140.5 L 184.5 141 L 184.5 140 Z " /><path fill="rgb(0,0,0)" stroke="rgb(0,0,0)" stroke-width="1" opacity="0.7686274509803922" d="M 215.5 140 L 219 140.5 L 215.5 141 L 215.5 140 Z " /><path fill="rgb(0,0,0)" stroke="rgb(0,0,0)" stroke-width="1" opacity="0.7686274509803922" d="M 595.5 140 L 596 140.5 L 590.5 146 L 590 145.5 L 595.5 140 Z " /><path fill="rgb(0,0,0)" stroke="rgb(0,0,0)" stroke-width="1" opacity="0.7686274509803922" d="M 41.5 141 L 45 141.5 L 41.5 142 L 41.5 141 Z " /><path fill="rgb(0,0,0)" stroke="rgb(0,0,0)" stroke-width="1" opacity="0.7686274509803922" d="M 80.5 141 L 83 141.5 L 80.5 142 L 80.5 141 Z " /><path fill="rgb(0,0,0)" stroke="rgb(0,0,0)" stroke-width="1" opacity="0.7686274509803922" d="M 191.5 141 L 194 141.5 L 191.5 142 L 191.5 141 Z " /><path fill="rgb(0,0,0)" stroke="rgb(0,0,0)" stroke-width="1" opacity="0.7686274509803922" d="M 222.5 141 L 226 141.5 L 222.5 142 L 222.5 141 Z " /><path fill="rgb(0,0,0)" stroke="rgb(0,0,0)" stroke-width="1" opacity="0.7686274509803922" d="M 34.5 142 L 38 142.5 L 34.5 143 L 34.5 142 Z " /><path fill="rgb(0,0,0)" stroke="rgb(0,0,0)" stroke-width="1" opacity="0.7686274509803922" d="M 74.5 142 L 77 142.5 L 74.5 143 L 74.5 142 Z " /><path fill="rgb(0,0,0)" stroke="rgb(0,0,0)" stroke-width="1" opacity="0.7686274509803922" d="M 198.5 142 L 201 142.5 L 198.5 143 L 198.5 142 Z " /><path fill="rgb(0,0,0)" stroke="rgb(0,0,0)" stroke-width="1" opacity="0.7686274509803922" d="M 229.5 142 L 232 142.5 L 229.5 143 L 229.5 142 Z " /><path fill="rgb(0,0,0)" stroke="rgb(0,0,0)" stroke-width="1" opacity="0.7686274509803922" d="M 27.5 143 L 31 143.5 L 27.5 144 L 27.5 143 Z " /><path fill="rgb(0,0,0)" stroke="rgb(0,0,0)" stroke-width="1" opacity="0.7686274509803922" d="M 68.5 143 L 71 143.5 L 68.5 144 L 68.5 143 Z " /><path fill="rgb(0,0,0)" stroke="rgb(0,0,0)" stroke-width="1" opacity="0.7686274509803922" d="M 205.5 143 L 208 143.5 L 205.5 144 L 205.5 143 Z " /><path fill="rgb(0,0,0)" stroke="rgb(0,0,0)" stroke-width="1" opacity="0.7686274509803922" d="M 235.5 143 L 239 143.5 L 235.5 144 L 235.5 143 Z " /><path fill="rgb(0,0,0)" stroke="rgb(0,0,0)" stroke-width="1" opacity="0.7686274509803922" d="M 20.5 144 L 23 144.5 L 20.5 145 L 20.5 144 Z " /><path fill="rgb(0,0,0)" stroke="rgb(0,0,0)" stroke-width="1" opacity="0.7686274509803922" d="M 62.5 144 L 65 144.5 L 62.5 145 L 62.5 144 Z " /><path fill="rgb(0,0,0)" stroke="rgb(0,0,0)" stroke-width="1" opacity="0.7686274509803922" d="M 212.5 144 L 215 144.5 L 212.5 145 L 212.5 144 Z " /><path fill="rgb(0,0,0)" stroke="rgb(0,0,0)" stroke-width="1" opacity="0.7686274509803922" d="M 242.5 144 L 245 144.5 L 242.5 145 L 242.5 144 Z " /><path fill="rgb(0,0,0)" stroke="rgb(0,0,0)" stroke-width="1" opacity="0.7686274509803922" d="M 12.5 145 L 16 145.5 L 12.5 146 L 12.5 145 Z " /><path fill="rgb(0,0,0)" stroke="rgb(0,0,0)" stroke-width="1" opacity="0.7686274509803922" d="M 56.5 145 L 59 145.5 L 56.5 146 L 56.5 145 Z " /><path fill="rgb(0,0,0)" stroke="rgb(0,0,0)" stroke-width="1" opacity="0.7686274509803922" d="M 219.5 145 L 222 145.5 L 219.5 146 L 219.5 145 Z " /><path fill="rgb(0,0,0)" stroke="rgb(0,0,0)" stroke-width="1" opacity="0.7686274509803922" d="M 248.5 145 L 252 145.5 L 248.5 146 L 248.5 145 Z " /><path fill="rgb(0,0,0)" stroke="rgb(0,0,0)" stroke-width="1" opacity="0.7686274509803922" d="M 5.5 146 L 9 146.5 L 5.5 147 L 5.5 146 Z " /><path fill="rgb(0,0,0)" stroke="rgb(0,0,0)" stroke-width="1" opacity="0.7686274509803922" d="M 50.5 146 L 53 146.5 L 50.5 147 L 50.5 146 Z " /><path fill="rgb(0,0,0)" stroke="rgb(0,0,0)" stroke-width="1" opacity="0.7686274509803922" d="M 226.5 146 L 229 146.5 L 226.5 147 L 226.5 146 Z " /><path fill="rgb(0,0,0)" stroke="rgb(0,0,0)" stroke-width="1" opacity="0.7686274509803922" d="M 255.5 146 L 258 146.5 L 255.5 147 L 255.5 146 Z " /><path fill="rgb(0,0,0)" stroke="rgb(0,0,0)" stroke-width="1" opacity="0.7686274509803922" d="M 0.5 147 L 2 147.5 L 39 185.5 L 38.5 186 L 0 147.5 L 0.5 147 Z " /><path fill="rgb(0,0,0)" stroke="rgb(0,0,0)" stroke-width="1" opacity="0.7686274509803922" d="M 44.5 147 L 47 147.5 L 44.5 148 L 44.5 147 Z " /><path fill="rgb(0,0,0)" stroke="rgb(0,0,0)" stroke-width="1" opacity="0.7686274509803922" d="M 233.5 147 L 236 147.5 L 233.5 148 L 233.5 147 Z " /><path fill="rgb(0,0,0)" stroke="rgb(0,0,0)" stroke-width="1" opacity="0.7686274509803922" d="M 262.5 147 L 265 147.5 L 262.5 148 L 262.5 147 Z " /><path fill="rgb(0,0,0)" stroke="rgb(0,0,0)" stroke-width="1" opacity="0.7686274509803922" d="M 38.5 148 L 41 148.5 L 38.5 149 L 38.5 148 Z " /><path fill="rgb(0,0,0)" stroke="rgb(0,0,0)" stroke-width="1" opacity="0.7686274509803922" d="M 240.5 148 L 243 148.5 L 240.5 149 L 240.5 148 Z " /><path fill="rgb(0,0,0)" stroke="rgb(0,0,0)" stroke-width="1" opacity="0.7686274509803922" d="M 268.5 148 Q 272.3 147.3 273 149.5 L 256.5 166 L 256 165.5 L 272 149.5 L 271.5 149 Q 267.5 149.8 268.5 148 Z " /><path fill="rgb(0,0,0)" stroke="rgb(0,0,0)" stroke-width="1" opacity="0.7686274509803922" d="M 586.5 148 L 587 148.5 L 581.5 154 L 581 153.5 L 586.5 148 Z " /><path fill="rgb(0,0,0)" stroke="rgb(0,0,0)" stroke-width="1" opacity="0.7686274509803922" d="M 32.5 149 L 35 149.5 L 32.5 150 L 32.5 149 Z " /><path fill="rgb(0,0,0)" stroke="rgb(0,0,0)" stroke-width="1" opacity="0.7686274509803922" d="M 26.5 150 L 29 150.5 L 26.5 151 L 26.5 150 Z " /><path fill="rgb(0,0,0)" stroke="rgb(0,0,0)" stroke-width="1" opacity="0.7686274509803922" d="M 20.5 151 L 23 151.5 L 20.5 152 L 20.5 151 Z " /><path fill="rgb(0,0,0)" stroke="rgb(0,0,0)" stroke-width="1" opacity="0.7686274509803922" d="M 245.5 152 L 246 152.5 L 228.5 170 L 228 169.5 L 245.5 152 Z " /><path fill="rgb(0,0,0)" stroke="rgb(0,0,0)" stroke-width="1" opacity="0.7686274509803922" d="M 576.5 157 L 577 157.5 L 572.5 162 L 572 161.5 L 576.5 157 Z " /><path fill="rgb(0,0,0)" stroke="rgb(0,0,0)" stroke-width="1" opacity="0.7686274509803922" d="M 20.5 158 L 32 169.5 L 31.5 170 L 20 158.5 L 20.5 158 Z " /><path fill="rgb(0,0,0)" stroke="rgb(0,0,0)" stroke-width="1" opacity="0.7686274509803922" d="M 567.5 165 L 568 165.5 L 564.5 169 L 564 168.5 L 567.5 165 Z " /><path fill="rgb(0,0,0)" stroke="rgb(0,0,0)" stroke-width="1" opacity="0.7686274509803922" d="M 574.5 167 L 575 167.5 L 573 169.5 L 573.5 171 L 572 169.5 L 574.5 167 Z " /><path fill="rgb(0,0,0)" stroke="rgb(0,0,0)" stroke-width="1" opacity="0.7686274509803922" d="M 245.5 175 L 246 175.5 L 226.5 195 L 226 194.5 L 245.5 175 Z " /><path fill="rgb(0,0,0)" stroke="rgb(0,0,0)" stroke-width="1" opacity="0.7686274509803922" d="M 37.5 176 L 48 186.5 L 47.5 187 L 37 176.5 L 37.5 176 Z " /><path fill="rgb(0,0,0)" stroke="rgb(0,0,0)" stroke-width="1" opacity="0.7686274509803922" d="M 218.5 180 L 219 180.5 L 200.5 199 L 200 198.5 L 218.5 180 Z " /><path fill="rgb(0,0,0)" stroke="rgb(0,0,0)" stroke-width="1" opacity="0.7686274509803922" d="M 273.5 185 L 282.5 185 L 283.5 186 L 296.5 186 L 299 187.5 L 293.5 188 L 292.5 187 L 273.5 186 L 273.5 185 Z " /><path fill="rgb(0,0,0)" stroke="rgb(0,0,0)" stroke-width="1" opacity="0.7686274509803922" d="M 305.5 187 L 312 187.5 L 308.5 189 L 304.5 189 Q 303 188 305.5 187 Z " /><path fill="rgb(0,0,0)" stroke="rgb(0,0,0)" stroke-width="1" opacity="0.7686274509803922" d="M 319.5 188 L 326 188.5 L 315.5 190 L 315.5 189 Q 318.8 189.8 319.5 188 Z " /><path fill="rgb(0,0,0)" stroke="rgb(0,0,0)" stroke-width="1" opacity="0.7686274509803922" d="M 334.5 189 L 341 189.5 L 334.5 190 L 334.5 189 Z " /><path fill="rgb(0,0,0)" stroke="rgb(0,0,0)" stroke-width="1" opacity="0.7686274509803922" d="M 325.5 190 L 331 190.5 L 325.5 191 L 325.5 190 Z " /><path fill="rgb(0,0,0)" stroke="rgb(0,0,0)" stroke-width="1" opacity="0.7686274509803922" d="M 348.5 190 L 357 190.5 L 348.5 191 L 348.5 190 Z " /><path fill="rgb(0,0,0)" stroke="rgb(0,0,0)" stroke-width="1" opacity="0.7686274509803922" d="M 336.5 191 L 342 191.5 L 336.5 192 L 336.5 191 Z " /><path fill="rgb(0,0,0)" stroke="rgb(0,0,0)" stroke-width="1" opacity="0.7686274509803922" d="M 363.5 191 L 372 191.5 L 363.5 192 L 363.5 191 Z " /><path fill="rgb(0,0,0)" stroke="rgb(0,0,0)" stroke-width="1" opacity="0.7686274509803922" d="M 347.5 192 L 352 192.5 L 347.5 193 L 347.5 192 Z " /><path fill="rgb(0,0,0)" stroke="rgb(0,0,0)" stroke-width="1" opacity="0.7686274509803922" d="M 378.5 192 L 387 192.5 L 378.5 193 L 378.5 192 Z " /><path fill="rgb(0,0,0)" stroke="rgb(0,0,0)" stroke-width="1" opacity="0.7686274509803922" d="M 357.5 193 L 363 193.5 L 357.5 194 L 357.5 193 Z " /><path fill="rgb(0,0,0)" stroke="rgb(0,0,0)" stroke-width="1" opacity="0.7686274509803922" d="M 393.5 193 L 402 193.5 L 393.5 194 L 393.5 193 Z " /><path fill="rgb(0,0,0)" stroke="rgb(0,0,0)" stroke-width="1" opacity="0.7686274509803922" d="M 54.5 194 L 65 204.5 L 64.5 205 L 54 194.5 L 54.5 194 Z " /><path fill="rgb(0,0,0)" stroke="rgb(0,0,0)" stroke-width="1" opacity="0.7686274509803922" d="M 368.5 194 L 373 194.5 L 368.5 195 L 368.5 194 Z " /><path fill="rgb(0,0,0)" stroke="rgb(0,0,0)" stroke-width="1" opacity="0.7686274509803922" d="M 408.5 194 L 416 194.5 L 408.5 195 L 408.5 194 Z " /><path fill="rgb(0,0,0)" stroke="rgb(0,0,0)" stroke-width="1" opacity="0.7686274509803922" d="M 378.5 195 L 384 195.5 L 378.5 196 L 378.5 195 Z " /><path fill="rgb(0,0,0)" stroke="rgb(0,0,0)" stroke-width="1" opacity="0.7686274509803922" d="M 423.5 195 L 431 195.5 L 423.5 196 L 423.5 195 Z " /><path fill="rgb(0,0,0)" stroke="rgb(0,0,0)" stroke-width="1" opacity="0.7686274509803922" d="M 389.5 196 L 395 196.5 L 389.5 197 L 389.5 196 Z " /><path fill="rgb(0,0,0)" stroke="rgb(0,0,0)" stroke-width="1" opacity="0.7686274509803922" d="M 438.5 196 L 446 196.5 L 438.5 197 L 438.5 196 Z " /><path fill="rgb(0,0,0)" stroke="rgb(0,0,0)" stroke-width="1" opacity="0.7686274509803922" d="M 400.5 197 L 405 197.5 L 400.5 198 L 400.5 197 Z " /><path fill="rgb(0,0,0)" stroke="rgb(0,0,0)" stroke-width="1" opacity="0.7686274509803922" d="M 453.5 197 L 461 197.5 L 453.5 198 L 453.5 197 Z " /><path fill="rgb(0,0,0)" stroke="rgb(0,0,0)" stroke-width="1" opacity="0.7686274509803922" d="M 410.5 198 L 416 198.5 L 410.5 199 L 410.5 198 Z " /><path fill="rgb(0,0,0)" stroke="rgb(0,0,0)" stroke-width="1" opacity="0.7686274509803922" d="M 468.5 198 L 476 198.5 L 468.5 199 L 468.5 198 Z " /><path fill="rgb(0,0,0)" stroke="rgb(0,0,0)" stroke-width="1" opacity="0.7686274509803922" d="M 421.5 199 L 427 199.5 L 421.5 200 L 421.5 199 Z " /><path fill="rgb(0,0,0)" stroke="rgb(0,0,0)" stroke-width="1" opacity="0.7686274509803922" d="M 483.5 199 L 491 199.5 L 483.5 200 L 483.5 199 Z " /><path fill="rgb(0,0,0)" stroke="rgb(0,0,0)" stroke-width="1" opacity="0.7686274509803922" d="M 432.5 200 L 437 200.5 L 432.5 201 L 432.5 200 Z " /><path fill="rgb(0,0,0)" stroke="rgb(0,0,0)" stroke-width="1" opacity="0.7686274509803922" d="M 498.5 200 L 506 200.5 L 498.5 201 L 498.5 200 Z " /><path fill="rgb(0,0,0)" stroke="rgb(0,0,0)" stroke-width="1" opacity="0.7686274509803922" d="M 442.5 201 L 448 201.5 L 442.5 202 L 442.5 201 Z " /><path fill="rgb(0,0,0)" stroke="rgb(0,0,0)" stroke-width="1" opacity="0.7686274509803922" d="M 513.5 201 L 521 201.5 L 513.5 202 L 513.5 201 Z " /><path fill="rgb(0,0,0)" stroke="rgb(0,0,0)" stroke-width="1" opacity="0.7686274509803922" d="M 453.5 202 L 459 202.5 L 453.5 203 L 453.5 202 Z " /><path fill="rgb(0,0,0)" stroke="rgb(0,0,0)" stroke-width="1" opacity="0.7686274509803922" d="M 528.5 202 L 536 202.5 L 528.5 203 L 528.5 202 Z " /><path fill="rgb(0,0,0)" stroke="rgb(0,0,0)" stroke-width="1" opacity="0.7686274509803922" d="M 464.5 203 L 469 203.5 L 464.5 204 L 464.5 203 Z " /><path fill="rgb(0,0,0)" stroke="rgb(0,0,0)" stroke-width="1" opacity="0.7686274509803922" d="M 543.5 203 L 551 203.5 L 543.5 204 L 543.5 203 Z " /><path fill="rgb(0,0,0)" stroke="rgb(0,0,0)" stroke-width="1" opacity="0.7686274509803922" d="M 215.5 204 L 216 204.5 L 204.5 216 L 204 215.5 L 215.5 204 Z " /><path fill="rgb(0,0,0)" stroke="rgb(0,0,0)" stroke-width="1" opacity="0.7686274509803922" d="M 474.5 204 L 480 204.5 L 474.5 205 L 474.5 204 Z " /><path fill="rgb(0,0,0)" stroke="rgb(0,0,0)" stroke-width="1" opacity="0.7686274509803922" d="M 558.5 204 L 566 204.5 L 558.5 205 L 558.5 204 Z " /><path fill="rgb(0,0,0)" stroke="rgb(0,0,0)" stroke-width="1" opacity="0.7686274509803922" d="M 485.5 205 L 491 205.5 L 485.5 206 L 485.5 205 Z " /><path fill="rgb(0,0,0)" stroke="rgb(0,0,0)" stroke-width="1" opacity="0.7686274509803922" d="M 573.5 205 L 581 205.5 L 573.5 206 L 573.5 205 Z " /><path fill="rgb(0,0,0)" stroke="rgb(0,0,0)" stroke-width="1" opacity="0.7686274509803922" d="M 495.5 206 L 501 206.5 L 495.5 207 L 495.5 206 Z " /><path fill="rgb(0,0,0)" stroke="rgb(0,0,0)" stroke-width="1" opacity="0.7686274509803922" d="M 588.5 206 L 596 206.5 L 588.5 207 L 588.5 206 Z " /><path fill="rgb(0,0,0)" stroke="rgb(0,0,0)" stroke-width="1" opacity="0.7686274509803922" d="M 506.5 207 L 512 207.5 L 506.5 208 L 506.5 207 Z " /><path fill="rgb(0,0,0)" stroke="rgb(0,0,0)" stroke-width="1" opacity="0.7686274509803922" d="M 517.5 208 L 522 208.5 L 517.5 209 L 517.5 208 Z " /><path fill="rgb(0,0,0)" stroke="rgb(0,0,0)" stroke-width="1" opacity="0.7686274509803922" d="M 190.5 209 L 191 209.5 L 189 211.5 L 188.5 213 L 188 211.5 L 190.5 209 Z " /><path fill="rgb(0,0,0)" stroke="rgb(0,0,0)" stroke-width="1" opacity="0.7686274509803922" d="M 527.5 209 L 533 209.5 L 527.5 210 L 527.5 209 Z " /><path fill="rgb(0,0,0)" stroke="rgb(0,0,0)" stroke-width="1" opacity="0.7686274509803922" d="M 538.5 210 L 544 210.5 L 538.5 211 L 538.5 210 Z " /><path fill="rgb(0,0,0)" stroke="rgb(0,0,0)" stroke-width="1" opacity="0.7686274509803922" d="M 549.5 211 L 554 211.5 L 549.5 212 L 549.5 211 Z " /><path fill="rgb(0,0,0)" stroke="rgb(0,0,0)" stroke-width="1" opacity="0.7686274509803922" d="M 559.5 212 L 565 212.5 L 559.5 213 L 559.5 212 Z " /><path fill="rgb(0,0,0)" stroke="rgb(0,0,0)" stroke-width="1" opacity="0.7686274509803922" d="M 570.5 213 L 576 213.5 L 570.5 214 L 570.5 213 Z " /><path fill="rgb(0,0,0)" stroke="rgb(0,0,0)" stroke-width="1" opacity="0.7686274509803922" d="M 71.5 214 L 72 216.5 L 71 216.5 L 71.5 214 Z " /><path fill="rgb(0,0,0)" stroke="rgb(0,0,0)" stroke-width="1" opacity="0.7686274509803922" d="M 581.5 214 L 586 214.5 L 581.5 215 L 581.5 214 Z " /><path fill="rgb(0,0,0)" stroke="rgb(0,0,0)" stroke-width="1" opacity="0.7686274509803922" d="M 591.5 215 L 597 215.5 L 591.5 216 L 591.5 215 Z " /><path fill="rgb(0,0,0)" stroke="rgb(0,0,0)" stroke-width="1" opacity="0.7686274509803922" d="M 602.5 216 L 608 216.5 L 602.5 217 L 602.5 216 Z " /><path fill="rgb(0,0,0)" stroke="rgb(0,0,0)" stroke-width="1" opacity="0.7686274509803922" d="M 67.5 217 L 68 219.5 L 67 219.5 L 67.5 217 Z " /><path fill="rgb(0,0,0)" stroke="rgb(0,0,0)" stroke-width="1" opacity="0.7686274509803922" d="M 189.5 217 L 190 220.5 L 189 220.5 L 189.5 217 Z " /><path fill="rgb(0,0,0)" stroke="rgb(0,0,0)" stroke-width="1" opacity="0.7686274509803922" d="M 613.5 217 L 618 217.5 L 613.5 218 L 613.5 217 Z " /><path fill="rgb(0,0,0)" stroke="rgb(0,0,0)" stroke-width="1" opacity="0.7686274509803922" d="M 636.5 217 L 639 219.5 L 638.5 220 L 634 219.5 L 637 218.5 L 636.5 217 Z " /><path fill="rgb(0,0,0)" stroke="rgb(0,0,0)" stroke-width="1" opacity="0.7686274509803922" d="M 623.5 218 L 629 218.5 L 623.5 219 L 623.5 218 Z " /><path fill="rgb(0,0,0)" stroke="rgb(0,0,0)" stroke-width="1" opacity="0.7686274509803922" d="M 205.5 219 L 206 221.5 L 205 221.5 L 205.5 219 Z " /><path fill="rgb(0,0,0)" stroke="rgb(0,0,0)" stroke-width="1" opacity="0.7686274509803922" d="M 70.5 220 L 71 222.5 L 70 222.5 L 70.5 220 Z " /><path fill="rgb(0,0,0)" stroke="rgb(0,0,0)" stroke-width="1" opacity="0.7686274509803922" d="M 66.5 223 L 67 225.5 L 66 225.5 L 66.5 223 Z " /><path fill="rgb(0,0,0)" stroke="rgb(0,0,0)" stroke-width="1" opacity="0.7686274509803922" d="M 190.5 224 L 191 227.5 L 190 227.5 L 190.5 224 Z " /><path fill="rgb(0,0,0)" stroke="rgb(0,0,0)" stroke-width="1" opacity="0.7686274509803922" d="M 69.5 225 L 70 227.5 L 69 227.5 L 69.5 225 Z " /><path fill="rgb(0,0,0)" stroke="rgb(0,0,0)" stroke-width="1" opacity="0.7686274509803922" d="M 206.5 225 L 207 227.5 L 206 227.5 L 206.5 225 Z " /><path fill="rgb(0,0,0)" stroke="rgb(0,0,0)" stroke-width="1" opacity="0.7686274509803922" d="M 65.5 228 L 66 230.5 L 65 230.5 L 65.5 228 Z " /><path fill="rgb(0,0,0)" stroke="rgb(0,0,0)" stroke-width="1" opacity="0.7686274509803922" d="M 68.5 231 L 69 233.5 L 68 233.5 L 68.5 231 Z " /><path fill="rgb(0,0,0)" stroke="rgb(0,0,0)" stroke-width="1" opacity="0.7686274509803922" d="M 191.5 231 L 192 234.5 L 191 234.5 L 191.5 231 Z " /><path fill="rgb(0,0,0)" stroke="rgb(0,0,0)" stroke-width="1" opacity="0.7686274509803922" d="M 207.5 231 L 208 233.5 L 207 233.5 L 207.5 231 Z " /><path fill="rgb(0,0,0)" stroke="rgb(0,0,0)" stroke-width="1" opacity="0.7686274509803922" d="M 64.5 234 L 65 236.5 L 64 236.5 L 64.5 234 Z " /><path fill="rgb(0,0,0)" stroke="rgb(0,0,0)" stroke-width="1" opacity="0.7686274509803922" d="M 67.5 236 L 68 238.5 L 67 238.5 L 67.5 236 Z " /><path fill="rgb(0,0,0)" stroke="rgb(0,0,0)" stroke-width="1" opacity="0.7686274509803922" d="M 208.5 237 L 209 239.5 L 208 239.5 L 208.5 237 Z " /><path fill="rgb(0,0,0)" stroke="rgb(0,0,0)" stroke-width="1" opacity="0.7686274509803922" d="M 63.5 239 L 64 242.5 L 63 242.5 L 63.5 239 Z " /><path fill="rgb(0,0,0)" stroke="rgb(0,0,0)" stroke-width="1" opacity="0.7686274509803922" d="M 192.5 239 L 193 242.5 L 192 242.5 L 192.5 239 Z " /><path fill="rgb(0,0,0)" stroke="rgb(0,0,0)" stroke-width="1" opacity="0.7686274509803922" d="M 209.5 243 L 210 245.5 L 209 245.5 L 209.5 243 Z " /><path fill="rgb(0,0,0)" stroke="rgb(0,0,0)" stroke-width="1" opacity="0.7686274509803922" d="M 62.5 245 L 63 247.5 L 62 247.5 L 62.5 245 Z " /><path fill="rgb(0,0,0)" stroke="rgb(0,0,0)" stroke-width="1" opacity="0.7686274509803922" d="M 193.5 246 L 194 249.5 L 193 249.5 L 193.5 246 Z " /><path fill="rgb(0,0,0)" stroke="rgb(0,0,0)" stroke-width="1" opacity="0.7686274509803922" d="M 65.5 247 L 66 249.5 L 65 249.5 L 65.5 247 Z " /><path fill="rgb(0,0,0)" stroke="rgb(0,0,0)" stroke-width="1" opacity="0.7686274509803922" d="M 210.5 249 L 211 252.5 L 210 252.5 L 210.5 249 Z " /><path fill="rgb(0,0,0)" stroke="rgb(0,0,0)" stroke-width="1" opacity="0.7686274509803922" d="M 61.5 251 L 62 253.5 L 61 253.5 L 61.5 251 Z " /><path fill="rgb(0,0,0)" stroke="rgb(0,0,0)" stroke-width="1" opacity="0.7686274509803922" d="M 64.5 252 L 65 254.5 L 64 254.5 L 64.5 252 Z " /><path fill="rgb(0,0,0)" stroke="rgb(0,0,0)" stroke-width="1" opacity="0.7686274509803922" d="M 194.5 253 L 195 256.5 L 194 256.5 L 194.5 253 Z " /><path fill="rgb(0,0,0)" stroke="rgb(0,0,0)" stroke-width="1" opacity="0.7686274509803922" d="M 211.5 255 L 212 258.5 L 211 258.5 L 211.5 255 Z " /><path fill="rgb(0,0,0)" stroke="rgb(0,0,0)" stroke-width="1" opacity="0.7686274509803922" d="M 60.5 256 L 61 258.5 L 60 258.5 L 60.5 256 Z " /><path fill="rgb(0,0,0)" stroke="rgb(0,0,0)" stroke-width="1" opacity="0.7686274509803922" d="M 129.5 257 L 133 259.5 L 131.5 259 Q 127.7 258.3 129.5 257 Z " /><path fill="rgb(0,0,0)" stroke="rgb(0,0,0)" stroke-width="1" opacity="0.7686274509803922" d="M 63.5 258 L 64 260.5 L 63 260.5 L 63.5 258 Z " /><path fill="rgb(0,0,0)" stroke="rgb(0,0,0)" stroke-width="1" opacity="0.7686274509803922" d="M 195.5 261 L 196 264.5 L 195 264.5 L 195.5 261 Z " /><path fill="rgb(0,0,0)" stroke="rgb(0,0,0)" stroke-width="1" opacity="0.7686274509803922" d="M 212.5 261 L 213 264.5 L 212 264.5 L 212.5 261 Z " /><path fill="rgb(0,0,0)" stroke="rgb(0,0,0)" stroke-width="1" opacity="0.7686274509803922" d="M 59.5 262 L 60 264.5 L 59 264.5 L 59.5 262 Z " /><path fill="rgb(0,0,0)" stroke="rgb(0,0,0)" stroke-width="1" opacity="0.7686274509803922" d="M 62.5 263 L 63 265.5 L 62 265.5 L 62.5 263 Z " /><path fill="rgb(0,0,0)" stroke="rgb(0,0,0)" stroke-width="1" opacity="0.7686274509803922" d="M 213.5 267 L 214 270.5 L 213 270.5 L 213.5 267 Z " /><path fill="rgb(0,0,0)" stroke="rgb(0,0,0)" stroke-width="1" opacity="0.7686274509803922" d="M 58.5 268 L 59 270.5 L 58 270.5 L 58.5 268 Z " /><path fill="rgb(0,0,0)" stroke="rgb(0,0,0)" stroke-width="1" opacity="0.7686274509803922" d="M 196.5 268 L 197 271.5 L 196 271.5 L 196.5 268 Z " /><path fill="rgb(0,0,0)" stroke="rgb(0,0,0)" stroke-width="1" opacity="0.7686274509803922" d="M 61.5 269 L 62 271.5 L 61 271.5 L 61.5 269 Z " /><path fill="rgb(0,0,0)" stroke="rgb(0,0,0)" stroke-width="1" opacity="0.7686274509803922" d="M 147.5 270 L 151 272.5 L 149.5 272 Q 145.7 271.3 147.5 270 Z " /><path fill="rgb(0,0,0)" stroke="rgb(0,0,0)" stroke-width="1" opacity="0.7686274509803922" d="M 120.5 272 Q 122 273 119.5 274 L 117.5 275 Q 116 274 118.5 273 L 120.5 272 Z " /><path fill="rgb(0,0,0)" stroke="rgb(0,0,0)" stroke-width="1" opacity="0.7686274509803922" d="M 57.5 273 L 58 275.5 L 57 275.5 L 57.5 273 Z " /><path fill="rgb(0,0,0)" stroke="rgb(0,0,0)" stroke-width="1" opacity="0.7686274509803922" d="M 60.5 274 L 61 276.5 L 60 276.5 L 60.5 274 Z " /><path fill="rgb(0,0,0)" stroke="rgb(0,0,0)" stroke-width="1" opacity="0.7686274509803922" d="M 214.5 274 L 215 276.5 L 214 276.5 L 214.5 274 Z " /><path fill="rgb(0,0,0)" stroke="rgb(0,0,0)" stroke-width="1" opacity="0.7686274509803922" d="M 197.5 275 L 198 278.5 L 197 278.5 L 197.5 275 Z " /><path fill="rgb(0,0,0)" stroke="rgb(0,0,0)" stroke-width="1" opacity="0.7686274509803922" d="M 162.5 278 L 166 280.5 L 164.5 280 Q 160.7 279.3 162.5 278 Z " /><path fill="rgb(0,0,0)" stroke="rgb(0,0,0)" stroke-width="1" opacity="0.7686274509803922" d="M 56.5 279 L 57 281.5 L 56 281.5 L 56.5 279 Z " /><path fill="rgb(0,0,0)" stroke="rgb(0,0,0)" stroke-width="1" opacity="0.7686274509803922" d="M 59.5 280 L 60 282.5 L 59 282.5 L 59.5 280 Z " /><path fill="rgb(0,0,0)" stroke="rgb(0,0,0)" stroke-width="1" opacity="0.7686274509803922" d="M 215.5 280 L 216 282.5 L 215 282.5 L 215.5 280 Z " /><path fill="rgb(0,0,0)" stroke="rgb(0,0,0)" stroke-width="1" opacity="0.7686274509803922" d="M 198.5 283 L 199 286.5 L 198 286.5 L 198.5 283 Z " /><path fill="rgb(0,0,0)" stroke="rgb(0,0,0)" stroke-width="1" opacity="0.7686274509803922" d="M 55.5 285 L 56 287.5 L 55 287.5 L 55.5 285 Z " /><path fill="rgb(0,0,0)" stroke="rgb(0,0,0)" stroke-width="1" opacity="0.7686274509803922" d="M 58.5 285 L 59 287.5 L 58 287.5 L 58.5 285 Z " /><path fill="rgb(0,0,0)" stroke="rgb(0,0,0)" stroke-width="1" opacity="0.7686274509803922" d="M 95.5 285 Q 97 286 94.5 287 L 92.5 288 Q 91 287 93.5 286 L 95.5 285 Z " /><path fill="rgb(0,0,0)" stroke="rgb(0,0,0)" stroke-width="1" opacity="0.7686274509803922" d="M 177.5 286 L 181 288.5 L 179.5 288 Q 175.7 287.3 177.5 286 Z " /><path fill="rgb(0,0,0)" stroke="rgb(0,0,0)" stroke-width="1" opacity="0.7686274509803922" d="M 216.5 286 L 217 288.5 L 216 288.5 L 216.5 286 Z " /><path fill="rgb(0,0,0)" stroke="rgb(0,0,0)" stroke-width="1" opacity="0.7686274509803922" d="M 54.5 290 L 55 292.5 L 54 292.5 L 54.5 290 Z " /><path fill="rgb(0,0,0)" stroke="rgb(0,0,0)" stroke-width="1" opacity="0.7686274509803922" d="M 188.5 290 L 192 292.5 Q 191 295 190 293.5 L 190.5 292 L 188.5 293 L 188.5 290 Z " /><path fill="rgb(0,0,0)" stroke="rgb(0,0,0)" stroke-width="1" opacity="0.7686274509803922" d="M 199.5 290 L 200 293.5 L 199 293.5 L 199.5 290 Z " /><path fill="rgb(0,0,0)" stroke="rgb(0,0,0)" stroke-width="1" opacity="0.7686274509803922" d="M 57.5 291 L 58 293.5 L 57 293.5 L 57.5 291 Z " /><path fill="rgb(0,0,0)" stroke="rgb(0,0,0)" stroke-width="1" opacity="0.7686274509803922" d="M 217.5 292 L 218 294.5 L 217 294.5 L 217.5 292 Z " /><path fill="rgb(0,0,0)" stroke="rgb(0,0,0)" stroke-width="1" opacity="0.7686274509803922" d="M 197.5 295 L 200 296.5 L 197.5 298 L 197.5 295 Z " /><path fill="rgb(0,0,0)" stroke="rgb(0,0,0)" stroke-width="1" opacity="0.7686274509803922" d="M 53.5 296 L 54 298.5 L 53 298.5 L 53.5 296 Z " /><path fill="rgb(0,0,0)" stroke="rgb(0,0,0)" stroke-width="1" opacity="0.7686274509803922" d="M 56.5 296 L 58 298.5 L 56.5 299 L 56.5 296 Z " /><path fill="rgb(0,0,0)" stroke="rgb(0,0,0)" stroke-width="1" opacity="0.7686274509803922" d="M 70.5 298 Q 72 299 69.5 300 L 67.5 301 Q 66 300 68.5 299 L 70.5 298 Z " /><path fill="rgb(0,0,0)" stroke="rgb(0,0,0)" stroke-width="1" opacity="0.7686274509803922" d="M 218.5 298 L 219 300.5 L 218 300.5 L 218.5 298 Z " /><path fill="rgb(0,0,0)" stroke="rgb(0,0,0)" stroke-width="1" opacity="0.7686274509803922" d="M 205.5 301 L 209 303.5 L 207.5 303 Q 203.7 302.3 205.5 301 Z " /><path fill="rgb(0,0,0)" stroke="rgb(0,0,0)" stroke-width="1" opacity="0.7686274509803922" d="M 52.5 302 L 53 304.5 L 52 304.5 L 52.5 302 Z " /><path fill="rgb(0,0,0)" stroke="rgb(0,0,0)" stroke-width="1" opacity="0.7686274509803922" d="M 219.5 304 L 220 306.5 L 219 306.5 L 219.5 304 Z " /></svg>