<svg viewBox="0 0 640 639" version="1.1" xmlns="http://www.w3.org/2000/svg" desc="Created with imagetracer.js version 1.2.6" ><path fill="rgb(0,0,0)" stroke="rgb(0,0,0)" stroke-width="1" opacity="0.984313725490196" d="M 318.5 3 L 320 5.5 L 320 13.5 L 321 14.5 L 321 21.5 L 322 22.5 L 322 30.5 L 323 31.5 L 323 39.5 L 324 40.5 L 324 47.5 L 325 48.5 L 325 56.5 L 326 57.5 L 327 73.5 L 328 74.5 L 329 91.5 L 330 92.5 L 330 99.5 L 331 100.5 L 332 117.5 L 333 118.5 L 333 125.5 L 334 126.5 L 335 143.5 L 336 144.5 L 336 151.5 L 337 152.5 L 337.5 157 L 342 150.5 L 346 140.5 Q 345.2 137.3 347 136.5 L 347 122.5 L 346 121.5 L 346 117.5 L 343 108.5 L 342 96.5 Q 344 95.5 343 91.5 L 346 85.5 L 357.5 73 L 366 65.5 L 367 62.5 L 367 56.5 L 363 46.5 L 363 35.5 L 365 29.5 L 369 22.5 L 380.5 9 L 380 10.5 L 374 23.5 Q 375 27.5 373 28.5 L 373 37.5 L 374 38.5 L 375 44.5 L 381 56.5 Q 380.3 59.8 382 60.5 L 382 68.5 L 378 78.5 L 369 91.5 L 368 97.5 L 374 115.5 L 375 131.5 L 374 132.5 L 374 140.5 Q 371.8 141.8 373 146.5 L 372 147.5 L 372 150.5 L 371 151.5 L 371 154.5 L 368 163.5 L 368.5 164 L 373 159.5 L 381 146.5 L 402 104.5 L 402 102.5 L 411 85.5 L 411 83.5 L 419 68.5 L 419 66.5 L 440.5 25 L 441 27.5 L 438 34.5 L 437 41.5 L 435 45.5 L 435 48.5 L 433 52.5 L 433 55.5 L 431 59.5 L 431 62.5 L 429 66.5 L 429 69.5 L 427 73.5 L 427 76.5 L 425 80.5 L 425 83.5 L 423 87.5 L 423 90.5 L 421 94.5 L 421 97.5 L 419 101.5 L 419 104.5 L 417 108.5 L 417 111.5 L 415 115.5 L 415 118.5 L 413 122.5 L 413 125.5 L 411 129.5 L 411 132.5 L 409 136.5 L 409 139.5 L 407 143.5 L 407 146.5 L 405 150.5 L 405 153.5 L 403 157.5 L 403 160.5 L 398 175.5 L 399.5 176 Q 407.3 171.3 413 164.5 L 416 160.5 L 421 148.5 L 422 138.5 L 423 137.5 L 423 132.5 L 424 131.5 L 425 125.5 Q 428.3 116.8 435.5 112 L 442.5 108 L 451.5 105 L 454.5 105 Q 460 103 463 98.5 Q 464.7 96.7 464 92.5 L 465 91.5 L 465 82.5 L 467 76.5 L 478.5 64 L 494.5 55 L 495 55.5 L 483 67.5 L 479 74.5 L 478 80.5 L 477 81.5 L 477 103.5 L 474 110.5 L 469.5 116 L 458.5 124 L 455.5 125 L 452 128.5 L 450 133.5 L 449 150.5 L 448 151.5 L 448 154.5 L 445 163.5 L 438 176.5 L 427 191.5 L 427.5 192 L 431.5 188 L 544.5 94 L 545 94.5 L 541 98.5 L 447 216.5 L 448.5 217 L 449.5 216 L 453.5 216 L 464.5 212 Q 472.5 207.5 478 200.5 L 487 185.5 L 493.5 178 L 501.5 173 L 515.5 171 L 516.5 172 L 526.5 172 L 528.5 173 L 529.5 172 Q 533.7 172.7 535.5 171 L 540 166.5 Q 542.9 156.9 549.5 151 L 561.5 145 L 570.5 144 L 571.5 143 L 581.5 143 L 581.5 144 Q 565.9 146.9 558 157.5 L 554 164.5 L 550 176.5 L 541.5 186 L 532.5 190 L 524.5 191 L 523.5 192 L 518.5 192 Q 513.7 193.7 511 197.5 L 503 213.5 L 490.5 227 L 476.5 237 L 468 241.5 L 471.5 242 L 472.5 241 L 475.5 241 L 476.5 240 L 491.5 237 L 495.5 235 L 502.5 234 L 506.5 232 L 509.5 232 L 516.5 229 L 519.5 229 L 549.5 219 L 552.5 219 L 562.5 215 L 565.5 215 L 572.5 212 L 575.5 212 L 582.5 209 L 585.5 209 L 592.5 206 L 595.5 206 L 599.5 204 L 602.5 204 L 614.5 200 L 614.5 201 L 477 273.5 L 483.5 276 L 498.5 276 L 499.5 275 L 505.5 274 L 515.5 269 L 521.5 264 L 531.5 258 L 537.5 256 L 547.5 256 L 548.5 257 L 554.5 258 L 568.5 266 L 571.5 267 L 577.5 267 L 581.5 265 L 592.5 256 L 598.5 254 L 612.5 254 L 613.5 255 L 616.5 255 L 617.5 256 L 620.5 256 L 626.5 258 L 631 260.5 L 629.5 261 L 628.5 260 L 611.5 260 L 605.5 262 L 598.5 266 L 585.5 279 L 580.5 282 L 577.5 283 L 562.5 283 L 553.5 280 L 546.5 280 L 542.5 282 L 529.5 293 L 517.5 299 L 511.5 300 L 507.5 302 L 503.5 302 L 497.5 304 L 490.5 304 L 486 305.5 L 638 319.5 L 632.5 320 L 631.5 321 L 623.5 321 L 622.5 322 L 614.5 322 L 613.5 323 L 605.5 323 L 604.5 324 L 596.5 324 L 595.5 325 L 586.5 325 L 585.5 326 L 577.5 326 L 576.5 327 L 568.5 327 L 567.5 328 L 550.5 329 L 549.5 330 L 540.5 330 L 539.5 331 L 531.5 331 L 530.5 332 L 522.5 332 L 521.5 333 L 513.5 333 L 512.5 334 L 504.5 334 L 503.5 335 L 485.5 336 L 483 337.5 L 495.5 345 L 501.5 347 L 507.5 347 L 510.5 348 L 511.5 347 L 519.5 347 L 520.5 346 L 528.5 345 L 533.5 343 L 546.5 343 L 555.5 347 L 563 353.5 L 573.5 366 L 580.5 368 L 591.5 364 L 596.5 364 L 599.5 363 Q 600.7 365.2 605.5 364 L 614.5 368 Q 623.9 373.6 631 381.5 L 630.5 382 L 628.5 380 L 613.5 374 L 600.5 374 L 584.5 381 L 581.5 382 L 576.5 382 L 575.5 383 L 574.5 382 L 569.5 382 L 566.5 381 L 558.5 377 L 551.5 371 L 547.5 369 L 539.5 369 L 525.5 374 Q 520.8 372.8 519.5 375 L 504.5 375 L 503.5 374 L 497.5 374 L 496.5 373 L 492.5 373 L 491.5 372 L 488.5 372 L 487.5 371 L 484.5 371 L 478.5 369 L 478.5 370 L 499.5 381 L 501.5 383 L 510.5 387 L 512.5 389 L 523.5 394 L 525.5 396 L 538.5 402 L 540.5 404 L 602.5 436 L 613 442.5 L 611.5 442 L 605.5 441 L 598.5 438 L 595.5 438 L 588.5 435 L 585.5 435 L 578.5 432 L 575.5 432 L 568.5 429 L 565.5 429 L 558.5 426 L 555.5 426 L 548.5 423 L 545.5 423 L 538.5 420 L 535.5 420 L 528.5 417 L 525.5 417 L 518.5 414 L 515.5 414 L 508.5 411 L 505.5 411 L 498.5 408 L 495.5 408 L 488.5 405 L 485.5 405 L 478.5 402 L 475.5 402 L 463.5 398 L 463 398.5 L 465 400.5 L 467 404.5 L 477.5 415 L 491.5 421 L 495.5 421 L 496.5 422 L 510.5 424 L 517.5 427 L 525 433.5 L 532 447.5 L 533 454.5 L 536 460.5 L 538.5 463 L 542.5 465 L 550.5 465 L 551.5 466 L 556.5 466 L 559.5 467 L 563.5 469 L 573 478.5 Q 578.6 485.9 582 495.5 Q 581 497 580 494.5 L 570.5 484 L 561.5 479 Q 558.3 479.8 557.5 478 L 536.5 478 Q 535.8 476.3 532.5 477 Q 524.8 473.8 520 467.5 L 513 455.5 L 509.5 452 L 505.5 450 L 489.5 449 L 488.5 448 L 478.5 446 L 464.5 439 L 449.5 428 L 449 429.5 L 544 544.5 L 542.5 545 L 537.5 540 L 422.5 447 L 422 449.5 L 423 450.5 L 423 454.5 L 425 460.5 L 428 466.5 L 438.5 478 L 454.5 488 L 462 495.5 L 466 504.5 Q 465 508.5 467 509.5 L 467 518.5 L 466 519.5 L 466 533.5 L 471.5 540 Q 482.4 543.1 488 551.5 L 493 562.5 L 494 573.5 L 495 574.5 L 495 582.5 L 494 582.5 Q 491.2 567.3 481.5 559 L 473.5 554 L 461.5 550 L 452 541.5 L 448 532.5 L 447 523.5 L 446 522.5 L 446 517.5 L 439.5 510 Q 421.5 503.5 411 489.5 L 401.5 475 L 401 477.5 L 404 484.5 L 404 487.5 L 407 494.5 L 407 497.5 L 410 504.5 L 410 507.5 L 413 514.5 L 413 517.5 L 416 524.5 L 416 527.5 L 419 534.5 L 419 537.5 L 422 544.5 L 422 547.5 L 425 554.5 L 425 557.5 L 428 564.5 L 428 567.5 L 431 574.5 L 433 584.5 L 436 591.5 L 436 594.5 L 442 612.5 L 441 612.5 L 367.5 476 L 366 479.5 L 366 484.5 L 365 485.5 L 365 493.5 Q 367.3 494.8 366 499.5 L 370 509.5 L 384 530.5 L 385 536.5 L 386 537.5 L 386 544.5 L 385 545.5 L 385 548.5 L 383 554.5 L 376 566.5 L 375 569.5 L 375 576.5 L 384 587.5 L 387 593.5 L 388 596.5 L 388 610.5 L 387 611.5 L 387 615.5 L 382.5 628 L 382 609.5 L 380 603.5 L 378 599.5 L 368.5 589 L 365 586.5 L 359 576.5 L 358 567.5 L 359 566.5 L 360 555.5 L 362 551.5 L 362 545.5 L 360 541.5 L 348 526.5 L 343 516.5 L 340 507.5 L 340 504.5 L 339 503.5 L 336.5 485 L 335 488.5 L 335 495.5 L 334 496.5 L 334 503.5 L 333 504.5 L 333 511.5 L 332 512.5 L 332 520.5 L 331 521.5 L 330 541.5 L 329 542.5 L 329 553.5 L 328 554.5 L 328 565.5 L 327 566.5 L 327 578.5 L 326 579.5 L 326 590.5 L 325 591.5 L 325 602.5 L 324 603.5 L 324 613.5 L 323 614.5 L 322 633.5 L 320.5 636 L 320 627.5 L 319 626.5 L 319 618.5 L 318 617.5 L 318 610.5 L 317 609.5 L 317 601.5 L 316 600.5 L 316 592.5 L 315 591.5 L 315 583.5 L 314 582.5 L 314 574.5 L 313 573.5 L 313 565.5 L 312 564.5 L 312 557.5 L 311 556.5 L 311 548.5 L 310 547.5 L 310 539.5 L 309 538.5 L 309 530.5 L 308 529.5 L 308 521.5 L 307 520.5 L 307 512.5 L 306 511.5 L 305 495.5 L 304 494.5 L 304 486.5 L 302.5 483 L 299 487.5 L 294 498.5 Q 295 502.5 293 503.5 L 293 514.5 L 294 515.5 L 294 520.5 L 295 521.5 L 296 529.5 L 297 530.5 L 297 534.5 L 298 535.5 L 298 543.5 Q 296.3 544.3 297 547.5 L 292 556.5 L 283.5 565 L 274 573.5 Q 271.8 576.3 273 582.5 L 277 592.5 L 277 602.5 L 272 614.5 L 260.5 629 L 259 628.5 L 261 626.5 L 266 614.5 L 267 602.5 L 266 601.5 L 265 594.5 L 259 582.5 Q 259.8 579.3 258 578.5 L 258 570.5 L 263 558.5 L 272 545.5 L 272 540.5 L 271 539.5 L 271 536.5 L 266 521.5 L 266 500.5 L 267 499.5 L 268 489.5 L 269 488.5 L 269 485.5 L 272 476.5 L 270.5 476 L 266 480.5 L 256 496.5 L 238 532.5 L 238 534.5 L 213 585.5 L 213 587.5 L 198.5 614 L 198 611.5 L 200 607.5 L 200 604.5 L 202 600.5 L 202 597.5 L 204 593.5 L 204 590.5 L 206 586.5 L 208 576.5 L 211 569.5 L 211 566.5 L 213 562.5 L 213 559.5 L 215 555.5 L 215 552.5 L 217 548.5 L 217 545.5 L 219 541.5 L 219 538.5 L 226 517.5 L 226 514.5 L 228 510.5 L 228 507.5 L 230 503.5 L 230 500.5 L 232 496.5 L 232 493.5 L 234 489.5 L 234 486.5 L 236 482.5 L 236 479.5 L 238 475.5 L 238 472.5 L 241 463.5 L 239.5 464 Q 231.2 468.2 226 475.5 L 221 484.5 L 219 490.5 L 218 499.5 L 217 500.5 L 217 505.5 L 216 506.5 L 215 512.5 Q 212.4 519.4 207.5 524 L 197.5 530 L 183.5 534 L 178 537.5 L 175 543.5 L 175 553.5 L 174 554.5 L 173 560.5 Q 169.6 567.6 163.5 572 L 156.5 577 L 144.5 583 L 144 582.5 L 147.5 579 L 155 572.5 L 158 568.5 L 162 558.5 L 162 537.5 Q 163.8 536.8 163 533.5 L 165 528.5 L 171.5 521 L 181.5 514 L 184.5 513 L 188 509.5 L 190 504.5 L 190 495.5 L 191 494.5 L 191 488.5 L 192 487.5 L 192 483.5 L 194 477.5 L 203 460.5 L 215 445.5 L 213.5 445 L 96.5 544 L 96 542.5 L 102 536.5 L 106 530.5 L 178 444.5 L 182 438.5 L 192 427.5 L 194 423.5 L 191.5 421 L 190.5 422 L 186.5 422 L 172.5 428 L 163 436.5 L 153 452.5 L 145.5 461 L 135.5 466 Q 130.8 464.8 129.5 467 L 121.5 467 L 120.5 466 L 106.5 466 L 101 470.5 L 95 482.5 L 89.5 488 L 79.5 493 L 71.5 494 L 70.5 495 L 61.5 495 Q 60.7 496.8 57.5 496 L 57.5 495 L 69.5 491 L 74.5 488 L 83 479.5 L 92 458.5 L 97.5 453 L 108.5 448 L 116.5 447 L 117.5 446 L 122.5 446 L 129 440.5 Q 135.6 423.1 148.5 412 L 160.5 403 L 169 398.5 L 166.5 398 L 152.5 403 L 149.5 403 L 145.5 405 L 142.5 405 L 138.5 407 L 135.5 407 L 124.5 411 L 114.5 413 L 107.5 416 L 104.5 416 L 100.5 418 L 97.5 418 L 93.5 420 L 90.5 420 L 86.5 422 L 83.5 422 L 62.5 429 L 59.5 429 L 55.5 431 L 52.5 431 L 48.5 433 L 45.5 433 L 41.5 435 L 38.5 435 L 34.5 437 L 31.5 437 L 25.5 439 L 25.5 438 L 164 368.5 L 162.5 366 L 154.5 365 L 153.5 364 L 142.5 364 L 141.5 365 L 137.5 365 L 131.5 368 L 129.5 368 L 113.5 379 L 105.5 383 L 102.5 384 L 91.5 384 L 82.5 381 L 68.5 373 L 61.5 373 L 57.5 375 L 46.5 384 L 40.5 385 L 39.5 386 L 29.5 386 L 28.5 385 L 20.5 384 L 9 379.5 L 12.5 379 L 13.5 380 L 25.5 380 L 37.5 376 L 53.5 361 L 58.5 358 L 61.5 357 L 77.5 357 L 85.5 360 L 93.5 360 L 115.5 344 L 133.5 338 L 143.5 337 L 144.5 336 L 153.5 336 L 157 334.5 L 148.5 334 L 147.5 333 L 138.5 333 L 137.5 332 L 127.5 332 L 126.5 331 L 106.5 330 L 105.5 329 L 85.5 328 L 84.5 327 L 64.5 326 L 63.5 325 L 54.5 325 L 53.5 324 L 43.5 324 L 42.5 323 L 33.5 323 L 32.5 322 L 22.5 322 L 21.5 321 L 12.5 321 L 11.5 320 L 3 319.5 L 9.5 319 L 10.5 318 L 20.5 318 L 21.5 317 L 43.5 316 L 44.5 315 L 66.5 314 L 67.5 313 L 77.5 313 L 78.5 312 L 88.5 312 L 89.5 311 L 100.5 311 L 101.5 310 L 111.5 310 L 112.5 309 L 123.5 309 L 124.5 308 L 134.5 308 L 135.5 307 L 146.5 307 L 147.5 306 L 157 305.5 L 157 302.5 L 153.5 299 L 143.5 294 L 137.5 293 L 136.5 292 L 123.5 292 L 122.5 293 L 113.5 294 L 108.5 296 L 101.5 296 L 98.5 297 L 97.5 296 L 92.5 296 L 87.5 294 L 76 284.5 L 67.5 274 L 64.5 272 L 55.5 272 L 48.5 275 L 39.5 276 L 38.5 275 L 31.5 274 L 25.5 271 L 10 258.5 L 11.5 258 L 15.5 261 L 17.5 261 L 26.5 265 L 39.5 265 L 59.5 257 L 69.5 257 L 79.5 261 L 91.5 270 L 97.5 271 L 98.5 270 L 101.5 270 L 116.5 265 L 125.5 265 L 127.5 264 L 128.5 265 L 139.5 265 Q 140.8 267.2 145.5 266 L 146.5 267 L 149.5 267 L 150.5 268 L 160.5 270 L 160.5 269 L 27 199.5 L 29.5 199 L 36.5 202 L 39.5 202 L 49.5 206 L 52.5 206 L 62.5 210 L 65.5 210 L 75.5 214 L 78.5 214 L 88.5 218 L 91.5 218 L 101.5 222 L 104.5 222 L 114.5 226 L 117.5 226 L 127.5 230 L 130.5 230 L 143.5 235 L 146.5 235 L 156.5 239 L 159.5 239 L 174.5 244 Q 176.5 243.5 176 240.5 Q 171.4 231.6 163.5 226 L 154.5 221 L 148.5 219 L 139.5 218 L 138.5 217 L 133.5 217 L 132.5 216 L 129.5 216 L 123.5 214 L 115 207.5 L 109 197.5 L 104 181.5 L 98.5 176 Q 95.3 176.8 94.5 175 L 85.5 175 L 84.5 174 L 78.5 173 Q 70.8 169.2 66 162.5 L 56 144.5 Q 57 143 58 145.5 L 67.5 156 L 79.5 162 L 90.5 163 L 91.5 162 L 100.5 162 L 101.5 163 L 108.5 164 L 118 171.5 L 125 181.5 L 126 184.5 L 129.5 188 L 134.5 190 L 143.5 190 L 144.5 191 L 150.5 191 L 151.5 192 L 155.5 192 L 161.5 194 L 175.5 201 L 193.5 215 L 194 213.5 L 94 96.5 L 94.5 96 L 97.5 99 L 215.5 194 Q 218 193 217 188.5 L 216 187.5 L 216 184.5 L 214 178.5 L 211 172.5 L 202.5 163 L 183.5 151 L 176 143.5 L 172 134.5 L 171 121.5 L 172 120.5 L 172 106.5 L 166.5 100 Q 156.1 96.9 150 89.5 L 146 82.5 L 144 76.5 Q 144.7 73.3 143 72.5 L 143 66.5 L 142 65.5 L 142 57.5 L 143 57.5 L 145 65.5 L 149 73.5 L 153.5 79 L 164.5 86 L 169.5 87 L 178.5 91 L 186 98.5 L 190 108.5 L 191 116.5 L 192 117.5 L 192 121.5 L 195.5 127 L 215.5 138 L 226 147.5 L 239 165.5 L 241.5 171 L 242 168.5 L 240 164.5 L 240 161.5 L 235 147.5 L 233 137.5 L 230 130.5 L 230 127.5 L 227 120.5 L 227 117.5 L 222 103.5 L 220 93.5 L 217 86.5 L 217 83.5 L 214 76.5 L 212 66.5 L 209 59.5 L 209 56.5 L 206 49.5 L 204 39.5 L 199 25.5 Q 200 24 201 26.5 L 206 37.5 L 208 39.5 L 215 54.5 L 217 56.5 L 223 69.5 L 225 71.5 L 232 86.5 L 234 88.5 L 240 101.5 L 242 103.5 L 249 118.5 L 251 120.5 L 272.5 162 L 274 161.5 Q 273.3 158.3 275 157.5 L 275 139.5 L 269 125.5 L 260 113.5 L 256 105.5 Q 256.8 102.3 255 101.5 L 255 93.5 L 256 92.5 L 256 88.5 L 258 85.5 L 258 83.5 L 265 71.5 L 266 68.5 L 266 61.5 L 258 51.5 L 254 44.5 Q 254.8 41.2 253 40.5 L 253 28.5 L 254 27.5 L 255 19.5 L 259.5 9 L 260 10.5 L 259 11.5 L 259 27.5 L 262 36.5 L 270.5 47 L 276 51.5 L 282 61.5 L 283 71.5 L 282 72.5 L 282 78.5 Q 280.3 79.3 281 82.5 L 279 86.5 L 279 92.5 L 283 99.5 L 291 108.5 L 297 119.5 L 297 121.5 L 300 127.5 L 301 134.5 L 302 135.5 L 302 140.5 L 303 141.5 L 303 146.5 L 304 147.5 L 304.5 154 L 305 147.5 L 306 146.5 L 306 139.5 L 307 138.5 L 308 120.5 L 309 119.5 L 309 109.5 L 310 108.5 L 310 97.5 L 311 96.5 L 311 85.5 L 312 84.5 L 312 73.5 L 313 72.5 L 313 60.5 L 314 59.5 L 314 48.5 L 315 47.5 L 315 36.5 L 316 35.5 L 316 24.5 L 317 23.5 L 317 13.5 L 318 12.5 L 318.5 3 Z M 304 163 L 303 164 L 290 165 L 281 168 L 278 168 L 277 169 L 274 169 L 260 175 L 258 175 L 237 186 L 218 200 L 195 224 L 183 242 L 175 258 L 175 260 L 169 274 L 166 289 L 165 290 L 164 303 L 163 304 L 163 337 L 164 338 L 165 350 L 166 351 L 167 359 L 169 363 L 169 366 L 172 375 L 174 378 L 174 380 L 183 398 L 199 421 L 224 444 L 240 455 Q 246 457 251 461 L 253 461 L 265 467 L 277 471 L 284 472 L 285 473 L 294 474 L 295 475 L 302 475 L 303 476 L 318 476 L 319 477 Q 322 478 323 476 L 338 476 L 339 475 L 345 475 L 346 474 L 350 474 L 351 473 L 355 473 L 360 471 L 363 471 L 378 466 L 402 454 L 427 435 L 435 427 L 448 411 L 458 395 L 464 383 L 473 356 L 474 347 L 475 346 L 475 340 L 476 339 L 476 329 L 477 328 L 477 313 L 476 312 L 476 301 L 475 300 L 475 294 L 474 293 L 474 289 L 473 288 L 472 280 L 466 262 L 458 245 L 452 235 Q 444 221 433 211 L 420 198 L 405 187 L 389 178 L 387 178 L 375 172 L 366 169 L 363 169 L 359 167 L 356 167 L 355 166 L 345 165 L 344 164 L 338 164 L 337 163 L 304 163 Z " /><path fill="rgb(0,0,0)" stroke="rgb(0,0,0)" stroke-width="1" opacity="0.984313725490196" d="M 297.5 190 L 343 190.5 L 325 206.5 L 325.5 225 L 357.5 225 L 361 221.5 L 371.5 207 L 372 253.5 Q 371 255 370 252.5 L 356.5 235 L 325 235.5 L 325.5 327 L 346 326.5 L 346 288.5 L 340.5 282 L 330 279.5 L 330.5 277 L 368.5 277 Q 369.5 275 373.5 276 L 374.5 277 L 376 276.5 L 375.5 280 L 367.5 281 L 362 284.5 L 360 287.5 L 360 375.5 L 362.5 379 L 365.5 381 L 376 381.5 L 375.5 385 L 330 384.5 L 330.5 381 L 339.5 381 L 344 378.5 L 346 375.5 L 346 333.5 L 325.5 333 L 324 337.5 L 324 341.5 L 323 342.5 L 323 347.5 L 322 348.5 L 322 352.5 L 321 353.5 L 321 358.5 L 320 359.5 L 319.5 365 L 318 361.5 L 317 349.5 L 316 348.5 L 316 342.5 L 315 341.5 L 315 336.5 L 313.5 333 L 296 333.5 L 296 376.5 L 299.5 380 L 301.5 381 L 310 381.5 L 309.5 386 L 308.5 385 L 266.5 385 L 265 385.5 L 265.5 381 Q 275.3 382.8 278 377.5 L 279 375.5 L 279 286.5 L 275.5 282 L 270.5 280 L 265 279.5 L 265.5 276 L 310 276.5 L 309.5 280 Q 299.5 279.5 296 285.5 L 296.5 327 L 314 326.5 L 313.5 235 L 283.5 235 L 278 240.5 L 267.5 253 L 267 207.5 L 268 207.5 Q 274.7 217.3 283.5 225 L 314 224.5 L 314 205.5 L 310.5 202 L 300.5 194 L 297 190.5 L 297.5 190 Z " /><path fill="rgb(0,0,0)" stroke="rgb(0,0,0)" stroke-width="1" opacity="0.984313725490196" d="M 444.5 274 L 448 274.5 L 447.5 313 L 444 312.5 L 444 308.5 L 443 307.5 L 443 303.5 L 441 297.5 Q 437.8 289.8 431.5 285 L 423.5 281 L 413.5 280 L 404.5 283 L 399 287.5 L 396 293.5 L 396 298.5 L 399 305.5 L 408.5 315 L 416.5 320 L 431.5 327 Q 439.9 332.1 446 339.5 L 452 349.5 L 453 356.5 L 454 357.5 L 454 361.5 L 453 362.5 L 453 366.5 L 451 371.5 L 444.5 379 L 432.5 385 Q 428.5 384 427.5 386 L 411.5 386 L 410.5 385 L 401.5 384 L 390.5 380 L 388 382.5 L 386.5 388 L 384.5 387 L 383 387.5 L 383.5 350 L 387 350.5 L 387 355.5 L 388 356.5 L 388 359.5 L 390 365.5 L 393 370.5 L 398.5 376 L 405.5 380 Q 408.8 379.3 409.5 381 L 421.5 381 L 431.5 377 L 438 370.5 L 440 366.5 L 440 359.5 Q 436.8 351.8 430.5 347 L 424.5 343 L 403.5 333 L 391 322.5 L 388 318.5 L 384 309.5 Q 384.8 306.3 383 305.5 L 383 297.5 L 386 288.5 L 392.5 281 L 399.5 277 L 405.5 276 L 406.5 275 L 417.5 275 L 418.5 276 L 422.5 276 L 423.5 277 L 429.5 278 L 440.5 283 L 443 279.5 L 444.5 274 Z " /><path fill="rgb(0,0,0)" stroke="rgb(0,0,0)" stroke-width="1" opacity="0.984313725490196" d="M 199.5 276 L 244 276.5 L 243.5 280 Q 233.5 279.5 230 285.5 L 230 375.5 L 232.5 379 L 235.5 381 L 244 381.5 L 245 384.5 Q 243.8 387.3 242.5 385 L 200.5 385 L 199.5 386 L 199 381.5 L 207.5 381 L 213 376.5 L 214 373.5 L 214 288.5 L 213 285.5 L 209.5 282 L 204.5 280 L 199 279.5 L 199.5 276 Z " /><path fill="rgb(0,0,0)" stroke="rgb(0,0,0)" stroke-width="1" opacity="0.984313725490196" d="M 308.5 404 L 329.5 404 L 331 405.5 L 332 407.5 L 329.5 412 L 324 416.5 L 319.5 449 L 319 444.5 L 318 443.5 L 318 437.5 L 317 436.5 L 317 430.5 L 316 429.5 L 315 417.5 L 310.5 413 Q 307.5 413.5 307 411.5 L 306 406.5 L 308.5 404 Z " /><path fill="rgb(0,0,0)" stroke="rgb(0,0,0)" stroke-width="1" opacity="0.984313725490196" d="M 270.5 423 Q 274.4 423.6 276 426.5 L 275 430.5 L 279.5 437 L 303 454.5 L 301.5 455 L 278.5 445 L 275.5 444 L 269.5 444 L 265.5 447 L 262.5 447 L 258 443.5 L 263 432.5 L 270.5 423 Z " /><path fill="rgb(0,0,0)" stroke="rgb(0,0,0)" stroke-width="1" opacity="0.984313725490196" d="M 365.5 424 L 370 424.5 Q 377.1 432.4 380 444.5 Q 379.3 447.8 374.5 447 L 371.5 445 L 366.5 444 L 336.5 456 Q 335 455 337.5 454 L 345.5 449 L 362 435.5 L 363 428.5 L 362 427.5 L 365.5 424 Z " /><path fill="rgb(113,113,113)" stroke="rgb(113,113,113)" stroke-width="1" opacity="0.9921568627450981" d="M 283.5 224 L 314 224.5 L 283.5 225 L 283.5 224 Z " /><path fill="rgb(113,113,113)" stroke="rgb(113,113,113)" stroke-width="1" opacity="0.9921568627450981" d="M 266.5 246 L 267 252.5 L 268 253.5 L 266.5 254 L 266.5 246 Z " /><path fill="rgb(113,113,113)" stroke="rgb(113,113,113)" stroke-width="1" opacity="0.9921568627450981" d="M 432.5 286 L 436 289.5 L 435.5 290 L 432 286.5 L 432.5 286 Z " /><path fill="rgb(113,113,113)" stroke="rgb(113,113,113)" stroke-width="1" opacity="0.9921568627450981" d="M 396.5 294 L 397 297.5 L 396 297.5 L 396.5 294 Z " /><path fill="rgb(113,113,113)" stroke="rgb(113,113,113)" stroke-width="1" opacity="0.9921568627450981" d="M 296.5 333 L 314 333.5 L 296.5 334 L 296.5 333 Z " /><path fill="rgb(113,113,113)" stroke="rgb(113,113,113)" stroke-width="1" opacity="0.9921568627450981" d="M 345.5 335 L 346 374.5 L 345 374.5 L 345.5 335 Z " /><path fill="rgb(113,113,113)" stroke="rgb(113,113,113)" stroke-width="1" opacity="0.9921568627450981" d="M 383.5 349 L 387 349.5 L 383.5 350 L 383.5 349 Z " /><path fill="rgb(113,113,113)" stroke="rgb(113,113,113)" stroke-width="1" opacity="0.9921568627450981" d="M 432.5 349 L 435 351.5 L 434.5 352 L 432 349.5 L 432.5 349 Z " /><path fill="rgb(113,113,113)" stroke="rgb(113,113,113)" stroke-width="1" opacity="0.9921568627450981" d="M 395.5 372 L 398 374.5 L 397.5 375 L 395 372.5 L 395.5 372 Z " /><path fill="rgb(113,113,113)" stroke="rgb(113,113,113)" stroke-width="1" opacity="0.9921568627450981" d="M 198.5 381 L 199 384.5 L 198 384.5 L 198.5 381 Z " /><path fill="rgb(113,113,113)" stroke="rgb(113,113,113)" stroke-width="1" opacity="0.9921568627450981" d="M 310.5 381 L 311 384.5 L 310 384.5 L 310.5 381 Z " /><path fill="rgb(113,113,113)" stroke="rgb(113,113,113)" stroke-width="1" opacity="0.9921568627450981" d="M 331.5 385 L 376 385.5 L 331.5 386 L 331.5 385 Z " /><path fill="rgb(113,113,113)" stroke="rgb(113,113,113)" stroke-width="1" opacity="0.9921568627450981" d="M 417.5 386 L 423 386.5 L 417.5 387 L 417.5 386 Z " /><path fill="rgb(113,113,113)" stroke="rgb(113,113,113)" stroke-width="1" opacity="0.9921568627450981" d="M 362.5 429 L 363 431.5 L 362 431.5 L 362.5 429 Z " /><path fill="rgb(254,254,254)" stroke="rgb(254,254,254)" stroke-width="1" opacity="0.996078431372549" d="M 311.5 163 L 327.5 163 L 328.5 164 L 338.5 164 L 339.5 165 L 345.5 165 L 346.5 166 L 350.5 166 L 351.5 167 L 355.5 167 L 356.5 168 L 363.5 169 L 372.5 172 L 375.5 174 L 377.5 174 L 380.5 176 L 382.5 176 Q 413.4 190.1 435 213.5 L 452 235.5 L 466 263.5 L 471 278.5 L 471 281.5 L 473 286.5 L 473 290.5 L 474 291.5 L 475 306.5 L 476 307.5 L 476 331.5 L 475 332.5 L 475 340.5 L 474 341.5 L 474 347.5 L 473 348.5 L 473 352.5 L 472 353.5 L 471 360.5 L 465 378.5 L 461 385.5 L 461 387.5 L 452 403.5 L 442 417.5 L 424.5 436 L 403.5 452 L 375.5 466 L 363.5 470 L 360.5 470 L 351.5 473 L 347.5 473 L 346.5 474 L 340.5 474 L 339.5 475 L 330.5 475 L 329.5 476 L 309.5 476 L 308.5 475 L 299.5 475 L 298.5 474 L 287.5 473 L 286.5 472 L 275.5 470 L 266.5 467 L 263.5 465 L 261.5 465 L 258.5 463 L 256.5 463 L 242.5 456 L 228.5 447 L 206 427.5 Q 194.9 415.6 186 401.5 L 176 382.5 L 176 380.5 L 172 372.5 L 170 366.5 L 170 363.5 L 168 359.5 L 168 356.5 L 167 355.5 L 166 346.5 L 165 345.5 L 165 339.5 L 164 338.5 L 164 328.5 L 163 327.5 L 163 311.5 L 164 310.5 L 164 300.5 L 165 299.5 L 165 293.5 L 166 292.5 L 166 288.5 L 167 287.5 L 168 279.5 L 170 275.5 L 170 272.5 L 172 266.5 L 182 244.5 L 192 228.5 L 199 219.5 L 219.5 199 L 244.5 182 L 261.5 174 L 266.5 173 L 272.5 170 L 282.5 168 L 283.5 167 L 287.5 167 L 293.5 165 L 299.5 165 L 300.5 164 L 310.5 164 L 311.5 163 Z M 296 189 L 295 190 L 300 194 L 309 201 L 314 207 L 314 224 L 284 224 L 275 215 L 267 206 L 266 207 L 267 255 L 278 242 L 284 236 L 314 236 L 313 238 L 313 252 L 314 253 L 314 327 L 297 327 L 296 287 L 301 282 L 304 281 L 311 281 L 311 277 L 265 276 L 264 281 L 275 282 L 278 286 L 279 289 L 279 374 L 278 377 L 275 380 L 272 381 L 265 381 L 264 386 L 311 386 L 311 382 L 305 381 L 300 379 L 296 375 L 296 335 L 314 334 L 314 341 L 315 342 L 315 347 L 316 348 L 316 354 L 317 355 L 317 360 L 318 361 L 318 368 L 320 368 L 320 364 L 321 363 L 321 358 L 322 357 L 322 353 L 323 352 L 324 342 L 325 341 L 325 337 L 326 336 L 326 334 L 345 335 L 345 376 L 344 378 L 338 381 L 330 381 L 329 386 L 376 386 L 376 382 L 366 380 L 361 377 L 361 288 L 362 286 L 370 281 L 377 281 L 377 277 L 330 276 L 329 281 L 337 281 L 341 283 L 345 288 L 345 327 L 327 327 L 326 238 L 325 237 L 357 236 L 373 256 L 373 207 L 372 206 L 361 221 L 358 224 L 327 224 L 326 207 L 345 190 L 296 189 Z M 445 273 L 443 275 L 443 278 L 441 282 L 439 282 L 432 278 L 426 276 Q 422 277 422 275 L 416 275 L 415 274 L 404 275 L 398 277 L 392 281 L 386 288 L 382 300 L 383 309 L 385 315 L 391 324 L 401 332 L 424 343 L 430 347 Q 436 351 439 360 L 439 368 L 436 373 L 429 378 L 423 380 L 418 380 L 417 381 L 414 380 L 409 380 L 400 376 Q 393 371 390 364 L 388 358 Q 389 352 387 350 L 383 349 L 382 388 L 388 388 Q 388 383 391 381 L 403 385 L 413 386 L 414 387 L 426 387 Q 427 385 432 386 L 440 383 L 446 379 L 451 373 L 454 366 L 454 354 L 449 343 L 446 339 L 436 329 Q 426 322 415 318 L 404 310 L 399 305 L 397 300 L 397 293 L 399 289 L 403 285 L 412 281 L 421 281 L 431 285 L 437 292 L 441 300 L 442 307 L 443 308 L 443 313 Q 444 315 448 314 L 449 313 L 449 275 Q 448 272 445 273 Z M 199 276 L 198 281 L 207 281 L 209 282 L 213 288 L 213 375 L 212 377 L 209 380 L 206 381 L 199 381 L 198 386 L 245 386 L 245 382 L 239 381 L 234 379 L 231 377 L 231 286 L 238 281 L 245 281 L 245 277 L 199 276 Z M 311 403 Q 310 405 307 404 L 306 412 L 311 414 L 314 418 Q 313 421 315 422 L 316 435 L 317 436 L 317 442 L 318 443 L 318 450 L 320 452 L 320 447 L 321 446 L 321 440 L 322 439 L 322 433 L 323 432 L 323 426 L 324 425 L 324 419 L 326 415 L 331 412 L 332 411 L 332 405 L 328 404 L 327 403 L 311 403 Z M 271 422 L 263 432 L 258 442 L 258 445 L 263 448 L 266 448 L 269 445 L 272 444 L 277 445 L 305 457 L 305 456 L 281 437 L 276 432 L 276 426 L 274 423 L 271 422 Z M 367 423 L 365 424 L 362 427 Q 363 433 361 436 L 336 455 Q 333 456 335 457 L 350 452 L 358 448 L 363 447 L 366 445 L 373 446 L 375 448 Q 379 448 381 445 Q 377 432 370 424 L 367 423 Z " /><path fill="rgb(162,162,162)" stroke="rgb(162,162,162)" stroke-width="1" opacity="0.9921568627450981" d="M 214.5 203 L 215 203.5 L 212.5 206 L 212 205.5 L 214.5 203 Z " /><path fill="rgb(162,162,162)" stroke="rgb(162,162,162)" stroke-width="1" opacity="0.9921568627450981" d="M 266.5 207 L 267 245.5 L 266 245.5 L 266.5 207 Z " /><path fill="rgb(162,162,162)" stroke="rgb(162,162,162)" stroke-width="1" opacity="0.9921568627450981" d="M 358.5 223 Q 360 224 357.5 225 L 326 224.5 L 357.5 224 L 358.5 223 Z " /><path fill="rgb(162,162,162)" stroke="rgb(162,162,162)" stroke-width="1" opacity="0.9921568627450981" d="M 198.5 276 L 199 278.5 L 198 278.5 L 198.5 276 Z " /><path fill="rgb(162,162,162)" stroke="rgb(162,162,162)" stroke-width="1" opacity="0.9921568627450981" d="M 345.5 289 L 346 326.5 L 345 326.5 L 345.5 289 Z " /><path fill="rgb(162,162,162)" stroke="rgb(162,162,162)" stroke-width="1" opacity="0.9921568627450981" d="M 440.5 333 L 445 337.5 L 444.5 338 L 440 333.5 L 440.5 333 Z " /><path fill="rgb(162,162,162)" stroke="rgb(162,162,162)" stroke-width="1" opacity="0.9921568627450981" d="M 382.5 350 L 383 387.5 L 382 387.5 L 382.5 350 Z " /><path fill="rgb(162,162,162)" stroke="rgb(162,162,162)" stroke-width="1" opacity="0.9921568627450981" d="M 318.5 365 L 320 367.5 Q 319 369 318 366.5 L 318.5 365 Z " /><path fill="rgb(162,162,162)" stroke="rgb(162,162,162)" stroke-width="1" opacity="0.9921568627450981" d="M 414.5 386 L 417 386.5 L 414.5 387 L 414.5 386 Z " /><path fill="rgb(0,0,0)" stroke="rgb(0,0,0)" stroke-width="1" opacity="0.00392156862745098" d="M 0.5 0 L 640 0.5 L 639.5 639 L 0 638.5 L 0.5 0 Z M 319 3 L 318 13 L 317 14 L 317 24 L 316 25 L 316 36 L 315 37 L 315 48 L 314 49 L 314 60 L 313 61 L 313 73 L 312 74 L 312 85 L 311 86 L 311 97 L 310 98 L 310 109 L 309 110 L 309 120 L 308 121 L 307 139 L 306 140 L 306 147 L 305 148 L 305 154 L 304 148 L 303 147 L 303 142 L 302 141 L 302 136 L 301 135 L 300 128 L 297 122 L 297 120 L 291 109 L 283 100 L 279 93 L 279 87 L 281 83 Q 280 79 282 79 L 282 73 L 283 72 L 282 62 L 276 52 L 271 47 L 264 40 L 260 32 Q 261 28 259 28 L 259 11 L 255 20 L 254 28 L 253 29 L 253 41 Q 255 41 254 45 L 258 52 L 266 62 L 266 69 L 265 72 L 258 84 L 258 86 L 256 89 L 256 93 L 255 94 L 255 102 Q 257 102 256 106 L 260 114 L 269 126 L 275 140 L 275 158 Q 273 158 274 162 L 273 162 L 251 121 L 249 119 L 242 104 L 240 102 L 234 89 L 232 87 L 225 72 L 223 70 L 217 57 L 215 55 L 208 40 L 206 38 L 201 27 L 200 27 L 201 33 L 204 40 L 206 50 L 212 67 L 214 77 L 220 94 L 222 104 L 225 111 L 225 114 L 233 138 L 233 141 L 238 155 L 238 158 L 240 162 L 240 165 L 242 171 L 243 172 Q 235 159 226 148 L 216 138 L 196 127 L 192 122 L 192 118 L 191 117 L 190 109 L 186 99 L 179 91 L 170 87 L 165 86 L 154 79 L 149 74 L 145 66 L 143 58 L 142 58 L 142 66 L 143 67 L 143 73 Q 145 73 144 77 L 146 83 L 150 90 Q 156 97 167 100 L 172 107 L 172 121 L 171 122 L 172 135 L 176 144 L 184 151 L 203 163 L 211 173 L 214 179 L 216 185 L 216 188 L 217 189 Q 218 193 216 194 L 200 182 L 99 99 L 97 100 L 194 214 L 194 215 L 176 201 L 162 194 L 156 192 L 152 192 L 151 191 L 145 191 L 144 190 L 135 190 L 130 188 L 126 185 L 125 182 L 118 172 L 109 164 L 102 163 L 101 162 L 92 162 L 91 163 L 80 162 L 68 156 L 59 147 L 58 148 Q 61 156 66 163 Q 71 169 79 173 L 85 174 L 86 175 L 95 175 Q 95 177 99 176 L 104 182 L 109 198 L 115 208 L 124 214 L 130 216 L 133 216 L 134 217 L 139 217 L 140 218 L 149 219 L 155 221 L 164 226 Q 171 232 176 241 Q 177 244 175 244 L 160 239 L 157 239 L 147 235 L 144 235 L 131 230 L 128 230 L 118 226 L 115 226 L 105 222 L 102 222 L 92 218 L 89 218 L 79 214 L 76 214 L 66 210 L 63 210 L 53 206 L 50 206 L 40 202 L 37 202 L 30 199 L 27 200 L 163 270 L 163 271 L 154 268 L 151 268 L 150 267 L 147 267 L 146 266 Q 141 267 140 265 L 129 265 L 128 264 L 126 265 L 117 265 L 102 270 L 99 270 L 98 271 L 92 270 L 80 261 L 70 257 L 60 257 L 40 265 L 27 265 L 18 261 L 16 261 L 12 258 L 10 259 L 26 271 L 32 274 L 39 275 L 40 276 L 49 275 L 56 272 L 65 272 L 68 274 L 76 285 L 88 294 L 93 296 L 98 296 L 99 297 L 102 296 L 109 296 L 114 294 L 123 293 L 124 292 L 137 292 L 138 293 L 144 294 L 154 299 L 157 303 L 157 306 L 148 306 L 147 307 L 136 307 L 135 308 L 125 308 L 124 309 L 113 309 L 112 310 L 102 310 L 101 311 L 90 311 L 89 312 L 79 312 L 78 313 L 68 313 L 67 314 L 45 315 L 44 316 L 22 317 L 21 318 L 11 318 L 10 319 L 3 320 L 12 320 L 13 321 L 22 321 L 23 322 L 33 322 L 34 323 L 43 323 L 44 324 L 54 324 L 55 325 L 64 325 L 65 326 L 85 327 L 86 328 L 106 329 L 107 330 L 127 331 L 128 332 L 138 332 L 139 333 L 148 333 L 149 334 L 157 335 L 154 336 L 145 336 L 144 337 L 134 338 L 116 344 L 94 360 L 86 360 L 78 357 L 62 357 L 59 358 L 54 361 L 38 376 L 26 380 L 14 380 L 13 379 L 9 380 L 21 384 L 29 385 L 30 386 L 40 386 L 41 385 L 47 384 L 58 375 L 62 373 L 69 373 L 83 381 L 92 384 L 103 384 L 106 383 L 114 379 L 130 368 L 132 368 L 138 365 L 142 365 L 143 364 L 154 364 L 155 365 L 163 366 L 164 369 L 26 438 L 26 439 L 32 437 L 35 437 L 39 435 L 42 435 L 46 433 L 49 433 L 53 431 L 56 431 L 60 429 L 63 429 L 84 422 L 87 422 L 91 420 L 94 420 L 98 418 L 101 418 L 105 416 L 108 416 L 115 413 L 125 411 L 136 407 L 139 407 L 143 405 L 146 405 L 150 403 L 153 403 L 167 398 L 169 399 L 161 403 L 149 412 Q 136 423 129 441 L 123 446 L 118 446 L 117 447 L 109 448 L 98 453 L 92 459 L 83 480 L 75 488 L 70 491 L 58 495 L 58 496 Q 61 497 62 495 L 71 495 L 72 494 L 80 493 L 90 488 L 95 483 L 101 471 L 107 466 L 121 466 L 122 467 L 130 467 Q 131 465 136 466 L 146 461 L 153 453 L 163 437 L 173 428 L 187 422 L 191 422 L 192 421 L 194 424 L 192 428 L 182 439 L 178 445 L 106 531 L 102 537 L 96 543 L 97 544 L 214 445 L 215 446 L 203 461 L 194 478 L 192 484 L 192 488 L 191 489 L 191 495 L 190 496 L 190 505 L 188 510 L 185 513 L 182 514 L 172 521 L 165 529 L 163 534 Q 164 537 162 538 L 162 559 L 158 569 L 155 573 L 148 579 L 145 582 L 146 582 Q 156 578 164 572 Q 170 568 173 561 L 174 555 L 175 554 L 175 544 L 178 538 L 184 534 L 198 530 L 208 524 Q 212 519 215 513 L 216 507 L 217 506 L 217 501 L 218 500 L 219 491 L 221 485 L 226 476 Q 231 468 240 464 L 241 464 L 238 473 L 238 476 L 236 480 L 236 483 L 234 487 L 234 490 L 232 494 L 232 497 L 230 501 L 230 504 L 228 508 L 228 511 L 226 515 L 226 518 L 219 539 L 219 542 L 217 546 L 217 549 L 215 553 L 215 556 L 213 560 L 213 563 L 211 567 L 211 570 L 208 577 L 206 587 L 204 591 L 204 594 L 202 598 L 202 601 L 200 605 L 200 608 L 198 612 L 199 614 L 213 588 L 213 586 L 238 535 L 238 533 L 256 497 L 266 481 L 271 476 L 272 477 L 269 486 L 269 489 L 268 490 L 267 500 L 266 501 L 266 522 L 271 537 L 271 540 L 272 541 L 272 546 L 263 559 L 258 571 L 258 579 Q 260 579 259 583 L 265 595 L 266 602 L 267 603 L 266 615 L 261 626 L 262 627 L 272 615 L 277 603 L 277 593 L 273 583 Q 272 576 274 574 L 284 565 L 292 557 L 297 548 Q 296 544 298 544 L 298 536 L 297 535 L 297 531 L 296 530 L 295 522 L 294 521 L 294 516 L 293 515 L 293 504 Q 295 502 294 499 L 299 488 L 303 483 L 304 487 L 304 495 L 305 496 L 306 512 L 307 513 L 307 521 L 308 522 L 308 530 L 309 531 L 309 539 L 310 540 L 310 548 L 311 549 L 311 557 L 312 558 L 312 565 L 313 566 L 313 574 L 314 575 L 314 583 L 315 584 L 315 592 L 316 593 L 316 601 L 317 602 L 317 610 L 318 611 L 318 618 L 319 619 L 319 627 L 320 628 L 321 636 L 322 634 L 323 615 L 324 614 L 324 604 L 325 603 L 325 592 L 326 591 L 326 580 L 327 579 L 327 567 L 328 566 L 328 555 L 329 554 L 329 543 L 330 542 L 331 522 L 332 521 L 332 513 L 333 512 L 333 505 L 334 504 L 334 497 L 335 496 L 335 489 L 337 485 L 339 504 L 340 505 L 340 508 L 343 517 L 348 527 L 360 542 L 362 546 L 362 552 L 360 556 L 359 567 L 358 568 L 359 577 L 365 587 L 369 589 L 378 600 L 380 604 L 382 610 L 383 628 L 387 616 L 387 612 L 388 611 L 388 597 L 387 594 L 384 588 L 375 577 L 375 570 L 376 567 L 383 555 L 385 549 L 385 546 L 386 545 L 386 538 L 385 537 L 384 531 L 370 510 L 366 500 Q 367 495 365 494 L 365 486 L 366 485 L 366 480 L 368 476 L 440 611 L 441 611 L 439 605 L 439 602 L 436 595 L 436 592 L 433 585 L 433 582 L 431 578 L 431 575 L 428 568 L 428 565 L 425 558 L 425 555 L 422 548 L 422 545 L 419 538 L 419 535 L 416 528 L 416 525 L 413 518 L 413 515 L 410 508 L 410 505 L 407 498 L 407 495 L 404 488 L 404 485 L 401 478 L 402 475 L 411 490 Q 421 504 440 510 L 446 518 L 446 523 L 447 524 L 448 533 L 452 542 L 462 550 L 474 554 L 482 559 Q 491 567 494 583 L 495 583 L 495 575 L 494 574 L 493 563 L 488 552 Q 482 543 472 540 L 466 534 L 466 520 L 467 519 L 467 510 Q 465 508 466 505 L 462 496 L 455 488 L 439 478 L 428 467 L 425 461 L 423 455 L 423 451 L 422 450 L 423 447 L 538 540 L 543 545 L 544 545 L 477 465 L 449 429 L 447 427 L 448 426 L 465 439 L 479 446 L 489 448 L 490 449 L 506 450 L 510 452 L 513 456 L 520 468 Q 525 474 533 477 Q 536 476 537 478 L 558 478 Q 558 480 562 479 L 571 484 L 580 495 Q 581 497 582 496 Q 579 486 573 479 L 564 469 L 560 467 L 557 466 L 552 466 L 551 465 L 543 465 L 539 463 L 536 461 L 533 455 L 532 448 L 525 434 L 518 427 L 511 424 L 497 422 L 496 421 L 492 421 L 478 415 L 467 405 L 465 401 L 463 399 L 464 398 L 476 402 L 479 402 L 486 405 L 489 405 L 496 408 L 499 408 L 506 411 L 509 411 L 516 414 L 519 414 L 526 417 L 529 417 L 536 420 L 539 420 L 546 423 L 549 423 L 556 426 L 559 426 L 566 429 L 569 429 L 576 432 L 579 432 L 586 435 L 589 435 L 596 438 L 599 438 L 606 441 L 609 441 L 610 442 L 612 442 L 592 431 L 590 429 L 577 423 L 575 421 L 558 413 L 556 411 L 541 404 L 539 402 L 526 396 L 524 394 L 513 389 L 511 387 L 502 383 L 500 381 L 479 370 L 479 369 L 485 371 L 488 371 L 489 372 L 492 372 L 493 373 L 497 373 L 498 374 L 504 374 L 505 375 L 520 375 Q 521 373 526 374 L 540 369 L 548 369 L 552 371 L 559 377 L 567 381 L 570 382 L 575 382 L 576 383 L 577 382 L 582 382 L 585 381 L 601 374 L 614 374 L 623 377 L 628 380 L 629 380 L 615 368 L 606 364 Q 601 365 600 363 L 597 364 L 592 364 L 581 368 L 574 366 L 563 354 L 556 347 L 547 343 L 534 343 L 529 345 L 521 346 L 520 347 L 512 347 L 511 348 L 508 347 L 502 347 L 496 345 L 483 338 L 486 336 L 504 335 L 505 334 L 513 334 L 514 333 L 522 333 L 523 332 L 531 332 L 532 331 L 540 331 L 541 330 L 550 330 L 551 329 L 568 328 L 569 327 L 577 327 L 578 326 L 586 326 L 587 325 L 596 325 L 597 324 L 605 324 L 606 323 L 614 323 L 615 322 L 623 322 L 624 321 L 632 321 L 633 320 L 638 320 L 486 306 L 491 304 L 498 304 L 504 302 L 508 302 L 512 300 L 518 299 L 530 293 L 543 282 L 547 280 L 554 280 L 563 283 L 578 283 L 581 282 L 586 279 L 599 266 L 606 262 L 612 260 L 629 260 L 613 254 L 599 254 L 593 256 L 582 265 L 578 267 L 572 267 L 569 266 L 555 258 L 549 257 L 548 256 L 538 256 L 532 258 L 522 264 L 516 269 L 506 274 L 500 275 L 499 276 L 484 276 L 477 274 L 613 202 L 613 201 L 607 202 L 603 204 L 600 204 L 596 206 L 593 206 L 566 215 L 563 215 L 553 219 L 550 219 L 540 223 L 537 223 L 530 226 L 527 226 L 520 229 L 517 229 L 510 232 L 507 232 L 503 234 L 496 235 L 492 237 L 477 240 L 476 241 L 473 241 L 472 242 L 469 242 L 468 243 L 466 243 Q 480 236 491 227 L 503 214 L 511 198 Q 514 194 519 192 L 524 192 L 525 191 L 533 190 L 542 186 L 550 177 L 554 165 L 558 158 Q 566 147 582 144 L 582 143 L 572 143 L 571 144 L 562 145 L 550 151 Q 543 157 540 167 L 536 171 Q 534 173 530 172 L 529 173 L 527 172 L 517 172 L 516 171 L 502 173 L 494 178 L 487 186 L 478 201 Q 473 208 465 212 L 454 216 L 450 216 L 449 217 L 447 217 L 541 99 L 543 97 L 543 96 L 432 188 L 427 193 L 426 193 L 438 177 L 445 164 L 448 155 L 448 152 L 449 151 L 450 134 L 452 129 L 456 125 L 459 124 L 470 116 L 474 111 L 477 104 L 477 82 L 478 81 L 479 75 L 483 68 L 494 57 L 494 56 L 479 64 L 467 77 L 465 83 L 465 92 L 464 93 Q 465 97 463 99 Q 460 103 455 105 L 452 105 L 443 108 L 436 112 Q 428 117 425 126 L 424 132 L 423 133 L 423 138 L 422 139 L 421 149 L 416 161 L 413 165 Q 407 171 400 176 L 398 176 L 403 161 L 403 158 L 405 154 L 405 151 L 407 147 L 407 144 L 409 140 L 409 137 L 411 133 L 411 130 L 413 126 L 413 123 L 415 119 L 415 116 L 417 112 L 417 109 L 419 105 L 419 102 L 421 98 L 421 95 L 423 91 L 423 88 L 425 84 L 425 81 L 427 77 L 427 74 L 429 70 L 429 67 L 431 63 L 431 60 L 433 56 L 433 53 L 435 49 L 435 46 L 437 42 L 438 35 L 441 28 L 441 25 L 419 67 L 419 69 L 411 84 L 411 86 L 402 103 L 402 105 L 381 147 L 373 160 L 369 164 L 368 164 L 371 155 L 371 152 L 372 151 L 372 148 L 373 147 Q 372 142 374 141 L 374 133 L 375 132 L 374 116 L 368 98 L 369 92 L 378 79 L 382 69 L 382 61 Q 380 60 381 57 L 375 45 L 374 39 L 373 38 L 373 29 Q 375 27 374 24 L 380 12 L 380 10 L 369 23 L 365 30 L 363 36 L 363 47 L 367 57 L 367 63 L 366 66 L 358 73 L 346 86 L 343 92 Q 344 95 342 97 L 343 109 L 346 118 L 346 122 L 347 123 L 347 137 Q 345 137 346 141 L 342 151 L 338 157 L 337 153 L 336 152 L 336 145 L 335 144 L 334 127 L 333 126 L 333 119 L 332 118 L 331 101 L 330 100 L 330 93 L 329 92 L 328 75 L 327 74 L 326 58 L 325 57 L 325 49 L 324 48 L 324 41 L 323 40 L 323 32 L 322 31 L 322 23 L 321 22 L 321 15 L 320 14 L 320 6 L 319 3 Z M 261 627 Q 258 628 260 629 L 261 629 L 261 627 Z " /><path fill="rgb(205,205,205)" stroke="rgb(205,205,205)" stroke-width="1" opacity="0.9921568627450981" d="M 328.5 163 L 331 163.5 L 328.5 164 L 328.5 163 Z " /><path fill="rgb(205,205,205)" stroke="rgb(205,205,205)" stroke-width="1" opacity="0.9921568627450981" d="M 211.5 206 L 212 206.5 L 205.5 213 L 205 212.5 L 211.5 206 Z " /><path fill="rgb(205,205,205)" stroke="rgb(205,205,205)" stroke-width="1" opacity="0.9921568627450981" d="M 325.5 207 L 326 223.5 L 325 223.5 L 325.5 207 Z " /><path fill="rgb(205,205,205)" stroke="rgb(205,205,205)" stroke-width="1" opacity="0.9921568627450981" d="M 313.5 237 L 314 251.5 L 313 251.5 L 313.5 237 Z " /><path fill="rgb(205,205,205)" stroke="rgb(205,205,205)" stroke-width="1" opacity="0.9921568627450981" d="M 325.5 237 L 326 325.5 L 325 325.5 L 325.5 237 Z " /><path fill="rgb(205,205,205)" stroke="rgb(205,205,205)" stroke-width="1" opacity="0.9921568627450981" d="M 444.5 273 Q 448.3 272.3 449 274.5 L 449 312.5 L 447.5 314 L 444 313.5 L 448 312.5 L 447.5 274 Q 443.5 274.8 444.5 273 Z " /><path fill="rgb(205,205,205)" stroke="rgb(205,205,205)" stroke-width="1" opacity="0.9921568627450981" d="M 409.5 274 L 415 274.5 L 409.5 275 L 409.5 274 Z " /><path fill="rgb(205,205,205)" stroke="rgb(205,205,205)" stroke-width="1" opacity="0.9921568627450981" d="M 329.5 276 L 330 278.5 L 329 278.5 L 329.5 276 Z " /><path fill="rgb(205,205,205)" stroke="rgb(205,205,205)" stroke-width="1" opacity="0.9921568627450981" d="M 376.5 276 L 377 280.5 L 376 280.5 L 376.5 276 Z " /><path fill="rgb(205,205,205)" stroke="rgb(205,205,205)" stroke-width="1" opacity="0.9921568627450981" d="M 230.5 287 L 231 374.5 L 230 374.5 L 230.5 287 Z " /><path fill="rgb(205,205,205)" stroke="rgb(205,205,205)" stroke-width="1" opacity="0.9921568627450981" d="M 360.5 289 L 361 373.5 L 360 373.5 L 360.5 289 Z " /><path fill="rgb(205,205,205)" stroke="rgb(205,205,205)" stroke-width="1" opacity="0.9921568627450981" d="M 382.5 299 L 383 303.5 L 382 303.5 L 382.5 299 Z " /><path fill="rgb(205,205,205)" stroke="rgb(205,205,205)" stroke-width="1" opacity="0.9921568627450981" d="M 163.5 308 L 164 310.5 L 163 310.5 L 163.5 308 Z " /><path fill="rgb(205,205,205)" stroke="rgb(205,205,205)" stroke-width="1" opacity="0.9921568627450981" d="M 163.5 328 L 164 330.5 L 163 330.5 L 163.5 328 Z " /><path fill="rgb(205,205,205)" stroke="rgb(205,205,205)" stroke-width="1" opacity="0.9921568627450981" d="M 447.5 376 L 448 376.5 L 445.5 379 L 445 378.5 L 447.5 376 Z " /><path fill="rgb(205,205,205)" stroke="rgb(205,205,205)" stroke-width="1" opacity="0.9921568627450981" d="M 329.5 381 L 330 383.5 L 329 383.5 L 329.5 381 Z " /><path fill="rgb(205,205,205)" stroke="rgb(205,205,205)" stroke-width="1" opacity="0.9921568627450981" d="M 211.5 432 L 214 434.5 L 213.5 435 L 211 432.5 L 211.5 432 Z " /><path fill="rgb(59,59,59)" stroke="rgb(59,59,59)" stroke-width="1" opacity="0.9921568627450981" d="M 296.5 189 L 344 189.5 L 296.5 190 L 296.5 189 Z " /><path fill="rgb(59,59,59)" stroke="rgb(59,59,59)" stroke-width="1" opacity="0.9921568627450981" d="M 428.5 206 L 433 210.5 L 432.5 211 L 428 206.5 L 428.5 206 Z " /><path fill="rgb(59,59,59)" stroke="rgb(59,59,59)" stroke-width="1" opacity="0.9921568627450981" d="M 372.5 209 L 373 254.5 L 371.5 255 L 372 253.5 L 372.5 209 Z " /><path fill="rgb(59,59,59)" stroke="rgb(59,59,59)" stroke-width="1" opacity="0.9921568627450981" d="M 275.5 216 L 278 218.5 L 277.5 219 L 275 216.5 L 275.5 216 Z " /><path fill="rgb(59,59,59)" stroke="rgb(59,59,59)" stroke-width="1" opacity="0.9921568627450981" d="M 283.5 235 L 314 235.5 L 283.5 236 L 283.5 235 Z " /><path fill="rgb(59,59,59)" stroke="rgb(59,59,59)" stroke-width="1" opacity="0.9921568627450981" d="M 327.5 235 L 355 235.5 L 327.5 236 L 327.5 235 Z " /><path fill="rgb(59,59,59)" stroke="rgb(59,59,59)" stroke-width="1" opacity="0.9921568627450981" d="M 244.5 276 L 245 279.5 Q 243.8 282.3 238.5 281 L 238.5 280 L 244 279.5 L 244.5 276 Z " /><path fill="rgb(59,59,59)" stroke="rgb(59,59,59)" stroke-width="1" opacity="0.9921568627450981" d="M 264.5 276 L 265.5 280 L 271 280.5 L 265.5 281 Q 262.8 279.8 264.5 276 Z " /><path fill="rgb(59,59,59)" stroke="rgb(59,59,59)" stroke-width="1" opacity="0.9921568627450981" d="M 330.5 276 L 369 276.5 L 330.5 277 L 330.5 276 Z " /><path fill="rgb(59,59,59)" stroke="rgb(59,59,59)" stroke-width="1" opacity="0.9921568627450981" d="M 199.5 280 L 205 280.5 L 199.5 281 L 199.5 280 Z " /><path fill="rgb(59,59,59)" stroke="rgb(59,59,59)" stroke-width="1" opacity="0.9921568627450981" d="M 304.5 280 L 310 280.5 L 304.5 281 L 304.5 280 Z " /><path fill="rgb(59,59,59)" stroke="rgb(59,59,59)" stroke-width="1" opacity="0.9921568627450981" d="M 330.5 280 L 335 280.5 L 330.5 281 L 330.5 280 Z " /><path fill="rgb(59,59,59)" stroke="rgb(59,59,59)" stroke-width="1" opacity="0.9921568627450981" d="M 371.5 280 L 376 280.5 L 371.5 281 L 371.5 280 Z " /><path fill="rgb(59,59,59)" stroke="rgb(59,59,59)" stroke-width="1" opacity="0.9921568627450981" d="M 413.5 280 L 419 280.5 L 413.5 281 L 413.5 280 Z " /><path fill="rgb(59,59,59)" stroke="rgb(59,59,59)" stroke-width="1" opacity="0.9921568627450981" d="M 401.5 285 L 402 285.5 L 399.5 288 L 399 287.5 L 401.5 285 Z " /><path fill="rgb(59,59,59)" stroke="rgb(59,59,59)" stroke-width="1" opacity="0.9921568627450981" d="M 213.5 288 L 214 373.5 L 213 373.5 L 213.5 288 Z " /><path fill="rgb(59,59,59)" stroke="rgb(59,59,59)" stroke-width="1" opacity="0.9921568627450981" d="M 476.5 312 L 477 318.5 L 476 318.5 L 476.5 312 Z " /><path fill="rgb(59,59,59)" stroke="rgb(59,59,59)" stroke-width="1" opacity="0.9921568627450981" d="M 476.5 320 L 477 327.5 L 476 327.5 L 476.5 320 Z " /><path fill="rgb(59,59,59)" stroke="rgb(59,59,59)" stroke-width="1" opacity="0.9921568627450981" d="M 325.5 333 L 346 333.5 L 325.5 334 L 325.5 333 Z " /><path fill="rgb(59,59,59)" stroke="rgb(59,59,59)" stroke-width="1" opacity="0.9921568627450981" d="M 244.5 381 L 245 383.5 L 244 383.5 L 244.5 381 Z " /><path fill="rgb(59,59,59)" stroke="rgb(59,59,59)" stroke-width="1" opacity="0.9921568627450981" d="M 264.5 381 L 265 385.5 L 264 385.5 L 264.5 381 Z " /><path fill="rgb(59,59,59)" stroke="rgb(59,59,59)" stroke-width="1" opacity="0.9921568627450981" d="M 200.5 385 L 243 385.5 L 200.5 386 L 200.5 385 Z " /><path fill="rgb(59,59,59)" stroke="rgb(59,59,59)" stroke-width="1" opacity="0.9921568627450981" d="M 266.5 385 L 309 385.5 L 266.5 386 L 266.5 385 Z " /><path fill="rgb(59,59,59)" stroke="rgb(59,59,59)" stroke-width="1" opacity="0.9921568627450981" d="M 314.5 403 L 323 403.5 L 314.5 404 L 314.5 403 Z " /><path fill="rgb(59,59,59)" stroke="rgb(59,59,59)" stroke-width="1" opacity="0.9921568627450981" d="M 434.5 426 L 435 426.5 L 426.5 435 L 426 434.5 L 434.5 426 Z " /><path fill="rgb(59,59,59)" stroke="rgb(59,59,59)" stroke-width="1" opacity="0.9921568627450981" d="M 275.5 428 L 276 430.5 L 275 430.5 L 275.5 428 Z " /><path fill="rgb(59,59,59)" stroke="rgb(59,59,59)" stroke-width="1" opacity="0.9921568627450981" d="M 366.5 444 L 369 444.5 L 366.5 445 L 366.5 444 Z " /><path fill="rgb(59,59,59)" stroke="rgb(59,59,59)" stroke-width="1" opacity="0.9921568627450981" d="M 373.5 446 L 376 447.5 L 374.5 448 Q 372 447 373.5 446 Z " /><path fill="rgb(59,59,59)" stroke="rgb(59,59,59)" stroke-width="1" opacity="0.9921568627450981" d="M 318.5 476 L 322 476.5 L 318.5 477 L 318.5 476 Z " /></svg>