<svg viewBox="0 0 640 560" version="1.1" xmlns="http://www.w3.org/2000/svg" desc="Created with imagetracer.js version 1.2.6" ><path fill="rgb(0,2,1)" stroke="rgb(0,2,1)" stroke-width="1" opacity="0.9725490196078431" d="M 293.5 142 L 340.5 142 L 341.5 143 L 348.5 143 L 349.5 144 L 358.5 145 L 359.5 146 L 366.5 147 L 378.5 151 L 388.5 156 L 397.5 162 L 401.5 166 L 414.5 172 L 440.5 189 L 475.5 218 L 495 237.5 L 510 255.5 L 527.5 282 L 529 282.5 L 533 289.5 L 552 310.5 L 567 331.5 L 576 348.5 L 576 350.5 L 582 362.5 L 598 388.5 L 605 403.5 L 605 405.5 L 622 437.5 L 623 443.5 L 619.5 448 L 586.5 447 L 585.5 448 L 578.5 448 L 577.5 447 L 504.5 447 L 503.5 448 L 466.5 448 L 465.5 449 L 451.5 449 L 450.5 448 L 438.5 448 L 437.5 447 L 425.5 447 L 424.5 446 L 402.5 446 L 401.5 445 L 385.5 445 L 384.5 444 L 355.5 444 L 354.5 443 L 341.5 443 L 340.5 442 L 322.5 441 L 321.5 440 L 312.5 440 L 311.5 439 L 250.5 439 L 249.5 438 L 196.5 438 L 195.5 439 L 133.5 439 L 132.5 440 L 120.5 440 L 119.5 439 L 110.5 439 L 109.5 438 L 101.5 438 L 100.5 437 L 61.5 437 L 60.5 436 L 44.5 436 L 43.5 435 L 32.5 434 L 23.5 431 L 14.5 431 L 13 429.5 L 17 417.5 L 26 402.5 L 47 360.5 Q 44.3 359.8 45 355.5 L 50.5 349 L 52 348.5 L 53 344.5 L 59 332.5 L 76 305.5 L 85 288.5 L 89 283.5 Q 88 279 90.5 278 L 96 273.5 L 107 258.5 L 132 231.5 L 135 227.5 Q 134 223 136.5 222 L 140.5 221 L 161.5 200 L 189 178.5 L 188 176.5 L 205.5 166 L 207.5 166 L 220.5 159 L 222.5 159 L 235.5 153 L 238.5 153 L 241.5 151 L 245.5 151 L 250.5 149 L 254.5 149 L 259.5 147 L 264.5 147 L 270.5 145 L 284.5 144 L 285.5 143 L 292.5 143 L 293.5 142 Z M 308 151 L 307 152 L 284 152 L 283 153 L 276 153 L 275 154 L 270 154 L 269 155 L 264 155 L 258 157 L 254 157 L 253 158 L 238 161 L 234 163 L 231 163 L 222 166 L 205 174 L 191 192 L 177 206 L 151 225 L 147 229 L 138 248 L 127 264 L 112 278 L 102 288 L 99 297 L 96 302 L 96 304 L 85 325 L 77 337 L 60 357 L 61 358 L 62 357 L 78 357 L 79 356 L 87 356 L 88 355 L 107 355 L 108 354 L 114 354 L 115 353 L 125 352 L 126 351 L 131 351 L 132 350 L 147 350 L 149 351 L 151 346 L 151 343 L 153 339 L 153 336 L 155 332 L 156 326 L 161 316 L 162 311 L 166 303 L 167 298 L 170 293 L 170 291 L 195 241 L 212 215 Q 223 201 239 192 L 258 183 L 264 181 L 267 181 L 268 180 L 272 180 L 273 179 L 281 179 L 285 181 L 287 186 L 287 198 L 286 199 L 286 205 L 285 206 L 285 212 L 284 213 L 284 220 L 283 221 L 283 237 L 282 238 L 282 265 L 283 266 L 283 279 L 284 280 L 284 288 L 285 289 L 285 312 L 286 313 L 286 321 L 287 322 L 287 333 L 288 334 L 287 358 L 307 358 L 307 323 L 308 322 L 308 284 L 309 283 L 309 241 L 308 240 L 308 211 L 307 210 L 307 181 L 308 179 L 315 173 L 324 173 Q 324 175 328 174 L 338 179 L 362 187 L 375 194 L 386 202 Q 392 208 397 216 L 406 233 L 414 244 L 422 259 L 424 261 L 424 263 L 429 272 L 432 281 L 435 286 L 435 288 L 438 293 L 438 295 L 441 300 L 455 342 L 462 356 L 480 356 L 481 355 L 497 355 L 498 354 L 520 354 L 521 355 L 528 355 L 529 356 L 548 357 L 554 359 L 555 359 L 546 343 L 526 313 L 522 304 Q 523 300 521 300 L 521 294 L 482 253 L 468 234 L 465 225 L 455 221 L 452 219 L 450 219 L 447 217 L 445 217 L 431 210 L 417 200 L 398 181 L 393 174 L 390 168 L 390 166 L 387 163 L 385 163 L 375 158 L 366 155 L 363 155 L 362 154 L 359 154 L 358 153 L 354 153 L 353 152 L 346 152 L 345 151 L 308 151 Z M 395 168 L 394 169 L 398 176 L 409 189 Q 418 199 431 206 L 440 211 L 442 211 L 449 215 L 451 215 L 460 219 L 464 218 L 465 216 L 431 188 L 407 173 L 397 168 L 395 168 Z M 315 176 L 311 180 L 309 186 L 309 193 L 310 194 L 310 218 L 311 219 L 311 245 L 312 246 L 312 278 L 311 279 L 311 308 L 310 309 L 310 358 Q 311 360 317 359 L 317 350 L 318 349 L 318 338 L 319 337 L 319 325 L 320 324 L 320 304 L 321 303 L 321 290 L 322 289 L 322 268 L 321 267 L 321 259 L 320 258 L 320 242 L 319 241 L 319 233 L 318 232 L 318 216 L 317 215 L 317 205 L 316 204 L 316 192 Q 314 191 315 188 L 320 185 L 325 185 L 326 186 L 334 187 L 343 191 L 354 194 L 371 202 L 377 206 L 385 216 L 397 235 L 403 254 L 406 259 L 406 261 L 429 303 L 435 321 L 438 326 L 438 328 L 441 333 L 443 340 L 451 356 L 457 356 L 444 317 L 439 306 L 438 301 L 428 279 L 428 277 L 424 270 L 424 268 L 418 256 L 405 237 L 395 218 L 390 211 L 380 201 L 371 195 L 357 188 L 338 182 L 325 176 L 315 176 Z M 196 180 L 179 192 L 161 207 L 148 221 L 145 224 L 147 225 L 149 225 L 152 223 L 181 200 L 192 188 L 196 182 L 196 180 Z M 275 181 L 274 182 L 269 182 L 265 184 L 262 184 L 256 187 L 254 187 L 240 194 L 224 206 L 212 219 L 196 244 L 190 256 L 190 258 L 187 262 L 170 297 L 170 299 L 166 307 L 163 317 L 158 327 L 156 333 L 156 336 L 155 337 L 155 340 L 151 351 L 155 352 L 158 352 L 159 350 L 159 347 L 161 343 L 162 336 L 164 332 L 164 329 L 166 323 L 176 302 L 178 295 L 183 285 L 183 283 L 191 267 L 216 227 Q 228 213 244 202 L 256 194 L 267 189 Q 273 188 276 190 L 279 196 L 279 208 L 278 209 L 278 213 L 275 222 L 275 225 L 274 226 L 274 229 L 273 230 L 272 239 L 271 240 L 271 248 L 270 249 L 270 256 L 271 257 L 271 301 L 272 302 L 272 327 L 273 328 L 273 340 L 274 341 L 274 358 L 284 358 L 284 348 L 285 347 L 284 322 L 283 321 L 283 312 L 282 311 L 282 287 L 281 286 L 281 279 L 280 278 L 280 227 L 281 226 L 281 216 L 282 215 L 282 209 L 283 208 L 283 202 L 284 201 L 284 193 L 285 192 Q 286 187 284 185 L 280 181 L 275 181 Z M 321 188 L 319 189 L 317 192 L 318 193 L 318 205 L 319 206 L 319 218 L 320 219 L 320 233 L 321 234 L 321 243 L 322 244 L 322 259 L 323 260 L 323 268 L 324 269 L 324 287 L 323 288 L 323 301 L 322 302 L 322 322 L 321 323 L 321 336 L 320 337 L 320 346 L 319 347 L 319 359 L 324 360 L 334 360 L 335 361 L 386 361 L 387 360 L 398 360 Q 399 358 404 359 L 405 358 L 411 358 L 412 357 L 425 357 L 426 356 L 447 356 L 440 340 L 440 338 L 437 333 L 437 331 L 434 326 L 434 324 L 431 319 L 425 301 L 401 257 L 395 238 L 391 230 L 381 216 L 373 207 L 363 201 L 361 201 L 351 196 L 330 189 L 321 188 Z M 267 191 L 260 194 L 249 201 L 231 215 L 215 232 L 193 268 L 184 286 L 182 293 L 177 303 L 177 305 L 168 324 L 160 352 L 165 353 L 185 353 L 186 354 L 194 354 L 195 355 L 203 355 L 204 356 L 216 356 L 217 357 L 233 357 L 234 358 L 272 358 L 272 340 L 271 339 L 271 328 L 270 327 L 270 301 L 269 300 L 269 240 L 270 239 L 270 234 L 271 233 L 274 218 L 275 217 L 275 214 L 276 213 L 276 209 L 277 208 L 277 196 L 276 194 Q 274 190 267 191 Z M 471 222 L 468 226 L 469 230 L 474 238 L 486 253 L 519 286 Q 522 287 522 285 L 521 282 L 505 258 L 489 239 L 473 222 L 471 222 Z M 137 232 L 109 263 L 97 280 L 103 283 L 105 283 L 118 271 L 131 256 L 140 240 L 138 233 L 137 232 Z M 93 285 L 75 316 L 65 331 L 56 349 L 56 351 L 62 353 L 77 334 L 86 320 L 95 302 L 99 290 Q 97 286 93 285 Z M 529 293 L 525 298 L 525 303 L 526 306 L 533 319 L 592 408 L 607 428 L 612 432 L 612 432 L 601 411 L 599 404 L 593 391 L 578 367 L 571 353 L 571 351 L 562 334 L 550 317 L 531 295 L 529 293 Z M 130 352 L 129 353 L 119 354 L 118 355 L 113 355 L 112 356 L 104 356 L 103 357 L 85 357 L 84 358 L 64 358 Q 63 360 59 359 L 55 371 Q 52 374 51 380 L 25 420 L 21 428 L 29 430 L 32 430 L 33 431 L 36 431 L 37 432 L 43 432 L 44 433 L 58 433 L 59 434 L 98 434 L 99 435 L 118 436 L 120 434 L 123 425 L 125 422 L 129 410 L 129 407 L 141 371 L 145 363 L 148 353 L 130 352 Z M 151 353 L 148 359 L 148 362 L 142 375 L 140 381 L 140 384 L 130 411 L 130 414 L 127 423 L 121 436 L 122 437 L 132 437 L 133 436 L 179 436 L 180 435 L 209 435 L 202 434 L 201 433 L 195 433 L 194 432 L 141 432 L 140 433 Q 132 434 130 431 L 133 422 L 136 417 L 136 415 L 147 392 L 151 380 L 151 377 L 153 373 L 156 358 L 157 357 L 157 354 L 151 353 Z M 161 354 L 158 359 L 156 370 L 154 374 L 154 377 L 152 381 L 152 384 L 150 390 L 140 411 L 137 420 L 133 427 Q 133 430 135 430 Q 138 431 139 429 L 147 429 L 148 428 L 160 428 L 161 429 L 195 429 Q 196 431 201 430 L 202 431 L 221 431 L 222 430 L 234 430 L 235 429 L 256 429 L 265 426 L 269 422 L 270 419 L 270 413 L 271 412 L 271 384 L 272 383 L 272 361 L 271 359 L 263 359 L 262 360 L 240 360 L 239 359 L 222 359 L 221 358 L 208 358 L 207 357 L 189 356 L 188 355 L 161 354 Z M 494 356 L 493 357 L 462 358 L 471 385 L 473 399 L 474 400 L 474 404 L 475 405 L 475 409 L 478 418 Q 477 422 479 424 L 479 432 L 480 433 L 480 442 L 482 444 L 509 444 L 510 443 L 572 443 L 573 444 L 592 444 L 593 443 L 601 443 L 602 444 L 617 444 L 618 445 L 618 444 L 617 443 L 609 436 L 596 420 L 559 364 L 557 361 L 554 360 Q 550 361 550 359 L 543 359 L 542 358 L 531 358 L 530 357 L 524 357 L 523 356 L 494 356 Z M 458 357 L 457 358 L 451 359 L 455 370 L 456 379 L 457 380 L 457 385 L 458 386 L 458 393 L 459 394 L 459 399 L 461 404 L 461 407 L 464 414 L 464 417 L 466 421 L 467 427 L 471 434 L 471 437 L 465 435 L 444 435 L 443 436 L 435 436 L 434 437 L 406 437 L 405 436 L 393 436 L 392 435 L 359 435 L 358 434 L 344 433 L 343 432 L 330 432 L 321 429 L 317 426 L 315 420 L 315 406 L 316 405 L 316 383 L 317 382 L 317 362 Q 316 359 310 360 L 309 399 L 308 400 L 309 403 L 309 415 L 310 416 L 310 428 L 309 429 Q 310 433 308 436 L 316 436 L 317 437 L 325 437 L 326 438 L 335 438 L 336 439 L 346 439 L 347 440 L 371 440 L 372 441 L 393 441 L 394 442 L 416 442 L 417 443 L 434 443 L 435 444 L 445 444 L 446 445 L 473 445 L 474 444 L 478 444 L 477 443 L 477 436 L 476 435 L 476 426 Q 474 424 475 420 L 474 419 L 474 415 L 472 410 L 472 407 L 471 406 L 469 392 L 468 391 L 468 387 L 467 386 L 467 382 L 460 361 L 458 357 Z M 420 358 L 419 359 L 410 359 L 409 360 L 403 360 L 402 361 L 396 361 L 395 362 L 377 362 L 376 363 L 339 363 L 338 362 L 327 362 L 326 361 L 320 361 L 319 388 L 318 389 L 318 405 L 317 406 L 317 419 L 319 425 L 323 428 L 326 429 Q 329 428 331 430 L 344 430 L 345 431 L 351 431 L 352 432 L 359 432 L 360 433 L 372 433 L 373 432 Q 377 431 379 433 L 398 433 L 399 434 L 411 434 L 412 435 L 427 435 L 428 434 L 447 433 L 448 432 L 462 432 L 463 433 L 467 433 L 458 407 L 457 400 L 456 399 L 456 394 L 455 393 L 455 386 L 454 385 L 453 375 L 452 374 L 451 367 L 448 359 L 420 358 Z M 275 359 L 274 393 L 273 394 L 273 414 L 272 415 L 272 420 L 271 423 L 269 426 L 262 430 Q 257 429 257 431 L 249 431 L 248 432 L 229 432 L 228 433 L 217 433 L 212 435 L 255 435 L 256 436 L 280 436 L 280 432 L 281 431 L 282 410 L 283 409 L 283 393 L 284 392 L 284 361 L 280 360 L 279 359 L 275 359 Z M 288 360 L 287 398 L 286 399 L 286 412 L 285 413 L 285 423 L 284 424 L 284 436 L 286 435 L 302 435 L 303 436 L 307 436 L 307 411 L 306 410 L 306 363 L 307 361 L 288 360 Z M 52 361 L 48 367 L 48 369 L 36 393 L 34 395 L 20 422 L 21 423 L 48 381 L 53 370 L 55 363 L 52 361 Z " /><path fill="rgb(0,45,81)" stroke="rgb(0,45,81)" stroke-width="1" opacity="0.996078431372549" d="M 274.5 181 L 280 181.5 L 274.5 182 L 274.5 181 Z " /><path fill="rgb(0,45,81)" stroke="rgb(0,45,81)" stroke-width="1" opacity="0.996078431372549" d="M 309.5 185 L 310 192.5 L 309 192.5 L 309.5 185 Z " /><path fill="rgb(0,45,81)" stroke="rgb(0,45,81)" stroke-width="1" opacity="0.996078431372549" d="M 284.5 186 L 285 191.5 L 284 191.5 L 284.5 186 Z " /><path fill="rgb(0,45,81)" stroke="rgb(0,45,81)" stroke-width="1" opacity="0.996078431372549" d="M 315.5 191 L 316 193.5 L 315 193.5 L 315.5 191 Z " /><path fill="rgb(0,45,81)" stroke="rgb(0,45,81)" stroke-width="1" opacity="0.996078431372549" d="M 316.5 204 L 317 206.5 L 316 206.5 L 316.5 204 Z " /><path fill="rgb(0,45,81)" stroke="rgb(0,45,81)" stroke-width="1" opacity="0.996078431372549" d="M 384.5 205 L 390 210.5 L 389.5 211 L 384 205.5 L 384.5 205 Z " /><path fill="rgb(0,45,81)" stroke="rgb(0,45,81)" stroke-width="1" opacity="0.996078431372549" d="M 223.5 206 L 224 206.5 L 215.5 215 L 215 214.5 L 223.5 206 Z " /><path fill="rgb(0,45,81)" stroke="rgb(0,45,81)" stroke-width="1" opacity="0.996078431372549" d="M 310.5 207 L 311 217.5 L 310 217.5 L 310.5 207 Z " /><path fill="rgb(0,45,81)" stroke="rgb(0,45,81)" stroke-width="1" opacity="0.996078431372549" d="M 317.5 215 L 318 220.5 L 317 220.5 L 317.5 215 Z " /><path fill="rgb(0,45,81)" stroke="rgb(0,45,81)" stroke-width="1" opacity="0.996078431372549" d="M 280.5 223 L 281 225.5 L 280 225.5 L 280.5 223 Z " /><path fill="rgb(0,45,81)" stroke="rgb(0,45,81)" stroke-width="1" opacity="0.996078431372549" d="M 279.5 240 L 280 265.5 L 279 265.5 L 279.5 240 Z " /><path fill="rgb(0,45,81)" stroke="rgb(0,45,81)" stroke-width="1" opacity="0.996078431372549" d="M 311.5 240 L 312 244.5 L 311 244.5 L 311.5 240 Z " /><path fill="rgb(0,45,81)" stroke="rgb(0,45,81)" stroke-width="1" opacity="0.996078431372549" d="M 319.5 241 L 320 243.5 L 319 243.5 L 319.5 241 Z " /><path fill="rgb(0,45,81)" stroke="rgb(0,45,81)" stroke-width="1" opacity="0.996078431372549" d="M 270.5 248 L 271 255.5 L 270 255.5 L 270.5 248 Z " /><path fill="rgb(0,45,81)" stroke="rgb(0,45,81)" stroke-width="1" opacity="0.996078431372549" d="M 311.5 278 L 312 281.5 L 311 281.5 L 311.5 278 Z " /><path fill="rgb(0,45,81)" stroke="rgb(0,45,81)" stroke-width="1" opacity="0.996078431372549" d="M 321.5 285 L 322 288.5 L 321 288.5 L 321.5 285 Z " /><path fill="rgb(0,45,81)" stroke="rgb(0,45,81)" stroke-width="1" opacity="0.996078431372549" d="M 281.5 286 L 282 288.5 L 281 288.5 L 281.5 286 Z " /><path fill="rgb(0,45,81)" stroke="rgb(0,45,81)" stroke-width="1" opacity="0.996078431372549" d="M 271.5 293 L 272 300.5 L 271 300.5 L 271.5 293 Z " /><path fill="rgb(0,45,81)" stroke="rgb(0,45,81)" stroke-width="1" opacity="0.996078431372549" d="M 320.5 299 L 321 302.5 L 320 302.5 L 320.5 299 Z " /><path fill="rgb(0,45,81)" stroke="rgb(0,45,81)" stroke-width="1" opacity="0.996078431372549" d="M 310.5 308 L 311 319.5 L 310 319.5 L 310.5 308 Z " /><path fill="rgb(0,45,81)" stroke="rgb(0,45,81)" stroke-width="1" opacity="0.996078431372549" d="M 282.5 311 L 283 314.5 L 282 314.5 L 282.5 311 Z " /><path fill="rgb(0,45,81)" stroke="rgb(0,45,81)" stroke-width="1" opacity="0.996078431372549" d="M 319.5 319 L 320 323.5 L 319 323.5 L 319.5 319 Z " /><path fill="rgb(0,45,81)" stroke="rgb(0,45,81)" stroke-width="1" opacity="0.996078431372549" d="M 283.5 321 L 284 323.5 L 283 323.5 L 283.5 321 Z " /><path fill="rgb(0,45,81)" stroke="rgb(0,45,81)" stroke-width="1" opacity="0.996078431372549" d="M 272.5 324 L 273 326.5 L 272 326.5 L 272.5 324 Z " /><path fill="rgb(0,45,81)" stroke="rgb(0,45,81)" stroke-width="1" opacity="0.996078431372549" d="M 284.5 333 L 285 346.5 L 284 346.5 L 284.5 333 Z " /><path fill="rgb(0,45,81)" stroke="rgb(0,45,81)" stroke-width="1" opacity="0.996078431372549" d="M 318.5 334 L 319 336.5 L 318 336.5 L 318.5 334 Z " /><path fill="rgb(0,45,81)" stroke="rgb(0,45,81)" stroke-width="1" opacity="0.996078431372549" d="M 273.5 336 L 274 339.5 L 273 339.5 L 273.5 336 Z " /><path fill="rgb(0,45,81)" stroke="rgb(0,45,81)" stroke-width="1" opacity="0.996078431372549" d="M 317.5 344 L 318 348.5 L 317 348.5 L 317.5 344 Z " /><path fill="rgb(0,45,81)" stroke="rgb(0,45,81)" stroke-width="1" opacity="0.996078431372549" d="M 154.5 353 L 157 353.5 L 154.5 354 L 154.5 353 Z " /><path fill="rgb(0,45,81)" stroke="rgb(0,45,81)" stroke-width="1" opacity="0.996078431372549" d="M 274.5 357 L 280 357.5 L 274.5 358 L 274.5 357 Z " /><path fill="rgb(0,45,81)" stroke="rgb(0,45,81)" stroke-width="1" opacity="0.996078431372549" d="M 311.5 358 L 315 358.5 L 311.5 359 L 311.5 358 Z " /><path fill="rgb(0,45,81)" stroke="rgb(0,45,81)" stroke-width="1" opacity="0.996078431372549" d="M 274.5 359 L 279 359.5 L 274.5 360 L 274.5 359 Z " /><path fill="rgb(0,45,81)" stroke="rgb(0,45,81)" stroke-width="1" opacity="0.996078431372549" d="M 309.5 360 L 310 362.5 L 309 362.5 L 309.5 360 Z " /><path fill="rgb(0,45,81)" stroke="rgb(0,45,81)" stroke-width="1" opacity="0.996078431372549" d="M 312.5 360 L 316 360.5 L 312.5 361 L 312.5 360 Z " /><path fill="rgb(0,45,81)" stroke="rgb(0,45,81)" stroke-width="1" opacity="0.996078431372549" d="M 316.5 373 L 317 381.5 L 316 381.5 L 316.5 373 Z " /><path fill="rgb(0,45,81)" stroke="rgb(0,45,81)" stroke-width="1" opacity="0.996078431372549" d="M 283.5 387 L 284 391.5 L 283 391.5 L 283.5 387 Z " /><path fill="rgb(0,45,81)" stroke="rgb(0,45,81)" stroke-width="1" opacity="0.996078431372549" d="M 273.5 393 L 274 402.5 L 273 402.5 L 273.5 393 Z " /><path fill="rgb(0,45,81)" stroke="rgb(0,45,81)" stroke-width="1" opacity="0.996078431372549" d="M 308.5 399 L 309 401.5 L 308 401.5 L 308.5 399 Z " /><path fill="rgb(0,45,81)" stroke="rgb(0,45,81)" stroke-width="1" opacity="0.996078431372549" d="M 315.5 402 L 316 404.5 L 315 404.5 L 315.5 402 Z " /><path fill="rgb(0,45,81)" stroke="rgb(0,45,81)" stroke-width="1" opacity="0.996078431372549" d="M 282.5 406 L 283 408.5 L 282 408.5 L 282.5 406 Z " /><path fill="rgb(0,45,81)" stroke="rgb(0,45,81)" stroke-width="1" opacity="0.996078431372549" d="M 281.5 417 L 282 419.5 L 281 419.5 L 281.5 417 Z " /><path fill="rgb(0,45,81)" stroke="rgb(0,45,81)" stroke-width="1" opacity="0.996078431372549" d="M 280.5 427 L 281 430.5 L 280 430.5 L 280.5 427 Z " /><path fill="rgb(0,45,81)" stroke="rgb(0,45,81)" stroke-width="1" opacity="0.996078431372549" d="M 248.5 431 L 251 431.5 L 248.5 432 L 248.5 431 Z " /><path fill="rgb(0,45,81)" stroke="rgb(0,45,81)" stroke-width="1" opacity="0.996078431372549" d="M 228.5 432 L 231 432.5 L 228.5 433 L 228.5 432 Z " /><path fill="rgb(0,45,81)" stroke="rgb(0,45,81)" stroke-width="1" opacity="0.996078431372549" d="M 216.5 433 L 220 433.5 Q 217.9 435.9 212.5 435 L 212.5 434 Q 215.8 434.8 216.5 433 Z " /><path fill="rgb(0,45,81)" stroke="rgb(0,45,81)" stroke-width="1" opacity="0.996078431372549" d="M 205.5 434 L 209 434.5 L 205.5 435 L 205.5 434 Z " /><path fill="rgb(0,45,81)" stroke="rgb(0,45,81)" stroke-width="1" opacity="0.996078431372549" d="M 355.5 434 L 358 434.5 L 355.5 435 L 355.5 434 Z " /><path fill="rgb(0,45,81)" stroke="rgb(0,45,81)" stroke-width="1" opacity="0.996078431372549" d="M 175.5 435 L 179 435.5 L 175.5 436 L 175.5 435 Z " /><path fill="rgb(0,45,81)" stroke="rgb(0,45,81)" stroke-width="1" opacity="0.996078431372549" d="M 255.5 435 L 260 435.5 L 255.5 436 L 255.5 435 Z " /><path fill="rgb(0,45,81)" stroke="rgb(0,45,81)" stroke-width="1" opacity="0.996078431372549" d="M 387.5 435 L 392 435.5 L 387.5 436 L 387.5 435 Z " /><path fill="rgb(0,45,81)" stroke="rgb(0,45,81)" stroke-width="1" opacity="0.996078431372549" d="M 476.5 435 L 477 437.5 L 476 437.5 L 476.5 435 Z " /><path fill="rgb(0,45,81)" stroke="rgb(0,45,81)" stroke-width="1" opacity="0.996078431372549" d="M 121.5 436 L 132 436.5 L 121.5 437 L 121.5 436 Z " /><path fill="rgb(0,45,81)" stroke="rgb(0,45,81)" stroke-width="1" opacity="0.996078431372549" d="M 325.5 437 L 328 437.5 L 325.5 438 L 325.5 437 Z " /><path fill="rgb(0,45,81)" stroke="rgb(0,45,81)" stroke-width="1" opacity="0.996078431372549" d="M 416.5 437 L 423 437.5 L 416.5 438 L 416.5 437 Z " /><path fill="rgb(0,45,81)" stroke="rgb(0,45,81)" stroke-width="1" opacity="0.996078431372549" d="M 335.5 438 L 338 438.5 L 335.5 439 L 335.5 438 Z " /><path fill="rgb(0,45,81)" stroke="rgb(0,45,81)" stroke-width="1" opacity="0.996078431372549" d="M 371.5 440 L 378 440.5 L 371.5 441 L 371.5 440 Z " /><path fill="rgb(0,45,81)" stroke="rgb(0,45,81)" stroke-width="1" opacity="0.996078431372549" d="M 393.5 441 L 399 441.5 L 393.5 442 L 393.5 441 Z " /><path fill="rgb(0,45,81)" stroke="rgb(0,45,81)" stroke-width="1" opacity="0.996078431372549" d="M 416.5 442 L 422 442.5 L 416.5 443 L 416.5 442 Z " /><path fill="rgb(0,45,81)" stroke="rgb(0,45,81)" stroke-width="1" opacity="0.996078431372549" d="M 434.5 443 L 437 443.5 L 434.5 444 L 434.5 443 Z " /><path fill="rgb(0,45,81)" stroke="rgb(0,45,81)" stroke-width="1" opacity="0.996078431372549" d="M 445.5 444 L 448 444.5 L 445.5 445 L 445.5 444 Z " /><path fill="rgb(0,45,81)" stroke="rgb(0,45,81)" stroke-width="1" opacity="0.996078431372549" d="M 469.5 444 L 473 444.5 L 469.5 445 L 469.5 444 Z " /><path fill="rgb(30,129,9)" stroke="rgb(30,129,9)" stroke-width="1" opacity="0.9921568627450981" d="M 131.5 352 L 146.5 352 L 148 353.5 L 146 356.5 L 144 364.5 L 140 372.5 L 137 381.5 L 137 384.5 L 134 390.5 L 129 405.5 L 129 408.5 L 127 412.5 L 126 418.5 L 124 421.5 L 122 428.5 L 117.5 436 L 101.5 435 L 100.5 434 L 61.5 434 L 60.5 433 L 45.5 433 L 44.5 432 L 37.5 432 L 36.5 431 L 33.5 431 L 32.5 430 L 29.5 430 L 28.5 429 L 21 427.5 L 34 405.5 L 49 383.5 L 54 373.5 L 58.5 359 Q 64.7 360.2 67.5 358 L 68.5 359 L 74.5 359 L 75.5 358 L 86.5 358 L 87.5 357 L 106.5 357 L 107.5 356 L 113.5 356 L 114.5 355 L 119.5 355 L 120.5 354 L 130.5 353 L 131.5 352 Z " /><path fill="rgb(30,129,9)" stroke="rgb(30,129,9)" stroke-width="1" opacity="0.9921568627450981" d="M 160.5 354 L 166.5 354 L 167.5 355 L 184.5 355 L 185.5 356 L 203.5 357 L 204.5 358 L 232.5 359 L 233.5 360 L 271 360.5 L 271 407.5 L 270 408.5 L 270 417.5 L 269 420.5 L 264.5 426 L 259.5 428 L 255.5 428 L 254.5 429 L 231.5 429 L 230.5 430 L 218.5 430 L 217.5 431 L 203.5 431 L 202.5 430 L 196.5 430 L 195.5 429 L 181.5 428 L 180.5 429 L 165.5 429 L 164.5 428 L 145.5 428 L 144.5 429 L 133.5 429 L 133 427.5 L 149 392.5 L 154 377.5 L 155 370.5 L 157 366.5 L 159 355.5 L 160.5 354 Z " /><path fill="rgb(30,129,9)" stroke="rgb(30,129,9)" stroke-width="1" opacity="0.9921568627450981" d="M 498.5 356 L 520.5 356 L 521.5 357 L 527.5 357 L 528.5 358 L 547.5 359 L 548.5 360 L 556.5 361 L 558 362.5 L 598 422.5 L 616.5 443 L 618 443.5 L 605.5 444 L 604.5 443 L 502.5 443 L 501.5 444 L 481.5 444 L 480 439.5 L 479 421.5 L 478 420.5 L 478 416.5 L 475 407.5 L 475 403.5 L 474 402.5 L 474 398.5 L 473 397.5 L 471 383.5 L 470 382.5 L 470 379.5 L 469 378.5 L 469 375.5 L 467 369.5 L 462 358.5 L 480.5 358 L 481.5 357 L 497.5 357 L 498.5 356 Z " /><path fill="rgb(30,129,9)" stroke="rgb(30,129,9)" stroke-width="1" opacity="0.9921568627450981" d="M 422.5 358 L 448 358.5 L 450 363.5 L 452 374.5 L 453 375.5 L 454 386.5 L 455 387.5 L 455 393.5 L 456 394.5 L 456 399.5 L 457 400.5 L 458 407.5 L 463 420.5 L 463 423.5 L 465 429.5 L 467 432.5 L 464.5 433 L 463.5 432 L 445.5 432 L 444.5 433 L 436.5 433 L 435.5 434 L 421.5 434 Q 420.8 435.8 417.5 435 L 416.5 434 L 401.5 434 L 400.5 433 L 383.5 433 L 382.5 432 L 368.5 432 Q 367.5 434 363.5 433 L 362.5 432 L 352.5 432 L 351.5 431 Q 346.8 432.3 345.5 430 L 333.5 430 L 332.5 429 L 325.5 429 L 320 425.5 L 317 416.5 L 317 409.5 L 318 408.5 L 318 392.5 L 319 391.5 L 319.5 361 Q 322.8 360.3 323.5 362 L 334.5 362 L 335.5 363 L 382.5 363 L 383.5 362 L 397.5 362 L 398.5 361 Q 403.3 362.2 404.5 360 L 410.5 360 L 411.5 359 L 421.5 359 L 422.5 358 Z " /><path fill="rgb(30,129,9)" stroke="rgb(30,129,9)" stroke-width="1" opacity="0.9921568627450981" d="M 288.5 360 L 306 360.5 L 306 411.5 L 307 412.5 L 307 434.5 L 284.5 435 L 284 425.5 L 285 424.5 L 286 401.5 L 287 400.5 L 287 376.5 L 288 375.5 L 288.5 360 Z " /><path fill="rgb(0,89,163)" stroke="rgb(0,89,163)" stroke-width="1" opacity="0.9921568627450981" d="M 268.5 188 L 272 188.5 L 268.5 189 L 268.5 188 Z " /><path fill="rgb(0,89,163)" stroke="rgb(0,89,163)" stroke-width="1" opacity="0.9921568627450981" d="M 315.5 194 L 316 197.5 L 315 197.5 L 315.5 194 Z " /><path fill="rgb(0,89,163)" stroke="rgb(0,89,163)" stroke-width="1" opacity="0.9921568627450981" d="M 283.5 196 L 284 198.5 L 283 198.5 L 283.5 196 Z " /><path fill="rgb(0,89,163)" stroke="rgb(0,89,163)" stroke-width="1" opacity="0.9921568627450981" d="M 279.5 197 L 280 204.5 L 279 204.5 L 279.5 197 Z " /><path fill="rgb(0,89,163)" stroke="rgb(0,89,163)" stroke-width="1" opacity="0.9921568627450981" d="M 310.5 201 L 311 206.5 L 310 206.5 L 310.5 201 Z " /><path fill="rgb(0,89,163)" stroke="rgb(0,89,163)" stroke-width="1" opacity="0.9921568627450981" d="M 316.5 207 L 317 209.5 L 316 209.5 L 316.5 207 Z " /><path fill="rgb(0,89,163)" stroke="rgb(0,89,163)" stroke-width="1" opacity="0.9921568627450981" d="M 223.5 218 L 224 218.5 L 218.5 224 L 218 223.5 L 223.5 218 Z " /><path fill="rgb(0,89,163)" stroke="rgb(0,89,163)" stroke-width="1" opacity="0.9921568627450981" d="M 280.5 219 L 281 222.5 L 280 222.5 L 280.5 219 Z " /><path fill="rgb(0,89,163)" stroke="rgb(0,89,163)" stroke-width="1" opacity="0.9921568627450981" d="M 317.5 221 L 318 226.5 L 317 226.5 L 317.5 221 Z " /><path fill="rgb(0,89,163)" stroke="rgb(0,89,163)" stroke-width="1" opacity="0.9921568627450981" d="M 311.5 231 L 312 239.5 L 311 239.5 L 311.5 231 Z " /><path fill="rgb(0,89,163)" stroke="rgb(0,89,163)" stroke-width="1" opacity="0.9921568627450981" d="M 279.5 234 L 280 239.5 L 279 239.5 L 279.5 234 Z " /><path fill="rgb(0,89,163)" stroke="rgb(0,89,163)" stroke-width="1" opacity="0.9921568627450981" d="M 318.5 234 L 319 236.5 L 318 236.5 L 318.5 234 Z " /><path fill="rgb(0,89,163)" stroke="rgb(0,89,163)" stroke-width="1" opacity="0.9921568627450981" d="M 319.5 244 L 320 250.5 L 319 250.5 L 319.5 244 Z " /><path fill="rgb(0,89,163)" stroke="rgb(0,89,163)" stroke-width="1" opacity="0.9921568627450981" d="M 312.5 255 L 313 267.5 L 312 267.5 L 312.5 255 Z " /><path fill="rgb(0,89,163)" stroke="rgb(0,89,163)" stroke-width="1" opacity="0.9921568627450981" d="M 320.5 260 L 321 262.5 L 320 262.5 L 320.5 260 Z " /><path fill="rgb(0,89,163)" stroke="rgb(0,89,163)" stroke-width="1" opacity="0.9921568627450981" d="M 279.5 266 L 280 271.5 L 279 271.5 L 279.5 266 Z " /><path fill="rgb(0,89,163)" stroke="rgb(0,89,163)" stroke-width="1" opacity="0.9921568627450981" d="M 321.5 269 L 322 274.5 L 321 274.5 L 321.5 269 Z " /><path fill="rgb(0,89,163)" stroke="rgb(0,89,163)" stroke-width="1" opacity="0.9921568627450981" d="M 271.5 272 L 272 292.5 L 271 292.5 L 271.5 272 Z " /><path fill="rgb(0,89,163)" stroke="rgb(0,89,163)" stroke-width="1" opacity="0.9921568627450981" d="M 321.5 277 L 322 284.5 L 321 284.5 L 321.5 277 Z " /><path fill="rgb(0,89,163)" stroke="rgb(0,89,163)" stroke-width="1" opacity="0.9921568627450981" d="M 280.5 280 L 281 282.5 L 280 282.5 L 280.5 280 Z " /><path fill="rgb(0,89,163)" stroke="rgb(0,89,163)" stroke-width="1" opacity="0.9921568627450981" d="M 311.5 282 L 312 288.5 L 311 288.5 L 311.5 282 Z " /><path fill="rgb(0,89,163)" stroke="rgb(0,89,163)" stroke-width="1" opacity="0.9921568627450981" d="M 281.5 289 L 282 296.5 L 281 296.5 L 281.5 289 Z " /><path fill="rgb(0,89,163)" stroke="rgb(0,89,163)" stroke-width="1" opacity="0.9921568627450981" d="M 320.5 295 L 321 298.5 L 320 298.5 L 320.5 295 Z " /><path fill="rgb(0,89,163)" stroke="rgb(0,89,163)" stroke-width="1" opacity="0.9921568627450981" d="M 319.5 312 L 320 318.5 L 319 318.5 L 319.5 312 Z " /><path fill="rgb(0,89,163)" stroke="rgb(0,89,163)" stroke-width="1" opacity="0.9921568627450981" d="M 272.5 317 L 273 323.5 L 272 323.5 L 272.5 317 Z " /><path fill="rgb(0,89,163)" stroke="rgb(0,89,163)" stroke-width="1" opacity="0.9921568627450981" d="M 310.5 320 L 311 340.5 L 310 340.5 L 310.5 320 Z " /><path fill="rgb(0,89,163)" stroke="rgb(0,89,163)" stroke-width="1" opacity="0.9921568627450981" d="M 318.5 331 L 319 333.5 L 318 333.5 L 318.5 331 Z " /><path fill="rgb(0,89,163)" stroke="rgb(0,89,163)" stroke-width="1" opacity="0.9921568627450981" d="M 273.5 333 L 274 335.5 L 273 335.5 L 273.5 333 Z " /><path fill="rgb(0,89,163)" stroke="rgb(0,89,163)" stroke-width="1" opacity="0.9921568627450981" d="M 317.5 341 L 318 343.5 L 317 343.5 L 317.5 341 Z " /><path fill="rgb(0,89,163)" stroke="rgb(0,89,163)" stroke-width="1" opacity="0.9921568627450981" d="M 450.5 355 L 457 355.5 L 450.5 356 L 450.5 355 Z " /><path fill="rgb(0,89,163)" stroke="rgb(0,89,163)" stroke-width="1" opacity="0.9921568627450981" d="M 280.5 357 L 284 357.5 L 280.5 358 L 280.5 357 Z " /><path fill="rgb(0,89,163)" stroke="rgb(0,89,163)" stroke-width="1" opacity="0.9921568627450981" d="M 309.5 363 L 310 367.5 L 309 367.5 L 309.5 363 Z " /><path fill="rgb(0,89,163)" stroke="rgb(0,89,163)" stroke-width="1" opacity="0.9921568627450981" d="M 316.5 364 L 317 372.5 L 316 372.5 L 316.5 364 Z " /><path fill="rgb(0,89,163)" stroke="rgb(0,89,163)" stroke-width="1" opacity="0.9921568627450981" d="M 283.5 377 L 284 386.5 L 283 386.5 L 283.5 377 Z " /><path fill="rgb(0,89,163)" stroke="rgb(0,89,163)" stroke-width="1" opacity="0.9921568627450981" d="M 315.5 398 L 316 401.5 L 315 401.5 L 315.5 398 Z " /><path fill="rgb(0,89,163)" stroke="rgb(0,89,163)" stroke-width="1" opacity="0.9921568627450981" d="M 282.5 401 L 283 405.5 L 282 405.5 L 282.5 401 Z " /><path fill="rgb(0,89,163)" stroke="rgb(0,89,163)" stroke-width="1" opacity="0.9921568627450981" d="M 273.5 403 L 274 407.5 L 273 407.5 L 273.5 403 Z " /><path fill="rgb(0,89,163)" stroke="rgb(0,89,163)" stroke-width="1" opacity="0.9921568627450981" d="M 309.5 410 L 310 412.5 L 309 412.5 L 309.5 410 Z " /><path fill="rgb(0,89,163)" stroke="rgb(0,89,163)" stroke-width="1" opacity="0.9921568627450981" d="M 281.5 413 L 282 416.5 L 281 416.5 L 281.5 413 Z " /><path fill="rgb(0,89,163)" stroke="rgb(0,89,163)" stroke-width="1" opacity="0.9921568627450981" d="M 280.5 424 L 281 426.5 L 280 426.5 L 280.5 424 Z " /><path fill="rgb(0,89,163)" stroke="rgb(0,89,163)" stroke-width="1" opacity="0.9921568627450981" d="M 475.5 427 L 476 429.5 L 475 429.5 L 475.5 427 Z " /><path fill="rgb(0,89,163)" stroke="rgb(0,89,163)" stroke-width="1" opacity="0.9921568627450981" d="M 309.5 430 L 310 432.5 L 309 432.5 L 309.5 430 Z " /><path fill="rgb(0,89,163)" stroke="rgb(0,89,163)" stroke-width="1" opacity="0.9921568627450981" d="M 251.5 431 L 254 431.5 L 251.5 432 L 251.5 431 Z " /><path fill="rgb(0,89,163)" stroke="rgb(0,89,163)" stroke-width="1" opacity="0.9921568627450981" d="M 142.5 432 L 145 432.5 L 142.5 433 L 142.5 432 Z " /><path fill="rgb(0,89,163)" stroke="rgb(0,89,163)" stroke-width="1" opacity="0.9921568627450981" d="M 167.5 432 L 177 432.5 L 167.5 433 L 167.5 432 Z " /><path fill="rgb(0,89,163)" stroke="rgb(0,89,163)" stroke-width="1" opacity="0.9921568627450981" d="M 189.5 432 L 192 432.5 L 189.5 433 L 189.5 432 Z " /><path fill="rgb(0,89,163)" stroke="rgb(0,89,163)" stroke-width="1" opacity="0.9921568627450981" d="M 231.5 432 L 236 432.5 L 231.5 433 L 231.5 432 Z " /><path fill="rgb(0,89,163)" stroke="rgb(0,89,163)" stroke-width="1" opacity="0.9921568627450981" d="M 336.5 432 L 341 432.5 L 336.5 433 L 336.5 432 Z " /><path fill="rgb(0,89,163)" stroke="rgb(0,89,163)" stroke-width="1" opacity="0.9921568627450981" d="M 220.5 433 L 222.5 434 L 237 434.5 L 218.5 435 L 218.5 434 L 220.5 433 Z " /><path fill="rgb(0,89,163)" stroke="rgb(0,89,163)" stroke-width="1" opacity="0.9921568627450981" d="M 202.5 434 L 205 434.5 L 202.5 435 L 202.5 434 Z " /><path fill="rgb(0,89,163)" stroke="rgb(0,89,163)" stroke-width="1" opacity="0.9921568627450981" d="M 238.5 434 L 247 434.5 L 238.5 435 L 238.5 434 Z " /><path fill="rgb(0,89,163)" stroke="rgb(0,89,163)" stroke-width="1" opacity="0.9921568627450981" d="M 168.5 435 L 175 435.5 L 168.5 436 L 168.5 435 Z " /><path fill="rgb(0,89,163)" stroke="rgb(0,89,163)" stroke-width="1" opacity="0.9921568627450981" d="M 260.5 435 L 280 435.5 L 260.5 436 L 260.5 435 Z " /><path fill="rgb(0,89,163)" stroke="rgb(0,89,163)" stroke-width="1" opacity="0.9921568627450981" d="M 382.5 435 L 387 435.5 L 382.5 436 L 382.5 435 Z " /><path fill="rgb(0,89,163)" stroke="rgb(0,89,163)" stroke-width="1" opacity="0.9921568627450981" d="M 445.5 435 L 448 435.5 L 445.5 436 L 445.5 435 Z " /><path fill="rgb(0,89,163)" stroke="rgb(0,89,163)" stroke-width="1" opacity="0.9921568627450981" d="M 460.5 435 L 463 435.5 L 460.5 436 L 460.5 435 Z " /><path fill="rgb(0,89,163)" stroke="rgb(0,89,163)" stroke-width="1" opacity="0.9921568627450981" d="M 318.5 436 L 321 436.5 L 318.5 437 L 318.5 436 Z " /><path fill="rgb(0,89,163)" stroke="rgb(0,89,163)" stroke-width="1" opacity="0.9921568627450981" d="M 399.5 436 L 403 436.5 L 399.5 437 L 399.5 436 Z " /><path fill="rgb(0,89,163)" stroke="rgb(0,89,163)" stroke-width="1" opacity="0.9921568627450981" d="M 436.5 436 L 439 436.5 L 436.5 437 L 436.5 436 Z " /><path fill="rgb(0,89,163)" stroke="rgb(0,89,163)" stroke-width="1" opacity="0.9921568627450981" d="M 328.5 437 L 331 437.5 L 328.5 438 L 328.5 437 Z " /><path fill="rgb(0,89,163)" stroke="rgb(0,89,163)" stroke-width="1" opacity="0.9921568627450981" d="M 410.5 437 L 416 437.5 L 410.5 438 L 410.5 437 Z " /><path fill="rgb(0,89,163)" stroke="rgb(0,89,163)" stroke-width="1" opacity="0.9921568627450981" d="M 423.5 437 L 428 437.5 L 423.5 438 L 423.5 437 Z " /><path fill="rgb(0,89,163)" stroke="rgb(0,89,163)" stroke-width="1" opacity="0.9921568627450981" d="M 338.5 438 L 341 438.5 L 338.5 439 L 338.5 438 Z " /><path fill="rgb(0,89,163)" stroke="rgb(0,89,163)" stroke-width="1" opacity="0.9921568627450981" d="M 348.5 439 L 354 439.5 L 348.5 440 L 348.5 439 Z " /><path fill="rgb(0,89,163)" stroke="rgb(0,89,163)" stroke-width="1" opacity="0.9921568627450981" d="M 378.5 440 L 385 440.5 L 378.5 441 L 378.5 440 Z " /><path fill="rgb(0,89,163)" stroke="rgb(0,89,163)" stroke-width="1" opacity="0.9921568627450981" d="M 399.5 441 L 405 441.5 L 399.5 442 L 399.5 441 Z " /><path fill="rgb(0,89,163)" stroke="rgb(0,89,163)" stroke-width="1" opacity="0.9921568627450981" d="M 422.5 442 L 428 442.5 L 422.5 443 L 422.5 442 Z " /><path fill="rgb(0,89,163)" stroke="rgb(0,89,163)" stroke-width="1" opacity="0.9921568627450981" d="M 437.5 443 L 440 443.5 L 437.5 444 L 437.5 443 Z " /><path fill="rgb(0,89,163)" stroke="rgb(0,89,163)" stroke-width="1" opacity="0.9921568627450981" d="M 448.5 444 L 456 444.5 L 448.5 445 L 448.5 444 Z " /><path fill="rgb(0,89,163)" stroke="rgb(0,89,163)" stroke-width="1" opacity="0.9921568627450981" d="M 460.5 444 L 469 444.5 L 460.5 445 L 460.5 444 Z " /><path fill="rgb(0,143,252)" stroke="rgb(0,143,252)" stroke-width="1" opacity="0.9921568627450981" d="M 316.5 176 L 325.5 177 L 341.5 184 L 357.5 189 L 374.5 198 L 382.5 204 L 391 212.5 L 399 225.5 L 402 232.5 L 418 256.5 L 423 266.5 L 423 268.5 L 427 275.5 L 427 277.5 L 430 282.5 L 430 284.5 L 433 289.5 L 433 291.5 L 439 304.5 L 440 309.5 L 442 312.5 L 443 317.5 L 445 320.5 L 448 329.5 L 448 332.5 L 451 341.5 L 457 354.5 L 450.5 355 L 442 335.5 L 442 333.5 L 439 328.5 L 439 326.5 L 436 321.5 L 436 319.5 L 434 316.5 L 433 311.5 L 431 308.5 L 427 296.5 L 406 259.5 L 398 235.5 L 395 229.5 L 384 213.5 L 374.5 204 L 352.5 193 L 331.5 186 L 328.5 186 L 327.5 185 L 318.5 185 L 315 186.5 L 315 197.5 L 316 198.5 L 316 209.5 L 317 210.5 L 317 226.5 L 318 227.5 L 318 236.5 L 319 237.5 L 319 250.5 L 320 251.5 L 320 262.5 L 321 263.5 L 321 274.5 L 322 276.5 L 321 277.5 L 321 294.5 L 320 295.5 L 320 311.5 L 319 312.5 L 319 330.5 L 318 331.5 L 318 340.5 L 317 341.5 L 316.5 358 L 310 357.5 L 310 343.5 L 311 342.5 Q 309 341.5 311 340.5 L 311 289.5 L 312 288.5 L 312 268.5 L 313 267.5 L 313 255.5 L 312 254.5 L 312 231.5 L 311 230.5 L 311 201.5 L 310 200.5 L 310 182.5 L 313.5 177 L 316.5 176 Z " /><path fill="rgb(0,143,252)" stroke="rgb(0,143,252)" stroke-width="1" opacity="0.9921568627450981" d="M 271.5 182 L 280.5 182 L 283 183.5 L 284 185.5 L 284 195.5 L 283 196.5 L 283 203.5 L 282 204.5 L 282 210.5 L 281 211.5 L 281 218.5 L 280 219.5 L 280 233.5 L 279 234.5 L 279 271.5 L 280 272.5 L 280 282.5 L 281 283.5 L 281 296.5 L 282 297.5 L 282 316.5 L 283 317.5 L 283 325.5 L 284 326.5 L 284 356.5 L 274.5 357 L 274 333.5 L 273 332.5 L 273 317.5 L 272 316.5 L 272 272.5 L 271 271.5 L 271 243.5 L 272 242.5 L 272 236.5 L 274 231.5 L 274 227.5 L 277 219.5 L 278 211.5 L 279 210.5 L 280 197.5 L 278 192.5 L 274.5 189 L 268.5 188 L 254.5 194 L 245.5 200 L 233.5 209 L 218 223.5 L 209 235.5 L 194 260.5 L 192 265.5 L 190 267.5 L 182 283.5 L 182 285.5 L 177 295.5 L 175 302.5 L 166 321.5 L 157.5 351 L 152 350.5 L 159 325.5 L 161 322.5 L 161 320.5 L 163 317.5 L 163 315.5 L 165 312.5 L 165 310.5 L 167 307.5 L 171 295.5 L 180 278.5 L 180 276.5 L 186 264.5 L 191 256.5 L 191 254.5 L 196 244.5 L 214 216.5 L 226.5 204 L 235.5 197 L 252.5 188 L 254.5 188 L 263.5 184 L 270.5 183 L 271.5 182 Z " /><path fill="rgb(0,143,252)" stroke="rgb(0,143,252)" stroke-width="1" opacity="0.9921568627450981" d="M 151.5 353 L 152.5 354 L 157 354.5 L 156 355.5 L 153 370.5 L 151 374.5 L 151 377.5 L 146 392.5 L 135 415.5 L 132 424.5 L 129 428.5 L 129 430.5 L 131.5 433 L 144.5 433 L 145.5 432 L 166.5 432 L 167.5 433 L 176.5 433 L 177.5 432 L 188.5 432 L 189.5 433 L 196.5 433 L 197.5 434 L 202 434.5 L 168.5 435 L 167.5 436 L 121.5 436 L 121 435.5 L 123 433.5 L 123 431.5 L 128 421.5 L 130 415.5 L 130 412.5 L 133 405.5 L 133 402.5 L 137 393.5 L 143 373.5 L 147 365.5 L 150 354.5 L 151.5 353 Z " /><path fill="rgb(0,143,252)" stroke="rgb(0,143,252)" stroke-width="1" opacity="0.9921568627450981" d="M 452.5 358 Q 457.8 356.8 459 359.5 L 460 364.5 L 462 367.5 L 465 376.5 L 466 383.5 L 467 384.5 L 467 388.5 L 468 389.5 L 470 403.5 L 471 404.5 L 472 412.5 L 473 413.5 L 474 421.5 L 475 422.5 L 475 429.5 L 476 430.5 L 476 439.5 Q 477.8 440.3 477 443.5 L 460.5 444 Q 459.8 445.8 456.5 445 L 455.5 444 L 440.5 444 L 439.5 443 L 428.5 443 L 427.5 442 L 405.5 442 L 404.5 441 L 385.5 441 L 384.5 440 L 354.5 440 L 353.5 439 L 341.5 439 L 340.5 438 L 331.5 438 L 330.5 437 L 311.5 436 L 309 434.5 L 310 432.5 L 310 410.5 L 309 409.5 L 309 368.5 L 310 367.5 L 310.5 361 L 317 361.5 L 316 364.5 L 316 397.5 L 315 398.5 L 315 421.5 L 319.5 429 L 326.5 432 L 345.5 433 L 346.5 434 L 352.5 434 L 353.5 435 L 381.5 435 L 382.5 436 L 398.5 436 L 399.5 437 L 409.5 437 L 410.5 438 L 427.5 438 L 428.5 437 L 438.5 437 L 439.5 436 L 447.5 436 L 448.5 435 L 459.5 435 L 460.5 436 L 471.5 437 L 472 434.5 L 468 427.5 L 466 421.5 L 466 418.5 L 464 414.5 L 464 411.5 L 461 404.5 L 460 396.5 L 459 395.5 L 459 389.5 L 458 388.5 L 457 376.5 L 456 375.5 L 455 367.5 L 452 360.5 L 452.5 358 Z " /><path fill="rgb(0,143,252)" stroke="rgb(0,143,252)" stroke-width="1" opacity="0.9921568627450981" d="M 274.5 360 L 284 360.5 L 284 376.5 L 283 377.5 L 283 400.5 L 282 401.5 L 282 412.5 L 281 413.5 L 281 423.5 L 280 424.5 L 279.5 435 L 247.5 435 L 246.5 434 L 222 433.5 L 235.5 433 L 236.5 432 L 253.5 432 Q 254.8 429.8 259.5 431 L 265.5 429 L 271 423.5 L 273 417.5 L 273 408.5 L 274 407.5 L 274.5 360 Z " /><path fill="rgb(124,125,0)" stroke="rgb(124,125,0)" stroke-width="1" opacity="0.9921568627450981" d="M 318.5 151 L 328 151.5 L 318.5 152 L 318.5 151 Z " /><path fill="rgb(124,125,0)" stroke="rgb(124,125,0)" stroke-width="1" opacity="0.9921568627450981" d="M 337.5 151 L 342 151.5 L 337.5 152 L 337.5 151 Z " /><path fill="rgb(124,125,0)" stroke="rgb(124,125,0)" stroke-width="1" opacity="0.9921568627450981" d="M 285.5 152 L 288 152.5 L 285.5 153 L 285.5 152 Z " /><path fill="rgb(124,125,0)" stroke="rgb(124,125,0)" stroke-width="1" opacity="0.9921568627450981" d="M 287.5 188 L 288 190.5 L 287 190.5 L 287.5 188 Z " /><path fill="rgb(124,125,0)" stroke="rgb(124,125,0)" stroke-width="1" opacity="0.9921568627450981" d="M 405.5 189 L 413 196.5 L 412.5 197 L 405 189.5 L 405.5 189 Z " /><path fill="rgb(124,125,0)" stroke="rgb(124,125,0)" stroke-width="1" opacity="0.9921568627450981" d="M 306.5 193 L 307 198.5 L 306 198.5 L 306.5 193 Z " /><path fill="rgb(124,125,0)" stroke="rgb(124,125,0)" stroke-width="1" opacity="0.9921568627450981" d="M 188.5 194 L 189 194.5 L 180.5 203 L 180 202.5 L 188.5 194 Z " /><path fill="rgb(124,125,0)" stroke="rgb(124,125,0)" stroke-width="1" opacity="0.9921568627450981" d="M 218.5 207 L 219 207.5 L 215.5 211 L 215 210.5 L 218.5 207 Z " /><path fill="rgb(124,125,0)" stroke="rgb(124,125,0)" stroke-width="1" opacity="0.9921568627450981" d="M 307.5 222 L 308 225.5 L 307 225.5 L 307.5 222 Z " /><path fill="rgb(124,125,0)" stroke="rgb(124,125,0)" stroke-width="1" opacity="0.9921568627450981" d="M 283.5 224 L 284 226.5 L 283 226.5 L 283.5 224 Z " /><path fill="rgb(124,125,0)" stroke="rgb(124,125,0)" stroke-width="1" opacity="0.9921568627450981" d="M 282.5 242 L 283 255.5 L 282 255.5 L 282.5 242 Z " /><path fill="rgb(124,125,0)" stroke="rgb(124,125,0)" stroke-width="1" opacity="0.9921568627450981" d="M 308.5 247 L 309 250.5 L 308 250.5 L 308.5 247 Z " /><path fill="rgb(124,125,0)" stroke="rgb(124,125,0)" stroke-width="1" opacity="0.9921568627450981" d="M 493.5 265 L 497 268.5 L 496.5 269 L 493 265.5 L 493.5 265 Z " /><path fill="rgb(124,125,0)" stroke="rgb(124,125,0)" stroke-width="1" opacity="0.9921568627450981" d="M 123.5 267 L 124 267.5 L 117.5 274 L 117 273.5 L 123.5 267 Z " /><path fill="rgb(124,125,0)" stroke="rgb(124,125,0)" stroke-width="1" opacity="0.9921568627450981" d="M 308.5 273 L 309 276.5 L 308 276.5 L 308.5 273 Z " /><path fill="rgb(124,125,0)" stroke="rgb(124,125,0)" stroke-width="1" opacity="0.9921568627450981" d="M 109.5 280 L 110 280.5 L 105.5 285 L 105 284.5 L 109.5 280 Z " /><path fill="rgb(124,125,0)" stroke="rgb(124,125,0)" stroke-width="1" opacity="0.9921568627450981" d="M 285.5 297 L 286 308.5 L 285 308.5 L 285.5 297 Z " /><path fill="rgb(124,125,0)" stroke="rgb(124,125,0)" stroke-width="1" opacity="0.9921568627450981" d="M 307.5 298 L 308 309.5 L 307 309.5 L 307.5 298 Z " /><path fill="rgb(124,125,0)" stroke="rgb(124,125,0)" stroke-width="1" opacity="0.9921568627450981" d="M 287.5 326 L 288 328.5 L 287 328.5 L 287.5 326 Z " /><path fill="rgb(124,125,0)" stroke="rgb(124,125,0)" stroke-width="1" opacity="0.9921568627450981" d="M 99.5 354 L 105 354.5 L 99.5 355 L 99.5 354 Z " /><path fill="rgb(124,125,0)" stroke="rgb(124,125,0)" stroke-width="1" opacity="0.9921568627450981" d="M 490.5 354 L 495 354.5 L 490.5 355 L 490.5 354 Z " /><path fill="rgb(159,159,159)" stroke="rgb(159,159,159)" stroke-width="1" opacity="0.9921568627450981" d="M 325.5 189 L 327 189.5 L 327.5 191 L 330.5 190 L 331.5 192 L 334.5 191 L 334.5 193 L 337.5 192 L 337.5 194 L 339.5 193 L 340.5 195 L 342.5 194 L 343.5 196 L 345.5 195 L 346.5 197 L 348.5 196 L 349.5 198 L 351.5 197 L 351.5 199 L 353.5 198 L 354.5 200 L 356.5 199 L 357.5 201 L 359 200.5 L 359.5 202 L 361 201.5 L 361.5 203 L 365.5 205 L 367 204.5 L 367.5 206 L 369 205.5 L 369.5 207 Q 370.8 204.8 372 207.5 L 373.5 210 L 374.5 209 L 379 213.5 Q 376.7 214.7 379.5 216 L 382 217.5 Q 379.8 218.8 382.5 220 L 384 220.5 Q 381.8 221.8 384.5 223 L 387 224.5 Q 385 225.5 387 226.5 L 387.5 228 L 389 227.5 Q 387 228.5 389 229.5 L 389.5 231 L 391 230.5 L 390.5 232 L 392 232.5 L 391.5 234 L 393 234.5 L 392.5 236 L 394 236.5 L 393 238.5 L 395 239.5 L 394 241.5 L 396 241.5 L 395 244.5 L 397 245.5 L 396 247.5 L 398 248.5 L 397 250.5 L 399 250.5 L 398 253.5 L 400 253.5 L 399 255.5 L 401 256.5 L 400.5 258 L 402 258.5 L 401 260.5 L 403 260.5 L 402 262.5 L 404 262.5 L 403 264.5 L 405 264.5 L 404 266.5 L 406 266.5 L 405 268.5 L 407 268.5 L 406.5 270 L 408 270.5 L 407.5 272 L 409 272.5 Q 407 273.5 409 274.5 L 409.5 276 L 411 275.5 L 410 277.5 L 412 277.5 L 411.5 279 L 413 279.5 L 412.5 281 L 414 281.5 L 413.5 283 L 415 283.5 Q 413 284.5 415 285.5 L 415.5 287 L 417 286.5 L 416.5 288 L 418 288.5 Q 416 289.5 418 290.5 L 418.5 292 L 420 291.5 L 419 293.5 L 421 293.5 L 420.5 295 L 422 295.5 L 421.5 297 L 423 297.5 L 422 299.5 L 424 299.5 L 423 301.5 L 425 302.5 L 424.5 304 L 426 304.5 L 425 306.5 L 427 307.5 L 426 309.5 L 428 309.5 L 427 311.5 L 429 312.5 L 428 314.5 L 430 315.5 L 429 317.5 L 431 317.5 L 430 319.5 L 432 320.5 L 431 322.5 L 433 322.5 L 432 324.5 L 434 325.5 L 433.5 327 L 435 327.5 L 434 329.5 L 436 329.5 L 435 331.5 L 437 331.5 L 436 333.5 L 438 334.5 L 437 336.5 L 439 336.5 L 438 338.5 L 440 339.5 L 439.5 341 L 441 341.5 L 440 343.5 L 442 343.5 L 441 345.5 L 443 346.5 L 442 348.5 L 444 348.5 L 443 350.5 L 445 351.5 L 444.5 353 L 446 353.5 L 445 354.5 L 445.5 356 L 426.5 356 L 425.5 355 L 414.5 355 L 414.5 357 L 406.5 356 L 406.5 358 L 400.5 357 L 400.5 359 L 397.5 358 L 392.5 358 L 392.5 360 Q 387.8 361.3 386.5 359 L 334.5 359 Q 333.3 361.3 328.5 360 L 328.5 359 L 330 358.5 L 322.5 358 L 321 358.5 L 321 346.5 Q 319 345.5 320 341.5 L 322 341.5 L 321 330.5 L 322 330.5 L 322.5 332 L 323 321.5 L 322 320.5 L 322 311.5 L 323 311.5 L 323.5 314 L 324 300.5 Q 322 299.5 323 295.5 L 325 295.5 L 325 287.5 L 324 286.5 L 324 268.5 Q 326.2 267.3 325 262.5 L 323 262.5 Q 322.3 259.3 324 258.5 L 324 248.5 L 323 248.5 L 322.5 252 L 322 243.5 L 323 242.5 L 323 236.5 L 321 236.5 Q 320.3 233.2 322 232.5 L 322 225.5 L 321 225.5 L 320.5 227 L 320 218.5 L 321 217.5 L 321 208.5 L 319 208.5 Q 318.3 205.3 320 204.5 L 320 196.5 L 319 196.5 L 318.5 198 L 318 192.5 L 319 191.5 L 318.5 190 Q 319.5 192 320.5 190 Q 324.5 191 325.5 189 Z M 326 272 L 325 282 L 326 282 L 326 272 Z " /><path fill="rgb(159,159,159)" stroke="rgb(159,159,159)" stroke-width="1" opacity="0.9921568627450981" d="M 265.5 192 L 266.5 193 L 272.5 193 L 274 192.5 L 274.5 195 L 276 194.5 Q 274.3 195.3 275 198.5 L 277 198.5 L 276.5 204 L 275 203.5 L 276 210.5 L 274 210.5 L 275 214.5 L 273 214.5 L 274 218.5 L 272 218.5 L 273 222.5 L 271 222.5 L 272 226.5 L 270 226.5 L 271 230.5 L 269 230.5 L 270 235.5 L 268 235.5 L 269 241.5 L 267 241.5 L 267.5 280 L 268.5 274 L 269 295.5 L 268 296.5 L 268 321.5 L 269 321.5 L 269.5 319 L 270 326.5 L 269 327.5 L 269 334.5 L 271 334.5 Q 272 338.5 270 339.5 L 269.5 356 L 231.5 356 Q 230.3 358.3 225.5 357 L 225.5 356 L 227 355.5 L 216.5 355 L 215.5 356 L 209.5 356 L 209.5 355 L 212 354.5 L 203.5 354 Q 202.8 355.8 199.5 355 L 199.5 353 L 190.5 354 L 190.5 352 L 179.5 353 L 179.5 352 L 181 351.5 L 164.5 351 L 162.5 352 L 161 349.5 L 163 348.5 L 162 345.5 L 164 345.5 L 163 341.5 L 165 341.5 L 164 338.5 L 166 337.5 L 165 334.5 L 167 334.5 L 166 331.5 L 168 330.5 L 167 327.5 L 169 327.5 L 168 324.5 L 170 324.5 L 169 322.5 L 171 321.5 L 170 319.5 L 172 319.5 L 171 317.5 L 173 317.5 L 172 315.5 L 174 314.5 L 173.5 313 L 175 312.5 L 174 310.5 L 176 310.5 L 175 308.5 L 177 308.5 L 176 306.5 L 178 305.5 L 177 303.5 L 179 303.5 L 178 301.5 L 180 300.5 L 179.5 299 L 181 298.5 L 180 296.5 L 182 296.5 L 181 294.5 L 183 293.5 L 182 291.5 L 184 291.5 L 183 289.5 L 185 288.5 L 184.5 287 L 186 286.5 L 185 284.5 L 187 284.5 L 186 282.5 L 188 281.5 L 187.5 280 L 189 279.5 L 191 275.5 L 190.5 274 L 192 273.5 L 191.5 272 L 193 271.5 L 192.5 270 L 194 269.5 L 193.5 268 L 195 268.5 L 196 266.5 L 195.5 265 L 197 264.5 L 196.5 263 L 198 262.5 Q 195.8 261.2 198.5 260 L 200 259.5 L 199.5 258 L 201 258.5 L 202 256.5 L 201.5 255 L 203 254.5 L 202.5 253 L 204 252.5 Q 201.8 251.3 204.5 250 L 206 249.5 L 205.5 248 L 207 247.5 L 206.5 246 L 208 246.5 L 209 244.5 L 208.5 243 L 210 242.5 L 209.5 241 L 211 241.5 L 212 239.5 L 211.5 238 L 214 236.5 L 213.5 235 L 216 233.5 L 215.5 232 L 218 230.5 Q 215.7 229.3 218.5 228 L 231 216.5 L 234.5 212 Q 235.8 214.3 237 211.5 L 238.5 209 Q 239.7 211.3 241 208.5 L 242.5 206 Q 243.8 208.3 245 205.5 L 246.5 203 Q 247.5 205 248.5 203 L 250 202.5 L 249.5 201 Q 250.5 203 251.5 201 L 253 200.5 L 252.5 199 Q 253.5 201 254.5 199 L 256 198.5 L 255.5 197 L 257 197.5 L 257.5 196 Q 258.5 198 259.5 196 L 263 194.5 L 263.5 193 L 265.5 194 L 265.5 192 Z " /><path fill="rgb(159,159,159)" stroke="rgb(159,159,159)" stroke-width="1" opacity="0.9921568627450981" d="M 243.5 357 L 255 357.5 L 243.5 358 L 243.5 357 Z " /><path fill="rgb(159,159,159)" stroke="rgb(159,159,159)" stroke-width="1" opacity="0.9921568627450981" d="M 346.5 360 L 363 360.5 L 346.5 361 L 346.5 360 Z " /><path fill="rgb(193,195,0)" stroke="rgb(193,195,0)" stroke-width="1" opacity="0.9921568627450981" d="M 328.5 151 L 337 151.5 L 328.5 152 L 328.5 151 Z " /><path fill="rgb(193,195,0)" stroke="rgb(193,195,0)" stroke-width="1" opacity="0.9921568627450981" d="M 288.5 152 L 292 152.5 L 288.5 153 L 288.5 152 Z " /><path fill="rgb(193,195,0)" stroke="rgb(193,195,0)" stroke-width="1" opacity="0.9921568627450981" d="M 347.5 152 L 350 152.5 L 347.5 153 L 347.5 152 Z " /><path fill="rgb(193,195,0)" stroke="rgb(193,195,0)" stroke-width="1" opacity="0.9921568627450981" d="M 315.5 172 L 318 172.5 L 315.5 173 L 315.5 172 Z " /><path fill="rgb(193,195,0)" stroke="rgb(193,195,0)" stroke-width="1" opacity="0.9921568627450981" d="M 274.5 178 L 279 178.5 L 274.5 179 L 274.5 178 Z " /><path fill="rgb(193,195,0)" stroke="rgb(193,195,0)" stroke-width="1" opacity="0.9921568627450981" d="M 287.5 191 L 288 194.5 L 287 194.5 L 287.5 191 Z " /><path fill="rgb(193,195,0)" stroke="rgb(193,195,0)" stroke-width="1" opacity="0.9921568627450981" d="M 413.5 197 L 416 199.5 L 415.5 200 L 413 197.5 L 413.5 197 Z " /><path fill="rgb(193,195,0)" stroke="rgb(193,195,0)" stroke-width="1" opacity="0.9921568627450981" d="M 306.5 199 L 307 201.5 L 306 201.5 L 306.5 199 Z " /><path fill="rgb(193,195,0)" stroke="rgb(193,195,0)" stroke-width="1" opacity="0.9921568627450981" d="M 179.5 203 L 180 203.5 L 177.5 206 L 177 205.5 L 179.5 203 Z " /><path fill="rgb(193,195,0)" stroke="rgb(193,195,0)" stroke-width="1" opacity="0.9921568627450981" d="M 222.5 203 L 223 203.5 L 219.5 207 L 219 206.5 L 222.5 203 Z " /><path fill="rgb(193,195,0)" stroke="rgb(193,195,0)" stroke-width="1" opacity="0.9921568627450981" d="M 387.5 203 L 392 207.5 L 391.5 208 L 387 203.5 L 387.5 203 Z " /><path fill="rgb(193,195,0)" stroke="rgb(193,195,0)" stroke-width="1" opacity="0.9921568627450981" d="M 214.5 211 L 215 211.5 L 212.5 214 L 212 213.5 L 214.5 211 Z " /><path fill="rgb(193,195,0)" stroke="rgb(193,195,0)" stroke-width="1" opacity="0.9921568627450981" d="M 307.5 226 L 308 230.5 L 307 230.5 L 307.5 226 Z " /><path fill="rgb(193,195,0)" stroke="rgb(193,195,0)" stroke-width="1" opacity="0.9921568627450981" d="M 283.5 227 L 284 231.5 L 283 231.5 L 283.5 227 Z " /><path fill="rgb(193,195,0)" stroke="rgb(193,195,0)" stroke-width="1" opacity="0.9921568627450981" d="M 308.5 251 L 309 256.5 L 308 256.5 L 308.5 251 Z " /><path fill="rgb(193,195,0)" stroke="rgb(193,195,0)" stroke-width="1" opacity="0.9921568627450981" d="M 489.5 261 L 493 264.5 L 492.5 265 L 489 261.5 L 489.5 261 Z " /><path fill="rgb(193,195,0)" stroke="rgb(193,195,0)" stroke-width="1" opacity="0.9921568627450981" d="M 126.5 264 L 127 264.5 L 124.5 267 L 124 266.5 L 126.5 264 Z " /><path fill="rgb(193,195,0)" stroke="rgb(193,195,0)" stroke-width="1" opacity="0.9921568627450981" d="M 308.5 266 L 309 272.5 L 308 272.5 L 308.5 266 Z " /><path fill="rgb(193,195,0)" stroke="rgb(193,195,0)" stroke-width="1" opacity="0.9921568627450981" d="M 283.5 272 L 284 275.5 L 283 275.5 L 283.5 272 Z " /><path fill="rgb(193,195,0)" stroke="rgb(193,195,0)" stroke-width="1" opacity="0.9921568627450981" d="M 116.5 274 L 117 274.5 L 114.5 277 L 114 276.5 L 116.5 274 Z " /><path fill="rgb(193,195,0)" stroke="rgb(193,195,0)" stroke-width="1" opacity="0.9921568627450981" d="M 509.5 282 L 517 289.5 L 516.5 290 L 509 282.5 L 509.5 282 Z " /><path fill="rgb(193,195,0)" stroke="rgb(193,195,0)" stroke-width="1" opacity="0.9921568627450981" d="M 307.5 291 L 308 297.5 L 307 297.5 L 307.5 291 Z " /><path fill="rgb(193,195,0)" stroke="rgb(193,195,0)" stroke-width="1" opacity="0.9921568627450981" d="M 285.5 292 L 286 296.5 L 285 296.5 L 285.5 292 Z " /><path fill="rgb(193,195,0)" stroke="rgb(193,195,0)" stroke-width="1" opacity="0.9921568627450981" d="M 286.5 315 L 287 317.5 L 286 317.5 L 286.5 315 Z " /><path fill="rgb(193,195,0)" stroke="rgb(193,195,0)" stroke-width="1" opacity="0.9921568627450981" d="M 134.5 349 L 145 349.5 L 134.5 350 L 134.5 349 Z " /><path fill="rgb(193,195,0)" stroke="rgb(193,195,0)" stroke-width="1" opacity="0.9921568627450981" d="M 503.5 353 L 517 353.5 L 503.5 354 L 503.5 353 Z " /><path fill="rgb(193,195,0)" stroke="rgb(193,195,0)" stroke-width="1" opacity="0.9921568627450981" d="M 91.5 354 L 99 354.5 L 91.5 355 L 91.5 354 Z " /><path fill="rgb(193,195,0)" stroke="rgb(193,195,0)" stroke-width="1" opacity="0.9921568627450981" d="M 487.5 354 L 490 354.5 L 487.5 355 L 487.5 354 Z " /><path fill="rgb(193,195,0)" stroke="rgb(193,195,0)" stroke-width="1" opacity="0.9921568627450981" d="M 306.5 355 L 307 357.5 L 306 357.5 L 306.5 355 Z " /><path fill="rgb(193,195,0)" stroke="rgb(193,195,0)" stroke-width="1" opacity="0.9921568627450981" d="M 66.5 356 L 75 356.5 L 66.5 357 L 66.5 356 Z " /><path fill="rgb(193,195,0)" stroke="rgb(193,195,0)" stroke-width="1" opacity="0.9921568627450981" d="M 288.5 357 L 305 357.5 L 288.5 358 L 288.5 357 Z " /><path fill="rgb(250,254,0)" stroke="rgb(250,254,0)" stroke-width="1" opacity="0.996078431372549" d="M 292.5 152 L 346.5 152 L 347.5 153 L 353.5 153 L 354.5 154 L 358.5 154 L 359.5 155 L 366.5 156 L 380.5 162 L 382.5 162 L 389 165.5 L 394 176.5 L 403 187.5 L 415.5 200 L 434.5 213 L 452.5 221 L 464 224.5 L 466 231.5 L 478 248.5 L 489 261.5 L 520 293.5 L 521 302.5 L 527 315.5 L 546 343.5 L 554 357.5 L 552.5 358 L 551.5 357 Q 546.8 358.3 545.5 356 L 534.5 356 L 533.5 355 L 517.5 354 L 516.5 353 L 503.5 353 L 502.5 354 L 487.5 354 L 486.5 355 L 461.5 355 L 456 342.5 L 442 300.5 L 436 288.5 L 436 286.5 L 433 281.5 L 433 279.5 L 430 274.5 L 427 265.5 L 416 245.5 L 405 229.5 L 399 217.5 L 392 207.5 L 387.5 203 L 372.5 192 L 358.5 185 L 344.5 181 L 326.5 173 L 315.5 172 L 312.5 173 L 308 177.5 L 306 182.5 L 306 201.5 L 307 202.5 L 307 230.5 L 308 231.5 L 308 256.5 L 309 257.5 L 309 265.5 L 308 266.5 L 308 290.5 L 307 291.5 L 307 354.5 L 305.5 358 L 304.5 357 L 288 356.5 L 288 324.5 L 287 323.5 L 287 315.5 L 286 314.5 L 286 292.5 L 285 291.5 L 285 282.5 L 284 281.5 L 284 272.5 L 283 271.5 L 283 232.5 L 284 231.5 L 284 217.5 L 285 216.5 L 285 210.5 L 286 209.5 L 286 203.5 L 287 202.5 L 288 186.5 L 284.5 180 L 278.5 178 L 274.5 178 L 273.5 179 L 268.5 179 L 267.5 180 L 264.5 180 L 255.5 183 L 242.5 189 L 229.5 197 L 212 213.5 L 195 239.5 L 168 293.5 L 163 308.5 L 155 326.5 L 155 329.5 L 152 336.5 L 152 339.5 L 148.5 350 Q 145.3 350.8 144.5 349 L 134.5 349 L 133.5 350 L 127.5 350 L 126.5 351 L 121.5 351 L 120.5 352 L 110.5 353 L 109.5 354 L 91.5 354 L 90.5 355 L 81.5 355 L 80.5 356 L 66.5 356 Q 65.5 358 61.5 357 L 61 356.5 L 64 353.5 L 77 337.5 L 88 320.5 L 98 300.5 L 98 298.5 L 103.5 286 Q 116.4 276.4 127 264.5 L 137 250.5 L 147 229.5 L 151.5 225 L 177.5 206 L 191 192.5 L 201 178.5 L 205.5 174 L 223.5 166 L 229.5 164 L 232.5 164 L 236.5 162 L 239.5 162 L 240.5 161 L 243.5 161 L 252.5 158 L 256.5 158 L 257.5 157 L 266.5 156 L 267.5 155 L 279.5 154 L 280.5 153 L 291.5 153 L 292.5 152 Z " /><path fill="rgb(82,82,65)" stroke="rgb(82,82,65)" stroke-width="1" opacity="0.996078431372549" d="M 320.5 188 L 323 188.5 L 320.5 189 L 320.5 188 Z " /><path fill="rgb(82,82,65)" stroke="rgb(82,82,65)" stroke-width="1" opacity="0.996078431372549" d="M 318.5 198 L 319 201.5 L 318 201.5 L 318.5 198 Z " /><path fill="rgb(82,82,65)" stroke="rgb(82,82,65)" stroke-width="1" opacity="0.996078431372549" d="M 276.5 204 L 277 206.5 L 276 206.5 L 276.5 204 Z " /><path fill="rgb(82,82,65)" stroke="rgb(82,82,65)" stroke-width="1" opacity="0.996078431372549" d="M 319.5 209 L 320 212.5 L 319 212.5 L 319.5 209 Z " /><path fill="rgb(82,82,65)" stroke="rgb(82,82,65)" stroke-width="1" opacity="0.996078431372549" d="M 307.5 216 L 308 219.5 L 307 219.5 L 307.5 216 Z " /><path fill="rgb(82,82,65)" stroke="rgb(82,82,65)" stroke-width="1" opacity="0.996078431372549" d="M 226.5 219 L 227 219.5 L 220.5 226 L 220 225.5 L 226.5 219 Z " /><path fill="rgb(82,82,65)" stroke="rgb(82,82,65)" stroke-width="1" opacity="0.996078431372549" d="M 320.5 227 L 321 230.5 L 320 230.5 L 320.5 227 Z " /><path fill="rgb(82,82,65)" stroke="rgb(82,82,65)" stroke-width="1" opacity="0.996078431372549" d="M 321.5 237 L 322 239.5 L 321 239.5 L 321.5 237 Z " /><path fill="rgb(82,82,65)" stroke="rgb(82,82,65)" stroke-width="1" opacity="0.996078431372549" d="M 268.5 242 L 269 244.5 L 268 244.5 L 268.5 242 Z " /><path fill="rgb(82,82,65)" stroke="rgb(82,82,65)" stroke-width="1" opacity="0.996078431372549" d="M 322.5 252 L 323 256.5 L 322 256.5 L 322.5 252 Z " /><path fill="rgb(82,82,65)" stroke="rgb(82,82,65)" stroke-width="1" opacity="0.996078431372549" d="M 268.5 263 L 269 273.5 L 268 273.5 L 268.5 263 Z " /><path fill="rgb(82,82,65)" stroke="rgb(82,82,65)" stroke-width="1" opacity="0.996078431372549" d="M 323.5 263 L 324 265.5 L 323 265.5 L 323.5 263 Z " /><path fill="rgb(82,82,65)" stroke="rgb(82,82,65)" stroke-width="1" opacity="0.996078431372549" d="M 323.5 291 L 324 294.5 L 323 294.5 L 323.5 291 Z " /><path fill="rgb(82,82,65)" stroke="rgb(82,82,65)" stroke-width="1" opacity="0.996078431372549" d="M 322.5 304 L 323 310.5 L 322 310.5 L 322.5 304 Z " /><path fill="rgb(82,82,65)" stroke="rgb(82,82,65)" stroke-width="1" opacity="0.996078431372549" d="M 269.5 307 L 270 318.5 L 269 318.5 L 269.5 307 Z " /><path fill="rgb(82,82,65)" stroke="rgb(82,82,65)" stroke-width="1" opacity="0.996078431372549" d="M 307.5 312 L 308 315.5 L 307 315.5 L 307.5 312 Z " /><path fill="rgb(82,82,65)" stroke="rgb(82,82,65)" stroke-width="1" opacity="0.996078431372549" d="M 321.5 325 L 322 329.5 L 321 329.5 L 321.5 325 Z " /><path fill="rgb(82,82,65)" stroke="rgb(82,82,65)" stroke-width="1" opacity="0.996078431372549" d="M 270.5 330 L 271 333.5 L 270 333.5 L 270.5 330 Z " /><path fill="rgb(82,82,65)" stroke="rgb(82,82,65)" stroke-width="1" opacity="0.996078431372549" d="M 320.5 338 L 321 340.5 L 320 340.5 L 320.5 338 Z " /><path fill="rgb(82,82,65)" stroke="rgb(82,82,65)" stroke-width="1" opacity="0.996078431372549" d="M 271.5 344 L 272 356.5 L 270.5 358 L 255.5 358 L 255.5 357 L 271 356.5 L 271.5 344 Z " /><path fill="rgb(82,82,65)" stroke="rgb(82,82,65)" stroke-width="1" opacity="0.996078431372549" d="M 319.5 351 L 320 358.5 L 319 358.5 L 319.5 351 Z " /><path fill="rgb(82,82,65)" stroke="rgb(82,82,65)" stroke-width="1" opacity="0.996078431372549" d="M 173.5 352 L 179 352.5 L 173.5 353 L 173.5 352 Z " /><path fill="rgb(82,82,65)" stroke="rgb(82,82,65)" stroke-width="1" opacity="0.996078431372549" d="M 187.5 353 L 190 353.5 L 187.5 354 L 187.5 353 Z " /><path fill="rgb(82,82,65)" stroke="rgb(82,82,65)" stroke-width="1" opacity="0.996078431372549" d="M 196.5 354 L 199 354.5 L 196.5 355 L 196.5 354 Z " /><path fill="rgb(82,82,65)" stroke="rgb(82,82,65)" stroke-width="1" opacity="0.996078431372549" d="M 206.5 355 L 209 355.5 L 206.5 356 L 206.5 355 Z " /><path fill="rgb(82,82,65)" stroke="rgb(82,82,65)" stroke-width="1" opacity="0.996078431372549" d="M 463.5 355 L 467 355.5 L 463.5 356 L 463.5 355 Z " /><path fill="rgb(82,82,65)" stroke="rgb(82,82,65)" stroke-width="1" opacity="0.996078431372549" d="M 220.5 356 L 225 356.5 L 220.5 357 L 220.5 356 Z " /><path fill="rgb(82,82,65)" stroke="rgb(82,82,65)" stroke-width="1" opacity="0.996078431372549" d="M 415.5 356 L 418 356.5 L 415.5 357 L 415.5 356 Z " /><path fill="rgb(82,82,65)" stroke="rgb(82,82,65)" stroke-width="1" opacity="0.996078431372549" d="M 236.5 357 L 243 357.5 L 236.5 358 L 236.5 357 Z " /><path fill="rgb(82,82,65)" stroke="rgb(82,82,65)" stroke-width="1" opacity="0.996078431372549" d="M 325.5 359 L 328 359.5 L 325.5 360 L 325.5 359 Z " /><path fill="rgb(82,82,65)" stroke="rgb(82,82,65)" stroke-width="1" opacity="0.996078431372549" d="M 393.5 359 L 396 359.5 L 393.5 360 L 393.5 359 Z " /><path fill="rgb(82,82,65)" stroke="rgb(82,82,65)" stroke-width="1" opacity="0.996078431372549" d="M 338.5 360 L 346 360.5 L 338.5 361 L 338.5 360 Z " /><path fill="rgb(82,82,65)" stroke="rgb(82,82,65)" stroke-width="1" opacity="0.996078431372549" d="M 363.5 360 L 376 360.5 L 363.5 361 L 363.5 360 Z " /><path fill="rgb(42,47,18)" stroke="rgb(42,47,18)" stroke-width="1" opacity="0.996078431372549" d="M 307.5 151 L 316 151.5 L 307.5 152 L 307.5 151 Z " /><path fill="rgb(42,47,18)" stroke="rgb(42,47,18)" stroke-width="1" opacity="0.996078431372549" d="M 342.5 151 L 345 151.5 L 342.5 152 L 342.5 151 Z " /><path fill="rgb(42,47,18)" stroke="rgb(42,47,18)" stroke-width="1" opacity="0.996078431372549" d="M 306.5 185 L 307 192.5 L 306 192.5 L 306.5 185 Z " /><path fill="rgb(42,47,18)" stroke="rgb(42,47,18)" stroke-width="1" opacity="0.996078431372549" d="M 318.5 202 L 319 204.5 L 318 204.5 L 318.5 202 Z " /><path fill="rgb(42,47,18)" stroke="rgb(42,47,18)" stroke-width="1" opacity="0.996078431372549" d="M 307.5 210 L 308 215.5 L 307 215.5 L 307.5 210 Z " /><path fill="rgb(42,47,18)" stroke="rgb(42,47,18)" stroke-width="1" opacity="0.996078431372549" d="M 319.5 213 L 320 217.5 L 319 217.5 L 319.5 213 Z " /><path fill="rgb(42,47,18)" stroke="rgb(42,47,18)" stroke-width="1" opacity="0.996078431372549" d="M 230.5 215 L 231 215.5 L 227.5 219 L 227 218.5 L 230.5 215 Z " /><path fill="rgb(42,47,18)" stroke="rgb(42,47,18)" stroke-width="1" opacity="0.996078431372549" d="M 283.5 220 L 284 223.5 L 283 223.5 L 283.5 220 Z " /><path fill="rgb(42,47,18)" stroke="rgb(42,47,18)" stroke-width="1" opacity="0.996078431372549" d="M 282.5 237 L 283 241.5 L 282 241.5 L 282.5 237 Z " /><path fill="rgb(42,47,18)" stroke="rgb(42,47,18)" stroke-width="1" opacity="0.996078431372549" d="M 308.5 240 L 309 245.5 L 308 245.5 L 308.5 240 Z " /><path fill="rgb(42,47,18)" stroke="rgb(42,47,18)" stroke-width="1" opacity="0.996078431372549" d="M 321.5 240 L 322 242.5 L 321 242.5 L 321.5 240 Z " /><path fill="rgb(42,47,18)" stroke="rgb(42,47,18)" stroke-width="1" opacity="0.996078431372549" d="M 268.5 245 L 269 262.5 L 268 262.5 L 268.5 245 Z " /><path fill="rgb(42,47,18)" stroke="rgb(42,47,18)" stroke-width="1" opacity="0.996078431372549" d="M 282.5 256 L 283 264.5 L 282 264.5 L 282.5 256 Z " /><path fill="rgb(42,47,18)" stroke="rgb(42,47,18)" stroke-width="1" opacity="0.996078431372549" d="M 498.5 270 L 505 276.5 L 504.5 277 L 498 270.5 L 498.5 270 Z " /><path fill="rgb(42,47,18)" stroke="rgb(42,47,18)" stroke-width="1" opacity="0.996078431372549" d="M 308.5 277 L 309 282.5 L 308 282.5 L 308.5 277 Z " /><path fill="rgb(42,47,18)" stroke="rgb(42,47,18)" stroke-width="1" opacity="0.996078431372549" d="M 323.5 287 L 324 290.5 L 323 290.5 L 323.5 287 Z " /><path fill="rgb(42,47,18)" stroke="rgb(42,47,18)" stroke-width="1" opacity="0.996078431372549" d="M 269.5 300 L 270 306.5 L 269 306.5 L 269.5 300 Z " /><path fill="rgb(42,47,18)" stroke="rgb(42,47,18)" stroke-width="1" opacity="0.996078431372549" d="M 322.5 301 L 323 303.5 L 322 303.5 L 322.5 301 Z " /><path fill="rgb(42,47,18)" stroke="rgb(42,47,18)" stroke-width="1" opacity="0.996078431372549" d="M 285.5 309 L 286 311.5 L 285 311.5 L 285.5 309 Z " /><path fill="rgb(42,47,18)" stroke="rgb(42,47,18)" stroke-width="1" opacity="0.996078431372549" d="M 307.5 316 L 308 321.5 L 307 321.5 L 307.5 316 Z " /><path fill="rgb(42,47,18)" stroke="rgb(42,47,18)" stroke-width="1" opacity="0.996078431372549" d="M 321.5 322 L 322 324.5 L 321 324.5 L 321.5 322 Z " /><path fill="rgb(42,47,18)" stroke="rgb(42,47,18)" stroke-width="1" opacity="0.996078431372549" d="M 270.5 327 L 271 329.5 L 270 329.5 L 270.5 327 Z " /><path fill="rgb(42,47,18)" stroke="rgb(42,47,18)" stroke-width="1" opacity="0.996078431372549" d="M 287.5 329 L 288 332.5 L 287 332.5 L 287.5 329 Z " /><path fill="rgb(42,47,18)" stroke="rgb(42,47,18)" stroke-width="1" opacity="0.996078431372549" d="M 271.5 339 L 272 343.5 L 271 343.5 L 271.5 339 Z " /><path fill="rgb(42,47,18)" stroke="rgb(42,47,18)" stroke-width="1" opacity="0.996078431372549" d="M 287.5 345 L 288 355.5 L 287 355.5 L 287.5 345 Z " /><path fill="rgb(42,47,18)" stroke="rgb(42,47,18)" stroke-width="1" opacity="0.996078431372549" d="M 319.5 346 L 320 350.5 L 319 350.5 L 319.5 346 Z " /><path fill="rgb(42,47,18)" stroke="rgb(42,47,18)" stroke-width="1" opacity="0.996078431372549" d="M 164.5 352 L 173 352.5 L 164.5 353 L 164.5 352 Z " /><path fill="rgb(42,47,18)" stroke="rgb(42,47,18)" stroke-width="1" opacity="0.996078431372549" d="M 167.5 354 L 174 354.5 L 167.5 355 L 167.5 354 Z " /><path fill="rgb(42,47,18)" stroke="rgb(42,47,18)" stroke-width="1" opacity="0.996078431372549" d="M 185.5 355 L 188 355.5 L 185.5 356 L 185.5 355 Z " /><path fill="rgb(42,47,18)" stroke="rgb(42,47,18)" stroke-width="1" opacity="0.996078431372549" d="M 203.5 355 L 206 355.5 L 203.5 356 L 203.5 355 Z " /><path fill="rgb(42,47,18)" stroke="rgb(42,47,18)" stroke-width="1" opacity="0.996078431372549" d="M 467.5 355 L 480 355.5 L 467.5 356 L 467.5 355 Z " /><path fill="rgb(42,47,18)" stroke="rgb(42,47,18)" stroke-width="1" opacity="0.996078431372549" d="M 103.5 356 L 107 356.5 L 103.5 357 L 103.5 356 Z " /><path fill="rgb(42,47,18)" stroke="rgb(42,47,18)" stroke-width="1" opacity="0.996078431372549" d="M 216.5 356 L 220 356.5 L 216.5 357 L 216.5 356 Z " /><path fill="rgb(42,47,18)" stroke="rgb(42,47,18)" stroke-width="1" opacity="0.996078431372549" d="M 418.5 356 L 425 356.5 L 418.5 357 L 418.5 356 Z " /><path fill="rgb(42,47,18)" stroke="rgb(42,47,18)" stroke-width="1" opacity="0.996078431372549" d="M 493.5 356 L 498 356.5 L 493.5 357 L 493.5 356 Z " /><path fill="rgb(42,47,18)" stroke="rgb(42,47,18)" stroke-width="1" opacity="0.996078431372549" d="M 538.5 356 L 541 356.5 L 538.5 357 L 538.5 356 Z " /><path fill="rgb(42,47,18)" stroke="rgb(42,47,18)" stroke-width="1" opacity="0.996078431372549" d="M 84.5 357 L 87 357.5 L 84.5 358 L 84.5 357 Z " /><path fill="rgb(42,47,18)" stroke="rgb(42,47,18)" stroke-width="1" opacity="0.996078431372549" d="M 204.5 357 L 207 357.5 L 204.5 358 L 204.5 357 Z " /><path fill="rgb(42,47,18)" stroke="rgb(42,47,18)" stroke-width="1" opacity="0.996078431372549" d="M 233.5 357 L 236 357.5 L 233.5 358 L 233.5 357 Z " /><path fill="rgb(42,47,18)" stroke="rgb(42,47,18)" stroke-width="1" opacity="0.996078431372549" d="M 462.5 357 L 481 357.5 L 462.5 358 L 462.5 357 Z " /><path fill="rgb(42,47,18)" stroke="rgb(42,47,18)" stroke-width="1" opacity="0.996078431372549" d="M 63.5 358 L 66 358.5 L 63.5 359 L 63.5 358 Z " /><path fill="rgb(42,47,18)" stroke="rgb(42,47,18)" stroke-width="1" opacity="0.996078431372549" d="M 68.5 358 L 75 358.5 L 68.5 359 L 68.5 358 Z " /><path fill="rgb(42,47,18)" stroke="rgb(42,47,18)" stroke-width="1" opacity="0.996078431372549" d="M 218.5 358 L 221 358.5 L 218.5 359 L 218.5 358 Z " /><path fill="rgb(42,47,18)" stroke="rgb(42,47,18)" stroke-width="1" opacity="0.996078431372549" d="M 419.5 358 L 422 358.5 L 419.5 359 L 419.5 358 Z " /><path fill="rgb(42,47,18)" stroke="rgb(42,47,18)" stroke-width="1" opacity="0.996078431372549" d="M 539.5 358 L 542 358.5 L 539.5 359 L 539.5 358 Z " /><path fill="rgb(42,47,18)" stroke="rgb(42,47,18)" stroke-width="1" opacity="0.996078431372549" d="M 233.5 359 L 239 359.5 L 233.5 360 L 233.5 359 Z " /><path fill="rgb(42,47,18)" stroke="rgb(42,47,18)" stroke-width="1" opacity="0.996078431372549" d="M 262.5 359 L 270.5 359 L 272 360.5 L 271.5 383 L 270.5 360 L 262.5 360 L 262.5 359 Z " /><path fill="rgb(42,47,18)" stroke="rgb(42,47,18)" stroke-width="1" opacity="0.996078431372549" d="M 287.5 360 L 288 375.5 L 287 375.5 L 287.5 360 Z " /><path fill="rgb(42,47,18)" stroke="rgb(42,47,18)" stroke-width="1" opacity="0.996078431372549" d="M 334.5 360 L 338 360.5 L 334.5 361 L 334.5 360 Z " /><path fill="rgb(42,47,18)" stroke="rgb(42,47,18)" stroke-width="1" opacity="0.996078431372549" d="M 376.5 360 L 386 360.5 L 376.5 361 L 376.5 360 Z " /><path fill="rgb(42,47,18)" stroke="rgb(42,47,18)" stroke-width="1" opacity="0.996078431372549" d="M 323.5 361 L 326 361.5 L 323.5 362 L 323.5 361 Z " /><path fill="rgb(42,47,18)" stroke="rgb(42,47,18)" stroke-width="1" opacity="0.996078431372549" d="M 395.5 361 L 398 361.5 L 395.5 362 L 395.5 361 Z " /><path fill="rgb(42,47,18)" stroke="rgb(42,47,18)" stroke-width="1" opacity="0.996078431372549" d="M 335.5 362 L 338 362.5 L 335.5 363 L 335.5 362 Z " /><path fill="rgb(42,47,18)" stroke="rgb(42,47,18)" stroke-width="1" opacity="0.996078431372549" d="M 376.5 362 L 383 362.5 L 376.5 363 L 376.5 362 Z " /><path fill="rgb(42,47,18)" stroke="rgb(42,47,18)" stroke-width="1" opacity="0.996078431372549" d="M 318.5 388 L 319 391.5 L 318 391.5 L 318.5 388 Z " /><path fill="rgb(42,47,18)" stroke="rgb(42,47,18)" stroke-width="1" opacity="0.996078431372549" d="M 286.5 398 L 287 400.5 L 286 400.5 L 286.5 398 Z " /><path fill="rgb(42,47,18)" stroke="rgb(42,47,18)" stroke-width="1" opacity="0.996078431372549" d="M 317.5 405 L 318 408.5 L 317 408.5 L 317.5 405 Z " /><path fill="rgb(42,47,18)" stroke="rgb(42,47,18)" stroke-width="1" opacity="0.996078431372549" d="M 270.5 408 L 271 411.5 L 270 411.5 L 270.5 408 Z " /><path fill="rgb(42,47,18)" stroke="rgb(42,47,18)" stroke-width="1" opacity="0.996078431372549" d="M 160.5 428 L 165 428.5 L 160.5 429 L 160.5 428 Z " /><path fill="rgb(42,47,18)" stroke="rgb(42,47,18)" stroke-width="1" opacity="0.996078431372549" d="M 181.5 428 L 188 428.5 L 181.5 429 L 181.5 428 Z " /><path fill="rgb(42,47,18)" stroke="rgb(42,47,18)" stroke-width="1" opacity="0.996078431372549" d="M 134.5 429 L 138 429.5 L 134.5 430 L 134.5 429 Z " /><path fill="rgb(42,47,18)" stroke="rgb(42,47,18)" stroke-width="1" opacity="0.996078431372549" d="M 231.5 429 L 234 429.5 L 231.5 430 L 231.5 429 Z " /><path fill="rgb(42,47,18)" stroke="rgb(42,47,18)" stroke-width="1" opacity="0.996078431372549" d="M 330.5 429 L 333 429.5 L 330.5 430 L 330.5 429 Z " /><path fill="rgb(42,47,18)" stroke="rgb(42,47,18)" stroke-width="1" opacity="0.996078431372549" d="M 218.5 430 L 221 430.5 L 218.5 431 L 218.5 430 Z " /><path fill="rgb(42,47,18)" stroke="rgb(42,47,18)" stroke-width="1" opacity="0.996078431372549" d="M 359.5 432 L 363 432.5 L 359.5 433 L 359.5 432 Z " /><path fill="rgb(42,47,18)" stroke="rgb(42,47,18)" stroke-width="1" opacity="0.996078431372549" d="M 368.5 432 L 372 432.5 L 368.5 433 L 368.5 432 Z " /><path fill="rgb(42,47,18)" stroke="rgb(42,47,18)" stroke-width="1" opacity="0.996078431372549" d="M 378.5 432 L 383 432.5 L 378.5 433 L 378.5 432 Z " /><path fill="rgb(42,47,18)" stroke="rgb(42,47,18)" stroke-width="1" opacity="0.996078431372549" d="M 58.5 433 L 61 433.5 L 58.5 434 L 58.5 433 Z " /><path fill="rgb(42,47,18)" stroke="rgb(42,47,18)" stroke-width="1" opacity="0.996078431372549" d="M 398.5 433 L 401 433.5 L 398.5 434 L 398.5 433 Z " /><path fill="rgb(42,47,18)" stroke="rgb(42,47,18)" stroke-width="1" opacity="0.996078431372549" d="M 98.5 434 L 101 434.5 L 98.5 435 L 98.5 434 Z " /><path fill="rgb(42,47,18)" stroke="rgb(42,47,18)" stroke-width="1" opacity="0.996078431372549" d="M 411.5 434 L 417 434.5 L 411.5 435 L 411.5 434 Z " /><path fill="rgb(42,47,18)" stroke="rgb(42,47,18)" stroke-width="1" opacity="0.996078431372549" d="M 421.5 434 L 427 434.5 L 421.5 435 L 421.5 434 Z " /><path fill="rgb(42,47,18)" stroke="rgb(42,47,18)" stroke-width="1" opacity="0.996078431372549" d="M 302.5 435 L 307 435.5 L 302.5 436 L 302.5 435 Z " /><path fill="rgb(42,47,18)" stroke="rgb(42,47,18)" stroke-width="1" opacity="0.996078431372549" d="M 502.5 443 L 509 443.5 L 502.5 444 L 502.5 443 Z " /><path fill="rgb(42,47,18)" stroke="rgb(42,47,18)" stroke-width="1" opacity="0.996078431372549" d="M 572.5 443 L 592 443.5 L 572.5 444 L 572.5 443 Z " /><path fill="rgb(42,47,18)" stroke="rgb(42,47,18)" stroke-width="1" opacity="0.996078431372549" d="M 601.5 443 L 605 443.5 L 601.5 444 L 601.5 443 Z " /><path fill="rgb(184,184,184)" stroke="rgb(184,184,184)" stroke-width="1" opacity="0.9921568627450981" d="M 319.5 189 L 325 189.5 L 320.5 190 L 318.5 192 L 319 190.5 L 319.5 189 Z " /><path fill="rgb(184,184,184)" stroke="rgb(184,184,184)" stroke-width="1" opacity="0.9921568627450981" d="M 327.5 190 L 330 190.5 L 327.5 191 L 327.5 190 Z " /><path fill="rgb(184,184,184)" stroke="rgb(184,184,184)" stroke-width="1" opacity="0.9921568627450981" d="M 266.5 192 L 273 192.5 L 266.5 193 L 264.5 194 L 264.5 193 L 266.5 192 Z " /><path fill="rgb(184,184,184)" stroke="rgb(184,184,184)" stroke-width="1" opacity="0.9921568627450981" d="M 274.5 193 Q 276.6 194.4 276 198.5 L 275 198.5 L 274.5 193 Z " /><path fill="rgb(184,184,184)" stroke="rgb(184,184,184)" stroke-width="1" opacity="0.9921568627450981" d="M 261.5 194 L 263 194.5 L 258.5 197 Q 257 196 259.5 195 L 261.5 194 Z " /><path fill="rgb(184,184,184)" stroke="rgb(184,184,184)" stroke-width="1" opacity="0.9921568627450981" d="M 319.5 196 L 320 204.5 L 319 204.5 L 319.5 196 Z " /><path fill="rgb(184,184,184)" stroke="rgb(184,184,184)" stroke-width="1" opacity="0.9921568627450981" d="M 256.5 197 Q 258 198 255.5 199 L 246.5 205 L 246 204.5 L 248.5 202 L 256.5 197 Z " /><path fill="rgb(184,184,184)" stroke="rgb(184,184,184)" stroke-width="1" opacity="0.9921568627450981" d="M 349.5 197 L 353 198.5 L 351.5 199 L 349 197.5 L 349.5 197 Z " /><path fill="rgb(184,184,184)" stroke="rgb(184,184,184)" stroke-width="1" opacity="0.9921568627450981" d="M 361.5 202 L 366 204.5 L 364.5 204 L 361.5 203 L 361.5 202 Z " /><path fill="rgb(184,184,184)" stroke="rgb(184,184,184)" stroke-width="1" opacity="0.9921568627450981" d="M 275.5 203 L 276 207.5 L 275 207.5 L 275.5 203 Z " /><path fill="rgb(184,184,184)" stroke="rgb(184,184,184)" stroke-width="1" opacity="0.9921568627450981" d="M 244.5 205 L 245 205.5 L 242.5 208 L 242 207.5 L 244.5 205 Z " /><path fill="rgb(184,184,184)" stroke="rgb(184,184,184)" stroke-width="1" opacity="0.9921568627450981" d="M 240.5 208 L 241 208.5 L 238.5 211 L 238 210.5 L 240.5 208 Z " /><path fill="rgb(184,184,184)" stroke="rgb(184,184,184)" stroke-width="1" opacity="0.9921568627450981" d="M 320.5 208 L 321 217.5 L 320 217.5 L 320.5 208 Z " /><path fill="rgb(184,184,184)" stroke="rgb(184,184,184)" stroke-width="1" opacity="0.9921568627450981" d="M 372.5 208 L 380 215.5 L 379.5 216 L 372 208.5 L 372.5 208 Z " /><path fill="rgb(184,184,184)" stroke="rgb(184,184,184)" stroke-width="1" opacity="0.9921568627450981" d="M 274.5 210 L 275 212.5 L 274 212.5 L 274.5 210 Z " /><path fill="rgb(184,184,184)" stroke="rgb(184,184,184)" stroke-width="1" opacity="0.9921568627450981" d="M 236.5 211 L 237 211.5 L 232.5 216 L 232 215.5 L 236.5 211 Z " /><path fill="rgb(184,184,184)" stroke="rgb(184,184,184)" stroke-width="1" opacity="0.9921568627450981" d="M 273.5 214 L 274 216.5 L 273 216.5 L 273.5 214 Z " /><path fill="rgb(184,184,184)" stroke="rgb(184,184,184)" stroke-width="1" opacity="0.9921568627450981" d="M 230.5 216 L 231 216.5 L 219.5 228 L 219 227.5 L 230.5 216 Z " /><path fill="rgb(184,184,184)" stroke="rgb(184,184,184)" stroke-width="1" opacity="0.9921568627450981" d="M 380.5 217 L 383 219.5 L 382.5 220 L 380 217.5 L 380.5 217 Z " /><path fill="rgb(184,184,184)" stroke="rgb(184,184,184)" stroke-width="1" opacity="0.9921568627450981" d="M 272.5 218 L 273 220.5 L 272 220.5 L 272.5 218 Z " /><path fill="rgb(184,184,184)" stroke="rgb(184,184,184)" stroke-width="1" opacity="0.9921568627450981" d="M 271.5 222 L 272 224.5 L 271 224.5 L 271.5 222 Z " /><path fill="rgb(184,184,184)" stroke="rgb(184,184,184)" stroke-width="1" opacity="0.9921568627450981" d="M 385.5 224 L 391 231.5 Q 390 233 389 230.5 L 385 224.5 L 385.5 224 Z " /><path fill="rgb(184,184,184)" stroke="rgb(184,184,184)" stroke-width="1" opacity="0.9921568627450981" d="M 321.5 225 L 322 232.5 L 321 232.5 L 321.5 225 Z " /><path fill="rgb(184,184,184)" stroke="rgb(184,184,184)" stroke-width="1" opacity="0.9921568627450981" d="M 270.5 226 L 271 228.5 L 270 228.5 L 270.5 226 Z " /><path fill="rgb(184,184,184)" stroke="rgb(184,184,184)" stroke-width="1" opacity="0.9921568627450981" d="M 218.5 229 L 219 229.5 L 216.5 232 L 216 231.5 L 218.5 229 Z " /><path fill="rgb(184,184,184)" stroke="rgb(184,184,184)" stroke-width="1" opacity="0.9921568627450981" d="M 269.5 230 L 270 233.5 L 269 233.5 L 269.5 230 Z " /><path fill="rgb(184,184,184)" stroke="rgb(184,184,184)" stroke-width="1" opacity="0.9921568627450981" d="M 268.5 235 L 269 238.5 L 268 238.5 L 268.5 235 Z " /><path fill="rgb(184,184,184)" stroke="rgb(184,184,184)" stroke-width="1" opacity="0.9921568627450981" d="M 322.5 236 L 323 242.5 L 322 242.5 L 322.5 236 Z " /><path fill="rgb(184,184,184)" stroke="rgb(184,184,184)" stroke-width="1" opacity="0.9921568627450981" d="M 211.5 239 L 211 240.5 L 209.5 243 L 210 241.5 L 211.5 239 Z " /><path fill="rgb(184,184,184)" stroke="rgb(184,184,184)" stroke-width="1" opacity="0.9921568627450981" d="M 267.5 241 L 268 279.5 L 267 279.5 L 267.5 241 Z " /><path fill="rgb(184,184,184)" stroke="rgb(184,184,184)" stroke-width="1" opacity="0.9921568627450981" d="M 208.5 244 L 208 245.5 L 206.5 248 L 207 246.5 L 208.5 244 Z " /><path fill="rgb(184,184,184)" stroke="rgb(184,184,184)" stroke-width="1" opacity="0.9921568627450981" d="M 323.5 248 L 324 258.5 L 323 258.5 L 323.5 248 Z " /><path fill="rgb(184,184,184)" stroke="rgb(184,184,184)" stroke-width="1" opacity="0.9921568627450981" d="M 398.5 252 L 400 255.5 L 399 255.5 L 398.5 252 Z " /><path fill="rgb(184,184,184)" stroke="rgb(184,184,184)" stroke-width="1" opacity="0.9921568627450981" d="M 201.5 256 L 201 257.5 L 199.5 260 L 200 258.5 L 201.5 256 Z " /><path fill="rgb(184,184,184)" stroke="rgb(184,184,184)" stroke-width="1" opacity="0.9921568627450981" d="M 401.5 259 L 407 269.5 Q 406 271 405 268.5 L 401 260.5 L 401.5 259 Z " /><path fill="rgb(184,184,184)" stroke="rgb(184,184,184)" stroke-width="1" opacity="0.9921568627450981" d="M 324.5 262 L 325 267.5 L 324 267.5 L 324.5 262 Z " /><path fill="rgb(184,184,184)" stroke="rgb(184,184,184)" stroke-width="1" opacity="0.9921568627450981" d="M 195.5 266 L 195 267.5 L 193.5 270 L 194 268.5 L 195.5 266 Z " /><path fill="rgb(184,184,184)" stroke="rgb(184,184,184)" stroke-width="1" opacity="0.9921568627450981" d="M 325.5 272 L 326 281.5 L 325 281.5 L 325.5 272 Z " /><path fill="rgb(184,184,184)" stroke="rgb(184,184,184)" stroke-width="1" opacity="0.9921568627450981" d="M 408.5 273 L 412 278.5 Q 411 280 410 277.5 L 408 273.5 L 408.5 273 Z " /><path fill="rgb(184,184,184)" stroke="rgb(184,184,184)" stroke-width="1" opacity="0.9921568627450981" d="M 190.5 275 L 190 276.5 L 188.5 280 L 188 278.5 L 190.5 275 Z " /><path fill="rgb(184,184,184)" stroke="rgb(184,184,184)" stroke-width="1" opacity="0.9921568627450981" d="M 186.5 283 L 187 284.5 L 185.5 287 L 185 285.5 L 186.5 283 Z " /><path fill="rgb(184,184,184)" stroke="rgb(184,184,184)" stroke-width="1" opacity="0.9921568627450981" d="M 414.5 284 L 417 287.5 Q 416 289 415 286.5 L 414.5 284 Z " /><path fill="rgb(184,184,184)" stroke="rgb(184,184,184)" stroke-width="1" opacity="0.9921568627450981" d="M 324.5 287 L 325 295.5 L 324 295.5 L 324.5 287 Z " /><path fill="rgb(184,184,184)" stroke="rgb(184,184,184)" stroke-width="1" opacity="0.9921568627450981" d="M 417.5 289 L 421 294.5 Q 420 296 419 293.5 L 417 289.5 L 417.5 289 Z " /><path fill="rgb(184,184,184)" stroke="rgb(184,184,184)" stroke-width="1" opacity="0.9921568627450981" d="M 183.5 290 L 184 291.5 L 182.5 294 L 182 292.5 L 183.5 290 Z " /><path fill="rgb(184,184,184)" stroke="rgb(184,184,184)" stroke-width="1" opacity="0.9921568627450981" d="M 181.5 295 L 182 296.5 L 180.5 299 L 180 297.5 L 181.5 295 Z " /><path fill="rgb(184,184,184)" stroke="rgb(184,184,184)" stroke-width="1" opacity="0.9921568627450981" d="M 268.5 296 L 269 321.5 L 268 321.5 L 268.5 296 Z " /><path fill="rgb(184,184,184)" stroke="rgb(184,184,184)" stroke-width="1" opacity="0.9921568627450981" d="M 422.5 298 L 424 301.5 L 423 301.5 L 422.5 298 Z " /><path fill="rgb(184,184,184)" stroke="rgb(184,184,184)" stroke-width="1" opacity="0.9921568627450981" d="M 323.5 300 L 324 313.5 L 323 313.5 L 323.5 300 Z " /><path fill="rgb(184,184,184)" stroke="rgb(184,184,184)" stroke-width="1" opacity="0.9921568627450981" d="M 178.5 302 L 179 303.5 L 177.5 306 L 177 304.5 L 178.5 302 Z " /><path fill="rgb(184,184,184)" stroke="rgb(184,184,184)" stroke-width="1" opacity="0.9921568627450981" d="M 176.5 307 L 177 308.5 L 174.5 313 L 174 311.5 L 176.5 307 Z " /><path fill="rgb(184,184,184)" stroke="rgb(184,184,184)" stroke-width="1" opacity="0.9921568627450981" d="M 426.5 308 L 428 311.5 L 427 311.5 L 426.5 308 Z " /><path fill="rgb(184,184,184)" stroke="rgb(184,184,184)" stroke-width="1" opacity="0.9921568627450981" d="M 172.5 316 L 173 317.5 L 170.5 322 L 170 320.5 L 172.5 316 Z " /><path fill="rgb(184,184,184)" stroke="rgb(184,184,184)" stroke-width="1" opacity="0.9921568627450981" d="M 429.5 316 L 431 319.5 L 430 319.5 L 429.5 316 Z " /><path fill="rgb(184,184,184)" stroke="rgb(184,184,184)" stroke-width="1" opacity="0.9921568627450981" d="M 322.5 321 L 323 331.5 L 322 331.5 L 322.5 321 Z " /><path fill="rgb(184,184,184)" stroke="rgb(184,184,184)" stroke-width="1" opacity="0.9921568627450981" d="M 431.5 321 L 433 324.5 L 432 324.5 L 431.5 321 Z " /><path fill="rgb(184,184,184)" stroke="rgb(184,184,184)" stroke-width="1" opacity="0.9921568627450981" d="M 269.5 327 L 270 334.5 L 269 334.5 L 269.5 327 Z " /><path fill="rgb(184,184,184)" stroke="rgb(184,184,184)" stroke-width="1" opacity="0.9921568627450981" d="M 434.5 328 L 437 333.5 L 436 333.5 L 434 329.5 L 434.5 328 Z " /><path fill="rgb(184,184,184)" stroke="rgb(184,184,184)" stroke-width="1" opacity="0.9921568627450981" d="M 166.5 332 L 167 334.5 L 166 334.5 L 166.5 332 Z " /><path fill="rgb(184,184,184)" stroke="rgb(184,184,184)" stroke-width="1" opacity="0.9921568627450981" d="M 321.5 335 L 322 341.5 L 321 341.5 L 321.5 335 Z " /><path fill="rgb(184,184,184)" stroke="rgb(184,184,184)" stroke-width="1" opacity="0.9921568627450981" d="M 437.5 335 L 439 338.5 L 438 338.5 L 437.5 335 Z " /><path fill="rgb(184,184,184)" stroke="rgb(184,184,184)" stroke-width="1" opacity="0.9921568627450981" d="M 164.5 339 L 165 341.5 L 164 341.5 L 164.5 339 Z " /><path fill="rgb(184,184,184)" stroke="rgb(184,184,184)" stroke-width="1" opacity="0.9921568627450981" d="M 270.5 339 L 271 356.5 L 231.5 357 L 231.5 356 L 270 355.5 L 270.5 339 Z " /><path fill="rgb(184,184,184)" stroke="rgb(184,184,184)" stroke-width="1" opacity="0.9921568627450981" d="M 440.5 342 L 442 345.5 L 441 345.5 L 440.5 342 Z " /><path fill="rgb(184,184,184)" stroke="rgb(184,184,184)" stroke-width="1" opacity="0.9921568627450981" d="M 163.5 343 L 164 345.5 L 163 345.5 L 163.5 343 Z " /><path fill="rgb(184,184,184)" stroke="rgb(184,184,184)" stroke-width="1" opacity="0.9921568627450981" d="M 320.5 346 L 321 358.5 L 320 358.5 L 320.5 346 Z " /><path fill="rgb(184,184,184)" stroke="rgb(184,184,184)" stroke-width="1" opacity="0.9921568627450981" d="M 442.5 347 L 444 350.5 L 443 350.5 L 442.5 347 Z " /><path fill="rgb(184,184,184)" stroke="rgb(184,184,184)" stroke-width="1" opacity="0.9921568627450981" d="M 164.5 351 L 181 351.5 L 164.5 352 L 164.5 351 Z " /><path fill="rgb(184,184,184)" stroke="rgb(184,184,184)" stroke-width="1" opacity="0.9921568627450981" d="M 184.5 352 L 191 352.5 L 184.5 353 L 184.5 352 Z " /><path fill="rgb(184,184,184)" stroke="rgb(184,184,184)" stroke-width="1" opacity="0.9921568627450981" d="M 194.5 353 L 200 353.5 L 194.5 354 L 194.5 353 Z " /><path fill="rgb(184,184,184)" stroke="rgb(184,184,184)" stroke-width="1" opacity="0.9921568627450981" d="M 203.5 354 L 212 354.5 L 203.5 355 L 203.5 354 Z " /><path fill="rgb(184,184,184)" stroke="rgb(184,184,184)" stroke-width="1" opacity="0.9921568627450981" d="M 216.5 355 L 227 355.5 L 216.5 356 L 216.5 355 Z " /><path fill="rgb(184,184,184)" stroke="rgb(184,184,184)" stroke-width="1" opacity="0.9921568627450981" d="M 414.5 355 L 426 355.5 L 414.5 356 L 414.5 355 Z " /><path fill="rgb(184,184,184)" stroke="rgb(184,184,184)" stroke-width="1" opacity="0.9921568627450981" d="M 406.5 356 L 411 356.5 L 406.5 357 L 406.5 356 Z " /><path fill="rgb(184,184,184)" stroke="rgb(184,184,184)" stroke-width="1" opacity="0.9921568627450981" d="M 400.5 357 L 404 357.5 L 400.5 358 L 400.5 357 Z " /><path fill="rgb(184,184,184)" stroke="rgb(184,184,184)" stroke-width="1" opacity="0.9921568627450981" d="M 322.5 358 L 330 358.5 L 322.5 359 L 322.5 358 Z " /><path fill="rgb(184,184,184)" stroke="rgb(184,184,184)" stroke-width="1" opacity="0.9921568627450981" d="M 392.5 358 L 398 358.5 L 392.5 359 L 392.5 358 Z " /><path fill="rgb(184,184,184)" stroke="rgb(184,184,184)" stroke-width="1" opacity="0.9921568627450981" d="M 334.5 359 L 387 359.5 L 334.5 360 L 334.5 359 Z " /><path fill="rgb(0,0,0)" stroke="rgb(0,0,0)" stroke-width="1" opacity="0" d="M 0.5 0 L 640 0.5 L 639.5 560 L 0 559.5 L 0.5 0 Z M 294 142 L 293 143 L 286 143 L 285 144 L 271 145 L 265 147 L 260 147 L 255 149 L 251 149 L 246 151 L 242 151 L 239 153 L 236 153 L 223 159 L 221 159 L 208 166 L 206 166 L 188 177 L 189 179 L 162 200 L 141 221 L 137 222 Q 134 223 135 228 L 132 232 L 107 259 L 96 274 L 91 278 Q 88 279 89 284 L 85 289 L 76 306 L 59 333 L 53 345 L 52 349 L 51 349 L 45 356 Q 44 360 47 361 L 26 403 L 17 418 L 13 430 L 15 431 L 24 431 L 33 434 L 44 435 L 45 436 L 61 436 L 62 437 L 101 437 L 102 438 L 110 438 L 111 439 L 120 439 L 121 440 L 133 440 L 134 439 L 196 439 L 197 438 L 250 438 L 251 439 L 312 439 L 313 440 L 322 440 L 323 441 L 341 442 L 342 443 L 355 443 L 356 444 L 385 444 L 386 445 L 402 445 L 403 446 L 425 446 L 426 447 L 438 447 L 439 448 L 451 448 L 452 449 L 466 449 L 467 448 L 504 448 L 505 447 L 578 447 L 579 448 L 586 448 L 587 447 L 620 448 L 623 444 L 622 438 L 605 406 L 605 404 L 598 389 L 582 363 L 576 351 L 576 349 L 567 332 L 552 311 L 533 290 L 529 283 L 528 282 L 510 256 L 495 238 L 476 218 L 441 189 L 415 172 L 402 166 L 398 162 L 389 156 L 379 151 L 367 147 L 360 146 L 359 145 L 350 144 L 349 143 L 342 143 L 341 142 L 294 142 Z " /><path fill="rgb(0,0,0)" stroke="rgb(0,0,0)" stroke-width="1" opacity="0" d="M 394.5 168 L 396.5 168 L 406.5 173 L 430.5 188 L 465 215.5 L 463.5 218 L 459.5 219 L 450.5 215 L 448.5 215 L 441.5 211 L 439.5 211 L 430.5 206 Q 418.5 198.5 409 188.5 L 398 175.5 L 394 168.5 L 394.5 168 Z " /><path fill="rgb(0,0,0)" stroke="rgb(0,0,0)" stroke-width="1" opacity="0" d="M 196.5 179 L 196 180.5 L 192 187.5 L 180.5 200 L 151.5 223 L 148.5 225 L 146.5 225 L 145 223.5 L 148 220.5 L 160.5 207 L 178.5 192 L 196.5 179 Z " /><path fill="rgb(0,0,0)" stroke="rgb(0,0,0)" stroke-width="1" opacity="0" d="M 470.5 222 L 472.5 222 L 489 238.5 L 505 257.5 L 521 281.5 L 522 284.5 Q 521.5 286.5 518.5 286 L 486 252.5 L 474 237.5 L 469 229.5 L 468 225.5 L 470.5 222 Z " /><path fill="rgb(0,0,0)" stroke="rgb(0,0,0)" stroke-width="1" opacity="0" d="M 136.5 232 L 138 232.5 L 140 239.5 L 131 255.5 L 117.5 271 L 104.5 283 L 102.5 283 L 97 279.5 L 109 262.5 L 136.5 232 Z " /><path fill="rgb(0,0,0)" stroke="rgb(0,0,0)" stroke-width="1" opacity="0" d="M 92.5 285 Q 97.1 285.9 99 289.5 L 95 301.5 L 86 319.5 L 77 333.5 L 61.5 353 L 56 350.5 L 56 348.5 L 65 330.5 L 75 315.5 L 92.5 285 Z " /><path fill="rgb(0,0,0)" stroke="rgb(0,0,0)" stroke-width="1" opacity="0" d="M 528.5 293 L 531 294.5 L 550 316.5 L 562 333.5 L 571 350.5 L 571 352.5 L 578 366.5 L 593 390.5 L 599 403.5 L 601 410.5 L 613 432.5 L 612.5 433 L 607 427.5 L 592 407.5 L 533 318.5 L 526 305.5 L 525 302.5 L 525 297.5 L 528.5 293 Z " /><path fill="rgb(0,0,0)" stroke="rgb(0,0,0)" stroke-width="1" opacity="0" d="M 51.5 361 L 55 362.5 L 53 369.5 L 48 380.5 L 17.5 428 L 18 426.5 L 51.5 361 Z " /></svg>