<svg viewBox="0 0 640 320" version="1.1" xmlns="http://www.w3.org/2000/svg" desc="Created with imagetracer.js version 1.2.6" ><path fill="rgb(0,0,0)" stroke="rgb(0,0,0)" stroke-width="1" opacity="0" d="M 0.5 0 L 640 0.5 L 639.5 241 L 638 240.5 L 597 186.5 L 599 186.5 L 598.5 185 L 596 184.5 L 591 169.5 L 589 166.5 L 587 159.5 L 585.5 158 L 474.5 102 L 462.5 101 L 450.5 97 L 447.5 97 L 443.5 95 L 440.5 95 L 430.5 91 L 427.5 91 L 417.5 87 L 414.5 87 L 405.5 84 L 401.5 84 L 400.5 83 L 396.5 83 L 395.5 82 L 391.5 82 L 390.5 81 L 386.5 81 L 368.5 74 L 364.5 74 L 363.5 73 L 356.5 72 L 348.5 68 L 329.5 67 L 328.5 66 L 322.5 66 L 321.5 65 Q 320.7 66.8 317.5 66 L 316.5 65 L 308.5 65 L 302.5 63 L 295.5 57 Q 293.3 55.2 288.5 56 L 283.5 60 Q 282.7 56.2 277.5 57 L 273.5 62 L 266.5 67 L 254.5 73 Q 251.3 72.3 250.5 74 L 244.5 74 L 243.5 75 L 235.5 75 L 221.5 81 L 215.5 81 L 212.5 80 L 207.5 84 L 201.5 85 L 196.5 80 Q 191.8 79.2 189.5 76 L 186.5 76 L 182.5 74 L 179.5 74 L 171.5 71 L 163.5 70 L 162.5 69 L 157.5 69 L 153 72.5 L 152.5 75 L 151.5 72 L 151 76.5 L 153 76.5 L 146 84.5 L 144.5 95 L 138.5 95 L 135.5 94 Q 134.3 96.3 129.5 95 L 115.5 102 L 112.5 102 L 95.5 108 L 91.5 108 L 90.5 109 L 82.5 110 L 70.5 114 L 67.5 116 L 59.5 118 L 56.5 120 L 52 120.5 L 52.5 122 L 54 121.5 L 7.5 159 L 0.5 163 L 0.5 0 Z M 289 54 L 289 55 L 294 55 L 289 54 Z M 278 55 L 278 56 L 281 56 L 278 55 Z M 303 61 L 303 62 L 305 62 L 303 61 Z M 310 63 L 310 64 L 318 64 L 310 63 Z M 323 64 L 323 65 L 329 65 L 323 64 Z M 333 65 L 333 66 L 339 66 L 333 65 Z M 346 66 L 346 67 L 349 67 L 346 66 Z M 161 67 L 161 68 L 163 68 L 161 67 Z M 166 68 L 166 69 L 168 69 L 166 68 Z M 170 69 L 170 70 L 172 70 L 170 69 Z M 174 70 L 174 71 L 176 71 L 174 70 Z M 358 70 L 358 71 L 360 71 L 358 70 Z M 252 71 L 252 72 L 254 72 L 252 71 Z M 362 71 L 362 72 L 365 72 L 362 71 Z M 181 72 L 181 73 L 183 73 L 181 72 Z M 247 72 L 247 73 L 250 73 L 247 72 Z M 367 72 L 367 73 L 369 73 L 367 72 Z M 185 73 L 185 74 L 187 74 L 185 73 Z M 236 73 L 236 74 L 240 74 L 236 73 Z M 213 78 L 213 79 L 215 79 L 213 78 Z M 218 79 L 218 80 L 221 80 L 218 79 Z M 389 79 L 389 80 L 391 80 L 389 79 Z M 394 80 L 394 81 L 396 81 L 394 80 Z M 399 81 L 399 82 L 401 82 L 399 81 Z M 205 82 L 205 83 L 207 83 L 205 82 Z M 404 82 L 404 83 L 406 83 L 404 82 Z M 408 83 L 408 84 L 410 84 L 408 83 Z M 413 84 L 413 85 L 415 85 L 413 84 Z M 144 87 L 143 94 L 144 94 L 144 87 Z M 426 88 L 426 89 L 428 89 L 426 88 Z M 135 92 L 135 93 L 138 93 L 135 92 Z M 130 93 L 130 94 L 133 94 L 130 93 Z M 442 93 L 442 94 L 444 94 L 442 93 Z M 449 95 L 449 96 L 451 96 L 449 95 Z M 453 96 L 453 97 L 455 97 L 453 96 Z M 460 98 L 460 99 L 462 99 L 460 98 Z M 464 99 L 464 100 L 469 100 L 464 99 Z M 113 100 L 113 101 L 115 101 L 113 100 Z M 473 100 L 473 101 L 475 101 L 473 100 Z M 103 103 L 103 104 L 105 104 L 103 103 Z M 96 105 L 96 106 L 98 106 L 96 105 Z M 92 106 L 92 107 L 94 107 L 92 106 Z M 87 107 L 87 108 L 89 108 L 87 107 Z M 83 108 L 83 109 L 85 109 L 83 108 Z M 597 179 L 596 182 L 597 182 L 597 179 Z M 627 222 L 626 224 Q 627 226 628 225 L 627 222 Z " /><path fill="rgb(0,0,0)" stroke="rgb(0,0,0)" stroke-width="1" opacity="0" d="M 67.5 158 L 75.5 158 L 76.5 159 L 104.5 159 L 105.5 160 L 116.5 160 L 117.5 161 L 136 161.5 L 137 163.5 L 135 163.5 L 135.5 168 L 136.5 165 L 138.5 171 L 142.5 172 L 150 178.5 L 150.5 181 L 155 182.5 L 153 183.5 L 155 184.5 L 155 187.5 L 161.5 195 L 163 195.5 L 165.5 199 L 167.5 198 L 168 198.5 L 158 208.5 L 157.5 210 L 149.5 211 L 148 212.5 L 146 227.5 L 148 230.5 L 145 229.5 L 146 231.5 L 144 232.5 L 146.5 233 L 148.5 232 L 148.5 233 L 142.5 236 L 141 235.5 L 142.5 238 Q 144 235.5 145.5 239 L 153.5 240 L 154.5 241 L 159.5 241 L 165.5 243 L 170.5 243 L 171.5 244 L 175.5 244 L 181.5 246 L 186.5 246 L 192.5 248 L 201.5 249 L 237.5 264 L 238.5 263 L 240 263.5 L 239.5 262 L 236.5 262 Q 228.7 252.8 218.5 246 L 209.5 241 L 202 239.5 L 201 233.5 L 200 232.5 L 206 223.5 L 207 218.5 L 206 217.5 L 206 209.5 L 207 208.5 L 208 200.5 L 206 197.5 Q 209 196.5 208 191.5 Q 205.8 190.3 207 185.5 L 209 184.5 L 207 183.5 L 209.5 183 Q 210.5 185 214.5 184 L 215.5 183 L 237.5 183 L 238.5 182 L 256.5 182 L 257.5 183 L 260.5 183 L 261.5 184 L 276.5 187 L 280.5 189 L 291.5 191 L 295.5 193 L 298.5 193 L 299.5 194 L 302.5 194 L 303.5 195 L 306.5 195 L 307.5 196 L 310.5 196 L 311.5 197 L 314.5 197 L 323.5 200 L 329.5 200 L 333.5 202 L 336.5 202 L 351.5 207 L 354.5 209 L 368.5 213 L 379.5 218 L 385.5 219 L 386.5 218 L 392.5 218 L 393.5 217 L 405.5 216 L 409.5 218 L 412.5 218 L 420.5 221 L 427.5 222 L 431.5 224 L 438.5 225 L 442.5 227 L 453.5 229 L 457.5 231 L 464.5 232 L 479.5 237 L 487.5 238 L 492.5 240 L 496.5 240 L 501.5 242 L 505.5 242 L 510.5 244 L 514.5 244 L 519.5 246 L 594.5 246 L 595.5 245 L 614.5 245 L 615.5 244 L 635.5 244 Q 636.3 242.2 639.5 243 L 640 319.5 L 0.5 320 L 0 165.5 L 6.5 165 L 7.5 164 L 16.5 164 L 17.5 163 L 26.5 163 L 27.5 162 L 36.5 162 L 37.5 161 L 46.5 161 L 47.5 160 L 56.5 160 L 57.5 159 L 66.5 159 L 67.5 158 Z M 61 160 L 61 161 L 67 161 L 61 160 Z M 75 160 L 75 161 L 99 161 L 75 160 Z M 51 161 L 51 162 L 57 162 L 51 161 Z M 106 161 L 106 162 L 113 162 L 106 161 Z M 41 162 L 41 163 L 47 163 L 41 162 Z M 117 162 L 117 163 L 125 163 L 117 162 Z M 31 163 L 31 164 L 37 164 L 31 163 Z M 21 164 L 21 165 L 27 165 L 21 164 Z M 11 165 L 11 166 L 17 166 L 11 165 Z M 2 166 L 2 167 L 7 167 L 2 166 Z M 246 183 L 246 184 L 256 184 L 246 183 Z M 223 184 L 223 185 L 238 185 L 223 184 Z M 258 184 L 258 185 L 260 185 L 258 184 Z M 210 185 L 210 186 L 216 186 L 210 185 Z M 262 185 L 262 186 L 264 186 L 262 185 Z M 273 188 L 273 189 L 275 189 L 273 188 Z M 277 189 L 277 190 L 279 190 L 277 189 Z M 210 190 L 209 196 L 210 196 L 210 190 Z M 281 190 L 281 191 L 283 191 L 281 190 Z M 285 191 L 285 192 L 287 192 L 285 191 Z M 292 193 L 292 194 L 294 194 L 292 193 Z M 296 194 L 296 195 L 298 195 L 296 194 Z M 300 195 L 300 196 L 302 196 L 300 195 Z M 304 196 L 304 197 L 306 197 L 304 196 Z M 316 199 L 316 200 L 318 200 L 316 199 Z M 210 200 L 209 204 L 210 204 L 210 200 Z M 320 200 L 320 201 L 322 201 L 320 200 Z M 324 201 L 324 202 L 327 202 L 324 201 Z M 330 202 L 330 203 L 332 203 L 330 202 Z M 334 203 L 334 204 L 336 204 L 334 203 Z M 209 205 L 208 209 L 209 209 L 209 205 Z M 154 208 L 154 209 L 157 209 L 154 208 Z M 150 209 L 150 210 L 152 210 L 150 209 Z M 208 210 L 207 216 L 208 216 L 208 210 Z M 147 212 L 146 215 L 147 215 L 147 212 Z M 146 217 L 145 223 L 146 223 L 146 217 Z M 209 218 L 208 222 L 209 222 L 209 218 Z M 396 218 L 396 219 L 400 219 L 396 218 Z M 406 218 L 406 219 L 408 219 L 406 218 Z M 389 219 L 389 220 L 393 220 L 389 219 Z M 410 219 L 410 220 L 412 220 L 410 219 Z M 383 220 L 383 221 L 386 221 L 383 220 Z M 421 222 L 421 223 L 423 223 L 421 222 Z M 425 223 L 425 224 L 427 224 L 425 223 Z M 145 224 L 144 228 L 145 228 L 145 224 Z M 432 225 L 432 226 L 434 226 L 432 225 Z M 436 226 L 436 227 L 438 227 L 436 226 Z M 443 228 L 443 229 L 445 229 L 443 228 Z M 447 229 L 447 230 L 449 230 L 447 229 Z M 203 231 L 201 233 L 202 236 L 203 236 L 203 231 Z M 454 231 L 454 232 L 456 232 L 454 231 Z M 458 232 L 458 233 L 460 233 L 458 232 Z M 465 234 L 465 235 L 467 235 L 465 234 Z M 469 235 L 469 236 L 471 236 L 469 235 Z M 204 236 L 204 239 L 207 239 L 205 238 L 204 236 Z M 476 237 L 476 238 L 478 238 L 476 237 Z M 480 238 L 480 239 L 482 239 L 480 238 Z M 209 239 L 209 240 L 211 240 L 209 239 Z M 484 239 L 484 240 L 486 240 L 484 239 Z M 488 240 L 488 241 L 491 241 L 488 240 Z M 150 241 L 150 242 L 153 242 L 150 241 Z M 493 241 L 493 242 L 495 242 L 493 241 Z M 155 242 L 155 243 L 158 243 L 155 242 Z M 497 242 L 497 243 L 500 243 L 497 242 Z M 161 243 L 161 244 L 164 244 L 161 243 Z M 502 243 L 502 244 L 504 244 L 502 243 Z M 166 244 L 166 245 L 169 245 L 166 244 Z M 507 244 L 507 245 L 509 245 L 507 244 Z M 171 245 L 171 246 L 174 246 L 171 245 Z M 511 245 L 511 246 L 513 246 L 511 245 Z M 623 245 L 623 246 L 636 246 L 623 245 Z M 177 246 L 177 247 L 180 247 L 177 246 Z M 516 246 L 516 247 L 518 247 L 516 246 Z M 603 246 L 603 247 L 616 247 L 603 246 Z M 182 247 L 182 248 L 185 248 L 182 247 Z M 520 247 L 520 248 L 522 248 L 520 247 Z M 582 247 L 582 248 L 596 248 L 582 247 Z M 188 248 L 188 249 L 191 249 L 188 248 Z M 193 249 L 193 250 L 196 250 L 193 249 Z M 199 250 L 199 251 L 201 251 L 199 250 Z " /><path fill="rgb(128,58,19)" stroke="rgb(128,58,19)" stroke-width="1" opacity="0.9882352941176471" d="M 240.5 75 Q 245.3 74.2 247.5 76 L 249.5 75 L 255.5 78 L 260 82.5 L 267 90.5 L 274 103.5 L 274 113.5 L 268 123.5 L 264 136.5 L 266.5 141 L 268 131.5 L 274 119.5 L 276 109.5 L 277 108.5 L 277 105.5 L 281.5 97 L 283 96.5 L 282.5 95 L 283.5 96 L 296.5 83 L 300.5 80 L 305.5 80 L 307 83.5 L 300 88.5 L 300 91.5 L 298 95.5 L 297 104.5 L 295.5 109 L 280 120.5 L 280 122.5 L 270 138.5 L 269 142.5 Q 283.6 154.9 294 171.5 L 292.5 171 L 285.5 169 L 277.5 162 L 275.5 163 L 254.5 145 L 247.5 141 L 248 142.5 L 254 162.5 Q 253.3 164.8 249.5 164 L 239.5 159 L 239 159.5 L 241 161.5 Q 242.9 167.6 247.5 171 L 260.5 179 L 263 179.5 L 260.5 180 L 247.5 172 L 243 167.5 L 237 157.5 L 238.5 157 L 249.5 163 L 252.5 163 L 253 161.5 L 252 160.5 L 252 157.5 L 249 148.5 L 244.5 140 L 243 139.5 L 243.5 138 L 252.5 142 L 272.5 159 L 273 157.5 L 271 153.5 L 272 153.5 L 272.5 155 L 273 152.5 L 271.5 150 L 270.5 152 L 263 135.5 L 268 120.5 L 273 111.5 Q 270.8 110.3 272 105.5 L 273 103.5 L 264.5 90 Q 263.3 92.3 262 89.5 L 263 87.5 L 260.5 85 L 260 85.5 L 261 87.5 L 229.5 120 L 228 120.5 L 213 136.5 L 212 139.5 L 215 146.5 Q 212.2 148.2 213 153.5 L 215 156.5 L 215 158.5 L 210 161.5 L 212 171.5 L 205 186.5 Q 207 187.5 205 188.5 L 204.5 198 L 204 184.5 L 203 183.5 L 203 179.5 L 202 178.5 L 202 174.5 L 201 173.5 L 200 163.5 L 199 162.5 Q 199.7 158.3 198 156.5 L 200 155.5 L 196.5 154 L 190 153.5 L 198.5 153 L 199.5 154 Q 203.7 153.3 205.5 155 L 206 154.5 L 204 152.5 L 198.5 146 L 188.5 139 L 185 138.5 L 188.5 138 L 194.5 142 L 195 138.5 L 194 137.5 L 193.5 133 L 182.5 136 L 182.5 135 L 196.5 130 L 199.5 139 L 203.5 139 L 211.5 143 L 212 141.5 L 210 137.5 L 210 134.5 Q 212.5 134 212 130.5 Q 210 129.5 211 125.5 L 212 124.5 L 212 109.5 L 210 103.5 L 209 93.5 L 207.5 92 L 203 88.5 L 204.5 89 L 206.5 88 L 215.5 87 L 224 81.5 L 223.5 80 Q 225 82.5 226.5 79 L 230.5 77 Q 231.5 79 232.5 77 Q 234.3 75.3 238.5 76 Q 239.5 78 243.5 77 L 243.5 76 Q 239.5 76.8 240.5 75 Z M 259 83 L 258 85 L 260 85 Q 261 84 259 83 Z M 277 115 L 276 118 L 277 118 L 277 115 Z M 214 116 L 213 125 L 214 125 L 214 116 Z M 275 121 L 274 124 L 275 124 L 275 121 Z M 274 124 L 269 133 Q 270 136 268 138 L 269 139 L 276 128 L 274 124 Z M 213 125 L 212 129 L 213 129 L 213 125 Z M 214 130 L 213 133 L 214 133 L 214 130 Z M 212 135 L 211 138 L 212 138 L 212 135 Z M 273 148 L 272 150 L 276 159 L 285 167 L 289 169 L 291 169 Q 283 157 273 148 Z " /><path fill="rgb(128,58,19)" stroke="rgb(128,58,19)" stroke-width="1" opacity="0.9882352941176471" d="M 365.5 76 L 396.5 85 L 417.5 96 L 442.5 104 L 468.5 118 L 499.5 122 L 507 129.5 Q 514.7 140.3 524.5 149 Q 539.5 156 551.5 166 L 570.5 175 L 575 179.5 L 595 205.5 L 592.5 213 L 577.5 204 L 574.5 201 L 552.5 187 L 524.5 167 L 501.5 154 L 481.5 141 L 440.5 124 L 427.5 114 L 420.5 110 L 399.5 103 L 367.5 79 L 365 76.5 L 365.5 76 Z M 373 80 L 372 81 L 375 83 L 376 83 L 375 81 L 373 80 Z M 377 81 L 377 82 L 379 82 L 377 81 Z M 377 83 L 376 84 L 380 87 L 400 102 L 408 104 L 417 108 L 419 108 L 411 103 L 410 102 L 406 100 L 403 97 L 401 97 L 394 93 L 390 89 L 386 88 L 384 86 L 377 83 Z M 420 108 L 420 109 L 422 109 L 420 108 Z M 435 117 L 434 118 L 437 120 L 444 124 L 446 124 L 442 120 L 440 120 L 435 117 Z M 581 203 Q 579 204 582 205 L 583 205 L 581 203 Z M 593 204 L 592 208 L 593 208 L 593 204 Z M 584 205 L 583 206 L 586 208 L 592 212 L 592 210 L 588 206 L 584 205 Z " /><path fill="rgb(128,58,19)" stroke="rgb(128,58,19)" stroke-width="1" opacity="0.9882352941176471" d="M 357.5 79 L 450.5 147 L 456.5 149 L 462.5 149 L 463.5 150 L 470.5 151 L 476.5 153 L 481 156.5 L 484 161.5 L 503.5 181 Q 505.3 182.7 509.5 182 L 510.5 183 L 514.5 183 L 515.5 184 L 519.5 184 L 520.5 185 L 524.5 185 L 530.5 188 L 536.5 192 L 561.5 217 Q 573.4 224.1 583 233.5 L 577.5 234 L 576.5 233 L 571.5 233 L 570.5 232 L 564.5 232 Q 563.8 230.3 560.5 231 L 511 204.5 L 509.5 202 L 494 191.5 L 493.5 190 L 490.5 189 Q 487.3 184.7 482 182.5 L 481.5 181 L 479 180.5 L 478.5 179 L 475 177.5 L 474.5 176 L 471.5 175 L 459.5 165 L 456.5 164 L 440.5 151 L 433 146.5 L 432.5 145 L 429.5 144 Q 426.3 139.7 421 137.5 L 420.5 136 L 413 131.5 L 412.5 130 L 410.5 130 L 406.5 126 L 398.5 120 L 395.5 119 L 380.5 107 L 380 107.5 L 392.5 120 L 395 121.5 L 395.5 123 L 422 144.5 L 421.5 145 L 419.5 143 L 401.5 130 L 373 101.5 L 361 84.5 L 357 80.5 L 357.5 79 Z " /><path fill="rgb(128,58,19)" stroke="rgb(128,58,19)" stroke-width="1" opacity="0.9882352941176471" d="M 194.5 80 L 196 85.5 L 197.5 87 L 202 89.5 L 205 96.5 L 205 103.5 L 204 104.5 L 203.5 109 L 202 102.5 L 199.5 100 L 190.5 95 L 181.5 92 L 174.5 91 L 168.5 88 L 163.5 87 L 162 85.5 L 163.5 85 L 168.5 87 L 181.5 88 L 188.5 91 Q 191.3 89.8 190 84.5 L 189.5 83 L 191 83.5 L 191.5 85 L 193 84.5 L 194.5 80 Z " /><path fill="rgb(128,58,19)" stroke="rgb(128,58,19)" stroke-width="1" opacity="0.9882352941176471" d="M 317.5 84 L 331.5 94 L 332.5 92 L 346.5 86 L 353 92.5 L 353 94.5 L 351 97.5 L 352.5 98 L 356.5 96 L 357.5 103 L 367.5 101 L 376 107.5 L 375.5 115 Q 370.5 116 368 119.5 L 365 124.5 L 362 134.5 L 373 143.5 L 382 156.5 L 389 169.5 L 388.5 170 L 386 167.5 L 375.5 153 L 370 148.5 L 359.5 136 L 357.5 136 Q 354.5 131 347.5 130 L 337 120.5 L 333.5 116 L 330 113.5 L 331.5 113 L 336.5 116 L 337 115.5 L 330.5 109 L 326 105.5 L 330 104.5 L 322 94.5 L 321 91.5 L 324 90.5 L 317 84.5 L 317.5 84 Z M 354 119 L 354 122 L 362 133 L 364 124 Q 366 122 364 121 L 362 122 L 359 120 L 357 121 L 354 119 Z M 361 135 L 360 136 Q 367 141 372 150 L 375 151 L 378 154 L 378 154 L 373 146 L 361 135 Z M 379 154 L 378 156 Q 379 158 380 157 L 379 154 Z " /><path fill="rgb(128,58,19)" stroke="rgb(128,58,19)" stroke-width="1" opacity="0.9882352941176471" d="M 289.5 86 L 290 86.5 L 284.5 92 L 284 91.5 L 289.5 86 Z " /><path fill="rgb(128,58,19)" stroke="rgb(128,58,19)" stroke-width="1" opacity="0.9882352941176471" d="M 153.5 91 L 154.5 93 L 164 101.5 L 165 104.5 L 164 104.5 L 162.5 101 L 158.5 98 L 157 99.5 L 161 103.5 L 160.5 105 L 156.5 100 L 154.5 99 L 153.5 100 L 146.5 100 L 146 99.5 L 149 96.5 L 153.5 91 Z " /><path fill="rgb(128,58,19)" stroke="rgb(128,58,19)" stroke-width="1" opacity="0.9882352941176471" d="M 143.5 101 L 144 103.5 L 136 112.5 L 136 126.5 L 138 130.5 L 138 134.5 L 135.5 137 L 122.5 144 L 112.5 152 Q 110.7 153.7 106.5 153 L 105.5 152 L 78.5 152 L 77.5 153 L 68.5 153 L 62.5 151 L 55.5 151 L 54.5 152 L 51.5 152 L 46.5 154 L 42.5 154 L 37.5 156 L 33.5 156 L 32.5 157 L 28.5 157 L 27.5 158 L 19.5 159 L 18.5 160 L 14.5 160 L 14.5 159 L 64.5 123 L 67.5 123 L 68.5 122 L 71.5 122 L 72.5 121 L 75.5 121 L 76.5 120 L 79.5 120 L 80.5 119 L 83.5 119 L 84.5 118 L 87.5 118 L 88.5 117 L 103.5 114 L 127.5 103 Q 132.3 104.3 133.5 102 L 142.5 102 L 143.5 101 Z M 127 138 L 126 140 L 125 139 L 124 140 L 123 139 L 119 141 L 116 140 L 115 142 L 114 140 L 113 142 L 108 143 L 105 142 L 104 144 L 103 142 L 102 144 L 97 145 L 94 144 L 93 146 L 92 144 L 91 146 L 89 146 L 86 147 L 85 146 L 84 147 L 83 146 L 82 148 L 81 146 L 80 148 L 78 148 L 77 150 L 76 149 L 75 149 L 74 148 L 73 149 L 72 148 L 71 150 L 70 149 L 66 151 L 71 152 L 73 151 L 88 151 L 89 150 L 109 151 L 110 152 L 122 144 Q 124 143 122 142 L 124 142 L 127 141 Q 130 140 127 138 Z M 55 149 L 55 150 L 57 150 L 55 149 Z M 63 149 L 63 150 L 65 150 L 63 149 Z M 51 150 L 51 151 L 53 151 L 51 150 Z M 47 151 L 47 152 L 49 152 L 47 151 Z M 42 152 L 42 153 L 44 153 L 42 152 Z M 37 153 L 37 154 L 40 154 L 37 153 Z M 32 154 L 32 155 L 35 155 L 32 154 Z M 23 155 Q 20 156 22 157 L 25 157 L 23 155 Z M 28 155 L 28 156 L 30 156 L 28 155 Z " /><path fill="rgb(128,58,19)" stroke="rgb(128,58,19)" stroke-width="1" opacity="0.9882352941176471" d="M 148.5 121 L 150 123.5 L 149 123.5 L 148.5 122 Q 145.5 122.5 146 126.5 L 148 128.5 L 147.5 129 L 145 127.5 L 144 124.5 L 148.5 121 Z " /><path fill="rgb(128,58,19)" stroke="rgb(128,58,19)" stroke-width="1" opacity="0.9882352941176471" d="M 178.5 124 L 179 125.5 L 176.5 129 L 171.5 130 L 170 131.5 L 168.5 135 L 162.5 133 L 157 136.5 L 163 140.5 L 161.5 141 L 155 136.5 L 154.5 135 L 151 136.5 L 144.5 147 L 142 148.5 L 143.5 151 L 145 150.5 L 143.5 152 Q 142 148.5 140.5 151 Q 135.9 151.9 134 155.5 L 133.5 159 L 131.5 158 L 123.5 158 L 122.5 157 L 114 156.5 L 114.5 155 L 128.5 146 L 136.5 139 L 141.5 147 L 145 145.5 L 146 141.5 L 150 136.5 Q 149.3 132.8 151.5 132 L 159.5 129 L 166.5 129 L 169.5 127 L 178.5 124 Z M 177 126 L 171 128 L 171 129 L 174 129 L 177 128 L 177 126 Z M 169 129 L 162 132 L 168 134 L 170 130 L 169 129 Z " /><path fill="rgb(128,58,19)" stroke="rgb(128,58,19)" stroke-width="1" opacity="0.9882352941176471" d="M 177.5 136 L 181 136.5 L 177.5 137 L 177.5 136 Z " /><path fill="rgb(128,58,19)" stroke="rgb(128,58,19)" stroke-width="1" opacity="0.9882352941176471" d="M 164.5 141 L 167 142.5 L 164.5 143 L 164.5 141 Z " /><path fill="rgb(128,58,19)" stroke="rgb(128,58,19)" stroke-width="1" opacity="0.9882352941176471" d="M 158.5 142 L 163 142.5 L 158.5 143 L 157.5 144 Q 156 143 158.5 142 Z " /><path fill="rgb(128,58,19)" stroke="rgb(128,58,19)" stroke-width="1" opacity="0.9882352941176471" d="M 149.5 145 L 156 145.5 L 149 146.5 L 146.5 150 L 146 149.5 L 148 147.5 L 149.5 145 Z " /><path fill="rgb(128,58,19)" stroke="rgb(128,58,19)" stroke-width="1" opacity="0.9882352941176471" d="M 185.5 152 L 186.5 153 L 188 152.5 L 187 153.5 L 191 157.5 L 190.5 158 L 189 158.5 L 198 169.5 Q 196.5 172.5 190.5 171 L 190.5 170 L 196 169.5 L 187 158.5 L 189 157.5 L 185 152.5 L 185.5 152 Z " /><path fill="rgb(128,58,19)" stroke="rgb(128,58,19)" stroke-width="1" opacity="0.9882352941176471" d="M 147.5 153 L 153 153.5 L 150 155.5 L 150.5 163 L 155.5 160 Q 157 161 154.5 162 L 152 163.5 L 155 167.5 L 155 174.5 L 154 174.5 L 154 167.5 L 152.5 166 L 150.5 165 L 150 174.5 L 150.5 176 L 148.5 176 Q 144.4 171.6 138 169.5 Q 139.7 167.7 139 163.5 L 136 159.5 L 137.5 158 L 142 157.5 L 142.5 154 Q 146.5 155 147.5 153 Z " /><path fill="rgb(128,58,19)" stroke="rgb(128,58,19)" stroke-width="1" opacity="0.9882352941176471" d="M 190.5 172 L 191 173.5 L 189.5 174 Q 188 173 190.5 172 Z " /><path fill="rgb(128,58,19)" stroke="rgb(128,58,19)" stroke-width="1" opacity="0.9882352941176471" d="M 186.5 174 L 188 174.5 L 187 175.5 L 187.5 177 Q 185.1 176.1 186.5 174 Z " /><path fill="rgb(128,58,19)" stroke="rgb(128,58,19)" stroke-width="1" opacity="0.9882352941176471" d="M 211.5 176 L 221.5 178 L 222.5 179 L 225.5 179 L 226.5 180 L 238.5 180 L 239.5 181 L 246 181.5 L 239.5 182 L 238.5 181 L 225.5 181 L 224.5 180 L 221.5 180 L 217.5 178 L 211.5 177 L 211.5 176 Z " /><path fill="rgb(128,58,19)" stroke="rgb(128,58,19)" stroke-width="1" opacity="0.9882352941176471" d="M 173.5 177 L 173 178.5 L 173.5 186 L 178.5 186 L 182.5 183 L 185.5 183 Q 188 184 186.5 185 L 181.5 185 L 167.5 198 Q 166.5 196 165.5 198 L 163 195.5 L 159 188.5 L 168 183.5 L 173.5 177 Z " /><path fill="rgb(128,58,19)" stroke="rgb(128,58,19)" stroke-width="1" opacity="0.9882352941176471" d="M 188.5 178 L 191 181.5 Q 190 183 189 180.5 L 188.5 178 Z " /><path fill="rgb(128,58,19)" stroke="rgb(128,58,19)" stroke-width="1" opacity="0.9882352941176471" d="M 264.5 180 L 269 181.5 L 260.5 182 L 259.5 183 L 256 181.5 L 258.5 181 Q 259.5 183 260.5 181 Q 263.8 181.8 264.5 180 Z " /><path fill="rgb(128,58,19)" stroke="rgb(128,58,19)" stroke-width="1" opacity="0.9882352941176471" d="M 191.5 183 L 194 187.5 L 192 190.5 L 201 208.5 L 200 208.5 L 191 190.5 L 191 188.5 L 193 187.5 L 191 183.5 L 191.5 183 Z " /><path fill="rgb(128,58,19)" stroke="rgb(128,58,19)" stroke-width="1" opacity="0.9882352941176471" d="M 183.5 193 L 186 193.5 L 183.5 194 L 183.5 193 Z " /><path fill="rgb(128,58,19)" stroke="rgb(128,58,19)" stroke-width="1" opacity="0.9882352941176471" d="M 179.5 194 L 182 194.5 Q 179.5 196 183 197.5 L 186.5 203 L 188.5 201 L 189 201.5 Q 186.5 206.5 184 201.5 L 179 194.5 L 179.5 194 Z " /><path fill="rgb(128,58,19)" stroke="rgb(128,58,19)" stroke-width="1" opacity="0.9882352941176471" d="M 204.5 199 L 205 207.5 L 206 209.5 L 205 209.5 L 204 207.5 L 204.5 199 Z " /><path fill="rgb(128,58,19)" stroke="rgb(128,58,19)" stroke-width="1" opacity="0.9882352941176471" d="M 195.5 208 L 195 209.5 L 192.5 215 L 192 213.5 L 195.5 208 Z " /><path fill="rgb(128,58,19)" stroke="rgb(128,58,19)" stroke-width="1" opacity="0.9882352941176471" d="M 197.5 209 L 202 210.5 L 201.5 212 L 198.5 211 Q 196 210 197.5 209 Z " /><path fill="rgb(128,58,19)" stroke="rgb(128,58,19)" stroke-width="1" opacity="0.9882352941176471" d="M 205.5 215 L 206 219.5 L 203.5 223 L 204 221.5 L 205.5 215 Z " /><path fill="rgb(128,58,19)" stroke="rgb(128,58,19)" stroke-width="1" opacity="0.9882352941176471" d="M 193.5 218 L 196 221.5 Q 195 223 194 220.5 L 193.5 218 Z " /><path fill="rgb(128,58,19)" stroke="rgb(128,58,19)" stroke-width="1" opacity="0.9882352941176471" d="M 197.5 225 L 199.5 228 L 201 228.5 Q 200 231 199 229.5 L 197 225.5 L 197.5 225 Z " /><path fill="rgb(158,70,20)" stroke="rgb(158,70,20)" stroke-width="1" opacity="0.9725490196078431" d="M 287.5 57 L 294.5 57 L 302.5 64 L 305.5 64 L 309 65.5 L 301 70.5 L 300.5 75 L 299 75.5 L 295.5 80 L 292 82.5 L 292.5 86 L 294 84.5 L 293.5 83 L 295 84.5 L 282.5 97 L 280 98.5 L 277 105.5 L 277 108.5 L 276 109.5 L 274 119.5 L 267 134.5 Q 268 140 266 142.5 L 269.5 150 L 270.5 149 L 272 149.5 L 268 143.5 L 270 138.5 L 268 138.5 Q 269.7 136.7 269 132.5 L 275.5 119 L 276 120.5 L 274 124.5 Q 275 127 276 125.5 L 278.5 120 L 279 121.5 L 275 129.5 Q 276 131 277 128.5 L 280 122.5 L 280 120.5 L 282.5 118 L 296 108.5 L 298 95.5 L 300 91.5 L 300 88.5 L 301.5 87 Q 305.4 86.4 307 83.5 L 305.5 80 Q 298.8 78.8 297.5 83 L 297 82.5 L 301.5 78 L 306 75.5 L 306.5 74 L 313.5 70 L 315 70.5 L 315.5 69 L 316 70.5 L 313 72.5 L 314.5 75 Q 319.5 76 321.5 80 L 326.5 80 L 326.5 79 Q 323.5 79.5 323 77.5 L 322.5 69 L 319 68.5 L 320.5 67 L 331.5 67 L 332.5 68 L 344.5 68 L 357.5 73 L 369.5 75 L 388.5 82 L 392.5 82 L 393.5 83 L 402.5 84 L 407.5 86 L 411.5 86 L 415.5 88 L 418.5 88 L 428.5 92 L 431.5 92 L 441.5 96 L 444.5 96 L 448.5 98 L 455.5 99 L 459.5 101 L 475.5 103 L 553.5 142 L 555.5 144 L 586 159.5 L 589 168.5 L 591 171.5 L 591 173.5 L 593 176.5 L 593 178.5 L 595 181.5 L 596 186.5 L 639 242.5 L 623.5 243 L 622.5 244 L 602.5 244 L 601.5 245 L 582.5 245 L 581.5 246 L 522.5 246 L 517.5 244 L 513.5 244 L 508.5 242 L 504.5 242 L 499.5 240 L 495.5 240 L 490.5 238 L 486.5 238 L 485.5 237 L 474.5 235 L 470.5 233 L 463.5 232 L 459.5 230 L 452.5 229 L 448.5 227 L 441.5 226 L 437.5 224 L 430.5 223 L 426.5 221 L 423.5 221 L 422.5 220 L 419.5 220 L 418.5 219 L 415.5 219 L 411.5 217 L 408.5 217 L 402.5 215 L 401.5 216 L 395.5 216 L 394.5 217 L 381.5 218 L 378.5 216 L 370.5 214 L 367.5 212 L 356.5 209 L 353.5 207 L 335.5 201 L 327.5 200 L 326.5 199 L 322.5 199 L 317.5 197 L 313.5 197 L 309.5 195 L 305.5 195 L 290.5 190 L 287.5 190 L 286.5 189 L 271.5 186 L 267.5 184 L 260.5 183 L 258.5 181 L 239.5 181 L 238.5 182 L 209.5 183 Q 207.5 182.5 208 179.5 Q 211.1 176.1 212 170.5 L 211 169.5 L 210 161.5 L 215 158.5 L 215 156.5 L 213 153.5 L 213 149.5 L 215 146.5 L 211.5 138 L 210 138.5 L 212 133.5 L 211.5 132 L 213 132.5 L 213.5 130 L 214 132.5 L 212 135.5 L 212 137.5 L 213 137.5 L 228.5 120 L 234 115.5 L 261 87.5 L 259.5 85 L 258 84.5 L 254 79.5 L 254.5 79 L 259.5 84 L 260 83.5 L 255.5 78 L 250 75.5 L 250.5 74 L 253.5 74 L 266.5 68 L 277.5 58 L 280.5 58 L 282.5 61 L 287.5 57 Z M 289 71 L 288 73 L 285 74 L 271 74 L 270 81 L 269 83 L 264 81 L 262 82 L 266 89 L 263 88 L 267 95 L 269 96 L 270 96 L 269 98 L 271 97 L 272 99 L 270 99 L 271 102 Q 272 104 273 103 L 272 101 L 283 87 L 291 73 L 289 71 Z M 366 76 L 365 77 L 368 79 L 370 78 L 373 80 L 375 80 L 375 82 L 377 81 L 379 82 L 376 83 L 384 86 L 386 88 L 390 89 L 394 93 L 401 97 L 403 97 L 406 100 L 410 101 L 410 103 L 420 108 L 424 109 Q 426 110 425 111 L 422 109 L 413 106 L 410 107 L 421 110 L 428 114 L 427 111 L 433 116 L 450 125 L 450 126 L 441 122 L 439 123 L 443 125 L 445 125 L 450 128 L 452 128 L 457 131 L 464 133 L 469 136 L 471 136 L 482 141 L 502 154 L 528 169 L 528 167 Q 530 168 528 170 L 553 187 L 575 201 L 574 198 L 579 202 L 586 206 L 588 206 L 592 210 L 591 213 L 593 213 L 595 206 L 575 180 L 571 175 L 552 166 Q 539 156 525 149 Q 515 140 507 130 L 500 122 L 469 118 L 443 104 L 418 96 L 397 85 L 366 76 Z M 358 79 L 357 81 L 361 85 L 373 102 L 377 105 L 378 104 L 396 119 L 399 120 L 411 130 L 413 130 L 413 132 L 421 136 L 421 138 Q 426 140 430 144 L 433 145 L 433 147 L 441 151 L 457 164 L 460 165 L 472 175 L 475 176 L 475 178 L 479 179 L 479 181 L 482 181 L 482 183 Q 487 185 491 189 L 494 190 L 494 192 L 510 202 L 511 205 L 561 231 Q 564 230 565 232 L 571 232 L 572 233 L 577 233 L 578 234 L 583 234 Q 573 224 562 217 L 537 192 L 531 188 L 525 185 L 521 185 L 520 184 L 516 184 L 515 183 L 511 183 L 510 182 Q 505 183 504 181 L 484 162 L 481 157 L 477 153 L 471 151 L 464 150 L 463 149 L 457 149 L 451 147 L 358 79 Z M 371 80 L 370 81 L 373 83 L 374 83 L 371 80 Z M 375 83 L 374 84 L 377 86 L 378 86 L 375 83 Z M 318 84 L 317 85 L 320 87 L 321 87 L 318 84 Z M 346 86 L 333 92 L 332 94 L 323 88 L 322 89 L 324 91 L 321 92 L 322 95 L 330 105 L 326 106 L 331 109 L 337 116 L 337 116 L 332 113 L 330 114 L 334 116 L 337 121 L 348 130 Q 355 131 358 136 L 360 136 L 359 135 L 361 135 L 362 135 L 353 120 L 355 119 Q 356 122 358 120 L 361 122 L 363 121 L 365 123 L 362 130 L 363 133 L 365 125 L 368 120 Q 370 116 376 115 L 376 108 L 368 101 L 358 103 L 357 96 L 352 98 L 350 99 L 353 95 L 353 93 L 346 86 Z M 380 87 L 379 88 L 382 90 L 383 90 L 380 87 Z M 384 90 L 383 91 L 386 93 L 387 93 L 384 90 Z M 388 93 L 387 94 L 390 96 L 391 96 L 388 93 Z M 392 96 L 391 97 L 394 99 L 395 99 L 392 96 Z M 396 99 Q 394 100 397 101 L 398 101 L 396 99 Z M 400 102 L 400 103 L 408 106 L 410 106 L 400 102 Z M 274 103 L 272 106 Q 271 110 273 112 L 268 121 L 269 123 L 274 114 L 274 103 Z M 429 114 L 428 115 L 431 117 L 432 117 L 429 114 Z M 433 117 L 432 118 L 435 120 L 436 120 L 433 117 Z M 393 120 L 392 121 L 395 123 L 395 122 L 393 120 Z M 437 120 Q 435 121 438 122 L 439 122 L 437 120 Z M 268 123 L 267 126 L 268 126 L 268 123 Z M 396 123 L 395 124 L 402 130 L 403 130 L 396 123 Z M 267 126 L 266 129 L 267 129 L 267 126 Z M 266 129 L 265 132 L 266 132 L 266 129 Z M 275 130 L 273 133 Q 274 134 275 132 L 275 130 Z M 405 131 L 404 132 L 407 134 L 408 134 L 405 131 Z M 265 132 L 264 135 L 265 135 L 265 132 Z M 273 133 L 270 137 L 271 138 L 273 135 L 273 133 Z M 409 134 L 408 135 L 411 137 L 412 137 L 409 134 Z M 364 136 L 363 137 L 367 140 L 368 140 L 364 136 Z M 362 137 L 361 139 L 368 145 L 368 145 L 362 137 Z M 244 138 L 243 140 L 245 140 L 247 144 L 248 148 L 249 148 L 248 143 Q 244 141 247 140 L 244 138 Z M 414 138 Q 412 139 415 140 L 416 140 L 414 138 Z M 370 141 L 369 142 L 373 145 L 373 144 L 370 141 Z M 418 141 Q 416 142 419 143 L 420 143 L 418 141 Z M 252 142 L 251 143 L 254 145 L 255 145 L 252 142 Z M 271 144 L 270 146 L 283 158 L 283 158 L 271 144 Z M 374 145 L 373 147 Q 374 149 375 148 L 374 145 Z M 258 147 Q 256 148 259 149 L 260 149 L 258 147 Z M 371 147 L 370 149 Q 371 151 372 150 L 371 147 Z M 250 148 L 249 151 L 250 151 L 250 148 Z M 376 148 L 375 150 L 378 152 L 378 152 L 376 148 Z M 251 151 L 250 154 L 251 154 L 251 151 Z M 263 151 L 262 152 L 265 154 L 266 154 L 263 151 Z M 374 151 Q 372 152 375 153 L 376 153 L 374 151 Z M 274 152 L 273 155 L 274 155 L 274 152 Z M 379 152 L 378 154 Q 379 156 380 155 L 379 152 Z M 377 153 L 376 155 Q 377 157 378 156 L 377 153 Z M 252 154 L 251 157 L 252 157 L 252 154 Z M 381 155 L 380 157 Q 381 159 382 158 L 381 155 Z M 269 156 Q 267 157 270 158 L 271 158 L 269 156 Z M 238 157 Q 236 159 239 160 L 241 159 L 238 157 Z M 253 157 L 252 161 L 253 161 L 253 157 Z M 276 157 L 273 161 L 277 163 L 277 163 L 275 161 L 276 160 L 281 165 L 282 165 L 276 157 Z M 285 159 L 284 161 L 287 163 L 287 163 L 285 159 Z M 240 160 L 239 162 Q 240 164 241 163 L 240 160 Z M 385 161 L 383 163 L 386 168 L 389 170 L 389 170 L 385 161 Z M 250 163 L 250 164 L 253 164 L 250 163 Z M 289 164 L 288 166 L 291 168 L 291 168 L 289 164 Z M 285 167 Q 283 168 286 169 L 288 169 L 285 167 Z M 289 169 L 289 170 L 294 172 L 294 171 Q 293 168 292 170 L 289 169 Z M 212 176 L 212 177 L 214 177 L 212 176 Z M 215 177 L 215 178 L 218 178 L 215 177 Z M 258 177 Q 256 178 259 179 L 260 179 L 258 177 Z M 219 178 L 219 179 L 225 180 L 226 181 L 239 181 L 227 180 L 222 178 L 219 178 Z M 261 179 L 261 180 L 263 180 L 261 179 Z M 265 180 Q 264 182 261 181 L 261 182 L 269 182 L 265 180 Z M 576 201 L 575 202 L 578 204 L 584 208 L 585 208 L 576 201 Z M 586 208 Q 584 209 587 210 L 588 210 L 586 208 Z M 589 210 Q 587 211 590 212 L 591 212 L 589 210 Z " /><path fill="rgb(158,70,20)" stroke="rgb(158,70,20)" stroke-width="1" opacity="0.9725490196078431" d="M 232.5 76 L 234 76.5 L 231.5 78 Q 230 77 232.5 76 Z " /><path fill="rgb(158,70,20)" stroke="rgb(158,70,20)" stroke-width="1" opacity="0.9725490196078431" d="M 239.5 76 L 244 76.5 L 239.5 77 L 239.5 76 Z " /><path fill="rgb(158,70,20)" stroke="rgb(158,70,20)" stroke-width="1" opacity="0.9725490196078431" d="M 224.5 80 L 225 80.5 L 222.5 83 L 215.5 87 L 206.5 88 L 204.5 89 L 202 87.5 L 202.5 85 L 206.5 85 L 211.5 81 L 217.5 81 L 220.5 82 L 224.5 80 Z " /><path fill="rgb(158,70,20)" stroke="rgb(158,70,20)" stroke-width="1" opacity="0.9725490196078431" d="M 189.5 84 L 190 88.5 L 189 88.5 L 189.5 84 Z " /><path fill="rgb(158,70,20)" stroke="rgb(158,70,20)" stroke-width="1" opacity="0.9725490196078431" d="M 132.5 95 L 146 95.5 Q 142.5 97 145 98.5 L 142.5 102 L 133.5 102 Q 132.3 104.3 127.5 103 L 103.5 114 L 100.5 114 L 99.5 115 L 96.5 115 L 95.5 116 L 92.5 116 L 91.5 117 L 88.5 117 L 87.5 118 L 84.5 118 L 83.5 119 L 80.5 119 L 79.5 120 L 64.5 123 L 14 159.5 L 18.5 160 L 23.5 158 L 37.5 156 L 42.5 154 L 46.5 154 L 55.5 151 L 62.5 151 L 68.5 153 L 77.5 153 L 78.5 152 L 105.5 152 Q 106.5 154 110.5 153 L 110.5 152 L 108.5 151 L 88.5 150 L 87.5 151 L 72.5 151 L 70.5 152 L 66 150.5 L 69.5 149 L 71 149.5 L 71.5 148 L 72.5 149 L 73.5 148 L 74.5 149 L 76 148.5 L 76.5 150 L 77.5 148 L 80 147.5 L 80.5 146 L 81.5 148 L 82.5 146 L 83.5 147 L 84.5 146 L 85.5 147 L 88.5 146 L 91 145.5 L 91.5 144 L 92.5 146 L 93.5 144 L 96.5 145 L 102 143.5 L 102.5 142 L 103.5 144 L 104.5 142 L 107.5 143 L 113 141.5 L 113.5 140 L 114.5 142 L 115.5 140 L 118.5 141 L 122.5 139 L 123.5 140 L 124.5 139 L 126 139.5 L 126.5 138 Q 127.5 140 128.5 138 L 130.5 137 Q 132 138 129.5 139 L 127 140.5 L 128.5 141 L 135.5 137 Q 138.5 138.5 135.5 140 L 128.5 146 L 114 155.5 L 114.5 157 L 131.5 158 L 135 159.5 L 133.5 161 L 124.5 161 L 123.5 160 L 113.5 160 L 112.5 159 L 99.5 159 L 98.5 158 L 61.5 158 L 60.5 159 L 50.5 159 L 49.5 160 L 41.5 160 L 40.5 161 L 30.5 161 L 29.5 162 L 20.5 162 L 19.5 163 L 2.5 164 Q 1 163 3.5 162 L 50.5 126 L 56.5 120 L 58.5 120 L 61.5 118 L 66.5 117 L 69.5 115 L 84.5 110 L 93.5 109 L 108.5 104 L 111.5 104 L 120.5 101 L 126.5 97 L 132.5 95 Z M 126 141 L 124 142 Q 121 143 123 144 L 127 142 L 126 141 Z M 121 144 L 118 147 L 119 147 L 122 145 L 121 144 Z M 117 147 Q 114 148 116 149 L 118 148 L 117 147 Z M 113 150 Q 110 151 112 152 L 114 151 L 113 150 Z " /><path fill="rgb(158,70,20)" stroke="rgb(158,70,20)" stroke-width="1" opacity="0.9725490196078431" d="M 371.5 96 L 374 98.5 L 373.5 99 L 371 96.5 L 371.5 96 Z " /><path fill="rgb(158,70,20)" stroke="rgb(158,70,20)" stroke-width="1" opacity="0.9725490196078431" d="M 158.5 98 L 163 101.5 L 164.5 105 L 166 105.5 L 165.5 107 L 167 107.5 L 168 111.5 L 165.5 114 L 165 113.5 L 167 110.5 L 165.5 108 L 158 111.5 L 157.5 113 L 157 110.5 Q 160.2 108.2 161 103.5 Q 159.8 100.8 158.5 103 L 156 100.5 L 158.5 98 Z " /><path fill="rgb(158,70,20)" stroke="rgb(158,70,20)" stroke-width="1" opacity="0.9725490196078431" d="M 374.5 100 L 377 102.5 L 376.5 103 L 374 100.5 L 374.5 100 Z " /><path fill="rgb(158,70,20)" stroke="rgb(158,70,20)" stroke-width="1" opacity="0.9725490196078431" d="M 211.5 109 L 212 112.5 L 211 112.5 L 211.5 109 Z " /><path fill="rgb(158,70,20)" stroke="rgb(158,70,20)" stroke-width="1" opacity="0.9725490196078431" d="M 348.5 113 L 353 117.5 L 352.5 118 L 348 113.5 L 348.5 113 Z " /><path fill="rgb(158,70,20)" stroke="rgb(158,70,20)" stroke-width="1" opacity="0.9725490196078431" d="M 156.5 114 L 157.5 116 L 160 117.5 L 158.5 117 L 156 115.5 L 156.5 114 Z " /><path fill="rgb(158,70,20)" stroke="rgb(158,70,20)" stroke-width="1" opacity="0.9725490196078431" d="M 276.5 115 L 277 117.5 L 276 117.5 L 276.5 115 Z " /><path fill="rgb(158,70,20)" stroke="rgb(158,70,20)" stroke-width="1" opacity="0.9725490196078431" d="M 213.5 116 L 214 124.5 L 212.5 129 L 211 124.5 L 213 124.5 L 213.5 116 Z " /><path fill="rgb(158,70,20)" stroke="rgb(158,70,20)" stroke-width="1" opacity="0.9725490196078431" d="M 148.5 122 L 151 125.5 L 148.5 129 Q 145.5 128.5 146 124.5 L 148.5 122 Z " /><path fill="rgb(158,70,20)" stroke="rgb(158,70,20)" stroke-width="1" opacity="0.9725490196078431" d="M 176.5 126 L 178 128.5 L 176.5 128 L 170.5 129 L 169 130.5 Q 169.5 133.5 167.5 134 L 162 131.5 L 176.5 126 Z " /><path fill="rgb(158,70,20)" stroke="rgb(158,70,20)" stroke-width="1" opacity="0.9725490196078431" d="M 453.5 127 L 457 128.5 L 455.5 129 L 453 127.5 L 453.5 127 Z " /><path fill="rgb(158,70,20)" stroke="rgb(158,70,20)" stroke-width="1" opacity="0.9725490196078431" d="M 458.5 129 L 462 130.5 L 460.5 131 L 458 129.5 L 458.5 129 Z " /><path fill="rgb(158,70,20)" stroke="rgb(158,70,20)" stroke-width="1" opacity="0.9725490196078431" d="M 136.5 133 L 137 133.5 L 134.5 136 L 132.5 137 Q 131 136 133.5 135 L 136.5 133 Z " /><path fill="rgb(158,70,20)" stroke="rgb(158,70,20)" stroke-width="1" opacity="0.9725490196078431" d="M 157.5 133 L 159 133.5 L 156.5 135 Q 155 134 157.5 133 Z " /><path fill="rgb(158,70,20)" stroke="rgb(158,70,20)" stroke-width="1" opacity="0.9725490196078431" d="M 191.5 133 L 194 133.5 L 194 137.5 L 196 142.5 L 195.5 143 L 193.5 141 L 191.5 142 L 192 140.5 L 190.5 139 L 182.5 137 L 181 137.5 L 181.5 135 L 183.5 136 L 191.5 133 Z " /><path fill="rgb(158,70,20)" stroke="rgb(158,70,20)" stroke-width="1" opacity="0.9725490196078431" d="M 154.5 135 L 157.5 139 L 160.5 140 L 162 139.5 L 161.5 141 L 164 141.5 L 163.5 143 Q 162.5 141 158.5 142 L 157 143.5 Q 159.3 144.8 156.5 146 L 155.5 145 L 149.5 145 L 145.5 151 L 144.5 150 L 142.5 152 L 142 151.5 L 143 149.5 Q 140.8 148.3 143.5 147 L 145 146.5 L 144.5 145 L 146 145.5 Q 147.6 139.6 151.5 136 L 154.5 135 Z " /><path fill="rgb(158,70,20)" stroke="rgb(158,70,20)" stroke-width="1" opacity="0.9725490196078431" d="M 54.5 149 L 57 149.5 L 54.5 150 L 54.5 149 Z " /><path fill="rgb(158,70,20)" stroke="rgb(158,70,20)" stroke-width="1" opacity="0.9725490196078431" d="M 62.5 149 L 65 149.5 L 62.5 150 L 62.5 149 Z " /><path fill="rgb(158,70,20)" stroke="rgb(158,70,20)" stroke-width="1" opacity="0.9725490196078431" d="M 50.5 150 L 53 150.5 L 50.5 151 L 50.5 150 Z " /><path fill="rgb(158,70,20)" stroke="rgb(158,70,20)" stroke-width="1" opacity="0.9725490196078431" d="M 46.5 151 L 49 151.5 L 46.5 152 L 46.5 151 Z " /><path fill="rgb(158,70,20)" stroke="rgb(158,70,20)" stroke-width="1" opacity="0.9725490196078431" d="M 26.5 152 L 27 152.5 L 24.5 155 L 24 154.5 L 26.5 152 Z " /><path fill="rgb(158,70,20)" stroke="rgb(158,70,20)" stroke-width="1" opacity="0.9725490196078431" d="M 41.5 152 L 44 152.5 L 41.5 153 L 41.5 152 Z " /><path fill="rgb(158,70,20)" stroke="rgb(158,70,20)" stroke-width="1" opacity="0.9725490196078431" d="M 186.5 152 Q 187.5 154 188.5 152 L 190 152.5 L 190.5 154 L 196.5 154 L 200 155.5 L 198 156.5 Q 199.7 158.3 199 162.5 L 200 163.5 L 200 168.5 L 201 169.5 L 202 178.5 L 203 179.5 L 203 183.5 L 204 184.5 L 204 197.5 L 205 198.5 L 204 199.5 L 204 207.5 L 206 207.5 L 205 208.5 L 205 219.5 L 203 222.5 L 203.5 224 L 202 224.5 L 200.5 228 L 199 227.5 L 196.5 223 L 195 222.5 Q 197 221.5 195 220.5 L 192 215.5 L 195.5 209 L 197.5 210 L 199 209.5 L 198.5 211 L 201.5 212 L 202 210.5 L 192 189.5 L 194 186.5 L 188.5 178 L 187 177.5 Q 189 176.5 187 175.5 L 188.5 174 L 191 173.5 L 189 170.5 L 190.5 171 L 196.5 171 L 198 169.5 L 196.5 168 L 195 168.5 L 196 167.5 L 193 164.5 L 191.5 162 L 190 162.5 Q 192.5 161 189 159.5 L 189.5 158 L 191 157.5 L 186 152.5 L 186.5 152 Z " /><path fill="rgb(158,70,20)" stroke="rgb(158,70,20)" stroke-width="1" opacity="0.9725490196078431" d="M 36.5 153 L 40 153.5 L 36.5 154 L 36.5 153 Z " /><path fill="rgb(158,70,20)" stroke="rgb(158,70,20)" stroke-width="1" opacity="0.9725490196078431" d="M 153.5 153 L 158 153.5 L 157 155.5 L 158 156.5 L 156 158.5 L 156.5 160 L 153 161.5 L 153.5 163 Q 152.5 161 151.5 163 L 150 162.5 L 150.5 155 L 153.5 153 Z " /><path fill="rgb(158,70,20)" stroke="rgb(158,70,20)" stroke-width="1" opacity="0.9725490196078431" d="M 31.5 154 L 35 154.5 L 31.5 155 L 31.5 154 Z " /><path fill="rgb(158,70,20)" stroke="rgb(158,70,20)" stroke-width="1" opacity="0.9725490196078431" d="M 22.5 155 L 25 156.5 L 19.5 158 L 19.5 157 L 22.5 155 Z " /><path fill="rgb(158,70,20)" stroke="rgb(158,70,20)" stroke-width="1" opacity="0.9725490196078431" d="M 27.5 155 L 30 155.5 L 27.5 156 L 27.5 155 Z " /><path fill="rgb(158,70,20)" stroke="rgb(158,70,20)" stroke-width="1" opacity="0.9725490196078431" d="M 516.5 160 L 520 162.5 L 518.5 162 Q 514.7 161.3 516.5 160 Z " /><path fill="rgb(158,70,20)" stroke="rgb(158,70,20)" stroke-width="1" opacity="0.9725490196078431" d="M 150.5 165 L 153.5 167 L 155 166.5 L 154 167.5 L 154 174.5 L 156 177.5 L 155 179.5 L 155.5 181 L 151 179.5 L 149 176.5 L 151 175.5 L 150 174.5 L 150.5 165 Z " /><path fill="rgb(158,70,20)" stroke="rgb(158,70,20)" stroke-width="1" opacity="0.9725490196078431" d="M 173.5 178 L 174 180.5 L 173 180.5 L 173.5 178 Z " /><path fill="rgb(158,70,20)" stroke="rgb(158,70,20)" stroke-width="1" opacity="0.9725490196078431" d="M 551.5 183 L 566 193.5 L 565.5 194 L 563.5 192 L 553.5 186 L 551 183.5 L 551.5 183 Z " /><path fill="rgb(158,70,20)" stroke="rgb(158,70,20)" stroke-width="1" opacity="0.9725490196078431" d="M 205.5 188 L 206 192.5 L 205 192.5 L 205.5 188 Z " /><path fill="rgb(158,70,20)" stroke="rgb(158,70,20)" stroke-width="1" opacity="0.9725490196078431" d="M 181.5 193 L 185.5 194 Q 186.7 191.8 188 194.5 L 189 200.5 L 188 200.5 L 187.5 197 L 186 201.5 L 186.5 203 L 181 195.5 L 182 194.5 L 181.5 193 Z " /><path fill="rgb(158,70,20)" stroke="rgb(158,70,20)" stroke-width="1" opacity="0.9725490196078431" d="M 591.5 203 Q 593.8 203.8 593 207.5 L 592 207.5 L 592 204.5 L 591.5 203 Z " /><path fill="rgb(179,120,79)" stroke="rgb(179,120,79)" stroke-width="1" opacity="0.996078431372549" d="M 159.5 69 L 160.5 71 L 163.5 70 L 164.5 72 L 167.5 71 Q 169 74.5 170.5 72 L 173.5 74 L 175.5 73 L 176.5 75 L 179.5 74 L 180.5 76 L 182.5 75 Q 184 78.5 185.5 76 L 187 76.5 L 187.5 78 L 189.5 77 L 190.5 79 L 194 81.5 L 192.5 85 L 191 84.5 L 190.5 83 L 189 83.5 Q 187.8 88.3 190 89.5 L 188.5 89 L 187.5 90 L 181.5 88 L 175.5 88 L 174.5 87 L 169.5 87 L 168.5 86 Q 164.3 86.7 162.5 85 Q 161 86 163.5 87 L 168.5 88 L 174.5 91 L 177.5 91 L 181.5 93 L 184.5 93 L 190.5 95 L 202 102.5 L 203.5 109 L 205 104.5 L 205 96.5 L 202 90.5 L 202.5 89 L 196 85.5 L 197 82.5 L 195 81.5 L 196.5 81 L 199.5 85 L 202 86.5 L 206.5 92 L 209 93.5 L 210 104.5 L 211 105.5 L 211 112.5 L 212 113.5 L 212 123.5 L 210 126.5 L 212 131.5 Q 209.2 133.2 210 138.5 L 213 143.5 Q 212 145 211 142.5 L 210.5 141 Q 209.5 143 208.5 141 L 204.5 139 L 199 138.5 L 198 131.5 L 196.5 130 L 177 136.5 L 184.5 138 L 185.5 139 L 188.5 139 Q 192.3 143.7 198.5 146 L 204 151.5 L 206 154.5 L 204.5 155 L 199.5 153 L 190.5 153 Q 189.5 151 185.5 152 L 185 152.5 L 189 156.5 L 188.5 158 L 187 158.5 L 195 167.5 L 194.5 169 L 196 169.5 L 189 170.5 L 190 172.5 L 186 174.5 L 193 187.5 L 191 188.5 L 191 190.5 L 201 209.5 L 199.5 210 L 195.5 208 L 192 213.5 L 192 216.5 L 199.5 230 L 204.5 222 L 205 223.5 L 200.5 231 L 199 231.5 L 200 233.5 L 199 235.5 L 201 236.5 L 200 238.5 L 204.5 242 L 206.5 241 L 209.5 243 L 211 242.5 L 212.5 245 L 214 244.5 L 214.5 246 L 216 245.5 L 217.5 248 L 219 247.5 L 219.5 249 L 221 248.5 L 225.5 254 L 226.5 253 L 233 259.5 Q 231.7 262.3 230.5 260 L 227.5 258 L 226 258.5 L 225.5 257 L 224.5 258 L 222.5 256 L 221 256.5 L 220.5 255 L 219 255.5 L 218.5 254 L 216.5 255 L 215.5 253 L 214 253.5 L 213.5 252 L 212.5 253 L 210.5 251 L 209 251.5 L 208.5 250 L 207.5 251 L 205.5 249 L 204 249.5 L 203.5 248 L 202.5 249 Q 201 245.5 199.5 248 L 197.5 248 L 194.5 246 L 192.5 247 L 189.5 245 L 186.5 246 Q 185 242.5 183.5 245 L 181.5 245 L 178.5 243 L 175.5 244 Q 174 240.5 172.5 243 L 170.5 243 L 167.5 241 L 165.5 242 L 162.5 240 L 159.5 241 L 156.5 239 L 154.5 240 L 151.5 238 L 149.5 239 L 146.5 237 L 145 237.5 L 147.5 234 L 149 234.5 L 150 231.5 L 148 230.5 L 148.5 229 L 147 228.5 L 148 225.5 L 147 223.5 L 149 220.5 Q 147.3 219.8 148 216.5 L 150 213.5 L 149.5 212 L 151.5 213 L 154.5 211 L 156.5 212 L 157.5 210 L 160 209.5 L 159 208.5 L 169 198.5 L 168 197.5 L 172.5 193 L 180.5 186 L 187 184.5 L 186.5 183 L 181 183.5 L 180.5 185 L 179 184.5 L 178.5 186 L 173 185.5 L 174 177.5 L 173.5 177 L 168 182.5 L 167.5 184 L 160.5 187 L 158.5 189 L 155 186.5 L 157 183.5 L 156 182.5 L 154.5 166 L 152 164.5 L 152.5 163 L 157 159.5 L 158 153.5 L 146.5 153 L 142 154.5 L 141.5 158 L 136 158.5 L 139 163.5 L 137.5 164 L 134 158.5 L 134 155.5 L 136 154.5 L 136.5 153 L 141.5 150 L 141.5 152 Q 147.1 151.6 149 147.5 L 149.5 146 L 158 145.5 L 158.5 143 L 167 142.5 L 158 137.5 L 159 136.5 L 158.5 135 L 163.5 133 L 166.5 135 L 168.5 135 L 171.5 130 Q 176.3 130.8 178 128.5 L 180 124.5 L 177.5 124 L 165.5 129 L 158.5 129 L 155.5 130 L 150 133.5 L 150 136.5 L 146 140.5 L 146 143.5 L 142.5 147 L 140 145.5 L 136 136.5 L 139 133.5 L 138 132.5 L 137 126.5 L 136 125.5 L 136 114.5 Q 138 113.5 136 112.5 L 142 106.5 L 144 103.5 L 145 96.5 Q 147.5 96 147 92.5 L 146 91.5 L 146 85.5 L 152 80.5 L 151 79.5 L 155 75.5 L 154 72.5 L 155.5 71 L 157 71.5 L 157.5 70 L 159 70.5 L 159.5 69 Z M 154 91 L 146 100 L 156 100 L 160 104 L 160 106 L 157 111 L 158 113 L 158 112 L 166 108 L 166 110 L 167 110 L 167 108 L 164 102 L 154 91 Z M 157 113 L 156 116 L 157 116 L 157 113 Z M 149 121 L 144 125 L 147 129 L 151 128 L 150 123 L 149 121 Z M 182 193 L 179 195 L 184 202 L 187 204 L 188 203 L 186 202 L 188 197 L 188 194 L 182 193 Z M 189 197 L 188 202 L 189 202 L 189 197 Z " /><path fill="rgb(179,120,79)" stroke="rgb(179,120,79)" stroke-width="1" opacity="0.996078431372549" d="M 321.5 69 L 323 69.5 L 323 77.5 L 324.5 79 L 327 79.5 L 323.5 80 Q 322.5 78 321.5 80 L 319 77.5 L 322 78.5 L 322 70.5 L 321.5 69 Z " /><path fill="rgb(179,120,79)" stroke="rgb(179,120,79)" stroke-width="1" opacity="0.996078431372549" d="M 288.5 71 L 291 72.5 L 283 86.5 L 272.5 100 L 270 96.5 Q 272 95.5 270 94.5 L 271 91.5 L 283.5 74 L 288 72.5 L 288.5 71 Z " /><path fill="rgb(179,120,79)" stroke="rgb(179,120,79)" stroke-width="1" opacity="0.996078431372549" d="M 301.5 72 L 302 74.5 Q 299.8 75.8 302.5 77 L 304.5 75 L 305 75.5 L 302.5 78 L 301 77.5 L 295.5 84 L 292.5 86 L 292 82.5 L 301 74.5 L 301.5 72 Z " /><path fill="rgb(179,120,79)" stroke="rgb(179,120,79)" stroke-width="1" opacity="0.996078431372549" d="M 270.5 74 L 273 74.5 L 270.5 75 L 270.5 74 Z " /><path fill="rgb(179,120,79)" stroke="rgb(179,120,79)" stroke-width="1" opacity="0.996078431372549" d="M 138.5 165 L 139 167.5 L 138 167.5 L 138.5 165 Z " /><path fill="rgb(179,120,79)" stroke="rgb(179,120,79)" stroke-width="1" opacity="0.996078431372549" d="M 206.5 189 L 207 191.5 L 206 191.5 L 206.5 189 Z " /><path fill="rgb(179,120,79)" stroke="rgb(179,120,79)" stroke-width="1" opacity="0.996078431372549" d="M 205.5 199 L 207 204.5 L 205.5 207 L 205.5 199 Z " /><path fill="rgb(203,148,113)" stroke="rgb(203,148,113)" stroke-width="1" opacity="0.9882352941176471" d="M 305.5 68 L 307.5 69 L 309 68.5 L 311 71.5 L 309.5 71 L 308 71.5 L 308.5 73 L 307 72.5 L 305.5 75 L 301.5 78 Q 298.3 76.3 302 74.5 L 301 70.5 L 303.5 69 L 305 69.5 L 305.5 68 Z " /><path fill="rgb(203,148,113)" stroke="rgb(203,148,113)" stroke-width="1" opacity="0.9882352941176471" d="M 318.5 69 Q 321.5 68.5 322 70.5 L 322 78.5 L 323 79.5 L 322.5 80 L 319.5 77 L 318 76.5 L 318.5 75 L 317 74.5 Q 317.8 71.3 316 70.5 L 318 70.5 L 318.5 69 Z " /><path fill="rgb(203,148,113)" stroke="rgb(203,148,113)" stroke-width="1" opacity="0.9882352941176471" d="M 273.5 74 L 283 74.5 L 271 91.5 L 270 94.5 L 270.5 96 L 268 92.5 L 267 87.5 L 271 81.5 L 270.5 80 L 272 80.5 L 274.5 76 L 277 75.5 L 273.5 75 L 273.5 74 Z " /><path fill="rgb(203,148,113)" stroke="rgb(203,148,113)" stroke-width="1" opacity="0.9882352941176471" d="M 151.5 80 L 152 80.5 L 147.5 85 L 147 84.5 L 151.5 80 Z " /><path fill="rgb(203,148,113)" stroke="rgb(203,148,113)" stroke-width="1" opacity="0.9882352941176471" d="M 146.5 92 L 147 94.5 L 146 94.5 L 146.5 92 Z " /><path fill="rgb(203,148,113)" stroke="rgb(203,148,113)" stroke-width="1" opacity="0.9882352941176471" d="M 157.5 188 L 161 192.5 Q 160 194 159 191.5 L 157 188.5 L 157.5 188 Z " /><path fill="rgb(203,148,113)" stroke="rgb(203,148,113)" stroke-width="1" opacity="0.9882352941176471" d="M 206.5 192 L 207 195.5 L 206 195.5 L 206.5 192 Z " /><path fill="rgb(203,148,113)" stroke="rgb(203,148,113)" stroke-width="1" opacity="0.9882352941176471" d="M 206.5 200 L 207 202.5 L 206 202.5 L 206.5 200 Z " /><path fill="rgb(203,148,113)" stroke="rgb(203,148,113)" stroke-width="1" opacity="0.9882352941176471" d="M 161.5 207 L 162 207.5 L 159.5 210 L 159 209.5 L 161.5 207 Z " /><path fill="rgb(203,148,113)" stroke="rgb(203,148,113)" stroke-width="1" opacity="0.9882352941176471" d="M 147.5 225 L 148 227.5 L 147 227.5 L 147.5 225 Z " /><path fill="rgb(203,148,113)" stroke="rgb(203,148,113)" stroke-width="1" opacity="0.9882352941176471" d="M 145.5 235 L 147 237.5 Q 146 239 145 236.5 L 145.5 235 Z " /><path fill="rgb(203,148,113)" stroke="rgb(203,148,113)" stroke-width="1" opacity="0.9882352941176471" d="M 221.5 249 L 227 254.5 L 226.5 255 L 221 249.5 L 221.5 249 Z " /><path fill="rgb(203,148,113)" stroke="rgb(203,148,113)" stroke-width="1" opacity="0.9882352941176471" d="M 232.5 260 L 235 261.5 L 233.5 261 Q 231.1 260.9 232.5 260 Z " /><path fill="rgb(222,188,168)" stroke="rgb(222,188,168)" stroke-width="1" opacity="0.984313725490196" d="M 310.5 66 L 320 66.5 Q 318.8 69.3 317.5 67 L 316 67.5 L 315.5 69 L 307.5 73 Q 306 72 308.5 71 L 310 70.5 L 308.5 68 L 306.5 69 Q 305 68 307.5 67 L 310.5 66 Z " /><path fill="rgb(222,188,168)" stroke="rgb(222,188,168)" stroke-width="1" opacity="0.984313725490196" d="M 317.5 70 L 317 71.5 L 317.5 75 L 319 75.5 L 317.5 76 L 315 74.5 L 314.5 73 L 313 73.5 L 317.5 70 Z " /><path fill="rgb(222,188,168)" stroke="rgb(222,188,168)" stroke-width="1" opacity="0.984313725490196" d="M 270.5 75 Q 271.5 77 272.5 75 L 277 75.5 L 274 76.5 L 267 88.5 L 268 90.5 L 267 90.5 L 265 84.5 L 271 80.5 L 271 76.5 L 270.5 75 Z " /><path fill="rgb(237,217,208)" stroke="rgb(237,217,208)" stroke-width="1" opacity="0.9921568627450981" d="M 263.5 82 L 267 83.5 L 264.5 85 L 263.5 82 Z " /><path fill="rgb(138,94,60)" stroke="rgb(138,94,60)" stroke-width="1" opacity="0.6078431372549019" d="M 145.5 91 L 146 94.5 L 145 94.5 L 145.5 91 Z " /><path fill="rgb(138,94,60)" stroke="rgb(138,94,60)" stroke-width="1" opacity="0.6078431372549019" d="M 92.5 158 L 97 158.5 L 92.5 159 L 92.5 158 Z " /><path fill="rgb(138,94,60)" stroke="rgb(138,94,60)" stroke-width="1" opacity="0.6078431372549019" d="M 137.5 165 L 138 167.5 L 137 167.5 L 137.5 165 Z " /><path fill="rgb(138,94,60)" stroke="rgb(138,94,60)" stroke-width="1" opacity="0.6078431372549019" d="M 224.5 182 L 227 182.5 L 224.5 183 L 224.5 182 Z " /><path fill="rgb(138,94,60)" stroke="rgb(138,94,60)" stroke-width="1" opacity="0.6078431372549019" d="M 148.5 212 L 149 214.5 L 148 214.5 L 148.5 212 Z " /><path fill="rgb(138,94,60)" stroke="rgb(138,94,60)" stroke-width="1" opacity="0.6078431372549019" d="M 147.5 219 L 148 221.5 L 147 221.5 L 147.5 219 Z " /><path fill="rgb(138,94,60)" stroke="rgb(138,94,60)" stroke-width="1" opacity="0.6078431372549019" d="M 623.5 243 L 626 243.5 L 623.5 244 L 623.5 243 Z " /><path fill="rgb(138,94,60)" stroke="rgb(138,94,60)" stroke-width="1" opacity="0.6078431372549019" d="M 603.5 244 L 606 244.5 L 603.5 245 L 603.5 244 Z " /><path fill="rgb(138,94,60)" stroke="rgb(138,94,60)" stroke-width="1" opacity="0.6078431372549019" d="M 582.5 245 L 586 245.5 L 582.5 246 L 582.5 245 Z " /><path fill="rgb(138,94,60)" stroke="rgb(138,94,60)" stroke-width="1" opacity="0.6078431372549019" d="M 233.5 259 L 237 262.5 L 236.5 263 L 235.5 262 L 234 262.5 L 235 261.5 L 233 259.5 L 233.5 259 Z " /><path fill="rgb(145,110,95)" stroke="rgb(145,110,95)" stroke-width="1" opacity="0.023529411764705882" d="M 312.5 63 L 318 63.5 L 312.5 64 L 312.5 63 Z " /><path fill="rgb(145,110,95)" stroke="rgb(145,110,95)" stroke-width="1" opacity="0.023529411764705882" d="M 312.5 65 L 315 65.5 L 312.5 66 L 312.5 65 Z " /><path fill="rgb(145,110,95)" stroke="rgb(145,110,95)" stroke-width="1" opacity="0.023529411764705882" d="M 150.5 77 L 151 77.5 L 146.5 82 L 146 81.5 L 150.5 77 Z " /><path fill="rgb(145,110,95)" stroke="rgb(145,110,95)" stroke-width="1" opacity="0.023529411764705882" d="M 143.5 89 L 144 92.5 L 143 92.5 L 143.5 89 Z " /><path fill="rgb(145,110,95)" stroke="rgb(145,110,95)" stroke-width="1" opacity="0.023529411764705882" d="M 209.5 191 L 210 193.5 L 209 193.5 L 209.5 191 Z " /><path fill="rgb(145,110,95)" stroke="rgb(145,110,95)" stroke-width="1" opacity="0.023529411764705882" d="M 161.5 203 L 162 203.5 L 157.5 208 L 157 207.5 L 161.5 203 Z " /><path fill="rgb(145,110,95)" stroke="rgb(145,110,95)" stroke-width="1" opacity="0.023529411764705882" d="M 226.5 250 L 230 253.5 L 229.5 254 L 226 250.5 L 226.5 250 Z " /><path fill="rgb(164,0,0)" stroke="rgb(164,0,0)" stroke-width="1" opacity="0.00392156862745098" d="M 134.5 92 L 138 92.5 L 134.5 93 L 134.5 92 Z " /><path fill="rgb(164,0,0)" stroke="rgb(164,0,0)" stroke-width="1" opacity="0.00392156862745098" d="M 74.5 160 L 80 160.5 L 74.5 161 L 74.5 160 Z " /><path fill="rgb(164,0,0)" stroke="rgb(164,0,0)" stroke-width="1" opacity="0.00392156862745098" d="M 235.5 184 L 238 184.5 L 235.5 185 L 235.5 184 Z " /><path fill="rgb(164,0,0)" stroke="rgb(164,0,0)" stroke-width="1" opacity="0.00392156862745098" d="M 212.5 185 L 216 185.5 L 212.5 186 L 212.5 185 Z " /><path fill="rgb(164,0,0)" stroke="rgb(164,0,0)" stroke-width="1" opacity="0.00392156862745098" d="M 162.5 197 L 165 199.5 L 164.5 200 L 162 197.5 L 162.5 197 Z " /><path fill="rgb(164,0,0)" stroke="rgb(164,0,0)" stroke-width="1" opacity="0.00392156862745098" d="M 633.5 245 L 636 245.5 L 633.5 246 L 633.5 245 Z " /><path fill="rgb(164,0,0)" stroke="rgb(164,0,0)" stroke-width="1" opacity="0.00392156862745098" d="M 613.5 246 L 616 246.5 L 613.5 247 L 613.5 246 Z " /><path fill="rgb(164,0,0)" stroke="rgb(164,0,0)" stroke-width="1" opacity="0.00392156862745098" d="M 592.5 247 L 596 247.5 L 592.5 248 L 592.5 247 Z " /><path fill="rgb(162,96,1)" stroke="rgb(162,96,1)" stroke-width="1" opacity="0.011764705882352941" d="M 277.5 55 L 281 55.5 L 277.5 56 L 277.5 55 Z " /><path fill="rgb(162,96,1)" stroke="rgb(162,96,1)" stroke-width="1" opacity="0.011764705882352941" d="M 274.5 58 L 275 58.5 L 271.5 62 L 271 61.5 L 274.5 58 Z " /><path fill="rgb(162,96,1)" stroke="rgb(162,96,1)" stroke-width="1" opacity="0.011764705882352941" d="M 299.5 58 L 302 60.5 L 301.5 61 L 299 58.5 L 299.5 58 Z " /><path fill="rgb(162,96,1)" stroke="rgb(162,96,1)" stroke-width="1" opacity="0.011764705882352941" d="M 322.5 64 L 327 64.5 L 322.5 65 L 322.5 64 Z " /><path fill="rgb(162,96,1)" stroke="rgb(162,96,1)" stroke-width="1" opacity="0.011764705882352941" d="M 333.5 65 L 337 65.5 L 333.5 66 L 333.5 65 Z " /><path fill="rgb(162,96,1)" stroke="rgb(162,96,1)" stroke-width="1" opacity="0.011764705882352941" d="M 246.5 72 L 250 72.5 L 246.5 73 L 246.5 72 Z " /><path fill="rgb(162,96,1)" stroke="rgb(162,96,1)" stroke-width="1" opacity="0.011764705882352941" d="M 236.5 73 L 240 73.5 L 236.5 74 L 236.5 73 Z " /><path fill="rgb(162,96,1)" stroke="rgb(162,96,1)" stroke-width="1" opacity="0.011764705882352941" d="M 218.5 79 L 221 79.5 L 218.5 80 L 218.5 79 Z " /><path fill="rgb(162,96,1)" stroke="rgb(162,96,1)" stroke-width="1" opacity="0.011764705882352941" d="M 129.5 93 L 132 93.5 L 129.5 94 L 129.5 93 Z " /><path fill="rgb(162,96,1)" stroke="rgb(162,96,1)" stroke-width="1" opacity="0.011764705882352941" d="M 464.5 99 L 468 99.5 L 464.5 100 L 464.5 99 Z " /><path fill="rgb(162,96,1)" stroke="rgb(162,96,1)" stroke-width="1" opacity="0.011764705882352941" d="M 472.5 100 L 475 100.5 L 472.5 101 L 472.5 100 Z " /><path fill="rgb(162,96,1)" stroke="rgb(162,96,1)" stroke-width="1" opacity="0.011764705882352941" d="M 44.5 127 L 45 127.5 L 42.5 130 L 42 129.5 L 44.5 127 Z " /><path fill="rgb(162,96,1)" stroke="rgb(162,96,1)" stroke-width="1" opacity="0.011764705882352941" d="M 30.5 138 L 31 138.5 L 28.5 141 L 28 140.5 L 30.5 138 Z " /><path fill="rgb(162,96,1)" stroke="rgb(162,96,1)" stroke-width="1" opacity="0.011764705882352941" d="M 16.5 149 L 17 149.5 L 14.5 152 L 14 151.5 L 16.5 149 Z " /><path fill="rgb(162,96,1)" stroke="rgb(162,96,1)" stroke-width="1" opacity="0.011764705882352941" d="M 61.5 160 L 65 160.5 L 61.5 161 L 61.5 160 Z " /><path fill="rgb(162,96,1)" stroke="rgb(162,96,1)" stroke-width="1" opacity="0.011764705882352941" d="M 80.5 160 L 97 160.5 L 80.5 161 L 80.5 160 Z " /><path fill="rgb(162,96,1)" stroke="rgb(162,96,1)" stroke-width="1" opacity="0.011764705882352941" d="M 51.5 161 L 55 161.5 L 51.5 162 L 51.5 161 Z " /><path fill="rgb(162,96,1)" stroke="rgb(162,96,1)" stroke-width="1" opacity="0.011764705882352941" d="M 107.5 161 L 112 161.5 L 107.5 162 L 107.5 161 Z " /><path fill="rgb(162,96,1)" stroke="rgb(162,96,1)" stroke-width="1" opacity="0.011764705882352941" d="M 41.5 162 L 45 162.5 L 41.5 163 L 41.5 162 Z " /><path fill="rgb(162,96,1)" stroke="rgb(162,96,1)" stroke-width="1" opacity="0.011764705882352941" d="M 118.5 162 L 124 162.5 L 118.5 163 L 118.5 162 Z " /><path fill="rgb(162,96,1)" stroke="rgb(162,96,1)" stroke-width="1" opacity="0.011764705882352941" d="M 31.5 163 L 35 163.5 L 31.5 164 L 31.5 163 Z " /><path fill="rgb(162,96,1)" stroke="rgb(162,96,1)" stroke-width="1" opacity="0.011764705882352941" d="M 21.5 164 L 25 164.5 L 21.5 165 L 21.5 164 Z " /><path fill="rgb(162,96,1)" stroke="rgb(162,96,1)" stroke-width="1" opacity="0.011764705882352941" d="M 11.5 165 L 15 165.5 L 11.5 166 L 11.5 165 Z " /><path fill="rgb(162,96,1)" stroke="rgb(162,96,1)" stroke-width="1" opacity="0.011764705882352941" d="M 1.5 166 L 5 166.5 L 1.5 167 L 1.5 166 Z " /><path fill="rgb(162,96,1)" stroke="rgb(162,96,1)" stroke-width="1" opacity="0.011764705882352941" d="M 246.5 183 L 255 183.5 L 246.5 184 L 246.5 183 Z " /><path fill="rgb(162,96,1)" stroke="rgb(162,96,1)" stroke-width="1" opacity="0.011764705882352941" d="M 224.5 184 L 235 184.5 L 224.5 185 L 224.5 184 Z " /><path fill="rgb(162,96,1)" stroke="rgb(162,96,1)" stroke-width="1" opacity="0.011764705882352941" d="M 600.5 189 L 603 191.5 L 602.5 192 L 600 189.5 L 600.5 189 Z " /><path fill="rgb(162,96,1)" stroke="rgb(162,96,1)" stroke-width="1" opacity="0.011764705882352941" d="M 610.5 202 L 613 204.5 L 612.5 205 L 610 202.5 L 610.5 202 Z " /><path fill="rgb(162,96,1)" stroke="rgb(162,96,1)" stroke-width="1" opacity="0.011764705882352941" d="M 207.5 210 L 208 213.5 L 207 213.5 L 207.5 210 Z " /><path fill="rgb(162,96,1)" stroke="rgb(162,96,1)" stroke-width="1" opacity="0.011764705882352941" d="M 620.5 215 L 623 217.5 L 622.5 218 L 620 215.5 L 620.5 215 Z " /><path fill="rgb(162,96,1)" stroke="rgb(162,96,1)" stroke-width="1" opacity="0.011764705882352941" d="M 395.5 218 L 399 218.5 L 395.5 219 L 395.5 218 Z " /><path fill="rgb(162,96,1)" stroke="rgb(162,96,1)" stroke-width="1" opacity="0.011764705882352941" d="M 388.5 219 L 392 219.5 L 388.5 220 L 388.5 219 Z " /><path fill="rgb(162,96,1)" stroke="rgb(162,96,1)" stroke-width="1" opacity="0.011764705882352941" d="M 382.5 220 L 385 220.5 L 382.5 221 L 382.5 220 Z " /><path fill="rgb(162,96,1)" stroke="rgb(162,96,1)" stroke-width="1" opacity="0.011764705882352941" d="M 623.5 245 L 633 245.5 L 623.5 246 L 623.5 245 Z " /><path fill="rgb(162,96,1)" stroke="rgb(162,96,1)" stroke-width="1" opacity="0.011764705882352941" d="M 515.5 246 L 518 246.5 L 515.5 247 L 515.5 246 Z " /><path fill="rgb(162,96,1)" stroke="rgb(162,96,1)" stroke-width="1" opacity="0.011764705882352941" d="M 603.5 246 L 613 246.5 L 603.5 247 L 603.5 246 Z " /><path fill="rgb(162,96,1)" stroke="rgb(162,96,1)" stroke-width="1" opacity="0.011764705882352941" d="M 582.5 247 L 592 247.5 L 582.5 248 L 582.5 247 Z " /><path fill="rgb(99,47,19)" stroke="rgb(99,47,19)" stroke-width="1" opacity="0.3686274509803922" d="M 277.5 57 Q 282.3 56.3 283 59.5 L 282.5 60 L 280.5 58 Q 275.2 57.2 274.5 61 L 274 60.5 L 277.5 57 Z " /><path fill="rgb(99,47,19)" stroke="rgb(99,47,19)" stroke-width="1" opacity="0.3686274509803922" d="M 286.5 57 L 287 57.5 L 284.5 60 L 284 59.5 L 286.5 57 Z " /><path fill="rgb(99,47,19)" stroke="rgb(99,47,19)" stroke-width="1" opacity="0.3686274509803922" d="M 299.5 60 L 302 62.5 L 301.5 63 L 299 60.5 L 299.5 60 Z " /><path fill="rgb(99,47,19)" stroke="rgb(99,47,19)" stroke-width="1" opacity="0.3686274509803922" d="M 324.5 66 L 329 66.5 L 324.5 67 L 324.5 66 Z " /><path fill="rgb(99,47,19)" stroke="rgb(99,47,19)" stroke-width="1" opacity="0.3686274509803922" d="M 334.5 67 L 339 67.5 L 334.5 68 L 334.5 67 Z " /><path fill="rgb(99,47,19)" stroke="rgb(99,47,19)" stroke-width="1" opacity="0.3686274509803922" d="M 244.5 74 L 249 74.5 L 244.5 75 L 244.5 74 Z " /><path fill="rgb(99,47,19)" stroke="rgb(99,47,19)" stroke-width="1" opacity="0.3686274509803922" d="M 235.5 75 L 240 75.5 L 235.5 76 L 235.5 75 Z " /><path fill="rgb(99,47,19)" stroke="rgb(99,47,19)" stroke-width="1" opacity="0.3686274509803922" d="M 152.5 77 L 153 77.5 L 150.5 80 L 150 79.5 L 152.5 77 Z " /><path fill="rgb(99,47,19)" stroke="rgb(99,47,19)" stroke-width="1" opacity="0.3686274509803922" d="M 212.5 80 L 215 80.5 L 212.5 81 L 212.5 80 Z " /><path fill="rgb(99,47,19)" stroke="rgb(99,47,19)" stroke-width="1" opacity="0.3686274509803922" d="M 204.5 84 L 207 84.5 L 204.5 85 L 204.5 84 Z " /><path fill="rgb(99,47,19)" stroke="rgb(99,47,19)" stroke-width="1" opacity="0.3686274509803922" d="M 145.5 88 L 146 90.5 L 145 90.5 L 145.5 88 Z " /><path fill="rgb(99,47,19)" stroke="rgb(99,47,19)" stroke-width="1" opacity="0.3686274509803922" d="M 135.5 94 L 138 94.5 L 135.5 95 L 135.5 94 Z " /><path fill="rgb(99,47,19)" stroke="rgb(99,47,19)" stroke-width="1" opacity="0.3686274509803922" d="M 465.5 101 L 469 101.5 L 465.5 102 L 465.5 101 Z " /><path fill="rgb(99,47,19)" stroke="rgb(99,47,19)" stroke-width="1" opacity="0.3686274509803922" d="M 54.5 120 L 55 121.5 L 52.5 124 L 52 123.5 L 54.5 120 Z " /><path fill="rgb(99,47,19)" stroke="rgb(99,47,19)" stroke-width="1" opacity="0.3686274509803922" d="M 44.5 129 L 45 129.5 L 42.5 132 L 42 131.5 L 44.5 129 Z " /><path fill="rgb(99,47,19)" stroke="rgb(99,47,19)" stroke-width="1" opacity="0.3686274509803922" d="M 30.5 140 L 31 140.5 L 28.5 143 L 28 142.5 L 30.5 140 Z " /><path fill="rgb(99,47,19)" stroke="rgb(99,47,19)" stroke-width="1" opacity="0.3686274509803922" d="M 16.5 151 L 17 151.5 L 14.5 154 L 14 153.5 L 16.5 151 Z " /><path fill="rgb(99,47,19)" stroke="rgb(99,47,19)" stroke-width="1" opacity="0.3686274509803922" d="M 62.5 158 L 67 158.5 L 62.5 159 L 62.5 158 Z " /><path fill="rgb(99,47,19)" stroke="rgb(99,47,19)" stroke-width="1" opacity="0.3686274509803922" d="M 76.5 158 L 92 158.5 L 76.5 159 L 76.5 158 Z " /><path fill="rgb(99,47,19)" stroke="rgb(99,47,19)" stroke-width="1" opacity="0.3686274509803922" d="M 52.5 159 L 57 159.5 L 52.5 160 L 52.5 159 Z " /><path fill="rgb(99,47,19)" stroke="rgb(99,47,19)" stroke-width="1" opacity="0.3686274509803922" d="M 105.5 159 L 111 159.5 L 105.5 160 L 105.5 159 Z " /><path fill="rgb(99,47,19)" stroke="rgb(99,47,19)" stroke-width="1" opacity="0.3686274509803922" d="M 42.5 160 L 47 160.5 L 42.5 161 L 42.5 160 Z " /><path fill="rgb(99,47,19)" stroke="rgb(99,47,19)" stroke-width="1" opacity="0.3686274509803922" d="M 117.5 160 L 122 160.5 L 117.5 161 L 117.5 160 Z " /><path fill="rgb(99,47,19)" stroke="rgb(99,47,19)" stroke-width="1" opacity="0.3686274509803922" d="M 32.5 161 L 37 161.5 L 32.5 162 L 32.5 161 Z " /><path fill="rgb(99,47,19)" stroke="rgb(99,47,19)" stroke-width="1" opacity="0.3686274509803922" d="M 2.5 162 L 2 163.5 L 1.5 165 L 0 164.5 L 2.5 162 Z " /><path fill="rgb(99,47,19)" stroke="rgb(99,47,19)" stroke-width="1" opacity="0.3686274509803922" d="M 22.5 162 L 27 162.5 L 22.5 163 L 22.5 162 Z " /><path fill="rgb(99,47,19)" stroke="rgb(99,47,19)" stroke-width="1" opacity="0.3686274509803922" d="M 12.5 163 L 17 163.5 L 12.5 164 L 12.5 163 Z " /><path fill="rgb(99,47,19)" stroke="rgb(99,47,19)" stroke-width="1" opacity="0.3686274509803922" d="M 3.5 164 L 7 164.5 L 3.5 165 L 3.5 164 Z " /><path fill="rgb(99,47,19)" stroke="rgb(99,47,19)" stroke-width="1" opacity="0.3686274509803922" d="M 146.5 174 L 149 176.5 L 148.5 177 L 146 174.5 L 146.5 174 Z " /><path fill="rgb(99,47,19)" stroke="rgb(99,47,19)" stroke-width="1" opacity="0.3686274509803922" d="M 246.5 181 L 256 181.5 L 246.5 182 L 246.5 181 Z " /><path fill="rgb(99,47,19)" stroke="rgb(99,47,19)" stroke-width="1" opacity="0.3686274509803922" d="M 227.5 182 L 238 182.5 L 227.5 183 L 227.5 182 Z " /><path fill="rgb(99,47,19)" stroke="rgb(99,47,19)" stroke-width="1" opacity="0.3686274509803922" d="M 210.5 183 L 215 183.5 L 210.5 184 L 210.5 183 Z " /><path fill="rgb(99,47,19)" stroke="rgb(99,47,19)" stroke-width="1" opacity="0.3686274509803922" d="M 602.5 194 L 605 196.5 L 604.5 197 L 602 194.5 L 602.5 194 Z " /><path fill="rgb(99,47,19)" stroke="rgb(99,47,19)" stroke-width="1" opacity="0.3686274509803922" d="M 163.5 196 L 167 198.5 L 165.5 199 L 163 196.5 L 163.5 196 Z " /><path fill="rgb(99,47,19)" stroke="rgb(99,47,19)" stroke-width="1" opacity="0.3686274509803922" d="M 205.5 196 L 207 196.5 L 206 197.5 L 206.5 199 Q 204.1 198.1 205.5 196 Z " /><path fill="rgb(99,47,19)" stroke="rgb(99,47,19)" stroke-width="1" opacity="0.3686274509803922" d="M 323.5 199 L 326 199.5 L 323.5 200 L 323.5 199 Z " /><path fill="rgb(99,47,19)" stroke="rgb(99,47,19)" stroke-width="1" opacity="0.3686274509803922" d="M 166.5 200 L 167 200.5 L 158.5 209 L 158 208.5 L 166.5 200 Z " /><path fill="rgb(99,47,19)" stroke="rgb(99,47,19)" stroke-width="1" opacity="0.3686274509803922" d="M 612.5 207 L 615 209.5 L 614.5 210 L 612 207.5 L 612.5 207 Z " /><path fill="rgb(99,47,19)" stroke="rgb(99,47,19)" stroke-width="1" opacity="0.3686274509803922" d="M 205.5 210 L 206 214.5 L 205 214.5 L 205.5 210 Z " /><path fill="rgb(99,47,19)" stroke="rgb(99,47,19)" stroke-width="1" opacity="0.3686274509803922" d="M 396.5 216 L 400 216.5 L 396.5 217 L 396.5 216 Z " /><path fill="rgb(99,47,19)" stroke="rgb(99,47,19)" stroke-width="1" opacity="0.3686274509803922" d="M 619.5 216 L 622 218.5 L 621.5 219 L 619 216.5 L 619.5 216 Z " /><path fill="rgb(99,47,19)" stroke="rgb(99,47,19)" stroke-width="1" opacity="0.3686274509803922" d="M 389.5 217 L 393 217.5 L 389.5 218 L 389.5 217 Z " /><path fill="rgb(99,47,19)" stroke="rgb(99,47,19)" stroke-width="1" opacity="0.3686274509803922" d="M 382.5 218 L 386 218.5 L 382.5 219 L 382.5 218 Z " /><path fill="rgb(99,47,19)" stroke="rgb(99,47,19)" stroke-width="1" opacity="0.3686274509803922" d="M 622.5 220 L 625 222.5 L 624.5 223 L 622 220.5 L 622.5 220 Z " /><path fill="rgb(99,47,19)" stroke="rgb(99,47,19)" stroke-width="1" opacity="0.3686274509803922" d="M 629.5 229 L 632 231.5 L 631.5 232 L 629 229.5 L 629.5 229 Z " /><path fill="rgb(99,47,19)" stroke="rgb(99,47,19)" stroke-width="1" opacity="0.3686274509803922" d="M 632.5 233 L 635 235.5 L 634.5 236 L 632 233.5 L 632.5 233 Z " /><path fill="rgb(99,47,19)" stroke="rgb(99,47,19)" stroke-width="1" opacity="0.3686274509803922" d="M 143.5 235 L 146 238.5 L 145.5 239 L 143 236.5 L 143.5 235 Z " /><path fill="rgb(99,47,19)" stroke="rgb(99,47,19)" stroke-width="1" opacity="0.3686274509803922" d="M 626.5 243 L 636 243.5 L 626.5 244 L 626.5 243 Z " /><path fill="rgb(99,47,19)" stroke="rgb(99,47,19)" stroke-width="1" opacity="0.3686274509803922" d="M 606.5 244 L 615 244.5 L 606.5 245 L 606.5 244 Z " /><path fill="rgb(99,47,19)" stroke="rgb(99,47,19)" stroke-width="1" opacity="0.3686274509803922" d="M 586.5 245 L 595 245.5 L 586.5 246 L 586.5 245 Z " /><path fill="rgb(99,47,19)" stroke="rgb(99,47,19)" stroke-width="1" opacity="0.3686274509803922" d="M 226.5 252 L 233 258.5 L 232.5 259 L 226 252.5 L 226.5 252 Z " /><path fill="rgb(99,47,19)" stroke="rgb(99,47,19)" stroke-width="1" opacity="0.3686274509803922" d="M 237.5 262 L 238 263.5 L 236.5 264 Q 235 263 237.5 262 Z " /><path fill="rgb(159,110,70)" stroke="rgb(159,110,70)" stroke-width="1" opacity="0.8117647058823529" d="M 150.5 80 L 151 80.5 L 147.5 84 L 147 83.5 L 150.5 80 Z " /><path fill="rgb(159,110,70)" stroke="rgb(159,110,70)" stroke-width="1" opacity="0.8117647058823529" d="M 206.5 184 L 207 188.5 L 206 188.5 L 206.5 184 Z " /><path fill="rgb(159,110,70)" stroke="rgb(159,110,70)" stroke-width="1" opacity="0.8117647058823529" d="M 222.5 249 L 226 252.5 L 225.5 253 L 222 249.5 L 222.5 249 Z " /><path fill="rgb(242,210,113)" stroke="rgb(242,210,113)" stroke-width="1" opacity="0.00784313725490196" d="M 151.5 74 L 152 76.5 L 151 76.5 L 151.5 74 Z " /><path fill="rgb(242,210,113)" stroke="rgb(242,210,113)" stroke-width="1" opacity="0.00784313725490196" d="M 164.5 200 L 165 200.5 L 162.5 203 L 162 202.5 L 164.5 200 Z " /><path fill="rgb(242,210,113)" stroke="rgb(242,210,113)" stroke-width="1" opacity="0.00784313725490196" d="M 230.5 254 L 236 259.5 L 235.5 260 L 230 254.5 L 230.5 254 Z " /></svg>