<svg viewBox="0 0 640 320" version="1.1" xmlns="http://www.w3.org/2000/svg" desc="Created with imagetracer.js version 1.2.6" ><path fill="rgb(80,110,130)" stroke="rgb(80,110,130)" stroke-width="1" opacity="1" d="M 162.5 158 L 166 158.5 Q 160.2 158.7 157.5 162 Q 156 161 158.5 160 L 162.5 158 Z " /><path fill="rgb(80,110,130)" stroke="rgb(80,110,130)" stroke-width="1" opacity="1" d="M 155.5 162 Q 157 163 154.5 164 L 152.5 165 Q 151 164 153.5 163 L 155.5 162 Z " /><path fill="rgb(80,110,130)" stroke="rgb(80,110,130)" stroke-width="1" opacity="1" d="M 141.5 165 Q 145.3 164.3 146 166.5 L 144.5 166 Q 140.5 166.8 141.5 165 Z " /><path fill="rgb(80,110,130)" stroke="rgb(80,110,130)" stroke-width="1" opacity="1" d="M 157.5 165 L 158 166.5 L 156.5 167 Q 155 166 157.5 165 Z " /><path fill="rgb(80,110,130)" stroke="rgb(80,110,130)" stroke-width="1" opacity="1" d="M 152.5 171 L 153 171.5 L 146.5 178 L 142 177.5 L 146.5 177 L 152.5 171 Z " /><path fill="rgb(117,146,165)" stroke="rgb(117,146,165)" stroke-width="1" opacity="0.996078431372549" d="M 279.5 135 L 282 138.5 L 281 138.5 L 279 135.5 L 279.5 135 Z " /><path fill="rgb(117,146,165)" stroke="rgb(117,146,165)" stroke-width="1" opacity="0.996078431372549" d="M 316.5 137 L 317 137.5 L 314.5 140 L 314 138.5 L 316.5 137 Z " /><path fill="rgb(117,146,165)" stroke="rgb(117,146,165)" stroke-width="1" opacity="0.996078431372549" d="M 355.5 138 L 360 142.5 L 359.5 143 L 355 138.5 L 355.5 138 Z " /><path fill="rgb(117,146,165)" stroke="rgb(117,146,165)" stroke-width="1" opacity="0.996078431372549" d="M 296.5 140 L 299 142.5 L 298.5 143 L 296 140.5 L 296.5 140 Z " /><path fill="rgb(117,146,165)" stroke="rgb(117,146,165)" stroke-width="1" opacity="0.996078431372549" d="M 330.5 144 L 333 144.5 L 330.5 145 L 330.5 144 Z " /><path fill="rgb(117,146,165)" stroke="rgb(117,146,165)" stroke-width="1" opacity="0.996078431372549" d="M 357.5 144 L 360 144.5 L 357.5 145 L 357.5 144 Z " /><path fill="rgb(117,146,165)" stroke="rgb(117,146,165)" stroke-width="1" opacity="0.996078431372549" d="M 406.5 146 L 406 147.5 L 405.5 149 L 405 147.5 L 406.5 146 Z " /><path fill="rgb(117,146,165)" stroke="rgb(117,146,165)" stroke-width="1" opacity="0.996078431372549" d="M 201.5 149 L 207 149.5 L 201.5 150 L 196.5 152 Q 195 151 197.5 150 Q 200.8 150.8 201.5 149 Z " /><path fill="rgb(117,146,165)" stroke="rgb(117,146,165)" stroke-width="1" opacity="0.996078431372549" d="M 185.5 151 L 188 151.5 L 187 153.5 L 188.5 153 L 191.5 152 Q 193 153 190.5 154 Q 183.4 154.9 180 159.5 L 178.5 162 Q 175.5 161.5 175 163.5 L 176 165.5 Q 174.8 168.3 173.5 166 L 171 168.5 L 172 171.5 L 168.5 173 L 166 171.5 L 174 163.5 L 173.5 163 L 171.5 164 Q 170 163 172.5 162 L 176 160.5 L 173 159.5 L 182 153.5 L 181.5 152 Q 184.8 152.8 185.5 151 Z " /><path fill="rgb(117,146,165)" stroke="rgb(117,146,165)" stroke-width="1" opacity="0.996078431372549" d="M 277.5 153 L 278 154.5 L 276.5 155 Q 275 154 277.5 153 Z " /><path fill="rgb(117,146,165)" stroke="rgb(117,146,165)" stroke-width="1" opacity="0.996078431372549" d="M 351.5 155 L 353 155.5 L 348.5 157 L 348.5 156 L 351.5 155 Z " /><path fill="rgb(117,146,165)" stroke="rgb(117,146,165)" stroke-width="1" opacity="0.996078431372549" d="M 346.5 157 Q 348 158 345.5 159 L 343 158.5 L 346.5 157 Z " /><path fill="rgb(117,146,165)" stroke="rgb(117,146,165)" stroke-width="1" opacity="0.996078431372549" d="M 161.5 158 Q 162.3 159.8 165.5 159 L 167 158.5 L 166.5 165 Q 165 161.5 163.5 164 Q 160.3 164.8 159.5 163 L 158.5 165 L 156 166.5 L 157 169.5 L 155.5 171 L 154 170.5 L 153.5 172 L 152.5 171 L 149 174.5 Q 151.3 175.8 148.5 177 Q 147.5 175 146.5 177 Q 142.5 176 141.5 178 L 140.5 176 L 138.5 177 Q 137 174.5 135.5 178 L 131 179.5 L 131.5 182 L 139.5 182 L 142.5 181 L 142.5 182 L 138.5 183 L 135 186.5 Q 135.5 189.5 133.5 190 L 127.5 192 L 124.5 192 L 109.5 201 L 91.5 207 L 32.5 207 L 31.5 208 L 3.5 208 L 3.5 207 L 30.5 196 L 38.5 195 L 43.5 193 L 47.5 193 L 48.5 192 L 51.5 192 L 56.5 190 L 60.5 190 L 72.5 186 L 76.5 186 L 77.5 185 L 81.5 185 L 82.5 184 L 93.5 182 L 98.5 179 L 111.5 175 L 114.5 173 L 117.5 173 L 125.5 170 L 129.5 170 L 138.5 165 L 140.5 165 L 149.5 168 L 151 166.5 Q 148.8 165.3 151.5 164 Q 152.5 166 153.5 164 L 156 162.5 L 156.5 161 Q 157.5 163 158.5 161 L 162 159.5 L 161.5 158 Z " /><path fill="rgb(117,146,165)" stroke="rgb(117,146,165)" stroke-width="1" opacity="0.996078431372549" d="M 273.5 159 L 276 159.5 L 273.5 160 L 273.5 159 Z " /><path fill="rgb(117,146,165)" stroke="rgb(117,146,165)" stroke-width="1" opacity="0.996078431372549" d="M 407.5 160 L 410 160.5 L 407.5 161 L 407.5 160 Z " /><path fill="rgb(117,146,165)" stroke="rgb(117,146,165)" stroke-width="1" opacity="0.996078431372549" d="M 412.5 160 L 418 160.5 L 412.5 161 L 412.5 160 Z " /><path fill="rgb(117,146,165)" stroke="rgb(117,146,165)" stroke-width="1" opacity="0.996078431372549" d="M 428.5 160 L 436 162.5 L 432.5 163 L 428.5 161 L 428.5 160 Z " /><path fill="rgb(117,146,165)" stroke="rgb(117,146,165)" stroke-width="1" opacity="0.996078431372549" d="M 335.5 161 L 336 161.5 L 333.5 164 L 333 163.5 L 335.5 161 Z " /><path fill="rgb(117,146,165)" stroke="rgb(117,146,165)" stroke-width="1" opacity="0.996078431372549" d="M 437.5 163 Q 440.5 162.5 441 164.5 L 439.5 164 Q 436.5 164.5 437.5 163 Z " /><path fill="rgb(117,146,165)" stroke="rgb(117,146,165)" stroke-width="1" opacity="0.996078431372549" d="M 177.5 165 L 180 165.5 L 177.5 167 L 177.5 165 Z " /><path fill="rgb(117,146,165)" stroke="rgb(117,146,165)" stroke-width="1" opacity="0.996078431372549" d="M 271.5 171 L 273 171.5 L 272.5 173 Q 270 172 271.5 171 Z " /><path fill="rgb(117,146,165)" stroke="rgb(117,146,165)" stroke-width="1" opacity="0.996078431372549" d="M 355.5 171 L 360 171.5 L 355.5 172 L 355.5 171 Z " /><path fill="rgb(117,146,165)" stroke="rgb(117,146,165)" stroke-width="1" opacity="0.996078431372549" d="M 287.5 172 L 290 173.5 L 288.5 173 Q 286.1 172.9 287.5 172 Z " /><path fill="rgb(117,146,165)" stroke="rgb(117,146,165)" stroke-width="1" opacity="0.996078431372549" d="M 310.5 174 L 310 175.5 L 309.5 177 L 309 175.5 L 310.5 174 Z " /><path fill="rgb(117,146,165)" stroke="rgb(117,146,165)" stroke-width="1" opacity="0.996078431372549" d="M 477.5 174 Q 480 175 478.5 176 L 477.5 175 L 476 175.5 L 477.5 174 Z " /><path fill="rgb(117,146,165)" stroke="rgb(117,146,165)" stroke-width="1" opacity="0.996078431372549" d="M 334.5 177 L 337 177.5 L 334.5 178 L 334.5 177 Z " /><path fill="rgb(117,146,165)" stroke="rgb(117,146,165)" stroke-width="1" opacity="0.996078431372549" d="M 355.5 179 L 358 179.5 L 355.5 180 L 355.5 179 Z " /><path fill="rgb(117,146,165)" stroke="rgb(117,146,165)" stroke-width="1" opacity="0.996078431372549" d="M 485.5 183 L 488 183.5 L 485.5 184 L 485.5 183 Z " /><path fill="rgb(117,146,165)" stroke="rgb(117,146,165)" stroke-width="1" opacity="0.996078431372549" d="M 492.5 184 L 497 184.5 L 492.5 185 L 492.5 184 Z " /><path fill="rgb(171,189,201)" stroke="rgb(171,189,201)" stroke-width="1" opacity="0.996078431372549" d="M 278.5 135 L 279 137.5 L 278 137.5 L 278.5 135 Z " /><path fill="rgb(171,189,201)" stroke="rgb(171,189,201)" stroke-width="1" opacity="0.996078431372549" d="M 332.5 136 L 334 138.5 L 333 138.5 L 332.5 136 Z " /><path fill="rgb(171,189,201)" stroke="rgb(171,189,201)" stroke-width="1" opacity="0.996078431372549" d="M 265.5 138 L 266 138.5 L 263.5 141 L 263 139.5 L 265.5 138 Z " /><path fill="rgb(171,189,201)" stroke="rgb(171,189,201)" stroke-width="1" opacity="0.996078431372549" d="M 360.5 142 L 363 144.5 L 362.5 145 L 360 142.5 L 360.5 142 Z " /><path fill="rgb(171,189,201)" stroke="rgb(171,189,201)" stroke-width="1" opacity="0.996078431372549" d="M 207.5 149 Q 209 150 206.5 151 L 204 150.5 L 207.5 149 Z " /><path fill="rgb(171,189,201)" stroke="rgb(171,189,201)" stroke-width="1" opacity="0.996078431372549" d="M 275.5 162 L 276 166.5 L 275 166.5 L 275.5 162 Z " /><path fill="rgb(171,189,201)" stroke="rgb(171,189,201)" stroke-width="1" opacity="0.996078431372549" d="M 265.5 167 L 268 169.5 L 267.5 170 L 265 167.5 L 265.5 167 Z " /><path fill="rgb(171,189,201)" stroke="rgb(171,189,201)" stroke-width="1" opacity="0.996078431372549" d="M 341.5 167 L 345 167.5 L 341.5 168 L 341.5 167 Z " /><path fill="rgb(171,189,201)" stroke="rgb(171,189,201)" stroke-width="1" opacity="0.996078431372549" d="M 349.5 167 L 352 167.5 L 349.5 168 L 349.5 167 Z " /><path fill="rgb(171,189,201)" stroke="rgb(171,189,201)" stroke-width="1" opacity="0.996078431372549" d="M 398.5 167 Q 400 168 397.5 169 L 396 168.5 L 398.5 167 Z " /><path fill="rgb(171,189,201)" stroke="rgb(171,189,201)" stroke-width="1" opacity="0.996078431372549" d="M 168.5 177 L 171 177.5 L 168.5 178 L 168.5 177 Z " /><path fill="rgb(171,189,201)" stroke="rgb(171,189,201)" stroke-width="1" opacity="0.996078431372549" d="M 143.5 178 L 146 178.5 L 143.5 179 L 143.5 178 Z " /><path fill="rgb(171,189,201)" stroke="rgb(171,189,201)" stroke-width="1" opacity="0.996078431372549" d="M 333.5 180 L 336 180.5 L 333.5 181 L 333.5 180 Z " /><path fill="rgb(171,189,201)" stroke="rgb(171,189,201)" stroke-width="1" opacity="0.996078431372549" d="M 180.5 184 L 183 184.5 L 180.5 185 L 180.5 184 Z " /><path fill="rgb(171,189,201)" stroke="rgb(171,189,201)" stroke-width="1" opacity="0.996078431372549" d="M 187.5 187 Q 190.5 188.5 187.5 190 L 186 189.5 L 188 188.5 L 187.5 187 Z " /><path fill="rgb(171,189,201)" stroke="rgb(171,189,201)" stroke-width="1" opacity="0.996078431372549" d="M 175.5 190 L 177 190.5 L 174.5 192 Q 173 191 175.5 190 Z " /><path fill="rgb(171,189,201)" stroke="rgb(171,189,201)" stroke-width="1" opacity="0.996078431372549" d="M 192.5 197 L 192.5 199 L 196 199.5 L 192.5 200 Q 189.5 198.5 192.5 197 Z " /><path fill="rgb(171,189,201)" stroke="rgb(171,189,201)" stroke-width="1" opacity="0.996078431372549" d="M 203.5 199 L 208 199.5 L 203.5 200 L 203.5 199 Z " /><path fill="rgb(171,189,201)" stroke="rgb(171,189,201)" stroke-width="1" opacity="0.996078431372549" d="M 632.5 207 L 636 207.5 L 632.5 208 L 632.5 207 Z " /><path fill="rgb(194,209,219)" stroke="rgb(194,209,219)" stroke-width="1" opacity="0.996078431372549" d="M 302.5 130 L 304 130.5 L 303.5 132 L 302.5 131 L 301 131.5 L 302.5 130 Z " /><path fill="rgb(194,209,219)" stroke="rgb(194,209,219)" stroke-width="1" opacity="0.996078431372549" d="M 356.5 138 L 360 141.5 L 359.5 142 L 356 138.5 L 356.5 138 Z " /><path fill="rgb(194,209,219)" stroke="rgb(194,209,219)" stroke-width="1" opacity="0.996078431372549" d="M 258.5 143 L 259 143.5 L 257 145.5 L 257.5 147 L 256 145.5 L 258.5 143 Z " /><path fill="rgb(194,209,219)" stroke="rgb(194,209,219)" stroke-width="1" opacity="0.996078431372549" d="M 356.5 145 L 362 145.5 L 357.5 146 L 356.5 147 L 356.5 145 Z " /><path fill="rgb(194,209,219)" stroke="rgb(194,209,219)" stroke-width="1" opacity="0.996078431372549" d="M 190.5 148 L 192 148.5 L 190 149.5 L 190.5 151 Q 187.5 149.5 190.5 148 Z " /><path fill="rgb(194,209,219)" stroke="rgb(194,209,219)" stroke-width="1" opacity="0.996078431372549" d="M 258.5 150 L 261 150.5 L 258.5 151 L 258.5 150 Z " /><path fill="rgb(194,209,219)" stroke="rgb(194,209,219)" stroke-width="1" opacity="0.996078431372549" d="M 265.5 156 L 265.5 158 L 267 158.5 L 265.5 159 Q 262.5 157.5 265.5 156 Z " /><path fill="rgb(194,209,219)" stroke="rgb(194,209,219)" stroke-width="1" opacity="0.996078431372549" d="M 169.5 163 Q 172 164 170.5 165 L 169 164.5 L 169.5 163 Z " /><path fill="rgb(194,209,219)" stroke="rgb(194,209,219)" stroke-width="1" opacity="0.996078431372549" d="M 142.5 164 L 145 164.5 L 142.5 165 L 142.5 164 Z " /><path fill="rgb(194,209,219)" stroke="rgb(194,209,219)" stroke-width="1" opacity="0.996078431372549" d="M 175.5 164 L 178 164.5 L 175.5 165 L 175.5 164 Z " /><path fill="rgb(194,209,219)" stroke="rgb(194,209,219)" stroke-width="1" opacity="0.996078431372549" d="M 284.5 171 L 288 171.5 L 284.5 172 L 284.5 171 Z " /><path fill="rgb(194,209,219)" stroke="rgb(194,209,219)" stroke-width="1" opacity="0.996078431372549" d="M 364.5 171 L 368 171.5 L 364.5 172 L 364.5 171 Z " /><path fill="rgb(194,209,219)" stroke="rgb(194,209,219)" stroke-width="1" opacity="0.996078431372549" d="M 354.5 172 L 358 172.5 L 354.5 173 L 354.5 172 Z " /><path fill="rgb(194,209,219)" stroke="rgb(194,209,219)" stroke-width="1" opacity="0.996078431372549" d="M 448.5 172 L 450 174.5 L 449 174.5 L 448.5 172 Z " /><path fill="rgb(194,209,219)" stroke="rgb(194,209,219)" stroke-width="1" opacity="0.996078431372549" d="M 133.5 181 L 138 181.5 L 133.5 182 L 133.5 181 Z " /><path fill="rgb(194,209,219)" stroke="rgb(194,209,219)" stroke-width="1" opacity="0.996078431372549" d="M 510.5 185 L 513 185.5 L 510.5 186 L 510.5 185 Z " /><path fill="rgb(194,209,219)" stroke="rgb(194,209,219)" stroke-width="1" opacity="0.996078431372549" d="M 540.5 187 L 543 187.5 L 540.5 188 L 540.5 187 Z " /><path fill="rgb(194,209,219)" stroke="rgb(194,209,219)" stroke-width="1" opacity="0.996078431372549" d="M 177.5 190 L 181 190.5 L 177.5 191 L 177.5 190 Z " /><path fill="rgb(194,209,219)" stroke="rgb(194,209,219)" stroke-width="1" opacity="0.996078431372549" d="M 188.5 194 L 193 194.5 L 188 195.5 L 187.5 197 L 187 195.5 L 188.5 194 Z " /><path fill="rgb(194,209,219)" stroke="rgb(194,209,219)" stroke-width="1" opacity="0.996078431372549" d="M 136.5 195 L 139 195.5 L 136.5 196 L 136.5 195 Z " /><path fill="rgb(194,209,219)" stroke="rgb(194,209,219)" stroke-width="1" opacity="0.996078431372549" d="M 180.5 196 L 186 196.5 L 180.5 197 L 180.5 196 Z " /><path fill="rgb(194,209,219)" stroke="rgb(194,209,219)" stroke-width="1" opacity="0.996078431372549" d="M 217.5 196 Q 219 197 216.5 198 L 215 197.5 L 217.5 196 Z " /><path fill="rgb(194,209,219)" stroke="rgb(194,209,219)" stroke-width="1" opacity="0.996078431372549" d="M 199.5 198 L 202 198.5 L 199.5 199 L 199.5 198 Z " /><path fill="rgb(194,209,219)" stroke="rgb(194,209,219)" stroke-width="1" opacity="0.996078431372549" d="M 155.5 201 Q 157 202 154.5 203 L 151 202.5 L 155.5 201 Z " /><path fill="rgb(234,240,247)" stroke="rgb(234,240,247)" stroke-width="1" opacity="0.996078431372549" d="M 252.5 111 L 262.5 111 L 263.5 112 L 269.5 112 L 270.5 113 L 284.5 115 L 290.5 113 L 302.5 113 L 320.5 119 L 331 124.5 Q 331.5 128.5 328.5 129 L 321.5 131 L 318 133.5 L 317.5 136 L 306.5 141 L 303 137.5 L 304 136.5 Q 304.8 133.3 303 132.5 L 304 130.5 L 302.5 130 Q 301.8 132.8 297.5 132 L 296 131.5 L 297 135.5 Q 294.8 136.8 296 141.5 L 301.5 146 L 305.5 147 L 307.5 144 L 317.5 139 L 323.5 143 L 327 139.5 L 327 137.5 L 325 135.5 L 325.5 135 L 329.5 134 L 333 137.5 L 333 139.5 L 332.5 140 L 330.5 138 L 328 139.5 Q 328.8 142.8 327 143.5 Q 328.3 146.3 333.5 145 L 334.5 141 L 336 141.5 L 335 144.5 L 337 145.5 L 336 147.5 L 339 149.5 L 338 151.5 L 342.5 152 Q 344 148.5 345.5 151 L 350 150.5 L 351.5 148 Q 352.8 150.3 357.5 149 L 358 147.5 L 357.5 146 Q 362 147 363 144.5 L 354 135.5 L 354.5 135 L 364 139.5 Q 365.2 145.7 363 148.5 L 371.5 149 L 383.5 145 L 387.5 148 L 393.5 148 L 394.5 147 L 400.5 147 L 407.5 144 L 407.5 145 L 404 147.5 L 404.5 149 L 411.5 150 L 423 156.5 L 419.5 159 L 414.5 160 L 410.5 158 L 407.5 160 L 405.5 159 Q 404 160 406.5 161 Q 409 163 414.5 162 L 415.5 161 L 425.5 161 L 426.5 162 L 429.5 162 L 433.5 164 L 437.5 164 L 440.5 166 L 442.5 166 Q 444 165 441.5 164 L 440 163.5 L 439.5 162 L 434.5 162 L 431.5 161 L 425 156.5 L 426.5 156 L 427.5 157 L 438.5 158 L 439.5 159 L 448.5 160 L 457.5 163 L 466.5 164 L 499.5 175 L 529.5 181 L 541 186.5 L 537.5 187 L 536.5 186 L 532.5 186 L 528.5 184 L 525.5 184 L 523.5 185 L 522.5 184 L 516.5 184 L 515.5 185 L 508.5 185 L 502.5 181 L 499.5 181 L 494.5 184 L 493.5 183 L 486.5 183 L 481 178.5 Q 480.4 174.6 477.5 173 L 474.5 177 L 471.5 177 Q 469.3 172.3 463.5 171 L 458.5 173 L 451.5 170 L 447.5 170 L 448 171.5 L 449 173.5 L 446.5 174 L 429.5 167 L 425.5 167 L 424.5 166 L 420.5 166 L 415.5 164 L 411.5 164 L 402.5 159 L 396.5 159 L 391.5 162 Q 386.8 161.3 385 163.5 L 388.5 166 L 398 167.5 L 378.5 168 L 370.5 171 L 359.5 171 L 355 169.5 L 354.5 168 L 352.5 167 L 340 166.5 Q 342.5 164.5 342.5 160 L 352.5 157 L 356 154.5 L 351.5 154 L 341.5 159 L 335.5 160 L 331.5 164 L 329.5 164 L 330.5 161 L 326.5 161 Q 325.1 163.6 320.5 163 L 318 165.5 Q 317.3 169.3 319.5 170 L 321.5 171 L 333.5 171 L 336.5 169 L 338.5 169 L 341 170.5 L 331.5 173 L 327.5 176 L 325.5 176 L 324.5 175 L 318.5 175 L 314.5 173 L 310.5 173 L 308 176.5 L 316 180.5 L 310 183.5 L 309.5 186 L 305.5 186 L 300.5 184 L 291 174.5 L 289.5 172 L 284.5 171 L 283.5 172 L 277.5 173 L 268.5 179 L 262.5 181 L 259.5 181 L 251.5 186 L 242.5 188 Q 236.3 190.3 233 195.5 L 231.5 198 L 229.5 198 L 224.5 194 L 222.5 194 L 220.5 196 Q 215.9 195.4 214.5 198 Q 211.3 197.3 210.5 199 L 202.5 199 L 199.5 198 L 198.5 199 L 192.5 199 L 192 198.5 L 195 195.5 L 194.5 195 Q 192.7 193.3 188.5 194 L 186.5 197 L 185.5 196 L 178.5 196 L 177 194.5 L 176.5 192 L 175 191.5 L 180.5 191 L 181.5 190 L 187.5 190 L 189 188.5 Q 185.9 184.1 179 183.5 L 179 181.5 L 175 176.5 L 174.5 173 L 173 173.5 Q 173.5 176.5 171.5 177 L 167.5 177 L 165.5 179 L 161.5 181 L 158.5 181 L 155 183.5 L 154.5 185 Q 150.4 184.4 149 186.5 L 149.5 188 L 156 190.5 L 155.5 192 L 151 193.5 Q 150.3 198.3 153.5 199 L 156 200.5 Q 154.8 203.3 149.5 202 L 143.5 197 L 135 194.5 L 138.5 188 Q 143.2 187.2 145.5 184 L 151 182.5 L 150.5 181 L 144.5 181 L 141.5 180 L 140.5 181 L 133.5 181 L 132.5 182 L 132 179.5 L 138.5 177 L 142.5 179 L 146.5 179 L 153.5 172 L 157 170.5 L 156 168.5 L 160 167.5 L 159 165.5 Q 159.5 163.5 162.5 164 L 165.5 166 L 168 161.5 L 166.5 157 L 162.5 157 L 150 164.5 L 147.5 168 L 144.5 164 L 141.5 165 L 141 163.5 L 148.5 160 L 152.5 160 L 159.5 156 L 177.5 151 L 187.5 145 L 196.5 143 L 200.5 140 L 215.5 133 L 222.5 127 L 239.5 118 L 242.5 115 L 252.5 111 Z M 271 127 Q 263 131 259 137 L 255 137 L 252 143 L 251 142 L 250 141 L 248 144 L 246 146 L 247 146 L 250 145 L 252 146 L 251 148 L 248 150 L 249 151 L 253 150 L 254 150 L 252 155 L 254 155 L 254 154 Q 256 150 262 151 L 263 153 L 268 150 L 272 144 L 272 142 L 268 137 L 265 139 L 265 138 L 264 137 L 265 135 Q 267 131 273 130 L 274 128 L 273 128 L 271 127 Z M 279 134 Q 277 139 280 141 L 278 145 L 275 147 L 271 148 L 269 154 L 264 158 Q 265 160 269 159 L 271 162 L 269 165 L 266 166 L 265 168 Q 268 171 273 173 L 276 169 L 276 160 L 271 158 L 274 154 L 278 156 L 279 153 L 282 151 L 284 148 L 282 142 L 283 140 L 282 137 L 279 134 Z M 191 148 L 187 151 L 183 151 L 178 154 L 180 154 L 181 154 L 170 160 L 173 162 L 169 164 L 170 165 L 172 164 L 172 165 L 166 171 Q 166 174 168 174 L 173 172 L 173 172 L 171 170 L 174 167 L 177 166 L 177 169 L 179 169 Q 181 168 180 165 L 175 164 L 180 162 Q 182 162 181 159 L 186 157 L 190 154 L 194 154 L 200 151 L 208 151 L 208 149 L 200 149 L 189 153 L 187 153 Q 188 151 191 151 L 192 149 L 191 148 Z " /><path fill="rgb(234,240,247)" stroke="rgb(234,240,247)" stroke-width="1" opacity="0.996078431372549" d="M 260.5 140 L 262 140.5 L 262 142.5 L 258.5 146 L 256.5 147 L 256 146.5 L 259 143.5 L 260.5 140 Z " /><path fill="rgb(234,240,247)" stroke="rgb(234,240,247)" stroke-width="1" opacity="0.996078431372549" d="M 354.5 173 L 360 173.5 L 358 174.5 L 363 176.5 Q 362.3 179.8 357.5 179 L 353 177.5 L 354.5 173 Z " /><path fill="rgb(234,240,247)" stroke="rgb(234,240,247)" stroke-width="1" opacity="0.996078431372549" d="M 329.5 177 L 337 178.5 L 336.5 180 L 330 179.5 L 329.5 177 Z " /><path fill="rgb(0,0,0)" stroke="rgb(0,0,0)" stroke-width="1" opacity="0" d="M 0.5 0 L 640 0.5 L 639.5 207 L 635.5 207 L 604.5 196 L 600.5 196 L 594.5 194 L 588.5 194 L 587.5 193 L 580.5 193 L 579.5 192 L 572.5 192 L 571.5 191 L 563.5 191 L 562.5 190 L 555.5 190 L 554.5 189 L 545.5 188 L 528.5 180 L 525.5 180 L 516.5 177 L 510.5 177 L 509.5 176 L 502.5 175 L 498.5 173 L 495.5 173 L 465.5 163 L 456.5 162 L 455.5 161 L 452.5 161 L 447.5 159 L 443.5 159 L 442.5 158 L 437.5 158 L 436.5 157 L 425.5 156 L 419.5 154 L 410 148.5 L 411.5 149 L 413 148.5 L 410.5 145 L 409.5 147 L 407.5 144 Q 402.9 143.4 401.5 146 L 397.5 146 L 397.5 145 L 401 144.5 L 397.5 143 Q 396.5 145 395.5 143 Q 393.7 141.3 389.5 142 L 384.5 139 L 377.5 138 L 374.5 139 L 368.5 137 L 366.5 138 L 364.5 137 L 362.5 138 L 355.5 135 L 353 132.5 L 355 132.5 L 353.5 130 L 352.5 131 L 350 128.5 L 352 128.5 L 350.5 126 Q 349 128.5 347.5 125 L 342.5 123 L 329.5 123 L 324.5 120 L 322.5 120 L 317.5 117 L 315.5 117 L 306.5 113 Q 301.8 114.3 300.5 112 L 291.5 112 L 285.5 114 L 280.5 114 L 279.5 113 L 274.5 113 L 273.5 112 Q 268.8 113.3 267.5 111 L 254.5 110 L 253.5 111 L 246.5 112 L 242.5 115 L 242.5 113 L 240 114.5 L 241 115.5 L 238.5 118 L 230.5 121 L 227.5 124 L 221.5 127 L 217.5 131 L 194.5 143 L 188.5 144 L 178.5 150 L 159.5 155 L 153.5 159 L 146.5 160 L 134.5 166 L 132.5 168 L 122.5 170 L 121.5 171 L 118.5 171 L 106.5 175 L 90.5 182 L 87.5 182 L 82.5 184 L 78.5 184 L 77.5 185 L 73.5 185 L 72.5 186 L 61.5 188 L 60.5 189 L 57.5 189 L 48.5 192 L 44.5 192 L 39.5 194 L 35.5 194 L 34.5 195 L 27.5 196 L 24.5 198 L 12.5 202 L 7.5 205 L 0.5 207 L 0.5 0 Z M 255 108 L 255 109 L 261 109 L 255 108 Z M 250 109 L 250 110 L 254 110 L 250 109 Z M 262 109 L 262 110 L 268 110 L 262 109 Z M 247 110 L 247 111 L 249 111 L 247 110 Z M 269 110 L 269 111 L 274 111 L 269 110 Z M 292 110 L 292 111 L 302 111 L 292 110 Z M 275 111 L 275 112 L 280 112 L 275 111 Z M 287 111 L 287 112 L 291 112 L 287 111 Z M 303 111 L 303 112 L 307 112 L 303 111 Z M 281 112 L 281 113 L 286 113 L 281 112 Z M 308 112 L 308 113 L 310 113 L 308 112 Z M 311 113 L 311 114 L 313 114 L 311 113 Z M 316 115 L 316 116 L 318 116 L 316 115 Z M 235 117 L 235 118 L 237 118 L 235 117 Z M 323 118 L 323 119 L 325 119 L 323 118 Z M 330 121 L 330 122 L 343 122 L 330 121 Z M 344 122 L 344 123 L 346 123 L 344 122 Z M 369 135 L 369 136 L 371 136 L 369 135 Z M 372 136 L 372 137 L 374 137 L 372 136 Z M 378 136 L 378 137 L 381 137 L 378 136 Z M 375 137 L 375 138 L 377 138 L 375 137 Z M 382 137 L 382 138 L 385 138 L 382 137 Z M 390 140 L 390 141 L 394 141 L 390 140 Z M 192 141 L 192 142 L 194 142 L 192 141 Z M 189 142 L 189 143 L 191 143 L 189 142 Z M 174 149 L 174 150 L 176 150 L 174 149 Z M 171 150 L 171 151 L 173 151 L 171 150 Z M 167 151 L 167 152 L 170 152 L 167 151 Z M 163 152 L 163 153 L 166 153 L 163 152 Z M 420 152 L 420 153 L 422 153 L 420 152 Z M 160 153 L 160 154 L 162 154 L 160 153 Z M 423 153 L 423 154 L 425 154 L 423 153 Z M 427 154 L 427 155 L 431 155 L 427 154 Z M 433 155 L 433 156 L 437 156 L 433 155 Z M 439 156 L 439 157 L 443 157 L 439 156 Z M 150 157 L 150 158 L 154 158 L 150 157 Z M 444 157 L 444 158 L 448 158 L 444 157 Z M 147 158 L 147 159 L 149 159 L 147 158 Z M 449 158 L 449 159 L 452 159 L 449 158 Z M 453 159 L 453 160 L 456 160 L 453 159 Z M 457 160 L 457 161 L 461 161 L 457 160 Z M 462 161 L 462 162 L 466 162 L 462 161 Z M 467 162 L 467 163 L 470 163 L 467 162 Z M 471 163 L 471 164 L 473 164 L 471 163 Z M 474 164 L 474 165 L 476 165 L 474 164 Z M 477 165 L 477 166 L 479 166 L 477 165 Z M 480 166 L 480 167 L 482 167 L 480 166 Z M 127 167 L 127 168 L 130 168 L 127 167 Z M 483 167 L 483 168 L 486 168 L 483 167 Z M 123 168 L 123 169 L 126 169 L 123 168 Z M 487 168 L 487 169 L 489 169 L 487 168 Z M 119 169 L 119 170 L 121 170 L 119 169 Z M 490 169 L 490 170 L 492 170 L 490 169 Z M 116 170 L 116 171 L 118 171 L 116 170 Z M 493 170 L 493 171 L 495 171 L 493 170 Z M 113 171 L 113 172 L 115 172 L 113 171 Z M 497 171 L 497 172 L 499 172 L 497 171 Z M 110 172 L 110 173 L 112 173 L 110 172 Z M 500 172 L 500 173 L 502 173 L 500 172 Z M 503 173 L 503 174 L 506 174 L 503 173 Z M 507 174 L 507 175 L 510 175 L 507 174 Z M 511 175 L 511 176 L 517 176 L 511 175 Z M 518 176 L 518 177 L 522 177 L 518 176 Z M 523 177 L 523 178 L 525 178 L 523 177 Z M 526 178 L 526 179 L 529 179 L 526 178 Z M 92 179 L 92 180 L 94 180 L 92 179 Z M 530 179 L 530 180 L 532 180 L 530 179 Z M 88 180 L 88 181 L 91 181 L 88 180 Z M 84 181 L 84 182 L 87 182 L 84 181 Z M 79 182 L 79 183 L 82 183 L 79 182 Z M 75 183 L 75 184 L 77 184 L 75 183 Z M 70 184 L 70 185 L 73 185 L 70 184 Z M 66 185 L 66 186 L 69 186 L 66 185 Z M 62 186 L 62 187 L 65 187 L 62 186 Z M 546 186 L 546 187 L 549 187 L 546 186 Z M 58 187 L 58 188 L 61 188 L 58 187 Z M 550 187 L 550 188 L 555 188 L 550 187 Z M 54 188 L 54 189 L 57 189 L 54 188 Z M 557 188 L 557 189 L 563 189 L 557 188 Z M 50 189 L 50 190 L 53 190 L 50 189 Z M 565 189 L 565 190 L 572 190 L 565 189 Z M 45 190 L 45 191 L 48 191 L 45 190 Z M 573 190 L 573 191 L 580 191 L 573 190 Z M 41 191 L 41 192 L 44 192 L 41 191 Z M 581 191 L 581 192 L 588 192 L 581 191 Z M 36 192 L 36 193 L 40 193 L 36 192 Z M 589 192 L 589 193 L 595 193 L 589 192 Z M 32 193 L 32 194 L 35 194 L 32 193 Z M 596 193 L 596 194 L 600 194 L 596 193 Z M 602 194 L 602 195 L 605 195 L 602 194 Z M 606 195 L 606 196 L 609 196 L 606 195 Z M 612 197 L 612 198 L 614 198 L 612 197 Z M 624 201 L 624 202 L 626 202 L 624 201 Z M 627 202 L 627 203 L 629 203 L 627 202 Z M 630 203 L 630 204 L 632 204 L 630 203 Z M 633 204 L 633 205 L 635 205 L 633 204 Z M 637 205 L 637 206 L 639 206 L 637 205 Z " /><path fill="rgb(0,0,0)" stroke="rgb(0,0,0)" stroke-width="1" opacity="0" d="M 0.5 209 L 640 209.5 L 639.5 320 L 0 319.5 L 0.5 209 Z M 2 210 L 2 211 L 639 211 L 2 210 Z " /><path fill="rgb(166,171,236)" stroke="rgb(166,171,236)" stroke-width="1" opacity="0.0196078431372549" d="M 333.5 121 L 342 121.5 L 333.5 122 L 333.5 121 Z " /><path fill="rgb(166,171,236)" stroke="rgb(166,171,236)" stroke-width="1" opacity="0.0196078431372549" d="M 368.5 135 L 370 135.5 L 368 136.5 L 368.5 138 L 366.5 137 L 365 137.5 L 368.5 135 Z " /><path fill="rgb(166,171,236)" stroke="rgb(166,171,236)" stroke-width="1" opacity="0.0196078431372549" d="M 371.5 136 L 373 136.5 L 370.5 138 Q 369 137 371.5 136 Z " /><path fill="rgb(166,171,236)" stroke="rgb(166,171,236)" stroke-width="1" opacity="0.0196078431372549" d="M 377.5 136 L 380 136.5 L 377 137.5 L 377.5 139 L 374.5 138 L 373 138.5 L 377.5 136 Z " /><path fill="rgb(166,171,236)" stroke="rgb(166,171,236)" stroke-width="1" opacity="0.0196078431372549" d="M 410.5 145 L 412 147.5 L 409 147.5 L 410.5 145 Z " /><path fill="rgb(166,171,236)" stroke="rgb(166,171,236)" stroke-width="1" opacity="0.0196078431372549" d="M 549.5 187 L 553 187.5 L 549.5 188 L 549.5 187 Z " /><path fill="rgb(166,171,236)" stroke="rgb(166,171,236)" stroke-width="1" opacity="0.0196078431372549" d="M 556.5 188 L 561 188.5 L 556.5 189 L 556.5 188 Z " /><path fill="rgb(166,171,236)" stroke="rgb(166,171,236)" stroke-width="1" opacity="0.0196078431372549" d="M 564.5 189 L 569 189.5 L 564.5 190 L 564.5 189 Z " /><path fill="rgb(166,171,236)" stroke="rgb(166,171,236)" stroke-width="1" opacity="0.0196078431372549" d="M 572.5 190 L 578 190.5 L 572.5 191 L 572.5 190 Z " /><path fill="rgb(166,171,236)" stroke="rgb(166,171,236)" stroke-width="1" opacity="0.0196078431372549" d="M 581.5 191 L 586 191.5 L 581.5 192 L 581.5 191 Z " /><path fill="rgb(166,171,236)" stroke="rgb(166,171,236)" stroke-width="1" opacity="0.0196078431372549" d="M 588.5 192 L 593 192.5 L 588.5 193 L 588.5 192 Z " /><path fill="rgb(166,171,236)" stroke="rgb(166,171,236)" stroke-width="1" opacity="0.0196078431372549" d="M 595.5 193 L 599 193.5 L 595.5 194 L 595.5 193 Z " /><path fill="rgb(166,171,236)" stroke="rgb(166,171,236)" stroke-width="1" opacity="0.0196078431372549" d="M 601.5 194 L 604 194.5 L 601.5 195 L 601.5 194 Z " /><path fill="rgb(166,171,236)" stroke="rgb(166,171,236)" stroke-width="1" opacity="0.0196078431372549" d="M 49.5 210 L 639 210.5 L 49.5 211 L 49.5 210 Z " /><path fill="rgb(159,179,197)" stroke="rgb(159,179,197)" stroke-width="1" opacity="0.9921568627450981" d="M 334.5 124 L 341 124.5 L 334.5 125 L 334.5 124 Z " /><path fill="rgb(159,179,197)" stroke="rgb(159,179,197)" stroke-width="1" opacity="0.9921568627450981" d="M 342.5 124 L 348 126.5 L 352 131.5 L 350.5 132 L 345.5 126 L 342 125.5 L 342.5 124 Z " /><path fill="rgb(159,179,197)" stroke="rgb(159,179,197)" stroke-width="1" opacity="0.9921568627450981" d="M 263.5 132 L 264 132.5 L 259.5 137 L 259 136.5 L 263.5 132 Z " /><path fill="rgb(159,179,197)" stroke="rgb(159,179,197)" stroke-width="1" opacity="0.9921568627450981" d="M 365.5 138 L 367.5 139 L 370.5 138 L 376.5 140 L 378 139.5 Q 377.5 141.5 374.5 141 L 368.5 139 L 366.5 140 Q 364 139 365.5 138 Z " /><path fill="rgb(159,179,197)" stroke="rgb(159,179,197)" stroke-width="1" opacity="0.9921568627450981" d="M 384.5 140 L 388 141.5 L 387.5 143 L 383 141.5 L 384.5 140 Z " /><path fill="rgb(159,179,197)" stroke="rgb(159,179,197)" stroke-width="1" opacity="0.9921568627450981" d="M 391.5 143 Q 394.5 142.5 395 144.5 L 393.5 145 L 391 143.5 L 391.5 143 Z " /><path fill="rgb(159,179,197)" stroke="rgb(159,179,197)" stroke-width="1" opacity="0.9921568627450981" d="M 345.5 167 L 349 167.5 L 345.5 168 L 345.5 167 Z " /><path fill="rgb(159,179,197)" stroke="rgb(159,179,197)" stroke-width="1" opacity="0.9921568627450981" d="M 393.5 168 L 396 168.5 L 393.5 169 L 393.5 168 Z " /><path fill="rgb(159,179,197)" stroke="rgb(159,179,197)" stroke-width="1" opacity="0.9921568627450981" d="M 143.5 180 Q 146 181 144.5 182 L 143 181.5 L 143.5 180 Z " /><path fill="rgb(159,179,197)" stroke="rgb(159,179,197)" stroke-width="1" opacity="0.9921568627450981" d="M 543.5 188 L 547 189.5 L 545.5 190 L 543 188.5 L 543.5 188 Z " /><path fill="rgb(159,179,197)" stroke="rgb(159,179,197)" stroke-width="1" opacity="0.9921568627450981" d="M 548.5 189 L 553 190.5 L 549.5 191 Q 547 190 548.5 189 Z " /><path fill="rgb(159,179,197)" stroke="rgb(159,179,197)" stroke-width="1" opacity="0.9921568627450981" d="M 554.5 190 L 555.5 191 L 560 191.5 L 555.5 192 Q 553 191 554.5 190 Z " /><path fill="rgb(159,179,197)" stroke="rgb(159,179,197)" stroke-width="1" opacity="0.9921568627450981" d="M 562.5 191 L 563.5 192 L 569 192.5 L 563.5 193 Q 561 192 562.5 191 Z " /><path fill="rgb(159,179,197)" stroke="rgb(159,179,197)" stroke-width="1" opacity="0.9921568627450981" d="M 571.5 192 L 572.5 193 L 577 193.5 L 572.5 194 Q 570 193 571.5 192 Z " /><path fill="rgb(159,179,197)" stroke="rgb(159,179,197)" stroke-width="1" opacity="0.9921568627450981" d="M 579.5 193 L 580.5 194 L 585 194.5 L 580.5 195 Q 578 194 579.5 193 Z " /><path fill="rgb(159,179,197)" stroke="rgb(159,179,197)" stroke-width="1" opacity="0.9921568627450981" d="M 587.5 194 L 592 195.5 L 587.5 196 L 587.5 194 Z " /><path fill="rgb(159,179,197)" stroke="rgb(159,179,197)" stroke-width="1" opacity="0.9921568627450981" d="M 594.5 195 L 598 196.5 L 594.5 197 L 594.5 195 Z " /><path fill="rgb(159,179,197)" stroke="rgb(159,179,197)" stroke-width="1" opacity="0.9921568627450981" d="M 599.5 196 L 607 198.5 L 605.5 199 Q 604.5 197 600.5 198 Q 598 197 599.5 196 Z " /><path fill="rgb(159,179,197)" stroke="rgb(159,179,197)" stroke-width="1" opacity="0.9921568627450981" d="M 608.5 198 L 615 201.5 L 613.5 201 L 608 199.5 L 608.5 198 Z " /><path fill="rgb(159,179,197)" stroke="rgb(159,179,197)" stroke-width="1" opacity="0.9921568627450981" d="M 616.5 201 Q 619 202 617.5 203 L 616 202.5 L 616.5 201 Z " /><path fill="rgb(159,179,197)" stroke="rgb(159,179,197)" stroke-width="1" opacity="0.9921568627450981" d="M 619.5 202 Q 622 203 620.5 204 L 619 203.5 L 619.5 202 Z " /><path fill="rgb(159,179,197)" stroke="rgb(159,179,197)" stroke-width="1" opacity="0.9921568627450981" d="M 622.5 203 Q 625 204 623.5 205 L 622 204.5 L 622.5 203 Z " /><path fill="rgb(159,179,197)" stroke="rgb(159,179,197)" stroke-width="1" opacity="0.9921568627450981" d="M 625.5 204 L 632 206.5 L 631.5 208 L 93 207.5 L 629 206.5 L 625 205.5 L 625.5 204 Z " /><path fill="rgb(155,153,153)" stroke="rgb(155,153,153)" stroke-width="1" opacity="0.011764705882352941" d="M 74.5 183 L 77 183.5 L 74.5 184 L 74.5 183 Z " /><path fill="rgb(155,153,153)" stroke="rgb(155,153,153)" stroke-width="1" opacity="0.011764705882352941" d="M 2.5 210 L 49 210.5 L 2.5 211 L 2.5 210 Z " /><path fill="rgb(149,169,180)" stroke="rgb(149,169,180)" stroke-width="1" opacity="0.996078431372549" d="M 332.5 124 L 333.5 125 L 340.5 125 L 342 124.5 L 342.5 126 Q 346.8 125.3 347.5 128 L 349 127.5 L 348 129.5 L 355 136.5 L 355 138.5 L 359.5 143 L 361 143.5 L 360.5 145 L 357.5 144 Q 355.5 144.5 356 147.5 L 358 148.5 L 355.5 149 L 351.5 147 L 349.5 150 L 347.5 151 Q 346 147.5 344.5 150 L 342 150.5 L 341.5 152 L 339 150.5 L 336 143.5 Q 338.3 142.3 335.5 141 L 333 140.5 L 334 137.5 L 330 134.5 L 330.5 133 L 327 133.5 L 326.5 135 Q 325.3 132.8 324 135.5 L 326 138.5 Q 324 139.5 326 140.5 L 324.5 142 L 322.5 141 L 321 141.5 L 319.5 139 Q 318.5 141 317.5 139 L 316 138.5 L 320.5 132 L 321.5 133 L 323.5 131 L 324.5 132 L 326.5 130 L 328 130.5 L 328.5 129 L 332 126.5 Q 329.8 125.3 332.5 124 Z " /><path fill="rgb(149,169,180)" stroke="rgb(149,169,180)" stroke-width="1" opacity="0.996078431372549" d="M 269.5 128 L 272 129.5 L 266 131.5 L 263.5 139 L 259 141.5 L 253.5 149 L 250 148.5 L 252 145.5 Q 249.5 144 253 142.5 L 256 138.5 L 255.5 137 L 257.5 138 L 269.5 128 Z " /><path fill="rgb(149,169,180)" stroke="rgb(149,169,180)" stroke-width="1" opacity="0.996078431372549" d="M 296.5 132 L 299.5 133 L 302.5 132 L 304 134.5 Q 302.3 135.2 303 138.5 L 305.5 141 L 308.5 142 L 309.5 140 Q 311 142.5 312.5 139 L 314 139.5 L 313.5 141 L 306 144.5 L 305.5 146 L 303.5 145 L 302 145.5 L 300.5 143 L 297 140.5 L 296 136.5 L 297 133.5 L 296.5 132 Z " /><path fill="rgb(149,169,180)" stroke="rgb(149,169,180)" stroke-width="1" opacity="0.996078431372549" d="M 279.5 136 L 282 139.5 L 283 145.5 L 282 147.5 L 283 148.5 L 280.5 151 L 275.5 155 Q 274.8 153.3 271.5 154 L 271 157.5 Q 272.2 160.3 276 160.5 Q 273.8 161.8 275 166.5 L 272.5 171 Q 267.8 171.8 267 168.5 L 266 166.5 L 270 164.5 L 272 161.5 Q 270.7 157.8 266 157.5 L 266.5 156 L 269 154.5 L 270 149.5 L 271.5 148 Q 275.6 148.6 277 146.5 L 280 142.5 L 280 139.5 Q 278.1 138.6 279.5 136 Z " /><path fill="rgb(149,169,180)" stroke="rgb(149,169,180)" stroke-width="1" opacity="0.996078431372549" d="M 266.5 138 L 272 142.5 L 266.5 150 L 262.5 152 L 261.5 150 L 257.5 150 L 253.5 154 L 253 152.5 L 255 151.5 L 254 150.5 L 256.5 148 L 262 143.5 L 266.5 138 Z " /><path fill="rgb(149,169,180)" stroke="rgb(149,169,180)" stroke-width="1" opacity="0.996078431372549" d="M 364.5 138 L 367.5 140 L 370.5 139 L 376.5 141 Q 377.3 139.3 380.5 140 Q 381.5 142 382.5 140 L 384 140.5 L 383.5 142 Q 388.1 141.4 389.5 144 Q 390.5 142 391.5 144 L 394.5 145 L 396 144.5 L 395 145.5 L 395.5 147 L 392.5 146 L 389.5 148 Q 388.4 145.6 385 145.5 L 384.5 144 L 381.5 145 L 379 145.5 L 378.5 147 L 375.5 146 L 372.5 148 L 370.5 147 L 365.5 149 L 364 146.5 L 364.5 138 Z " /><path fill="rgb(149,169,180)" stroke="rgb(149,169,180)" stroke-width="1" opacity="0.996078431372549" d="M 329.5 140 L 332 140.5 L 333 143.5 L 328.5 145 L 329 143.5 L 328 142.5 L 329.5 140 Z " /><path fill="rgb(149,169,180)" stroke="rgb(149,169,180)" stroke-width="1" opacity="0.996078431372549" d="M 248.5 143 L 250 143.5 L 249.5 145 Q 247 144 248.5 143 Z " /><path fill="rgb(149,169,180)" stroke="rgb(149,169,180)" stroke-width="1" opacity="0.996078431372549" d="M 406.5 147 L 410 148.5 L 408.5 149 L 407.5 148 L 406 148.5 L 406.5 147 Z " /><path fill="rgb(149,169,180)" stroke="rgb(149,169,180)" stroke-width="1" opacity="0.996078431372549" d="M 200.5 149 L 203 150.5 L 201.5 151 Q 199 150 200.5 149 Z " /><path fill="rgb(149,169,180)" stroke="rgb(149,169,180)" stroke-width="1" opacity="0.996078431372549" d="M 353.5 154 L 355 154.5 Q 354 157 353 155.5 L 353.5 154 Z " /><path fill="rgb(149,169,180)" stroke="rgb(149,169,180)" stroke-width="1" opacity="0.996078431372549" d="M 423.5 157 L 426 157.5 L 426.5 159 L 429 159.5 L 427.5 161 Q 426.5 159 425.5 161 Q 421.8 161.8 421 159.5 L 421.5 158 L 423.5 157 Z " /><path fill="rgb(149,169,180)" stroke="rgb(149,169,180)" stroke-width="1" opacity="0.996078431372549" d="M 397.5 159 L 399.5 160 L 401.5 159 L 402.5 161 L 404 160.5 L 405.5 163 L 407 162.5 L 407.5 164 L 408.5 163 Q 410 166.5 411.5 164 L 415.5 166 L 417.5 165 L 420.5 167 L 422.5 166 Q 424 169.5 425.5 167 L 429.5 169 L 430.5 168 L 432.5 170 L 433.5 169 L 435.5 171 L 437 170.5 L 437.5 172 L 438.5 171 L 440.5 173 Q 441.5 171 442.5 173 L 445 173.5 L 445.5 175 L 447.5 174 L 449.5 175 L 450 172.5 L 448 170.5 L 448.5 170 L 451.5 172 L 452.5 171 L 454.5 173 Q 456 170.5 457.5 174 L 460.5 173 Q 461.5 175 462.5 173 L 465.5 172 L 467.5 175 L 473.5 178 L 477.5 175 L 480 176.5 L 479.5 178 L 481 178.5 L 483.5 182 L 485 182.5 L 485.5 184 L 490.5 183 Q 491.5 186 496.5 185 L 500 182.5 L 499.5 181 L 506.5 185 L 509.5 185 L 512.5 187 L 515.5 185 Q 516.5 187 517.5 185 L 520.5 184 L 524.5 186 L 525.5 184 L 528.5 186 L 529.5 185 Q 531 188.5 532.5 186 L 536.5 188 L 538.5 187 L 541.5 189 Q 542.5 187 543.5 189 L 546.5 190 Q 548 187.5 549.5 191 Q 552.8 191.8 553.5 190 Q 554.5 193 559.5 192 L 561.5 191 Q 562.8 194.3 568.5 193 L 570.5 192 Q 571.5 195 576.5 194 L 578.5 193 Q 579.5 196 584.5 195 L 586.5 194 L 587.5 196 Q 591.7 196.7 593.5 195 L 594.5 197 Q 597.8 197.7 598.5 196 L 600.5 198 Q 604.7 197.3 606.5 199 L 608 198.5 L 608.5 200 L 614.5 202 L 616 201.5 L 616.5 203 L 618.5 202 L 619.5 204 L 621.5 203 L 622.5 205 L 624.5 204 L 625.5 206 L 629 206.5 L 92.5 207 L 92.5 206 L 109.5 201 L 124.5 192 L 131.5 191 L 135 188.5 L 135 186.5 L 138.5 183 L 147.5 181 L 150 182.5 L 148.5 183 L 146.5 182 L 143 184.5 L 142.5 186 L 138.5 187 L 137 188.5 L 137 190.5 L 134 194.5 L 135.5 196 L 139.5 196 L 143.5 198 L 150.5 203 L 155.5 203 L 156 199.5 L 152 197.5 L 151 194.5 L 157 191.5 L 156.5 190 L 149 186.5 L 153.5 186 L 157.5 182 L 163.5 181 L 167.5 178 Q 171.6 178.6 173 176.5 L 173.5 175 Q 175.5 175.5 175 178.5 L 180.5 185 L 183.5 185 L 187 187.5 L 186.5 189 L 184.5 190 L 175.5 190 L 174 191.5 L 177 193.5 Q 174.8 194.8 177.5 196 L 187.5 198 L 189.5 195 L 193 195.5 L 191 198.5 Q 192 201 196.5 200 Q 197.5 198 201.5 199 L 202.5 200 L 208.5 200 L 209.5 199 L 213.5 199 L 219.5 197 L 223.5 194 L 228.5 198 L 231.5 198 L 236 194.5 L 239.5 190 L 243.5 188 L 245.5 189 L 248.5 187 L 249.5 188 L 251.5 186 L 253 186.5 L 253.5 185 L 255 185.5 L 255.5 184 L 258 183.5 L 258.5 182 Q 259.5 184 260.5 182 L 262.5 181 L 263.5 182 L 265.5 180 Q 267 182.5 268.5 179 L 275 176.5 L 276.5 174 L 278 174.5 L 278.5 173 Q 279.5 175 280.5 173 L 282.5 172 L 284.5 173 L 286.5 172 L 290 174.5 L 290.5 176 L 292 176.5 L 293.5 179 L 294.5 178 L 297 180.5 L 299.5 184 L 301 184.5 L 301.5 186 Q 303 183.5 304.5 187 L 311 185.5 L 313.5 182 L 314.5 183 L 317 180.5 L 315.5 178 L 313.5 179 L 311.5 177 L 310 177.5 Q 309.5 174.5 311.5 174 L 315.5 175 L 317 174.5 L 317.5 176 L 320.5 175 Q 324 174.5 324.5 177 L 327.5 176 L 329 176.5 L 328 178.5 L 331.5 181 L 335.5 181 L 338 179.5 L 336.5 177 L 333.5 178 L 331.5 176 L 330 176.5 L 330.5 174 L 331.5 175 L 333.5 173 L 334.5 174 L 336.5 172 Q 338 174.5 339.5 171 L 342 170.5 L 341 168.5 L 352.5 168 L 356 170.5 L 352 174.5 Q 354 175.5 352 176.5 L 352.5 178 L 355.5 180 L 357.5 180 Q 358.3 178.3 361.5 179 L 363 177.5 L 360 173.5 L 360 171.5 L 361.5 171 L 362.5 172 L 369.5 172 Q 370.5 170 371.5 172 L 373.5 170 L 374.5 171 L 376.5 169 L 379.5 170 L 382.5 168 L 392.5 168 Q 393.5 170 397.5 169 Q 400 168 398.5 167 L 395.5 167 L 391.5 165 Q 390.5 167 389.5 165 L 387 164.5 L 391.5 162 L 393 162.5 L 393.5 161 L 395 161.5 L 395.5 160 L 397 160.5 L 397.5 159 Z " /><path fill="rgb(149,169,180)" stroke="rgb(149,169,180)" stroke-width="1" opacity="0.996078431372549" d="M 409.5 159 L 412 159.5 L 411.5 162 L 410 161.5 L 409.5 159 Z " /><path fill="rgb(149,169,180)" stroke="rgb(149,169,180)" stroke-width="1" opacity="0.996078431372549" d="M 337.5 160 L 342 161.5 L 341.5 163 L 340 163.5 L 340.5 165 L 339 165.5 L 338.5 169 L 336.5 168 Q 335 171.5 333.5 169 L 329.5 171 L 325.5 171 L 321.5 169 L 320 169.5 L 319 166.5 Q 322.4 161.9 329.5 161 L 330 162.5 L 329 164.5 L 330.5 165 L 333.5 164 L 337.5 160 Z " /><path fill="rgb(149,169,180)" stroke="rgb(149,169,180)" stroke-width="1" opacity="0.996078431372549" d="M 170.5 166 L 171 166.5 L 167.5 170 L 167 169.5 L 170.5 166 Z " /><path fill="rgb(149,169,180)" stroke="rgb(149,169,180)" stroke-width="1" opacity="0.996078431372549" d="M 32.5 207 L 89 207.5 L 32.5 208 L 32.5 207 Z " /><path fill="rgb(72,227,226)" stroke="rgb(72,227,226)" stroke-width="1" opacity="0.00784313725490196" d="M 118.5 169 L 120 169.5 L 117.5 171 Q 116 170 118.5 169 Z " /><path fill="rgb(72,227,226)" stroke="rgb(72,227,226)" stroke-width="1" opacity="0.00784313725490196" d="M 91.5 179 L 94 179.5 L 90.5 181 Q 89 180 91.5 179 Z " /><path fill="rgb(137,168,188)" stroke="rgb(137,168,188)" stroke-width="1" opacity="0.4" d="M 79.5 184 L 82 184.5 L 79.5 185 L 79.5 184 Z " /><path fill="rgb(137,168,188)" stroke="rgb(137,168,188)" stroke-width="1" opacity="0.4" d="M 58.5 189 L 61 189.5 L 58.5 190 L 58.5 189 Z " /><path fill="rgb(137,168,188)" stroke="rgb(137,168,188)" stroke-width="1" opacity="0.4" d="M 1.5 207 L 3.5 208 L 47 208.5 L 0.5 209 Q -1 208 1.5 207 Z " /><path fill="rgb(249,252,253)" stroke="rgb(249,252,253)" stroke-width="1" opacity="0.10588235294117647" d="M 254.5 108 L 260.5 108 L 261.5 109 L 267.5 109 L 268.5 110 L 273.5 110 L 274.5 111 L 285.5 112 L 291.5 110 L 300.5 110 L 300.5 111 L 291 111.5 L 301 112.5 L 291.5 113 Q 290.5 111 286.5 112 L 286.5 113 L 290 113.5 L 286.5 114 Q 285.2 111.8 280.5 113 Q 279.5 115 275.5 114 L 275.5 113 L 280 112.5 L 274.5 112 Q 273.8 113.7 270.5 113 L 270.5 112 L 274 111.5 L 268.5 111 Q 267.5 113 263.5 112 L 263.5 111 L 268 110.5 L 261.5 110 Q 260.3 112.3 255.5 111 L 255.5 110 L 261 109.5 L 254.5 109 L 253.5 110 L 249 110.5 L 252 111.5 L 249.5 112 L 246.5 111 L 246.5 112 L 248 112.5 L 243.5 115 L 242.5 114 L 241 114.5 L 241.5 113 L 246.5 110 L 253.5 109 L 254.5 108 Z " /><path fill="rgb(249,252,253)" stroke="rgb(249,252,253)" stroke-width="1" opacity="0.10588235294117647" d="M 302.5 111 L 306.5 111 L 312.5 113 L 332 121.5 L 327.5 123 L 323 120.5 L 325 119.5 L 322.5 119 L 321 119.5 L 321.5 118 L 318.5 119 L 316 117.5 L 318 116.5 L 315.5 116 L 313.5 117 L 311 115.5 L 313 114.5 L 310.5 114 L 307.5 115 L 303 113.5 L 307 112.5 L 302.5 112 L 302.5 111 Z M 308 113 L 308 114 L 310 114 L 308 113 Z " /><path fill="rgb(249,252,253)" stroke="rgb(249,252,253)" stroke-width="1" opacity="0.10588235294117647" d="M 281.5 114 L 285 114.5 L 281.5 115 L 281.5 114 Z " /><path fill="rgb(249,252,253)" stroke="rgb(249,252,253)" stroke-width="1" opacity="0.10588235294117647" d="M 239.5 115 Q 242.5 116.5 239.5 118 L 237.5 117 L 237.5 119 L 234.5 118 L 234.5 119 L 236 119.5 L 231.5 122 L 231.5 120 L 229 121.5 Q 231.3 122.8 228.5 124 L 227 122.5 L 230.5 119 L 239.5 115 Z " /><path fill="rgb(249,252,253)" stroke="rgb(249,252,253)" stroke-width="1" opacity="0.10588235294117647" d="M 224.5 123 L 227 124.5 L 223.5 127 L 222 125.5 L 224.5 123 Z " /><path fill="rgb(249,252,253)" stroke="rgb(249,252,253)" stroke-width="1" opacity="0.10588235294117647" d="M 220.5 126 L 222 127.5 L 218.5 131 L 216.5 130 L 217 131.5 L 215.5 133 L 213.5 134 L 213.5 132 L 211.5 133 Q 210 132 212.5 131 Q 217.9 129.9 220.5 126 Z " /><path fill="rgb(249,252,253)" stroke="rgb(249,252,253)" stroke-width="1" opacity="0.10588235294117647" d="M 354.5 131 L 355.5 133 L 359 134.5 L 356.5 136 L 356.5 134 L 354.5 135 L 355 133.5 L 354 132.5 L 354.5 131 Z " /><path fill="rgb(249,252,253)" stroke="rgb(249,252,253)" stroke-width="1" opacity="0.10588235294117647" d="M 205.5 135 L 208 136.5 L 205.5 138 L 203.5 137 L 203.5 139 Q 200.5 137.5 203.5 136 L 205.5 135 Z " /><path fill="rgb(249,252,253)" stroke="rgb(249,252,253)" stroke-width="1" opacity="0.10588235294117647" d="M 360.5 135 L 364 136.5 L 362 137.5 L 364 138.5 L 362.5 139 L 360 137.5 L 362 136.5 L 360 135.5 L 360.5 135 Z " /><path fill="rgb(249,252,253)" stroke="rgb(249,252,253)" stroke-width="1" opacity="0.10588235294117647" d="M 199.5 138 L 202 139.5 L 200.5 139 L 199 139.5 Q 201.3 140.8 198.5 142 L 195.5 143 L 195.5 142 L 197 141.5 L 195 140.5 L 196.5 140 L 198.5 141 L 198 139.5 L 199.5 138 Z " /><path fill="rgb(249,252,253)" stroke="rgb(249,252,253)" stroke-width="1" opacity="0.10588235294117647" d="M 191.5 141 L 194 141.5 L 188 143.5 L 190 144.5 L 188.5 145 Q 185.5 143.5 188.5 142 L 191.5 141 Z " /><path fill="rgb(249,252,253)" stroke="rgb(249,252,253)" stroke-width="1" opacity="0.10588235294117647" d="M 404.5 142 L 406 142.5 L 404 143.5 L 406 144.5 L 404.5 145 L 402 143.5 L 404.5 142 Z " /><path fill="rgb(249,252,253)" stroke="rgb(249,252,253)" stroke-width="1" opacity="0.10588235294117647" d="M 183.5 145 Q 186.5 146.5 183.5 148 L 181.5 147 L 181.5 149 L 179 147.5 L 183.5 145 Z " /><path fill="rgb(249,252,253)" stroke="rgb(249,252,253)" stroke-width="1" opacity="0.10588235294117647" d="M 397.5 146 L 401 146.5 L 397.5 147 L 397.5 146 Z " /><path fill="rgb(249,252,253)" stroke="rgb(249,252,253)" stroke-width="1" opacity="0.10588235294117647" d="M 410.5 147 L 423 153.5 L 422 154.5 L 422.5 156 L 420 154.5 L 422 153.5 L 419.5 153 L 418 153.5 L 418.5 152 L 416.5 153 L 416.5 151 L 414.5 152 L 414.5 150 L 412.5 151 L 412.5 149 L 410.5 150 L 410.5 147 Z " /><path fill="rgb(249,252,253)" stroke="rgb(249,252,253)" stroke-width="1" opacity="0.10588235294117647" d="M 173.5 149 L 178 150.5 L 176.5 151 L 173.5 150 L 173.5 151 L 175 151.5 L 173.5 152 L 171 150.5 L 173.5 149 Z " /><path fill="rgb(249,252,253)" stroke="rgb(249,252,253)" stroke-width="1" opacity="0.10588235294117647" d="M 166.5 151 L 166.5 153 L 169 153.5 L 166.5 154 L 163 152.5 L 166.5 151 Z " /><path fill="rgb(249,252,253)" stroke="rgb(249,252,253)" stroke-width="1" opacity="0.10588235294117647" d="M 168.5 151 L 172 152.5 L 170.5 153 L 168 151.5 L 168.5 151 Z " /><path fill="rgb(249,252,253)" stroke="rgb(249,252,253)" stroke-width="1" opacity="0.10588235294117647" d="M 159.5 153 L 165 154.5 L 160.5 156 L 160.5 155 L 162 154.5 L 159.5 154 L 157 155.5 L 159 156.5 L 156.5 158 L 157 156.5 L 156 155.5 L 157.5 154 L 159.5 153 Z " /><path fill="rgb(249,252,253)" stroke="rgb(249,252,253)" stroke-width="1" opacity="0.10588235294117647" d="M 426.5 154 L 431 154.5 L 426.5 155 L 426.5 154 Z " /><path fill="rgb(249,252,253)" stroke="rgb(249,252,253)" stroke-width="1" opacity="0.10588235294117647" d="M 432.5 155 L 437 155.5 L 432.5 156 L 432.5 155 Z " /><path fill="rgb(249,252,253)" stroke="rgb(249,252,253)" stroke-width="1" opacity="0.10588235294117647" d="M 427.5 156 L 431 156.5 L 427.5 157 L 427.5 156 Z " /><path fill="rgb(249,252,253)" stroke="rgb(249,252,253)" stroke-width="1" opacity="0.10588235294117647" d="M 438.5 156 L 442.5 156 L 443.5 157 L 447.5 157 L 448.5 158 L 456 159.5 L 449.5 161 L 449.5 160 L 452 159.5 L 448.5 159 Q 447.7 160.8 444.5 160 L 444.5 159 L 448 158.5 L 443.5 158 Q 442.8 159.8 439.5 159 L 439.5 158 L 443 157.5 L 438.5 157 L 438.5 156 Z " /><path fill="rgb(249,252,253)" stroke="rgb(249,252,253)" stroke-width="1" opacity="0.10588235294117647" d="M 149.5 157 L 149.5 159 L 153 159.5 L 149.5 160 L 146.5 159 L 146.5 160 L 148 160.5 L 146.5 161 Q 143.5 159.5 146.5 158 L 149.5 157 Z " /><path fill="rgb(249,252,253)" stroke="rgb(249,252,253)" stroke-width="1" opacity="0.10588235294117647" d="M 151.5 157 Q 154.5 156.5 155 158.5 L 153.5 158 Q 150.5 158.5 151.5 157 Z " /><path fill="rgb(249,252,253)" stroke="rgb(249,252,253)" stroke-width="1" opacity="0.10588235294117647" d="M 433.5 157 L 437 157.5 L 433.5 158 L 433.5 157 Z " /><path fill="rgb(249,252,253)" stroke="rgb(249,252,253)" stroke-width="1" opacity="0.10588235294117647" d="M 142.5 160 L 145 161.5 L 143.5 161 L 142 161.5 L 142.5 163 Q 139.5 161.5 142.5 160 Z " /><path fill="rgb(249,252,253)" stroke="rgb(249,252,253)" stroke-width="1" opacity="0.10588235294117647" d="M 457.5 160 L 469.5 162 L 495 170.5 L 489.5 172 L 483 169.5 L 486 168.5 L 482.5 168 L 480.5 169 L 480.5 168 L 482 167.5 L 479.5 167 L 477.5 168 L 477.5 167 L 479 166.5 L 476.5 166 L 473.5 167 L 470 165.5 L 473 164.5 L 469.5 163 L 466.5 163 Q 465.8 164.8 462.5 164 L 462.5 163 L 466 162.5 L 461.5 162 Q 460.8 163.8 457.5 163 L 457.5 162 L 461 161.5 L 457.5 161 L 457.5 160 Z M 474 165 L 474 166 L 476 166 L 474 165 Z M 487 169 L 487 170 L 489 170 L 487 169 Z M 490 170 L 490 171 L 492 171 L 490 170 Z " /><path fill="rgb(249,252,253)" stroke="rgb(249,252,253)" stroke-width="1" opacity="0.10588235294117647" d="M 453.5 161 L 456 161.5 L 453.5 162 L 453.5 161 Z " /><path fill="rgb(249,252,253)" stroke="rgb(249,252,253)" stroke-width="1" opacity="0.10588235294117647" d="M 496.5 171 L 502.5 173 L 505.5 173 L 506.5 174 L 509.5 174 L 510.5 175 L 521.5 176 L 525.5 178 L 531.5 179 L 536 181.5 L 532.5 183 L 530 181.5 L 532 180.5 L 529.5 180 L 526.5 181 L 526.5 180 L 529 179.5 L 525.5 179 L 522.5 180 L 518 178.5 L 522 177.5 L 517.5 177 Q 516.3 179.3 511.5 178 L 511.5 177 L 517 176.5 L 510.5 176 L 507.5 177 L 507.5 176 L 510 175.5 L 506.5 175 L 503.5 176 L 503.5 175 L 506 174.5 L 502.5 174 L 499.5 175 L 496 173.5 L 499 172.5 L 496.5 172 L 496.5 171 Z M 500 173 L 500 174 L 502 174 L 500 173 Z M 523 178 L 523 179 L 525 179 L 523 178 Z " /><path fill="rgb(249,252,253)" stroke="rgb(249,252,253)" stroke-width="1" opacity="0.10588235294117647" d="M 537.5 182 L 542 184.5 L 539.5 186 L 539.5 184 L 537.5 185 L 537.5 182 Z " /><path fill="rgb(249,252,253)" stroke="rgb(249,252,253)" stroke-width="1" opacity="0.10588235294117647" d="M 568.5 191 L 572 191.5 L 568.5 192 L 568.5 191 Z " /><path fill="rgb(249,252,253)" stroke="rgb(249,252,253)" stroke-width="1" opacity="0.10588235294117647" d="M 585.5 193 L 588 193.5 L 585.5 194 L 585.5 193 Z " /><path fill="rgb(174,196,208)" stroke="rgb(174,196,208)" stroke-width="1" opacity="0.615686274509804" d="M 333.5 123 L 341 123.5 L 333.5 124 L 333.5 123 Z " /><path fill="rgb(174,196,208)" stroke="rgb(174,196,208)" stroke-width="1" opacity="0.615686274509804" d="M 374.5 139 L 377 139.5 L 374.5 140 L 374.5 139 Z " /><path fill="rgb(174,196,208)" stroke="rgb(174,196,208)" stroke-width="1" opacity="0.615686274509804" d="M 549.5 189 L 552 189.5 L 549.5 190 L 549.5 189 Z " /><path fill="rgb(174,196,208)" stroke="rgb(174,196,208)" stroke-width="1" opacity="0.615686274509804" d="M 556.5 190 L 560 190.5 L 556.5 191 L 556.5 190 Z " /><path fill="rgb(174,196,208)" stroke="rgb(174,196,208)" stroke-width="1" opacity="0.615686274509804" d="M 564.5 191 L 568 191.5 L 564.5 192 L 564.5 191 Z " /><path fill="rgb(174,196,208)" stroke="rgb(174,196,208)" stroke-width="1" opacity="0.615686274509804" d="M 572.5 192 L 577 192.5 L 572.5 193 L 572.5 192 Z " /><path fill="rgb(174,196,208)" stroke="rgb(174,196,208)" stroke-width="1" opacity="0.615686274509804" d="M 580.5 193 L 585 193.5 L 580.5 194 L 580.5 193 Z " /><path fill="rgb(174,196,208)" stroke="rgb(174,196,208)" stroke-width="1" opacity="0.615686274509804" d="M 588.5 194 L 592 194.5 L 588.5 195 L 588.5 194 Z " /><path fill="rgb(174,196,208)" stroke="rgb(174,196,208)" stroke-width="1" opacity="0.615686274509804" d="M 595.5 195 L 598 195.5 L 595.5 196 L 595.5 195 Z " /><path fill="rgb(174,196,208)" stroke="rgb(174,196,208)" stroke-width="1" opacity="0.615686274509804" d="M 601.5 196 L 604 196.5 L 601.5 197 L 601.5 196 Z " /><path fill="rgb(174,196,208)" stroke="rgb(174,196,208)" stroke-width="1" opacity="0.615686274509804" d="M 605.5 197 L 608 197.5 L 605.5 198 L 605.5 197 Z " /><path fill="rgb(174,196,208)" stroke="rgb(174,196,208)" stroke-width="1" opacity="0.615686274509804" d="M 636.5 207 L 639 208.5 L 47.5 209 L 47.5 208 L 635.5 208 L 636.5 207 Z " /></svg>