<svg viewBox="0 0 640 433" version="1.1" xmlns="http://www.w3.org/2000/svg" desc="Created with imagetracer.js version 1.2.6" ><path fill="rgb(0,0,0)" stroke="rgb(0,0,0)" stroke-width="1" opacity="0" d="M 0.5 0 L 640 0.5 L 639.5 433 L 0 432.5 L 0.5 0 Z M 362 115 L 362 116 L 381 116 L 362 115 Z M 348 116 L 348 117 L 358 117 L 348 116 Z M 385 116 L 385 117 L 394 117 L 385 116 Z M 340 117 L 340 118 L 346 118 L 340 117 Z M 360 117 L 359 118 L 347 118 L 346 119 L 339 119 Q 337 121 333 120 L 332 121 L 327 121 L 326 122 L 310 125 L 303 128 L 300 128 L 294 130 L 291 132 L 281 135 L 276 138 L 274 138 L 258 146 L 256 148 L 246 153 L 229 165 L 227 164 L 227 166 L 213 177 L 206 184 L 203 185 L 205 186 Q 208 185 210 187 L 221 188 Q 207 196 196 207 L 196 206 L 195 205 Q 192 206 194 208 L 181 221 L 167 213 L 155 209 L 148 208 L 147 207 L 136 206 L 135 205 L 128 205 L 127 204 L 116 204 L 115 203 L 82 203 L 80 207 L 82 207 L 81 209 L 83 209 L 82 211 L 84 210 L 83 212 L 85 216 L 86 214 L 102 247 L 101 250 L 103 250 L 102 252 L 104 252 L 103 254 L 105 254 L 104 256 L 106 256 L 105 258 L 107 258 L 106 260 L 108 260 L 107 262 L 109 262 L 108 264 L 110 264 L 109 266 L 111 266 L 110 268 L 112 268 L 111 270 L 113 269 L 112 271 L 112 273 L 119 285 L 120 283 L 121 286 L 119 286 L 122 291 L 123 289 L 124 292 L 122 292 L 125 297 L 126 295 L 135 314 L 135 316 L 137 316 L 142 311 L 143 312 L 144 310 L 142 310 L 146 306 L 147 307 L 148 305 L 146 305 L 150 301 L 151 302 L 150 300 L 152 297 L 155 294 L 156 295 L 157 293 L 155 293 L 157 290 L 160 287 L 161 288 L 160 286 L 162 284 L 163 285 L 162 283 L 163 281 Q 164 278 166 280 L 167 278 L 165 278 Q 166 275 168 277 L 169 275 L 167 275 L 168 273 Q 169 270 171 272 L 172 270 L 170 270 L 171 268 L 173 266 L 174 267 L 173 265 L 175 265 L 174 263 L 176 263 L 178 259 L 176 259 L 179 253 L 181 253 L 180 251 L 183 243 L 184 242 L 184 240 L 193 243 L 196 245 L 233 257 Q 234 258 232 259 L 231 257 L 228 258 L 230 258 L 231 261 L 229 261 L 230 263 L 229 262 L 224 271 L 226 271 L 223 277 L 232 278 L 233 279 L 237 279 L 242 281 L 245 281 L 272 290 L 275 290 L 279 279 L 279 281 L 280 281 L 279 278 L 280 274 L 282 272 L 282 270 L 283 271 L 291 272 L 292 273 L 306 275 L 307 276 L 312 276 L 313 277 L 318 277 L 319 278 L 324 278 L 325 279 L 340 280 L 341 281 L 350 281 L 351 282 L 365 282 L 366 283 L 399 283 L 400 282 L 415 283 L 400 284 L 413 284 L 414 288 L 415 284 L 415 290 L 416 291 L 416 300 L 421 300 L 422 301 L 439 301 L 438 299 L 439 297 L 438 297 L 435 294 L 437 294 L 437 293 L 436 291 L 434 292 L 435 290 L 434 290 L 432 289 L 434 289 L 434 288 L 433 286 L 431 287 L 432 285 L 431 285 L 429 284 L 431 284 L 431 283 L 435 282 L 430 281 Q 428 283 427 281 L 435 280 L 436 279 L 443 279 L 444 278 L 450 278 L 451 277 L 457 277 L 458 276 L 464 276 L 465 275 L 471 275 Q 472 273 477 274 L 478 273 L 483 273 L 484 272 L 489 272 L 490 271 L 495 271 L 496 270 L 501 270 L 507 268 L 511 268 L 517 266 L 521 266 L 522 265 L 526 265 L 527 264 L 531 264 L 532 263 L 536 263 L 537 262 L 544 261 L 545 260 L 549 260 L 550 259 L 553 259 L 559 257 Q 560 255 561 257 L 561 256 Q 560 253 559 255 L 557 254 L 559 254 L 559 253 Q 558 250 557 252 L 555 251 L 557 251 L 557 250 Q 556 247 555 249 L 552 247 L 554 247 L 554 246 Q 553 243 552 245 L 549 243 L 551 243 L 551 242 Q 550 239 549 241 L 545 238 L 547 238 L 547 237 L 545 234 L 544 235 L 538 230 L 539 229 L 541 231 L 541 230 L 538 226 L 537 227 L 526 217 L 527 216 L 524 213 L 525 216 L 517 209 L 518 208 L 516 206 L 516 208 L 499 194 L 465 172 L 433 159 L 439 153 L 440 154 L 441 152 L 439 152 L 445 146 L 446 147 L 447 145 L 445 145 L 453 137 L 454 138 L 456 135 L 450 131 L 435 126 L 432 126 L 424 123 L 416 122 L 415 121 L 404 120 L 403 119 L 396 119 L 395 118 L 384 118 L 383 117 L 360 117 Z M 397 117 L 397 118 L 402 118 L 397 117 Z M 334 118 L 334 119 L 338 119 L 334 118 Z M 405 118 L 405 119 L 409 119 L 405 118 Z M 328 119 L 328 120 L 332 120 L 328 119 Z M 411 119 L 411 120 L 414 120 L 411 119 Z M 323 120 L 323 121 L 326 121 L 323 120 Z M 416 120 L 416 121 L 419 121 L 416 120 Z M 319 121 L 319 122 L 321 122 L 319 121 Z M 421 121 L 421 122 L 423 122 L 421 121 Z M 315 122 L 315 123 L 317 123 L 315 122 Z M 425 122 L 425 123 L 427 123 L 425 122 Z M 311 123 L 311 124 L 313 124 L 311 123 Z M 429 123 L 429 124 L 431 124 L 429 123 Z M 307 124 L 307 125 L 309 125 L 307 124 Z M 433 124 L 433 125 L 435 125 L 433 124 Z M 304 125 L 304 126 L 306 126 L 304 125 Z M 436 125 L 436 126 L 438 126 L 436 125 Z M 439 126 L 439 127 L 441 127 L 439 126 Z M 442 127 L 442 128 L 444 128 L 442 127 Z M 445 128 L 445 129 L 447 129 L 445 128 Z M 448 129 L 448 130 L 450 130 L 448 129 Z M 436 157 L 436 159 L 438 159 L 436 157 Z M 205 187 L 205 188 L 208 188 L 205 187 Z M 211 188 L 211 189 Q 214 188 216 190 L 218 189 L 211 188 Z M 83 201 L 83 202 L 113 202 L 83 201 Z M 117 202 L 117 203 L 126 203 L 117 202 Z M 129 203 L 129 204 L 135 204 L 129 203 Z M 137 204 L 137 205 L 141 205 L 137 204 Z M 143 205 L 143 206 L 146 206 L 143 205 Z M 148 206 L 148 207 L 151 207 L 148 206 Z M 152 207 L 152 208 L 154 208 L 152 207 Z M 156 208 L 156 209 L 158 209 L 156 208 Z M 159 209 L 159 210 L 161 210 L 159 209 Z M 185 242 L 185 243 L 187 243 L 185 242 Z M 188 243 L 188 244 L 190 244 L 188 243 Z M 196 246 L 196 247 L 198 247 L 196 246 Z M 199 247 L 199 248 L 201 248 L 199 247 Z M 202 248 L 202 249 L 204 249 L 202 248 Z M 205 249 L 205 250 L 207 250 L 205 249 Z M 208 250 L 208 251 L 210 251 L 208 250 Z M 211 251 L 211 252 L 213 252 L 211 251 Z M 214 252 L 214 253 L 216 253 L 214 252 Z M 217 253 L 217 254 L 219 254 L 217 253 Z M 220 254 L 220 255 L 222 255 L 220 254 Z M 223 255 L 223 256 L 225 256 L 223 255 Z M 226 256 L 226 257 L 228 257 L 226 256 Z M 554 259 L 554 260 L 557 260 L 554 259 Z M 550 260 L 550 261 L 553 261 L 550 260 Z M 546 261 L 546 262 L 549 262 L 546 261 Z M 541 262 L 541 263 L 544 263 L 541 262 Z M 537 263 L 537 264 L 540 264 L 537 263 Z M 532 264 L 532 265 L 535 265 L 532 264 Z M 527 265 L 527 266 L 531 266 L 527 265 Z M 523 266 L 523 267 L 526 267 L 523 266 Z M 518 267 L 518 268 L 521 268 L 518 267 Z M 513 268 L 513 269 L 516 269 L 513 268 Z M 507 269 L 507 270 L 511 270 L 507 269 Z M 502 270 L 502 271 L 506 271 L 502 270 Z M 496 271 L 496 272 L 500 272 L 496 271 Z M 283 272 L 283 273 L 286 273 L 283 272 Z M 490 272 L 490 273 L 495 273 L 490 272 Z M 288 273 L 288 274 L 291 274 L 288 273 Z M 484 273 L 484 274 L 489 274 L 484 273 Z M 292 274 L 292 275 L 296 275 L 292 274 Z M 478 274 L 478 275 L 483 275 L 478 274 Z M 297 275 L 297 276 L 301 276 L 297 275 Z M 472 275 L 472 276 L 477 276 L 472 275 Z M 302 276 L 302 277 L 306 277 L 302 276 Z M 465 276 L 465 277 L 470 277 L 465 276 Z M 307 277 L 307 278 L 311 278 L 307 277 Z M 458 277 L 458 278 L 464 278 L 458 277 Z M 225 278 L 225 279 L 228 279 L 225 278 Z M 313 278 L 313 279 L 317 279 L 313 278 Z M 451 278 L 451 279 L 457 279 L 451 278 Z M 230 279 L 230 280 L 232 280 L 230 279 Z M 319 279 L 319 280 L 324 280 L 319 279 Z M 444 279 L 444 280 L 450 280 L 444 279 Z M 234 280 L 234 281 L 236 281 L 234 280 Z M 325 280 L 325 281 L 331 281 L 325 280 Z M 437 280 L 437 281 L 443 281 L 437 280 Z M 238 281 L 238 282 L 240 282 L 238 281 Z M 279 281 L 278 284 L 279 284 L 279 281 Z M 333 281 L 333 282 L 339 282 L 333 281 Z M 242 282 L 242 283 L 244 283 L 242 282 Z M 341 282 L 341 283 L 349 283 L 341 282 Z M 246 283 L 246 284 L 248 284 L 246 283 Z M 351 283 L 351 284 L 364 284 L 351 283 Z M 250 284 L 250 285 L 252 285 L 250 284 Z M 278 284 L 277 287 L 278 287 L 278 284 Z M 366 284 L 366 285 L 399 285 L 366 284 Z M 253 285 L 253 286 L 255 286 L 253 285 Z M 257 286 L 257 287 L 259 287 L 257 286 Z M 260 287 L 260 288 L 262 288 L 260 287 Z M 277 287 L 276 290 L 277 290 L 277 287 Z M 263 288 L 263 289 L 265 289 L 263 288 Z M 266 289 L 266 290 L 268 290 L 266 289 Z M 415 291 L 414 300 L 415 300 L 415 291 Z M 425 302 L 425 303 L 438 303 L 425 302 Z " /><path fill="rgb(0,80,124)" stroke="rgb(0,80,124)" stroke-width="1" opacity="0.9803921568627451" d="M 357.5 118 L 385 118.5 L 385.5 120 L 395.5 119 L 396.5 121 L 403.5 120 L 406.5 122 L 409.5 121 L 412.5 123 L 414.5 122 L 415.5 123 L 419.5 123 L 424 124.5 L 424.5 126 L 427.5 125 L 428.5 127 L 431.5 126 L 432.5 128 L 434.5 127 L 435.5 129 L 437.5 128 L 438.5 130 L 440.5 129 L 442.5 131 L 443.5 130 L 445.5 132 L 447 131.5 L 447.5 133 L 449.5 132 L 450.5 134 L 452.5 133 L 453 133.5 L 451 135.5 L 452 136.5 L 447.5 141 L 443 144.5 L 444 145.5 L 440.5 149 L 437 151.5 L 438 152.5 L 435.5 155 L 432 157.5 L 432.5 159 L 418.5 154 L 415.5 154 L 414.5 153 L 411.5 153 L 402.5 150 L 398.5 150 L 397.5 149 L 392.5 149 L 391.5 148 L 385.5 148 L 384.5 147 L 372.5 147 L 371.5 146 L 352.5 146 L 351.5 147 L 337.5 147 L 336.5 148 L 328.5 148 L 327.5 149 L 315.5 150 L 314.5 151 L 305.5 152 L 304.5 153 L 293.5 155 L 289.5 157 L 286.5 157 L 271.5 162 L 268.5 164 L 263.5 165 L 258.5 168 L 256.5 168 L 234.5 179 L 222.5 187 L 219.5 187 Q 218.8 184.3 214.5 185 Q 213.3 187.3 208.5 186 Q 205.3 184.3 209 182.5 L 212.5 178 L 213.5 179 L 216 176.5 L 218.5 173 L 219.5 174 L 222 171.5 L 222.5 170 L 223.5 171 L 226 168.5 L 227.5 166 Q 228.8 168.3 230 165.5 L 230.5 164 Q 231.7 166.3 233 163.5 L 233.5 162 Q 234.8 164.3 236 161.5 L 237.5 159 L 239 159.5 L 239.5 158 L 242 157.5 L 242.5 156 Q 243.8 158.3 245 155.5 L 245.5 154 L 247 154.5 L 247.5 153 Q 248.8 155.3 250 152.5 L 250.5 151 L 252 151.5 L 252.5 150 Q 253.8 152.3 255 149.5 L 255.5 148 L 257 148.5 L 257.5 147 L 259 147.5 L 259.5 146 L 261 146.5 L 261.5 145 L 263 145.5 L 263.5 144 L 265 144.5 L 265.5 143 L 267 143.5 L 267.5 142 L 269 142.5 L 269.5 141 L 271 141.5 L 271.5 140 L 273 140.5 L 273.5 139 L 275.5 140 L 276.5 138 L 278 138.5 L 278.5 137 L 280 137.5 L 280.5 136 L 282.5 137 L 283.5 135 L 285 135.5 L 285.5 134 L 287.5 135 L 288.5 133 L 290 133.5 L 290.5 132 L 292.5 133 L 293.5 131 L 295.5 132 L 296.5 130 L 298.5 131 L 299.5 129 L 301.5 130 L 302.5 128 L 305.5 129 L 306.5 127 L 308.5 128 L 309.5 126 L 312.5 127 L 313.5 125 L 316.5 126 L 317.5 124 L 320.5 125 L 321.5 123 L 325.5 124 L 326.5 122 L 330.5 123 L 331.5 121 L 337.5 122 L 338.5 120 L 344.5 121 L 345.5 119 L 357.5 120 L 357.5 118 Z M 367 120 L 366 121 L 358 121 L 357 122 L 350 123 L 368 144 L 374 121 L 367 120 Z M 401 122 L 400 124 L 403 132 L 406 147 L 408 149 L 423 127 L 421 125 L 416 125 L 410 123 L 401 122 Z M 326 126 L 325 127 L 317 128 L 316 129 L 307 130 L 306 132 L 328 143 L 328 127 L 326 126 Z M 289 136 L 277 142 L 281 144 L 283 144 L 294 149 L 295 150 L 290 139 L 290 137 L 289 136 Z " /><path fill="rgb(0,80,124)" stroke="rgb(0,80,124)" stroke-width="1" opacity="0.9803921568627451" d="M 479.5 201 L 485.5 201 L 493 205.5 L 495 209.5 L 495 213.5 L 490.5 219 Q 487.3 221.3 480.5 220 Q 475.7 218.3 473 214.5 Q 471.2 212.3 472 207.5 L 476.5 202 L 479.5 201 Z M 482 209 L 478 213 L 478 215 Q 479 218 486 217 Q 489 216 488 212 L 485 209 L 482 209 Z " /><path fill="rgb(0,80,124)" stroke="rgb(0,80,124)" stroke-width="1" opacity="0.9803921568627451" d="M 82.5 204 L 88.5 204 L 89.5 205 L 104.5 205 L 105.5 204 L 115.5 204 Q 116.8 207.3 122.5 206 Q 123.5 204 127.5 205 L 128.5 207 L 135.5 206 L 136.5 208 L 141.5 207 L 142.5 209 L 146.5 208 L 147.5 210 L 150.5 209 L 151.5 211 L 154.5 210 L 155.5 212 L 157.5 211 Q 159 214.5 160.5 212 L 162 212.5 L 162.5 214 L 164 213.5 L 164.5 215 L 166.5 214 L 167.5 216 L 169 215.5 L 169.5 217 L 171 216.5 L 171.5 218 L 173 217.5 L 173.5 219 L 175 218.5 L 176.5 221 L 178 220.5 L 179 223.5 Q 172.8 227.3 170 234.5 Q 173.5 237.5 179.5 238 L 183 240.5 L 181 241.5 L 182 243.5 L 180 244.5 L 181 246.5 L 179 247.5 L 179.5 249 L 178 249.5 L 179 251.5 L 177 252.5 L 177.5 254 L 176 254.5 L 176.5 256 L 175 256.5 L 175.5 258 L 174 258.5 L 174.5 260 L 173 260.5 L 173.5 262 L 172 262.5 L 172.5 264 L 171 264.5 L 171.5 266 L 169 267.5 L 169.5 269 L 168 269.5 L 168.5 271 L 166 272.5 L 166.5 274 L 165 274.5 L 165.5 276 L 163 277.5 L 163.5 279 L 161 280.5 L 161.5 282 L 160 282.5 Q 162.3 283.8 159.5 285 L 158 285.5 Q 160.3 286.8 157.5 288 L 155 289.5 L 155.5 291 L 153 292.5 L 153.5 294 L 150 296.5 L 150.5 298 L 148 299.5 Q 150.2 300.8 147.5 302 L 145 303.5 L 146 304.5 L 143.5 307 L 140 309.5 L 141 310.5 L 137.5 314 L 135 312.5 L 135.5 311 L 134 310.5 L 134.5 309 L 133 308.5 L 133.5 307 L 132 306.5 L 132.5 305 L 131 304.5 L 131.5 303 L 130 302.5 L 130.5 301 L 129 300.5 L 129.5 299 L 128 298.5 L 128.5 297 L 127 296.5 L 127.5 295 L 126 294.5 L 126.5 293 L 125 292.5 L 125.5 291 L 124 290.5 L 124.5 289 L 123 288.5 L 123.5 287 L 122 286.5 L 122.5 285 L 121 284.5 L 121.5 283 L 120 282.5 L 120.5 281 L 119 280.5 L 119.5 279 L 118 278.5 L 118.5 277 L 117 276.5 L 117.5 275 L 116 274.5 L 116.5 273 L 115 272.5 L 115.5 271 L 114 270.5 L 114.5 269 L 113 268.5 L 113.5 267 L 112 266.5 L 112.5 265 L 111 264.5 L 111.5 263 L 110 262.5 L 110.5 261 L 109 260.5 L 109.5 259 L 108 258.5 L 108.5 257 L 107 256.5 L 107.5 255 L 106 254.5 L 106.5 253 L 105 252.5 L 105.5 251 L 104 250.5 L 104.5 249 L 103 248.5 L 103.5 247 L 102 246.5 L 102.5 245 L 101 244.5 L 102 242.5 L 100.5 240 L 99 240.5 L 100 238.5 L 95.5 230 L 94 229.5 L 94.5 228 L 93 227.5 L 93.5 226 L 92 225.5 L 92.5 224 L 91 223.5 L 91.5 222 L 90 221.5 L 90.5 220 L 89 219.5 L 89.5 218 L 88 217.5 L 88.5 216 L 87 215.5 L 87.5 214 L 86 213.5 L 86.5 212 L 85 211.5 L 85.5 210 L 84 209.5 L 84.5 208 L 83 207.5 L 84 205.5 L 82 205.5 L 82.5 204 Z M 97 218 L 96 219 L 113 235 L 124 234 L 125 233 L 131 233 L 132 232 L 139 232 L 140 231 L 146 231 L 147 230 L 153 230 L 154 229 L 161 229 L 165 228 L 160 227 L 159 226 L 153 226 L 152 225 L 138 224 L 137 223 L 130 223 L 129 222 L 115 221 L 114 220 L 99 219 L 97 218 Z M 162 235 L 158 237 L 151 238 L 147 240 L 136 242 L 132 244 L 121 246 L 118 248 L 126 258 L 131 256 L 138 251 L 143 249 L 165 236 L 162 235 Z M 168 246 L 134 272 L 137 280 L 138 287 L 140 291 L 141 298 L 143 298 L 169 247 L 168 246 Z " /><path fill="rgb(0,80,124)" stroke="rgb(0,80,124)" stroke-width="1" opacity="0.9803921568627451" d="M 233.5 257 L 245.5 261 L 248.5 261 L 252.5 263 L 259.5 264 L 263.5 266 L 278.5 269 L 281 270.5 L 279 271.5 L 279.5 273 L 278 273.5 L 279 275.5 L 277 276.5 L 278 278.5 L 276 279.5 L 277 281.5 L 275 282.5 L 276 284.5 L 274 284.5 L 275 287.5 L 271.5 289 L 270.5 287 L 268.5 288 L 267.5 286 L 265.5 287 L 264.5 285 L 262.5 286 L 261.5 284 L 258.5 285 L 257.5 283 L 255.5 284 L 254.5 282 L 252.5 283 L 251.5 281 L 248.5 282 L 247.5 280 L 244.5 281 L 243.5 279 L 240.5 280 L 239.5 278 L 236.5 279 L 235.5 277 L 232.5 278 L 231.5 276 L 228.5 277 L 227.5 275 L 225 273.5 L 227 272.5 L 226.5 271 L 228 270.5 L 227.5 269 L 229 268.5 L 228.5 267 L 230 266.5 L 229.5 265 L 231 264.5 L 230.5 263 L 232 262.5 L 231.5 261 L 233 260.5 L 232.5 259 L 234 258.5 L 233.5 257 Z " /><path fill="rgb(0,80,124)" stroke="rgb(0,80,124)" stroke-width="1" opacity="0.9803921568627451" d="M 419.5 271 L 421 271.5 L 427 280.5 L 426.5 282 L 428 282.5 Q 425.8 283.8 428.5 285 L 430 285.5 L 429.5 287 L 431 287.5 Q 428.8 288.8 431.5 290 L 433 290.5 L 432.5 292 L 434 292.5 L 433.5 294 L 435 294.5 Q 432.8 295.7 435.5 297 L 437 297.5 L 435.5 299 Q 432.3 298.3 431.5 300 L 418.5 300 L 417 297.5 Q 419.3 296.3 418 291.5 L 416 290.5 L 416 284.5 L 417 281.5 L 415 275.5 L 419.5 271 Z " /><path fill="rgb(3,131,68)" stroke="rgb(3,131,68)" stroke-width="1" opacity="0.996078431372549" d="M 469.5 246 L 488.5 246 L 489.5 247 L 497.5 247 L 498.5 248 L 513.5 249 L 514.5 250 L 527.5 251 L 528.5 252 L 540.5 253 L 541.5 254 Q 546.3 252.7 547.5 255 L 553.5 255 L 556 256.5 L 529.5 257 L 528.5 258 L 511.5 258 L 510.5 257 L 492.5 257 L 491.5 256 L 484.5 256 L 483.5 255 L 479.5 255 L 473.5 253 L 469 249.5 L 469.5 246 Z " /><path fill="rgb(0,136,141)" stroke="rgb(0,136,141)" stroke-width="1" opacity="0.996078431372549" d="M 351.5 119 L 358 119.5 L 351.5 120 L 351.5 119 Z " /><path fill="rgb(0,136,141)" stroke="rgb(0,136,141)" stroke-width="1" opacity="0.996078431372549" d="M 385.5 119 L 391 119.5 L 385.5 120 L 385.5 119 Z " /><path fill="rgb(0,136,141)" stroke="rgb(0,136,141)" stroke-width="1" opacity="0.996078431372549" d="M 341.5 120 L 345 120.5 L 341.5 121 L 341.5 120 Z " /><path fill="rgb(0,136,141)" stroke="rgb(0,136,141)" stroke-width="1" opacity="0.996078431372549" d="M 366.5 120 L 374 120.5 L 367.5 144 L 350 122.5 L 356.5 122 L 357.5 121 L 365.5 121 L 366.5 120 Z " /><path fill="rgb(0,136,141)" stroke="rgb(0,136,141)" stroke-width="1" opacity="0.996078431372549" d="M 396.5 120 L 400 120.5 L 396.5 121 L 396.5 120 Z " /><path fill="rgb(0,136,141)" stroke="rgb(0,136,141)" stroke-width="1" opacity="0.996078431372549" d="M 334.5 121 L 338 121.5 L 334.5 122 L 334.5 121 Z " /><path fill="rgb(0,136,141)" stroke="rgb(0,136,141)" stroke-width="1" opacity="0.996078431372549" d="M 400.5 122 L 409.5 123 L 415.5 125 L 420.5 125 L 423 126.5 L 407.5 149 L 406 146.5 L 403 131.5 L 400 123.5 L 400.5 122 Z " /><path fill="rgb(0,136,141)" stroke="rgb(0,136,141)" stroke-width="1" opacity="0.996078431372549" d="M 325.5 126 L 328 126.5 L 327.5 143 L 306 131.5 L 306.5 130 L 315.5 129 L 316.5 128 L 324.5 127 L 325.5 126 Z " /><path fill="rgb(0,136,141)" stroke="rgb(0,136,141)" stroke-width="1" opacity="0.996078431372549" d="M 450.5 133 L 453 134.5 L 449.5 138 L 449 137.5 L 452 134.5 L 451.5 134 Q 449.1 133.9 450.5 133 Z " /><path fill="rgb(0,136,141)" stroke="rgb(0,136,141)" stroke-width="1" opacity="0.996078431372549" d="M 288.5 136 L 290 136.5 L 290 138.5 L 295 149.5 L 293.5 149 L 282.5 144 L 280.5 144 L 277 141.5 L 288.5 136 Z " /><path fill="rgb(0,136,141)" stroke="rgb(0,136,141)" stroke-width="1" opacity="0.996078431372549" d="M 446.5 141 L 447 141.5 L 442.5 146 L 442 145.5 L 446.5 141 Z " /><path fill="rgb(0,136,141)" stroke="rgb(0,136,141)" stroke-width="1" opacity="0.996078431372549" d="M 352.5 146 L 371.5 146 L 372.5 147 L 384.5 147 L 385.5 148 L 391.5 148 L 392.5 149 L 402.5 150 L 403.5 151 L 418.5 154 L 428.5 158 L 431.5 158 L 434.5 155 L 435 155.5 L 432 158.5 L 433.5 160 L 440.5 162 L 463 172.5 L 443.5 183 L 428 197.5 L 421 209.5 L 418.5 219 Q 413.8 220.2 412.5 218 L 404.5 218 L 403.5 217 L 393.5 217 L 392.5 216 L 379.5 216 L 378.5 215 L 359.5 215 L 358.5 214 L 310.5 214 L 309.5 215 L 290.5 215 L 289.5 216 L 276.5 216 L 275.5 217 L 266.5 217 L 265.5 218 L 248.5 219 L 247.5 220 L 241.5 220 L 240.5 221 L 234.5 221 L 233.5 222 L 227.5 222 L 226.5 223 L 221.5 223 L 220.5 224 Q 215.8 222.7 214.5 225 L 209.5 225 L 208.5 226 L 204.5 226 L 203.5 227 L 189.5 229 L 188.5 230 L 180.5 231 L 179.5 232 L 171.5 233 L 170.5 234 L 170 233.5 L 172 231.5 L 179 222.5 L 178.5 221 L 180.5 222 L 200.5 203 L 213.5 193 L 220.5 189 L 224.5 185 L 256.5 168 L 258.5 168 L 263.5 165 L 268.5 164 L 271.5 162 L 286.5 157 L 289.5 157 L 293.5 155 L 296.5 155 L 305.5 152 L 309.5 152 L 315.5 150 L 320.5 150 L 321.5 149 L 327.5 149 L 328.5 148 L 336.5 148 L 337.5 147 L 351.5 147 L 352.5 146 Z M 336 153 L 335 154 L 328 155 L 323 160 L 322 163 L 323 166 L 330 172 L 338 176 L 341 176 L 340 174 L 338 174 L 330 170 L 324 164 L 325 160 L 328 157 L 334 156 L 335 155 L 343 155 L 344 156 Q 348 155 350 157 L 350 156 L 348 154 L 336 153 Z M 378 156 L 374 158 L 370 163 L 371 168 Q 377 176 388 179 L 388 178 L 378 172 L 372 166 L 373 161 L 378 158 Q 381 159 383 157 L 393 158 L 398 160 L 398 159 L 397 157 Q 393 158 393 156 L 378 156 Z M 301 168 L 293 171 L 289 176 Q 288 180 290 182 Q 296 189 308 191 L 308 190 L 300 187 L 295 184 L 291 180 L 291 176 L 295 172 L 301 170 L 313 170 L 315 171 L 315 170 L 312 168 L 301 168 Z M 414 169 L 413 170 Q 408 169 407 171 L 403 175 L 403 181 L 404 182 L 404 183 L 398 181 L 393 181 L 385 184 L 382 188 Q 381 192 383 195 Q 389 202 399 205 L 399 204 L 389 198 L 384 193 L 384 188 L 387 185 L 392 183 L 399 183 L 400 184 L 407 185 Q 411 190 419 193 L 419 192 L 410 186 L 409 185 L 408 184 L 404 178 L 405 175 L 409 172 Q 412 173 413 171 L 419 171 L 420 172 L 424 172 L 430 174 L 430 173 L 424 170 L 418 170 Q 417 168 414 169 Z M 362 174 L 361 175 L 354 176 L 349 181 Q 348 185 350 188 L 359 195 L 365 197 Q 366 199 367 197 L 356 191 L 351 186 L 351 181 L 354 178 L 360 176 L 367 176 Q 368 178 373 177 L 374 178 L 376 178 L 372 175 L 362 174 Z M 335 177 L 326 180 L 322 184 Q 321 188 323 191 L 329 196 L 337 200 L 340 200 L 339 198 L 337 198 L 329 194 L 324 189 L 324 184 L 330 180 Q 333 181 334 179 L 342 179 L 348 181 L 348 180 L 347 178 L 335 177 Z M 262 181 L 261 182 L 255 183 L 250 188 L 250 192 L 256 195 L 264 195 L 264 194 L 256 193 L 251 190 L 252 188 L 255 185 L 263 183 L 263 182 L 262 181 Z M 247 194 L 239 197 Q 235 199 235 204 L 239 207 L 242 208 L 249 208 L 249 207 L 241 206 L 239 205 Q 237 205 237 202 Q 240 197 248 196 L 248 195 L 247 194 Z M 216 199 L 212 201 L 207 207 L 208 210 L 212 212 Q 215 211 217 213 L 222 212 L 222 210 L 220 211 L 212 210 L 209 208 L 210 205 L 220 200 L 216 199 Z " /><path fill="rgb(0,136,141)" stroke="rgb(0,136,141)" stroke-width="1" opacity="0.996078431372549" d="M 439.5 149 L 440 149.5 L 436.5 153 L 436 152.5 L 439.5 149 Z " /><path fill="rgb(0,136,141)" stroke="rgb(0,136,141)" stroke-width="1" opacity="0.996078431372549" d="M 229.5 165 L 230 165.5 L 227.5 168 L 227 167.5 L 229.5 165 Z " /><path fill="rgb(0,136,141)" stroke="rgb(0,136,141)" stroke-width="1" opacity="0.996078431372549" d="M 225.5 168 L 226 168.5 L 223.5 171 L 223 170.5 L 225.5 168 Z " /><path fill="rgb(0,136,141)" stroke="rgb(0,136,141)" stroke-width="1" opacity="0.996078431372549" d="M 221.5 171 L 222 171.5 L 218.5 175 L 218 174.5 L 221.5 171 Z " /><path fill="rgb(0,136,141)" stroke="rgb(0,136,141)" stroke-width="1" opacity="0.996078431372549" d="M 215.5 176 L 216 176.5 L 212.5 180 L 212 179.5 L 215.5 176 Z " /><path fill="rgb(0,136,141)" stroke="rgb(0,136,141)" stroke-width="1" opacity="0.996078431372549" d="M 208.5 182 L 209 182.5 L 206.5 185 L 206 184.5 L 208.5 182 Z " /><path fill="rgb(0,136,141)" stroke="rgb(0,136,141)" stroke-width="1" opacity="0.996078431372549" d="M 214.5 185 L 218 185.5 L 214.5 186 L 214.5 185 Z " /><path fill="rgb(0,136,141)" stroke="rgb(0,136,141)" stroke-width="1" opacity="0.996078431372549" d="M 89.5 204 L 105 204.5 L 89.5 205 L 89.5 204 Z " /><path fill="rgb(0,136,141)" stroke="rgb(0,136,141)" stroke-width="1" opacity="0.996078431372549" d="M 117.5 205 L 123 205.5 L 117.5 206 L 117.5 205 Z " /><path fill="rgb(0,136,141)" stroke="rgb(0,136,141)" stroke-width="1" opacity="0.996078431372549" d="M 128.5 206 L 132 206.5 L 128.5 207 L 128.5 206 Z " /><path fill="rgb(0,136,141)" stroke="rgb(0,136,141)" stroke-width="1" opacity="0.996078431372549" d="M 136.5 207 L 139 207.5 L 136.5 208 L 136.5 207 Z " /><path fill="rgb(0,136,141)" stroke="rgb(0,136,141)" stroke-width="1" opacity="0.996078431372549" d="M 142.5 208 L 145 208.5 L 142.5 209 L 142.5 208 Z " /><path fill="rgb(0,136,141)" stroke="rgb(0,136,141)" stroke-width="1" opacity="0.996078431372549" d="M 96.5 218 L 98.5 219 L 113.5 220 L 114.5 221 L 128.5 222 L 129.5 223 L 136.5 223 L 137.5 224 L 151.5 225 L 152.5 226 L 158.5 226 L 159.5 227 L 165 227.5 L 160.5 229 L 153.5 229 L 152.5 230 L 146.5 230 L 145.5 231 L 139.5 231 L 138.5 232 L 131.5 232 L 130.5 233 L 124.5 233 L 123.5 234 L 112.5 235 L 96 218.5 L 96.5 218 Z " /><path fill="rgb(0,136,141)" stroke="rgb(0,136,141)" stroke-width="1" opacity="0.996078431372549" d="M 95.5 230 L 102 243.5 L 101 243.5 L 95 231.5 L 95.5 230 Z " /><path fill="rgb(0,136,141)" stroke="rgb(0,136,141)" stroke-width="1" opacity="0.996078431372549" d="M 161.5 235 L 165 235.5 L 142.5 249 L 137.5 251 L 130.5 256 L 125.5 258 L 118 247.5 L 120.5 246 L 131.5 244 L 135.5 242 L 146.5 240 L 150.5 238 L 157.5 237 L 161.5 235 Z " /><path fill="rgb(0,136,141)" stroke="rgb(0,136,141)" stroke-width="1" opacity="0.996078431372549" d="M 167.5 246 L 169 246.5 L 142.5 298 L 141 297.5 L 140 290.5 L 138 286.5 L 137 279.5 L 134 271.5 L 167.5 246 Z " /><path fill="rgb(0,136,141)" stroke="rgb(0,136,141)" stroke-width="1" opacity="0.996078431372549" d="M 225.5 274 L 228 275.5 L 225.5 276 L 225.5 274 Z " /><path fill="rgb(0,136,141)" stroke="rgb(0,136,141)" stroke-width="1" opacity="0.996078431372549" d="M 416.5 281 L 417 283.5 L 416 283.5 L 416.5 281 Z " /><path fill="rgb(0,136,141)" stroke="rgb(0,136,141)" stroke-width="1" opacity="0.996078431372549" d="M 417.5 291 L 418 296.5 L 417 296.5 L 417.5 291 Z " /><path fill="rgb(0,136,141)" stroke="rgb(0,136,141)" stroke-width="1" opacity="0.996078431372549" d="M 152.5 294 L 153 294.5 L 150.5 297 L 150 296.5 L 152.5 294 Z " /><path fill="rgb(0,136,141)" stroke="rgb(0,136,141)" stroke-width="1" opacity="0.996078431372549" d="M 149.5 298 L 150 298.5 L 147.5 301 L 147 300.5 L 149.5 298 Z " /><path fill="rgb(0,136,141)" stroke="rgb(0,136,141)" stroke-width="1" opacity="0.996078431372549" d="M 436.5 298 L 437 299.5 L 432.5 300 L 432.5 299 Q 435.8 299.8 436.5 298 Z " /><path fill="rgb(0,136,141)" stroke="rgb(0,136,141)" stroke-width="1" opacity="0.996078431372549" d="M 146.5 302 L 147 302.5 L 144.5 305 L 144 304.5 L 146.5 302 Z " /><path fill="rgb(0,136,141)" stroke="rgb(0,136,141)" stroke-width="1" opacity="0.996078431372549" d="M 142.5 307 L 143 307.5 L 139.5 311 L 139 310.5 L 142.5 307 Z " /><path fill="rgb(67,179,155)" stroke="rgb(67,179,155)" stroke-width="1" opacity="0.996078431372549" d="M 335.5 153 L 342 153.5 L 335.5 154 L 335.5 153 Z " /><path fill="rgb(67,179,155)" stroke="rgb(67,179,155)" stroke-width="1" opacity="0.996078431372549" d="M 343.5 155 L 346 155.5 L 343.5 156 L 343.5 155 Z " /><path fill="rgb(67,179,155)" stroke="rgb(67,179,155)" stroke-width="1" opacity="0.996078431372549" d="M 349.5 155 L 350 156.5 L 348.5 157 Q 347 156 349.5 155 Z " /><path fill="rgb(67,179,155)" stroke="rgb(67,179,155)" stroke-width="1" opacity="0.996078431372549" d="M 379.5 157 L 382 157.5 L 379.5 158 L 379.5 157 Z " /><path fill="rgb(67,179,155)" stroke="rgb(67,179,155)" stroke-width="1" opacity="0.996078431372549" d="M 387.5 157 L 390 157.5 L 387.5 158 L 387.5 157 Z " /><path fill="rgb(67,179,155)" stroke="rgb(67,179,155)" stroke-width="1" opacity="0.996078431372549" d="M 395.5 157 L 397 157.5 L 393.5 159 L 393.5 158 L 395.5 157 Z " /><path fill="rgb(67,179,155)" stroke="rgb(67,179,155)" stroke-width="1" opacity="0.996078431372549" d="M 373.5 158 Q 376 159 374.5 160 Q 373.3 157.8 372 160.5 L 372.5 162 L 371 160.5 L 373.5 158 Z " /><path fill="rgb(67,179,155)" stroke="rgb(67,179,155)" stroke-width="1" opacity="0.996078431372549" d="M 370.5 162 L 371 164.5 L 370 164.5 L 370.5 162 Z " /><path fill="rgb(67,179,155)" stroke="rgb(67,179,155)" stroke-width="1" opacity="0.996078431372549" d="M 300.5 168 L 303 168.5 L 300.5 169 L 300.5 168 Z " /><path fill="rgb(67,179,155)" stroke="rgb(67,179,155)" stroke-width="1" opacity="0.996078431372549" d="M 309.5 168 L 312 168.5 L 309.5 169 L 309.5 168 Z " /><path fill="rgb(67,179,155)" stroke="rgb(67,179,155)" stroke-width="1" opacity="0.996078431372549" d="M 413.5 169 L 417 169.5 L 413.5 170 L 413.5 169 Z " /><path fill="rgb(67,179,155)" stroke="rgb(67,179,155)" stroke-width="1" opacity="0.996078431372549" d="M 292.5 171 L 294 172.5 L 291.5 175 L 290 173.5 L 292.5 171 Z " /><path fill="rgb(67,179,155)" stroke="rgb(67,179,155)" stroke-width="1" opacity="0.996078431372549" d="M 361.5 174 L 366 174.5 L 361.5 175 L 361.5 174 Z " /><path fill="rgb(67,179,155)" stroke="rgb(67,179,155)" stroke-width="1" opacity="0.996078431372549" d="M 289.5 175 L 291 177.5 L 290 177.5 L 289.5 175 Z " /><path fill="rgb(67,179,155)" stroke="rgb(67,179,155)" stroke-width="1" opacity="0.996078431372549" d="M 367.5 176 L 370 176.5 L 367.5 177 L 367.5 176 Z " /><path fill="rgb(67,179,155)" stroke="rgb(67,179,155)" stroke-width="1" opacity="0.996078431372549" d="M 334.5 177 L 340 177.5 L 334.5 178 L 334.5 177 Z " /><path fill="rgb(67,179,155)" stroke="rgb(67,179,155)" stroke-width="1" opacity="0.996078431372549" d="M 404.5 178 L 405 179.5 Q 404 182 403 180.5 L 404.5 178 Z " /><path fill="rgb(67,179,155)" stroke="rgb(67,179,155)" stroke-width="1" opacity="0.996078431372549" d="M 349.5 180 Q 351.8 180.8 351 184.5 Q 350 187 349 185.5 Q 350.8 184.8 350 181.5 L 349.5 180 Z " /><path fill="rgb(67,179,155)" stroke="rgb(67,179,155)" stroke-width="1" opacity="0.996078431372549" d="M 261.5 181 L 263 181.5 L 262.5 183 Q 260 182 261.5 181 Z " /><path fill="rgb(67,179,155)" stroke="rgb(67,179,155)" stroke-width="1" opacity="0.996078431372549" d="M 392.5 181 L 398 181.5 L 392.5 182 L 392.5 181 Z " /><path fill="rgb(67,179,155)" stroke="rgb(67,179,155)" stroke-width="1" opacity="0.996078431372549" d="M 323.5 185 L 324 187.5 Q 323 190 322 188.5 L 323.5 185 Z " /><path fill="rgb(67,179,155)" stroke="rgb(67,179,155)" stroke-width="1" opacity="0.996078431372549" d="M 383.5 188 L 384 190.5 L 383 190.5 L 383.5 188 Z " /><path fill="rgb(67,179,155)" stroke="rgb(67,179,155)" stroke-width="1" opacity="0.996078431372549" d="M 250.5 191 L 251.5 192 L 253 191.5 L 251.5 193 Q 249 192 250.5 191 Z " /><path fill="rgb(67,179,155)" stroke="rgb(67,179,155)" stroke-width="1" opacity="0.996078431372549" d="M 258.5 193 L 264 193.5 L 263.5 195 Q 262.5 193 258.5 194 L 258.5 193 Z " /><path fill="rgb(67,179,155)" stroke="rgb(67,179,155)" stroke-width="1" opacity="0.996078431372549" d="M 246.5 194 L 248 194.5 L 247.5 196 Q 245 195 246.5 194 Z " /><path fill="rgb(67,179,155)" stroke="rgb(67,179,155)" stroke-width="1" opacity="0.996078431372549" d="M 238.5 197 L 240 198.5 L 237.5 201 L 236 199.5 L 238.5 197 Z " /><path fill="rgb(67,179,155)" stroke="rgb(67,179,155)" stroke-width="1" opacity="0.996078431372549" d="M 219.5 199 Q 221 200 218.5 201 L 217 200.5 L 219.5 199 Z " /><path fill="rgb(67,179,155)" stroke="rgb(67,179,155)" stroke-width="1" opacity="0.996078431372549" d="M 235.5 201 L 236 203.5 L 235 203.5 L 235.5 201 Z " /><path fill="rgb(67,179,155)" stroke="rgb(67,179,155)" stroke-width="1" opacity="0.996078431372549" d="M 398.5 203 L 399 204.5 L 397.5 205 Q 396 204 398.5 203 Z " /><path fill="rgb(67,179,155)" stroke="rgb(67,179,155)" stroke-width="1" opacity="0.996078431372549" d="M 243.5 206 L 248 206.5 L 243.5 207 L 243.5 206 Z " /><path fill="rgb(67,179,155)" stroke="rgb(67,179,155)" stroke-width="1" opacity="0.996078431372549" d="M 220.5 210 L 222 210.5 L 221.5 212 Q 219 211 220.5 210 Z " /><path fill="rgb(67,179,155)" stroke="rgb(67,179,155)" stroke-width="1" opacity="0.996078431372549" d="M 216.5 212 L 219 212.5 L 216.5 213 L 216.5 212 Z " /><path fill="rgb(67,179,155)" stroke="rgb(67,179,155)" stroke-width="1" opacity="0.996078431372549" d="M 310.5 214 L 327 214.5 L 310.5 215 L 310.5 214 Z " /><path fill="rgb(67,179,155)" stroke="rgb(67,179,155)" stroke-width="1" opacity="0.996078431372549" d="M 342.5 214 L 359 214.5 L 342.5 215 L 342.5 214 Z " /><path fill="rgb(67,179,155)" stroke="rgb(67,179,155)" stroke-width="1" opacity="0.996078431372549" d="M 290.5 215 L 297 215.5 L 290.5 216 L 290.5 215 Z " /><path fill="rgb(67,179,155)" stroke="rgb(67,179,155)" stroke-width="1" opacity="0.996078431372549" d="M 372.5 215 L 379 215.5 L 372.5 216 L 372.5 215 Z " /><path fill="rgb(67,179,155)" stroke="rgb(67,179,155)" stroke-width="1" opacity="0.996078431372549" d="M 276.5 216 L 281 216.5 L 276.5 217 L 276.5 216 Z " /><path fill="rgb(67,179,155)" stroke="rgb(67,179,155)" stroke-width="1" opacity="0.996078431372549" d="M 388.5 216 L 393 216.5 L 388.5 217 L 388.5 216 Z " /><path fill="rgb(67,179,155)" stroke="rgb(67,179,155)" stroke-width="1" opacity="0.996078431372549" d="M 266.5 217 L 270 217.5 L 266.5 218 L 266.5 217 Z " /><path fill="rgb(67,179,155)" stroke="rgb(67,179,155)" stroke-width="1" opacity="0.996078431372549" d="M 399.5 217 L 404 217.5 L 399.5 218 L 399.5 217 Z " /><path fill="rgb(67,179,155)" stroke="rgb(67,179,155)" stroke-width="1" opacity="0.996078431372549" d="M 256.5 218 L 260 218.5 L 256.5 219 L 256.5 218 Z " /><path fill="rgb(67,179,155)" stroke="rgb(67,179,155)" stroke-width="1" opacity="0.996078431372549" d="M 410.5 218 L 413 218.5 L 410.5 219 L 410.5 218 Z " /><path fill="rgb(67,179,155)" stroke="rgb(67,179,155)" stroke-width="1" opacity="0.996078431372549" d="M 248.5 219 L 251 219.5 L 248.5 220 L 248.5 219 Z " /><path fill="rgb(67,179,155)" stroke="rgb(67,179,155)" stroke-width="1" opacity="0.996078431372549" d="M 227.5 222 L 230 222.5 L 227.5 223 L 227.5 222 Z " /><path fill="rgb(67,179,155)" stroke="rgb(67,179,155)" stroke-width="1" opacity="0.996078431372549" d="M 209.5 225 L 212 225.5 L 209.5 226 L 209.5 225 Z " /><path fill="rgb(67,179,155)" stroke="rgb(67,179,155)" stroke-width="1" opacity="0.996078431372549" d="M 473.5 245 L 477 245.5 L 473.5 246 L 473.5 245 Z " /><path fill="rgb(67,179,155)" stroke="rgb(67,179,155)" stroke-width="1" opacity="0.996078431372549" d="M 505.5 257 L 511 257.5 L 505.5 258 L 505.5 257 Z " /><path fill="rgb(67,179,155)" stroke="rgb(67,179,155)" stroke-width="1" opacity="0.996078431372549" d="M 529.5 257 L 537 257.5 L 529.5 258 L 529.5 257 Z " /><path fill="rgb(132,197,185)" stroke="rgb(132,197,185)" stroke-width="1" opacity="0.996078431372549" d="M 345.5 154 L 347 154.5 L 346.5 156 Q 344 155 345.5 154 Z " /><path fill="rgb(132,197,185)" stroke="rgb(132,197,185)" stroke-width="1" opacity="0.996078431372549" d="M 378.5 156 L 380 156.5 Q 379 159 378 157.5 L 378.5 156 Z " /><path fill="rgb(132,197,185)" stroke="rgb(132,197,185)" stroke-width="1" opacity="0.996078431372549" d="M 390.5 156 Q 393 157 391.5 158 L 390 157.5 L 390.5 156 Z " /><path fill="rgb(132,197,185)" stroke="rgb(132,197,185)" stroke-width="1" opacity="0.996078431372549" d="M 324.5 166 L 328 168.5 L 327.5 169 L 325.5 167 Q 323.1 166.9 324.5 166 Z " /><path fill="rgb(132,197,185)" stroke="rgb(132,197,185)" stroke-width="1" opacity="0.996078431372549" d="M 303.5 168 Q 308.8 166.8 310 169.5 L 302.5 170 Q 301 169 303.5 168 Z " /><path fill="rgb(132,197,185)" stroke="rgb(132,197,185)" stroke-width="1" opacity="0.996078431372549" d="M 374.5 169 L 377 172.5 L 376 172.5 L 374 169.5 L 374.5 169 Z " /><path fill="rgb(132,197,185)" stroke="rgb(132,197,185)" stroke-width="1" opacity="0.996078431372549" d="M 409.5 170 L 411 170.5 Q 410 173 409 171.5 L 409.5 170 Z " /><path fill="rgb(132,197,185)" stroke="rgb(132,197,185)" stroke-width="1" opacity="0.996078431372549" d="M 421.5 170 Q 424 171 422.5 172 L 421 171.5 L 421.5 170 Z " /><path fill="rgb(132,197,185)" stroke="rgb(132,197,185)" stroke-width="1" opacity="0.996078431372549" d="M 428.5 172 Q 431 173 429.5 174 L 428 173.5 L 428.5 172 Z " /><path fill="rgb(132,197,185)" stroke="rgb(132,197,185)" stroke-width="1" opacity="0.996078431372549" d="M 369.5 175 L 371 175.5 L 370.5 177 Q 368 176 369.5 175 Z " /><path fill="rgb(132,197,185)" stroke="rgb(132,197,185)" stroke-width="1" opacity="0.996078431372549" d="M 289.5 176 L 291 178.5 L 289.5 179 L 289.5 176 Z " /><path fill="rgb(132,197,185)" stroke="rgb(132,197,185)" stroke-width="1" opacity="0.996078431372549" d="M 352.5 177 L 353 178.5 Q 352 181 351 179.5 L 352.5 177 Z " /><path fill="rgb(132,197,185)" stroke="rgb(132,197,185)" stroke-width="1" opacity="0.996078431372549" d="M 291.5 182 L 294 184.5 L 293.5 185 L 291 182.5 L 291.5 182 Z " /><path fill="rgb(132,197,185)" stroke="rgb(132,197,185)" stroke-width="1" opacity="0.996078431372549" d="M 252.5 186 Q 254 187 251.5 188 L 250 187.5 L 252.5 186 Z " /><path fill="rgb(132,197,185)" stroke="rgb(132,197,185)" stroke-width="1" opacity="0.996078431372549" d="M 351.5 188 L 355 191.5 L 354.5 192 L 351 188.5 L 351.5 188 Z " /><path fill="rgb(132,197,185)" stroke="rgb(132,197,185)" stroke-width="1" opacity="0.996078431372549" d="M 306.5 189 Q 309 190 307.5 191 L 306 190.5 L 306.5 189 Z " /><path fill="rgb(132,197,185)" stroke="rgb(132,197,185)" stroke-width="1" opacity="0.996078431372549" d="M 256.5 193 L 259 194.5 L 257.5 195 Q 255 194 256.5 193 Z " /><path fill="rgb(132,197,185)" stroke="rgb(132,197,185)" stroke-width="1" opacity="0.996078431372549" d="M 385.5 196 L 388 198.5 L 387.5 199 L 385 196.5 L 385.5 196 Z " /><path fill="rgb(132,197,185)" stroke="rgb(132,197,185)" stroke-width="1" opacity="0.996078431372549" d="M 242.5 206 Q 245 207 243.5 208 L 242 207.5 L 242.5 206 Z " /><path fill="rgb(132,197,185)" stroke="rgb(132,197,185)" stroke-width="1" opacity="0.996078431372549" d="M 327.5 214 L 342 214.5 L 327.5 215 L 327.5 214 Z " /><path fill="rgb(132,197,185)" stroke="rgb(132,197,185)" stroke-width="1" opacity="0.996078431372549" d="M 297.5 215 L 302 215.5 L 297.5 216 L 297.5 215 Z " /><path fill="rgb(132,197,185)" stroke="rgb(132,197,185)" stroke-width="1" opacity="0.996078431372549" d="M 366.5 215 L 372 215.5 L 366.5 216 L 366.5 215 Z " /><path fill="rgb(132,197,185)" stroke="rgb(132,197,185)" stroke-width="1" opacity="0.996078431372549" d="M 281.5 216 L 286 216.5 L 281.5 217 L 281.5 216 Z " /><path fill="rgb(132,197,185)" stroke="rgb(132,197,185)" stroke-width="1" opacity="0.996078431372549" d="M 383.5 216 L 388 216.5 L 383.5 217 L 383.5 216 Z " /><path fill="rgb(132,197,185)" stroke="rgb(132,197,185)" stroke-width="1" opacity="0.996078431372549" d="M 270.5 217 L 273 217.5 L 270.5 218 L 270.5 217 Z " /><path fill="rgb(132,197,185)" stroke="rgb(132,197,185)" stroke-width="1" opacity="0.996078431372549" d="M 396.5 217 L 399 217.5 L 396.5 218 L 396.5 217 Z " /><path fill="rgb(132,197,185)" stroke="rgb(132,197,185)" stroke-width="1" opacity="0.996078431372549" d="M 260.5 218 L 263 218.5 L 260.5 219 L 260.5 218 Z " /><path fill="rgb(132,197,185)" stroke="rgb(132,197,185)" stroke-width="1" opacity="0.996078431372549" d="M 407.5 218 L 410 218.5 L 407.5 219 L 407.5 218 Z " /><path fill="rgb(132,197,185)" stroke="rgb(132,197,185)" stroke-width="1" opacity="0.996078431372549" d="M 251.5 219 L 254 219.5 L 251.5 220 L 251.5 219 Z " /><path fill="rgb(132,197,185)" stroke="rgb(132,197,185)" stroke-width="1" opacity="0.996078431372549" d="M 416.5 219 L 419 219.5 L 416.5 220 L 416.5 219 Z " /><path fill="rgb(132,197,185)" stroke="rgb(132,197,185)" stroke-width="1" opacity="0.996078431372549" d="M 243.5 220 L 246 220.5 L 243.5 221 L 243.5 220 Z " /><path fill="rgb(132,197,185)" stroke="rgb(132,197,185)" stroke-width="1" opacity="0.996078431372549" d="M 483.5 220 L 486 220.5 L 483.5 221 L 483.5 220 Z " /><path fill="rgb(169,209,110)" stroke="rgb(169,209,110)" stroke-width="1" opacity="0.996078431372549" d="M 461.5 174 L 467.5 176 L 495.5 194 L 518.5 212 L 535.5 229 Q 536.8 226.8 538 229.5 L 537 230.5 L 541 234.5 L 542.5 237 L 544 236.5 L 543 237.5 L 546 240.5 L 552.5 250 Q 553.7 247.7 555 250.5 L 554 252.5 L 554.5 254 L 549.5 255 L 549.5 253 Q 545.3 252.3 543.5 254 L 543.5 252 Q 539.3 251.3 537.5 253 L 536.5 251 Q 532.3 250.3 530.5 252 L 530.5 250 Q 526.3 249.3 524.5 251 L 523.5 249 Q 519.3 248.3 517.5 250 L 516.5 248 Q 511.7 247.2 509.5 249 L 509.5 247 L 504.5 247 L 501.5 248 L 501.5 246 Q 496 245 493.5 247 L 492.5 245 L 485.5 245 L 482.5 246 L 481.5 244 L 471 244.5 L 470.5 246 Q 469.3 243.8 468 246.5 L 469 248.5 L 468.5 250 L 471 251.5 L 472.5 254 L 476.5 255 L 478 254.5 L 477.5 256 L 481.5 255 L 482.5 257 L 487.5 256 L 488.5 258 L 499.5 257 L 499.5 259 L 540 259.5 Q 538.8 262.3 537.5 260 L 535 260.5 L 534.5 262 L 531.5 261 Q 530 264.5 528.5 262 L 521.5 263 L 520.5 264 L 516.5 264 L 515.5 265 L 511.5 265 L 509.5 267 L 506.5 266 Q 505 269.5 503.5 267 L 500 267.5 L 499.5 269 Q 498.7 267.2 495.5 268 Q 494 271.5 492.5 269 Q 488.3 268.3 487.5 271 Q 486.8 269.2 483.5 270 Q 482 273.5 480.5 271 Q 476.3 270.3 475.5 273 Q 474.5 271 470.5 272 L 470.5 274 L 464.5 273 Q 463 276.5 461.5 274 Q 456.5 273 455.5 276 Q 454.5 274 450.5 275 Q 449 278.5 447.5 276 L 443.5 276 L 440.5 278 Q 439.5 276 435.5 277 L 434.5 279 L 432 276.5 L 427 266.5 L 427 264.5 L 421 250.5 L 421 247.5 L 419 242.5 L 419 238.5 L 418 237.5 L 418 221.5 L 424 204.5 Q 430.5 193.5 440.5 186 Q 449.9 178.9 461.5 174 Z M 478 196 L 473 198 L 466 206 L 466 213 L 469 219 L 475 223 L 480 225 L 491 225 L 495 223 L 501 216 L 501 209 L 499 205 Q 496 199 490 197 L 487 196 L 478 196 Z " /><path fill="rgb(169,209,110)" stroke="rgb(169,209,110)" stroke-width="1" opacity="0.996078431372549" d="M 544.5 257 L 548 257.5 L 547.5 259 L 544.5 258 L 544.5 257 Z " /><path fill="rgb(180,210,200)" stroke="rgb(180,210,200)" stroke-width="1" opacity="0.996078431372549" d="M 332.5 154 L 345 154.5 L 332.5 155 L 332.5 154 Z " /><path fill="rgb(180,210,200)" stroke="rgb(180,210,200)" stroke-width="1" opacity="0.996078431372549" d="M 327.5 156 Q 329 157 326.5 158 L 325 158.5 L 323.5 164 L 323 160.5 L 325.5 157 L 327.5 156 Z " /><path fill="rgb(180,210,200)" stroke="rgb(180,210,200)" stroke-width="1" opacity="0.996078431372549" d="M 380.5 156 L 390 156.5 L 380.5 157 L 380.5 156 Z " /><path fill="rgb(180,210,200)" stroke="rgb(180,210,200)" stroke-width="1" opacity="0.996078431372549" d="M 376.5 157 L 378 157.5 L 372 161.5 L 372 166.5 L 376 171.5 L 375.5 172 L 373 169.5 L 371 166.5 L 371 161.5 L 376.5 157 Z " /><path fill="rgb(180,210,200)" stroke="rgb(180,210,200)" stroke-width="1" opacity="0.996078431372549" d="M 392.5 157 L 395 157.5 L 392.5 158 L 392.5 157 Z " /><path fill="rgb(180,210,200)" stroke="rgb(180,210,200)" stroke-width="1" opacity="0.996078431372549" d="M 325.5 167 L 333 172.5 L 331.5 172 Q 326.5 170.5 325.5 167 Z " /><path fill="rgb(180,210,200)" stroke="rgb(180,210,200)" stroke-width="1" opacity="0.996078431372549" d="M 298.5 169 L 302 169.5 L 298.5 170 L 298.5 169 Z " /><path fill="rgb(180,210,200)" stroke="rgb(180,210,200)" stroke-width="1" opacity="0.996078431372549" d="M 310.5 169 L 314 169.5 L 310.5 170 L 310.5 169 Z " /><path fill="rgb(180,210,200)" stroke="rgb(180,210,200)" stroke-width="1" opacity="0.996078431372549" d="M 295.5 170 L 297 170.5 L 291 174.5 L 290.5 176 L 290 174.5 L 295.5 170 Z " /><path fill="rgb(180,210,200)" stroke="rgb(180,210,200)" stroke-width="1" opacity="0.996078431372549" d="M 411.5 170 L 421 170.5 L 411.5 171 L 411.5 170 Z " /><path fill="rgb(180,210,200)" stroke="rgb(180,210,200)" stroke-width="1" opacity="0.996078431372549" d="M 407.5 171 L 409 171.5 L 404 175.5 Q 403.3 179.7 405 181.5 L 411.5 188 L 414 189.5 L 412.5 189 L 407.5 185 L 402 183.5 L 405 182.5 Q 402.2 180.8 403 175.5 L 407.5 171 Z " /><path fill="rgb(180,210,200)" stroke="rgb(180,210,200)" stroke-width="1" opacity="0.996078431372549" d="M 377.5 172 L 379.5 174 L 387 177.5 L 385.5 178 L 379.5 175 L 377 172.5 L 377.5 172 Z " /><path fill="rgb(180,210,200)" stroke="rgb(180,210,200)" stroke-width="1" opacity="0.996078431372549" d="M 334.5 173 L 338 174.5 L 336.5 175 L 334 173.5 L 334.5 173 Z " /><path fill="rgb(180,210,200)" stroke="rgb(180,210,200)" stroke-width="1" opacity="0.996078431372549" d="M 358.5 175 L 369 175.5 L 358.5 176 L 358.5 175 Z " /><path fill="rgb(180,210,200)" stroke="rgb(180,210,200)" stroke-width="1" opacity="0.996078431372549" d="M 354.5 176 L 357 176.5 L 353.5 178 Q 352 177 354.5 176 Z " /><path fill="rgb(180,210,200)" stroke="rgb(180,210,200)" stroke-width="1" opacity="0.996078431372549" d="M 371.5 176 L 374 176.5 L 371.5 177 L 371.5 176 Z " /><path fill="rgb(180,210,200)" stroke="rgb(180,210,200)" stroke-width="1" opacity="0.996078431372549" d="M 331.5 178 L 344 178.5 L 331.5 179 L 331.5 178 Z " /><path fill="rgb(180,210,200)" stroke="rgb(180,210,200)" stroke-width="1" opacity="0.996078431372549" d="M 351.5 178 L 351 179.5 L 350 184.5 L 357 192.5 L 356.5 193 L 350 186.5 L 349 181.5 L 351.5 178 Z " /><path fill="rgb(180,210,200)" stroke="rgb(180,210,200)" stroke-width="1" opacity="0.996078431372549" d="M 290.5 179 L 296 185.5 L 295.5 186 L 290 180.5 L 290.5 179 Z " /><path fill="rgb(180,210,200)" stroke="rgb(180,210,200)" stroke-width="1" opacity="0.996078431372549" d="M 328.5 179 L 330 179.5 Q 325.7 180.7 323.5 184 L 323 183.5 L 326.5 180 L 328.5 179 Z " /><path fill="rgb(180,210,200)" stroke="rgb(180,210,200)" stroke-width="1" opacity="0.996078431372549" d="M 345.5 179 L 348 179.5 L 345.5 180 L 345.5 179 Z " /><path fill="rgb(180,210,200)" stroke="rgb(180,210,200)" stroke-width="1" opacity="0.996078431372549" d="M 259.5 182 L 262 182.5 L 259.5 183 L 259.5 182 Z " /><path fill="rgb(180,210,200)" stroke="rgb(180,210,200)" stroke-width="1" opacity="0.996078431372549" d="M 390.5 182 L 401 182.5 L 390.5 183 L 390.5 182 Z " /><path fill="rgb(180,210,200)" stroke="rgb(180,210,200)" stroke-width="1" opacity="0.996078431372549" d="M 254.5 184 Q 256 185 253.5 186 L 251.5 187 Q 250 186 252.5 185 L 254.5 184 Z " /><path fill="rgb(180,210,200)" stroke="rgb(180,210,200)" stroke-width="1" opacity="0.996078431372549" d="M 385.5 184 L 386 184.5 L 383.5 187 L 383 186.5 L 385.5 184 Z " /><path fill="rgb(180,210,200)" stroke="rgb(180,210,200)" stroke-width="1" opacity="0.996078431372549" d="M 250.5 188 L 252.5 192 L 256 193.5 L 254.5 194 L 250 190.5 L 250.5 188 Z " /><path fill="rgb(180,210,200)" stroke="rgb(180,210,200)" stroke-width="1" opacity="0.996078431372549" d="M 323.5 188 L 329.5 195 L 332 196.5 L 330.5 196 L 325 192.5 L 323 189.5 L 323.5 188 Z " /><path fill="rgb(180,210,200)" stroke="rgb(180,210,200)" stroke-width="1" opacity="0.996078431372549" d="M 382.5 188 L 383 190.5 L 382 190.5 L 382.5 188 Z " /><path fill="rgb(180,210,200)" stroke="rgb(180,210,200)" stroke-width="1" opacity="0.996078431372549" d="M 383.5 192 L 390 199.5 L 389.5 200 L 383 193.5 L 383.5 192 Z " /><path fill="rgb(180,210,200)" stroke="rgb(180,210,200)" stroke-width="1" opacity="0.996078431372549" d="M 358.5 193 L 361 194.5 L 359.5 195 Q 357 194 358.5 193 Z " /><path fill="rgb(180,210,200)" stroke="rgb(180,210,200)" stroke-width="1" opacity="0.996078431372549" d="M 259.5 194 L 263 194.5 L 259.5 195 L 259.5 194 Z " /><path fill="rgb(180,210,200)" stroke="rgb(180,210,200)" stroke-width="1" opacity="0.996078431372549" d="M 244.5 195 L 247 195.5 L 244.5 196 L 244.5 195 Z " /><path fill="rgb(180,210,200)" stroke="rgb(180,210,200)" stroke-width="1" opacity="0.996078431372549" d="M 241.5 196 L 243 196.5 L 237 200.5 L 236.5 202 L 236 200.5 L 241.5 196 Z " /><path fill="rgb(180,210,200)" stroke="rgb(180,210,200)" stroke-width="1" opacity="0.996078431372549" d="M 333.5 197 L 337 198.5 L 335.5 199 L 333 197.5 L 333.5 197 Z " /><path fill="rgb(180,210,200)" stroke="rgb(180,210,200)" stroke-width="1" opacity="0.996078431372549" d="M 214.5 200 L 216 200.5 Q 211.3 201.8 209 205.5 Q 208.3 209.3 210.5 210 L 212 210.5 L 210.5 211 Q 207.3 210.3 208 205.5 L 214.5 200 Z " /><path fill="rgb(180,210,200)" stroke="rgb(180,210,200)" stroke-width="1" opacity="0.996078431372549" d="M 391.5 200 L 398 203.5 L 396.5 204 L 392.5 202 Q 390 201 391.5 200 Z " /><path fill="rgb(180,210,200)" stroke="rgb(180,210,200)" stroke-width="1" opacity="0.996078431372549" d="M 481.5 200 L 484 200.5 L 481.5 201 L 481.5 200 Z " /><path fill="rgb(180,210,200)" stroke="rgb(180,210,200)" stroke-width="1" opacity="0.996078431372549" d="M 236.5 203 Q 237.8 206.3 242 206.5 L 239.5 207 L 236 203.5 L 236.5 203 Z " /><path fill="rgb(180,210,200)" stroke="rgb(180,210,200)" stroke-width="1" opacity="0.996078431372549" d="M 244.5 207 L 248 207.5 L 244.5 208 L 244.5 207 Z " /><path fill="rgb(180,210,200)" stroke="rgb(180,210,200)" stroke-width="1" opacity="0.996078431372549" d="M 495.5 210 L 496 212.5 L 495 212.5 L 495.5 210 Z " /><path fill="rgb(180,210,200)" stroke="rgb(180,210,200)" stroke-width="1" opacity="0.996078431372549" d="M 213.5 211 L 221 211.5 L 213.5 212 L 213.5 211 Z " /><path fill="rgb(180,210,200)" stroke="rgb(180,210,200)" stroke-width="1" opacity="0.996078431372549" d="M 302.5 215 L 365.5 215 L 366.5 216 L 382.5 216 L 383.5 217 L 406.5 218 L 407.5 219 L 415.5 219 L 419 220.5 L 418 221.5 L 418 237.5 L 419 238.5 L 419 242.5 L 420 243.5 L 420 246.5 L 421 247.5 L 421 250.5 L 423 256.5 L 425 259.5 L 427 266.5 L 432 276.5 L 434 278.5 L 429.5 279 L 428.5 280 L 425 277.5 L 420.5 270 L 415 274.5 L 414.5 281 L 404.5 281 L 403.5 282 L 360.5 282 L 359.5 281 L 348.5 281 L 347.5 280 L 338.5 280 L 337.5 279 L 323.5 278 L 322.5 277 L 317.5 277 L 316.5 276 L 305.5 275 L 304.5 274 L 290.5 272 L 285.5 270 L 281.5 270 L 277.5 268 L 274.5 268 L 273.5 267 L 258.5 264 L 247.5 260 L 244.5 260 L 237.5 257 L 233.5 257 L 197.5 245 L 194.5 243 L 183.5 240 L 181.5 238 Q 175.8 237.8 173 234.5 L 174.5 233 L 178.5 233 L 183.5 231 L 192.5 230 L 197.5 228 L 202.5 228 L 203.5 227 L 207.5 227 L 213.5 225 L 218.5 225 L 219.5 224 Q 224.2 225.2 225.5 223 L 231.5 223 L 232.5 222 Q 237.3 223.3 238.5 221 L 245.5 221 L 246.5 220 L 253.5 220 L 254.5 219 L 262.5 219 L 263.5 218 L 272.5 218 L 273.5 217 L 285.5 217 L 286.5 216 L 301.5 216 L 302.5 215 Z " /><path fill="rgb(190,221,121)" stroke="rgb(190,221,121)" stroke-width="1" opacity="0.9450980392156862" d="M 464.5 173 L 476.5 180 L 509.5 203 L 522.5 214 L 536 227.5 L 537.5 230 L 539 230.5 L 543.5 237 L 545 237.5 L 558 255.5 L 556.5 255 L 551 254.5 L 555 253.5 Q 539.7 229.8 518.5 212 L 495.5 194 L 477.5 182 L 464 174.5 L 464.5 173 Z " /><path fill="rgb(190,221,121)" stroke="rgb(190,221,121)" stroke-width="1" opacity="0.9450980392156862" d="M 471.5 244 L 482 244.5 L 471.5 245 L 471.5 244 Z " /><path fill="rgb(190,221,121)" stroke="rgb(190,221,121)" stroke-width="1" opacity="0.9450980392156862" d="M 485.5 245 L 493 245.5 L 485.5 246 L 485.5 245 Z " /><path fill="rgb(190,221,121)" stroke="rgb(190,221,121)" stroke-width="1" opacity="0.9450980392156862" d="M 495.5 246 L 502 246.5 L 495.5 247 L 495.5 246 Z " /><path fill="rgb(190,221,121)" stroke="rgb(190,221,121)" stroke-width="1" opacity="0.9450980392156862" d="M 504.5 247 L 510 247.5 L 504.5 248 L 504.5 247 Z " /><path fill="rgb(190,221,121)" stroke="rgb(190,221,121)" stroke-width="1" opacity="0.9450980392156862" d="M 511.5 248 L 517 248.5 L 511.5 249 L 511.5 248 Z " /><path fill="rgb(190,221,121)" stroke="rgb(190,221,121)" stroke-width="1" opacity="0.9450980392156862" d="M 519.5 249 L 524 249.5 L 519.5 250 L 519.5 249 Z " /><path fill="rgb(190,221,121)" stroke="rgb(190,221,121)" stroke-width="1" opacity="0.9450980392156862" d="M 526.5 250 L 531 250.5 L 526.5 251 L 526.5 250 Z " /><path fill="rgb(190,221,121)" stroke="rgb(190,221,121)" stroke-width="1" opacity="0.9450980392156862" d="M 532.5 251 L 537 251.5 L 532.5 252 L 532.5 251 Z " /><path fill="rgb(190,221,121)" stroke="rgb(190,221,121)" stroke-width="1" opacity="0.9450980392156862" d="M 471.5 252 L 474.5 254 L 480 255.5 L 477.5 256 L 472.5 254 Q 470 253 471.5 252 Z " /><path fill="rgb(190,221,121)" stroke="rgb(190,221,121)" stroke-width="1" opacity="0.9450980392156862" d="M 539.5 252 L 544 252.5 L 539.5 253 L 539.5 252 Z " /><path fill="rgb(190,221,121)" stroke="rgb(190,221,121)" stroke-width="1" opacity="0.9450980392156862" d="M 545.5 253 L 550 253.5 L 545.5 254 L 545.5 253 Z " /><path fill="rgb(190,221,121)" stroke="rgb(190,221,121)" stroke-width="1" opacity="0.9450980392156862" d="M 482.5 256 L 486 256.5 L 482.5 257 L 482.5 256 Z " /><path fill="rgb(190,221,121)" stroke="rgb(190,221,121)" stroke-width="1" opacity="0.9450980392156862" d="M 488.5 257 L 495 257.5 L 488.5 258 L 488.5 257 Z " /><path fill="rgb(190,221,121)" stroke="rgb(190,221,121)" stroke-width="1" opacity="0.9450980392156862" d="M 548.5 257 L 554 257.5 L 548.5 259 L 548.5 257 Z " /><path fill="rgb(190,221,121)" stroke="rgb(190,221,121)" stroke-width="1" opacity="0.9450980392156862" d="M 499.5 258 L 547 258.5 L 545.5 260 L 539.5 261 L 539.5 259 L 499.5 259 L 499.5 258 Z " /><path fill="rgb(190,221,121)" stroke="rgb(190,221,121)" stroke-width="1" opacity="0.9450980392156862" d="M 535.5 260 L 538 260.5 L 535.5 262 L 535.5 260 Z " /><path fill="rgb(190,221,121)" stroke="rgb(190,221,121)" stroke-width="1" opacity="0.9450980392156862" d="M 531.5 261 L 534 261.5 Q 533.5 263.5 530.5 263 Q 529 262 531.5 261 Z " /><path fill="rgb(190,221,121)" stroke="rgb(190,221,121)" stroke-width="1" opacity="0.9450980392156862" d="M 526.5 262 L 529 262.5 L 527.5 264 L 523.5 264 L 522.5 265 L 518.5 265 L 517.5 266 L 510.5 267 Q 509 266 511.5 265 L 515.5 265 L 516.5 264 L 520.5 264 L 526.5 262 Z " /><path fill="rgb(190,221,121)" stroke="rgb(190,221,121)" stroke-width="1" opacity="0.9450980392156862" d="M 506.5 266 L 509 266.5 Q 508.5 268.5 505.5 268 Q 504 267 506.5 266 Z " /><path fill="rgb(190,221,121)" stroke="rgb(190,221,121)" stroke-width="1" opacity="0.9450980392156862" d="M 500.5 267 L 504 267.5 L 500.5 269 L 500.5 267 Z " /><path fill="rgb(190,221,121)" stroke="rgb(190,221,121)" stroke-width="1" opacity="0.9450980392156862" d="M 495.5 268 L 499 268.5 L 494.5 270 Q 493 269 495.5 268 Z " /><path fill="rgb(190,221,121)" stroke="rgb(190,221,121)" stroke-width="1" opacity="0.9450980392156862" d="M 489.5 269 L 493 269.5 L 488.5 271 Q 487 270 489.5 269 Z " /><path fill="rgb(190,221,121)" stroke="rgb(190,221,121)" stroke-width="1" opacity="0.9450980392156862" d="M 483.5 270 L 487 270.5 L 482.5 272 Q 481 271 483.5 270 Z " /><path fill="rgb(190,221,121)" stroke="rgb(190,221,121)" stroke-width="1" opacity="0.9450980392156862" d="M 477.5 271 L 481 271.5 L 476.5 273 Q 475 272 477.5 271 Z " /><path fill="rgb(190,221,121)" stroke="rgb(190,221,121)" stroke-width="1" opacity="0.9450980392156862" d="M 470.5 272 L 475 272.5 L 471.5 274 Q 469 273 470.5 272 Z " /><path fill="rgb(190,221,121)" stroke="rgb(190,221,121)" stroke-width="1" opacity="0.9450980392156862" d="M 464.5 273 L 468 273.5 L 463.5 275 Q 462 274 464.5 273 Z " /><path fill="rgb(190,221,121)" stroke="rgb(190,221,121)" stroke-width="1" opacity="0.9450980392156862" d="M 457.5 274 L 462 274.5 Q 460.6 276.6 456.5 276 Q 455 275 457.5 274 Z " /><path fill="rgb(190,221,121)" stroke="rgb(190,221,121)" stroke-width="1" opacity="0.9450980392156862" d="M 450.5 275 L 455 275.5 Q 453.6 277.6 449.5 277 Q 448 276 450.5 275 Z " /><path fill="rgb(190,221,121)" stroke="rgb(190,221,121)" stroke-width="1" opacity="0.9450980392156862" d="M 443.5 276 L 448 276.5 L 442.5 278 Q 441 277 443.5 276 Z " /><path fill="rgb(190,221,121)" stroke="rgb(190,221,121)" stroke-width="1" opacity="0.9450980392156862" d="M 435.5 277 L 440 277.5 L 435.5 279 L 435.5 277 Z " /><path fill="rgb(247,251,248)" stroke="rgb(247,251,248)" stroke-width="1" opacity="0.9803921568627451" d="M 478.5 196 L 484.5 196 Q 485.3 197.7 488.5 197 L 494.5 200 L 498 203.5 L 501 210.5 L 501 213.5 L 499 218.5 L 495.5 222 L 488.5 225 L 481.5 225 L 473.5 222 L 468 216.5 L 466 211.5 L 466 207.5 L 468 202.5 L 471.5 199 L 478.5 196 Z M 482 200 L 476 202 L 472 206 L 471 209 L 471 212 L 473 216 L 479 220 Q 482 219 483 221 L 487 221 L 492 219 L 495 216 L 496 213 L 495 208 L 490 202 L 482 200 Z " /><path fill="rgb(247,251,248)" stroke="rgb(247,251,248)" stroke-width="1" opacity="0.9803921568627451" d="M 481.5 210 Q 486 209 487 211.5 Q 487.8 215.3 485.5 216 L 482.5 217 L 479 214.5 L 479.5 211 L 481.5 210 Z " /><path fill="rgb(135,200,124)" stroke="rgb(135,200,124)" stroke-width="1" opacity="0.996078431372549" d="M 437.5 188 L 438 188.5 L 430.5 196 L 430 195.5 L 437.5 188 Z " /><path fill="rgb(135,200,124)" stroke="rgb(135,200,124)" stroke-width="1" opacity="0.996078431372549" d="M 477.5 245 L 482 245.5 L 477.5 246 L 477.5 245 Z " /><path fill="rgb(135,200,124)" stroke="rgb(135,200,124)" stroke-width="1" opacity="0.996078431372549" d="M 490.5 246 L 493 246.5 L 490.5 247 L 490.5 246 Z " /><path fill="rgb(135,200,124)" stroke="rgb(135,200,124)" stroke-width="1" opacity="0.996078431372549" d="M 500.5 257 L 505 257.5 L 500.5 258 L 500.5 257 Z " /><path fill="rgb(135,200,124)" stroke="rgb(135,200,124)" stroke-width="1" opacity="0.996078431372549" d="M 537.5 257 L 544 257.5 L 537.5 258 L 537.5 257 Z " /><path fill="rgb(85,146,165)" stroke="rgb(85,146,165)" stroke-width="1" opacity="0.996078431372549" d="M 418.5 271 L 419 271.5 L 415.5 275 L 415 274.5 L 418.5 271 Z " /><path fill="rgb(148,207,170)" stroke="rgb(148,207,170)" stroke-width="1" opacity="0.00784313725490196" d="M 369.5 284 L 372 284.5 L 369.5 285 L 369.5 284 Z " /><path fill="rgb(148,207,170)" stroke="rgb(148,207,170)" stroke-width="1" opacity="0.00784313725490196" d="M 392.5 284 L 395 284.5 L 392.5 285 L 392.5 284 Z " /><path fill="rgb(3,172,157)" stroke="rgb(3,172,157)" stroke-width="1" opacity="0.00784313725490196" d="M 364.5 115 L 369 115.5 L 364.5 116 L 364.5 115 Z " /><path fill="rgb(3,172,157)" stroke="rgb(3,172,157)" stroke-width="1" opacity="0.00784313725490196" d="M 373.5 115 L 378 115.5 L 373.5 116 L 373.5 115 Z " /><path fill="rgb(3,172,157)" stroke="rgb(3,172,157)" stroke-width="1" opacity="0.00784313725490196" d="M 211.5 192 L 212.5 193 L 214 192.5 L 212.5 194 Q 211.5 192 210.5 194 L 209 193.5 L 211.5 192 Z " /><path fill="rgb(3,172,157)" stroke="rgb(3,172,157)" stroke-width="1" opacity="0.00784313725490196" d="M 207.5 195 L 208.5 196 L 210 195.5 L 208.5 197 Q 206 196 207.5 195 Z " /><path fill="rgb(3,172,157)" stroke="rgb(3,172,157)" stroke-width="1" opacity="0.00784313725490196" d="M 203.5 198 L 204.5 199 L 206 198.5 L 203.5 201 L 202 199.5 L 203.5 198 Z " /><path fill="rgb(3,172,157)" stroke="rgb(3,172,157)" stroke-width="1" opacity="0.00784313725490196" d="M 108.5 201 L 111 201.5 L 108.5 202 L 108.5 201 Z " /><path fill="rgb(3,172,157)" stroke="rgb(3,172,157)" stroke-width="1" opacity="0.00784313725490196" d="M 200.5 202 L 201 202.5 L 198.5 205 L 198 204.5 L 200.5 202 Z " /><path fill="rgb(3,172,157)" stroke="rgb(3,172,157)" stroke-width="1" opacity="0.00784313725490196" d="M 192.5 209 L 193 209.5 L 180.5 222 L 180.5 219 Q 181.8 221.2 183 218.5 L 182 217.5 L 184.5 215 Q 185.8 217.3 187 214.5 L 186 213.5 L 189.5 210 Q 191 212.5 192.5 209 Z " /><path fill="rgb(145,146,71)" stroke="rgb(145,146,71)" stroke-width="1" opacity="0.01568627450980392" d="M 537.5 226 L 539 228.5 Q 538 230 537 227.5 L 537.5 226 Z " /><path fill="rgb(0,162,136)" stroke="rgb(0,162,136)" stroke-width="1" opacity="0.011764705882352941" d="M 453.5 136 L 454 137.5 Q 453 140 452 138.5 L 453.5 136 Z " /><path fill="rgb(217,240,220)" stroke="rgb(217,240,220)" stroke-width="1" opacity="0.1568627450980392" d="M 476.5 178 L 479 179.5 L 477.5 179 Q 475.1 178.9 476.5 178 Z " /><path fill="rgb(217,240,220)" stroke="rgb(217,240,220)" stroke-width="1" opacity="0.1568627450980392" d="M 184.5 240 L 186 240.5 L 183.5 242 Q 182 241 184.5 240 Z " /><path fill="rgb(217,240,220)" stroke="rgb(217,240,220)" stroke-width="1" opacity="0.1568627450980392" d="M 187.5 241 L 189 241.5 L 187 242.5 L 189 243.5 L 187.5 244 L 185 242.5 L 187.5 241 Z " /><path fill="rgb(217,240,220)" stroke="rgb(217,240,220)" stroke-width="1" opacity="0.1568627450980392" d="M 193.5 243 L 197 244.5 L 195 245.5 L 195.5 247 L 193 245.5 L 195 244.5 L 193 243.5 L 193.5 243 Z " /><path fill="rgb(217,240,220)" stroke="rgb(217,240,220)" stroke-width="1" opacity="0.1568627450980392" d="M 198.5 245 L 200 245.5 L 198 246.5 L 200 247.5 L 198.5 248 Q 195.5 246.5 198.5 245 Z " /><path fill="rgb(217,240,220)" stroke="rgb(217,240,220)" stroke-width="1" opacity="0.1568627450980392" d="M 204.5 247 L 206 247.5 L 201.5 249 L 201.5 248 L 204.5 247 Z " /><path fill="rgb(217,240,220)" stroke="rgb(217,240,220)" stroke-width="1" opacity="0.1568627450980392" d="M 210.5 249 L 212 249.5 L 208.5 251 L 208.5 250 L 210.5 249 Z " /><path fill="rgb(217,240,220)" stroke="rgb(217,240,220)" stroke-width="1" opacity="0.1568627450980392" d="M 213.5 250 L 215 250.5 L 211.5 252 L 211.5 251 L 213.5 250 Z " /><path fill="rgb(217,240,220)" stroke="rgb(217,240,220)" stroke-width="1" opacity="0.1568627450980392" d="M 216.5 251 L 218 251.5 L 214.5 253 L 214.5 252 L 216.5 251 Z " /><path fill="rgb(217,240,220)" stroke="rgb(217,240,220)" stroke-width="1" opacity="0.1568627450980392" d="M 219.5 252 L 221 252.5 L 217.5 254 L 217.5 253 L 219.5 252 Z " /><path fill="rgb(217,240,220)" stroke="rgb(217,240,220)" stroke-width="1" opacity="0.1568627450980392" d="M 222.5 253 L 224 253.5 L 220.5 255 L 220.5 254 L 222.5 253 Z " /><path fill="rgb(217,240,220)" stroke="rgb(217,240,220)" stroke-width="1" opacity="0.1568627450980392" d="M 228.5 255 L 230 255.5 L 228 256.5 L 230.5 257 L 232.5 256 L 232.5 257 L 228.5 258 L 226 256.5 L 228.5 255 Z " /><path fill="rgb(217,240,220)" stroke="rgb(217,240,220)" stroke-width="1" opacity="0.1568627450980392" d="M 283.5 270 L 286 270.5 L 283.5 271 L 283.5 270 Z " /><path fill="rgb(217,240,220)" stroke="rgb(217,240,220)" stroke-width="1" opacity="0.1568627450980392" d="M 287.5 271 L 290 271.5 L 287.5 272 L 287.5 271 Z " /><path fill="rgb(217,240,220)" stroke="rgb(217,240,220)" stroke-width="1" opacity="0.1568627450980392" d="M 282.5 272 L 286 272.5 L 282.5 273 L 282.5 272 Z " /><path fill="rgb(217,240,220)" stroke="rgb(217,240,220)" stroke-width="1" opacity="0.1568627450980392" d="M 291.5 272 L 295 272.5 L 291 273.5 L 295.5 274 Q 296.3 272.3 299.5 273 L 299.5 274 L 296 274.5 L 300.5 275 Q 301.3 273.3 304.5 274 L 304.5 275 L 301 275.5 L 305 276.5 L 301.5 277 L 300.5 276 L 296.5 276 L 295.5 275 L 291.5 275 L 288 273.5 L 291.5 272 Z " /><path fill="rgb(217,240,220)" stroke="rgb(217,240,220)" stroke-width="1" opacity="0.1568627450980392" d="M 306.5 275 L 311 275.5 L 306.5 276 L 306.5 275 Z " /><path fill="rgb(217,240,220)" stroke="rgb(217,240,220)" stroke-width="1" opacity="0.1568627450980392" d="M 312.5 276 L 317 276.5 L 312.5 277 L 312.5 276 Z " /><path fill="rgb(217,240,220)" stroke="rgb(217,240,220)" stroke-width="1" opacity="0.1568627450980392" d="M 308.5 277 L 311 277.5 L 308.5 278 L 308.5 277 Z " /><path fill="rgb(217,240,220)" stroke="rgb(217,240,220)" stroke-width="1" opacity="0.1568627450980392" d="M 318.5 277 L 323 277.5 L 318.5 278 L 318.5 277 Z " /><path fill="rgb(217,240,220)" stroke="rgb(217,240,220)" stroke-width="1" opacity="0.1568627450980392" d="M 312.5 278 L 317 278.5 L 312.5 279 L 312.5 278 Z " /><path fill="rgb(217,240,220)" stroke="rgb(217,240,220)" stroke-width="1" opacity="0.1568627450980392" d="M 324.5 278 L 330 278.5 L 324.5 279 L 324.5 278 Z " /><path fill="rgb(217,240,220)" stroke="rgb(217,240,220)" stroke-width="1" opacity="0.1568627450980392" d="M 318.5 279 L 323 279.5 L 318.5 280 L 318.5 279 Z " /><path fill="rgb(217,240,220)" stroke="rgb(217,240,220)" stroke-width="1" opacity="0.1568627450980392" d="M 331.5 279 L 338 279.5 L 331.5 280 L 331.5 279 Z " /><path fill="rgb(217,240,220)" stroke="rgb(217,240,220)" stroke-width="1" opacity="0.1568627450980392" d="M 429.5 279 L 434 279.5 L 429.5 280 L 429.5 279 Z " /><path fill="rgb(217,240,220)" stroke="rgb(217,240,220)" stroke-width="1" opacity="0.1568627450980392" d="M 326.5 280 L 330 280.5 L 326.5 281 L 326.5 280 Z " /><path fill="rgb(217,240,220)" stroke="rgb(217,240,220)" stroke-width="1" opacity="0.1568627450980392" d="M 340.5 280 L 348 280.5 L 340.5 281 L 340.5 280 Z " /><path fill="rgb(217,240,220)" stroke="rgb(217,240,220)" stroke-width="1" opacity="0.1568627450980392" d="M 332.5 281 L 339 281.5 L 332.5 282 L 332.5 281 Z " /><path fill="rgb(217,240,220)" stroke="rgb(217,240,220)" stroke-width="1" opacity="0.1568627450980392" d="M 350.5 281 L 360 281.5 L 350.5 282 L 350.5 281 Z " /><path fill="rgb(217,240,220)" stroke="rgb(217,240,220)" stroke-width="1" opacity="0.1568627450980392" d="M 404.5 281 L 413 281.5 L 404.5 282 L 404.5 281 Z " /><path fill="rgb(217,240,220)" stroke="rgb(217,240,220)" stroke-width="1" opacity="0.1568627450980392" d="M 430.5 281 L 433 281.5 L 430.5 282 L 430.5 281 Z " /><path fill="rgb(217,240,220)" stroke="rgb(217,240,220)" stroke-width="1" opacity="0.1568627450980392" d="M 342.5 282 L 348 282.5 L 342.5 283 L 342.5 282 Z " /><path fill="rgb(217,240,220)" stroke="rgb(217,240,220)" stroke-width="1" opacity="0.1568627450980392" d="M 367.5 282 L 399 282.5 L 367.5 283 L 367.5 282 Z " /><path fill="rgb(217,240,220)" stroke="rgb(217,240,220)" stroke-width="1" opacity="0.1568627450980392" d="M 356.5 283 L 362 283.5 L 356.5 284 L 356.5 283 Z " /><path fill="rgb(217,240,220)" stroke="rgb(217,240,220)" stroke-width="1" opacity="0.1568627450980392" d="M 402.5 283 L 410 283.5 L 402.5 284 L 402.5 283 Z " /><path fill="rgb(217,240,220)" stroke="rgb(217,240,220)" stroke-width="1" opacity="0.1568627450980392" d="M 366.5 284 L 369 284.5 L 366.5 285 L 366.5 284 Z " /><path fill="rgb(217,240,220)" stroke="rgb(217,240,220)" stroke-width="1" opacity="0.1568627450980392" d="M 372.5 284 L 392 284.5 L 372.5 285 L 372.5 284 Z " /><path fill="rgb(217,240,220)" stroke="rgb(217,240,220)" stroke-width="1" opacity="0.1568627450980392" d="M 395.5 284 L 398 284.5 L 395.5 285 L 395.5 284 Z " /><path fill="rgb(0,140,211)" stroke="rgb(0,140,211)" stroke-width="1" opacity="0.01568627450980392" d="M 265.5 140 Q 267 141 264.5 142 L 263 141.5 L 265.5 140 Z " /><path fill="rgb(0,140,211)" stroke="rgb(0,140,211)" stroke-width="1" opacity="0.01568627450980392" d="M 435.5 158 Q 438.5 157.5 439 159.5 L 437.5 159 Q 434.5 159.5 435.5 158 Z " /><path fill="rgb(0,140,211)" stroke="rgb(0,140,211)" stroke-width="1" opacity="0.01568627450980392" d="M 453.5 165 L 456 166.5 L 454.5 167 Q 452 166 453.5 165 Z " /><path fill="rgb(0,140,211)" stroke="rgb(0,140,211)" stroke-width="1" opacity="0.01568627450980392" d="M 213.5 190 L 215 190.5 L 212.5 192 Q 211 191 213.5 190 Z " /><path fill="rgb(0,140,211)" stroke="rgb(0,140,211)" stroke-width="1" opacity="0.01568627450980392" d="M 87.5 201 L 90 201.5 L 87.5 202 L 87.5 201 Z " /><path fill="rgb(0,140,211)" stroke="rgb(0,140,211)" stroke-width="1" opacity="0.01568627450980392" d="M 104.5 201 L 107 201.5 L 104.5 202 L 104.5 201 Z " /><path fill="rgb(202,226,127)" stroke="rgb(202,226,127)" stroke-width="1" opacity="0.09803921568627451" d="M 503.5 196 L 506 198.5 L 504.5 200 L 502 197.5 L 503.5 196 Z " /><path fill="rgb(202,226,127)" stroke="rgb(202,226,127)" stroke-width="1" opacity="0.09803921568627451" d="M 506.5 200 Q 507.5 202 508.5 200 L 510 201.5 L 508.5 203 L 506 200.5 L 506.5 200 Z " /><path fill="rgb(202,226,127)" stroke="rgb(202,226,127)" stroke-width="1" opacity="0.09803921568627451" d="M 512.5 203 L 515 205.5 L 514 206.5 L 514.5 208 L 511 204.5 L 512.5 203 Z " /><path fill="rgb(202,226,127)" stroke="rgb(202,226,127)" stroke-width="1" opacity="0.09803921568627451" d="M 518.5 208 L 518 209.5 L 519.5 211 L 520.5 210 L 523 212.5 L 521.5 214 L 517 209.5 L 518.5 208 Z " /><path fill="rgb(202,226,127)" stroke="rgb(202,226,127)" stroke-width="1" opacity="0.09803921568627451" d="M 529.5 218 L 536 224.5 L 535 225.5 L 537 227.5 L 536.5 228 L 528 219.5 L 529.5 218 Z " /><path fill="rgb(202,226,127)" stroke="rgb(202,226,127)" stroke-width="1" opacity="0.09803921568627451" d="M 540.5 230 L 545 234.5 L 543.5 236 L 539 231.5 L 540.5 230 Z " /><path fill="rgb(202,226,127)" stroke="rgb(202,226,127)" stroke-width="1" opacity="0.09803921568627451" d="M 545.5 236 L 548 238.5 L 547 239.5 L 549 241.5 L 548.5 242 L 545 238.5 L 546 237.5 L 545.5 236 Z " /><path fill="rgb(202,226,127)" stroke="rgb(202,226,127)" stroke-width="1" opacity="0.09803921568627451" d="M 550.5 242 L 553 244.5 L 551.5 246 L 549 243.5 L 550.5 242 Z " /><path fill="rgb(202,226,127)" stroke="rgb(202,226,127)" stroke-width="1" opacity="0.09803921568627451" d="M 557.5 254 L 558.5 255 L 560 254.5 L 558.5 257 L 557 254.5 L 557.5 254 Z " /><path fill="rgb(202,226,127)" stroke="rgb(202,226,127)" stroke-width="1" opacity="0.09803921568627451" d="M 550.5 258 L 555 259.5 L 553.5 260 L 550.5 259 L 550.5 258 Z " /><path fill="rgb(202,226,127)" stroke="rgb(202,226,127)" stroke-width="1" opacity="0.09803921568627451" d="M 546.5 259 L 551 260.5 L 549.5 261 L 546.5 260 L 546.5 259 Z " /><path fill="rgb(202,226,127)" stroke="rgb(202,226,127)" stroke-width="1" opacity="0.09803921568627451" d="M 537.5 261 L 540 261.5 L 537.5 262 L 537.5 261 Z " /><path fill="rgb(202,226,127)" stroke="rgb(202,226,127)" stroke-width="1" opacity="0.09803921568627451" d="M 528.5 263 L 531 263.5 L 528.5 264 L 528.5 263 Z " /><path fill="rgb(202,226,127)" stroke="rgb(202,226,127)" stroke-width="1" opacity="0.09803921568627451" d="M 536.5 263 L 539 263.5 L 536.5 264 L 536.5 263 Z " /><path fill="rgb(202,226,127)" stroke="rgb(202,226,127)" stroke-width="1" opacity="0.09803921568627451" d="M 523.5 264 L 526 264.5 L 523.5 265 L 523.5 264 Z " /><path fill="rgb(202,226,127)" stroke="rgb(202,226,127)" stroke-width="1" opacity="0.09803921568627451" d="M 518.5 265 L 521 265.5 L 518.5 266 L 518.5 265 Z " /><path fill="rgb(202,226,127)" stroke="rgb(202,226,127)" stroke-width="1" opacity="0.09803921568627451" d="M 513.5 266 L 516 266.5 L 513.5 267 L 513.5 266 Z " /><path fill="rgb(202,226,127)" stroke="rgb(202,226,127)" stroke-width="1" opacity="0.09803921568627451" d="M 508.5 267 L 511 267.5 L 508.5 268 L 508.5 267 Z " /><path fill="rgb(202,226,127)" stroke="rgb(202,226,127)" stroke-width="1" opacity="0.09803921568627451" d="M 517.5 267 L 520 267.5 L 517.5 268 L 517.5 267 Z " /><path fill="rgb(202,226,127)" stroke="rgb(202,226,127)" stroke-width="1" opacity="0.09803921568627451" d="M 502.5 268 L 506 268.5 L 502.5 269 L 502.5 268 Z " /><path fill="rgb(202,226,127)" stroke="rgb(202,226,127)" stroke-width="1" opacity="0.09803921568627451" d="M 497.5 269 L 500 269.5 L 497.5 270 L 497.5 269 Z " /><path fill="rgb(202,226,127)" stroke="rgb(202,226,127)" stroke-width="1" opacity="0.09803921568627451" d="M 507.5 269 L 510 269.5 L 507.5 270 L 507.5 269 Z " /><path fill="rgb(202,226,127)" stroke="rgb(202,226,127)" stroke-width="1" opacity="0.09803921568627451" d="M 491.5 270 L 495 270.5 L 491.5 271 L 491.5 270 Z " /><path fill="rgb(202,226,127)" stroke="rgb(202,226,127)" stroke-width="1" opacity="0.09803921568627451" d="M 485.5 271 L 489 271.5 L 485.5 272 L 485.5 271 Z " /><path fill="rgb(202,226,127)" stroke="rgb(202,226,127)" stroke-width="1" opacity="0.09803921568627451" d="M 496.5 271 L 499 271.5 L 496.5 272 L 496.5 271 Z " /><path fill="rgb(202,226,127)" stroke="rgb(202,226,127)" stroke-width="1" opacity="0.09803921568627451" d="M 479.5 272 L 483 272.5 L 479.5 273 L 479.5 272 Z " /><path fill="rgb(202,226,127)" stroke="rgb(202,226,127)" stroke-width="1" opacity="0.09803921568627451" d="M 473.5 273 L 477 273.5 L 473.5 274 L 473.5 273 Z " /><path fill="rgb(202,226,127)" stroke="rgb(202,226,127)" stroke-width="1" opacity="0.09803921568627451" d="M 466.5 274 L 470 274.5 L 466.5 275 L 466.5 274 Z " /><path fill="rgb(202,226,127)" stroke="rgb(202,226,127)" stroke-width="1" opacity="0.09803921568627451" d="M 478.5 274 L 481 274.5 L 478.5 275 L 478.5 274 Z " /><path fill="rgb(202,226,127)" stroke="rgb(202,226,127)" stroke-width="1" opacity="0.09803921568627451" d="M 460.5 275 L 464 275.5 L 460.5 276 L 460.5 275 Z " /><path fill="rgb(202,226,127)" stroke="rgb(202,226,127)" stroke-width="1" opacity="0.09803921568627451" d="M 471.5 275 L 475 275.5 L 471.5 276 L 471.5 275 Z " /><path fill="rgb(202,226,127)" stroke="rgb(202,226,127)" stroke-width="1" opacity="0.09803921568627451" d="M 453.5 276 L 457 276.5 L 453.5 277 L 453.5 276 Z " /><path fill="rgb(202,226,127)" stroke="rgb(202,226,127)" stroke-width="1" opacity="0.09803921568627451" d="M 445.5 277 L 450 277.5 L 445.5 278 L 445.5 277 Z " /><path fill="rgb(202,226,127)" stroke="rgb(202,226,127)" stroke-width="1" opacity="0.09803921568627451" d="M 458.5 277 L 462 277.5 L 458.5 278 L 458.5 277 Z " /><path fill="rgb(202,226,127)" stroke="rgb(202,226,127)" stroke-width="1" opacity="0.09803921568627451" d="M 438.5 278 L 443 278.5 L 438.5 279 L 438.5 278 Z " /><path fill="rgb(202,226,127)" stroke="rgb(202,226,127)" stroke-width="1" opacity="0.09803921568627451" d="M 451.5 278 L 455 278.5 L 451.5 279 L 451.5 278 Z " /><path fill="rgb(202,226,127)" stroke="rgb(202,226,127)" stroke-width="1" opacity="0.09803921568627451" d="M 444.5 279 L 448 279.5 L 444.5 280 L 444.5 279 Z " /><path fill="rgb(0,93,139)" stroke="rgb(0,93,139)" stroke-width="1" opacity="0.13333333333333333" d="M 369.5 115 L 373 115.5 L 369.5 116 L 369.5 115 Z " /><path fill="rgb(0,93,139)" stroke="rgb(0,93,139)" stroke-width="1" opacity="0.13333333333333333" d="M 351.5 116 L 355 116.5 L 351.5 117 L 351.5 116 Z " /><path fill="rgb(0,93,139)" stroke="rgb(0,93,139)" stroke-width="1" opacity="0.13333333333333333" d="M 385.5 116 L 392 116.5 L 385.5 117 L 385.5 116 Z " /><path fill="rgb(0,93,139)" stroke="rgb(0,93,139)" stroke-width="1" opacity="0.13333333333333333" d="M 359.5 117 L 382 117.5 L 359.5 118 L 359.5 117 Z " /><path fill="rgb(0,93,139)" stroke="rgb(0,93,139)" stroke-width="1" opacity="0.13333333333333333" d="M 396.5 117 L 401 117.5 L 396.5 118 L 396.5 117 Z " /><path fill="rgb(0,93,139)" stroke="rgb(0,93,139)" stroke-width="1" opacity="0.13333333333333333" d="M 346.5 118 L 352 118.5 L 346.5 119 L 346.5 118 Z " /><path fill="rgb(0,93,139)" stroke="rgb(0,93,139)" stroke-width="1" opacity="0.13333333333333333" d="M 390.5 118 L 395 118.5 L 390.5 119 L 390.5 118 Z " /><path fill="rgb(0,93,139)" stroke="rgb(0,93,139)" stroke-width="1" opacity="0.13333333333333333" d="M 405.5 118 L 408 118.5 L 405.5 119 L 405.5 118 Z " /><path fill="rgb(0,93,139)" stroke="rgb(0,93,139)" stroke-width="1" opacity="0.13333333333333333" d="M 328.5 119 L 331 119.5 L 328.5 120 L 328.5 119 Z " /><path fill="rgb(0,93,139)" stroke="rgb(0,93,139)" stroke-width="1" opacity="0.13333333333333333" d="M 339.5 119 L 342 119.5 L 339.5 120 L 339.5 119 Z " /><path fill="rgb(0,93,139)" stroke="rgb(0,93,139)" stroke-width="1" opacity="0.13333333333333333" d="M 399.5 119 L 403 119.5 L 399.5 120 L 399.5 119 Z " /><path fill="rgb(0,93,139)" stroke="rgb(0,93,139)" stroke-width="1" opacity="0.13333333333333333" d="M 332.5 120 L 335 120.5 L 332.5 121 L 332.5 120 Z " /><path fill="rgb(0,93,139)" stroke="rgb(0,93,139)" stroke-width="1" opacity="0.13333333333333333" d="M 406.5 120 L 409 120.5 L 406.5 121 L 406.5 120 Z " /><path fill="rgb(0,93,139)" stroke="rgb(0,93,139)" stroke-width="1" opacity="0.13333333333333333" d="M 415.5 120 L 417 120.5 L 412.5 122 L 412.5 121 L 415.5 120 Z " /><path fill="rgb(0,93,139)" stroke="rgb(0,93,139)" stroke-width="1" opacity="0.13333333333333333" d="M 315.5 122 L 319 123.5 L 317.5 124 L 315 122.5 L 315.5 122 Z " /><path fill="rgb(0,93,139)" stroke="rgb(0,93,139)" stroke-width="1" opacity="0.13333333333333333" d="M 311.5 123 L 315 124.5 L 313.5 125 L 311 123.5 L 311.5 123 Z " /><path fill="rgb(0,93,139)" stroke="rgb(0,93,139)" stroke-width="1" opacity="0.13333333333333333" d="M 435.5 125 L 437 125.5 L 433.5 127 L 433.5 126 L 435.5 125 Z " /><path fill="rgb(0,93,139)" stroke="rgb(0,93,139)" stroke-width="1" opacity="0.13333333333333333" d="M 294.5 128 L 298 129.5 L 296.5 130 L 294 128.5 L 294.5 128 Z " /><path fill="rgb(0,93,139)" stroke="rgb(0,93,139)" stroke-width="1" opacity="0.13333333333333333" d="M 292.5 129 L 295 130.5 L 293.5 131 Q 291 130 292.5 129 Z " /><path fill="rgb(0,93,139)" stroke="rgb(0,93,139)" stroke-width="1" opacity="0.13333333333333333" d="M 284.5 132 L 287 133.5 L 285.5 134 Q 283 133 284.5 132 Z " /><path fill="rgb(0,93,139)" stroke="rgb(0,93,139)" stroke-width="1" opacity="0.13333333333333333" d="M 279.5 134 L 282 135.5 L 280.5 136 Q 278 135 279.5 134 Z " /><path fill="rgb(0,93,139)" stroke="rgb(0,93,139)" stroke-width="1" opacity="0.13333333333333333" d="M 452.5 136 L 453 136.5 L 450 139.5 L 451 140.5 L 445.5 146 L 444 146.5 L 445 147.5 L 440.5 152 L 441 150.5 L 440 149.5 L 444.5 145 L 448 142.5 L 447 141.5 L 452.5 136 Z " /><path fill="rgb(0,93,139)" stroke="rgb(0,93,139)" stroke-width="1" opacity="0.13333333333333333" d="M 438.5 152 L 438 153.5 L 439 154.5 L 435.5 158 L 436 156.5 L 435 155.5 L 438.5 152 Z " /><path fill="rgb(0,93,139)" stroke="rgb(0,93,139)" stroke-width="1" opacity="0.13333333333333333" d="M 232.5 160 Q 235 161 233.5 162 L 232.5 161 L 231 161.5 L 232.5 160 Z " /><path fill="rgb(0,93,139)" stroke="rgb(0,93,139)" stroke-width="1" opacity="0.13333333333333333" d="M 228.5 163 L 229.5 164 L 231 163.5 L 229.5 165 Q 227 164 228.5 163 Z " /><path fill="rgb(0,93,139)" stroke="rgb(0,93,139)" stroke-width="1" opacity="0.13333333333333333" d="M 220.5 169 L 221.5 170 L 223 169.5 L 221.5 171 Q 219 170 220.5 169 Z " /><path fill="rgb(0,93,139)" stroke="rgb(0,93,139)" stroke-width="1" opacity="0.13333333333333333" d="M 218.5 172 L 219 172.5 L 216.5 175 L 215.5 174 L 213.5 176 L 213 175.5 L 215.5 173 Q 217 175.5 218.5 172 Z " /><path fill="rgb(0,93,139)" stroke="rgb(0,93,139)" stroke-width="1" opacity="0.13333333333333333" d="M 212.5 177 L 213 177.5 L 208.5 182 L 207.5 181 L 205.5 183 L 205 182.5 L 209.5 178 Q 211 180.5 212.5 177 Z " /><path fill="rgb(0,93,139)" stroke="rgb(0,93,139)" stroke-width="1" opacity="0.13333333333333333" d="M 209.5 186 L 215 186.5 L 209.5 187 L 209.5 186 Z " /><path fill="rgb(0,93,139)" stroke="rgb(0,93,139)" stroke-width="1" opacity="0.13333333333333333" d="M 90.5 201 L 104 201.5 L 90.5 202 L 90.5 201 Z " /><path fill="rgb(0,93,139)" stroke="rgb(0,93,139)" stroke-width="1" opacity="0.13333333333333333" d="M 117.5 202 L 124 202.5 L 117.5 203 L 117.5 202 Z " /><path fill="rgb(0,93,139)" stroke="rgb(0,93,139)" stroke-width="1" opacity="0.13333333333333333" d="M 81.5 203 L 94 203.5 L 82 204.5 L 83 206.5 L 80 206.5 L 81.5 203 Z " /><path fill="rgb(0,93,139)" stroke="rgb(0,93,139)" stroke-width="1" opacity="0.13333333333333333" d="M 100.5 203 L 114 203.5 L 100.5 204 L 100.5 203 Z " /><path fill="rgb(0,93,139)" stroke="rgb(0,93,139)" stroke-width="1" opacity="0.13333333333333333" d="M 129.5 203 L 133 203.5 L 129.5 204 L 129.5 203 Z " /><path fill="rgb(0,93,139)" stroke="rgb(0,93,139)" stroke-width="1" opacity="0.13333333333333333" d="M 122.5 204 L 127 204.5 L 122.5 205 L 122.5 204 Z " /><path fill="rgb(0,93,139)" stroke="rgb(0,93,139)" stroke-width="1" opacity="0.13333333333333333" d="M 137.5 204 L 140 204.5 L 137.5 205 L 137.5 204 Z " /><path fill="rgb(0,93,139)" stroke="rgb(0,93,139)" stroke-width="1" opacity="0.13333333333333333" d="M 131.5 205 L 135 205.5 L 131.5 206 L 131.5 205 Z " /><path fill="rgb(0,93,139)" stroke="rgb(0,93,139)" stroke-width="1" opacity="0.13333333333333333" d="M 138.5 206 L 141 206.5 L 138.5 207 L 138.5 206 Z " /><path fill="rgb(0,93,139)" stroke="rgb(0,93,139)" stroke-width="1" opacity="0.13333333333333333" d="M 155.5 208 L 157 208.5 L 153.5 210 L 153.5 209 L 155.5 208 Z " /><path fill="rgb(0,93,139)" stroke="rgb(0,93,139)" stroke-width="1" opacity="0.13333333333333333" d="M 167.5 212 Q 169 213 166.5 214 L 165 213.5 L 167.5 212 Z " /><path fill="rgb(0,93,139)" stroke="rgb(0,93,139)" stroke-width="1" opacity="0.13333333333333333" d="M 178.5 218 Q 181 219 179.5 220 L 178.5 219 L 177 219.5 L 178.5 218 Z " /><path fill="rgb(0,93,139)" stroke="rgb(0,93,139)" stroke-width="1" opacity="0.13333333333333333" d="M 91.5 229 L 92.5 230 L 94 229.5 L 93 231.5 L 95 231.5 L 94 233.5 L 96 233.5 L 94.5 236 L 91 229.5 L 91.5 229 Z " /><path fill="rgb(0,93,139)" stroke="rgb(0,93,139)" stroke-width="1" opacity="0.13333333333333333" d="M 182.5 242 L 184 244.5 Q 183 246 182 243.5 L 182.5 242 Z " /><path fill="rgb(0,93,139)" stroke="rgb(0,93,139)" stroke-width="1" opacity="0.13333333333333333" d="M 181.5 245 L 183 247.5 Q 182 249 181 246.5 L 181.5 245 Z " /><path fill="rgb(0,93,139)" stroke="rgb(0,93,139)" stroke-width="1" opacity="0.13333333333333333" d="M 178.5 252 L 180 254.5 Q 179 256 178 253.5 L 178.5 252 Z " /><path fill="rgb(0,93,139)" stroke="rgb(0,93,139)" stroke-width="1" opacity="0.13333333333333333" d="M 105.5 253 L 107 255.5 L 104 255.5 L 105.5 253 Z " /><path fill="rgb(0,93,139)" stroke="rgb(0,93,139)" stroke-width="1" opacity="0.13333333333333333" d="M 232.5 258 L 232 259.5 L 230.5 262 Q 228 261 229.5 260 L 231 260.5 L 232.5 258 Z " /><path fill="rgb(0,93,139)" stroke="rgb(0,93,139)" stroke-width="1" opacity="0.13333333333333333" d="M 108.5 259 L 109 260.5 Q 108 263 107 261.5 L 108.5 259 Z " /><path fill="rgb(0,93,139)" stroke="rgb(0,93,139)" stroke-width="1" opacity="0.13333333333333333" d="M 280.5 271 L 282 274.5 L 281 274.5 L 280.5 271 Z " /><path fill="rgb(0,93,139)" stroke="rgb(0,93,139)" stroke-width="1" opacity="0.13333333333333333" d="M 279.5 274 L 281 276.5 Q 280 278 279 275.5 L 279.5 274 Z " /><path fill="rgb(0,93,139)" stroke="rgb(0,93,139)" stroke-width="1" opacity="0.13333333333333333" d="M 223.5 275 L 226 276.5 L 223.5 277 L 223.5 275 Z " /><path fill="rgb(0,93,139)" stroke="rgb(0,93,139)" stroke-width="1" opacity="0.13333333333333333" d="M 415.5 282 L 416 289.5 L 415 289.5 L 415.5 282 Z " /><path fill="rgb(0,93,139)" stroke="rgb(0,93,139)" stroke-width="1" opacity="0.13333333333333333" d="M 160.5 284 L 161.5 285 L 163 284.5 L 161.5 286 Q 159 285 160.5 284 Z " /><path fill="rgb(0,93,139)" stroke="rgb(0,93,139)" stroke-width="1" opacity="0.13333333333333333" d="M 414.5 292 L 415 298.5 L 414 298.5 L 414.5 292 Z " /><path fill="rgb(0,93,139)" stroke="rgb(0,93,139)" stroke-width="1" opacity="0.13333333333333333" d="M 154.5 293 L 156 294.5 L 153.5 297 L 154 295.5 L 153 294.5 L 154.5 293 Z " /><path fill="rgb(0,93,139)" stroke="rgb(0,93,139)" stroke-width="1" opacity="0.13333333333333333" d="M 437.5 294 L 438 295.5 Q 437 298 436 296.5 L 437.5 294 Z " /><path fill="rgb(0,93,139)" stroke="rgb(0,93,139)" stroke-width="1" opacity="0.13333333333333333" d="M 421.5 300 L 433 300.5 L 421.5 301 L 421.5 300 Z " /><path fill="rgb(0,93,139)" stroke="rgb(0,93,139)" stroke-width="1" opacity="0.13333333333333333" d="M 148.5 301 L 148 302.5 L 149 303.5 L 147.5 305 L 148 303.5 L 147 302.5 L 148.5 301 Z " /><path fill="rgb(0,93,139)" stroke="rgb(0,93,139)" stroke-width="1" opacity="0.13333333333333333" d="M 432.5 302 L 438 302.5 L 432.5 303 L 432.5 302 Z " /><path fill="rgb(0,93,139)" stroke="rgb(0,93,139)" stroke-width="1" opacity="0.13333333333333333" d="M 145.5 305 L 147 306.5 L 143.5 310 L 144 308.5 L 143 307.5 L 145.5 305 Z " /><path fill="rgb(0,93,139)" stroke="rgb(0,93,139)" stroke-width="1" opacity="0.13333333333333333" d="M 141.5 310 L 142 310.5 L 140 312.5 L 141 313.5 L 139.5 315 Q 138 312.5 136.5 316 L 135 314.5 L 136.5 315 L 141.5 310 Z " /><path fill="rgb(0,126,145)" stroke="rgb(0,126,145)" stroke-width="1" opacity="0.5333333333333333" d="M 352.5 118 L 357 118.5 L 352.5 119 L 352.5 118 Z " /><path fill="rgb(0,126,145)" stroke="rgb(0,126,145)" stroke-width="1" opacity="0.5333333333333333" d="M 385.5 118 L 390 118.5 L 385.5 119 L 385.5 118 Z " /><path fill="rgb(0,126,145)" stroke="rgb(0,126,145)" stroke-width="1" opacity="0.5333333333333333" d="M 342.5 119 L 345 119.5 L 342.5 120 L 342.5 119 Z " /><path fill="rgb(0,126,145)" stroke="rgb(0,126,145)" stroke-width="1" opacity="0.5333333333333333" d="M 396.5 119 L 399 119.5 L 396.5 120 L 396.5 119 Z " /><path fill="rgb(0,126,145)" stroke="rgb(0,126,145)" stroke-width="1" opacity="0.5333333333333333" d="M 335.5 120 L 338 120.5 L 335.5 121 L 335.5 120 Z " /><path fill="rgb(0,126,145)" stroke="rgb(0,126,145)" stroke-width="1" opacity="0.5333333333333333" d="M 453.5 133 L 454 134.5 Q 453 137 452 135.5 L 453.5 133 Z " /><path fill="rgb(0,126,145)" stroke="rgb(0,126,145)" stroke-width="1" opacity="0.5333333333333333" d="M 446.5 142 L 447 142.5 L 444.5 145 L 444 144.5 L 446.5 142 Z " /><path fill="rgb(0,126,145)" stroke="rgb(0,126,145)" stroke-width="1" opacity="0.5333333333333333" d="M 215.5 175 L 216 175.5 L 213.5 178 L 213 177.5 L 215.5 175 Z " /><path fill="rgb(0,126,145)" stroke="rgb(0,126,145)" stroke-width="1" opacity="0.5333333333333333" d="M 207.5 182 L 206.5 185 L 208 185.5 L 205.5 186 L 205 184.5 L 207.5 182 Z " /><path fill="rgb(0,126,145)" stroke="rgb(0,126,145)" stroke-width="1" opacity="0.5333333333333333" d="M 215.5 186 L 219 186.5 L 215.5 187 L 215.5 186 Z " /><path fill="rgb(0,126,145)" stroke="rgb(0,126,145)" stroke-width="1" opacity="0.5333333333333333" d="M 94.5 203 L 100 203.5 L 94.5 204 L 94.5 203 Z " /><path fill="rgb(0,126,145)" stroke="rgb(0,126,145)" stroke-width="1" opacity="0.5333333333333333" d="M 116.5 204 L 122 204.5 L 116.5 205 L 116.5 204 Z " /><path fill="rgb(0,126,145)" stroke="rgb(0,126,145)" stroke-width="1" opacity="0.5333333333333333" d="M 128.5 205 L 131 205.5 L 128.5 206 L 128.5 205 Z " /><path fill="rgb(0,126,145)" stroke="rgb(0,126,145)" stroke-width="1" opacity="0.5333333333333333" d="M 197.5 205 L 198 205.5 L 194.5 209 L 194 208.5 L 197.5 205 Z " /><path fill="rgb(0,126,145)" stroke="rgb(0,126,145)" stroke-width="1" opacity="0.5333333333333333" d="M 416.5 291 L 417 297.5 L 416 297.5 L 416.5 291 Z " /><path fill="rgb(0,126,145)" stroke="rgb(0,126,145)" stroke-width="1" opacity="0.5333333333333333" d="M 433.5 300 L 439 300.5 L 433.5 301 L 433.5 300 Z " /></svg>