<svg viewBox="0 0 640 320" version="1.1" xmlns="http://www.w3.org/2000/svg" desc="Created with imagetracer.js version 1.2.6" ><path fill="rgb(0,0,0)" stroke="rgb(0,0,0)" stroke-width="1" opacity="0" d="M 0.5 0 L 640 0.5 L 639.5 320 L 0 319.5 L 0.5 147 L 78 147.5 L 77 148.5 L 76.5 157 L 66 157.5 L 65.5 159 L 50.5 159 L 45.5 162 L 33.5 162 L 31 163.5 L 31 173.5 L 32.5 175 L 44.5 175 L 49.5 178 L 63.5 178 L 66.5 180 L 74.5 180 L 77.5 181 L 78.5 180 L 561.5 180 L 564.5 181 L 565.5 180 L 573.5 180 L 576.5 178 L 590.5 178 L 595.5 175 L 607.5 175 L 609 173.5 L 608.5 163 L 605 161.5 Q 607 160.5 606 156.5 L 608 154.5 L 608 146.5 L 606 145.5 Q 607.2 140.8 605 139.5 L 606 137.5 L 604 136.5 Q 606 135.5 604 134.5 L 603.5 133 L 602 132.5 L 601.5 131 L 597.5 130 L 595.5 131 Q 594.5 129 593.5 131 L 582.5 131 Q 581.3 128.8 576.5 130 L 575.5 131 L 488.5 131 L 487.5 132 L 382.5 132 L 381.5 133 L 278.5 133 L 277.5 134 L 172.5 134 L 170.5 135 L 164.5 133 L 138.5 133 L 137.5 134 L 131.5 134 L 130.5 133 L 88.5 133 L 84.5 135 L 0.5 135 L 0.5 0 Z M 577 128 L 577 129 L 582 129 L 577 128 Z M 492 129 L 492 130 L 572 130 L 492 129 Z M 584 129 L 584 130 L 588 130 L 584 129 Z M 387 130 L 387 131 L 482 131 L 387 130 Z M 282 131 L 282 132 L 376 132 L 282 131 Z M 176 132 L 176 133 L 271 133 L 176 132 Z " /><path fill="rgb(0,0,0)" stroke="rgb(0,0,0)" stroke-width="1" opacity="0" d="M 0.5 137 L 83 137.5 L 0.5 138 L 0.5 137 Z " /><path fill="rgb(0,0,0)" stroke="rgb(0,0,0)" stroke-width="1" opacity="0" d="M 79.5 140 L 80 141.5 L 78.5 146 L 0 145.5 L 0.5 144 L 78 143.5 Q 77.5 140.5 79.5 140 Z " /><path fill="rgb(0,0,0)" stroke="rgb(0,0,0)" stroke-width="1" opacity="0" d="M 101.5 176 L 113 176.5 L 101.5 177 L 101.5 176 Z " /><path fill="rgb(1,0,2)" stroke="rgb(1,0,2)" stroke-width="1" opacity="0.996078431372549" d="M 133.5 135 L 137.5 136 L 141 138.5 Q 141.5 141.5 139.5 142 Q 136.7 144.2 130.5 143 L 126 139.5 L 128.5 137 L 133.5 135 Z M 140 138 L 139 140 L 139 141 L 140 141 L 140 138 Z M 132 141 L 132 142 L 137 142 L 132 141 Z " /><path fill="rgb(1,0,2)" stroke="rgb(1,0,2)" stroke-width="1" opacity="0.996078431372549" d="M 543.5 141 L 548.5 141 L 554 144.5 L 556 148.5 L 556 154.5 L 550.5 161 L 545.5 162 L 540.5 160 L 537 156.5 L 537.5 155 L 540.5 159 Q 543.3 161.2 549.5 160 L 554 156.5 Q 556 154 555 148.5 L 550.5 143 L 541.5 145 L 540.5 144 L 538 146.5 L 537.5 148 L 537 146.5 L 543.5 141 Z " /><path fill="rgb(1,0,2)" stroke="rgb(1,0,2)" stroke-width="1" opacity="0.996078431372549" d="M 313.5 143 L 316 143.5 L 309.5 146 Q 308 145 310.5 144 L 313.5 143 Z " /><path fill="rgb(1,0,2)" stroke="rgb(1,0,2)" stroke-width="1" opacity="0.996078431372549" d="M 357.5 143 L 363 143.5 L 357.5 144 L 357.5 143 Z " /><path fill="rgb(1,0,2)" stroke="rgb(1,0,2)" stroke-width="1" opacity="0.996078431372549" d="M 222.5 144 L 229.5 145 L 233 148.5 L 232.5 149 L 229.5 146 L 223.5 145 L 217.5 148 Q 216 147 218.5 146 L 222.5 144 Z " /><path fill="rgb(1,0,2)" stroke="rgb(1,0,2)" stroke-width="1" opacity="0.996078431372549" d="M 354.5 144 L 356 144.5 L 352.5 147 L 352 146.5 L 354.5 144 Z " /><path fill="rgb(1,0,2)" stroke="rgb(1,0,2)" stroke-width="1" opacity="0.996078431372549" d="M 176.5 145 Q 185.5 143.5 188 148.5 L 187.5 149 L 185.5 147 Q 182.7 144.8 176.5 146 L 172 149.5 L 171.5 151 L 171 149.5 L 176.5 145 Z " /><path fill="rgb(1,0,2)" stroke="rgb(1,0,2)" stroke-width="1" opacity="0.996078431372549" d="M 170.5 152 L 171 157.5 L 173.5 161 L 176.5 160 L 177.5 161 L 184.5 161 L 185.5 162 Q 188.9 159.9 189.5 155 L 190 157.5 L 186.5 163 L 182.5 165 L 177.5 165 L 171 160.5 L 170 157.5 L 170.5 152 Z M 179 163 L 179 164 L 182 164 L 179 163 Z " /><path fill="rgb(1,0,2)" stroke="rgb(1,0,2)" stroke-width="1" opacity="0.996078431372549" d="M 216.5 158 L 219.5 162 Q 222.3 164.2 228.5 163 L 233 159.5 L 233.5 158 L 234 159.5 L 229.5 164 L 223.5 165 L 220.5 164 L 216 159.5 L 216.5 158 Z " /><path fill="rgb(1,0,2)" stroke="rgb(1,0,2)" stroke-width="1" opacity="0.996078431372549" d="M 265.5 158 L 268 159.5 L 266.5 160 Q 264 159 265.5 158 Z " /><path fill="rgb(1,0,2)" stroke="rgb(1,0,2)" stroke-width="1" opacity="0.996078431372549" d="M 321.5 160 L 322 160.5 L 319.5 163 L 313.5 164 L 313.5 163 L 319.5 162 L 321.5 160 Z " /><path fill="rgb(1,0,2)" stroke="rgb(1,0,2)" stroke-width="1" opacity="0.996078431372549" d="M 309.5 161 L 312 162.5 L 310.5 163 Q 308 162 309.5 161 Z " /><path fill="rgb(1,0,2)" stroke="rgb(1,0,2)" stroke-width="1" opacity="0.996078431372549" d="M 364.5 161 Q 366 162 363.5 163 L 356 162.5 L 363.5 162 L 364.5 161 Z " /><path fill="rgb(1,0,2)" stroke="rgb(1,0,2)" stroke-width="1" opacity="0.996078431372549" d="M 497.5 172 L 500 172.5 L 497.5 173 L 497.5 172 Z " /><path fill="rgb(10,10,0)" stroke="rgb(10,10,0)" stroke-width="1" opacity="0.996078431372549" d="M 140.5 137 L 140 138.5 L 139.5 141 L 138 140.5 L 140.5 137 Z " /><path fill="rgb(10,10,0)" stroke="rgb(10,10,0)" stroke-width="1" opacity="0.996078431372549" d="M 602.5 140 L 603 142.5 L 602 142.5 L 602.5 140 Z " /><path fill="rgb(10,10,0)" stroke="rgb(10,10,0)" stroke-width="1" opacity="0.996078431372549" d="M 131.5 141 L 137 141.5 L 131.5 142 L 131.5 141 Z " /><path fill="rgb(10,10,0)" stroke="rgb(10,10,0)" stroke-width="1" opacity="0.996078431372549" d="M 316.5 143 L 317 144.5 L 313.5 145 L 313.5 144 L 316.5 143 Z " /><path fill="rgb(10,10,0)" stroke="rgb(10,10,0)" stroke-width="1" opacity="0.996078431372549" d="M 539.5 143 Q 540 145.5 543.5 145 L 543.5 144 L 542 143.5 L 543.5 143 Q 544.5 145 548.5 144 L 550.5 143 L 553.5 146 L 555 145.5 L 554 147.5 L 556 147.5 Q 555 150 550.5 149 L 549.5 148 L 543.5 148 L 542.5 147 L 538 146.5 Q 540 145.5 538 144.5 L 539.5 143 Z " /><path fill="rgb(10,10,0)" stroke="rgb(10,10,0)" stroke-width="1" opacity="0.996078431372549" d="M 227.5 144 L 227.5 146 L 230 146.5 L 220.5 147 L 220.5 146 L 226.5 145 L 227.5 144 Z " /><path fill="rgb(10,10,0)" stroke="rgb(10,10,0)" stroke-width="1" opacity="0.996078431372549" d="M 175.5 145 L 176.5 146 L 183.5 146 L 186 147.5 L 180.5 148 L 179.5 149 L 174.5 149 L 174 147.5 L 176 146.5 L 175.5 145 Z " /><path fill="rgb(10,10,0)" stroke="rgb(10,10,0)" stroke-width="1" opacity="0.996078431372549" d="M 403.5 146 L 406 146.5 L 403.5 147 L 403.5 146 Z " /><path fill="rgb(10,10,0)" stroke="rgb(10,10,0)" stroke-width="1" opacity="0.996078431372549" d="M 603.5 146 L 604 156.5 L 603 156.5 L 603.5 146 Z " /><path fill="rgb(10,10,0)" stroke="rgb(10,10,0)" stroke-width="1" opacity="0.996078431372549" d="M 218.5 147 L 219 147.5 L 216.5 150 L 216 149.5 L 218.5 147 Z " /><path fill="rgb(10,10,0)" stroke="rgb(10,10,0)" stroke-width="1" opacity="0.996078431372549" d="M 79.5 148 L 80 150.5 L 79 150.5 L 79.5 148 Z " /><path fill="rgb(10,10,0)" stroke="rgb(10,10,0)" stroke-width="1" opacity="0.996078431372549" d="M 536.5 149 L 537 152.5 L 536 152.5 L 536.5 149 Z " /><path fill="rgb(10,10,0)" stroke="rgb(10,10,0)" stroke-width="1" opacity="0.996078431372549" d="M 78.5 153 L 79 158.5 L 78 158.5 L 78.5 153 Z " /><path fill="rgb(10,10,0)" stroke="rgb(10,10,0)" stroke-width="1" opacity="0.996078431372549" d="M 551.5 154 L 555 154.5 L 553 157.5 L 553.5 159 Q 552.5 157 551.5 159 Q 548.7 161.2 542.5 160 L 541.5 161 L 541.5 159 L 538 156.5 L 539.5 157 L 540.5 156 L 546.5 156 L 551.5 154 Z " /><path fill="rgb(10,10,0)" stroke="rgb(10,10,0)" stroke-width="1" opacity="0.996078431372549" d="M 172.5 156 L 173.5 157 L 184.5 157 L 187.5 158 L 189 157.5 L 185 162.5 L 185.5 164 L 183 162.5 L 185 161.5 L 174.5 160 L 174 160.5 L 176 162.5 L 174.5 164 L 175 162.5 L 172 159.5 L 171.5 158 L 170 158.5 L 172.5 156 Z " /><path fill="rgb(10,10,0)" stroke="rgb(10,10,0)" stroke-width="1" opacity="0.996078431372549" d="M 217.5 159 L 233 159.5 Q 230.5 164.5 221.5 163 L 219.5 162 Q 218.3 164.3 217 161.5 L 218 160.5 L 217.5 159 Z " /><path fill="rgb(10,10,0)" stroke="rgb(10,10,0)" stroke-width="1" opacity="0.996078431372549" d="M 602.5 159 L 603 161.5 L 602 161.5 L 602.5 159 Z " /><path fill="rgb(10,10,0)" stroke="rgb(10,10,0)" stroke-width="1" opacity="0.996078431372549" d="M 79.5 160 L 80 163.5 L 79 163.5 L 79.5 160 Z " /><path fill="rgb(10,10,0)" stroke="rgb(10,10,0)" stroke-width="1" opacity="0.996078431372549" d="M 307.5 160 L 309 160.5 L 308.5 162 Q 306 161 307.5 160 Z " /><path fill="rgb(10,10,0)" stroke="rgb(10,10,0)" stroke-width="1" opacity="0.996078431372549" d="M 312.5 162 L 317 162.5 L 312.5 164 L 312.5 162 Z " /><path fill="rgb(10,10,0)" stroke="rgb(10,10,0)" stroke-width="1" opacity="0.996078431372549" d="M 178.5 163 L 182 163.5 L 178.5 164 L 178.5 163 Z " /><path fill="rgb(39,22,12)" stroke="rgb(39,22,12)" stroke-width="1" opacity="0.9921568627450981" d="M 598.5 131 L 603 134.5 L 605 139.5 L 605 144.5 L 606 145.5 L 606 156.5 L 605 157.5 L 605 162.5 L 604 165.5 L 600.5 170 L 598.5 171 L 598 170.5 L 600 168.5 L 599.5 167 L 601 166.5 L 600.5 165 L 602 164.5 L 601 162.5 L 603 161.5 L 602 157.5 L 604 156.5 L 604 146.5 L 602 143.5 L 603 140.5 L 601 139.5 L 602 137.5 L 600 136.5 L 600.5 135 L 599 134.5 L 600 133.5 L 598 131.5 L 598.5 131 Z " /><path fill="rgb(39,22,12)" stroke="rgb(39,22,12)" stroke-width="1" opacity="0.9921568627450981" d="M 87.5 136 Q 90.5 135.5 91 137.5 L 91.5 139 Q 92.8 136.8 94 139.5 L 93.5 141 L 95 141.5 L 98 148.5 L 98 157.5 Q 96 158.5 98 159.5 L 98 163.5 L 96 169.5 L 94.5 171 L 93 171.5 Q 95.3 172.8 92.5 174 L 91 173.5 L 89.5 176 Q 83.1 175.9 81 171.5 L 78 164.5 L 78 159.5 Q 80.3 158.3 79 153.5 Q 77 152.5 78 148.5 L 81 140.5 L 84.5 137 L 87.5 136 Z M 86 139 L 85 141 L 82 143 L 82 145 L 80 146 L 81 148 L 79 149 L 80 152 L 80 160 Q 78 160 79 164 L 81 164 L 80 166 L 82 170 L 86 172 L 91 171 L 93 168 L 94 161 L 95 160 L 95 153 L 92 144 L 89 140 L 86 139 Z " /><path fill="rgb(39,22,12)" stroke="rgb(39,22,12)" stroke-width="1" opacity="0.9921568627450981" d="M 132.5 143 L 136 143.5 L 132.5 144 L 132.5 143 Z " /><path fill="rgb(39,22,12)" stroke="rgb(39,22,12)" stroke-width="1" opacity="0.9921568627450981" d="M 363.5 143 L 363.5 145 L 365.5 144 L 368 147.5 Q 367 149 366 146.5 L 365.5 145 L 364.5 147 L 353 146.5 L 354.5 145 L 357.5 144 L 362.5 144 L 363.5 143 Z " /><path fill="rgb(39,22,12)" stroke="rgb(39,22,12)" stroke-width="1" opacity="0.9921568627450981" d="M 177.5 144 L 183 144.5 L 177.5 145 L 177.5 144 Z " /><path fill="rgb(39,22,12)" stroke="rgb(39,22,12)" stroke-width="1" opacity="0.9921568627450981" d="M 308.5 145 Q 309.5 147 310.5 145 L 318.5 145 L 321 146.5 L 309.5 147 L 308 146.5 L 306.5 149 L 307 147.5 L 308.5 145 Z " /><path fill="rgb(39,22,12)" stroke="rgb(39,22,12)" stroke-width="1" opacity="0.9921568627450981" d="M 231.5 146 Q 234.5 147.5 231.5 149 L 229.5 150 L 217.5 150 L 216 151.5 L 215.5 153 L 215 151.5 L 217 149.5 L 216.5 148 Q 218 150.5 219.5 147 L 230.5 147 L 231.5 146 Z " /><path fill="rgb(39,22,12)" stroke="rgb(39,22,12)" stroke-width="1" opacity="0.9921568627450981" d="M 406.5 146 L 409 147.5 L 407.5 148 Q 405 147 406.5 146 Z " /><path fill="rgb(39,22,12)" stroke="rgb(39,22,12)" stroke-width="1" opacity="0.9921568627450981" d="M 172.5 147 Q 173.7 150.3 179.5 149 L 180.5 148 L 186.5 148 L 188.5 151 L 190 151.5 L 189.5 153 L 188 152.5 L 189 156.5 Q 188.5 158.5 185.5 158 L 184.5 157 L 173.5 157 L 172.5 156 L 171 156.5 Q 170 150.5 173 148.5 L 172.5 147 Z " /><path fill="rgb(39,22,12)" stroke="rgb(39,22,12)" stroke-width="1" opacity="0.9921568627450981" d="M 268.5 147 L 269 148.5 L 267.5 149 Q 266 148 268.5 147 Z " /><path fill="rgb(39,22,12)" stroke="rgb(39,22,12)" stroke-width="1" opacity="0.9921568627450981" d="M 270.5 147 L 272 147.5 L 271.5 149 L 270 148.5 L 270.5 147 Z " /><path fill="rgb(39,22,12)" stroke="rgb(39,22,12)" stroke-width="1" opacity="0.9921568627450981" d="M 536.5 147 Q 537.5 149 538.5 147 L 549.5 148 L 550.5 149 L 555 149.5 L 554.5 154 L 551.5 154 L 546.5 156 L 540.5 156 L 539.5 157 L 536 154.5 L 536.5 153 L 538 152.5 Q 538.5 149 536 148.5 L 536.5 147 Z " /><path fill="rgb(39,22,12)" stroke="rgb(39,22,12)" stroke-width="1" opacity="0.9921568627450981" d="M 215.5 154 L 216.5 156 L 233.5 157 L 234.5 155 L 235 157.5 L 232.5 159 L 217.5 159 L 216.5 158 L 215 158.5 L 216 156.5 Q 214.3 155.8 215.5 154 Z " /><path fill="rgb(39,22,12)" stroke="rgb(39,22,12)" stroke-width="1" opacity="0.9921568627450981" d="M 266.5 158 L 272 158.5 L 271 159.5 L 271.5 161 L 269.5 160 L 268 160.5 L 267.5 159 Q 265.1 158.9 266.5 158 Z " /><path fill="rgb(39,22,12)" stroke="rgb(39,22,12)" stroke-width="1" opacity="0.9921568627450981" d="M 309.5 159 L 315.5 159 Q 316.5 161 320.5 160 L 322 161.5 L 320.5 161 L 319.5 162 L 310.5 162 L 309.5 163 L 310 161.5 L 309 160.5 L 309.5 159 Z " /><path fill="rgb(39,22,12)" stroke="rgb(39,22,12)" stroke-width="1" opacity="0.9921568627450981" d="M 354.5 160 L 366 160.5 L 363.5 162 L 356.5 162 L 355.5 163 L 355.5 161 Q 353.1 160.9 354.5 160 Z " /><path fill="rgb(39,22,12)" stroke="rgb(39,22,12)" stroke-width="1" opacity="0.9921568627450981" d="M 358.5 163 L 362 163.5 L 358.5 164 L 358.5 163 Z " /><path fill="rgb(181,117,31)" stroke="rgb(181,117,31)" stroke-width="1" opacity="0.984313725490196" d="M 489.5 132 Q 490.3 133.8 493.5 133 L 495.5 132 L 500 138.5 L 501 145.5 L 502 146.5 L 500.5 147 L 499.5 146 L 477.5 146 L 476.5 145 L 407.5 145 L 405.5 146 L 405.5 145 L 407 144.5 L 402.5 144 L 401.5 145 L 368.5 145 L 367.5 146 L 366 144.5 L 366.5 143 L 363.5 142 L 362 142.5 L 362.5 141 L 357 141.5 L 357.5 143 L 354.5 142 L 354.5 144 Q 353 141.5 351.5 145 L 325.5 145 L 324.5 146 L 320.5 143 L 319 143.5 L 318.5 142 L 313.5 143 L 310.5 142 L 310.5 144 L 309 143.5 L 306.5 147 Q 305 143.5 303.5 146 L 275.5 146 L 274 147.5 L 274.5 149 L 273 147.5 L 273.5 146 L 269.5 147 L 266.5 146 L 266.5 148 L 265.5 147 L 236.5 147 L 235.5 148 L 233.5 146 Q 232.3 148.3 231 145.5 L 230.5 144 L 229 144.5 L 229.5 143 Q 227.3 144.8 222.5 144 L 220.5 143 L 216.5 148 Q 215.5 146 214.5 148 L 205.5 148 L 204.5 149 L 201.5 148 L 200.5 149 L 190.5 149 L 189.5 150 L 190 148.5 L 186.5 145 L 185 145.5 L 185.5 144 L 183.5 145 L 182.5 143 L 176 143.5 L 176.5 145 L 174.5 144 L 170 148.5 L 170.5 150 L 169 149.5 L 170 152.5 L 169 152.5 L 168.5 151 Q 163.3 149.8 162 152.5 L 162.5 154 L 166.5 155 L 167.5 152 L 168.5 158 L 170 157.5 L 169 159.5 L 172 161.5 Q 169.8 162.8 172.5 164 Q 173.8 161.8 175 164.5 L 175.5 166 L 177.5 165 L 178.5 167 L 182 166.5 L 182.5 165 L 184.5 166 L 188.5 161 L 191 159.5 L 190 156.5 L 191 156.5 L 191.5 158 L 192.5 156 L 193.5 157 L 201.5 157 L 202.5 158 L 213.5 158 L 215 157.5 L 214 159.5 L 216 159.5 L 215.5 161 L 219 163.5 L 219.5 165 L 221 164.5 L 221.5 166 L 226.5 165 L 228.5 166 L 229.5 164 Q 230.8 166.3 232 163.5 L 232.5 162 L 235 160.5 L 234.5 159 L 236 159.5 L 236.5 158 L 237.5 159 L 252.5 159 L 253.5 160 L 264.5 160 L 265.5 161 L 267 160.5 L 266.5 162 L 270.5 161 L 273.5 162 L 273 160.5 L 275.5 158 L 275.5 160 L 286.5 160 L 287.5 161 L 303.5 161 L 306.5 160 L 309 162.5 L 309.5 164 L 311 163.5 L 310.5 165 Q 312.3 163.3 316.5 164 L 318.5 165 L 319.5 163 Q 320.5 165 321.5 163 L 324.5 161 L 327.5 161 L 328.5 162 L 351.5 162 L 353.5 163 L 355 162.5 L 354.5 164 L 356.5 163 L 356.5 165 L 363 164.5 L 363.5 163 L 365.5 164 L 365 162.5 L 367.5 160 L 367.5 162 L 401.5 162 L 402.5 161 L 405.5 162 Q 406.5 160 407.5 162 L 416.5 162 L 417.5 161 L 418.5 162 L 432.5 162 L 433.5 161 L 456.5 161 L 457.5 160 L 458.5 161 L 464.5 161 L 465.5 160 L 488.5 160 L 489.5 159 L 499.5 159 L 500.5 158 L 501 163.5 L 498 169.5 L 495.5 172 L 439.5 172 L 438.5 171 L 406.5 171 L 405.5 172 Q 400.7 170.8 399.5 173 L 335.5 173 L 334.5 172 L 299.5 172 L 295.5 174 L 293.5 173 L 292.5 174 L 229.5 174 Q 228.5 172 227.5 174 L 224.5 173 L 202.5 173 L 201.5 174 L 189.5 174 L 188.5 175 L 155.5 175 L 156 173.5 L 160 163.5 L 160 146.5 L 159 145.5 L 158 139.5 L 156 136.5 L 180.5 136 L 181.5 135 L 286.5 135 L 287.5 134 L 382.5 134 L 383.5 133 L 384.5 134 L 391.5 134 L 392.5 133 L 488.5 133 L 489.5 132 Z " /><path fill="rgb(181,117,31)" stroke="rgb(181,117,31)" stroke-width="1" opacity="0.984313725490196" d="M 501.5 132 L 572.5 132 L 574 133.5 L 578 145.5 L 578 156.5 L 577 157.5 L 577 161.5 L 575 167.5 L 571.5 171 L 545.5 171 L 544.5 170 L 510.5 170 L 509.5 171 L 500.5 172 L 500.5 171 L 502 170.5 L 505 164.5 L 506.5 157 L 507.5 159 L 508.5 158 L 519.5 158 L 520.5 157 L 531.5 157 L 534.5 156 L 535.5 157 L 537 156.5 L 536 157.5 L 540.5 162 L 542 161.5 L 542.5 163 L 547.5 162 L 549.5 163 L 550.5 161 L 552 161.5 L 554.5 158 L 557 156.5 L 556 154.5 L 558 154.5 L 557.5 148 L 556 148.5 L 557 146.5 L 552 142.5 L 550.5 140 L 547.5 141 L 546.5 139 L 545 139.5 L 545.5 141 L 541.5 140 L 541.5 142 L 540 141.5 L 537.5 145 L 536 145.5 L 536.5 147 L 535 146.5 L 534.5 148 L 531.5 147 Q 530.5 149 529.5 147 L 510.5 147 L 507.5 146 L 506 146.5 L 505 138.5 L 501 132.5 L 501.5 132 Z " /><path fill="rgb(181,117,31)" stroke="rgb(181,117,31)" stroke-width="1" opacity="0.984313725490196" d="M 585.5 132 L 595.5 132 L 599 134.5 L 598.5 136 L 600 136.5 L 599 138.5 L 601 138.5 L 600 141.5 L 602 142.5 Q 602.8 145.8 601 146.5 L 601 156.5 L 602 159.5 L 600 160.5 L 601 163.5 L 599 164.5 L 599.5 166 L 598 166.5 L 598.5 168 L 594.5 171 Q 593.5 169 592.5 171 L 585 170.5 L 587 168.5 L 589 163.5 L 589 157.5 L 590 156.5 L 590 146.5 L 589 145.5 L 589 139.5 L 588 136.5 L 585 132.5 L 585.5 132 Z " /><path fill="rgb(181,117,31)" stroke="rgb(181,117,31)" stroke-width="1" opacity="0.984313725490196" d="M 92.5 136 L 100.5 136 L 103 137.5 L 107 147.5 L 107 163.5 L 106 164.5 L 105 170.5 L 102.5 174 L 100.5 175 Q 99.5 173 95.5 174 Q 94.3 176.3 93 173.5 L 96 171.5 L 95.5 170 L 97 169.5 L 96.5 168 L 98 167.5 L 97 165.5 L 99 164.5 Q 97.2 162.3 98 157.5 L 99 157.5 L 99.5 160 L 100 153.5 L 99 153.5 L 98.5 156 L 98 150.5 L 99 147.5 L 97 147.5 L 98 144.5 L 96 143.5 L 96.5 142 L 95 141.5 Q 97.3 140.3 94.5 139 L 92 137.5 L 92.5 136 Z " /><path fill="rgb(181,117,31)" stroke="rgb(181,117,31)" stroke-width="1" opacity="0.984313725490196" d="M 114.5 136 L 125.5 136 L 127 137.5 L 125 138.5 L 126 139.5 L 125.5 141 L 128 142.5 L 128.5 144 L 130.5 143 L 131.5 145 L 137 144.5 L 137.5 143 L 139.5 144 L 141.5 141 L 143 140.5 L 142.5 138 L 141 137.5 L 142.5 136 L 149.5 136 L 153 139.5 L 155 144.5 Q 153.8 149.2 156 150.5 L 156 160.5 L 155 161.5 L 154 168.5 L 149.5 175 L 124.5 175 L 122.5 174 L 120.5 175 Q 119.8 173.3 116.5 174 L 115 174.5 L 118 169.5 Q 117 165.5 119 164.5 L 119 147.5 Q 117 146.5 118 142.5 L 114 136.5 L 114.5 136 Z " /><path fill="rgb(181,117,31)" stroke="rgb(181,117,31)" stroke-width="1" opacity="0.984313725490196" d="M 90.5 142 Q 93.3 143.3 91 144.5 L 91.5 146 L 93 145.5 L 92 147.5 L 94 148.5 Q 94.8 151.8 93 152.5 L 93 160.5 L 94 163.5 L 92 164.5 L 93 166.5 Q 92 168 91 165.5 L 91 147.5 L 90 144.5 L 91 143.5 L 90.5 142 Z " /><path fill="rgb(181,117,31)" stroke="rgb(181,117,31)" stroke-width="1" opacity="0.984313725490196" d="M 535.5 149 L 536 153.5 L 535 153.5 L 535.5 149 Z " /><path fill="rgb(188,135,62)" stroke="rgb(188,135,62)" stroke-width="1" opacity="0.9882352941176471" d="M 89.5 141 L 91 143.5 L 90 146.5 L 91 147.5 L 91 165.5 L 92 167.5 L 90.5 170 L 89 168.5 L 89 152.5 L 88 151.5 L 88 142.5 L 89.5 141 Z " /><path fill="rgb(188,135,62)" stroke="rgb(188,135,62)" stroke-width="1" opacity="0.9882352941176471" d="M 322.5 144 Q 324 147.5 325.5 145 L 351.5 145 L 352.5 144 Q 354 145 351.5 146 L 350 146.5 L 350.5 148 L 349 148.5 L 350 151.5 L 349 151.5 Q 349.5 148.5 347.5 148 L 327 148.5 L 326.5 150 L 325.5 148 L 324 148.5 L 324.5 147 L 322 145.5 L 322.5 144 Z " /><path fill="rgb(188,135,62)" stroke="rgb(188,135,62)" stroke-width="1" opacity="0.9882352941176471" d="M 367.5 144 L 368.5 145 L 401.5 145 Q 402.3 143.3 405.5 144 L 405.5 145 L 403.5 145 L 399.5 148 Q 398.5 146 397.5 148 L 372.5 148 L 371.5 149 L 370.5 148 L 369 148.5 L 369.5 147 L 368 146.5 L 367.5 144 Z " /><path fill="rgb(188,135,62)" stroke="rgb(188,135,62)" stroke-width="1" opacity="0.9882352941176471" d="M 304.5 145 L 305.5 146 L 307 145.5 L 305.5 148 L 303.5 149 L 278.5 149 L 277.5 150 L 276.5 149 L 275 149.5 L 275.5 148 L 274 147.5 L 275.5 146 L 303.5 146 L 304.5 145 Z " /><path fill="rgb(188,135,62)" stroke="rgb(188,135,62)" stroke-width="1" opacity="0.9882352941176471" d="M 407.5 145 L 476.5 145 L 477.5 146 L 499.5 146 L 502 147.5 L 501.5 160 L 500.5 158 L 499.5 159 L 489.5 159 L 488.5 160 L 465.5 160 L 464.5 161 L 458.5 161 Q 457.5 159 456.5 161 L 433.5 161 L 432.5 162 L 418.5 162 Q 417.5 160 416.5 162 L 407 161.5 L 407.5 159 Q 408.5 161 409.5 159 L 411.5 158 L 412.5 159 L 420.5 159 L 421.5 158 L 442.5 158 L 443.5 157 L 444.5 158 L 458.5 158 L 459.5 157 L 481.5 157 L 482.5 156 L 490.5 156 L 491.5 155 L 492.5 156 L 498.5 156 L 499.5 155 L 501 155.5 L 500.5 149 L 477.5 149 L 476.5 148 L 413.5 148 L 412.5 149 L 411.5 148 L 410 148.5 Q 412.3 147.3 409.5 146 Q 406.5 146.5 407.5 145 Z " /><path fill="rgb(188,135,62)" stroke="rgb(188,135,62)" stroke-width="1" opacity="0.9882352941176471" d="M 266.5 146 L 269 146.5 L 263 149.5 L 263.5 151 L 260.5 150 L 238.5 150 L 236.5 151 L 233 147.5 L 233.5 147 L 235.5 148 L 236.5 147 L 265.5 147 L 266.5 146 Z " /><path fill="rgb(188,135,62)" stroke="rgb(188,135,62)" stroke-width="1" opacity="0.9882352941176471" d="M 507.5 146 L 510.5 147 L 529.5 147 L 530.5 148 Q 531.5 146 532.5 148 L 535.5 147 L 536 148.5 Q 533.5 149 534 152.5 L 537 157.5 L 536.5 158 L 534.5 156 L 531.5 157 L 520.5 157 L 519.5 158 L 508.5 158 L 507.5 159 L 506 155.5 L 515.5 155 L 516.5 154 L 522.5 154 L 527 152.5 L 526.5 151 Q 522.5 152 521.5 150 L 506 149.5 Q 505.5 146.5 507.5 146 Z " /><path fill="rgb(188,135,62)" stroke="rgb(188,135,62)" stroke-width="1" opacity="0.9882352941176471" d="M 589.5 146 L 590 149.5 L 589 149.5 L 589.5 146 Z " /><path fill="rgb(188,135,62)" stroke="rgb(188,135,62)" stroke-width="1" opacity="0.9882352941176471" d="M 189.5 148 L 190.5 149 L 200.5 149 L 203.5 148 Q 204.5 150 205.5 148 L 216 148.5 L 214 149.5 L 215 152.5 L 214 152.5 L 213.5 151 L 213 155.5 L 215 158.5 L 213.5 158 L 202.5 158 L 201.5 157 L 193.5 157 L 192.5 156 L 190.5 159 L 191 157.5 L 192 153.5 L 190 151.5 L 191 150.5 L 189 148.5 L 189.5 148 Z " /><path fill="rgb(188,135,62)" stroke="rgb(188,135,62)" stroke-width="1" opacity="0.9882352941176471" d="M 557.5 149 L 558 153.5 L 557 153.5 L 557.5 149 Z " /><path fill="rgb(188,135,62)" stroke="rgb(188,135,62)" stroke-width="1" opacity="0.9882352941176471" d="M 169.5 150 L 169 151.5 L 168.5 158 L 167.5 152 L 166.5 155 L 162 153.5 L 163.5 151 Q 168.2 152.3 169.5 150 Z " /><path fill="rgb(188,135,62)" stroke="rgb(188,135,62)" stroke-width="1" opacity="0.9882352941176471" d="M 235.5 152 L 236.5 156 L 237.5 153 L 238.5 156 Q 239.5 154 240.5 156 L 251.5 156 L 252.5 155 L 253.5 156 L 259.5 156 Q 261 153.5 262.5 157 L 264 157.5 L 267 161.5 L 266.5 162 L 264.5 160 L 253.5 160 L 252.5 159 L 237.5 159 L 236.5 158 L 235.5 160 L 235.5 152 Z " /><path fill="rgb(188,135,62)" stroke="rgb(188,135,62)" stroke-width="1" opacity="0.9882352941176471" d="M 325.5 152 L 326 154.5 L 325 154.5 L 325.5 152 Z " /><path fill="rgb(188,135,62)" stroke="rgb(188,135,62)" stroke-width="1" opacity="0.9882352941176471" d="M 349.5 154 L 350 156.5 L 349 156.5 L 349.5 154 Z " /><path fill="rgb(188,135,62)" stroke="rgb(188,135,62)" stroke-width="1" opacity="0.9882352941176471" d="M 589.5 154 L 590 156.5 L 589 156.5 L 589.5 154 Z " /><path fill="rgb(188,135,62)" stroke="rgb(188,135,62)" stroke-width="1" opacity="0.9882352941176471" d="M 276.5 156 L 279.5 157 L 295.5 157 Q 296.8 159.3 301.5 158 Q 303 155.5 304.5 159 L 306 159.5 L 308 162.5 L 307.5 163 L 304.5 160 L 303.5 161 L 287.5 161 L 286.5 160 L 275.5 160 L 273.5 162 L 273 161.5 Q 276.2 160.3 276.5 156 Z " /><path fill="rgb(188,135,62)" stroke="rgb(188,135,62)" stroke-width="1" opacity="0.9882352941176471" d="M 326.5 157 L 327.5 158 L 342.5 158 Q 343.5 160 347.5 159 L 348.5 158 L 349.5 159 L 351 158.5 L 350.5 160 L 356 163.5 L 354.5 164 L 351.5 162 L 328.5 162 Q 327.8 160.2 324.5 161 L 321.5 163 L 321 162.5 L 323.5 160 L 325 159.5 L 324.5 158 L 326 158.5 L 326.5 157 Z " /><path fill="rgb(188,135,62)" stroke="rgb(188,135,62)" stroke-width="1" opacity="0.9882352941176471" d="M 399.5 157 Q 400.9 160.6 406 160.5 L 405.5 162 L 402.5 161 L 401.5 162 L 367.5 162 L 365.5 164 L 365 163.5 L 367.5 161 L 369 160.5 L 368.5 159 L 369.5 160 Q 371 156.5 372.5 159 L 400 158.5 L 399.5 157 Z " /><path fill="rgb(201,130,31)" stroke="rgb(201,130,31)" stroke-width="1" opacity="0.8705882352941177" d="M 547.5 131 L 572 131.5 L 547.5 132 L 547.5 131 Z " /><path fill="rgb(201,130,31)" stroke="rgb(201,130,31)" stroke-width="1" opacity="0.8705882352941177" d="M 584.5 131 L 595.5 131 L 598 133.5 L 597.5 134 L 595.5 132 L 584.5 132 L 584.5 131 Z " /><path fill="rgb(201,130,31)" stroke="rgb(201,130,31)" stroke-width="1" opacity="0.8705882352941177" d="M 443.5 132 L 489 132.5 L 443.5 133 L 443.5 132 Z " /><path fill="rgb(201,130,31)" stroke="rgb(201,130,31)" stroke-width="1" opacity="0.8705882352941177" d="M 490.5 132 L 494 132.5 L 490.5 133 L 490.5 132 Z " /><path fill="rgb(201,130,31)" stroke="rgb(201,130,31)" stroke-width="1" opacity="0.8705882352941177" d="M 337.5 133 L 383 133.5 L 337.5 134 L 337.5 133 Z " /><path fill="rgb(201,130,31)" stroke="rgb(201,130,31)" stroke-width="1" opacity="0.8705882352941177" d="M 384.5 133 L 392 133.5 L 384.5 134 L 384.5 133 Z " /><path fill="rgb(201,130,31)" stroke="rgb(201,130,31)" stroke-width="1" opacity="0.8705882352941177" d="M 230.5 134 L 287 134.5 L 230.5 135 L 230.5 134 Z " /><path fill="rgb(201,130,31)" stroke="rgb(201,130,31)" stroke-width="1" opacity="0.8705882352941177" d="M 124.5 135 L 128 135.5 L 127.5 137 L 124.5 136 L 124.5 135 Z " /><path fill="rgb(201,130,31)" stroke="rgb(201,130,31)" stroke-width="1" opacity="0.8705882352941177" d="M 138.5 135 L 150 135.5 L 142.5 136 L 140.5 137 L 138 135.5 L 138.5 135 Z " /><path fill="rgb(201,130,31)" stroke="rgb(201,130,31)" stroke-width="1" opacity="0.8705882352941177" d="M 154.5 135 L 181 135.5 L 154.5 136 L 154.5 135 Z " /><path fill="rgb(201,130,31)" stroke="rgb(201,130,31)" stroke-width="1" opacity="0.8705882352941177" d="M 142.5 138 L 143 140.5 L 142 140.5 L 142.5 138 Z " /><path fill="rgb(201,130,31)" stroke="rgb(201,130,31)" stroke-width="1" opacity="0.8705882352941177" d="M 541.5 140 L 543 140.5 L 540.5 142 Q 539 141 541.5 140 Z " /><path fill="rgb(201,130,31)" stroke="rgb(201,130,31)" stroke-width="1" opacity="0.8705882352941177" d="M 549.5 140 L 552 141.5 L 550.5 141 Q 548.1 140.9 549.5 140 Z " /><path fill="rgb(201,130,31)" stroke="rgb(201,130,31)" stroke-width="1" opacity="0.8705882352941177" d="M 357.5 141 L 362.5 141 L 367 143.5 L 365.5 144 Q 363.5 141 357.5 142 L 357.5 141 Z " /><path fill="rgb(201,130,31)" stroke="rgb(201,130,31)" stroke-width="1" opacity="0.8705882352941177" d="M 140.5 142 Q 142 143 139.5 144 L 138 143.5 L 140.5 142 Z " /><path fill="rgb(201,130,31)" stroke="rgb(201,130,31)" stroke-width="1" opacity="0.8705882352941177" d="M 310.5 142 L 313 142.5 L 309.5 144 Q 308 143 310.5 142 Z " /><path fill="rgb(201,130,31)" stroke="rgb(201,130,31)" stroke-width="1" opacity="0.8705882352941177" d="M 354.5 142 L 356 142.5 L 353.5 144 Q 352 143 354.5 142 Z " /><path fill="rgb(201,130,31)" stroke="rgb(201,130,31)" stroke-width="1" opacity="0.8705882352941177" d="M 553.5 142 L 556 144.5 L 555.5 145 L 553 142.5 L 553.5 142 Z " /><path fill="rgb(201,130,31)" stroke="rgb(201,130,31)" stroke-width="1" opacity="0.8705882352941177" d="M 176.5 143 L 183 143.5 L 176.5 144 L 171.5 148 L 171 147.5 L 174.5 144 L 176.5 143 Z " /><path fill="rgb(201,130,31)" stroke="rgb(201,130,31)" stroke-width="1" opacity="0.8705882352941177" d="M 220.5 143 L 222 143.5 L 219.5 145 Q 218 144 220.5 143 Z " /><path fill="rgb(201,130,31)" stroke="rgb(201,130,31)" stroke-width="1" opacity="0.8705882352941177" d="M 228.5 143 L 231 144.5 L 229.5 144 Q 227.1 143.9 228.5 143 Z " /><path fill="rgb(201,130,31)" stroke="rgb(201,130,31)" stroke-width="1" opacity="0.8705882352941177" d="M 131.5 144 L 137 144.5 L 131.5 145 L 131.5 144 Z " /><path fill="rgb(201,130,31)" stroke="rgb(201,130,31)" stroke-width="1" opacity="0.8705882352941177" d="M 184.5 144 L 189 147.5 L 188.5 148 L 185.5 145 Q 183.1 144.9 184.5 144 Z " /><path fill="rgb(201,130,31)" stroke="rgb(201,130,31)" stroke-width="1" opacity="0.8705882352941177" d="M 217.5 145 L 218 145.5 L 215.5 148 L 215 147.5 L 217.5 145 Z " /><path fill="rgb(201,130,31)" stroke="rgb(201,130,31)" stroke-width="1" opacity="0.8705882352941177" d="M 232.5 145 L 235 147.5 L 234.5 148 L 232 145.5 L 232.5 145 Z " /><path fill="rgb(201,130,31)" stroke="rgb(201,130,31)" stroke-width="1" opacity="0.8705882352941177" d="M 601.5 146 L 602 156.5 L 601 156.5 L 601.5 146 Z " /><path fill="rgb(201,130,31)" stroke="rgb(201,130,31)" stroke-width="1" opacity="0.8705882352941177" d="M 98.5 147 L 99 149.5 L 98 149.5 L 98.5 147 Z " /><path fill="rgb(201,130,31)" stroke="rgb(201,130,31)" stroke-width="1" opacity="0.8705882352941177" d="M 93.5 152 L 94 160.5 L 93 160.5 L 93.5 152 Z " /><path fill="rgb(201,130,31)" stroke="rgb(201,130,31)" stroke-width="1" opacity="0.8705882352941177" d="M 99.5 153 L 100 159.5 L 99 159.5 L 99.5 153 Z " /><path fill="rgb(201,130,31)" stroke="rgb(201,130,31)" stroke-width="1" opacity="0.8705882352941177" d="M 557.5 154 L 557 155.5 L 555.5 158 L 556 156.5 L 557.5 154 Z " /><path fill="rgb(201,130,31)" stroke="rgb(201,130,31)" stroke-width="1" opacity="0.8705882352941177" d="M 537.5 158 L 541 161.5 L 540.5 162 L 537 158.5 L 537.5 158 Z " /><path fill="rgb(201,130,31)" stroke="rgb(201,130,31)" stroke-width="1" opacity="0.8705882352941177" d="M 170.5 161 L 174 164.5 L 173.5 165 L 170 161.5 L 170.5 161 Z " /><path fill="rgb(201,130,31)" stroke="rgb(201,130,31)" stroke-width="1" opacity="0.8705882352941177" d="M 188.5 162 L 189 162.5 L 186.5 165 L 186 164.5 L 188.5 162 Z " /><path fill="rgb(201,130,31)" stroke="rgb(201,130,31)" stroke-width="1" opacity="0.8705882352941177" d="M 309.5 163 L 312 164.5 L 310.5 165 Q 308 164 309.5 163 Z " /><path fill="rgb(201,130,31)" stroke="rgb(201,130,31)" stroke-width="1" opacity="0.8705882352941177" d="M 356.5 164 L 363 164.5 L 356.5 165 L 356.5 164 Z " /><path fill="rgb(201,130,31)" stroke="rgb(201,130,31)" stroke-width="1" opacity="0.8705882352941177" d="M 178.5 166 L 182 166.5 L 178.5 167 L 178.5 166 Z " /><path fill="rgb(201,130,31)" stroke="rgb(201,130,31)" stroke-width="1" opacity="0.8705882352941177" d="M 597.5 168 L 598 168.5 L 595.5 171 L 595 170.5 L 597.5 168 Z " /><path fill="rgb(201,130,31)" stroke="rgb(201,130,31)" stroke-width="1" opacity="0.8705882352941177" d="M 510.5 170 L 545 170.5 L 510.5 171 L 510.5 170 Z " /><path fill="rgb(201,130,31)" stroke="rgb(201,130,31)" stroke-width="1" opacity="0.8705882352941177" d="M 406.5 171 L 439 171.5 L 406.5 172 L 406.5 171 Z " /><path fill="rgb(201,130,31)" stroke="rgb(201,130,31)" stroke-width="1" opacity="0.8705882352941177" d="M 299.5 172 L 335 172.5 L 299.5 173 L 299.5 172 Z " /><path fill="rgb(201,130,31)" stroke="rgb(201,130,31)" stroke-width="1" opacity="0.8705882352941177" d="M 202.5 173 L 225 173.5 L 202.5 174 L 202.5 173 Z " /><path fill="rgb(201,130,31)" stroke="rgb(201,130,31)" stroke-width="1" opacity="0.8705882352941177" d="M 95.5 174 L 100 174.5 L 95.5 175 L 95.5 174 Z " /><path fill="rgb(201,130,31)" stroke="rgb(201,130,31)" stroke-width="1" opacity="0.8705882352941177" d="M 116.5 174 L 120 174.5 L 116.5 175 L 116.5 174 Z " /><path fill="rgb(200,147,79)" stroke="rgb(200,147,79)" stroke-width="1" opacity="0.9882352941176471" d="M 500.5 132 L 503 134.5 L 502.5 135 L 500 132.5 L 500.5 132 Z " /><path fill="rgb(200,147,79)" stroke="rgb(200,147,79)" stroke-width="1" opacity="0.9882352941176471" d="M 86.5 140 L 89 141.5 L 88 142.5 L 88 151.5 L 89 152.5 L 89 168.5 L 90 170.5 L 86.5 172 L 87 170.5 L 86 169.5 L 86 143.5 L 84.5 142 L 83 142.5 L 84.5 141 L 86 141.5 L 86.5 140 Z " /><path fill="rgb(200,147,79)" stroke="rgb(200,147,79)" stroke-width="1" opacity="0.9882352941176471" d="M 409.5 146 L 412.5 149 L 413.5 148 L 476.5 148 L 477.5 149 L 501 149.5 L 500.5 156 Q 499.5 154 498.5 156 L 492.5 156 L 491.5 155 L 490.5 156 L 482.5 156 L 481.5 157 L 459.5 157 L 458.5 158 L 444.5 158 Q 443.5 156 442.5 158 L 421.5 158 L 420.5 159 L 412.5 159 Q 411.5 157 410.5 159 L 408.5 160 L 408 159.5 L 411 156.5 Q 412.7 154.7 412 150.5 L 409 146.5 L 409.5 146 Z " /><path fill="rgb(200,147,79)" stroke="rgb(200,147,79)" stroke-width="1" opacity="0.9882352941176471" d="M 324.5 147 L 326.5 150 L 327.5 148 L 347.5 148 L 348.5 149 L 350 148.5 L 349 149.5 L 349 156.5 L 351 159.5 L 350.5 160 L 348.5 158 L 347.5 159 Q 343.5 160 342.5 158 L 327.5 158 L 326.5 157 L 324.5 160 L 325 158.5 L 326 152.5 L 325 151.5 L 325 148.5 L 324.5 147 Z " /><path fill="rgb(200,147,79)" stroke="rgb(200,147,79)" stroke-width="1" opacity="0.9882352941176471" d="M 369.5 147 Q 371 150.5 372.5 148 L 397.5 148 L 398.5 147 L 399 148.5 L 398 149.5 L 398 155.5 L 401 159.5 L 399.5 159 L 372.5 159 L 371.5 158 L 368.5 161 L 368 160.5 L 370 157.5 L 371 152.5 L 370 151.5 L 370 148.5 L 369.5 147 Z " /><path fill="rgb(200,147,79)" stroke="rgb(200,147,79)" stroke-width="1" opacity="0.9882352941176471" d="M 275.5 148 Q 277 151.5 278.5 149 L 303.5 149 L 304.5 148 L 305 149.5 L 304 150.5 L 304 156.5 L 305 158.5 L 304.5 159 L 302.5 157 L 301.5 158 Q 296.8 159.3 295.5 157 L 279.5 157 L 278.5 156 L 277 156.5 L 277 151.5 L 275 148.5 L 275.5 148 Z " /><path fill="rgb(200,147,79)" stroke="rgb(200,147,79)" stroke-width="1" opacity="0.9882352941176471" d="M 263.5 149 L 263 150.5 L 262.5 157 Q 261 153.5 259.5 156 L 253.5 156 L 252.5 155 L 251.5 156 L 240.5 156 L 239.5 155 L 238 155.5 L 237.5 153 L 236.5 156 L 235 150.5 L 236.5 151 L 238.5 150 L 260.5 150 Q 262 152.5 263.5 149 Z " /><path fill="rgb(200,147,79)" stroke="rgb(200,147,79)" stroke-width="1" opacity="0.9882352941176471" d="M 506.5 150 L 521.5 150 L 522.5 151 L 527 151.5 L 526.5 153 Q 523.3 152.3 522.5 154 L 516.5 154 L 515.5 155 L 506.5 155 L 506.5 150 Z " /><path fill="rgb(200,147,79)" stroke="rgb(200,147,79)" stroke-width="1" opacity="0.9882352941176471" d="M 534.5 150 L 535 152.5 L 534 152.5 L 534.5 150 Z " /><path fill="rgb(200,147,79)" stroke="rgb(200,147,79)" stroke-width="1" opacity="0.9882352941176471" d="M 589.5 150 L 590 153.5 L 589 153.5 L 589.5 150 Z " /><path fill="rgb(200,147,79)" stroke="rgb(200,147,79)" stroke-width="1" opacity="0.9882352941176471" d="M 213.5 151 L 214 155.5 L 213 155.5 L 213.5 151 Z " /><path fill="rgb(200,147,79)" stroke="rgb(200,147,79)" stroke-width="1" opacity="0.9882352941176471" d="M 107.5 152 L 108 159.5 L 107 159.5 L 107.5 152 Z " /><path fill="rgb(229,200,158)" stroke="rgb(229,200,158)" stroke-width="1" opacity="0.9882352941176471" d="M 85.5 141 L 86 141.5 L 84 143.5 L 82.5 148 L 81 147.5 L 85.5 141 Z " /><path fill="rgb(229,200,158)" stroke="rgb(229,200,158)" stroke-width="1" opacity="0.9882352941176471" d="M 80.5 151 L 82 151.5 Q 80.8 156.2 83 157.5 L 81.5 160 L 80 159.5 Q 82.3 158.3 81 153.5 Q 79.3 152.8 80.5 151 Z " /><path fill="rgb(229,200,158)" stroke="rgb(229,200,158)" stroke-width="1" opacity="0.9882352941176471" d="M 82.5 163 Q 82.6 168.4 86 170.5 L 85.5 171 L 83 168.5 L 81 164.5 L 82.5 163 Z " /><path fill="rgb(234,232,232)" stroke="rgb(234,232,232)" stroke-width="1" opacity="0.9921568627450981" d="M 572.5 131 L 582.5 131 L 586 134.5 L 588 139.5 L 588 143.5 L 587 143.5 L 586.5 140 L 580.5 142 L 579 141.5 L 578.5 146 L 577 138.5 L 572 131.5 L 572.5 131 Z " /><path fill="rgb(234,232,232)" stroke="rgb(234,232,232)" stroke-width="1" opacity="0.9921568627450981" d="M 102.5 136 L 112.5 136 L 116 139.5 L 117 145.5 L 118 146.5 L 118 150.5 L 117 150.5 Q 117.8 145.8 115.5 144 Q 114.1 146.6 109.5 146 L 108 145.5 L 109 148.5 L 109 163.5 L 108 165.5 L 109.5 165 Q 113.6 164.4 115 166.5 L 115.5 168 L 117.5 160 L 118 165.5 L 117 166.5 L 116 172.5 L 113.5 175 L 103 174.5 L 107 167.5 Q 106.3 164.3 108 163.5 L 108 148.5 L 107 147.5 L 106 141.5 L 102 136.5 L 102.5 136 Z " /><path fill="rgb(234,232,232)" stroke="rgb(234,232,232)" stroke-width="1" opacity="0.9921568627450981" d="M 80.5 154 L 81 157.5 L 80 157.5 L 80.5 154 Z " /><path fill="rgb(234,232,232)" stroke="rgb(234,232,232)" stroke-width="1" opacity="0.9921568627450981" d="M 588.5 155 L 589 157.5 L 588 157.5 L 588.5 155 Z " /><path fill="rgb(234,232,232)" stroke="rgb(234,232,232)" stroke-width="1" opacity="0.9921568627450981" d="M 578.5 157 L 579.5 161 Q 580.5 159 581.5 161 L 586 161.5 L 586.5 163 L 587.5 159 L 588 164.5 L 584.5 170 L 582.5 171 L 573.5 171 L 573 170.5 L 575 168.5 L 578 161.5 L 578.5 157 Z " /><path fill="rgb(234,232,232)" stroke="rgb(234,232,232)" stroke-width="1" opacity="0.9921568627450981" d="M 81.5 161 L 82 163.5 L 81 163.5 L 81.5 161 Z " /><path fill="rgb(244,238,229)" stroke="rgb(244,238,229)" stroke-width="1" opacity="0.11764705882352941" d="M 576.5 128 L 582 128.5 L 576.5 129 L 576.5 128 Z " /><path fill="rgb(244,238,229)" stroke="rgb(244,238,229)" stroke-width="1" opacity="0.11764705882352941" d="M 496.5 131 L 499 131.5 L 496.5 132 L 496.5 131 Z " /><path fill="rgb(244,238,229)" stroke="rgb(244,238,229)" stroke-width="1" opacity="0.11764705882352941" d="M 101.5 133 L 114 133.5 L 101.5 134 L 101.5 133 Z " /><path fill="rgb(244,238,229)" stroke="rgb(244,238,229)" stroke-width="1" opacity="0.11764705882352941" d="M 101.5 135 L 113 135.5 L 101.5 136 L 101.5 135 Z " /><path fill="rgb(156,150,140)" stroke="rgb(156,150,140)" stroke-width="1" opacity="0.7529411764705882" d="M 102.5 175 L 112 175.5 L 102.5 176 L 102.5 175 Z " /><path fill="rgb(70,50,28)" stroke="rgb(70,50,28)" stroke-width="1" opacity="0.7490196078431373" d="M 78.5 167 L 81 170.5 L 80.5 171 L 78 168.5 L 78.5 167 Z " /><path fill="rgb(70,50,28)" stroke="rgb(70,50,28)" stroke-width="1" opacity="0.7490196078431373" d="M 534.5 171 L 564 171.5 L 534.5 172 L 534.5 171 Z " /><path fill="rgb(70,50,28)" stroke="rgb(70,50,28)" stroke-width="1" opacity="0.7490196078431373" d="M 431.5 172 L 463 172.5 L 431.5 173 L 431.5 172 Z " /><path fill="rgb(70,50,28)" stroke="rgb(70,50,28)" stroke-width="1" opacity="0.7490196078431373" d="M 325.5 173 L 354 173.5 L 325.5 174 L 325.5 173 Z " /><path fill="rgb(70,50,28)" stroke="rgb(70,50,28)" stroke-width="1" opacity="0.7490196078431373" d="M 227.5 174 L 245 174.5 L 227.5 175 L 227.5 174 Z " /><path fill="rgb(70,50,28)" stroke="rgb(70,50,28)" stroke-width="1" opacity="0.7490196078431373" d="M 122.5 175 L 140 175.5 L 122.5 176 L 122.5 175 Z " /><path fill="rgb(96,2,2)" stroke="rgb(96,2,2)" stroke-width="1" opacity="0.00784313725490196" d="M 491.5 129 L 496 129.5 L 491.5 130 L 491.5 129 Z " /><path fill="rgb(96,2,2)" stroke="rgb(96,2,2)" stroke-width="1" opacity="0.00784313725490196" d="M 500.5 129 L 505 129.5 L 500.5 130 L 500.5 129 Z " /><path fill="rgb(96,2,2)" stroke="rgb(96,2,2)" stroke-width="1" opacity="0.00784313725490196" d="M 386.5 130 L 399 130.5 L 386.5 131 L 386.5 130 Z " /><path fill="rgb(96,2,2)" stroke="rgb(96,2,2)" stroke-width="1" opacity="0.00784313725490196" d="M 281.5 131 L 293 131.5 L 281.5 132 L 281.5 131 Z " /><path fill="rgb(96,2,2)" stroke="rgb(96,2,2)" stroke-width="1" opacity="0.00784313725490196" d="M 175.5 132 L 188 132.5 L 175.5 133 L 175.5 132 Z " /><path fill="rgb(96,2,2)" stroke="rgb(96,2,2)" stroke-width="1" opacity="0.00784313725490196" d="M 88.5 133 L 89.5 134 L 129.5 134 Q 130.5 132 131.5 134 L 149.5 134 L 152.5 133 L 153.5 134 L 162.5 134 L 164.5 133 L 165.5 134 L 170 134.5 L 88.5 135 L 84.5 137 L 0.5 137 L 0 135.5 L 84.5 135 L 88.5 133 Z " /><path fill="rgb(96,2,2)" stroke="rgb(96,2,2)" stroke-width="1" opacity="0.00784313725490196" d="M 0.5 138 L 82 138.5 L 78 141.5 L 77.5 144 L 0 143.5 L 0.5 138 Z " /><path fill="rgb(96,2,2)" stroke="rgb(96,2,2)" stroke-width="1" opacity="0.00784313725490196" d="M 0.5 146 L 78 146.5 L 0.5 147 L 0.5 146 Z " /><path fill="rgb(205,181,151)" stroke="rgb(205,181,151)" stroke-width="1" opacity="0.996078431372549" d="M 496.5 132 L 499 134.5 L 498.5 135 L 496 132.5 L 496.5 132 Z " /><path fill="rgb(205,181,151)" stroke="rgb(205,181,151)" stroke-width="1" opacity="0.996078431372549" d="M 500.5 134 L 502.5 138 L 504 137.5 L 501.5 143 L 501 141.5 L 502 138.5 L 500 138.5 L 501 136.5 L 499 136.5 L 500.5 134 Z " /><path fill="rgb(205,181,151)" stroke="rgb(205,181,151)" stroke-width="1" opacity="0.996078431372549" d="M 153.5 137 L 155.5 139 L 157 138.5 L 155.5 141 L 154.5 139 L 153 139.5 L 154 138.5 L 153.5 137 Z " /><path fill="rgb(205,181,151)" stroke="rgb(205,181,151)" stroke-width="1" opacity="0.996078431372549" d="M 156.5 142 L 157.5 145 L 158.5 143 L 159 144.5 L 158 145.5 L 157.5 150 L 156.5 145 L 155.5 147 L 155 145.5 L 156.5 142 Z " /><path fill="rgb(205,181,151)" stroke="rgb(205,181,151)" stroke-width="1" opacity="0.996078431372549" d="M 503.5 142 L 504 145.5 L 503 146.5 L 503 157.5 L 505 162.5 Q 504 164 503 161.5 Q 503.7 158.3 502 157.5 L 502 146.5 L 503.5 142 Z " /><path fill="rgb(205,181,151)" stroke="rgb(205,181,151)" stroke-width="1" opacity="0.996078431372549" d="M 84.5 143 L 86 143.5 L 86 169.5 L 87 170.5 L 86.5 171 L 84 168.5 L 83.5 167 L 82 167.5 Q 83.8 166.8 83 163.5 Q 81 162.5 82 158.5 Q 84 157.5 82 156.5 L 82 148.5 L 83 145.5 L 82.5 144 L 84 144.5 L 84.5 143 Z " /><path fill="rgb(205,181,151)" stroke="rgb(205,181,151)" stroke-width="1" opacity="0.996078431372549" d="M 505.5 145 L 506 147.5 L 505 147.5 L 505.5 145 Z " /><path fill="rgb(205,181,151)" stroke="rgb(205,181,151)" stroke-width="1" opacity="0.996078431372549" d="M 107.5 149 L 108 151.5 L 107 151.5 L 107.5 149 Z " /><path fill="rgb(205,181,151)" stroke="rgb(205,181,151)" stroke-width="1" opacity="0.996078431372549" d="M 159.5 149 L 160 160.5 L 159 160.5 L 159.5 149 Z " /><path fill="rgb(205,181,151)" stroke="rgb(205,181,151)" stroke-width="1" opacity="0.996078431372549" d="M 578.5 149 L 579 153.5 L 578 153.5 L 578.5 149 Z " /><path fill="rgb(205,181,151)" stroke="rgb(205,181,151)" stroke-width="1" opacity="0.996078431372549" d="M 118.5 150 L 119 161.5 L 118 161.5 L 118.5 150 Z " /><path fill="rgb(205,181,151)" stroke="rgb(205,181,151)" stroke-width="1" opacity="0.996078431372549" d="M 504.5 150 L 505 153.5 L 504 153.5 L 504.5 150 Z " /><path fill="rgb(205,181,151)" stroke="rgb(205,181,151)" stroke-width="1" opacity="0.996078431372549" d="M 156.5 151 L 157 159.5 L 159 165.5 Q 158 167 157 164.5 Q 158 160.5 156 159.5 L 156.5 151 Z " /><path fill="rgb(205,181,151)" stroke="rgb(205,181,151)" stroke-width="1" opacity="0.996078431372549" d="M 505.5 156 L 506 158.5 L 505 158.5 L 505.5 156 Z " /><path fill="rgb(205,181,151)" stroke="rgb(205,181,151)" stroke-width="1" opacity="0.996078431372549" d="M 501.5 161 L 504 165.5 Q 503 167 502 164.5 L 501.5 161 Z " /><path fill="rgb(205,181,151)" stroke="rgb(205,181,151)" stroke-width="1" opacity="0.996078431372549" d="M 155.5 164 L 158 168.5 Q 157 170 156 167.5 L 155.5 164 Z " /><path fill="rgb(205,181,151)" stroke="rgb(205,181,151)" stroke-width="1" opacity="0.996078431372549" d="M 500.5 165 L 502 167.5 L 501 168.5 L 501.5 170 L 499 167.5 L 499.5 167 L 501 167.5 L 500.5 165 Z " /><path fill="rgb(205,181,151)" stroke="rgb(205,181,151)" stroke-width="1" opacity="0.996078431372549" d="M 154.5 168 L 156 170.5 L 155 171.5 L 155.5 173 L 153 170.5 L 153.5 170 L 155 170.5 L 154.5 168 Z " /><path fill="rgb(205,181,151)" stroke="rgb(205,181,151)" stroke-width="1" opacity="0.996078431372549" d="M 498.5 169 L 498.5 172 L 497 171.5 L 498.5 169 Z " /><path fill="rgb(205,181,151)" stroke="rgb(205,181,151)" stroke-width="1" opacity="0.996078431372549" d="M 152.5 172 L 153 172.5 L 150.5 175 L 150 174.5 L 152.5 172 Z " /><path fill="rgb(114,77,29)" stroke="rgb(114,77,29)" stroke-width="1" opacity="0.7686274509803922" d="M 602.5 148 L 603 153.5 L 602 153.5 L 602.5 148 Z " /><path fill="rgb(114,77,29)" stroke="rgb(114,77,29)" stroke-width="1" opacity="0.7686274509803922" d="M 94.5 153 L 95 158.5 L 94 158.5 L 94.5 153 Z " /><path fill="rgb(114,77,29)" stroke="rgb(114,77,29)" stroke-width="1" opacity="0.7686274509803922" d="M 504.5 171 L 534 171.5 L 504.5 172 L 504.5 171 Z " /><path fill="rgb(114,77,29)" stroke="rgb(114,77,29)" stroke-width="1" opacity="0.7686274509803922" d="M 400.5 172 L 431 172.5 L 400.5 173 L 400.5 172 Z " /><path fill="rgb(114,77,29)" stroke="rgb(114,77,29)" stroke-width="1" opacity="0.7686274509803922" d="M 296.5 173 L 325 173.5 L 296.5 174 L 296.5 173 Z " /><path fill="rgb(114,77,29)" stroke="rgb(114,77,29)" stroke-width="1" opacity="0.7686274509803922" d="M 189.5 174 L 227 174.5 L 189.5 175 L 189.5 174 Z " /><path fill="rgb(114,77,29)" stroke="rgb(114,77,29)" stroke-width="1" opacity="0.7686274509803922" d="M 90.5 175 L 101 175.5 L 90.5 176 L 90.5 175 Z " /><path fill="rgb(114,77,29)" stroke="rgb(114,77,29)" stroke-width="1" opacity="0.7686274509803922" d="M 113.5 175 L 122 175.5 L 113.5 176 L 113.5 175 Z " /><path fill="rgb(212,206,203)" stroke="rgb(212,206,203)" stroke-width="1" opacity="0.996078431372549" d="M 497.5 132 L 499.5 132 L 503 135.5 L 505 141.5 L 506 155.5 L 505 156.5 L 505 161.5 L 503 167.5 L 499.5 171 L 499 168.5 L 501 165.5 L 502 158.5 L 503 157.5 L 503 146.5 L 502 145.5 L 501 138.5 L 497 132.5 L 497.5 132 Z M 503 138 L 502 141 L 503 141 L 503 138 Z M 504 142 L 503 146 L 504 146 L 504 142 Z M 505 150 L 504 154 L 505 154 L 505 150 Z M 504 158 L 503 162 L 504 162 L 504 158 Z " /><path fill="rgb(212,206,203)" stroke="rgb(212,206,203)" stroke-width="1" opacity="0.996078431372549" d="M 150.5 135 Q 151.5 137 152.5 135 L 156 137.5 L 159 145.5 L 159 164.5 L 157 170.5 L 154.5 174 L 151.5 175 L 151 174.5 L 153 172.5 L 156 165.5 Q 154.7 160.8 157 159.5 L 157 151.5 L 156 150.5 L 156 145.5 L 154 139.5 L 150 135.5 L 150.5 135 Z M 157 142 L 156 145 L 157 145 L 157 142 Z M 158 145 L 157 150 L 158 150 L 158 145 Z M 158 160 L 157 165 L 158 165 L 158 160 Z " /><path fill="rgb(212,206,203)" stroke="rgb(212,206,203)" stroke-width="1" opacity="0.996078431372549" d="M 586.5 140 L 587.5 144 L 589 143.5 L 589 154.5 L 588 157.5 L 589 160.5 L 588 160.5 L 587.5 159 L 586.5 163 L 585.5 161 Q 581.5 162 580.5 160 L 579 160.5 L 578 154.5 Q 580 153.5 579 149.5 L 578 146.5 L 579 145.5 L 579.5 141 Q 580.5 143 581.5 141 Q 585.5 142 586.5 140 Z " /><path fill="rgb(212,206,203)" stroke="rgb(212,206,203)" stroke-width="1" opacity="0.996078431372549" d="M 115.5 144 L 116.5 146 L 118 145.5 Q 116 146.5 117 150.5 L 118 151.5 L 118 159.5 L 117 160.5 L 117 164.5 L 115.5 168 L 114.5 166 L 109.5 165 L 108 165.5 L 107 162.5 L 108 162.5 L 108.5 164 L 109 148.5 L 107 148.5 L 108.5 145 Q 109.3 146.8 112.5 146 L 115.5 144 Z " /><path fill="rgb(219,132,11)" stroke="rgb(219,132,11)" stroke-width="1" opacity="0.08235294117647059" d="M 505.5 129 L 572 129.5 L 505.5 130 L 505.5 129 Z " /><path fill="rgb(219,132,11)" stroke="rgb(219,132,11)" stroke-width="1" opacity="0.08235294117647059" d="M 399.5 130 L 480 130.5 L 399.5 131 L 399.5 130 Z " /><path fill="rgb(219,132,11)" stroke="rgb(219,132,11)" stroke-width="1" opacity="0.08235294117647059" d="M 293.5 131 L 374 131.5 L 293.5 132 L 293.5 131 Z " /><path fill="rgb(219,132,11)" stroke="rgb(219,132,11)" stroke-width="1" opacity="0.08235294117647059" d="M 488.5 131 L 495 131.5 L 488.5 132 L 488.5 131 Z " /><path fill="rgb(219,132,11)" stroke="rgb(219,132,11)" stroke-width="1" opacity="0.08235294117647059" d="M 501.5 131 L 547 131.5 L 501.5 132 L 501.5 131 Z " /><path fill="rgb(219,132,11)" stroke="rgb(219,132,11)" stroke-width="1" opacity="0.08235294117647059" d="M 188.5 132 L 269 132.5 L 188.5 133 L 188.5 132 Z " /><path fill="rgb(219,132,11)" stroke="rgb(219,132,11)" stroke-width="1" opacity="0.08235294117647059" d="M 382.5 132 L 443 132.5 L 382.5 133 L 382.5 132 Z " /><path fill="rgb(219,132,11)" stroke="rgb(219,132,11)" stroke-width="1" opacity="0.08235294117647059" d="M 89.5 133 L 101 133.5 L 89.5 134 L 89.5 133 Z " /><path fill="rgb(219,132,11)" stroke="rgb(219,132,11)" stroke-width="1" opacity="0.08235294117647059" d="M 114.5 133 L 130 133.5 L 114.5 134 L 114.5 133 Z " /><path fill="rgb(219,132,11)" stroke="rgb(219,132,11)" stroke-width="1" opacity="0.08235294117647059" d="M 138.5 133 L 150 133.5 L 138.5 134 L 138.5 133 Z " /><path fill="rgb(219,132,11)" stroke="rgb(219,132,11)" stroke-width="1" opacity="0.08235294117647059" d="M 155.5 133 L 163 133.5 L 155.5 134 L 155.5 133 Z " /><path fill="rgb(219,132,11)" stroke="rgb(219,132,11)" stroke-width="1" opacity="0.08235294117647059" d="M 278.5 133 L 337 133.5 L 278.5 134 L 278.5 133 Z " /><path fill="rgb(219,132,11)" stroke="rgb(219,132,11)" stroke-width="1" opacity="0.08235294117647059" d="M 172.5 134 L 230 134.5 L 172.5 135 L 172.5 134 Z " /><path fill="rgb(219,132,11)" stroke="rgb(219,132,11)" stroke-width="1" opacity="0.08235294117647059" d="M 88.5 135 L 101 135.5 L 88.5 136 L 88.5 135 Z " /><path fill="rgb(219,132,11)" stroke="rgb(219,132,11)" stroke-width="1" opacity="0.08235294117647059" d="M 113.5 135 L 124 135.5 L 113.5 136 L 113.5 135 Z " /><path fill="rgb(49,49,48)" stroke="rgb(49,49,48)" stroke-width="1" opacity="0.996078431372549" d="M 321.5 145 L 323 146.5 L 322.5 148 L 324 148.5 Q 326 151 325 156.5 L 322 159.5 L 322.5 161 L 321.5 160 Q 316.8 161.3 315.5 159 L 309.5 159 L 308.5 160 L 307.5 159 L 306 159.5 L 306.5 158 L 305 157.5 Q 305.8 154.3 304 153.5 L 305.5 149 L 307 148.5 L 306.5 147 Q 307.5 149 308.5 147 L 322 146.5 L 321.5 145 Z " /><path fill="rgb(49,49,48)" stroke="rgb(49,49,48)" stroke-width="1" opacity="0.996078431372549" d="M 602.5 145 L 603 147.5 L 602 147.5 L 602.5 145 Z " /><path fill="rgb(49,49,48)" stroke="rgb(49,49,48)" stroke-width="1" opacity="0.996078431372549" d="M 365.5 146 L 367.5 148 L 369 147.5 Q 371.2 150.3 370 156.5 L 368.5 159 L 366.5 160 L 353 160.5 L 353.5 162 L 351 159.5 L 351.5 158 L 350 157.5 L 349 152.5 L 350.5 148 L 352.5 147 L 364.5 147 L 365.5 146 Z " /><path fill="rgb(49,49,48)" stroke="rgb(49,49,48)" stroke-width="1" opacity="0.996078431372549" d="M 401.5 146 Q 402.5 148 406.5 147 L 408 146.5 L 407.5 148 Q 410.5 147.5 411 149.5 L 412 153.5 L 411 156.5 L 408.5 159 L 403.5 160 L 402.5 158 L 401.5 159 L 398 155.5 L 398 150.5 L 401.5 146 Z " /><path fill="rgb(49,49,48)" stroke="rgb(49,49,48)" stroke-width="1" opacity="0.996078431372549" d="M 233.5 148 L 233 149.5 L 233.5 151 L 235 150.5 Q 235.8 155.3 233.5 157 L 225.5 157 L 224.5 156 L 216 155.5 L 215.5 154 L 214.5 156 L 214 153.5 L 216 152.5 L 215 150.5 L 216.5 151 L 217.5 150 L 229.5 150 L 233.5 148 Z " /><path fill="rgb(49,49,48)" stroke="rgb(49,49,48)" stroke-width="1" opacity="0.996078431372549" d="M 265.5 148 L 268.5 149 Q 269.5 147 270.5 149 Q 274.6 148.4 276 150.5 L 277 155.5 L 275.5 158 L 272.5 159 L 271.5 158 L 265.5 158 L 263 156.5 Q 262 150 265.5 148 Z " /><path fill="rgb(49,49,48)" stroke="rgb(49,49,48)" stroke-width="1" opacity="0.996078431372549" d="M 537.5 150 L 538 152.5 L 537 152.5 L 537.5 150 Z " /><path fill="rgb(49,49,48)" stroke="rgb(49,49,48)" stroke-width="1" opacity="0.996078431372549" d="M 556.5 150 L 557 152.5 L 556 152.5 L 556.5 150 Z " /><path fill="rgb(49,49,48)" stroke="rgb(49,49,48)" stroke-width="1" opacity="0.996078431372549" d="M 602.5 154 L 603 156.5 L 602 156.5 L 602.5 154 Z " /><path fill="rgb(30,30,30)" stroke="rgb(30,30,30)" stroke-width="1" opacity="0.3176470588235294" d="M 603.5 133 L 605 135.5 Q 604 137 603 134.5 L 603.5 133 Z " /><path fill="rgb(30,30,30)" stroke="rgb(30,30,30)" stroke-width="1" opacity="0.3176470588235294" d="M 604.5 137 L 606 137.5 L 605.5 139 Q 603 138 604.5 137 Z " /><path fill="rgb(30,30,30)" stroke="rgb(30,30,30)" stroke-width="1" opacity="0.3176470588235294" d="M 606.5 146 L 608 146.5 L 608 154.5 L 606.5 156 L 606.5 146 Z " /><path fill="rgb(30,30,30)" stroke="rgb(30,30,30)" stroke-width="1" opacity="0.3176470588235294" d="M 66.5 157 L 77 157.5 L 76.5 162 Q 72.5 163 71.5 161 L 66.5 163 L 63.5 162 L 62.5 163 L 58 163.5 L 57.5 165 L 53 167.5 Q 52.5 171.5 55.5 172 L 58 172.5 L 58.5 174 L 65.5 175 Q 66.5 173 67.5 175 L 69.5 176 L 70.5 175 L 76.5 175 L 77.5 176 L 100.5 176 L 101.5 177 L 112.5 177 L 113.5 176 L 154.5 176 L 155.5 177 L 174.5 177 L 175.5 176 L 247.5 176 L 248.5 177 L 548.5 177 L 549.5 176 L 562.5 176 L 563.5 175 L 569.5 175 Q 570.5 177 571.5 175 L 573.5 174 Q 574.3 175.7 577.5 175 L 585.5 171 Q 586.5 173 587.5 171 L 599.5 171 L 602 169.5 L 606.5 162 L 609 163.5 L 609 173.5 L 607.5 175 L 595.5 175 L 590.5 178 L 576.5 178 L 573.5 180 L 565.5 180 L 562.5 181 L 561.5 180 L 78.5 180 L 75.5 181 L 74.5 180 L 66.5 180 L 63.5 178 L 49.5 178 L 44.5 175 L 32.5 175 L 31 173.5 L 31.5 163 L 33.5 162 L 45.5 162 L 50.5 159 L 66 158.5 L 66.5 157 Z " /><path fill="rgb(25,26,29)" stroke="rgb(25,26,29)" stroke-width="1" opacity="0.5803921568627451" d="M 605.5 142 L 606 144.5 L 605 144.5 L 605.5 142 Z " /><path fill="rgb(25,26,29)" stroke="rgb(25,26,29)" stroke-width="1" opacity="0.5803921568627451" d="M 77.5 152 L 78 164.5 L 79 166.5 L 78 168.5 L 86 175.5 L 77.5 176 L 76.5 175 L 70.5 175 Q 69.5 177 68.5 175 L 66.5 174 Q 65.8 175.7 62.5 175 L 58 173.5 L 57.5 172 Q 53.5 172.5 53 169.5 Q 52.5 166.5 54.5 166 L 58 164.5 L 58.5 163 L 65.5 162 Q 66.5 164 67.5 162 Q 70.8 162.8 71.5 161 Q 72.5 163 76.5 162 L 77.5 152 Z " /><path fill="rgb(25,26,29)" stroke="rgb(25,26,29)" stroke-width="1" opacity="0.5803921568627451" d="M 605.5 157 L 606 159.5 L 605 159.5 L 605.5 157 Z " /><path fill="rgb(25,26,29)" stroke="rgb(25,26,29)" stroke-width="1" opacity="0.5803921568627451" d="M 564.5 171 L 566.5 172 L 567.5 171 L 584.5 171 L 584.5 172 L 582.5 172 L 577.5 175 L 574.5 175 Q 573.5 173 572.5 175 L 570.5 176 L 569.5 175 L 563.5 175 L 562.5 176 L 549.5 176 L 548.5 177 L 248.5 177 L 247.5 176 L 175.5 176 L 174.5 177 L 155.5 177 L 154.5 176 L 140 175.5 L 244.5 175 L 245.5 174 L 353.5 174 L 354.5 173 L 462.5 173 L 463.5 172 L 496.5 172 L 499.5 173 L 500.5 172 L 563.5 172 L 564.5 171 Z " /></svg>