<svg viewBox="0 0 607 640" version="1.1" xmlns="http://www.w3.org/2000/svg" desc="Created with imagetracer.js version 1.2.6" ><path fill="rgb(0,0,0)" stroke="rgb(0,0,0)" stroke-width="1" opacity="0.00784313725490196" d="M 0.5 0 L 313 0.5 Q 313.8 3.8 312 4.5 L 311.5 94 Q 308.5 93.5 308 95.5 L 307.5 107 L 300.5 109 L 290 117.5 L 284 127.5 L 283 130.5 L 283 135.5 L 281.5 139 Q 277.8 138.3 277 140.5 Q 275.5 146.5 278.5 148 L 358 147.5 L 357.5 140 L 350 139.5 L 350 133.5 L 349 132.5 L 348 126.5 Q 344 117.5 336.5 112 L 326 106.5 L 325.5 94 L 323 93.5 L 323 46.5 L 324 45.5 L 324.5 0 L 607 0.5 L 606.5 364 Q 604.4 355.1 597.5 351 L 586.5 346 L 579.5 346 L 578.5 345 L 566.5 345 L 566 357.5 L 565 358.5 L 569.5 360 L 576.5 360 Q 577.5 362 581.5 361 L 588.5 364 L 592 367.5 L 593 369.5 L 593 389.5 L 592 390.5 L 592 404.5 L 607 405.5 L 606.5 640 L 509 639.5 L 512 637.5 L 512 635.5 L 508.5 632 L 504 631.5 L 505 622.5 L 507.5 618 L 514 617.5 L 513 612.5 Q 521.1 605.6 527 596.5 L 531 588.5 L 532 582.5 L 536 572.5 L 548 555.5 L 552.5 551 Q 559 551 562 547.5 Q 563.5 540.5 559.5 539 L 551.5 539 Q 550.8 540.8 547.5 540 L 547 521.5 L 548 520.5 L 548 483.5 L 549 482.5 L 549 445.5 L 550 444.5 L 550 412.5 L 546 401.5 Q 541.5 393.5 534.5 388 L 520.5 381 Q 516.5 382 515.5 380 L 505.5 380 L 504.5 381 L 500.5 381 L 494.5 383 L 488.5 387 L 484.5 385 L 479.5 385 L 476.5 386 L 471 390.5 L 473.5 393 L 493.5 404 Q 496.1 401.6 495 395.5 L 492 389.5 L 498.5 386 L 511.5 384 L 512.5 385 L 518.5 385 Q 519.3 386.8 522.5 386 L 528.5 389 L 539 398.5 L 544 407.5 L 545 413.5 L 546 414.5 L 546 434.5 L 545 435.5 L 545 471.5 L 544 472.5 L 544 506.5 L 543 507.5 L 542.5 531 L 541.5 530 L 533.5 530 L 533.5 531 Q 540.3 529.7 543 532.5 L 542.5 541 L 540.5 542 L 535.5 542 L 534.5 543 L 524.5 544 L 523.5 545 L 519.5 545 L 518.5 546 L 514.5 546 L 513.5 547 L 508.5 547 L 502.5 549 L 488.5 550 L 487.5 551 L 457.5 551 L 456.5 550 L 449.5 550 L 448.5 549 L 443.5 549 L 442.5 548 L 433.5 547 L 421.5 543 L 418.5 543 L 355.5 521 L 347.5 520 L 346.5 519 L 333.5 519 Q 332.5 521 328.5 520 L 322 524.5 Q 320.3 526.3 321 530.5 L 323.5 534 L 330.5 535 Q 331.8 532.8 336.5 534 L 345 540.5 L 368 587.5 L 374 596.5 L 381.5 604 L 394 612.5 Q 391.5 613 392 616.5 L 397.5 617 L 400 619.5 L 402 630.5 Q 396.1 630.6 394 634.5 Q 393.5 638.5 396.5 639 L 403.5 639 L 410 634.5 L 409 626.5 L 410 625.5 L 410 621.5 L 411.5 618 L 418.5 619 L 423.5 621 L 434.5 622 L 435.5 623 L 442.5 623 L 443.5 624 L 463.5 624 L 464.5 623 L 472.5 623 Q 473.7 620.7 478.5 622 L 479.5 621 L 488.5 620 L 493.5 618 L 495 619.5 L 497 629.5 L 495 632.5 L 495 634.5 L 502 639.5 L 0.5 640 L 0 424.5 L 73.5 424 L 74.5 425 L 123.5 425 L 124 420.5 L 123 417.5 L 115.5 410 L 97.5 400 L 90 392.5 L 105.5 392 L 106.5 391 L 114.5 391 L 115.5 390 L 123.5 389 L 135.5 384 L 145 375.5 L 148 369.5 L 149 362.5 L 80.5 362 L 79.5 361 Q 78.5 363 77.5 361 L 67 360.5 L 66.5 291 L 35.5 291 L 34.5 290 L 9.5 290 L 9 347.5 L 8 348.5 L 8 372.5 L 12.5 378 Q 14.3 379.7 18.5 379 L 21 380.5 L 17 388.5 L 3 407.5 L 0.5 416 L 0.5 0 Z M 84 102 L 83 121 L 88 121 L 88 108 L 137 107 L 138 109 L 138 121 L 143 121 L 143 104 L 142 102 L 84 102 Z M 561 111 L 558 113 L 551 121 L 517 155 L 513 157 L 490 135 L 488 132 L 484 118 L 480 113 L 477 112 L 468 112 L 466 114 L 474 118 Q 476 119 475 125 L 470 129 L 462 124 L 460 125 L 460 127 L 463 132 L 469 137 L 484 140 L 507 164 L 505 166 Q 504 162 499 163 L 496 166 L 495 170 L 490 174 L 486 175 L 459 202 L 459 205 L 461 209 L 468 214 Q 472 215 474 213 L 499 188 L 501 183 L 505 179 L 509 178 L 511 176 L 511 173 L 508 169 L 511 167 L 545 202 L 549 212 L 554 215 Q 559 216 562 214 L 565 210 Q 566 204 564 202 L 562 199 L 552 195 L 517 161 L 563 116 Q 564 111 561 111 Z M 49 123 L 48 133 L 47 134 L 49 135 L 88 135 L 88 129 L 90 127 L 135 127 Q 138 129 136 135 L 177 135 L 177 125 L 129 124 L 128 123 L 49 123 Z M 91 130 L 90 151 L 134 151 L 134 131 L 91 130 Z M 50 136 L 49 172 L 48 173 L 48 212 L 126 212 L 127 213 L 175 213 L 175 138 L 137 137 L 136 142 L 135 143 L 135 153 L 89 153 L 88 138 L 85 136 L 50 136 Z M 304 217 L 303 218 L 299 218 L 298 219 L 292 220 L 283 225 L 275 233 L 269 244 L 266 253 L 266 256 L 265 257 L 263 271 L 258 278 L 264 285 L 264 296 Q 266 297 265 301 L 275 324 L 275 335 L 271 347 L 271 350 L 269 355 Q 263 360 260 369 L 260 373 L 258 377 L 271 377 L 276 379 L 279 379 L 290 384 L 300 391 Q 309 399 316 411 L 324 427 L 347 407 L 346 401 L 342 392 L 342 390 L 334 378 L 337 372 L 337 369 L 342 362 Q 344 364 350 363 L 351 364 L 357 364 L 358 365 L 366 365 Q 370 363 373 360 L 373 350 L 372 349 Q 373 343 377 341 L 376 338 L 375 337 L 379 333 L 377 324 L 382 321 L 386 321 L 389 319 L 389 314 L 380 297 L 378 295 L 376 289 L 382 288 L 383 287 L 388 287 L 389 286 L 393 286 L 398 284 L 401 284 L 415 278 L 417 274 L 413 270 L 404 267 L 400 267 L 394 265 L 390 265 L 389 264 L 385 264 L 384 263 L 375 262 L 369 246 L 363 235 L 356 227 L 343 220 L 336 219 L 335 218 L 331 218 L 330 217 L 304 217 Z M 35 276 L 34 278 L 18 278 L 13 280 L 9 285 L 9 288 L 42 288 L 45 289 L 67 289 L 68 288 L 66 283 L 62 279 L 56 279 L 55 278 L 44 278 L 42 276 L 35 276 Z M 527 279 L 526 309 L 525 310 L 525 318 L 530 319 L 540 319 L 540 300 L 541 299 L 541 280 L 527 279 Z M 74 288 L 71 289 L 70 309 L 69 310 L 70 354 Q 73 355 74 353 L 74 288 Z M 521 320 L 520 329 L 523 330 L 524 342 L 529 352 Q 534 359 544 362 L 552 363 L 555 365 L 560 365 L 561 364 L 561 342 L 554 341 L 553 343 L 548 342 L 543 338 L 542 335 L 543 324 L 544 322 L 540 320 L 521 320 Z M 73 356 L 72 360 L 149 360 L 149 358 L 148 356 L 73 356 Z M 259 383 L 258 384 L 251 385 L 242 391 L 224 411 L 219 420 L 228 428 L 236 434 L 259 447 L 261 447 L 264 449 L 276 453 L 283 454 L 284 455 L 294 456 L 295 457 L 305 457 L 306 458 L 318 458 L 319 457 L 324 457 L 320 437 L 316 425 L 305 406 Q 295 393 280 386 L 274 384 L 270 384 L 269 383 L 259 383 Z M 347 415 L 326 434 L 326 438 L 329 447 L 329 451 L 330 452 L 331 456 L 341 455 L 342 454 L 345 454 L 346 453 L 349 453 L 356 451 L 352 446 L 350 440 Q 351 435 349 434 L 349 420 Q 347 419 348 416 L 347 415 Z M 117 507 L 116 509 L 117 510 L 117 513 L 119 519 L 126 531 Q 133 539 143 545 L 154 550 L 161 551 L 162 552 L 167 552 L 168 553 L 179 553 L 180 552 L 186 552 L 187 551 L 190 551 L 196 549 L 206 544 L 215 537 L 225 524 L 230 509 L 191 508 L 190 507 L 117 507 Z M 153 552 L 152 636 Q 150 637 153 638 L 193 638 L 193 553 L 187 555 L 182 555 L 181 556 L 166 556 L 165 555 L 156 554 L 153 552 Z " /><path fill="rgb(0,0,0)" stroke="rgb(0,0,0)" stroke-width="1" opacity="0.00784313725490196" d="M 554.5 201 Q 559.3 200.3 561 202.5 Q 562.7 204.3 562 208.5 L 560.5 211 Q 558.7 212.7 554.5 212 L 552 210.5 Q 550.3 208.7 551 204.5 L 552.5 202 L 554.5 201 Z " /><path fill="rgb(0,0,0)" stroke="rgb(0,0,0)" stroke-width="1" opacity="0.996078431372549" d="M 313.5 0 L 324 0.5 L 323 93.5 L 326 94.5 L 326 106.5 L 327.5 108 Q 338.4 111.1 344 119.5 L 349 129.5 L 350.5 140 L 358 140.5 L 357.5 148 L 278.5 148 L 277 146.5 Q 275.5 140.5 278.5 139 L 282 138.5 L 284 127.5 L 287 121.5 L 294.5 113 L 302.5 108 L 308 106.5 L 308 95.5 L 309.5 94 L 312 93.5 L 312 4.5 L 313.5 0 Z " /><path fill="rgb(0,0,0)" stroke="rgb(0,0,0)" stroke-width="1" opacity="0.996078431372549" d="M 83.5 102 L 141.5 102 L 143 103.5 L 142.5 121 L 138 120.5 L 138 108.5 L 136.5 107 L 88 107.5 L 87.5 121 L 83 120.5 L 83.5 102 Z " /><path fill="rgb(0,0,0)" stroke="rgb(0,0,0)" stroke-width="1" opacity="0.996078431372549" d="M 560.5 111 Q 563.5 111.5 563 115.5 L 517 160.5 L 551.5 195 L 561.5 199 L 564 201.5 Q 566 204 565 209.5 L 561.5 214 Q 559 216 553.5 215 L 549 211.5 L 545 201.5 L 510.5 167 L 508 168.5 L 511 172.5 L 511 175.5 L 508.5 178 L 504.5 179 L 501 182.5 L 499 187.5 L 473.5 213 Q 471.7 214.7 467.5 214 L 461 208.5 L 459 204.5 L 459 201.5 L 485.5 175 L 489.5 174 L 495 169.5 L 496 165.5 L 498.5 163 Q 503.7 162.2 504.5 166 L 507 163.5 L 483.5 140 L 468.5 137 L 463 131.5 L 460 126.5 L 460 124.5 L 461.5 124 L 469.5 129 L 475 124.5 Q 476.3 119.3 473.5 118 L 466 113.5 L 467.5 112 L 476.5 112 L 479.5 113 L 484 117.5 L 488 131.5 L 490 134.5 L 512.5 157 L 516.5 155 L 551 120.5 L 557.5 113 L 560.5 111 Z M 555 201 L 553 202 L 551 205 Q 550 209 552 211 L 555 212 Q 559 213 561 211 L 562 209 Q 563 204 561 203 Q 559 200 555 201 Z " /><path fill="rgb(0,0,0)" stroke="rgb(0,0,0)" stroke-width="1" opacity="0.996078431372549" d="M 48.5 123 L 127.5 123 L 128.5 124 L 177 124.5 L 176.5 135 L 136 134.5 Q 137.5 128.5 134.5 127 L 89.5 127 L 88 128.5 L 87.5 135 L 48.5 135 L 47 133.5 L 48 132.5 L 48.5 123 Z " /><path fill="rgb(0,0,0)" stroke="rgb(0,0,0)" stroke-width="1" opacity="0.996078431372549" d="M 90.5 130 L 134 130.5 L 133.5 151 L 90 150.5 L 90.5 130 Z " /><path fill="rgb(0,0,0)" stroke="rgb(0,0,0)" stroke-width="1" opacity="0.996078431372549" d="M 49.5 136 L 84.5 136 L 88 137.5 L 88.5 153 L 135 152.5 L 135 142.5 L 136 141.5 L 136.5 137 L 175 137.5 L 174.5 213 L 126.5 213 L 125.5 212 L 48 211.5 L 48 172.5 L 49 171.5 L 49.5 136 Z " /><path fill="rgb(0,0,0)" stroke="rgb(0,0,0)" stroke-width="1" opacity="0.996078431372549" d="M 303.5 217 L 329.5 217 L 330.5 218 L 334.5 218 L 335.5 219 L 342.5 220 L 355.5 227 L 363 234.5 L 369 245.5 L 374.5 262 L 383.5 263 L 384.5 264 L 388.5 264 L 389.5 265 L 393.5 265 L 399.5 267 L 403.5 267 L 412.5 270 L 417 273.5 L 414.5 278 L 400.5 284 L 397.5 284 L 392.5 286 L 388.5 286 L 387.5 287 L 382.5 287 L 381.5 288 L 376 288.5 L 378 294.5 L 380 296.5 L 389 313.5 L 389 318.5 L 385.5 321 L 381.5 321 L 377 323.5 L 379 332.5 L 375 336.5 L 376 337.5 L 377 340.5 Q 372.6 342.5 372 348.5 L 373 349.5 L 373 359.5 Q 370.3 363.3 365.5 365 L 357.5 365 L 356.5 364 L 350.5 364 L 349.5 363 Q 344 364 341.5 362 L 337 368.5 L 337 371.5 L 334 377.5 L 342 389.5 L 342 391.5 L 346 400.5 L 347 406.5 L 323.5 427 L 316 410.5 Q 309.2 399.3 299.5 391 L 289.5 384 L 278.5 379 L 275.5 379 L 270.5 377 L 258 376.5 L 260 372.5 L 260 368.5 Q 263.4 360.4 269 354.5 L 271 349.5 L 271 346.5 L 275 334.5 L 275 323.5 L 265 300.5 Q 266 296.5 264 295.5 L 264 284.5 L 258 277.5 L 263 270.5 L 265 256.5 L 266 255.5 L 266 252.5 L 269 243.5 L 275 232.5 L 282.5 225 L 291.5 220 L 297.5 219 L 298.5 218 L 302.5 218 L 303.5 217 Z " /><path fill="rgb(0,0,0)" stroke="rgb(0,0,0)" stroke-width="1" opacity="0.996078431372549" d="M 34.5 276 L 41.5 276 L 43.5 278 L 54.5 278 L 55.5 279 L 61.5 279 L 66 282.5 L 68 287.5 L 66.5 289 L 44.5 289 L 41.5 288 L 9 287.5 L 9 284.5 L 12.5 280 L 17.5 278 L 34 277.5 L 34.5 276 Z " /><path fill="rgb(0,0,0)" stroke="rgb(0,0,0)" stroke-width="1" opacity="0.996078431372549" d="M 526.5 279 L 541 279.5 L 541 298.5 L 540 299.5 L 539.5 319 L 529.5 319 L 525 317.5 L 525 309.5 L 526 308.5 L 526.5 279 Z " /><path fill="rgb(0,0,0)" stroke="rgb(0,0,0)" stroke-width="1" opacity="0.996078431372549" d="M 73.5 288 L 74 352.5 Q 73.3 354.8 69.5 354 L 69 309.5 L 70 308.5 L 70.5 289 L 73.5 288 Z " /><path fill="rgb(0,0,0)" stroke="rgb(0,0,0)" stroke-width="1" opacity="0.996078431372549" d="M 9.5 290 L 34.5 290 L 35.5 291 L 67 291.5 L 67.5 361 L 77.5 361 L 78.5 362 Q 79.5 360 80.5 362 L 149 362.5 Q 147.7 376.2 138.5 382 L 129.5 387 L 123.5 389 L 120.5 389 L 119.5 390 Q 115.5 389 114.5 391 L 106.5 391 L 105.5 392 L 90 392.5 L 97.5 400 L 115.5 410 L 123 417.5 L 124 424.5 L 74.5 425 L 73.5 424 L 0 423.5 L 0 416.5 L 1 415.5 L 2 409.5 L 17 388.5 L 21 380.5 Q 19.3 378.3 14.5 379 L 9 374.5 L 8 372.5 L 8 348.5 L 9 347.5 L 9.5 290 Z " /><path fill="rgb(0,0,0)" stroke="rgb(0,0,0)" stroke-width="1" opacity="0.996078431372549" d="M 520.5 320 L 539.5 320 L 544 321.5 L 543 323.5 L 542 334.5 L 543 337.5 L 547.5 342 L 552.5 343 L 553.5 341 L 561 341.5 L 561 363.5 L 559.5 365 L 554.5 365 L 551.5 363 L 543.5 362 Q 534.5 358.5 529 351.5 L 524 341.5 L 522.5 330 L 520 328.5 L 520.5 320 Z " /><path fill="rgb(0,0,0)" stroke="rgb(0,0,0)" stroke-width="1" opacity="0.996078431372549" d="M 566.5 345 L 578.5 345 L 579.5 346 L 586.5 346 L 594.5 349 L 604 357.5 L 607 364.5 L 607 404.5 L 592.5 405 L 592 390.5 L 593 389.5 L 593 369.5 L 588.5 364 L 581.5 361 Q 577.5 362 576.5 360 L 569.5 360 L 565 358.5 L 566 357.5 L 566.5 345 Z " /><path fill="rgb(0,0,0)" stroke="rgb(0,0,0)" stroke-width="1" opacity="0.996078431372549" d="M 72.5 356 L 147.5 356 L 149 357.5 L 148.5 360 L 72 359.5 L 72.5 356 Z " /><path fill="rgb(0,0,0)" stroke="rgb(0,0,0)" stroke-width="1" opacity="0.996078431372549" d="M 505.5 380 L 515.5 380 L 516.5 381 L 523.5 382 L 534.5 388 L 542 395.5 L 547 403.5 L 550 412.5 L 550 444.5 L 549 445.5 L 549 482.5 L 548 483.5 L 548 520.5 L 547 521.5 L 547 539.5 L 550.5 540 L 551.5 539 L 559.5 539 Q 563.5 540.5 562 547.5 Q 559 551 552.5 551 L 548 555.5 L 536 572.5 L 532 582.5 L 531 588.5 L 527 596.5 L 513 613.5 Q 514.8 614.3 514 617.5 L 507 618.5 L 504 626.5 L 504 631.5 L 508.5 632 L 512 635.5 Q 512.5 638.5 510.5 639 Q 508 641 502.5 640 L 495 634.5 L 497 628.5 L 496 627.5 L 495 619.5 L 493.5 618 L 488.5 620 L 484.5 620 L 478.5 622 L 473.5 622 L 472.5 623 L 464.5 623 L 463.5 624 L 443.5 624 L 442.5 623 L 435.5 623 L 434.5 622 L 423.5 621 L 422.5 620 L 411.5 618 L 410 621.5 L 409 630.5 Q 410.8 631.3 410 634.5 L 403.5 639 L 396.5 639 Q 393.5 638.5 394 634.5 Q 396.3 630.8 402 630.5 L 401 622.5 L 400 619.5 L 397.5 617 L 392 616.5 Q 391.5 613 394 612.5 L 381.5 604 L 374 596.5 L 368 587.5 L 345 540.5 L 341.5 537 L 336.5 534 L 331.5 534 Q 330.5 536 326.5 535 L 322 532.5 Q 320.3 530.7 321 526.5 L 324.5 522 L 333.5 519 L 346.5 519 L 347.5 520 L 355.5 521 L 379.5 529 L 382.5 531 L 418.5 543 L 421.5 543 L 433.5 547 L 437.5 547 L 443.5 549 L 448.5 549 L 449.5 550 L 456.5 550 L 457.5 551 L 487.5 551 L 488.5 550 L 495.5 550 L 496.5 549 L 502.5 549 L 508.5 547 L 513.5 547 L 514.5 546 L 518.5 546 L 519.5 545 L 523.5 545 L 529.5 543 L 540.5 542 L 543 540.5 L 542.5 532 L 540.5 531 L 533 530.5 L 541.5 530 L 543 530.5 L 543 507.5 L 544 506.5 L 544 472.5 L 545 471.5 L 545 435.5 L 546 434.5 L 546 414.5 L 541 401.5 L 531.5 391 L 522.5 386 L 508.5 384 L 507.5 385 L 498.5 386 L 492 389.5 L 495 395.5 L 495 401.5 L 493.5 404 L 488.5 402 L 473.5 393 L 471 390.5 L 476.5 386 L 479.5 385 L 484.5 385 L 488.5 387 L 494.5 383 L 500.5 381 L 504.5 381 L 505.5 380 Z " /><path fill="rgb(0,0,0)" stroke="rgb(0,0,0)" stroke-width="1" opacity="0.996078431372549" d="M 258.5 383 L 268.5 383 L 269.5 384 L 273.5 384 L 279.5 386 Q 295.1 392.9 305 405.5 L 316 424.5 L 320 436.5 L 324 456.5 L 318.5 457 L 317.5 458 L 305.5 458 L 304.5 457 L 294.5 457 L 293.5 456 L 283.5 455 L 282.5 454 L 275.5 453 L 263.5 449 L 260.5 447 L 258.5 447 L 235.5 434 L 227.5 428 L 219 419.5 L 224 410.5 L 241.5 391 L 250.5 385 L 257.5 384 L 258.5 383 Z " /><path fill="rgb(0,0,0)" stroke="rgb(0,0,0)" stroke-width="1" opacity="0.996078431372549" d="M 346.5 415 L 348 415.5 Q 347.2 418.8 349 419.5 L 349 433.5 Q 351.2 434.8 350 439.5 L 352 445.5 L 356 450.5 L 348.5 453 L 345.5 453 L 344.5 454 L 341.5 454 L 340.5 455 L 330.5 456 L 330 451.5 L 329 450.5 L 329 446.5 L 326 437.5 L 326 433.5 L 346.5 415 Z " /><path fill="rgb(0,0,0)" stroke="rgb(0,0,0)" stroke-width="1" opacity="0.996078431372549" d="M 116.5 507 L 189.5 507 L 190.5 508 L 230 508.5 L 225 523.5 L 214.5 537 L 205.5 544 L 195.5 549 L 189.5 551 L 186.5 551 L 185.5 552 L 179.5 552 L 178.5 553 L 167.5 553 L 166.5 552 L 161.5 552 L 160.5 551 L 153.5 550 L 142.5 545 Q 132.7 539.3 126 530.5 L 119 518.5 L 117 512.5 L 117 509.5 L 116 508.5 L 116.5 507 Z " /><path fill="rgb(0,0,0)" stroke="rgb(0,0,0)" stroke-width="1" opacity="0.996078431372549" d="M 152.5 552 L 155.5 554 L 164.5 555 L 165.5 556 L 180.5 556 L 181.5 555 L 186.5 555 L 192.5 553 L 193 637.5 L 152.5 638 Q 149.8 636.8 152 635.5 L 152.5 552 Z " /></svg>